<?xml version="1.0" encoding="UTF-8" standalone="no"?>
<!-- Created with Inkscape (http://www.inkscape.org/) -->
<svg
   xmlns:dc="http://purl.org/dc/elements/1.1/"
   xmlns:cc="http://creativecommons.org/ns#"
   xmlns:rdf="http://www.w3.org/1999/02/22-rdf-syntax-ns#"
   xmlns:svg="http://www.w3.org/2000/svg"
   xmlns="http://www.w3.org/2000/svg"
   xmlns:sodipodi="http://sodipodi.sourceforge.net/DTD/sodipodi-0.dtd"
   xmlns:inkscape="http://www.inkscape.org/namespaces/inkscape"
   width="1227.672"
   height="1058.0784"
   id="svg2384"
   sodipodi:version="0.32"
   inkscape:version="0.46"
   version="1.0"
   sodipodi:docname="200.svg"
   inkscape:output_extension="org.inkscape.output.svg.inkscape">
  <defs
     id="defs2386">
    <inkscape:perspective
       sodipodi:type="inkscape:persp3d"
       inkscape:vp_x="0 : 526.18109 : 1"
       inkscape:vp_y="0 : 1000 : 0"
       inkscape:vp_z="744.09448 : 526.18109 : 1"
       inkscape:persp3d-origin="372.04724 : 350.78739 : 1"
       id="perspective2392" />
  </defs>
  <sodipodi:namedview
     id="base"
     pagecolor="#ffffff"
     bordercolor="#666666"
     borderopacity="1.0"
     inkscape:pageopacity="0.0"
     inkscape:pageshadow="2"
     inkscape:zoom="0.27666667"
     inkscape:cx="1641.0778"
     inkscape:cy="900"
     inkscape:document-units="px"
     inkscape:current-layer="layer1"
     showgrid="false"
     inkscape:window-width="1163"
     inkscape:window-height="941"
     inkscape:window-x="1405"
     inkscape:window-y="24" />
  <metadata
     id="metadata2389">
    <rdf:RDF>
      <cc:Work
         rdf:about="">
        <dc:format>image/svg+xml</dc:format>
        <dc:type
           rdf:resource="http://purl.org/dc/dcmitype/StillImage" />
      </cc:Work>
    </rdf:RDF>
  </metadata>
  <g
     inkscape:label="Calque 1"
     inkscape:groupmode="layer"
     id="layer1"
     transform="translate(-1.9772487,-746.86437)">
    <path
       style="fill:#000000;stroke:none"
       d="M 205.93679,913.63972 L 250.80791,999.30269 C 238.57032,1056.4114 259.64612,1089.7248 314.03533,1099.2429 C 368.42452,1108.761 404.45737,1086.6654 422.13385,1032.9561 C 439.81039,979.24672 433.3517,930.97627 402.75779,888.14476 C 372.1638,845.31331 317.09471,828.3167 237.55054,837.15494 C 158.00631,845.99319 110.41576,893.58372 94.778869,979.92652 C 79.141929,1066.2695 106.67645,1165.8697 177.38244,1278.7272 C 244.00923,1356.2319 306.55681,1433.7365 365.02513,1511.2411 C 431.65199,1606.4223 471.76406,1704.3228 485.36135,1804.9428 C 425.5332,1804.9428 396.299,1804.9428 397.65875,1804.9428 C 388.14067,1734.2368 358.22656,1661.4913 307.91642,1586.7062 C 288.88025,1556.7921 239.25014,1492.2049 159.02605,1392.9446 C 58.406049,1278.7273 6.0564487,1157.0314 1.9772487,1027.857 C 11.495329,891.88407 61.805339,806.56102 152.90725,771.8879 C 244.00923,737.21478 325.933,738.57451 398.67853,775.96707 C 471.42404,813.35963 510.85621,868.42872 516.97501,941.17431 C 523.09373,1013.9198 510.85618,1072.0483 480.26232,1115.5596 C 449.6684,1159.071 406.15705,1183.2062 349.72825,1187.9653 C 293.29945,1192.7244 248.0884,1178.7871 214.09512,1146.1536 C 180.10185,1113.5201 161.40557,1076.1275 158.00628,1033.9758 C 154.60693,991.82424 170.58377,951.7122 205.93679,913.63972 z"
       id="path4" />
    <path
       style="fill:#000000;stroke:none"
       d="M 917.08139,913.63975 L 961.95251,999.30272 C 949.71492,1056.4114 970.79072,1089.7248 1025.1799,1099.2429 C 1079.5691,1108.761 1115.602,1086.6654 1133.2785,1032.9561 C 1150.955,979.24675 1144.4963,930.9763 1113.9024,888.14479 C 1083.3084,845.31334 1028.2393,828.31673 948.69514,837.15497 C 869.15091,845.99322 821.56036,893.58375 805.92347,979.92655 C 790.28653,1066.2695 817.82105,1165.8697 888.52704,1278.7272 C 955.15383,1356.2319 1017.7014,1433.7365 1076.1697,1511.2411 C 1142.7966,1606.4223 1182.9087,1704.3228 1196.506,1804.9428 C 1136.6778,1804.9428 1107.4436,1804.9428 1108.8034,1804.9428 C 1099.2853,1734.2368 1069.3712,1661.4913 1019.061,1586.7062 C 1000.0249,1556.7921 950.39474,1492.2049 870.17065,1392.9446 C 769.55065,1278.7273 717.20105,1157.0314 713.12185,1027.857 C 722.63993,891.8841 772.94994,806.56105 864.05185,771.88793 C 955.15383,737.21481 1037.0776,738.57454 1109.8231,775.9671 C 1182.5687,813.35966 1222.0008,868.42875 1228.1196,941.17434 C 1234.2383,1013.9198 1222.0008,1072.0483 1191.4069,1115.5596 C 1160.813,1159.071 1117.3017,1183.2062 1060.8729,1187.9653 C 1004.4441,1192.7244 959.233,1178.7871 925.23972,1146.1536 C 891.24645,1113.5201 872.55017,1076.1275 869.15088,1033.9758 C 865.75153,991.82427 881.72837,951.71223 917.08139,913.63975 z"
       id="path2395" />
  </g>
</svg>
