<?xml version="1.0" encoding="UTF-8" standalone="no"?>
<svg
   xmlns:dc="http://purl.org/dc/elements/1.1/"
   xmlns:cc="http://web.resource.org/cc/"
   xmlns:rdf="http://www.w3.org/1999/02/22-rdf-syntax-ns#"
   xmlns:svg="http://www.w3.org/2000/svg"
   xmlns="http://www.w3.org/2000/svg"
   xmlns:sodipodi="http://sodipodi.sourceforge.net/DTD/sodipodi-0.dtd"
   xmlns:inkscape="http://www.inkscape.org/namespaces/inkscape"
   width="19.140545"
   height="17.983217"
   id="svg2241"
   sodipodi:version="0.32"
   inkscape:version="0.45"
   sodipodi:docname="A12A.svg"
   inkscape:output_extension="org.inkscape.output.svg.inkscape"
   sodipodi:docbase="C:\Program Files\JSesh\fontsST"
   sodipodi:modified="true">
  <metadata
     id="metadata2248">
    <rdf:RDF>
      <cc:Work
         rdf:about="">
        <dc:format>image/svg+xml</dc:format>
        <dc:type
           rdf:resource="http://purl.org/dc/dcmitype/StillImage" />
      </cc:Work>
    </rdf:RDF>
  </metadata>
  <defs
     id="defs2246" />
  <sodipodi:namedview
     inkscape:window-height="480"
     inkscape:window-width="640"
     inkscape:pageshadow="2"
     inkscape:pageopacity="0.0"
     guidetolerance="10.0"
     gridtolerance="10.0"
     objecttolerance="10.0"
     borderopacity="1.0"
     bordercolor="#666666"
     pagecolor="#ffffff"
     id="base" />
  <path
     style="fill:#000000; stroke:none"
     d="M 13.90625 0 C 13.750966 0.0032463334 13.599818 0.0096076666 13.4375 0.03125 C 12.788227 0.11782 12.339522 0.62754804 12.0625 1.5625 C 11.906675 1.7702667 11.707767 2.0739073 11.5 2.4375 C 11.396116 2.6625813 11.396116 2.7778728 11.5 2.8125 C 11.603883 2.847128 11.698058 2.8855579 11.75 2.9375 C 11.680744 2.9894413 11.647594 3.041808 11.65625 3.09375 C 11.664907 3.145692 11.680744 3.1875 11.75 3.1875 C 11.784628 3.1875 11.779349 3.1980586 11.71875 3.25 C 11.658151 3.301942 11.672087 3.3629653 11.75 3.40625 C 11.827913 3.4495347 11.875 3.5456107 11.875 3.71875 C 11.875 3.8918893 11.899494 3.9999999 11.96875 4 L 11.84375 4.4375 L 12.34375 4.4375 L 12.34375 4.0625 C 12.499575 4.079814 12.628803 4.065878 12.75 4.03125 L 12.8125 4.5 C 11.739037 4.6038833 11.016465 4.8517793 10.6875 5.25 C 9.6832927 5.8559873 8.6009115 6.6554207 7.40625 7.625 C 7.025344 7.4864887 6.4579698 7.3817552 5.6875 7.3125 C 4.9170307 7.243244 4.4092034 7.1630052 4.21875 7.09375 L 4.25 3.625 C 4.232686 2.690048 3.5360854 2.2100933 2.125 2.21875 C 0.71391533 2.2274073 0 2.707362 0 3.625 L 0 12.34375 L 4.25 12.34375 L 4.25 7.9375 C 6.2584153 8.6473713 7.4873379 8.8813314 7.9375 8.65625 C 7.972128 8.586994 8.4468041 8.2622374 9.3125 7.65625 C 10.334022 6.85981 10.892739 6.6085353 11.03125 6.9375 C 11.03125 7.318406 11.369942 8.1178388 12.0625 9.3125 C 12.201011 9.745348 12.162581 10.722997 11.9375 12.28125 C 10.258049 10.324777 9.1338598 9.3086976 8.5625 9.1875 C 7.939198 9.3086973 7.5342033 9.5287218 7.34375 9.875 C 6.8070187 11.086975 6.3635925 13.0769 6 15.8125 C 5.8788027 16.505057 5.61697 16.84903 5.21875 16.875 C 4.8205293 16.900971 4.1537019 17.038855 3.21875 17.28125 C 2.4742513 17.28125 2.4742513 17.504651 3.21875 17.9375 L 7.15625 17.9375 C 7.3293893 17.781675 7.33129 17.425668 7.21875 16.90625 C 7.1062093 16.386832 7.2580302 15.742598 7.65625 14.9375 C 8.05447 14.132402 8.2499997 13.28926 8.25 12.40625 L 8.21875 15.46875 C 7.8897853 15.780401 7.7115701 16.014361 7.625 16.1875 C 7.4345473 16.533779 7.4729773 16.91956 7.75 17.34375 C 8.0270227 17.767941 8.393588 17.96875 8.84375 17.96875 C 9.32854 17.96875 10.259101 17.65793 11.6875 17 C 13.115899 16.342071 14.182443 15.951012 14.875 15.8125 C 15.411732 16.418488 15.25801 16.924838 14.375 17.375 C 13.786327 17.375 13.786326 17.546036 14.375 17.875 L 15 17.875 C 15.48479 17.823058 15.75 17.693831 15.75 17.46875 C 15.92314 16.793507 16.129228 15.917214 16.40625 14.84375 C 16.40625 14.410902 16.182847 14.1875 15.75 14.1875 C 16.096278 13.720024 16.138086 12.920591 15.84375 11.8125 C 15.549413 10.704409 15.455238 9.8036203 15.59375 9.09375 C 16.944236 9.526598 17.876274 9.7499996 18.34375 9.75 C 18.707343 9.6980587 18.875 9.5270227 18.875 9.25 C 18.459465 8.1245947 17.729713 6.7385734 16.65625 5.09375 C 16.556695 4.9768812 16.443437 4.8699837 16.3125 4.78125 L 16.5625 4.4375 L 17 3.875 C 17.605986 3.892314 18.143588 3.5781153 18.59375 2.9375 C 19.043912 2.3141987 19.134708 1.8078487 18.875 1.375 L 19.125 1 L 18.375 0.53125 L 18.09375 0.90625 C 17.557019 0.83699467 17.089099 1.1406347 16.65625 1.78125 C 16.206088 2.4045513 16.115291 2.9805826 16.375 3.5 L 15.9375 4.03125 L 15.59375 4.5 C 15.326737 4.4302033 15.025122 4.3814927 14.6875 4.375 L 14.6875 4.09375 C 15.016465 4.111064 15.344599 3.9679008 15.65625 3.65625 C 15.967901 3.3445993 16.100506 2.5975333 16.03125 1.4375 C 16.03125 0.83151267 15.755482 0.42651734 15.21875 0.21875 C 14.816201 0.062925 14.372103 -0.0097390001 13.90625 0 z M 14.03125 0.3125 C 14.269316 0.32764967 14.55807 0.35958733 14.84375 0.4375 C 15.41511 0.59332533 15.6875 0.96326797 15.6875 1.5 C 15.756755 2.5561493 15.613592 3.21432 15.25 3.5 C 14.886408 3.7856793 14.600081 3.6756673 14.375 3.15625 C 14.271117 2.9831107 14.353256 2.7491506 14.65625 2.4375 C 14.959244 2.1258493 15.030825 1.802994 14.875 1.5 C 14.719175 1.1970067 14.394417 1.1777913 13.875 1.4375 C 13.701861 1.2297333 13.296866 1.08657 12.65625 1 C 12.777448 0.67103533 13.025343 0.47022667 13.40625 0.375 C 13.596703 0.32738667 13.793184 0.29735033 14.03125 0.3125 z M 18.46875 0.96875 L 18.6875 1.09375 L 18.375 1.5 C 18.721278 1.6904533 18.71072 2.1093846 18.3125 2.75 C 18.000849 3.165534 17.719802 3.3908373 17.46875 3.46875 C 17.217697 3.5466627 17.016889 3.5413835 16.84375 3.4375 C 16.705238 3.35093 16.597127 3.1659588 16.5625 2.90625 C 16.527872 2.6465413 16.660477 2.3357207 16.9375 1.9375 C 17.439603 1.3488267 17.858534 1.1672333 18.1875 1.375 L 18.46875 0.96875 z M 12.46875 1.28125 C 13.005482 1.315878 13.421035 1.4451053 13.75 1.6875 C 13.732686 1.8952673 13.818204 1.9092034 14 1.71875 C 14.181797 1.5282967 14.366768 1.4845873 14.53125 1.5625 C 14.695732 1.6404127 14.714947 1.8027914 14.59375 2.0625 C 14.472553 2.3222093 14.315453 2.5230181 14.125 2.6875 C 13.934547 2.8519827 13.904773 3.0456114 14 3.21875 C 14.095226 3.3918893 14.166808 3.5489879 14.21875 3.6875 L 14.21875 4.375 C 14.21875 4.5481393 14.295611 4.7052386 14.46875 4.84375 C 14.605364 4.9530411 14.867636 5.0081941 15.1875 5.03125 L 13.84375 6.90625 C 13.576643 6.7141875 13.28088 6.5398221 12.9375 6.375 C 12.764361 6.5135113 12.788855 6.6984825 13.03125 6.90625 L 12.59375 7.59375 C 12.564153 7.8157307 12.670221 7.9975136 12.90625 8.15625 L 12.375 8.90625 L 13.09375 9.375 L 13.78125 8.40625 C 13.995929 8.448172 14.215564 8.5074712 14.4375 8.53125 L 15.1875 8.90625 C 15.1875 8.90625 15.190878 9.0686282 15.15625 9.40625 C 15.121623 9.743872 15.121622 10.297309 15.15625 11.09375 L 12.28125 12.46875 C 12.45439 11.256776 12.559122 10.275749 12.59375 9.53125 C 11.779995 8.042252 11.388936 6.7504051 11.40625 5.625 C 11.40625 5.244094 11.734385 5.0625 12.375 5.0625 C 13.032929 5.0625 13.329814 4.8635928 13.3125 4.5 C 13.295186 3.9632687 13.066505 3.7206513 12.625 3.78125 C 12.183495 3.8418487 11.993244 3.7039647 12.0625 3.375 C 12.322208 3.2364887 12.421662 3.131756 12.34375 3.0625 C 12.265837 2.9932447 12.114017 2.9548139 11.90625 2.9375 C 11.90625 2.8755692 11.874034 2.8057772 11.8125 2.75 C 11.770816 2.7122154 11.726172 2.6912107 11.65625 2.65625 C 11.829389 2.206088 12.028297 1.8918894 12.21875 1.71875 C 12.391889 1.63218 12.55089 1.6547734 12.75 1.75 C 12.949111 1.8452267 13.167233 1.902872 13.375 1.9375 L 13.375 1.8125 C 13.253803 1.8125 13.082768 1.746198 12.875 1.625 C 12.667233 1.5038027 12.457767 1.47593 12.25 1.5625 C 12.336569 1.441302 12.416808 1.3505053 12.46875 1.28125 z M 11.8125 2.75 C 11.847128 2.715372 11.908152 2.7119947 11.96875 2.78125 C 12.029349 2.850506 12.073058 2.8783779 12.125 2.84375 C 12.176942 2.809122 12.196157 2.7480987 12.1875 2.6875 C 12.178842 2.6269013 12.173563 2.6163426 12.15625 2.625 C 12.138936 2.6336567 12.125 2.6442154 12.125 2.6875 C 12.125 2.7307853 12.119721 2.7725934 12.09375 2.78125 C 12.067779 2.7899067 12.043284 2.7706912 12 2.71875 C 11.956715 2.666808 11.909628 2.6249999 11.875 2.625 C 11.857686 2.625 11.852407 2.638936 11.84375 2.65625 C 11.835093 2.673564 11.8125 2.715372 11.8125 2.75 z M 14.4375 1.625 C 14.39638 1.616343 14.346177 1.638936 14.28125 1.65625 C 14.151395 1.690878 14.010133 1.773018 13.90625 1.9375 C 13.802366 2.1019827 13.791808 2.2119948 13.84375 2.28125 C 13.722552 2.333192 13.642313 2.4134299 13.625 2.5 C 13.607686 2.5865693 13.654773 2.6528721 13.75 2.6875 C 13.845226 2.722128 13.98311 2.6418894 14.15625 2.46875 C 14.329389 2.2956107 14.448059 2.1385113 14.5 2 C 14.551943 1.8614887 14.565878 1.756756 14.53125 1.6875 C 14.513936 1.652872 14.47862 1.633657 14.4375 1.625 z M 12.4375 1.78125 C 12.380148 1.7899069 12.333192 1.8134507 12.28125 1.84375 L 12.125 2 L 12.125 2.125 L 12.21875 2.125 C 12.461145 2.2461973 12.705664 2.2461973 13 2.125 L 13.3125 2.15625 L 13.3125 2 L 13.03125 2 C 12.810498 1.831189 12.609557 1.7552792 12.4375 1.78125 z M 14.34375 1.8125 C 14.382706 1.8189928 14.383657 1.8499797 14.375 1.90625 C 14.357685 2.01879 14.305319 2.114866 14.21875 2.21875 C 14.132181 2.3226333 14.069256 2.4028719 14 2.4375 C 13.930744 2.472128 13.930744 2.4163839 14 2.3125 C 14.069256 2.2086167 14.069256 2.184122 14 2.21875 C 13.930744 2.253378 13.925466 2.2202267 13.96875 2.125 C 14.012035 2.0297733 14.06968 1.9303201 14.15625 1.84375 C 14.242819 1.8004653 14.304794 1.8060072 14.34375 1.8125 z M 12.46875 1.875 C 12.416809 1.926942 12.416808 1.9932447 12.46875 2.0625 C 12.399495 2.045186 12.333192 2.0346274 12.28125 2 C 12.298565 1.948058 12.364867 1.892314 12.46875 1.875 z M 12.6875 1.90625 L 12.9375 2.0625 C 12.833617 2.079814 12.74282 2.0937501 12.65625 2.09375 C 12.725506 2.0418087 12.739442 1.9755059 12.6875 1.90625 z M 13.8125 2.4375 C 13.881756 2.489442 13.895692 2.5591227 13.84375 2.59375 C 13.791808 2.628378 13.767314 2.6057847 13.75 2.5625 C 13.732686 2.5192153 13.743244 2.472128 13.8125 2.4375 z M 2.125 2.8125 C 3.1638353 2.8211567 3.673564 3.1161399 3.65625 3.6875 L 3.6875 11.78125 L 0.5625 11.78125 L 0.5625 3.6875 C 0.5625 3.081512 1.0861647 2.8038428 2.125 2.8125 z M 11.9375 3.03125 C 11.998099 3.0399067 12.069681 3.0538426 12.15625 3.0625 C 12.242819 3.0711567 12.267314 3.076436 12.25 3.09375 L 11.84375 3.09375 C 11.809123 3.076436 11.795186 3.0798139 11.8125 3.0625 C 11.829814 3.045186 11.876901 3.0225926 11.9375 3.03125 z M 12.25 3.15625 C 12.215372 3.173564 12.185599 3.1927794 12.125 3.21875 C 12.064402 3.2447207 11.989442 3.263936 11.9375 3.28125 C 11.885558 3.28125 11.852407 3.2673139 11.84375 3.25 C 11.835093 3.232686 11.871622 3.236064 11.90625 3.21875 L 12.25 3.15625 z M 16.21875 4.28125 L 16.28125 4.28125 L 16.03125 4.65625 C 16.005422 4.6440702 15.9955 4.605103 15.96875 4.59375 L 16.21875 4.28125 z M 15.59375 5.09375 C 15.634097 5.0990801 15.685495 5.0842485 15.71875 5.09375 L 14.65625 6.71875 L 14.4375 6.59375 L 15.59375 5.09375 z M 15.9375 5.34375 C 15.939664 5.4086771 15.940878 5.4759305 15.90625 5.5625 C 15.785053 5.8568373 15.57221 6.6947001 15.3125 8.0625 L 14.8125 7.875 C 14.709948 7.716511 14.575192 7.5834389 14.4375 7.4375 L 15.9375 5.34375 z M 16.0625 6.53125 C 16.391465 7.0160393 16.95356 7.7597285 17.75 8.78125 C 17.386407 8.521542 16.71958 8.3120757 15.75 8.15625 L 16.0625 6.53125 z M 14.21875 6.90625 L 14.4375 7 L 14.28125 7.21875 L 14.0625 7.0625 L 14.21875 6.90625 z M 13.15625 8.28125 L 13.4375 8.4375 L 13.125 9 L 12.75 8.78125 L 13.15625 8.28125 z M 8.6875 9.84375 C 9.34543 10.155401 10.35095 11.080683 11.71875 12.65625 C 10.766484 13.244923 9.7609636 14.03042 8.6875 15 L 8.6875 9.84375 z M 15.1875 11.53125 C 15.429895 12.171865 15.5625 12.77239 15.5625 13.34375 C 15.5625 13.897796 15.386185 14.255704 15.03125 14.4375 C 14.676314 14.619297 14.042637 14.872472 13.125 15.21875 C 11.774513 15.010983 10.489846 15.576456 9.3125 16.875 C 9.4163833 16.130502 10.20188 14.859771 11.65625 13.09375 L 15.1875 11.53125 z "
     id="path2243" />
</svg>
