<?xml version="1.0" encoding ="US-ASCII" standalone="yes"?>
<svg width="12.487618" height="17.972717">
<path style="fill:#000000; stroke:none" d=" M 10.895571 8.694069  Q 11.417961 8.39556 11.36821 7.997548  Q 11.318459 7.599536 11.032388 7.786105  Q 10.746317 7.972672 10.895571 8.694069  Z  M 11.243832 9.664223  Q 11.293583 11.206518 11.517465 11.330896  Q 11.741346 11.455276 11.8906 11.231394  Q 12.039855 11.007512 11.243832 9.664223  Z  M 1.34329 16.927937  Q 1.417917 17.400576 1.840804 17.437889  Q 2.263692 17.475203 3.20897 16.753807  Q 5.124401 15.460268 7.28859 13.569713  Q 7.587099 13.246328 7.587099 12.898067  Q 7.587099 12.524932 6.94033 11.604529  Q 6.069679 11.803535 3.718922 14.05479  Q 1.368165 16.306044 1.34329 16.927937  Z  M 0.597018 12.201548  Q 2.587076 14.415487 2.686579 14.465239  Q 3.606981 13.544837 4.900519 12.475181  Q 3.980117 11.77866 1.268662 11.604529  Q 0.447763 11.529902 0.597018 12.201548  Z  M 3.656733 17.126942  Q 3.756236 17.301073 4.216437 17.288635  Q 4.676638 17.276197 6.00749 16.194103  Q 7.338341 15.112008 7.46272 14.863251  Q 5.24878 15.758777 3.656733 17.126942  Z  M 3.706484 1.679112  Q 4.975147 1.728863 5.199028 2.002496  Q 5.323407 1.778615 5.634354 1.753739  Q 5.9453 1.728863 6.069679 2.151751  Q 6.119431 2.400508 5.845798 2.997526  Q 6.243809 3.470165 6.666697 3.32091  Q 7.28859 2.848271 6.965205 1.741301  Q 6.641821 0.634331 5.373158 0.609455  Q 4.104496 0.58458 3.706484 1.679112  Z  M 3.582106 2.62439  Q 3.631857 2.027372 4.602011 2.350757  Q 3.830863 2.947774 3.582106 2.62439  Z  M 5.199028 2.375633  Q 3.90549 1.803491 3.55723 2.176627  Q 3.059715 3.370662 3.358224 3.296035  Q 3.656733 3.221407 3.830863 3.768674  Q 3.955242 4.166685 4.179123 4.191561  Q 5.000022 3.694046 5.435348 4.191561  Q 5.870673 4.689076 5.223904 5.559726  Q 4.527383 6.380626 4.266188 7.027395  Q 4.004993 7.674164 5.497537 11.654281  Q 5.796046 11.654281 6.815951 11.082139  L 6.815951 11.057263  Q 6.592069 9.664223 6.592069 9.266211  Q 6.592069 7.400531 7.960235 5.087088  Q 7.263714 4.365691 6.293561 4.291064  Q 5.646791 3.669171 5.42291 3.047277  Q 5.796046 2.425384 5.733857 2.21394  Q 5.671667 2.002496 5.522413 2.201502  Q 5.373158 2.400508 5.199028 2.375633  Z  M 6.890578 0.883089  Q 7.28859 0.634331 7.189087 0.398012  Q 7.089584 0.161692 6.915454 0.323385  Q 6.741324 0.485077 6.890578 0.883089  Z  M 7.089584 1.057219  Q 7.537347 1.2811 7.835856 2.201502  L 7.388093 2.276129  Q 7.412969 3.370662 6.691572 3.669171  L 6.417939 3.818425  L 7.412969 4.092058  Q 8.930388 4.514946 9.129395 4.863206  Q 9.477654 5.161715 10.49756 7.848294  Q 10.820944 7.077146 11.355772 7.263714  Q 11.8906 7.450282 11.878162 7.997548  Q 11.865725 8.544814 11.293583 8.893075  L 12.487618 11.405523  L 12.487618 11.455276  L 11.467713 11.878162  L 11.567216 12.201548  L 11.01995 12.350801  Q 10.945323 9.937856 10.945323 9.664223  Q 10.796068 10.559749 10.422933 12.176671  L 10.422933 12.176671  Q 10.845819 12.400553 10.970199 12.736376  Q 11.094577 13.072198 11.231394 13.209014  Q 11.36821 13.345831 11.318459 13.420458  Q 11.243832 13.495086 11.144328 13.420458  Q 11.044826 13.345831 10.945323 13.1717  Q 10.845819 12.997571 10.771193 12.922943  Q 10.721441 12.873192 10.684128 12.88563  Q 10.646813 12.898067 10.67169 12.997571  Q 10.870695 13.420458 11.057263 13.557275  Q 11.243832 13.694091 11.54234 13.992599  Q 11.616967 14.067227 11.579654 14.104541  Q 11.54234 14.141854 11.492589 14.141854  Q 11.517465 14.266233 11.36821 14.216481  Q 11.417961 14.365736 11.268707 14.315985  Q 11.293583 14.415487 11.218956 14.415487  Q 11.169205 14.415487 11.119452 14.390612  Q 10.920447 14.141854 10.659252 13.942848  Q 10.398056 13.743843 10.298553 13.594588  Q 10.1493 13.370707 10.074672 13.072198  Q 10.000045 12.773689 9.875666 12.425428  Q 9.875666 11.231394 10.099547 9.788601  Q 9.950294 10.559749 9.452779 12.375677  Q 9.801039 12.748814 9.776163 13.146825  Q 9.751287 13.544837 9.825914 13.756281  Q 9.900542 13.967724 9.801039 13.992599  Q 9.701536 14.042352 9.626908 13.93041  Q 9.552281 13.81847 9.552281 13.607026  Q 9.552281 13.395582 9.50253 13.246328  Q 9.452779 13.1717 9.403028 13.1717  Q 9.353275 13.1717 9.353275 13.29608  Q 9.378152 13.793594 9.477654 14.029914  Q 9.577157 14.266233 9.776163 14.68912  Q 9.801039 14.788624 9.751287 14.813499  Q 9.701536 14.838375 9.626908 14.813499  Q 9.626908 14.937878 9.50253 14.863251  Q 9.477654 15.012505 9.353275 14.888126  Q 9.303524 15.012505 9.253773 14.962753  Q 9.179146 14.937878 9.15427 14.863251  Q 9.054767 14.564742 8.868199 14.241357  Q 8.681631 13.917973 8.681631 13.718966  Q 8.656755 13.445333 8.706507 13.109511  Q 8.756258 12.773689 8.905513 12.400553  Q 9.005015 9.713974 9.527406 8.942826  Q 9.726412 8.718945 9.726412 8.39556  Q 9.726412 8.047299 9.241335 7.263714  Q 8.756258 6.480128 8.358247 5.833359  Q 7.835856 6.106993 7.363217 7.699039  Q 7.164211 8.56969 7.164211 9.415465  Q 7.164211 10.659252 7.711477 11.828411  Q 8.208992 12.350801 8.208992 13.569713  Q 8.63188 13.893097 8.63188 14.241357  L 8.582128 14.838375  Q 8.98014 15.510019 8.98014 15.85828  Q 8.98014 16.728931 7.935359 17.823463  Q 7.537347 17.972717 7.537347 17.649332  Q 8.034862 16.828434 8.034862 15.883156  Q 7.98511 15.360765 7.63685 15.360765  Q 4.552259 17.947842 3.980117 17.972717  L 1.69155 17.972717  Q 0.945278 17.972717 0.646769 17.151817  Q 0.646769 16.529924 2.21394 14.888126  Q 2.114437 14.514991 0.17413 12.624434  Q -0.149254 12.251299 0.124379 11.554778  Q 0.398012 10.858257 1.119408 10.982636  L 4.850768 11.604529  Q 4.029869 9.713974 3.532354 7.450282  Q 3.930366 6.35575 4.527383 5.634354  Q 5.124401 4.912957 4.900519 4.415442  Q 4.203999 4.415442 3.930366 5.485099  L 3.358224 5.310969  Q 3.805987 4.639324 3.706484 4.291064  Q 3.55723 4.042306 3.470165 3.768674  Q 3.3831 3.49504 3.109467 3.569668  Q 2.686579 3.420413 3.20897 2.201502  Q 3.134342 1.977621 3.519916 1.144284  Q 3.90549 0.310947 5.398034 0.261195  Q 6.144306 0.286071 6.517442 0.509953  Q 6.641821 -0.012438 7.027395 0  Q 7.412969 0.012438 7.475158 0.398012  Q 7.537347 0.783586 7.089584 1.057219  L 7.089584 1.057219  Z "/></svg>
