<?xml version="1.0" encoding="UTF-8" standalone="no"?>
<svg
   xmlns:dc="http://purl.org/dc/elements/1.1/"
   xmlns:cc="http://web.resource.org/cc/"
   xmlns:rdf="http://www.w3.org/1999/02/22-rdf-syntax-ns#"
   xmlns:svg="http://www.w3.org/2000/svg"
   xmlns="http://www.w3.org/2000/svg"
   xmlns:sodipodi="http://sodipodi.sourceforge.net/DTD/sodipodi-0.dtd"
   xmlns:inkscape="http://www.inkscape.org/namespaces/inkscape"
   width="13.498792"
   height="17.983217"
   id="svg2250"
   sodipodi:version="0.32"
   inkscape:version="0.45"
   sodipodi:docname="A13H.svg"
   inkscape:output_extension="org.inkscape.output.svg.inkscape"
   sodipodi:docbase="C:\Program Files\JSesh\fontsST"
   sodipodi:modified="true">
  <metadata
     id="metadata2257">
    <rdf:RDF>
      <cc:Work
         rdf:about="">
        <dc:format>image/svg+xml</dc:format>
        <dc:type
           rdf:resource="http://purl.org/dc/dcmitype/StillImage" />
      </cc:Work>
    </rdf:RDF>
  </metadata>
  <defs
     id="defs2255" />
  <sodipodi:namedview
     inkscape:window-height="480"
     inkscape:window-width="640"
     inkscape:pageshadow="2"
     inkscape:pageopacity="0.0"
     guidetolerance="10.0"
     gridtolerance="10.0"
     objecttolerance="10.0"
     borderopacity="1.0"
     bordercolor="#666666"
     pagecolor="#ffffff"
     id="base" />
  <path
     style="fill:#000000; stroke:none"
     d="M 2.84375,0 C 2.6954073,0.013486 2.6207212,0.12369999 2.59375,0.3125 L 3.53125,1.4375 C 3.4773073,1.6937287 3.2262786,2.0770141 2.78125,2.5625 C 3.25325,3.0479867 3.6916428,3.437364 4.0625,3.78125 C 4.433358,4.125136 5.0100993,4.6406781 5.8125,5.28125 C 6.0131002,5.441393 6.227207,5.5809428 6.4375,5.71875 C 5.9944042,6.4244368 5.4160081,7.4635493 4.71875,8.9375 C 4.0849213,9.4229867 3.3055152,10.0573 2.375,10.8125 C 1.862542,10.920385 1.4443786,11.028135 1.09375,11.15625 C 0.74312133,11.284365 0.37760067,11.7754 0,12.625 C 0.040457333,12.854257 0.12616401,12.995071 0.28125,13.0625 C 0.43633533,13.129929 0.51776398,13.107886 0.53125,13 C 0.59867867,12.703313 0.71317135,12.441264 0.875,12.21875 C 1.0368287,11.996235 1.345428,11.840122 1.75,11.71875 C 1.547714,12.069379 1.3187286,12.287342 1.0625,12.375 C 0.80627067,12.462657 0.71382134,12.574685 0.78125,12.75 C 1.4285653,12.709543 2.0359068,12.251572 2.65625,11.375 C 4.1127087,10.849057 5.0727353,10.250272 5.53125,9.5625 C 5.9286213,8.902713 6.2859859,8.2285521 6.625,7.53125 C 6.6248978,7.554584 6.625,7.570053 6.625,7.59375 C 6.625,8.0118073 6.7860426,8.4477349 7.0625,8.90625 C 7.3389573,9.3647647 7.6205853,9.8294783 7.9375,10.28125 C 8.254414,10.733021 8.3799285,11.131606 8.3125,11.46875 C 6.5728413,12.170008 5.3134224,12.90105 4.53125,13.65625 C 3.749078,14.411451 3.2292573,15.025535 3,15.53125 C 2.7707427,16.036965 2.8238539,16.758498 3.3363112,17.324898 C 3.8487692,17.891299 5.2271406,17.671823 7.25,17.03125 C 9.2728587,16.390679 10.377978,16.212522 10.59375,16.46875 C 10.728607,16.751951 10.675965,17.077664 10.40625,17.46875 C 10.001679,17.590121 9.8431004,17.766464 9.9375,17.96875 C 10.193729,17.995723 10.453315,17.995723 10.75,17.96875 C 11.046686,17.941779 11.304456,17.560958 11.5,16.8125 C 11.695543,16.064042 11.803292,15.528922 11.84375,15.21875 C 11.884207,14.908578 11.780736,14.705915 11.53125,14.625 C 11.281765,14.544086 11.112165,14.583893 11.03125,14.71875 C 10.18165,15.217722 9.3673657,15.411178 8.53125,15.34375 C 7.9572251,15.297458 7.4347179,15.315882 6.96875,15.40625 C 7.2554489,15.31572 7.5238569,15.238618 7.84375,15.15625 C 8.969808,14.866307 9.7865563,14.573658 10.3125,14.25 C 10.838443,13.926343 11.056407,13.307329 10.96875,12.4375 C 10.881093,11.56767 10.780086,10.964607 10.625,10.59375 C 10.469914,10.222893 10.397043,9.6369436 10.4375,8.875 C 10.477957,8.113056 10.632257,7.4438649 10.875,6.84375 C 11.117743,6.2436353 11.278136,6.0850566 11.40625,6.375 C 11.534364,6.6649427 11.76335,7.0788281 12.09375,7.625 C 12.42415,8.171172 12.527621,8.6469069 12.40625,9.03125 C 12.284878,9.415594 12.284878,10.117848 12.40625,11.15625 C 12.365793,11.776593 12.32845,12.27865 12.28125,12.65625 C 12.23405,13.033851 12.447735,13.52735 12.90625,14.09375 C 13.081565,14.134207 13.211357,14.0791 13.3125,13.9375 C 13.413643,13.795901 13.424664,13.696708 13.34375,13.65625 C 13.168435,13.521393 13.0319,13.347514 12.9375,13.125 C 12.843099,12.902486 12.8431,12.556544 12.9375,12.125 C 13.139785,12.408199 13.232235,12.699035 13.21875,12.96875 C 13.205264,13.238465 13.289157,13.357236 13.4375,13.34375 C 13.599328,12.696435 13.480558,11.978879 13.0625,11.15625 C 13.480557,9.5379633 13.577285,8.4940433 13.375,8.0625 C 12.929971,6.7139267 12.489764,5.7869648 12.03125,5.28125 C 11.572735,4.7755353 11.052915,4.4718639 10.5,4.34375 C 9.9470853,4.2156353 9.6299288,3.97135 9.5625,3.59375 C 10.519987,3.5398067 11.105936,3.002222 11.28125,2.03125 C 11.416107,1.316506 11.125272,0.832214 10.4375,0.5625 C 9.749728,0.29278533 9.1662434,0.22912133 8.6875,0.34375 C 8.2087567,0.45837867 7.8940649,0.68062128 7.71875,1.03125 L 7.3125,1.5625 L 7.3125,1.75 C 7.1237,1.952286 6.9786073,2.1482074 6.84375,2.34375 C 6.7088927,2.5392933 6.6825712,2.6513213 6.75,2.71875 L 6.90625,2.9375 C 6.8253353,2.9779567 6.8388205,3.0440854 6.90625,3.125 C 6.8253353,3.2194 6.8253352,3.2720428 6.90625,3.3125 L 6.9375,3.375 C 6.8970433,3.6177427 6.9521502,3.8051066 7.09375,3.90625 C 7.23535,4.0073927 7.5194428,4.0447355 7.9375,4.03125 L 8,4.59375 C 7.7300499,4.9083206 7.3949037,4.7694231 7.03125,4.875 C 7.0231982,4.8828217 7.0082244,4.8979063 7,4.90625 C 5.6128112,3.2204851 4.2235262,1.5597467 2.84375,0 z M 9.09375,0.6875 C 9.545522,0.70772867 9.9704288,0.81119931 10.375,1 C 10.779572,1.1888 10.955915,1.5500426 10.875,2.0625 C 10.7806,2.561472 10.282822,2.9490353 9.40625,3.21875 C 9.8377933,3.0029787 10.040458,2.7256293 10,2.375 C 9.9595427,2.0243713 9.820543,1.8615147 9.625,1.875 C 9.4294567,1.888486 9.3039431,1.8088714 9.25,1.6875 C 9.196058,1.566128 8.8483011,1.394714 8.1875,1.125 C 8.3358427,0.82831333 8.6419769,0.66727134 9.09375,0.6875 z M 7.84375,1.28125 C 8.6259227,1.56445 9.0838929,1.8858852 9.21875,2.25 C 9.50195,2.1016573 9.6782922,2.1702499 9.71875,2.40625 C 9.759208,2.64225 9.5608223,2.8338928 9.15625,2.96875 C 9.0348787,3.386808 9.0569209,3.7455861 9.21875,4.0625 C 9.3805793,4.3794147 9.6977356,4.5685925 10.15625,4.65625 C 10.614765,4.7439073 10.625786,5.4461635 10.1875,6.78125 C 9.7492133,8.1163373 9.733914,9.5919058 10.125,11.15625 C 10.516087,12.720595 10.284637,13.656114 9.46875,14 C 8.6528633,14.343886 7.6512153,14.71615 6.4375,15.09375 C 5.2237847,15.471351 4.6029572,15.863192 4.5625,16.28125 C 4.8996433,16.550964 5.2914856,16.557707 5.75,16.28125 C 6.2085147,16.004793 7.1795631,15.841936 8.65625,15.78125 C 10.132937,15.720564 10.018444,15.876678 8.3125,16.28125 C 6.6065553,16.685821 5.4218221,17.083454 4.78125,17.137398 C 4.140678,17.191341 3.6703555,17.03884 3.4950408,16.526291 C 3.265692,15.798153 3.9892207,14.846486 4.90625,14.125 C 5.8232793,13.403513 6.7765633,12.850628 7.78125,12.5 C 8.7859373,12.149371 9.0920724,11.561608 8.6875,10.71875 C 8.2829287,9.875892 7.9149434,9.2440438 7.625,8.8125 C 7.3350567,8.3809567 7.1875001,7.795008 7.1875,7.09375 C 7.214507,6.2239481 7.6780415,5.8008053 8.0625,5.1875 C 8.3861573,4.9717287 8.4608438,4.6943794 8.3125,4.34375 C 8.325986,4.0335787 8.3082218,3.8045934 8.28125,3.65625 C 8.09245,3.7236787 7.8769507,3.7322354 7.59375,3.71875 C 7.31055,3.705264 7.1605288,3.5730074 7.1875,3.34375 C 7.2819,3.3302647 7.3768138,3.3192432 7.4375,3.3125 C 7.498186,3.3057573 7.5177649,3.325986 7.53125,3.3125 L 7.5625,3.1875 L 7.3125,3.0625 C 7.2855287,3.0085573 7.2371646,2.96875 7.15625,2.96875 C 7.1967073,2.9148073 7.2101925,2.8842072 7.15625,2.84375 C 7.034878,2.74935 6.9552638,2.6654572 6.96875,2.625 C 6.982236,2.5845427 7.0618498,2.4920926 7.15625,2.34375 C 7.2292397,2.2290515 7.362513,2.0925091 7.5,1.9375 C 7.5403295,1.8920307 7.5478708,1.8614378 7.59375,1.8125 L 7.59375,1.71875 L 7.59375,1.59375 L 7.84375,1.28125 z M 7.59375,1.71875 C 7.9713507,1.7861787 8.2181005,1.8786287 8.3125,2 C 8.4069,2.121372 8.6052857,2.2095433 8.875,2.25 L 8.875,2.125 C 8.6457433,2.0845427 8.4651217,2.003114 8.34375,1.875 C 8.2223787,1.7468853 8.0068792,1.6476926 7.65625,1.59375 L 7.59375,1.71875 z M 7.5,1.9375 L 7.5,1.96875 C 7.6213713,1.9013213 7.7493493,1.8927641 7.84375,1.90625 C 7.93815,1.9197353 8.0060926,1.9393141 8.09375,2 C 8.1814067,2.0606853 8.2628351,2.1335566 8.34375,2.1875 L 8.40625,2.15625 C 8.31185,2.1023067 8.2304215,2.0472 8.15625,2 C 8.082078,1.9528 7.9761427,1.9154574 7.875,1.875 C 7.7738573,1.8345433 7.6618286,1.8431 7.5,1.9375 z M 3.8125,1.75 C 4.9740042,3.0298059 5.9426031,4.1423218 6.8125,5.15625 C 6.7505795,5.2352065 6.6943325,5.273639 6.625,5.375 C 5.4535188,4.5713132 4.3440842,3.6184547 3.3125,2.5 C 3.5822147,2.1628567 3.7585574,1.9118287 3.8125,1.75 z M 7.71875,1.96875 C 7.6690214,1.9754929 7.6063286,2.0042785 7.5625,2.03125 L 7.375,2.125 L 7.375,2.21875 L 7.46875,2.1875 C 7.6980073,2.3358427 7.93555,2.362164 8.21875,2.28125 L 8.78125,2.5 L 8.8125,2.375 L 8.21875,2.1875 C 8.0164645,2.025671 7.8679358,1.9485213 7.71875,1.96875 z M 7.71875,2.03125 C 7.6782927,2.0851927 7.6782929,2.1648073 7.71875,2.21875 C 7.6513213,2.2052647 7.5717076,2.1654574 7.53125,2.125 C 7.544736,2.0845427 7.6243502,2.0447354 7.71875,2.03125 z M 7.90625,2.0625 L 8.15625,2.21875 C 8.0483647,2.2457213 7.9424286,2.25 7.875,2.25 C 7.9289427,2.2095433 7.9467073,2.1434146 7.90625,2.0625 z M 7.09375,2.65625 C 7.0735213,2.669736 7.0667787,2.7095434 7.09375,2.75 C 7.120722,2.7230287 7.17155,2.7518139 7.21875,2.8125 C 7.26595,2.873186 7.3210575,2.8884861 7.375,2.875 C 7.4289427,2.861514 7.4375001,2.8351927 7.4375,2.78125 C 7.4375,2.7273073 7.4264788,2.6875 7.40625,2.6875 C 7.386022,2.6875 7.3749998,2.7162861 7.375,2.75 C 7.375,2.7837147 7.3774649,2.7990147 7.34375,2.8125 C 7.310036,2.825986 7.2524647,2.8039434 7.21875,2.75 C 7.185036,2.6960573 7.1697359,2.669736 7.15625,2.65625 C 7.1292787,2.65625 7.1139789,2.6427641 7.09375,2.65625 z M 7.09375,3.0625 C 7.1139787,3.042272 7.1513211,3.0355288 7.21875,3.0625 C 7.2726927,3.0894713 7.3320788,3.1292788 7.40625,3.15625 C 7.480422,3.1832213 7.513486,3.205264 7.5,3.21875 L 7.125,3.125 C 7.0845427,3.111514 7.0735215,3.0827287 7.09375,3.0625 z M 7.09375,3.1875 L 7.5,3.25 C 7.513486,3.25 7.4828861,3.2677641 7.375,3.28125 C 7.267114,3.2947353 7.1967065,3.2947354 7.15625,3.28125 C 7.1157927,3.28125 7.0692434,3.263486 7.0625,3.25 C 7.0557573,3.2365147 7.0667787,3.2144721 7.09375,3.1875 z "
     id="path2252"
     sodipodi:nodetypes="ccccsscccscssscscccsssscsssscccsssscscssssssssscscssscscccsscssscccscccccsccccccsscsssccccscsssssscsssscssssccccscscccssssscccccsccsccccssccsscccccccccccccccccsscccsccsssssssssccsscccccsssc" />
</svg>
