<?xml version="1.0" encoding="UTF-8" standalone="no"?>
<svg
   xmlns:dc="http://purl.org/dc/elements/1.1/"
   xmlns:cc="http://web.resource.org/cc/"
   xmlns:rdf="http://www.w3.org/1999/02/22-rdf-syntax-ns#"
   xmlns:svg="http://www.w3.org/2000/svg"
   xmlns="http://www.w3.org/2000/svg"
   xmlns:sodipodi="http://sodipodi.sourceforge.net/DTD/sodipodi-0.dtd"
   xmlns:inkscape="http://www.inkscape.org/namespaces/inkscape"
   width="16.100798"
   height="17.983217"
   id="svg2241"
   sodipodi:version="0.32"
   inkscape:version="0.45"
   sodipodi:docname="A13J.svg"
   inkscape:output_extension="org.inkscape.output.svg.inkscape"
   sodipodi:docbase="C:\Program Files\JSesh\fontsST"
   sodipodi:modified="true">
  <metadata
     id="metadata2248">
    <rdf:RDF>
      <cc:Work
         rdf:about="">
        <dc:format>image/svg+xml</dc:format>
        <dc:type
           rdf:resource="http://purl.org/dc/dcmitype/StillImage" />
      </cc:Work>
    </rdf:RDF>
  </metadata>
  <defs
     id="defs2246" />
  <sodipodi:namedview
     inkscape:window-height="480"
     inkscape:window-width="640"
     inkscape:pageshadow="2"
     inkscape:pageopacity="0.0"
     guidetolerance="10.0"
     gridtolerance="10.0"
     objecttolerance="10.0"
     borderopacity="1.0"
     bordercolor="#666666"
     pagecolor="#ffffff"
     id="base" />
  <path
     style="fill:#000000; stroke:none"
     d="M 8.78125,0 C 8.064138,0.032596 7.534364,0.18190534 7.15625,0.46875 C 6.778136,0.75559533 6.5625001,1.0906367 6.5625,1.46875 L 6.4375,2.09375 L 6.5,2.25 C 6.42177,2.49773 6.3581344,2.7405781 6.3125,2.96875 C 6.2668653,3.196922 6.2967692,3.3176733 6.375,3.34375 L 6.625,3.4375 C 6.572846,3.5287687 6.5780191,3.6171348 6.65625,3.65625 C 6.6301733,3.7605573 6.6769426,3.8125001 6.78125,3.8125 L 6.8125,3.875 C 6.8776927,4.0966527 6.99327,4.217404 7.15625,4.25 C 7.31923,4.282596 7.5724245,4.2007495 7.9375,4.03125 L 7.96875,4.46875 C 7.5906367,4.729518 7.2789798,4.9827134 7.03125,5.25 C 6.9745761,5.3111483 6.9187084,5.39279 6.875,5.5 C 5.4482439,3.7506259 4.0286797,2.0479245 2.59375,0.4375 C 2.463366,0.45053867 2.3828654,0.53621267 2.34375,0.71875 L 3.28125,1.84375 C 3.2290967,2.09148 2.9745559,2.436868 2.53125,2.90625 C 2.9875947,3.3756327 3.3849254,3.7612705 3.75,4.09375 C 4.1150753,4.4262293 4.6929646,4.911926 5.46875,5.53125 C 5.8644448,5.8471408 6.2874387,6.1177485 6.71875,6.34375 C 6.6874455,6.6404065 6.6562499,6.96713 6.65625,7.375 C 6.65625,7.77919 6.7952126,8.2129443 7.0625,8.65625 C 7.3297867,9.099556 7.5998475,9.5319637 7.90625,9.96875 C 8.2126533,10.405536 8.3464429,10.79904 8.28125,11.125 C 5.895222,10.173197 4.5161518,9.7108847 4.125,9.75 C 3.4861187,9.9716527 3.1043072,10.23654 3,10.5625 C 2.687078,11.696841 2.6169241,13.400607 2.8125,15.65625 C 2.8125,16.125633 2.6463253,16.500925 2.28125,16.78125 C 1.9161753,17.061575 1.3162467,17.262827 0.46875,17.40625 C -0.117978,17.497519 -0.14136267,17.681905 0.40625,17.96875 L 3.96875,17.96875 C 4.2686333,17.629752 4.3257493,17.312922 4.15625,17 C 3.9867507,16.687079 3.9815772,16.235113 4.125,15.6875 C 4.581344,13.588317 4.6514988,12.289748 4.3125,11.78125 C 4.6123833,12.211517 4.907174,12.563425 5.1875,12.84375 C 5.4678253,13.124076 5.7677893,13.385136 6.09375,13.59375 C 5.650444,14.271747 5.3621727,14.80152 5.21875,15.21875 C 5.0753273,15.635979 4.9181526,16.017791 4.78125,16.34375 C 4.6443467,16.669711 4.7664439,17.115157 5.125,17.65625 C 5.483556,18.197344 6.6951054,18.081766 8.78125,17.3125 C 10.867394,16.543235 12.028347,16.265308 12.25,16.5 C 12.406461,16.760767 12.37273,17.095809 12.125,17.5 C 11.746886,17.643423 11.583193,17.786213 11.6875,17.96875 C 11.93523,17.981789 12.213155,17.976616 12.5,17.9375 C 12.786845,17.898385 13.012828,17.51792 13.15625,16.78125 C 13.299673,16.044581 13.386692,15.525153 13.40625,15.21875 C 13.425807,14.912347 13.31023,14.714922 13.0625,14.65625 C 12.814771,14.597577 12.658942,14.650866 12.59375,14.78125 C 11.798407,15.315825 10.995881,15.575539 10.1875,15.5625 C 9.3791193,15.549462 8.685652,15.648174 8.125,15.84375 C 7.7375836,15.978895 7.4444167,16.121201 7.25,16.28125 C 7.7296291,15.746488 8.3575617,15.205342 9.15625,14.625 C 10.062419,13.966561 10.667521,13.412055 11,12.96875 C 11.332479,12.525444 11.449403,11.994324 11.3125,11.375 C 11.175597,10.755676 10.989864,10.218037 10.78125,9.78125 C 10.572635,9.344464 10.498654,8.7600551 10.53125,8.0625 C 10.563847,7.3649453 10.678078,6.7832288 10.90625,6.28125 C 11.134422,5.7792713 11.360405,5.6065772 11.5625,5.75 C 11.764595,5.893422 12.22556,6.2439834 12.96875,6.84375 C 12.760135,7.3783247 12.638038,8.2847364 12.625,9.5625 L 12.65625,9.5625 C 12.486751,10.123151 12.354307,10.591982 12.25,10.9375 C 12.145693,11.283017 12.244405,11.762195 12.53125,12.375 C 12.661634,12.427153 12.782385,12.398595 12.90625,12.28125 C 13.030114,12.163904 13.065192,12.088576 13,12.0625 C 12.869617,11.893001 12.789115,11.683883 12.75,11.46875 C 12.710885,11.253617 12.762828,10.953653 12.90625,10.5625 C 13.036633,10.875422 13.065192,11.171559 13,11.40625 C 12.934809,11.640942 12.963366,11.736962 13.09375,11.75 C 13.367557,11.17631 13.401288,10.490707 13.21875,9.65625 C 13.388249,9.0434453 13.46875,8.5759604 13.46875,8.25 L 14.125,9.78125 C 14.294499,10.35494 14.433461,10.804213 14.53125,11.15625 C 14.629038,11.508287 14.980945,11.853675 15.59375,12.21875 C 15.750211,12.192673 15.860615,12.10048 15.90625,11.9375 C 15.951885,11.774519 15.903769,11.700538 15.8125,11.6875 C 15.616925,11.622307 15.444231,11.50673 15.28125,11.34375 C 15.11827,11.180771 15.01573,10.885979 14.9375,10.46875 C 15.224345,10.651287 15.41525,10.87727 15.5,11.125 C 15.584749,11.372729 15.682115,11.45323 15.8125,11.375 C 15.721231,10.736118 15.352458,10.117978 14.6875,9.53125 C 14.531039,8.5794467 14.31023,7.7820934 14.0625,7.15625 L 15.15625,9.34375 L 15.625,9.09375 L 14.625,7.34375 L 15.8125,8.59375 L 16.09375,8.15625 L 14.65625,7 C 15.386401,6.608848 15.756519,6.2166906 15.75,5.8125 C 15.743481,5.4083093 15.557748,5.1407305 15.21875,5.0625 C 14.879751,4.98427 14.590134,5.0479054 14.375,5.25 C 14.159867,5.4520953 14.023596,5.9157528 13.90625,6.59375 L 13.6875,6.25 C 13.126849,5.7284647 12.498362,5.1856521 11.78125,4.625 C 11.064138,4.0643487 10.479729,3.7812501 10.0625,3.78125 C 9.6452707,3.78125 9.356999,3.5449206 9.1875,3.0625 C 10.034996,2.5931173 10.359691,1.912688 10.125,1 C 9.9555007,0.30896467 9.4983621,-0.032596 8.78125,0 z M 8.9375,0.40625 C 9.3677673,0.41276933 9.6196156,0.67382936 9.75,1.15625 C 9.8673453,1.6386707 9.6154969,2.14506 8.9375,2.71875 C 9.2373833,2.3667133 9.2944989,2.0433646 9.125,1.75 C 8.9555007,1.456636 8.7697684,1.3774807 8.59375,1.46875 C 8.417732,1.5600187 8.3034995,1.5600187 8.21875,1.46875 C 8.134,1.3774807 7.7353238,1.3176727 7.03125,1.34375 C 7.0442887,1.0177893 7.2455399,0.78146064 7.65625,0.625 C 8.0669593,0.46853933 8.5072329,0.39973066 8.9375,0.40625 z M 6.78125,1.65625 C 7.5896307,1.604096 8.1454818,1.707982 8.40625,1.96875 C 8.5887873,1.7210207 8.7380969,1.7041546 8.875,1.90625 C 9.0119033,2.1083453 8.9379218,2.351194 8.625,2.625 C 8.677154,3.0422293 8.7965591,3.4213479 9.03125,3.8125 C 9.2659413,4.203652 9.6295408,4.4179425 10.125,4.4375 C 10.620459,4.457058 10.632152,5.1440067 10.15625,6.5 C 9.680348,7.855994 9.7453291,9.1260052 10.3125,10.3125 C 10.87967,11.498995 10.838074,12.406753 10.21875,13 C 9.5994253,13.593248 8.8268035,14.255466 7.875,15.03125 C 6.9231967,15.807035 6.4894428,16.390099 6.59375,16.78125 C 6.8154027,16.963789 7.1387521,16.924884 7.5625,16.625 C 7.9862487,16.325117 8.9225644,16.080922 10.34375,15.9375 C 11.764935,15.794078 11.654531,15.973291 10.03125,16.46875 C 8.4079687,16.964209 7.3003045,17.25248 6.6875,17.34375 C 6.0746947,17.435019 5.6643259,17.349345 5.46875,17.0625 C 5.351404,16.462733 5.58256,15.690111 6.15625,14.71875 C 6.72994,13.747389 7.3869841,12.921478 8.15625,12.25 C 8.9255153,11.578523 9.1112479,10.878536 8.6875,10.1875 C 8.263752,9.4964653 7.9053258,8.9484795 7.625,8.53125 C 7.3446747,8.1140213 7.1875001,7.5842474 7.1875,6.90625 C 7.1875,6.7837694 7.2073125,6.6754493 7.21875,6.5625 C 7.3058702,5.6144964 7.44859,5.7564108 8.03125,5.03125 C 8.3441713,4.822636 8.4584022,4.5343639 8.40625,4.15625 C 8.288904,3.8824433 8.1850187,3.692884 8.09375,3.5625 C 7.9503273,3.692884 7.7477301,3.8019427 7.5,3.90625 C 7.2522707,4.0105573 7.0964419,3.9586147 7.03125,3.75 C 7.096442,3.684808 7.1665968,3.6198267 7.21875,3.59375 C 7.270904,3.5676733 7.2994618,3.5755386 7.3125,3.5625 L 7.3125,3.4375 L 7.03125,3.40625 C 6.9921353,3.3801733 6.9219807,3.3801734 6.84375,3.40625 C 6.856788,3.341058 6.8464413,3.2942887 6.78125,3.28125 C 6.7453943,3.2714713 6.7147992,3.2601862 6.6875,3.25 C 6.6056024,3.2194415 6.5673896,3.1904759 6.5625,3.15625 C 6.5559807,3.1106153 6.5611541,3.0067299 6.59375,2.84375 C 6.6078954,2.7730228 6.662305,2.6540983 6.6875,2.5625 C 6.7061224,2.4947969 6.6940911,2.4228552 6.71875,2.34375 L 6.78125,2.40625 C 6.8464413,2.3019427 6.9087305,2.2135766 7,2.1875 C 6.923573,2.2086858 6.823248,2.2213789 6.75,2.3125 C 6.7651319,2.2647839 6.7640294,2.2391615 6.78125,2.1875 L 6.78125,2.15625 L 6.6875,2.03125 L 6.78125,1.65625 z M 6.78125,2.15625 C 7.120248,2.0649807 7.338366,2.0285574 7.46875,2.09375 C 7.599134,2.158942 7.8017319,2.1719806 8.0625,2.09375 L 8.03125,2 C 7.822636,2.0521533 7.6252114,2.033942 7.46875,1.96875 C 7.3122893,1.903558 7.0577486,1.9087314 6.71875,2 L 6.78125,2.15625 z M 7,2.1875 C 7.0912687,2.1614227 7.1834618,2.1679419 7.28125,2.1875 C 7.379038,2.2070573 7.4894429,2.2369613 7.59375,2.25 L 7.625,2.1875 C 7.507654,2.1744613 7.4154611,2.1692887 7.34375,2.15625 C 7.2720387,2.143212 7.1733259,2.1562501 7.0625,2.15625 C 7.0390559,2.15625 7.0231524,2.1810821 7,2.1875 z M 6.6875,2.5625 L 6.75,2.625 L 6.8125,2.59375 C 7.06023,2.6328647 7.2783474,2.5575373 7.5,2.375 L 8.09375,2.34375 L 8.09375,2.21875 L 7.5,2.28125 C 7.17404,2.1899813 6.961096,2.2237126 6.84375,2.40625 L 6.6875,2.5625 z M 6.6875,3.25 C 6.7135767,3.2108847 6.7538273,3.204366 6.8125,3.25 C 6.8711733,3.2956347 6.9231158,3.2956347 6.96875,3.25 C 7.0143847,3.204366 7.0508072,3.1706347 7.03125,3.125 C 7.011692,3.079366 6.9883071,3.049462 6.96875,3.0625 C 6.949192,3.0755387 6.9244616,3.0924041 6.9375,3.125 C 6.9505387,3.157596 6.9570582,3.1991926 6.9375,3.21875 C 6.9179427,3.238308 6.895904,3.2266153 6.84375,3.1875 C 6.7915967,3.1483847 6.7448265,3.1250001 6.71875,3.125 C 6.7057113,3.138038 6.7005378,3.1432114 6.6875,3.15625 C 6.6744613,3.1692887 6.6614232,3.2108847 6.6875,3.25 z M 3.53125,2.15625 C 4.8058989,3.57385 5.8548898,4.7635546 6.78125,5.84375 C 6.7716788,5.8859216 6.7584793,5.9226993 6.75,5.96875 C 5.4336988,5.1307499 4.1821911,4.1098637 3.03125,2.875 C 3.292018,2.54904 3.4660579,2.3127107 3.53125,2.15625 z M 7.15625,2.3125 L 7.40625,2.34375 C 7.3280193,2.395904 7.2657307,2.4426734 7.1875,2.46875 C 7.239654,2.403558 7.2214427,2.3516154 7.15625,2.3125 z M 6.96875,2.375 C 6.9426727,2.440192 6.9660578,2.4921346 7.03125,2.53125 C 6.966058,2.53125 6.8959034,2.5130388 6.84375,2.5 C 6.84375,2.4608847 6.8905191,2.4271533 6.96875,2.375 z M 7.15625,3.46875 C 7.2344807,3.4622307 7.2630388,3.4869621 7.25,3.5 C 7.263038,3.5 7.2475187,3.5415967 7.15625,3.59375 C 7.0649813,3.645904 6.9766156,3.6744619 6.9375,3.6875 C 6.8983847,3.7005387 6.8880387,3.7005386 6.875,3.6875 C 6.861962,3.674462 6.8489235,3.6510768 6.875,3.625 L 7.25,3.5 L 6.875,3.5625 C 6.8358847,3.5625 6.8307114,3.5508073 6.84375,3.53125 C 6.8567887,3.511692 6.8853468,3.5000001 6.9375,3.5 C 7.002692,3.5 7.0780194,3.4752686 7.15625,3.46875 z M 14.90625,5.375 C 14.992629,5.3635913 15.096231,5.3951253 15.1875,5.4375 C 15.370038,5.5222493 15.4285,5.6780781 15.34375,5.90625 C 15.259,6.134422 14.940824,6.4240393 14.40625,6.75 C 14.419289,6.0589647 14.49327,5.630384 14.65625,5.5 C 14.73774,5.434808 14.819871,5.3864087 14.90625,5.375 z M 4.0625,10.3125 C 4.4471333,10.188635 5.6872407,10.652293 7.8125,11.65625 C 7.356156,12.125633 6.912056,12.616502 6.46875,13.125 C 5.999368,12.929423 5.4579012,12.490497 4.8125,11.8125 C 4.1670993,11.134503 3.8657888,11.260427 3.9375,12.21875 C 4.0092113,13.177073 3.9170186,14.373103 3.65625,15.78125 C 3.395482,17.189397 3.2578646,16.899779 3.21875,14.9375 C 3.1796347,12.97522 3.2016741,11.745459 3.3125,11.25 C 3.4233267,10.754541 3.6778671,10.436365 4.0625,10.3125 z "
     id="path2243"
     sodipodi:nodetypes="cscccsccsccsccscccccsscsssccccssccscsscsssscccsssscsscssssssscccscssscsccccscssscscccccccccsssccsscsccscssscscccscsssssscsssscsssssccccscscccssssssccsscccccsccscccsccsscccccccccccsssssssssccccccccsccssccsssscccssccsscsccccsssssc" />
</svg>
