<?xml version="1.0" encoding="UTF-8" standalone="no"?>
<svg
   xmlns:dc="http://purl.org/dc/elements/1.1/"
   xmlns:cc="http://web.resource.org/cc/"
   xmlns:rdf="http://www.w3.org/1999/02/22-rdf-syntax-ns#"
   xmlns:svg="http://www.w3.org/2000/svg"
   xmlns="http://www.w3.org/2000/svg"
   xmlns:sodipodi="http://sodipodi.sourceforge.net/DTD/sodipodi-0.dtd"
   xmlns:inkscape="http://www.inkscape.org/namespaces/inkscape"
   width="12.208677"
   height="17.985138"
   id="svg2241"
   sodipodi:version="0.32"
   inkscape:version="0.45"
   sodipodi:docname="A155.svg"
   inkscape:output_extension="org.inkscape.output.svg.inkscape"
   sodipodi:docbase="C:\Program Files\JSesh\fontsST"
   sodipodi:modified="true">
  <metadata
     id="metadata2248">
    <rdf:RDF>
      <cc:Work
         rdf:about="">
        <dc:format>image/svg+xml</dc:format>
        <dc:type
           rdf:resource="http://purl.org/dc/dcmitype/StillImage" />
      </cc:Work>
    </rdf:RDF>
  </metadata>
  <defs
     id="defs2246" />
  <sodipodi:namedview
     inkscape:window-height="480"
     inkscape:window-width="640"
     inkscape:pageshadow="2"
     inkscape:pageopacity="0.0"
     guidetolerance="10.0"
     gridtolerance="10.0"
     objecttolerance="10.0"
     borderopacity="1.0"
     bordercolor="#666666"
     pagecolor="#ffffff"
     id="base" />
  <path
     style="fill:#000000; stroke:none"
     d="M 7.28125 0 C 7.0668472 -0.0095593332 6.8489624 0.016069001 6.625 0.0625 C 6.1770753 0.15536267 5.9123501 0.51167599 5.78125 1.15625 C 5.6829253 1.2764253 5.5576751 1.4784007 5.4375 1.71875 C 5.3828753 1.8717 5.4031998 1.9265747 5.46875 1.9375 C 5.5342993 1.9484247 5.5703749 1.98755 5.625 2.03125 C 5.5703747 2.0640253 5.5773621 2.097688 5.59375 2.125 C 5.6101373 2.1523127 5.6125498 2.1765746 5.65625 2.1875 C 5.6078555 2.214983 5.6084527 2.2621306 5.65625 2.28125 C 5.7108747 2.3031 5.7336127 2.3634379 5.75 2.5 C 5.7663873 2.6365627 5.8540373 2.7132879 5.96875 2.71875 C 6.0834627 2.7242127 6.2299255 2.7405999 6.4375 2.71875 C 6.5358253 2.8389247 6.4872999 2.8844001 6.3125 2.90625 C 5.8645753 2.9718 5.5121999 3.0915873 5.25 3.25 C 4.9878 3.4084127 4.8844 3.6707262 4.90625 4.03125 C 4.9281 4.3917747 4.9469002 5.0010008 4.96875 5.875 C 4.7174753 5.9077753 4.3274994 5.9359752 3.78125 5.96875 C 3.4836082 5.9283918 3.2151428 5.9471782 2.96875 6 L 2.40625 4.90625 L 2.1875 5 L 2.75 6.0625 C 2.5519689 6.1324145 2.3477547 6.2364011 2.1875 6.375 C 2.2421253 6.4733247 2.3673753 6.4921246 2.53125 6.4375 C 2.6732747 6.8417247 2.7954746 7.0327755 2.9375 7 C 2.9969364 6.9716971 3.0618974 6.9143016 3.125 6.875 L 3.5 7.6875 C 3.3559202 7.7674119 3.2075821 7.8517483 3.0625 7.96875 C 3.1171253 8.05615 3.2220499 8.0546249 3.375 8 C 3.529235 8.3701647 3.6798373 8.5221782 3.84375 8.4375 L 4.21875 9.28125 L 4.46875 9.1875 L 4.03125 8.28125 C 4.1575275 8.1685862 4.2848686 8.0501638 4.375 7.9375 C 4.8278884 7.8516075 5.3250006 7.5836885 5.90625 7.21875 C 5.8977581 7.2398395 5.9152706 7.2597007 5.90625 7.28125 L 4.71875 11.03125 C 4.5111753 11.51195 4.4453754 11.969251 4.5 12.40625 C 4.21595 13.313025 4.0194373 14.005963 3.9375 14.4375 C 3.8555627 14.869037 3.7130373 15.14075 3.5 15.25 C 3.2869627 15.359251 2.9573246 15.49085 2.53125 15.6875 C 2.0942507 15.7749 1.8562 15.870425 1.8125 15.96875 C 1.7688 16.067075 1.850988 16.1344 2.03125 16.15625 C 2.2115127 16.178101 2.9390013 16.1875 4.25 16.1875 C 4.4357247 16.001775 4.517912 15.78405 4.46875 15.5 C 4.4195873 15.215951 4.5903124 14.728925 5 14.0625 C 5.4096873 13.396076 5.5779998 12.757125 5.46875 12.15625 C 5.4578247 11.970525 5.5236246 11.760675 5.6875 11.53125 C 5.8513747 11.301825 5.9954251 11.1405 6.09375 11.03125 L 7.15625 11.03125 C 7.1890253 11.20605 7.3142754 11.483226 7.5 11.84375 C 7.5874 12.859775 7.6680629 13.645188 7.75 14.21875 C 7.8319373 14.792312 7.7591498 15.148625 7.5625 15.3125 C 7.3658507 15.476375 7.0714001 15.6001 6.65625 15.6875 C 6.2192507 15.7749 5.9811999 15.870425 5.9375 15.96875 C 5.8938 16.067075 5.9705253 16.1344 6.15625 16.15625 C 6.3419747 16.178101 7.0749257 16.1875 8.375 16.1875 C 8.5607253 16.001775 8.6022628 15.78405 8.53125 15.5 C 8.4602373 15.215951 8.4563 14.90905 8.5 14.625 C 8.5437 14.3628 8.6164877 13.959487 8.6875 13.375 C 8.758512 12.790513 8.6872492 12.28075 8.46875 11.84375 L 8.25 8.8125 C 8.49035 8.0040507 8.4245499 7.2304495 8.03125 6.53125 C 8.1077253 6.0396253 8.2878509 5.4264622 8.59375 4.65625 C 8.89965 3.8860387 8.8487124 3.3990128 8.40625 3.21875 C 7.963788 3.038488 7.7014746 2.7385747 7.625 2.3125 C 7.95275 2.1814 8.1704755 2.0240126 8.3125 1.84375 C 8.4545253 1.663488 8.5312501 1.35265 8.53125 0.9375 C 8.53125 0.51142533 8.3471874 0.2561 7.9375 0.125 C 7.7326567 0.059450333 7.4956528 0.0095593332 7.28125 0 z M 7.09375 0.28125 C 7.2521623 0.28125 7.4514063 0.30551266 7.65625 0.34375 C 8.0659373 0.42022533 8.2500004 0.63007534 8.25 0.96875 C 8.25 1.3183493 8.1560001 1.5940001 7.9375 1.8125 C 7.7190007 2.031 7.5561507 2.0983253 7.46875 2 C 7.3813507 1.9016753 7.4338126 1.7442873 7.625 1.53125 C 7.8161867 1.3182127 7.8443875 1.1380873 7.71875 0.96875 C 7.5931127 0.79941267 7.3589994 0.79395001 7.03125 0.96875 C 6.90015 0.87042467 6.6730245 0.79369998 6.3125 0.75 C 6.3452753 0.55335067 6.4635382 0.42022532 6.6875 0.34375 C 6.799481 0.30551267 6.9353377 0.28125 7.09375 0.28125 z M 6.125 0.96875 C 6.4746 0.95782467 6.7393252 1.0048254 6.96875 1.125 C 6.9796753 1.2561 7.0524625 1.2506373 7.15625 1.125 C 7.2600373 0.99936267 7.3798254 0.96176267 7.5 1 C 7.6201747 1.038238 7.6335118 1.1486253 7.5625 1.3125 C 7.4914873 1.4763747 7.4014248 1.6298247 7.28125 1.75 C 7.1610747 1.8701747 7.1665374 2.1176252 7.28125 2.5 C 7.3959627 2.8823747 7.667676 3.1525626 8.09375 3.34375 C 8.4517411 3.5043868 8.5422571 3.7514702 8.4375 4.0625 C 8.4265752 3.9491532 8.3577252 3.8440686 8.28125 3.78125 C 8.1283 3.6556127 7.9779002 3.6814 7.78125 3.8125 C 7.1950747 4.6219805 6.7472234 5.3410786 6.375 6 C 6.3356891 5.8094567 6.2581238 5.5843938 6.1875 5.34375 C 6.0400127 4.8412 5.9123501 4.4472867 5.78125 4.125 C 5.6501507 3.8027127 5.6516753 3.5834626 5.75 3.46875 C 5.8483247 3.354038 6.0378499 3.27185 6.34375 3.25 C 6.64965 3.22815 6.7827752 3.0707627 6.75 2.78125 C 6.7172253 2.491738 6.5746998 2.3922754 6.3125 2.46875 C 6.0503007 2.5452253 5.9359754 2.4685001 5.96875 2.25 C 6.1326247 2.1626 6.174162 2.1007372 6.125 2.0625 C 6.0758373 2.0242627 5.9857756 2 5.84375 2 C 5.8328253 1.93445 5.7561002 1.88745 5.625 1.84375 C 5.7233247 1.5597 5.8485747 1.3701746 5.96875 1.25 C 6.078 1.1953747 6.2071879 1.17505 6.34375 1.21875 C 6.4803127 1.26245 6.6188999 1.3015747 6.75 1.3125 L 6.75 1.21875 C 6.6626 1.21875 6.5428127 1.1850873 6.40625 1.125 C 6.2696873 1.0649127 6.1107747 1.0907 5.96875 1.15625 C 6.0233753 1.0797753 6.0922252 1.01245 6.125 0.96875 z M 7.3125 1.0625 C 7.2305627 1.0898127 7.1538375 1.172 7.09375 1.28125 C 7.0336627 1.3905 7.0094001 1.4563 7.03125 1.5 C 6.9657 1.5327747 6.9429625 1.5703753 6.9375 1.625 C 6.932038 1.6796253 6.9657007 1.7336127 7.03125 1.75 C 7.0968 1.7663873 7.1720001 1.708462 7.28125 1.59375 C 7.3905 1.4790373 7.4726875 1.3686501 7.5 1.28125 C 7.527312 1.19385 7.5327748 1.1374493 7.5 1.09375 C 7.4672253 1.05005 7.3944382 1.035188 7.3125 1.0625 z M 7.375 1.1875 C 7.400947 1.1902312 7.408981 1.185975 7.40625 1.21875 C 7.4007873 1.2843 7.3929129 1.37195 7.34375 1.4375 C 7.2945873 1.50305 7.2311999 1.5297247 7.1875 1.5625 C 7.192744 1.552449 7.17876 1.5454525 7.1875 1.53125 C 7.2312 1.460238 7.2366619 1.410188 7.1875 1.4375 C 7.1383373 1.4648127 7.1343998 1.4663373 7.15625 1.40625 C 7.1781 1.3461627 7.1953754 1.2843 7.25 1.21875 C 7.304625 1.1914373 7.349053 1.1847688 7.375 1.1875 z M 6.25 1.25 C 6.1626 1.239075 6.0655501 1.23755 6 1.28125 L 5.90625 1.40625 L 5.90625 1.5 L 5.96875 1.5 C 6.1435493 1.5437 6.3345998 1.5139747 6.53125 1.4375 L 6.71875 1.46875 L 6.6875 1.375 L 6.53125 1.375 C 6.422 1.30945 6.3374 1.260925 6.25 1.25 z M 6.125 1.3125 C 6.10315 1.3562 6.1031499 1.3938001 6.125 1.4375 C 6.0813 1.4265747 6.0327754 1.4171746 6 1.40625 C 6 1.3734747 6.0485246 1.3452747 6.125 1.3125 z M 6.28125 1.3125 L 6.46875 1.40625 C 6.3922753 1.4281 6.3046249 1.4265747 6.25 1.4375 C 6.3046247 1.4047247 6.3140245 1.3562 6.28125 1.3125 z M 7.0625 1.59375 C 7.1171253 1.6046747 7.1265255 1.6234746 7.09375 1.65625 C 7.0609753 1.6890247 7.0421753 1.6890246 7.03125 1.65625 C 7.0203253 1.6234747 7.0297254 1.6046746 7.0625 1.59375 z M 5.96875 1.78125 C 5.9523633 1.786712 5.963288 1.8219 5.96875 1.84375 C 5.9742127 1.8656 5.9593499 1.8640746 5.9375 1.875 C 5.91565 1.8859247 5.8710624 1.902312 5.84375 1.875 C 5.8164373 1.8476873 5.8125001 1.8125001 5.8125 1.8125 C 5.7688 1.8125 5.755462 1.8328253 5.75 1.84375 C 5.7445373 1.8546753 5.7390753 1.85315 5.75 1.875 C 5.7937 1.85315 5.8422245 1.8680127 5.875 1.90625 C 5.9077753 1.9444873 5.9359754 1.9593501 5.96875 1.9375 C 6.0015247 1.91565 6.0054628 1.8819873 6 1.84375 C 5.994538 1.8055127 5.985138 1.7757873 5.96875 1.78125 z M 5.84375 2.0625 C 5.88745 2.0679627 5.9399127 2.0570372 6 2.0625 C 6.0600873 2.0679627 6.0937498 2.0937499 6.09375 2.09375 L 5.78125 2.125 C 5.7594 2.125 5.7445374 2.1155999 5.75 2.09375 C 5.7554627 2.0719 5.8000502 2.0570381 5.84375 2.0625 z M 5.84375 2.15625 L 5.96875 2.15625 C 5.9250507 2.1726373 5.9077751 2.2078247 5.875 2.21875 C 5.8640747 2.2296747 5.8343501 2.2296747 5.8125 2.21875 C 5.79065 2.2078247 5.8000502 2.1781001 5.84375 2.15625 z M 5.625 4.4375 L 6.125 6.21875 C 6.1347049 6.2633927 6.1232265 6.3234604 6.125 6.375 C 5.6002872 6.6390857 5.1875615 6.8397133 4.9375 7.03125 C 4.6807627 7.2278993 4.395712 7.3664871 4.0625 7.4375 C 3.9483861 7.4618194 3.8335045 7.5144763 3.71875 7.5625 L 3.34375 6.75 C 3.4625315 6.6592077 3.5884791 6.5627606 3.71875 6.4375 C 4.2431493 6.6341493 4.8429753 6.6623501 5.53125 6.53125 C 5.6732747 6.4657007 5.7014749 5.7703495 5.625 4.4375 z M 8.25 4.625 C 7.9528873 5.3956445 7.7216513 6.0264081 7.65625 6.4375 L 6.875 6.5 C 7.1498486 6.1923593 7.3821579 5.8955131 7.5625 5.625 C 7.7620097 5.3257357 8.0009199 4.9862273 8.25 4.625 z M 3.0625 6.15625 C 3.1608248 6.1521532 3.2430126 6.2020437 3.28125 6.28125 C 3.3577253 6.439662 3.2324746 6.6079754 2.9375 6.75 C 2.8064 6.6844507 2.7312001 6.5310001 2.6875 6.3125 C 2.8459123 6.2251 2.9641752 6.1603468 3.0625 6.15625 z M 7.65625 6.90625 C 8.0277 7.2558493 8.0935007 7.8838765 7.875 8.8125 L 7.96875 10.59375 L 5.34375 10.59375 L 6.3125 7 L 7.65625 6.90625 z M 1.34375 15.71875 C -0.196674 16.3087 -0.36739931 16.947651 0.8125 17.625 C 0.53937533 17.712399 0.2622 17.779725 0 17.8125 C 0.14202467 17.867125 0.30335 17.904725 0.5 17.9375 C 0.69665 17.970276 1.082688 18.005463 1.65625 18 C 2.229812 17.994537 4.1600027 17.7589 7.4375 17.34375 C 7.37195 17.453001 7.2576255 17.645575 7.09375 17.875 C 7.6946247 17.645575 8.494901 17.488188 9.5 17.40625 C 10.505099 17.324313 11.421225 17.27185 12.21875 17.25 L 12.125 16.4375 C 9.0332273 16.688775 7.2173622 16.838289 6.6875 16.84375 C 6.157638 16.849213 5.5335491 16.811613 4.8125 16.71875 C 4.0914507 16.625887 3.5762246 16.554624 3.28125 16.5 C 2.9316507 16.489075 2.8846507 16.554876 3.125 16.71875 C 3.36535 16.882625 3.802326 16.995425 4.46875 17.09375 C 2.8846267 17.323175 1.7844366 17.363825 1.15625 17.15625 C 0.52806267 16.948676 0.58992537 16.450725 1.34375 15.71875 z "
     id="path2243" />
</svg>
