<?xml version="1.0" encoding="UTF-8" standalone="no"?>
<svg
   xmlns:dc="http://purl.org/dc/elements/1.1/"
   xmlns:cc="http://creativecommons.org/ns#"
   xmlns:rdf="http://www.w3.org/1999/02/22-rdf-syntax-ns#"
   xmlns:svg="http://www.w3.org/2000/svg"
   xmlns="http://www.w3.org/2000/svg"
   xmlns:sodipodi="http://sodipodi.sourceforge.net/DTD/sodipodi-0.dtd"
   xmlns:inkscape="http://www.inkscape.org/namespaces/inkscape"
   width="1800"
   height="1800"
   id="svg2"
   sodipodi:version="0.32"
   inkscape:version="0.46"
   sodipodi:docname="A15C.svg"
   inkscape:output_extension="org.inkscape.output.svg.inkscape"
   version="1.0">
  <metadata
     id="metadata9">
    <rdf:RDF>
      <cc:Work
         rdf:about="">
        <dc:format>image/svg+xml</dc:format>
        <dc:type
           rdf:resource="http://purl.org/dc/dcmitype/StillImage" />
      </cc:Work>
    </rdf:RDF>
  </metadata>
  <defs
     id="defs7">
    <inkscape:perspective
       sodipodi:type="inkscape:persp3d"
       inkscape:vp_x="0 : 4.9203229 : 1"
       inkscape:vp_y="0 : 1000 : 0"
       inkscape:vp_z="23.665241 : 4.9203229 : 1"
       inkscape:persp3d-origin="11.832621 : 3.2802153 : 1"
       id="perspective11" />
    <inkscape:perspective
       id="perspective3304"
       inkscape:persp3d-origin="8.8395348 : 2.7999999 : 1"
       inkscape:vp_z="17.67907 : 4.1999998 : 1"
       inkscape:vp_y="0 : 1000 : 0"
       inkscape:vp_x="0 : 4.1999998 : 1"
       sodipodi:type="inkscape:persp3d" />
  </defs>
  <sodipodi:namedview
     inkscape:window-height="752"
     inkscape:window-width="1280"
     inkscape:pageshadow="2"
     inkscape:pageopacity="0.0"
     guidetolerance="10.0"
     gridtolerance="10.0"
     objecttolerance="10.0"
     borderopacity="1.0"
     bordercolor="#666666"
     pagecolor="#ffffff"
     id="base"
     showgrid="false"
     inkscape:zoom="0.038125"
     inkscape:cx="900"
     inkscape:cy="900"
     inkscape:window-x="0"
     inkscape:window-y="22"
     inkscape:current-layer="svg2" />
  <path
     style="fill:#000000;stroke:none"
     d="M 671.40625,1212.2018 C 647.78036,1212.3265 627.53262,1228.6769 615.97655,1248.3151 C 613.33459,1251.1641 612.19363,1256.4695 608.96876,1258.0415 C 403.87501,1257.2098 198.7813,1256.3589 -6.3125,1255.5456 C -6.3044208,1277.6393 -6.2893243,1299.7331 -6.28125,1321.8268 C 52.84484,1322.0925 111.96925,1322.6415 171.09375,1323.1393 C 187.18669,1349.8482 203.28607,1376.5531 219.375,1403.2643 C 342.13253,1373.4716 465.15147,1344.7645 587.84375,1314.7018 C 584.17839,1328.0378 583.0651,1342.638 588.5,1355.6393 C 593.52675,1380.3703 613.27865,1397.9494 632.30176,1412.7054 C 641.31147,1418.9788 645.37745,1429.8759 652.78949,1437.7883 C 660.56319,1446.5641 667.77891,1456.1668 677.53125,1462.7956 C 682.71,1465.6244 689.19583,1463.2726 691.78125,1458.1081 C 693.50829,1456.5009 695.27487,1451.4677 696.3125,1455.6706 C 698.20068,1459.3786 703.36668,1460.9993 706.84375,1458.5143 C 709.75735,1463.2304 715.91521,1461.536 719.28125,1458.1706 C 724.51282,1454.2586 730.96033,1459.4155 736.75,1459.0143 C 746.57224,1460.4795 752.92965,1451.3643 756.0625,1443.3893 C 758.82193,1436.8027 760.52356,1429.7278 762.4375,1422.9206 C 776.69512,1423.9525 794.21606,1428.8818 799.28125,1444.0456 C 802.50504,1456.1561 799.77138,1469.1242 804.18354,1481.0461 C 816.82124,1530.6109 838.69231,1577.1623 859.19325,1623.8401 C 861.77216,1629.1047 852.33075,1631.7076 849.61815,1635.8294 C 824.55835,1657.2728 800.88862,1680.5852 775.4375,1701.3893 C 746.74577,1722.0288 712.35458,1734.0875 678.4375,1743.7018 C 656.24174,1729.8759 630.36388,1718.997 603.6875,1721.0768 C 584.34751,1723.4893 565.94415,1732.9348 546.125,1730.9206 C 539.21049,1731.4983 532.25873,1739.8242 537.1875,1746.0768 C 535.78822,1748.7576 535.15754,1752.2047 537.03125,1754.7956 C 535.33777,1758.605 537.57619,1762.1028 538.40625,1765.6081 C 536.45649,1772.7421 544.38322,1780.706 551.46105,1777.0192 C 561.21381,1774.4451 572.4814,1770.5534 581.46875,1769.0456 C 578.52497,1775.5848 583.29401,1784.4468 590.96875,1783.8268 C 596.64697,1783.5111 602.07979,1782.3178 607.5,1784.8268 C 623.94814,1789.7172 641.82473,1797.3003 659.09375,1791.0456 C 668.73525,1788.2234 677.14133,1782.1068 687.50232,1781.8004 C 713.60076,1777.7483 739.70751,1773.1327 764.46875,1763.8581 C 815.26876,1746.4128 863.22717,1720.5273 905.34375,1687.1393 C 891.28665,1709.9956 876.59937,1733.0573 855.30434,1749.8592 C 837.24286,1765.3852 817.01119,1778.5864 796.40625,1790.6393 C 772.03858,1784.4021 745.6163,1780.3153 721,1787.1706 C 702.11607,1793.6543 686.49931,1808.3393 666.34375,1811.2643 C 659.9944,1814.1943 655.99057,1822.9775 660.15625,1829.0456 C 658.59834,1833.4395 664.017,1836.1886 662.90625,1840.3581 C 663.20243,1844.0939 667.70503,1845.7228 667.15625,1849.5768 C 668.16025,1856.2464 676.5913,1860.1697 681.98999,1855.4918 C 691.42765,1850.6621 700.94268,1844.1869 709.84375,1839.4518 C 706.15816,1847.0103 715.45644,1855.0972 722.65625,1851.6081 C 728.55019,1849.213 734.7051,1847.4589 741.09375,1848.5768 C 758.27194,1849.3612 777.24018,1851.111 792.03125,1840.6393 C 799.84594,1835.1103 806.65285,1827.8072 816.17326,1825.252 C 838.38869,1815.8036 860.79428,1806.0917 880.4375,1791.7956 C 935.84341,1755.2481 983.99773,1707.6556 1020.9062,1652.3581 C 1005.3087,1599.6697 986.19358,1547.9459 961.84375,1498.7018 C 1005.8901,1483.6346 1050.6005,1467.7713 1097.4375,1465.5143 C 1112.0458,1466.8428 1125.5046,1473.3167 1139.8094,1476.3944 C 1232.5872,1502.863 1325.6527,1528.4053 1418.25,1555.4518 C 1448.7446,1566.6759 1481.7571,1572.1441 1514.2812,1568.7331 C 1572.0063,1585.9353 1630.0146,1602.6735 1689.1562,1614.2331 C 1705.9019,1618.5858 1722.6516,1628.5603 1728.8143,1645.5463 C 1744.4635,1677.1602 1759.8425,1709.1498 1771.125,1742.6706 C 1774.5337,1749.9006 1778.4984,1758.9036 1786.75,1761.4831 C 1796.0044,1762.9372 1801.03,1753.011 1803.1875,1745.6706 C 1811.4469,1722.1161 1803.5716,1696.9795 1798.4688,1673.6081 C 1794.411,1649.9622 1799.5529,1626.0015 1806.9688,1603.5768 C 1809.502,1593.542 1808.2047,1579.7176 1797.2188,1575.5456 C 1787.014,1571.6949 1775.5797,1575.8152 1765.4102,1571.3762 C 1714.2904,1557.5285 1669.1951,1528.2886 1621.2812,1506.6081 C 1587.5355,1491.9134 1550.3325,1480.8801 1513.2324,1486.21 C 1502.5265,1487.3548 1492.3192,1493.3945 1481.4375,1490.0768 C 1457.3995,1484.9405 1438.684,1467.2447 1419.2188,1453.4206 C 1415.163,1451.1225 1412.8023,1447.2305 1414.125,1442.3893 C 1414.4169,1420.4762 1413.5413,1397.6192 1414.5625,1376.2956 C 1435.1638,1371.3243 1453.8342,1360.7385 1473.3073,1352.8503 C 1543.9534,1345.8463 1614.4949,1337.5108 1685.2183,1331.4622 C 1704.4079,1331.3952 1726.1569,1330.996 1741.4375,1344.1706 C 1757.166,1361.0202 1758.7347,1385.2158 1762.4375,1406.7331 C 1764.6698,1414.4223 1771.5252,1419.5901 1775.6332,1426.2883 C 1781.077,1432.6085 1787.9892,1440.5901 1797.1875,1440.1393 C 1806.7762,1437.7575 1808.023,1425.9193 1807.5938,1417.7018 C 1807.7981,1378.2206 1802.5369,1338.8586 1804.4062,1299.3581 C 1804.5686,1287.3202 1804.3327,1272.4568 1794.125,1264.3893 C 1785.8104,1258.9157 1775.6272,1262.7158 1767.2812,1265.6393 C 1728.17,1273.3953 1687.9784,1267.1897 1649.0939,1260.9737 C 1608.0492,1253.2226 1565.8242,1244.0437 1524.0938,1252.3268 C 1504.1464,1256.1196 1484.6753,1263.8869 1468.9375,1276.8581 C 1447.9167,1276.8581 1426.8958,1276.8581 1405.875,1276.8581 C 1401.741,1281.1532 1394.715,1277.7637 1389.5312,1279.5143 C 1340.5,1283.056 1291.4688,1286.5977 1242.4375,1290.1393 C 1216.5566,1274.0299 1184.098,1275.3614 1154.8552,1279.1026 C 1135.1563,1281.7847 1116.939,1290.1024 1099.9096,1299.9443 C 1086.9874,1306.4872 1072.2456,1309.2261 1057.8804,1306.6467 C 1009.4343,1304.0808 960.91479,1300.1279 912.375,1301.7018 C 883.98625,1302.8741 854.98875,1307.9732 830.36593,1322.6358 C 814.52723,1329.7793 795.70912,1331.6181 779.40625,1325.0456 C 778.17816,1290.8691 765.68365,1254.361 736.375,1234.5456 C 717.34656,1221.3887 694.97382,1211.4809 671.40625,1212.2018 z M 676,1243.7331 C 707.25738,1245.2825 734.35884,1268.6051 745.28071,1297.3166 C 747.47386,1304.5468 751.83081,1312.1422 750.59375,1319.8581 C 748.11423,1325.6703 739.22477,1322.8765 736.15625,1318.8893 C 725.09105,1306.6179 721.22622,1288.2877 706.25,1279.6081 C 692.66668,1270.865 670.2792,1274.3005 664.0625,1290.5456 C 660.10995,1300.2647 660.34837,1311.127 661.4375,1321.4518 C 644.43725,1332.3666 634.78925,1350.7097 624.6875,1367.6081 C 610.21982,1349.581 613.16366,1323.861 621.48623,1303.8631 C 629.22395,1284.9934 638.35766,1265.8368 653.625,1251.9831 C 660.02576,1246.976 667.82872,1243.7453 676,1243.7331 z M 453.625,1301.0456 C 384.21875,1317.2123 314.8125,1333.3789 245.40625,1349.5456 C 235.22458,1333.0346 225.10011,1316.5052 214.9375,1299.9831 C 294.5,1300.3373 374.0625,1300.6914 453.625,1301.0456 z M 692.375,1310.7956 C 697.1588,1313.0358 701.8371,1318.9392 702.8125,1322.9206 C 700.05821,1321.843 698.29438,1326.9195 696.78125,1322.8893 C 693.72899,1319.8222 689.55104,1315.2256 691.90625,1310.5768 L 692.375,1310.7956 z M 1172.875,1312.1081 C 1196.8565,1312.0661 1220.1232,1318.6062 1242.9688,1325.0143 C 1286.6458,1322.8373 1330.3229,1320.6602 1374,1318.4831 C 1374,1377.8164 1374,1437.1498 1374,1496.4831 C 1288.5208,1473.056 1203.0417,1449.6289 1117.5625,1426.2018 C 1110.8958,1397.8581 1104.2292,1369.5143 1097.5625,1341.1706 C 1116.5721,1335.2753 1132.8768,1323.466 1150.8438,1315.2643 C 1157.9744,1312.9318 1165.4141,1312.2084 1172.875,1312.1081 z M 686.71875,1335.1706 C 689.85933,1339.4271 695.16468,1342.2844 699.4375,1344.1706 C 700.20392,1352.4815 710.88055,1359.0432 717.78125,1352.9206 C 722.78962,1349.5163 723.96069,1342.7172 722.8125,1337.1081 C 726.59209,1348.1827 740.03387,1353.2522 750.5,1348.7331 C 756.07401,1346.6805 761.02544,1348.9045 766.08737,1350.8798 C 794.10097,1359.1011 826.31531,1362.2389 852.75,1347.5143 C 883.81112,1333.8029 919.02922,1335.429 952.34216,1336.727 C 987.86828,1338.594 1023.3169,1341.693 1058.8438,1343.5456 C 1065.375,1370.4518 1071.9062,1397.3581 1078.4375,1424.2643 C 1027.0835,1426.6916 982.73568,1456.9251 933.5625,1467.9831 C 930.13454,1468.5007 926.11294,1469.6371 923.0625,1469.1393 C 916.05075,1446.0868 891.94167,1429.9501 868.03125,1430.8893 C 854.16757,1431.7737 843.54813,1443.041 839.46875,1455.7018 C 838.64914,1462.2738 836.34892,1459.4183 834.3125,1455.2956 C 826.52041,1441.4942 825.97201,1425.0258 826.4375,1409.4206 C 808.77388,1402.1352 791.75519,1390.6425 771.84375,1391.7018 C 759.85184,1391.7736 747.30713,1398.8894 744.625,1411.2018 C 742.29138,1418.5821 743.54625,1429.7314 735.46875,1433.4831 C 730.94968,1434.2422 725.3534,1431.3893 726.0625,1426.0143 C 725.44164,1420.0908 721.92668,1411.0353 714.59375,1412.6393 C 709.60703,1413.9814 706.27059,1418.7962 703.78125,1422.5456 C 702.6052,1415.7202 692.53336,1411.0698 687.8125,1417.1081 C 686.19353,1419.9465 688.21963,1424.2161 690.875,1425.0143 C 686.08196,1426.523 679.98543,1432.3594 684.15625,1437.3268 C 678.03393,1430.9211 669.75728,1423.5986 665.65625,1417.1706 C 672.60066,1418.3825 673.96564,1410.0053 677.5,1406.1081 C 683.89948,1396.6356 686.37333,1385.0315 686.0625,1373.7643 C 688.5981,1368.2679 694.60787,1363.673 693.6875,1357.0768 C 690.48595,1356.0371 687.67133,1354.0384 684.375,1353.3893 C 685.15668,1351.2771 679.4002,1351.5928 678.15625,1349.3893 C 675.35681,1346.6165 669.41724,1346.9882 669.53125,1351.8581 C 664.1556,1365.8531 646.79669,1371.6977 643.875,1387.1081 C 639.94927,1383.5843 645.82994,1379.3337 646.5,1375.5456 C 653.64722,1361.6189 662.64148,1347.2182 674.84375,1337.7956 C 678.75447,1339.1587 684.04417,1338.5571 686.3125,1334.7018 L 686.71875,1335.1706 z M 915.34375,1592.8268 C 923.64129,1605.7387 932.40675,1618.4318 941.9375,1630.4831 C 937.01042,1638.1185 932.08333,1645.7539 927.15625,1653.3893 C 922.8125,1632.556 918.46875,1611.7227 914.125,1590.8893 C 914.53125,1591.5352 914.9375,1592.181 915.34375,1592.8268 z"
     id="path3410" />
</svg>
