<?xml version="1.0" encoding="UTF-8" standalone="no"?>
<svg
   xmlns:dc="http://purl.org/dc/elements/1.1/"
   xmlns:cc="http://web.resource.org/cc/"
   xmlns:rdf="http://www.w3.org/1999/02/22-rdf-syntax-ns#"
   xmlns:svg="http://www.w3.org/2000/svg"
   xmlns="http://www.w3.org/2000/svg"
   xmlns:sodipodi="http://inkscape.sourceforge.net/DTD/sodipodi-0.dtd"
   xmlns:inkscape="http://www.inkscape.org/namespaces/inkscape"
   width="12.831873"
   height="17.977417"
   id="svg1773"
   sodipodi:version="0.32"
   inkscape:version="0.43"
   sodipodi:docname="US22A166.svg"
   sodipodi:docbase="C:\Program Files\JSesh\fonts\envoi26_SR">
  <metadata
     id="metadata1780">
    <rdf:RDF>
      <cc:Work
         rdf:about="">
        <dc:format>image/svg+xml</dc:format>
        <dc:type
           rdf:resource="http://purl.org/dc/dcmitype/StillImage" />
        <dc:title>US22A166</dc:title>
        <dc:date>17/04/06</dc:date>
        <dc:creator>
          <cc:Agent>
            <dc:title>Serge Thomas</dc:title>
          </cc:Agent>
        </dc:creator>
        <dc:publisher>
          <cc:Agent>
            <dc:title>Serge Rosmorduc</dc:title>
          </cc:Agent>
        </dc:publisher>
        <dc:description>pour rendre le signe A166 de la classification de Bob Richmond</dc:description>
        <cc:license
           rdf:resource="http://creativecommons.org/licenses/GPL/2.0/" />
      </cc:Work>
      <cc:License
         rdf:about="http://creativecommons.org/licenses/GPL/2.0/">
        <cc:permits
           rdf:resource="http://web.resource.org/cc/Reproduction" />
        <cc:permits
           rdf:resource="http://web.resource.org/cc/Distribution" />
        <cc:requires
           rdf:resource="http://web.resource.org/cc/Notice" />
        <cc:permits
           rdf:resource="http://web.resource.org/cc/DerivativeWorks" />
        <cc:requires
           rdf:resource="http://web.resource.org/cc/ShareAlike" />
        <cc:requires
           rdf:resource="http://web.resource.org/cc/SourceCode" />
      </cc:License>
    </rdf:RDF>
  </metadata>
  <defs
     id="defs1778" />
  <sodipodi:namedview
     inkscape:window-height="708"
     inkscape:window-width="1024"
     inkscape:pageshadow="2"
     inkscape:pageopacity="0.0"
     borderopacity="1.0"
     bordercolor="#666666"
     pagecolor="#ffffff"
     id="base"
     inkscape:zoom="29.98206"
     inkscape:cx="6.4158593"
     inkscape:cy="9.035403"
     inkscape:window-x="-4"
     inkscape:window-y="-4"
     inkscape:current-layer="svg1773" />
  <g
     id="g1785">
    <path
       sodipodi:nodetypes="csssssssccsssssccsssssssccccccccssccssssscsccssscccssssssccssccsssssscccccccssscccssssssssssc"
       id="path1775"
       d="M 12.001596,1.961102 C 12.002117,1.961102 12.002378,1.961189 12.002378,1.961363 C 12.002378,2.01454 11.907686,2.874642 11.81342,3.150785 C 11.591528,3.800799 11.123974,4.159571 10.645852,5.172443 C 10.627304,5.193958 10.60505,5.203996 10.578877,5.203996 C 10.358632,5.203996 9.860809,4.493172 8.95745,3.928257 C 8.5173,3.653009 8.409513,3.70576 7.968281,3.621849 C 7.788766,3.58771 7.568376,3.444609 7.568161,3.435757 C 7.567945,3.426905 11.970028,1.961102 12.001596,1.961102 z M 4.654209,4.346329 C 4.65655,4.346329 4.657116,4.346983 4.655827,4.348319 C 4.02874,4.998158 3.414656,6.460848 3.064709,7.023554 C 3.053611,7.0414 3.033473,7.049142 3.006576,7.049142 C 2.852418,7.049142 2.476262,6.794822 2.3079,6.730863 C 1.700647,6.500172 1.033318,6.144645 0.899905,5.667764 C 0.895875,5.653361 4.549538,4.346329 4.654209,4.346329 z M 7.01786,3.60297 C 7.328778,3.810548 7.950613,3.851862 7.950613,4.225705 C 7.950613,4.234985 7.899717,4.371286 7.837511,4.528595 C 7.687567,4.907777 7.50942,6.981423 7.409975,7.177668 C 7.300132,7.394433 6.78116,7.560794 6.47216,7.710359 C 6.327719,7.780273 6.164469,7.846489 6.109383,7.857506 C 6.095401,7.860302 6.084017,7.861865 6.074742,7.861865 C 6.017726,7.861865 6.040393,7.802829 6.029415,7.608425 C 5.99199,6.945678 5.08272,4.253998 5.08272,4.253998 L 7.01786,3.60297 z M 7.37078,7.750542 C 7.507932,7.750542 7.599737,7.842142 7.712653,8.176936 L 7.720676,10.351018 L 7.730809,12.081791 L 4.759695,12.081791 L 5.650002,8.785401 C 5.772027,8.54256 5.822648,8.475566 5.946822,8.392578 C 6.089916,8.296945 6.870975,7.855502 7.245927,7.768179 C 7.291898,7.757473 7.333055,7.750542 7.37078,7.750542 z M 0.054458,5.375274 C -0.100267,5.748141 0.079184,6.176921 0.524176,6.37714 C 0.802025,6.502154 1.313457,6.898511 2.252475,7.551621 C 2.663422,7.837445 2.863271,7.903893 2.989292,7.903893 C 3.082952,7.903893 3.135831,7.86719 3.204281,7.856563 C 3.737622,7.77376 4.811481,5.318216 4.934532,5.318216 C 5.007286,5.318216 5.982715,7.40741 5.325002,7.614687 C 5.187375,7.619049 5.105062,7.971098 5.326356,7.971098 C 5.337472,7.971098 5.349354,7.970211 5.362033,7.968345 L 5.362033,7.968345 C 5.429253,8.026875 5.034749,8.441366 5.013765,8.772067 C 5.011732,8.804112 5.035307,8.811914 5.068996,8.811914 C 5.100974,8.811914 5.142065,8.804885 5.179015,8.804885 C 5.252077,8.804885 5.308954,8.832369 5.247207,8.996027 L 4.79849,10.185322 L 4.241236,12.365064 C 4.374593,12.368217 4.374679,12.37669 4.48911,12.37669 C 4.542614,12.37669 4.621115,12.374838 4.749921,12.369723 C 4.749928,12.369723 4.749936,12.369723 4.749943,12.369723 C 4.783788,12.369723 4.189183,15.567003 4.03914,16.192745 C 3.858742,16.945086 3.0484,17.443813 2.358694,17.524282 C 1.595885,17.613276 1.729225,17.90704 1.758916,17.923656 C 1.835479,17.966503 4.633389,17.977417 4.633389,17.977417 C 4.828787,17.806576 4.849871,17.496283 4.644343,17.255713 C 4.773468,16.810598 4.884225,16.159918 4.987967,15.970249 C 5.044158,15.867512 5.690219,14.433421 5.81882,13.212065 C 5.854833,12.870045 5.723825,12.406072 6.112534,12.400827 L 6.984759,12.389062 C 7.428161,13.151776 8.016367,15.478626 7.844309,16.61211 C 7.749501,17.236685 6.816695,17.50873 6.62009,17.551849 C 6.213124,17.641106 6.038788,17.718578 5.94337,17.852581 C 5.906798,17.903942 5.876875,17.954514 5.876875,17.964968 C 5.876875,17.9681 6.119519,17.969217 6.462287,17.969217 C 7.262858,17.969217 8.609617,17.96312 8.686769,17.962366 C 9.108565,17.958235 8.701829,17.214998 8.684398,16.835754 C 8.690208,15.986557 8.887765,14.405233 8.614671,13.311994 C 8.443307,12.960794 8.3591,12.679321 8.187736,12.328121 C 8.150226,12.071344 8.16789,11.971326 8.18136,11.959676 C 8.18136,11.959676 8.18136,11.959676 8.18136,11.959676 L 8.18136,11.959676 C 8.18136,11.959676 8.18136,11.959676 8.18136,11.959676 C 8.18075,12.009982 8.181272,12.037078 8.183551,12.037078 C 8.184102,12.037078 8.184755,12.035496 8.185521,12.032278 C 8.196093,11.987816 8.191494,11.958503 8.18402,11.958503 C 8.183166,11.958503 8.182273,11.958886 8.18136,11.959676 L 8.18136,11.959676 C 8.187984,11.414301 8.32759,8.141092 7.79982,7.092155 C 7.954051,6.305888 7.969584,5.186158 8.245834,4.783387 C 8.333419,4.657843 8.370827,4.596315 8.421177,4.596315 C 8.49484,4.596315 8.596206,4.728007 8.922923,4.983591 C 9.209084,5.20745 10.373254,6.104153 10.740338,6.104153 C 10.753519,6.104153 10.765673,6.102997 10.776721,6.100611 C 11.085897,6.033865 11.306909,5.530366 11.551734,5.035443 C 11.799821,4.533925 12.003366,4.137462 12.219012,3.486389 C 12.419936,2.879771 12.831873,2.021509 12.831873,1.879581 C 12.831873,1.819962 12.789582,1.646851 12.737897,1.494889 C 12.68621,1.342928 12.606198,1.2882318 12.600857,1.2510458 C 12.599176,1.2393468 0.054458,5.375274 0.054458,5.375274 z "
       style="fill:#000000; stroke:none" />
    <path
       sodipodi:nodetypes="cssssscscsccccscsscccscssssssssccssssccsccccscccscccsccsssssssccssssssccssssssccssc"
       id="path1738"
       d="M 6.5200181,2.9251563 C 6.3428851,2.8770264 6.2282951,2.7757069 6.1762511,2.6211974 C 6.1242051,2.4666883 6.1700691,2.3048351 6.3138421,2.1356383 C 6.4576151,1.966442 6.5617761,1.7695087 6.6263241,1.5448388 C 6.6908731,1.3201687 6.6474551,1.1864588 6.4960711,1.143709 C 6.3446881,1.1009594 6.2057441,1.1428197 6.0792381,1.2692901 C 5.9527321,1.3957604 5.8648691,1.4038129 5.8156471,1.2934473 C 5.3583821,1.1756677 5.0816441,1.1252603 4.9854311,1.1422253 C 4.8892191,1.15919 4.8043121,1.2684051 4.7307121,1.4698704 C 4.9486081,1.4116086 5.1751251,1.4163092 5.4102651,1.483972 C 5.6454051,1.5516349 5.6981701,1.6117736 5.5685621,1.6643882 C 5.1079051,1.5273659 4.8076711,1.5406236 4.6678601,1.7041615 L 4.4020551,2.3908951 C 4.5791881,2.4390249 4.6250171,2.5301479 4.5395401,2.6642643 C 4.6855551,2.6484381 4.7949221,2.6638752 4.8676391,2.7105754 C 4.9403561,2.7572757 4.8929461,2.8400382 4.7254121,2.9588625 C 4.7644311,3.1801512 4.9269871,3.2581324 5.2130791,3.192806 C 5.4991721,3.1274796 5.6583221,3.2705435 5.6905331,3.6219976 C 5.7227431,3.9734524 7.4102101,3.7597315 6.5200181,2.9251563 z M 6.8485691,2.7630593 C 6.9656741,3.0896241 7.1775851,3.3349895 7.4843021,3.4991556 L 5.3885831,3.9490418 C 5.1646581,3.9971117 5.3458641,3.6926931 5.2457241,3.4623406 C 5.0470711,3.5172089 4.8791241,3.5493028 4.7418821,3.5586221 C 4.6046391,3.5679407 4.5258391,3.5148727 4.5054811,3.3994182 C 4.4851231,3.2839629 4.4456631,3.1867566 4.3870991,3.1077996 C 4.3285351,3.0288426 4.3231671,2.9702668 4.3709941,2.9320724 C 4.4188211,2.893878 4.4138711,2.8798704 4.3561431,2.8900493 C 4.3176591,2.8968352 4.2913461,2.8741939 4.2772041,2.8221256 C 4.2630629,2.7700566 4.2766521,2.7205385 4.3179721,2.6735714 C 4.2727021,2.6418719 4.2019606,2.6345046 4.1057477,2.6514695 C 4.0095355,2.6684343 3.9741765,2.5804255 3.9996708,2.3874431 C 4.2408303,1.8985031 4.3851961,1.5357546 4.4327681,1.2991975 C 4.7028141,0.63651676 5.0578591,0.2167788 5.4979031,0.039983526 C 5.9379481,-0.13681241 6.3825011,-0.17551744 6.8315621,-0.076131574 C 7.2806231,0.023253636 7.5635611,0.26353512 7.6803751,0.64471296 C 7.7971891,1.0258916 7.7801591,1.3934686 7.6292861,1.7474439 C 7.4784131,2.1014194 7.2181741,2.4399579 6.8485691,2.7630593 z M 4.5863231,2.0012691 C 4.6423771,1.8128186 4.7412911,1.6986537 4.8830661,1.6587744 C 5.0248401,1.6188952 5.2239061,1.6507571 5.4802631,1.75436 L 5.7689001,1.7034655 L 5.7841681,1.7900567 L 5.4955311,1.8409512 C 5.3602521,1.973929 5.2145101,2.0616297 5.0583041,2.1040536 C 4.9020991,2.1464773 4.7447711,2.112216 4.5863231,2.0012691 z M 4.8614001,1.7890799 C 4.8195231,1.7766231 4.7716941,1.8148176 4.7179181,1.903663 C 4.7909131,1.9800755 4.8794801,2.0041401 4.9836171,1.9758572 C 4.8438311,1.9707442 4.8030921,1.9084851 4.8614001,1.7890799 z M 4.9836171,1.9758572 C 5.1183151,1.9521063 5.2391501,1.9059992 5.3461231,1.8375353 C 5.2414271,1.8063941 5.1375811,1.7800632 5.0345821,1.7585432 C 5.1364431,1.8298658 5.1194541,1.9023038 4.9836171,1.9758572 z M 6.0040281,1.855454 C 5.9536671,1.794891 5.9623131,1.6892026 6.0299631,1.538389 C 6.0976151,1.3875747 6.1842181,1.287981 6.2897721,1.2396077 C 6.3953271,1.1912345 6.4680501,1.1957722 6.5079421,1.2532208 C 6.5478321,1.3106691 6.5563081,1.4009379 6.5333711,1.5240269 C 6.5104331,1.6471162 6.4366991,1.7915626 6.3121691,1.9573665 C 6.1876381,2.1231705 6.0839191,2.196021 6.0010111,2.1759185 C 5.9181041,2.1558158 5.8779281,2.1108178 5.8804851,2.0409245 C 5.8830411,1.9710308 5.9242221,1.9092073 6.0040281,1.855454 z M 6.2120711,1.4318755 C 6.1582941,1.520721 6.1189491,1.6070218 6.0940351,1.6907779 C 6.0691221,1.7745335 6.0858141,1.7988712 6.1441111,1.7637911 C 6.2024081,1.7287105 6.2074971,1.7575742 6.1593791,1.8503823 C 6.1112611,1.9431899 6.1159261,1.9696482 6.1733751,1.9297573 C 6.2308241,1.8898664 6.2879941,1.8202635 6.3448851,1.7209488 C 6.4017761,1.6216338 6.4298041,1.5274084 6.4289671,1.4382725 C 6.4281301,1.3491367 6.3558311,1.3470043 6.2120711,1.4318755 z M 5.9090711,0.97936246 C 6.3952471,0.75475116 6.7069381,0.76427426 6.8441451,1.0079317 C 6.9813521,1.2515886 6.9364521,1.6017589 6.7094451,2.0584422 C 6.4824401,2.5151259 6.5469531,2.543432 6.9029861,2.1433605 C 7.2590191,1.7432891 7.3944791,1.330029 7.3093641,0.90358026 C 7.2242491,0.47713106 6.9137201,0.2491546 6.3777781,0.2196508 C 5.8418341,0.19014716 5.4777781,0.29154145 5.2856081,0.52383396 C 5.0934391,0.75612636 5.3012601,0.90796916 5.9090711,0.97936246 z M 6.0099541,1.9734539 C 5.9573161,2.0124965 5.9444351,2.0519692 5.9713111,2.0918719 C 5.9981891,2.1317744 6.0322861,2.1282421 6.0736061,2.0812744 C 6.1149271,2.0343071 6.0937101,1.9983669 6.0099541,1.9734539 z "
       style="fill:#000000;stroke:none" />
  </g>
</svg>
