<?xml version="1.0" encoding="UTF-8" standalone="no"?>
<svg
   xmlns:dc="http://purl.org/dc/elements/1.1/"
   xmlns:cc="http://web.resource.org/cc/"
   xmlns:rdf="http://www.w3.org/1999/02/22-rdf-syntax-ns#"
   xmlns:svg="http://www.w3.org/2000/svg"
   xmlns="http://www.w3.org/2000/svg"
   xmlns:sodipodi="http://sodipodi.sourceforge.net/DTD/sodipodi-0.dtd"
   xmlns:inkscape="http://www.inkscape.org/namespaces/inkscape"
   width="15.870522"
   height="17.976006"
   id="svg2265"
   sodipodi:version="0.32"
   inkscape:version="0.44"
   sodipodi:docname="A17A.svg"
   sodipodi:docbase="/home/rosmord/Travail/Gsigns/Distribution">
  <metadata
     id="metadata2272">
    <rdf:RDF>
      <cc:Work
         rdf:about="">
        <dc:format>image/svg+xml</dc:format>
        <dc:type
           rdf:resource="http://purl.org/dc/dcmitype/StillImage" />
      </cc:Work>
    </rdf:RDF>
  </metadata>
  <defs
     id="defs2270" />
  <sodipodi:namedview
     inkscape:window-height="583"
     inkscape:window-width="1009"
     inkscape:pageshadow="2"
     inkscape:pageopacity="0.0"
     guidetolerance="10.0"
     gridtolerance="10.0"
     objecttolerance="10.0"
     borderopacity="1.0"
     bordercolor="#666666"
     pagecolor="#ffffff"
     id="base"
     inkscape:zoom="21.028031"
     inkscape:cx="7.9352608"
     inkscape:cy="8.9880028"
     inkscape:window-x="261"
     inkscape:window-y="371"
     inkscape:current-layer="svg2265" />
  <path
     style="fill:#000000; stroke:none"
     d=" M 12.800406 3.368192  Q 12.503298 3.244397 12.46616 2.972048  Q 12.429021 2.699699 12.71375 2.464488  Q 12.998478 2.229278 13.171791 1.882652  Q 13.345104 1.536026 13.109894 1.436989  Q 12.874683 1.337953 12.627093 1.498887  Q 12.379503 1.659821 12.305226 1.461748  Q 11.562456 1.16464 11.401523 1.152261  Q 11.240589 1.139881 11.067276 1.436989  Q 11.438661 1.41223 11.822426 1.597923  Q 12.20619 1.783616 11.9586 1.808375  Q 11.240589 1.461748 10.94348 1.684579  L 10.497819 2.377832  Q 10.794927 2.526386 10.621614 2.699699  Q 10.869204 2.724458 10.96824 2.823494  Q 11.067276 2.92253 10.69589 3.071084  Q 10.770167 3.41771 11.265347 3.368192  Q 11.71101 3.41771 11.611974 4.110962  Q 11.859564 4.581383 10.423542 4.977527  Q 11.537697 7.280115 11.537697 8.319993  Q 11.537697 9.830293 8.987519 9.830293  Q 6.412582 10.1274 6.140234 10.944448  Q 8.739929 11.093002 10.69589 10.89493  Q 13.072755 10.919689 13.320345 10.523544  Q 13.419381 10.350232 13.419381 10.053123  L 13.072755 7.923849  Q 13.072755 6.958248 14.360224 4.779455  Q 13.543177 4.40807 13.20893 4.110962  Q 12.874683 3.813854 12.800406 3.368192  Z  M 11.240589 3.690059  Q 10.893963 3.739577 10.658752 3.702439  Q 10.423542 3.6653 10.423542 3.479608  Q 10.423542 3.293915 10.374023 3.17012  Q 10.324506 3.046325 10.398783 2.984427  Q 10.47306 2.92253 10.374023 2.92253  Q 10.299747 2.92253 10.287367 2.835873  Q 10.274987 2.749217 10.374023 2.67494  Q 10.299747 2.600663 10.126433 2.613042  Q 9.95312 2.625422 10.052156 2.303555  Q 10.621614 1.585544 10.770167 1.214158  Q 11.413902 0.199039 12.21857 0.050485  Q 13.023237 -0.098069 13.741248 0.18666  Q 14.45926 0.471388 14.496398 1.350333  Q 14.533537 2.229278 13.69173 2.786355  Q 12.849924 3.343433 13.493658 3.888131  Q 14.508778 4.110962 15.226789 4.804214  Q 15.746728 5.91837 15.870522 7.552464  Q 15.845764 9.855052 14.70685 11.365351  Q 14.979198 11.786254 14.892542 12.15764  Q 14.805885 12.529024 14.843024 12.727097  Q 14.880162 12.925168 14.805885 12.949927  Q 14.70685 13.024204 14.644952 12.90041  Q 14.583055 12.776614 14.607814 12.553783  Q 14.632572 12.330952 14.632572 12.207157  Q 14.583055 12.13288 14.533537 12.13288  Q 14.508778 12.13288 14.484018 12.256675  Q 14.434501 12.727097 14.496398 12.962307  Q 14.558295 13.197517 14.682091 13.593661  Q 14.682091 13.717457 14.632572 13.729836  Q 14.583055 13.742215 14.533537 13.692698  Q 14.508778 13.841251 14.384982 13.717457  Q 14.360224 13.866011 14.236428 13.742215  Q 14.21167 13.841251 14.162151 13.816492  Q 14.112634 13.791734 14.063115 13.717457  Q 14.038357 13.420348 13.926941 13.086102  Q 13.815525 12.751855 13.815525 12.553783  Q 13.840284 12.306193 13.926941 11.996706  Q 14.013597 11.687218 14.236428 11.340592  L 14.979198 7.923849  L 14.45926 5.720297  Q 13.71649 6.710658 13.71649 8.097162  L 13.840284 10.523544  Q 13.840284 11.612941 11.71101 11.612941  L 7.353425 11.786254  Q 8.021918 12.925168 7.811466 14.757335  Q 7.601015 16.5895 7.873364 17.183718  Q 7.873364 17.852211 7.031558 17.852211  L 4.48138 17.951246  Q 4.48138 17.530344 5.22415 17.480825  Q 6.858245 16.960886 6.783967 16.317152  Q 6.387824 13.64318 5.917402 11.959567  Q 6.140234 13.271794 5.112735 14.967786  Q 4.085236 16.663778 3.73861 17.802692  L 0.371385 17.976006  Q 0.198072 17.976006 0 17.802692  L 0.173313 17.480825  L 2.00548 16.787573  Q 3.639574 16.663778 4.23379 13.692698  Q 4.629934 10.870171 5.446981 10.39975  Q 6.041197 9.582703 9.804566 9.211317  L 10.844444 9.013246  Q 10.844444 6.41355 9.928362 5.571743  Q 9.383663 6.388791 8.120954 7.131561  Q 6.48686 7.478187 5.645053 7.6515  Q 5.521258 8.121922 5.174632 8.295234  Q 4.828006 8.468547 4.704211 8.62948  Q 4.580416 8.790414 4.506139 8.740896  Q 4.407103 8.716137 4.456621 8.592342  Q 4.506139 8.468547 4.691832 8.344752  Q 4.877524 8.220957 4.951801 8.14668  Q 5.001319 8.047644 4.964181 8.022885  Q 4.927042 7.998126 4.828006 8.047644  Q 4.431862 8.319993 4.308067 8.518065  Q 4.184272 8.716137 3.936682 9.062763  Q 3.862405 9.13704 3.812887 9.112282  Q 3.763369 9.087523 3.763369 9.038004  Q 3.639574 9.112282 3.639574 8.938969  Q 3.515779 9.013246 3.540538 8.839932  Q 3.441502 8.864692 3.441502 8.815173  Q 3.416743 8.765656 3.466261 8.691379  Q 3.664333 8.468547 3.837646 8.15906  Q 4.010959 7.849572 4.159513 7.750536  Q 4.357585 7.577223 4.654693 7.441049  Q 4.951801 7.304874 5.347945 7.255356  L 7.72481 6.41355  Q 8.938002 5.1756 10.151193 4.383311  Q 10.794927 4.135721 11.079656 4.17286  Q 11.364384 4.209998 11.240589 3.690059  Z  M 10.794927 2.006447  Q 10.94348 1.709339 11.191071 1.684579  Q 11.438661 1.659821 11.859564 1.907411  L 12.181431 1.907411  L 12.181431 2.006447  L 11.859564 2.006447  Q 11.562456 2.17976 11.302486 2.204519  Q 11.042517 2.229278 10.794927 2.006447  Z  M 11.141553 1.808375  Q 11.067276 1.783616 10.96824 1.93217  Q 11.067276 2.055965 11.240589 2.031206  Q 11.017757 2.006447 11.141553 1.808375  Z  M 11.240589 2.031206  Q 11.46342 2.031206 11.686251 1.956929  Q 11.512938 1.882652 11.339624 1.808375  Q 11.512938 1.956929 11.240589 2.031206  Z  M 12.429021 2.105483  Q 12.354744 2.006447 12.503298 1.783616  Q 12.651852 1.560784 12.849924 1.498887  Q 13.047997 1.436989 13.097514 1.548405  Q 13.147032 1.659821 13.072755 1.845513  Q 12.998478 2.031206 12.738508 2.278796  Q 12.478539 2.526386 12.342364 2.464488  Q 12.20619 2.402591 12.243328 2.291175  Q 12.280467 2.17976 12.429021 2.105483  Z  M 12.72613 1.684579  Q 12.627093 1.808375 12.552816 1.944549  Q 12.478539 2.080724 12.589954 2.043585  Q 12.70137 2.006447 12.589954 2.142621  Q 12.478539 2.278796 12.589954 2.229278  Q 12.70137 2.17976 12.825165 2.043585  Q 12.94896 1.907411 12.97372 1.746477  Q 12.998478 1.585544 12.72613 1.684579  Z  M 12.478539 1.139881  Q 13.369864 0.91705 13.530797 1.350333  Q 13.69173 1.783616 13.159411 2.464488  Q 12.627093 3.145361 13.357484 2.588283  Q 14.087874 2.031206 14.075495 1.325574  Q 14.063115 0.619942 13.171791 0.409491  Q 12.280467 0.199039 11.884323 0.533286  Q 11.488179 0.867532 12.478539 1.139881  Z  M 12.404262 2.229278  Q 12.305226 2.278796 12.342364 2.353073  Q 12.379503 2.42735 12.45378 2.365452  Q 12.528057 2.303555 12.404262 2.229278  Z "
     id="path2267" />
  <rect
     style="opacity:1;fill:none;fill-opacity:1;stroke:red;stroke-width:0.13812304;stroke-linecap:round;stroke-linejoin:miter;stroke-miterlimit:4;stroke-dasharray:none;stroke-opacity:1"
     id="zone2"
     width="7.8389549"
     height="3.9885433"
     x="8.0883036"
     y="13.960622"
     inkscape:label="gravity:sb" />
</svg>
