<?xml version="1.0" encoding="UTF-8" standalone="no"?>
<svg
   xmlns:dc="http://purl.org/dc/elements/1.1/"
   xmlns:cc="http://web.resource.org/cc/"
   xmlns:rdf="http://www.w3.org/1999/02/22-rdf-syntax-ns#"
   xmlns:svg="http://www.w3.org/2000/svg"
   xmlns="http://www.w3.org/2000/svg"
   xmlns:sodipodi="http://inkscape.sourceforge.net/DTD/sodipodi-0.dtd"
   xmlns:inkscape="http://www.inkscape.org/namespaces/inkscape"
   width="10.71194"
   height="18.48"
   id="svg1663"
   sodipodi:version="0.32"
   inkscape:version="0.43"
   sodipodi:docname="US22A199A.svg"
   sodipodi:docbase="C:\Program Files\JSesh\fonts\envoi26_SR">
  <metadata
     id="metadata1670">
    <rdf:RDF>
      <cc:Work
         rdf:about="">
        <dc:format>image/svg+xml</dc:format>
        <dc:type
           rdf:resource="http://purl.org/dc/dcmitype/StillImage" />
        <dc:creator>
          <cc:Agent>
            <dc:title>Serge Thomas</dc:title>
          </cc:Agent>
        </dc:creator>
        <dc:publisher>
          <cc:Agent>
            <dc:title>Serge Rosmorduc</dc:title>
          </cc:Agent>
        </dc:publisher>
        <dc:date>17/04/06</dc:date>
        <dc:title>US22A199A</dc:title>
        <dc:description>pour rendre le signe A199A de la classification de Bob Richmond</dc:description>
        <cc:license
           rdf:resource="http://creativecommons.org/licenses/GPL/2.0/" />
      </cc:Work>
      <cc:License
         rdf:about="http://creativecommons.org/licenses/GPL/2.0/">
        <cc:permits
           rdf:resource="http://web.resource.org/cc/Reproduction" />
        <cc:permits
           rdf:resource="http://web.resource.org/cc/Distribution" />
        <cc:requires
           rdf:resource="http://web.resource.org/cc/Notice" />
        <cc:permits
           rdf:resource="http://web.resource.org/cc/DerivativeWorks" />
        <cc:requires
           rdf:resource="http://web.resource.org/cc/ShareAlike" />
        <cc:requires
           rdf:resource="http://web.resource.org/cc/SourceCode" />
      </cc:License>
    </rdf:RDF>
  </metadata>
  <defs
     id="defs1668" />
  <sodipodi:namedview
     inkscape:window-height="542"
     inkscape:window-width="811"
     inkscape:pageshadow="2"
     inkscape:pageopacity="0.0"
     borderopacity="1.0"
     bordercolor="#666666"
     pagecolor="#ffffff"
     id="base"
     inkscape:zoom="20.183983"
     inkscape:cx="5.3559699"
     inkscape:cy="9.2399998"
     inkscape:window-x="101"
     inkscape:window-y="70"
     inkscape:current-layer="svg1663" />
  <path
     style="fill:#000000; stroke:none"
     d=" M 7.812315 1.491881  C 7.875646 1.491881 7.85802 1.611688 7.769028 1.786126  C 7.723549 1.875274 7.652757 1.975887 7.611714 2.009712  C 7.584225 2.032365 7.567178 2.045157 7.55841 2.045157  C 7.545303 2.045157 7.550702 2.016569 7.567385 1.949603  C 7.58371 1.88407 7.583385 1.85065 7.56661 1.85065  C 7.562894 1.85065 7.558372 1.852289 7.553046 1.855581  C 7.542652 1.862005 7.534181 1.865064 7.527604 1.865064  C 7.494005 1.865064 7.509848 1.785236 7.571195 1.666604  C 7.629217 1.554401 7.715496 1.491881 7.812315 1.491881  Z  M 6.493712 1.879261  C 6.539451 1.879261 6.604979 1.8916 6.640636 1.914228  C 6.680344 1.939426 6.664971 1.962949 6.584975 1.999398  C 6.511874 2.032705 6.459085 2.04926 6.430829 2.04926  C 6.400468 2.04926 6.398431 2.030147 6.429954 1.992164  C 6.456241 1.96049 6.465043 1.921867 6.449512 1.906337  C 6.431062 1.887887 6.45547 1.879261 6.493712 1.879261  Z  M 6.151335 1.894364  C 6.166995 1.894364 6.178101 1.910791 6.178101 1.937806  C 6.178101 1.973429 6.211895 2.022259 6.253199 2.046317  C 6.297419 2.072073 6.306046 2.085108 6.280688 2.085108  C 6.261716 2.085108 6.22372 2.077811 6.167372 2.063086  C 6.085777 2.041763 6.066183 1.942205 6.135187 1.899558  C 6.140892 1.896032 6.146344 1.894364 6.151335 1.894364  Z  M 7.419859 2.097558  C 7.434484 2.097558 7.452259 2.105175 7.469954 2.12287  C 7.500772 2.153689 7.501513 2.177692 7.472204 2.195807  C 7.464269 2.200711 7.455402 2.20304 7.446515 2.20304  C 7.428488 2.20304 7.410377 2.193457 7.399797 2.176339  C 7.372121 2.131556 7.38896 2.097558 7.419859 2.097558  Z  M 7.832394 1.335325  C 7.711325 1.335325 7.546431 1.449125 7.459439 1.645783  C 7.411838 1.753395 7.382924 1.867589 7.395187 1.899547  C 7.40745 1.931505 7.389666 1.98074 7.355665 2.008958  C 7.279635 2.072057 7.274788 2.206565 7.347487 2.2359  C 7.381268 2.24953 7.410519 2.257095 7.438741 2.257095  C 7.509556 2.257095 7.573885 2.209464 7.687029 2.090524  C 7.8621 1.906487 7.980459 1.673677 7.980459 1.513352  C 7.980459 1.391126 7.917171 1.335325 7.832394 1.335325  Z  M 7.669333 0.338592  C 8.475922 0.338592 8.844677 0.672355 8.78188 1.344833  C 8.75223 1.662362 8.63153 1.917494 8.361528 2.233369  C 8.222932 2.395513 8.087952 2.508321 8.040895 2.508321  C 8.029601 2.508321 8.023372 2.501824 8.023372 2.487953  C 8.023372 2.467676 8.092531 2.291495 8.177059 2.096439  C 8.490375 1.373439 8.370891 0.926496 7.917116 0.926496  C 7.811202 0.926496 7.687076 0.950844 7.545993 1.001714  C 7.458653 1.033206 7.348582 1.047416 7.234566 1.047416  C 6.963895 1.047416 6.671 0.96733 6.607272 0.848255  C 6.551877 0.744748 6.688454 0.573898 6.922411 0.454029  C 7.054867 0.386165 7.206316 0.3575 7.511196 0.342589  C 7.565657 0.339925 7.618369 0.338592 7.669333 0.338592  Z  M 7.849405 1.237823  C 7.9277 1.237823 7.994086 1.264158 8.042221 1.317346  C 8.164824 1.452822 8.061027 1.767015 7.739017 2.235134  C 7.647394 2.36833 7.594239 2.496856 7.594239 2.585198  C 7.594239 2.742075 7.7225 2.931377 7.857911 2.974355  C 7.936299 2.999234 7.944913 3.027509 7.925792 3.197155  C 7.913746 3.304022 7.91977 3.446828 7.939179 3.514502  C 7.958588 3.582176 7.970988 3.639081 7.966734 3.640958  C 7.962481 3.642835 7.798933 3.657676 7.603292 3.673939  C 7.481301 3.684079 7.401144 3.690732 7.347571 3.690732  C 7.245045 3.690732 7.239879 3.666363 7.225167 3.595428  C 7.16669 3.313469 7.052266 3.196854 6.800617 3.196854  C 6.739868 3.196854 6.671124 3.20365 6.593238 3.216556  C 6.509017 3.230512 6.434149 3.237148 6.369586 3.237148  C 6.091602 3.237148 6.004632 3.114126 6.184529 2.922633  C 6.283261 2.817538 6.27951 2.81337 6.038632 2.76059  C 5.973726 2.746368 5.920621 2.706578 5.920621 2.672168  C 5.920621 2.637759 5.874379 2.579307 5.817862 2.542275  L 5.715104 2.474945  L 5.803403 2.265945  C 5.859289 2.133667 5.880371 2.085462 5.915109 2.085462  C 5.93453 2.085462 5.95822 2.100529 5.994646 2.124396  C 6.069745 2.173603 6.159668 2.197884 6.257412 2.197884  C 6.392483 2.197884 6.542489 2.151516 6.688948 2.060483  C 6.812357 1.983775 6.959184 1.921014 7.015228 1.921014  C 7.071272 1.921014 7.130666 1.899109 7.147213 1.872335  C 7.161393 1.849391 7.150419 1.838329 7.110684 1.838329  C 7.091331 1.838329 7.065152 1.840954 7.031734 1.846108  C 7.014634 1.848746 6.993092 1.849996 6.968453 1.849996  C 6.877737 1.849996 6.745038 1.833047 6.637468 1.805979  C 6.534226 1.780001 6.445389 1.766699 6.367395 1.766699  C 6.219163 1.766699 6.110095 1.814746 6.015733 1.915132  L 5.90936 2.028297  L 5.979609 1.890477  C 6.053189 1.746126 6.187515 1.67698 6.404984 1.67698  C 6.48285 1.67698 6.571374 1.685845 6.671586 1.703296  C 6.782913 1.722682 6.867592 1.732157 6.922659 1.732157  C 7.010037 1.732157 7.022861 1.708302 6.949297 1.662339  C 6.85455 1.603141 6.516126 1.540078 6.319842 1.540078  C 6.297574 1.540078 6.277136 1.54089 6.259091 1.542611  C 6.227647 1.545609 6.200955 1.547259 6.178951 1.547259  C 6.060986 1.547259 6.077716 1.499837 6.219029 1.358524  C 6.29458 1.282974 6.355126 1.248375 6.414028 1.248375  C 6.424153 1.248375 6.434228 1.249397 6.444324 1.251409  C 6.49852 1.26221 6.668385 1.294681 6.8218 1.323565  C 6.975214 1.35245 7.150539 1.400926 7.21141 1.43129  C 7.248764 1.449922 7.276394 1.460541 7.305371 1.460541  C 7.353525 1.460541 7.405402 1.431221 7.511804 1.360633  C 7.634703 1.279098 7.751386 1.237823 7.849405 1.237823  Z  M 0.44592 2.39879  C 0.447127 2.39879 0.448366 2.3994 0.449629 2.400664  C 0.461678 2.412713 0.584053 2.983712 0.721573 3.66955  L 0.971609 4.916529  L 0.73185 4.964272  C 0.599982 4.99053 0.448698 5.023628 0.395663 5.037822  C 0.375362 5.043254 0.35935 5.047324 0.346937 5.047324  C 0.301281 5.047324 0.304297 4.992275 0.321661 4.747534  C 0.34795 4.377011 0.427721 2.690991 0.427721 2.505897  C 0.427721 2.4433 0.435621 2.39879 0.44592 2.39879  Z  M 8.436894 4.110521  C 8.439121 4.110521 8.441334 4.110526 8.443529 4.110535  C 8.675052 4.111425 9.009918 4.219263 9.06676 4.311235  C 9.079992 4.332644 9.035904 4.56156 8.968785 4.819935  C 8.800527 5.467659 8.557561 6.576709 8.471018 7.092065  C 8.431383 7.328088 8.371984 7.574113 8.339019 7.638788  C 8.257864 7.798009 8.022247 7.909485 7.642884 7.968147  C 7.469019 7.995033 7.291535 8.035884 7.248475 8.058929  C 7.227597 8.070103 7.210112 8.076064 7.194019 8.076064  C 7.16297 8.076064 7.137103 8.053876 7.102048 8.004123  C 6.994398 7.851332 6.845006 7.331035 6.652107 6.437087  C 6.554001 5.982439 6.434565 5.499664 6.386692 5.364254  C 6.338818 5.228844 6.271295 5.039883 6.236642 4.94434  C 6.157458 4.726028 6.207865 4.571557 6.395531 4.45743  C 6.595972 4.335536 7.922167 4.110521 8.436894 4.110521  Z  M 8.515953 8.25921  C 8.533175 8.25921 8.544349 8.261033 8.548267 8.264952  C 8.636497 8.35318 8.675169 8.67949 8.697241 9.52194  C 8.732283 10.859394 8.599751 12.39174 8.434768 12.556725  C 8.390324 12.601167 8.151253 12.618222 7.416859 12.629341  C 7.172619 12.633038 6.979367 12.635303 6.826658 12.635303  C 6.336079 12.635303 6.263927 12.611938 6.263927 12.537675  C 6.263927 12.423559 6.608678 10.535473 6.733268 9.967256  C 6.978589 8.848422 7.066357 8.667556 7.438494 8.513975  C 7.675011 8.416367 8.356079 8.25921 8.515953 8.25921  Z  M 7.836474 0  C 7.429245 0 6.959676 0.103574 6.665843 0.272148  C 6.308058 0.477411 5.941591 0.975639 5.721334 1.556251  C 5.658659 1.721467 5.541585 1.98869 5.46117 2.150079  C 5.365428 2.342227 5.319504 2.490352 5.328126 2.579211  C 5.339618 2.697654 5.359026 2.716619 5.48076 2.728357  C 5.596271 2.739495 5.620228 2.759766 5.620228 2.846369  C 5.620228 2.903879 5.640753 2.950933 5.665839 2.950933  C 5.690925 2.950933 5.706034 2.984727 5.699417 3.026031  C 5.682263 3.133083 5.879567 3.586164 5.956132 3.615544  C 5.963227 3.618267 5.976979 3.619559 5.996124 3.619559  C 6.072221 3.619559 6.233522 3.599144 6.400674 3.566983  C 6.568996 3.534597 6.672519 3.51907 6.73791 3.51907  C 6.787613 3.51907 6.815287 3.528041 6.832642 3.545396  C 6.917725 3.630479 6.811603 3.740531 6.611544 3.774684  C 6.302822 3.827387 5.780012 4.023947 5.552087 4.173007  C 5.372902 4.290191 5.302524 4.376185 5.159619 4.652555  C 4.95024 5.057482 4.864819 5.443589 4.801876 6.269578  C 4.740058 7.080792 4.711596 7.245759 4.623937 7.300929  C 4.607344 7.311373 4.585754 7.316942 4.555385 7.316942  C 4.482254 7.316942 4.358212 7.284647 4.130435 7.210365  C 3.899518 7.13506 3.474962 7.005932 3.186977 6.923417  C 2.622005 6.761536 2.133933 6.539024 1.989765 6.377609  C 1.9402 6.322117 1.835975 6.180157 1.758152 6.062146  C 1.68033 5.944134 1.571066 5.798081 1.515343 5.737585  C 1.42737 5.642073 1.354621 5.328476 0.962832 3.355898  C 0.714672 2.106467 0.495511 1.055239 0.475805 1.019835  C 0.44731 0.968638 0.385996 0.938946 0.329985 0.938946  C 0.297572 0.938946 0.266935 0.948889 0.245461 0.970363  C 0.212565 1.003259 0.016262 4.44655 0 5.275913  C -0.000777 5.315532 0.027002 5.376361 0.061731 5.411089  C 0.08531 5.434669 0.105592 5.447409 0.137795 5.447409  C 0.181503 5.447409 0.247171 5.423942 0.372852 5.37226  C 0.534822 5.305655 0.655666 5.272067 0.729523 5.272067  C 0.784974 5.272067 0.81394 5.291 0.81394 5.329111  C 0.81394 5.362584 0.825661 5.420516 0.839988 5.45785  C 0.859318 5.508223 0.839253 5.52573 0.76219 5.52573  C 0.600581 5.52573 0.440453 5.727742 0.393229 5.9912  C 0.370609 6.117397 0.360631 6.253267 0.371057 6.293135  C 0.400265 6.404827 0.754674 6.623577 1.148326 6.772883  C 1.344039 6.847115 1.595082 6.971735 1.706199 7.049818  C 2.283056 7.455183 2.51162 7.597525 2.904273 7.795942  C 3.61146 8.153302 4.35011 8.36413 4.79537 8.36413  C 4.983749 8.36413 5.119615 8.326393 5.178364 8.24605  C 5.277814 8.110043 5.487387 7.517296 5.573611 7.128149  C 5.619845 6.919483 5.676548 6.474842 5.699615 6.140054  C 5.732735 5.659386 5.761035 5.443085 5.807318 5.443085  C 5.83584 5.443085 5.87119 5.525223 5.918705 5.678252  C 6.196254 6.572126 6.508934 7.960484 6.445979 8.019447  C 6.428459 8.035857 6.375502 8.056149 6.328297 8.064544  C 6.21119 8.085366 6.194631 8.273005 6.298572 8.401365  L 6.380404 8.502423  L 6.195787 8.741335  C 6.094249 8.872739 5.991276 9.033355 5.966959 9.09826  C 5.925368 9.209272 5.929809 9.216273 6.041841 9.216273  C 6.107343 9.216273 6.184109 9.239446 6.212431 9.267768  C 6.354255 9.409593 6.222118 10.339673 5.838703 11.898353  C 5.665618 12.60198 5.578162 13.050632 5.562651 13.314491  C 5.550162 13.526912 5.490113 13.954581 5.429209 14.264865  C 5.230541 15.277002 4.773345 17.223307 4.701722 17.361809  C 4.60984 17.539492 4.466581 17.608414 4.029156 17.685389  C 3.386883 17.798405 2.745038 18.080717 2.745038 18.250191  C 2.745038 18.377178 2.881254 18.413525 3.492445 18.413525  C 3.571312 18.413525 3.658088 18.412918 3.7535 18.411825  C 3.82168 18.411043 3.889538 18.410671 3.955885 18.410671  C 4.325929 18.410671 4.649001 18.422295 4.719049 18.439615  C 4.827464 18.466425 4.923653 18.48 5.008543 18.48  C 5.242772 18.48 5.390981 18.376656 5.472648 18.162813  C 5.540184 17.985973 5.543807 17.923553 5.501019 17.674042  C 5.440125 17.318926 5.466019 17.21081 5.874311 16.115534  C 6.257736 15.086965 6.330614 14.837769 6.454314 14.132296  C 6.510126 13.813998 6.591504 13.480469 6.635153 13.391119  L 6.714517 13.228663  L 7.447733 13.216953  C 7.605859 13.214427 7.730589 13.212805 7.830169 13.212805  C 8.156353 13.212805 8.212696 13.230212 8.289083 13.290298  C 8.441527 13.410211 8.736292 14.038911 8.773239 14.322952  C 8.790125 14.452765 8.867981 14.974161 8.946252 15.481611  C 9.109968 16.543001 9.161986 17.110624 9.120744 17.385651  C 9.093939 17.5644 9.078185 17.584024 8.911598 17.646158  C 8.812512 17.683113 8.581887 17.741312 8.3991 17.775486  C 8.008989 17.848417 7.738015 17.960384 7.505001 18.144938  C 7.338218 18.277033 7.287129 18.414692 7.390401 18.453716  C 7.399132 18.45702 7.433604 18.45858 7.4873 18.45858  C 7.615055 18.45858 7.851624 18.449738 8.109199 18.434408  C 8.339746 18.420689 8.633554 18.413252 8.888401 18.413252  C 9.037951 18.413252 9.174083 18.415813 9.276143 18.421171  C 9.431898 18.429346 9.540207 18.434345 9.618431 18.434345  C 9.775388 18.434345 9.811225 18.414219 9.866201 18.359245  C 9.966364 18.259081 9.979351 18.060755 9.905701 17.756016  C 9.877967 17.641272 9.854925 16.9708 9.84892 16.103855  C 9.837512 14.457116 9.825587 14.375205 9.479162 13.563848  C 9.380295 13.332293 9.250425 13.002101 9.190565 12.830088  L 9.081727 12.517337  L 9.142607 11.263752  C 9.176091 10.574282 9.203274 9.701193 9.203013 9.323555  L 9.20254 8.636944  L 9.062875 8.357885  C 8.891688 8.01584 8.822983 7.52787 8.884673 7.092246  C 8.925412 6.804577 9.059343 6.245082 9.222379 5.681491  C 9.317625 5.352235 9.413944 5.183525 9.501817 5.183525  C 9.548678 5.183525 9.593139 5.231507 9.633752 5.328709  C 9.739055 5.580734 9.780556 5.840836 9.86542 6.780651  C 9.910726 7.282361 9.969996 7.754179 9.997134 7.829138  C 10.036959 7.939143 10.029082 8.067411 9.956285 8.494293  C 9.815651 9.318968 9.760505 10.059375 9.815154 10.389169  C 9.857468 10.644528 9.851974 10.698413 9.752393 11.004752  C 9.631782 11.37578 9.616819 11.620193 9.687197 12.06976  C 9.724254 12.306479 9.757965 12.390366 9.84672 12.466709  C 9.908614 12.519948 9.986699 12.563508 10.020245 12.563508  C 10.122744 12.563508 10.222747 12.367058 10.191852 12.226392  C 10.158302 12.073641 10.257387 11.816532 10.412022 11.65509  L 10.521715 11.540567  L 10.406538 11.194724  C 10.27318 10.794287 10.275984 10.736299 10.478334 9.709776  C 10.598273 9.101321 10.645517 8.662906 10.709553 7.56411  C 10.744014 6.972829 10.652873 6.132628 10.441978 5.09739  C 10.27342 4.269979 10.171327 4.016872 9.923762 3.812659  C 9.743629 3.664068 9.607337 3.613056 9.277259 3.613056  C 9.1871 3.613056 9.082484 3.616861 8.958569 3.623524  L 8.45349 3.650682  L 8.362327 3.444593  C 8.29539 3.293271 8.276511 3.182866 8.291283 3.029132  C 8.309714 2.837303 8.336722 2.794438 8.613616 2.517543  C 9.124143 2.007018 9.314116 1.528531 9.220263 0.989588  C 9.128163 0.46071 8.777841 0.138827 8.173569 0.027862  C 8.070635 0.00896 7.956251 0 7.836474 0  Z "
     id="path1665" />
</svg>
