<?xml version="1.0" encoding="UTF-8" standalone="no"?>
<svg
   width="811.06854"
   height="1799.8184"
   version="1.1"
   id="svg2"
   sodipodi:docname="A210.svg"
   inkscape:version="1.4 (e7c3feb1, 2024-10-09)"
   xmlns:inkscape="http://www.inkscape.org/namespaces/inkscape"
   xmlns:sodipodi="http://sodipodi.sourceforge.net/DTD/sodipodi-0.dtd"
   xmlns="http://www.w3.org/2000/svg"
   xmlns:svg="http://www.w3.org/2000/svg"
   xmlns:rdf="http://www.w3.org/1999/02/22-rdf-syntax-ns#"
   xmlns:cc="http://creativecommons.org/ns#"
   xmlns:dc="http://purl.org/dc/elements/1.1/">
  <title
     id="title2">A210</title>
  <defs
     id="defs2" />
  <sodipodi:namedview
     id="namedview2"
     pagecolor="#ffffff"
     bordercolor="#000000"
     borderopacity="0.25"
     inkscape:showpageshadow="2"
     inkscape:pageopacity="0.0"
     inkscape:pagecheckerboard="0"
     inkscape:deskcolor="#d1d1d1"
     inkscape:zoom="0.090277778"
     inkscape:cx="66.461538"
     inkscape:cy="1057.8462"
     inkscape:window-width="1440"
     inkscape:window-height="718"
     inkscape:window-x="0"
     inkscape:window-y="25"
     inkscape:window-maximized="0"
     inkscape:current-layer="svg2" />
  <path
     id="path1"
     style="fill:#000000;stroke:none;stroke-width:99.9899"
     d="m 633.47256,0 c -20.08213,0 -40.58186,2.1413531 -61.5,6.4257812 C 521.523,16.758808 489.00377,57.179622 474.41592,127.6875 c -10.94084,14.58779 -23.09658,34.64709 -36.46875,60.17578 -4.86264,17.01917 -3.95167,26.44023 2.73438,28.26367 6.68609,1.82348 13.67681,5.16663 20.9707,10.0293 -7.29389,3.64696 -10.03054,6.99018 -8.20703,10.0293 1.82342,3.03916 5.16663,5.16525 10.0293,6.38086 3.40379,-0.97257 5.49538,-1.45899 6.27344,-1.45899 1.16701,0 -0.62034,1.09504 -5.36133,3.2832 -7.90177,3.64705 -8.50842,6.68597 -1.82227,9.11719 6.68605,2.43135 10.63591,11.24578 11.85156,26.44141 1.21561,15.19567 8.51059,23.09727 21.88282,23.70508 1.91027,0.0867 3.91862,0.1289 6.02734,0.1289 12.6527,0 28.87796,-1.5635 48.67578,-4.68945 9.72519,14.58804 4.86255,22.49141 -14.58789,23.70703 -49.84177,8.50959 -89.34976,21.27388 -118.52539,38.29297 -29.17563,17.01912 -42.24421,45.58657 -39.20508,85.70313 3.03916,40.11653 5.1672,109.40912 6.38282,207.87695 -13.98001,1.82349 -33.4307,2.73437 -58.35157,2.73437 -24.92086,0 -55.3121,-0.91088 -91.17383,-2.73437 -12.58459,-7.01831 -24.95254,-13.16926 -37.10351,-18.45313 l -31.80078,-6.96093 -3.02344,-222.14844 c 5.15154,-2.07915 10.2682,-4.69086 15.55664,-7.74219 13.23976,-7.63903 26.88397,-18.43841 39.51953,-32.51758 25.27107,-28.15833 46.33849,-70.16263 45.98633,-122.99804 -0.31701,-47.55073 -7.52002,-98.13248 -32.51367,-142.125 C 207.17023,57.736028 163.87822,18.566231 97.878824,6.9726562 96.788234,6.78108 95.754964,6.6894531 94.779214,6.6894531 c -0.12396,0 -0.24135,0.00235 -0.36524,0.00586 -16.22473,0.3810803 -16.2333,26.2924139 -3.92187,30.3925789 52.384106,17.445943 79.620776,56.139764 98.414056,89.218748 18.79341,33.07896 25.73768,75.30646 26.02148,117.87891 0.2665,39.62067 -15.03136,69.12233 -33.26172,89.43554 -9.11518,10.1566 -19.00678,17.83421 -27.35742,22.65235 -8.33749,4.81048 -15.82089,6.19922 -15.45312,6.19922 -0.0304,3.4e-4 -0.0596,0 -0.0918,0 -3.64819,0 -10.46819,-2.41469 -18.4668,-10.65821 -8.06586,-8.31293 -16.33852,-21.78312 -21.898426,-38.0625 -11.11974,-32.55876 -17.16015,-80.71249 4.107416,-118.59765 0,0 6.53831,-21.03652 -3.355466,-26.92383 -1.41418,-0.84143 -3.01735,-1.20117 -4.72461,-1.20117 -10.23899,0 -24.26758,12.96679 -24.26758,12.96679 -29.11693,51.86784 -34.06223,105.26455 -18.83984,149.83594 7.61119,22.28569 18.82129,41.73416 33.27344,56.62891 8.28017,8.5338 17.989056,15.73185 28.816396,20.35742 l -0.51562,210.67773 -24.480466,-5.35937 c -8.84733,0.22065 -17.54725,1.02746 -26.10156,2.41992 -2.43129,24.31307 5.4703,37.07735 23.70507,38.29297 -3.55568,29.63079 5.35742,49.2579 26.646486,58.95508 l -0.11719,47.96679 C 53.716404,733.90615 15.075104,676.95534 1.6327253,701.21094 -12.661563,727.00373 70.455024,797.16056 112.37686,828.30078 l -0.14062,57.24805 c -16.212526,1.21151 -39.152566,14.67748 -38.464846,33.61133 2.08299,57.34749 16.50967,85.18604 38.158206,91.71094 l -1.11133,454.6875 c -0.0452,12.5291 17.26531,18.5937 34.33008,18.5937 16.6805,0 33.12645,-5.7947 32.89453,-17.0097 l -3.90039,-286.4668 c 36.04331,1.2945 144.66652,-155.6062 109.0957,-152.7285 -12.83017,1.0379 -107.83477,99.5414 -110.0293,84.1797 l -1.63476,-120.16802 c 23.64143,-17.33383 49.52445,-44.54613 75.25976,-78.02148 48.99776,-10.31534 179.69917,-66.85146 243.28516,-106.95117 -0.36797,0.89071 -0.73942,1.78339 -1.11523,2.68164 L 357.7128,1227.2461 v 1.8223 c -21.88182,53.4887 -29.78334,104.5476 -23.70508,153.1738 -32.82258,100.8991 -53.79275,175.3567 -62.91016,223.375 -9.11739,48.0182 -25.52724,78.1071 -49.23242,90.2637 -23.70525,12.1565 -59.26339,29.1748 -106.67382,51.0566 -48.626066,8.5095 -75.371746,18.5392 -80.234376,30.0879 -4.86264,11.5488 3.03895,18.2331 23.70508,20.0566 20.66611,1.8238 103.331496,2.7364 247.994136,2.7364 20.66605,-19.4505 28.26342,-44.9791 22.79297,-76.586 -5.47038,-31.6069 14.58885,-84.4877 60.17578,-158.6426 45.587,-74.1547 62.30108,-145.271 50.14453,-213.3476 -1.21561,-20.666 7.59888,-43.458 26.44141,-68.3789 18.84261,-24.9209 33.73485,-43.4606 44.67578,-55.6172 h 118.52539 c 3.64697,19.4505 15.80264,49.2351 36.46875,89.3516 9.72519,111.84 19.45055,199.9747 29.17578,264.4043 9.72521,64.4295 3.64736,105.457 -18.23438,123.0839 -21.88177,17.627 -56.52707,31.9107 -103.9375,42.8516 -48.62615,8.5095 -75.37181,18.5392 -80.23437,30.0879 -4.86264,11.5488 3.03895,18.2351 23.70508,20.0586 20.66603,1.8238 103.33149,2.7344 247.99414,2.7344 20.66613,-19.4505 27.35248,-44.9791 20.05859,-76.586 -7.29396,-31.6069 -8.51111,-63.8219 -3.64844,-96.6445 4.86258,-27.9601 11.24474,-74.4588 19.14649,-139.4961 7.90173,-65.0375 -0.91073,-122.4767 -26.43945,-172.3184 L 753.40811,979.25195 C 780.15244,889.29362 771.03568,805.41499 726.05655,727.61328 735.78178,672.90896 757.35852,602.70355 790.78897,517 824.21942,431.29653 816.31781,378.41574 767.08389,358.35742 717.84994,338.29918 688.9782,304.56473 680.46866,257.1543 c 36.46953,-14.58787 62.91089,-31.91052 79.32226,-51.96875 16.41131,-20.05823 24.61719,-53.18409 24.61719,-99.37891 0,-47.410437 -22.79385,-78.410194 -68.38086,-92.998046 C 689.3422,4.2694048 661.82375,0 633.47256,0 Z m -10.89843,31.955078 c 17.62695,0 37.83739,2.128016 60.63086,6.382813 45.587,8.509518 68.3789,30.999153 68.3789,67.468749 0,38.90085 -12.15568,70.81153 -36.46875,95.73242 -16.89553,17.31791 -30.26817,25.97658 -40.11914,25.97656 -4.32477,0 -7.97047,-1.66799 -10.9375,-5.00585 -9.72521,-10.94093 -3.95166,-28.26553 17.32227,-51.97071 21.27393,-23.70525 25.22571,-44.9777 11.85351,-63.82031 -6.57996,-9.271766 -16.1035,-13.908203 -28.57031,-13.908203 -12.86895,0 -28.87394,4.938776 -48.01562,14.818363 -13.37215,-10.940846 -40.72446,-18.842443 -82.05664,-23.705082 3.64695,-21.88175 17.93068,-37.076419 42.85156,-45.585937 12.46044,-4.254795 27.50391,-6.382813 45.13086,-6.382813 z M 512.70889,105.80664 c 38.90092,0 71.11584,6.07784 96.64453,18.23438 0.64527,8.3855 2.83149,12.57812 6.55664,12.57812 3.29553,0 7.79578,-3.28168 13.50196,-9.84375 9.32002,-10.71798 18.81881,-16.07617 28.49609,-16.07617 2.94524,0 5.9064,0.49551 8.88477,1.48828 12.76433,4.25483 15.49903,15.49957 8.20508,33.73438 -7.2939,18.23472 -17.93019,34.03987 -31.91016,47.4121 -13.98004,13.37216 -14.58865,41.33111 -1.82422,83.87891 12.76426,42.54787 42.85314,74.45849 90.26367,95.73242 44.77647,20.09203 57.56425,50.21515 38.36524,90.36719 1.38953,-18.46052 -3.49661,-32.47617 -14.66016,-42.04492 -8.1692,-7.00219 -16.7581,-10.50195 -25.76758,-10.50196 -9.76021,0 -20.01541,4.10837 -30.76172,12.32618 -64.86395,88.17444 -117.47592,168.32131 -157.83593,240.4414 -4.39661,-20.08323 -10.13474,-42.79095 -17.2168,-68.12304 -15.80357,-56.52785 -31.30435,-102.41797 -46.5,-137.67188 -15.19559,-35.25391 -17.32169,-59.26293 -6.38086,-72.02734 10.94091,-12.76436 33.43046,-20.66595 67.46875,-23.70508 34.0382,-3.03913 49.23289,-20.36374 45.58594,-51.9707 -2.91755,-25.28555 -14.00388,-37.92774 -33.25977,-37.92774 -4.81398,0 -10.1375,0.79073 -15.97265,2.3711 -7.43691,2.01413 -13.76887,3.02148 -18.99415,3.02148 -15.27395,0 -21.09965,-8.60661 -17.47656,-25.81641 17.01918,-10.94093 22.79469,-18.53821 17.32422,-22.79297 -4.25484,-3.30925 -11.63687,-4.96289 -22.14258,-4.96289 -3.00156,0 -6.25768,0.13433 -9.76953,0.4043 -1.21565,-7.29373 -9.11729,-13.98033 -23.70508,-20.05859 10.94084,-30.39134 23.09848,-52.27237 36.47071,-65.64453 6.94655,-4.16798 14.48752,-6.25196 22.625,-6.25196 6.10305,0 12.54152,1.1712 19.31445,3.51563 15.80341,5.47045 30.9981,8.20703 45.58594,8.20703 v -7.29492 c -10.94083,0 -24.00943,-3.34315 -39.20508,-10.0293 -7.95963,-3.50225 -15.83411,-5.25195 -23.62695,-5.25195 -7.08445,0 -14.10026,1.44734 -21.04688,4.34179 4.86265,-7.2939 9.11669,-13.98035 12.76367,-20.05859 z m 143.4668,11.92188 c -2.78739,0 -5.93476,0.58502 -9.44141,1.7539 -9.11741,3.03916 -17.01902,10.33216 -23.70507,21.88086 -6.68615,11.54865 -8.20559,20.36314 -4.5586,26.44141 -8.50961,3.64696 -13.06791,8.20535 -13.67578,13.67578 -0.60793,5.47045 3.03952,9.11794 10.94141,10.94141 1.03069,0.23795 2.0909,0.35742 3.18359,0.35742 7.28467,0 15.94981,-5.28655 25.99219,-15.85742 11.54871,-12.15655 19.14602,-23.09705 22.79297,-32.82227 3.64697,-9.7252 3.34279,-17.02016 -0.91211,-21.88281 -2.61841,-2.99236 -6.15748,-4.48828 -10.61719,-4.48828 z m -1.39844,12.00195 c 3.46412,0 5.0387,2.05521 4.72266,6.16406 -0.60793,7.90177 -3.95115,15.49908 -10.0293,22.79297 -6.07825,7.29396 -11.54952,12.76321 -16.41211,16.41016 -1.53558,1.15168 -2.58659,1.72851 -3.15234,1.72851 -1.22574,0 -0.17473,-2.70285 3.15234,-8.10937 3.71849,-6.04245 4.5936,-9.06446 2.625,-9.06446 -0.60594,0 -1.48105,0.28549 -2.625,0.85743 -1.29667,0.6486 -2.33328,0.97265 -3.11133,0.97265 -2.13958,0 -2.3181,-2.45034 -0.53515,-7.35351 2.43129,-6.68609 6.07879,-13.06823 10.9414,-19.14649 6.41862,-3.50105 11.22618,-5.25195 14.42383,-5.25195 z m -132.29492,8.5332 c -7.48841,0 -14.39347,1.94587 -20.71484,5.83594 l -12.76367,12.76367 1.82421,9.11719 7.29297,-1.82227 c 7.01338,2.33783 14.29671,3.50586 21.84961,3.50586 12.08457,0 24.86048,-2.99183 38.32617,-8.97656 l 21.88086,3.64648 v -10.9414 h -20.05859 c -13.85846,-8.75272 -26.40411,-13.12891 -37.63672,-13.12891 z m -7.94922,7.65821 c -2.43122,3.64696 -1.82469,7.90306 1.82227,12.76562 -6.0783,-1.21563 -10.94094,-1.82422 -14.58789,-1.82422 1.21561,-4.86264 5.47172,-8.51017 12.76562,-10.9414 z m 18.23438,0 18.23437,9.11914 c -8.50951,2.43129 -15.80258,3.64648 -21.88086,3.64648 6.07825,-2.43129 7.29347,-6.68744 3.64649,-12.76562 z m 87.52734,31 c 4.86257,2.43127 5.46924,5.16592 1.82227,8.20507 -1.82348,1.51958 -3.34299,2.2793 -4.5586,2.2793 -1.21567,0 -2.12656,-0.75972 -2.73437,-2.2793 -1.21568,-3.03915 0.60805,-5.77378 5.4707,-8.20507 z m -122.42969,22.67968 c -0.20864,0 -0.42631,0.0373 -0.65429,0.11328 -1.82355,0.60794 -2.12772,2.12738 -0.91211,4.5586 1.21561,2.43129 0.30283,4.25502 -2.73633,5.4707 -0.75979,0.30397 -1.50087,0.45703 -2.22266,0.45703 -2.16538,0 -4.15894,-1.36825 -5.98242,-4.10351 -2.43135,-3.64696 -4.25509,-5.47071 -5.4707,-5.47071 -3.64697,0 -5.77501,0.60861 -6.38281,1.82422 -0.60794,1.21568 -0.30377,3.03934 0.9121,5.47071 0.91178,-0.30397 1.82462,-0.45704 2.73633,-0.45704 2.73519,0 5.46989,1.36833 8.20508,4.10352 2.43135,2.43135 4.86168,3.64648 7.29297,3.64648 1.21568,0 2.43283,-0.30417 3.64844,-0.91211 3.64697,-1.82355 5.1664,-4.86248 4.55859,-9.11718 -0.53195,-3.72289 -1.52967,-5.58399 -2.99219,-5.58399 z m -18.78125,29.10742 c 0.77799,0 1.65445,0.0604 2.62696,0.18164 4.86264,0.60795 10.9405,1.21648 18.23437,1.82422 7.29399,0.60793 10.33293,0.91211 9.11719,0.91211 l -31,1.82227 c -0.81045,0.40529 -1.48511,0.60742 -2.02539,0.60742 -1.08056,0 -1.6211,-0.80885 -1.6211,-2.42969 0,-1.94507 1.55588,-2.91797 4.66797,-2.91797 z m 28.1543,6.56446 c 0,2.43136 -2.73463,4.55933 -8.20508,6.38281 -5.47038,1.82341 -10.02877,3.34284 -13.67578,4.55859 -1.21568,0 -2.73518,-0.30417 -4.55859,-0.91211 -1.82355,-0.60794 -0.91259,-2.1275 2.73437,-4.55859 z m -47.41016,257.10937 52.88086,198.75977 c 1.13529,4.99523 1.78344,10.43645 1.94336,16.32226 -60.17956,29.65273 -103.98325,55.21128 -131.41015,76.67578 -27.96001,21.88167 -135.19367,68.10407 -172.87891,76.00586 -13.55029,2.8412 -27.01736,7.11371 -40.41016,12.70508 l -1.93945,-142.46484 h 32.12695 c -0.0885,-5.21061 -0.16655,-11.37968 -0.25586,-16.50781 6.72684,-1.26314 13.74939,-2.76367 21.06836,-4.50196 47.96299,16.24551 96.17168,24.36914 144.62696,24.36914 27.6888,0 55.4571,-2.65237 83.30664,-7.95703 17.01911,-8.50952 20.66662,-86.31226 10.9414,-233.40625 z m 286.92774,26.50781 c -33.3402,85.35709 -53.61254,150.67571 -60.81641,195.95704 L 598.871,721.9082 c 30.65159,-33.644 56.02639,-65.78072 76.12696,-96.41015 21.36475,-32.55571 45.28454,-68.09169 71.75781,-106.60743 z M 684.1171,765.90625 c 42.54777,40.11651 51.6646,111.23089 27.35156,213.3457 l 10.9414,198.75975 H 427.00577 L 538.23819,780.49414 Z" />
  <metadata
     id="metadata2">
    <rdf:RDF>
      <cc:Work
         rdf:about="">
        <dc:title>A210</dc:title>
        <dc:creator>
          <cc:Agent>
            <dc:title>S. J. P. THOMAS</dc:title>
          </cc:Agent>
        </dc:creator>
        <dc:description>Modified by S. Rosmorduc: use same shape for the branch as in the Hieroglyphica.</dc:description>
      </cc:Work>
    </rdf:RDF>
  </metadata>
</svg>
