<?xml version="1.0" encoding="UTF-8" standalone="no"?>
<svg
   xmlns:dc="http://purl.org/dc/elements/1.1/"
   xmlns:cc="http://web.resource.org/cc/"
   xmlns:rdf="http://www.w3.org/1999/02/22-rdf-syntax-ns#"
   xmlns:svg="http://www.w3.org/2000/svg"
   xmlns="http://www.w3.org/2000/svg"
   xmlns:sodipodi="http://sodipodi.sourceforge.net/DTD/sodipodi-0.dtd"
   xmlns:inkscape="http://www.inkscape.org/namespaces/inkscape"
   width="11.023405"
   height="17.983217"
   id="svg2223"
   sodipodi:version="0.32"
   inkscape:version="0.45"
   sodipodi:docname="A239A.svg"
   inkscape:output_extension="org.inkscape.output.svg.inkscape"
   sodipodi:docbase="C:\Program Files\JSesh\fontsST"
   sodipodi:modified="true">
  <metadata
     id="metadata2230">
    <rdf:RDF>
      <cc:Work
         rdf:about="">
        <dc:format>image/svg+xml</dc:format>
        <dc:type
           rdf:resource="http://purl.org/dc/dcmitype/StillImage" />
      </cc:Work>
    </rdf:RDF>
  </metadata>
  <defs
     id="defs2228" />
  <sodipodi:namedview
     inkscape:window-height="712"
     inkscape:window-width="1024"
     inkscape:pageshadow="2"
     inkscape:pageopacity="0.0"
     guidetolerance="10.0"
     gridtolerance="10.0"
     objecttolerance="10.0"
     borderopacity="1.0"
     bordercolor="#666666"
     pagecolor="#ffffff"
     id="base"
     inkscape:zoom="28.698861"
     inkscape:cx="5.5129708"
     inkscape:cy="8.9989"
     inkscape:window-x="-4"
     inkscape:window-y="-4"
     inkscape:current-layer="svg2223" />
  <path
     style="fill:#000000;stroke:none"
     d="M 8.90625,0 C 8.6846624,-0.010771666 8.4557254,-0.0087589993 8.21875,0.03125 C 7.7447987,0.11126733 7.4412855,0.51705534 7.28125,1.21875 C 7.1827667,1.3664747 7.0729146,1.5729207 6.9375,1.84375 C 6.875948,2.0037853 6.8697926,2.1065341 6.9375,2.125 C 7.0052073,2.1434653 7.0568185,2.1505687 7.09375,2.1875 C 7.044508,2.2244313 7.0127839,2.250474 7.03125,2.28125 C 7.0497153,2.312026 7.1070078,2.3626893 7.15625,2.375 C 7.16856,2.3626893 7.1306811,2.3631632 7.09375,2.40625 C 7.0568187,2.449336 7.0696025,2.4753787 7.125,2.5 C 7.1803967,2.5246207 7.2125949,2.5956461 7.21875,2.71875 C 7.2249053,2.8418547 7.2765168,2.92519 7.375,2.9375 C 7.4734833,2.9498107 7.6344725,2.9498106 7.84375,2.9375 L 7.90625,3.21875 C 7.3522813,3.157198 6.9450715,3.3304973 6.625,3.6875 C 5.984858,3.749052 5.1988499,3.9176185 4.3125,4.25 C 3.5246333,4.1145853 2.6865399,4.1013272 1.8125,4.1875 C 1.6278433,4.015154 1.4337087,3.8607932 1.1875,3.75 L 1.09375,3.75 C 1.3153373,3.5899647 1.4564393,3.4034067 1.46875,3.21875 C 1.702648,3.21875 1.8125001,3.1410953 1.8125,2.96875 C 1.8125,2.796404 1.7414753,2.7253795 1.59375,2.75 L 1.40625,2.78125 L 1.34375,2.71875 L 1.375,2.5 L 1.46875,2.5 C 1.4933707,2.5984833 1.5198873,2.6249999 1.59375,2.625 C 1.6429913,2.625 1.6941287,2.5539746 1.71875,2.40625 L 1.625,2.3125 C 1.5634473,2.2755687 1.4924226,2.25 1.40625,2.25 L 1.4375,1.96875 L 1.5625,1.96875 L 1.71875,2.09375 C 1.8295433,2.09375 1.875,2.029354 1.875,1.90625 C 1.7642067,1.7708353 1.6931814,1.71875 1.65625,1.71875 L 1.46875,1.71875 L 1.53125,1.4375 L 1.625,1.4375 L 1.78125,1.65625 C 1.8674227,1.6685607 1.9318186,1.6174233 1.96875,1.53125 C 1.9441293,1.4943187 1.8674234,1.4166647 1.78125,1.28125 C 1.7566293,1.219698 1.7111726,1.1875 1.625,1.1875 L 1.5625,1.1875 C 1.5625,0.830498 1.362684,0.65624997 0.96875,0.65625 C 0.57481667,0.65625 0.37499999,0.830498 0.375,1.1875 L 0.3125,1.1875 L 0.1875,0.96875 C 0.10132733,0.96875 0.036931333,1.0075773 0,1.09375 C 0.024620667,1.1183707 0.082387332,1.2149646 0.15625,1.375 C 0.18087067,1.424242 0.22632667,1.4374999 0.3125,1.4375 L 0.4375,1.4375 L 0.46875,1.71875 L 0.34375,1.71875 L 0.1875,1.5625 C 0.076706,1.5625 0.031249999,1.6458361 0.03125,1.78125 C 0.12973333,1.9043547 0.20075801,1.96875 0.25,1.96875 L 0.5,1.96875 L 0.5625,2.25 L 0.46875,2.25 C 0.44412933,2.1515167 0.38636267,2.0937501 0.3125,2.09375 C 0.263258,2.09375 0.22443134,2.1770853 0.1875,2.3125 L 0.28125,2.40625 C 0.330492,2.4554913 0.44602533,2.5000001 0.59375,2.5 L 0.625,2.71875 L 0.53125,2.78125 L 0.375,2.75 C 0.214964,2.7253793 0.12499999,2.796404 0.125,2.96875 C 0.125,3.1410953 0.25379134,3.21875 0.5,3.21875 C 0.51231067,3.4034067 0.62216267,3.5899646 0.84375,3.75 L 0.40625,3.75 C 0.283146,3.76231 0.21875,3.8778433 0.21875,4.0625 C 0.36647467,4.124052 0.43750001,4.1884478 0.4375,4.25 C 0.486742,4.6931753 0.62216267,4.9062498 0.84375,4.90625 L 0.8125,5.53125 C 0.91098333,5.6666647 0.99526662,5.6666645 1.09375,5.53125 L 1.09375,4.90625 C 1.2907167,4.90625 1.4460246,4.8541646 1.59375,4.71875 C 2.6155153,4.9895793 3.4337214,5.0606038 4,4.9375 C 4.8494193,4.9867413 5.6685725,4.84564 6.46875,4.5625 C 6.284094,5.079538 6.0909068,5.7945207 5.90625,6.65625 C 5.438454,7.1117353 4.8967706,7.7698989 4.28125,8.65625 C 4.0972905,8.7599363 3.9297681,8.8826824 3.78125,9 L 2.90625,8.3125 C 2.8659474,8.2790674 2.7957609,8.19658 2.71875,8.09375 C 2.672073,8.1128668 2.6592983,8.139748 2.625,8.15625 C 2.6145012,8.142315 2.567765,8.066827 2.5625,8.0625 C 2.5849687,7.9897017 2.5363097,7.927208 2.46875,7.875 C 2.3729486,7.8284311 2.2837433,7.863164 2.21875,7.9375 C 2.2019413,7.9599488 2.2234074,7.978404 2.21875,8 C 2.1823258,7.9968579 2.1298041,7.968681 2.09375,7.96875 C 2.085607,7.9297638 2.0753181,7.906519 2.03125,7.875 C 1.9386378,7.8304038 1.8440722,7.834814 1.78125,7.90625 C 1.7547605,7.9416272 1.7469615,7.998393 1.75,8.03125 C 1.7120017,8.0406847 1.6629102,8.051801 1.625,8.0625 C 1.6119473,8.0448744 1.6157839,8.01576 1.59375,8 C 1.5011373,7.955404 1.406572,7.959814 1.34375,8.03125 C 1.3144423,8.0703914 1.3056627,8.120194 1.3125,8.15625 C 1.2644954,8.1761734 1.2311546,8.194248 1.1875,8.21875 C 1.0948875,8.1741542 1.0056819,8.208888 0.9375,8.28125 C 0.90165491,8.3333183 0.9102739,8.359354 0.9375,8.40625 C 0.90561228,8.4355888 0.87314728,8.469702 0.84375,8.5 C 0.76385641,8.4717451 0.68294205,8.49623 0.625,8.5625 C 0.57871567,8.6243146 0.60677856,8.694535 0.65625,8.75 C 0.63486744,8.778097 0.61470356,8.783703 0.59375,8.8125 C 0.52592521,8.7977874 0.45714078,8.816795 0.40625,8.875 C 0.3548488,8.9436494 0.34646984,9.034594 0.40625,9.09375 C 0.38554288,9.1268949 0.36356056,9.153145 0.34375,9.1875 C 0.2788713,9.1759826 0.23863638,9.195729 0.1875,9.25 C 0.13531554,9.3196936 0.14648427,9.374191 0.21875,9.4375 C 0.20262434,9.480155 0.19557845,9.519022 0.1875,9.5625 C 0.14730138,9.5694406 0.096590983,9.588819 0.0625,9.625 C 0.0060555465,9.700384 0.035846297,9.775836 0.125,9.84375 C 0.14787624,9.8591117 0.16468958,9.869557 0.1875,9.875 C 0.19445382,9.917006 0.20822919,9.9574869 0.21875,10 C 0.18662713,10.009141 0.15250457,10.033558 0.125,10.0625 C 0.069573493,10.142757 0.10153527,10.21531 0.1875,10.28125 C 0.23230083,10.311335 0.2679518,10.320457 0.3125,10.3125 C 0.32841126,10.350073 0.35762656,10.401879 0.375,10.4375 C 0.36110038,10.447222 0.32538833,10.454186 0.3125,10.46875 C 0.26358636,10.54031 0.30179077,10.598206 0.375,10.65625 C 0.42586649,10.687736 0.45192313,10.704601 0.5,10.6875 C 0.51900575,10.715189 0.54311083,10.755784 0.5625,10.78125 C 0.5114153,10.855708 0.5151809,10.911631 0.59375,10.96875 C 0.65250146,11.008619 0.72314956,11.004458 0.78125,10.96875 C 0.78607589,10.972896 0.80765563,10.964804 0.8125,10.96875 C 0.81481954,10.966804 0.81018155,10.939566 0.8125,10.9375 C 0.86371975,10.850395 0.85663009,10.773895 0.78125,10.71875 C 0.72201857,10.691166 0.67335677,10.694274 0.625,10.71875 C 0.60040701,10.68759 0.58166211,10.682557 0.5625,10.65625 C 0.57137593,10.650141 0.55372276,10.632827 0.5625,10.625 C 0.61371944,10.537896 0.60981888,10.463368 0.53125,10.40625 C 0.48484197,10.384637 0.4456645,10.394382 0.40625,10.40625 C 0.39184018,10.374624 0.39109395,10.319847 0.375,10.28125 C 0.3903087,10.27251 0.3909713,10.263256 0.40625,10.25 C 0.46181166,10.157097 0.46313579,10.09429 0.375,10.03125 C 0.33641149,10.012669 0.28397021,9.99878 0.25,10 C 0.23732471,9.9579055 0.22626606,9.912082 0.21875,9.875 C 0.26564887,9.8765958 0.29713026,9.852947 0.34375,9.8125 C 0.39931153,9.7195957 0.40063566,9.65679 0.3125,9.59375 C 0.28489438,9.5804579 0.24418499,9.565402 0.21875,9.5625 C 0.22662338,9.5331113 0.2692413,9.500735 0.28125,9.46875 C 0.35196417,9.5029603 0.39866671,9.498306 0.46875,9.4375 C 0.52431136,9.344597 0.52563562,9.28179 0.4375,9.21875 C 0.43051038,9.2153826 0.41310048,9.190199 0.40625,9.1875 C 0.42448179,9.1536987 0.42056358,9.123253 0.4375,9.09375 C 0.52019655,9.1410687 0.61555011,9.12852 0.6875,9.0625 C 0.74523248,8.966698 0.71313563,8.906791 0.625,8.84375 C 0.64106829,8.8226898 0.66928891,8.803794 0.6875,8.78125 C 0.76863186,8.8319112 0.86313019,8.819119 0.9375,8.75 C 0.98793259,8.6656742 0.9742102,8.590973 0.90625,8.53125 C 0.93108701,8.505778 0.9452269,8.490833 0.96875,8.46875 C 0.97643771,8.4760377 0.9906737,8.492846 1,8.5 C 1.0807399,8.5542187 1.1700802,8.538089 1.25,8.46875 C 1.2949392,8.3936078 1.2678165,8.336856 1.21875,8.28125 C 1.2545217,8.2617562 1.3009367,8.23822 1.34375,8.21875 C 1.3565201,8.2399996 1.3800412,8.261146 1.40625,8.28125 C 1.4901788,8.3374434 1.5482695,8.321314 1.625,8.25 C 1.6580919,8.1946678 1.6741312,8.13849 1.65625,8.09375 C 1.6935298,8.0830641 1.7140906,8.070242 1.75,8.0625 C 1.7624409,8.0867618 1.7827916,8.102211 1.8125,8.125 C 1.8964291,8.1811925 1.9857694,8.196314 2.0625,8.125 C 2.0790616,8.0973075 2.089956,8.056288 2.09375,8.03125 C 2.1361829,8.0321049 2.1804802,8.057644 2.21875,8.0625 C 2.2288612,8.0953099 2.2409594,8.125558 2.28125,8.15625 C 2.3542227,8.2014176 2.4310261,8.202303 2.5,8.15625 C 2.5028796,8.1594887 2.515587,8.172781 2.53125,8.1875 C 2.5195108,8.1977814 2.5066022,8.209931 2.5,8.21875 C 2.4782906,8.2477432 2.5074063,8.292676 2.5625,8.34375 L 2.78125,8.46875 L 2.3125,9.0625 L 2.125,8.9375 C 2.0547097,8.9067196 1.9926304,8.905607 1.96875,8.9375 C 1.9607898,8.9481309 1.9432762,8.980152 1.9375,9 C 1.8998893,8.9902436 1.8497083,8.972298 1.8125,8.96875 C 1.8043566,8.9297637 1.7940679,8.87527 1.75,8.84375 C 1.6573874,8.7991548 1.564993,8.831915 1.5,8.90625 C 1.4717778,8.9439433 1.46137,8.96467 1.46875,9 C 1.4478508,9.0109679 1.4260566,9.016806 1.40625,9.03125 C 1.3892382,9.0436556 1.3626143,9.078566 1.34375,9.09375 C 1.2675951,9.0701214 1.2145454,9.094381 1.15625,9.15625 C 1.1213989,9.2068739 1.1002294,9.235516 1.125,9.28125 C 1.1223152,9.2838808 1.1277058,9.309838 1.125,9.3125 C 1.0818136,9.3549855 1.0625054,9.392105 1.03125,9.4375 C 0.97207388,9.4305012 0.91842122,9.450625 0.875,9.5 C 0.81810867,9.57598 0.82393702,9.652539 0.90625,9.71875 C 0.89690322,9.7723855 0.8726579,9.822364 0.875,9.875 C 0.84961531,9.8849456 0.83443011,9.912886 0.8125,9.9375 C 0.76141559,10.011958 0.76836975,10.069855 0.84375,10.125 C 0.88093102,10.150136 0.9320623,10.160061 0.96875,10.15625 C 0.98082299,10.186417 0.98591942,10.220852 1,10.25 C 0.98384474,10.25989 0.9833701,10.264841 0.96875,10.28125 C 0.91447663,10.353734 0.9236017,10.408731 1,10.46875 C 1.0550082,10.502798 1.1012068,10.525598 1.15625,10.5 C 1.1707465,10.518457 1.1713162,10.545118 1.1875,10.5625 C 1.1332266,10.634984 1.1714311,10.724131 1.25,10.78125 C 1.3134518,10.824307 1.3705479,10.795831 1.4375,10.75 L 1.5625,10.8125 C 1.5252893,10.895491 1.5637117,10.939348 1.65625,10.96875 C 1.7485593,10.998081 1.8229235,10.984013 1.84375,10.9375 C 1.9048788,10.92442 1.8936554,10.956387 1.875,11 C 1.8814503,11.097342 1.956753,11.149873 2.03125,11.1875 C 2.1057473,11.225125 2.2967216,11.274212 2.625,11.34375 C 2.9532784,11.413288 3.1698365,11.562231 3.28125,11.75 C 3.3926631,11.937771 3.3876259,12.07668 3.28125,12.21875 C 3.1748741,12.360819 3.0142359,12.431655 2.78125,12.40625 C 2.5482642,12.380845 2.316509,12.252199 2.125,12 C 1.9334907,11.747801 1.8168989,11.579023 1.75,11.53125 C 1.6831013,11.483476 1.5998007,11.472669 1.5,11.5 C 1.4622111,11.531771 1.4465263,11.525255 1.4375,11.46875 C 1.5259681,11.400459 1.5300867,11.348918 1.46875,11.28125 C 1.4074134,11.213582 1.3123339,11.183002 1.1875,11.25 L 1.1875,11.28125 C 1.0974568,11.365809 1.0515856,11.468476 1.09375,11.53125 C 1.1400923,11.600245 1.2287527,11.578877 1.34375,11.53125 C 1.3852056,11.55691 1.3684045,11.6002 1.3125,11.625 C 1.1960799,11.705691 1.2941514,11.955609 1.59375,12.40625 C 1.8933484,12.856892 2.2151197,13.146848 2.5625,13.28125 C 2.9098799,13.415651 3.200084,13.453256 3.46875,13.34375 C 3.7374163,13.234245 3.9694144,13.043242 4.15625,12.78125 C 4.3558412,12.527152 4.4864445,12.267413 4.5,12 C 4.5135556,11.732587 4.3586347,11.463328 4.09375,11.21875 C 3.8288654,10.974172 3.4147156,10.806969 2.84375,10.71875 C 2.2727844,10.630531 1.9773872,10.653186 1.9375,10.78125 C 1.9326181,10.837633 1.9164555,10.86941 1.875,10.84375 C 1.8701804,10.794092 1.8079349,10.764894 1.71875,10.75 C 1.6416271,10.737121 1.6290581,10.732661 1.59375,10.78125 L 1.46875,10.71875 C 1.5060574,10.642203 1.479319,10.58437 1.40625,10.53125 C 1.3439654,10.502245 1.2984662,10.501581 1.25,10.53125 C 1.2345654,10.515074 1.2306428,10.487506 1.21875,10.46875 C 1.2699694,10.381645 1.2348189,10.307119 1.15625,10.25 C 1.1037357,10.225544 1.0739413,10.201494 1.03125,10.21875 C 1.0164651,10.188688 1.0118146,10.155933 1,10.125 C 1.0262977,10.116416 1.0364577,10.11732 1.0625,10.09375 C 1.1115484,10.009546 1.1098189,9.932119 1.03125,9.875 C 0.99491745,9.8580805 0.9691307,9.871953 0.9375,9.875 C 0.93634012,9.8307368 0.9311959,9.764302 0.9375,9.71875 C 1.006431,9.7497896 1.0879189,9.746786 1.15625,9.6875 C 1.2086227,9.5926236 1.1786969,9.529816 1.09375,9.46875 C 1.0761396,9.4601889 1.0789962,9.442073 1.0625,9.4375 C 1.0732001,9.424287 1.0816818,9.417435 1.09375,9.40625 C 1.1201811,9.3817528 1.1328583,9.366037 1.15625,9.34375 C 1.1673479,9.3562582 1.1716977,9.362879 1.1875,9.375 C 1.26824,9.4292204 1.3575806,9.413089 1.4375,9.34375 C 1.4930613,9.2508465 1.4631356,9.18804 1.375,9.125 C 1.3865117,9.1146237 1.4257084,9.104055 1.4375,9.09375 C 1.4572092,9.0765269 1.4735715,9.043749 1.5,9.03125 C 1.5123744,9.0566966 1.5309797,9.100822 1.5625,9.125 C 1.6464287,9.1811932 1.7357694,9.165063 1.8125,9.09375 C 1.8333356,9.0589111 1.8118717,9.03064 1.8125,9 C 1.8278641,9.0017134 1.9265183,9.027813 1.9375,9.03125 C 1.9313687,9.067276 1.9395892,9.098961 1.9375,9.15625 C 2.0687844,9.1865951 2.1385139,9.228166 2.1875,9.25 L 3.15625,9.71875 C 3.0838094,9.8412184 3.014869,9.961158 2.96875,10.09375 C 3.091854,10.192234 3.2395854,10.192234 3.375,10.09375 C 3.7073813,10.389201 3.9782226,10.415717 4.1875,10.21875 L 4.40625,10.34375 C 4.4088362,10.502348 4.5006441,10.644375 4.6875,10.78125 C 5.0256565,10.977832 5.3427312,10.947953 5.59375,10.6875 C 5.830382,10.371469 5.7783049,10.09289 5.4375,9.84375 C 5.2289347,9.7358691 5.0230648,9.722517 4.84375,9.78125 L 4.53125,9.53125 C 4.5512837,9.4688174 4.5825817,9.4023831 4.59375,9.34375 C 5.76324,8.371226 6.4214042,7.6363561 6.59375,7.15625 C 6.950752,6.7376953 7.1761376,6.09279 7.25,5.21875 C 7.4469667,5.674236 7.53125,6.5577854 7.53125,7.875 L 6.625,12.46875 C 6.280308,14.413797 6.0350355,15.632583 5.875,16.125 C 5.690344,16.617416 5.4715882,16.901043 5.25,16.96875 C 5.0284127,17.036459 4.6666587,17.172353 4.125,17.40625 C 3.767998,17.480113 3.5426126,17.589965 3.46875,17.75 C 3.3948873,17.910035 3.5369372,17.98106 3.90625,17.96875 C 4.386356,17.96875 4.7410066,17.955491 4.96875,17.90625 C 5.1964927,17.857009 5.5118429,17.863638 5.875,17.9375 C 6.2381573,18.011363 6.3873099,17.882571 6.375,17.5625 C 6.436552,16.959289 6.7002905,16.230574 7.125,15.375 C 7.5497093,14.519425 7.7305859,13.887304 7.6875,13.46875 C 7.6444133,13.050195 7.7736794,12.727268 8.09375,12.46875 L 9.46875,12.46875 C 9.7642,14.413797 9.9384477,15.664781 10,16.21875 C 10.024621,16.686546 9.959751,16.996214 9.78125,17.15625 C 9.6027487,17.316285 9.2480976,17.419509 8.71875,17.46875 C 8.4109893,17.641097 8.2372149,17.782673 8.21875,17.875 C 8.2002847,17.967328 8.3286024,17.98106 8.5625,17.96875 C 8.7840873,17.96875 9.0549282,17.98106 9.375,17.96875 C 9.6950707,17.956439 10.08192,17.956438 10.53125,17.96875 C 10.980581,17.98106 11.116475,17.826699 10.96875,17.53125 C 10.821025,16.632589 10.820551,15.767979 10.9375,14.90625 C 11.054449,14.04452 10.95833,13.231996 10.6875,12.46875 L 10.28125,9.65625 C 10.478217,8.9422453 10.440338,8.2779258 10.21875,7.65625 C 9.997162,7.034574 9.958335,6.2547213 10.09375,5.34375 C 10.229165,4.4327787 10.144882,3.8461133 9.8125,3.59375 C 9.4801193,3.341386 9.2869316,3.0246146 9.25,2.59375 C 9.483898,2.4952667 9.6969731,2.3210186 9.90625,2.0625 C 10.115527,1.8039813 10.212121,1.4308653 10.1875,1 C 10.17519,0.519894 9.9748989,0.216854 9.5625,0.09375 C 9.3563007,0.032197667 9.1278376,0.010771666 8.90625,0 z M 0.8125,10.96875 C 0.82703312,10.980588 0.82926205,11.019783 0.84375,11.03125 C 0.7948363,11.102809 0.79860185,11.158732 0.875,11.21875 C 0.93796526,11.257724 1.0088399,11.237157 1.0625,11.1875 L 1.09375,11.1875 C 1.1544687,11.11264 1.1378801,11.023895 1.0625,10.96875 C 0.98846398,10.934271 0.93377175,10.950837 0.875,11 C 0.85413573,10.981353 0.8399433,10.9927 0.8125,10.96875 z M 8.6875,0.28125 C 8.8552295,0.2858665 9.0499552,0.29758567 9.25,0.34375 C 9.6500887,0.436078 9.8626898,0.69318733 9.875,1.0625 C 9.8996207,1.4318127 9.7836129,1.7542653 9.53125,2.03125 C 9.2788867,2.308234 9.0861731,2.3920433 9,2.28125 C 8.901516,2.1581453 8.978223,1.9777426 9.1875,1.75 C 9.3967773,1.5222573 9.429449,1.3030273 9.3125,1.09375 C 9.1955513,0.88447267 8.9507524,0.86553328 8.59375,1.0625 C 8.4583353,0.939396 8.1742352,0.86174132 7.71875,0.8125 C 7.7926127,0.56629133 7.9791707,0.41761267 8.25,0.34375 C 8.3854143,0.30681867 8.5197705,0.2766335 8.6875,0.28125 z M 0.96875,0.90625 C 1.1657173,0.90625 1.28125,1.002844 1.28125,1.1875 L 0.6875,1.1875 C 0.6875,1.002844 0.77178335,0.90624998 0.96875,0.90625 z M 7.59375,1 C 7.9753727,1 8.3162918,1.1089041 8.5625,1.28125 C 8.55019,1.4166647 8.6018008,1.4166647 8.71875,1.28125 C 8.7245974,1.2744793 8.7441526,1.2875591 8.75,1.28125 C 8.8611007,1.1613773 8.951398,1.1094701 9.0625,1.15625 C 9.1794493,1.205492 9.198863,1.2902494 9.125,1.46875 C 9.051138,1.6472513 8.9417601,1.814396 8.8125,1.9375 C 8.6832407,2.060604 8.6699821,2.1893953 8.75,2.3125 C 8.8300173,2.435604 8.8816298,2.5265166 8.90625,2.625 C 9.0539753,3.2774527 9.2537914,3.7154387 9.5,3.90625 C 9.746208,4.0970613 9.8044491,4.5743486 9.6875,5.34375 C 9.5705507,6.1131513 9.5767059,6.7907286 9.6875,7.40625 L 7.96875,7.8125 C 7.9195087,6.3844913 7.7717773,5.4299165 7.5625,4.9375 C 7.3532227,4.4450827 7.4431871,4.0265106 7.8125,3.71875 C 8.157192,3.70644 8.2930855,3.5445027 8.25,3.1875 C 8.2069133,2.830498 8.0643898,2.6822928 7.78125,2.75 C 7.49811,2.8177073 7.3693187,2.7338981 7.40625,2.5 C 7.578596,2.389206 7.6491466,2.293086 7.59375,2.25 C 7.5383527,2.2069133 7.4289749,2.1875 7.28125,2.1875 C 7.2888536,2.1342757 7.2409482,2.1016357 7.1875,2.0625 C 7.154413,2.0382731 7.1189832,2.0188278 7.0625,2 C 7.185604,1.6922393 7.3267061,1.4479147 7.4375,1.3125 C 7.5729147,1.250948 7.7021798,1.250948 7.84375,1.3125 C 7.98532,1.374052 8.1212146,1.4251893 8.28125,1.4375 L 8.28125,1.34375 C 8.1827667,1.34375 8.0478202,1.3177073 7.90625,1.25 C 7.7646807,1.1822927 7.6164754,1.169508 7.46875,1.21875 C 7.517992,1.1325767 7.5568187,1.049242 7.59375,1 z M 7.1875,2.0625 C 7.2121213,2.0378793 7.2443189,2.0194141 7.28125,2.0625 C 7.3181807,2.1055867 7.3631634,2.1434654 7.40625,2.125 C 7.4493367,2.106534 7.4749054,2.0492413 7.46875,2 C 7.4625947,1.950758 7.4559654,1.9313446 7.4375,1.9375 C 7.419034,1.9436553 7.4000947,1.9692239 7.40625,2 C 7.4124053,2.030776 7.3996208,2.0501892 7.375,2.0625 C 7.3503787,2.07481 7.3371208,2.0681812 7.3125,2.03125 C 7.2878793,1.9943187 7.2623108,1.96875 7.25,1.96875 C 7.2253793,1.96875 7.1998109,1.9876894 7.1875,2 C 7.17519,2.0123107 7.1751902,2.0378792 7.1875,2.0625 z M 8.75,1.28125 C 8.7099912,1.3166423 8.6901034,1.3508533 8.65625,1.40625 C 8.588542,1.517044 8.5691284,1.625948 8.59375,1.6875 C 8.5321973,1.7244313 8.4810598,1.750948 8.46875,1.8125 C 8.4564393,1.8740527 8.4947923,1.9441293 8.5625,1.96875 C 8.6302067,1.9933707 8.7268007,1.9417593 8.84375,1.8125 C 8.9606993,1.6832407 9.0317245,1.5672333 9.0625,1.46875 C 9.0932767,1.3702667 9.0871211,1.299242 9.0625,1.25 C 9.0378787,1.2007587 8.998578,1.187974 8.90625,1.21875 C 8.8600857,1.234138 8.7900088,1.2458577 8.75,1.28125 z M 8.9375,1.3125 C 8.969815,1.3140388 8.9718276,1.3349913 8.96875,1.375 C 8.9625953,1.455018 8.9365538,1.5198873 8.875,1.59375 C 8.813448,1.6676127 8.767991,1.719224 8.71875,1.75 C 8.724659,1.7372587 8.7039773,1.7096588 8.71875,1.6875 C 8.7679913,1.6136373 8.767991,1.6003794 8.71875,1.625 C 8.669508,1.6496213 8.6628784,1.6363627 8.6875,1.5625 C 8.7121207,1.4886373 8.7320082,1.424242 8.78125,1.375 C 8.8489577,1.338069 8.905185,1.3109612 8.9375,1.3125 z M 7.71875,1.375 C 7.6669846,1.366075 7.6382683,1.3955042 7.59375,1.40625 C 7.5691287,1.455492 7.5880686,1.513258 7.625,1.5625 C 7.5757587,1.5501893 7.536932,1.5246207 7.5,1.5 C 7.5246213,1.4630687 7.544508,1.4308713 7.59375,1.40625 C 7.5615126,1.4140315 7.5284372,1.3881536 7.5,1.40625 L 7.375,1.5 L 7.375,1.59375 L 7.46875,1.59375 C 7.6252844,1.6831982 7.7817499,1.6456906 7.96875,1.5625 C 7.894888,1.5748107 7.8115525,1.5625 7.75,1.5625 C 7.799242,1.5255687 7.8181812,1.4867419 7.78125,1.4375 L 7.96875,1.5625 C 7.9876389,1.5540969 8.0120503,1.5726645 8.03125,1.5625 L 8.25,1.59375 L 8.25,1.5 L 8.03125,1.5 C 7.9204563,1.4261373 7.8080007,1.390388 7.71875,1.375 z M 0.65625,1.4375 L 1.28125,1.4375 L 1.25,1.71875 L 0.71875,1.71875 L 0.65625,1.4375 z M 8.5625,1.78125 C 8.6486727,1.8181813 8.6680862,1.844224 8.625,1.875 C 8.5819133,1.9057767 8.5497156,1.9057767 8.53125,1.875 C 8.512784,1.844224 8.5255684,1.8181814 8.5625,1.78125 z M 0.75,1.96875 L 1.1875,1.96875 L 1.15625,2.25 L 0.78125,2.25 L 0.75,1.96875 z M 7.28125,2.25 C 7.3304913,2.2623107 7.375948,2.28125 7.4375,2.28125 L 7.25,2.3125 C 7.2253787,2.3001893 7.2125949,2.29356 7.21875,2.28125 C 7.2249053,2.2689393 7.2443189,2.25 7.28125,2.25 z M 7.5,2.3125 C 7.4753793,2.3248107 7.4744314,2.3503795 7.4375,2.375 C 7.4005687,2.3996213 7.3304915,2.4062499 7.28125,2.40625 C 7.2843276,2.3970172 7.2689398,2.3873103 7.28125,2.375 L 7.5,2.3125 z M 0.8125,2.5 L 1.125,2.5 L 1.09375,2.625 L 0.84375,2.625 L 0.8125,2.5 z M 9.75,7.875 C 10.094691,8.355106 10.12026,8.9422452 9.8125,9.65625 L 10.21875,12.0625 L 7.1875,12.0625 L 7.9375,8.3125 L 9.75,7.875 z M 2.9375,8.7564451 L 3.571926,9.1696416 C 3.4094823,9.311686 3.4143187,9.3258259 3.3005944,9.4866084 L 2.6770803,9.103176 L 2.9375,8.7564451 z M 4.426588,9.7971212 L 4.5803584,9.9027768 L 4.4568444,10.071926 L 4.3174592,9.9588316 C 4.4066594,9.8141438 4.3720414,9.9269574 4.426588,9.7971212 z "
     id="path2216"
     sodipodi:nodetypes="cscsssssssssccccccccscccccsccccccccccccssccscccssccccccccccsccccccsccccscccccccccccssssssssssssssssssssssssssssssssssssssssssssssssssssssssssssssssssssssssssssssssssssccccssssssssssssssssssssssssccsssssssssssssccsssssssssssssccsssssssssssssssssssssssssccccccsccccccccccscsssscsscccscsssscsccssscsssccssccssccssssssccscccccccsssssssssccscsscsssccsccscccsssssssssccssssssssccsssssssccssssccccsscccccccccccccsscccccccccsccssccccccccccccccccccccccc" />
  <path
     style="fill:#000000;fill-rule:evenodd;stroke:#000000;stroke-width:0.01;stroke-linecap:butt;stroke-linejoin:miter;stroke-opacity:1;stroke-miterlimit:4;stroke-dasharray:none;fill-opacity:1"
     d="M 1.1835938,11.326967 L 1.015625,11.182436 L 1.0546875,11.155092 L 1.2226563,11.307436 L 1.1835938,11.326967 z "
     id="path2280" />
  <path
     style="fill:#000000;fill-opacity:1;fill-rule:evenodd;stroke:#000000;stroke-width:0.01;stroke-linecap:butt;stroke-linejoin:miter;stroke-miterlimit:4;stroke-dasharray:none;stroke-opacity:1"
     d="M 0.89843755,11.073061 L 0.73046875,10.92853 L 0.76953125,10.901186 L 0.93750005,11.05353 L 0.89843755,11.073061 z "
     id="path4221" />
  <path
     style="fill:#000000;fill-opacity:1;fill-rule:evenodd;stroke:#000000;stroke-width:0.01;stroke-linecap:butt;stroke-linejoin:miter;stroke-miterlimit:4;stroke-dasharray:none;stroke-opacity:1"
     d="M 0.87919416,9.8962587 L 0.88342783,9.6747077 L 0.92939966,9.6873634 L 0.91914731,9.9138961 L 0.87919416,9.8962587 z "
     id="path4223" />
</svg>
