<?xml version="1.0" encoding="UTF-8" standalone="no"?>
<svg
   xmlns:dc="http://purl.org/dc/elements/1.1/"
   xmlns:cc="http://web.resource.org/cc/"
   xmlns:rdf="http://www.w3.org/1999/02/22-rdf-syntax-ns#"
   xmlns:svg="http://www.w3.org/2000/svg"
   xmlns="http://www.w3.org/2000/svg"
   xmlns:sodipodi="http://sodipodi.sourceforge.net/DTD/sodipodi-0.dtd"
   xmlns:inkscape="http://www.inkscape.org/namespaces/inkscape"
   width="20.464031"
   height="17.983217"
   id="svg2214"
   sodipodi:version="0.32"
   inkscape:version="0.45"
   sodipodi:docname="A247.svg"
   inkscape:output_extension="org.inkscape.output.svg.inkscape"
   sodipodi:docbase="C:\Program Files\JSesh\fontsST"
   sodipodi:modified="true">
  <metadata
     id="metadata2221">
    <rdf:RDF>
      <cc:Work
         rdf:about="">
        <dc:format>image/svg+xml</dc:format>
        <dc:type
           rdf:resource="http://purl.org/dc/dcmitype/StillImage" />
      </cc:Work>
    </rdf:RDF>
  </metadata>
  <defs
     id="defs2219" />
  <sodipodi:namedview
     inkscape:window-height="480"
     inkscape:window-width="640"
     inkscape:pageshadow="2"
     inkscape:pageopacity="0.0"
     guidetolerance="10.0"
     gridtolerance="10.0"
     objecttolerance="10.0"
     borderopacity="1.0"
     bordercolor="#666666"
     pagecolor="#ffffff"
     id="base"
     showguides="true"
     inkscape:guide-bbox="true">
    <sodipodi:guide
       orientation="horizontal"
       position="1.7033442"
       id="guide2224" />
  </sodipodi:namedview>
  <path
     style="fill:#000000; stroke:none"
     d="M 10.84375,0 C 10.632191,-0.010006167 10.407636,0.019616333 10.1875,0.0625 C 9.7472293,0.14826733 9.4695423,0.49604133 9.34375,1.125 C 9.2408293,1.2507913 9.1456056,1.4077234 9.03125,1.625 C 8.9740727,1.7736633 8.9626372,1.8578467 9.03125,1.875 C 9.099864,1.8921533 9.1615716,1.9344427 9.21875,1.96875 C 9.1501367,2.0030567 9.1390966,2.0339113 9.15625,2.0625 C 9.1734033,2.0910893 9.2042578,2.0937501 9.25,2.09375 C 9.3300493,2.082314 9.3186134,2.0906927 9.25,2.125 C 9.181386,2.1593067 9.1985395,2.2015966 9.25,2.21875 C 9.30146,2.2359033 9.3265963,2.3059907 9.34375,2.4375 C 9.3609033,2.56901 9.4168933,2.6192826 9.53125,2.625 C 9.645606,2.630718 9.8254091,2.6478714 10.03125,2.625 C 10.111299,2.7393567 10.066348,2.8178221 9.90625,2.875 C 9.025708,2.875 8.5206065,3.0349886 8.40625,3.34375 C 7.9030827,3.824046 7.3896027,4.4327492 6.875,5.1875 C 6.3718333,5.0388367 5.9314969,4.8956062 5.53125,4.78125 C 5.131004,4.666894 4.7576972,4.495866 4.4375,4.25 C 4.1173027,4.0041347 3.9519927,3.8666213 3.90625,3.84375 C 3.746152,3.249098 3.3953206,2.8087613 2.875,2.5 C 2.3546793,2.191238 1.8552953,2.0819186 1.375,2.15625 C 0.894704,2.230582 0.52977666,2.334184 0.3125,2.5 C 0.095223333,2.6658167 0,2.9183673 0,3.25 C 0,3.5816327 0.15160935,3.7976114 0.4375,3.90625 C 0.72339,4.014888 1.0319313,3.9558407 1.375,3.75 C 1.718068,3.5441587 2.301636,3.5807307 3.125,3.84375 C 3.136436,3.9809773 3.186708,4.0678219 3.3125,4.125 C 3.2781927,4.6396027 3.3231433,4.9260648 3.4375,4.9375 L 3.46875,4.9375 C 3.4573147,11.684512 4.5429265,15.362662 6.75,15.96875 C 7.5268414,16.182079 8.222953,16.243528 9.0153788,16.284723 C 7.9873591,16.61036 7.0472165,17.064092 6,17.5625 L 6.1875,17.96875 C 7.6970013,17.23687 8.6927116,16.790816 9.21875,16.625 C 9.3574327,16.581285 9.8234176,16.412502 10.03125,16.34375 C 10.038581,16.346178 10.055253,16.341352 10.0625,16.34375 C 10.272887,16.413367 10.735041,16.580883 10.875,16.625 C 11.401038,16.790817 12.416563,17.236871 13.9375,17.96875 L 14.09375,17.5625 C 12.9926,17.038423 12.078595,16.614301 10.99867,16.28125 C 11.89699,16.188122 12.64471,15.995679 13.5625,15.6875 C 15.895365,14.904161 17.0625,11.330009 17.0625,4.9375 C 17.176855,4.9375 17.221807,4.6510379 17.1875,4.125 C 17.313292,4.0830692 17.352485,4.0034122 17.34375,3.875 L 17.34375,3.84375 C 18.167114,3.5807307 18.750682,3.5441587 19.09375,3.75 C 19.436818,3.9558407 19.74536,4.0148881 20.03125,3.90625 C 20.317141,3.7976113 20.46875,3.5816326 20.46875,3.25 C 20.46875,2.9183673 20.342277,2.6658167 20.125,2.5 C 19.907724,2.334184 19.574046,2.2305819 19.09375,2.15625 C 18.613454,2.0819187 18.11407,2.191238 17.59375,2.5 C 17.073429,2.8087613 16.722599,3.249098 16.5625,3.84375 C 16.505323,3.8894927 16.328576,4.0468198 16.03125,4.28125 C 15.733925,4.51568 15.431101,4.6668942 15.09375,4.78125 C 14.756399,4.895606 14.335481,5.0586514 13.84375,5.21875 C 13.329147,4.4639993 12.840803,3.770716 12.40625,3.1875 C 12.246151,2.9702233 12.016076,2.8750001 11.71875,2.875 C 11.421424,2.875 11.2363,2.661682 11.15625,2.25 C 11.476447,2.1127727 11.732055,1.958502 11.875,1.78125 C 12.017945,1.603998 12.0625,1.3064967 12.0625,0.90625 C 12.0625,0.494568 11.874714,0.219542 11.46875,0.09375 C 11.265768,0.030854 11.055309,0.010006167 10.84375,0 z M 10.65625,0.28125 C 10.810631,0.28125 10.987377,0.27533433 11.1875,0.3125 C 11.587746,0.38683133 11.78125,0.60586731 11.78125,0.9375 C 11.78125,1.2691327 11.680309,1.5327233 11.46875,1.75 C 11.257191,1.9672767 11.091485,2.04042 11,1.9375 C 10.919951,1.8460147 10.97328,1.6745907 11.15625,1.46875 C 11.33922,1.2629087 11.370074,1.103316 11.25,0.9375 C 11.129926,0.77168333 10.913947,0.76596597 10.59375,0.9375 C 10.467959,0.83457933 10.229505,0.75305665 9.875,0.71875 C 9.9093067,0.52434467 10.032723,0.38683133 10.25,0.3125 C 10.358638,0.27533433 10.501869,0.28125 10.65625,0.28125 z M 9.6875,0.9375 C 10.042004,0.92606467 10.313973,0.979394 10.53125,1.09375 C 10.542686,1.2309773 10.61583,1.2195414 10.71875,1.09375 C 10.725026,1.0860798 10.743661,1.1008037 10.75,1.09375 C 10.847627,0.9851225 10.918497,0.93116585 11.03125,0.96875 C 11.151324,1.0087747 11.193614,1.1268693 11.125,1.28125 C 11.056386,1.4356307 10.963824,1.5674261 10.84375,1.6875 C 10.723676,1.807574 10.7012,1.9085153 10.78125,2 C 10.861299,2.0914853 10.866621,2.1333793 10.84375,2.15625 C 11.049591,2.750902 11.262909,3.1383047 11.46875,3.28125 C 11.674591,3.4241953 11.697067,3.8534918 11.53125,4.5625 C 11.365434,5.271508 11.301065,5.8070682 11.3125,6.21875 L 9.9375,6.46875 C 9.8803227,5.885534 9.7710027,5.3888112 9.59375,5 C 9.416498,4.6111893 9.2732671,4.297326 9.1875,4 C 9.1017327,3.702674 9.1524015,3.4695413 9.3125,3.34375 C 9.4725993,3.217958 9.6630452,3.1421534 9.9375,3.125 C 10.211955,3.1078467 10.346807,2.9619546 10.3125,2.6875 C 10.278193,2.4130453 10.132302,2.3376366 9.875,2.40625 C 9.6176987,2.474864 9.4969433,2.381906 9.53125,2.1875 C 9.6913487,2.08458 9.7389605,2.0343073 9.6875,2 C 9.6766026,1.9927351 9.6397436,2.0057265 9.625,2 C 9.5701212,1.9786848 9.5144176,1.9375 9.40625,1.9375 C 9.394814,1.880322 9.3445417,1.8269927 9.21875,1.78125 C 9.32167,1.5067953 9.4168933,1.333106 9.53125,1.21875 C 9.6177897,1.1754802 9.7161369,1.1751037 9.8125,1.1875 C 9.8434739,1.1914845 9.8742612,1.1777643 9.90625,1.1875 C 10.03776,1.2275247 10.155458,1.2385647 10.28125,1.25 L 10.28125,1.1875 C 10.201201,1.1875 10.105977,1.150928 9.96875,1.09375 C 9.8315227,1.0365713 9.6997275,1.0365714 9.5625,1.09375 C 9.6196787,1.025136 9.6646293,0.98324264 9.6875,0.9375 z M 9.8125,1.1875 C 9.7295919,1.1789233 9.6566459,1.2042577 9.59375,1.25 L 9.5,1.375 L 9.5,1.4375 L 9.53125,1.4375 C 9.702784,1.4946787 9.8993445,1.4664854 10.09375,1.375 L 10.28125,1.40625 L 10.28125,1.3125 L 10.09375,1.3125 C 9.9908297,1.2496043 9.8954081,1.1960767 9.8125,1.1875 z M 10.75,1.09375 C 10.715693,1.1251978 10.684839,1.16729 10.65625,1.21875 C 10.599072,1.3216707 10.590693,1.3917573 10.625,1.4375 C 10.54495,1.4718067 10.5,1.5110393 10.5,1.5625 C 10.5,1.61396 10.530854,1.6703467 10.59375,1.6875 C 10.656646,1.7046533 10.74083,1.639888 10.84375,1.53125 C 10.946671,1.4226113 11.002661,1.3357666 11.03125,1.25 C 11.059839,1.1642327 11.065557,1.1025247 11.03125,1.0625 C 10.996943,1.0224753 10.923799,1.0083787 10.84375,1.03125 C 10.803725,1.0426857 10.784307,1.0623022 10.75,1.09375 z M 10.9375,1.125 C 10.964659,1.1264295 10.971609,1.156052 10.96875,1.1875 C 10.963033,1.250396 10.92646,1.3063867 10.875,1.375 C 10.82354,1.443614 10.790024,1.5026613 10.75,1.53125 C 10.709975,1.5598393 10.709975,1.537364 10.75,1.46875 C 10.790025,1.4001367 10.795743,1.3833787 10.75,1.40625 C 10.704258,1.4291207 10.695879,1.400928 10.71875,1.34375 C 10.741621,1.286572 10.766757,1.244678 10.8125,1.1875 C 10.869678,1.158911 10.910341,1.1235705 10.9375,1.125 z M 9.6875,1.25 C 9.664628,1.2957427 9.6844431,1.3406934 9.71875,1.375 C 9.673008,1.375 9.6280571,1.3864354 9.59375,1.375 C 9.6051853,1.3406927 9.6303215,1.2843067 9.6875,1.25 z M 9.84375,1.28125 L 10.03125,1.34375 C 9.9626367,1.3666213 9.9009281,1.375 9.84375,1.375 C 9.8894927,1.3521287 9.8780571,1.326992 9.84375,1.28125 z M 10.625,1.5625 C 10.670742,1.573936 10.684839,1.5964113 10.65625,1.625 C 10.627661,1.6535893 10.605186,1.6535893 10.59375,1.625 C 10.582315,1.5964113 10.590693,1.573936 10.625,1.5625 z M 9.53125,1.71875 C 9.5140967,1.724468 9.5255323,1.7583787 9.53125,1.78125 C 9.536968,1.8041213 9.5171534,1.8010647 9.5,1.8125 C 9.4828467,1.8239353 9.4660895,1.8410887 9.4375,1.8125 C 9.4089107,1.7839107 9.3864351,1.75 9.375,1.75 C 9.3406933,1.75 9.3182184,1.769814 9.3125,1.78125 C 9.306782,1.7926853 9.332314,1.801064 9.34375,1.8125 C 9.3780567,1.801064 9.4031938,1.8094433 9.4375,1.84375 C 9.4718073,1.8780573 9.4969433,1.8921534 9.53125,1.875 C 9.5655567,1.857846 9.5994681,1.821274 9.59375,1.78125 C 9.5880327,1.7412253 9.5484036,1.7130327 9.53125,1.71875 z M 9.34375,2 C 9.349468,1.9771287 9.3605076,1.994282 9.40625,2 C 9.4519927,2.0057173 9.5053225,1.994282 9.5625,2 L 9.375,2.03125 C 9.3521293,2.042686 9.3380323,2.0228714 9.34375,2 z M 9.625,2.0625 C 9.613564,2.0853707 9.6082429,2.0765959 9.5625,2.09375 C 9.516758,2.1109033 9.4718078,2.1448147 9.4375,2.15625 C 9.4260647,2.15625 9.4234037,2.1364354 9.40625,2.125 C 9.389096,2.113564 9.3719429,2.1051854 9.40625,2.09375 L 9.625,2.0625 z M 1.65625,2.5625 C 1.8578027,2.5767945 2.0809289,2.6103097 2.3125,2.6875 C 2.7756427,2.8418807 3.0868446,3.0746175 3.28125,3.40625 C 2.4921927,3.2004093 1.9451973,3.1950872 1.625,3.34375 C 1.3048027,3.4924133 1.2404333,3.4642199 1.40625,3.28125 C 1.572066,3.09828 1.484826,3.0841834 1.1875,3.25 C 0.890174,3.415816 0.69972732,3.4634281 0.5625,3.40625 C 0.42527267,3.349072 0.38870066,3.2256553 0.46875,3.03125 C 0.54879933,2.8368447 0.75068136,2.6909527 1.09375,2.59375 C 1.2652843,2.5451487 1.4546973,2.5482055 1.65625,2.5625 z M 18.8125,2.5625 C 19.014053,2.5482055 19.200607,2.5451487 19.375,2.59375 C 19.723787,2.6909527 19.925669,2.8368447 20,3.03125 C 20.074332,3.2256553 20.069009,3.3490721 19.9375,3.40625 C 19.80599,3.463428 19.584294,3.4158161 19.28125,3.25 C 18.978207,3.0841833 18.890966,3.0982799 19.0625,3.28125 C 19.234034,3.46422 19.163948,3.4924132 18.84375,3.34375 C 18.523553,3.1950873 17.956742,3.2004095 17.15625,3.40625 C 17.362091,3.0746173 17.698826,2.8418807 18.15625,2.6875 C 18.384962,2.6103097 18.610947,2.5767945 18.8125,2.5625 z M 1.25,2.75 C 0.844036,2.790024 0.66157198,2.8909653 0.71875,3.0625 C 0.764492,3.234034 0.95799606,3.2428086 1.3125,3.03125 C 1.667004,2.8196913 1.655964,2.7099753 1.25,2.75 z M 19,2.75 C 18.84133,2.7671534 18.890372,2.8725809 19.15625,3.03125 C 19.510755,3.2428087 19.715693,3.234034 19.75,3.0625 C 19.807177,2.8909653 19.618996,2.790024 19.21875,2.75 C 19.118688,2.7399938 19.05289,2.7442822 19,2.75 z M 8.78125,4.09375 C 8.9070413,4.505432 9.0472156,4.9069314 9.21875,5.25 C 9.3902847,5.5930687 9.5053225,6.0669205 9.5625,6.71875 L 8.625,10.71875 L 8.625,10.75 C 8.5106433,11.070198 8.4740718,11.415311 8.53125,11.78125 C 8.4168947,13.096346 8.2710027,13.884457 8.09375,14.1875 C 7.916498,14.490544 7.782042,14.723676 7.65625,14.84375 C 7.5304587,14.963824 7.27219,15.008775 6.90625,14.96875 C 6.5403107,14.928725 6.3300493,14.984716 6.25,15.15625 C 4.717628,13.932639 3.9405573,10.529515 3.90625,4.9375 L 4.21875,4.9375 C 4.8591447,5.3720533 5.759632,5.7339238 6.9375,6.03125 C 7.5435873,5.56239 8.1637262,4.9056786 8.78125,4.09375 z M 12.125,4.125 C 12.605296,4.9140573 13.143913,5.5623898 13.75,6.03125 C 14.802077,5.733924 15.680484,5.3720535 16.34375,4.9375 L 16.625,4.9375 C 16.613563,11.032682 15.561467,14.42437 13.46875,15.15625 L 12.4375,15.5 C 12.548997,15.429242 12.557574,15.305111 12.4375,15.125 C 12.277401,14.884852 12.294159,14.371372 12.5,13.59375 C 12.705841,12.816128 12.697462,12.190667 12.46875,11.6875 C 12.377265,11.470223 12.298799,11.161682 12.21875,10.75 L 12.09375,8.53125 C 12.253848,7.7879347 12.110617,7.0527579 11.6875,6.34375 C 11.676064,5.863454 11.721014,5.4314961 11.8125,5.03125 C 11.903985,4.6310033 12.010645,4.3194052 12.125,4.125 z M 11.375,6.71875 C 11.718068,7.073254 11.844542,7.6933936 11.71875,8.5625 L 11.8125,10.28125 L 9.25,10.28125 L 10.03125,6.90625 L 11.375,6.71875 z M 9.90625,10.75 L 10.96875,10.75 C 10.96875,11.081633 11.06703,11.418367 11.25,11.75 C 11.570197,13.042225 11.699332,13.850149 11.625,14.1875 C 11.550668,14.52485 11.469146,14.735111 11.40625,14.84375 C 11.343354,14.952389 11.127376,15.089902 10.75,15.25 C 10.304011,15.455841 10.05146,15.593354 10,15.65625 C 9.9485393,15.719146 9.9740718,15.766758 10.03125,15.8125 C 9.8096647,15.852788 9.5719887,15.881285 9.34375,15.875 C 9.3129756,15.867931 9.2807568,15.881911 9.25,15.875 C 8.9945299,15.817594 8.7542593,15.765259 8.5,15.71875 C 8.6149886,15.651665 8.6296844,15.524389 8.5625,15.3125 C 8.4881687,15.07807 8.6790108,14.600766 9.125,13.9375 C 9.5709887,13.274234 9.7759284,12.685345 9.71875,12.125 C 9.7073147,11.884852 9.7690228,11.424702 9.90625,10.75 z "
     id="path2216"
     sodipodi:nodetypes="cscsssssssssccccsscssssssccccscccsssscccsccccsssssscsscsscsssccssssssccscccsssssscssccsssssscssscsssccssccccccccccccssssssssccsssssssccsscccsccssccsssssssssccsccccssscccscssssssccsssssscsccssccsssccsccccssscccccccccccssscccsccccccccccsssscsscsssc" />
</svg>
