<?xml version="1.0" encoding="UTF-8" standalone="no"?>
<svg
   xmlns:dc="http://purl.org/dc/elements/1.1/"
   xmlns:cc="http://web.resource.org/cc/"
   xmlns:rdf="http://www.w3.org/1999/02/22-rdf-syntax-ns#"
   xmlns:svg="http://www.w3.org/2000/svg"
   xmlns="http://www.w3.org/2000/svg"
   xmlns:sodipodi="http://sodipodi.sourceforge.net/DTD/sodipodi-0.dtd"
   xmlns:inkscape="http://www.inkscape.org/namespaces/inkscape"
   width="20.720016"
   height="17.983217"
   id="svg2214"
   sodipodi:version="0.32"
   inkscape:version="0.45"
   sodipodi:docname="A249VERF.svg"
   inkscape:output_extension="org.inkscape.output.svg.inkscape"
   sodipodi:docbase="C:\Program Files\JSesh\fontsST"
   sodipodi:modified="true">
  <metadata
     id="metadata2221">
    <rdf:RDF>
      <cc:Work
         rdf:about="">
        <dc:format>image/svg+xml</dc:format>
        <dc:type
           rdf:resource="http://purl.org/dc/dcmitype/StillImage" />
      </cc:Work>
    </rdf:RDF>
  </metadata>
  <defs
     id="defs2219" />
  <sodipodi:namedview
     inkscape:window-height="480"
     inkscape:window-width="640"
     inkscape:pageshadow="2"
     inkscape:pageopacity="0.0"
     guidetolerance="10.0"
     gridtolerance="10.0"
     objecttolerance="10.0"
     borderopacity="1.0"
     bordercolor="#666666"
     pagecolor="#ffffff"
     id="base" />
  <path
     style="fill:#000000; stroke:none"
     d="M 7.679375,1.562426 L 8.76184,2.032175 C 8.9116153,1.8960157 9.0818143,1.834744 9.272437,1.84836 L 9.742186,1.133525 C 9.3609407,0.97013367 9.0205427,0.888438 8.720992,0.888438 C 8.775456,1.0518293 8.7209923,1.1811807 8.557601,1.276492 C 8.3942103,1.3718033 8.2240117,1.3309557 8.047005,1.153949 L 7.679375,1.562426 z M 8.292091,1.072253 L 8.455482,0.970134 C 8.2103953,0.47996133 8.0129647,0.234875 7.86319,0.234875 L 8.292091,1.072253 z M 9.966848,1.31734 L 9.354133,2.032175 L 9.435828,2.195566 L 10.314054,1.562426 L 9.966848,1.31734 z M 6.310976,3.257607 L 6.433519,3.400574 L 8.65972,2.318109 L 8.680144,2.21599 L 7.59768,1.84836 C 7.4342887,2.1070627 7.0053873,2.5768117 6.310976,3.257607 z M 8.026581,2.154718 L 7.618104,2.624467 C 7.4410967,2.5019237 7.373017,2.3725727 7.413865,2.236414 C 7.4547123,2.1002547 7.5364077,2.021963 7.658951,2.001539 C 7.7814943,1.981115 7.9040377,2.0321747 8.026581,2.154718 z M 7.822342,2.175142 C 7.7678787,2.1342947 7.703203,2.1411027 7.628315,2.195566 C 7.5534277,2.2500293 7.543216,2.3249167 7.59768,2.420228 L 7.822342,2.175142 z M 8.945655,2.236414 C 8.959271,2.3453413 9.0103307,2.392997 9.098834,2.379381 C 9.1873373,2.365765 9.224781,2.3113013 9.211165,2.21599 C 9.1975497,2.1206787 9.153298,2.079831 9.07841,2.093447 C 9.0035227,2.107063 8.959271,2.1547187 8.945655,2.236414 z M 8.006157,2.84913 C 8.1014683,2.8763613 8.155932,2.9648647 8.169548,3.11464 L 8.925231,2.542772 L 8.741416,2.399805 L 8.006157,2.84913 z M 7.373017,4.033714 C 7.5908717,3.9792507 7.8223423,3.8737273 8.067429,3.717144 C 8.3125157,3.5605613 8.5712177,3.468654 8.843535,3.441422 C 9.1158537,3.41419 9.255417,3.2916467 9.262225,3.073792 C 9.269033,2.8559373 9.2247813,2.6721227 9.12947,2.522348 L 7.373017,4.033714 z M 6.637758,3.563965 L 7.025811,3.972443 L 7.944885,3.196336 L 7.86319,3.012521 L 6.637758,3.563965 z M 6.188433,3.318879 C 5.9297303,3.5367337 5.8650547,3.7341643 5.994406,3.911171 C 6.1237573,4.0881783 6.3314,4.0473307 6.617334,3.788628 L 6.188433,3.318879 z M 6.249704,3.461846 C 6.3586313,3.6933167 6.2973597,3.802244 6.065889,3.788628 C 6.065889,3.5571573 6.1271607,3.44823 6.249704,3.461846 z M 6.515214,4.421768 C 6.569678,4.5034633 6.6445657,4.537503 6.739877,4.523887 C 6.9168837,4.3877277 6.9645393,4.2583767 6.882844,4.135834 L 6.515214,4.421768 z M 7.23005,4.176682 L 7.311745,4.299224 L 7.49556,4.156258 L 7.23005,4.176682 z M 7.046235,4.319648 L 6.923692,4.585159 L 7.168778,4.442192 L 7.046235,4.319648 z M 15.379174,8.322727 C 16.413984,8.363575 17.224131,8.656317 17.809614,9.200953 C 18.299787,9.0375623 18.77294,8.9865027 19.229073,9.047774 C 19.685206,9.109046 20.046028,9.435828 20.311539,10.02812 C 20.57705,10.620412 20.713209,11.794784 20.720016,13.551237 C 20.726824,15.30769 20.383022,16.492275 19.68861,17.10499 C 19.429907,15.321306 19.338,13.697609 19.412888,12.233898 C 19.487775,10.770187 19.307365,10.038332 18.871656,10.038332 C 18.612954,10.038332 18.463179,10.160875 18.422331,10.405962 C 18.218092,11.263764 17.761959,12.033063 17.05393,12.713859 C 17.190089,13.421886 17.428368,14.014178 17.768766,14.490735 C 16.611414,15.552776 15.821691,16.219956 15.399598,16.492275 C 15.508525,16.696514 15.433637,16.880329 15.174935,17.043718 L 14.889001,17.145838 L 14.99112,17.983217 L 13.683992,17.942369 L 13.867807,17.125414 C 13.949503,16.907561 14.112894,16.696514 14.357981,16.492275 C 15.379174,15.511929 16.09401,14.824325 16.502487,14.429464 L 15.379174,13.163184 C 15.243015,13.748668 15.331518,14.266073 15.644684,14.715398 C 14.405636,15.450657 13.541026,15.927214 13.050853,16.145069 C 13.050853,16.431004 12.901078,16.655666 12.601527,16.819057 L 12.315594,16.819057 L 12.336018,17.758554 L 11.110585,17.758554 L 11.355672,16.77821 C 11.464599,16.451427 11.682453,16.199533 12.009235,16.022526 C 12.989581,15.355346 13.738456,14.831133 14.255861,14.449888 L 13.030429,12.284958 C 11.736917,12.31219 10.746359,12.114759 10.058756,11.692665 C 9.371152,11.270572 8.9592707,10.957406 8.823112,10.753167 C 8.115084,10.998254 7.1075063,11.086757 5.800379,11.018678 C 5.2965903,11.032294 4.874497,11.175261 4.534099,11.447579 C 4.1528537,11.9786 3.785224,12.400693 3.43121,12.713859 C 3.5129053,13.122336 3.3563223,13.421886 2.961461,13.612509 L 3.104428,14.40904 L 1.756453,14.531583 L 2.103659,13.326575 C 2.2942817,13.027025 2.4644803,12.77513 2.614255,12.570891 C 3.281435,11.781169 3.771608,11.141221 4.084774,10.651048 C 4.425172,10.446809 4.6974903,10.303842 4.901729,10.222147 C 4.4387877,10.194915 4.071158,10.194915 3.79884,10.222147 C 3.5809853,10.154068 3.3495147,10.235763 3.104428,10.467234 C 2.5870233,10.902943 2.2125857,11.304612 1.981115,11.672241 C 1.9130357,12.080719 1.6747573,12.366653 1.26628,12.530044 L 1.347975,13.326575 L 0,13.326575 L 0.449325,12.182838 C 0.62633167,11.924136 0.82376233,11.685858 1.041617,11.468003 C 1.749645,10.732744 2.2738577,10.120027 2.614255,9.629854 C 3.3358983,9.357536 4.4047477,9.1124497 5.820803,8.894595 C 5.820803,7.396845 6.2394923,6.2224727 7.076871,5.371478 C 7.9142497,4.5204833 8.312515,4.074562 8.271667,4.033714 C 8.2308197,3.9928667 8.0027533,4.125622 7.587468,4.43198 C 7.1721827,4.738338 6.8590167,4.874497 6.64797,4.840457 C 6.4369227,4.806417 6.2905517,4.666854 6.208857,4.421768 L 6.780725,4.01329 L 6.739877,3.972443 C 6.6173337,4.0541383 6.4743667,4.1494497 6.310976,4.258377 C 6.1475847,4.3673043 6.0182333,4.3196487 5.922922,4.11541 C 5.8003793,3.9656347 5.725492,3.8362833 5.69826,3.727356 C 5.671028,3.6184287 5.7391073,3.4958857 5.902498,3.359727 L 7.291321,1.889208 C 7.005387,2.21599 6.838592,2.2500297 6.790936,1.991327 C 6.7432807,1.732625 6.9441157,1.4671147 7.393441,1.194796 C 7.352593,0.97694133 7.2947253,0.81355067 7.219838,0.704624 C 7.1449507,0.59569667 7.100699,0.44592133 7.087083,0.255298 C 7.1960097,0.11913933 7.447904,0.25529867 7.842766,0.663776 C 7.82915,0.54123267 7.7917063,0.43911333 7.730435,0.357418 C 7.669163,0.27572267 7.6249113,0.16679533 7.59768,0.030636 C 7.7883027,-0.078291333 8.1082763,0.085099667 8.557601,0.520809 C 9.4426357,0.520809 10.147259,0.77610733 10.671472,1.286704 C 11.195685,1.7973007 11.457791,2.5563877 11.457791,3.563965 C 11.457791,4.6668543 11.308016,5.5586967 11.008466,6.239492 C 10.708915,6.9202873 10.804227,7.458116 11.2944,7.852978 L 11.090161,8.302303 C 11.008466,8.383999 10.821247,8.1967803 10.528504,7.740647 C 10.235763,7.2845137 10.239167,6.743281 10.538716,6.116949 C 10.838267,5.490617 10.988042,4.6668543 10.988042,3.645661 C 10.988042,2.6244677 10.790611,1.9913277 10.39575,1.746241 L 9.415404,2.461076 C 9.755802,2.9240173 9.6468747,3.4209983 9.088622,3.952019 C 8.53037,4.483039 7.910846,5.099159 7.23005,5.800379 C 6.5492547,6.5015983 6.208857,7.641931 6.208857,9.221377 C 5.882075,9.303073 5.5961407,9.3677487 5.351054,9.415404 C 5.1059673,9.46306 4.8064173,9.5175233 4.452404,9.578794 C 4.09839,9.640066 4.088178,9.680914 4.421768,9.701338 C 4.755358,9.721762 5.1331997,9.735378 5.555293,9.742186 C 5.9773863,9.748994 6.5628703,9.6638947 7.311745,9.486888 L 7.985733,9.507311 C 7.4410963,9.7251657 6.9747513,9.8919607 6.586698,10.007696 C 6.1986447,10.123431 5.9501543,10.256187 5.841227,10.405962 C 5.7322997,10.555737 6.0182337,10.617008 6.699029,10.589776 C 7.379825,10.562544 8.0674287,10.426385 8.76184,10.181299 C 9.4562513,10.71232 10.045139,11.141221 10.528504,11.468003 C 11.011869,11.794785 11.82542,11.924136 12.969157,11.856056 C 13.010005,11.148029 13.323171,10.487657 13.908655,9.874941 L 14.112894,10.07918 C 13.595489,10.705512 13.336787,11.250148 13.336787,11.713089 C 13.404867,12.162414 13.673781,12.638971 14.14353,13.14276 C 14.613279,13.646549 14.793689,13.489966 14.684762,12.673011 C 15.801267,12.822786 16.601202,12.638972 17.084566,12.121567 C 17.567931,11.604162 17.925349,10.848479 18.15682,9.854517 C 19.355021,9.241801 19.909869,9.878345 19.821365,11.764149 C 19.732862,13.649952 19.763498,15.137491 19.913273,16.226765 C 20.240055,15.586817 20.38983,14.466908 20.362598,12.867038 C 20.335367,11.267169 20.120916,10.235763 19.719246,9.772821 C 19.317576,9.3098803 18.646992,9.2622247 17.707495,9.629854 C 17.081164,9.057986 16.216553,8.74482 15.113664,8.690356 L 15.379174,8.322727 z M 7.618104,1.174373 L 7.822342,1.010982 C 7.5772553,0.58888867 7.3798247,0.377842 7.23005,0.377842 L 7.618104,1.174373 z M 13.398059,1.7196298 L 13.050853,2.4815 C 13.173396,2.495116 13.221052,2.5529837 13.19382,2.655103 C 13.166588,2.7572223 13.241476,2.808282 13.418483,2.808282 L 13.438907,2.889977 C 13.343595,2.971673 13.350403,3.0669847 13.459331,3.175912 L 13.82696,3.053369 L 13.990351,3.809052 L 13.479754,3.809052 C 13.329979,3.822668 13.275516,4.0813703 13.316363,4.585159 C 13.547833,5.2659543 13.666972,5.793571 13.67378,6.168009 C 13.680588,6.5424463 13.670376,6.9066717 13.643145,7.260685 C 13.615913,7.614699 13.52741,7.798514 13.377635,7.81213 C 12.778535,7.798514 12.301978,7.8734017 11.947964,8.036793 C 12.152203,8.1593363 12.281554,8.3091113 12.336018,8.486118 C 14.146934,8.6631247 15.052392,8.5269657 15.052392,8.077641 C 15.011544,7.8189383 14.92304,7.1789903 14.786881,6.157797 C 14.773266,5.7629357 14.882193,5.225107 15.113664,4.544311 C 15.236207,4.3673037 15.243015,4.1971047 15.134088,4.033714 C 15.02516,3.8703233 14.895809,3.795436 14.746034,3.809052 C 14.596259,3.822668 14.290807,3.6352605 14.439676,3.339303 C 14.671915,2.8776026 14.349507,2.8590817 14.581713,2.6629889 C 15.068163,2.2521927 14.729781,1.8220585 14.342348,1.9459896 C 14.024353,2.0477091 14.185447,1.7358738 13.398059,1.7196298 z M 14.010775,2.073023 C 13.683992,2.2227977 13.49337,2.2534333 13.438907,2.16493 C 13.384443,2.0764267 13.391251,1.9913273 13.459331,1.909632 C 13.52741,1.8279367 13.711224,1.8824003 14.010775,2.073023 z M 12.438137,6.423307 C 11.648414,6.709241 10.99485,6.8045523 10.477446,6.709241 C 10.041736,6.8726323 9.7762253,6.8930563 9.680914,6.770513 C 9.5856027,6.6479697 9.5549667,6.5424463 9.589006,6.453943 C 9.623046,6.365439 9.6026223,6.3143793 9.527735,6.300764 C 9.4528477,6.287148 9.415404,6.2190683 9.415404,6.096525 L 9.619642,6.076101 C 9.8647287,6.103333 10.143855,6.1782207 10.457022,6.300764 C 11.015274,6.1373727 11.553102,6.0012133 12.070507,5.892286 C 12.288362,5.3748813 12.455156,4.9391723 12.570891,4.585159 C 12.686626,4.231145 12.795554,3.9792507 12.897674,3.829476 C 12.999793,3.6797007 13.132548,3.598005 13.295939,3.584389 C 13.45933,3.570773 13.575065,3.560561 13.643145,3.553753 C 13.711224,3.546945 13.735052,3.5026933 13.714628,3.420998 C 13.694204,3.3393027 13.63974,3.315475 13.551237,3.349515 C 13.462734,3.3835543 13.381039,3.3869583 13.306151,3.359727 C 13.231264,3.332495 13.19382,3.2235677 13.19382,3.032945 L 13.010005,2.685739 C 12.832998,2.631275 12.785342,2.5495793 12.867038,2.440652 L 13.19382,1.787089 C 13.19382,1.6645457 13.265304,1.4705187 13.408271,1.205008 C 13.551238,0.939498 13.918867,0.820359 14.511159,0.847591 C 15.103452,0.87482233 15.433638,1.1607563 15.501717,1.705393 C 15.569796,2.2500297 15.443849,2.6346793 15.123876,2.859342 C 14.803901,3.0840047 14.65753,3.2644153 14.684762,3.400574 C 14.711994,3.5367333 14.909425,3.591197 15.277055,3.563965 C 15.440446,3.550349 15.668512,3.7613957 15.961254,4.197105 C 16.253997,4.6328143 16.509295,5.177451 16.72715,5.831015 C 16.740766,6.430115 16.652262,6.9883673 16.461639,7.505772 C 16.597798,8.14572 16.580779,8.5848333 16.41058,8.823112 C 16.240381,9.0613907 16.046354,9.0920263 15.828499,8.915019 L 15.971466,8.322727 L 15.685532,8.486118 C 15.685532,8.186568 15.808075,7.9550973 16.053162,7.791706 C 16.039546,6.9339033 16.073586,6.2667237 16.155281,5.790167 L 15.379174,4.707702 C 15.120471,5.361266 14.99112,5.858247 14.99112,6.198645 C 15.249823,7.2879177 15.372366,7.992541 15.35875,8.312515 C 15.345134,8.632489 15.055796,8.8265157 14.490735,8.894595 C 13.925675,8.962675 13.098508,8.9286353 12.009235,8.792476 C 11.750532,8.806092 11.587141,9.0273507 11.519062,9.456252 C 11.450983,9.8851533 11.233129,10.293631 10.865499,10.681684 C 10.497869,11.069737 10.334478,11.430559 10.375326,11.764149 C 10.416174,12.097739 10.368518,12.288362 10.232359,12.336018 C 10.0962,12.383673 9.9702523,12.359845 9.854517,12.264534 C 9.7387817,12.169223 9.551563,12.121567 9.292861,12.121567 L 8.414635,11.856056 C 8.346555,11.869672 8.2784753,11.798188 8.210396,11.641605 C 8.142316,11.485023 8.244435,11.427156 8.516753,11.468003 C 9.0886223,11.563314 9.5039077,11.457791 9.762609,11.151433 C 10.021312,10.845074 10.242571,10.405961 10.426386,9.834093 C 10.6102,9.262225 10.913154,8.6086613 11.335248,7.873402 C 11.975196,7.6555473 12.635568,7.533004 13.316363,7.505772 C 13.411675,6.9747513 13.435503,6.5458503 13.387847,6.219069 C 13.340191,5.892287 13.22786,5.545081 13.050853,5.177451 C 12.969157,5.477001 12.764918,5.8922863 12.438137,6.423307 z M 7.087083,3.992867 C 7.9448857,5.3816897 8.9252313,6.1782203 10.02812,6.382459 L 9.966848,6.852208 L 9.987272,7.4445 L 9.680914,7.403653 L 9.742186,6.54585 C 8.6256813,6.2054527 7.6861833,5.395306 6.923692,4.11541 L 7.087083,3.992867 z M 17.217321,6.116949 L 17.646223,6.28034 L 17.52368,6.464155 L 17.217321,6.566274 C 17.067546,6.7705127 16.727149,7.342381 16.196129,8.281879 C 15.665108,9.221377 14.991121,10.521697 14.174166,12.182838 L 14.051622,12.24411 C 14.174165,11.808401 14.412444,11.216109 14.766458,10.467234 C 15.120472,9.7183587 15.937426,8.2682637 17.217321,6.116949 z "
     id="path2216"
     sodipodi:nodetypes="cccccscccccccccccccccccccssccscccssscccccccsssccccccccscccccccccccccccccccssscssccccccccccccccccccccccsccccccccccccccccccsccsssscccscsccscsccsccsssccsssccsscssssccssscsccccscscscsscccccccccscccccccssccccccsssssccsscccsssccccsssssssccccsssssssccscccccccsscsssssccssssccsccccccccccccccsccsc" />
</svg>
