<?xml version="1.0" encoding="UTF-8" standalone="no"?>
<svg
   xmlns:dc="http://purl.org/dc/elements/1.1/"
   xmlns:cc="http://creativecommons.org/ns#"
   xmlns:rdf="http://www.w3.org/1999/02/22-rdf-syntax-ns#"
   xmlns:svg="http://www.w3.org/2000/svg"
   xmlns="http://www.w3.org/2000/svg"
   xmlns:sodipodi="http://sodipodi.sourceforge.net/DTD/sodipodi-0.dtd"
   xmlns:inkscape="http://www.inkscape.org/namespaces/inkscape"
   width="2702"
   height="1798"
   id="svg2"
   sodipodi:version="0.32"
   inkscape:version="0.46"
   sodipodi:docname="A250.svg"
   inkscape:output_extension="org.inkscape.output.svg.inkscape"
   version="1.0">
  <metadata
     id="metadata9">
    <rdf:RDF>
      <cc:Work
         rdf:about="">
        <dc:format>image/svg+xml</dc:format>
        <dc:type
           rdf:resource="http://purl.org/dc/dcmitype/StillImage" />
      </cc:Work>
    </rdf:RDF>
  </metadata>
  <defs
     id="defs7">
    <inkscape:perspective
       sodipodi:type="inkscape:persp3d"
       inkscape:vp_x="0 : 8.9916086 : 1"
       inkscape:vp_y="0 : 1000 : 0"
       inkscape:vp_z="27.022648 : 8.9916086 : 1"
       inkscape:persp3d-origin="13.511324 : 5.9944057 : 1"
       id="perspective11" />
  </defs>
  <sodipodi:namedview
     inkscape:window-height="912"
     inkscape:window-width="1280"
     inkscape:pageshadow="2"
     inkscape:pageopacity="0.0"
     guidetolerance="10.0"
     gridtolerance="10.0"
     objecttolerance="10.0"
     borderopacity="1.0"
     bordercolor="#666666"
     pagecolor="#ffffff"
     id="base"
     showgrid="false"
     inkscape:zoom="0.050403226"
     inkscape:cx="1351"
     inkscape:cy="899"
     inkscape:window-x="1280"
     inkscape:window-y="22"
     inkscape:current-layer="svg2" />
  <path
     style="fill:#000000;stroke:none"
     d="M 663.03125,0.59375 C 659.77429,0.6423614 657.36809,1.0659706 655.8125,1.84375 C 655.8125,19.265985 659.2493,39.477701 666.09375,62.5 C 672.93827,85.522308 676.97431,120.04915 678.21875,166.09375 L 556.875,285.5625 C 544.43048,291.78478 536.95763,301.74859 534.46875,315.4375 C 533.2243,321.65974 535.4,330.67771 541,342.5 C 546.60002,354.32223 551.58185,360.84932 555.9375,362.09375 C 560.29306,363.33821 571.80198,358.38749 590.46875,347.1875 L 592.34375,354.65625 L 575.5625,365.84375 C 581.78474,385.75494 599.82066,392.59722 629.6875,386.375 C 637.15417,400.06389 646.4875,406.27571 657.6875,405.03125 C 604.17622,483.43159 568.70356,571.18296 551.28125,668.25 L 407.5625,629.03125 C 392.62915,630.27574 335.99895,657.04573 237.6875,709.3125 C 154.30946,739.17931 105.15216,759.70621 90.21875,770.90625 C 81.507632,779.61735 65.931333,792.70275 43.53125,810.125 L 2.46875,875.4375 C 16.157716,885.39311 37.31519,889.14514 65.9375,886.65625 C 58.470759,899.10076 50.398617,925.20893 41.6875,965.03125 C 76.532037,965.03125 103.90131,956.95906 123.8125,940.78125 C 113.85694,955.71466 103.89312,979.96248 93.9375,1013.5625 C 127.53766,1018.5402 153.67708,1012.959 172.34375,996.78125 C 167.36598,1012.959 162.38403,1039.698 157.40625,1077.0312 C 223.36207,1052.1422 257.60485,1023.5431 260.09375,991.1875 C 260.09375,972.52082 253.25145,965.67845 239.5625,970.65625 C 234.5847,953.23394 243.91798,948.2521 267.5625,955.71875 C 288.71815,928.3409 312.96589,898.76469 340.34375,867.03125 C 367.72162,835.29775 399.47345,812.59514 435.5625,798.90625 C 596.09635,882.28429 704.34358,922.73891 760.34375,920.25 C 764.07709,942.65007 809.82884,975.00128 897.5625,1017.3125 C 985.29609,1059.6239 1059.6469,1083.5875 1120.625,1089.1875 C 1181.603,1094.7876 1215.4991,1102.5444 1222.3438,1112.5 C 1229.1882,1122.4556 1264.9763,1131.1894 1329.6875,1138.6562 C 1325.9541,1178.4785 1338.409,1198.3751 1367.0312,1198.375 C 1389.4314,1198.375 1400.6251,1189.0417 1400.625,1170.375 C 1462.8474,1284.8643 1522.8832,1357.3547 1580.75,1387.8438 C 1638.6169,1418.3327 1684.3375,1454.7201 1717.9375,1497.0312 C 1751.5378,1539.3426 1778.9381,1605.3062 1800.0938,1694.9062 L 1801.9375,1719.1875 L 1818.75,1782.6562 C 1846.1278,1766.4782 1861.6733,1755.2849 1865.4062,1749.0625 L 1878.5,1793.8438 C 1913.3447,1773.9328 1932.6102,1752.1446 1936.3438,1728.5 L 1955.0312,1780.7812 C 1981.1646,1764.6033 1997.3404,1747.7972 2003.5625,1730.375 L 2022.2188,1775.1875 C 2055.8189,1756.5209 2072.6249,1731.6113 2072.625,1700.5 C 2071.3804,1670.6332 2061.4168,1658.8091 2042.75,1665.0312 C 2029.061,1661.298 2025.3403,1645.1223 2031.5625,1616.5 L 1919.5625,1474.6562 C 1959.385,1495.8118 1972.4391,1487.0779 1958.75,1448.5 L 2035.4688,1448.5 C 2035.4065,1450.3718 2035.3242,1452.2355 2035.2812,1454.125 C 2036.5257,1512.6141 2045.5437,1561.7712 2062.3438,1601.5938 C 2079.1439,1641.4162 2102.7923,1675.9429 2133.2812,1705.1875 C 2163.7703,1734.432 2199.5583,1757.7653 2240.625,1775.1875 C 2281.6918,1792.6099 2325.2365,1800.6819 2371.2812,1799.4375 C 2417.3259,1799.4375 2460.9021,1791.0501 2501.9688,1774.25 C 2543.0356,1757.4498 2578.477,1734.432 2608.3438,1705.1875 C 2638.2106,1675.9429 2661.8591,1641.1009 2679.2812,1600.6562 C 2696.7037,1560.2116 2705.4376,1510.7392 2705.4375,1452.25 C 2705.4375,1398.7386 2696.3883,1352.0724 2678.3438,1312.25 C 2660.2991,1272.4277 2636.3668,1237.2704 2606.5,1206.7812 C 2576.6333,1176.2924 2544.2509,1154.189 2509.4062,1140.5 C 2556.6952,976.23276 2532.3261,862.09832 2436.625,798.90625 C 2410.378,781.57516 2358.2183,786.47792 2320.875,785.84375 C 2338.2973,734.82136 2332.0854,677.59185 2302.2188,614.125 C 2281.0632,550.65809 2257.4148,490.90643 2231.2812,434.90625 C 2207.6367,395.08393 2186.7944,368.62923 2168.75,355.5625 C 2150.7055,342.49581 2133.5842,336.28403 2117.4062,336.90625 C 2101.2284,337.52848 2086.3138,322.29875 2072.625,291.1875 C 2091.2916,272.5208 2103.1159,254.76883 2108.0938,237.96875 C 2113.0718,221.16867 2110.5807,197.83551 2100.625,167.96875 C 2088.1806,138.10199 2066.3926,123.78681 2035.2812,125.03125 C 2004.1703,126.27569 1974.6253,136.2395 1946.625,154.90625 C 1918.6249,173.57299 1908.3458,207.18533 1915.8125,255.71875 C 1912.0792,266.91883 1909.5881,282.4638 1908.3438,302.375 C 1908.3438,314.81946 1910.8348,320.71597 1915.8125,320.09375 C 1920.7904,319.47152 1925.7722,319.7868 1930.75,321.03125 C 1927.0165,324.76457 1926.102,327.57084 1927.9688,329.4375 C 1929.8352,331.30424 1932.6101,331.61943 1936.3438,330.375 C 1941.3214,327.88604 1941.6369,328.51658 1937.2812,332.25 C 1932.9257,335.98333 1932.6104,337.84374 1936.3438,337.84375 C 1941.3214,337.84375 1945.988,342.51041 1950.3438,351.84375 C 1954.6993,361.17709 1961.2576,364.58267 1969.9688,362.09375 C 1978.68,359.60487 1989.2431,354.65416 2001.6875,347.1875 C 2016.6209,363.36529 2012.5849,381.71659 1989.5625,402.25 C 1966.5403,422.78343 1953.7704,447.34646 1951.2812,475.96875 C 1917.6813,515.79114 1882.2082,563.08802 1844.875,617.84375 C 1823.2344,614.89277 1785.9914,620.91168 1733.25,635.84375 C 1693.571,632.33709 1654.8667,628.27874 1617.125,623.6875 L 1514.5,380.78125 C 1449.7887,387.00347 1367.6493,308.58523 1268.0938,145.5625 L 1247.5625,151.1875 C 1358.3184,325.41032 1442.3179,408.14867 1499.5625,399.4375 L 1585.8125,619.75 C 1393.5411,594.46068 1227.12,554.69683 1086.5938,500.4375 C 1108.898,458.92323 1119.6271,406.58767 1118.75,343.4375 C 1118.75,270.01502 1097.9077,212.47031 1056.2188,170.78125 C 1014.5298,129.09228 970.6696,105.12853 924.625,98.90625 C 899.73604,64.061707 883.24511,46.340975 875.15625,45.71875 C 867.06736,45.096527 863.03124,46.011106 863.03125,48.5 C 865.52014,62.188967 867.97984,74.013193 870.46875,83.96875 C 845.57979,47.87977 829.12014,28.897983 821.03125,27.03125 C 812.94231,25.16458 808.2756,25.479856 807.03125,27.96875 C 807.03125,39.168824 808.89175,50.993051 812.625,63.4375 C 791.46937,34.815191 777.78473,19.900687 771.5625,18.65625 C 765.34027,17.411803 760.95762,18.011118 758.46875,20.5 C 757.22431,29.21119 759.71524,42.296513 765.9375,59.71875 C 742.29296,27.363101 727.06322,10.556947 720.21875,9.3125 C 713.37433,8.068053 708.70765,8.0680526 706.21875,9.3125 C 706.21875,20.512501 708.70973,34.827703 713.6875,52.25 C 691.2874,18.649914 676.65697,1.528474 669.8125,0.90625 C 667.24581,0.67291638 664.98543,0.56458316 663.03125,0.59375 z M 678.21875,27.96875 L 721.15625,89.5625 L 695.03125,108.25 C 682.5868,68.427619 676.97431,41.657706 678.21875,27.96875 z M 726.75,33.5625 L 773.40625,93.3125 L 745.40625,113.84375 C 734.20626,72.776923 727.99441,46.006948 726.75,33.5625 z M 779.03125,41.03125 L 823.8125,104.5 L 797.6875,121.3125 C 785.24299,81.490121 779.03124,54.720145 779.03125,41.03125 z M 827.5625,50.375 L 872.34375,115.71875 L 846.21875,132.5 C 833.77429,92.677684 827.56249,65.308415 827.5625,50.375 z M 881.6875,76.5 L 926.46875,141.84375 L 900.34375,158.65625 C 887.89923,120.07832 881.68749,92.677791 881.6875,76.5 z M 724.875,119.4375 C 728.60833,124.41528 730.46873,133.11798 730.46875,145.5625 L 708.09375,130.65625 L 724.875,119.4375 z M 775.28125,126.90625 C 781.50348,133.12849 783.36398,142.46173 780.875,154.90625 L 758.46875,139.96875 L 775.28125,126.90625 z M 930.21875,132.5 C 946.39654,137.47778 970.67574,148.67145 1003.0312,166.09375 L 952.625,229.5625 C 942.66944,224.58473 931.47578,225.84583 919.03125,233.3125 L 857.40625,158.65625 L 877.9375,145.5625 L 898.46875,182.90625 C 922.11328,180.41729 937.05903,170.45349 943.28125,153.03125 L 930.21875,132.5 z M 827.5625,136.25 C 830.0514,141.22785 831.28123,150.5611 831.28125,164.25 L 810.75,149.3125 L 827.5625,136.25 z M 702.46875,147.4375 L 728.625,175.4375 L 721.15625,184.78125 L 696.875,166.09375 L 702.46875,147.4375 z M 2035.4375,148.03125 C 2057.8485,147.60465 2072.7435,157.36243 2080.0938,177.3125 C 2088.8047,200.95703 2088.8047,223.97491 2080.0938,246.375 C 2071.3826,268.77507 2062.6797,276.87848 2053.9688,270.65625 C 2045.2576,265.67847 2044.6268,253.53897 2052.0938,234.25 C 2059.5603,214.96103 2056.7541,200.64584 2043.6875,191.3125 C 2030.6208,181.9791 2015.391,187.87562 1997.9688,209.03125 C 1985.5243,205.29791 1966.8574,207.18951 1941.9688,214.65625 C 1939.4799,199.72283 1944.7459,186.32229 1957.8125,174.5 C 1970.8792,162.67776 1992.3519,154.29029 2022.2188,149.3125 C 2026.8854,148.53471 2031.2873,148.11025 2035.4375,148.03125 z M 752.875,156.78125 L 779.03125,184.78125 L 771.5625,192.25 L 747.28125,175.4375 L 752.875,156.78125 z M 807.03125,164.25 C 821.96459,182.91675 829.40627,192.84929 829.40625,194.09375 L 823.8125,201.5625 L 799.5625,182.90625 L 807.03125,164.25 z M 853.6875,175.4375 L 907.8125,231.4375 L 905.9375,235.1875 L 849.9375,194.09375 L 853.6875,175.4375 z M 687.5625,177.3125 L 719.28125,194.09375 L 713.6875,197.84375 C 697.50964,190.37708 685.37017,190.06182 677.28125,196.90625 C 669.19235,203.7507 667.64721,216.52076 672.625,235.1875 L 601.6875,302.375 L 583,279.96875 L 687.5625,177.3125 z M 1017.9375,179.1875 L 1036.625,199.71875 L 963.8125,253.84375 L 961.9375,250.09375 L 950.75,257.5625 C 950.75,261.29583 948.25905,263.47151 943.28125,264.09375 C 938.30339,264.71597 935.18187,263.8014 933.9375,261.3125 C 930.20409,253.84576 931.46519,248.86388 937.6875,246.375 C 943.90975,243.8861 948.89164,245.74652 952.625,251.96875 L 1017.9375,179.1875 z M 739.8125,186.65625 L 771.5625,205.3125 L 764.09375,209.03125 C 749.16039,201.56459 737.3362,201.2493 728.625,208.09375 C 719.91389,214.93821 718.65276,227.07769 724.875,244.5 L 653.9375,311.71875 L 635.28125,291.1875 L 739.8125,186.65625 z M 790.21875,195.96875 L 823.8125,214.65625 L 816.34375,218.375 C 801.41032,210.90834 789.58621,210.59306 780.875,217.4375 C 772.16388,224.28202 770.30344,237.05209 775.28125,255.71875 L 706.21875,322.90625 L 687.5625,300.5 L 790.21875,195.96875 z M 2029.5938,200.59375 C 2029.8747,200.58116 2030.1653,200.58646 2030.4375,200.59375 C 2038.6042,200.8125 2042.396,207.06248 2041.8125,219.3125 C 2041.1905,232.37923 2038.384,244.83403 2033.4062,256.65625 C 2028.4286,268.47856 2030.0045,276.86597 2038.0938,281.84375 C 2046.1824,286.82153 2049.5883,290.54236 2048.3438,293.03125 C 2061.916,321.98537 2077.3095,341.23445 2094.5,350.78125 C 2084.0441,348.19915 2075.4878,350.41154 2068.875,357.4375 C 2058.9194,368.01535 2056.4284,380.15484 2061.4062,393.84375 C 2091.273,436.15502 2125.5157,476.60963 2164.0938,515.1875 C 2150.2749,523.31628 2125.6203,537.09583 2090.5625,556.375 C 2070.0204,538.41747 2049.4078,522.20605 2028.75,507.71875 C 1980.8387,474.11866 1985.5054,432.43418 2042.75,382.65625 L 2029.6875,349.03125 C 2017.2429,326.63116 2002.9278,321.64929 1986.75,334.09375 C 1970.5722,346.53826 1961.239,344.67787 1958.75,328.5 C 1967.4612,318.54444 1969.3216,312.64794 1964.3438,310.78125 C 1959.366,308.91459 1952.5235,310.45972 1943.8125,315.4375 C 1941.3235,310.45973 1934.4809,307.96877 1923.2812,307.96875 C 1923.2812,285.56868 1925.7722,268.7625 1930.75,257.5625 C 1938.2168,250.09576 1946.9196,246.05973 1956.875,245.4375 C 1966.8308,244.81528 1976.1638,243.27013 1984.875,240.78125 L 1983.0312,235.1875 C 1978.0533,238.92084 1969.9502,240.1507 1958.75,238.90625 C 1947.5503,237.66181 1938.2168,241.38264 1930.75,250.09375 C 1931.9944,242.62708 1932.6249,236.41527 1932.625,231.4375 C 1957.5141,222.72631 1978.6713,219.6048 1996.0938,222.09375 C 2001.0714,232.04933 2005.4227,231.13478 2009.1562,219.3125 C 2012.8895,207.49025 2019.4168,201.27848 2028.75,200.65625 C 2029.0416,200.6368 2029.3126,200.60634 2029.5938,200.59375 z M 690.90625,201.8125 C 695.34689,201.70312 701.09372,202.8625 708.09375,205.3125 L 681.9375,227.71875 C 676.57084,210.72424 679.55794,202.09203 690.90625,201.8125 z M 2027.0938,205.8125 C 2024.4687,205.86111 2021.611,207.24654 2018.5,209.96875 C 2013.522,214.32432 2010.7159,220.85133 2010.0938,229.5625 C 2009.4716,238.27361 2010.3861,243.8861 2012.875,246.375 C 2009.1416,251.35276 2007.9119,255.70409 2009.1562,259.4375 C 2010.4006,263.17083 2013.207,264.71596 2017.5625,264.09375 C 2021.9182,263.47152 2026.2694,257.89037 2030.625,247.3125 C 2034.9806,236.73474 2037.1562,227.71674 2037.1562,220.25 C 2037.1562,214.02778 2035.2957,209.67637 2031.5625,207.1875 C 2030.1625,206.25416 2028.6686,205.78333 2027.0938,205.8125 z M 840.625,210.90625 C 845.60279,212.15069 868.62065,224.60548 909.6875,248.25 L 909.6875,255.71875 L 764.125,313.59375 C 764.11397,313.58413 764.10478,313.57212 764.09375,313.5625 L 745.03125,320.5 L 737.9375,309.84375 L 840.625,210.90625 z M 1044.0938,210.90625 C 1076.4494,245.75086 1089.5039,307.36293 1083.2812,395.71875 L 965.6875,339.71875 C 975.64299,314.82978 975.01248,291.81188 963.8125,270.65625 L 1044.0938,210.90625 z M 745.40625,211.96875 C 749.45071,211.89098 754.43262,212.78956 760.34375,214.65625 L 734.21875,238.90625 C 729.55207,221.17284 733.27287,212.20205 745.40625,211.96875 z M 2026.0312,215.0625 C 2027.2222,215.09653 2027.8125,216.19723 2027.8125,218.375 C 2030.3013,222.10842 2030.9321,227.09028 2029.6875,233.3125 C 2028.4431,239.53472 2026.5827,244.20141 2024.0938,247.3125 C 2021.6049,250.42362 2020.6591,249.16252 2021.2812,243.5625 C 2021.9036,237.96251 2021.2729,236.41736 2019.4062,238.90625 C 2017.5395,241.39515 2016.31,240.44931 2015.6875,236.09375 C 2015.0655,231.73819 2016.0109,226.4723 2018.5,220.25 C 2021.9999,216.75 2024.5001,215.01875 2026.0312,215.0625 z M 842.28125,218.90625 C 837.90624,219.02292 833.60626,220.70205 829.40625,223.96875 C 818.20618,232.67986 816.34577,243.87355 823.8125,257.5625 L 864.875,231.4375 C 857.09718,222.88189 849.57294,218.7118 842.28125,218.90625 z M 796.875,221.28125 C 801.15278,221.20348 806.40278,222.10206 812.625,223.96875 L 784.625,248.25 C 779.95834,230.51661 784.04167,221.51456 796.875,221.28125 z M 841.125,227.1875 C 845.15002,227.23125 849.96246,228.63749 855.5625,231.4375 L 829.40625,250.09375 C 826.91731,240.13819 828.17841,233.29584 833.15625,229.5625 C 835.33403,227.92916 837.99443,227.15347 841.125,227.1875 z M 1984.875,246.375 L 1973.6875,250.09375 C 1955.0207,246.36042 1942.5657,249.48187 1936.3438,259.4375 L 1932.625,270.65625 L 1934.5,274.375 L 1938.2188,272.5 C 1951.9077,272.5 1964.3625,266.91884 1975.5625,255.71875 L 1988.625,251.96875 L 1984.875,246.375 z M 1956.875,253.84375 L 1968.0938,255.71875 C 1964.3603,258.2077 1960.6085,260.69861 1956.875,263.1875 C 1959.364,259.45417 1959.364,256.3327 1956.875,253.84375 z M 2014.75,253.84375 C 2019.7277,253.84375 2021.5881,255.07356 2020.3438,257.5625 C 2019.0995,260.05139 2017.5545,260.68195 2015.6875,259.4375 C 2013.8211,258.19307 2013.5056,256.3327 2014.75,253.84375 z M 1943.8125,257.5625 C 1943.8125,261.29583 1945.6727,263.78682 1949.4062,265.03125 C 1945.6728,266.2757 1941.9521,266.90625 1938.2188,266.90625 C 1938.2187,264.41735 1940.0791,261.29584 1943.8125,257.5625 z M 913.40625,265.03125 L 928.34375,276.25 L 874.21875,313.5625 L 861.15625,289.3125 L 913.40625,265.03125 z M 943.28125,274.375 C 950.74791,285.57501 954.18474,298.94438 953.5625,314.5 C 952.94028,330.05562 942.34589,338.15903 921.8125,338.78125 C 901.27915,339.40348 882.29733,346.24582 864.875,359.3125 C 857.20286,365.06662 849.54715,369.89957 841.875,373.84375 C 838.82431,371.7375 835.78935,369.63009 832.78125,367.5 L 943.28125,274.375 z M 577.40625,291.1875 L 588.625,309.84375 C 586.13612,322.2882 586.13609,332.85131 588.625,341.5625 C 582.40278,345.29584 576.15971,346.55694 569.9375,345.3125 C 563.71527,344.06806 559.36391,336.5952 556.875,322.90625 C 554.38605,309.21736 561.22839,298.65422 577.40625,291.1875 z M 1947.1562,295.65625 C 1946.9618,295.61736 1946.7806,295.68819 1946.625,295.84375 C 1946.0028,296.46598 1946.3181,297.41181 1947.5625,298.65625 C 1948.8068,299.9007 1948.8069,301.44585 1947.5625,303.3125 C 1946.318,305.17918 1944.1422,305.17919 1941.0312,303.3125 C 1937.9201,301.44584 1936.3435,301.13056 1936.3438,302.375 C 1933.8547,302.375 1932.6249,303.00555 1932.625,304.25 C 1932.625,304.25 1932.6249,304.8493 1932.625,306.09375 C 1935.114,304.84931 1938.2352,304.8493 1941.9688,306.09375 C 1945.7021,307.33819 1948.1618,307.05415 1949.4062,305.1875 C 1950.6506,303.32082 1950.6506,301.14515 1949.4062,298.65625 C 1948.473,296.78958 1947.7397,295.77291 1947.1562,295.65625 z M 573.21875,298.65625 C 568.47187,299.25903 564.87987,309.2111 562.46875,328.5 C 574.91319,332.23334 581.75558,323.53058 583,302.375 L 573.6875,298.65625 C 573.53194,298.65625 573.37188,298.63681 573.21875,298.65625 z M 627.8125,300.5 L 640.875,321.03125 C 638.3861,334.72021 638.38609,344.05346 640.875,349.03125 C 633.40832,352.76459 627.51185,354.34098 623.15625,353.71875 C 618.80064,353.09652 615.04862,350.60557 611.9375,346.25 C 608.82639,341.89445 606.96596,334.7369 606.34375,324.78125 C 605.72153,314.8257 612.87911,306.72222 627.8125,300.5 z M 626.4375,307.875 C 619.7291,308.02084 615.20833,318.01034 612.875,337.84375 C 625.31951,339.08819 632.79237,330.98479 635.28125,313.5625 C 635.28125,313.5625 632.7903,311.70211 627.8125,307.96875 C 627.34583,307.89097 626.88473,307.86528 626.4375,307.875 z M 678.21875,309.84375 L 689.40625,328.5 C 685.67292,339.70009 685.07358,350.89376 687.5625,362.09375 C 682.58471,363.33821 676.97224,363.65347 670.75,363.03125 C 664.52771,362.40901 660.1764,355.5667 657.6875,342.5 C 655.1986,329.43325 662.0409,318.55486 678.21875,309.84375 z M 846.21875,309.84375 L 855.5625,322.90625 L 816.46875,355.65625 C 806.30453,348.11546 796.37034,340.45279 786.71875,332.625 L 846.21875,309.84375 z M 1960.0938,313.84375 L 1943.8125,322.90625 C 1941.3235,322.90625 1940.0935,322.27568 1940.0938,321.03125 C 1940.0937,319.78681 1941.6387,318.55693 1944.75,317.3125 C 1947.8611,316.06806 1951.6131,315.12223 1955.9688,314.5 C 1958.0085,314.20861 1959.282,313.99868 1960.0938,313.84375 z M 676.34375,315.4375 C 671.36597,315.4375 667.0146,326.03185 663.28125,347.1875 C 675.7257,348.43194 683.19862,340.32854 685.6875,322.90625 L 676.34375,315.4375 z M 1960.625,315.4375 C 1961.8694,317.92641 1960.9237,320.41735 1957.8125,322.90625 C 1954.7014,325.39515 1951.8952,327.25558 1949.4062,328.5 C 1949.4062,328.5 1948.4918,328.50001 1946.625,328.5 C 1944.7585,328.5 1945.673,327.27017 1949.4062,324.78125 L 1960.625,315.4375 z M 728.625,319.1875 L 751.03125,360.25 C 739.83119,372.69452 729.86738,376.73053 721.15625,372.375 C 712.44513,368.01936 707.77846,359.63195 707.15625,347.1875 C 706.53403,334.74296 713.69167,325.40972 728.625,319.1875 z M 727.46875,326.53125 C 721.78125,326.60417 717.18752,335.98949 713.6875,354.65625 C 724.8875,357.14515 731.72983,349.67223 734.21875,332.25 L 728.625,326.65625 C 728.23611,326.57847 727.84792,326.52639 727.46875,326.53125 z M 765.5,340.75 C 776.7194,350.45641 788.31263,359.93757 800.28125,369.21875 L 786.46875,380.78125 L 758.46875,343.4375 L 765.5,340.75 z M 642.75,352.78125 L 646.46875,365.84375 C 639.00207,368.33264 632.1598,373.3145 625.9375,380.78125 C 620.95972,372.07005 626.57216,362.73679 642.75,352.78125 z M 939.5625,354.65625 L 1083.2812,414.375 L 1079.5625,429.3125 L 922.75,360.25 L 939.5625,354.65625 z M 2107.9688,356.1875 C 2110.1595,356.7451 2112.3813,357.16388 2114.625,357.4375 C 2140.1362,360.5486 2166.8748,385.74217 2194.875,433.03125 C 2206.1219,452.02622 2217.0183,472.77918 2227.5625,495.1875 C 2204.6117,464.84709 2166.0584,419.28281 2111.8125,358.375 C 2110.5027,357.58911 2109.2357,356.86616 2107.9688,356.1875 z M 599.8125,363.96875 L 612.875,375.1875 C 604.16388,375.1875 597.32156,372.69662 592.34375,367.71875 L 599.8125,363.96875 z M 689.40625,367.71875 L 695,378.90625 C 686.30255,381.39788 679.44108,386.38527 674.46875,393.84375 C 669.49096,385.13262 674.47292,376.42995 689.40625,367.71875 z M 767.8125,373.3125 L 771.5625,378.90625 L 732.34375,414.375 L 721.15625,408.78125 L 767.8125,373.3125 z M 904.09375,373.3125 L 1064.625,444.25 C 1062.413,456.96869 1057.2344,470.65928 1049.125,485.34375 C 982.28461,457.3584 921.71989,425.87357 867.40625,390.875 C 880.11731,383.09281 892.34956,377.22722 904.09375,373.3125 z M 653.9375,375.1875 L 667.03125,386.375 C 658.32006,387.61942 651.44653,385.75901 646.46875,380.78125 L 653.9375,375.1875 z M 816.3125,381.375 C 817.06059,381.92816 817.81163,382.47967 818.5625,383.03125 C 816.58158,383.57639 814.60592,384.07552 812.625,384.5 L 816.3125,381.375 z M 702.46875,388.25 L 715.5625,399.4375 C 706.85139,400.68194 699.97789,398.19099 695,391.96875 L 702.46875,388.25 z M 775.28125,391.96875 L 780.875,399.4375 C 780.875,404.41527 777.15414,410.0277 769.6875,416.25 C 760.97638,417.49444 754.76461,416.86391 751.03125,414.375 L 775.28125,391.96875 z M 821.9375,393.84375 L 808.875,403.1875 L 801.40625,395.71875 L 821.9375,393.84375 z M 848.125,403.875 C 904.00601,441.63624 966.8718,475.4331 1036.75,505.25 C 1032.5061,511.41832 1027.7972,517.74099 1022.625,524.21875 C 958.68433,492.8044 895.07523,456.93991 831.78125,416.6875 C 837.31119,412.09772 842.75529,407.82386 848.125,403.875 z M 685.6875,405.03125 L 695.03125,410.65625 C 634.0533,486.56768 596.08964,587.9725 581.15625,714.90625 C 477.86701,681.30609 420.60628,664.49998 409.40625,664.5 C 396.96174,665.74452 377.06537,675.70834 349.6875,694.375 L 168.625,806.375 C 127.55824,810.10834 102.64868,818.81104 93.9375,832.5 C 90.204164,838.72223 90.204162,844.96526 93.9375,851.1875 C 95.181946,859.89868 79.636898,863.6195 47.28125,862.375 C 59.725772,838.73049 82.113112,812.59106 114.46875,783.96875 C 119.44653,776.50208 163.62198,759.69593 247,733.5625 C 345.31147,681.29567 398.85139,655.18751 407.5625,655.1875 C 418.76258,655.1875 472.87048,670.10197 569.9375,699.96875 C 584.87092,579.25723 623.4651,480.94262 685.6875,405.03125 z M 790.21875,405.03125 L 797.6875,414.375 L 780.875,425.5625 L 790.21875,405.03125 z M 708.09375,416.25 L 723.03125,423.71875 C 660.80885,494.65233 622.8452,601.6697 609.15625,744.78125 L 415,688.78125 C 401.31103,686.29235 389.51808,691.27427 379.5625,703.71875 L 174.21875,854.90625 C 134.39636,866.10634 114.46875,877.30002 114.46875,888.5 C 113.22432,895.96673 118.20623,899.08824 129.40625,897.84375 L 127.5625,907.1875 C 111.38471,925.85432 92.718137,935.18749 71.5625,935.1875 C 70.318055,919.00958 83.372136,894.73062 110.75,862.375 C 121.95,841.21945 144.96788,828.7646 179.8125,825.03125 C 315.45737,731.69757 387.94789,683.80137 397.28125,681.3125 C 406.61465,678.82354 434.9297,684.43604 482.21875,698.125 C 529.50774,711.81397 568.07068,723.60693 597.9375,733.5625 C 610.38195,595.42873 647.11571,489.67247 708.09375,416.25 z M 818.8125,427.90625 C 882.93985,468.43735 947.62658,504.44938 1012.8438,536 C 1010.2742,538.98909 1007.6311,541.97987 1004.875,545.03125 C 970.03035,583.60919 962.87282,633.39705 983.40625,694.375 C 1003.9397,755.35297 1046.885,793.63185 1112.2188,809.1875 C 1177.5523,824.74314 1255.6553,832.18474 1346.5,831.5625 C 1437.3449,830.94028 1520.7137,862.3769 1596.625,925.84375 C 1650.1364,857.39907 1714.8387,835.61096 1790.75,860.5 C 1866.6613,885.38891 1905.5396,965.35236 1907.4062,1100.375 C 1909.273,1235.3978 1913.3405,1325.0096 1919.5625,1369.1875 C 1925.7848,1413.3654 1922.9785,1424.5592 1911.1562,1402.7812 C 1899.334,1381.0034 1892.1764,1292.9681 1889.6875,1138.6562 C 1887.1985,984.34451 1852.9873,901.57501 1787.0312,890.375 C 1721.0756,879.17499 1661.9543,898.47207 1609.6875,948.25 C 1650.7542,1039.0947 1669.4208,1140.4996 1665.6875,1252.5 C 1761.5101,1320.9446 1815.0186,1357.6788 1826.2188,1362.6562 C 1863.5522,1441.0564 1923.2728,1526.2858 2005.4062,1618.375 L 1997.9688,1635.1875 L 2024.0938,1685.5938 C 2037.7829,1690.5718 2044.3098,1700.1888 2043.6875,1714.5 C 2043.0651,1728.811 2037.768,1737.2298 2027.8125,1739.7188 C 2015.3681,1709.8519 1997.3319,1671.2577 1973.6875,1623.9688 C 1933.865,1555.524 1890.9194,1496.7492 1844.875,1447.5938 C 1798.8303,1398.438 1732.2675,1352.6863 1645.1562,1310.375 C 1558.0449,1268.0637 1486.5004,1206.4825 1430.5,1125.5938 C 1426.7669,1111.9048 1418.3481,1096.0131 1405.2812,1077.9688 C 1392.2146,1059.9244 1342.1431,1054.6583 1255.0312,1062.125 C 1180.3644,1063.3694 1109.7342,1054.6355 1043.1562,1035.9688 C 976.57818,1017.3019 894.75453,976.87864 797.6875,914.65625 C 788.9764,881.05615 762.83695,871.7229 719.28125,886.65625 C 679.45886,877.94513 627.49536,858.96337 563.40625,829.71875 C 499.31712,800.47422 457.94794,780.86179 439.28125,770.90625 L 415,780.25 C 387.62212,791.45007 359.02299,813.52215 329.15625,846.5 C 299.28948,879.47793 273.15011,907.79297 250.75,931.4375 C 229.59437,933.92638 218.4007,947.61108 217.15625,972.5 L 237.6875,991.1875 C 230.22082,1007.3653 212.7841,1021.0501 185.40625,1032.25 C 192.87292,987.4499 206.55757,949.48619 226.46875,918.375 C 345.93582,798.9079 410.35415,738.55696 419.6875,737.3125 C 429.0209,736.06806 443.65136,738.55903 463.5625,744.78125 C 483.4737,751.00354 514.24842,761.2514 555.9375,775.5625 C 597.62648,789.8737 641.51785,801.41393 687.5625,810.125 C 685.0736,654.56893 710.2672,546.29047 763.15625,485.3125 C 782.50221,463.00777 801.04835,443.88382 818.8125,427.90625 z M 736.09375,429.3125 L 747.28125,431.1875 C 680.08107,498.38775 643.37847,612.2474 637.15625,772.78125 C 624.71174,771.53681 557.51843,752.87021 435.5625,716.78125 C 421.87353,713.04784 408.78828,717.39924 396.34375,729.84375 C 294.29896,819.44411 233.31738,872.95275 213.40625,890.375 C 187.27284,900.33064 170.46676,914.64582 163,933.3125 C 160.51111,949.49035 166.12353,956.96321 179.8125,955.71875 C 164.87907,976.87439 145.58204,986.80702 121.9375,985.5625 C 131.89313,956.9402 149.96032,925.21954 176.09375,890.375 C 183.56041,879.17499 221.49289,844.96336 289.9375,787.71875 C 358.38221,730.47406 397.60695,701.84376 407.5625,701.84375 C 417.51814,703.08819 444.88734,710.24576 489.6875,723.3125 C 534.48767,736.37917 577.402,749.11799 618.46875,761.5625 C 633.40216,599.78414 672.62681,489.04602 736.09375,429.3125 z M 760.34375,433.03125 L 779.03125,438.65625 C 700.631,518.30102 662.66727,631.53008 665.15625,778.375 L 652.09375,774.65625 C 655.82708,611.6335 691.89905,497.74259 760.34375,433.03125 z M 1997.9688,517.03125 C 2022.3991,536.48504 2044.2308,554.52975 2063.5625,571.1875 C 2051.6921,577.67853 2039.7061,584.24757 2025.9688,591.71875 C 1983.6575,599.18549 1955.6574,611.00973 1941.9688,627.1875 C 1935.5416,634.78315 1930.1003,641.7829 1925.5938,648.28125 C 1917.1494,647.92159 1908.7436,647.52709 1900.375,647.125 C 1923.9965,620.41235 1956.5399,577.06073 1997.9688,517.03125 z M 1074.2812,520.5625 C 1219.6554,577.67583 1393.3163,618.75157 1595.2188,643.78125 L 1603.2188,664.21875 C 1601.1842,665.47993 1599.3082,666.82758 1597.5625,668.25 C 1589.9908,674.4195 1583.5481,680.06036 1578.125,685.21875 C 1402.4348,668.70187 1229.0465,620.64463 1057.9688,541.09375 C 1063.8322,534.64527 1069.2657,527.80236 1074.2812,520.5625 z M 2240.3438,523.53125 C 2251.4215,549.24348 2262.0858,576.96214 2272.3438,606.65625 L 2171.5625,636.5 C 2159.6777,623.36416 2147.7679,610.8318 2135.8438,598.875 C 2178.0487,579.73145 2212.8707,554.61952 2240.3438,523.53125 z M 1047.3438,552.28125 C 1217.4029,630.19884 1391.1375,677.75633 1568.5625,694.96875 C 1566.3973,697.40749 1564.559,699.70506 1563.0312,701.84375 C 1569.2535,710.55493 1577.3257,713.04592 1587.2812,709.3125 C 1603.6603,738.7949 1619.0996,749.6031 1633.5625,741.71875 L 1637.6875,752.25 L 1658.2188,746.65625 L 1651.9688,726.84375 C 1661.8067,718.2865 1670.6041,709.91586 1678.2812,701.71875 C 1769.2469,704.13437 1861.162,698.71033 1954.0312,685.4375 C 1956.7676,687.90625 1959.4233,689.98223 1961.9688,691.6875 C 1968.6717,706.14871 1975.2576,718.26421 1981.7188,727.96875 L 1947.5625,727.96875 L 1947.5625,787.71875 L 1828.0938,709.3125 L 1777.6875,802.65625 L 1841.5312,848.25 C 1829.2758,840.70326 1815.7856,834.84186 1801.0312,830.65625 C 1713.2978,805.76728 1649.5099,821.94286 1609.6875,879.1875 C 1603.4651,884.16529 1582.3075,873.25564 1546.2188,846.5 C 1510.1297,819.74436 1446.0267,803.88401 1353.9375,798.90625 C 1261.8483,798.90625 1187.8125,792.37927 1131.8125,779.3125 C 1075.8123,766.24583 1037.2492,735.75502 1016.0938,687.84375 C 995.76057,641.79558 1006.1757,596.60512 1047.3438,552.28125 z M 2107.2188,610.53125 C 2120.7691,623.43009 2132.2931,635.22398 2141.6875,645.84375 L 2106.2188,785.84375 L 2061.4062,785.84375 L 2061.4062,727.96875 L 2056.25,727.96875 C 2057.4862,710.84457 2046.1498,685.33992 2022.2188,651.4375 C 2021.9884,651.43221 2021.7615,651.41157 2021.5312,651.40625 C 2026.1268,644.39192 2030.0805,637.55779 2033.4062,630.90625 C 2059.8518,625.61714 2084.4699,618.81763 2107.2188,610.53125 z M 2277.9688,634.65625 C 2302.8576,686.92302 2307.8084,737.31028 2292.875,785.84375 L 2141.6875,785.84375 L 2173.4062,662.65625 L 2277.9688,634.65625 z M 1627.0312,647.5625 C 1635.645,648.54464 1644.3176,649.51208 1653.0312,650.4375 C 1644.2335,651.21718 1636.263,652.43654 1629.0938,654.125 L 1627.0312,647.5625 z M 2016.625,662.65625 C 2037.7805,686.30076 2048.3438,705.56656 2048.3438,720.5 C 2048.3438,723.18922 2048.0871,725.6831 2047.5625,727.96875 L 1993.75,727.96875 C 1987.6991,720.14813 1981.4563,709.90372 1975,697.21875 C 1982.5257,698.26521 1988.9358,694.83068 1994.2188,686.90625 C 1998.6693,681.81992 2002.8366,676.83017 2006.7188,671.90625 C 2007.5343,671.92339 2008.3401,671.95199 2009.1562,671.96875 L 2016.625,662.65625 z M 1880.5,667.625 C 1891.9532,668.17007 1903.4965,668.66162 1915.0938,669.125 C 1921.4936,673.88317 1928.326,674.13924 1935.625,669.90625 C 1936.9781,669.95436 1938.3325,669.98424 1939.6875,670.03125 C 1940.9976,671.63309 1942.2876,673.16384 1943.5625,674.625 C 1857.6507,687.49654 1772.2852,693.07778 1687.4375,691.40625 C 1687.6516,691.15158 1687.8818,690.91055 1688.0938,690.65625 C 1782.6716,690.65625 1844.2527,685.04385 1872.875,673.84375 C 1875.2008,672.16403 1877.7583,670.08282 1880.5,667.625 z M 1973.6875,755.96875 L 2010.9375,755.96875 C 2011.9015,756.33646 2012.8546,756.6579 2013.8125,756.90625 C 2021.0351,758.77877 2027.5637,758.73512 2033.4062,756.8125 L 2033.4062,802.65625 L 1973.6875,802.65625 L 1973.6875,755.96875 z M 125.6875,825.03125 L 107,843.71875 C 104.51111,833.76319 110.75416,827.52014 125.6875,825.03125 z M 2323.4688,837.46875 C 2346.8002,837.38779 2366.9988,840.14563 2389.9688,858.65625 C 2449.8955,906.94902 2462.126,994.27935 2427.2812,1119.9688 C 2340.1699,1108.7687 2272.6613,1115.3269 2224.75,1139.5938 C 2176.8388,1163.8606 2142.3118,1188.7387 2121.1562,1214.25 C 2112.2941,1224.9367 2103.7696,1236.8953 2095.5625,1250.0938 C 2079.4375,1227.8438 2061.8007,1206.5825 2047.1875,1183.3438 C 2015.3599,1132.7297 2002.3339,1032.2325 2003.5625,884.78125 L 1947.5625,838.125 L 2289.1562,838.125 C 2301.609,838.125 2312.8635,837.50555 2323.4688,837.46875 z M 1858.0938,860.09375 L 1934.5,914.65625 L 1936.3438,1310.375 C 1932.1615,1270.2738 1931.6364,1147.4066 1931.6875,1083.5938 C 1932.1555,975.47929 1907.616,900.96785 1858.0938,860.09375 z M 157.03125,877.0625 C 158.37292,877.0625 159.75625,877.15694 161.15625,877.3125 L 138.75,914.65625 C 144.97223,899.72289 143.11188,890.98899 133.15625,888.5 C 139.68965,880.87771 147.63957,877.06247 157.03125,877.0625 z M 197.46875,915.59375 C 199.53958,915.50625 201.76042,915.79999 204.09375,916.5 L 191,953.84375 C 188.51112,942.64367 184.15972,937.66173 177.9375,938.90625 C 181.98194,923.73947 188.49514,915.9729 197.46875,915.59375 z M 1738.1875,915.875 C 1768.9584,915.68053 1794.2603,929.56238 1814.0938,957.5625 C 1845.8273,1002.3627 1862.3178,1103.7986 1863.5625,1261.8438 L 1831.8125,1228.25 C 1829.3235,1112.5163 1818.1298,1031.0079 1798.2188,983.71875 C 1778.3075,936.42969 1737.853,918.99296 1676.875,931.4375 C 1699.275,921.17077 1719.725,915.99168 1738.1875,915.875 z M 1951.2812,929.5625 C 1953.7703,933.29591 1958.1213,937.04794 1964.3438,940.78125 C 1964.3438,1036.6038 1966.8349,1102.8826 1971.8125,1139.5938 C 1984.8432,1204.0029 2022.3894,1264.8408 2061.0625,1317.5625 C 2048.8076,1347.2495 2040.8663,1380.9374 2037.3125,1418.6562 C 2027.9271,1418.6562 2018.5416,1418.6562 2009.1562,1418.6562 C 1988.6857,1417.3657 1975.2329,1412.8816 1966.375,1403.9688 C 1953.2005,1390.7123 1950.1935,1367.6748 1949.4062,1330.9062 L 1951.2812,929.5625 z M 1691.6875,957.46875 C 1703.8355,957.46876 1719.4444,959.37632 1738.5,963.1875 C 1782.0556,971.89861 1804.4429,1054.0376 1805.6875,1209.5938 C 1779.554,1198.3938 1744.0814,1177.2362 1699.2812,1146.125 C 1691.8148,1082.6582 1679.36,1022.9064 1661.9375,966.90625 C 1666.1376,960.60617 1676.0687,957.46874 1691.6875,957.46875 z M 1251.2812,1082.6562 C 1288.6148,1083.9007 1321.9118,1084.8152 1351.1562,1085.4375 C 1380.4007,1086.0598 1392.5403,1108.1632 1387.5625,1151.7188 C 1388.807,1161.6743 1382.8792,1166.6562 1369.8125,1166.6562 C 1356.7458,1166.6562 1350.2187,1149.2195 1350.2188,1114.375 C 1292.9741,1111.886 1259.9927,1107.5347 1251.2812,1101.3125 C 1242.5702,1095.0902 1242.5703,1088.8789 1251.2812,1082.6562 z M 2359.0938,1144.5938 C 2360.7743,1144.5826 2362.4574,1144.5865 2364.1562,1144.5938 C 2382.2785,1144.6715 2401.4652,1145.791 2421.6875,1147.9688 C 2385.4897,1248.2087 2347.9042,1311.0533 2308.9375,1336.5312 L 2221.9688,1192.7812 L 2229.4062,1172.25 C 2263.7649,1154.1666 2306.9981,1144.9402 2359.0938,1144.5938 z M 2496.3438,1172.25 L 2511.2812,1179.7188 L 2518.75,1194.6562 L 2382.5,1413.0312 C 2379.7848,1413.0312 2377.1551,1413.0949 2374.625,1413.1875 L 2375.0312,1407.4375 L 2386.2188,1403.7188 L 2384.3438,1390.6562 L 2371.2812,1386.9062 L 2373.1562,1381.3125 L 2364.125,1383.125 C 2383.6513,1367.3043 2402.5305,1344.3176 2420.75,1314.125 C 2442.5278,1278.0361 2467.7216,1230.7391 2496.3438,1172.25 z M 2190.2188,1190.9062 L 2205.1562,1200.25 L 2292.125,1345.1875 C 2284.3479,1348.1058 2276.5102,1349.5935 2268.625,1349.5938 C 2215.1138,1349.5937 2179.0103,1341.1748 2160.3438,1324.375 C 2146.5388,1311.9504 2130.7012,1294.5748 2112.8125,1272.2812 C 2132.034,1240.9736 2157.8247,1213.8314 2190.2188,1190.9062 z M 2541.1562,1198.375 C 2625.7788,1250.6417 2669.3235,1331.5197 2671.8125,1441.0312 L 2660.625,1446.6562 L 2408.625,1446.6562 C 2407.3806,1437.9452 2403.6286,1429.8417 2397.4062,1422.375 L 2529.9688,1203.9688 L 2541.1562,1198.375 z M 1701.1562,1215.1875 C 1739.7341,1235.0988 1774.5762,1254.9951 1805.6875,1274.9062 C 1806.9318,1298.5508 1811.283,1316.5868 1818.75,1329.0312 C 1786.3941,1311.609 1747.201,1285.5012 1701.1562,1250.6562 L 1701.1562,1215.1875 z M 1486.5,1226.375 C 1531.3001,1267.4419 1590.0747,1307.8962 1662.875,1347.7188 C 1735.6752,1387.5411 1796.9718,1434.5227 1846.75,1488.6562 C 1896.5279,1542.7897 1933.8612,1591.6316 1958.75,1635.1875 L 1945.6875,1651.9688 L 1962.5,1694.9062 C 1979.9222,1696.1506 1988.9405,1700.8173 1989.5625,1708.9062 C 1990.1848,1716.9951 1983.027,1729.1347 1968.0938,1745.3125 C 1959.3827,1719.179 1944.7522,1681.2156 1924.2188,1631.4375 C 1903.6853,1581.6595 1870.388,1533.1327 1824.3438,1485.8438 C 1778.2991,1438.5547 1725.4208,1398.7305 1665.6875,1366.375 C 1605.9539,1334.0192 1546.2334,1287.3532 1486.5,1226.375 z M 1488.3438,1252.5 C 1560.5218,1314.7224 1623.679,1360.4742 1677.8125,1389.7188 C 1731.946,1418.9634 1777.6979,1456.6117 1815.0312,1502.6562 C 1852.3648,1548.701 1879.1037,1590.3854 1895.2812,1627.7188 C 1901.5034,1638.919 1898.382,1650.743 1885.9375,1663.1875 L 1899.0312,1696.7812 L 1921.4062,1698.6562 C 1922.6506,1718.5677 1912.0876,1735.9734 1889.6875,1750.9062 C 1883.4653,1701.1285 1864.4835,1640.1467 1832.75,1567.9688 C 1801.0165,1495.7907 1749.3683,1439.7907 1677.8125,1399.9688 C 1606.2567,1360.1465 1543.0994,1310.989 1488.3438,1252.5 z M 1490.2188,1280.5 C 1532.5299,1322.8112 1574.5297,1354.8785 1616.2188,1376.6562 C 1657.9078,1398.4342 1691.2045,1419.8756 1716.0938,1441.0312 C 1740.9827,1462.1868 1764.316,1490.502 1786.0938,1525.9688 C 1807.8716,1561.4357 1827.4526,1603.4353 1844.875,1651.9688 C 1838.6528,1655.7021 1835.8778,1664.7201 1836.5,1679.0312 C 1837.1223,1693.3423 1844.8793,1702.9911 1859.8125,1707.9688 C 1862.3015,1720.4133 1854.2292,1732.2375 1835.5625,1743.4375 C 1833.0736,1734.7265 1829.952,1726.0237 1826.2188,1717.3125 L 1826.2188,1691.1875 C 1795.1077,1577.9427 1762.7564,1505.1369 1729.1562,1472.7812 C 1695.5561,1440.4257 1656.6778,1412.1104 1612.5,1387.8438 C 1568.322,1363.5769 1527.5522,1327.7891 1490.2188,1280.5 z M 1837.4062,1299.1875 L 1869.1562,1327.1875 C 1871.6451,1360.7876 1877.2262,1390.648 1885.9375,1416.7812 C 1853.582,1358.2922 1837.4066,1319.0986 1837.4062,1299.1875 z M 2081.75,1345.5625 L 2081.9688,1345.8438 C 2104.3691,1370.7327 2125.8106,1387.8542 2146.3438,1397.1875 C 2166.8773,1406.5209 2200.4895,1411.787 2247.1562,1413.0312 C 2279.2876,1413.8881 2305.9703,1410.7638 2327.1875,1403.6562 L 2336.7812,1419.625 L 2335.8125,1418.6562 L 2071.0938,1418.6562 C 2072.1826,1392.7231 2075.7349,1368.3608 2081.75,1345.5625 z M 2363.8125,1383.375 L 2363.8125,1386.9062 L 2358.1562,1387.7188 C 2360.0497,1386.3356 2361.9311,1384.8915 2363.8125,1383.375 z M 2350.75,1392.75 L 2350.75,1405.6562 L 2344.9688,1396.0938 C 2346.962,1395.0336 2348.892,1393.9089 2350.75,1392.75 z M 2351.8125,1407.4375 L 2363.8125,1407.4375 L 2363.3438,1413.9688 C 2360.9089,1414.2285 2358.5595,1414.5372 2356.3438,1414.9062 L 2351.8125,1407.4375 z M 2362.625,1424.4375 L 2361.9688,1433.5938 L 2362.7812,1433.5938 C 2353.5224,1437.2763 2348.8749,1444.7107 2348.875,1455.9688 C 2349.8083,1464.3688 2353.5604,1469.9812 2360.0938,1472.7812 L 2360.5938,1484.9062 C 2345.4363,1481.2555 2338.4372,1471.0055 2339.5625,1454.125 C 2339.5625,1436.0918 2347.2532,1426.1949 2362.625,1424.4375 z M 2373.7812,1425.0938 C 2392.0124,1431.3559 2401.1565,1441.0265 2401.1562,1454.125 C 2398.9996,1472.4568 2389.8292,1482.8343 2373.6562,1485.2812 L 2373.1875,1473.4375 C 2384.3641,1470.413 2389.9688,1464.5815 2389.9688,1455.9688 C 2389.9688,1442.5118 2384.366,1434.6535 2373.25,1432.3125 L 2373.7812,1425.0938 z M 2408.625,1461.5938 L 2662.5,1461.5938 L 2666.2188,1470.9062 C 2663.7298,1580.4178 2620.8154,1661.9262 2537.4375,1715.4375 L 2524.3438,1707.9688 L 2393.6875,1491.4375 C 2402.3987,1483.9707 2407.3806,1474.0382 2408.625,1461.5938 z M 2328.3438,1463.4375 C 2327.0994,1474.6376 2330.8515,1481.4799 2339.5625,1483.9688 L 2208.875,1707.9688 L 2193.9688,1711.7188 C 2111.8352,1659.4519 2070.1195,1578.5428 2068.875,1469.0312 L 2080.0938,1465.3125 L 2328.3438,1463.4375 z M 2352.625,1493.3125 C 2355.4405,1494.9213 2358.247,1495.9936 2361.0625,1496.5625 L 2361.9688,1519.4375 C 2365.7021,1526.9042 2370.0535,1526.9042 2375.0312,1519.4375 L 2374.0625,1495.5 C 2375.6231,1494.9277 2377.1894,1494.2043 2378.75,1493.3125 L 2511.2812,1715.4375 L 2509.4062,1734.125 C 2408.606,1777.6806 2314.0433,1777.0504 2225.6875,1732.25 L 2225.6875,1715.4375 L 2352.625,1493.3125 z M 1964.3438,1646.375 L 1983.0312,1681.8438 C 1965.6088,1678.1106 1959.366,1666.2862 1964.3438,1646.375 z M 1906.5,1651.9688 L 1930.75,1691.1875 C 1910.8386,1684.9652 1900.875,1676.2314 1900.875,1665.0312 C 1904.6085,1661.2979 1906.5,1656.9466 1906.5,1651.9688 z M 1854.2188,1666.9062 L 1861.6875,1687.4375 L 1846.75,1685.5938 L 1846.75,1668.7812 L 1854.2188,1666.9062 z"
     id="path3533"
     sodipodi:nodetypes="ccscccssccccccccccccccccccccscccsscsccsccccccccccccccccssscsscssscscccsscscssccscscsssscscccccccccccscsccsccsccsccscccccccccccccccccccccccccccccccccccccccccccccccccscssccsscccccccccccccccccccscccccccccssscccccscccccccscccccssssccscccsccscscccsccscccssccccccsscsssssccccccccccccccccccccssssscccsccccccccccscccccccccccccccsscccccccccccsssccccccssccsssscccssscccccccccssscccccccccssccccccccsssccccccscsccccsscccccccccccccccccccccssccccccccccccccccccccccccccccccccccccccccccccccccccccccccccsccccccccccccccccccssccccsssscsccscsccccccsccsscsccccsccscccccssscscccccccccccscsccccccccccsccccccscccccccccccccccccccccccccscccsccccccccccccccccccccccsccccccccccccccccccsccccccccscsscsccccccccccccccccccccscccccccccccscccscccccscscsccsccccccccccccccccscccccsccccccccccccccccccccscscsccsscccccsccccsscsccccsscccccccscccccccccccccccccccccccccccccccsccccccccccccccccccccccccccccccccccccccc" />
</svg>
