<?xml version="1.0" encoding="UTF-8" standalone="no"?>
<svg
   xmlns:dc="http://purl.org/dc/elements/1.1/"
   xmlns:cc="http://web.resource.org/cc/"
   xmlns:rdf="http://www.w3.org/1999/02/22-rdf-syntax-ns#"
   xmlns:svg="http://www.w3.org/2000/svg"
   xmlns="http://www.w3.org/2000/svg"
   xmlns:sodipodi="http://sodipodi.sourceforge.net/DTD/sodipodi-0.dtd"
   xmlns:inkscape="http://www.inkscape.org/namespaces/inkscape"
   width="16.353159"
   height="17.983217"
   id="svg2214"
   sodipodi:version="0.32"
   inkscape:version="0.45"
   sodipodi:docname="A252.svg"
   inkscape:output_extension="org.inkscape.output.svg.inkscape"
   sodipodi:docbase="C:\Program Files\JSesh\fontsST"
   sodipodi:modified="true">
  <metadata
     id="metadata2221">
    <rdf:RDF>
      <cc:Work
         rdf:about="">
        <dc:format>image/svg+xml</dc:format>
        <dc:type
           rdf:resource="http://purl.org/dc/dcmitype/StillImage" />
      </cc:Work>
    </rdf:RDF>
  </metadata>
  <defs
     id="defs2219" />
  <sodipodi:namedview
     inkscape:window-height="480"
     inkscape:window-width="640"
     inkscape:pageshadow="2"
     inkscape:pageopacity="0.0"
     guidetolerance="10.0"
     gridtolerance="10.0"
     objecttolerance="10.0"
     borderopacity="1.0"
     bordercolor="#666666"
     pagecolor="#ffffff"
     id="base" />
  <path
     style="fill:#000000; stroke:none"
     d="M 12.900242,13.525697 C 12.860882,13.604417 12.895322,13.759397 13.003562,13.990637 C 13.111801,14.221877 13.308601,14.349797 13.593962,14.374396 C 13.879322,14.398997 14.076122,14.357177 14.184361,14.248937 C 14.292602,14.140696 13.864562,13.899616 12.900242,13.525697 z M 2.12544,9.097696 L 2.12544,9.068176 C 2.19432,8.723776 2.44524,8.551576 2.8782,8.551576 C 3.03564,8.571256 3.11436,8.600776 3.11436,8.640136 L 3.11436,8.669656 C 3.11436,8.836936 2.88804,9.023896 2.4354,9.230536 C 2.27796,9.230536 2.17464,9.186256 2.12544,9.097696 z M 4.560841,9.023896 L 4.221361,8.876296 C 4.831441,8.433496 5.1709207,8.020216 5.2398,7.636456 C 4.7674807,7.882456 4.531321,8.049736 4.531321,8.138296 C 4.364041,8.492536 4.093441,8.709016 3.719521,8.787736 C 3.9163203,8.610616 4.01472,8.423656 4.01472,8.226856 C 4.01472,8.089096 3.86712,7.980856 3.57192,7.902136 C 2.88312,7.902136 2.47968,7.956256 2.3616,8.064496 C 2.24352,8.172736 2.00736,8.531896 1.65312,9.141976 L 0.91512,10.130897 C 0.86592,10.367056 0.96924,10.539256 1.22508,10.647496 C 1.87452,10.352297 2.43048,10.185017 2.89296,10.145657 C 3.2472,10.185017 3.5916003,9.8504567 3.926161,9.141976 L 4.177081,9.171496 C 4.127881,9.761896 3.9409207,10.180096 3.6162,10.426096 C 3.87204,10.544176 4.13772,10.952536 4.41324,11.651176 C 4.6297207,12.093976 4.920001,12.507256 5.284081,12.891017 L 5.284081,12.359656 C 5.284081,11.296936 5.648161,10.504816 6.376321,9.983296 C 6.012241,10.898416 5.862181,11.614276 5.926141,12.130877 C 5.990101,12.647477 6.145081,13.009097 6.391081,13.215736 C 6.774841,13.373177 7.348021,13.437137 8.110621,13.407617 C 8.873221,13.378097 9.404581,13.402697 9.704701,13.481417 C 10.004821,13.560137 10.391041,13.542917 10.863361,13.429757 C 11.335681,13.316596 11.935921,13.279696 12.664082,13.319057 C 12.201602,12.718816 11.842442,11.882416 11.586601,10.809856 C 11.901482,11.341216 12.297542,11.916856 12.774781,12.536777 C 13.252022,13.156697 13.805522,13.550297 14.435282,13.717577 C 14.740322,12.753256 14.897762,11.870116 14.907602,11.068156 C 14.917442,10.266196 14.656682,9.879976 14.125321,9.909496 L 9.726841,9.865216 C 7.847401,9.835696 6.3418807,9.550336 5.21028,9.009136 L 5.003641,8.861536 L 4.560841,9.023896 L 4.560841,9.023896 z M 10.007281,6.263776 L 11.512801,6.263776 L 11.291402,5.009176 C 11.478361,4.645096 11.473441,4.335136 11.276642,4.079296 L 10.376282,4.300695 L 10.007281,6.263776 z M 10.110601,0.832095 L 10.110601,0.787815 L 10.169641,0.714015 C 10.238522,0.674655 10.327082,0.694335 10.435321,0.773055 L 10.523881,0.787815 L 10.538641,0.832095 L 10.435321,0.817335 C 10.327082,0.866535 10.228682,0.871455 10.140121,0.832095 L 10.110601,0.832095 z M 10.169641,0.787815 C 10.189322,0.787815 10.213922,0.792735 10.243442,0.802575 C 10.213922,0.782895 10.209002,0.763215 10.228682,0.743535 C 10.199162,0.743535 10.179482,0.758295 10.169641,0.787815 z M 10.302482,0.817335 C 10.332002,0.807495 10.361522,0.797655 10.391042,0.787815 L 10.302482,0.743535 C 10.322162,0.773055 10.322162,0.797655 10.302482,0.817335 z M 10.036801,1.053495 C 10.026961,1.043655 10.024501,1.036275 10.029421,1.031355 C 10.034341,1.026435 10.041721,1.019055 10.051561,1.009215 C 10.061401,1.009215 10.073701,1.021515 10.088461,1.046115 C 10.103221,1.070715 10.115521,1.078095 10.125361,1.068255 C 10.135201,1.058415 10.137661,1.046115 10.132741,1.031355 C 10.127821,1.016595 10.130281,1.009215 10.140121,1.009215 C 10.149961,1.009215 10.157341,1.021515 10.162261,1.046115 C 10.167181,1.070715 10.159801,1.087935 10.140121,1.097775 C 10.120441,1.107615 10.100761,1.100235 10.081081,1.075635 C 10.061401,1.051035 10.046641,1.043655 10.036801,1.053495 z M 10.671481,0.654975 C 10.553401,0.566415 10.405801,0.522135 10.228682,0.522135 C 10.209002,0.551655 10.189322,0.591015 10.169641,0.640215 C 10.238522,0.600855 10.307402,0.598395 10.376282,0.632835 C 10.445161,0.667275 10.504201,0.689415 10.553401,0.699255 L 10.553401,0.743535 C 10.484521,0.733695 10.415641,0.714015 10.346762,0.684495 C 10.277882,0.654975 10.209002,0.654975 10.140121,0.684495 C 10.081081,0.753375 10.022041,0.871455 9.963001,1.038735 C 10.031881,1.058415 10.07804,1.0889488 10.062415,1.1498675 C 10.045302,1.2165878 10.200875,1.1640228 10.206541,1.1950125 C 10.219423,1.2654737 10.176381,1.1937338 10.117549,1.2466862 C 10.098205,1.2640966 10.076763,1.4333776 10.251701,1.422495 C 10.394696,1.4135995 10.521421,1.456935 10.546021,1.643895 C 10.570621,1.830855 10.469761,1.924335 10.243442,1.924335 C 10.026961,1.924335 9.943321,1.971075 9.992521,2.064555 C 10.041721,2.158035 10.115521,2.325315 10.213922,2.566395 C 10.312322,2.807475 10.371362,3.3019353 10.391042,4.049776 L 11.232362,3.857895 C 11.193002,3.503655 11.249582,3.092835 11.402102,2.625435 C 11.554621,2.158035 11.512801,1.924335 11.276642,1.924335 C 11.030641,1.924335 10.892881,1.737375 10.863361,1.363455 C 10.843681,1.324095 10.814161,1.269975 10.774801,1.201095 C 10.735441,1.132215 10.747741,1.065795 10.811702,1.001835 C 10.875661,0.937875 10.924861,0.861615 10.959301,0.773055 C 10.993742,0.684495 10.983902,0.625455 10.929781,0.595935 C 10.875661,0.566415 10.819081,0.586095 10.760041,0.654975 C 10.701001,0.723855 10.671481,0.723855 10.671481,0.654975 z M 10.464841,6.470416 C 10.317242,6.598336 10.253282,6.772996 10.272962,6.994396 C 10.292642,7.215796 10.196702,7.547896 9.985141,7.990696 C 9.773581,8.433496 9.657961,8.743456 9.638281,8.920576 C 9.766201,9.1862567 9.662881,9.319097 9.328321,9.319097 L 8.427961,9.319097 C 8.250841,9.338777 8.181961,9.2994167 8.221321,9.201016 C 8.260681,9.102616 8.364001,9.053416 8.531281,9.053416 C 8.806801,8.945176 8.993761,8.866456 9.092161,8.817256 C 9.190561,8.768056 9.2840413,8.615536 9.372602,8.359696 C 9.4611613,8.113696 9.584161,7.483936 9.741601,6.470416 L 10.184402,4.094056 C 10.184402,3.4052553 10.095842,2.864055 9.918721,2.470455 C 9.771121,2.824695 9.466081,3.237975 9.003601,3.710295 C 8.865841,3.690615 8.701021,3.5774553 8.509141,3.370816 C 8.317261,3.1641753 8.122921,2.928015 7.926121,2.662335 C 7.847401,2.721375 7.680121,2.755815 7.424281,2.765655 C 7.335721,2.765655 7.306201,2.603295 7.335721,2.278575 C 7.276681,2.239215 7.252081,2.175255 7.261921,2.086695 L 7.483321,2.086695 C 7.699801,2.086695 7.862161,2.175255 7.970401,2.352375 C 8.501761,2.785335 8.821561,3.070695 8.929801,3.208455 C 9.047881,3.001815 9.180721,2.790255 9.328321,2.573775 C 9.475921,2.357295 9.589081,2.165415 9.667801,1.998135 C 9.746521,1.830855 9.862141,1.749675 10.014661,1.754595 C 10.167182,1.759515 10.287722,1.732455 10.376282,1.673415 L 10.346762,1.511055 C 10.238522,1.520895 10.159802,1.523355 10.110601,1.518435 C 10.061401,1.513515 10.036801,1.479075 10.036801,1.415115 C 10.036801,1.351155 10.022041,1.311795 9.992521,1.297035 C 9.963001,1.282275 9.958081,1.265055 9.977761,1.245375 C 9.997441,1.225695 10.002361,1.215855 9.992521,1.215855 C 9.972841,1.215855 9.958081,1.208475 9.948241,1.193715 C 9.938401,1.178955 9.948241,1.161735 9.977761,1.142055 C 9.958081,1.122375 9.9310213,1.107615 9.896582,1.097775 C 9.8621413,1.087935 9.859681,1.038735 9.889201,0.950175 C 9.958081,0.812415 10.017121,0.704175 10.066321,0.625455 C 10.145042,0.261375 10.297562,0.059655 10.523881,0.020295 C 10.750201,-0.019065 10.966681,-0.006765 11.173322,0.057195 C 11.379961,0.121155 11.483281,0.276135 11.483281,0.522135 C 11.502961,0.748455 11.458681,0.928035 11.350441,1.060875 C 11.242202,1.193715 11.133962,1.284735 11.025722,1.333935 L 11.025722,1.348695 C 11.035562,1.437255 11.052782,1.520895 11.077381,1.599615 C 11.101982,1.678335 11.237282,1.717695 11.483281,1.717695 C 11.719442,1.717695 11.901482,1.875135 12.029402,2.190015 C 12.275401,2.701695 12.442681,3.0952953 12.531241,3.370816 C 12.609962,3.9907353 12.585362,4.5024153 12.457441,4.905856 C 12.526321,5.092816 12.560761,5.267476 12.560761,5.429836 C 12.560761,5.592196 12.496801,5.766856 12.368881,5.953816 C 12.309841,5.963656 12.270481,5.951356 12.250801,5.916916 C 12.231121,5.882476 12.236041,5.845576 12.265561,5.806216 C 12.324601,5.707816 12.359041,5.609416 12.368881,5.511016 C 12.378721,5.412616 12.359041,5.2896157 12.309841,5.142015 C 12.250801,5.2108957 12.226201,5.299456 12.236041,5.407696 C 12.245881,5.5159353 12.216361,5.565135 12.147482,5.555295 C 12.088442,5.289615 12.113042,5.0731353 12.221281,4.905856 L 12.236041,4.905856 C 12.265561,4.699216 12.253261,4.4925757 12.199142,4.285935 C 12.145022,4.0792957 12.142562,3.774256 12.191762,3.370816 C 11.965442,3.1248153 11.783402,2.844375 11.645641,2.529495 C 11.419322,3.178935 11.345522,3.5971353 11.424241,3.784096 C 11.611201,4.236736 11.645641,4.645096 11.527561,5.009176 L 11.734201,6.470416 C 11.852282,6.864016 11.884262,7.284676 11.830141,7.732396 C 11.776021,8.180116 11.763721,8.576176 11.793242,8.920576 C 11.950682,9.1960967 11.857202,9.328937 11.512801,9.319097 L 10.671481,9.333857 C 10.484522,9.333857 10.413182,9.2871167 10.457461,9.193636 C 10.501741,9.100156 10.602601,9.053416 10.760041,9.053416 C 11.015882,8.984536 11.188082,8.920576 11.276642,8.861536 C 11.365201,8.802496 11.399641,8.649976 11.379961,8.403976 C 11.360281,8.118616 11.281561,7.474096 11.143802,6.470416 L 10.464841,6.470416 z M 7.409521,9.112456 L 7.409521,0.448335 L 7.660441,0.448335 L 7.660441,9.141976 C 8.241001,9.2600567 8.969161,9.319097 9.844921,9.319097 L 15.247082,9.304337 C 15.473402,9.324017 15.748922,9.5700167 16.073643,10.042336 C 16.162202,10.209616 16.245842,10.450696 16.324562,10.765576 C 16.383602,13.314137 16.359002,14.868857 16.250763,15.429737 C 16.162202,15.616697 16.058882,15.577337 15.940802,15.311657 C 15.557042,14.386696 15.406982,13.491256 15.490622,12.625337 C 15.574262,11.759416 15.557042,11.016496 15.438962,10.396576 C 15.370082,11.282177 15.276602,12.133337 15.158522,12.950057 C 15.040441,13.766777 15.212641,14.716337 15.675122,15.798737 C 15.448802,16.064416 15.379922,16.458017 15.468482,16.979538 C 15.291362,17.087777 15.227402,17.210777 15.276602,17.348537 L 15.409442,17.820858 C 15.389762,17.879898 15.320882,17.934018 15.202802,17.983217 L 14.213881,17.983217 C 14.302442,17.628977 14.400842,17.387897 14.509082,17.259977 L 14.686202,16.772898 C 14.784602,16.349778 14.833802,16.015218 14.833802,15.769217 C 14.833802,15.355937 14.696042,14.878697 14.420522,14.337497 L 14.391002,14.544137 L 14.494322,14.824576 C 14.435282,14.982017 14.356562,15.001697 14.258162,14.883616 L 14.154841,14.603177 L 13.977722,14.647457 L 14.022002,14.913136 C 13.962962,15.070577 13.884242,15.090257 13.785842,14.972177 L 13.741562,14.691737 L 13.579202,14.691737 L 13.520162,14.986937 C 13.392241,15.095177 13.313521,15.070577 13.284001,14.913136 L 13.343041,14.632697 L 13.165921,14.573657 L 13.062602,14.898376 C 12.924842,14.996777 12.846122,14.967257 12.826442,14.809817 L 12.929762,14.499857 C 12.851042,14.391617 12.691142,14.558897 12.450062,15.001697 C 12.208982,15.444497 12.088442,16.113617 12.088442,17.009058 C 11.763721,17.077937 11.591521,17.240297 11.571841,17.496138 C 11.670241,17.732298 11.630881,17.879898 11.453761,17.938938 L 10.420561,17.938938 C 10.518961,17.624058 10.651801,17.378058 10.819081,17.200937 C 11.379961,16.443257 11.692381,15.707717 11.756342,14.994317 C 11.820302,14.280916 11.766182,13.887316 11.593982,13.813517 C 11.421781,13.739717 11.143801,13.801217 10.760041,13.998016 C 10.376282,14.194817 10.056482,14.234177 9.800641,14.116096 C 9.5448017,13.998016 9.1708817,13.929136 8.678881,13.909457 C 8.216401,13.879937 7.596481,13.958657 6.819121,14.145617 L 6.819121,14.175137 C 6.819121,14.421137 6.878161,15.237857 6.996241,16.625298 L 7.099561,17.171417 C 6.961801,17.279656 6.907681,17.407577 6.937201,17.555178 L 7.025761,17.924177 L 5.844961,17.924177 C 5.884321,17.589617 5.987641,17.358377 6.154921,17.230457 C 6.302521,16.876217 6.376321,16.644977 6.376321,16.536737 C 6.376321,16.044737 6.258241,15.424817 6.022081,14.676977 C 5.854801,14.381777 5.613721,14.234177 5.298841,14.234177 C 4.629721,15.926658 4.295161,16.866378 4.295161,17.053337 L 4.295161,17.068098 C 4.0983603,17.146817 3.99996,17.255056 3.99996,17.392817 L 4.04424,17.791338 C 4.04424,17.919257 3.7834803,17.983217 3.261961,17.983217 C 2.9372403,17.983217 2.77488,17.919257 2.77488,17.791338 C 2.77488,17.476457 2.9028,17.230457 3.15864,17.053337 C 4.00488,16.010297 4.4034,14.913137 4.3542,13.761857 C 4.3542,12.915616 4.08852,12.098896 3.55716,11.311696 C 4.42308,10.573697 5.1758403,9.6831767 5.815441,8.640136 L 6.302521,8.876296 C 5.505481,9.998056 4.6740007,10.937776 3.80808,11.695457 C 3.48336,11.075536 3.15372,10.731136 2.81916,10.662256 C 2.02212,10.947617 1.4514,11.134577 1.107,11.223136 C 0.68388,11.065697 0.47232,10.859057 0.47232,10.603216 C 0.16728,10.396576 0.12792,10.182556 0.35424,9.961156 C 0.58056,9.739756 0.80196,9.493756 1.01844,9.223156 C 1.23492,8.952556 1.41696,8.677036 1.56456,8.396596 C 1.71216,8.116156 1.76136,7.848016 1.71216,7.592176 C 0.58056,6.470416 0.00984,5.279776 0,4.020256 C 0.03936,3.8431353 0.10824,3.823455 0.20664,3.961215 C 0.21648,3.9808957 0.31242,4.256416 0.49446,4.787776 C 0.6765,5.319136 0.9594,5.796376 1.34316,6.219496 C 1.72692,6.642616 2.091,6.987016 2.4354,7.252696 L 3.719521,7.252696 C 3.975361,7.223176 4.3345207,6.937816 4.797,6.396616 C 5.2594807,5.855416 5.579281,5.319136 5.756401,4.787776 C 5.933521,4.256416 6.027001,3.9808957 6.036841,3.961215 C 6.145081,3.823455 6.213961,3.8431353 6.243481,4.020256 C 6.243481,5.319136 5.662921,6.544216 4.501801,7.695496 C 4.7379603,7.469176 5.0922003,7.287136 5.564521,7.149376 C 5.584201,7.326496 5.584201,7.479016 5.564521,7.606936 C 5.544841,7.734856 5.4415207,7.966096 5.25456,8.300656 L 5.25456,8.300656 C 5.8646407,8.664736 6.582961,8.935336 7.409521,9.112456 z "
     id="path2216"
     sodipodi:nodetypes="cssscccscccccccccscscccccccccccscsssccscsccccccccccccccccccccccssccccccsssssssssccsssccsscssssssssccssssssssccsscccscssccccscscccccsssccssssssssscssssccsscccssssscscccsccsccscccscsscccccccccccsscsccccccccscccccccccccccccccscccccsssssccccccccsccccccsscccccccccsssccsssccssscscsccc" />
</svg>
