<?xml version="1.0" encoding="UTF-8" standalone="no"?>
<svg
   width="1717.8782"
   height="1795.2721"
   version="1.1"
   id="svg2"
   sodipodi:docname="A255.svg"
   inkscape:version="1.4 (e7c3feb1, 2024-10-09)"
   xmlns:inkscape="http://www.inkscape.org/namespaces/inkscape"
   xmlns:sodipodi="http://sodipodi.sourceforge.net/DTD/sodipodi-0.dtd"
   xmlns="http://www.w3.org/2000/svg"
   xmlns:svg="http://www.w3.org/2000/svg"
   xmlns:rdf="http://www.w3.org/1999/02/22-rdf-syntax-ns#"
   xmlns:cc="http://creativecommons.org/ns#"
   xmlns:dc="http://purl.org/dc/elements/1.1/">
  <title
     id="title3">A255</title>
  <defs
     id="defs2" />
  <sodipodi:namedview
     id="namedview2"
     pagecolor="#ffffff"
     bordercolor="#000000"
     borderopacity="0.25"
     inkscape:showpageshadow="2"
     inkscape:pageopacity="0.0"
     inkscape:pagecheckerboard="0"
     inkscape:deskcolor="#d1d1d1"
     inkscape:zoom="0.17985626"
     inkscape:cx="389.19968"
     inkscape:cy="1181.499"
     inkscape:window-width="1448"
     inkscape:window-height="832"
     inkscape:window-x="-1"
     inkscape:window-y="25"
     inkscape:window-maximized="0"
     inkscape:current-layer="svg2" />
  <path
     id="path1"
     style="fill:#000000;stroke:none;stroke-width:47.8831"
     d="m 1446.6476,0 c -66.8483,159.99775 -122.7371,256.43433 -167.6679,289.31055 -33.9723,-23.01338 -59.7259,-42.19097 -77.2598,-57.53321 -17.5341,-15.34224 -35.8906,-33.42446 -55.0684,-54.24609 -19.1778,-20.82163 -29.0399,-45.75228 -29.5879,-74.79297 -0.5479,-29.040682 7.6722,-47.671569 24.6582,-55.890624 7.721,-3.735936 14.7626,-5.603515 21.125,-5.603515 7.6348,0 14.2901,2.690575 19.9688,8.070312 10.4109,9.862916 12.6038,20.273705 6.5762,31.232422 -3.0138,5.479388 -6.2337,8.21875 -9.6582,8.21875 -3.4246,0 -7.055,-2.739362 -10.8907,-8.21875 -7.671,-10.958717 -14.7938,-16.4375 -21.3691,-16.4375 -7.6711,5.479321 -9.0407,14.520465 -4.1094,27.123047 4.9317,12.602588 15.6169,18.902348 32.0547,18.902348 27.3969,0 41.0957,-12.054835 41.0957,-36.164067 0,-24.109293 -9.8641,-41.917179 -29.5898,-53.423828 -9.0053,-5.253073 -18.3525,-7.878906 -28.043,-7.878906 -11.5362,0 -23.5573,3.723168 -36.0645,11.167969 -23.0134,13.698445 -34.5214,39.724477 -34.5214,78.080082 0,38.3556 14.2475,72.05501 42.7402,101.0957 28.4928,29.04068 62.4645,57.80607 101.916,86.29883 h -179.1758 c 7.6711,32.8762 12.8775,56.43721 15.6172,70.68359 2.7397,14.24638 5.2046,26.30116 7.3965,36.16406 -8.767,10.95872 -18.6292,27.39694 -29.5879,49.31446 -5.4795,13.15051 -5.2083,20.54764 0.8164,22.1914 6.0273,1.6438 10.6851,3.56216 13.9727,5.75391 -4.3839,3.28765 -6.0279,6.027 -4.9317,8.21875 1.0955,2.19146 3.8361,3.83579 8.2188,4.93164 -0.2432,0.24498 -1.0967,1.09722 -3.2891,3.28711 -3.2876,3.28765 -2.7387,6.02896 1.6445,8.2207 4.3832,2.19175 6.0274,7.12187 4.9317,14.79297 -1.0956,7.67111 1.0953,12.60319 6.5742,14.79492 l -25.6816,62.61328 c -2.8714,-0.005 -5.8151,-0.0547 -8.8321,-0.14843 -31.7804,4.38356 -58.62937,31.78124 -80.54677,82.1914 -48.2185,55.88963 -83.8342,105.2023 -106.8477,147.94141 -46.0267,-9.86287 -107.9429,-23.01305 -185.75,-39.45117 -17.5341,-3.28759 -35.6162,-14.79377 -54.2461,-34.51953 l -4.5664,-0.45704 11.1406,-38.99414 -187.3945,-299.17382 -182.4629,302.46093 16.4375,46.02735 -52.6016,85.47851 46.0274,27.94336 174.2441,-289.31055 100.7871,159.04102 c -7.5138,0.0155 -15.9044,0.15245 -25.1718,0.41016 -1.0957,13.15051 8.7665,24.10802 29.5879,32.875 3.2876,39.45154 24.6579,65.20515 64.1093,77.25976 l 1.0098,-0.82031 8.8535,13.9707 44.3828,-26.30078 -0.3496,-0.57617 c 47.5944,13.6538 83.8749,26.72165 108.8418,39.20508 29.5886,14.79428 63.5604,22.74007 101.916,23.83594 73.4236,-75.61532 132.60237,-139.72419 177.53317,-192.32618 30.6845,59.17717 47.1208,158.90177 49.3125,299.17386 l -48.2773,118.623 c -2.6024,-3.1542 -7.9067,-4.4202 -17.1348,-2.5215 -79.36587,-8.3161 -160.04267,-6.7366 -238.31437,9.6719 -65.6047,11.1209 -132.7625,3.9078 -196.2637,-14.8945 -74.9889,-21.2594 -148.9299,-46.9976 -225.8535,-60.75 24.6102,-31.0097 44.2168,-71.64063 31.0742,-111.73049 4.4852,-28.98876 -44.5582,-47.67696 -52.3438,-26.77149 2.7067,39.11685 -6.5692,85.79638 -45.1269,104.67968 -25.8922,12.2628 -54.0751,29.746 -83.3965,24.8418 -26.2749,8.4959 -53.9236,3.7654 -79.4668,-5.8809 -43.471702,-19.835 -85.088002,-59.87004 -80.982402,-111.45308 4.3952,-11.98252 -19.8176,-21.9542 -2.5215,-27.20898 l -7.0859,0.27148 v 0.002 C 17.343828,897.125 -0.95197238,931.84067 0.03822762,959.21879 1.8897276,1015.4656 28.882128,1073.5186 77.803928,1103.8164 c 33.048902,10.4076 44.836402,34.5482 27.941402,66.4766 -4.0535,35.3859 -43.800802,56.6663 -34.605502,93.9882 7.2751,41.7519 57.206402,39.0769 89.765602,41.6114 22.1002,-2.0447 33.7342,-18.5053 52.4922,0.9804 28.1485,7.6786 35.8584,43.2013 54.6133,60.4043 1.317,48.6312 25.9786,93.4038 57.6816,129.0411 -15.5561,23.9174 -54.3581,30.2096 -55.7597,63.4824 -4.3661,31.5902 -21.962,61.7662 -48.2227,79.7558 -14.4949,25.5017 -35.0848,46.1196 -49.5254,71.8789 -3.1546,14.813 -36.5807,55.3067 -6.3906,49.9942 h 105.7637 c 10.8534,-23.341 21.029,-44.7318 42.7773,-56.0332 1.4918,-30.206 13.5976,-58.1881 32.7891,-82.0274 17.4469,-15.7619 35.1586,-33.2078 55.6972,-45.4863 -3.3757,38.6296 -30.489,67.0213 -56.7011,92.0332 -10.5037,26.1122 -35.6163,42.2491 -46.5117,68.6445 -18.0867,20.1 -14.6731,52.5975 18.4531,42.9747 34.8095,-6.1686 89.0362,20.3113 99.5742,-26.6622 9.8977,-20.8693 39.0582,-27.1607 31.3047,-57.6738 10.7386,-24.3422 22.7389,-52.9904 46.1152,-67.0371 21.7662,-27.056 56.7788,-29.594 84.627,-47.7578 25.0004,-18.416 34.5306,-53.9811 71.1211,-40.6504 28.1519,6.0852 78.5692,-21.4864 74.6015,23.4902 -1.5733,28.9041 19.1173,31.8315 42.9551,30.5938 4.686,-29.7421 8.7036,-61.5657 46.1895,-59.6777 29.3079,-6.9086 58.8526,-12.7386 88.3886,-18.5762 -15.862,43.9902 -29.2614,78.2888 -39.0215,98.2851 -22.4654,46.0268 -43.5614,72.3271 -63.2871,78.9024 -19.7258,6.5751 -53.6975,21.3694 -101.916,44.3828 -31.7804,6.5752 -51.2322,17.2604 -58.3554,32.0547 -6.2042,12.8854 3.1799,19.3281 28.1503,19.3281 3.6992,0 7.7395,-0.1438 12.1231,-0.4297 42.7391,0 74.5201,-2.4647 95.3418,-7.3965 8.9236,-2.1134 18.9541,-3.1699 30.0918,-3.1699 14.8502,0 31.6687,1.8772 50.4551,5.6348 6.1643,1.2326 11.7111,1.8496 16.6425,1.8496 2.9556,0 5.6377,-0.274 8.1504,-0.7168 23.7253,15.7291 60.2109,3.0062 89.0118,7.0078 30.43107,9.0136 36.76977,-14.646 41.90817,-39.9355 42.1719,9.1586 41.9753,-38.6729 41.2089,-67.1641 0.734,-33.1474 17.2259,-88.903 39.4414,-92.4707 19.7408,34.4142 24.4583,75.0429 24.2559,114.0586 -20.9897,18.7108 -50.6694,56.4633 -32.1621,83.4043 41.3417,2.5929 83.2763,0.3824 124.8477,1.1094 v -40.1036 c 38.1607,-7.1984 18.1451,-48.9684 10.4785,-72.6386 -18.0548,-48.5268 -25.7471,-100.1229 -26.5723,-151.7481 -15.0043,-23.4643 -35.1932,-44.9461 -44.3535,-72.2207 10.6629,-32.1165 26.5062,-69.3075 26.6719,-106.373 13.4595,70.3569 28.1082,140.9604 56.8047,206.9746 21.4655,50.6955 39.6134,104.5001 74.4355,147.9258 30.3798,41.2698 86.2997,-3.5136 70.6641,-45.916 -12.1542,-75.0744 -70.8649,-129.1437 -110.9512,-190.2422 -18.8287,-22.0186 -23.7413,-50.006 -26,-77.961 -4.4538,-30.6599 -10.0177,-61.1549 -16.709,-91.4082 h 15.2344 c 9.8628,30.6846 19.9993,48.4924 30.4101,53.4238 10.4109,4.9318 23.2886,17.8096 38.6309,38.6309 15.3422,20.8216 50.4094,56.9841 105.2031,108.4902 54.7938,51.5061 82.1914,97.5327 82.1914,138.0801 1.0957,31.7804 -3.5621,57.5341 -13.9726,77.2598 -10.4109,19.7257 -28.4931,33.6988 -54.2461,41.918 -25.753,8.219 -36.4381,16.7114 -32.0547,25.4785 4.3833,8.767 19.7261,13.1504 46.0273,13.1504 h 73.9707 c 39.451,-71.2294 69.5885,-121.0912 90.4102,-149.584 19.7258,-29.5886 3.8343,-52.0523 -47.6719,-67.3946 -15.3421,-16.438 -38.0802,-59.4528 -68.2168,-129.041 -30.1365,-69.588 -58.0829,-112.0523 -83.8359,-127.3945 -25.7532,-15.3423 -40.8197,-40.5473 -45.2031,-75.6152 v -187.3946 c 1.0956,-65.75241 -8.2198,-118.90177 -27.9454,-159.44914 -1.6833,-13.46786 -2.7079,-27.25238 -3.0722,-41.35352 65.7504,19.83047 120.5184,29.74414 164.3027,29.74414 20.4265,0 38.4616,-2.15658 54.1074,-6.47266 C 1486.0989,752.86669 1438.4301,668.21061 1405.5539,627.11527 1384.8049,601.17906 1361,584.95512 1334.1398,578.4434 l 86.207,-152.69531 152.875,447.11523 24.6563,-9.86133 -16.4375,-44.38281 31.2324,-13.15039 21.3691,41.09375 23.0137,-11.50586 -21.3691,-41.0957 31.2324,-13.15039 26.3008,41.0957 24.6582,-13.15039 -253.1484,-361.63867 c -15.6033,-35.2767 -30.5767,-52.91602 -44.92,-52.91602 -8.8266,0 -17.4142,6.67986 -25.7636,20.03906 l -90.9532,160.96289 c -6.2534,0.1436 -12.6464,0.7354 -19.1816,1.7754 -35.0679,-1.09593 -46.0274,-25.20545 -32.877,-72.32813 16.4381,-27.39679 30.6855,-51.23214 42.7403,-71.50586 C 1305.8292,412.87084 1365.5527,268.48931 1472.9484,0 Z M 1088.298,313.96875 h 233.4199 c -23.0133,67.94422 -54.2457,127.66966 -93.6972,179.17578 l -9.8633,-21.37109 c 29.5886,-40.54734 37.5344,-69.86148 23.8359,-87.94336 -6.367,-8.40431 -14.4506,-12.60547 -24.25,-12.60547 -11.2844,0 -24.8435,5.57088 -40.6797,16.71484 -12.2112,-13.22879 -35.7612,-19.84375 -70.6504,-19.84375 -2.6839,0 -5.4363,0.0407 -8.2539,0.11914 -3.2876,-20.82164 -6.5737,-38.90386 -9.8613,-54.24609 z m 17.0449,70.43945 c 48.1792,0 67.7027,12.68333 58.5703,38.05078 l 8.2188,3.28907 c 12.2436,-27.548 27.3362,-41.32227 45.2793,-41.32227 1.329,0 2.6743,0.0757 4.0351,0.22656 21.9174,7.67111 14.7947,33.4228 -21.3691,77.25782 -8.767,13.15044 -10.411,23.56131 -4.9316,31.23242 5.4795,7.6711 9.3142,15.34246 11.5058,23.01367 6.5752,61.36897 30.1381,92.05469 70.6856,92.05469 2.4053,0 4.7157,0.10183 6.9316,0.30859 l -79.3027,140.34375 c -21.4867,-13.84023 -43.9369,-24.01294 -67.3535,-30.51758 -6.5752,12.05464 -2.1918,25.20479 13.1504,39.45118 -12.7927,40.34594 -10.3429,65.00737 7.3496,73.98437 l -13.9258,24.64453 24.6562,14.79492 19.086,-33.80468 c 0.7998,0.0182 1.6011,0.0273 2.4043,0.0273 15.828,0 32.227,-3.53532 49.1953,-10.60547 20.152,7.59574 39.5147,14.47799 58.0879,20.64844 0.1396,15.74374 1.0497,31.32714 2.7324,46.74805 l -166.0254,65.75195 c -8.7669,-123.8339 -21.3684,-203.83223 -37.8066,-239.9961 -16.4382,-36.1638 -30.137,-62.19184 -41.0957,-78.08203 -10.9588,-15.89014 2.1913,-23.83398 39.4511,-23.83398 35.068,0 52.6016,-16.98681 52.6016,-50.95899 0,-34.64029 -8.448,-51.96093 -25.3457,-51.96093 -2.3469,0 -4.8567,0.33373 -7.5293,1.00195 -4.9816,1.24529 -9.3113,1.86914 -12.9902,1.86914 -12.5098,0 -17.4955,-7.19795 -14.9551,-21.59375 13.1505,-8.76704 17.5339,-14.79442 13.1504,-18.08203 -4.3833,-3.28765 -12.0547,-4.93164 -23.0137,-4.93164 1.0957,-5.47933 -4.3831,-10.41142 -16.4375,-14.79492 8.7671,-25.2051 18.0825,-42.73872 27.9453,-52.60157 5.7681,-2.8839 11.5353,-4.32617 17.3027,-4.32617 5.191,0 10.3833,1.16796 15.5743,3.50391 10.9588,4.93145 22.465,7.94517 34.5195,9.04101 l -1.6445,-6.57421 c -6.5752,-1.09584 -16.163,-4.38388 -28.7657,-9.86329 -7.0014,-3.04412 -13.5804,-4.5664 -19.7363,-4.5664 -4.9244,0 -9.5791,0.97365 -13.9629,2.92187 l 1.6446,-11.50586 c 4.221,-0.16222 8.2585,-0.24414 12.1132,-0.24414 z m 107.2989,9.34766 c -2.1398,2.6e-4 -4.6837,0.52665 -7.6329,1.58008 -7.6711,2.73976 -14.2472,8.76715 -19.7265,18.08203 -5.4795,9.31491 -7.1236,16.712 -4.9317,22.19141 -5.4795,3.28765 -8.4932,7.67106 -9.041,13.15039 -0.5451,5.4794 1.9203,9.04174 7.3965,10.68554 0.7473,0.22405 1.535,0.33594 2.3633,0.33594 5.2482,0 12.1323,-4.49517 20.6504,-13.48633 9.8629,-10.41082 15.8903,-20.00054 18.082,-28.76758 2.1919,-8.76698 2.1919,-15.34113 0,-19.72461 -1.3486,-2.69697 -3.7355,-4.0463 -7.1582,-4.04687 z m -2.2911,10.62109 v 0 c 2.4642,10e-4 3.4227,1.64507 2.875,4.93164 -1.0956,6.57524 -3.8348,13.15136 -8.2188,19.72657 -4.3832,6.5753 -8.7684,10.95863 -13.1523,13.15039 -1.1687,0.58438 -2.0245,0.87695 -2.5703,0.87695 -1.4999,0 -0.6441,-2.2108 2.5703,-6.63086 3.2145,-4.42006 4.0721,-6.62891 2.5723,-6.62891 -0.5452,0 -1.4028,0.29062 -2.5723,0.875 -1.1687,0.58439 -2.1033,0.87696 -2.8047,0.87696 -1.9287,0 -2.088,-2.20885 -0.4785,-6.62891 2.1919,-6.02735 5.48,-11.23373 9.8633,-15.61719 5.4774,-3.28633 9.4483,-4.93039 11.914,-4.93164 z m -105.0683,1.64453 c -4.3832,0 -8.4014,1.09537 -12.0547,3.28711 l -8.2188,9.86329 v 8.21874 l 4.9317,-1.64257 c 6.1371,3.57984 12.7505,5.36914 19.8418,5.36914 8.1045,0 16.834,-2.33799 26.1855,-7.01367 l 16.4375,3.2871 -1.6425,-8.21874 h -14.795 c -11.6893,-8.76697 -21.9185,-13.15038 -30.6855,-13.1504 z m -2.1914,6.57618 c -2.192,4.38356 -1.6431,8.21828 1.6445,11.50586 -4.3833,-1.09584 -8.2199,-2.7399 -11.5078,-4.93164 1.0957,-3.28766 4.3837,-5.47832 9.8633,-6.57422 z m 13.1504,1.64257 13.1504,8.21875 c -5.4796,1.09584 -10.4096,1.64454 -14.793,1.64454 3.2876,-3.28759 3.8345,-6.57557 1.6426,-9.86329 z m -682.18167,32.87696 161.0938,258.07812 -4.9317,24.65821 -156.1621,-249.86133 -156.1621,254.79101 -4.9316,-24.65625 z m 654.63867,7.29297 v 0.002 c -0.1263,0 -0.2588,0.0331 -0.3984,0.10156 -1.0956,0.54782 -1.3689,1.9175 -0.8184,4.10938 0.5451,2.19181 -0.2756,3.8358 -2.4648,4.93164 -0.5452,0.2739 -1.0941,0.41211 -1.6446,0.41211 -1.6434,0 -3.2875,-1.23344 -4.9316,-3.69922 -2.192,-3.28759 -3.836,-4.93164 -4.9317,-4.93164 -1.0963,0 -2.1915,0.54869 -3.2871,1.64453 -1.0956,1.09591 -1.0956,2.73989 0,4.93164 0.7972,-0.797 1.6304,-1.19727 2.5,-1.19727 1.5212,0 3.1547,1.22125 4.8985,3.66211 1.918,2.68486 3.9683,4.02735 6.1543,4.02735 0.9368,0 1.9001,-0.24693 2.8867,-0.74024 3.2876,-1.64379 4.6572,-4.38314 4.1094,-8.21875 -0.4787,-3.35606 -1.1689,-5.03515 -2.0684,-5.03515 z m -15.3281,23.28125 v 0 c 0.9644,2.4e-4 2.1037,0.22032 3.418,0.6582 3.2876,1.09584 7.3985,1.64258 12.3301,1.64258 4.931,0 6.8475,0.54868 5.7519,1.64453 h -23.0136 c -2.192,0 -2.739,-0.823 -1.6426,-2.4668 0.6578,-0.98577 1.7094,-1.47801 3.1543,-1.47851 z m 21.5019,5.58984 c -2.1919,1.09591 -4.6586,2.73989 -7.3984,4.93164 -2.7397,2.19175 -5.7534,3.28711 -9.041,3.28711 -1.0957,0.54782 -2.0546,0.82227 -2.877,0.82227 -0.8217,0 -1.5049,-0.27445 -2.0527,-0.82227 -1.0963,-1.09584 -0.5494,-2.73989 1.6426,-4.93164 z m -660.81247,39.45117 138.5274,218.35742 c -3.5416,-0.54117 -7.9752,-0.95912 -13.3008,-1.2539 l -125.2266,-199.02149 -182.4629,299.17383 -8.2187,-4.93164 z m 667.38867,9.86328 h 19.7246 l -4.9316,42.73828 c -6.9178,4.94129 -15.8413,8.658 -26.7696,11.14844 z m 420.8145,47.66992 126.5742,177.53126 -24.6563,11.50781 z m -21.3692,9.86329 96.9844,189.03711 -24.6563,13.15234 z m -190.0801,29.6289 c 14.5839,14.70608 16.3004,43.45917 5.1504,86.25977 -7.1375,27.39987 -12.1945,54.36346 -15.1719,80.89258 -16.5706,-1.65976 -34.2518,-3.14398 -53.0449,-4.45508 -6.3511,-5.94146 -12.7989,-11.51869 -19.3418,-16.73242 z m 40.4942,75.57422 c 21.9175,41.64327 54.2452,81.64241 96.9843,119.99805 h -1.6445 c -25.4899,-10.19612 -63.3213,-18.45521 -113.4961,-24.7793 3.3608,-30.44747 9.4127,-62.18752 18.1563,-95.21875 z m -42.7403,238.35352 c 15.3422,25.20515 22.465,67.39705 21.3692,126.57425 v 197.2558 H 1037.339 l 103.5606,-251.5019 z M 213.61053,1097.6719 c 0.3576,0.077 0.6603,0.295 0.8906,0.7011 18.0382,18.7541 -39.78,-2.1901 -10.4511,2.1797 1.8665,2.9363 7.0575,-3.422 9.5605,-2.8808 z m 157.8633,7.4043 c 4.1047,-0.6179 9.258,0.6106 16,4.4707 94.9002,23.2772 183.8839,69.4181 282.3926,77.7773 70.2742,6.8939 141.0742,-0.4167 209.8183,-15.4726 48.9507,-8.8429 98.6819,-1.9941 147.76957,-0.3086 0.03,-0.031 0.069,-0.086 0.1,-0.1172 L 979.80623,1288.75 v -1.6445 c -17.6627,55.814 -33.0227,102.5727 -47.3261,145.1777 -22.4696,-1.9943 -63.9107,-36.3288 -63.8165,2.5781 -9.8495,18.0848 8.6618,26.8668 -15.7949,27.3028 -96.3377,19.8891 -195.7404,32.2511 -294.0293,22.1425 -37.8834,-5.0134 -63.1819,-39.7674 -102.2363,-43.9414 -35.6932,-11.1361 -52.691,-47.9298 -47.8223,-83.3789 -0.6547,-31.3897 14.9547,-59.727 37.4551,-80.5332 19.372,-24.3355 30.6662,-54.0021 38.3145,-83.8652 -3.2579,-28.3497 -56.7593,-35.2268 -51.375,0.6894 -7.2305,37.6843 -35.9707,63.2194 -57.4707,92.5411 -23.0822,42.7983 -16.6397,94.9434 -3.9063,139.9179 10.607,32.5046 41.64,51.1584 72.5,60.9688 20.7514,10.3833 -29.591,4.8708 -39.5937,0.4629 -30.7198,-6.5691 -51.983,-30.0626 -65.1407,-57.291 -15.8,-28.2318 -23.9573,-60.8948 -21.3515,-93.2735 -32.1887,-14.1982 -33.1087,-53.1866 -65.2891,-65.0879 -35.4593,1.8698 -37.6757,-54.1264 -64.0019,-51.8457 -29.4284,-9.2114 -16.013,56.5026 -37.2676,31.3496 4.4515,-22.1985 -21.8227,-34.4744 -3.3457,-55.8359 4.5728,-12.9206 6.4953,-34.0319 16.0879,-11.6719 22.8034,5.9327 55.5579,-29.8091 79.955,-21.4453 28.5555,-9.8818 60.6805,5.9451 88.6094,-9.0312 22.6072,-7.9495 20.7265,-45.2815 38.5137,-47.959 z m -141.5527,27.7871 c 5.163,5.829 -7.7163,2.9417 0,0 z m 887.74017,165.9805 c 0.2237,3.4745 1.1993,7.6317 3.3242,12.83 4.1696,45.9709 -7.5121,93.0446 -32.8828,131.6387 10.9671,23.9865 12.767,71.3831 -23.6523,42.1445 -5.6614,-2.6372 -11.6593,-6.143 -17.5274,-9.1211 18.2221,-32.9209 28.1095,-60.5138 29.0469,-82.3867 1.6385,-38.2395 15.5441,-69.9368 41.6914,-95.1054 z m -141.43747,281.9609 c 0.4782,2.7542 -0.1063,6.6409 -2.2129,12.1328 -5.4327,45.9824 -25.7565,90.9253 -62.3672,120.2832 -1.0599,1.1421 -1.9447,2.5056 -2.9766,3.6914 10.2545,-41.3694 32.7261,-86.7241 67.5567,-136.1074 z" />
  <metadata
     id="metadata3">
    <rdf:RDF>
      <cc:Work
         rdf:about="">
        <dc:title>A255</dc:title>
        <dc:creator>
          <cc:Agent>
            <dc:title>Serge Paul Thomas</dc:title>
          </cc:Agent>
        </dc:creator>
        <dc:description>Added a running Apis bull (S. Rosmorduc)</dc:description>
      </cc:Work>
    </rdf:RDF>
  </metadata>
</svg>
