<?xml version="1.0" encoding ="US-ASCII" standalone="yes"?>
<svg width="11.100101" height="17.98098">
<path style="fill:#000000; stroke:none" d=" M 8.305402 11.658684  L 8.039325 8.598799  Q 7.716231 8.218689 7.526176 8.218689  Q 7.431149 8.218689 7.336121 8.256701  Q 6.975017 8.389739 6.613913 8.522778  Q 6.252808 8.731837 6.214797 9.01692  L 5.340544 11.962772  L 8.305402 11.658684  Z  M 8.22938 4.740683  Q 8.096341 5.424881 8.172363 5.785985  L 9.635786 6.337145  Q 8.913577 5.120793 8.22938 4.740683  Z  M 7.659214 6.432172  Q 7.374132 6.299134 7.08905 6.299134  L 6.651924 6.318139  Q 6.385847 6.35615 5.986731 5.843002  Q 5.967726 5.481897 6.613913 5.481897  L 7.697226 5.804991  Q 7.716231 4.588639 7.88728 4.227535  Q 8.058331 3.866431 7.108055 3.467315  L 7.108055 2.859139  Q 6.860984 2.745106 6.841979 2.51704  Q 6.822973 2.288975 7.051039 2.089417  Q 7.279105 1.889859 7.421646 1.595274  Q 7.564187 1.300689 7.36463 1.215164  Q 7.165072 1.129639 6.965514 1.27218  Q 6.765956 1.414722 6.70894 1.243672  Q 6.081758 0.977595 5.958223 0.968092  Q 5.834687 0.95859 5.663638 1.224667  Q 5.986731 1.205661 6.290819 1.357705  Q 6.594907 1.509749 6.423858 1.528755  Q 5.815681 1.243672 5.56861 1.433727  L 5.1885 2.003892  Q 5.454577 2.13693 5.283528 2.288975  Q 5.511594 2.30798 5.597118 2.384002  Q 5.682643 2.460024 5.397561 2.593062  Q 5.416566 2.89715 5.891704 2.840134  Q 6.366841 2.783117 6.309824 3.334277  Q 6.309824 3.771403 5.834687 3.790409  Q 5.35955 3.809414 5.283528 4.303557  Q 5.283528 4.816705 5.540102 5.348859  Q 5.796676 5.881013 6.072256 6.555708  Q 6.347836 7.230403 6.300322 7.648524  Q 6.252808 8.066646 6.423858 8.08565  Q 7.032033 8.066646 7.393138 7.857584  Q 7.773248 7.743551 7.659214 6.432172  Z  M 8.096341 7.743551  Q 8.571479 8.42775 8.571479 9.39703  Q 8.894572 11.962772 9.027611 12.418903  Q 9.711808 12.989069 10.662083 15.782877  Q 11.327275 16.277018 10.985176 16.581106  Q 10.624072 16.961216 9.901863 17.949503  L 9.19866 17.930496  Q 9.23667 17.588398 9.474239 17.512375  Q 9.711808 17.436354 9.996891 17.056244  Q 10.091918 16.657129 10.186946 16.181992  Q 8.81855 13.711278 8.26739 13.046085  Q 7.868275 12.85603 7.868275 12.228848  L 5.720654 12.437909  Q 5.340544 12.932053 5.511594 13.255146  Q 5.663638 14.129398 3.858116 16.790167  Q 4.181209 17.607403 3.725077 17.778452  Q 3.192923 17.721436 2.242648 17.882982  Q 1.292374 18.044529 0.988286 17.949503  Q 1.216352 17.49337 1.843533 17.322321  Q 2.527731 17.284309 3.059885 16.809172  Q 3.763088 16.067959 4.390269 13.540228  Q 5.207506 10.119239 5.625627 9.149959  L 5.112478 9.149959  L 5.701649 8.256701  Q 5.283528 8.218689 5.378555 7.914601  Q 5.378555 7.553496 5.853693 7.591507  Q 5.967726 7.32543 5.673141 6.783774  Q 5.378555 6.242117 4.97944 5.139799  Q 4.333253 5.995046 2.86983 6.698249  Q 1.881544 6.204106 1.159335 5.139799  Q 0.646187 4.683667 0.190055 4.474606  Q 0 4.265546 0 4.075491  Q 0.038011 3.847425 0.114033 3.65737  Q 0.114033 3.201238 0.456132 3.27726  Q 0.798231 3.353282 1.425412 4.569633  Q 2.204638 5.158804 3.002868 5.843002  Q 3.83911 4.968749 4.846401 3.885436  Q 5.245517 3.334277 5.834687 3.334277  L 5.834687 3.144222  Q 5.530599 3.163227 5.340544 3.134719  Q 5.150489 3.106211 5.131484 2.944664  Q 5.112478 2.783117 5.064965 2.669084  Q 5.017451 2.555051 5.102975 2.507538  Q 5.1885 2.460024 5.093473 2.460024  Q 5.017451 2.460024 5.017451 2.403008  Q 5.017451 2.326985 5.074467 2.269969  Q 5.017451 2.212953 4.874909 2.212953  Q 4.732368 2.212953 4.827396 1.946875  Q 5.302533 1.3387 5.416566 1.015606  Q 5.967726 0.179364 6.623415 0.046326  Q 7.279105 -0.086713 7.88728 0.160359  Q 8.495457 0.40743 8.571479 0.95859  Q 8.6475 1.509749 8.352915 1.956378  Q 8.058331 2.403008 7.545182 2.726101  L 7.545182 3.239249  Q 9.027611 3.82842 9.797333 4.911733  Q 10.567056 5.995046 10.633574 6.679244  Q 10.700094 7.363441 10.415011 7.363441  Q 9.958879 7.28742 8.153358 6.622227  L 8.096341 7.743551  Z  M 5.435572 1.680799  Q 5.56861 1.452733 5.777671 1.433727  Q 5.986731 1.414722 6.309824 1.604777  L 6.575902 1.604777  L 6.575902 1.699804  L 6.309824 1.699804  Q 6.100764 1.851848 5.872698 1.861351  Q 5.644632 1.870853 5.435572 1.680799  Z  M 5.73966 1.528755  Q 5.682643 1.528755 5.587615 1.623782  Q 5.663638 1.737815 5.834687 1.737815  Q 5.644632 1.680799 5.73966 1.528755  Z  M 5.834687 1.737815  Q 5.986731 1.737815 6.195792 1.661793  Q 6.043747 1.585771 5.910709 1.528755  Q 6.024742 1.661793 5.834687 1.737815  Z  M 6.822973 1.794832  Q 6.746951 1.699804 6.870487 1.509749  Q 6.994022 1.319694 7.155569 1.27218  Q 7.317116 1.224667 7.355127 1.319694  Q 7.393138 1.414722 7.336121 1.576268  Q 7.279105 1.737815 7.060542 1.937373  Q 6.841979 2.13693 6.727945 2.089417  Q 6.613913 2.041903 6.642421 1.946875  Q 6.670929 1.851848 6.822973 1.794832  Z  M 7.051039 1.433727  Q 6.956011 1.528755 6.908498 1.642787  Q 6.860984 1.75682 6.937006 1.718809  Q 7.013028 1.680799 6.937006 1.804334  Q 6.860984 1.92787 6.937006 1.889859  Q 7.013028 1.851848 7.127061 1.728312  Q 7.241094 1.604777 7.260099 1.471738  Q 7.279105 1.3387 7.051039 1.433727  Z  M 6.841979 0.95859  Q 7.583193 0.806546 7.716231 1.16765  Q 7.84927 1.528755 7.421646 2.09892  Q 6.994022 2.669084 7.592695 2.20345  Q 8.191368 1.737815 8.16286 1.129639  Q 8.134352 0.521463 7.40264 0.359917  Q 6.670929 0.19837 6.338333 0.464447  Q 6.005736 0.730524 6.841979 0.95859  Z  M 6.803967 1.889859  Q 6.689934 1.946875 6.727945 2.003892  Q 6.765956 2.060909 6.822973 2.003892  Q 6.879989 1.946875 6.803967 1.889859  Z "/></svg>
