<?xml version="1.0" encoding="UTF-8" standalone="no"?>
<svg
   xmlns:dc="http://purl.org/dc/elements/1.1/"
   xmlns:cc="http://creativecommons.org/ns#"
   xmlns:rdf="http://www.w3.org/1999/02/22-rdf-syntax-ns#"
   xmlns:svg="http://www.w3.org/2000/svg"
   xmlns="http://www.w3.org/2000/svg"
   xmlns:sodipodi="http://sodipodi.sourceforge.net/DTD/sodipodi-0.dtd"
   xmlns:inkscape="http://www.inkscape.org/namespaces/inkscape"
   width="1800"
   height="1800"
   id="svg2"
   sodipodi:version="0.32"
   inkscape:version="0.46"
   sodipodi:docname="A2A.svg"
   inkscape:output_extension="org.inkscape.output.svg.inkscape"
   version="1.0">
  <metadata
     id="metadata9">
    <rdf:RDF>
      <cc:Work
         rdf:about="">
        <dc:format>image/svg+xml</dc:format>
        <dc:type
           rdf:resource="http://purl.org/dc/dcmitype/StillImage" />
      </cc:Work>
    </rdf:RDF>
  </metadata>
  <defs
     id="defs7">
    <inkscape:perspective
       sodipodi:type="inkscape:persp3d"
       inkscape:vp_x="0 : 8.9884033 : 1"
       inkscape:vp_y="0 : 1000 : 0"
       inkscape:vp_z="12.636924 : 8.9884033 : 1"
       inkscape:persp3d-origin="6.3184619 : 5.9922689 : 1"
       id="perspective11" />
    <inkscape:perspective
       id="perspective4556"
       inkscape:persp3d-origin="8.0308371 : 5.9944057 : 1"
       inkscape:vp_z="16.061674 : 8.9916086 : 1"
       inkscape:vp_y="0 : 1000 : 0"
       inkscape:vp_x="0 : 8.9916086 : 1"
       sodipodi:type="inkscape:persp3d" />
    <inkscape:perspective
       id="perspective4632"
       inkscape:persp3d-origin="9.1994495 : 5.9944057 : 1"
       inkscape:vp_z="18.398899 : 8.9916086 : 1"
       inkscape:vp_y="0 : 1000 : 0"
       inkscape:vp_x="0 : 8.9916086 : 1"
       sodipodi:type="inkscape:persp3d" />
  </defs>
  <sodipodi:namedview
     inkscape:window-height="701"
     inkscape:window-width="796"
     inkscape:pageshadow="2"
     inkscape:pageopacity="0.0"
     guidetolerance="10.0"
     gridtolerance="10.0"
     objecttolerance="10.0"
     borderopacity="1.0"
     bordercolor="#666666"
     pagecolor="#ffffff"
     id="base"
     showgrid="false"
     inkscape:zoom="0.19563288"
     inkscape:cx="873.46008"
     inkscape:cy="1133.888"
     inkscape:window-x="126"
     inkscape:window-y="135"
     inkscape:current-layer="svg2" />
  <path
     style="fill:#000000;stroke:none"
     d="M 1162.1875,-1.0625 C 1141.4442,-1.1562932 1119.9764,0.19524995 1097.75,3 C 1026.6256,11.975208 976.5601,62.718468 947.5625,155.25 C 930.98666,175.96979 911.65687,204.99574 889.5625,242.28125 C 878.51529,265.7603 878.1502,278.85561 888.5,281.625 C 898.85993,284.38427 907.50298,289.22177 914.40625,296.125 C 907.50298,300.26897 904.74031,304.7524 906.125,309.59375 C 907.49956,314.42499 911.65925,317.52157 918.5625,318.90625 C 928.23507,317.52156 928.23509,319.59636 918.5625,325.125 C 908.89998,330.64354 907.83692,335.51229 915.4375,339.65625 C 923.02805,343.7901 926.84375,356.2177 926.84375,376.9375 C 926.84375,397.64718 938.59362,407.32218 962.0625,405.9375 C 1011.7799,404.56292 1025.5945,413.85262 1003.5,433.875 C 969.84827,452.40544 925.99302,457.33704 894.73346,472.60084 C 872.90499,483.25951 859.27768,497.11861 842.28125,520.53125 C 732.77108,562.25812 557.84245,609.86075 454.84375,663.3125 C 531.76556,591.60398 597.58365,517.2656 652.34375,440.34375 C 688.84716,437.7371 724.07215,435.13791 757.96875,432.53125 C 791.86556,429.92461 808.8125,397.9905 808.8125,336.71875 C 862.27452,332.8037 889.66045,323.3346 890.96875,308.34375 C 892.26696,293.34279 856.7327,286.51424 784.375,287.8125 C 712.0173,289.12092 656.26635,317.78534 617.15625,373.84375 C 374.65576,548.55089 261.2248,686.77857 276.875,788.46875 C 412.4721,785.86213 525.5731,766.94498 616.1875,731.75 C 697.34833,700.21777 837.43454,687.57723 896.75,683.40625 C 916.58207,758.76494 928.70041,836.4751 933.0625,916.5625 C 938.59113,1018.0693 943.41855,1138.5728 947.5625,1278.0625 L 597.46875,1021.1875 C 544.98198,972.8548 498.0333,948.65625 456.59375,948.65625 C 343.35259,950.04094 293.63104,997.70873 307.4375,1091.625 L 367.5,1522.5 C 281.88181,1544.5943 241.84639,1610.1841 247.375,1719.2812 C 208.70483,1726.1845 173.14177,1736.5584 140.6875,1750.375 C 108.23323,1764.1815 75.088957,1770.0406 41.25,1767.9688 C 7.4211699,1765.8967 -14.327432,1782.1301 -24,1816.6562 L 1666.375,1816.6562 C 1629.0895,1747.6038 1581.4428,1719.996 1523.4375,1733.8125 C 1465.4322,1747.6189 1424.6978,1725.1614 1401.2188,1666.4688 C 1377.7396,1607.7762 1331.49,1601.9169 1262.4375,1648.875 C 1339.7778,1517.6733 1356.3451,1343.6636 1312.1562,1126.8438 L 1314.2188,1126.8438 C 1303.9498,1090.254 1305.3426,1037.6954 1318.3438,969.1875 C 1503.3515,1002.3651 1624.7005,1018.6885 1681.9375,1018.0625 C 1744.774,1017.3651 1768.2322,982.85508 1752.3438,914.5 C 1736.4654,846.13482 1681.9376,757.38858 1588.7188,648.28125 C 1495.4898,539.18399 1431.9639,478.76572 1398.125,467.03125 C 1364.2961,455.28667 1330.4641,447.70667 1296.625,444.25 C 1262.7962,440.79333 1242.4032,412.82039 1235.5,360.34375 C 1267.267,349.29657 1297.9925,325.83832 1327.6875,289.9375 C 1357.3724,254.02658 1372.2187,205.68092 1372.2188,144.90625 C 1372.2188,82.767109 1344.2458,41.334674 1288.3125,20.625 C 1249.8654,6.3801463 1207.8227,-0.85615495 1162.1875,-1.0625 z M 1146,29.46875 C 1175.7231,29.250813 1209.358,33.911792 1246.9062,43.40625 C 1306.9835,58.597392 1337,93.82658 1337,149.0625 C 1337,201.54925 1316.9922,246.77721 1276.9375,284.75 C 1236.8927,322.7329 1210.6506,332.73166 1198.2188,314.78125 C 1185.7869,298.20542 1195.7957,274.38207 1228.25,243.3125 C 1260.7043,212.24293 1269.0136,181.50727 1253.125,151.125 C 1237.2466,120.74271 1202.3613,117.99012 1148.5,142.84375 C 1129.1649,123.51875 1085.6779,108.29719 1018,97.25 C 1030.4319,65.49314 1056.6639,44.787489 1096.7188,35.125 C 1111.7355,31.497772 1128.1661,29.599512 1146,29.46875 z M 999.34375,128.34375 C 1055.9644,132.48771 1101.5362,146.30219 1136.0625,169.78125 C 1134.6778,190.50103 1143.321,191.5228 1161.9688,172.875 C 1180.6166,154.2373 1198.5494,148.71189 1215.8125,156.3125 C 1233.0756,163.90302 1235.1504,180.11512 1222.0312,204.96875 C 1208.912,229.8325 1192.6787,251.26835 1173.3438,269.21875 C 1154.0086,287.16916 1149.5463,304.76812 1159.9062,322.03125 C 1170.2662,339.29437 1177.5124,354.13062 1181.6562,366.5625 C 1188.5594,435.61497 1227.5629,478.76813 1298.6875,496.03125 C 1369.8119,513.29437 1397.7849,544.729 1382.5938,590.3125 C 1385.353,584.78385 1363.2394,644.51421 1316.2812,769.5 C 1301.9089,807.7592 1290.398,848.44813 1281.7188,891.5625 C 1279.4202,891.28569 1277.1404,890.99962 1274.875,890.6875 L 1272.7812,890.6875 C 1229.9672,860.30522 1195.4572,834.751 1169.2188,814.03125 C 1142.9805,793.32156 1087.0245,792.60242 1001.4062,811.9375 C 1000.0216,831.2726 1006.9339,851.31148 1022.125,872.03125 C 1053.8919,858.2248 1084.2836,853.72111 1113.2812,858.5625 C 1142.289,863.39375 1165.0805,878.91795 1181.6562,905.15625 C 1159.5618,917.58813 1135.0293,916.22238 1108.0938,901.03125 C 1081.1681,885.8401 1066.3319,886.52803 1063.5625,903.09375 C 1109.146,951.43655 1175.4346,969.40064 1262.4375,956.96875 L 1262.4375,959.03125 C 1265.196,959.54083 1267.7976,959.99701 1270.5312,960.5 C 1260.5102,1040.2893 1259.1716,1127.4927 1266.5625,1222.125 L 1013.8438,1311.1875 C 1004.1814,1146.8443 997.6129,1014.622 994.15625,914.5 C 990.70972,814.36785 977.60426,723.91196 954.8125,643.125 C 932.0308,562.33805 946.85696,516.04697 999.34375,504.3125 C 1051.8204,492.56792 1078.3963,467.7329 1079.0938,429.75 C 1079.7811,391.7772 1058.0427,375.20001 1013.8438,380.03125 C 969.65511,384.8625 951.69093,370.70403 959.96875,337.5625 C 986.21716,323.74595 995.19412,313.74717 986.90625,307.53125 C 978.61829,301.31532 964.11587,296.83188 943.40625,294.0625 C 944.78081,284.40001 935.12603,274.73511 914.40625,265.0625 C 933.74134,220.87376 953.75907,190.48208 974.46875,173.90625 C 992.42928,162.85907 1011.7802,162.17116 1032.5,171.84375 C 1053.2197,181.50624 1073.9053,188.42865 1094.625,192.5625 L 1094.625,180.125 C 1082.1931,178.74031 1065.6159,172.51593 1044.9062,161.46875 C 1024.1866,150.42157 1002.7819,148.34678 980.6875,155.25 C 987.59077,144.20282 993.8151,135.24698 999.34375,128.34375 z M 1199.375,161.375 C 1196.003,161.52336 1192.1583,162.26752 1187.8438,163.5625 C 1174.0374,167.70647 1161.9537,177.71531 1151.5938,193.59375 C 1141.2338,209.47218 1138.1372,221.55583 1142.2812,229.84375 C 1131.2341,233.9877 1124.6657,240.55605 1122.5938,249.53125 C 1120.5219,258.50646 1124.3375,264.7097 1134,268.15625 C 1143.6726,271.61292 1157.4871,265.0446 1175.4375,248.46875 C 1193.3981,231.90304 1205.4715,216.36874 1211.6875,201.875 C 1217.9035,187.37115 1218.9252,176.31936 1214.7812,168.71875 C 1211.9392,163.50027 1206.7933,161.0486 1199.375,161.375 z M 1006.75,175.75 C 998.79854,175.78086 991.49022,177.91405 984.84375,182.1875 L 964.125,196.6875 L 964.125,211.1875 L 974.46875,211.1875 C 999.33247,223.61937 1027.6705,223.61937 1059.4375,211.1875 L 1090.5,217.40625 L 1090.5,200.84375 L 1059.4375,198.78125 C 1039.4925,183.37312 1021.9301,175.69109 1006.75,175.75 z M 1192.3438,180.28125 C 1198.4935,180.17228 1201.1404,183.5892 1200.2812,190.5 C 1198.8966,201.54718 1194.069,211.88989 1185.7812,221.5625 C 1177.4933,231.22499 1169.2154,238.1474 1160.9375,242.28125 C 1152.6496,246.42521 1152.6497,243.29741 1160.9375,232.9375 C 1169.2153,222.57761 1169.2154,218.80322 1160.9375,221.5625 C 1152.6496,224.32177 1150.9188,220.8601 1155.75,211.1875 C 1160.5813,201.525 1167.8374,192.55907 1177.5,184.28125 C 1183.7159,181.68875 1188.6539,180.34663 1192.3438,180.28125 z M 999.34375,186.34375 C 993.81512,193.24698 993.8151,200.15928 999.34375,207.0625 C 991.05587,204.30323 984.83144,201.55063 980.6875,198.78125 C 983.44683,194.6373 989.67116,190.48771 999.34375,186.34375 z M 1022.125,190.5 L 1049.0625,204.96875 C 1038.0153,206.35344 1027.6726,207.06251 1018,207.0625 C 1026.2879,202.91855 1027.6536,197.40323 1022.125,190.5 z M 1140.2188,242.28125 C 1148.5068,247.8099 1149.8622,252.97114 1144.3438,257.8125 C 1138.815,262.64375 1135.0407,262.64374 1132.9688,257.8125 C 1130.8968,252.97115 1133.3155,247.8099 1140.2188,242.28125 z M 969.25,261.84375 C 968.93662,261.82265 968.62742,261.88157 968.28125,261.96875 C 965.52192,262.65604 964.46897,265.07481 965.15625,269.21875 C 965.84353,273.36271 964.48789,276.11531 961.03125,277.5 C 957.57459,278.87458 953.76902,276.79978 949.625,271.28125 C 945.48106,265.7526 942.04051,263.00001 939.28125,263 C 936.522,263 934.44717,264.02177 933.0625,266.09375 C 931.67781,268.15561 931.67779,270.58447 933.0625,273.34375 C 937.20644,270.58448 942.03386,272.31533 947.5625,278.53125 C 953.08108,284.74719 958.94034,286.47803 965.15625,283.71875 C 971.37224,280.94938 974.12478,276.46593 973.4375,270.25 C 972.82727,264.8199 971.44368,261.99147 969.25,261.84375 z M 936.8125,303.59375 C 938.62517,303.62543 940.81754,303.89079 943.40625,304.40625 C 950.30952,305.79094 958.27485,306.83384 967.25,307.53125 C 976.22524,308.21854 980.00968,308.56249 978.625,308.5625 L 935.125,310.625 C 930.98098,309.24032 929.58408,307.54073 930.96875,305.46875 C 931.83418,304.17376 933.79138,303.54094 936.8125,303.59375 z M 976.5625,314.78125 C 975.18794,317.54052 971.03843,320.30325 964.125,323.0625 C 957.22181,325.82177 951.70643,327.89657 947.5625,329.28125 C 942.03387,329.28125 938.57219,328.22821 937.1875,326.15625 C 935.80281,324.08428 937.19983,321.66553 941.34375,318.90625 L 976.5625,314.78125 z M 1409.5312,669 C 1466.1519,743.58112 1537.9658,818.84672 1624.9688,894.8125 C 1532.4373,886.52458 1460.9671,885.15885 1410.5625,890.6875 C 1384.0602,893.58909 1358.9848,894.93091 1335.3438,894.78125 C 1352.3243,830.14433 1377.0605,754.88721 1409.5312,669 z M 450.375,1077.125 L 539.46875,1077.125 L 937.1875,1356.7812 L 491.8125,1489.3438 C 501.47502,1283.561 487.66048,1146.1775 450.375,1077.125 z M 1266.5625,1280.125 C 1287.2823,1434.7958 1263.8241,1555.6432 1196.1562,1642.6562 C 1096.7215,1702.0362 975.1961,1710.9919 831.5625,1669.5625 C 687.93896,1628.133 551.88003,1637.11 423.4375,1696.5 C 435.8694,1650.9165 542.21449,1575.6822 742.46875,1470.7188 L 1266.5625,1280.125 z"
     id="path4674"
     sodipodi:nodetypes="csccccccccsccscccscccccccscccccccccccccccccccccccscccssccsccccccccccsscscccccccccccccccccccccccsccccccccccsscscccccccccccccccccccccccccccccccccccccssccscccccccccccsccccscccccccccccccccccc" />
</svg>
