<?xml version="1.0" encoding ="US-ASCII" standalone="yes"?>
<svg width="10.848916" height="17.972717">
<path style="fill:#000000; stroke:none" d=" M 7.872664 6.931785  Q 7.546237 7.143003 7.066196 6.931785  Q 6.490148 7.69985 6.317333 8.938354  Q 6.144519 10.176859 6.115716 10.858517  Q 6.086914 11.540174 5.280446 11.655384  Q 3.014654 11.885803 3.014654 12.135425  Q 3.245074 12.538658 3.302679 12.634666  L 6.931785 12.634666  Q 7.968673 12.231433 7.853463 9.696818  L 7.872664 6.931785  Z  M 6.98939 13.018699  L 3.993937 13.018699  L 3.993937 17.53108  L 6.355737 17.53108  L 6.355737 14.996466  L 8.506318 14.996466  L 8.506318 11.175344  Q 8.736737 10.829714 8.947955 11.175344  L 8.947955 12.404247  L 9.274383 12.404247  L 9.274383 11.098536  Q 9.274383 10.618497 8.775141 10.618497  Q 8.2951 10.618497 8.266298 11.088936  Q 8.237495 11.559376 7.93027 12.241034  Q 7.623044 12.922691 6.98939 13.018699  Z  M 6.816576 15.457305  L 6.816576 17.53108  L 8.506318 17.53108  L 8.506318 15.457305  L 6.816576 15.457305  Z  M 6.317333 4.7428  Q 6.355737 4.569986 6.528551 4.569986  Q 6.701366 4.569986 7.1046 4.800405  Q 6.720567 4.877212 6.528551 4.906014  Q 6.336535 4.934817 6.317333 4.7428  Z  M 8.2951 6.682164  L 8.2951 8.122286  L 8.583124 8.122286  Q 8.583124 6.662962 8.2951 6.682164  Z  M 7.834261 6.336535  Q 7.488632 6.048511 7.392624 5.395656  Q 7.738253 5.126833 7.786257 4.954018  Q 7.834261 4.781204 7.728652 4.694797  Q 7.623044 4.608389 7.411826 4.800405  Q 6.87418 4.358768 6.336535 4.416373  L 5.990906 5.069228  Q 6.144519 5.126833 6.182922 5.299647  Q 6.144519 5.472462 6.221325 5.626075  Q 6.240527 5.875696 6.586156 5.741285  Q 6.931785 5.606874 7.200608 5.894897  L 7.200608 6.413342  Q 7.584641 6.701366 7.834261 6.336535  Z  M 8.2951 10.54169  Q 8.275899 10.215262 8.928754 10.224863  Q 9.581609 10.234464 9.696818 11.002529  L 9.696818 12.826683  L 8.928754 12.826683  L 8.928754 17.972717  L 3.5523 17.972717  L 3.5523 13.018699  L 3.32188 13.018699  Q 3.66751 14.132393 2.649824 16.974234  Q 3.072259 17.876709 2.72663 17.972717  L 0 17.972717  Q 0.038403 17.64629 0.345629 17.627089  Q 1.804952 17.262257 1.920162 16.359781  L 2.208186 13.325925  Q 2.169783 12.461852 2.381001 12.07782  Q 2.649824 11.424965 5.45326 11.232948  Q 5.702881 11.25215 5.856494 9.572008  Q 6.010108 7.891866 6.605358 6.835777  Q 6.950987 6.490148 6.912583 6.086914  Q 6.682164 5.952503 6.586156 6.086914  L 6.106115 7.21981  Q 5.914099 7.488632 5.731684 7.296616  Q 5.549268 7.1046 5.856494 7.008592  L 6.106115 6.086914  Q 5.914099 6.029309 5.894897 5.914099  Q 5.875696 5.79889 5.818091 5.395656  Q 5.79889 5.242043 5.645277 5.184438  Q 5.587672 5.126833 5.587672 5.069228  Q 5.741285 4.838809 5.990906 4.416373  L 5.818091 3.187469  L 7.795858 3.187469  Q 7.315818 2.84184 6.787773 2.438606  Q 6.259728 2.035372 5.952503 1.632138  Q 5.645277 1.228904 5.68368 0.844871  Q 5.722083 0.460839 5.933301 0.307226  Q 6.144519 0.153613 6.470946 0.192016  Q 6.797374 0.230419 6.931785 0.556847  Q 6.950987 0.902476 6.787773 1.06569  Q 6.624559 1.228904 6.413342 1.219303  Q 6.202124 1.209702 6.240527 1.017686  Q 6.259728 0.940879 6.413342 0.998484  Q 6.624559 0.960081 6.682164 0.768065  Q 6.682164 0.576049 6.547753 0.489641  Q 6.413342 0.403234 6.250128 0.441637  Q 6.086914 0.480041 6.000506 0.614452  Q 5.914099 0.748863 5.933301 0.988883  Q 5.952503 1.228904 6.230926 1.564932  Q 6.509349 1.90096 7.306217 2.477009  Q 8.103084 3.053058 8.602326 3.187469  L 10.311271 0  L 10.848916 0.307226  L 8.103084 6.125317  Q 8.391109 6.067712 8.669532 6.432543  Q 8.947955 6.797374 8.967157 8.487117  L 8.2951 8.487117  L 8.2951 10.54169  Z  M 7.81506 5.837293  L 10.54169 0.326428  L 10.42648 0.326428  L 8.794342 3.475493  L 6.202124 3.475493  L 6.27893 4.109147  Q 7.085398 4.089945 7.373423 4.435575  Q 7.584641 4.320365 7.795858 4.358768  Q 8.007076 4.397171 8.083882 4.598788  Q 8.160689 4.800405 8.074282 5.021224  Q 7.987875 5.242043 7.719052 5.472462  Q 7.719052 5.779688 7.81506 5.837293  Z "/></svg>
