<?xml version="1.0" encoding ="US-ASCII" standalone="yes"?>
<svg width="11.195059" height="17.972717">
<path style="fill:#000000; stroke:none" d=" M 8.223767 6.796829  Q 8.08958 7.026864 7.821205 7.026864  Q 7.552831 7.026864 7.341965 6.796829  Q 6.632689 7.71697 6.613519 9.078013  Q 6.57518 8.962996 7.265286 7.371917  Q 7.744527 6.988525 8.003317 7.208975  Q 8.262107 7.429426 8.08958 7.908667  Q 7.418643 9.327218 6.977742 9.902308  L 6.57518 9.978986  Q 6.57518 11.550895 5.635869 11.665913  Q 3.373853 11.895947 3.373853 12.145153  Q 3.603889 12.547714 3.661397 12.643563  L 7.284456 12.643563  Q 8.319615 12.241001 8.204597 9.71061  L 8.223767 6.796829  Z  M 0.306714 10.209021  Q 0.670937 10.2857 1.035159 10.2857  L 1.418552 6.394267  L 0.306714 10.209021  Z  M 2.952121 9.001335  L 3.124648 9.442236  Q 3.412192 9.653102 3.776415 9.78729  Q 5.233306 9.442236 6.191787 9.365558  L 6.191787 9.212201  L 6.172618 9.212201  Q 3.968112 9.116353 2.952121 9.001335  Z  M 7.341965 13.026956  L 4.351504 13.026956  L 4.351504 17.531816  L 6.709367 17.531816  L 6.709367 15.001426  L 8.856364 15.001426  L 8.856364 11.186671  Q 9.0864 10.841619 9.297266 11.186671  L 9.297266 12.413527  L 9.62315 12.413527  L 9.62315 11.109993  Q 9.62315 10.630753 9.12474 10.630753  Q 8.645499 10.630753 8.616744 11.100409  Q 8.58799 11.570064 8.281276 12.250586  Q 7.974562 12.931108 7.341965 13.026956  Z  M 7.169438 15.461497  L 7.169438 17.531816  L 8.856364 17.531816  L 8.856364 15.461497  L 7.169438 15.461497  Z  M 6.671028 4.764849  Q 6.709367 4.592322 6.881894 4.592322  Q 7.05442 4.592322 7.456982 4.822358  Q 7.07359 4.899036 6.881894 4.927791  Q 6.690197 4.956545 6.671028 4.764849  Z  M 8.645499 6.700981  L 8.645499 8.138702  L 8.933043 8.138702  Q 8.933043 6.681811 8.645499 6.700981  Z  M 10.10239 0.221649  Q 9.910694 0.106631 9.795676 0.528363  Q 9.546471 0.950094 9.36436 1.113036  Q 9.182248 1.275978 8.84678 1.496428  Q 8.511312 1.716879 7.859544 2.368646  Q 7.572 2.732869 7.361134 3.21211  L 8.913874 3.21211  Q 9.258926 2.349477 9.34519 1.975669  Q 9.431454 1.601861 9.508132 1.362241  Q 9.58481 1.122621 9.891524 0.758398  Q 10.294086 0.355836 10.10239 0.221649  Z  M 8.185428 6.355927  Q 7.840375 6.068383 7.744527 5.416616  Q 8.08958 5.148241 8.137504 4.975715  Q 8.185428 4.803188 8.079995 4.716925  Q 7.974562 4.630661 7.763696 4.822358  Q 7.226947 4.381456 6.690197 4.438965  L 6.345144 5.090732  Q 6.498501 5.148241 6.53684 5.320768  Q 6.498501 5.493294 6.57518 5.646651  Q 6.594349 5.895856 6.939403 5.761669  Q 7.284456 5.627482 7.552831 5.915026  L 7.552831 6.432606  Q 7.936223 6.72015 8.185428 6.355927  Z  M 8.645499 10.554074  Q 8.626329 10.22819 9.278096 10.237776  Q 9.929863 10.24736 10.044881 11.014145  L 10.044881 12.835259  L 9.278096 12.835259  L 9.278096 17.972717  L 3.910603 17.972717  L 3.910603 13.026956  L 3.680567 13.026956  Q 4.02562 14.138793 3.00963 16.975897  Q 3.431362 17.876869 3.086309 17.972717  L 0.364223 17.972717  Q 0.402562 17.646833 0.709276 17.627665  Q 2.166167 17.263441 2.281185 16.362469  L 2.568729 13.333669  Q 2.53039 12.471036 2.741256 12.087644  Q 3.00963 11.435877 5.808395 11.244181  Q 6.0576 11.26335 6.210957 10.036494  L 4.198147 10.24736  Q 3.718906 10.24736 3.431362 10.362378  L 3.680567 10.956636  L 3.316344 11.052485  L 3.086309 10.419887  Q 2.587899 10.419887 2.453712 9.78729  Q 2.434542 9.576424 2.760425 9.499745  L 2.607068 9.039674  Q 2.242846 8.982165 2.137413 8.617943  Q 2.03198 8.253719 2.281185 8.100363  L 1.629418 6.336758  L 1.610248 6.336758  L 1.284365 10.726601  Q 0.49841 10.76494 0 10.477396  Q 1.49523 5.186581 1.571909 5.186581  L 2.683747 8.119533  Q 3.00963 8.349567 3.50804 8.560433  Q 5.290815 8.445415 6.364314 8.502925  Q 6.440992 7.467765 6.958572 6.854337  Q 7.303626 6.509284 7.265286 6.106722  Q 7.035251 5.972535 6.939403 6.106722  L 6.460162 7.23773  Q 6.268466 7.506104 6.086355 7.314408  Q 5.904243 7.122712 6.210957 7.026864  L 6.460162 6.106722  Q 6.268466 6.049213 6.249296 5.934196  Q 6.230127 5.819178 6.172618 5.416616  Q 6.153448 5.263259 6.000091 5.20575  Q 5.942582 5.148241 5.942582 5.090732  Q 6.095939 4.860697 6.345144 4.438965  L 6.172618 3.21211  L 6.862724 3.21211  Q 7.131099 2.713699 7.265286 2.560343  Q 6.613519 2.061932 6.306805 1.65937  Q 6.000091 1.256808 6.03843 0.873416  Q 6.07677 0.490023 6.287635 0.336666  Q 6.498501 0.183309 6.824385 0.221649  Q 7.150269 0.259988 7.284456 0.585872  Q 7.303626 0.930925 7.140684 1.093866  Q 6.977742 1.256808 6.766876 1.247223  Q 6.55601 1.237639 6.594349 1.045942  Q 6.613519 0.969264 6.766876 1.026773  Q 6.977742 0.988434 7.035251 0.796737  Q 7.035251 0.605041 6.901063 0.518778  Q 6.766876 0.432515 6.603934 0.470854  Q 6.440992 0.509193 6.354729 0.64338  Q 6.268466 0.777568 6.287635 1.017188  Q 6.306805 1.256808 6.584764 1.592277  Q 6.862724 1.927745 7.456982 2.349477  Q 7.59117 2.234459 7.917053 1.91816  Q 8.242937 1.601861 8.377124 1.496428  Q 8.511312 1.390996 8.818026 1.189715  Q 9.12474 0.988434 9.287682 0.787153  Q 9.450623 0.585872 9.508132 0.432515  Q 9.718998 0.049122 9.881939 0.010783  Q 10.044881 -0.027556 10.198238 0.068292  Q 10.370765 0.183309 10.389935 0.346251  Q 10.409104 0.509193 10.121559 0.854246  Q 10.006542 0.950094 9.86277 1.170545  Q 9.718998 1.390996 9.56564 2.119441  L 10.658309 0.029953  L 11.195059 0.336666  L 8.453803 6.145061  Q 8.741347 6.087553 9.019306 6.451776  Q 9.297266 6.815998 9.316436 8.502925  L 8.645499 8.502925  L 8.645499 10.554074  Z  M 8.166258 5.857517  L 10.888345 0.355836  L 10.773327 0.355836  L 9.143909 3.499654  L 6.55601 3.499654  L 6.632689 4.132251  Q 7.437813 4.113081 7.725357 4.458135  Q 7.936223 4.343117 8.147089 4.381456  Q 8.357955 4.419796 8.434633 4.621077  Q 8.511312 4.822358 8.425048 5.042808  Q 8.338785 5.263259 8.07041 5.493294  Q 8.07041 5.800008 8.166258 5.857517  Z "/></svg>
