<?xml version="1.0" encoding ="US-ASCII" standalone="yes"?>
<svg width="8.379902" height="17.972717">
<path style="fill:#000000; stroke:none" d=" M 5.039551 13.100694  L 6.522341 13.100694  Q 6.636402 10.167703 6.277925 9.727754  L 5.675032 10.021052  L 5.039551 13.100694  Z  M 6.880817 13.45917  L 6.880817 14.290184  Q 7.271883 14.79531 7.288177 17.174292  Q 7.516299 17.907539 7.108939 17.972717  L 5.104728 17.972717  Q 4.941784 17.64683 5.349144 17.64683  Q 6.66899 17.38612 6.685285 17.043938  L 6.114981 14.502011  Q 5.886859 14.045768 5.903153 13.703586  L 5.560971 13.703586  Q 5.235084 14.159829 5.153612 14.583483  Q 5.267672 15.267848 4.338892 17.174292  Q 4.452952 17.777185 4.241126 17.972717  L 2.236915 17.972717  Q 2.073971 17.64683 2.481331 17.64683  Q 3.784882 17.38612 3.817471 17.06023  Q 4.192242 15.544852 4.387775 14.339067  Q 4.37148 13.964296 4.567013 13.45917  L 6.880817 13.45917  Z  M 5.642443 3.047052  L 5.642443 0.635481  Q 5.642443 0.26071 5.381733 0.26071  Q 5.153612 0.26071 5.12917 0.431801  Q 5.104728 0.602893 5.381733 0.635481  L 5.039551 3.144818  Q 5.267672 3.014463 5.642443 3.047052  Z  M 6.880817 3.144818  L 6.522341 0.635481  Q 6.81564 0.602893 6.799345 0.431801  Q 6.783051 0.26071 6.522341 0.26071  Q 6.294219 0.26071 6.294219 0.635481  L 6.294219 3.047052  Q 6.66899 3.014463 6.880817 3.144818  Z  M 5.153612 4.008421  Q 5.495794 4.008421 5.756504 4.220248  Q 6.229042 3.959538 6.318661 4.383192  Q 6.40828 4.806847 6.114981 4.96979  L 6.114981 6.45258  L 6.40828 6.45258  L 6.40828 5.833393  Q 6.40828 5.719333 6.538635 5.719333  Q 7.255589 5.768216 7.516299 5.996337  Q 7.777009 6.224459 7.923658 6.843646  L 8.070308 6.843646  Q 7.923658 6.012631 7.589623 5.32012  Q 7.255589 4.627608 6.848228 4.081746  Q 6.440869 3.535884 5.886859 3.535884  Q 5.33285 3.535884 5.153612 4.008421  Z  M 5.006962 4.44837  Q 5.039551 4.138776 5.463205 4.399487  Q 5.675032 4.415781 5.463205 4.44837  Q 5.07214 4.660197 5.006962 4.44837  Z  M 6.636402 6.729585  L 5.85427 6.729585  L 5.85427 4.96979  Q 5.903153 4.806847 6.025362 4.70908  Q 6.14757 4.611314 6.082392 4.44837  Q 6.017214 4.285426 5.756504 4.513547  Q 5.479499 4.187659 5.251378 4.187659  L 5.088434 4.187659  L 4.795135 4.692786  Q 4.844018 4.920907 5.023256 5.11644  Q 5.544677 5.051262 5.618002 5.483064  Q 5.691327 5.914865 5.44691 6.077809  Q 4.827724 6.257048 4.615897 6.436286  Q 4.404069 6.615524 4.754399 6.990295  Q 5.104728 7.365067 5.560971 9.532221  L 6.245336 9.336688  Q 6.603813 7.055473 7.051908 6.794763  Q 7.500004 6.534052 7.328913 6.305931  Q 7.157822 6.077809 6.636402 6.077809  L 6.636402 6.729585  Z  M 7.874775 7.136945  Q 7.907364 7.967959 7.842186 8.798973  Q 8.03772 9.434455 7.931806 10.045494  Q 7.825892 10.656534 7.760715 10.90095  Q 7.956247 11.145366 7.931806 11.381635  Q 7.907364 11.617904 7.9481 11.740111  Q 7.988836 11.862319 7.923658 11.894908  Q 7.858481 11.927497 7.817745 11.862319  Q 7.777009 11.797142 7.777009 11.658639  Q 7.777009 11.520137 7.760715 11.438665  Q 7.711832 11.389782 7.68739 11.389782  Q 7.662948 11.389782 7.662948 11.45496  Q 7.646654 11.764553 7.711832 11.903055  Q 7.777009 12.041557 7.89107 12.302268  Q 7.89107 12.367446 7.858481 12.375593  Q 7.825892 12.383739 7.793303 12.367446  Q 7.777009 12.448917 7.695537 12.400034  Q 7.679243 12.481506 7.597771 12.416328  Q 7.581476 12.465212 7.548888 12.448917  Q 7.500004 12.448917 7.48371 12.383739  Q 7.434827 12.220796 7.328913 12.017116  Q 7.223 11.813437 7.206705 11.683081  Q 7.206705 11.536431 7.239294 11.332751  Q 7.271883 11.129071 7.402238 10.672829  Q 7.320766 9.467043 7.320766 8.864151  Q 7.206705 7.837604 7.206705 7.12065  Q 6.864523 7.495421 6.603813 9.581104  Q 7.011172 10.004758 6.897112 13.45917  L 4.567013 13.45917  L 5.153612 10.721712  L 4.876607 10.656534  L 5.153612 10.102525  Q 4.844018 9.82552 5.202495 9.646281  Q 4.795135 7.642071 4.420364 7.299889  Q 4.224831 8.163491 4.029298 8.69306  Q 3.833766 9.222628 3.320492 9.597399  Q 2.807219 9.97217 1.471078 10.412118  L 0.835597 10.917244  L 0.835597 17.744596  L 0.379354 17.744596  L 0.379354 10.90095  Q 0.151232 10.558767 0.151232 10.183996  Q -0.239833 9.809226 0.379354 9.809226  L 0.379354 4.920907  L 0.835597 4.920907  L 0.835597 9.874403  Q 0.998541 9.858109 1.471078 9.97217  Q 2.611686 9.287805 3.214579 8.782679  Q 3.70341 7.462833 3.99671 6.648113  Q 4.192242 6.077809 5.381733 5.703038  L 5.365438 5.703038  Q 5.381733 5.295678 5.055845 5.311973  L 4.92549 5.719333  Q 4.844018 5.931159 4.66478 5.865982  Q 4.485541 5.800805 4.697369 5.588977  Q 4.762546 5.409739 4.746252 5.230501  Q 4.534424 4.888319 4.599602 4.806847  Q 4.452952 4.757963 4.469247 4.676491  L 4.844018 4.057304  Q 4.892901 3.747711 5.169906 3.535884  L 4.860312 3.535884  Q 4.485541 3.601061 4.355186 3.495148  Q 4.224831 3.389234 3.898943 3.454412  Q 3.573055 3.519589 3.344934 3.079641  L 3.410111 3.014463  Q 3.882649 3.161113 4.094476 3.071493  Q 4.306303 2.981874 4.697369 3.112229  L 5.121023 0.831014  Q 4.778841 0.733248 4.852165 0.366624  Q 4.92549 0 5.349144 0  Q 5.805387 0 5.919448 0.488832  L 5.919448 3.047052  L 6.017214 3.047052  L 6.017214 0.488832  Q 6.131275 0 6.587518 0  Q 6.994878 0 7.07635 0.366624  Q 7.157822 0.733248 6.81564 0.831014  L 7.190411 3.112229  Q 7.434827 2.998169 7.638507 3.087788  Q 7.842186 3.177407 8.314724 3.014463  L 8.379902 3.079641  Q 8.15178 3.535884 7.825892 3.470706  Q 7.500004 3.405529 7.369649 3.511442  Q 7.239294 3.617356 6.864523 3.535884  L 6.685285 3.535884  Q 7.092645 3.861772 7.711832 4.977938  Q 8.331018 6.094104 8.347313 7.136945  L 7.874775 7.136945  Z "/></svg>
