<?xml version="1.0" encoding="UTF-8" standalone="no"?>
<svg
   xmlns:dc="http://purl.org/dc/elements/1.1/"
   xmlns:cc="http://web.resource.org/cc/"
   xmlns:rdf="http://www.w3.org/1999/02/22-rdf-syntax-ns#"
   xmlns:svg="http://www.w3.org/2000/svg"
   xmlns="http://www.w3.org/2000/svg"
   xmlns:sodipodi="http://sodipodi.sourceforge.net/DTD/sodipodi-0.dtd"
   xmlns:inkscape="http://www.inkscape.org/namespaces/inkscape"
   width="20.060652"
   height="17.98707"
   id="svg2241"
   sodipodi:version="0.32"
   inkscape:version="0.45"
   sodipodi:docname="A35F.svg"
   inkscape:output_extension="org.inkscape.output.svg.inkscape"
   sodipodi:docbase="C:\Program Files\JSesh\fontsST"
   sodipodi:modified="true">
  <metadata
     id="metadata2248">
    <rdf:RDF>
      <cc:Work
         rdf:about="">
        <dc:format>image/svg+xml</dc:format>
        <dc:type
           rdf:resource="http://purl.org/dc/dcmitype/StillImage" />
      </cc:Work>
    </rdf:RDF>
  </metadata>
  <defs
     id="defs2246" />
  <sodipodi:namedview
     inkscape:window-height="480"
     inkscape:window-width="640"
     inkscape:pageshadow="2"
     inkscape:pageopacity="0.0"
     guidetolerance="10.0"
     gridtolerance="10.0"
     objecttolerance="10.0"
     borderopacity="1.0"
     bordercolor="#666666"
     pagecolor="#ffffff"
     id="base" />
  <path
     style="fill:#000000; stroke:none"
     d="M 11.901693,5.33482 L 11.901693,4.605707 L 11.901693,5.33482 z M 4.074453,5.720821 L 4.074453,16.571733 L 8.835131,16.571733 L 8.835131,5.720821 L 4.074453,5.720821 z M 11.815915,7.24338 L 11.815915,7.24338 z M 15.911814,12.261391 L 18.828264,12.261391 L 18.849709,9.645163 C 19.092747,8.8445683 19.021265,8.21553 18.635263,7.758048 L 16.855371,8.315604 L 15.911814,12.261391 z M 17.155594,3.619261 C 16.841075,3.633557 16.633778,3.68002 16.533703,3.75865 C 16.43363,3.83728 16.340704,4.019558 16.254925,4.305484 C 16.254925,4.6914853 16.337129,5.0739123 16.501537,5.452765 C 16.665944,5.8316177 16.826778,6.628638 16.984037,7.843826 L 18.635263,7.393491 L 18.635263,4.584263 C 18.635263,4.055299 18.363633,3.6335573 17.820374,3.319038 L 17.841818,3.319038 L 17.841818,2.547036 C 17.813225,2.4755547 17.759614,2.3790543 17.680984,2.257535 C 17.602355,2.1360163 17.634522,2.0180717 17.777485,1.903701 C 17.920448,1.7893303 18.034819,1.646367 18.120596,1.474811 C 18.206375,1.3032557 18.188504,1.1888853 18.066984,1.1317 C 17.945465,1.0745147 17.823947,1.1102553 17.702429,1.238922 C 17.58091,1.3675887 17.520151,1.3604407 17.520151,1.217478 C 17.277113,1.060218 16.969742,0.96729167 16.598038,0.938699 C 16.569444,0.99588433 16.526555,1.060218 16.46937,1.1317 C 16.612333,1.0745147 16.755297,1.088811 16.89826,1.174589 C 17.041223,1.260367 17.155594,1.303256 17.241371,1.303256 L 17.241371,1.389033 C 17.112705,1.360441 16.97689,1.313978 16.833927,1.249644 C 16.690964,1.1853107 16.555148,1.1817367 16.426481,1.238922 C 16.283518,1.3675887 16.147702,1.5748853 16.019035,1.860812 C 16.147702,1.9179973 16.212036,1.989479 16.212036,2.075257 L 16.23348,2.203924 L 16.576593,2.203924 L 16.576593,2.311147 L 16.276369,2.311147 C 16.247776,2.582777 16.401462,2.6935733 16.737427,2.643536 C 17.07339,2.5934987 17.212779,2.911592 17.155594,3.597816 L 17.155594,3.619261 z M 17.56304,1.624923 C 17.534447,1.5820337 17.555892,1.5034037 17.627373,1.389033 C 17.698854,1.274663 17.781058,1.2067557 17.873985,1.185311 C 17.966911,1.1638663 18.031244,1.1781627 18.066984,1.2282 C 18.102725,1.2782373 18.099152,1.349719 18.056263,1.442645 C 18.013374,1.535571 17.93117,1.6392193 17.80965,1.75359 C 17.688132,1.8679607 17.591632,1.9108497 17.520151,1.882257 C 17.448669,1.8536643 17.420076,1.8107753 17.434372,1.75359 C 17.448668,1.6964047 17.491557,1.6535157 17.56304,1.624923 z M 17.798929,1.3247 C 17.741743,1.3818853 17.698854,1.4426447 17.670261,1.506978 C 17.641669,1.5713113 17.652392,1.592756 17.702429,1.571312 C 17.752466,1.5498673 17.752466,1.5748857 17.702429,1.646367 C 17.652392,1.717849 17.652392,1.7392937 17.702429,1.710701 C 17.752466,1.6821083 17.806077,1.6356453 17.863262,1.571312 C 17.920447,1.506978 17.956187,1.4354963 17.970484,1.356867 C 17.984781,1.278237 17.927596,1.2675147 17.798929,1.3247 z M 17.627373,1.024477 C 17.984781,0.86721767 18.217096,0.88866233 18.324318,1.088811 C 18.431541,1.288959 18.374356,1.4962557 18.152763,1.710701 C 17.93117,1.9251457 17.863262,2.0967017 17.949039,2.225369 C 18.034818,2.3397397 18.213522,2.2932763 18.485153,2.085979 C 18.756782,1.8786823 18.892597,1.59633 18.892597,1.238922 C 18.892597,0.75284667 18.685301,0.463346 18.270708,0.37042 C 17.856114,0.277494 17.516576,0.25962367 17.252094,0.316809 C 16.987612,0.37399433 16.812482,0.50980933 16.726704,0.724254 C 17.184187,0.810032 17.48441,0.91010633 17.627373,1.024477 z M 16.362148,1.496256 L 16.362148,1.410478 L 16.490814,1.303256 C 16.619481,1.217478 16.798185,1.2603667 17.026926,1.431922 L 17.198483,1.453367 L 17.198483,1.539145 L 17.005482,1.496256 C 16.791037,1.582034 16.598037,1.582034 16.426481,1.496256 L 16.362148,1.496256 z M 16.46937,1.410478 C 16.497963,1.4390707 16.540852,1.460515 16.598038,1.474811 C 16.569444,1.4176257 16.569444,1.3675887 16.598038,1.3247 C 16.526555,1.3532927 16.483666,1.3818853 16.46937,1.410478 z M 16.726704,1.474811 C 16.78389,1.474811 16.848223,1.467663 16.919704,1.453367 L 16.748148,1.346145 C 16.791038,1.4176263 16.78389,1.460515 16.726704,1.474811 z M 16.147703,1.925146 C 16.133407,1.9108493 16.129833,1.896553 16.13698,1.882257 C 16.144129,1.8679603 16.161999,1.860812 16.190592,1.860812 C 16.204888,1.860812 16.226332,1.8751083 16.254925,1.903701 C 16.283517,1.9322937 16.308536,1.943016 16.329981,1.935868 C 16.351426,1.92872 16.362148,1.9144237 16.362148,1.892979 C 16.362148,1.8715343 16.369296,1.857238 16.383593,1.85009 C 16.397889,1.842942 16.408611,1.8572383 16.415758,1.892979 C 16.422907,1.9287197 16.405037,1.9573123 16.362148,1.978757 C 16.319258,2.0002017 16.279943,1.9930537 16.244204,1.957313 C 16.208463,1.9215717 16.176296,1.9108493 16.147703,1.925146 z M 12.952474,17.98707 L 0,17.98707 L 0,16.571733 L 2.76634,16.571733 L 2.76634,14.963397 L 0.729113,14.963397 L 0.729113,13.59095 L 2.76634,13.59095 L 2.76634,11.618056 L 0.729113,11.618056 L 0.729113,10.288498 L 2.76634,10.288498 L 2.76634,8.272716 L 0.729113,8.272716 L 0.729113,6.878824 L 2.76634,6.878824 L 2.76634,5.720821 L 0,5.720821 L 0,4.241151 L 2.76634,4.241151 L 2.76634,1.496256 L 4.074453,1.496256 L 4.074453,4.241151 L 4.696344,4.241151 L 4.717788,2.203924 L 6.025902,2.203924 L 6.025902,4.241151 L 6.883682,4.241151 L 6.883682,2.203924 L 8.191796,2.203924 L 8.191796,4.241151 L 8.835131,4.241151 L 8.835131,1.496256 L 10.143245,1.496256 L 10.143245,4.241151 L 12.201916,4.241151 L 12.201916,5.720821 L 10.164689,5.720821 L 10.164689,6.878824 L 12.201916,6.878824 L 12.201916,8.272716 L 10.164689,8.272716 L 10.164689,10.288498 L 12.201916,10.288498 L 12.201916,11.618056 L 10.164689,11.618056 L 10.164689,13.59095 L 12.201916,13.59095 L 12.201916,14.963397 L 10.164689,14.963397 L 10.164689,16.571733 L 12.952474,16.571733 L 12.952474,17.98707 z M 12.437805,17.708292 C 12.566472,17.593921 12.973918,17.479551 13.660142,17.365181 C 14.303477,17.236514 14.710922,16.682531 14.882478,15.703232 C 15.054034,14.723933 15.139812,13.962654 15.139812,13.419394 C 16.097666,9.9739787 16.598037,8.1511967 16.640926,7.951048 C 16.512259,6.6786747 16.380019,5.903099 16.244204,5.624321 C 16.108388,5.3455423 16.026184,5.027449 15.997591,4.670041 C 15.468627,5.3991537 14.953959,5.9567103 14.453588,6.342711 C 13.767365,5.9424137 13.023956,5.484931 12.223361,4.970263 C 11.118098,4.9743159 9.5562806,5.3042933 11.279803,4.691485 C 10.879506,4.491337 10.618598,4.4127073 10.497079,4.455596 C 10.368574,4.5541432 10.196856,4.3340773 10.046744,4.273318 C 10.311227,4.0803173 10.607876,4.019558 10.936691,4.09104 C 11.265506,4.1625213 11.594322,4.2625957 11.923138,4.391263 C 13.295585,4.7915597 14.124772,5.0917823 14.410699,5.291931 C 14.653736,4.863041 14.907496,4.55567 15.171978,4.369818 C 15.436461,4.183966 15.640183,3.9587987 15.783146,3.694316 C 15.926109,3.429834 16.262073,3.297593 16.791037,3.297593 L 16.726704,2.890148 C 16.497963,2.890148 16.333555,2.8829997 16.23348,2.868703 C 16.133405,2.854407 16.083368,2.7757773 16.083368,2.632814 C 16.083368,2.4898507 16.061924,2.4040727 16.019035,2.37548 C 15.976146,2.3468873 15.976146,2.3039983 16.019035,2.246813 C 15.990443,2.232517 15.965425,2.2110727 15.94398,2.18248 C 15.922536,2.1538873 15.947554,2.1181463 16.019035,2.075257 C 15.96185,2.0323683 15.897517,2.0002017 15.826035,1.978757 C 15.754554,1.9573123 15.761702,1.8679603 15.84748,1.710701 C 15.990443,1.453367 16.119109,1.2603667 16.23348,1.1317 C 16.433629,0.50266133 16.77674,0.141679 17.262815,0.048753 C 17.748892,-0.044173 18.195653,-0.0048583333 18.603098,0.166697 C 19.010543,0.338253 19.214266,0.681365 19.214266,1.196033 C 19.214266,1.882257 18.871154,2.354036 18.184929,2.61137 L 18.184929,3.147482 C 18.713894,3.490594 18.978376,3.9409283 18.978376,4.498485 L 18.978376,7.47927 C 19.350081,8.122604 19.421563,8.91605 19.192822,9.859608 L 19.171375,13.247838 C 19.671748,13.962655 19.893341,14.706064 19.836155,15.478065 C 19.77897,16.250067 19.832581,16.839791 19.996988,17.247236 C 20.161397,17.654681 20.007712,17.879848 19.535933,17.922737 L 17.048372,17.922737 L 16.855371,17.708292 C 17.112704,17.465255 17.559465,17.336588 18.195652,17.32229 C 18.831838,17.307994 19.074876,16.947012 18.924765,16.239344 C 18.774652,15.531676 18.52804,14.67747 18.184929,13.676727 C 17.9133,13.390801 17.777485,13.026245 17.777485,12.583058 L 16.876816,12.583058 C 16.347851,13.212097 16.144128,13.758931 16.265648,14.223562 C 16.387167,14.688193 16.047629,15.642472 15.247034,17.086401 C 15.532961,17.55818 15.511516,17.851255 15.1827,17.965626 L 12.287694,17.965626 L 12.437805,17.708292 z M 16.748148,7.028935 C 15.990443,7.2719723 14.982552,7.3720467 13.724475,7.329158 C 13.181214,7.5578993 12.637954,7.59364 12.094694,7.43638 C 12.094694,7.3077133 12.184046,7.24338 12.36275,7.24338 C 12.541454,7.24338 12.738029,7.2290837 12.952474,7.200491 C 12.780918,7.0146383 12.605788,6.921712 12.427083,6.921712 C 12.248379,6.921712 12.044656,7.000342 11.815915,7.157602 C 11.75873,7.1861947 11.683674,7.1433057 11.590748,7.028935 C 11.497822,6.9145643 11.597896,6.7823233 11.890971,6.632212 C 12.184046,6.4821007 12.47712,6.457082 12.770195,6.557156 C 13.06327,6.6572307 13.367067,6.800194 13.681586,6.986046 C 14.925366,6.642934 15.790294,6.4356373 16.276369,6.364156 C 16.590888,5.320524 16.905408,4.5199297 17.219927,3.962373 C 17.505854,3.4905937 17.784632,3.3083153 18.056263,3.415538 C 18.327892,3.5227607 18.349337,3.8622983 18.120596,4.434151 C 17.577336,5.720821 17.119853,6.585749 16.748148,7.028935 z "
     id="path2243"
     sodipodi:nodetypes="cccccccccccccccccscsccccccsssssccssccssccccccscccsssssssccssssssccsssssssccccccccccccssccccccsssssssssccccccccccccccccccccccccccccccccccccccccccccccccccccccccsccsccccccsccssccsssssssscsssccccccsscccsscccscccccccscssssscccscc" />
</svg>
