<?xml version="1.0" encoding="UTF-8" standalone="no"?>
<svg
   xmlns:dc="http://purl.org/dc/elements/1.1/"
   xmlns:cc="http://web.resource.org/cc/"
   xmlns:rdf="http://www.w3.org/1999/02/22-rdf-syntax-ns#"
   xmlns:svg="http://www.w3.org/2000/svg"
   xmlns="http://www.w3.org/2000/svg"
   xmlns:sodipodi="http://sodipodi.sourceforge.net/DTD/sodipodi-0.dtd"
   xmlns:inkscape="http://www.inkscape.org/namespaces/inkscape"
   width="18.46875"
   height="18.004181"
   id="svg2214"
   sodipodi:version="0.32"
   inkscape:version="0.45"
   sodipodi:docname="A389.svg"
   inkscape:output_extension="org.inkscape.output.svg.inkscape"
   sodipodi:docbase="C:\Program Files\JSesh\fontsST"
   sodipodi:modified="true"
   version="1.0">
  <metadata
     id="metadata2221">
    <rdf:RDF>
      <cc:Work
         rdf:about="">
        <dc:format>image/svg+xml</dc:format>
        <dc:type
           rdf:resource="http://purl.org/dc/dcmitype/StillImage" />
      </cc:Work>
    </rdf:RDF>
  </metadata>
  <defs
     id="defs2219" />
  <sodipodi:namedview
     inkscape:window-height="480"
     inkscape:window-width="640"
     inkscape:pageshadow="2"
     inkscape:pageopacity="0.0"
     guidetolerance="10.0"
     gridtolerance="10.0"
     objecttolerance="10.0"
     borderopacity="1.0"
     bordercolor="#666666"
     pagecolor="#ffffff"
     id="base" />
  <path
     style="fill:#000000;stroke:none"
     d="M 7.75,0.0021896362 C 7.528583,-0.0085736968 7.2992933,0.021636303 7.0625,0.064689636 C 6.5889133,0.15079631 6.2536621,0.51978567 6.09375,1.2209396 C 5.995342,1.3685509 5.88531,1.6065683 5.75,1.8771896 C 5.676194,2.0371016 5.676194,2.1087382 5.75,2.1271896 C 5.8238053,2.1456409 5.9005974,2.1840363 5.9375,2.2209396 C 5.8882967,2.2578423 5.8626995,2.2839377 5.875,2.3146896 C 5.8873007,2.3454423 5.9195462,2.3648888 5.96875,2.3771896 C 5.993352,2.3648889 5.9744026,2.3966362 5.9375,2.4396896 C 5.9005967,2.4827429 5.9195462,2.5088376 5.96875,2.5334396 C 6.017954,2.5580416 6.0501995,2.6291804 6.0625,2.7521896 C 6.0748013,2.8751989 6.1264935,2.9335389 6.21875,2.9396896 C 6.3110073,2.9458396 6.4660824,2.9396897 6.6875,2.9396896 L 6.75,3.2209396 C 6.4055733,3.1717356 5.9541393,3.3263143 5.4375,3.6584396 C 5.0192673,4.6917196 4.722412,5.6354704 4.5625,6.5334396 C 3.9474527,6.4104296 3.3205013,6.0547361 2.65625,5.4396896 C 2.373328,5.2059709 2.0831206,5.0447449 1.8125,4.9709396 L 2.84375,0.68968964 L 0,0.68968964 L 0.96875,4.8771896 L 0.5625,4.8771896 C 0.55019933,5.0248009 0.64693532,5.1025874 0.84375,5.1271896 C 0.83144933,5.6684316 0.8769907,5.920741 1,5.9084396 C 1.077496,5.912745 1.2387712,5.9082781 1.3125,5.9084396 C 2.4862116,8.4240352 3.7257267,9.7682066 5.25,9.9084396 C 5.4907969,9.9305929 5.7238541,9.9052656 5.9375,9.8771896 L 5.4375,12.47094 C 5.105374,14.41449 4.8786627,15.635153 4.71875,16.12719 C 4.534236,16.606928 4.3151665,16.865885 4.09375,16.93969 C 3.8723327,17.013495 3.4787413,17.174722 2.9375,17.40844 C 2.580772,17.482247 2.3863054,17.592278 2.3125,17.75219 C 2.238694,17.912102 2.3809712,18.014491 2.75,18.00219 C 3.2297367,18.00219 3.584932,17.963794 3.8125,17.90844 C 4.0400673,17.853085 4.3246219,17.859734 4.6875,17.93969 C 5.050378,18.019647 5.2310505,17.915766 5.21875,17.59594 C 5.2802547,16.993193 5.513118,16.263356 5.9375,15.40844 C 6.3618833,14.553523 6.5743036,13.889172 6.53125,13.47094 C 6.4881967,13.052709 6.5987268,12.729261 6.90625,12.47094 L 8.3125,12.47094 C 8.6077227,14.41449 8.7822452,15.667397 8.84375,16.22094 C 8.868352,16.688375 8.7721136,16.998528 8.59375,17.15844 C 8.415386,17.318353 8.0601909,17.421737 7.53125,17.47094 C 7.223726,17.643153 7.0809512,17.784933 7.0625,17.87719 C 7.0440487,17.969447 7.141282,18.014491 7.375,18.00219 C 7.5964173,18.00219 7.8676756,17.983241 8.1875,17.97094 C 8.5073253,17.958639 8.894766,17.958639 9.34375,17.97094 C 9.7927347,17.983241 9.941162,17.828663 9.78125,17.53344 C 9.6459393,16.635472 9.6392918,15.769507 9.75,14.90844 C 9.8607087,14.047373 9.7895699,13.233599 9.53125,12.47094 L 9.09375,9.6584396 C 9.2905653,8.9326836 9.2711187,8.2673363 9.03125,7.6584396 C 8.9821495,7.5337997 8.985121,7.3772782 8.96875,7.2209396 C 10.134566,7.2783741 11.105719,7.1725211 11.875,6.9084396 C 11.784259,6.6677778 11.673871,6.4020164 11.53125,6.1271896 C 12.140348,6.1190275 12.554517,6.1167782 13.5,6.0959396 C 15.120904,6.0602153 16.315909,5.7091721 17.09375,5.0334396 C 17.871593,4.3577072 18.335672,3.2463256 18.46875,1.6896896 C 16.684202,3.4576184 15.453288,4.3919498 14.75,4.5021896 C 14.046712,4.6124294 13.003382,4.6779521 11.625,4.6896896 C 11.311475,4.6923593 10.992049,4.7279326 10.6875,4.7834396 C 10.546303,4.5738512 10.444001,4.3822223 10.28125,4.1584396 C 10.133639,3.7525083 9.8234879,3.5068469 9.34375,3.4084396 C 8.6425967,3.3469349 8.2428544,3.2435509 8.1875,3.0959396 C 8.132146,2.9483283 8.1183518,2.7804536 8.09375,2.5959396 C 8.3151673,2.4975316 8.5347336,2.3230097 8.75,2.0646896 C 8.9652667,1.8063696 9.0558525,1.4639723 9.03125,1.0334396 C 9.0189493,0.55370231 8.7870817,0.25634964 8.375,0.12718964 C 8.1689593,0.062609636 7.971417,0.012952969 7.75,0.0021896362 z M 7.5,0.28343964 C 7.6676004,0.28651481 7.8595338,0.33413631 8.0625,0.37718964 C 8.4684313,0.46329631 8.6751995,0.68336029 8.6875,1.0646896 C 8.7121027,1.4337183 8.6020699,1.7566682 8.34375,2.0334396 C 8.08543,2.3102109 7.9175553,2.3941482 7.84375,2.2834396 C 7.745342,2.1604303 7.7908836,1.9797569 8,1.7521896 C 8.209116,1.5246216 8.248009,1.3050556 8.125,1.0959396 C 8.0019907,0.88682364 7.7819266,0.89912436 7.4375,1.0959396 C 7.3021893,0.96062897 6.9986852,0.85159233 6.53125,0.81468964 C 6.6173567,0.56867031 6.7980298,0.41974498 7.0625,0.34593964 C 7.194735,0.30903664 7.3323996,0.28036447 7.5,0.28343964 z M 2.40625,0.97093964 L 1.5625,4.8771896 L 1.25,4.8459396 L 0.4375,1.0021896 L 2.40625,0.97093964 z M 6.4375,1.0334396 C 6.8065287,1.0334396 7.11668,1.1235276 7.375,1.2834396 C 7.3626987,1.4310509 7.4205412,1.4187503 7.53125,1.2834396 C 7.6419587,1.1481296 7.7519907,1.1092356 7.875,1.1584396 C 7.99801,1.2076429 8.0113062,1.3238256 7.9375,1.5021896 C 7.8636947,1.6805529 7.7854098,1.8166796 7.65625,1.9396896 C 7.5270893,2.0626989 7.4825435,2.1916803 7.5625,2.3146896 C 7.642456,2.4376989 7.6941481,2.541083 7.71875,2.6271896 C 7.792556,3.3529456 8.1017124,3.7209396 8.59375,3.7209396 C 9.085788,3.7209396 9.1512736,4.1667202 8.84375,5.0646896 C 8.7891113,5.2242345 8.761351,5.3808844 8.71875,5.5334396 C 8.3979829,5.7286411 8.0906113,5.9585995 7.78125,6.2209396 L 7.75,6.2209396 C 7.7431805,6.2267487 7.7255639,6.2150978 7.71875,6.2209396 C 7.5318457,6.2148051 7.3444577,6.2208384 7.125,6.2521896 C 7.1126987,6.3751989 7.1904854,6.4463375 7.375,6.4709396 C 7.350398,6.9998803 7.4082405,7.2644902 7.53125,7.2521896 C 7.6671756,7.2601852 7.8021392,7.2547182 7.9375,7.2521896 C 7.917257,7.3510854 7.9006138,7.475703 7.875,7.5646896 L 6.78125,7.8146896 C 6.7320467,6.3754789 6.609216,5.4383764 6.40625,4.9709396 C 6.2032847,4.5035043 6.0671582,4.1805537 5.96875,4.0021896 C 5.8703427,3.8238256 6.025916,3.7209396 6.46875,3.7209396 C 6.9238853,3.7209396 7.1368033,3.5525676 7.09375,3.1896896 C 7.0506967,2.8268116 6.8766721,2.6783837 6.59375,2.7521896 C 6.310828,2.8259949 6.2130968,2.7359076 6.25,2.5021896 C 6.4222133,2.3914809 6.4616046,2.3264929 6.40625,2.2834396 C 6.350896,2.2403869 6.2413614,2.2209396 6.09375,2.2209396 C 6.0999003,2.1778863 6.0963277,2.1297673 6.0625,2.0959396 C 6.0802133,2.0974157 6.1028583,2.0701076 6.125,2.0959396 C 6.1619027,2.1389929 6.2069464,2.1456408 6.25,2.1271896 C 6.2930533,2.1087383 6.3186502,2.0826436 6.3125,2.0334396 C 6.307887,1.9965371 6.2615321,2.0079558 6.25,2.0021896 C 6.2561507,2.0267916 6.2433518,2.0462383 6.21875,2.0646896 C 6.194148,2.0831409 6.155752,2.0703423 6.125,2.0334396 C 6.0942473,1.9965363 6.0937498,2.0021896 6.09375,2.0021896 C 6.069148,2.0021896 6.0435506,1.9898883 6.03125,2.0021896 C 6.0189487,2.0144903 6.0189486,2.0400877 6.03125,2.0646896 C 5.9981885,2.0404814 5.9626896,2.0210029 5.90625,2.0021896 C 6.0292593,1.6823649 6.1392913,1.4689489 6.25,1.3459396 C 6.3853107,1.2844349 6.5147894,1.2844349 6.65625,1.3459396 C 6.7977107,1.4074443 6.9650872,1.4586389 7.125,1.4709396 L 7.09375,1.3771896 C 6.9953427,1.3648889 6.8914605,1.3198449 6.75,1.2521896 C 6.6085393,1.1845343 6.4601118,1.159435 6.3125,1.2209396 C 6.361704,1.1348329 6.4005972,1.082643 6.4375,1.0334396 z M 7.71875,1.2209396 C 7.6326427,1.2516923 7.5364048,1.328981 7.46875,1.4396896 C 7.4010947,1.5503983 7.3816481,1.6281849 7.40625,1.6896896 C 7.3447447,1.7142916 7.3248005,1.753185 7.3125,1.8146896 C 7.3001987,1.8761943 7.3073448,1.9150876 7.375,1.9396896 C 7.4426553,1.9642909 7.5393908,1.9376989 7.65625,1.8146896 C 7.7731093,1.6916803 7.8442482,1.569347 7.875,1.4709396 C 7.9057527,1.3725316 7.9057528,1.3013929 7.875,1.2521896 C 7.844248,1.2029856 7.8048565,1.1901876 7.71875,1.2209396 z M 7.78125,1.3146896 C 7.81354,1.3162271 7.8155753,1.3372116 7.8125,1.3771896 C 7.80635,1.4571463 7.7802545,1.5533843 7.71875,1.6271896 C 7.6572447,1.7009956 7.5804535,1.7588383 7.53125,1.7834396 C 7.482046,1.8080416 7.4820462,1.7573449 7.53125,1.6896896 C 7.5804533,1.6220349 7.5804535,1.6087383 7.53125,1.6271896 C 7.482046,1.6456409 7.4753981,1.6323449 7.5,1.5646896 C 7.524602,1.4970343 7.5757965,1.426393 7.625,1.3771896 C 7.6926553,1.3402866 7.74896,1.3131521 7.78125,1.3146896 z M 6.5625,1.3771896 C 6.4733182,1.3587381 6.4114054,1.3653862 6.34375,1.4084396 L 6.21875,1.5334396 L 6.21875,1.6271896 L 6.28125,1.5959396 C 6.453464,1.6820463 6.6535835,1.6943476 6.875,1.5959396 L 7.0625,1.6271896 L 7.0625,1.5334396 L 6.875,1.5021896 C 6.7642917,1.4222333 6.6516818,1.3956411 6.5625,1.3771896 z M 6.4375,1.4396896 C 6.4128987,1.4888936 6.4318475,1.5467363 6.46875,1.5959396 C 6.419546,1.5713376 6.3806528,1.5457403 6.34375,1.5334396 C 6.3560507,1.4965369 6.3759952,1.4642917 6.4375,1.4396896 z M 6.59375,1.4709396 L 6.78125,1.5334396 C 6.7074447,1.5580416 6.6552545,1.5959396 6.59375,1.5959396 C 6.642954,1.5590369 6.6306534,1.5201436 6.59375,1.4709396 z M 7.40625,1.7834396 C 7.480056,1.8203423 7.5056535,1.8464369 7.46875,1.8771896 C 7.4318473,1.9079416 7.3934512,1.9079415 7.375,1.8771896 C 7.3565487,1.8464369 7.3693471,1.8203423 7.40625,1.7834396 z M 6.03125,2.2834396 C 6.0435507,2.2649883 6.0568467,2.2711382 6.09375,2.2834396 C 6.1429533,2.2957403 6.2197455,2.2834395 6.28125,2.2834396 C 6.3427553,2.2834396 6.3560512,2.3023883 6.34375,2.3146896 C 6.319148,2.3392916 6.2869026,2.3838376 6.25,2.4084396 C 6.2130973,2.4330416 6.1742039,2.4396897 6.125,2.4396896 C 6.100398,2.4396896 6.0999008,2.4458402 6.09375,2.4396896 C 6.0876,2.4335389 6.0814491,2.4017915 6.09375,2.3771896 L 6.34375,2.3146896 L 6.0625,2.3146896 C 6.0255967,2.3146896 6.0189486,2.3018916 6.03125,2.2834396 z M 18.125,2.4084396 C 17.763378,3.5812754 17.28203,4.4169516 16.65625,4.9084396 C 16.030471,5.3999277 14.93731,5.669393 13.375,5.7209396 C 11.812693,5.7724854 10.788467,5.8094684 10.3125,5.7834396 C 9.8365346,5.7574099 9.1477588,5.8855087 8.25,6.1896896 C 9.3423492,5.3914683 10.541323,4.9750213 11.8125,4.9709396 C 13.083677,4.9668577 14.118618,4.9197082 14.90625,4.7834396 C 15.69388,4.647171 16.747478,3.8405433 18.125,2.4084396 z M 9.46875,4.6896896 C 9.5506043,4.804728 9.6361,4.9223799 9.71875,5.0334396 C 9.5832176,5.0854584 9.4461347,5.1577498 9.3125,5.2209396 C 9.3716471,5.0492871 9.3951647,4.8753255 9.46875,4.6896896 z M 5.90625,5.1584396 C 6.2014727,5.6750789 6.3437499,6.5922374 6.34375,7.9084396 L 6,9.5646896 C 5.7323826,9.6070362 5.4416755,9.6806368 5.125,9.6271896 C 3.6820284,9.38365 2.5918292,8.1047685 1.625,5.9084396 C 1.8495691,5.8895194 1.9723508,5.8470967 2.15625,5.7834396 C 2.857404,6.7306123 3.7812106,7.3821664 4.9375,7.6896896 C 5.5525473,6.5087989 5.8816478,5.6627784 5.90625,5.1584396 z M 10.125,6.1584396 C 10.218635,6.1586665 10.509681,6.1590299 10.625,6.1584396 C 10.708756,6.2534533 10.790235,6.3484041 10.875,6.4396896 C 10.579777,6.4642916 10.250179,6.5287821 9.875,6.6271896 C 9.5555219,6.7109875 9.2570098,6.7173554 8.96875,6.6584396 C 8.9809991,6.5381351 9.00602,6.4155401 9.03125,6.2834396 C 9.3769227,6.2039566 9.7353957,6.1574955 10.125,6.1584396 z M 8.5,7.2209396 C 8.5035567,7.292931 8.4924023,7.3700445 8.5,7.4396896 L 8.15625,7.5021896 C 8.1790214,7.4168105 8.1984418,7.3421258 8.21875,7.2521896 C 8.3148799,7.248347 8.4052587,7.2289477 8.5,7.2209396 z M 8.59375,7.8771896 C 8.9381767,8.3446256 8.9325236,8.9326838 8.625,9.6584396 L 9.0625,12.06469 L 6,12.06469 L 6.46875,9.7521896 C 7.1398714,9.4968765 7.6371166,8.9168054 7.96875,8.0334396 L 8.59375,7.8771896 z M 7.6875,8.0959396 C 7.417525,8.7372491 7.0423635,9.1769719 6.5625,9.4084396 L 6.78125,8.3146896 L 7.6875,8.0959396 z "
     id="path2216" />
</svg>
