<?xml version="1.0" encoding ="US-ASCII" standalone="yes"?>
<svg width="21.122406" height="17.977417">
<path style="fill:#000000; stroke:none" d=" M 9.061265 4.006682  Q 6.98601 5.095677 4.458718 4.931301  Q 4.479265 7.355857 5.794279 8.444853  Q 7.109292 9.533849 8.280476 9.759867  Q 9.225642 7.027104 9.225642 5.21896  Q 9.225642 4.499812 9.061265 4.006682  Z  M 9.513301 10.848862  Q 7.848987 10.479014 6.657256 9.800961  Q 3.821758 8.239382 3.821758 5.527166  Q 3.821758 4.992942 3.945041 4.417624  Q 4.068323 2.280727 3.164251 2.280727  Q 2.506745 2.280727 1.582126 3.287534  Q 0.554771 4.520359 0.678054 4.72583  Q 1.027354 4.972395 1.541031 4.561453  Q 2.054709 4.150512 2.897139 4.129964  Q 3.410816 4.417624 3.266987 5.280602  Q 3.266987 5.71209 2.856045 6.98601  Q 2.445103 8.259929 2.445103 9.205095  Q 2.445103 10.499561 3.10261 11.896764  Q 3.554646 10.869409 4.705283 10.869409  Q 6.84218 10.869409 9.143454 12.821383  Q 9.965337 11.609104 9.513301 10.848862  Z  M 11.609104 10.828315  Q 11.157068 11.609104 11.978951 12.821383  Q 14.280226 10.869409 16.417122 10.869409  Q 17.567759 10.869409 18.019794 11.876216  Q 18.677301 10.499561 18.677301 9.184548  Q 18.677301 8.259929 18.266361 6.975736  Q 17.855419 5.691543 17.855419 5.260054  Q 17.71159 4.397077 18.225266 4.109417  Q 19.067698 4.150512 19.591648 4.561453  Q 20.115599 4.972395 20.444351 4.72583  Q 20.588181 4.520359 19.540279 3.287534  Q 18.636208 2.280727 17.958155 2.280727  Q 17.054083 2.280727 17.197912 4.397077  Q 17.300648 4.972395 17.300648 5.527166  Q 17.300648 8.239382 14.465149 9.800961  Q 13.273418 10.458467 11.609104 10.828315  Z  M 12.081687 4.006682  Q 11.917311 4.479265 11.917311 5.198413  Q 11.917311 7.027104 12.841929 9.759867  Q 14.013113 9.513301 15.338401 8.424306  Q 16.663687 7.33531 16.684235 4.931301  Q 14.156943 5.07513 12.081687 4.006682  Z  M 10.561203 10.129714  Q 11.321445 10.170808 12.040593 9.780414  L 11.383086 7.561328  L 9.739319 7.561328  L 9.081813 9.800961  Q 9.800961 10.170808 10.561203 10.129714  Z  M 11.383086 6.739445  L 11.383086 5.157319  L 9.759867 5.157319  L 9.759867 6.739445  L 11.383086 6.739445  Z  M 11.383086 4.664189  Q 11.526916 3.390269 11.270078 3.040969  Q 11.013239 2.691669 10.992692 2.198538  Q 11.383086 1.890332 11.383086 1.294466  Q 11.383086 0.472583 10.561203 0.472583  L 10.58175 0.472583  Q 9.759867 0.472583 9.759867 1.294466  Q 9.759867 1.890332 10.150261 2.219085  Q 10.109167 2.712215 9.852328 3.051242  Q 9.59549 3.390269 9.759867 4.664189  L 11.383086 4.664189  Z  M 10.561203 0  Q 11.917311 0 11.917311 1.294466  Q 11.917311 2.095803 11.650198 2.239633  Q 11.383086 2.383462 11.732387 2.712215  Q 12.636458 3.534099 13.910378 3.986135  Q 15.040467 4.335435 16.458218 4.397077  Q 16.848612 4.253247 16.211651 1.088996  Q 16.088369 0.554771 16.417122 0.534224  Q 16.704782 0.554771 17.310921 1.099269  Q 17.917061 1.643767 18.718397 1.520484  Q 19.848486 1.438296 19.725204 2.650574  Q 21.122406 4.294341 21.122406 4.951848  Q 21.122406 5.383337 20.464899 5.444978  Q 19.88958 5.383337 18.636208 4.931301  Q 18.47183 5.301148 18.47183 5.732637  Q 18.47183 6.164126 18.841679 7.027104  Q 19.211527 7.890081 19.355356 8.568135  Q 19.437544 9.431113 19.437544 10.58175  Q 19.437544 11.198162 19.365629 12.338526  Q 19.293715 13.478889 19.293715 14.033661  Q 19.293715 15.882898 19.930674 17.321194  Q 19.519733 17.978701 18.800585 17.321194  Q 18.430737 14.444602 17.814325 13.293965  Q 17.465025 13.437795 17.465025 14.300773  Q 17.465025 15.451409 18.019794 17.526665  Q 17.875965 17.896513 17.526665 17.958155  Q 17.177364 18.019794 16.643141 17.896513  L 16.643141 13.930925  Q 16.643141 12.6981 16.643141 11.691293  Q 16.170557 11.485822 14.732262 11.978951  Q 13.458342 12.718647 13.458342 13.910378  Q 13.396701 15.102109 14.691167 17.506119  Q 14.814449 17.814325 14.259679 17.814325  Q 13.68436 17.814325 13.54053 17.444477  Q 12.677553 13.725454 12.143329 13.725454  Q 11.814575 13.663813 11.88649 14.208311  Q 11.958405 14.752809 12.821383 17.71159  Q 12.677553 17.917061 12.23579 17.906786  Q 11.794028 17.896513 11.670746 17.691042  Q 11.383086 13.869284 10.561203 13.869284  L 10.561203 13.869284  Q 9.759867 13.869284 9.472207 17.71159  Q 9.328378 17.896513 8.886615 17.906786  Q 8.444853 17.917061 8.301023 17.732136  Q 9.184548 14.773355 9.246189 14.218584  Q 9.307831 13.663813 8.979077 13.725454  Q 8.4654 13.746001 7.581875 17.444477  Q 7.438046 17.814325 6.862727 17.814325  Q 6.307956 17.814325 6.431238 17.526665  Q 7.746252 15.102109 7.68461 13.910378  Q 7.68461 12.739194 6.390144 11.978951  Q 4.972395 11.485822 4.479265 11.691293  Q 4.479265 12.6981 4.479265 13.951472  L 4.479265 17.896513  Q 3.965588 18.019794 3.606014 17.958155  Q 3.24644 17.896513 3.10261 17.547213  Q 3.657382 15.451409 3.657382 14.300773  Q 3.657382 13.437795 3.328628 13.293965  Q 2.691669 14.444602 2.321821 17.321194  Q 1.602673 17.978701 1.191731 17.321194  Q 1.849238 15.903445 1.849238 14.033661  Q 1.849238 13.499436 1.767049 12.3488  Q 1.684861 11.198162 1.684861 10.602297  Q 1.684861 9.431113 1.787597 8.588682  Q 1.910879 7.890081 2.280727 7.027104  Q 2.650574 6.164126 2.650574 5.732637  Q 2.650574 5.321695 2.506745 4.931301  Q 1.232825 5.383337 0.657507 5.444978  Q 0 5.383337 0 4.951848  Q 0 4.294341 1.397202 2.671121  Q 1.294466 1.458843 2.404009 1.520484  Q 3.225893 1.643767 3.821758 1.099269  Q 4.417624 0.554771 4.705283 0.534224  Q 5.054584 0.554771 4.910754 1.109543  Q 4.273794 4.253247 4.664189 4.417624  Q 6.102485 4.335435 7.212028 3.986135  Q 8.506495 3.534099 9.390018 2.712215  Q 9.759867 2.404009 9.492754 2.249906  Q 9.225642 2.095803 9.225642 1.294466  Q 9.225642 0 10.561203 0  L 10.561203 0  Z "/></svg>
