<?xml version="1.0" encoding ="US-ASCII" standalone="yes"?>
<svg width="14.276077" height="17.977417">
<path style="fill:#000000; stroke:none" d=" M 10.318228 0  Q 12.476289 -0.038537 12.611168 1.791961  Q 12.611168 2.986602 11.223844 4.084901  Q 11.127501 4.316122 11.156404 4.672586  Q 11.185305 5.029052 12.071653 5.346981  Q 12.958 5.664909 12.649704 6.955892  L 12.302875 12.774949  Q 12.495557 13.699832 12.302875 15.010084  Q 12.784583 14.701789 12.861658 15.395452  Q 12.630436 16.243261 12.919463 16.76351  L 13.959955 17.418633  Q 14.692154 17.919611 13.728736 17.919611  L 12.033115 17.765467  Q 10.915548 17.977417 1.551106 17.977417  L 1.551106 17.938881  Q 2.052085 17.418633 2.533795 17.168146  Q 2.745747 16.609362 3.343068 16.185457  Q 4.017461 15.645943 4.017461 14.566911  Q 4.017461 13.372271 3.805509 10.790304  Q 3.978925 9.865421 4.730392 9.88469  Q 5.520397 9.88469 8.121631 12.505193  Q 8.661147 11.156404 8.632243 10.0003  Q 8.603341 8.844195 8.468462 8.574438  Q 7.273821 9.017612 6.483817 9.210295  L 5.674544 8.593707  Q 4.325756 9.402978 4.055998 9.402978  Q 3.285262 8.824927 2.697576 8.02529  Q 2.10989 7.22565 1.242812 5.664909  Q 0.915249 5.587836 0.472076 4.412464  Q 0.29866 4.277585 0.29866 4.084901  Q 0.433539 3.96929 0.558784 4.046364  Q 0.684028 4.123437 0.973054 4.797832  Q 1.14647 4.894174 1.107933 4.682221  Q 1.107933 4.296854 0.067439 3.275628  Q 0.009634 3.198555 0 3.121481  Q -0.009634 3.044407 0.144513 3.044407  Q 0.144513 2.909528 0.279392 2.909528  Q 0.279392 2.77465 0.414271 2.793918  Q 0.414271 2.620502 0.568418 2.697576  Q 1.724522 3.73807 1.820864 4.181243  Q 1.955743 4.624416 2.032816 5.433689  Q 3.728435 7.514677 3.978925 7.95785  L 4.788198 7.321992  L 4.788198 7.283455  Q 4.40283 6.108083 2.996236 4.316122  Q 2.880626 3.872948 2.533795 3.314165  L 2.533795 3.237091  L 2.630137 3.140749  L 2.70721 3.140749  Q 2.861358 3.237091 3.246725 3.950022  L 3.343068 3.988558  L 3.343068 3.85368  Q 3.343068 3.449044 2.2255 2.370013  L 2.2255 2.254403  Q 2.2255 2.196598 2.360379 2.196598  Q 2.360379 2.061718 2.495258 2.061718  Q 2.495258 1.92684 2.572331 1.92684  L 2.5916 1.965377  L 2.630137 1.965377  Q 2.668673 1.830498 2.765015 1.830498  Q 2.842089 1.830498 3.246725 2.29294  Q 4.210145 3.044407 4.210145 4.393196  Q 4.614782 5.202467 5.163932 5.819057  Q 5.713081 6.435646 5.828691 6.570525  Q 7.023331 5.491494 7.832605 5.491494  Q 8.661147 5.279541 8.661147 4.797832  L 8.063825 4.720758  Q 7.620652 4.720758 7.620652 3.872948  L 7.52431 3.333433  Q 7.216016 3.314165 7.216016 3.140749  Q 7.216016 2.948066 8.468462 0.982688  Q 9.277735 0 10.318228 0  Z  M 9.316272 0.905615  Q 9.316272 1.368057 11.204575 1.44513  Q 11.435795 1.618546 11.435795 2.023182  Q 11.435795 2.485624 10.722864 3.583922  L 10.799939 3.583922  Q 12.033115 2.793918 12.033115 1.695619  Q 12.033115 0.886346 11.387625 0.66476  Q 10.742134 0.443173 10.067739 0.472076  Q 9.393345 0.500978 9.316272 0.905615  Z  M 8.217974 2.447087  Q 8.410656 2.158061 8.641877 2.158061  Q 8.892366 2.158061 9.094686 2.273671  Q 9.297004 2.389282 9.759443 2.466355  L 9.759443 2.524161  Q 9.316272 2.562697 9.104319 2.659039  Q 8.48773 2.870991 8.217974 2.447087  Z  M 9.56676 2.29294  Q 9.046513 2.061718 8.699682 2.061718  Q 8.333583 2.061718 8.083094 2.29294  Q 7.543579 3.102212 7.871141 3.082944  Q 8.006021 3.102212 8.063825 3.583922  Q 8.449194 3.506849 8.449194 3.795875  L 8.083094 3.795875  Q 8.121631 4.277585 8.930904 4.277585  Q 9.412613 4.277585 9.412613 4.980881  Q 9.412613 5.684178 8.651512 5.953936  Q 7.890411 6.223693 7.890411 6.300767  Q 8.237243 6.763209 8.603341 6.917356  Q 9.065783 6.782477 11.358723 5.703446  Q 11.358723 5.645642 10.905913 5.356616  Q 10.453107 5.067589 10.549449 4.412464  Q 10.144814 3.96929 10.144814 3.728435  Q 10.144814 3.487581 10.819206 2.639771  Q 11.031159 2.331476 11.050426 2.167695  Q 11.069695 2.003914 10.973352 1.878669  Q 10.877013 1.753424 10.665059 1.714888  Q 10.453107 1.676351 10.164083 1.984645  Q 9.181393 1.483667 8.776756 1.483667  Q 8.506999 1.695619 8.506999 1.791961  Q 9.104319 1.791961 9.605297 2.235135  Q 9.605297 2.29294 9.56676 2.29294  Z  M 10.04847 2.697576  Q 10.337496 1.791961 10.655426 1.849766  Q 10.973352 1.907572 10.915548 2.264037  Q 10.857743 2.620502 10.144814 3.102212  Q 9.875056 3.198555 9.836517 3.034773  Q 9.797982 2.870991 10.04847 2.697576  Z  M 10.260423 2.562697  L 10.318228 2.639771  L 10.260423 2.832454  Q 10.722864 2.466355 10.761401 2.283305  Q 10.799939 2.100255 10.7325 2.042451  Q 10.665059 1.984645 10.472374 2.119524  Q 10.279692 2.254403 10.260423 2.562697  Z  M 8.372121 2.427818  L 8.622609 2.581966  Q 8.48773 2.447087 8.641877 2.29294  L 8.372121 2.427818  Z  M 8.853829 2.331476  Q 8.930904 2.466355 8.834561 2.562697  L 9.162125 2.504892  Q 9.046513 2.389282 8.853829 2.331476  Z  M 10.009933 2.851723  Q 9.952128 3.044407 10.087008 2.976968  Q 10.221887 2.909528 10.009933 2.851723  Z  M 6.715037 7.649555  L 6.715037 7.726629  Q 7.466506 7.399066 7.794067 7.187114  L 7.794067 7.148577  L 7.755532 7.148577  Q 7.52431 7.148577 6.715037 7.649555  Z  M 9.104319 8.227608  Q 9.277735 9.094686 9.277735 10.616887  Q 9.277735 12.158361 8.776756 13.25666  L 8.796024 13.25666  Q 9.913591 13.25666 11.744091 12.485923  Q 11.744091 11.291284 12.013848 7.22565  Q 10.973352 7.688091 9.104319 8.227608  Z  M 4.614782 11.233478  L 4.807466 14.894473  Q 7.061869 14.258615 7.832605 13.757637  Q 7.928946 13.48788 7.928946 13.295197  Q 5.327713 10.7325 4.961613 10.7325  Q 4.614782 10.7325 4.614782 11.233478  Z  M 3.747704 16.62863  Q 3.516483 17.091068 4.075267 17.033268  Q 5.84796 15.954233 9.720908 16.724972  Q 11.339453 16.724972 11.744091 14.875205  L 11.744091 13.25666  Q 11.243113 13.25666 5.096491 15.723015  Q 4.075267 16.204725 3.747704 16.62863  Z "/></svg>
