<?xml version="1.0" encoding="UTF-8" standalone="no"?>
<svg
   xmlns:dc="http://purl.org/dc/elements/1.1/"
   xmlns:cc="http://web.resource.org/cc/"
   xmlns:rdf="http://www.w3.org/1999/02/22-rdf-syntax-ns#"
   xmlns:svg="http://www.w3.org/2000/svg"
   xmlns="http://www.w3.org/2000/svg"
   xmlns:sodipodi="http://inkscape.sourceforge.net/DTD/sodipodi-0.dtd"
   xmlns:inkscape="http://www.inkscape.org/namespaces/inkscape"
   width="1800.0000px"
   height="1800.0000px"
   id="svg1996"
   sodipodi:version="0.32"
   inkscape:version="0.41.1"
   sodipodi:docname="A40.svg"
   sodipodi:docbase="/home/rosmord/Travail/Gsigns/Courants">
  <metadata
     id="metadata2003">
    <rdf:RDF
       id="RDF4">
      <cc:Work
         rdf:about=""
         id="Work6">
        <dc:format
           id="format8">image/svg+xml</dc:format>
        <dc:type
           rdf:resource="http://purl.org/dc/dcmitype/StillImage"
           id="type10" />
        <dc:title
           id="title12">US22A40E</dc:title>
        <dc:date
           id="date14">29/01/2006</dc:date>
        <dc:creator
           id="creator16">
          <cc:Agent
             id="Agent18">
            <dc:title
               id="title20">Serge Thomas</dc:title>
          </cc:Agent>
        </dc:creator>
        <dc:publisher
           id="publisher22">
          <cc:Agent
             id="Agent24">
            <dc:title
               id="title26">Serge Rosmorduc</dc:title>
          </cc:Agent>
        </dc:publisher>
        <dc:description
           id="description28">Original by SJP Thomas, from  KV57. Simplified to match the Pashed font style (60px wide lines) by S. Rosmorduc.</dc:description>
        <cc:license
           rdf:resource="http://creativecommons.org/licenses/GPL/2.0/"
           id="license30" />
      </cc:Work>
      <cc:License
         rdf:about="http://creativecommons.org/licenses/GPL/2.0/"
         id="License32">
        <cc:permits
           rdf:resource="http://web.resource.org/cc/Reproduction"
           id="permits34" />
        <cc:permits
           rdf:resource="http://web.resource.org/cc/Distribution"
           id="permits36" />
        <cc:requires
           rdf:resource="http://web.resource.org/cc/Notice"
           id="requires38" />
        <cc:permits
           rdf:resource="http://web.resource.org/cc/DerivativeWorks"
           id="permits40" />
        <cc:requires
           rdf:resource="http://web.resource.org/cc/ShareAlike"
           id="requires42" />
        <cc:requires
           rdf:resource="http://web.resource.org/cc/SourceCode"
           id="requires44" />
      </cc:License>
    </rdf:RDF>
  </metadata>
  <defs
     id="defs2001" />
  <sodipodi:namedview
     inkscape:window-height="944"
     inkscape:window-width="1273"
     inkscape:pageshadow="2"
     inkscape:pageopacity="0.0"
     borderopacity="1.0"
     bordercolor="#666666"
     pagecolor="#ffffff"
     id="base"
     inkscape:zoom="0.36092593"
     inkscape:cx="774.48142"
     inkscape:cy="1145.7564"
     inkscape:window-x="0"
     inkscape:window-y="0"
     inkscape:current-layer="svg1996" />
  <path
     style="fill:#000000;fill-opacity:1.0000000;stroke:none;display:inline"
     d="M 736.37500,0.18750000 C 650.87173,2.5332640 555.76821,25.435217 504.81208,99.956803 C 482.29130,132.60907 465.24629,172.15404 472.84375,212.50000 C 452.35890,259.72152 407.86572,296.04149 400.87772,348.88356 C 394.20463,391.66109 458.79096,382.88283 443.00996,424.29087 C 443.95415,455.38439 478.40931,486.01285 466.98064,505.86744 C 447.08753,590.58592 423.61188,680.09607 363.52171,746.00961 C 339.53563,787.59286 299.97450,759.78079 266.06995,759.15949 C 224.45591,783.56150 281.55451,823.24468 311.54461,819.95213 C 378.41061,825.38560 428.81222,769.74396 458.90625,716.56250 C 495.84071,656.18925 522.90896,588.28122 545.06250,522.46875 C 581.36683,508.16013 618.04827,495.21539 626.59068,545.03374 C 653.72170,616.75355 627.96688,692.88121 620.52666,765.76874 C 593.38719,951.86172 566.06591,1137.9305 537.71875,1323.8438 C 434.45869,1195.4847 331.62694,1066.7695 228.09913,938.63301 C 188.71316,898.77639 124.49042,899.19071 74.468298,915.81549 C 32.822730,933.02074 -11.632604,976.54238 3.2649835,1025.6343 C 94.500508,1214.3104 176.37284,1408.2944 233.12500,1610.3750 C 163.62975,1636.8901 93.471337,1661.8591 24.394536,1689.3498 C -3.5031208,1705.6829 10.059720,1738.2025 15.968557,1762.5447 C 17.786133,1787.6601 39.828449,1807.2843 65.344144,1802.6875 C 370.35443,1802.6875 675.36471,1802.6875 980.37500,1802.6875 C 993.08578,1795.1114 1024.4866,1789.0003 1028.7982,1785.7571 C 1011.5308,1771.5148 1018.7292,1746.5038 1000.3127,1732.4172 C 981.96891,1710.7365 963.62508,1689.0557 945.28125,1667.3750 C 981.38429,1467.3593 1001.3861,1264.3645 1003.2812,1061.0938 C 1042.4602,1061.3349 1111.4760,1067.1122 1100.7968,1006.8817 C 1103.0036,794.22653 1102.7737,581.13213 1086.7300,369.05717 C 1078.3254,257.96103 1046.8093,138.38179 958.19795,63.200035 C 897.19008,10.168668 814.67848,-1.9607392 736.37500,0.18750000 z M 741.62500,73.812500 C 808.36928,71.791573 883.37458,82.181038 929.21609,136.28278 C 997.17051,216.48198 1011.6229,325.83235 1016.8740,427.19396 C 1026.4170,611.40174 1029.1776,795.93627 1027.4062,980.37500 C 1012.3333,980.37500 997.26040,980.37500 982.18750,980.37500 C 982.18750,829.16667 982.18750,677.95833 982.18750,526.75000 C 863.49222,522.83171 813.93221,435.33111 803.38920,367.19352 C 817.69921,336.11721 855.84398,310.01856 868.49804,272.11783 C 882.09991,231.37827 863.92995,170.52572 814.39180,172.60385 C 780.86886,174.01015 755.19562,191.65723 721.89658,171.37652 C 681.09221,146.52472 626.41923,142.00178 579.23567,131.62012 C 618.14279,74.797445 677.78862,75.745379 741.62500,73.812500 z M 545.40625,184.65625 C 603.36293,194.94178 664.52730,206.08105 710.27643,246.13774 C 726.28017,267.72620 755.77232,275.52508 767.61724,244.86726 C 798.83362,201.03309 831.30260,262.74519 808.84740,293.01689 C 795.75445,325.71042 756.04300,344.99903 741.95695,371.68604 C 755.53295,424.92733 779.35713,476.15728 819.70788,514.77469 C 850.84145,544.57086 888.51324,571.45188 932.57310,574.83261 C 931.12742,765.46986 932.08159,956.15773 927.94715,1146.7563 C 921.90360,1322.7739 901.84905,1498.2162 869.84375,1671.3750 C 865.37407,1696.1510 888.06411,1711.4208 901.00000,1729.0312 C 642.83333,1729.0312 384.66667,1729.0312 126.50000,1729.0312 C 182.70757,1707.7053 239.27108,1687.2360 295.25329,1665.3676 C 325.44489,1649.5542 311.48346,1612.7022 303.33217,1587.8281 C 246.35005,1386.8769 166.20237,1193.2423 74.906250,1005.6250 C 96.636341,976.80587 140.39194,972.27286 171.54016,986.84076 C 224.03729,1049.1329 273.97597,1113.9499 325.48649,1177.2157 C 395.91838,1264.4966 465.54891,1352.4708 536.48318,1439.3169 C 561.90522,1463.9477 604.05498,1438.6166 599.81320,1405.0273 C 637.14676,1153.1573 680.78878,902.09582 709.78999,649.07338 C 720.80829,570.99001 692.97291,488.33478 637.77581,432.35863 C 602.39692,400.17198 542.30473,477.01123 522.61526,432.25410 C 497.00801,406.20775 580.65178,420.20977 542.09375,397.31250 C 496.79214,404.90190 528.79352,340.39695 486.93750,330.25000 C 496.46008,303.80479 516.52489,288.04274 541.82591,307.76833 C 581.08150,317.37929 620.97550,302.94363 656.75000,287.62500 C 625.01749,255.89249 613.64095,249.17035 592.41901,249.17035 C 566.46347,249.17035 527.74990,258.61643 527.60449,267.02658 C 544.28404,242.73809 549.55261,213.62481 545.40625,184.65625 z "
     id="path1998"
     sodipodi:nodetypes="cccccccccccccccccccccccccccscscssccccssscscccccscccccccccccccccccccscc" />
</svg>
