<?xml version="1.0" encoding="UTF-8" standalone="no"?>
<svg
   xmlns:dc="http://purl.org/dc/elements/1.1/"
   xmlns:cc="http://web.resource.org/cc/"
   xmlns:rdf="http://www.w3.org/1999/02/22-rdf-syntax-ns#"
   xmlns:svg="http://www.w3.org/2000/svg"
   xmlns="http://www.w3.org/2000/svg"
   xmlns:sodipodi="http://sodipodi.sourceforge.net/DTD/sodipodi-0.dtd"
   xmlns:inkscape="http://www.inkscape.org/namespaces/inkscape"
   width="12.617702"
   height="17.983217"
   id="svg2214"
   sodipodi:version="0.32"
   inkscape:version="0.45"
   sodipodi:docname="A412.svg"
   inkscape:output_extension="org.inkscape.output.svg.inkscape"
   sodipodi:docbase="C:\Program Files\JSesh\fontsST"
   sodipodi:modified="true">
  <metadata
     id="metadata2221">
    <rdf:RDF>
      <cc:Work
         rdf:about="">
        <dc:format>image/svg+xml</dc:format>
        <dc:type
           rdf:resource="http://purl.org/dc/dcmitype/StillImage" />
      </cc:Work>
    </rdf:RDF>
  </metadata>
  <defs
     id="defs2219" />
  <sodipodi:namedview
     inkscape:window-height="480"
     inkscape:window-width="640"
     inkscape:pageshadow="2"
     inkscape:pageopacity="0.0"
     guidetolerance="10.0"
     gridtolerance="10.0"
     objecttolerance="10.0"
     borderopacity="1.0"
     bordercolor="#666666"
     pagecolor="#ffffff"
     id="base" />
  <path
     style="fill:#000000; stroke:none"
     d="M 10.5625 0 C 10.34124 -0.011645166 10.110817 -0.009508666 9.875 0.03125 C 9.403366 0.11276667 9.1005337 0.52003332 8.9375 1.21875 C 8.844338 1.3701387 8.7022433 1.5759087 8.5625 1.84375 C 8.492628 2.006784 8.5180556 2.1017101 8.59375 2.125 C 8.669444 2.1482907 8.7150642 2.183814 8.75 2.21875 C 8.6917733 2.253686 8.6700324 2.2833868 8.6875 2.3125 C 8.704968 2.3416127 8.7346689 2.3633546 8.78125 2.375 C 8.8045407 2.3633547 8.7907591 2.3654913 8.75 2.40625 C 8.7092413 2.4470087 8.728846 2.4708868 8.78125 2.5 C 8.833654 2.5291127 8.8633552 2.6277247 8.875 2.75 C 8.8866453 2.872276 8.9380876 2.9258554 9.03125 2.9375 C 9.124412 2.9491453 9.278739 2.9607901 9.5 2.9375 L 9.5 3.28125 C 9.022544 3.3860573 8.6465271 3.5165066 8.34375 3.65625 C 8.0409727 3.7959933 7.8018161 4.021368 7.65625 4.3125 C 7.510684 4.6036313 7.1962062 5.0862185 6.71875 5.75 C 6.4611411 5.65859 5.9151712 5.552629 5.21875 5.4375 C 5.3041696 5.0998715 5.4148609 4.7875072 5.5625 4.5 C 5.6838513 4.5086471 5.8132855 4.4740167 5.96875 4.40625 C 6.1550738 4.1849901 6.3427887 3.9988247 6.5 3.8125 C 6.6572115 3.6261759 6.84124 3.5275647 7.0625 3.5625 L 7.21875 3.1875 C 6.5666145 2.6401719 5.8188553 2.3198713 4.96875 2.25 L 4.8125 2.65625 C 5.0221152 2.784348 5.1170407 2.9741993 5.09375 3.21875 C 5.0704591 3.4633006 5.0741453 3.740118 5.0625 4.03125 C 5.123087 4.200028 5.1804569 4.3275338 5.28125 4.40625 C 5.1378905 4.7080596 5.0221948 5.0308215 4.9375 5.375 C 4.7329746 5.3429105 4.5806119 5.3150874 4.34375 5.28125 C 4.1532456 5.2545793 3.9830591 5.2492459 3.8125 5.25 C 3.626617 4.4011056 3.4618503 3.5448232 3.375 2.625 C 3.2885339 2.6519224 3.2114661 2.670006 3.125 2.65625 L 3.375 2.625 C 3.5127053 2.5821235 3.6435446 2.5210512 3.78125 2.375 C 3.8977025 2.0605779 4.0180553 1.756196 4.09375 1.5 C 4.1694442 1.2438033 4.333868 1.089476 4.625 1.03125 L 4.625 0.5625 C 3.6584421 0.29465866 2.6853073 0.330182 1.71875 0.65625 L 1.71875 1.09375 C 1.998236 1.151976 2.1880873 1.3121267 2.28125 1.5625 C 2.3744121 1.812874 2.4852567 2.0722233 2.625 2.375 C 2.7755151 2.5300762 2.9432349 2.6244366 3.09375 2.65625 C 3.1852949 3.5678844 3.3184995 4.4108298 3.5 5.25 C 3.2681688 5.2749599 3.064259 5.3540032 2.875 5.4375 C 2.8982907 5.5772433 3.02874 5.6286861 3.25 5.59375 C 3.349567 6.1247747 3.5138047 6.3387774 3.75 6.28125 C 3.7687973 6.3507827 3.7617884 6.4310024 3.78125 6.5 C 3.4142647 6.6108893 3.081127 6.7340335 2.84375 6.9375 C 2.9136213 7.065598 3.0324253 7.0931618 3.21875 7 C 3.4982367 7.5007467 3.7591354 7.6630339 3.96875 7.5 C 4.0260931 7.4453877 4.0447306 7.42449 4.09375 7.375 C 4.3166355 8.0397365 4.5860759 8.6697112 4.875 9.28125 L 4.8125 9.28125 C 3.2401039 7.9851113 2.2356704 6.5863832 1.875 5.03125 C 1.8115988 5.077018 1.7326747 5.0839515 1.65625 5.09375 L 1.875 5 C 1.9687995 4.9277511 2.0605032 4.8406802 2.125 4.6875 C 2.1250001 4.4080133 2.1308227 4.1566233 2.125 3.90625 C 2.1191781 3.6558767 2.2278853 3.4602033 2.4375 3.34375 L 2.3125 2.9375 C 1.4507494 2.9607901 0.675426 3.2063573 0 3.71875 L 0.125 4.125 C 0.36955133 4.0900638 0.57900733 4.1770307 0.71875 4.375 C 0.85849331 4.5729701 1.0324253 4.77874 1.21875 5 C 1.3794996 5.0868918 1.4982886 5.1321184 1.625 5.125 C 2.0631366 6.8550772 3.1758931 8.4183937 4.96875 9.8125 C 5.4756881 10.536721 6.0653526 11.053521 6.78125 11.34375 L 7 11.09375 C 6.2784876 10.684242 5.7373202 10.169334 5.375 9.53125 C 5.1645106 8.6250061 5.0685818 7.7728321 5.0625 7.03125 C 5.4785727 7.1051482 5.9040077 7.1994619 6.25 7.25 C 6.7682147 7.3256947 7.0747325 7.288034 7.15625 7.125 C 7.8433207 6.0419893 8.3338676 5.2587067 8.625 4.78125 C 8.9860033 5.5381933 9.1562497 6.5590839 9.15625 7.875 L 8.28125 12.4375 C 7.9435367 14.393906 7.6942835 15.635898 7.53125 16.125 C 7.3449253 16.614101 7.1471147 16.906837 6.9375 17 C 6.7278847 17.093161 6.3402234 17.24749 5.78125 17.46875 C 5.431892 17.46875 5.2319447 17.538248 5.15625 17.71875 C 5.080556 17.899251 5.2211005 17.99204 5.59375 17.96875 L 7.40625 17.96875 C 8.1049673 17.96875 8.3303417 17.699893 8.0625 17.1875 C 8.1090807 16.838142 8.3249478 16.230928 8.75 15.375 C 9.1750527 14.519072 9.3845084 13.88798 9.34375 13.46875 C 9.3029913 13.04952 9.4355773 12.724947 9.75 12.46875 L 11.125 12.46875 C 11.416132 14.413511 11.598024 15.640172 11.65625 16.1875 C 11.679541 16.653312 11.592574 16.95187 11.40625 17.0625 C 11.219925 17.17313 10.875747 17.317363 10.375 17.46875 C 10.048933 17.46875 9.8373395 17.54407 9.75 17.71875 C 9.6626607 17.893429 9.8148513 17.96875 10.1875 17.96875 L 11.90625 17.96875 C 12.616612 17.980395 12.806463 17.711538 12.46875 17.1875 C 12.422169 16.512075 12.446047 15.762178 12.5625 14.90625 C 12.678953 14.050323 12.611591 13.237339 12.34375 12.46875 L 11.90625 9.65625 C 12.162446 8.9575333 12.148664 8.3046995 11.875 7.6875 C 11.601336 7.0703 11.571635 6.3225405 11.78125 5.4375 C 11.990865 4.5524593 11.901762 3.9749461 11.5 3.71875 C 11.098238 3.462554 10.90625 3.0828519 10.90625 2.59375 L 10.90625 2.5625 C 11.12751 2.469338 11.34124 2.318696 11.5625 2.0625 C 11.78376 1.806304 11.878685 1.4621253 11.84375 1.03125 C 11.832105 0.553794 11.632158 0.25309867 11.21875 0.125 C 11.012046 0.060951 10.78376 0.011645166 10.5625 0 z M 10.34375 0.28125 C 10.509695 0.28416133 10.67703 0.29716899 10.875 0.34375 C 11.270939 0.43691267 11.496314 0.68985138 11.53125 1.0625 C 11.542895 1.4351487 11.412446 1.757586 11.15625 2.03125 C 10.900053 2.304914 10.757371 2.3664527 10.6875 2.25 C 10.582693 2.1451927 10.634135 1.982906 10.84375 1.75 C 11.053365 1.5170947 11.091025 1.297542 10.96875 1.09375 C 10.846474 0.88995733 10.599358 0.87617529 10.25 1.0625 C 10.110257 0.94604733 9.8291658 0.87072666 9.375 0.8125 C 9.4565167 0.57959467 9.6071588 0.42526733 9.875 0.34375 C 10.008921 0.30299167 10.177805 0.27833867 10.34375 0.28125 z M 3.15625 0.65625 C 3.5434555 0.647516 3.953633 0.688088 4.34375 0.78125 L 4.34375 0.875 C 4.0875532 1.003098 3.9077987 1.1733447 3.84375 1.40625 C 3.7797006 1.6391553 3.6709933 1.9159727 3.53125 2.21875 C 3.3099901 2.4865913 3.0883007 2.474946 2.84375 2.21875 C 2.7040067 1.927618 2.5815167 1.6704053 2.5 1.4375 C 2.4184828 1.2045947 2.256196 1.0227027 2 0.90625 L 2 0.84375 C 2.384294 0.73312001 2.7690445 0.664984 3.15625 0.65625 z M 9.25 1.03125 C 9.6226487 1.03125 9.9429493 1.1182161 10.1875 1.28125 C 10.1875 1.4326387 10.23312 1.4209933 10.34375 1.28125 C 10.45438 1.1415067 10.565224 1.1038467 10.6875 1.15625 C 10.809775 1.208654 10.851122 1.3253206 10.78125 1.5 C 10.711379 1.6746787 10.60267 1.809402 10.46875 1.9375 C 10.334829 2.065598 10.324733 2.1902241 10.40625 2.3125 C 10.487767 2.4347753 10.543484 2.6919881 10.625 3.09375 C 10.706517 3.495512 10.902191 3.7802894 11.1875 3.9375 C 11.472809 4.0947113 11.551816 4.5714758 11.40625 5.375 C 11.260684 6.1785247 11.238943 6.8785272 11.34375 7.4375 L 9.625 7.8125 C 9.5667733 6.368486 9.3907044 5.3439094 9.09375 4.75 C 8.7967947 4.1560913 8.8699792 3.8119121 9.3125 3.71875 C 9.766666 3.71875 9.9586539 3.5543265 9.90625 3.1875 C 9.853846 2.820674 9.685736 2.6743061 9.40625 2.75 C 9.1267627 2.8256947 9.0159183 2.7445507 9.0625 2.5 C 9.225534 2.395192 9.2769763 2.322008 9.21875 2.28125 C 9.1605233 2.2404913 9.0772437 2.1991453 8.9375 2.1875 C 8.9375 2.1371515 8.8970604 2.0995211 8.84375 2.0625 C 8.8107483 2.0395822 8.7721813 2.0178105 8.71875 2 C 8.846848 1.685578 8.9772974 1.4718487 9.09375 1.34375 C 9.221848 1.285524 9.3544337 1.285524 9.5 1.34375 C 9.6455653 1.4019767 9.786111 1.4258547 9.9375 1.4375 L 9.90625 1.34375 C 9.813088 1.3321047 9.7080664 1.3140487 9.5625 1.25 C 9.416934 1.1859507 9.264743 1.1605233 9.125 1.21875 C 9.1715807 1.125588 9.2150637 1.0778313 9.25 1.03125 z M 8.84375 2.0625 C 8.8786853 2.0392093 8.9338145 2.0471687 8.96875 2.09375 C 9.003686 2.1403307 9.0217419 2.1482907 9.0625 2.125 C 9.1032587 2.10171 9.1308231 2.0778313 9.125 2.03125 C 9.1191773 1.9846687 9.1112177 1.9629273 9.09375 1.96875 C 9.0762813 1.9745727 9.0566772 1.9708866 9.0625 2 C 9.0683227 2.0291133 9.0857907 2.0508547 9.0625 2.0625 C 9.03921 2.0741453 9.0036865 2.066186 8.96875 2.03125 C 8.933814 1.996314 8.9062499 1.96875 8.90625 1.96875 C 8.8829593 1.9803953 8.855395 1.9941773 8.84375 2 C 8.832104 2.0058227 8.8321044 2.0392094 8.84375 2.0625 z M 10.65625 1.1875 C 10.627137 1.183133 10.577831 1.201282 10.53125 1.21875 C 10.438088 1.253686 10.376549 1.32687 10.3125 1.4375 C 10.248451 1.54813 10.22671 1.6292733 10.25 1.6875 C 10.191774 1.7224353 10.136646 1.7542733 10.125 1.8125 C 10.113355 1.8707267 10.154701 1.9396373 10.21875 1.96875 C 10.282799 1.9978633 10.377725 1.940598 10.5 1.8125 C 10.622275 1.684402 10.695459 1.5677347 10.71875 1.46875 C 10.742041 1.3697653 10.74204 1.302404 10.71875 1.25 C 10.707105 1.223798 10.685363 1.191867 10.65625 1.1875 z M 10.59375 1.3125 C 10.62723 1.3154113 10.627911 1.3342416 10.625 1.375 C 10.619177 1.4565173 10.595299 1.5551286 10.53125 1.625 C 10.467201 1.694872 10.415759 1.7208874 10.375 1.75 C 10.379891 1.7367245 10.362773 1.7102082 10.375 1.6875 C 10.415759 1.6118053 10.390332 1.5958867 10.34375 1.625 C 10.297169 1.6541133 10.314637 1.6381947 10.34375 1.5625 C 10.372863 1.486806 10.402564 1.4215814 10.4375 1.375 C 10.507371 1.3400643 10.56027 1.3095887 10.59375 1.3125 z M 9.25 1.375 C 9.2121528 1.3822783 9.1882746 1.3829595 9.15625 1.40625 L 9.03125 1.5 L 9.03125 1.625 L 9.09375 1.59375 C 9.2684293 1.686912 9.4778852 1.6985574 9.6875 1.59375 L 9.875 1.625 L 9.875 1.5 L 9.6875 1.5 C 9.521555 1.3777245 9.3635415 1.3531652 9.25 1.375 z M 9.25 1.4375 C 9.2267093 1.4840813 9.2463145 1.5275647 9.28125 1.5625 C 9.2346687 1.5508547 9.1911855 1.52329 9.15625 1.5 C 9.1678947 1.465064 9.191773 1.4491454 9.25 1.4375 z M 9.40625 1.4375 L 9.59375 1.53125 C 9.5238787 1.5428953 9.464476 1.5821047 9.40625 1.59375 C 9.4528307 1.5471693 9.4528307 1.4840814 9.40625 1.4375 z M 10.25 1.78125 C 10.319872 1.816186 10.322008 1.8458866 10.28125 1.875 C 10.240492 1.9041133 10.204968 1.9099361 10.1875 1.875 C 10.170032 1.840064 10.203419 1.8045407 10.25 1.78125 z M 8.9375 2.25 C 8.9957267 2.25 9.0355237 2.2754274 9.09375 2.28125 C 9.1519767 2.2870727 9.1678957 2.3008547 9.15625 2.3125 C 9.1446047 2.33579 9.1286861 2.3517092 9.09375 2.375 C 9.058814 2.3982907 9.0153311 2.40625 8.96875 2.40625 C 8.933814 2.40625 8.9120723 2.40625 8.90625 2.40625 C 8.9004273 2.40625 8.8946046 2.4099359 8.90625 2.375 L 9.15625 2.3125 L 8.90625 2.3125 C 8.871314 2.3008547 8.8321044 2.298718 8.84375 2.28125 C 8.8553947 2.263782 8.9025644 2.2383547 8.9375 2.25 z M 5.125 2.53125 C 5.8004251 2.6011221 6.4018173 2.8424153 6.9375 3.25 L 6.90625 3.34375 C 6.650054 3.3553954 6.4660253 3.4503207 6.34375 3.625 C 6.221474 3.7996793 6.03376 3.9778853 5.8125 4.1875 C 5.5446588 4.3388886 5.3627667 4.2715273 5.28125 3.96875 C 5.2696047 3.6776181 5.2892093 3.44001 5.3125 3.21875 C 5.33579 2.9974899 5.276388 2.7996793 5.125 2.625 L 5.125 2.53125 z M 2.125 3.21875 L 2.15625 3.25 C 1.9582806 3.436324 1.8829593 3.659562 1.90625 3.875 C 1.92954 4.0904373 1.92954 4.333868 1.90625 4.625 C 1.801442 4.9277772 1.5919867 4.9871793 1.3125 4.8125 C 1.126176 4.6028855 0.971848 4.4050747 0.84375 4.21875 C 0.715652 4.0324259 0.545406 3.909936 0.3125 3.875 L 0.28125 3.84375 C 0.82857799 3.4361653 1.4379293 3.2303953 2.125 3.21875 z M 4.4375 5.875 C 4.5788913 5.909804 4.7056093 5.9635707 4.84375 6 C 4.8253882 6.1320162 4.8233261 6.2687914 4.8125 6.40625 C 4.5489769 6.3918964 4.5122971 6.3933848 4.1875 6.375 C 4.1514369 6.3816239 4.1288363 6.3989284 4.09375 6.40625 C 4.0705105 6.3244161 4.0534937 6.2387972 4.03125 6.15625 C 4.1815499 6.0716075 4.3566997 5.9723592 4.4375 5.90625 L 4.4375 5.875 z M 5.09375 6.0625 C 5.604046 6.2027093 6.097854 6.3369664 6.5625 6.5 C 6.3465639 6.4928021 5.6478074 6.4669428 5.09375 6.4375 C 5.1028328 6.3119565 5.0780186 6.1826878 5.09375 6.0625 z M 4.46875 6.9375 C 4.5877411 6.9600673 4.6671382 6.9790592 4.78125 7 C 4.7810269 7.5511141 4.8604655 8.1517693 4.96875 8.78125 C 4.725131 8.2367724 4.5030375 7.6762454 4.3125 7.09375 C 4.3528119 7.0447873 4.4414439 6.9784592 4.46875 6.9375 z M 11.40625 7.875 C 11.802189 8.3641013 11.81015 8.9575334 11.4375 9.65625 L 11.90625 12.0625 L 8.8125 12.0625 L 9.5625 8.3125 L 11.40625 7.875 z "
     id="path2216" />
</svg>
