<?xml version="1.0" encoding="UTF-8" standalone="no"?>
<svg
   xmlns:dc="http://purl.org/dc/elements/1.1/"
   xmlns:cc="http://web.resource.org/cc/"
   xmlns:rdf="http://www.w3.org/1999/02/22-rdf-syntax-ns#"
   xmlns:svg="http://www.w3.org/2000/svg"
   xmlns="http://www.w3.org/2000/svg"
   xmlns:sodipodi="http://sodipodi.sourceforge.net/DTD/sodipodi-0.dtd"
   xmlns:inkscape="http://www.inkscape.org/namespaces/inkscape"
   width="12.688715"
   height="17.98535"
   id="svg2"
   sodipodi:version="0.32"
   inkscape:version="0.45"
   sodipodi:docname="A413.svg"
   inkscape:output_extension="org.inkscape.output.svg.inkscape"
   sodipodi:docbase="C:\PROGRA~1\JSesh\FONTSS~2"
   sodipodi:modified="true">
  <metadata
     id="metadata9">
    <rdf:RDF>
      <cc:Work
         rdf:about="">
        <dc:format>image/svg+xml</dc:format>
        <dc:type
           rdf:resource="http://purl.org/dc/dcmitype/StillImage" />
      </cc:Work>
    </rdf:RDF>
  </metadata>
  <defs
     id="defs7" />
  <sodipodi:namedview
     inkscape:window-height="480"
     inkscape:window-width="640"
     inkscape:pageshadow="2"
     inkscape:pageopacity="0.0"
     guidetolerance="10.0"
     gridtolerance="10.0"
     objecttolerance="10.0"
     borderopacity="1.0"
     bordercolor="#666666"
     pagecolor="#ffffff"
     id="base" />
  <path
     style="fill:#000000; stroke:none"
     d="M 11.125 0 C 10.886832 -0.010618833 10.655037 0.010922002 10.40625 0.0625 C 9.9086753 0.16565533 9.5640173 0.57736396 9.40625 1.28125 C 9.309162 1.4268813 9.1959951 1.6392587 9.0625 1.90625 C 9.0018207 2.0761533 9.0209347 2.144114 9.09375 2.15625 C 9.1665653 2.168386 9.22057 2.2014568 9.28125 2.25 C 9.2084347 2.286408 9.1692964 2.3134099 9.1875 2.34375 C 9.2057047 2.37409 9.2639563 2.3941141 9.3125 2.40625 C 9.3974513 2.381978 9.3913838 2.4010919 9.3125 2.4375 C 9.2336153 2.473908 9.2145015 2.5069787 9.28125 2.53125 C 9.3479973 2.555522 9.394114 2.62955 9.40625 2.78125 C 9.418386 2.9329493 9.4915043 3.0251821 9.625 3.03125 C 9.7584953 3.037318 9.9569162 3.0242719 10.1875 3 C 10.284587 3.2063113 10.225426 3.34557 10.03125 3.40625 C 9.2788207 3.40625 8.8191752 3.5455093 8.625 3.8125 C 8.2609207 4.3343467 7.8571005 5.1786981 7.46875 6.34375 C 7.1653513 6.416566 6.7918708 6.5436887 6.3125 6.75 C 5.83313 6.9563107 5.4945401 7.0555221 5.3125 7.03125 C 5.0819173 6.8734827 4.7824646 6.7742713 4.40625 6.75 L 3.40625 2.375 L 2.9375 2.46875 L 3.9375 6.8125 C 3.840412 6.824636 3.7393814 6.883798 3.59375 6.96875 C 3.605886 7.077974 3.7120747 7.125 3.90625 7.125 C 3.857706 7.63471 4.0370135 7.8610439 4.4375 7.8125 L 4.4375 7.875 C 4.2554607 7.899272 4.0570393 7.9462982 3.875 8.03125 C 3.899272 8.1404727 4.0054608 8.1996357 4.1875 8.1875 C 4.211772 8.6729387 4.2988467 8.9132286 4.46875 8.9375 L 4.5 8.9375 L 4.875 10.65625 L 5.3125 10.5625 L 4.9375 8.75 C 5.0831313 8.75 5.2503028 8.6768812 5.46875 8.53125 C 6.4274907 8.543386 7.5033338 8.3030965 8.65625 7.78125 C 8.8862741 7.5128884 9.085256 7.2096426 9.28125 6.90625 C 9.3165415 7.189059 9.3505663 7.4665647 9.34375 7.71875 L 8.25 12.25 L 8.25 12.28125 C 8.0315527 12.815232 7.9393205 13.327062 8 13.8125 C 7.6723293 14.819784 7.4660192 15.551879 7.375 16.03125 C 7.28398 16.51062 7.1116513 16.81614 6.875 16.9375 C 6.6383487 17.058859 6.2858019 17.219053 5.8125 17.4375 C 5.3270613 17.534588 5.0797938 17.640776 5.03125 17.75 C 4.9827067 17.859224 5.1219652 17.951457 5.4375 18 L 7.75 18 C 7.956312 17.793689 8.0233621 17.503035 7.96875 17.1875 C 7.914138 16.871965 8.1013337 16.365294 8.5625 15.625 C 9.023666 14.884707 9.1959951 14.167478 9.0625 13.5 C 9.0625 13.293689 9.1617105 13.067355 9.34375 12.8125 C 9.5257893 12.557644 9.6720264 12.371359 9.78125 12.25 L 10.96875 12.25 C 11.017294 12.444176 11.137439 12.755764 11.34375 13.15625 C 11.428701 14.284894 11.527912 15.144112 11.625 15.78125 C 11.722088 16.418387 11.655948 16.824028 11.4375 17 C 11.219052 17.175971 10.867416 17.328276 10.40625 17.4375 C 9.9086753 17.534588 9.6422937 17.640776 9.59375 17.75 C 9.545206 17.859224 9.7105569 17.951457 10.0625 18 L 12.3125 18 C 12.518811 17.793689 12.578883 17.503035 12.5 17.1875 C 12.421116 16.871965 12.420206 16.565536 12.46875 16.25 C 12.517294 15.958737 12.577367 15.493023 12.65625 14.84375 C 12.735134 14.194476 12.661105 13.622574 12.40625 13.125 L 12.1875 9.78125 C 12.454491 8.8831893 12.386531 8.0267015 11.9375 7.25 C 12.034587 6.703882 12.109527 6.0388373 12.21875 5.25 C 12.327974 4.461162 12.260923 3.9214206 12 3.59375 C 11.739077 3.2660787 11.565838 2.9144427 11.46875 2.5625 C 11.832829 2.4168687 12.086165 2.2627433 12.25 2.0625 C 12.413835 1.8622567 12.5 1.5236667 12.5 1.0625 C 12.5 0.589198 12.267598 0.270632 11.8125 0.125 C 11.584951 0.052184333 11.363168 0.010618833 11.125 0 z M 10.90625 0.3125 C 11.080704 0.3125 11.275485 0.332524 11.5 0.375 C 11.949031 0.45995133 12.1875 0.68628536 12.1875 1.0625 C 12.1875 1.4508507 12.05522 1.7885307 11.8125 2.03125 C 11.569781 2.2739693 11.409588 2.3279741 11.3125 2.21875 C 11.227549 2.1095267 11.293689 1.9241513 11.5 1.6875 C 11.706311 1.4508487 11.727245 1.2506073 11.59375 1.0625 C 11.460254 0.87439267 11.207828 0.8683247 10.84375 1.0625 C 10.698119 0.95327667 10.431737 0.89229397 10.03125 0.84375 C 10.067658 0.62530267 10.219963 0.45995134 10.46875 0.375 C 10.593144 0.332524 10.731796 0.3125 10.90625 0.3125 z M 9.78125 1.0625 C 10.181737 1.050364 10.526395 1.1165041 10.78125 1.25 C 10.78125 1.3956313 10.84739 1.3895633 10.96875 1.25 C 11.090109 1.110436 11.210254 1.082524 11.34375 1.125 C 11.477245 1.167476 11.516384 1.2867107 11.4375 1.46875 C 11.358615 1.6507893 11.227246 1.8040047 11.09375 1.9375 C 10.960255 2.070996 10.97239 2.3303993 11.09375 2.71875 C 11.215109 3.1071007 11.395327 3.4535793 11.65625 3.78125 C 11.917173 4.1089213 11.977245 4.6268188 11.84375 5.3125 C 11.710254 5.998182 11.604065 6.5910182 11.53125 7.125 L 9.8125 7.34375 C 9.7918777 7.0859718 9.7381972 6.7011 9.65625 6.28125 C 9.9686141 5.6906006 10.236105 5.0486323 10.4375 4.34375 C 10.426881 4.0039429 10.358181 3.7787568 10.25 3.6875 C 10.452755 3.6492537 10.52665 3.4707194 10.5 3.15625 C 10.46966 2.7982393 10.328581 2.6650481 10.03125 2.75 C 9.7339193 2.8349513 9.6077062 2.7427187 9.65625 2.5 C 9.826154 2.402912 9.8671122 2.3549761 9.8125 2.3125 C 9.8019977 2.3043315 9.7643172 2.3190976 9.75 2.3125 C 9.6898677 2.2847901 9.6274277 2.2500001 9.5 2.25 C 9.4925042 2.2050258 9.4646729 2.1340947 9.40625 2.09375 C 9.3700835 2.0687747 9.3369327 2.0544512 9.28125 2.03125 C 9.390474 1.7278513 9.4915043 1.508496 9.625 1.375 C 9.7584953 1.3021847 9.9108004 1.2891387 10.0625 1.34375 C 10.214199 1.398362 10.354368 1.4566141 10.5 1.46875 L 10.5 1.375 C 10.390776 1.375 10.2767 1.3167473 10.125 1.25 C 9.9733013 1.183252 9.8018818 1.208434 9.65625 1.28125 C 9.71693 1.196298 9.7569784 1.111044 9.78125 1.0625 z M 9.40625 2.09375 C 9.442658 2.069478 9.4948423 2.088592 9.53125 2.125 C 9.5676587 2.161408 9.5885923 2.1432041 9.625 2.125 C 9.6341018 2.120449 9.6185529 2.099818 9.625 2.09375 C 9.6007287 2.105886 9.5615904 2.09284 9.53125 2.0625 C 9.5009107 2.03216 9.4808858 2.0312501 9.46875 2.03125 C 9.432342 2.03125 9.4123178 2.025182 9.40625 2.03125 C 9.400182 2.037318 9.394114 2.0573419 9.40625 2.09375 z M 9.625 2.09375 C 9.6443414 2.075546 9.692051 2.094357 9.6875 2.0625 C 9.681432 2.020024 9.6683855 1.993932 9.65625 2 C 9.6441147 2.006068 9.6189324 2.0069781 9.625 2.03125 C 9.6310673 2.055522 9.649272 2.0816139 9.625 2.09375 z M 11.15625 1.1875 C 11.059163 1.21784 10.972998 1.2848907 10.90625 1.40625 C 10.839502 1.5276093 10.807342 1.638956 10.84375 1.6875 C 10.758798 1.723908 10.71875 1.7518201 10.71875 1.8125 C 10.71875 1.8731793 10.770934 1.9192959 10.84375 1.9375 C 10.916565 1.955704 11.009708 1.9086773 11.125 1.78125 C 11.240292 1.6538227 11.307342 1.534588 11.34375 1.4375 C 11.380157 1.3404127 11.380157 1.267294 11.34375 1.21875 C 11.307342 1.170206 11.253338 1.15716 11.15625 1.1875 z M 11.21875 1.3125 C 11.250607 1.315534 11.253034 1.3385924 11.25 1.375 C 11.243932 1.447816 11.210862 1.520934 11.15625 1.59375 C 11.101638 1.6665653 11.054612 1.713592 11 1.75 C 10.945388 1.786408 10.951456 1.766384 11 1.6875 C 11.014563 1.663835 10.994175 1.638835 11 1.625 C 10.951456 1.65534 10.944478 1.6292473 10.96875 1.5625 C 10.993022 1.495752 11.013957 1.416566 11.0625 1.34375 C 11.129248 1.3134103 11.186893 1.309466 11.21875 1.3125 z M 9.9375 1.375 C 9.8434463 1.362864 9.7603158 1.3889563 9.6875 1.4375 L 9.5625 1.5625 L 9.5625 1.65625 L 9.65625 1.65625 C 9.8504253 1.704794 10.062803 1.678702 10.28125 1.59375 L 10.46875 1.625 L 10.46875 1.5 L 10.28125 1.5 C 10.165958 1.4271843 10.031554 1.387136 9.9375 1.375 z M 9.8125 1.46875 C 9.788228 1.517294 9.8073423 1.5452066 9.84375 1.59375 C 9.795206 1.5816147 9.7239083 1.574636 9.6875 1.5625 C 9.6875 1.526092 9.739684 1.5051581 9.8125 1.46875 z M 10 1.46875 L 10.1875 1.5625 C 10.114684 1.586772 10.041566 1.5816146 9.96875 1.59375 C 10.029429 1.5573427 10.036407 1.517294 10 1.46875 z M 10.875 1.78125 C 10.923544 1.793386 10.93659 1.807342 10.90625 1.84375 C 10.87591 1.8801573 10.830704 1.8801573 10.8125 1.84375 C 10.794295 1.807342 10.826456 1.793386 10.875 1.78125 z M 9.5 2.28125 C 9.548544 2.287318 9.6207526 2.3064321 9.6875 2.3125 L 9.4375 2.34375 C 9.413228 2.34375 9.4001821 2.336772 9.40625 2.3125 C 9.412318 2.288228 9.4514563 2.275182 9.5 2.28125 z M 9.75 2.34375 C 9.737864 2.368022 9.7108617 2.388046 9.65625 2.40625 C 9.6016387 2.424454 9.5676583 2.4566139 9.53125 2.46875 C 9.5191147 2.480886 9.4869539 2.4808859 9.46875 2.46875 C 9.450546 2.456614 9.4827063 2.4305221 9.53125 2.40625 L 9.75 2.34375 z M 9.78125 3.71875 C 9.8189133 3.7107152 9.8664256 3.724125 9.90625 3.71875 C 9.8121141 3.7704681 9.7135352 3.8204371 9.59375 3.9375 C 9.4990069 4.1217227 9.4083845 4.3588732 9.3125 4.5625 C 9.2569171 4.1912747 9.2971825 3.932301 9.46875 3.84375 C 9.5628037 3.7952063 9.6674753 3.7430218 9.78125 3.71875 z M 8.90625 4.96875 C 8.9243564 5.041176 8.9476421 5.1930657 8.96875 5.28125 C 8.7306748 5.8351779 8.4949214 6.4546886 8.25 7.125 C 7.67961 7.3070387 7.1547346 7.5063699 6.6875 7.71875 C 6.2202653 7.9311293 5.8486054 8.0382284 5.59375 8.0625 C 5.2660793 7.9047327 5.0449032 7.8316139 4.875 7.84375 L 4.875 7.65625 C 4.911408 7.65625 4.9863467 7.616202 5.15625 7.53125 C 6.1028547 7.616202 7.0464165 7.4699646 7.96875 7.09375 C 8.3935087 6.438408 8.7120749 5.72118 8.90625 4.96875 z M 2 6.75 C 1.8786406 6.75 1.7654733 6.7691147 1.65625 6.78125 C 1.2800347 6.8662022 0.98665067 7.0464187 0.75 7.34375 C 0.51334868 7.6410806 0.375 7.9675353 0.375 8.34375 C 0.375 8.4651101 0.381978 8.5782767 0.40625 8.6875 C 0.47906532 9.063715 0.66535067 9.3883487 0.96875 9.625 C 1.0749395 9.7078278 1.1973905 9.758662 1.3125 9.8125 C 1.1011937 9.9159567 0.90298318 10.05779 0.75 10.25 C 0.51334933 10.547331 0.40625 10.873786 0.40625 11.25 C 0.40624999 11.37136 0.394114 11.484526 0.40625 11.59375 C 0.49120132 11.969964 0.70266867 12.263349 1 12.5 C 1.0801627 12.563803 1.1641034 12.609649 1.25 12.65625 C 1.0635763 12.727229 0.90296939 12.804458 0.78125 12.9375 C 0.52032736 13.222694 0.375 13.528215 0.375 13.84375 C 0.375 14.341325 0.48725667 14.726941 0.6875 15 C 0.88774333 15.273058 1.0418687 15.479369 1.1875 15.625 C 1.3209953 15.746359 1.5003027 15.918687 1.71875 16.125 L 0 17.9375 L 0.5 17.9375 L 2 16.375 L 3.5 17.9375 L 4.03125 17.9375 L 2.28125 16.125 C 2.4996974 15.918688 2.69114 15.746359 2.8125 15.625 C 2.9581314 15.479369 3.1122567 15.273059 3.3125 15 C 3.5127434 14.72694 3.625 14.341325 3.625 13.84375 C 3.6249999 13.528215 3.4796733 13.222695 3.21875 12.9375 C 3.1030832 12.811073 2.9553466 12.726632 2.78125 12.65625 C 2.9677727 12.557646 3.1426199 12.458981 3.28125 12.28125 C 3.5179014 11.977851 3.625 11.626215 3.625 11.25 C 3.6249999 11.140777 3.618022 11.027611 3.59375 10.90625 C 3.5209347 10.542172 3.3346493 10.242719 3.03125 10 C 2.9277164 9.9171729 2.7995131 9.8670626 2.6875 9.8125 C 2.8995661 9.7126978 3.0904037 9.5744955 3.25 9.375 C 3.4927192 9.0716002 3.625 8.7199647 3.625 8.34375 C 3.6249999 8.2345261 3.618022 8.1404727 3.59375 8.03125 C 3.5087987 7.6550349 3.2973313 7.3304013 3 7.09375 C 2.7026693 6.8570991 2.3762153 6.75 2 6.75 z M 4.375 7 C 4.5866209 6.9783827 4.6914434 7.0282156 4.71875 7.1875 C 4.7551573 7.3998793 4.6140786 7.5452061 4.25 7.59375 C 4.140776 7.47239 4.0885918 7.2739686 4.125 7.03125 C 4.2160197 7.003944 4.3044597 7.0072058 4.375 7 z M 2 7.03125 C 2.2912633 7.0312499 2.5445987 7.1243927 2.78125 7.3125 C 3.0179012 7.5006075 3.1893207 7.7591013 3.25 8.0625 C 3.2742721 8.1474511 3.28125 8.246662 3.28125 8.34375 C 3.2812499 8.6471492 3.1881073 8.9195987 3 9.15625 C 2.8118926 9.3929014 2.5533993 9.5330707 2.25 9.59375 C 2.1650487 9.6058858 2.084952 9.625 2 9.625 C 1.6966013 9.6250001 1.4241513 9.5318573 1.1875 9.34375 C 0.95084865 9.1556425 0.79156533 8.8971493 0.71875 8.59375 C 0.71875 8.5087984 0.71875 8.428702 0.71875 8.34375 C 0.71875 8.0524872 0.81189267 7.7739693 1 7.53125 C 1.1881073 7.2885305 1.4274873 7.1544293 1.71875 7.09375 C 1.8158379 7.0694779 1.9150487 7.03125 2 7.03125 z M 11.5 7.65625 C 11.924759 8.0567367 12.023969 8.7496938 11.78125 9.78125 L 11.875 11.78125 L 8.96875 11.78125 L 9.84375 7.90625 L 11.5 7.65625 z M 1.90625 9.9375 C 1.9397388 9.9394427 1.9659134 9.96875 2 9.96875 C 2.0437692 9.9687498 2.0828095 9.971907 2.125 9.96875 C 2.3761313 9.9920706 2.6101631 10.057918 2.8125 10.21875 C 3.0491506 10.406858 3.18932 10.665351 3.25 10.96875 C 3.2621359 11.053702 3.28125 11.133799 3.28125 11.21875 C 3.2812499 11.522149 3.1820393 11.794598 3 12.03125 C 2.8179607 12.267901 2.5846493 12.427184 2.28125 12.5 C 2.1962987 12.5 2.097088 12.5 2 12.5 C 1.7087373 12.5 1.4302193 12.406857 1.1875 12.21875 C 0.94478066 12.030642 0.81067933 11.791263 0.75 11.5 C 0.73786403 11.415049 0.71875 11.303703 0.71875 11.21875 C 0.71875 10.915352 0.81189267 10.642901 1 10.40625 C 1.1881073 10.169599 1.4466013 10.029431 1.75 9.96875 C 1.8035851 9.9534401 1.8526652 9.9431527 1.90625 9.9375 z M 1.8125 12.84375 C 1.8763311 12.851095 1.9337206 12.875 2 12.875 C 2.0885331 12.875 2.1679258 12.856668 2.25 12.84375 C 2.5769405 12.880927 2.8512935 12.978762 3 13.15625 C 3.1881073 13.380764 3.28125 13.613167 3.28125 13.84375 C 3.2812499 14.2321 3.2011533 14.539441 3.03125 14.8125 C 2.8613467 15.085558 2.5097107 15.450241 2 15.875 C 1.4902899 15.450241 1.1386533 15.085559 0.96875 14.8125 C 0.79884669 14.53944 0.71875 14.232101 0.71875 13.84375 C 0.71875 13.613166 0.81189267 13.380765 1 13.15625 C 1.158366 12.967232 1.4519931 12.873635 1.8125 12.84375 z "
     id="path4" />
</svg>
