<?xml version="1.0" encoding="UTF-8" standalone="no"?>
<svg
   width="1458.9"
   height="1797.7"
   id="svg1411"
   sodipodi:version="0.32"
   inkscape:version="1.4 (e7c3feb1, 2024-10-09)"
   sodipodi:docname="A42.svg"
   version="1.1"
   xml:space="preserve"
   xmlns:inkscape="http://www.inkscape.org/namespaces/inkscape"
   xmlns:sodipodi="http://sodipodi.sourceforge.net/DTD/sodipodi-0.dtd"
   xmlns="http://www.w3.org/2000/svg"
   xmlns:svg="http://www.w3.org/2000/svg"
   xmlns:rdf="http://www.w3.org/1999/02/22-rdf-syntax-ns#"
   xmlns:cc="http://creativecommons.org/ns#"
   xmlns:dc="http://purl.org/dc/elements/1.1/"><title
     id="title1">A42</title><metadata
     id="metadata1418"><rdf:RDF><cc:Work
         rdf:about=""><dc:format>image/svg+xml</dc:format><dc:type
           rdf:resource="http://purl.org/dc/dcmitype/StillImage" /><dc:title>A42</dc:title><dc:creator><cc:Agent><dc:title>S. P. Thomas</dc:title></cc:Agent></dc:creator><dc:description>2025/Rosmorduc fixed, using the version of A41 with a straight beard.</dc:description></cc:Work></rdf:RDF></metadata><defs
     id="defs1416" /><sodipodi:namedview
     inkscape:window-height="952"
     inkscape:window-width="1616"
     inkscape:pageshadow="2"
     inkscape:pageopacity="0.0"
     borderopacity="1.0"
     bordercolor="#666666"
     pagecolor="#ffffff"
     id="base"
     inkscape:zoom="0.46846838"
     inkscape:cx="802.61554"
     inkscape:cy="692.68282"
     inkscape:window-x="1595"
     inkscape:window-y="91"
     inkscape:current-layer="svg1411"
     inkscape:showpageshadow="2"
     inkscape:pagecheckerboard="0"
     inkscape:deskcolor="#d1d1d1"
     inkscape:window-maximized="0" /><path
     id="path1413"
     style="fill:#000000;stroke:none;stroke-width:100.074"
     d="M 890.89844 0.005859375 C 887.98257 0.056129728 885.01642 0.48273402 882 1.2871094 C 869.93439 4.5046107 859.07448 8.9279164 849.42188 14.558594 C 839.76937 20.189206 836.55206 26.623883 839.76953 33.863281 C 842.98703 41.102743 852.2383 43.919331 867.52148 42.310547 C 882.80466 40.701763 881.99938 44.722428 865.10742 54.375 C 848.21552 64.027505 842.18355 88.159378 847.00977 126.76953 C 851.83605 165.37962 866.31395 190.31489 890.44531 201.57617 C 877.57524 254.66512 855.45468 303.73218 824.08398 348.77734 C 792.71322 393.82249 801.15922 415.54237 849.42188 413.93359 C 838.1606 430.02116 839.76926 439.67313 854.24805 442.89062 C 841.37804 450.93441 839.76937 458.17437 849.42188 464.60938 C 858.88697 470.91939 862.07981 485.85601 859.16992 509.18164 L 858.39648 509.06055 L 761.56055 805.02148 L 842.91602 821.91211 L 909.19922 538.20703 L 936.29492 532.17578 L 977.31836 520.11133 C 1011.1023 545.85141 1032.0166 586.06992 1040.0605 640.76758 C 991.79786 806.46935 954.79672 1051.8048 929.05664 1376.7734 L 581.56445 911.03711 C 568.69445 864.38324 543.75917 832.20996 506.75781 814.51367 L 325.77344 327.06055 C 312.90336 296.49418 294.40284 294.08023 270.27148 319.82031 L 0 1096.8496 L 185.81055 1162.0039 L 323.35938 495.97852 L 446.42969 821.75195 C 402.99325 836.23074 368.40414 853.12265 342.66406 872.42773 C 316.92398 891.73281 319.74056 909.83076 351.11133 926.72266 C 382.48202 943.61463 426.32051 1018.825 482.62695 1152.3516 C 538.9334 1285.8783 580.40661 1406.7249 627.06055 1594.9492 L 402.63867 1672.168 L 424.71094 1799.0703 L 1416.5098 1799.0703 L 1310.332 1680.8281 C 1352.1597 1545.6926 1373.0723 1315.1909 1373.0723 969.30859 L 1459.9453 957.24219 C 1459.9453 823.7155 1418.1182 681.78959 1334.4629 551.48047 C 1413.2919 429.21501 1435.8132 327.46283 1402.0293 246.2207 C 1368.2454 164.97856 1320.3863 112.69416 1258.4492 89.367188 C 1196.5121 66.040287 1132.1618 55.985627 1065.3984 59.203125 C 998.63519 62.420626 946.75332 97.813124 909.75195 165.38086 C 895.27316 142.85828 897.28258 122.74708 915.7832 105.05078 C 934.28392 87.354426 937.90386 66.441843 926.64258 42.310547 C 929.86014 29.440474 926.24017 18.580535 915.7832 9.7324219 C 907.94054 3.0962869 899.64606 -0.14495168 890.89844 0.005859375 z M 1115.4512 105.4668 C 1149.9515 106.59795 1185.5523 113.69837 1222.252 126.76953 C 1280.9715 147.68332 1324.4073 189.10981 1352.5605 251.04688 C 1380.7137 312.984 1376.6929 378.94299 1340.4961 448.92383 C 1304.2991 518.90464 1268.9065 541.02524 1234.3184 515.28516 C 1199.7301 489.54508 1182.4355 458.17325 1182.4355 421.17188 C 1214.6106 392.21429 1234.7198 364.06175 1242.7637 336.71289 C 1250.8076 309.36402 1250.4051 284.42883 1241.5566 261.90625 C 1232.7085 239.38367 1215.8166 226.10975 1190.8809 222.08789 C 1165.9452 218.066 1140.6073 225.70859 1114.8672 245.01367 C 1074.6483 222.49109 1021.5606 203.18523 955.60156 187.09766 C 968.47156 145.27 1001.4501 119.53141 1054.5391 109.87891 C 1074.4474 106.25919 1094.751 104.78811 1115.4512 105.4668 z M 921.81641 225.70898 C 984.55793 236.97027 1048.9083 259.49153 1114.8672 293.27539 L 1134.1719 288.44922 C 1155.0857 269.14414 1171.9777 264.72083 1184.8477 275.17773 C 1197.7177 285.63463 1200.935 301.32051 1194.5 322.23438 C 1188.0649 343.14817 1163.1298 371.30071 1119.6934 406.69336 C 1134.1721 491.95732 1174.3906 549.87308 1240.3496 580.43945 C 1211.392 646.39847 1159.913 664.89906 1085.9102 635.94141 C 1081.084 576.41747 1060.1694 529.76239 1023.168 495.97852 C 1077.8657 467.02093 1107.6285 414.73646 1112.4551 339.125 L 1100.3887 339.125 C 1092.3449 406.69267 1067.8123 450.93379 1026.7891 471.84766 C 985.76579 492.76145 952.38272 504.82742 926.64258 508.04492 C 897.68499 512.8712 884.81563 508.0452 888.0332 493.56641 C 891.25063 479.08763 888.83669 467.02171 880.79297 457.36914 C 935.49063 460.58671 951.17651 453.34675 927.84961 435.65039 C 904.52257 417.9541 888.03337 413.12808 878.38086 421.17188 C 884.81593 397.04051 871.94468 384.97461 839.76953 384.97461 C 876.7709 325.45067 904.12012 272.36285 921.81641 225.70898 z M 954.0918 253.45898 C 944.23818 253.86118 935.49117 256.27511 927.84961 260.69922 C 912.56636 269.54734 904.92383 277.99329 904.92383 286.03711 C 943.53398 273.16711 974.5031 271.55844 997.83008 281.21094 C 1021.157 290.86345 1052.1262 297.29813 1090.7363 300.51562 L 1076.2578 288.44922 C 1040.8653 275.57915 1011.102 265.52459 986.9707 258.28516 C 974.90502 254.66544 963.94542 253.05679 954.0918 253.45898 z M 954.99805 289.05273 C 933.68204 288.65054 918.6001 296.49449 909.75195 312.58203 L 888.0332 327.06055 L 888.0332 339.125 L 907.33789 341.53906 C 936.29547 359.23535 980.53618 355.21273 1040.0605 329.47266 L 1090.7363 336.71289 L 1093.1484 317.4082 L 1037.6465 314.99414 C 1003.8626 298.10221 976.31405 289.45493 954.99805 289.05273 z M 943.53516 305.3418 C 937.10015 316.60309 937.90347 327.06038 945.94727 336.71289 C 934.68598 333.49542 925.03405 330.27802 916.99023 327.06055 C 920.20773 319.01676 929.05637 311.77681 943.53516 305.3418 z M 979.73242 305.3418 L 1020.7559 322.23438 C 1006.2771 328.66941 991.79714 332.69015 977.31836 334.29883 C 988.57975 326.25511 989.38503 316.60309 979.73242 305.3418 z M 287.16211 430.82422 L 152.02734 1096.8496 L 60.328125 1070.3047 C 61.936909 1070.3047 137.54791 857.14436 287.16211 430.82422 z M 1322.3965 626.28906 C 1369.0503 709.9443 1398.8135 800.03327 1411.6836 896.55859 L 1363.4199 906.21094 C 1360.2023 812.90313 1346.5278 719.59687 1322.3965 626.28906 z M 1249.293 631.11523 C 1284.6855 706.72676 1302.3828 864.38533 1302.3828 1104.0898 C 1302.3828 1343.7943 1279.0543 1543.2801 1232.4004 1702.5469 L 1312.7441 1730.793 L 465.73438 1730.793 L 465.73438 1725.9668 L 714.99609 1658.7539 C 655.47214 1425.4844 599.56971 1247.7166 547.28516 1125.4512 C 495.00057 1003.1858 454.51986 956.43713 485.89062 945.17578 C 517.26131 933.91449 539.83136 958.04631 573.61523 1017.5703 L 909.04102 1466.4141 L 992.50781 1456.4062 C 1023.0742 1086.3926 1057.6614 829.79646 1096.2715 686.61719 C 1179.9268 720.40106 1204.2477 701.90046 1249.293 631.11523 z M 494.69141 862.77539 C 464.12504 906.21183 434.36384 922.29847 405.40625 911.03711 C 368.40489 896.55832 398.16609 880.47169 494.69141 862.77539 z " /></svg>
