<?xml version="1.0" encoding="UTF-8" standalone="no"?>
<svg
   xmlns:dc="http://purl.org/dc/elements/1.1/"
   xmlns:cc="http://web.resource.org/cc/"
   xmlns:rdf="http://www.w3.org/1999/02/22-rdf-syntax-ns#"
   xmlns:svg="http://www.w3.org/2000/svg"
   xmlns="http://www.w3.org/2000/svg"
   xmlns:sodipodi="http://sodipodi.sourceforge.net/DTD/sodipodi-0.dtd"
   xmlns:inkscape="http://www.inkscape.org/namespaces/inkscape"
   width="21.638824"
   height="17.983217"
   id="svg2214"
   sodipodi:version="0.32"
   inkscape:version="0.45"
   sodipodi:docname="A423.svg"
   inkscape:output_extension="org.inkscape.output.svg.inkscape"
   sodipodi:docbase="C:\Program Files\JSesh\fontsST"
   sodipodi:modified="true">
  <metadata
     id="metadata2221">
    <rdf:RDF>
      <cc:Work
         rdf:about="">
        <dc:format>image/svg+xml</dc:format>
        <dc:type
           rdf:resource="http://purl.org/dc/dcmitype/StillImage" />
      </cc:Work>
    </rdf:RDF>
  </metadata>
  <defs
     id="defs2219" />
  <sodipodi:namedview
     inkscape:window-height="480"
     inkscape:window-width="640"
     inkscape:pageshadow="2"
     inkscape:pageopacity="0.0"
     guidetolerance="10.0"
     gridtolerance="10.0"
     objecttolerance="10.0"
     borderopacity="1.0"
     bordercolor="#666666"
     pagecolor="#ffffff"
     id="base" />
  <path
     style="fill:#000000; stroke:none"
     d="M 17.65625 0 C 16.924285 0 16.319409 0.20019802 15.875 0.625 C 15.430592 1.049802 15.332334 1.2514274 15.59375 1.21875 C 15.855167 1.1860733 16.093151 1.3760547 16.25 1.78125 C 16.40685 2.186446 16.703879 2.7032793 17.1875 3.34375 C 17.136528 4.057374 16.968317 5.7094863 16.6875 8.15625 L 11.53125 8.15625 C 11.516753 8.1079206 11.486751 8.0755744 11.46875 8.03125 C 12.018797 7.7495633 12.564381 7.3951857 13.09375 6.96875 C 13.041466 6.3282793 12.723404 5.4030874 12.1875 4.1875 C 12.056792 3.808446 11.896634 3.60314 11.6875 3.53125 C 11.478367 3.4593607 11.259989 3.4011421 11.03125 3.375 C 10.802511 3.3488587 10.6875 3.1137294 10.6875 2.65625 C 10.896633 2.5778253 11.109902 2.3980606 11.3125 2.15625 C 11.515098 1.91444 11.625 1.6057666 11.625 1.1875 C 11.625 0.75616267 11.410304 0.44974401 11.03125 0.3125 C 10.652196 0.175256 10.232194 0.15339533 9.78125 0.21875 C 9.330306 0.284104 9.0085625 0.62260004 8.8125 1.25 C 8.6948627 1.380708 8.5812793 1.5641541 8.4375 1.8125 C 8.3590747 1.96935 8.3656097 2.0676087 8.4375 2.09375 C 8.5093893 2.119892 8.5727155 2.1482874 8.625 2.1875 C 8.5596453 2.226712 8.5181792 2.2798226 8.53125 2.3125 C 8.5443213 2.3451773 8.5727166 2.3619294 8.625 2.375 C 8.6380707 2.3619293 8.6329627 2.3735732 8.59375 2.40625 C 8.5545373 2.4389273 8.5727155 2.4738586 8.625 2.5 C 8.6772833 2.526142 8.6809649 2.5945773 8.6875 2.71875 C 8.6940353 2.8429233 8.7522542 2.8931794 8.84375 2.90625 C 8.9352453 2.9193207 9.0902956 2.9193207 9.3125 2.90625 L 9.375 3.21875 C 8.9175213 3.4017413 8.6139564 3.4869294 8.4375 3.5 C 8.261044 3.5130707 8.0929235 3.5996853 7.96875 3.75 C 7.8445773 3.9003147 7.7193502 4.2169499 7.5625 4.6875 C 7.3010833 5.5763167 7.1460332 6.3566752 7.09375 7.0625 C 7.6598183 7.4812357 8.2280305 7.8350737 8.8125 8.125 L 3.0625 8.125 C 2.8006792 5.6696698 2.6505012 4.0577745 2.625 3.34375 C 3.1216913 2.7032793 3.4303647 2.186446 3.59375 1.78125 C 3.757136 1.3760547 3.9885832 1.1860734 4.25 1.21875 C 4.511416 1.2514273 4.4196932 1.0745167 3.96875 0.65625 C 3.517806 0.23798333 2.9063953 0.03125 2.1875 0.03125 C 1.4555333 0.03125 0.88844399 0.23798336 0.4375 0.65625 C -0.013443333 1.0745167 -0.111702 1.2514274 0.15625 1.21875 C 0.424202 1.1860733 0.62440003 1.3760547 0.78125 1.78125 C 0.9381 2.186446 1.2663794 2.7032793 1.75 3.34375 C 1.6993875 4.0523255 1.5272146 5.7015951 1.25 8.125 C 1.2408487 8.2050003 1.2281482 8.1993809 1.21875 8.28125 L 1.21875 8.4375 C 0.93731072 10.94642 0.82376096 13.422707 0.875 15.84375 C 1.1364167 17.2554 1.5498832 17.96875 2.125 17.96875 C 2.7131873 17.96875 3.1448333 17.2554 3.40625 15.84375 C 3.4574688 13.423662 3.3561307 10.945396 3.09375 8.4375 L 8.71875 8.46875 L 8.6875 8.59375 C 6.8847466 9.736018 6.3084667 10.926372 6.9375 12.21875 L 7.1875 12.09375 C 6.6790302 11.034438 7.1393258 9.9992165 8.5625 9 L 7.65625 12.03125 L 7.65625 12.0625 C 7.434046 12.676829 7.3590746 13.240238 7.4375 13.75 C 7.163012 14.756454 6.9664952 15.508416 6.875 16.03125 C 6.7704333 16.501799 6.6400981 16.795148 6.4375 16.90625 C 6.234902 17.017353 5.8251164 17.207334 5.25 17.46875 C 4.9363 17.573317 4.7579622 17.665041 4.71875 17.75 C 4.6795373 17.834961 4.7792235 17.916467 4.96875 17.96875 C 5.1582773 18.021033 5.4166939 17.986102 5.75 17.875 C 6.0833067 17.763898 6.4203755 17.740611 6.8125 17.8125 C 7.2046247 17.884389 7.3960326 17.751199 7.34375 17.4375 C 7.34375 17.097657 7.4420086 16.782449 7.625 16.46875 C 8.2654707 15.21395 8.5289959 14.20868 8.4375 13.4375 C 8.3982873 13.254508 8.4732583 13.029596 8.65625 12.78125 C 8.8392413 12.532904 8.9761123 12.297774 9.09375 12.0625 L 10.25 12.0625 C 10.289213 12.336987 10.428938 12.657304 10.625 13.0625 C 10.781851 14.565645 10.885217 15.583987 10.9375 16.09375 C 10.963642 16.577371 10.8756 16.89258 10.71875 17.0625 C 10.5619 17.232421 10.26487 17.353967 9.78125 17.40625 C 9.5067627 17.576171 9.3568207 17.714469 9.34375 17.8125 C 9.3306787 17.910531 9.4289369 17.96875 9.625 17.96875 C 9.8341333 17.96875 10.062727 17.957106 10.34375 17.9375 C 10.624772 17.917893 10.969804 17.90625 11.375 17.90625 C 11.780196 17.90625 11.911958 17.774488 11.78125 17.5 C 11.663612 17.042521 11.640325 16.582479 11.71875 16.125 C 12.045521 14.582641 12.030196 13.559191 11.625 13.0625 L 11.625 12.0625 L 11.625 12.03125 L 11.46875 9.6875 C 11.551863 9.5316645 11.612077 9.2838274 11.625 9 C 12.561524 9.4521751 13.009315 10.114288 12.9375 11 L 13.25 11.03125 C 13.344723 9.9548482 12.795393 9.1596619 11.625 8.65625 C 11.621014 8.5887282 11.602059 8.5313315 11.59375 8.46875 L 16.65625 8.5 C 16.380322 10.979709 16.261722 13.431847 16.3125 15.84375 C 16.586987 17.242329 17.000454 17.9375 17.5625 17.9375 L 17.59375 17.9375 C 18.168867 17.9375 18.582334 17.242329 18.84375 15.84375 C 18.90722 13.431892 18.825723 10.979662 18.5625 8.5 C 18.670337 8.4806324 18.850357 8.4660486 19.03125 8.46875 C 19.00964 9.1031006 19.097218 9.6979054 19.28125 10.25 L 19.5625 10.0625 C 19.396936 9.5570947 19.323417 9.0322481 19.34375 8.46875 C 19.621563 8.4870604 19.918122 8.5089773 20.3125 8.5625 C 21.227457 8.6866727 21.657676 8.2862766 21.625 7.3125 C 21.592323 6.3387227 21.225431 5.8539662 20.5 5.90625 C 19.774568 5.9585333 19.307991 6.4935467 19.125 7.5 C 19.086759 7.7103231 19.049512 7.9226682 19.03125 8.125 C 18.821947 8.1155676 18.656795 8.1321791 18.53125 8.15625 C 18.260868 5.6858954 18.106565 4.0613921 18.09375 3.34375 C 18.590441 2.7032793 18.90565 2.186446 19.0625 1.78125 C 19.219349 1.3760547 19.426082 1.1860734 19.6875 1.21875 C 19.948917 1.2514273 19.857193 1.049802 19.40625 0.625 C 18.955306 0.200198 18.375146 0 17.65625 0 z M 10.21875 0.40625 C 10.383769 0.416053 10.55067 0.45098434 10.75 0.5 C 11.148661 0.59803133 11.34375 0.82151664 11.34375 1.1875 C 11.34375 1.5534833 11.230166 1.8701186 10.96875 2.125 C 10.707333 2.3798813 10.515925 2.461388 10.4375 2.34375 C 10.346004 2.2391833 10.434046 2.0659541 10.65625 1.84375 C 10.878453 1.621546 10.930138 1.421348 10.8125 1.21875 C 10.694863 1.016152 10.446662 0.98632863 10.09375 1.15625 C 9.9630413 1.038612 9.676229 0.95342466 9.21875 0.875 C 9.3233167 0.652796 9.519833 0.49631866 9.78125 0.4375 C 9.9119583 0.40809033 10.053731 0.396447 10.21875 0.40625 z M 2.1875 0.59375 C 2.631908 0.59375 3.03005 0.720404 3.34375 0.96875 C 3.0431213 1.9229207 2.6449793 2.5766247 2.1875 2.96875 C 1.71695 2.5766247 1.3318793 1.9229207 1.03125 0.96875 C 1.34495 0.720404 1.7300206 0.59375002 2.1875 0.59375 z M 17.65625 0.59375 C 18.100659 0.59375 18.485729 0.70222467 18.8125 0.9375 C 18.511871 1.9047413 18.1268 2.5896961 17.65625 2.96875 C 17.185701 2.589696 16.800628 1.9047413 16.5 0.9375 C 16.826771 0.70222467 17.211843 0.59375002 17.65625 0.59375 z M 9.125 1.0625 C 9.4909833 1.088642 9.7959751 1.1869 10.03125 1.34375 C 10.018179 1.5006 10.063327 1.5057087 10.1875 1.375 C 10.311673 1.244292 10.438327 1.1977167 10.5625 1.25 C 10.686673 1.3022833 10.716496 1.4238293 10.625 1.59375 C 10.533505 1.7636707 10.410531 1.9121853 10.3125 2.0625 C 10.214469 2.2128147 10.221004 2.4894107 10.3125 2.875 C 10.403996 3.2605893 10.612156 3.5422933 10.90625 3.71875 C 11.200343 3.895206 11.367038 4.1536229 11.40625 4.5 C 11.445463 4.8463767 11.352313 5.2998832 11.15625 5.875 C 10.960188 6.4501167 10.875 6.8584751 10.875 7.09375 L 9.3125 7.40625 C 9.3125 7.1448333 9.1974891 6.759762 8.96875 6.25 C 8.7400107 5.7402373 8.6548232 5.2052255 8.6875 4.65625 C 8.7201773 4.1072753 8.8584752 3.8088188 9.09375 3.75 C 9.3290253 3.6911813 9.4993997 3.506308 9.65625 3.21875 C 9.6170373 2.8527667 9.4685227 2.6977173 9.1875 2.75 C 8.9064767 2.802284 8.7914662 2.7222046 8.84375 2.5 C 9.0136707 2.4085047 9.0769979 2.326998 9.03125 2.28125 C 9.0228557 2.2728559 8.9808847 2.288544 8.96875 2.28125 C 8.9147506 2.2487918 8.8468195 2.1981724 8.71875 2.1875 C 8.71875 2.1090747 8.6619586 2.0522833 8.53125 2 C 8.6619587 1.6993707 8.8067918 1.4926373 8.9375 1.375 C 9.0682087 1.309646 9.1752565 1.309646 9.3125 1.375 C 9.449744 1.4403547 9.6062209 1.4869293 9.75 1.5 L 9.75 1.40625 C 9.658504 1.40625 9.5434937 1.3596754 9.40625 1.28125 C 9.269006 1.2028253 9.1125293 1.1977167 8.96875 1.25 C 9.0210333 1.1715747 9.085787 1.1147833 9.125 1.0625 z M 10.375 1.3125 C 10.29004 1.3321067 10.196889 1.3823627 10.125 1.5 C 10.05311 1.6176373 10.036358 1.7107873 10.0625 1.75 C 9.9840753 1.7892127 9.9505705 1.8474313 9.9375 1.90625 C 9.9244293 1.9650687 9.9281103 1.980394 10 2 C 10.071889 2.0196067 10.163612 1.9861021 10.28125 1.875 C 10.398887 1.7638973 10.492037 1.6539953 10.53125 1.5625 C 10.570463 1.471004 10.563928 1.3960333 10.53125 1.34375 C 10.498573 1.2914667 10.45996 1.292894 10.375 1.3125 z M 9.09375 1.375 C 9.0537206 1.3815355 9.0046948 1.414626 8.96875 1.4375 L 8.875 1.5625 L 8.875 1.625 L 8.9375 1.625 C 9.120492 1.7034247 9.2908669 1.7034247 9.5 1.625 L 9.71875 1.65625 L 9.71875 1.5625 L 9.5 1.5625 C 9.3431505 1.4350595 9.2138382 1.3553936 9.09375 1.375 z M 10.4375 1.40625 C 10.465275 1.4111517 10.472018 1.432805 10.46875 1.46875 C 10.462215 1.5406393 10.433819 1.6156106 10.375 1.6875 C 10.316181 1.75939 10.239783 1.8176087 10.1875 1.84375 C 10.135216 1.869892 10.135216 1.8531401 10.1875 1.78125 C 10.239783 1.7093607 10.239783 1.667894 10.1875 1.6875 C 10.135216 1.7071067 10.130108 1.6838186 10.15625 1.625 C 10.182392 1.5661807 10.215896 1.5028539 10.28125 1.4375 C 10.340069 1.4113583 10.409725 1.4013483 10.4375 1.40625 z M 9.09375 1.4375 C 9.067608 1.4767127 9.0676083 1.5414666 9.09375 1.59375 C 9.041466 1.5806793 8.9948913 1.5755714 8.96875 1.5625 C 8.9818213 1.523288 9.0283963 1.4636419 9.09375 1.4375 z M 9.25 1.5 L 9.4375 1.5625 C 9.3590747 1.5886413 9.3022834 1.59375 9.25 1.59375 C 9.3022833 1.5676087 9.2892124 1.5522833 9.25 1.5 z M 10.0625 1.84375 C 10.114784 1.8829627 10.132963 1.9113587 10.09375 1.9375 C 10.054537 1.963642 10.013071 1.9701773 10 1.9375 C 9.9869293 1.9048233 10.010217 1.8698921 10.0625 1.84375 z M 8.71875 1.96875 C 8.692608 1.96875 8.6627842 1.9869293 8.65625 2 C 8.649714 2.0130713 8.6562503 2.0181792 8.65625 2.03125 C 8.6954627 2.0181793 8.7420376 2.0545379 8.78125 2.09375 C 8.8204627 2.1329627 8.8423225 2.1133566 8.875 2.09375 C 8.9076767 2.074144 8.9374998 2.070462 8.9375 2.03125 C 8.9375 1.9920373 8.9258562 1.9622147 8.90625 1.96875 C 8.8866433 1.9752853 8.8684638 2.005108 8.875 2.03125 C 8.8815353 2.0573913 8.8633564 2.0559646 8.84375 2.0625 C 8.8241433 2.0690353 8.8139271 2.0639266 8.78125 2.03125 C 8.7485733 1.9985727 8.7318211 1.96875 8.71875 1.96875 z M 8.65625 2.25 C 8.6627847 2.2303933 8.704252 2.2434647 8.75 2.25 C 8.795748 2.2565353 8.8474315 2.2681788 8.90625 2.28125 L 8.65625 2.28125 C 8.6431793 2.28125 8.6497135 2.2696059 8.65625 2.25 z M 8.96875 2.34375 C 8.9426087 2.369892 8.8894977 2.3931793 8.84375 2.40625 C 8.798002 2.4193207 8.7761422 2.4062501 8.75 2.40625 C 8.7238587 2.4193213 8.7005707 2.4193214 8.6875 2.40625 C 8.6744287 2.3931793 8.6795372 2.3880707 8.71875 2.375 L 8.96875 2.34375 z M 17.625 4.34375 L 17.65625 4.34375 C 17.785741 5.840987 17.848098 6.9458994 17.9375 8.15625 L 17.28125 8.15625 C 17.387419 6.9458346 17.471219 5.841092 17.625 4.34375 z M 2.1875 4.375 C 2.3115249 5.8552992 2.3826874 6.9251329 2.46875 8.125 L 1.84375 8.125 C 1.949252 6.9250401 2.035454 5.8554487 2.1875 4.375 z M 11.65625 5.28125 C 11.878454 5.8432953 12.085187 6.2749415 12.28125 6.5625 C 11.941408 6.7062793 11.596377 6.9544792 11.25 7.28125 C 11.234759 7.2956279 11.20331 7.2981727 11.1875 7.3125 C 11.181862 7.2739577 11.1875 7.2237359 11.1875 7.1875 C 11.1875 6.8868707 11.244292 6.5600187 11.375 6.1875 C 11.505709 5.8149813 11.603967 5.5034541 11.65625 5.28125 z M 8.25 5.5 C 8.6127155 6.3136595 8.8468211 6.910572 8.9375 7.3125 C 8.9213359 7.2988321 8.8906614 7.2949538 8.875 7.28125 C 8.5090167 6.9610153 8.1756286 6.7375294 7.875 6.59375 C 8.071062 6.149342 8.197717 5.7875587 8.25 5.5 z M 20.5 6.21875 C 21.035904 6.179538 21.304537 6.5347858 21.34375 7.3125 C 21.382963 8.0902147 21.010962 8.4250292 20.1875 8.28125 C 19.860486 8.2241522 19.588311 8.1803663 19.34375 8.15625 C 19.360949 7.9711964 19.400967 7.7848456 19.4375 7.59375 C 19.60742 6.7049333 19.964096 6.2579627 20.5 6.21875 z M 10.875 7.5 C 10.879056 7.5202823 10.901005 7.5416581 10.90625 7.5625 C 10.676175 7.7334086 10.408059 7.8990789 10.09375 8.0625 C 9.9144515 7.9704328 9.7166355 7.8751147 9.5625 7.78125 L 10.875 7.5 z M 1.8125 8.4375 L 2.5 8.4375 C 2.6810015 11.006351 2.8125001 13.174476 2.8125 14.40625 C 2.8125 16.236167 2.5824786 17.125 2.125 17.125 C 1.6675207 17.125 1.4375 16.236167 1.4375 14.40625 C 1.4375 13.174484 1.59063 11.006325 1.8125 8.4375 z M 11.09375 8.46875 L 11.25 8.46875 C 11.252343 8.487075 11.248335 8.5118359 11.25 8.53125 C 11.196504 8.5127249 11.149412 8.4862945 11.09375 8.46875 z M 9.40625 8.5 C 9.3416964 8.5511093 9.2399006 8.6086133 9.1875 8.65625 C 9.1156103 8.7216043 9.0786319 8.8000495 9.03125 8.90625 L 9.09375 8.6875 C 9.1922205 8.6280431 9.3008453 8.5592412 9.40625 8.5 z M 17.25 8.5 L 17.96875 8.5 C 18.152309 11.034495 18.28125 13.154093 18.28125 14.375 C 18.28125 16.217987 18.051229 17.125 17.59375 17.125 L 17.5625 17.125 C 17.105021 17.125 16.875 16.217987 16.875 14.375 C 16.875 13.154073 17.032018 11.034557 17.25 8.5 z M 11 8.75 C 11.093022 8.7794155 11.163626 8.8114761 11.25 8.84375 C 11.235184 9.0882336 11.207402 9.3655992 11.125 9.71875 L 11.25 11.6875 L 8.1875 11.6875 L 8.90625 9.28125 C 8.8605027 9.5753433 8.9704043 9.4938373 9.21875 9.0625 C 9.2318207 9.127854 9.2019977 9.2792223 9.15625 9.46875 C 9.1105027 9.6582773 9.2255129 9.7383564 9.5 9.71875 C 9.774488 9.699144 9.947717 9.6125292 10 9.46875 C 10.009002 9.4439944 10.02186 9.3465553 10.03125 9.3125 C 10.047225 9.4010911 10.061073 9.4993243 10.09375 9.5625 C 10.191781 9.7520273 10.365011 9.8656095 10.59375 9.9375 C 10.822489 10.009389 10.889498 9.9242016 10.84375 9.65625 C 10.798002 9.388298 10.822716 9.2681786 10.875 9.28125 C 11.03185 9.6080207 11.098858 9.6480605 11.125 9.40625 C 11.151141 9.1644393 11.111102 8.9329917 11 8.75 z "
     id="path2216" />
</svg>
