<?xml version="1.0" encoding="UTF-8" standalone="no"?>
<svg
   xmlns:dc="http://purl.org/dc/elements/1.1/"
   xmlns:cc="http://web.resource.org/cc/"
   xmlns:rdf="http://www.w3.org/1999/02/22-rdf-syntax-ns#"
   xmlns:svg="http://www.w3.org/2000/svg"
   xmlns="http://www.w3.org/2000/svg"
   xmlns:sodipodi="http://sodipodi.sourceforge.net/DTD/sodipodi-0.dtd"
   xmlns:inkscape="http://www.inkscape.org/namespaces/inkscape"
   width="15.014799"
   height="17.96875"
   id="svg2160"
   sodipodi:version="0.32"
   inkscape:version="0.45"
   sodipodi:docname="A430.svg"
   inkscape:output_extension="org.inkscape.output.svg.inkscape"
   sodipodi:docbase="C:\Program Files\JSesh\fontsST"
   sodipodi:modified="true"
   version="1.0">
  <metadata
     id="metadata2167">
    <rdf:RDF>
      <cc:Work
         rdf:about="">
        <dc:format>image/svg+xml</dc:format>
        <dc:type
           rdf:resource="http://purl.org/dc/dcmitype/StillImage" />
      </cc:Work>
    </rdf:RDF>
  </metadata>
  <defs
     id="defs2165" />
  <sodipodi:namedview
     inkscape:window-height="480"
     inkscape:window-width="640"
     inkscape:pageshadow="2"
     inkscape:pageopacity="0.0"
     guidetolerance="10.0"
     gridtolerance="10.0"
     objecttolerance="10.0"
     borderopacity="1.0"
     bordercolor="#666666"
     pagecolor="#ffffff"
     id="base" />
  <path
     style="fill:#000000;stroke:none"
     d="M 0.26766348,0 L 0.26766348,10.1875 C 0.21686808,10.167355 0.14454488,10.218651 0.048913479,10.3125 C -0.046717321,10.40635 -0.0059575311,10.538058 0.20516348,10.71875 C 0.2229563,10.75327 0.24934111,10.778547 0.26766348,10.8125 L 0.26766348,10.90625 L 0.33016348,10.90625 C 0.63179403,11.440431 0.98671876,11.923499 1.4239135,12.3125 C 1.5818452,12.453022 1.7325131,12.707073 1.8614135,13.09375 C 1.9903132,13.480429 2.2699143,13.931172 2.7051635,14.46875 L 3.0176635,14.125 L 4.3301635,15.03125 L 5.0801635,16.15625 C 5.3442203,16.577295 5.6155179,16.819039 5.8926635,16.84375 C 6.1698093,16.868461 6.2671915,16.81247 6.2364135,16.65625 C 6.2056355,16.500028 6.096294,16.176458 5.8926635,15.6875 C 6.1368614,15.740154 6.3398271,15.850717 6.4864135,16.03125 C 6.7340825,16.652439 6.923018,17.213893 7.0801635,17.71875 C 7.6738094,17.524042 8.1744713,17.201411 8.5801635,16.75 C 8.9858566,16.298588 9.0743457,15.814273 8.8614135,15.28125 C 7.9744659,15.214989 7.4275028,15.053273 7.2051635,14.8125 C 7.6179123,14.521253 8.3157976,14.265105 9.2676635,14.03125 L 4.2364135,9.5625 C 3.7510415,9.6173467 3.2738774,9.7569535 2.7989135,10 C 2.1375605,9.8982655 1.6605074,9.8556469 1.3926635,9.875 C 1.1520479,9.8923862 0.88522695,9.8674179 0.58016348,9.78125 L 0.58016348,0.5625 L 6.2051635,6.71875 L 5.7051635,6.75 C 5.7658355,7.0169573 5.8338188,7.1371348 5.9551635,7.125 C 6.0765075,7.634646 6.2889375,7.8610378 6.5801635,7.8125 L 6.7364135,7.90625 L 6.3614135,7.90625 C 6.2764728,8.1004013 6.3635723,8.1805192 6.6426635,8.15625 C 6.6912015,8.6901647 7.1160604,8.8504005 7.8926635,8.65625 L 9.5801635,10.34375 L 9.9239135,10.0625 L 8.4551635,8.5625 C 8.9890782,8.574634 9.8023932,8.3151647 10.955163,7.78125 C 11.19362,7.5030501 11.409531,7.1908513 11.611413,6.875 C 11.651715,7.1767758 11.681155,7.4580352 11.673913,7.71875 L 10.580163,12.28125 C 10.349609,12.815165 10.269491,13.295873 10.330163,13.78125 C 10.002534,14.788407 9.7901046,15.545872 9.7051635,16.03125 C 9.6202222,16.516627 9.4730349,16.816156 9.2364135,16.9375 C 8.9997922,17.058845 8.6471563,17.231215 8.1739135,17.4375 C 7.6764022,17.534575 7.4038834,17.640791 7.3614135,17.75 C 7.3189428,17.85921 7.4330527,17.920212 7.7364135,17.96875 L 10.080163,17.96875 C 10.286449,17.7746 10.353519,17.540313 10.298913,17.21875 C 10.244309,16.897187 10.437622,16.359133 10.892663,15.625 C 11.347704,14.890867 11.514008,14.179528 11.392663,13.5 C 11.38053,13.293715 11.491897,13.067323 11.673913,12.8125 C 11.85593,12.557677 12.002204,12.39046 12.111413,12.28125 L 13.267663,12.28125 C 13.3162,12.463267 13.467628,12.755814 13.673913,13.15625 C 13.758854,14.284751 13.826838,15.169375 13.923913,15.8125 C 14.020988,16.455625 13.986082,16.855301 13.767663,17.03125 C 13.549243,17.207199 13.19752,17.340425 12.736413,17.4375 C 12.251036,17.534575 11.97245,17.640791 11.923913,17.75 C 11.875374,17.85921 12.040764,17.920212 12.392663,17.96875 L 14.642663,17.96875 C 14.848948,17.7746 14.909036,17.540313 14.830163,17.21875 C 14.751289,16.897187 14.750376,16.565494 14.798913,16.25 C 14.847451,15.970907 14.90754,15.524192 14.986413,14.875 C 15.065287,14.225809 14.979101,13.653761 14.736413,13.15625 L 14.517663,9.78125 C 14.78462,8.8954373 14.685387,8.0387379 14.236413,7.25 C 14.333488,6.7039507 14.439703,6.0387373 14.548913,5.25 C 14.658123,4.4612627 14.591054,3.92138 14.330163,3.59375 C 14.069273,3.2661207 13.895988,2.9335141 13.798913,2.59375 C 14.17508,2.4360027 14.422416,2.262718 14.580163,2.0625 C 14.737911,1.862282 14.830163,1.5114733 14.830163,1.0625 C 14.830163,0.57712267 14.597704,0.264546 14.142663,0.125 C 13.687622,-0.014546 13.202674,-0.034575999 12.705163,0.0625 C 12.207651,0.15957533 11.913276,0.56531937 11.767663,1.28125 C 11.658453,1.4268633 11.526141,1.6514273 11.392663,1.90625 C 11.33199,2.076132 11.319857,2.1441154 11.392663,2.15625 C 11.46547,2.168384 11.55074,2.2014619 11.611413,2.25 C 11.538606,2.2864033 11.499462,2.3385966 11.517663,2.375 C 11.535865,2.4114033 11.562876,2.4062499 11.611413,2.40625 C 11.696354,2.3941153 11.71547,2.4323467 11.642663,2.46875 C 11.569856,2.5051533 11.550741,2.5382313 11.611413,2.5625 C 11.672086,2.5867687 11.724279,2.6668868 11.736413,2.8125 C 11.748548,2.9581133 11.821684,3.0191159 11.955163,3.03125 C 12.088642,3.0433847 12.255859,3.0364034 12.486413,3 C 12.583488,3.2184193 12.543429,3.3768274 12.361413,3.4375 C 11.609078,3.4375 11.130198,3.5576773 10.923913,3.8125 C 10.572014,4.3464147 10.199349,5.1909794 9.7989135,6.34375 C 9.4955528,6.416556 9.1159061,6.5437146 8.6426635,6.75 C 8.1694208,6.9562853 7.8368141,7.0555185 7.6426635,7.03125 C 7.4121095,6.873502 7.0934656,6.7672873 6.7051635,6.71875 L 0.79891348,0 L 0.26766348,0 z M 13.236413,0.3125 C 13.410846,0.3125 13.605676,0.33252966 13.830163,0.375 C 14.279136,0.45994133 14.486413,0.68633267 14.486413,1.0625 C 14.486413,1.4508013 14.379284,1.7824939 14.142663,2.03125 C 13.906042,2.2800053 13.739738,2.3400941 13.642663,2.21875 C 13.545588,2.10954 13.592628,1.949304 13.798913,1.71875 C 14.005198,1.488196 14.057391,1.2566507 13.923913,1.0625 C 13.790434,0.86834867 13.537946,0.86834867 13.173913,1.0625 C 13.0283,0.95329 12.761849,0.88015335 12.361413,0.84375 C 12.397816,0.613196 12.518907,0.45994132 12.767663,0.375 C 12.892041,0.33252967 13.06198,0.3125 13.236413,0.3125 z M 12.142663,1.0625 C 12.530965,1.0503653 12.85659,1.1165213 13.111413,1.25 C 13.111413,1.4077473 13.146318,1.420796 13.267663,1.28125 C 13.389007,1.1417047 13.540434,1.08253 13.673913,1.125 C 13.807391,1.1674707 13.815286,1.2928007 13.736413,1.46875 C 13.65754,1.6446993 13.557392,1.7979546 13.423913,1.9375 C 13.290434,2.077046 13.302568,2.3304479 13.423913,2.71875 C 13.545257,3.1070513 13.725523,3.4848707 13.986413,3.8125 C 14.247304,4.1401293 14.307392,4.6269048 14.173913,5.3125 C 14.040434,5.9980947 13.93422,6.6032191 13.861413,7.125 L 12.142663,7.34375 C 12.13211,7.0693564 12.074986,6.7116826 11.986413,6.28125 C 12.298452,5.690997 12.56643,5.0480674 12.767663,4.34375 C 12.75654,3.9878068 12.667097,3.7681434 12.548913,3.6875 C 12.776746,3.6608291 12.863615,3.4851911 12.830163,3.15625 C 12.793759,2.7982847 12.652639,2.6650594 12.361413,2.75 C 12.070187,2.8349413 11.95001,2.7618039 11.986413,2.53125 C 12.16843,2.42204 12.203335,2.3549708 12.142663,2.3125 C 12.081991,2.2700293 11.98791,2.25 11.830163,2.25 C 11.822631,2.2048096 11.790693,2.1295904 11.736413,2.09375 C 11.703242,2.0718475 11.662043,2.0809107 11.611413,2.0625 C 11.708488,1.7470047 11.821684,1.527594 11.955163,1.40625 C 12.088642,1.3334433 12.240982,1.326462 12.392663,1.375 C 12.544343,1.4235373 12.68455,1.4566153 12.830163,1.46875 L 12.830163,1.375 C 12.733087,1.387134 12.61291,1.3479893 12.455163,1.28125 C 12.297416,1.2145107 12.132026,1.2205773 11.986413,1.28125 C 12.047085,1.1963087 12.10626,1.1110373 12.142663,1.0625 z M 11.736413,2.09375 C 11.784951,2.0694813 11.82501,2.0825293 11.861413,2.125 C 11.897817,2.16747 11.924828,2.1805186 11.955163,2.15625 C 11.9855,2.1319813 12.017663,2.1049707 12.017663,2.0625 C 12.017663,2.0200293 12.004615,1.9878652 11.986413,2 C 11.968212,2.0121347 11.949096,2.0442987 11.955163,2.0625 C 11.96123,2.080702 11.948181,2.0755487 11.923913,2.09375 C 11.899644,2.1119513 11.89175,2.0989028 11.861413,2.0625 C 11.831078,2.0260967 11.798913,2.0312501 11.798913,2.03125 C 11.750375,2.03125 11.74248,2.019116 11.736413,2.03125 C 11.730346,2.0433847 11.724279,2.0694813 11.736413,2.09375 z M 13.486413,1.1875 C 13.395404,1.2239033 13.303152,1.3222233 13.236413,1.4375 C 13.169674,1.5527773 13.149644,1.638962 13.173913,1.6875 C 13.101106,1.7239033 13.05498,1.751828 13.048913,1.8125 C 13.042846,1.873172 13.069856,1.9192986 13.142663,1.9375 C 13.21547,1.955702 13.308636,1.9086613 13.423913,1.78125 C 13.53919,1.653838 13.63751,1.5345753 13.673913,1.4375 C 13.710316,1.3404247 13.710316,1.2672873 13.673913,1.21875 C 13.63751,1.170212 13.577421,1.1510967 13.486413,1.1875 z M 13.548913,1.3125 C 13.577732,1.3155337 13.583197,1.3385966 13.580163,1.375 C 13.574096,1.4478067 13.541018,1.5148767 13.486413,1.59375 C 13.431808,1.672624 13.378701,1.719664 13.330163,1.75 C 13.281626,1.780336 13.281626,1.766374 13.330163,1.6875 C 13.344724,1.663838 13.324885,1.6388332 13.330163,1.625 C 13.275558,1.655336 13.243394,1.6292393 13.267663,1.5625 C 13.291931,1.4957607 13.36324,1.4165567 13.423913,1.34375 C 13.484585,1.313414 13.520094,1.3094663 13.548913,1.3125 z M 12.142663,1.40625 C 12.100951,1.4168677 12.054066,1.4414475 12.017663,1.46875 L 11.892663,1.59375 L 11.923913,1.65625 L 11.986413,1.65625 C 12.180564,1.716922 12.361744,1.6908252 12.580163,1.59375 L 12.798913,1.625 L 12.798913,1.53125 L 12.580163,1.53125 C 12.407247,1.4129395 12.267799,1.374397 12.142663,1.40625 z M 12.142663,1.46875 C 12.130529,1.5172873 12.118394,1.5452119 12.142663,1.59375 C 12.094125,1.5816153 12.054066,1.574634 12.017663,1.5625 C 12.017663,1.5260967 12.069857,1.5051533 12.142663,1.46875 z M 12.330163,1.46875 L 12.517663,1.5625 C 12.432723,1.574634 12.359586,1.5816152 12.298913,1.59375 C 12.359586,1.5694813 12.378702,1.529422 12.330163,1.46875 z M 13.205163,1.78125 C 13.265836,1.8055193 13.272817,1.8446639 13.236413,1.875 C 13.20001,1.905336 13.154798,1.9053359 13.142663,1.875 C 13.130528,1.844664 13.16876,1.8055193 13.205163,1.78125 z M 11.830163,2.28125 C 11.8787,2.28125 11.919674,2.3064328 11.986413,2.3125 C 12.053152,2.3185673 12.092298,2.331616 12.080163,2.34375 C 12.068029,2.3801533 12.034951,2.419298 11.986413,2.4375 C 11.937876,2.4557013 11.897817,2.4566152 11.861413,2.46875 C 11.837145,2.46875 11.817115,2.4808847 11.798913,2.46875 C 11.780711,2.4566153 11.781625,2.4183839 11.830163,2.40625 L 12.080163,2.34375 L 11.767663,2.34375 C 11.743394,2.34375 11.730346,2.3307013 11.736413,2.3125 C 11.74248,2.294298 11.781625,2.28125 11.830163,2.28125 z M 12.111413,3.71875 C 12.149072,3.7102141 12.196261,3.7244603 12.236413,3.71875 C 12.142008,3.7725219 12.044176,3.848487 11.923913,3.96875 C 11.829182,4.1529494 11.738535,4.3901489 11.642663,4.59375 C 11.582872,4.2010817 11.627603,3.9408254 11.798913,3.84375 C 11.889921,3.7921787 11.997653,3.7445357 12.111413,3.71875 z M 11.236413,5 C 11.251865,5.0710796 11.279526,5.2237112 11.298913,5.3125 C 11.060868,5.8663578 10.825053,6.4547735 10.580163,7.125 C 10.009845,7.2948813 9.484839,7.5063972 9.0176635,7.71875 C 8.5504875,7.9311027 8.2448923,8.0121343 8.1114135,8 C 7.9293975,7.817984 7.7691615,7.7378658 7.6114135,7.75 L 7.6114135,7.5625 C 7.6478168,7.5625 7.7540307,7.5224406 7.9239135,7.4375 C 8.6034415,7.5831133 9.3888319,7.4699171 10.298913,7.09375 C 10.723618,6.4506253 11.030128,5.7523348 11.236413,5 z M 6.6114135,7 C 6.8833004,6.979523 7.0574113,7.0549355 7.0801635,7.21875 C 7.1104995,7.43717 6.9320615,7.5382315 6.5801635,7.5625 C 6.3617435,7.4654247 6.2625102,7.2860727 6.2989135,7.03125 C 6.4172242,7.0039475 6.5207845,7.0068257 6.6114135,7 z M 13.861413,7.65625 C 14.273984,8.056686 14.354102,8.7619582 14.111413,9.78125 L 14.205163,11.78125 L 11.298913,11.78125 L 12.205163,7.90625 L 13.861413,7.65625 z M 4.1739135,10 L 8.4551635,13.78125 C 7.8958282,13.891965 7.3784181,14.144876 6.8926635,14.5 C 6.4769099,13.349903 5.7301353,12.280094 4.6426635,11.3125 C 3.9577462,10.710244 3.4825262,10.381174 3.2364135,10.3125 C 3.536099,10.121066 3.8415345,10.019193 4.1739135,10 z M 0.86141348,10.125 C 0.95138388,10.169264 1.305225,10.218437 1.9239135,10.25 C 2.5426016,10.281564 3.1519391,10.517661 3.7364135,10.9375 C 4.3208877,11.357339 4.8656557,11.895796 5.3926635,12.59375 C 5.9196701,13.291704 6.2364791,13.799244 6.3301635,14.09375 C 6.4238484,14.388255 6.5468169,14.617927 6.7051635,14.8125 C 6.863511,15.007073 7.0863114,15.172466 7.3614135,15.28125 C 7.3305301,15.46134 7.2465633,15.624142 7.1426635,15.75 C 7.0387633,15.875859 6.9061622,15.944291 6.7676635,16 C 6.4236189,15.55073 5.7902885,15.155977 4.8301635,14.78125 C 3.8700384,14.406521 2.8869693,13.629148 1.8614135,12.4375 C 1.9940375,12.433826 2.127526,12.388224 2.2676635,12.3125 C 2.522845,12.861643 2.8213497,13.272058 3.2051635,13.53125 C 3.5889777,13.790442 3.9021018,13.82789 4.1114135,13.65625 C 4.244547,13.252206 3.7953087,12.654193 2.7989135,11.875 L 2.6426635,12 L 2.3301635,11.71875 C 2.1402639,11.850401 2.0125101,11.919704 1.9239135,11.9375 C 1.8353164,11.955298 1.6919275,11.900649 1.4864135,11.75 C 1.2981039,11.611961 0.9775483,11.263363 0.58016348,10.75 L 0.58016348,10.59375 C 0.75679696,10.510149 0.85618242,10.340255 0.86141348,10.125 z M 1.9239135,10.34375 C 1.8441338,10.342551 1.7835011,10.367629 1.7051635,10.4375 C 1.574605,10.593321 1.5569382,10.776983 1.7051635,10.9375 C 1.8856567,11.098096 2.0771418,11.089245 2.2364135,10.9375 C 2.3579474,10.77365 2.3337603,10.625292 2.1739135,10.46875 C 2.0926914,10.396482 2.0036932,10.344949 1.9239135,10.34375 z M 2.8614135,12.1875 C 3.5128283,12.745633 3.8189838,13.164518 3.7989135,13.46875 C 3.3660281,13.355572 2.9639515,12.99645 2.6114135,12.375 L 2.8614135,12.1875 z M 2.3301635,13.46875 L 2.7676635,13.84375 L 2.6426635,14.03125 C 2.4783332,13.810237 2.373438,13.620808 2.3301635,13.46875 z M 4.7676635,15.25 L 5.5176635,15.53125 C 5.8391683,16.196664 5.9178579,16.508379 5.7676635,16.5 C 5.6174698,16.491619 5.2903079,16.080065 4.7676635,15.25 z M 7.6426635,15.34375 L 8.5801635,15.59375 C 8.455822,16.442228 8.014026,16.983605 7.2676635,17.25 L 6.8926635,16.3125 C 7.0999319,16.224934 7.276199,16.072817 7.4239135,15.875 C 7.5716274,15.677183 7.649241,15.499911 7.6426635,15.34375 z "
     id="path2162" />
</svg>
