<?xml version="1.0" encoding="UTF-8" standalone="no"?>
<svg
   xmlns:dc="http://purl.org/dc/elements/1.1/"
   xmlns:cc="http://web.resource.org/cc/"
   xmlns:rdf="http://www.w3.org/1999/02/22-rdf-syntax-ns#"
   xmlns:svg="http://www.w3.org/2000/svg"
   xmlns="http://www.w3.org/2000/svg"
   xmlns:sodipodi="http://inkscape.sourceforge.net/DTD/sodipodi-0.dtd"
   xmlns:inkscape="http://www.inkscape.org/namespaces/inkscape"
   width="13.68pt"
   height="17.977417"
   id="svg1306"
   sodipodi:version="0.32"
   inkscape:version="0.43"
   sodipodi:docname="A44.svg"
   sodipodi:docbase="C:\Program Files\JSesh\fonts"
   version="1.0">
  <metadata
     id="metadata1313">
    <rdf:RDF>
      <cc:Work
         rdf:about="">
        <dc:format>image/svg+xml</dc:format>
        <dc:type
           rdf:resource="http://purl.org/dc/dcmitype/StillImage" />
      </cc:Work>
    </rdf:RDF>
  </metadata>
  <defs
     id="defs1311" />
  <sodipodi:namedview
     inkscape:window-height="708"
     inkscape:window-width="1024"
     inkscape:pageshadow="2"
     inkscape:pageopacity="0.0"
     borderopacity="1.0"
     bordercolor="#666666"
     pagecolor="#ffffff"
     id="base"
     inkscape:zoom="29.980689"
     inkscape:cx="8.3041707"
     inkscape:cy="8.9557647"
     inkscape:window-x="-4"
     inkscape:window-y="-4"
     inkscape:current-layer="svg1306" />
  <g
     id="g1325"
     transform="translate(5.570252,3.33548e-2)">
    <path
       id="path1308"
       d="M 5.519601,15.137488 L 4.828807,15.137488 L 2.084823,11.625956 C 1.701049,11.011917 1.352454,10.807238 1.039038,11.011917 C 0.72562267,11.216596 0.84715133,11.763475 1.403624,12.652552 C 1.960096,13.541629 2.4749927,14.939206 2.948314,16.845284 L 1.106199,17.420944 L 7.994944,17.420944 L 7.496037,17.075548 C 7.9437737,15.092715 8.22201,12.962769 8.330746,10.68571 C 8.439482,8.40865 8.218812,7.2797143 7.668736,7.298903 C 7.1186593,7.3180917 6.6837153,7.705064 6.363904,8.45982 C 5.8905827,9.866992 5.6091483,12.092881 5.519601,15.137488 z M 6.939565,7.078233 C 7.0930743,6.911931 7.3425273,6.8223837 7.687924,6.809591 C 7.3809053,6.3490623 7.227396,5.9716847 7.227396,5.677458 C 7.5855847,5.3320613 7.7199053,5.1017967 7.630358,4.986664 C 7.5408107,4.871532 7.387301,4.8907207 7.169829,5.04423 C 6.722093,4.5709093 6.306338,4.3854187 5.922564,4.487758 C 5.820224,4.8459473 5.7050917,5.0890043 5.577167,5.216929 C 5.4492423,5.3448537 5.3213177,5.5367407 5.193393,5.79259 L 5.557978,5.965288 C 5.557978,6.4641947 5.7434687,6.6976573 6.11445,6.665676 C 6.485432,6.6336947 6.7604703,6.7712137 6.939565,7.078233 z M 5.807431,5.140174 C 5.9353557,4.8331547 6.274356,4.8459473 6.824432,5.178552 C 6.2231867,5.4727787 5.8841863,5.459986 5.807431,5.140174 z M 10.278399,0.515696 C 10.009758,0.298224 9.7283233,0.432545 9.434096,0.918659 C 8.5258307,1.4303577 7.6559427,2.1339437 6.824432,3.029417 C 6.5174133,3.425983 6.3511113,3.7521907 6.325526,4.00804 C 6.7988473,4.097588 7.112263,4.283079 7.265773,4.564513 C 7.432075,4.4877583 7.598377,4.481362 7.764679,4.545324 C 7.930981,4.6092867 8.0205283,4.7468057 8.033321,4.957881 C 8.046113,5.168957 7.9565657,5.3704383 7.764679,5.562325 C 7.5727923,5.7542123 7.6111697,5.9972693 7.879811,6.291496 C 7.9437737,5.74142 8.193227,5.114589 8.628171,4.411003 C 9.2805863,3.4515683 9.7475113,2.4409633 10.028946,1.379188 C 10.438305,0.98262133 10.521456,0.69479067 10.278399,0.515696 z M 10.56623,0.151111 C 10.886041,0.50930033 10.940409,0.829112 10.729334,1.110546 C 10.518259,1.3919807 10.332768,1.8205283 10.172861,2.396189 C 10.012955,2.9718503 9.5236433,3.880116 8.704926,5.120986 C 8.436284,5.5815147 8.301963,6.003666 8.301963,6.38744 C 9.3637383,6.5921193 9.8306633,7.6602903 9.702738,9.591953 L 8.839247,9.591953 C 8.8776237,12.457467 8.6857363,14.849659 8.263585,16.768528 L 9.165455,17.977417 L 0.588104,17.977417 L 0.511349,17.209869 L 2.142389,16.557453 C 1.771407,15.086319 1.310878,13.874232 0.760802,12.921193 C 0.210726,11.968154 -0.041925333,11.357314 0.002848,11.088673 C 0.047622,10.820031 0.287481,10.564181 0.722425,10.321124 C 1.157369,10.078067 1.6306903,10.161219 2.142389,10.570578 L 4.94394,14.158865 C 5.0462793,11.216597 5.4300533,9.1314243 6.095262,7.903347 C 6.4150733,7.2765163 6.4022807,6.9822897 6.056884,7.020667 C 5.494016,6.969497 5.2317703,6.8127893 5.270147,6.550544 C 5.3085243,6.2882987 5.2189773,6.1251947 5.001506,6.061232 C 4.784034,5.9972693 4.8096187,5.7797973 5.07826,5.408816 C 5.346902,5.0378347 5.4684307,4.7947777 5.442846,4.679645 C 5.4300533,4.5900977 5.4620343,4.4941543 5.538789,4.391815 C 5.3341097,4.3150597 5.2125813,4.1263707 5.174204,3.825748 C 5.1358267,3.5251247 5.1837987,3.3332377 5.31812,3.250087 C 5.4524407,3.1669357 5.4620347,3.1317563 5.346902,3.144549 C 5.23177,3.1573417 5.1582133,3.1317567 5.126232,3.067794 C 5.0942507,3.003832 5.1166377,2.952662 5.193393,2.914284 C 5.2701477,2.8759067 5.359695,2.8439257 5.462035,2.818341 C 5.5643743,2.7927557 5.6571197,2.8151423 5.740271,2.885501 C 5.8234217,2.9558597 5.8713933,3.0294163 5.884186,3.106171 C 5.8969787,3.259681 5.8394127,3.419587 5.711488,3.585889 C 5.5835633,3.752191 5.6155443,3.892908 5.807431,4.00804 C 5.8969783,3.6498513 6.0312993,3.333238 6.210394,3.0582 C 6.3894887,2.783162 6.696508,2.456954 7.131452,2.079576 C 7.566396,1.702198 8.0173307,1.3568013 8.484256,1.043386 C 8.9511807,0.72997067 9.3093697,0.44853633 9.558823,0.199083 C 9.8082757,-0.050370333 10.144078,-0.066361 10.56623,0.151111 z M 8.839247,9.112236 L 9.318964,9.112236 C 9.318964,8.523782 9.2550017,8.0248757 9.127077,7.615517 C 8.9991523,7.2061577 8.6665483,6.9503083 8.129265,6.847969 C 8.640963,7.1677803 8.8776237,7.922536 8.839247,9.112236 z "
       style="fill:#000000;stroke:none" />
    <path
       id="path1317"
       d="M -2.5022149,5.597098 L -4.524405,9.6633378 L -3.5573586,10.12295 L -2.5022149,5.597098 z M -2.4744647,4.6429775 L 1.1404664,10.781832 L 0.73966637,11.008494 L -2.2017906,6.0069546 L -3.4075467,11.251804 L -3.753932,11.103317 L -3.6406539,10.630884 L -3.8713616,10.523211 L -4.0304413,10.976625 L -4.3372856,10.861899 L -4.1683371,10.387413 L -4.3567583,10.283381 L -4.5600512,10.73552 L -4.8412736,10.625329 L -4.6436437,10.164706 L -4.8084123,10.082681 L -4.9986498,10.462752 L -5.3873797,10.322326 L -2.4744647,4.6429775 z "
       style="fill:#000000;stroke:none"
       sodipodi:nodetypes="ccccccccccccccccccccccc" />
  </g>
</svg>
