<?xml version="1.0" encoding ="US-ASCII" standalone="yes"?>
<svg width="13.233125" height="17.972717">
<path style="fill:#000000; stroke:none" d=" M 8.92123 1.385822  Q 8.813803 1.407308 9.716198 1.600678  Q 10.446709 1.751078 10.532652 2.223761  Q 10.768993 2.008905 11.220191 2.041133  Q 11.67139 2.073362 11.67139 2.503074  Q 11.67139 2.932786 11.284648 3.577355  Q 11.478019 4.716093 11.993673 4.716093  Q 12.573785 4.716093 12.767156 2.610502  Q 12.767156 1.192452 11.864759 0.816453  Q 10.962364 0.440455 10.167396 0.440455  Q 9.372428 0.440455 8.92123 1.385822  Z  M 10.790479 3.383984  Q 11.263163 2.846844 11.209449 2.59976  Q 11.155734 2.352675 10.98385 2.503074  Q 10.768993 2.696445 10.532652 2.696445  Q 10.296309 2.696445 9.995511 2.051876  Q 9.093115 1.815534 8.663403 1.751078  L 7.911407 3.0617  Q 8.169234 3.383984 8.147748 3.512898  Q 8.792316 3.577355 8.792316 3.74924  Q 8.792316 3.835182 8.169234 3.899639  L 8.362604 4.243409  Q 8.341119 4.63015 9.028659 4.340094  Q 9.716198 4.050038 10.059968 4.673121  Q 10.167396 5.167291 9.931054 5.897801  Q 10.683051 6.284543 11.757332 5.833344  Q 11.091277 5.145805 10.790479 3.383984  Z  M 12.036645 6.306028  Q 10.683051 6.907625 9.780655 6.456428  Q 9.565799 7.058025 9.232772 8.852074  Q 8.899745 10.646122 8.598947 13.052511  Q 8.405576 13.933421 7.761007 13.503709  L 6.923068 12.4724  L 4.753021 9.206586  Q 3.893596 8.712417 3.743197 9.657784  L 5.354618 14.513534  Q 5.93473 15.867127 5.85953 16.41501  Q 5.78433 16.962893 5.547989 17.199236  L 11.907731 17.199236  Q 11.091277 16.382782 11.435047 15.093645  Q 11.778817 13.804508 12.05813 11.441091  Q 12.337443 9.077673 12.305215 7.895964  Q 12.272986 6.714255 12.036645 6.306028  Z  M 8.53449 2.331189  Q 8.620432 2.094847 8.878259 2.10559  Q 9.136086 2.116333 9.780655 2.395646  Q 9.265 2.546046 8.910487 2.578274  Q 8.555975 2.610502 8.53449 2.331189  Z  M 3.420913 8.690931  Q 4.258852 8.476075 4.086967 8.261219  Q 3.915082 8.046363 3.388685 8.089334  Q 2.862287 8.132305 3.420913 8.690931  Z  M 8.92123 4.952435  L 7.997349 7.058025  Q 7.610608 7.573679 7.331295 7.219167  Q 7.051982 6.864654 7.610608 6.692769  L 8.126263 4.952435  Q 8.018834 4.866492 7.997349 4.522722  Q 7.975863 4.178952 7.761007 3.942611  L 7.69655 3.792211  L 7.761007 3.663297  Q 7.761007 3.383984 7.460208 3.276556  Q 7.374266 3.169128 7.374266 3.0617  Q 7.524665 2.760902 7.932892 2.159304  Q 8.212205 1.751078 8.684889 0.827196  Q 9.157572 -0.096685 10.446709 0.010743  Q 12.487843 0.225599 12.906812 1.063538  Q 13.325782 1.901477 13.207611 3.308785  Q 13.089439 4.716093 12.144073 5.403632  Q 13.024982 6.456428 12.788641 9.099158  Q 12.487843 13.503709 12.090359 14.760618  Q 11.692875 16.017527 12.810126 17.37112  Q 13.239839 17.75786 12.810126 17.972717  L 4.280337 17.972717  Q 4.001024 17.650433 4.570393 17.317406  Q 5.139762 16.984379 5.204219 16.49021  Q 5.268676 16.060497 3.098629 9.550356  L 3.098629 9.550356  Q 3.034172 9.142129 2.045833 8.239734  L 2.497031 7.938935  L 0.0047 4.995406  Q -0.059757 4.350837 0.606297 4.501236  L 3.1416 7.466251  L 3.872111 3.74924  Q 4.344794 3.341013 4.645593 3.856668  L 3.893596 7.638136  Q 4.667078 7.745564 5.139762 8.712417  L 5.161248 8.712417  L 7.975863 12.837655  Q 8.878259 6.864654 9.544313 5.468089  L 9.522827 5.468089  Q 9.651741 5.059863 9.458371 4.716093  L 8.92123 4.952435  Z "/></svg>
