<?xml version="1.0" encoding ="US-ASCII" standalone="yes"?>
<svg width="18.426874" height="5.04">
<path style="fill:#000000; stroke:none" d=" M 4.342765 3.446323  Q 4.263083 2.908458 4.681423 2.868616  Q 7.032093 1.992094 10.299129 2.539921  Q 13.566165 3.087746 14.771379 3.16743  Q 15.976596 3.247114 16.753511 3.087746  Q 17.490587 2.510039 17.889006 1.593675  L 17.889006 3.565849  Q 17.829243 3.884584 17.012484 3.60569  Q 16.892958 3.58577 13.765375 3.625611  Q 10.996364 3.565849 9.661659 3.784979  Q 8.765214 4.123635 7.669563 3.685374  Q 6.31494 3.864663 4.741186 3.784979  Q 4.422449 3.804899 4.342765 3.446323  Z  M 1.533913 1.972173  Q 1.374545 2.031936 1.384506 2.191303  Q 1.394466 2.350671 1.573755 2.749091  Q 1.653439 2.430356 1.68332 2.211225  Q 1.713201 1.992094 1.533913 1.972173  Z  M 3.725216 3.784979  Q 3.047905 3.366639 2.171383 3.366639  Q 1.852647 3.645532 1.69328 3.615651  Q 1.533913 3.58577 1.633518 3.466244  Q 1.733122 3.366639 1.733122 3.207273  Q 1.733122 3.067826 1.354624 2.868616  Q 1.215178 2.310829 1.155415 2.051857  L 1.972173 1.593675  Q 2.031936 1.772964 2.231146 1.812805  Q 2.410434 1.772964 2.629565 1.872568  Q 2.888537 1.89249 2.72917 2.300869  Q 2.569803 2.709249 2.908458 3.027984  Q 3.326798 3.067826 3.645532 3.067826  Q 3.545927 3.16743 3.545927 3.336758  Q 3.545927 3.506086 3.725216 3.784979  Z  M 4.004109 2.609644  L 3.127589 2.669407  Q 2.988142 2.390513 3.127589 2.310829  L 4.422449 1.733122  Q 4.741186 1.494071 4.522054 1.284901  Q 4.302923 1.075731 4.203318 1.414387  L 3.127589 1.733122  Q 3.067826 1.494071 2.93834 1.47415  Q 2.808853 1.454229 2.33075 1.394466  Q 2.171383 1.354624 2.091699 1.175336  Q 2.051857 1.115573 1.972173 1.115573  Q 1.792885 1.195257 1.414387 1.454229  Q 1.05581 1.733122 0.517945 1.962213  Q -0.019921 2.191303 0 3.087746  Q 0.179289 4.502133 0.607589 4.741186  Q 1.035889 4.980237 1.573755 5.010119  Q 2.11162 5.04 3.366639 5.04  L 6.713359 5.04  L 6.713359 4.362688  L 7.669563 4.203318  Q 8.765214 4.681423 9.860868 4.322845  Q 10.08 4.123635 11.215492 4.123635  L 16.992567 4.123635  Q 18.128061 4.541975 18.426874 4.063873  L 18.426874 0  Q 17.968693 0 17.80932 0.737075  Q 17.072247 2.370593 16.195726 2.669407  Q 15.49849 2.72917 13.496439 2.440316  Q 11.494386 2.151462 9.263237 1.822766  Q 7.032093 1.494071 4.761107 2.251066  Q 4.482212 2.251066 4.004109 2.609644  L 4.004109 2.609644  Z  M 3.745137 4.302923  L 6.155573 4.302923  L 6.155573 4.621659  L 3.446323 4.621659  Q 2.669407 4.621659 1.69328 4.601737  Q 0.816759 4.561896 0.587668 4.01407  Q 0.358577 3.466244 0.368538 2.978182  Q 0.378498 2.490119 0.856601 2.251066  Q 0.876521 2.191303 0.996047 2.749091  Q 1.095652 3.187351 1.374545 3.227193  Q 1.235099 3.386561 1.25502 3.655493  Q 1.27494 3.924425 1.573755 3.984188  Q 1.89249 4.004109 2.270988 3.745137  Q 3.067826 3.765058 3.745137 4.302923  Z "/></svg>
