<?xml version="1.0" encoding ="US-ASCII" standalone="yes"?>
<svg width="18.474035" height="12.96">
<path style="fill:#000000; stroke:none" d=" M 4.507826 2.958261  Q 4.447453 2.435031 4.849938 2.394782  Q 7.103851 1.549565 10.24323 2.183479  Q 13.382608 2.817391 14.53975 2.887826  Q 15.696895 2.958261 16.421366 2.817391  Q 16.924471 2.253913 17.427576 1.126956  Q 17.528198 0.784845 17.548323 1.328199  L 17.548323 3.159503  Q 17.467829 3.582112 17.015034 3.441242  Q 16.562235 3.300373 13.563726 3.340621  Q 10.90733 3.260124 9.639503 3.280248  Q 8.774161 3.582112 7.707577 3.179627  Q 6.399503 3.340621 4.91031 3.260124  Q 4.588323 3.300373 4.507826 2.958261  Z  M 1.831305 1.549565  Q 1.67031 1.589814 1.680373 1.740745  Q 1.690435 1.891677 1.851429 2.274037  Q 1.931926 1.972174 1.962112 1.76087  Q 1.992298 1.549565 1.831305 1.549565  Z  M 3.924224 3.280248  Q 3.280248 2.877764 2.435031 2.877764  Q 2.113044 3.159503 1.972174 3.129317  Q 1.831305 3.09913 1.911801 2.978385  Q 2.032547 2.85764 2.032547 2.71677  Q 2.032547 2.5759 1.650186 2.394782  Q 1.509317 1.871553 1.469068 1.609938  L 2.233788 1.167205  Q 2.314286 1.328199 2.495404 1.388571  Q 2.676522 1.328199 2.877764 1.42882  Q 3.119254 1.448944 2.968323 1.841367  Q 2.817391 2.233788 3.159503 2.535652  Q 3.541863 2.596025 3.863851 2.5759  Q 3.743105 2.676522 3.743105 2.837516  Q 3.743105 2.998509 3.924224 3.280248  Z  M 6.258633 3.964472  L 1.267826 3.964472  L 0.925714 3.501615  Q 0.704348 2.978385 0.704348 2.505466  Q 0.704348 2.032547 1.167205 1.81118  Q 1.187329 1.750808 1.308074 2.274037  Q 1.388571 2.696646 1.67031 2.736895  Q 1.549565 2.897888 1.559627 3.159503  Q 1.569689 3.421118 1.851429 3.461367  Q 2.173416 3.481491 2.535652 3.24  Q 3.300373 3.260124 3.944348 3.702857  L 6.258633 3.702857  L 6.258633 3.964472  Z  M 17.286707 4.447453  L 17.286707 6.278758  L 17.045218 7.949069  Q 17.045218 8.452174 17.950808 9.780373  Q 17.487947 11.309814 17.487947 11.973913  L 16.723228 11.973913  Q 17.467829 11.309814 17.467829 10.605467  Q 17.467829 9.619379 16.904348 8.653418  Q 16.199999 7.928944 16.05913 7.566707  Q 15.797516 5.8159 15.596273 5.353044  Q 15.49565 4.80969 14.710808 4.829813  L 4.085217 4.829813  Q 3.662609 4.829813 3.561987 5.031056  Q 3.159503 6.399503 3.159503 7.848447  Q 3.199752 8.512547 3.340621 9.357764  Q 3.159503 9.559006 2.777143 9.538883  Q 1.328199 9.538883 1.328199 11.450682  L 1.328199 11.973913  L 0.664099 11.973913  L 0.664099 11.933665  Q 0.664099 11.752546 0.76472 11.611676  Q 1.267826 11.007949 1.267826 10.625591  L 1.267826 10.041987  Q 1.267826 9.820621 2.636273 8.452174  L 1.95205 4.467577  L 16.039007 4.467577  L 17.286707 4.467577  L 17.286707 4.447453  Z  M 6.822112 3.662609  L 7.707577 3.662609  Q 8.774161 4.14559 9.800498 3.803478  Q 10.706087 3.702857 15.395031 3.803478  Q 16.823851 3.863851 17.39739 3.934285  Q 17.97093 4.00472 18.031303 3.159503  L 18.031303 0  Q 17.387331 0 17.246458 0.563478  Q 16.521988 2.113044 15.898137 2.414907  Q 15.234036 2.475279 13.312174 2.19354  Q 11.390311 1.911801 9.24708 1.499255  Q 7.103851 1.086708 4.91031 1.81118  Q 4.648695 1.81118 4.185838 2.153292  L 4.205963 2.153292  L 3.360745 2.213665  Q 3.24 1.95205 3.360745 1.851429  L 4.588323 1.308074  Q 4.91031 1.086708 4.699006 0.875404  Q 4.487702 0.664099 4.387081 1.006211  L 3.360745 1.308074  Q 3.300373 1.086708 3.179627 1.066584  Q 3.058882 1.04646 2.596025 0.965963  Q 2.435031 0.945838 2.374658 0.76472  Q 2.314286 0.704348 2.233788 0.704348  Q 2.072795 0.784845 1.710559 1.04646  Q 1.368447 1.308074 0.845217 1.529441  Q 0.321988 1.750808 0.342112 2.596025  Q 0.442733 3.944348 1.167205 4.326709  L 1.28795 5.111553  L 2.113044 8.271055  L 2.113044 8.311303  L 0.76472 9.820621  L 0.76472 10.76646  Q 0 11.732422 0 12.537392  L 0.442733 12.537392  L 0.442733 12.96  L 1.267826 12.96  Q 1.328199 12.617888 1.569689 12.436769  Q 1.851429 12.436769 1.851429 12.316025  L 1.851429 11.269566  Q 1.851429 10.404223 2.274037 10.14261  Q 3.863851 9.981616 3.863851 9.478509  Q 3.722981 8.653418 3.722981 7.526459  Q 3.722981 5.312796 4.28646 5.312796  L 14.851677 5.312796  Q 15.234036 5.312796 15.49565 7.848447  Q 16.904348 9.438261 16.904348 10.343851  Q 16.904348 11.088447 16.642733 11.088447  Q 15.837764 11.712297 15.918261 12.456894  L 16.54211 12.456894  L 16.54211 12.91975  L 17.669067 12.91975  L 17.669067 12.436769  L 18.031303 12.436769  Q 18.192297 12.436769 18.232544 12.2959  Q 18.192297 11.712297 18.031303 11.309814  Q 18.031303 11.108571 18.474035 9.67975  Q 17.669067 8.472299 17.568449 7.989317  Q 17.809938 6.962981 17.890434 6.117764  L 17.910559 3.944348  L 6.822112 3.944348  L 6.822112 3.662609  Z "/></svg>
