<?xml version="1.0" encoding="UTF-8" standalone="no"?>
<svg
   xmlns:dc="http://purl.org/dc/elements/1.1/"
   xmlns:cc="http://web.resource.org/cc/"
   xmlns:rdf="http://www.w3.org/1999/02/22-rdf-syntax-ns#"
   xmlns:svg="http://www.w3.org/2000/svg"
   xmlns="http://www.w3.org/2000/svg"
   xmlns:sodipodi="http://sodipodi.sourceforge.net/DTD/sodipodi-0.dtd"
   xmlns:inkscape="http://www.inkscape.org/namespaces/inkscape"
   width="13.555898"
   height="17.983217"
   id="svg2250"
   sodipodi:version="0.32"
   inkscape:version="0.45"
   sodipodi:docname="A57D.svg"
   inkscape:output_extension="org.inkscape.output.svg.inkscape"
   sodipodi:docbase="C:\Program Files\JSesh\fontsST"
   sodipodi:modified="true">
  <metadata
     id="metadata2257">
    <rdf:RDF>
      <cc:Work
         rdf:about="">
        <dc:format>image/svg+xml</dc:format>
        <dc:type
           rdf:resource="http://purl.org/dc/dcmitype/StillImage" />
      </cc:Work>
    </rdf:RDF>
  </metadata>
  <defs
     id="defs2255" />
  <sodipodi:namedview
     inkscape:window-height="480"
     inkscape:window-width="640"
     inkscape:pageshadow="2"
     inkscape:pageopacity="0.0"
     guidetolerance="10.0"
     gridtolerance="10.0"
     objecttolerance="10.0"
     borderopacity="1.0"
     bordercolor="#666666"
     pagecolor="#ffffff"
     id="base" />
  <path
     style="fill:#000000; stroke:none"
     d="M 2.399073,5.925385 C 3.1392797,6.2716103 3.610863,6.2716103 3.813823,5.925385 L 2.399073,5.925385 z M 4.798775,5.925385 C 5.5389817,6.2596717 6.010565,6.2596717 6.213525,5.925385 L 4.798775,5.925385 z M 4.24362,5.925385 L 4.24362,5.925385 C 4.1122927,5.9970177 4.0257363,6.0537267 3.983951,6.095512 C 3.942165,6.137298 3.9272413,6.191023 3.93918,6.256687 C 3.9511187,6.3223503 3.9332107,6.4089067 3.885456,6.516356 C 4.8166833,7.447584 5.3957157,8.0445247 5.622553,8.307178 C 5.8732683,8.2236067 6.1538307,8.1161573 6.46424,7.98483 L 5.497196,6.570081 C 5.3061747,6.5103863 5.133062,6.4297993 4.977858,6.32832 C 4.8226527,6.22684 4.6405853,6.155207 4.431656,6.113421 C 4.2227267,6.071635 4.160048,6.0089563 4.24362,5.925385 z M 8.416237,5.334413 L 8.416237,5.155331 L 8.559503,5.029973 C 8.7266463,4.9344623 8.9296063,4.9822177 9.168383,5.173239 L 9.383281,5.173239 L 9.383281,5.316505 L 9.132565,5.316505 C 8.8937897,5.4120157 8.6788913,5.406046 8.48787,5.298596 L 8.416237,5.334413 z M 8.559503,5.209055 C 8.5953197,5.232933 8.6430747,5.2508413 8.702768,5.26278 C 8.666952,5.2269633 8.666952,5.1732387 8.702768,5.101606 C 8.6191967,5.1374227 8.5714417,5.173239 8.559503,5.209055 z M 8.828126,5.280688 C 8.911698,5.280688 8.9952697,5.2747187 9.078841,5.26278 L 8.863942,5.119514 C 8.9116973,5.1911473 8.8997587,5.244872 8.828126,5.280688 z M 8.18343,5.800027 C 8.1595527,5.776149 8.1535833,5.755256 8.165522,5.737348 C 8.1774607,5.71944 8.195369,5.710486 8.219247,5.710486 C 8.2431243,5.710486 8.2699863,5.731379 8.299833,5.773165 C 8.3296803,5.8149503 8.356543,5.8298737 8.380421,5.817935 C 8.4042983,5.8059963 8.416237,5.7851033 8.416237,5.755256 C 8.416237,5.7254093 8.425191,5.707501 8.443099,5.701531 C 8.461007,5.6955617 8.4729457,5.7194397 8.478915,5.773165 C 8.484885,5.8268897 8.4610077,5.8656907 8.407283,5.889568 C 8.3535577,5.913446 8.308787,5.8955377 8.272971,5.835843 C 8.237155,5.776149 8.207308,5.7642103 8.18343,5.800027 z M 8.48787,6.140283 L 8.219247,6.1761 C 8.195369,6.1880387 8.1864147,6.202962 8.192384,6.22087 C 8.1983533,6.2387787 8.2192463,6.2417637 8.255063,6.229825 C 8.290879,6.229825 8.3356497,6.217886 8.389375,6.194008 C 8.443099,6.17013 8.4759307,6.1522217 8.48787,6.140283 z M 8.523686,6.086558 C 8.5356253,6.0746193 8.5027937,6.06865 8.425191,6.06865 C 8.3475883,6.06865 8.290879,6.0626807 8.255063,6.050742 C 8.2073077,6.026864 8.1774607,6.026864 8.165522,6.050742 C 8.1535833,6.0746193 8.1595527,6.0925277 8.18343,6.104467 L 8.523686,6.086558 z M 10.2966,13.124492 C 9.556394,13.315513 8.7564933,13.637861 7.896898,14.091536 C 7.0373033,14.545211 6.4612557,14.918299 6.168755,15.2108 C 5.8762537,15.503301 5.5330123,16.127104 5.139031,17.082211 C 5.831483,16.461392 6.670185,16.097257 7.655137,15.989808 C 8.640089,15.882358 9.49073,15.619704 10.20706,15.201846 C 10.457775,14.772049 10.481653,14.187046 10.278692,13.446839 L 10.2966,13.124492 z M 8.469961,13.357299 C 9.186291,13.03495 9.80114,12.814082 10.314508,12.694695 C 10.386141,11.990304 10.496576,11.351577 10.645811,10.778514 C 10.795046,10.205451 10.929358,9.5846323 11.048746,8.916059 C 10.60701,9.0473857 9.568333,9.1966207 7.932715,9.363764 C 7.9446537,9.6502953 8.043149,10.196496 8.228201,11.002367 C 8.4132523,11.808237 8.493839,12.593214 8.469961,13.357299 z M 7.592458,13.894546 C 6.100106,12.044029 5.222603,11.154587 4.959949,11.226219 L 4.959949,15.649551 C 5.6524003,14.945161 6.5299033,14.360159 7.592458,13.894546 z M 1.41412,5.26278 L 1.41412,5.692577 L 3.778006,5.692577 L 3.778006,5.26278 L 1.41412,5.26278 z M 4.494335,5.26278 L 4.494335,5.692577 L 6.87613,5.692577 L 6.87613,5.26278 L 4.494335,5.26278 z M 4.368978,5.029973 L 4.601785,4.546451 L 3.688465,4.546451 L 3.921272,5.029973 L 4.368978,5.029973 z M 4.54806,4.349461 C 4.5003047,4.1106843 4.374947,3.889816 4.171987,3.686856 L 4.100354,3.686856 C 3.897394,3.889816 3.7720367,4.1106843 3.724282,4.349461 L 4.54806,4.349461 z M 12.159057,0.409651 C 12.015791,0.37383433 11.872525,0.478299 11.729259,0.723045 C 11.585993,0.96779033 11.442727,1.1468723 11.299461,1.260291 C 11.156195,1.3737103 10.866679,1.5826397 10.430912,1.887079 C 9.9951453,2.191519 9.6220573,2.678026 9.311648,3.3466 L 10.654765,3.3466 C 10.90548,3.3346613 11.120379,3.164533 11.299461,2.836215 C 11.478544,2.5078977 11.577039,2.233305 11.594947,2.012437 C 11.612855,1.791569 11.642702,1.6035327 11.684488,1.448328 C 11.726274,1.2931233 11.851632,1.0961327 12.060561,0.857356 C 12.26949,0.61858 12.302322,0.469345 12.159057,0.409651 z M 13.090284,0.32011 L 11.782984,2.880986 C 11.568085,3.4540493 11.20395,3.740581 10.690581,3.740581 L 8.613228,3.740581 C 8.6609827,3.8957857 8.6788907,4.1465007 8.666952,4.492726 C 9.072872,4.5285427 9.437006,4.6419617 9.759354,4.832983 C 10.081702,4.6777783 10.305555,4.6956863 10.430912,4.886707 C 10.55627,5.0777283 10.529408,5.2926273 10.350326,5.531404 C 10.171243,5.77018 10.081702,5.961201 10.081702,6.104467 L 10.40405,6.229825 L 13.251458,0.355926 L 13.090284,0.32011 z M 8.559503,4.850891 C 8.3684817,5.089667 8.1953687,5.382168 8.040164,5.728394 C 8.1953687,5.8000267 8.2670017,5.8835983 8.255063,5.979109 C 8.4102677,5.979109 8.517717,6.008956 8.577411,6.06865 C 8.637105,6.128344 8.5654723,6.2059463 8.362513,6.301457 C 8.3028183,6.587989 8.4341453,6.6984233 8.756494,6.63276 C 9.0788413,6.567096 9.240015,6.958092 9.240015,7.805748 L 9.240015,7.805748 C 8.738585,7.805748 8.1774607,7.877381 7.556642,8.020647 L 7.896898,8.432536 L 10.171243,7.895289 C 10.493591,7.8236563 10.577163,7.6326353 10.421958,7.322226 C 10.266754,7.0118167 10.201091,6.7193157 10.224968,6.444723 L 9.741446,6.211916 C 9.741446,5.9970173 9.8339717,5.779134 10.019023,5.558266 C 10.204074,5.337398 10.239891,5.1821933 10.126472,5.092652 C 10.013054,5.0031107 9.872773,5.05982 9.705629,5.26278 C 9.3952197,4.9881873 9.0131777,4.850891 8.559503,4.850891 z M 8.290879,4.850891 C 8.3266957,4.2897663 8.2610323,3.788336 8.093889,3.3466 L 8.810218,3.3466 C 8.9893,3.0361907 9.096749,2.8332307 9.132565,2.73772 C 8.5953183,2.4273107 8.198353,2.1467487 7.941669,1.896034 C 7.6849843,1.6453187 7.586489,1.3796797 7.646183,1.099117 C 7.705877,0.818555 7.82825,0.636488 8.013302,0.552916 C 8.1983533,0.46934467 8.404298,0.436513 8.631136,0.454421 C 8.8579733,0.47232967 9.0251163,0.62454967 9.132565,0.911081 C 9.144505,1.1856737 9.0818267,1.3587867 8.94453,1.43042 C 8.8072333,1.5020527 8.6609827,1.528915 8.505778,1.511007 C 8.3505733,1.4930983 8.2849097,1.4184807 8.308787,1.287154 C 8.3207257,1.2393987 8.3953433,1.2185057 8.53264,1.224475 C 8.6699367,1.2304443 8.7475393,1.1707503 8.765448,1.045393 C 8.783356,0.920035 8.7236617,0.83347833 8.586365,0.785723 C 8.449069,0.73796833 8.317742,0.76781567 8.192384,0.875265 C 8.0670267,0.98271433 8.013302,1.1110563 8.03121,1.260291 C 8.049118,1.4095263 8.162537,1.5886087 8.371467,1.797538 C 8.5803957,2.0064673 8.9236367,2.212412 9.40119,2.415372 C 9.7115987,1.9975133 10.066778,1.6841193 10.466729,1.47519 C 10.866679,1.2662607 11.20992,0.970775 11.496451,0.588733 C 11.61584,0.29026233 11.747167,0.10819533 11.890433,0.042532 C 12.033698,-0.023131333 12.179949,-0.014177333 12.329185,0.069394 C 12.47842,0.152966 12.5799,0.26041533 12.633624,0.391742 C 12.687349,0.52306933 12.627655,0.68424367 12.454542,0.875265 C 12.281429,1.0662857 12.153087,1.2274597 12.069515,1.358787 C 11.985944,1.4901137 11.944158,1.657257 11.944158,1.860217 L 12.982835,0.01567 L 13.555898,0.21266 L 10.833847,6.211916 C 11.180781,6.3550185 12.321377,6.9881025 12.643752,8.969783 L 11.675534,8.969783 C 11.675344,7.5376693 11.203897,7.041882 10.618949,6.623806 C 10.583132,6.98197 10.765199,7.313272 11.16515,7.617712 C 11.565101,7.9221513 11.594948,8.6683273 11.254691,9.85624 C 10.914435,11.044152 10.720429,12.22908 10.672673,13.411023 C 10.863694,14.222862 10.851756,14.807864 10.636857,15.166029 C 10.875634,15.177968 10.986068,15.31228 10.968159,15.568964 C 10.950251,15.825649 10.878618,16.264401 10.753261,16.88522 C 10.627903,17.506037 10.436882,17.840324 10.180197,17.888081 C 9.923513,17.935836 9.6757827,17.947774 9.437006,17.923897 C 9.3414953,17.780631 9.4728223,17.643334 9.830987,17.512007 C 10.057824,17.034454 10.057824,16.652412 9.830987,16.365881 C 9.687721,16.365881 8.8639427,16.700168 7.359652,17.368742 C 5.55689,17.941805 4.5182127,18.114918 4.24362,17.888081 L 3.795914,17.082211 C 3.7481593,16.700168 3.9929053,16.300217 4.530152,15.882359 L 4.54806,12.53352 C 4.571938,13.23791 4.3271923,14.35419 3.813823,15.882359 C 3.610863,16.586749 3.5631077,17.076241 3.670557,17.350834 C 3.7780063,17.625426 3.7541287,17.828386 3.598924,17.959713 L 0.321718,17.959713 C -0.15583467,17.58961 -0.10210967,17.416497 0.482893,17.440374 C 1.103711,17.273231 1.587233,17.159812 1.933459,17.100119 C 2.2796843,17.040424 2.5124913,16.76583 2.63188,16.276339 C 2.894534,14.258679 3.1810657,12.551428 3.491475,11.154587 C 3.8018837,10.796422 4.249589,10.605401 4.834591,10.581523 C 5.3121437,10.677034 6.380668,11.685865 8.040164,13.608014 C 8.1356747,12.700663 8.061057,11.838084 7.816311,11.020275 C 7.5715657,10.202466 7.449193,9.6144787 7.449193,9.256314 L 7.180569,8.916059 C 6.7030163,9.0593243 6.1598,9.178712 5.55092,9.274222 C 5.04949,8.9279973 4.3451,8.0982497 3.43775,6.784979 C 3.3064227,6.6536523 3.1691263,6.5730653 3.025861,6.543218 C 2.882595,6.5133713 2.7333597,6.4447233 2.578155,6.337274 C 2.4229503,6.2298247 2.2408833,6.155207 2.031954,6.113421 C 1.8230247,6.071635 1.760346,6.0089563 1.843918,5.925385 L 0.787332,5.925385 L 0.787332,5.029973 L 3.616832,5.029973 L 3.348209,4.492726 C 3.5631077,3.8122133 3.789945,3.471957 4.028721,3.471957 L 4.24362,3.471957 C 4.4823967,3.471957 4.7092343,3.8122133 4.924133,4.492726 L 4.655509,5.029973 L 7.485009,5.029973 L 7.485009,5.925385 L 6.661231,5.925385 C 6.5299037,5.9970177 6.4403623,6.0537267 6.392607,6.095512 C 6.3448517,6.137298 6.31202,6.2029617 6.294112,6.292503 C 6.276204,6.3820443 6.2194947,6.4745703 6.123984,6.570081 C 6.386638,6.8207957 6.780619,7.208807 7.305927,7.734115 C 7.9745003,7.5789103 8.4819,7.501308 8.828126,7.501308 L 8.828126,6.838704 C 8.625166,6.838704 8.523686,6.838704 8.523686,6.838704 L 8.201338,7.322226 C 7.8909287,7.668452 7.5805197,7.7221767 7.270111,7.4834 C 7.305927,7.3162567 7.3894983,7.2505933 7.520825,7.28641 C 7.6521523,7.322226 7.789449,7.2744707 7.932715,7.143144 L 8.147614,6.587989 C 8.147614,6.4327843 8.1177667,6.3402583 8.058072,6.310411 C 7.998378,6.2805643 7.9924087,6.244748 8.040164,6.202962 C 8.0879193,6.161176 8.099858,6.1462523 8.07598,6.158191 C 8.0282253,6.1462523 7.9953937,6.11939 7.977485,6.077604 C 7.959577,6.035818 7.98047,6.0029863 8.040164,5.979109 C 8.0043473,5.9313537 7.9446533,5.889568 7.861082,5.853752 C 7.77751,5.8179353 7.77751,5.710486 7.861082,5.531404 C 8.040164,5.244872 8.1834297,5.0180343 8.290879,4.850891 L 8.290879,4.850891 z "
     id="path2252"
     sodipodi:nodetypes="ccccccccssccccsscccccccccccssccccccssssssssscccsssccssscccsscscccccsccsccccccccccccccccccccccccccsssccsssscccccccsscccccccscscccccsccssccccccsssscssssssssscscssssscccccccssccssscccccccccscccsccccsccccsssccccccccccccsscccccccsccssssssscc" />
</svg>
