<?xml version="1.0" encoding="UTF-8" standalone="no"?>
<svg
   xmlns:dc="http://purl.org/dc/elements/1.1/"
   xmlns:cc="http://creativecommons.org/ns#"
   xmlns:rdf="http://www.w3.org/1999/02/22-rdf-syntax-ns#"
   xmlns:svg="http://www.w3.org/2000/svg"
   xmlns="http://www.w3.org/2000/svg"
   xmlns:sodipodi="http://sodipodi.sourceforge.net/DTD/sodipodi-0.dtd"
   xmlns:inkscape="http://www.inkscape.org/namespaces/inkscape"
   width="1800"
   height="1800"
   id="svg2277"
   sodipodi:version="0.32"
   inkscape:version="0.46"
   sodipodi:docname="A5B.svg"
   inkscape:output_extension="org.inkscape.output.svg.inkscape"
   sodipodi:docbase="C:\Program Files\JSesh\fontsST"
   version="1.0"
   sodipodi:modified="true">
  <metadata
     id="metadata2284">
    <rdf:RDF>
      <cc:Work
         rdf:about="">
        <dc:format>image/svg+xml</dc:format>
        <dc:type
           rdf:resource="http://purl.org/dc/dcmitype/StillImage" />
      </cc:Work>
    </rdf:RDF>
  </metadata>
  <defs
     id="defs2282">
    <inkscape:perspective
       sodipodi:type="inkscape:persp3d"
       inkscape:vp_x="0 : 10.224381 : 1"
       inkscape:vp_y="0 : 1000 : 0"
       inkscape:vp_z="11.321417 : 10.224381 : 1"
       inkscape:persp3d-origin="5.6607084 : 6.8162543 : 1"
       id="perspective7" />
  </defs>
  <sodipodi:namedview
     inkscape:window-height="701"
     inkscape:window-width="940"
     inkscape:pageshadow="2"
     inkscape:pageopacity="0.0"
     guidetolerance="10.0"
     gridtolerance="10.0"
     objecttolerance="10.0"
     borderopacity="1.0"
     bordercolor="#666666"
     pagecolor="#ffffff"
     id="base"
     showgrid="false"
     inkscape:zoom="0.27666667"
     inkscape:cx="900"
     inkscape:cy="900"
     inkscape:window-x="1280"
     inkscape:window-y="22"
     inkscape:current-layer="svg2277" />
  <path
     style="fill:#000000;stroke:none"
     d="M -0.14790904,-1.2661182e-05 L -0.14790904,619.74284 L 96.256534,619.74284 L 96.256534,936.50023 L 195.41538,936.50023 L 195.41538,192.80888 L 892.28178,192.80888 L 892.28178,90.89561 L 619.59492,90.89561 L 619.59492,-1.2661182e-05 L -0.14790904,-1.2661182e-05 z M 49.431509,49.57942 L 564.50668,49.57942 L 564.50668,145.98386 L 145.83595,145.98386 L 145.83595,567.40899 L 49.431509,567.40899 L 49.431509,49.57942 z M 390.97867,217.59859 C 380.8757,215.35346 371.24047,219.07454 366.18897,228.61624 C 361.13748,238.15799 361.69877,244.0202 366.18897,245.14271 C 377.41451,253.00062 386.43651,264.72504 393.73309,278.19567 C 401.02972,291.66629 404.24146,311.85145 401.99634,338.79275 C 388.52571,320.83185 381.08359,302.1746 379.96102,286.45889 C 378.83847,270.74315 374.04682,263.30103 366.18897,264.4236 C 361.69877,305.95802 375.56437,351.12006 404.75074,399.38982 C 404.75074,434.18896 412.7022,476.19113 429.54046,523.33839 C 396.98644,477.31369 367.72727,439.59384 344.15366,410.40748 C 330.68304,373.3632 321.71303,342.52416 313.85512,319.51186 C 305.99728,296.49953 281.02047,274.22514 239.48598,250.65153 C 228.26043,251.77404 219.69575,258.70688 217.45068,269.93243 C 215.20554,281.15798 217.34674,286.45889 222.9595,286.45889 C 237.55269,289.82655 250.29573,295.07552 261.52129,305.73979 C 272.74683,316.40406 283.96198,335.51865 291.81982,363.58245 C 272.73643,351.23441 259.99338,338.5433 253.25804,322.26627 C 246.52276,305.98922 239.08065,298.49517 231.22275,302.98538 C 240.20316,345.64244 267.83043,387.64459 313.85512,426.93395 C 347.53171,523.47349 387.28879,581.88783 437.8037,603.21636 C 562.40709,651.48613 636.82823,674.83107 658.15671,674.83109 C 671.62739,714.12044 688.09147,758.26382 707.73613,804.28842 C 727.3808,850.31317 736.4028,889.66493 735.28026,919.97377 L 625.10374,1308.346 C 608.26543,1354.3706 604.08707,1396.2688 608.57728,1437.8034 C 581.63603,1523.1175 562.46944,1589.5871 553.48902,1633.3666 C 547.87625,1672.6561 536.76507,1697.6329 517.68166,1707.7359 C 498.59821,1717.8387 461.89698,1733.7417 410.25956,1757.3153 C 383.31826,1764.0506 369.55661,1771.4927 366.18897,1779.3506 C 362.82132,1787.2084 369.19287,1793.5801 385.46985,1798.6314 C 401.74689,1803.6829 424.02124,1800.9805 454.33017,1793.1226 C 484.63911,1785.2646 515.98747,1788.5285 547.98019,1798.6314 C 579.97299,1808.7345 592.66405,1798.0285 589.29638,1771.0873 C 589.29638,1743.0235 611.62275,1689.9622 655.40229,1608.577 C 699.18186,1527.1919 713.04748,1461.2835 693.96407,1413.0136 C 692.84149,1395.0528 698.09048,1377.0607 713.24496,1355.171 C 728.39942,1333.2812 742.82633,1317.3264 751.80673,1308.346 L 845.45677,1308.346 C 848.82447,1324.0618 858.91704,1347.9162 875.7553,1382.7152 C 889.22601,1511.8087 898.80925,1597.8502 903.29943,1641.6299 C 906.66703,1683.1642 900.80486,1712.4235 886.77295,1727.0167 C 872.74098,1741.61 847.30686,1750.0707 806.89498,1754.5608 C 782.19877,1769.1542 769.45572,1781.9491 768.33322,1790.3682 C 767.21065,1798.7874 773.53018,1801.3859 790.36851,1801.3859 C 808.32933,1801.3859 829.02381,1803.0697 853.72,1801.3859 C 878.41617,1799.7019 910.37771,1798.6314 944.61562,1798.6314 C 978.85345,1798.6314 988.89407,1786.3976 977.66857,1762.8241 C 967.56556,1723.5347 971.28671,1661.3993 988.68622,1575.524 C 1006.0857,1489.6487 998.69563,1425.3721 963.8965,1382.7152 L 963.8965,1305.5916 L 947.37004,1096.2562 C 958.59561,1078.2954 964.45779,1050.6162 963.8965,1016.3782 C 963.33522,982.14048 956.96376,955.07442 944.61562,933.74593 C 932.26748,912.41744 925.33472,893.25091 925.33472,878.65769 C 925.33472,852.83889 927.42385,800.28687 933.59797,718.90168 C 939.77199,637.51662 931.31132,588.63355 906.05385,572.91782 C 880.79638,557.20206 871.2651,530.08407 875.7553,493.03986 C 899.32893,481.8143 918.95278,466.42079 936.35239,446.21484 C 953.75197,426.00888 963.8965,399.50419 963.8965,363.58245 C 963.8965,326.53823 946.87116,301.00015 914.31707,289.21331 C 881.7631,277.42654 845.62313,275.89859 806.89498,280.95008 C 768.16692,286.00157 741.10087,314.08623 724.26261,369.09128 C 714.15962,380.31683 703.55779,397.34218 691.20965,418.6707 C 684.47437,432.14132 682.28128,441.21529 688.45525,443.46042 C 694.62929,445.7055 700.49153,448.35595 704.98171,451.72367 C 699.36896,453.96873 698.35034,456.61926 699.4729,459.98689 C 700.59547,463.35459 703.24595,462.74131 707.73613,462.74131 C 708.8587,462.74131 705.59501,465.44378 702.22732,468.25013 C 698.85966,471.05655 700.49153,474.26829 704.98171,476.51338 C 709.47192,478.7585 712.68368,485.13005 713.24496,495.79425 C 713.80625,506.45853 716.4047,511.19818 724.26261,512.32074 C 732.12046,513.4433 746.4954,513.44331 765.5788,512.32074 C 772.31413,529.15906 767.52251,541.9021 751.80673,550.88251 C 727.11056,552.00508 696.83282,563.22026 660.91111,581.18105 C 630.60218,574.44571 586.56272,562.72129 525.9449,548.1281 C 490.0232,499.85835 460.25478,448.8861 437.8037,393.88099 C 437.8037,356.83677 438.36497,325.99775 437.8037,302.98538 C 437.24241,279.97305 421.28755,251.27516 390.97867,217.59859 z M 842.70235,297.47654 C 856.8746,298.31845 872.4084,301.53024 889.52736,305.73979 C 923.76519,314.15898 941.86129,332.15101 941.86121,363.58245 C 941.86121,395.01396 928.5049,421.57068 906.05385,443.46042 C 883.60277,465.35023 868.71854,472.8443 861.98324,462.74131 C 854.12539,452.63833 862.18078,437.19282 881.26413,418.6707 C 900.34759,400.14861 902.38479,383.73647 892.28178,366.33687 C 882.17877,348.93733 861.99364,346.23485 831.6847,360.82805 C 820.45916,350.72506 796.60492,341.14182 757.31555,333.28391 C 766.29598,315.3231 781.6895,305.28245 804.14058,300.23096 C 815.36608,297.70521 828.53011,296.63465 842.70235,297.47654 z M 749.05232,352.5648 C 780.48383,354.80988 805.96992,363.88383 826.17588,377.35451 C 825.0533,389.70258 829.28366,390.77319 839.94794,380.10893 C 850.61219,369.44467 862.33664,364.60108 873.00088,369.09128 C 883.66519,373.58154 883.61318,384.79662 875.7553,399.38982 C 867.89745,413.983 859.99798,425.0942 848.21117,435.19719 C 836.42435,445.30017 833.21259,455.3928 839.94794,465.49571 C 846.68327,475.59875 847.06786,485.18201 849.31294,493.03986 C 845.9453,545.79982 853.33542,576.58692 874.10266,586.68987 C 894.86987,596.79286 902.82135,641.95482 898.89236,721.6561 C 894.96347,801.35735 893.38354,850.18846 893.38354,870.3944 L 772.6301,895.18415 C 773.75265,873.85552 765.98418,840.92733 744.09437,796.02527 C 722.20463,751.12306 707.26842,706.47042 702.77818,663.81343 C 698.28798,621.15637 705.27276,595.10901 719.30467,586.68987 C 733.33656,578.27075 748.42868,575.67222 782.10527,575.67223 L 795.87733,537.11046 C 792.5097,506.80151 778.6961,494.05846 754.56115,498.54867 C 730.42626,503.03888 719.77235,495.59676 724.26261,476.51338 C 738.8558,468.65553 744.71804,461.16143 740.78909,457.23248 C 736.86017,453.3035 729.46998,452.84617 715.99936,451.72367 C 715.99936,447.41304 712.33412,441.34261 707.73613,437.9516 C 705.14977,436.04414 703.51409,434.05924 699.4729,432.44277 C 710.69844,406.62404 721.30028,390.21192 732.52585,380.10893 C 743.75132,374.49615 753.79196,374.49615 765.5788,380.10893 C 777.36562,385.7217 789.03812,390.00402 801.38616,391.12658 L 801.38616,382.86334 C 793.52831,382.86334 785.62886,378.58103 773.84204,371.84569 C 762.05519,365.11035 750.3827,364.60108 738.03468,369.09128 C 742.52487,362.356 745.6847,357.05502 749.05232,352.5648 z M 707.73613,437.9516 C 711.10377,436.82909 715.38614,437.33836 718.75378,440.70602 C 722.12149,444.07365 724.21065,445.14421 727.01701,443.46042 C 727.66466,443.07185 726.51884,441.18425 727.01701,440.70602 C 725.33317,441.26728 721.5602,438.00361 718.75378,435.19719 C 715.94742,432.39083 714.36751,432.44278 713.24496,432.44277 C 710.99983,432.44277 711.05178,431.32022 710.49054,432.44277 C 709.92926,433.56534 707.73613,436.82909 707.73613,437.9516 z M 727.01701,440.70602 C 728.67762,439.11184 732.52584,437.78768 732.52585,435.19719 C 732.52585,431.82949 731.45528,431.8815 729.77143,432.44277 C 728.08759,433.00406 726.45573,432.95206 727.01701,435.19719 C 727.57829,437.44225 728.7008,440.14473 727.01701,440.70602 z M 856.47442,371.84569 C 849.17784,374.09082 840.61317,381.58489 834.43911,391.12658 C 828.26506,400.66828 826.6852,408.67168 828.93028,413.16188 C 822.195,416.52952 819.03522,419.68932 817.91264,424.17953 C 816.79008,428.66974 820.00182,430.19765 826.17588,432.44277 C 832.34992,434.68785 840.86259,430.96681 850.96559,421.42512 C 861.06858,411.88342 866.87885,405.05454 870.24649,396.63541 C 873.61412,388.21627 873.05284,381.84472 870.24649,377.35451 C 867.44006,372.86425 863.77095,369.60056 856.47442,371.84569 z M 757.31555,380.10893 C 749.73832,378.14447 744.20869,379.49567 738.03468,382.86334 L 727.01701,393.88099 L 727.01701,402.14424 L 732.52585,402.14424 C 748.24153,408.87957 764.14438,408.87958 782.10527,402.14424 L 798.63175,404.89865 L 798.63175,396.63541 L 782.10527,393.88099 C 773.12483,386.58441 764.8928,382.0734 757.31555,380.10893 z M 861.98324,382.86334 C 864.36866,383.28431 865.01831,385.28514 864.73766,388.37217 C 864.17637,394.54623 861.52588,401.47906 856.47442,407.65306 C 851.42293,413.82711 847.19254,419.17998 842.70235,421.42512 C 838.21214,423.67018 838.21214,419.33588 842.70235,413.16188 C 847.19256,406.98783 847.19254,405.96927 842.70235,407.65306 C 838.21214,409.33691 834.94845,407.75701 837.19352,402.14424 C 839.43866,396.53147 845.3528,390.10797 850.96559,385.61776 C 856.01707,383.37266 859.59782,382.44238 861.98324,382.86334 z M 746.2979,385.61776 C 744.05278,388.98546 744.05276,394.89961 746.2979,399.38982 C 741.8077,398.26726 740.27979,396.12613 738.03468,393.88099 C 739.15724,391.63593 740.68511,387.86289 746.2979,385.61776 z M 760.06997,388.37217 L 776.59645,396.63541 C 769.86111,398.88048 764.56019,399.38983 760.06997,399.38982 C 764.56018,397.14476 763.43762,393.98494 760.06997,388.37217 z M 828.93028,421.42512 C 833.42055,424.79276 835.0524,427.44323 831.6847,429.68835 C 828.31707,431.93343 824.54403,429.7403 823.42146,426.93395 C 822.29889,424.12753 824.44008,423.67018 828.93028,421.42512 z M 715.99936,454.47806 C 719.92828,455.03935 724.71995,456.10993 729.77143,457.23248 C 734.82292,458.35499 736.4028,459.9869 735.28026,459.98689 L 710.49054,459.98689 C 709.36803,459.98689 709.92927,458.91628 710.49054,457.23248 C 711.05176,455.54863 712.07039,453.9168 715.99936,454.47806 z M 715.99936,462.74131 L 735.28026,462.74131 C 733.03518,463.86389 730.94593,463.81194 727.01701,465.49571 C 723.08804,467.17957 718.2445,468.25013 715.99936,468.25013 C 713.7543,469.3727 711.61312,469.3727 710.49054,468.25013 C 709.36798,467.12756 712.63166,464.98639 715.99936,462.74131 z M 896.13796,906.20175 C 900.62814,923.03992 909.65018,943.22514 923.68208,966.79885 C 937.71407,990.37243 934.5023,1034.5157 915.41884,1096.2562 L 926.43649,1264.2754 L 677.98847,1264.2754 L 775.3845,933.74593 L 896.13796,906.20175 z"
     id="path2279"
     sodipodi:nodetypes="cccccccccccccccccccssscsccccscssscsccccsccccscsssscscscccsscsssscscccssssscsssscssssssssscccccsccssssssccscccssssscssccsssccscssscssccssccssssssccsssccsssssssccccccccccccsssssssccsscccsccssccsccscccsssccsccccc" />
</svg>
