<?xml version="1.0" encoding="UTF-8" standalone="no"?>
<svg
   width="15.44"
   height="17.78"
   version="1.1"
   id="svg4"
   sodipodi:docname="US12A1000EXT.svg"
   inkscape:version="1.1.2 (0a00cf5339, 2022-02-04)"
   xmlns:inkscape="http://www.inkscape.org/namespaces/inkscape"
   xmlns:sodipodi="http://sodipodi.sourceforge.net/DTD/sodipodi-0.dtd"
   xmlns="http://www.w3.org/2000/svg"
   xmlns:svg="http://www.w3.org/2000/svg"
   xmlns:rdf="http://www.w3.org/1999/02/22-rdf-syntax-ns#"
   xmlns:cc="http://creativecommons.org/ns#"
   xmlns:dc="http://purl.org/dc/elements/1.1/">
  <title
     id="title827">US12A1000EXT</title>
  <defs
     id="defs8" />
  <sodipodi:namedview
     id="namedview6"
     pagecolor="#ffffff"
     bordercolor="#666666"
     borderopacity="1.0"
     inkscape:pageshadow="2"
     inkscape:pageopacity="0.0"
     inkscape:pagecheckerboard="0"
     showgrid="false"
     inkscape:zoom="40.438694"
     inkscape:cx="7.7277472"
     inkscape:cy="8.8900003"
     inkscape:window-width="1846"
     inkscape:window-height="1136"
     inkscape:window-x="74"
     inkscape:window-y="27"
     inkscape:window-maximized="1"
     inkscape:current-layer="svg4" />
  <path
     style="fill:#000000; stroke:none"
     d=" M 2.28 7.73  Q 2.54 7.87 2.62 8.14  Q 2.7 8.42 2.65 8.98  Q 3.12 8.38 3.3 7.78  Q 3.68 8.82 3.49 9.29  Q 3.3 9.76 3.25 10  L 3.72 10.22  Q 4.32 10.36 4.73 10.51  Q 5.14 10.67 5.51 10.7  Q 5.88 10.73 6.37 10.85  Q 6.99 11.11 7.64 11.19  Q 8.3 11.27 9.1 11.1  Q 9.9 10.93 10.46 10.93  Q 11.01 10.93 11.97 11.47  Q 12.26 11.58 13.34 11.59  Q 14.41 11.6 14.76 11.08  Q 15.1 10.56 15.04 10.03  Q 14.97 9.51 14.64 9.53  Q 14.3 9.56 14.21 9.4  Q 14.35 9.13 14.92 9.24  Q 15.5 9.36 15.44 10.41  Q 15.37 11.47 14.51 11.81  Q 13.66 12.16 12.15 11.98  Q 12.28 12.42 12.28 14  Q 12.37 14.58 12.55 15.14  Q 13.01 15.76 13.1 16.49  Q 13.26 16.87 13.32 17.2  L 13.21 17.78  L 12.17 17.78  Q 12.28 17.25 12.68 17.25  Q 12.81 17.18 12.84 17.16  Q 12.84 16.78 12.48 16.18  Q 12.19 15.78 11.55 15.05  Q 11.17 14.56 10.92 14.11  Q 10.12 15.16 10.12 15.56  Q 10.08 16.25 9.95 16.31  Q 9.55 16.71 9.3 17.27  Q 9.21 17.49 9.01 17.65  L 8.17 17.65  L 8.17 17.4  Q 8.3 17.16 8.55 17.16  Q 8.95 16.96 9.48 15.91  Q 9.28 14.2 9.99 12.87  Q 9.75 12.85 8.66 13.51  Q 8.28 13.78 7.79 13.81  Q 7.3 13.85 6.39 13.82  Q 6.5 15.6 6.7 16.47  L 6.68 17.16  Q 6.63 17.45 6.5 17.6  L 5.52 17.6  Q 5.5 17.09 6.1 17.02  L 6.17 16.78  Q 5.86 15.34 5.43 14.14  Q 5.41 14.14 4.92 15.51  Q 4.52 16.65 4.5 16.86  Q 4.48 17.07 4.23 16.98  Q 4.12 17.36 3.77 17.54  L 2.74 17.51  L 2.74 17.49  Q 2.83 16.98 3.48 17  Q 4.08 16.4 4.31 15.35  Q 4.54 14.29 4.43 13.27  Q 4.14 12.71 3.72 12.42  Q 3.7 12.58 3.57 12.87  L 3.57 12.87  L 3.28 12.76  Q 3.45 12.47 3.48 12.09  L 3.25 11.98  Q 2.92 12.31 2.79 12.65  L 2.5 12.51  Q 2.72 11.96 3.01 11.8  L 3.01 11.78  Q 2.45 11.29 1.14 11.29  L 0.57 11.33  Q 0.34 11.33 0.23 11.02  L 0.19 11.02  L 0.01 10.71  Q -0.06 10.56 0.34 10.49  Q 1.03 10.27 1.17 10.09  Q 1.32 9.89 1.57 9.8  Q 1.59 9.2 1.92 8.59  Q 2.25 7.98 2.28 7.73  Z  M 4.52 10.71  L 3.81 11.93  Q 4.34 12.49 4.53 12.78  Q 4.72 13.07 4.87 13.21  Q 5.01 13.36 5.52 13.51  Q 5.97 14.49 6.37 16.82  Q 6.26 17.23 6.21 17.23  Q 5.79 17.29 5.79 17.4  L 6.21 17.38  Q 6.41 17.38 6.43 17.07  L 6.43 16.49  L 5.99 13.47  L 5.94 13.27  L 6.17 13.22  Q 6.28 13.36 6.32 13.54  Q 7.92 13.56 8.17 13.45  Q 8.41 13.34 9.09 12.9  Q 9.77 12.47 10.26 12.49  Q 10.83 12.49 11.11 13.42  Q 11.39 14.36 11.77 14.87  Q 12.77 16.14 12.86 16.49  Q 13.01 16.87 13.01 17.25  Q 12.79 17.45 12.64 17.47  Q 12.48 17.49 12.44 17.58  L 13.08 17.58  L 13.15 17.23  L 12.9 16.42  Q 12.81 16.07 12.5 15.47  Q 12.28 15.22 12.19 14.8  Q 12.01 14.4 11.94 13.17  Q 11.86 11.93 11.36 11.61  Q 10.86 11.29 10.36 11.29  Q 9.86 11.29 8.87 11.48  Q 7.88 11.67 6.9 11.38  Q 6.46 11.16 5.81 11.07  Q 5.17 10.98 4.52 10.71  Z  M 0.34 10.73  L 0.45 10.89  L 0.52 10.89  L 1.23 10.85  L 1.25 10.85  L 1.28 10.93  L 0.54 10.98  Q 0.57 11.07 0.7 11.07  L 1.12 11.05  Q 2.54 11.02 3.14 11.53  L 3.77 10.51  Q 3.61 10.47 3.31 10.35  Q 3.01 10.22 2.94 10.16  Q 2.57 10.29 2.34 10.02  Q 1.63 9.93 1.43 10.22  Q 1.19 10.47 0.74 10.58  Q 0.3 10.69 0.34 10.73  Z  M 10.37 12.89  Q 10.08 13.25 9.89 13.99  Q 9.7 14.74 9.72 15.94  Q 9.06 17.16 8.72 17.34  L 8.59 17.34  Q 8.43 17.34 8.37 17.45  L 8.92 17.45  Q 9.08 17.34 9.23 16.97  Q 9.39 16.6 9.86 16.11  Q 9.9 15.96 9.9 15.27  Q 10.12 14.71 10.83 13.76  Q 10.83 13.36 10.37 12.89  Z  M 3.7 17.2  L 3.41 17.18  Q 3.23 17.18 3.1 17.34  L 3.72 17.34  Q 3.83 17.25 4.08 16.92  Q 4.32 16.6 5.23 13.85  Q 5.1 13.71 4.83 13.65  Q 4.81 14.91 4.42 15.92  Q 4.03 16.94 3.7 17.2  Z  M 2.25 9.71  Q 2.5 8.89 2.37 8.31  Q 1.92 9.13 1.83 9.73  Q 1.97 9.71 2.25 9.71  Z  M 3.28 8.6  Q 3.05 9.04 2.83 9.28  Q 2.61 9.51 2.5 9.76  Q 2.63 10.05 2.85 9.85  Q 3.21 9.38 3.28 8.6  Z  M 4.05 10.6  L 3.43 11.73  L 3.54 11.8  L 4.14 10.65  L 4.05 10.6  Z  M 2.25 10.33  Q 1.68 10.58 1.43 10.38  Q 1.43 10.22 1.64 10.16  Q 1.85 10.09 2.25 10.33  Z  M 1.88 10.31  Q 1.79 10.25 1.59 10.29  L 1.59 10.36  Q 1.7 10.4 1.88 10.31  Z  M 8.17 5  L 7.48 7.56  L 9.57 7.53  Q 9.77 5.18 9.41 4.84  L 8.17 5  Z  M 9.39 4.53  Q 9.39 4.29 9.41 3.89  Q 9.43 3.49 9.7 2.82  Q 10.06 2.2 9.37 2.27  Q 9.15 1.95 9.06 1.67  Q 8.88 1.51 8.88 1.34  Q 8.88 1.18 8.92 1.09  Q 8.9 1.2 8.98 1.21  Q 9.06 1.22 9.06 1.09  Q 9.17 0.95 9.17 0.86  Q 9.17 0.73 9.06 0.73  Q 8.99 0.73 8.92 0.93  Q 8.88 0.93 8.83 0.89  L 8.88 0.84  Q 8.52 0.53 8.17 0.58  Q 8.12 0.64 8.12 0.73  Q 8.28 0.62 8.46 0.71  Q 8.57 0.8 8.66 0.8  L 8.66 0.86  Q 8.52 0.84 8.42 0.79  Q 8.32 0.73 8.21 0.76  Q 8.1 0.8 7.99 0.93  Q 7.88 1.06 7.86 1.2  Q 7.86 1.26 7.97 1.24  Q 8.03 1.26 7.99 1.4  L 8.17 1.42  Q 8.19 1.47 8.17 1.51  L 8.03 1.58  Q 8.01 1.64 8.07 1.7  Q 8.12 1.75 8.39 1.71  Q 8.59 1.73 8.62 2.01  Q 8.66 2.29 8.13 2.32  Q 7.61 2.35 7.74 2.7  Q 7.88 3.04 8.08 3.68  Q 8.28 4.31 8.17 4.69  L 9.39 4.53  Z  M 8.12 0.89  L 8.12 0.86  Q 8.15 0.86 8.19 0.83  Q 8.23 0.8 8.32 0.82  Q 8.41 0.82 8.52 0.89  L 8.63 0.89  L 8.63 0.98  L 8.52 0.95  Q 8.28 1.04 8.17 0.91  L 8.12 0.89  Z  M 4.99 1.98  Q 5.14 2 5.28 2.27  L 5.28 2.27  Q 6.12 3.18 6.26 3.44  Q 6.63 2.95 6.88 2.8  Q 7.12 2.64 7.23 2.42  Q 7.34 2.2 7.6 2.12  Q 7.86 2.04 8.1 2.04  Q 8.35 2.04 8.39 1.98  Q 8.43 1.91 8.35 1.84  L 8.19 1.87  Q 7.92 1.87 7.9 1.78  Q 7.88 1.69 7.89 1.63  Q 7.9 1.58 7.84 1.54  Q 7.79 1.51 7.86 1.44  Q 7.83 1.44 7.82 1.42  Q 7.81 1.4 7.83 1.4  Q 7.88 1.31 7.78 1.3  Q 7.68 1.29 7.7 1.2  Q 7.72 1.04 7.83 0.91  Q 7.94 0.78 7.99 0.62  Q 8.19 0.04 8.66 0.02  Q 9.08 -0.05 9.5 0.1  Q 9.92 0.24 9.96 0.66  Q 9.99 1.09 9.78 1.32  Q 9.57 1.55 9.3 1.62  Q 9.39 1.93 9.55 2  Q 10.66 2.02 10.59 2.82  Q 10.79 3.4 10.79 4.2  Q 10.92 4.55 10.81 4.9  Q 10.7 5.24 10.72 5.6  Q 10.92 6.31 10.9 6.58  Q 10.88 6.84 10.79 7.02  Q 10.52 7 10.68 6.62  Q 10.66 6.2 10.59 6.22  Q 10.57 6.22 10.52 6.27  Q 10.52 6.38 10.55 6.56  Q 10.57 6.73 10.48 6.78  L 10.46 6.78  Q 10.43 6.47 10.39 6.31  Q 10.35 6.13 10.41 5.98  Q 10.46 5.82 10.43 5.6  Q 10.21 4.64 10.37 4.09  Q 10.32 3.89 10.2 3.63  Q 10.08 3.38 10.07 3.18  Q 10.06 2.98 10.01 2.82  Q 9.68 3.42 9.68 3.93  Q 9.68 4.44 9.72 4.84  Q 10.08 5.31 9.86 7.53  L 9.9 7.93  Q 10.3 8.58 10.03 10.13  Q 9.99 10.58 10.1 10.93  Q 10.21 11.29 9.86 11.25  Q 9.35 11.18 8.81 11.27  L 8.35 11.27  Q 8.17 11.22 8.21 11.12  Q 8.26 11.02 8.63 10.96  Q 8.95 10.76 9.2 10.65  Q 9.46 10.53 9.41 10.07  Q 9.35 9.36 9.23 8.56  Q 8.97 8.24 9.03 7.93  L 7.92 7.93  Q 7.79 8.07 7.86 8.24  Q 7.88 9 7.3 9.98  Q 6.99 10.71 7.01 10.87  Q 7.03 11.13 6.72 11.22  Q 5.41 11 5.23 10.96  Q 5.06 10.91 5.13 10.82  Q 5.21 10.73 5.63 10.73  Q 6.1 10.58 6.29 10.57  Q 6.48 10.56 6.6 10.28  Q 6.72 10 6.83 9.2  L 7.03 7.93  L 6.99 7.93  L 7.72 5.31  Q 7.97 4.53 7.88 4.04  Q 7.72 3.6 7.5 3  Q 7.1 3.47 6.26 4.04  Q 6.01 3.95 5.71 3.54  Q 5.41 3.13 5.19 2.6  L 4.99 2.67  L 4.99 10.8  L 4.61 10.76  L 4.61 2.67  Q 4.41 2.69 4.32 2.37  Q 4.23 2.04 4.61 1.98  L 4.61 0.89  L 4.99 0.89  L 4.99 1.98  Z "
     id="path2" />
  <metadata
     id="metadata825">
    <rdf:RDF>
      <cc:Work
         rdf:about="">
        <dc:title>US12A1000EXT</dc:title>
        <dc:creator>
          <cc:Agent>
            <dc:title>S. J. P. Thomas</dc:title>
          </cc:Agent>
        </dc:creator>
        <dc:description>homme debout sur chien  *wh* CT I, 80</dc:description>
      </cc:Work>
    </rdf:RDF>
  </metadata>
</svg>
