<?xml version="1.0" encoding="UTF-8" standalone="no"?>
<svg
   xmlns:dc="http://purl.org/dc/elements/1.1/"
   xmlns:cc="http://web.resource.org/cc/"
   xmlns:rdf="http://www.w3.org/1999/02/22-rdf-syntax-ns#"
   xmlns:svg="http://www.w3.org/2000/svg"
   xmlns="http://www.w3.org/2000/svg"
   xmlns:sodipodi="http://inkscape.sourceforge.net/DTD/sodipodi-0.dtd"
   xmlns:inkscape="http://www.inkscape.org/namespaces/inkscape"
   width="12.709958"
   height="17.97864"
   id="svg2122"
   sodipodi:version="0.32"
   inkscape:version="0.43"
   sodipodi:docname="US22A68.svg"
   sodipodi:docbase="C:\Program Files\JSesh\fonts\envoi26_SR">
  <metadata
     id="metadata2129">
    <rdf:RDF>
      <cc:Work
         rdf:about="">
        <dc:format>image/svg+xml</dc:format>
        <dc:type
           rdf:resource="http://purl.org/dc/dcmitype/StillImage" />
        <dc:publisher>
          <cc:Agent>
            <dc:title>Serge Rosmorduc</dc:title>
          </cc:Agent>
        </dc:publisher>
        <dc:creator>
          <cc:Agent>
            <dc:title>Serge Thomas</dc:title>
          </cc:Agent>
        </dc:creator>
        <dc:title>US22A68</dc:title>
        <dc:date>17/04/06</dc:date>
        <dc:description>pour rendre le signe A68 de la classification de Bob Richmond</dc:description>
        <cc:license
           rdf:resource="http://creativecommons.org/licenses/GPL/2.0/" />
      </cc:Work>
      <cc:License
         rdf:about="http://creativecommons.org/licenses/GPL/2.0/">
        <cc:permits
           rdf:resource="http://web.resource.org/cc/Reproduction" />
        <cc:permits
           rdf:resource="http://web.resource.org/cc/Distribution" />
        <cc:requires
           rdf:resource="http://web.resource.org/cc/Notice" />
        <cc:permits
           rdf:resource="http://web.resource.org/cc/DerivativeWorks" />
        <cc:requires
           rdf:resource="http://web.resource.org/cc/ShareAlike" />
        <cc:requires
           rdf:resource="http://web.resource.org/cc/SourceCode" />
      </cc:License>
    </rdf:RDF>
  </metadata>
  <defs
     id="defs2127" />
  <sodipodi:namedview
     inkscape:window-height="708"
     inkscape:window-width="1024"
     inkscape:pageshadow="2"
     inkscape:pageopacity="0.0"
     borderopacity="1.0"
     bordercolor="#666666"
     pagecolor="#ffffff"
     id="base"
     inkscape:zoom="82.987369"
     inkscape:cx="6.354979"
     inkscape:cy="14.442539"
     inkscape:window-x="-4"
     inkscape:window-y="-4"
     inkscape:current-layer="svg2122" />
  <path
     style="fill:#000000; stroke:none"
     d="M 8.78315,0.001223 C 10.212229,-0.036717667 10.936254,0.42804933 10.955225,1.395524 C 10.974195,2.362998 10.553691,3.17555 9.693714,3.83318 C 9.6051873,3.934354 9.560924,4.022881 9.560924,4.098761 C 9.560924,4.4528697 9.7695947,4.6552173 10.186936,4.705804 C 10.730745,4.9587387 11.084854,5.2875533 11.249261,5.692248 C 12.210412,7.5892573 12.697311,8.7780497 12.709958,9.258625 C 12.709958,9.650673 12.52658,10.611824 12.159825,12.142077 L 12.159825,12.502509 L 12.482317,13.602775 C 12.482317,13.893649 12.286293,14.203494 11.894244,14.532309 L 11.628663,14.494369 C 11.186027,15.442873 10.964709,16.35976 10.964709,17.245031 C 10.964709,17.624432 10.756038,17.82678 10.338696,17.852074 C 9.9213547,17.877368 9.6873907,17.801487 9.636804,17.624432 C 10.167966,16.195353 10.190098,15.480813 9.703199,15.480813 C 9.2163003,15.480813 7.9737597,16.005652 5.975577,17.05533 C 4.3567963,17.788841 3.1743277,18.086039 2.428171,17.946924 C 2.2258237,17.908985 2.12465,17.820458 2.12465,17.681343 L 2.788603,16.827688 C 2.788603,16.347113 3.0984477,15.790657 3.718137,15.158321 L 3.718137,15.120381 C 3.0099203,13.071612 2.655812,11.857526 2.655812,11.478125 C 2.655812,11.161957 2.813896,10.852112 3.130064,10.548591 C 3.2944713,10.460064 3.446232,10.4158 3.585346,10.4158 C 3.6738733,10.4158 4.8057553,10.826818 6.980992,11.648855 C 7.1074587,11.623562 7.1865007,11.326364 7.218118,10.757261 C 7.2497347,10.188158 6.9240813,8.8981927 6.241158,6.887364 C 4.7994313,8.4682047 3.882544,9.2649483 3.490496,9.277595 C 3.2755013,9.277595 2.731692,8.740109 1.859068,7.665137 C 1.4796667,7.0580943 1.0180613,6.457375 0.474252,5.862979 C 0.158084,5.3950503 0,5.1294693 0,5.066236 L 0.170731,5.009326 C 0.25925767,5.009326 0.45528167,5.1421163 0.758803,5.407697 L 0.834684,5.407697 L 0.834684,5.369757 C 0.61968933,4.5477203 0.39837167,4.136702 0.170731,4.136702 L 0.170731,4.079791 L 0.132791,4.079791 C 0.170731,3.9659703 0.24661133,3.90906 0.360432,3.90906 C 0.853654,3.90906 1.220409,4.5477197 1.460697,5.825039 C 1.5112837,5.9767997 2.2068533,6.697663 3.547406,7.987629 C 5.2041267,6.1159137 6.203218,5.1547627 6.54468,5.104176 L 7.227603,4.800654 C 7.3920103,4.54772 7.1201057,4.4465463 6.411889,4.497133 C 6.272775,4.497133 6.184248,4.2947853 6.146308,3.89009 L 6.108368,3.567599 L 5.975577,3.207167 C 5.8238163,3.207167 5.747936,3.1439333 5.747936,3.017466 C 5.747936,2.9036453 6.1589547,2.2270457 6.980992,0.987667 C 7.5374473,0.36797767 8.1381667,0.039163 8.78315,0.001223 z M 7.663915,0.949727 C 8.0939037,1.265895 8.7388867,1.423979 9.598864,1.423979 C 9.8391513,1.601033 9.959295,1.7844107 9.959295,1.974112 C 9.959295,2.2017527 9.7190073,2.701298 9.238432,3.472748 L 9.238432,3.548629 C 9.8581213,3.2830477 10.25017,2.764532 10.414577,1.993082 C 10.578984,1.2216313 10.265978,0.747379 9.475558,0.570325 C 8.6851373,0.393271 8.0812563,0.51973833 7.663915,0.949727 z M 6.980992,1.68956 L 6.980992,1.70853 C 6.980992,1.7591173 7.1453993,1.803381 7.474214,1.841321 C 7.8409687,2.018375 8.0306697,2.1321953 8.043317,2.182782 L 8.043317,2.220723 C 7.5753883,2.081609 7.2655433,2.012052 7.113782,2.012052 L 6.999962,2.012052 C 6.7735139,1.9156518 6.4133227,2.3574501 6.1603887,2.891596 L 6.4739291,3.0969268 L 6.468799,3.358928 C 6.468799,3.4474553 6.5826197,3.4853953 6.810261,3.472748 L 6.772321,3.643479 C 6.595267,3.6940657 6.5383567,3.7572993 6.60159,3.83318 C 6.60159,4.035528 6.9114347,4.136702 7.531124,4.136702 C 7.7840587,4.2758153 7.910526,4.4908093 7.910526,4.781684 C 7.910526,5.0725587 7.6892083,5.2559363 7.246573,5.331817 C 6.8039377,5.407697 6.58262,5.6163677 6.58262,5.957829 C 6.58262,6.299291 6.7754827,7.0802263 7.161208,8.300635 C 7.5469327,9.5210437 7.7271483,10.656087 7.701855,11.705766 L 7.739795,11.705766 L 9.902385,10.909022 C 9.7126843,8.3037967 9.813858,6.653399 10.205906,5.957829 C 10.155319,5.4772537 9.9340017,5.189541 9.541953,5.094691 C 9.1499043,4.9998403 8.947557,4.6805107 8.934911,4.136702 C 8.7199163,3.9217073 8.5997723,3.725683 8.574479,3.548629 C 8.574479,3.4601017 8.8274133,3.0933467 9.333282,2.448364 C 9.4218093,2.2713093 9.466073,2.1385187 9.466073,2.049992 L 9.466073,1.955142 C 9.4154863,1.8666147 9.3459293,1.7970577 9.257402,1.746471 L 8.99182,1.746471 L 8.536539,1.917201 C 7.942143,1.601033 7.556418,1.442949 7.379364,1.442949 L 7.341424,1.442949 C 7.2276027,1.442949 7.1074587,1.5251527 6.980992,1.68956 z M 9.124612,1.841321 C 9.2637253,1.904555 9.333282,1.9867587 9.333282,2.087932 C 9.333282,2.36616 9.0803477,2.663358 8.574479,2.979526 L 8.460658,3.017466 L 8.308898,2.884676 C 8.3974253,2.7708553 8.5175693,2.524244 8.66933,2.144842 C 8.8716773,1.9424947 9.023438,1.841321 9.124612,1.841321 z M 8.66933,2.410424 L 8.726239,2.543214 L 8.66933,2.676005 L 8.70727,2.713945 L 8.726239,2.713945 C 9.0171143,2.5495377 9.162552,2.3408667 9.162552,2.087932 L 9.124612,2.049992 L 9.105641,2.049992 C 8.928587,2.049992 8.78315,2.170136 8.66933,2.410424 z M 7.170692,2.106902 C 7.8030287,2.2713093 8.138167,2.3724833 8.176107,2.410424 L 7.132752,2.676005 C 6.8292307,2.6254177 6.67747,2.5368907 6.67747,2.410424 C 6.7659973,2.208076 6.9304047,2.106902 7.170692,2.106902 z M 6.848201,2.372483 L 6.943051,2.486304 L 6.999962,2.486304 L 6.999962,2.448364 L 6.980992,2.277633 L 6.943051,2.277633 L 6.848201,2.372483 z M 7.303483,2.277633 L 7.265543,2.505274 L 7.303483,2.505274 C 7.480537,2.505274 7.581711,2.4610103 7.607005,2.372483 L 7.341424,2.277633 L 7.303483,2.277633 z M 8.441689,2.846735 L 8.498598,2.903646 L 8.536539,2.884676 L 8.574479,2.884676 L 8.536539,2.770855 L 8.498598,2.770855 L 8.441689,2.846735 z M 10.395607,6.792513 C 10.34502,9.587439 10.455679,11.250483 10.727584,11.781646 C 10.999489,12.312809 11.04059,13.071612 10.850889,14.058057 L 11.249261,14.058057 L 11.11647,13.640715 C 11.204997,13.488954 11.287201,12.692211 11.363082,11.250484 L 11.628663,9.410385 C 11.426315,9.0436297 11.122794,8.3037963 10.718099,7.190885 L 10.433547,6.792513 L 10.395607,6.792513 z M 3.585346,11.383274 L 3.585346,11.402245 C 3.585346,11.743706 3.863574,12.742797 4.42003,14.399518 C 5.5582353,13.451014 6.2790987,12.799708 6.58262,12.445599 L 3.812987,11.269454 L 3.585346,11.383274 z M 4.780462,15.366992 C 4.780462,15.442873 4.9701627,15.62625 5.349564,15.917125 C 5.412798,15.917125 5.700511,15.714777 6.212703,15.310082 C 6.7248957,14.905387 7.5121543,14.709363 8.574479,14.72201 C 9.3332823,14.72201 9.8265047,14.513339 10.054146,14.095997 C 10.256493,13.666008 10.341859,13.188594 10.310242,12.663755 C 10.278625,12.138916 10.098409,11.876496 9.769594,11.876496 C 8.7325627,11.876496 7.1706923,12.881911 5.083983,14.89274 L 4.780462,15.366992 z M 3.186975,17.05533 C 3.5537297,17.472672 4.1165087,17.314588 4.875312,16.581078 C 4.736198,16.404023 4.4263533,16.182706 3.945778,15.917125 C 3.4399093,16.32182 3.186975,16.701222 3.186975,17.05533 z "
     id="path2124"
     sodipodi:nodetypes="cscsccscccccsscscsccccscscscsccccccccccsccccscccsccccsccsscccccccccccccccssssccccscsccccccccccsccccccccccccccccccccccccccccccccccccccccsccccccccccccccccsscsscccccc" />
</svg>
