<?xml version="1.0" encoding="UTF-8" standalone="no"?>
<svg
   xmlns:dc="http://purl.org/dc/elements/1.1/"
   xmlns:cc="http://web.resource.org/cc/"
   xmlns:rdf="http://www.w3.org/1999/02/22-rdf-syntax-ns#"
   xmlns:svg="http://www.w3.org/2000/svg"
   xmlns="http://www.w3.org/2000/svg"
   xmlns:sodipodi="http://sodipodi.sourceforge.net/DTD/sodipodi-0.dtd"
   xmlns:inkscape="http://www.inkscape.org/namespaces/inkscape"
   width="1800"
   height="1800"
   id="svg1528"
   sodipodi:version="0.32"
   inkscape:version="0.44"
   sodipodi:docname="A77.svg"
   sodipodi:docbase="/home/rosmord/Travail/Gsigns/Distribution"
   version="1.0">
  <metadata
     id="metadata1535">
    <rdf:RDF>
      <cc:Work
         rdf:about="">
        <dc:format>image/svg+xml</dc:format>
        <dc:type
           rdf:resource="http://purl.org/dc/dcmitype/StillImage" />
        <dc:title>US22A1F</dc:title>
        <dc:date>19/01/2006</dc:date>
        <dc:creator>
          <cc:Agent>
            <dc:title>Serge Thomas</dc:title>
          </cc:Agent>
        </dc:creator>
        <dc:publisher>
          <cc:Agent>
            <dc:title>Serge Rosmorduc</dc:title>
          </cc:Agent>
        </dc:publisher>
        <dc:identifier>US22</dc:identifier>
        <dc:source>tête origine KV17</dc:source>
        <dc:description>optimisation de A1 variante</dc:description>
        <cc:license
           rdf:resource="http://creativecommons.org/licenses/GPL/2.0/" />
      </cc:Work>
      <cc:License
         rdf:about="http://creativecommons.org/licenses/GPL/2.0/">
        <cc:permits
           rdf:resource="http://web.resource.org/cc/Reproduction" />
        <cc:permits
           rdf:resource="http://web.resource.org/cc/Distribution" />
        <cc:requires
           rdf:resource="http://web.resource.org/cc/Notice" />
        <cc:permits
           rdf:resource="http://web.resource.org/cc/DerivativeWorks" />
        <cc:requires
           rdf:resource="http://web.resource.org/cc/ShareAlike" />
        <cc:requires
           rdf:resource="http://web.resource.org/cc/SourceCode" />
      </cc:License>
    </rdf:RDF>
  </metadata>
  <defs
     id="defs1533" />
  <sodipodi:namedview
     inkscape:window-height="583"
     inkscape:window-width="1010"
     inkscape:pageshadow="2"
     inkscape:pageopacity="0.0"
     borderopacity="1.0"
     bordercolor="#666666"
     pagecolor="#ffffff"
     id="base"
     inkscape:zoom="0.105"
     inkscape:cx="-1143.4124"
     inkscape:cy="905.85503"
     inkscape:window-x="238"
     inkscape:window-y="344"
     inkscape:current-layer="svg1528"
     width="1800px"
     height="1800px" />
  <path
     style="fill:black;stroke:none"
     d="M 1286.2188 -5.25 C 1285.2017 -5.2505759 1284.1732 -5.2263168 1283.1562 -5.1875 C 1255.7653 -3.7358921 1228.4144 6.1862443 1207.5625 24.125 C 1176.2357 49.117177 1148.0589 77.946339 1118 104.5625 C 1056.8249 160.74459 995.6435 216.9117 934.46875 273.09375 C 896.88033 273.5434 862.1194 282.10482 830.15625 298.78125 C 778.82988 325.56018 751.47234 355.68254 748.125 389.15625 L 729.71875 424.3125 L 731.40625 444.40625 C 715.78516 467.83784 702.94835 490.71541 692.90625 513.03125 C 682.86414 535.34705 681.75201 549.29609 689.5625 554.875 L 711.3125 571.59375 C 704.6178 579.40424 704.61782 586.64899 711.3125 593.34375 C 705.73358 603.38587 707.95797 609.5497 718 611.78125 L 721.34375 618.46875 C 721.34375 639.66877 728.33389 653.90359 742.28125 661.15625 C 756.22865 668.40888 787.17727 666.43912 835.15625 655.28125 L 840.1875 673.6875 C 733.07172 691.54016 666.12267 714.98954 639.34375 744 L 502.09375 901.3125 L 403.34375 1013.4688 C 261.63848 884.03725 174.35328 794.21053 141.4375 744 C 108.52171 693.78953 70.837542 660.29935 28.4375 643.5625 C 15.048027 656.95197 12.283202 679.28911 20.09375 710.53125 L 3.34375 764.0625 C 3.34375 785.26247 14.496693 806.48748 36.8125 827.6875 C 72.517776 843.30854 104.89574 860.02232 133.90625 877.875 C 178.53782 955.98026 224.26183 1017.0826 271.125 1061.1562 C 317.98812 1105.2298 356.49866 1130.6177 386.625 1137.3125 C 423.44606 1131.7335 479.24215 1090.4583 554 1013.4688 C 619.83157 930.90044 659.99476 897.9819 674.5 914.71875 C 689.00531 931.45562 712.70931 971.90464 745.625 1036.0625 C 778.54085 1100.2205 796.11221 1177.2101 798.34375 1267.0312 C 800.57531 1356.8523 796.66714 1413.4747 786.625 1436.9062 L 502.09375 1214.2812 C 458.57792 1169.6496 420.63912 1147.3438 388.28125 1147.3438 C 307.94442 1155.1542 265.55695 1192.5528 261.09375 1259.5 L 314.65625 1550.7188 C 244.36154 1604.2766 204.19838 1644.9802 194.15625 1672.875 C 194.15625 1709.696 173.50294 1728.125 132.21875 1728.125 C 44.071361 1728.125 8.1010154e-17 1754.9108 0 1808.4688 L 1355.6875 1808.4688 C 1394.7401 1801.774 1414.25 1792.2737 1414.25 1780 C 1414.25 1735.3684 1345.6484 1715.2868 1208.4062 1719.75 L 1201.7188 1719.75 L 1069.4688 1637.75 C 1078.3953 1589.771 1076.1706 1413.4542 1062.7812 1108.8438 C 1234.6126 1178.0227 1342.2966 1212.625 1385.8125 1212.625 C 1420.4021 1207.0459 1437.6875 1191.4131 1437.6875 1165.75 C 1432.1085 1126.6974 1384.9864 1037.1566 1296.2812 897.125 C 1207.576 757.09343 1112.4431 683.726 1010.9062 677.03125 C 983.01152 671.45233 968.49084 646.92209 967.375 603.40625 C 1068.9119 565.46947 1117.1773 506.05101 1112.1562 425.15625 C 1107.1352 344.2615 1071.7067 296.28193 1005.875 281.21875 C 1005.6448 281.16608 1005.4175 281.11466 1005.1875 281.0625 C 1010.1041 276.14583 1015.0208 271.22916 1019.9375 266.3125 C 1057.2197 266.24917 1092.7174 282.77804 1121.3438 305.96875 C 1170.4051 253.9779 1210.8624 194.49606 1257.25 140.28125 C 1263.969 132.85134 1270.9542 125.90561 1278.5 119.28125 C 1301.2094 127.96294 1328.8966 123.66155 1346.3438 106.3125 C 1361.8945 92.930191 1374.3418 71.717289 1368.0625 50.75 C 1362.0273 31.61284 1345.7944 17.89896 1329.6562 7.09375 C 1316.6437 -0.82553465 1301.4742 -5.2413597 1286.2188 -5.25 z M 1283.9375 34.84375 C 1284.653 34.828604 1285.3707 34.829217 1286.0938 34.84375 C 1302.822 34.74764 1320.7678 43.810466 1327.9062 59.375 C 1330.0256 66.800616 1324.3531 73.109285 1318.375 76.5 C 1306.8018 84.758353 1291.1169 83.021989 1279.125 76.71875 C 1272.2292 73.752714 1267.1985 80.415489 1262.2188 83.84375 C 1225.8047 112.35499 1198.1703 150.20344 1169.4062 186.15625 C 1153.3763 207.03004 1137.1532 227.91893 1119.75 247.6875 C 1099.0981 236.02513 1077.6157 225.65033 1054.9062 218.6875 C 1111.7192 166.4549 1167.6859 112.92961 1226.375 63 C 1243.1953 49.797584 1261.7578 35.31326 1283.9375 34.84375 z M 925.25 310.6875 C 946.84117 310.89182 969.54607 315.56579 993.34375 324.71875 C 1044.1122 344.24505 1068.9283 382.46975 1067.8125 439.375 C 1066.6966 496.28025 1031.554 533.10685 962.375 549.84375 C 1003.6592 519.7174 1019.8326 490.13551 1010.9062 461.125 C 1001.9799 432.11449 986.63285 418.45131 964.875 420.125 C 943.11708 421.79865 909.37242 412.0437 863.625 390.84375 C 817.87767 369.64373 815.36741 348.45002 856.09375 327.25 C 877.72955 315.98752 900.78001 310.45594 925.25 310.6875 z M 769.90625 389.15625 C 844.66417 407.00886 897.09239 432.14214 927.21875 464.5 C 951.76606 442.18424 969.90929 441.89836 981.625 463.65625 C 993.34084 485.41413 977.42202 509.11807 933.90625 534.78125 C 927.21138 630.73912 938.36449 686.53518 967.375 702.15625 C 996.38553 717.77729 1022.3451 727.53222 1045.2188 731.4375 C 1068.0926 735.34272 1076.4495 754.88391 1070.3125 790.03125 C 1064.1755 825.17866 1044.9516 890.15792 1012.5938 985 C 928.90965 958.22109 871.71557 946.78223 841.03125 950.6875 C 810.34709 954.59278 796.11221 975.53205 798.34375 1013.4688 C 733.62796 917.51097 701.82169 843.85758 702.9375 792.53125 C 701.82171 759.05754 732.51581 736.75161 795 725.59375 C 857.48426 714.43585 884.8105 698.23126 877 677.03125 C 869.18948 655.83123 862.5164 637.43356 856.9375 621.8125 C 839.08489 630.73883 815.6356 637.15722 786.625 641.0625 C 757.61447 644.96772 742.55326 635.2128 741.4375 611.78125 C 750.36377 608.43389 757.6085 605.92368 763.1875 604.25 C 768.76642 602.57629 773.24636 601.17829 776.59375 600.0625 L 776.59375 588.34375 L 748.125 578.28125 C 745.89344 573.81811 740.33255 573.27767 731.40625 576.625 L 731.40625 568.25 L 719.6875 559.875 C 708.52966 552.06451 703.50923 545.93192 704.625 541.46875 C 705.74078 537.00561 709.93488 526.42433 717.1875 509.6875 C 724.44018 492.95062 736.41948 471.72566 753.15625 446.0625 L 749.8125 426 L 769.90625 389.15625 z M 779.9375 426 C 767.66382 426 760.13319 426.54045 757.34375 427.65625 C 754.5542 428.77208 754.26844 432.13982 756.5 437.71875 C 784.3948 437.71875 805.33392 441.62695 819.28125 449.4375 C 833.22863 457.248 842.69777 462.26844 847.71875 464.5 C 852.73987 466.73162 866.9747 467.84375 890.40625 467.84375 L 890.40625 459.46875 C 872.55359 459.46875 860.82892 458.6424 855.25 456.96875 C 849.67103 455.29504 838.80389 449.70294 822.625 440.21875 C 806.44603 430.73448 792.2112 426.00001 779.9375 426 z M 777.375 446.8125 C 770.71077 446.95635 764.32432 448.9457 758.1875 452.78125 C 749.26116 458.36017 745.89342 462.26844 748.125 464.5 C 758.16712 456.6895 768.20787 452.49541 778.25 451.9375 C 788.29213 451.37963 798.07834 453.60394 807.5625 458.625 C 817.0467 463.646 824.83192 466.98256 830.96875 468.65625 C 837.1056 470.32996 840.47341 470.61579 841.03125 469.5 C 841.58917 468.38421 838.50718 466.73163 831.8125 464.5 C 825.11773 462.26843 818.44474 459.47235 811.75 456.125 C 805.05529 452.77765 796.66714 449.98163 786.625 447.75 C 783.48684 447.05264 780.40419 446.74712 777.375 446.8125 z M 780.4375 458.90625 C 770.06413 458.99779 760.96679 461.98583 753.15625 467.84375 L 736.40625 482.90625 L 739.78125 489.59375 L 748.125 487.90625 C 773.78816 497.94837 800.03351 496.29574 826.8125 482.90625 L 887.0625 494.625 L 888.71875 482.90625 L 826.8125 472.84375 C 809.2388 463.42926 793.77469 458.78856 780.4375 458.90625 z M 769.90625 467.84375 C 766.55889 474.53846 767.09938 480.67107 771.5625 486.25 C 764.8678 485.13421 758.73524 483.45033 753.15625 481.21875 C 755.38782 476.75561 760.97991 472.30689 769.90625 467.84375 z M 791.65625 467.84375 L 816.75 477.875 C 807.82372 481.22235 798.89502 484.01843 789.96875 486.25 C 796.66346 480.67108 797.23519 474.53846 791.65625 467.84375 z M 749.28125 542.25 C 749.181 542.2609 749.07336 542.27763 748.96875 542.3125 C 747.29511 542.87037 746.46876 545.09474 746.46875 549 C 746.46875 552.90528 744.78482 555.41545 741.4375 556.53125 C 738.09014 557.64704 734.46777 555.70854 730.5625 550.6875 C 726.65722 545.66645 723.57534 543.15626 721.34375 543.15625 C 719.11218 543.15625 717.45953 543.98257 716.34375 545.65625 C 715.22795 547.32995 715.22795 549.84013 716.34375 553.1875 C 719.69109 549.84015 723.8539 551.23817 728.875 557.375 C 733.89606 563.51184 739.2023 565.19574 744.78125 562.40625 C 750.36018 559.61676 752.87037 555.42265 752.3125 549.84375 C 751.78945 544.61346 750.78496 542.08654 749.28125 542.25 z M 732.875 579.96875 C 734.40919 579.96875 736.42699 580.54047 738.9375 581.65625 C 743.95856 583.88783 750.09108 585.82629 757.34375 587.5 C 764.45336 589.14071 768.60012 590.5204 769.8125 591.625 L 734.96875 590.09375 C 734.55041 589.49253 733.9106 588.90916 733.0625 588.34375 C 729.71514 586.11212 728.60296 583.88782 729.71875 581.65625 C 730.27665 580.54047 731.34081 579.96875 732.875 579.96875 z M 771.5625 592.75 C 771.70842 593.02003 771.7015 593.30469 771.5625 593.625 L 771.5625 592.75 z M 770.15625 595.09375 C 769.16355 595.82376 767.714 596.62433 765.71875 597.53125 C 759.58185 600.32069 754.27564 602.29047 749.8125 603.40625 C 745.34936 604.5221 740.86938 605.06251 736.40625 605.0625 C 731.94311 605.0625 729.43294 604.23622 728.875 602.5625 C 728.37373 601.05858 729.47317 599.09226 732.125 596.6875 L 770.15625 595.09375 z M 1106.3125 856.125 C 1191.1126 925.30398 1253.0411 1001.7533 1292.0938 1085.4375 L 1066.125 1003.4062 L 1106.3125 856.125 z M 826.8125 1046.9375 C 875.90717 1091.569 932.24376 1104.4058 995.84375 1085.4375 L 1014.25 1544 L 1009.2188 1544 C 1002.524 1544 976.02399 1533.1329 929.71875 1511.375 C 883.41348 1489.6169 860.28124 1467.5657 860.28125 1445.25 L 826.8125 1046.9375 z M 381 1231.2812 C 386.98864 1231.1897 393.30527 1231.6727 400 1232.7188 L 702.9375 1451.9688 L 374.90625 1525.5938 L 323.03125 1264.5 C 335.72335 1242.7421 355.04922 1231.6779 381 1231.2812 z M 800.03125 1510.5312 L 1032.6562 1605.9375 C 1024.8456 1647.2216 990.81511 1687.9566 930.5625 1728.125 L 297.90625 1728.125 C 292.32733 1728.125 288.41905 1718.0843 286.1875 1698 C 286.1875 1670.1052 310.74906 1634.9626 359.84375 1592.5625 L 800.03125 1510.5312 z "
     id="path1530" />
</svg>
