<?xml version="1.0" encoding ="US-ASCII" standalone="yes"?>
<svg width="7.891351" height="17.982096">
<path style="fill:#000000; stroke:none" d=" M 3.507267 12.18655  L 3.678353 12.207935  L 4.8118 12.207935  Q 5.731388 12.207935 5.731388 12.015464  Q 5.92386 10.646774 5.92386 9.29947  Q 5.881088 7.952167 5.731388 7.952167  Q 4.234384 8.166024 4.234384 8.657897  Q 3.956368 9.598871 3.507267 12.18655  Z  M 5.325058 2.92651  Q 5.1112 2.819581 5.079122 2.573644  Q 5.047043 2.327708 5.271594 2.135236  Q 5.496144 1.942764 5.624459 1.643363  Q 5.752773 1.343962 5.570994 1.247726  Q 5.389215 1.15149 5.207436 1.290498  Q 5.025657 1.429505 4.982885 1.279805  Q 4.405469 1.00179 4.287848 0.991097  Q 4.170226 0.980404 4.020525 1.258419  Q 4.319927 1.215648 4.608634 1.376041  Q 4.897342 1.536434 4.704871 1.579206  Q 4.14884 1.279805 3.892211 1.450891  L 3.528653 2.049693  Q 3.828054 2.178008 3.699739 2.327708  Q 3.870825 2.37048 3.956368 2.44533  Q 4.041912 2.52018 3.785282 2.648495  Q 3.785282 2.969281 4.14884 2.947896  Q 4.512399 2.92651 4.512399 3.236603  Q 4.512399 3.546697 4.458934 3.749862  Q 4.405469 3.953027 3.934983 4.017184  Q 3.464495 4.081342 3.464495 4.402128  L 3.806668 5.642503  Q 4.234384 7.738309 4.405469 7.738309  Q 5.581687 7.545837 5.581687 7.203665  L 6.415732 4.166885  Q 6.159103 3.867484 5.645844 3.867484  Q 5.196743 3.675012 5.325058 2.92651  Z  M 5.816931 3.461154  Q 7.207006 3.396997 7.399478 4.295199  Q 7.891351 6.262691 7.891351 7.438908  Q 7.891351 8.208796 7.549179 10.497073  L 7.677493 11.609134  Q 7.677493 11.758834 6.971763 11.844378  Q 6.88622 11.844378 6.843448 11.010332  L 7.03592 10.304602  Q 7.057306 8.379882 7.207006 7.652766  Q 7.078691 7.096736 6.971763 6.059526  Q 6.864834 5.022316 6.736519 4.915387  L 6.693748 4.915387  Q 6.458504 4.915387 6.094946 7.310594  Q 6.137717 7.88801 6.266032 8.230182  Q 6.394347 8.572353 6.394347 9.363627  Q 6.394347 10.41153 6.308804 11.951306  Q 6.308804 12.18655 6.437118 12.785352  Q 6.993148 13.29861 6.950377 16.677563  Q 7.292549 17.982096 6.672362 17.982096  L 4.576556 17.939323  Q 4.683485 17.490223 5.132586 17.426065  L 6.030788 17.041122  Q 6.308804 16.100147 5.934553 14.635221  Q 5.560301 13.170296 5.431987 12.806737  L 3.977754 12.806737  Q 4.170226 13.790483 2.609065 17.14805  Q 2.929851 17.982096 2.245506 17.939323  L 0 17.939323  Q 0.042772 17.575766 0.598802 17.532995  L 1.753633 17.105278  Q 2.053034 17.105278 2.459364 15.137787  Q 2.865694 13.170296 2.865694 12.379022  Q 3.507267 10.047973 3.678353 8.850368  L 3.122323 8.935912  L 3.614196 8.166024  Q 3.250638 7.802466 3.699739 7.674152  Q 3.464495 6.391005 3.165095 5.278945  Q 3.058166 5.278945 2.88708 7.438908  Q 2.865694 7.609994 2.908465 8.166024  Q 2.951237 8.722054 2.951237 10.112129  Q 3.122323 10.689546 3.122323 11.117261  Q 2.972623 11.566362 2.63045 11.758834  L 2.587679 11.758834  Q 2.395207 11.37389 2.395207 10.903403  L 2.459364 10.112129  L 2.181349 8.337111  L 2.117192 7.07535  Q 2.117192 5.685275 2.566293 3.995799  Q 2.908465 3.461154 4.170226 3.439768  L 4.170226 3.204525  Q 3.913597 3.247296 3.731818 3.225911  Q 3.550039 3.204525 3.550039 3.033439  Q 3.550039 2.862352 3.485881 2.744731  Q 3.421724 2.627109 3.496574 2.573644  Q 3.571424 2.52018 3.485881 2.52018  Q 3.44311 2.52018 3.432417 2.44533  Q 3.421724 2.37048 3.485881 2.327708  Q 3.44311 2.263551 3.314795 2.263551  Q 3.186481 2.263551 3.250638 2.006922  Q 3.699739 1.365348 3.785282 1.044561  Q 4.298541 0.18913 4.897342 0.050123  Q 5.496144 -0.088885 6.041481 0.157052  Q 6.586819 0.402988 6.650976 0.969711  Q 6.715133 1.536434 6.447811 1.996228  Q 6.180489 2.456023 5.688616 2.712652  Q 5.538916 3.225911 5.816931 3.461154  Z  M 3.828054 1.728906  Q 3.934983 1.472277 4.127455 1.450891  Q 4.319927 1.429505 4.619328 1.664749  L 4.875957 1.664749  L 4.875957 1.728906  L 4.619328 1.728906  Q 4.405469 1.878607 4.202305 1.899992  Q 3.99914 1.921378 3.828054 1.728906  Z  M 4.084683 1.579206  Q 4.041912 1.55782 3.934983 1.664749  Q 4.020525 1.793064 4.170226 1.771678  Q 3.99914 1.728906 4.084683 1.579206  Z  M 4.170226 1.771678  Q 4.341312 1.771678 4.491013 1.70752  Q 4.362698 1.621977 4.234384 1.579206  Q 4.362698 1.70752 4.170226 1.771678  Z  M 5.047043 1.835835  Q 5.004272 1.728906 5.121893 1.536434  Q 5.239515 1.343962 5.378522 1.301191  Q 5.51753 1.258419 5.560301 1.343962  Q 5.603073 1.429505 5.549609 1.600592  Q 5.496144 1.771678 5.292979 1.974843  Q 5.089814 2.178008 4.993578 2.135236  Q 4.897342 2.092464 4.918728 1.985536  Q 4.940114 1.878607 5.047043 1.835835  Z  M 5.303672 1.472277  Q 5.196743 1.579206 5.143279 1.686135  Q 5.089814 1.793064 5.175357 1.760985  Q 5.2609 1.728906 5.175357 1.846528  Q 5.089814 1.96415 5.175357 1.921378  Q 5.2609 1.878607 5.357137 1.760985  Q 5.453372 1.643363 5.474758 1.504356  Q 5.496144 1.365348 5.303672 1.472277  Z  M 5.089814 0.980404  Q 5.774159 0.809318 5.891781 1.183569  Q 6.009403 1.55782 5.613766 2.135236  Q 5.218129 2.712652 5.774159 2.242165  Q 6.330189 1.771678 6.308804 1.15149  Q 6.287418 0.531303 5.613766 0.360217  Q 4.940114 0.18913 4.640713 0.467146  Q 4.341312 0.745161 5.089814 0.980404  Z  M 5.047043 1.942764  Q 4.9615 1.985536 4.993578 2.049693  Q 5.025657 2.11385 5.079122 2.060386  Q 5.132586 2.006922 5.047043 1.942764  Z "/></svg>
