<?xml version="1.0" encoding="UTF-8" standalone="no"?>
<svg
   xmlns:dc="http://purl.org/dc/elements/1.1/"
   xmlns:cc="http://web.resource.org/cc/"
   xmlns:rdf="http://www.w3.org/1999/02/22-rdf-syntax-ns#"
   xmlns:svg="http://www.w3.org/2000/svg"
   xmlns="http://www.w3.org/2000/svg"
   xmlns:xlink="http://www.w3.org/1999/xlink"
   xmlns:sodipodi="http://sodipodi.sourceforge.net/DTD/sodipodi-0.dtd"
   xmlns:inkscape="http://www.inkscape.org/namespaces/inkscape"
   width="1800"
   height="1800"
   id="svg2"
   sodipodi:version="0.32"
   inkscape:version="0.44"
   sodipodi:docname="A92.svg"
   sodipodi:docbase="/home/rosmord/Travail/Gsigns/Courants"
   version="1.0">
  <metadata
     id="metadata9">
    <rdf:RDF>
      <cc:Work
         rdf:about="">
        <dc:format>image/svg+xml</dc:format>
        <dc:type
           rdf:resource="http://purl.org/dc/dcmitype/StillImage" />
        <dc:title>A92</dc:title>
        <dc:description>A92 sign, assembled by S. Rosmorduc from parts of signs by S. Thomas
</dc:description>
      </cc:Work>
    </rdf:RDF>
  </metadata>
  <defs
     id="defs7" />
  <sodipodi:namedview
     inkscape:window-height="976"
     inkscape:window-width="1253"
     inkscape:pageshadow="2"
     inkscape:pageopacity="0.0"
     guidetolerance="10.0"
     gridtolerance="10.0"
     objecttolerance="10.0"
     borderopacity="1.0"
     bordercolor="#666666"
     pagecolor="#ffffff"
     id="base"
     inkscape:zoom="0.28414606"
     inkscape:cx="359.27078"
     inkscape:cy="179.25767"
     inkscape:window-x="25"
     inkscape:window-y="0"
     inkscape:current-layer="svg2"
     width="1800px"
     height="1800px" />
  <g
     inkscape:groupmode="layer"
     id="layer2"
     inkscape:label="fond"
     sodipodi:insensitive="true"
     style="display:none">
    <image
       xlink:href="/home/rosmord/Travail/Gsigns/Distribution/A92.png"
       sodipodi:absref="/home/rosmord/Travail/Gsigns/Distribution/A92.png"
       width="22.246809"
       height="10.487782"
       id="image6876"
       x="-2.3160169"
       y="0.12102399" />
  </g>
  <g
     inkscape:groupmode="layer"
     id="layer1"
     inkscape:label="dess" />
  <path
     style="fill:black;stroke:none"
     d="M 15.183873,990.56938 C -9.1111554,1066.6476 -4.4900962,1120.1976 29.867322,1154.53 C 64.225712,1188.8635 86.831389,1206.7869 98.587916,1207.7966 C 150.20923,1254.862 183.48891,1271.3066 196.85918,1253.5056 C 198.17142,1238.2221 204.31241,1230.6062 219.64576,1231.3307 C 246.41741,1230.4079 284.5611,1232.2961 286.76027,1197.8194 C 285.72082,1182.3339 285.83184,1168.7264 287.5298,1155.8452 C 293.06377,1127.2384 322.49044,1148.5709 332.80721,1162.4301 C 334.31802,1261.1137 357.82441,1356.2061 369.92037,1453.8933 C 337.51647,1474.7292 287.97119,1521.3361 218.58538,1593.7092 C 188.27856,1607.783 160.21336,1622.3965 134.02512,1637.1306 C 107.83686,1651.8649 83.701679,1690.4759 62.226374,1751.7624 C 66.192758,1762.8747 74.483478,1768.6865 87.229691,1771.4037 C 99.976846,1774.12 107.62916,1772.9094 107.82155,1764.321 C 110.03159,1745.2404 115.04028,1726.4719 125.87892,1709.4492 C 136.71659,1692.4256 157.04715,1675.7435 186.22742,1661.3204 C 173.68126,1685.8433 156.77341,1704.5064 138.14271,1714.7891 C 119.51203,1725.0716 115.00008,1736.7037 124.9505,1748.4363 C 192.86899,1712.67 234.08719,1670.9521 247.36748,1628.1259 C 340.03661,1580.2681 400.23962,1540.8245 426.85188,1510.7799 C 449.58965,1456.4375 447.2356,1344.9681 444.98347,1278.7927 C 486.46481,1333.1995 530.62719,1422.7214 570.74913,1487.4419 C 538.30121,1508.898 487.00818,1552.5972 419.09734,1621.2843 C 386.80352,1634.8383 357.87307,1647.3136 331.39193,1661.8774 C 304.91079,1676.4413 281.75859,1713.9257 259.43526,1773.5218 C 263.22937,1786.1571 268.92242,1793.507 281.61023,1796.3083 C 294.2971,1799.1099 301.95038,1797.566 302.20114,1789.2256 C 304.26857,1770.4235 311.8778,1751.3832 323.24573,1734.1959 C 334.61271,1717.0076 353.78417,1703.0115 383.75216,1689.0534 C 371.17346,1713.2173 356.99249,1729.415 338.49678,1739.3779 C 320.00008,1749.3398 313.67149,1760.9039 322.3173,1773.183 C 390.44064,1739.5023 433.3922,1701.6542 448.03832,1658.6883 C 541.2779,1611.4037 599.93992,1573.0455 627.68067,1544.3285 C 652.05706,1516.3599 646.24817,1492.039 627.47775,1427.5241 C 611.01785,1364.4584 588.95486,1299.8016 574.28098,1271.5969 C 623.52477,1251.0509 695.37873,1235.3201 833.06106,1219.7725 C 773.56246,1316.9276 690.04837,1432.7748 681.33842,1578.2626 C 686.32223,1611.7567 721.87891,1656.1009 778.04952,1651.0108 C 964.9738,1612.7972 1112.8775,1591.2624 1218.2038,1591.7305 C 1280.7462,1598.2648 1346.7829,1638.1249 1284.9097,1719.9851 C 1275.6858,1736.3063 1270.2567,1777.5532 1287.602,1770.7612 C 1403.3094,1725.4503 1387.0046,1650.9247 1373.6794,1586.4815 C 1373.6794,1586.4815 1383.9917,1528.991 1363.1126,1500.1793 C 1334.8932,1461.2392 1292.853,1470.3845 1255.7437,1508.8682 C 1039.4718,1476.9964 896.22356,1479.9789 825.16086,1522.7123 C 898.88255,1442.0648 994.54936,1387.5549 1029.9215,1317.164 C 1095.3977,1341.6869 1153.7962,1386.8456 1214.9927,1418.1755 C 1398.1429,1471.6259 1537.6179,1523.2876 1630.5494,1572.8624 C 1682.8109,1607.8334 1722.1189,1673.1906 1629.1903,1716.7069 C 1613.4148,1726.8364 1589.003,1757.701 1607.513,1759.7897 C 1730.9914,1773.7237 1753.6105,1703.461 1771.9043,1640.2487 C 1771.9043,1640.2487 1815.0799,1588.2694 1794.51,1558.178 C 1774.4705,1528.8637 1750.8435,1514.5135 1702.2113,1512.1521 C 1525.8184,1383.0209 1397.7323,1321.3888 1314.9398,1326.0138 L 1272.6488,1319.2707 C 1224.0948,1264.1635 1180.4686,1193.8162 1129.5534,1133.2749 C 1076.0843,1069.6968 1014.8682,1011.2692 930.88145,1003.9912 C 889.72036,1000.4243 834.96974,1017.2608 786.76627,1024.5402 C 618.20772,973.22496 467.85003,968.08172 297.69077,1008.5387 C 303.94759,935.64981 264.37569,893.58948 177.38047,886.1219 C 99.231911,877.46068 44.348897,919.69442 15.183873,990.56938 z M 163.87142,913.79554 C 224.56736,917.22876 261.17501,938.11928 272.05385,976.95054 C 274.83912,999.69002 268.66366,1014.0825 253.36286,1019.8741 C 238.06205,1025.6668 215.26015,1019.7191 186.54314,1002.4504 C 157.82612,985.18172 138.58096,983.09516 129.47667,999.4862 C 120.3714,1015.8762 122.61878,1035.4218 135.31329,1053.0906 C 118.14894,1059.9073 97.276643,1093.5316 71.841654,1155.2996 C 26.568066,1117.0696 16.527693,1064.3953 39.712449,1001.2501 C 65.096723,938.50851 97.661943,910.71439 163.87142,913.79554 z M 187.96832,1029.3326 C 206.10512,1045.6929 240.53721,1053.3108 290.47205,1041.8691 C 456.91067,1003.7339 567.931,1011.4724 795.1153,1069.026 C 977.1755,1027.5616 991.86272,1069.511 1058.7734,1126.9328 L 1235.8783,1360.1587 L 981.29487,1190.9462 C 990.84755,1319.2631 882.53112,1387.2425 813.98335,1481.3715 C 784.75712,1534.2209 762.25872,1560.8667 746.41613,1562.8307 C 701.19709,1477.6635 855.54649,1292.6829 893.1148,1222.5787 C 905.84706,1195.3502 903.73704,1173.108 869.51463,1172.9109 C 654.90688,1186.9755 467.96618,1260.1839 445.61827,1225.2517 C 400.35646,1171.8112 361.91469,1124.1753 288.29934,1113.8708 C 267.03748,1113.2295 257.34551,1135.6055 259.08655,1184.3104 C 262.78013,1196.4699 250.63597,1201.8289 227.02243,1200.9867 C 198.70646,1199.7404 184.64035,1208.9873 183.32811,1224.27 C 180.63952,1241.8038 155.49358,1226.1278 106.1225,1180.4397 C 95.108715,1156.9928 114.20074,1117.0294 165.4995,1057.481 C 149.17648,1040.6843 144.85788,1027.5982 151.49274,1019.2854 C 162.62366,1008.3998 179.19477,1022.1856 187.96832,1029.3326 z M 147.12532,1106.3794 C 114.8736,1150.9829 110.39325,1179.0777 136.62457,1190.8036 C 158.59377,1183.2144 163.07412,1155.1196 147.12532,1106.3794 z "
     id="path4"
     sodipodi:nodetypes="cscccsscccscccccsccccccscscccccccccccccccccccccccscccccsscccscccscccccccccccccsssccccccscccc" />
</svg>
