<?xml version="1.0" encoding ="US-ASCII" standalone="yes"?>
<svg width="13.008668" height="14.64">
<path style="fill:#000000; stroke:none" d=" M 0.671704 5.773506  L 0.671704 11.326262  L 1.835991 11.326262  L 1.835991 7.004963  L 11.239847 7.004963  L 11.239847 11.326262  L 12.314574 11.326262  L 12.314574 5.773506  L 0.671704 5.773506  Z  M 2.507695 7.676668  L 2.507695 13.945905  L 10.545753 13.945905  L 10.545753 7.676668  L 2.507695 7.676668  Z  M 7.500694 2.840398  Q 6.896162 1.228309 7.836547 0.355094  Q 8.687373 -0.27183 9.515805 0.198363  Q 10.366632 0.668555 10.299462 1.698502  Q 10.053172 2.974739 8.373912 3.310591  L 7.388745 5.079412  L 13.008668 5.079412  L 13.008668 12.020353  L 11.239847 12.020353  L 11.239847 14.64  L 1.835991 14.64  L 1.835991 12.020353  L 0 12.020353  L 0 5.079412  L 6.246848 5.079412  L 7.500694 2.840398  Z  M 8.261959 2.482157  Q 9.538197 2.034353 9.381467 1.317869  Q 9.247126 0.690945 8.575421 0.914847  Q 7.993279 1.183529 8.261959 2.482157  Z "/></svg>
