<?xml version="1.0" encoding="UTF-8" standalone="no"?>
<svg
   width="1067.1183"
   height="1777.1765"
   version="1.1"
   id="svg1"
   sodipodi:docname="Aa20D.svg"
   inkscape:version="1.4 (e7c3feb1, 2024-10-09)"
   xmlns:inkscape="http://www.inkscape.org/namespaces/inkscape"
   xmlns:sodipodi="http://sodipodi.sourceforge.net/DTD/sodipodi-0.dtd"
   xmlns="http://www.w3.org/2000/svg"
   xmlns:svg="http://www.w3.org/2000/svg"
   xmlns:rdf="http://www.w3.org/1999/02/22-rdf-syntax-ns#"
   xmlns:cc="http://creativecommons.org/ns#"
   xmlns:dc="http://purl.org/dc/elements/1.1/">
  <title
     id="title1">Aa20D</title>
  <defs
     id="defs1" />
  <sodipodi:namedview
     id="namedview1"
     pagecolor="#ffffff"
     bordercolor="#000000"
     borderopacity="0.25"
     inkscape:showpageshadow="2"
     inkscape:pageopacity="0.0"
     inkscape:pagecheckerboard="0"
     inkscape:deskcolor="#d1d1d1"
     inkscape:zoom="0.25850359"
     inkscape:cx="700.18369"
     inkscape:cy="657.63109"
     inkscape:window-width="1616"
     inkscape:window-height="949"
     inkscape:window-x="1465"
     inkscape:window-y="162"
     inkscape:window-maximized="0"
     inkscape:current-layer="svg1" />
  <path
     id="path1"
     d="M 292.90234 0 L 0 199.86328 L 349.35156 524.04492 L 259.42383 1777.1758 L 809.62109 1777.1758 L 719.69141 524.04883 L 1067.1191 201.79883 L 774.18555 1.9160156 L 534.49609 356.28125 L 292.90234 0 z M 279.66406 69.564453 L 480.50195 365.74414 L 354.2832 460.4082 L 79.949219 205.83984 L 279.66406 69.564453 z M 787.47266 71.513672 L 987.15625 207.76758 L 713.99805 461.13477 L 590.93359 362.08398 L 787.47266 71.513672 z M 531.19727 442.0293 L 533.27148 443.5625 L 534.54883 445.44727 L 534.97266 444.82031 L 616.15234 504.8418 L 437.17969 504.8418 L 531.19727 442.0293 z M 397.99023 544.8418 L 671.05664 544.8418 L 680.25586 673.05469 L 388.78906 673.05469 L 397.99023 544.8418 z M 386.63477 703.05469 L 682.41016 703.05469 L 742.78125 1544.3184 L 326.26367 1544.3184 L 386.63477 703.05469 z M 744.17188 1563.6895 L 755.9043 1727.1758 L 313.14062 1727.1758 L 321.95703 1604.3184 L 744.17188 1604.3184 L 744.17188 1563.6895 z " />
  <metadata
     id="metadata1">
    <rdf:RDF>
      <cc:Work
         rdf:about="">
        <dc:title>Aa20D</dc:title>
        <dc:creator>
          <cc:Agent>
            <dc:title>S. J. P. Thomas</dc:title>
          </cc:Agent>
        </dc:creator>
        <dc:description>Sign drawn by S.J.P THOMAS from Junker, Hermann. 1941. Die Mastaba Des Snb (Seneb) Und Die Umliegenden Gräber. Gîza, V, p. 15
Simplified by S. Rosmorduc.</dc:description>
      </cc:Work>
    </rdf:RDF>
  </metadata>
</svg>
