<?xml version="1.0" encoding ="US-ASCII" standalone="yes"?>
<svg width="5.940022" height="17.977417">
<path style="fill:#000000; stroke:none" d=" M 5.940022 17.761059  Q 5.881015 17.977417 5.566312 17.977417  L 5.015581 17.977417  Q 4.681209 17.977417 4.622202 17.761059  L 4.622202 9.14606  Q 4.563196 8.457647 4.012465 8.241288  Q 2.41928 7.710227 1.268647 6.480918  Q 0.118014 5.251609 0 0.511393  Q 0.334372 0.177021 0.609737 0.511393  Q 1.022785 3.855114 1.937391 5.192602  Q 2.851997 6.53009 4.641871 7.021814  Q 4.661541 4.012465 4.740216 0.511393  Q 4.740216 0 5.281112 0  Q 5.822008 0 5.822008 0.511393  L 5.940022 17.761059  Z  M 4.641871 8.103606  L 4.641871 7.533206  Q 2.98968 6.884131 2.261929 6.244891  Q 1.534178 5.60565 1.140799 4.523858  Q 0.74742 3.442066 0.432717 1.770205  Q 0.570399 3.520741 0.845765 4.681209  Q 1.12113 5.841677 2.055405 6.628435  Q 2.98968 7.415193 4.641871 8.103606  Z  M 5.546643 17.308672  L 5.467967 0.668744  Q 5.467967 0.37371 5.290946 0.37371  Q 5.113926 0.37371 5.113926 0.668744  L 5.015581 17.308672  Q 5.015581 17.643045 5.281112 17.643045  Q 5.546643 17.643045 5.546643 17.308672  Z "/></svg>
