<?xml version="1.0" encoding ="US-ASCII" standalone="yes"?>
<svg width="4.626614" height="17.977417">
<path style="fill:#000000; stroke:none" d=" M 4.548123 17.977417  L 0.078491 17.977417  L 0.928907 15.050401  Q 0.236708 14.437309 0.236708 13.586893  Q 0.236708 12.716699 0.731136 12.301379  Q 0.177376 11.055419 0.068602 10.036897  Q -0.040172 9.018374 0.019159 7.989963  Q 0.098268 3.975204 1.799101 0.929525  L 2.313307 0  L 2.827513 0.929525  Q 4.548123 3.975204 4.607455 7.989963  Q 4.666786 8.998597 4.558012 10.027008  Q 4.449238 11.055419 3.915255 12.321156  Q 4.389906 12.716699 4.389906 13.586893  Q 4.389906 14.635081 3.697706 15.050401  L 4.548123 17.977417  Z  M 3.005507 11.589402  Q 3.381272 11.193859 3.509824 10.15556  Q 3.638375 9.11726 3.638375 7.277986  Q 3.658152 6.585786 3.262609 4.667404  Q 2.867067 2.847908 2.313307 1.562394  Q 1.759547 2.847908 1.364004 4.667404  Q 1.166233 5.755147 0.988239 7.277986  Q 0.988239 9.11726 1.11679 10.15556  Q 1.245342 11.193859 1.621107 11.589402  Q 2.313307 11.787173 3.005507 11.589402  Z  M 2.313307 14.635081  Q 3.223055 14.635081 3.361495 13.586893  Q 3.262609 12.578259 2.313307 12.518928  Q 1.344227 12.598036 1.265119 13.586893  Q 1.403559 14.694412 2.313307 14.635081  Z  M 3.559267 17.304995  L 3.025284 15.485497  L 1.60133 15.485497  L 1.067347 17.304995  L 3.559267 17.304995  Z "/></svg>
