<?xml version="1.0" encoding="UTF-8" standalone="no"?>
<svg
   xmlns:dc="http://purl.org/dc/elements/1.1/"
   xmlns:cc="http://creativecommons.org/ns#"
   xmlns:rdf="http://www.w3.org/1999/02/22-rdf-syntax-ns#"
   xmlns:svg="http://www.w3.org/2000/svg"
   xmlns="http://www.w3.org/2000/svg"
   xmlns:sodipodi="http://sodipodi.sourceforge.net/DTD/sodipodi-0.dtd"
   xmlns:inkscape="http://www.inkscape.org/namespaces/inkscape"
   width="1800"
   height="1800"
   id="svg2"
   sodipodi:version="0.32"
   inkscape:version="0.46"
   sodipodi:docname="US248Aa3B.svg"
   inkscape:output_extension="org.inkscape.output.svg.inkscape"
   version="1.0">
  <metadata
     id="metadata9">
    <rdf:RDF>
      <cc:Work
         rdf:about="">
        <dc:format>image/svg+xml</dc:format>
        <dc:type
           rdf:resource="http://purl.org/dc/dcmitype/StillImage" />
      </cc:Work>
    </rdf:RDF>
  </metadata>
  <defs
     id="defs7">
    <inkscape:perspective
       sodipodi:type="inkscape:persp3d"
       inkscape:vp_x="0 : 6.1894531 : 1"
       inkscape:vp_y="0 : 1000 : 0"
       inkscape:vp_z="16.876099 : 6.1894531 : 1"
       inkscape:persp3d-origin="8.4380493 : 4.1263021 : 1"
       id="perspective11" />
  </defs>
  <sodipodi:namedview
     inkscape:window-height="752"
     inkscape:window-width="1280"
     inkscape:pageshadow="2"
     inkscape:pageopacity="0.0"
     guidetolerance="10.0"
     gridtolerance="10.0"
     objecttolerance="10.0"
     borderopacity="1.0"
     bordercolor="#666666"
     pagecolor="#ffffff"
     id="base"
     showgrid="false"
     inkscape:zoom="0.10783378"
     inkscape:cx="932.78689"
     inkscape:cy="487.20951"
     inkscape:window-x="0"
     inkscape:window-y="22"
     inkscape:current-layer="svg2" />
  <path
     style="fill:#000000;stroke:none"
     d="M 494.625,557.46875 C 426.36637,566.91994 392.21876,592.13854 392.21875,633.09375 C 392.21875,683.50013 412.18868,708.68749 452.09375,708.6875 C 513.00146,698.18617 543.43751,668.2625 543.4375,618.90625 C 537.13671,577.95107 520.87834,557.46878 494.625,557.46875 z M 661.59375,650.40625 C 593.33511,659.85745 559.18749,685.0761 559.1875,726.03125 C 559.1875,775.3875 578.61385,800.06249 617.46875,800.0625 C 679.42659,790.6113 710.40626,760.68762 710.40625,710.28125 C 703.05531,670.3762 686.79696,650.40627 661.59375,650.40625 z M 296.125,656.71875 C 227.86637,666.16995 193.74999,691.35731 193.75,732.3125 C 193.75,781.66876 213.68869,806.34374 253.59375,806.34375 C 314.50146,796.89255 344.96876,766.9689 344.96875,716.5625 C 338.66796,676.65745 322.37834,656.71873 296.125,656.71875 z M 991.5,689.78125 C 890.13604,690.44515 776.29517,729.54336 682.0625,836.28125 C 420.86362,1132.1427 633.96855,1386.3794 886.59574,1581.8142 C 1105.391,1751.0763 1410.5817,1927.9247 1625.5938,1713.6562 C 1836.3585,1503.6204 1622.8811,1210.1392 1458.8803,1013.8052 C 1349.8549,883.28513 1183.7158,688.5223 991.5,689.78125 z M 1187.6875,881.96875 C 1313.7417,986.28279 1421.6062,1116.1318 1520.8438,1260 C 1620.0814,1403.8682 1658.0147,1557.4062 1565.75,1656.9688 C 1472.1412,1757.9817 1315.569,1732.2987 1164.875,1643.5625 C 1014.1809,1554.8262 880.27738,1453.2458 763.1875,1338.7812 C 646.09776,1224.3168 616.2574,1055.5385 751.375,904.03125 C 867.64229,773.6608 1057.6687,774.37389 1187.6875,881.96875 z M 182.71875,855.1875 C 114.46011,865.68884 80.343753,891.41983 80.34375,932.375 C 80.34375,981.73124 99.770075,1006.4063 138.625,1006.4062 C 200.58284,996.95508 231.5625,967.03136 231.5625,916.625 C 224.21158,875.6698 207.92195,855.18751 182.71875,855.1875 z M 141.78125,1042.625 C 73.522606,1052.0762 39.374999,1077.2949 39.375,1118.25 C 39.375,1167.6063 59.344947,1192.2813 99.25,1192.2812 C 160.15772,1182.8301 190.59374,1152.9064 190.59375,1102.5 C 184.29295,1062.595 168.03458,1042.625 141.78125,1042.625 z M 118.125,1231.6562 C 49.866355,1242.1575 15.75,1267.3762 15.75,1307.2812 C 15.75,1357.6875 35.719947,1382.875 75.625,1382.875 C 136.53272,1373.4238 166.96874,1343.5 166.96875,1293.0938 C 160.66795,1252.1386 144.37832,1231.6563 118.125,1231.6562 z M 102.375,1420.6875 C 34.116361,1430.1387 0,1455.326 0,1496.2812 C 4.7369516e-15,1546.6877 19.938698,1571.9063 59.84375,1571.9062 C 120.75146,1561.4048 151.21874,1531.4813 151.21875,1482.125 C 144.91796,1441.1698 128.62833,1420.6875 102.375,1420.6875 z"
     id="path4"
     sodipodi:nodetypes="csccccsccccsccccssssscsssssscsccccsccccsccccsccc" />
</svg>
