<?xml version="1.0" encoding="UTF-8" standalone="no"?>
<svg
   xmlns:dc="http://purl.org/dc/elements/1.1/"
   xmlns:cc="http://creativecommons.org/ns#"
   xmlns:rdf="http://www.w3.org/1999/02/22-rdf-syntax-ns#"
   xmlns:svg="http://www.w3.org/2000/svg"
   xmlns="http://www.w3.org/2000/svg"
   xmlns:sodipodi="http://sodipodi.sourceforge.net/DTD/sodipodi-0.dtd"
   xmlns:inkscape="http://www.inkscape.org/namespaces/inkscape"
   width="17.709974"
   height="17.96875"
   id="svg3031"
   sodipodi:version="0.32"
   inkscape:version="0.46"
   sodipodi:docname="Aa49A.svg"
   inkscape:output_extension="org.inkscape.output.svg.inkscape"
   version="1.0">
  <metadata
     id="metadata3038">
    <rdf:RDF>
      <cc:Work
         rdf:about="">
        <dc:format>image/svg+xml</dc:format>
        <dc:type
           rdf:resource="http://purl.org/dc/dcmitype/StillImage" />
      </cc:Work>
    </rdf:RDF>
  </metadata>
  <defs
     id="defs3036">
    <inkscape:perspective
       sodipodi:type="inkscape:persp3d"
       inkscape:vp_x="0 : 4.8000002 : 1"
       inkscape:vp_y="0 : 1000 : 0"
       inkscape:vp_z="17.713713 : 4.8000002 : 1"
       inkscape:persp3d-origin="8.8568563 : 3.2000001 : 1"
       id="perspective3040" />
  </defs>
  <sodipodi:namedview
     inkscape:window-height="667"
     inkscape:window-width="640"
     inkscape:pageshadow="2"
     inkscape:pageopacity="0.0"
     guidetolerance="10.0"
     gridtolerance="10.0"
     objecttolerance="10.0"
     borderopacity="1.0"
     bordercolor="#666666"
     pagecolor="#ffffff"
     id="base"
     showgrid="false"
     inkscape:zoom="25.711304"
     inkscape:cx="8.854987"
     inkscape:cy="8.984375"
     inkscape:window-x="88"
     inkscape:window-y="67"
     inkscape:current-layer="svg3031" />
  <path
     style="fill:#000000;stroke:none"
     d="M 7.9599738,0 L 8.4912238,2.0625 C 8.4312242,2.1325 8.3849738,2.20125 8.3349738,2.28125 C 8.2649743,2.39125 8.1974738,2.52625 8.1474738,2.65625 L 6.3349738,2.15625 L 6.3349738,5.1875 L 8.0537238,4.75 C 8.1237242,5 8.2149738,5.21625 8.3349738,5.40625 C 8.5549743,5.76625 8.8612238,6.055 9.2412238,6.125 L 9.1474738,9.75 C 8.0833523,9.8594909 7.0265961,9.9793957 5.9599738,10.0625 C 5.5569906,10.0625 5.2638258,9.922969 5.0537238,9.84375 C 4.8436226,9.7645308 4.5157618,9.555789 4.1162238,9.15625 C 3.8191309,8.8591579 3.3559248,8.6875 2.6474738,8.6875 C 2.6243259,8.6874999 2.5805568,8.6875 2.5537238,8.6875 C 2.5403069,8.6875 2.5344928,8.687201 2.5224738,8.6875 L 0.92872379,5.9375 C 0.74067078,5.602212 0.71812379,5.357877 0.77247379,5.15625 C 0.81785482,4.987852 0.88964879,4.857775 1.0224738,4.78125 C 1.0392908,4.771561 1.0673808,4.758188 1.0849738,4.75 C 1.1712268,4.70986 1.2616858,4.6875 1.3662238,4.6875 C 1.6598357,4.6875 2.0245168,4.839805 2.2412238,5.28125 L 2.3662238,5.625 C 2.4107969,5.673577 2.4957718,5.6875 2.5849738,5.6875 C 2.8468839,5.6874999 3.2099478,5.510239 3.0537238,5.25 L 2.8662238,4.90625 C 2.4554369,4.243936 1.9219458,3.90625 1.3974738,3.90625 C 1.3704708,3.90625 1.3619378,3.904329 1.3349738,3.90625 C 1.1514178,3.919328 0.94795279,3.962303 0.77247379,4.0625 C 0.73676482,4.08289 0.71417379,4.104576 0.67872379,4.125 C 0.37552277,4.299684 0.15097779,4.577387 0.053723787,4.9375 C -0.051679213,5.327811 -0.013620213,5.802181 0.27247379,6.3125 L 1.6787238,8.75 L 0.86622379,8.75 C 0.85737881,8.747959 0.84123379,8.71875 0.83497379,8.71875 C 0.82245278,8.7187498 0.81798579,8.75 0.80372379,8.75 C 0.6807118,8.75 0.63177879,8.828802 0.67872379,9.03125 C 0.73383177,9.2689058 0.94551779,9.480842 1.3037238,9.6875 C 1.3037238,10.507241 1.3465638,11.061317 1.4912238,11.34375 C 1.6634388,11.646847 2.1677858,11.78125 2.9599738,11.78125 L 3.3974738,11.78125 L 4.3349738,13.375 C 4.3705947,13.462395 4.4341418,13.5 4.5224738,13.5 C 4.7757297,13.5 5.1354908,13.20873 4.9912238,13 L 4.2724738,11.71875 L 6.0537238,11.59375 L 9.0849738,11.625 L 8.9287238,17.5625 C 8.9187241,17.8525 9.1799738,17.96875 9.4599738,17.96875 C 9.739974,17.96875 10.032474,17.8525 10.022474,17.5625 L 9.8349738,11.625 L 17.709974,11.6875 L 17.709974,6.28125 C 17.709974,5.559535 17.319622,5.21875 16.553724,5.21875 C 15.787817,5.21875 15.395682,5.416612 15.366224,5.84375 C 15.091585,8.2031541 14.906486,9.349848 14.647474,9.65625 C 13.974885,9.5783081 13.310789,9.5625 12.678724,9.5625 C 12.313914,9.5625002 11.968989,9.59375 11.616224,9.59375 C 10.998455,9.60394 10.386809,9.6323281 9.7724738,9.6875 L 9.6787238,6.125 C 10.048724,6.045 10.364974,5.75625 10.584974,5.40625 C 10.704974,5.21625 10.806224,5 10.866224,4.75 L 12.553724,5.1875 L 12.553724,2.15625 L 10.741224,2.65625 C 10.691224,2.5262499 10.644974,2.39125 10.584974,2.28125 C 10.534974,2.21125 10.478724,2.16375 10.428724,2.09375 L 10.991224,0 L 7.9599738,0 z M 8.7412238,0.625 L 10.178724,0.625 L 9.8974738,1.65625 C 9.7574735,1.5962501 9.6199738,1.5625 9.4599738,1.5625 C 9.3099734,1.5625 9.1524738,1.59625 9.0224738,1.65625 L 8.7412238,0.625 z M 9.4599738,2.15625 C 9.6799734,2.1562501 9.8949738,2.29375 10.084974,2.59375 C 10.264974,2.90375 10.397474,3.34375 10.397474,3.84375 C 10.397474,4.34375 10.264974,4.815 10.084974,5.125 C 9.8949742,5.425 9.6799738,5.5625 9.4599738,5.5625 C 9.2499734,5.5625 9.0249738,5.425 8.8349738,5.125 C 8.6449743,4.815 8.5224738,4.34375 8.5224738,3.84375 C 8.522474,3.34375 8.6449738,2.90375 8.8349738,2.59375 C 9.0249743,2.29375 9.2499738,2.15625 9.4599738,2.15625 z M 6.9599738,2.96875 L 7.9912238,3.25 C 7.9612237,3.44 7.9287238,3.63375 7.9287238,3.84375 C 7.9287239,3.93375 7.9499738,4.035 7.9599738,4.125 L 6.9599738,4.40625 L 6.9599738,2.96875 z M 11.959974,2.96875 L 11.959974,4.40625 L 10.959974,4.125 C 10.969974,4.035 10.991224,3.93375 10.991224,3.84375 C 10.991224,3.63375 10.958724,3.41875 10.928724,3.21875 L 11.959974,2.96875 z M 16.553724,5.78125 C 16.863027,5.78125 16.991223,5.957215 16.991224,6.28125 L 16.991224,10.03125 L 15.584974,10.03125 L 16.053724,6.125 C 16.068454,5.918795 16.244417,5.78125 16.553724,5.78125 z"
     id="path3033" />
</svg>
