<?xml version="1.0" encoding ="US-ASCII" standalone="yes"?>
<svg width="7.386947" height="17.977417">
<path style="fill:#000000; stroke:none" d=" M 5.822874 17.977417  L 1.564073 17.977417  L 2.581663 13.417108  L 0 13.417108  L 0 11.739969  L 2.185933 11.739969  Q 1.658294 10.552781 1.554651 9.572881  Q 1.451007 8.592979 1.50754 7.613078  Q 1.582917 3.787695 3.203523 0.904524  L 3.693474 0  L 4.183424 0.904524  Q 5.822874 3.787695 5.879407 7.631922  Q 5.93594 8.592979 5.832296 9.572881  Q 5.728653 10.552781 5.219858 11.739969  L 7.386947 11.739969  L 7.386947 13.417108  L 4.767596 13.417108  L 5.822874 17.977417  Z  M 4.353023 11.739969  Q 4.711063 10.665847 4.833551 9.676524  Q 4.956038 8.687201 4.956038 6.953529  Q 4.974883 6.275136 4.597998 4.466088  Q 4.221113 2.713572 3.693474 1.50754  Q 3.165834 2.713572 2.788949 4.466088  Q 2.600507 5.483677 2.430909 6.953529  Q 2.430909 8.687201 2.553396 9.676524  Q 2.675884 10.665847 3.033925 11.739969  L 4.353023 11.739969  Z  M 4.880661 17.336712  L 4.089203 13.417108  L 3.297744 13.417108  L 2.506286 17.336712  L 4.880661 17.336712  Z  M 0.546483 12.927157  L 6.896996 12.927157  L 6.896996 12.248764  L 0.527639 12.248764  L 0.546483 12.927157  Z "/></svg>
