<?xml version="1.0" encoding="UTF-8" standalone="no"?>
<svg
   xmlns:dc="http://purl.org/dc/elements/1.1/"
   xmlns:cc="http://creativecommons.org/ns#"
   xmlns:rdf="http://www.w3.org/1999/02/22-rdf-syntax-ns#"
   xmlns:svg="http://www.w3.org/2000/svg"
   xmlns="http://www.w3.org/2000/svg"
   xmlns:sodipodi="http://sodipodi.sourceforge.net/DTD/sodipodi-0.dtd"
   xmlns:inkscape="http://www.inkscape.org/namespaces/inkscape"
   width="14.874352"
   height="17.96875"
   id="svg3194"
   sodipodi:version="0.32"
   inkscape:version="0.46"
   sodipodi:docname="Aa58.svg"
   inkscape:output_extension="org.inkscape.output.svg.inkscape"
   version="1.0">
  <metadata
     id="metadata3201">
    <rdf:RDF>
      <cc:Work
         rdf:about="">
        <dc:format>image/svg+xml</dc:format>
        <dc:type
           rdf:resource="http://purl.org/dc/dcmitype/StillImage" />
      </cc:Work>
    </rdf:RDF>
  </metadata>
  <defs
     id="defs3199">
    <inkscape:perspective
       sodipodi:type="inkscape:persp3d"
       inkscape:vp_x="0 : 8.9899998 : 1"
       inkscape:vp_y="0 : 1000 : 0"
       inkscape:vp_z="7.5 : 8.9899998 : 1"
       inkscape:persp3d-origin="3.75 : 5.9933332 : 1"
       id="perspective3203" />
  </defs>
  <sodipodi:namedview
     inkscape:window-height="708"
     inkscape:window-width="1024"
     inkscape:pageshadow="2"
     inkscape:pageopacity="0.0"
     guidetolerance="10.0"
     gridtolerance="10.0"
     objecttolerance="10.0"
     borderopacity="1.0"
     bordercolor="#666666"
     pagecolor="#ffffff"
     id="base"
     showgrid="false"
     inkscape:zoom="25.695218"
     inkscape:cx="3.75"
     inkscape:cy="8.9899998"
     inkscape:window-x="-4"
     inkscape:window-y="-4"
     inkscape:current-layer="svg3194" />
  <path
     style="fill:#000000;stroke:none"
     d="M 5.4472561,0 L 4.0097561,3.25 C 3.9297561,3.45 4.1222561,3.67 4.3222561,3.75 C 4.3722561,3.77 4.4185061,3.78125 4.4785061,3.78125 C 4.6685061,3.78125 4.8772561,3.7125 4.9472561,3.5625 L 5.6347561,1.59375 L 7.3535061,3.96875 L 7.2910061,8.1875 C 7.0995332,8.1843458 6.9366698,8.191235 6.7910061,8.1875 C 5.4779164,8.1538304 4.528433,8.1023283 3.9785061,8.03125 C 3.42858,7.9601707 3.2296031,7.7783806 3.1660061,7.625 C 3.1246177,7.5251809 2.9598567,7.4375 2.8535061,7.4375 C 2.7964413,7.4374999 2.7105253,7.53376 2.6347561,7.5625 C 2.5087868,7.6102819 2.3696063,7.625 2.2285061,7.625 C 2.1639558,7.6249999 2.1087223,7.625 2.0410061,7.625 C 2.0375653,7.6250002 2.0245739,7.625 2.0097561,7.625 C 1.8556354,7.6250002 1.1509595,7.638048 0.88475608,7.65625 C 0.44705988,7.6861777 0.15323588,7.9346589 0.041006084,8.3125 C -0.071223816,8.6903403 0.048066484,9.0207022 0.38475608,9.3125 C 0.72144568,9.6042978 1.1057285,9.788956 1.5097561,9.875 C 1.7209517,9.9199758 1.8603309,9.9375 1.9785061,9.9375 C 2.0864053,9.9375 2.1669031,9.943745 2.1972561,9.90625 C 2.2608531,9.8276889 2.9202546,9.788732 4.1660061,9.78125 C 5.1706601,9.7752157 6.2279578,9.7511677 7.2910061,9.75 L 7.1660061,17.96875 L 8.2910061,17.96875 L 8.1660061,9.75 C 9.4563701,9.7561962 10.713336,9.8668844 11.916006,10.0625 C 11.489533,10.840626 11.181841,11.521378 11.009756,12.09375 C 10.83767,12.666122 10.920647,13.074397 11.291006,13.34375 C 11.468778,13.473039 11.699668,13.53125 11.947256,13.53125 C 12.215477,13.53125 12.503347,13.464235 12.853506,13.3125 C 13.147591,13.520388 13.444727,13.625 13.728506,13.625 C 13.863472,13.625 14.002119,13.609525 14.134756,13.5625 C 14.546263,13.416601 14.79365,13.023514 14.853506,12.40625 C 14.91336,11.788986 14.857669,11.038027 14.509756,10.21875 C 14.161842,9.3994721 13.59577,8.8355925 12.978506,8.5625 C 12.377702,8.2966903 11.532959,8.21875 10.478506,8.21875 C 10.460388,8.2187498 9.1954343,8.1976484 8.1660061,8.1875 L 8.1035061,3.96875 L 9.8222561,1.59375 L 10.509756,3.5625 C 10.579756,3.7125 10.788506,3.78125 10.978506,3.78125 C 11.038506,3.78125 11.084756,3.77 11.134756,3.75 C 11.334756,3.67 11.537256,3.45 11.447256,3.25 L 10.009756,0 L 7.7285061,3.15625 L 5.4472561,0 z M 2.5410061,8 C 2.4886315,8.5237387 2.2901054,9.0123484 1.9160061,9.46875 C 1.8325452,9.485822 1.7668525,9.5 1.6972561,9.5 C 1.4923332,9.4999999 1.2945987,9.4292562 1.0097561,9.28125 C 0.62817468,9.0829769 0.48115008,8.8430738 0.54100608,8.5625 C 0.60086208,8.2819249 0.77165458,8.1148747 1.0410061,8.0625 C 1.1071271,8.0496439 1.2616913,8.03125 1.4472561,8.03125 C 1.721817,8.0312504 2.0450339,8.03125 2.1035061,8.03125 C 2.2559394,8.0312505 2.3816067,8.0318797 2.5410061,8 z M 3.0722561,8.21875 C 3.8653464,8.3833541 4.6282031,8.5250895 5.5410061,8.5625 C 6.3708319,8.5965087 9.6012058,8.6200113 10.197256,8.625 C 11.091355,8.6324811 11.823605,8.7053328 12.384756,8.84375 C 12.945903,8.9821666 13.355728,9.2201007 13.759756,9.78125 C 14.163784,10.342399 14.39114,11.054626 14.447256,11.9375 C 14.501463,12.79036 14.353291,13.011905 13.853506,13.15625 C 13.818997,13.15625 13.136974,12.983541 13.041006,12.5 C 12.943737,12.009929 12.788587,11.407317 12.822256,10.8125 C 12.855924,10.217681 12.595125,9.769801 12.228506,9.6875 C 11.86189,9.6051969 11.390888,9.532346 10.822256,9.46875 C 10.253625,9.4051532 8.9962248,9.3587134 7.0097561,9.34375 C 6.3985394,9.3391454 5.8592632,9.34375 5.3847561,9.34375 C 4.3171059,9.3437496 2.9920417,9.40625 2.9160061,9.40625 C 2.6313369,9.4062499 2.6104105,9.376454 2.7285061,9.1875 C 2.8781466,8.9480764 2.9899538,8.6751516 3.0722561,8.21875 z M 12.166006,10.28125 C 12.353055,10.28125 12.409622,10.373482 12.353506,10.78125 C 12.297391,11.189019 12.326222,11.70404 12.416006,12.34375 C 12.493933,12.898974 12.109433,13.0625 12.041006,13.0625 C 12.039217,13.0625 12.011101,13.06272 12.009756,13.0625 C 11.527167,12.983939 11.290135,12.798603 11.447256,12.21875 C 11.604379,11.638895 11.893183,11.121239 12.166006,10.28125 z"
     id="path3196" />
</svg>
