<?xml version="1.0" encoding="UTF-8" standalone="no"?>
<svg
   width="1807.4729"
   height="1209.2795"
   version="1.1"
   id="svg4"
   sodipodi:docname="Aa81.svg"
   inkscape:version="1.4 (e7c3feb1, 2024-10-09)"
   xmlns:inkscape="http://www.inkscape.org/namespaces/inkscape"
   xmlns:sodipodi="http://sodipodi.sourceforge.net/DTD/sodipodi-0.dtd"
   xmlns="http://www.w3.org/2000/svg"
   xmlns:svg="http://www.w3.org/2000/svg"
   xmlns:rdf="http://www.w3.org/1999/02/22-rdf-syntax-ns#"
   xmlns:cc="http://creativecommons.org/ns#"
   xmlns:dc="http://purl.org/dc/elements/1.1/">
  <title
     id="title4">Aa81</title>
  <defs
     id="defs4" />
  <sodipodi:namedview
     id="namedview4"
     pagecolor="#ffffff"
     bordercolor="#000000"
     borderopacity="0.25"
     inkscape:showpageshadow="2"
     inkscape:pageopacity="0.0"
     inkscape:pagecheckerboard="0"
     inkscape:deskcolor="#d1d1d1"
     inkscape:zoom="0.36111111"
     inkscape:cx="1188"
     inkscape:cy="330.92308"
     inkscape:window-width="1584"
     inkscape:window-height="1076"
     inkscape:window-x="1689"
     inkscape:window-y="25"
     inkscape:window-maximized="0"
     inkscape:current-layer="svg4"
     showguides="true" />
  <metadata
     id="metadata4">
    <rdf:RDF>
      <cc:Work
         rdf:about="">
        <dc:title>Aa81</dc:title>
        <dc:creator>
          <cc:Agent>
            <dc:title>Serge Rosmorduc from elements by S. Thomas</dc:title>
          </cc:Agent>
        </dc:creator>
        <dc:description>A sign in the latest versions of the Winglyph libraries.
</dc:description>
      </cc:Work>
    </rdf:RDF>
  </metadata>
  <path
     id="path44"
     style="stroke-linecap:square"
     d="M 1731.7695,3.7695313 V 450.38477 h 70 V 3.7695313 Z m -669.7129,0.3652343 c -52.7042,0 -208.87174,9.2226914 -255.29098,115.7285144 -4.04191,9.27389 -14.5463,31.33399 -0.7207,31.33399 1.48939,0 16.41879,-2.83204 34.13867,-2.83204 41.7793,0 75.96183,104.11485 77.32813,126.25977 -24.3795,86.07596 -15.33327,176.33344 -6.44727,219.80664 9.57005,46.82245 32.8464,98.54532 64.78125,150.57813 -135.8521,79.43139 -243.80031,174.81467 -336,238.89453 V 113.78906 H 365.31836 V 696.9082 H 150.9082 v 170.69336 c -22.76135,-0.41247 -46.00375,2.27317 -69.25195,10.33594 -38.493127,13.3497 -62.948414,45.7661 -73.7597656,79.25 -10.8113514,33.4839 -10.4122431,69.3721 0.5234375,101.4648 13.2383181,38.8501 42.5505511,65.3691 73.3359371,82.1524 30.785391,16.7833 63.979441,25.4935 92.982421,31.3789 113.59458,23.0513 227.82391,24.2827 338.35742,28.5547 186.90556,7.2238 374.70219,11.9574 562.7422,5.4707 149.1186,-5.1441 305.2172,-18.551 449.5391,-79.7344 89.2001,-37.815 161.1557,-105.7416 213.6425,-182.69726 59.2746,-86.908 84.0326,-208.13373 30.6836,-308.89843 C 1744.1415,586.59872 1699.8264,556.03 1650.2285,537.10742 1577.3007,444.0775 1492.9277,291.34976 1358.2441,239.29883 1351.557,199.69826 1336.4518,126.59126 1282.8262,74.445312 1237.2164,30.094043 1171.2459,9.7486394 1097.2246,5.1933594 1085.679,4.4828694 1073.944,4.1347656 1062.0566,4.1347656 Z m -6.6523,47.3906254 c 69.3498,0 124.7646,20.067223 163.498,47.871093 5.3853,47.334566 -35.3805,76.756766 -38.6914,79.062496 -30.9791,21.57387 -69.7209,26.63107 -105.6972,35.60743 -9.0289,0.92699 -1.91,3.08608 3.084,3.92578 22.9882,3.98338 70.7293,9.90039 97.1367,9.90039 17.9317,0 72.8931,-10.80603 102.2011,-54.75978 14.7568,34.57247 22.7432,71.28946 26.0743,91.67969 1.81,10.98529 9.5641,19.93762 20.1875,23.26953 90.7406,27.81951 166.1859,132.4026 235.7265,226.43945 -39.2935,-5.78042 -77.3866,-7.82396 -118.1269,-7.30664 -134.2548,1.70476 -264.5815,37.74234 -383.9239,95.01563 -13.2461,-22.09718 -24.4196,-45.18842 -32.5449,-69.66992 -14.855,-92.0245 175.6823,-257.70635 154.2012,-264.66407 -33.1981,-10.75282 -178.1649,97.21869 -208.31055,219.2461 -23.46269,-101.89919 6.59533,-210.42318 6.44727,-212.79688 -1.5748,-29.10179 -5.99554,-46.37054 -12.33594,-63.36328 -6.3405,-16.99263 -13.92312,-34.4265 -26.07422,-76.53906 -3.0867,-10.77553 -14.14459,-32.77901 -20.74609,-34.486329 18.5881,-13.7753 37.43297,-28.093899 64.48437,-37.568359 -7.899,7.63141 -13.17773,18.66265 -13.17773,31.40039 0,22.958988 16.35814,41.494048 36.44729,41.494138 20.089,0 36.4472,-18.53515 36.4472,-41.494138 v -0.279296 c -0.1,-18.41591 -10.9524,-33.612554 -25.5136,-38.970704 12.9019,-2.641418 26.0778,-2.971377 39.207,-3.013671 z M 439.46094,199.95508 h 126.24218 v 729.07226 c -38.60526,19.53053 -78.34465,32.64945 -118.87695,33.61328 -61.58319,1.46437 -103.19893,-51.20204 -221.77734,-83.60546 V 767.04297 h 214.41211 z m 1166.38676,395.8789 c 48.4323,14.5483 83.8516,37.53543 101.9921,71.79883 37.751,71.3035 20.3818,167.74297 -26.6503,236.70117 -46.4532,68.1093 -109.3693,126.42152 -183.1348,157.69332 -130.8887,55.4886 -278.1319,69.171 -424.6309,74.2247 -185.25896,6.3909 -371.35121,1.7384 -557.62497,-5.461 -111.76243,-4.3194 -222.13731,-5.9015 -327.13867,-27.209 -25.60673,-5.1962 -52.66922,-12.9373 -73.39844,-24.2382 C 43.335598,1040.132 68.594647,956.55817 104.5918,944.07422 c 40.98978,-14.2157 92.89078,-2.36415 143.38867,15.74805 53.62973,19.2353 114.05708,74.85453 200.50976,72.79883 105.19432,-2.5015 192.9092,-61.66476 265.85743,-116.05665 97.75355,-72.88731 190.91612,-148.59948 292.29884,-208.61718 132.6135,-78.5064 282.6148,-128.80414 435.039,-130.73829 43.8138,-0.55596 109.0512,2.07044 164.1622,18.625 z"
     sodipodi:nodetypes="cccccssssccccccccccsssssssssccsssscsccsccccsccsccscccsssccsscccsccccsssssssscssscss" />
</svg>
