<?xml version="1.0" encoding="UTF-8" standalone="no"?>
<svg
   xmlns:dc="http://purl.org/dc/elements/1.1/"
   xmlns:cc="http://web.resource.org/cc/"
   xmlns:rdf="http://www.w3.org/1999/02/22-rdf-syntax-ns#"
   xmlns:svg="http://www.w3.org/2000/svg"
   xmlns="http://www.w3.org/2000/svg"
   xmlns:sodipodi="http://sodipodi.sourceforge.net/DTD/sodipodi-0.dtd"
   xmlns:inkscape="http://www.inkscape.org/namespaces/inkscape"
   width="1800"
   height="1800"
   id="svg2"
   sodipodi:version="0.32"
   inkscape:version="0.44"
   sodipodi:docname="B6.svg"
   sodipodi:docbase="/home/rosmord/Travail/Gsigns/SThomasDetail/ManuelDeCodage/Btmp"
   version="1.0">
  <metadata
     id="metadata9">
    <rdf:RDF>
      <cc:Work
         rdf:about="">
        <dc:format>image/svg+xml</dc:format>
        <dc:type
           rdf:resource="http://purl.org/dc/dcmitype/StillImage" />
      </cc:Work>
    </rdf:RDF>
  </metadata>
  <defs
     id="defs7" />
  <sodipodi:namedview
     inkscape:window-height="953"
     inkscape:window-width="1255"
     inkscape:pageshadow="2"
     inkscape:pageopacity="0.0"
     guidetolerance="10.0"
     gridtolerance="10.0"
     objecttolerance="10.0"
     borderopacity="1.0"
     bordercolor="#666666"
     pagecolor="#ffffff"
     id="base"
     inkscape:zoom="0.41555556"
     inkscape:cx="736.85924"
     inkscape:cy="729.02373"
     inkscape:window-x="25"
     inkscape:window-y="0"
     inkscape:current-layer="svg2"
     width="1800px"
     height="1800px" />
  <path
     style="fill:black;stroke:none"
     d="M 848.5625,2.5625 C 843.35479,2.5408803 838.03,2.6275499 832.625,2.84375 C 746.14508,6.3029377 698.77085,49.54182 690.46875,132.5625 C 687.70138,149.1666 687.7014,163.70313 690.46875,176.15625 C 676.63194,203.82981 670.39759,223.1806 671.78125,234.25 C 671.78125,238.40106 678.69445,240.5 692.53125,240.5 L 686.3125,252.9375 C 689.07986,257.08856 692.53639,259.15624 696.6875,259.15625 C 693.92015,264.69091 693.92013,270.24653 696.6875,275.78125 L 705,275.78125 C 699.46538,303.45481 710.51398,316.60241 738.1875,315.21875 L 765.1875,315.21875 C 766.57112,326.28819 770.02778,335.94793 775.5625,344.25 C 781.09723,352.55206 790.7882,362.95314 804.625,375.40625 C 764.49829,379.55725 736.81421,390.6059 721.59375,408.59375 C 669.01397,473.62659 617.13356,558.0367 565.9375,661.8125 L 495.34375,680.5 L 453.84375,612 C 433.08868,581.55911 417.87332,564.27607 408.1875,560.125 C 384.66496,546.28821 359.75866,537.27598 333.46875,533.125 C 330.70139,526.20661 332.09027,520.6823 337.625,516.53125 C 354.22908,522.06597 377.74661,524.84376 408.1875,524.84375 C 420.64058,526.22741 426.16488,515.14751 424.78125,491.625 C 441.38533,486.09027 442.77431,479.17706 428.9375,470.875 C 445.54157,466.72394 446.93046,457.71179 433.09375,443.875 L 437.25,437.65625 C 446.93572,436.27251 451.78125,430.74823 451.78125,421.0625 C 444.86289,412.76044 433.78293,396.15622 418.5625,371.25 C 414.41151,349.11116 404.72044,328.00079 389.5,307.9375 C 374.27946,287.87412 352.15102,277.84375 323.09375,277.84375 C 294.03649,277.84375 263.23514,286.14581 230.71875,302.75 C 198.20236,319.3541 185.42539,353.95144 192.34375,406.53125 C 199.26211,459.11097 224.16853,484.69615 267.0625,483.3125 C 265.67887,498.53294 258.73433,511.68057 246.28125,522.75 C 218.60773,525.51734 189.5659,540.73273 159.125,568.40625 C 139.75346,604.38187 125.21698,640.36819 115.53125,676.34375 C 107.22917,672.19274 93.402691,665.95842 74.03125,657.65625 C 65.729161,652.12157 58.476483,657.30647 52.25,673.21875 C 46.023503,689.13101 47.041661,701.93934 55.34375,711.625 C 71.947825,715.77601 87.163189,721.33167 101,728.25 C 85.779551,794.66642 79.576394,881.82304 82.34375,989.75 L 44.96875,1089.375 L 47.03125,1087.3125 C 84.390495,1103.9167 109.29692,1093.5157 121.75,1056.1562 L 128,952.40625 L 142.53125,792.5625 L 161.1875,746.90625 C 173.64058,751.0574 195.09036,749.66848 225.53125,742.75 C 235.21697,775.95821 234.5381,807.80912 223.46875,838.25 C 206.86457,878.3767 200.63016,914.67103 204.78125,947.1875 C 208.93234,979.70395 222.75872,1003.5921 246.28125,1018.8125 C 211.68927,1043.7188 196.13453,1075.8777 199.59375,1115.3125 C 203.05298,1154.7473 209.2873,1191.0732 218.28125,1224.2812 C 227.2752,1257.4894 231.07123,1391.002 229.6875,1624.8438 C 211.6997,1698.1787 159.81929,1739.0103 74.03125,1747.3125 C 31.137284,1756.998 7.6198458,1774.9914 3.46875,1801.2812 L 331.40625,1801.2812 C 354.92879,1781.9097 355.60756,1736.2327 333.46875,1664.2812 C 333.46875,1607.5504 337.9748,1548.4172 346.96875,1486.8438 C 355.9627,1425.2699 365.65369,1376.8461 376.03125,1341.5625 C 386.40885,1306.2785 381.19269,1254.0272 360.4375,1184.8438 L 405.21875,1184.8438 L 405.21875,1801.2188 L 1063.6875,1801.2188 L 1063.6875,938.71875 C 1063.6875,929.19357 1066.6624,923.0625 1076.1875,923.0625 C 1085.7125,923.06252 1091.8125,929.19357 1091.8125,938.71875 L 1091.8125,1085.625 L 1129.3125,1085.625 L 1129.3125,923.0625 C 1129.3125,898.05935 1112.6499,885.5625 1079.3125,885.5625 C 1043.5937,885.56248 1026.1562,898.05933 1026.1562,923.0625 L 1026.1562,938.71875 L 1019.4375,938.71875 C 1016.2918,816.35357 1027.0118,701.92719 1051.5938,595.40625 L 1082.7188,595.40625 L 1080.6562,362.9375 C 1073.7379,234.25547 1052.2881,141.20383 1016.3125,83.78125 C 982.58536,29.947512 926.67819,2.8867956 848.5625,2.5625 z M 851.0625,30.65625 C 916.08463,31.142727 962.86792,54.738372 991.40625,101.4375 C 1021.8471,151.24988 1039.8403,239.11656 1045.375,365.03125 L 1045.375,562.1875 L 856.5,562.1875 L 856.5,236.34375 C 862.03462,226.65802 869.2873,212.80029 878.28125,194.8125 C 887.2751,176.82465 891.1024,157.47391 889.71875,136.71875 C 888.33503,115.96358 876.57632,108.34027 854.4375,113.875 C 837.83333,113.875 828.14235,123.56598 825.375,142.9375 C 822.60764,127.71705 812.91665,116.63712 796.3125,109.71875 C 779.70842,102.80034 755.48088,102.12159 723.65625,107.65625 C 727.80724,59.227579 765.86118,33.642397 837.8125,30.875 C 842.30946,30.702042 846.72769,30.623818 851.0625,30.65625 z M 751.84375,122.875 C 760.07825,122.75609 771.11273,124.60117 784.90625,128.40625 C 804.96965,133.94099 814.99998,147.08858 815,167.84375 L 835.75,167.84375 C 838.51737,148.47224 844.04169,138.78124 852.34375,138.78125 C 862.02957,138.78125 864.09722,147.7934 858.5625,165.78125 L 823.28125,234.25 L 823.28125,356.71875 L 821.21875,356.71875 C 804.61458,348.41669 792.85589,328.35588 785.9375,296.53125 L 744.40625,298.59375 C 729.1858,298.59375 721.59376,293.74822 721.59375,284.0625 C 721.59375,270.22572 727.82817,261.92358 740.28125,259.15625 C 740.28125,252.23786 738.18232,248.10242 734.03125,246.71875 L 705,248.78125 C 710.53472,237.7118 705.6892,230.11974 690.46875,225.96875 C 690.46875,219.05036 696.67192,202.44614 709.125,176.15625 C 707.74127,156.78474 709.13015,142.92705 713.28125,134.625 C 724.3506,130.47393 734.04166,127.01732 742.34375,124.25 C 744.93815,123.38521 748.1008,122.92905 751.84375,122.875 z M 752.5625,138.03125 C 737.09341,138.27448 724.71485,142.68846 715.375,151.25 L 717.4375,163.6875 C 734.04168,147.08332 759.62675,145.01565 794.21875,157.46875 L 804.625,157.46875 L 804.625,147.09375 L 794.21875,145 C 778.47942,140.15712 764.59402,137.84207 752.5625,138.03125 z M 750.65625,155.40625 C 731.28471,156.78991 719.52609,165.09205 715.375,180.3125 L 717.4375,184.4375 L 725.75,184.4375 C 731.28472,187.20482 738.1979,188.59375 746.5,188.59375 C 753.41836,188.59375 769.31248,183.06937 794.21875,172 L 806.6875,172 L 806.6875,165.78125 L 794.21875,165.78125 C 772.07994,158.86286 757.57463,155.40625 750.65625,155.40625 z M 754.8125,165.78125 C 763.11458,165.78125 770.70664,167.13894 777.625,169.90625 C 773.47401,172.67365 765.1718,176.16151 752.71875,180.3125 C 755.4861,177.54517 756.87502,174.76731 756.875,172 C 756.875,169.23259 756.19616,167.16492 754.8125,165.78125 z M 738.1875,167.84375 C 738.1875,167.84375 738.18751,169.91145 738.1875,174.0625 C 738.1875,175.44617 740.25526,177.54517 744.40625,180.3125 C 738.87162,181.69616 731.95836,180.98607 723.65625,178.21875 C 729.19097,171.30036 734.03642,167.84375 738.1875,167.84375 z M 315.90625,307.03125 C 321.0464,306.99882 326.21746,307.2889 331.40625,307.9375 C 359.07978,311.39669 377.75177,324.20493 387.4375,346.34375 C 373.60067,349.11108 354.9288,357.4132 331.40625,371.25 C 313.41845,351.87856 294.71519,348.08251 275.34375,359.84375 C 255.97221,371.605 253.56519,389.56689 268.09375,413.78125 C 282.62244,437.99563 280.18405,451.85331 260.8125,455.3125 C 241.44106,458.77171 228.29337,442.16748 221.375,405.5 C 214.45664,368.83252 224.14772,342.53725 250.4375,326.625 C 271.79804,313.69625 293.63228,307.17178 315.90625,307.03125 z M 393.03125,366.96875 C 393.96091,366.96875 394.85395,367.00727 395.71875,367.09375 L 431.03125,425.21875 C 413.04343,427.98613 407.82726,433.51043 415.4375,441.8125 C 423.04772,450.11456 421.31933,457.02777 410.25,462.5625 C 417.16835,470.86456 416.4896,477.09892 408.1875,481.25 C 409.57123,493.70311 406.79346,500.61635 399.875,502 C 377.73619,502 360.45308,498.5434 348,491.625 L 314.78125,493.6875 C 302.32817,524.1284 305.78473,546.96697 325.15625,562.1875 C 305.78472,587.09366 287.1128,580.85937 269.125,543.5 C 291.2638,488.15294 298.88711,446.64232 291.96875,418.96875 C 273.98094,392.67886 270.86379,376.44527 282.625,370.21875 C 294.38621,363.99215 309.94095,372.63369 329.3125,396.15625 C 357.85083,376.69828 379.08633,366.96876 393.03125,366.96875 z M 386.78125,392.53125 C 377.18199,392.53128 365.64711,397.19141 352.15625,406.53125 C 368.76033,421.7517 383.9757,425.20828 397.8125,416.90625 C 406.11459,408.60419 405.40455,400.98096 395.71875,394.0625 C 392.95141,393.02475 389.981,392.53124 386.78125,392.53125 z M 827.4375,408.59375 L 827.4375,597.46875 L 775.5625,676.34375 C 753.4237,662.50691 742.34374,645.2239 742.34375,624.46875 C 760.33157,576.04002 761.01032,533.14053 744.40625,495.78125 L 742.34375,433.5 C 765.86629,418.27956 794.22924,409.9774 827.4375,408.59375 z M 248.375,558.03125 C 258.06082,591.23953 273.95496,607.50435 296.09375,606.8125 C 318.23256,606.12071 333.47916,595.41142 341.78125,574.65625 C 361.15278,578.80725 377.75692,588.49827 391.59375,603.71875 C 377.75693,679.82108 365.99833,726.85591 356.3125,744.84375 C 346.62679,762.83145 342.46012,780.11458 343.84375,796.71875 C 332.7744,795.33508 317.55905,796.724 298.1875,800.875 C 278.81595,805.02601 265.66836,807.09373 258.75,807.09375 C 260.13364,805.71008 259.79424,791.20477 257.71875,763.53125 C 255.64325,735.85771 242.83503,672.89725 219.3125,574.65625 L 248.375,558.03125 z M 721.59375,564.28125 L 707.0625,624.46875 C 707.0625,652.14224 723.66677,679.11639 756.875,705.40625 L 727.8125,749 C 693.22062,761.45302 628.19252,781.51395 532.71875,809.1875 C 531.33512,788.43232 528.55738,769.76045 524.40625,753.15625 L 605.375,742.75 C 666.25689,659.72941 704.98969,600.25684 721.59375,564.28125 z M 939.53125,597.46875 L 1012.1562,597.46875 C 979.66143,730.57697 968.29707,867.74845 970.65625,1004.2812 C 970.65625,1094.2205 929.82455,1139.1876 848.1875,1139.1875 L 603.28125,1139.1875 C 599.13016,1129.5018 593.60583,1112.2189 586.6875,1087.3125 C 586.6875,1034.7328 570.76205,997.3576 538.9375,975.21875 C 617.80708,953.07989 703.60608,936.47559 796.3125,925.40625 C 800.46349,872.82638 801.85236,826.4703 800.46875,786.34375 C 876.5711,704.70668 922.92714,641.74643 939.53125,597.46875 z M 196.46875,636.90625 L 204.78125,659.75 L 190.25,661.8125 C 193.01735,653.51048 195.08512,645.20828 196.46875,636.90625 z M 406.125,647.28125 L 428.9375,684.65625 L 395.71875,686.71875 L 406.125,647.28125 z M 181.96875,682.5625 C 191.65446,685.32984 196.46875,688.10751 196.46875,690.875 C 196.46875,693.64234 190.26558,695.03123 177.8125,695.03125 L 181.96875,682.5625 z M 385.34375,753.15625 L 460.0625,755.21875 C 468.36459,770.43911 474.59891,794.66682 478.75,827.875 L 443.46875,836.15625 C 426.86457,826.47056 402.63702,814.71185 370.8125,800.875 C 370.8125,785.65464 375.65803,769.76045 385.34375,753.15625 z M 761.03125,813.34375 L 758.9375,879.75 C 666.231,899.12152 584.59886,919.18235 514.03125,939.9375 L 528.5625,867.28125 C 651.70979,846.52592 729.20662,828.5641 761.03125,813.34375 z M 316.6875,846.96875 C 326.3084,846.86063 336.75762,848.09313 348,850.6875 L 350.0625,861.0625 L 331.40625,856.90625 C 321.72054,852.75524 313.04774,851.73692 305.4375,853.8125 C 297.82728,855.88794 295.42014,860.36273 298.1875,867.28125 C 298.1875,871.43226 305.77954,872.82115 321,871.4375 C 332.06944,875.58851 343.85943,879.75524 356.3125,883.90625 C 419.96165,915.73079 469.06428,946.1614 503.65625,975.21875 C 480.13373,983.52076 455.93751,989.41574 431.03125,992.875 C 406.12507,996.3341 387.42184,1009.111 374.96875,1031.25 C 323.77268,1021.5642 285.71877,1007.7376 260.8125,989.75 C 237.28996,968.99481 232.44444,924.70646 246.28125,856.90625 C 268.42006,854.13891 286.41319,851.3923 300.25,848.625 C 305.43881,847.58725 310.91496,847.03362 316.6875,846.96875 z M 476.6875,875.59375 L 472.53125,923.34375 C 465.61289,917.80908 449.00854,905.34014 422.71875,885.96875 L 476.6875,875.59375 z M 526.5,991.8125 C 547.25517,1011.184 558.30384,1029.1773 559.6875,1045.7812 C 560.86783,1104.2778 584.67373,1159.6626 609.5,1211.8438 C 644.092,1283.7951 674.89336,1325.9843 701.875,1338.4375 C 728.85676,1350.8905 748.57816,1359.1925 761.03125,1363.3438 L 655.1875,1363.3438 C 633.0486,1350.8908 625.08593,1336.0146 631.3125,1318.7188 C 637.53899,1301.4226 633.7118,1286.8861 619.875,1275.125 C 575.72627,1228.9901 513.30802,1145.3888 528.5625,1076.9375 C 532.71349,1046.4967 518.88703,1022.2692 487.0625,1004.2812 L 526.5,991.8125 z M 1022.5312,1006.3438 L 1023.0312,1435.7812 L 826.09375,1435.7812 L 826.09375,1751.5312 L 447.8125,1751.5312 L 447.8125,1391.4375 C 451.123,1393.9835 455.19605,1395.2812 460.0625,1395.2812 L 667.625,1395.2812 C 753.41305,1395.2813 795.60237,1393.8923 794.21875,1391.125 C 796.9861,1373.137 793.19009,1349.8568 782.8125,1347.7812 C 772.4349,1345.7057 752.03466,1337.4036 721.59375,1322.875 C 691.15287,1308.3464 658.62325,1262.3294 624.03125,1184.8438 L 848.1875,1184.8438 C 876.07548,1185.1757 900.61597,1181.9906 921.8125,1175.3125 C 962.96501,1166.5591 990.03266,1143.7745 1002.9688,1106.8438 C 1016.0178,1080.1787 1022.5312,1046.6793 1022.5312,1006.3438 z M 466.3125,1012.5938 C 484.30032,1025.0466 490.50335,1042.3297 484.96875,1064.4688 C 465.58907,1139.027 472.11566,1220.1692 472.53125,1294.8438 C 472.61734,1310.3135 516.80919,1333.582 597.0625,1365.4062 L 476.6875,1359.1875 C 467.26786,1347.6746 457.628,1320.3051 447.8125,1277.125 L 429.96875,1145.0312 C 430.01964,1108.5173 435.18944,1074.744 445.53125,1043.7188 L 404.03125,1037.5 C 410.94961,1020.8958 431.72052,1012.5938 466.3125,1012.5938 z M 312.71875,1047.875 C 332.09028,1053.4097 364.58854,1060.323 410.25,1068.625 C 401.9479,1096.2986 399.88017,1119.8161 404.03125,1139.1875 L 335.53125,1139.1875 L 312.71875,1047.875 z M 503.65625,1089.375 C 500.8889,1111.5137 502.27776,1128.1181 507.8125,1139.1875 L 495.34375,1139.1875 C 495.34375,1122.5835 498.12164,1105.9792 503.65625,1089.375 z M 491.21875,1184.8438 L 528.5625,1184.8438 C 535.48086,1208.3662 564.55393,1245.7415 615.75,1296.9375 C 603.29692,1324.611 603.97567,1342.5728 617.8125,1350.875 C 545.86128,1324.5851 503.67183,1301.0677 491.21875,1280.3125 C 489.83512,1230.5002 489.83512,1198.6803 491.21875,1184.8438 z M 863.59375,1473.2812 L 1023.0312,1473.2812 L 1023.0312,1751.5312 L 863.59375,1751.5312 L 863.59375,1473.2812 z "
     id="path4"
     sodipodi:nodetypes="csccccccccccscccccccccccccccsssscccccscccccccccccscsscccccsscccccsccccsccccccsccsccccssccscsccsccsccccccsccccccscccccccccccccsccccccccsccsccccsccsssssccccsccccccccscccccccccccccccsccscscscccccccccccccccccccccccccccccscccccccccccccccccsccccscccsccccccccsccssccccccccccccsscccccccsccccccccccccccccccccccccccc" />
</svg>
