<?xml version="1.0" encoding="UTF-8" standalone="no"?>
<svg
   width="1684"
   height="1797.5"
   version="1.1"
   id="svg1"
   sodipodi:docname="C102B.svg"
   inkscape:version="1.4 (e7c3feb1, 2024-10-09)"
   xmlns:inkscape="http://www.inkscape.org/namespaces/inkscape"
   xmlns:sodipodi="http://sodipodi.sourceforge.net/DTD/sodipodi-0.dtd"
   xmlns="http://www.w3.org/2000/svg"
   xmlns:svg="http://www.w3.org/2000/svg"
   xmlns:rdf="http://www.w3.org/1999/02/22-rdf-syntax-ns#"
   xmlns:cc="http://creativecommons.org/ns#"
   xmlns:dc="http://purl.org/dc/elements/1.1/">
  <title
     id="title1">C102B</title>
  <defs
     id="defs1" />
  <sodipodi:namedview
     id="namedview1"
     pagecolor="#ffffff"
     bordercolor="#000000"
     borderopacity="0.25"
     inkscape:showpageshadow="2"
     inkscape:pageopacity="0.0"
     inkscape:pagecheckerboard="0"
     inkscape:deskcolor="#d1d1d1"
     inkscape:zoom="0.18082947"
     inkscape:cx="752.08981"
     inkscape:cy="893.10665"
     inkscape:window-width="1568"
     inkscape:window-height="840"
     inkscape:window-x="1687"
     inkscape:window-y="206"
     inkscape:window-maximized="0"
     inkscape:current-layer="svg1" />
  <path
     id="path1"
     style="fill:#000000;stroke:none;stroke-width:100.833"
     d="M 1396.75 0.23828125 C 1314.1424 2.4996894 1258.4714 20.921719 1229.7383 55.507812 C 1191.4276 101.62267 1163.0494 148.80175 1144.6035 197.04492 C 1141.7654 216.90977 1138.2174 233.22781 1133.9609 245.99805 C 1129.7042 258.76829 1119.4172 277.56931 1103.0996 302.40039 C 1086.7818 327.23147 1080.0428 343.9045 1082.8809 352.41797 C 1084.2998 362.35043 1093.5218 367.31641 1110.5488 367.31641 C 1110.5488 377.2488 1104.8748 382.92288 1093.5234 384.3418 C 1092.1045 397.11204 1094.9407 405.62604 1102.0352 409.88281 C 1094.9405 429.74766 1097.7786 441.80964 1110.5488 446.06641 L 1119.0625 486.50391 C 1118.5117 491.73593 1120.9911 495.54163 1124.5527 498.72461 L 1123.7598 498.60156 L 1026.9238 794.56055 L 1108.2793 811.45312 L 1178.7227 509.94336 C 1179.0452 509.92927 1180.7852 509.91602 1180.7852 509.91602 C 1214.8391 507.07811 1238.9611 504.24215 1253.1504 501.4043 C 1258.8261 535.45838 1268.0481 563.83643 1280.8184 586.53906 C 1246.7643 630.52553 1220.5143 678.05961 1202.0684 729.14062 C 1183.6225 780.22164 1170.4975 838.75083 1162.6934 904.73047 C 1154.8896 970.71017 1151.6981 1133.5315 1153.1172 1393.1934 L 865.78711 988.80078 C 848.7601 963.26023 828.18607 943.39612 804.06445 929.20703 C 770.01044 888.0584 726.02245 875.28839 672.10352 890.89648 L 467.7793 431.16602 L 367.74609 569.51172 L 20.820312 1029.2402 C -0.46346283 1063.2943 -5.4295075 1083.1604 5.921875 1088.8359 C 30.043428 1101.6062 56.293485 1093.8021 84.671875 1065.4238 C 77.57726 1078.1941 73.321267 1091.3191 71.902344 1104.7988 C 70.483421 1118.2787 75.449398 1127.8557 86.800781 1133.5312 C 95.314251 1139.2067 105.60133 1137.7869 117.66211 1129.2734 C 129.72296 1120.7599 138.59196 1110.8279 144.26758 1099.4766 C 134.33519 1139.2063 142.13914 1166.1664 167.67969 1180.3555 C 176.19316 1184.6123 190.38124 1169.7142 210.24609 1135.6602 L 442.24023 609.95117 C 452.17269 591.50524 461.39473 578.73328 469.9082 571.63867 L 616.05078 893.57812 C 540.07424 949.97578 519.69152 982.44538 555.04297 990.92969 C 588.18319 998.88337 615.67561 1020.6425 637.66992 1055.8418 C 647.8148 1126.3249 676.51621 1201.8407 724.25 1282.5176 C 774.62156 1367.6525 820.38074 1493.2267 861.5293 1659.2402 L 697.64453 1727.3477 L 710.41406 1812.4824 L 1619.2305 1812.4824 L 1510.6836 1678.3945 C 1553.2512 1364.8138 1574.5352 1127.8553 1574.5352 967.51758 C 1581.6299 808.59883 1578.7918 658.90251 1566.0215 518.42969 L 1551.123 518.42969 C 1563.8933 488.63244 1577.3734 473.73438 1591.5625 473.73438 C 1605.7518 473.73438 1612.8457 480.12039 1612.8457 492.89062 L 1604.332 878.125 L 1697.9824 878.125 L 1678.8262 488.63281 C 1673.1505 463.09226 1661.0904 443.22822 1642.6445 429.03906 C 1624.1986 414.8499 1601.1396 415.2049 1573.4707 430.10352 C 1545.8018 445.00221 1524.1647 470.18729 1508.5566 505.66016 L 1489.4004 450.32227 C 1505.0085 437.55203 1525.5825 421.94398 1551.123 403.49805 C 1644.7719 359.51164 1691.2412 284.66443 1690.5312 178.95508 C 1689.8219 73.245729 1622.4236 14.714665 1488.3359 3.3632812 C 1454.814 0.52545233 1424.2859 -0.51552148 1396.75 0.23828125 z M 1382.9824 39.544922 C 1456.7661 39.544922 1518.8433 46.993955 1569.2148 61.892578 C 1619.5865 76.7912 1644.7734 116.87623 1644.7734 182.14648 C 1644.7734 247.41666 1622.7796 295.66078 1578.793 326.87695 C 1534.8066 358.09312 1501.4625 382.21322 1478.7598 399.24023 C 1440.449 375.11868 1414.1989 341.06459 1400.0098 297.07812 C 1409.9421 282.88896 1414.9082 267.28092 1414.9082 250.25391 C 1414.9082 221.87559 1397.8803 206.97751 1363.8262 205.55859 C 1339.7047 205.55859 1323.3885 219.03865 1314.875 245.99805 L 1310.6172 245.99805 C 1307.7794 219.03865 1295.0093 202.01063 1272.3066 194.91602 C 1249.6039 187.82147 1226.1919 181.43741 1202.0703 175.76172 C 1247.4756 84.950993 1307.7797 39.544922 1382.9824 39.544922 z M 1165.8867 218.32812 C 1185.7516 218.32812 1210.5817 221.87609 1240.3789 228.9707 C 1280.1084 236.06525 1301.3924 253.09326 1304.2305 280.05273 C 1318.4197 280.05273 1325.5137 285.01878 1325.5137 294.95117 C 1304.23 309.1404 1293.5898 324.74845 1293.5898 341.77539 C 1293.5898 358.80246 1302.812 367.31445 1321.2578 367.31445 C 1334.0281 367.31445 1350.346 356.6744 1370.2109 335.39062 C 1384.4001 377.95811 1409.9402 414.14019 1446.832 443.9375 C 1452.5077 483.6672 1462.4397 519.84929 1476.6289 552.48438 C 1448.2505 589.37617 1419.1625 607.82227 1389.3652 607.82227 C 1355.3113 607.82227 1331.5442 598.24322 1318.0645 579.08789 C 1304.5848 559.9325 1294.2976 530.49142 1287.2031 490.76172 C 1285.7842 479.4104 1279.4001 474.44442 1268.0488 475.86328 C 1248.1839 475.86328 1212.002 478.69931 1159.502 484.375 C 1148.1509 481.53716 1141.7648 476.57111 1140.3457 469.47656 C 1138.9273 462.38194 1136.799 453.86989 1133.9609 443.9375 C 1159.5015 434.00504 1177.2375 422.65305 1187.1699 409.88281 C 1167.305 394.27472 1150.989 384.34271 1138.2188 380.08594 L 1138.2188 367.31445 C 1159.5025 363.05768 1170.1426 357.38367 1170.1426 350.28906 C 1165.8858 338.93775 1159.5018 333.26172 1150.9883 333.26172 C 1143.8937 336.09957 1141.7654 339.64564 1144.6035 343.90234 C 1148.8602 349.57803 1143.8942 352.41602 1129.7051 352.41602 C 1115.5158 352.41602 1108.4199 350.998 1108.4199 348.16016 C 1108.4199 343.90339 1109.8396 339.64733 1112.6777 335.39062 C 1142.4751 289.98523 1160.2112 250.96321 1165.8867 218.32812 z M 1363.8242 222.58594 C 1386.5269 222.58594 1397.8789 230.38996 1397.8789 245.99805 C 1397.8789 261.60613 1395.0408 274.73113 1389.3652 285.37305 C 1383.6896 296.0149 1373.7575 309.13996 1359.5684 324.74805 C 1342.5415 340.35614 1331.5445 348.16016 1326.5781 348.16016 C 1321.612 348.16016 1317.3559 346.74019 1313.8086 343.90234 C 1310.2613 341.06456 1311.3264 335.39049 1317.002 326.87695 L 1338.2852 303.46484 L 1363.8242 284.30859 C 1365.2433 281.47074 1362.7604 276.50477 1356.375 269.41016 C 1349.9903 262.31561 1349.637 255.5746 1355.3125 249.18945 C 1360.9881 242.8043 1367.3721 242.09627 1374.4668 247.0625 C 1381.5614 252.02873 1382.9811 259.83276 1378.7246 270.47461 C 1374.4679 281.11654 1363.1158 297.07957 1344.6699 318.36328 L 1348.9277 318.36328 C 1368.7926 298.49843 1380.4976 284.66339 1384.0449 276.85938 C 1387.5922 269.0553 1389.3672 260.1863 1389.3672 250.25391 C 1389.3672 238.9026 1380.8532 233.22852 1363.8262 233.22852 C 1355.3128 233.22852 1349.2817 235.71157 1345.7344 240.67773 C 1342.1871 245.64396 1340.4141 251.67297 1340.4141 258.76758 C 1340.4141 265.86213 1344.6701 273.66615 1353.1836 282.17969 L 1338.2852 294.95117 C 1331.1906 277.92416 1329.0623 261.60613 1331.9004 245.99805 C 1334.7382 230.38996 1345.3783 222.58594 1363.8242 222.58594 z M 1192.3594 230.9668 C 1184.644 231.05549 1177.2391 232.51762 1170.1445 235.35547 C 1164.4689 242.45002 1164.4689 248.12604 1170.1445 252.38281 C 1192.8472 241.0315 1226.1913 250.25549 1270.1777 280.05273 L 1293.5898 280.05273 L 1293.5898 267.28125 L 1270.1777 267.28125 C 1241.4447 242.80493 1215.5055 230.70072 1192.3594 230.9668 z M 1197.8145 259.83203 C 1186.4634 259.12257 1179.3674 260.89564 1176.5293 265.15234 C 1173.6912 269.40911 1172.2734 274.37704 1172.2734 280.05273 C 1172.2734 292.82297 1179.7225 298.85204 1194.6211 298.14258 C 1209.5197 297.43312 1229.7388 293.53205 1255.2793 286.4375 C 1228.3198 269.41049 1209.1658 260.5415 1197.8145 259.83203 z M 1327.6445 326.87695 C 1321.969 328.29588 1319.1309 331.13385 1319.1309 335.39062 C 1319.1309 339.64732 1321.2591 341.77539 1325.5156 341.77539 C 1331.1911 341.77539 1334.7392 339.64733 1336.1582 335.39062 C 1334.7392 331.13385 1331.901 328.29588 1327.6445 326.87695 z M 1116.9355 392.85547 L 1159.502 401.36914 L 1159.502 403.49805 L 1131.834 401.36914 C 1120.4825 402.78807 1115.5164 399.95002 1116.9355 392.85547 z M 1168.0156 414.13867 C 1168.0156 415.55759 1153.8276 419.81561 1125.4492 426.91016 C 1122.6111 428.32909 1121.1914 427.61903 1121.1914 424.78125 C 1121.1914 419.10556 1124.0295 416.26758 1129.7051 416.26758 L 1144.6035 418.39648 L 1168.0156 414.13867 z M 1521.3262 563.125 L 1531.9688 712.11133 C 1436.9012 767.44912 1348.927 768.1591 1268.0488 714.24023 L 1308.4883 641.875 C 1410.6503 677.34793 1481.5965 651.09795 1521.3262 563.125 z M 399.67188 595.05078 L 188.96289 1078.1934 L 82.544922 1018.5977 L 399.67188 595.05078 z M 1523.4551 775.96289 C 1522.0361 919.27356 1513.8772 1078.5468 1498.9785 1253.7832 C 1484.08 1429.0194 1460.3128 1584.0369 1427.6777 1718.834 L 1491.5293 1750.7598 L 784.9082 1750.7598 L 931.76562 1691.166 C 889.19807 1484.0041 835.98992 1331.4699 772.13867 1233.5645 C 708.28734 1135.6592 697.64534 1072.517 740.21289 1044.1387 C 782.78044 1015.7602 824.63848 1032.0782 865.78711 1093.0918 L 1153.1172 1501.7402 L 1225.4824 1501.7402 C 1207.0365 1141.3352 1214.8405 901.53872 1248.8945 782.34961 C 1342.543 830.59285 1434.0632 828.4629 1523.4551 775.96289 z M 689.73047 927.34375 C 722.32121 924.68328 751.91873 938.78501 778.52344 969.64648 C 728.86134 971.0654 695.51724 987.38143 678.49023 1018.5977 C 662.88215 983.12466 643.72607 965.03368 621.02344 964.32422 C 598.32074 963.61476 610.02584 954.03773 656.14062 935.5918 C 667.66932 930.98031 678.86689 928.23057 689.73047 927.34375 z " />
  <metadata
     id="metadata1">
    <rdf:RDF>
      <cc:Work
         rdf:about="">
        <dc:title>C102B</dc:title>
        <dc:creator>
          <cc:Agent>
            <dc:title>S. J.P. Thomas</dc:title>
          </cc:Agent>
        </dc:creator>
        <dc:description>Modified by S. Rosmorduc: straight beard.</dc:description>
      </cc:Work>
    </rdf:RDF>
  </metadata>
</svg>
