<?xml version="1.0" encoding="UTF-8" standalone="no"?>
<svg
   xmlns:dc="http://purl.org/dc/elements/1.1/"
   xmlns:cc="http://web.resource.org/cc/"
   xmlns:rdf="http://www.w3.org/1999/02/22-rdf-syntax-ns#"
   xmlns:svg="http://www.w3.org/2000/svg"
   xmlns="http://www.w3.org/2000/svg"
   xmlns:sodipodi="http://sodipodi.sourceforge.net/DTD/sodipodi-0.dtd"
   xmlns:inkscape="http://www.inkscape.org/namespaces/inkscape"
   width="21.783348"
   height="14.64"
   id="svg2210"
   sodipodi:version="0.32"
   inkscape:version="0.45"
   sodipodi:docname="C109.svg"
   inkscape:output_extension="org.inkscape.output.svg.inkscape"
   sodipodi:docbase="C:\Program Files\JSesh\fontsST"
   sodipodi:modified="true">
  <metadata
     id="metadata2217">
    <rdf:RDF>
      <cc:Work
         rdf:about="">
        <dc:format>image/svg+xml</dc:format>
        <dc:type
           rdf:resource="http://purl.org/dc/dcmitype/StillImage" />
      </cc:Work>
    </rdf:RDF>
  </metadata>
  <defs
     id="defs2215" />
  <sodipodi:namedview
     inkscape:window-height="569"
     inkscape:window-width="748"
     inkscape:pageshadow="2"
     inkscape:pageopacity="0.0"
     guidetolerance="10.0"
     gridtolerance="10.0"
     objecttolerance="10.0"
     borderopacity="1.0"
     bordercolor="#666666"
     pagecolor="#ffffff"
     id="base"
     inkscape:zoom="25.751366"
     inkscape:cx="10.891674"
     inkscape:cy="7.3200002"
     inkscape:window-x="113"
     inkscape:window-y="75"
     inkscape:current-layer="svg2210" />
  <path
     style="fill:#000000; stroke:none"
     d="M 5.376838,6.337718 C 5.3495787,6.433124 5.288246,6.4740123 5.19284,6.460383 C 5.19284,6.637567 5.2746167,6.8079357 5.43817,6.971489 C 5.2473573,6.9033417 5.124692,6.9169713 5.070174,7.012378 C 4.961138,6.9306007 4.8929907,6.9646743 4.865732,7.114599 L 5.008842,7.114599 C 5.376838,7.1009697 5.6835017,7.441707 5.928833,8.136811 C 6.1060163,8.5456963 6.2525333,8.8012497 6.368384,8.903471 C 6.4842347,9.0056923 6.6171223,9.029544 6.767047,8.975026 C 6.7534177,8.7842133 6.6954923,8.5934003 6.593271,8.402587 C 6.4910497,8.2117737 6.358162,8.0754787 6.194608,7.993702 C 7.1623027,7.8028887 7.6154837,7.4212627 7.554151,6.848824 C 7.4928183,6.2763847 7.237265,5.990165 6.787491,5.990165 C 6.3377177,5.990165 6.0003877,6.051498 5.775501,6.174164 C 5.5506137,6.2968293 5.417726,6.3513473 5.376838,6.337718 z M 6.25594,7.748371 C 6.7193433,7.5439283 6.9714893,7.35993 7.012378,7.196376 C 7.053266,7.032822 7.015785,6.8828977 6.899935,6.746603 C 6.7840843,6.6103077 6.6341597,6.5455673 6.450161,6.552382 C 6.266163,6.5591967 6.119646,6.678455 6.01061,6.910157 C 5.9833507,7.0328223 5.9765357,7.2713383 5.990165,7.625705 C 5.9765357,7.6665937 5.949277,7.687038 5.908389,7.687038 C 5.8266117,7.3326713 5.7448343,7.1214143 5.663057,7.053267 C 5.6903163,7.0123783 5.7073533,6.95786 5.714168,6.889712 C 5.7209827,6.8215647 5.669872,6.7466023 5.560836,6.664825 C 5.560836,6.4194943 5.6562423,6.296829 5.847055,6.296829 C 5.9560917,6.296829 6.037869,6.3445323 6.092387,6.439939 C 6.1605343,6.3445323 6.14009,6.2627553 6.031054,6.194608 C 6.7806767,6.14009 7.1861543,6.3445323 7.247487,6.807935 C 7.3088197,7.2713383 6.978304,7.5984463 6.25594,7.789259 L 6.25594,7.748371 z M 5.642613,6.664825 C 5.7107603,6.7057143 5.7789077,6.7329737 5.847055,6.746603 C 5.969721,6.7193437 6.031054,6.651196 6.031054,6.54216 C 6.031054,6.433124 5.969721,6.378606 5.847055,6.378606 C 5.7380197,6.378606 5.6698723,6.4740123 5.642613,6.664825 z M 5.847055,6.419495 C 5.9288323,6.4331243 5.9765357,6.4740127 5.990165,6.54216 C 5.9765357,6.6239367 5.9288323,6.664825 5.847055,6.664825 C 5.7789077,6.664825 5.744834,6.6239367 5.744834,6.54216 C 5.744834,6.4740127 5.7789077,6.4331243 5.847055,6.419495 z M 7.789259,6.092387 C 8.3071803,7.0600817 8.0618497,7.7960743 7.053267,8.300365 C 7.2985977,8.8728043 7.29519,9.2544307 7.043044,9.445244 C 6.790898,9.6360567 6.664825,9.840499 6.664825,10.058571 C 6.664825,10.9036 7.353115,12.048478 8.729695,13.493205 L 3.94574,13.493205 C 3.5368553,13.956608 3.5300407,14.18831 3.925296,14.18831 L 20.34203,14.18831 C 20.641879,14.20194 20.635064,14.113348 20.321585,13.922535 C 19.749146,13.827128 19.09493,13.684018 18.358936,13.493205 C 16.450807,12.498252 14.559714,11.44878 12.685658,10.34479 C 10.811601,9.2408013 9.6496863,8.2594777 9.199913,7.400819 C 8.750139,6.5421603 8.279921,6.1060163 7.789259,6.092387 z M 2.351089,14.18831 L 1.512874,11.264782 L 0.776882,14.18831 L 2.351089,14.18831 z M 3.884408,4.947509 C 4.1297387,5.1383217 4.443217,5.1655803 4.824843,5.029285 C 5.206469,4.8929903 5.543799,4.8555093 5.836833,4.916842 C 6.1298677,4.9781753 6.368384,5.036101 6.552382,5.090619 C 6.7363807,5.1451363 6.937416,5.2746163 7.155488,5.479059 C 7.3871893,5.2746163 7.595039,5.1451363 7.779037,5.090619 C 7.9630357,5.036101 8.201552,4.9781753 8.494586,4.916842 C 8.78762,4.8555093 9.1249503,4.8929903 9.506577,5.029285 C 9.888203,5.1655803 10.201681,5.1451363 10.447012,4.967953 C 10.188051,5.0497303 9.8711653,5.0088417 9.496354,4.845287 C 9.1215427,4.6817337 8.695621,4.6510673 8.218589,4.753288 C 7.7415563,4.8555093 7.3871893,5.0088413 7.155488,5.213284 C 6.937416,5.0088413 6.5898637,4.852102 6.112831,4.743066 C 5.6357983,4.63403 5.2098763,4.661289 4.835065,4.824843 C 4.4602537,4.988397 4.143368,5.0292857 3.884408,4.947509 z M 3.598188,4.76351 C 3.5709293,4.6544747 3.611818,4.6135863 3.720854,4.640845 C 3.775372,4.6681037 3.8810003,4.7192143 4.037739,4.794177 C 4.1944783,4.869139 4.409143,4.8316577 4.681733,4.681733 C 4.9134343,4.586327 5.0565443,4.5249943 5.111063,4.497735 L 5.111063,0.572439 C 5.111063,0.190813 5.3086907,0 5.703946,0 C 5.922018,0 6.0787573,0.061332667 6.174164,0.183998 C 6.2832,0.061332667 6.4467537,0 6.664825,0 C 6.8828977,0 7.046452,0.061332667 7.155488,0.183998 C 7.250894,0.061332667 7.407633,0 7.625705,0 C 7.8437777,0 8.000517,0.061332667 8.095923,0.183998 C 8.1913297,0.061332667 8.3548837,0 8.586585,0 C 8.9818403,0 9.179468,0.190813 9.179468,0.572439 L 9.179468,4.497735 C 9.2748747,4.5249943 9.4452437,4.5999567 9.690575,4.722622 C 9.9359057,4.8452873 10.136941,4.869139 10.29368,4.794177 C 10.450419,4.7192143 10.556048,4.6681037 10.610566,4.640845 C 10.719602,4.6135863 10.760491,4.6612897 10.733232,4.783955 C 10.610566,5.1246923 10.385679,5.3018757 10.058571,5.315505 C 9.731463,5.3291343 9.4622803,5.288246 9.251023,5.19284 C 9.0397657,5.0974333 8.78762,5.0838037 8.494586,5.151951 C 8.201552,5.2200983 7.98348,5.271209 7.84037,5.305283 C 7.69726,5.339357 7.5848167,5.3904677 7.50304,5.458615 C 8.4162167,5.458615 9.111321,5.9288327 9.588353,6.869268 C 10.976507,8.7771745 12.286994,9.3647627 13.636315,10.263014 C 15.830664,11.598705 17.404871,12.484622 18.358936,12.920766 C 19.09493,13.152467 19.745739,13.312614 20.311363,13.401206 C 20.876988,13.489798 21.1598,13.752166 21.1598,14.18831 C 21.1598,14.515418 21.084837,14.665342 20.934912,14.638083 L 3.332413,14.638083 L 0,14.638083 L 1.512874,9.547465 L 3.005305,14.167866 C 3.1961177,13.418243 3.509596,13.043432 3.94574,13.043432 L 7.543929,13.043432 C 6.5762343,11.748629 6.0992017,10.753676 6.112831,10.058571 C 6.112831,9.785981 6.1809787,9.567909 6.317274,9.404355 C 6.031054,9.295319 5.7755007,8.940952 5.550614,8.341254 C 5.3257273,7.741556 5.1178773,7.441707 4.927064,7.441707 C 4.77714,7.4144483 4.613586,7.455337 4.436402,7.564373 C 4.436402,6.896527 4.6476593,6.5012713 5.070174,6.378606 C 5.0565447,6.2832 5.087211,6.2150527 5.162173,6.174164 C 5.2371357,6.1332753 5.301876,6.14009 5.356394,6.194608 C 5.3291347,6.14009 5.424541,6.0174247 5.642613,5.826612 C 5.860685,5.6357987 6.2627553,5.5199477 6.848824,5.479059 C 6.7670473,5.3972823 6.6511967,5.3359497 6.501272,5.295061 C 6.3513473,5.2541723 6.1298677,5.2030617 5.836833,5.141729 C 5.543799,5.0803963 5.2916533,5.0974333 5.080396,5.19284 C 4.8691387,5.288246 4.599956,5.3291343 4.272848,5.315505 C 3.94574,5.3018757 3.7208533,5.1178773 3.598188,4.76351 z M 7.973258,0.572439 C 7.973258,0.354367 7.857407,0.245331 7.625705,0.245331 C 7.3940037,0.245331 7.278153,0.354367 7.278153,0.572439 L 7.278153,4.845287 C 7.4280777,4.736251 7.6597793,4.6408447 7.973258,4.559068 L 7.973258,0.572439 z M 7.032822,0.572439 C 7.032822,0.354367 6.9101563,0.245331 6.664825,0.245331 C 6.4194943,0.245331 6.296829,0.354367 6.296829,0.572439 L 6.296829,4.559068 C 6.6511963,4.6408447 6.8965273,4.736251 7.032822,4.845287 L 7.032822,0.572439 z M 5.356394,4.456847 C 5.5880953,4.4295877 5.8266113,4.443217 6.071942,4.497735 L 6.071942,0.572439 C 6.071942,0.354367 5.9492767,0.245331 5.703946,0.245331 C 5.4722447,0.245331 5.356394,0.354367 5.356394,0.572439 L 5.356394,4.456847 z M 8.934137,0.572439 C 8.934137,0.354367 8.8182863,0.245331 8.586585,0.245331 C 8.3412543,0.245331 8.218589,0.354367 8.218589,0.572439 L 8.218589,4.497735 C 8.4639197,4.443217 8.7024357,4.4227727 8.934137,4.436402 L 8.934137,0.572439 z "
     id="path2212"
     sodipodi:nodetypes="cccccccscscsssccssssscsscsccscccsssccssscccssccccccssccccccssscssscsscssccsssccscscscsccssssssssccccsscccccccscssccssscssssccscccccscccccccscccscccc" />
</svg>
