<?xml version="1.0" encoding="UTF-8" standalone="no"?>
<svg
   xmlns:dc="http://purl.org/dc/elements/1.1/"
   xmlns:cc="http://web.resource.org/cc/"
   xmlns:rdf="http://www.w3.org/1999/02/22-rdf-syntax-ns#"
   xmlns:svg="http://www.w3.org/2000/svg"
   xmlns="http://www.w3.org/2000/svg"
   xmlns:sodipodi="http://inkscape.sourceforge.net/DTD/sodipodi-0.dtd"
   xmlns:inkscape="http://www.inkscape.org/namespaces/inkscape"
   width="11.714752"
   height="17.976807"
   id="svg1333"
   sodipodi:version="0.32"
   inkscape:version="0.43"
   sodipodi:docname="US22C10A.svg"
   sodipodi:docbase="C:\Program Files\JSesh\fonts\envoi24_SR">
  <metadata
     id="metadata1340">
    <rdf:RDF>
      <cc:Work
         rdf:about="">
        <dc:format>image/svg+xml</dc:format>
        <dc:type
           rdf:resource="http://purl.org/dc/dcmitype/StillImage" />
      </cc:Work>
    </rdf:RDF>
  </metadata>
  <defs
     id="defs1338" />
  <sodipodi:namedview
     inkscape:window-height="708"
     inkscape:window-width="1024"
     inkscape:pageshadow="2"
     inkscape:pageopacity="0.0"
     borderopacity="1.0"
     bordercolor="#666666"
     pagecolor="#ffffff"
     id="base"
     inkscape:zoom="42.402475"
     inkscape:cx="5.8580498"
     inkscape:cy="8.9884031"
     inkscape:window-x="-4"
     inkscape:window-y="-4"
     inkscape:current-layer="svg1333" />
  <path
     style="fill:#000000; stroke:none"
     d="M 11.006857,0.230382 C 11.282166,0.230382 11.406046,0.342305 11.437263,0.619187 C 11.473132,0.937514 11.298334,1.098159 10.845653,1.162906 L 10.631243,1.193577 L 10.450441,1.990759 C 10.350995,2.429209 10.265454,2.792087 10.260386,2.797168 C 10.255291,2.80225 10.142043,2.820886 10.008729,2.838574 L 9.766325,2.870726 L 9.942423,2.312751 C 10.334126,1.071556 10.544169,0.716463 10.915468,0.667663 C 10.959733,0.66184 10.994979,0.658487 11.024116,0.658487 C 11.103158,0.658487 11.13726,0.68318 11.184332,0.750396 C 11.222826,0.80537 11.254225,0.830348 11.274213,0.830348 C 11.306339,0.830348 11.308965,0.765757 11.264102,0.657474 C 11.209258,0.525043 11.102664,0.456229 10.959888,0.456229 C 10.901069,0.456229 10.83614,0.467912 10.766143,0.491617 C 10.298724,0.649949 9.899847,1.456774 9.480801,3.091465 C 9.385227,3.46435 9.282142,3.777725 9.251757,3.787863 C 9.243413,3.790644 9.236006,3.792372 9.229663,3.792372 C 9.174222,3.792372 9.198966,3.660864 9.362692,2.958437 C 9.770198,1.21003 10.360638,0.230382 11.006857,0.230382 z M 11.310863,4.093505 C 11.406929,4.093505 11.342313,4.275061 11.17287,4.375144 C 11.088317,4.425088 10.949414,4.457903 10.864991,4.457903 C 10.821714,4.457903 10.792733,4.449274 10.792733,4.429923 C 10.792733,4.415718 10.826029,4.339743 10.866733,4.261051 C 10.912323,4.172899 10.947542,4.137809 10.998721,4.137809 C 11.010989,4.137809 11.024168,4.139823 11.038619,4.143605 C 11.055046,4.147894 11.074333,4.149934 11.094633,4.149934 C 11.140873,4.149934 11.192364,4.139356 11.226881,4.120875 C 11.262568,4.101784 11.29038,4.093505 11.310863,4.093505 z M 10.982944,4.643423 C 11.035475,4.643423 11.074437,4.654795 11.074437,4.681918 C 11.074437,4.706155 10.98874,4.747743 10.884018,4.77432 C 10.813085,4.792333 10.768378,4.802054 10.741425,4.802054 C 10.704853,4.802054 10.700902,4.784158 10.708362,4.744819 C 10.718966,4.688832 10.878014,4.643423 10.982944,4.643423 z M 8.234447,4.603083 C 8.438408,4.603083 8.698798,4.604812 9.032174,4.60758 L 10.534526,4.620043 L 10.518073,4.760895 C 10.509002,4.838352 10.491924,4.917576 10.480098,4.936941 C 10.468246,4.956318 9.773187,4.97216 8.935509,4.97216 L 7.412467,4.97216 L 7.412467,4.86376 C 7.412467,4.804133 7.438876,4.719307 7.471158,4.675238 C 7.51168,4.619926 7.599872,4.603083 8.234447,4.603083 z M 8.150335,5.49437 C 8.213315,5.49437 8.305925,5.506456 8.445321,5.527627 L 8.656587,5.559715 L 8.445321,5.639732 C 8.329136,5.68375 8.139003,5.741167 8.022792,5.767341 C 7.906606,5.793515 7.732302,5.815452 7.635481,5.816076 C 7.633558,5.816089 7.63166,5.816089 7.629763,5.816089 C 7.442567,5.816089 7.413663,5.754826 7.528341,5.603187 C 7.559064,5.562587 7.576635,5.542846 7.58659,5.542846 C 7.595375,5.542846 7.598156,5.558324 7.598754,5.588475 C 7.600937,5.700177 7.695211,5.757866 7.792994,5.757866 C 7.883941,5.757866 7.977903,5.707974 8.003687,5.60524 C 8.023363,5.526899 8.047016,5.49437 8.150335,5.49437 z M 7.916899,5.405892 C 7.59787,5.405892 7.47212,5.468716 7.386787,5.633715 C 7.296334,5.808578 7.300701,5.899563 7.400745,5.925712 C 7.467779,5.94323 7.541961,5.951873 7.622355,5.951873 C 7.893662,5.951873 8.235408,5.853375 8.609385,5.664645 C 8.952768,5.491329 8.916977,5.468664 8.221034,5.418889 C 8.103523,5.41048 8.003167,5.405892 7.916899,5.405892 z M 1.59491,4.215136 C 1.854001,4.215136 2.037974,4.956942 1.936058,5.805484 C 1.919761,5.941047 1.8913,6.051969 1.872793,6.051969 C 1.81587,6.051969 1.404101,5.122343 1.350687,4.873233 C 1.295376,4.615377 1.323707,4.429416 1.437501,4.303146 C 1.491773,4.242935 1.544745,4.215136 1.59491,4.215136 z M 7.321209,6.176147 C 7.280609,6.176147 7.234395,6.183516 7.200449,6.196772 C 7.113921,6.230575 7.115013,6.233395 7.215706,6.236462 C 7.275411,6.238281 7.311072,6.260855 7.295087,6.286705 C 7.279153,6.312528 7.30959,6.33366 7.362744,6.33366 C 7.480749,6.33366 7.49177,6.212224 7.376521,6.182086 C 7.361133,6.178057 7.341899,6.176147 7.321209,6.176147 z M 10.803415,4.92592 C 10.921863,4.92592 11.232626,5.601211 11.382289,6.184074 C 11.450674,6.450391 11.499176,6.6746 11.490052,6.682333 C 11.485608,6.686114 11.476484,6.687999 11.465334,6.687999 C 11.453637,6.687999 11.439732,6.685946 11.426528,6.681865 C 11.400718,6.673885 11.289808,6.64428 11.180069,6.616066 C 10.985231,6.565991 10.980501,6.56013 10.979721,6.36706 C 10.978499,6.074504 10.859351,5.563418 10.722762,5.265092 C 10.597817,4.9922 10.613127,4.927622 10.80313,4.92592 C 10.803207,4.92592 10.803311,4.92592 10.803415,4.92592 z M 7.274553,6.615337 C 7.37101,6.615337 7.402305,6.634117 7.384266,6.681137 C 7.361731,6.739905 7.30564,6.771291 7.255033,6.771291 C 7.212951,6.771291 7.174664,6.749548 7.162708,6.703789 C 7.143994,6.63231 7.165463,6.615337 7.274553,6.615337 z M 11.024817,6.762324 C 11.131074,6.762324 11.474899,6.934847 11.488675,7.006157 C 11.499098,7.060195 11.451844,7.082912 11.382965,7.082912 C 11.249858,7.082912 11.036072,6.99806 11.001866,6.890296 C 10.985414,6.838468 10.983828,6.784196 10.998331,6.769692 C 11.003374,6.764637 11.012497,6.762324 11.024817,6.762324 z M 8.961761,5.066044 L 8.961761,5.610282 C 8.961761,6.075284 8.948661,6.171156 8.871906,6.268757 C 8.822495,6.33158 8.758112,6.525066 8.728845,6.698695 C 8.699577,6.872336 8.660797,7.264987 8.642654,7.571241 L 8.6513342,8.0697197 C 8.6513342,8.0697197 8.428374,7.880354 8.436328,7.832164 C 8.457771,7.702398 8.281155,7.335517 8.16814,7.275021 C 8.12112,7.24986 7.977643,7.232511 7.830657,7.232511 C 7.80872,7.232511 7.680422,7.236357 7.645436,7.236357 C 7.431962,7.236357 7.38936,7.199214 7.343796,7.04846 C 7.318454,6.964634 7.348189,6.904982 7.481997,6.771161 C 7.675951,6.577233 7.647255,6.523351 7.349384,6.522168 C 7.212691,6.521623 7.163332,6.500075 7.145865,6.433275 C 7.133181,6.384773 7.071787,6.321846 7.009432,6.293437 C 6.852569,6.221958 6.867229,6.094999 7.059909,5.856078 C 7.15005,5.744338 7.248249,5.605916 7.278166,5.548486 C 7.360249,5.390856 7.59761,5.30924 7.968416,5.30924 C 8.033813,5.30924 8.103368,5.311775 8.176951,5.316882 C 8.414936,5.333413 8.66246,5.360549 8.727025,5.377197 C 8.758657,5.385359 8.781245,5.389492 8.795177,5.389492 C 8.817478,5.389492 8.81766,5.378912 8.797439,5.3573 C 8.771628,5.32971 8.570916,5.260024 8.351438,5.202438 C 8.155352,5.151 7.976915,5.125488 7.827824,5.125488 C 7.647593,5.125488 7.510276,5.162748 7.436511,5.236514 C 7.410024,5.263 7.39326,5.277478 7.382759,5.277478 C 7.368125,5.277478 7.365526,5.249458 7.365526,5.186778 L 7.365526,5.066044 L 8.961761,5.066044 z M 9.820129,7.419083 C 9.978682,7.419083 10.164838,7.471639 10.256253,7.55753 L 10.371191,7.665502 L 10.244219,7.798037 C 10.074321,8.0210167 9.577751,8.164631 9.492445,8.164631 C 9.344497,8.164631 9.337349,8.156522 9.337531,7.988573 C 9.337713,7.787601 9.471469,7.539388 9.623394,7.458084 C 9.673325,7.431364 9.743504,7.419083 9.820129,7.419083 z M 8.303247,8.004169 C 8.303247,8.004169 8.641454,8.3199798 8.641454,8.3820248 C 8.641454,8.4508898 8.6699334,8.610889 8.6355933,8.5853732 L 8.111477,8.195939 L 8.303247,8.004169 z M 10.4448,7.871348 C 10.463593,7.871348 10.474276,7.887827 10.485972,7.917822 C 10.525584,8.019439 10.001489,8.5524989 9.47646,8.569175 C 9.4118236,8.571228 9.368176,8.552891 9.35518,8.518996 C 9.302338,8.381276 9.374258,8.305522 9.558881,8.304457 C 9.778879,8.30317 10.065314,8.176418 10.285962,7.982686 C 10.373868,7.905515 10.417743,7.871348 10.4448,7.871348 z M 8.054268,8.32282 L 8.633116,8.790771 C 8.633116,8.790771 8.627891,9.430181 8.62147,9.430181 C 8.621445,9.430181 8.621419,9.430167 8.621393,9.430167 C 8.614921,9.429024 8.532733,9.387436 8.43872,9.337765 C 8.0944,9.155846 7.793644,8.744493 7.857611,8.542961 C 7.872323,8.49663 8.036333,8.32282 8.054268,8.32282 z M 10.524909,8.188141 L 10.502088,8.543612 C 10.313955,9.1983592 10.017427,9.4945709 9.337349,9.432247 C 9.337349,9.432247 9.3038057,8.7446891 9.3370249,8.7446891 C 9.5144739,8.7446891 10.112984,8.560286 10.326406,8.367475 L 10.524909,8.188141 z M 2.595248,10.039854 C 2.838379,10.039854 3.057702,10.137247 3.319469,10.345446 L 3.522209,10.506701 L 3.319469,10.561259 C 3.207937,10.591267 3.026693,10.668568 2.916642,10.733016 L 2.716579,10.850227 L 2.621032,10.634193 L 2.525459,10.418145 L 2.257712,10.417431 C 1.787279,10.41617 1.752787,10.265051 2.189015,10.116402 C 2.336963,10.065989 2.469289,10.039854 2.595248,10.039854 z M 10.454132,9.282063 L 10.43326,12.044935 C 10.410673,15.031755 10.387332,15.361662 10.152024,16.016731 C 10.084782,16.203941 9.960721,16.494755 9.876298,16.662991 L 9.72284,16.96888 L 9.976109,17.152424 C 10.115401,17.253365 10.229351,17.342831 10.229351,17.351225 C 10.229351,17.359621 8.916795,17.366495 7.312528,17.366495 L 4.395704,17.366495 L 4.585499,17.190437 C 4.721621,17.064154 4.801053,16.934465 4.866501,16.731712 L 4.957734,16.44906 L 4.116313,14.243463 C 3.373299,12.295825 3.27744,12.013329 3.296804,11.828121 C 3.313725,11.666423 3.353571,11.587251 3.470822,11.482476 C 3.575467,11.388995 3.62558,11.36013 3.742051,11.36013 C 3.775763,11.36013 3.815037,11.362548 3.862785,11.366511 C 3.994696,11.377467 4.161124,11.424787 4.232603,11.47165 C 4.304107,11.518527 5.105214,12.610475 6.012837,13.898195 C 6.917264,15.181367 7.6639937,16.227808 7.676523,16.226007 L 7.6765539,16.226003 L 7.6765848,16.225998 L 7.6766059,16.225984 L 7.676627,16.225969 L 7.7422452,13.259613 C 7.7422452,13.259613 7.625404,9.2912264 7.6506665,9.3126454 C 7.9642529,9.5785224 8.186121,9.6776387 8.633116,9.768417 L 8.633116,10.135207 C 8.633116,10.559387 8.632699,10.558985 9.07124,10.558997 L 9.36082,10.559011 L 9.344263,10.159939 L 9.327706,9.76088 C 9.844928,9.7346829 10.137023,9.6667957 10.454132,9.282063 z M 11.009404,0 C 10.922044,0 10.824599,0.021691 10.703996,0.064253 C 10.025026,0.303797 9.526677,1.213643 9.07987,3.029461 L 8.905202,3.739335 L 8.636364,3.763716 C 8.157587,3.807123 7.592412,4.152988 7.33566,4.559741 C 7.25589,4.686115 7.207155,4.852947 7.180435,5.091269 C 7.147971,5.380654 7.105343,5.500257 6.924853,5.808096 C 6.805731,6.011317 6.70826,6.213679 6.70826,6.257802 C 6.70826,6.301923 6.771499,6.374012 6.8488,6.418005 C 6.957734,6.479983 6.989418,6.530993 6.989626,6.6448 C 6.989808,6.725558 7.021622,6.817934 7.060351,6.850087 C 7.099079,6.882226 7.130764,6.970716 7.130764,7.046705 C 7.130764,7.122719 7.15174,7.224076 7.177368,7.271941 C 7.230158,7.370581 7.426322,7.443853 7.607488,7.443853 C 7.644188,7.443853 7.819376,7.418979 7.865304,7.418979 C 8.010185,7.418979 8.112569,7.470586 8.182124,7.576752 C 8.258229,7.692911 8.256592,7.695991 8.035294,7.856714 C 7.762661,8.054723 7.7580121,8.1842989 7.4789304,8.4581279 C 6.9977071,8.930294 7.1883318,12.431257 7.271616,13.950777 C 7.2974234,14.421634 7.264884,14.563246 7.231042,14.563246 C 7.224284,14.563246 7.216434,14.557631 7.207363,14.54791 C 7.17204,14.510104 6.684451,13.803115 6.123876,12.976822 C 5.026874,11.359832 4.697162,10.971923 4.243026,10.764011 C 4.071737,10.685606 3.957241,10.591709 3.867438,10.456029 C 3.709639,10.217576 3.525926,10.043103 3.187117,9.809979 L 2.92891,9.632309 L 2.630649,8.330553 C 2.422477,7.422072 2.347256,7.013916 2.381617,6.979541 C 2.410183,6.950988 2.767472,6.920565 3.231538,6.907166 L 4.032203,6.884046 L 4.031943,6.620588 C 4.031657,6.349411 3.962206,6.022935 3.884463,5.927349 C 3.875158,5.915912 3.85912,5.90996 3.834298,5.90996 C 3.77267,5.90996 3.656849,5.946661 3.455071,6.027484 C 2.965429,6.223596 2.500662,6.371569 2.384191,6.371569 C 2.371143,6.371569 2.362461,6.369711 2.358614,6.365864 C 2.340732,6.347969 2.387778,6.116858 2.463181,5.85227 C 2.682686,5.082055 2.649338,4.33856 2.377381,3.938968 C 2.20643,3.687805 2.04481,3.595442 1.737348,3.573205 C 1.700543,3.570541 1.664465,3.569229 1.629194,3.569229 C 1.029371,3.569229 0.655239,3.950002 0.652951,4.576311 C 0.65108,5.094492 0.823564,5.522403 1.271619,6.111127 C 1.424115,6.311514 1.53596,6.496371 1.520157,6.521922 C 1.503236,6.54933 1.194474,6.568396 0.767421,6.568396 L 0.043381,6.568396 L 0.013282,6.688311 C -0.051205,6.945257 0.127674,7.469417 0.2901,7.499451 C 0.292777,7.499945 0.296052,7.500192 0.299873,7.500192 C 0.362072,7.500192 0.571206,7.435809 0.783042,7.350593 C 1.23406,7.169168 1.600863,7.056985 1.731785,7.056985 C 1.75562,7.056985 1.771657,7.060702 1.778935,7.068395 C 1.809372,7.100535 2.112104,9.116129 2.1644,9.635013 C 2.176305,9.753121 2.150208,9.780881 1.921685,9.893219 C 1.780859,9.96245 1.624463,10.075984 1.574142,10.145513 C 1.487146,10.265753 1.486575,10.277905 1.562706,10.394076 C 1.659085,10.541167 1.817144,10.612048 2.130792,10.64884 C 2.35851,10.675534 2.369297,10.6838 2.491435,10.924773 C 2.613312,11.165215 2.614924,11.178782 2.542353,11.347317 C 2.499778,11.446165 2.466924,11.653362 2.466326,11.8266 C 2.465442,12.084066 2.4951,12.197796 2.656018,12.554292 C 3.061652,13.452948 4.126087,16.356047 4.126087,16.563738 C 4.126087,16.605482 4.009693,16.813473 3.867438,17.025959 C 3.657655,17.339308 3.564524,17.434725 3.374469,17.531027 C 3.160943,17.639233 3.140175,17.664249 3.140175,17.81329 L 3.140175,17.976807 L 5.61669,17.976742 C 6.978787,17.976715 8.8711,17.962692 9.821844,17.945602 L 11.550485,17.914516 L 11.052681,17.415154 L 10.554852,16.915804 L 10.67569,16.642534 C 10.939121,16.046909 10.945905,15.964695 10.967167,13.105938 C 10.986687,10.481917 10.987441,10.4651 11.082988,10.4651 C 11.178432,10.4651 11.178951,10.454158 11.151114,9.04491 C 11.135674,8.263818 11.10989,7.534943 11.093801,7.425204 L 11.06456,7.225675 L 11.327705,7.225675 C 11.588798,7.225675 11.590851,7.22457 11.590851,7.084823 C 11.590851,6.989093 11.614114,6.943984 11.663395,6.943984 C 11.742412,6.943984 11.74041,6.91946 11.60616,6.244091 C 11.518176,5.801364 11.398898,5.4837 11.191064,5.138549 C 11.026923,4.865942 11.026585,4.864266 11.123458,4.796401 C 11.185112,4.753214 11.215523,4.687987 11.206399,4.618419 C 11.197146,4.547759 11.240086,4.458423 11.326874,4.367853 C 11.431336,4.258816 11.454911,4.199956 11.431492,4.10667 C 11.407709,4.011837 11.372178,3.986248 11.264388,3.986248 C 11.189089,3.986248 11.072098,3.965182 11.004414,3.939449 C 10.971638,3.926986 10.947153,3.918733 10.926515,3.918733 C 10.873101,3.918733 10.845341,3.974071 10.765311,4.155003 L 10.649282,4.417356 L 10.464477,4.250394 C 10.257267,4.063185 9.907619,3.873689 9.677717,3.823979 C 9.503232,3.786251 9.50765,3.802548 9.587707,3.493279 L 9.64845,3.258543 L 10.044105,3.174472 C 10.261711,3.128244 10.452026,3.075428 10.46705,3.057117 C 10.482074,3.038792 10.574761,2.650637 10.673064,2.194525 L 10.851761,1.365255 L 11.061337,1.312478 C 11.328823,1.245119 11.484075,1.142658 11.569797,0.976918 C 11.71829,0.689756 11.602911,0.295233 11.313955,0.102214 C 11.211182,0.033556 11.118077,0 11.009404,0 z "
     id="path1335"
     sodipodi:nodetypes="cscccscccsssssssssssccssssssssccsssscccccscccscccccssssssssccsssssccssssccsssssccssssssssccsssccsssscccssccsssssssssssssssssssscccccccsssccsscccssssscccssssccccscccccccccccscccscccsccccccssssssscccccsccccccccscccsssssssssssssssssssscccscccsssssssssssscccsssssssssssssssssccccccccssscccssssssssssscccscccscccssc" />
</svg>
