<?xml version="1.0" encoding="UTF-8" standalone="no"?>
<svg
   xmlns:dc="http://purl.org/dc/elements/1.1/"
   xmlns:cc="http://web.resource.org/cc/"
   xmlns:rdf="http://www.w3.org/1999/02/22-rdf-syntax-ns#"
   xmlns:svg="http://www.w3.org/2000/svg"
   xmlns="http://www.w3.org/2000/svg"
   xmlns:sodipodi="http://sodipodi.sourceforge.net/DTD/sodipodi-0.dtd"
   xmlns:inkscape="http://www.inkscape.org/namespaces/inkscape"
   width="10.188112"
   height="18"
   id="svg2"
   sodipodi:version="0.32"
   inkscape:version="0.45.1"
   sodipodi:docname="C113.svg"
   sodipodi:docbase="/Users/rosmord/Travail/Gsigns/SThomasDetail/ManuelDeCodage/C"
   inkscape:output_extension="org.inkscape.output.svg.inkscape"
   version="1.0">
  <metadata
     id="metadata9">
    <rdf:RDF>
      <cc:Work
         rdf:about="">
        <dc:format>image/svg+xml</dc:format>
        <dc:type
           rdf:resource="http://purl.org/dc/dcmitype/StillImage" />
      </cc:Work>
    </rdf:RDF>
  </metadata>
  <defs
     id="defs7" />
  <sodipodi:namedview
     inkscape:window-height="581"
     inkscape:window-width="701"
     inkscape:pageshadow="2"
     inkscape:pageopacity="0.0"
     guidetolerance="10.0"
     gridtolerance="10.0"
     objecttolerance="10.0"
     borderopacity="1.0"
     bordercolor="#666666"
     pagecolor="#ffffff"
     id="base"
     height="18px"
     width="10.188112px"
     inkscape:zoom="18.509035"
     inkscape:cx="5.0935467"
     inkscape:cy="7.7069813"
     inkscape:window-x="0"
     inkscape:window-y="22"
     inkscape:current-layer="svg2" />
  <path
     style="fill:#000000;stroke:none"
     d="M 6.8119264,10.776945 L 6.8119264,9.1388498 C 6.8694035,8.4203868 7.1280505,8.0827092 7.5878671,8.1258169 C 8.0476826,8.1689246 8.2919597,8.4203866 8.3206986,8.8802026 L 8.3206986,11.509777 L 8.6440074,11.509777 L 8.6440074,8.9233109 C 8.701484,7.2564764 8.6296377,6.1644125 8.4284685,5.6471193 C 8.2272988,5.1298261 7.8034057,4.7274869 7.1567893,4.4401017 C 7.3579585,5.1585647 7.2573734,5.8123661 6.8550338,6.4015058 C 6.4526949,6.9906456 6.3197793,7.4540542 6.4562869,7.7917315 C 6.592795,8.1294088 6.6394952,8.7436947 6.5963875,9.6345891 L 6.5963875,10.776945 L 6.8119264,10.776945 z M 4.3116746,10.841607 L 4.699645,10.841607 C 4.771491,10.080036 4.8936297,9.4549729 5.0660612,8.9664183 C 4.7355683,8.6646637 4.548768,8.3126169 4.5056603,7.910278 C 4.2470133,8.5856333 4.1823515,9.5627428 4.3116746,10.841607 z M 1.1863613,17.631083 L 7.4154348,17.631083 L 7.0921269,17.28622 C 7.5806812,15.245786 7.8034048,13.449628 7.7602977,11.897748 L 7.7602977,8.9664183 C 7.5878662,8.463494 7.4226197,8.4706787 7.2645583,8.9879725 L 7.2645583,11.3589 L 6.1222015,11.3589 L 6.1222015,8.8370952 L 5.5833547,9.0095266 C 5.382185,9.5986664 5.2528615,10.381791 5.1953843,11.3589 L 5.1953843,15.389478 L 4.5703218,15.389478 L 1.9407469,11.962409 C 1.5384074,11.344531 1.1719912,11.107438 0.84149834,11.25113 C 0.51100545,11.394824 0.76965234,12.221057 1.617439,13.729829 L 2.6951335,16.962912 L 1.1863613,17.631083 z M 6.1653098,5.3884721 C 6.1653098,6.0207196 5.9569553,6.5272362 5.5402464,6.9080218 C 5.123538,7.2888075 4.9582916,7.6516311 5.044507,7.9964929 C 5.130723,8.3413552 5.3318928,8.470679 5.6480163,8.3844641 C 5.9641397,8.2982481 6.071909,8.071932 5.9713241,7.7055158 C 5.8707399,7.3390996 5.9964711,6.922391 6.3485179,6.4553899 C 6.7005646,5.9883894 6.8586264,5.5106117 6.822703,5.0220568 C 6.7867803,4.5335019 6.5532798,4.2676705 6.1222015,4.2245628 C 6.4526943,4.5837941 6.4670638,4.9717638 6.1653098,5.3884721 z M 5.0013996,4.7849638 C 4.627799,4.8568098 4.0817672,5.054387 3.3633043,5.3776955 C 2.6448407,5.701004 2.091624,6.1392665 1.7036539,6.6924829 C 1.3156838,7.2456994 1.143253,7.5258999 1.1863613,7.5330843 C 1.229469,7.5402693 1.4270462,7.3139538 1.779093,6.8541378 C 2.1311397,6.3943211 2.5622175,6.0314971 3.0723263,5.7656658 C 3.5824351,5.4998345 4.2685672,5.302257 5.1307228,5.1729332 C 5.806078,5.2591492 6.1078326,5.1226414 6.0359866,4.7634096 C 5.96414,4.4041784 5.795301,4.238932 5.5294697,4.2676703 C 5.2636385,4.2964091 5.0876151,4.4688403 5.0013996,4.7849638 z M 5.2384926,4.7203022 C 5.2959692,4.504763 5.4109232,4.4113629 5.5833547,4.4401017 C 5.7557855,4.46884 5.7881163,4.5442785 5.6803471,4.6664172 C 5.5725778,4.7885559 5.4252929,4.8065177 5.2384926,4.7203022 z M 5.4755848,3.9443624 C 5.3749999,3.9012547 5.2456767,3.8078545 5.0876153,3.6641619 C 4.6565376,3.2618224 4.4409987,2.7373442 4.4409987,2.0907273 C 4.4409987,1.4872187 4.627799,0.98788678 5.0013996,0.59273171 C 5.3750003,0.19757724 5.9138473,0 6.6179408,0 C 7.2789266,0 7.7962201,0.19039281 8.1698213,0.57117844 C 8.5434219,0.95196345 8.7302222,1.4656645 8.7302222,2.1122814 C 8.7302222,2.974437 8.2991445,3.6426075 7.4369889,4.116793 C 7.7100047,4.2461167 8.0440901,4.4688403 8.4392451,4.7849638 C 8.8343996,5.1010878 9.0391616,5.8339199 9.053531,6.98346 L 9.0319768,12.005518 L 8.3638069,12.005518 C 8.3925452,13.844783 8.1913755,15.518801 7.7602977,17.027574 L 8.6440074,18.148375 L 0.58285203,18.148375 L 0.4966363,17.39399 L 1.8976395,16.812036 C 1.4665617,15.030247 0.84149893,13.456812 0.022451111,12.091733 C -0.078133761,11.3589 0.14458955,10.852384 0.69062103,10.572184 C 1.2366531,10.291983 1.8473467,10.618884 2.522702,11.552886 L 4.6780908,14.397999 L 4.6780908,11.3589 L 3.8590436,11.3589 C 3.6866121,9.5771123 3.7476812,8.4132018 4.0422508,7.8671697 C 4.336821,7.3211382 4.6924603,6.929576 5.1091686,6.6924829 C 5.5258776,6.4553899 5.7270473,6.0710124 5.7126778,5.5393503 C 5.3534466,5.3956571 4.70683,5.4854647 3.7728279,5.8087732 C 2.8388258,6.1320818 2.0844395,6.7104446 1.5096691,7.5438618 C 1.2941305,7.7594005 1.1432532,7.8384311 1.0570372,7.780954 C 0.97082176,7.7234774 0.97082176,7.5726005 1.0570372,7.328323 C 1.3731613,6.6529677 1.8114238,6.0853818 2.3718247,5.6255652 C 2.9322262,5.1657491 3.6866124,4.8280715 4.6349834,4.6125323 C 4.8505226,4.2245622 5.130723,4.001839 5.4755848,3.9443624 z M 4.9151839,2.0476198 C 4.9151839,2.5649131 5.0768381,2.9852139 5.4001466,3.3085224 C 5.7234551,3.6318302 6.1293864,3.7934842 6.6179408,3.7934842 C 7.1064963,3.7934842 7.5016514,3.6174608 7.803406,3.2654141 C 8.10516,2.9133673 8.2632215,2.521805 8.2775903,2.0907273 C 8.2775903,1.573434 8.1303055,1.1710949 7.8357359,0.88370969 C 7.5411657,0.59632451 7.135234,0.45263192 6.6179408,0.45263192 C 6.0719093,0.45263192 5.6516084,0.59991672 5.3570383,0.89448633 C 5.0624686,1.1890565 4.9151839,1.5734344 4.9151839,2.0476198 z "
     id="path4" />
</svg>
