<?xml version="1.0" encoding="UTF-8" standalone="no"?>
<svg
   xmlns:dc="http://purl.org/dc/elements/1.1/"
   xmlns:cc="http://web.resource.org/cc/"
   xmlns:rdf="http://www.w3.org/1999/02/22-rdf-syntax-ns#"
   xmlns:svg="http://www.w3.org/2000/svg"
   xmlns="http://www.w3.org/2000/svg"
   xmlns:sodipodi="http://sodipodi.sourceforge.net/DTD/sodipodi-0.dtd"
   xmlns:inkscape="http://www.inkscape.org/namespaces/inkscape"
   width="14.546758"
   height="18"
   id="svg2"
   sodipodi:version="0.32"
   inkscape:version="0.45.1"
   sodipodi:docname="C114.svg"
   sodipodi:docbase="/Users/rosmord/Travail/Gsigns/SThomasDetail/ManuelDeCodage/C"
   inkscape:output_extension="org.inkscape.output.svg.inkscape"
   version="1.0">
  <metadata
     id="metadata9">
    <rdf:RDF>
      <cc:Work
         rdf:about="">
        <dc:format>image/svg+xml</dc:format>
        <dc:type
           rdf:resource="http://purl.org/dc/dcmitype/StillImage" />
      </cc:Work>
    </rdf:RDF>
  </metadata>
  <defs
     id="defs7" />
  <sodipodi:namedview
     inkscape:window-height="581"
     inkscape:window-width="701"
     inkscape:pageshadow="2"
     inkscape:pageopacity="0.0"
     guidetolerance="10.0"
     gridtolerance="10.0"
     objecttolerance="10.0"
     borderopacity="1.0"
     bordercolor="#666666"
     pagecolor="#ffffff"
     id="base"
     height="18px"
     width="14.546758px"
     inkscape:zoom="17.609725"
     inkscape:cx="7.2735233"
     inkscape:cy="7.267294"
     inkscape:window-x="378"
     inkscape:window-y="74"
     inkscape:current-layer="svg2" />
  <path
     style="fill:#000000;stroke:none"
     d="M 5.2765372,2.220628 C 5.5345916,2.5330097 6.1355871,2.8929279 7.0795237,3.3003825 C 8.0234603,3.7078371 8.9673964,3.7112324 9.9113327,3.3105686 C 10.85527,2.9099047 11.456266,2.5465912 11.71432,2.220628 C 11.850138,2.0440638 11.985956,1.9931318 12.121775,2.0678319 C 12.257593,2.142532 12.250802,2.3292822 12.101402,2.6280825 C 11.924838,3.0083731 11.503802,3.4633641 10.838293,3.9930554 C 10.172783,4.5227462 9.3918289,4.8011733 8.4954286,4.8283367 C 7.5990282,4.8147553 6.8146781,4.5397235 6.1423784,4.0032415 C 5.4700782,3.4667595 5.052437,3.0083731 4.8894548,2.6280825 C 4.7400552,2.3292822 4.7298691,2.1391366 4.8588966,2.0576458 C 4.9879235,1.976155 5.1271371,2.0304824 5.2765372,2.220628 z M 5.154301,2.5262185 C 5.7926466,3.3411276 6.5090876,3.9081687 7.303624,4.2273418 C 8.0981604,4.5465143 8.8859061,4.5431186 9.6668603,4.2171548 C 10.447815,3.8911916 11.171047,3.3275462 11.836556,2.5262185 C 11.075974,3.178146 10.328974,3.6127642 9.5955561,3.8300733 C 8.8621381,4.0473823 8.1287194,4.0473823 7.3953011,3.8300733 C 6.6618828,3.6127642 5.9148828,3.178146 5.154301,2.5262185 z M 6.4989009,1.9557818 C 6.4989009,1.439673 6.6720692,0.98468204 7.0184056,0.59080887 C 7.3647421,0.19693629 7.8570831,0 8.4954286,0 C 9.1201925,0 9.6057422,0.21051828 9.9520787,0.63155483 C 10.298415,1.0525914 10.471583,1.4940003 10.471583,1.9557818 C 10.471583,2.4311457 10.298415,2.8827413 9.9520787,3.3105686 C 9.6057422,3.7383959 9.1201925,3.9523095 8.4954286,3.9523095 C 7.9521559,3.9523095 7.4835832,3.7689549 7.0897106,3.4022457 C 6.6958375,3.0355365 6.4989009,2.5533819 6.4989009,1.9557818 z M 6.8452374,1.9557818 C 6.8316554,2.4447277 6.9878463,2.8453916 7.3138101,3.1577733 C 7.6397738,3.4701551 8.0336467,3.626346 8.4954286,3.626346 C 8.9843743,3.612764 9.3782469,3.4362004 9.6770472,3.0966552 C 9.9758467,2.7571095 10.132038,2.3768183 10.14562,1.9557818 C 10.118457,1.5347458 9.9656607,1.1578503 9.6872333,0.8250952 C 9.4088059,0.49234072 9.0115383,0.32596349 8.4954286,0.32596349 C 7.9793199,0.32596349 7.5752606,0.48894537 7.283251,0.81490913 C 6.9912419,1.1408729 6.8452374,1.5211638 6.8452374,1.9557818 z M 8.7195289,11.062392 L 8.7195289,9.5140651 C 8.773856,8.8349741 9.0183284,8.5124057 9.452947,8.5463607 C 9.8875655,8.5803148 10.111666,8.8213921 10.125247,9.2695927 L 10.125247,11.734693 L 10.45121,11.734693 L 10.45121,9.2899648 C 10.505538,7.7280554 10.437628,6.6992325 10.247483,6.2034965 C 10.057338,5.7077599 9.6566742,5.3308643 9.0454924,5.0728099 C 9.1813106,5.8469737 9.0726564,6.4853192 8.7195289,6.9878466 C 8.3664012,7.490374 8.2543511,7.9046195 8.3833785,8.2305833 C 8.5124057,8.5565467 8.5565467,9.1337745 8.5158016,9.9622656 L 8.5158016,11.062392 L 8.7195289,11.062392 z M 6.3562917,11.103138 L 6.7230012,11.103138 L 7.0693377,9.3510837 C 6.7569553,9.0658654 6.5803914,8.7263199 6.539646,8.3324473 C 6.2951736,8.9707923 6.2340555,9.8943557 6.3562917,11.103138 z M 8.1083471,5.9488372 C 8.1083471,6.5600193 7.9114108,7.0455696 7.5175382,7.4054881 C 7.123665,7.7654059 6.9674738,8.1049514 7.0489647,8.4241245 C 7.1304555,8.743297 7.3206011,8.8621372 7.6194014,8.7806462 C 7.9182012,8.6991559 8.020065,8.4886376 7.9249928,8.1490922 C 7.8299194,7.8095465 7.94876,7.4156735 8.2815144,6.9674736 C 8.6142689,6.5192737 8.7636691,6.0676781 8.729715,5.6126868 C 8.69576,5.1576961 8.4750557,4.909828 8.0676011,4.8690827 C 8.3392375,5.2629552 8.3528195,5.6228734 8.1083471,5.9488372 z M 7.0082187,5.3784013 C 6.6550921,5.4327281 6.1355876,5.612687 5.4497055,5.9182781 C 4.7638233,6.2238692 4.2409232,6.6415101 3.8810053,7.1712009 C 3.5210868,7.7008916 3.3615003,7.972528 3.4022457,7.98611 C 3.4429917,7.999692 3.6331372,7.7925694 3.9726824,7.3647421 C 4.3122277,6.9369148 4.7196822,6.5939737 5.1950461,6.3359188 C 5.6704101,6.0778644 6.3155466,5.8809281 7.1304558,5.7451099 C 7.7688013,5.8266007 8.0540194,5.7009689 7.98611,5.3682144 C 7.9182012,5.0354599 7.7586149,4.879269 7.5073513,4.8996417 C 7.2560876,4.9200144 7.08971,5.0796009 7.0082187,5.3784013 z M 7.232319,5.3172823 C 7.2866463,5.1135553 7.3953009,5.0286692 7.5582825,5.0626239 C 7.7212646,5.096578 7.7484283,5.1678824 7.6397735,5.2765372 C 7.5311193,5.385192 7.3953011,5.3987737 7.232319,5.3172823 z M 2.3632363,11.225374 C 2.4990551,10.940156 2.8114371,10.797547 3.3003825,10.797547 C 2.9065093,10.553074 2.5465912,10.485165 2.220628,10.59382 C 1.8946642,10.702475 1.8063822,10.773779 1.9557818,10.807734 C 2.1051819,10.841688 2.2410001,10.980901 2.3632363,11.225374 z M 7.1915739,15.055448 L 6.580392,15.055448 L 3.9726824,11.856929 C 3.6059733,11.327238 3.2426595,11.184628 2.882741,11.429102 C 2.5228232,11.673574 2.6145006,12.216847 3.1577733,13.05892 C 3.7010461,13.900993 4.156037,15.21843 4.5227462,17.011229 L 3.2800095,17.520547 L 9.3510837,17.520547 L 9.0454924,17.23533 C 9.3714559,15.999384 9.5514151,14.977353 9.5853701,14.169234 C 9.6193242,13.361116 9.6295103,12.678629 9.6159283,12.121775 L 9.6159283,9.3510837 C 9.452947,8.8757201 9.2967558,8.8757201 9.1473565,9.3510837 L 9.1473565,11.469847 L 8.0676011,11.469847 L 8.0676011,9.2084737 L 7.5582825,9.391828 C 7.3681374,9.9351016 7.2459012,10.66852 7.1915739,11.592083 L 7.1915739,15.055448 z M 1.9354096,10.267856 L 1.9354096,6.7026282 C 1.9218276,6.3630825 1.7995912,6.1933096 1.5687002,6.1933096 C 1.4600454,6.2340555 1.3242272,6.3223376 1.1612456,6.4581558 C 0.90319121,6.7026282 0.71304563,7.0116146 0.59080887,7.3851151 C 0.46857267,7.7586149 0.38029087,8.0472284 0.32596349,8.2509554 C 0.12223648,8.6040829 0.013581987,8.5565467 0,8.1083471 C 0.21730899,7.2934379 0.38708186,6.7569559 0.50931863,6.4989009 C 0.63155483,6.2408465 0.70625464,6.0710736 0.73341805,5.9895823 C 0.82849084,5.7179465 1.0390091,5.4531011 1.3649729,5.1950461 C 1.7588455,4.7468462 2.0915999,4.4073007 2.3632363,4.1764097 C 2.6892001,4.0677549 2.8250186,4.128873 2.7706917,4.359764 C 2.6756189,4.5770731 2.5601734,4.7264732 2.4243553,4.8079646 C 2.0712275,5.1610918 1.8403365,5.4463098 1.7316823,5.6636188 C 2.1663003,5.6907828 2.3904003,6.0371193 2.4039823,6.7026282 L 2.4039823,10.165992 L 2.4243553,10.14562 L 2.4039823,10.14562 C 3.0151639,10.14562 3.5312729,10.410465 3.9523095,10.940157 L 6.7026282,14.362776 L 6.7026282,11.469847 L 5.9284642,11.469847 C 5.81981,9.8671925 5.8911147,8.807811 6.1423784,8.2917014 C 6.393642,7.7755926 6.7162102,7.4088834 7.1100828,7.1915739 C 7.5039559,6.9742648 7.6941015,6.6075557 7.6805195,6.0914464 C 7.3545558,5.9556282 6.7433739,6.04391 5.846974,6.3562917 C 4.9505735,6.6686735 4.2375278,7.2119463 3.7078371,7.98611 C 3.5041095,8.1898375 3.3615003,8.2679333 3.2800095,8.2203972 C 3.1985187,8.1728605 3.1985187,8.0268557 3.2800095,7.7823827 C 3.5652279,7.1576191 3.9760778,6.6279281 4.5125593,6.1933096 C 5.0490413,5.7586916 5.7654826,5.4395191 6.6618831,5.2357921 C 6.9199375,4.8011736 7.245901,4.5838643 7.6397735,4.5838643 C 7.7348464,4.4887915 7.8978285,4.4480461 8.12872,4.4616281 C 8.3596105,4.4752095 8.6482239,4.5295366 8.9945604,4.6246094 C 9.3408968,4.7196827 9.7313743,4.9437827 10.165992,5.2969094 C 10.600611,5.6500371 10.824711,6.3766647 10.838293,7.4767922 L 10.838293,12.223638 L 10.186365,12.223638 C 10.199947,12.794075 10.203343,13.340743 10.196552,13.863643 C 10.189761,14.386543 10.030174,15.456111 9.7177923,17.072348 L 10.45121,18.029867 L 2.6280825,18.029867 L 2.5262185,17.316821 L 3.9319373,16.726012 C 3.5788096,15.286339 3.1849367,14.199793 2.7503187,13.466375 C 2.3157002,12.732956 2.0780182,12.108193 2.0372728,11.592083 C 1.9286186,11.279702 1.7486596,11.092952 1.497396,11.031834 C 1.2461323,10.970716 1.2053866,10.845084 1.375159,10.654938 C 1.5449319,10.464792 1.7316821,10.342556 1.9354096,10.288229 L 1.9354096,10.267856 z "
     id="path4" />
</svg>
