<?xml version="1.0" encoding="UTF-8" standalone="no"?>
<svg
   xmlns:dc="http://purl.org/dc/elements/1.1/"
   xmlns:cc="http://web.resource.org/cc/"
   xmlns:rdf="http://www.w3.org/1999/02/22-rdf-syntax-ns#"
   xmlns:svg="http://www.w3.org/2000/svg"
   xmlns="http://www.w3.org/2000/svg"
   xmlns:sodipodi="http://sodipodi.sourceforge.net/DTD/sodipodi-0.dtd"
   xmlns:inkscape="http://www.inkscape.org/namespaces/inkscape"
   width="10.012931"
   height="18"
   id="svg2"
   sodipodi:version="0.32"
   inkscape:version="0.45.1"
   sodipodi:docname="C12A.svg"
   sodipodi:docbase="/Users/rosmord/Travail/Gsigns/SThomasDetail/ManuelDeCodage/C"
   inkscape:output_extension="org.inkscape.output.svg.inkscape"
   version="1.0">
  <metadata
     id="metadata9">
    <rdf:RDF>
      <cc:Work
         rdf:about="">
        <dc:format>image/svg+xml</dc:format>
        <dc:type
           rdf:resource="http://purl.org/dc/dcmitype/StillImage" />
      </cc:Work>
    </rdf:RDF>
  </metadata>
  <defs
     id="defs7" />
  <sodipodi:namedview
     inkscape:window-height="581"
     inkscape:window-width="701"
     inkscape:pageshadow="2"
     inkscape:pageopacity="0.0"
     guidetolerance="10.0"
     gridtolerance="10.0"
     objecttolerance="10.0"
     borderopacity="1.0"
     bordercolor="#666666"
     pagecolor="#ffffff"
     id="base"
     height="18px"
     width="10.012931px"
     inkscape:zoom="18.313954"
     inkscape:cx="5.0061247"
     inkscape:cy="7.6802551"
     inkscape:window-x="20"
     inkscape:window-y="42"
     inkscape:current-layer="svg2" />
  <path
     style="fill:#000000;stroke:none"
     d="M 4.2392601,4.779846 C 4.3087573,5.0230862 4.3492972,5.2663261 4.3608799,5.5095657 C 4.6504518,5.4748174 5.0095204,5.5790631 5.4380858,5.8223027 C 5.8319024,5.660143 6.0751422,5.691996 6.1678054,5.9178617 C 6.260468,6.1437275 6.2257195,6.3348447 6.0635598,6.4912133 C 5.9014,6.6475814 5.8087374,6.772097 5.7855719,6.8647603 L 6.1678054,7.1079999 C 6.260468,7.1890797 6.3647137,7.1427481 6.4805424,6.969005 L 7.6619939,4.779846 L 4.2392601,4.779846 z M 4.0307688,6.6041456 L 4.0481429,6.5172741 L 4.2045119,6.4304026 C 4.3203406,6.187163 4.6214948,6.187163 5.1079746,6.4304026 L 5.5075832,6.4304026 L 5.5075832,6.5520232 L 5.1253488,6.5520232 C 4.7083661,6.7373485 4.3956291,6.760514 4.1871377,6.6215198 L 4.0307688,6.6041456 z M 4.2566343,6.5346482 C 4.3029659,6.5462316 4.3724633,6.5693974 4.4651265,6.6041456 C 4.4072122,6.5230658 4.3956291,6.4419856 4.4303773,6.3609052 C 4.3261319,6.4072368 4.2682176,6.4651511 4.2566343,6.5346482 z M 4.6909919,6.5867715 C 4.7836545,6.563606 4.8879002,6.5288574 5.003729,6.4825258 L 4.6909919,6.3609052 C 4.7604891,6.4419856 4.7604891,6.5172744 4.6909919,6.5867715 z M 4.1871377,6.2045371 L 4.1871377,6.0481682 C 4.4419601,5.9786716 4.6446601,5.9728802 4.7952376,6.030794 C 4.9458146,6.0887084 5.1485146,6.1582055 5.4033375,6.2392854 L 5.4902082,6.3261569 C 5.2122197,6.3145742 4.9892498,6.2711384 4.8212984,6.1958496 C 4.653347,6.1205614 4.4419601,6.1234572 4.1871377,6.2045371 z M 5.3685884,9.6620183 C 5.0790172,10.936132 4.8068201,12.870469 4.5519971,15.465029 L 4.1350145,15.499777 L 1.8068615,12.163915 C 1.459376,11.665853 1.1118901,11.532649 0.76440397,11.764307 C 0.41691841,11.995964 0.50378995,12.508505 1.0250186,13.301931 C 1.5462472,14.095356 1.9806043,15.343408 2.3280899,17.046087 L 1.1292642,17.532567 L 6.9148992,17.532567 L 6.6890338,17.202456 C 6.8743596,16.090502 7.0365196,14.677394 7.1755138,12.963132 C 7.2913426,11.457361 7.2681768,10.351199 7.1060164,9.6446441 C 6.9901883,9.1465816 6.7064085,8.8975503 6.254677,8.8975503 C 5.8029454,8.8975503 5.5075825,9.1523733 5.3685884,9.6620183 z M 5.5770797,7.0906257 C 5.565497,7.345448 5.4091285,7.588688 5.1079746,7.8203454 C 5.2701344,8.0404195 5.3975456,8.3241993 5.4902082,8.6716849 C 5.6060369,8.590605 5.7450311,8.5384823 5.9071908,8.5153168 C 6.0693512,8.4921507 6.2315112,8.4863591 6.3936709,8.4979418 C 6.2199284,8.3010338 6.1156828,7.9361741 6.0809339,7.4033627 L 5.5770797,7.0906257 z M 5.4207116,6.9863801 C 5.4091289,6.8705513 5.4988959,6.7286613 5.6900129,6.5607099 C 5.8811298,6.3927585 5.9737924,6.2566601 5.9680007,6.1524147 C 5.9622097,6.0481688 5.9071911,5.9960458 5.8029452,5.9960458 C 5.6986998,5.9960458 5.5944541,6.0597515 5.4902082,6.187163 C 4.9921456,5.9207573 4.5925373,5.7933458 4.2913834,5.8049286 C 4.1523892,6.1292486 3.9554806,6.5056914 3.7006577,6.9342568 C 3.9323145,6.9458395 4.0249774,7.0385024 3.9786464,7.2122455 C 4.0481435,7.1427484 4.1668678,7.1717056 4.3348192,7.2991171 C 4.5027706,7.4265279 4.3840464,7.4786509 3.9786464,7.455486 C 4.0365607,7.5365659 4.0539349,7.6263326 4.0307688,7.7247864 C 4.0076033,7.8232406 4.1060576,7.8666764 4.3261317,7.8550937 C 4.6620345,7.8435109 4.9284401,7.7653269 5.1253488,7.6205416 C 5.3222574,7.4757557 5.4380858,7.2759513 5.472834,7.0211283 L 5.4207116,6.9863801 z M 5.0384772,4.4844832 L 5.7160736,4.4844832 L 7.1060164,0.88800718 C 7.1870969,0.62160149 7.1320783,0.46233729 6.9409609,0.41021461 C 6.7498439,0.35809192 6.6079539,0.44206762 6.5152907,0.66214171 L 5.0384772,4.4844832 z M 6.2894252,4.4844832 L 6.9670225,4.4844832 L 8.2353447,1.2007442 C 8.3743388,0.93433852 8.3337989,0.76928293 8.1137249,0.70557748 C 7.8936508,0.64187203 7.7314907,0.73163911 7.6272448,0.97487872 L 6.2894252,4.4844832 z M 7.0886423,6.4999 C 7.9110249,7.0674597 8.3280076,7.8550937 8.3395903,8.8628021 L 8.3395903,18.019047 L 7.9399818,18.019047 L 7.9399818,8.8628021 C 7.9399818,8.0288367 7.6040792,7.3570311 6.9322742,6.8473852 L 6.4805424,7.6466023 C 6.4226281,7.9709224 6.5326651,8.2720766 6.8106536,8.5500651 C 7.2044707,8.654311 7.4563978,9.2073924 7.5664349,10.209309 C 7.676472,11.211225 7.5461649,13.513317 7.1755138,17.115585 L 7.9399818,18.019047 L 0.52116437,18.019047 L 0.43429283,17.341449 L 1.7547382,16.768099 C 1.4188354,15.424488 1.0452885,14.405197 0.63409754,13.710226 C 0.22290595,13.015255 0.011518784,12.514296 -6.3970799e-05,12.207351 C -0.011646725,11.900406 0.20553182,11.619521 0.65147167,11.364698 C 1.0974115,11.109876 1.5230814,11.150416 1.9284813,11.486319 L 4.1350145,14.613688 C 4.4014201,12.007546 4.7431143,10.038462 5.160097,8.706434 C 5.0790172,8.4400277 4.9631888,8.2373275 4.8126117,8.0983333 L 4.3261317,8.0983333 C 4.0481432,8.9670477 3.738302,9.4853802 3.3966082,9.6533316 C 3.0549137,9.821283 2.8000908,9.8589271 2.6321394,9.7662648 C 2.464188,9.6736025 2.4033781,9.5838351 2.4497097,9.4969627 C 2.4960406,9.410092 2.6118691,9.4014045 2.7971949,9.4709019 C 2.9825207,9.5403993 3.1939079,9.4158837 3.4313564,9.097355 C 3.668805,8.7788264 3.8049036,8.3589476 3.8396525,7.8377195 C 3.862818,7.6639771 3.8367564,7.5539397 3.7614676,7.5076075 C 3.6861788,7.4612765 3.694866,7.4091538 3.7875292,7.3512395 C 3.6832833,7.3396567 3.6717005,7.275951 3.7527809,7.1601222 C 3.4168781,7.171705 3.3618593,7.0124408 3.5877245,6.6823297 C 3.8135902,6.3522185 3.9670631,6.0307943 4.0481429,5.718057 C 4.0481429,5.3589887 3.9786461,4.9477974 3.8396525,4.4844832 L 4.6041204,4.4844832 L 6.0809339,0.59264431 C 6.2083454,0.16407889 6.4660639,-0.032829406 6.8540893,0.0019194408 C 7.2421148,0.036667706 7.4766675,0.18724469 7.5577474,0.45365038 C 7.8009876,0.3030734 8.0876635,0.29149064 8.4177752,0.41890211 C 8.7478864,0.54631358 8.8260704,0.8300934 8.6523273,1.2702416 L 7.4187534,4.4844832 L 8.2179705,4.4844832 L 7.0886423,6.4999 z "
     id="path4" />
</svg>
