<?xml version="1.0" encoding="UTF-8" standalone="no"?>
<svg
   xmlns:dc="http://purl.org/dc/elements/1.1/"
   xmlns:cc="http://web.resource.org/cc/"
   xmlns:rdf="http://www.w3.org/1999/02/22-rdf-syntax-ns#"
   xmlns:svg="http://www.w3.org/2000/svg"
   xmlns="http://www.w3.org/2000/svg"
   xmlns:sodipodi="http://sodipodi.sourceforge.net/DTD/sodipodi-0.dtd"
   xmlns:inkscape="http://www.inkscape.org/namespaces/inkscape"
   width="13.069223"
   height="18"
   id="svg2"
   sodipodi:version="0.32"
   inkscape:version="0.45.1"
   sodipodi:docname="C12C.svg"
   sodipodi:docbase="/Users/rosmord/Travail/Gsigns/SThomasDetail/ManuelDeCodage/C"
   inkscape:output_extension="org.inkscape.output.svg.inkscape"
   version="1.0">
  <metadata
     id="metadata9">
    <rdf:RDF>
      <cc:Work
         rdf:about="">
        <dc:format>image/svg+xml</dc:format>
        <dc:type
           rdf:resource="http://purl.org/dc/dcmitype/StillImage" />
      </cc:Work>
    </rdf:RDF>
  </metadata>
  <defs
     id="defs7" />
  <sodipodi:namedview
     inkscape:window-height="581"
     inkscape:window-width="701"
     inkscape:pageshadow="2"
     inkscape:pageopacity="0.0"
     guidetolerance="10.0"
     gridtolerance="10.0"
     objecttolerance="10.0"
     borderopacity="1.0"
     bordercolor="#666666"
     pagecolor="#ffffff"
     id="base"
     height="18px"
     width="13.069223px"
     inkscape:zoom="17.696629"
     inkscape:cx="6.5346117"
     inkscape:cy="12.940318"
     inkscape:window-x="20"
     inkscape:window-y="42"
     inkscape:current-layer="svg2" />
  <path
     style="fill:#000000;stroke:none"
     d="M 6.5418388,4.8116261 C 6.5997967,5.008683 6.640367,5.2405146 6.6635496,5.5071211 C 6.9649308,5.4839379 7.318474,5.5940579 7.7241794,5.8374812 C 8.1182932,5.663608 8.3617165,5.6896892 8.4544492,5.9157248 C 8.5471821,6.1417604 8.5124074,6.3359196 8.3501249,6.4982023 C 8.1878427,6.6604845 8.0951101,6.7821961 8.0719269,6.8633372 L 8.4544492,7.1067596 C 8.5471821,7.1879006 8.6515064,7.1473304 8.7674219,6.9850488 L 9.9497634,4.8116261 L 6.5418388,4.8116261 z M 6.3158029,6.6025265 L 6.3331894,6.5155897 L 6.4896767,6.4286519 C 6.605592,6.1968208 6.9069728,6.1968208 7.3938193,6.4286519 L 7.7937289,6.4286519 L 7.7937289,6.5503644 L 7.4112067,6.5503644 C 6.9939097,6.7358292 6.6809369,6.7648081 6.4722884,6.6373013 L 6.3158029,6.6025265 z M 6.5418388,6.5329762 C 6.5882046,6.5561594 6.6577537,6.5793428 6.7504864,6.6025265 C 6.6925285,6.5213849 6.6809372,6.4460396 6.7157125,6.3764907 C 6.6113877,6.422857 6.5534298,6.4750188 6.5418388,6.5329762 z M 6.9765223,6.5851392 C 7.069255,6.561956 7.1735793,6.527181 7.2894951,6.4808141 L 6.9765223,6.3764907 C 7.0460718,6.4576317 7.0460718,6.5271812 6.9765223,6.5851392 z M 6.4722884,6.2200043 L 6.4722884,6.0461305 C 6.7273032,5.976581 6.930156,5.970785 7.0808466,6.0287423 C 7.2315371,6.0867003 7.4343899,6.1620455 7.6894047,6.2547782 L 7.7763416,6.3417151 C 7.4981436,6.3185319 7.2750055,6.2721656 7.1069272,6.2026161 C 6.9388495,6.1330672 6.7273032,6.1388632 6.4722884,6.2200043 z M 2.5427417,11.557928 C 2.6818407,11.302913 2.9600387,11.16961 3.3773357,11.158019 C 3.0759545,10.821863 2.7455944,10.71464 2.3862554,10.836352 C 2.0269163,10.958064 1.9341836,11.036307 2.1080574,11.071082 C 2.2819311,11.105857 2.4268259,11.268138 2.5427417,11.557928 z M 7.6546299,9.6627045 C 7.3648404,10.937779 7.0924381,12.873573 6.8374233,15.470087 L 6.4201263,15.504862 L 4.0728307,12.166486 C 3.7366748,11.668049 3.3947231,11.534745 3.0469756,11.766577 C 2.6992281,11.998409 2.786165,12.511336 3.3077862,13.305359 C 3.8294081,14.099383 4.2640924,15.348376 4.6118393,17.052339 L 3.4121105,17.539184 L 9.1847189,17.539184 L 8.9760704,17.226213 C 9.1615355,16.101829 9.3238179,14.68186 9.4629169,12.966306 C 9.5788325,11.470991 9.5556499,10.369791 9.3933683,9.6627045 C 9.2774519,9.1526746 8.9934578,8.89766 8.541386,8.89766 C 8.0893143,8.89766 7.7937289,9.1526746 7.6546299,9.6627045 z M 7.8632784,7.089373 C 7.8516869,7.3559789 7.6952005,7.5994021 7.3938193,7.8196428 C 7.5561015,8.0398823 7.7009962,8.3354677 7.8285037,8.7063989 C 7.9560111,8.5904833 8.0893143,8.523831 8.2284133,8.5064437 C 8.3675123,8.4890563 8.5239987,8.4919543 8.6978724,8.5151369 C 8.5124074,8.306489 8.402287,7.9355583 8.3675123,7.4023449 L 7.8632784,7.089373 z M 7.7067921,7.0024362 C 7.6952005,6.8865198 7.7850354,6.7445227 7.9762968,6.5764451 C 8.1675577,6.4083674 8.2602903,6.2721662 8.2544948,6.1678413 C 8.2486987,6.0635171 8.1936386,6.0113549 8.0893143,6.0113549 C 7.9849901,6.0113549 7.8806658,6.0693131 7.7763416,6.1852295 C 7.2779035,5.9186226 6.8779941,5.7911151 6.5766135,5.8027073 C 6.4375139,6.1272711 6.2404571,6.5039973 5.9854428,6.9328858 C 6.2172739,6.9444774 6.3100066,7.0372101 6.2636408,7.2110838 C 6.3331897,7.1531259 6.4520033,7.1850029 6.6200815,7.3067148 C 6.7881592,7.4284262 6.6693456,7.483486 6.2636408,7.4718944 C 6.3215987,7.5414439 6.3389861,7.625483 6.3158029,7.7240118 C 6.2926192,7.82254 6.3911474,7.8660082 6.6113874,7.8544167 C 6.9475434,7.8428256 7.2141497,7.7645826 7.4112067,7.6196875 C 7.6082636,7.4747925 7.7241794,7.2748375 7.7589542,7.0198227 L 7.7067921,7.0024362 z M 7.3242698,4.4812668 L 8.0023774,4.4812668 L 9.3933683,0.88207937 C 9.4745091,0.61547295 9.4194481,0.45608883 9.2281869,0.40392698 C 9.0369258,0.35176458 8.8949296,0.4415992 8.8021967,0.67343087 L 7.3242698,4.4812668 z M 8.5761608,4.4812668 L 9.2542684,4.4812668 L 10.523547,1.1950521 C 10.662646,0.92844567 10.622076,0.76326578 10.401836,0.69951235 C 10.181595,0.63575836 10.019313,0.73138879 9.9149887,0.98640362 L 8.5761608,4.4812668 z M 1.534274,7.8718041 C 1.7081477,7.0024353 1.6675772,6.4982017 1.4125624,6.3591033 C 1.1575476,6.2200037 0.9633884,6.2750636 0.83008488,6.5242829 C 0.69678196,6.7735022 0.93151169,7.222676 1.534274,7.8718041 z M 2.0211205,10.514686 L 1.5690487,8.6890107 C 1.0474275,8.8049262 0.61274312,9.0077795 0.26499562,9.2975696 C 0.067938707,9.0193708 -0.018998167,8.7179893 0.004185,8.3934253 C 0.47943992,8.4397922 0.94310324,8.3760388 1.395175,8.202165 C 0.46784833,7.4487121 0.14618176,6.8169705 0.43017526,6.3069403 C 0.71416933,5.7969112 1.1082835,5.6809957 1.6125176,5.9591937 C 2.1167512,6.2373917 2.1891984,6.950274 1.8298594,8.0978408 C 2.2355648,7.9703333 2.6586575,7.7674804 3.0991377,7.4892818 C 3.284603,7.7558888 3.3715399,8.0456786 3.3599483,8.3586514 C 2.8499187,8.3470598 2.3746638,8.4224048 1.9341836,8.5846864 L 2.6122912,10.375587 C 3.006405,10.236487 3.3309697,10.387178 3.5859851,10.827659 C 3.7830414,10.955166 3.9453233,11.117448 4.0728307,11.314505 L 6.4201263,14.618106 C 6.6867328,12.021591 7.0286844,10.051022 7.4459814,8.7063989 C 7.3648404,8.4397922 7.2489245,8.2369392 7.0982339,8.0978408 L 6.6113874,8.0978408 C 6.3331894,8.9672095 6.0231147,9.4859327 5.6811633,9.6540104 C 5.3392113,9.8220889 5.0841965,9.8597617 4.9161188,9.7670288 C 4.7480405,9.6742958 4.6871849,9.5844617 4.7335518,9.4975249 C 4.7799176,9.410588 4.8958332,9.4018939 5.0812985,9.4714434 C 5.2667638,9.5409929 5.4783103,9.4163832 5.7159381,9.0976144 C 5.9535658,8.7788464 6.089767,8.3644469 6.1245418,7.8544167 C 6.1361328,7.6805429 6.1071538,7.5675252 6.0376049,7.5153633 C 5.9680554,7.4632014 5.979647,7.4139373 6.0723797,7.367571 C 5.9680548,7.3443878 5.9564633,7.2748383 6.0376049,7.1589225 C 5.7014485,7.1705141 5.6463883,7.0140277 5.8724244,6.6894634 C 6.0984606,6.3648985 6.2520489,6.0403342 6.3331894,5.7157704 C 6.3331894,5.3564314 6.2636402,4.9449301 6.1245418,4.4812668 L 6.8721981,4.4812668 L 8.3675123,0.586494 C 8.49502,0.15760542 8.7529326,-0.036553463 9.1412501,0.0040173597 C 9.5295684,0.044587619 9.7642984,0.19238017 9.8454392,0.447395 C 10.088862,0.308296 10.375754,0.3025002 10.706114,0.43000762 C 11.036474,0.55751504 11.114718,0.84150882 10.940844,1.281989 L 9.7063402,4.4812668 L 10.506159,4.4812668 L 9.37598,6.5155897 C 10.198983,7.0835772 10.610484,7.8718046 10.610484,8.8802718 L 10.610484,18.026033 L 10.227961,18.026033 L 10.227961,8.8802718 C 10.227961,8.0340868 9.88601,7.3617752 9.2021063,6.8633372 L 8.7674219,7.645769 C 8.7094637,7.9703328 8.819584,8.2717139 9.097782,8.5499125 C 9.4918956,8.6542368 9.7440129,9.2077347 9.8541333,10.210406 C 9.9642527,11.213079 9.8338479,13.516906 9.4629169,17.121889 L 10.227961,18.026033 L 2.8035523,18.026033 L 2.7166155,17.347923 L 4.038056,16.77414 C 3.7019,15.429516 3.3280716,14.409457 2.9165707,13.713963 C 2.5050692,13.018468 2.2645437,12.369339 2.1949942,11.766577 L 2.2471564,11.940451 C 2.0732826,11.604294 1.8385532,11.337689 1.5429681,11.140631 C 1.2473825,10.943574 1.4067665,10.734926 2.0211205,10.514686 z "
     id="path4" />
</svg>
