<?xml version="1.0" encoding="UTF-8" standalone="no"?>
<svg
   xmlns:dc="http://purl.org/dc/elements/1.1/"
   xmlns:cc="http://creativecommons.org/ns#"
   xmlns:rdf="http://www.w3.org/1999/02/22-rdf-syntax-ns#"
   xmlns:svg="http://www.w3.org/2000/svg"
   xmlns="http://www.w3.org/2000/svg"
   xmlns:sodipodi="http://sodipodi.sourceforge.net/DTD/sodipodi-0.dtd"
   xmlns:inkscape="http://www.inkscape.org/namespaces/inkscape"
   width="1800"
   height="1800"
   id="svg2"
   sodipodi:version="0.32"
   inkscape:version="0.46"
   sodipodi:docname="C12J.svg"
   inkscape:output_extension="org.inkscape.output.svg.inkscape"
   version="1.0">
  <metadata
     id="metadata9">
    <rdf:RDF>
      <cc:Work
         rdf:about="">
        <dc:format>image/svg+xml</dc:format>
        <dc:type
           rdf:resource="http://purl.org/dc/dcmitype/StillImage" />
      </cc:Work>
    </rdf:RDF>
  </metadata>
  <defs
     id="defs7">
    <inkscape:perspective
       sodipodi:type="inkscape:persp3d"
       inkscape:vp_x="0 : 10.68 : 1"
       inkscape:vp_y="0 : 1000 : 0"
       inkscape:vp_z="12.426346 : 10.68 : 1"
       inkscape:persp3d-origin="6.2131729 : 7.1200002 : 1"
       id="perspective11" />
  </defs>
  <sodipodi:namedview
     inkscape:window-height="701"
     inkscape:window-width="1132"
     inkscape:pageshadow="2"
     inkscape:pageopacity="0.0"
     guidetolerance="10.0"
     gridtolerance="10.0"
     objecttolerance="10.0"
     borderopacity="1.0"
     bordercolor="#666666"
     pagecolor="#ffffff"
     id="base"
     showgrid="false"
     inkscape:zoom="0.13833333"
     inkscape:cx="359.71324"
     inkscape:cy="1119.1659"
     inkscape:window-x="1333"
     inkscape:window-y="90"
     inkscape:current-layer="svg2"
     showborder="false" />
  <path
     style="fill:#000000;stroke:none"
     d="M 849.5 0 C 816.5142 0.31193797 794.24645 19.901054 782.6875 58.78125 L 633.09375 448.375 L 558.3125 448.375 C 572.22675 494.75584 579.18752 535.92983 579.1875 571.875 C 571.07085 604.34155 555.70436 636.81459 533.09375 669.28125 C 510.48306 701.74784 515.99885 717.40955 549.625 716.25 C 541.50835 727.8452 542.65808 734.77471 553.09375 737.09375 C 543.81758 741.73183 542.66784 746.68843 549.625 751.90625 C 556.58213 757.12408 559.47199 768.41967 558.3125 785.8125 C 554.83393 836.83149 541.20765 878.26946 517.4375 910.15625 C 493.66728 942.04312 472.48983 954.51963 453.9375 947.5625 C 435.38517 940.60537 423.79433 941.45986 419.15625 950.15625 C 414.51816 958.85266 420.62447 967.84878 437.4375 977.125 C 454.25059 986.40119 479.76286 982.62564 513.96875 965.8125 C 548.17459 948.99948 579.17147 897.12032 607 810.15625 L 655.71875 810.15625 C 670.79258 824.07045 682.38344 844.3622 690.5 871.03125 C 648.75724 1005.5357 614.54401 1202.6422 587.875 1462.375 L 353.0625 1131.9375 C 340.30776 1112.2256 322.05142 1090.4577 298.28125 1066.6875 C 292.52964 1060.9359 285.54201 1056.215 277.3125 1052.5 L 274.34375 520.78125 C 293.56603 502.77767 329.06565 504.12448 335.0625 474.0625 C 341.68718 440.85329 338.19113 406.57201 331.5625 373.59375 C 329.28799 362.27781 325.78639 349.86081 315.96875 341.8125 C 309.72015 336.69001 299.63154 341.61215 297.09375 348.40625 C 282.23826 388.17698 278.48053 433.30563 252.3125 468.1875 C 263.08053 431.3468 267.61191 396.47264 256.5 357.75 C 253.89878 348.68526 244.44316 337.8945 232.40625 339.09375 C 219.94343 340.33543 219.36223 354.21304 216.59375 362.5625 C 205.98243 386.92933 198.87977 467.7499 167.65625 468.78125 C 134.42111 458.05445 130.35439 483.64682 107.75 487.09375 C 61.986001 492.28402 15.341062 488.69678 -30.3125 493.65625 C -39.295389 626.68275 201.36297 502.84604 199.59375 613.375 L 192.71875 1043.7188 C 183.48926 1044.5904 173.74677 1045.8547 163.5 1047.5625 C 97.407295 1058.5778 77.674763 1077.4247 104.34375 1104.0938 C 131.01274 1130.7628 153.04468 1160.9051 170.4375 1194.5312 C 173.91606 1243.2311 196.24321 1302.3662 237.40625 1371.9375 C 278.56923 1441.5086 315.96762 1543.5581 349.59375 1678.0625 L 217.40625 1735.4688 L 226.09375 1803.2812 L 968.78125 1803.2812 L 892.25 1712.8438 C 929.35471 1352.2326 942.39047 1121.7674 931.375 1021.4688 C 920.35952 921.17022 895.14246 865.81069 855.71875 855.375 C 827.89018 827.54643 816.88986 797.40407 822.6875 764.9375 L 866.15625 686.65625 C 934.56803 736.51566 968.78122 803.79251 968.78125 888.4375 L 968.78125 1803.2812 L 1007.0312 1803.2812 L 1007.0312 888.4375 C 1007.0312 787.55921 965.88843 708.69153 883.5625 651.875 L 996.59375 448.375 L 916.59375 448.375 L 1040.0938 128.375 C 1057.4866 84.313191 1049.6713 55.879735 1016.625 43.125 C 983.57864 30.370267 954.88119 30.960744 930.53125 44.875 C 922.41463 19.365533 898.90647 4.5895462 860.0625 0.53125 C 856.42088 0.15077945 852.91232 -0.032269445 849.5 0 z M 858.53125 39.09375 C 861.77202 39.073372 865.19398 39.552899 868.78125 40.53125 C 887.91335 45.749067 893.39786 61.674759 885.28125 88.34375 L 746.15625 448.375 L 678.3125 448.375 L 826.15625 67.5 C 833.6931 48.65778 844.4879 39.182054 858.53125 39.09375 z M 972.5625 68.1875 C 976.82691 68.056719 981.36825 68.698695 986.1875 70.09375 C 1008.2185 76.471089 1012.2581 92.987255 998.34375 119.65625 L 871.375 448.375 L 803.5625 448.375 L 937.46875 98.78125 C 945.62157 78.85198 957.33248 68.654575 972.5625 68.1875 z M 600.0625 481.4375 L 940.9375 481.4375 L 822.6875 698.84375 C 811.09229 715.077 800.6512 719.14788 791.375 711.03125 L 753.09375 686.65625 C 755.41274 678.53961 764.70418 666.38952 780.9375 650.15625 C 797.17074 633.92289 800.6512 614.48561 791.375 591.875 C 782.09882 569.26436 757.73621 566.66974 718.3125 584.0625 C 677.72925 559.71256 642.36629 548.68093 612.21875 551 C 609.89971 524.33101 605.86011 501.14935 600.0625 481.4375 z M 606.375 580.5 C 636.17719 580.21914 675.22995 593.00814 723.53125 618.84375 C 733.96694 607.24848 744.40806 601.4375 754.84375 601.4375 C 765.27951 601.4375 770.79524 606.65809 771.375 617.09375 C 771.95479 627.52951 762.66339 641.15576 743.53125 657.96875 C 724.39918 674.78178 715.43422 688.99847 716.59375 700.59375 L 721.8125 702.3125 C 718.33399 727.82197 706.74312 747.84972 687.03125 762.34375 C 667.31935 776.8378 640.62609 784.65302 607 785.8125 C 584.96911 786.97202 575.11845 782.60594 577.4375 772.75 C 579.75654 762.89405 578.01634 754.48838 572.21875 747.53125 C 612.802 748.69077 624.688 743.2062 607.875 731.03125 C 591.06191 718.85625 579.17587 715.67116 572.21875 721.46875 C 576.85683 704.07594 567.5967 694.78452 544.40625 693.625 C 569.91572 650.72271 589.61699 613.02902 603.53125 580.5625 C 604.47336 580.52626 605.41364 580.50906 606.375 580.5 z M 631.1875 599.25 C 620.14034 599.12772 607.44284 601.02412 593.09375 604.9375 L 593.09375 622.3125 C 618.60322 614.19586 639.78063 613.60545 656.59375 620.5625 C 673.40678 627.51962 695.70274 632.18093 723.53125 634.5 L 714.84375 625.78125 C 689.33422 616.50509 669.04255 608.98513 653.96875 603.1875 C 647.37397 600.65107 639.77974 599.3451 631.1875 599.25 z M 626.15625 625.78125 C 611.08248 625.78125 600.64135 631.5923 594.84375 643.1875 L 579.1875 651.875 L 577.4375 660.59375 L 593.09375 664.0625 C 613.96513 676.81718 645.28843 673.92727 687.03125 655.375 L 725.28125 655.375 L 725.28125 643.1875 L 685.28125 643.1875 C 660.93131 631.59231 641.23002 625.78125 626.15625 625.78125 z M 617.4375 637.96875 C 613.95894 644.92581 615.13987 652.47703 620.9375 660.59375 C 611.66133 658.27466 604.70058 655.94404 600.0625 653.625 C 601.22202 647.82745 607.0018 642.60681 617.4375 637.96875 z M 643.53125 637.96875 L 674.84375 648.40625 C 663.24854 653.04439 652.80742 656.52473 643.53125 658.84375 C 650.48837 653.04613 650.48837 646.08538 643.53125 637.96875 z M 732.25 709.28125 L 782.6875 740.59375 C 786.16606 793.93179 797.1664 831.03492 815.71875 851.90625 C 798.326 849.58726 782.66433 849.29199 768.75 851.03125 C 754.83574 852.77053 741.50476 859.43604 728.75 871.03125 C 715.99526 833.92651 701.51457 804.37462 685.28125 782.34375 C 715.4288 760.31279 731.09049 735.95017 732.25 709.28125 z M 800.0625 890.15625 C 845.28375 890.15625 873.68605 915.66855 885.28125 966.6875 C 901.51457 1037.4183 903.84516 1147.5778 892.25 1297.1562 C 878.33574 1468.7653 862.11491 1610.8078 843.5625 1723.2812 L 864.4375 1754.5938 L 286.96875 1754.5938 L 407 1705.875 C 372.21436 1535.4254 328.70971 1410.4896 276.53125 1331.0625 C 224.35279 1251.6353 215.68311 1200.3466 250.46875 1177.1562 C 285.25439 1153.9658 319.43638 1167.2969 353.0625 1217.1562 L 587.875 1551.0938 L 629.625 1547.625 C 655.13446 1287.8923 682.38699 1094.2348 711.375 966.6875 C 725.28925 915.66853 754.8411 890.15625 800.0625 890.15625 z M 210.78125 1079.25 C 236.65306 1078.7065 260.88932 1091.0616 283.5 1116.2812 C 241.75723 1117.4407 213.94549 1130.7717 200.03125 1156.2812 C 188.43603 1127.2931 173.92406 1111.041 156.53125 1107.5625 C 139.13843 1104.0839 148.42985 1096.2687 184.375 1084.0938 C 193.36129 1081.05 202.15731 1079.4312 210.78125 1079.25 z "
     id="path4" />
</svg>
