<?xml version="1.0" encoding="UTF-8" standalone="no"?>
<svg
   xmlns:dc="http://purl.org/dc/elements/1.1/"
   xmlns:cc="http://web.resource.org/cc/"
   xmlns:rdf="http://www.w3.org/1999/02/22-rdf-syntax-ns#"
   xmlns:svg="http://www.w3.org/2000/svg"
   xmlns="http://www.w3.org/2000/svg"
   xmlns:sodipodi="http://sodipodi.sourceforge.net/DTD/sodipodi-0.dtd"
   xmlns:inkscape="http://www.inkscape.org/namespaces/inkscape"
   width="10.832359"
   height="18"
   id="svg2"
   sodipodi:version="0.32"
   inkscape:version="0.45.1"
   sodipodi:docname="C139.svg"
   sodipodi:docbase="/Users/rosmord/Travail/Gsigns/SThomasDetail/ManuelDeCodage/C"
   inkscape:output_extension="org.inkscape.output.svg.inkscape"
   version="1.0">
  <metadata
     id="metadata9">
    <rdf:RDF>
      <cc:Work
         rdf:about="">
        <dc:format>image/svg+xml</dc:format>
        <dc:type
           rdf:resource="http://purl.org/dc/dcmitype/StillImage" />
      </cc:Work>
    </rdf:RDF>
  </metadata>
  <defs
     id="defs7" />
  <sodipodi:namedview
     inkscape:window-height="581"
     inkscape:window-width="701"
     inkscape:pageshadow="2"
     inkscape:pageopacity="0.0"
     guidetolerance="10.0"
     gridtolerance="10.0"
     objecttolerance="10.0"
     borderopacity="1.0"
     bordercolor="#666666"
     pagecolor="#ffffff"
     id="base"
     height="18px"
     width="10.832359px"
     inkscape:zoom="17.510342"
     inkscape:cx="5.4162365"
     inkscape:cy="7.1447371"
     inkscape:window-x="0"
     inkscape:window-y="22"
     inkscape:current-layer="svg2" />
  <path
     style="fill:#000000;stroke:none"
     d="M 7.8393118,9.921057 C 7.8393118,9.5695177 7.7514272,9.393748 7.5756581,9.393748 C 7.3998891,9.393748 7.3120045,9.5695177 7.3120045,9.921057 L 7.3120045,11.538134 L 6.3101187,11.538134 L 6.3101187,9.2355563 C 5.9468623,9.7863001 5.7652342,10.477659 5.7652342,11.309634 C 5.7652342,12.516584 5.5660289,13.559481 5.1676183,14.438329 C 5.0738747,14.883611 4.8629516,14.994931 4.5348489,14.77229 L 3.937233,14.016481 L 2.3377322,11.608442 C 1.845578,11.256903 1.5702059,11.297917 1.511616,11.731481 L 2.7771555,15.528099 C 3.0583863,16.184304 3.1814249,16.647163 3.1462712,16.916676 C 3.1111175,17.186189 3.0349507,17.379535 2.9177709,17.496715 L 7.5932353,17.496715 C 7.1948247,17.098304 7.0805746,16.579785 7.2504849,15.941156 C 7.4203953,15.302527 7.5580813,14.549648 7.663543,13.68252 C 7.7690047,12.815391 7.8275943,12.100596 7.8393118,11.538134 L 7.8393118,9.921057 z M 6.3804264,5.8432078 C 6.2632472,6.3119258 6.1050549,6.8275159 5.9058496,7.3899781 C 5.7066443,7.9524397 5.7242212,8.3684274 5.9585801,8.6379404 C 6.4155806,8.6262226 6.6440809,8.8137093 6.6440809,9.200402 L 6.6440809,11.22175 L 6.9780423,11.22175 L 6.9780423,9.921057 C 6.9780423,9.335159 7.1772475,9.0422095 7.5756581,9.0422095 C 8.0209406,9.0422095 8.2435817,9.335159 8.2435817,9.921057 L 8.2435817,11.22175 L 8.6830043,11.22175 C 8.6947229,10.237441 8.6947229,9.2824284 8.6830043,8.3567096 C 8.472082,6.57558 7.7221331,5.6791565 6.4331578,5.6674389 L 6.3804264,5.8432078 z M 5.4488491,8.6379404 C 5.3199517,8.5207606 5.3492467,8.1252795 5.5367339,7.4514968 C 5.7242212,6.7777147 5.84433,6.3353619 5.8970606,6.1244386 C 5.9497917,5.9135157 5.8912021,5.7318875 5.7212917,5.5795541 C 5.5513814,5.4272206 5.3609645,5.3188295 5.1500411,5.2543808 C 4.9391183,5.1899322 4.6930412,5.1577079 4.4118098,5.1577079 C 4.5641433,5.0522461 4.5992973,4.932137 4.5172718,4.7973804 C 4.4352463,4.6626243 4.2946309,4.6245409 4.0954256,4.6831302 C 3.9196565,4.7300021 3.8493488,4.8237456 3.8845025,4.9643611 C 3.9313743,5.1284127 4.0719897,5.1870026 4.3063487,5.1401307 C 4.2126051,5.2573099 4.1159321,5.3129702 4.0163297,5.3071114 C 3.9167268,5.3012527 3.7966176,5.2807461 3.6560022,5.2455919 C 3.5153868,5.2104382 3.4304317,5.1840729 3.4011367,5.166496 C 3.3718418,5.1489191 3.4333611,5.1870026 3.5856945,5.2807461 C 3.738028,5.3744897 3.9723871,5.4125731 4.2887716,5.3949963 C 4.6051566,5.3774194 4.8805287,5.3949963 5.1148877,5.4477268 C 5.3492467,5.500458 5.5103684,5.5795541 5.5982526,5.6850152 C 5.6861375,5.7904769 5.7300799,5.9135155 5.7300799,6.0541309 C 5.7300799,6.1830282 5.609971,6.6283106 5.3697532,7.3899781 C 5.1295349,8.151645 5.1266053,8.585209 5.3609642,8.690671 L 5.4488491,8.6379404 z M 4.0251179,4.7710151 C 3.9548099,4.8764768 3.9430918,4.9585026 3.9899636,5.0170925 C 4.0368354,5.0756818 4.1188612,5.0991177 4.236041,5.0874002 C 4.3415027,5.0405283 4.4030219,4.9965859 4.4205988,4.9555729 C 4.4381757,4.9145599 4.435246,4.8764765 4.4118098,4.8413228 C 4.3883742,4.8061691 4.3649383,4.7768741 4.3415021,4.7534379 C 4.3180665,4.7300023 4.2770538,4.7182845 4.2184639,4.7182845 C 4.1481564,4.7182845 4.0837078,4.7358614 4.0251179,4.7710151 z M 0.94915441,10.58898 C 0.94915441,10.940518 1.1366416,11.116288 1.511616,11.116288 L 2.1619625,11.116288 C 2.0565008,10.764749 1.8397187,10.58898 1.511616,10.58898 L 0.94915441,10.58898 z M 7.0307737,0.23616614 C 6.9018758,0.16585871 6.7612601,0.25960232 6.6089266,0.51739695 C 6.4800293,0.77519214 6.3569907,0.95389089 6.2398109,1.0534933 C 6.1226318,1.1530962 5.9615098,1.270276 5.7564452,1.4050326 C 5.5513811,1.5397887 5.2496438,1.800513 4.8512332,2.1872055 C 4.6871822,2.4332827 4.5348489,2.6969366 4.3942335,2.9781674 L 6.0113107,2.9781674 C 6.2222341,2.4508595 6.3540613,2.0729557 6.4067925,1.844456 C 6.459523,1.6159558 6.5063949,1.4284683 6.5474079,1.2819935 C 6.5884204,1.1355194 6.7143883,0.95096156 6.9253117,0.72832006 C 7.1010808,0.48224295 7.1362348,0.31819165 7.0307737,0.23616614 z M 4.0954256,4.45463 C 4.704759,4.3843225 5.2320669,4.57181 5.6773493,5.0170925 L 7.769005,0.2888967 L 7.663543,0.25374327 L 6.3101187,3.259399 L 3.9020796,3.259399 L 4.0954256,4.45463 z M 3.7790405,4.5952462 L 3.5153868,2.9605911 L 4.130579,2.9605911 C 4.2829125,2.6676422 4.4000923,2.4684369 4.4821184,2.3629752 C 4.0837078,2.0583082 3.7907589,1.7858659 3.6032717,1.545648 C 3.4157839,1.3054297 3.3337581,1.0652114 3.3571943,0.82499304 C 3.3806305,0.58477527 3.4567972,0.43244205 3.5856945,0.36799339 C 3.7145919,0.30354474 3.8581369,0.28010883 4.0163297,0.29768569 C 4.174522,0.31526255 4.2887718,0.42365362 4.3590793,0.62285892 C 4.3825155,0.84549984 4.344432,0.98611525 4.2448291,1.0447051 C 4.1452267,1.103295 4.0426948,1.1296603 3.937233,1.123801 C 3.8317713,1.1179423 3.7907586,1.068141 3.8141948,0.97439744 C 3.8259128,0.92752561 3.8727847,0.92166662 3.9548102,0.9568203 C 4.0954256,0.93338468 4.1833102,0.86307698 4.2184639,0.74589719 C 4.2184639,0.6404355 4.1745217,0.56133937 4.0866374,0.5086088 C 3.9987526,0.45587767 3.9079384,0.43830082 3.8141948,0.45587823 C 3.7204512,0.47345509 3.6472138,0.52325627 3.5944827,0.60528179 C 3.5417521,0.6873073 3.5212459,0.80448681 3.532964,0.9568203 C 3.544682,1.1091538 3.6325666,1.2849232 3.7966176,1.4841285 C 3.9606693,1.6833338 4.2301823,1.9176928 4.6051566,2.1872055 C 4.6754641,2.0700263 4.8102204,1.9176931 5.0094257,1.7302059 C 5.208631,1.5427181 5.3551055,1.4167499 5.4488491,1.3523012 C 5.5425927,1.2878526 5.6773493,1.1941089 5.853119,1.0710704 C 6.0288881,0.9480319 6.1607151,0.82792298 6.2485999,0.71074376 C 6.3364842,0.59356398 6.3980035,0.48810228 6.4331578,0.39435868 C 6.5620551,0.15999967 6.6763052,0.031102072 6.7759081,0.007665892 C 6.8755105,-0.01576973 6.9839016,0.013525216 7.1010814,0.09555073 C 7.2416968,0.17757624 7.3178632,0.27131985 7.3295808,0.37678154 C 7.3412988,0.48224324 7.2592733,0.63457673 7.0835042,0.83378203 C 7.0131963,0.90408948 6.9399589,1.0066215 6.8637921,1.1413781 C 6.7876254,1.2761348 6.7026702,1.5778721 6.6089266,2.0465901 L 7.6108116,0.025243027 L 7.9975052,0.218589 L 5.941003,5.1752842 C 5.9878748,5.1987204 6.0640415,5.2397334 6.1695032,5.2983233 C 7.7397094,5.2983233 8.7005814,6.1947469 9.0521199,7.987594 C 9.0755564,9.0304925 9.0579792,10.214006 8.9993893,11.538134 L 8.2435817,11.538134 C 8.1029663,13.694238 7.933056,15.079886 7.7338507,15.695079 C 7.5346454,16.310272 7.7162738,16.951829 8.278736,17.619753 C 8.4779405,17.807241 8.4779405,17.953716 8.278736,18.059177 L 1.9861937,18.059177 C 1.8455783,17.906844 1.915886,17.748651 2.1971168,17.584599 C 2.4783476,17.420547 2.630681,17.221343 2.6541173,16.986984 C 2.6892709,16.764343 2.12095,14.94806 0.94915441,11.538134 C 0.6679236,11.338929 0.54488505,11.028403 0.58003876,10.606556 C 0.21678243,10.337044 0.22264148,10.202288 0.59761589,10.202288 L 1.1425004,10.202288 L 1.1425004,6.9505547 C 1.0956286,6.6576058 1.0341093,6.546285 0.95794256,6.6165925 C 0.88177578,6.6869004 0.77338473,6.8275162 0.63276933,7.0384395 C 0.48043583,7.5657475 0.26951273,7.7766706 0,7.6712089 C 0.28123081,7.0267217 0.46871802,6.5902278 0.56246162,6.361727 C 0.65620523,6.1332273 0.81146811,5.9105864 1.0282503,5.6938042 C 1.2450324,5.477022 1.4354493,5.1870026 1.5995009,4.8237456 C 1.7869881,4.9760791 1.8016356,5.1723551 1.6434433,5.4125734 C 1.485251,5.6527912 1.3534241,5.8842205 1.2479624,6.1068614 C 1.4237314,6.3646566 1.5057573,6.6224518 1.4940397,6.880247 L 1.4940397,10.202288 L 1.9334623,10.202288 C 2.2029755,10.202288 2.4373348,10.547967 2.6365401,11.239326 L 2.618963,11.239326 L 4.7106178,14.297713 C 5.1441821,13.407148 5.3609642,12.42284 5.3609642,11.344787 C 5.3609642,10.325325 5.5601695,9.5636584 5.9585801,9.0597866 L 5.9585801,9.0597866 C 5.7007849,9.0832231 5.4605669,9.0070561 5.237926,8.8312864 C 4.9215415,8.6555176 4.9186121,8.1487156 5.2291378,7.3108814 C 5.5396636,6.4730477 5.6129007,5.9926116 5.4488491,5.869573 C 5.2847975,5.7465345 5.0270026,5.6762268 4.6754643,5.6586499 C 4.3239256,5.641073 4.033906,5.6088488 3.8054058,5.5619769 C 3.5769061,5.5151051 3.4128548,5.424291 3.3132519,5.2895343 C 3.2136495,5.1547782 3.2136495,5.0288103 3.3132519,4.9116305 C 3.4128548,4.7944513 3.5681176,4.6889898 3.7790405,4.5952462 z "
     id="path4" />
</svg>
