<?xml version="1.0" encoding="UTF-8" standalone="no"?>
<svg
   xmlns:dc="http://purl.org/dc/elements/1.1/"
   xmlns:cc="http://web.resource.org/cc/"
   xmlns:rdf="http://www.w3.org/1999/02/22-rdf-syntax-ns#"
   xmlns:svg="http://www.w3.org/2000/svg"
   xmlns="http://www.w3.org/2000/svg"
   xmlns:sodipodi="http://inkscape.sourceforge.net/DTD/sodipodi-0.dtd"
   xmlns:inkscape="http://www.inkscape.org/namespaces/inkscape"
   width="11.526782"
   height="18.24"
   id="svg1333"
   sodipodi:version="0.32"
   inkscape:version="0.43"
   sodipodi:docname="C14B.svg"
   sodipodi:docbase="C:\Program Files\JSesh\fonts">
  <metadata
     id="metadata1340">
    <rdf:RDF>
      <cc:Work
         rdf:about="">
        <dc:format>image/svg+xml</dc:format>
        <dc:type
           rdf:resource="http://purl.org/dc/dcmitype/StillImage" />
      </cc:Work>
    </rdf:RDF>
  </metadata>
  <defs
     id="defs1338" />
  <sodipodi:namedview
     inkscape:window-height="708"
     inkscape:window-width="1024"
     inkscape:pageshadow="2"
     inkscape:pageopacity="0.0"
     borderopacity="1.0"
     bordercolor="#666666"
     pagecolor="#ffffff"
     id="base"
     inkscape:zoom="83.572314"
     inkscape:cx="3.6913044"
     inkscape:cy="9.6027196"
     inkscape:window-x="-4"
     inkscape:window-y="-4"
     inkscape:current-layer="svg1333" />
  <path
     style="fill:#000000; stroke:none"
     d="M 8.249318,10.347795 C 7.8738933,11.43075 7.6717413,13.157334 7.642862,15.727546 L 6.858067,16.009113 L 4.757135,12.825227 C 4.396151,12.49312 4.1604353,12.388434 3.849988,12.511169 C 3.5395407,12.633904 3.628711,12.781908 3.917499,12.955182 C 4.3218023,14.023697 4.9138177,15.402659 5.693545,17.092068 L 4.250681,17.6635 L 9.392181,17.6635 L 9.067295,17.416952 C 9.486037,16.333999 9.7026277,14.955037 9.717067,13.280068 C 9.7315063,11.605098 9.5871127,10.607704 9.283886,10.087885 C 9.067294,10.506628 8.8557713,10.593265 8.249318,10.347795 z M 6.806454,7.757 L 6.806454,7.670364 L 6.958067,7.562068 C 7.0880217,7.331038 7.391249,7.3382577 7.867749,7.583727 L 8.214294,7.627045 L 8.235953,7.757 L 7.889408,7.692023 C 7.470666,7.894175 7.160219,7.9230537 6.958067,7.778659 L 6.806454,7.757 z M 7.001386,7.670364 C 7.0735827,7.6992427 7.1457797,7.720902 7.217977,7.735342 C 7.1602197,7.663144 7.1529997,7.5909467 7.196317,7.51875 C 7.0808023,7.562068 7.0158253,7.612606 7.001386,7.670364 z M 7.456226,7.735342 C 7.5428627,7.720902 7.636719,7.684803 7.737795,7.627045 L 7.456226,7.51875 C 7.5284233,7.5909467 7.5284233,7.663144 7.456226,7.735342 z M 6.914749,7.388795 C 6.914749,7.3165983 6.9725067,7.2516213 7.088022,7.193864 C 7.2035373,7.136106 7.3479313,7.132496 7.521204,7.183034 C 7.6944767,7.233572 7.8677493,7.2949393 8.041022,7.367136 L 8.127659,7.475432 C 7.9399463,7.4609927 7.7594537,7.4176747 7.586181,7.345478 C 7.4129083,7.2732807 7.1890977,7.2877197 6.914749,7.388795 z M 7.672817,5.569431 L 8.365909,5.569431 L 9.817067,1.107659 C 9.903703,0.775553 9.8459457,0.57701133 9.643795,0.512034 C 9.441643,0.44705667 9.2900287,0.55174233 9.188952,0.826091 L 7.672817,5.569431 z M 8.950704,5.569431 L 9.665454,5.569431 L 10.986657,1.497523 C 11.131052,1.165417 11.091345,0.95965567 10.867534,0.880239 C 10.643723,0.80082233 10.474059,0.91272767 10.358544,1.215955 L 8.950704,5.569431 z M 8.622499,8.081886 C 8.7091357,8.3129167 8.7918707,8.4645307 8.950704,8.536728 C 8.8929467,8.3634553 8.9651437,8.081887 9.167295,7.692023 L 9.985318,6.145932 L 7.239635,6.145932 C 7.2829537,6.3192047 7.2829537,6.328576 7.239635,6.574046 C 7.485105,6.574046 7.7125253,6.6245837 7.921896,6.725659 C 8.1312673,6.826735 8.2503927,6.9783487 8.279272,7.1805 L 8.34425,7.202159 C 8.5030827,6.927811 8.683575,6.837565 8.885727,6.931421 C 9.087877,7.0252763 9.2072937,7.26967 9.163977,7.464602 C 9.1206577,7.659534 8.940165,7.8652953 8.622499,8.081886 z M 8.79909,8.883273 C 8.55362,8.782197 8.3947867,8.565606 8.32259,8.2335 C 8.3514693,8.4645307 8.192636,8.6811217 7.84609,8.883273 C 8.1059987,9.0565457 8.257612,9.3669927 8.30093,9.814614 C 8.7774307,10.074523 9.0950977,9.959007 9.253931,9.468067 C 8.9507037,9.395871 8.79909,9.2009397 8.79909,8.883273 z M 4.099067,11.915545 C 3.7525217,11.872228 3.481783,11.868618 3.286851,11.904716 C 3.0919197,11.940814 3.0088933,12.02023 3.037772,12.142965 C 3.0666507,12.2657 3.203825,12.298189 3.449295,12.240432 C 3.6947643,12.182674 3.911355,12.074378 4.099067,11.915545 z M 7.066363,6.955614 C 6.9219683,7.28772 6.7198167,7.663144 6.459908,8.081886 C 6.6909387,8.096326 6.784795,8.1901823 6.741477,8.363455 C 6.7992343,8.3056977 6.9147493,8.3381863 7.088022,8.460921 C 7.2612947,8.5836557 7.1457797,8.637803 6.741477,8.623363 C 6.813673,8.6811203 6.835332,8.764147 6.806454,8.872443 C 6.7775747,8.980739 6.864211,9.0132277 7.066363,8.969909 C 7.2685143,8.9554697 7.5139837,8.8724433 7.802771,8.72083 C 8.091559,8.5692167 8.221514,8.3490157 8.192636,8.060227 C 8.6980147,7.7425603 8.9326547,7.5151397 8.896556,7.377965 C 8.8604567,7.240791 8.7918693,7.1830337 8.690794,7.204693 C 8.5897187,7.2263523 8.5030823,7.359917 8.430885,7.605387 L 8.257614,7.627045 C 8.0699013,7.3671363 7.8894087,7.186644 7.716136,7.085568 C 7.5717413,7.0133713 7.3551503,6.9700533 7.066363,6.955614 z M 3.054408,11.54734 L 2.8213076,10.820626 C 2.2726103,10.141974 1.9987934,9.8189571 1.7605434,9.6601238 C 1.5222934,9.5012898 1.444416,9.3474044 1.646568,9.2463304 L 2.209704,9.056546 L 2.29634,8.623363 C 1.7187647,8.493409 1.2061663,8.7027803 0.758545,9.251477 C -0.42548567,6.9989323 -0.346069,5.1867887 0.996795,3.815046 C 1.473295,3.338546 1.8356927,3.1327847 1.943988,3.197762 C 2.0522833,3.2627393 2.0764767,3.5840157 1.816568,4.161591 C 1.094598,5.692167 1.376166,6.9483943 2.661272,7.930273 C 2.8654944,8.0437173 2.8945747,8.1643808 2.8322726,8.4119206 L 3.1138406,8.7561942 L 3.5650109,8.5926145 C 3.8393596,8.5781765 3.9546733,8.7966373 3.839158,9.056546 C 3.7236427,9.3164547 3.7038532,9.860406 3.5883385,10.712331 L 3.7929638,11.446467 C 4.1395091,11.446467 4.460052,11.619538 4.922112,11.893887 L 7.066363,15.034454 C 7.066363,12.825227 7.304613,11.08528 7.781113,9.814614 C 7.7955517,9.5113867 7.687256,9.2586973 7.456226,9.056546 L 7.152999,9.143182 C 6.7342563,10.384969 6.3516123,11.08528 6.005067,11.244114 C 5.6585223,11.402947 5.405833,11.442655 5.246999,11.363238 C 5.0881657,11.283822 4.9567983,11.197186 4.992897,11.10333 C 5.028995,11.009473 5.1445103,10.998644 5.339443,11.070842 C 5.5343743,11.143038 5.7437453,11.016693 5.967556,10.691806 C 6.1913667,10.36692 6.3826887,9.800174 6.541522,8.991568 C 6.5559613,8.8182953 6.5306923,8.7100003 6.465715,8.666683 C 6.4007383,8.6233643 6.4043483,8.5728263 6.476545,8.515069 C 6.375469,8.486189 6.438249,8.4139917 6.524885,8.298477 C 6.1783397,8.3129163 6.0505823,8.157693 6.281613,7.832807 C 6.5126437,7.507921 6.671477,7.150546 6.758113,6.760682 C 6.844749,6.3708187 6.794211,5.973735 6.606499,5.569431 L 7.096317,5.569431 L 8.655772,0.717796 C 8.7857267,0.197978 9.1528553,-0.040272 9.557158,0.003046 C 9.9614613,0.046364 10.199711,0.234076 10.271908,0.566182 C 10.531818,0.37847 10.835045,0.36403067 11.18159,0.522864 C 11.528135,0.68169733 11.684772,1.0354623 11.5115,1.584159 L 10.211953,5.569431 L 10.661773,5.569431 L 10.268589,6.432432 C 10.716211,6.764538 11.061389,7.1577653 11.184124,7.432114 C 11.306859,7.7064627 11.375447,8.1757427 11.389886,8.839954 L 11.389886,18.24 L 10.791726,18.24 L 10.791726,8.839954 C 10.863923,7.944712 10.604014,7.3238183 10.011999,6.977273 C 9.5210597,7.886955 9.27559,8.446481 9.27559,8.655851 C 9.27559,8.865223 9.332272,8.9626893 9.245636,8.94825 C 9.3178327,9.1359613 9.473056,9.2659157 9.711306,9.338113 C 9.9495547,9.4103103 10.133657,9.9229087 10.263613,10.875908 C 10.393567,11.828908 10.429665,12.915473 10.371908,14.135602 C 10.314151,15.355731 10.184196,16.334001 9.982044,17.07041 L 10.718453,18.24 L 3.470954,18.24 L 3.384317,17.633543 L 4.878795,16.875477 C 4.3734163,15.662568 3.8102797,14.319705 3.189385,12.846886 C 2.9005977,12.76025 2.7273253,12.565318 2.669568,12.262091 C 2.568492,11.901106 2.7201053,11.662855 3.124408,11.54734 L 3.054408,11.54734 z M 2.14975,8.168523 C 0.77800733,7.1000077 0.56141633,5.7282653 1.499977,4.053296 C 1.817643,3.4179627 1.6335407,3.5804057 0.94767,4.540625 C 0.26179867,5.500845 0.279848,6.8256597 1.001818,8.515069 C 1.319484,8.211841 1.702128,8.0963257 2.14975,8.168523 z M 3.276022,10.247795 L 3.384317,9.1716581 L 2.2819764,9.5227479 L 2.972795,10.334433 L 3.276022,10.247795 z "
     id="path1335"
     sodipodi:nodetypes="ccccscccccsccccccccccccssccccccssccsccccscccccsccccccccsccssccscccccssscccsscssscssccscccscccccscccccscccccccssssscsscsscccscsccccscccccscsssccccccsccccsccccccc" />
</svg>
