<?xml version="1.0" encoding="UTF-8" standalone="no"?>
<svg
   xmlns:dc="http://purl.org/dc/elements/1.1/"
   xmlns:cc="http://web.resource.org/cc/"
   xmlns:rdf="http://www.w3.org/1999/02/22-rdf-syntax-ns#"
   xmlns:svg="http://www.w3.org/2000/svg"
   xmlns="http://www.w3.org/2000/svg"
   xmlns:sodipodi="http://sodipodi.sourceforge.net/DTD/sodipodi-0.dtd"
   xmlns:inkscape="http://www.inkscape.org/namespaces/inkscape"
   width="11.078125"
   height="19.167236"
   id="svg2237"
   sodipodi:version="0.32"
   inkscape:version="0.45"
   sodipodi:docname="C146.svg"
   inkscape:output_extension="org.inkscape.output.svg.inkscape"
   sodipodi:docbase="C:\Program Files\JSesh\fontsST"
   sodipodi:modified="true">
  <metadata
     id="metadata2244">
    <rdf:RDF>
      <cc:Work
         rdf:about="">
        <dc:format>image/svg+xml</dc:format>
        <dc:type
           rdf:resource="http://purl.org/dc/dcmitype/StillImage" />
      </cc:Work>
    </rdf:RDF>
  </metadata>
  <defs
     id="defs2242" />
  <sodipodi:namedview
     inkscape:window-height="480"
     inkscape:window-width="640"
     inkscape:pageshadow="2"
     inkscape:pageopacity="0.0"
     guidetolerance="10.0"
     gridtolerance="10.0"
     objecttolerance="10.0"
     borderopacity="1.0"
     bordercolor="#666666"
     pagecolor="#ffffff"
     id="base" />
  <path
     style="fill:#000000; stroke:none"
     d="M 5.984375,13.760986 L 8.921875,13.760986 C 9.1197917,11.333903 9.0833333,9.9745277 8.8125,9.682861 L 7.1875,10.432861 C 6.6458333,11.901611 6.2447917,13.010986 5.984375,13.760986 z M 7.234375,3.667236 C 7.703125,3.7401527 7.9322917,3.854736 7.921875,4.010986 C 8.0052083,3.9589027 8.0885417,3.9224443 8.171875,3.901611 C 8.4114583,3.932861 8.5208333,4.0370277 8.5,4.214111 C 8.5,4.3495277 8.3958333,4.495361 8.1875,4.651611 C 8.1875,5.0370277 8.2604167,5.3130693 8.40625,5.479736 C 8.7916667,5.6880693 9.046875,5.604736 9.171875,5.229736 C 9.296875,4.854736 9.296875,4.464111 9.171875,4.057861 C 9.046875,3.589111 8.8385417,3.339111 8.546875,3.307861 C 8.2552083,3.276611 7.9817707,3.2714027 7.726562,3.292236 C 7.471354,3.3130693 7.3072917,3.4380693 7.234375,3.667236 z M 7.984375,4.651611 C 8.1822917,4.4849443 8.2864583,4.3339027 8.296875,4.198486 C 8.2552083,4.0943193 8.1953127,4.0839027 8.117188,4.167236 C 8.0390627,4.2505693 7.9635417,4.2870277 7.890625,4.276611 C 7.8072917,4.276611 7.7604167,4.2036943 7.75,4.057861 C 7.5065426,3.8717901 7.0976241,3.7851855 7.0625,3.932861 C 6.90625,4.1307777 6.816875,4.292236 6.754375,4.417236 C 6.691875,4.542236 6.6979167,4.589111 6.8125,4.557861 C 6.9270833,4.589111 6.9479167,4.6620277 6.875,4.776611 C 6.8854167,4.839111 6.96875,4.885986 7.125,4.917236 C 7.125,4.979736 7.0625,5.0214027 6.9375,5.042236 C 6.9479167,5.1568193 6.9947917,5.2193193 7.078125,5.229736 C 7.4947917,5.198486 7.7135417,5.2661943 7.734375,5.432861 C 7.7552083,5.5995277 7.765625,5.7661943 7.765625,5.932861 C 7.765625,6.0995277 7.5572917,6.1880693 7.140625,6.198486 C 6.7239583,6.2089027 6.546875,6.4198403 6.609375,6.831299 C 6.671875,7.242757 6.828125,7.8026527 7.078125,8.510986 C 7.328125,9.2193193 7.3854167,9.6932777 7.25,9.932861 L 8.90625,9.167236 C 8.9375,8.917236 9.0859373,8.3755693 9.351562,7.542236 C 9.6171873,6.7089027 9.5677083,6.276611 9.203125,6.245361 C 8.8489583,6.1724443 8.515625,5.9693193 8.203125,5.635986 C 8.046875,5.2818193 7.9739583,4.9536943 7.984375,4.651611 z M 6.96875,4.182861 C 7.0833333,3.995361 7.2708333,4.0057777 7.53125,4.214111 C 7.28125,4.370361 7.09375,4.3599443 6.96875,4.182861 z M 4.171875,5.089111 L 4.171875,3.292236 C 4.1302083,3.2193193 4.0677083,3.182861 3.984375,3.182861 C 3.828125,3.182861 3.716146,3.3026527 3.648438,3.542236 C 3.5807293,3.7818193 3.4244793,4.0135903 3.179688,4.237549 C 2.934896,4.461507 2.6145833,4.573486 2.21875,4.573486 L 2.21875,4.589111 C 1.8229167,4.589111 1.502604,4.4745277 1.257812,4.245361 C 1.0130207,4.0161943 0.85677067,3.7818193 0.789062,3.542236 C 0.721354,3.3026527 0.609375,3.182861 0.453125,3.182861 C 0.36979167,3.182861 0.30729167,3.2193193 0.265625,3.292236 L 0.265625,5.089111 L 4.171875,5.089111 z M 8.28125,3.229736 L 7.96875,3.229736 L 7.96875,2.901611 C 7.96875,2.8182777 7.9322917,2.729736 7.859375,2.635986 C 7.7239583,2.4901527 7.4947917,2.3755693 7.171875,2.292236 L 7.515625,1.042236 C 7.546875,0.93806933 7.4739583,0.87506135 7.296875,0.78131135 C 7.0572917,0.64589468 7.0104167,0.47024043 7.1652376,0.21839824 C 7.334703,-0.057265788 7.6445608,-0.11248576 7.9644628,0.104736 C 8.2565426,0.30306579 8.28125,0.61515267 8.28125,1.229736 L 8.28125,3.229736 z M 7.944375,1.057861 C 7.944375,0.620361 7.9166667,0.40515267 7.78125,0.332236 C 7.6041667,0.22806933 7.52875,0.24369433 7.435,0.379111 C 7.3516667,0.504111 7.4089583,0.56306933 7.606875,0.635986 C 7.8152083,0.71931933 7.8829167,0.85994433 7.81,1.057861 L 7.52875,2.104736 C 7.7266667,2.1255693 7.7985417,2.2089027 7.944375,2.354736 L 7.944375,1.057861 z M 2.4375,8.901611 C 2.4583333,8.9120277 2.6197917,8.979736 2.921875,9.104736 C 3.6927083,8.6776527 4.390625,8.3651527 5.015625,8.167236 L 6.25,6.182861 C 6.3645833,5.9536943 6.734375,5.8599443 7.359375,5.901611 C 7.4322917,5.8495277 7.4791667,5.7870277 7.5,5.714111 C 7.5104167,5.5370277 7.4791667,5.448486 7.40625,5.448486 C 7.3333333,5.448486 7.2239583,5.448486 7.078125,5.448486 C 6.859375,5.4589027 6.747396,5.4198403 6.742188,5.331299 C 6.7369793,5.242757 6.7395833,5.1620277 6.75,5.089111 C 6.6875,5.089111 6.671875,5.0370277 6.703125,4.932861 C 6.6510417,4.9120277 6.640625,4.8807777 6.671875,4.839111 C 6.7239583,4.807861 6.7395833,4.7714027 6.71875,4.729736 C 6.5729167,4.7193193 6.5052083,4.667236 6.515625,4.573486 C 6.578125,4.4068193 6.6510417,4.2635903 6.734375,4.143799 C 6.8177083,4.024007 6.8645833,3.9068193 6.875,3.792236 C 7.03125,3.292236 7.4479167,3.042236 8.125,3.042236 C 8.65625,3.042236 9.0078127,3.180257 9.179688,3.456299 C 9.3515627,3.7323403 9.453125,4.1750487 9.484375,4.784424 C 9.515625,5.3937987 9.3072917,5.7349443 8.859375,5.807861 C 9.828125,5.8495277 10.328125,6.0995277 10.359375,6.557861 C 10.776042,7.5474443 11.015625,8.3182777 11.078125,8.870361 C 10.994792,9.7557777 10.729167,10.630778 10.28125,11.495361 C 10.479167,12.037028 10.432292,12.526611 10.140625,12.964111 C 10.067708,13.172444 10.013021,13.292236 9.976562,13.323486 C 9.940104,13.354736 9.90625,13.349528 9.875,13.307861 C 9.8125,13.328694 9.7708333,13.318278 9.75,13.276611 C 9.6875,13.287028 9.6510417,13.260986 9.640625,13.198486 C 9.578125,13.229736 9.5416667,13.23234 9.53125,13.206299 C 9.5208333,13.180257 9.5260417,13.141194 9.546875,13.089111 C 9.828125,12.526611 9.9427083,12.156819 9.890625,11.979736 C 9.8802083,11.875569 9.84375,11.875569 9.78125,11.979736 C 9.7395833,12.302653 9.6822917,12.490153 9.609375,12.542236 C 9.5260417,12.604736 9.484375,12.578694 9.484375,12.464111 C 9.5364583,12.349528 9.5677083,12.182861 9.578125,11.964111 C 9.5885417,11.745361 9.627604,11.594319 9.695312,11.510986 C 9.7630207,11.427653 9.8489583,11.349528 9.953125,11.276611 C 10.057292,10.932861 10.122396,10.534424 10.148438,10.081299 C 10.174479,9.6281737 10.286458,9.198486 10.484375,8.792236 C 10.130208,8.0943193 9.890625,7.5005693 9.765625,7.010986 C 9.6822917,7.385986 9.5703127,7.8104653 9.429688,8.284424 C 9.2890627,8.758382 9.21875,9.1307777 9.21875,9.401611 C 9.3958333,10.026611 9.3958333,11.438069 9.21875,13.635986 L 9.21875,14.307861 L 8.96875,14.307861 L 9.078125,14.839111 C 9.2239583,15.307861 9.2682293,15.737549 9.210938,16.128174 C 9.153646,16.518799 9.046875,17.026611 8.890625,17.651611 C 8.8385417,17.891194 8.7916667,18.146403 8.75,18.417236 C 8.9166667,18.771403 8.9114583,19.021403 8.734375,19.167236 L 6.515625,19.167236 C 6.546875,18.969319 6.7239583,18.839111 7.046875,18.776611 C 7.6927083,18.703694 8.0885417,18.391194 8.234375,17.839111 C 8.296875,16.609944 8.2552083,15.677653 8.109375,15.042236 C 8.0260417,14.677653 7.984375,14.438069 7.984375,14.323486 L 7.109375,14.323486 C 7.015625,14.521403 6.984375,14.797444 7.015625,15.151611 C 7.015625,15.630778 6.934896,16.052653 6.773438,16.417236 C 6.6119793,16.781819 6.4427083,17.250569 6.265625,17.823486 C 6.1927083,18.042236 6.1302083,18.276611 6.078125,18.526611 C 6.1822917,18.880778 6.1458333,19.094319 5.96875,19.167236 L 3.796875,19.167236 C 3.796875,18.979736 3.984375,18.859944 4.359375,18.807861 C 5.0260417,18.682861 5.4479167,18.380778 5.625,17.901611 C 5.7708333,16.974528 5.9270833,16.073486 6.09375,15.198486 C 6,14.906819 5.9739583,14.609944 6.015625,14.307861 L 5.515625,14.307861 C 5.578125,13.849528 5.778646,13.182861 6.117188,12.307861 C 6.4557293,11.432861 6.7604167,10.578694 7.03125,9.745361 C 6.7916667,8.776611 6.5729167,8.026611 6.375,7.495361 C 6.2291667,7.7245277 5.8541667,8.1776527 5.25,8.854736 C 4.7083333,9.104736 3.984375,9.3130693 3.078125,9.479736 C 2.921875,9.6151527 2.7083333,9.7349443 2.4375,9.839111 L 2.421875,19.120361 L 2.03125,19.135986 L 2.03125,9.839111 C 1.8958333,9.8495277 1.8333333,9.604736 1.84375,9.104736 C 1.71875,9.0526527 1.6614583,8.9589027 1.671875,8.823486 L 2.03125,8.823486 L 2.03125,5.354736 L 0,5.354736 L 0,3.089111 C 0.13541667,2.964111 0.28645833,2.901611 0.453125,2.901611 C 0.71354167,2.901611 0.875,3.010986 0.9375,3.229736 C 1,3.448486 1.1171873,3.6750487 1.289062,3.909424 C 1.4609373,4.1437987 1.7708333,4.2714027 2.21875,4.292236 C 2.6666667,4.2714027 2.9765627,4.1437987 3.148438,3.909424 C 3.3203127,3.6750487 3.4375,3.448486 3.5,3.229736 C 3.5625,3.010986 3.7239583,2.901611 3.984375,2.901611 C 4.1510417,2.901611 4.3020833,2.9589027 4.4375,3.073486 L 4.4375,5.354736 L 2.4375,5.354736 L 2.4375,8.901611 z "
     id="path2239"
     sodipodi:nodetypes="cccccccssccssssccsssccsssscssssssccsccccccccsssccsssccccccsccssscccssscccccccccsssssssssscssscccccssssssscsssscsccscccccsscccccscccssccccccccsccccccccccccccssscssscccc" />
</svg>
