<?xml version="1.0" encoding="UTF-8" standalone="no"?>
<svg
   xmlns:dc="http://purl.org/dc/elements/1.1/"
   xmlns:cc="http://web.resource.org/cc/"
   xmlns:rdf="http://www.w3.org/1999/02/22-rdf-syntax-ns#"
   xmlns:svg="http://www.w3.org/2000/svg"
   xmlns="http://www.w3.org/2000/svg"
   xmlns:sodipodi="http://sodipodi.sourceforge.net/DTD/sodipodi-0.dtd"
   xmlns:inkscape="http://www.inkscape.org/namespaces/inkscape"
   width="1800"
   height="1800"
   id="svg2"
   sodipodi:version="0.32"
   inkscape:version="0.45.1"
   sodipodi:docname="C181.svg"
   sodipodi:docbase="/Users/rosmord/Travail/Gsigns/SThomasDetail/ManuelDeCodage/C"
   inkscape:output_extension="org.inkscape.output.svg.inkscape"
   version="1.0">
  <metadata
     id="metadata9">
    <rdf:RDF>
      <cc:Work
         rdf:about="">
        <dc:format>image/svg+xml</dc:format>
        <dc:type
           rdf:resource="http://purl.org/dc/dcmitype/StillImage" />
      </cc:Work>
    </rdf:RDF>
  </metadata>
  <defs
     id="defs7" />
  <sodipodi:namedview
     inkscape:window-height="581"
     inkscape:window-width="701"
     inkscape:pageshadow="2"
     inkscape:pageopacity="0.0"
     guidetolerance="10.0"
     gridtolerance="10.0"
     objecttolerance="10.0"
     borderopacity="1.0"
     bordercolor="#666666"
     pagecolor="#ffffff"
     id="base"
     width="1800px"
     height="1800px"
     inkscape:zoom="0.21"
     inkscape:cx="900"
     inkscape:cy="1971.6329"
     inkscape:window-x="20"
     inkscape:window-y="42"
     inkscape:current-layer="svg2" />
  <path
     style="fill:#000000;stroke:none"
     d="M 1366.3918,391.08617 C 1366.3918,398.06429 1325.3955,397.19203 1243.4028,388.4694 C 1184.089,371.02414 1118.2331,340.49493 1045.8353,296.88177 C 973.43752,253.26867 839.54514,238.44021 644.1583,252.39639 C 485.40653,271.58616 403.41385,251.08802 398.18024,190.90193 C 392.9467,130.7158 368.52335,107.60082 324.91019,121.557 C 269.08537,118.06796 240.3007,104.11176 238.55619,79.688383 C 236.81168,55.265058 253.38465,34.330765 288.27512,16.885502 C 330.14376,-0.55976032 371.14012,-4.4849336 411.26419,5.1099823 C 451.38826,14.704845 474.0671,45.670169 479.3007,98.005957 C 484.53425,150.34169 521.16929,173.89278 589.20582,168.65924 C 864.84075,161.68112 1030.5706,183.05156 1086.3955,232.77055 C 1142.2203,282.48948 1205.8956,320.43289 1277.4211,346.60079 C 1315.8006,358.81245 1345.4576,373.64091 1366.3918,391.08617 z M 288.27512,71.838063 C 286.53061,89.283329 298.7423,95.38916 324.91019,90.155557 C 389.45764,83.177441 423.03977,106.29239 425.65656,159.50041 C 428.27331,212.70848 467.08898,236.25958 542.10358,230.15369 C 617.11818,224.04786 705.65284,220.12268 807.70756,218.37817 C 909.76228,216.63366 986.08525,229.28146 1036.6765,256.32159 C 1087.2678,283.36171 1130.4448,308.22121 1166.2075,330.90007 C 1201.9703,353.57888 1247.7641,367.53508 1303.589,372.76868 C 1240.786,357.06794 1192.8115,337.87816 1159.6656,315.19935 C 1126.5197,292.52049 1089.0123,267.66099 1047.1436,240.62087 C 1005.275,213.58074 928.51599,199.18839 816.86638,197.44382 C 705.21669,195.69931 629.32984,196.5716 589.20582,200.06068 C 501.97951,208.78331 455.74958,183.48767 450.51603,124.17377 C 445.28243,64.859921 419.11457,35.639138 372.01243,36.511423 C 324.91019,37.383653 296.99775,49.159201 288.27512,71.838063 z M 693.87732,482.67372 L 693.87732,464.35623 C 700.85543,453.88908 713.93938,448.65551 733.12916,448.65551 C 752.31893,448.65551 775.87003,456.50589 803.78244,472.20663 L 835.18388,472.20663 L 835.18388,482.67372 L 803.78244,482.67372 C 772.381,472.20657 749.70216,466.973 735.74593,466.973 C 721.78975,466.973 707.83355,472.20657 693.87732,482.67372 z M 691.26054,500.9913 L 699.11094,500.9913 C 709.57809,485.29055 720.91749,477.44018 733.12916,477.44018 C 750.57442,477.44018 765.40288,479.62083 777.61454,483.98215 C 789.82621,488.34347 798.54883,490.52412 803.78244,490.52412 L 835.18388,490.52412 L 835.18388,498.37444 L 803.78244,498.37444 C 756.68025,522.79782 721.78975,528.03139 699.11094,514.07516 L 691.26054,514.07516 L 691.26054,500.9913 z M 754.06342,490.52412 C 754.06342,504.4803 747.95759,511.45839 735.74593,511.45839 C 723.53427,511.45839 716.55618,505.35256 714.81166,493.1409 C 711.32258,494.88541 707.83352,499.24673 704.34449,506.22484 C 723.53427,516.69199 749.70214,514.07519 782.84809,498.37444 C 774.12546,493.1409 764.53057,490.52412 754.06342,490.52412 z M 693.87732,605.66279 C 676.43205,605.66279 665.96488,607.4073 662.47579,610.89634 C 664.22031,617.87445 674.68748,616.12994 693.87732,605.66279 z M 837.80065,579.4949 C 850.01231,576.00586 864.40461,567.71938 880.97761,554.63543 C 897.55062,541.55148 909.76236,526.28688 917.61268,508.84162 C 925.463,491.39635 924.15465,480.49307 913.68748,476.13175 C 903.2203,471.77043 891.88093,482.67372 879.66927,508.84162 L 850.8846,495.75767 C 859.6072,464.35623 843.90648,442.9858 803.78244,431.64636 C 763.65837,420.30698 727.89561,419.87087 696.49417,430.33802 C 689.516,444.29419 686.02692,459.99491 686.02692,477.44018 C 686.02692,494.88544 680.79334,507.96939 670.32619,516.69202 C 661.60357,530.64819 655.49774,541.55146 652.0087,549.4018 C 648.51962,557.2522 649.39187,562.04966 654.62547,563.79418 C 672.07068,563.79418 677.30425,571.64455 670.32619,587.3453 L 709.57804,597.81247 L 709.57804,603.04602 C 704.34449,613.51317 694.74958,621.36354 680.79329,626.59714 C 680.79329,630.08617 681.66557,634.44746 683.41014,639.681 C 685.15465,644.91461 693.87729,649.27592 709.57804,652.76495 C 725.27878,656.25403 744.46856,657.12629 767.14737,655.38173 C 767.14737,686.78327 778.4868,719.05703 801.16566,752.20298 L 837.80065,749.58621 L 837.80065,579.4949 z M 1044.5269,951.0788 C 999.16928,1108.0861 976.49044,1306.9621 976.49044,1547.7066 C 1011.3809,1551.1956 1026.6455,1563.8433 1022.2843,1585.6499 C 1017.9229,1607.4565 1010.5087,1627.9547 1000.0415,1647.1445 C 987.82982,1675.0569 1004.4028,1706.4583 1049.7604,1741.3488 C 1079.4174,1741.3488 1095.1182,1746.5824 1096.8627,1757.0496 C 1119.5415,1762.2832 1130.0087,1775.3672 1128.2642,1796.3015 L 1102.0962,1796.3015 C 1093.3736,1803.2795 1057.6108,1805.0241 994.80793,1801.535 L 57.997785,1801.535 C -32.717505,1728.2649 -17.016758,1659.3561 105.10003,1594.8087 C 260.36276,1519.7941 423.47588,1464.8415 594.43937,1429.951 C 627.58532,1361.9146 652.00868,1306.0899 667.70942,1262.4767 C 683.41017,1218.8635 691.26054,1164.7832 691.26054,1100.2358 C 642.41384,1044.411 630.20215,996.87261 654.62547,957.62085 C 679.04886,918.36901 690.8244,883.91465 689.95212,854.2577 C 689.07989,824.60075 693.4412,801.4858 703.03606,784.91277 C 712.63098,768.33984 730.51238,757.43658 756.68028,752.20298 L 754.06342,752.20298 C 740.10725,731.26869 733.12916,707.71759 733.12916,681.5497 C 719.17298,681.5497 703.03612,680.67744 684.71857,678.93293 C 666.40102,677.18841 658.11451,669.33801 659.85902,655.38173 C 661.60353,641.42555 659.85902,631.83069 654.62547,626.59714 C 644.15833,626.59714 642.41379,619.61902 649.39185,605.66279 C 640.66927,600.42924 639.79701,596.06793 646.77507,592.57884 L 652.0087,582.11175 C 631.07441,578.62267 622.35177,571.64455 625.84081,561.1774 C 632.81892,541.98763 645.03059,521.0533 662.47579,498.37444 C 655.49774,475.69563 661.60357,440.36902 680.79329,392.3946 C 699.98312,344.42013 737.92656,316.07158 794.62361,307.34895 C 851.32074,298.62632 915.43205,307.78506 986.95753,334.82519 C 1058.4831,361.86537 1094.2459,500.9913 1094.2459,752.20298 L 1094.2459,951.0788 L 1044.5269,951.0788 z M 994.80793,951.0788 L 994.80793,812.38909 C 994.80793,761.79787 977.36264,736.50226 942.47215,736.50226 L 942.47215,979.86346 L 837.80065,979.86346 L 837.80065,788.83797 C 769.76417,788.83797 736.18205,813.26129 737.05428,862.10802 C 737.92656,910.95475 723.53424,955.44014 693.87732,995.56426 C 706.08903,1037.4329 725.27881,1071.4511 751.44665,1097.619 C 746.2131,1165.6555 736.61821,1222.7887 722.66198,1269.0186 C 708.70581,1315.2486 679.04888,1381.9767 633.69121,1469.203 C 417.37005,1526.7722 254.25691,1581.7247 144.35179,1634.0605 C 86.782452,1667.2065 65.848159,1695.555 81.548906,1719.1061 C 97.24965,1742.6573 113.82263,1750.0715 131.26784,1741.3488 C 260.36274,1668.0788 375.50143,1644.5277 476.68393,1670.6955 C 577.86636,1696.8634 676.43205,1713.4365 772.381,1720.4146 C 859.60728,1725.6482 909.32622,1678.546 921.53788,1579.108 C 926.77143,1315.6847 951.19475,1106.3416 994.80793,951.0788 L 994.80793,951.0788 z M 869.20209,940.6117 L 911.07071,940.6117 L 911.07071,707.71759 L 963.40649,707.71759 C 1005.2751,707.71759 1026.2094,742.60809 1026.2094,812.38909 L 1026.2094,914.44381 L 1062.8444,914.44381 L 1062.8444,812.38909 C 1062.8444,536.75408 1032.3152,387.16103 971.25681,363.60993 C 910.19842,340.05879 853.50137,331.33613 801.16566,337.44196 C 748.82988,343.54785 717.42841,365.79057 706.96126,404.17012 C 780.23134,390.21395 837.80065,406.78692 879.66927,453.88906 C 888.39187,443.42191 904.09259,443.42191 926.77143,453.88906 C 949.45026,464.3562 955.55609,482.23758 945.08892,507.53319 C 934.62175,532.82886 924.15465,551.58252 913.68748,563.79418 C 903.2203,576.0059 888.39187,585.60079 869.20209,592.57884 L 869.20209,940.6117 z "
     id="path4" />
</svg>
