<?xml version="1.0" encoding="UTF-8" standalone="no"?>
<svg
   xmlns:dc="http://purl.org/dc/elements/1.1/"
   xmlns:cc="http://web.resource.org/cc/"
   xmlns:rdf="http://www.w3.org/1999/02/22-rdf-syntax-ns#"
   xmlns:svg="http://www.w3.org/2000/svg"
   xmlns="http://www.w3.org/2000/svg"
   xmlns:sodipodi="http://sodipodi.sourceforge.net/DTD/sodipodi-0.dtd"
   xmlns:inkscape="http://www.inkscape.org/namespaces/inkscape"
   width="1800"
   height="1800"
   id="svg2"
   sodipodi:version="0.32"
   inkscape:version="0.45.1"
   sodipodi:docname="C184.svg"
   sodipodi:docbase="/Users/rosmord/Travail/Gsigns/SThomasDetail/ManuelDeCodage/C"
   inkscape:output_extension="org.inkscape.output.svg.inkscape"
   version="1.0">
  <metadata
     id="metadata9">
    <rdf:RDF>
      <cc:Work
         rdf:about="">
        <dc:format>image/svg+xml</dc:format>
        <dc:type
           rdf:resource="http://purl.org/dc/dcmitype/StillImage" />
      </cc:Work>
    </rdf:RDF>
  </metadata>
  <defs
     id="defs7" />
  <sodipodi:namedview
     inkscape:window-height="581"
     inkscape:window-width="701"
     inkscape:pageshadow="2"
     inkscape:pageopacity="0.0"
     guidetolerance="10.0"
     gridtolerance="10.0"
     objecttolerance="10.0"
     borderopacity="1.0"
     bordercolor="#666666"
     pagecolor="#ffffff"
     id="base"
     width="1800px"
     height="1800px"
     inkscape:zoom="0.21"
     inkscape:cx="900"
     inkscape:cy="828.64643"
     inkscape:window-x="20"
     inkscape:window-y="42"
     inkscape:current-layer="svg2" />
  <path
     style="fill:#000000;stroke:none"
     d="M 638.53305,496.90724 L 638.53305,423.83265 C 638.53305,415.71322 646.65244,396.57463 662.8912,366.41688 C 674.49035,347.85824 678.55007,336.25908 675.07035,331.61942 C 671.59058,326.97976 667.82082,325.81985 663.76108,328.13968 C 659.70139,330.45951 658.25151,338.57891 659.41145,352.4979 L 635.05323,352.4979 C 635.05323,325.81987 615.33469,312.48086 575.89762,312.48086 L 572.4178,319.44035 C 582.85706,317.12052 593.00634,318.57039 602.86564,323.78997 C 612.72488,329.00961 620.5543,332.1994 626.3539,333.35933 L 626.3539,338.57891 C 600.83576,329.29959 584.88693,325.23987 578.50741,326.39977 C 572.12789,327.5597 567.19824,331.03945 563.71847,336.839 C 557.91892,346.11833 550.95943,359.45737 542.84,376.85612 C 552.11932,378.01601 557.33895,380.33581 558.49889,383.81554 C 559.65879,387.29531 559.07881,392.51494 556.75898,399.47443 L 581.1172,402.95418 L 581.1172,411.6535 L 561.97864,415.13325 C 559.65881,417.45308 559.65881,422.09274 561.97864,429.05223 C 561.97864,434.85179 572.99782,437.75156 595.03619,437.75156 L 619.39441,437.75156 C 618.23447,472.54902 624.61401,492.26758 638.53305,496.90724 z M 560.23873,489.94775 L 567.19822,519.52555 C 588.0767,560.12257 611.85498,580.42107 638.53305,580.42107 L 638.53305,509.08639 C 621.13424,504.44668 610.69498,494.58739 607.21526,479.50851 L 560.23873,489.94775 z M 751.62461,676.11405 L 756.84426,676.11405 L 800.34105,580.42107 L 800.34105,559.5426 L 751.62461,676.11405 z M 720.30697,481.24842 L 720.30697,580.42107 C 743.50527,581.58101 760.32401,574.33156 770.76325,558.67272 C 781.20249,543.01387 787.00199,530.54479 788.1619,521.26547 L 800.34105,489.94775 C 769.02334,481.82837 742.34534,478.92859 720.30697,481.24842 z M 720.30697,599.55971 L 720.30697,667.41472 L 638.53305,667.41472 L 638.53305,599.55971 C 611.85498,598.39977 592.71636,588.54048 581.1172,569.98183 L 628.09374,676.11405 L 716.82722,676.11405 L 760.32401,587.38056 C 758.00418,594.34006 744.66517,598.39977 720.30697,599.55971 z M 615.91466,696.99253 C 624.03405,739.90937 628.09374,776.44669 628.09374,806.60441 C 628.09374,830.96263 623.74406,869.23984 615.04471,921.43595 C 606.34536,973.63214 602.86561,1024.3784 604.60547,1073.6748 C 606.34533,1122.9712 614.17475,1168.4978 628.09374,1210.2547 C 642.01272,1252.0117 648.97221,1311.1674 648.97221,1387.7217 C 648.97221,1483.9947 646.65238,1558.8091 642.01272,1612.165 L 732.48612,1612.165 C 740.6055,1561.1288 741.4754,1510.0926 735.09583,1459.0564 C 728.71631,1408.0202 725.52655,1331.4658 725.52655,1229.3933 C 725.52655,1127.3208 731.03617,1062.3656 742.0554,1034.5277 C 753.07458,1006.6897 758.58417,975.37198 758.58417,940.57459 C 758.58417,909.25688 753.65453,882.86886 743.79523,861.41047 C 733.93594,839.952 728.42635,812.40399 727.26646,778.76652 C 727.26646,752.08849 731.32615,724.83049 739.44553,696.99253 L 615.91466,696.99253 z M 622.87408,1645.2227 C 622.87408,1693.9391 588.65662,1729.3165 520.22169,1751.3549 L 454.10659,1775.713 L 440.1876,1775.713 C 440.1876,1780.3528 444.24729,1782.6726 452.36668,1782.6726 C 461.646,1782.6726 470.92532,1783.8325 480.20465,1786.1523 C 489.48397,1788.4722 501.08312,1788.4722 515.00211,1786.1523 C 511.52234,1782.6726 508.62253,1775.1332 506.3027,1763.534 L 539.36033,1763.534 C 596.1961,1749.615 635.05323,1733.3762 655.9317,1714.8175 L 655.9317,1645.2227 L 622.87408,1645.2227 z M 671.59052,1645.2227 L 671.59052,1709.598 C 680.8699,1706.1182 685.50958,1697.9988 685.50958,1685.2397 L 685.50958,1645.2227 L 671.59052,1645.2227 z M 699.42849,1645.2227 L 699.42849,1686.9797 C 699.42849,1705.5383 684.92957,1720.6171 655.9317,1732.2163 C 645.49249,1739.1758 633.89334,1745.5553 621.13424,1751.3549 L 539.36033,1775.713 L 523.70143,1775.713 C 523.70143,1780.3528 527.76112,1782.6726 535.88051,1782.6726 C 545.15988,1782.6726 554.4392,1783.8325 563.71847,1786.1523 C 572.9978,1788.4722 589.52659,1787.8923 613.30487,1784.4124 C 637.0831,1780.9328 658.83148,1778.0329 678.55002,1775.713 C 707.54792,1784.9924 726.68652,1788.1823 735.96579,1785.2825 C 745.24511,1782.3826 748.14491,1764.6939 744.66519,1732.2163 L 744.66519,1645.2227 L 699.42849,1645.2227 z M 603.73559,347.27824 C 596.7761,341.47869 592.13641,338.57891 589.81653,338.57891 C 592.13641,339.73885 593.29635,341.47872 593.29635,343.7985 C 593.29635,348.43816 590.39655,350.75799 584.59695,350.75799 C 578.7974,350.75799 575.89762,348.43816 575.89762,343.7985 C 575.89762,341.47872 576.47757,339.73885 577.63746,338.57891 C 576.47757,338.57891 575.02769,340.31877 573.28783,343.7985 C 571.54792,347.27826 570.09802,349.01815 568.93813,349.01815 C 573.57779,350.17804 578.7974,350.75799 584.59695,350.75799 C 590.39655,350.75799 596.7761,349.59807 603.73559,347.27824 z M 560.23873,350.75799 L 560.23873,345.53841 L 563.71847,345.53841 C 564.87841,345.53841 566.90826,343.21858 569.80801,338.57891 C 572.70781,333.93925 577.63746,331.61942 584.59695,331.61942 C 591.55644,331.61942 600.25579,336.25908 610.69501,345.53841 L 626.3539,345.53841 L 626.3539,350.75799 L 610.69501,350.75799 C 599.09591,354.23776 590.39655,355.97764 584.59695,355.97764 C 578.7974,355.97764 573.86775,355.10771 569.80801,353.36785 C 565.74832,351.62794 563.13853,350.75799 561.97864,350.75799 L 560.23873,350.75799 z M 581.1172,676.11405 L 561.97864,609.99895 L 541.10016,651.75583 C 543.41999,670.31447 556.759,678.43388 581.1172,676.11405 z M 770.76325,23.66209 C 762.64384,17.862539 756.84429,22.5022 753.36452,37.581074 C 744.08519,53.819889 735.96579,65.129058 729.0063,71.508579 C 722.0468,77.888098 711.89755,85.13755 698.55854,93.256935 C 685.21953,101.37636 668.69075,117.61518 648.97221,141.97338 C 639.69289,155.89236 630.99351,171.5512 622.87408,188.94991 L 715.08731,188.94991 C 727.8464,157.63222 735.96581,130.9542 739.44553,108.91583 C 742.9253,86.877461 751.04471,65.998987 763.80376,46.280401 C 775.40291,35.841188 777.72274,28.301752 770.76325,23.66209 z M 718.56706,253.32518 L 730.74621,324.65993 C 744.66514,315.38061 751.62461,302.0416 751.62461,284.64289 C 751.62461,271.8838 740.60543,261.44456 718.56706,253.32518 z M 760.32401,307.2612 L 775.98283,315.9606 C 784.10224,306.68128 786.71203,294.21219 783.81235,278.55335 C 780.91253,262.89451 775.9829,252.16528 769.02341,246.36568 L 751.62461,258.54483 C 759.74401,263.18444 764.09372,271.30382 764.67371,282.90298 C 765.25363,294.50213 763.80376,302.62154 760.32401,307.2612 z M 737.7057,331.61942 C 740.02548,337.41902 744.66511,344.37851 751.62461,352.4979 C 756.26432,351.33796 763.22384,351.9179 772.50308,354.23773 L 751.62461,347.27824 C 758.5841,346.11835 764.96367,346.69832 770.76325,349.01815 C 770.76325,346.69832 764.38368,344.37849 751.62461,342.05866 C 756.26432,339.73883 762.06392,339.73883 769.02341,342.05866 C 765.54367,339.73883 759.74401,337.99894 751.62461,336.839 C 755.10438,334.51923 758.58412,333.93928 762.06384,335.09917 C 758.58412,329.29957 754.52443,324.65991 749.88477,321.18018 C 745.24516,324.65991 741.18547,328.13965 737.7057,331.61942 z M 537.62042,255.06509 C 539.94025,255.06509 541.10016,256.225 541.10016,258.54483 C 541.10016,260.86466 539.94025,262.02458 537.62042,262.02458 C 534.14069,262.02458 532.40084,260.86466 532.40084,258.54483 C 532.40084,256.225 534.14069,255.06509 537.62042,255.06509 z M 523.70143,268.98399 L 515.00211,270.72391 C 518.48183,271.88384 522.54152,271.88384 527.18118,270.72391 C 531.82084,269.56397 536.17052,268.69403 540.23021,268.11411 C 544.2899,267.53414 546.31974,264.92433 546.31974,260.28467 C 546.31974,255.64501 543.99994,253.32518 539.36033,253.32518 C 537.04044,253.32518 531.82082,255.64501 523.70143,260.28467 C 524.86133,261.44461 525.44127,262.60452 525.44127,263.76441 C 525.44127,264.92431 524.86133,265.50425 523.70143,265.50425 C 522.54154,265.50425 521.38162,263.76439 520.22169,260.28467 C 520.22169,260.28467 520.22169,260.86464 520.22169,262.02458 L 523.70143,267.24416 C 534.14069,266.08422 538.49037,265.50425 536.75046,265.50425 C 535.0106,265.50425 532.98076,266.08422 530.66092,267.24416 L 530.66092,265.50425 C 530.66092,265.50425 531.53086,265.50425 533.27072,265.50425 C 535.01057,265.50425 536.46048,265.50425 537.62042,265.50425 C 538.78035,265.50425 539.36033,265.50425 539.36033,265.50425 C 539.36033,266.66419 534.14069,267.8241 523.70143,268.98399 z M 775.98283,404.69401 C 778.30274,405.85395 780.62257,406.43392 782.94232,406.43392 C 785.26215,406.43392 787.00199,405.85395 788.1619,404.69401 C 790.48181,403.53412 791.64172,401.79426 791.64172,399.47443 C 791.64172,395.99466 791.0618,393.67483 789.90189,392.51494 C 788.7419,391.355 787.00199,390.48507 784.68223,389.90515 C 782.3624,389.32518 780.04257,390.19511 777.72274,392.51494 C 776.56282,393.67483 775.98283,395.41471 775.98283,397.7346 C 775.98283,400.05437 775.98283,402.37418 775.98283,404.69401 z M 817.73978,25.402001 L 810.78029,21.922255 L 727.26646,204.60873 L 593.29635,204.60873 L 598.51593,237.66636 C 607.7952,233.02669 626.35385,230.70686 654.19187,230.70686 C 683.18973,230.70686 705.22809,234.18661 720.30697,241.1461 L 817.73978,25.402001 z M 676.81018,474.28893 C 687.2494,473.12899 698.84855,468.77929 711.60764,461.23983 C 724.36669,453.70042 731.32618,442.68126 732.48612,428.18236 C 733.64601,413.6834 723.78671,353.65781 702.90824,248.10559 C 691.30914,244.62583 676.8102,242.88594 659.41145,242.88594 L 680.28993,319.44035 C 684.92959,319.44035 687.24942,325.81987 687.24942,338.57891 C 687.24942,349.01813 683.18973,359.45737 675.07035,369.89663 L 668.11078,394.25477 L 676.81018,474.28893 z M 655.9317,432.53198 L 655.9317,651.75583 L 702.90824,651.75583 L 702.90824,482.98826 C 693.62892,487.62792 680.86987,491.10767 664.63111,493.4275 L 655.9317,432.53198 z M 852.53724,533.44454 C 854.85707,562.4424 856.01699,595.49997 856.01699,632.61726 L 876.89546,632.61726 C 880.37521,601.29957 878.92526,565.05224 872.54576,523.87526 C 866.16626,482.69832 833.9786,416.87316 775.98283,326.39977 L 756.84426,314.22069 L 755.10443,315.9606 C 772.50316,331.03948 779.46257,346.11835 775.98283,361.19723 C 769.02334,357.7175 763.22376,356.55759 758.58417,357.71748 L 772.50308,375.11621 C 775.98283,371.63649 780.91253,371.05652 787.29202,373.3763 C 793.67152,375.69618 798.60122,378.59598 802.08096,382.0757 C 806.72055,387.87526 809.04038,394.83475 809.04038,402.95418 L 817.73978,394.25477 L 826.43918,404.69401 L 781.20249,442.97122 L 772.50308,432.53198 L 782.94232,423.83265 C 774.82291,423.83265 768.44342,420.35291 763.80376,413.39342 C 760.32401,408.75375 758.58417,402.95418 758.58417,395.99469 C 758.58417,390.19513 760.32401,385.55547 763.80376,382.0757 L 734.22595,343.7985 L 744.66519,402.95418 C 749.3048,436.5917 746.98497,457.47015 737.7057,465.58953 C 764.38375,465.58953 790.19185,470.51917 815.12999,480.37847 C 840.06813,490.23771 852.53724,507.9264 852.53724,533.44454 z M 624.61399,307.2612 L 600.25577,251.58534 C 582.85706,260.86461 573.57774,275.36354 572.4178,295.08213 L 560.23873,295.08213 C 552.11934,290.44247 549.79951,282.90303 553.27924,272.46382 C 556.759,262.02456 556.17906,256.80492 551.5394,256.80492 C 551.5394,261.44458 550.66945,265.50427 548.92953,268.98399 C 547.18968,272.46376 546.60973,278.55333 547.1897,287.25268 C 547.76967,295.95203 555.59909,299.72177 570.67797,298.56187 C 585.75689,297.40194 603.73557,300.30171 624.61399,307.2612 z M 666.37094,315.9606 L 645.49247,244.62585 C 640.85286,243.46591 636.79314,243.46591 633.31332,244.62585 L 657.67154,319.44035 C 661.15131,317.12052 664.05111,315.9606 666.37094,315.9606 z M 650.71212,324.65993 L 624.61399,244.62585 C 619.97433,244.62585 615.91461,245.20579 612.43484,246.36568 L 645.49247,333.35933 C 646.65236,328.71962 648.39224,325.81982 650.71212,324.65993 z M 819.47962,404.69401 L 815.99995,401.21427 L 807.30054,408.17376 L 810.78029,413.39342 L 819.47962,404.69401 z M 807.30054,416.87316 L 795.12147,401.21427 C 796.28138,401.21427 796.28138,402.37418 795.12147,404.69401 L 805.56071,416.87316 L 807.30054,416.87316 z M 802.08096,420.35291 L 791.64172,406.43392 L 789.90189,408.17376 L 800.34105,422.09274 L 802.08096,420.35291 z M 796.8613,425.57249 L 786.42207,409.91367 C 785.26215,411.07356 784.10224,411.07356 782.94232,409.91367 L 796.8613,425.57249 L 796.8613,425.57249 z M 793.38156,429.05223 L 788.1619,423.83265 L 779.46265,432.53198 L 782.94232,436.01173 L 793.38156,429.05223 z M 802.08096,402.95418 L 802.08096,401.21427 C 802.08096,395.41471 800.34105,390.77508 796.8613,387.29536 C 794.54147,383.81559 791.06173,381.49576 786.42207,380.33587 C 781.78248,379.17593 777.14282,380.33581 772.50308,383.81554 C 767.86342,387.29531 765.25363,391.64498 764.67371,396.86456 C 764.09372,402.0842 766.12359,406.4339 770.76325,409.91367 C 773.08308,414.55333 775.69287,416.87316 778.59269,416.87316 C 781.49245,416.87316 782.94232,416.87316 782.94232,416.87316 L 777.72274,409.91367 C 776.56282,409.91367 775.40291,408.75375 774.24299,406.43392 C 771.92316,404.11409 770.76325,401.21432 770.76325,397.7346 C 770.76325,394.25483 772.50308,391.35502 775.98283,389.03519 C 779.46257,386.71536 782.94232,385.84543 786.42207,386.4254 C 789.90181,387.00538 792.22164,387.8753 793.38156,389.03519 C 795.70139,391.35502 796.8613,393.67485 796.8613,395.99469 L 802.08096,402.95418 z M 800.34105,648.27608 C 775.98283,690.03298 762.64384,728.89014 760.32401,764.84753 C 758.00418,800.80491 762.35388,831.25267 773.37311,856.19081 C 784.39227,881.12895 789.90189,909.83688 789.90189,942.31443 C 789.90189,975.95197 780.62257,1018.8688 762.06384,1071.065 C 756.26429,1239.2525 756.84426,1349.7344 763.80376,1402.5106 C 770.76325,1455.2867 771.92316,1536.1908 767.2835,1645.2227 L 758.58417,1645.2227 L 758.58417,1728.7366 C 762.06392,1760.0542 760.904,1781.5126 755.10443,1793.1118 C 749.30483,1804.711 735.09585,1807.3208 712.47752,1800.9412 C 689.85919,1794.5617 661.44127,1794.2718 627.22378,1800.0713 C 593.00634,1805.8708 566.6183,1805.8708 548.05965,1800.0713 C 512.1023,1804.7109 489.19399,1805.8708 479.33469,1803.5511 C 469.47545,1801.2312 458.16628,1800.0713 445.40719,1800.0713 C 431.4882,1800.0713 424.52871,1787.8922 424.52871,1763.534 L 454.10659,1763.534 C 556.17904,1732.2162 607.79523,1691.6192 608.95517,1641.7429 C 613.59483,1593.0266 616.20462,1517.9221 616.78454,1416.4295 C 617.36452,1314.9371 610.11506,1243.6023 595.03619,1202.4253 C 579.95727,1161.2484 572.4178,1109.3422 572.4178,1046.7067 C 572.4178,997.99037 575.89755,955.94345 582.85704,920.56607 C 589.81658,885.18869 593.29635,843.14178 593.29635,794.42534 C 593.29635,743.38912 586.9168,708.59168 574.15771,690.03303 C 545.15985,690.03303 528.34109,676.11405 523.70143,648.27608 C 544.57991,611.15884 550.37949,587.96056 541.10016,578.68124 C 502.82298,645.95627 454.10657,706.85179 394.95091,761.36779 C 335.79525,742.80914 273.15987,711.49145 207.04477,667.41472 C 191.9659,679.01382 176.887,687.71318 161.80808,693.51278 L 161.80808,1789.6322 L 125.27078,1789.6322 L 125.27078,693.51278 C 115.99146,693.51278 108.45202,685.68335 102.65247,670.02451 C 96.85287,654.36567 99.172701,643.63644 109.61196,637.83684 C 92.213208,627.39763 88.15349,618.69828 97.432812,611.73879 L 125.27078,611.73879 L 125.27078,472.54902 C 120.63112,440.07145 114.2516,427.60236 106.13222,435.14177 C 98.012785,442.68124 85.833659,458.63006 69.594844,482.98826 C 53.35608,539.82409 30.157799,562.44242 0,550.84327 C 31.317689,481.2484 52.196139,433.6919 62.635352,408.17376 C 73.074615,382.65567 90.18336,358.00749 113.96159,334.22921 C 137.73987,310.45099 158.32835,278.26337 175.72706,237.66636 C 195.4456,255.06506 196.8955,276.81344 180.07676,302.9115 C 163.25797,329.00961 149.04901,354.23776 137.44985,378.59596 C 153.68867,405.27399 161.80808,436.59167 161.80808,472.54902 L 161.80808,611.73879 C 181.52661,611.73879 203.565,618.11831 227.92325,630.87735 C 290.55862,654.07566 341.0149,675.53408 379.29209,695.25261 C 411.76972,643.05645 448.30701,590.86031 488.90397,538.6642 C 501.66306,501.54691 524.86137,480.66843 558.49889,476.02877 L 605.47543,465.58953 L 605.47543,453.41046 C 560.23875,453.41046 541.10016,442.97122 548.05965,422.09274 C 538.78033,417.45308 537.62042,412.23348 544.57991,406.43392 C 539.94025,401.79426 538.78033,398.60448 541.10016,396.86456 C 543.41999,395.12471 545.15985,392.51492 546.31974,389.03519 C 537.04047,387.8753 531.24092,384.39555 528.92109,378.59596 C 527.76115,373.95629 535.30059,357.13754 551.5394,328.13968 C 552.69929,320.02029 555.59907,313.0608 560.23873,307.2612 C 552.11934,307.2612 546.02981,304.36143 541.97012,298.56187 C 537.91038,292.76227 537.04044,286.9627 539.36033,281.16314 C 541.68011,275.36359 540.23021,273.04376 535.01063,274.20365 C 529.79099,275.36354 521.96157,275.36354 511.52236,274.20365 L 502.82303,279.42323 L 502.82303,270.72391 C 502.82303,263.76441 506.88272,260.28467 515.00211,260.28467 C 527.76115,249.84545 535.88056,244.62585 539.36033,244.62585 C 550.95943,242.30602 557.9189,244.33587 560.23873,250.71538 C 562.55856,257.0949 562.55856,263.18444 560.23873,268.98399 C 557.9189,274.78359 558.49887,279.42325 561.97864,282.90298 C 563.13853,265.50427 569.51805,253.32518 581.1172,246.36568 L 574.15771,188.94991 L 600.25577,188.94991 C 609.53514,170.39132 616.49464,158.21222 621.13424,152.41262 C 597.93599,133.85397 581.11723,117.03521 570.67797,101.95634 C 560.23875,86.877461 555.59909,72.08855 556.75898,57.589595 C 557.91892,43.09064 563.42854,32.651402 573.28783,26.271881 C 583.14707,19.892359 592.42637,17.282569 601.12572,18.442509 C 609.82513,19.6024 618.23452,28.881696 626.3539,46.280401 C 627.51379,57.879555 624.32401,66.288947 616.78454,71.508579 C 609.24513,76.728213 602.57565,79.338026 596.7761,79.338026 C 590.9765,79.338026 588.0767,75.27831 588.0767,67.158877 C 590.39653,63.679157 593.87627,63.099212 598.51593,65.419042 C 606.63532,64.259102 611.27495,59.619441 612.43484,51.500058 C 613.59483,44.540566 611.56502,39.900905 606.34538,37.581074 C 601.12575,35.261244 595.61613,34.391313 589.81653,34.971284 C 584.01698,35.551204 579.66731,38.450979 576.7675,43.670611 C 573.8677,48.890243 572.99777,56.13972 574.15771,65.419042 C 575.31765,74.698365 580.53726,85.427563 589.81653,97.606636 C 599.09591,109.78576 612.43494,122.83481 629.83365,136.7538 C 630.99354,135.59386 637.08308,128.05439 648.10226,114.13541 C 659.12149,100.21643 673.04048,88.327313 689.85921,78.468071 C 706.67794,68.608778 720.30695,53.239893 730.74621,32.361417 C 738.86564,17.282543 746.98504,7.4232756 755.10443,2.7836143 C 763.22384,-1.8560471 770.76325,-0.69613174 777.72274,6.2633603 C 788.16198,12.062962 793.38156,19.022454 793.38156,27.141836 C 793.38156,35.261219 787.58198,44.540541 775.98283,54.979804 C 765.54359,66.578958 759.16409,85.13758 756.84426,110.65566 L 809.04038,8.0032713 L 829.91893,18.442509 L 734.22595,244.62585 C 737.70568,245.78574 741.18542,248.10557 744.66519,251.58534 L 770.76325,234.18661 C 784.68223,245.78576 792.22164,260.28469 793.38156,277.6834 C 794.54147,295.0821 792.80164,306.68126 788.1619,312.48086 L 836.87842,392.51494 C 868.19614,443.55116 886.46475,493.71746 891.68433,543.01382 C 896.90398,592.31019 898.35386,628.55752 896.03403,651.75583 L 856.01699,651.75583 L 850.79741,768.32728 C 865.8763,803.12474 867.61614,869.23984 856.01699,966.67265 C 859.49673,980.59164 863.55647,996.83045 868.19606,1015.389 C 870.51597,1022.3485 871.09589,1031.6278 869.93589,1043.2271 C 869.93589,1052.5063 867.90602,1064.3954 863.84636,1078.8944 C 859.78669,1093.3934 855.43699,1106.4424 850.79741,1118.0415 C 848.4775,1125.001 845.86771,1129.0607 842.96796,1130.2206 C 840.06813,1131.3806 837.45834,1130.2206 835.13851,1126.7409 C 831.65876,1129.0607 828.17909,1127.9008 824.69935,1123.2611 C 821.21953,1124.4211 819.47962,1122.6812 819.47962,1118.0415 C 815.99987,1118.0415 814.84003,1115.1417 815.99995,1109.3422 C 822.95944,1097.743 827.5991,1086.7239 829.91893,1076.2846 C 832.23868,1065.8454 832.81868,1049.6066 831.65876,1027.5682 C 830.49885,1024.0884 829.33893,1022.3486 828.17902,1022.3486 C 828.17902,1022.3486 827.5991,1023.5085 826.43918,1025.8283 C 826.43918,1032.7877 827.0191,1040.9072 828.17902,1050.1865 C 828.17902,1059.4659 827.30906,1067.0053 825.56923,1072.8048 C 823.82932,1078.6044 820.63953,1080.3443 815.99995,1078.0244 C 813.68011,1073.3848 813.10012,1068.1651 814.26003,1062.3656 C 814.26003,1051.9263 813.10012,1039.1673 810.78029,1024.0884 C 808.46046,1009.0095 812.52012,987.55113 822.95936,959.71324 C 821.79945,914.47654 816.28991,877.06921 806.43059,847.49141 C 796.57134,817.9136 793.96155,788.04577 798.60114,757.88804 C 798.60114,696.41255 799.18114,659.87523 800.34105,648.27608 z "
     id="path4" />
</svg>
