<?xml version="1.0" encoding="UTF-8" standalone="no"?>
<svg
   width="668.09998"
   height="1800"
   id="svg2"
   sodipodi:version="0.32"
   inkscape:version="1.4 (e7c3feb1, 2024-10-09)"
   sodipodi:docname="C19.svg"
   inkscape:output_extension="org.inkscape.output.svg.inkscape"
   version="1.0"
   inkscape:export-filename="../travail/barbe1.svg"
   inkscape:export-xdpi="96"
   inkscape:export-ydpi="96"
   xmlns:inkscape="http://www.inkscape.org/namespaces/inkscape"
   xmlns:sodipodi="http://sodipodi.sourceforge.net/DTD/sodipodi-0.dtd"
   xmlns="http://www.w3.org/2000/svg"
   xmlns:svg="http://www.w3.org/2000/svg"
   xmlns:rdf="http://www.w3.org/1999/02/22-rdf-syntax-ns#"
   xmlns:cc="http://creativecommons.org/ns#"
   xmlns:dc="http://purl.org/dc/elements/1.1/">
  <title
     id="title1">C19</title>
  <metadata
     id="metadata9">
    <rdf:RDF>
      <cc:Work
         rdf:about="">
        <dc:format>image/svg+xml</dc:format>
        <dc:type
           rdf:resource="http://purl.org/dc/dcmitype/StillImage" />
        <dc:title>C19</dc:title>
        <dc:creator>
          <cc:Agent>
            <dc:title>S. J. P Thomas</dc:title>
          </cc:Agent>
        </dc:creator>
        <dc:description>Ptah. Modified S. Rosmorduc: straight beard; simpler wAs scepter.
</dc:description>
      </cc:Work>
    </rdf:RDF>
  </metadata>
  <defs
     id="defs7" />
  <sodipodi:namedview
     inkscape:window-height="1241"
     inkscape:window-width="1736"
     inkscape:pageshadow="2"
     inkscape:pageopacity="0.0"
     guidetolerance="10.0"
     gridtolerance="10.0"
     objecttolerance="10.0"
     borderopacity="1.0"
     bordercolor="#666666"
     pagecolor="#ffffff"
     id="base"
     height="18px"
     width="6.680788px"
     inkscape:zoom="0.417193"
     inkscape:cx="325.98821"
     inkscape:cy="337.97307"
     inkscape:window-x="1565"
     inkscape:window-y="124"
     inkscape:current-layer="svg2"
     inkscape:showpageshadow="2"
     inkscape:pagecheckerboard="0"
     inkscape:deskcolor="#d1d1d1"
     inkscape:window-maximized="0" />
  <path
     id="path4"
     style="fill:#000000;stroke:none;stroke-width:100.576"
     d="M 200.57812 0 C 172.24803 40.795367 151.85005 67.14236 139.38477 79.041016 C 126.91955 90.939672 118.70256 104.53768 114.73633 119.83594 C 110.77012 135.1342 87.823138 177.91316 45.894531 248.17188 C 73.091443 244.77226 102.5554 215.30831 134.28516 159.78125 C 138.81803 151.84881 141.08398 150.14877 141.08398 154.68164 L 141.08398 542.23828 L 98.587891 542.23828 C 88.389034 545.63789 84.423033 550.73786 86.689453 557.53711 C 88.955872 563.20314 94.621893 567.16914 103.6875 569.43555 C 98.021481 573.96841 98.021481 577.93441 103.6875 581.33398 C 96.888279 588.13318 97.456227 594.36519 105.38867 600.03125 C 98.589409 606.83045 98.589409 613.06441 105.38867 618.73047 C 100.8558 627.79608 102.55584 636.29412 110.48828 644.22656 C 119.55391 651.02578 129.75188 654.42578 141.08398 654.42578 L 141.08398 664.625 C 128.6187 665.7583 114.45277 665.7583 98.587891 664.625 C 91.788702 669.15785 89.522638 674.25581 91.789062 679.92188 C 94.055419 685.58786 98.589409 690.68783 105.38867 695.2207 C 100.8558 699.75347 99.72187 704.85347 101.98828 710.51953 C 104.25467 716.18563 104.25467 721.28558 101.98828 725.81836 C 99.72187 730.35122 100.57089 734.31723 104.53711 737.7168 C 108.50303 741.1165 109.63734 744.79949 107.9375 748.76562 C 106.23776 752.7318 107.37167 756.12986 111.33789 758.96289 C 115.30401 761.79593 117.28711 766.61297 117.28711 773.41211 C 117.28711 780.21138 125.21915 785.3114 141.08398 788.71094 L 141.08398 790.41016 L 141.08398 1533.2266 C 119.55309 1538.8927 108.22108 1555.3246 107.08789 1582.5215 C 107.96097 1615.6063 140.27068 1637.8879 146.60938 1629.9785 C 152.94807 1622.0691 134.50983 1598.7727 134.28516 1582.5195 C 135.41835 1566.6547 145.57653 1558.7227 161.44141 1558.7227 C 177.30628 1558.7227 185.09615 1566.9531 186.97852 1582.5195 C 188.86089 1598.0859 167.65923 1620.9301 176.27148 1629.9785 C 184.88372 1639.0269 213.63585 1605.2628 214.17578 1582.5195 C 214.72069 1559.5664 202.84382 1538.893 180.17969 1533.2266 L 180.17969 790.41016 L 302.56641 775.11133 C 305.96608 812.5071 312.76411 875.96706 322.96289 965.49023 C 333.16175 1055.0134 347.61074 1161.2524 366.30859 1284.2051 C 385.0065 1407.1578 392.08949 1489.597 387.55664 1531.5254 C 368.29217 1584.7861 307.66417 1631.8139 205.67578 1672.6094 C 174.91414 1672.6094 155.34728 1683.5097 146.56055 1704.9062 L 66.292969 1704.9062 L 0 1808.5938 L 574.53516 1808.5938 L 574.53516 1704.9062 L 550.89844 1704.9062 C 556.98706 1681.5946 551.87129 1648.1972 535.43945 1604.6172 L 535.43945 1074.2773 C 534.30627 1005.1517 540.53826 963.22383 554.13672 948.49219 C 575.6676 882.76632 571.70162 815.90835 542.23828 747.91602 C 575.10122 558.67088 575.10122 418.71884 542.23828 328.0625 C 522.97387 303.13196 515.60775 280.46796 520.14062 260.07031 C 519.00738 249.87145 522.97342 241.9395 532.03906 236.27344 C 583.03333 213.60938 608.53125 173.66437 608.53125 116.4375 C 608.53125 59.210702 571.98431 27.763734 498.89258 22.097656 C 425.80091 16.431637 379.05786 26.063589 358.66016 50.994141 C 338.2625 75.924632 324.66255 101.42266 317.86328 127.48633 C 315.59687 137.68519 313.61384 146.46621 311.91406 153.83203 C 310.21426 161.19791 304.83125 171.11487 295.76562 183.58008 C 286.69996 196.04537 282.73399 203.97732 283.86719 207.37695 C 285.00037 214.17617 290.10038 217.57617 299.16602 217.57617 C 299.16602 222.10893 296.33208 224.94102 290.66602 226.07422 C 289.53284 232.87347 291.23278 237.40546 295.76562 239.67188 C 291.23279 249.87074 292.93276 256.10474 300.86523 258.37109 L 302.56641 280.46875 C 302.44325 281.94665 302.91089 283.16832 303.55273 284.30664 L 262.89258 382.31055 L 307.89258 382.10352 L 331.94336 292.41211 C 334.4009 292.42044 336.5625 292.36719 336.5625 292.36719 C 354.69375 291.23395 367.15778 289.53394 373.95703 287.26758 C 376.22346 305.39882 381.32342 320.69683 389.25586 333.16211 C 358.6593 429.48448 337.12928 514.47445 324.66406 588.13281 L 260.07031 588.13281 C 234.00658 557.53623 207.3766 542.23828 180.17969 542.23828 L 180.17969 152.98242 C 180.17969 126.91869 174.51368 114.45276 163.18164 115.58594 C 171.11408 103.12073 182.44611 86.407632 197.17773 65.443359 C 211.90943 44.479025 213.04341 22.664073 200.57812 0 z M 441.94922 45.894531 C 481.61141 45.894531 514.7584 49.577541 541.38867 56.943359 C 568.01903 64.309237 581.33398 85.556201 581.33398 120.68555 C 581.33398 154.68166 569.71897 179.61365 546.48828 195.47852 C 523.25752 211.34338 505.40858 223.80742 492.94336 232.87305 C 472.54566 220.40784 458.94759 202.84382 452.14844 180.17969 C 456.6813 173.38049 458.94727 165.44844 458.94727 156.38281 C 458.94727 140.51803 450.4493 132.58594 433.45117 132.58594 C 419.85272 132.58594 410.78669 139.95 406.25391 154.68164 C 403.98749 139.95001 396.90452 130.60099 385.00586 126.63477 C 373.1072 122.66854 361.4922 119.55349 350.16016 117.28711 C 372.82423 69.692478 403.42028 45.894531 441.94922 45.894531 z M 329.76172 137.68359 C 339.96058 137.68359 352.42656 139.95154 367.1582 144.48438 C 388.68909 147.88397 400.02106 156.94805 401.1543 171.67969 C 409.08663 171.67969 413.05273 173.9476 413.05273 178.48047 C 401.72074 186.41291 396.05469 194.34489 396.05469 202.27734 C 396.05469 212.47611 400.58867 217.57617 409.6543 217.57617 C 416.4535 217.57617 425.51757 211.91017 436.84961 200.57812 C 443.64886 222.10901 462.34686 242.50506 492.94336 261.76953 C 491.81012 281.034 495.77612 299.16594 504.8418 316.16406 C 495.77612 326.36286 479.91215 331.17992 457.24805 330.61328 C 434.58399 330.04665 419.56903 326.36361 412.20312 319.56445 C 404.83732 312.76521 399.45436 300.86523 396.05469 283.86719 C 392.65508 277.06797 388.12309 273.66797 382.45703 273.66797 C 372.25817 273.66797 352.99414 275.36801 324.66406 278.76758 C 318.998 277.63439 315.88069 275.08536 315.31445 271.11914 C 314.74779 267.15292 313.89686 262.33598 312.76367 256.66992 C 326.36211 252.13709 335.42816 246.47113 339.96094 239.67188 C 329.76213 231.7395 321.2641 226.64138 314.46484 224.375 L 314.46484 217.57422 C 325.79683 215.30787 331.46289 211.90982 331.46289 207.37695 C 328.06332 201.71099 324.09722 198.87695 319.56445 198.87695 C 316.16477 201.14343 315.5969 202.84336 317.86328 203.97656 C 318.99657 206.24294 316.16449 207.66032 309.36523 208.22656 C 302.56602 208.7932 299.16602 208.51014 299.16602 207.37695 C 299.16602 205.11057 299.73203 202.8445 300.86523 200.57812 C 316.73009 176.78086 326.36211 155.81488 329.76172 137.68359 z M 433.45117 141.08398 C 444.78326 141.08398 450.44922 145.616 450.44922 154.68164 C 450.44922 162.61408 449.03225 169.41402 446.19922 175.08008 C 443.36618 180.7461 437.98313 187.54607 430.05078 195.47852 C 422.11838 203.41096 416.45241 207.37695 413.05273 207.37695 C 409.65315 207.37695 407.3871 206.52601 406.25391 204.82617 C 405.12061 203.12632 405.68676 200.01138 407.95312 195.47852 L 419.85156 183.58008 L 431.75195 173.38086 C 434.01834 172.24757 433.16738 169.69669 429.20117 165.73047 C 425.23504 161.76421 424.95198 158.08123 428.35156 154.68164 C 431.75119 151.28207 435.15111 151.28207 438.55078 154.68164 C 441.95036 158.08122 442.51637 162.04916 440.25 166.58203 C 437.98357 171.11486 432.31758 179.04687 423.25195 190.37891 L 424.95117 192.07812 C 435.15003 180.74609 441.09899 173.38006 442.79883 169.98047 C 444.49867 166.58088 445.34961 161.4809 445.34961 154.68164 C 445.34961 150.14877 441.38362 147.88281 433.45117 147.88281 C 427.78519 147.88281 424.10208 149.01682 422.40234 151.2832 C 420.70251 153.54959 419.85156 156.38168 419.85156 159.78125 C 419.85156 164.3141 422.6855 168.28012 428.35156 171.67969 L 418.15234 178.48047 C 414.75266 170.54803 413.90368 162.33112 415.60352 153.83203 C 417.30338 145.33297 423.25239 141.08398 433.45117 141.08398 z M 343.04297 145.12109 C 339.00592 145.26274 335.14581 146.18302 331.46289 147.88281 C 328.0633 152.41564 328.0633 155.81564 331.46289 158.08203 C 342.79499 151.28277 360.359 155.81483 384.15625 171.67969 L 396.05469 171.67969 L 396.05469 164.88086 L 384.15625 164.88086 C 368.858 151.28236 355.1541 144.69616 343.04297 145.12109 z M 345.91016 159.78125 C 339.67755 159.78125 335.71157 160.91527 334.01172 163.18164 C 332.31178 165.44803 331.46289 168.28011 331.46289 171.67969 C 331.46289 178.47891 335.42889 181.87891 343.36133 181.87891 C 351.29377 181.87891 361.49176 179.04692 373.95703 173.38086 C 361.49177 164.31516 352.14276 159.78125 345.91016 159.78125 z M 413.05273 195.47852 C 409.65316 196.61171 407.95312 198.31173 407.95312 200.57812 C 407.95312 201.71141 409.65316 202.84336 413.05273 203.97656 C 416.4524 203.97656 418.15234 202.84449 418.15234 200.57812 C 418.15234 198.31164 416.4524 196.61171 413.05273 195.47852 z M 302.56641 231.17383 L 324.66406 234.57422 L 324.66406 236.27344 L 311.06445 234.57422 C 304.2653 235.70731 301.43322 234.57341 302.56641 231.17383 z M 331.46289 241.37305 C 331.46296 242.50624 323.53084 244.77229 307.66602 248.17188 C 305.39954 249.30506 304.26562 249.30506 304.26562 248.17188 C 304.26562 244.77218 305.96566 243.07227 309.36523 243.07227 L 317.86328 243.07227 L 331.46289 241.37305 z M 508.24219 353.56055 C 542.23828 427.21883 537.70632 558.67088 494.64453 747.91602 C 532.04029 820.44114 534.87239 882.19913 503.14258 933.19336 C 489.54413 1013.6508 485.01205 1138.871 489.54492 1308.8516 C 487.27894 1499.2302 486.71056 1598.3859 487.84375 1606.3184 C 504.84178 1656.1792 503.14185 1682.8096 482.74414 1686.209 L 287.26758 1686.209 C 343.92776 1662.4117 389.82182 1627.8475 424.95117 1582.5195 C 435.15007 1534.9249 433.16702 1465.5179 419.00195 1374.2949 C 404.83693 1283.072 385.28994 1143.1199 360.35938 954.44141 C 335.42889 765.76283 354.69285 567.16984 418.15234 358.66016 C 448.74884 367.72577 478.77884 366.02575 508.24219 353.56055 z M 101.98828 552.4375 C 117.85317 553.5711 130.88512 554.13672 141.08398 554.13672 L 141.08398 562.63672 L 120.68555 562.63672 C 110.48673 561.50347 104.25467 558.10356 101.98828 552.4375 z M 186.97852 559.23633 C 202.8434 561.50275 224.37536 579.63469 251.57227 613.63086 L 319.56445 613.63086 L 317.86328 630.62891 L 288.9668 630.62891 C 256.10388 638.56166 222.6739 641.39334 188.67773 639.12695 C 192.07741 632.32778 190.94536 627.79568 185.2793 625.5293 C 192.07847 624.39611 196.61057 622.13004 198.87695 618.73047 C 201.14334 615.33082 199.44339 611.93084 193.77734 608.53125 C 201.70981 608.53125 206.24375 605.13128 207.37695 598.33203 C 207.37695 593.7992 203.97699 590.39919 197.17773 588.13281 C 202.8434 584.73311 204.82679 581.05021 203.12695 577.08398 C 201.42715 573.11776 196.04417 570.00271 186.97852 567.73633 L 186.97852 559.23633 z M 117.28711 571.13477 L 188.67773 576.23438 C 193.2106 578.50077 193.2106 581.3348 188.67773 584.73438 L 117.28711 579.63477 C 115.02072 576.23507 115.02072 573.40115 117.28711 571.13477 z M 117.28711 586.43359 L 193.77734 594.93164 C 198.3101 597.198 198.3101 599.46603 193.77734 601.73242 L 117.28711 594.93164 C 115.02072 591.53207 115.02072 588.69998 117.28711 586.43359 z M 117.28711 603.43164 L 186.97852 610.23047 C 190.37819 613.63005 189.81207 616.4641 185.2793 618.73047 L 117.28711 613.63086 C 115.02072 609.09803 115.02072 605.69803 117.28711 603.43164 z M 118.98633 623.83008 L 168.28125 627.22852 C 171.68092 630.6281 171.68092 633.46214 168.28125 635.72852 L 118.98633 634.02734 C 116.71994 629.49451 116.71994 626.09647 118.98633 623.83008 z M 287.26758 654.42578 L 312.76367 654.42578 L 307.66602 707.11914 L 260.07031 707.11914 C 228.34055 678.789 201.71057 664.625 180.17969 664.625 L 180.17969 657.82617 C 210.77619 662.35885 246.47215 661.22494 287.26758 654.42578 z M 155.63867 690.22852 C 192.82198 688.74116 224.80033 702.87055 251.57227 732.61719 L 304.26562 732.61719 L 304.26562 747.91602 L 266.86914 747.91602 C 209.07572 760.38129 170.54767 763.77934 151.2832 758.11328 C 144.48401 750.18084 140.80062 740.54883 140.23438 729.2168 C 139.66813 717.88477 139.38477 705.42072 139.38477 691.82227 C 144.90914 690.97236 150.32677 690.44099 155.63867 690.22852 z M 84.990234 1735.502 L 540.53906 1735.502 L 540.53906 1779.6973 L 56.09375 1779.6973 L 84.990234 1735.502 z " />
</svg>
