<?xml version="1.0" encoding="UTF-8" standalone="no"?>
<svg
   xmlns:dc="http://purl.org/dc/elements/1.1/"
   xmlns:cc="http://web.resource.org/cc/"
   xmlns:rdf="http://www.w3.org/1999/02/22-rdf-syntax-ns#"
   xmlns:svg="http://www.w3.org/2000/svg"
   xmlns="http://www.w3.org/2000/svg"
   xmlns:sodipodi="http://sodipodi.sourceforge.net/DTD/sodipodi-0.dtd"
   xmlns:inkscape="http://www.inkscape.org/namespaces/inkscape"
   width="9.3554688"
   height="18"
   id="svg2"
   sodipodi:version="0.32"
   inkscape:version="0.45.1"
   sodipodi:docname="C191.svg"
   sodipodi:docbase="/Users/rosmord/Travail/Gsigns/SThomasDetail/ManuelDeCodage/C"
   inkscape:output_extension="org.inkscape.output.svg.inkscape"
   version="1.0">
  <metadata
     id="metadata9">
    <rdf:RDF>
      <cc:Work
         rdf:about="">
        <dc:format>image/svg+xml</dc:format>
        <dc:type
           rdf:resource="http://purl.org/dc/dcmitype/StillImage" />
      </cc:Work>
    </rdf:RDF>
  </metadata>
  <defs
     id="defs7" />
  <sodipodi:namedview
     inkscape:window-height="581"
     inkscape:window-width="701"
     inkscape:pageshadow="2"
     inkscape:pageopacity="0.0"
     guidetolerance="10.0"
     gridtolerance="10.0"
     objecttolerance="10.0"
     borderopacity="1.0"
     bordercolor="#666666"
     pagecolor="#ffffff"
     id="base"
     height="18px"
     width="9.3554688px"
     inkscape:zoom="19.154394"
     inkscape:cx="4.6763823"
     inkscape:cy="7.9931742"
     inkscape:window-x="0"
     inkscape:window-y="22"
     inkscape:current-layer="svg2" />
  <path
     style="fill:#000000;stroke:none"
     d="M 6.1240716,11.94077 L 6.1240716,9.4638474 C 6.0763467,9.6261117 5.894992,9.7215618 5.5800077,9.7501968 C 4.7018696,10.876505 4.4680175,11.554198 4.8784517,11.783277 C 4.9548115,13.01458 4.8211818,14.021575 4.4775626,14.804264 C 4.3916577,15.205153 4.2007582,15.305375 3.9048638,15.10493 L 3.3607999,14.417692 L 1.9147355,12.241436 C 1.5138464,12.174621 1.2895393,12.274844 1.2418144,12.542103 L 2.3156247,15.792169 C 2.5637941,16.383957 2.671175,16.80155 2.6377673,17.044947 C 2.6043601,17.288344 2.5399317,17.467313 2.4444819,17.581853 L 6.6681354,17.581853 C 6.3149711,17.209598 6.2147488,16.737122 6.3674685,16.164423 C 6.5201883,15.591724 6.646659,14.887782 6.746881,14.052597 C 6.8471036,13.217411 6.9019874,12.513468 6.9115324,11.94077 L 6.1240716,11.94077 z M 5.3652457,7.2446396 L 5.3652457,7.316227 C 5.2507059,7.297137 5.1242348,7.2661156 4.9858323,7.2231629 C 4.8474304,7.1802108 4.7233456,7.1825973 4.6135781,7.2303221 C 4.5038111,7.278047 4.4441552,7.3329305 4.4346102,7.3949726 C 4.4250651,7.4570153 4.3916577,7.530989 4.3343879,7.6168938 C 4.1530332,7.8364283 4.064742,7.967672 4.0695142,8.0106247 C 4.074287,8.0535768 4.102922,8.0893703 4.155419,8.1180053 C 4.2079167,8.1466402 4.2341656,8.1609577 4.2341656,8.1609577 L 4.1625782,8.2611799 L 4.2914355,8.2468625 C 4.520515,8.3232223 4.6350547,8.3804922 4.6350547,8.4186721 L 4.3343879,8.5761643 C 4.3248429,8.7766089 4.4155202,8.8577412 4.6064198,8.8195613 L 5.1791186,8.8195613 C 5.2172985,9.0486408 5.3032033,9.2347679 5.436833,9.3779426 C 5.6945475,9.4543021 5.923627,9.3493076 6.1240716,9.0629582 L 6.1240716,8.0893703 C 6.1336166,7.9080157 6.0715741,7.8555183 5.9379445,7.9318781 C 5.8234047,8.1609577 5.7279549,8.2754974 5.6515951,8.2754974 C 5.5275103,8.2754974 5.4702404,8.2039101 5.4797854,8.0607354 L 5.4797854,7.9175607 L 5.5656902,7.9175607 L 5.5656902,8.0607354 C 5.5656902,8.1370952 5.5943252,8.1752751 5.6515951,8.1752751 C 5.7279549,8.1752751 5.8186322,8.0321004 5.923627,7.745751 C 6.0286217,7.4594017 5.9999868,7.316227 5.8377222,7.316227 C 5.7231824,7.316227 5.6325051,7.4164492 5.5656902,7.6168938 L 5.4797854,7.6168938 C 5.4511505,7.1300999 5.1504836,6.9105653 4.5777848,6.9582902 C 4.53006,7.0251051 4.49188,7.0919199 4.4632451,7.1587348 C 4.6064198,7.063285 4.7543669,7.044195 4.9070866,7.1014649 C 5.0598064,7.1587348 5.212526,7.2064597 5.3652457,7.2446396 z M 4.1912132,8.017783 C 4.3821127,8.017783 4.4393826,8.0559629 4.3630228,8.1323227 C 4.248483,8.1323227 4.1912132,8.0941428 4.1912132,8.017783 z M 4.4632451,7.5453065 L 4.4632451,7.5023541 C 4.51097,7.4737191 4.551536,7.4355392 4.5849431,7.3878143 C 4.6183509,7.3400894 4.6803932,7.3090684 4.7710702,7.2947512 C 4.8617479,7.2804335 4.9739015,7.3114545 5.1075312,7.3878143 L 5.3652457,7.3878143 L 5.3652457,7.4594017 L 5.1075312,7.4594017 C 5.0025365,7.5357615 4.9047003,7.5811 4.8140226,7.5954172 C 4.7233456,7.6097349 4.6565307,7.6073488 4.6135781,7.5882589 C 4.5706259,7.569169 4.520515,7.5548515 4.4632451,7.5453065 z M 6.0238493,5.2258764 C 6.3101987,5.2258764 6.5559817,5.1304266 6.7611985,4.939527 C 6.9664159,4.7486274 7.0642521,4.5004579 7.0547071,4.1950186 C 7.0547071,3.9277591 6.9640298,3.6915211 6.7826752,3.4863043 C 6.6013205,3.2810869 6.3483786,3.1784782 6.0238493,3.1784782 C 5.689775,3.1784782 5.4320606,3.2810869 5.2507059,3.4863043 C 5.0693513,3.6915211 4.978674,3.9277591 4.978674,4.1950186 C 4.969129,4.5004579 5.0669649,4.7486274 5.2721817,4.939527 C 5.4773991,5.1304266 5.7279549,5.2258764 6.0238493,5.2258764 z M 6.7683577,5.9703848 L 6.8256276,5.641083 L 5.193436,5.641083 L 5.2650234,5.9703848 L 6.7683577,5.9703848 z M 7.0976595,5.4692734 C 7.1549294,5.5265433 7.1549294,5.5838131 7.0976595,5.641083 L 7.0117547,5.641083 L 6.9258499,5.9703848 L 6.7683577,5.9703848 L 6.9258499,5.9703848 L 5.0932138,5.9703848 L 5.2650234,5.9703848 L 5.0932138,5.9703848 L 5.0216264,5.641083 L 4.9214041,5.641083 C 4.8450443,5.5838131 4.8450443,5.5265433 4.9214041,5.4692734 L 5.1218487,5.4692734 C 4.988219,5.4120035 4.8378854,5.3046227 4.6708479,5.1471308 C 4.5038111,4.9896383 4.3677953,4.674654 4.2628005,4.2021778 C 4.1578058,3.729701 4.0122446,3.3598329 3.8261172,3.0925734 C 3.6399904,2.825314 3.5182921,2.6248694 3.4610222,2.4912397 C 3.6041969,2.5389646 3.8046415,2.7060018 4.0623559,2.9923511 C 4.3200704,3.2787005 4.5539224,3.8466269 4.763912,4.69613 C 4.7066421,4.5529553 4.6780071,4.3954632 4.6780071,4.2236535 C 4.6780071,3.8704892 4.794933,3.5626636 5.0287847,3.3001763 C 5.262637,3.0376896 5.5943252,2.9112188 6.0238493,2.9207638 C 6.4438284,2.9112188 6.7683577,3.0376896 6.9974372,3.3001763 C 7.2265167,3.5626636 7.3410565,3.8704892 7.3410565,4.2236535 C 7.3410565,4.3954632 7.317194,4.5529553 7.2694691,4.69613 C 7.4794587,3.8466269 7.7133107,3.2787005 7.9710251,2.9923511 C 8.2287396,2.7060018 8.4291842,2.5389646 8.5723589,2.4912397 C 8.515089,2.6248694 8.3933903,2.825314 8.2072629,3.0925734 C 8.0211361,3.3598329 7.8779614,3.729701 7.7777388,4.2021778 C 7.6775168,4.674654 7.5438871,4.9896383 7.3768497,5.1471308 C 7.2098129,5.3046227 7.0547071,5.4120035 6.9115324,5.4692734 L 7.0976595,5.4692734 z M 0.96978251,12.255754 C 1.0652323,12.055309 1.2895393,11.955087 1.6427036,11.955087 C 1.3658992,11.792823 1.1129572,11.747484 0.88387769,11.819072 C 0.65479818,11.890659 0.59275581,11.94077 0.69775059,11.969405 C 0.80274536,11.99804 0.89342268,12.09349 0.96978251,12.255754 z M 0.75502047,11.582833 L 0.75502047,8.0750528 C 0.58321083,7.7027986 0.4114012,7.4689467 0.23959156,7.3734968 C 0.14414176,7.4116768 0.072554417,7.4212217 0.024829518,7.4021318 C -0.02289538,7.3830418 -0.0085779105,7.3305444 0.067781927,7.2446396 C 0.25868152,7.063285 0.55457589,6.9726077 0.95546504,6.9726077 C 1.3563542,6.9726077 1.647476,7.063285 1.8288307,7.2446396 C 1.9147355,7.3305444 1.9362115,7.3830418 1.8932588,7.4021318 C 1.8503067,7.4212217 1.7763333,7.4116768 1.6713385,7.3734968 C 1.4995289,7.4689467 1.3277193,7.7027986 1.1559096,8.0750528 L 1.1559096,11.511246 C 1.5090739,11.511246 1.8526932,11.649648 2.1867674,11.926452 L 2.17245,11.926452 L 4.0623559,14.675406 C 4.4250651,13.854538 4.5730124,12.942993 4.5061975,11.94077 C 4.248483,11.568515 4.2651866,11.129446 4.5563082,10.623562 C 4.8474304,10.117679 5.0693513,9.7597421 5.222071,9.5497522 C 5.1170762,9.4733927 5.0216264,9.3111274 4.9357216,9.0629582 L 4.49188,9.0629582 C 4.2437106,9.0629582 4.1196258,8.9150111 4.1196258,8.6191167 C 4.0146311,8.6000268 3.9812236,8.5332119 4.0194035,8.4186721 C 3.9430437,8.3518572 3.9430437,8.2993599 4.0194035,8.2611799 L 4.0623559,8.1895926 C 3.9955411,8.1705027 3.9382712,8.1323227 3.8905463,8.0750528 C 3.8428214,8.027328 3.9573612,7.8412009 4.2341656,7.5166715 C 4.2341656,7.297137 4.2818904,7.0919199 4.3773403,6.9010203 C 4.2055306,6.8914753 4.1076944,6.819888 4.0838317,6.6862583 C 4.0599696,6.5526286 4.0814459,6.3999089 4.1482608,6.2280993 C 4.043266,6.2280993 3.9907686,6.1946919 3.9907686,6.127877 C 3.9812236,6.0419722 4.071901,5.9894747 4.2628005,5.9703848 C 4.501425,5.9990198 4.5586949,6.2042368 4.4346102,6.586036 C 4.5682398,6.2996866 4.7877744,6.0944696 5.0932138,5.9703848 L 6.9544848,5.9703848 C 7.1931093,6.0658346 7.4007124,6.2853691 7.5772943,6.6289884 C 7.7538767,6.9726077 7.8636439,7.4116768 7.9065961,7.9461956 C 7.9495487,8.4807145 7.9710251,9.0963656 7.9710251,9.7931492 L 7.9710251,11.94077 L 7.2694691,11.94077 L 7.2694691,12.184167 C 7.1358394,14.131342 6.9783473,15.384122 6.7969926,15.942503 C 6.615638,16.500884 6.7779027,17.080741 7.2837866,17.682075 C 7.4746862,17.86343 7.4746862,17.997059 7.2837866,18.082964 L 1.5854337,18.082964 C 1.4708939,17.949335 1.5377088,17.80616 1.7858783,17.65344 C 2.0340477,17.50072 2.17245,17.319366 2.2010849,17.109376 C 2.2297198,16.908932 1.7811058,15.419915 0.85524275,12.642326 C 0.70252308,12.336887 0.53787203,12.16269 0.3612896,12.119738 C 0.18470778,12.076785 0.13459679,11.983722 0.21095662,11.840547 C 0.28731646,11.726008 0.46867108,11.640103 0.75502047,11.582833 z M 0.95546504,7.9748306 L 0.96978251,7.9748306 C 1.1320471,7.6693912 1.3134018,7.4259943 1.5138464,7.2446396 C 1.3611266,7.1873697 1.1797721,7.1587348 0.96978251,7.1587348 C 0.75979295,7.1587348 0.57366585,7.1873697 0.4114012,7.2446396 C 0.61184577,7.4259943 0.79320039,7.6693912 0.95546504,7.9748306 z M 7.5987709,11.554198 L 7.5987709,8.017783 C 7.4555962,7.03465 7.1549294,6.4667238 6.6967703,6.3140041 L 5.222071,6.3140041 C 5.0502613,6.371274 4.9357216,6.4953587 4.8784517,6.6862583 C 5.3747907,6.7148932 5.6539812,6.7793217 5.7160232,6.8795437 C 5.7780659,6.9797662 5.923627,7.0418089 6.1527065,7.0656717 C 6.381786,7.0895338 6.4963258,7.3114545 6.4963258,7.7314336 L 6.4963258,11.554198 L 7.5987709,11.554198 z M 6.6538179,3.078256 L 5.465468,3.078256 L 5.465468,0.75882589 C 5.1123037,0.67292107 4.8307268,0.4199791 4.6207373,0 L 7.541501,0 C 7.3315115,0.4199791 7.0356172,0.66814858 6.6538179,0.74450842 L 6.6538179,3.078256 z M 7.2265167,0.17180964 L 4.9357216,0.17180964 C 5.0788963,0.36270923 5.2697958,0.49156645 5.5084204,0.55838131 L 5.6515951,0.60133372 C 5.7565898,0.62996866 5.8902196,0.64428613 6.0524842,0.64428613 C 6.2147488,0.64428613 6.372241,0.62996866 6.5249607,0.60133372 L 6.6538179,0.55838131 C 6.8924425,0.50111144 7.083342,0.37225421 7.2265167,0.17180964 z M 6.4390559,0.77314336 C 6.3245161,0.8017783 6.1908864,0.81609577 6.0381667,0.81609577 C 5.885447,0.81609577 5.7661348,0.8017783 5.68023,0.77314336 L 5.68023,2.9207638 L 5.894992,2.9207638 L 5.894992,1.9042235 L 6.4390559,1.9042235 L 6.4390559,0.77314336 z M 6.0954366,2.0760331 L 6.0954366,2.9207638 L 6.4390559,2.9207638 L 6.4390559,2.0760331 L 6.0954366,2.0760331 z "
     id="path4" />
</svg>
