<?xml version="1.0" encoding="UTF-8" standalone="no"?>
<svg
   width="823.09998"
   height="1882.6"
   version="1.1"
   id="svg1"
   sodipodi:docname="C19B.svg"
   inkscape:version="1.4 (e7c3feb1, 2024-10-09)"
   xmlns:inkscape="http://www.inkscape.org/namespaces/inkscape"
   xmlns:sodipodi="http://sodipodi.sourceforge.net/DTD/sodipodi-0.dtd"
   xmlns="http://www.w3.org/2000/svg"
   xmlns:svg="http://www.w3.org/2000/svg"
   xmlns:rdf="http://www.w3.org/1999/02/22-rdf-syntax-ns#"
   xmlns:cc="http://creativecommons.org/ns#"
   xmlns:dc="http://purl.org/dc/elements/1.1/">
  <title
     id="title1">C19B</title>
  <defs
     id="defs1" />
  <sodipodi:namedview
     id="namedview1"
     pagecolor="#ffffff"
     bordercolor="#000000"
     borderopacity="0.25"
     inkscape:showpageshadow="2"
     inkscape:pageopacity="0.0"
     inkscape:pagecheckerboard="0"
     inkscape:deskcolor="#d1d1d1"
     inkscape:zoom="0.64272815"
     inkscape:cx="410.74909"
     inkscape:cy="444.20024"
     inkscape:window-width="1200"
     inkscape:window-height="1186"
     inkscape:window-x="2240"
     inkscape:window-y="25"
     inkscape:window-maximized="0"
     inkscape:current-layer="svg1" />
  <path
     id="path1"
     style="fill:#000000;stroke:none;stroke-width:100.222"
     d="M 674.75195 0.18164062 C 610.79217 -1.5912296 569.26633 9.5234251 550.17383 33.525391 C 528.35384 60.95621 513.70179 89.009787 506.2207 117.6875 C 503.72697 128.90922 501.23395 138.57318 498.74023 146.67773 C 496.24651 154.78228 490.32404 165.69081 480.97266 179.40625 C 471.62123 193.12163 466.94531 201.84929 466.94531 205.58984 C 469.43903 213.07101 475.67361 216.8125 485.64844 216.8125 C 485.64844 221.79994 481.90884 224.91723 474.42773 226.16406 C 474.42773 233.64522 476.29656 238.63328 480.03711 241.12695 C 476.29656 252.34867 478.16733 259.2055 485.64844 261.69922 L 489.38867 286.01367 C 489.19958 288.28264 490.08176 290.05718 491.38086 291.61719 L 450.43164 390.32031 L 495.43164 390.11328 L 519.82031 299.1582 C 522.64466 299.17936 524.92383 299.10547 524.92383 299.10547 C 544.87348 297.85865 559.21335 295.98786 567.94141 293.49414 C 569.18824 313.44385 574.79861 330.27682 584.77344 343.99219 C 551.10834 449.97498 527.41856 543.48953 513.70312 624.53516 L 442.63281 624.53516 C 413.95516 590.87007 383.40653 574.03711 350.98828 574.03711 L 309.8418 233.64453 L 229.41992 340.25195 L 12.466797 641.36719 C -0.001817925 662.56374 -3.1190394 675.0329 3.1152344 678.77344 C 19.3244 687.50144 36.157288 682.51338 53.613281 663.81055 C 49.872665 671.29166 47.377688 679.70716 46.130859 689.05859 C 44.884031 698.40997 48.001319 704.95665 55.482422 708.69727 C 61.716695 711.19093 68.263373 709.94441 75.121094 704.95703 C 81.978816 699.96958 87.901293 693.73501 92.888672 686.25391 C 85.407571 711.191 90.395572 728.02395 107.85156 736.75195 C 112.83901 740.49249 121.56661 731.14064 134.03516 708.69727 L 276.17578 368.30469 C 281.16323 354.58925 284.28044 345.86164 285.52734 342.12109 C 285.52734 345.86164 286.15162 354.58925 287.39844 368.30469 L 311.71289 574.03711 L 264.95508 574.03711 C 253.73335 577.77766 249.36955 583.38805 251.86328 590.86914 C 254.357 597.10348 259.96731 601.46728 268.69531 603.96094 C 262.46103 608.94838 263.0853 613.31217 270.56641 617.05273 C 261.83842 624.5339 261.83842 631.39267 270.56641 637.62695 C 264.33214 645.10806 264.33214 651.96495 270.56641 658.19922 C 266.82586 668.17412 268.69468 677.52592 276.17578 686.25391 C 287.39749 693.73501 303.60814 697.47461 324.80469 697.47461 L 326.67383 708.69727 C 302.98356 709.9441 282.41107 709.9441 264.95508 708.69727 C 256.22708 713.68465 253.1098 719.29502 255.60352 725.5293 C 258.09724 731.76357 263.0853 737.37389 270.56641 742.36133 C 265.57904 747.34879 264.33252 752.96104 266.82617 759.19531 C 269.3199 765.42959 269.63004 771.0399 267.75977 776.02734 C 265.8895 781.01479 267.13796 785.37858 271.50195 789.11914 C 275.86594 792.85968 276.80036 796.9114 274.30664 801.27539 C 271.81292 805.6394 272.74732 809.38088 277.11133 812.49805 C 281.47532 815.61515 283.6582 820.91336 283.6582 828.39453 C 283.6582 835.87562 293.01006 841.48796 311.71289 845.22852 L 311.71289 847.09766 L 343.50781 847.09766 L 349.11719 891.98438 L 388.39453 886.375 L 384.65234 843.35742 L 487.51953 830.26562 C 491.26015 871.41188 499.05138 941.23674 510.89648 1039.7383 C 522.74165 1138.2399 538.64019 1255.1321 558.58984 1390.416 C 578.53955 1525.6999 586.02059 1616.4093 581.0332 1662.543 C 561.08349 1721.1452 495.00027 1772.8885 382.7832 1817.7754 C 335.40267 1817.7754 311.08864 1840.8431 309.8418 1886.9766 L 736.26562 1886.9766 C 769.93071 1867.0269 772.4257 1819.023 743.74805 1742.9648 L 743.74805 1159.4355 C 743.74805 1083.3772 750.60493 1037.2443 764.32031 1021.0352 C 789.25746 948.71752 785.51786 875.15315 753.09961 800.3418 C 789.25842 592.11692 788.63423 438.12938 751.22852 338.38086 C 731.27887 310.95005 723.79777 286.01376 728.78516 263.57031 C 727.53832 252.34866 731.90212 243.61905 741.87695 237.38477 C 797.98549 212.44762 825.72892 168.49744 825.10547 105.53125 C 824.48202 42.564995 783.95929 7.9647428 703.53711 1.7304688 C 693.48434 0.95118452 683.88907 0.43490779 674.75195 0.18164062 z M 642.75195 27.914062 C 686.39193 27.914062 722.55087 31.965763 751.22852 40.070312 C 779.90623 48.174861 794.24609 71.554494 794.24609 110.20703 C 794.24609 147.61274 781.46484 175.04206 755.9043 192.49805 C 730.34375 209.95398 710.70567 223.66964 696.99023 233.64453 C 675.79368 219.92909 661.45571 200.60311 653.97461 175.66602 C 658.96199 168.18485 661.45508 159.45725 661.45508 149.48242 C 661.45508 132.02643 651.4809 123.29883 631.53125 123.29883 C 617.8158 123.29883 608.46393 131.40216 603.47656 147.61133 L 601.60547 147.61133 C 599.11175 131.40216 591.31856 121.11595 578.22656 116.75195 C 565.13457 112.38795 552.97953 108.95856 541.75781 106.46484 C 566.69498 54.096929 600.35887 27.914062 642.75195 27.914062 z M 517.44336 128.91016 C 528.66508 128.91016 543.00299 131.40319 560.45898 136.39062 C 582.90243 140.13118 595.37157 150.10528 597.86523 166.31445 C 605.34639 166.31445 609.08789 168.80949 609.08789 173.79688 C 597.86617 182.52487 592.25391 191.25247 592.25391 199.98047 C 592.25391 211.20219 597.24197 216.8125 607.2168 216.8125 C 614.69798 216.8125 624.04977 210.57792 635.27148 198.10938 C 643.99948 221.79964 665.19624 244.2429 698.86133 265.43945 C 697.61444 286.636 701.97825 306.58625 711.95312 325.28906 C 701.97824 336.51072 684.52107 341.80894 659.58398 341.18555 C 634.64689 340.56218 618.12611 336.51048 610.02148 329.0293 C 601.91694 321.54821 595.99447 308.45681 592.25391 289.75391 C 587.26647 282.27282 582.28036 278.53125 577.29297 278.53125 C 564.82436 278.53125 543.62767 280.40204 513.70312 284.14258 C 506.22201 282.89576 502.16835 280.09057 501.54492 275.72656 C 500.92147 271.36257 499.98707 266.06246 498.74023 259.82812 C 513.70251 254.84074 524.30089 248.60811 530.53516 241.12695 C 518.06661 232.39894 508.09249 226.78662 500.61133 224.29297 L 500.61133 216.8125 C 513.07988 214.31878 519.31445 210.57729 519.31445 205.58984 C 516.82078 199.35557 513.07924 196.24023 508.0918 196.24023 C 504.35124 198.73396 503.10472 200.60272 504.35156 201.84961 C 506.84528 204.34333 504.0401 205.90201 495.93555 206.52539 C 487.831 207.14891 483.77734 206.83674 483.77734 205.58984 C 483.77734 203.09619 485.02587 200.6031 487.51953 198.10938 C 504.97552 171.92539 514.94964 148.85987 517.44336 128.91016 z M 631.53125 132.65039 C 645.24663 132.65039 652.10352 137.63644 652.10352 147.61133 C 652.10352 156.33926 650.23275 163.82035 646.49219 170.05469 C 642.75165 176.28896 636.51903 183.77005 627.79102 192.49805 C 619.06302 201.22598 613.13865 205.58984 610.02148 205.58984 C 606.90438 205.58984 604.41129 204.65543 602.54102 202.78516 C 600.67073 200.91489 601.60514 197.48543 605.3457 192.49805 L 616.56836 179.40625 L 631.53125 168.18555 C 632.77807 166.93872 631.21946 164.13353 626.85547 159.76953 C 622.49148 155.40553 622.1793 151.35188 625.91992 147.61133 C 629.66047 143.87071 633.40008 143.87071 637.14062 147.61133 C 640.88118 151.35188 641.81754 155.71574 639.94727 160.70312 C 638.077 165.69058 631.53031 174.42012 620.30859 186.88867 L 622.17969 188.75781 C 634.64824 176.28926 641.81723 168.18592 643.6875 164.44531 C 645.55777 160.70476 646.49219 155.09243 646.49219 147.61133 C 646.49219 142.62388 641.50607 140.13086 631.53125 140.13086 C 626.5438 140.13086 623.11441 141.37737 621.24414 143.87109 C 619.37387 146.36482 618.43945 149.48211 618.43945 153.22266 C 618.43945 158.21004 620.93248 162.57383 625.91992 166.31445 L 616.56836 173.79688 C 612.82774 165.06888 611.89338 156.02911 613.76367 146.67773 C 615.634 137.32629 621.55642 132.65039 631.53125 132.65039 z M 532.75586 137.0918 C 528.15807 137.24766 523.67845 138.26057 519.31445 140.13086 C 515.57389 145.11831 515.57389 148.85987 519.31445 151.35352 C 533.02989 143.87242 552.35582 148.85846 577.29297 166.31445 L 592.25391 166.31445 L 592.25391 158.83398 L 577.29297 158.83398 C 561.39551 143.8717 546.54922 136.62421 532.75586 137.0918 z M 535.21094 153.22266 C 528.35322 153.22266 524.30158 154.46916 523.05469 156.96289 C 521.80786 159.45654 521.18359 162.57383 521.18359 166.31445 C 521.18359 173.79555 524.92516 177.53711 532.40625 177.53711 C 541.13425 177.53711 552.97907 174.41982 567.94141 168.18555 C 552.97907 158.21072 542.06859 153.22266 535.21094 153.22266 z M 610.95703 192.49805 C 607.21648 193.74488 605.3457 195.61566 605.3457 198.10938 C 605.3457 199.3562 606.59417 200.60272 609.08789 201.84961 C 612.82844 201.84961 615.32146 200.6031 616.56836 198.10938 C 615.32146 195.61565 613.45075 193.74488 610.95703 192.49805 z M 487.51953 231.77539 L 513.70312 235.51562 L 513.70312 237.38477 L 496.87109 235.51562 C 490.63681 236.76252 487.51953 235.51601 487.51953 231.77539 z M 519.31445 242.99609 C 519.31445 244.24292 510.58484 246.73798 493.12891 250.47852 C 490.63519 251.72542 490.01295 251.72542 491.25977 250.47852 C 490.01295 246.73798 491.88371 244.86719 496.87109 244.86719 L 506.2207 244.86719 L 519.31445 242.99609 z M 249.99219 358.95508 L 119.07227 671.29102 L 51.742188 633.88672 L 249.99219 358.95508 z M 713.82227 366.43555 C 752.47481 447.48124 748.11101 592.11692 700.73047 800.3418 C 741.87673 880.14061 744.99401 948.09266 710.08203 1004.2012 C 697.61348 1092.728 693.24968 1230.5069 696.99023 1417.5352 C 695.7434 1627.0071 695.7434 1736.1061 696.99023 1744.834 C 713.19939 1799.696 710.08212 1828.998 687.63867 1832.7383 L 472.55664 1832.7383 C 534.89945 1806.5543 585.3963 1768.5246 624.04883 1718.6504 C 635.27056 1666.2825 632.77747 1589.9129 616.56836 1489.541 C 600.35919 1389.1691 578.85041 1235.1816 552.04297 1027.5801 C 525.2356 819.97849 546.1202 601.46831 614.69727 372.04688 C 648.36236 382.02169 681.404 380.15098 713.82227 366.43555 z M 266.82617 585.25781 C 285.52906 586.50471 300.49122 587.12891 311.71289 587.12891 L 311.71289 596.48047 L 289.26953 596.48047 C 278.04788 595.23358 270.56679 591.49209 266.82617 585.25781 z M 362.20898 592.74023 C 378.41807 595.23396 402.10988 615.18224 433.28125 652.58789 L 508.0918 652.58789 L 504.35156 671.29102 L 472.55664 671.29102 C 437.64473 680.01901 400.86152 683.1363 362.20898 680.64258 C 367.19637 673.16147 366.57413 668.17536 360.33984 665.68164 C 366.57413 664.43481 371.25002 661.93983 374.36719 658.19922 C 377.48428 654.45867 375.92567 650.71908 369.69141 646.97852 C 377.17257 646.97852 381.53637 643.23703 382.7832 635.75586 C 382.7832 630.76848 379.04166 627.02888 371.56055 624.53516 C 377.79483 620.79461 380.28987 616.74096 379.04297 612.37695 C 377.79615 608.01296 372.18381 604.58552 362.20898 602.0918 L 362.20898 592.74023 z M 285.52734 605.83203 L 364.08008 611.44336 C 367.82064 613.93709 367.82064 617.05241 364.08008 620.79297 L 283.6582 615.18359 C 282.41137 611.44304 283.03361 608.32575 285.52734 605.83203 z M 285.52734 622.66406 L 369.69141 632.01562 C 373.43195 634.50929 373.43195 637.00236 369.69141 639.49609 L 283.6582 632.01562 C 282.41137 628.275 283.03361 625.15778 285.52734 622.66406 z M 285.52734 641.36719 L 362.20898 648.84766 C 365.94953 652.58826 365.32729 655.70555 360.33984 658.19922 L 285.52734 652.58789 C 283.03361 647.60043 283.03361 643.86084 285.52734 641.36719 z M 287.39844 663.81055 L 339.76562 667.55078 C 344.753 671.2914 344.75299 674.40862 339.76562 676.90234 L 287.39844 675.03125 C 283.65789 670.04381 283.65789 666.30422 287.39844 663.81055 z M 472.55664 697.47461 L 500.61133 697.47461 L 493.12891 755.45508 L 440.76172 755.45508 C 405.84974 724.28371 381.53569 708.69727 367.82031 708.69727 L 367.82031 701.2168 C 392.7574 706.20425 427.66983 704.95578 472.55664 697.47461 z M 326.29492 736.86914 C 368.16197 735.23267 403.8243 750.77782 433.28125 783.50781 L 491.25977 783.50781 L 489.38867 800.3418 L 448.24219 800.3418 C 384.6525 814.05725 342.88324 817.79677 322.93359 811.5625 C 315.45243 802.8345 311.08864 792.23613 309.8418 779.76758 C 308.59498 767.29903 307.9707 753.58344 307.9707 738.62109 C 314.20498 737.68596 320.31392 737.10292 326.29492 736.86914 z " />
  <metadata
     id="metadata1">
    <rdf:RDF>
      <cc:Work
         rdf:about="">
        <dc:title>C19B</dc:title>
        <dc:creator>
          <cc:Agent>
            <dc:title>S. J. P Thomas</dc:title>
          </cc:Agent>
        </dc:creator>
        <dc:description>Beard modified by S. Rosmorduc

</dc:description>
      </cc:Work>
    </rdf:RDF>
  </metadata>
</svg>
