<?xml version="1.0" encoding="UTF-8" standalone="no"?>
<svg
   width="603.3147"
   height="1804.4731"
   id="svg2"
   sodipodi:version="0.32"
   inkscape:version="1.4 (e7c3feb1, 2024-10-09)"
   sodipodi:docname="C19C.svg"
   inkscape:output_extension="org.inkscape.output.svg.inkscape"
   version="1.0"
   inkscape:export-filename="../travail/barbe1.svg"
   inkscape:export-xdpi="96"
   inkscape:export-ydpi="96"
   xmlns:inkscape="http://www.inkscape.org/namespaces/inkscape"
   xmlns:sodipodi="http://sodipodi.sourceforge.net/DTD/sodipodi-0.dtd"
   xmlns="http://www.w3.org/2000/svg"
   xmlns:svg="http://www.w3.org/2000/svg"
   xmlns:rdf="http://www.w3.org/1999/02/22-rdf-syntax-ns#"
   xmlns:cc="http://creativecommons.org/ns#"
   xmlns:dc="http://purl.org/dc/elements/1.1/">
  <title
     id="title1">C19C</title>
  <metadata
     id="metadata9">
    <rdf:RDF>
      <cc:Work
         rdf:about="">
        <dc:format>image/svg+xml</dc:format>
        <dc:type
           rdf:resource="http://purl.org/dc/dcmitype/StillImage" />
        <dc:title>C19C</dc:title>
        <dc:creator>
          <cc:Agent>
            <dc:title>S. J. P Thomas</dc:title>
          </cc:Agent>
        </dc:creator>
        <dc:description>Ptah. Modified S. Rosmorduc: straight beard; simpler wAs scepter.
</dc:description>
      </cc:Work>
    </rdf:RDF>
  </metadata>
  <defs
     id="defs7" />
  <sodipodi:namedview
     inkscape:window-height="1241"
     inkscape:window-width="1736"
     inkscape:pageshadow="2"
     inkscape:pageopacity="0.0"
     guidetolerance="10.0"
     gridtolerance="10.0"
     objecttolerance="10.0"
     borderopacity="1.0"
     bordercolor="#666666"
     pagecolor="#ffffff"
     id="base"
     height="18px"
     width="6.680788px"
     inkscape:zoom="0.1475"
     inkscape:cx="277.9661"
     inkscape:cy="1783.0508"
     inkscape:window-x="1565"
     inkscape:window-y="96"
     inkscape:current-layer="svg2"
     inkscape:showpageshadow="2"
     inkscape:pagecheckerboard="0"
     inkscape:deskcolor="#d1d1d1"
     inkscape:window-maximized="0" />
  <path
     id="path4"
     style="fill:#000000;stroke:none;stroke-width:105.955"
     d="M 165.86703,0 C 135.48871,42.223111 113.61598,69.492188 100.24947,81.80727 86.883029,94.122351 78.071959,108.19626 73.818979,124.02992 69.566019,139.86359 44.959995,184.13971 0,256.85732 c 29.163216,-3.51859 60.757379,-34.01372 94.781169,-91.48409 4.86059,-8.21006 7.290361,-9.9696 7.290361,-5.27809 V 561.21537 H 56.503029 c -10.936224,3.51859 -15.188962,8.79705 -12.758683,15.83425 2.430279,5.86433 8.505946,9.96913 18.226983,12.31486 -6.07566,4.6915 -6.07566,8.7963 0,12.31485 -7.29079,7.03716 -6.68178,13.48727 1.82417,19.35163 -7.29084,7.03716 -7.29084,13.48929 0,19.35365 -4.8606,9.38289 -3.03764,18.17834 5.4683,26.3884 9.72107,7.03717 20.65634,10.55616 32.807731,10.55616 v 10.55617 c -13.366501,1.17297 -28.556611,1.17297 -45.568501,0 -7.290764,4.69149 -9.720662,9.96787 -7.290378,15.83224 2.430212,5.86428 7.292008,11.14273 14.582848,15.83424 -4.8606,4.69141 -6.07651,9.9699 -3.64624,15.83426 2.43025,5.8644 2.43025,11.14283 0,15.83425 -2.43027,4.6915 -1.51986,8.79631 2.73311,12.31486 4.25265,3.51868 5.46897,7.33057 3.64623,11.4355 -1.82263,4.10499 -0.60674,7.62197 3.64624,10.55415 4.25286,2.93219 6.37934,7.91782 6.37934,14.95491 0,7.03723 8.50552,12.31574 25.517351,15.83426 v 1.75869 768.8133 c -23.087541,5.8644 -35.238841,22.8714 -36.453961,51.0201 0.9362,34.2427 35.581861,57.3041 42.378841,49.1179 6.79697,-8.1862 -12.974331,-32.2979 -13.215241,-49.12 1.21512,-16.42 12.107721,-24.6296 29.119611,-24.6296 17.01188,0 25.36495,8.5184 27.38341,24.6296 2.01847,16.1112 -20.71605,39.7549 -11.48114,49.12 9.23489,9.3651 40.06577,-25.5807 40.64473,-49.12 0.58431,-23.7564 -12.15124,-45.1533 -36.45396,-51.018 V 818.0727 l 131.23513,-15.83426 c 3.64546,38.70454 10.93498,104.38545 21.87112,197.04172 10.93623,92.65624 26.42986,202.61344 46.47955,329.86914 20.04974,127.2558 27.64482,212.5802 22.78425,255.976 -20.65726,55.1247 -85.6686,103.7983 -195.03063,146.0216 -32.98567,0 -58.74374,26.9259 -58.84555,49.566 -0.048,10.6761 33.24886,22.8111 52.6864,23.6159 25.97911,1.0757 137.77346,-4.2103 227.66238,-4.3692 42.30473,-0.074 82.39119,4.3692 105.14862,4.3692 34.07214,0 41.72432,-4.4761 43.53,-8.7049 9.84472,-23.0554 1.04319,-89.7436 -16.57665,-134.8488 v -548.9006 c -1.21511,-71.5448 5.46744,-114.94005 20.04906,-130.18727 23.08753,-68.02612 18.83482,-137.22397 -12.75869,-207.59587 35.23889,-195.86829 35.23889,-340.71833 0,-434.54743 -20.6572,-25.80305 -28.55588,-49.26024 -23.69529,-70.37176 -1.21517,-10.55579 3.03761,-18.76534 12.75868,-24.6297 54.6811,-23.45725 82.02249,-64.80025 82.02249,-124.02993 0,-59.2296 -39.18924,-91.777139 -117.56542,-97.641517 -78.37611,-5.864317 -128.49863,4.104732 -150.37106,29.907795 -21.87238,25.803001 -36.45559,52.193402 -43.74644,79.169242 -2.43027,10.55579 -4.55667,19.64413 -6.37934,27.26774 -1.8227,7.62367 -7.59489,17.8877 -17.31596,30.78916 -9.72109,12.90155 -13.9738,21.1111 -12.75867,24.62971 1.21511,7.03717 6.68384,10.55616 16.40492,10.55616 0,4.6914 -3.03883,7.62261 -9.11454,8.79547 -1.21511,7.03721 0.60773,11.7278 5.46829,14.07354 -4.86055,10.5558 -3.03767,17.00798 5.46831,19.35364 l 1.82417,22.87103 c -0.13206,1.52962 0.36939,2.79405 1.05763,3.97221 l -43.59983,101.43382 48.25345,-0.21428 25.78962,-92.8304 c 2.63522,0.008 4.9531,-0.0465 4.9531,-0.0465 19.44212,-1.1729 32.80728,-2.93241 40.09811,-5.27809 2.43029,18.7658 7.89897,34.5992 16.40492,47.50074 -32.80866,99.69343 -55.89527,187.65785 -69.26171,263.89408 h -69.26381 c -27.9481,-31.66741 -56.5034,-47.50075 -85.66661,-47.50075 V 158.33645 c 0,-26.9759 -6.07566,-39.87811 -18.22699,-38.70527 C 134.27277,106.72972 146.4241,89.4317 162.2208,67.733726 178.01758,46.035688 179.23355,23.457263 165.86703,0 Z m 258.82194,47.500734 c 42.52972,0 78.0732,3.811907 106.62881,11.435511 28.5557,7.623667 42.83331,29.614226 42.83331,65.973025 0,35.18589 -12.45477,60.99044 -37.36501,77.41055 -24.91031,16.42009 -44.04971,29.32034 -57.41615,38.70325 -21.87243,-12.90146 -36.45362,-31.08018 -43.74435,-54.53751 4.86059,-7.03715 7.29038,-15.24681 7.29038,-24.62971 0,-16.42001 -9.11236,-24.62971 -27.33944,-24.62971 -14.5816,0 -24.30309,7.62179 -29.16359,22.869 -2.43027,-15.2472 -10.02533,-24.92342 -22.78425,-29.02844 -12.75892,-4.10504 -25.21367,-7.32911 -37.36501,-9.67481 24.30266,-49.260336 57.11077,-73.891156 98.4253,-73.891156 z M 304.39045,142.5022 c 10.93623,0 24.30348,2.34732 40.1002,7.0388 23.08755,3.51857 35.23881,12.89987 36.45398,28.14708 8.50583,0 12.75867,2.34729 12.75867,7.0388 -12.15128,8.21005 -18.22698,16.41963 -18.22698,24.6297 0,10.5557 4.86178,15.83425 14.58285,15.83425 7.29077,0 17.01016,-5.86429 29.1615,-17.59294 7.29083,22.28442 27.34067,43.39429 60.14926,63.33297 -1.21517,19.93868 3.03756,38.7052 12.75868,56.29821 -9.72112,10.55574 -26.73203,15.54138 -51.03472,14.95491 -24.30264,-0.58646 -40.40317,-4.3984 -48.30162,-11.43551 -7.89834,-7.0372 -13.67048,-19.35365 -17.31595,-36.94658 -3.64539,-7.03718 -8.50504,-10.55617 -14.58075,-10.55617 -10.93623,0 -31.59302,1.75954 -61.97133,5.27808 -6.07571,-1.17285 -9.4184,-3.81109 -10.02558,-7.91611 -0.60763,-4.10503 -1.52008,-9.09055 -2.7352,-14.95491 14.58159,-4.69147 24.30311,-10.55573 29.1636,-17.59294 -10.93617,-8.20999 -20.0486,-13.48653 -27.33944,-15.83223 v -7.03879 c 12.15128,-2.34567 18.22699,-5.86264 18.22699,-10.55415 -3.64535,-5.86426 -7.8982,-8.79748 -12.75868,-8.79748 -3.64547,2.3458 -4.2544,4.10522 -1.82416,5.27808 1.21522,2.3457 -1.82161,3.81268 -9.11245,4.39874 -7.29079,0.58647 -10.9366,0.2935 -10.9366,-0.87934 0,-2.3457 0.60693,-4.69108 1.82206,-7.03678 17.01187,-24.63011 27.34027,-46.32985 30.98567,-65.09569 z m 111.18607,3.51939 c 12.15139,0 18.22699,4.69063 18.22699,14.07355 0,8.21006 -1.51941,15.24798 -4.55727,21.11234 -3.03786,5.86432 -8.8101,12.90227 -17.31595,21.11234 -8.5059,8.21006 -14.58152,12.31485 -18.22699,12.31485 -3.64536,0 -6.07525,-0.88073 -7.29037,-2.64006 -1.21523,-1.75934 -0.60815,-4.98329 1.82207,-9.67479 l 12.75868,-12.31486 12.76077,-10.55617 c 2.43025,-1.17295 1.51777,-3.81311 -2.7352,-7.91814 -4.25287,-4.10507 -4.5564,-7.91694 -0.91103,-11.43551 3.64542,-3.51855 7.29115,-3.51855 10.93661,0 3.64537,3.51856 4.2523,7.62537 1.82207,12.31688 -2.43029,4.69147 -8.50592,12.90108 -18.22699,24.62971 l 1.82207,1.75868 c 10.93623,-11.72862 17.31529,-19.35245 19.13803,-22.87102 1.82274,-3.51856 2.7352,-8.79703 2.7352,-15.83425 0,-4.69151 -4.25273,-7.03677 -12.75869,-7.03677 -6.07562,0 -10.02501,1.1737 -11.84764,3.51939 -1.82273,2.34571 -2.7352,5.27692 -2.7352,8.79547 0,4.69149 3.03883,8.79631 9.11454,12.31485 l -10.93661,7.0388 c -3.64548,-8.21006 -4.55584,-16.71454 -2.7331,-25.51108 1.82276,-8.79651 8.20187,-13.19421 19.13801,-13.19421 z m -96.9446,4.1784 c -4.32892,0.14661 -8.46812,1.0991 -12.41731,2.85838 -3.64537,4.69147 -3.64537,8.21046 0,10.55617 12.1514,-7.03722 30.98527,-2.34655 56.50303,14.07354 h 12.75868 v -7.03677 h -12.75868 c -16.40429,-14.07442 -31.09897,-20.89112 -44.08572,-20.45132 z m 3.07448,15.17324 c -6.68322,0 -10.93593,1.1737 -12.75868,3.51939 -1.82284,2.34571 -2.73311,5.27691 -2.73311,8.79546 0,7.03718 4.25274,10.55617 12.75869,10.55617 8.50594,0 19.44123,-2.9311 32.80773,-8.79546 -13.36648,-9.38298 -23.39142,-14.07556 -30.07463,-14.07556 z m 71.9969,36.94659 c -3.64535,1.17285 -5.4683,2.93236 -5.4683,5.27807 0,1.17295 1.82295,2.34452 5.4683,3.51738 3.64546,0 5.46831,-1.17169 5.46831,-3.51738 0,-2.3458 -1.82285,-4.10522 -5.46831,-5.27807 z m -118.47435,36.94456 23.69529,3.5194 v 1.75869 l -14.58285,-1.75869 c -7.29072,1.17274 -10.32756,-8.4e-4 -9.11244,-3.5194 z m 30.98566,10.55617 c 8e-5,1.17285 -8.50552,3.51821 -25.51735,7.03677 -2.43035,1.17284 -3.64625,1.17284 -3.64625,0 0,-3.51868 1.82295,-5.27808 5.46831,-5.27808 h 9.11245 z m 189.56024,116.1138 c 36.45396,76.23616 31.59435,212.28872 -14.58076,408.15701 40.09943,75.06333 43.13629,138.98271 9.11245,191.76162 -14.5816,83.27322 -19.44135,212.87592 -14.58075,388.80542 -2.42981,197.0414 -3.03928,299.6673 -1.82417,307.8774 18.22697,51.6059 16.40414,79.1683 -5.4683,82.6866 H 258.82403 c 60.75665,-24.6301 109.96879,-60.404 147.63795,-107.3184 10.93627,-49.2603 8.80985,-121.0963 -6.37934,-215.5119 -15.18913,-94.4155 -36.14935,-239.2656 -62.88236,-434.54744 -26.73293,-195.28189 -6.07621,-400.82518 61.97133,-616.63222 32.80859,9.38288 65.00972,7.62337 96.60324,-5.27809 z M 60.149259,571.77154 c 17.0119,1.17327 30.98605,1.75869 41.922271,1.75869 v 8.79748 H 80.198319 c -10.93618,-1.17291 -17.61881,-4.69181 -20.04906,-10.55617 z m 91.134931,7.03677 c 17.0119,2.34574 40.10059,21.11226 69.26381,56.29822 h 72.90793 l -1.82416,17.59294 h -30.98566 c -35.23887,8.21038 -71.0858,11.14116 -107.53985,8.79545 3.64547,-7.03712 2.43157,-11.72784 -3.64414,-14.07354 7.29075,-1.17284 12.15051,-3.51822 14.58075,-7.03677 2.43024,-3.51863 0.60739,-7.0376 -5.46831,-10.55617 8.50598,0 13.36772,-3.51896 14.58285,-10.55617 0,-4.69147 -3.64578,-8.21047 -10.93661,-10.55617 6.07529,-3.51868 8.20207,-7.33047 6.37934,-11.43551 -1.8227,-4.10503 -7.59486,-7.3291 -17.31595,-9.6748 z m -74.730011,12.31486 76.552081,5.27809 c 4.86059,2.3457 4.86059,5.27892 0,8.79748 l -76.552081,-5.27809 c -2.43025,-3.51868 -2.43025,-6.45178 0,-8.79748 z m 0,15.83424 82.020381,8.79547 c 4.86047,2.34567 4.86047,4.69308 0,7.03879 l -82.020381,-7.03879 c -2.43025,-3.51855 -2.43025,-6.44976 0,-8.79547 z m 0,17.59295 74.730011,7.03677 c 3.64547,3.51856 3.03842,6.45179 -1.82207,8.79748 l -72.907941,-5.27808 c -2.43025,-4.69147 -2.43025,-8.21046 0,-10.55617 z m 1.82207,21.11234 52.858881,3.51737 c 3.64547,3.51856 3.64547,6.45179 0,8.79748 l -52.858881,-1.76071 c -2.43025,-4.69147 -2.43025,-8.20844 0,-10.55414 z m 180.447781,31.66647 h 27.33943 l -5.4662,54.53751 h -51.03683 c -34.02378,-29.32163 -62.57908,-43.98134 -85.66661,-43.98134 v -7.03677 c 32.80859,4.69131 71.08532,3.51772 114.83021,-3.5194 z m -141.14552,37.05576 c 39.87162,-1.53942 74.16197,13.08447 102.86949,43.87217 h 56.50301 v 15.83426 h -40.1002 c -61.97181,12.90152 -103.2854,16.4185 -123.94266,10.55414 -7.29077,-8.21006 -11.24046,-18.17917 -11.84764,-29.90779 -0.60719,-11.72863 -0.91104,-24.62889 -0.91104,-38.70325 5.92378,-0.87966 11.7331,-1.42963 17.42904,-1.64953 z"
     sodipodi:nodetypes="ccscsscccccccccccscsscsssccccscsssscccssccssssscccccccssscssccccccccccccccccscscssssccsscscsccccsscccsccsccccccccccsccsssssscccssssccsssssccsssccccccssssscscscsccccccccssccccccccccssccccccccccccccscccscccccccccccccccccccccccccccccscccccscs" />
</svg>
