<?xml version="1.0" encoding="UTF-8" standalone="no"?>
<svg
   width="1346.7246"
   height="1800.6239"
   id="svg2"
   sodipodi:version="0.32"
   inkscape:version="1.4 (e7c3feb1, 2024-10-09)"
   sodipodi:docname="C20.svg"
   version="1.0"
   xmlns:inkscape="http://www.inkscape.org/namespaces/inkscape"
   xmlns:sodipodi="http://sodipodi.sourceforge.net/DTD/sodipodi-0.dtd"
   xmlns="http://www.w3.org/2000/svg"
   xmlns:svg="http://www.w3.org/2000/svg"
   xmlns:rdf="http://www.w3.org/1999/02/22-rdf-syntax-ns#"
   xmlns:cc="http://creativecommons.org/ns#"
   xmlns:dc="http://purl.org/dc/elements/1.1/">
  <metadata
     id="metadata9">
    <rdf:RDF>
      <cc:Work
         rdf:about="">
        <dc:format>image/svg+xml</dc:format>
        <dc:type
           rdf:resource="http://purl.org/dc/dcmitype/StillImage" />
        <dc:description>Signe de S.T. essai par S. R. : modification des mains, pour réduire les détails. Changement de la barbe.
 </dc:description>
      </cc:Work>
    </rdf:RDF>
  </metadata>
  <defs
     id="defs7" />
  <sodipodi:namedview
     inkscape:window-height="938"
     inkscape:window-width="1864"
     inkscape:pageshadow="2"
     inkscape:pageopacity="0.0"
     guidetolerance="10.0"
     gridtolerance="10.0"
     objecttolerance="10.0"
     borderopacity="1.0"
     bordercolor="#666666"
     pagecolor="#ffffff"
     id="base"
     width="1800px"
     height="1800px"
     inkscape:zoom="0.14849242"
     inkscape:cx="774.45031"
     inkscape:cy="1356.9716"
     inkscape:window-x="1440"
     inkscape:window-y="310"
     inkscape:current-layer="svg2"
     inkscape:showpageshadow="2"
     inkscape:pagecheckerboard="0"
     inkscape:deskcolor="#d1d1d1"
     inkscape:window-maximized="0" />
  <path
     id="path4"
     style="fill:#000000;stroke:none"
     d="m 297.36914,0.0750303 c -50.10607,0.990234 -92.1917,11.7839097 -126.25586,32.3808587 -45.41894,27.4626 -67.60116,72.880641 -66.54492,136.255861 -32.74385,0 -60.205368,13.7307 -82.386719,41.19336 -10.562557,12.67503 -12.9402577,20.33399 -7.13086,22.97461 5.809397,2.64063 14.523784,0.79257 26.142578,-5.54492 21.125113,15.84381 41.722203,51.75489 61.791021,107.73633 V 1772.1063 H 0 v 28.5176 h 1346.7246 v -28.5176 H 1243.7383 V 335.07113 c 21.1251,-55.98144 41.7222,-91.36478 61.791,-106.15234 11.6188,6.33748 20.3332,7.92066 26.1426,4.75195 5.8094,-3.16878 3.4336,-10.5609 -7.1289,-22.17969 -22.1813,-28.5189 -49.117,-42.7793 -80.8047,-42.7793 0,-44.36264 -44.3626,-69.71324 -133.0879,-76.050783 C 677.58621,39.848243 424.08621,9.7460964 350.14844,2.3523741 331.66398,0.50392812 314.07117,-0.25504769 297.36914,0.0750303 Z M 308.0625,40.674639 c 14.58952,0.198041 30.20383,1.419536 46.83984,3.664063 66.54398,8.97817 298.9191,36.704513 697.12696,83.179688 96.1191,6.33755 142.0667,20.06831 137.8418,41.19336 -29.5751,0 -55.4534,14.2604 -77.6348,42.7793 -10.5626,11.61879 -12.9402,19.01091 -7.1308,22.17969 5.8094,3.16871 15.0515,1.58554 27.7265,-4.75195 20.0688,14.78757 40.6659,50.1709 61.791,106.15234 l -1.5839,1437.03517 H 882.5 880.28906 c 0.37963,-0.739 0.97437,-1.92 1.20703,-2.2871 5.95333,-22.7937 0.95167,-55.4504 -15.11523,-98.0625 v -518.5586 c -1.10798,-67.5901 4.98682,-108.5877 18.2832,-122.9922 21.05273,-64.26601 17.17413,-129.63898 -11.63476,-196.1211 32.13298,-185.04173 32.13298,-321.88462 0,-410.52734 -18.83651,-24.3768 -26.03772,-46.53784 -21.60547,-66.48243 -1.10807,-9.97232 2.76849,-17.72932 11.63281,-23.26953 49.86161,-22.16065 74.79297,-61.21611 74.79297,-117.17187 0,-55.95576 -35.73486,-86.70588 -107.20313,-92.2461 -71.46818,-5.54022 -117.17252,3.87904 -137.11718,28.25586 -19.94457,24.37673 -33.2443,49.30633 -39.89258,74.79102 -2.21604,9.97238 -4.15431,18.5595 -5.81641,25.76172 -1.66199,7.20222 -6.92475,16.89956 -15.78906,29.08789 -8.86422,12.18843 -12.74283,19.94347 -11.63477,23.26758 1.10797,6.64819 6.09663,9.97265 14.96094,9.97265 0,4.43208 -2.77228,7.20251 -8.3125,8.31055 -1.10807,6.64822 0.55417,11.07885 4.98633,13.29492 -4.43207,9.97233 -2.76992,16.0672 4.98633,18.28321 l 1.66406,21.60742 c -0.12048,1.44508 0.33526,2.64086 0.96289,3.7539 l -39.75586,95.82618 44,-0.20313 23.51758,-87.69727 c 2.40296,0.007 4.51563,-0.0449 4.51563,-0.0449 17.72853,-1.10807 29.91627,-2.77226 36.56445,-4.98828 2.21613,17.72852 7.20273,32.68854 14.95898,44.87696 -29.91694,94.18289 -50.96784,177.28434 -63.15625,249.30664 h -63.16015 c -18.79161,-22.05978 -37.88538,-35.92128 -57.2793,-41.71485 0.1634,-2.30591 0.34045,-4.61249 0.625,-6.85937 0.64195,-4.9169 1.48766,-9.89274 3.53906,-14.44336 0.59762,-1.28951 1.31995,-2.53435 2.25586,-3.60938 h 20.12695 c 2.3157,-1.70882 4.59185,-3.89674 5.19727,-6.82422 0.61051,-2.74816 -0.6717,-5.52933 -2.47461,-7.55273 -0.80205,-0.94717 -1.73427,-1.77116 -2.67187,-2.58008 h -22.34375 c -0.009,-2.98622 0.087,-6.08737 1.28906,-8.86914 0.25489,-0.46443 0.4878,-1.06996 0.92578,-1.3457 h 21.49805 c 2.08604,-2.03863 4.03805,-4.55514 4.2539,-7.57227 0.25103,-2.91075 -1.37741,-5.6165 -3.44726,-7.53125 -0.72309,-0.66176 -1.48369,-1.35558 -2.30664,-1.85156 h -22.21485 c -0.009,-3.26913 0.21166,-6.71378 1.84571,-9.625 0.18956,-0.4596 0.51175,-0.7187 1.02343,-0.58984 h 19.47461 c 2.29341,-1.89604 4.50694,-4.27952 4.99414,-7.32813 0.47308,-2.81087 -0.89598,-5.57859 -2.79687,-7.57226 -0.67395,-0.74524 -1.43692,-1.40055 -2.19727,-2.05469 h -22.34375 c -0.009,-3.26913 0.21166,-6.7138 1.84571,-9.625 0.18956,-0.45962 0.51175,-0.71869 1.02343,-0.58985 h 19.47461 c 2.29358,-1.89557 4.50516,-4.27844 4.99414,-7.32617 0.46913,-2.78425 -0.87064,-5.53078 -2.74414,-7.51758 -0.68892,-0.76717 -1.46894,-1.44277 -2.25,-2.11328 h -47.3164 v -14.23437 h -0.11719 v -246.1543 c 0,-25.48488 -5.53879,-37.67438 -16.61914,-36.56641 7.75626,-12.18831 18.83589,-28.53069 33.24023,-49.02929 14.40453,-20.4987 15.51467,-41.82759 3.32617,-63.98828 -27.70082,39.88922 -47.64558,65.65077 -59.83398,77.28515 -12.18841,11.63437 -20.22344,24.92825 -24.10156,39.88672 -3.87812,14.95847 -26.31521,56.7901 -67.3125,125.48828 26.59285,-3.3241 55.40273,-32.13403 86.42773,-86.42773 4.43216,-7.75625 6.64844,-9.41849 6.64844,-4.98633 v 258.72656 h -44.04492 c -2.29453,1.89596 -4.51,4.27917 -4.99805,7.32813 -0.4727,2.81157 0.89916,5.57912 2.79883,7.57422 0.67423,0.74499 1.43961,1.39976 2.19922,2.05468 h 19.73437 c 1.94335,2.38509 2.42215,5.57706 2.57813,8.5586 0.0169,0.55195 0.0368,1.10395 0.0273,1.65625 h -22.33984 c -2.29463,1.8959 -4.51018,4.27903 -4.99805,7.32812 -0.46838,2.78328 0.87485,5.52688 2.74609,7.51367 0.6891,0.7671 1.47174,1.44197 2.25196,2.11329 h 19.73437 c 1.94336,2.38509 2.42217,5.57705 2.57813,8.55859 0.0169,0.55195 0.0368,1.10396 0.0273,1.65625 h -22.3418 c -2.29454,1.89595 -4.50804,4.27916 -4.99609,7.32812 -0.47271,2.81157 0.89916,5.57911 2.79883,7.57422 0.67423,0.74499 1.43765,1.39782 2.19726,2.05274 h 19.78516 c 2.10261,2.24414 2.59918,5.47286 2.6582,8.43164 0,0.59503 -3.1e-4,1.18895 -0.0371,1.7832 h -22.37695 c -2.28691,1.76496 -4.49028,4.04175 -5.00195,6.99609 -0.53398,2.86748 0.86047,5.70178 2.74414,7.78516 0.67207,0.7857 1.44053,1.47832 2.20117,2.17578 h 19.68945 c 1.92698,2.80075 2.7917,6.16128 3.54688,9.43164 0.87256,4.06218 1.37331,8.18438 1.74219,12.32032 h -22.45703 c -9.97238,3.3241 -13.8509,8.31075 -11.63477,14.95898 2.21603,5.54018 7.75678,9.41871 16.62109,11.63477 -5.54022,4.4322 -5.54022,8.31069 0,11.63476 -6.64828,6.64818 -6.09415,12.74104 1.66211,18.28125 -6.64819,6.64819 -6.64819,12.74495 0,18.28516 -4.43217,8.86425 -2.76993,17.17149 4.98633,24.92773 8.86431,6.64822 18.83567,9.97461 29.91602,9.97461 v 9.9707 c -12.18841,1.10812 -26.03827,1.10812 -41.55078,0 -6.64819,4.43216 -8.86455,9.41682 -6.64844,14.95704 2.21604,5.54013 6.64868,10.52679 13.29687,14.95898 -4.43217,4.43208 -5.54025,9.42073 -3.32422,14.96094 2.21612,5.54024 2.21612,10.52687 0,14.95898 -2.21603,4.43218 -1.38593,8.30876 2.49219,11.63281 3.87775,3.32419 4.98631,6.92664 3.32422,10.80469 -1.662,3.87808 -0.55195,7.19864 3.32617,9.96875 3.87804,2.77011 5.81641,7.48079 5.81641,14.12891 0,6.64824 7.75516,11.63495 23.26758,14.95898 v 1.66211 726.3164 c -21.05264,5.5402 -32.13228,21.6063 -33.24024,48.1992 0.85363,32.3499 32.44663,54.138 38.64453,46.4043 6.19797,-7.7338 -11.83108,-30.5141 -12.05078,-46.4063 1.10807,-15.5124 11.04023,-23.2656 26.55274,-23.2656 15.51251,0 23.13015,8.0449 24.9707,23.2656 1.84056,15.2207 -18.89158,37.5588 -10.4707,46.4063 8.42098,8.8473 36.53463,-24.1681 37.0625,-46.4063 0.53284,-22.4432 -11.08141,-42.6567 -33.24219,-48.1972 V 875.63558 L 638.68157,860.6766 c 3.32409,36.56515 9.97107,98.61562 19.94336,186.1504 9.97228,87.5348 24.10024,191.415 42.38281,311.6367 18.28257,120.2218 25.20951,200.8271 20.77735,241.8242 -18.83659,52.0778 -78.11877,98.0617 -177.8418,137.9512 -30.07837,0 -58.39114,12.8536 -57.80274,31.5801 0.0238,0.7561 0.56456,1.5233 0.85743,2.2871 H 364.4082 153.68555 V 335.07113 c 21.12506,-55.98144 41.7222,-91.89252 61.79101,-107.73633 11.61879,6.33749 20.33123,8.18555 26.14063,5.54492 5.8094,-2.64062 3.43359,-10.29958 -7.12891,-22.97461 -22.18135,-27.46266 -49.11512,-41.19336 -80.80273,-41.19336 0,-44.36264 16.89913,-78.427623 50.69922,-102.193361 25.3501,-17.824257 59.90917,-26.437872 103.67773,-25.84375 z M 774.96875,147.65707 c 38.78127,0 71.1937,3.60061 97.23242,10.80273 26.03892,7.20232 39.05664,27.97707 39.05664,62.32617 0,33.24095 -11.35753,57.6203 -34.07226,73.13282 -22.71472,15.51247 -40.16715,27.70018 -52.35547,36.56445 -19.94467,-12.18834 -33.24049,-29.36465 -39.88867,-51.52539 4.43225,-6.64819 6.64843,-14.40326 6.64843,-23.26758 0,-15.5124 -8.31108,-23.26758 -24.93164,-23.26758 -13.29638,0 -22.15963,7.20102 -26.59179,21.60547 -2.21603,-14.40445 -9.14101,-23.54764 -20.77539,-27.42578 -11.63437,-3.87812 -22.99192,-6.92264 -34.07227,-9.13867 22.16069,-46.53752 52.0769,-69.80664 89.75,-69.80664 z m -646.63477,49.57422 c 25.35012,-1e-5 47.00466,4.22374 64.96094,12.67382 -23.23759,27.4626 -44.89213,63.90339 -64.96094,109.32227 C 108.26516,273.8085 86.612589,237.36771 63.375,209.90511 c 17.956341,-8.45008 39.60891,-12.67382 64.95898,-12.67382 z m 1090.05472,0 c 25.3501,-1e-5 47.0046,4.75344 64.9609,14.25976 -23.2376,26.40636 -44.8921,62.31745 -64.9609,107.73633 -19.0125,-45.41888 -40.6652,-81.32997 -64.959,-107.73633 17.9563,-9.50632 39.6089,-14.25976 64.959,-14.25976 z m -553.11526,40.17578 c 9.97229,0 22.16196,2.21627 36.5664,6.64843 21.05263,3.3241 32.13217,12.18736 33.24024,26.5918 7.75615,0 11.63281,2.21823 11.63281,6.65039 -11.08025,7.75625 -16.61914,15.51133 -16.61914,23.26758 0,9.97225 4.43452,14.95898 13.29883,14.95898 6.6481,0 15.50948,-5.54075 26.58984,-16.62109 6.64818,21.05267 24.93072,40.99741 54.84766,59.83398 -1.10806,18.83658 2.77043,36.56499 11.63476,53.18555 -8.86433,9.97226 -24.37641,14.68296 -46.53711,14.12891 -22.16069,-0.55405 -36.84261,-4.15459 -44.04492,-10.80274 -7.20223,-6.64821 -12.46488,-18.28379 -15.78906,-34.90429 -3.32411,-6.64819 -7.7547,-9.97461 -13.29492,-9.97461 -9.97237,0 -28.80895,1.66228 -56.50977,4.98633 -5.54022,-1.10801 -8.58893,-3.59844 -9.14258,-7.47657 -0.55414,-3.87812 -1.38617,-8.58869 -2.49414,-14.1289 13.29638,-4.43215 22.16169,-9.97287 26.59375,-16.6211 -9.97228,-7.75619 -18.28139,-12.741 -24.92968,-14.95703 v -6.65039 c 11.08035,-2.21601 16.62109,-5.53851 16.62109,-9.9707 -3.32399,-5.54011 -7.2027,-8.31055 -11.63477,-8.31055 -3.32418,2.21613 -3.88008,3.8783 -1.66406,4.98633 1.10817,2.21605 -1.66039,3.60064 -8.30859,4.1543 -6.64818,0.55405 -9.97266,0.27794 -9.97266,-0.83008 0,-2.21603 0.55404,-4.43241 1.66211,-6.64844 15.51241,-23.26865 24.92982,-43.76756 28.25391,-61.49609 z m 101.38476,3.32617 c 11.08034,0 16.6211,4.43061 16.6211,13.29492 0,7.75625 -1.38415,14.40519 -4.1543,19.94531 -2.77007,5.54022 -8.03476,12.18904 -15.79102,19.94532 -7.75616,7.75625 -13.2969,11.6328 -16.62109,11.63281 -3.324,0 -5.53841,-0.8301 -6.64648,-2.49219 -1.10806,-1.66209 -0.55392,-4.70845 1.66211,-9.14062 l 11.63281,-11.63477 11.63672,-9.97266 c 2.21604,-1.10806 1.38399,-3.60234 -2.49414,-7.48047 -3.87803,-3.87821 -4.15417,-7.47864 -0.83008,-10.80273 3.3241,-3.32409 6.64847,-3.32409 9.97265,0 3.32411,3.32409 3.87815,7.20261 1.66211,11.63477 -2.21603,4.43215 -7.75677,12.18916 -16.62109,23.26953 l 1.66211,1.66015 c 9.97229,-11.08035 15.78712,-18.28147 17.44922,-21.60547 1.66209,-3.32409 2.49609,-8.3107 2.49609,-14.95898 0,-4.43216 -3.88047,-6.64844 -11.63672,-6.64844 -5.54013,0 -9.14073,1.10819 -10.80273,3.32422 -1.6621,2.21612 -2.49414,4.98645 -2.49414,8.31055 0,4.43215 2.77228,8.30881 8.3125,11.63281 l -9.97266,6.65039 c -3.32418,-7.75626 -4.15428,-15.79128 -2.49219,-24.10156 1.6621,-8.31028 7.47694,-12.46289 17.44922,-12.46289 z m -88.39843,3.94726 c -3.94741,0.13855 -7.72116,1.03713 -11.32227,2.69922 -3.32399,4.43216 -3.32399,7.75662 0,9.97266 11.08045,-6.64819 28.25272,-2.21748 51.52148,13.29492 h 11.63477 v -6.64844 h -11.63477 c -14.95847,-13.29647 -28.3571,-19.73384 -40.19921,-19.31836 z m 2.80468,14.33399 c -6.09417,0 -9.97463,1.10623 -11.63672,3.32226 -1.66219,2.21603 -2.49023,4.98655 -2.49023,8.31055 0,6.6482 3.87656,9.97266 11.63281,9.97266 7.75625,0 17.72955,-2.76838 29.91797,-8.3086 -12.18842,-8.86431 -21.32968,-13.29687 -27.42383,-13.29687 z m 65.64844,34.9043 c -3.324,1.10802 -4.98437,2.76832 -4.98437,4.98437 0,1.10811 1.66037,2.21618 4.98437,3.32422 3.32419,0 4.98828,-1.1082 4.98828,-3.32422 0,-2.21614 -1.66409,-3.87636 -4.98828,-4.98437 z m -108.0293,34.90234 21.60547,3.32422 v 1.66015 l -13.29883,-1.66015 c -6.6481,1.10792 -9.41471,-5.2e-4 -8.30664,-3.32422 z m 28.25391,9.97266 c 10e-5,1.10802 -7.75703,3.32436 -23.26953,6.64843 -2.21613,1.10802 -3.32422,1.10802 -3.32422,0 0,-3.32418 1.66224,-4.98828 4.98633,-4.98828 h 8.30859 z M 839.78906,448.4891 c 33.24094,72.02222 28.81034,200.55397 -13.29492,385.5957 36.56514,70.91424 39.33359,131.30051 8.30859,181.1621 -13.29638,78.6704 -17.72718,201.1095 -13.29492,367.3145 -2.21565,186.1501 -2.77213,283.1029 -1.66406,290.8593 16.62047,48.7533 14.95833,74.7933 -4.98633,78.1172 H 623.72266 c 55.40163,-23.2688 100.27785,-57.0675 134.62695,-101.3887 9.97239,-46.5375 8.03215,-114.4007 -5.81836,-203.5976 -13.85041,-89.1966 -32.96303,-226.0417 -57.33984,-410.5293 -24.37672,-184.48782 -5.54025,-378.67045 56.50976,-582.54883 29.91685,8.86425 59.27891,7.20395 88.08789,-4.98437 z M 442.55859,642.94808 c 15.51251,1.10842 28.25624,1.66016 38.22852,1.66016 v 8.3125 H 460.8418 c -9.97229,-1.10808 -16.06708,-4.43246 -18.28321,-9.97266 z m 83.10352,6.64844 c 15.51251,2.21607 36.56535,19.94448 63.1582,53.18555 h 66.48242 l -1.66406,16.62109 h -28.25586 c -32.13299,7.75656 -64.8195,10.52661 -98.06054,8.31055 3.3241,-6.64814 2.21795,-11.08084 -3.32227,-13.29688 6.6481,-1.10802 11.08085,-3.32242 13.29688,-6.64648 2.21604,-3.32414 0.55389,-6.65053 -4.98633,-9.97461 7.75624,0 12.18891,-3.32443 13.29687,-9.97266 0,-4.43216 -3.32437,-7.75661 -9.97265,-9.97265 5.53984,-3.32418 7.4785,-6.92461 5.8164,-10.80274 -1.66199,-3.87813 -6.92475,-6.92264 -15.78906,-9.13867 z m -68.14453,11.63281 69.80469,4.98633 c 4.43216,2.21606 4.43216,4.98842 0,8.3125 l -69.80469,-4.98633 c -2.21604,-3.32417 -2.21604,-6.09646 0,-8.3125 z m 0,14.96094 74.79297,8.30859 c 4.43206,2.21602 4.43206,4.43435 0,6.65039 l -74.79297,-6.65039 c -2.21604,-3.32406 -2.21604,-6.09254 0,-8.30859 z m 0,16.62109 68.14453,6.64649 c 3.32418,3.32408 2.76996,6.09647 -1.66211,8.3125 l -66.48242,-4.98828 c -2.21604,-4.43214 -2.21604,-7.75467 0,-9.97071 z m 1.66211,19.94336 48.19922,3.32227 c 3.32411,3.32407 3.32411,6.09647 0,8.3125 l -48.19922,-1.66406 c -2.21604,-4.43215 -2.21604,-7.75466 0,-9.97071 z m 164.54297,29.91797 h 24.92968 l -4.98437,51.52149 h -46.53906 c -31.02502,-27.70089 -57.06252,-41.55079 -78.11524,-41.55079 v -6.64648 c 29.91694,4.432 64.81966,3.32392 104.70899,-3.32422 z m -128.70508,35.00586 c 36.3575,-1.45431 67.62545,12.36135 93.80273,41.44727 h 51.52344 v 14.95898 h -36.56641 c -56.50979,12.18839 -94.18302,15.51091 -113.01953,9.9707 -6.64819,-7.75625 -10.24906,-17.17358 -10.80273,-28.2539 -0.55365,-11.08034 -0.83008,-23.26804 -0.83008,-36.56446 5.40167,-0.83103 10.69875,-1.35084 15.89258,-1.55859 z" />
</svg>
