<?xml version="1.0" encoding="UTF-8" standalone="no"?>
<svg
   width="1570.5"
   height="1872"
   version="1.1"
   id="svg1"
   sodipodi:docname="C20A.svg"
   inkscape:version="1.4 (e7c3feb1, 2024-10-09)"
   xmlns:inkscape="http://www.inkscape.org/namespaces/inkscape"
   xmlns:sodipodi="http://sodipodi.sourceforge.net/DTD/sodipodi-0.dtd"
   xmlns="http://www.w3.org/2000/svg"
   xmlns:svg="http://www.w3.org/2000/svg"
   xmlns:rdf="http://www.w3.org/1999/02/22-rdf-syntax-ns#"
   xmlns:cc="http://creativecommons.org/ns#"
   xmlns:dc="http://purl.org/dc/elements/1.1/">
  <title
     id="title1">C20A</title>
  <defs
     id="defs1" />
  <sodipodi:namedview
     id="namedview1"
     pagecolor="#ffffff"
     bordercolor="#000000"
     borderopacity="0.25"
     inkscape:showpageshadow="2"
     inkscape:pageopacity="0.0"
     inkscape:pagecheckerboard="0"
     inkscape:deskcolor="#d1d1d1"
     inkscape:zoom="0.19056377"
     inkscape:cx="787.13809"
     inkscape:cy="1230.5592"
     inkscape:window-width="1200"
     inkscape:window-height="1186"
     inkscape:window-x="1679"
     inkscape:window-y="65"
     inkscape:window-maximized="0"
     inkscape:current-layer="svg1" />
  <path
     id="path1"
     style="fill:#000000;stroke:none;stroke-width:100.106"
     d="M 347.15625 0.041015625 C 288.66119 0.85025835 239.5291 13.278857 199.76172 37.324219 C 146.73849 69.38477 120.84307 122.40672 122.07617 196.39258 C 83.850178 196.39258 51.789566 212.42389 25.894531 244.48438 C 13.563566 259.28161 10.790232 268.52928 17.572266 272.22852 C 24.3543 275.92783 34.527728 273.46173 48.091797 264.83008 C 72.753728 283.32649 96.797736 325.25126 120.22656 390.60547 C 85.699875 1107.035 85.699875 1589.7932 120.22656 1838.8789 L 0 1838.8789 L 0 1874.0215 L 1572.1992 1874.0215 L 1572.1992 1840.7285 L 1451.9727 1840.7285 L 1450.123 1840.7285 C 1484.6497 1591.6428 1484.6497 1108.2681 1450.123 390.60547 C 1476.018 325.25126 1500.6805 283.943 1524.1094 266.67969 C 1537.6735 274.07824 1547.8451 276.23702 1554.627 273.1543 C 1561.4089 270.07151 1558.6357 261.13115 1546.3047 246.33398 C 1520.4096 213.04039 1488.349 196.39258 1450.123 196.39258 C 1450.123 145.83555 1398.3321 116.85949 1294.752 109.46094 C 790.41512 47.806042 495.08831 12.35371 408.77148 3.1054688 C 387.19228 0.7934253 366.6546 -0.22873195 347.15625 0.041015625 z M 359.64062 47.439453 C 376.67279 47.78627 394.89902 49.346612 414.32031 52.121094 C 492.00542 63.218957 763.28635 95.279563 1228.1641 148.30273 C 1340.376 156.93445 1394.0163 172.96375 1389.084 196.39258 C 1354.5573 196.39258 1324.3463 213.04039 1298.4512 246.33398 C 1286.1202 261.13115 1283.3468 270.07151 1290.1289 273.1543 C 1296.911 276.23702 1307.0824 274.07824 1320.6465 266.67969 C 1345.3084 283.943 1369.3543 325.25126 1392.7832 390.60547 C 1358.2564 1108.2681 1358.2564 1591.6428 1392.7832 1840.7285 L 1189.3223 1840.7285 L 1189.3223 466.44141 L 1233.7148 466.44141 C 1248.512 466.44141 1255.9102 458.42676 1255.9102 442.39648 C 1255.9102 425.13311 1248.512 416.50195 1233.7148 416.50195 L 1189.3223 416.50195 C 1189.3223 417.73505 1194.8709 411.56798 1205.9688 398.00391 C 1217.0667 384.43985 1249.7438 374.57561 1304 368.41016 L 1304 294.42383 L 266.34961 294.42383 L 266.34961 368.41016 C 320.60589 370.87637 353.28301 379.50758 364.38086 394.30469 L 381.02734 416.50195 L 336.63477 416.50195 C 320.6045 416.50195 312.58984 425.13311 312.58984 442.39648 C 312.58984 458.42676 320.6045 466.44141 336.63477 466.44141 L 381.02734 466.44141 L 381.02734 1840.7285 L 179.41602 1840.7285 C 213.94271 1590.4097 213.94271 1107.035 179.41602 390.60547 C 202.84485 325.25126 226.8908 283.32649 251.55273 264.83008 C 265.1168 273.46173 275.28828 275.92783 282.07031 272.22852 C 288.85234 268.52928 286.07901 259.28161 273.74805 244.48438 C 246.61991 212.42389 215.17581 196.39258 179.41602 196.39258 C 179.41602 144.60245 199.14442 104.83645 238.60352 77.091797 C 268.19785 56.283255 308.54414 46.399004 359.64062 47.439453 z M 149.82227 229.6875 C 179.41662 229.6875 204.69362 234.61962 225.65625 244.48438 C 198.52812 276.54493 173.25111 319.08614 149.82227 372.10938 C 126.39345 319.08614 100.49796 276.54492 72.136719 244.48438 C 94.33244 234.61961 120.22793 229.6875 149.82227 229.6875 z M 1422.377 231.53711 C 1451.9713 231.53711 1477.2503 236.46921 1498.2129 246.33398 C 1471.0848 277.16142 1445.8059 319.70263 1422.377 373.95898 C 1398.9481 319.70263 1373.6711 277.16142 1346.543 246.33398 C 1367.5056 236.46921 1392.7826 231.53711 1422.377 231.53711 z M 305.19141 333.26758 L 1263.3086 333.26758 L 1263.3086 335.11719 C 1231.2481 335.11719 1203.8103 345.90712 1180.998 367.48633 C 1158.1858 389.06553 1146.7812 414.03524 1146.7812 442.39648 L 1146.7812 1825.9316 L 1126.4336 1825.9316 L 1126.4336 442.39648 L 440.21484 442.39648 L 440.21484 1825.9316 L 421.71875 1825.9316 L 421.71875 442.39648 C 422.95186 418.96765 413.7042 395.23096 393.97461 371.18555 C 374.24509 347.14014 344.65051 335.11719 305.19141 335.11719 L 305.19141 333.26758 z M 480.9082 483.08789 L 1085.7422 483.08789 L 1085.7422 1840.7285 L 937.4043 1840.7285 C 940.06179 1836.7812 941.9075 1832.919 942.64453 1831.7559 C 947.45761 1813.3279 943.41328 1786.9268 930.42383 1752.4766 L 930.42383 1333.2422 C 929.52804 1278.598 934.45542 1245.4519 945.20508 1233.8066 C 962.22534 1181.85 959.08973 1129.0001 935.79883 1075.252 C 961.77713 925.65281 961.77713 815.01984 935.79883 743.35547 C 920.57021 723.64785 914.74877 705.72986 918.33203 689.60547 C 917.43618 681.54318 920.56989 675.27399 927.73633 670.79492 C 968.04755 652.87883 988.20312 621.30251 988.20312 576.06445 C 988.20312 530.82638 959.31256 505.96735 901.5332 501.48828 C 843.75388 497.00921 806.80417 504.62247 790.67969 524.33008 C 774.55524 544.03787 763.80453 564.19341 758.42969 584.79688 C 756.63808 592.85916 755.07024 599.80215 753.72656 605.625 C 752.38285 611.44766 748.12736 619.28683 740.96094 629.14062 C 733.79448 638.99461 730.65889 645.2638 731.55469 647.95117 C 732.45048 653.32608 736.48395 656.01367 743.65039 656.01367 C 743.65039 659.59689 741.40875 661.83657 736.92969 662.73242 C 736.03392 668.10734 737.3777 671.68877 740.96094 673.48047 C 737.3777 681.54276 738.72153 686.4702 744.99219 688.26172 L 746.33789 705.73047 C 746.24049 706.8988 746.6098 707.86575 747.11719 708.76562 L 714.97461 786.23633 L 750.54688 786.07227 L 769.56055 715.17188 C 771.50326 715.17188 773.21094 715.13672 773.21094 715.13672 C 787.54378 714.24087 797.39859 712.89699 802.77344 711.10547 C 804.56505 725.43834 808.59655 737.53078 814.86719 747.38477 C 790.68046 823.52802 773.66045 890.71424 763.80664 948.94141 L 712.74414 948.94141 C 697.55184 931.107 682.11481 919.90073 666.43555 915.2168 C 666.56768 913.35254 666.71135 911.48648 666.94141 909.66992 C 667.46043 905.6947 668.1423 901.67117 669.80078 897.99219 C 670.28392 896.94977 670.86837 895.94534 671.625 895.07617 L 687.89648 895.07617 C 689.76868 893.69475 691.61014 891.92542 692.09961 889.55859 C 692.5932 887.33688 691.55527 885.08894 690.09766 883.45312 C 689.44927 882.6874 688.69745 882.0193 687.93945 881.36523 L 669.875 881.36523 C 669.868 878.95107 669.94453 876.44407 670.91602 874.19531 C 671.12209 873.81976 671.31192 873.33037 671.66602 873.10742 L 689.04688 873.10742 C 690.73335 871.45936 692.31182 869.4257 692.48633 866.98633 C 692.68931 864.63303 691.37265 862.44439 689.69922 860.89648 C 689.11467 860.36156 688.49931 859.80135 687.83398 859.40039 L 669.87305 859.40039 C 669.86605 856.75743 670.04423 853.97281 671.36523 851.61914 C 671.51856 851.24743 671.77974 851.03841 672.19336 851.14258 L 687.9375 851.14258 C 689.79159 849.60966 691.58269 847.68334 691.97656 845.21875 C 692.35908 842.94623 691.24969 840.70739 689.71289 839.0957 C 689.16807 838.49316 688.55224 837.96248 687.9375 837.43359 L 669.87305 837.43359 C 669.86605 834.79063 670.04423 832.00778 671.36523 829.6543 C 671.51856 829.28276 671.77974 829.07161 672.19336 829.17578 L 687.9375 829.17578 C 689.79174 827.64322 691.58125 825.71777 691.97656 823.25391 C 692.35586 821.00296 691.27049 818.78199 689.75586 817.17578 C 689.19885 816.55552 688.56893 816.00884 687.9375 815.4668 L 649.68359 815.4668 L 649.68359 803.95898 L 649.58984 803.95898 L 649.58984 604.95312 C 649.58984 584.34948 645.11233 574.49478 636.1543 575.39062 C 642.42494 565.53682 651.38192 552.32427 663.02734 535.75195 C 674.67281 519.17964 675.57068 501.93562 665.7168 484.01953 C 643.32172 516.2685 627.19566 537.09589 617.3418 546.50195 C 607.48798 555.90783 600.9908 566.65657 597.85547 578.75 C 594.72016 590.84325 576.58226 624.66137 543.4375 680.20117 C 564.93679 677.5138 588.22802 654.22259 613.31055 610.32812 C 616.89381 604.05754 618.68555 602.71348 618.68555 606.29688 L 618.68555 815.4668 L 583.07617 815.4668 C 581.22109 816.99954 579.43162 818.92566 579.03711 821.39062 C 578.65494 823.66369 579.76304 825.9007 581.29883 827.51367 C 581.84389 828.11602 582.46199 828.64635 583.07617 829.17578 L 599.03125 829.17578 C 600.60235 831.10418 600.98915 833.6852 601.11523 836.0957 C 601.12803 836.5418 601.14637 836.98713 601.13867 837.43359 L 583.07617 837.43359 C 581.22103 838.96633 579.43146 840.89424 579.03711 843.35938 C 578.65843 845.60942 579.74306 847.82738 581.25586 849.43359 C 581.81298 850.05385 582.44536 850.59999 583.07617 851.14258 L 599.03125 851.14258 C 600.60235 853.0708 600.98913 855.65005 601.11523 858.06055 C 601.12803 858.50664 601.14637 858.95393 601.13867 859.40039 L 583.07617 859.40039 C 581.22109 860.93331 579.4316 862.85926 579.03711 865.32422 C 578.65494 867.59728 579.76304 869.8343 581.29883 871.44727 C 581.84389 872.04962 582.46199 872.57798 583.07617 873.10742 L 599.07227 873.10742 C 600.77213 874.92178 601.17293 877.53179 601.2207 879.92383 C 601.2187 880.40483 601.21725 880.88496 601.18945 881.36523 L 583.09961 881.36523 C 581.25071 882.79216 579.47028 884.63487 579.05664 887.02344 C 578.62492 889.34165 579.75055 891.63199 581.27344 893.31641 C 581.81678 893.95147 582.43974 894.51238 583.05469 895.07617 L 598.97266 895.07617 C 600.53055 897.34047 601.22927 900.05517 601.83984 902.69922 C 602.54528 905.98328 602.94989 909.31653 603.24805 912.66016 L 585.0918 912.66016 C 577.02955 915.34753 573.89394 919.38094 575.68555 924.75586 C 577.47716 929.23493 581.95665 932.36864 589.12305 934.16016 C 584.64404 937.74356 584.64404 940.87904 589.12305 943.56641 C 583.74824 948.94133 584.19813 953.86859 590.46875 958.34766 C 585.09391 963.7224 585.09391 968.64984 590.46875 973.12891 C 586.8855 980.29534 588.22741 987.01261 594.49805 993.2832 C 601.66447 998.65812 609.72747 1001.3457 618.68555 1001.3457 L 618.68555 1009.4082 C 608.83169 1010.3038 597.63306 1010.3038 585.0918 1009.4082 C 579.71701 1012.9914 577.92518 1017.0209 579.7168 1021.5 C 581.50838 1025.9791 585.09391 1030.0105 590.46875 1033.5938 C 586.8855 1037.177 585.98769 1041.2104 587.7793 1045.6895 C 589.57089 1050.1685 589.57089 1054.1999 587.7793 1057.7832 C 585.98769 1061.3664 586.65959 1064.5001 589.79492 1067.1875 C 592.92999 1069.8751 593.82616 1072.7866 592.48242 1075.9219 C 591.13877 1079.0572 592.03461 1081.7429 595.16992 1083.9824 C 598.30516 1086.222 599.87305 1090.0295 599.87305 1095.4043 C 599.87305 1100.779 606.14432 1104.8108 618.68555 1107.498 L 618.68555 1108.8418 L 618.68555 1696.041 C 601.66527 1700.5201 592.70634 1713.5105 591.81055 1735.0098 C 592.50073 1761.1634 618.04197 1778.7777 623.05273 1772.5254 C 628.0635 1766.2729 613.48815 1747.856 613.31055 1735.0078 C 614.20632 1722.4667 622.23609 1716.1973 634.77734 1716.1973 C 647.3186 1716.1973 653.47682 1722.7024 654.96484 1735.0078 C 656.45286 1747.3131 639.69392 1765.3725 646.50195 1772.5254 C 653.30995 1779.6781 676.03802 1752.9864 676.46484 1735.0078 C 676.89559 1716.8633 667.50594 1700.5203 649.58984 1696.041 L 649.58984 1108.8418 L 746.33789 1096.748 C 749.02535 1126.3096 754.39874 1176.4756 762.46094 1247.2441 C 770.52317 1318.0126 781.94582 1401.9947 796.72656 1499.1895 C 811.50734 1596.3842 817.10668 1661.5526 813.52344 1694.6973 C 798.29479 1736.8002 750.3684 1773.9755 669.74609 1806.2246 C 645.42888 1806.2246 622.53994 1816.6161 623.01562 1831.7559 C 623.11043 1834.7732 626.16466 1837.8724 630.68164 1840.7285 L 480.9082 1840.7285 L 480.9082 483.08789 z M 856.51953 520.29883 C 887.87266 520.29883 914.07756 523.21035 935.12891 529.0332 C 956.18035 534.85586 966.70508 551.65197 966.70508 579.42188 C 966.70508 606.29593 957.52414 626.00552 939.16016 638.54688 C 920.79614 651.08804 906.68586 660.94099 896.83203 668.10742 C 880.70757 658.25362 869.95875 644.36726 864.58398 626.45117 C 868.16725 621.07643 869.95705 614.80707 869.95703 607.64062 C 869.95703 595.09946 863.23983 588.83008 849.80273 588.83008 C 839.0531 588.83008 831.88591 594.65138 828.30273 606.29688 C 826.51112 594.65138 820.91181 587.25835 811.50586 584.12305 C 802.09991 580.98776 792.91896 578.52785 783.96094 576.73633 C 801.87699 539.11245 826.06221 520.29883 856.51953 520.29883 z M 767.83594 592.85938 C 775.89819 592.85938 785.75301 594.65116 797.39844 598.23438 C 814.41872 600.92174 823.37564 608.0871 824.27148 619.73242 C 830.54203 619.73242 833.67773 621.52617 833.67773 625.10938 C 824.71974 631.37996 820.24023 637.64933 820.24023 643.91992 C 820.24023 651.98202 823.82577 656.01367 830.99219 656.01367 C 836.367 656.01367 843.53025 651.53413 852.48828 642.57617 C 857.86312 659.59642 872.64535 675.7205 896.83203 690.94922 C 895.9362 706.17795 899.07183 720.51007 906.23828 733.94727 C 899.07183 742.00938 886.52936 745.81901 868.61328 745.37109 C 850.69723 744.92298 838.82863 742.01146 833.00586 736.63672 C 827.18314 731.26199 822.92769 721.855 820.24023 708.41797 C 817.55283 703.04324 813.97124 700.35547 809.49219 700.35547 C 801.42994 700.35547 786.2017 701.69936 763.80664 704.38672 C 759.32759 703.49087 756.86364 701.47709 756.41602 698.3418 C 755.96808 695.20632 755.29425 691.39704 754.39844 686.91797 C 765.14809 683.33475 772.31526 678.85521 775.89844 673.48047 C 767.83624 667.20989 761.11898 663.18037 755.74414 661.38867 L 755.74414 656.01367 C 764.70213 654.22216 769.18164 651.53438 769.18164 647.95117 C 766.49425 643.47228 763.3566 641.23242 759.77344 641.23242 C 757.08596 643.02412 756.6381 644.36782 758.42969 645.26367 C 759.32554 647.05519 757.08776 648.17549 751.71289 648.62305 C 746.33808 649.07098 743.65039 648.84702 743.65039 647.95117 C 743.65039 646.15965 744.09637 644.36769 744.99219 642.57617 C 757.53343 623.76423 765.14854 607.19224 767.83594 592.85938 z M 849.80273 595.54688 C 858.7608 595.54688 863.24023 599.13044 863.24023 606.29688 C 863.24023 612.56746 862.12037 617.94281 859.88086 622.42188 C 857.64132 626.90076 853.3858 632.27611 847.11523 638.54688 C 840.84463 644.81745 836.36519 647.95117 833.67773 647.95117 C 830.99034 647.95117 829.19853 647.27932 828.30273 645.93555 C 827.40684 644.59177 827.85491 642.13009 829.64648 638.54688 L 839.05078 629.14062 L 848.45898 621.07812 C 850.25057 620.18209 849.57868 618.1646 846.44336 615.0293 C 843.30811 611.89401 843.08411 608.98424 845.77148 606.29688 C 848.45892 603.60951 851.14652 603.60951 853.83398 606.29688 C 856.52136 608.98424 856.9693 612.11991 855.17773 615.70312 C 853.3861 619.28634 848.90665 625.55766 841.74023 634.51562 L 843.08398 635.85742 C 851.14623 626.89946 855.84768 621.07818 857.19141 618.39062 C 858.53513 615.70326 859.209 611.67162 859.20898 606.29688 C 859.20898 602.71348 856.07337 600.92188 849.80273 600.92188 C 845.32375 600.92188 842.41201 601.81787 841.06836 603.60938 C 839.72462 605.40107 839.05078 607.64076 839.05078 610.32812 C 839.05078 613.91134 841.29243 617.04505 845.77148 619.73242 L 837.70898 625.10938 C 835.0215 618.8388 834.34964 612.34351 835.69336 605.625 C 837.03712 598.9063 841.74055 595.54687 849.80273 595.54688 z M 778.33594 598.73828 C 775.14463 598.84976 772.09301 599.57829 769.18164 600.92188 C 766.49423 604.50509 766.49423 607.19268 769.18164 608.98438 C 778.13972 603.60946 792.02213 607.19125 810.83398 619.73242 L 820.24023 619.73242 L 820.24023 614.35742 L 810.83398 614.35742 C 798.74064 603.60776 787.90984 598.40238 778.33594 598.73828 z M 780.60156 610.32812 C 775.67465 610.32812 772.53905 611.22215 771.19531 613.01367 C 769.8515 614.80518 769.18164 617.04505 769.18164 619.73242 C 769.18164 625.10734 772.3153 627.79492 778.58594 627.79492 C 784.85656 627.79492 792.91958 625.55701 802.77344 621.07812 C 792.9196 613.91151 785.52846 610.32812 780.60156 610.32812 z M 833.67773 638.54688 C 830.99036 639.44254 829.64648 640.78466 829.64648 642.57617 C 829.64648 643.47202 830.99036 644.36782 833.67773 645.26367 C 836.36519 645.26367 837.70898 644.36769 837.70898 642.57617 C 837.70898 640.78447 836.36519 639.44253 833.67773 638.54688 z M 746.33789 666.76367 L 763.80664 669.45117 L 763.80664 670.79492 L 753.05469 669.45117 C 747.67992 670.34684 745.44209 669.4505 746.33789 666.76367 z M 769.18164 674.82617 C 769.18169 675.72202 762.91035 677.5138 750.36914 680.20117 C 748.57748 681.09702 747.67969 681.09702 747.67969 680.20117 C 747.67969 677.5138 749.02552 676.16797 751.71289 676.16797 L 758.42969 676.16797 L 769.18164 674.82617 z M 908.92578 763.50977 C 935.79985 821.73694 932.21632 925.65281 898.17578 1075.252 C 927.73731 1132.5835 929.9771 1181.4017 904.89453 1221.7129 C 894.14489 1285.3148 890.56127 1384.3015 894.14453 1518.6719 C 892.35327 1669.1671 891.90498 1747.5516 892.80078 1753.8223 C 906.2378 1793.2376 904.89402 1814.2874 888.76953 1816.9746 L 734.24414 1816.9746 C 779.03428 1798.1627 815.31406 1770.8398 843.08398 1735.0078 C 851.14624 1697.3839 849.57647 1642.5186 838.37891 1570.4062 C 827.18138 1498.2941 811.73118 1387.661 792.02344 1238.5098 C 772.31578 1089.3584 787.54394 932.36889 837.70898 767.54102 C 861.89566 774.70746 885.63486 773.36358 908.92578 763.50977 z M 587.7793 920.72461 C 600.32056 921.62064 610.62332 922.06641 618.68555 922.06641 L 618.68555 928.78516 L 602.56055 928.78516 C 594.49834 927.88931 589.57089 925.20367 587.7793 920.72461 z M 654.96484 926.09961 C 667.50611 927.89112 684.52806 942.22343 706.02734 969.09766 L 759.77344 969.09766 L 758.42969 982.53516 L 735.58594 982.53516 C 709.60765 988.80593 683.18271 991.04365 656.30859 989.25195 C 658.99605 983.87721 658.10014 980.29561 653.62109 978.50391 C 658.99587 977.60824 662.57952 975.81627 664.37109 973.12891 C 666.16269 970.44154 664.81887 967.75397 660.33984 965.06641 C 666.6105 965.06641 670.19403 962.37883 671.08984 957.00391 C 671.08984 953.42069 668.40221 950.73293 663.02734 948.94141 C 667.5061 946.25386 669.07421 943.34233 667.73047 940.20703 C 666.38677 937.07174 662.13128 934.60988 654.96484 932.81836 L 654.96484 926.09961 z M 599.87305 935.50391 L 656.30859 939.53516 C 659.89185 941.32667 659.89185 943.56673 656.30859 946.25391 L 599.87305 942.22266 C 598.08146 939.5353 598.08146 937.29543 599.87305 935.50391 z M 599.87305 947.59766 L 660.33984 954.31641 C 663.923 956.10793 663.923 957.8999 660.33984 959.69141 L 599.87305 954.31641 C 598.08146 951.62904 598.08146 949.38918 599.87305 947.59766 z M 599.87305 961.03516 L 654.96484 966.41016 C 657.6523 969.09753 657.20427 971.33739 653.62109 973.12891 L 599.87305 969.09766 C 598.08146 965.51444 598.08146 962.82668 599.87305 961.03516 z M 601.2168 977.16016 L 640.18359 979.8457 C 642.87105 982.53325 642.87105 984.77489 640.18359 986.56641 L 601.2168 985.2207 C 599.42521 981.63748 599.42521 978.95186 601.2168 977.16016 z M 734.24414 1001.3457 L 754.39844 1001.3457 L 750.36914 1043 L 712.74414 1043 C 687.66161 1020.6051 666.6101 1009.4082 649.58984 1009.4082 L 649.58984 1004.0332 C 673.77652 1007.6164 701.99516 1006.7205 734.24414 1001.3457 z M 630.19141 1029.6484 C 659.58498 1028.4728 684.864 1039.6413 706.02734 1063.1562 L 747.67969 1063.1562 L 747.67969 1075.252 L 718.11719 1075.252 C 672.4312 1085.1058 641.97474 1087.7896 626.74609 1083.3105 C 621.37129 1077.0399 618.46129 1069.4266 618.01367 1060.4688 C 617.56606 1051.5105 617.3418 1041.6579 617.3418 1030.9082 C 621.70885 1030.2362 625.99231 1029.8164 630.19141 1029.6484 z " />
  <metadata
     id="metadata1">
    <rdf:RDF>
      <cc:Work
         rdf:about="">
        <dc:title>C20A</dc:title>
        <dc:creator>
          <cc:Agent>
            <dc:title>S. J. P. Thomas</dc:title>
          </cc:Agent>
        </dc:creator>
        <dc:description>Modified by S. Rosmorduc (straight beard, simplified wAs)
</dc:description>
      </cc:Work>
    </rdf:RDF>
  </metadata>
</svg>
