<?xml version="1.0" encoding="UTF-8" standalone="no"?>
<svg
   xmlns:dc="http://purl.org/dc/elements/1.1/"
   xmlns:cc="http://web.resource.org/cc/"
   xmlns:rdf="http://www.w3.org/1999/02/22-rdf-syntax-ns#"
   xmlns:svg="http://www.w3.org/2000/svg"
   xmlns="http://www.w3.org/2000/svg"
   xmlns:sodipodi="http://sodipodi.sourceforge.net/DTD/sodipodi-0.dtd"
   xmlns:inkscape="http://www.inkscape.org/namespaces/inkscape"
   width="1800"
   height="1800"
   id="svg2"
   sodipodi:version="0.32"
   inkscape:version="0.45.1"
   sodipodi:docname="C214A.svg"
   sodipodi:docbase="/Users/rosmord/Travail/Gsigns/SThomasDetail/ManuelDeCodage/C"
   inkscape:output_extension="org.inkscape.output.svg.inkscape"
   version="1.0">
  <metadata
     id="metadata9">
    <rdf:RDF>
      <cc:Work
         rdf:about="">
        <dc:format>image/svg+xml</dc:format>
        <dc:type
           rdf:resource="http://purl.org/dc/dcmitype/StillImage" />
      </cc:Work>
    </rdf:RDF>
  </metadata>
  <defs
     id="defs7" />
  <sodipodi:namedview
     inkscape:window-height="581"
     inkscape:window-width="701"
     inkscape:pageshadow="2"
     inkscape:pageopacity="0.0"
     guidetolerance="10.0"
     gridtolerance="10.0"
     objecttolerance="10.0"
     borderopacity="1.0"
     bordercolor="#666666"
     pagecolor="#ffffff"
     id="base"
     width="1800px"
     height="1800px"
     inkscape:zoom="0.21"
     inkscape:cx="900"
     inkscape:cy="743.4889"
     inkscape:window-x="0"
     inkscape:window-y="22"
     inkscape:current-layer="svg2" />
  <path
     style="fill:#000000;stroke:none"
     d="M 485.82435,482.82494 C 535.78674,468.20182 571.73525,466.37392 593.66991,477.34125 C 615.60462,488.30857 627.79059,503.54101 630.2278,523.03857 C 636.32075,505.97824 649.7253,497.44806 670.44144,497.44806 C 697.25047,497.44806 711.56896,507.80611 713.39692,528.52218 C 715.22476,549.23831 708.82711,571.47768 694.20399,595.2403 C 679.58087,619.00285 668.00422,637.58643 659.47405,650.99103 L 659.47405,983.6673 L 911.72314,983.6673 C 914.16033,748.47852 901.6698,587.01473 874.25145,499.27593 C 846.83304,411.53713 799.61247,365.23055 732.58975,360.35618 C 665.56704,355.4818 607.68377,363.09802 558.93997,383.20484 C 510.19623,403.31159 485.82435,436.5183 485.82435,482.82494 z M 617.43255,846.57541 C 562.59579,1003.7741 522.38216,1227.3862 496.79165,1517.4117 L 443.78285,1517.4117 C 359.69979,1312.6878 301.81653,1191.4377 270.13307,1153.6613 C 238.44961,1115.8848 205.54756,1100.3477 171.42694,1107.05 C 137.30626,1113.7522 122.07382,1145.7404 125.72962,1203.0143 C 129.38542,1260.2883 147.66433,1344.6759 180.56637,1456.1774 C 213.46842,1567.6788 201.89177,1668.5174 145.83643,1758.6935 L 805.70546,1758.6935 L 725.27819,1683.75 C 783.77075,1617.9459 816.67278,1522.8955 823.98432,1398.5988 C 825.20289,1227.9956 821.54713,1101.871 813.01702,1020.2251 L 617.43255,1020.2251 L 617.43255,846.57541 z M 593.66991,826.4686 L 619.26042,789.91079 L 619.26042,645.50725 L 675.92504,557.76851 C 682.01805,533.39658 678.97157,521.21062 666.78561,521.21062 C 655.81829,521.21062 647.89743,532.78726 643.02306,555.94056 L 611.94886,555.94056 C 613.16749,529.13152 600.98156,511.15727 575.39105,502.01778 C 549.80054,492.87835 518.11708,497.44809 480.34066,515.72701 C 477.90345,519.38275 476.68483,524.25712 476.68483,530.35014 C 491.30802,518.16417 505.32185,512.07119 518.72633,512.07119 C 533.34952,512.07119 549.80057,515.72699 568.07949,523.03857 L 602.80943,523.03857 L 602.80943,537.6617 L 568.07949,537.6617 C 547.36335,532.78732 531.52162,530.35014 520.55429,530.35014 C 510.80554,530.35014 497.401,534.61522 480.34066,543.14539 L 474.85697,534.00596 L 473.0291,565.08008 C 452.31296,604.07513 441.9549,627.83771 441.9549,636.36782 C 465.10819,642.46077 473.63835,653.42813 467.54541,669.26989 L 505.93117,671.09776 C 512.02412,672.31634 515.0706,677.80003 515.0706,687.54884 C 496.79168,689.986 487.04293,701.56264 485.82435,722.27878 C 485.82435,735.68333 496.18239,742.3856 516.89847,742.3856 L 555.28423,742.3856 C 565.03298,789.91076 577.82821,817.93842 593.66991,826.4686 z M 602.80943,546.80113 L 602.80943,563.25221 L 549.80054,563.25221 C 541.27037,581.53113 528.47511,591.27988 511.41477,592.49845 C 495.57308,593.71703 482.77785,590.06124 473.0291,581.53107 C 477.90347,554.72198 488.87083,540.70814 505.93117,539.48957 C 522.99145,538.27099 539.44247,540.70818 555.28423,546.80113 L 602.80943,546.80113 z M 494.96378,554.11269 C 487.65219,561.42428 483.3871,569.34516 482.16853,577.87533 L 500.44748,581.53107 C 494.35453,580.31249 490.69873,576.96135 489.48009,571.47766 C 488.26151,565.99403 490.08941,560.2057 494.96378,554.11269 z M 546.14471,555.94056 C 536.39596,551.06618 526.03792,548.62899 515.0706,548.62899 C 522.38219,549.84763 526.64728,554.11272 527.86585,561.42425 C 529.08443,568.73584 527.86583,574.82882 524.21003,579.7032 C 533.95878,574.82882 541.27034,566.90794 546.14471,555.94056 z M 92.827547,1014.7415 C 92.827547,1050.0807 111.71575,1067.7503 149.49217,1067.7503 L 231.7473,1067.7503 C 213.46838,1032.4111 186.05,1014.7415 149.49217,1014.7415 L 92.827547,1014.7415 z M 621.08828,157.46014 C 627.1813,156.24157 631.44642,156.54623 633.88363,158.37412 C 636.32079,160.20202 636.93007,163.55316 635.7115,168.42753 C 634.49292,173.30191 631.44642,175.1298 626.57198,173.91123 C 616.82323,170.25543 614.99533,164.77173 621.08828,157.46014 z M 613.77681,157.46014 C 610.12101,161.11594 607.68383,168.42751 606.46525,179.39483 C 596.71644,195.23659 586.96766,206.20395 577.21892,212.2969 C 583.31187,218.38985 582.09326,223.26422 573.56309,226.92002 C 577.21894,233.01304 583.92122,236.66884 593.66991,237.88741 L 606.46525,226.92002 C 619.86974,234.23161 636.93005,236.05952 657.64618,232.40372 L 661.30201,236.05954 C 684.4553,222.655 696.03195,197.06449 696.03195,159.28801 C 689.93893,156.85085 686.89243,151.97648 686.89243,144.66489 C 674.70652,144.66489 668.61357,136.13475 668.61357,119.07447 C 657.64618,114.2001 648.50673,116.63728 641.19519,126.38603 C 636.32082,138.57194 627.18136,148.92997 613.77681,157.46014 z M 703.34351,141.00915 C 703.34351,147.1021 710.65507,151.97648 725.27819,155.63228 C 743.55711,148.32069 753.91515,140.39981 756.3523,131.86963 C 728.32464,131.86963 710.65504,134.91614 703.34351,141.00915 z M 770.97543,314.65885 L 770.97543,290.8963 C 770.97543,231.18517 751.47793,190.97154 712.48294,170.2554 C 718.57589,204.37602 705.17135,231.7944 672.2693,252.51053 C 644.24163,270.78945 629.61848,292.11485 628.39985,316.48672 L 770.97543,314.65885 z M 604.63729,336.59353 C 604.63729,293.94274 620.47903,264.08718 652.16249,247.02684 C 632.66499,251.90121 618.04187,251.29192 608.29312,245.19897 C 608.29312,253.72914 601.59085,256.77562 588.1863,254.3384 C 566.25159,247.02687 554.67494,233.62233 553.45636,214.12477 C 553.45636,211.68761 559.54931,205.59466 571.73522,195.84591 L 591.84204,170.2554 C 590.62346,161.72523 594.88855,152.89043 604.63729,143.751 C 614.38604,134.61151 619.26042,128.21387 619.26042,124.55807 C 602.20008,98.967627 594.58389,79.470128 596.41184,66.065583 C 598.23968,52.661038 594.27923,33.772801 584.53048,9.400869 C 583.3119,5.7451339 583.61656,3.0033173 585.44446,1.1754194 C 587.27235,-0.6524785 590.01417,-0.34784909 593.66991,2.0893077 C 608.29309,15.493852 616.21397,31.335583 617.43255,49.614502 C 619.86971,75.205012 630.83706,89.828165 650.33462,93.483961 C 661.30194,94.702536 668.61351,97.749015 672.2693,102.62339 C 680.79948,96.53044 692.37612,94.093253 706.99924,95.311828 C 726.49674,91.656029 737.46406,77.032909 739.90122,51.44246 C 739.90122,34.382121 747.8221,18.540389 763.66387,3.9172663 C 766.10108,1.4800489 768.53827,1.1753891 770.97543,3.003287 C 773.41264,4.8311849 774.02196,6.9637122 772.80339,9.400869 C 761.836,34.991379 757.26626,54.488906 759.09415,67.893451 C 760.92205,81.297995 753.30583,100.1862 736.24549,124.55807 C 753.30583,120.90234 764.27319,122.73023 769.14756,130.04177 C 766.7104,142.22773 755.74305,153.19509 736.24549,162.94384 C 774.02196,187.31571 792.9102,233.01301 792.9102,300.03573 L 792.9102,336.59353 L 604.63729,336.59353 z M 96.483373,976.35574 L 96.483373,534.00596 C 74.548659,486.48074 52.613944,456.01586 30.67923,442.61131 C 18.493264,447.48568 9.3538047,448.70426 3.2608521,446.26704 C -2.8321004,443.82988 -0.39491333,437.73694 10.572413,427.98819 C 33.725706,403.61625 70.892833,391.43029 122.07379,391.43029 C 173.25481,391.43029 211.03126,403.61625 235.40313,427.98819 C 246.37052,437.73694 248.8077,443.82988 242.71469,446.26704 C 236.62174,448.70426 226.87299,447.48568 213.46844,442.61131 C 192.75231,456.01586 171.42688,486.48074 149.49217,534.00596 L 147.6643,974.52787 L 149.49217,974.52787 L 149.49217,974.52787 C 207.98472,974.52787 251.85415,1011.695 281.10046,1086.0293 C 357.87192,1195.7028 416.36445,1306.5949 456.57802,1418.7056 C 488.26148,1189.6097 513.54733,1043.0738 532.43557,979.09759 C 551.32381,915.12131 563.81441,874.60308 569.90735,857.5428 C 550.40986,836.82667 537.6146,805.14321 531.52159,762.49241 L 505.93117,762.49241 C 469.37334,757.61804 454.14089,739.94841 460.23384,709.48352 C 462.67106,709.48352 458.40598,705.82773 447.43859,698.51614 C 446.22001,694.86034 447.43862,690.59528 451.09442,685.72097 C 446.22004,683.28376 443.17353,680.23725 441.9549,676.58145 L 443.78285,660.13046 C 425.50393,658.91189 416.36448,654.6468 416.36448,647.33521 C 416.36448,631.49351 426.72252,604.07513 447.43859,565.08008 C 443.78279,545.58258 445.0014,525.47576 451.09442,504.75963 C 451.09442,452.36009 464.1943,412.75574 490.39407,385.9466 C 516.59383,359.13756 547.97264,340.55402 584.53048,330.19595 C 621.08831,319.83788 671.35535,314.96351 735.3316,315.57283 C 799.30778,316.18208 852.6213,355.48177 895.27215,433.47188 C 937.92297,511.46193 958.0297,707.04634 955.59251,1020.2251 L 860.54221,1020.2251 C 865.41659,1157.9263 866.63516,1264.5533 864.19795,1340.1062 C 870.2909,1489.9934 844.09113,1603.932 785.59864,1681.922 L 909.89527,1800.7349 L 65.409169,1800.7349 C 144.61786,1699.5916 166.24791,1585.6531 130.29933,1458.9192 C 94.350818,1332.1853 75.157947,1233.4792 72.72073,1162.8008 C 71.502152,1128.6801 77.595134,1103.0896 90.999679,1086.0293 C 65.409169,1086.0293 53.832523,1062.8759 56.26974,1016.5694 C 17.274685,989.76032 30.67923,976.35574 96.483373,976.35574 z M 122.07379,521.21062 L 123.90175,521.21062 C 144.61782,482.21562 167.77112,451.14148 193.36163,427.98819 C 173.86413,419.45801 150.71084,415.19293 123.90175,415.19293 C 97.092665,415.19293 73.939369,419.45801 54.441872,427.98819 C 80.032322,451.14148 102.57629,482.21562 122.07379,521.21062 z "
     id="path4" />
</svg>
