<?xml version="1.0" encoding="UTF-8" standalone="no"?>
<svg
   xmlns:dc="http://purl.org/dc/elements/1.1/"
   xmlns:cc="http://web.resource.org/cc/"
   xmlns:rdf="http://www.w3.org/1999/02/22-rdf-syntax-ns#"
   xmlns:svg="http://www.w3.org/2000/svg"
   xmlns="http://www.w3.org/2000/svg"
   xmlns:sodipodi="http://sodipodi.sourceforge.net/DTD/sodipodi-0.dtd"
   xmlns:inkscape="http://www.inkscape.org/namespaces/inkscape"
   width="11.165184"
   height="18"
   id="svg2"
   sodipodi:version="0.32"
   inkscape:version="0.45.1"
   sodipodi:docname="C216A.svg"
   sodipodi:docbase="/Users/rosmord/Travail/Gsigns/SThomasDetail/ManuelDeCodage/C"
   inkscape:output_extension="org.inkscape.output.svg.inkscape"
   version="1.0">
  <metadata
     id="metadata9">
    <rdf:RDF>
      <cc:Work
         rdf:about="">
        <dc:format>image/svg+xml</dc:format>
        <dc:type
           rdf:resource="http://purl.org/dc/dcmitype/StillImage" />
      </cc:Work>
    </rdf:RDF>
  </metadata>
  <defs
     id="defs7" />
  <sodipodi:namedview
     inkscape:window-height="581"
     inkscape:window-width="701"
     inkscape:pageshadow="2"
     inkscape:pageopacity="0.0"
     guidetolerance="10.0"
     gridtolerance="10.0"
     objecttolerance="10.0"
     borderopacity="1.0"
     bordercolor="#666666"
     pagecolor="#ffffff"
     id="base"
     height="18px"
     width="11.165184px"
     inkscape:zoom="16.821728"
     inkscape:cx="5.5812296"
     inkscape:cy="6.7645309"
     inkscape:window-x="0"
     inkscape:window-y="22"
     inkscape:current-layer="svg2" />
  <path
     style="fill:#000000;stroke:none"
     d="M 4.2407658,6.4277052 C 4.6821995,6.2985052 4.9998165,6.2823554 5.1936168,6.3792558 C 5.3874165,6.4761557 5.4950832,6.6107392 5.5166168,6.7830065 C 5.5704505,6.6322723 5.688884,6.5569052 5.8719172,6.5569052 C 6.1087841,6.5569052 6.2352926,6.6484221 6.2514427,6.8314559 C 6.2675922,7.014489 6.211067,7.2109811 6.081867,7.420932 C 5.952667,7.6308818 5.8503836,7.7950734 5.7750168,7.9135069 L 5.7750168,10.85281 L 8.0037188,10.85281 C 8.0252524,8.774841 7.9148939,7.3482564 7.6726435,6.5730558 C 7.4303935,5.7978553 7.0131849,5.3887217 6.4210176,5.345655 C 5.8288503,5.3025884 5.3174332,5.3698799 4.8867666,5.5475295 C 4.4560993,5.7251797 4.2407658,6.0185717 4.2407658,6.4277052 z M 5.4035666,9.6415587 C 4.9190662,11.03046 4.563766,13.006145 4.3376662,15.568613 L 3.8693156,15.568613 C 3.1264146,13.759812 2.6149973,12.688527 2.3350637,12.35476 C 2.0551302,12.020994 1.76443,11.88372 1.4629633,11.942936 C 1.1614961,12.002152 1.0269126,12.284778 1.0592127,12.790811 C 1.0915129,13.296845 1.253013,14.042437 1.5437131,15.027588 C 1.8344138,16.012739 1.7321304,16.903682 1.2368629,17.700415 L 7.0670184,17.700415 L 6.3564176,17.038266 C 6.8732181,16.456865 7.1639182,15.617064 7.228518,14.518862 C 7.2392851,13.011528 7.2069852,11.897177 7.1316184,11.17581 L 5.4035666,11.17581 L 5.4035666,9.6415587 z M 5.1936168,9.4639085 L 5.4197172,9.1409077 L 5.4197172,7.8650567 L 5.9203674,7.0898567 C 5.9742006,6.8745228 5.947284,6.7668559 5.8396176,6.7668559 C 5.7427172,6.7668559 5.6727336,6.8691392 5.629667,7.0737061 L 5.3551172,7.0737061 C 5.3658837,6.8368391 5.2582168,6.6780305 5.0321164,6.5972801 C 4.806016,6.5165303 4.5260824,6.5569055 4.1923156,6.7184056 C 4.1707825,6.7507058 4.160016,6.7937727 4.160016,6.8476065 C 4.289216,6.739939 4.4130327,6.6861052 4.5314662,6.6861052 C 4.6606662,6.6861052 4.8060162,6.7184056 4.9675164,6.7830065 L 5.2743666,6.7830065 L 5.2743666,6.9122065 L 4.9675164,6.9122065 C 4.7844826,6.8691398 4.6445158,6.8476065 4.547616,6.8476065 C 4.4614826,6.8476065 4.3430491,6.8852896 4.1923156,6.9606559 L 4.1438654,6.8799061 L 4.1277156,7.1544567 C 3.9446824,7.49899 3.8531658,7.70894 3.8531658,7.7843069 C 4.0577326,7.83814 4.1330991,7.9350402 4.0792654,8.0750073 L 4.418416,8.0911571 C 4.4722491,8.1019233 4.4991658,8.1503735 4.4991658,8.2365069 C 4.3376656,8.2580402 4.2515323,8.3603241 4.2407658,8.5433579 C 4.2407658,8.6617908 4.3322824,8.7210073 4.5153156,8.7210073 L 4.8544662,8.7210073 C 4.9405995,9.1409077 5.0536497,9.3885414 5.1936168,9.4639085 z M 5.2743666,6.9929563 L 5.2743666,7.1383061 L 4.806016,7.1383061 C 4.7306491,7.2998062 4.6175993,7.3859398 4.4668662,7.3967069 C 4.3268991,7.4074729 4.2138489,7.3751727 4.1277156,7.2998065 C 4.1707822,7.0629395 4.2676824,6.9391225 4.418416,6.9283554 C 4.5691495,6.9175894 4.7144997,6.9391231 4.8544662,6.9929563 L 5.2743666,6.9929563 z M 4.3215156,7.0575563 C 4.2569158,7.1221565 4.2192324,7.19214 4.2084654,7.2675069 L 4.3699658,7.2998065 C 4.3161326,7.2890399 4.2838324,7.2594316 4.2730654,7.2109814 C 4.2622989,7.1625312 4.2784489,7.1113894 4.3215156,7.0575563 z M 4.7737164,7.0737061 C 4.687583,7.0306394 4.5960662,7.0091061 4.4991658,7.0091061 C 4.563766,7.0198731 4.6014495,7.0575565 4.612216,7.1221563 C 4.6229825,7.1867565 4.6122157,7.24059 4.5799156,7.2836567 C 4.6660495,7.24059 4.7306497,7.1706065 4.7737164,7.0737061 z M 0.76851234,11.12736 C 0.76851234,11.439593 0.93539603,11.59571 1.2691633,11.59571 L 1.9959139,11.59571 C 1.8344138,11.283477 1.5921636,11.12736 1.2691633,11.12736 L 0.76851234,11.12736 z M 6.017267,0.8721004 L 6.3402678,0.8721004 C 6.4479342,0.79673414 6.5313758,0.69445074 6.5905925,0.5652502 C 6.6498092,0.4360502 6.6202009,0.39298354 6.5017674,0.4360502 C 6.4048675,0.47911687 6.3295007,0.43874197 6.275667,0.3149255 C 6.2218338,0.1911085 6.1653088,0.1911085 6.1060921,0.3149255 C 6.0468754,0.43874197 5.968817,0.4737336 5.8719172,0.4199004 C 5.7534837,0.37683374 5.7211836,0.4199004 5.7750168,0.5491004 C 5.8288505,0.6783004 5.9096006,0.78596707 6.017267,0.8721004 z M 5.2905164,1.5827012 L 4.5637658,4.1182534 L 5.0805666,4.2151538 L 5.629667,1.5181012 C 5.4466338,1.065901 5.2609085,0.90170904 5.0724913,1.0255255 C 4.8840746,1.1493425 4.9567495,1.3350677 5.2905164,1.5827012 z M 5.952667,0.98515061 L 5.952667,1.1789506 L 6.4048678,1.1789506 L 6.4048678,1.0013012 L 5.952667,0.98515061 z M 7.228518,4.2151538 L 7.6807188,4.0536534 C 7.3577185,2.7724189 7.158535,1.9541514 7.0831682,1.598851 C 7.3738683,1.3081508 7.4142432,1.1197341 7.2042929,1.0336008 C 6.9943431,0.94746747 6.8301515,1.1089676 6.711718,1.5181012 L 7.228518,4.2151538 z M 6.1464678,5.1034048 C 6.329501,4.9311376 6.4936926,4.8234707 6.6390427,4.780404 C 6.7843927,4.7373374 6.9728095,4.6915792 7.2042929,4.6431295 C 7.4357768,4.5946793 7.7022521,4.6242874 8.0037188,4.7319538 C 8.3051863,4.8396207 8.5528192,4.8234707 8.7466192,4.6835036 C 8.5420521,4.7481039 8.2917274,4.715804 7.9956443,4.586604 C 7.6995606,4.457404 7.4357768,4.4143374 7.2042929,4.457404 C 6.9728095,4.5004707 6.7843927,4.5381541 6.6390427,4.5704542 C 6.4936926,4.6027544 6.329501,4.7050378 6.1464678,4.8773044 C 5.9742006,4.7050378 5.8153919,4.6027544 5.6700419,4.5704542 C 5.5246918,4.5381541 5.336275,4.4977789 5.1047917,4.4493287 C 4.8733077,4.4008785 4.6095242,4.4412537 4.3134411,4.5704542 C 4.0173574,4.6996542 3.7670319,4.7319541 3.5624646,4.6673538 C 3.7562654,4.8180874 4.0038991,4.8396207 4.3053658,4.7319538 C 4.6068324,4.6242874 4.8733077,4.5946793 5.1047917,4.6431295 C 5.336275,4.6915792 5.5246918,4.7373374 5.6700419,4.780404 C 5.8153919,4.8234707 5.9742006,4.9257541 6.1464678,5.0872542 L 6.1464678,5.1034048 z M 8.0037188,4.4089538 C 8.2944192,4.5489209 8.5016772,4.5919876 8.6254945,4.5381538 C 8.749311,4.4843207 8.8327525,4.4466372 8.87582,4.4251036 C 8.9619533,4.4035705 8.9942529,4.441254 8.9727196,4.5381538 C 8.87582,4.8073209 8.6981698,4.9472877 8.439769,4.9580542 C 8.181369,4.9688207 7.9687272,4.9365209 7.8018435,4.8611546 C 7.6349604,4.7857878 7.4357768,4.7750211 7.2042929,4.8288542 C 6.9728095,4.8826874 6.7843927,4.9284458 6.6390427,4.9661295 C 6.4936926,5.0038127 6.3671841,5.1087878 6.2595172,5.281055 L 6.0495674,5.281055 C 5.9419005,5.1087878 5.8153919,5.0011209 5.6700419,4.9580542 C 5.5246918,4.9149876 5.336275,4.8692291 5.1047917,4.8207789 C 4.8733077,4.7723293 4.6741242,4.7857878 4.5072411,4.8611546 C 4.3403574,4.9365209 4.1277156,4.9688207 3.8693156,4.9580542 C 3.610915,4.9472877 3.4332648,4.8019376 3.336365,4.522004 C 3.3148314,4.4358707 3.3471315,4.4035705 3.4332654,4.4251036 C 3.476332,4.4466372 3.5597736,4.4843207 3.6835901,4.5381538 C 3.8074071,4.5919876 4.0146656,4.5489209 4.3053658,4.4089538 C 4.4022656,4.3658872 4.4560991,4.3443538 4.4668662,4.3443538 C 4.305366,4.2905207 4.2730659,4.1720872 4.3699658,3.9890534 L 5.0482662,1.6634518 C 4.886766,1.5450183 4.7790993,1.4050516 4.7252662,1.2435514 C 4.671433,1.0820512 4.7252664,0.94477595 4.8867666,0.83172551 C 5.0482667,0.71867557 5.2259169,0.71329231 5.4197172,0.81557571 C 5.6135169,0.91785908 5.7211836,1.0497508 5.7427172,1.211251 L 5.823467,1.1305012 C 5.823467,1.0551344 5.7696338,0.91516763 5.6619674,0.71060081 C 5.5543005,0.506034 5.5166168,0.36068394 5.5489164,0.2745506 C 5.581217,0.22071687 5.6458173,0.19918327 5.7427172,0.2099498 C 5.839617,0.29608367 5.9203671,0.29608367 5.9849674,0.2099498 C 6.1249339,-0.069983267 6.2649007,-0.069983267 6.4048678,0.2099498 C 6.4264009,0.29608367 6.4963841,0.30146721 6.6148176,0.2261004 C 6.7224845,0.2045668 6.7870845,0.22071687 6.8086176,0.2745506 C 6.8516848,0.37145047 6.8193849,0.5221838 6.711718,0.72675061 C 6.6040511,0.93131743 6.5609844,1.0712842 6.582518,1.146651 L 6.6309682,1.2274008 C 6.6632678,1.0659006 6.7440178,0.94208394 6.8732184,0.85595061 C 7.0024184,0.76981727 7.1531517,0.76712577 7.3254184,0.84787611 C 7.4976851,0.92862591 7.5757433,1.0497508 7.5595933,1.211251 C 7.5434432,1.3727512 7.4546181,1.528868 7.293118,1.6796016 L 7.9068192,3.9729036 C 7.9498859,4.1344038 7.8637523,4.2366872 7.6484184,4.2797538 C 7.7237852,4.2905203 7.8422186,4.333587 8.0037188,4.4089538 z M 7.0024184,4.3120542 L 6.5017674,1.340451 C 6.286434,1.2866178 6.0711007,1.2866178 5.8557674,1.340451 L 5.3066662,4.3120542 C 5.4035666,4.3335873 5.5246918,4.3631956 5.6700419,4.4008793 C 5.8153919,4.4385625 5.9634338,4.5112375 6.1141674,4.6189044 L 6.1949172,4.6189044 C 6.3456508,4.5112375 6.4936926,4.4385625 6.6390427,4.4008793 C 6.7843927,4.3631956 6.905518,4.3335873 7.0024184,4.3120542 z M 1.0430629,10.675159 L 1.0592127,10.675159 C 1.1884127,10.492126 1.2583963,10.126059 1.2691633,9.5769587 C 1.2583963,9.2539587 1.1884127,8.5541241 1.0592127,7.4774559 L 1.0430629,7.4774559 C 0.91386294,8.5541241 0.84387941,9.2539587 0.83311234,9.5769587 C 0.84387941,10.126059 0.91386294,10.492126 1.0430629,10.675159 z M 1.0430629,7.0737061 L 1.0592127,7.0737061 C 1.2314794,6.6861061 1.4306629,6.3792558 1.6567633,6.1531554 C 1.4952632,6.0777886 1.2960796,6.0401052 1.0592127,6.0401052 C 0.8331129,6.0401052 0.63392934,6.0777886 0.46166214,6.1531554 C 0.67699601,6.3792558 0.87079627,6.6861061 1.0430629,7.0737061 z M 0.72006294,10.78821 L 0.60701274,10.319859 C 0.56394607,9.598492 0.59086267,8.9497994 0.68776254,8.3737822 C 0.7846624,7.7977655 0.83311234,7.4074734 0.83311234,7.2029061 C 0.6393126,6.7291727 0.45089587,6.4330893 0.26786214,6.3146558 C 0.1601952,6.3577225 0.079445133,6.368489 0.025611933,6.3469554 C -0.028221266,6.3254224 -0.0066879327,6.2608224 0.090211934,6.1531554 C 0.29477874,5.927055 0.617779,5.8140048 1.0592127,5.8140048 C 1.5006465,5.8140048 1.8236467,5.927055 2.0282135,6.1531554 C 2.1143469,6.2608224 2.1331887,6.3254224 2.0847391,6.3469554 C 2.0362888,6.368489 1.9582303,6.3577225 1.8505633,6.3146558 C 1.6675302,6.4330893 1.4791134,6.7291727 1.2853131,7.2029061 C 1.2853131,7.4074734 1.3337631,7.7977655 1.4306629,8.3737822 C 1.5275633,8.9497994 1.5490967,9.598492 1.4952629,10.319859 L 1.3499131,10.772059 C 1.81288,10.772059 2.1735636,11.100443 2.4319642,11.75721 C 3.1102648,12.726211 3.6270654,13.705979 3.9823658,14.696513 C 4.2622993,12.672378 4.4857077,11.377685 4.6525909,10.812434 C 4.8194746,10.247184 4.929833,9.8891916 4.9836662,9.7384583 C 4.8113995,9.5554253 4.6983495,9.2754912 4.6445164,8.8986575 L 4.418416,8.8986575 C 4.0954157,8.8555908 3.9608322,8.6994739 4.0146654,8.4303077 C 4.0361989,8.4303077 3.9985156,8.3980073 3.9016152,8.3334073 C 3.8908487,8.3011069 3.9016154,8.2634237 3.9339156,8.2203571 C 3.8908489,8.1988237 3.8639323,8.1719077 3.8531658,8.1396073 L 3.8693156,7.9942575 C 3.7078154,7.9834904 3.6270654,7.945807 3.6270654,7.8812073 C 3.6270654,7.7412402 3.718582,7.49899 3.9016152,7.1544567 C 3.8693156,6.9821894 3.8800824,6.804539 3.9339156,6.6215052 C 3.9339156,6.1585384 4.0496573,5.8086215 4.2811407,5.5717546 C 4.512624,5.3348877 4.7898662,5.1706958 5.112867,5.0791789 C 5.4358672,4.9876626 5.8799922,4.9445962 6.4452419,4.9499797 C 7.0104926,4.9553627 7.481535,5.3025878 7.858369,5.991655 C 8.2352027,6.6807228 8.4128529,8.4087743 8.3913196,11.17581 L 7.5515188,11.17581 C 7.5945855,12.392444 7.605352,13.334529 7.5838184,14.002063 C 7.6376521,15.326364 7.4061688,16.333047 6.8893682,17.022114 L 7.987569,18.071866 L 0.52626214,18.071866 C 1.2260964,17.178232 1.4172049,16.171548 1.0995876,15.051814 C 0.78197091,13.932079 0.61239573,13.059978 0.59086214,12.435511 C 0.58009561,12.134044 0.63392907,11.907944 0.75236254,11.75721 C 0.52626214,11.75721 0.42397874,11.552643 0.44551234,11.143509 C 0.10097846,10.906643 0.19249533,10.78821 0.72006294,10.78821 z "
     id="path4" />
</svg>
