<?xml version="1.0" encoding="UTF-8" standalone="no"?>
<svg
   xmlns:dc="http://purl.org/dc/elements/1.1/"
   xmlns:cc="http://web.resource.org/cc/"
   xmlns:rdf="http://www.w3.org/1999/02/22-rdf-syntax-ns#"
   xmlns:svg="http://www.w3.org/2000/svg"
   xmlns="http://www.w3.org/2000/svg"
   xmlns:sodipodi="http://sodipodi.sourceforge.net/DTD/sodipodi-0.dtd"
   xmlns:inkscape="http://www.inkscape.org/namespaces/inkscape"
   width="9.7274914"
   height="18"
   id="svg2"
   sodipodi:version="0.32"
   inkscape:version="0.45.1"
   sodipodi:docname="C216.svg"
   sodipodi:docbase="/Users/rosmord/Travail/Gsigns/SThomasDetail/ManuelDeCodage/C"
   inkscape:output_extension="org.inkscape.output.svg.inkscape"
   version="1.0">
  <metadata
     id="metadata9">
    <rdf:RDF>
      <cc:Work
         rdf:about="">
        <dc:format>image/svg+xml</dc:format>
        <dc:type
           rdf:resource="http://purl.org/dc/dcmitype/StillImage" />
      </cc:Work>
    </rdf:RDF>
  </metadata>
  <defs
     id="defs7" />
  <sodipodi:namedview
     inkscape:window-height="697"
     inkscape:window-width="781"
     inkscape:pageshadow="2"
     inkscape:pageopacity="0.0"
     guidetolerance="10.0"
     gridtolerance="10.0"
     objecttolerance="10.0"
     borderopacity="1.0"
     bordercolor="#666666"
     pagecolor="#ffffff"
     id="base"
     height="18px"
     width="9.7274914px"
     inkscape:zoom="17.481786"
     inkscape:cx="4.8637457"
     inkscape:cy="10.65509"
     inkscape:window-x="0"
     inkscape:window-y="22"
     inkscape:current-layer="svg2" />
  <path
     style="fill:#000000;stroke:none"
     d="M 4.7467183,7.0245467 L 4.7467183,7.1587472 L 4.3776665,7.1419723 C 4.2881996,7.2985393 4.1763658,7.3768227 4.0421654,7.3768227 C 3.9079649,7.3768227 3.7961312,7.3488643 3.7066642,7.2929476 C 3.7513977,7.0804634 3.8464563,6.9742213 3.99184,6.9742213 C 4.1372242,6.9742213 4.2658331,7.0021797 4.3776665,7.0580964 L 4.7467183,7.0245467 z M 3.9247397,7.0748721 C 3.846456,7.1196056 3.8073141,7.1811139 3.8073141,7.2593971 C 3.8520476,7.2817641 3.9079646,7.2929476 3.9750651,7.2929476 C 3.9303316,7.2705806 3.902373,7.2398263 3.8911892,7.2006847 C 3.880006,7.1615431 3.8911894,7.1196056 3.9247397,7.0748721 z M 4.2937915,7.1084226 C 4.2266915,7.0636885 4.1428161,7.0413215 4.0421654,7.0413215 C 4.1204491,7.0636885 4.159591,7.0972388 4.159591,7.1419723 C 4.159591,7.1867058 4.1428159,7.2314393 4.1092656,7.2761728 C 4.1987326,7.2314393 4.2602412,7.1755226 4.2937915,7.1084226 z M 4.7970436,7.779425 L 5.2164208,7.1084226 C 5.2723375,6.9183048 5.2555624,6.823246 5.1660954,6.823246 C 5.0766284,6.823246 5.0151198,6.9183048 4.9815695,7.1084226 L 4.7802688,7.1084226 C 4.7802688,6.8959379 4.6796183,6.7589414 4.4783173,6.6974333 C 4.2770164,6.6359242 4.0365735,6.6499031 3.7569887,6.73937 C 3.723439,6.7505533 3.7066642,6.7896954 3.7066642,6.8567965 C 3.8296809,6.7785122 3.9471062,6.73937 4.0589402,6.73937 C 4.159591,6.73937 4.2770166,6.7841035 4.4112171,6.8735705 L 4.6963937,6.8735705 L 4.6963937,6.9742213 L 4.4112171,6.9742213 C 4.2546496,6.9071208 4.137224,6.8735705 4.0589402,6.8735705 C 3.9806564,6.8847543 3.880006,6.9183046 3.7569887,6.9742213 L 3.7066642,6.9071211 L 3.7066642,7.175522 C 3.5389134,7.4551067 3.4550381,7.634041 3.4550381,7.7123247 C 3.6451552,7.7570582 3.7066639,7.8465252 3.6395639,7.9807257 L 3.9415146,7.9975014 C 3.9974319,8.0086841 4.0253905,8.0534172 4.0253905,8.131701 C 3.868823,8.1428848 3.7905393,8.2267601 3.7905393,8.3833271 C 3.7905393,8.4616111 3.8744146,8.5007536 4.0421654,8.5007536 L 4.4950922,8.5007536 C 4.5174592,8.6908705 4.5538054,8.8390507 4.6041308,8.9452925 C 4.6544556,9.0515344 4.7075767,9.1382054 4.7634939,9.2053056 L 4.7970436,9.1885316 L 4.7970436,7.779425 z M 4.7970436,11.570591 L 4.7970436,9.8427583 C 4.0924905,10.614412 3.9191481,11.190357 4.2770166,11.570591 C 4.3552998,12.767213 4.2155074,13.77931 3.8576395,14.60688 C 3.7569893,15.020665 3.5556883,15.126907 3.2537365,14.925606 L 2.6833841,14.187503 L 1.1568527,11.906093 C 0.68715072,11.570592 0.45229975,11.676834 0.45229975,12.22482 L 1.5762298,15.646935 C 1.8446307,16.273203 1.9592604,16.714947 1.9201188,16.972166 C 1.8809766,17.229383 1.8110804,17.413909 1.7104302,17.525743 L 6.1725998,17.525743 C 5.803548,17.145508 5.697306,16.650644 5.8538734,16.041149 C 6.0104409,15.431654 6.1418458,14.687959 6.2480878,13.810064 C 6.3543299,12.932169 6.4130427,12.185677 6.4242259,11.570591 L 4.7970436,11.570591 z M 3.8911892,6.5045188 C 4.2043242,6.4374188 4.444767,6.4402148 4.6125178,6.5129066 C 4.7802685,6.5855985 4.8753271,6.7002285 4.8976936,6.8567965 C 4.9312444,6.6554955 5.0318951,6.5604367 5.1996459,6.5716199 C 5.4233134,6.5268858 5.5379428,6.6079653 5.5435341,6.8148581 C 5.549126,7.0217505 5.4960049,7.2174595 5.3841709,7.4019854 C 5.2723375,7.5865119 5.1828705,7.7235083 5.11577,7.8129747 L 5.11577,11.251865 L 7.0113531,11.23509 C 7.0337201,8.8642134 6.9833951,7.4830656 6.8603778,7.0916469 C 6.7709108,6.800879 6.6590771,6.5184985 6.5248766,6.2445057 C 6.3906756,5.9705129 6.1334576,5.7775994 5.7532227,5.6657654 C 5.3729877,5.5539314 4.9843652,5.5539314 4.5873551,5.6657654 C 4.190345,5.7775994 3.9582897,6.0571839 3.8911892,6.5045188 z M 1.4420293,11.570591 L 3.4214875,14.455905 C 3.8017225,13.594784 3.9582897,12.65538 3.8911892,11.637692 C 3.6339715,11.324556 3.5948299,11.00583 3.7737644,10.681513 C 3.9526984,10.357195 4.1344283,10.07761 4.3189541,9.8427583 C 4.50348,9.6079079 4.6013346,9.4848904 4.6125178,9.4737074 C 4.4000335,9.1493892 4.2881998,8.8865801 4.2770166,8.6852794 L 3.9582903,8.6852794 C 3.6563385,8.6964624 3.5389129,8.5622611 3.6060134,8.2826772 L 3.5053626,8.2491275 C 3.4941794,8.1932102 3.5053629,8.1428848 3.5389132,8.0981513 C 3.4829965,8.0869675 3.4494462,8.0590089 3.4382624,8.0142754 L 3.4885878,7.8800749 C 3.3432041,7.8800749 3.2705122,7.8521165 3.2705122,7.7961998 C 3.2705122,7.6731831 3.3487957,7.4662905 3.5053626,7.175522 C 3.4718129,7.0301383 3.4829965,6.8791627 3.5389132,6.7225952 C 3.5389132,6.3423603 3.6703179,6.0068588 3.9331276,5.7160908 C 4.1959366,5.4253229 4.6181094,5.2855305 5.1996459,5.2967137 C 6.0160325,5.2967137 6.5835893,5.61544 6.9023162,6.2528927 C 7.2210419,6.890346 7.3692217,7.8129749 7.3468552,9.0207798 L 7.36363,11.570591 L 6.7932776,11.570591 C 6.6590771,13.807268 6.496918,15.21917 6.3068002,15.806297 C 6.1166831,16.393426 6.2844337,17.005716 6.8100524,17.643169 C 7.0113534,17.822103 7.0113534,17.961895 6.8100524,18.062545 L 0.80457578,18.062545 C 0.68155854,17.917161 0.75425067,17.766186 1.0226522,17.609618 C 1.2910531,17.453051 1.4364371,17.262933 1.4588041,17.039265 C 1.4923544,16.826781 1.0170605,15.249924 0.03292264,12.308695 C -0.067727576,11.850176 0.058085611,11.537042 0.4103622,11.369291 C 0.76263824,11.20154 1.1009354,11.26864 1.4252536,11.570591 L 1.4420293,11.570591 z M 5.0486697,0.90164441 L 5.3841709,0.91841926 C 5.5071882,0.82895228 5.5966552,0.71711855 5.6525719,0.58291808 C 5.7084892,0.4487176 5.6805308,0.40398411 5.5686968,0.4487176 C 5.4568628,0.4934511 5.3729874,0.45430922 5.3170707,0.33129198 C 5.261154,0.20827474 5.2024413,0.20827474 5.1409327,0.33129198 C 5.0794241,0.45430922 4.9983444,0.48785948 4.8976936,0.43194275 C 4.7746769,0.38720926 4.7411269,0.43194275 4.7970436,0.56614323 C 4.8529603,0.7003437 4.9368358,0.81217743 5.0486697,0.90164441 z M 4.2937915,1.6565227 L 3.5389132,4.2902093 L 4.0757151,4.3908601 L 4.6460675,1.5726476 C 4.4559503,1.1029457 4.2630371,0.93519495 4.067328,1.0693954 C 3.871619,1.2035959 3.9471067,1.399305 4.2937915,1.6565227 z M 4.9815695,1.0358449 L 4.9815695,1.2203707 L 5.4512712,1.2203707 L 5.4512712,1.0358449 L 4.9815695,1.0358449 z M 6.3068002,4.3908601 L 6.7765027,4.2231091 C 6.4410013,2.8922864 6.2341087,2.0367576 6.1558249,1.6565227 C 6.4577761,1.3545715 6.4997137,1.1588624 6.2816375,1.0693954 C 6.0635614,0.97992844 5.893015,1.1532708 5.7699983,1.5894225 L 6.3068002,4.3908601 z M 5.1828702,5.2967137 C 5.372988,5.1177797 5.5435347,5.008742 5.6945103,4.9696004 C 5.8454858,4.9304582 6.041195,4.8829287 6.2816375,4.827012 C 6.5220801,4.7710953 6.7988689,4.7990536 7.1120039,4.9108871 C 7.4251384,5.0227211 7.6823563,5.005946 7.8836579,4.8605617 C 7.6711736,4.9276622 7.4111597,4.8941123 7.1036161,4.7599118 C 6.7960729,4.6257113 6.5220801,4.5837735 6.2816375,4.6340983 C 6.041195,4.6844237 5.8454858,4.7263615 5.6945103,4.7599118 C 5.5435347,4.7934621 5.372988,4.8941125 5.1828702,5.0618633 C 5.0039363,4.8941125 4.8389814,4.7934621 4.6880059,4.7599118 C 4.5370303,4.7263615 4.3413209,4.6844237 4.1008777,4.6340983 C 3.8604352,4.5837735 3.5864423,4.6257113 3.2788992,4.7599118 C 2.9713561,4.8941123 2.7169344,4.9276622 2.5156339,4.8605617 C 2.7057511,5.005946 2.9573772,5.0227211 3.2705122,4.9108871 C 3.5836466,4.7990536 3.8604352,4.7682994 4.1008777,4.8186242 C 4.3413209,4.8689496 4.5370303,4.916479 4.6880059,4.9612125 C 4.8389814,5.005946 5.0039363,5.1177797 5.1828702,5.2967137 L 5.1828702,5.2967137 z M 7.1120039,4.5921608 C 7.4139556,4.7375451 7.6292358,4.7794829 7.7578444,4.7179743 C 7.886453,4.6564651 7.9787157,4.6201188 8.0346324,4.6089356 C 8.1129162,4.5753859 8.1408748,4.6089362 8.1185083,4.7095864 C 8.0178575,4.9891712 7.8333319,5.1345552 7.5649316,5.1457384 C 7.29653,5.1569216 7.0756583,5.1261673 6.9023162,5.0534754 C 6.728973,4.9807831 6.5220801,4.9695995 6.2816375,5.0199249 C 6.041195,5.0702503 5.8454858,5.114984 5.6945103,5.1541262 C 5.5435347,5.1932678 5.4121298,5.3078972 5.3002958,5.4980144 L 5.0822194,5.4980144 C 4.970386,5.3078972 4.8389814,5.1932678 4.6880059,5.1541262 C 4.5370303,5.114984 4.3413209,5.0702503 4.1008777,5.0199249 C 3.8604352,4.9695995 3.6535426,4.9807831 3.4801999,5.0534754 C 3.3068579,5.1261673 3.0859861,5.1569216 2.8175846,5.1457384 C 2.5491836,5.1345552 2.364658,4.9891712 2.2640078,4.7095864 C 2.2416408,4.6089362 2.2751908,4.5753859 2.3646578,4.6089356 C 2.4093912,4.6201188 2.4960625,4.6564651 2.6246717,4.7179743 C 2.7532803,4.7794829 2.9685605,4.7375451 3.2705122,4.5921608 C 3.3711624,4.5362441 3.4270792,4.5082857 3.4382624,4.5082857 C 3.2705116,4.4635516 3.2369617,4.3405344 3.3376124,4.139234 L 4.0421654,1.7236229 C 3.8744146,1.6117895 3.7625809,1.4692015 3.7066642,1.2958588 C 3.6507469,1.1225162 3.7066636,0.97992819 3.8744143,0.86809471 C 4.0421651,0.75626071 4.226691,0.75066881 4.4279919,0.85131903 C 4.6292929,0.9519698 4.7411269,1.0917622 4.7634939,1.2706961 L 4.847369,1.186821 C 4.8585522,1.1085373 4.8054312,0.96035739 4.6880059,0.74228125 C 4.57058,0.52420512 4.5286421,0.37043358 4.5621924,0.28096659 C 4.5957427,0.22504987 4.6628432,0.20827474 4.7634939,0.23064121 C 4.8641441,0.30892496 4.9480196,0.30333334 5.01512,0.21386636 C 5.1605037,-0.076901616 5.3058875,-0.071309999 5.4512712,0.23064121 C 5.4736382,0.30892496 5.5519219,0.31451685 5.6861224,0.24741689 C 5.7867732,0.22504987 5.8482818,0.241825 5.8706483,0.29774228 C 5.9153818,0.38720926 5.8818318,0.53818486 5.7699983,0.75066909 C 5.6581644,0.96315334 5.6134305,1.1085373 5.635797,1.186821 L 5.6861224,1.2706961 C 5.7196727,1.1141287 5.803548,0.98831545 5.9377485,0.89325657 C 6.071949,0.79819825 6.2285165,0.79540258 6.407451,0.88486956 C 6.586385,0.97433654 6.6674644,1.1029454 6.6506893,1.2706961 C 6.6339142,1.4384469 6.5416512,1.5950141 6.3739005,1.7403978 L 7.0113531,4.139234 C 7.0560866,4.3069847 6.9666196,4.4076349 6.7429522,4.4411846 C 6.821236,4.4635516 6.9442532,4.513877 7.1120039,4.5921608 z M 6.071949,4.4747352 L 5.5519219,1.4048966 C 5.3282545,1.3377966 5.1045868,1.3377966 4.8809187,1.4048966 L 4.3105663,4.4747352 C 4.4112171,4.4971022 4.5370303,4.5278565 4.6880059,4.5669981 C 4.8389814,4.6061397 4.9927527,4.6872194 5.1493197,4.8102372 L 5.2331956,4.8102372 C 5.3897631,4.6872194 5.5435347,4.6061397 5.6945103,4.5669981 C 5.8454858,4.5278565 5.9712988,4.4971022 6.071949,4.4747352 z "
     id="path4" />
</svg>
