<?xml version="1.0" encoding="UTF-8" standalone="no"?>
<svg
   xmlns:dc="http://purl.org/dc/elements/1.1/"
   xmlns:cc="http://web.resource.org/cc/"
   xmlns:rdf="http://www.w3.org/1999/02/22-rdf-syntax-ns#"
   xmlns:svg="http://www.w3.org/2000/svg"
   xmlns="http://www.w3.org/2000/svg"
   xmlns:sodipodi="http://sodipodi.sourceforge.net/DTD/sodipodi-0.dtd"
   xmlns:inkscape="http://www.inkscape.org/namespaces/inkscape"
   width="17.45549"
   height="18"
   id="svg2"
   sodipodi:version="0.32"
   inkscape:version="0.45.1"
   sodipodi:docname="C222.svg"
   sodipodi:docbase="/Users/rosmord/Travail/Gsigns/SThomasDetail/ManuelDeCodage/C"
   inkscape:output_extension="org.inkscape.output.svg.inkscape"
   version="1.0">
  <metadata
     id="metadata9">
    <rdf:RDF>
      <cc:Work
         rdf:about="">
        <dc:format>image/svg+xml</dc:format>
        <dc:type
           rdf:resource="http://purl.org/dc/dcmitype/StillImage" />
      </cc:Work>
    </rdf:RDF>
  </metadata>
  <defs
     id="defs7" />
  <sodipodi:namedview
     inkscape:window-height="581"
     inkscape:window-width="701"
     inkscape:pageshadow="2"
     inkscape:pageopacity="0.0"
     guidetolerance="10.0"
     gridtolerance="10.0"
     objecttolerance="10.0"
     borderopacity="1.0"
     bordercolor="#666666"
     pagecolor="#ffffff"
     id="base"
     height="18px"
     width="17.45549px"
     inkscape:zoom="16.463648"
     inkscape:cx="8.7277106"
     inkscape:cy="6.4628672"
     inkscape:window-x="0"
     inkscape:window-y="22"
     inkscape:current-layer="svg2" />
  <path
     style="fill:#000000;stroke:none"
     d="M 6.8057771,17.386915 C 7.1056509,16.498827 8.2359448,15.922146 10.196658,15.656874 C 11.00401,15.230131 11.600874,14.884122 11.98725,14.618848 C 12.373626,14.353575 12.457245,13.869164 12.238106,13.165614 C 9.9083172,13.626958 7.763066,14.699585 5.8023527,16.383491 C 6.0791596,16.568028 6.4136344,16.902503 6.8057771,17.386915 z M 10.542666,5.4842311 L 10.525365,5.6053339 L 10.127456,5.6053339 C 10.058254,5.7552705 9.9544515,5.8302389 9.8160488,5.8302389 C 9.7007129,5.8417726 9.5969107,5.8187053 9.5046415,5.7610372 C 9.5507757,5.5534323 9.6401611,5.4438632 9.7727977,5.43233 C 9.9054342,5.4207963 10.02942,5.4380966 10.144756,5.4842311 L 10.542666,5.4842311 z M 9.7122459,5.5188316 C 9.6430442,5.564966 9.6026768,5.6341677 9.5911431,5.7264367 C 9.6257443,5.7495036 9.6718785,5.766804 9.7295465,5.7783378 C 9.6834123,5.7552708 9.6574617,5.7206701 9.6516949,5.6745356 C 9.645928,5.6284012 9.6661117,5.5764998 9.7122459,5.5188316 z M 10.092855,5.5534328 C 10.012119,5.5188321 9.9256179,5.5015317 9.8333487,5.5015317 C 9.8910166,5.5130649 9.9256179,5.5447823 9.9371516,5.596684 C 9.9486854,5.6485851 9.9371516,5.691836 9.9025504,5.7264367 C 9.9832858,5.691836 10.046721,5.634168 10.092855,5.5534328 z M 10.646468,6.2454491 L 11.078979,5.5707326 C 11.14818,5.3746615 11.136647,5.276626 11.044378,5.276626 C 10.940575,5.276626 10.871374,5.3688949 10.836773,5.5534328 L 10.629168,5.5534328 C 10.629168,5.3458274 10.525366,5.207424 10.317761,5.1382225 C 10.110156,5.0690211 9.8737168,5.0747879 9.6084437,5.1555232 C 9.5507757,5.2362584 9.527709,5.3054598 9.539242,5.3631275 C 9.6661117,5.2708591 9.7756807,5.2247249 9.8679499,5.2247249 C 9.9717521,5.2247249 10.098622,5.2535587 10.248559,5.3112264 L 10.525365,5.3112264 L 10.525365,5.4150294 L 10.248559,5.4150294 C 10.098622,5.3804281 9.977519,5.3631275 9.8852505,5.3631275 C 9.8045151,5.3631275 9.7007129,5.3977285 9.5738432,5.4669305 L 9.539242,5.3804281 L 9.5219421,5.6226345 C 9.3489375,5.9225078 9.2624351,6.1070455 9.2624351,6.1762474 C 9.4469728,6.2339156 9.5161745,6.3204177 9.4700403,6.4357536 L 9.7641477,6.4530543 C 9.8218157,6.4530543 9.8506493,6.4934218 9.8506493,6.5741571 C 9.7007129,6.597224 9.6199774,6.6837261 9.6084437,6.8336633 C 9.6084437,6.9374655 9.6891792,6.9893665 9.8506493,6.9893665 L 10.33506,6.9893665 C 10.346594,7.1969714 10.381195,7.3555585 10.438863,7.4651278 C 10.496531,7.5746977 10.548432,7.6756168 10.594567,7.7678852 L 10.646468,7.7678852 L 10.646468,6.2454491 z M 10.646468,8.1138938 L 9.8679499,8.1138938 C 9.9140841,8.5175695 9.8419994,8.8751118 9.6516949,9.1865191 C 9.4613903,9.4979264 9.5796101,9.8266343 10.006353,10.172643 C 10.190891,11.037663 10.340827,12.006486 10.456163,13.079112 L 11.9786,12.681202 C 11.909398,11.839248 11.972833,10.997296 12.168905,10.155342 L 10.646468,10.155342 L 10.646468,8.1138938 z M 9.7122459,4.8960169 C 10.035187,4.8498825 10.283159,4.8671828 10.456163,4.947918 C 10.629167,5.0286533 10.727203,5.149756 10.750271,5.3112264 C 10.784872,5.1036215 10.888674,4.9998191 11.061678,4.9998191 C 11.292351,4.9652184 11.41057,5.0546038 11.416337,5.2679753 C 11.422103,5.4813473 11.367319,5.6803022 11.251983,5.8648401 C 11.136647,6.049378 11.038611,6.1877812 10.957876,6.2800496 L 10.975177,9.8266343 L 12.722518,9.843935 L 12.705218,7.6294826 C 12.705218,6.418453 12.581231,5.5130647 12.333259,4.9133176 C 12.085286,4.3135694 11.759461,4.010812 11.355786,4.0050454 C 10.952109,3.9992788 10.600334,4.0482968 10.30046,4.1520995 C 10.000586,4.2559017 9.8045151,4.5038742 9.7122459,4.8960169 z M 1.1831426,13.252116 L 2.1692664,9.9996382 L 0.45652505,13.044512 L 1.1831426,13.252116 z M 4.0550109,14.082535 C 3.939675,14.071002 3.8156886,13.949899 3.6830518,13.719228 C 3.5504155,13.488555 3.5475322,13.338618 3.6744019,13.269416 C 3.3168603,13.165614 3.2707259,13.032977 3.5359984,12.871507 L 3.8474058,12.750404 L 2.4287726,9.9131359 L 1.3734471,13.563523 C 1.2927119,13.782662 1.2177433,13.886464 1.1485414,13.874931 C 0.97553725,13.828796 0.90633578,13.684626 0.94093703,13.442421 C 0.90633578,13.523155 0.85731773,13.59524 0.7938829,13.658676 C 0.73044806,13.72211 0.66412992,13.742294 0.59492847,13.719228 C 0.51419327,13.707693 0.47382567,13.658675 0.47382567,13.572174 C 0.47382567,13.485672 0.49112604,13.402053 0.52572676,13.321317 C 0.37579011,13.528922 0.21431971,13.615425 0.041315568,13.580824 C -0.027886406,13.557757 -0.010586045,13.430887 0.093216654,13.200215 L 2.4460725,8.9962146 L 4.262616,12.5947 C 4.5970906,12.686969 4.9142648,12.871506 5.2141386,13.148314 L 5.2314392,13.148314 C 5.8427206,12.802306 6.3155985,12.444763 6.6500731,12.075688 C 6.9845477,11.706613 7.382457,11.31447 7.8438012,10.89926 C 8.1090743,10.207243 8.3512799,9.5267608 8.5704188,8.857812 C 8.9510278,8.1427281 9.5219414,7.7851858 10.283159,7.7851858 C 10.179357,7.5891147 10.115922,7.3930433 10.092855,7.1969717 L 9.7814476,7.1969717 C 9.4700403,7.1969717 9.3489375,7.0470347 9.4181392,6.7471609 C 9.4412067,6.7471609 9.4066054,6.7183268 9.3143362,6.6606586 C 9.3028025,6.6260579 9.3085693,6.5914571 9.3316368,6.5568564 C 9.3085693,6.5453227 9.2855018,6.5222554 9.2624351,6.4876547 L 9.2970356,6.3492513 C 9.1355655,6.3377181 9.05483,6.3088842 9.05483,6.2627498 C 9.05483,6.1474133 9.1413323,5.9340416 9.3143362,5.6226345 C 9.2797358,5.4726973 9.2912695,5.3169935 9.3489375,5.1555232 C 9.3489375,4.7633804 9.4844571,4.4173721 9.755497,4.1174983 C 10.026537,3.8176245 10.479231,3.6676875 11.11358,3.6676875 C 11.828664,3.6676875 12.333259,3.9906286 12.627366,4.6365107 C 12.921472,5.2823928 13.068525,6.251216 13.068525,7.5429802 L 13.068525,10.189944 L 12.566814,10.155342 C 12.359209,11.00883 12.301541,11.87385 12.39381,12.750404 C 12.97049,13.949899 12.768652,14.757253 11.788296,15.172462 C 12.088169,15.010992 12.327492,14.987924 12.506262,15.10326 C 12.685033,15.218596 12.757118,15.449269 12.722518,15.795277 C 12.561047,16.164352 12.465895,16.63723 12.437062,17.213911 C 12.408227,17.790591 12.226573,18.078931 11.892098,18.078931 L 10.73297,18.078931 C 10.73297,17.767523 10.926158,17.588753 11.312534,17.542618 C 11.69891,17.496484 11.753694,17.01784 11.476888,16.106684 L 10.629168,16.34889 C 9.2220678,17.409981 8.0571732,17.946294 7.1344843,17.957829 C 6.2233296,18.223102 5.6178153,18.119299 5.3179415,17.646421 C 5.0180677,17.173542 5.0526684,16.654531 5.4217437,16.089384 C 6.6558397,14.912956 8.2186434,13.955666 10.110156,13.217515 L 9.6603448,10.328347 C 9.4181384,10.097674 9.2912687,9.8727686 9.2797358,9.6536305 C 9.0259964,10.311046 8.8126244,10.864659 8.6396205,11.31447 C 7.9591379,12.191024 7.0941169,12.871506 6.0445583,13.355918 L 5.3006409,13.632725 C 5.093036,13.897998 4.6778261,14.047935 4.0550109,14.082535 z M 9.6776454,1.6608395 C 9.6776454,2.0760492 9.8160488,2.4162907 10.092855,2.6815638 C 10.369661,2.9468368 10.709903,3.0794734 11.11358,3.0794734 C 11.517256,3.0794734 11.848847,2.9324198 12.108354,2.6383126 C 12.36786,2.3442059 12.497613,2.0183816 12.497613,1.6608395 C 12.474546,1.3032974 12.344792,0.98323996 12.108354,0.70066703 C 11.871914,0.41809357 11.534556,0.27680685 11.096279,0.27680685 C 10.658002,0.27680685 10.311994,0.41521001 10.058254,0.69201633 C 9.8045151,0.96882317 9.6776454,1.2917642 9.6776454,1.6608395 z M 11.096279,3.6849882 C 12.053569,3.6849882 12.855154,3.0333392 13.501036,1.7300412 C 12.68215,2.8603351 11.886332,3.4139482 11.11358,3.3908807 C 10.329294,3.4024145 9.5277082,2.8488013 8.7088222,1.7300412 C 9.3431706,3.0333392 10.13899,3.6849882 11.096279,3.6849882 z M 13.293431,1.5916378 C 13.3857,1.4071004 13.498153,1.3465491 13.630791,1.409984 C 13.763426,1.4734188 13.795144,1.6147053 13.725942,1.8338434 C 13.056992,3.2524773 12.180438,3.973328 11.096279,3.9963955 C 10.023654,3.973328 9.158633,3.2524773 8.5012171,1.8338434 C 8.4204816,1.6147053 8.4435491,1.4734188 8.5704188,1.409984 C 8.6972885,1.3465491 8.8068575,1.4071004 8.8991267,1.5916378 C 9.164399,1.9261124 9.3604704,2.139484 9.4873409,2.231753 C 9.4296729,2.0587489 9.4008393,1.8684444 9.4008393,1.6608395 C 9.4008393,1.2225623 9.5478927,0.83618639 9.8419994,0.50171182 C 10.136106,0.16723727 10.559966,0 11.11358,0 C 11.644125,0 12.050685,0.17877102 12.333259,0.53631307 C 12.615832,0.89385458 12.762886,1.2686967 12.774419,1.6608395 C 12.774419,1.8799781 12.734051,2.087583 12.653317,2.2836541 C 12.814787,2.1452512 13.028159,1.9145791 13.293431,1.5916378 z "
     id="path4" />
</svg>
