<?xml version="1.0" encoding="UTF-8" standalone="no"?>
<svg
   xmlns:dc="http://purl.org/dc/elements/1.1/"
   xmlns:cc="http://web.resource.org/cc/"
   xmlns:rdf="http://www.w3.org/1999/02/22-rdf-syntax-ns#"
   xmlns:svg="http://www.w3.org/2000/svg"
   xmlns="http://www.w3.org/2000/svg"
   xmlns:sodipodi="http://sodipodi.sourceforge.net/DTD/sodipodi-0.dtd"
   xmlns:inkscape="http://www.inkscape.org/namespaces/inkscape"
   width="10.555416"
   height="18"
   id="svg2"
   sodipodi:version="0.32"
   inkscape:version="0.45.1"
   sodipodi:docname="C225.svg"
   sodipodi:docbase="/Users/rosmord/Travail/Gsigns/SThomasDetail/ManuelDeCodage/C"
   inkscape:output_extension="org.inkscape.output.svg.inkscape"
   version="1.0">
  <metadata
     id="metadata9">
    <rdf:RDF>
      <cc:Work
         rdf:about="">
        <dc:format>image/svg+xml</dc:format>
        <dc:type
           rdf:resource="http://purl.org/dc/dcmitype/StillImage" />
      </cc:Work>
    </rdf:RDF>
  </metadata>
  <defs
     id="defs7" />
  <sodipodi:namedview
     inkscape:window-height="581"
     inkscape:window-width="701"
     inkscape:pageshadow="2"
     inkscape:pageopacity="0.0"
     guidetolerance="10.0"
     gridtolerance="10.0"
     objecttolerance="10.0"
     borderopacity="1.0"
     bordercolor="#666666"
     pagecolor="#ffffff"
     id="base"
     height="18px"
     width="10.555416px"
     inkscape:zoom="17.924133"
     inkscape:cx="5.2777075"
     inkscape:cy="7.4307816"
     inkscape:window-x="0"
     inkscape:window-y="22"
     inkscape:current-layer="svg2" />
  <path
     style="fill:#000000;stroke:none"
     d="M 5.9811005,7.2075087 L 5.9999686,7.264112 L 7.2452448,7.264112 L 7.264112,7.2075087 L 5.9811005,7.2075087 z M 6.2075138,7.471658 C 5.9433644,9.0062418 5.7987111,10.163468 5.7735537,10.943337 C 5.7735537,11.10686 5.8490253,11.597423 5.9999686,12.415028 C 6.1509107,13.232634 6.1194643,14.553381 5.9056292,16.377272 L 6.9622274,16.377272 C 7.1509056,14.817532 7.1886412,13.591123 7.075434,12.698046 C 7.1005914,12.257796 7.122604,11.795535 7.1414718,11.31126 C 7.1603396,10.826986 7.2200876,10.393026 7.3207162,10.009381 C 7.4213441,9.6257348 7.3993315,9.2420886 7.2546784,8.8584433 C 7.1100253,8.4747978 7.0502772,8.012536 7.075434,7.471658 L 6.2075138,7.471658 z M 6.0188358,17.547077 C 6.2578283,17.484184 6.4307834,17.374122 6.5377009,17.21689 C 6.644619,17.059658 6.6666316,16.861545 6.6037386,16.622552 L 6.2263818,16.622552 C 6.062861,17.037645 5.993679,17.34582 6.0188358,17.547077 z M 5.6037437,3.3018693 C 5.993679,3.2641338 6.2263821,3.3081587 6.3018532,3.433944 C 6.3773243,3.5597293 6.4465063,3.6163326 6.5093992,3.6037539 C 6.5093992,3.4653905 6.597449,3.3962087 6.7735486,3.3962087 C 6.9873842,3.3962087 7.0943021,3.5660189 7.0943021,3.9056394 C 7.0943021,4.0440034 7.0188307,4.2075246 6.867888,4.3962028 L 6.867888,6.3773246 L 7.9999567,6.3773246 L 7.9999567,5.7169503 C 7.9999567,4.559724 7.8364359,3.710672 7.5093941,3.1697947 C 7.3081372,2.9308021 6.9685161,2.8113059 6.4905312,2.8113059 C 5.999968,2.8113059 5.7043722,2.9748271 5.6037437,3.3018693 z M 5.9999686,3.8679041 C 5.8741827,3.8301686 5.7987111,3.8113008 5.7735537,3.8113008 C 5.7861324,3.8238789 5.7924217,3.8490361 5.7924217,3.8867722 C 5.7924217,3.9245077 5.7672646,3.9496648 5.7169503,3.9622435 C 5.6666361,3.9622435 5.641479,3.9370864 5.641479,3.8867722 C 5.641479,3.8616148 5.6477683,3.8427467 5.660347,3.830168 C 5.6226115,3.8427467 5.5974544,3.8616148 5.5848757,3.8867722 C 5.5722976,3.911929 5.5597191,3.9245074 5.5471404,3.9245074 C 5.5974546,3.9622429 5.6603473,3.9748216 5.7358184,3.9622435 C 5.8112895,3.9496648 5.8993396,3.9182183 5.9999686,3.8679041 z M 5.452801,3.9999788 L 5.4339338,3.9245074 L 5.5094043,3.9056394 C 5.5471404,3.8175896 5.6163224,3.7672756 5.7169503,3.7546975 C 5.8050002,3.7421188 5.9119179,3.7672756 6.0377039,3.830168 L 6.2641179,3.830168 L 6.2641179,3.9056394 L 6.0377039,3.9056394 C 5.9119179,3.9685323 5.8112895,4.0062681 5.7358184,4.0188468 C 5.6729255,4.0314249 5.6226112,4.0314249 5.5848757,4.0188468 C 5.5471402,4.0062681 5.521983,3.9999788 5.5094043,3.9999788 L 5.452801,3.9999788 z M 5.5282724,5.6226118 C 5.9182076,5.9370753 5.9748112,6.3647461 5.6980831,6.9056241 C 5.6980831,7.0188307 5.7798436,7.075434 5.9433644,7.075434 L 7.3018481,7.075434 L 7.4905261,6.6037386 L 6.6603419,6.6037386 L 6.6603419,5.6226118 L 5.5282724,5.6226118 z M 5.4150658,4.4905422 L 5.452801,4.452807 C 5.6666361,4.5031212 5.7169503,4.5440013 5.6037437,4.5754472 C 5.4905371,4.6068937 5.4433677,4.6540634 5.4622355,4.7169563 C 5.4811033,4.7798487 5.5565743,4.7955719 5.6886487,4.764126 C 5.8207236,4.7326795 5.9370753,4.7295347 6.0377039,4.7546915 C 6.1383324,5.0439983 6.2515392,5.2452552 6.3773246,5.3584624 L 6.6603419,5.3584624 L 6.6603419,4.3773347 C 6.8112847,4.188657 6.886756,4.0314253 6.886756,3.9056394 C 6.886756,3.7043824 6.8490202,3.6037539 6.7735486,3.6037539 C 6.6980775,3.6037539 6.6603419,3.7043824 6.6603419,3.9056394 C 6.4213494,3.8175896 6.2704067,3.7138165 6.2075138,3.5943203 C 6.1446214,3.4748241 5.924497,3.4402331 5.5471404,3.4905473 L 5.4905371,3.64149 C 5.6163224,3.5534402 5.8741827,3.5785974 6.2641179,3.7169614 L 6.2641179,3.7735647 C 5.8867614,3.6477794 5.6226118,3.6603581 5.4716691,3.8113008 L 5.264123,4.2829962 C 5.3395941,4.2578388 5.3899083,4.2609833 5.4150658,4.2924298 C 5.4402226,4.3238763 5.4339332,4.3584673 5.3961977,4.3962028 C 5.4087764,4.4590957 5.4150658,4.4905422 5.4150658,4.4905422 z M 8.282975,12.377292 C 8.4464964,11.911886 8.4999552,11.70434 8.4433513,11.754654 C 8.386748,11.804968 8.3395785,11.820692 8.301843,11.801824 C 8.2641075,11.782956 8.2263719,11.79239 8.1886364,11.830126 C 8.1509003,11.867861 8.1068751,11.864717 8.0565609,11.820692 C 8.0062467,11.776666 8.081718,11.9622 8.282975,12.377292 z M 8.4527857,10.660321 L 8.5471243,11.301827 L 8.5471243,11.565976 C 8.7358023,11.742075 8.679199,12.069118 8.3773144,12.547103 C 8.5785708,12.547103 8.7986949,12.4905 9.0376877,12.377292 C 9.0880017,12.540814 9.0880017,12.691756 9.0376877,12.83012 C 8.8112736,12.792385 8.5848601,12.773517 8.3584463,12.773517 L 8.4527857,13.69804 L 8.1131642,13.69804 L 8.1697683,12.773517 C 7.9181971,12.735782 7.6980724,12.754649 7.5093941,12.83012 C 7.4590799,12.679179 7.4527906,12.528236 7.4905261,12.377292 C 7.7043612,12.4905 7.9244859,12.547103 8.1509003,12.547103 C 7.9244859,12.182325 7.8238574,11.937044 7.8490148,11.811258 C 7.8364361,11.836415 7.8018451,11.858427 7.7452418,11.877295 C 7.6886379,11.896163 7.6729147,11.861572 7.6980721,11.773522 L 7.7924115,11.320695 C 7.8427252,11.10686 7.9433534,10.855288 8.0942961,10.565981 L 8.0942961,10.565981 C 8.0439819,10.113154 7.9747999,9.7043504 7.8867501,9.3395723 C 7.7987003,8.9747951 7.7798326,8.6477531 7.8301468,8.3584463 C 7.6917828,7.7798328 7.6163114,7.3144265 7.6037327,6.9622274 L 7.4339228,7.3207162 L 7.3773195,7.9056181 C 7.4024763,8.2200823 7.5093939,8.6351744 7.6980721,9.1508943 C 7.760965,9.4402011 7.7169402,9.8490038 7.5659974,10.377303 C 7.4402121,11.572266 7.4024766,12.531379 7.4527908,13.254646 C 7.5031045,13.977913 7.4653687,15.025078 7.3395834,16.396139 C 7.3395834,16.572238 7.3207156,16.72947 7.28298,16.867835 C 7.2452445,17.006199 7.2389552,17.220035 7.264112,17.509341 C 7.4402115,17.899275 7.3395834,18.106821 6.9622274,18.131979 C 6.6226064,18.006193 6.3490229,17.981036 6.1414769,18.056508 C 5.9339308,18.13198 5.6540579,18.150847 5.3018583,18.113112 C 4.974816,18.025061 4.5911704,18.03135 4.1509215,18.131979 L 3.4716792,18.113112 L 3.4716792,17.999903 C 3.4716792,17.899276 3.7452628,17.776635 4.2924298,17.631982 C 4.8395968,17.487328 5.2012301,17.270348 5.3773296,16.981041 C 5.4276439,16.867835 5.4779582,16.672867 5.5282724,16.396139 C 5.5785866,16.069097 5.6320454,15.506207 5.6886487,14.707468 C 5.745252,13.908731 5.7672646,13.424457 5.7546865,13.254646 C 5.7421078,13.084836 5.6289009,12.389872 5.4150658,11.169752 C 5.3899083,10.742081 5.5156937,9.4905159 5.7924217,7.4150547 C 5.8050004,7.3521623 5.7609756,7.2924142 5.660347,7.2358103 C 5.5597185,7.179207 5.4779582,7.0817234 5.4150658,6.9433593 C 5.5660079,6.7421024 5.6100328,6.5660025 5.5471404,6.4150598 C 5.0691554,7.0691444 4.5471455,7.6666256 3.9811107,8.2075036 C 3.4024978,8.0188254 2.7924381,7.7106508 2.1509317,7.28298 C 1.9999896,7.4087654 1.8490471,7.4905258 1.6981044,7.5282613 L 1.6981044,18.113112 L 1.3584837,18.113112 L 1.3584837,7.5471294 C 1.2704333,7.5345507 1.1981065,7.4527902 1.1415032,7.3018481 C 1.0848999,7.1509054 1.1069124,7.0502769 1.2075409,6.9999627 C 1.0440195,6.8993341 1.0062837,6.8175738 1.0943335,6.7546814 L 1.3584837,6.7546814 L 1.3584837,4.6414849 C 1.3584837,4.3647569 1.2704336,4.2263929 1.0943335,4.2263929 C 1.0314411,4.2641284 0.94339135,4.327021 0.83018413,4.4150708 C 0.64150587,4.5660136 0.50314185,4.7672703 0.41509206,5.0188409 C 0.32704228,5.2704121 0.26414962,5.4716691 0.22641409,5.6226118 C 0.10062819,5.8490256 0.025156834,5.8112898 0,5.5094043 C 0.15094273,4.9685269 0.27043897,4.6100384 0.35848876,4.4339389 C 0.44653854,4.2578388 0.49685278,4.1446319 0.50943148,4.0943182 C 0.58490256,3.9182181 0.73584499,3.7421182 0.9622588,3.5660187 C 1.2515655,3.2641338 1.4905581,3.03772 1.6792363,2.8867773 C 1.9056501,2.8113056 1.9999892,2.8490411 1.9622537,2.9999839 C 1.8993608,3.1383479 1.811311,3.2389764 1.6981044,3.3018693 C 1.4716905,3.5282832 1.3144585,3.7169614 1.2264081,3.8679041 C 1.5408723,3.8930609 1.6981044,4.1509212 1.6981044,4.6414849 L 1.6981044,6.7546814 C 1.9119395,6.7546814 2.1320639,6.8112847 2.3584777,6.9244913 C 2.962248,7.1509051 3.4465224,7.3584511 3.8113008,7.5471294 C 4.1257644,7.0439875 4.4842529,6.5408457 4.8867662,6.0377039 C 4.9370804,5.6980829 5.1886514,5.4716691 5.641479,5.3584624 L 6.1131752,5.3584624 C 6.0125467,5.2452552 5.9433647,5.0943125 5.9056292,4.9056343 C 5.8050007,4.918213 5.6949383,4.9339362 5.5754421,4.952804 C 5.4559459,4.9716718 5.3741854,4.9496591 5.3301608,4.8867662 C 5.2861356,4.8238738 5.2767015,4.7609812 5.3018583,4.6980882 C 5.2263872,4.6980882 5.2012304,4.6540634 5.2263878,4.5660136 C 5.1634949,4.5156994 5.1509162,4.4779638 5.1886517,4.452807 C 5.2263872,4.4276495 5.2263872,4.4024921 5.1886517,4.3773347 C 5.0880232,4.3773347 5.0439983,4.3395992 5.056577,4.2641281 C 5.1697842,4.0880286 5.2641233,3.8050112 5.3395944,3.4150759 C 5.4653797,2.8490411 5.8490253,2.5660237 6.4905312,2.5660237 C 7.0943015,2.5408669 7.5031045,2.704388 7.7169402,3.0565872 C 8.0565611,3.5848865 8.2263716,4.4716742 8.2263716,5.7169503 L 8.2263716,6.5848706 L 8.1509003,6.6037386 C 8.2515288,7.2200871 8.301843,7.8615933 8.301843,8.5282571 C 8.4527857,8.9810844 8.5030999,9.6917717 8.4527857,10.660321 L 8.4527857,10.660321 z M 6.5660025,0.99999491 C 6.2138034,1.0251517 6.0125467,1.1477925 5.9622325,1.3679173 C 5.9119183,1.588042 5.9685218,1.9937002 6.1320433,2.5848918 L 7.0188307,2.5848918 C 7.1823515,1.9937002 7.2389552,1.588042 7.1886415,1.3679173 C 7.1383273,1.1477925 6.9307809,1.0251517 6.5660025,0.99999491 L 6.5660025,0.99999491 z M 7.5093941,0.49056343 C 7.4716586,0.35219941 7.3678856,0.27358351 7.1980751,0.25471574 C 7.0282646,0.23584797 6.9056238,0.24528186 6.8301527,0.28301739 C 6.7546811,0.32075293 6.7200901,0.39936883 6.7263797,0.51886508 C 6.7326688,0.63836133 6.8458757,0.72326658 7.0660004,0.77358082 C 7.2861245,0.82389506 7.4339225,0.72955594 7.5093941,0.49056343 z M 7.4905261,1.0565982 C 7.6288901,1.3710618 7.5408403,1.949675 7.2263767,2.7924378 L 5.9244972,2.7924378 C 5.6477686,1.949675 5.5439953,1.4213761 5.6131773,1.2075409 C 5.6823593,0.9937053 5.8238682,0.86163029 6.0377039,0.81131607 C 6.2641177,0.73584499 6.3773246,0.64150587 6.3773246,0.52829868 C 6.3773246,0.41509206 6.3427335,0.33962099 6.2735515,0.30188545 C 6.2043695,0.26414992 5.9811003,0.24528214 5.6037437,0.24528214 L 5.6037437,0 L 7.2075087,0 C 7.3836082,0 7.5251168,0.04402489 7.6320343,0.13207467 C 7.7389525,0.22012445 7.7924115,0.35534394 7.7924115,0.53773314 C 7.7924115,0.72012176 7.691783,0.89307679 7.4905261,1.0565982 z "
     id="path4" />
</svg>
