<?xml version="1.0" encoding="UTF-8" standalone="no"?>
<svg
   xmlns:dc="http://purl.org/dc/elements/1.1/"
   xmlns:cc="http://web.resource.org/cc/"
   xmlns:rdf="http://www.w3.org/1999/02/22-rdf-syntax-ns#"
   xmlns:svg="http://www.w3.org/2000/svg"
   xmlns="http://www.w3.org/2000/svg"
   xmlns:sodipodi="http://sodipodi.sourceforge.net/DTD/sodipodi-0.dtd"
   xmlns:inkscape="http://www.inkscape.org/namespaces/inkscape"
   width="11.963993"
   height="18"
   id="svg2"
   sodipodi:version="0.32"
   inkscape:version="0.45.1"
   sodipodi:docname="C226.svg"
   sodipodi:docbase="/Users/rosmord/Travail/Gsigns/SThomasDetail/ManuelDeCodage/C"
   inkscape:output_extension="org.inkscape.output.svg.inkscape"
   version="1.0">
  <metadata
     id="metadata9">
    <rdf:RDF>
      <cc:Work
         rdf:about="">
        <dc:format>image/svg+xml</dc:format>
        <dc:type
           rdf:resource="http://purl.org/dc/dcmitype/StillImage" />
      </cc:Work>
    </rdf:RDF>
  </metadata>
  <defs
     id="defs7" />
  <sodipodi:namedview
     inkscape:window-height="581"
     inkscape:window-width="701"
     inkscape:pageshadow="2"
     inkscape:pageopacity="0.0"
     guidetolerance="10.0"
     gridtolerance="10.0"
     objecttolerance="10.0"
     borderopacity="1.0"
     bordercolor="#666666"
     pagecolor="#ffffff"
     id="base"
     height="18px"
     width="11.963993px"
     inkscape:zoom="15.532094"
     inkscape:cx="5.9799391"
     inkscape:cy="5.8318952"
     inkscape:window-x="0"
     inkscape:window-y="22"
     inkscape:current-layer="svg2" />
  <path
     style="fill:#000000;stroke:none"
     d="M 5.3667354,7.5690882 L 5.3830137,7.6179225 L 6.5713176,7.6179225 L 6.5713176,7.5690882 L 5.3667354,7.5690882 z M 5.5620732,7.8295379 C 5.312475,9.283719 5.1768239,10.390633 5.1551199,11.150279 C 5.1551199,11.302208 5.2283714,11.768848 5.3748742,12.550199 C 5.5213775,13.331549 5.4915343,14.601244 5.2853444,16.359283 L 6.2945888,16.359283 C 6.4790746,14.861694 6.5170572,13.689668 6.4085364,12.843204 C 6.4410926,12.409121 6.4627968,11.95876 6.473649,11.492119 C 6.4845012,11.025479 6.5387616,10.610387 6.6364302,10.246842 C 6.7340992,9.8832967 6.712395,9.5170389 6.5713176,9.148067 C 6.4302401,8.7790965 6.3759797,8.3395866 6.4085364,7.8295379 L 5.5620732,7.8295379 z M 5.3992913,17.482475 C 5.6163334,17.428215 5.7764018,17.322406 5.8794967,17.16505 C 5.9825916,17.007694 6.0070087,16.81507 5.9527481,16.587177 L 5.5946291,16.587177 C 5.4318478,16.988704 5.3667352,17.287137 5.3992913,17.482475 z M 4.9923381,3.8088381 C 5.3613093,3.776282 5.5837771,3.8224032 5.6597418,3.9472021 C 5.7357064,4.0720015 5.8062451,4.1235489 5.8713579,4.1018445 C 5.8713579,3.9716198 5.9527484,3.9065074 6.1155293,3.9065074 C 6.3108673,3.9065074 6.4085364,4.0692885 6.4085364,4.3948509 C 6.4085364,4.5250761 6.3434238,4.6824313 6.2131986,4.8669167 L 6.2131986,6.7714593 L 7.2875555,6.7714593 L 7.2875555,6.1366123 C 7.2875555,5.0188464 7.1356264,4.2049394 6.831768,3.6948912 C 6.6364304,3.4561452 6.3054415,3.3367722 5.8388012,3.3367722 C 5.3721615,3.3367722 5.0900071,3.4941275 4.9923381,3.8088381 z M 5.3667354,4.3622949 C 5.2473624,4.3297388 5.1768239,4.3134607 5.1551199,4.3134607 C 5.1768239,4.3134607 5.1876759,4.3351646 5.1876759,4.3785725 C 5.1876759,4.4219809 5.1605455,4.4436851 5.1062849,4.4436851 C 5.0520243,4.4436851 5.024894,4.4219809 5.024894,4.3785725 C 5.024894,4.3568686 5.0357462,4.3405905 5.0574507,4.3297382 C 5.0140423,4.3405905 4.9869119,4.3595817 4.9760597,4.3867121 C 4.965208,4.4138424 4.9489299,4.4274075 4.9272254,4.4274075 C 4.981486,4.4491115 5.0465987,4.4599635 5.1225633,4.4599635 C 5.1876761,4.4491112 5.2690668,4.4165551 5.3667354,4.3622949 z M 4.8458352,4.4925201 L 4.8295569,4.4111292 L 4.8946695,4.4111292 C 4.9380779,4.3134601 5.0031903,4.2591997 5.0900066,4.248348 C 5.1768239,4.248348 5.2853449,4.2754781 5.4155696,4.3297382 L 5.6271851,4.3297382 L 5.6271851,4.4111292 L 5.4155696,4.4111292 C 5.2961967,4.4653898 5.1985279,4.4979463 5.1225633,4.5087985 C 5.0683027,4.5196502 5.0221813,4.5169371 4.9841993,4.5006589 C 4.9462167,4.4843808 4.9217993,4.4762418 4.9109471,4.4762418 L 4.8458352,4.4925201 z M 4.9272254,6.038943 C 5.2961967,6.3428014 5.350457,6.7551809 5.0900066,7.2760818 C 5.0791549,7.3846026 5.1551197,7.438863 5.3179011,7.438863 L 6.6201526,7.438863 L 6.7992113,6.9830747 L 6.0178607,6.9830747 L 6.0178607,6.038943 L 4.9272254,6.038943 z M 4.8132786,4.964586 L 4.8458352,4.9320293 C 5.0520251,4.9754377 5.1008593,5.0107071 4.9923381,5.0378374 C 4.8838173,5.0649678 4.8404089,5.1083761 4.8621128,5.1680626 C 4.8838173,5.2277491 4.9570689,5.2440273 5.0818678,5.2168969 C 5.2066671,5.1897671 5.3179011,5.1870542 5.4155696,5.2087581 C 5.5132387,5.4909125 5.6163336,5.6862501 5.7248544,5.7947709 L 6.0178607,5.7947709 L 6.0178607,4.8506391 C 6.148086,4.6770055 6.2131986,4.5250761 6.2131986,4.3948509 C 6.2131986,4.1995133 6.1806421,4.1018445 6.1155293,4.1018445 C 6.0395647,4.1018445 6.0015824,4.1995133 6.0015824,4.3948509 C 5.7736886,4.308034 5.6298985,4.2076523 5.570212,4.0937057 C 5.5105255,3.9797586 5.2961967,3.9499153 4.9272254,4.0041759 L 4.8946695,4.1506788 C 5.0031903,4.0638624 5.2473622,4.0855667 5.6271851,4.2157914 L 5.6271851,4.280904 C 5.2582144,4.1506788 5.0031903,4.161531 4.8621128,4.3134607 L 4.6830533,4.7529698 C 4.7481662,4.7312659 4.7915746,4.736692 4.8132786,4.7692482 C 4.834983,4.8018043 4.8295569,4.8397867 4.7970002,4.8831951 C 4.8078524,4.9374557 4.8132786,4.964586 4.8132786,4.964586 z M 7.5480052,12.517642 C 7.7107871,12.072706 7.7650483,11.874656 7.7107879,11.923489 C 7.6565267,11.972324 7.6131178,11.988603 7.5805619,11.972325 C 7.548006,11.956046 7.5127366,11.964185 7.4747538,11.996742 C 7.4367718,12.029298 7.3933634,12.023872 7.3445286,11.980463 C 7.2956943,11.937055 7.3635198,12.116115 7.5480052,12.517642 z M 1.0855851,3.8251164 C 1.5413727,3.8251164 1.8723613,3.9282113 2.0785512,4.1344012 C 2.1870724,4.2320697 2.2142027,4.2917562 2.1599421,4.3134607 C 2.1056815,4.3351646 2.0188647,4.3243124 1.8994917,4.280904 C 1.7150063,4.3894247 1.5033906,4.6607272 1.2646446,5.0948112 L 1.2646446,7.1133007 C 1.4599822,7.1241524 1.6661718,7.1838389 1.8832133,7.2923602 C 2.4583744,7.5094017 2.9250146,7.7101649 3.2831341,7.8946505 C 3.5869924,7.4063068 3.9234072,6.9233887 4.2923784,6.4458962 C 4.3466386,6.1203339 4.5962365,5.9032922 5.0411723,5.7947709 L 5.4806823,5.7947709 C 5.3830137,5.6862501 5.3179011,5.5451729 5.2853444,5.3715393 C 5.1876759,5.3823915 5.081868,5.3959566 4.9679209,5.4122347 C 4.8539738,5.4285129 4.7780092,5.4068086 4.7400272,5.3471221 C 4.7020446,5.2874356 4.6884795,5.2250362 4.6993317,5.1599238 C 4.6233671,5.1599238 4.6016629,5.1165155 4.6342191,5.0296986 C 4.5799589,4.9862902 4.5663938,4.9510209 4.5935236,4.9238905 C 4.6206539,4.8967602 4.617941,4.8723431 4.5853848,4.8506391 C 4.498568,4.8614908 4.4605857,4.8235086 4.4714379,4.7366922 C 4.5799587,4.5739109 4.6722013,4.3080345 4.7481659,3.9390633 C 4.8675389,3.3856063 5.231084,3.1088777 5.8388012,3.1088777 C 6.4248145,3.098026 6.8209158,3.2553815 7.0271051,3.5809443 C 7.3418157,4.0909925 7.499171,4.9428818 7.499171,6.1366123 L 7.499171,6.9667964 L 7.4340583,6.9830747 C 7.5425799,7.5799397 7.5914141,8.193083 7.5805619,8.8225047 C 7.7324916,9.2674407 7.7759005,9.9511227 7.7107879,10.873551 L 7.8247347,11.492119 L 7.8247347,11.736292 C 7.9983681,11.909925 7.944107,12.224636 7.6619529,12.680424 C 7.8572907,12.680424 8.06348,12.626164 8.2805223,12.517642 C 8.3347827,12.669571 8.340208,12.816075 8.2967999,12.957152 C 8.0689061,12.913743 7.8518646,12.897465 7.6456745,12.908318 L 7.7270655,13.787337 L 7.4015024,13.787337 L 7.466615,12.892039 C 7.2170168,12.859483 6.999975,12.881187 6.8154897,12.957152 C 6.7720813,12.816075 6.7720813,12.669571 6.8154897,12.517642 C 7.0108273,12.626164 7.2170168,12.680424 7.4340583,12.680424 C 7.2170168,12.333157 7.119348,12.099837 7.141052,11.980463 C 7.1302003,12.002167 7.1003572,12.021158 7.051523,12.037437 C 7.0026882,12.053715 6.9836969,12.023871 6.9945492,11.947906 L 7.0922177,11.508398 C 7.1356261,11.302208 7.2332949,11.063462 7.3852241,10.792159 L 7.3689465,10.775881 C 7.3255381,10.352649 7.2631384,9.9646876 7.1817474,9.6119948 C 7.100357,9.2593019 7.081366,8.9473038 7.1247744,8.6760018 C 6.9945492,8.1116928 6.9240104,7.6613306 6.9131582,7.3249161 L 6.750377,7.6667567 L 6.6852644,8.2364912 C 6.7069689,8.5294983 6.8154899,8.9256001 7.0108275,9.4247957 C 7.0650877,9.7069499 7.0216792,10.103052 6.8806023,10.6131 C 6.7612293,11.75257 6.723247,12.669572 6.7666554,13.364105 C 6.8100638,14.05864 6.7775076,15.062458 6.6689868,16.375561 C 6.6581346,16.549194 6.6364304,16.701124 6.6038742,16.831348 C 6.5713181,16.961573 6.5604658,17.162337 6.5713176,17.433639 C 6.7449512,17.813463 6.6527083,18.019653 6.2945888,18.052209 C 5.9690265,17.921984 5.7058633,17.892141 5.5050994,17.96268 C 5.304336,18.033218 5.0357467,18.057635 4.6993317,18.035931 C 4.3954729,17.938263 4.0319278,17.938263 3.6086964,18.035931 L 2.9412927,18.035931 L 2.9412927,17.921984 C 2.9412927,17.813464 3.2044558,17.691378 3.7307821,17.555727 C 4.2571088,17.420075 4.607089,17.211172 4.7807226,16.929017 C 4.8349828,16.831348 4.8838171,16.646863 4.9272254,16.375561 C 4.9706338,16.06085 5.0194684,15.520959 5.073729,14.755887 C 5.1279896,13.990814 5.1496938,13.526886 5.1388416,13.364105 C 5.1279894,13.201323 5.0194684,12.539346 4.8132786,11.378173 C 4.7915746,10.954941 4.9109476,9.7557842 5.1713975,7.7807036 C 5.1822498,7.7047388 5.1388414,7.6423396 5.0411723,7.5935053 C 4.9435038,7.5446711 4.8675392,7.4497152 4.8132786,7.3086378 C 4.9543555,7.1241524 4.9977639,6.961371 4.9435038,6.8202936 C 4.4768635,7.438863 3.9722413,8.003172 3.4296369,8.5132199 C 2.8761803,8.3287343 2.2955934,8.0303018 1.6878762,7.6179225 C 1.5467988,7.7481477 1.4057216,7.834964 1.2646446,7.8783722 L 1.2646446,18.035931 L 0.92280324,18.035931 L 0.92280324,7.8946505 C 0.83598693,7.8837983 0.76816141,7.8051208 0.71932662,7.6586179 C 0.67049234,7.5121144 0.68948361,7.4171588 0.77630043,7.3737504 C 0.62437125,7.2652296 0.59181507,7.1838389 0.67863188,7.1295783 L 0.92280324,7.1295783 L 0.92280324,5.0948112 C 0.68405725,4.6607272 0.46701547,4.3894247 0.27167788,4.280904 C 0.16315711,4.3243124 0.081766409,4.3351646 0.027505779,4.3134607 C -0.026754359,4.2917562 -0.010476268,4.2320697 0.076340052,4.1344012 C 0.29338209,3.9282113 0.62979711,3.8251164 1.0855851,3.8251164 z M 1.0855851,4.9808636 L 1.1018627,4.9808636 C 1.2863486,4.6227446 1.4925384,4.3405905 1.7204322,4.1344012 C 1.546799,4.0692883 1.3406092,4.0367319 1.1018627,4.0367319 C 0.86311675,4.0367319 0.65692719,4.0692883 0.48329405,4.1344012 C 0.71118782,4.3405905 0.91195154,4.6227446 1.0855851,4.9808636 z M 6.0829733,3.2553813 C 6.2240503,3.1251561 6.3705536,3.0383392 6.5224833,2.9949308 C 6.6744124,2.9515229 6.8643239,2.9054016 7.0922177,2.8565668 C 7.3201115,2.8077326 7.585988,2.8375758 7.8898474,2.9460966 C 8.193706,3.0546173 8.4433034,3.0329131 8.6386413,2.880984 C 8.4433034,2.9569486 8.193706,2.9298185 7.8898474,2.7995938 C 7.585988,2.6693685 7.3201115,2.6286731 7.0922177,2.6775073 C 6.8643239,2.7263416 6.6744124,2.7670371 6.5224833,2.7995938 C 6.3705536,2.8321499 6.2023461,2.9298188 6.0178607,3.0926001 C 5.8550794,2.9298188 5.697724,2.8321499 5.5457949,2.7995938 C 5.3938657,2.7670371 5.201241,2.7263416 4.9679209,2.6775073 C 4.7346008,2.6286731 4.4687245,2.6693685 4.170292,2.7995938 C 3.8718595,2.9298185 3.6249745,2.9569486 3.4296369,2.880984 C 3.6141223,3.0329131 3.8582944,3.0546173 4.1621532,2.9460966 C 4.4660116,2.8375758 4.7346008,2.8077326 4.9679209,2.8565668 C 5.201241,2.9054016 5.3938657,2.9515229 5.5457949,2.9949308 C 5.697724,3.0383392 5.8333751,3.1251561 5.9527481,3.2553813 L 6.0829733,3.2553813 z M 5.6434634,3.2553813 C 5.6434634,3.2228251 5.589203,3.1902689 5.4806823,3.1577127 C 5.3721615,3.1251561 5.201241,3.0844606 4.9679209,3.0356263 C 4.7346008,2.9867921 4.53655,3.0003572 4.3737686,3.0763218 C 4.2109872,3.1522864 3.9966584,3.1848426 3.7307821,3.1739903 C 3.4649062,3.1631386 3.2831338,3.0220614 3.1854648,2.7507587 C 3.1746126,2.6530902 3.207169,2.620534 3.2831341,2.6530902 C 3.326542,2.6530902 3.4106456,2.6856464 3.535445,2.7507587 C 3.6602439,2.8158716 3.8718595,2.7751764 4.170292,2.6286731 C 4.4687245,2.4821697 4.7346008,2.4333352 4.9679209,2.4821695 C 5.201241,2.5310043 5.4155699,2.5825517 5.6109075,2.6368119 L 5.5295165,2.5391433 C 5.3233272,2.4523265 5.1225635,2.4089181 4.9272254,2.4089181 L 5.2853444,1.0252764 C 5.0140423,0.97101582 4.8838173,0.78924334 4.8946695,0.47995915 C 4.9055212,0.17067444 5.0737285,0.010605967 5.3992913,-0.00024625883 C 5.7248541,-0.011098484 5.9310439,0.1028484 6.0178607,0.34159439 C 6.1155293,0.1028484 6.3271452,-0.011098484 6.6527085,-0.00024625883 C 6.9782708,0.010605967 7.1464781,0.17067444 7.1573303,0.47995915 C 7.1681825,0.78924334 7.0379575,0.97101582 6.7666554,1.0252764 L 7.1247744,2.4089181 C 6.9077323,2.4089181 6.6906906,2.4523265 6.473649,2.5391433 L 6.4248147,2.6368119 C 6.6418563,2.5825517 6.8643239,2.5310043 7.0922177,2.4821695 C 7.3201115,2.4333352 7.585988,2.4821697 7.8898474,2.6286731 C 8.193706,2.7751764 8.4053214,2.8158716 8.5246944,2.7507587 C 8.6440666,2.6856464 8.7308837,2.6530902 8.7851441,2.6530902 C 8.8611089,2.620534 8.8882387,2.6530902 8.866535,2.7507587 C 8.779718,3.0220614 8.6033719,3.1631386 8.3374953,3.1739903 C 8.0716195,3.1848426 7.854578,3.1549993 7.6863707,3.0844606 C 7.5181627,3.0139224 7.3201115,3.0003575 7.0922177,3.0437659 C 6.8643239,3.0871738 6.6934038,3.1251561 6.5794571,3.1577127 C 6.46551,3.1902689 6.4085364,3.2228251 6.4085364,3.2553813 L 5.6434634,3.2553813 z M 5.9364698,2.490309 L 5.9364698,1.0089981 C 5.9364698,0.47724597 5.7953926,0.2059438 5.5132382,0.19509157 C 5.2310838,0.18423935 5.0900066,0.29276012 5.0900066,0.52065388 C 5.0900066,0.72684369 5.2365099,0.8299386 5.5295165,0.8299386 L 5.1876759,2.2461369 C 5.3070489,2.2461369 5.5566469,2.3275277 5.9364698,2.490309 z M 6.1318076,2.5065866 C 6.5116311,2.3329535 6.7612293,2.2461369 6.8806023,2.2461369 L 6.5224833,0.8299386 C 6.8154899,0.8299386 6.9619932,0.72684369 6.9619932,0.52065388 C 6.9619932,0.29276012 6.823629,0.18423935 6.5469004,0.19509157 C 6.2701719,0.2059438 6.1318076,0.47724597 6.1318076,1.0089981 L 6.1318076,2.5065866 z "
     id="path4" />
</svg>
