<?xml version="1.0" encoding="UTF-8" standalone="no"?>
<svg
   xmlns:dc="http://purl.org/dc/elements/1.1/"
   xmlns:cc="http://web.resource.org/cc/"
   xmlns:rdf="http://www.w3.org/1999/02/22-rdf-syntax-ns#"
   xmlns:svg="http://www.w3.org/2000/svg"
   xmlns="http://www.w3.org/2000/svg"
   xmlns:sodipodi="http://sodipodi.sourceforge.net/DTD/sodipodi-0.dtd"
   xmlns:inkscape="http://www.inkscape.org/namespaces/inkscape"
   width="1800"
   height="1800"
   id="svg2"
   sodipodi:version="0.32"
   inkscape:version="0.45.1"
   sodipodi:docname="C232.svg"
   sodipodi:docbase="/Users/rosmord/Travail/Gsigns/SThomasDetail/ManuelDeCodage/C"
   inkscape:output_extension="org.inkscape.output.svg.inkscape"
   version="1.0">
  <metadata
     id="metadata9">
    <rdf:RDF>
      <cc:Work
         rdf:about="">
        <dc:format>image/svg+xml</dc:format>
        <dc:type
           rdf:resource="http://purl.org/dc/dcmitype/StillImage" />
        <dc:description>Temporary sign for C232.(S. Rosmorduc), Thoueris.


</dc:description>
      </cc:Work>
    </rdf:RDF>
  </metadata>
  <defs
     id="defs7" />
  <sodipodi:namedview
     inkscape:window-height="758"
     inkscape:window-width="1170"
     inkscape:pageshadow="2"
     inkscape:pageopacity="0.0"
     guidetolerance="10.0"
     gridtolerance="10.0"
     objecttolerance="10.0"
     borderopacity="1.0"
     bordercolor="#666666"
     pagecolor="#ffffff"
     id="base"
     width="1800px"
     height="1800px"
     inkscape:zoom="0.1090123"
     inkscape:cx="820.70782"
     inkscape:cy="1515.7345"
     inkscape:window-x="0"
     inkscape:window-y="22"
     inkscape:current-layer="svg2" />
  <path
     style="fill:#000000;stroke:none"
     d="M 642.5,0.34375 C 620.79544,0.45630408 599.70481,11.183342 579.21875,32.5625 C 565.69587,53.970076 551.43062,71.031801 536.46875,83.75 C 440.24187,151.15964 334.40959,134.73481 244.21875,219.1875 C 200.57891,275.27946 185.3528,383.68359 222.625,445.6875 C 253.66644,482.4034 273.29475,527.0416 302.96875,564.71875 C 331.34012,598.09513 363.23918,607.67856 398.6875,593.40625 C 460.39696,569.92868 619.3908,558.17511 680.625,558.125 C 680.72043,558.19686 680.81046,558.27191 680.90625,558.34375 C 679.44232,561.27195 665.1474,579.57705 638.0625,613.25 C 610.97778,646.92312 586.82231,687.18187 565.59375,734.03125 C 544.36501,780.88078 547.6204,827.74421 575.4375,874.59375 C 585.68559,1022.4622 563.03981,1159.3421 507.40625,1285.25 L 219.71875,861.4375 C 169.94123,808.73175 116.47277,796.24572 59.375,824.0625 C 2.2772919,851.87944 -12.316893,901.6681 15.5,973.40625 C 157.51234,1399.4433 226.32972,1627.8486 221.9375,1658.5938 C 219.00943,1690.8027 198.10962,1718.6063 159.3125,1742.0312 C 120.51527,1765.4558 110.65485,1787.4097 129.6875,1807.9062 L 1001.5,1807.9062 C 1030.7807,1793.2659 1030.7809,1772.7589 1001.5,1746.4062 C 925.36961,1654.1713 900.85276,1565.2718 927.9375,1479.625 C 955.02238,1393.9787 978.84691,1201.7902 999.34375,903.125 L 1106.9062,903.125 C 1112.7623,718.65551 1114.2405,554.72635 1111.3125,411.25 C 1064.0742,169.65978 967.08871,48.710891 820.3125,48.5 C 819.54018,48.49889 818.74847,48.521243 817.96875,48.53125 C 782.01696,40.984587 745.83294,35.457647 709.4375,31.90625 C 686.50468,10.758452 664.20456,0.23119592 642.5,0.34375 z M 623.9375,95.65625 C 656.35076,102.81208 712.76383,117.69472 792.375,140 C 796.88756,261.41429 761.64701,383.49167 714.96875,494.875 C 646.8007,496.84418 535.696,492.41401 505.8125,481.53125 C 498.90599,447.75169 487.16027,424.571 470.5,411.96875 C 453.84022,399.36633 420.97124,410.88224 372,446.5625 C 319.42523,468.14645 301.57069,430.11758 276.90625,390.65625 C 267.46815,374.88875 270.52532,360.36355 286.0625,347.15625 C 311.08374,321.88228 348.43119,323.88219 357.59375,287.875 C 359.86636,273.05666 355.60527,259.31625 344.84375,246.65625 C 366.3658,232.32663 406.23193,216.25217 464.46875,198.46875 C 533.79967,177.40332 585.75148,159.18004 623.9375,95.65625 z M 854.34375,97.1875 C 980.25155,158.67739 1048.3767,280.17724 1058.625,461.71875 C 1061.5532,590.55458 1061.5532,723.06253 1058.625,859.21875 L 999.34375,859.21875 C 999.34375,654.25252 969.30722,551.75 909.28125,551.75 C 849.25557,551.75001 820.69667,593.51825 823.625,676.96875 L 823.625,852.625 L 779.71875,852.625 C 775.32683,621.30591 784.10205,471.24752 806.0625,402.4375 C 837.2681,302.40563 846.39622,200.49866 854.34375,97.1875 z M 598.59375,181.25 C 595.59654,181.25806 592.60552,181.28365 589.65625,181.3125 C 572.1629,212.0428 555.89709,227.29981 540.90625,227.15625 C 525.91526,227.01271 515.53327,232.89514 509.75,244.75 C 503.96687,256.60474 503.62062,267.81777 508.65625,278.40625 C 513.69187,288.99467 534.60739,298.46927 571.4375,306.8125 L 682.53125,304.59375 C 714.23885,283.58835 730.24433,258.04414 730.53125,228.0625 C 726.3014,220.7542 721.74748,214.33078 716.90625,208.78125 C 702.38243,192.13263 685.12005,183.41328 665.09375,182.59375 C 641.72986,181.63766 619.57419,181.19359 598.59375,181.25 z M 731.40625,582.53125 L 731.40625,905.34375 L 867.53125,905.34375 L 867.53125,672.53125 C 870.45911,627.14578 883.63781,604.4375 907.0625,604.4375 C 930.48733,604.43749 941.46409,628.65528 940,676.96875 C 948.78431,824.83729 943.68885,979.26747 924.65625,1140.3125 C 905.62363,1301.3573 884.36219,1425.7824 860.9375,1513.625 C 837.51282,1601.4677 853.64769,1673.965 909.28125,1731.0625 L 259.25,1731.0625 C 275.35447,1713.4943 285.93837,1686.0207 291.0625,1648.6875 C 296.18668,1611.3545 278.99794,1547.3021 239.46875,1456.5312 L 74.78125,958.03125 C 76.24532,878.97283 110.62267,863.59279 177.96875,911.90625 L 399.78125,1245.7188 L 483.21875,1351.125 C 528.60407,1381.8698 557.88607,1366.5211 571.0625,1305.0312 C 623.7682,1183.5157 643.55127,1036.3511 630.375,863.59375 C 587.91768,807.96004 621.60289,714.29522 731.40625,582.53125 z "
     id="path4"
     sodipodi:nodetypes="ccccccccccsccccccccccccccscccccccscccccccccccscccccccssscccsscccccscssccscccccccc" />
</svg>
