<?xml version="1.0" encoding="UTF-8" standalone="no"?>
<svg
   xmlns:dc="http://purl.org/dc/elements/1.1/"
   xmlns:cc="http://web.resource.org/cc/"
   xmlns:rdf="http://www.w3.org/1999/02/22-rdf-syntax-ns#"
   xmlns:svg="http://www.w3.org/2000/svg"
   xmlns="http://www.w3.org/2000/svg"
   xmlns:sodipodi="http://sodipodi.sourceforge.net/DTD/sodipodi-0.dtd"
   xmlns:inkscape="http://www.inkscape.org/namespaces/inkscape"
   width="15.467241"
   height="17.972734"
   id="svg2534"
   sodipodi:version="0.32"
   inkscape:version="0.45"
   sodipodi:docname="C240.svg"
   inkscape:output_extension="org.inkscape.output.svg.inkscape"
   sodipodi:docbase="C:\Program Files\JSesh\fontsST"
   sodipodi:modified="true">
  <metadata
     id="metadata2541">
    <rdf:RDF>
      <cc:Work
         rdf:about="">
        <dc:format>image/svg+xml</dc:format>
        <dc:type
           rdf:resource="http://purl.org/dc/dcmitype/StillImage" />
      </cc:Work>
    </rdf:RDF>
  </metadata>
  <defs
     id="defs2539" />
  <sodipodi:namedview
     inkscape:window-height="480"
     inkscape:window-width="640"
     inkscape:pageshadow="2"
     inkscape:pageopacity="0.0"
     guidetolerance="10.0"
     gridtolerance="10.0"
     objecttolerance="10.0"
     borderopacity="1.0"
     bordercolor="#666666"
     pagecolor="#ffffff"
     id="base" />
  <path
     style="fill:#000000; stroke:none"
     d="M 13.279112,17.354713 C 13.512957,17.31017 13.682774,17.207167 13.788562,17.045702 C 13.894349,16.884237 13.919404,16.686582 13.863727,16.452736 L 13.496254,16.452736 C 13.318086,16.86475 13.245705,17.165409 13.279112,17.354713 z M 13.913836,3.808349 C 13.67999,3.719265 13.529661,3.6134777 13.462848,3.490987 C 13.396035,3.3684957 13.173324,3.335089 12.794716,3.390767 L 12.76131,3.5578 C 12.872665,3.4687153 13.123215,3.4909863 13.512958,3.624613 L 13.512958,3.691426 C 13.134349,3.5578 12.872664,3.5633677 12.727903,3.708129 L 12.527464,4.175821 C 12.605412,4.1535503 12.655522,4.159118 12.677794,4.192524 C 12.700065,4.2259307 12.694497,4.264905 12.66109,4.309447 C 12.694497,4.4764803 12.719552,4.5850517 12.736255,4.635161 C 12.752958,4.685271 12.825339,4.6964067 12.953398,4.668568 C 13.081456,4.6407293 13.195595,4.6379453 13.295815,4.660216 C 13.396034,4.94974 13.507389,5.144612 13.62988,5.244832 L 13.913836,5.244832 L 13.913836,4.276041 C 14.058598,4.097873 14.130979,3.9419757 14.130979,3.808349 C 14.130979,3.6079097 14.097572,3.50769 14.030759,3.50769 C 13.95281,3.50769 13.913836,3.6079097 13.913836,3.808349 z M 12.861529,3.207031 C 13.251272,3.162489 13.485118,3.204247 13.563067,3.332305 C 13.641016,3.4603637 13.713397,3.5188253 13.78021,3.50769 C 13.78021,3.3740633 13.863726,3.30725 14.030759,3.30725 C 14.231198,3.30725 14.331418,3.474283 14.331418,3.808349 C 14.331418,3.9419757 14.264605,4.1034407 14.130979,4.292744 L 14.130979,6.280435 L 15.250099,6.280435 L 15.250099,5.629007 C 15.250099,4.459777 15.088634,3.6079093 14.765704,3.073404 C 14.565265,2.8395587 14.220063,2.722636 13.7301,2.722636 C 13.251273,2.722636 12.961749,2.884101 12.861529,3.207031 z M 13.245705,3.774942 C 13.13435,3.741536 13.061969,3.724833 13.028563,3.724833 C 13.113373,3.7819016 13.066274,3.8352383 12.995155,3.858459 C 12.886428,3.8883789 12.908725,3.7588225 12.928343,3.741536 C 12.906072,3.741536 12.8838,3.7554553 12.861529,3.783294 C 12.839258,3.8111327 12.816987,3.8306197 12.794716,3.841755 C 12.850394,3.8640263 12.889368,3.875162 12.911639,3.875162 C 12.945046,3.875162 12.972884,3.875162 12.995155,3.875162 C 13.061968,3.8640267 13.145485,3.83062 13.245705,3.774942 z M 12.7112,3.908569 L 12.694496,3.825052 L 12.76131,3.791646 C 12.783581,3.791646 12.805852,3.7721587 12.828123,3.733184 C 12.850394,3.69421 12.900504,3.669155 12.978453,3.658019 C 13.056401,3.658019 13.162188,3.685858 13.295815,3.741536 L 13.512958,3.741536 L 13.512958,3.825052 L 13.295815,3.825052 C 13.173324,3.88073 13.073104,3.9141367 12.995155,3.925272 C 12.939478,3.9364073 12.892152,3.9336233 12.853178,3.91692 L 12.7112,3.908569 z M 13.913836,5.979776 L 13.913836,5.512084 L 13.045265,5.512084 L 13.045265,6.497578 L 12.961749,6.798237 C 12.950613,6.9095923 13.006291,6.96527 13.128782,6.96527 C 13.362628,6.631204 13.624313,6.302706 13.913836,5.979776 z M 14.515155,6.480875 C 14.348122,6.6701783 14.208928,6.8316433 14.097572,6.96527 L 14.548561,6.96527 L 14.732297,6.480875 L 14.515155,6.480875 z M 14.966144,6.480875 C 14.776839,6.948567 14.659916,7.3828523 14.615375,7.783731 C 14.637646,8.0955257 14.749001,8.5075397 14.94944,9.019773 C 15.005117,9.3092977 14.966143,9.721312 14.832517,10.255816 C 14.69889,11.436182 14.657132,12.385486 14.707242,13.103727 C 14.757352,13.821968 14.721162,14.860355 14.598671,16.218889 C 14.587535,16.408194 14.565264,16.569659 14.531857,16.703285 C 14.498451,16.836912 14.487316,17.042919 14.498451,17.321306 C 14.687755,17.71105 14.593103,17.922625 14.214496,17.956032 C 13.88043,17.822405 13.610394,17.791782 13.404387,17.864162 C 13.198379,17.936543 12.917207,17.961598 12.56087,17.939327 C 12.249075,17.850244 11.870468,17.850244 11.425047,17.939327 L 10.740212,17.939327 L 10.740212,17.822405 C 10.740212,17.71105 11.013032,17.585776 11.558673,17.446581 C 12.104314,17.307386 12.466218,17.093028 12.644386,16.803505 C 12.700064,16.692149 12.750174,16.497277 12.794716,16.218889 C 12.839258,15.895959 12.889368,15.339183 12.945045,14.548561 C 13.000724,13.757939 13.022995,13.276328 13.011859,13.103727 C 13.000723,12.931126 12.889368,12.243508 12.677794,11.040872 C 12.655522,10.606586 12.750174,9.6377953 12.961749,8.1345 C 12.616548,8.3460747 12.054204,8.5576493 11.274717,8.769224 L 11.274717,8.785928 C 11.185633,8.8861473 11.06871,9.0030703 10.923948,9.136697 C 10.868271,9.2035103 10.790322,9.2647557 10.690103,9.320433 C 10.612154,9.3538397 10.486879,9.3816787 10.314279,9.40395 C 10.141678,9.4262207 10.02197,9.4707627 9.955157,9.537576 C 9.8994797,9.5487113 9.857722,9.5459273 9.829884,9.529224 C 9.8020447,9.5125207 9.7992603,9.481898 9.821531,9.437356 C 9.7881243,9.437356 9.7686373,9.4262207 9.76307,9.40395 C 9.7575027,9.3816787 9.754719,9.3649753 9.754719,9.35384 C 9.743583,9.35384 9.7324473,9.3427043 9.721312,9.320433 C 9.7101767,9.2981617 9.7157443,9.2758907 9.738015,9.25362 C 9.7157443,9.2647553 9.6934733,9.2591877 9.671202,9.236917 C 9.6489307,9.2146457 9.6712017,9.181239 9.738015,9.136697 C 9.8939123,9.0921543 10.030322,9.0643157 10.147245,9.053181 C 10.264168,9.042045 10.411714,8.9752317 10.589883,8.852741 C 10.62329,8.8193343 10.637209,8.7970633 10.63164,8.785928 C 10.626073,8.774792 10.606586,8.774792 10.573179,8.785928 C 10.506366,8.8081987 10.428418,8.8527407 10.339334,8.919554 C 10.272521,8.964096 10.208491,8.991935 10.147245,9.003071 C 10.086,9.0142057 10.055377,8.9919343 10.055377,8.936257 C 10.044242,8.891715 10.088784,8.8583087 10.189004,8.836038 C 10.266952,8.7914953 10.369955,8.7135467 10.498014,8.602192 C 10.626073,8.4908367 10.834865,8.4240233 11.124388,8.401752 C 11.770248,8.078822 12.282482,7.8338407 12.66109,7.666808 C 12.772445,7.4886393 12.8838,7.3216063 12.995155,7.165709 C 12.839258,7.0877603 12.733471,6.9764053 12.677794,6.831644 C 12.800284,6.586662 12.783581,6.4140613 12.627684,6.313842 C 11.903875,6.6590433 11.16893,6.9374313 10.42285,7.149006 C 9.9997,6.7147207 9.604389,6.1579443 9.236917,5.478677 C 9.0253417,5.300509 8.900067,5.1306923 8.861093,4.969227 C 8.8221183,4.8077623 8.785928,4.6824877 8.752522,4.593403 C 8.6857087,4.5154543 8.6690053,4.459777 8.702412,4.426371 C 8.7358187,4.3929643 8.7747927,4.398532 8.819334,4.443074 C 8.863876,4.487616 8.9028503,4.5488613 8.936257,4.62681 C 8.9696637,4.72703 9.0030703,4.8049787 9.036477,4.860656 C 9.047613,4.8829273 9.0615327,4.891279 9.078236,4.885711 C 9.0949393,4.880143 9.097723,4.860656 9.086587,4.82725 C 9.0086383,4.6156747 8.9279057,4.4681287 8.844389,4.384612 C 8.7608723,4.3010953 8.6467333,4.1869563 8.501972,4.042195 C 8.4685653,3.997653 8.4713493,3.9642463 8.510324,3.941975 C 8.549298,3.9197043 8.5743527,3.9197043 8.585488,3.941975 C 8.5743527,3.9197043 8.5799207,3.903001 8.602192,3.891865 C 8.6244627,3.8807297 8.641166,3.8807297 8.652302,3.891865 C 8.652302,3.8695943 8.6634373,3.852891 8.685708,3.841755 C 8.7079787,3.8306197 8.73025,3.8306197 8.752522,3.841755 C 8.7636567,3.808349 8.7859273,3.791646 8.819334,3.791646 C 8.8527407,3.791646 8.8861473,3.808349 8.919554,3.841755 C 8.975232,3.9642463 9.0643163,4.0839533 9.186807,4.200876 C 9.3092977,4.3177993 9.392814,4.4152353 9.437356,4.493184 C 9.4930333,4.5934033 9.520872,4.6880553 9.520872,4.77714 C 9.5654147,4.9664433 9.587686,5.133476 9.587686,5.278238 C 10.010835,5.7570653 10.339333,6.1690797 10.573179,6.514281 C 11.085414,6.2024863 11.631054,5.9185307 12.210101,5.662414 C 12.41054,5.384026 12.688928,5.244832 13.045265,5.244832 L 13.362628,5.244832 C 13.262408,5.144612 13.195595,5.005418 13.162189,4.82725 C 13.061969,4.82725 12.953397,4.8383853 12.836474,4.860656 C 12.719551,4.8829273 12.638819,4.8606563 12.594276,4.793843 C 12.549735,4.7270297 12.538599,4.6602163 12.56087,4.593403 C 12.482921,4.593403 12.46065,4.548861 12.494057,4.459777 C 12.43838,4.415235 12.427244,4.3818283 12.46065,4.359557 C 12.494057,4.3372863 12.488489,4.3094477 12.443947,4.276041 C 12.343727,4.2871763 12.304753,4.2537697 12.327024,4.175821 C 12.438379,3.997653 12.533031,3.719265 12.61098,3.340657 C 12.733471,2.7616097 13.106511,2.472086 13.7301,2.472086 C 14.342554,2.4609507 14.754569,2.6279837 14.966144,2.973185 C 15.300209,3.4965543 15.467241,4.3818283 15.467241,5.629007 L 15.467241,6.480875 L 14.966144,6.480875 z M 13.763507,7.366148 L 13.396034,7.783731 C 13.184459,9.0197737 13.061969,10.027538 13.028563,10.807025 C 13.028563,10.974058 13.103728,11.461237 13.254057,12.268562 C 13.404386,13.075888 13.373764,14.387096 13.162189,16.202187 L 14.214496,16.202187 C 14.403799,14.654348 14.442773,13.440576 14.331418,12.56087 C 14.364825,12.115449 14.387096,11.650541 14.398232,11.166146 C 14.409367,10.681751 14.465045,10.250249 14.565265,9.871641 C 14.665484,9.4930337 14.643213,9.1116423 14.498451,8.727467 C 14.353689,8.343291 14.292444,7.889518 14.314715,7.366148 L 13.763507,7.366148 z M 13.947243,7.149006 L 14.498451,7.149006 L 14.515155,7.098896 L 13.980649,7.098896 L 13.947243,7.149006 z M 1.469889,7.098896 L 0.952087,7.098896 L 0.968791,7.165709 L 1.519999,7.165709 L 1.469889,7.098896 z M 1.135823,7.366148 C 1.1692297,7.9006533 1.1135523,8.35721 0.968791,8.735818 C 0.824029,9.114426 0.80175767,9.4930337 0.901977,9.871641 C 1.002197,10.250249 1.0578747,10.681751 1.06901,11.166146 C 1.080146,11.650541 1.102417,12.115449 1.135823,12.56087 C 1.0244683,13.451712 1.0634427,14.671052 1.252746,16.218889 L 2.305053,16.218889 C 2.0934783,14.392664 2.0628557,13.075888 2.213185,12.268562 C 2.363515,11.461237 2.43868,10.974058 2.43868,10.807025 C 2.4052733,10.027538 2.2827823,9.0253413 2.071207,7.800434 L 1.703735,7.366148 L 1.135823,7.366148 z M 0,6.480875 L 0,5.629007 C 0,4.3929637 0.167033,3.5076897 0.501099,2.973185 C 0.71267367,2.639119 1.11912,2.4776537 1.720438,2.488789 C 2.3551633,2.488789 2.7337713,2.772745 2.856262,3.340657 C 2.9342107,3.719265 3.0288627,3.997653 3.140218,4.175821 C 3.1513533,4.2537697 3.1123787,4.292744 3.023294,4.292744 C 2.978752,4.3150153 2.9731843,4.3400703 3.006591,4.367909 C 3.0399977,4.3957477 3.0288623,4.431938 2.973185,4.47648 C 3.006591,4.565564 2.98432,4.610106 2.906372,4.610106 C 2.9175073,4.6769193 2.9035877,4.740949 2.864613,4.802195 C 2.825639,4.8634403 2.7476903,4.8829273 2.630767,4.860656 C 2.5138443,4.8383853 2.405273,4.82725 2.305053,4.82725 C 2.260511,5.005418 2.193698,5.1501797 2.104614,5.261535 L 2.405273,5.261535 C 2.7616097,5.261535 3.0455657,5.400729 3.257141,5.679117 C 3.8250523,5.9352343 4.365125,6.2136223 4.877359,6.514281 C 5.122341,6.1690797 5.450839,5.762633 5.862853,5.294941 C 5.8739883,5.150179 5.8962593,4.9775787 5.929666,4.77714 C 5.9408013,4.6880553 5.974208,4.5934033 6.029886,4.493184 C 6.0632927,4.4152353 6.144025,4.3177993 6.272083,4.200876 C 6.4001417,4.0839533 6.49201,3.9642463 6.547688,3.841755 C 6.581094,3.8194843 6.6145003,3.805565 6.647907,3.799997 C 6.6813137,3.7944297 6.703585,3.813917 6.714721,3.858459 C 6.7369917,3.8361877 6.7564787,3.8306197 6.773182,3.841755 C 6.7898853,3.852891 6.798237,3.8695943 6.798237,3.891865 C 6.8205083,3.8807297 6.8427793,3.8807297 6.86505,3.891865 C 6.8873213,3.903001 6.892889,3.9197043 6.881753,3.941975 C 6.892889,3.9308397 6.917944,3.9364073 6.956918,3.958678 C 6.995892,3.9809493 6.993108,4.0087883 6.948566,4.042195 C 6.81494,4.1980923 6.703585,4.3177993 6.614501,4.401316 C 6.525417,4.484832 6.4419007,4.62681 6.363952,4.82725 C 6.363952,4.871792 6.3695197,4.8968467 6.380655,4.902414 C 6.3917903,4.907982 6.4084937,4.8940627 6.430765,4.860656 C 6.4641717,4.816114 6.497578,4.7381653 6.530984,4.62681 C 6.5643907,4.5488613 6.603365,4.487616 6.647907,4.443074 C 6.6924497,4.398532 6.731424,4.398532 6.76483,4.443074 C 6.7982367,4.4653447 6.7815337,4.5154543 6.714721,4.593403 C 6.6813143,4.6824877 6.6451237,4.8077623 6.606149,4.969227 C 6.567175,5.1306923 6.4363327,5.306077 6.213622,5.495381 C 5.84615,6.1746477 5.4564067,6.725856 5.044392,7.149006 C 4.298312,6.9485667 3.5633673,6.6701787 2.839558,6.313842 C 2.6725253,6.4251973 2.655822,6.597798 2.789448,6.831644 C 2.7226353,6.9764053 2.616848,7.0877603 2.472086,7.165709 C 2.5834413,7.3327417 2.6947967,7.5053423 2.806152,7.683511 C 3.173624,7.8394083 3.685858,8.078822 4.342854,8.401752 C 4.632378,8.4240233 4.8383853,8.4908367 4.960876,8.602192 C 5.0833667,8.7135467 5.189154,8.7914953 5.278238,8.836038 C 5.3784573,8.869444 5.4229993,8.9028503 5.411864,8.936257 C 5.411864,8.9919343 5.3784577,9.0142057 5.311645,9.003071 C 5.2448317,8.991935 5.1780183,8.964096 5.111205,8.919554 C 5.022121,8.8527407 4.9497403,8.8137663 4.894063,8.802631 C 4.8606563,8.7914957 4.8383853,8.7887117 4.82725,8.794279 C 4.816114,8.799847 4.8272493,8.8193343 4.860656,8.852741 C 5.04996,8.9752317 5.2030733,9.0448287 5.319996,9.061532 C 5.4369193,9.0782353 5.5454907,9.1032903 5.64571,9.136697 C 5.74593,9.181239 5.7849043,9.2174293 5.762633,9.245268 C 5.7403623,9.2731067 5.723659,9.2814583 5.712523,9.270323 C 5.7347943,9.2814583 5.7403623,9.2981617 5.729227,9.320433 C 5.718091,9.3427043 5.7013877,9.3594077 5.679117,9.370543 C 5.6902523,9.370543 5.6902523,9.3844623 5.679117,9.412301 C 5.6679817,9.4401403 5.6512783,9.448492 5.629007,9.437356 C 5.6512783,9.481898 5.6457107,9.5125207 5.612304,9.529224 C 5.5788973,9.5459273 5.539923,9.5487113 5.495381,9.537576 C 5.4285677,9.4818987 5.3116447,9.442924 5.144612,9.420652 C 4.9775793,9.3983813 4.8550887,9.364975 4.77714,9.320433 C 4.67692,9.275891 4.598971,9.2202133 4.543293,9.1534 C 4.3985317,9.008638 4.2816087,8.8861473 4.192524,8.785928 L 4.175821,8.769224 C 3.3963343,8.5576493 2.8395583,8.3460747 2.505493,8.1345 C 2.7059323,9.6377953 2.800584,10.606586 2.789448,11.040872 C 2.566738,12.254643 2.4498153,12.945046 2.43868,13.112079 C 2.427544,13.279112 2.4525987,13.760723 2.513844,14.556912 C 2.5750893,15.353103 2.6279833,15.912663 2.672526,16.235592 C 2.717068,16.513981 2.76161,16.703285 2.806152,16.803505 C 2.995456,17.093028 3.3629283,17.307386 3.908569,17.446581 C 4.4542097,17.585776 4.72703,17.71105 4.72703,17.822405 L 4.72703,17.939327 L 4.042195,17.956032 C 3.5967737,17.855812 3.212598,17.850244 2.889668,17.939327 C 2.5444667,17.972734 2.2688627,17.950463 2.062856,17.872515 C 1.8568487,17.794566 1.586812,17.827973 1.252746,17.972734 C 0.87413867,17.939328 0.773919,17.727753 0.952087,17.338009 C 0.97435833,17.059621 0.96879067,16.85083 0.935384,16.711636 C 0.90197733,16.572443 0.87970633,16.413761 0.868571,16.235592 C 0.74608033,14.865923 0.70988967,13.824752 0.759999,13.112079 C 0.810109,12.399405 0.768351,11.447317 0.634725,10.255816 C 0.489963,9.7324467 0.45098867,9.3260003 0.517802,9.036477 C 0.71824133,8.5131077 0.82402867,8.0955257 0.835164,7.783731 C 0.80175733,7.3828523 0.68483433,6.9541347 0.484395,6.497578 L 0,6.480875 z M 0.734945,6.497578 L 0.918681,6.96527 L 1.352966,6.96527 C 1.2416107,6.8427793 1.1024167,6.686882 0.935384,6.497578 L 0.734945,6.497578 z M 1.536702,5.979776 C 1.8373613,6.302706 2.104614,6.631204 2.33846,6.96527 C 2.4498153,6.9764053 2.505493,6.9207277 2.505493,6.798237 L 2.421976,6.514281 L 2.421976,5.512084 L 1.536702,5.512084 L 1.536702,5.979776 L 1.536702,5.979776 z M 2.689229,3.908569 C 2.6780937,3.908569 2.6530387,3.9141367 2.614064,3.925272 C 2.57509,3.9364073 2.5221963,3.941975 2.455383,3.941975 C 2.3885697,3.9308397 2.28835,3.8918653 2.154724,3.825052 L 1.937581,3.825052 L 1.937581,3.741536 L 2.154724,3.741536 C 2.2994853,3.685858 2.4108403,3.663587 2.488789,3.674723 C 2.5556023,3.6858583 2.6029283,3.7081293 2.630767,3.741536 C 2.6586063,3.7749427 2.6780937,3.7972137 2.689229,3.808349 L 2.756042,3.825052 L 2.756042,3.925272 L 2.689229,3.908569 z M 2.221537,3.791646 C 2.310621,3.836188 2.3885697,3.8640267 2.455383,3.875162 C 2.4887897,3.875162 2.5166283,3.875162 2.538899,3.875162 C 2.5723057,3.875162 2.61128,3.8640263 2.655822,3.841755 C 2.6446867,3.841755 2.6279833,3.8278357 2.605712,3.799997 C 2.5834413,3.7721583 2.5611703,3.7526713 2.538899,3.741536 C 2.6174163,3.8090236 2.5284827,3.8661617 2.472086,3.858459 C 2.3255512,3.8166951 2.3984044,3.7449214 2.421825,3.724833 C 2.3884184,3.724833 2.3328923,3.747104 2.221537,3.791646 z M 2.589009,3.207031 C 2.499925,2.884101 2.2104013,2.722636 1.720438,2.722636 C 1.2416107,2.722636 0.90197733,2.8451267 0.701538,3.090108 C 0.378608,3.6246127 0.217143,4.4709123 0.217143,5.629007 L 0.217143,6.280435 L 1.336263,6.280435 L 1.336263,4.309447 C 1.191501,4.1201437 1.11912,3.953111 1.11912,3.808349 C 1.11912,3.474283 1.2249077,3.30725 1.436483,3.30725 C 1.6035157,3.30725 1.687032,3.379631 1.687032,3.524393 C 1.7538447,3.5355283 1.8262253,3.477067 1.904174,3.349009 C 1.9821227,3.2209503 2.210401,3.1736243 2.589009,3.207031 z M 1.553406,3.808349 C 1.553406,3.619045 1.5144317,3.524393 1.436483,3.524393 C 1.3696697,3.524393 1.336263,3.619045 1.336263,3.808349 C 1.336263,3.9419757 1.403076,4.1034407 1.536702,4.292744 L 1.536702,5.261535 L 1.837361,5.261535 C 1.9487163,5.1501797 2.054504,4.94974 2.154724,4.660216 C 2.2660793,4.6379453 2.385786,4.6407293 2.513844,4.668568 C 2.6419027,4.6964067 2.7142837,4.685271 2.730987,4.635161 C 2.7476903,4.5850517 2.7727453,4.4764803 2.806152,4.309447 C 2.76161,4.264905 2.7504743,4.2287147 2.772745,4.200876 C 2.7950163,4.1730373 2.8451263,4.1646857 2.923075,4.175821 L 2.739339,3.724833 C 2.5834417,3.580071 2.316189,3.5689353 1.937581,3.691426 L 1.937581,3.641316 C 2.3273243,3.496554 2.5834413,3.474283 2.705932,3.574503 L 2.655822,3.40747 C 2.28835,3.3517927 2.0712073,3.3824153 2.004394,3.499338 C 1.9375807,3.6162613 1.7872513,3.719265 1.553406,3.808349 z M 2.171427,17.371416 C 2.2048337,17.182112 2.1380207,16.875885 1.970988,16.452736 L 1.603515,16.452736 C 1.5478377,16.686582 1.5701087,16.884237 1.670328,17.045702 C 1.770548,17.207167 1.937581,17.315738 2.171427,17.371416 z M 2.271647,2.488789 L 2.271647,2.355163 L 1.687032,2.355163 L 1.687032,1.11912 L 1.336263,1.11912 L 1.336263,0.167033 L 1.185933,0.167033 L 1.185933,2.488789 L 2.271647,2.488789 z M 1.035604,0.016703 L 1.503296,0.016703 L 1.503296,0.952087 L 1.854065,0.952087 L 1.854065,2.18813 L 2.455383,2.18813 L 2.455383,2.639119 L 1.035604,2.639119 L 1.035604,0.016703 z M 14.264606,2.639119 L 13.362628,2.639119 L 13.362628,0.718241 C 13.095375,0.64029233 12.8838,0.40087867 12.727903,0 L 14.932736,0 C 14.776839,0.40087867 14.554129,0.63472467 14.264606,0.701538 L 14.264606,2.639119 z M 14.682187,0.15033 L 12.961749,0.15033 C 13.073104,0.33963333 13.217866,0.46769167 13.396034,0.534505 L 13.496254,0.567912 C 13.574203,0.60131867 13.677206,0.618022 13.805264,0.618022 C 13.933323,0.618022 14.047463,0.60131867 14.147682,0.567912 L 14.264606,0.534505 C 14.442773,0.46769167 14.581967,0.33963333 14.682187,0.15033 z M 14.097572,0.734945 C 14.008488,0.75721567 13.905485,0.768351 13.788562,0.768351 C 13.671639,0.768351 13.585338,0.75721567 13.52966,0.734945 L 13.52966,2.472086 L 13.67999,2.472086 L 13.67999,1.519999 L 14.097572,1.519999 L 14.097572,0.734945 z M 13.847023,1.670328 L 13.847023,2.472086 L 14.097572,2.472086 L 14.097572,1.670328 L 13.847023,1.670328 z M 7.733621,5.879556 C 7.5665883,5.8906913 7.477504,5.9742077 7.466368,6.130105 C 7.477504,6.3082737 7.5665883,6.397358 7.733621,6.397358 C 7.9006537,6.397358 7.989738,6.3082737 8.000874,6.130105 C 7.989738,5.9742077 7.9006537,5.8906913 7.733621,5.879556 z M 9.504169,10.506366 L 8.284829,7.583292 C 8.1289317,7.6501047 7.9953053,7.683511 7.88395,7.683511 L 7.88395,10.506366 L 7.583292,10.506366 L 7.583292,7.683511 C 7.471936,7.683511 7.3383097,7.6501047 7.182413,7.583292 L 5.946369,10.506366 L 5.629007,10.506366 L 6.91516,7.449665 C 6.8594827,7.4162583 6.7759663,7.3494453 6.664611,7.249226 C 6.519849,7.104464 6.4084937,6.940215 6.330545,6.756479 C 6.2525963,6.572743 6.213622,6.3750873 6.213622,6.163512 C 6.213622,5.9630727 6.2525963,5.770985 6.330545,5.587249 C 6.4084937,5.403513 6.517065,5.2420477 6.656259,5.102853 C 6.795453,4.9636597 6.956918,4.8550887 7.140654,4.77714 C 7.32439,4.6991907 7.5220457,4.6546483 7.733621,4.643513 C 7.9451957,4.6546483 8.1428513,4.6991907 8.326588,4.77714 C 8.510324,4.8550887 8.671789,4.9636597 8.810983,5.102853 C 8.9501763,5.2420477 9.0587477,5.403513 9.136697,5.587249 C 9.2146457,5.770985 9.25362,5.9686403 9.25362,6.180215 C 9.25362,6.380655 9.2146457,6.5755267 9.136697,6.76483 C 9.0587477,6.954134 8.9473923,7.1155993 8.802631,7.249226 C 8.7024117,7.3494453 8.6188953,7.4162583 8.552082,7.449665 L 9.821531,10.506366 L 9.504169,10.506366 z M 6.514281,6.163512 C 6.514281,6.3305453 6.5449037,6.4864427 6.606149,6.631204 C 6.6673943,6.775966 6.7536947,6.9012407 6.86505,7.007028 C 6.9764053,7.1128153 7.1072477,7.1963317 7.257577,7.257577 C 7.407907,7.3188223 7.5665883,7.349445 7.733621,7.349445 C 7.9117897,7.349445 8.0732547,7.3188223 8.218016,7.257577 C 8.362778,7.1963317 8.4908367,7.1128153 8.602192,7.007028 C 8.7135467,6.9012407 8.8054147,6.775966 8.877796,6.631204 C 8.9501767,6.4864427 8.9807993,6.3305453 8.969664,6.163512 C 8.969664,6.0076147 8.9362573,5.8545013 8.869444,5.704172 C 8.8026307,5.553842 8.7135467,5.4257833 8.602192,5.319996 C 8.4908367,5.2142087 8.362778,5.1279083 8.218016,5.061095 C 8.0732547,4.9942823 7.9117897,4.960876 7.733621,4.960876 C 7.5665883,4.960876 7.407907,4.9942823 7.257577,5.061095 C 7.1072477,5.1279083 6.9764053,5.2142087 6.86505,5.319996 C 6.7536947,5.4257833 6.6673943,5.553842 6.606149,5.704172 C 6.5449037,5.8545013 6.514281,6.0076147 6.514281,6.163512 z M 7.917357,16.93713 L 8.652302,14.782407 L 7.88395,15.083066 L 8.067687,11.024168 L 7.399555,11.024168 L 7.599995,15.083066 L 6.81494,14.782407 L 7.549885,16.93713 L 7.917357,16.93713 z M 8.334939,10.790322 L 8.101093,14.765704 L 8.986367,14.431638 L 8.101093,17.187679 L 7.366148,17.187679 L 6.480875,14.431638 L 7.366148,14.765704 L 7.132303,10.790322 L 8.334939,10.790322 z M 4.309447,16.93713 L 6.297138,16.93713 C 6.11897,16.346948 5.7904723,16.051857 5.311645,16.051857 C 4.8105463,16.051857 4.4764803,16.346948 4.309447,16.93713 z M 3.875162,17.204384 C 4.0867367,16.202187 4.5655643,15.701088 5.311645,15.701088 C 6.057725,15.701088 6.5309847,16.202187 6.731424,17.204384 L 3.875162,17.204384 z M 9.170103,16.93713 L 11.157794,16.93713 C 10.990761,16.346948 10.662263,16.051857 10.1723,16.051857 C 9.6823373,16.051857 9.3482717,16.346948 9.170103,16.93713 z M 8.752522,17.204384 C 8.9529613,16.213322 9.4262207,15.712223 10.1723,15.701088 C 10.918381,15.712223 11.391641,16.213322 11.59208,17.204384 L 8.752522,17.204384 z "
     id="path2536"
     sodipodi:nodetypes="csccccsccccccssssccccssccsssscccccscccccssssccccssccccsccccccccccccccccccsssccsccccsssssccccssssssssssssssssssssscccccccsssssssssssssssssssssccccccsssssssssscccccsscccssscccccccccccccssscccsscccccssssssssssccccccssssssssssssssssssssscccccccsssssssssssssssssssssccccsssssccccsccssscccccccccccccccccccssccccsscccccsssscccccscccccssssccssccccssssccccccsccccsccccccccccccccccccccccccccccccsccccsccccccccccccssscccccccccccsssssssssssssccccssssssssssssssscccccccccccccccccccccsccsccccsccccc" />
</svg>
