<?xml version="1.0" encoding="UTF-8" standalone="no"?>
<svg
   xmlns:dc="http://purl.org/dc/elements/1.1/"
   xmlns:cc="http://web.resource.org/cc/"
   xmlns:rdf="http://www.w3.org/1999/02/22-rdf-syntax-ns#"
   xmlns:svg="http://www.w3.org/2000/svg"
   xmlns="http://www.w3.org/2000/svg"
   xmlns:sodipodi="http://sodipodi.sourceforge.net/DTD/sodipodi-0.dtd"
   xmlns:inkscape="http://www.inkscape.org/namespaces/inkscape"
   width="17.994888"
   height="18"
   id="svg2570"
   sodipodi:version="0.32"
   inkscape:version="0.45.1"
   sodipodi:docname="C241.svg"
   inkscape:output_extension="org.inkscape.output.svg.inkscape"
   sodipodi:docbase="/Users/rosmord/Travail/Gsigns/SThomasDetail/ManuelDeCodage/C"
   version="1.0">
  <metadata
     id="metadata2577">
    <rdf:RDF>
      <cc:Work
         rdf:about="">
        <dc:format>image/svg+xml</dc:format>
        <dc:type
           rdf:resource="http://purl.org/dc/dcmitype/StillImage" />
      </cc:Work>
    </rdf:RDF>
  </metadata>
  <defs
     id="defs2575" />
  <sodipodi:namedview
     inkscape:window-height="581"
     inkscape:window-width="701"
     inkscape:pageshadow="2"
     inkscape:pageopacity="0.0"
     guidetolerance="10.0"
     gridtolerance="10.0"
     objecttolerance="10.0"
     borderopacity="1.0"
     bordercolor="#666666"
     pagecolor="#ffffff"
     id="base"
     height="18px"
     width="17.994888px"
     inkscape:zoom="19.207317"
     inkscape:cx="9.0472528"
     inkscape:cy="8.0722757"
     inkscape:window-x="0"
     inkscape:window-y="22"
     inkscape:current-layer="svg2570" />
  <path
     style="fill:#000000;stroke:none"
     d="M 13.979383,7.1670327 L 14.012952,7.2173866 L 15.238228,7.2173866 L 15.255015,7.1670327 L 13.979383,7.1670327 z M 14.197583,7.4355869 C 13.940219,8.9573915 13.800347,10.109935 13.777968,10.893218 C 13.777968,11.061064 13.853498,11.550615 14.00456,12.361872 C 14.155621,13.173129 14.119254,14.490722 13.89546,16.31465 L 14.95289,16.31465 C 15.143115,14.770465 15.182279,13.550782 15.070383,12.655603 C 15.115143,12.208013 15.140319,11.740841 15.145914,11.254087 C 15.151509,10.767333 15.207458,10.333731 15.31376,9.9532788 C 15.420063,9.5728279 15.397685,9.1923761 15.246623,8.8119253 C 15.09556,8.4314742 15.036813,7.9726946 15.070383,7.4355869 L 14.197583,7.4355869 z M 14.029737,17.489573 C 14.264721,17.433625 14.435365,17.324524 14.541668,17.162273 C 14.647971,17.000022 14.667552,16.801404 14.600414,16.566418 L 14.231152,16.566418 C 14.063306,16.991629 13.996168,17.299348 14.029737,17.489573 z M 14.650767,3.8604619 C 14.426973,3.7709445 14.281506,3.6674393 14.214368,3.5499466 C 14.147229,3.4324544 13.923433,3.3960879 13.542983,3.4408469 L 13.492629,3.6254779 C 13.615716,3.5247701 13.87308,3.5415548 14.264721,3.6758319 L 14.264721,3.7429704 C 13.88427,3.6198831 13.621311,3.6310728 13.475844,3.7765397 L 13.274429,4.229724 C 13.352758,4.2185342 13.403112,4.2269267 13.42549,4.2549014 C 13.44787,4.2828755 13.442275,4.319242 13.408706,4.3640011 C 13.431086,4.5318474 13.450668,4.6409474 13.467452,4.691301 C 13.484237,4.7416552 13.559767,4.752845 13.694044,4.7248703 C 13.828321,4.6968962 13.945814,4.6940986 14.046522,4.7164775 C 14.147229,5.0074112 14.253531,5.2088269 14.365429,5.3207245 L 14.667552,5.3207245 L 14.667552,4.3304318 C 14.813019,4.1513957 14.885753,3.994739 14.885753,3.8604619 C 14.885753,3.6590469 14.852183,3.5583394 14.785044,3.5583394 C 14.695526,3.5583394 14.650767,3.6590469 14.650767,3.8604619 z M 13.610121,3.2562159 C 14.001762,3.2226466 14.23395,3.2674057 14.306683,3.390493 C 14.379417,3.5135804 14.449352,3.5695291 14.516491,3.5583394 C 14.516491,3.4240623 14.600414,3.3569237 14.76826,3.3569237 C 14.980866,3.3569237 15.087168,3.5247698 15.087168,3.8604619 C 15.087168,4.0059288 15.014435,4.1737752 14.868968,4.3640011 L 14.868968,6.3445864 L 16.010322,6.3445864 L 16.010322,5.6899865 C 16.010322,4.5150625 15.848071,3.6646415 15.523569,3.1387235 C 15.310963,2.8925494 14.964081,2.7694624 14.482921,2.7694624 C 14.001763,2.7694624 13.710829,2.9317136 13.610121,3.2562159 z M 13.996168,3.8436782 C 13.87308,3.7989192 13.800347,3.7765397 13.777968,3.7765397 C 13.880635,3.8356817 13.782608,3.9208439 13.727614,3.9108168 C 13.632219,3.907545 13.637204,3.819875 13.660475,3.7933243 C 13.638096,3.7933243 13.615716,3.8101089 13.593337,3.8436782 C 13.570957,3.8772469 13.554172,3.8940312 13.542983,3.8940312 C 13.587742,3.9164107 13.626906,3.9276005 13.660475,3.9276005 C 13.694044,3.9276005 13.722019,3.9276005 13.744398,3.9276005 C 13.811537,3.9164114 13.89546,3.8884373 13.996168,3.8436782 z M 13.442276,3.9779553 L 13.442276,3.8772466 L 13.509413,3.8604619 C 13.520603,3.8492728 13.540185,3.8268936 13.568159,3.7933243 C 13.596134,3.759755 13.64369,3.7373755 13.710829,3.7261858 C 13.800347,3.714996 13.912245,3.7373755 14.046522,3.7933243 L 14.264721,3.7933243 L 14.264721,3.8772466 L 14.046522,3.8772466 C 13.912245,3.9443858 13.811537,3.9779553 13.744398,3.9779553 C 13.688449,3.9891444 13.640893,3.9891444 13.601728,3.9779553 C 13.562564,3.9667649 13.531793,3.9611698 13.509413,3.9611698 L 13.442276,3.9779553 z M 13.777968,5.5724931 L 13.777968,6.5627858 L 13.694044,6.8649092 C 13.694044,6.9768068 13.777968,7.0327556 13.945814,7.0327556 L 15.288583,7.0327556 L 15.473215,6.5627858 L 14.667552,6.5627858 L 14.667552,5.5724931 L 13.777968,5.5724931 z M 9.2629048,8.0230483 C 9.296474,7.989479 9.3104617,7.9698967 9.3048668,7.9643016 C 9.2992719,7.958707 9.2796894,7.9559097 9.2461201,7.9559097 C 9.1789816,7.9670995 9.1006533,7.9950739 9.0111352,8.0398329 C 8.9328075,8.0734015 8.8600744,8.0901859 8.7929358,8.0901859 C 8.7257966,8.0901859 8.6978222,8.0622115 8.7090126,8.0062627 C 8.7090126,7.9726941 8.7593663,7.9447197 8.8600735,7.9223395 C 8.9495915,7.8999607 9.067084,7.8440121 9.2125508,7.7544941 C 9.3580177,7.664976 9.6265719,7.6314067 10.018213,7.6537863 C 10.644839,7.6090272 11.249085,7.5586733 11.830951,7.5027245 C 12.144264,6.999186 12.496741,6.5012424 12.888383,6.0088937 C 12.933142,5.6620118 13.190506,5.432622 13.660475,5.3207245 L 14.130445,5.3207245 C 14.018547,5.2088269 13.940219,5.06336 13.89546,4.8843239 C 13.805942,4.8843239 13.699639,4.8955136 13.576553,4.9178932 C 13.453465,4.9402727 13.372339,4.9178932 13.333175,4.8507546 C 13.294011,4.7836167 13.285619,4.722073 13.307999,4.6661236 C 13.218481,4.6661236 13.196101,4.61577 13.240859,4.5150628 C 13.173722,4.4703038 13.156937,4.4367345 13.190506,4.414355 C 13.224075,4.3919754 13.21848,4.3640011 13.173722,4.3304318 C 13.084203,4.3416215 13.050634,4.3080523 13.073013,4.229724 C 13.18491,4.0506878 13.274428,3.7709442 13.341567,3.390493 C 13.464654,2.8086262 13.845106,2.5176928 14.482921,2.5176928 C 15.087167,2.5065031 15.501188,2.6743491 15.724983,3.021231 C 16.049486,3.547149 16.211737,4.4367342 16.211737,5.6899865 L 16.211737,6.5460011 L 16.127815,6.5627858 C 16.250901,7.1782225 16.30685,7.816038 16.295661,8.4762326 C 16.452317,8.9462017 16.474696,9.6567511 16.362799,10.60788 C 16.564214,10.977141 16.592188,11.374377 16.446721,11.799587 C 16.435532,11.989813 16.41595,12.098914 16.387975,12.126888 C 16.360001,12.154861 16.334824,12.157658 16.312445,12.13528 C 16.278876,12.180039 16.245306,12.174444 16.211737,12.118495 C 16.189357,12.152063 16.161383,12.146469 16.127815,12.10171 C 16.094246,12.13528 16.071866,12.143673 16.060675,12.126888 C 16.049486,12.110103 16.043891,12.073736 16.043891,12.017787 C 16.1446,11.514249 16.172574,11.195341 16.127815,11.061064 C 16.094246,10.982736 16.066271,10.993925 16.043891,11.094633 C 16.066271,11.351997 16.055081,11.508653 16.010322,11.564602 C 15.965562,11.642931 15.926398,11.637336 15.892829,11.547818 C 15.915209,11.44711 15.915209,11.307238 15.892829,11.128202 C 15.87045,10.949166 15.876045,10.817687 15.909615,10.733764 C 15.943183,10.649841 15.982347,10.57431 16.027107,10.507172 C 16.015916,10.070771 15.96836,9.6679399 15.884437,9.2986789 C 15.800514,8.9294175 15.780932,8.6049148 15.825691,8.3251708 C 15.691413,7.7321148 15.601895,7.2565508 15.557136,6.8984785 L 15.42286,7.2677396 L 15.372506,7.8552019 C 15.394885,8.1685145 15.506782,8.582535 15.708199,9.0972632 C 15.764147,9.3993867 15.719388,9.8134077 15.573921,10.339325 C 15.439645,11.536629 15.397683,12.493352 15.448037,13.209496 C 15.498391,13.925639 15.46762,14.966285 15.355723,16.331434 C 15.333342,16.521659 15.305368,16.683911 15.271798,16.818188 C 15.238229,16.952466 15.232634,17.159476 15.255015,17.439219 C 15.434051,17.83086 15.333343,18.043466 14.95289,18.077035 C 14.628388,17.942758 14.359834,17.911985 14.147229,17.984719 C 13.934624,18.057452 13.65488,18.08263 13.307999,18.060251 C 12.983496,17.970732 12.597449,17.976327 12.14986,18.077035 L 11.478474,18.060251 L 11.478474,17.942757 C 11.467285,17.83086 11.738636,17.704976 12.292529,17.565105 C 12.846422,17.425233 13.212886,17.20983 13.391922,16.918897 C 13.43668,16.818188 13.481439,16.622367 13.526198,16.331434 C 13.582147,16.006931 13.638096,15.447444 13.694044,14.652973 C 13.749993,13.858501 13.772373,13.377341 13.761183,13.209496 C 13.749993,13.041649 13.638096,12.347885 13.42549,11.128202 C 13.403112,10.691803 13.526198,9.4441457 13.794751,7.385233 C 13.805942,7.306904 13.761183,7.2425628 13.660475,7.1922092 C 13.559767,7.1418556 13.481439,7.0439454 13.42549,6.8984785 L 13.542983,6.5627858 L 13.542983,6.3781557 C 13.073014,7.027161 12.55269,7.6146224 11.982013,8.1405398 C 11.400147,8.2188688 10.723166,8.1908944 9.951074,8.0566166 C 9.8391773,8.1573251 9.6993053,8.2580329 9.5314589,8.3587401 C 9.4643204,8.4146889 9.3748023,8.4594479 9.2629048,8.4930172 C 9.1845764,8.5265865 9.0586919,8.5377762 8.8852509,8.5265865 C 8.7118099,8.5153967 8.5915202,8.5377762 8.5243816,8.593725 C 8.4684329,8.593725 8.4292687,8.5853329 8.4068892,8.5685485 C 8.3845097,8.5517636 8.3789148,8.5153967 8.3901045,8.4594479 C 8.367725,8.4706377 8.353738,8.4622455 8.3481434,8.4342714 C 8.3425488,8.4062967 8.3453462,8.3867145 8.3565353,8.3755247 C 8.3341558,8.3755247 8.322966,8.3643352 8.322966,8.3419564 C 8.322966,8.3195762 8.3341558,8.2971964 8.3565353,8.2748169 C 8.3341558,8.2860073 8.3145739,8.2776151 8.2977895,8.2496404 C 8.2810046,8.2216663 8.3061814,8.1908946 8.3733199,8.1573254 C 8.5299765,8.146135 8.6670509,8.1405398 8.7845431,8.1405398 C 8.9020352,8.1405398 9.0614891,8.1013759 9.2629048,8.0230483 z M 7.2823194,8.0230483 C 7.4837351,8.1013759 7.6431893,8.1405398 7.760682,8.1405398 C 7.8781742,8.1405398 8.0152483,8.146135 8.1719043,8.1573254 C 8.2390428,8.1908946 8.2614223,8.2216663 8.2390428,8.2496404 C 8.2166639,8.2776151 8.1998793,8.2860073 8.1886889,8.2748169 C 8.2110684,8.2971964 8.2194609,8.3195762 8.2138663,8.3419564 C 8.2082717,8.3643352 8.1998793,8.3755247 8.1886889,8.3755247 C 8.1998793,8.3867145 8.2026766,8.4062967 8.1970808,8.4342714 C 8.1914862,8.4622455 8.1719043,8.4706377 8.138335,8.4594479 C 8.1607145,8.5153967 8.1579172,8.5517636 8.1299431,8.5685485 C 8.1019685,8.5853329 8.0656018,8.593725 8.0208434,8.593725 C 7.9425151,8.5377762 7.8194278,8.5153967 7.6515814,8.5265865 C 7.4837351,8.5377762 7.3550528,8.5265865 7.2655348,8.4930172 C 7.1648276,8.4594479 7.0809047,8.4146889 7.0137661,8.3587401 C 6.8459198,8.2580329 6.7060478,8.1573251 6.5941502,8.0566166 C 5.8220581,8.1908944 5.1450787,8.2188688 4.5632119,8.1405398 C 3.9925349,7.6146224 3.4666165,7.027161 2.9854569,6.3781557 L 2.9854569,6.5627858 L 3.119734,6.8984785 C 3.0637852,7.0439454 2.9854572,7.1418556 2.88475,7.1922092 C 2.7840422,7.2425628 2.7336883,7.306904 2.7336883,7.385233 C 3.0134316,9.4441457 3.1421135,10.691803 3.119734,11.128202 C 2.9071292,12.347885 2.7952319,13.041649 2.7840422,13.209496 C 2.7728524,13.377341 2.7952319,13.858501 2.8511807,14.652973 C 2.9071289,15.447444 2.9630774,16.006931 3.0190262,16.331434 C 3.0637852,16.622367 3.1085442,16.818188 3.1533033,16.918897 C 3.3323394,17.20983 3.6988038,17.425233 4.2526965,17.565105 C 4.8065887,17.704976 5.0779398,17.83086 5.0667501,17.942757 L 5.0667501,18.060251 L 4.3785809,18.077035 C 3.9421803,17.976327 3.5617288,17.970732 3.2372265,18.060251 C 2.8903446,18.08263 2.6106009,18.057452 2.3979955,17.984719 C 2.1853901,17.911985 1.9112413,17.942758 1.5755492,18.077035 C 1.2062879,18.043466 1.1111749,17.83086 1.2902104,17.439219 C 1.3125899,17.159476 1.3041978,16.952466 1.2650339,16.818188 C 1.22587,16.683911 1.2006933,16.521659 1.1895035,16.331434 C 1.0776059,14.966285 1.0440366,13.925639 1.0887957,13.209496 C 1.1335547,12.493352 1.0943905,11.536629 0.97130321,10.339325 C 0.82583636,9.8134077 0.78107732,9.3993867 0.83702611,9.0972632 C 1.0384418,8.582535 1.1503393,8.1685145 1.1727189,7.8552019 L 1.1055803,7.2677396 L 0.98808785,6.8984785 C 0.94332882,7.2565508 0.85381075,7.7321148 0.71953365,8.3251708 C 0.76429269,8.6049148 0.74191317,8.9294175 0.65239511,9.2986789 C 0.56287704,9.6679399 0.51811801,10.070771 0.51811801,10.507172 C 0.56287704,10.57431 0.60204119,10.649841 0.63561047,10.733764 C 0.66917974,10.817687 0.67477462,10.949166 0.65239511,11.128202 C 0.63001559,11.307238 0.63001559,11.44711 0.65239511,11.547818 C 0.61882583,11.637336 0.57966168,11.642931 0.53490265,11.564602 C 0.49014361,11.508653 0.47895386,11.351997 0.50133337,11.094633 C 0.47895386,10.993925 0.45097946,10.982736 0.41741019,11.061064 C 0.36146201,11.195341 0.38943641,11.514249 0.50133337,12.017787 C 0.50133337,12.073736 0.49573849,12.110103 0.48454873,12.126888 C 0.47335898,12.143673 0.45097946,12.13528 0.41741019,12.10171 C 0.38384091,12.146469 0.35586682,12.152063 0.33348792,12.118495 C 0.29991865,12.174444 0.26634937,12.180039 0.2327801,12.13528 C 0.21040058,12.157658 0.18522347,12.154861 0.15724877,12.126888 C 0.12927468,12.098914 0.10969276,11.989813 0.098503,11.799587 C -0.046963855,11.374377 -0.01898946,10.977141 0.18242619,10.60788 C 0.070528605,9.6567511 0.092908121,8.9462017 0.24956473,8.4762326 C 0.23837498,7.816038 0.28872858,7.1782225 0.40062555,6.5627858 L 0.33348792,6.5460011 L 0.33348792,5.6899865 C 0.33348792,4.4367342 0.49573911,3.547149 0.82024148,3.021231 C 1.0440366,2.6743491 1.4580574,2.5065031 2.0623037,2.5176928 C 2.7001187,2.5176928 3.0805699,2.8086262 3.2036572,3.390493 C 3.2707957,3.7709442 3.3603138,4.0506878 3.4722114,4.229724 C 3.4945909,4.3080523 3.4610216,4.3416215 3.3715036,4.3304318 C 3.3267445,4.3640011 3.3183524,4.3919754 3.3463271,4.414355 C 3.3743012,4.4367345 3.3603138,4.4703038 3.304365,4.5150628 C 3.349124,4.61577 3.3267445,4.6661236 3.2372265,4.6661236 C 3.259606,4.722073 3.2512138,4.7836167 3.21205,4.8507546 C 3.1728855,4.9178932 3.0917596,4.9402727 2.9686723,4.9178932 C 2.8455856,4.8955136 2.7336883,4.8843239 2.6329804,4.8843239 C 2.5994112,5.06336 2.5266777,5.2088269 2.4147802,5.3207245 L 2.88475,5.3207245 C 3.3547192,5.432622 3.6120834,5.6620118 3.6568424,6.0088937 C 4.0484833,6.5012424 4.4009601,6.999186 4.7142727,7.5027245 C 5.2849497,7.5586733 5.8891961,7.6090272 6.5270117,7.6537863 C 6.9186532,7.6314067 7.1872071,7.664976 7.3326733,7.7544941 C 7.4781402,7.8440121 7.5956326,7.8999607 7.6851507,7.9223395 C 7.7858579,7.9447197 7.8362115,7.9726941 7.8362115,8.0062627 C 7.8474019,8.0622115 7.8194278,8.0901859 7.7522893,8.0901859 C 7.6851507,8.0901859 7.6124173,8.0734015 7.534089,8.0398329 C 7.4445709,7.9950739 7.3662429,7.9670995 7.299105,7.9559097 C 7.2655351,7.9559097 7.2431555,7.958707 7.2319664,7.9643016 C 7.2207767,7.9698967 7.237561,7.989479 7.2823194,8.0230483 z M 1.8776727,5.5724931 L 1.8776727,6.5627858 L 1.072011,6.5627858 L 1.2566411,7.0327556 L 2.5994112,7.0327556 C 2.7672575,7.0327556 2.8511807,6.9768068 2.8511807,6.8649092 L 2.7504729,6.5627858 L 2.7504729,5.5724931 L 1.8776727,5.5724931 z M 3.0358108,3.9611698 C 2.9624239,3.9563103 2.8709998,3.9867824 2.8008268,3.9779553 C 2.7224985,3.9779553 2.6217907,3.9443858 2.4987034,3.8772466 L 2.2805031,3.8772466 L 2.2805031,3.7933243 L 2.4987034,3.7933243 C 2.6329804,3.7373755 2.744878,3.714996 2.8343961,3.7261858 C 2.901534,3.7373755 2.9490904,3.759755 2.977065,3.7933243 C 3.0050392,3.8268936 3.0246211,3.8492728 3.0358108,3.8604619 L 3.1029494,3.8772466 L 3.0861647,3.9779553 L 3.0358108,3.9611698 z M 2.5490573,3.8436782 C 2.6497651,3.8884373 2.7336883,3.9164114 2.8008268,3.9276005 C 2.8232063,3.9276005 2.8511807,3.9276005 2.88475,3.9276005 C 2.9071295,3.9276005 2.9462934,3.9164107 3.0022415,3.8940312 C 2.9602622,3.8409482 2.9104028,3.8036243 2.8679644,3.7933243 C 2.9492229,3.8640655 2.8415877,3.9300838 2.8008268,3.9108168 C 2.7054761,3.883821 2.7304389,3.7907286 2.7672575,3.7765397 C 2.744878,3.7765397 2.6721446,3.7989192 2.5490573,3.8436782 z M 2.935103,3.2562159 C 2.8343958,2.9317136 2.5434627,2.7694624 2.0623037,2.7694624 C 1.5699543,2.7694624 1.2230721,2.8925494 1.0216571,3.1387235 C 0.69715414,3.6646415 0.53490265,4.5150625 0.53490265,5.6899865 L 0.53490265,6.3445864 L 1.6762571,6.3445864 L 1.6762571,4.3640011 C 1.5307902,4.1737752 1.4580568,4.0059288 1.4580568,3.8604619 C 1.4580568,3.5247698 1.5643595,3.3569237 1.7769649,3.3569237 C 1.9448112,3.3569237 2.0287344,3.4240623 2.0287344,3.5583394 C 2.0958723,3.5695291 2.1658082,3.5135804 2.2385419,3.390493 C 2.3112751,3.2674057 2.5434621,3.2226466 2.935103,3.2562159 z M 1.8944573,3.8604619 C 1.8944573,3.6590469 1.8496983,3.5583394 1.7601802,3.5583394 C 1.6930417,3.5583394 1.6594724,3.6590469 1.6594724,3.8604619 C 1.6594724,3.994739 1.7322058,4.1513957 1.8776727,4.3304318 L 1.8776727,5.3207245 L 2.1630106,5.3207245 C 2.2860979,5.2088269 2.3979955,5.0074112 2.4987034,4.7164775 C 2.5994112,4.6940986 2.714106,4.6968962 2.842788,4.7248703 C 2.9714699,4.752845 3.0442033,4.7416552 3.0609882,4.691301 C 3.0777726,4.6409474 3.1029494,4.5318474 3.1365186,4.3640011 C 3.1029494,4.319242 3.0973545,4.2828755 3.119734,4.2549014 C 3.1421135,4.2269267 3.1924674,4.2185342 3.2707957,4.229724 L 3.0693801,3.7765397 C 2.9239139,3.6310728 2.6609548,3.6198831 2.2805031,3.7429704 L 2.2805031,3.6758319 C 2.672144,3.5415548 2.9239132,3.5247701 3.0358108,3.6254779 L 3.0022415,3.4408469 C 2.6217904,3.3960879 2.3979955,3.4324544 2.330857,3.5499466 C 2.2637184,3.6674393 2.1182519,3.7709445 1.8944573,3.8604619 z M 2.515488,17.489573 C 2.5490573,17.299348 2.4819187,16.991629 2.3140723,16.566418 L 1.9280266,16.566418 C 1.8720778,16.801404 1.8972546,17.000022 2.003557,17.162273 C 2.1098594,17.324524 2.2805031,17.433625 2.515488,17.489573 z M 1.4748414,7.4355869 C 1.4972209,7.9726946 1.4356773,8.4314742 1.2902104,8.8119253 C 1.1447442,9.1923761 1.1251622,9.5728279 1.2314646,9.9532788 C 1.3377671,10.333731 1.3937158,10.767333 1.399311,11.254087 C 1.4049056,11.740841 1.4244875,12.208013 1.4580568,12.655603 C 1.3573489,13.550782 1.3965131,14.770465 1.5755492,16.31465 L 2.6329804,16.31465 C 2.420375,14.490722 2.389603,13.173129 2.5406645,12.361872 C 2.6917265,11.550615 2.7672575,11.061064 2.7672575,10.893218 C 2.744878,10.109935 2.5994112,8.9573915 2.330857,7.4355869 L 1.4748414,7.4355869 z M 1.2734258,7.1670327 L 1.306995,7.2173866 L 2.5322726,7.2173866 L 2.5658419,7.1670327 L 1.2734258,7.1670327 z M 6.2584584,5.9417551 C 6.2472686,5.4605962 6.417912,5.0325884 6.7703884,4.6577317 C 7.1228661,4.2828751 7.6180128,4.0954469 8.2558284,4.0954469 C 8.8824542,4.0954469 9.3720054,4.2940649 9.7244818,4.691301 C 10.076959,5.0885372 10.253197,5.5053552 10.253197,5.9417551 C 10.253197,6.3893448 10.076959,6.8117577 9.7244818,7.2089938 C 9.3720054,7.60623 8.8824542,7.8104429 8.2558284,7.8216326 C 7.7075309,7.8216326 7.2375613,7.6453941 6.8459198,7.292917 C 6.4542789,6.9404399 6.2584584,6.4900526 6.2584584,5.9417551 z M 6.5773656,5.9249705 C 6.5773656,6.3837499 6.7424143,6.7614038 7.0725119,7.0579321 C 7.40261,7.3544604 7.7970489,7.5027245 8.2558284,7.5027245 C 8.7593663,7.4915354 9.1593993,7.3264866 9.4559276,7.0075782 C 9.7524562,6.688671 9.9063149,6.3278018 9.9175056,5.9249705 C 9.8839354,5.5333296 9.7300767,5.1836501 9.4559276,4.875932 C 9.1817788,4.568214 8.7817458,4.414355 8.2558284,4.414355 C 7.7411001,4.414355 7.3326742,4.5654164 7.0305508,4.8675392 C 6.7284273,5.1696627 6.5773656,5.5221398 6.5773656,5.9249705 z M 8.2726121,12.303125 C 8.5411663,12.235988 8.6754434,12.073736 8.6754434,11.816373 C 8.6194946,10.384084 8.4852175,9.6679409 8.2726121,9.6679409 C 8.0600073,9.6679409 7.9257305,10.384084 7.8697817,11.816373 C 7.8697817,12.073736 8.0040585,12.235988 8.2726121,12.303125 z M 6.3591653,12.739526 L 7.349458,12.739526 C 7.0920942,12.60525 6.83473,12.36467 6.5773656,12.017787 C 6.5214168,11.984218 6.465468,11.967433 6.4095192,11.967433 C 6.3759499,11.967433 6.3591653,12.001003 6.3591653,12.068141 L 6.3591653,12.739526 z M 8.1047657,13.024864 L 8.1047657,17.791697 L 8.4404585,17.791697 L 8.4404585,13.024864 L 8.1047657,13.024864 z M 7.8529971,13.024864 C 7.6515814,14.289305 7.5508736,15.01664 7.5508736,15.206866 L 7.534089,15.559342 L 7.8697817,15.559342 L 7.8697817,13.024864 L 7.8529971,13.024864 z M 8.6754434,13.024864 L 8.6754434,15.559342 L 9.0111352,15.559342 L 8.9943506,15.206866 C 8.9943506,15.01664 8.8936427,14.289305 8.6922271,13.024864 L 8.6754434,13.024864 z M 10.186059,12.068141 C 10.186059,12.001003 10.169274,11.967433 10.135705,11.967433 C 10.079757,11.967433 10.023808,11.984218 9.9678595,12.017787 C 9.7104951,12.36467 9.4531306,12.60525 9.1957671,12.739526 L 10.186059,12.739526 L 10.186059,12.068141 z M 8.6754434,12.571679 C 8.9104283,12.549301 9.109046,12.456985 9.2712966,12.294733 C 9.4335481,12.132482 9.5650282,11.978623 9.665736,11.833156 C 9.7664429,11.687689 9.9230996,11.614956 10.135705,11.614956 L 10.353905,11.614956 C 10.432234,11.614956 10.471398,11.65412 10.471398,11.732449 L 10.471398,12.907372 C 10.471398,12.9857 10.432234,13.024864 10.353905,13.024864 L 8.9272129,13.024864 C 9.1845767,14.345254 9.3132587,15.19008 9.3132587,15.559342 C 9.3132587,15.783136 9.2181457,15.895034 9.0279208,15.895034 L 8.6754434,15.895034 L 8.6754434,18.043466 L 7.8865663,18.043466 L 7.8865663,15.895034 L 7.5173043,15.895034 C 7.3158893,15.895034 7.2151818,15.783136 7.2151818,15.559342 C 7.2151818,15.19008 7.3438637,14.345254 7.6012275,13.024864 L 6.1913198,13.024864 C 6.1129915,13.024864 6.0738274,12.9857 6.0738274,12.907372 L 6.0738274,11.732449 C 6.0738274,11.65412 6.1129915,11.614956 6.1913198,11.614956 L 6.4095192,11.614956 C 6.6221246,11.614956 6.775984,11.687689 6.8710972,11.833156 C 6.9662099,11.978623 7.097689,12.132482 7.2655348,12.294733 C 7.4333811,12.456985 7.6347968,12.549301 7.8697817,12.571679 C 7.5788486,12.280747 7.4669511,11.90589 7.534089,11.447111 C 7.6683661,10.037202 7.9145405,9.3322481 8.2726121,9.3322481 C 8.6306843,9.3322481 8.8656693,10.037202 8.9775668,11.447111 C 9.0670849,11.8947 8.9663771,12.269557 8.6754434,12.571679 L 8.6754434,12.571679 z M 2.5322726,2.6519699 L 1.6426878,2.6519699 L 1.6426878,0.72173848 C 1.3741336,0.64341017 1.1559336,0.40283068 0.98808785,0 L 3.2036572,0 C 3.0470006,0.40283068 2.8232057,0.63781529 2.5322726,0.70495384 L 2.5322726,2.6519699 z M 2.9686723,0.16784637 L 1.2398565,0.16784637 C 1.3405643,0.35807164 1.4860312,0.48115868 1.6762571,0.53710747 L 1.7769649,0.57067674 C 1.8552932,0.60424602 1.9560007,0.62103065 2.0790874,0.62103065 C 2.2021748,0.62103065 2.3196672,0.60424602 2.4315648,0.57067674 L 2.5322726,0.53710747 C 2.7113088,0.48115868 2.8567753,0.35807164 2.9686723,0.16784637 z M 2.3812109,0.73852311 C 2.2916928,0.77209239 2.1881877,0.78887703 2.0706956,0.78887703 C 1.9532034,0.78887703 1.8608881,0.77209239 1.7937495,0.73852311 L 1.7937495,2.5009082 L 1.9615959,2.5009082 L 1.9615959,1.5274001 L 2.3812109,1.5274001 L 2.3812109,0.73852311 z M 2.1294413,1.6952465 L 2.1294413,2.5009082 L 2.3812109,2.5009082 L 2.3812109,1.6952465 L 2.1294413,1.6952465 z M 15.137522,2.6855392 L 13.727614,2.6855392 L 13.727614,2.232354 L 14.315075,2.232354 L 14.315075,0.97350803 L 14.667552,0.97350803 L 14.667552,0.033569274 L 15.137522,0.033569274 L 15.137522,2.6855392 z M 14.98646,2.5176928 L 14.98646,0.20141565 L 14.835398,0.20141565 L 14.835398,1.1413544 L 14.482921,1.1413544 L 14.482921,2.3834157 L 13.89546,2.3834157 L 13.89546,2.5176928 L 14.98646,2.5176928 z "
     id="path2572"
     sodipodi:nodetypes="ccccccsscccssscccsccccsccccccssssccccssccscsscccccscccccssssccccssccccssccccccccccccsssssssccccccssscssssssccccccsssssssssssscsccccccscsccsccccssssscsscccccsssssssssssssccssssssssssssscccccsccsssssccccsccsssccccccscssssssssssssccccccssssssssssccccccsssssssccccccccccccccccsscccccssccccccscccccsscsccssccccssssccccccsccccsccssscccssccccccccsssssssccssscssscccscccccsccccccccccccccccccccscccccssccccccsccccccsccccccssccsccccccccccccccsccccsccccccccccccccccccccccccccccc" />
</svg>
