<?xml version="1.0" encoding="UTF-8" standalone="no"?>
<svg
   xmlns:dc="http://purl.org/dc/elements/1.1/"
   xmlns:cc="http://web.resource.org/cc/"
   xmlns:rdf="http://www.w3.org/1999/02/22-rdf-syntax-ns#"
   xmlns:svg="http://www.w3.org/2000/svg"
   xmlns="http://www.w3.org/2000/svg"
   xmlns:sodipodi="http://sodipodi.sourceforge.net/DTD/sodipodi-0.dtd"
   xmlns:inkscape="http://www.inkscape.org/namespaces/inkscape"
   width="11.811527"
   height="17.972734"
   id="svg2160"
   sodipodi:version="0.32"
   inkscape:version="0.45"
   sodipodi:docname="C253.svg"
   inkscape:output_extension="org.inkscape.output.svg.inkscape"
   sodipodi:docbase="C:\Program Files\JSesh\fontsST"
   sodipodi:modified="true">
  <metadata
     id="metadata2167">
    <rdf:RDF>
      <cc:Work
         rdf:about="">
        <dc:format>image/svg+xml</dc:format>
        <dc:type
           rdf:resource="http://purl.org/dc/dcmitype/StillImage" />
      </cc:Work>
    </rdf:RDF>
  </metadata>
  <defs
     id="defs2165" />
  <sodipodi:namedview
     inkscape:window-height="480"
     inkscape:window-width="640"
     inkscape:pageshadow="2"
     inkscape:pageopacity="0.0"
     guidetolerance="10.0"
     gridtolerance="10.0"
     objecttolerance="10.0"
     borderopacity="1.0"
     bordercolor="#666666"
     pagecolor="#ffffff"
     id="base"
     showguides="true"
     inkscape:guide-bbox="true">
    <sodipodi:guide
       orientation="horizontal"
       position="17.385895"
       id="guide2169" />
    <sodipodi:guide
       orientation="horizontal"
       position="17.731422"
       id="guide2171" />
  </sodipodi:namedview>
  <path
     style="fill:#000000; stroke:none"
     d="M 7.597803,5.100134 C 7.9471277,5.554256 7.9354837,5.9734453 7.562871,6.357702 C 7.5395823,6.6371613 7.4114967,6.9573753 7.178614,7.318344 C 7.3882087,7.5395827 7.498828,7.912195 7.510472,8.436181 L 7.510472,10.095471 L 8.296452,10.095471 L 8.296452,8.209121 C 9.309492,8.1974763 9.816012,8.7098183 9.816012,9.746147 L 9.816012,10.095471 L 10.235202,10.095471 L 10.235202,9.030033 C 10.235202,7.9704157 10.002319,7.100016 9.536553,6.418834 C 9.070787,5.7376513 8.424537,5.2980847 7.597803,5.100134 z M 6.881689,7.47554 C 6.893333,7.8830847 6.9748417,8.185832 7.126215,8.383782 L 7.213546,8.383782 C 7.213546,8.01117 7.102927,7.7084227 6.881689,7.47554 z M 6.235438,10.095471 L 6.532364,10.095471 C 6.532364,9.3502463 6.6371613,8.7796833 6.846756,8.383782 C 6.7652473,8.174188 6.7012047,7.987882 6.654628,7.824864 C 6.3868127,8.0693907 6.2470827,8.8262597 6.235438,10.095471 z M 2.95179,5.676519 C 3.103164,5.6881637 3.1613847,5.7289183 3.126452,5.798783 C 3.103164,5.8802923 3.0507653,5.921047 2.969256,5.921047 C 2.8877473,5.921047 2.841171,5.8861143 2.829527,5.816249 C 2.817883,5.7463843 2.8586373,5.6998077 2.95179,5.676519 z M 3.405912,5.833715 C 3.3244027,5.961801 3.277826,6.0957087 3.266182,6.235438 C 3.3244027,6.2470827 3.423378,6.2470827 3.563108,6.235438 C 3.4583107,6.1306413 3.405912,5.9967337 3.405912,5.833715 z M 4.279222,6.04331 C 4.232646,6.0898867 4.1918917,6.1655737 4.156959,6.270371 C 4.2268237,6.3053037 4.325799,6.32277 4.453885,6.32277 C 4.4073083,6.2645487 4.378198,6.1946837 4.366554,6.113175 C 4.3083327,6.1597517 4.279222,6.1364633 4.279222,6.04331 z M 3.860033,5.990911 C 3.8018123,6.0724203 3.761058,6.1597517 3.73777,6.252905 C 3.8076347,6.2412603 3.9007877,6.2587267 4.017229,6.305304 C 3.9240763,6.177218 3.8716777,6.0724203 3.860033,5.990911 z M 4.75081,6.04331 C 4.7158773,6.1131753 4.669301,6.171396 4.611081,6.217972 C 4.646013,6.2529047 4.7216997,6.276193 4.838141,6.287837 C 4.826497,6.1713957 4.7973867,6.0898867 4.75081,6.04331 z M 5.082668,5.746385 C 5.2107533,5.6299437 5.3039067,5.5600787 5.362128,5.53679 C 5.4203487,5.5135013 5.5717223,5.5251457 5.816249,5.571723 L 5.833715,5.624121 C 5.7056297,5.7172743 5.5891883,5.781317 5.484391,5.816249 C 5.3795937,5.8511817 5.251508,5.8511817 5.100134,5.816249 L 5.082668,5.746385 z M 5.501857,5.589189 C 5.5600783,5.612477 5.5659007,5.6590533 5.519324,5.728918 C 5.542612,5.717274 5.5950103,5.6823417 5.676519,5.624121 C 5.618299,5.624121 5.5600783,5.612477 5.501857,5.589189 z M 5.239864,5.746385 L 5.344662,5.763851 C 5.3097293,5.7405623 5.292263,5.7114517 5.292263,5.676519 C 5.2573303,5.6998077 5.22822,5.7230963 5.204932,5.746385 L 5.239864,5.746385 z M 5.798783,5.379594 L 5.798783,5.484391 C 5.7522063,5.484391 5.6706973,5.484391 5.554256,5.484391 C 5.22822,5.496035 5.065202,5.571722 5.065202,5.711452 L 4.995337,5.571723 C 5.1001343,5.443637 5.231131,5.382505 5.388327,5.388327 C 5.545523,5.394149 5.6823417,5.391238 5.798783,5.379594 z M 5.362128,5.606655 C 5.373772,5.653231 5.3970603,5.6998077 5.431993,5.746385 L 5.449459,5.746385 C 5.4261703,5.6998077 5.408704,5.647409 5.39706,5.589189 L 5.362128,5.606655 z M 7.003952,4.908006 C 6.6080507,4.873074 6.299481,4.94585 6.078243,5.126334 C 5.8570043,5.306818 5.7056303,5.3737717 5.624121,5.327195 C 5.5309677,5.2806183 5.4203483,5.2660633 5.292263,5.28353 C 5.164177,5.300996 5.0360913,5.3504837 4.908006,5.431993 C 4.3141547,5.629943 3.8745883,5.7114517 3.589307,5.676519 C 3.3040257,5.641587 3.09152,5.624121 2.95179,5.624121 C 2.8120607,5.624121 2.736374,5.7434733 2.72473,5.982178 C 2.7130853,6.2208833 2.8353487,6.3053033 3.09152,6.235438 C 3.1380967,6.1539293 3.1934063,6.0549543 3.257449,5.938513 C 3.3214917,5.8220717 3.3826233,5.775495 3.440844,5.798783 C 3.4990647,5.822071 3.5456413,5.8802917 3.580574,5.973445 C 3.615506,6.0665983 3.6708157,6.0753317 3.746503,5.999645 C 3.8221897,5.9239577 3.8891433,5.9443347 3.947364,6.060776 C 4.0055853,6.1772173 4.0841833,6.1859507 4.183158,6.086976 C 4.2821333,5.9880007 4.3607313,6.0025557 4.418952,6.130641 C 4.4771727,6.258727 4.5586817,6.255816 4.663479,6.121908 C 4.7682763,5.9880007 4.884718,5.9850897 5.012804,6.113175 C 5.1408893,6.241261 5.2747967,6.2936597 5.414526,6.270371 C 5.554256,6.2470823 5.7376513,6.226705 5.964712,6.209239 C 6.1917733,6.191773 6.2878377,6.270371 6.252905,6.445033 C 6.2412603,6.5381863 6.1888617,6.5760297 6.095709,6.558563 C 6.0025557,6.541097 5.967623,6.5032537 5.990911,6.445033 C 6.0141997,6.3868123 5.9850893,6.363524 5.90358,6.375168 C 5.4261707,6.4566773 5.0739353,6.49161 4.846874,6.479966 C 4.6198133,6.4683213 4.427685,6.447944 4.270489,6.418834 C 4.1132937,6.3897233 3.9881193,6.378079 3.894966,6.383901 C 3.8018127,6.389723 3.5456413,6.386812 3.126452,6.375168 C 3.126452,6.4566773 3.3884453,6.497432 3.912432,6.497432 C 4.226824,6.672094 4.628547,6.7361367 5.117601,6.68956 C 5.455281,6.677916 5.775495,6.672094 6.078243,6.672094 C 6.1364637,6.7186707 6.095709,6.7943577 5.955979,6.899155 C 6.2237943,7.062173 6.5731187,7.1262157 7.003952,7.091283 C 7.1902587,6.753603 7.2659457,6.4799657 7.231013,6.270371 C 7.6967783,5.8744697 7.6210913,5.420348 7.003952,4.908006 z M 6.951553,10.409863 L 6.794357,15.300404 L 6.200506,15.300404 L 3.807635,11.911958 C 3.2836483,11.061936 2.86737,10.689324 2.5588,10.794121 C 2.2502307,10.898918 2.349206,11.460747 2.855726,12.47961 C 3.362246,13.498473 3.9182537,14.945257 4.523749,16.819963 L 3.318581,17.34395 L 9.099897,17.34395 L 8.837904,16.540504 C 9.0940753,15.527465 9.2687377,13.483918 9.361891,10.409863 L 9.379357,9.746147 C 9.391001,9.3036703 9.315314,8.9951007 9.152296,8.820438 C 8.989278,8.645776 8.808794,8.5642673 8.610844,8.575912 L 8.610844,10.409863 L 7.213546,10.409863 L 7.213546,8.663242 C 7.02724,8.7214627 6.939909,9.3036697 6.951553,10.409863 z M 1.65929,9.850945 C 1.65929,10.235202 1.8572407,10.42733 2.253142,10.42733 L 2.986723,10.42733 C 2.8819257,10.043073 2.6373987,9.850945 2.253142,9.850945 L 1.65929,9.850945 z M 7.108749,4.593615 C 7.434785,4.2559343 7.769554,4.15987 8.113056,4.305422 C 8.4565587,4.4509733 8.802972,4.4626173 9.152296,4.340354 C 9.5016207,4.2180907 9.9004327,4.226824 10.348732,4.366554 C 10.797031,4.5062833 11.166733,4.4655287 11.457836,4.24429 C 11.155089,4.3490873 10.782476,4.314155 10.339999,4.139493 C 9.8975217,3.964831 9.5016207,3.9473647 9.152296,4.087094 C 8.802972,4.226824 8.4565587,4.2355573 8.113056,4.113294 C 7.769554,3.99103 7.4784507,4.008496 7.239746,4.165692 C 7.0010413,4.322888 6.8525783,4.401486 6.794357,4.401486 C 6.747781,4.401486 6.6022293,4.322888 6.357702,4.165692 C 6.1131747,4.008496 5.81916,3.99103 5.475658,4.113294 C 5.132156,4.2355573 4.7886537,4.226824 4.445151,4.087094 C 4.101649,3.9473647 3.7057483,3.964831 3.257449,4.139493 C 2.8091497,4.314155 2.439448,4.3490873 2.148344,4.24429 C 2.4278033,4.4655287 2.794594,4.5062833 3.248716,4.366554 C 3.7028373,4.226824 4.101649,4.2180907 4.445151,4.340354 C 4.7886537,4.4626173 5.132156,4.4509733 5.475658,4.305422 C 5.81916,4.15987 6.1597513,4.2559343 6.497432,4.593615 L 7.108749,4.593615 z M 7.003952,3.982297 L 7.545404,3.772702 L 7.632736,0.589054 C 7.632736,0.414392 7.548316,0.32415 7.379476,0.318328 C 7.2106353,0.312506 7.114571,0.402748 7.091283,0.589054 L 7.003952,3.982297 z M 6.759425,0.589054 C 6.759425,0.39110333 6.6691827,0.292128 6.488698,0.292128 C 6.308214,0.292128 6.217972,0.38528133 6.217972,0.571588 L 6.113175,3.790169 L 6.654628,3.999763 L 6.759425,0.589054 z M 3.388446,5.379594 C 3.8076347,5.3330173 4.261756,5.2515083 4.75081,5.135067 C 4.878896,5.0069817 5.036092,4.9342057 5.222398,4.916739 C 5.408704,4.899273 5.562989,4.9050953 5.685253,4.934206 C 5.8075163,4.963316 5.8861143,4.9312943 5.921047,4.838141 C 5.955979,4.7449877 6.0141997,4.686767 6.095709,4.663479 C 5.9792677,4.5237497 5.775495,4.5004617 5.484391,4.593615 C 5.135067,4.7100563 4.7886537,4.712967 4.445151,4.602347 C 4.101649,4.4917283 3.8047237,4.4800843 3.554375,4.567415 C 3.3040257,4.6547457 2.9838117,4.689678 2.593733,4.672212 C 2.2036543,4.654746 1.93875,4.4422407 1.79902,4.034696 C 1.775732,3.894966 1.8223087,3.8425673 1.93875,3.8775 C 2.0086147,3.900788 2.133789,3.9560973 2.314273,4.043428 C 2.4947577,4.1307593 2.8091497,4.078361 3.257449,3.886233 C 3.7057483,3.6941043 4.101649,3.673727 4.445151,3.825101 C 4.7886537,3.976475 5.0826683,3.9997633 5.327195,3.894966 C 5.5717223,3.7901687 5.639673,3.749414 5.791047,3.772702 L 5.895844,0.581588 C 5.895844,0.255552 6.1324751,0.0052109634 6.497432,0 C 6.7186481,-0.0031585898 6.8642223,0.081509 6.934087,0.244527 C 7.0039517,0.081509 7.1553253,0.005822 7.388208,0.017466 C 7.690956,0.017466 7.966508,0.280484 7.954864,0.60652 L 7.867533,3.772702 C 7.9839743,3.749414 8.0228143,3.7901687 8.244053,3.894966 C 8.5002243,3.9997633 8.802972,3.976475 9.152296,3.825101 C 9.5016207,3.673727 9.8975217,3.6941043 10.339999,3.886233 C 10.782476,4.078361 11.096868,4.1307593 11.283175,4.043428 C 11.469481,3.9560973 11.597566,3.900788 11.667431,3.8775 C 11.783872,3.8425673 11.830449,3.894966 11.80716,4.034696 C 11.667431,4.4422407 11.399616,4.654746 11.003715,4.672212 C 10.607814,4.689678 10.2876,4.6547457 10.043074,4.567415 C 9.7985467,4.4800843 9.5016207,4.4917283 9.152296,4.602347 C 8.802972,4.712967 8.4565587,4.7100563 8.113056,4.593615 C 7.769554,4.477173 7.5395823,4.506283 7.423141,4.680945 L 7.894729,4.785743 C 8.9543463,5.2398643 9.664639,5.8511817 10.025607,6.619695 C 10.386576,7.3882083 10.561238,8.1392557 10.549593,8.872837 L 10.549593,10.409863 L 9.833479,10.409863 C 9.7519697,13.09966 9.618062,15.119919 9.431756,16.47064 L 9.955742,17.972734 L 2.567533,17.972734 L 2.480202,17.151823 L 3.772702,16.540504 C 3.4583107,15.213072 2.736374,13.227746 1.606892,10.584526 C 1.3274327,10.584526 1.210991,10.345821 1.257567,9.868411 C 0.85002233,9.5773077 0.85584467,9.431756 1.275034,9.431756 L 1.781554,9.449222 L 1.15277,7.405675 C 1.0246847,7.091283 0.92279833,6.9864857 0.847111,7.091283 C 0.77142433,7.1960803 0.68118233,7.3940307 0.576385,7.685134 C 0.553097,8.3488507 0.36096867,8.6574207 0,8.610844 C 0.163018,7.7724653 0.26781533,7.2019023 0.314392,6.899155 C 0.36096867,6.596407 0.483232,6.284926 0.681182,5.964712 C 0.87913267,5.644498 1.0188623,5.2456863 1.100371,4.768277 C 1.3681863,4.8963623 1.4438733,5.123423 1.327432,5.449459 C 1.2109907,5.775495 1.1178377,6.0840647 1.047973,6.375168 C 1.3274323,6.6546273 1.5020943,6.939909 1.571959,7.231013 L 2.253142,9.449222 L 2.72473,9.431756 C 3.0274773,9.431756 3.2894703,9.8160127 3.510709,10.584526 L 3.510709,10.584526 L 6.270371,14.39216 C 6.3402357,12.424301 6.38099,11.096868 6.392634,10.409863 L 5.921047,10.409863 C 5.921047,8.6865303 6.1248193,7.7026007 6.532364,7.458074 C 6.1597513,7.3067 5.8744697,7.1727923 5.676519,7.056351 C 4.838141,7.0214183 4.3025107,6.9602863 4.069628,6.872955 C 3.8367453,6.7856243 3.493243,6.7186707 3.039121,6.672094 C 2.689797,6.672094 2.5034907,6.445033 2.480202,5.990911 C 2.4918467,5.5950103 2.585,5.3679497 2.759662,5.309729 C 2.934324,5.2515083 3.1439187,5.2747967 3.388446,5.379594 z "
     id="path2162"
     sodipodi:nodetypes="cccccccccccscccccccccccsssccscccsssccscccscccsccscccsscccsccccsccscccccccssscssscssssssssssssssssssccccccccccccssccccccscccccccccccssscssssssssscssscccccscccsccccccssscsssscsssssccscsccssssscssssccscccccccccccccsccsscscccccccccccsccsc" />
</svg>
