<?xml version="1.0" encoding="UTF-8" standalone="no"?>
<svg
   xmlns:dc="http://purl.org/dc/elements/1.1/"
   xmlns:cc="http://web.resource.org/cc/"
   xmlns:rdf="http://www.w3.org/1999/02/22-rdf-syntax-ns#"
   xmlns:svg="http://www.w3.org/2000/svg"
   xmlns="http://www.w3.org/2000/svg"
   xmlns:sodipodi="http://sodipodi.sourceforge.net/DTD/sodipodi-0.dtd"
   xmlns:inkscape="http://www.inkscape.org/namespaces/inkscape"
   width="15.16482"
   height="18"
   id="svg2"
   sodipodi:version="0.32"
   inkscape:version="0.45.1"
   sodipodi:docname="C263.svg"
   sodipodi:docbase="/Users/rosmord/Travail/Gsigns/SThomasDetail/ManuelDeCodage/C"
   inkscape:output_extension="org.inkscape.output.svg.inkscape"
   version="1.0">
  <metadata
     id="metadata9">
    <rdf:RDF>
      <cc:Work
         rdf:about="">
        <dc:format>image/svg+xml</dc:format>
        <dc:type
           rdf:resource="http://purl.org/dc/dcmitype/StillImage" />
      </cc:Work>
    </rdf:RDF>
  </metadata>
  <defs
     id="defs7" />
  <sodipodi:namedview
     inkscape:window-height="581"
     inkscape:window-width="701"
     inkscape:pageshadow="2"
     inkscape:pageopacity="0.0"
     guidetolerance="10.0"
     gridtolerance="10.0"
     objecttolerance="10.0"
     borderopacity="1.0"
     bordercolor="#666666"
     pagecolor="#ffffff"
     id="base"
     height="18px"
     width="15.16482px"
     inkscape:zoom="16.147462"
     inkscape:cx="7.5862581"
     inkscape:cy="9.4217093"
     inkscape:window-x="0"
     inkscape:window-y="22"
     inkscape:current-layer="svg2" />
  <path
     style="fill:#000000;stroke:none"
     d="M 7.7338257,9.476389 C 7.91555,9.6367337 8.0812403,10.010873 8.2308959,10.598805 C 8.3057237,10.994322 8.42331,11.780013 8.5836546,12.955876 C 7.7391706,12.720703 7.0176183,11.598288 6.4189968,9.5886304 L 6.5152042,9.476389 L 7.7338257,9.476389 z M 6.8198596,11.448633 C 6.48848,12.239668 6.0608935,12.768806 5.5371001,13.036048 C 5.6333067,11.892254 5.8524447,10.812598 6.1945142,9.7970791 L 6.8198596,11.448633 z M 6.9641696,11.705185 L 7.2207216,12.18622 L 6.9641696,12.811565 L 6.6755489,12.346565 L 6.9641696,11.705185 z M 2.1057168,3.8963834 C 2.0201994,3.9177624 1.9507165,3.9658661 1.897268,4.0406941 L 1.2558887,4.9225916 C 1.1489917,5.0508671 1.0634744,5.0936255 0.9993366,5.0508669 C 0.93519835,5.0081087 0.94588784,4.9119018 1.0314052,4.7622462 L 1.6888201,3.8803487 C 1.742268,3.8162109 1.768992,3.7360385 1.768992,3.6398313 C 1.715544,3.5650037 1.6460614,3.5115553 1.560544,3.4794859 L 0.53433581,3.1427619 C 0.3739909,3.0893135 0.30450799,3.0251754 0.32588707,2.9503479 C 0.34726666,2.8755203 0.43812892,2.854141 0.59847382,2.8862099 L 1.6567507,3.2229346 C 1.7315782,3.2656933 1.8117506,3.2656933 1.897268,3.2229346 C 1.9507165,3.1481066 1.9774407,3.0732788 1.9774407,2.9984512 L 1.9774407,1.892071 C 1.9881305,1.7210363 2.0308892,1.635519 2.1057168,1.635519 C 2.1912341,1.635519 2.2393377,1.7210363 2.2500275,1.892071 L 2.2500275,2.9824173 C 2.2393377,3.0679341 2.2660619,3.1481066 2.3302002,3.2229346 C 2.415717,3.2550035 2.4958895,3.2550035 2.5707176,3.2229346 L 3.6129597,2.8862099 C 3.7839944,2.854141 3.8802016,2.8755203 3.9015811,2.9503479 C 3.9229602,3.0251754 3.8588222,3.0893135 3.7091671,3.1427619 L 2.6669242,3.4794859 C 2.5814068,3.5115553 2.5119239,3.5650037 2.4584755,3.6398313 C 2.4584755,3.7253487 2.4851997,3.8055211 2.5386482,3.8803487 L 3.1800283,4.7622462 C 3.2655457,4.901212 3.2815801,4.9974189 3.2281316,5.0508669 C 3.153304,5.0936255 3.0624421,5.0508671 2.9555456,4.9225916 L 2.3141655,4.0406941 C 2.260717,3.9658661 2.1912341,3.9177624 2.1057168,3.8963834 z M 1.8010614,3.5596594 C 1.8010614,3.6344864 1.8304581,3.7039691 1.8892514,3.7681073 C 1.9480443,3.8322451 2.0201994,3.864314 2.1057168,3.864314 C 2.2019239,3.864314 2.2794239,3.8322451 2.3382168,3.7681073 C 2.3970101,3.7039691 2.4264068,3.6344864 2.4264068,3.5596594 C 2.4264068,3.474142 2.3916655,3.4019866 2.3221828,3.3431933 C 2.2526997,3.2843999 2.1805443,3.2550032 2.1057168,3.2550032 C 2.0201994,3.2550032 1.9480443,3.2870724 1.8892514,3.3512106 C 1.8304581,3.4153484 1.8010614,3.4848313 1.8010614,3.5596594 z M 1.8651994,3.5596594 C 1.8651994,3.6131074 1.8865788,3.6665556 1.9293374,3.720004 C 1.9720961,3.773452 2.0308892,3.800176 2.1057168,3.800176 C 2.1805443,3.800176 2.2420099,3.7761245 2.2901135,3.7280214 C 2.338217,3.6799178 2.3622688,3.6237972 2.3622688,3.5596594 C 2.3622688,3.4848313 2.3355446,3.4233655 2.2820961,3.3752619 C 2.2286481,3.3271588 2.169855,3.3031073 2.1057168,3.3031073 C 2.0308892,3.3031073 1.9720961,3.3298313 1.9293374,3.3832793 C 1.8865788,3.4367277 1.8651994,3.4955211 1.8651994,3.5596594 z M 6.0181348,4.1850048 C 6.0822726,4.3346599 6.2853761,4.3239701 6.6274456,4.1529354 C 6.2746869,3.9819008 6.0715833,3.9925906 6.0181348,4.1850048 z M 8.5515852,6.7825932 C 8.42331,7.0498351 8.1293444,7.8408701 7.6696885,9.155699 L 6.3708935,9.155699 C 6.2212384,8.2470777 6.1116696,7.7232838 6.0421869,7.584318 C 5.9727037,7.4453527 5.9326172,7.2048354 5.9219274,6.8627659 C 5.8684794,6.6382827 5.8230483,6.4645756 5.785634,6.3416445 C 5.7482203,6.2187133 6.034169,6.1412133 6.6434803,6.1091445 C 6.7396869,6.1091445 6.8091698,6.0369891 6.851929,5.8926784 C 6.8946872,5.7483682 6.8946872,5.566644 6.851929,5.3475056 C 6.8091698,5.1283673 6.579342,5.0669018 6.1624456,5.163109 C 6.0769282,5.1417299 6.0448591,5.0775919 6.0662381,4.9706949 C 6.1945142,4.9172465 6.2586522,4.8744877 6.2586522,4.8424189 C 6.2586522,4.7996602 6.1624453,4.7675911 5.9700315,4.7462115 C 6.0448591,4.6286253 5.9860657,4.5591426 5.7936514,4.5377635 C 5.8577896,4.3346594 5.9539968,4.1422454 6.0822728,3.9605214 L 6.1143415,3.8963834 C 6.3281353,3.8429349 6.6167566,3.9124178 6.980205,4.1048321 C 7.0550321,4.0193147 7.1298597,3.9765561 7.2046877,3.9765561 C 7.2795153,3.9765561 7.3222739,4.0139698 7.3329637,4.0887974 C 7.343653,4.163625 7.279515,4.2625043 7.1405497,4.3854354 C 7.0015839,4.5083666 6.932101,4.6179357 6.932101,4.7141429 L 7.4291711,5.0187982 C 7.4505502,5.4036263 7.4933089,5.6949197 7.5574472,5.8926784 C 7.6215849,6.0904371 7.8487403,6.2000062 8.2389133,6.2213858 C 8.6290855,6.2427654 8.7333095,6.4298345 8.5515852,6.7825932 z M 7.7177918,4.6981082 C 7.6322744,4.8156949 7.5521017,4.847764 7.4772737,4.7943156 L 7.2046877,4.6179355 C 7.2260668,4.5537977 7.2955497,4.4629357 7.4131364,4.3453495 C 7.5307227,4.2277632 7.5547742,4.0861252 7.485291,3.9204354 C 7.4158083,3.7547451 7.2367566,3.7306933 6.9481356,3.8482801 C 6.6488249,3.6772454 6.3815833,3.618452 6.1464109,3.6718999 C 6.1464109,3.4367275 6.1196866,3.2443137 6.0662381,3.0946586 L 8.3752066,3.0946586 L 9.9305521,0.30465537 L 10.074863,0.36879339 L 7.7177918,4.6981082 z M 2.1057168,9.011389 C 1.9346821,8.7869056 1.7208887,8.6880265 1.4643366,8.714751 C 1.2077846,8.7414747 0.97795677,8.7334574 0.77485317,8.6906989 C 0.67864653,8.6479405 0.61985342,8.6532854 0.59847382,8.7067336 C 0.57709474,8.7708717 0.59045673,8.8136301 0.63855979,8.8350097 C 0.68666336,8.8563885 0.75347383,8.8670783 0.83899118,8.8670783 C 0.94588815,8.8563885 1.0314055,8.8563885 1.0955432,8.8670783 C 1.1276121,8.8670783 1.1436466,8.8777681 1.1436466,8.8991469 C 1.1436466,8.9205265 1.1276121,8.9365612 1.0955432,8.9472502 C 0.87106003,8.9686298 0.69200826,8.9499227 0.55838785,8.8911296 C 0.42476692,8.8323364 0.29916335,8.754837 0.18157712,8.6586296 C 0.12812865,8.6479398 0.093387058,8.6639745 0.077352362,8.7067336 C 0.06131818,8.7494921 0.06399063,8.7762158 0.08536971,8.7869056 C 0.074679913,8.7869056 0.063990372,8.8002678 0.053301089,8.8269923 C 0.042611291,8.853716 0.042611291,8.8777681 0.053301089,8.8991469 C 0.031921494,8.8991469 0.018559247,8.9125092 0.013214348,8.9392329 C 0.0078694494,8.9659574 0.015886798,8.9846645 0.037266393,8.9953543 C 0.0051975143,9.0274229 -0.0054922833,9.0594923 0.0051970001,9.0915617 C 0.015886798,9.1343201 0.07200772,9.1690612 0.17355977,9.1957849 C 0.2751113,9.2225094 0.39269753,9.2706127 0.52631846,9.3400957 C 0.65993939,9.4095786 0.87907769,9.4550102 1.1837333,9.476389 C 1.4883884,9.4977686 1.8758887,9.4817339 2.3462341,9.4282857 C 3.0731316,9.2786301 3.6450289,9.0755263 4.0619258,8.818975 C 4.2970983,8.7441472 4.5696848,8.4956125 4.8796853,8.0733701 C 5.1896858,7.6511282 5.4195137,7.2956968 5.5691687,7.0070759 C 5.5798585,7.3705249 5.6252896,7.5923356 5.7054621,7.6725081 C 5.7856346,7.7526808 5.8898588,8.2310431 6.0181348,9.1075956 C 5.8364104,9.1182854 5.7402032,9.1984582 5.7295134,9.348113 C 5.7402032,9.4870788 5.8417553,9.5565617 6.0341695,9.5565617 C 5.6172726,10.732425 5.3553756,11.913634 5.2484787,13.100186 C 5.1415822,13.420876 5.0988236,13.736221 5.1202026,14.046222 C 5.0667542,14.698291 4.8369263,15.596223 4.4307192,16.740018 C 4.1420983,17.242432 3.6557183,17.557777 2.9715796,17.686053 C 2.5760622,17.739501 2.3836484,17.862433 2.3943382,18.054846 L 4.6231332,18.054846 C 4.8048577,17.980019 4.8422715,17.760881 4.7353746,17.397432 C 4.8529608,17.205018 4.9705472,17.007259 5.088134,16.804156 C 5.3981341,16.280362 5.6573583,15.772603 5.8658068,15.280879 C 6.0742557,14.789154 6.1784803,14.286739 6.1784803,13.773635 C 6.2639976,13.495704 6.408308,13.175014 6.6114117,12.811565 L 6.980205,13.388806 L 7.3971017,12.571048 C 7.6536533,13.255186 7.9048602,13.741567 8.1507232,14.030187 C 8.5889995,14.543291 9.0646901,15.377085 9.5777942,16.531569 C 9.6846906,17.205018 9.4014141,17.568466 8.7279646,17.621914 C 8.3965855,17.686052 8.2148612,17.830363 8.1827918,18.054846 L 10.459691,18.054846 C 10.641415,17.905191 10.614691,17.600536 10.379518,17.14088 C 10.251242,16.649154 10.155036,16.285706 10.090898,16.050534 C 9.9412427,15.398464 9.7996044,14.882688 9.6659835,14.503205 C 9.5323626,14.123721 9.2891728,13.752256 8.9364141,13.388806 C 8.7333102,11.977771 8.5890003,11.037081 8.5034827,10.566735 C 8.3431373,9.9253551 8.1667579,9.4550094 7.9743439,9.155699 C 8.369861,7.9370775 8.7065857,7.1032835 8.9845166,6.6543172 C 9.8290006,6.8253519 10.577278,6.9215591 11.229347,6.9429386 C 11.443141,6.9643177 11.550037,6.9162142 11.550037,6.7986279 C 11.78521,5.9434544 11.742451,4.9653498 11.421761,3.864314 C 11.197278,3.3191415 11.05564,2.9824173 10.996847,2.8541412 C 10.938054,2.7258652 10.852536,2.6109512 10.740295,2.5093991 C 10.628054,2.4078476 10.539864,2.3169853 10.475726,2.2368124 C 10.411588,2.1566399 10.352795,2.111209 10.299346,2.1005198 C 10.267278,2.111209 10.245898,2.137933 10.235208,2.1806917 C 10.213829,2.1700024 10.192449,2.1726749 10.17107,2.188709 C 10.149691,2.2047437 10.139002,2.218106 10.139002,2.2287958 C 10.117621,2.2287958 10.096242,2.2368129 10.074863,2.2528471 C 10.053484,2.2688818 10.048139,2.2875887 10.058828,2.3089677 C 10.037449,2.2875887 10.010725,2.2929336 9.9786562,2.3250024 C 9.9465868,2.3570713 9.9412419,2.3944851 9.9626215,2.4372438 C 10.101587,2.5120713 10.221846,2.5975886 10.323398,2.6937958 C 10.42495,2.790003 10.507795,2.9503481 10.571933,3.1748313 C 10.571933,3.2069002 10.563916,3.2282795 10.547881,3.2389693 C 10.531846,3.2496586 10.513139,3.2443137 10.49176,3.2229346 C 10.459691,3.1587964 10.427622,3.0786239 10.395554,2.9824173 C 10.374173,2.9075892 10.342105,2.8487958 10.299346,2.8060371 C 10.256587,2.7632785 10.213829,2.7686234 10.17107,2.8220718 C 10.128311,2.8541407 10.144346,2.9075892 10.219174,2.9824173 C 10.32607,3.1534519 10.408915,3.3218142 10.467708,3.487504 C 10.526501,3.6531933 10.732278,3.8162107 11.085037,3.9765561 C 11.085037,4.4789704 11.063658,4.901212 11.020898,5.2432809 C 10.97814,5.574661 10.892623,5.9220753 10.764346,6.2855238 C 10.048138,6.0396616 9.4548623,5.9381098 8.9845166,5.9808684 C 8.5889995,5.8525924 8.3244301,5.8178511 8.1908092,5.8766445 C 8.057189,5.9354373 7.9529643,5.9113853 7.8781365,5.8044883 C 7.7284816,5.6334541 7.6696883,5.4303508 7.7017571,5.1951783 L 10.363484,0.30465537 L 9.8343455,0 L 8.2629645,2.8541412 C 6.8946874,2.0203468 6.1357211,1.5152601 5.9860654,1.3388809 C 5.8364104,1.1625014 5.7535654,1.0021562 5.7375307,0.85784545 C 5.7214966,0.71353525 5.7402034,0.59862146 5.7936514,0.51310411 C 5.8470998,0.42758676 5.9165828,0.37681073 6.0021001,0.36077604 C 6.0876175,0.34474186 6.1651175,0.35810411 6.2346001,0.40086278 C 6.3040833,0.44362145 6.3441698,0.49706967 6.3548596,0.56120743 C 6.3548596,0.75362122 6.2800318,0.8498281 6.1303762,0.8498281 C 6.034169,0.8498281 5.9860654,0.87120747 5.9860654,0.91396612 C 5.9860654,0.98879416 6.0314965,1.0288807 6.1223588,1.0342256 C 6.2132211,1.0395699 6.3040833,1.0128457 6.3949456,0.95405286 C 6.4858073,0.89525951 6.5312382,0.75896611 6.5312382,0.54517273 C 6.5312382,0.35275894 6.4350313,0.23250027 6.2426175,0.18439669 C 6.0502037,0.13629312 5.879169,0.15767245 5.7295134,0.24853471 C 5.5798583,0.33939696 5.5050307,0.49974186 5.5050307,0.72956943 C 5.5050307,0.95939753 5.595893,1.1918978 5.7776175,1.4270702 C 5.9593415,1.6622432 6.6541695,2.1379335 7.8621018,2.8541412 L 5.7615828,2.8541412 C 5.8684792,3.1962107 5.9219274,3.500866 5.9219274,3.7681073 C 5.943307,3.8536247 5.9192552,3.952504 5.8497721,4.0647454 C 5.7802894,4.1769867 5.7027894,4.3506938 5.6172721,4.5858668 C 5.6172721,4.682074 5.6760652,4.7301776 5.7936514,4.7301776 C 5.8577896,4.7515566 5.8631345,4.772936 5.8096861,4.7943156 C 5.788307,4.847764 5.7989968,4.8851778 5.8417555,4.9065569 C 5.8203759,4.9813845 5.8470998,5.0187982 5.9219274,5.0187982 C 5.9219274,5.1043156 5.9433068,5.1791431 5.9860654,5.2432809 L 5.8738241,5.5158676 C 5.7669277,5.5265574 5.7348588,5.5693161 5.7776175,5.6441437 C 5.8203761,5.7189717 5.9005486,5.7403511 6.0181348,5.7082817 C 6.0502037,5.6441439 6.1196864,5.5212128 6.2265828,5.3394883 C 6.3014108,5.2860399 6.3896007,5.2646605 6.4911522,5.2753503 C 6.5927043,5.2860401 6.6488249,5.3608677 6.6595142,5.4998329 C 6.6488249,5.6494886 6.6060662,5.7510403 6.5312382,5.8044883 C 6.2105483,5.8044883 5.9326172,5.8419024 5.6974448,5.9167304 C 5.3874443,5.9701784 5.1629613,6.1679374 5.023996,6.5100072 C 4.7995128,6.9803522 4.3933054,7.5736284 3.8053737,8.2898362 C 3.5167528,8.3967334 2.9502005,8.6372507 2.1057168,9.011389 z "
     id="path4" />
</svg>
