<?xml version="1.0" encoding="UTF-8" standalone="no"?>
<svg
   xmlns:dc="http://purl.org/dc/elements/1.1/"
   xmlns:cc="http://web.resource.org/cc/"
   xmlns:rdf="http://www.w3.org/1999/02/22-rdf-syntax-ns#"
   xmlns:svg="http://www.w3.org/2000/svg"
   xmlns="http://www.w3.org/2000/svg"
   xmlns:sodipodi="http://sodipodi.sourceforge.net/DTD/sodipodi-0.dtd"
   xmlns:inkscape="http://www.inkscape.org/namespaces/inkscape"
   width="10.644349"
   height="18"
   id="svg2"
   sodipodi:version="0.32"
   inkscape:version="0.45.1"
   sodipodi:docname="C264.svg"
   sodipodi:docbase="/Users/rosmord/Travail/Gsigns/SThomasDetail/ManuelDeCodage/C"
   inkscape:output_extension="org.inkscape.output.svg.inkscape"
   version="1.0">
  <metadata
     id="metadata9">
    <rdf:RDF>
      <cc:Work
         rdf:about="">
        <dc:format>image/svg+xml</dc:format>
        <dc:type
           rdf:resource="http://purl.org/dc/dcmitype/StillImage" />
      </cc:Work>
    </rdf:RDF>
  </metadata>
  <defs
     id="defs7" />
  <sodipodi:namedview
     inkscape:window-height="581"
     inkscape:window-width="701"
     inkscape:pageshadow="2"
     inkscape:pageopacity="0.0"
     guidetolerance="10.0"
     gridtolerance="10.0"
     objecttolerance="10.0"
     borderopacity="1.0"
     bordercolor="#666666"
     pagecolor="#ffffff"
     id="base"
     height="18px"
     width="10.644349px"
     inkscape:zoom="15.358481"
     inkscape:cx="5.3221637"
     inkscape:cy="5.6941089"
     inkscape:window-x="0"
     inkscape:window-y="22"
     inkscape:current-layer="svg2" />
  <path
     style="fill:#000000;stroke:none"
     d="M 4.5198342,3.368317 C 4.5811199,3.6236745 4.4381194,3.7871033 4.0908329,3.8586034 L 3.9989044,3.9505326 L 3.9376185,3.9045684 C 4.0091181,3.8126394 4.0397609,3.7309249 4.029547,3.6594248 C 4.1112616,3.4755669 4.2746906,3.3785309 4.5198342,3.368317 z M 2.8804366,4.9157846 L 3.0030084,4.8544995 C 3.1255802,4.8238567 3.1792052,4.8570531 3.1638836,4.9540888 C 3.1485624,5.051125 3.0796159,5.1149645 2.9570441,5.1456073 L 2.9417225,5.0689998 C 3.0336515,5.0485714 3.0796159,5.0179285 3.0796159,4.9770713 L 3.01833,4.9157846 L 2.9417225,4.9923929 L 2.8804366,4.9157846 z M 3.4932956,5.160929 C 3.5035095,5.2324291 3.4320094,5.3396792 3.2787953,5.4826794 C 3.2072947,5.5746084 3.1868661,5.6767515 3.2175094,5.7891089 L 3.416688,5.3907509 L 3.462653,5.5439653 C 3.5647959,5.5235369 3.5954387,5.4316082 3.5545815,5.2681791 L 3.5239381,5.1456073 L 3.4932956,5.160929 z M 4.3512974,2.479671 C 4.16744,2.05067 4.0014575,1.7187049 3.8533501,1.4837757 C 3.7052422,1.2488466 3.4677595,0.88113115 3.1409018,0.38062951 C 3.2941164,1.4224896 3.5545815,2.0455627 3.9222969,2.2498491 L 4.3512974,2.479671 z M 4.8415854,2.479671 C 4.6372986,2.05067 4.3972622,1.6676332 4.1214762,1.3305606 C 3.8456893,0.99348852 3.5086167,0.59513029 3.1102585,0.13548591 L 3.0336517,0.16612923 C 3.8507965,1.1364887 4.3768335,1.963848 4.6117627,2.6482071 L 4.8415854,2.479671 z M 5.8068374,2.6175645 C 6.1030527,2.0557772 6.7261259,1.3560967 7.676057,0.51852297 L 7.5841285,0.48787966 C 7.144913,0.87602393 6.7593226,1.2182035 6.4273572,1.5144183 C 6.0953918,1.8106336 5.8017302,2.147706 5.5463721,2.5256353 L 5.8068374,2.6175645 z M 7.5534852,0.71770233 C 7.1449125,1.1671318 6.8512511,1.4939896 6.6725008,1.698276 C 6.4937501,1.9025624 6.2869101,2.2089919 6.051981,2.6175645 L 6.4963039,2.4490285 C 6.8844477,2.2958139 7.2368414,1.7187051 7.5534852,0.71770233 z M 4.1521188,7.7349361 L 4.4585483,7.7349361 L 4.4585483,6.4019679 C 4.4585483,5.8912518 4.7471025,5.6333404 5.324211,5.6282337 C 5.90132,5.6231265 6.1898744,5.8810379 6.1898744,6.4019679 L 6.1898744,7.1220771 L 6.4656614,7.1220771 L 6.4656614,6.73904 C 6.4656614,5.8708235 6.1847677,5.1456073 5.6229804,4.5633916 C 5.3165507,4.5736056 5.1990858,4.4918911 5.2705859,4.318248 C 5.5974441,4.1037472 5.73023,3.8381751 5.6689439,3.5215313 C 5.5259438,3.0006013 5.3676219,2.7350291 5.1939784,2.7248146 C 4.9794781,2.7043863 4.6628344,2.8678153 4.2440473,3.2151018 C 4.1521183,3.276388 4.0652968,3.404067 3.9835828,3.5981389 C 3.9631539,3.6798535 3.8303677,3.8177466 3.585224,4.0118185 L 3.0949376,4.6706418 C 2.9008652,4.7625708 2.8344721,4.9413213 2.8957582,5.2068932 C 2.854901,5.3090361 2.8600082,5.4060721 2.9110799,5.4980011 C 2.9212938,5.5592872 2.9570439,5.5695016 3.01833,5.5286444 C 3.1919735,5.4265009 3.2941164,5.2835006 3.3247588,5.0996431 L 3.0336517,5.4060726 L 2.9876867,5.3754293 C 3.1102585,5.2324291 3.2328303,5.1098573 3.3554021,5.0077139 L 3.3707238,5.0383572 L 3.3094379,5.0996431 C 3.452438,5.0690003 3.585224,5.1098575 3.7077959,5.2222149 L 4.4891909,4.7319277 C 4.5913343,4.7012849 4.6372988,4.9106782 4.6270844,5.3601076 C 4.3104406,5.4826794 4.1521188,5.7533589 4.1521188,6.172146 L 4.1521188,7.7349361 z M 5.9140875,7.3825416 L 5.9140875,6.3866462 C 5.924302,6.0597881 5.7455517,5.896359 5.3778368,5.896359 C 4.9488353,5.896359 4.7343345,6.0700025 4.7343345,6.4172896 L 4.7343345,7.9954006 L 4.3206549,7.9954006 C 4.2389403,9.5581907 4.3589585,11.312499 4.6807094,13.258326 C 5.0024604,15.204153 5.1275858,16.284317 5.0560857,16.498817 C 4.8517993,17.101461 4.3257621,17.525355 3.4779739,17.7705 L 3.4779739,17.816463 L 5.6689439,17.816463 C 5.8528018,17.744964 5.8528018,17.484499 5.6689439,17.035069 L 5.6842663,11.013731 C 6.0417673,10.65623 6.0213386,10.084228 5.6229804,9.2977261 C 5.8170518,8.9095826 5.9140875,8.4652596 5.9140875,7.964758 C 5.924302,7.4846852 5.924302,7.2906131 5.9140875,7.3825416 z M 3.1102585,4.3488906 L 0.612859,2.8167439 L 0.87332352,2.4183851 L 0,1.7289193 L 0.39835798,1.2539538 L 3.3860447,3.9198893 L 3.3860447,3.9198893 C 3.672046,3.6747462 3.8252609,3.5062099 3.8456893,3.4142805 C 3.978475,3.1793518 4.1776542,2.9648515 4.4432267,2.7707796 C 3.9937967,2.5358499 3.6797067,2.32901 3.5009564,2.1502598 C 3.3222057,1.9715091 3.1843125,1.6369901 3.0872768,1.1467029 C 2.9902405,0.65641619 2.9212938,0.32445108 2.8804366,0.15080757 C 2.9417222,-0.012621494 3.0489726,-0.043264321 3.2021877,0.058879091 C 3.5903315,0.47766571 3.9503861,0.87602393 4.2823514,1.2539538 C 4.6143168,1.6318831 4.8722282,2.0251342 5.0560857,2.4337068 C 5.1582286,2.4132779 5.2501573,2.4234921 5.3318718,2.4643494 C 5.5872299,2.0864201 5.9038736,1.7365799 6.2818029,1.414829 C 6.6597328,1.093078 7.0734126,0.75345213 7.5228426,0.39595117 C 7.6964858,0.31423664 7.803736,0.35509391 7.844593,0.51852297 C 7.7730927,0.69216648 7.6530745,1.0139174 7.4845384,1.4837757 C 7.3160022,1.953634 7.0785194,2.3060278 6.7720901,2.5409569 C 6.4656608,2.7758861 6.2026425,2.8959043 5.983035,2.9010115 C 5.763427,2.9061187 5.7302303,3.0184763 5.8834449,3.2380843 C 6.0366595,3.4576918 5.9804809,3.8126392 5.7149089,4.3029264 C 6.399268,4.9157854 6.7414475,5.7278232 6.7414475,6.73904 L 6.7414475,7.3825416 L 6.2051961,7.3825416 L 6.2051961,7.964758 C 6.2154105,8.4959022 6.133696,8.935118 5.9600525,9.2824045 C 6.3277679,10.089336 6.3686251,10.681766 6.0826243,11.059696 C 6.0417671,11.151625 6.0213384,11.304839 6.0213384,11.519339 L 6.0213384,16.805247 C 6.2562676,17.57132 6.2358389,18.015643 5.9600525,18.138214 L 2.849794,18.138214 C 2.849794,17.7705 2.9927944,17.586642 3.2787953,17.586642 C 4.0448684,17.249569 4.5147268,16.840997 4.6883703,16.360924 C 4.7292275,15.972781 4.6679416,15.227135 4.5045126,14.123989 C 4.3410835,13.020843 4.2082973,12.11943 4.1061538,11.419749 C 4.0040109,10.720069 3.9784753,9.5786195 4.029547,7.9954006 L 3.8916536,7.9954006 L 3.8916536,6.172146 C 3.8916536,5.6818588 4.0806185,5.334572 4.4585483,5.1302857 L 4.4125833,4.9770713 L 3.8150467,5.3907509 C 3.7129033,5.4111793 3.6618316,5.4622507 3.6618316,5.5439653 C 3.6924744,5.6256799 3.6056529,5.692073 3.4013671,5.7431447 C 3.4217954,5.8452876 3.3656165,5.9167877 3.2328303,5.9576449 C 3.1204729,5.9882883 3.0438656,5.9014665 3.0030084,5.6971797 C 2.8293649,5.7380374 2.7272217,5.686966 2.6965789,5.5439653 C 2.6659361,5.4418224 2.6659361,5.3345722 2.6965789,5.2222149 C 2.5842215,4.8647139 2.6710433,4.6246775 2.9570441,4.5021057 C 3.0183298,4.4203912 3.0694013,4.3693195 3.1102585,4.3488906 z M 0.35239374,1.698276 L 1.1644321,2.3877426 L 0.94993108,2.7248146 L 3.1868661,4.1803546 L 3.2787953,4.0884261 L 0.44432296,1.6216684 L 0.35239374,1.698276 z "
     id="path4" />
</svg>
