<?xml version="1.0" encoding="UTF-8" standalone="no"?>
<svg
   xmlns:dc="http://purl.org/dc/elements/1.1/"
   xmlns:cc="http://web.resource.org/cc/"
   xmlns:rdf="http://www.w3.org/1999/02/22-rdf-syntax-ns#"
   xmlns:svg="http://www.w3.org/2000/svg"
   xmlns="http://www.w3.org/2000/svg"
   xmlns:sodipodi="http://sodipodi.sourceforge.net/DTD/sodipodi-0.dtd"
   xmlns:inkscape="http://www.inkscape.org/namespaces/inkscape"
   width="1800"
   height="1800"
   id="svg2"
   sodipodi:version="0.32"
   inkscape:version="0.45.1"
   sodipodi:docname="C268.svg"
   sodipodi:docbase="/Users/rosmord/Travail/Gsigns/SThomasDetail/ManuelDeCodage/C"
   inkscape:output_extension="org.inkscape.output.svg.inkscape"
   version="1.0">
  <metadata
     id="metadata9">
    <rdf:RDF>
      <cc:Work
         rdf:about="">
        <dc:format>image/svg+xml</dc:format>
        <dc:type
           rdf:resource="http://purl.org/dc/dcmitype/StillImage" />
      </cc:Work>
    </rdf:RDF>
  </metadata>
  <defs
     id="defs7" />
  <sodipodi:namedview
     inkscape:window-height="752"
     inkscape:window-width="1280"
     inkscape:pageshadow="2"
     inkscape:pageopacity="0.0"
     guidetolerance="10.0"
     gridtolerance="10.0"
     objecttolerance="10.0"
     borderopacity="1.0"
     bordercolor="#666666"
     pagecolor="#ffffff"
     id="base"
     height="1800px"
     width="1800px"
     inkscape:zoom="0.21566757"
     inkscape:cx="498.25536"
     inkscape:cy="1131.932"
     inkscape:window-x="0"
     inkscape:window-y="22"
     inkscape:current-layer="svg2" />
  <path
     style="fill:#000000;stroke:none"
     d="M 898.8397,0.0625 C 838.85085,1.3388806 790.65339,22.076018 754.2772,62.28125 C 717.90106,102.48655 699.71467,147.47202 699.7147,197.25 C 699.7147,198.23984 699.73538,199.20753 699.74595,200.1875 C 696.77638,179.03298 685.93332,163.37491 667.18345,153.21875 C 644.209,146.83696 626.9519,146.17585 615.4647,151.28125 C 603.97744,156.38672 598.87581,164.07038 600.1522,174.28125 C 605.2576,181.93936 613.5712,185.75 625.05845,185.75 C 617.40027,210.00082 618.03018,236.8 626.9647,266.15625 C 633.34649,292.95977 641.62889,318.8298 651.8397,343.71875 C 662.05057,368.60777 682.4883,376.55956 713.12095,367.625 C 668.44838,385.49404 646.75081,402.08996 648.0272,417.40625 C 642.92179,412.30085 636.22981,411.67091 627.93345,415.5 C 619.63715,419.32901 616.12588,426.98149 617.4022,438.46875 C 581.66419,451.23232 563.77717,490.81689 563.7772,557.1875 C 582.92256,546.97664 596.33778,543.13482 603.99595,545.6875 C 629.52309,545.6875 663.97475,596.73506 707.37095,698.84375 C 698.43647,706.50191 686.31223,721.17695 670.99595,742.875 C 655.67961,764.57312 648.02719,802.23675 648.0272,855.84375 L 648.0272,980.28125 L 693.9647,980.28125 C 693.9647,1050.4809 689.49293,1193.4517 680.55845,1409.1562 L 416.37095,1045.375 C 386.53072,1005.5904 348.74312,996.55794 299.8397,991.78125 L 215.2772,778.78125 C 263.8821,760.87418 318.74782,752.43965 375.0272,753.71875 C 376.30626,719.18371 364.17996,687.88971 343.7147,659.75 C 296.38892,689.16876 250.63862,708.33645 205.87095,722.40625 C 245.52231,595.77766 239.57331,518.16658 183.93345,487.46875 C 170.02348,479.7943 155.60575,474.05088 143.2147,471.8125 C 133.92142,470.13373 126.57497,470.4325 118.1522,471.8125 C 92.883903,475.95254 69.998223,493.40536 52.370953,525.0625 C 21.033586,581.34188 54.698907,651.79751 155.74595,734.9375 C 105.86198,754.1236 56.565276,761.96006 5.4022027,756.84375 C 1.5649617,792.65796 10.566325,826.39593 33.589703,857.09375 C 70.682957,825.11689 120.12501,800.97839 177.68345,788.1875 L 227.80845,991.78125 C 185.59897,991.78125 157.28451,999.50347 143.2147,1019.9688 C 129.75561,1039.5456 153.3982,1081.2315 215.93345,1143.0312 C 226.46911,1176.2366 247.63165,1222.5008 279.4647,1281.8438 C 331.15715,1378.2088 373.62314,1495.3095 406.80845,1633.1562 L 265.12095,1711.6562 L 276.5897,1801.625 L 1094.1209,1801.625 L 1029.0272,1636.9688 C 1066.0415,1469.7658 1085.1883,1251.5303 1086.4647,982.21875 L 1193.6835,980.28125 C 1192.4071,755.64228 1159.2151,591.63504 1094.1209,488.25 C 1110.7135,470.38096 1102.7305,444.87274 1070.1835,411.6875 C 1037.6362,378.50219 1037.3057,343.38939 1069.2147,306.375 C 1089.6363,273.18969 1099.871,236.18723 1099.8709,195.34375 C 1099.8709,140.46037 1079.7638,94.483147 1039.5585,57.46875 C 999.3531,20.454413 952.44676,1.3388806 898.8397,0.0625 z M 898.8397,57.46875 C 933.30139,57.46875 965.53285,71.214518 995.5272,98.65625 C 1025.5216,126.09796 1040.496,158.32941 1040.4959,195.34375 C 1040.496,229.80545 1027.7418,261.3757 1002.2147,290.09375 C 976.6875,318.81178 942.2359,333.18751 898.8397,333.1875 C 857.99621,333.1875 824.4738,318.18191 798.30845,288.1875 C 772.14319,258.19314 759.05843,227.25274 759.05845,195.34375 C 759.05845,160.88211 772.1432,129.28054 798.30845,100.5625 C 824.47379,71.844393 857.99622,57.46875 898.8397,57.46875 z M 898.8397,158.96875 C 878.41796,161.52145 866.29375,174.27554 862.4647,197.25 C 863.74102,220.22444 875.86527,231.71875 898.8397,231.71875 C 919.26144,230.44236 931.38565,218.94806 935.2147,197.25 C 931.38562,175.55194 919.26145,162.79783 898.8397,158.96875 z M 700.49595,217.03125 C 703.09676,249.89464 712.39217,276.49351 728.43345,296.8125 C 723.32798,322.33964 715.34495,333.8027 704.49595,331.25 C 693.64689,328.6973 688.21472,321.67475 688.2147,310.1875 C 688.2147,297.42393 690.79678,276.38747 695.9022,247.03125 C 698.60531,236.21884 700.12512,226.21813 700.49595,217.03125 z M 919.9022,381.03125 C 962.022,400.17661 1009.8577,454.10564 1063.4647,542.8125 C 1117.0716,631.51939 1143.9022,760.74433 1143.9022,930.5 L 1084.5272,930.5 C 1083.2509,796.48235 1025.1807,729.50001 910.30845,729.5 L 910.30845,932.4375 L 872.0272,930.5 L 872.0272,647.15625 C 944.77961,592.27286 960.74562,503.56165 919.9022,381.03125 z M 806.93345,398.28125 C 855.43504,398.28125 883.1947,428.89103 890.2147,490.15625 C 897.23467,551.42141 847.77741,592.26578 741.8397,612.6875 C 759.70873,620.34561 774.05322,634.39074 784.9022,654.8125 C 795.75126,675.23424 801.81334,696.30195 803.0897,718 C 786.49705,723.10546 772.15266,720.22409 760.0272,709.375 C 747.90182,698.52593 732.26628,671.42736 713.12095,628.03125 C 686.31741,552.72606 653.12554,515.69237 613.55845,516.96875 L 594.4022,516.96875 C 598.23128,501.65248 605.91502,498.47177 617.4022,507.40625 C 623.78406,497.19538 637.82914,495.90433 659.5272,503.5625 C 640.38177,484.41714 631.43835,465.93155 632.7147,448.0625 C 642.92557,448.0625 649.287,443.59072 651.8397,434.65625 C 656.94517,435.93263 671.65142,430.16988 695.9022,417.40625 C 720.15304,404.64268 757.15544,398.28124 806.93345,398.28125 z M 753.4647,417.8125 C 744.43048,417.86236 734.83181,418.38648 724.62095,419.34375 C 736.10814,425.72553 737.99785,434.00788 730.3397,444.21875 C 723.95792,434.00789 715.04561,428.90626 703.55845,428.90625 C 683.13671,428.90625 672.90219,442.29023 672.9022,469.09375 C 684.38946,478.02825 689.82161,486.34184 689.18345,494 C 688.54525,501.6581 686.95491,506.75974 684.4022,509.3125 C 692.0603,518.247 700.34269,541.23563 709.2772,578.25 C 714.38267,578.25 717.59465,576.32908 718.87095,572.5 C 717.59463,534.20922 718.22449,508.0399 720.7772,494 C 733.54078,471.02556 749.80614,459.23195 769.5897,458.59375 C 789.37331,457.95557 805.66994,464.64753 818.43345,478.6875 C 831.19703,492.72746 835.33818,508.66226 830.87095,526.53125 C 826.40368,544.4003 798.64402,564.20818 747.5897,585.90625 L 747.5897,589.71875 C 826.72391,569.29701 863.09647,533.88486 856.7147,483.46875 C 851.13064,439.35461 816.70424,417.46347 753.4647,417.8125 z M 703.55845,438.46875 C 717.5984,438.46875 724.62093,444.86142 724.62095,457.625 C 724.62095,467.83587 717.59838,474.85841 703.55845,478.6875 C 697.17666,477.41112 689.49293,474.19915 680.55845,469.09375 C 684.38747,448.67201 692.07117,438.46874 703.55845,438.46875 z M 703.55845,444.21875 C 695.90027,444.21875 692.05848,448.6905 692.05845,457.625 C 692.05845,465.28317 695.90025,469.09375 703.55845,469.09375 C 712.49293,469.09375 717.59465,465.28316 718.87095,457.625 C 717.59463,448.69051 712.49291,444.21874 703.55845,444.21875 z M 131.93345,523.625 C 140.14258,523.63413 149.2292,526.03629 158.9022,531.3125 C 187.04192,546.66147 192.4656,604.53805 174.55845,700.46875 C 106.76742,628.84051 81.53662,577.62512 96.245953,550.125 C 103.60067,536.37492 110.59617,528.10031 121.30845,525.0625 C 124.65603,524.11318 128.20203,523.62085 131.93345,523.625 z M 742.99595,746.9375 C 750.74946,746.94559 759.31884,750.05902 768.6522,756.28125 C 734.1905,779.25576 718.22449,837.32584 720.7772,930.5 L 697.80845,930.5 C 695.25575,843.70762 700.688,789.14874 714.0897,766.8125 C 722.04704,753.55031 731.66389,746.92568 742.99595,746.9375 z M 822.55845,782.28125 C 825.54992,782.25632 828.61755,782.53534 831.80845,783.09375 L 831.80845,980.28125 L 942.87095,980.28125 L 942.87095,783.09375 C 1007.9652,774.15925 1034.1345,839.88186 1021.3709,980.28125 C 1006.0546,1328.727 981.80629,1547.6237 948.62095,1636.9688 L 990.7147,1732.7188 L 358.93345,1732.7188 L 491.0272,1675.2812 C 446.35463,1485.1039 397.22787,1345.0146 343.62095,1255.0312 C 313.40791,1203.3056 275.53948,1152.1867 328.0272,1104.5625 C 351.69009,1087.9346 377.519,1102.9575 409.49595,1151.5625 L 409.49595,1150.7812 L 674.8397,1506.7812 L 739.93345,1506.7812 L 755.24595,980.28125 C 755.24595,848.65685 777.68644,782.65518 822.55845,782.28125 z M 262.12095,1029.4688 C 240.30761,1043.74 225.05931,1058.6721 216.4022,1074.2812 C 212.95369,1068.7006 210.44318,1063.1447 208.99595,1057.5625 C 204.74596,1041.1696 223.05069,1030.5083 262.12095,1029.4688 z "
     id="path4"
     sodipodi:nodetypes="cssccscccsccsccccsccccccccccsssscccccscsccccccccscssccsssssssccccccccssccccccccccccscscscccccccsccccscsccccsssccsccsccccsscccscsscccccscccccccccccccccccccccsc" />
</svg>
