<?xml version="1.0" encoding="UTF-8" standalone="no"?>
<svg
   xmlns:dc="http://purl.org/dc/elements/1.1/"
   xmlns:cc="http://web.resource.org/cc/"
   xmlns:rdf="http://www.w3.org/1999/02/22-rdf-syntax-ns#"
   xmlns:svg="http://www.w3.org/2000/svg"
   xmlns="http://www.w3.org/2000/svg"
   xmlns:sodipodi="http://sodipodi.sourceforge.net/DTD/sodipodi-0.dtd"
   xmlns:inkscape="http://www.inkscape.org/namespaces/inkscape"
   width="19"
   height="8.6399994"
   id="svg2"
   sodipodi:version="0.32"
   inkscape:version="0.45.1"
   sodipodi:docname="C274B.svg"
   sodipodi:docbase="/Users/rosmord/Travail/Gsigns/SThomasDetail/ManuelDeCodage/C"
   inkscape:output_extension="org.inkscape.output.svg.inkscape"
   version="1.0">
  <metadata
     id="metadata9">
    <rdf:RDF>
      <cc:Work
         rdf:about="">
        <dc:format>image/svg+xml</dc:format>
        <dc:type
           rdf:resource="http://purl.org/dc/dcmitype/StillImage" />
      </cc:Work>
    </rdf:RDF>
  </metadata>
  <defs
     id="defs7" />
  <sodipodi:namedview
     inkscape:window-height="581"
     inkscape:window-width="701"
     inkscape:pageshadow="2"
     inkscape:pageopacity="0.0"
     guidetolerance="10.0"
     gridtolerance="10.0"
     objecttolerance="10.0"
     borderopacity="1.0"
     bordercolor="#666666"
     pagecolor="#ffffff"
     id="base"
     width="19px"
     height="8.6399994px"
     inkscape:zoom="22.74798"
     inkscape:cx="13.646003"
     inkscape:cy="4.3199997"
     inkscape:window-x="0"
     inkscape:window-y="22"
     inkscape:current-layer="svg2" />
  <path
     style="fill:#000000;stroke:none"
     d="M 4.5656052,3.3861646 C 5.0417199,3.3861646 5.3860531,3.4499302 5.5986049,3.5774613 C 5.7006295,3.5009427 5.8047798,3.4669345 5.911056,3.4754367 C 6.0173312,3.4839384 6.0874729,3.5413273 6.1214811,3.6476034 C 6.1554897,3.753879 6.1597408,3.8750333 6.1342343,4.0110661 C 6.1087284,4.1470988 5.9896996,4.2958848 5.7771483,4.4574241 L 5.7771483,5.2863747 L 6.6571111,5.2863747 C 6.7166254,4.4361689 6.6911191,3.8537781 6.5805923,3.5392022 C 6.4700656,3.2246258 6.2490121,3.0333295 5.9174319,2.9653131 C 5.5858517,2.8972967 5.2925307,2.8972967 5.037469,2.9653131 C 4.7824074,3.0333295 4.6251194,3.1736133 4.5656052,3.3861646 z M 4.3232963,4.1003374 L 4.310543,4.0365719 L 4.4125676,3.9600537 C 4.4890861,3.7985145 4.6973866,3.7857614 5.037469,3.9217947 L 5.2925305,3.9217947 L 5.2925305,3.9983128 L 5.037469,3.9983128 C 4.7739052,4.1513499 4.5656047,4.1853581 4.4125676,4.1003374 L 4.3232963,4.1003374 z M 4.4635799,4.0365719 C 4.5060902,4.0620783 4.5571028,4.0748316 4.6166175,4.0748316 C 4.5656049,4.0238191 4.5486008,3.9685557 4.5656052,3.9090415 C 4.5145927,3.9345475 4.4805842,3.9770576 4.4635799,4.0365719 z M 4.7569011,4.0365719 C 4.8249175,4.0280701 4.897185,4.0025641 4.9737035,3.9600537 L 4.7441478,3.8962882 C 4.8036626,3.9473007 4.8079136,3.9940619 4.7569011,4.0365719 z M 4.3870618,3.845276 L 4.3870618,3.7560046 C 4.5315968,3.6624817 4.6718806,3.639101 4.8079134,3.6858624 C 4.9439461,3.7326239 5.1054851,3.7560046 5.2925305,3.7560046 L 5.2925305,3.8325227 C 5.1054851,3.8240205 4.9460716,3.8027653 4.81429,3.7687572 C 4.6825084,3.734749 4.5400989,3.7602552 4.3870618,3.845276 z M 6.810148,6.8039922 C 6.0789707,7.4926587 5.7133821,8.1048068 5.7133821,8.6404368 C 4.455078,8.6404368 3.6941439,8.629809 3.4305801,8.6085537 C 3.1670164,8.5872988 2.384827,8.5766713 1.0840121,8.5766713 C 0.72692579,8.7042018 0.45060891,8.7212057 0.25506145,8.6276828 C 0.21255155,8.6276828 0.16791589,8.6680676 0.12115445,8.7488372 C 0.074393012,8.8296069 0.034008192,8.7467119 0,8.5001525 C 0,8.2110825 0.076518554,7.9942802 0.22955566,7.8497452 C 0.38259275,7.7052103 0.66741155,7.7137122 1.0840121,7.875251 C 2.384827,7.8072346 3.5751151,7.6584486 4.6548765,7.4288929 C 4.7654033,7.2503498 4.7994115,7.0675556 4.7569011,6.8805103 C 4.6293705,6.3788891 4.6931361,5.8815187 4.9481977,5.3883993 L 4.9481977,5.375646 L 4.9481977,5.2353624 L 4.5528519,5.2353624 C 4.4763333,5.7114775 4.3488026,6.0303048 4.1702594,6.191844 C 3.9917163,6.3533829 3.8280517,6.4171481 3.6792657,6.3831399 C 3.5304792,6.3491318 3.4645881,6.300245 3.4815925,6.2364797 C 3.4985968,6.1727144 3.5751154,6.1535848 3.7111481,6.1790909 C 3.8471809,6.2045968 3.9704606,6.0940701 4.0809874,5.8475105 C 4.1915141,5.6009506 4.2467775,5.3798971 4.2467775,5.1843501 C 4.1872633,5.1418398 4.1723848,5.0823253 4.2021419,5.0058067 C 4.2318989,4.9292882 4.2212715,4.8846523 4.1702594,4.871899 C 4.1192469,4.8591463 4.1277488,4.8145106 4.1957652,4.737992 C 4.1107445,4.737992 4.0937404,4.6997328 4.1447529,4.6232143 L 4.1702594,4.5466955 C 3.9151973,4.5722019 3.8578084,4.4680518 3.9980927,4.2342451 C 4.1383765,4.0004383 4.2255225,3.751753 4.2595307,3.4881892 C 4.4040656,3.0460822 4.6357469,2.7931461 4.9545744,2.7293808 C 5.2734013,2.6656155 5.6156087,2.6656155 5.9811968,2.7293808 C 6.3467856,2.7931461 6.612475,3.0227018 6.7782649,3.4180478 C 6.9440552,3.8133933 6.9801892,4.4361689 6.8866668,5.2863747 L 12.19195,5.2863747 C 12.098427,4.4361689 12.134562,3.8133933 12.300352,3.4180478 C 12.466142,3.0227018 12.729705,2.7931461 13.091043,2.7293808 C 13.45238,2.6656155 13.794588,2.6656155 14.117667,2.7293808 C 14.440745,2.7931461 14.674551,3.0460822 14.819085,3.4881892 C 14.853095,3.751753 14.938116,4.0004383 15.074148,4.2342451 C 15.210181,4.4680518 15.154918,4.5722019 14.908357,4.5466955 L 14.933865,4.6232143 C 14.984877,4.6997328 14.967872,4.737992 14.882851,4.737992 C 14.950868,4.8145106 14.95937,4.8591463 14.908357,4.871899 C 14.857345,4.8846523 14.846717,4.9292882 14.876475,5.0058067 C 14.906232,5.0823253 14.891353,5.1418398 14.831838,5.1843501 C 14.831838,5.3798971 14.884976,5.6009506 14.991252,5.8475105 C 15.097528,6.0940701 15.220808,6.2045968 15.361092,6.1790909 C 15.501376,6.1535848 15.58002,6.1727144 15.597024,6.2364797 C 15.614028,6.300245 15.548137,6.3491318 15.399351,6.3831399 C 15.250565,6.4171481 15.084775,6.3533829 14.901982,6.191844 C 14.719187,6.0303048 14.593781,5.7114775 14.525765,5.2353624 L 14.117667,5.2353624 L 14.117667,5.375646 L 14.117667,5.3883993 C 14.372727,5.8815187 14.436493,6.3788891 14.308963,6.8805103 C 14.274955,7.0675556 14.313214,7.2503498 14.42374,7.4288929 C 15.503501,7.6584486 16.693789,7.8072346 17.994604,7.875251 C 18.402703,7.7137122 18.685396,7.7052103 18.842683,7.8497452 C 18.999973,7.9942802 19.078617,8.2110825 19.078617,8.5001525 C 19.044608,8.7467119 19.004223,8.8296069 18.957463,8.7488372 C 18.910701,8.6680676 18.861813,8.6276828 18.810801,8.6276828 C 18.615255,8.7212057 18.343189,8.7042018 17.994604,8.5766713 C 16.693789,8.5766713 15.9116,8.5872988 15.648037,8.6085537 C 15.384473,8.629809 14.623539,8.6404368 13.365235,8.6404368 C 13.365235,8.1048068 12.999646,7.4926587 12.268469,6.8039922 L 6.810148,6.8039922 z M 12.421507,6.5106711 C 13.008148,6.9697819 13.429,7.5819298 13.684061,8.3471149 L 18.747035,8.3216091 C 18.747035,8.024037 18.59825,7.9602714 18.300678,8.1303125 C 17.27193,8.1133086 16.389841,8.0495433 15.654414,7.9390165 C 14.918985,7.8284898 14.46625,7.7477202 14.296209,7.6967076 C 14.075157,7.424642 13.998638,7.1355723 14.066654,6.829498 C 14.202686,6.3023703 14.143172,5.8220041 13.888111,5.3883993 L 13.875357,5.375646 C 13.858354,5.2651192 13.873232,5.1779732 13.919993,5.1142079 C 13.966755,5.0504427 14.16868,5.0228111 14.525765,5.0313133 C 14.6703,5.0313133 14.734065,5.0036814 14.717061,4.9484178 C 14.700057,4.8931543 14.71281,4.8442675 14.75532,4.8017575 C 14.491756,4.8017575 14.413112,4.7592473 14.519388,4.6742265 C 14.625664,4.5892058 14.717061,4.5636995 14.79358,4.5977077 C 14.691555,4.4701771 14.742567,4.4106629 14.946616,4.4191651 C 14.997629,4.4191651 15.010382,4.3979099 14.984876,4.3553996 C 14.831839,4.0833336 14.717061,3.8282718 14.640542,3.5902145 C 14.164428,3.5987162 13.769082,3.6879877 13.454506,3.8580291 C 13.318472,3.7304981 13.231326,3.6901133 13.193068,3.7368747 C 13.154808,3.7836361 13.148432,3.8601547 13.173939,3.9664304 C 13.199445,4.0727061 13.318473,4.2193665 13.531024,4.4064118 L 13.531024,5.5924485 L 5.5475926,5.5924485 L 5.5475926,4.4064118 C 5.760144,4.2193665 5.8770471,4.0727061 5.898302,3.9664304 C 5.9195575,3.8601547 5.9131811,3.7836361 5.8791729,3.7368747 C 5.8451647,3.6901133 5.760144,3.7304981 5.6241107,3.8580291 C 5.3095348,3.6879877 4.9141892,3.5987162 4.4380741,3.5902145 C 4.3615556,3.8282718 4.2467777,4.0833336 4.0937406,4.3553996 C 4.0597324,4.3979099 4.0682346,4.4191651 4.1192471,4.4191651 C 4.3317985,4.4106629 4.3828107,4.4701771 4.272284,4.5977077 C 4.3573042,4.5636995 4.4529524,4.5892058 4.5592285,4.6742265 C 4.6655042,4.7592473 4.5868601,4.8017575 4.3232963,4.8017575 C 4.3658067,4.8442675 4.3764341,4.8931543 4.3551787,4.9484178 C 4.3339238,5.0036814 4.3998148,5.0313133 4.5528519,5.0313133 C 4.9099381,5.0228111 5.1097365,5.0504427 5.1522469,5.1142079 C 5.1947572,5.1779732 5.2075102,5.2651192 5.1905059,5.375646 L 5.1905059,5.3883993 C 4.9354442,5.8220041 4.8759298,6.3023703 5.0119626,6.829498 C 5.0714772,7.1355723 4.9949589,7.424642 4.7824076,7.6967076 C 4.6123662,7.7477202 4.1575059,7.8284898 3.4178269,7.9390165 C 2.6781478,8.0495433 1.8619503,8.1090577 0.96923421,8.1175599 C 0.51012337,7.9560207 0.31032506,8.0410413 0.36983927,8.3726221 L 5.3818025,8.3471149 C 5.6453664,7.5819298 6.0662182,6.9697819 6.6443579,6.5106711 L 12.421507,6.5106711 z M 14.678801,3.845276 C 14.534267,3.7602552 14.396108,3.734749 14.264327,3.7687572 C 14.132545,3.8027653 13.96888,3.8240205 13.773333,3.8325227 L 13.773333,3.7560046 C 13.96888,3.7560046 14.13467,3.7326239 14.270703,3.6858624 C 14.406735,3.639101 14.547019,3.6624817 14.691555,3.7560046 L 14.678801,3.845276 z M 14.321716,4.0365719 C 14.270704,3.9940619 14.270704,3.9473007 14.321716,3.8962882 L 14.104913,3.9600537 C 14.172929,4.0025641 14.245197,4.0280701 14.321716,4.0365719 z M 14.615036,4.0365719 C 14.58953,3.9770576 14.551271,3.9345475 14.500259,3.9090415 C 14.525764,3.9685557 14.513011,4.0238191 14.462,4.0748316 C 14.521513,4.0748316 14.572526,4.0620783 14.615036,4.0365719 z M 14.653296,4.1003374 C 14.508761,4.1853581 14.300461,4.1513499 14.028395,3.9983128 L 13.773333,3.9983128 L 13.773333,3.9217947 L 14.028395,3.9217947 C 14.376978,3.7857614 14.585279,3.7985145 14.653296,3.9600537 L 14.768074,4.0365719 L 14.75532,4.1003374 L 14.653296,4.1003374 z M 14.500259,3.3861646 C 14.449246,3.1736133 14.294084,3.0333295 14.03477,2.9653131 C 13.775458,2.8972967 13.480012,2.8972967 13.148432,2.9653131 C 12.816851,3.0333295 12.597923,3.2246258 12.491648,3.5392022 C 12.385372,3.8537781 12.361992,4.4361689 12.421507,5.2863747 L 13.301469,5.2863747 L 13.301469,4.4574241 C 13.088917,4.2958848 12.967762,4.1470988 12.938006,4.0110661 C 12.908249,3.8750333 12.912499,3.753879 12.950758,3.6476034 C 12.989018,3.5413273 13.05916,3.4839384 13.161185,3.4754367 C 13.26321,3.4669345 13.365235,3.5009427 13.467259,3.5774613 C 13.688312,3.4499302 14.032646,3.3861646 14.500259,3.3861646 z "
     id="path4" />
</svg>
