<?xml version="1.0" encoding="UTF-8" standalone="no"?>
<svg
   xmlns:dc="http://purl.org/dc/elements/1.1/"
   xmlns:cc="http://web.resource.org/cc/"
   xmlns:rdf="http://www.w3.org/1999/02/22-rdf-syntax-ns#"
   xmlns:svg="http://www.w3.org/2000/svg"
   xmlns="http://www.w3.org/2000/svg"
   xmlns:sodipodi="http://sodipodi.sourceforge.net/DTD/sodipodi-0.dtd"
   xmlns:inkscape="http://www.inkscape.org/namespaces/inkscape"
   width="13.022452"
   height="18"
   id="svg2"
   sodipodi:version="0.32"
   inkscape:version="0.45.1"
   sodipodi:docname="C286.svg"
   sodipodi:docbase="/Users/rosmord/Travail/Gsigns/SThomasDetail/ManuelDeCodage/C"
   inkscape:output_extension="org.inkscape.output.svg.inkscape"
   version="1.0">
  <metadata
     id="metadata9">
    <rdf:RDF>
      <cc:Work
         rdf:about="">
        <dc:format>image/svg+xml</dc:format>
        <dc:type
           rdf:resource="http://purl.org/dc/dcmitype/StillImage" />
      </cc:Work>
    </rdf:RDF>
  </metadata>
  <defs
     id="defs7" />
  <sodipodi:namedview
     inkscape:window-height="581"
     inkscape:window-width="701"
     inkscape:pageshadow="2"
     inkscape:pageopacity="0.0"
     guidetolerance="10.0"
     gridtolerance="10.0"
     objecttolerance="10.0"
     borderopacity="1.0"
     bordercolor="#666666"
     pagecolor="#ffffff"
     id="base"
     height="18px"
     width="13.022452px"
     inkscape:zoom="17.399344"
     inkscape:cx="6.511464"
     inkscape:cy="7.1375707"
     inkscape:window-x="0"
     inkscape:window-y="22"
     inkscape:current-layer="svg2" />
  <path
     style="fill:#000000;stroke:none"
     d="M 3.6470747,12.690251 L 6.4350604,12.690251 C 6.5215096,10.258868 6.4674786,8.9459216 6.2729675,8.7514103 L 4.7655102,9.4484071 C 4.2576216,10.831594 3.8848097,11.912209 3.6470747,12.690251 z M 4.7979286,3.1430212 C 5.2409808,3.207858 5.4571039,3.3105164 5.4462978,3.4509962 C 5.5219407,3.4077717 5.6029868,3.3753532 5.6894359,3.3537409 C 5.9055588,3.3753532 6.008217,3.4780115 5.9974109,3.6617159 C 5.9866048,3.7805835 5.9001557,3.9102572 5.7380636,4.0507369 C 5.7272575,4.4181462 5.8326174,4.612657 6.0541436,4.6342693 C 6.2756697,4.6558816 6.4377618,4.5397155 6.5404199,4.2857709 C 6.6430785,4.0318263 6.6322724,3.7319558 6.5080014,3.3861593 C 6.3837311,3.0403623 6.2054298,2.8485532 5.9730975,2.810732 C 5.7407652,2.7729102 5.5246422,2.7702085 5.3247283,2.802627 C 5.1248144,2.835046 4.9492146,2.9485107 4.7979286,3.1430212 z M 5.5111346,4.0507369 C 5.694839,3.899451 5.7920943,3.7589712 5.8029004,3.6292975 C 5.7596759,3.5320422 5.7029435,3.5239375 5.6327033,3.6049833 C 5.5624637,3.6860296 5.4895223,3.7157466 5.4138794,3.6941343 C 5.3382364,3.6941343 5.2950118,3.6292975 5.2842057,3.4996238 C 4.9708271,3.3375317 4.7601071,3.2997102 4.6520457,3.3861593 C 4.5007597,3.5698637 4.3981014,3.7211496 4.3440707,3.8400172 C 4.29004,3.9588848 4.3116523,4.0021093 4.4089075,3.9696909 C 4.5169689,3.9913032 4.5385812,4.0615431 4.4737444,4.1804106 C 4.4737444,4.2344413 4.5493873,4.2722631 4.7006733,4.2938759 C 4.7006733,4.3587128 4.6466426,4.3965343 4.5385812,4.4073404 C 4.5385812,4.526208 4.5764027,4.5910448 4.6520457,4.6018509 C 5.0518734,4.5694325 5.2598917,4.6315676 5.2761007,4.7882564 C 5.2923101,4.9449457 5.3004149,5.0989333 5.3004149,5.2502193 C 5.3004149,5.4015053 5.1059041,5.4825513 4.7168825,5.4933574 C 4.3278615,5.5041635 4.1603663,5.7013757 4.214397,6.084994 C 4.2684277,6.4686123 4.4143106,6.9927103 4.6520457,7.6572882 C 4.8897813,8.321866 4.9492154,8.7676195 4.8303478,8.9945492 L 6.3702236,8.265134 C 6.4998973,7.6275712 6.6214662,7.0332332 6.7349304,6.4821201 C 6.8483951,5.9310069 6.791663,5.6176289 6.5647341,5.5419859 C 6.0460388,5.3798932 5.7380636,5.1610688 5.6408083,4.8855125 C 5.543553,4.6099557 5.5003285,4.3316971 5.5111346,4.0507369 z M 4.5547904,3.6130883 C 4.6628518,3.4401901 4.8411531,3.4509962 5.0896943,3.6455067 C 4.8519593,3.7967927 4.673658,3.7859865 4.5547904,3.6130883 z M 8.1046098,17.601645 L 8.1046098,18.104131 L 0,18.104131 L 0.01620921,17.601645 L 1.6047126,17.601645 C 1.5939065,17.428747 1.7668049,17.315281 2.1234081,17.26125 C 2.7501642,17.153189 3.1445883,16.877633 3.3066804,16.434581 C 3.4363541,15.570089 3.5822373,14.721807 3.7443299,13.889734 C 3.6578803,13.630386 3.6308646,13.360232 3.6632831,13.079273 L 3.2094252,13.063063 C 3.2526497,12.630817 3.4336527,12.009464 3.7524341,11.199003 C 4.0712156,10.388542 4.3602799,9.5942908 4.6196273,8.8162479 C 4.3926983,7.9085316 4.1873817,7.2169381 4.0036773,6.7414674 C 3.906422,6.2659972 3.7767481,6.0660837 3.6146554,6.1417267 C 2.7933888,6.1849512 2.1180048,6.1525328 1.5885034,6.0444714 C 1.1238394,5.1043367 0.92392579,4.2668603 0.98876262,3.5320422 C 0.86989506,3.4563993 0.77534122,3.3834577 0.70510104,3.3132175 C 0.63486085,3.2429779 0.57812848,3.1160059 0.53490392,2.9323015 C 0.49167936,2.7485966 0.43764866,2.6081164 0.37281182,2.5108612 C 0.35119954,2.4136059 0.38902103,2.3865906 0.48627629,2.4298151 C 0.55111313,2.4730397 0.62675611,2.6351318 0.71320523,2.9160914 C 0.77804262,2.9809289 0.81046132,2.9701227 0.81046132,2.883673 C 0.82126746,2.732387 0.66998122,2.4298151 0.35660261,1.9759573 C 0.32418419,1.9327327 0.31067666,1.8949112 0.31608001,1.8624928 C 0.3214828,1.8300744 0.35660261,1.8300744 0.42143945,1.8624928 C 0.42143945,1.8084621 0.4484548,1.7814468 0.5024855,1.7814468 C 0.51329164,1.7382222 0.54571006,1.727416 0.59974076,1.7490283 C 0.6105469,1.6949976 0.63756225,1.6814898 0.68078681,1.7085049 C 0.72401192,1.7355205 0.79425211,1.8354775 0.89150737,2.0083757 C 1.1940793,2.3541722 1.3345591,2.7594027 1.3129468,3.2240672 C 1.4426205,3.5266391 1.5479805,3.8265097 1.6290268,4.1236788 C 1.7100726,4.4208479 1.9180909,4.8774075 2.2530818,5.4933574 C 2.6637152,5.4501329 3.1391856,5.4069083 3.6794931,5.3636838 C 4.0360957,5.2123978 4.4521321,5.1637701 4.9276022,5.2178009 C 4.9924391,5.1745763 5.035664,5.1151425 5.0572768,5.0394996 C 5.0680829,4.8882136 5.0383659,4.809869 4.9681257,4.8044656 C 4.8978855,4.7990628 4.7979286,4.7963614 4.6682549,4.7963614 C 4.4629383,4.8071675 4.3575785,4.7720474 4.3521757,4.6910011 C 4.3467724,4.6099553 4.3494738,4.5370141 4.3602799,4.4721772 C 4.2954431,4.4613711 4.2738308,4.4127435 4.2954431,4.3262943 C 4.2522185,4.304682 4.2468154,4.2722636 4.2792339,4.2290391 C 4.3224584,4.1966201 4.3386676,4.1642014 4.3278615,4.131783 C 4.1873817,4.1209774 4.1225449,4.0723497 4.133351,3.9859001 C 4.1981878,3.8346141 4.2684277,3.7022388 4.3440707,3.588774 C 4.4197136,3.4753098 4.4629383,3.364547 4.4737444,3.2564857 C 4.6142242,2.7918211 5.0032455,2.5594888 5.6408083,2.5594888 C 6.0730539,2.5702949 6.3837305,2.6999686 6.5728383,2.9485098 C 6.7619454,3.1970516 6.829484,3.5941776 6.7754538,4.139888 C 6.7214231,4.6855984 6.4404632,4.9098259 5.9325741,4.8125706 C 6.0514416,5.0503057 6.1973248,5.1718749 6.3702236,5.1772783 C 6.5431213,5.182681 6.8348871,5.223204 7.2455209,5.2988469 C 7.7317978,5.2556224 8.1802528,5.2556224 8.5908861,5.2988469 C 8.925877,4.6828964 9.152806,4.2344413 9.2716729,3.9534817 C 9.3905408,3.672522 9.5040052,3.3753529 9.6120672,3.0619743 C 9.5904546,2.921495 9.587753,2.8026275 9.6039622,2.7053717 C 9.6201714,2.6081164 9.6877099,2.4838459 9.8065777,2.3325599 C 9.9254455,2.1812739 10.001088,2.0516002 10.033507,1.9435388 C 10.098343,1.8678959 10.141568,1.8841051 10.16318,1.9921665 C 10.173986,2.0570033 10.09294,2.2136923 9.9200422,2.4622336 C 9.9092363,2.5486827 9.9362514,2.5702949 10.001088,2.5270704 C 10.141568,2.4298151 10.287451,2.1164371 10.438737,1.5869362 C 10.460349,1.5437117 10.481962,1.5166963 10.503575,1.5058902 C 10.525186,1.4950841 10.552201,1.5166963 10.58462,1.570727 C 10.617039,1.5383086 10.649457,1.5491147 10.681875,1.6031454 C 10.7251,1.5815331 10.757519,1.5977423 10.77913,1.6517731 C 10.822355,1.6301608 10.84667,1.640967 10.852072,1.6841915 C 10.857475,1.727416 10.822355,1.8462836 10.746713,2.0407941 C 10.67107,2.494652 10.411722,2.8296426 9.9686698,3.0457659 C 9.9578639,3.9750945 9.7201283,4.9044231 9.2554637,5.8337517 C 8.736769,5.941813 8.1208188,5.9742315 7.407613,5.9310069 C 7.2455209,5.8985885 7.1401609,5.9715298 7.091533,6.1498308 C 7.0429056,6.3281324 6.8943214,7.0926675 6.6457801,8.4434361 C 6.7754532,8.8540697 6.8078714,10.399348 6.7430346,13.079273 L 6.4350604,13.079273 L 6.5323157,13.565549 C 6.6619888,14.008601 6.6998103,14.411129 6.6457801,14.773136 C 6.5917494,15.135142 6.4890908,15.607911 6.3378043,16.191443 C 6.2945798,16.407565 6.2513555,16.6453 6.2081315,16.904649 C 6.370223,17.239639 6.370223,17.471971 6.2081315,17.601645 L 8.1046098,17.601645 z M 4.133351,17.601645 C 4.1657694,17.41794 4.3278615,17.299072 4.6196273,17.245041 C 5.2247716,17.169398 5.5975838,16.877633 5.7380636,16.369744 C 5.7920943,15.224292 5.7542728,14.354397 5.6245991,13.760059 C 5.53815,13.414263 5.5003285,13.187334 5.5111346,13.079273 L 4.6844641,13.079273 C 4.598015,13.262977 4.5709996,13.522325 4.6034181,13.857315 C 4.6034181,14.311173 4.5304764,14.708299 4.3845933,15.048693 C 4.2387107,15.389085 4.0793202,15.824032 3.906422,16.353535 C 3.8415852,16.558851 3.7821511,16.780377 3.7281199,17.018112 C 3.8253757,17.353102 3.7875542,17.547614 3.6146554,17.601645 L 4.133351,17.601645 z M 5.6245991,2.1542586 C 5.7218544,2.035391 5.8461249,1.9597481 5.9974109,1.9273296 L 5.7866912,0.95477622 C 5.7434667,0.78187799 5.7920943,0.65220431 5.9325741,0.56575519 C 6.0730539,0.50091835 6.1162785,0.4198723 6.0622478,0.32261705 C 5.9974109,0.18213723 5.9001557,0.16052495 5.770482,0.25778021 C 5.6732267,0.32261705 5.6245991,0.55494905 5.6245991,0.95477622 L 5.6245991,2.1542586 z M 5.6408083,2.7539993 L 5.4138794,2.7539993 L 5.4138794,1.1006591 C 5.4138794,0.54954598 5.4949254,0.21455565 5.6570175,0.095688109 C 5.9055588,-0.066404543 6.0892634,-0.023179984 6.2081315,0.22536179 C 6.3053862,0.40906617 6.2729675,0.56035212 6.1108754,0.67921966 C 5.9920078,0.75486263 5.9433802,0.84131176 5.9649925,0.93856701 L 6.2081315,2.0570033 C 5.9703958,2.1326463 5.8083035,2.2353046 5.7218544,2.3649783 C 5.6678236,2.4514274 5.6408083,2.5162643 5.6408083,2.5594888 L 5.6408083,2.7539993 z "
     id="path4" />
</svg>
