<?xml version="1.0" encoding="UTF-8" standalone="no"?>
<svg
   xmlns:dc="http://purl.org/dc/elements/1.1/"
   xmlns:cc="http://web.resource.org/cc/"
   xmlns:rdf="http://www.w3.org/1999/02/22-rdf-syntax-ns#"
   xmlns:svg="http://www.w3.org/2000/svg"
   xmlns="http://www.w3.org/2000/svg"
   xmlns:sodipodi="http://sodipodi.sourceforge.net/DTD/sodipodi-0.dtd"
   xmlns:inkscape="http://www.inkscape.org/namespaces/inkscape"
   width="11.192372"
   height="18"
   id="svg2"
   sodipodi:version="0.32"
   inkscape:version="0.45.1"
   sodipodi:docname="C291.svg"
   sodipodi:docbase="/Users/rosmord/Travail/Gsigns/SThomasDetail/ManuelDeCodage/C"
   inkscape:output_extension="org.inkscape.output.svg.inkscape"
   version="1.0">
  <metadata
     id="metadata9">
    <rdf:RDF>
      <cc:Work
         rdf:about="">
        <dc:format>image/svg+xml</dc:format>
        <dc:type
           rdf:resource="http://purl.org/dc/dcmitype/StillImage" />
      </cc:Work>
    </rdf:RDF>
  </metadata>
  <defs
     id="defs7" />
  <sodipodi:namedview
     inkscape:window-height="581"
     inkscape:window-width="701"
     inkscape:pageshadow="2"
     inkscape:pageopacity="0.0"
     guidetolerance="10.0"
     gridtolerance="10.0"
     objecttolerance="10.0"
     borderopacity="1.0"
     bordercolor="#666666"
     pagecolor="#ffffff"
     id="base"
     height="18px"
     width="11.192372px"
     inkscape:zoom="18.028675"
     inkscape:cx="5.5961859"
     inkscape:cy="7.4578327"
     inkscape:window-x="0"
     inkscape:window-y="22"
     inkscape:current-layer="svg2" />
  <path
     style="fill:#000000;stroke:none"
     d="M 6.1684879,8.1382923 C 5.7737047,8.0615291 5.5763131,8.5714575 5.5763131,9.6680775 L 5.4447186,13.747505 L 4.9512398,13.747505 L 2.8950775,11.000471 C 2.5989898,10.517958 2.3358008,10.356207 2.1055104,10.515217 C 1.8752201,10.674226 1.968433,11.099167 2.3851491,11.790038 C 2.8018646,12.480908 3.1801985,13.566561 3.5201507,15.046998 L 2.5002939,15.310188 L 7.4021857,15.310188 L 7.0567502,14.750912 C 7.3199392,14.060041 7.506365,12.365763 7.6160275,9.6680775 C 7.6160275,8.5824233 7.4405682,8.0724949 7.0896495,8.1382923 L 7.0896495,9.6680775 L 6.1684879,9.6680775 L 6.1684879,8.1382923 z M 4.7702981,5.4406062 C 4.7483653,5.51737 4.6990172,5.5557519 4.622254,5.5557519 C 4.6112876,5.6873462 4.6770847,5.8299068 4.8196453,5.9834339 C 4.6551524,5.9176364 4.5509737,5.9286026 4.5071091,6.0163323 C 4.408413,5.9395685 4.3480988,5.9615007 4.3261666,6.0821291 L 4.4577611,6.0821291 C 4.7648146,6.0711632 5.0280034,6.3562849 5.2473273,6.9374938 C 5.3898879,7.2774456 5.5077743,7.4885446 5.6009867,7.5707911 C 5.6941995,7.6530381 5.8066034,7.677712 5.9381982,7.6448127 C 5.9272318,7.4803204 5.8778838,7.318569 5.7901541,7.1595588 C 5.7024244,7.0005485 5.5927625,6.8881449 5.4611682,6.8223481 C 6.2836334,6.6688216 6.6674505,6.3535432 6.6126195,5.876513 C 6.5577886,5.3994832 6.3384644,5.1609684 5.954647,5.1609684 C 5.5817966,5.1609684 5.2994169,5.2103165 5.1075079,5.3090126 C 4.9155995,5.407708 4.8031963,5.4515726 4.7702981,5.4406062 z M 5.5105163,6.6085071 C 5.9052995,6.4440142 6.1191405,6.293229 6.1520392,6.1561516 C 6.1849373,6.0190742 6.1520386,5.8957042 6.0533431,5.7860417 C 5.9546476,5.6763797 5.8285362,5.6242903 5.6750092,5.6297736 C 5.5214821,5.6352568 5.400854,5.7257277 5.3131249,5.9011865 C 5.2802263,6.010849 5.2692598,6.2137239 5.2802257,6.509811 C 5.2692598,6.5427097 5.2473275,6.5591591 5.2144288,6.5591591 C 5.1486314,6.2740378 5.0828341,6.0985787 5.0170366,6.0327819 C 5.0389695,6.010849 5.0526772,5.9697258 5.0581599,5.9094122 C 5.0636431,5.8490974 5.0170369,5.7860417 4.9183414,5.7202449 C 4.9183414,5.5118868 5.0005879,5.4077078 5.1650808,5.4077078 C 5.2637769,5.4077078 5.3350572,5.4460894 5.3789218,5.5228527 C 5.4337527,5.4460894 5.4173034,5.3802923 5.3295737,5.3254613 C 5.9546472,5.2706304 6.2945996,5.4378649 6.3494305,5.8271649 C 6.4042614,6.2164655 6.1246234,6.4933623 5.5105163,6.6578552 L 5.5105163,6.6085071 z M 5.0005879,5.7037952 C 5.0554188,5.7476604 5.1102498,5.7750758 5.1650808,5.7860417 C 5.2747428,5.7641094 5.3295737,5.7092785 5.3295737,5.6215488 C 5.3295737,5.5338197 5.2747428,5.4899551 5.1650808,5.4899551 C 5.0773511,5.4899551 5.0225201,5.5612352 5.0005879,5.7037952 z M 5.1650808,5.5228527 C 5.2308782,5.5228527 5.2692598,5.5557513 5.2802257,5.6215488 C 5.2692598,5.6873462 5.2308782,5.7202449 5.1650808,5.7202449 C 5.1102498,5.7202449 5.0828343,5.6873462 5.0828343,5.6215488 C 5.0828343,5.5557513 5.1102498,5.5228527 5.1650808,5.5228527 z M 8.1259551,9.3390908 L 8.5700858,9.3390908 C 8.5700858,8.0231469 8.3644696,7.022481 7.9532373,6.3370933 C 7.542005,5.6517061 7.1609296,5.2980462 6.8100109,5.2761133 C 7.1389967,6.0985785 7.0238516,6.7181688 6.4645754,7.1348843 L 6.4645754,9.3390908 L 6.7606628,9.3555405 L 6.7606628,7.7764081 C 7.6598912,7.7764081 8.1149887,8.2973024 8.1259551,9.3390908 z M 5.0992831,9.3390908 L 5.2637769,9.3390908 C 5.2528105,8.6153215 5.3734385,8.1657078 5.6256611,7.990249 C 5.4611682,7.8696201 5.3268321,7.894294 5.2226528,8.0642707 C 5.1184741,8.2342468 5.0773508,8.6591869 5.0992831,9.3390908 z M 1.4804371,9.7174247 C 1.4804371,10.046411 1.6504133,10.210904 1.9903655,10.210904 L 2.6154388,10.210904 C 2.5167433,9.8819176 2.3083855,9.7174247 1.9903655,9.7174247 L 1.4804371,9.7174247 z M 8.6029851,0.25907663 C 8.4823567,0.18231339 8.339796,0.28649212 8.1753031,0.57161284 C 8.0217761,0.85673413 7.8819568,1.0513844 7.7558451,1.1555637 C 7.6297341,1.2597425 7.4597583,1.3858537 7.2459176,1.5338976 C 7.0320764,1.6819409 6.716798,1.9698035 6.3000825,2.3974855 C 6.1136573,2.6606745 5.9436811,2.951279 5.7901541,3.269299 L 7.5173306,3.269299 C 7.7476209,2.6771241 7.8929232,2.257667 7.9532373,2.0109276 C 8.0135515,1.7641876 8.0656409,1.5613128 8.1095054,1.4023031 C 8.1533706,1.2432928 8.2794819,1.0376764 8.4878393,0.78545381 C 8.6852315,0.52226537 8.7236134,0.34680631 8.6029851,0.25907663 z M 5.4611682,4.864881 C 6.1301063,4.7881178 6.7551799,4.8374658 7.3363889,5.0129251 L 9.4090009,0.32487346 L 9.293856,0.27552541 L 7.8298676,3.5818352 L 5.2637769,3.5818352 L 5.4611682,4.864881 z M 8.8497244,15.836565 L 0.55927645,15.836565 L 0.55927645,16.214899 L 8.8497244,16.214899 L 8.8497244,15.836565 z M 7.1883447,16.724829 L 8.8497244,17.645989 L 8.8497244,16.724829 L 7.1883447,16.724829 z M 0,16.724829 L 0,15.310188 L 1.7765246,15.310188 L 1.7765246,15.326636 L 2.8621782,14.718013 C 2.6099556,13.643325 2.2864527,12.735872 1.8916694,11.995653 C 1.4968862,11.255435 1.3433594,10.709867 1.4310891,10.358948 C 1.189833,10.347982 1.0911371,10.139624 1.1350017,9.7338752 C 0.78408355,9.4926185 0.78956677,9.3719901 1.1514513,9.3719901 L 1.595582,9.3719901 L 1.595582,6.8552465 C 1.595582,6.6139904 1.5023694,6.4933623 1.3159442,6.4933623 C 1.0966204,6.5920578 0.94857647,6.7510675 0.87181265,6.9703914 C 0.7950494,7.1897153 0.7347355,7.3706576 0.69087095,7.5132182 C 0.54831031,7.7654408 0.46606356,7.7325424 0.44413071,7.414523 C 0.60862421,6.833314 0.71280323,6.4741707 0.75666778,6.3370933 C 0.8005329,6.2000159 0.94309357,6.016332 1.1843497,5.7860417 C 1.3378768,5.5996165 1.5133362,5.4296403 1.7107277,5.2761133 C 1.9519839,5.1993501 2.0561626,5.2432149 2.023264,5.4077078 C 1.9574671,5.5502684 1.8697374,5.6544474 1.7600749,5.7202449 C 1.6394472,5.8299068 1.5352684,5.9615013 1.4475387,6.1150284 C 1.7765246,6.1369607 1.9465007,6.3837 1.9574671,6.8552465 L 1.9574671,9.3719901 L 2.3851491,9.3719901 C 2.6483375,9.361024 2.8731446,9.6790437 3.0595704,10.326049 L 5.0005879,12.974386 C 5.0663847,11.318491 5.0992831,10.216388 5.0992831,9.6680775 L 4.7373989,9.6680775 L 4.7373989,8.6975688 C 4.7373989,8.2918191 4.797713,8.0039562 4.9183414,7.8339801 C 5.0389692,7.6640039 5.1321818,7.5516004 5.1979792,7.4967694 C 4.858027,6.6962365 4.5893553,6.2959701 4.3919642,6.2959701 C 4.3371327,6.2850042 4.2329537,6.3233861 4.0794272,6.4111158 C 4.0794272,5.8847378 4.2219878,5.5776842 4.5071091,5.4899551 C 4.4961427,5.4022249 4.5235581,5.3419107 4.5893556,5.3090126 C 4.6551524,5.2761139 4.7099833,5.2815968 4.7538485,5.3254613 C 4.8635105,5.150002 4.9896217,5.0348568 5.1321824,4.9800259 L 4.8689934,3.2528493 L 5.5105163,3.2528493 C 5.6750092,2.9348294 5.8066037,2.7100223 5.9052998,2.578428 C 5.4666515,2.2494422 5.1458898,1.9533547 4.943015,1.6901657 C 4.7401402,1.4269767 4.6524105,1.1665296 4.679826,0.90882436 C 4.7072415,0.65111856 4.7922298,0.48388374 4.934791,0.40711992 C 5.0773517,0.33035667 5.2308785,0.30294118 5.3953714,0.32487346 C 5.5598643,0.34680631 5.6804924,0.46743468 5.7572556,0.68675857 C 5.7791879,0.92801471 5.7380647,1.0815415 5.633886,1.1473389 C 5.5297072,1.2131363 5.4200452,1.2432934 5.3049001,1.2378102 C 5.189755,1.232327 5.1431485,1.1802373 5.1650808,1.0815412 C 5.1870131,1.0267103 5.241844,1.0157442 5.3295737,1.0486428 C 5.4831008,1.0267105 5.5708305,0.95543022 5.5927627,0.83480185 C 5.6037291,0.70320763 5.5626059,0.60999503 5.469393,0.55516406 C 5.3761802,0.50033309 5.2802257,0.48114214 5.1815296,0.4975912 C 5.0828341,0.51404083 5.0033292,0.5688718 4.943015,0.66208412 C 4.8827014,0.755297 4.8607691,0.8841499 4.8772182,1.0486428 C 4.8936672,1.2131357 4.9896215,1.4050444 5.1650808,1.6243689 C 5.3405401,1.8436928 5.6256614,2.0959154 6.0204447,2.3810367 C 6.0972079,2.2604083 6.2397685,2.0959151 6.4481266,1.8875571 C 6.6564841,1.6791996 6.8127522,1.5393805 6.9169309,1.4680999 C 7.0211102,1.3968199 7.169154,1.2953825 7.3610625,1.1637877 C 7.5529709,1.0321934 7.6955316,0.90334086 7.7887444,0.77722985 C 7.8819573,0.65111826 7.9450128,0.53871471 7.9779109,0.44001919 C 8.1204716,0.18779659 8.2410999,0.045235952 8.339796,0.012337253 C 8.4384915,-0.020561445 8.5591199,0.012336967 8.7016812,0.11103249 C 8.8442418,0.20972859 8.9237469,0.3139076 8.9401957,0.42356955 C 8.9566445,0.5332315 8.8661732,0.69772442 8.6687819,0.91704831 C 8.5920187,0.99381214 8.5152551,1.1062157 8.4384913,1.254259 C 8.3617281,1.4023029 8.2685157,1.7285474 8.1588543,2.2329925 L 9.244508,0.028786029 L 9.6392906,0.242627 L 7.6160275,5.1938668 C 7.7805199,5.3144952 8.0437084,5.6544474 8.4055929,6.2137236 C 8.7674771,6.7729998 8.9484197,7.9244511 8.9484197,9.6680775 L 8.1259551,9.6845263 C 8.1259551,11.768104 7.9779112,13.4569 7.6818235,14.750912 L 7.9779109,15.293739 L 9.4747977,15.310188 L 9.4747977,18.057222 L 8.8497244,18.057222 L 6.4645754,16.724829 L 0,16.724829 z "
     id="path4" />
</svg>
