<?xml version="1.0" encoding="UTF-8" standalone="no"?>
<svg
   xmlns:dc="http://purl.org/dc/elements/1.1/"
   xmlns:cc="http://creativecommons.org/ns#"
   xmlns:rdf="http://www.w3.org/1999/02/22-rdf-syntax-ns#"
   xmlns:svg="http://www.w3.org/2000/svg"
   xmlns="http://www.w3.org/2000/svg"
   xmlns:sodipodi="http://sodipodi.sourceforge.net/DTD/sodipodi-0.dtd"
   xmlns:inkscape="http://www.inkscape.org/namespaces/inkscape"
   width="1054.6875"
   height="1786.25"
   id="svg6140"
   version="1.1"
   inkscape:version="0.48.5 r10040"
   sodipodi:docname="C294.svg">
  <title
     id="title6188">C294</title>
  <metadata
     id="metadata6150">
    <rdf:RDF>
      <cc:Work
         rdf:about="">
        <dc:format>image/svg+xml</dc:format>
        <dc:type
           rdf:resource="http://purl.org/dc/dcmitype/StillImage" />
        <cc:license
           rdf:resource="" />
        <dc:title>C294</dc:title>
        <dc:description>simply added a  pshent to S. Thomas's C97 sign. 
S. Rosmorduc
</dc:description>
      </cc:Work>
    </rdf:RDF>
  </metadata>
  <defs
     id="defs6148" />
  <sodipodi:namedview
     pagecolor="#ffffff"
     bordercolor="#666666"
     borderopacity="1"
     objecttolerance="10"
     gridtolerance="10"
     guidetolerance="10"
     inkscape:pageopacity="0"
     inkscape:pageshadow="2"
     inkscape:window-width="1158"
     inkscape:window-height="805"
     id="namedview6146"
     showgrid="false"
     fit-margin-top="0"
     fit-margin-left="0"
     fit-margin-right="0"
     fit-margin-bottom="0"
     inkscape:zoom="0.44547727"
     inkscape:cx="15.912688"
     inkscape:cy="892.29712"
     inkscape:window-x="280"
     inkscape:window-y="263"
     inkscape:window-maximized="0"
     inkscape:current-layer="svg6140" />
  <path
     style="fill:#000000;stroke:none"
     d="m 821.1875,0 0,0.71875 c -1.917,0 -3.76585,0.332792 -5.53125,1 -7.9458,2.468657 -17.4356,13.464242 -28.4375,33 -2.4446,8.560239 -7.6166,17.718779 -15.5625,27.5 -7.9459,9.774552 -19.2683,19.886196 -33.9375,30.28125 -14.6691,10.38837 -25.96045,18.6384 -33.90625,24.75 -7.9458,6.13829 -20.1847,17.13387 -36.6875,33 -16.5027,15.89282 -27.79405,29.34154 -33.90625,40.34375 -31.7831,-23.22541 -54.72335,-43.70987 -68.78125,-61.4375 -14.0579,-17.72764 -21.68375,-33.01342 -22.90625,-45.84375 -1.2223,-12.837024 0.6107,-22.618323 5.5,-29.34375 4.89,-6.725427 11.3045,-10.984357 19.25,-12.8125 2.3839,-0.667198 4.7339,-1 7.0625,-1 5.4337,0 10.70955,1.497584 15.84375,4.5 7.3345,4.270116 10.9999,11.27461 11,21.0625 -2.4448,11.002212 -9.7756,17.122768 -22,18.34375 -2.9338,-1.000802 -5.3562,-1.5 -7.3125,-1.5 -2.9336,0 -4.7666,1.11072 -5.5,3.3125 -2.4445,7.33924 0.8944,11.29909 10.0625,11.90625 1.0188,0.0667 2.02775,0.0937 3.03125,0.0937 8.0289,0 15.59335,-2.16317 22.65625,-6.5 7.9459,-4.87058 11.90625,-17.080453 11.90625,-36.65625 -6.1123,-15.892768 -15.57085,-25.082558 -28.40625,-27.5312 -3.6669,-0.667208 -7.3072,-1 -10.875,-1 -8.9187,0 -17.5173,2.194418 -25.8125,6.53125 -11.613,6.13829 -18.32255,19.26334 -20.15625,39.40625 -1.8335,20.1696 5.20235,40.65407 21.09375,61.4375 15.8916,20.78343 40.33805,44.61165 73.34375,71.5 -6.1122,8.56024 -15.89695,26.29247 -29.34375,53.1875 l -51.34375,0 19.8125,135.1875 c -9.29779,3.68882 -44.94575,23.90361 -40.46875,31.6875 -3.22596,-3.06052 -6.9944,-3.53609 -10.46875,-1.65625 -3.76293,2.15508 -5.65625,6.4576 -5.65625,12.90625 -19.35187,8.5982 -29,31.16539 -29,67.71875 8.36197,-5.85185 14.75902,-8.78125 19.21875,-8.78125 1.27421,0 2.38812,0.25991 3.34375,0.8125 12.9013,0 26.88599,19.35406 41.9375,58.0625 -11.82621,9.67573 -21.50551,23.66359 -29.03125,41.9375 -39.77909,4.31016 -61.82457,23.66974 -66.125,58.0625 l 0,74.1875 -12.90625,119.34375 c -10.75105,20.42347 -26.07918,55.90379 -45.96875,106.4375 -19.88951,50.52825 -38.42324,93.79525 -55.625,129.81255 -17.20171,36.0173 -16.13318,71.2211 3.21875,105.625 L 33.875,1616.9375 14.5,1604.0312 0,1687.9062 l 75.78125,-41.9374 -20.9375,-12.875 291.875,-414.4688 c 0,1.0499 1.06854,2.9174 3.21875,5.625 0.82699,1.05 1.73267,1.5937 2.71875,1.5938 1.57763,0 3.35892,-1.3163 5.34375,-3.9688 1.91133,1.9341 3.6072,2.875 5.09375,2.875 1.85823,0 3.39918,-1.4848 4.59375,-4.4688 l 2.96875,0 c 3.6124,1e-4 5.85871,-1.6989 6.71875,-5.125 1.50518,0.5526 2.83891,0.8125 4,0.8126 4.64447,0 6.51629,-3.4273 5.65625,-10.3126 L 375.75,1178.25 l 9.6875,-12.9062 c 3.0103,2.5971 5.49056,3.875 7.46875,3.875 2.96732,0 4.76122,-2.8854 5.40625,-8.6876 -2.15015,-3.2048 -3.21875,-6.96 -3.21875,-11.2812 l 156.4375,-220.9375 c -3.22532,41.93002 -11.83614,98.3553 -25.8125,169.3125 l -49.96875,237.0625 14.5,0 c -11.82622,22.5785 -16.65024,41.1141 -14.5,55.625 2.15021,14.5164 -1.08658,48.1348 -9.6875,100.8125 -8.60088,52.6831 -22.03565,104.8004 -40.3125,156.4062 -9.67597,21.5011 -19.35528,37.1056 -29.03125,46.7813 -9.67599,9.6757 -27.96602,19.0791 -54.84375,28.2187 -26.87773,9.1399 -52.40377,15.0645 -76.59375,17.75 -24.18992,2.7077 -36.83115,15.866 -37.90625,39.5 -1.07515,4.3102 16.66504,6.4688 53.21875,6.4688 23.65242,0 45.1793,-4.308 64.53125,-12.9062 8.60088,-3.8128 17.94381,-5.7188 28.03125,-5.7188 12.60935,0 26.38042,2.9954 41.3125,8.9688 9.9547,3.9786 19.46141,5.9687 28.53125,5.9687 15.41875,0 29.54474,-5.7453 42.40625,-17.25 -5.37558,-41.9301 -1.07023,-79.027 12.90625,-111.2813 52.68033,-103.2114 76.06934,-171.4861 70.15625,-204.8124 -5.91313,-33.3319 0.25439,-71.4981 18.53125,-114.5 l 64.53125,0 c 0,2.1551 4.82399,8.0797 14.5,17.75 2.15021,30.1047 10.76096,52.1188 25.8125,66.0937 30.10308,108.588 46.2248,182.2346 48.375,220.9375 -3.22531,37.6309 -34.40021,69.3561 -93.53125,95.1562 -29.02793,5.3601 -50.2799,8.3224 -63.71875,8.875 -13.43887,0.5526 -20.15625,12.6418 -20.15625,36.2813 l 100,0 c 14.44953,-8.4324 32.35761,-12.6563 53.71875,-12.6563 16.78371,1e-4 35.69937,2.6184 56.75,7.8126 7.8547,1.9341 14.72636,2.9062 20.625,2.9062 30.02923,0 34.69896,-25.1762 14.03125,-75.5 -6.45069,-21.501 -7.51923,-45.6848 -3.21875,-72.5625 4.30042,-107.5105 -1.34837,-174.4396 -16.9375,-200.7813 -15.58906,-26.3415 -22.30646,-57.2429 -20.15625,-92.7187 l 8.0625,1.5625 c -3.22532,-30.1048 -8.04936,-134.3761 -14.5,-312.8438 L 741.8125,931.5 c 1.07511,-23.65057 1.34995,-41.11698 0.8125,-52.40625 -0.41831,-8.78055 -1.96202,-13.1875 -4.65625,-13.1875 -0.76985,0 -1.63817,0.37539 -2.59375,1.09375 1.0751,-39.77493 15.57838,-92.47641 43.53125,-158.0625 18.27686,-15.04684 34.15489,-23.6317 47.59375,-25.78125 10.75103,-1.71301 31.29555,-2.5625 61.65625,-2.5625 l 24.625,0 c 1.7633,0.0221 3.508,0.0312 5.28125,0.0312 42.56415,0 88.116,-6.20485 136.625,-18.59375 -1.0753,-92.45821 -18.2966,-188.15014 -51.625,-287.0625 -9.67602,-37.62539 -21.49233,-62.87844 -35.46875,-75.78125 -11.65274,-3.24919 -22.19614,-4.875 -31.65625,-4.875 -11.48721,0 -21.37081,2.50274 -29.625,7.53125 -15.05148,9.13972 -15.05148,18.02681 0,26.625 6.45063,4.31015 9.41245,7.51222 8.875,9.65625 -0.23764,0.93939 -0.67897,1.4375 -1.34375,1.4375 -0.82942,0 -2.00691,-0.75803 -3.5,-2.25 -2.68775,-2.70766 -7.78669,-5.12618 -15.3125,-7.28125 -2.48108,-0.77362 -4.53385,-1.1875 -6.15625,-1.1875 -5.40703,0 -6.04126,4.13408 -1.90625,12.40625 l 22.5625,27.4375 L 835.375,475.125 c -20.51742,-30.62038 -54.90472,-51.45001 -77.46875,-65.40625 l 159.5,-390.5625 -31.15625,-16.5 -86.1875,174.1875 c 9.7792,-40.33921 17.73145,-66.29688 23.84375,-77.90625 6.1122,-11.61603 12.23185,-20.482153 18.34375,-26.59375 14.6692,-17.113809 21.37875,-29.939761 20.15625,-38.5 C 861.18395,25.290189 855.0644,17.332588 844.0625,10 835.5054,3.32795 827.8956,0 821.1875,0 z m 7.4375,19.03125 c 0.2553,-0.01724 0.4969,0 0.75,0 l 0,0.03125 c 2.5581,0 5.0279,0.859016 7.375,2.59375 9.7795,6.138291 6.7042,20.209769 -9.1875,42.1875 -17.1141,18.334791 -27.48895,33.91298 -31.15625,46.75 -3.6676,12.83702 -7.6593,29.33039 -11.9375,49.5 -4.2788,20.16961 -15.57025,52.86392 -33.90625,98.09375 l -135.6875,0 c 11.0022,-25.67405 23.8308,-48.28798 38.5,-67.84375 34.228,-34.22761 59.59105,-57.13397 76.09375,-68.75 16.5028,-11.60937 29.95305,-21.68976 40.34375,-30.25 C 780.2031,82.790186 790.90445,67.504415 801.90625,45.5 811.80645,28.397449 820.7128,19.565705 828.625,19.03125 z m 63.125,4.53125 7.34375,1.8125 -163.1875,375.875 c -11.60938,-2.98716 -23.81074,-5.47385 -36.59375,-7.46875 -17.41962,-3.40384 -36.94306,-5.25341 -58.59375,-5.53125 -8.40575,-0.33412 -17.01283,-0.5 -25.8125,-0.5 -10.1431,0 -20.55055,0.33279 -31.21875,1 l -11,-106.34375 201.71875,0 L 891.75,23.875 z m 38.75,366.125 0,0.125 c 20.42709,7.52619 36.03014,13.99837 46.78125,19.375 0,36.55337 -0.54971,68.79483 -1.625,96.75 -1.07534,27.94965 5.36706,65.56836 19.34375,112.875 -47.30469,-10.84168 -85.10391,-16.25 -113.4375,-16.25 l -7.5,0 c -8.60086,-50.52819 -16.66169,-83.32263 -24.1875,-98.375 z m -268.375,23.875 c 66.92409,-1.12617 125.08234,31.54139 158.71875,82.68745 L 759.5625,583.3437 c -16.12664,-3.20499 -37.62225,-4.8125 -64.5,-4.8125 l 0,96.78125 -9.6875,12.875 -38.6875,0 0,-153.1875 c 34.31016,-38.47028 39.44397,-78.94664 15.4375,-121.4375 z m -60.59375,0.25 0,0.1875 c 24.72745,0 38.9558,17.22119 42.71875,51.625 3.76287,34.40383 -21.76316,56.97101 -76.59375,67.71875 9.67598,5.36005 17.2182,13.41766 22.59375,24.1875 5.37559,10.74775 8.5812,22.04419 9.65625,33.875 -3.03562,1.16042 -5.91975,1.75 -8.6875,1.75 -5.0742,0 -9.70105,-1.90593 -13.875,-5.71875 -6.45066,-5.91264 -14.51154,-21.24065 -24.1875,-45.96875 -13.62702,-40.88009 -29.82538,-61.3125 -48.5625,-61.3125 -0.4802,0 -0.95343,0.004 -1.4375,0.0312 l -9.6875,0 c 0.6616,-5.30476 2.33392,-7.93745 5.03125,-7.93745 1.68583,0 3.76895,1.01793 6.25,3.0625 1.9352,-3.86808 5.0551,-5.8125 9.3125,-5.8125 2.8383,0 6.1921,0.8495 10.0625,2.5625 -8.60083,-9.67573 -12.90625,-19.35552 -12.90625,-29.03125 6.45063,0 10.20615,-2.6712 11.28125,-8.03125 l 1.125,0 c 3.04373,0 9.94099,-3.03743 20.65625,-9.09375 12.36377,-6.99017 31.44734,-11.02173 57.25,-12.09375 z M 1012.75,425.25 l 6.4688,35.46875 -33.87505,0 0,-33.875 z m -437.78125,0.75 0,0.0625 c -4.79741,0 -9.92777,0.25991 -15.375,0.8125 5.37558,3.20498 6.44406,8.0605 3.21875,14.53125 -3.22532,-6.44864 -8.04931,-9.6875 -14.5,-9.6875 -11.82619,0 -17.20008,7.54139 -16.125,22.59375 6.45066,4.31015 9.41252,8.61821 8.875,12.90625 -0.53767,4.31016 -1.3625,7.51223 -2.4375,9.65625 4.30043,4.31015 8.60585,16.67581 12.90625,37.09375 3.22531,0 4.84375,-1.06368 4.84375,-3.21875 0,-22.57855 0.51858,-37.10833 1.59375,-43.5625 6.45063,-11.82527 14.78645,-17.71875 25,-17.71875 10.21353,0 18.54935,3.47858 25,10.46875 6.45066,6.98465 8.61894,15.31875 6.46875,25 -2.15025,9.67573 -16.13487,20.42473 -41.9375,32.25 l 0,4.8125 c 40.85419,-11.82528 59.11297,-31.70659 54.8125,-59.65625 C 623.58549,438.11852 606.15169,426 574.96875,426 z m -25.0625,10.5 0,0.0312 c 6.45063,0 9.13755,4.27682 8.0625,12.875 0,5.36007 -2.68692,8.59339 -8.0625,9.6875 -3.22537,-1.04991 -7.49947,-3.20852 -12.875,-6.46875 2.15027,-10.74774 6.42436,-16.125 12.875,-16.125 z m 0,1.53125 0,0.0625 c -4.30048,2.15507 -6.4375,5.91014 -6.4375,11.28125 0,2.15507 1.61838,3.76259 4.84375,4.8125 5.37553,-1.10516 8.0625,-3.26376 8.0625,-6.46875 0,-5.36006 -2.16833,-8.59339 -6.46875,-9.6875 z m 283.84375,88.875 c 4.30021,8.60371 9.67417,33.85677 16.125,75.78125 l -33.875,0 c -10.75111,-8.59819 -19.33061,-13.42246 -25.78125,-14.5 z M 546.6875,570.4375 c 2.15026,6.45417 5.90571,15.06476 11.28125,25.8125 l -14.5,91.90625 -33.875,0 c 0,-49.45619 12.36624,-88.69157 37.09375,-117.71875 z m 178.28125,23.375 0,0.28125 c 10.51219,0 19.36386,0.71954 26.53125,2.15625 l -43.53125,61.28125 0,-62.875 c 6.09229,-0.55257 11.7439,-0.84375 17,-0.84375 z M 570.875,606 c 8.60082,8.5982 19.34865,12.90625 32.25,12.90625 11.82622,-1.04991 22.05537,-5.35796 30.65625,-12.90625 l 0,95.0625 c -13.97643,4.31015 -27.68612,6.75991 -41.125,7.3125 -1.2216,0.0497 -2.42557,0.0625 -3.625,0.0625 -11.99515,0 -22.88241,-2.41852 -32.65625,-7.28125 z m 272.5625,9.59375 9.65625,0 0,53.21875 -9.65625,0 z m 16.125,0 9.65625,0 0,53.21875 -9.65625,0 z m 25.78125,0.0937 0,54.75 -11.28125,-1.59375 0,-51.59375 z M 761.1875,628.5 l -17.75,80.625 -9.6875,0 0,-37.09375 z m -37.09375,53.21875 0,27.40625 -17.75,0 z m -77.40625,12.90625 33.84375,0 -4.8125,8.03125 -29.03125,0 z m -137.09375,3.21875 33.875,0 0,4.8125 -33.875,0 z m 3.21875,11.25 c 25.8026,68.80764 38.71875,123.09454 38.71875,162.875 L 549.90625,880 391.875,1105.7812 c 1.07511,-6.4485 -1.6118,-17.1975 -8.0625,-32.25 l 41.9375,-58.0937 c 56.96875,-106.41595 85.97577,-208.52787 87.0625,-306.34375 z m 20.96875,12.9375 127.40625,0 -9.65625,14.5 -112.90625,0 z m 162.875,1.5625 62.90625,0 -6.4375,12.90625 -67.75,0 z m -243.5,4.8125 53.21875,1.65625 0,9.6875 -54.84375,0 1.625,-11.28125 z m -1.625,17.75 53.21875,0 0,8.03125 -53.21875,0 z m 90.3125,4.8125 100,0 -9.6875,14.5 -85.46875,0 z m 132.25,1.65625 74.1875,0 -6.46875,12.875 -75.78125,0 z m -222.5625,6.46875 53.21875,0 -1.59375,11.28125 -53.21875,0 z m 104.84375,22.5625 62.875,0 -56.4375,82.25 c 2.15021,-32.25427 0.0132,-59.67699 -6.4375,-82.25 z m 96.75,0 82.25,1.59375 c -4.30042,12.90281 -8.60578,39.21955 -12.90625,79 l -162.875,88.71875 c 4.30047,-27.95519 6.98739,-43.00672 8.0625,-45.15625 z m 72.5625,96.75 3.25,50 -150,54.84375 c 4.30043,-10.75325 4.30043,-19.91131 0,-27.4375 z m -146.75,46.71875 -6.4375,0.0625 -4.84375,4.8125 0,9.6875 3.21875,1.5625 c 5.37559,-1.04992 8.0625,-6.42717 8.0625,-16.125 z m 148.375,20.96875 c 5.37553,3.205 9.68094,13.13 12.90625,29.8125 3.22533,16.66585 4.84375,36.29645 4.84375,58.87495 l 4.8125,267.7188 -45.15625,0 C 638.06194,1211.1139 593.45225,1110.5664 570.875,1000.9062 z M 566.09375,960.375 c 4.25915,0 6.40625,3.59216 6.40625,10.78125 0,10.21171 -5.37388,17.45095 -16.125,21.74995 l 3.21875,-30.62495 c 2.5484,-1.27095 4.7067,-1.90625 6.5,-1.90625 z M 374.125,1004.2188 c 8.60091,4.3102 19.89857,12.8895 33.875,25.7812 l -17.75,24.1875 c -10.75111,-3.205 -20.94905,-9.6514 -30.625,-19.3437 z m 182.25,11.2187 c 18.27686,96.7573 60.74944,192.4493 127.40625,287.0625 l -179.03125,0 z m -186.75,98 c 1.57205,0 3.61639,1.776 6.125,5.3125 l 0,11.2812 -11.28125,14.5 c -2.15025,-8.6037 -1.63162,-16.6613 1.59375,-24.1874 0.57342,-4.5865 1.7659,-6.8751 3.5625,-6.875 z m 133.53125,198.7187 249.96875,1.6563 0,8.0313 -251.59375,0 1.625,-9.6563 z"
     id="path6142"
     inkscape:connector-curvature="0"
     sodipodi:nodetypes="cccccccccscccscccsccscccsccsccccccccscccccccsccccccccccscccccccscccccccccssccscscscccccccccsccscsccscccccscccscscccscccsccscccccccccccccccccccccccccccccccsccccccccscsccccccccccccccscccsccsccscscccscccccccccccsccccscsccccccccccccccccsccccccccccccccccccccccsccccccccccccccccccccccccccccccccccccccccccccccccccccccccccccccccccccccccccccccccccccccccccccccccccccccsccccssccscccccccccccccccccccccccc" />
</svg>
