<?xml version="1.0" encoding="UTF-8" standalone="no"?>
<svg
   xmlns:dc="http://purl.org/dc/elements/1.1/"
   xmlns:cc="http://creativecommons.org/ns#"
   xmlns:rdf="http://www.w3.org/1999/02/22-rdf-syntax-ns#"
   xmlns:svg="http://www.w3.org/2000/svg"
   xmlns="http://www.w3.org/2000/svg"
   xmlns:sodipodi="http://sodipodi.sourceforge.net/DTD/sodipodi-0.dtd"
   xmlns:inkscape="http://www.inkscape.org/namespaces/inkscape"
   width="1447.3789"
   height="1793.6797"
   id="svg2"
   version="1.1"
   inkscape:version="0.91 r13725"
   sodipodi:docname="C303.svg">
  <title
     id="title4133">C303</title>
  <metadata
     id="metadata12">
    <rdf:RDF>
      <cc:Work
         rdf:about="">
        <dc:format>image/svg+xml</dc:format>
        <dc:type
           rdf:resource="http://purl.org/dc/dcmitype/StillImage" />
        <dc:title>C303</dc:title>
        <dc:description>Neith feeding two crocodiles (fix over incorrect previous version, which gave four arms to Neith instead of two crocodiles).</dc:description>
        <dc:creator>
          <cc:Agent>
            <dc:title>S. J. P. Thomas, modified by S. Rosmorduc</dc:title>
          </cc:Agent>
        </dc:creator>
      </cc:Work>
    </rdf:RDF>
  </metadata>
  <defs
     id="defs10" />
  <sodipodi:namedview
     pagecolor="#ffffff"
     bordercolor="#666666"
     borderopacity="1"
     objecttolerance="10"
     gridtolerance="10"
     guidetolerance="10"
     inkscape:pageopacity="0"
     inkscape:pageshadow="2"
     inkscape:window-width="1402"
     inkscape:window-height="875"
     id="namedview8"
     showgrid="false"
     inkscape:zoom="0.35866524"
     inkscape:cx="-172.57797"
     inkscape:cy="611.25988"
     inkscape:window-x="192"
     inkscape:window-y="118"
     inkscape:window-maximized="0"
     inkscape:current-layer="svg2"
     fit-margin-top="0"
     fit-margin-left="0"
     fit-margin-right="0"
     fit-margin-bottom="0" />
  <path
     style="fill:#000000;stroke:none"
     d="M 1017.5801,0 819.20703,358.17774 C 647.77362,254.08867 552.5661,190.72004 533.58594,168.07032 514.6058,145.41396 504.19816,125.20758 502.36133,107.45313 c -1.83676,-17.754462 0.30513,-32.143964 6.42773,-43.169926 6.12266,-11.019321 14.69612,-17.446065 25.7168,-19.279297 3.0057,-0.664215 5.94153,-0.996094 8.81055,-0.996094 7.65072,0 14.81688,1.794101 21.49609,5.380859 9.18397,4.915188 13.77539,11.649994 13.77539,20.205078 0,23.260796 -9.1848,34.89063 -27.55273,34.89063 -12.24524,0 -18.36719,3.05523 -18.36719,9.16602 0,9.79716 5.51051,15.0022 16.53125,15.61328 0.84781,0.0465 1.69971,0.0703 2.55469,0.0703 10.2599,0 21.04051,-3.3922 32.34375,-10.17383 12.2453,-7.34621 18.36914,-24.489144 18.36914,-51.429691 0,-24.489592 -12.24578,-39.490925 -36.73633,-45.003906 -8.16353,-1.859801 -16.02103,-2.789063 -23.57227,-2.789063 -15.10241,0 -28.97944,3.673318 -41.63281,11.019532 -18.98017,11.01932 -28.4707,30.9188 -28.4707,59.699218 0,28.77378 11.63251,58.16149 34.89843,88.16407 23.26604,30.00257 110.81913,89.69984 262.66016,179.08984 l -264.49609,0 c 12.24527,42.85513 17.75578,88.16094 16.53125,135.91797 -4.89812,1.19559 -10.40867,6.09373 -16.53125,14.69531 -4.98885,10.97283 -11.80779,16.45899 -20.45508,16.45899 -1.96528,0 -4.02544,-0.33188 -6.17969,-0.9961 -8.30927,-2.1919 -18.49292,-3.28711 -30.55078,-3.28711 -4.82313,0 -9.94629,0.33188 -15.36914,0.9961 -18.98014,1.26201 -34.59271,8.61177 -46.83789,22.04882 -47.75649,9.79718 -93.06354,17.14185 -135.92188,22.03711 -15.67391,-6.24362 -29.84329,-9.36523 -42.50781,-9.36523 -7.12384,0 -13.77174,0.99759 -19.94336,2.99023 -17.14333,5.51298 -26.32625,26.63417 -27.55078,63.36524 2.44903,42.86177 20.81682,64.29297 55.10352,64.29297 45.30745,4.91518 79.59341,11.64686 102.85937,20.19531 23.26596,8.57501 76.5331,14.69994 159.80078,18.37305 19.59238,9.79716 47.75638,22.04195 84.49219,36.73437 -0.71655,0.66422 -1.42699,1.32798 -2.13086,1.99219 -41.51863,15.88137 -79.37992,32.37304 -113.58594,49.47656 -113.8808,23.26746 -213.67975,52.04529 -299.39648,86.33204 C 97.962332,990.78019 61.838222,1089.9664 38.572266,1197.7285 21.42893,1266.302 10.71549,1311.3029 6.4296875,1332.7305 2.1438415,1354.0651 0,1372.694 0,1388.6152 c 0,13.4703 4.5914289,30.9181 13.775391,52.3457 9.1839,21.4276 15.613537,41.327 19.287109,59.6992 2.449045,6.1108 4.898604,9.7842 7.347656,11.0196 1.049592,0.6642 2.098846,0.9961 3.148438,0.9961 2.62398,0 5.247113,-2.1905 7.871094,-6.5743 3.148775,3.1218 5.735551,4.6817 7.759765,4.6817 2.69895,0 4.397926,-2.7898 5.097656,-8.3692 3.29681,2.3248 6.049825,3.4883 8.259766,3.4883 3.535893,0 5.682002,-3.024 6.435547,-9.0683 1.836846,2.7897 4.017346,4.1855 6.542969,4.1855 l 2.640625,0 c 3.673571,-1.1956 4.898354,-6.0937 3.673828,-14.6953 -8.57173,-25.7184 -15.61272,-46.2297 -21.123047,-61.5332 -5.510391,-15.3101 -7.654214,-38.8828 -6.429688,-70.7188 1.224526,-8.575 3.062674,-12.8632 5.511719,-12.8632 3.673572,0 6.734549,2.4578 9.183594,7.373 1.224526,8.5684 1.530221,19.8933 0.917969,33.9746 -0.612274,14.088 0.918177,25.1111 4.591797,33.0684 2.513486,5.4466 5.887845,8.1699 10.121093,8.1699 1.953814,0 4.089991,-0.5974 6.410159,-1.793 4.89811,-2.4576 5.5095,-10.416 1.83594,-23.873 -3.673583,-13.4703 -3.366066,-32.7579 0.91992,-57.8652 4.25116,-24.8948 -2.64244,-50.0957 -20.679691,-75.6016 23.148841,-63.107 48.716091,-113.5215 76.701171,-151.2422 28.16405,-37.9599 56.93949,-89.3886 86.32813,-154.28904 87.47263,-5.36958 175.52993,-19.73921 262.41992,-44.17773 4.10105,64.17492 -22.43736,113.56907 -20.6211,164.42187 1.0347,28.9704 57.59567,38.6766 80.53125,52.8066 21.06172,48.4291 42.69791,116.4303 61.5586,212.375 -4.89812,11.0194 -11.63342,19.5909 -20.20508,25.7149 -152.03802,32.1579 -290.3382,90.4609 -409.60352,162.83 -45.30739,27.5517 -69.18571,67.0426 -71.63476,118.4727 0,44.0839 19.59258,83.8798 58.77734,119.3887 16.71116,15.1441 46.67461,22.7168 89.88867,22.7168 58.11542,0 140.19676,-13.6976 246.24415,-41.0899 109.26101,-28.2158 197.14265,-42.3222 263.64648,-42.3222 46.04115,0 81.83672,6.7617 107.38476,20.2851 28.57912,15.1308 60.36331,22.6953 95.35352,22.6953 41.46986,0 87.44256,-10.6279 137.91796,-31.8828 15.9188,-7.3462 20.818,-19.2841 14.6953,-35.8164 -5.3322,-14.3935 -17.1683,-21.5898 -35.5058,-21.5898 l -8.5782,0 c -25.4284,6.6686 -47.5225,10.0019 -66.2812,10.0019 -36.34493,0 -60.17123,-12.5197 -71.47853,-37.5605 3.67357,-22.0387 -3.67311,-42.2419 -22.04101,-60.6074 -8.1035,-8.1034 -17.04067,-12.1543 -26.8125,-12.1543 -12.37766,0 -26.094,6.4993 -41.14844,19.498 36.73575,-31.8358 44.08242,-111.4294 22.04101,-238.7793 19.59241,-165.3163 31.83827,-260.2194 36.73633,-284.709 l 29.38867,0 1.83594,-77.14449 -1.83594,-51.42969 c 77.72507,4.16035 174.86227,6.89245 246.12497,10.10157 39.1848,56.33203 71.3289,105.00621 96.4317,146.02141 25.1028,41.0219 47.4506,88.4725 67.0429,142.3536 -20.8169,36.7377 -29.0826,67.6571 -24.7968,92.7578 4.2862,25.1006 4.5911,44.0802 0.916,56.9394 -3.6738,12.8592 -2.4489,21.1257 3.6738,24.7989 1.9335,1.1291 3.7445,1.6953 5.4336,1.6953 3.6599,0 6.7464,-2.7234 9.2598,-8.17 3.6737,-7.9638 5.2042,-18.9869 4.5918,-33.0683 -0.6111,-14.0813 -0.3061,-25.4063 0.916,-33.9746 3.6738,-4.9152 6.7366,-7.3731 9.1855,-7.3731 2.449,0 4.2849,3.6734 5.5098,11.0196 2.4489,31.8424 0.613,55.4152 -5.5098,70.7187 -6.1227,15.3102 -13.4713,36.4314 -22.0429,63.3653 0,7.3527 1.5304,11.6411 4.5918,12.8632 1.0202,0.6642 2.0084,0.9961 2.9609,0.9961 1.905,0 3.6721,-0.8297 5.3047,-2.4902 1.3995,5.5794 3.5987,8.3691 6.5976,8.3691 2.249,0 4.9486,-1.5618 8.0977,-4.6836 1.3995,5.5794 3.5987,8.3692 6.5977,8.3692 2.249,0 4.9486,-1.5599 8.0976,-4.6817 2.0411,5.1145 4.5058,7.6719 7.3965,7.6719 l 1.7871,0 c 3.6738,-2.4576 6.1216,-6.1309 7.3457,-11.0195 3.6738,-18.3722 10.1034,-38.2737 19.2871,-59.7012 9.1839,-21.4276 13.7754,-38.8754 13.7754,-52.3457 0,-17.1434 -2.1435,-36.4299 -6.4297,-57.8574 -4.2855,-21.4342 -11.3266,-64.6016 -21.123,-129.502 -17.137,-111.422 -55.094,-211.82674 -113.8711,-301.21675 -82.0432,-34.28676 -178.7793,-60.61298 -290.211,-78.97851 -13.4698,-15.92123 -35.51187,-26.32935 -66.12496,-31.22461 -7.34719,-22.04528 -21.73492,-53.88461 -43.16406,-95.51758 C 885.02587,635.67758 851.04562,596.49162 804.51367,559.75391 L 1085.541,39.94336 1017.5801,1.375 l 0,-1.375 z m 12.8574,36.714844 0,0.01953 16.5313,9.166016 -270.00786,499.60743 c -24.4904,-15.92123 -52.04308,-29.69773 -82.65625,-41.32813 -30.61308,-11.63039 -77.75632,-18.06026 -141.43164,-19.28906 1.22461,-39.18202 -1.83638,-71.63122 -9.1836,-97.34961 l 292.04883,0 194.69922,-350.826176 z m -437.42188,483.724616 0,0.26953 c 7.09289,0 14.52928,0.33187 22.3086,0.99609 56.32809,50.20798 61.83864,93.06531 16.53125,128.57422 2.44909,19.59433 -5.511,45.31068 -23.87891,77.14649 -7.80633,0.66421 -15.35476,0.99609 -22.64453,0.99609 -31.58894,0 -58.3265,-6.46618 -80.21484,-19.39844 14.69427,-9.79716 18.36666,-16.53197 11.01953,-20.20508 -14.69431,-0.66421 -29.84826,-0.99609 -45.46094,-0.99609 -15.6127,0 -31.68374,0.33188 -48.21484,0.99609 -10.61254,1.06274 -20.83177,1.59375 -30.65821,1.59375 -34.39249,0 -63.96982,-6.66843 -88.73242,-20.00586 l -18.51172,0 c -40.3136,0 -60.4707,-3.74906 -60.4707,-11.24804 27.75637,0.79705 48.30109,1.19531 61.63477,1.19531 l 14.59179,0 4.87305,0 c 8.58867,0 19.51572,1.26114 32.78125,3.78516 15.91882,3.05539 35.20568,5.18136 57.85937,6.37695 l 9.05469,0 c 22.4337,0 54.00727,-3.74906 94.72266,-11.24805 l 4.12891,0 c 5.37376,0 7.06044,2.25678 5.05664,6.77344 -2.44903,5.51298 0.9176,9.1863 10.10156,11.01953 l 4.43359,0 c 6.22854,0 9.3418,-3.52924 9.3418,-10.58984 4.57152,-15.99429 -2.85615,-23.99219 -22.28516,-23.99219 l -4.34765,0 c -22.65374,1.19559 -41.02145,3.02288 -55.10352,5.48047 -2.44902,0.66421 -4.87898,0.99609 -7.29102,0.99609 -11.45701,0 -22.49768,-4.80483 -33.11914,-14.41601 -6.26394,-5.64582 -12.16382,-8.46875 -17.70117,-8.46875 -5.82874,0 -11.25561,3.12162 -16.27929,9.36523 -4.89806,6.11077 -9.33668,9.16602 -13.31641,9.16602 -3.97971,0 -7.49923,-3.05525 -10.56055,-9.16602 -3.49868,-6.99418 -7.59873,-10.49219 -12.29687,-10.49219 -3.52366,0 -7.38369,1.96004 -11.58203,5.87891 -4.59198,4.31739 -8.71303,6.47656 -12.36328,6.47656 -4.13694,0 -7.67026,-2.75655 -10.59766,-8.26953 -3.23027,-6.11077 -6.88136,-9.16601 -10.95313,-9.16601 -2.87419,0 -5.95642,1.52664 -9.25,4.58203 -3.67357,3.38749 -6.89173,5.08203 -9.65234,5.08203 -3.22071,0 -5.81878,-2.29192 -7.79687,-6.875 -3.67359,-8.57501 -7.96128,-14.08499 -12.85938,-16.5293 -0.89057,-0.66421 -1.81043,-0.99609 -2.76172,-0.99609 -4.28079,0 -9.17716,4.50614 -14.6875,13.51953 -6.73491,11.01932 -12.55112,20.20574 -17.44922,27.55859 -5.21076,1.32843 -9.8534,1.99219 -13.92773,1.99219 -15.0751,0 -22.37069,-8.91584 -21.88867,-26.75 0.6124,-22.65636 8.26486,-33.98438 22.95898,-33.98437 14.69429,1.19557 36.12298,3.31961 64.28711,6.375 3.80601,0.66421 7.89279,0.99609 12.25781,0.99609 27.93595,0 67.32009,-8.4719 118.1543,-25.41602 12.2453,-7.34621 24.49109,-11.93942 36.73633,-13.77929 3.3396,-0.66422 6.6342,-0.9961 9.88281,-0.9961 8.66271,0 17.00056,1.7941 25.01562,5.38086 1.3606,1.06274 3.11505,1.59375 5.26172,1.59375 7.51345,0 19.84103,-6.66843 36.98438,-20.00586 18.15179,-14.11456 43.77855,-21.17187 76.8789,-21.17187 z m 64.55469,8.58789 c 41.63382,14.69242 76.53319,29.3857 104.69727,44.07812 37.96028,22.04529 70.10241,51.74106 96.42969,89.08985 26.32728,37.34878 44.38934,71.32658 54.18554,101.93359 -3.6735,-1.19559 -11.02024,-1.79297 -22.04101,-1.79297 l -77.14453,0 0,268.16986 -154.29102,0 0,-157.96673 c -1.22455,-50.20134 -12.2456,-91.21888 -33.0625,-123.05469 23.26598,-35.51555 35.51183,-66.13005 36.73633,-91.8418 37.96025,-44.08392 36.12406,-86.94125 -5.50977,-128.57422 l 0,-0.041 z m -168.98437,36.70508 c -7.34714,0.79706 -15.78256,1.19531 -25.30664,1.19531 l -15.10352,0 c -0.75807,-0.0266 -1.50973,-0.0391 -2.2539,-0.0391 -14.88307,0 -26.98862,5.8274 -36.31836,17.48437 l 7.34765,12.86328 c 0,-13.47027 15.91825,-20.81691 47.75586,-22.03906 l 23.87891,0 0,-9.16602 0,-0.29882 z m -31.44532,13.25 c -5.48594,0 -9.6998,0.49976 -12.63867,1.49609 -4.89812,1.19558 -13.46962,7.93039 -25.71484,20.20508 l 1.83789,5.47851 c 8.015,1.99265 15.39095,2.99024 22.13086,2.99024 5.61667,0 10.79035,-0.69695 15.52148,-2.0918 10.40852,-3.05539 22.34859,-9.48525 35.81836,-19.28906 l -3.67382,-5.48047 c -13.95948,-2.19191 -25.05245,-3.28711 -33.28126,-3.28711 l 0,-0.0215 z m -10.80078,6.95507 3.67383,0 c 0,4.91519 1.8362,9.81334 5.50977,14.69532 l -3.67383,0 c -2.44902,-4.91519 -4.28522,-9.81334 -5.50977,-14.69532 z m 14.69336,0 c 4.89799,2.4576 10.4089,3.6875 16.53125,3.6875 -8.57166,4.91519 -13.46886,7.97043 -14.69336,9.16602 3.67344,-6.11077 3.0597,-10.39592 -1.83789,-12.85352 z m -253.47656,7.37305 c -9.79619,2.45759 -14.08194,7.0508 -12.85742,13.7793 1.22455,6.73514 5.51029,10.10156 12.85742,10.10156 8.57167,0 14.0822,-3.67136 16.53125,-11.01758 4.89811,-7.34621 -0.61242,-11.63448 -16.53125,-12.86328 z m 231.43555,0 c 0,3.65318 1.83619,6.70842 5.50976,9.16602 l -11.01953,-1.79297 -3.67383,0 c 3.67358,-2.4576 6.73457,-4.91546 9.1836,-7.37305 z m -185.51563,16.5293 c 0,14.69907 4.89912,26.94698 14.69532,36.74414 -4.48996,0.66421 -8.64156,0.99609 -12.45118,0.99609 -7.61927,0 -13.87733,-0.8297 -18.77539,-2.49023 2.44903,-12.24148 7.95956,-23.87326 16.53125,-34.89258 l 0,-0.35742 z m 44.08203,14.27734 0,0.40821 c 1.22455,7.34621 6.12366,16.53263 14.69532,27.55859 -8.26553,-2.72328 -15.49812,-4.08594 -21.69727,-4.08594 l -5.85547,0 c 2.44903,-9.79717 6.73478,-17.7568 12.85742,-23.88086 z m 42.2461,4.01563 0,0.0781 c 0,5.97793 1.20149,8.9668 3.60156,8.9668 1.02861,0 2.27665,-0.5642 3.74609,-1.69336 2.44903,6.11077 5.51002,12.23571 9.1836,18.37305 -12.24524,0 -22.04153,-1.22991 -29.38867,-3.6875 2.44902,-9.79717 6.73477,-17.14185 12.85742,-22.03711 z m 45.91992,0.0781 c 3.67351,3.65318 6.73457,10.99982 9.18359,22.03906 -12.24522,0 -20.20338,-1.82728 -23.87695,-5.48046 4.89805,-4.91519 9.79517,-10.42321 14.69336,-16.52735 l 0,-0.0312 z m 211.23047,135.91797 c 22.04142,34.28676 33.0625,68.57458 33.0625,102.86133 l -9.1836,0 c -14.69424,-18.36553 -22.65437,-52.65335 -23.8789,-102.86133 z m 246.13086,38.57813 12.85742,0 c 0,63.67161 9.79626,95.50781 29.38867,95.50781 l 0,161.64257 c -3.67357,18.3655 -12.85843,113.2654 -27.55273,284.6992 l -187.35157,0 c -24.49048,-143.2711 -50.20501,-238.171 -77.14453,-284.6992 0,-106.53338 12.2439,-161.63548 36.73438,-165.30859 l 0,165.30859 213.06836,0 0,-257.15038 z m -270.00782,12.85351 c 4.89814,14.69907 11.63343,31.842 20.20508,51.42969 -20.81691,37.95987 -30.61311,92.45205 -29.38867,163.47658 l -31.22656,0 c 1.22455,-120.00371 14.69511,-191.63884 40.41015,-214.90627 z m 343.47852,97.34961 12.85742,5.48047 0,112.04689 -12.85742,0 0,-117.52736 z m -483.10352,93.76956 c -10.23685,0.5063 -16.38385,10.2243 -20.20117,18.6074 -14.11892,8.224 -25.88083,19.7271 -38.22265,30.2812 -10.76398,-1.8761 -21.16782,4.1532 -27.30274,12.7188 -14.30772,16.0386 -22.40644,36.3391 -29.77148,56.2285 -33.30711,32.7356 -69.84021,61.9527 -104.26953,93.4356 -17.50559,18.2117 -30.10223,40.599 -40.98633,63.2246 -12.66417,26.6045 -19.75093,55.4692 -22.91016,84.6855 -6.80428,46.6704 -17.75062,92.7041 -29.09765,138.4258 -1.89652,10.9853 -6.95414,21.157 -8.61914,32.1504 0.78959,12.5425 13.59861,25.8902 26.79492,21.1855 14.0362,-4.9682 21.97577,-18.848 29.96875,-30.4414 14.79442,-24.9322 22.92036,-53.0288 33.23633,-79.9453 8.58695,-23.7547 14.91527,-48.3291 23.83984,-71.9219 9.05103,-18.5552 24.01983,-34.3725 42.13477,-44.0507 5.49142,4.6112 11.02763,12.0778 18.84179,11.6523 l 91.65039,-76.7441 c -7.50715,-13.3915 -30.98267,-9.3476 -44.72461,9.0097 -4.07551,4.9333 -8.97681,11.1446 -13.6875,15.1465 -3.61145,1.315 -7.79976,2.82 -11.50781,1.0078 2.24763,-7.7575 5.96182,-15.8308 13.81055,-19.2539 15.51888,-10.3862 30.37621,-23.2747 48.58593,-28.4687 4.38784,2.2838 7.08732,7.0416 11.55469,9.4394 3.72111,3.7039 10.07157,6.0598 14.36133,1.834 50.70887,-42.28 82,-73.3906 82,-73.3906 0,0 -2.33316,-14.5438 -13.65625,-14.6934 -12.17775,1.6404 -20.71827,12.1749 -27.75781,21.3321 -4.41162,5.1885 -6.89795,12.4394 -12.03906,16.5703 -4.5644,2.1129 -13.93174,3.4581 -13.43946,-4.0899 -0.93861,-20.4346 5.36924,-40.1236 9.07813,-60.084 2.47642,-7.9019 10.31014,-12.3081 14.83984,-18.9941 13.16655,-15.6004 24.45514,-32.8607 33.2832,-51.2305 7.69612,-4.5038 10.21064,-15.8342 3.97266,-22.5898 -0.87925,-2.4463 -3.88035,-3.8211 -5.41601,-4.7031 1.09798,-9.084 -7.11687,-15.0751 -11.86329,-21.6426 -6.20916,-6.1693 -12.8316,-14.8198 -22.48047,-14.6914 z m 554.99415,31.8515 c -9.64887,-0.1284 -16.27131,8.5221 -22.48047,14.6914 -4.74642,6.5675 -12.96126,12.5586 -11.86328,21.6426 -1.53567,0.882 -4.53677,2.2568 -5.41602,4.7031 -6.23798,6.7556 -3.72346,18.0861 3.97266,22.5899 8.82806,18.3698 20.11665,35.6301 33.2832,51.2305 4.5297,6.686 12.36346,11.0922 14.83984,18.9941 3.7089,19.9604 10.0167,39.6494 9.0781,60.084 0.4923,7.548 -8.875,6.2027 -13.43942,4.0898 -5.14112,-4.1309 -7.62745,-11.3817 -12.03907,-16.5703 -7.03954,-9.1571 -15.58006,-19.6916 -27.75781,-21.332 -11.32309,0.1496 -13.65625,14.6933 -13.65625,14.6933 0,0 31.29113,31.1107 82.00005,73.3907 4.2898,4.2258 10.6402,1.8699 14.3613,-1.834 4.4674,-2.3978 7.1669,-7.1557 11.5547,-9.4395 18.2097,5.194 33.067,18.0826 48.5859,28.4688 7.8487,3.4231 11.563,11.4964 13.8105,19.2539 -3.7081,1.8122 -7.8964,0.3072 -11.5078,-1.0078 -4.7107,-4.0019 -9.612,-10.2132 -13.6875,-15.1465 -13.742,-18.3573 -37.2174,-22.4013 -44.7246,-9.0098 l 91.6504,76.7442 c 7.8141,0.4255 13.3504,-7.0412 18.8418,-11.6524 18.115,9.6782 33.0838,25.4956 42.1348,44.0508 8.9246,23.5928 15.2528,48.1672 23.8398,71.9219 10.3159,26.9165 18.442,55.0131 33.2364,79.9453 7.993,11.5934 15.9325,25.4732 29.9687,30.4414 13.1963,4.7047 26.0053,-8.6431 26.7949,-21.1856 -1.665,-10.9934 -6.7226,-21.165 -8.6191,-32.1503 -11.3471,-45.7217 -22.2935,-91.7554 -29.0977,-138.4258 -3.1593,-29.2163 -10.246,-58.083 -22.9101,-84.6875 -10.8841,-22.6256 -23.4808,-45.011 -40.9864,-63.2227 -34.4293,-31.4829 -70.9624,-60.6999 -104.2695,-93.4355 -7.3651,-19.8894 -15.4638,-40.1899 -29.7715,-56.2285 -6.1349,-8.5656 -16.5387,-14.5949 -27.3027,-12.7188 -12.3418,-10.5541 -24.1038,-22.0572 -38.2227,-30.2812 -3.8173,-8.3831 -9.96428,-18.1012 -20.20113,-18.6075 z m -555.38282,1.5879 c 8.33214,0.238 10.50714,10.5212 11.98047,14.2285 -4.5553,4.8678 -35.19567,31.5468 -35.63281,38.1993 1.37136,9.4343 2.91589,22.0988 -6.17969,28.455 -9.1703,13.0503 -9.63478,29.7152 -12.13086,44.9102 0.30495,3.7907 -0.72826,4.127 -2.96094,1.3789 -10.34332,-9.2451 -25.67816,-17.0463 -39.3789,-10.5742 -7.44882,1.0536 -17.51163,1.5196 -20.51953,9.9648 -3.51957,7.5489 4.31375,17.4753 12.48242,14.625 5.57534,-1.6619 11.58058,-1.0431 16.74023,-4.1816 6.92768,-2.7336 13.55413,3.1339 18.75391,7.0937 7.54622,5.9708 10.46327,17.0743 5.3457,25.5332 -1.57285,2.6891 -2.75277,7.122 -6.5957,5.2618 -18.68437,-1.4283 -33.04983,13.1728 -47.54102,22.5332 -9.46222,5.9851 -20.36795,12.8254 -31.95507,11.1855 -6.67231,-3.4997 -10.91673,-10.3546 -17.88477,-13.5605 -10.17405,-6.4506 -25.73405,-8.1162 -34.0625,2.1836 -5.57414,5.6205 -10.40475,11.9194 -14.98047,18.3632 9.40637,8.1857 25.78328,8.9933 33.67188,-1.664 7.05177,-3.0434 12.39155,5.0243 15.83398,10.0058 5.80366,9.6025 7.41896,22.7742 1.89649,32.6778 -6.20478,-0.5314 -9.51511,-9.0152 -16.46485,-6.6563 -11.43271,3.1478 -17.19825,15.0055 -25.40234,22.5391 -9.33613,11.2393 -21.0299,20.4588 -29.31055,32.5156 -12.18546,19.6844 -14.27644,43.3897 -22.4707,64.7012 -12.52782,38.267 -24.11226,77.4765 -45.60742,111.8281 -0.21779,-1.0895 2.43918,-8.0494 3.33789,-11.5781 11.22055,-36.9428 18.99027,-74.829 26.16601,-112.7246 4.11409,-22.6818 2.29113,-46.7952 12.29297,-68.1055 10.23203,-27.2573 19.34389,-56.5569 40.76367,-77.4356 21.71761,-23.1242 45.52498,-44.2632 69.9375,-64.4589 20.62298,-16.2764 42.08201,-33.2048 55.22657,-56.418 4.4595,-11 4.08933,-24.2823 12.98632,-33.166 0,0 5.50853,-6.8641 9.16407,8.8066 5.84408,-8.3928 20.42968,-25.7012 20.42968,-25.7011 -1.04583,-2.3795 -1.39042,-5.564 -1.75586,-7.8731 5.75331,-4.1262 10.23417,-10.053 16.32618,-13.9492 13.21455,-14.5658 21.79711,-19.1062 27.49804,-18.9434 z m 555.77149,31.8516 c 5.70093,-0.1628 14.28346,4.3776 27.49806,18.9433 6.0921,3.8962 10.5729,9.8231 16.3262,13.9493 -0.3654,2.3091 -0.71,5.4936 -1.7559,7.873 0,0 14.5856,17.3084 20.4297,25.7012 3.6556,-15.6707 9.164,-8.8067 9.164,-8.8067 8.897,8.8837 8.5269,22.1661 12.9864,33.1661 13.1446,23.2132 34.6035,40.1415 55.2265,56.4179 24.4125,20.1957 48.2199,41.3347 69.9375,64.459 21.4198,20.8786 30.5317,50.1783 40.7637,77.4356 10.0019,21.3103 8.1789,45.4236 12.293,68.1054 7.1758,37.8956 14.9455,75.7818 26.166,112.7246 0.8987,3.5287 3.5557,10.4887 3.3379,11.5782 -21.4951,-34.3516 -33.0796,-73.5612 -45.6074,-111.8282 -8.1943,-21.3115 -10.2852,-45.0167 -22.4707,-64.7011 -8.2807,-12.0568 -19.9745,-21.2764 -29.3106,-32.5157 -8.2041,-7.5336 -13.9696,-19.3912 -25.4023,-22.539 -6.9497,-2.3589 -10.2602,6.1248 -16.4649,6.6562 -5.5225,-9.9036 -3.9071,-23.0752 1.8965,-32.6777 3.4425,-4.9815 8.7823,-13.0493 15.834,-10.0059 7.8886,10.6573 24.2655,9.8498 33.6719,1.6641 -4.5757,-6.4438 -9.4063,-12.7428 -14.9805,-18.3633 -8.3284,-10.2998 -23.8884,-8.6342 -34.0625,-2.1836 -6.968,3.2059 -11.2125,10.0609 -17.8848,13.5606 -11.5871,1.6399 -22.4927,-5.2005 -31.955,-11.1856 -14.4911,-9.3604 -28.8567,-23.9615 -47.5411,-22.5332 -3.8429,1.8602 -5.0229,-2.5726 -6.5957,-5.2617 -5.1176,-8.4589 -2.2005,-19.5624 5.3457,-25.5332 5.1998,-3.9598 11.8262,-9.8274 18.7539,-7.0938 5.1596,3.1385 11.165,2.5198 16.7403,4.1817 8.1687,2.8503 16.002,-7.0761 12.4824,-14.625 -3.0079,-8.4452 -13.0707,-8.9113 -20.5195,-9.9649 -13.7007,-6.4721 -29.0356,1.3292 -39.3789,10.5743 -2.2327,2.7481 -3.266,2.4118 -2.961,-1.3789 -2.4961,-15.195 -2.9605,-31.8599 -12.1308,-44.9102 -9.0956,-6.3562 -7.551,-19.0208 -6.1797,-28.4551 -0.4371,-6.6525 -31.07753,-33.3314 -35.63283,-38.1992 1.47333,-3.7074 3.64834,-13.9905 11.98047,-14.2285 z m -131.05664,312.998 c 15.91887,105.3112 -7.04035,172.9631 -68.87891,202.959 -37.40844,18.153 -80.97932,27.2305 -130.71094,27.2305 -32.47782,0 -67.58286,-3.8725 -105.3164,-11.6172 -18.86668,-3.8525 -37.73292,-5.7793 -56.59961,-5.7793 -76.64624,0 -153.29325,31.9358 -229.93946,95.8066 L 205.7207,1590.709 c 104.08461,-75.9198 258.98688,-143.8836 464.70703,-203.8887 l 187.35157,-1.793 0,-0.059 z"
     id="path4"
     inkscape:connector-curvature="0" />
</svg>
