<?xml version="1.0" encoding="UTF-8" standalone="no"?>
<svg
   xmlns:dc="http://purl.org/dc/elements/1.1/"
   xmlns:cc="http://web.resource.org/cc/"
   xmlns:rdf="http://www.w3.org/1999/02/22-rdf-syntax-ns#"
   xmlns:svg="http://www.w3.org/2000/svg"
   xmlns="http://www.w3.org/2000/svg"
   xmlns:sodipodi="http://sodipodi.sourceforge.net/DTD/sodipodi-0.dtd"
   xmlns:inkscape="http://www.inkscape.org/namespaces/inkscape"
   width="1800"
   height="1800"
   id="svg2"
   sodipodi:version="0.32"
   inkscape:version="0.45.1"
   sodipodi:docname="C35A.svg"
   sodipodi:docbase="/Users/rosmord/Travail/Gsigns/SThomasDetail/ManuelDeCodage/C"
   inkscape:output_extension="org.inkscape.output.svg.inkscape"
   version="1.0">
  <metadata
     id="metadata9">
    <rdf:RDF>
      <cc:Work
         rdf:about="">
        <dc:format>image/svg+xml</dc:format>
        <dc:type
           rdf:resource="http://purl.org/dc/dcmitype/StillImage" />
      </cc:Work>
    </rdf:RDF>
  </metadata>
  <defs
     id="defs7" />
  <sodipodi:namedview
     inkscape:window-height="581"
     inkscape:window-width="701"
     inkscape:pageshadow="2"
     inkscape:pageopacity="0.0"
     guidetolerance="10.0"
     gridtolerance="10.0"
     objecttolerance="10.0"
     borderopacity="1.0"
     bordercolor="#666666"
     pagecolor="#ffffff"
     id="base"
     width="1800px"
     height="1800px"
     inkscape:zoom="0.21"
     inkscape:cx="900"
     inkscape:cy="1952.4581"
     inkscape:window-x="0"
     inkscape:window-y="22"
     inkscape:current-layer="svg2" />
  <path
     style="fill:#000000;stroke:none"
     d="M 747.20384,321.45155 L 748.91364,321.45155 C 773.99147,312.33234 801.91899,315.18209 832.69629,330.00079 C 808.75844,352.79878 779.12106,364.19777 743.78416,364.19777 L 736.94479,330.00079 C 675.39025,350.51899 641.76321,365.90763 636.06366,376.1667 C 649.74244,378.44649 668.55078,377.3066 692.48869,372.74702 C 676.53012,390.98543 646.89274,396.68493 603.57656,389.84551 L 596.73719,408.6538 C 596.73719,416.63308 603.57658,422.61756 617.25536,426.60723 C 630.93415,430.5969 653.16217,424.61242 683.93944,408.6538 C 669.12074,430.31187 656.01192,442.28082 644.61298,444.56066 C 711.86697,444.56066 768.86191,457.66951 815.5978,483.8872 C 842.95542,505.54527 862.3337,539.74223 873.73271,586.47807 L 887.41144,586.47807 L 887.41144,453.10991 C 885.13166,437.15129 879.43219,428.60204 870.31295,427.46217 C 828.13672,447.98032 779.12103,448.55025 723.26599,429.17197 C 731.24527,390.41542 762.02254,368.75735 815.5978,364.19777 C 841.81552,363.05786 854.92434,360.77804 854.92434,357.35833 L 851.50466,318.03187 L 863.47351,304.35306 C 863.47351,297.51364 852.64448,292.38411 830.98641,288.96445 C 796.78951,288.96445 768.86196,299.79348 747.20384,321.45155 z M 755.75309,345.3894 L 779.69102,345.3894 C 789.95007,345.3894 795.64962,342.53965 796.78951,336.84016 L 776.27126,330.00079 C 766.01219,330.00079 759.17279,335.13033 755.75309,345.3894 z M 747.20384,420.62273 C 797.35942,428.60207 837.82578,422.33263 868.60307,401.81444 L 890.83113,408.6538 C 899.95036,391.55531 896.5306,378.44649 880.572,369.32734 C 871.45285,377.30662 852.35952,381.58122 823.29211,382.15113 C 794.22469,382.72109 768.86196,395.54496 747.20384,420.62273 z M 836.11597,1761.1441 L 836.11597,1446.532 L 1060.1061,1446.532 L 1060.1061,1239.6402 L 603.57656,1239.6402 L 603.57656,1761.1441 L 836.11597,1761.1441 z M 878.8622,1489.2781 L 878.8622,1761.1441 L 1063.5259,1761.1441 L 1063.5259,1489.2781 L 878.8622,1489.2781 z M 1155.8577,771.1417 C 1155.8577,665.1311 1147.8784,596.73717 1131.9198,565.95989 C 1104.5623,535.18262 1062.3859,522.64374 1005.391,528.34323 L 1005.391,601.86668 C 1012.2304,568.80961 1029.3288,548.57643 1056.6865,541.1671 C 1084.044,533.75777 1104.5623,538.88731 1118.2411,556.55571 C 1131.9199,574.22416 1136.4794,599.01698 1131.9198,630.93417 L 1090.8834,786.53038 C 1107.9819,769.43189 1129.64,764.30233 1155.8577,771.1417 z M 177.82426,1740.6259 L 153.88641,1166.1168 L 234.24922,1078.9145 L 234.24922,1056.6865 L 41.036345,1056.6865 L 41.036345,1078.9145 L 124.81891,1166.1168 L 100.88106,1767.9834 L 177.82426,1740.6259 z M 46.165907,815.5978 C 63.264397,834.97608 64.119312,862.33362 48.730649,897.67049 C 33.34204,933.00736 47.875762,975.75367 92.331815,1025.9092 L 184.66363,1025.9092 C 229.11973,975.75367 243.36847,933.00736 227.40985,897.67049 C 211.45128,862.33362 213.16114,834.97608 232.53942,815.5978 L 46.165907,815.5978 z M 892.54101,330.00079 C 922.17833,348.23916 930.72758,381.29621 918.18866,429.17197 L 918.18866,651.45227 L 978.03338,608.70612 L 978.03338,497.56593 C 1058.9663,494.14628 1111.9716,505.54527 1137.0494,531.76291 C 1125.6503,457.66946 1090.8834,403.23929 1032.7485,368.4724 C 974.6137,333.70545 927.87788,320.88159 892.54101,330.00079 z M 918.18866,771.1417 L 979.74326,771.1417 L 979.74326,728.39547 L 918.18866,766.01213 L 918.18866,771.1417 z M 796.78951,523.21367 L 781.40082,754.04328 C 807.61846,731.2453 828.70662,714.14681 844.66522,702.74781 L 844.66522,564.25001 C 830.98641,543.73187 815.02789,530.05309 796.78951,523.21367 z M 808.75836,829.27661 C 832.69629,891.97102 853.78445,968.91423 872.02283,1060.1061 C 743.2142,1070.3652 646.03777,1081.4793 580.49356,1093.4482 C 514.9494,1105.4171 471.34827,1121.3757 449.69015,1141.3239 C 428.03208,1161.2722 408.08387,1302.9046 389.84551,1566.2212 C 389.84551,1640.3147 368.18742,1686.4807 324.87123,1704.7191 C 296.37375,1733.2166 250.20784,1754.8747 186.37351,1769.6933 L 425.75229,1769.6933 C 441.71086,1769.6933 449.69015,1762.854 449.69015,1749.1752 L 425.75229,1680.7811 C 425.75229,1652.2838 432.02175,1618.6568 444.56066,1579.9001 C 479.89751,1473.8895 497.56593,1383.8374 497.56593,1309.744 L 495.85605,1234.5106 C 507.2551,1200.3137 528.91319,1183.2153 560.83033,1183.2153 L 919.89854,1183.2153 C 992.85208,1183.2153 1028.7589,1165.5468 1027.619,1130.2099 L 1027.619,991.71219 C 1027.619,948.39605 1032.7485,893.6809 1043.0077,827.56673 L 1085.7539,656.58183 L 1012.2304,709.58718 L 1012.2304,803.6288 L 885.70156,803.6288 L 885.70156,784.8205 L 808.75836,829.27661 z M 887.41144,671.97052 L 887.41144,612.1258 L 875.44252,612.1258 L 875.44252,680.51976 L 887.41144,671.97052 z M 829.27661,39.326543 C 820.15738,25.647761 809.32834,17.66845 796.78951,15.38861 C 784.2506,13.108821 773.42154,13.393801 764.30233,16.24355 C 755.18312,19.093298 750.62352,23.367921 750.62352,29.067417 C 757.46294,34.766914 768.29198,37.616662 783.11062,37.616662 C 797.92933,37.616662 813.31801,38.186623 829.27661,39.326543 z M 827.56673,246.21822 C 868.60315,237.09902 868.03317,234.81921 825.85685,239.37878 C 798.49931,239.37878 784.8205,230.82954 784.8205,213.73105 C 784.8205,196.63256 793.08479,173.54962 809.6133,144.48223 C 826.14188,115.41478 835.54607,92.331815 837.82585,75.233325 C 837.82585,60.414623 828.13672,53.575232 808.75836,54.715152 C 793.93974,54.715152 782.25576,66.114146 773.70652,88.912132 C 765.15727,111.71012 760.88265,140.2076 760.88265,174.40458 C 760.88265,208.60156 766.29717,229.11973 777.1262,235.9591 C 787.95523,242.79852 804.76877,246.21822 827.56673,246.21822 z M 526.63335,189.79319 C 539.17227,231.96945 559.12051,248.49799 586.47807,239.37878 C 613.83563,230.25963 638.62845,233.96432 660.85653,250.49285 C 683.08456,267.02137 714.14681,264.45659 754.04328,242.79846 C 744.92408,212.02119 740.93444,183.52374 742.07436,157.30609 C 744.35409,104.8707 754.04321,70.673722 771.1417,54.715152 C 771.1417,49.015656 767.15208,46.165907 759.17285,46.165907 C 752.33338,46.165907 745.77894,44.456053 739.50954,41.036345 C 733.24008,37.616636 730.10535,33.626994 730.10535,29.067417 C 740.36442,9.6891391 759.7427,0 788.24019,0 C 806.47857,1.1399203 820.15738,5.4145428 829.27661,12.823868 C 838.39576,20.233192 844.66522,29.067417 848.0849,39.326543 C 858.34395,51.865404 861.76363,64.974225 858.34395,78.653007 C 858.34395,91.191921 845.80503,118.26453 820.72729,159.87083 C 795.64954,201.47714 797.92933,222.28029 827.56673,222.28029 C 857.20413,222.28029 872.02283,198.34241 872.02283,150.46665 C 872.02283,100.3111 888.55134,75.233325 921.60842,75.233325 C 950.10593,75.233325 964.35465,97.461354 964.35465,141.9174 C 964.35465,186.37351 965.7795,213.44612 968.62927,223.13523 C 971.47897,232.82439 977.17844,239.66379 985.72776,243.6534 C 994.27701,247.64307 999.69152,251.34776 1001.9713,254.76747 C 1004.2511,258.18718 996.27176,259.89703 978.03338,259.89703 C 944.97629,259.89703 928.73274,234.2493 929.30273,182.95383 C 929.87272,131.65836 927.30789,106.01062 921.60842,106.01062 C 912.48919,106.01062 907.92962,132.79825 907.92962,186.37351 C 907.92962,216.01086 899.95036,235.9591 883.99176,246.21822 C 945.54628,263.31672 987.72252,265.02657 1010.5205,251.34779 C 1033.3185,237.66896 1060.9611,235.9591 1093.4482,246.21822 C 1125.9353,256.4773 1142.1788,237.66896 1142.1788,189.79319 L 1143.8887,189.79319 C 1162.1271,189.79319 1172.3862,202.90204 1174.666,229.11973 C 1174.666,276.9955 1147.8784,306.06292 1094.3031,316.32199 C 1058.9663,294.66392 1031.6087,296.94373 1012.2304,323.16143 C 1062.3859,336.84021 1104.5622,375.31179 1138.7592,438.57616 C 1172.9561,501.84058 1191.7645,625.80461 1195.1842,810.46824 C 1130.2099,800.20919 1092.0233,813.60297 1080.6244,850.64972 C 1069.2254,887.69648 1063.5259,936.99711 1063.5259,998.55163 L 1063.5259,1022.4895 C 1072.6451,997.41173 1092.3083,985.15778 1122.5156,985.72776 C 1152.723,986.29775 1168.9665,1001.4014 1171.2463,1031.0387 L 1171.2463,1178.0857 L 1131.9198,1178.0857 L 1131.9198,1054.9766 C 1131.9198,1037.8781 1127.9301,1029.3288 1119.9509,1029.3288 C 1111.9716,1029.3288 1107.4119,1037.8781 1106.2721,1054.9766 L 1106.2721,1803.8903 L 552.28109,1803.8903 L 552.28109,1225.9615 C 540.88209,1225.9615 534.0427,1238.5003 531.76291,1263.5781 L 533.47279,1323.4229 C 533.47279,1383.8374 511.8147,1481.8688 468.49852,1617.5168 L 461.65915,1660.263 L 483.8872,1769.6933 C 483.8872,1792.4913 464.5089,1803.8903 425.75229,1803.8903 L 59.844715,1803.8903 L 83.78257,1191.7645 L 0,1078.9145 L 0,1025.9092 L 54.715152,1025.9092 C 17.098464,975.75367 6.8393646,933.00736 23.937855,897.67049 C 41.036345,862.33362 35.906808,834.97608 8.549245,815.5978 L 20.518172,784.8205 L 258.18715,784.8205 L 270.15608,815.5978 C 242.79852,834.97608 237.66898,862.33362 254.76747,897.67049 C 271.86596,933.00736 261.0369,975.75367 222.28029,1025.9092 L 276.99544,1025.9092 L 276.99544,1078.9145 L 194.92275,1191.7645 L 217.15081,1732.0767 C 263.88665,1710.4186 299.79346,1688.1905 324.87123,1665.3926 C 348.80914,1649.434 360.77809,1579.3301 360.77809,1455.0811 C 366.47759,1362.7493 373.31698,1290.3658 381.29626,1237.9304 L 377.87658,1195.1842 C 377.87658,1141.6089 404.09425,1105.7021 456.52959,1087.4637 C 498.70585,1069.2253 555.70079,1054.9766 627.51441,1044.7175 C 699.32808,1034.4584 765.44223,1027.619 825.85685,1024.1994 C 808.75844,956.9453 791.65995,897.10058 774.56146,844.66522 L 721.55611,841.24554 C 656.58185,835.54607 590.46771,823.00715 523.21367,803.6288 L 523.21367,800.20919 L 502.6955,822.43717 C 471.91822,853.21446 426.32225,870.88286 365.90758,875.44252 C 345.38938,883.42178 333.42045,887.41144 330.00079,887.41144 L 328.29091,887.41144 C 313.47227,872.59274 310.62252,854.35436 319.74167,832.69629 C 379.01642,832.69629 421.76265,821.86726 447.98034,800.20919 L 444.56066,791.65995 C 416.06318,793.93974 394.40509,799.0693 379.58638,807.04856 C 373.88689,808.18845 369.61227,807.04848 366.76252,803.6288 C 363.91277,800.20911 364.76771,796.78943 369.32734,793.36975 C 416.06318,769.43189 440.57099,758.60286 442.85078,760.88265 C 458.80935,747.20386 500.41569,742.64426 567.66977,747.20384 C 628.0844,750.62355 687.92909,755.18316 747.20384,760.88265 L 755.75309,605.28644 C 677.10006,616.68543 600.15687,624.66472 524.92355,629.22429 C 474.76795,667.9809 421.76262,705.59759 365.90758,742.07436 C 310.05253,778.55113 271.86594,795.64962 251.34779,793.36975 C 250.20787,796.78943 223.42024,799.63921 170.9849,801.91899 C 165.28541,800.7791 163.00559,797.9294 164.14546,793.36975 C 165.28537,788.81017 168.13513,785.96042 172.6947,784.8205 C 189.79319,784.8205 211.45128,777.98112 237.66898,764.30233 L 235.9591,755.75309 C 201.76212,750.05359 159.58586,762.02254 109.4303,791.65995 C 90.052027,777.98112 83.212638,761.45258 88.912132,742.07436 L 88.912132,740.36448 C 92.331838,738.08469 104.87073,735.23494 126.52879,731.81523 C 181.24397,705.59753 229.6897,698.18818 271.86596,709.58718 L 299.2235,719.8463 L 299.2235,716.42654 C 348.23918,666.27099 393.83515,624.66469 436.01142,591.60763 C 456.52957,567.66972 486.16694,553.42098 524.92355,548.8614 C 606.99629,529.48313 669.69073,520.36395 713.00686,521.50387 C 734.66493,508.96495 759.17277,500.98564 786.53038,497.56593 C 740.93441,475.90787 700.468,466.21873 665.13115,468.49852 C 656.0119,484.45714 644.04294,492.43645 629.22429,492.43645 C 612.1258,492.43645 603.57656,482.17735 603.57656,461.65915 L 576.21902,396.68487 C 576.21902,376.16668 630.93417,345.3894 740.36448,304.35306 L 748.91364,294.09393 C 705.59751,313.47227 673.68034,316.607 653.16215,303.49812 C 632.644,290.3893 601.86673,288.96443 560.83033,299.2235 C 534.61269,294.66392 515.23441,272.43589 502.6955,232.53942 C 504.97528,206.32172 512.95457,192.07298 526.63335,189.79319 z M 789.95007,22.228053 C 788.81017,19.948265 785.9604,18.23841 781.40082,17.09849 C 776.84125,15.95857 772.28165,15.95857 767.72201,17.09849 C 763.16244,18.23841 760.31272,20.233244 759.17285,23.082993 C 758.03293,25.932742 760.31269,27.927549 766.01213,29.067417 C 771.71168,30.207337 777.1262,30.492318 782.25568,29.922358 C 787.38525,29.352397 789.95007,26.787629 789.95007,22.228053 z "
     id="path4" />
</svg>
