<?xml version="1.0" encoding="UTF-8" standalone="no"?>
<svg
   xmlns:dc="http://purl.org/dc/elements/1.1/"
   xmlns:cc="http://web.resource.org/cc/"
   xmlns:rdf="http://www.w3.org/1999/02/22-rdf-syntax-ns#"
   xmlns:svg="http://www.w3.org/2000/svg"
   xmlns="http://www.w3.org/2000/svg"
   xmlns:sodipodi="http://sodipodi.sourceforge.net/DTD/sodipodi-0.dtd"
   xmlns:inkscape="http://www.inkscape.org/namespaces/inkscape"
   width="13.218422"
   height="18.719999"
   id="svg2585"
   sodipodi:version="0.32"
   inkscape:version="0.44"
   sodipodi:docname="C37.svg"
   sodipodi:docbase="C:\Program Files\JSesh\fontsST">
  <metadata
     id="metadata2592">
    <rdf:RDF>
      <cc:Work
         rdf:about="">
        <dc:format>image/svg+xml</dc:format>
        <dc:type
           rdf:resource="http://purl.org/dc/dcmitype/StillImage" />
      </cc:Work>
    </rdf:RDF>
  </metadata>
  <defs
     id="defs2590" />
  <sodipodi:namedview
     inkscape:window-height="480"
     inkscape:window-width="640"
     inkscape:pageshadow="2"
     inkscape:pageopacity="0.0"
     guidetolerance="10.0"
     gridtolerance="10.0"
     objecttolerance="10.0"
     borderopacity="1.0"
     bordercolor="#666666"
     pagecolor="#ffffff"
     id="base" />
  <path
     style="fill:#000000; stroke:none"
     d="M 5.535445,0.251584 C 5.4967397,0.48381467 5.5354447,0.66443867 5.65156,0.793456 C 5.767676,0.92247333 5.9353983,0.986982 6.154727,0.986982 L 6.580484,0.986982 C 6.580484,0.93537533 6.361155,0.89021933 5.922497,0.851514 C 5.6902657,0.73539867 5.57415,0.625734 5.57415,0.52252 L 5.57415,0.503167 L 5.612855,0.503167 C 5.716069,0.709595 5.9224967,0.812809 6.232138,0.812809 C 6.4772707,0.812809 6.6643457,0.89667 6.793363,1.064392 C 6.973987,1.167606 7.115906,1.219213 7.21912,1.219213 C 7.3610387,1.219213 7.5674663,1.1772823 7.838403,1.093421 C 8.109339,1.0095597 8.3544717,1.0321377 8.573801,1.161155 L 8.689917,1.12245 C 8.6125063,0.99343267 8.48994,0.928924 8.322218,0.928924 L 7.644877,1.006335 C 7.541663,1.006335 7.354588,0.95150267 7.083652,0.841838 C 6.812716,0.73217333 6.535329,0.64508667 6.251491,0.580578 C 5.967653,0.64508667 5.7870287,0.61283233 5.709618,0.483815 C 5.632208,0.35479767 5.587052,0.27738733 5.57415,0.251584 L 5.535445,0.251584 z M 12.986191,0.270936 C 12.986191,0.42575667 12.924908,0.570901 12.802341,0.706369 C 12.679775,0.84183767 12.45077,0.92892433 12.115325,0.967629 L 12.115325,0.986982 C 12.489475,0.986982 12.731382,0.90634633 12.841046,0.745075 C 12.950711,0.583803 13.005544,0.42575667 13.005544,0.270936 L 12.986191,0.270936 z M 12.908781,0.270936 C 12.818469,0.554774 12.673325,0.69991833 12.473348,0.706369 C 12.273371,0.71282033 12.083071,0.693468 11.902446,0.648312 C 11.721822,0.603156 11.496042,0.65153733 11.225105,0.793456 C 10.95417,0.93537533 10.625176,1.006335 10.238124,1.006335 C 9.9800893,1.006335 9.709153,1.1547047 9.425315,1.451444 L 9.444668,1.451444 C 9.6898,1.2321147 9.9413833,1.12245 10.199418,1.12245 C 10.496158,1.12245 10.728389,1.1385773 10.896111,1.170832 C 11.063834,1.203086 11.263811,1.1611553 11.496042,1.04504 C 11.728273,0.928924 12.021787,0.84506267 12.376585,0.793456 C 12.731382,0.74184933 12.908781,0.567676 12.908781,0.270936 L 12.908781,0.270936 z M 8.418981,1.393386 L 8.418981,1.393386 L 8.631859,1.393386 C 8.6705643,1.393386 8.683466,1.4127387 8.670564,1.451444 C 8.6576627,1.464346 8.5350963,1.4836987 8.302865,1.509502 C 8.1609463,1.5224033 8.03838,1.5933627 7.935166,1.72238 C 7.922264,1.72238 7.899686,1.72238 7.867432,1.72238 C 7.8351773,1.72238 7.825501,1.7030273 7.838403,1.664322 C 7.941617,1.5224033 8.083536,1.444993 8.26416,1.432091 L 8.186749,1.432091 C 8.019027,1.432091 7.8771083,1.5030507 7.760993,1.64497 C 7.567467,1.6836753 7.2900797,1.844947 6.928831,2.128785 C 6.8901257,2.1416863 6.8578713,2.1674897 6.832068,2.206195 L 7.006241,2.206195 C 7.032045,2.206195 7.0417213,2.2255477 7.03527,2.264253 C 7.0288193,2.3029577 7.0126923,2.32231 6.986889,2.32231 L 6.812716,2.32231 C 6.7740107,2.32231 6.754658,2.3416627 6.754658,2.380368 C 6.754658,2.4190733 6.7675597,2.4513277 6.793363,2.477131 L 7.122357,2.32231 C 7.1610623,2.3094087 7.173964,2.3287613 7.161062,2.380368 L 6.870773,2.554542 L 6.870773,2.573894 L 7.915813,2.573894 C 8.3286683,2.5609927 8.535096,2.6642067 8.535096,2.883536 C 8.535096,3.1802753 8.625408,3.4060553 8.806032,3.560876 L 8.806032,2.902888 C 8.806032,2.7609693 8.9415003,2.6125997 9.212437,2.457779 C 9.3156503,2.457779 9.3930607,2.3223107 9.444668,2.051374 C 9.251142,2.051374 9.0834197,2.0836283 8.941501,2.148137 C 8.735073,2.2255477 8.5673503,2.264253 8.438333,2.264253 C 8.1415937,2.264253 7.993224,2.212646 7.993224,2.109432 L 7.993224,2.09008 C 7.993224,1.986866 8.1802987,1.883652 8.554448,1.780438 C 8.773778,1.6256173 9.0382633,1.541756 9.347904,1.528854 L 9.289846,1.451444 C 9.3285513,1.3998373 9.4317653,1.293398 9.599488,1.132126 C 9.7672107,0.97085467 10.070401,0.890219 10.50906,0.890219 L 10.50906,0.870866 C 10.263927,0.76765267 10.06395,0.716046 9.90913,0.716046 C 9.6898,0.716046 9.4382163,0.82571067 9.154379,1.04504 C 8.9221477,1.212762 8.7286217,1.303074 8.573801,1.315976 C 8.5092923,1.3675827 8.4576857,1.393386 8.418981,1.393386 z M 7.509409,0.851514 L 7.509409,0.851514 C 7.6255243,0.87731733 7.8964607,0.87086633 8.322218,0.832161 C 8.5286453,0.80635767 8.6963677,0.87731733 8.825385,1.04504 L 8.999558,0.967629 C 8.8318353,0.82571033 8.6060553,0.754751 8.322218,0.754751 C 8.1544953,0.754751 7.883559,0.78700533 7.509409,0.851514 z M 8.283512,1.548207 C 8.3480207,1.548207 8.393177,1.5740103 8.418981,1.625617 L 8.418981,1.664322 C 8.418981,1.7417327 8.3415703,1.7933397 8.186749,1.819143 L 8.148045,1.819143 C 8.0706343,1.819143 8.031929,1.7933397 8.031929,1.741733 C 8.031929,1.638519 8.11579,1.5740103 8.283512,1.548207 z M 9.425315,1.664322 L 9.425315,1.935259 L 9.46402,1.935259 L 9.46402,1.586912 C 9.4382167,1.586912 9.425315,1.6127153 9.425315,1.664322 z M 9.328552,1.664322 L 9.328552,1.935259 L 9.347904,1.935259 L 9.347904,1.664322 L 9.328552,1.664322 z M 8.148045,2.09008 L 8.148045,2.128785 C 8.212553,2.1416863 8.296414,2.148137 8.399628,2.148137 C 8.606056,2.148137 8.8769923,2.0836283 9.212437,1.954611 L 9.212437,1.954611 L 9.212437,1.819143 L 9.231789,1.664322 C 8.9995583,1.664322 8.78668,1.7352817 8.593154,1.877201 C 8.2964147,1.980415 8.148045,2.0513747 8.148045,2.09008 z M 7.81905,5.147789 L 8.225454,5.147789 L 8.225454,3.793107 C 8.3028647,3.5608763 8.3738243,3.4254083 8.438333,3.386703 C 8.3738243,3.2576857 8.3351193,3.0899633 8.322218,2.883536 C 8.025478,3.0254547 7.8577553,3.3028417 7.81905,3.715697 L 7.81905,5.147789 z M 10.315534,9.386005 L 8.728621,9.289242 C 6.883675,9.4311613 5.4322313,9.727901 4.37429,10.179461 C 4.6968327,10.269773 5.0935607,10.366536 5.564474,10.46975 C 6.0353867,10.572964 6.3289007,10.863253 6.445016,11.340616 L 9.405962,10.818096 C 10.076852,10.779391 10.380043,10.302027 10.315534,9.386005 z M 8.051281,5.360667 L 7.625525,5.360667 L 7.606172,5.670308 L 8.051281,5.360667 z M 11.476689,5.360667 C 11.270262,5.9670477 11.096088,6.6089083 10.954169,7.286249 C 10.81225,7.9635897 10.760644,8.5215893 10.799349,8.960248 L 10.799349,9.386005 C 10.747742,10.598768 10.386493,11.185796 9.715604,11.147091 L 6.6966,11.882489 C 6.4385653,12.11472 6.3805077,12.346951 6.522427,12.579182 C 6.8707737,13.017841 6.986889,14.185447 6.870773,16.082001 C 6.896577,16.649676 7.083652,17.236705 7.431998,17.843086 C 7.264276,18.217235 6.9772127,18.40431 6.570808,18.40431 C 6.164404,18.40431 5.8096067,18.462368 5.506416,18.578484 C 5.2032253,18.694599 4.8839077,18.739756 4.548463,18.713953 C 3.993689,18.675248 3.7292037,18.623641 3.755007,18.559132 C 3.7937123,18.17208 3.9969147,17.972103 4.364614,17.959202 C 4.7323127,17.946299 5.0387283,17.885016 5.283861,17.775352 C 5.5289937,17.665687 5.6870397,17.507641 5.757999,17.301214 C 5.828959,17.094785 5.8515373,16.804496 5.825734,16.430347 C 5.735422,15.527226 5.5515723,14.5854 5.274185,13.604869 C 4.9967977,12.624338 4.8516533,12.105043 4.838752,12.046986 C 4.82585,11.988928 4.864555,11.792177 4.954867,11.456732 C 4.787145,11.817981 4.7839197,12.195356 4.945191,12.588859 C 5.106463,12.982361 4.806498,14.037077 4.045296,15.753006 C 3.838868,16.281977 3.7679083,16.89481 3.832417,17.591503 C 3.5227757,17.862438 3.1679783,17.91082 2.768025,17.736647 C 2.3680717,17.562474 2.0229503,17.539896 1.732661,17.668913 C 1.4423723,17.79793 1.1230547,17.862438 0.774708,17.862438 C 0.219934,17.849537 -0.038100333,17.810832 0.000605,17.746323 C 0.000605,17.359271 0.18445467,17.149618 0.552154,17.117363 C 0.91985267,17.08511 1.3069043,16.998023 1.713309,16.856104 C 2.119713,16.714185 2.3938747,16.562589 2.535794,16.401318 C 2.6777127,16.240046 2.8196317,15.985237 2.961551,15.63689 C 3.1808803,14.849885 3.3227993,14.02095 3.387308,13.150084 C 3.4518167,12.279217 3.5034233,11.534142 3.542128,10.91486 C 3.5808333,10.295577 3.8259663,9.895623 4.277527,9.714999 C 4.819399,9.508571 5.4161037,9.3472993 6.067641,9.231184 C 6.7191783,9.1150687 7.4836057,8.9860513 8.360923,8.844132 C 8.3351197,7.7216827 8.2641603,6.9282267 8.148045,6.463764 L 7.29653,7.044342 L 6.793363,6.831463 L 6.464369,7.412041 C 5.5741503,7.8506997 4.7097347,8.166792 3.871122,8.360318 C 3.7163013,8.476434 3.5163247,8.5925497 3.271192,8.708665 C 3.167978,8.7731737 3.0389607,8.8183293 2.88414,8.844132 C 2.7809267,8.8828373 2.6196553,8.8763867 2.400326,8.82478 C 2.1809967,8.7731733 1.9810197,8.7602717 1.800395,8.786075 C 1.7358863,8.7731737 1.693956,8.7505957 1.674604,8.718341 C 1.6552513,8.6860863 1.6649273,8.6441557 1.703632,8.592549 C 1.6649273,8.579647 1.645575,8.5602947 1.645575,8.534492 C 1.645575,8.4957867 1.6584767,8.469983 1.68428,8.457081 C 1.6584767,8.4312777 1.645575,8.4022487 1.645575,8.369994 C 1.645575,8.3377393 1.6584767,8.3151613 1.68428,8.30226 C 1.6455747,8.30226 1.6294473,8.2732313 1.635898,8.215174 C 1.6423493,8.157116 1.6778293,8.128087 1.742338,8.128087 C 2.0003727,8.1667923 2.2035747,8.202272 2.351944,8.234526 C 2.500314,8.26678 2.716418,8.244202 3.000256,8.166792 C 3.0647647,8.1409887 3.0937937,8.115185 3.087343,8.089381 C 3.0808917,8.0635777 3.0583133,8.050676 3.019608,8.050676 C 2.942198,8.063578 2.8260827,8.1022833 2.671262,8.166792 C 2.568048,8.1925953 2.477736,8.1958207 2.400326,8.176468 C 2.3229153,8.1571153 2.290661,8.1087337 2.303563,8.031323 C 2.303563,7.966815 2.3809733,7.941012 2.535794,7.953914 C 2.6519093,7.9152087 2.80673,7.8474743 3.000256,7.750711 C 3.193782,7.6539483 3.5098743,7.6700757 3.948533,7.799093 C 4.8129483,7.308827 5.380624,7.0120873 5.65156,6.908874 L 5.961202,6.347649 C 5.6257573,6.063811 5.2838613,5.7477187 4.935514,5.399372 C 4.7419887,5.399372 4.5162087,5.3800193 4.258174,5.341314 C 4.1291567,5.328412 3.9936887,5.289707 3.85177,5.225199 C 3.748556,5.1864937 3.622764,5.0832797 3.474394,4.915557 C 3.326024,4.747835 3.167978,4.6252687 3.000256,4.547858 C 2.9615507,4.5091527 2.942198,4.4704477 2.942198,4.431743 C 2.942198,4.3930377 2.9744523,4.3607833 3.038961,4.33498 C 3.0131577,4.2962747 3.0099323,4.2640203 3.029285,4.238217 C 3.0486377,4.2124137 3.0712157,4.199512 3.097019,4.199512 C 3.097019,4.173708 3.1034697,4.1479043 3.116371,4.122101 C 3.129273,4.0962977 3.1550767,4.083396 3.193782,4.083396 C 3.1679787,4.0575927 3.171204,4.022113 3.203458,3.976957 C 3.235712,3.931801 3.2776427,3.9285753 3.32925,3.96728 C 3.522776,4.160806 3.6711457,4.3124013 3.774359,4.422066 C 3.877573,4.5317307 4.071099,4.6317193 4.354937,4.722032 C 4.4194457,4.7478347 4.458151,4.7478347 4.471053,4.722032 C 4.4839543,4.696228 4.4646017,4.6704243 4.412995,4.644621 C 4.3484863,4.6188177 4.2388217,4.5865633 4.084001,4.547858 C 3.993689,4.5091527 3.919504,4.4575457 3.861446,4.393037 C 3.803388,4.328529 3.8001627,4.2704713 3.85177,4.218864 C 3.8904747,4.1672573 3.967885,4.193061 4.084001,4.296275 C 4.2001163,4.3349797 4.3646133,4.3704593 4.577492,4.402714 C 4.7903707,4.434968 4.987122,4.5994647 5.167746,4.896204 L 6.348254,5.592898 L 6.986889,4.122101 C 7.090103,3.8898703 7.270727,3.7544023 7.528761,3.715697 C 7.5803683,3.238333 7.7545417,2.9222407 8.051281,2.76742 C 7.9996743,2.754518 7.735189,2.760969 7.257825,2.786773 L 7.335236,2.999651 L 6.735305,2.999651 L 6.793363,2.728715 C 6.7288543,2.6900097 6.6966,2.6384027 6.6966,2.573894 C 6.606288,2.5093853 6.561132,2.4513277 6.561132,2.399721 C 6.5482307,2.3481137 6.5675833,2.3029577 6.61919,2.264253 C 6.61919,2.1352357 6.7224037,2.025571 6.928831,1.935259 C 7.1739637,1.7030277 7.4126457,1.5611087 7.644877,1.509502 C 7.7738943,1.303074 8.0125763,1.2256637 8.360923,1.277271 L 8.438333,1.277271 C 8.348021,1.264369 8.2448073,1.257918 8.128692,1.257918 C 8.012576,1.257918 7.8674313,1.286947 7.693258,1.345005 C 7.5190847,1.4030623 7.3610387,1.4256403 7.21912,1.412739 C 7.0642993,1.412739 6.8707733,1.3353287 6.638542,1.180508 L 6.17408,1.180508 C 5.8773407,1.180508 5.677364,1.1095483 5.57415,0.967629 C 5.470936,0.82571033 5.419329,0.65153733 5.419329,0.44511 C 5.419329,0.238682 5.4515833,0.090312 5.516092,0 C 5.606404,0 5.6870397,0.080635667 5.757999,0.241907 C 5.828959,0.403179 6.0192597,0.477364 6.328901,0.464462 C 6.6385423,0.45156067 6.9739873,0.50961833 7.335236,0.638635 C 7.8513047,0.561225 8.1802987,0.52252 8.322218,0.52252 C 8.6447607,0.52252 8.9156967,0.60638133 9.135026,0.774104 C 9.3930607,0.580578 9.6252917,0.483815 9.831719,0.483815 C 10.025245,0.483815 10.225222,0.52252 10.431649,0.59993 C 10.66388,0.703144 10.915464,0.680566 11.1864,0.532196 C 11.457337,0.383826 11.705695,0.33867 11.931475,0.396728 C 12.157255,0.454786 12.337879,0.483815 12.473348,0.483815 C 12.608816,0.483815 12.715255,0.380601 12.792665,0.174173 C 12.818468,0.058057667 12.889428,0 13.005544,0 C 13.147463,0 13.218422,0.058057667 13.218422,0.174173 C 13.218422,0.40640433 13.134561,0.63218467 12.966839,0.851514 C 12.82492,1.032138 12.541082,1.12245 12.115325,1.12245 C 11.85729,1.12245 11.676666,1.1643807 11.573452,1.248242 C 11.470239,1.3321033 11.244458,1.3546813 10.896111,1.315976 C 11.321868,1.7546347 11.63151,2.212646 11.825036,2.69001 C 12.018562,3.1673733 12.115325,3.689893 12.115325,4.257569 L 12.115325,5.360667 L 11.476689,5.360667 z M 11.244458,5.070378 L 11.244458,4.276922 C 11.154146,4.070494 10.976747,3.9350257 10.712262,3.870517 C 10.447777,3.806009 10.205869,3.8834193 9.98654,4.102748 C 10.502609,3.8060087 10.815476,3.9059973 10.92514,4.402714 C 11.034805,4.8994307 10.818702,5.1671413 10.276829,5.205846 C 9.528529,5.5412907 8.9285987,5.8702847 8.477038,6.192828 C 8.56735,6.4379607 8.657662,7.315278 8.747974,8.82478 L 10.315534,8.90219 C 10.380043,8.244202 10.483256,7.5894397 10.625175,6.937903 C 10.767094,6.2863657 10.973522,5.6638573 11.244458,5.070378 z M 9.54143,4.354332 C 9.6962513,3.8511647 10.0575,3.5963557 10.625175,3.589905 C 11.192851,3.5834543 11.476689,3.81246 11.476689,4.276922 L 11.476689,5.070378 L 11.844388,5.070378 L 11.844388,4.257569 C 11.844388,3.5608763 11.654088,2.9028883 11.273487,2.283605 C 10.892886,1.6643223 10.541314,1.3482303 10.218771,1.335329 C 10.012344,1.335329 9.8446213,1.4320917 9.715604,1.625617 L 9.715604,1.973964 C 9.715604,2.154588 9.6446447,2.335212 9.502726,2.515836 C 9.4124133,2.5932467 9.2962977,2.7158133 9.154379,2.883536 L 9.154379,4.586563 L 9.54143,4.354332 z M 8.806032,4.838147 L 8.806032,3.947928 C 8.741524,3.844714 8.6705647,3.7608527 8.593154,3.696344 C 8.5544487,3.7350493 8.535096,3.8124597 8.535096,3.928575 L 8.535096,5.031673 L 8.806032,4.838147 z "
     id="path2587"
     sodipodi:nodetypes="csccccccscssccccscscccsccscccssssccsssscccccssssscccsccsccsccccccsccccsscccccsccssscccsccsccccccscccccccccccccsccccccccccccccccsccccccccscccccccssssssscsscsccssscssscssssccccccsssssssssssssssssssssccccssssssssssssssssssssscccccccccsssccccsssccssssscscssssssssssscscccccscsccccsccsccccssccscccccsccc" />
</svg>
