<?xml version="1.0" encoding="UTF-8" standalone="no"?>
<svg
   xmlns:dc="http://purl.org/dc/elements/1.1/"
   xmlns:cc="http://web.resource.org/cc/"
   xmlns:rdf="http://www.w3.org/1999/02/22-rdf-syntax-ns#"
   xmlns:svg="http://www.w3.org/2000/svg"
   xmlns="http://www.w3.org/2000/svg"
   xmlns:sodipodi="http://sodipodi.sourceforge.net/DTD/sodipodi-0.dtd"
   xmlns:inkscape="http://www.inkscape.org/namespaces/inkscape"
   width="11.405935"
   height="18.48"
   id="svg2626"
   sodipodi:version="0.32"
   inkscape:version="0.44"
   sodipodi:docname="C38.svg"
   sodipodi:docbase="C:\Program Files\JSesh\fontsST">
  <metadata
     id="metadata2633">
    <rdf:RDF>
      <cc:Work
         rdf:about="">
        <dc:format>image/svg+xml</dc:format>
        <dc:type
           rdf:resource="http://purl.org/dc/dcmitype/StillImage" />
      </cc:Work>
    </rdf:RDF>
  </metadata>
  <defs
     id="defs2631" />
  <sodipodi:namedview
     inkscape:window-height="480"
     inkscape:window-width="640"
     inkscape:pageshadow="2"
     inkscape:pageopacity="0.0"
     guidetolerance="10.0"
     gridtolerance="10.0"
     objecttolerance="10.0"
     borderopacity="1.0"
     bordercolor="#666666"
     pagecolor="#ffffff"
     id="base" />
  <path
     style="fill:#000000; stroke:none"
     d="M 8.286194,5.027355 C 8.7763447,4.8418923 9.114151,4.4908387 9.299613,3.974194 C 9.0081723,3.8284733 8.670366,3.7489893 8.286194,3.735742 L 8.286194,5.027355 z M 6.35871,5.484387 L 6.338839,5.444645 L 9.001549,5.444645 L 8.961806,5.484387 L 6.35871,5.484387 z M 6.398452,5.563871 L 6.458065,5.74271 L 8.902194,5.74271 L 8.961806,5.563871 L 6.398452,5.563871 z M 6.517677,5.822194 L 6.497807,5.782452 L 8.882322,5.782452 L 8.862452,5.822194 L 6.517677,5.822194 z M 6.577291,5.96129 C 6.6170323,6.239484 6.6501503,6.570667 6.676645,6.954839 C 6.7031397,7.339011 6.6898923,7.703312 6.636903,8.047742 L 8.663742,6.954839 C 8.7167313,6.4646883 8.7630967,6.1335053 8.802838,5.96129 L 6.577291,5.96129 z M 6.875355,8.107355 C 6.9283443,8.2000857 6.9217207,8.3193117 6.855484,8.465033 L 8.743226,7.769548 L 8.703484,7.153548 L 6.875355,8.107355 z M 6.577291,8.564387 C 6.723011,8.5113977 6.795871,8.4252903 6.795871,8.306065 C 6.795871,8.186839 6.7428817,8.147097 6.636903,8.186839 L 6.577291,8.564387 z M 5.901678,12.558452 L 5.881806,12.657806 L 8.981677,12.657806 L 8.961806,12.558452 L 5.901678,12.558452 z M 2.126194,6.001032 L 1.728774,5.802322 C 1.6625373,5.921548 1.609548,6.0540213 1.569806,6.199742 L 1.987097,6.338839 C 2.106323,6.100387 2.1526887,5.9877847 2.126194,6.001032 z M 6.776,8.683613 C 7.0541933,10.034839 7.6105803,11.28671 8.445161,12.439226 L 8.961806,12.439226 L 8.941936,9.081032 C 8.941936,8.816086 8.9220647,8.5776347 8.882322,8.365678 C 8.8425807,8.1537207 8.7895917,8.027871 8.723355,7.988129 L 6.776,8.683613 z M 5.941419,12.439226 L 8.166967,12.439226 C 7.3588817,11.246968 6.835613,10.048086 6.597161,8.842581 L 5.941419,12.439226 z M 9.975225,9.557936 L 9.577806,9.557936 L 9.63742,9.955355 L 9.935484,9.955355 L 9.975225,9.557936 z M 4.11329,0.178839 C 4.0735487,0.41729033 4.1099787,0.60275267 4.22258,0.735226 C 4.3351827,0.86769867 4.4974623,0.933935 4.709419,0.933935 L 5.126709,0.933935 C 5.126709,0.88094633 4.9147523,0.834581 4.490839,0.794839 C 4.252387,0.675613 4.133161,0.56301067 4.133161,0.457032 L 4.153032,0.437161 L 4.172903,0.437161 C 4.2788817,0.64911833 4.484215,0.755097 4.788903,0.755097 C 5.014107,0.755097 5.1929457,0.84120433 5.325419,1.013419 C 5.4976343,1.1193977 5.6367313,1.172387 5.74271,1.172387 C 5.8619353,1.172387 6.0540213,1.132645 6.318968,1.053161 C 6.583914,0.973677 6.8223657,0.993548 7.034323,1.112774 L 7.153548,1.073032 C 7.0740647,0.95380667 6.9482153,0.894194 6.776,0.894194 L 6.140129,0.953806 C 6.0341503,0.953806 5.852,0.897505 5.593678,0.784903 C 5.3353547,0.672301 5.0670963,0.616 4.788903,0.616 C 4.523957,0.616 4.355054,0.54976333 4.282194,0.41729 C 4.2093333,0.28481733 4.1662793,0.20533367 4.153032,0.178839 L 4.11329,0.178839 z M 11.28671,0.19871 C 11.273463,0.37092467 11.210538,0.52658033 11.097936,0.665677 C 10.985333,0.80477433 10.763441,0.88757033 10.432258,0.914065 L 10.432258,0.933935 C 10.789935,0.933935 11.021763,0.85445133 11.127742,0.695484 C 11.233721,0.536516 11.28671,0.37092467 11.28671,0.19871 L 11.28671,0.19871 z M 11.187355,0.19871 C 11.107871,0.49015067 10.972086,0.63918267 10.78,0.645806 C 10.587914,0.65243 10.405763,0.63255933 10.233548,0.586194 C 10.061333,0.539828 9.846064,0.58950533 9.587742,0.735226 C 9.3294193,0.880946 9.008172,0.953806 8.624,0.953806 C 8.385548,0.953806 8.1272253,1.112774 7.849032,1.43071 L 7.868903,1.43071 C 8.107355,1.192258 8.3524303,1.073032 8.604129,1.073032 C 8.882323,1.073032 9.1009037,1.0895913 9.259871,1.12271 C 9.4188383,1.155828 9.6109243,1.116086 9.836129,1.003484 C 10.061334,0.890882 10.346151,0.80808633 10.69058,0.755097 C 11.035011,0.70210767 11.207226,0.51664533 11.207226,0.19871 L 11.187355,0.19871 z M 6.895226,1.351226 L 6.895226,1.371097 L 7.093935,1.351226 C 7.1204297,1.3644733 7.133677,1.3843443 7.133677,1.410839 C 7.1204297,1.4373337 7.001204,1.4572047 6.776,1.470452 C 6.6435273,1.4836993 6.530925,1.5565593 6.438193,1.689032 C 6.411699,1.7022793 6.3818927,1.7055913 6.348774,1.698968 C 6.315656,1.692344 6.3057207,1.6757847 6.318968,1.64929 C 6.4116993,1.4903227 6.550796,1.4042153 6.736258,1.390968 L 6.656774,1.390968 C 6.5110533,1.390968 6.3785803,1.463828 6.259355,1.609548 C 6.060645,1.64929 5.7956987,1.8148817 5.464516,2.106323 C 5.4115267,2.1328177 5.3717847,2.165936 5.34529,2.205678 L 5.524129,2.205678 C 5.5506237,2.205678 5.5605593,2.2255487 5.553936,2.26529 C 5.547312,2.305032 5.5307527,2.324903 5.504258,2.324903 L 5.34529,2.324903 C 5.305548,2.324903 5.285677,2.3381503 5.285677,2.364645 C 5.285677,2.404387 5.2989243,2.444129 5.325419,2.483871 L 5.623484,2.305032 C 5.663226,2.2917847 5.6764733,2.3116557 5.663226,2.364645 L 5.385032,2.543484 L 5.385032,2.563355 L 6.398452,2.563355 C 6.6501507,2.563355 6.835613,2.636215 6.954839,2.781935 C 6.9813337,3.1528603 7.04757,3.3648173 7.153548,3.417806 L 7.272774,3.576774 L 7.272774,2.901161 C 7.272774,2.755441 7.3986233,2.6097207 7.650322,2.464 C 7.7430533,2.464 7.8159137,2.3249033 7.868903,2.04671 L 7.868903,2.026839 C 7.683441,2.026839 7.5244733,2.066581 7.392,2.146065 C 7.19329,2.212301 7.0276987,2.245419 6.895226,2.245419 C 6.617032,2.245419 6.477935,2.19243 6.477935,2.086452 L 6.477935,2.086452 C 6.477935,1.967226 6.6501503,1.8546237 6.994581,1.748645 C 7.219785,1.5896777 7.4781073,1.510194 7.769548,1.510194 L 7.709936,1.43071 C 7.7496773,1.3644733 7.852344,1.2485593 8.017936,1.082968 C 8.1835267,0.91737667 8.4782793,0.834581 8.902194,0.834581 L 8.902194,0.834581 C 8.6637427,0.72860233 8.465033,0.675613 8.306065,0.675613 C 8.107355,0.675613 7.8755267,0.788215 7.61058,1.013419 C 7.385376,1.172387 7.1932903,1.2584947 7.034323,1.271742 C 6.9680863,1.3247313 6.9217207,1.351226 6.895226,1.351226 z M 6.020903,0.794839 L 6.020903,0.81471 C 6.1268817,0.82795733 6.3785807,0.81471 6.776,0.774968 C 6.97471,0.76172067 7.1403013,0.84120433 7.272774,1.013419 L 7.431742,0.933935 C 7.2860213,0.77496767 7.0674407,0.695484 6.776,0.695484 C 6.6302793,0.695484 6.3785803,0.72860233 6.020903,0.794839 z M 8.087483,3.477419 C 9.4652037,3.6628817 10.154064,4.0934193 10.154064,4.769032 L 10.154064,5.206193 L 10.392516,5.206193 L 10.392516,4.312 C 10.405763,3.4774193 10.197118,2.7587527 9.766581,2.156 C 9.336043,1.5532473 8.948559,1.251871 8.604129,1.251871 C 8.4186663,1.251871 8.2199567,1.331355 8.008,1.490323 L 8.008,1.947355 C 8.008,2.1328177 7.9351397,2.31828 7.789419,2.503742 C 7.5774623,2.5964733 7.471484,2.7223227 7.471484,2.88129 L 7.471484,5.206193 L 8.087483,5.206193 L 8.087483,3.477419 z M 6.756129,1.530064 C 6.8223657,1.530064 6.8687313,1.549935 6.895226,1.589677 L 6.895226,1.629419 C 6.895226,1.708903 6.815742,1.768516 6.656774,1.808258 L 6.617032,1.808258 C 6.5507953,1.808258 6.517677,1.7817633 6.517677,1.728774 C 6.517677,1.6227953 6.597161,1.5565587 6.756129,1.530064 z M 7.849032,1.629419 L 7.849032,1.907613 L 7.888774,1.907613 L 7.888774,1.549935 C 7.8622793,1.5631823 7.849032,1.589677 7.849032,1.629419 z M 7.749677,1.64929 L 7.749677,1.907613 L 7.769548,1.907613 L 7.769548,1.629419 L 7.749677,1.64929 z M 6.617032,2.066581 L 6.617032,2.106323 C 6.6832687,2.1328177 6.7693763,2.146065 6.875355,2.146065 C 7.060817,2.146065 7.3191393,2.0732047 7.650322,1.927484 L 7.650322,1.927484 L 7.650322,1.808258 L 7.670194,1.64929 C 7.4449893,1.64929 7.2396557,1.7155267 7.054193,1.848 C 6.7627523,1.9539787 6.617032,2.026839 6.617032,2.066581 z M 6.299097,5.206193 L 6.776,5.206193 L 6.776,3.815226 C 6.8024947,3.5900213 6.8422367,3.4509243 6.895226,3.397935 C 6.8422367,3.2654623 6.8024947,3.0932473 6.776,2.88129 C 6.4978067,3.0270107 6.338839,3.3184517 6.299097,3.755613 L 6.299097,5.206193 z M 0.635871,5.702968 C 0.516645,5.702968 0.457032,5.6367313 0.457032,5.504258 C 0.457032,5.3585373 0.63587067,5.285677 0.993548,5.285677 L 0.993548,1.867871 C 0.953806,1.6161723 0.900817,1.5201293 0.834581,1.579742 C 0.76834433,1.6393547 0.66898933,1.7618923 0.536516,1.947355 C 0.41729,2.411011 0.23845133,2.5964733 0,2.503742 C 0.25169867,1.9473547 0.41397833,1.5664943 0.486839,1.361161 C 0.559699,1.1558277 0.692172,0.957118 0.884258,0.765032 C 1.076344,0.572946 1.2386237,0.31793533 1.371097,0 C 1.5300643,0.13247333 1.5433117,0.30468833 1.410839,0.516645 C 1.2783657,0.72860233 1.1657633,0.927312 1.073032,1.112774 C 1.2187527,1.351226 1.291613,1.602925 1.291613,1.867871 L 1.291613,5.325419 L 1.390968,5.365161 L 1.788387,5.702968 C 2.0135917,5.8354413 2.4375057,5.9977207 3.060129,6.189806 C 3.682753,6.381892 4.1132907,6.5441717 4.351742,6.676645 L 5.34529,4.470968 C 5.5175053,4.0338067 5.775828,3.795355 6.120258,3.755613 L 6.120258,5.245935 L 8.286194,5.245935 L 8.286194,5.444645 L 7.272774,5.444645 L 7.272774,3.854968 C 7.2065373,3.735742 7.140301,3.6430107 7.074065,3.576774 C 7.0210757,3.616516 6.994581,3.7026237 6.994581,3.835097 L 6.994581,5.444645 L 6.120258,5.444645 L 6.120258,3.755613 C 6.1732473,3.252215 6.3653333,2.9276557 6.696516,2.781935 C 6.6435267,2.7289463 6.332215,2.715699 5.762581,2.742193 L 5.822194,2.960774 L 5.265807,2.960774 L 5.325419,2.682581 C 5.2856777,2.682581 5.265807,2.642839 5.265807,2.563355 C 5.173075,2.5103657 5.126709,2.4573763 5.126709,2.404387 C 5.126709,2.3513977 5.1465803,2.2984083 5.186323,2.245419 C 5.186323,2.1129463 5.2724303,2.0135917 5.444645,1.947355 C 5.6830963,1.708903 5.9149243,1.5631827 6.140129,1.510194 C 6.259355,1.2982367 6.491183,1.212129 6.835613,1.251871 L 6.895226,1.232 C 6.815742,1.192258 6.7230107,1.172387 6.617032,1.172387 C 6.497806,1.172387 6.3520857,1.1988817 6.179871,1.251871 C 6.0076557,1.3048603 5.8553117,1.331355 5.722839,1.331355 C 5.5771183,1.331355 5.3982797,1.251871 5.186323,1.092903 L 4.72929,1.092903 C 4.4378493,1.092903 4.235828,1.016731 4.123226,0.864387 C 4.010624,0.712043 3.954323,0.556387 3.954323,0.397419 C 3.954323,0.172215 4.0006887,0.046365667 4.09342,0.019871 C 4.1861507,0.019871 4.2656343,0.10266667 4.331871,0.268258 C 4.3981077,0.43384933 4.5802583,0.51002133 4.878323,0.496774 C 5.176387,0.48352667 5.497634,0.54976333 5.842064,0.695484 C 6.3322153,0.60275267 6.6435273,0.556387 6.776,0.556387 C 7.0939353,0.556387 7.352258,0.64911833 7.550968,0.834581 C 7.815914,0.62262367 8.0477417,0.516645 8.246451,0.516645 C 8.4319137,0.516645 8.624,0.556387 8.82271,0.635871 C 9.047914,0.74184967 9.2896773,0.718667 9.548,0.566323 C 9.8063227,0.41397833 10.041462,0.36761267 10.253419,0.427226 C 10.465376,0.48683867 10.637591,0.516645 10.770064,0.516645 C 10.902537,0.516645 11.008516,0.41066667 11.088,0.19871 C 11.127742,0.079484 11.193979,0.019871 11.28671,0.019871 C 11.366193,0.019871 11.405935,0.079484 11.405935,0.19871 C 11.405935,0.384172 11.326451,0.58950533 11.167484,0.81471 C 11.035011,0.97367733 10.763441,1.053161 10.352775,1.053161 C 10.101075,1.053161 9.9288597,1.092903 9.836129,1.172387 C 9.7433977,1.251871 9.5579353,1.291613 9.279742,1.291613 C 9.5976773,1.6095483 9.8990537,2.016903 10.183871,2.513677 C 10.468688,3.0104517 10.611096,3.6098927 10.611096,4.312 L 10.611096,5.424774 L 10.173936,5.424774 C 10.20043,5.88843 10.173935,6.484559 10.094452,7.213161 C 10.160689,7.6635697 10.140818,8.5975053 10.034839,10.014968 C 10.114322,10.293161 10.173935,10.50843 10.213677,10.660774 C 10.25342,10.813118 10.273291,10.955527 10.273291,11.088 C 10.286538,11.180731 10.263355,11.309893 10.203742,11.475484 C 10.144129,11.641075 10.101075,11.796731 10.07458,11.942451 C 10.07458,11.982194 10.061333,12.008688 10.034839,12.021935 C 10.008344,12.035182 9.9818497,12.015311 9.955355,11.962322 C 9.9023657,12.028559 9.8626237,12.028559 9.836129,11.962322 C 9.796387,12.002064 9.7698923,11.982193 9.756645,11.90271 C 9.730151,11.942451 9.7069683,11.955698 9.687097,11.942451 C 9.6672257,11.929204 9.65729,11.896086 9.65729,11.843097 C 9.6970327,11.644388 9.7367747,11.48542 9.776516,11.366194 C 9.816258,11.246968 9.8228817,11.074753 9.796387,10.849548 C 9.7831397,10.783312 9.7698923,10.750194 9.756645,10.750194 C 9.730151,10.750194 9.71028,10.770065 9.697032,10.809807 C 9.6837847,10.876044 9.680473,10.962151 9.687097,11.068129 C 9.6937203,11.174108 9.6870967,11.256903 9.667226,11.316516 C 9.6473553,11.376129 9.6109253,11.392688 9.557936,11.366194 C 9.5181933,11.339699 9.5082577,11.276774 9.528129,11.17742 C 9.5480003,11.078065 9.5380647,10.935656 9.498322,10.750194 C 9.45858,10.564731 9.4850747,10.359398 9.577806,10.134193 C 9.4055913,9.0876557 9.3724733,8.1669677 9.478452,7.372129 C 9.359226,7.0409463 9.319484,6.3852043 9.359226,5.404903 L 9.220129,5.404903 C 8.9684303,5.9745377 8.8293333,6.5044303 8.802838,6.994581 C 8.8690753,6.9680863 8.9055057,7.0243873 8.912129,7.163484 C 8.918753,7.3025807 8.9154413,7.5178493 8.902194,7.80929 C 9.0611613,8.1802153 9.1340213,8.571011 9.120774,8.981677 C 9.160516,9.8559997 9.2135053,11.140989 9.279742,12.836645 L 9.100904,12.836645 C 9.1538927,13.287054 9.27643,13.674538 9.468516,13.999097 C 9.660602,14.323656 9.7301503,15.161548 9.677161,16.512774 C 9.6241717,16.843957 9.6307953,17.148645 9.697032,17.426838 C 10.014968,18.15544 9.8758713,18.450193 9.279742,18.311096 C 8.6836133,18.171999 8.226581,18.188559 7.908645,18.360775 L 6.656774,18.360775 C 6.656774,18.069334 6.7395697,17.923613 6.905161,17.923613 C 7.0707523,17.923613 7.3390107,17.883871 7.709936,17.804388 C 8.4385373,17.486452 8.8227093,17.095656 8.862452,16.632 C 8.8359573,16.141849 8.6372473,15.221161 8.266322,13.869935 C 8.08086,13.69772 7.9748817,13.42615 7.948387,13.055225 C 7.8424083,12.988989 7.7827953,12.916129 7.769548,12.836645 L 6.954839,12.836645 C 6.7296343,13.379785 6.656774,13.856688 6.736258,14.267355 C 6.815742,14.678022 6.5243013,15.52585 5.861936,16.810839 C 5.6897207,17.208258 5.6367313,17.671914 5.702968,18.201807 C 5.4512687,18.413763 5.156516,18.456816 4.81871,18.330967 C 4.4809033,18.205118 4.1894623,18.19187 3.944387,18.291225 C 3.6993117,18.39058 3.4376773,18.440258 3.159484,18.440258 C 2.695828,18.440258 2.4772473,18.413764 2.503742,18.360775 C 2.503742,18.069334 2.656086,17.910366 2.960774,17.883871 C 3.265462,17.857377 3.5833977,17.787829 3.914581,17.675226 C 4.2457637,17.562624 4.470968,17.443398 4.590194,17.317549 C 4.7094193,17.1917 4.828645,16.996302 4.947871,16.731356 C 5.1863223,16.082237 5.3585373,15.429806 5.464516,14.774064 C 5.5704947,14.118323 5.6102367,13.701033 5.583742,13.522194 C 5.5572473,13.343355 5.6301073,13.114839 5.802322,12.836645 L 5.583742,12.836645 L 6.199742,9.875871 C 6.3719573,8.9883017 6.4680003,8.3623663 6.487871,7.998065 C 6.5077417,7.6337637 6.517677,7.3257637 6.517677,7.074065 C 6.517677,6.570667 6.385204,5.9612903 6.120258,5.245935 L 6.080516,5.166451 C 5.6698493,6.1864943 5.3452903,6.8422363 5.106839,7.133677 C 4.868387,7.4251183 4.6696773,7.570839 4.51071,7.570839 C 3.5701507,7.2661503 2.8912257,6.9912683 2.473935,6.746193 C 2.056645,6.5011183 1.6625377,6.378581 1.291613,6.378581 L 1.291613,17.089033 C 1.516817,17.155269 1.629419,17.347355 1.629419,17.665291 C 1.629419,17.784517 1.5896773,17.963356 1.510194,18.201807 C 1.4572047,18.387269 1.3578497,18.48 1.212129,18.48 C 1.3048603,18.056087 1.351226,17.784517 1.351226,17.665291 C 1.351226,17.440086 1.2849893,17.327484 1.152516,17.327484 C 1.0067953,17.327484 0.92731167,17.440086 0.914065,17.665291 C 0.914065,17.784517 0.967054,18.056087 1.073032,18.48 C 0.91406467,18.48 0.80808633,18.387269 0.755097,18.201807 C 0.675613,17.963356 0.64249467,17.784517 0.655742,17.665291 C 0.655742,17.347355 0.768344,17.155269 0.993548,17.089033 L 0.993548,6.378581 C 0.75509667,6.378581 0.635871,6.1533767 0.635871,5.702968 z "
     id="path2628"
     sodipodi:nodetypes="ccccccccccccccccccccsccccccccccsccccccccccccccccsccccccccccccsccccccscssccccssscccsccscccssssccsssscccccssssscccsccsccscccccccccccccsscccccsccssscccsccsccccccssccccccccccccscccccccccccccscccccccccsccccsccsccsscscccccsccccccccscccccccccsssccccsssccssssscscssssssssssscscccccssssssssssssssssssscccccsccccsccsccsccccccsccssssssscsscccssccscsccsscssscssccc" />
</svg>
