<?xml version="1.0" encoding="UTF-8" standalone="no"?>
<svg
   xmlns:dc="http://purl.org/dc/elements/1.1/"
   xmlns:cc="http://web.resource.org/cc/"
   xmlns:rdf="http://www.w3.org/1999/02/22-rdf-syntax-ns#"
   xmlns:svg="http://www.w3.org/2000/svg"
   xmlns="http://www.w3.org/2000/svg"
   xmlns:sodipodi="http://sodipodi.sourceforge.net/DTD/sodipodi-0.dtd"
   xmlns:inkscape="http://www.inkscape.org/namespaces/inkscape"
   width="12.41676"
   height="17.972734"
   id="svg2013"
   sodipodi:version="0.32"
   inkscape:version="0.44"
   sodipodi:docname="C4B.svg"
   sodipodi:docbase="C:\Program Files\JSesh\fontsST">
  <metadata
     id="metadata2020">
    <rdf:RDF>
      <cc:Work
         rdf:about="">
        <dc:format>image/svg+xml</dc:format>
        <dc:type
           rdf:resource="http://purl.org/dc/dcmitype/StillImage" />
      </cc:Work>
    </rdf:RDF>
  </metadata>
  <defs
     id="defs2018" />
  <sodipodi:namedview
     inkscape:window-height="480"
     inkscape:window-width="640"
     inkscape:pageshadow="2"
     inkscape:pageopacity="0.0"
     guidetolerance="10.0"
     gridtolerance="10.0"
     objecttolerance="10.0"
     borderopacity="1.0"
     bordercolor="#666666"
     pagecolor="#ffffff"
     id="base" />
  <path
     style="fill:#000000; stroke:none"
     d="M 2.146626,11.469719 C 2.3149893,11.231205 2.5605187,11.097918 2.883214,11.069858 C 2.4623067,10.677011 2.0659523,10.568277 1.694151,10.743654 C 1.3223497,10.919032 1.304812,10.999706 1.641538,10.985676 C 1.9782633,10.971646 2.146626,11.132994 2.146626,11.469719 z M 3.198894,3.219939 C 3.1427733,3.5145743 3.1883717,3.7460733 3.335689,3.914436 C 3.4830063,4.0827993 3.6899523,4.166981 3.956527,4.166981 L 4.461616,4.166981 C 4.461616,4.0968297 4.1950413,4.0407087 3.661892,3.998618 C 3.3812873,3.8442853 3.240985,3.6969677 3.240985,3.556665 L 3.26203,3.53562 L 3.283076,3.53562 C 3.409348,3.8162247 3.6618923,3.956527 4.040709,3.956527 C 4.3353437,3.956527 4.5598273,4.0617537 4.71416,4.272207 C 4.938644,4.4125097 5.114022,4.482661 5.240294,4.482661 C 5.3946267,4.482661 5.6366483,4.42654 5.966359,4.314298 C 6.2960697,4.202056 6.594212,4.2301163 6.860786,4.398479 L 7.008104,4.335343 C 6.909892,4.181011 6.7555593,4.103845 6.545106,4.103845 L 5.724337,4.188026 C 5.612095,4.188026 5.3946263,4.1178747 5.071931,3.977572 C 4.7492357,3.83727 4.41251,3.767119 4.061754,3.767119 C 3.725028,3.767119 3.5075593,3.6829377 3.409348,3.514575 C 3.311136,3.3462117 3.26203,3.2479997 3.26203,3.219939 L 3.198894,3.219939 z M 12.164216,3.240985 C 12.150185,3.4514383 12.073019,3.644354 11.932717,3.819732 C 11.792414,3.99511 11.518825,4.1038443 11.111948,4.145935 L 11.111948,4.166981 C 11.560915,4.166981 11.852043,4.0652617 11.985331,3.861823 C 12.118618,3.6583843 12.178247,3.4514383 12.164216,3.240985 L 12.164216,3.240985 z M 12.05899,3.240985 C 11.946747,3.605771 11.771369,3.7916717 11.532855,3.798687 C 11.294341,3.8057023 11.069857,3.7811493 10.859404,3.725028 C 10.648951,3.6689073 10.378869,3.7320433 10.049158,3.914436 C 9.7194473,4.0968293 9.323093,4.188026 8.860095,4.188026 C 8.5514303,4.188026 8.2217197,4.3914643 7.870963,4.798341 L 7.892009,4.798341 C 8.2006737,4.4896757 8.509339,4.335343 8.818005,4.335343 C 9.1687603,4.335343 9.4458573,4.359896 9.649296,4.409002 C 9.852734,4.458108 10.091248,4.4054947 10.364838,4.251162 C 10.638428,4.0968293 10.989184,3.988095 11.417106,3.924959 C 11.845029,3.861823 12.05899,3.6338317 12.05899,3.240985 L 12.05899,3.240985 z M 7.134376,6.881832 C 7.134376,6.6152573 7.2957237,6.3486827 7.618419,6.082108 C 7.7867817,6.068078 7.856933,5.8927 7.828873,5.555974 C 7.6605097,5.5700047 7.4675937,5.6261257 7.250125,5.724337 C 7.0326563,5.822549 6.8467557,5.871655 6.692423,5.871655 C 6.341667,5.871655 6.166289,5.7874733 6.166289,5.61911 L 6.166289,5.61911 C 6.166289,5.4647773 6.383758,5.324475 6.818696,5.198203 C 7.08527,5.0017797 7.4079653,4.896553 7.786782,4.882523 L 7.7026,4.777296 C 7.7446913,4.7071447 7.8709637,4.5703497 8.081417,4.366911 C 8.291871,4.163473 8.6636723,4.061754 9.196821,4.061754 L 9.196821,4.019663 C 8.8881557,3.893391 8.6426267,3.830255 8.460234,3.830255 C 8.1936587,3.830255 7.8920083,3.9775723 7.555283,4.272207 C 7.2746783,4.468631 7.0431793,4.573858 6.860786,4.587888 C 6.7906347,4.6440087 6.7274987,4.679084 6.671378,4.693114 L 6.671378,4.71416 L 6.923922,4.693114 C 6.9660127,4.7071447 6.980043,4.7352053 6.966013,4.777296 C 6.951983,4.791326 6.8046657,4.8123713 6.524061,4.840432 C 6.3697283,4.854462 6.2294257,4.9526737 6.103153,5.135067 C 6.075093,5.135067 6.043525,5.135067 6.008449,5.135067 C 5.9733737,5.135067 5.962851,5.1140217 5.976881,5.071931 C 6.089123,4.861477 6.257486,4.749235 6.48197,4.735205 L 6.376743,4.735205 C 6.1943497,4.735205 6.025987,4.8334167 5.871655,5.02984 C 5.647171,5.0719307 5.3174603,5.2823843 4.882523,5.661201 C 4.8264017,5.675231 4.7843107,5.7103067 4.75625,5.766428 L 4.966704,5.766428 C 5.0087947,5.766428 5.0263327,5.7909807 5.019318,5.840086 C 5.0123027,5.889192 4.9877497,5.913745 4.945659,5.913745 L 4.735205,5.913745 C 4.6931143,5.913745 4.672069,5.9347903 4.672069,5.976881 C 4.672069,6.0330023 4.6931143,6.0821083 4.735205,6.124199 L 5.092976,5.8927 C 5.1490973,5.8927 5.1701427,5.9207603 5.156112,5.976881 L 4.819386,6.20838 L 4.819386,6.229425 L 6.061063,6.229425 C 6.3697283,6.229425 6.569659,6.3521897 6.660855,6.597719 C 6.7520517,6.8432483 6.909892,6.9379527 7.134376,6.881832 z M 5.57702,3.998618 L 5.57702,3.998618 C 5.717322,4.0407087 6.0400173,4.0336933 6.545106,3.977572 C 6.79765,3.9354813 7.0010883,4.026678 7.155421,4.251162 L 7.365875,4.145935 C 7.1694517,3.9635423 6.895862,3.872346 6.545106,3.872346 C 6.3627127,3.872346 6.0400173,3.9144367 5.57702,3.998618 z M 8.24978,8.376052 C 8.24978,7.9551447 8.4918013,7.744691 8.975844,7.744691 C 9.4598873,7.744691 9.701909,7.9481293 9.701909,8.355006 L 9.870273,9.491456 L 10.817313,9.491456 L 10.817313,8.355006 C 10.817313,7.3448293 10.606859,6.488985 10.185952,5.787473 C 9.7650453,5.085961 9.309063,4.735205 8.818005,4.735205 C 8.579491,4.735205 8.362022,4.8053563 8.165598,4.945659 L 8.165598,5.766428 C 8.165598,6.0750927 8.0673863,6.229425 7.870963,6.229425 C 7.6464797,6.4118183 7.5272227,6.5871963 7.513192,6.755559 L 7.176466,9.491456 L 8.018281,9.491456 L 8.24978,8.376052 z M 6.503015,4.903568 C 6.5871963,4.903568 6.6433173,4.952674 6.671378,5.050886 C 6.671378,5.1490973 6.559136,5.2192483 6.334652,5.261339 C 6.2504707,5.261339 6.20838,5.2332787 6.20838,5.177158 C 6.20838,5.0368553 6.3065917,4.9456587 6.503015,4.903568 z M 7.870963,4.98775 L 7.870963,5.387611 L 7.913054,5.387611 L 7.913054,4.945659 L 7.870963,4.98775 z M 7.765737,5.008795 L 7.765737,5.387611 L 7.786782,5.387611 L 7.786782,4.98775 L 7.765737,5.008795 z M 6.334652,5.598065 C 6.4048033,5.6962763 6.534583,5.7348593 6.723991,5.713814 C 6.9133997,5.6927687 7.2115423,5.5980647 7.618419,5.429702 L 7.618419,5.429702 L 7.618419,5.050886 C 7.365875,5.050886 7.120346,5.1420823 6.881832,5.324475 C 6.5170453,5.4647777 6.334652,5.5559743 6.334652,5.598065 z M 6.818696,9.491456 L 7.134376,7.365875 C 7.0642247,7.2115423 6.9519827,7.2115423 6.79765,7.365875 L 6.460925,9.491456 L 6.818696,9.491456 z M 9.512501,9.849227 L 9.344138,8.376052 C 9.3301073,8.2076887 9.2038353,8.123507 8.965322,8.123507 C 8.726808,8.123507 8.607551,8.2076887 8.607551,8.376052 L 8.355006,9.849227 L 7.197512,9.849227 C 6.8748167,11.041798 6.6994387,12.802592 6.671378,15.131611 L 6.20838,15.384155 L 3.493529,11.743309 C 2.8060477,11.364492 2.5394733,11.603006 2.693806,12.458851 L 4.335343,16.920467 L 3.114713,17.4466 L 8.902185,17.4466 L 8.460234,17.173012 C 9.2178667,13.637391 9.5686223,11.19613 9.512501,9.849227 z M 8.355006,0.652406 C 8.2006733,0.44195267 8.021788,0.312173 7.81835,0.263067 C 7.6149113,0.213961 7.4360257,0.21746867 7.281693,0.27359 C 7.1273603,0.32971067 7.050194,0.406877 7.050194,0.505089 C 7.162436,0.60330033 7.337814,0.652406 7.576328,0.652406 C 7.814842,0.652406 8.0744013,0.652406 8.355006,0.652406 z M 7.681555,3.788164 C 7.6254337,3.3672567 7.734168,2.911274 8.007758,2.420216 C 8.2813473,1.929158 8.4391873,1.5433263 8.481278,1.262721 C 8.4953087,1.010177 8.333961,0.89793533 7.997235,0.925996 C 7.758721,0.925996 7.5658053,1.115404 7.418488,1.49422 C 7.2711707,1.8730367 7.197512,2.350065 7.197512,2.925305 C 7.197512,3.2199397 7.2396027,3.5075593 7.323784,3.788164 L 7.513192,3.935482 C 7.625434,3.8513007 7.681555,3.8021947 7.681555,3.788164 z M 12.164216,2.904259 C 12.332579,2.904259 12.41676,3.0445613 12.41676,3.325166 C 12.41676,3.54965 12.318549,3.8092097 12.122126,4.103845 C 11.953763,4.3142983 11.581961,4.3844493 11.006721,4.314298 C 10.698056,4.3704187 10.480588,4.447585 10.354316,4.545797 C 10.228043,4.6440083 10.010574,4.693114 9.701909,4.693114 C 10.221028,5.04387 10.599845,5.5735117 10.838359,6.282039 C 11.076873,6.9905663 11.19613,7.6815553 11.19613,8.355006 L 11.19613,9.849227 L 10.101771,9.849227 C 9.975499,11.897642 9.6387733,14.226661 9.091594,16.836285 L 10.164907,17.972734 L 2.336035,17.972734 L 2.230808,17.257193 L 3.598756,16.667923 L 3.619801,16.667923 C 2.665745,14.016208 2.0203543,12.269443 1.683629,11.427629 C 1.3188423,11.371508 1.0768207,11.227698 0.957564,10.996199 C 0.83830667,10.7647 1.0803283,10.522679 1.683629,10.270134 L 1.683629,6.944968 C 1.6275077,6.5380907 1.5398187,6.383758 1.420562,6.48197 C 1.3013047,6.5801813 1.1364493,6.7836197 0.925996,7.092285 C 0.715542,7.8779783 0.40687667,8.1866437 0,8.018281 C 0.42090733,7.078255 0.701512,6.439879 0.841814,6.103153 C 0.98211667,5.7664277 1.2136157,5.4367173 1.536311,5.114022 C 1.8590063,4.7913267 2.132596,4.3563893 2.35708,3.80921 C 2.6236547,4.0336933 2.6447,4.3248207 2.420216,4.682592 C 2.195732,5.0403627 2.0063237,5.3805957 1.851991,5.703291 C 2.1045357,6.0961383 2.2237927,6.474955 2.209762,6.839741 L 2.209762,10.270134 C 2.6166393,10.228043 3.0936677,10.480588 3.640847,11.027767 L 6.145244,14.437115 L 6.145244,14.437115 C 6.271516,12.430791 6.446894,10.901495 6.671378,9.849227 L 6.082108,9.849227 L 6.439879,7.765737 C 6.439879,7.4711017 6.51003,7.2325873 6.650332,7.050194 C 6.4679393,6.923922 6.3627127,6.780112 6.334652,6.618764 C 6.306592,6.4574167 5.948821,6.3977883 5.261339,6.439879 L 5.34552,6.713469 L 4.651024,6.713469 L 4.735205,6.376743 C 4.6790843,6.362713 4.651024,6.313607 4.651024,6.229425 C 4.538782,6.1592743 4.482661,6.0891233 4.482661,6.018972 C 4.468631,5.9488207 4.4966917,5.8856847 4.566843,5.829564 C 4.5528123,5.6612013 4.6510237,5.534929 4.861477,5.450747 C 5.1701423,5.1561123 5.4647773,4.9667043 5.745382,4.882523 C 5.8856847,4.6299783 6.1662893,4.5247517 6.587196,4.566843 L 6.692423,4.545797 C 6.5801817,4.5177363 6.4539097,4.503706 6.313607,4.503706 C 6.187335,4.503706 6.0154647,4.5422893 5.797996,4.619456 C 5.5805273,4.696622 5.3876113,4.72819 5.219248,4.71416 C 5.0368553,4.71416 4.8053567,4.608933 4.524752,4.398479 L 3.977572,4.398479 C 3.612786,4.398479 3.3602417,4.29676 3.219939,4.093322 C 3.079637,3.8898833 3.009486,3.6829373 3.009486,3.472484 C 3.009486,3.135758 3.072622,2.953365 3.198894,2.925305 C 3.297106,2.9112743 3.3883027,3.0094857 3.472484,3.219939 C 3.5566653,3.430393 3.7846567,3.528605 4.156458,3.514575 C 4.5282593,3.5005443 4.9316287,3.5847257 5.366566,3.767119 C 5.9838967,3.654877 6.3767433,3.598756 6.545106,3.598756 C 6.7415293,3.598756 6.8818317,3.6127863 6.966013,3.640847 C 6.9098923,3.3602417 6.8923547,2.9077663 6.9134,2.283421 C 6.9344453,1.6590757 7.0852703,1.2066007 7.365875,0.925996 C 7.365875,0.813754 7.309754,0.757633 7.197512,0.757633 C 7.08527,0.757633 6.9800433,0.73308 6.881832,0.683974 C 6.78362,0.634868 6.727499,0.57523967 6.713469,0.505089 C 6.8678017,0.168363 7.183482,0 7.66051,0 C 7.9691747,0.01403 8.197166,0.084181333 8.344484,0.210454 C 8.4918013,0.336726 8.5935207,0.49105833 8.649642,0.673451 C 8.8320347,0.86987433 8.8951703,1.087343 8.839049,1.325857 C 8.839049,1.536311 8.6636713,1.936173 8.312916,2.525443 C 7.96216,3.114713 7.849918,3.479499 7.97619,3.619801 C 8.0744013,3.5636803 8.2006733,3.53562 8.355006,3.53562 C 8.59352,3.53562 8.8390493,3.591741 9.091594,3.703983 C 9.3721987,3.844285 9.6738487,3.8162243 9.996544,3.619801 C 10.31924,3.4233777 10.613875,3.3602417 10.880449,3.430393 C 11.147024,3.5005443 11.360985,3.5531577 11.522333,3.588233 C 11.683681,3.623309 11.813461,3.472484 11.911672,3.135758 C 11.953763,2.9814253 12.037944,2.904259 12.164216,2.904259 z M 7.681555,0.378816 C 7.667525,0.33672533 7.6219267,0.30515733 7.54476,0.284112 C 7.467594,0.26306667 7.3939353,0.26306667 7.323784,0.284112 C 7.2536327,0.30515733 7.211542,0.340233 7.197512,0.389339 C 7.1834813,0.438445 7.218557,0.47352067 7.302739,0.494566 C 7.3869203,0.51561133 7.4711017,0.519119 7.555283,0.505089 C 7.6394643,0.49105833 7.681555,0.44896733 7.681555,0.378816 z "
     id="path2015"
     sodipodi:nodetypes="ccssccsccccccscssccccssscccsccscccssssccsssscccccsscccccsccscscccsssssccccccsccsccccccscccsccsccsccccssccccccccsssccccccccccccsccccccccccccscccccccccccccsscsccsssssccccsscscsccccccccccsccsccsscsccccccccccsccccsscccccsssccssssscscscsscssccscssssssccsssssc" />
</svg>
