<?xml version="1.0" encoding="UTF-8" standalone="no"?>
<svg
   xmlns:dc="http://purl.org/dc/elements/1.1/"
   xmlns:cc="http://web.resource.org/cc/"
   xmlns:rdf="http://www.w3.org/1999/02/22-rdf-syntax-ns#"
   xmlns:svg="http://www.w3.org/2000/svg"
   xmlns="http://www.w3.org/2000/svg"
   xmlns:sodipodi="http://sodipodi.sourceforge.net/DTD/sodipodi-0.dtd"
   xmlns:inkscape="http://www.inkscape.org/namespaces/inkscape"
   width="12.301523"
   height="17.972734"
   id="svg2306"
   sodipodi:version="0.32"
   inkscape:version="0.44"
   sodipodi:docname="C4E.svg"
   sodipodi:docbase="C:\Program Files\JSesh\fontsST">
  <metadata
     id="metadata2313">
    <rdf:RDF>
      <cc:Work
         rdf:about="">
        <dc:format>image/svg+xml</dc:format>
        <dc:type
           rdf:resource="http://purl.org/dc/dcmitype/StillImage" />
      </cc:Work>
    </rdf:RDF>
  </metadata>
  <defs
     id="defs2311" />
  <sodipodi:namedview
     inkscape:window-height="480"
     inkscape:window-width="640"
     inkscape:pageshadow="2"
     inkscape:pageopacity="0.0"
     guidetolerance="10.0"
     gridtolerance="10.0"
     objecttolerance="10.0"
     borderopacity="1.0"
     bordercolor="#666666"
     pagecolor="#ffffff"
     id="base" />
  <path
     style="fill:#000000; stroke:none"
     d="M 2.126704,11.530072 C 2.293504,11.293771 2.5367547,11.161721 2.856456,11.133922 C 2.4394547,10.744721 2.0467787,10.636995 1.678428,10.810746 C 1.3100773,10.984496 1.2927023,11.064421 1.626303,11.050521 C 1.9599037,11.036621 2.126704,11.196471 2.126704,11.530072 z M 3.169206,2.793905 C 3.113606,3.0997057 3.158781,3.3360063 3.304731,3.502807 C 3.4506817,3.669607 3.655707,3.753007 3.919807,3.753007 L 4.420208,3.753007 C 4.420208,3.683507 4.1561077,3.620957 3.627907,3.565357 C 3.3499063,3.4263563 3.210906,3.287356 3.210906,3.148356 L 3.231756,3.106656 L 3.252606,3.106656 C 3.3777067,3.3846567 3.6279073,3.523657 4.003208,3.523657 C 4.2951087,3.523657 4.517509,3.627907 4.670409,3.836407 C 4.8928097,3.9754077 5.06656,4.044908 5.19166,4.044908 C 5.34456,4.044908 5.5843353,3.9927827 5.910986,3.888532 C 6.2376367,3.784282 6.5330123,3.8155573 6.797113,3.982358 L 6.943063,3.898957 C 6.845763,3.759957 6.692863,3.690457 6.484363,3.690457 L 5.671211,3.753007 C 5.560011,3.753007 5.3445603,3.683507 5.024859,3.544507 C 4.705159,3.4055063 4.3715587,3.336006 4.024058,3.336006 C 3.6904573,3.336006 3.475007,3.252606 3.377707,3.085806 C 3.2804063,2.9190053 3.231756,2.821705 3.231756,2.793905 L 3.169206,2.793905 z M 12.051323,2.814755 C 12.037423,3.0232557 11.960973,3.214381 11.821973,3.388131 C 11.682972,3.5618817 11.411922,3.669607 11.008821,3.711307 L 11.008821,3.753007 C 11.453622,3.753007 11.742048,3.648757 11.874098,3.440257 C 12.006148,3.2317563 12.065223,3.0232557 12.051323,2.814755 L 12.051323,2.814755 z M 11.947073,2.814755 C 11.835872,3.1761557 11.662122,3.360331 11.425822,3.367281 C 11.189521,3.3742317 10.967121,3.3533817 10.75862,3.304731 C 10.55012,3.256081 10.282545,3.3186313 9.955894,3.492382 C 9.629244,3.666132 9.236568,3.753007 8.777866,3.753007 C 8.472066,3.753007 8.1454157,3.9545573 7.797915,4.357658 L 7.818765,4.357658 C 8.1245657,4.0518573 8.4303663,3.898957 8.736167,3.898957 C 9.0836677,3.898957 9.358193,3.9232823 9.559743,3.971933 C 9.7612937,4.020583 9.997594,3.9719327 10.268644,3.825982 C 10.539695,3.680032 10.887196,3.572307 11.311147,3.502807 C 11.735098,3.4333063 11.947073,3.2039557 11.947073,2.814755 L 11.947073,2.814755 z M 7.068163,6.442662 C 7.068163,6.1646613 7.2280133,5.900561 7.547714,5.650361 C 7.7145147,5.622561 7.784015,5.4418607 7.756215,5.10826 C 7.5894143,5.13606 7.398289,5.19861 7.182839,5.29591 C 6.9673883,5.39321 6.783213,5.44186 6.630313,5.44186 C 6.2828123,5.44186 6.109062,5.35846 6.109062,5.19166 L 6.109062,5.17081 C 6.109062,5.01791 6.3245123,4.8789097 6.755413,4.753809 C 7.0195137,4.5592083 7.3392143,4.461908 7.714515,4.461908 L 7.631114,4.336808 C 7.6728147,4.281208 7.797915,4.149158 8.006415,3.940658 C 8.2149157,3.7321573 8.5832663,3.627907 9.111467,3.627907 L 9.111467,3.607057 C 8.8056663,3.4680563 8.562416,3.398556 8.381716,3.398556 C 8.1176153,3.398556 7.8187647,3.5445063 7.485164,3.836407 C 7.2071633,4.0310077 6.977813,4.142208 6.797113,4.170008 C 6.727613,4.225608 6.665063,4.260358 6.609463,4.274258 L 6.609463,4.274258 L 6.859663,4.253408 C 6.901363,4.267308 6.915263,4.295108 6.901363,4.336808 C 6.887463,4.3646087 6.7415127,4.3924087 6.463512,4.420208 C 6.310612,4.420208 6.171612,4.5105583 6.046512,4.691259 C 6.0187113,4.705159 5.987436,4.708634 5.952686,4.701684 C 5.917936,4.694734 5.9075113,4.670409 5.921412,4.628709 C 6.032612,4.4341083 6.1994123,4.329858 6.421813,4.315958 L 6.317562,4.315958 C 6.136862,4.315958 5.9700617,4.4063083 5.817161,4.587009 C 5.594761,4.628709 5.2681103,4.8372093 4.837209,5.21251 C 4.781609,5.22641 4.739909,5.26116 4.712109,5.31676 L 4.920609,5.31676 C 4.9623097,5.31676 4.9796847,5.341085 4.972734,5.389735 C 4.965784,5.438385 4.941459,5.46271 4.899759,5.46271 L 4.691259,5.46271 C 4.649559,5.46271 4.628709,5.4905103 4.628709,5.546111 C 4.628709,5.587811 4.649559,5.629511 4.691259,5.671211 L 5.04571,5.44186 C 5.10131,5.44186 5.12216,5.46966 5.10826,5.52526 L 4.774659,5.754611 L 4.774659,5.775461 L 6.004811,5.775461 C 6.3106117,5.775461 6.5086873,5.8970863 6.599038,6.140337 C 6.689388,6.383587 6.845763,6.484362 7.068163,6.442662 z M 5.52526,3.565357 L 5.52526,3.586207 C 5.6642607,3.614007 5.9839617,3.600107 6.484363,3.544507 C 6.734563,3.516707 6.9361133,3.614007 7.089014,3.836407 L 7.297514,3.732157 C 7.1029133,3.551457 6.831863,3.461107 6.484363,3.461107 C 6.3036623,3.461107 5.9839613,3.495857 5.52526,3.565357 z M 8.173216,7.902165 C 8.173216,7.4851643 8.4129913,7.280139 8.892542,7.287089 C 9.3720933,7.294039 9.611869,7.4990643 9.611869,7.902165 L 9.778668,9.007217 L 10.716921,9.007217 L 10.716921,7.902165 C 10.716921,6.887463 10.50842,6.0326113 10.091419,5.33761 C 9.674419,4.6426087 9.2226683,4.295108 8.736167,4.295108 C 8.4998663,4.295108 8.2844157,4.3715583 8.089815,4.524459 L 8.089815,5.31676 C 8.089815,5.6225607 7.992515,5.775461 7.797915,5.775461 C 7.5755143,5.9561617 7.457364,6.129912 7.443464,6.296712 L 7.109864,9.007217 L 7.943865,9.007217 L 8.173216,7.902165 z M 6.442662,4.482759 C 6.526062,4.482759 6.5816623,4.524459 6.609463,4.607859 C 6.609463,4.705159 6.4982627,4.774659 6.275862,4.816359 C 6.192462,4.816359 6.150762,4.788559 6.150762,4.732959 C 6.150762,4.593959 6.248062,4.510559 6.442662,4.482759 z M 7.797915,4.566159 L 7.797915,4.962309 L 7.839615,4.962309 L 7.839615,4.524459 L 7.797915,4.566159 z M 7.693665,4.566159 L 7.693665,4.962309 L 7.714515,4.962309 L 7.714515,4.566159 L 7.693665,4.566159 z M 6.275862,5.14996 C 6.345362,5.24726 6.4739373,5.285485 6.661588,5.264635 C 6.849238,5.243785 7.1446133,5.14996 7.547714,4.98316 L 7.547714,4.98316 L 7.547714,4.628709 C 7.297514,4.628709 7.0542637,4.7121093 6.817963,4.87891 C 6.4565623,5.01791 6.275862,5.10826 6.275862,5.14996 z M 6.755413,9.007217 L 7.068163,6.901363 C 6.998663,6.748463 6.887463,6.748463 6.734563,6.901363 L 6.400962,9.007217 L 6.755413,9.007217 z M 9.424218,9.382518 L 9.257418,7.902165 C 9.2435173,7.735365 9.118417,7.651965 8.882117,7.651965 C 8.6458163,7.651965 8.527666,7.735365 8.527666,7.902165 L 8.277466,9.382518 L 7.276664,9.382518 C 6.8596633,10.925421 6.637263,12.850575 6.609463,15.157979 L 6.150762,15.408179 L 3.461107,11.801123 C 2.7800057,11.425822 2.515905,11.662123 2.668805,12.510024 L 4.295108,16.930233 L 3.085806,17.451483 L 8.819567,17.451483 L 8.381716,17.180433 C 9.1323173,13.677626 9.479818,11.078321 9.424218,9.382518 z M 7.839615,0.917402 C 8.0620157,1.139802 8.1940657,1.3761023 8.235765,1.626303 C 8.4164657,1.445603 8.506816,1.2093027 8.506816,0.917402 C 8.506816,0.69500133 8.4164657,0.47260067 8.235765,0.2502 L 7.839615,0.917402 z M 8.277466,3.106656 C 8.5137667,3.106656 8.757017,3.162256 9.007217,3.273456 C 9.2852177,3.4124567 9.5840683,3.3846567 9.903769,3.190056 C 10.22347,2.9954553 10.51537,2.9329053 10.77947,3.002406 C 11.043571,3.071906 11.255546,3.127506 11.415397,3.169206 C 11.575247,3.210906 11.703822,3.0649557 11.801123,2.731355 C 11.842823,2.578455 11.926223,2.502005 12.051323,2.502005 C 12.218123,2.502005 12.301523,2.634055 12.301523,2.898155 C 12.301523,3.1344557 12.204223,3.3916063 12.009623,3.669607 C 11.842822,3.8781077 11.474472,3.9545577 10.904571,3.898957 C 10.59877,3.9545577 10.38332,4.031008 10.25822,4.128308 C 10.133119,4.225608 9.917669,4.274258 9.611869,4.274258 C 10.12617,4.6078587 10.50147,5.1291097 10.737771,5.838011 C 10.974071,6.5469123 11.092221,7.2349637 11.092221,7.902165 L 11.092221,9.382518 L 10.008019,9.382518 C 9.882919,11.773323 9.5493183,14.261427 9.007217,16.846832 L 10.070569,17.972734 L 2.314354,17.972734 L 2.210104,17.263834 L 3.565357,16.680033 L 3.586207,16.680033 C 2.641005,14.052927 2.0016037,12.322373 1.668003,11.488372 C 1.3066023,11.432772 1.066827,11.290297 0.948677,11.060946 C 0.83052633,10.831596 1.0703017,10.59182 1.668003,10.341619 L 1.668003,6.484363 C 1.612403,6.0812617 1.525528,5.928361 1.407378,6.025661 C 1.2892273,6.1229617 1.125902,6.3314623 0.917402,6.651163 C 0.70890133,7.4156643 0.40310067,7.7145147 0,7.547714 C 0.41700067,6.6303127 0.69500133,6.0013367 0.834002,5.660786 C 0.973002,5.3202353 1.2023523,4.9901097 1.522053,4.670409 C 1.8417537,4.3507083 2.112804,3.9267573 2.335204,3.398556 C 2.5993047,3.6209567 2.620155,3.9059073 2.397755,4.253408 C 2.1753543,4.6009087 1.9877037,4.9345093 1.834803,5.25421 C 2.0850037,5.6573107 2.203154,6.0326113 2.189254,6.380112 L 2.189254,10.341619 C 2.5923547,10.29992 3.0649557,10.55012 3.607057,11.092221 L 6.088212,14.469928 L 6.088212,14.469928 C 6.213312,12.482224 6.4357123,10.786421 6.755413,9.382518 L 6.025661,9.382518 L 6.380112,7.318364 C 6.380112,7.0125633 6.4496123,6.776263 6.588613,6.609463 C 6.4079123,6.484363 6.303662,6.3418877 6.275862,6.182037 C 6.248062,6.0221863 5.8936113,5.963111 5.21251,6.004811 L 5.29591,6.275862 L 4.607859,6.275862 L 4.691259,5.942261 C 4.635659,5.9283617 4.607859,5.8797117 4.607859,5.796311 C 4.496659,5.712911 4.441059,5.636461 4.441059,5.566961 C 4.4271583,5.4974603 4.4549583,5.43491 4.524459,5.37931 C 4.510559,5.22641 4.607859,5.10131 4.816359,5.00401 C 5.1221597,4.7121093 5.4140603,4.5314087 5.692061,4.461908 C 5.831061,4.197808 6.1090613,4.086608 6.526062,4.128308 L 6.630313,4.107458 C 6.5191123,4.079658 6.394012,4.065758 6.255012,4.065758 C 6.129912,4.065758 5.9596367,4.103983 5.744186,4.180433 C 5.5287353,4.256883 5.33761,4.288158 5.17081,4.274258 C 4.9901093,4.274258 4.760759,4.176958 4.482759,3.982358 L 3.940658,3.982358 C 3.5792567,3.982358 3.329056,3.8815827 3.190056,3.680032 C 3.051056,3.478482 2.981556,3.2665067 2.981556,3.044106 C 2.981556,2.7105053 3.044106,2.529805 3.169206,2.502005 C 3.266506,2.502005 3.3568563,2.60278 3.440257,2.80433 C 3.523657,3.0058807 3.7495323,3.103181 4.117883,3.096231 C 4.4862337,3.089281 4.8858593,3.169206 5.31676,3.336006 C 5.9283613,3.224806 6.3175623,3.169206 6.484363,3.169206 C 6.762363,3.183106 6.9291633,3.203956 6.984764,3.231756 C 6.6928633,2.9120553 6.546913,2.5020047 6.546913,2.001604 C 6.546913,1.5846033 6.7067633,1.2232027 7.026464,0.917402 L 6.442662,0 L 8.277466,0 C 8.6249667,0.19460067 8.798717,0.50040133 8.798717,0.917402 C 8.798717,1.3622027 8.6249667,1.7236033 8.277466,2.001604 C 8.277466,1.959904 8.277466,2.043304 8.277466,2.251804 C 8.277466,2.4603047 8.1315157,2.7869553 7.839615,3.231756 C 7.936915,3.148356 8.0828653,3.106656 8.277466,3.106656 z M 6.880513,0.22935 L 7.318364,0.917402 C 7.0125633,1.2788027 6.852713,1.6471533 6.838813,2.022454 C 6.824913,2.3977547 7.0195133,2.8425553 7.422614,3.356856 C 7.8118147,2.8425553 8.006415,2.3908047 8.006415,2.001604 C 8.006415,1.6402033 7.8396147,1.2788027 7.506014,0.917402 L 7.943865,0.22935 L 6.880513,0.22935 z "
     id="path2308"
     sodipodi:nodetypes="ccssccsccccccscssccccssscccsccscccssssccsssscccccsscccccsccscscccsssssccccccsccsccccccscccsccsccsccccssccccccccsssccccccccccccsccccccccccccsccccccccccccccscccsssssssscscsccccccccccsccsccsscsccccccccccsccccsscccccsssccssssscssscccscsccccscsccc" />
</svg>
