<?xml version="1.0" encoding="UTF-8" standalone="no"?>
<svg
   xmlns:dc="http://purl.org/dc/elements/1.1/"
   xmlns:cc="http://web.resource.org/cc/"
   xmlns:rdf="http://www.w3.org/1999/02/22-rdf-syntax-ns#"
   xmlns:svg="http://www.w3.org/2000/svg"
   xmlns="http://www.w3.org/2000/svg"
   xmlns:sodipodi="http://sodipodi.sourceforge.net/DTD/sodipodi-0.dtd"
   xmlns:inkscape="http://www.inkscape.org/namespaces/inkscape"
   width="10.926237"
   height="17.972734"
   id="svg2393"
   sodipodi:version="0.32"
   inkscape:version="0.44"
   sodipodi:docname="C4F.svg"
   sodipodi:docbase="C:\Program Files\JSesh\fontsST">
  <metadata
     id="metadata2400">
    <rdf:RDF>
      <cc:Work
         rdf:about="">
        <dc:format>image/svg+xml</dc:format>
        <dc:type
           rdf:resource="http://purl.org/dc/dcmitype/StillImage" />
      </cc:Work>
    </rdf:RDF>
  </metadata>
  <defs
     id="defs2398" />
  <sodipodi:namedview
     inkscape:window-height="480"
     inkscape:window-width="640"
     inkscape:pageshadow="2"
     inkscape:pageopacity="0.0"
     guidetolerance="10.0"
     gridtolerance="10.0"
     objecttolerance="10.0"
     borderopacity="1.0"
     bordercolor="#666666"
     pagecolor="#ffffff"
     id="base" />
  <path
     style="fill:#000000; stroke:none"
     d="M 1.888943,12.268868 C 2.049441,12.058985 2.2654963,11.935525 2.537109,11.898487 C 2.1790743,11.565144 1.8333857,11.475636 1.500043,11.629961 C 1.1666997,11.784286 1.1481807,11.855276 1.444486,11.84293 C 1.7407907,11.830584 1.888943,11.972563 1.888943,12.268868 z M 2.833414,4.509388 C 2.78403,4.7686547 2.821068,4.972364 2.944528,5.120516 C 3.0679887,5.2686687 3.2470063,5.342745 3.481581,5.342745 L 3.944557,5.342745 C 3.944557,5.293361 3.7099823,5.2439767 3.240833,5.194592 C 2.9815663,5.071132 2.851933,4.941499 2.851933,4.805693 L 2.870452,4.787173 L 2.90749,4.787173 C 3.0062587,5.0340943 3.2223143,5.157555 3.555657,5.157555 C 3.8149237,5.157555 4.01246,5.25015 4.148266,5.43534 C 4.3458027,5.5588007 4.5001283,5.620531 4.611243,5.620531 C 4.747049,5.620531 4.960018,5.5711467 5.25015,5.472378 C 5.5402813,5.37361 5.8026343,5.398302 6.037209,5.546454 L 6.166842,5.490897 C 6.08042,5.355091 5.9446137,5.287188 5.759423,5.287188 L 5.0557,5.361264 C 4.9445853,5.361264 4.7470487,5.299534 4.46309,5.176074 C 4.1791313,5.0526133 3.8828267,4.990883 3.574176,4.990883 C 3.2778713,4.990883 3.0895943,4.9168067 3.009345,4.768654 C 2.9290957,4.620502 2.882798,4.53408 2.870452,4.509388 L 2.833414,4.509388 z M 10.704009,4.527907 C 10.691663,4.7130977 10.62376,4.8828553 10.500299,5.03718 C 10.376839,5.191506 10.136091,5.287188 9.778056,5.324226 L 9.778056,5.342745 C 10.173129,5.342745 10.42931,5.2532363 10.546597,5.074219 C 10.663884,4.8952017 10.716355,4.7130977 10.704009,4.527907 L 10.704009,4.527907 z M 10.611414,4.527907 C 10.524991,4.8489037 10.373752,5.0124883 10.157697,5.018661 C 9.941641,5.0248343 9.741018,5.003229 9.555828,4.953845 C 9.3706373,4.904461 9.1360627,4.960018 8.852104,5.120516 C 8.568146,5.2810147 8.216284,5.361264 7.796518,5.361264 C 7.524906,5.361264 7.2347743,5.5402813 6.926123,5.898316 L 6.944643,5.898316 C 7.216255,5.6267033 7.4878673,5.490897 7.75948,5.490897 C 8.0681313,5.490897 8.3119657,5.5125027 8.490983,5.555714 C 8.6700003,5.5989253 8.8798827,5.5526277 9.12063,5.416821 C 9.3613773,5.2810143 9.6731147,5.1853327 10.055842,5.129776 C 10.438569,5.0742187 10.629932,4.8735957 10.629932,4.527907 L 10.611414,4.527907 z M 6.277956,7.731702 C 6.277956,7.4971273 6.4199357,7.2625527 6.703895,7.027978 C 6.852047,7.015632 6.913777,6.8613067 6.889085,6.565002 C 6.740933,6.577348 6.571175,6.626732 6.379811,6.713154 C 6.1884477,6.7995767 6.024863,6.842788 5.889057,6.842788 C 5.5804063,6.842788 5.426081,6.7687117 5.426081,6.620559 L 5.426081,6.620559 C 5.426081,6.484753 5.6174443,6.3612927 6.000171,6.250178 C 6.2347457,6.0773333 6.5187043,5.9847383 6.852047,5.972393 L 6.777971,5.879797 C 6.827355,5.818067 6.941556,5.6884337 7.120574,5.490897 C 7.2995913,5.2933603 7.7162697,5.176073 8.370609,5.139035 L 8.370609,5.120516 C 8.234803,5.021748 7.9261523,5.003229 7.444657,5.064959 C 7.2224283,5.052613 6.9631617,5.1760733 6.666857,5.43534 C 6.4075897,5.6081847 6.197707,5.70078 6.037209,5.713126 C 5.975479,5.76251 5.919922,5.793375 5.870538,5.805721 L 5.870538,5.82424 L 6.092766,5.805721 C 6.1298047,5.818067 6.1421507,5.842759 6.129804,5.879797 C 6.129804,5.904489 6.0001707,5.923008 5.740904,5.935354 C 5.605098,5.9477 5.4816377,6.0341223 5.370523,6.194621 C 5.345831,6.194621 5.3180527,6.194621 5.287188,6.194621 C 5.2563227,6.194621 5.247063,6.176102 5.259409,6.139064 C 5.358177,5.9538733 5.5063293,5.855105 5.703866,5.842759 L 5.62979,5.842759 C 5.4569453,5.842759 5.308793,5.9291813 5.185333,6.102026 C 4.9754503,6.139064 4.6791457,6.3242543 4.296419,6.657597 C 4.2470343,6.669943 4.2099963,6.700808 4.185305,6.750192 L 4.389014,6.750192 C 4.413706,6.750192 4.4229653,6.7717977 4.416792,6.815009 C 4.4106193,6.8582203 4.389014,6.879826 4.351976,6.879826 L 4.185305,6.879826 C 4.1359203,6.879826 4.111228,6.904518 4.111228,6.953902 C 4.111228,6.99094 4.129747,7.027978 4.166785,7.065016 L 4.481609,6.861307 C 4.5309937,6.861307 4.5495127,6.885999 4.537166,6.935383 L 4.240861,7.139092 L 4.240861,7.157611 L 5.333485,7.157611 C 5.6174437,7.157611 5.7964613,7.265639 5.870538,7.481695 C 5.944614,7.6977503 6.08042,7.781086 6.277956,7.731702 z M 4.907547,5.194592 L 4.907547,5.194592 C 5.0433537,5.2316307 5.3273123,5.225458 5.759423,5.176074 C 5.9816517,5.1513813 6.1606693,5.2316303 6.296476,5.416821 L 6.481666,5.324226 C 6.308822,5.1637273 6.0680743,5.083478 5.759423,5.083478 C 5.598925,5.083478 5.3149663,5.120516 4.907547,5.194592 z M 7.259466,9.046555 C 7.259466,8.6761737 7.4755217,8.4940693 7.907633,8.500242 C 8.3397437,8.5064147 8.555799,8.6823457 8.555799,9.028035 L 8.685432,10.028064 L 9.51879,10.028064 L 9.51879,9.028035 C 9.51879,8.139121 9.3335997,7.3860133 8.963219,6.768712 C 8.5928377,6.15141 8.1977643,5.842759 7.777999,5.842759 C 7.555771,5.842759 7.3582347,5.9106623 7.18539,6.046469 L 7.18539,6.750192 C 7.18539,7.0218047 7.0989677,7.157611 6.926123,7.157611 C 6.7285863,7.3181097 6.6236453,7.472435 6.6113,7.620587 L 6.333514,10.028064 L 7.055757,10.028064 L 7.259466,9.046555 z M 5.722385,5.990911 C 5.796461,5.990911 5.8520183,6.0341223 5.889057,6.120545 C 5.889057,6.206967 5.7841157,6.268697 5.574233,6.305735 C 5.500157,6.305735 5.463119,6.281043 5.463119,6.231659 C 5.463119,6.108199 5.549541,6.0279497 5.722385,5.990911 z M 6.926123,6.064988 L 6.926123,6.435369 L 6.98168,6.435369 L 6.98168,6.046469 L 6.926123,6.064988 z M 6.833528,6.083507 L 6.833528,6.435369 L 6.852047,6.435369 L 6.852047,6.064988 L 6.833528,6.083507 z M 5.574233,6.60204 C 5.648309,6.688462 5.7655963,6.7224137 5.926095,6.703895 C 6.086593,6.6853757 6.3458597,6.6020397 6.703895,6.453887 L 6.722414,6.453887 L 6.722414,6.120545 C 6.4878393,6.120545 6.2656107,6.200794 6.055728,6.361292 C 5.7347313,6.4847527 5.574233,6.565002 5.574233,6.60204 z M 6.000171,10.028064 L 6.277956,8.15764 C 6.216226,8.0218333 6.123631,8.0218333 6.000171,8.15764 L 5.685347,10.028064 L 6.000171,10.028064 z M 8.370609,10.342887 L 8.222457,9.046555 C 8.222457,8.8984023 8.1175157,8.824326 7.907633,8.824326 C 7.6854043,8.824326 7.57429,8.8984023 7.57429,9.046555 L 7.352061,10.342887 L 6.463147,10.342887 C 6.0927663,11.713296 5.89523,13.429395 5.870538,15.491182 L 5.463119,15.71341 L 3.074162,12.509616 C 2.481552,12.176273 2.2469773,12.386156 2.370438,13.139263 L 3.814924,17.065302 L 2.759338,17.528276 L 7.833557,17.528276 L 7.444657,17.287529 C 8.1113423,14.17633 8.419993,11.861449 8.370609,10.342887 z M 5.463119,4.546426 C 5.512503,3.805664 5.7162123,3.1389783 6.074247,2.546369 C 6.000171,2.1142577 5.8643647,1.8704237 5.666828,1.814867 C 5.4692913,1.7593097 5.2995337,1.81178 5.157555,1.972278 C 5.015575,2.1327767 5.0989103,2.3241403 5.407561,2.546369 C 5.135949,2.9784797 4.9260667,3.6081273 4.777914,4.435312 C 5.0495267,4.4106193 5.2779283,4.4476573 5.463119,4.546426 z M 8.796547,4.861249 C 9.0928517,4.688405 9.355205,4.632848 9.583607,4.694578 C 9.8120077,4.756308 10.000285,4.8026057 10.148438,4.833471 C 10.29659,4.8643363 10.413877,4.7316167 10.500299,4.435312 C 10.537338,4.2995053 10.605241,4.231602 10.704009,4.231602 C 10.852161,4.231602 10.926237,4.3550623 10.926237,4.601983 C 10.926237,4.7995197 10.839815,5.0279213 10.66697,5.287188 C 10.518818,5.472378 10.191648,5.534108 9.685461,5.472378 C 9.4138483,5.521762 9.222485,5.5896653 9.111371,5.676088 C 9.0002563,5.76251 8.8088927,5.805721 8.53728,5.805721 C 9.0064293,6.1143717 9.3428587,6.5804343 9.546568,7.203909 C 9.750278,7.8273837 9.852133,8.4354257 9.852133,9.028035 L 9.852133,10.342887 L 8.889142,10.342887 C 8.778028,12.47875 8.4817233,14.694863 8.000228,16.991224 L 8.944699,17.972734 L 2.055614,17.972734 L 1.981538,17.361607 L 3.166757,16.843073 L 3.185276,16.843073 C 2.358092,14.509673 1.7901747,12.972592 1.481524,12.23183 C 1.1605267,12.1701 0.94755767,12.040467 0.842617,11.84293 C 0.73767567,11.645393 0.95064467,11.435511 1.481524,11.213283 L 1.481524,7.787259 C 1.444486,7.4292237 1.3704097,7.2934173 1.259295,7.37984 C 1.148181,7.466262 1.0000287,7.6452797 0.814838,7.916893 C 0.62964733,8.6082703 0.35803467,8.8798827 0,8.73173 C 0.38272667,7.904546 0.63273367,7.3428017 0.750021,7.046497 C 0.86730833,6.7501923 1.0679313,6.4600607 1.35189,6.176102 C 1.6358487,5.8921433 1.8765963,5.5094163 2.074133,5.027921 C 2.3210537,5.2254577 2.3426593,5.481638 2.13895,5.796462 C 1.9352407,6.1112853 1.7654827,6.4106763 1.629676,6.694635 C 1.8519047,7.0403243 1.956846,7.3736673 1.9445,7.694664 L 1.9445,11.213283 C 2.3025347,11.176244 2.7222997,11.398473 3.203795,11.879969 L 5.407561,14.861535 L 5.426081,14.861535 C 5.524849,13.108398 5.7162123,11.602182 6.000171,10.342887 L 5.370523,10.342887 L 5.666828,8.509501 C 5.666828,8.250235 5.7347313,8.0403527 5.870538,7.879854 C 5.6976933,7.781086 5.598925,7.6576257 5.574233,7.509473 C 5.549541,7.361321 5.2408903,7.305764 4.648281,7.342802 L 4.722357,7.602068 L 4.092709,7.602068 L 4.166785,7.287245 C 4.117401,7.274899 4.092709,7.2316877 4.092709,7.157611 C 3.993941,7.095881 3.944557,7.034151 3.944557,6.972421 C 3.944557,6.910691 3.969249,6.8551337 4.018633,6.805749 C 4.018633,6.657597 4.1050553,6.546483 4.2779,6.472407 C 4.5495127,6.2131403 4.8087793,6.046469 5.0557,5.972393 C 5.17916,5.7501643 5.4322537,5.657569 5.814981,5.694607 L 5.889057,5.676088 C 5.8026343,5.651396 5.697693,5.63905 5.574233,5.63905 C 5.4507723,5.63905 5.2933603,5.6730013 5.101997,5.740904 C 4.9106337,5.8088073 4.7408757,5.836586 4.592723,5.82424 C 4.432225,5.82424 4.2346887,5.7316447 4.000114,5.546454 L 3.5001,5.546454 C 3.1791033,5.546454 2.9568747,5.4569453 2.833414,5.277928 C 2.709954,5.0989107 2.648224,4.9168067 2.648224,4.731616 C 2.648224,4.4353113 2.703781,4.274813 2.814895,4.250121 C 2.9136637,4.237775 2.9969993,4.3241973 3.064902,4.509388 C 3.1328053,4.694578 3.330342,4.781 3.657512,4.768654 C 3.9846813,4.756308 4.3396297,4.8303843 4.722357,4.990883 C 5.0680457,4.929153 5.290274,4.892115 5.389042,4.879769 C 5.17916,4.7439623 4.8643363,4.713097 4.444571,4.787173 C 4.6174157,3.861221 4.8396443,3.1204593 5.111257,2.564888 C 4.7902603,2.3426593 4.72853,2.0988253 4.926066,1.833386 C 5.1236027,1.567946 5.3828693,1.4876967 5.703866,1.592638 C 6.0248627,1.6975793 6.1977073,1.9475863 6.2224,2.342659 L 6.40759,2.13895 L 6.518704,1.787088 L 6.444628,1.54634 L 6.000171,1.398188 L 6.01869,1.250036 L 6.389071,1.175959 C 6.1298043,0.73150233 6.176102,0.39198667 6.527964,0.157412 C 6.879826,-0.077162667 7.2100823,-0.052470667 7.518733,0.231488 C 7.8273837,0.51544667 7.8212107,0.86113567 7.500214,1.268555 L 7.833557,1.398188 L 7.833557,1.54634 L 7.37058,1.638936 L 7.259466,1.842645 L 7.315023,2.194507 L 7.444657,2.435255 C 7.543425,2.0401817 7.7533077,1.817953 8.074305,1.768569 C 8.395301,1.719185 8.6360483,1.8395587 8.796547,2.12969 C 8.957045,2.419822 8.86445,2.6574833 8.518762,2.842674 C 8.691606,3.4229373 8.784201,4.0957957 8.796547,4.861249 z M 7.57429,0.731502 C 7.586636,0.558658 7.5002137,0.41050567 7.315023,0.287045 C 7.129833,0.163585 6.935383,0.14815267 6.731673,0.240748 C 6.5279637,0.33334267 6.413763,0.47223533 6.389071,0.657426 C 6.5619157,0.43519733 6.759452,0.45371633 6.98168,0.712983 C 7.2532933,0.49075433 7.45083,0.49692733 7.57429,0.731502 z M 7.37058,1.175959 C 7.5063867,1.064845 7.537252,0.941385 7.463176,0.805579 C 7.3890993,0.66977233 7.2224277,0.70681033 6.963161,0.916693 C 6.7409323,0.65742633 6.5835207,0.59260967 6.490926,0.722243 C 6.3983307,0.85187633 6.40759,0.984596 6.518704,1.120402 C 6.6668567,1.09571 6.8088363,1.09571 6.944643,1.120402 C 7.092795,1.120402 7.234774,1.138921 7.37058,1.175959 z M 7.129833,1.75005 L 7.259466,1.509302 L 7.648366,1.472264 C 7.4137913,1.373496 7.1730437,1.311766 6.926123,1.287074 C 6.691549,1.274728 6.4569747,1.29942 6.2224,1.36115 L 6.555742,1.472264 L 6.648338,1.713012 L 7.129833,1.75005 z M 7.111314,2.157469 L 7.111314,1.898202 L 6.666857,1.861164 L 6.6113,2.120431 L 7.111314,2.157469 z M 7.592809,4.768654 C 7.666885,3.780972 7.5249057,2.9969993 7.166871,2.416736 L 6.555742,2.379698 C 6.1112853,2.8858847 5.852019,3.6945497 5.777943,4.805693 C 6.049555,4.7439623 6.3458597,4.8180383 6.666857,5.027921 C 6.9755077,4.7933463 7.2841583,4.706924 7.592809,4.768654 z M 7.833557,4.768654 C 8.068131,4.781 8.2965327,4.8365573 8.518762,4.935326 C 8.4940693,3.9723353 8.4014737,3.2439193 8.240975,2.750078 C 8.5619723,2.577234 8.6669137,2.4013033 8.555799,2.222286 C 8.444685,2.043268 8.2903597,1.9661053 8.092823,1.990798 C 7.8952863,2.01549 7.728615,2.2377183 7.592809,2.657483 C 7.8397297,3.311823 7.919979,4.0155467 7.833557,4.768654 z "
     id="path2395"
     sodipodi:nodetypes="ccssccsccccccscssccccssscccsccscccssssccsssscccccsscccccsccccscccsssssccccccsccsccccccscccsccsccsccccssccccccccsssccccccccccccsccccccccccccsccccccccccccccssccccsssssscscsccccccccccsccsccsscsccccccccccsccccsssccccsssccsssssccccsscccccccsscccccccsscccssccccscscsccccsccccccccccccccccccsscc" />
</svg>
