<?xml version="1.0" encoding="UTF-8" standalone="no"?>
<svg
   xmlns:dc="http://purl.org/dc/elements/1.1/"
   xmlns:cc="http://web.resource.org/cc/"
   xmlns:rdf="http://www.w3.org/1999/02/22-rdf-syntax-ns#"
   xmlns:svg="http://www.w3.org/2000/svg"
   xmlns="http://www.w3.org/2000/svg"
   xmlns:sodipodi="http://sodipodi.sourceforge.net/DTD/sodipodi-0.dtd"
   xmlns:inkscape="http://www.inkscape.org/namespaces/inkscape"
   width="15.874804"
   height="17.972734"
   id="svg2462"
   sodipodi:version="0.32"
   inkscape:version="0.44"
   sodipodi:docname="C4G.svg"
   sodipodi:docbase="C:\Program Files\JSesh\fontsST">
  <metadata
     id="metadata2469">
    <rdf:RDF>
      <cc:Work
         rdf:about="">
        <dc:format>image/svg+xml</dc:format>
        <dc:type
           rdf:resource="http://purl.org/dc/dcmitype/StillImage" />
      </cc:Work>
    </rdf:RDF>
  </metadata>
  <defs
     id="defs2467" />
  <sodipodi:namedview
     inkscape:window-height="480"
     inkscape:window-width="640"
     inkscape:pageshadow="2"
     inkscape:pageopacity="0.0"
     guidetolerance="10.0"
     gridtolerance="10.0"
     objecttolerance="10.0"
     borderopacity="1.0"
     bordercolor="#666666"
     pagecolor="#ffffff"
     id="base" />
  <path
     style="fill:#000000; stroke:none"
     d="M 4.576105,9.834511 C 4.786803,9.536021 5.0940713,9.369218 5.49791,9.334102 C 4.953606,8.7371233 4.448808,8.57471 3.983516,8.846862 C 3.518224,9.119014 3.5006657,9.246311 3.930841,9.228753 C 4.361017,9.2111943 4.576105,9.4131137 4.576105,9.834511 z M 10.818044,3.51356 C 10.818044,3.162396 11.019963,2.8287903 11.423801,2.512743 C 11.6345,2.4776263 11.722291,2.2493697 11.687175,1.827973 C 11.476476,1.863089 11.235051,1.9421007 10.962899,2.065008 C 10.690747,2.187916 10.458101,2.24937 10.26496,2.24937 C 9.8260053,2.24937 9.606528,2.1440207 9.606528,1.933322 L 9.606528,1.906985 C 9.606528,1.731403 9.87868,1.555821 10.422984,1.380239 C 10.739032,1.1344243 11.142871,1.011517 11.6345,1.011517 C 11.599383,0.74814367 11.454528,0.59450933 11.199935,0.550614 C 10.945341,0.50671867 10.739032,0.52866633 10.581008,0.616457 C 10.422984,0.70424833 10.308856,0.756923 10.238624,0.774481 L 10.238624,0.774481 L 10.554671,0.748144 C 10.607345,0.765702 10.624903,0.80081833 10.607346,0.853493 C 10.589787,0.88860967 10.405426,0.923726 10.054262,0.958842 C 9.8435633,0.9764 9.6679813,1.0905283 9.527516,1.301227 C 9.4924,1.318785 9.452894,1.3231747 9.408998,1.314396 C 9.3651027,1.3056167 9.343155,1.2748897 9.343155,1.222215 C 9.501179,0.97640033 9.7206567,0.844714 10.001588,0.827156 L 9.869901,0.827156 C 9.6416443,0.827156 9.430946,0.94128433 9.237806,1.169541 C 8.9393167,1.2397737 8.526699,1.5031463 7.999953,1.959659 C 7.9297203,1.9947757 7.8770457,2.0386713 7.841929,2.091346 L 8.105303,2.091346 C 8.140419,2.091346 8.1535877,2.1220727 8.144809,2.183526 C 8.136029,2.24498 8.105302,2.275707 8.052628,2.275707 L 7.815592,2.275707 C 7.7629173,2.275707 7.73658,2.3108233 7.73658,2.381056 C 7.73658,2.4337307 7.7541383,2.4864053 7.789255,2.53908 L 8.263327,2.275707 C 8.316001,2.258149 8.342338,2.2932653 8.342338,2.381056 L 7.894604,2.644429 L 7.894604,2.670766 L 9.474842,2.670766 C 9.861122,2.670766 10.106937,2.8244003 10.212286,3.131669 C 10.317635,3.438937 10.519555,3.566234 10.818044,3.51356 z M 12.187583,5.35717 C 12.187583,4.8479827 12.494851,4.593389 13.109388,4.593389 C 13.723925,4.593389 14.031194,4.8479827 14.031194,5.35717 L 14.241892,6.753047 L 15.427071,6.753047 L 15.427071,5.35717 C 15.427071,4.09298 15.172477,3.0394883 14.663289,2.196695 C 14.154102,1.3539017 13.574681,0.862272 12.925027,0.721806 C 12.503631,0.59889867 12.231479,0.607678 12.108571,0.748144 L 12.108571,2.091346 C 12.108571,2.477626 11.985664,2.670766 11.739849,2.670766 C 11.458918,2.8990227 11.300895,3.1185003 11.265778,3.329199 L 10.870718,6.753047 L 11.924211,6.753047 L 12.187583,5.35717 z M 10.027925,1.037854 C 10.115716,1.037854 10.185949,1.0905287 10.238624,1.195878 C 10.238624,1.3187853 10.098158,1.4065763 9.817226,1.459251 C 9.7118773,1.459251 9.659203,1.4241347 9.659203,1.353902 C 9.659203,1.17832 9.7821103,1.0729707 10.027925,1.037854 z M 11.739849,1.143203 L 11.739849,1.643612 L 11.792523,1.643612 L 11.792523,1.090529 L 11.739849,1.143203 z M 11.581825,1.169541 L 11.581825,1.643612 L 11.6345,1.643612 L 11.6345,1.143203 L 11.581825,1.169541 z M 9.817226,1.906985 C 9.9050173,2.0123337 10.067431,2.056229 10.304466,2.038671 C 10.541502,2.021113 10.914614,1.8982057 11.423801,1.669949 L 11.423801,1.669949 L 11.423801,1.222215 C 11.090196,1.222215 10.782927,1.3275643 10.501996,1.538263 C 10.045483,1.713845 9.817226,1.8367523 9.817226,1.906985 z M 10.422984,6.753047 L 10.818044,4.09298 C 10.712695,3.917398 10.572229,3.917398 10.396647,4.09298 L 9.97525,6.753047 L 10.422984,6.753047 z M 13.76782,7.227118 L 13.58346,5.35717 C 13.565901,5.146472 13.407877,5.041123 13.109388,5.041123 C 12.810899,5.041123 12.661654,5.146472 12.661654,5.35717 L 12.345607,7.227118 L 11.081417,7.227118 C 10.712695,8.631774 10.431764,11.037247 10.238624,14.443537 L 9.659203,14.733247 L 6.235354,10.203233 C 5.3925607,9.711603 5.0677343,10.001313 5.260875,11.072363 L 7.315184,16.65587 L 5.787621,17.314302 L 13.030376,17.314302 L 12.477293,16.971918 C 13.425436,12.547252 13.855612,9.2989853 13.76782,7.227118 z M 3.864998,8.28061 L 2.074062,4.725075 C 1.916038,4.4265857 1.731677,4.2071083 1.520979,4.066643 C 1.0293497,4.049085 0.607953,3.680363 0.256789,2.960477 C -0.094375,2.258149 -0.085596,1.6787283 0.283126,1.222215 L 0.04609,0.800818 L 0.941558,0.353084 L 1.152257,0.800818 C 1.731677,0.765702 2.196969,1.108087 2.548133,1.827973 C 2.899297,2.565417 2.9344133,3.1360583 2.653482,3.539897 C 2.618366,3.7857117 2.6710407,4.0666427 2.811506,4.38269 L 4.81314,8.28061 C 5.1994207,8.28061 5.743725,8.6142157 6.446053,9.281427 L 9.580191,13.548069 L 9.580191,13.548069 C 9.8962383,10.580734 10.177169,8.47375 10.422984,7.227118 L 9.501179,7.227118 L 9.948913,4.619726 C 9.931355,4.233446 10.019146,3.9349567 10.212286,3.724258 C 9.9840293,3.566234 9.8523427,3.3862627 9.817226,3.184344 C 9.78211,2.9824247 9.3343763,2.9078023 8.474025,2.960477 L 8.579373,3.302861 L 7.710243,3.302861 L 7.789255,2.881465 C 7.7365803,2.8639063 7.710243,2.8024527 7.710243,2.697104 C 7.5697777,2.6093127 7.499545,2.5127423 7.499545,2.407393 C 7.4819863,2.3196023 7.5083237,2.2405907 7.578557,2.170358 C 7.578557,1.9069847 7.7102433,1.7226237 7.973616,1.617275 C 8.3598967,1.2485523 8.7198397,1.0115167 9.053445,0.906168 C 9.246585,0.59012 9.4924,0.432096 9.79089,0.432096 C 10.493217,0.098490667 11.226272,-0.041974667 11.990053,0.0107 C 12.753835,0.063374 13.434215,0.28285133 14.031194,0.669132 C 14.680847,1.1607613 15.150528,1.85431 15.440239,2.749778 C 15.729949,3.645246 15.874804,4.5143767 15.874804,5.35717 L 15.874804,7.227118 L 14.505265,7.227118 C 14.3648,10.194453 13.952182,13.311034 13.267412,16.576859 L 14.610614,17.972734 L 4.81314,17.972734 L 4.681454,17.077267 L 6.393378,16.366159 L 6.419715,16.366159 C 5.2257577,13.04766 4.418081,10.861665 3.996685,9.808173 C 3.5226137,9.7203823 3.215345,9.5360213 3.074879,9.25509 C 2.9344137,8.9741593 3.1977867,8.6493327 3.864998,8.28061 L 3.864998,8.28061 z M 0.546499,0.932505 L 0.757197,1.353902 C 0.35335833,1.5646 0.30068367,2.038671 0.599173,2.776115 C 0.82742967,3.2326283 1.0732447,3.50917 1.336618,3.60574 C 1.5999907,3.70231 1.819468,3.7066997 1.99505,3.618909 C 2.18819,3.5311177 2.324266,3.351146 2.403278,3.078994 C 2.48229,2.806842 2.4076677,2.4425097 2.179411,1.985997 C 1.7755723,1.301227 1.380513,1.055412 0.994233,1.248552 L 0.757197,0.827156 L 0.546499,0.932505 z "
     id="path2464"
     sodipodi:nodetypes="ccssccccssccccsscccsssssccccccsccsccccccsccsccccscccccccccsssccccccccccccsccccccccccccscccccccccccccccsccccsccccccccccscccccsccccscsccccccccccscccccssscccc" />
</svg>
