<?xml version="1.0" encoding="UTF-8" standalone="no"?>
<svg
   xmlns:dc="http://purl.org/dc/elements/1.1/"
   xmlns:cc="http://web.resource.org/cc/"
   xmlns:rdf="http://www.w3.org/1999/02/22-rdf-syntax-ns#"
   xmlns:svg="http://www.w3.org/2000/svg"
   xmlns="http://www.w3.org/2000/svg"
   xmlns:sodipodi="http://sodipodi.sourceforge.net/DTD/sodipodi-0.dtd"
   xmlns:inkscape="http://www.inkscape.org/namespaces/inkscape"
   width="12.086785"
   height="17.972734"
   id="svg2"
   sodipodi:version="0.32"
   inkscape:version="0.45.1"
   sodipodi:docname="C6F.svg"
   sodipodi:docbase="/Users/rosmord/Desktop/JSesh Glyphs (TEMP)/signes C MAJ"
   inkscape:output_extension="org.inkscape.output.svg.inkscape">
  <metadata
     id="metadata9">
    <rdf:RDF>
      <cc:Work
         rdf:about="">
        <dc:format>image/svg+xml</dc:format>
        <dc:type
           rdf:resource="http://purl.org/dc/dcmitype/StillImage" />
      </cc:Work>
    </rdf:RDF>
  </metadata>
  <defs
     id="defs7" />
  <sodipodi:namedview
     inkscape:window-height="686"
     inkscape:window-width="1057"
     inkscape:pageshadow="2"
     inkscape:pageopacity="0.0"
     guidetolerance="10.0"
     gridtolerance="10.0"
     objecttolerance="10.0"
     borderopacity="1.0"
     bordercolor="#666666"
     pagecolor="#ffffff"
     id="base"
     inkscape:zoom="21.031858"
     inkscape:cx="6.0433927"
     inkscape:cy="8.9863672"
     inkscape:window-x="0"
     inkscape:window-y="22"
     inkscape:current-layer="svg2" />
  <path
     style="fill:#000000; stroke:none"
     d="M 8.75 0 C 8.689445 3.546477e-11 8.642194 0.04426 8.59375 0.125 C 8.496862 0.98084467 8.3791852 1.612448 8.25 2 C 8.120816 2.387552 7.97398 2.6661213 7.8125 2.84375 C 7.618724 2.892194 7.4718881 2.936454 7.375 2.96875 C 7.278112 3.001046 7.1916841 3.0070279 7.0625 3.03125 C 6.933316 3.055472 6.7411738 3.1510199 6.53125 3.3125 L 4.21875 3.75 L 4.21875 3.9375 L 4.59375 4.5 C 5.029746 4.629184 5.8805574 4.834336 7.15625 5.125 C 6.946326 5.6255887 6.8145918 6.1475881 6.75 6.65625 C 6.685408 7.164912 6.6130361 8.2138472 6.5 9.8125 L 7.1875 9.8125 C 7.058316 10.926713 6.9708419 12.233133 6.90625 13.71875 L 3.8125 9.5625 C 3.3177501 8.9405281 2.7428632 8.6152588 2.0625 8.5625 L 1.96875 4.5625 C 1.952602 4.2718356 2.041122 4.06773 2.21875 3.90625 C 2.8485231 3.5186979 3.141148 3.0490327 3.125 2.5 C 3.125 1.6441562 2.671483 1.21875 1.71875 1.21875 C 0.81446097 1.21875 0.29949 1.6441561 0.21875 2.5 C 0.21875 2.8068128 0.26301 3.071326 0.34375 3.28125 C 0.52137901 3.5880621 0.71352 3.689592 0.875 3.625 C 1.03648 3.54426 1.035434 3.353164 0.90625 3.0625 C 0.79321397 2.8364274 0.778112 2.581034 0.875 2.25 C 0.97188799 1.9189661 1.250458 1.75 1.71875 1.75 C 2.300079 1.733852 2.59375 1.9379581 2.59375 2.40625 C 2.5937501 2.8745427 2.300079 3.27079 1.71875 3.59375 C 1.411938 3.7229341 1.32551 4.0457634 1.40625 4.5625 L 1.375 8.625 L 1.09375 8.6875 C 0.86767733 8.7682393 0.63232199 8.9372059 0.40625 9.1875 C 0.180178 9.4377947 0.23146597 9.5986864 0.5625 9.6875 C 0.89353467 9.7763147 1.224438 10.092116 1.53125 10.625 C 1.595842 10.947961 1.889514 11.571489 2.40625 12.5 C 2.9229867 13.42851 3.392652 14.741959 3.8125 16.4375 L 2.125 16.96875 L 1.0625 17.96875 L 2.125 17.96875 L 11.09375 17.96875 L 11.09375 17.40625 L 10.5625 16.71875 C 10.917756 15.103949 11.123954 12.960773 11.15625 10.3125 L 12.09375 10.3125 C 12.09375 7.8418547 12.064592 6.1693909 12 5.28125 C 11.935408 4.3931093 11.348065 3.556354 10.25 2.78125 C 10.266148 2.2160693 10.199758 1.695116 10.0625 1.21875 C 9.9252413 0.74238333 9.8296932 0.383368 9.78125 0.125 C 9.6197693 -0.004184 9.5031374 0.0098720034 9.40625 0.1875 C 9.4708413 0.413572 9.4476658 0.78066135 9.375 1.28125 C 9.302334 1.781838 9.2510458 2.060408 9.21875 2.125 C 9.21875 1.705152 9.2127677 1.308904 9.15625 0.9375 C 9.099732 0.56609533 9.0333421 0.302628 8.96875 0.125 C 8.896084 0.04426 8.810555 -3.546477e-11 8.75 0 z M 7.1875 3.1875 C 7.292462 3.1652965 7.411186 3.175389 7.5 3.1875 C 7.677628 3.211722 7.8374734 3.2781121 8.03125 3.375 L 8.40625 3.375 L 8.40625 3.46875 L 8.03125 3.46875 C 7.8051773 3.355714 7.6302293 3.2973979 7.46875 3.28125 C 7.3072693 3.265102 7.1010718 3.2932141 6.875 3.40625 L 6.84375 3.3125 C 6.96486 3.255982 7.082538 3.2097035 7.1875 3.1875 z M 10.25 3.28125 C 11.089697 4.024058 11.552334 4.7129314 11.625 5.375 C 11.697665 6.0370687 11.71875 7.5788448 11.71875 9.96875 L 10.96875 9.96875 L 10.96875 7.21875 C 10.96875 6.702014 10.777654 6.4455741 10.40625 6.4375 C 10.034845 6.429426 9.8598974 6.5973458 9.84375 6.96875 L 9.84375 9.375 L 8.96875 9.375 L 8.96875 7.59375 C 9.0010467 6.6894613 8.9718884 6.116174 8.875 5.90625 C 8.778112 5.6963253 8.63023 5.4328578 8.46875 5.09375 C 9.1954107 4.964566 9.4599245 4.5381147 9.25 3.84375 C 9.637552 3.795306 9.9754844 3.6203579 10.25 3.28125 z M 7.125 3.40625 C 7.201703 3.386065 7.29426 3.390102 7.375 3.40625 C 7.53648 3.438546 7.6822701 3.4968621 7.84375 3.59375 L 8.46875 3.59375 L 8.4375 3.8125 L 7.84375 3.75 C 7.488494 3.863036 7.2461102 3.922398 7.125 3.90625 C 7.00389 3.890102 6.8640822 3.859898 6.71875 3.84375 L 6.71875 3.75 L 6.90625 3.5 C 6.978916 3.443482 7.048297 3.426435 7.125 3.40625 z M 7.4375 3.5 C 7.5182405 3.6130359 7.5031387 3.685408 7.40625 3.75 L 7.78125 3.65625 L 7.4375 3.5 z M 7 3.5625 L 6.84375 3.75 L 7.03125 3.75 C 6.982806 3.7177041 6.967704 3.659388 7 3.5625 z M 7.59375 5.53125 C 8.0458947 5.870358 8.1052569 6.4134413 7.75 7.15625 C 7.50778 8.0120947 7.346888 8.7452285 7.25 9.375 L 6.9375 9.375 C 6.985944 8.680636 7.0210841 7.9394285 7.09375 7.15625 C 7.166416 6.373072 7.3353821 5.8380629 7.59375 5.53125 z M 8.4375 7.15625 C 8.4719407 7.1423728 8.526167 7.1491853 8.5625 7.15625 L 8.5625 9.75 L 10.1875 9.75 L 10.1875 7.1875 L 10.40625 7.1875 C 10.454694 12.241827 10.233394 15.426909 9.78125 16.71875 L 10.25 17.40625 L 2.625 17.40625 L 4.6875 16.75 C 4.1869113 14.586167 3.6368 12.986075 3.03125 11.96875 C 2.4256993 10.951425 2.2858913 10.327896 2.625 10.09375 C 2.964108 9.8596033 3.3452539 10.086885 3.78125 10.78125 L 6.78125 14.84375 L 7.53125 14.84375 C 7.6220832 9.9236532 7.92089 7.364408 8.4375 7.15625 z M 1.9375 9.0625 C 2.2962885 9.0609863 2.6628365 9.2284746 3.0625 9.53125 C 2.3358393 9.45051 1.910434 9.6254578 1.78125 10.09375 C 1.571326 9.6739013 1.381276 9.4546934 1.1875 9.40625 C 0.993724 9.357806 1.133532 9.2622588 1.59375 9.125 C 1.7088045 9.0906855 1.8179038 9.0630046 1.9375 9.0625 z "
     id="path4" />
</svg>
