<?xml version="1.0" encoding="UTF-8" standalone="no"?>
<svg
   xmlns:dc="http://purl.org/dc/elements/1.1/"
   xmlns:cc="http://web.resource.org/cc/"
   xmlns:rdf="http://www.w3.org/1999/02/22-rdf-syntax-ns#"
   xmlns:svg="http://www.w3.org/2000/svg"
   xmlns="http://www.w3.org/2000/svg"
   xmlns:sodipodi="http://sodipodi.sourceforge.net/DTD/sodipodi-0.dtd"
   xmlns:inkscape="http://www.inkscape.org/namespaces/inkscape"
   width="13.479551"
   height="18"
   id="svg2"
   sodipodi:version="0.32"
   inkscape:version="0.45.1"
   sodipodi:docname="C7B.svg"
   sodipodi:docbase="/Users/rosmord/Travail/Gsigns/SThomasDetail/ManuelDeCodage/C"
   inkscape:output_extension="org.inkscape.output.svg.inkscape"
   version="1.0">
  <metadata
     id="metadata9">
    <rdf:RDF>
      <cc:Work
         rdf:about="">
        <dc:format>image/svg+xml</dc:format>
        <dc:type
           rdf:resource="http://purl.org/dc/dcmitype/StillImage" />
      </cc:Work>
    </rdf:RDF>
  </metadata>
  <defs
     id="defs7" />
  <sodipodi:namedview
     inkscape:window-height="581"
     inkscape:window-width="701"
     inkscape:pageshadow="2"
     inkscape:pageopacity="0.0"
     guidetolerance="10.0"
     gridtolerance="10.0"
     objecttolerance="10.0"
     borderopacity="1.0"
     bordercolor="#666666"
     pagecolor="#ffffff"
     id="base"
     height="18px"
     width="13.479551px"
     inkscape:zoom="18.033216"
     inkscape:cx="6.7397755"
     inkscape:cy="7.5193405"
     inkscape:window-x="0"
     inkscape:window-y="22"
     inkscape:current-layer="svg2" />
  <path
     style="fill:#000000;stroke:none"
     d="M 7.3187902,6.6276691 C 7.6732111,6.5213431 7.9153985,6.3264116 8.0453526,6.0428746 C 8.1753073,5.7593382 8.1428189,5.5082903 7.947887,5.289731 C 7.7529552,5.071171 7.4753256,4.9559843 7.114998,4.9441708 C 6.7546704,4.9323567 6.2880163,5.1804513 5.7150356,5.6884544 C 5.1420554,6.1964575 4.8496583,6.4740871 4.8378442,6.5213434 L 4.9618911,6.6099489 L 5.4049177,6.3795746 C 5.8656645,6.1905501 6.2496204,6.0960379 6.5567856,6.0960379 C 6.544971,6.2141786 6.4918077,6.2702952 6.3972957,6.2643879 C 6.3027837,6.2584812 6.1728296,6.2762023 6.0074333,6.3175512 C 5.8420369,6.3589001 5.5525932,6.4977149 5.1391021,6.7339957 C 5.1981718,6.793066 5.2690559,6.8226012 5.3517544,6.8226012 C 6.1551085,6.5863204 6.6040415,6.4681801 6.6985535,6.4681801 C 6.9112061,6.6690187 7.1002306,7.1238587 7.2656269,7.8327003 C 7.3010691,7.9980967 7.3719532,8.0807948 7.4782792,8.0807948 L 7.3187902,6.6276691 z M 7.7086526,5.5998489 C 7.4133022,5.4226385 7.1770217,5.3251729 6.9998113,5.3074521 C 6.8226009,5.2897307 6.5922272,5.3576611 6.3086902,5.5112434 L 6.2555278,5.4935231 C 6.2555278,5.3753825 6.4032031,5.2779166 6.6985535,5.2011255 C 6.9939046,5.1243343 7.3306043,5.2277069 7.7086526,5.5112434 L 7.7086526,5.5998489 z M 5.5821278,6.0960379 L 5.5644067,6.0428746 C 6.0724098,5.6648263 6.4918079,5.469895 6.8226012,5.458081 C 6.9171132,5.458081 7.1356725,5.5289651 7.4782792,5.6707333 L 7.5846058,5.6530122 C 7.6791178,5.6766403 7.7322807,5.7150358 7.7440948,5.7681989 C 7.7559089,5.8213619 7.7322811,5.8715715 7.6732113,5.9188278 C 7.3896743,5.8361299 7.2124639,5.794781 7.1415801,5.794781 C 6.8226009,5.8774788 6.5272501,5.8597577 6.2555278,5.7416177 L 5.5821278,6.0960379 z M 6.4681801,5.6530122 C 6.550878,5.7120825 6.7576233,5.7298036 7.0884159,5.7061755 C 7.0057181,5.6589192 6.9230202,5.623477 6.8403223,5.5998489 C 6.7576238,5.5762208 6.6335765,5.5939419 6.4681801,5.6530122 z M 5.3871966,15.417306 C 5.1154736,14.566696 4.7137968,13.544783 4.1821662,12.351566 C 3.6505344,11.158349 3.2902065,10.479043 3.1011827,10.313646 C 2.9357858,10.160063 2.7113191,10.14825 2.4277827,10.278204 C 2.5104806,10.573554 2.7172261,12.511055 3.0480194,16.090704 C 3.0598329,16.51601 2.9357854,16.988572 2.6758772,17.50839 L 8.1339581,17.50839 C 8.1339581,17.224852 8.0453529,16.882245 7.8681425,16.480569 C 8.2225634,15.192839 8.4647508,13.633388 8.594705,11.802213 C 8.7246594,9.9710387 8.7955429,8.8014505 8.8073573,8.2934472 C 8.7955429,8.151679 8.7069383,8.0630737 8.5415417,8.0276315 C 8.3407037,8.0748878 8.2402847,8.163493 8.2402847,8.2934472 L 8.0453526,11.199699 L 7.2301847,11.199699 L 7.2124636,11.128813 L 7.5137214,8.3288894 C 7.2301845,8.2343769 7.0884159,8.0689805 7.0884159,7.8327003 C 7.0175322,7.8327003 6.887578,8.222563 6.6985535,9.0022885 C 6.2141786,12.20389 5.7770596,14.342229 5.3871966,15.417306 z M 10.437693,0.24809451 C 10.295925,0.15358256 10.136435,0.25990886 9.9592243,0.56707341 C 9.8292708,0.88605206 9.5900372,1.1636817 9.2415229,1.3999624 C 8.8930085,1.6362432 8.5563091,1.9315937 8.2314237,2.2860139 C 7.9065378,2.6404347 7.6436756,2.9771347 7.442837,3.2961139 L 9.1794995,3.2783928 C 9.486664,2.6995053 9.6697817,2.2801074 9.7288518,2.0201991 C 9.7879218,1.7602903 9.8381309,1.5417306 9.8794807,1.3645202 C 9.9208296,1.1873099 10.059644,0.9923783 10.295925,0.77972573 C 10.508578,0.50800337 10.555833,0.33079297 10.437693,0.24809451 z M 7.9744683,4.8732864 C 8.3997735,5.0032406 8.7246594,5.174544 8.9491261,5.3871966 L 11.23514,0.28353671 L 9.5161986,3.5796506 L 6.7162746,3.5619295 L 6.9643691,4.7137974 C 7.2006499,4.6665411 7.5373495,4.7197042 7.9744683,4.8732864 z M 2.2505726,9.6402463 L 2.2505726,5.8125012 C 2.2505726,5.4344522 2.108804,5.2454278 1.8252671,5.2454278 C 1.6953129,5.2926841 1.5417306,5.3871966 1.3645202,5.5289653 C 1.0573557,5.8006877 0.83288902,6.1432944 0.69112024,6.5567856 C 0.54935203,6.9702761 0.44302601,7.2951618 0.3721422,7.5314425 C 0.13586146,7.9213056 0.011814066,7.8681423 0,7.3719526 C 0.25990886,6.4622731 0.45779374,5.8656647 0.59365463,5.5821278 C 0.72951609,5.2985913 0.81516792,5.1095669 0.85061012,5.0150544 C 0.9687502,4.7197039 1.2168447,4.4243534 1.5948937,4.1290029 C 2.0674546,3.6328133 2.4573175,3.2606714 2.7644827,3.0125772 C 3.1425316,2.8826225 3.3020209,2.9475995 3.2429506,3.2075084 C 3.1366246,3.4437892 2.9948561,3.6091854 2.8176451,3.7036974 C 2.4159686,4.0935605 2.1501533,4.4125394 2.0201991,4.6606341 C 2.5400163,4.6842617 2.8058316,5.0682174 2.8176451,5.8125012 L 2.8176451,9.6579674 L 2.8353671,9.6402463 C 3.532394,9.6402463 4.3711898,11.117 5.3517544,14.070507 L 5.9188278,11.093372 L 5.2985911,11.093372 C 5.7947801,9.1204294 6.2614343,7.8031655 6.6985535,7.1415801 L 6.6985535,7.106137 C 6.6631113,7.106137 6.5922272,6.993904 6.4859012,6.7694379 C 6.1314804,6.8166942 5.6825474,6.9466486 5.1391021,7.1593012 C 5.0445901,7.0293465 4.9057753,6.9082524 4.7226575,6.7960191 C 4.5395404,6.6837858 4.4657027,6.5804132 4.5011442,6.4859012 C 4.5129583,6.4150168 4.9028213,6.0783171 5.6707333,5.4758021 C 5.9778978,5.074125 6.2968765,4.8378442 6.6276691,4.7669599 L 6.3441333,3.2961139 L 7.1415801,3.2783928 C 7.3187905,2.9476001 7.4487446,2.7290405 7.5314425,2.6227139 C 7.047067,2.2801071 6.6985532,1.9729426 6.4859012,1.7012202 C 6.2732486,1.4294973 6.18169,1.154821 6.2112255,0.87719134 C 6.2407603,0.59956166 6.3382259,0.41939788 6.5036223,0.3367 C 6.6690187,0.25400154 6.846229,0.22446638 7.0352535,0.24809451 C 7.224278,0.27172264 7.3660462,0.40758411 7.4605581,0.6556789 C 7.4605581,0.91558716 7.4073951,1.0780299 7.3010691,1.1430069 C 7.1947431,1.207984 7.0736491,1.2375192 6.937787,1.2316124 C 6.8019261,1.2257051 6.7458098,1.1754955 6.7694379,1.0809835 C 6.7930655,1.0337272 6.8580425,1.0219132 6.9643691,1.0455413 C 7.1179514,1.0219132 7.2065566,0.9451221 7.2301847,0.81516792 C 7.2419988,0.68521378 7.1976962,0.59365491 7.0972769,0.54049134 C 6.9968577,0.48732833 6.893485,0.47256089 6.787159,0.49618902 C 6.6808324,0.51981715 6.5951806,0.57888719 6.5302035,0.67339914 C 6.4652265,0.76791166 6.4415983,0.89491269 6.4593191,1.0544023 C 6.4770405,1.2138913 6.5804134,1.4058692 6.7694379,1.6303358 C 6.9584624,1.8548025 7.2656272,2.1206181 7.6909324,2.4277827 C 7.7736303,2.3096426 7.9685615,2.09699 8.2757261,1.7898249 C 8.5828906,1.4826603 8.8487062,1.2729614 9.0731729,1.160728 C 9.2976396,1.0484947 9.4571286,0.92149391 9.5516408,0.77972573 C 9.646153,0.63795752 9.7111307,0.51391012 9.7465729,0.40758353 C 9.9001552,0.1594893 10.041923,0.026581503 10.171878,0.008860119 C 10.301832,-0.0088606925 10.419972,0.017721098 10.526299,0.088605489 C 10.644439,0.17130337 10.709415,0.26581561 10.72123,0.3721422 C 10.733044,0.47846821 10.644439,0.64386455 10.455414,0.86833122 C 10.372715,0.9510291 10.287064,1.0721228 10.198459,1.2316124 C 10.109853,1.3911021 10.018295,1.7012202 9.923783,2.1619671 L 11.111093,3.5527137e-15 L 11.589561,0.23037341 L 9.1972206,5.5821278 C 9.4335007,5.8184085 9.5634552,6.7280887 9.5870839,8.3111683 L 9.4984784,11.23514 L 9.0731729,11.23514 C 8.9668472,13.007244 8.7364737,14.755721 8.3820526,16.480569 C 8.5828912,16.894059 8.7482872,17.407969 8.8782408,18.022298 L 1.7366616,18.022298 C 2.2801069,17.289828 2.5518295,16.69322 2.5518295,16.232474 L 1.9847569,10.402252 L 1.3822413,10.384531 C 1.3940554,10.053737 1.6834991,9.8056429 2.2505726,9.6402463 z "
     id="path4" />
</svg>
