<?xml version="1.0" encoding="UTF-8" standalone="no"?>
<svg
   xmlns:dc="http://purl.org/dc/elements/1.1/"
   xmlns:cc="http://web.resource.org/cc/"
   xmlns:rdf="http://www.w3.org/1999/02/22-rdf-syntax-ns#"
   xmlns:svg="http://www.w3.org/2000/svg"
   xmlns="http://www.w3.org/2000/svg"
   xmlns:sodipodi="http://sodipodi.sourceforge.net/DTD/sodipodi-0.dtd"
   xmlns:inkscape="http://www.inkscape.org/namespaces/inkscape"
   width="8.6665249"
   height="18"
   id="svg2"
   sodipodi:version="0.32"
   inkscape:version="0.45.1"
   sodipodi:docname="C81.svg"
   sodipodi:docbase="/Users/rosmord/Travail/Gsigns/SThomasDetail/ManuelDeCodage/C"
   inkscape:output_extension="org.inkscape.output.svg.inkscape"
   version="1.0">
  <metadata
     id="metadata9">
    <rdf:RDF>
      <cc:Work
         rdf:about="">
        <dc:format>image/svg+xml</dc:format>
        <dc:type
           rdf:resource="http://purl.org/dc/dcmitype/StillImage" />
      </cc:Work>
    </rdf:RDF>
  </metadata>
  <defs
     id="defs7" />
  <sodipodi:namedview
     inkscape:window-height="581"
     inkscape:window-width="701"
     inkscape:pageshadow="2"
     inkscape:pageopacity="0.0"
     guidetolerance="10.0"
     gridtolerance="10.0"
     objecttolerance="10.0"
     borderopacity="1.0"
     bordercolor="#666666"
     pagecolor="#ffffff"
     id="base"
     height="18px"
     width="8.6665249px"
     inkscape:zoom="16.038643"
     inkscape:cx="4.3337235"
     inkscape:cy="6.2159605"
     inkscape:window-x="236"
     inkscape:window-y="47"
     inkscape:current-layer="svg2" />
  <path
     style="fill:#000000;stroke:none"
     d="M 2.7503991,5.9252432 L 2.6485332,5.8233765 C 2.5466665,5.7894209 2.6372145,5.6196432 2.9201772,5.3140436 L 2.9201772,5.0763541 C 3.2370956,4.6122953 3.5709917,4.3519696 3.9218656,4.2953772 C 4.2727396,4.2387842 4.6349321,4.3576285 5.0084435,4.6519099 C 5.3819543,4.9461919 5.2687691,5.4045919 4.668888,6.0271099 C 4.5670213,6.0837023 4.5160879,6.2025469 4.5160879,6.3836434 C 4.5160879,6.6100137 4.5726806,6.7231989 4.685866,6.7231989 L 4.9405321,6.7231989 C 5.3366803,6.7118802 5.5856877,6.8873172 5.6875544,7.2495098 C 5.7894211,7.4758801 5.9705175,8.2172428 6.2308433,9.4735988 L 6.2478214,9.7452421 L 6.0780433,12.05422 C 6.1119988,12.257953 6.1035101,12.43339 6.052577,12.580531 C 6.0016434,12.727672 5.8290358,12.795583 5.5347543,12.784265 C 5.5121175,12.931405 5.455525,13.067227 5.364977,13.19173 L 5.1612435,13.19173 C 5.1499249,13.010634 5.1499249,12.767286 5.1612435,12.461687 C 5.1725622,12.156087 5.2574512,11.918398 5.4159103,11.74862 C 5.4045917,11.578842 5.3706361,11.346812 5.3140436,11.052531 C 5.2574512,10.75825 5.2800883,10.339464 5.381955,9.7961754 C 5.1782211,9.3434348 5.0367394,8.8567389 4.9575101,8.3360876 C 4.7424585,8.8454204 4.6349327,9.3207979 4.6349327,9.7622201 C 4.6349327,9.9206798 4.73114,10.288532 4.9235548,10.865775 C 5.0141028,11.103465 5.0367397,11.409065 4.9914654,11.782576 L 4.9914654,12.750309 C 4.9801472,13.180413 5.0593771,13.559583 5.2291549,13.88782 C 5.6139844,14.476383 5.6422807,15.545982 5.3140436,17.096619 C 5.630962,17.583315 5.5913471,17.905893 5.1951989,18.064352 L 3.4295108,18.08133 C 3.2484143,18.08133 3.1239105,17.968145 3.0559993,17.741773 C 3.0446811,17.662544 3.1974812,17.611611 3.5143995,17.588975 C 3.7181324,17.47579 3.9162066,17.385242 4.1086218,17.317331 C 4.3010366,17.249419 4.4198808,17.096619 4.4651546,16.85893 C 4.4991101,15.8629 4.4368583,15.144175 4.2783992,14.702753 C 4.1538956,14.589568 4.0746659,14.41979 4.0407104,14.19342 C 3.8482956,13.797272 3.7181327,13.457716 3.6502216,13.174753 L 3.3955548,13.785952 C 3.4521477,14.385834 3.3983849,14.88102 3.2342664,15.271508 C 3.0701479,15.661997 2.7843552,16.270367 2.3768883,17.096619 C 2.5579849,17.526722 2.5466665,17.8493 2.342933,18.064352 L 0.35653352,18.064352 C 0.16411877,18.053033 0.045274268,17.951167 0,17.758752 C 0,17.668204 0.19241475,17.617271 0.57724423,17.605952 C 0.7470221,17.504085 0.91962936,17.424856 1.0950661,17.368264 C 1.2705033,17.311671 1.4034959,17.147553 1.4940439,16.875909 C 1.9807401,15.608235 2.195792,14.646161 2.1391996,13.989687 C 2.105244,13.627494 2.1788143,13.242664 2.3599103,12.835198 C 2.3033179,12.235316 2.4900735,11.397746 2.9201772,10.322487 C 2.9201772,9.6207385 2.8296292,9.1566794 2.6485332,8.9303099 C 2.5353478,8.8623985 2.51837,8.6530062 2.5975998,8.3021323 C 1.748711,9.0378354 1.0865776,9.411347 0.61119955,9.4226654 C 0.37351105,9.4339839 0.22637057,9.3038207 0.16977812,9.0321758 C 0.22637057,8.4322939 0.58290384,7.6399981 1.2393779,6.6552875 C 1.4431108,6.17991 1.7487107,5.9309025 2.1561776,5.9082651 C 2.1788145,5.9648581 2.1731551,6.0327693 2.1391996,6.1119986 C 2.342933,6.0214505 2.5296886,5.9705175 2.6994665,5.9591993 L 2.7503991,5.9252432 z M 4.4481765,5.9082651 C 4.9122358,5.4328876 5.0706953,5.1018212 4.9235548,4.9150658 C 4.7764138,4.7283104 4.5783397,4.6122956 4.3293325,4.5670213 C 4.0803253,4.521747 3.8850809,4.5274063 3.7435993,4.5839993 C 3.6021176,4.6405917 3.4125326,4.8103696 3.174844,5.0933329 C 3.4238512,5.127288 3.6049476,5.2348138 3.718133,5.4159103 C 3.718133,5.2008587 3.8256587,5.0933329 4.0407104,5.0933329 C 4.3576288,5.1046511 4.5160879,5.3310211 4.5160879,5.7724431 L 4.4481765,5.9082651 z M 3.0899546,5.2461322 L 3.1069326,5.3140436 C 3.1748438,5.2914062 3.2484141,5.3027246 3.3276434,5.3479989 C 3.4068732,5.3932732 3.486103,5.4668435 3.5653329,5.5687097 L 3.5823102,5.5177771 C 3.5030809,5.3932729 3.4210216,5.3112137 3.3361324,5.2715993 C 3.2512437,5.2319844 3.1691844,5.2234953 3.0899546,5.2461322 z M 3.4125328,5.6535991 L 3.293688,5.6535991 C 3.1352289,5.6422804 3.0559993,5.5743693 3.0559993,5.4498657 C 2.9314957,5.5517324 2.8409476,5.6535991 2.7843552,5.7554658 C 2.8749033,5.823377 2.9145179,5.8912881 2.9031992,5.9591993 C 2.8239699,5.9818361 2.7900143,6.0157915 2.8013325,6.0610652 C 2.7900143,6.1063395 2.8183108,6.134636 2.8862219,6.1459547 L 2.8862219,6.3496873 C 2.8862219,6.4062798 3.0503402,6.4458947 3.3785767,6.4685321 C 3.7068138,6.1516137 3.8709323,5.913925 3.8709323,5.7554658 L 3.5992882,5.7554658 C 3.5540139,5.7554658 3.5313768,5.7158509 3.5313768,5.6366211 C 3.4408287,5.5347543 3.3700882,5.4611841 3.3191551,5.4159103 C 3.2682215,5.3706361 3.1918213,5.3536583 3.0899546,5.364977 L 3.0899546,5.4328876 C 3.1012733,5.455525 3.1352291,5.4640141 3.1918221,5.4583547 C 3.2484145,5.4526953 3.3219848,5.500799 3.4125328,5.6026657 L 3.4125328,5.6535991 z M 3.853955,5.5177771 C 4.0237329,5.5177771 4.1086218,5.6139844 4.1086218,5.8063992 C 4.1086218,5.9309028 3.9162068,6.1629325 3.5313768,6.5024882 C 3.4408287,6.6043544 3.3955548,6.7458355 3.3955548,6.9269316 C 3.3955548,7.1759393 3.5087399,7.3004431 3.7351102,7.3004431 C 3.9727992,7.3004431 4.0888141,7.2381913 4.0831547,7.1136877 C 4.0774954,6.9891836 4.0718361,6.9608871 4.0661767,7.0287983 C 4.0605179,7.0967099 4.0350513,7.1448136 3.989777,7.1731093 C 3.9445027,7.2014061 3.8652732,7.2098951 3.7520883,7.1985764 C 3.5936291,7.1985764 3.5087402,7.1080281 3.4974215,6.9269316 C 3.5087402,6.7005618 3.6417328,6.4911692 3.8963993,6.298754 C 4.1510659,6.1063397 4.295377,5.9252437 4.3293325,5.7554658 C 4.3293325,5.4838212 4.2331252,5.3479989 4.0407104,5.3479989 C 3.927525,5.3366803 3.8652732,5.3932729 3.853955,5.5177771 z M 2.0203556,6.2647987 C 1.9750813,6.2195249 1.9637626,6.1572731 1.9863995,6.0780433 C 1.7713478,6.1346357 1.5676147,6.361006 1.3751999,6.7571542 C 1.2733332,6.9608876 1.0582813,7.3570359 0.73004431,7.9455988 C 0.56026644,8.2511981 0.45274063,8.6077317 0.40746688,9.0151985 C 0.40746688,9.0944276 0.46971868,9.1736575 0.59422228,9.2528865 C 1.1148741,9.1510206 1.8279406,8.6813019 2.7334219,7.843732 L 2.9031992,7.843732 L 2.8013325,8.5058649 C 2.8013325,8.585094 2.8635845,8.7463831 2.9880887,8.9897315 C 3.1125922,9.2330798 3.174844,9.6829911 3.174844,10.339464 C 2.756059,11.403405 2.5523255,12.314546 2.5636437,13.072886 C 2.3825477,13.355849 2.3146365,13.712383 2.3599103,14.142487 C 2.4504588,14.731049 2.1901332,15.806309 1.5789334,17.368264 L 0.71306627,17.758752 L 0.32257743,17.77573 L 0.40746688,17.877597 L 2.1391996,17.877597 C 2.3542512,17.741774 2.3542512,17.481449 2.1391996,17.096619 C 2.2863401,16.700471 2.507051,16.188309 2.8013325,15.560131 C 3.095614,14.931953 3.2144584,14.323582 3.157866,13.735019 L 3.5483548,12.801242 C 3.4578068,12.473005 3.4125328,12.093835 3.4125328,11.663732 C 3.3559398,11.844828 3.2257769,11.935376 3.022044,11.935376 C 2.8862217,11.935376 2.8183105,11.844828 2.8183105,11.663732 C 2.8069919,11.573183 2.835288,11.488294 2.9031992,11.409064 C 2.9597922,11.352472 2.9937477,11.227968 3.0050659,11.035554 L 3.0899546,11.035554 L 3.0899546,11.256265 L 3.1918221,11.120443 C 3.2936883,11.109124 3.3502808,11.160057 3.3615994,11.273242 C 3.5766516,11.273242 3.6841776,11.454339 3.6841776,11.816531 C 3.7407701,12.574872 3.9671402,13.412442 4.3632878,14.329241 C 4.7141623,14.668797 4.8103696,15.653508 4.6519099,17.283375 L 3.7351102,17.724796 L 3.3106661,17.758752 L 3.3955548,17.877597 L 5.1442655,17.877597 C 5.3253621,17.730456 5.2914065,17.475789 5.0423988,17.113597 C 5.1669029,16.502397 5.2404734,15.894027 5.2631103,15.288487 C 5.2857471,14.682946 5.1612435,14.199079 4.8895995,13.836887 C 4.7764141,13.316235 4.7198213,12.937064 4.7198213,12.699375 C 4.7198213,12.427731 4.7339694,12.113642 4.7622657,11.757109 C 4.7905619,11.400576 4.7367992,11.052531 4.6009774,10.712976 C 4.4651551,10.37342 4.3972439,10.028205 4.3972439,9.6773315 C 4.3972439,9.281183 4.5557031,8.6982799 4.8726214,7.9286207 L 5.1272882,7.9455988 C 5.2065175,8.6813019 5.3593174,9.2981611 5.5856877,9.7961754 C 5.4725028,10.328147 5.4385472,10.746932 5.483821,11.052531 C 5.5290953,11.358131 5.5630508,11.618457 5.5856877,11.833509 C 5.3932729,11.991968 5.302725,12.382457 5.3140436,13.004976 C 5.3932729,12.722012 5.4668432,12.586189 5.5347543,12.597508 C 5.6705766,12.620146 5.7752731,12.597509 5.8488435,12.529597 C 5.922414,12.461686 5.9309028,12.297567 5.8743098,12.037242 C 5.9195841,11.686368 5.9705175,10.922368 6.0271099,9.7452421 C 6.0271099,9.5415094 5.8629914,8.7661906 5.5347543,7.4192871 C 5.4215694,7.1023687 5.2121769,6.9439096 4.9065767,6.9439096 L 4.4991099,6.9439096 C 4.4991099,7.2381911 4.2897174,7.6399984 3.8709323,8.1493314 C 3.9501621,8.1493314 3.989777,8.1719691 3.989777,8.2172436 C 3.9784588,8.46625 3.8935699,8.5907536 3.7351102,8.5907536 C 3.5653329,8.5907536 3.4804442,8.46625 3.4804442,8.2172436 C 3.4804442,8.1719691 3.5143995,8.154991 3.5823102,8.1663095 C 3.2993474,7.6456577 3.157866,7.2495095 3.157866,6.9778649 C 2.7956734,6.9665467 2.5579847,7.0457766 2.4447997,7.2155544 L 1.1714665,8.641687 C 0.96773307,8.6982792 0.87718479,8.6643239 0.89982167,8.5398203 C 1.1601481,7.9965321 1.3695409,7.4362657 1.528,6.8590209 C 1.8449184,6.8590209 2.0260144,6.8024285 2.0712882,6.6892436 L 2.0712882,6.434576 C 2.05997,6.344028 2.2580441,6.2365022 2.6655104,6.1119986 L 2.6485332,6.0610652 C 2.5127109,6.0610652 2.3033183,6.1289764 2.0203556,6.2647987 z M 4.1086218,6.2817767 L 4.2614219,6.6383102 L 4.3293325,6.6383102 C 4.295377,6.536443 4.2783992,6.3723244 4.2783992,6.1459547 L 4.1086218,6.2817767 z M 3.2087994,6.7231989 L 3.2087994,6.5534215 L 3.0050659,6.5534215 C 2.891881,6.5534215 2.8126515,6.5024879 2.7673772,6.4006207 L 2.7673772,6.2308433 L 2.6824885,6.196888 C 2.4447995,6.2534804 2.2976587,6.3327098 2.2410663,6.434576 C 2.2750218,6.6156726 2.2637034,6.7713023 2.207111,6.9014653 C 2.1505186,7.0316287 1.9694222,7.0910511 1.6638221,7.0797324 C 1.5393185,7.5777468 1.3921778,7.9852137 1.2223999,8.3021323 L 2.2240883,7.0967104 C 2.3372736,6.8590215 2.6655107,6.7345176 3.2087994,6.7231989 z M 3.9727998,6.4175987 C 3.7464289,6.5986953 3.6332435,6.7684729 3.6332435,6.9269316 C 3.6219253,7.0287988 3.6558809,7.0853918 3.7351102,7.0967104 C 3.8935699,7.0967104 3.9727998,7.0684137 3.9727998,7.0118202 C 3.9727998,6.9552278 3.9671404,6.9269316 3.9558217,6.9269316 C 3.9105474,6.9269316 3.8879103,6.9099541 3.8879103,6.875999 C 3.8879103,6.8420434 3.9445031,6.8250656 4.0576884,6.8250656 C 4.1708734,6.8250656 4.2274658,6.9156139 4.2274658,7.0967104 C 4.2274658,7.3230802 4.0633473,7.4306058 3.7351102,7.4192871 C 3.4408287,7.4192871 3.293688,7.260828 3.293688,6.9439096 C 3.293688,7.2268729 3.3955548,7.5720877 3.5992882,7.9795541 L 3.9048884,7.9795541 C 4.210488,7.5720877 4.3632878,7.204236 4.3632878,6.875999 C 4.1821918,6.7401767 4.0520291,6.5873766 3.9727998,6.4175987 z M 3.6502216,8.0644428 L 3.7011549,8.2511989 L 3.5823102,8.2511989 C 3.5823102,8.4209763 3.6275845,8.5058649 3.718133,8.5058649 C 3.8199991,8.5058649 3.8709323,8.4209763 3.8709323,8.2511989 L 3.7520883,8.2511989 L 3.8199989,8.0644428 L 3.6502216,8.0644428 z M 3.3955548,9.6943095 C 3.4295103,9.6829911 3.4578068,9.6886499 3.4804442,9.7112868 C 3.5030811,9.7339237 3.4974217,9.7791974 3.4634662,9.8471088 C 3.4521475,9.9150202 3.4097028,9.9348277 3.3361324,9.9065312 C 3.2625624,9.8782347 3.2823698,9.8074947 3.3955548,9.6943095 z M 3.2087994,11.22231 C 3.0050659,11.448679 2.8975401,11.601479 2.8862219,11.680709 L 2.9201772,11.697687 C 2.9767697,11.686369 3.0390215,11.626946 3.1069326,11.51942 C 3.1748438,11.411894 3.2314365,11.329834 3.2767108,11.273242 L 3.2087994,11.22231 z M 3.293688,11.375109 L 3.039022,11.765598 C 3.0503402,11.765598 3.1069326,11.759939 3.2087994,11.74862 C 3.3106661,11.737302 3.3615994,11.612798 3.3615994,11.375109 L 3.293688,11.375109 z M 2.9201772,1.2223999 L 2.9371553,1.2223999 L 2.9371553,0.88284439 C 2.9371553,0.72438522 2.8692441,0.64515563 2.7334219,0.64515563 L 2.7334219,0.62817759 C 2.8805623,0.62817759 2.9541326,0.71306652 2.9541326,0.88284439 L 2.9541326,1.2223999 L 2.9711106,1.2223999 L 2.9711106,0.88284439 C 2.9711106,0.70174783 2.9088588,0.61119955 2.7843552,0.61119955 C 2.716444,0.61119955 2.6711701,0.62817734 2.6485332,0.66213291 C 2.8296292,0.66213291 2.9201772,0.7357034 2.9201772,0.88284439 L 2.9201772,1.2223999 z M 3.2427547,1.4600886 L 3.2427547,1.4261333 L 2.8862219,1.4261333 L 2.8692439,1.4600886 L 3.2427547,1.4600886 z M 3.2257774,1.3751999 L 3.2087994,1.3412439 L 2.9031992,1.3412439 L 2.8862219,1.3751999 L 3.2257774,1.3751999 z M 3.2087994,1.3072885 L 3.2087994,1.2563552 L 2.9201772,1.2563552 L 2.9201772,1.3072885 L 3.2087994,1.3072885 z M 3.2087994,0.88284439 C 3.1974812,0.7357034 3.2823701,0.66213291 3.4634662,0.66213291 C 3.4295106,0.62817734 3.3842363,0.61119955 3.3276434,0.61119955 C 3.2031403,0.61119955 3.1408887,0.70174783 3.1408887,0.88284439 L 3.1408887,1.2223999 L 3.157866,1.2223999 L 3.157866,0.88284439 C 3.157866,0.71306652 3.2370956,0.62817759 3.3955548,0.62817759 L 3.3955548,0.64515563 C 3.2484143,0.64515563 3.174844,0.72438522 3.174844,0.88284439 L 3.174844,1.2223999 L 3.2087994,1.2223999 L 3.2087994,0.88284439 z M 3.0729773,0.69608899 L 3.0729773,1.2223999 L 3.1069326,1.2223999 L 3.1069326,0.88284439 C 3.1069326,0.769659 3.1182513,0.69042939 3.1408887,0.64515563 C 3.1182513,0.62251824 3.0899548,0.61119955 3.0559993,0.61119955 C 3.0220437,0.61119955 2.9937475,0.62251824 2.9711106,0.64515563 C 2.9937475,0.69042939 3.0050659,0.769659 3.0050659,0.88284439 L 3.0050659,1.2223999 L 3.039022,1.2223999 L 3.039022,0.69608899 L 3.0729773,0.69608899 z M 5.0254215,0.69608899 L 5.0254215,1.2223999 L 5.0593768,1.2223999 L 5.0593768,0.88284439 C 5.0593768,0.769659 5.0706955,0.69042939 5.0933329,0.64515563 C 5.0706955,0.62251824 5.042399,0.61119955 5.0084435,0.61119955 C 4.9744879,0.61119955 4.9461917,0.62251824 4.9235548,0.64515563 C 4.9461917,0.69042939 4.9575101,0.769659 4.9575101,0.88284439 L 4.9575101,1.2223999 L 4.9914654,1.2223999 L 4.9914654,0.69608899 L 5.0254215,0.69608899 z M 4.8726214,1.2223999 L 4.8895995,1.2223999 L 4.8895995,0.88284439 C 4.8895995,0.72438522 4.8216883,0.64515563 4.685866,0.64515563 L 4.685866,0.62817759 C 4.8330065,0.62817759 4.9065767,0.71306652 4.9065767,0.88284439 L 4.9065767,1.2223999 L 4.9235548,1.2223999 L 4.9235548,0.88284439 C 4.9235548,0.70174783 4.861303,0.61119955 4.7367994,0.61119955 C 4.6802064,0.61119955 4.6349324,0.62817734 4.6009774,0.66213291 C 4.7820734,0.66213291 4.8726214,0.7357034 4.8726214,0.88284439 L 4.8726214,1.2223999 z M 5.1612435,1.3072885 L 5.1612435,1.2563552 L 4.8726214,1.2563552 L 4.8726214,1.3072885 L 5.1612435,1.3072885 z M 5.1782216,1.3751999 L 5.1612435,1.3412439 L 4.8556434,1.3412439 L 4.8386661,1.3751999 L 5.1782216,1.3751999 z M 5.1951989,1.4600886 L 5.1782216,1.4261333 L 4.8216881,1.4261333 L 4.8216881,1.4600886 L 5.1951989,1.4600886 z M 5.1612435,0.88284439 C 5.1499249,0.7357034 5.2348138,0.66213291 5.4159103,0.66213291 C 5.3932735,0.62817734 5.3479992,0.61119955 5.2800875,0.61119955 C 5.1555845,0.61119955 5.0933329,0.70174783 5.0933329,0.88284439 L 5.0933329,1.2223999 L 5.1103102,1.2223999 L 5.1103102,0.88284439 C 5.1103102,0.71306652 5.1895398,0.62817759 5.3479989,0.62817759 L 5.3479989,0.64515563 C 5.2008585,0.64515563 5.1272882,0.72438522 5.1272882,0.88284439 L 5.1272882,1.2223999 L 5.1612435,1.2223999 L 5.1612435,0.88284439 z M 4.8216881,1.511022 C 4.7085027,1.8166216 4.6349324,2.2184289 4.6009774,2.7164438 C 4.5783399,3.0107253 4.5670213,3.3333032 4.5670213,3.6841776 C 4.759436,3.7747252 4.9150655,3.8001917 5.0339098,3.7605773 C 5.1527545,3.7209624 5.2914065,3.7068143 5.4498657,3.718133 C 5.4498657,3.3446216 5.4385472,3.0107253 5.4159103,2.7164438 C 5.3819548,2.2184289 5.3140436,1.8166216 5.2121769,1.511022 L 4.8216881,1.511022 z M 5.8233765,1.2393779 C 5.8233765,1.1375112 5.7611247,1.0865778 5.6366211,1.0865778 C 5.4668437,1.0865778 5.381955,1.2280592 5.381955,1.511022 C 5.4838212,2.1674961 5.5347543,2.7956737 5.5347543,3.3955548 L 5.5347543,3.7351102 L 5.7894211,3.8030216 L 5.7894211,3.3955548 C 5.7554656,2.5693033 5.681895,1.9071702 5.5687097,1.4091553 C 5.7498062,1.4091553 5.8346951,1.3525628 5.8233765,1.2393779 z M 4.0407104,0.69608899 L 4.0407104,1.2223999 L 4.0916438,1.2223999 L 4.0916438,0.88284439 C 4.0916438,0.769659 4.0973031,0.69042939 4.1086218,0.64515563 C 4.0973031,0.62251824 4.0746659,0.61119955 4.0407104,0.61119955 C 4.0067548,0.61119955 3.9784586,0.62251824 3.9558217,0.64515563 C 3.9784586,0.69042939 3.989777,0.769659 3.989777,0.88284439 L 3.989777,1.2223999 L 4.0237324,1.2223999 L 4.0237324,0.69608899 L 4.0407104,0.69608899 z M 3.8879103,1.2223999 L 3.9218656,1.2223999 L 3.9218656,0.88284439 C 3.9218656,0.72438522 3.8482954,0.64515563 3.7011549,0.64515563 L 3.7011549,0.62817759 C 3.8482954,0.62817759 3.9218656,0.71306652 3.9218656,0.88284439 L 3.9218656,1.2223999 L 3.9558217,1.2223999 L 3.9558217,0.88284439 C 3.9558217,0.70174783 3.8879105,0.61119955 3.7520883,0.61119955 C 3.6954959,0.61119955 3.6558809,0.62817734 3.6332435,0.66213291 C 3.8030214,0.66213291 3.8879103,0.7357034 3.8879103,0.88284439 L 3.8879103,1.2223999 z M 4.1765324,1.3072885 L 4.1765324,1.2563552 L 3.8879103,1.2563552 L 3.8879103,1.3072885 L 4.1765324,1.3072885 z M 4.1935105,1.3751999 L 4.1765324,1.3412439 L 3.8879103,1.3412439 L 3.8709323,1.3751999 L 4.1935105,1.3751999 z M 4.2274658,1.4600886 L 4.2104878,1.4261333 L 3.853955,1.4261333 L 3.853955,1.4600886 L 4.2274658,1.4600886 z M 4.1765324,0.88284439 C 4.1765324,0.7357034 4.2670805,0.66213291 4.4481765,0.66213291 C 4.4142214,0.62817734 4.3689474,0.61119955 4.3123545,0.61119955 C 4.1765327,0.61119955 4.1086218,0.70174783 4.1086218,0.88284439 L 4.1086218,1.2223999 L 4.1425771,1.2223999 L 4.1425771,0.88284439 C 4.1425771,0.71306652 4.2161474,0.62817759 4.3632878,0.62817759 L 4.3632878,0.64515563 C 4.2274656,0.64515563 4.1595544,0.72438522 4.1595544,0.88284439 L 4.1595544,1.2223999 L 4.1765324,1.2223999 L 4.1765324,0.88284439 z M 3.5483548,0.95075503 L 3.5483548,0.95075503 C 3.4691255,1.0639404 3.4295108,1.2506961 3.4295108,1.511022 L 3.4295108,1.8505775 C 3.4861033,1.9977179 3.525718,2.2637032 3.5483548,2.6485332 C 3.5709917,2.2637032 3.6049473,1.9977179 3.6502216,1.8505775 L 3.6502216,1.511022 C 3.6502216,1.2506961 3.616266,1.0639404 3.5483548,0.95075503 z M 4.5160879,0.95075503 L 4.5160879,0.95075503 C 4.4481767,1.0639404 4.4142212,1.2506961 4.4142212,1.511022 L 4.4142212,1.8505775 C 4.4594955,1.9977179 4.493451,2.2637032 4.5160879,2.6485332 C 4.5500435,2.2637032 4.5896584,1.9977179 4.6349327,1.8505775 L 4.6349327,1.511022 C 4.6349327,1.2506961 4.5953178,1.0639404 4.5160879,0.95075503 z M 2.7843552,3.8030216 C 3.1691847,3.9841177 3.4125328,4.0746657 3.5143995,4.0746657 C 3.6162662,4.0746657 3.6671996,4.1199397 3.6671996,4.2104878 L 3.6671996,4.3972439 L 3.7860436,4.3972439 L 3.7860436,4.2104878 C 3.7860436,4.0520291 3.6954955,3.9727998 3.5143995,3.9727998 C 3.3106661,3.9727998 3.1606957,3.9445033 3.0644883,3.8879103 C 2.968281,3.8313179 2.8749033,3.8030216 2.7843552,3.8030216 z M 1.4940439,3.7011549 L 1.4940439,3.7011549 C 1.5959107,3.9501621 1.7600292,4.0746657 1.9863995,4.0746657 C 2.2127698,4.0746657 2.3938661,4.0520288 2.5296884,4.0067551 C 2.416503,3.9841182 2.2976585,3.9869478 2.1731549,4.0152441 C 2.0486513,4.0435404 1.9071699,4.0237329 1.7487107,3.9558217 C 1.9071699,4.0124141 2.0712884,4.0209029 2.2410663,3.981288 C 2.4108442,3.9416731 2.5438368,3.9473325 2.6400442,3.9982661 C 2.7362515,4.0491992 2.8069921,4.0746657 2.8522658,4.0746657 L 2.9541326,4.0746657 C 2.6938067,3.9388434 2.524029,3.8737619 2.4447997,3.8794213 C 2.3655699,3.8850807 2.2919994,3.8992288 2.2240883,3.9218656 C 2.1561776,3.9445031 2.076948,3.9614811 1.9863995,3.9727998 C 1.8279404,3.9727998 1.6694811,3.8822515 1.511022,3.7011549 L 1.4940439,3.7011549 z M 3.8709323,4.3972439 L 3.989777,4.3972439 L 3.989777,4.0407104 C 3.9218659,3.8822513 3.8143401,3.8030216 3.6671996,3.8030216 C 3.5200586,3.8030216 3.3785769,3.8256585 3.2427547,3.8709323 C 3.2427547,3.8822509 3.333303,3.8879103 3.5143995,3.8879103 C 3.7520881,3.8879103 3.8709323,3.9954361 3.8709323,4.2104878 L 3.8709323,4.3972439 z M 2.461777,3.836977 C 2.608918,3.8482956 2.7419106,3.8907403 2.8607549,3.9643107 C 2.9795996,4.0378807 3.1069329,4.0746657 3.2427547,4.0746657 C 3.1861623,4.0520288 3.0899548,4.0067548 2.9541326,3.9388437 C 2.8183103,3.8709325 2.6541918,3.836977 2.461777,3.836977 z M 5.6026657,3.836977 C 5.410251,3.836977 5.2461325,3.8709325 5.1103102,3.9388437 C 4.9744879,4.0067548 4.8782805,4.0520288 4.8216881,4.0746657 C 4.9575103,4.0746657 5.0848437,4.0378807 5.2036879,3.9643107 C 5.3225326,3.8907403 5.4555253,3.8482956 5.6026657,3.836977 z M 4.2104878,4.2104878 C 4.2104878,3.9954361 4.3293323,3.8879103 4.5670213,3.8879103 C 4.7367992,3.8879103 4.8216881,3.8822509 4.8216881,3.8709323 C 4.6858658,3.8256585 4.5443844,3.8030216 4.3972439,3.8030216 C 4.2501029,3.8030216 4.1425769,3.8822513 4.0746657,4.0407104 L 4.0746657,4.3972439 L 4.2104878,4.3972439 L 4.2104878,4.2104878 z M 6.5534215,3.7011549 C 6.3949619,3.8822515 6.2365024,3.9727998 6.0780433,3.9727998 C 5.9874952,3.9614811 5.9082657,3.9445031 5.8403545,3.9218656 C 5.7724433,3.8992288 5.7158509,3.8822509 5.6705771,3.8709323 C 5.5573918,3.8709323 5.3706361,3.9388434 5.1103102,4.0746657 L 5.2121769,4.0746657 C 5.2687693,4.0746657 5.3423396,4.0491992 5.4328876,3.9982661 C 5.5234357,3.9473325 5.6535986,3.9416731 5.8233765,3.981288 C 5.9931543,4.0209029 6.1572729,4.0124141 6.315732,3.9558217 C 6.1572729,4.0237329 6.0157915,4.0435404 5.8912879,4.0152441 C 5.7667843,3.9869478 5.6479397,3.9841182 5.5347543,4.0067551 C 5.6705766,4.0520288 5.8516729,4.0746657 6.0780433,4.0746657 C 6.3044136,4.0746657 6.4685321,3.9501621 6.5703988,3.7011549 L 6.5703988,3.7011549 L 6.5534215,3.7011549 z M 5.4159103,3.8030216 C 5.2461325,3.8030216 5.1103102,3.8313179 5.0084435,3.8879103 C 4.9065767,3.9445033 4.759436,3.9727998 4.5670213,3.9727998 C 4.3746065,3.9727998 4.2783992,4.0520291 4.2783992,4.2104878 L 4.2783992,4.3972439 L 4.3972439,4.3972439 L 4.3972439,4.2104878 C 4.3972439,4.1199397 4.4481773,4.0746657 4.550044,4.0746657 C 4.6519102,4.0746657 4.8018804,4.0293917 4.9999544,3.9388437 C 5.1980285,3.8482956 5.3366805,3.8030216 5.4159103,3.8030216 z M 1.7147554,2.3768883 C 1.7260736,2.3768883 1.7345623,2.379718 1.7402217,2.3853774 C 1.7458811,2.3910367 1.7458811,2.3995257 1.7402217,2.4108444 C 1.7345623,2.4221626 1.7260736,2.4278217 1.7147554,2.4278217 C 1.7034368,2.4278217 1.6977774,2.4221626 1.6977774,2.4108444 C 1.6864587,2.388207 1.692118,2.3768883 1.7147554,2.3768883 z M 1.9354661,2.3768883 L 1.8335994,2.4278217 C 1.7543701,2.4504586 1.7062664,2.4476289 1.6892884,2.4193327 C 1.6723109,2.3910364 1.6807999,2.3768883 1.7147554,2.3768883 C 1.748711,2.3655697 1.7685184,2.3683993 1.7741778,2.3853774 C 1.7798366,2.4023554 1.7713476,2.4165035 1.7487107,2.4278217 C 1.7487107,2.4165035 1.7515404,2.405185 1.7571998,2.3938664 C 1.7628591,2.3825477 1.7600294,2.3768883 1.7487107,2.3768883 C 1.7373921,2.3768883 1.7232439,2.379718 1.7062664,2.3853774 C 1.6892884,2.3910367 1.6807993,2.3995257 1.6807993,2.4108444 C 1.6807993,2.4221626 1.6892884,2.4278217 1.7062664,2.4278217 C 1.7232439,2.4278217 1.7656882,2.4221626 1.8335994,2.4108444 L 1.9354661,2.3768883 L 1.9354661,2.3768883 z M 1.8166221,2.3768883 C 1.7939847,2.3542515 1.7656882,2.3485921 1.7317327,2.3599103 C 1.6751403,2.371229 1.646844,2.388207 1.646844,2.4108444 C 1.646844,2.4447995 1.6666515,2.4646067 1.7062664,2.470266 C 1.7458813,2.4759254 1.7770072,2.4730957 1.7996441,2.461777 C 1.8901922,2.4165033 1.9807401,2.4051848 2.0712882,2.4278217 C 2.0826068,2.4504586 2.0769478,2.461777 2.0543109,2.461777 C 1.9863997,2.461777 1.9326367,2.4674364 1.8930218,2.4787551 C 1.8534069,2.4900737 1.8194513,2.5381774 1.7911551,2.6230661 C 1.7628588,2.7079548 1.7487107,2.8607546 1.7487107,3.0814656 C 1.7487107,3.3021771 1.7515404,3.480444 1.7571998,3.6162662 C 1.7628591,3.7520881 1.9071702,3.8199989 2.1901329,3.8199989 L 2.1901329,3.7351102 C 1.9637626,3.7351102 1.8505775,3.6954955 1.8505775,3.6162662 C 1.8505775,3.5257182 1.8901922,3.3898959 1.9694215,3.2087994 C 2.0146957,3.0956144 2.0684588,2.9880887 2.1307106,2.8862219 C 2.1929624,2.7843552 2.2127698,2.6824885 2.1901329,2.5806218 C 2.1674961,2.4787551 2.1222221,2.4136736 2.0543109,2.3853774 C 1.9863997,2.3570811 1.9071702,2.3542515 1.8166221,2.3768883 z M 6.2478214,2.3768883 C 6.1572729,2.3542515 6.0780433,2.3570811 6.0101326,2.3853774 C 5.942221,2.4136736 5.8969467,2.4787551 5.8743098,2.5806218 C 5.8516729,2.6824885 5.8714804,2.7843552 5.9337322,2.8862219 C 5.995984,2.9880887 6.049747,3.0956144 6.0950213,3.2087994 C 6.1629325,3.3898959 6.196888,3.5257182 6.196888,3.6162662 C 6.196888,3.6954955 6.0893619,3.7351102 5.8743098,3.7351102 L 5.8743098,3.8199989 C 6.1572726,3.8199989 6.298754,3.7520881 6.298754,3.6162662 C 6.298754,3.480444 6.3015839,3.3021771 6.3072438,3.0814656 C 6.3129026,2.8607546 6.3015839,2.7079548 6.2732877,2.6230661 C 6.2449914,2.5381774 6.2110359,2.4900737 6.171421,2.4787551 C 6.131806,2.4674364 6.0780433,2.461777 6.0101326,2.461777 C 5.9874952,2.461777 5.9818359,2.4504586 5.9931546,2.4278217 C 6.0837026,2.4051848 6.1742506,2.4165033 6.2647987,2.461777 C 6.2874355,2.4730957 6.3185617,2.4759254 6.3581771,2.470266 C 6.3977915,2.4646067 6.4175987,2.4447995 6.4175987,2.4108444 C 6.4175987,2.388207 6.3949616,2.371229 6.3496873,2.3599103 C 6.3044136,2.3485921 6.2704583,2.3542515 6.2478214,2.3768883 z M 6.1289766,2.3768883 L 6.2308433,2.4108444 C 6.2874358,2.4221626 6.324221,2.4278217 6.3411991,2.4278217 C 6.3581766,2.4278217 6.369495,2.4221626 6.3751544,2.4108444 C 6.3808138,2.3995257 6.3751546,2.3910367 6.3581771,2.3853774 C 6.3411991,2.379718 6.3270507,2.3768883 6.315732,2.3768883 C 6.3044133,2.3768883 6.298754,2.3825477 6.298754,2.3938664 C 6.298754,2.405185 6.3044133,2.4165035 6.315732,2.4278217 C 6.3044133,2.4165035 6.298754,2.4023554 6.298754,2.3853774 C 6.298754,2.3683993 6.3157318,2.3655697 6.3496873,2.3768883 C 6.3949616,2.3768883 6.4091099,2.3910364 6.3921324,2.4193327 C 6.3751544,2.4476289 6.3213914,2.4504586 6.2308433,2.4278217 L 6.1289766,2.3768883 L 6.1289766,2.3768883 z M 6.3496873,2.3768883 C 6.361006,2.3768883 6.3666654,2.388207 6.3666654,2.4108444 C 6.3666654,2.4221626 6.3581766,2.4278217 6.3411991,2.4278217 C 6.324221,2.4278217 6.315732,2.4221626 6.315732,2.4108444 C 6.315732,2.3995257 6.3213914,2.3910367 6.3327101,2.3853774 C 6.3440283,2.379718 6.3496873,2.3768883 6.3496873,2.3768883 z M 2.6824885,3.293688 C 2.6824885,3.1918219 2.7192738,3.1012738 2.7928442,3.022044 C 2.8664142,2.9428141 2.9541326,2.9031992 3.0559993,2.9031992 C 3.1805029,2.9031992 3.2767102,2.9428141 3.3446214,3.022044 C 3.4125326,3.1012738 3.4464881,3.1918219 3.4464881,3.293688 C 3.4464881,3.4068734 3.4125326,3.5002511 3.3446214,3.5738211 C 3.2767102,3.6473921 3.1805029,3.6841776 3.0559993,3.6841776 C 2.9541326,3.6841776 2.8664142,3.6473921 2.7928442,3.5738211 C 2.7192738,3.5002511 2.6824885,3.4068734 2.6824885,3.293688 z M 2.8013325,3.293688 C 2.8013325,3.3729179 2.8239696,3.4379993 2.8692439,3.4889325 C 2.9145182,3.5398661 2.97677,3.5653329 3.0559993,3.5653329 C 3.1465478,3.5653329 3.214459,3.5398661 3.2597327,3.4889325 C 3.3050065,3.4379993 3.3276434,3.3729179 3.3276434,3.293688 C 3.3276434,3.2257774 3.3050065,3.1635256 3.2597327,3.1069326 C 3.214459,3.0503402 3.1465478,3.022044 3.0559993,3.022044 C 2.97677,3.022044 2.9145182,3.0475105 2.8692439,3.0984436 C 2.8239696,3.1493772 2.8013325,3.2144587 2.8013325,3.293688 z M 3.6502216,3.293688 C 3.6502216,3.1918219 3.6870068,3.1041035 3.7605773,3.030533 C 3.8341473,2.9569625 3.927525,2.9201772 4.0407104,2.9201772 C 4.165214,2.9201772 4.2585917,2.9569625 4.3208435,3.030533 C 4.3830953,3.1041035 4.4142212,3.1918219 4.4142212,3.293688 C 4.4142212,3.4068734 4.3830953,3.5002511 4.3208435,3.5738211 C 4.2585917,3.6473921 4.165214,3.6841776 4.0407104,3.6841776 C 3.927525,3.6841776 3.8341473,3.6473921 3.7605773,3.5738211 C 3.6870068,3.5002511 3.6502216,3.4068734 3.6502216,3.293688 z M 3.7690663,3.293688 C 3.7690663,3.3729179 3.7945328,3.4379993 3.845466,3.4889325 C 3.8963991,3.5398661 3.9614806,3.5653329 4.0407104,3.5653329 C 4.1199397,3.5653329 4.1821915,3.5398661 4.2274658,3.4889325 C 4.2727401,3.4379993 4.2953772,3.3729179 4.2953772,3.293688 C 4.2953772,3.2257774 4.2727401,3.1663553 4.2274658,3.1154217 C 4.1821915,3.0644885 4.1199397,3.039022 4.0407104,3.039022 C 3.9614806,3.039022 3.8963991,3.0644885 3.845466,3.1154217 C 3.7945328,3.1663553 3.7690663,3.2257774 3.7690663,3.293688 z M 4.6349327,3.293688 C 4.6349327,3.1918219 4.6717176,3.1012738 4.7452876,3.022044 C 4.8188581,2.9428141 4.9065767,2.9031992 5.0084435,2.9031992 C 5.1329471,2.9031992 5.2291544,2.9428141 5.2970656,3.022044 C 5.3649768,3.1012738 5.3989323,3.1918219 5.3989323,3.293688 C 5.3989323,3.4068734 5.3649768,3.5002511 5.2970656,3.5738211 C 5.2291544,3.6473921 5.1329471,3.6841776 5.0084435,3.6841776 C 4.9065767,3.6841776 4.8188581,3.6473921 4.7452876,3.5738211 C 4.6717176,3.5002511 4.6349327,3.4068734 4.6349327,3.293688 z M 4.7537767,3.293688 C 4.7537767,3.3729179 4.7764138,3.4379993 4.8216881,3.4889325 C 4.8669624,3.5398661 4.9292142,3.5653329 5.0084435,3.5653329 C 5.0989915,3.5653329 5.1669026,3.5398661 5.2121769,3.4889325 C 5.2574507,3.4379993 5.2800875,3.3729179 5.2800875,3.293688 C 5.2800875,3.2257774 5.2574507,3.1635256 5.2121769,3.1069326 C 5.1669026,3.0503402 5.0989915,3.022044 5.0084435,3.022044 C 4.9292142,3.022044 4.8669624,3.0475105 4.8216881,3.0984436 C 4.7764138,3.1493772 4.7537767,3.2144587 4.7537767,3.293688 z M 2.7673772,0.27164407 C 2.7673772,0.20373344 2.7956734,0.14148164 2.8522658,0.084888677 C 2.9088588,0.028296226 2.97677,0 3.0559993,0 C 3.1465478,0 3.214459,0.028296226 3.2597327,0.084888677 C 3.3050065,0.14148164 3.3276434,0.20373344 3.3276434,0.27164407 C 3.3276434,0.36219261 3.3050065,0.43293343 3.2597327,0.48386653 C 3.214459,0.53479964 3.1465478,0.56026619 3.0559993,0.56026619 C 2.97677,0.56026619 2.9088588,0.53479964 2.8522658,0.48386653 C 2.7956734,0.43293343 2.7673772,0.36219261 2.7673772,0.27164407 z M 2.8522658,0.27164407 C 2.8522658,0.32823704 2.8720733,0.37634073 2.9116882,0.41595513 C 2.9513031,0.45557005 2.9994069,0.47537751 3.0559993,0.47537751 C 3.1239105,0.47537751 3.1748438,0.45557005 3.2087994,0.41595513 C 3.2427549,0.37634073 3.2597327,0.32823704 3.2597327,0.27164407 C 3.2597327,0.21505163 3.2427549,0.16694794 3.2087994,0.12733302 C 3.1748438,0.087718609 3.1239105,0.067911402 3.0559993,0.067911402 C 2.9994069,0.067911402 2.9513031,0.087718609 2.9116882,0.12733302 C 2.8720733,0.16694794 2.8522658,0.21505163 2.8522658,0.27164407 z M 3.7520883,0.27164407 C 3.7520883,0.20373344 3.7803845,0.14148164 3.836977,0.084888677 C 3.8935694,0.028296226 3.9614806,0 4.0407104,0 C 4.1199397,0 4.1850212,0.028296226 4.2359548,0.084888677 C 4.2868879,0.14148164 4.3123545,0.20373344 4.3123545,0.27164407 C 4.3123545,0.36219261 4.2868879,0.43293343 4.2359548,0.48386653 C 4.1850212,0.53479964 4.1199397,0.56026619 4.0407104,0.56026619 C 3.9614806,0.56026619 3.8935694,0.53479964 3.836977,0.48386653 C 3.7803845,0.43293343 3.7520883,0.36219261 3.7520883,0.27164407 z M 3.8199989,0.27164407 C 3.8199989,0.32823704 3.8398064,0.37634073 3.8794213,0.41595513 C 3.9190362,0.45557005 3.9727992,0.47537751 4.0407104,0.47537751 C 4.0973028,0.47537751 4.1425769,0.45557005 4.1765324,0.41595513 C 4.210488,0.37634073 4.2274658,0.32823704 4.2274658,0.27164407 C 4.2274658,0.21505163 4.210488,0.16694794 4.1765324,0.12733302 C 4.1425769,0.087718609 4.0973028,0.067911402 4.0407104,0.067911402 C 3.9727992,0.067911402 3.9190362,0.087718609 3.8794213,0.12733302 C 3.8398064,0.16694794 3.8199989,0.21505163 3.8199989,0.27164407 z M 4.7198213,0.28862212 C 4.7198213,0.20939279 4.7481176,0.14148164 4.80471,0.084888677 C 4.861303,0.028296226 4.9292142,0 5.0084435,0 C 5.0989915,0 5.1697323,0.028296226 5.2206659,0.084888677 C 5.2715991,0.14148164 5.2970656,0.20939279 5.2970656,0.28862212 C 5.2970656,0.36785196 5.2715991,0.43293343 5.2206659,0.48386653 C 5.1697323,0.53479964 5.0989915,0.56026619 5.0084435,0.56026619 C 4.9292142,0.56026619 4.861303,0.53479964 4.80471,0.48386653 C 4.7481176,0.43293343 4.7198213,0.36785196 4.7198213,0.28862212 z M 4.80471,0.28862212 C 4.80471,0.33389639 4.8245175,0.37634073 4.8641324,0.41595513 C 4.9037473,0.45557005 4.951851,0.47537751 5.0084435,0.47537751 C 5.0763546,0.47537751 5.127288,0.45557005 5.1612435,0.41595513 C 5.1951991,0.37634073 5.2121769,0.33389639 5.2121769,0.28862212 C 5.2121769,0.22071097 5.1951991,0.16977761 5.1612435,0.13582204 C 5.127288,0.10186647 5.0763546,0.084888677 5.0084435,0.084888677 C 4.951851,0.084888677 4.9037473,0.10186647 4.8641324,0.13582204 C 4.8245175,0.16977761 4.80471,0.22071097 4.80471,0.28862212 z M 1.7147554,2.0543109 C 1.7147554,2.0995852 1.7317332,2.1391998 1.7656888,2.1731549 C 1.7996443,2.2071104 1.8449184,2.2240883 1.9015108,2.2240883 C 1.9467846,2.2240883 1.9863995,2.2071104 2.0203556,2.1731549 C 2.0543107,2.1391998 2.0712882,2.0995852 2.0712882,2.0543109 C 2.0712882,1.9977179 2.0543107,1.9524439 2.0203556,1.9184889 C 1.9863995,1.8845333 1.9467846,1.8675555 1.9015108,1.8675555 C 1.8449184,1.8675555 1.7996443,1.8845333 1.7656888,1.9184889 C 1.7317332,1.9524439 1.7147554,1.9977179 1.7147554,2.0543109 z M 5.9761765,2.0543109 C 5.9761765,2.1109033 5.9931543,2.1561774 6.0271099,2.1901329 C 6.0610654,2.2240885 6.1063395,2.2410663 6.1629319,2.2410663 C 6.2195249,2.2410663 6.2647989,2.2240885 6.298754,2.1901329 C 6.3327095,2.1561774 6.3496873,2.1109033 6.3496873,2.0543109 C 6.3496873,1.9977179 6.3327095,1.9552734 6.298754,1.9269771 C 6.2647989,1.8986809 6.2195249,1.8845328 6.1629319,1.8845328 C 6.1063395,1.8845328 6.0610654,1.8986809 6.0271099,1.9269771 C 5.9931543,1.9552734 5.9761765,1.9977179 5.9761765,2.0543109 z M 4.0407104,3.853955 C 4.1199397,3.7407701 4.2670805,3.6841776 4.4821326,3.6841776 C 4.4821326,3.3333032 4.4708139,3.0107253 4.4481765,2.7164438 C 4.4029028,2.2184289 4.3293325,1.8166216 4.2274658,1.511022 L 3.836977,1.511022 C 3.7351108,1.8166216 3.6671996,2.2184289 3.6332435,2.7164438 C 3.599288,3.0107253 3.5823102,3.3446216 3.5823102,3.718133 C 3.7973623,3.6954961 3.9501623,3.7407701 4.0407104,3.853955 z M 5.8573325,2.9201772 C 5.8686507,3.0673183 5.8743098,3.220118 5.8743098,3.3785767 L 5.8743098,3.6671996 C 5.9761765,3.6671996 6.0469174,3.6558809 6.0865323,3.6332435 C 6.1261472,3.6106066 6.1261472,3.5342068 6.0865323,3.4040438 C 6.0469174,3.2738808 5.9705175,3.112592 5.8573325,2.9201772 z M 2.207111,2.9031992 C 2.207111,2.9258366 2.1759848,2.9824293 2.1137325,3.0729773 C 2.0514813,3.1635254 2.0033775,3.2738808 1.9694215,3.4040438 C 1.9354664,3.5342068 1.9354664,3.6106066 1.9694215,3.6332435 C 2.0033775,3.6558809 2.076948,3.6671996 2.1901329,3.6671996 L 2.1901329,3.3955548 C 2.1901329,3.112592 2.1957923,2.9484735 2.207111,2.9031992 z M 1.9524442,2.2919997 C 2.0203554,2.3033183 2.0797774,2.3202961 2.1307106,2.342933 C 2.1816441,2.3655699 2.2184294,2.4051846 2.2410663,2.461777 C 2.2750218,2.1222218 2.3259552,1.793985 2.3938664,1.4770667 C 2.2354072,1.4770667 2.1561776,1.3978371 2.1561776,1.2393779 C 2.1561776,1.0809182 2.252385,1.0016884 2.4447997,1.0016884 C 2.6598514,1.0016884 2.7673772,1.1941034 2.7673772,1.5789334 C 2.8126515,1.4770667 2.8409476,1.3582221 2.8522658,1.2223999 L 2.8522658,0.88284439 C 2.8522658,0.769659 2.7730362,0.71306627 2.6145771,0.71306627 C 2.5806215,0.71306627 2.5749624,0.69042939 2.5975998,0.64515563 C 2.6428736,0.58856267 2.7051254,0.56026619 2.7843552,0.56026619 C 2.829629,0.56026619 2.8862214,0.57724398 2.9541326,0.61119955 C 2.9880881,0.57724398 3.0220437,0.56026619 3.0559993,0.56026619 C 3.0899548,0.56026619 3.1239105,0.57724398 3.157866,0.61119955 C 3.2257772,0.57724398 3.2823696,0.56026619 3.3276434,0.56026619 C 3.4068732,0.56026619 3.4691252,0.58856267 3.5143995,0.64515563 C 3.5370364,0.69042939 3.531377,0.71306627 3.4974215,0.71306627 C 3.3276436,0.71306627 3.2427547,0.769659 3.2427547,0.88284439 L 3.2427547,1.2223999 C 3.2653921,1.3582221 3.2993476,1.4770667 3.3446214,1.5789334 C 3.3446214,1.2733332 3.4125326,0.99602955 3.5483548,0.74702235 C 3.6841771,0.99602955 3.7520883,1.2733332 3.7520883,1.5789334 C 3.7860438,1.4770667 3.8143401,1.3582221 3.836977,1.2223999 L 3.836977,0.88284439 C 3.836977,0.769659 3.7577473,0.71306627 3.5992882,0.71306627 C 3.5653327,0.71306627 3.5540142,0.69042939 3.5653329,0.64515563 C 3.6106066,0.58856267 3.6728584,0.56026619 3.7520883,0.56026619 C 3.8086807,0.56026619 3.8652732,0.57724398 3.9218656,0.61119955 C 3.9558217,0.57724398 3.9954366,0.56026619 4.0407104,0.56026619 C 4.0746659,0.56026619 4.1086216,0.57724398 4.1425771,0.61119955 C 4.1991695,0.57724398 4.255762,0.56026619 4.3123545,0.56026619 C 4.3915843,0.56026619 4.4538361,0.58856267 4.4991099,0.64515563 C 4.5104285,0.69042939 4.4991101,0.71306627 4.4651546,0.71306627 C 4.3066954,0.71306627 4.2274658,0.769659 4.2274658,0.88284439 L 4.2274658,1.2223999 C 4.2501032,1.3582221 4.2840588,1.4770667 4.3293325,1.5789334 C 4.3293325,1.2733332 4.3915843,0.99602955 4.5160879,0.74702235 C 4.6519102,0.99602955 4.7198213,1.2733332 4.7198213,1.5789334 C 4.7650951,1.4770667 4.7990507,1.3582221 4.8216881,1.2223999 L 4.8216881,0.88284439 C 4.8216881,0.769659 4.7424585,0.71306627 4.5839993,0.71306627 C 4.538725,0.71306627 4.5274066,0.69042939 4.550044,0.64515563 C 4.5953178,0.58856267 4.6575696,0.56026619 4.7367994,0.56026619 C 4.7820731,0.56026619 4.8386656,0.57724398 4.9065767,0.61119955 C 4.9405323,0.57724398 4.9744879,0.56026619 5.0084435,0.56026619 C 5.042399,0.56026619 5.0763546,0.57724398 5.1103102,0.61119955 C 5.1782214,0.57724398 5.2348138,0.56026619 5.2800875,0.56026619 C 5.3706361,0.56026619 5.4328882,0.58856267 5.4668437,0.64515563 C 5.4894806,0.69042939 5.4838212,0.71306627 5.4498657,0.71306627 C 5.2914065,0.71306627 5.2121769,0.769659 5.2121769,0.88284439 L 5.2121769,1.2223999 C 5.2234956,1.3582221 5.2517918,1.4770667 5.2970656,1.5789334 C 5.2970656,1.1941034 5.4102507,1.0016884 5.6366211,1.0016884 C 5.8177171,1.0016884 5.9082651,1.0809182 5.9082651,1.2393779 C 5.9082651,1.3978371 5.8290358,1.4770667 5.6705771,1.4770667 C 5.7384878,1.793985 5.7894209,2.1222218 5.8233765,2.461777 C 5.8460139,2.4051846 5.8827991,2.3655699 5.9337322,2.342933 C 5.9846658,2.3202961 6.0384289,2.3033183 6.0950213,2.2919997 C 6.0610657,2.2919997 6.0214508,2.2750218 5.9761765,2.2410663 C 5.9309022,2.195792 5.9082651,2.1335402 5.9082651,2.0543109 C 5.9082651,1.9863997 5.933732,1.9269773 5.9846656,1.8760438 C 6.0355987,1.8251106 6.0950208,1.7996441 6.1629319,1.7996441 C 6.2421618,1.7996441 6.3044136,1.8251106 6.3496873,1.8760438 C 6.3949616,1.9269773 6.4175987,1.9863997 6.4175987,2.0543109 C 6.4175987,2.1335402 6.3949616,2.1929624 6.3496873,2.2325773 C 6.3044136,2.2721922 6.2647989,2.2919997 6.2308433,2.2919997 C 6.2534802,2.2919997 6.2874358,2.2948293 6.3327101,2.3004887 C 6.3779838,2.3061481 6.4119391,2.3202961 6.434576,2.342933 C 6.4572134,2.3655699 6.4685321,2.388207 6.4685321,2.4108444 C 6.4685321,2.4447995 6.4515543,2.4730957 6.4175987,2.4957331 C 6.3836432,2.51837 6.3440283,2.524029 6.298754,2.5127104 C 6.3666651,2.6258958 6.3977913,2.801333 6.3921324,3.039022 C 6.3864731,3.2767105 6.3864731,3.4436585 6.3921324,3.5398658 C 6.3977913,3.6360737 6.3723244,3.7294514 6.315732,3.8199989 L 6.4855094,3.6502216 C 6.5194654,3.616266 6.5590806,3.6106066 6.6043549,3.6332435 C 6.6496287,3.6558809 6.6609471,3.6898365 6.6383102,3.7351102 C 6.536443,4.018073 6.3496873,4.1595544 6.0780433,4.1595544 C 5.8290361,4.1595544 5.6479397,4.1369175 5.5347543,4.0916438 C 5.2404734,4.1708731 4.9178957,4.1935099 4.5670213,4.1595544 C 4.5104288,4.1595544 4.4821326,4.1878509 4.4821326,4.2444438 L 4.4821326,4.4651546 L 3.5823102,4.4651546 L 3.5823102,4.2444438 C 3.5823102,4.1878509 3.5596733,4.1595544 3.5143995,4.1595544 C 3.1522069,4.1935099 2.8239699,4.1708731 2.5296884,4.0916438 C 2.416503,4.1369175 2.2354067,4.1595544 1.9863995,4.1595544 C 1.7260736,4.1595544 1.5393182,4.018073 1.4261333,3.7351102 C 1.4034959,3.6898365 1.4148143,3.6558809 1.4600886,3.6332435 C 1.5053629,3.6106066 1.5449778,3.616266 1.5789334,3.6502216 L 1.7317327,3.7860436 C 1.6864589,3.718133 1.6666517,3.6360737 1.6723111,3.5398658 C 1.6779699,3.4436585 1.6779699,3.2767105 1.6723111,3.039022 C 1.6666517,2.801333 1.6921183,2.6258958 1.7487107,2.5127104 C 1.7147552,2.524029 1.6807996,2.51837 1.646844,2.4957331 C 1.6128885,2.4730957 1.5959107,2.4447995 1.5959107,2.4108444 C 1.5959107,2.388207 1.6072291,2.3655699 1.629866,2.342933 C 1.6525034,2.3202961 1.6836295,2.3061481 1.7232444,2.3004887 C 1.7628588,2.2948293 1.7996439,2.2919997 1.8335994,2.2919997 C 1.7996439,2.2919997 1.7600292,2.2750218 1.7147554,2.2410663 C 1.6581625,2.1844739 1.629866,2.1222221 1.629866,2.0543109 C 1.629866,1.9863997 1.6553328,1.9269773 1.7062664,1.8760438 C 1.7571995,1.8251106 1.822281,1.7996441 1.9015108,1.7996441 C 1.9807407,1.7996441 2.0401628,1.8251106 2.0797772,1.8760438 C 2.1193921,1.9269773 2.1391996,1.9863997 2.1391996,2.0543109 C 2.1391996,2.1222221 2.1193921,2.1816441 2.0797772,2.2325773 C 2.0401628,2.2835109 1.9977185,2.3033183 1.9524442,2.2919997 z M 2.2750216,3.8030216 C 2.3768883,3.7577473 2.4617772,3.7351102 2.5296884,3.7351102 L 2.5296884,3.3955548 C 2.5296884,2.7956737 2.5806218,2.1674961 2.6824885,1.511022 C 2.6824885,1.2280592 2.6032589,1.0865778 2.4447997,1.0865778 C 2.3089775,1.0865778 2.2410663,1.1375112 2.2410663,1.2393779 C 2.2297476,1.3638815 2.3146365,1.4204739 2.4957331,1.4091553 C 2.3825477,1.9071702 2.3089772,2.5693033 2.2750216,3.3955548 L 2.2750216,3.8030216 z M 2.6145771,3.718133 C 2.7730362,3.7068143 2.9116882,3.7209624 3.030533,3.7605773 C 3.1493772,3.8001917 3.2399253,3.8058508 3.3021771,3.7775546 C 3.3644289,3.7492583 3.4351697,3.7294512 3.5143995,3.718133 C 3.5143995,3.3446216 3.4974217,3.0107253 3.4634662,2.7164438 C 3.4295106,2.2184289 3.3615994,1.8166216 3.2597327,1.511022 L 2.8522658,1.511022 C 2.7503997,1.8166216 2.6824887,2.2184289 2.6485332,2.7164438 C 2.6258958,3.0107253 2.6145771,3.3446216 2.6145771,3.718133 z "
     id="path4" />
</svg>
