<?xml version="1.0" encoding="UTF-8" standalone="no"?>
<svg
   xmlns:dc="http://purl.org/dc/elements/1.1/"
   xmlns:cc="http://creativecommons.org/ns#"
   xmlns:rdf="http://www.w3.org/1999/02/22-rdf-syntax-ns#"
   xmlns:svg="http://www.w3.org/2000/svg"
   xmlns="http://www.w3.org/2000/svg"
   xmlns:sodipodi="http://sodipodi.sourceforge.net/DTD/sodipodi-0.dtd"
   xmlns:inkscape="http://www.inkscape.org/namespaces/inkscape"
   width="1800"
   height="1800"
   id="svg2237"
   sodipodi:version="0.32"
   inkscape:version="0.46"
   sodipodi:docname="C95A.svg"
   inkscape:output_extension="org.inkscape.output.svg.inkscape"
   sodipodi:docbase="C:\Program Files\JSesh\fontsST"
   sodipodi:modified="true"
   version="1.0">
  <metadata
     id="metadata2244">
    <rdf:RDF>
      <cc:Work
         rdf:about="">
        <dc:format>image/svg+xml</dc:format>
        <dc:type
           rdf:resource="http://purl.org/dc/dcmitype/StillImage" />
      </cc:Work>
    </rdf:RDF>
  </metadata>
  <defs
     id="defs2242">
    <inkscape:perspective
       sodipodi:type="inkscape:persp3d"
       inkscape:vp_x="0 : 8.9863672 : 1"
       inkscape:vp_y="0 : 1000 : 0"
       inkscape:vp_z="10.153825 : 8.9863672 : 1"
       inkscape:persp3d-origin="5.0769124 : 5.9909115 : 1"
       id="perspective7" />
  </defs>
  <sodipodi:namedview
     inkscape:window-height="701"
     inkscape:window-width="796"
     inkscape:pageshadow="2"
     inkscape:pageopacity="0.0"
     guidetolerance="10.0"
     gridtolerance="10.0"
     objecttolerance="10.0"
     borderopacity="1.0"
     bordercolor="#666666"
     pagecolor="#ffffff"
     id="base"
     showgrid="false"
     inkscape:zoom="0.048908219"
     inkscape:cx="298.04686"
     inkscape:cy="810.48226"
     inkscape:window-x="1280"
     inkscape:window-y="22"
     inkscape:current-layer="svg2237" />
  <path
     style="fill:#000000;stroke:none"
     d="M 632.25,0 C 601.88833,0 583.68753,12.746226 583.6875,38.25 L 583.6875,309.6875 C 580.04411,310.90199 572.15451,315.1507 553.9375,322.4375 C 533.29154,332.1532 516.8946,334.57662 504.75,329.71875 C 492.60532,324.86093 484.7059,321.83951 481.0625,320.625 C 472.56122,318.19609 469.50851,320.61947 471.9375,327.90625 C 480.43871,352.19554 497.465,364.94175 522.96875,366.15625 C 548.47253,367.37068 569.11815,364.64829 584.90625,357.96875 C 600.69433,351.28921 619.81367,350.06186 642.28125,354.3125 C 664.74888,358.56314 683.27018,362.51285 697.84375,366.15625 C 704.29837,367.76989 710.14279,370.59784 715.40625,374.59375 C 708.09742,374.35547 700.71651,374.26021 693.28125,374.34375 C 639.23755,374.95099 597.04914,410.49849 566.6875,480.9375 C 558.18622,521.01486 541.78936,558.05736 517.5,592.0625 C 493.21072,626.06755 499.28477,642.46447 535.71875,641.25 C 527.21747,653.39468 528.41353,660.66484 539.34375,663.09375 C 529.62805,669.16606 528.43194,674.64214 535.71875,679.5 C 543.00555,684.35788 545.42891,695.27876 543,712.28125 C 539.35654,766.93226 525.38303,811.27623 501.09375,845.28125 C 476.80446,879.28631 454.63247,892.33152 434.59375,884.4375 C 414.55511,876.54346 402.43823,877.44056 398.1875,887.15625 C 393.93694,896.87195 400.31001,906.29773 417.3125,915.40625 C 434.31499,924.51478 461.03471,920.26604 497.46875,902.65625 C 533.90271,885.04651 566.06726,831.30796 594,741.4375 L 645,741.4375 C 662.00248,754.79659 674.77999,783.93971 683.28125,828.875 C 639.56041,968.53854 603.71391,1174.995 575.78125,1448.25 L 363.46939,1147.884 C 330.28527,1086.9466 263.48551,1072.5941 207.11858,1099.7475 C 112.30458,1148.7678 162.03733,1272.5513 208.71875,1353.5312 C 251.83232,1426.3991 290.99926,1533.278 326.21875,1674.1562 L 185.9375,1734.25 L 196.875,1807.125 L 974.75,1807.125 L 894.59375,1710.5625 C 933.45669,1332.8635 947.09995,1091.4888 935.5625,986.4375 C 924.02507,881.38627 897.6356,823.39902 856.34375,812.46875 L 850.875,788.78125 C 867.87749,783.92337 886.69781,774.22985 907.34375,759.65625 C 963.20918,657.64109 978.67778,575.95556 953.78125,514.625 C 928.88464,453.29451 892.77039,414.42656 845.40625,398.03125 C 820.31212,389.3448 794.28161,383.0388 767.3125,379.125 C 774.2673,372.65084 782.07322,368.32543 790.75,366.15625 C 805.32359,362.51286 823.84491,358.56314 846.3125,354.3125 C 868.78012,350.06186 887.89945,351.2892 903.6875,357.96875 C 919.4755,364.6483 939.82226,367.37067 964.71875,366.15625 C 989.61535,364.94176 1006.9092,352.7936 1016.625,329.71875 C 1019.0539,321.21752 1016.0325,318.1961 1007.5312,320.625 C 1002.6736,321.8395 994.47501,324.86092 982.9375,329.71875 C 971.40008,334.57663 956.23038,333.08153 937.40625,325.1875 C 918.58201,317.29346 908.53686,312.11642 901.25,309.6875 L 901.25,38.25 C 901.25,12.746226 883.04913,0 852.6875,0 C 835.68508,0 822.93884,3.6507071 814.4375,10.9375 C 807.15078,3.6507072 795.00258,0 778,0 C 760.99751,0 749.4474,3.6507071 743.375,10.9375 C 734.87378,3.6507072 722.12755,0 705.125,0 C 689.33693,0 677.18881,3.6507071 668.6875,10.9375 C 661.40071,3.6507072 649.25249,0 632.25,0 z M 632.25,19.40625 C 650.46698,19.40625 656.56251,26.707665 656.5625,41.28125 L 656.5625,309.6875 C 638.34552,306.04411 626.15448,305.44607 607.9375,307.875 L 607.9375,41.28125 C 607.9375,26.707665 614.03301,19.40625 632.25,19.40625 z M 705.125,19.40625 C 723.34198,19.40625 729.43748,26.707665 729.4375,41.28125 L 731.25,335.1875 C 720.31981,326.68629 707.53073,319.41612 680.8125,313.34375 L 680.8125,41.28125 C 680.8125,26.707665 686.908,19.40625 705.125,19.40625 z M 778,19.40625 C 796.21699,19.40625 802.31253,26.707665 802.3125,41.28125 L 802.3125,313.34375 C 779.23762,319.41611 767.64458,326.68628 755.5,335.1875 L 755.5,41.28125 C 755.5,26.707665 760.99753,19.40625 778,19.40625 z M 852.6875,19.40625 C 870.90454,19.40625 877.00002,26.707665 877,41.28125 L 877,306.03125 C 858.78295,304.81676 845.99389,306.04412 826.5625,309.6875 L 826.5625,41.28125 C 826.5625,26.707665 833.25607,19.40625 852.6875,19.40625 z M 730.15625,406.9375 C 758.90971,406.72875 788.5245,412.2595 819,423.53125 C 863.328,439.92656 895.79162,471.52423 916.4375,518.28125 C 937.08346,565.03815 933.46401,619.0757 905.53125,680.40625 C 877.59857,741.7368 850.54852,762.68148 824.4375,743.25 C 798.32648,723.81853 785.28122,700.1515 785.28125,672.21875 C 810.78503,632.14139 826.58397,602.0699 832.65625,582.03125 C 838.72862,561.99253 838.42959,543.47129 831.75,526.46875 C 825.07045,509.46626 812.29297,499.4424 793.46875,496.40625 C 774.64453,493.37004 756.12325,499.14509 737.90625,513.71875 C 706.33011,496.7162 665.66804,481.54659 615.875,468.1875 C 625.59071,437.82584 650.78419,418.67528 691.46875,410.78125 C 704.18271,408.31436 717.0865,407.03239 730.15625,406.9375 z M 592.1875,499.15625 C 639.55164,507.65753 687.51511,524.0544 736.09375,548.34375 C 722.73466,623.64058 704.81134,669.77867 682.34375,686.78125 C 659.87613,703.78373 631.03203,712.87927 595.8125,714.09375 C 572.73762,715.30818 562.41475,710.76036 564.84375,700.4375 C 567.27266,690.1145 565.47858,681.31806 559.40625,674.03125 C 600.69808,675.24573 612.51608,669.47069 594.90625,656.71875 C 577.29651,643.96691 564.8493,640.64643 557.5625,646.71875 C 562.42039,628.50177 552.72687,618.77699 528.4375,617.5625 C 549.10128,585.21925 566.08464,555.19089 579.4375,527.5 L 579.4375,542.875 C 607.37025,534.37372 630.14025,533.74444 647.75,541.03125 C 665.3598,548.31812 688.72782,553.19605 717.875,555.625 L 706.9375,544.6875 C 680.21923,536.18623 659.27457,528.88479 644.09375,522.8125 C 629.19445,516.85281 608.15136,517.37275 580.96875,524.28125 C 585.05729,515.67458 588.81456,507.30755 592.1875,499.15625 z M 776.21875,532.34375 C 781.05764,532.1445 785.2941,533.53974 788.9375,536.5 C 798.65326,544.39404 801.3757,556.21199 797.125,572 C 792.87443,587.78807 773.1258,617.56049 737.90625,661.28125 C 759.76662,736.57814 785.88835,776.64211 816.25,781.5 L 823.53125,808.84375 C 798.02747,806.41484 777.08283,806.11579 760.6875,807.9375 C 744.29219,809.75917 730.61765,813.67767 719.6875,819.75 C 708.75723,769.95694 694.815,733.54364 677.8125,710.46875 C 711.81755,683.75049 734.88666,629.08367 747.03125,546.5 C 758.41691,537.39151 768.15393,532.67583 776.21875,532.34375 z M 615.40625,546.5 C 599.31457,546.5 587.92957,552.57412 581.25,564.71875 L 564.84375,573.84375 L 564.84375,582.9375 L 579.4375,584.75 C 601.29795,599.32358 634.68981,596.90021 679.625,577.46875 L 719.6875,577.46875 L 719.6875,564.71875 L 677.8125,564.71875 C 652.30872,552.57411 631.49793,546.5 615.40625,546.5 z M 634.09375,557.4375 L 665.0625,570.1875 C 654.13231,575.04531 643.18019,578.696 632.25,581.125 C 640.75127,573.8382 641.38056,565.93876 634.09375,557.4375 z M 606.75,559.25 C 601.89218,566.53679 603.11949,574.4363 610.40625,582.9375 C 600.69049,580.50859 592.79106,578.0852 586.71875,575.65625 C 589.14773,569.58395 595.81988,564.10782 606.75,559.25 z M 798.03125,850.71875 C 845.39548,850.71875 875.16782,876.84049 887.3125,929.0625 C 903.10057,1003.1449 905.52399,1118.5214 894.59375,1275.1875 C 880.02016,1456.143 862.39589,1604.9113 841.75,1721.5 L 865.4375,1754.2812 L 260.625,1754.2812 L 386.34375,1703.2812 C 349.90972,1525.9694 304.3697,1395.4234 249.71875,1311.625 C 195.06781,1227.8269 185.94105,1173.7894 222.375,1149.5 C 258.80896,1125.2107 294.62423,1139.1841 329.84375,1191.4062 L 575.78125,1541.1562 L 619.5,1537.5 C 646.21826,1266.6741 674.16535,1063.8683 703.3125,929.0625 C 719.10058,876.84047 750.66713,850.71872 798.03125,850.71875 z"
     id="path2239"
     sodipodi:nodetypes="ccccsccsssscscsccscsssssccccccccccccscccsscssssccssccscscscccccccccccccccccccccccccccsssscsssccscccscscsccccsccscccsscccsccccccccccccccccccccccccccccccsccccc" />
</svg>
