<?xml version="1.0" encoding="UTF-8" standalone="no"?>
<svg
   xmlns:dc="http://purl.org/dc/elements/1.1/"
   xmlns:cc="http://web.resource.org/cc/"
   xmlns:rdf="http://www.w3.org/1999/02/22-rdf-syntax-ns#"
   xmlns:svg="http://www.w3.org/2000/svg"
   xmlns="http://www.w3.org/2000/svg"
   xmlns:sodipodi="http://sodipodi.sourceforge.net/DTD/sodipodi-0.dtd"
   xmlns:inkscape="http://www.inkscape.org/namespaces/inkscape"
   width="14.713056"
   height="17.636198"
   id="svg2273"
   sodipodi:version="0.32"
   inkscape:version="0.45"
   sodipodi:docname="C98B.svg"
   inkscape:output_extension="org.inkscape.output.svg.inkscape"
   sodipodi:docbase="C:\Program Files\JSesh\fontsST"
   sodipodi:modified="true">
  <metadata
     id="metadata2280">
    <rdf:RDF>
      <cc:Work
         rdf:about="">
        <dc:format>image/svg+xml</dc:format>
        <dc:type
           rdf:resource="http://purl.org/dc/dcmitype/StillImage" />
      </cc:Work>
    </rdf:RDF>
  </metadata>
  <defs
     id="defs2278" />
  <sodipodi:namedview
     inkscape:window-height="480"
     inkscape:window-width="640"
     inkscape:pageshadow="2"
     inkscape:pageopacity="0.0"
     guidetolerance="10.0"
     gridtolerance="10.0"
     objecttolerance="10.0"
     borderopacity="1.0"
     bordercolor="#666666"
     pagecolor="#ffffff"
     id="base" />
  <path
     style="fill:#000000; stroke:none"
     d="M 5.228837,10.760834 C 5.4068397,10.523497 5.673844,10.382578 6.02985,10.338077 C 5.5700087,9.922737 5.143543,9.8077767 4.750453,9.993196 C 4.3573637,10.178616 4.338822,10.267618 4.694828,10.260201 C 5.050834,10.252784 5.228837,10.419662 5.228837,10.760834 z M 9.545407,14.899403 L 6.65286,11.072339 C 5.940848,10.656998 5.65901,10.909169 5.807346,11.828852 L 7.542875,16.545929 L 6.274604,17.079939 L 12.371204,17.079939 L 11.903947,16.812935 C 12.28962,14.92907 12.538082,13.093415 12.649334,11.305968 C 12.760586,9.518522 12.586292,8.532089 12.126451,8.346669 C 11.66661,8.1612497 11.27352,8.2836267 10.947181,8.7138 C 10.48734,9.9598207 10.175835,11.940104 10.012666,14.654649 L 9.545407,14.899403 z M 11.881697,2.127692 C 11.792695,1.62335 11.562774,1.400846 11.191935,1.46018 C 10.939764,1.5046813 10.821096,1.62335 10.835929,1.816186 C 10.910097,2.0090227 11.065849,2.0980243 11.303186,2.083191 C 11.169685,2.4095297 10.835929,2.8767873 10.30192,3.484964 C 9.7679113,4.0931407 9.4193223,4.5974823 9.256153,4.997989 L 9.834662,5.220492 C 9.8939967,4.805152 10.072,4.37127 10.368671,3.918846 C 10.665343,3.466422 10.958306,3.0881657 11.247561,2.784077 C 11.536816,2.479989 11.748194,2.261194 11.881697,2.127692 z M 13.728477,0.725918 C 13.787811,0.62208333 13.795228,0.525665 13.750728,0.436663 C 13.706227,0.34766167 13.624642,0.273494 13.505973,0.21416 C 13.387305,0.16965933 13.28347,0.16965933 13.194468,0.21416 C 13.105467,0.25866067 13.031299,0.33282833 12.971964,0.436663 C 12.927463,0.55533167 12.927463,0.659167 12.971964,0.748169 C 13.090633,0.61466633 13.231552,0.54049833 13.394721,0.525665 C 13.498556,0.64433367 13.543057,0.79266933 13.528224,0.970672 C 13.632059,0.92617133 13.69881,0.84458667 13.728477,0.725918 z M 13.372471,0.903921 L 13.327971,0.681418 L 13.149967,0.81492 C 13.1203,0.889088 13.127717,0.97808933 13.172217,1.081924 C 13.276053,1.0374233 13.342804,0.978089 13.372471,0.903921 z M 13.416971,2.728451 C 13.402138,2.9212877 13.402138,3.225376 13.416971,3.640716 C 13.431805,4.0560567 13.394721,4.5344397 13.305719,5.075865 C 13.216718,5.6172903 13.001631,6.1698413 12.66046,6.733518 L 13.394721,6.600015 C 13.543057,6.1995083 13.624642,5.5987487 13.639476,4.797736 C 13.654309,3.9967227 13.72106,3.4256297 13.839728,3.084457 C 14.032565,3.2624603 14.210568,3.2995443 14.373737,3.195709 C 14.50724,3.0770403 14.50724,2.913871 14.373737,2.706201 C 14.121566,2.3946957 13.802644,2.4021123 13.416971,2.728451 z M 10.702427,6.132758 C 10.479923,6.192092 10.316753,6.2143423 10.212918,6.199509 C 10.09425,6.199509 10.042333,6.1550083 10.057166,6.066007 C 10.042333,6.0215057 10.046041,5.9844217 10.068292,5.954755 C 10.090541,5.9250877 10.146167,5.910254 10.235169,5.910254 C 10.32417,5.9250873 10.479923,5.9992553 10.702427,6.132758 z M 10.813679,5.999255 L 11.013932,5.999255 L 11.013932,6.088257 L 10.813679,6.088257 C 10.472506,5.8509197 10.205502,5.7767517 10.012666,5.865753 C 9.982998,5.8360857 9.9904147,5.791585 10.034916,5.732251 C 10.272253,5.6432497 10.531841,5.732251 10.813679,5.999255 z M 11.258686,6.466513 C 11.288353,6.466513 11.303186,6.4887633 11.303186,6.533264 C 11.303186,6.5777647 11.288353,6.600015 11.258686,6.600015 C 11.214185,6.5851817 11.191935,6.5629313 11.191935,6.533264 C 11.191935,6.4887633 11.214185,6.466513 11.258686,6.466513 z M 11.347688,6.221759 L 11.48119,6.132758 C 11.407022,6.05859 11.369938,5.9918387 11.369938,5.932504 C 11.369938,5.8880033 11.384771,5.847211 11.414438,5.810127 C 11.444106,5.773043 11.496024,5.7470843 11.570191,5.732251 C 11.68886,5.7470843 11.748194,5.7990017 11.748194,5.888003 C 11.748194,5.977005 11.740777,6.051173 11.725944,6.110507 C 11.681443,6.1550077 11.577608,6.251426 11.414438,6.399762 L 11.392188,6.399762 C 11.555357,6.2217593 11.651776,6.1030907 11.681443,6.043756 C 11.71111,5.9547547 11.696277,5.8880037 11.636942,5.843503 C 11.577608,5.7990023 11.529399,5.7990023 11.492315,5.843503 C 11.455231,5.8880037 11.458939,5.9436297 11.50344,6.010381 C 11.547941,6.0771317 11.555357,6.1253407 11.52569,6.155008 L 11.347688,6.26626 L 11.169684,6.488763 C 11.125184,6.5480977 11.114059,6.58889 11.136309,6.61114 C 11.158559,6.6333907 11.191935,6.6408077 11.236436,6.633391 C 11.280936,6.6259743 11.369937,6.5703483 11.50344,6.466513 C 11.607275,6.333011 11.685152,6.229176 11.737069,6.155008 C 11.788986,6.08084 11.818654,5.9807133 11.826071,5.854628 C 11.833487,5.7285427 11.748194,5.6655 11.570191,5.6655 C 11.421856,5.6655 11.332854,5.7211257 11.303186,5.832377 C 11.273519,5.943629 11.288353,6.073423 11.347688,6.221759 z M 9.567658,6.91152 C 9.552824,6.9560207 9.582491,6.985688 9.656659,7.000522 L 9.901414,7.000522 L 9.567658,6.91152 z M 9.968164,7.111774 L 9.790162,7.134024 L 9.67891,7.111774 C 9.619576,7.09694 9.589909,7.1117733 9.589909,7.156274 C 9.575075,7.1859413 9.5899083,7.200775 9.634409,7.200775 C 9.8569123,7.1562743 9.968164,7.1266073 9.968164,7.111774 z M 11.125184,7.957288 C 11.733361,7.88312 11.985532,7.753326 11.881697,7.567906 C 11.777862,7.3824867 11.68886,7.0450227 11.614692,6.555514 C 11.421856,6.6890167 11.280937,6.755768 11.191935,6.755768 C 11.043599,6.755768 10.976848,6.6890167 10.991682,6.555514 C 11.006515,6.436846 11.095517,6.3181777 11.258686,6.199509 C 11.258686,6.125341 11.199352,6.088257 11.080683,6.088257 C 11.080683,5.8954203 10.939764,5.761918 10.657927,5.68775 C 10.376088,5.6135827 10.161001,5.569082 10.012666,5.554248 C 9.9533313,5.836086 9.7975783,6.1401743 9.545407,6.466513 C 9.5305737,6.4961803 9.523157,6.5332643 9.523157,6.577765 C 9.5379903,6.5925983 9.5973247,6.607432 9.70116,6.622266 C 9.8198287,6.607432 9.849496,6.5851813 9.790162,6.555514 C 9.775328,6.49618 9.7975783,6.4590963 9.856913,6.444263 C 9.916247,6.4590963 9.9607477,6.5110137 9.990415,6.600015 C 9.990415,6.6593497 9.916247,6.6964337 9.767911,6.711267 L 9.745661,6.822519 C 9.8494963,6.8670197 9.975582,6.9486043 10.123918,7.067273 C 10.04975,7.1711083 9.9162477,7.26011 9.723411,7.334278 C 9.723411,7.46778 9.7753283,7.564198 9.879163,7.623532 C 10.294503,7.549364 10.568924,7.51228 10.702427,7.51228 C 10.821096,7.51228 10.887847,7.5604893 10.90268,7.656908 C 10.917514,7.753326 10.991682,7.8534527 11.125184,7.957288 z M 11.903947,6.110507 C 11.933614,6.748351 12.000365,7.048731 12.1042,7.011647 C 12.208035,6.974563 12.40458,6.6778917 12.693834,6.121633 C 12.983089,5.5653737 13.124008,4.716151 13.116591,3.573965 C 13.109175,2.4317797 13.164801,1.7494353 13.283469,1.526932 C 13.402138,1.3340953 13.580141,1.3192617 13.817478,1.482431 C 13.891646,1.3637623 13.869396,1.2747607 13.750728,1.215426 C 13.543057,1.141258 13.313137,1.1931757 13.060966,1.371179 C 13.001631,1.0596737 12.868129,0.85942033 12.66046,0.770419 C 12.526957,0.72591833 12.445372,0.78525267 12.415705,0.948422 C 12.68271,0.97808933 12.801378,1.096758 12.771711,1.304428 C 12.712377,1.5417653 12.28962,2.083191 11.50344,2.928705 C 10.71726,3.774219 10.264836,4.5603987 10.146168,5.287244 C 10.635676,5.3762453 10.991682,5.487497 11.214186,5.620999 C 11.318021,5.5023303 11.470065,5.461538 11.670318,5.498622 C 11.870571,5.535706 11.970697,5.628416 11.970697,5.776752 C 11.970697,5.910254 11.948447,6.0215057 11.903947,6.110507 z M 0.734262,8.602549 L 1.379523,9.092056 L 3.0038,5.576499 L 0.734262,8.602549 z M 4.605826,9.581565 L 3.226303,5.865753 L 1.401773,9.982071 L 1.045767,9.870819 L 1.246021,9.381311 L 1.045767,9.247809 L 0.756513,9.648315 L 0.445007,9.448062 L 0.756513,9.025306 L 0.534009,8.869553 L 0.222504,9.27006 L 0,8.958554 L 3.226303,4.641983 L 5.050833,9.581565 L 5.251087,9.581565 L 5.251087,7.000522 C 5.2659203,6.7631847 5.199169,6.577765 5.050833,6.444263 C 4.5168243,6.088257 4.24982,5.6729167 4.24982,5.198242 C 4.24982,4.4417293 4.6577433,4.063473 5.47359,4.063473 C 6.25977,4.078307 6.65286,4.46398 6.65286,5.220492 C 6.7715287,5.3539947 6.8642387,5.4615383 6.93099,5.543123 C 6.9977407,5.6247077 6.9791987,5.7100007 6.875364,5.799002 C 6.7715287,5.8880033 6.6380263,5.8435027 6.474857,5.6655 C 6.341355,5.5023307 6.23752,5.261285 6.163352,4.942363 C 6.089184,4.623441 5.8592633,4.46398 5.47359,4.46398 C 4.9692487,4.46398 4.717078,4.708734 4.717078,5.198242 C 4.717078,5.554248 4.9692487,5.87317 5.47359,6.155008 C 5.6515933,6.2736767 5.740595,6.5629313 5.740595,7.022772 L 5.740595,9.581565 L 5.740595,9.559314 C 5.948265,9.574148 6.3042707,9.818902 6.808612,10.293576 L 9.456407,13.898136 L 9.478657,13.898136 C 9.6269923,11.376427 10.057166,9.448062 10.769178,8.11304 L 10.635675,7.846036 C 10.48734,7.8608693 10.287087,7.8608693 10.034916,7.846036 L 9.70116,8.7138 C 9.49349,9.203308 9.2339027,9.418395 8.922398,9.359061 C 8.7592287,9.3887283 8.677644,9.3219773 8.677644,9.158808 C 8.677644,8.9808047 8.8259797,8.891803 9.122651,8.891803 C 9.389655,8.268793 9.5305737,7.8534527 9.545407,7.645782 L 9.500907,7.334278 C 9.4119057,7.3046107 9.404489,7.215609 9.478657,7.067273 C 9.404489,7.0227723 9.3822383,6.9486043 9.411905,6.844769 C 9.486073,6.844769 9.523157,6.8002683 9.523157,6.711267 C 9.389655,6.711267 9.322904,6.6667663 9.322904,6.577765 C 9.2932367,6.5332643 9.3488623,6.4108873 9.489781,6.210634 C 9.6307003,6.0103807 9.7159937,5.8657533 9.745661,5.776752 C 9.7753283,5.6877507 9.8049953,5.5764987 9.834662,5.442996 L 8.900147,5.06474 C 9.107817,4.5307313 9.4786567,3.9707637 10.012666,3.384837 C 10.546675,2.798911 10.85818,2.4095297 10.947181,2.216693 C 10.73951,2.1276917 10.628258,2.009023 10.613425,1.860687 C 10.568925,1.5491817 10.739511,1.3415117 11.125184,1.237677 C 11.599858,1.163509 11.911363,1.3860127 12.059699,1.905188 C 12.074532,1.890354 12.156117,1.797644 12.304453,1.627058 C 12.452789,1.456472 12.526957,1.3192613 12.526957,1.215426 C 12.512123,1.081924 12.400871,1.0374233 12.193201,1.081924 C 12.193201,0.75558533 12.271077,0.58870767 12.42683,0.581291 C 12.582583,0.57387433 12.697544,0.58499933 12.771711,0.614666 C 12.771711,0.54049867 12.786545,0.458914 12.816212,0.369912 C 12.875546,0.22157667 12.971964,0.11403333 13.105467,0.047282 C 13.238968,-0.019469333 13.402138,-0.015761 13.594975,0.058407 C 13.74331,0.132575 13.847145,0.24011867 13.90648,0.381038 C 13.965814,0.52195667 13.965814,0.659167 13.90648,0.792669 C 13.876813,0.881671 13.832312,0.955839 13.772978,1.015173 C 13.832312,1.0300063 13.884229,1.0670903 13.92873,1.126425 C 14.106733,1.3044277 14.084483,1.504681 13.861979,1.727185 C 13.74331,1.593683 13.632059,1.556599 13.528224,1.615933 C 13.468889,1.690101 13.439222,1.9496887 13.439222,2.394696 C 13.899063,2.098024 14.269902,2.1573583 14.551741,2.572699 C 14.774244,2.913871 14.766827,3.1808753 14.52949,3.373712 C 14.395988,3.4923807 14.225402,3.5072143 14.017732,3.418213 C 13.943564,3.625883 13.90648,4.1302247 13.90648,4.931238 C 13.90648,5.7322513 13.810062,6.3923453 13.617225,6.91152 L 12.482456,7.089523 C 12.393455,7.237859 12.304453,7.3342773 12.215452,7.378778 L 12.504706,7.779285 C 13.872059,8.5829513 13.027342,13.706079 12.571458,16.434677 L 13.706226,17.636198 L 5.42909,17.636198 L 5.340088,16.879684 L 6.786362,16.256676 L 6.786362,16.278925 C 5.7776787,13.460545 5.095334,11.613765 4.739328,10.738584 C 4.3536553,10.664416 4.0977763,10.504955 3.971691,10.260201 C 3.845605,10.015446 4.0569833,9.7892343 4.605826,9.581565 L 4.605826,9.581565 z "
     id="path2275"
     sodipodi:nodetypes="ccssccccccccssccccsccsccssccssssccccccccccssccscscccsssscccccscccssscccsssssccsssscccsssssssccccccccssccscssccscsssssscccccssccsssscscscssccssccccccccccccccccccccccsccssssssscccccccccccsccccscsssccscscssscssssssssscscsscscccccccccccscc" />
</svg>
