<?xml version="1.0" encoding="UTF-8" standalone="no"?>
<svg
   xmlns:dc="http://purl.org/dc/elements/1.1/"
   xmlns:cc="http://web.resource.org/cc/"
   xmlns:rdf="http://www.w3.org/1999/02/22-rdf-syntax-ns#"
   xmlns:svg="http://www.w3.org/2000/svg"
   xmlns="http://www.w3.org/2000/svg"
   xmlns:sodipodi="http://sodipodi.sourceforge.net/DTD/sodipodi-0.dtd"
   xmlns:inkscape="http://www.inkscape.org/namespaces/inkscape"
   width="12.237702"
   height="17.972734"
   id="svg2237"
   sodipodi:version="0.32"
   inkscape:version="0.45"
   sodipodi:docname="C99.svg"
   inkscape:output_extension="org.inkscape.output.svg.inkscape"
   sodipodi:docbase="C:\Program Files\JSesh\fontsST"
   sodipodi:modified="true">
  <metadata
     id="metadata2244">
    <rdf:RDF>
      <cc:Work
         rdf:about="">
        <dc:format>image/svg+xml</dc:format>
        <dc:type
           rdf:resource="http://purl.org/dc/dcmitype/StillImage" />
      </cc:Work>
    </rdf:RDF>
  </metadata>
  <defs
     id="defs2242" />
  <sodipodi:namedview
     inkscape:window-height="480"
     inkscape:window-width="640"
     inkscape:pageshadow="2"
     inkscape:pageopacity="0.0"
     guidetolerance="10.0"
     gridtolerance="10.0"
     objecttolerance="10.0"
     borderopacity="1.0"
     bordercolor="#666666"
     pagecolor="#ffffff"
     id="base" />
  <path
     style="fill:#000000; stroke:none"
     d="M 2.269537,11.097371 C 2.4475403,10.8452 2.707128,10.696864 3.0483,10.652364 C 2.6032927,10.251857 2.1842443,10.144313 1.791155,10.329733 C 1.398065,10.515152 1.379523,10.600445 1.735529,10.585612 C 2.0915343,10.570779 2.269537,10.741365 2.269537,11.097371 z M 6.563859,15.235939 L 3.693561,11.386625 C 2.9667157,10.986119 2.6848777,11.23829 2.848047,12.143138 L 4.583576,16.860216 L 3.293054,17.416475 L 9.411905,17.416475 L 8.944648,17.12722 C 9.3154873,15.258189 9.556533,13.426243 9.667785,11.63138 C 9.7790363,9.8365167 9.60845,8.846375 9.156026,8.660955 C 8.703602,8.4755357 8.3142207,8.597913 7.987882,9.028087 C 7.5132073,10.274108 7.2017023,12.25439 7.053367,14.968935 L 6.563859,15.235939 z M 5.47359,5.60153 C 5.414256,5.5866967 5.2659203,5.5570293 5.028583,5.512528 C 4.8060797,5.512528 4.6429103,5.4309437 4.539075,5.267775 C 4.4352397,5.104605 4.3759053,5.060104 4.361072,5.134272 C 4.4204067,5.341942 4.4945747,5.482861 4.583576,5.557029 C 4.6725773,5.631197 4.783829,5.668281 4.917331,5.668281 C 5.065667,5.668281 5.2510867,5.6460307 5.47359,5.60153 z M 5.228837,5.468028 C 5.5551757,5.4828613 5.7999297,5.5384873 5.963099,5.634906 C 6.1262677,5.731324 6.28202,5.779533 6.430356,5.779533 C 6.578692,5.779533 6.682527,5.7646993 6.741861,5.735032 C 6.5935257,5.7201987 6.4674403,5.6905317 6.363605,5.646031 C 6.2746037,5.6163637 6.1670603,5.5496123 6.040975,5.445777 C 5.9148897,5.3419423 5.777679,5.290025 5.629343,5.290025 C 5.481007,5.290025 5.347505,5.3493593 5.228837,5.468028 z M 6.319104,5.512528 C 6.4526067,5.586696 6.6751107,5.6534473 6.986616,5.712782 L 6.942115,5.356776 C 6.6751103,5.3716093 6.46744,5.4235267 6.319104,5.512528 z M 9.0559,5.356776 C 8.9668987,5.297442 8.8408133,5.267775 8.677644,5.267775 C 8.440306,5.267775 8.284553,5.3567763 8.210385,5.534779 C 8.210385,5.6534477 8.2585943,5.7239073 8.355013,5.746158 C 8.451431,5.768408 8.5515577,5.7090733 8.655393,5.568154 C 8.7592283,5.4272353 8.8927307,5.356776 9.0559,5.356776 z M 8.788896,5.534779 C 8.907564,5.5496123 9.1041087,5.6052383 9.37853,5.701657 C 9.6529513,5.798075 9.8902887,5.8129087 10.090542,5.746158 C 10.290795,5.6794067 10.472506,5.5644463 10.635675,5.401277 C 10.48734,5.3716097 10.309337,5.412402 10.101666,5.523654 C 9.8939967,5.634906 9.6529513,5.634906 9.37853,5.523654 C 9.1041087,5.412402 8.907564,5.4161103 8.788896,5.534779 z M 12.037449,5.312275 C 11.963281,5.327109 11.889113,5.3753183 11.814945,5.456903 C 11.740777,5.5384877 11.610983,5.6052387 11.425564,5.657156 C 11.240144,5.7090733 11.013932,5.6386137 10.746927,5.445777 L 10.568925,5.60153 C 10.643093,5.6163633 10.735803,5.6571557 10.847054,5.723907 C 10.958306,5.7906583 11.132601,5.824034 11.369938,5.824034 C 11.592441,5.824034 11.814945,5.6534477 12.037449,5.312275 z M 8.989148,6.936552 C 9.211652,6.80305 9.389655,6.491545 9.523157,6.002037 C 9.389655,6.002037 9.2821117,5.9797867 9.200527,5.935286 C 9.1189423,5.8907853 8.944648,5.8537013 8.677644,5.824034 C 8.7814787,5.8685347 8.8371047,5.9612443 8.844522,6.102163 C 8.851938,6.2430823 8.8111453,6.38771 8.722144,6.536046 C 8.7369773,6.7140487 8.8259787,6.8475507 8.989148,6.936552 z M 7.164618,5.401277 C 7.164618,5.534779 7.2091187,5.6460307 7.29812,5.735032 C 7.387122,5.824034 7.498374,5.868535 7.631876,5.868535 C 7.7505447,5.868535 7.8506713,5.824034 7.932256,5.735032 C 8.0138407,5.6460307 8.054633,5.534779 8.054633,5.401277 C 8.054633,5.267775 8.0138407,5.1602313 7.932256,5.078646 C 7.8506713,4.9970613 7.7505447,4.956269 7.631876,4.956269 C 7.48354,4.956269 7.3685797,4.9970613 7.286995,5.078646 C 7.2054103,5.1602313 7.164618,5.267775 7.164618,5.401277 z M 7.676377,6.469295 C 7.4835403,6.528629 7.3352043,6.558296 7.231369,6.558296 C 7.1275343,6.558296 7.075617,6.521212 7.075617,6.447044 C 7.075617,6.4025433 7.0830337,6.3654593 7.097867,6.335792 C 7.112701,6.3061247 7.1646187,6.291291 7.25362,6.291291 C 7.3426213,6.291291 7.4835403,6.3506257 7.676377,6.469295 z M 7.787629,6.335792 L 7.965631,6.335792 L 7.965631,6.447044 L 7.787629,6.447044 C 7.4761237,6.22454 7.2313697,6.157789 7.053367,6.246791 C 7.0236997,6.2171237 7.0236997,6.1800397 7.053367,6.135539 C 7.261037,6.0465377 7.505791,6.1132887 7.787629,6.335792 z M 8.210385,6.780799 C 8.240053,6.780799 8.254887,6.7956327 8.254887,6.8253 C 8.254887,6.8698007 8.240053,6.892051 8.210385,6.892051 C 8.165885,6.8772177 8.143635,6.8549673 8.143635,6.8253 C 8.143635,6.7956327 8.165885,6.780799 8.210385,6.780799 z M 8.277137,6.536046 L 8.388389,6.447044 C 8.3290543,6.38771 8.2919703,6.3357923 8.277137,6.291291 C 8.2919703,6.2467903 8.3105123,6.2022897 8.332763,6.157789 C 8.355013,6.1132883 8.3958053,6.091038 8.45514,6.091038 C 8.588642,6.091038 8.655393,6.1355387 8.655393,6.22454 C 8.655393,6.298708 8.6405593,6.3654593 8.610892,6.424794 C 8.5960587,6.4692947 8.514474,6.5657127 8.366138,6.714048 L 8.321637,6.691798 C 8.4551397,6.5434627 8.5367247,6.4396277 8.566392,6.380293 C 8.5960587,6.306125 8.5849333,6.2467907 8.533016,6.20229 C 8.4810987,6.1577893 8.436598,6.1614977 8.399514,6.213415 C 8.36243,6.2653323 8.3661383,6.31725 8.410639,6.369168 C 8.4551397,6.4210853 8.4699733,6.454461 8.45514,6.469295 L 8.277137,6.602797 L 8.121385,6.780799 C 8.0768837,6.8401337 8.0657583,6.8809263 8.088009,6.903177 C 8.1102597,6.925427 8.143635,6.9328437 8.188135,6.925427 C 8.2326363,6.9180103 8.314221,6.8623843 8.432889,6.758549 C 8.5367243,6.6398803 8.6108923,6.5434623 8.655393,6.469295 C 8.6998937,6.395127 8.722144,6.3061253 8.722144,6.20229 C 8.722144,6.0836213 8.6331427,6.024287 8.45514,6.024287 C 8.3364713,6.024287 8.2660117,6.079913 8.243761,6.191165 C 8.2215103,6.302417 8.2326357,6.4173773 8.277137,6.536046 z M 6.67511,7.225807 C 6.6602767,7.285141 6.6973607,7.314808 6.786362,7.314808 L 6.986616,7.314808 L 6.67511,7.225807 z M 7.053367,7.381559 L 6.875364,7.40381 L 6.764112,7.40381 C 6.7196113,7.40381 6.697361,7.4260603 6.697361,7.470561 C 6.697361,7.4853943 6.7121943,7.4853943 6.741861,7.470561 C 6.9495317,7.4260603 7.053367,7.396393 7.053367,7.381559 z M 8.054633,8.204823 C 8.1881357,8.278991 8.358722,8.290116 8.566392,8.238198 C 8.7740613,8.1862807 8.885313,8.063904 8.900147,7.871068 C 8.7518117,7.6188967 8.6257263,7.2703073 8.521891,6.8253 C 8.3587217,6.973636 8.240053,7.047804 8.165885,7.047804 C 8.0323823,7.047804 7.965631,6.9884697 7.965631,6.869801 C 7.965631,6.7511323 8.039799,6.6398807 8.188135,6.536046 C 8.188135,6.4767113 8.1362177,6.447044 8.032383,6.447044 C 8.0175497,6.239374 7.8840473,6.1132887 7.631876,6.068788 C 7.3797053,6.0242873 7.179452,6.002037 7.031116,6.002037 C 6.9866153,6.2393743 6.86053,6.5137953 6.65286,6.8253 C 6.6380267,6.8698007 6.63061,6.899468 6.63061,6.914302 C 6.63061,6.9439693 6.6825273,6.958803 6.786362,6.958803 C 6.8901973,6.958803 6.9198647,6.9365523 6.875364,6.892051 C 6.86053,6.8475503 6.8827803,6.8253 6.942115,6.8253 C 6.9866157,6.8253 7.0236997,6.862384 7.053367,6.936552 C 7.053367,6.9810527 6.979199,7.0255537 6.830863,7.070055 L 6.830863,7.159056 C 6.9198643,7.1887233 7.038533,7.2554743 7.186869,7.359309 C 7.1275343,7.4483103 7.0088657,7.529895 6.830863,7.604063 C 6.816029,7.7227317 6.8679467,7.81915 6.986616,7.893318 C 7.3574553,7.8043167 7.6022093,7.759816 7.720878,7.759816 C 7.839546,7.759816 7.906297,7.8043167 7.921131,7.893318 C 7.9359643,7.9823193 7.980465,8.0861543 8.054633,8.204823 z M 10.32417,5.201024 C 10.398338,4.8746847 10.428005,4.4593443 10.413172,3.955003 C 10.383505,3.3764937 10.398338,2.9611533 10.457673,2.708982 C 10.620842,2.8276507 10.754344,2.849901 10.858179,2.775733 C 10.962014,2.6867317 10.947181,2.5680633 10.813679,2.419728 C 10.635676,2.2120573 10.44284,2.1972237 10.235169,2.375227 C 10.220335,2.5532297 10.212918,2.8647347 10.212918,3.309742 C 10.212918,3.7547493 10.201793,4.1292973 10.179543,4.433386 C 10.157293,4.737474 10.086833,5.0230203 9.968164,5.290025 C 10.042332,5.2455243 10.161001,5.2158573 10.32417,5.201024 z M 7.097867,4.733766 C 7.1423677,4.4074267 7.2832867,4.0514207 7.520624,3.665748 C 7.802462,3.235574 8.091717,2.8647347 8.388389,2.55323 C 8.6108923,2.3010587 8.7740613,2.115639 8.877896,1.996971 C 8.803728,1.5222963 8.603475,1.3072093 8.277137,1.35171 C 8.054633,1.411044 7.9507977,1.5297127 7.965631,1.707716 C 8.0249657,1.8708853 8.158468,1.95247 8.366138,1.95247 C 8.2623027,2.2491413 7.973048,2.6830233 7.498374,3.254116 C 7.0236993,3.8252087 6.682527,4.3480923 6.474857,4.822767 C 6.6380263,4.7930997 6.8456963,4.7634327 7.097867,4.733766 z M 10.057166,0.995704 L 10.168418,0.951203 L 10.146168,0.7732 L 9.990415,0.884452 L 10.057166,0.995704 z M 10.123918,1.418461 C 10.242586,1.2552917 10.383505,1.240458 10.546675,1.37396 C 10.635676,1.2552913 10.628259,1.1737067 10.524424,1.129206 C 10.376088,1.069872 10.175835,1.1143727 9.923664,1.262708 C 9.8643293,0.98087 9.7604943,0.810284 9.612159,0.75095 C 9.5083243,0.70644933 9.4489897,0.75836667 9.434155,0.906702 C 9.6418257,0.93636933 9.7308273,1.0476213 9.70116,1.240458 C 9.641826,1.448128 9.26357,1.945053 8.566392,2.731233 C 7.8988807,3.487745 7.5057907,4.1700893 7.387122,4.778266 L 7.631876,4.778266 C 7.8247127,4.778266 7.9730483,4.8376003 8.076883,4.956269 C 8.1658843,5.0601043 8.210385,5.1639397 8.210385,5.267775 C 8.358721,5.0749383 8.514474,4.97852 8.677644,4.97852 C 8.8556467,4.97852 9.181985,5.1046053 9.656659,5.356776 C 9.8346623,4.718932 9.923664,3.977253 9.923664,3.131739 C 9.9533307,2.1823903 10.020082,1.6112977 10.123918,1.418461 z M 10.235169,0.572947 C 10.309337,0.69161567 10.339004,0.81028433 10.32417,0.928953 C 10.472507,0.86961833 10.568925,0.78803367 10.613425,0.684199 C 10.657926,0.59519767 10.665343,0.506196 10.635675,0.417194 C 10.606008,0.32819267 10.524424,0.254025 10.390922,0.194691 C 10.242586,0.13535633 10.127626,0.12793933 10.046041,0.17244 C 9.9644563,0.21694067 9.9088303,0.283692 9.879163,0.372694 C 9.8346623,0.47652867 9.8420793,0.59519733 9.901414,0.7287 C 9.975582,0.654532 10.086834,0.60261433 10.235169,0.572947 z M 9.723411,6.447044 L 10.146168,6.313542 L 10.212918,5.913035 C 10.153585,5.9575357 10.034916,6.0020363 9.856913,6.046537 C 9.8124123,6.2245403 9.7679117,6.3580427 9.723411,6.447044 z M 9.0559,7.225807 C 9.0855667,7.5224783 9.241319,7.8117333 9.523157,8.093572 C 10.774696,8.8016887 10.070301,14.027414 9.612159,16.771215 L 10.746927,17.972734 L 2.469791,17.972734 L 2.358539,17.216223 L 3.804813,16.593212 L 3.827063,16.593212 C 2.8183797,13.789665 2.136035,11.942885 1.780029,11.05287 C 1.3943563,10.993536 1.1384773,10.841492 1.012392,10.596738 C 0.88630667,10.351984 1.1421857,10.096105 1.780029,9.8291 L 1.780029,5.512528 C 1.720695,5.0823547 1.6279853,4.9191853 1.5019,5.02302 C 1.3758147,5.1268553 1.20152,5.3493593 0.979016,5.690532 C 0.75651267,6.5063787 0.430174,6.8253003 0,6.647297 C 0.44500733,5.668281 0.741679,4.9970617 0.890015,4.633639 C 1.0383503,4.2702163 1.279396,3.9216273 1.613152,3.587872 C 1.9469073,3.2541167 2.2398703,2.797984 2.492041,2.219474 C 2.773879,2.4568113 2.7961293,2.7608997 2.558792,3.131739 C 2.3214547,3.502579 2.1212013,3.858585 1.958032,4.199757 C 2.2250367,4.6299303 2.3511223,5.0378537 2.336289,5.423527 L 2.336289,9.806849 C 2.7664623,9.7771823 3.2708037,10.051604 3.849313,10.630114 L 6.497108,14.234673 L 6.497108,14.234673 C 6.6602767,11.712964 7.097867,9.784599 7.809879,8.449577 L 7.809879,8.449577 L 7.676377,8.02682 C 7.5428743,8.0564873 7.3574547,8.071321 7.120118,8.071321 L 6.830863,8.894585 C 6.682527,9.3395923 6.4600233,9.547262 6.163352,9.517594 C 6.0001827,9.517594 5.918598,9.4434263 5.918598,9.295091 C 5.918598,9.146755 6.059517,9.072587 6.341355,9.072587 C 6.549025,8.4940777 6.6602767,8.100988 6.67511,7.893318 L 6.63061,7.626314 C 6.5416087,7.5966467 6.5193583,7.5150617 6.563859,7.381559 C 6.5193583,7.3370583 6.497108,7.2703073 6.497108,7.181306 C 6.5861093,7.1664727 6.63061,7.121972 6.63061,7.047804 C 6.5119413,7.047804 6.44519,7.018137 6.430356,6.958803 C 6.4155227,6.8994683 6.4674403,6.7807997 6.586109,6.602797 C 6.7047777,6.4247937 6.7789453,6.2912913 6.808612,6.20229 C 6.8382793,6.1132887 6.86053,6.0094537 6.875364,5.890785 C 6.7418613,5.9204523 6.5861087,5.935286 6.408106,5.935286 C 6.1559353,5.935286 5.8963477,5.8685347 5.629343,5.735032 C 5.4513403,5.8388673 5.1991693,5.890785 4.87283,5.890785 C 4.605826,5.890785 4.4129897,5.7350323 4.294321,5.423527 C 4.2053197,5.1565223 4.2127363,4.956269 4.316571,4.822767 C 4.4500737,4.8672677 4.5576173,4.9525607 4.639202,5.078646 C 4.7207867,5.204732 4.857997,5.2826083 5.050833,5.312275 C 5.273337,5.1491057 5.458757,5.067521 5.607093,5.067521 C 5.7702623,5.067521 6.0001827,5.1342723 6.296854,5.267775 C 6.4600233,5.2084403 6.6973607,5.1713563 7.008866,5.156523 C 7.0385333,5.0971883 7.0682003,5.0452707 7.097867,5.00077 C 6.9050303,5.00077 6.5564413,5.0526877 6.0521,5.156523 C 6.2894373,4.4296777 6.6639853,3.777 7.175744,3.19849 C 7.687502,2.6199807 7.980465,2.2417247 8.054633,2.063722 C 7.8617963,1.989554 7.7579613,1.878302 7.743128,1.729966 C 7.7134607,1.448128 7.869213,1.2552913 8.210385,1.151456 C 8.6108923,1.0772887 8.8927307,1.284959 9.0559,1.774467 C 9.0559,1.759633 9.122651,1.6706313 9.256153,1.507462 C 9.3896557,1.3442927 9.4638237,1.2182073 9.478657,1.129206 C 9.448989,1.0253713 9.3451537,0.98087067 9.167151,0.995704 C 9.181985,0.69903267 9.293237,0.550697 9.500907,0.550697 C 9.575075,0.535863 9.6344093,0.54327967 9.67891,0.572947 C 9.67891,0.498779 9.6937437,0.41719433 9.723411,0.328193 C 9.782745,0.194691 9.8717463,0.098272667 9.990415,0.038938 C 10.109084,-0.020396 10.264836,-0.012979 10.457673,0.061189 C 10.620842,0.13535633 10.724677,0.23548267 10.769178,0.361568 C 10.813679,0.487654 10.806262,0.617448 10.746927,0.75095 C 10.71726,0.83995133 10.67276,0.90670233 10.613425,0.951203 C 10.657926,0.98087033 10.702427,1.025371 10.746927,1.084705 C 10.895263,1.233041 10.858179,1.411044 10.635675,1.618714 C 10.546674,1.485212 10.450256,1.448128 10.346421,1.507462 C 10.30192,1.58163 10.272253,1.796717 10.25742,2.152723 C 10.524425,2.004387 10.769179,2.0637213 10.991682,2.330726 C 11.154851,2.5680633 11.162268,2.7608997 11.013932,2.909235 C 10.910097,2.983403 10.791428,2.9982367 10.657927,2.953736 C 10.598592,3.0872387 10.591175,3.4506613 10.635675,4.044004 C 10.665343,4.4890113 10.65051,4.8672677 10.591175,5.178773 C 10.65051,5.1639397 10.791429,5.223274 11.013932,5.356776 C 11.236436,5.490278 11.444106,5.4865697 11.636942,5.345651 C 11.829779,5.2047317 11.981823,5.1083133 12.093075,5.056396 C 12.204327,5.0044787 12.252536,5.0749383 12.237702,5.267775 C 12.148701,5.4457777 12.026324,5.6163637 11.870571,5.779533 C 11.714818,5.9427023 11.518273,6.024287 11.280936,6.024287 C 11.043599,6.024287 10.776595,5.9427023 10.479923,5.779533 L 10.32417,6.513795 L 9.612159,6.714048 C 9.5083243,6.9662193 9.3229047,7.1368057 9.0559,7.225807 z "
     id="path2239"
     sodipodi:nodetypes="ccssccccccccssccccsssssccssssssccccccssssccsscssccssccsscccssscccsssssssccsssscccccssccssscccsssssccsssscccsssssssccccccccssccsccssscscsssssscccccssccscsscsscccsscsscscccccccccscscssccscscccccsssssccccccccccccccccsccsccsscscccccccccccsscccsssssscscsscscsccscscscssscssssssssscscsscscssscsscccc" />
</svg>
