<?xml version="1.0" encoding="UTF-8" standalone="no"?>
<svg
   xmlns:dc="http://purl.org/dc/elements/1.1/"
   xmlns:cc="http://web.resource.org/cc/"
   xmlns:rdf="http://www.w3.org/1999/02/22-rdf-syntax-ns#"
   xmlns:svg="http://www.w3.org/2000/svg"
   xmlns="http://www.w3.org/2000/svg"
   xmlns:sodipodi="http://sodipodi.sourceforge.net/DTD/sodipodi-0.dtd"
   xmlns:inkscape="http://www.inkscape.org/namespaces/inkscape"
   width="11.770445"
   height="17.972734"
   id="svg2237"
   sodipodi:version="0.32"
   inkscape:version="0.45"
   sodipodi:docname="C99A.svg"
   inkscape:output_extension="org.inkscape.output.svg.inkscape"
   sodipodi:docbase="C:\Program Files\JSesh\fontsST"
   sodipodi:modified="true">
  <metadata
     id="metadata2244">
    <rdf:RDF>
      <cc:Work
         rdf:about="">
        <dc:format>image/svg+xml</dc:format>
        <dc:type
           rdf:resource="http://purl.org/dc/dcmitype/StillImage" />
      </cc:Work>
    </rdf:RDF>
  </metadata>
  <defs
     id="defs2242" />
  <sodipodi:namedview
     inkscape:window-height="480"
     inkscape:window-width="640"
     inkscape:pageshadow="2"
     inkscape:pageopacity="0.0"
     guidetolerance="10.0"
     gridtolerance="10.0"
     objecttolerance="10.0"
     borderopacity="1.0"
     bordercolor="#666666"
     pagecolor="#ffffff"
     id="base" />
  <path
     style="fill:#000000; stroke:none"
     d="M 1.780029,11.097371 C 1.9580323,10.860034 2.225037,10.719115 2.581043,10.674614 C 2.1212017,10.259273 1.694736,10.144313 1.301646,10.329733 C 0.90855667,10.515152 0.890015,10.604154 1.246021,10.596738 C 1.6020263,10.589321 1.780029,10.756198 1.780029,11.097371 z M 6.07435,15.235939 L 3.204053,11.408876 C 2.492041,10.993536 2.210203,11.245707 2.358539,12.165388 L 4.094068,16.882467 L 2.825797,17.416475 L 8.922398,17.416475 L 8.45514,17.149471 C 8.8408127,15.265606 9.0855667,13.429951 9.189402,11.642505 C 9.2932373,9.8550583 9.1189427,8.8686253 8.666518,8.683206 C 8.214094,8.497786 7.8247127,8.620163 7.498374,9.050337 C 7.0236993,10.296358 6.7121943,12.27664 6.563859,14.991185 L 6.07435,15.235939 z M 4.984082,5.62378 C 4.924748,5.6089467 4.7838293,5.5718627 4.561326,5.512528 C 4.323988,5.512528 4.1534017,5.4309437 4.049567,5.267775 C 3.9457317,5.104605 3.8863973,5.060104 3.871564,5.134272 C 3.930898,5.341942 4.005066,5.4865693 4.094068,5.568154 C 4.1830693,5.6497393 4.301738,5.690532 4.450074,5.690532 C 4.583576,5.690532 4.7615787,5.6682813 4.984082,5.62378 z M 4.761579,5.468028 C 5.0730843,5.4828613 5.3104213,5.5384873 5.47359,5.634906 C 5.63676,5.731324 5.7925127,5.779533 5.940848,5.779533 C 6.089184,5.779533 6.193019,5.7646993 6.252353,5.735032 C 6.1040177,5.7201987 5.9853493,5.6979483 5.896348,5.668281 C 5.7925127,5.6237803 5.6775523,5.5496123 5.551467,5.445777 C 5.4253817,5.3419423 5.288171,5.290025 5.139835,5.290025 C 4.991499,5.290025 4.8654137,5.3493593 4.761579,5.468028 z M 5.829597,5.512528 C 5.963099,5.586696 6.1856027,5.6534473 6.497108,5.712782 L 6.452607,5.379026 C 6.2004357,5.39386 5.9927657,5.4383607 5.829597,5.512528 z M 8.588642,5.356776 C 8.4996407,5.3122753 8.3661383,5.290025 8.188135,5.290025 C 7.9656317,5.290025 7.817296,5.3716097 7.743128,5.534779 C 7.7282947,5.668281 7.7727953,5.742449 7.87663,5.757283 C 7.9804653,5.7721163 8.0805923,5.7090733 8.177011,5.568154 C 8.2734283,5.4272353 8.4106387,5.356776 8.588642,5.356776 z M 8.321637,5.534779 C 8.4403057,5.5496123 8.6331423,5.6089467 8.900147,5.712782 C 9.167151,5.8166173 9.4007797,5.831451 9.601033,5.757283 C 9.801287,5.683115 9.9904153,5.571863 10.168418,5.423527 C 10.005249,5.3938597 9.819829,5.4309437 9.612159,5.534779 C 9.4044883,5.6386143 9.1634427,5.634906 8.889022,5.523654 C 8.6146007,5.412402 8.4254723,5.4161103 8.321637,5.534779 z M 11.547941,5.334526 C 11.473773,5.334526 11.399605,5.3790267 11.325438,5.468028 C 11.25127,5.5570293 11.121476,5.6237803 10.936056,5.668281 C 10.750637,5.7127817 10.531841,5.6460307 10.27967,5.468028 L 10.079416,5.60153 C 10.153584,5.6163633 10.250002,5.660864 10.368671,5.735032 C 10.48734,5.8092 10.657927,5.846284 10.88043,5.846284 C 11.117767,5.846284 11.340271,5.675698 11.547941,5.334526 z M 8.49964,6.936552 C 8.7073107,6.80305 8.9001473,6.491545 9.07815,6.002037 C 8.9149807,6.002037 8.7926037,5.9797867 8.711019,5.935286 C 8.6294343,5.8907853 8.4625563,5.8537013 8.210385,5.824034 C 8.3142203,5.8685347 8.366138,5.9612443 8.366138,6.102163 C 8.366138,6.2430823 8.3216373,6.3951267 8.232636,6.558296 C 8.24747,6.7362987 8.3364713,6.862384 8.49964,6.936552 z M 6.67511,5.401277 C 6.689944,5.5496123 6.7381533,5.668281 6.819738,5.757283 C 6.9013227,5.8462843 7.008866,5.890785 7.142368,5.890785 C 7.27587,5.8759517 7.3834133,5.824034 7.464998,5.735032 C 7.5465827,5.6460307 7.5799583,5.534779 7.565125,5.401277 C 7.565125,5.267775 7.5243327,5.1602313 7.442748,5.078646 C 7.3611633,4.9970613 7.2610367,4.956269 7.142368,4.956269 C 7.008866,4.971103 6.897614,5.0193123 6.808612,5.100897 C 6.7196107,5.1824817 6.67511,5.2826083 6.67511,5.401277 z M 7.186869,6.491545 C 6.9940323,6.550879 6.8456963,6.580546 6.741861,6.580546 C 6.6528597,6.580546 6.608359,6.5434623 6.608359,6.469295 C 6.608359,6.4099603 6.6120673,6.3654593 6.619484,6.335792 C 6.6269013,6.3061247 6.6751107,6.2949997 6.764112,6.302417 C 6.8531133,6.3098337 6.9940323,6.3728763 7.186869,6.491545 z M 7.320371,6.335792 L 7.476123,6.335792 L 7.476123,6.447044 L 7.320371,6.447044 C 6.9940323,6.22454 6.7418617,6.157789 6.563859,6.246791 C 6.5341917,6.231957 6.5341917,6.194873 6.563859,6.135539 C 6.7863623,6.0465377 7.038533,6.1132887 7.320371,6.335792 z M 7.720878,6.780799 C 7.7505447,6.780799 7.765378,6.8030497 7.765378,6.847551 C 7.765378,6.8772177 7.7505447,6.892051 7.720878,6.892051 C 7.6763773,6.892051 7.654127,6.8698007 7.654127,6.8253 C 7.654127,6.7956327 7.6763773,6.780799 7.720878,6.780799 z M 7.787629,6.536046 L 7.921131,6.469295 C 7.846963,6.395127 7.809879,6.3357923 7.809879,6.291291 C 7.809879,6.2467903 7.8210043,6.2022897 7.843255,6.157789 C 7.865505,6.1132883 7.913714,6.0984547 7.987882,6.113288 C 8.1065507,6.0984547 8.165885,6.1355387 8.165885,6.22454 C 8.165885,6.298708 8.1510517,6.3654593 8.121385,6.424794 C 8.1065503,6.484128 8.0249653,6.580546 7.87663,6.714048 L 7.85438,6.714048 C 7.9730487,6.5657127 8.054633,6.454461 8.099133,6.380293 C 8.1139677,6.306125 8.0991343,6.250499 8.054633,6.213415 C 8.0101323,6.176331 7.9656317,6.1800393 7.921131,6.22454 C 7.8766303,6.2690407 7.8803387,6.3209583 7.932256,6.380293 C 7.984174,6.4396277 8.002716,6.469295 7.987882,6.469295 L 7.787629,6.602797 L 7.654127,6.780799 C 7.6096257,6.8401337 7.5985003,6.8809263 7.620751,6.903177 C 7.6430017,6.925427 7.672669,6.9328437 7.709753,6.925427 C 7.7468363,6.9180103 7.8247123,6.8623843 7.943381,6.758549 C 8.0472157,6.6547143 8.1213837,6.5620047 8.165885,6.48042 C 8.2103857,6.3988353 8.232636,6.3061253 8.232636,6.20229 C 8.232636,6.0984547 8.1510513,6.046537 7.987882,6.046537 C 7.85438,6.046537 7.7765037,6.102163 7.754253,6.213415 C 7.732003,6.324667 7.7431283,6.4322107 7.787629,6.536046 z M 6.207852,7.248057 C 6.1781853,7.2925577 6.2078527,7.314808 6.296854,7.314808 L 6.519358,7.314808 L 6.207852,7.248057 z M 6.563859,7.40381 L 6.385856,7.42606 L 6.296854,7.40381 C 6.2375193,7.40381 6.207852,7.4260603 6.207852,7.470561 C 6.207852,7.5002283 6.2226857,7.507645 6.252353,7.492811 C 6.4600237,7.433477 6.563859,7.40381 6.563859,7.40381 z M 7.565125,8.204823 C 7.698627,8.293825 7.8729217,8.312367 8.088009,8.260449 C 8.3030957,8.208531 8.410639,8.086154 8.410639,7.893318 C 8.262303,7.6411473 8.1362177,7.2851413 8.032383,6.8253 C 7.8692137,6.98847 7.750545,7.070055 7.676377,7.070055 C 7.5428743,7.070055 7.476123,7.0107203 7.476123,6.892051 C 7.476123,6.7733823 7.550291,6.6621307 7.698627,6.558296 C 7.698627,6.484128 7.6541263,6.447044 7.565125,6.447044 C 7.5354577,6.2542073 7.3945387,6.1318303 7.142368,6.079913 C 6.8901973,6.0279957 6.689944,6.002037 6.541608,6.002037 C 6.5119413,6.2393743 6.385856,6.5137953 6.163352,6.8253 C 6.148518,6.8698007 6.141101,6.9068847 6.141101,6.936552 C 6.141101,6.951386 6.1930187,6.958803 6.296854,6.958803 C 6.4006893,6.958803 6.4303567,6.9365523 6.385856,6.892051 C 6.371022,6.8623843 6.3932723,6.840134 6.452607,6.8253 C 6.4971077,6.8253 6.5341917,6.862384 6.563859,6.936552 C 6.563859,6.9958867 6.489691,7.0403877 6.341355,7.070055 L 6.363605,7.159056 C 6.452607,7.1887233 6.563859,7.262891 6.697361,7.381559 C 6.6380263,7.470561 6.5193577,7.552146 6.341355,7.626314 C 6.341355,7.7301487 6.3932727,7.81915 6.497108,7.893318 C 6.8827807,7.81915 7.131243,7.7783577 7.242495,7.770941 C 7.3537463,7.7635243 7.416789,7.808025 7.431623,7.904443 C 7.4464563,8.000861 7.490957,8.1009877 7.565125,8.204823 z M 9.856913,5.223274 C 9.916247,4.8821013 9.9384973,4.466761 9.923664,3.977253 C 9.8939967,3.3839103 9.90883,2.9685703 9.968164,2.731233 C 10.131333,2.8350677 10.272253,2.857318 10.390922,2.797984 C 10.479923,2.6941487 10.46509,2.5680633 10.346421,2.419728 C 10.153584,2.2120573 9.953331,2.2046403 9.745661,2.397477 C 9.7308277,2.5606463 9.723411,2.868443 9.723411,3.320867 C 9.723411,3.7732917 9.7122857,4.151548 9.690035,4.455636 C 9.6677843,4.759724 9.626992,5.0378537 9.567658,5.290025 C 9.6566593,5.230691 9.7530777,5.2084407 9.856913,5.223274 z M 6.608359,4.756016 C 6.6676937,4.4148433 6.8086127,4.0514207 7.031116,3.665748 C 7.3277873,3.250408 7.617042,2.8795687 7.89888,2.55323 C 8.121384,2.3158927 8.2845537,2.130473 8.388389,1.996971 C 8.3290543,1.5222963 8.128801,1.3072093 7.787629,1.35171 C 7.5799583,1.411044 7.48354,1.5297127 7.498374,1.707716 C 7.5428747,1.8708853 7.6763767,1.95247 7.89888,1.95247 C 7.780212,2.2639753 7.4835407,2.7052743 7.008866,3.276367 C 6.5341913,3.8474597 6.193019,4.370343 5.985349,4.845017 C 6.1485183,4.8153503 6.3561883,4.7856833 6.608359,4.756016 z M 1.646527,7.670814 C 2.3733723,6.4396273 2.3807893,5.7795333 1.668778,5.690532 C 0.94193267,5.7795333 0.93451567,6.4396273 1.646527,7.670814 z M 9.567658,0.995704 L 9.70116,0.951203 L 9.656659,0.7732 L 9.500907,0.884452 L 9.567658,0.995704 z M 9.656659,1.418461 C 9.7604943,1.2552917 9.9014133,1.247875 10.079416,1.396211 C 10.168417,1.2627083 10.153584,1.1737067 10.034916,1.129206 C 9.88658,1.069872 9.6937437,1.1143727 9.456407,1.262708 C 9.382239,0.995704 9.2784037,0.825118 9.144901,0.75095 C 9.0410657,0.70644933 8.9743147,0.75836667 8.944648,0.906702 C 9.152318,0.93636933 9.2413193,1.0476213 9.211652,1.240458 C 9.152318,1.448128 8.7814783,1.945053 8.099133,2.731233 C 7.4316223,3.487745 7.0385327,4.1700893 6.919864,4.778266 L 7.142368,4.778266 C 7.3352047,4.778266 7.4835403,4.8450173 7.587375,4.97852 C 7.6912103,5.0675213 7.743128,5.1713563 7.743128,5.290025 C 7.87663,5.0971883 8.0249657,5.00077 8.188135,5.00077 C 8.3661383,5.00077 8.7221443,5.1194387 9.256153,5.356776 C 9.374821,4.733766 9.4415723,3.992087 9.456407,3.131739 C 9.4860737,2.1972237 9.5528243,1.626131 9.656659,1.418461 z M 9.745661,0.572947 C 9.819829,0.69161567 9.856913,0.81028433 9.856913,0.928953 C 9.990415,0.88445233 10.079417,0.81028433 10.123918,0.706449 C 10.168418,0.60261433 10.179543,0.506196 10.157292,0.417194 C 10.135043,0.32819267 10.04975,0.254025 9.901414,0.194691 C 9.7679113,0.13535633 9.6603677,0.12793933 9.578783,0.17244 C 9.497199,0.21694067 9.4341563,0.29110867 9.389655,0.394944 C 9.3451543,0.49877933 9.3599877,0.61003133 9.434155,0.7287 C 9.508323,0.654532 9.6121583,0.60261433 9.745661,0.572947 z M 9.256153,6.469295 L 9.656659,6.335792 L 9.745661,5.935286 C 9.6863263,5.9649527 9.582491,5.987203 9.434155,6.002037 C 9.3599877,6.209707 9.3006537,6.3654597 9.256153,6.469295 z M 8.566392,7.225807 C 8.5960587,7.5224783 8.751811,7.81915 9.033649,8.115822 C 10.326554,9.203856 9.5792032,14.038615 9.122651,16.771215 L 10.25742,17.972734 L 1.980283,17.972734 L 1.869031,17.216223 L 3.337555,16.615461 L 3.337555,16.615461 C 2.3288717,13.797082 1.646527,11.950302 1.290521,11.075121 C 0.90484833,11.000953 0.64896933,10.841492 0.522884,10.596738 C 0.39679867,10.351984 0.70459533,10.096105 1.446274,9.8291 L 1.446274,8.138072 L 0.200253,8.115822 L 0.200253,7.804317 L 1.446274,7.804317 C 0.64526067,6.3654597 0.64526067,5.5866967 1.446274,5.468028 L 1.446274,3.977253 C 1.4017733,3.621247 1.3276053,3.4840363 1.22377,3.565621 C 1.1199353,3.6472063 0.97159967,3.8363347 0.778763,4.133006 C 0.60075967,4.7856833 0.341172,5.037854 0,4.889518 C 0.37083933,4.0885053 0.611885,3.5433713 0.723137,3.254116 C 0.834389,2.9648613 1.0272253,2.6830233 1.301646,2.408602 C 1.5760673,2.1341813 1.817113,1.7596337 2.024783,1.284959 C 2.2621203,1.4777957 2.2806623,1.726258 2.080409,2.030346 C 1.8801557,2.3344347 1.713278,2.6273977 1.579776,2.909235 C 1.7726127,3.265241 1.869031,3.59158 1.869031,3.888252 L 1.869031,5.468028 C 2.6700443,5.5718627 2.6700443,6.3506257 1.869031,7.804317 L 3.115052,7.804317 L 3.115052,8.115822 L 1.869031,8.115822 L 1.869031,9.8291 C 2.284371,9.8291 2.781296,10.096105 3.359806,10.630114 L 6.007599,14.234673 L 6.007599,14.234673 C 6.1707683,11.712964 6.608359,9.784599 7.320371,8.449577 L 7.320371,8.471828 L 7.186869,8.02682 C 7.053367,8.0713213 6.8679473,8.093572 6.63061,8.093572 L 6.363605,8.916835 C 6.2004357,9.3618423 5.9705153,9.5620953 5.673844,9.517594 C 5.5106747,9.517594 5.42909,9.4434263 5.42909,9.295091 C 5.42909,9.161589 5.570009,9.094838 5.851847,9.094838 C 6.059517,8.5014947 6.1707687,8.1084047 6.185602,7.915568 L 6.163352,7.626314 C 6.0595167,7.5966467 6.0298493,7.5150617 6.07435,7.381559 C 6.0298493,7.3370583 6.015016,7.2703073 6.02985,7.181306 C 6.1040173,7.1664727 6.141101,7.121972 6.141101,7.047804 C 6.022433,7.047804 5.955682,7.018137 5.940848,6.958803 C 5.9260147,6.8994683 5.9779323,6.7807997 6.096601,6.602797 C 6.2152697,6.4247937 6.2894373,6.2912913 6.319104,6.20229 C 6.3487713,6.1132887 6.371022,6.0168703 6.385856,5.913035 C 6.2523533,5.927869 6.1040173,5.935286 5.940848,5.935286 C 5.6738433,5.935286 5.406839,5.8759517 5.139835,5.757283 C 4.9766657,5.8611177 4.7244947,5.913035 4.383322,5.913035 C 4.116318,5.913035 3.9234817,5.7498657 3.804813,5.423527 C 3.7158117,5.1713563 3.7232283,4.9785197 3.827063,4.845017 C 3.9605657,4.8895177 4.068109,4.9711027 4.149693,5.089772 C 4.2312777,5.2084407 4.3684887,5.2826083 4.561326,5.312275 C 4.7838293,5.1491057 4.969249,5.067521 5.117585,5.067521 C 5.2807543,5.067521 5.5106747,5.1342723 5.807346,5.267775 C 5.9853487,5.2232743 6.2301027,5.193607 6.541608,5.178773 C 6.556442,5.104605 6.5786923,5.0452707 6.608359,5.00077 C 6.4155223,5.00077 6.0669333,5.0526877 5.562592,5.156523 C 5.7999293,4.4296777 6.1781857,3.7807083 6.697361,3.209615 C 7.2165357,2.6385223 7.5057903,2.2639747 7.565125,2.085972 C 7.3722883,1.9969707 7.27587,1.878302 7.27587,1.729966 C 7.2313693,1.448128 7.3797053,1.2552913 7.720878,1.151456 C 8.121384,1.0772887 8.403222,1.284959 8.566392,1.774467 C 8.566392,1.774467 8.6368513,1.6928823 8.77777,1.529713 C 8.9186887,1.3665437 8.989148,1.2330413 8.989148,1.129206 C 8.9743147,1.0253713 8.8778967,0.98828733 8.699894,1.017954 C 8.699894,0.70644933 8.8111457,0.550697 9.033649,0.550697 C 9.0929837,0.550697 9.1449013,0.55811367 9.189402,0.572947 C 9.189402,0.498779 9.2116523,0.41719433 9.256153,0.328193 C 9.3154877,0.194691 9.404489,0.098272667 9.523157,0.038938 C 9.6418257,-0.020396 9.7901613,-0.012979 9.968164,0.061189 C 10.146167,0.13535633 10.257419,0.23548267 10.30192,0.361568 C 10.346421,0.487654 10.339004,0.617448 10.27967,0.75095 C 10.235169,0.83995133 10.183251,0.91411933 10.123918,0.973454 C 10.183251,0.98828733 10.227752,1.025371 10.25742,1.084705 C 10.405755,1.233041 10.376088,1.418461 10.168418,1.640965 C 10.064583,1.492629 9.968165,1.448128 9.879163,1.507462 C 9.819829,1.58163 9.782745,1.796717 9.767911,2.152723 C 10.034916,2.004387 10.27967,2.0637213 10.502173,2.330726 C 10.680176,2.5680633 10.687593,2.7608997 10.524424,2.909235 C 10.435423,2.998237 10.316754,3.0204877 10.168418,2.975987 C 10.123917,3.0946557 10.123917,3.4580783 10.168418,4.066255 C 10.198085,4.4964283 10.175834,4.8672677 10.101666,5.178773 C 10.161001,5.1639397 10.30192,5.2269823 10.524424,5.367901 C 10.746927,5.5088203 10.954597,5.5088203 11.147434,5.367901 C 11.340271,5.2269823 11.492315,5.130564 11.603567,5.078646 C 11.714819,5.0267287 11.770445,5.0897717 11.770445,5.267775 C 11.66661,5.460611 11.536816,5.6349053 11.381063,5.790658 C 11.22531,5.9464107 11.028766,6.0279953 10.791429,6.035412 C 10.554091,6.0428287 10.287086,5.9723693 9.990415,5.824034 L 9.879163,6.536046 L 9.122651,6.714048 C 8.989149,6.9810527 8.8037293,7.151639 8.566392,7.225807 z "
     id="path2239"
     sodipodi:nodetypes="ccssccccccccsscccccssssccssssssccccccssssccsscssccssccsscccssscccsssssssccsssscccccscccssscccsssssccsssscccsssssssccccccccssccsccssccscsssssscccccssccscsscssccccsccscsccccccccccccscscssccscscccccsssssccccccccccccccccscccccccsccsscsccccccccccccccccsscccsssssscscsscscsccscscsccsscssssssssscscsscscssscsscccc" />
</svg>
