<?xml version="1.0" encoding="UTF-8" standalone="no"?>
<!-- Created with Inkscape (http://www.inkscape.org/) -->
<svg
   xmlns:dc="http://purl.org/dc/elements/1.1/"
   xmlns:cc="http://web.resource.org/cc/"
   xmlns:rdf="http://www.w3.org/1999/02/22-rdf-syntax-ns#"
   xmlns:svg="http://www.w3.org/2000/svg"
   xmlns="http://www.w3.org/2000/svg"
   xmlns:sodipodi="http://sodipodi.sourceforge.net/DTD/sodipodi-0.dtd"
   xmlns:inkscape="http://www.inkscape.org/namespaces/inkscape"
   width="1800.000000px"
   height="1800.000000px"
   id="svg1290"
   sodipodi:version="0.32"
   inkscape:version="0.44"
   sodipodi:docbase="/home/rosmord/Travail/Gsigns/Courants"
   sodipodi:docname="corr.svg">
  <defs
     id="defs3" />
  <sodipodi:namedview
     id="base"
     pagecolor="#ffffff"
     bordercolor="#666666"
     borderopacity="1.0"
     inkscape:pageopacity="0.0"
     inkscape:pageshadow="2"
     inkscape:zoom="0.29698485"
     inkscape:cx="912.19956"
     inkscape:cy="212.67364"
     inkscape:document-units="px"
     inkscape:current-layer="layer1"
     inkscape:window-width="1024"
     inkscape:window-height="583"
     inkscape:window-x="212"
     inkscape:window-y="315"
     showguides="true"
     inkscape:guide-bbox="true" />
  <metadata
     id="metadata4">
    <rdf:RDF>
      <cc:Work
         rdf:about="">
        <dc:format>image/svg+xml</dc:format>
        <dc:type
           rdf:resource="http://purl.org/dc/dcmitype/StillImage" />
        <cc:license
           rdf:resource="http://creativecommons.org/licenses/by/2.0/" />
        <dc:subject>
          <rdf:Bag>
            <rdf:li>JSesh hieroglyph</rdf:li>
          </rdf:Bag>
        </dc:subject>
        <dc:creator>
          <cc:Agent>
            <dc:title>Serge Rosmorduc</dc:title>
          </cc:Agent>
        </dc:creator>
      </cc:Work>
      <cc:License
         rdf:about="http://creativecommons.org/licenses/by/2.0/">
        <cc:permits
           rdf:resource="http://web.resource.org/cc/Reproduction" />
        <cc:permits
           rdf:resource="http://web.resource.org/cc/Distribution" />
        <cc:requires
           rdf:resource="http://web.resource.org/cc/Notice" />
        <cc:requires
           rdf:resource="http://web.resource.org/cc/Attribution" />
        <cc:permits
           rdf:resource="http://web.resource.org/cc/DerivativeWorks" />
        <cc:requires
           rdf:resource="http://web.resource.org/cc/ShareAlike" />
      </cc:License>
    </rdf:RDF>
  </metadata>
  <g
     style="display:inline"
     inkscape:label="Layer 1"
     inkscape:groupmode="layer"
     id="layer1">
    <path
       style="font-size:437.74856567px;font-style:normal;font-weight:normal;fill:black;fill-opacity:1;stroke:none;stroke-width:1px;stroke-linecap:butt;stroke-linejoin:miter;stroke-opacity:1;font-family:Bitstream Vera Sans"
       d="M 190.03967,1571.5649 C 189.96858,1593.5339 196.73547,1623.5863 164.91123,1597.1877 C 114.93535,1574.4857 45.586898,1601.4875 43.451034,1661.6049 C 34.234132,1709.4915 57.102724,1772.8843 113.41225,1774.2448 C 143.01848,1789.5518 201.03458,1730.1595 190.03967,1782.4648 C 174.37307,1815.8891 110.16238,1810.4565 75.372399,1801.4613 C 5.9583879,1779.3559 -12.92781,1692.3075 8.6775057,1629.9707 C 32.496989,1554.5137 126.44865,1541.2146 190.03967,1571.565 M 351.63043,1589.947 C 291.05079,1589.4784 274.78128,1664.3112 285.78709,1711.9517 C 288.17456,1762.4567 352.09014,1795.1985 391.42689,1760.6754 C 429.58031,1721.8407 429.51271,1651.1535 396.6336,1609.0939 C 385.41969,1596.3403 368.4798,1589.6321 351.63044,1589.947 M 351.63043,1556.6029 C 407.53952,1552.4906 455.88617,1599.743 459.66475,1654.391 C 469.34648,1711.7113 449.77652,1786.2445 387.00835,1803.2773 C 334.30847,1819.8482 267.99829,1796.3619 250.96348,1740.4315 C 231.61282,1681.3512 238.83445,1598.1045 300.71245,1567.1533 C 316.50719,1559.5319 334.1959,1556.5827 351.63044,1556.6029 L 351.63043,1556.6029 z M 665.19348,1599.1379 C 618.67297,1572.6475 559.965,1613.2611 564.79704,1665.8029 C 564.17933,1711.1171 564.68345,1756.4471 564.5199,1801.7677 C 552.85272,1797.6315 523.92046,1810.7604 524.97717,1793.9003 C 524.97717,1716.7249 524.97717,1639.5494 524.97717,1562.374 C 536.64435,1566.5102 565.57661,1553.3813 564.5199,1570.2414 C 564.0924,1591.4149 561.66931,1610.3086 578.78725,1580.5958 C 596.86003,1561.2034 656.57394,1541.0496 665.03525,1569.23 C 665.08799,1579.1993 665.14074,1589.1686 665.19348,1599.1379 z M 837.89899,1599.1379 C 791.37846,1572.6475 732.67049,1613.2611 737.50252,1665.8029 C 736.8848,1711.1171 737.3889,1756.4471 737.22534,1801.7677 C 725.55816,1797.6315 696.62591,1810.7604 697.68262,1793.9003 C 697.68262,1716.7249 697.68262,1639.5494 697.68262,1562.374 C 709.3498,1566.5102 738.28205,1553.3813 737.22534,1570.2414 C 736.79784,1591.4149 734.37476,1610.3086 751.49271,1580.5958 C 769.5655,1561.2035 829.2794,1541.0496 837.74073,1569.23 C 837.79348,1579.1993 837.84623,1589.1686 837.89899,1599.1379 z "
       id="text1931" />
  </g>
</svg>
