<?xml version="1.0" encoding="UTF-8" standalone="no"?>
<svg
   xmlns:dc="http://purl.org/dc/elements/1.1/"
   xmlns:cc="http://creativecommons.org/ns#"
   xmlns:rdf="http://www.w3.org/1999/02/22-rdf-syntax-ns#"
   xmlns:svg="http://www.w3.org/2000/svg"
   xmlns="http://www.w3.org/2000/svg"
   xmlns:sodipodi="http://sodipodi.sourceforge.net/DTD/sodipodi-0.dtd"
   xmlns:inkscape="http://www.inkscape.org/namespaces/inkscape"
   width="20.962954"
   height="7.44"
   id="svg2"
   sodipodi:version="0.32"
   inkscape:version="0.46"
   sodipodi:docname="D10C.svg"
   inkscape:output_extension="org.inkscape.output.svg.inkscape">
  <metadata
     id="metadata9">
    <rdf:RDF>
      <cc:Work
         rdf:about="">
        <dc:format>image/svg+xml</dc:format>
        <dc:type
           rdf:resource="http://purl.org/dc/dcmitype/StillImage" />
      </cc:Work>
    </rdf:RDF>
  </metadata>
  <defs
     id="defs7">
    <inkscape:perspective
       sodipodi:type="inkscape:persp3d"
       inkscape:vp_x="0 : 3.72 : 1"
       inkscape:vp_y="0 : 1000 : 0"
       inkscape:vp_z="20.962954 : 3.72 : 1"
       inkscape:persp3d-origin="10.481477 : 2.48 : 1"
       id="perspective11" />
  </defs>
  <sodipodi:namedview
     inkscape:window-height="701"
     inkscape:window-width="640"
     inkscape:pageshadow="2"
     inkscape:pageopacity="0.0"
     guidetolerance="10.0"
     gridtolerance="10.0"
     objecttolerance="10.0"
     borderopacity="1.0"
     bordercolor="#666666"
     pagecolor="#ffffff"
     id="base"
     showgrid="false"
     inkscape:zoom="25.902838"
     inkscape:cx="10.481477"
     inkscape:cy="2.1757677"
     inkscape:window-x="0"
     inkscape:window-y="22"
     inkscape:current-layer="svg2" />
  <path
     style="fill:#000000; stroke:none"
     d=" M 6.870555 0  C 6.395172 0 5.884336 0.01876 5.58513 0.054534  C 4.575505 0.175247 3.566174 0.409305 2.467566 0.777477  L 1.799449 1.001379  L 0 1.001379  L 0 1.25593  L 0 1.51048  L 1.819142 1.51048  L 2.189807 1.392873  C 3.870701 0.85955 5.400444 0.59249 6.766888 0.59249  C 7.654514 0.59249 8.473235 0.70518 9.219715 0.930779  C 9.419191 0.991061 9.511971 1.014817 9.577751 1.014817  C 9.607839 1.014817 9.63228 1.009846 9.658704 1.001126  C 9.822582 0.947041 9.905125 0.700399 9.80648 0.559561  C 9.71236 0.425186 8.630355 0.13986 7.83116 0.038666  C 7.625057 0.01257 7.259685 0 6.870555 0  Z  M 14.114903 0.047446  C 13.253346 0.047446 12.57982 0.138492 11.799152 0.354314  C 11.199722 0.520029 11.110367 0.571423 11.110367 0.750455  C 11.110367 0.89439 11.180211 1.015779 11.288951 1.06082  C 11.31673 1.072325 11.340855 1.079015 11.37348 1.079015  C 11.436671 1.079015 11.531764 1.053923 11.747063 0.990107  C 12.501992 0.766338 13.32929 0.654512 14.217914 0.654512  C 15.181058 0.654512 16.216242 0.785879 17.309412 1.048466  C 17.817072 1.170411 18.470091 1.352666 18.851686 1.478915  L 19.121214 1.568084  L 20.042088 1.569229  L 20.962954 1.570373  L 20.962954 1.30085  L 20.962954 1.031326  L 19.101208 1.031326  L 18.629055 0.869123  C 17.078127 0.336321 15.789174 0.084334 14.447537 0.051652  C 14.333333 0.04887 14.222644 0.047446 14.114903 0.047446  Z  M 6.207053 2.618685  C 6.219607 2.618685 6.184064 2.68528 6.128022 2.766748  C 5.901445 3.096131 5.90974 3.356314 6.16267 3.853839  C 6.168898 3.866087 6.167727 3.872002 6.152674 3.872002  C 6.139764 3.872002 6.116657 3.867656 6.079257 3.859228  C 6.054551 3.853659 5.838931 3.814437 5.600102 3.772068  C 5.361277 3.729699 4.977204 3.647717 4.746614 3.589888  C 4.316148 3.481935 3.653543 3.284276 3.653543 3.263823  C 3.653543 3.229763 4.582141 2.959855 5.150608 2.828683  C 5.427046 2.764896 6.160927 2.619013 6.207027 2.618685  C 6.207038 2.618685 6.207044 2.618685 6.207053 2.618685  Z  M 14.760749 2.684125  C 14.796949 2.684125 14.890549 2.702829 15.08432 2.739309  C 15.785254 2.871269 16.33663 3.008045 16.978415 3.209156  C 17.374578 3.333301 17.397747 3.306574 16.725439 3.501037  C 16.218472 3.647672 15.712999 3.76511 15.228086 3.848916  C 15.045732 3.880432 14.93879 3.900949 14.882744 3.900949  C 14.79643 3.900949 14.830815 3.852283 14.896288 3.720181  C 15.059467 3.390955 15.014338 2.992745 14.785861 2.745797  C 14.747501 2.704334 14.723117 2.684125 14.760749 2.684125  Z  M 6.819155 2.596956  C 6.854502 2.596956 6.891234 2.599508 6.929333 2.60462  C 7.289238 2.652905 7.444952 2.81356 7.499587 3.192977  C 7.516223 3.308519 7.506741 3.358926 7.445705 3.479375  C 7.34585 3.676427 7.166466 3.832431 6.97402 3.889582  C 6.885995 3.915722 6.846081 3.929913 6.809399 3.929913  C 6.768031 3.929913 6.730775 3.911865 6.633276 3.872553  C 6.449519 3.798459 6.328784 3.689496 6.255822 3.531909  C 6.18328 3.375228 6.184838 3.227737 6.261181 3.023684  C 6.367327 2.739984 6.55457 2.596956 6.819155 2.596956  Z  M 7.638299 2.681663  C 7.670819 2.681663 7.74308 2.691084 7.822761 2.706389  C 8.067694 2.753433 8.447227 2.93711 8.70804 3.134829  C 8.968572 3.332333 9.29866 3.631636 9.27835 3.651947  C 9.245132 3.685162 8.705761 3.786684 8.265391 3.842607  C 8.010095 3.875026 7.716297 3.909211 7.612514 3.918573  L 7.423814 3.935594  L 7.423814 3.935594  L 7.543556 3.793587  C 7.609415 3.715481 7.684223 3.601501 7.709796 3.540299  C 7.781025 3.369822 7.769354 3.09868 7.681474 2.88241  C 7.640324 2.781139 7.61296 2.691977 7.620665 2.684272  C 7.622437 2.682502 7.6286 2.681663 7.638299 2.681663  Z  M 14.145792 2.662518  C 14.387876 2.662518 14.550166 2.767536 14.658741 2.989462  C 14.854208 3.388981 14.756491 3.716393 14.390041 3.889751  C 14.290686 3.936754 14.194369 3.959907 14.102853 3.959907  C 13.879601 3.959907 13.68489 3.822122 13.544268 3.556613  C 13.460825 3.399062 13.454246 3.367471 13.476346 3.23035  C 13.532433 2.882328 13.672401 2.72701 13.974496 2.677583  C 14.035624 2.667582 14.092635 2.662518 14.145792 2.662518  Z  M 13.322766 2.741333  C 13.333553 2.741333 13.340677 2.742556 13.343308 2.745189  C 13.34936 2.751238 13.318875 2.843129 13.275573 2.949391  C 13.134025 3.296707 13.18001 3.587641 13.419573 3.860493  L 13.512332 3.966141  L 13.512332 3.966141  L 13.366986 3.961347  C 12.946739 3.947491 11.665497 3.74688 11.685514 3.69807  C 11.690365 3.686248 11.795403 3.58562 11.918937 3.474454  C 12.207205 3.215037 12.613757 2.94245 12.836965 2.858924  C 12.988823 2.802095 13.246771 2.741333 13.322766 2.741333  Z  M 7.982006 4.341158  C 8.03211 4.341158 8.054796 4.41633 8.055357 4.581662  C 8.055882 4.738104 8.178081 4.982021 8.294597 5.059209  C 8.403975 5.131669 8.405837 5.144998 8.312548 5.187502  C 8.165727 5.254399 8.092235 5.450214 7.903927 6.276253  C 7.80495 6.710428 7.71883 7.079141 7.712548 7.095609  C 7.712464 7.095829 7.712379 7.09594 7.712296 7.09594  C 7.706101 7.09594 7.700044 6.499563 7.698763 5.756835  L 7.696398 4.388113  L 7.808699 4.370132  C 7.870465 4.360243 7.943421 4.347722 7.970826 4.342305  C 7.974693 4.341543 7.978418 4.341158 7.982006 4.341158  Z  M 12.943357 4.395327  L 13.093766 4.419105  C 13.176492 4.432179 13.249352 4.448054 13.255676 4.45438  C 13.262003 4.460705 13.263664 5.068682 13.259377 5.805431  L 13.251578 7.144981  L 13.075813 6.371618  C 12.885243 5.533103 12.83259 5.385314 12.679462 5.259093  L 12.578946 5.176239  L 12.671177 5.121761  C 12.770917 5.062846 12.906162 4.812515 12.907224 4.684871  C 12.907567 4.643692 12.915841 4.561698 12.925603 4.502664  L 12.943357 4.395327  Z  M 6.865262 2.08437  C 6.769629 2.08437 6.667768 2.085855 6.55841 2.088683  C 5.497381 2.116133 4.485683 2.31532 2.979734 2.793267  L 2.350846 2.99286  L 1.190397 3.00103  L 0.029947 3.0092  L 0.029947 3.337934  L 0.029947 3.66667  L 0.152372 3.66667  C 0.219706 3.66667 0.694742 3.638484 1.208007 3.604035  C 1.639401 3.575081 2.076269 3.555817 2.278009 3.555817  C 2.316296 3.555817 2.346116 3.556511 2.36582 3.557964  C 2.75959 3.587003 3.49412 3.72609 4.145018 3.894866  C 5.130911 4.150504 5.71263 4.258543 6.588357 4.34865  L 6.812958 4.371758  L 6.468567 4.627049  C 4.70083 5.937448 3.012192 6.750452 1.554384 6.993021  C 1.479643 7.005457 1.405841 7.011426 1.334687 7.011426  C 1.046354 7.011426 0.801515 6.913383 0.713987 6.750171  C 0.619292 6.573605 0.65132 6.398967 0.787066 6.351691  C 0.797404 6.348091 0.805675 6.34586 0.812119 6.34586  C 0.835519 6.34586 0.834836 6.375264 0.821572 6.475254  C 0.804601 6.60319 0.810964 6.625654 0.885201 6.699893  C 0.954885 6.769576 1.024197 6.804314 1.091769 6.804314  C 1.179107 6.804314 1.263538 6.74628 1.342102 6.630659  C 1.471841 6.439731 1.386196 6.176635 1.145975 6.02817  C 1.073948 5.983657 0.985294 5.962547 0.892819 5.962547  C 0.725235 5.962547 0.545098 6.031869 0.428605 6.156847  C 0.334807 6.257479 0.240974 6.479159 0.240401 6.601483  C 0.238554 6.996077 0.537987 7.273442 1.046668 7.348334  C 1.162879 7.365446 1.253911 7.374325 1.351862 7.374325  C 1.472049 7.374325 1.602655 7.360953 1.802973 7.333014  C 3.364127 7.115274 5.049058 6.266524 6.955211 4.73768  L 7.396929 4.383393  L 7.396929 5.88175  L 7.396929 7.380107  L 8.023507 7.380107  L 8.052201 7.267804  C 8.067981 7.206038 8.158708 6.807762 8.253814 6.382745  C 8.34892 5.957731 8.450944 5.570179 8.480537 5.521519  C 8.510129 5.47286 8.595112 5.403524 8.669391 5.367435  L 8.80444 5.301824  L 8.803738 5.120623  L 8.803029 4.939421  L 8.656754 4.875196  C 8.47781 4.796623 8.426925 4.720293 8.405964 4.498991  L 8.389776 4.328089  L 8.548712 4.268623  C 8.914603 4.131725 9.077021 4.104027 9.523176 4.102442  C 9.532355 4.10241 9.541578 4.102394 9.550825 4.102394  C 9.78201 4.102394 10.028819 4.112442 10.108983 4.125394  L 10.26055 4.149888  L 10.292706 4.045124  L 10.324862 3.940358  L 9.961452 3.599612  C 8.865504 2.572021 8.687626 2.440408 8.155549 2.263426  C 7.769005 2.134853 7.42302 2.08437 6.865262 2.08437  Z  M 14.18387 2.127698  C 13.840545 2.127698 13.517175 2.145313 13.326445 2.180594  C 12.963414 2.247747 12.655216 2.351202 12.358831 2.505399  C 12.110117 2.634793 11.8133 2.883972 11.060718 3.595165  L 10.636739 3.995831  L 10.669744 4.10337  C 10.69267 4.178072 10.702281 4.20056 10.74501 4.20056  C 10.760981 4.20056 10.781576 4.197419 10.80923 4.192686  C 10.867791 4.182663 11.078764 4.166458 11.278061 4.156677  C 11.352327 4.153031 11.420948 4.151089 11.485746 4.151089  C 11.777086 4.151089 11.991075 4.190369 12.293275 4.290803  L 12.532851 4.370427  L 12.541713 4.538687  C 12.549249 4.68165 12.539394 4.72024 12.476213 4.795331  C 12.435311 4.843941 12.347095 4.9084 12.280177 4.938576  L 12.158513 4.993439  L 12.158513 5.177576  L 12.158513 5.36172  L 12.291885 5.426515  C 12.365245 5.462154 12.447683 5.525537 12.475096 5.567368  C 12.5025 5.609199 12.61159 6.030805 12.717525 6.504277  C 12.823444 6.977749 12.91577 7.381977 12.922686 7.402566  C 12.931679 7.429348 13.025002 7.44 13.250639 7.44  L 13.566025 7.44  L 13.566025 5.940759  L 13.566025 4.441511  L 13.947858 4.753044  C 15.008509 5.61843 16.344427 6.463794 17.249826 6.842517  C 18.163597 7.224743 18.996841 7.425554 19.615585 7.425554  C 19.907728 7.425554 20.152056 7.380788 20.334471 7.289209  C 20.970213 6.970035 20.778856 6.024862 20.077288 6.019026  C 20.070429 6.018971 20.063791 6.018938 20.057362 6.018938  C 19.918016 6.018938 19.874697 6.033269 19.782753 6.103337  C 19.515839 6.306747 19.478764 6.597552 19.694277 6.797286  C 19.74498 6.844273 19.7962 6.867692 19.852465 6.867692  C 19.904106 6.867692 19.959995 6.847966 20.023626 6.808639  C 20.136433 6.738925 20.170231 6.650395 20.141836 6.499045  C 20.12871 6.429067 20.127682 6.407452 20.152483 6.407452  C 20.160633 6.407452 20.171556 6.409783 20.185759 6.413494  C 20.273355 6.436402 20.309526 6.548822 20.276539 6.695647  C 20.241053 6.853582 20.14838 6.948691 19.977894 7.002141  C 19.847477 7.043029 19.75359 7.063309 19.644203 7.063309  C 19.538513 7.063309 19.418352 7.04438 19.236803 7.006812  C 17.738073 6.696718 16.233017 5.959781 14.530331 4.702342  L 14.161999 4.430319  L 14.395573 4.408373  C 15.168766 4.33572 15.8343 4.214149 16.650572 3.996455  C 17.287579 3.826572 17.811832 3.718377 18.337984 3.648211  C 18.501289 3.626434 18.60223 3.61491 18.757515 3.61491  C 18.936829 3.61491 19.188627 3.630279 19.692646 3.662975  C 20.233902 3.698088 20.740696 3.726744 20.820286 3.726744  C 20.820427 3.726744 20.820568 3.726744 20.820707 3.726744  L 20.962954 3.726563  L 20.962954 3.397146  L 20.962954 3.067727  L 18.697468 3.067727  L 18.475103 2.991779  C 17.388052 2.620491 16.095737 2.30381 15.168196 2.181423  C 14.896878 2.145624 14.530213 2.127698 14.18387 2.127698  Z "
     id="path4" />
</svg>
