<?xml version="1.0" encoding="UTF-8" standalone="no"?>
<svg
   xmlns:dc="http://purl.org/dc/elements/1.1/"
   xmlns:cc="http://creativecommons.org/ns#"
   xmlns:rdf="http://www.w3.org/1999/02/22-rdf-syntax-ns#"
   xmlns:svg="http://www.w3.org/2000/svg"
   xmlns="http://www.w3.org/2000/svg"
   xmlns:sodipodi="http://sodipodi.sourceforge.net/DTD/sodipodi-0.dtd"
   xmlns:inkscape="http://www.inkscape.org/namespaces/inkscape"
   width="11.660788"
   height="17.977583"
   id="svg2434"
   sodipodi:version="0.32"
   inkscape:version="0.46"
   sodipodi:docname="D122.svg"
   inkscape:output_extension="org.inkscape.output.svg.inkscape">
  <metadata
     id="metadata2441">
    <rdf:RDF>
      <cc:Work
         rdf:about="">
        <dc:format>image/svg+xml</dc:format>
        <dc:type
           rdf:resource="http://purl.org/dc/dcmitype/StillImage" />
      </cc:Work>
    </rdf:RDF>
  </metadata>
  <defs
     id="defs2439">
    <inkscape:perspective
       sodipodi:type="inkscape:persp3d"
       inkscape:vp_x="0 : 8.9887915 : 1"
       inkscape:vp_y="0 : 1000 : 0"
       inkscape:vp_z="11.660788 : 8.9887915 : 1"
       inkscape:persp3d-origin="5.8303938 : 5.9925276 : 1"
       id="perspective2443" />
  </defs>
  <sodipodi:namedview
     inkscape:window-height="480"
     inkscape:window-width="640"
     inkscape:pageshadow="2"
     inkscape:pageopacity="0.0"
     guidetolerance="10.0"
     gridtolerance="10.0"
     objecttolerance="10.0"
     borderopacity="1.0"
     bordercolor="#666666"
     pagecolor="#ffffff"
     id="base"
     showgrid="false" />
  <path
     style="fill:#000000; stroke:none"
     d="M 9.5625,0.90625 C 9.7224913,1.1005247 9.7674957,1.280542 9.6875,1.40625 L 8.75,2.9375 C 9.0638791,3.1501282 9.2807588,3.385459 9.40625,3.625 C 9.3338502,3.5891906 9.3028126,3.5684315 9.21875,3.53125 C 8.5330733,3.4055427 7.98498,3.4417993 7.625,3.6875 C 7.26502,3.9332007 7.0319572,4.2478778 6.90625,4.625 C 6.46056,5.2763933 6.3369755,5.6753654 6.53125,5.8125 C 6.7026693,5.8125 6.7755359,5.8910805 6.78125,6.0625 C 6.786964,6.2339193 6.8235738,6.4280448 6.875,6.59375 C 6.9264253,6.7594547 7.0332228,6.8041055 7.1875,6.78125 C 7.3417773,6.758394 7.5412631,6.7782159 7.78125,6.8125 L 7.78125,7.09375 C 6.8327307,7.105178 6.3509977,7.3832568 6.0424438,8.0117937 C 5.6239504,8.9593723 5.6354373,10.492049 5.25,10.768856 C 4.6659459,10.618776 3.9347654,10.890374 2.90625,11.1875 C 2.5477662,10.8689 2.6078199,10.841567 1.8080612,10.898319 C 1.4423672,10.795468 0.99464001,10.676073 0.9375,10.6875 C 0.88036067,10.710356 0.86357199,10.766788 0.875,10.8125 C 0.90928333,10.903923 1.0496574,10.97679 1.3125,11.0625 C 1.5753427,11.14821 1.6737453,11.210002 1.59375,11.25 C 1.5137547,11.289997 1.3703473,11.318214 1.1875,11.3125 C 1.0046527,11.306785 0.68729533,11.135516 0.21875,10.78125 C 0.058758667,10.746966 -0.011428,10.805725 0,11 L 0.375,11.375 C 0.95782533,11.729266 1.703917,11.877656 2.3667376,11.757663 C 3.0295583,11.63767 3.5879475,11.731904 4.59375,11.65625 C 5.5032172,11.587842 5.9444519,11.606606 6.09375,11.3125 C 6.3293954,10.848296 6.5822926,10.090811 6.9375,8.59375 C 7.040352,8.1594887 7.5796971,7.9657162 8.5625,8 C 9.5453033,8.0342833 10.059466,8.2616322 10.09375,8.71875 L 10.65625,11.59375 C 10.519115,12.42799 10.39553,13.644728 10.28125,15.1875 C 10.006979,15.30178 9.8666056,15.456262 9.84375,15.65625 C 9.820894,15.856239 9.7732094,16.055725 9.6875,16.25 C 9.60179,16.444275 9.5510716,16.56786 9.5625,16.625 C 9.585356,16.682139 9.6303604,16.71875 9.6875,16.71875 C 9.7674953,16.684467 9.8742924,16.535699 10,16.25 C 10.125708,15.964301 10.240899,15.910904 10.34375,16.09375 C 10.298038,16.482301 10.109627,16.841629 9.8125,17.21875 C 9.6867927,17.355886 9.6196399,17.471077 9.5625,17.5625 C 9.573928,17.653925 9.5960761,17.690534 9.6875,17.65625 C 9.653216,17.793385 9.7096488,17.83839 9.8125,17.78125 C 9.823928,17.895529 9.8575043,17.932139 9.9375,17.875 C 9.960356,18.012135 10.033577,18.020529 10.125,17.90625 L 10.34375,17.5625 C 10.789439,17.071098 11.005714,16.500856 11,15.84375 C 10.994286,15.186643 11.123585,14.481388 11.375,13.75 C 11.626415,13.018612 11.693567,12.2771 11.625,11.5 L 11.59375,11.5 C 11.439329,10.176817 11.457273,9.2064937 11.171575,8.6008126 C 11.321368,7.5707812 10.890319,7.2530335 10.1875,7.21875 C 9.4846813,7.184466 9.1616102,6.8724693 9.21875,6.3125 C 9.8130033,5.92395 10.110538,5.4181805 10.15625,4.8125 C 10.624796,4.5725127 10.829996,4.6960979 10.75,5.1875 C 10.670005,5.6789013 10.695187,6.3196833 10.84375,7.0625 C 11.026597,7.1539233 11.164291,7.1482098 11.25,7.0625 C 11.33571,6.9767907 11.355532,6.7490887 11.28125,6.40625 C 11.206969,6.063412 11.164644,5.5408549 11.1875,4.84375 C 11.210356,4.146646 10.867817,3.9559081 10.125,4.21875 C 10.119286,4.1216127 10.02642,3.9892793 9.875,3.875 L 10.5,1.9375 C 10.83264,0.8583569 10.791059,0.64976794 10.5625,0.40978129 C 9.6490563,-0.24003755 9.1818326,0.53357477 9.5625,0.90625 z M 8.5,3.78125 C 8.6560629,3.7733933 8.8357232,3.8207173 9,3.875 C 9.6571067,4.0921313 9.9237456,4.4235967 9.84375,4.875 C 9.7637547,5.326404 9.4746136,5.7082339 8.9375,6.0625 C 8.811792,6.2339193 8.7667878,6.4475134 8.8125,6.6875 C 8.8696393,6.9160587 8.7880255,7.0735739 8.59375,7.125 C 8.3994747,7.176426 8.2789234,7.1058856 8.1875,6.96875 C 8.0960767,6.52306 7.8206898,6.3544705 7.375,6.46875 C 7.2492927,6.503034 7.1676781,6.4190928 7.15625,6.15625 C 7.133394,5.8248393 7.0662408,5.6562502 6.90625,5.65625 C 6.7119747,5.644822 6.8073441,5.3046087 7.21875,4.6875 C 7.613014,4.104675 8.0318114,3.8048202 8.5,3.78125 z M 0.625,8.3125 L 0.25,8.65625 L 1.03125,9.375 L 0.28125,10.09375 L 0.625,10.4375 L 1.375,9.71875 L 2.125,10.40625 L 2.5,10.0625 L 1.75,9.375 L 2.5,8.65625 L 2.125,8.3125 L 1.375,9.03125 L 0.625,8.3125 z"
     id="path2436"
     sodipodi:nodetypes="cccccsccsssccccccssssscccssscscccssssscsscccccsscccsccscsssccccccsscsscsssscccccccccccccc" />
</svg>
