<?xml version="1.0" encoding="UTF-8" standalone="no"?>
<svg
   xmlns:dc="http://purl.org/dc/elements/1.1/"
   xmlns:cc="http://creativecommons.org/ns#"
   xmlns:rdf="http://www.w3.org/1999/02/22-rdf-syntax-ns#"
   xmlns:svg="http://www.w3.org/2000/svg"
   xmlns="http://www.w3.org/2000/svg"
   xmlns:sodipodi="http://sodipodi.sourceforge.net/DTD/sodipodi-0.dtd"
   xmlns:inkscape="http://www.inkscape.org/namespaces/inkscape"
   width="15.919616"
   height="7.285385"
   id="svg3225"
   sodipodi:version="0.32"
   inkscape:version="0.46"
   sodipodi:docname="D136.svg"
   inkscape:output_extension="org.inkscape.output.svg.inkscape">
  <metadata
     id="metadata3232">
    <rdf:RDF>
      <cc:Work
         rdf:about="">
        <dc:format>image/svg+xml</dc:format>
        <dc:type
           rdf:resource="http://purl.org/dc/dcmitype/StillImage" />
      </cc:Work>
    </rdf:RDF>
  </metadata>
  <defs
     id="defs3230">
    <inkscape:perspective
       sodipodi:type="inkscape:persp3d"
       inkscape:vp_x="0 : 3.6426926 : 1"
       inkscape:vp_y="0 : 1000 : 0"
       inkscape:vp_z="15.919616 : 3.6426926 : 1"
       inkscape:persp3d-origin="7.9598079 : 2.4284617 : 1"
       id="perspective3234" />
  </defs>
  <sodipodi:namedview
     inkscape:window-height="708"
     inkscape:window-width="1024"
     inkscape:pageshadow="2"
     inkscape:pageopacity="0.0"
     guidetolerance="10.0"
     gridtolerance="10.0"
     objecttolerance="10.0"
     borderopacity="1.0"
     bordercolor="#666666"
     pagecolor="#ffffff"
     id="base"
     showgrid="false"
     inkscape:zoom="68.343358"
     inkscape:cx="4.5180048"
     inkscape:cy="3.6426926"
     inkscape:window-x="-4"
     inkscape:window-y="-4"
     inkscape:current-layer="svg3225" />
  <path
     style="fill:#000000; stroke:none"
     d="M 3.8125 0 C 3.5648073 0 3.4374999 0.13701933 3.4375 0.40625 C 3.4375 1.4044839 3.6555058 2.1517208 4.03125 2.6875 C 3.9689137 2.7129978 3.9066764 2.7227319 3.84375 2.75 C 3.6487621 2.837122 3.4131945 2.9741201 3.1875 3.125 C 2.8397821 2.8028705 2.5625 2.0999357 2.5625 1.0625 C 2.5625 0.7825 2.4405773 0.625 2.1875 0.625 C 1.9344233 0.625 1.8125001 0.78250005 1.8125 1.0625 C 1.8125 2.3891014 2.0384541 3.2330993 2.5 3.65625 C 2.3510877 3.7767096 2.2209523 3.8590149 2.0625 4 C 1.9446371 4.1048701 1.8300548 4.1922152 1.71875 4.28125 C 1.22504 4.0512572 0.93750001 3.2302736 0.9375 1.9375 C 0.9375 1.6575 0.81557669 1.5 0.5625 1.5 C 0.30942267 1.5 0.18749999 1.6575 0.1875 1.9375 C 0.1875 3.2164517 0.46935095 4.1554048 1 4.78125 C 0.75401781 4.9171986 0.54714262 4.9981395 0.34375 5.03125 C 0.12836533 5.03125 0.0053846667 5.3203847 0 5.875 C -0.0053846667 6.4296153 0.087404015 6.71875 0.28125 6.71875 C 1.7889427 6.6864427 2.9617307 6.7587499 3.8125 6.96875 C 4.6632693 7.17875 5.5835581 7.2812499 6.53125 7.28125 C 8.5343273 7.28125 10.479616 6.7050969 12.375 5.53125 C 13.495001 5.2404807 14.471443 5.0937501 15.34375 5.09375 L 15.90625 5.09375 L 15.90625 3.84375 C 14.893943 3.84375 13.867885 3.7164427 12.8125 3.46875 C 10.163269 2.5856733 8.0604805 2.125 6.53125 2.125 C 5.9575562 2.125 5.3594535 2.2364709 4.71875 2.4375 C 4.4156858 2.0366285 4.1874999 1.3055507 4.1875 0.40625 C 4.1875 0.13701933 4.060192 0 3.8125 0 z M 6.125 3.03125 C 6.2538943 3.0154327 6.383173 3.03125 6.53125 3.03125 C 7.112788 3.03125 7.5324993 3.1531728 7.8125 3.40625 C 8.0924993 3.6593267 8.2499998 4.1426928 8.25 4.875 C 8.228462 5.8657693 7.6620194 6.375 6.53125 6.375 C 5.378942 6.3642313 4.7812498 5.8657693 4.78125 4.875 C 4.78125 4.1534613 4.9333654 3.6593268 5.21875 3.40625 C 5.4327885 3.216442 5.7383171 3.078702 6.125 3.03125 z M 8.6875 3.25 C 10.270577 3.5084613 11.55125 3.9195185 12.53125 4.46875 L 12.53125 4.5 C 11.55125 5.2646153 10.252211 5.8806729 8.59375 6.34375 C 8.9275953 5.8483653 9.0937497 5.3240389 9.09375 4.8125 C 9.09375 4.3009613 8.9459614 3.7884613 8.6875 3.25 z M 4.34375 3.46875 C 4.1068267 3.9102887 4.0000001 4.3796153 4 4.875 C 4 5.4242307 4.1963467 5.8925 4.5625 6.3125 L 1.40625 5.78125 L 1.40625 5.5625 C 2.8493267 4.270192 3.8160571 3.5872113 4.34375 3.46875 z "
     id="path3227" />
</svg>
