<?xml version="1.0" encoding="UTF-8" standalone="no"?>
<svg
   xmlns:dc="http://purl.org/dc/elements/1.1/"
   xmlns:cc="http://creativecommons.org/ns#"
   xmlns:rdf="http://www.w3.org/1999/02/22-rdf-syntax-ns#"
   xmlns:svg="http://www.w3.org/2000/svg"
   xmlns="http://www.w3.org/2000/svg"
   xmlns:sodipodi="http://sodipodi.sourceforge.net/DTD/sodipodi-0.dtd"
   xmlns:inkscape="http://www.inkscape.org/namespaces/inkscape"
   width="18.951656"
   height="11.201888"
   id="svg2497"
   sodipodi:version="0.32"
   inkscape:version="0.46"
   sodipodi:docname="D158.svg"
   inkscape:output_extension="org.inkscape.output.svg.inkscape">
  <metadata
     id="metadata2504">
    <rdf:RDF>
      <cc:Work
         rdf:about="">
        <dc:format>image/svg+xml</dc:format>
        <dc:type
           rdf:resource="http://purl.org/dc/dcmitype/StillImage" />
      </cc:Work>
    </rdf:RDF>
  </metadata>
  <defs
     id="defs2502">
    <inkscape:perspective
       sodipodi:type="inkscape:persp3d"
       inkscape:vp_x="0 : 5.600944 : 1"
       inkscape:vp_y="0 : 1000 : 0"
       inkscape:vp_z="18.951656 : 5.600944 : 1"
       inkscape:persp3d-origin="9.4758282 : 3.7339627 : 1"
       id="perspective2506" />
  </defs>
  <sodipodi:namedview
     inkscape:window-height="708"
     inkscape:window-width="1024"
     inkscape:pageshadow="2"
     inkscape:pageopacity="0.0"
     guidetolerance="10.0"
     gridtolerance="10.0"
     objecttolerance="10.0"
     borderopacity="1.0"
     bordercolor="#666666"
     pagecolor="#ffffff"
     id="base"
     showgrid="false"
     inkscape:zoom="44.903145"
     inkscape:cx="9.475828"
     inkscape:cy="5.6009441"
     inkscape:window-x="-4"
     inkscape:window-y="-4"
     inkscape:current-layer="svg2497" />
  <path
     style="fill:#000000; stroke:none"
     d="M 0 0 L 0 11.1875 L 1.875 9.28125 L 3 10.84375 L 4.4375 9.28125 L 5.59375 10.78125 L 6.96875 9.34375 L 8.15625 10.8125 L 9.46875 9.375 L 10.78125 10.8125 L 11.96875 9.34375 L 13.34375 10.78125 L 14.53125 9.28125 L 15.96875 10.84375 L 17.0625 9.28125 L 18.9375 11.1875 L 18.9375 0 L 17.0625 1.90625 L 15.96875 0.375 L 14.53125 1.9375 L 13.34375 0.4375 L 11.96875 1.875 L 10.78125 0.375 L 9.46875 1.84375 L 8.15625 0.375 L 6.96875 1.875 L 5.59375 0.4375 L 4.4375 1.9375 L 3 0.375 L 1.875 1.90625 L 0 0 z M 8.1875 1.53125 L 9.5 2.90625 L 10.75 1.53125 L 11.9375 3 L 13.3125 1.5625 L 14.5 3.09375 L 15.875 1.5625 L 16.96875 3.0625 L 18.1875 1.84375 L 18.1875 9.375 L 16.96875 8.125 L 15.875 9.65625 L 14.5 8.125 L 13.3125 9.625 L 11.9375 8.1875 L 10.75 9.65625 L 9.46875 8.3125 L 9.4375 8.28125 L 8.1875 9.65625 L 7.03125 8.1875 L 5.65625 9.625 L 4.46875 8.125 L 3.0625 9.65625 L 1.96875 8.125 L 0.75 9.375 L 0.75 1.84375 L 1.96875 3.0625 L 3.0625 1.5625 L 4.46875 3.09375 L 5.65625 1.5625 L 7.03125 3 L 8.1875 1.53125 z "
     id="path2499" />
</svg>
