<?xml version="1.0" encoding="UTF-8" standalone="no"?>
<svg
   xmlns:dc="http://purl.org/dc/elements/1.1/"
   xmlns:cc="http://creativecommons.org/ns#"
   xmlns:rdf="http://www.w3.org/1999/02/22-rdf-syntax-ns#"
   xmlns:svg="http://www.w3.org/2000/svg"
   xmlns="http://www.w3.org/2000/svg"
   xmlns:sodipodi="http://sodipodi.sourceforge.net/DTD/sodipodi-0.dtd"
   xmlns:inkscape="http://www.inkscape.org/namespaces/inkscape"
   width="17.745913"
   height="17.977583"
   id="svg2476"
   sodipodi:version="0.32"
   inkscape:version="0.46"
   sodipodi:docname="D167.svg"
   inkscape:output_extension="org.inkscape.output.svg.inkscape">
  <metadata
     id="metadata2483">
    <rdf:RDF>
      <cc:Work
         rdf:about="">
        <dc:format>image/svg+xml</dc:format>
        <dc:type
           rdf:resource="http://purl.org/dc/dcmitype/StillImage" />
      </cc:Work>
    </rdf:RDF>
  </metadata>
  <defs
     id="defs2481">
    <inkscape:perspective
       sodipodi:type="inkscape:persp3d"
       inkscape:vp_x="0 : 8.9887915 : 1"
       inkscape:vp_y="0 : 1000 : 0"
       inkscape:vp_z="17.745913 : 8.9887915 : 1"
       inkscape:persp3d-origin="8.8729563 : 5.9925276 : 1"
       id="perspective2485" />
  </defs>
  <sodipodi:namedview
     inkscape:window-height="708"
     inkscape:window-width="1024"
     inkscape:pageshadow="2"
     inkscape:pageopacity="0.0"
     guidetolerance="10.0"
     gridtolerance="10.0"
     objecttolerance="10.0"
     borderopacity="1.0"
     bordercolor="#666666"
     pagecolor="#ffffff"
     id="base"
     showgrid="false"
     inkscape:zoom="25.698672"
     inkscape:cx="8.8729563"
     inkscape:cy="8.9887915"
     inkscape:window-x="-4"
     inkscape:window-y="-4"
     inkscape:current-layer="svg2476" />
  <path
     style="fill:#000000; stroke:none"
     d="M 10.703149,4.980903 C 10.20892,4.8882343 9.961805,5.5214653 9.961805,6.880596 L 9.822803,11.977333 L 9.197294,11.977333 L 6.625759,8.548618 C 6.255087,7.9462767 5.9268877,7.7454963 5.641161,7.946277 C 5.3554357,8.1470577 5.471271,8.6798983 5.988667,9.544799 C 6.5060623,10.4097 6.9809853,11.761108 7.413436,13.599022 L 6.139252,14.178197 L 12.255337,14.178197 L 11.838331,13.251517 C 12.162669,12.371172 12.394339,10.247531 12.53334,6.880596 C 12.53334,5.5214653 12.309393,4.8882343 11.861498,4.980903 L 11.861498,6.880596 L 10.703149,6.880596 L 10.703149,4.980903 z M 8.965625,1.598522 C 8.9347357,1.69119 8.872957,1.7298017 8.780289,1.714357 C 8.7648443,1.899693 8.84979,2.085029 9.035126,2.270365 C 8.8343447,2.1931417 8.703065,2.200864 8.641287,2.293532 C 8.5331737,2.2163087 8.4636727,2.2549203 8.432784,2.409367 L 8.594953,2.409367 C 8.9656243,2.3784777 9.289962,2.7337047 9.567966,3.475048 C 9.753302,3.892054 9.9038873,4.1546133 10.019722,4.262726 C 10.135557,4.3708387 10.278421,4.401728 10.448312,4.355394 C 10.432867,4.1391687 10.371089,3.934527 10.262976,3.741469 C 10.154863,3.5484103 10.008139,3.405547 9.822803,3.312879 C 10.857595,3.127543 11.344102,2.7375653 11.282323,2.142946 C 11.220544,1.5483267 10.942541,1.251017 10.448312,1.251017 C 9.984972,1.251017 9.633606,1.3127957 9.394214,1.436353 C 9.154822,1.5599103 9.011959,1.6139667 8.965625,1.598522 z M 9.892304,3.058043 C 10.386533,2.8418177 10.656815,2.6487593 10.703149,2.478868 C 10.749483,2.3089767 10.710871,2.1583913 10.587314,2.027112 C 10.463757,1.895832 10.301588,1.830192 10.100807,1.830192 C 9.9000263,1.830192 9.7455797,1.946027 9.637467,2.177697 C 9.6065777,2.3012543 9.5988553,2.5483687 9.6143,2.91904 C 9.5988553,2.9653747 9.567966,2.988542 9.521632,2.988542 C 9.4444087,2.6333147 9.3671857,2.4170893 9.289963,2.339866 C 9.305407,2.293532 9.3169903,2.2356143 9.324713,2.166113 C 9.332435,2.0966123 9.2745173,2.0232503 9.15096,1.946027 C 9.15096,1.6834677 9.2590727,1.552188 9.475298,1.552188 C 9.5834107,1.552188 9.6683563,1.598522 9.730135,1.69119 C 9.8073583,1.598522 9.7841913,1.5212987 9.660634,1.45952 C 10.463756,1.3822967 10.896207,1.5869387 10.957986,2.073446 C 11.019764,2.559952 10.664537,2.9035953 9.892304,3.104376 L 9.892304,3.058043 z M 9.243629,1.92286 C 9.3208523,1.9846387 9.3980753,2.015528 9.475298,2.015528 C 9.5988553,1.9846387 9.660634,1.92286 9.660634,1.830192 C 9.660634,1.7066347 9.5988553,1.644856 9.475298,1.644856 C 9.3671853,1.644856 9.2899623,1.737524 9.243629,1.92286 z M 9.475298,1.69119 C 9.5525213,1.69119 9.5988553,1.737524 9.6143,1.830192 C 9.5988553,1.8919707 9.5525213,1.9305823 9.475298,1.946027 C 9.3980753,1.9305823 9.359464,1.8919707 9.359464,1.830192 C 9.359464,1.737524 9.3980753,1.69119 9.475298,1.69119 z M 13.15885,6.46359 L 13.738024,6.46359 C 13.738024,4.8110113 13.475465,3.559994 12.950346,2.710538 C 12.425228,1.8610813 11.946444,1.4209083 11.513993,1.390019 C 11.946444,2.4093663 11.807442,3.1815993 11.096988,3.706718 L 11.096988,6.46359 L 11.467659,6.486757 L 11.467659,4.517563 C 12.579674,4.517563 13.143405,5.1662387 13.15885,6.46359 z M 9.38263,6.46359 L 9.6143,6.46359 C 9.5834107,5.5678 9.730135,5.0117923 10.054473,4.795567 C 9.8382477,4.6411203 9.6644953,4.6681483 9.533216,4.876651 C 9.401936,5.0851537 9.3517407,5.6141333 9.38263,6.46359 z M 4.726066,6.741593 C 4.726066,7.1431543 4.942291,7.343935 5.374741,7.343935 L 6.162419,7.343935 C 6.0388617,6.9423737 5.7763023,6.741593 5.374741,6.741593 L 4.726066,6.741593 z M 4.934568,6.324588 L 4.934568,2.502035 C 4.888234,2.1622523 4.8187333,2.0348337 4.726066,2.119779 C 4.633398,2.204725 4.5021183,2.3707553 4.332227,2.61787 C 4.1623357,3.235656 3.915221,3.475048 3.590883,3.336046 C 3.9306657,2.5947027 4.1546133,2.0927513 4.262726,1.830192 C 4.3708387,1.5676327 4.5523133,1.3050733 4.80715,1.042514 C 5.0619867,0.77995533 5.282073,0.43245067 5.467409,0 C 5.6836343,0.20078067 5.699079,0.43631167 5.513743,0.706593 C 5.328407,0.97687433 5.1816827,1.2432947 5.07357,1.505854 C 5.3361293,1.8147473 5.4596867,2.1159183 5.444242,2.409367 L 5.444242,6.301421 L 5.861248,6.301421 C 6.185586,6.301421 6.46359,6.702982 6.69526,7.506104 L 9.243629,11.027487 C 9.3362963,8.9579023 9.38263,7.5756053 9.38263,6.880596 L 8.919291,6.880596 L 8.919291,5.675912 C 8.919291,5.150794 8.996514,4.7839833 9.15096,4.57548 C 9.3054067,4.3669773 9.421242,4.2318367 9.498466,4.170058 C 9.0814593,3.1661553 8.749399,2.664204 8.502285,2.664204 C 8.4250617,2.6487593 8.293782,2.695093 8.108446,2.803205 C 8.108446,2.1545297 8.2860597,1.7684133 8.641287,1.644856 C 8.6258417,1.5367433 8.6567307,1.4633813 8.733954,1.42477 C 8.811178,1.386158 8.880679,1.390019 8.942457,1.436353 C 8.927013,1.3745743 9.0505703,1.251017 9.313129,1.065681 C 9.5602437,0.89579033 9.892304,0.78381667 10.30931,0.72976 C 10.726315,0.675704 11.274601,0.74906633 11.954166,0.949847 C 12.417506,1.104293 12.907874,1.5869383 13.42527,2.397783 C 13.942666,3.2086277 14.201364,4.7028987 14.201364,6.880596 L 13.182016,6.903762 C 13.166572,9.4984647 12.973514,11.614383 12.602841,13.251517 L 13.251517,14.826873 L 5.328407,14.826873 L 5.235739,13.946527 L 6.579425,13.205183 C 6.2705317,11.861498 5.8651093,10.726315 5.363158,9.799636 C 4.861206,8.872956 4.6333973,8.2783367 4.679732,8.015778 C 4.7106213,7.8149973 4.702899,7.6605507 4.656565,7.552438 C 4.3631163,7.5369933 4.239559,7.274434 4.285893,6.76476 C 3.8534423,6.4558673 3.8611647,6.301421 4.30906,6.301421 L 4.934568,6.324588 z M 8.872956,15.869387 C 9.9231933,15.869387 12.115554,15.722663 15.050039,15.429214 C 15.050039,12.958069 15.15043,10.595036 15.351211,8.340116 C 14.887871,6.7802053 14.656201,5.6527453 14.656201,4.957736 C 14.68709,3.3051573 14.872426,2.478868 15.212208,2.478868 C 15.397545,2.478868 15.528824,2.5869803 15.606047,2.803205 C 15.48249,3.544549 15.420712,4.1391687 15.420712,4.587064 C 15.420712,5.853526 15.652382,6.486757 16.115721,6.486757 C 16.579061,6.4713123 16.849343,5.575522 16.926566,3.799386 C 16.926566,3.3669353 16.725785,2.5792577 16.324224,1.436353 C 16.324224,1.2819063 16.424614,1.1506267 16.625394,1.042514 C 16.84162,1.042514 17.065568,1.2124053 17.297237,1.552188 C 17.729688,2.5252013 17.945913,3.428714 17.945913,4.262726 C 17.945913,4.8187333 17.567519,6.3709217 16.810731,8.919291 C 17.135068,11.853776 17.297237,14.193641 17.297237,15.938888 C 17.297237,16.464007 17.088734,16.888735 16.671729,17.213072 C 14.972816,17.722746 12.247615,17.977583 8.896124,17.977583 L 8.872956,17.977583 C 5.5214653,17.977583 2.8962637,17.722746 1.197351,17.213072 C 0.78034567,16.888735 0.571843,16.464007 0.571843,15.938888 C 0.571843,14.193641 0.72628933,11.853776 1.035182,8.919291 C 0.278394,6.3709217 -0.1,4.8187333 -0.1,4.262726 C -0.1,3.428714 0.12394767,2.5252013 0.571843,1.552188 C 0.78806767,1.2124053 1.0042927,1.042514 1.220518,1.042514 C 1.4212987,1.1506267 1.521689,1.2819063 1.521689,1.436353 C 1.1355723,2.5792577 0.942514,3.3669353 0.942514,3.799386 C 1.0042927,5.575522 1.266852,6.4713123 1.730192,6.486757 C 2.193532,6.486757 2.425202,5.853526 2.425202,4.587064 C 2.425202,4.1391687 2.3634233,3.544549 2.239866,2.803205 C 2.3170893,2.5869803 2.4560913,2.478868 2.656872,2.478868 C 2.996654,2.478868 3.1742673,3.3051573 3.189712,4.957736 C 3.189712,5.6527453 2.9580423,6.7802053 2.494703,8.340116 C 2.6954837,10.595036 2.795874,12.958069 2.795874,15.429214 C 5.3905767,15.722663 7.4829373,15.869387 8.872956,15.869387 L 8.872956,15.869387 z"
     id="path2478"
     sodipodi:nodetypes="cccccssccccccccccccccccscscsssccssssscsscsccscccsssccssscccscccccccccsccccccccsccsscscccccccccscsccsssscscccccccssccccccccscssccccscsccccscsccccsscsccccc" />
</svg>
