<?xml version="1.0" encoding="UTF-8" standalone="no"?>
<svg
   xmlns:dc="http://purl.org/dc/elements/1.1/"
   xmlns:cc="http://creativecommons.org/ns#"
   xmlns:rdf="http://www.w3.org/1999/02/22-rdf-syntax-ns#"
   xmlns:svg="http://www.w3.org/2000/svg"
   xmlns="http://www.w3.org/2000/svg"
   xmlns:sodipodi="http://sodipodi.sourceforge.net/DTD/sodipodi-0.dtd"
   xmlns:inkscape="http://www.inkscape.org/namespaces/inkscape"
   width="17.178665"
   height="17.977583"
   id="svg2452"
   sodipodi:version="0.32"
   inkscape:version="0.46"
   sodipodi:docname="D174.svg"
   inkscape:output_extension="org.inkscape.output.svg.inkscape">
  <metadata
     id="metadata2459">
    <rdf:RDF>
      <cc:Work
         rdf:about="">
        <dc:format>image/svg+xml</dc:format>
        <dc:type
           rdf:resource="http://purl.org/dc/dcmitype/StillImage" />
      </cc:Work>
    </rdf:RDF>
  </metadata>
  <defs
     id="defs2457">
    <inkscape:perspective
       sodipodi:type="inkscape:persp3d"
       inkscape:vp_x="0 : 8.9887915 : 1"
       inkscape:vp_y="0 : 1000 : 0"
       inkscape:vp_z="17.178665 : 8.9887915 : 1"
       inkscape:persp3d-origin="8.5893326 : 5.9925276 : 1"
       id="perspective2461" />
  </defs>
  <sodipodi:namedview
     inkscape:window-height="708"
     inkscape:window-width="1024"
     inkscape:pageshadow="2"
     inkscape:pageopacity="0.0"
     guidetolerance="10.0"
     gridtolerance="10.0"
     objecttolerance="10.0"
     borderopacity="1.0"
     bordercolor="#666666"
     pagecolor="#ffffff"
     id="base"
     showgrid="true"
     inkscape:zoom="25.698672"
     inkscape:cx="15.8796"
     inkscape:cy="8.9887915"
     inkscape:window-x="-4"
     inkscape:window-y="-4"
     inkscape:current-layer="svg2452"
     showguides="true"
     inkscape:guide-bbox="true" />
  <path
     style="fill:#000000; stroke:none"
     d="M 1.3125 0 C 1.2066454 0 1.0851547 0.058302 0.9375 0.1875 C 0.35479201 0.97191399 0.044823333 2.105732 0 3.5625 C 0.17929467 4.7055054 0.59121933 6.3219513 1.21875 8.40625 C 0.99463202 10.087136 0.83080867 12.376552 0.71875 15.3125 C 0.62910264 16.298622 0.87246867 16.958645 1.5 17.25 C 3.360182 17.743059 5.7161987 17.96875 8.5625 17.96875 C 11.431213 17.96875 13.787229 17.743059 15.625 17.25 C 16.274946 16.958645 16.558399 16.298623 16.46875 15.3125 C 16.35669 12.376552 16.19287 10.087137 15.96875 8.40625 C 16.596285 6.321951 17.008209 4.7055053 17.1875 3.5625 C 17.142681 2.1057321 16.832713 0.971914 16.25 0.1875 C 16.102346 0.058301993 15.949604 0 15.84375 0 C 15.692528 0 15.597167 0.14258133 15.53125 0.40625 C 15.688132 0.85448732 15.834279 1.292926 15.96875 1.71875 C 16.148044 2.2566341 16.201072 2.7481013 16.15625 3.21875 C 16.111427 3.980752 16.038356 4.611896 15.9375 5.09375 C 15.836648 5.5756048 15.657517 5.8125 15.34375 5.8125 C 15.327025 5.813838 15.297477 5.8125 15.28125 5.8125 C 14.753906 5.8125 14.5 5.100784 14.5 3.6875 C 14.5 3.1720286 14.553027 2.5520907 14.6875 1.8125 C 14.572044 1.6162266 14.445799 1.5 14.3125 1.5 C 14.187044 1.5 14.047512 1.6073887 13.90625 1.78125 C 13.839014 2.3191339 13.803662 2.9125573 13.78125 3.5625 C 13.691603 4.5486214 13.939705 5.925804 14.5 7.71875 C 14.298294 10.251287 14.1875 12.779965 14.1875 15.3125 C 12.663496 15.55903 10.781272 15.714013 8.5625 15.78125 C 6.3661413 15.714013 4.5240047 15.559031 3 15.3125 C 3.0000001 12.779965 2.8892067 10.251287 2.6875 7.71875 C 3.247796 5.9258038 3.495898 4.5486213 3.40625 3.5625 C 3.383838 2.9125574 3.3172353 2.319134 3.25 1.78125 C 3.108738 1.6073886 3.0004567 1.5 2.875 1.5 C 2.741702 1.5 2.6154553 1.6162267 2.5 1.8125 C 2.6344714 2.5520906 2.6875 3.1720287 2.6875 3.6875 C 2.6875 5.1007839 2.433594 5.8125 1.90625 5.8125 C 1.890024 5.8125 1.8604753 5.813838 1.84375 5.8125 C 1.529984 5.8125 1.3196027 5.5756047 1.21875 5.09375 C 1.1178966 4.6118961 1.044824 3.980752 1 3.21875 C 0.95517662 2.7481014 1.039456 2.256634 1.21875 1.71875 C 1.353222 1.2929261 1.4993673 0.85448733 1.65625 0.40625 C 1.5903327 0.14258132 1.463722 0 1.3125 0 z M 8.25 0 C 8.0928654 0 8.0000004 0.11251066 8 0.3125 L 8 2.09375 C 7.5857374 2.09375 7.2767742 2.2116213 7.0625 2.46875 C 6.7768014 2.7544486 6.4553354 2.975008 6.0625 3.125 C 5.6696647 3.2749913 5.2678359 3.3562525 4.875 3.40625 C 4.4821647 3.4562473 4.3991216 3.6714465 4.65625 4 C 4.68482 4.185704 4.7973316 4.3062554 4.96875 4.40625 C 4.96875 4.8919373 5.422372 5.0803494 6.34375 4.9375 C 7.265128 4.7946506 8.1178984 4.892876 8.875 5.25 L 8.875 15.5625 L 9.8125 15.5625 L 9.8125 5.25 C 9.8553547 5.292854 10.117886 5.1606979 10.625 4.875 C 11.132115 4.5893013 11.40625 4.2044381 11.40625 3.71875 C 11.40625 3.218778 11.310705 2.8508786 11.125 2.59375 C 10.939296 2.3366206 10.731238 2.21875 10.53125 2.21875 C 10.53125 1.9901913 10.241933 1.3552993 9.65625 0.3125 C 9.54197 0.11251067 9.3848085 -2.3468529e-19 9.15625 0 C 9.0705407 0 9.0312497 0.11251066 9.03125 0.3125 L 9.03125 1.125 C 8.9169707 0.86787134 8.7624892 0.59819799 8.5625 0.3125 C 8.4482207 0.11251067 8.3357093 -7.1732091e-18 8.25 0 z M 8.5 0.90625 L 8.5625 0.90625 C 8.7624894 1.4205073 8.8830407 1.8223365 8.96875 2.09375 L 8.84375 2.09375 C 8.7723247 1.8223366 8.6571341 1.4205073 8.5 0.90625 z M 9.40625 0.90625 L 9.46875 0.90625 C 9.954438 1.7919153 10.174997 2.4000192 10.125 2.75 C 10.075002 3.0999806 9.9892794 3.3401854 9.875 3.46875 L 10.0625 3.625 C 10.333913 3.3821566 10.488395 3.0785534 10.53125 2.75 C 10.602675 2.75 10.671434 2.840186 10.75 2.96875 C 10.828567 3.0973146 10.875 3.3303765 10.875 3.6875 C 10.875 4.030338 10.62051 4.3169758 10.15625 4.53125 C 9.6919896 4.745524 9.1963978 4.7651692 8.625 4.59375 C 8.0536034 4.4223306 7.3990668 4.3687554 6.65625 4.46875 C 5.913434 4.5687446 5.5285698 4.5857093 5.5 4.5 C 5.47143 4.41429 5.599124 4.3553544 5.90625 4.3125 C 6.213376 4.2696453 6.4509007 4.2428581 6.59375 4.25 C 6.7365994 4.2571426 6.7955349 4.2249946 6.78125 4.125 C 6.7669647 4.025006 6.6544542 4.00536 6.46875 4.0625 C 6.283046 4.1196393 5.9008622 4.1589301 5.34375 4.1875 C 5.1580454 3.9875106 5.1384008 3.8553547 5.28125 3.8125 C 5.8526474 3.655366 6.2812638 3.5374945 6.53125 3.4375 C 6.7812367 3.3375053 7.0044762 3.1392713 7.21875 2.875 C 7.433024 2.6107293 8.0679154 2.4999999 9.125 2.5 C 9.2392794 2.5 9.3124999 2.4437445 9.3125 2.34375 L 9.3125 1.15625 C 9.6267687 2.14191 9.7616055 2.7151852 9.71875 2.84375 C 9.6758954 2.972314 9.5999943 3.03661 9.5 3.09375 L 9.625 3.3125 C 9.7964194 3.1410806 9.875 2.9642739 9.875 2.75 C 9.875 2.5214413 9.7205188 1.9061946 9.40625 0.90625 z M 8.40625 1.15625 C 8.5348147 1.5705133 8.63036 1.8937612 8.6875 2.09375 L 8.40625 2.09375 L 8.40625 1.15625 z M 7.84375 3 C 7.5794794 2.964288 7.4374998 3.0500112 7.4375 3.25 C 7.4375 3.4499893 7.5794795 3.49464 7.84375 3.4375 C 8.1080214 3.3803606 8.2946503 3.3357099 8.4375 3.25 C 8.2946507 3.121436 8.1080215 3.0357126 7.84375 3 z "
     id="path2454" />
</svg>
