<?xml version="1.0" encoding="UTF-8" standalone="no"?>
<svg
   xmlns:dc="http://purl.org/dc/elements/1.1/"
   xmlns:cc="http://creativecommons.org/ns#"
   xmlns:rdf="http://www.w3.org/1999/02/22-rdf-syntax-ns#"
   xmlns:svg="http://www.w3.org/2000/svg"
   xmlns="http://www.w3.org/2000/svg"
   xmlns:sodipodi="http://sodipodi.sourceforge.net/DTD/sodipodi-0.dtd"
   xmlns:inkscape="http://www.inkscape.org/namespaces/inkscape"
   width="16.125"
   height="17.964405"
   id="svg2452"
   sodipodi:version="0.32"
   inkscape:version="0.46"
   sodipodi:docname="D176.svg"
   inkscape:output_extension="org.inkscape.output.svg.inkscape"
   version="1.0">
  <metadata
     id="metadata2459">
    <rdf:RDF>
      <cc:Work
         rdf:about="">
        <dc:format>image/svg+xml</dc:format>
        <dc:type
           rdf:resource="http://purl.org/dc/dcmitype/StillImage" />
      </cc:Work>
    </rdf:RDF>
  </metadata>
  <defs
     id="defs2457">
    <inkscape:perspective
       sodipodi:type="inkscape:persp3d"
       inkscape:vp_x="0 : 8.9887915 : 1"
       inkscape:vp_y="0 : 1000 : 0"
       inkscape:vp_z="17.178665 : 8.9887915 : 1"
       inkscape:persp3d-origin="8.5893326 : 5.9925276 : 1"
       id="perspective2461" />
  </defs>
  <sodipodi:namedview
     inkscape:window-height="708"
     inkscape:window-width="1024"
     inkscape:pageshadow="2"
     inkscape:pageopacity="0.0"
     guidetolerance="10.0"
     gridtolerance="10.0"
     objecttolerance="10.0"
     borderopacity="1.0"
     bordercolor="#666666"
     pagecolor="#ffffff"
     id="base"
     showgrid="true"
     inkscape:zoom="25.698672"
     inkscape:cx="9.4590342"
     inkscape:cy="9.0496153"
     inkscape:window-x="-4"
     inkscape:window-y="-4"
     inkscape:current-layer="svg2452"
     showguides="true"
     inkscape:guide-bbox="true" />
  <path
     style="fill:#000000;stroke:none"
     d="M 3.125,6.9388939e-18 C 3.0524622,6.9388939e-18 2.9761812,0.036466386 2.875,0.125 C 2.4756961,0.66252383 2.2494656,1.4392419 2.21875,2.4375 C 2.3416127,3.2207506 2.632481,4.3217231 3.0625,5.75 C 2.9089218,6.9018355 2.7955387,8.4881273 2.71875,10.5 C 2.6573187,11.175746 2.8199811,11.612847 3.25,11.8125 C 4.5247004,12.150368 6.1433068,12.3125 8.09375,12.3125 C 10.05955,12.3125 11.678162,12.150368 12.9375,11.8125 C 13.382884,11.612847 13.561435,11.175747 13.5,10.5 C 13.423213,8.4881273 13.309828,6.9018361 13.15625,5.75 C 13.586269,4.3217228 13.877138,3.2207505 14,2.4375 C 13.969287,1.4392419 13.743058,0.66252383 13.34375,0.125 C 13.242572,0.036466383 13.135039,6.9388939e-18 13.0625,6.9388939e-18 C 12.958873,6.9388939e-18 12.920172,0.10056968 12.875,0.28125 C 12.982505,0.58840701 13.064102,0.89570162 13.15625,1.1875 C 13.279114,1.5560878 13.311964,1.8962353 13.28125,2.21875 C 13.250535,2.7409159 13.22536,3.1698066 13.15625,3.5 C 13.087135,3.8301933 12.965013,4 12.75,4 C 12.738538,4.000917 12.69862,4 12.6875,4 C 12.326134,4 12.15625,3.4997103 12.15625,2.53125 C 12.15625,2.1780205 12.189105,1.7568083 12.28125,1.25 C 12.202136,1.1155024 12.122594,1.03125 12.03125,1.03125 C 11.945284,1.03125 11.846796,1.0996106 11.75,1.21875 C 11.703925,1.5873381 11.671608,1.9921232 11.65625,2.4375 C 11.594822,3.1132453 11.772304,4.0526237 12.15625,5.28125 C 12.018028,7.0166841 11.9375,8.764567 11.9375,10.5 C 10.893169,10.66894 9.614175,10.766424 8.09375,10.8125 C 6.5886833,10.766424 5.3255824,10.66894 4.28125,10.5 C 4.2812499,8.764567 4.2007207,7.0166839 4.0625,5.28125 C 4.4464457,4.0526238 4.6239319,3.1132452 4.5625,2.4375 C 4.547142,1.9921233 4.483573,1.5873381 4.4375,1.21875 C 4.3406994,1.0996106 4.2734699,1.03125 4.1875,1.03125 C 4.0961565,1.03125 4.0166165,1.1155025 3.9375,1.25 C 4.0296477,1.7568082 4.0625,2.1780205 4.0625,2.53125 C 4.0625,3.4997102 3.8926152,4 3.53125,4 C 3.5201315,4 3.4802106,4.000917 3.46875,4 C 3.2537398,4 3.1316099,3.8301934 3.0625,3.5 C 2.9933895,3.1698066 2.9369659,2.7409158 2.90625,2.21875 C 2.8755347,1.8962354 2.9396376,1.5560878 3.0625,1.1875 C 3.1546474,0.89570164 3.2362449,0.58840702 3.34375,0.28125 C 3.2985796,0.10056967 3.2286261,6.9388939e-18 3.125,6.9388939e-18 z M 6.28125,0.09375 C 6.137648,0.09934695 5.9830994,0.1076054 5.84375,0.125 C 5.5629925,0.19594317 5.738092,0.54570587 6,0.5 C 6.4936461,0.55681354 7.0958349,0.56395667 7.46875,0.84375 C 7.963449,1.382954 7.7236546,2.4993098 7.78125,3.03125 C 7.785379,3.0598928 7.8125,5.2067516 7.8125,6.28125 C 7.1219756,5.9504047 6.3013372,5.851542 5.5625,6 C 5.272277,6.1524534 5.6846531,6.3624849 5.875,6.3125 C 6.596341,6.3904604 7.4148726,6.5789797 7.78125,7.25 C 7.9011339,7.6522909 7.3723861,7.185199 7.15625,7.21875 C 6.6344017,7.106038 6.0494458,7.097988 5.53125,7.1875 C 5.2565904,7.3688177 5.6853004,7.5072921 5.875,7.46875 C 6.611269,7.5575448 7.4243812,7.7653514 7.78125,8.4375 C 7.785323,9.1847252 7.7612643,9.6878089 7.78125,10.375 C 7.764107,10.796497 8.3422143,10.788235 8.34375,10.375 C 8.338657,9.6979073 8.2862173,9.0942614 8.375,8.4375 C 8.554085,7.7006939 9.831015,7.5882563 10.625,7.40625 C 10.824119,7.1721593 10.350927,7.1003814 10.15625,7.125 C 9.539588,7.0777142 8.8975603,7.1836029 8.34375,7.46875 C 8.3249145,7.0246441 8.7492319,6.772244 9.0625,6.59375 C 9.556917,6.3811057 10.108702,6.3328224 10.625,6.21875 C 10.833618,6.0376193 10.439636,5.9264063 10.25,5.96875 C 9.595547,5.9057754 8.9031407,5.9907996 8.3125,6.28125 C 8.3222613,4.6039086 8.3606381,2.9929629 8.3125,1.40625 C 8.273845,0.91563806 8.006758,0.45921596 7.53125,0.3125 C 7.141714,0.13529526 6.7120555,0.07695898 6.28125,0.09375 z M 0,12.34375 L 0,13.46875 L 6.125,13.4375 C 3.6041667,15.625 2.6822914,16.989584 3.375,17.5 C 4.067708,18.010416 4.8385421,18.093751 5.65625,17.78125 C 6.4739587,17.46875 7.1666668,16.041666 7.75,13.46875 L 7.75,17.9375 L 8.4375,17.9375 L 8.4375,13.4375 L 16.125,13.4375 L 16.125,12.34375 L 0,12.34375 z M 7,13.4375 C 6.53125,15.364583 6.0312501,16.531251 5.46875,16.9375 C 4.90625,17.34375 4.4739581,17.354167 4.1875,16.96875 C 3.9010413,16.583333 4.8333334,15.40625 7,13.4375 z"
     id="path2454" />
</svg>
