<?xml version="1.0" encoding="UTF-8" standalone="no"?>
<svg
   xmlns:dc="http://purl.org/dc/elements/1.1/"
   xmlns:cc="http://creativecommons.org/ns#"
   xmlns:rdf="http://www.w3.org/1999/02/22-rdf-syntax-ns#"
   xmlns:svg="http://www.w3.org/2000/svg"
   xmlns="http://www.w3.org/2000/svg"
   xmlns:sodipodi="http://sodipodi.sourceforge.net/DTD/sodipodi-0.dtd"
   xmlns:inkscape="http://www.inkscape.org/namespaces/inkscape"
   width="17.178665"
   height="17.977583"
   id="svg2452"
   sodipodi:version="0.32"
   inkscape:version="0.46"
   sodipodi:docname="D178C.svg"
   inkscape:output_extension="org.inkscape.output.svg.inkscape">
  <metadata
     id="metadata2459">
    <rdf:RDF>
      <cc:Work
         rdf:about="">
        <dc:format>image/svg+xml</dc:format>
        <dc:type
           rdf:resource="http://purl.org/dc/dcmitype/StillImage" />
      </cc:Work>
    </rdf:RDF>
  </metadata>
  <defs
     id="defs2457">
    <inkscape:perspective
       sodipodi:type="inkscape:persp3d"
       inkscape:vp_x="0 : 8.9887915 : 1"
       inkscape:vp_y="0 : 1000 : 0"
       inkscape:vp_z="17.178665 : 8.9887915 : 1"
       inkscape:persp3d-origin="8.5893326 : 5.9925276 : 1"
       id="perspective2461" />
  </defs>
  <sodipodi:namedview
     inkscape:window-height="708"
     inkscape:window-width="1024"
     inkscape:pageshadow="2"
     inkscape:pageopacity="0.0"
     guidetolerance="10.0"
     gridtolerance="10.0"
     objecttolerance="10.0"
     borderopacity="1.0"
     bordercolor="#666666"
     pagecolor="#ffffff"
     id="base"
     showgrid="true"
     inkscape:zoom="25.698672"
     inkscape:cx="15.8796"
     inkscape:cy="9.0496153"
     inkscape:window-x="-4"
     inkscape:window-y="-4"
     inkscape:current-layer="svg2452"
     showguides="true"
     inkscape:guide-bbox="true" />
  <path
     style="fill:#000000; stroke:none"
     d="M 1.3125 0 C 1.2066454 0 1.0851547 0.058302 0.9375 0.1875 C 0.35479201 0.97191399 0.044823333 2.105732 0 3.5625 C 0.17929467 4.7055054 0.59121933 6.3219513 1.21875 8.40625 C 0.99463202 10.087136 0.83080867 12.376552 0.71875 15.3125 C 0.62910264 16.298622 0.87246867 16.958645 1.5 17.25 C 3.360182 17.743059 5.7161987 17.96875 8.5625 17.96875 C 11.431213 17.96875 13.787229 17.743059 15.625 17.25 C 16.274946 16.958645 16.558399 16.298623 16.46875 15.3125 C 16.35669 12.376552 16.19287 10.087137 15.96875 8.40625 C 16.596285 6.321951 17.008209 4.7055053 17.1875 3.5625 C 17.142681 2.1057321 16.832713 0.971914 16.25 0.1875 C 16.102346 0.058301993 15.949604 0 15.84375 0 C 15.692528 0 15.597167 0.14258133 15.53125 0.40625 C 15.688132 0.85448732 15.834279 1.292926 15.96875 1.71875 C 16.148044 2.2566341 16.201072 2.7481013 16.15625 3.21875 C 16.111427 3.980752 16.038356 4.611896 15.9375 5.09375 C 15.836648 5.5756048 15.657517 5.8125 15.34375 5.8125 C 15.327025 5.813838 15.297477 5.8125 15.28125 5.8125 C 14.753906 5.8125 14.5 5.100784 14.5 3.6875 C 14.5 3.1720286 14.553027 2.5520907 14.6875 1.8125 C 14.572044 1.6162266 14.445799 1.5 14.3125 1.5 C 14.187044 1.5 14.047512 1.6073887 13.90625 1.78125 C 13.839014 2.3191339 13.803662 2.9125573 13.78125 3.5625 C 13.691603 4.5486214 13.939705 5.925804 14.5 7.71875 C 14.298294 10.251287 14.1875 12.779965 14.1875 15.3125 C 12.663496 15.55903 10.781272 15.714013 8.5625 15.78125 C 6.3661413 15.714013 4.5240047 15.559031 3 15.3125 C 3.0000001 12.779965 2.8892067 10.251287 2.6875 7.71875 C 3.247796 5.9258038 3.495898 4.5486213 3.40625 3.5625 C 3.383838 2.9125574 3.3172353 2.319134 3.25 1.78125 C 3.108738 1.6073886 3.0004567 1.5 2.875 1.5 C 2.741702 1.5 2.6154553 1.6162267 2.5 1.8125 C 2.6344714 2.5520906 2.6875 3.1720287 2.6875 3.6875 C 2.6875 5.1007839 2.433594 5.8125 1.90625 5.8125 C 1.890024 5.8125 1.8604753 5.813838 1.84375 5.8125 C 1.529984 5.8125 1.3196027 5.5756047 1.21875 5.09375 C 1.1178966 4.6118961 1.044824 3.980752 1 3.21875 C 0.95517662 2.7481014 1.039456 2.256634 1.21875 1.71875 C 1.353222 1.2929261 1.4993673 0.85448733 1.65625 0.40625 C 1.5903327 0.14258132 1.463722 0 1.3125 0 z M 8.59375 1.75 C 7.3063788 1.75 6.3018043 2.1705799 5.59375 2.96875 C 4.8856957 3.7669201 4.5312502 4.6576027 4.53125 5.6875 C 4.53125 6.8718817 4.9205798 7.8406374 5.71875 8.59375 C 6.5169201 9.3468616 7.4866107 9.7500002 8.59375 9.75 C 9.7008902 9.75 10.639327 9.3468615 11.4375 8.59375 C 12.235669 7.8406375 12.65625 6.8718815 12.65625 5.6875 C 12.65625 4.6576029 12.301802 3.7669201 11.59375 2.96875 C 10.885695 2.1705799 9.8811214 1.75 8.59375 1.75 z M 8.59375 2.4375 C 9.5464049 2.4375 10.225913 2.6799228 10.625 3.15625 C 10.122925 3.6969459 9.443415 3.96875 8.59375 3.96875 C 7.7440848 3.96875 7.0645748 3.696946 6.5625 3.15625 C 6.9744591 2.6799227 7.6539693 2.4375 8.59375 2.4375 z M 6.125 3.59375 C 6.4597167 3.9799613 6.6543818 4.7072295 6.71875 5.75 C 6.7058765 6.4966754 6.4928356 7.216572 6.09375 7.9375 C 5.5659276 7.435425 5.3125 6.6971526 5.3125 5.71875 C 5.3125 4.8948324 5.5843037 4.1859408 6.125 3.59375 z M 11.0625 3.59375 C 11.603198 4.1859408 11.875 4.8948326 11.875 5.71875 C 11.875 6.6971524 11.590322 7.4354252 11.0625 7.9375 C 10.663416 7.2165718 10.481627 6.4966755 10.46875 5.75 C 10.53312 4.7072294 10.727784 3.9799613 11.0625 3.59375 z M 6.875 3.96875 C 7.2740851 4.2133504 7.8470746 4.3437498 8.59375 4.34375 C 9.3404251 4.34375 9.9134147 4.2133503 10.3125 3.96875 C 10.158017 4.4965724 10.075375 5.1063146 10.0625 5.75 C 10.0625 6.4323069 10.161649 7.0585569 10.40625 7.625 C 9.9427948 7.3031572 9.3532992 7.1433763 8.59375 7.15625 C 7.8342011 7.1433761 7.2134536 7.3031573 6.75 7.625 C 6.9946005 7.0585568 7.1250002 6.432307 7.125 5.75 C 7.1121261 5.1063145 7.0294844 4.4965723 6.875 3.96875 z M 8.59375 7.625 C 9.4434148 7.625 10.128426 7.8545488 10.65625 8.34375 C 10.154174 8.8458242 9.4691626 9.0937502 8.59375 9.09375 C 7.7183373 9.09375 7.0333248 8.8458244 6.53125 8.34375 C 7.0590725 7.8545486 7.744085 7.6250001 8.59375 7.625 z M 5.71875 10.5625 L 4.71875 10.59375 L 4.71875 14.59375 L 5.71875 14.59375 L 5.71875 10.5625 z M 9.09375 10.5625 L 8.125 10.59375 L 8.125 14.59375 L 9.09375 14.59375 L 9.09375 10.5625 z M 12.71875 10.5625 L 11.71875 10.59375 L 11.71875 14.59375 L 12.71875 14.59375 L 12.71875 10.5625 z "
     id="path2454" />
</svg>
