<?xml version="1.0" encoding="UTF-8" standalone="no"?>
<svg
   xmlns:dc="http://purl.org/dc/elements/1.1/"
   xmlns:cc="http://creativecommons.org/ns#"
   xmlns:rdf="http://www.w3.org/1999/02/22-rdf-syntax-ns#"
   xmlns:svg="http://www.w3.org/2000/svg"
   xmlns="http://www.w3.org/2000/svg"
   xmlns:sodipodi="http://sodipodi.sourceforge.net/DTD/sodipodi-0.dtd"
   xmlns:inkscape="http://www.inkscape.org/namespaces/inkscape"
   width="17.178665"
   height="17.977583"
   id="svg2452"
   sodipodi:version="0.32"
   inkscape:version="0.46"
   sodipodi:docname="D178.svg"
   inkscape:output_extension="org.inkscape.output.svg.inkscape">
  <metadata
     id="metadata2459">
    <rdf:RDF>
      <cc:Work
         rdf:about="">
        <dc:format>image/svg+xml</dc:format>
        <dc:type
           rdf:resource="http://purl.org/dc/dcmitype/StillImage" />
      </cc:Work>
    </rdf:RDF>
  </metadata>
  <defs
     id="defs2457">
    <inkscape:perspective
       sodipodi:type="inkscape:persp3d"
       inkscape:vp_x="0 : 8.9887915 : 1"
       inkscape:vp_y="0 : 1000 : 0"
       inkscape:vp_z="17.178665 : 8.9887915 : 1"
       inkscape:persp3d-origin="8.5893326 : 5.9925276 : 1"
       id="perspective2461" />
  </defs>
  <sodipodi:namedview
     inkscape:window-height="708"
     inkscape:window-width="1024"
     inkscape:pageshadow="2"
     inkscape:pageopacity="0.0"
     guidetolerance="10.0"
     gridtolerance="10.0"
     objecttolerance="10.0"
     borderopacity="1.0"
     bordercolor="#666666"
     pagecolor="#ffffff"
     id="base"
     showgrid="true"
     inkscape:zoom="25.698672"
     inkscape:cx="15.8796"
     inkscape:cy="9.0496153"
     inkscape:window-x="-4"
     inkscape:window-y="-4"
     inkscape:current-layer="svg2452"
     showguides="true"
     inkscape:guide-bbox="true" />
  <path
     style="fill:#000000; stroke:none"
     d="M 1.3125 0 C 1.2066454 0 1.0851547 0.058302 0.9375 0.1875 C 0.35479201 0.97191399 0.044823333 2.105732 0 3.5625 C 0.17929467 4.7055054 0.59121933 6.3219513 1.21875 8.40625 C 0.99463202 10.087136 0.83080867 12.376552 0.71875 15.3125 C 0.62910264 16.298622 0.87246867 16.958645 1.5 17.25 C 3.360182 17.743059 5.7161987 17.96875 8.5625 17.96875 C 11.431213 17.96875 13.787229 17.743059 15.625 17.25 C 16.274946 16.958645 16.558399 16.298623 16.46875 15.3125 C 16.35669 12.376552 16.19287 10.087137 15.96875 8.40625 C 16.596285 6.321951 17.008209 4.7055053 17.1875 3.5625 C 17.142681 2.1057321 16.832713 0.971914 16.25 0.1875 C 16.102346 0.058301993 15.949604 0 15.84375 0 C 15.692528 0 15.597167 0.14258133 15.53125 0.40625 C 15.688132 0.85448732 15.834279 1.292926 15.96875 1.71875 C 16.148044 2.2566341 16.201072 2.7481013 16.15625 3.21875 C 16.111427 3.980752 16.038356 4.611896 15.9375 5.09375 C 15.836648 5.5756048 15.657517 5.8125 15.34375 5.8125 C 15.327025 5.813838 15.297477 5.8125 15.28125 5.8125 C 14.753906 5.8125 14.5 5.100784 14.5 3.6875 C 14.5 3.1720286 14.553027 2.5520907 14.6875 1.8125 C 14.572044 1.6162266 14.445799 1.5 14.3125 1.5 C 14.187044 1.5 14.047512 1.6073887 13.90625 1.78125 C 13.839014 2.3191339 13.803662 2.9125573 13.78125 3.5625 C 13.691603 4.5486214 13.939705 5.925804 14.5 7.71875 C 14.298294 10.251287 14.1875 12.779965 14.1875 15.3125 C 12.663496 15.55903 10.781272 15.714013 8.5625 15.78125 C 6.3661413 15.714013 4.5240047 15.559031 3 15.3125 C 3.0000001 12.779965 2.8892067 10.251287 2.6875 7.71875 C 3.247796 5.9258038 3.495898 4.5486213 3.40625 3.5625 C 3.383838 2.9125574 3.3172353 2.319134 3.25 1.78125 C 3.108738 1.6073886 3.0004567 1.5 2.875 1.5 C 2.741702 1.5 2.6154553 1.6162267 2.5 1.8125 C 2.6344714 2.5520906 2.6875 3.1720287 2.6875 3.6875 C 2.6875 5.1007839 2.433594 5.8125 1.90625 5.8125 C 1.890024 5.8125 1.8604753 5.813838 1.84375 5.8125 C 1.529984 5.8125 1.3196027 5.5756047 1.21875 5.09375 C 1.1178966 4.6118961 1.044824 3.980752 1 3.21875 C 0.95517662 2.7481014 1.039456 2.256634 1.21875 1.71875 C 1.353222 1.2929261 1.4993673 0.85448733 1.65625 0.40625 C 1.5903327 0.14258132 1.463722 0 1.3125 0 z M 6.625 0.03125 C 5.5495738 0.031250001 4.8759169 0.64054969 4.59375 1.84375 C 4.3115833 3.0469496 4.1011536 4.3292118 4 5.71875 C 3.8988464 7.1082845 3.9041699 8.4868483 4 9.8125 C 4.0958302 11.13815 4.2803337 12.395875 4.5625 13.59375 C 4.844667 14.791622 5.5183236 15.375 6.59375 15.375 C 7.6585291 15.375 8.337509 14.791622 8.625 13.59375 C 8.9124902 12.395875 9.117596 11.13815 9.21875 9.8125 C 9.3199044 8.4868481 9.293978 7.1082847 9.1875 5.71875 C 9.0810205 4.3292116 8.896518 3.0469496 8.625 1.84375 C 8.3534801 0.64054968 7.7004271 0.03125 6.625 0.03125 z M 12.03125 0.03125 L 11 0.0625 L 11 5.21875 L 12.03125 5.21875 L 12.03125 0.03125 z M 6.34375 0.59375 C 6.4229429 0.5767801 6.5085676 0.59375 6.59375 0.59375 C 6.9344799 0.59374999 7.2238505 0.72848141 7.46875 1 C 7.7136485 1.2715185 7.9233837 1.6060324 8.09375 2 C 7.5507116 1.7870448 7.0516053 1.65625 6.59375 1.65625 C 6.1571906 1.65625 5.6680366 1.7870449 5.125 2 C 5.2740695 1.6060323 5.4738504 1.2715185 5.71875 1 C 5.9024233 0.79636106 6.1061713 0.64465971 6.34375 0.59375 z M 6.59375 2.25 C 7.1261402 2.25 7.6856676 2.3495436 8.25 2.5625 C 8.452306 3.2865491 8.541898 3.9655305 8.53125 4.59375 C 7.8284965 5.7756559 7.4893523 6.8435526 7.5 7.8125 C 7.4787046 8.7388579 7.8284968 9.7576722 8.53125 10.84375 C 8.5525443 11.482616 8.431706 12.161598 8.21875 12.875 C 7.6544172 13.087956 7.1261399 13.1875 6.59375 13.1875 C 6.0507128 13.1875 5.4911849 13.087956 4.9375 12.875 C 4.7351915 12.161598 4.6456023 11.482616 4.65625 10.84375 C 5.3696523 9.7576718 5.7293976 8.7388577 5.71875 7.8125 C 5.71875 6.8435528 5.3590047 5.7756559 4.65625 4.59375 C 4.6456016 3.9548822 4.7557938 3.2759008 4.96875 2.5625 C 5.5224352 2.3495437 6.0613613 2.25 6.59375 2.25 z M 4.59375 5.90625 C 4.9664231 6.609002 5.1668972 7.2481666 5.15625 7.8125 C 5.1562499 8.3129465 4.9557757 8.9620623 4.59375 9.75 C 4.4127376 8.4722634 4.4127374 7.1839832 4.59375 5.90625 z M 8.625 5.90625 C 8.8060114 7.1733357 8.806011 8.4616161 8.625 9.75 C 8.2523264 8.9620619 8.051852 8.3129463 8.0625 7.8125 C 8.0518518 7.2481668 8.252326 6.6090018 8.625 5.90625 z M 10.84375 9.03125 L 9.8125 9.0625 L 9.8125 14.21875 L 10.84375 14.21875 L 10.84375 9.03125 z M 13.4375 9.03125 L 12.40625 9.0625 L 12.40625 14.21875 L 13.4375 14.21875 L 13.4375 9.03125 z M 5.09375 13.46875 C 5.6367866 13.681706 6.146543 13.78125 6.59375 13.78125 C 7.0516051 13.78125 7.5507117 13.681706 8.09375 13.46875 C 7.9233836 13.862716 7.7136482 14.165984 7.46875 14.4375 C 7.2238501 14.70902 6.9344795 14.84375 6.59375 14.84375 C 6.2423724 14.84375 5.9270742 14.70902 5.6875 14.4375 C 5.4479245 14.165984 5.2534666 13.862716 5.09375 13.46875 z "
     id="path2454" />
</svg>
