<?xml version="1.0" encoding ="US-ASCII" standalone="yes"?>
<svg width="13.97069" height="17.976807">
<path style="fill:#000000; stroke:none" d=" M 8.947968 0.857473  C 9.104955 0.857473 9.262487 0.867655 9.420208 0.889378  C 10.933846 1.208711 11.889997 2.302505 12.899867 3.526291  C 13.725307 5.42054 12.684458 7.543865 11.830476 9.007466  C 11.304497 9.750883 10.403711 10.574499 9.545733 11.372567  C 8.20604 12.807137 6.178564 13.685223 5.106529 15.374856  C 4.335898 16.315071 3.518508 16.642786 2.832229 16.642786  C 1.987771 16.642786 1.341827 16.146593 1.225782 15.684786  C 0.663453 13.588569 2.487561 12.143584 3.389642 10.625957  C 3.571381 10.495654 3.720475 10.441021 3.837728 10.441021  C 4.215455 10.441021 4.262743 11.007978 4.006508 11.438436  C 3.848686 11.861073 3.990828 12.000552 4.233352 12.000552  C 4.537453 12.000552 4.999381 11.781255 5.225673 11.625909  C 6.149406 11.036477 7.089955 10.683055 7.746485 9.767762  C 8.245339 9.072716 8.898558 8.168563 8.594213 7.240752  C 7.951754 6.462985 6.732168 6.717633 5.997709 6.059568  C 5.833737 3.789751 7.706284 2.681196 8.834453 2.681196  C 8.936229 2.681196 9.031945 2.690218 9.119563 2.708223  C 10.296674 2.906038 11.228147 4.006022 11.335888 5.250502  C 11.282842 6.607856 10.72924 7.840581 9.885001 8.87407  C 9.0663 9.946818 7.826334 10.522243 6.796037 11.34954  C 5.845813 12.150661 4.61111 12.84116 4.219886 14.096925  C 4.290105 14.152255 4.361908 14.177877 4.437677 14.177877  C 5.017923 14.177877 5.830862 12.675334 7.947184 11.506032  C 8.821316 10.825673 9.30162 10.544478 10.241109 9.632614  C 11.645138 8.175377 11.918612 7.162118 12.237391 5.71638  C 12.155974 4.597669 12.598594 4.272701 11.074767 2.57142  C 10.412213 1.993214 9.55871 1.68317 8.718902 1.68317  C 8.369761 1.68317 8.022988 1.736757 7.693287 1.84694  C 6.384777 2.243661 5.325227 3.897833 4.717904 5.043398  C 4.443038 3.894432 5.226603 2.357163 6.119057 1.738685  C 6.978912 1.2669 7.95245 0.857473 8.947968 0.857473  Z  M 8.359546 0  C 6.202223 0.121678 4.127481 1.826693 3.685579 3.537749  C 3.495829 4.735126 3.501882 6.166969 4.432535 7.072962  C 5.003021 7.543335 5.749936 7.807758 6.448475 8.041835  C 6.479974 8.03938 6.510508 8.038185 6.540082 8.038185  C 7.485304 8.038185 7.4512 9.258336 6.636725 9.558241  C 6.415468 9.941145 6.05959 10.205787 5.7157 10.205787  C 5.462551 10.205787 5.215896 10.062379 5.034219 9.717173  C 4.779656 9.35972 4.207921 9.01943 3.710123 9.01943  C 3.386239 9.01943 3.093654 9.163484 2.940092 9.540586  C 2.074528 10.768117 1.192495 11.512821 0.499397 12.852288  C -0.113731 13.898891 -0.139264 15.473606 0.265635 16.616383  C 0.625913 17.172678 1.48271 17.976807 2.752194 17.976807  C 3.307531 17.976807 3.941841 17.822926 4.648107 17.427103  C 5.863831 15.73864 7.452072 14.362519 9.030401 13.020955  C 10.497593 11.69452 12.181014 10.506365 13.028676 8.667148  C 13.746841 7.165583 14.286018 5.31932 13.764868 3.663797  C 12.855323 1.542122 11.110975 0.110823 8.359546 0  Z "/></svg>
