<?xml version="1.0" encoding="UTF-8" standalone="no"?>
<svg
   xmlns:dc="http://purl.org/dc/elements/1.1/"
   xmlns:cc="http://creativecommons.org/ns#"
   xmlns:rdf="http://www.w3.org/1999/02/22-rdf-syntax-ns#"
   xmlns:svg="http://www.w3.org/2000/svg"
   xmlns="http://www.w3.org/2000/svg"
   xmlns:sodipodi="http://sodipodi.sourceforge.net/DTD/sodipodi-0.dtd"
   xmlns:inkscape="http://www.inkscape.org/namespaces/inkscape"
   width="17.178665"
   height="17.977583"
   id="svg2452"
   sodipodi:version="0.32"
   inkscape:version="0.46"
   sodipodi:docname="D180.svg"
   inkscape:output_extension="org.inkscape.output.svg.inkscape">
  <metadata
     id="metadata2459">
    <rdf:RDF>
      <cc:Work
         rdf:about="">
        <dc:format>image/svg+xml</dc:format>
        <dc:type
           rdf:resource="http://purl.org/dc/dcmitype/StillImage" />
      </cc:Work>
    </rdf:RDF>
  </metadata>
  <defs
     id="defs2457">
    <inkscape:perspective
       sodipodi:type="inkscape:persp3d"
       inkscape:vp_x="0 : 8.9887915 : 1"
       inkscape:vp_y="0 : 1000 : 0"
       inkscape:vp_z="17.178665 : 8.9887915 : 1"
       inkscape:persp3d-origin="8.5893326 : 5.9925276 : 1"
       id="perspective2461" />
  </defs>
  <sodipodi:namedview
     inkscape:window-height="708"
     inkscape:window-width="1024"
     inkscape:pageshadow="2"
     inkscape:pageopacity="0.0"
     guidetolerance="10.0"
     gridtolerance="10.0"
     objecttolerance="10.0"
     borderopacity="1.0"
     bordercolor="#666666"
     pagecolor="#ffffff"
     id="base"
     showgrid="true"
     inkscape:zoom="25.698672"
     inkscape:cx="15.8796"
     inkscape:cy="12.162617"
     inkscape:window-x="-4"
     inkscape:window-y="-4"
     inkscape:current-layer="svg2452"
     showguides="true"
     inkscape:guide-bbox="true">
    <sodipodi:guide
       orientation="0,1"
       position="7.7046784,3.385389"
       id="guide3726" />
  </sodipodi:namedview>
  <path
     style="fill:#000000; stroke:none"
     d="M 1.3125 0 C 1.2066454 0 1.0851547 0.058302 0.9375 0.1875 C 0.35479201 0.97191399 0.044823333 2.105732 0 3.5625 C 0.17929467 4.7055054 0.59121933 6.3219513 1.21875 8.40625 C 0.99463202 10.087136 0.83080867 12.376552 0.71875 15.3125 C 0.62910264 16.298622 0.87246867 16.958645 1.5 17.25 C 3.360182 17.743059 5.7161987 17.96875 8.5625 17.96875 C 11.431213 17.96875 13.787229 17.743059 15.625 17.25 C 16.274946 16.958645 16.558399 16.298623 16.46875 15.3125 C 16.35669 12.376552 16.19287 10.087137 15.96875 8.40625 C 16.596285 6.321951 17.008209 4.7055053 17.1875 3.5625 C 17.142681 2.1057321 16.832713 0.971914 16.25 0.1875 C 16.102346 0.058301993 15.949604 0 15.84375 0 C 15.692528 0 15.597167 0.14258133 15.53125 0.40625 C 15.688132 0.85448732 15.834279 1.292926 15.96875 1.71875 C 16.148044 2.2566341 16.201072 2.7481013 16.15625 3.21875 C 16.111427 3.980752 16.038356 4.611896 15.9375 5.09375 C 15.836648 5.5756048 15.657517 5.8125 15.34375 5.8125 C 15.327025 5.813838 15.297477 5.8125 15.28125 5.8125 C 14.753906 5.8125 14.5 5.100784 14.5 3.6875 C 14.5 3.1720286 14.553027 2.5520907 14.6875 1.8125 C 14.572044 1.6162266 14.445799 1.5 14.3125 1.5 C 14.187044 1.5 14.047512 1.6073887 13.90625 1.78125 C 13.839014 2.3191339 13.803662 2.9125573 13.78125 3.5625 C 13.691603 4.5486214 13.939705 5.925804 14.5 7.71875 C 14.298294 10.251287 14.1875 12.779965 14.1875 15.3125 C 12.663496 15.55903 10.781272 15.714013 8.5625 15.78125 C 6.3661413 15.714013 4.5240047 15.559031 3 15.3125 C 3.0000001 12.779965 2.8892067 10.251287 2.6875 7.71875 C 3.247796 5.9258038 3.495898 4.5486213 3.40625 3.5625 C 3.383838 2.9125574 3.3172353 2.319134 3.25 1.78125 C 3.108738 1.6073886 3.0004567 1.5 2.875 1.5 C 2.741702 1.5 2.6154553 1.6162267 2.5 1.8125 C 2.6344714 2.5520906 2.6875 3.1720287 2.6875 3.6875 C 2.6875 5.1007839 2.433594 5.8125 1.90625 5.8125 C 1.890024 5.8125 1.8604753 5.813838 1.84375 5.8125 C 1.529984 5.8125 1.3196027 5.5756047 1.21875 5.09375 C 1.1178966 4.6118961 1.044824 3.980752 1 3.21875 C 0.95517662 2.7481014 1.039456 2.256634 1.21875 1.71875 C 1.353222 1.2929261 1.4993673 0.85448733 1.65625 0.40625 C 1.5903327 0.14258132 1.463722 0 1.3125 0 z M 8.3125 0.03125 C 6.6115632 0.03125 5.7499998 0.88002394 5.75 2.59375 C 5.75 4.2946867 6.3362011 5.8020614 7.5 7.09375 C 7.065174 7.09375 6.4733005 6.9262641 5.71875 6.59375 C 5.6548047 6.59375 5.625 6.6590318 5.625 6.8125 L 4.8125 6.75 L 4.71875 6.84375 L 4.71875 8.5 L 4.8125 8.59375 L 5.625 8.53125 C 5.625 8.6975073 5.6548046 8.7627892 5.71875 8.75 C 6.4733006 8.3791191 7.1247841 8.1875004 7.6875 8.1875 C 7.6875 9.4536111 7.6151009 11.828219 7.5 15.28125 C 7.5 15.421926 7.5723991 15.5 7.6875 15.5 L 8.90625 15.5 C 9.0213509 15.5 9.09375 15.421926 9.09375 15.28125 C 8.9786491 11.828219 8.9062499 9.4536115 8.90625 8.1875 C 9.468966 8.1875 10.120447 8.379119 10.875 8.75 C 10.938945 8.7627893 10.96875 8.6975071 10.96875 8.53125 L 11.78125 8.59375 L 11.875 8.5 L 11.875 6.84375 L 11.78125 6.75 L 10.96875 6.8125 C 10.96875 6.659032 10.938945 6.5937502 10.875 6.59375 C 10.120447 6.9262639 9.5285761 7.0937501 9.09375 7.09375 C 10.257549 5.8020613 10.84375 4.2946867 10.84375 2.59375 C 10.84375 0.88002394 10.013436 0.03125 8.3125 0.03125 z M 8.3125 0.4375 C 9.7320788 0.53981204 10.4375 1.2452334 10.4375 2.5625 C 10.4375 3.8797671 10.107478 4.9613092 9.5 5.84375 C 8.8925229 6.7261908 8.5171244 7.1875002 8.3125 7.1875 C 8.107876 7.1875 7.7012272 6.726191 7.09375 5.84375 C 6.4862726 4.961309 6.15625 3.879767 6.15625 2.5625 C 6.15625 1.2452335 6.8929217 0.53981203 8.3125 0.4375 z M 8.3125 0.84375 C 7.1742791 0.84375 6.5937502 1.5136938 6.59375 2.84375 C 6.59375 4.1738057 7.1742795 5.4952332 8.3125 6.8125 C 9.450721 5.4952334 10 4.1738057 10 2.84375 C 10 1.5136938 9.4507214 0.84374998 8.3125 0.84375 z M 8.3125 1.25 C 9.1821515 1.25 9.5937501 1.8248576 9.59375 2.9375 C 9.59375 4.037354 9.1821519 5.16149 8.3125 6.3125 C 7.442848 5.1614899 6.9999998 4.0373541 7 2.9375 C 7 1.8248575 7.4428484 1.2499999 8.3125 1.25 z M 5.90625 7 C 6.5201222 7.2813579 7.1247841 7.4062501 7.6875 7.40625 L 7.6875 7.90625 C 7.1247841 7.90625 6.5201224 8.0496031 5.90625 8.34375 L 5.90625 7 z M 10.6875 7 L 10.6875 8.34375 C 10.07363 8.049603 9.4689659 7.9062499 8.90625 7.90625 L 8.90625 7.40625 C 9.468966 7.40625 10.07363 7.2813578 10.6875 7 z M 5.03125 7.09375 L 5.625 7.125 L 5.625 8.25 L 5.03125 8.25 L 5.03125 7.09375 z M 11.5625 7.09375 L 11.5625 8.25 L 10.96875 8.25 L 10.96875 7.125 L 11.5625 7.09375 z M 8.09375 7.5 L 8.5 7.5 L 8.5 7.90625 L 8.09375 7.90625 L 8.09375 7.5 z M 8.09375 8.1875 L 8.5 8.1875 L 8.6875 15.09375 L 7.90625 15.09375 L 8.09375 8.1875 z "
     id="path2454" />
</svg>
