<?xml version="1.0" encoding="UTF-8" standalone="no"?>
<svg
   xmlns:dc="http://purl.org/dc/elements/1.1/"
   xmlns:cc="http://creativecommons.org/ns#"
   xmlns:rdf="http://www.w3.org/1999/02/22-rdf-syntax-ns#"
   xmlns:svg="http://www.w3.org/2000/svg"
   xmlns="http://www.w3.org/2000/svg"
   xmlns:sodipodi="http://sodipodi.sourceforge.net/DTD/sodipodi-0.dtd"
   xmlns:inkscape="http://www.inkscape.org/namespaces/inkscape"
   width="21.0625"
   height="14.525913"
   id="svg4947"
   sodipodi:version="0.32"
   inkscape:version="0.46"
   sodipodi:docname="D205vara.svg"
   inkscape:output_extension="org.inkscape.output.svg.inkscape"
   version="1.0">
  <metadata
     id="metadata4954">
    <rdf:RDF>
      <cc:Work
         rdf:about="">
        <dc:format>image/svg+xml</dc:format>
        <dc:type
           rdf:resource="http://purl.org/dc/dcmitype/StillImage" />
      </cc:Work>
    </rdf:RDF>
  </metadata>
  <defs
     id="defs4952">
    <inkscape:perspective
       sodipodi:type="inkscape:persp3d"
       inkscape:vp_x="0 : 2.765625 : 1"
       inkscape:vp_y="0 : 1000 : 0"
       inkscape:vp_z="22.488543 : 2.765625 : 1"
       inkscape:persp3d-origin="11.244271 : 1.84375 : 1"
       id="perspective4956" />
  </defs>
  <sodipodi:namedview
     inkscape:window-height="708"
     inkscape:window-width="1024"
     inkscape:pageshadow="2"
     inkscape:pageopacity="0.0"
     guidetolerance="10.0"
     gridtolerance="10.0"
     objecttolerance="10.0"
     borderopacity="1.0"
     bordercolor="#666666"
     pagecolor="#ffffff"
     id="base"
     showgrid="false"
     inkscape:zoom="34.627771"
     inkscape:cx="10.53125"
     inkscape:cy="7.2629566"
     inkscape:window-x="5"
     inkscape:window-y="113"
     inkscape:current-layer="svg4947" />
  <path
     style="fill:#000000;stroke:none"
     d="M 7.375,0 L 7.28125,0.09375 C 7.4528903,1.8316355 7.8793832,3.5303938 8.5625,5.1875 C 8.8613625,5.9124836 9.226949,6.5461294 9.6875,7.125 C 8.3696929,7.2330165 7.0991841,7.3711045 6.53125,7.5 L 6.5,7.5 C 5.8178859,6.783591 5.237469,6.40625 4.71875,6.40625 C 4.5277165,6.393514 4.310254,6.387735 4.09375,6.375 C 3.023977,6.578765 2.385487,6.65625 2.15625,6.65625 C 2.003425,6.65625 1.9375,6.764984 1.9375,6.96875 C 1.9375,7.261665 2.148011,7.40625 2.59375,7.40625 C 3.347659,7.273207 3.915863,7.21875 4.3125,7.21875 C 4.3518165,7.21875 4.39505,7.21875 4.4375,7.21875 C 4.4587235,7.2187501 4.482965,7.217651 4.5,7.21875 C 4.7292355,7.21875 4.903893,7.321704 5.03125,7.5 C 4.7833935,7.806866 4.198997,7.9375 3.34375,7.9375 C 3.298685,7.9375 3.259284,7.9375 3.21875,7.9375 C 3.1984828,7.9374998 3.180038,7.938122 3.15625,7.9375 C 2.181991,7.912029 1.345139,7.791737 0.59375,7.5625 C 0.211688,7.5625 0,7.785745 0,8.21875 C 0.050942,8.613547 1.430874,8.831015 4.15625,8.84375 L 5.5,8.6875 L 11.40625,8.71875 C 11.555539,8.819589 11.716635,8.9073624 11.875,9 C 13.402853,9.8937388 14.746408,10.44725 15.9375,10.65625 C 17.128592,10.865249 17.863129,11.234734 18.15625,11.75 C 18.449368,12.265267 18.572519,12.621566 18.46875,12.8125 C 18.401607,12.936045 18.183043,12.965391 17.84375,12.9375 C 17.504458,12.90961 17.264662,13.060521 17.09375,13.375 C 16.874246,13.75114 17.057729,14.088641 17.65625,14.375 C 18.40428,14.747043 19.05146,14.433811 19.625,13.40625 C 20.082801,12.563894 19.769662,11.507395 18.65625,10.28125 L 16.96875,8.71875 L 21.0625,8.75 L 21.0625,2.96875 C 21.0625,2.1950654 20.664799,1.8125 19.84375,1.8125 C 19.022693,1.8124999 18.594081,2.0421054 18.5625,2.5 C 18.223817,5.4096048 18.003847,6.6146042 17.65625,6.6875 C 16.381587,6.5915024 15.652679,6.6119001 14.71875,6.6875 L 7.375,0 z M 8.25,1.4375 L 17.4375,9.8125 C 19.072217,11.217302 19.6453,12.345144 19.1875,13.1875 C 18.772427,13.951236 18.327229,14.215019 17.8125,13.96875 C 17.561122,13.84848 17.444826,13.723021 17.5,13.59375 C 17.567144,13.470204 17.782655,13.415225 18.125,13.4375 C 18.467346,13.459776 18.716296,13.323266 18.875,13.03125 C 19.143576,12.537068 18.989592,11.973697 18.40625,11.3125 C 17.822907,10.651303 16.757778,9.9810272 15.21875,9.34375 C 12.046592,7.8260486 9.726742,5.1866847 8.25,1.4375 z M 8.125,2.125 L 8.25,2.15625 C 9.4176492,5.5028178 11.75824,8.0925189 15.3125,9.90625 L 15.3125,9.9375 C 11.369009,8.6734385 8.9752423,6.0556011 8.125,2.125 z M 19.8125,2.4375 C 20.144076,2.4375 20.312499,2.6213813 20.3125,2.96875 L 20.3125,6.96875 L 18.78125,6.96875 L 19.28125,2.78125 C 19.297041,2.5601973 19.480922,2.4375 19.8125,2.4375 z"
     id="path4949" />
</svg>
