<?xml version="1.0" encoding="UTF-8" standalone="no"?>
<svg
   xmlns:dc="http://purl.org/dc/elements/1.1/"
   xmlns:cc="http://creativecommons.org/ns#"
   xmlns:rdf="http://www.w3.org/1999/02/22-rdf-syntax-ns#"
   xmlns:svg="http://www.w3.org/2000/svg"
   xmlns="http://www.w3.org/2000/svg"
   xmlns:sodipodi="http://sodipodi.sourceforge.net/DTD/sodipodi-0.dtd"
   xmlns:inkscape="http://www.inkscape.org/namespaces/inkscape"
   width="17.857143"
   height="12"
   id="svg5094"
   sodipodi:version="0.32"
   inkscape:version="0.46"
   sodipodi:docname="D208varb.svg"
   inkscape:output_extension="org.inkscape.output.svg.inkscape">
  <metadata
     id="metadata5101">
    <rdf:RDF>
      <cc:Work
         rdf:about="">
        <dc:format>image/svg+xml</dc:format>
        <dc:type
           rdf:resource="http://purl.org/dc/dcmitype/StillImage" />
      </cc:Work>
    </rdf:RDF>
  </metadata>
  <defs
     id="defs5099">
    <inkscape:perspective
       sodipodi:type="inkscape:persp3d"
       inkscape:vp_x="0 : 6 : 1"
       inkscape:vp_y="0 : 1000 : 0"
       inkscape:vp_z="17.857143 : 6 : 1"
       inkscape:persp3d-origin="8.9285717 : 4 : 1"
       id="perspective5103" />
  </defs>
  <sodipodi:namedview
     inkscape:window-height="667"
     inkscape:window-width="640"
     inkscape:pageshadow="2"
     inkscape:pageopacity="0.0"
     guidetolerance="10.0"
     gridtolerance="10.0"
     objecttolerance="10.0"
     borderopacity="1.0"
     bordercolor="#666666"
     pagecolor="#ffffff"
     id="base"
     showgrid="false"
     inkscape:zoom="30.463999"
     inkscape:cx="8.9285717"
     inkscape:cy="6"
     inkscape:window-x="110"
     inkscape:window-y="67"
     inkscape:current-layer="svg5094" />
  <path
     style="fill:#000000; stroke:none"
     d="M 8.738095,0.952381 C 9.452701,0.952381 9.809524,1.374104 9.809524,2.238095 C 9.809524,3.092156 9.452701,3.963358 8.738095,4.857143 C 8.02349,3.963358 7.666667,3.092156 7.666667,2.238095 C 7.666667,1.374104 8.02349,0.952381 8.738095,0.952381 z M 8.738095,0 C 7.34041,0 6.642857,0.669254 6.642857,2 C 6.642857,3.320815 7.115119,4.473166 8.071428,5.476191 C 7.714127,5.476191 7.239073,5.353443 6.619048,5.095238 C 6.566503,5.095238 6.523809,5.142734 6.523809,5.261905 L 5.880952,5.214286 L 5.785714,5.309524 L 5.785714,6.571429 L 5.880952,6.642857 L 6.523809,6.595238 C 6.523809,6.713373 6.559557,6.763178 6.60589,6.763178 C 6.610192,6.763178 6.614584,6.762748 6.619048,6.761905 C 7.239073,6.473907 7.775703,6.333333 8.238095,6.333333 C 8.238095,6.690827 8.202981,7.751311 8.190476,8.333333 C 7.808434,8.35253 7.423379,8.365972 7.023986,8.365972 C 6.844621,8.365972 6.662364,8.363261 6.476191,8.357142 C 5.401183,8.296338 4.338627,8.15486 3.261905,8.095238 C 3.251629,8.095096 3.241346,8.095025 3.231055,8.095025 C 1.699054,8.095025 0.000922,9.663232 0,9.904762 C 0,10.283513 0.056511,10.5 0.5,10.5 C 0.809333,10.183349 2.103508,9.047871 3.023809,9.023809 C 3.09122,9.022047 3.156853,9.021164 3.220707,9.021164 C 4.028586,9.021164 4.551587,9.162509 4.785714,9.452381 C 4.835205,9.528251 4.968631,9.787369 4.371876,9.787369 C 4.344696,9.787369 4.316001,9.786831 4.285714,9.785714 C 3.910685,9.771885 3.487162,9.642433 2.567975,9.642433 C 2.537915,9.642433 2.507326,9.642571 2.476191,9.642858 C 2.055137,9.642858 1.809524,9.87711 1.809524,10.047619 C 1.809524,10.227684 1.882722,10.383214 2.174552,10.383214 C 2.194678,10.383214 2.215843,10.382475 2.238095,10.380953 C 2.350948,10.373232 2.650503,10.337384 2.989364,10.337384 C 3.299192,10.337384 3.64188,10.367353 3.904762,10.476191 C 4.036489,10.496101 4.192924,10.503411 4.3333,10.503411 C 4.524021,10.503411 4.685097,10.489917 4.714286,10.476191 C 4.726467,10.476191 4.738625,10.476199 4.750774,10.476199 C 5.178796,10.476199 5.596652,10.465167 6.666667,9.666667 L 8.142858,9.642858 L 8.142858,9.642858 C 8.120192,10.441335 8.132902,10.765553 8.095238,11.833333 C 8.095238,11.942574 8.143515,12 8.238095,12 L 9.238095,12 C 9.332675,12 9.380953,11.942574 9.380953,11.833333 C 9.343288,10.765553 9.355998,10.441335 9.333333,9.642858 L 15.380953,9.595238 C 15.654167,9.615964 15.909396,9.630321 16.160906,9.630321 C 16.697134,9.630321 17.216457,9.565062 17.857143,9.357142 C 17.653025,7.964197 16.816107,6.805224 16.142857,5.428571 C 15.820138,4.76653 15.485821,4.122828 15.119047,3.547619 C 14.512858,2.730407 13.959242,1.675544 12.976191,1.404762 C 12.918055,1.394123 12.862075,1.380526 12.803429,1.380526 C 12.797552,1.380526 12.791649,1.380663 12.785714,1.380952 C 12.329571,1.403219 12.113357,1.767427 11.976191,2.238095 C 11.926349,2.409123 11.924397,2.599739 11.976191,2.785714 C 12.421862,3.678071 12.829001,4.709378 13.357142,5.5 C 13.796667,6.368712 14.445515,6.96495 15,7.761905 C 12.964086,7.771426 11.19568,8.088554 9.285714,8.261905 C 9.274086,7.708384 9.238095,6.678067 9.238095,6.333333 C 9.700487,6.333333 10.260927,6.473907 10.880953,6.761905 C 10.885416,6.762748 10.889637,6.763178 10.893623,6.763178 C 10.936569,6.763178 10.952381,6.713373 10.952381,6.595238 L 11.619047,6.642857 L 11.690476,6.571429 L 11.690476,5.309524 L 11.619047,5.214286 L 10.952381,5.261905 C 10.952381,5.142734 10.933497,5.095238 10.880953,5.095238 C 10.260927,5.353443 9.762065,5.476191 9.404762,5.476191 C 10.361073,4.473166 10.833333,3.320815 10.833333,2 C 10.833333,0.669254 10.13578,0 8.738095,0 z"
     id="path5096"
     sodipodi:nodetypes="cscsccsccccccccssccssssscssssssssssssssscccsccsccscscsssscccccssccccccccsc" />
</svg>
