<?xml version="1.0" encoding="UTF-8" standalone="no"?>
<svg
   xmlns:dc="http://purl.org/dc/elements/1.1/"
   xmlns:cc="http://creativecommons.org/ns#"
   xmlns:rdf="http://www.w3.org/1999/02/22-rdf-syntax-ns#"
   xmlns:svg="http://www.w3.org/2000/svg"
   xmlns="http://www.w3.org/2000/svg"
   xmlns:sodipodi="http://sodipodi.sourceforge.net/DTD/sodipodi-0.dtd"
   xmlns:inkscape="http://www.inkscape.org/namespaces/inkscape"
   width="19.535599"
   height="7.34375"
   id="svg4743"
   sodipodi:version="0.32"
   inkscape:version="0.46"
   sodipodi:docname="D211.svg"
   inkscape:output_extension="org.inkscape.output.svg.inkscape">
  <metadata
     id="metadata4750">
    <rdf:RDF>
      <cc:Work
         rdf:about="">
        <dc:format>image/svg+xml</dc:format>
        <dc:type
           rdf:resource="http://purl.org/dc/dcmitype/StillImage" />
      </cc:Work>
    </rdf:RDF>
  </metadata>
  <defs
     id="defs4748">
    <inkscape:perspective
       sodipodi:type="inkscape:persp3d"
       inkscape:vp_x="0 : 3.671875 : 1"
       inkscape:vp_y="0 : 1000 : 0"
       inkscape:vp_z="19.535599 : 3.671875 : 1"
       inkscape:persp3d-origin="9.7677994 : 2.4479167 : 1"
       id="perspective4752" />
  </defs>
  <sodipodi:namedview
     inkscape:window-height="708"
     inkscape:window-width="1024"
     inkscape:pageshadow="2"
     inkscape:pageopacity="0.0"
     guidetolerance="10.0"
     gridtolerance="10.0"
     objecttolerance="10.0"
     borderopacity="1.0"
     bordercolor="#666666"
     pagecolor="#ffffff"
     id="base"
     showgrid="false"
     inkscape:zoom="27.8466"
     inkscape:cx="9.7677994"
     inkscape:cy="3.671875"
     inkscape:window-x="-4"
     inkscape:window-y="-4"
     inkscape:current-layer="svg4743" />
  <path
     style="fill:#000000; stroke:none"
     d="M 1.5625,0 C 1.222456,0 0.930358,0.072253 0.71875,0.21875 C 0.27315302,0.532319 0.049512,1.182538 0,2.15625 C -0.04951,3.129963 0.201867,4.173751 0.8125,5.3125 C 0.97387502,5.613442 1.163934,5.864847 1.34375,6.09375 C 1.058654,6.146531 0.90625,6.345602 0.90625,6.71875 C 0.95719202,7.113547 2.337125,7.331015 5.0625,7.34375 L 6.40625,7.1875 L 16.25,7.25 L 19.21875,7.3125 L 19.1875,7.28125 L 19.53125,7.28125 L 19.53125,1.5 C 19.53125,0.72631532 19.133549,0.34375 18.3125,0.34375 C 17.491443,0.34375001 17.062831,0.57335537 17.03125,1.03125 C 16.714277,3.7543416 16.498928,4.9816185 16.1875,5.1875 C 15.571521,5.1551245 14.90802,5.125 14.21875,5.125 C 12.960729,5.125 11.715225,5.164288 11.03125,5.28125 C 9.9085002,5.473245 8.721979,5.708481 7.4375,6 L 7.40625,6 C 7.0262142,5.600858 6.70111,5.304298 6.375,5.125 C 6.4138222,4.997483 6.442807,4.88791 6.46875,4.75 C 6.6255342,3.916567 6.29393,3.026204 5.46875,2.09375 C 4.6435702,1.161297 3.769709,0.524067 2.8125,0.21875 C 2.327339,0.064001 1.91199,0 1.5625,0 z M 1.65625,0.84375 C 1.903345,0.84375 2.220662,0.927721 2.625,1.0625 C 3.318152,1.293551 4.038588,1.76559 4.78125,2.5 C 5.5239132,3.23441 5.836033,3.935362 5.6875,4.5625 C 5.6582642,4.685941 5.602606,4.794958 5.5625,4.90625 C 5.3892662,4.892811 5.194907,4.886465 5,4.875 C 3.9302272,5.078765 3.291737,5.15625 3.0625,5.15625 C 2.909675,5.15625 2.84375,5.264984 2.84375,5.46875 C 2.84375,5.761665 3.054261,5.90625 3.5,5.90625 C 4.172577,5.78756 4.674358,5.732757 5.0625,5.71875 C 4.9810012,5.803917 4.907854,5.899068 4.8125,5.96875 C 4.4580312,6.227785 4.03213,6.34375 3.53125,6.34375 C 3.460952,6.34375 3.390919,6.34375 3.3125,6.34375 C 3.27329,6.3437499 3.224813,6.347577 3.1875,6.34375 C 2.543859,6.277735 1.993351,5.761458 1.53125,4.8125 C 1.06915,3.863544 0.873243,3.023912 0.90625,2.28125 C 0.93925702,1.538587 1.051956,1.100779 1.25,0.96875 C 1.346271,0.899985 1.479753,0.84375 1.65625,0.84375 z M 18.28125,0.96875 C 18.612826,0.96874998 18.781249,1.1526313 18.78125,1.5 L 18.78125,5.5 L 17.25,5.5 L 17.75,1.3125 C 17.765791,1.0914473 17.949672,0.9687499 18.28125,0.96875 z"
     id="path4745"
     sodipodi:nodetypes="cssscccccccccsccsscccsssccsssccssccsssssssccccccc" />
</svg>
