<?xml version="1.0" encoding="UTF-8" standalone="no"?>
<svg
   xmlns:dc="http://purl.org/dc/elements/1.1/"
   xmlns:cc="http://creativecommons.org/ns#"
   xmlns:rdf="http://www.w3.org/1999/02/22-rdf-syntax-ns#"
   xmlns:svg="http://www.w3.org/2000/svg"
   xmlns="http://www.w3.org/2000/svg"
   xmlns:sodipodi="http://sodipodi.sourceforge.net/DTD/sodipodi-0.dtd"
   xmlns:inkscape="http://www.inkscape.org/namespaces/inkscape"
   width="17.507582"
   height="17.977583"
   id="svg5008"
   sodipodi:version="0.32"
   inkscape:version="0.46"
   sodipodi:docname="D213.svg"
   inkscape:output_extension="org.inkscape.output.svg.inkscape">
  <metadata
     id="metadata5015">
    <rdf:RDF>
      <cc:Work
         rdf:about="">
        <dc:format>image/svg+xml</dc:format>
        <dc:type
           rdf:resource="http://purl.org/dc/dcmitype/StillImage" />
      </cc:Work>
    </rdf:RDF>
  </metadata>
  <defs
     id="defs5013">
    <inkscape:perspective
       sodipodi:type="inkscape:persp3d"
       inkscape:vp_x="0 : 8.9887915 : 1"
       inkscape:vp_y="0 : 1000 : 0"
       inkscape:vp_z="17.507582 : 8.9887915 : 1"
       inkscape:persp3d-origin="8.7537909 : 5.9925276 : 1"
       id="perspective5017" />
  </defs>
  <sodipodi:namedview
     inkscape:window-height="708"
     inkscape:window-width="1024"
     inkscape:pageshadow="2"
     inkscape:pageopacity="0.0"
     guidetolerance="10.0"
     gridtolerance="10.0"
     objecttolerance="10.0"
     borderopacity="1.0"
     bordercolor="#666666"
     pagecolor="#ffffff"
     id="base"
     showgrid="false"
     inkscape:zoom="25.698672"
     inkscape:cx="8.7537909"
     inkscape:cy="8.9887915"
     inkscape:window-x="-4"
     inkscape:window-y="-4"
     inkscape:current-layer="svg5008" />
  <path
     style="fill:#000000; stroke:none"
     d="M 11.5,0 C 8.9439493,0.384833 6.652071,0.581335 4.65625,0.59375 L 4.65625,3.90625 C 7.7141729,3.931078 9.529377,4.565109 10.03125,5.84375 L 10.03125,8.75 C 9.870907,8.7660761 9.655754,8.791209 9.53125,8.8125 C 8.4758592,8.992975 7.332416,9.225971 6.125,9.5 C 5.7723452,9.1296153 5.459458,8.856534 5.15625,8.6875 C 5.1964272,8.5352243 5.21875,8.400519 5.21875,8.25 C 5.2111929,7.8206883 5.101731,7.445341 4.875,7.09375 C 4.6482678,6.7421578 4.404636,6.467941 4.125,6.3125 L 4.125,5.5 L 1.15625,5.5 L 1.15625,6.3125 C 0.884173,6.4679412 0.601731,6.745858 0.375,7.09375 C 0.14826899,7.4416408 0.038808,7.79684 0.03125,8.21875 C 0.03125,8.6556844 0.205658,9.116947 0.53125,9.5625 C 0.19055897,9.5732641 0,9.759999 0,10.15625 C 0.047886,10.527362 1.344386,10.738028 3.90625,10.75 L 5.15625,10.59375 L 10.03125,10.65625 L 10.03125,16.375 C 10.03125,16.983286 9.940885,17.509434 9.8125,17.96875 L 11.5,17.96875 C 11.371614,17.509434 11.3125,16.995701 11.3125,16.375 L 11.3125,10.65625 L 17.53125,10.71875 L 17.53125,5.125 C 17.53125,4.3773531 17.133549,4 16.3125,4 C 15.491443,3.9999998 15.062831,4.2450154 15.03125,4.6875 C 14.696909,7.4631376 14.465057,8.5902609 14.125,8.6875 C 13.604657,8.6657009 13.064699,8.65625 12.5,8.65625 C 12.081981,8.6562503 11.704785,8.676677 11.3125,8.6875 L 11.3125,0.875 C 11.3125,0.53982198 11.371614,0.260694 11.5,0 z M 10.03125,1.0625 L 10.03125,4.40625 C 9.5643909,3.698652 8.040237,3.34375 5.4375,3.34375 L 5.4375,1.15625 C 6.8264049,1.143837 8.350559,1.099742 10.03125,1.0625 z M 16.0625,4.625 C 16.126614,4.6105465 16.198356,4.625 16.28125,4.625 C 16.612826,4.6250002 16.781249,4.7893218 16.78125,5.125 L 16.78125,9 L 15.25,9 L 15.75,4.9375 C 15.761843,4.7772902 15.870159,4.6683604 16.0625,4.625 z M 1.6875,5.84375 L 3.59375,5.84375 L 3.59375,6.1875 L 1.6875,6.1875 L 1.6875,5.84375 z M 2.625,6.5625 C 3.426117,6.5625001 3.975163,6.756546 4.28125,7.15625 C 4.5873368,7.5559551 4.75,7.900467 4.75,8.21875 C 4.7485701,8.3125744 4.703537,8.41068 4.6875,8.5 C 4.5996438,8.4796608 4.521349,8.46875 4.4375,8.46875 C 4.2579279,8.4567779 4.047264,8.449472 3.84375,8.4375 C 2.8381579,8.6290399 2.246734,8.6875 2.03125,8.6875 C 1.8875939,8.6875003 1.8125,8.80846 1.8125,9 C 1.8125001,9.2753415 2.018504,9.40625 2.4375,9.40625 C 3.1461779,9.2811895 3.68966,9.21875 4.0625,9.21875 C 4.0994579,9.2187499 4.147598,9.21875 4.1875,9.21875 C 4.2074521,9.2187501 4.202737,9.217718 4.21875,9.21875 C 4.278325,9.2187499 4.323325,9.236168 4.375,9.25 C 4.296589,9.3503889 4.228918,9.438726 4.125,9.53125 C 3.9518032,9.6854572 3.763252,9.816296 3.5625,9.90625 C 3.5195571,9.9094463 3.481971,9.90625 3.4375,9.90625 C 3.3485569,9.9062503 3.254978,9.90625 3.15625,9.90625 C 3.1138889,9.9062503 3.069352,9.90625 3.03125,9.90625 C 3.0121991,9.9062502 2.99111,9.906834 2.96875,9.90625 C 2.4141611,9.8917513 1.910499,9.833659 1.4375,9.75 C 1.335434,9.6854136 1.24988,9.614613 1.15625,9.53125 C 0.740577,9.1611542 0.5,8.738528 0.5,8.25 C 0.49999999,7.9243153 0.625596,7.555955 0.875,7.15625 C 1.124404,6.7565461 1.710519,6.5625 2.625,6.5625 z"
     id="path5010"
     sodipodi:nodetypes="cccccsccssccccssccccccccccccsccscccccccccscccccccccccsssscsscsssssssssscsssc" />
</svg>
