<?xml version="1.0" encoding="UTF-8" standalone="no"?>
<svg
   xmlns:dc="http://purl.org/dc/elements/1.1/"
   xmlns:cc="http://creativecommons.org/ns#"
   xmlns:rdf="http://www.w3.org/1999/02/22-rdf-syntax-ns#"
   xmlns:svg="http://www.w3.org/2000/svg"
   xmlns="http://www.w3.org/2000/svg"
   xmlns:sodipodi="http://sodipodi.sourceforge.net/DTD/sodipodi-0.dtd"
   xmlns:inkscape="http://www.inkscape.org/namespaces/inkscape"
   width="18.625"
   height="8.3219318"
   id="svg2434"
   sodipodi:version="0.32"
   inkscape:version="0.46"
   sodipodi:docname="D215vara.svg"
   inkscape:output_extension="org.inkscape.output.svg.inkscape"
   version="1.0">
  <metadata
     id="metadata2441">
    <rdf:RDF>
      <cc:Work
         rdf:about="">
        <dc:format>image/svg+xml</dc:format>
        <dc:type
           rdf:resource="http://purl.org/dc/dcmitype/StillImage" />
      </cc:Work>
    </rdf:RDF>
  </metadata>
  <defs
     id="defs2439">
    <inkscape:perspective
       sodipodi:type="inkscape:persp3d"
       inkscape:vp_x="0 : 2.76 : 1"
       inkscape:vp_y="0 : 1000 : 0"
       inkscape:vp_z="18.627857 : 2.76 : 1"
       inkscape:persp3d-origin="9.3139286 : 1.84 : 1"
       id="perspective2443" />
  </defs>
  <sodipodi:namedview
     inkscape:window-height="708"
     inkscape:window-width="1024"
     inkscape:pageshadow="2"
     inkscape:pageopacity="0.0"
     guidetolerance="10.0"
     gridtolerance="10.0"
     objecttolerance="10.0"
     borderopacity="1.0"
     bordercolor="#666666"
     pagecolor="#ffffff"
     id="base"
     showgrid="false"
     inkscape:zoom="49.825503"
     inkscape:cx="16.819086"
     inkscape:cy="4.1609658"
     inkscape:window-x="0"
     inkscape:window-y="26"
     inkscape:current-layer="svg2434" />
  <path
     style="fill:#000000;stroke:none"
     d="M 1.90625,0 C 1.721391,0.0333578 1.4876363,0.145711 1.21875,0.3125 C 0.94986388,0.47928861 0.67933715,0.76012606 0.40625,1.15625 C 0.13316248,1.5523739 1.3063478e-10,2.0350073 0,2.59375 C 0,3.677878 0.29705516,4.4787844 0.90625,5 C 1.5154449,5.5212153 2.3577543,5.7812501 3.4375,5.78125 C 4.5172456,5.7812498 5.3595553,5.5212154 5.96875,5 C 6.577945,4.4787843 6.8749998,3.677878 6.875,2.59375 C 6.875,2.0350073 6.7418375,1.5523739 6.46875,1.15625 C 6.1956628,0.76012608 5.9251361,0.4792886 5.65625,0.3125 C 5.3873643,0.14571101 5.1806583,0.0333579 5,0 C 4.8193424,-0.0333578 4.620519,0.024926503 4.40625,0.125 C 4.1919816,0.2250734 3.9949983,0.3748168 3.84375,0.625 C 3.6925014,0.87518328 3.6249999,1.3536471 3.625,2.0625 C 3.7762487,2.0541605 3.8786814,1.9668256 3.9375,1.75 C 3.9375,1.1578992 4.0543772,0.84375 4.28125,0.84375 C 4.5333306,1.1689885 4.6562502,1.530975 4.65625,1.90625 C 4.65625,2.3065436 4.5188861,2.6393876 4.25,2.90625 C 3.5927575,3.3872318 3.3044514,3.3933665 2.625,2.90625 C 2.3561138,2.6393876 2.2187501,2.3065436 2.21875,1.90625 C 2.21875,1.530975 2.3416694,1.1689885 2.59375,0.84375 C 2.8290254,0.84374998 2.9375,1.1578993 2.9375,1.75 C 2.9879159,1.9668256 3.1215989,2.0541605 3.28125,2.0625 C 3.28125,1.3536471 3.1866997,0.8751834 3.03125,0.625 C 2.8758003,0.37481668 2.7100674,0.2250733 2.5,0.125 C 2.289933,0.0249266 2.091109,-0.0333577 1.90625,0 z M 1.8125,0.34375 C 1.9889566,0.36876821 2.1347232,0.4519792 2.21875,0.59375 C 2.2271528,0.71884168 2.1777768,0.837427 2.09375,0.9375 C 1.959307,1.0709312 1.815901,1.1000729 1.65625,1 C 1.5218069,0.93328438 1.4375,0.8063604 1.4375,0.65625 C 1.5047215,0.44776408 1.6360438,0.3437501 1.8125,0.34375 z M 5.0625,0.34375 C 5.247359,0.34375001 5.3786814,0.4477642 5.4375,0.65625 C 5.4459028,0.80636028 5.353193,0.93328426 5.21875,1 C 5.0506961,1.100073 4.9072901,1.0709312 4.78125,0.9375 C 4.6888205,0.83742698 4.6706948,0.7188417 4.6875,0.59375 C 4.7715271,0.45197918 4.8944462,0.3687683 5.0625,0.34375 z M 1.15625,1.09375 C 1.6183975,1.1854843 1.8437501,1.4330095 1.84375,1.875 C 1.9533867,2.964527 2.244275,3.7348181 3.4375,3.75 C 4.5396024,3.7048163 5.0009748,3.0305353 5.03125,1.875 C 5.0429802,1.4331652 5.2650049,1.1854843 5.71875,1.09375 C 5.8447907,1.0854109 5.9472236,1.1394797 6.03125,1.28125 C 6.3169415,1.7065619 6.4687502,2.1579907 6.46875,2.625 C 6.46875,3.3755499 6.2019041,3.9850621 5.71875,4.46875 C 5.2355951,4.9524378 4.4794329,5.2187501 3.4375,5.21875 C 2.3955666,5.2187498 1.6436059,4.952438 1.15625,4.46875 C 0.66889403,3.9850619 0.40624999,3.3755499 0.40625,2.625 C 0.40625,2.1579907 0.58090586,1.7065619 0.875,1.28125 C 0.95902711,1.1394797 1.0386124,1.0854109 1.15625,1.09375 z M 17.40625,1.34375 C 16.585192,1.34375 16.156581,1.5733554 16.125,2.03125 C 15.821053,4.6424337 15.603981,5.8775779 15.3125,6.15625 C 14.689356,6.1226041 14.012702,6.09375 13.3125,6.09375 C 12.054479,6.0937498 10.808975,6.133038 10.125,6.25 C 9.0022493,6.4419949 7.815729,6.677231 6.53125,6.96875 C 6.5263938,6.9687496 6.504845,6.96875 6.5,6.96875 C 5.8178849,6.2523406 5.23747,5.875 4.71875,5.875 C 4.5277178,5.8622637 4.310253,5.856485 4.09375,5.84375 C 3.0239771,6.0475147 2.385487,6.125 2.15625,6.125 C 2.003425,6.1249998 1.9375,6.233734 1.9375,6.4375 C 1.9375,6.7304148 2.148011,6.875 2.59375,6.875 C 3.347659,6.7419569 3.915864,6.6875 4.3125,6.6875 C 4.3714761,6.6874998 4.448897,6.684204 4.5,6.6875 C 4.7292369,6.6874999 4.903894,6.790454 5.03125,6.96875 C 4.7833949,7.2756156 4.198997,7.40625 3.34375,7.40625 C 3.2761529,7.40625 3.227613,7.408116 3.15625,7.40625 C 2.1819909,7.380779 1.345139,7.260487 0.59375,7.03125 C 0.21168802,7.0312498 0,7.254495 0,7.6875 C 0.050942,8.0822967 1.430875,8.299765 4.15625,8.3125 L 5.5,8.15625 L 18.625,8.28125 L 18.625,2.5 C 18.624999,1.7263153 18.227299,1.34375 17.40625,1.34375 z M 17.375,1.96875 C 17.706575,1.96875 17.874999,2.1526313 17.875,2.5 L 17.875,6.5 L 16.34375,6.5 L 16.84375,2.3125 C 16.85954,2.0914472 17.043422,1.96875 17.375,1.96875 z"
     id="path2436"
     sodipodi:nodetypes="csssssssssssscccsccscccssccssscccssssccccsssssssssccccssssscsscsscssccccccccccccc" />
</svg>
