<?xml version="1.0" encoding="UTF-8" standalone="no"?>
<svg
   xmlns:dc="http://purl.org/dc/elements/1.1/"
   xmlns:cc="http://creativecommons.org/ns#"
   xmlns:rdf="http://www.w3.org/1999/02/22-rdf-syntax-ns#"
   xmlns:svg="http://www.w3.org/2000/svg"
   xmlns="http://www.w3.org/2000/svg"
   xmlns:sodipodi="http://sodipodi.sourceforge.net/DTD/sodipodi-0.dtd"
   xmlns:inkscape="http://www.inkscape.org/namespaces/inkscape"
   width="18.987499"
   height="21.681376"
   id="svg5860"
   sodipodi:version="0.32"
   inkscape:version="0.46"
   sodipodi:docname="D223.svg"
   inkscape:output_extension="org.inkscape.output.svg.inkscape"
   version="1.0">
  <metadata
     id="metadata5867">
    <rdf:RDF>
      <cc:Work
         rdf:about="">
        <dc:format>image/svg+xml</dc:format>
        <dc:type
           rdf:resource="http://purl.org/dc/dcmitype/StillImage" />
      </cc:Work>
    </rdf:RDF>
  </metadata>
  <defs
     id="defs5865">
    <inkscape:perspective
       sodipodi:type="inkscape:persp3d"
       inkscape:vp_x="0 : 4.4400001 : 1"
       inkscape:vp_y="0 : 1000 : 0"
       inkscape:vp_z="18.081667 : 4.4400001 : 1"
       inkscape:persp3d-origin="9.0408335 : 2.96 : 1"
       id="perspective5869" />
  </defs>
  <sodipodi:namedview
     inkscape:window-height="708"
     inkscape:window-width="1024"
     inkscape:pageshadow="2"
     inkscape:pageopacity="0.0"
     guidetolerance="10.0"
     gridtolerance="10.0"
     objecttolerance="10.0"
     borderopacity="1.0"
     bordercolor="#666666"
     pagecolor="#ffffff"
     id="base"
     showgrid="false"
     inkscape:zoom="19.821002"
     inkscape:cx="17.935094"
     inkscape:cy="13.638844"
     inkscape:window-x="0"
     inkscape:window-y="26"
     inkscape:current-layer="svg5860" />
  <path
     style="fill:#000000;stroke:none"
     d="M 6.89375,0.0059047075 C 6.6484553,0.015465207 6.3817813,0.038692007 6.14375,0.068404707 C 5.664171,0.18958711 5.977619,0.77147811 6.425,0.69340471 C 7.2682268,0.79045131 8.288001,0.84047341 8.925,1.3184047 C 9.770026,2.2394515 9.420367,4.1597652 9.51875,5.0684047 C 9.5232337,5.0995089 9.5172873,8.2474952 9.51875,10.849655 C 8.4294087,10.942162 7.361389,11.028606 6.26875,11.099655 C 5.8283648,11.099655 5.198352,10.953156 4.96875,10.880905 C 4.7391486,10.808655 4.4053712,10.620301 3.96875,10.255905 C 3.727233,10.054339 3.3312328,9.9355829 2.84375,9.8809047 L 2.84375,2.9871547 L 4.96875,0.5184047 L 2.46875,0.5184047 L 0,0.5184047 L 2.125,2.9871547 L 2.125,9.8496547 L 0.375,9.8809047 C 0.12299701,9.8235334 0.2330686,10.093699 0.1875,10.162155 C 0.24772309,10.378907 0.4835469,10.567425 0.875,10.755905 C 0.87499999,11.503543 0.93566333,12.029564 1.09375,12.287155 C 1.2819475,12.563591 1.8217852,12.662155 2.6875,12.662155 C 3.1548306,12.670881 3.5125688,12.62376 4,12.599655 L 6.3625,12.474655 L 9.51875,12.505905 C 9.5189525,13.121668 9.51875,13.827869 9.51875,14.162155 C 8.3392235,13.597017 6.030802,13.439815 4.76875,13.693405 C 4.2730021,13.95382 4.974857,14.310037 5.3,14.224655 C 6.5321669,14.357824 8.830419,14.672193 9.45625,15.818405 C 9.661031,16.505584 8.762945,15.698591 8.39375,15.755905 C 7.502348,15.563371 5.653911,15.540502 4.76875,15.693405 C 4.2995882,16.003126 4.975962,16.290489 5.3,16.224655 C 6.5576659,16.376326 8.846661,16.701516 9.45625,17.849655 C 9.463207,19.126035 9.484611,19.957069 9.51875,21.130905 C 9.4894675,21.850882 10.422377,21.868024 10.425,21.162155 C 10.416301,20.005571 10.335846,18.971512 10.4875,17.849655 C 10.793406,16.591076 13.881251,16.41055 15.2375,16.099655 C 15.577627,15.699789 14.757543,15.588849 14.425,15.630905 C 13.371645,15.550131 11.370997,15.706321 10.425,16.193405 C 10.392826,15.434796 11.139889,14.998301 11.675,14.693405 C 12.519546,14.330174 14.35558,14.294509 15.2375,14.099655 C 15.59386,13.790254 14.905177,13.527325 14.58125,13.599655 C 13.463343,13.492085 11.433908,13.666019 10.425,14.162155 C 10.427246,13.776184 10.422062,13.032906 10.425,12.537155 L 18.9875,12.630905 L 18.9875,7.0996547 C 18.987502,6.3593314 18.502537,5.9746547 17.51875,5.9746547 C 16.534956,5.9746547 16.337843,6.1927545 16.3,6.6309047 C 15.883783,9.4864356 15.61014,10.647047 15.175,10.662155 C 14.364274,10.609181 13.236256,10.643856 12.425,10.662155 C 11.762387,10.671277 11.114958,10.709021 10.45625,10.755905 C 10.471206,7.6885071 10.452758,4.1696382 10.39375,2.2246547 C 10.327722,1.3866109 9.862244,0.60026941 9.05,0.34965471 C 8.3846099,0.046961107 7.6296342,-0.022776893 6.89375,0.0059047075 z M 1.15625,1.0184047 L 2.46875,1.0184047 L 3.8125,1.0184047 L 2.46875,2.4246547 L 1.15625,1.0184047 z M 17.4875,6.5684047 C 17.884798,6.5684047 18.081249,6.7672645 18.08125,7.0996547 L 18.08125,10.912155 L 16.55,10.912155 L 17.14375,6.9121547 C 17.162673,6.7006338 17.0902,6.5684047 17.4875,6.5684047 z"
     id="path5862"
     sodipodi:nodetypes="ccccsccssccccccccccssccccccccccccscccccccccccsccsccccccccccccccc" />
</svg>
