<?xml version="1.0" encoding="UTF-8" standalone="no"?>
<svg
   xmlns:dc="http://purl.org/dc/elements/1.1/"
   xmlns:cc="http://creativecommons.org/ns#"
   xmlns:rdf="http://www.w3.org/1999/02/22-rdf-syntax-ns#"
   xmlns:svg="http://www.w3.org/2000/svg"
   xmlns="http://www.w3.org/2000/svg"
   xmlns:sodipodi="http://sodipodi.sourceforge.net/DTD/sodipodi-0.dtd"
   xmlns:inkscape="http://www.inkscape.org/namespaces/inkscape"
   width="19.546053"
   height="12.911673"
   id="svg5970"
   sodipodi:version="0.32"
   inkscape:version="0.46"
   sodipodi:docname="D229vara.svg"
   inkscape:output_extension="org.inkscape.output.svg.inkscape">
  <metadata
     id="metadata5977">
    <rdf:RDF>
      <cc:Work
         rdf:about="">
        <dc:format>image/svg+xml</dc:format>
        <dc:type
           rdf:resource="http://purl.org/dc/dcmitype/StillImage" />
      </cc:Work>
    </rdf:RDF>
  </metadata>
  <defs
     id="defs5975">
    <inkscape:perspective
       sodipodi:type="inkscape:persp3d"
       inkscape:vp_x="0 : 6.4558363 : 1"
       inkscape:vp_y="0 : 1000 : 0"
       inkscape:vp_z="19.546053 : 6.4558363 : 1"
       inkscape:persp3d-origin="9.7730265 : 4.3038909 : 1"
       id="perspective5979" />
  </defs>
  <sodipodi:namedview
     inkscape:window-height="708"
     inkscape:window-width="1024"
     inkscape:pageshadow="2"
     inkscape:pageopacity="0.0"
     guidetolerance="10.0"
     gridtolerance="10.0"
     objecttolerance="10.0"
     borderopacity="1.0"
     bordercolor="#666666"
     pagecolor="#ffffff"
     id="base"
     showgrid="false"
     inkscape:zoom="27.831706"
     inkscape:cx="9.7730265"
     inkscape:cy="6.4558363"
     inkscape:window-x="-4"
     inkscape:window-y="-4"
     inkscape:current-layer="svg5970" />
  <path
     style="fill:#000000; stroke:none"
     d="M 1.78125,0 C 1.60259,0.01636 1.384332,0.053854 1.125,0.15625 C 0.16278102,0.57194401 -0.155382,1.029448 0.03125,2.21875 C 0.089812,2.4700279 1.259448,5.462514 2.46875,8.375 L 1.59375,8.375 C 1.580328,8.3749997 1.54654,8.375 1.53125,8.375 C 1.399381,8.3750004 1.355925,8.470474 1.40625,8.6875 C 1.465327,8.9422694 1.6785,9.184711 2.0625,9.40625 C 2.0625001,10.285018 2.126172,10.88473 2.28125,11.1875 C 2.4658641,11.512423 2.994518,11.65625 3.84375,11.65625 L 3.90625,11.65625 C 4.0927471,12.064837 4.314263,12.59751 4.46875,12.90625 L 5.21875,12.5625 L 4.84375,11.59375 L 7.15625,11.4375 L 19.5625,11.59375 L 19.5625,5.8125 C 19.5625,5.0388153 19.164799,4.65625 18.34375,4.65625 C 17.522693,4.6562499 17.094081,4.8858554 17.0625,5.34375 C 16.787148,7.7092822 16.595601,8.9560803 16.34375,9.375 C 15.275259,9.2540304 14.198296,9.2812499 13.125,9.28125 C 11.093454,9.3147604 9.085561,9.654876 7.0625,9.8125 C 6.6305,9.8125004 6.318982,9.647423 6.09375,9.5625 C 5.868521,9.4775774 5.522058,9.240808 5.09375,8.8125 C 4.789268,8.5080174 4.299426,8.327676 3.59375,8.3125 L 3.53125,8.125 C 3.8037151,7.4145554 4.324032,6.814353 5.125,6.34375 C 4.785351,5.7398589 4.347969,5.017649 3.78125,4.1875 C 3.1851571,3.3175719 2.79241,2.741355 2.65625,2.46875 C 2.5200891,2.1961449 2.492416,2.08544 2.46875,2 C 3.0247161,1.7810309 3.029466,1.136941 2.75,0.625 C 2.5559831,0.26958899 2.360862,0 1.90625,0 C 1.869738,0 1.821098,-0.003649 1.78125,0 z M 1.65625,0.46875 C 1.683602,0.46604199 1.724389,0.46875 1.75,0.46875 C 2.0149761,0.46875 2.173766,0.605963 2.28125,0.8125 C 2.5762561,1.373 2.397017,1.41325 1.90625,1.8125 C 1.977249,2.0688221 2.079006,2.345221 2.21875,2.625 C 2.4194071,3.0267339 2.757068,3.604241 3.25,4.34375 C 3.7952201,5.1308559 4.162177,5.705719 4.375,6.09375 C 3.700773,6.5897439 3.281425,7.041322 2.96875,7.5 C 1.8807941,5.0934659 1.212031,3.557842 0.9375,2.875 C 0.66296801,2.1921569 0.515007,1.717774 0.59375,1.375 C 0.68715101,0.96841905 1.039094,0.690661 1.3125,0.5625 C 1.440482,0.50766999 1.552806,0.47899 1.65625,0.46875 z M 18.3125,5.28125 C 18.644076,5.2812499 18.812499,5.4651313 18.8125,5.8125 L 18.8125,9.8125 L 17.28125,9.8125 L 17.78125,5.625 C 17.797041,5.4039472 17.980922,5.28125 18.3125,5.28125 z"
     id="path5972"
     sodipodi:nodetypes="cscccsscsccccccccsccccsscccsscssccsscscccsssccccccc" />
</svg>
