<?xml version="1.0" encoding="UTF-8" standalone="no"?>
<svg
   xmlns:dc="http://purl.org/dc/elements/1.1/"
   xmlns:cc="http://creativecommons.org/ns#"
   xmlns:rdf="http://www.w3.org/1999/02/22-rdf-syntax-ns#"
   xmlns:svg="http://www.w3.org/2000/svg"
   xmlns="http://www.w3.org/2000/svg"
   xmlns:sodipodi="http://sodipodi.sourceforge.net/DTD/sodipodi-0.dtd"
   xmlns:inkscape="http://www.inkscape.org/namespaces/inkscape"
   width="23.322735"
   height="14.469024"
   id="svg3145"
   sodipodi:version="0.32"
   inkscape:version="0.46"
   sodipodi:docname="D239.svg"
   inkscape:output_extension="org.inkscape.output.svg.inkscape"
   version="1.0">
  <metadata
     id="metadata3152">
    <rdf:RDF>
      <cc:Work
         rdf:about="">
        <dc:format>image/svg+xml</dc:format>
        <dc:type
           rdf:resource="http://purl.org/dc/dcmitype/StillImage" />
      </cc:Work>
    </rdf:RDF>
  </metadata>
  <defs
     id="defs3150">
    <inkscape:perspective
       sodipodi:type="inkscape:persp3d"
       inkscape:vp_x="0 : 5.4000001 : 1"
       inkscape:vp_y="0 : 1000 : 0"
       inkscape:vp_z="23.438807 : 5.4000001 : 1"
       inkscape:persp3d-origin="11.719403 : 3.6000001 : 1"
       id="perspective3154" />
  </defs>
  <sodipodi:namedview
     inkscape:window-height="708"
     inkscape:window-width="1024"
     inkscape:pageshadow="2"
     inkscape:pageopacity="0.0"
     guidetolerance="10.0"
     gridtolerance="10.0"
     objecttolerance="10.0"
     borderopacity="1.0"
     bordercolor="#666666"
     pagecolor="#ffffff"
     id="base"
     showgrid="false"
     inkscape:zoom="34.825097"
     inkscape:cx="11.671616"
     inkscape:cy="7.2474941"
     inkscape:window-x="0"
     inkscape:window-y="26"
     inkscape:current-layer="svg3145" />
  <path
     style="fill:#000000;stroke:none"
     d="M 2.65625,0 C 2.0884287,0.0088321 1.8895879,0.2247518 1.595,0.59375 C 1.3145372,0.9450272 1.1508078,1.4404746 1.095,2.03125 C 1.125944,4.3856247 1.5632378,6.7187383 1.8125,9.0625 L 1.03125,9.0625 L 0.03125,9.09375 C -0.015820201,9.34922 0.02109739,9.547895 0.09375,9.71875 C 0.1664038,9.889607 0.30635056,10.033358 0.5625,10.125 C 0.8186463,10.216642 0.93537151,10.297416 0.9375,10.4375 C 0.94678459,11.048772 1.0284985,11.618616 1.15625,12.0625 C 1.2840001,12.506383 1.5184232,12.724167 1.875,12.71875 C 1.8855233,12.718446 1.8957282,12.719042 1.90625,12.71875 C 1.8310664,13.171389 1.7168276,13.652367 1.5625,13.78125 C 1.3314627,14.181825 1.5580892,14.418172 1.7049986,14.443333 C 2.3430603,14.056856 2.3846437,13.402448 2.53125,12.6875 C 2.7788199,12.678505 3.0350879,12.687191 3.28125,12.65625 C 3.3683305,13.42792 3.6841652,14.123339 4,14.4375 C 4.2012453,14.432898 4.4605721,13.939739 4.25,13.71875 C 4.0717428,13.57906 3.9589212,13.010912 3.875,12.53125 C 3.8976536,12.525289 3.9148634,12.506394 3.9375,12.5 C 4.5759887,12.386691 5.3078503,12.240614 6.21875,12.03125 C 8.6435944,12.338338 10.823572,12.407829 12.75,12.1875 C 14.676427,11.96717 16.086597,11.531062 16.96875,10.90625 C 17.184468,10.852023 18.387153,9.711324 20.53125,7.46875 C 22.675345,5.226174 23.56648,3.5112934 23.28125,2.34375 C 23.240723,2.1915118 23.186092,2.0732297 23.09375,1.96875 C 22.816718,1.6553091 22.305893,1.5711215 21.5625,1.6875 C 19.093356,3.4955596 16.949435,5.963791 15.125,9.125 C 14.066074,9.013707 11.391529,9.4012227 7.125,10.28125 C 6.6034511,10.327386 5.9245366,10.035224 5.0625,9.46875 C 4.742467,9.258446 4.3311197,9.147818 3.875,9.0625 C 3.9592856,6.6835296 4.407683,4.3488816 4.36375,1.96875 C 4.2895958,1.379996 4.1237521,0.9048849 3.8325,0.5625 C 3.5265788,0.2028423 3.3264303,-0.0089659 2.75,0 C 2.7370526,0.00020150001 2.7005882,-0.0004116 2.6875,0 C 2.6746074,-7.6999907e-06 2.6690045,-0.0001984 2.65625,0 z M 2.62625,0.625 C 2.7094114,0.6083482 2.5885427,0.6265392 2.6875,0.625 C 2.6976798,0.6248419 2.7083926,0.6249931 2.71875,0.625 C 2.7293321,0.6246674 2.7396002,0.6251618 2.75,0.625 C 3.154356,0.6187106 3.174331,0.714954 3.36375,0.9375 C 3.5795804,1.1911201 3.7104826,1.5893025 3.77,2.0625 C 3.778362,4.3887823 3.4414274,6.7060972 3.28125,9.03125 L 2.40625,9.03125 C 2.2545478,6.7016455 1.7264096,4.4270699 1.68875,2.09375 C 1.7335219,1.6189302 1.8559117,1.2289598 2.06375,0.96875 C 2.2005546,0.7975028 2.3767659,0.6749555 2.62625,0.625 z"
     id="path3147"
     sodipodi:nodetypes="csccccsssssscccccscscscssscccsccsssccssssccccsc" />
</svg>
