<?xml version="1.0" encoding ="US-ASCII" standalone="yes"?>
<svg width="18.586515" height="3.6">
<path style="fill:#000000; stroke:none" d=" M 18.586515 3.337079  Q 16.48317 2.123598 15.593274 2.103373  Q 15.209007 2.164048 15.107882 3.6  L 3.195507 3.6  Q 3.215732 2.123598 2.851685 2.123598  Q 2.103373 2.123598 0 3.337079  L 0 3.013483  Q 2.528091 1.41573 4.469667 0.788764  Q 6.128094 0 9.283145 0  Q 12.458433 0 14.217981 0.788764  Q 16.078667 1.41573 18.586515 3.013483  L 18.586515 3.337079  Z  M 4.449441 1.617978  Q 3.964049 1.820225 3.964049 2.487641  Q 3.964049 2.91236 3.984274 3.114608  L 4.894385 3.114608  Q 4.955056 2.831461 4.955056 2.487641  Q 4.914607 1.698877 4.449441 1.617978  Z  M 9.26292 0.889888  Q 8.635965 0.970788 8.615738 2.123598  Q 8.635965 2.730338 8.737088 3.114608  L 9.78877 3.114608  Q 9.869667 2.730338 9.869667 2.123598  Q 9.869667 0.970788 9.26292 0.889888  Z  M 7.665178 1.092136  Q 7.078655 1.15281 7.038206 2.204496  Q 7.078655 2.770787 7.159552 3.114608  L 8.170795 3.114608  Q 8.251694 2.770787 8.251694 2.204496  Q 8.251694 1.15281 7.665178 1.092136  Z  M 5.986518 1.193259  Q 5.420228 1.253933 5.400001 2.244947  Q 5.420228 2.791013 5.521351 3.114608  L 6.451685 3.114608  Q 6.532587 2.791013 6.532587 2.244947  Q 6.532587 1.253933 5.986518 1.193259  Z  M 12.620228 1.173034  Q 12.053931 1.233708 12.033714 2.22472  Q 12.053931 2.770787 12.155056 3.094382  L 13.105625 3.094382  Q 13.166296 2.770787 13.166296 2.22472  Q 13.166296 1.233708 12.620228 1.173034  Z  M 10.921351 1.071911  Q 10.334831 1.132586 10.294387 2.204496  Q 10.334831 2.770787 10.415736 3.114608  L 11.426968 3.114608  Q 11.507865 2.770787 11.507865 2.204496  Q 11.507865 1.132586 10.921351 1.071911  Z  M 14.116858 1.617978  Q 13.631468 1.820225 13.631468 2.487641  Q 13.631468 2.91236 13.671911 3.114608  L 14.582028 3.114608  Q 14.622473 2.831461 14.622473 2.487641  Q 14.602255 1.698877 14.116858 1.617978  Z "/></svg>
