<?xml version="1.0" encoding="UTF-8" standalone="no"?>
<svg
   xmlns:dc="http://purl.org/dc/elements/1.1/"
   xmlns:cc="http://creativecommons.org/ns#"
   xmlns:rdf="http://www.w3.org/1999/02/22-rdf-syntax-ns#"
   xmlns:svg="http://www.w3.org/2000/svg"
   xmlns="http://www.w3.org/2000/svg"
   xmlns:sodipodi="http://sodipodi.sourceforge.net/DTD/sodipodi-0.dtd"
   xmlns:inkscape="http://www.inkscape.org/namespaces/inkscape"
   width="23.619089"
   height="15"
   id="svg3145"
   sodipodi:version="0.32"
   inkscape:version="0.46"
   sodipodi:docname="D240.svg"
   inkscape:output_extension="org.inkscape.output.svg.inkscape"
   version="1.0">
  <metadata
     id="metadata3152">
    <rdf:RDF>
      <cc:Work
         rdf:about="">
        <dc:format>image/svg+xml</dc:format>
        <dc:type
           rdf:resource="http://purl.org/dc/dcmitype/StillImage" />
      </cc:Work>
    </rdf:RDF>
  </metadata>
  <defs
     id="defs3150">
    <inkscape:perspective
       sodipodi:type="inkscape:persp3d"
       inkscape:vp_x="0 : 5.4000001 : 1"
       inkscape:vp_y="0 : 1000 : 0"
       inkscape:vp_z="23.438807 : 5.4000001 : 1"
       inkscape:persp3d-origin="11.719403 : 3.6000001 : 1"
       id="perspective3154" />
  </defs>
  <sodipodi:namedview
     inkscape:window-height="708"
     inkscape:window-width="1024"
     inkscape:pageshadow="2"
     inkscape:pageopacity="0.0"
     guidetolerance="10.0"
     gridtolerance="10.0"
     objecttolerance="10.0"
     borderopacity="1.0"
     bordercolor="#666666"
     pagecolor="#ffffff"
     id="base"
     showgrid="false"
     inkscape:zoom="27.951416"
     inkscape:cx="11.647152"
     inkscape:cy="8.3873662"
     inkscape:window-x="0"
     inkscape:window-y="26"
     inkscape:current-layer="svg3145" />
  <path
     style="fill:#000000;stroke:none"
     d="M 1.8862118,0 L 0.6987118,0.15625 L 0.7924618,0.84375 C 0.23585398,1.069329 -0.17366701,1.611818 0.073711803,3.21875 C 0.2301891,4.235201 0.94893442,5.121554 1.4799618,5.25 L 2.0737118,10.375 L 1.2299618,10.375 L 0.2299618,10.375 C 0.1798342,10.629888 0.1906115,10.828286 0.2612118,11 C 0.3318134,11.171714 0.50617866,11.311547 0.7612118,11.40625 C 1.0162418,11.500954 1.1357618,11.578652 1.1362118,11.71875 C 1.1381723,12.33009 1.2012874,12.898367 1.3237118,13.34375 C 1.4461346,13.789132 1.6545958,14.001145 2.0112118,14 C 2.1646018,13.997402 2.3269385,14.002278 2.4799618,14 L 2.6049618,15 L 4.0424618,14.8125 L 3.8862118,13.875 C 3.956575,13.860046 4.0347099,13.862689 4.1049618,13.84375 C 4.7447621,13.7381 5.4728692,13.573435 6.3862118,13.375 C 8.8072029,13.711117 10.988532,13.790984 12.917462,13.59375 C 14.84639,13.396516 16.246638,12.9892 17.136212,12.375 C 17.352565,12.323361 18.559151,11.216725 20.729962,9 C 22.900771,6.783273 23.844931,5.077127 23.573712,3.90625 C 23.535012,3.753537 23.477296,3.605579 23.386212,3.5 C 23.112955,3.183263 22.599696,3.111286 21.854962,3.21875 C 19.364335,4.997098 17.185891,7.454626 15.323712,10.59375 C 14.266196,10.469779 11.600478,10.796152 7.3237118,11.625 C 6.8016474,11.664884 6.0851497,11.389262 5.2299618,10.8125 C 4.8743975,10.572698 4.4420917,10.470049 3.9174618,10.375 L 3.3237118,10.375 L 2.5112118,5.15625 C 3.2664512,4.825761 3.431722,3.53702 3.3549618,2.78125 C 3.1884045,1.145121 2.5131859,0.737523 1.9799618,0.65625 L 1.8862118,0 z M 1.5112118,0.53125 L 1.6049618,1.1875 C 1.8259684,1.151451 1.9588062,1.120628 2.0737118,1.15625 C 2.6906123,1.305072 2.8675162,2.29494 2.9174618,2.84375 C 2.985895,3.601402 2.7678287,4.508424 2.2612118,4.71875 C 2.055259,4.814626 1.7664426,4.87944 1.5424618,4.8125 C 1.1576429,4.684398 0.6006446,3.837038 0.5112118,3.15625 C 0.36596608,2.050599 0.46224428,1.598509 0.8549618,1.34375 C 0.98232747,1.266567 1.1199091,1.241731 1.2612118,1.21875 L 1.1987118,0.5625 L 1.5112118,0.53125 z M 2.0112118,5.4375 L 2.8862118,10.375 L 2.5737118,10.375 L 2.0112118,5.4375 z M 3.4487118,13.9375 L 3.5112118,14.375 L 3.0112118,14.46875 L 2.9487118,14 C 3.1197994,13.992252 3.2781875,13.957673 3.4487118,13.9375 z"
     id="path3147" />
</svg>
