<?xml version="1.0" encoding="UTF-8" standalone="no"?>
<svg
   width="2035.8373"
   height="1351.271"
   version="1.1"
   id="svg2"
   sodipodi:docname="D251.svg"
   inkscape:version="1.4 (e7c3feb1, 2024-10-09)"
   xmlns:inkscape="http://www.inkscape.org/namespaces/inkscape"
   xmlns:sodipodi="http://sodipodi.sourceforge.net/DTD/sodipodi-0.dtd"
   xmlns="http://www.w3.org/2000/svg"
   xmlns:svg="http://www.w3.org/2000/svg"
   xmlns:rdf="http://www.w3.org/1999/02/22-rdf-syntax-ns#"
   xmlns:cc="http://creativecommons.org/ns#"
   xmlns:dc="http://purl.org/dc/elements/1.1/">
  <title
     id="title2">D251</title>
  <defs
     id="defs2" />
  <sodipodi:namedview
     id="namedview2"
     pagecolor="#ffffff"
     bordercolor="#000000"
     borderopacity="0.25"
     inkscape:showpageshadow="2"
     inkscape:pageopacity="0.0"
     inkscape:pagecheckerboard="0"
     inkscape:deskcolor="#d1d1d1"
     inkscape:zoom="0.25534412"
     inkscape:cx="1264.9596"
     inkscape:cy="834.16843"
     inkscape:window-width="1352"
     inkscape:window-height="725"
     inkscape:window-x="0"
     inkscape:window-y="25"
     inkscape:window-maximized="0"
     inkscape:current-layer="svg2" />
  <path
     id="path1"
     style="fill:#000000;stroke:none;stroke-width:99.9945"
     d="M 74.419249,0.00926472 C 33.276918,0.15487272 2.4420075,39.904509 0.15948361,78.770984 -1.0131387,100.30043 4.6188519,121.44628 6.0149523,142.89208 24.263363,305.61524 42.51259,468.33885 60.761046,631.062 c 41.989104,23.20944 83.976424,46.42213 125.964844,69.63282 2.18847,11.22337 4.37804,22.44653 6.5664,33.66992 l -30.99219,8.28906 c -59.04477,12.11174 -80.619291,56.77384 -64.722648,133.98633 15.013488,72.92286 41.844238,109.38476 80.490228,109.38476 2.27327,0 4.58628,-0.12558 6.94141,-0.3789 -37.84922,28.76551 -39.36228,90.45891 -4.54102,185.08211 26.37992,71.6846 60.5794,107.5273 102.59961,107.5273 13.44621,0 27.69251,-3.6714 42.74024,-11.0117 l 22.71093,84.0273 113.54688,-29.5234 -24.98047,-95.3789 84.02539,-22.711 c 349.72693,-18.1677 637.38135,-57.531 862.96285,-118.0898 434.5094,-390.60417 651.7637,-651.76308 651.7637,-783.47855 0,-130.21865 -32.5547,-195.32813 -97.6641,-195.32813 -0.7486,0 -1.5011,0.008 -2.2578,0.0254 -66.6145,1.51398 -141.9337,44.28321 -225.959,128.30859 -84.0251,84.02527 -188.8693,208.54948 -314.5293,373.57226 -25.4553,-0.8213 -51.1118,-1.23047 -76.9707,-1.23047 -164.8499,0 -337.90145,16.685 -519.15424,50.05664 -146.49273,26.97152 -262.50385,40.45704 -348.03321,40.45704 -36.89457,0 -68.11537,-2.50829 -93.66601,-7.52735 L 286.7376,709.37449 C 283.30696,698.69165 279.87696,688.0086 276.44659,677.32567 301.07103,634.35593 325.6294,591.34822 350.3626,548.4409 281.91278,379.19476 215.53878,209.1106 145.90557,40.34325 131.50864,15.528415 103.07993,-0.44061728 74.419249,0.00926472 Z m 6.25,86.15625028 c 12.420755,8.45681 17.542753,23.800015 24.199211,36.667965 17.51726,40.95155 30.00888,83.8228 46.60938,125.14063 37.77721,103.2634 75.55482,206.52762 113.33203,309.79102 -15.4694,23.96745 -30.9388,47.93489 -46.4082,71.90234 C 192.09112,617.24169 165.78058,604.81591 139.47003,592.39013 118.57257,433.30677 95.106109,274.55984 75.874327,115.25926 75.987938,106.00929 74.08378,92.543324 80.669249,86.165515 Z M 1905.427,235.10497 c 10.2026,0 18.4729,3.78138 24.8106,11.34571 23.4669,28.00839 -11.3534,102.19218 -104.4629,222.55273 -93.1085,120.36063 -192.6525,239.96589 -298.6309,358.8125 -105.9781,118.84667 -213.8491,194.16549 -323.6113,225.95899 -109.7633,31.7933 -341.02242,60.5593 -693.77732,86.2969 l -211.19726,54.502 c -33.30752,-40.8771 -47.69031,-91.5935 -43.14844,-152.1524 52.31824,-23.4761 95.57257,-35.2149 129.76367,-35.2149 42.98309,0 71.64178,18.5505 85.97656,55.6524 361.44005,-103.26855 623.68819,-154.90236 786.74409,-154.90236 9.0589,0 17.8114,0.16048 26.2578,0.48046 254.3471,-317.93385 419.7475,-514.75068 496.2032,-590.44922 55.8066,-55.25433 97.4976,-82.88085 125.0722,-82.88085 z m -681.7734,448.57422 c 44.873,0 83.2065,2.24839 115,6.74414 l -70.3984,86.29492 -826.62697,65.85743 c -51.475,46.93315 -99.16533,78.34923 -143.07031,94.24609 -10.02181,3.62847 -19.4716,5.44141 -28.34961,5.44141 -30.01637,0 -53.49586,-20.73881 -70.4375,-62.2168 -18.04219,-44.17211 -10.08583,-77.9447 23.0039,-101.66406 17.02966,-7.63347 34.0598,-15.26585 51.08985,-22.89844 15.66254,-3.98023 32.26375,-6.20313 50.05273,-6.20313 38.13534,0 81.15663,9.1455 129.06445,27.4375 347.11153,-62.02653 604.00176,-93.03906 770.67186,-93.03906 z M 950.32159,878.91161 c -249.24721,56.20271 -399.89298,84.30469 -451.9375,84.30469 -12.44543,0 -19.25319,-1.60649 -20.42188,-4.82031 -6.05587,-16.65375 -9.84144,-36.33537 -11.35547,-59.04492 z" />
  <metadata
     id="metadata2">
    <rdf:RDF>
      <cc:Work
         rdf:about="">
        <dc:title>D251</dc:title>
        <dc:creator>
          <cc:Agent>
            <dc:title>S.J.P. THOMAS</dc:title>
          </cc:Agent>
        </dc:creator>
        <dc:description>Modified by S. Rosmorduc to use the same scepter as D45.</dc:description>
      </cc:Work>
    </rdf:RDF>
  </metadata>
</svg>
