<?xml version="1.0" encoding ="US-ASCII" standalone="yes"?>
<svg width="20.121729" height="12.48">
<path style="fill:#000000; stroke:none" d=" M 13.795832 5.144653  Q 15.657715 2.699537 16.902702 1.454548  Q 18.147692 0.209557 19.134708 0.187125  Q 20.121729 0.164693 20.121729 2.116299  Q 20.121729 4.067906 13.683672 9.855425  Q 10.341267 10.752715 5.159418 11.021903  L 4.329426 11.246232  L 4.57618 12.188382  L 3.454567 12.48  L 3.230244 11.650014  Q 2.310522 12.098651 1.79458 10.696634  Q 1.278639 9.29462 1.839445 8.868405  Q 1.211341 8.935702 0.975803 7.791658  Q 0.740265 6.647613 1.615122 6.468155  Q 0.044865 5.481137 0 2.957511  Q -0.044865 0.43388 0.919722 0.007667  Q 1.974039 -0.126926 3.196596 2.082651  Q 4.419153 4.292228 3.544295 5.952218  Q 4.800502 6.198969 7.90737 5.626949  Q 11.014235 5.054923 13.795832 5.144653  Z  M 1.144045 0.83766  Q 0.740265 2.542512 1.054316 4.2025  Q 1.368368 5.86249 2.389035 5.582085  Q 3.409702 5.301678 2.882546 3.708989  Q 2.355386 2.116299 1.144045 0.83766  Z  M 2.96106 10.932174  L 5.047257 10.393801  Q 10.27397 10.012451 11.900314 9.541375  Q 13.526644 9.070295 15.096904 7.309364  Q 16.66717 5.548433 18.046743 3.765068  Q 19.426332 1.981705 19.078627 1.566709  Q 18.730927 1.151712 17.598104 2.273324  Q 16.465275 3.394937 12.696654 8.105712  Q 10.318834 8.015982 4.665909 9.631103  Q 4.284561 8.644086 2.534844 9.429213  Q 2.467548 10.326505 2.96106 10.932174  Z  M 4.621043 8.015982  Q 4.643476 8.352465 4.733205 8.59922  Q 4.822935 8.845975 9.399115 7.814093  L 4.621043 8.015982  Z  M 4.48645 6.804638  Q 3.252676 6.333563 2.456331 6.681261  Q 1.659986 7.028961 1.985255 7.825307  Q 2.310522 8.621654 2.96106 8.386116  Q 3.611593 8.150575 4.37429 7.455174  L 12.539628 6.804638  L 13.235025 5.952218  Q 11.014235 5.638166 4.48645 6.804638  Z "/></svg>
