<?xml version="1.0" encoding="UTF-8" standalone="no"?>
<svg
   xmlns:dc="http://purl.org/dc/elements/1.1/"
   xmlns:cc="http://web.resource.org/cc/"
   xmlns:rdf="http://www.w3.org/1999/02/22-rdf-syntax-ns#"
   xmlns:svg="http://www.w3.org/2000/svg"
   xmlns="http://www.w3.org/2000/svg"
   xmlns:sodipodi="http://inkscape.sourceforge.net/DTD/sodipodi-0.dtd"
   xmlns:inkscape="http://www.inkscape.org/namespaces/inkscape"
   width="14.93pt"
   height="12.38pt"
   id="svg1333"
   sodipodi:version="0.32"
   inkscape:version="0.43"
   sodipodi:docname="US22D26.svg"
   sodipodi:docbase="C:\Program Files\JSesh\fonts\envoi26_SR"
   version="1.0">
  <metadata
     id="metadata1340">
    <rdf:RDF>
      <cc:Work
         rdf:about="">
        <dc:format>image/svg+xml</dc:format>
        <dc:type
           rdf:resource="http://purl.org/dc/dcmitype/StillImage" />
        <dc:creator>
          <cc:Agent>
            <dc:title>SR &amp; ST</dc:title>
          </cc:Agent>
        </dc:creator>
        <dc:title>US22D26</dc:title>
        <dc:date>17/04/06</dc:date>
        <dc:publisher>
          <cc:Agent>
            <dc:title>Serge Rosmorduc</dc:title>
          </cc:Agent>
        </dc:publisher>
        <dc:description>variante optimisée du signe de Jsesh</dc:description>
        <cc:license
           rdf:resource="http://creativecommons.org/licenses/GPL/2.0/" />
      </cc:Work>
      <cc:License
         rdf:about="http://creativecommons.org/licenses/GPL/2.0/">
        <cc:permits
           rdf:resource="http://web.resource.org/cc/Reproduction" />
        <cc:permits
           rdf:resource="http://web.resource.org/cc/Distribution" />
        <cc:requires
           rdf:resource="http://web.resource.org/cc/Notice" />
        <cc:permits
           rdf:resource="http://web.resource.org/cc/DerivativeWorks" />
        <cc:requires
           rdf:resource="http://web.resource.org/cc/ShareAlike" />
        <cc:requires
           rdf:resource="http://web.resource.org/cc/SourceCode" />
      </cc:License>
    </rdf:RDF>
  </metadata>
  <defs
     id="defs1338" />
  <sodipodi:namedview
     inkscape:window-height="708"
     inkscape:window-width="1024"
     inkscape:pageshadow="2"
     inkscape:pageopacity="0.0"
     borderopacity="1.0"
     bordercolor="#666666"
     pagecolor="#ffffff"
     id="base"
     showguides="true"
     inkscape:guide-bbox="true"
     inkscape:zoom="29.342461"
     inkscape:cx="9.3286219"
     inkscape:cy="7.4076935"
     inkscape:window-x="-4"
     inkscape:window-y="-4"
     inkscape:current-layer="svg1333"
     showgrid="false" />
  <path
     style="fill:#000000;stroke:none"
     d="M 13.205216,1.255382 L 13.205216,1.255382 C 13.497855,1.405434 13.841874,1.896837 14.229618,2.020812 C 15.50637,1.971439 17.733828,1.750017 17.780531,3.15021 C 17.842452,4.972546 14.617905,4.142057 14.202707,4.333041 C 13.716879,4.556514 13.421364,5.047504 13.23192,4.916331 C 13.020495,4.769937 12.905261,3.830136 13.179075,3.662894 C 13.458123,3.330048 14.695961,3.520282 15.021726,3.41993 C 15.336382,3.475726 15.319595,2.807022 14.973802,2.807022 C 14.936817,2.807022 13.348148,2.833121 13.146501,2.700293 C 12.957949,2.304347 12.908125,1.549385 13.205216,1.255382 z M 13.162842,-0.031540936 C 12.676139,-0.031540936 12.061002,0.81536104 12.21541,2.579833 L 11.155268,2.287393 L 10.345599,3.283322 L 9.0682011,3.026763 L 8.206604,3.974268 L 6.853978,3.973188 L 6.402981,5.33791 L 4.670537,5.465277 L 4.353625,6.8909683 L 2.533546,7.2553254 L 2.482818,8.934859 L 1.110446,9.562304 L 1.214818,11.012646 L 0,12.503073 L 0.81486098,13.946528 L 0.73451198,15.070604 L 1.698614,15.044878 L 1.757064,13.767217 L 1.114084,12.596812 L 2.124267,11.543081 L 2.040158,10.212545 L 3.350457,9.793408 L 3.375628,8.1488444 L 5.218615,7.7612493 L 5.436084,6.302593 L 7.153905,6.19127 L 7.487563,4.982552 L 8.601179,5.043906 L 9.408971,4.138067 L 10.669134,4.426541 L 11.489522,3.433404 L 12.238948,3.696385 C 12.074279,5.55156 12.584692,5.814353 13.064854,6.247913 C 13.435119,5.871812 13.918179,5.624907 14.497322,5.27053 C 16.751217,4.888915 18.68728,5.780223 18.674286,3.127096 C 18.66255,0.76181004 16.16521,1.274663 14.470136,1.114282 C 13.902304,0.79454304 13.291765,-0.031540936 13.162842,-0.031540936 z "
     id="path1335"
     sodipodi:nodetypes="cccsssccscccccccccccccccccccccccccccccccccccccscc" />
</svg>
