<?xml version="1.0" encoding="UTF-8" standalone="no"?>
<svg
   xmlns:dc="http://purl.org/dc/elements/1.1/"
   xmlns:cc="http://creativecommons.org/ns#"
   xmlns:rdf="http://www.w3.org/1999/02/22-rdf-syntax-ns#"
   xmlns:svg="http://www.w3.org/2000/svg"
   xmlns="http://www.w3.org/2000/svg"
   xmlns:sodipodi="http://sodipodi.sourceforge.net/DTD/sodipodi-0.dtd"
   xmlns:inkscape="http://www.inkscape.org/namespaces/inkscape"
   width="19.03125"
   height="18.959766"
   id="svg4142"
   sodipodi:version="0.32"
   inkscape:version="0.46"
   sodipodi:docname="D297vara.svg"
   inkscape:output_extension="org.inkscape.output.svg.inkscape"
   version="1.0">
  <metadata
     id="metadata4149">
    <rdf:RDF>
      <cc:Work
         rdf:about="">
        <dc:format>image/svg+xml</dc:format>
        <dc:type
           rdf:resource="http://purl.org/dc/dcmitype/StillImage" />
      </cc:Work>
    </rdf:RDF>
  </metadata>
  <defs
     id="defs4147">
    <inkscape:perspective
       sodipodi:type="inkscape:persp3d"
       inkscape:vp_x="0 : 3.5999999 : 1"
       inkscape:vp_y="0 : 1000 : 0"
       inkscape:vp_z="23.826315 : 3.5999999 : 1"
       inkscape:persp3d-origin="11.913157 : 2.3999999 : 1"
       id="perspective4151" />
  </defs>
  <sodipodi:namedview
     inkscape:window-height="667"
     inkscape:window-width="797"
     inkscape:pageshadow="2"
     inkscape:pageopacity="0.0"
     guidetolerance="10.0"
     gridtolerance="10.0"
     objecttolerance="10.0"
     borderopacity="1.0"
     bordercolor="#666666"
     pagecolor="#ffffff"
     id="base"
     showgrid="false"
     inkscape:zoom="24.36739"
     inkscape:cx="9.515625"
     inkscape:cy="9.4798837"
     inkscape:window-x="66"
     inkscape:window-y="67"
     inkscape:current-layer="svg4142"
     showguides="true"
     inkscape:guide-bbox="true" />
  <path
     style="opacity:0.99415205;fill:#000000;fill-opacity:1;fill-rule:nonzero;stroke:none;stroke-width:0.60000002;stroke-linecap:butt;stroke-linejoin:round;stroke-miterlimit:4;stroke-opacity:1;display:inline"
     d="M 11.5,1.010179e-05 C 10.98279,0.017016102 10.234261,-0.0013291982 9.71875,0.031260102 C 9.443146,0.1110227 9.495936,0.4348498 9.5,0.6562601 C 9.51895,1.8040929 9.54355,3.060688 9.5625,4.2812601 L 7.375,4.3437601 L 6.46875,4.2812601 C 5.7869564,3.589304 5.1739072,3.2500101 4.65625,3.2500101 C 4.4668625,3.2378701 4.2771389,3.2308997 4.0625,3.2187601 C 3.0019359,3.4129927 2.3522638,3.5000101 2.125,3.5000101 C 1.97349,3.5000101 1.90625,3.6182761 1.90625,3.8125101 C 1.90625,4.0917212 2.1205976,4.2187601 2.5625,4.2187601 C 3.421053,4.0730841 4.0461019,4.0069806 4.4375,4.0312601 C 4.6647635,4.0312601 4.8424914,4.1113056 4.96875,4.2812601 C 4.703608,4.5968908 4.0908698,4.7430402 3.125,4.7187601 C 2.1591278,4.6944801 1.3074215,4.5935226 0.5625,4.3750101 C 0.1837269,4.3750101 -9.9999959e-08,4.5872631 4.0856207e-14,5.0000101 C 0.0505032,5.3763383 1.4230849,5.5503706 4.125,5.5625101 L 5.90625,5.3750101 L 9.5625,5.3750101 C 9.609056,8.4021664 9.640944,11.461278 9.6875,14.28126 C 9.592741,14.353715 9.500618,14.427429 9.40625,14.50001 C 9.374632,14.492602 9.344096,14.4764 9.3125,14.46876 C 7.769846,14.096137 6.1631838,13.462868 5.1875,12.15626 C 4.0659266,10.540517 3.6926559,8.5036769 2.34375,7.0312601 C 1.908722,6.49761 1.3989466,6.0248248 0.8125,5.6562601 C 0.6160002,5.5051458 -0.0740241,5.1056143 0.0625,5.6250101 C 1.2891201,7.31272 2.1744991,9.2319561 2.6875,11.25001 C 3.1801974,12.813673 4.0700005,14.285768 5.3125,15.37501 C 5.7672403,15.805617 6.2518014,16.19436 6.78125,16.53126 C 6.6154828,16.657779 6.4484048,16.780462 6.28125,16.90626 C 5.6376384,17.325376 4.8762839,17.580944 4.125,17.71876 C 3.6813284,17.714327 3.2491658,17.430927 2.8125,17.62501 C 2.554448,17.823171 2.4671827,18.365137 2.8125,18.53126 C 3.6602518,18.985939 4.6395794,18.988261 5.5625,18.81251 C 6.3925093,18.671538 7.2602527,18.586542 8.09375,18.46876 C 8.664267,18.419174 9.254062,18.306199 9.78125,18.59376 C 10.220476,18.788531 10.731759,19.115154 11.21875,18.87501 C 11.506802,18.695297 11.695997,18.383473 11.8125,18.06251 C 14.144542,18.311589 16.614667,18.302128 18.9375,18.28126 L 18.84375,14.93751 C 16.397505,14.850888 13.937268,15.055715 11.5,14.81251 C 11.484933,14.635622 11.476604,14.457381 11.46875,14.28126 C 11.484529,12.030044 11.53763,8.3978043 11.5625,5.3437601 L 16.15625,5.3437601 L 19.03125,5.3750101 L 19.03125,0.9375101 C 19.03125,0.342669 18.719039,0.031260202 18.0625,0.031260102 C 17.405956,0.031260102 17.056503,0.2104614 17.03125,0.5625101 C 16.753485,2.856896 16.477894,4.0191211 16.1875,4.0312601 L 11.5625,4.1875101 C 11.575286,1.8604707 11.571262,-0.0050083982 11.5,1.010179e-05 z M 18.03125,0.5312601 C 18.296389,0.5312601 18.437501,0.6704387 18.4375,0.9375101 L 18.4375,4.0000101 L 17.21875,4.0000101 L 17.625,0.7812601 C 17.637627,0.6113055 17.76611,0.5312602 18.03125,0.5312601 z M 10.96875,0.5937601 C 10.960868,1.7411525 10.945813,3.0004938 10.9375,4.2187601 L 10.125,4.2500101 C 10.102064,3.0031493 10.077561,1.5265025 10.0625,0.6250101 C 10.364583,0.6145934 10.666667,0.6041768 10.96875,0.5937601 z M 10.15625,5.3750101 L 10.9375,5.3750101 C 10.916611,8.450708 10.892745,11.569135 10.875,14.43751 C 10.884389,14.541982 10.897636,14.645613 10.90625,14.75001 C 10.668068,14.718463 10.424684,14.698406 10.1875,14.65626 C 10.198999,14.647281 10.207255,14.633992 10.21875,14.62501 C 10.32098,14.499225 10.235486,9.75355 10.15625,5.3750101 z M 2,7.7812601 C 3.4398003,9.2323106 3.5879805,11.467323 5,12.93751 C 6.1645135,14.192044 7.829463,14.790417 9.46875,15.15626 C 12.299173,15.776859 15.376832,15.624228 18.25,15.59376 L 18.28125,17.65626 C 14.928192,17.736098 11.721585,17.673081 8.78125,16.84376 C 6.6042611,15.953369 4.7759455,14.273637 3.71875,12.18751 C 3.0731658,10.747055 2.8363564,9.1396017 2,7.7812601 z M 7.34375,16.84376 C 8.524441,17.491226 9.839704,17.898305 11.1875,18.00001 C 11.059051,18.245061 10.852904,18.458325 10.5625,18.28126 C 10.066661,18.090391 9.58626,17.776206 9.03125,17.81251 C 8.02018,17.800655 7.0336486,18.027252 6.03125,18.12501 C 5.4748568,18.204218 4.9088404,18.32352 4.34375,18.31251 C 5.3208269,18.091466 6.2927409,17.719405 7.0625,17.06251 C 7.1561271,16.989732 7.2499121,16.916412 7.34375,16.84376 z"
     id="path2143" />
</svg>
