<?xml version="1.0" encoding="UTF-8" standalone="no"?>
<!-- Created with Inkscape (http://www.inkscape.org/) -->
<svg
   xmlns:dc="http://purl.org/dc/elements/1.1/"
   xmlns:cc="http://creativecommons.org/ns#"
   xmlns:rdf="http://www.w3.org/1999/02/22-rdf-syntax-ns#"
   xmlns:svg="http://www.w3.org/2000/svg"
   xmlns="http://www.w3.org/2000/svg"
   xmlns:sodipodi="http://sodipodi.sourceforge.net/DTD/sodipodi-0.dtd"
   xmlns:inkscape="http://www.inkscape.org/namespaces/inkscape"
   sodipodi:docname="D298vara.svg"
   sodipodi:docbase="/home/rosmord/Travail/Gsigns/Ramessides/Fontes"
   inkscape:version="0.46"
   sodipodi:version="0.32"
   id="svg1290"
   height="18.272268"
   width="23.8125"
   inkscape:output_extension="org.inkscape.output.svg.inkscape"
   version="1.0">
  <defs
     id="defs3">
    <inkscape:perspective
       sodipodi:type="inkscape:persp3d"
       inkscape:vp_x="0 : 9 : 1"
       inkscape:vp_y="0 : 1000 : 0"
       inkscape:vp_z="18 : 9 : 1"
       inkscape:persp3d-origin="9 : 6 : 1"
       id="perspective2508" />
  </defs>
  <sodipodi:namedview
     inkscape:window-y="-4"
     inkscape:window-x="-4"
     inkscape:window-height="708"
     inkscape:window-width="1024"
     inkscape:current-layer="layer1"
     inkscape:document-units="px"
     inkscape:cy="9.2725616"
     inkscape:cx="9.0000002"
     inkscape:zoom="19.944444"
     inkscape:pageshadow="2"
     inkscape:pageopacity="0.0"
     borderopacity="1.0"
     bordercolor="#666666"
     pagecolor="#ffffff"
     id="base"
     showgrid="false" />
  <metadata
     id="metadata4">
    <rdf:RDF>
      <cc:Work
         rdf:about="">
        <dc:format>image/svg+xml</dc:format>
        <dc:type
           rdf:resource="http://purl.org/dc/dcmitype/StillImage" />
        <cc:license
           rdf:resource="http://creativecommons.org/licenses/by/2.0/" />
        <dc:subject>
          <rdf:Bag>
            <rdf:li>JSesh hieroglyph</rdf:li>
          </rdf:Bag>
        </dc:subject>
        <dc:creator>
          <cc:Agent>
            <dc:title>Serge Rosmorduc</dc:title>
          </cc:Agent>
        </dc:creator>
        <dc:description>Sign from Karnak Hypostyle Hall
</dc:description>
      </cc:Work>
      <cc:License
         rdf:about="http://creativecommons.org/licenses/by/2.0/">
        <cc:permits
           rdf:resource="http://web.resource.org/cc/Reproduction" />
        <cc:permits
           rdf:resource="http://web.resource.org/cc/Distribution" />
        <cc:requires
           rdf:resource="http://web.resource.org/cc/Notice" />
        <cc:requires
           rdf:resource="http://web.resource.org/cc/Attribution" />
        <cc:permits
           rdf:resource="http://web.resource.org/cc/DerivativeWorks" />
        <cc:requires
           rdf:resource="http://web.resource.org/cc/ShareAlike" />
      </cc:License>
    </rdf:RDF>
  </metadata>
  <g
     id="layer1"
     inkscape:groupmode="layer"
     inkscape:label="Layer 1"
     transform="translate(1.4380585,6.2524111e-2)">
    <path
       style="opacity:0.99415205;fill:#000000;fill-opacity:1;fill-rule:nonzero;stroke:none;stroke-width:0.60000002;stroke-linecap:butt;stroke-linejoin:round;stroke-miterlimit:4;stroke-opacity:1;display:inline"
       d="M 8.9375,0 C 8.4202898,0.017006043 7.6405114,-0.001339292 7.125,0.03125 C 6.8493963,0.11101245 6.9021867,0.4348397 6.90625,0.65625 C 6.9485702,3.2196499 6.9889297,5.7803501 7.03125,8.34375 L 6.75,8.3125 C 5.897366,7.412502 5.1473687,6.9375001 4.5,6.9375 C 4.2631567,6.92171 4.0184221,6.9220395 3.75,6.90625 C 2.4236853,7.15888 1.59671,7.2812498 1.3125,7.28125 C 1.1230253,7.28125 1.03125,7.403618 1.03125,7.65625 C 1.03125,8.019408 1.3223679,8.2187497 1.875,8.21875 C 2.9486847,8.0292754 3.7292774,7.9371705 4.21875,7.96875 C 4.50296,7.96875 4.7171042,8.091447 4.875,8.3125 C 4.54342,8.7230274 3.7703921,8.9065802 2.5625,8.875 C 1.3546047,8.84342 0.30658001,8.6904605 -0.625,8.40625 C -1.098684,8.40625 -1.34375,8.6506574 -1.34375,9.1875 C -1.280592,9.676974 0.43355319,9.9529612 3.8125,9.96875 L 6.03125,9.71875 L 7.0625,9.71875 C 7.0838321,11.010867 7.1036679,12.301633 7.125,13.59375 C 5.9813124,14.468245 4.8377212,15.353114 3.6875,16.21875 C 3.0438887,16.637867 2.3137839,16.893434 1.5625,17.03125 C 1.1188286,17.026817 0.65541575,16.743417 0.21875,16.9375 C -0.039302257,17.135661 -0.12656728,17.677627 0.21875,17.84375 C 1.0665019,18.298429 2.0770794,18.269501 3,18.09375 C 3.8300099,17.952779 4.6665024,17.899032 5.5,17.78125 C 6.0705167,17.731665 6.6915619,17.618689 7.21875,17.90625 C 7.6579752,18.101021 8.1692591,18.427644 8.65625,18.1875 C 9.0403195,17.947884 9.2501697,17.494265 9.34375,17.0625 C 9.4212635,16.499209 9.0557414,15.997268 9.0625,15.4375 C 9.0188194,14.825547 8.9335675,14.20633 8.90625,13.59375 C 8.9133553,12.580056 8.9215087,11.063149 8.9375,9.71875 L 16.5625,9.65625 C 16.584176,10.969202 16.603324,12.280798 16.625,13.59375 C 15.481312,14.468245 14.337721,15.353114 13.1875,16.21875 C 12.543888,16.637867 11.813783,16.893434 11.0625,17.03125 C 10.618828,17.026817 10.155416,16.743417 9.71875,16.9375 C 9.4606976,17.135661 9.3734327,17.677627 9.71875,17.84375 C 10.566502,18.298429 11.57708,18.269501 12.5,18.09375 C 13.33001,17.952779 14.166502,17.899032 15,17.78125 C 15.570516,17.731665 16.191561,17.618689 16.71875,17.90625 C 17.157974,18.101021 17.669259,18.427644 18.15625,18.1875 C 18.54032,17.947884 18.75017,17.494265 18.84375,17.0625 C 18.921264,16.499209 18.555741,15.997268 18.5625,15.4375 C 18.518821,14.825547 18.433568,14.20633 18.40625,13.59375 C 18.41347,12.563708 18.421201,11.024968 18.4375,9.65625 L 18.875,9.65625 L 22.46875,9.6875 L 22.46875,3.90625 C 22.46875,3.1325654 22.07105,2.75 21.25,2.75 C 20.428944,2.75 20.000333,2.9796055 19.96875,3.4375 C 19.621384,6.42171 19.26941,7.9217116 18.90625,7.9375 L 18.46875,7.96875 C 18.51611,3.9275896 18.551543,-0.0080313182 18.4375,0 C 17.92029,0.017006043 17.140511,-0.001339292 16.625,0.03125 C 16.349396,0.11101245 16.402186,0.4348397 16.40625,0.65625 C 16.446851,3.1154753 16.49065,5.5720247 16.53125,8.03125 L 8.96875,8.34375 C 9.0181281,4.1770704 9.0553232,-0.0082975171 8.9375,0 z M 8.40625,0.59375 C 8.3885179,3.1749685 8.3622362,5.762504 8.34375,8.34375 L 7.875,8.375 L 7.65625,8.375 C 7.6125814,5.7002155 7.5334291,2.6259739 7.5,0.625 C 7.8020835,0.61458332 8.1041667,0.60416667 8.40625,0.59375 z M 17.90625,0.59375 C 17.889376,3.050078 17.86142,5.5123929 17.84375,7.96875 L 17.15625,8 C 17.112888,5.4233472 17.031812,2.5291898 17,0.625 C 17.302083,0.61458332 17.604167,0.60416667 17.90625,0.59375 z M 21,3.40625 C 21.063158,3.3924342 21.135856,3.40625 21.21875,3.40625 C 21.550326,3.40625 21.718751,3.5588815 21.71875,3.90625 L 21.71875,7.90625 L 20.1875,7.90625 L 20.6875,3.71875 C 20.699343,3.5529606 20.810527,3.4476974 21,3.40625 z M 17.15625,9.65625 L 17.84375,9.65625 C 17.834187,11.019719 17.820935,12.386572 17.8125,13.75 C 17.876279,14.459679 17.91746,15.167516 18,15.875 C 18.048275,16.253501 18.303853,16.612826 18.25,17 C 18.151858,17.319421 17.92026,17.849991 17.5,17.59375 C 17.00416,17.402882 16.52376,17.088696 15.96875,17.125 C 14.95768,17.113145 13.971149,17.339742 12.96875,17.4375 C 12.412358,17.516707 11.84634,17.63601 11.28125,17.625 C 12.258327,17.403956 13.230241,17.031895 14,16.375 C 15.047916,15.560435 16.079184,14.754678 17.125,13.9375 C 17.187537,13.860554 17.188269,11.977377 17.15625,9.65625 z M 7.65625,9.71875 L 8.34375,9.71875 C 8.3343439,11.061404 8.320806,12.407387 8.3125,13.75 C 8.3762787,14.459679 8.4174602,15.167516 8.5,15.875 C 8.5482754,16.253501 8.803854,16.612826 8.75,17 C 8.6518588,17.319421 8.4202595,17.849991 8,17.59375 C 7.5041607,17.402882 7.0237596,17.088696 6.46875,17.125 C 5.4576799,17.113145 4.4711487,17.339742 3.46875,17.4375 C 2.9123574,17.516707 2.3463404,17.63601 1.78125,17.625 C 2.7583268,17.403956 3.7302411,17.031895 4.5,16.375 C 5.5479162,15.560435 6.5791839,14.754678 7.625,13.9375 C 7.6869144,13.86132 7.6874287,12.005875 7.65625,9.71875 z"
       transform="translate(-9.4308538e-2,-6.2511794e-2)"
       id="path2143" />
  </g>
</svg>
