<?xml version="1.0" encoding="UTF-8" standalone="no"?>
<!-- Created with Inkscape (http://www.inkscape.org/) -->
<svg
   xmlns:dc="http://purl.org/dc/elements/1.1/"
   xmlns:cc="http://creativecommons.org/ns#"
   xmlns:rdf="http://www.w3.org/1999/02/22-rdf-syntax-ns#"
   xmlns:svg="http://www.w3.org/2000/svg"
   xmlns="http://www.w3.org/2000/svg"
   xmlns:sodipodi="http://sodipodi.sourceforge.net/DTD/sodipodi-0.dtd"
   xmlns:inkscape="http://www.inkscape.org/namespaces/inkscape"
   sodipodi:docname="D299vara.svg"
   sodipodi:docbase="/home/rosmord/Travail/Gsigns/Ramessides/Fontes"
   inkscape:version="0.46"
   sodipodi:version="0.32"
   id="svg1290"
   height="18.272266"
   width="23.8125"
   inkscape:output_extension="org.inkscape.output.svg.inkscape"
   version="1.0">
  <defs
     id="defs3">
    <inkscape:perspective
       sodipodi:type="inkscape:persp3d"
       inkscape:vp_x="0 : 9 : 1"
       inkscape:vp_y="0 : 1000 : 0"
       inkscape:vp_z="18 : 9 : 1"
       inkscape:persp3d-origin="9 : 6 : 1"
       id="perspective2508" />
  </defs>
  <sodipodi:namedview
     inkscape:window-y="-4"
     inkscape:window-x="-4"
     inkscape:window-height="708"
     inkscape:window-width="1024"
     inkscape:current-layer="layer1"
     inkscape:document-units="px"
     inkscape:cy="9.2725616"
     inkscape:cx="9.0000002"
     inkscape:zoom="19.944444"
     inkscape:pageshadow="2"
     inkscape:pageopacity="0.0"
     borderopacity="1.0"
     bordercolor="#666666"
     pagecolor="#ffffff"
     id="base"
     showgrid="false" />
  <metadata
     id="metadata4">
    <rdf:RDF>
      <cc:Work
         rdf:about="">
        <dc:format>image/svg+xml</dc:format>
        <dc:type
           rdf:resource="http://purl.org/dc/dcmitype/StillImage" />
        <cc:license
           rdf:resource="http://creativecommons.org/licenses/by/2.0/" />
        <dc:subject>
          <rdf:Bag>
            <rdf:li>JSesh hieroglyph</rdf:li>
          </rdf:Bag>
        </dc:subject>
        <dc:creator>
          <cc:Agent>
            <dc:title>Serge Rosmorduc</dc:title>
          </cc:Agent>
        </dc:creator>
        <dc:description>Sign from Karnak Hypostyle Hall
</dc:description>
      </cc:Work>
      <cc:License
         rdf:about="http://creativecommons.org/licenses/by/2.0/">
        <cc:permits
           rdf:resource="http://web.resource.org/cc/Reproduction" />
        <cc:permits
           rdf:resource="http://web.resource.org/cc/Distribution" />
        <cc:requires
           rdf:resource="http://web.resource.org/cc/Notice" />
        <cc:requires
           rdf:resource="http://web.resource.org/cc/Attribution" />
        <cc:permits
           rdf:resource="http://web.resource.org/cc/DerivativeWorks" />
        <cc:requires
           rdf:resource="http://web.resource.org/cc/ShareAlike" />
      </cc:License>
    </rdf:RDF>
  </metadata>
  <g
     id="layer1"
     inkscape:groupmode="layer"
     inkscape:label="Layer 1"
     transform="translate(0.6880585,6.2523653e-2)">
    <path
       style="opacity:0.99415205;fill:#000000;fill-opacity:1;fill-rule:nonzero;stroke:none;stroke-width:0.60000002;stroke-linecap:butt;stroke-linejoin:round;stroke-miterlimit:4;stroke-opacity:1;display:inline"
       d="M 8.9375,0 C 8.4202898,0.017006043 7.6405114,-0.001339292 7.125,0.03125 C 6.8493963,0.11101245 6.9021867,0.4348397 6.90625,0.65625 C 6.9305059,2.1254642 6.9444941,3.5932857 6.96875,5.0625 C 6.3307416,4.5030326 5.760409,4.2187499 5.25,4.21875 C 5.0131567,4.20296 4.7684219,4.1720393 4.5,4.15625 C 3.1736853,4.40888 2.3467101,4.53125 2.0625,4.53125 C 1.8730253,4.53125 1.78125,4.6536178 1.78125,4.90625 C 1.78125,5.269408 2.0723679,5.46875 2.625,5.46875 C 3.6986847,5.2792754 4.4792774,5.1871708 4.96875,5.21875 C 5.25296,5.21875 5.4671042,5.3414473 5.625,5.5625 C 5.29342,5.9730274 4.5203921,6.15658 3.3125,6.125 C 2.1046047,6.09342 1.05658,5.9404602 0.125,5.65625 C -0.34868401,5.65625 -0.59375001,5.9319076 -0.59375,6.46875 C -0.53059201,6.958224 1.1835532,7.2029605 4.5625,7.21875 L 6.78125,6.96875 L 7,6.96875 C 7.0304502,8.8131621 7.0632998,10.655588 7.09375,12.5 C 6.405438,11.865438 5.7935856,11.5 5.25,11.5 C 5.0131567,11.48421 4.7684219,11.48454 4.5,11.46875 C 3.1736853,11.72138 2.3467101,11.84375 2.0625,11.84375 C 1.8730253,11.84375 1.78125,11.966118 1.78125,12.21875 C 1.78125,12.581908 2.0723679,12.75 2.625,12.75 C 3.6986847,12.560526 4.4792774,12.499671 4.96875,12.53125 C 5.25296,12.53125 5.4671042,12.653948 5.625,12.875 C 5.29342,13.285528 4.5203921,13.46908 3.3125,13.4375 C 2.1046047,13.40592 1.05658,13.25296 0.125,12.96875 C -0.34868401,12.96875 -0.59375001,13.213158 -0.59375,13.75 C -0.53059201,14.239474 1.1835532,14.515461 4.5625,14.53125 L 6.125,14.34375 C 5.3143699,14.96896 4.5053123,15.603279 3.6875,16.21875 C 3.0438887,16.637867 2.3137839,16.893434 1.5625,17.03125 C 1.1188286,17.026817 0.65541575,16.743417 0.21875,16.9375 C -0.039302257,17.135661 -0.12656728,17.677627 0.21875,17.84375 C 0.85456396,18.18476 1.6007596,18.272807 2.3125,18.21875 C 2.5497468,18.200731 2.7692699,18.137688 3,18.09375 C 3.8300099,17.952779 4.6665024,17.899032 5.5,17.78125 C 6.0705167,17.731665 6.6915619,17.618689 7.21875,17.90625 C 7.6579752,18.101021 8.1692591,18.427644 8.65625,18.1875 C 8.7522674,18.127596 8.8299831,18.051016 8.90625,17.96875 C 9.1350507,17.721953 9.2735648,17.386324 9.34375,17.0625 C 9.4212635,16.499209 9.0557414,15.997268 9.0625,15.4375 C 9.0351155,15.053851 8.9996998,14.664763 8.96875,14.28125 L 16.34375,14.25 C 15.485205,14.911778 14.615968,15.567038 13.75,16.21875 C 13.106388,16.637867 12.376283,16.893434 11.625,17.03125 C 11.181328,17.026817 10.717916,16.743417 10.28125,16.9375 C 10.023198,17.135661 9.9359331,17.677627 10.28125,17.84375 C 11.129002,18.298429 12.13958,18.269501 13.0625,18.09375 C 13.89251,17.952779 14.729002,17.899032 15.5625,17.78125 C 16.133016,17.731665 16.754061,17.618689 17.28125,17.90625 C 17.720475,18.101021 18.231759,18.427644 18.71875,18.1875 C 19.10282,17.947884 19.31267,17.494265 19.40625,17.0625 C 19.483764,16.499209 19.086991,15.997268 19.09375,15.4375 C 19.064859,15.032739 19.031831,14.623399 19,14.21875 L 19.625,14.21875 L 23.21875,14.25 L 23.21875,8.46875 C 23.21875,7.6950654 22.82105,7.3124999 22,7.3125 C 21.178944,7.3125 20.750333,7.5421053 20.71875,8 C 20.371384,10.98421 20.01941,12.484212 19.65625,12.5 L 18.96875,12.53125 C 18.984268,10.879825 19.009164,8.9024851 19.03125,6.90625 L 19.625,6.90625 L 23.21875,6.96875 L 23.21875,1.1875 C 23.21875,0.4138154 22.82105,0.031250001 22,0.03125 C 21.178944,0.03125 20.750333,0.26085543 20.71875,0.71875 C 20.371384,3.70296 20.01941,5.2029614 19.65625,5.21875 L 19.0625,5.25 C 19.08892,2.3427209 19.086635,-0.00610113 19,0 C 18.48279,0.017006043 17.703011,-0.001339292 17.1875,0.03125 C 16.911897,0.11101245 16.964686,0.4348397 16.96875,0.65625 C 16.994384,2.2089801 17.036865,3.7597699 17.0625,5.3125 L 9,5.625 C 9.0016572,5.4533029 8.9985062,5.2931851 9,5.125 C 9.0253042,2.2760163 9.0228749,-0.006012397 8.9375,0 z M 8.40625,0.59375 C 8.3947386,2.2694382 8.3872093,3.9492862 8.375,5.625 L 7.59375,5.5625 C 7.560641,3.8048704 7.5212971,1.8997855 7.5,0.625 C 7.8020835,0.61458332 8.1041667,0.60416667 8.40625,0.59375 z M 18.46875,0.59375 C 18.458097,2.1445478 18.448796,3.6991787 18.4375,5.25 L 17.65625,5.28125 C 17.62498,3.6310187 17.582584,1.8271974 17.5625,0.625 C 17.864583,0.61458332 18.166667,0.60416667 18.46875,0.59375 z M 21.96875,0.65625 C 22.300326,0.65625 22.468751,0.84013134 22.46875,1.1875 L 22.46875,5.1875 L 20.9375,5.1875 L 21.4375,1 C 21.453291,0.7789474 21.637174,0.65625002 21.96875,0.65625 z M 17.0625,6.90625 C 17.09381,8.8027488 17.12494,10.697251 17.15625,12.59375 L 8.90625,12.9375 C 8.9207627,11.25358 8.9451861,9.0888586 8.96875,6.96875 L 17.0625,6.90625 z M 17.6875,6.90625 L 18.4375,6.90625 C 18.423826,8.7901973 18.387215,10.678606 18.375,12.5625 L 17.75,12.5625 C 17.752659,11.218689 17.728236,9.172335 17.6875,6.90625 z M 7.625,6.96875 L 8.375,6.96875 C 8.360652,8.9463644 8.3251612,10.928698 8.3125,12.90625 L 7.6875,12.875 C 7.6978158,11.597697 7.6689256,9.4196429 7.625,6.96875 z M 21.75,7.96875 C 21.813158,7.9549342 21.885856,7.96875 21.96875,7.96875 C 22.300326,7.96875 22.468751,8.121381 22.46875,8.46875 L 22.46875,12.46875 L 20.9375,12.46875 L 21.4375,8.28125 C 21.449343,8.1154605 21.560527,8.0101974 21.75,7.96875 z M 17.3125,14.21875 L 18.40625,14.21875 C 18.44955,14.772933 18.498133,15.323284 18.5625,15.875 C 18.610776,16.253501 18.866353,16.612826 18.8125,17 C 18.714359,17.319421 18.45151,17.849991 18.03125,17.59375 C 17.535411,17.402882 17.08626,17.088696 16.53125,17.125 C 15.52018,17.113145 14.533649,17.339742 13.53125,17.4375 C 12.974858,17.516707 12.40884,17.63601 11.84375,17.625 C 12.820827,17.403956 13.792741,17.031895 14.5625,16.375 C 15.486496,15.65676 16.389326,14.938012 17.3125,14.21875 z M 7.1875,14.28125 L 8.34375,14.28125 C 8.3850024,14.814743 8.438042,15.343932 8.5,15.875 C 8.5482754,16.253501 8.803854,16.612826 8.75,17 C 8.7009294,17.159711 8.5922992,17.356626 8.46875,17.5 C 8.4069754,17.571687 8.3639134,17.636489 8.28125,17.65625 C 8.1985866,17.676011 8.1050649,17.65781 8,17.59375 C 7.5041607,17.402882 7.0237596,17.088696 6.46875,17.125 C 5.9632149,17.119073 5.4685858,17.151366 4.96875,17.21875 C 4.4689142,17.286134 3.9699494,17.388621 3.46875,17.4375 C 3.1905537,17.477104 2.9037272,17.521772 2.625,17.5625 C 2.3462728,17.603228 2.0637952,17.630505 1.78125,17.625 C 2.7583268,17.403956 3.7302411,17.031895 4.5,16.375 C 5.4008014,15.67479 6.2873358,14.982253 7.1875,14.28125 z"
       transform="translate(-9.4308538e-2,-6.2511794e-2)"
       id="path2143" />
  </g>
</svg>
