<?xml version="1.0" encoding="UTF-8" standalone="no"?>
<svg
   xmlns:dc="http://purl.org/dc/elements/1.1/"
   xmlns:cc="http://web.resource.org/cc/"
   xmlns:rdf="http://www.w3.org/1999/02/22-rdf-syntax-ns#"
   xmlns:svg="http://www.w3.org/2000/svg"
   xmlns="http://www.w3.org/2000/svg"
   xmlns:sodipodi="http://sodipodi.sourceforge.net/DTD/sodipodi-0.dtd"
   xmlns:inkscape="http://www.inkscape.org/namespaces/inkscape"
   width="18.314608"
   height="9.84"
   id="svg1904"
   sodipodi:version="0.32"
   inkscape:version="0.44"
   sodipodi:docname="US22D3.svg"
   sodipodi:docbase="C:\Program Files\Inkscape\envoi31\Jseshopt">
  <metadata
     id="metadata1911">
    <rdf:RDF>
      <cc:Work
         rdf:about="">
        <dc:format>image/svg+xml</dc:format>
        <dc:type
           rdf:resource="http://purl.org/dc/dcmitype/StillImage" />
        <dc:title>US22D3</dc:title>
        <dc:date>30/09/06</dc:date>
        <dc:creator>
          <cc:Agent>
            <dc:title>sr 1 st</dc:title>
          </cc:Agent>
        </dc:creator>
        <dc:publisher>
          <cc:Agent>
            <dc:title>Serge Rosmorduc</dc:title>
          </cc:Agent>
        </dc:publisher>
        <dc:description>variante optimisée du signe Jsesh D3</dc:description>
        <cc:license
           rdf:resource="http://creativecommons.org/licenses/GPL/2.0/" />
      </cc:Work>
      <cc:License
         rdf:about="http://creativecommons.org/licenses/GPL/2.0/">
        <cc:permits
           rdf:resource="http://web.resource.org/cc/Reproduction" />
        <cc:permits
           rdf:resource="http://web.resource.org/cc/Distribution" />
        <cc:requires
           rdf:resource="http://web.resource.org/cc/Notice" />
        <cc:permits
           rdf:resource="http://web.resource.org/cc/DerivativeWorks" />
        <cc:requires
           rdf:resource="http://web.resource.org/cc/ShareAlike" />
        <cc:requires
           rdf:resource="http://web.resource.org/cc/SourceCode" />
      </cc:License>
    </rdf:RDF>
  </metadata>
  <defs
     id="defs1909" />
  <sodipodi:namedview
     inkscape:window-height="569"
     inkscape:window-width="939"
     inkscape:pageshadow="2"
     inkscape:pageopacity="0.0"
     guidetolerance="10.0"
     gridtolerance="10.0"
     objecttolerance="10.0"
     borderopacity="1.0"
     bordercolor="#666666"
     pagecolor="#ffffff"
     id="base"
     inkscape:zoom="38.313008"
     inkscape:cx="9.1573039"
     inkscape:cy="4.9200002"
     inkscape:window-x="60"
     inkscape:window-y="68"
     inkscape:current-layer="svg1904" />
  <path
     style="fill:#000000; stroke:none"
     d=" M 12.651081 1.33382  Q 11.519354 0.707329 8.205014 0.687119  L 0.687119 0.687119  L 0.687119 1.33382  L 12.651081 1.33382  Z  M 8.710249 2.020939  Q 10.00365 3.880204 10.609931 4.860359  Q 11.216213 5.840514 11.317261 7.517895  Q 11.256631 7.942292 11.85281 8.275747  Q 12.448988 8.609202 12.388359 9.397369  Q 12.00438 10.205742 11.216213 9.538832  Q 10.731186 8.972971 10.195639 6.952032  Q 9.66009 4.931092 8.972971 3.647795  Q 8.285852 2.364499 6.850985 2.020939  L 0 2.020939  L 0 0  L 8.205014 0  Q 11.196006 0 13.115897 0.66691  Q 14.126366 1.172145 14.631602 2.020939  Q 15.925003 3.880204 16.531286 4.860359  Q 17.137569 5.840514 17.238615 7.517895  Q 17.177988 7.942292 17.774162 8.275747  Q 18.37034 8.609202 18.309713 9.397369  Q 17.925735 10.205742 17.137569 9.538832  Q 16.65254 8.972971 16.116991 6.952032  Q 15.581443 4.931092 14.894325 3.647795  Q 14.207205 2.364499 12.772338 2.020939  L 11.6204 2.020939  Q 12.913804 3.880204 13.520086 4.860359  Q 14.126366 5.840514 14.227415 7.517895  Q 14.186997 7.942292 14.773068 8.275747  Q 15.35914 8.609202 15.298511 9.397369  Q 14.914535 10.205742 14.126366 9.538832  Q 13.661551 8.972971 13.115897 6.952032  Q 12.570243 4.931092 11.883123 3.647795  Q 11.196006 2.364499 9.761137 2.020939  L 8.710249 2.020939  Z "
     id="path1906" />
</svg>
