<?xml version="1.0" encoding="UTF-8" standalone="no"?>
<!-- Created with Inkscape (http://www.inkscape.org/) -->
<svg
   xmlns:dc="http://purl.org/dc/elements/1.1/"
   xmlns:cc="http://creativecommons.org/ns#"
   xmlns:rdf="http://www.w3.org/1999/02/22-rdf-syntax-ns#"
   xmlns:svg="http://www.w3.org/2000/svg"
   xmlns="http://www.w3.org/2000/svg"
   xmlns:sodipodi="http://sodipodi.sourceforge.net/DTD/sodipodi-0.dtd"
   xmlns:inkscape="http://www.inkscape.org/namespaces/inkscape"
   sodipodi:docname="D311.svg"
   sodipodi:docbase="/home/rosmord/Travail/Gsigns/Ramessides/Fontes"
   inkscape:version="0.46"
   sodipodi:version="0.32"
   id="svg1290"
   height="18.272266"
   width="22.477434"
   inkscape:output_extension="org.inkscape.output.svg.inkscape"
   version="1.0">
  <defs
     id="defs3">
    <inkscape:perspective
       sodipodi:type="inkscape:persp3d"
       inkscape:vp_x="0 : 9 : 1"
       inkscape:vp_y="0 : 1000 : 0"
       inkscape:vp_z="18 : 9 : 1"
       inkscape:persp3d-origin="9 : 6 : 1"
       id="perspective2508" />
  </defs>
  <sodipodi:namedview
     inkscape:window-y="-4"
     inkscape:window-x="-4"
     inkscape:window-height="708"
     inkscape:window-width="1024"
     inkscape:current-layer="layer1"
     inkscape:document-units="px"
     inkscape:cy="7.2669905"
     inkscape:cx="9.0000002"
     inkscape:zoom="19.944444"
     inkscape:pageshadow="2"
     inkscape:pageopacity="0.0"
     borderopacity="1.0"
     bordercolor="#666666"
     pagecolor="#ffffff"
     id="base"
     showgrid="false"
     showguides="true"
     inkscape:guide-bbox="true" />
  <metadata
     id="metadata4">
    <rdf:RDF>
      <cc:Work
         rdf:about="">
        <dc:format>image/svg+xml</dc:format>
        <dc:type
           rdf:resource="http://purl.org/dc/dcmitype/StillImage" />
        <cc:license
           rdf:resource="http://creativecommons.org/licenses/by/2.0/" />
        <dc:subject>
          <rdf:Bag>
            <rdf:li>JSesh hieroglyph</rdf:li>
          </rdf:Bag>
        </dc:subject>
        <dc:creator>
          <cc:Agent>
            <dc:title>Serge Rosmorduc</dc:title>
          </cc:Agent>
        </dc:creator>
        <dc:description>Sign from Karnak Hypostyle Hall
</dc:description>
      </cc:Work>
      <cc:License
         rdf:about="http://creativecommons.org/licenses/by/2.0/">
        <cc:permits
           rdf:resource="http://web.resource.org/cc/Reproduction" />
        <cc:permits
           rdf:resource="http://web.resource.org/cc/Distribution" />
        <cc:requires
           rdf:resource="http://web.resource.org/cc/Notice" />
        <cc:requires
           rdf:resource="http://web.resource.org/cc/Attribution" />
        <cc:permits
           rdf:resource="http://web.resource.org/cc/DerivativeWorks" />
        <cc:requires
           rdf:resource="http://web.resource.org/cc/ShareAlike" />
      </cc:License>
    </rdf:RDF>
  </metadata>
  <g
     id="layer1"
     inkscape:groupmode="layer"
     inkscape:label="Layer 1"
     transform="translate(0.1116779,6.2535212e-2)">
    <path
       style="opacity:0.99415205;fill:#000000;fill-opacity:1;fill-rule:nonzero;stroke:none;stroke-width:0.60000002;stroke-linecap:butt;stroke-linejoin:round;stroke-miterlimit:4;stroke-opacity:1;display:inline"
       d="M 8.9375,0 C 8.4202894,0.017006043 7.6405114,-0.001339292 7.125,0.03125 C 6.8493963,0.11101245 6.9021867,0.4348397 6.90625,0.65625 C 6.9294739,2.0629595 6.9447977,3.468962 6.96875,4.875 L 3,4.875 L 3,10.59375 L 7.0625,10.59375 C 7.0794363,11.593791 7.1084835,12.593321 7.125,13.59375 C 5.9813124,14.468245 4.8377212,15.353114 3.6875,16.21875 C 3.0438887,16.637867 2.3137839,16.893434 1.5625,17.03125 C 1.1188286,17.026817 0.65541575,16.743417 0.21875,16.9375 C -0.03930226,17.135661 -0.12656728,17.677627 0.21875,17.84375 C 1.0665019,18.298429 2.0770794,18.269501 3,18.09375 C 3.8300099,17.952779 4.6665024,17.899032 5.5,17.78125 C 6.0705167,17.731665 6.6915619,17.618689 7.21875,17.90625 C 7.6579752,18.101021 8.1692591,18.427644 8.65625,18.1875 C 8.9366203,18.01258 9.1293265,17.715343 9.25,17.40625 C 9.238672,17.587362 9.2960914,17.760689 9.46875,17.84375 C 10.316502,18.298429 11.32708,18.269501 12.25,18.09375 C 13.08001,17.952779 13.916502,17.899032 14.75,17.78125 C 15.320517,17.731665 15.941562,17.618689 16.46875,17.90625 C 16.907975,18.101021 17.41926,18.427644 17.90625,18.1875 C 18.290321,17.947884 18.50017,17.494265 18.59375,17.0625 C 18.671265,16.499209 18.305742,15.997268 18.3125,15.4375 C 18.268822,14.825547 18.183568,14.20633 18.15625,13.59375 C 18.161751,12.808935 18.175898,11.598803 18.1875,10.59375 L 22.46875,10.59375 L 22.46875,4.875 L 18.25,4.875 C 18.272654,2.1660407 18.269931,-0.0058050884 18.1875,0 C 17.670291,0.017006043 16.890512,-0.001339292 16.375,0.03125 C 16.099397,0.11101245 16.152186,0.4348397 16.15625,0.65625 C 16.179475,2.0629595 16.194798,3.468962 16.21875,4.875 L 9,4.875 C 9.0226538,2.1660407 9.0199312,-0.0058050884 8.9375,0 z M 8.40625,0.59375 C 8.3964544,2.0196573 8.3856125,3.4475294 8.375,4.875 L 7.59375,4.875 C 7.5666014,3.3813807 7.5183328,1.722348 7.5,0.625 C 7.8020835,0.61458333 8.1041667,0.60416667 8.40625,0.59375 z M 17.65625,0.59375 C 17.646455,2.0196573 17.635612,3.4475294 17.625,4.875 L 16.84375,4.875 C 16.816601,3.3813807 16.768333,1.722348 16.75,0.625 C 17.052084,0.61458333 17.354167,0.60416667 17.65625,0.59375 z M 3.71875,5.65625 L 8.21875,5.65625 L 10.78125,9.8125 L 3.71875,9.8125 L 3.71875,5.65625 z M 9.125,5.65625 L 10.875,5.65625 L 13.5,9.8125 L 11.75,9.8125 L 9.125,5.65625 z M 11.78125,5.65625 L 13.5,5.65625 L 16.15625,9.8125 L 14.40625,9.8125 L 11.78125,5.65625 z M 14.40625,5.65625 L 21.78125,5.65625 L 21.78125,9.8125 L 17.03125,9.8125 L 14.40625,5.65625 z M 7.6875,10.59375 L 8.34375,10.59375 C 8.3363799,11.64593 8.3190033,12.698791 8.3125,13.75 C 8.3762783,14.459679 8.4174602,15.167516 8.5,15.875 C 8.548275,16.253501 8.803854,16.612826 8.75,17 C 8.6518584,17.319421 8.4202595,17.849991 8,17.59375 C 7.5041603,17.402882 7.0237596,17.088696 6.46875,17.125 C 5.4576799,17.113145 4.4711487,17.339742 3.46875,17.4375 C 2.9123574,17.516707 2.3463404,17.63601 1.78125,17.625 C 2.7583268,17.403956 3.7302411,17.031895 4.5,16.375 C 5.5479162,15.560435 6.5791839,14.754678 7.625,13.9375 C 7.6782008,13.872041 7.7049365,12.408436 7.6875,10.59375 z M 8.9375,10.59375 L 16.3125,10.59375 C 16.329436,11.593791 16.358483,12.593321 16.375,13.59375 C 15.231313,14.468245 14.087721,15.353114 12.9375,16.21875 C 12.293888,16.637867 11.563783,16.893434 10.8125,17.03125 C 10.368828,17.026817 9.9054157,16.743417 9.46875,16.9375 C 9.4222156,16.973234 9.377731,17.008608 9.34375,17.0625 C 9.4212631,16.499209 9.0557414,15.997268 9.0625,15.4375 C 9.018819,14.825547 8.9335675,14.20633 8.90625,13.59375 C 8.911751,12.808935 8.9258981,11.598803 8.9375,10.59375 z M 16.9375,10.59375 L 17.59375,10.59375 C 17.58638,11.64593 17.569003,12.698791 17.5625,13.75 C 17.62628,14.459679 17.66746,15.167516 17.75,15.875 C 17.798276,16.253501 18.053854,16.612826 18,17 C 17.901859,17.319421 17.67026,17.849991 17.25,17.59375 C 16.754161,17.402882 16.27376,17.088696 15.71875,17.125 C 14.70768,17.113145 13.721148,17.339742 12.71875,17.4375 C 12.162357,17.516707 11.59634,17.63601 11.03125,17.625 C 12.008327,17.403956 12.980241,17.031895 13.75,16.375 C 14.797916,15.560435 15.829184,14.754678 16.875,13.9375 C 16.928201,13.872041 16.954937,12.408436 16.9375,10.59375 z"
       transform="translate(-0.1029932,-6.2523602e-2)"
       id="path2143" />
  </g>
</svg>
