<?xml version="1.0" encoding="UTF-8" standalone="no"?>
<!-- Created with Inkscape (http://www.inkscape.org/) -->
<svg
   xmlns:dc="http://purl.org/dc/elements/1.1/"
   xmlns:cc="http://creativecommons.org/ns#"
   xmlns:rdf="http://www.w3.org/1999/02/22-rdf-syntax-ns#"
   xmlns:svg="http://www.w3.org/2000/svg"
   xmlns="http://www.w3.org/2000/svg"
   xmlns:sodipodi="http://sodipodi.sourceforge.net/DTD/sodipodi-0.dtd"
   xmlns:inkscape="http://www.inkscape.org/namespaces/inkscape"
   sodipodi:docname="D314.svg"
   sodipodi:docbase="/home/rosmord/Travail/Gsigns/Ramessides/Fontes"
   inkscape:version="0.46"
   sodipodi:version="0.32"
   id="svg1290"
   height="18.272266"
   width="16.514256"
   inkscape:output_extension="org.inkscape.output.svg.inkscape"
   version="1.0">
  <defs
     id="defs3">
    <inkscape:perspective
       sodipodi:type="inkscape:persp3d"
       inkscape:vp_x="0 : 9 : 1"
       inkscape:vp_y="0 : 1000 : 0"
       inkscape:vp_z="18 : 9 : 1"
       inkscape:persp3d-origin="9 : 6 : 1"
       id="perspective2508" />
  </defs>
  <sodipodi:namedview
     inkscape:window-y="79"
     inkscape:window-x="77"
     inkscape:window-height="667"
     inkscape:window-width="816"
     inkscape:current-layer="layer1"
     inkscape:document-units="px"
     inkscape:cy="9.2725616"
     inkscape:cx="9.0000002"
     inkscape:zoom="19.944444"
     inkscape:pageshadow="2"
     inkscape:pageopacity="0.0"
     borderopacity="1.0"
     bordercolor="#666666"
     pagecolor="#ffffff"
     id="base"
     showgrid="false" />
  <metadata
     id="metadata4">
    <rdf:RDF>
      <cc:Work
         rdf:about="">
        <dc:format>image/svg+xml</dc:format>
        <dc:type
           rdf:resource="http://purl.org/dc/dcmitype/StillImage" />
        <cc:license
           rdf:resource="http://creativecommons.org/licenses/by/2.0/" />
        <dc:subject>
          <rdf:Bag>
            <rdf:li>JSesh hieroglyph</rdf:li>
          </rdf:Bag>
        </dc:subject>
        <dc:creator>
          <cc:Agent>
            <dc:title>Serge Rosmorduc</dc:title>
          </cc:Agent>
        </dc:creator>
        <dc:description>Sign from Karnak Hypostyle Hall
</dc:description>
      </cc:Work>
      <cc:License
         rdf:about="http://creativecommons.org/licenses/by/2.0/">
        <cc:permits
           rdf:resource="http://web.resource.org/cc/Reproduction" />
        <cc:permits
           rdf:resource="http://web.resource.org/cc/Distribution" />
        <cc:requires
           rdf:resource="http://web.resource.org/cc/Notice" />
        <cc:requires
           rdf:resource="http://web.resource.org/cc/Attribution" />
        <cc:permits
           rdf:resource="http://web.resource.org/cc/DerivativeWorks" />
        <cc:requires
           rdf:resource="http://web.resource.org/cc/ShareAlike" />
      </cc:License>
    </rdf:RDF>
  </metadata>
  <g
     id="layer1"
     inkscape:groupmode="layer"
     inkscape:label="Layer 1"
     transform="translate(0.7818085,6.2523677e-2)">
    <path
       style="opacity:0.99415205;fill:#000000;fill-opacity:1;fill-rule:nonzero;stroke:none;stroke-width:0.60000002;stroke-linecap:butt;stroke-linejoin:round;stroke-miterlimit:4;stroke-opacity:1;display:inline"
       d="M 8.9375,0 C 8.4202898,0.017006043 7.6405114,-0.001339292 7.125,0.03125 C 6.8493963,0.11101245 6.9021867,0.4348397 6.90625,0.65625 C 6.9330886,2.2819023 6.9731614,3.9055977 7,5.53125 L 2.9375,5.53125 C 1.8861407,5.0720353 1.0215253,4.8508304 0.375,4.875 C -0.271526,4.8991693 -0.61499265,5.2699204 -0.6875,6.03125 C -0.59082333,6.853002 -0.266522,7.2620846 0.34375,7.25 C 0.954022,7.2379154 1.8378027,7.0167105 2.9375,6.59375 L 7,6.59375 C 7.0139367,7.4379166 7.0485633,8.2808334 7.0625,9.125 L 2.9375,9.125 C 1.8861407,8.6657854 1.0215253,8.4445803 0.375,8.46875 C -0.271526,8.4929187 -0.61499265,8.8949208 -0.6875,9.65625 C -0.59082333,10.478003 -0.266522,10.887085 0.34375,10.875 C 0.954022,10.862915 1.8378027,10.641711 2.9375,10.21875 L 7.0625,10.21875 C 7.0810804,11.344188 7.1064197,12.468312 7.125,13.59375 C 5.9813124,14.468245 4.8377212,15.353114 3.6875,16.21875 C 3.0438887,16.637867 2.3137839,16.893434 1.5625,17.03125 C 1.1188286,17.026817 0.65541575,16.743417 0.21875,16.9375 C -0.039302257,17.135661 -0.12656728,17.677627 0.21875,17.84375 C 1.0665019,18.298429 2.0770794,18.269501 3,18.09375 C 3.8300099,17.952779 4.6665024,17.899032 5.5,17.78125 C 6.0705167,17.731665 6.6915619,17.618689 7.21875,17.90625 C 7.6579752,18.101021 8.1692591,18.427644 8.65625,18.1875 C 9.0403195,17.947884 9.2501697,17.494265 9.34375,17.0625 C 9.4212635,16.499209 9.0557414,15.997268 9.0625,15.4375 C 9.0188194,14.825547 8.9335675,14.20633 8.90625,13.59375 C 8.9124386,12.710844 8.9240058,11.368884 8.9375,10.21875 L 12.8125,10.21875 C 14.105552,10.242919 14.991409,9.860083 15.46875,9.0625 C 15.946091,8.2649167 15.946091,7.4538326 15.46875,6.65625 C 14.991409,5.8586667 14.105552,5.4949959 12.8125,5.53125 L 9,5.53125 C 9.0289087,2.4939893 9.0269699,-0.0063007792 8.9375,0 z M 8.40625,0.59375 C 8.3949531,2.2382156 8.3869816,3.8867593 8.375,5.53125 L 7.59375,5.53125 C 7.5608408,3.7854803 7.5211624,1.8917201 7.5,0.625 C 7.8020835,0.61458332 8.1041667,0.60416667 8.40625,0.59375 z M 0.3125,5.46875 C 0.40691096,5.4491125 0.52936166,5.4596866 0.65625,5.46875 C 1.1638027,5.505004 1.7082707,5.6807965 2.3125,6.03125 C 1.7082707,6.405872 1.1638027,6.6260388 0.65625,6.65625 C 0.14869667,6.686462 -0.10583466,6.4662952 -0.09375,6.03125 C -0.1028135,5.7140296 0.029267124,5.5276626 0.3125,5.46875 z M 7.625,6.59375 L 8.375,6.59375 C 8.3688708,7.4368473 8.3497197,8.2819085 8.34375,9.125 L 7.65625,9.125 C 7.6433353,8.2659385 7.6418008,7.515522 7.625,6.59375 z M 8.96875,6.59375 L 13.40625,6.59375 C 14.264257,6.666258 14.681458,7.0874246 14.6875,7.8125 C 14.693543,8.5375754 14.276341,8.9678997 13.40625,9.125 L 8.96875,9.125 C 8.9794186,8.2330627 8.9591139,7.4870819 8.96875,6.59375 z M 0.65625,9.0625 C 1.1638027,9.098754 1.7082707,9.3057975 2.3125,9.65625 C 1.7082707,10.030873 1.1638027,10.219789 0.65625,10.25 C 0.14869667,10.280211 -0.10583466,10.091295 -0.09375,9.65625 C -0.10583466,9.2332894 0.14869665,9.0262461 0.65625,9.0625 z M 7.65625,10.21875 L 8.34375,10.21875 C 8.3355956,11.394879 8.3197759,12.573903 8.3125,13.75 C 8.3762787,14.459679 8.4174602,15.167516 8.5,15.875 C 8.5482754,16.253501 8.803854,16.612826 8.75,17 C 8.6518588,17.319421 8.4202595,17.849991 8,17.59375 C 7.5041607,17.402882 7.0237596,17.088696 6.46875,17.125 C 5.4576799,17.113145 4.4711487,17.339742 3.46875,17.4375 C 2.9123574,17.516707 2.3463404,17.63601 1.78125,17.625 C 2.7583268,17.403956 3.7302411,17.031895 4.5,16.375 C 5.5479162,15.560435 6.5791839,14.754678 7.625,13.9375 C 7.6819368,13.867444 7.6808099,12.2343 7.65625,10.21875 z"
       transform="translate(-9.4308538e-2,-6.2511794e-2)"
       id="path2143" />
  </g>
</svg>
