<?xml version="1.0" encoding="UTF-8" standalone="no"?>
<svg
   xmlns:dc="http://purl.org/dc/elements/1.1/"
   xmlns:cc="http://creativecommons.org/ns#"
   xmlns:rdf="http://www.w3.org/1999/02/22-rdf-syntax-ns#"
   xmlns:svg="http://www.w3.org/2000/svg"
   xmlns="http://www.w3.org/2000/svg"
   xmlns:sodipodi="http://sodipodi.sourceforge.net/DTD/sodipodi-0.dtd"
   xmlns:inkscape="http://www.inkscape.org/namespaces/inkscape"
   width="19.382357"
   height="9.889306"
   id="svg2445"
   sodipodi:version="0.32"
   inkscape:version="0.46"
   sodipodi:docname="D318.svg"
   inkscape:output_extension="org.inkscape.output.svg.inkscape">
  <metadata
     id="metadata2452">
    <rdf:RDF>
      <cc:Work
         rdf:about="">
        <dc:format>image/svg+xml</dc:format>
        <dc:type
           rdf:resource="http://purl.org/dc/dcmitype/StillImage" />
      </cc:Work>
    </rdf:RDF>
  </metadata>
  <defs
     id="defs2450">
    <inkscape:perspective
       sodipodi:type="inkscape:persp3d"
       inkscape:vp_x="0 : 4.944653 : 1"
       inkscape:vp_y="0 : 1000 : 0"
       inkscape:vp_z="19.382357 : 4.944653 : 1"
       inkscape:persp3d-origin="9.6911783 : 3.2964354 : 1"
       id="perspective2454" />
  </defs>
  <sodipodi:namedview
     inkscape:window-height="708"
     inkscape:window-width="1024"
     inkscape:pageshadow="2"
     inkscape:pageopacity="0.0"
     guidetolerance="10.0"
     gridtolerance="10.0"
     objecttolerance="10.0"
     borderopacity="1.0"
     bordercolor="#666666"
     pagecolor="#ffffff"
     id="base"
     showgrid="false"
     inkscape:zoom="47.873754"
     inkscape:cx="9.6901988"
     inkscape:cy="5.1309581"
     inkscape:window-x="-4"
     inkscape:window-y="-4"
     inkscape:current-layer="svg2445" />
  <path
     style="fill:#000000; stroke:none"
     d="M 9.682327,4.30331 L 9.682327,4.30331 C 9.682327,4.30331 9.682327,4.30331 9.682327,4.30331 L 9.682327,4.30331 C 9.682327,4.30331 9.682327,4.30331 9.682327,4.30331 z M 0.004039,8.745167 L 0.004039,8.745167 L 0.004039,8.745167 C 0.004039,8.745167 0.004039,8.745167 0.004039,8.745167 z M 14.193942,0.750028 C 14.214041,0.750028 14.234237,0.750161 14.25453,0.750428 C 14.261507,0.750382 14.268473,0.750359 14.275428,0.750359 C 15.051844,0.750359 15.691536,1.034222 16.229425,1.511329 C 16.799879,2.017318 17.255386,2.738717 17.611399,3.580733 C 18.255301,5.103602 18.566198,7.008568 18.610941,8.765687 L 18.610941,8.765687 L 0.754236,8.746151 L 0.754222,8.746151 C 0.800763,6.994457 1.111739,5.09796 1.753255,3.580733 C 2.109266,2.738717 2.564776,2.017318 3.135228,1.511329 C 3.673092,1.034245 4.312748,0.750387 5.081832,0.750387 C 5.08876,0.750387 5.095698,0.75041 5.102646,0.750457 C 5.123066,0.750189 5.143386,0.750056 5.163609,0.750056 C 6.67979,0.750056 7.643344,1.499642 8.275184,2.646543 C 8.926493,3.828848 9.219506,5.424244 9.306837,7.087499 L 9.306836,7.087499 L 9.282832,7.645197 C 9.268083,8.1132347 10.072131,8.1151881 10.069979,7.6510573 L 10.057818,7.087498 L 10.057818,7.087498 C 10.145148,5.424243 10.438162,3.828847 11.089471,2.646543 C 11.721321,1.499621 12.6849,0.750028 14.193942,0.750028 z M 18.610941,8.765687 L 18.610954,8.765687 L 18.610941,8.765687 C 18.610941,8.765687 18.610941,8.765687 18.610941,8.765687 z M 14.186782,0 C 12.411368,0 11.19639,0.897934 10.432418,2.284905 C 10.105534,2.87833 9.860504,3.562865 9.682327,4.30331 L 9.682327,4.30331 C 9.50415,3.562865 9.259121,2.87833 8.932237,2.284905 C 8.168276,0.897956 6.953323,2.8e-05 5.170764,2.8e-05 C 5.147199,2.8e-05 5.123534,0.000185 5.09977,0.000499 C 5.0913,0.000443 5.082839,0.000415 5.074389,0.000415 C 4.128869,0.000415 3.312945,0.351173 2.637555,0.950239 C 1.983873,1.530052 1.46194,2.343944 1.062567,3.288414 C 0.382401,4.89697 0.051494,6.8952 0.004039,8.745167 L 0.004039,8.745167 L 0.00115,8.745162 L 0.000931,8.888006 L 0.000931,8.888006 C -0.002609,9.086331 -0.002882,9.282776 2.8e-05,9.47667 L 2.8e-05,9.47667 L 0,9.495161 L 0.000316,9.495162 L 0.000316,9.495162 C 0.000419,9.501564 0.000525,9.507963 0.000635,9.514359 L 19.363981,9.516669 L 19.363981,9.516669 L 19.381207,9.516696 L 19.382357,8.766697 L 19.361155,8.766665 L 19.361155,8.766665 C 19.31572,6.910692 18.98489,4.903203 18.302088,3.288414 C 17.902714,2.343944 17.380781,1.530052 16.727098,0.950239 C 16.051682,0.351149 15.235722,0.000387 14.28287,0.000387 C 14.274393,0.000387 14.265905,0.000415 14.257406,0.000471 C 14.233768,0.000157 14.210226,0 14.186782,0 z"
     id="path2447"
     sodipodi:nodetypes="ccccccccccssssccccssssssccccccsccccccsccsssssscccccccccccccccccssssc" />
</svg>
