<?xml version="1.0" encoding="UTF-8" standalone="no"?>
<svg
   xmlns:dc="http://purl.org/dc/elements/1.1/"
   xmlns:cc="http://creativecommons.org/ns#"
   xmlns:rdf="http://www.w3.org/1999/02/22-rdf-syntax-ns#"
   xmlns:svg="http://www.w3.org/2000/svg"
   xmlns="http://www.w3.org/2000/svg"
   xmlns:sodipodi="http://sodipodi.sourceforge.net/DTD/sodipodi-0.dtd"
   xmlns:inkscape="http://www.inkscape.org/namespaces/inkscape"
   width="2521.8569"
   height="1800.0312"
   id="svg2"
   version="1.1"
   inkscape:version="0.48.0 r9654"
   sodipodi:docname="D321.svg">
  <metadata
     id="metadata12">
    <rdf:RDF>
      <cc:Work
         rdf:about="">
        <dc:format>image/svg+xml</dc:format>
        <dc:type
           rdf:resource="http://purl.org/dc/dcmitype/StillImage" />
        <dc:title />
      </cc:Work>
    </rdf:RDF>
  </metadata>
  <defs
     id="defs10" />
  <sodipodi:namedview
     pagecolor="#ffffff"
     bordercolor="#666666"
     borderopacity="1"
     objecttolerance="10"
     gridtolerance="10"
     guidetolerance="10"
     inkscape:pageopacity="0"
     inkscape:pageshadow="2"
     inkscape:window-width="1920"
     inkscape:window-height="1152"
     id="namedview8"
     showgrid="false"
     inkscape:snap-page="false"
     inkscape:zoom="0.31818901"
     inkscape:cx="1533.1659"
     inkscape:cy="906"
     inkscape:window-x="1280"
     inkscape:window-y="0"
     inkscape:window-maximized="1"
     inkscape:current-layer="layer1"
     inkscape:snap-to-guides="false"
     inkscape:snap-grids="false"
     fit-margin-top="0"
     fit-margin-left="0"
     fit-margin-right="0"
     fit-margin-bottom="0" />
  <g
     inkscape:groupmode="layer"
     id="layer1"
     inkscape:label="tmp"
     style="display:inline"
     transform="translate(189.79435,-5.96875)">
    <path
       style="fill:#000000;stroke:none"
       d="m 428.71875,5.96875 -97,1.34375 0,54.71875 -300.4375,0 -0.53125,0 c -45.06503,0 -44.90422,100.73092 0.53125,103.25 l 300.4375,3.09375 0,90.4375 -300.4375,0 -0.3125,0 c -45.28473,0 -45.1965,101.09201 0.3125,103.28125 l 300.4375,0 0,166.84375 c -5.45994,1.76647 -10.93661,3.54385 -16.40625,5.34375 -22.9874,-61.0552 -77.18935,-91.59375 -162.59375,-91.59375 -35.6912,0 -76.81385,5.2983 -123.40625,16 -185.7864,41.3507 -253.42715,132.43715 -202.90625,273.28125 40.091,111.69544 139.342851,167.5625 297.78125,167.5625 60.52941,0 129.72904,-8.16904 207.53125,-24.5 l 0,64.78125 -328.59375,-3.75 247.21875,413.0625 -250.34375,0 0,312.9375 1671.0312,0 222.1876,143.9375 0,-456.875 -90.75,0 0,-371.90625 c 140.8865,58.22065 282.3913,130.23025 424.5,216.03125 L 2332.0625,1071.1562 1879.8438,859.875 C 1941.7729,801.73251 2033.8346,732.6089 2156.0625,652.5 2041.7141,587.19126 1923.8589,534.0353 1802.4688,493 l 0,-486.34375 -97,0 0,54.71875 -303.5626,0 -0.4374,0 c -36.7319,0 -36.5957,102.51029 0.4374,103.25 l 303.5626,3.09375 0,90.4375 -303.5626,0 -0.25,0 c -36.903,0 -36.8316,101.09198 0.25,103.28125 l 303.5626,0 -0.4063,101.4375 c -175.6833,-49.30543 -358.5424,-73.9375 -548.5313,-73.9375 -231.94889,0 -474.54123,36.73204 -727.81245,110.21875 l 0,-493.1875 z M 1110.125,476.125 c 283.0431,0 556.7103,62.657 821.0312,188 -73.3366,43.9324 -142.593,97.55798 -207.7812,160.875 -310.2827,-90.64513 -523.1829,-139.96875 -760.6875,-139.96875 -181.04674,0 -376.38425,28.65064 -640.03125,89.5625 -66.5978,15.09271 -124.2929,22.625 -173.0625,22.625 -101.603399,0 -164.5249,-32.70809 -188.75,-98.1875 -27.7051,-77.5271 4.88745,-126.637 97.78125,-147.3125 C 76.5139,547.85725 93.310801,546 109,546 177.6386,546 225.2197,582.816 251.75,656.4375 546.8462,536.258 832.97838,476.15625 1110.125,476.15625 l 0,-0.0312 z m -191.65625,316.75 c 257.26855,0 516.62805,47.72231 778.12505,143.15625 l -316.5626,-0.65625 247.1876,413.0625 -1198.50005,0 0,-497.3125 c 162.3834,-38.82916 325.64631,-58.25 489.75,-58.25 z m -777.65625,209.5625 187.75,0 0,297.2813 -187.75,-297.2813 z m 1370.625,0 190.9063,0 0,297.2813 -190.9063,-297.2813 z m -1436.34375,422.4687 1752.40625,0 0,262.8438 -156.4688,-100.125 -1595.93745,0 0,-162.7188 z"
       id="path4"
       inkscape:connector-curvature="0" />
  </g>
</svg>
