<?xml version="1.0" encoding="UTF-8" standalone="no"?>
<svg
   xmlns:dc="http://purl.org/dc/elements/1.1/"
   xmlns:cc="http://creativecommons.org/ns#"
   xmlns:rdf="http://www.w3.org/1999/02/22-rdf-syntax-ns#"
   xmlns:svg="http://www.w3.org/2000/svg"
   xmlns="http://www.w3.org/2000/svg"
   xmlns:sodipodi="http://sodipodi.sourceforge.net/DTD/sodipodi-0.dtd"
   xmlns:inkscape="http://www.inkscape.org/namespaces/inkscape"
   width="13.584763"
   height="17.833858"
   id="svg3079"
   sodipodi:version="0.32"
   inkscape:version="0.46"
   sodipodi:docname="D32A.svg"
   inkscape:output_extension="org.inkscape.output.svg.inkscape"
   version="1.0">
  <metadata
     id="metadata3086">
    <rdf:RDF>
      <cc:Work
         rdf:about="">
        <dc:format>image/svg+xml</dc:format>
        <dc:type
           rdf:resource="http://purl.org/dc/dcmitype/StillImage" />
      </cc:Work>
    </rdf:RDF>
  </metadata>
  <defs
     id="defs3084">
    <inkscape:perspective
       sodipodi:type="inkscape:persp3d"
       inkscape:vp_x="0 : 8.9322891 : 1"
       inkscape:vp_y="0 : 1000 : 0"
       inkscape:vp_z="15.270176 : 8.9322891 : 1"
       inkscape:persp3d-origin="7.635088 : 5.9548594 : 1"
       id="perspective3088" />
  </defs>
  <sodipodi:namedview
     inkscape:window-height="708"
     inkscape:window-width="1024"
     inkscape:pageshadow="2"
     inkscape:pageopacity="0.0"
     guidetolerance="10.0"
     gridtolerance="10.0"
     objecttolerance="10.0"
     borderopacity="1.0"
     bordercolor="#666666"
     pagecolor="#ffffff"
     id="base"
     showgrid="false"
     inkscape:zoom="28.225244"
     inkscape:cx="6.6110226"
     inkscape:cy="8.9089371"
     inkscape:window-x="-4"
     inkscape:window-y="-4"
     inkscape:current-layer="svg3079" />
  <path
     style="fill:#000000;stroke:none"
     d="M 6.7767564,6.9388939e-18 L 3.0580064,0.03125 C 2.5485429,0.58166837 2.1153644,1.5023937 1.6830064,2.5625 C 1.2506484,3.6226062 0.89740514,4.4630519 0.65175636,5.125 C 0.40610754,5.7869481 0.22484996,6.4555176 0.089256355,7.15625 C -0.075625605,7.5187986 -0.011472595,7.9328718 0.27675636,8.34375 C 0.56498531,8.7546278 0.79169263,9.1716896 0.96425636,9.65625 C 1.136821,10.14081 1.5666421,11.002832 2.2767564,12.15625 C 2.4848554,12.49426 2.6462343,12.766786 2.8080064,13.0625 L 2.7455064,13.4375 C 2.4847201,13.943386 2.4318288,14.353576 2.6205064,14.625 C 2.8091842,14.896425 2.9371759,15.172582 3.0267564,15.53125 C 3.1163355,15.889918 3.215153,16.139804 3.3080064,16.1875 C 3.3917096,16.230497 3.4742541,16.211128 3.5267564,16.15625 C 3.5389668,16.143487 3.5479972,16.141809 3.5580064,16.125 C 3.6442009,15.980231 3.6165547,15.659876 3.4330064,15.1875 C 3.3207791,14.898671 3.2998555,14.698846 3.3705064,14.625 C 3.4154042,14.578071 3.495378,14.588977 3.6205064,14.625 C 4.3785619,14.717865 4.3881247,15.913192 4.2455064,16.8125 C 4.1556535,17.144436 4.1906523,17.313371 4.2142564,17.5 C 4.3558594,17.871198 4.6198906,17.915373 4.8080064,17.71875 C 4.8727205,17.651109 4.9240495,17.56165 4.9642564,17.4375 L 4.9955064,16.6875 C 5.195034,15.540508 5.0469233,14.553992 4.5267564,13.78125 C 4.4960184,13.735587 4.466377,13.669322 4.4330064,13.625 C 4.1940721,13.307645 3.9891374,13.064365 3.8080064,12.78125 C 3.7369449,12.5399 3.6659461,12.27867 3.5892564,12.03125 C 3.3793837,11.354146 3.1590483,10.68003 2.9330064,10.03125 C 2.7069635,9.382471 2.2440793,8.5950571 1.5267564,7.59375 C 1.4585357,7.0500764 1.721899,6.5727675 2.2142564,5.78125 C 2.7066138,4.9897313 3.006585,4.0098372 3.3080064,2.9375 C 3.8963648,0.84435027 5.2021992,1.7429554 6.7767564,1.0625 C 6.7862528,1.0667114 6.7985301,1.0584048 6.8080064,1.0625 C 8.3825636,1.7429554 9.6883989,0.84435027 10.276756,2.9375 C 10.578178,4.0098372 10.878149,4.9897313 11.370506,5.78125 C 11.862863,6.5727675 12.126227,7.0500764 12.058006,7.59375 C 11.340683,8.5950571 10.877798,9.382471 10.651756,10.03125 C 10.425714,10.68003 10.205379,11.354146 9.9955064,12.03125 C 9.9188167,12.27867 9.8478183,12.5399 9.7767564,12.78125 C 9.5956254,13.064365 9.3906907,13.307645 9.1517564,13.625 C 9.1183858,13.669322 9.1199943,13.735587 9.0892564,13.78125 C 8.5690895,14.553992 8.3897283,15.540508 8.5892564,16.6875 L 8.6205064,17.4375 C 8.6607133,17.56165 8.7120427,17.651109 8.7767564,17.71875 C 8.9648722,17.915373 9.2289034,17.871198 9.3705064,17.5 C 9.3941105,17.313371 9.4603588,17.144436 9.3705064,16.8125 C 9.2278881,15.913192 9.2062011,14.717865 9.9642564,14.625 C 10.089384,14.588977 10.169358,14.578071 10.214256,14.625 C 10.284906,14.698846 10.263983,14.898671 10.151756,15.1875 C 9.9682078,15.659876 9.9405624,15.980231 10.026756,16.125 C 10.036766,16.141809 10.045796,16.143487 10.058006,16.15625 C 10.110509,16.211128 10.193052,16.230497 10.276756,16.1875 C 10.369609,16.139804 10.468427,15.889918 10.558006,15.53125 C 10.647586,15.172582 10.775579,14.896425 10.964256,14.625 C 11.152934,14.353576 11.100042,13.943386 10.839256,13.4375 L 10.776756,13.0625 C 10.938528,12.766786 11.099907,12.49426 11.308006,12.15625 C 12.01812,11.002832 12.447941,10.14081 12.620506,9.65625 C 12.793069,9.1716896 13.019777,8.7546278 13.308006,8.34375 C 13.596235,7.9328718 13.660388,7.5187986 13.495506,7.15625 C 13.359912,6.4555176 13.178654,5.7869481 12.933006,5.125 C 12.687357,4.4630519 12.334114,3.6226062 11.901756,2.5625 C 11.469398,1.5023937 11.036219,0.58166837 10.526756,0.03125 L 6.8080064,6.9388939e-18 L 6.7767564,6.9388939e-18 z"
     id="path3081" />
</svg>
