<?xml version="1.0" encoding="UTF-8" standalone="no"?>
<svg
   xmlns:dc="http://purl.org/dc/elements/1.1/"
   xmlns:cc="http://web.resource.org/cc/"
   xmlns:rdf="http://www.w3.org/1999/02/22-rdf-syntax-ns#"
   xmlns:svg="http://www.w3.org/2000/svg"
   xmlns="http://www.w3.org/2000/svg"
   xmlns:sodipodi="http://sodipodi.sourceforge.net/DTD/sodipodi-0.dtd"
   xmlns:inkscape="http://www.inkscape.org/namespaces/inkscape"
   width="17.467583"
   height="17.972717"
   id="svg1946"
   sodipodi:version="0.32"
   inkscape:version="0.44"
   sodipodi:docname="US22D33.svg"
   sodipodi:docbase="C:\Program Files\Inkscape\envoi31\Jseshopt">
  <metadata
     id="metadata1953">
    <rdf:RDF>
      <cc:Work
         rdf:about="">
        <dc:format>image/svg+xml</dc:format>
        <dc:type
           rdf:resource="http://purl.org/dc/dcmitype/StillImage" />
        <dc:creator>
          <cc:Agent>
            <dc:title>SR &amp; ST</dc:title>
          </cc:Agent>
        </dc:creator>
        <dc:publisher>
          <cc:Agent>
            <dc:title>Serge Rosmorduc</dc:title>
          </cc:Agent>
        </dc:publisher>
        <dc:date>30/09/06</dc:date>
        <cc:license
           rdf:resource="http://creativecommons.org/licenses/GPL/2.0/" />
        <dc:description>variante optimisée du signe Jsesh D33</dc:description>
        <dc:title>US22D33</dc:title>
      </cc:Work>
      <cc:License
         rdf:about="http://creativecommons.org/licenses/GPL/2.0/">
        <cc:permits
           rdf:resource="http://web.resource.org/cc/Reproduction" />
        <cc:permits
           rdf:resource="http://web.resource.org/cc/Distribution" />
        <cc:requires
           rdf:resource="http://web.resource.org/cc/Notice" />
        <cc:permits
           rdf:resource="http://web.resource.org/cc/DerivativeWorks" />
        <cc:requires
           rdf:resource="http://web.resource.org/cc/ShareAlike" />
        <cc:requires
           rdf:resource="http://web.resource.org/cc/SourceCode" />
      </cc:License>
    </rdf:RDF>
  </metadata>
  <defs
     id="defs1951" />
  <sodipodi:namedview
     inkscape:window-height="569"
     inkscape:window-width="939"
     inkscape:pageshadow="2"
     inkscape:pageopacity="0.0"
     guidetolerance="10.0"
     gridtolerance="10.0"
     objecttolerance="10.0"
     borderopacity="1.0"
     bordercolor="#666666"
     pagecolor="#ffffff"
     id="base"
     inkscape:zoom="20.976238"
     inkscape:cx="8.7337913"
     inkscape:cy="8.9863585"
     inkscape:window-x="71"
     inkscape:window-y="16"
     inkscape:current-layer="svg1946" />
  <path
     style="fill:#000000; stroke:none"
     d=" M 13.218043 0.920322  Q 13.045097 0.796789 12.798031 0.846202  Q 9.907356 1.785053 6.201363 1.340334  Q 5.85547 1.365041 5.954296 1.686227  Q 6.473135 3.366277 9.734409 5.738113  Q 12.970977 8.085242 14.725147 8.060535  Q 15.07104 8.03583 14.972214 7.73935  Q 13.39099 4.329836 13.39099 1.290921  Q 13.39099 1.043855 13.218043 0.920322  Z  M 9.882649 12.581848  L 14.132189 15.225456  Q 15.367519 15.027803 16.331078 15.756649  Q 17.294636 16.485495 17.467583 17.794945  Q 16.256958 18.214958 15.169867 17.65906  Q 14.082775 17.103161 13.712176 15.917242  L 9.51205 13.29834  Q 9.314397 13.44658 9.06733 13.421873  Q 8.474372 13.372459 8.252012 13.150101  Q 8.029653 12.927741 8.301425 12.557141  L 2.940088 9.246453  Q 2.470662 9.691173 2.075356 8.702909  L 0 7.418164  L 0.420013 6.726378  L 2.174183 7.813469  Q 2.989501 7.59111 3.211861 7.813469  Q 3.434221 8.03583 4.101299 8.258189  Q 5.63311 7.937003 6.571962 7.887589  Q 7.411987 6.726378 8.202599 5.713407  Q 4.298953 2.748612 5.163684 0.846202  Q 5.460164 0.475603 6.003709 0.475603  Q 9.759116 0.969735 12.87215 0.006177  Q 13.366283 -0.043237 13.736882 0.20383  Q 14.058068 0.475603 14.181602 0.969735  Q 14.231015 4.206303 15.861652 7.640523  Q 16.034599 8.134656 15.787532 8.554668  Q 14.403961 9.789999 11.562699 8.03583  Q 11.859179 8.851148 11.982713 9.987653  Q 10.969741 11.815943 9.882649 12.581848  Z  M 8.894384 11.964182  Q 9.06733 11.939476 9.314397 11.865355  Q 9.981476 11.39593 10.216188 10.852385  Q 10.450902 10.308839 10.796794 9.468813  Q 10.401488 8.332309 10.080302 7.072271  L 9.314397 6.528725  Q 7.856706 8.282895 7.066094 8.727614  Q 6.621375 8.974681 4.076593 8.974681  L 8.894384 11.964182  Z "
     id="path1948" />
</svg>
