<?xml version="1.0" encoding="UTF-8" standalone="no"?>
<svg
   xmlns:dc="http://purl.org/dc/elements/1.1/"
   xmlns:cc="http://creativecommons.org/ns#"
   xmlns:rdf="http://www.w3.org/1999/02/22-rdf-syntax-ns#"
   xmlns:svg="http://www.w3.org/2000/svg"
   xmlns="http://www.w3.org/2000/svg"
   xmlns:sodipodi="http://sodipodi.sourceforge.net/DTD/sodipodi-0.dtd"
   xmlns:inkscape="http://www.inkscape.org/namespaces/inkscape"
   width="21.947723"
   height="13.25"
   id="svg3673"
   sodipodi:version="0.32"
   inkscape:version="0.46"
   sodipodi:docname="D339vara.svg"
   inkscape:output_extension="org.inkscape.output.svg.inkscape"
   version="1.0">
  <metadata
     id="metadata3680">
    <rdf:RDF>
      <cc:Work
         rdf:about="">
        <dc:format>image/svg+xml</dc:format>
        <dc:type
           rdf:resource="http://purl.org/dc/dcmitype/StillImage" />
      </cc:Work>
    </rdf:RDF>
  </metadata>
  <defs
     id="defs3678">
    <inkscape:perspective
       sodipodi:type="inkscape:persp3d"
       inkscape:vp_x="0 : 6.5124512 : 1"
       inkscape:vp_y="0 : 1000 : 0"
       inkscape:vp_z="22.199829 : 6.5124512 : 1"
       inkscape:persp3d-origin="11.099915 : 4.3416341 : 1"
       id="perspective3682" />
  </defs>
  <sodipodi:namedview
     inkscape:window-height="708"
     inkscape:window-width="1024"
     inkscape:pageshadow="2"
     inkscape:pageopacity="0.0"
     guidetolerance="10.0"
     gridtolerance="10.0"
     objecttolerance="10.0"
     borderopacity="1.0"
     bordercolor="#666666"
     pagecolor="#ffffff"
     id="base"
     showgrid="false"
     inkscape:zoom="37.962264"
     inkscape:cx="10.973862"
     inkscape:cy="6.625"
     inkscape:window-x="-4"
     inkscape:window-y="-4"
     inkscape:current-layer="svg3673"
     showguides="true"
     inkscape:guide-bbox="true" />
  <path
     style="fill:#000000;stroke:none"
     d="M 2.7289737,-2.7755576e-17 C 1.9069627,0.01881967 1.1227208,0.47050823 0.54147368,1.03125 C -0.091656817,1.7018676 -0.16230313,2.7080182 0.29147368,3.5 C 0.80688387,4.6162191 2.0613103,5.0714788 3.1977237,5.25 C 3.7216284,6.2394226 4.2363189,7.2293273 4.7602237,8.21875 L 3.8852237,8.21875 C 3.8567796,8.2121851 3.8456577,8.21875 3.8227237,8.21875 C 3.6908536,8.2187499 3.6473984,8.314224 3.6977237,8.53125 C 3.7568003,8.7860191 3.9699737,9.0284613 4.3539737,9.25 C 4.3539736,10.128768 4.4176464,10.72848 4.5727237,11.03125 C 4.7573384,11.356173 5.2859924,11.5 6.1352237,11.5 L 6.4789737,11.46875 C 6.6333158,11.863624 6.8404279,12.234473 7.0102237,12.625 C 7.1573346,12.808552 7.0072329,13.178805 7.2914737,13.25 C 7.6094676,13.135998 7.9431678,12.927123 8.2602237,12.78125 C 8.5818581,12.711972 8.3592897,12.388643 8.1977237,12.25 C 8.0036664,11.985773 7.8524385,11.697359 7.6977237,11.40625 L 9.4477237,11.28125 L 21.947724,11.375 L 21.947724,5.59375 C 21.947724,4.8200656 21.550023,4.4375 20.728974,4.4375 C 19.907917,4.4375002 19.479305,4.6671054 19.447724,5.125 C 19.15331,7.6543001 18.944136,8.8902849 18.666474,9.21875 C 17.529301,9.0869702 16.44985,9.125 15.416474,9.125 C 13.384929,9.1585097 11.377034,9.4986263 9.3539737,9.65625 C 8.9219739,9.65625 8.610455,9.4911733 8.3852237,9.40625 C 8.1599934,9.3213271 7.8135317,9.084558 7.3852237,8.65625 C 7.085408,8.3564342 6.6046755,8.1761394 5.9164737,8.15625 C 5.1849361,6.8632838 4.4514563,5.5789034 3.7289737,4.28125 C 3.1054578,4.1453955 2.4344391,4.0506315 1.8539737,3.75 C 1.1897952,3.488649 0.7852858,2.6561476 1.1352237,2 C 1.3606456,1.625173 1.7126903,1.2726782 2.0727237,1.125 C 2.588758,0.8773568 3.1655585,1.2582152 3.4477237,1.59375 C 3.7684159,2.2918245 3.9371925,3.0713995 4.4164737,3.6875 C 4.6943719,3.9807677 5.5021814,3.9754376 5.5414737,3.53125 C 5.0977048,2.9161346 4.7856148,2.2060067 4.5102237,1.5 C 4.2802458,0.73247843 3.5427957,0.06783206 2.7289737,-2.7755576e-17 z M 20.697724,5.0625 C 21.0293,5.0625002 21.197723,5.2463813 21.197724,5.59375 L 21.197724,9.59375 L 19.666474,9.59375 L 20.166474,5.40625 C 20.182265,5.1851975 20.366146,5.0625 20.697724,5.0625 z"
     id="path3684" />
</svg>
