<?xml version="1.0" encoding="UTF-8" standalone="no"?>
<svg
   xmlns:dc="http://purl.org/dc/elements/1.1/"
   xmlns:cc="http://creativecommons.org/ns#"
   xmlns:rdf="http://www.w3.org/1999/02/22-rdf-syntax-ns#"
   xmlns:svg="http://www.w3.org/2000/svg"
   xmlns="http://www.w3.org/2000/svg"
   xmlns:sodipodi="http://sodipodi.sourceforge.net/DTD/sodipodi-0.dtd"
   xmlns:inkscape="http://www.inkscape.org/namespaces/inkscape"
   width="17.178665"
   height="17.977583"
   id="svg3801"
   sodipodi:version="0.32"
   inkscape:version="0.46"
   sodipodi:docname="D353vara.svg"
   inkscape:output_extension="org.inkscape.output.svg.inkscape">
  <metadata
     id="metadata3808">
    <rdf:RDF>
      <cc:Work
         rdf:about="">
        <dc:format>image/svg+xml</dc:format>
        <dc:type
           rdf:resource="http://purl.org/dc/dcmitype/StillImage" />
      </cc:Work>
    </rdf:RDF>
  </metadata>
  <defs
     id="defs3806">
    <inkscape:perspective
       sodipodi:type="inkscape:persp3d"
       inkscape:vp_x="0 : 8.9887915 : 1"
       inkscape:vp_y="0 : 1000 : 0"
       inkscape:vp_z="17.178665 : 8.9887915 : 1"
       inkscape:persp3d-origin="8.5893326 : 5.9925276 : 1"
       id="perspective3810" />
  </defs>
  <sodipodi:namedview
     inkscape:window-height="667"
     inkscape:window-width="640"
     inkscape:pageshadow="2"
     inkscape:pageopacity="0.0"
     guidetolerance="10.0"
     gridtolerance="10.0"
     objecttolerance="10.0"
     borderopacity="1.0"
     bordercolor="#666666"
     pagecolor="#ffffff"
     id="base"
     showgrid="false"
     showguides="true"
     inkscape:guide-bbox="true"
     inkscape:zoom="25.698672"
     inkscape:cx="8.5893326"
     inkscape:cy="8.9887915"
     inkscape:window-x="137"
     inkscape:window-y="9"
     inkscape:current-layer="svg3801" />
  <path
     style="fill:#000000; stroke:none"
     d="M 1.3125 0 C 1.2066454 0 1.0851547 0.058302 0.9375 0.1875 C 0.35479201 0.97191399 0.044823333 2.105732 0 3.5625 C 0.17929467 4.7055054 0.59121933 6.3219513 1.21875 8.40625 C 0.99463202 10.087136 0.83080867 12.376552 0.71875 15.3125 C 0.62910264 16.298622 0.87246867 16.958645 1.5 17.25 C 3.360182 17.743059 5.7161987 17.96875 8.5625 17.96875 C 11.431213 17.96875 13.787229 17.743059 15.625 17.25 C 16.274946 16.958645 16.558399 16.298623 16.46875 15.3125 C 16.35669 12.376552 16.19287 10.087137 15.96875 8.40625 C 16.596285 6.321951 17.008209 4.7055053 17.1875 3.5625 C 17.142681 2.1057321 16.832713 0.971914 16.25 0.1875 C 16.102346 0.058301993 15.949604 0 15.84375 0 C 15.692528 0 15.597167 0.14258133 15.53125 0.40625 C 15.688132 0.85448732 15.834279 1.292926 15.96875 1.71875 C 16.148044 2.2566341 16.201072 2.7481013 16.15625 3.21875 C 16.111427 3.980752 16.038356 4.611896 15.9375 5.09375 C 15.836648 5.5756048 15.657517 5.8125 15.34375 5.8125 C 15.327025 5.813838 15.297477 5.8125 15.28125 5.8125 C 14.753906 5.8125 14.5 5.100784 14.5 3.6875 C 14.5 3.1720286 14.553027 2.5520907 14.6875 1.8125 C 14.572044 1.6162266 14.445799 1.5 14.3125 1.5 C 14.187044 1.5 14.047512 1.6073887 13.90625 1.78125 C 13.839014 2.3191339 13.803662 2.9125573 13.78125 3.5625 C 13.691603 4.5486214 13.939705 5.925804 14.5 7.71875 C 14.298294 10.251287 14.1875 12.779965 14.1875 15.3125 C 12.663496 15.55903 10.781272 15.714013 8.5625 15.78125 C 6.3661413 15.714013 4.5240047 15.559031 3 15.3125 C 3.0000001 12.779965 2.8892067 10.251287 2.6875 7.71875 C 3.247796 5.9258038 3.495898 4.5486213 3.40625 3.5625 C 3.383838 2.9125574 3.3172353 2.319134 3.25 1.78125 C 3.108738 1.6073886 3.0004567 1.5 2.875 1.5 C 2.741702 1.5 2.6154553 1.6162267 2.5 1.8125 C 2.6344714 2.5520906 2.6875 3.1720287 2.6875 3.6875 C 2.6875 5.1007839 2.433594 5.8125 1.90625 5.8125 C 1.890024 5.8125 1.8604753 5.813838 1.84375 5.8125 C 1.529984 5.8125 1.3196027 5.5756047 1.21875 5.09375 C 1.1178966 4.6118961 1.044824 3.980752 1 3.21875 C 0.95517662 2.7481014 1.039456 2.256634 1.21875 1.71875 C 1.353222 1.2929261 1.4993673 0.85448733 1.65625 0.40625 C 1.5903327 0.14258132 1.463722 0 1.3125 0 z M 8.21875 3.625 C 6.6416106 3.625 5.7492455 4.4107071 5.3125 6 C 5.2052556 6.6463039 5.2952121 7.25547 5.4375 7.90625 C 5.9389489 9.3972387 6.8081522 10.610685 8.3125 11.59375 L 12.34375 14.46875 C 12.967818 14.952786 13.419579 14.139667 12.9375 13.71875 L 8.5625 10.65625 C 7.4134761 9.8353219 6.3344509 8.4196975 6.1875 7.0625 C 6.1169495 5.3935641 6.8677934 4.5942386 8.25 4.5625 C 9.8323495 4.797007 10.030318 5.5448527 10.09375 6.4375 C 10.14839 7.4119405 9.6272539 7.7632384 9.09375 7.78125 C 8.4467305 7.8030943 7.8750049 7.640336 8.0625 6.46875 C 8.6256393 5.3823024 7.4469849 5.0041727 7.0625 6.5 C 6.9234764 7.6533065 7.7410883 8.75 9.0625 8.75 C 11.900371 8.7499999 11.925288 3.5768638 8.21875 3.625 z "
     id="path3803" />
</svg>
