<?xml version="1.0" encoding="UTF-8" standalone="no"?>
<svg
   xmlns:dc="http://purl.org/dc/elements/1.1/"
   xmlns:cc="http://creativecommons.org/ns#"
   xmlns:rdf="http://www.w3.org/1999/02/22-rdf-syntax-ns#"
   xmlns:svg="http://www.w3.org/2000/svg"
   xmlns="http://www.w3.org/2000/svg"
   xmlns:sodipodi="http://sodipodi.sourceforge.net/DTD/sodipodi-0.dtd"
   xmlns:inkscape="http://www.inkscape.org/namespaces/inkscape"
   width="26.663858"
   height="26.4375"
   id="svg4139"
   sodipodi:version="0.32"
   inkscape:version="0.46"
   sodipodi:docname="D373.svg"
   inkscape:output_extension="org.inkscape.output.svg.inkscape"
   version="1.0">
  <metadata
     id="metadata4146">
    <rdf:RDF>
      <cc:Work
         rdf:about="">
        <dc:format>image/svg+xml</dc:format>
        <dc:type
           rdf:resource="http://purl.org/dc/dcmitype/StillImage" />
      </cc:Work>
    </rdf:RDF>
  </metadata>
  <defs
     id="defs4144">
    <inkscape:perspective
       sodipodi:type="inkscape:persp3d"
       inkscape:vp_x="0 : 2.76 : 1"
       inkscape:vp_y="0 : 1000 : 0"
       inkscape:vp_z="17.959988 : 2.76 : 1"
       inkscape:persp3d-origin="8.9799938 : 1.84 : 1"
       id="perspective4148" />
  </defs>
  <sodipodi:namedview
     inkscape:window-height="708"
     inkscape:window-width="1024"
     inkscape:pageshadow="2"
     inkscape:pageopacity="0.0"
     guidetolerance="10.0"
     gridtolerance="10.0"
     objecttolerance="10.0"
     borderopacity="1.0"
     bordercolor="#666666"
     pagecolor="#ffffff"
     id="base"
     showgrid="true"
     inkscape:zoom="20.144408"
     inkscape:cx="11.736876"
     inkscape:cy="17.457234"
     inkscape:window-x="0"
     inkscape:window-y="26"
     inkscape:current-layer="svg4139"
     showguides="true"
     inkscape:guide-bbox="true" />
  <path
     style="fill:#000000;stroke:none"
     d="M 9.03125 0 L 8.15625 0.03125 L 8.15625 1.09375 L 3.9375 1.09375 L 3.9375 1.84375 L 8.1875 1.84375 L 8.1875 3.15625 L 3.9375 3.15625 L 3.9375 3.875 L 8.1875 3.875 L 8.1875 11.6875 L 7.875 11.6875 C 7.1820868 11.513588 3.6944699 8.155334 5.53125 7 C 5.9528936 6.765388 6.2018253 7.218977 5.90625 7.40625 C 5.6185877 7.753438 5.936229 8.125 6.28125 8.125 C 6.3178438 8.125 6.334735 8.099551 6.375 8.09375 C 6.5775628 8.064565 6.688087 7.960705 6.75 7.65625 C 6.8982299 6.92734 6.44573 6.375 5.78125 6.375 C 5.6688509 6.375 5.528798 6.404501 5.40625 6.4375 C 4.4335458 6.699422 4.067035 7.756538 4.5 8.9375 C 4.9674068 10.212409 6.4375 11.6875 6.4375 11.6875 L 4.09375 11.71875 L 7.71875 17.75 C 6.9808259 17.761769 6.3204591 17.716605 5.84375 17.65625 C 5.2697349 17.583575 4.7104415 17.404257 4.1875 17.125 C 4.7798463 16.575054 5.1147898 16.073141 5.1875 15.65625 C 5.4104776 14.377786 4.7292982 13.640618 3.125 13.4375 C 1.3906607 13.203717 0.3630353 13.964351 0.0625 15.6875 C -0.3931503 18.300015 1.3716139 19.836889 5.375 20.34375 C 11.474778 20.647326 15.632276 20.979953 17.84375 21.28125 C 20.055223 21.582545 21.671383 22.199556 22.6875 23.1875 C 23.703615 24.175442 24.464222 25.26973 24.9375 26.4375 L 26.125 25.78125 C 25.602719 24.63568 24.864706 23.56729 23.90625 22.59375 L 26.65625 19.25 C 25.817264 18.572176 24.856894 18.049218 23.8125 17.65625 L 23.84375 0 L 22.96875 0.03125 L 22.96875 1.09375 L 18.75 1.09375 L 18.75 1.84375 L 22.96875 1.84375 L 22.96875 3.15625 L 18.75 3.15625 L 18.75 3.875 L 22.96875 3.875 L 22.96875 11.6875 L 22.6875 11.6875 C 21.994587 11.513588 18.47572 8.155334 20.3125 7 C 20.734144 6.765388 21.014325 7.218977 20.71875 7.40625 C 20.431088 7.753438 20.717479 8.125 21.0625 8.125 C 21.099094 8.125 21.147235 8.099551 21.1875 8.09375 C 21.390063 8.064565 21.469337 7.960705 21.53125 7.65625 C 21.67948 6.92734 21.22698 6.375 20.5625 6.375 C 20.450101 6.375 20.341298 6.404501 20.21875 6.4375 C 19.246046 6.699422 18.879535 7.756538 19.3125 8.9375 C 19.779907 10.212409 21.25 11.6875 21.25 11.6875 L 18.90625 11.71875 L 22.25 17.1875 C 21.84096 17.095914 21.404087 17.023867 20.96875 16.96875 C 18.525507 16.659415 15.718429 16.724627 12.53125 17.1875 C 11.167614 17.38554 10.014606 17.510119 9 17.59375 L 9.03125 0 z M 6.375 12.34375 C 6.5114289 12.34375 6.666311 12.34375 6.84375 12.34375 L 8.1875 12.34375 L 8.1875 16.46875 C 8.1675816 16.46875 7.754109 15.962974 7.375 15.375 C 6.9862087 14.772012 6.444283 13.905256 6.15625 13.46875 C 5.4532339 12.403343 5.330873 12.34375 6.375 12.34375 z M 21.15625 12.34375 C 21.292679 12.34375 21.447561 12.34375 21.625 12.34375 L 22.96875 12.34375 L 22.96875 16.46875 C 22.948831 16.46875 22.566609 15.962974 22.1875 15.375 C 21.798709 14.772012 21.225533 13.905256 20.9375 13.46875 C 20.234484 12.403343 20.112123 12.34375 21.15625 12.34375 z M 2.59375 14.4375 C 2.701342 14.433812 2.8179136 14.453609 2.9375 14.46875 C 3.7617266 14.573104 4.1213599 14.921675 4 15.53125 C 3.8957819 16.128793 3.4511851 16.626871 2.71875 17.03125 C 3.2943517 17.8711 4.2874452 18.389199 5.65625 18.5625 C 7.1280829 18.748846 9.4052797 18.632561 12.53125 18.21875 C 15.657219 17.804941 18.411598 17.762484 20.78125 18.0625 C 22.429703 18.271207 23.821909 18.744063 24.96875 19.5 L 22.96875 21.84375 C 21.424162 20.867015 19.645561 20.2888 17.65625 20.09375 C 15.66694 19.8987 13.332732 19.723524 10.625 19.59375 C 7.9172677 19.463977 6.2248249 19.365108 5.5625 19.28125 C 2.3391854 18.873152 0.8988252 17.74057 1.21875 15.90625 C 1.3841656 14.957824 1.8406062 14.463317 2.59375 14.4375 z "
     id="path4141" />
</svg>
