<?xml version="1.0" encoding="UTF-8" standalone="no"?>
<!-- Created with Inkscape (http://www.inkscape.org/) -->
<svg
   xmlns:dc="http://purl.org/dc/elements/1.1/"
   xmlns:cc="http://creativecommons.org/ns#"
   xmlns:rdf="http://www.w3.org/1999/02/22-rdf-syntax-ns#"
   xmlns:svg="http://www.w3.org/2000/svg"
   xmlns="http://www.w3.org/2000/svg"
   xmlns:sodipodi="http://sodipodi.sourceforge.net/DTD/sodipodi-0.dtd"
   xmlns:inkscape="http://www.inkscape.org/namespaces/inkscape"
   width="15.270737"
   height="17.864578"
   id="svg2569"
   sodipodi:version="0.32"
   inkscape:version="0.46"
   version="1.0"
   sodipodi:docname="D403.svg"
   inkscape:output_extension="org.inkscape.output.svg.inkscape">
  <defs
     id="defs2571">
    <inkscape:perspective
       sodipodi:type="inkscape:persp3d"
       inkscape:vp_x="0 : 526.18109 : 1"
       inkscape:vp_y="0 : 1000 : 0"
       inkscape:vp_z="744.09448 : 526.18109 : 1"
       inkscape:persp3d-origin="372.04724 : 350.78739 : 1"
       id="perspective2577" />
  </defs>
  <sodipodi:namedview
     id="base"
     pagecolor="#ffffff"
     bordercolor="#666666"
     borderopacity="1.0"
     inkscape:pageopacity="0.0"
     inkscape:pageshadow="2"
     inkscape:zoom="28.156277"
     inkscape:cx="7.6353683"
     inkscape:cy="8.9322895"
     inkscape:document-units="px"
     inkscape:current-layer="layer1"
     showgrid="false"
     inkscape:window-width="1024"
     inkscape:window-height="708"
     inkscape:window-x="0"
     inkscape:window-y="26"
     showguides="true"
     inkscape:guide-bbox="true" />
  <metadata
     id="metadata2574">
    <rdf:RDF>
      <cc:Work
         rdf:about="">
        <dc:format>image/svg+xml</dc:format>
        <dc:type
           rdf:resource="http://purl.org/dc/dcmitype/StillImage" />
      </cc:Work>
    </rdf:RDF>
  </metadata>
  <g
     inkscape:label="Calque 1"
     inkscape:groupmode="layer"
     id="layer1"
     transform="translate(-1.5770102e-2,0)">
    <path
       style="fill:#000000;stroke:none"
       d="M 7.46875 0 L 3.84375 0.03125 C 3.2697213 0.51395533 2.7172319 1.3457234 2.15625 2.34375 C 1.595268 3.3417767 1.1386527 4.1550375 0.8125 4.78125 C 0.48634734 5.4074627 0.22178333 6.0403525 0 6.71875 C -0.20873801 7.0579487 -0.20358 7.4626829 0.03125 7.90625 C 0.26608 8.3498173 0.45160867 8.8102249 0.5625 9.3125 C 0.67339201 9.8147753 1.0015173 10.704644 1.5625 11.9375 C 1.8213383 12.506343 2.0308744 13.001102 2.1875 13.46875 C 2.2006022 13.50787 2.2063486 13.555303 2.21875 13.59375 C 2.3097075 13.959834 2.3961821 14.337664 2.46875 14.78125 C 2.4777073 14.836003 2.5195043 14.883722 2.53125 14.9375 C 2.7300156 15.847552 3.3145381 16.632505 4.28125 17.28125 L 4.84375 17.78125 C 5.3028137 18.00305 5.6351683 17.76365 5.40625 17.28125 C 5.2877163 17.135177 5.2082113 16.977043 4.90625 16.8125 C 4.1578482 16.293859 3.293056 15.455693 3.75 14.84375 C 3.9056296 14.546972 4.0668126 14.634571 4.28125 15.09375 C 4.4956867 15.55293 4.7108076 15.805952 4.875 15.84375 C 4.9760412 15.86701 5.0607219 15.829935 5.09375 15.71875 C 5.1234754 15.618685 5.0097353 15.406424 4.8125 15.09375 C 4.6152649 14.781074 4.5031888 14.480218 4.4375 14.15625 C 4.3718108 13.832282 4.0458187 13.567535 3.5 13.40625 L 3.0625 13.125 C 2.9931759 12.755961 2.9429321 12.382564 2.875 12 C 2.7510626 11.302034 2.6122573 10.609375 2.46875 9.9375 C 2.3252426 9.265626 1.962074 8.395326 1.375 7.3125 C 1.375 6.7645633 1.694176 6.3490578 2.28125 5.625 C 2.8683246 4.9009413 3.2861633 3.9639655 3.71875 2.9375 C 4.5682194 0.92183241 5.8060636 1.5633475 7.46875 1.0625 C 9.131437 1.5633475 10.400531 0.92183242 11.25 2.9375 C 11.682587 3.9639655 12.100425 4.9009413 12.6875 5.625 C 13.274574 6.3490578 13.59375 6.7645633 13.59375 7.3125 C 13.006676 8.395326 12.643507 9.265626 12.5 9.9375 C 12.356492 10.609375 12.217687 11.302034 12.09375 12 C 12.025818 12.382564 11.975574 12.755961 11.90625 13.125 L 11.46875 13.40625 C 10.922931 13.567535 10.596939 13.832282 10.53125 14.15625 C 10.465561 14.480218 10.353485 14.781074 10.15625 15.09375 C 9.9590151 15.406424 9.8452754 15.618685 9.875 15.71875 C 9.9080281 15.829935 9.992709 15.86701 10.09375 15.84375 C 10.257943 15.805952 10.473064 15.55293 10.6875 15.09375 C 10.901938 14.634571 11.063121 14.546972 11.21875 14.84375 C 11.675695 15.455693 10.810902 16.293859 10.0625 16.8125 C 9.7605395 16.977043 9.681034 17.135177 9.5625 17.28125 C 9.3335816 17.76365 9.6659374 18.00305 10.125 17.78125 L 10.6875 17.28125 C 11.654213 16.632505 12.238734 15.847552 12.4375 14.9375 C 12.449245 14.883722 12.491042 14.836003 12.5 14.78125 C 12.572568 14.337664 12.659042 13.959834 12.75 13.59375 C 12.762401 13.555303 12.768148 13.50787 12.78125 13.46875 C 12.937875 13.001102 13.147411 12.506343 13.40625 11.9375 C 13.967232 10.704644 14.295358 9.8147753 14.40625 9.3125 C 14.517141 8.8102249 14.70267 8.3498173 14.9375 7.90625 C 15.17233 7.4626829 15.177488 7.0579487 14.96875 6.71875 C 14.746966 6.0403525 14.482402 5.4074627 14.15625 4.78125 C 13.830097 4.1550375 13.373482 3.3417767 12.8125 2.34375 C 12.251518 1.3457234 11.699029 0.51395533 11.125 0.03125 L 7.46875 0 z M 6.21875 3.25 L 7.5 4.34375 L 6.21875 5.4375 L 7.5 6.5 L 6.21875 7.59375 L 7.5 8.6875 L 6.21875 9.78125 L 7.5 10.875 L 6.21875 11.96875 L 7.5 13.0625 L 6.21875 14.15625 L 7.5 15.21875 L 6.21875 16.3125 L 6.78125 16.96875 L 8.6875 15.21875 L 7.5 14.15625 L 8.6875 13.0625 L 7.5 11.96875 L 8.6875 10.875 L 7.5 9.78125 L 8.6875 8.6875 L 7.5 7.59375 L 8.6875 6.5 L 7.5 5.4375 L 8.6875 4.34375 L 7.46875 3.25 L 6.21875 3.25 z "
       transform="translate(1.5770102e-2,0)"
       id="path2447" />
  </g>
</svg>
