<?xml version="1.0" encoding="UTF-8" standalone="no"?>
<!-- Created with Inkscape (http://www.inkscape.org/) -->
<svg
   xmlns:dc="http://purl.org/dc/elements/1.1/"
   xmlns:cc="http://creativecommons.org/ns#"
   xmlns:rdf="http://www.w3.org/1999/02/22-rdf-syntax-ns#"
   xmlns:svg="http://www.w3.org/2000/svg"
   xmlns="http://www.w3.org/2000/svg"
   xmlns:sodipodi="http://sodipodi.sourceforge.net/DTD/sodipodi-0.dtd"
   xmlns:inkscape="http://www.inkscape.org/namespaces/inkscape"
   sodipodi:docname="D409.svg"
   sodipodi:docbase="/home/rosmord/Travail/Gsigns/Ramessides/Fontes"
   inkscape:version="0.46"
   sodipodi:version="0.32"
   id="svg1290"
   height="18.272268"
   width="15.781366"
   inkscape:output_extension="org.inkscape.output.svg.inkscape"
   version="1.0">
  <defs
     id="defs3">
    <inkscape:perspective
       sodipodi:type="inkscape:persp3d"
       inkscape:vp_x="0 : 9 : 1"
       inkscape:vp_y="0 : 1000 : 0"
       inkscape:vp_z="18 : 9 : 1"
       inkscape:persp3d-origin="9 : 6 : 1"
       id="perspective2508" />
  </defs>
  <sodipodi:namedview
     inkscape:window-y="-4"
     inkscape:window-x="-4"
     inkscape:window-height="708"
     inkscape:window-width="1024"
     inkscape:current-layer="layer1"
     inkscape:document-units="px"
     inkscape:cy="9.2725616"
     inkscape:cx="9.0000002"
     inkscape:zoom="19.944444"
     inkscape:pageshadow="2"
     inkscape:pageopacity="0.0"
     borderopacity="1.0"
     bordercolor="#666666"
     pagecolor="#ffffff"
     id="base"
     showgrid="false" />
  <metadata
     id="metadata4">
    <rdf:RDF>
      <cc:Work
         rdf:about="">
        <dc:format>image/svg+xml</dc:format>
        <dc:type
           rdf:resource="http://purl.org/dc/dcmitype/StillImage" />
        <cc:license
           rdf:resource="http://creativecommons.org/licenses/by/2.0/" />
        <dc:subject>
          <rdf:Bag>
            <rdf:li>JSesh hieroglyph</rdf:li>
          </rdf:Bag>
        </dc:subject>
        <dc:creator>
          <cc:Agent>
            <dc:title>Serge Rosmorduc</dc:title>
          </cc:Agent>
        </dc:creator>
        <dc:description>Sign from Karnak Hypostyle Hall
</dc:description>
      </cc:Work>
      <cc:License
         rdf:about="http://creativecommons.org/licenses/by/2.0/">
        <cc:permits
           rdf:resource="http://web.resource.org/cc/Reproduction" />
        <cc:permits
           rdf:resource="http://web.resource.org/cc/Distribution" />
        <cc:requires
           rdf:resource="http://web.resource.org/cc/Notice" />
        <cc:requires
           rdf:resource="http://web.resource.org/cc/Attribution" />
        <cc:permits
           rdf:resource="http://web.resource.org/cc/DerivativeWorks" />
        <cc:requires
           rdf:resource="http://web.resource.org/cc/ShareAlike" />
      </cc:License>
    </rdf:RDF>
  </metadata>
  <g
     id="layer1"
     inkscape:groupmode="layer"
     inkscape:label="Layer 1"
     transform="translate(2.0006748,6.2523774e-2)">
    <path
       style="opacity:0.99415205;fill:#000000;fill-opacity:1;fill-rule:nonzero;stroke:none;stroke-width:0.60000002;stroke-linecap:butt;stroke-linejoin:round;stroke-miterlimit:4;stroke-opacity:1;display:inline"
       d="M 8.9375,0 C 8.4202898,0.017006043 7.6405114,-0.001339292 7.125,0.03125 C 6.8493963,0.11101245 6.9021867,0.4348397 6.90625,0.65625 C 6.9315378,2.187969 6.9434622,3.718281 6.96875,5.25 C 6.7504848,5.2149985 6.5440254,5.1875 6.3125,5.1875 C 6.0950474,5.1875001 5.8541511,5.2191242 5.625,5.25 C 5.4929898,5.2677875 5.3805329,5.28125 5.25,5.28125 C 4.8086778,5.2812502 4.3619175,5.1720735 3.9375,4.96875 C 3.7241312,4.8665319 3.5338921,4.8125 3.375,4.8125 C 3.124353,4.8124999 2.9588388,4.933143 2.84375,5.1875 C 2.655703,5.6031019 2.6713961,5.9896664 2.9375,6.3125 C 3.2036052,6.6353328 3.9733818,6.9023564 5.21875,7.125 C 6.4641175,7.3476436 7.0133733,7.6416236 6.875,8.03125 C 6.7787798,8.3021819 6.2527944,8.4375 5.3125,8.4375 C 4.9005617,8.4374997 4.4176897,8.4269997 3.84375,8.375 C 1.9597316,8.2043071 0.23622448,7.6402081 -0.90625,7.1875 C -1.0031538,7.151123 -1.0739489,7.15625 -1.15625,7.15625 C -1.6579001,7.1562501 -1.9046439,7.7564389 -1.90625,8.09375 C -1.9175929,10.475989 -1.0952854,10.245689 -0.90625,10.40625 C -0.58290434,10.680888 1.9807441,11.190046 4.34375,11.3125 C 4.5685531,11.32415 4.8142826,11.3125 5.03125,11.3125 C 5.769015,11.3125 6.4465794,11.266905 7.09375,11.125 C 7.1073398,11.948156 7.1114102,12.770594 7.125,13.59375 C 5.9813124,14.468245 4.8377212,15.353114 3.6875,16.21875 C 3.0438887,16.637867 2.3137839,16.893434 1.5625,17.03125 C 1.1188286,17.026817 0.65541575,16.743417 0.21875,16.9375 C -0.039302257,17.135661 -0.12656728,17.677627 0.21875,17.84375 C 1.0665019,18.298429 2.0770794,18.269501 3,18.09375 C 3.8300099,17.952779 4.6665024,17.899032 5.5,17.78125 C 6.0705167,17.731665 6.6915619,17.618689 7.21875,17.90625 C 7.6579752,18.101021 8.1692591,18.427644 8.65625,18.1875 C 9.0403195,17.947884 9.2501697,17.494265 9.34375,17.0625 C 9.4212635,16.499209 9.0557414,15.997268 9.0625,15.4375 C 9.0188194,14.825547 8.9335675,14.20633 8.90625,13.59375 C 8.9120375,12.768063 8.9251071,11.503157 8.9375,10.4375 C 9.3664511,10.206418 9.7815243,9.922506 10.15625,9.59375 L 13.875,9.9375 L 13.875,6.625 L 10.15625,6.9375 C 9.7011141,6.627269 9.3612042,6.4420777 9,6.21875 C 9.0347943,2.8727448 9.0338998,-0.0067888107 8.9375,0 z M 8.40625,0.59375 C 8.3942381,2.342291 8.3877385,4.0951824 8.375,5.84375 C 8.0582444,5.6636248 7.8130155,5.5274302 7.59375,5.4375 C 7.5614471,3.7274253 7.5207582,1.8675241 7.5,0.625 C 7.8020835,0.61458332 8.1041667,0.60416667 8.40625,0.59375 z M 3.65625,5.53125 C 3.7604941,5.5312501 3.9052851,5.5501304 4.09375,5.625 C 4.4554806,5.768701 4.9208628,5.84375 5.46875,5.84375 C 5.614108,5.8437501 5.7477903,5.8538643 5.90625,5.84375 C 5.995565,5.8380488 6.0999701,5.8125 6.1875,5.8125 C 6.8406101,5.8125002 7.4462127,5.9950979 8,6.3125 C 8.6280073,6.6724405 9.3003509,7.0890907 10.03125,7.59375 L 13.125,7.28125 L 13.125,9.3125 L 10.03125,9 C 8.3403415,10.312511 6.9486308,10.59375 4.8125,10.59375 C 4.6537089,10.59375 4.4799936,10.596729 4.3125,10.59375 C 1.9069167,10.550956 -0.28861656,10.023057 -0.90625,9.625 C -1.3293503,9.3523172 -1.357797,7.96875 -1,7.96875 C -0.96869755,7.96875 -0.94361249,7.9774177 -0.90625,8 C 0.15107122,8.4304447 1.5252385,8.8039131 2.78125,8.9375 C 3.743304,9.0398208 4.6252968,9.09375 5.40625,9.09375 C 5.6448709,9.0937501 5.8720361,9.072053 6.09375,9.0625 C 7.041081,9.0216818 7.5540389,8.6880486 7.625,8.03125 C 7.6959605,7.3744512 7.3231486,6.9593648 6.5,6.78125 C 5.6768507,6.6031352 4.9845834,6.4349541 4.40625,6.3125 C 3.8279162,6.1900459 3.5077784,6.0097511 3.46875,5.75 C 3.4457922,5.597205 3.5073296,5.53125 3.65625,5.53125 z M 8.34375,10.71875 C 8.3368315,11.728355 8.3187457,12.74042 8.3125,13.75 C 8.3762787,14.459679 8.4174602,15.167516 8.5,15.875 C 8.5482754,16.253501 8.803854,16.612826 8.75,17 C 8.6518588,17.319421 8.4202595,17.849991 8,17.59375 C 7.5041607,17.402882 7.0237596,17.088696 6.46875,17.125 C 5.4576799,17.113145 4.4711487,17.339742 3.46875,17.4375 C 2.9123574,17.516707 2.3463404,17.63601 1.78125,17.625 C 2.7583268,17.403956 3.7302411,17.031895 4.5,16.375 C 5.5479162,15.560435 6.5791839,14.754678 7.625,13.9375 C 7.6744676,13.876635 7.7026874,12.583966 7.6875,10.96875 C 7.9121797,10.90028 8.1310126,10.807386 8.34375,10.71875 z"
       transform="translate(-9.4308538e-2,-6.2511794e-2)"
       id="path2143" />
  </g>
</svg>
