<?xml version="1.0" encoding="UTF-8" standalone="no"?>
<svg
   xmlns:dc="http://purl.org/dc/elements/1.1/"
   xmlns:cc="http://creativecommons.org/ns#"
   xmlns:rdf="http://www.w3.org/1999/02/22-rdf-syntax-ns#"
   xmlns:svg="http://www.w3.org/2000/svg"
   xmlns="http://www.w3.org/2000/svg"
   xmlns:sodipodi="http://sodipodi.sourceforge.net/DTD/sodipodi-0.dtd"
   xmlns:inkscape="http://www.inkscape.org/namespaces/inkscape"
   width="25.525"
   height="8.40625"
   id="svg2482"
   sodipodi:version="0.32"
   inkscape:version="0.46"
   sodipodi:docname="D46.svg"
   inkscape:output_extension="org.inkscape.output.svg.inkscape"
   version="1.0">
  <metadata
     id="metadata2489">
    <rdf:RDF>
      <cc:Work
         rdf:about="">
        <dc:format>image/svg+xml</dc:format>
        <dc:type
           rdf:resource="http://purl.org/dc/dcmitype/StillImage" />
      </cc:Work>
    </rdf:RDF>
  </metadata>
  <defs
     id="defs2487">
    <inkscape:perspective
       sodipodi:type="inkscape:persp3d"
       inkscape:vp_x="0 : 4.1999998 : 1"
       inkscape:vp_y="0 : 1000 : 0"
       inkscape:vp_z="23.619513 : 4.1999998 : 1"
       inkscape:persp3d-origin="11.809756 : 2.7999999 : 1"
       id="perspective2491" />
  </defs>
  <sodipodi:namedview
     inkscape:window-height="708"
     inkscape:window-width="1024"
     inkscape:pageshadow="2"
     inkscape:pageopacity="0.0"
     guidetolerance="10.0"
     gridtolerance="10.0"
     objecttolerance="10.0"
     borderopacity="1.0"
     bordercolor="#666666"
     pagecolor="#ffffff"
     id="base"
     showgrid="false"
     inkscape:zoom="23.031805"
     inkscape:cx="8.7186258"
     inkscape:cy="4.1999999"
     inkscape:window-x="0"
     inkscape:window-y="26"
     inkscape:current-layer="svg2482" />
  <path
     style="fill:#000000;stroke:none"
     d="M 13.15,0 C 10.476829,0.48780467 8.8173781,0.71875002 8.2125,0.71875 C 7.9393293,0.71875 7.5400915,0.66783533 6.99375,0.53125 C 6.5254573,0.70686 6.275,1.2039634 6.275,2.0625 C 6.275,2.3625 6.3926829,2.625 6.5875,2.8125 C 5.7569668,2.8522632 2.9995703,2.8989929 2.625,2.9375 C 1.5810973,3.0448173 1.0038107,3.1289634 0.90625,3.1875 C 0.301372,3.8704267 0,4.7628047 0,5.875 C 0,6.675 0.226982,7.266006 0.65625,7.65625 C 1.7879573,8.1440547 6.654725,8.4062504 11.49375,8.40625 C 12.683993,8.3672253 13.525457,8.2967986 13.99375,8.21875 C 17.603506,7.6528967 19.916615,7.3750001 20.93125,7.375 C 21.926371,7.375 23.456707,7.5315546 25.525,7.84375 L 25.525,1.875 C 23.768901,2.0115853 22.418597,2.0625001 21.4625,2.0625 C 19.901525,2.1990853 18.373171,1.917226 16.9,1.15625 C 15.426829,0.39527467 14.184147,0 13.15,0 z M 12.775,0.90625 C 13.692073,0.90625 14.917073,1.3015247 16.4,2.0625 C 17.882927,2.823476 19.655944,3.1875 21.74375,3.1875 C 22.563263,3.1875 23.490855,3.1365852 24.525,3 L 24.525,6.8125 C 23.003049,6.5393293 21.832774,6.4062498 20.99375,6.40625 C 19.998627,6.4647867 19.035823,6.5704266 18.11875,6.6875 C 14.606555,7.1948167 12.352135,7.4375001 11.3375,7.4375 C 8.332622,7.4375 4.1117381,7.339634 2.53125,7.125 C 1.497104,7.125 0.99999998,6.7649387 1,6.0625 C 1,4.8332313 1.301372,4.109146 1.90625,3.875 C 5.9452747,3.52378 11.520427,3.2850607 14.8375,3.1875 C 14.193598,2.3289633 13.520426,1.9571647 12.8375,2.09375 C 10.242377,2.308384 8.6493899,2.4375001 8.025,2.4375 C 7.4591467,2.417988 7.1812501,2.116616 7.18125,1.53125 L 8.11875,1.5625 C 8.9772867,1.5625 10.511585,1.335518 12.775,0.90625 z"
     id="path2484"
     sodipodi:nodetypes="cscscscscccscccsccssccccscsccccccc" />
</svg>
