<?xml version="1.0" encoding ="US-ASCII" standalone="yes"?>
<svg width="13.783721" height="7.92">
<path style="fill:#000000; stroke:none" d=" M 13.668138 3.414387  Q 13.76003 3.965743 13.783003 5.091429  Q 13.805977 6.217113 13.507326 7.319825  Q 11.485686 7.411719 8.6485 7.733342  Q 5.811314 8.054968 3.812649 7.825236  Q 2.273446 7.595504 1.905876 6.33198  Q 1.538305 5.068456 1.561278 3.460333  Q 1.699117 2.656273 1.032895 2.449515  Q 0.228834 2.035997 0.056536 1.450181  Q -0.115763 0.864365 0.228834 0.014358  Q 2.434258 0.24409 3.617376 0.094764  Q 4.800495 -0.054561 5.776854 0.025845  Q 6.753215 0.106251 7.787007 0.726526  Q 8.820799 1.346802 10.245134 2.49546  Q 11.669472 3.322494 13.668138 3.414387  Z  M 12.772185 4.080609  Q 11.416767 4.01169 9.624859 3.138709  Q 7.166732 1.346802 6.018073 1.025178  Q 4.869415 0.703553 3.870081 0.864365  Q 2.870749 1.025178 1.032895 0.864365  Q 1.032895 1.507614 1.457899 1.679913  Q 1.882903 1.852212 2.353853 1.863698  Q 2.824802 1.875185 3.812649 1.542074  Q 4.800495 1.208963 5.214012 1.208963  Q 5.627529 1.208963 5.834287 1.208963  Q 4.961307 1.852212 3.812649 2.254242  Q 2.66399 2.656273 2.618044 3.43736  Q 2.572097 4.608992 2.641017 5.436026  Q 2.709937 6.26306 3.456564 6.722523  Q 4.203192 7.181987 8.61404 6.883335  L 12.657319 6.561711  Q 13.001916 5.642785 12.772185 4.080609  Z "/></svg>
