<?xml version="1.0" encoding="UTF-8" standalone="no"?>
<!-- Created with Inkscape (http://www.inkscape.org/) -->
<svg
   xmlns:dc="http://purl.org/dc/elements/1.1/"
   xmlns:cc="http://web.resource.org/cc/"
   xmlns:rdf="http://www.w3.org/1999/02/22-rdf-syntax-ns#"
   xmlns:svg="http://www.w3.org/2000/svg"
   xmlns="http://www.w3.org/2000/svg"
   xmlns:sodipodi="http://sodipodi.sourceforge.net/DTD/sodipodi-0.dtd"
   xmlns:inkscape="http://www.inkscape.org/namespaces/inkscape"
   sodipodi:docname="D59.svg"
   sodipodi:docbase="/home/rosmord/Travail/Gsigns/Distribution"
   inkscape:version="0.44"
   sodipodi:version="0.32"
   id="svg1290"
   height="18.000000px"
   width="18.000000px">
  <defs
     id="defs3" />
  <sodipodi:namedview
     inkscape:window-y="267"
     inkscape:window-x="264"
     inkscape:window-height="583"
     inkscape:window-width="1010"
     inkscape:current-layer="layer1"
     inkscape:document-units="px"
     inkscape:cy="8.8183081"
     inkscape:cx="8.3758826"
     inkscape:zoom="19.944444"
     inkscape:pageshadow="2"
     inkscape:pageopacity="0.0"
     borderopacity="1.0"
     bordercolor="#666666"
     pagecolor="#ffffff"
     id="base" />
  <metadata
     id="metadata4">
    <rdf:RDF>
      <cc:Work
         rdf:about="">
        <dc:format>image/svg+xml</dc:format>
        <dc:type
           rdf:resource="http://purl.org/dc/dcmitype/StillImage" />
        <cc:license
           rdf:resource="http://creativecommons.org/licenses/by/2.0/" />
        <dc:subject>
          <rdf:Bag>
            <rdf:li>JSesh hieroglyph</rdf:li>
          </rdf:Bag>
        </dc:subject>
        <dc:creator>
          <cc:Agent>
            <dc:title>Serge Rosmorduc</dc:title>
          </cc:Agent>
        </dc:creator>
        <dc:description>Sign from Karnak Hypostyle Hall
</dc:description>
      </cc:Work>
      <cc:License
         rdf:about="http://creativecommons.org/licenses/by/2.0/">
        <cc:permits
           rdf:resource="http://web.resource.org/cc/Reproduction" />
        <cc:permits
           rdf:resource="http://web.resource.org/cc/Distribution" />
        <cc:requires
           rdf:resource="http://web.resource.org/cc/Notice" />
        <cc:requires
           rdf:resource="http://web.resource.org/cc/Attribution" />
        <cc:permits
           rdf:resource="http://web.resource.org/cc/DerivativeWorks" />
        <cc:requires
           rdf:resource="http://web.resource.org/cc/ShareAlike" />
      </cc:License>
    </rdf:RDF>
  </metadata>
  <g
     id="layer1"
     inkscape:groupmode="layer"
     inkscape:label="Layer 1">
    <path
       style="opacity:0.99415205;fill:black;fill-opacity:1;fill-rule:nonzero;stroke:none;stroke-width:0.60000002;stroke-linecap:butt;stroke-linejoin:round;stroke-miterlimit:4;stroke-opacity:1;display:inline"
       d="M 10.749043,-0.11263928 C 10.231833,-0.095633234 9.4520539,-0.11397857 8.9365425,-0.081389277 C 8.6609387,-0.0016268239 8.7137292,0.32220042 8.7177925,0.54361072 C 8.7542654,2.7528169 8.8063198,4.9594044 8.8427925,7.1686107 C 7.4463483,7.2246158 6.2234012,7.3312679 5.2490425,7.5748607 C 4.7929364,7.0574076 4.2509015,6.7417677 3.2802925,6.6998607 C 2.8831355,6.6637566 1.9406535,6.7283747 1.7802925,6.7623607 C 1.3820524,6.8467618 1.1771745,6.8701997 1.2177925,7.0123607 C 1.2584115,7.1545239 1.3433375,7.2436247 1.4990425,7.3248607 C 1.5839735,7.3691715 1.7590185,7.4186107 1.9990425,7.4186107 C 2.1990575,7.4186107 2.4413265,7.3868807 2.7490425,7.3561107 C 2.8244795,7.3464377 2.8978835,7.3561107 2.9677925,7.3561107 C 3.3872435,7.3561108 3.7160365,7.5079507 3.9365425,7.8561107 C 3.3364616,8.0423438 2.8093515,8.1373607 2.3427925,8.1373607 C 1.8935145,8.1373609 1.5120046,8.0600547 1.1865425,7.8873607 C 0.76582552,7.6641238 0.45196752,7.5436107 0.24904252,7.5436107 C 0.13197152,7.5436108 0.043624522,7.5943067 -0.00095747843,7.6686107 C -0.19051148,7.8987848 0.076234522,8.1999237 0.78029252,8.6061107 C 1.2544536,8.7929015 1.7375115,8.8873607 2.2802925,8.8873607 C 2.7604425,8.8873609 3.2776976,8.8147837 3.8115425,8.6686107 C 4.5731405,8.5162911 5.5029185,8.4498607 6.5615425,8.4498607 C 6.9144187,8.4498606 7.2694005,8.4641857 7.6552925,8.4811107 C 7.9309178,8.4931995 8.4475748,8.5032941 8.8427925,8.5123607 C 8.870147,10.169266 8.9091879,11.824206 8.9365425,13.481111 C 7.7928547,14.355606 6.6492637,15.240475 5.4990425,16.106111 C 4.855431,16.525227 4.1253264,16.780795 3.3740425,16.918611 C 2.9303711,16.914178 2.4669583,16.630778 2.0302925,16.824861 C 1.7722403,17.023022 1.6849752,17.564988 2.0302925,17.731111 C 2.8780445,18.18579 3.8886219,18.156862 4.8115425,17.981111 C 5.6415522,17.84014 6.4780449,17.786393 7.3115425,17.668611 C 7.8820595,17.619026 8.5031044,17.50605 9.0302925,17.793611 C 9.469518,17.988381 9.9808016,18.315005 10.467793,18.074861 C 10.851862,17.835245 11.061712,17.381626 11.155293,16.949861 C 11.232806,16.38657 10.867284,15.884629 10.874043,15.324861 C 10.830362,14.712908 10.74511,14.093691 10.717793,13.481111 C 10.726847,12.189404 10.759379,10.297892 10.780293,8.5436107 C 11.682958,8.5514111 12.631456,8.5436107 13.842793,8.5436107 C 15.049185,8.5436111 16.392707,8.5513487 17.905293,8.5436107 L 17.905293,3.3873607 L 15.249043,3.4186107 L 15.249043,7.2936107 C 14.206497,7.1717499 13.005081,7.1061107 11.624043,7.1061107 C 11.32897,7.1061107 11.061944,7.1040221 10.780293,7.1061107 C 10.822819,3.3431982 10.855526,-0.1201382 10.749043,-0.11263928 z M 10.217793,0.48111072 C 10.202563,2.6980652 10.171346,4.920376 10.155293,7.1373607 C 9.9122161,7.1410047 9.6688762,7.1311315 9.4365425,7.1373607 C 9.3949707,4.7837453 9.3401183,2.2228284 9.3115425,0.51236072 C 9.6136258,0.50194405 9.9157092,0.49152739 10.217793,0.48111072 z M 17.061543,3.9186107 C 17.140758,3.9186107 17.223862,3.9408337 17.311543,3.9498607 L 17.311543,7.8248607 C 16.837656,7.7977828 16.383339,7.8581647 15.936543,7.6686107 C 15.963614,6.8968568 15.950086,6.0689947 15.936543,5.1686107 C 15.924291,4.3539836 16.309039,3.9186107 17.061543,3.9186107 z M 9.4677925,8.5436107 C 9.7147305,8.5476392 9.8736194,8.54046 10.155293,8.5436107 C 10.143193,10.240131 10.134538,11.9409 10.124043,13.637361 C 10.187822,14.34704 10.229003,15.054877 10.311543,15.762361 C 10.359817,16.140862 10.615397,16.500187 10.561543,16.887361 C 10.463402,17.206784 10.231802,17.737352 9.8115425,17.481111 C 9.3157031,17.290242 8.8353021,16.976057 8.2802925,17.012361 C 7.2692227,17.000506 6.2826912,17.227103 5.2802925,17.324861 C 4.7238997,17.404068 4.1578829,17.523371 3.5927925,17.512361 C 4.5698693,17.291317 5.5417836,16.919256 6.3115425,16.262361 C 7.359459,15.447795 8.3907264,14.642039 9.4365425,13.824861 C 9.5088319,13.735916 9.5131018,11.392032 9.4677925,8.5436107 z "
       id="path2143" />
  </g>
</svg>
