<?xml version="1.0" encoding ="US-ASCII" standalone="yes"?>
<svg width="17.763132" height="13.920001">
<path style="fill:#000000; stroke:none" d=" M 16.990957 13.266095  Q 17.528772 12.409575 16.214117 11.094917  Q 15.417354 10.417669 15.576706 11.433542  Q 15.975089 13.266095 16.990957 13.266095  Z  M 13.126661 9.361958  L 0.836601 9.361958  L 0.836601 10.417669  L 13.086823 10.417669  Q 13.863668 10.417669 13.863668 9.879854  Q 13.863668 9.361958 13.126661 9.361958  Z  M 2.96794 2.450044  Q 3.406159 3.266726 3.963894 3.744783  Q 4.521626 4.222841 4.790533 3.993772  Q 5.059441 3.764703 4.850291 3.167131  Q 4.641141 2.569558 4.163084 2.240894  Q 3.685027 1.91223 2.96794 2.450044  Z  M 2.509802 8.684711  L 2.509802 0.63741  L 1.474011 0.63741  L 1.474011 8.684711  L 2.509802 8.684711  Z  M 7.947706 2.450044  Q 8.385924 3.266726 8.943658 3.744783  Q 9.501391 4.222841 9.770298 3.993772  Q 10.039207 3.764703 9.830056 3.167131  Q 9.620905 2.569558 9.142849 2.240894  Q 8.664791 1.91223 7.947706 2.450044  Z  M 7.489567 8.684711  L 7.489567 0.63741  L 6.473695 0.63741  L 6.473695 8.684711  L 7.489567 8.684711  Z  M 14.20229 8.684711  Q 14.461238 9.481473 15.138488 9.740419  L 16.512901 10.397751  Q 18.026749 11.772167 17.708044 13.286013  Q 17.409258 14.023019 16.632414 13.903505  Q 15.178326 13.36569 14.799863 11.333944  L 14.760025 11.114837  L 0 11.114837  L 0 8.684711  L 1.035791 8.684711  L 1.035791 0  L 2.987859 0  L 2.987859 1.752877  Q 4.04357 1.095548 5.07936 2.410206  Q 5.657012 3.206969 5.477741 4.003732  Q 5.258632 4.700897 4.541545 4.680979  Q 3.645188 4.322436 2.987859 3.346402  L 2.987859 8.684711  L 6.015556 8.684711  L 6.015556 0  L 7.967625 0  L 7.967625 1.752877  Q 9.023335 1.095548 10.059125 2.430125  Q 10.656697 3.226888 10.457505 4.023651  Q 10.238398 4.700897 9.54123 4.700897  Q 8.644873 4.322436 7.967625 3.346402  L 7.967625 8.684711  L 10.895727 8.684711  L 10.895727 0  L 12.847794 0  L 12.847794 1.752877  Q 13.903505 1.095548 14.939297 2.430125  Q 15.536868 3.226888 15.337678 4.023651  Q 15.118569 4.720817 14.421399 4.700897  Q 13.525043 4.322436 12.847794 3.346402  L 12.847794 8.684711  L 14.20229 8.684711  Z  M 12.827876 2.450044  Q 13.266095 3.266726 13.823828 3.754743  Q 14.381562 4.24276 14.650471 4.003732  Q 14.919378 3.764703 14.710227 3.17709  Q 14.501077 2.589478 14.023019 2.250854  Q 13.544961 1.91223 12.827876 2.450044  Z  M 12.369737 8.684711  L 12.369737 0.63741  L 11.353865 0.63741  L 11.353865 8.684711  L 12.369737 8.684711  Z "/></svg>
