<?xml version="1.0" encoding="UTF-8" standalone="no"?>
<svg
   xmlns:dc="http://purl.org/dc/elements/1.1/"
   xmlns:cc="http://web.resource.org/cc/"
   xmlns:rdf="http://www.w3.org/1999/02/22-rdf-syntax-ns#"
   xmlns:svg="http://www.w3.org/2000/svg"
   xmlns="http://www.w3.org/2000/svg"
   xmlns:sodipodi="http://sodipodi.sourceforge.net/DTD/sodipodi-0.dtd"
   xmlns:inkscape="http://www.inkscape.org/namespaces/inkscape"
   width="1800"
   height="1800"
   id="svg3366"
   sodipodi:version="0.32"
   inkscape:version="0.44"
   sodipodi:docname="D77.svg"
   sodipodi:docbase="/home/rosmord/Travail/Gsigns/Distribution"
   version="1.0">
  <metadata
     id="metadata3373">
    <rdf:RDF>
      <cc:Work
         rdf:about="">
        <dc:format>image/svg+xml</dc:format>
        <dc:type
           rdf:resource="http://purl.org/dc/dcmitype/StillImage" />
        <dc:title>US22D77A</dc:title>
        <dc:date>30/09/06</dc:date>
        <dc:creator>
          <cc:Agent>
            <dc:title>ST</dc:title>
          </cc:Agent>
        </dc:creator>
        <dc:publisher>
          <cc:Agent>
            <dc:title>Serge Rosmorduc</dc:title>
          </cc:Agent>
        </dc:publisher>
        <dc:description>D77 &quot;de synthèse&quot; à partir d'un signe de S.T, Var. de D77 
FCD p. 136 
in : nhsi 
Pyr. 126b. Merenre
Pyr. 553d Pepi Ier
Pepi II 566a 
Merenre 1708c</dc:description>
        <cc:license
           rdf:resource="http://creativecommons.org/licenses/GPL/2.0/" />
      </cc:Work>
      <cc:License
         rdf:about="http://creativecommons.org/licenses/GPL/2.0/">
        <cc:permits
           rdf:resource="http://web.resource.org/cc/Reproduction" />
        <cc:permits
           rdf:resource="http://web.resource.org/cc/Distribution" />
        <cc:requires
           rdf:resource="http://web.resource.org/cc/Notice" />
        <cc:permits
           rdf:resource="http://web.resource.org/cc/DerivativeWorks" />
        <cc:requires
           rdf:resource="http://web.resource.org/cc/ShareAlike" />
        <cc:requires
           rdf:resource="http://web.resource.org/cc/SourceCode" />
      </cc:License>
    </rdf:RDF>
  </metadata>
  <defs
     id="defs3371" />
  <sodipodi:namedview
     inkscape:window-height="583"
     inkscape:window-width="1010"
     inkscape:pageshadow="2"
     inkscape:pageopacity="0.0"
     guidetolerance="10.0"
     gridtolerance="10.0"
     objecttolerance="10.0"
     borderopacity="1.0"
     bordercolor="#666666"
     pagecolor="#ffffff"
     id="base"
     inkscape:zoom="0.105"
     inkscape:cx="3261.2892"
     inkscape:cy="-116.84517"
     inkscape:window-x="219"
     inkscape:window-y="128"
     inkscape:current-layer="svg3366"
     width="1800px"
     height="1800px" />
  <path
     style="fill:black;stroke:none"
     d="M 1007.9688,0 C 949.83657,0.21765008 901.06189,19.473853 861.59375,57.78125 C 801.45166,116.15436 774.03711,158.62302 779.34375,185.15625 C 713.89507,278.90706 696.17903,336.39836 726.25,357.625 C 749.24548,357.625 761.20934,369.98569 762.09375,394.75 C 762.97824,419.51439 766.95575,443.83885 774.03125,467.71875 C 781.10681,491.59871 796.12949,501.78775 819.125,498.25 C 842.12034,494.71219 870.42244,495.59958 904.03125,500.90625 L 904.03125,540.6875 C 767.82731,544.22531 685.58342,577.85148 657.28125,641.53125 L 394.59375,752.96875 C 369.82943,680.44458 315.88749,571.64216 232.75,426.59375 C 225.67443,371.75839 216.83207,320.4786 206.21875,272.71875 C 195.60551,224.9589 146.06914,170.09842 57.625,108.1875 C 34.629458,106.41866 18.719408,115.29229 9.875,134.75 C 1.0305915,154.20767 3.6614338,165.68092 17.8125,169.21875 C 44.345792,179.832 69.129521,198.40419 92.125,224.9375 C 115.12048,251.47072 131.91802,292.16463 142.53125,347 C 107.15362,313.39127 85.919252,279.79629 78.84375,246.1875 C 71.768183,212.57871 55.858133,200.18685 31.09375,209.03125 C 55.858133,331.0842 99.182828,413.3281 161.09375,455.78125 C 194.70254,625.59405 234.50904,784.78877 280.5,933.375 C 487.45934,887.38404 651.09096,819.30685 771.375,729.09375 C 817.36603,674.2584 906.24956,642.40689 1038.0312,633.5625 C 1169.813,624.71808 1235.6875,657.42569 1235.6875,731.71875 C 1235.6875,870.51404 1236.6061,966.33407 1238.4062,1019.625 C 1163.2461,1038.1509 1028.2089,1080.4856 833.28125,1146.6562 C 760.45382,1130.3561 670.12631,1153.751 562.34375,1216.8438 C 573.99513,1240.4179 594.40219,1244.1535 623.53125,1228.0312 C 652.66027,1211.9086 690.99731,1204.6967 738.5625,1206.4062 C 691.49739,1234.7116 650.78782,1249.4579 616.40625,1250.6562 C 582.02485,1251.8544 550.97203,1246.454 523.25,1234.4062 C 511.84855,1225.8394 501.92089,1231.6255 493.5,1251.7812 C 485.07897,1271.9367 489.12746,1290.0129 505.65625,1306 C 611.12484,1329.2622 685.22884,1328.3247 727.96875,1303.2188 C 770.70861,1278.113 815.6016,1250.1501 862.625,1219.3438 C 1037.7528,1218.9282 1201.5244,1181.5593 1354.2812,1107.9688 C 1361.8471,1104.324 1372.6856,1103.5833 1377.3357,1097.8066 C 1381.8002,1092.2603 1381.6407,1082.057 1381.625,1074 C 1381.3017,907.84642 1375.4505,762.69685 1368.375,638.875 C 1331.2285,576.96408 1283.0076,546.00002 1223.75,546 C 1164.4924,546 1121.5956,515.03593 1095.0625,453.125 C 1215.3466,415.97846 1273.2972,341.26155 1268.875,228.9375 C 1264.4527,116.61338 1210.4796,45.414724 1107,15.34375 C 1071.4288,5.006829 1038.4189,-0.11400718 1007.9688,0 z M 1006.3438,43.875 C 1030.5657,43.556288 1056.6089,47.762526 1084.4688,56.46875 C 1183.5263,87.424212 1230.4004,144.91552 1225.0938,228.9375 C 1219.7872,312.95941 1180.8679,369.1041 1108.3438,397.40625 C 1080.0416,413.32614 1065.875,406.25846 1065.875,376.1875 C 1101.2526,331.96546 1118.9687,299.22663 1118.9688,278 C 1118.9688,237.31571 1106.5769,214.3379 1081.8125,209.03125 C 1057.0481,203.7246 1036.7012,209.90493 1020.7812,227.59375 C 1008.399,199.29161 953.56983,168.35874 856.28125,134.75 C 894.42281,74.994882 944.44327,44.689487 1006.3438,43.875 z M 848.8125,186.15625 C 885.52029,186.19946 938.40292,215.95158 1007.5,275.375 C 1023.4199,273.60609 1039.3615,267.85389 1055.2812,258.125 C 1071.2014,248.39616 1079.5844,253.26102 1080.4688,272.71875 C 1081.3531,292.17648 1059.6908,323.99673 1015.4688,368.21875 C 1020.7754,415.97861 1033.1673,454.89778 1052.625,484.96875 C 1059.7004,518.57753 1049.5112,538.92445 1022.0938,546 C 994.67599,553.07549 974.78843,546.00779 962.40625,524.78125 C 948.25519,459.33256 905.81782,435.4362 835.0625,453.125 C 817.37362,458.43166 807.64382,442.52154 805.875,405.375 C 804.1061,355.8463 790.82683,331.09374 766.0625,331.09375 C 739.5292,329.32485 758.10148,283.30679 821.78125,193.09375 C 829.52011,188.45044 838.53432,186.14415 848.8125,186.15625 z M 852.28125,215 C 831.73138,215.28113 818.01067,226.53563 811.15625,248.8125 C 823.53834,284.1902 866.89434,285.07755 941.1875,251.46875 C 903.79222,226.84258 874.15692,214.70073 852.28125,215 z "
     id="path1877"
     sodipodi:nodetypes="csccssscccccscscscsccccsscccscscscscssscsccsccssccsscccccssccscccccccccc" />
</svg>
