<?xml version="1.0" encoding ="US-ASCII" standalone="yes"?>
<svg width="19.554974" height="16.08">
<path style="fill:#000000; stroke:none" d=" M 4.492358 5.12217  Q 4.8447 4.787446 4.8447 4.452721  Q 4.8447 4.206081 4.316187 4.065144  Q 3.082991 4.065144 2.942054 4.329401  Q 2.660181 4.452721 2.025966 5.527362  L 1.145111 6.707708  Q 1.057026 7.130518 1.51507 7.324306  Q 2.871586 6.725325 3.347248 6.725325  Q 4.598061 6.725325 5.320362 8.522268  Q 5.690321 9.332656 6.342153 10.002105  L 6.342153 9.367887  Q 6.342153 7.465243 7.645817 6.531536  Q 7.011602 8.169927 7.126114 9.094824  Q 7.240625 10.019721 7.681052 10.38968  Q 8.350501 10.689172 9.980081 10.565852  Q 11.609663 10.442533 11.891536 10.645126  Q 12.173411 10.847723 13.010221 10.645126  Q 13.847035 10.442533 14.921676 10.442533  Q 14.040821 9.385507 13.864651 7.535711  Q 14.446016 8.469418 14.815975 9.050779  Q 15.185934 9.632146 15.767296 10.063765  Q 16.34866 10.495383 16.912409 10.495383  Q 17.810883 9.121248 17.837303 7.755925  Q 17.863729 6.3906 16.894791 6.443451  L 11.644897 6.3906  Q 8.297649 6.337749 6.271685 5.368809  L 6.007428 5.192639  L 5.478915 5.386425  L 5.09134 5.227872  Q 6.183599 4.435102 6.306919 3.748036  Q 5.461299 4.170847 5.461299 4.329401  Q 5.161809 4.981233 4.492358 5.12217  Z  M 2.589712 5.474512  L 2.589712 5.439278  Q 2.713032 4.840296 3.488184 4.840296  Q 3.770058 4.87553 3.770058 4.946  L 3.770058 4.981233  Q 3.770058 5.280723 2.959671 5.633065  Q 2.677798 5.633065 2.589712 5.474512  Z  M 18.480326 7.024815  Q 18.357006 8.610353 17.916586 10.424914  Q 17.916586 11.534791 18.744585 13.472672  Q 18.339392 13.948333 18.515564 14.882039  Q 18.180843 15.075827 18.268925 15.322466  L 18.445095 15.886214  Q 18.392244 15.991916 18.180843 16.08  L 17.01811 16.08  Q 17.176666 15.445786 17.370449 15.216763  L 17.581854 14.6354  Q 17.758028 13.877864 17.758028 13.437435  Q 17.74041 12.292327 16.753853 11.746197  Q 15.344487 13.314116 15.344487 14.917272  Q 14.956912 15.040591 14.921676 15.498637  Q 15.097848 15.921446 14.780739 16.027151  L 13.56516 16.027151  Q 13.723716 15.463402 14.040821 15.146296  Q 15.027378 13.789778 15.027378 11.851899  Q 15.027378 11.323384 14.675036 11.103172  Q 14.322696 10.882959 13.098308 11.296961  Q 11.87392 11.71096 11.468726 11.437898  Q 11.063535 11.164832 10.314808 11.164832  Q 9.566081 11.164832 8.17433 11.499557  L 8.17433 11.534791  Q 8.17433 11.975219 8.403354 14.459229  L 8.526673 15.11106  Q 8.262416 15.304848 8.332885 15.569105  L 8.438586 16.009533  L 7.029219 16.009533  Q 7.099688 15.41055 7.399178 15.181528  Q 7.645817 14.547313 7.645817 14.353525  Q 7.645817 13.472672 7.240625 12.133772  Q 6.923518 11.60526 6.377387 11.60526  Q 5.179425 14.6354 5.179425 14.970123  L 5.179425 15.005359  Q 4.809466 15.128678 4.809466 15.375318  L 4.879935 15.850979  Q 4.879935 16.08 3.928612 16.08  Q 3.347248 16.08 3.347248 15.850979  Q 3.347248 15.28723 3.822909 14.970123  Q 5.337979 13.102713 5.232276 11.059131  Q 5.232276 9.526443 4.298571 8.117075  Q 4.016697 7.482859 3.259162 7.482859  Q 1.990731 7.852818 1.374133 8.028989  Q 0.616598 7.747117 0.616598 7.289072  Q 0.070468 6.919113 0.528513 6.540346  Q 0.986557 6.161577 1.321282 5.439278  Q 1.656007 4.716976 2.043582 4.153229  Q 0 1.440197 0 0.436023  Q 0.035234 0.259852 0.105703 0.259852  Q 0.246639 0.347938 0.722301 1.193558  Q 1.145111 1.915859 2.219754 2.955267  Q 2.942054 3.48378 3.294396 3.48378  Q 4.016697 3.466163 4.439507 3.096204  Q 5.531767 2.268201 6.870666 0.136532  Q 7.08207 -0.127724 7.20539 0.118915  Q 7.064454 0.823599 6.254067 2.074412  Q 5.443682 3.325226 5.073722 3.554249  L 5.426064 3.818504  Q 5.848874 3.413311 6.694495 3.166672  Q 6.729729 3.48378 6.694495 3.703994  Q 6.65926 3.924207 6.324536 4.523188  Q 8.350501 5.721151 12.560986 5.721151  L 18.251307 5.721151  Q 18.656504 5.756384 19.220243 6.619622  Q 19.378801 6.919113 19.519741 7.482859  Q 19.625441 12.028069 19.449268 13.032245  Q 19.29072 13.366968 19.061693 12.891307  Q 18.374626 11.235301 18.533184 9.684997  Q 18.691734 8.134692 18.480326 7.024815  Z "/></svg>
