<?xml version="1.0" encoding="UTF-8" standalone="no"?>
<svg
   xmlns:dc="http://purl.org/dc/elements/1.1/"
   xmlns:cc="http://web.resource.org/cc/"
   xmlns:rdf="http://www.w3.org/1999/02/22-rdf-syntax-ns#"
   xmlns:svg="http://www.w3.org/2000/svg"
   xmlns="http://www.w3.org/2000/svg"
   xmlns:sodipodi="http://sodipodi.sourceforge.net/DTD/sodipodi-0.dtd"
   xmlns:inkscape="http://www.inkscape.org/namespaces/inkscape"
   width="21.803448"
   height="15.12"
   id="svg2757"
   sodipodi:version="0.32"
   inkscape:version="0.44"
   sodipodi:docname="US22E100A.svg"
   sodipodi:docbase="C:\Program Files\Inkscape\envoi31\E">
  <metadata
     id="metadata2764">
    <rdf:RDF>
      <cc:Work
         rdf:about="">
        <dc:format>image/svg+xml</dc:format>
        <dc:type
           rdf:resource="http://purl.org/dc/dcmitype/StillImage" />
        <cc:license
           rdf:resource="http://creativecommons.org/licenses/GPL/2.0/" />
        <dc:description>FCD p.220
remplace par ailleurs le même signe déjà créé mais imparfait à mon goût</dc:description>
        <dc:publisher>
          <cc:Agent>
            <dc:title>Serge Rosmorduc</dc:title>
          </cc:Agent>
        </dc:publisher>
        <dc:date>30/09/06</dc:date>
        <dc:creator>
          <cc:Agent>
            <dc:title>Serge Thomas</dc:title>
          </cc:Agent>
        </dc:creator>
        <dc:title>US22E100A</dc:title>
      </cc:Work>
      <cc:License
         rdf:about="http://creativecommons.org/licenses/GPL/2.0/">
        <cc:permits
           rdf:resource="http://web.resource.org/cc/Reproduction" />
        <cc:permits
           rdf:resource="http://web.resource.org/cc/Distribution" />
        <cc:requires
           rdf:resource="http://web.resource.org/cc/Notice" />
        <cc:permits
           rdf:resource="http://web.resource.org/cc/DerivativeWorks" />
        <cc:requires
           rdf:resource="http://web.resource.org/cc/ShareAlike" />
        <cc:requires
           rdf:resource="http://web.resource.org/cc/SourceCode" />
      </cc:License>
    </rdf:RDF>
  </metadata>
  <defs
     id="defs2762" />
  <sodipodi:namedview
     inkscape:window-height="569"
     inkscape:window-width="939"
     inkscape:pageshadow="2"
     inkscape:pageopacity="0.0"
     guidetolerance="10.0"
     gridtolerance="10.0"
     objecttolerance="10.0"
     borderopacity="1.0"
     bordercolor="#666666"
     pagecolor="#ffffff"
     id="base"
     inkscape:zoom="24.933863"
     inkscape:cx="10.901724"
     inkscape:cy="7.5600002"
     inkscape:window-x="-3"
     inkscape:window-y="19"
     inkscape:current-layer="svg2757" />
  <path
     style="fill:#000000; stroke:none"
     d=" M 5.0089 5.711128  Q 5.401754 5.337916 5.401754 4.964704  Q 5.401754 4.689704 4.812472 4.532563  Q 3.43748 4.532563 3.280338 4.827204  Q 2.966054 4.964704 2.258915 6.162911  L 1.276778 7.478974  Q 1.178565 7.950398 1.689276 8.16647  Q 3.201767 7.498617 3.732121 7.498617  Q 5.126756 7.498617 5.824073 8.971821  Q 6.521391 10.445028 7.424956 11.014668  Q 7.071387 8.323611 8.52495 7.282546  Q 7.817811 9.109322 7.945488 10.140568  Q 8.073166 11.17181 8.564236 11.584309  Q 9.271374 12.055734 10.469583 11.780735  Q 11.667789 11.505737 12.856176 11.446808  Q 14.04456 11.38788 14.594556 12.409302  Q 14.005275 9.737889 16.165977 8.264684  Q 14.96777 10.170031 15.007052 11.279845  Q 15.046339 12.38966 16.372225 13.165548  Q 17.698111 13.941437 17.609718 13.450369  Q 17.521324 12.959299 17.806147 12.586088  Q 18.090965 12.212876 18.866854 11.829843  Q 19.642744 11.446808 19.662386 9.335213  Q 19.68203 7.223618 17.933823 7.262903  Q 16.185619 7.302189 12.983854 7.125404  Q 9.251732 7.066477 6.992816 5.986126  L 6.698175 5.789699  L 6.108892 6.005768  L 5.676753 5.828984  Q 6.894602 4.945061 7.032101 4.178993  Q 6.089251 4.650419 6.089251 4.827204  Q 5.755324 5.553986 5.0089 5.711128  Z  M 2.887483 6.103983  L 2.887483 6.064697  Q 3.024983 5.396844 3.889263 5.396844  Q 4.203547 5.436129 4.203547 5.5147  L 4.203547 5.553986  Q 4.203547 5.887912 3.299981 6.280767  Q 2.985697 6.280767 2.887483 6.103983  Z  M 12.080288 14.707501  L 11.903502 14.570005  Q 11.530292 14.412862 11.353505 14.62893  L 11.039222 15.080714  Q 10.862437 15.257499 10.09637 14.648574  Q 9.664228 14.275363 9.821372 14.078937  Q 10.292798 13.587866 10.901723 13.627152  Q 13.396351 13.60751 15.007052 13.411083  Q 15.458837 13.155728 14.506164 13.155728  Q 13.553493 13.155728 13.278495 12.016448  Q 9.487446 12.330731 9.644587 12.733408  Q 9.801729 13.136085 8.515128 12.861086  Q 7.228528 12.586088 5.833894 12.330731  Q 3.260695 12.487874 2.661592 12.664659  Q 2.062488 12.841443 3.211589 12.998585  Q 4.360689 13.155728 6.069608 12.920014  L 6.108892 13.155728  Q 6.383892 13.489654 6.65889 13.430726  L 7.189243 13.273584  Q 7.464241 13.234299 7.758883 14.177149  Q 7.935668 14.76643 7.660669 14.805716  Q 6.992816 14.923573 6.462462 14.530719  Q 3.633907 13.705724 1.630348 13.941437  Q 0.510711 13.018228 1.021422 12.330731  Q 1.374992 11.643236 2.21963 11.584309  Q 4.714258 11.427166 6.069608 11.014668  Q 5.617825 10.307529 4.792829 9.050393  Q 4.478545 8.343255 3.633907 8.343255  Q 2.21963 8.755752 1.532134 8.95218  Q 0.687496 8.637896 0.687496 8.127184  Q 0.078571 7.714686 0.589282 7.292368  Q 1.099994 6.870049 1.473206 6.064697  Q 1.846418 5.259344 2.278558 4.630776  Q 0 1.605794 0 0.486158  Q 0.039285 0.28973 0.117856 0.28973  Q 0.274998 0.387944 0.805352 1.330796  Q 1.276778 2.136148 2.474986 3.29507  Q 3.280338 3.884352 3.673193 3.884352  Q 4.478545 3.864709 4.949971 3.452212  Q 6.167821 2.529003 7.660669 0.152231  Q 7.896382 -0.14241 8.033881 0.132589  Q 7.876738 0.918298 6.973174 2.312933  Q 6.069608 3.707567 5.657109 3.962923  L 6.049965 4.257564  Q 6.521391 3.805781 7.464241 3.530783  Q 7.503526 3.884352 7.464241 4.129886  Q 7.424956 4.37542 7.051744 5.043274  Q 9.310659 6.378981 14.005275 6.378981  L 19.957029 6.418267  Q 21.567732 6.732551 21.764162 8.343255  Q 21.882017 13.411083 21.685589 14.530719  Q 21.508804 14.90393 21.253448 14.373577  Q 20.487383 12.52716 20.644526 9.95396  Q 20.801664 7.380761 19.957029 7.478974  Q 20.310595 9.95396 20.006134 11.044132  Q 19.701672 12.134306 18.935604 12.438767  Q 18.169537 12.743231 18.238285 13.352156  Q 18.307032 13.961081 18.061502 14.206614  Q 17.815964 14.452147 17.030256 14.393219  Q 12.944568 14.334291 12.080288 14.707501  Z "
     id="path2759" />
</svg>
