<?xml version="1.0" encoding="UTF-8" standalone="no"?>
<svg
   xmlns:dc="http://purl.org/dc/elements/1.1/"
   xmlns:cc="http://web.resource.org/cc/"
   xmlns:rdf="http://www.w3.org/1999/02/22-rdf-syntax-ns#"
   xmlns:svg="http://www.w3.org/2000/svg"
   xmlns="http://www.w3.org/2000/svg"
   xmlns:sodipodi="http://sodipodi.sourceforge.net/DTD/sodipodi-0.dtd"
   xmlns:inkscape="http://www.inkscape.org/namespaces/inkscape"
   width="25.350893"
   height="17.972717"
   id="svg2638"
   sodipodi:version="0.32"
   inkscape:version="0.44"
   sodipodi:docname="US22E101A.svg"
   sodipodi:docbase="C:\Program Files\Inkscape\envoi31\EL">
  <metadata
     id="metadata2645">
    <rdf:RDF>
      <cc:Work
         rdf:about="">
        <dc:format>image/svg+xml</dc:format>
        <dc:type
           rdf:resource="http://purl.org/dc/dcmitype/StillImage" />
        <cc:license
           rdf:resource="http://creativecommons.org/licenses/GPL/2.0/" />
        <dc:title>US22E101A</dc:title>
        <dc:date>30/09/06</dc:date>
        <dc:creator>
          <cc:Agent>
            <dc:title>ST</dc:title>
          </cc:Agent>
        </dc:creator>
        <dc:publisher>
          <cc:Agent>
            <dc:title>Serge Rosmorduc</dc:title>
          </cc:Agent>
        </dc:publisher>
        <dc:description>pour exprimer E101A de l'extended library</dc:description>
      </cc:Work>
      <cc:License
         rdf:about="http://creativecommons.org/licenses/GPL/2.0/">
        <cc:permits
           rdf:resource="http://web.resource.org/cc/Reproduction" />
        <cc:permits
           rdf:resource="http://web.resource.org/cc/Distribution" />
        <cc:requires
           rdf:resource="http://web.resource.org/cc/Notice" />
        <cc:permits
           rdf:resource="http://web.resource.org/cc/DerivativeWorks" />
        <cc:requires
           rdf:resource="http://web.resource.org/cc/ShareAlike" />
        <cc:requires
           rdf:resource="http://web.resource.org/cc/SourceCode" />
      </cc:License>
    </rdf:RDF>
  </metadata>
  <defs
     id="defs2643" />
  <sodipodi:namedview
     inkscape:window-height="569"
     inkscape:window-width="939"
     inkscape:pageshadow="2"
     inkscape:pageopacity="0.0"
     guidetolerance="10.0"
     gridtolerance="10.0"
     objecttolerance="10.0"
     borderopacity="1.0"
     bordercolor="#666666"
     pagecolor="#ffffff"
     id="base"
     inkscape:zoom="20.976238"
     inkscape:cx="12.675447"
     inkscape:cy="8.9863586"
     inkscape:window-x="22"
     inkscape:window-y="29"
     inkscape:current-layer="svg2638" />
  <path
     style="fill:#000000; stroke:none"
     d=" M 3.401469 7.223568  L 3.425198 7.199839  Q 3.757401 6.416789 4.77774 6.654077  Q 5.133672 6.77272 5.109943 6.891365  L 5.086214 6.915093  Q 5.015028 7.318483 3.828587 7.555771  Q 3.448926 7.460856 3.401469 7.223568  Z  M 20.509939 9.335432  L 16.428583 4.304924  L 16.238754 4.471026  L 19.631973 10.071025  Q 20.391294 10.047296 20.509939 9.335432  Z  M 1.431978 9.335432  Q 3.401469 8.95577 4.018418 9.098144  Q 5.086214 9.335432 5.584519 10.094753  Q 6.082824 10.854075 6.545536 12.206617  Q 7.008248 13.559159 7.577739 14.508311  Q 8.14723 15.457464 8.692993 15.789667  Q 8.645535 16.620174 7.482824 16.750683  Q 6.320112 16.881191 4.872655 16.71509  Q 4.018418 16.71509 4.160791 17.094751  L 24.543837 17.094751  Q 24.520107 15.243904 23.286209 13.891362  Q 21.886209 12.586278 18.991295 12.633736  Q 15.455703 12.396448 13.248924 11.518482  Q 11.042145 10.640516 9.665874 9.904923  Q 8.289603 9.16933 7.981129 7.887974  L 7.221807 7.98289  L 6.770959 7.626957  Q 8.431976 6.915093 8.811637 6.060856  Q 7.55401 6.345602 7.506553 6.58289  Q 6.937061 7.342212 5.987909 7.294754  Q 6.581129 6.98628 6.676044 6.559161  Q 6.747231 6.226958 6.082824 5.871026  Q 4.445537 5.491365 4.18452 5.823568  Q 3.804858 5.918483 2.618418 7.128653  L 1.123503 8.410008  Q 0.909944 8.95577 1.431978 9.335432  Z  M 7.269265 15.623566  Q 5.987909 14.057465 5.679434 12.728651  Q 5.37096 11.399837 5.026892 10.830346  Q 4.682825 10.260855 3.686214 10.047296  Q 1.930283 10.16594 1.052317 10.237126  Q 0.150622 9.620177 0.269266 9.026958  Q -0.323954 8.362551 0.38791 8.006618  Q 1.099775 7.650686 1.752317 6.808314  Q 2.404859 5.965941 3.092994 5.325264  L 3.092994 5.325264  Q 1.930283 4.043908 1.716724 2.762552  Q 1.503164 1.481197 0.672656 0.4134  Q 0.530283 -0.251006 1.170961 0.152383  Q 1.882825 0.81679 2.131978 1.504925  Q 2.38113 2.193061 3.211638 3.426959  Q 4.042147 4.660857 5.204858 4.755772  Q 6.486214 4.99306 7.945536 4.055772  Q 9.404857 3.118484 9.962484 2.632044  Q 10.520111 2.145603 11.469263 1.908315  Q 12.204856 1.837129 11.754009 2.359163  Q 10.520111 2.928654 9.737061 3.948992  Q 8.95401 4.969331 7.316722 5.538823  L 7.648925 5.871026  Q 8.289603 5.491365 9.476044 5.420178  Q 9.428586 5.823568 9.309942 6.108314  Q 9.191298 6.39306 8.574348 7.081195  Q 9.120111 8.789669 9.879434 9.157466  Q 10.638755 9.525262 11.659094 9.833736  L 15.692991 3.498145  Q 16.191296 2.786281 16.618414 3.450688  L 21.26926 9.311703  Q 20.937057 10.854075 19.370956 10.925261  L 15.787906 4.99306  L 12.750619 10.16594  Q 15.882821 11.660854 19.276041 11.743905  Q 22.66926 11.826957 23.998074 13.369328  Q 25.398073 15.030345 25.350615 16.810005  L 25.350615 17.972717  L 3.757401 17.972717  Q 3.164181 17.664244 3.152316 17.047295  Q 3.140452 16.430346 3.757401 15.789667  Q 4.682825 15.576108 5.8574 15.801532  Q 7.031976 16.026955 7.269265 15.623566  Z "
     id="path2640" />
</svg>
