<?xml version="1.0" encoding="UTF-8" standalone="no"?>
<svg
   xmlns:dc="http://purl.org/dc/elements/1.1/"
   xmlns:cc="http://web.resource.org/cc/"
   xmlns:rdf="http://www.w3.org/1999/02/22-rdf-syntax-ns#"
   xmlns:svg="http://www.w3.org/2000/svg"
   xmlns="http://www.w3.org/2000/svg"
   xmlns:sodipodi="http://sodipodi.sourceforge.net/DTD/sodipodi-0.dtd"
   xmlns:inkscape="http://www.inkscape.org/namespaces/inkscape"
   width="25.350893"
   height="17.972717"
   id="svg2638"
   sodipodi:version="0.32"
   inkscape:version="0.45.1"
   sodipodi:docname="E101.svg"
   sodipodi:docbase="/Users/rosmord/Travail/Gsigns/SThomasDetail/ManuelDeCodage/E"
   inkscape:output_extension="org.inkscape.output.svg.inkscape">
  <metadata
     id="metadata2645">
    <rdf:RDF>
      <cc:Work
         rdf:about="">
        <dc:format>image/svg+xml</dc:format>
        <dc:type
           rdf:resource="http://purl.org/dc/dcmitype/StillImage" />
        <cc:license
           rdf:resource="http://creativecommons.org/licenses/GPL/2.0/" />
        <dc:title>US22E101A</dc:title>
        <dc:date>30/09/06</dc:date>
        <dc:creator>
          <cc:Agent>
            <dc:title>ST</dc:title>
          </cc:Agent>
        </dc:creator>
        <dc:publisher>
          <cc:Agent>
            <dc:title>Serge Rosmorduc</dc:title>
          </cc:Agent>
        </dc:publisher>
        <dc:description>pour exprimer E101A de l'extended library</dc:description>
      </cc:Work>
      <cc:License
         rdf:about="http://creativecommons.org/licenses/GPL/2.0/">
        <cc:permits
           rdf:resource="http://web.resource.org/cc/Reproduction" />
        <cc:permits
           rdf:resource="http://web.resource.org/cc/Distribution" />
        <cc:requires
           rdf:resource="http://web.resource.org/cc/Notice" />
        <cc:permits
           rdf:resource="http://web.resource.org/cc/DerivativeWorks" />
        <cc:requires
           rdf:resource="http://web.resource.org/cc/ShareAlike" />
        <cc:requires
           rdf:resource="http://web.resource.org/cc/SourceCode" />
      </cc:License>
    </rdf:RDF>
  </metadata>
  <defs
     id="defs2643" />
  <sodipodi:namedview
     inkscape:window-height="581"
     inkscape:window-width="939"
     inkscape:pageshadow="2"
     inkscape:pageopacity="0.0"
     guidetolerance="10.0"
     gridtolerance="10.0"
     objecttolerance="10.0"
     borderopacity="1.0"
     bordercolor="#666666"
     pagecolor="#ffffff"
     id="base"
     inkscape:zoom="20.976238"
     inkscape:cx="12.675447"
     inkscape:cy="8.9863586"
     inkscape:window-x="22"
     inkscape:window-y="29"
     inkscape:current-layer="svg2638" />
  <path
     style="fill:#000000; stroke:none"
     d="M 3.401469,7.223568 L 3.425198,7.199839 C 3.6466667,6.6778057 4.097514,6.495885 4.77774,6.654077 C 5.015028,6.7331723 5.1257623,6.8122683 5.109943,6.891365 L 5.086214,6.915093 C 5.0387567,7.1840197 4.6195477,7.397579 3.828587,7.555771 C 3.5754797,7.4924943 3.433107,7.38176 3.401469,7.223568 z M 1.431978,9.335432 C 2.744972,9.082324 3.6071187,9.003228 4.018418,9.098144 C 4.730282,9.256336 5.2523157,9.588539 5.584519,10.094753 C 5.9167223,10.600968 6.2370613,11.304922 6.545536,12.206617 C 6.8540107,13.108312 7.1980783,13.875543 7.577739,14.508311 C 7.9573997,15.14108 8.329151,15.568198 8.692993,15.789667 C 8.6613543,16.343338 8.2579647,16.663677 7.482824,16.750683 C 6.7076827,16.837688 5.8376263,16.825824 4.872655,16.71509 C 4.3031637,16.71509 4.0658757,16.841644 4.160791,17.094751 L 24.543837,17.094751 C 24.528017,15.860853 24.108808,14.793057 23.286209,13.891362 C 22.352876,13.021306 20.921238,12.602097 18.991295,12.633736 C 16.634234,12.475544 14.72011,12.103793 13.248924,11.518482 C 11.777738,10.933171 10.583388,10.395318 9.665874,9.904923 C 8.74836,9.4145277 8.1867783,8.7422113 7.981129,7.887974 L 7.221807,7.98289 L 6.770959,7.626957 C 7.8783037,7.152381 8.5585297,6.6303473 8.811637,6.060856 C 7.973219,6.2506867 7.538191,6.424698 7.506553,6.58289 C 7.1268917,7.0891047 6.620677,7.3263927 5.987909,7.294754 C 6.383389,7.0891047 6.6127673,6.843907 6.676044,6.559161 C 6.723502,6.3376923 6.525762,6.108314 6.082824,5.871026 C 4.9912993,5.6179187 4.3585313,5.6020993 4.18452,5.823568 C 3.931412,5.8868447 3.409378,6.321873 2.618418,7.128653 L 1.123503,8.410008 C 0.98113033,8.7738493 1.0839553,9.082324 1.431978,9.335432 z M 7.269265,15.623566 C 6.4150277,14.579499 5.885084,13.614527 5.679434,12.728651 C 5.4737847,11.842775 5.2562707,11.210007 5.026892,10.830346 C 4.797514,10.450685 4.3506213,10.189669 3.686214,10.047296 C 2.5155933,10.126392 1.6376277,10.189669 1.052317,10.237126 C 0.451187,9.8258267 0.19017,9.4224373 0.269266,9.026958 C -0.126214,8.58402 -0.086666,8.2439067 0.38791,8.006618 C 0.86248667,7.76933 1.317289,7.3698953 1.752317,6.808314 C 2.187345,6.246732 2.6342373,5.752382 3.092994,5.325264 L 3.092994,5.325264 C 2.3178533,4.4710267 1.8590967,3.6167893 1.716724,2.762552 C 1.5743507,1.9083153 1.226328,1.1252647 0.672656,0.4134 C 0.57774067,-0.029537333 0.74384233,-0.116543 1.170961,0.152383 C 1.645537,0.595321 1.965876,1.0461683 2.131978,1.504925 C 2.2980793,1.9636823 2.657966,2.6043603 3.211638,3.426959 C 3.7653107,4.2495577 4.4297173,4.6924953 5.204858,4.755772 C 6.0590953,4.913964 6.9726547,4.6806307 7.945536,4.055772 C 8.9184167,3.4309133 9.5907327,2.9563373 9.962484,2.632044 C 10.334235,2.30775 10.836495,2.066507 11.469263,1.908315 C 11.959658,1.8608577 12.054574,2.0111403 11.754009,2.359163 C 10.93141,2.7388237 10.259094,3.2687667 9.737061,3.948992 C 9.215027,4.629218 8.4082473,5.1591617 7.316722,5.538823 L 7.648925,5.871026 C 8.0760437,5.6179187 8.6850833,5.467636 9.476044,5.420178 C 9.4444053,5.6891047 9.389038,5.9184833 9.309942,6.108314 C 9.230846,6.2981447 8.985648,6.6224383 8.574348,7.081195 C 8.93819,8.2201777 9.378289,8.9022215 9.879434,9.157466 C 12.924284,10.708277 15.677762,11.641185 19.276041,11.743905 C 21.535914,11.809284 23.112198,12.341081 23.998074,13.369328 C 24.931407,14.476673 25.382254,15.623565 25.350615,16.810005 L 25.350615,17.972717 L 3.757401,17.972717 C 3.361921,17.767068 3.160226,17.458594 3.152316,17.047295 C 3.1444067,16.635996 3.3461017,16.216786 3.757401,15.789667 C 4.3743503,15.647294 5.07435,15.651249 5.8574,15.801532 C 6.6404507,15.951814 7.1110723,15.892492 7.269265,15.623566 z "
     id="path2640"
     sodipodi:nodetypes="ccccccccsssscscccccssccccccsccccccsscccssccsccsscssccscccscssccccscsc" />
</svg>
