<?xml version="1.0" encoding="UTF-8" standalone="no"?>
<svg
   xmlns:dc="http://purl.org/dc/elements/1.1/"
   xmlns:cc="http://web.resource.org/cc/"
   xmlns:rdf="http://www.w3.org/1999/02/22-rdf-syntax-ns#"
   xmlns:svg="http://www.w3.org/2000/svg"
   xmlns="http://www.w3.org/2000/svg"
   xmlns:sodipodi="http://sodipodi.sourceforge.net/DTD/sodipodi-0.dtd"
   xmlns:inkscape="http://www.inkscape.org/namespaces/inkscape"
   width="27.5"
   height="17.968832"
   id="svg2214"
   sodipodi:version="0.32"
   inkscape:version="0.45"
   sodipodi:docname="E103W.svg"
   inkscape:output_extension="org.inkscape.output.svg.inkscape"
   sodipodi:docbase="C:\Program Files\JSesh\fontsST"
   version="1.0"
   sodipodi:modified="true">
  <metadata
     id="metadata2221">
    <rdf:RDF>
      <cc:Work
         rdf:about="">
        <dc:format>image/svg+xml</dc:format>
        <dc:type
           rdf:resource="http://purl.org/dc/dcmitype/StillImage" />
      </cc:Work>
    </rdf:RDF>
  </metadata>
  <defs
     id="defs2219" />
  <sodipodi:namedview
     inkscape:window-height="712"
     inkscape:window-width="1024"
     inkscape:pageshadow="2"
     inkscape:pageopacity="0.0"
     guidetolerance="10.0"
     gridtolerance="10.0"
     objecttolerance="10.0"
     borderopacity="1.0"
     bordercolor="#666666"
     pagecolor="#ffffff"
     id="base"
     inkscape:zoom="28.716391"
     inkscape:cx="13.75"
     inkscape:cy="8.984416"
     inkscape:window-x="-4"
     inkscape:window-y="-4"
     inkscape:current-layer="svg2214" />
  <path
     style="fill:#000000;stroke:none"
     d="M 4.1875,8.1655232e-005 C 4.0876622,0.0010017802 3.9633713,0.012928488 3.84375,0.031331655 C 3.3652653,0.10494499 3.1231953,0.37090301 3.09375,0.81258166 C 3.09375,1.0186984 3.165274,1.324931 3.3125,1.7813317 C 3.459726,2.237733 3.5238887,2.6650711 3.53125,3.0625817 C 3.5386113,3.4600924 3.2818187,3.6893864 2.78125,3.7188317 C 2.030396,3.7188317 1.6562501,2.8623503 1.65625,1.1250817 C 1.65625,0.53617633 1.4765379,0.21702634 1.09375,0.18758166 C 0.710962,0.15813633 0.4193101,0.17827365 0.25,0.28133166 C 0.08069,0.38439033 0,0.50910567 0,0.65633166 C 0.088336,0.75938966 0.2130513,0.775917 0.375,0.68758166 C 0.5369487,0.59924566 0.7038853,0.57174766 0.84375,0.59383166 C 0.9836153,0.61591566 1.0459726,0.79562769 1.03125,1.1563317 C 1.0165273,1.5170364 0.9999999,1.9499311 1,2.4063317 C 1,2.862733 1.2145721,3.506447 1.65625,4.3750817 C 1.5826373,4.640089 1.5093086,4.8693839 1.40625,5.0313317 C 1.303192,5.193281 1.1968086,5.4793765 1.09375,5.9063317 C 0.710962,6.4363464 0.5312499,6.7554965 0.53125,6.8438317 C 0.6048633,7.2118977 0.6616646,7.3732769 0.75,7.3438317 C 0.838336,7.5793937 1.0859619,7.6692498 1.46875,7.6250817 L 1.65625,7.5938317 C 2.0537607,7.343547 2.3711053,7.1473078 2.5625,7.0000817 C 2.8275067,7.6478764 3.17596,8.2622878 3.625,8.8438317 C 4.07404,9.425375 4.28125,9.9517354 4.28125,10.437582 C 4.28125,10.923428 4.4591573,11.471873 4.8125,12.031332 C 5.0186167,12.826353 5.0681987,13.398544 4.90625,13.781332 C 4.7443013,14.16412 4.641528,14.475909 4.65625,14.718832 C 4.6709727,14.961755 4.544452,15.557835 4.25,16.500082 C 4.1469413,16.779813 3.9525067,16.941192 3.6875,17.000082 C 3.2752667,17.412316 3.09375,17.733271 3.09375,17.968832 L 4.53125,17.968832 C 4.53125,17.718547 4.5679147,17.555362 4.65625,17.437582 C 5.0390387,17.59953 5.1986133,17.405096 5.125,16.875082 C 5.3752847,15.74144 5.5697193,15.127029 5.6875,15.031332 C 5.8052813,14.935635 5.8419452,14.809115 5.8125,14.625082 C 5.7830547,14.44105 5.9774892,13.6872 6.375,12.406332 C 6.566394,12.583003 6.8341574,12.955345 7.1875,13.500082 C 7.5408427,14.044819 7.7205548,14.384106 7.75,14.531332 C 7.7794453,14.678558 7.85833,14.810635 7.96875,14.906332 C 8.0257337,14.955718 8.2170388,15.200146 8.34375,15.375082 C 8.3406757,15.388379 8.3473374,15.392308 8.34375,15.406332 C 8.269399,15.696989 8.1399141,16.052357 8,16.500082 C 7.8969413,16.779813 7.7337567,16.941192 7.46875,17.000082 C 7.0565167,17.412316 6.84375,17.733271 6.84375,17.968832 L 8.3125,17.968832 C 8.3125,17.718547 8.3491647,17.555362 8.4375,17.437582 C 8.4628316,17.448299 8.4766263,17.46123 8.5,17.468832 C 8.4079839,17.638142 8.3511109,17.799522 8.34375,17.968832 L 9.875,17.968832 L 9.875,17.468832 C 10.125285,17.321607 10.273889,17.171197 10.28125,17.031332 C 10.288611,16.891466 10.218893,16.781473 10.09375,16.656332 C 9.968608,16.531189 9.7723688,16.177181 9.5,15.625082 C 9.4244457,15.471932 9.3687951,15.376609 9.3125,15.250082 C 9.3559907,15.132439 9.4029019,15.059443 9.4375,15.031332 C 9.5552813,14.935635 9.6231953,14.809115 9.59375,14.625082 C 9.5643047,14.44105 9.7274894,13.6872 10.125,12.406332 C 10.316394,12.583003 10.584157,12.955345 10.9375,13.500082 C 11.290843,14.044819 11.501805,14.384106 11.53125,14.531332 C 11.560695,14.678558 11.63958,14.810635 11.75,14.906332 C 11.812744,14.96071 11.986196,15.245345 12.125,15.437582 C 12.054986,15.722684 11.978849,16.067764 11.84375,16.500082 C 11.740691,16.779813 11.546257,16.941192 11.28125,17.000082 C 10.869017,17.412316 10.65625,17.73327 10.65625,17.968832 L 12.125,17.968832 L 13.65625,17.968832 L 13.65625,17.468832 C 13.906535,17.321607 14.023889,17.171197 14.03125,17.031332 C 14.038611,16.891466 13.968893,16.781473 13.84375,16.656332 C 13.718608,16.531189 13.522369,16.177181 13.25,15.625082 C 13.242562,15.610005 13.225195,15.607572 13.21875,15.593832 C 13.307711,15.478807 13.377137,15.39011 13.4375,15.343832 C 13.658339,15.174522 13.783055,14.860929 13.8125,14.375082 L 14.6875,13.375082 C 14.719143,13.423123 14.748109,13.448989 14.78125,13.500082 C 15.134593,14.044819 15.314305,14.384106 15.34375,14.531332 C 15.373195,14.678558 15.45208,14.810635 15.5625,14.906332 C 15.613561,14.950585 15.773567,15.208279 15.875,15.343832 C 15.759811,15.600345 15.621816,15.825182 15.5,16.031332 C 15.212909,16.517178 14.919453,16.889519 14.625,17.125082 C 14.28638,17.390089 14.125,17.659657 14.125,17.968832 L 15.65625,17.968832 L 15.625,17.687582 C 15.875284,17.687582 15.983472,17.513283 15.96875,17.218832 C 16.182306,16.833389 16.334356,16.582852 16.5,16.312582 C 16.600892,16.581533 16.592496,16.794798 16.46875,16.937582 C 16.115407,17.276203 15.920972,17.630211 15.90625,17.968832 L 17.46875,17.968832 L 17.75,17.968832 L 18.03125,17.250082 C 18.149032,17.301611 18.238922,17.312618 18.28125,17.281332 C 18.323578,17.250046 18.314377,17.176682 18.28125,17.062582 C 18.214999,16.834382 18.152641,16.656475 18.09375,16.531332 C 18.036262,16.409169 18.001368,15.505478 18,13.875082 L 18.84375,12.937582 C 19.37714,13.508186 19.790183,13.899163 20.125,14.187582 C 19.877513,14.939536 19.627086,15.551839 19.34375,16.031332 C 19.056659,16.517178 18.763203,16.889519 18.46875,17.125082 C 18.397119,17.181141 18.339374,17.224533 18.28125,17.281332 C 18.064606,17.493038 17.9375,17.725059 17.9375,17.968832 L 19.46875,17.968832 L 19.4375,17.687582 C 19.687784,17.687582 19.795972,17.513284 19.78125,17.218832 C 20.197752,16.467094 20.515743,15.969979 20.75,15.656332 C 20.781883,15.973008 20.822206,16.323037 20.8125,16.750082 C 20.518049,17.118148 20.235563,17.512431 20,17.968832 L 21.5,17.968832 L 21.78125,17.250082 C 22.016813,17.35314 22.128753,17.290783 22.0625,17.062582 C 21.996249,16.834382 21.933891,16.656475 21.875,16.531332 C 21.818447,16.411156 21.783494,15.517323 21.78125,13.937582 L 22.65625,12.937582 C 23.289323,13.614823 23.771657,14.095352 24.125,14.375082 C 24.478343,14.654812 24.654446,15.454492 24.625,16.750082 C 24.330549,17.118148 24.048063,17.512431 23.8125,17.968832 L 25.3125,17.968832 L 25.625,17.250082 C 25.860563,17.35314 25.941252,17.290782 25.875,17.062582 C 25.808749,16.834382 25.746392,16.656474 25.6875,16.531332 C 25.62861,16.40619 25.59375,15.489156 25.59375,13.781332 C 25.166793,13.251317 24.9375,12.805646 24.9375,12.437582 C 24.9375,11.981181 25.164989,11.109977 25.5625,9.8438317 C 26.313355,9.6524374 26.940542,9.1866308 27.5,8.4063317 L 26.46875,7.5938317 C 26.130131,8.1532912 25.724734,8.5989614 25.3125,8.9375817 C 25.3125,8.5695161 24.830166,8.1256504 23.84375,7.6250817 C 22.813167,7.1097899 21.86683,6.8952185 20.96875,6.9688317 C 20.257082,7.069812 19.570803,7.1462819 18.90625,7.1875817 C 18.885929,7.1814657 18.864048,7.1934674 18.84375,7.1875817 C 18.250222,7.0154772 17.668955,6.9242452 17.125,6.9688317 C 16.665785,7.0339909 16.220847,7.0847717 15.78125,7.1250817 C 15.551861,7.1022243 15.315916,7.0945886 15.09375,7.0625817 C 14.13678,7.0331366 13.408624,6.7231522 12.9375,6.1563317 C 12.466377,5.5895112 12.002374,5.1878666 11.53125,4.9375817 C 11.53125,4.7314652 11.744016,4.6067497 12.15625,4.5625817 C 12.524315,4.1061806 12.669168,3.6806471 12.625,3.3125817 C 12.625,3.0475743 12.555281,2.7963385 12.4375,2.5313317 L 11.84375,3.0625817 C 11.84375,2.6209029 11.737367,2.2192584 11.53125,1.8438317 C 11.325133,1.468405 11.226111,1.1456457 11.21875,0.84383166 C 11.211389,0.54201833 11.319577,0.38980432 11.5625,0.37508166 C 11.805423,0.36035899 12.010828,0.397023 12.1875,0.50008166 C 12.467229,0.52952633 12.522226,0.42494832 12.375,0.21883166 C 12.213051,0.012715652 11.915985,-0.042281011 11.4375,0.031331655 C 10.959015,0.104945 10.685695,0.37090302 10.65625,0.81258166 C 10.65625,1.0186984 10.727774,1.324931 10.875,1.7813317 C 11.022226,2.237733 11.117639,2.6650711 11.125,3.0625817 C 11.132361,3.4600923 10.875569,3.6893864 10.375,3.7188317 C 9.624146,3.7188316 9.25,2.8623503 9.25,1.1250817 C 9.25,0.53617633 9.070288,0.21702633 8.6875,0.18758166 C 8.6276894,0.18298083 8.5858488,0.18894755 8.53125,0.18758166 C 8.406601,0.054976688 8.2150978,-0.0024767411 7.9375,8.1655232e-005 C 7.8376622,0.0010017802 7.7133713,0.012928488 7.59375,0.031331655 C 7.1152653,0.104945 6.8731953,0.37090301 6.84375,0.81258166 C 6.84375,1.0186984 6.915274,1.324931 7.0625,1.7813317 C 7.209726,2.237733 7.2738887,2.6650711 7.28125,3.0625817 C 7.2886113,3.4600923 7.0630687,3.6893864 6.5625,3.7188317 C 5.811646,3.7188316 5.4375001,2.8623503 5.4375,1.1250817 C 5.4375,0.53617633 5.2265381,0.21702634 4.84375,0.18758166 C 4.8198257,0.18574133 4.8042257,0.18902649 4.78125,0.18758166 C 4.656601,0.054976691 4.4650978,-0.0024767411 4.1875,8.1655232e-005 z M 3.90625,0.37508166 C 3.8290588,0.45467458 3.7812499,0.55616972 3.78125,0.65633166 C 3.869586,0.75938966 3.9943012,0.775917 4.15625,0.68758166 C 4.3181987,0.59924566 4.4538853,0.57174766 4.59375,0.59383166 C 4.7336153,0.61591566 4.7959726,0.79562765 4.78125,1.1563317 C 4.7665273,1.5170364 4.7812499,1.9499311 4.78125,2.4063317 C 4.78125,2.4637753 4.8056768,2.5303786 4.8125,2.5938317 L 4.25,3.0625817 C 4.25,2.620903 4.1436167,2.2192584 3.9375,1.8438317 C 3.7313833,1.468405 3.6323613,1.1456457 3.625,0.84383166 C 3.6183465,0.57103884 3.7084365,0.41333924 3.90625,0.37508166 z M 7.75,0.37508166 C 7.6547631,0.46065704 7.59375,0.54591217 7.59375,0.65633166 C 7.682086,0.75938966 7.8068013,0.775917 7.96875,0.68758166 C 8.1306987,0.59924566 8.2976353,0.57174766 8.4375,0.59383166 C 8.5773653,0.61591566 8.6397226,0.79562765 8.625,1.1563317 C 8.6102773,1.5170364 8.59375,1.9499311 8.59375,2.4063317 C 8.59375,2.4535455 8.5890234,2.5109562 8.59375,2.5625817 L 8,3.0625817 C 8,2.6209029 7.9248667,2.2192584 7.71875,1.8438317 C 7.5126333,1.468405 7.3823613,1.1456457 7.375,0.84383166 C 7.3676387,0.54201833 7.5070767,0.38980432 7.75,0.37508166 z M 4.71875,3.0938317 C 4.762918,3.4471744 4.638202,3.8378484 4.34375,4.2500817 C 3.828458,4.2500817 3.5625,4.536177 3.5625,5.1250817 C 3.9914004,5.4038669 4.375738,5.7330493 4.6875,6.0938317 C 4.4196477,6.4824311 4.2812499,6.7695768 4.28125,6.8438317 C 4.3548633,7.2118979 4.4429148,7.3732769 4.53125,7.3438317 C 4.619586,7.5793939 4.8359621,7.6692498 5.21875,7.6250817 L 5.4375,7.5938317 C 5.6492743,7.4604923 5.7551932,7.3847533 5.90625,7.2813317 C 6.0120688,7.3149177 6.1083305,7.3125817 6.21875,7.3125817 C 5.9095753,7.5039757 5.6601439,7.7424356 5.46875,8.0000817 C 5.277356,8.257727 5.1343086,8.5547942 5.03125,8.9375817 C 4.928192,9.3203697 4.9043032,9.9220049 5,10.687582 C 5.0956973,11.453158 5.4423452,11.880496 6.03125,11.968832 C 5.6779073,11.954109 5.382646,11.83856 5.125,11.625082 C 4.867354,11.411604 4.71514,10.745805 4.65625,9.6563317 C 3.669834,8.301851 3.0829213,7.3059318 2.90625,6.6875817 C 3.18598,6.3636837 3.2740313,5.9546776 3.15625,5.4688317 L 2.9375,5.4688317 C 2.9669453,5.733839 2.928476,6.0364618 2.78125,6.3750817 C 2.207068,6.8609284 1.8512541,7.1543852 1.71875,7.2500817 C 1.5862467,7.3457784 1.4468086,7.3898036 1.34375,7.3750817 C 1.387918,7.272023 1.4411092,7.2078604 1.5,7.1563317 C 1.5588907,7.1048024 1.6359713,7.0442498 1.6875,7.0000817 C 1.7390293,6.9559137 1.7151408,6.9357769 1.65625,6.9063317 C 1.59736,6.8768864 1.5405586,6.9300778 1.4375,7.0625817 C 1.334442,7.195085 1.2115312,7.2867456 1.09375,7.3750817 C 1.0054147,7.3014684 0.9522226,7.2464725 0.9375,7.1875817 C 0.981668,6.9520197 1.0513872,6.8731344 1.125,6.9688317 C 1.1986133,7.064529 1.2370819,7.0480019 1.28125,6.9375817 C 1.3254173,6.8271617 1.2704212,6.7464718 1.09375,6.6875817 L 0.8125,6.9375817 C 0.8125,6.8492464 0.9738792,6.5980103 1.3125,6.1563317 C 1.415558,5.6410397 1.5219412,5.3035579 1.625,5.1563317 C 1.728058,5.0091057 1.8693013,4.7614799 2.03125,4.4375817 C 2.119586,4.275633 2.2295787,4.1325848 2.40625,4.0000817 L 2.875,4.0000817 C 2.9486133,4.265089 3.0549967,4.4063315 3.1875,4.4063317 C 3.3494493,4.4063317 3.8648387,3.9624665 4.71875,3.0938317 z M 8.46875,3.0938317 C 8.512918,3.4471743 8.388202,3.8378484 8.09375,4.2500817 C 7.578458,4.2500819 7.34375,4.536177 7.34375,5.1250817 C 7.7991696,5.4211046 8.1766521,5.7678584 8.5,6.1563317 C 8.2578846,6.5059497 8.09375,6.7735785 8.09375,6.8438317 C 8.1673633,7.2118979 8.2554147,7.3732769 8.34375,7.3438317 C 8.432086,7.5793939 8.679712,7.6692498 9.0625,7.6250817 L 9.25,7.5938317 C 9.4617742,7.4604925 9.5654764,7.3854206 9.71875,7.2813317 C 9.8043452,7.3029335 9.8801958,7.3125817 9.96875,7.3125817 C 9.6595753,7.5039759 9.410144,7.7424356 9.21875,8.0000817 C 9.027356,8.2577267 8.8843087,8.5547942 8.78125,8.9375817 C 8.678192,9.3203694 8.6855533,9.9220046 8.78125,10.687582 C 8.8769473,11.453158 9.2235954,11.880496 9.8125,11.968832 C 9.4591573,11.954109 9.132646,11.83856 8.875,11.625082 C 8.617354,11.411604 8.46514,10.745805 8.40625,9.6563317 C 7.419834,8.3018507 6.8329213,7.3059318 6.65625,6.6875817 C 6.93598,6.3636839 7.0240313,5.9546776 6.90625,5.4688317 L 6.71875,5.4688317 C 6.7481953,5.7338392 6.678476,6.0364618 6.53125,6.3750817 C 5.957068,6.8609286 5.6012541,7.1543852 5.46875,7.2500817 C 5.3362467,7.3457786 5.2280588,7.3898036 5.125,7.3750817 C 5.169168,7.2720232 5.2223594,7.2078604 5.28125,7.1563317 C 5.3401407,7.1048026 5.3859712,7.0442498 5.4375,7.0000817 C 5.4890293,6.9559139 5.4963908,6.9357769 5.4375,6.9063317 C 5.37861,6.8768866 5.2905588,6.9300778 5.1875,7.0625817 C 5.084442,7.1950852 4.9615314,7.2867456 4.84375,7.3750817 C 4.7554147,7.3014686 4.7022226,7.2464725 4.6875,7.1875817 C 4.731668,6.9520199 4.8013874,6.8731344 4.875,6.9688317 C 4.9486133,7.0645292 5.0183321,7.0480019 5.0625,6.9375817 C 5.1066673,6.8271619 5.0204214,6.7464718 4.84375,6.6875817 L 4.5625,6.9375817 C 4.5625,6.8492466 4.7238792,6.5980103 5.0625,6.1563317 C 5.165558,5.6410399 5.2719414,5.3035579 5.375,5.1563317 C 5.478058,5.0091059 5.6193014,4.7614799 5.78125,4.4375817 C 5.869586,4.2756332 6.0108287,4.1325848 6.1875,4.0000817 L 6.65625,4.0000817 C 6.7298633,4.2650892 6.8362467,4.4063315 6.96875,4.4063317 C 7.1306993,4.4063319 7.6148387,3.9624665 8.46875,3.0938317 z M 12.3125,3.0938317 C 12.356668,3.4471743 12.231952,3.8378484 11.9375,4.2500817 C 11.422208,4.2500819 11.15625,4.536177 11.15625,5.1250817 C 11.745155,5.5078699 12.225685,5.9627055 12.59375,6.5000817 C 12.961816,7.0374572 13.370822,7.3125818 13.8125,7.3125817 C 13.503325,7.5039759 13.253894,7.7424356 13.0625,8.0000817 C 12.871106,8.2577267 12.696809,8.5547942 12.59375,8.9375817 C 12.490692,9.3203694 12.498053,9.9220047 12.59375,10.687582 C 12.689447,11.453158 13.036095,11.880496 13.625,11.968832 C 13.271657,11.954109 12.976396,11.83856 12.71875,11.625082 C 12.461104,11.411604 12.27764,10.745806 12.21875,9.6563317 C 11.232334,8.3018507 10.676671,7.3059318 10.5,6.6875817 C 10.77973,6.3636839 10.836531,5.9546776 10.71875,5.4688317 L 10.53125,5.4688317 C 10.560695,5.7338392 10.490976,6.0364618 10.34375,6.3750817 C 9.769568,6.8609286 9.413754,7.1543852 9.28125,7.2500817 C 9.1487467,7.3457786 9.0405587,7.3898036 8.9375,7.3750817 C 8.981668,7.2720232 9.0348594,7.2078604 9.09375,7.1563317 C 9.1526407,7.1048026 9.1984713,7.0442498 9.25,7.0000817 C 9.3015293,6.9559139 9.3088907,6.9357769 9.25,6.9063317 C 9.19111,6.8768866 9.1030587,6.9300778 9,7.0625817 C 8.896942,7.1950852 8.8052814,7.2867456 8.6875,7.3750817 C 8.5991647,7.3014686 8.5459727,7.2464724 8.53125,7.1875817 C 8.575418,6.9520199 8.6138874,6.8731344 8.6875,6.9688317 C 8.7611133,7.0645292 8.8308319,7.0480019 8.875,6.9375817 C 8.9191673,6.8271619 8.8641714,6.7464718 8.6875,6.6875817 L 8.375,6.9375817 C 8.375,6.8492466 8.5676293,6.5980103 8.90625,6.1563317 C 9.009308,5.6410399 9.1156914,5.3035579 9.21875,5.1563317 C 9.321808,5.0091059 9.4318012,4.7614799 9.59375,4.4375817 C 9.682086,4.2756332 9.8233288,4.1325848 10,4.0000817 L 10.46875,4.0000817 C 10.542363,4.2650892 10.648747,4.4063315 10.78125,4.4063317 C 10.943199,4.4063319 11.458589,3.9624664 12.3125,3.0938317 z M 8.8125,3.3750817 C 8.9209504,3.6740292 9.0586515,3.9987624 9.25,4.3750817 C 9.1763873,4.6400892 9.1030587,4.8693839 9,5.0313317 C 8.9117115,5.1700719 8.807039,5.4168501 8.71875,5.7500817 C 8.3807701,5.4076245 8.0567303,5.1171339 7.71875,4.9375817 C 7.71875,4.7314652 7.9002667,4.6067497 8.3125,4.5625817 C 8.6601172,4.1315362 8.8325847,3.7273339 8.8125,3.3750817 z M 5.03125,3.4688317 C 5.1363271,3.7484784 5.259349,4.0247174 5.4375,4.3750817 C 5.3638873,4.6400892 5.2593088,4.8693839 5.15625,5.0313317 C 5.0743616,5.1600145 4.9890013,5.3937507 4.90625,5.6875817 C 4.5869743,5.3725927 4.256776,5.1071973 3.9375,4.9375817 C 3.9375,4.731465 4.1502667,4.6067497 4.5625,4.5625817 C 4.8794451,4.1695695 5.0199809,3.7963417 5.03125,3.4688317 z M 2.5,4.9063317 L 2.25,5.1563317 C 1.7935987,5.2152224 1.5624999,5.4297939 1.5625,5.8125817 L 1.96875,5.7500817 C 2.1601447,5.632301 2.28486,5.4709212 2.34375,5.2500817 L 2.53125,5.0313317 L 2.5,4.9063317 z M 6.28125,4.9063317 L 6,5.1563317 C 5.5435987,5.2152226 5.3125001,5.4297939 5.3125,5.8125817 L 5.71875,5.7500817 C 5.9101447,5.6323012 6.03486,5.4709212 6.09375,5.2500817 L 6.28125,5.0313317 L 6.28125,4.9063317 z M 10.09375,4.9063317 L 9.8125,5.1563317 C 9.3560987,5.2152226 9.125,5.4297939 9.125,5.8125817 L 9.53125,5.7500817 C 9.7226447,5.6323012 9.8473601,5.4709212 9.90625,5.2500817 L 10.125,5.0313317 L 10.09375,4.9063317 z M 15.09375,7.5000817 C 16.831019,7.7798119 18.44496,7.8220323 19.96875,7.5938317 C 21.492541,7.3656312 22.704837,7.534372 23.625,8.0938317 C 24.545163,8.6532901 25.016526,9.2585361 25.03125,9.9063317 C 24.677907,11.010529 24.5,11.830345 24.5,12.375082 C 24.5,12.905096 24.749431,13.473676 25.25,14.062582 C 25.25,15.490676 25.28486,16.336186 25.34375,16.593832 C 25.402641,16.851477 25.386114,16.988969 25.3125,17.062582 L 24.8125,17.062582 L 25,16.812582 L 24.84375,14.812582 C 24.84375,14.532853 24.577792,14.217455 24.0625,13.812582 C 23.547209,13.407711 23.1089,12.806075 22.71875,12.062582 C 22.328601,11.319089 21.892096,10.651486 21.40625,10.062582 L 21.34375,10.062582 L 21.15625,10.250082 L 21.15625,10.281332 C 21.568483,10.811347 21.834441,11.202021 21.9375,11.437582 C 19.213816,12.1001 17.023933,12.210093 15.375,11.812582 C 15.286664,11.680079 15.196808,11.428843 15.09375,11.031332 L 14.78125,11.093832 C 15.105147,12.153861 15.389438,12.902154 15.625,13.343832 C 15.860562,13.785511 16.021942,14.053274 16.125,14.156332 C 16.228059,14.259391 16.290416,14.393272 16.3125,14.562582 C 16.334584,14.731891 16.464856,15.034514 16.65625,15.468832 C 16.847644,15.90315 17.133739,16.392846 17.53125,16.937582 C 17.501805,17.070086 17.360561,17.156332 17.125,17.156332 L 16.75,17.156332 C 16.823613,17.038551 16.867639,16.853282 16.875,16.625082 C 16.882361,16.396882 16.74848,16.042872 16.46875,15.593832 C 16.189021,15.144793 15.983615,14.858698 15.84375,14.718832 C 15.703885,14.578967 15.614029,14.408421 15.5625,14.187582 C 15.510971,13.966743 15.226681,13.50274 14.71875,12.781332 C 14.21082,12.059924 13.862367,11.667446 13.65625,11.593832 C 13.229294,11.593832 12.972502,11.203158 12.90625,10.437582 C 12.839999,9.6720054 12.911523,9.0484277 13.125,8.5625817 C 13.338479,8.0767347 14.004277,7.7061982 15.09375,7.5000817 z M 6.6875,7.7188317 C 6.8911888,8.100359 7.0995888,8.4871514 7.375,8.8438317 C 7.82404,9.4253747 8.0625,9.9517351 8.0625,10.437582 C 8.0625,10.893898 8.2194217,11.413563 8.53125,11.937582 C 8.2750126,11.903716 8.0146845,11.868856 7.78125,11.812582 C 7.692914,11.680079 7.6030581,11.428843 7.5,11.031332 L 7.21875,11.093832 C 7.5426473,12.153861 7.826938,12.902154 8.0625,13.343832 C 8.2874465,13.765607 8.4271343,14.012096 8.53125,14.125082 C 8.4612246,14.352631 8.427557,14.554766 8.4375,14.718832 C 8.4400738,14.761299 8.414028,14.873567 8.40625,14.937582 C 8.3625422,14.883292 8.2849664,14.753798 8.25,14.718832 C 8.1101353,14.578967 8.0202787,14.408421 7.96875,14.187582 C 7.9172207,13.966743 7.6329307,13.50274 7.125,12.781332 C 6.61707,12.059924 6.2686166,11.667446 6.0625,11.593832 C 5.635544,11.593832 5.3787521,11.203158 5.3125,10.437582 C 5.2462487,9.6720057 5.3177727,9.0484277 5.53125,8.5625817 C 5.6853068,8.2119707 6.0772445,7.9237655 6.6875,7.7188317 z M 10.46875,7.7188317 C 10.678569,8.1113986 10.935923,8.4775473 11.21875,8.8438317 C 11.66779,9.4253747 11.875,9.9517352 11.875,10.437582 C 11.875,10.906076 12.046446,11.431888 12.375,11.968832 C 12.085193,11.932413 11.825058,11.875877 11.5625,11.812582 C 11.474164,11.680079 11.353058,11.428843 11.25,11.031332 L 10.96875,11.093832 C 11.292647,12.153861 11.576938,12.902154 11.8125,13.343832 C 12.048062,13.785511 12.209442,14.053273 12.3125,14.156332 C 12.328355,14.172187 12.329811,14.201409 12.34375,14.218832 C 12.291097,14.410506 12.241326,14.575709 12.25,14.718832 C 12.252934,14.767238 12.228093,14.892657 12.21875,14.968832 C 12.166307,14.902097 12.071887,14.759469 12.03125,14.718832 C 11.891385,14.578967 11.801529,14.408421 11.75,14.187582 C 11.698471,13.966743 11.414181,13.50274 10.90625,12.781332 C 10.39832,12.059924 10.018617,11.667446 9.8125,11.593832 C 9.385544,11.593832 9.160002,11.203158 9.09375,10.437582 C 9.0274987,9.6720054 9.0990227,9.0484277 9.3125,8.5625817 C 9.4665568,8.2119704 9.8584945,7.9237655 10.46875,7.7188317 z M 26.53125,8.1875817 L 26.90625,8.4688317 C 26.567631,8.9105101 26.101823,9.2296608 25.46875,9.4063317 L 25.4375,9.2500817 C 25.864456,8.9556287 26.222075,8.5998153 26.53125,8.1875817 z M 22.03125,11.812582 L 22.4375,12.468832 L 21.09375,14.156332 C 21.049582,14.627456 20.976254,14.904385 20.84375,15.000082 C 20.711246,15.095779 20.445288,15.475482 20.0625,16.093832 C 19.679712,16.712181 19.448613,17.106465 19.375,17.312582 L 18.875,17.156332 C 19.831971,15.978522 20.38222,14.999131 20.5,14.218832 C 20.632503,13.188249 20.742496,12.544535 20.875,12.250082 C 21.198898,12.014521 21.589571,11.85675 22.03125,11.812582 z M 20.46875,12.125082 C 20.322209,12.479222 20.211629,13.051556 20.15625,13.750082 C 19.74196,13.405088 19.362455,12.913649 19.03125,12.343832 C 19.427439,12.262054 19.891113,12.177595 20.46875,12.125082 z M 5.375,12.250082 L 6,12.343832 C 5.6466573,13.668868 5.4613886,14.431883 5.46875,14.593832 C 5.4761113,14.75578 5.4486134,14.873135 5.375,14.968832 C 5.3013867,15.064529 5.1400067,15.609222 4.875,16.625082 C 4.8455547,16.993148 4.7593087,17.136195 4.65625,17.062582 C 4.553192,17.209809 4.428476,17.244667 4.28125,17.156332 L 4.4375,16.875082 C 4.7908427,15.829776 4.952222,15.204393 4.9375,14.968832 C 4.9227773,14.73327 4.924582,14.546197 4.96875,14.406332 C 5.0129173,14.266467 5.093608,14.017037 5.21875,13.656332 C 5.3438927,13.295629 5.4044454,12.809542 5.375,12.250082 z M 9.125,12.250082 L 9.75,12.343832 C 9.3966573,13.668868 9.2426387,14.431883 9.25,14.593832 C 9.2573613,14.75578 9.1986133,14.873135 9.125,14.968832 C 9.0513867,15.064529 8.8900067,15.609222 8.625,16.625082 C 8.5955547,16.993148 8.5405587,17.136195 8.4375,17.062582 C 8.334442,17.209809 8.209726,17.244667 8.0625,17.156332 L 8.1875,16.875082 C 8.5408427,15.829776 8.7022221,15.204393 8.6875,14.968832 C 8.6727773,14.73327 8.7058319,14.546197 8.75,14.406332 C 8.7941673,14.266467 8.874858,14.017037 9,13.656332 C 9.1251427,13.295629 9.1544453,12.809542 9.125,12.250082 z M 7.96875,12.312582 C 8.2487212,12.333406 8.4099155,12.328644 8.65625,12.343832 C 8.7811155,12.937691 8.8031139,13.39291 8.6875,13.718832 C 8.5296651,13.463229 8.2850212,13.038835 7.96875,12.312582 z M 11.75,12.312582 C 12.046906,12.334666 12.209673,12.328087 12.46875,12.343832 C 12.602528,12.979846 12.608312,13.451459 12.46875,13.781332 C 12.311758,13.543394 12.088753,13.090459 11.75,12.312582 z M 13.3125,12.312582 L 13.59375,12.343832 C 13.240407,13.668868 13.055139,14.431884 13.0625,14.593832 C 13.069861,14.75578 13.042363,14.873134 12.96875,14.968832 C 12.895137,15.064529 12.702507,15.609222 12.4375,16.625082 C 12.408055,16.993148 12.353059,17.136195 12.25,17.062582 C 12.146942,17.209809 12.022226,17.244667 11.875,17.156332 L 12,16.875082 C 12.202573,16.275804 12.349361,15.860244 12.4375,15.531332 C 12.693817,15.057139 12.8489,14.598778 12.90625,14.218832 C 13.03348,13.229258 13.18527,12.623445 13.3125,12.312582 z M 15.5625,12.312582 C 15.988252,12.34425 16.245784,12.325199 16.59375,12.343832 C 16.474045,12.713542 16.388714,13.223017 16.34375,13.875082 C 16.191495,13.675676 15.937529,13.173761 15.5625,12.312582 z M 17.03125,12.375082 C 17.687786,12.40238 18.275318,12.435689 18.59375,12.406332 L 18.625,12.468832 L 17.28125,14.156332 C 17.237082,14.627456 17.163753,14.904385 17.03125,15.000082 C 16.996475,15.025197 16.927014,15.126468 16.875,15.187582 C 16.743591,14.88621 16.640057,14.640616 16.625,14.500082 C 16.621603,14.468372 16.600109,14.437171 16.59375,14.406332 C 16.595837,14.397033 16.590698,14.38452 16.59375,14.375082 C 16.611046,14.321599 16.648594,14.269552 16.65625,14.218832 C 16.777262,13.277627 16.910239,12.702303 17.03125,12.375082 z M 13.96875,12.406332 C 14.090362,12.518589 14.251859,12.735797 14.4375,13.000082 L 13.53125,14.156332 C 13.506335,14.422094 13.459275,14.603785 13.40625,14.750082 C 13.407387,14.710846 13.413611,14.67109 13.40625,14.625082 C 13.376805,14.44105 13.57124,13.6872 13.96875,12.406332 z M 17.6875,14.250082 C 17.69059,15.537425 17.725632,16.3505 17.78125,16.593832 C 17.804865,16.697145 17.810191,16.77011 17.8125,16.843832 C 17.78816,16.783208 17.750071,16.718903 17.6875,16.656332 C 17.610139,16.578971 17.476639,16.401344 17.34375,16.156332 C 17.339797,16.149044 17.347625,16.132455 17.34375,16.125082 L 17.28125,15.250082 C 17.444468,15.068841 17.537472,14.788052 17.5625,14.375082 L 17.6875,14.250082 z M 21.4375,14.343832 C 21.441997,15.563578 21.477266,16.357649 21.53125,16.593832 C 21.590141,16.851477 21.573613,16.988969 21.5,17.062582 L 20.96875,17.062582 L 21.1875,16.812582 L 21.0625,15.312582 L 21.0625,15.281332 C 21.249543,15.101761 21.379318,14.819454 21.40625,14.375082 L 21.4375,14.343832 z M 16.125,15.656332 C 16.183164,15.74153 16.183004,15.742625 16.25,15.843832 C 16.280852,15.890438 16.285921,15.924626 16.3125,15.968832 C 16.283941,16.014233 16.280107,16.045198 16.25,16.093832 C 15.867212,16.712181 15.636113,17.106465 15.5625,17.312582 L 15.0625,17.156332 C 15.51108,16.604234 15.860812,16.121087 16.125,15.656332 z M 9.1875,15.687582 C 9.3759305,16.066952 9.6039201,16.480454 9.9375,16.937582 C 9.9080547,17.070086 9.7980613,17.156332 9.5625,17.156332 L 9.1875,17.156332 C 9.2611133,17.038551 9.3051386,16.853283 9.3125,16.625082 C 9.3170024,16.485508 9.2007512,16.286503 9.09375,16.062582 C 9.0895613,16.053816 9.0979426,16.040156 9.09375,16.031332 C 9.1199824,15.925608 9.1637406,15.775226 9.1875,15.687582 z M 13.03125,15.843832 C 13.207707,16.182933 13.428083,16.539261 13.71875,16.937582 C 13.689305,17.070086 13.548061,17.156332 13.3125,17.156332 L 12.9375,17.156332 C 13.011113,17.038551 13.055139,16.853283 13.0625,16.625082 C 13.066947,16.487221 13.006581,16.281041 12.90625,16.062582 C 12.908568,16.05358 12.903629,16.040831 12.90625,16.031332 C 12.909709,16.018793 12.933415,16.013124 12.9375,16.000082 C 12.971955,15.947544 13.000592,15.889054 13.03125,15.843832 z M 3.78125,17.312582 L 4.34375,17.500082 L 4.28125,17.718832 L 3.46875,17.718832 L 3.78125,17.312582 z M 7.5625,17.312582 L 8.09375,17.500082 L 8.0625,17.718832 L 7.25,17.718832 L 7.5625,17.312582 z M 11.375,17.312582 L 11.9375,17.500082 L 11.875,17.718832 L 11.0625,17.718832 L 11.375,17.312582 z M 14.78125,17.375082 L 15.28125,17.531332 L 15.28125,17.687582 L 14.5625,17.687582 C 14.606668,17.584524 14.678192,17.463418 14.78125,17.375082 z M 18.625,17.375082 L 19.09375,17.531332 L 19.09375,17.687582 L 18.40625,17.687582 C 18.450418,17.584524 18.521942,17.463418 18.625,17.375082 z M 17.5625,17.406332 L 17.625,17.406332 C 17.580832,17.583003 17.512917,17.687582 17.46875,17.687582 L 17.46875,17.468832 C 17.508218,17.445616 17.529553,17.429653 17.5625,17.406332 z M 20.84375,17.406332 L 21.375,17.406332 C 21.330832,17.583003 21.294167,17.687582 21.25,17.687582 L 20.65625,17.687582 L 20.65625,17.656332 L 20.84375,17.406332 z M 24.65625,17.406332 L 25.1875,17.406332 C 25.143332,17.583003 25.106668,17.687582 25.0625,17.687582 L 24.46875,17.687582 L 24.46875,17.656332 L 24.65625,17.406332 z M 8.9375,17.437582 L 9.5625,17.437582 L 9.5625,17.656332 L 8.8125,17.656332 C 8.8125,17.553275 8.8491647,17.48175 8.9375,17.437582 z M 12.6875,17.437582 L 13.3125,17.437582 L 13.3125,17.656332 L 12.5625,17.656332 C 12.5625,17.553275 12.599165,17.48175 12.6875,17.437582 z M 16.53125,17.437582 L 17.125,17.437582 L 17.125,17.656332 L 16.375,17.656332 C 16.375,17.553275 16.442914,17.48175 16.53125,17.437582 z "
     id="path2254" />
</svg>
