<?xml version="1.0" encoding="UTF-8" standalone="no"?>
<svg
   xmlns:dc="http://purl.org/dc/elements/1.1/"
   xmlns:cc="http://creativecommons.org/ns#"
   xmlns:rdf="http://www.w3.org/1999/02/22-rdf-syntax-ns#"
   xmlns:svg="http://www.w3.org/2000/svg"
   xmlns="http://www.w3.org/2000/svg"
   xmlns:sodipodi="http://sodipodi.sourceforge.net/DTD/sodipodi-0.dtd"
   xmlns:inkscape="http://www.inkscape.org/namespaces/inkscape"
   width="31.711481"
   height="14.15625"
   id="svg2445"
   sodipodi:version="0.32"
   inkscape:version="0.46"
   sodipodi:docname="E111.svg"
   inkscape:output_extension="org.inkscape.output.svg.inkscape"
   version="1.0">
  <metadata
     id="metadata2452">
    <rdf:RDF>
      <cc:Work
         rdf:about="">
        <dc:format>image/svg+xml</dc:format>
        <dc:type
           rdf:resource="http://purl.org/dc/dcmitype/StillImage" />
      </cc:Work>
    </rdf:RDF>
  </metadata>
  <defs
     id="defs2450">
    <inkscape:perspective
       sodipodi:type="inkscape:persp3d"
       inkscape:vp_x="0 : 7.0799999 : 1"
       inkscape:vp_y="0 : 1000 : 0"
       inkscape:vp_z="26.961504 : 7.0799999 : 1"
       inkscape:persp3d-origin="13.480752 : 4.7199999 : 1"
       id="perspective2454" />
  </defs>
  <sodipodi:namedview
     inkscape:window-height="712"
     inkscape:window-width="1024"
     inkscape:pageshadow="2"
     inkscape:pageopacity="0.0"
     guidetolerance="10.0"
     gridtolerance="10.0"
     objecttolerance="10.0"
     borderopacity="1.0"
     bordercolor="#666666"
     pagecolor="#ffffff"
     id="base"
     showgrid="false"
     inkscape:zoom="29.263848"
     inkscape:cx="15.855741"
     inkscape:cy="7.078125"
     inkscape:window-x="-4"
     inkscape:window-y="-4"
     inkscape:current-layer="svg2445" />
  <path
     style="fill:#000000;stroke:none"
     d="M 11.000015,0 C 10.452769,0 9.8648194,0.19006869 9.2187648,0.5625 C 8.5727095,0.934932 8.2838069,1.2086333 8.3750148,1.40625 C 7.5237428,2.0751067 7.0937648,2.537182 7.0937648,2.75 C 7.0177581,2.87161 7.0675995,3.0219808 7.2500148,3.25 C 7.3564241,3.5388247 7.521148,3.7694386 7.7187648,3.90625 C 7.7187648,4.37749 7.9510734,4.5937501 8.4375148,4.59375 C 8.7111381,4.3201273 8.9265509,4.4181139 9.0937648,4.84375 C 9.1241675,5.573412 9.3142361,6.2855399 9.6562648,7 C 9.9982941,7.7144607 10.171466,8.1123409 10.156265,8.21875 C 10.141063,8.3251587 9.8268159,8.5735166 9.2187648,8.96875 C 8.6107128,9.363984 7.7507575,9.843803 6.6562648,10.40625 L 6.1250148,10.0625 C 5.8987032,9.9991326 5.713949,9.9716303 5.5038101,10.086159 L 0.18751476,3.78125 C 0.13209286,3.7628968 0.08980056,3.762848 0.06251476,3.78125 C 0.03522896,3.799652 -0.00083554,3.8198427 1.4759996e-05,3.875 L 2.8750148,10.75 L 4.6250148,10.28125 L 4.9375148,10.65625 C 4.7179091,10.981323 4.6790058,11.264789 4.8750148,11.5 C 5.1638394,11.880032 5.4932874,12.103893 5.8125148,12.1875 C 5.9615876,12.226543 6.0862667,12.197008 6.2187648,12.125 L 6.4687648,12.4375 C 6.6984161,12.54409 7.2084302,12.352795 7.0000148,11.96875 L 6.7500148,11.65625 C 7.6498733,11.226059 8.3835765,11.110812 9.0000148,11.375 C 9.3952488,10.873358 10.031344,10.418036 10.875015,10 C 11.718686,9.581964 12.322684,9.1933795 12.687515,8.84375 C 13.812411,10.789515 14.375015,11.847987 14.375015,12 C 14.375015,12.47124 14.326022,12.6875 14.250015,12.6875 L 13.687515,12.6875 C 13.231476,12.961123 13.000015,13.24073 13.000015,13.46875 L 13.031265,14.15625 L 15.000015,14.15625 C 15.364846,14.110646 15.56421,13.432311 15.625015,12.125 C 15.853035,12.079396 15.985662,11.988162 16.031265,11.84375 C 16.076869,11.699337 16.043924,11.576006 15.937515,11.5 C 15.800704,11.302383 15.502505,10.242216 15.031265,8.28125 C 15.760927,8.494068 16.456159,8.5937503 17.125015,8.59375 C 17.77867,8.59375 18.837143,8.4281791 20.281265,8.09375 C 20.129253,8.5345873 20.096308,9.5440658 20.187515,11.125 C 20.187515,11.383422 19.997447,11.731462 19.625015,12.1875 C 19.252584,12.643539 18.961986,12.875 18.718765,12.875 L 18.281265,12.84375 C 17.87083,12.84375 17.622472,13.02537 17.531265,13.375 L 17.531265,14.15625 L 19.718765,14.15625 L 20.656265,12.9375 C 20.975492,12.481461 21.389421,12.067532 21.906265,11.6875 C 21.845458,10.623409 22.192651,9.7955515 22.937515,9.1875 C 23.697579,9.871558 24.327769,10.343776 24.875015,10.625 C 25.422261,10.906224 25.78635,11.162182 25.968765,11.375 C 26.15118,11.587819 26.250015,12.116631 26.250015,12.9375 L 25.812515,12.875 C 25.326074,13.148623 25.062515,13.380085 25.062515,13.5625 L 25.093765,14.15625 L 26.812515,14.15625 C 27.025333,14.15625 27.174855,13.858899 27.281265,13.28125 L 27.281265,11 C 27.281265,10.619968 27.007564,10.248279 26.437515,9.90625 C 25.867467,9.5642213 25.538018,8.8368919 25.500015,7.75 C 25.462012,6.663108 25.32009,5.8436979 25.031265,5.28125 C 25.456901,5.585276 25.987408,6.6859881 26.656265,8.59375 C 27.325122,10.501511 27.80494,11.675715 28.093765,12.09375 C 28.382589,12.511785 29.011931,12.71875 30.000015,12.71875 C 31.337729,12.581939 31.899487,12.233899 31.656265,11.65625 C 31.565058,11.504237 31.400333,11.4375 31.187515,11.4375 C 30.959496,11.4375 30.784629,11.521133 30.625015,11.71875 C 30.465402,11.916367 30.076818,12.03125 29.468765,12.03125 C 28.860714,12.03125 28.240667,11.071613 27.625015,9.15625 C 27.009362,7.2408873 26.347923,5.8022787 25.656265,4.875 C 24.964606,3.947722 23.349435,3.4839513 20.750015,3.46875 C 17.755361,3.5599573 16.019401,3.3622886 15.593765,2.90625 C 14.590479,1.3861213 13.06739,0.425636 11.000015,0 z M 10.531265,0.65625 C 10.455258,0.869068 10.489051,1.1326267 10.656265,1.40625 L 10.718765,1.3125 C 10.612356,1.0388767 10.644453,0.88850601 10.781265,0.8125 L 11.000015,1.125 L 11.125015,1.125 C 11.125015,0.988188 11.058278,0.87076266 10.906265,0.71875 L 10.968765,0.71875 C 11.196783,0.91636667 11.281265,1.0988346 11.281265,1.28125 C 11.053246,1.5548733 10.853882,1.6385066 10.656265,1.5625 C 10.458648,1.486494 10.358966,1.2879773 10.343765,0.96875 C 10.343765,0.77113333 10.409654,0.67145132 10.531265,0.65625 z M 11.312515,0.71875 C 12.863046,1.0683793 14.120036,1.8303481 15.062515,3.03125 C 14.484866,2.864036 13.873268,2.7804026 13.250015,2.75 C 12.626763,2.7195973 11.980525,3.4063806 11.281265,4.8125 C 10.582006,6.2186193 10.880204,7.402118 12.187515,8.375 L 12.093765,8.71875 C 11.379304,8.7339513 10.883437,8.617373 10.625015,8.34375 C 10.701021,8.1461327 10.576842,7.6984121 10.250015,6.96875 C 9.9231868,6.239088 9.7652163,5.578496 9.7500148,5.03125 C 10.890111,4.2407833 11.387674,3.1645674 11.281265,1.78125 C 11.448479,1.7052433 11.555761,1.5489674 11.593765,1.34375 C 11.631767,1.1385327 11.540533,0.94676933 11.312515,0.71875 z M 10.125015,0.8125 C 10.125015,1.0557207 10.190057,1.31928 10.281265,1.5625 C 10.372473,1.8057207 10.55494,1.888506 10.843765,1.8125 C 10.919771,3.0286027 10.488946,3.9231988 9.5312648,4.53125 C 9.3336481,4.151218 9.1190828,3.96875 8.9062648,3.96875 C 8.6782448,3.96875 8.4636802,4.0523835 8.2812648,4.25 C 8.1748561,4.1587927 8.1410635,4.0751594 8.1562648,3.96875 C 8.2930761,3.8167373 8.4425994,3.75 8.6250148,3.75 L 8.6250148,3.40625 C 8.5034048,3.40625 8.2879921,3.4569387 7.9687648,3.59375 L 7.7500148,3.21875 L 8.0312648,2.875 L 8.0312648,2.75 L 7.5312648,2.875 L 8.5000148,1.96875 C 8.5304175,2.059958 8.5980023,2.0777014 8.7500148,2.0625 L 8.5937648,2.53125 L 8.7500148,3.375 L 8.7500148,3.75 L 9.0000148,3.75 L 9.0000148,3.375 L 8.8437648,2.53125 C 8.8741675,2.2120233 9.1225247,1.931568 9.5937648,1.71875 L 9.5937648,1.625 C 9.2745375,1.548994 8.9932357,1.5168966 8.7500148,1.5625 C 9.0540408,1.3192793 9.5169633,1.0709214 10.125015,0.8125 z M 13.375015,3.28125 C 13.808251,3.2888507 14.544876,3.4451266 15.593765,3.71875 C 16.642654,3.9923733 17.733224,4.0760065 18.812515,4 C 21.563949,4 23.061694,4.0413924 23.312515,4.125 C 23.563335,4.2086067 23.679067,4.3234899 23.656265,4.4375 C 23.633464,4.5515093 23.757642,4.70948 24.031265,4.9375 C 24.502504,5.393538 24.776207,6.3024878 24.875015,7.625 C 24.973823,8.947512 25.337064,9.7838177 25.937515,10.15625 C 26.537966,10.528681 26.812515,11.033844 26.812515,11.6875 L 26.812515,13.28125 C 26.766912,13.661283 26.517706,13.84375 26.031265,13.84375 C 26.152875,13.737341 26.218765,13.638506 26.218765,13.5625 C 26.218765,13.486493 26.145275,13.485646 26.031265,13.53125 C 25.917255,13.576854 25.858119,13.676536 25.812515,13.84375 L 25.718765,13.84375 C 25.718765,13.570127 25.78635,13.372458 25.968765,13.28125 C 26.303193,13.311652 26.549855,13.195921 26.656265,12.9375 L 26.656265,12.125 C 26.656265,11.486546 26.384258,11.039672 25.875015,10.78125 C 25.365771,10.522828 24.827663,10.174789 24.250015,9.71875 C 23.672366,9.2627113 23.142706,8.7009538 22.656265,8.0625 C 22.35224,7.46965 21.971255,7.2204446 21.500015,7.28125 C 19.174218,7.7980933 17.668872,8.0625002 17.000015,8.0625 C 16.36156,8.0625 15.651128,7.914672 14.906265,7.65625 C 14.906265,7.1242053 14.706054,6.7440679 14.250015,6.53125 C 13.915587,6.485646 13.784655,6.6005293 13.906265,6.84375 C 14.362303,7.0413667 14.543924,7.5042896 14.437515,8.21875 C 15.075969,10.453339 15.440057,11.628389 15.531265,11.75 C 15.379252,11.780403 15.295619,11.945975 15.250015,12.25 C 15.174008,13.253285 15.008437,13.75 14.750015,13.75 L 14.312515,13.75 L 14.562515,13.5 L 14.500015,13.34375 C 14.241593,13.374153 14.093765,13.506779 14.093765,13.75 L 13.906265,13.75 C 13.784655,13.537182 13.849696,13.372458 14.062515,13.28125 L 13.937515,13.15625 L 14.656265,13.15625 C 14.762674,12.806621 14.843765,12.392691 14.843765,11.90625 C 14.843765,11.723834 14.537966,11.02945 13.937515,9.84375 C 13.337065,8.6580493 12.915535,8.0793957 12.687515,8.125 C 11.456211,7.1977213 11.150412,6.1865479 11.781265,5.03125 C 12.412118,3.875952 12.941778,3.2736494 13.375015,3.28125 z M 0.92290006,5.2269074 L 5.2462194,10.333818 C 5.1816437,10.387349 5.2268279,10.345015 5.1638554,10.416182 L 4.5686514,9.7622733 L 3.0274695,10.182251 L 0.92290006,5.2269074 z M 21.406265,7.84375 C 21.554478,7.8285487 21.707801,7.8614937 21.875015,7.9375 C 22.224645,8.378338 22.424008,8.6756886 22.500015,8.8125 C 21.73995,9.542162 21.375015,10.420709 21.375015,11.5 C 20.797366,12.016843 20.151976,12.777117 19.437515,13.75 L 18.656265,13.75 L 18.843765,13.5625 L 18.843765,13.5 L 18.750015,13.40625 L 18.687515,13.40625 C 18.489898,13.512659 18.375015,13.62839 18.375015,13.75 L 18.250015,13.75 C 18.250015,13.62839 18.331953,13.463666 18.468765,13.28125 L 18.437515,13.1875 L 18.718765,13.21875 L 18.875015,13.21875 C 19.194242,13.21875 19.534681,12.978841 19.937515,12.5 C 20.340349,12.021159 20.579411,11.615678 20.625015,11.28125 C 20.609814,9.320284 20.741594,8.2440683 21.000015,8.03125 C 21.129226,7.924841 21.258052,7.8589513 21.406265,7.84375 z M 10.312515,8.78125 C 10.616541,9.039672 11.046518,9.1554024 11.593765,9.125 C 10.058434,9.9002653 9.0996443,10.495815 8.7500148,10.90625 C 8.2331708,10.708634 7.4551535,10.84126 6.4062648,11.3125 L 5.8437648,11.9375 L 5.6875148,11.8125 C 5.8851315,11.326059 6.1495375,11.043909 6.4687648,10.9375 C 6.3015501,10.739883 6.0869848,10.757627 5.8437648,11.03125 C 5.7373554,11.183262 5.6047287,11.36573 5.4375148,11.59375 L 5.3125148,11.46875 C 5.5101314,11.11912 5.7432874,10.83697 6.0625148,10.59375 C 5.8953008,10.411335 5.6959367,10.478072 5.4375148,10.8125 C 5.3159041,10.994915 5.1841248,11.144438 5.0625148,11.28125 C 4.9409041,11.144438 5.0312908,10.929025 5.3125148,10.625 C 5.5937388,10.320974 5.8175995,10.221292 6.0000148,10.3125 L 6.6562648,10.78125 L 6.9062648,10.78125 C 8.0007581,10.279607 9.1268146,9.6173209 10.312515,8.78125 z M 31.187515,11.78125 C 31.230744,11.791701 31.287813,11.825596 31.312515,11.875 C 31.411323,12.072617 31.155365,12.188347 30.562515,12.21875 C 30.85894,11.899523 31.057829,11.749897 31.187515,11.78125 z M 6.5625148,11.8125 L 6.5937648,11.875 L 6.4062648,12.03125 L 6.3750148,12 C 6.4348817,11.94473 6.5063958,11.892881 6.5625148,11.8125 z M 13.812515,13.1875 L 13.593765,13.75 L 13.468765,13.75 C 13.499167,13.385169 13.630099,13.202702 13.812515,13.1875 z M 18.281265,13.1875 C 18.159655,13.354714 18.093765,13.537182 18.093765,13.75 L 17.937515,13.75 C 17.937515,13.476377 18.053247,13.293909 18.281265,13.1875 z M 25.468765,13.53125 L 25.531265,13.53125 L 25.531265,13.5625 L 25.468765,13.59375 L 25.468765,13.84375 L 25.406265,13.84375 L 25.375015,13.71875 L 25.468765,13.53125 z"
     id="path2551"
     sodipodi:nodetypes="csccccccsssccccsccccsscccccscsccccccsccsccsccccccccsscccccccsscssccsssssccccccccccccsscccsscccsccsccsccsccccccccccccccccccccccscsscsscccsscccccssccscccccccccccccccsscscccccccccccccccccccccccscsccccccccscccscscccccsccccccccccccccccccccccc" />
</svg>
