<?xml version="1.0" encoding="UTF-8" standalone="no"?>
<svg
   xmlns:dc="http://purl.org/dc/elements/1.1/"
   xmlns:cc="http://creativecommons.org/ns#"
   xmlns:rdf="http://www.w3.org/1999/02/22-rdf-syntax-ns#"
   xmlns:svg="http://www.w3.org/2000/svg"
   xmlns="http://www.w3.org/2000/svg"
   xmlns:sodipodi="http://sodipodi.sourceforge.net/DTD/sodipodi-0.dtd"
   xmlns:inkscape="http://www.inkscape.org/namespaces/inkscape"
   width="31.096878"
   height="14.15625"
   id="svg3444"
   sodipodi:version="0.32"
   inkscape:version="0.46"
   sodipodi:docname="E112.svg"
   inkscape:output_extension="org.inkscape.output.svg.inkscape"
   version="1.0">
  <metadata
     id="metadata3451">
    <rdf:RDF>
      <cc:Work
         rdf:about="">
        <dc:format>image/svg+xml</dc:format>
        <dc:type
           rdf:resource="http://purl.org/dc/dcmitype/StillImage" />
      </cc:Work>
    </rdf:RDF>
  </metadata>
  <defs
     id="defs3449">
    <inkscape:perspective
       sodipodi:type="inkscape:persp3d"
       inkscape:vp_x="0 : 7.0799999 : 1"
       inkscape:vp_y="0 : 1000 : 0"
       inkscape:vp_z="26.961504 : 7.0799999 : 1"
       inkscape:persp3d-origin="13.480752 : 4.7199999 : 1"
       id="perspective3453" />
  </defs>
  <sodipodi:namedview
     inkscape:window-height="712"
     inkscape:window-width="1024"
     inkscape:pageshadow="2"
     inkscape:pageopacity="0.0"
     guidetolerance="10.0"
     gridtolerance="10.0"
     objecttolerance="10.0"
     borderopacity="1.0"
     bordercolor="#666666"
     pagecolor="#ffffff"
     id="base"
     showgrid="false"
     inkscape:zoom="29.842225"
     inkscape:cx="15.548439"
     inkscape:cy="7.078125"
     inkscape:window-x="-4"
     inkscape:window-y="-4"
     inkscape:current-layer="svg3444" />
  <path
     style="fill:#000000;stroke:none"
     d="M 10.38541,0 C 9.8381642,0 9.2502148,0.19006869 8.6041602,0.5625 C 7.9581049,0.934932 7.6692023,1.2086333 7.7604102,1.40625 C 6.9091382,2.0751067 6.4791602,2.537182 6.4791602,2.75 C 6.4031535,2.87161 6.4529949,3.0219808 6.6354102,3.25 C 6.7418195,3.5388247 6.9065434,3.7694386 7.1041602,3.90625 C 7.1041602,4.37749 7.3364688,4.5937501 7.8229102,4.59375 C 8.0965335,4.3201273 8.3119463,4.4181139 8.4791602,4.84375 C 8.5095629,5.573412 8.6996315,6.2855399 9.0416602,7 C 9.3836895,7.7144607 9.5568615,8.1123409 9.5416602,8.21875 C 9.5264589,8.3251587 9.2122113,8.5735166 8.6041602,8.96875 C 7.9961082,9.363984 7.1361529,9.843803 6.0416602,10.40625 L 5.5104102,10.0625 C 5.4686993,10.050821 5.4265717,10.068136 5.3854102,10.0625 C 5.2987758,9.8743728 5.2060926,9.6772272 5.1354102,9.46875 C 4.6869861,8.1461281 4.2932593,7.2409788 3.9479102,6.75 C 3.5571267,6.1880571 3.1444363,5.8954941 2.6979102,5.875 C 2.2513838,5.854506 1.920681,5.7133217 1.7291602,5.4375 C 1.5531244,5.1822774 1.5924557,4.9080447 1.8229102,4.59375 C 2.0174999,4.4422067 2.0622885,4.2878788 1.9791602,4.15625 C 1.9327062,4.094453 1.8967202,4.0893374 1.8229102,4.09375 C 1.7491002,4.0981626 1.6428261,4.1168778 1.5416602,4.1875 L 0.22916024,5.21875 C -0.12443486,5.4510351 0.023784937,5.5637376 0.072910237,5.625 C 0.17457984,5.7497253 0.31683974,5.7361258 0.51041024,5.59375 C 0.88124614,5.4556785 1.145855,5.5039449 1.3229102,5.75 C 1.5144309,6.0258219 1.5645724,6.3938646 1.4479102,6.84375 C 1.3312484,7.2936353 1.4868844,7.8027572 1.8854102,8.375 C 2.2317782,8.856811 2.9401148,9.5299821 4.0104102,10.375 C 4.1287212,10.468409 4.2163483,10.557769 4.3229102,10.65625 C 4.1033046,10.981323 4.0644013,11.264789 4.2604102,11.5 C 4.5492349,11.880032 4.8786829,12.103893 5.1979102,12.1875 C 5.2777169,12.208402 5.3416039,12.198426 5.4166602,12.1875 C 5.5958857,12.605338 5.719202,13.053826 5.7604102,13.53125 C 5.6901086,13.763945 5.7785383,13.882239 6.0104102,13.875 L 7.6979102,12.5625 C 7.786754,12.322901 7.7070852,12.205739 7.4479102,12.21875 C 7.0662435,12.042505 6.7509256,11.80783 6.4479102,11.53125 C 7.2076007,11.227944 7.8441921,11.14305 8.3854102,11.375 C 8.7806442,10.873358 9.4167391,10.418036 10.26041,10 C 11.104082,9.581964 11.70808,9.1933795 12.07291,8.84375 C 13.197806,10.789515 13.760411,11.847987 13.76041,12 C 13.76041,12.47124 13.711417,12.6875 13.63541,12.6875 L 13.07291,12.6875 C 12.616872,12.961123 12.38541,13.24073 12.38541,13.46875 L 12.41666,14.15625 L 14.38541,14.15625 C 14.750241,14.110646 14.949605,13.432311 15.01041,12.125 C 15.23843,12.079396 15.371057,11.988162 15.41666,11.84375 C 15.462264,11.699337 15.429319,11.576006 15.32291,11.5 C 15.186099,11.302383 14.8879,10.242216 14.41666,8.28125 C 15.146322,8.494068 15.841554,8.5937503 16.51041,8.59375 C 17.164065,8.59375 18.222538,8.4281791 19.66666,8.09375 C 19.514648,8.5345873 19.481703,9.5440658 19.57291,11.125 C 19.57291,11.383422 19.382842,11.731462 19.01041,12.1875 C 18.637979,12.643539 18.347381,12.875 18.10416,12.875 L 17.66666,12.84375 C 17.256225,12.84375 17.007867,13.02537 16.91666,13.375 L 16.91666,14.15625 L 19.10416,14.15625 L 20.04166,12.9375 C 20.360887,12.481461 20.774816,12.067532 21.29166,11.6875 C 21.230853,10.623409 21.578046,9.7955515 22.32291,9.1875 C 23.082974,9.871558 23.713164,10.343776 24.26041,10.625 C 24.807656,10.906224 25.171745,11.162182 25.35416,11.375 C 25.536575,11.587819 25.63541,12.116631 25.63541,12.9375 L 25.19791,12.875 C 24.711469,13.148623 24.44791,13.380085 24.44791,13.5625 L 24.47916,14.15625 L 26.19791,14.15625 C 26.410728,14.15625 26.56025,13.858899 26.66666,13.28125 L 26.66666,11 C 26.66666,10.619968 26.392959,10.248279 25.82291,9.90625 C 25.252862,9.5642213 24.923413,8.8368919 24.88541,7.75 C 24.847407,6.663108 24.705485,5.8436979 24.41666,5.28125 C 24.842296,5.585276 25.372803,6.6859881 26.04166,8.59375 C 26.710517,10.501511 27.190335,11.675715 27.47916,12.09375 C 27.767984,12.511785 28.397326,12.71875 29.38541,12.71875 C 30.723124,12.581939 31.284882,12.233899 31.04166,11.65625 C 30.950453,11.504237 30.785728,11.4375 30.57291,11.4375 C 30.344891,11.4375 30.170024,11.521133 30.01041,11.71875 C 29.850797,11.916367 29.462213,12.03125 28.85416,12.03125 C 28.246109,12.03125 27.626062,11.071613 27.01041,9.15625 C 26.394757,7.2408873 25.733318,5.8022787 25.04166,4.875 C 24.350001,3.947722 22.73483,3.4839513 20.13541,3.46875 C 17.140756,3.5599573 15.404796,3.3622886 14.97916,2.90625 C 13.975875,1.3861213 12.452786,0.425636 10.38541,0 z M 9.9166602,0.65625 C 9.8406535,0.869068 9.8744464,1.1326267 10.04166,1.40625 L 10.10416,1.3125 C 9.9977515,1.0388767 10.029849,0.88850601 10.16666,0.8125 L 10.38541,1.125 L 10.51041,1.125 C 10.51041,0.988188 10.443674,0.87076266 10.29166,0.71875 L 10.35416,0.71875 C 10.582179,0.91636667 10.66666,1.0988346 10.66666,1.28125 C 10.438642,1.5548733 10.239278,1.6385066 10.04166,1.5625 C 9.8440435,1.486494 9.7443615,1.2879773 9.7291602,0.96875 C 9.7291602,0.77113333 9.7950495,0.67145132 9.9166602,0.65625 z M 10.69791,0.71875 C 12.248442,1.0683793 13.505431,1.8303481 14.44791,3.03125 C 13.870262,2.864036 13.258663,2.7804026 12.63541,2.75 C 12.012158,2.7195973 11.36592,3.4063806 10.66666,4.8125 C 9.9674015,6.2186193 10.2656,7.402118 11.57291,8.375 L 11.47916,8.71875 C 10.7647,8.7339513 10.268832,8.617373 10.01041,8.34375 C 10.086417,8.1461327 9.9622373,7.6984121 9.6354102,6.96875 C 9.3085822,6.239088 9.1506117,5.578496 9.1354102,5.03125 C 10.275507,4.2407833 10.773069,3.1645674 10.66666,1.78125 C 10.833875,1.7052433 10.941157,1.5489674 10.97916,1.34375 C 11.017163,1.1385327 10.925929,0.94676933 10.69791,0.71875 z M 9.5104102,0.8125 C 9.5104102,1.0557207 9.5754529,1.31928 9.6666602,1.5625 C 9.7578682,1.8057207 9.9403353,1.888506 10.22916,1.8125 C 10.305167,3.0286027 9.8743414,3.9231988 8.9166602,4.53125 C 8.7190435,4.151218 8.5044782,3.96875 8.2916602,3.96875 C 8.0636402,3.96875 7.8490756,4.0523835 7.6666602,4.25 C 7.5602515,4.1587927 7.5264589,4.0751594 7.5416602,3.96875 C 7.6784715,3.8167373 7.8279948,3.75 8.0104102,3.75 L 8.0104102,3.40625 C 7.8888002,3.40625 7.6733875,3.4569387 7.3541602,3.59375 L 7.1354102,3.21875 L 7.4166602,2.875 L 7.4166602,2.75 L 6.9166602,2.875 L 7.8854102,1.96875 C 7.9158129,2.059958 7.9833977,2.0777014 8.1354102,2.0625 L 7.9791602,2.53125 L 8.1354102,3.375 L 8.1354102,3.75 L 8.3854102,3.75 L 8.3854102,3.375 L 8.2291602,2.53125 C 8.2595629,2.2120233 8.5079201,1.931568 8.9791602,1.71875 L 8.9791602,1.625 C 8.6599329,1.548994 8.3786311,1.5168966 8.1354102,1.5625 C 8.4394362,1.3192793 8.9023587,1.0709214 9.5104102,0.8125 z M 12.76041,3.28125 C 13.193647,3.2888507 13.930271,3.4451266 14.97916,3.71875 C 16.028049,3.9923733 17.118619,4.0760065 18.19791,4 C 20.949344,4 22.447089,4.0413924 22.69791,4.125 C 22.94873,4.2086067 23.064462,4.3234899 23.04166,4.4375 C 23.018859,4.5515093 23.143037,4.70948 23.41666,4.9375 C 23.887899,5.393538 24.161602,6.3024878 24.26041,7.625 C 24.359218,8.947512 24.722459,9.7838177 25.32291,10.15625 C 25.923361,10.528681 26.19791,11.033844 26.19791,11.6875 L 26.19791,13.28125 C 26.152307,13.661283 25.903101,13.84375 25.41666,13.84375 C 25.53827,13.737341 25.60416,13.638506 25.60416,13.5625 C 25.60416,13.486493 25.53067,13.485646 25.41666,13.53125 C 25.30265,13.576854 25.243514,13.676536 25.19791,13.84375 L 25.10416,13.84375 C 25.10416,13.570127 25.171745,13.372458 25.35416,13.28125 C 25.688588,13.311652 25.93525,13.195921 26.04166,12.9375 L 26.04166,12.125 C 26.04166,11.486546 25.769653,11.039672 25.26041,10.78125 C 24.751166,10.522828 24.213058,10.174789 23.63541,9.71875 C 23.057761,9.2627113 22.528101,8.7009538 22.04166,8.0625 C 21.737635,7.46965 21.35665,7.2204446 20.88541,7.28125 C 18.559613,7.7980933 17.054267,8.0625002 16.38541,8.0625 C 15.746955,8.0625 15.036523,7.914672 14.29166,7.65625 C 14.29166,7.1242053 14.091449,6.7440679 13.63541,6.53125 C 13.300982,6.485646 13.17005,6.6005293 13.29166,6.84375 C 13.747699,7.0413667 13.929319,7.5042896 13.82291,8.21875 C 14.461364,10.453339 14.825452,11.628389 14.91666,11.75 C 14.764647,11.780403 14.681014,11.945975 14.63541,12.25 C 14.559403,13.253285 14.393832,13.75 14.13541,13.75 L 13.69791,13.75 L 13.94791,13.5 L 13.88541,13.34375 C 13.626988,13.374153 13.47916,13.506779 13.47916,13.75 L 13.29166,13.75 C 13.17005,13.537182 13.235092,13.372458 13.44791,13.28125 L 13.32291,13.15625 L 14.04166,13.15625 C 14.148069,12.806621 14.22916,12.392691 14.22916,11.90625 C 14.22916,11.723834 13.923361,11.02945 13.32291,9.84375 C 12.72246,8.6580493 12.30093,8.0793957 12.07291,8.125 C 10.841606,7.1977213 10.535807,6.1865479 11.16666,5.03125 C 11.797514,3.875952 12.327173,3.2736494 12.76041,3.28125 z M 2.8541602,6.375 C 3.0472296,6.4059856 3.2199687,6.5506442 3.3854102,6.78125 C 3.9495827,7.5422785 4.4512465,8.5614641 4.8854102,9.8125 C 4.9204989,9.9136075 4.9712264,9.9973674 5.0104102,10.09375 C 4.8565035,10.144185 4.7184653,10.232698 4.5729102,10.375 C 4.5088406,10.319265 4.4534683,10.272524 4.3854102,10.21875 C 3.3723687,9.4183265 2.5969424,8.6148388 2.0729102,7.8125 C 1.7518076,7.3432526 1.7920982,6.9278473 2.2291602,6.59375 C 2.447691,6.4267016 2.6610908,6.3440144 2.8541602,6.375 z M 20.79166,7.84375 C 20.939873,7.8285487 21.093196,7.8614937 21.26041,7.9375 C 21.61004,8.378338 21.809403,8.6756886 21.88541,8.8125 C 21.125345,9.542162 20.76041,10.420709 20.76041,11.5 C 20.182761,12.016843 19.537371,12.777117 18.82291,13.75 L 18.04166,13.75 L 18.22916,13.5625 L 18.22916,13.5 L 18.13541,13.40625 L 18.07291,13.40625 C 17.875293,13.512659 17.76041,13.62839 17.76041,13.75 L 17.63541,13.75 C 17.63541,13.62839 17.717348,13.463666 17.85416,13.28125 L 17.82291,13.1875 L 18.10416,13.21875 L 18.26041,13.21875 C 18.579637,13.21875 18.920076,12.978841 19.32291,12.5 C 19.725744,12.021159 19.964806,11.615678 20.01041,11.28125 C 19.995209,9.320284 20.126989,8.2440683 20.38541,8.03125 C 20.514621,7.924841 20.643447,7.8589513 20.79166,7.84375 z M 9.6979102,8.78125 C 10.001936,9.039672 10.431914,9.1554024 10.97916,9.125 C 9.4438295,9.9002653 8.4850397,10.495815 8.1354102,10.90625 C 7.6185662,10.708634 6.8405489,10.84126 5.7916602,11.3125 L 5.2291602,11.9375 L 5.0729102,11.8125 C 5.2705269,11.326059 5.5349329,11.043909 5.8541602,10.9375 C 5.6869455,10.739883 5.4723802,10.757627 5.2291602,11.03125 C 5.1227509,11.183262 4.9901242,11.36573 4.8229102,11.59375 L 4.6979102,11.46875 C 4.8955269,11.11912 5.1286829,10.83697 5.4479102,10.59375 C 5.2806962,10.411335 5.0813322,10.478072 4.8229102,10.8125 C 4.7012996,10.994915 4.5695202,11.144438 4.4479102,11.28125 C 4.3262996,11.144438 4.4166862,10.929025 4.6979102,10.625 C 4.9791342,10.320974 5.2029949,10.221292 5.3854102,10.3125 L 6.0416602,10.78125 L 6.2916602,10.78125 C 7.3861535,10.279607 8.51221,9.6173209 9.6979102,8.78125 z M 6.0416602,11.6875 C 6.0511392,11.682761 6.063462,11.692164 6.0729102,11.6875 C 6.3865284,11.99417 6.7305034,12.267405 7.1354102,12.46875 L 6.0729102,13.25 C 6.025683,12.799114 5.9254446,12.392965 5.7604102,12 C 5.853977,11.913617 5.9572483,11.835221 6.0416602,11.6875 z M 30.57291,11.78125 C 30.616139,11.791701 30.673208,11.825596 30.69791,11.875 C 30.796718,12.072617 30.54076,12.188347 29.94791,12.21875 C 30.244335,11.899523 30.443224,11.749897 30.57291,11.78125 z M 13.19791,13.1875 L 12.97916,13.75 L 12.85416,13.75 C 12.884563,13.385169 13.015495,13.202702 13.19791,13.1875 z M 17.66666,13.1875 C 17.54505,13.354714 17.47916,13.537182 17.47916,13.75 L 17.32291,13.75 C 17.32291,13.476377 17.438642,13.293909 17.66666,13.1875 z M 24.85416,13.53125 L 24.91666,13.53125 L 24.91666,13.5625 L 24.85416,13.59375 L 24.85416,13.84375 L 24.79166,13.84375 L 24.76041,13.71875 L 24.85416,13.53125 z"
     id="path4318" />
</svg>
