<?xml version="1.0" encoding="UTF-8" standalone="no"?>
<svg
   xmlns:dc="http://purl.org/dc/elements/1.1/"
   xmlns:cc="http://creativecommons.org/ns#"
   xmlns:rdf="http://www.w3.org/1999/02/22-rdf-syntax-ns#"
   xmlns:svg="http://www.w3.org/2000/svg"
   xmlns="http://www.w3.org/2000/svg"
   xmlns:sodipodi="http://sodipodi.sourceforge.net/DTD/sodipodi-0.dtd"
   xmlns:inkscape="http://www.inkscape.org/namespaces/inkscape"
   width="27.132103"
   height="10.567575"
   id="svg2674"
   sodipodi:version="0.32"
   inkscape:version="0.46"
   sodipodi:docname="E123.svg"
   inkscape:output_extension="org.inkscape.output.svg.inkscape"
   version="1.0">
  <metadata
     id="metadata2681">
    <rdf:RDF>
      <cc:Work
         rdf:about="">
        <dc:format>image/svg+xml</dc:format>
        <dc:type
           rdf:resource="http://purl.org/dc/dcmitype/StillImage" />
      </cc:Work>
    </rdf:RDF>
  </metadata>
  <defs
     id="defs2679">
    <inkscape:perspective
       sodipodi:type="inkscape:persp3d"
       inkscape:vp_x="0 : 5.2800002 : 1"
       inkscape:vp_y="0 : 1000 : 0"
       inkscape:vp_z="24.700573 : 5.2800002 : 1"
       inkscape:persp3d-origin="12.350286 : 3.5200001 : 1"
       id="perspective2683" />
  </defs>
  <sodipodi:namedview
     inkscape:window-height="712"
     inkscape:window-width="1024"
     inkscape:pageshadow="2"
     inkscape:pageopacity="0.0"
     guidetolerance="10.0"
     gridtolerance="10.0"
     objecttolerance="10.0"
     borderopacity="1.0"
     bordercolor="#666666"
     pagecolor="#ffffff"
     id="base"
     showgrid="false"
     inkscape:zoom="48.370382"
     inkscape:cx="3.468373"
     inkscape:cy="5.283788"
     inkscape:window-x="-4"
     inkscape:window-y="-4"
     inkscape:current-layer="svg2674" />
  <path
     style="fill:#000000;stroke:none"
     d="M 4.875,0 C 4.8166622,0.0076929328 4.7693998,0.038566425 4.71875,0.0625 C 4.5161513,0.1582343 4.329906,0.3914739 4.15625,0.78125 C 4.1200714,0.9453662 4.0269491,1.1317665 3.875,1.34375 C 3.723051,1.5557336 3.4913979,1.7601857 3.1875,1.96875 C 2.8836016,2.1773144 2.5838375,2.4095969 2.3125,2.625 C 2.0411628,2.8404024 1.7236226,3.1844156 1.34375,3.65625 C 0.9638774,4.1280836 0.6223231,4.5804088 0.34375,5.0625 C 0.0651769,5.5445914 -0.0361783,6.1247847 0,6.78125 C 0.347312,6.8496311 0.5871975,6.9428317 0.75,7.0625 C 0.9128025,7.1821683 1.0644935,7.3397814 1.1875,7.53125 C 1.4045698,7.3329434 1.5704185,7.2685299 1.71875,7.34375 C 1.867081,7.4189697 1.7680333,7.6629454 1.40625,8.09375 L 1.40625,8.125 C 1.5527998,8.4019976 2.4216603,8.6073933 2.46875,9.8125 C 2.4689669,9.8180496 2.4688412,9.838734 2.46875,9.84375 C 2.3898618,10.304788 2.5353971,10.5625 2.96875,10.5625 L 24.625,10.5625 C 26.299713,10.5625 27.132753,9.9360191 27.125,8.71875 C 27.117246,7.5014811 26.656662,6.4381501 25.6875,5.5 C 24.749901,4.5924042 23.337404,4.3441691 21.5,4.75 C 21.930308,4.257665 22.584637,4.0000001 23.4375,4 C 24.166311,3.9999998 24.618904,4.1189039 24.84375,4.34375 C 25.068595,4.5685951 25.362097,4.6877365 25.71875,4.71875 C 25.951349,4.6722298 26.125709,4.5453352 26.21875,4.34375 C 26.466855,3.5994325 25.546399,3.2187499 23.4375,3.21875 C 21.85585,3.2187501 20.827945,3.8190359 20.34375,4.96875 C 18.847458,5.1873093 17.559884,5.0490967 16.5,4.5 C 15.895242,4.1123345 15.371448,3.747632 14.90625,3.4375 C 13.681228,1.1425221 11.904234,0 9.59375,0 C 8.9889929,-1.2628654e-10 8.3383042,0.17459803 7.625,0.53125 C 6.9116958,0.887902 6.6102042,1.1736507 6.71875,1.40625 C 5.7728465,2.13506 5.2812501,2.6424006 5.28125,2.875 C 5.2037171,3.0300661 5.2514207,3.2049007 5.4375,3.4375 C 5.5770591,3.7631388 5.767164,4.0011838 5.96875,4.15625 C 5.9687498,4.6834745 6.2385185,4.96875 6.78125,4.96875 C 7.0913818,4.6586178 7.3451709,4.7380455 7.53125,5.21875 C 7.5467565,6.0095871 7.7533154,6.8825774 8.1875,7.875 C 6.5438002,8.6658365 5.5042021,8.9750822 5.03125,8.78125 C 4.5582985,8.5874171 4.153882,8.4999998 3.84375,8.5 C 3.4090725,8.5106014 3.0616566,8.6822785 2.8125,9 C 2.8017797,8.9431946 2.7985236,8.8668741 2.75,8.78125 C 2.7240478,8.7354552 3.6740612,7.1859182 3.8125,6.9375 C 4.0983089,6.4246368 4.3381941,5.8663921 4.5625,5.3125 C 4.7868052,4.7586071 4.9217181,4.331652 4.96875,4 C 5.0157817,3.6683487 5.0648072,3.3243347 5.09375,2.96875 C 5.1226923,2.6131645 5.2039649,2.329667 5.3125,2.09375 C 5.4210349,1.8578329 5.5332439,1.6719108 5.65625,1.5625 C 5.9167339,1.2137532 6.021707,0.93073362 6,0.71875 C 5.9782927,0.5067665 5.8111334,0.32036619 5.5,0.15625 C 5.2557961,0.033162855 5.0500129,-0.023078799 4.875,0 z M 5.09375,0.5 C 5.1511829,0.49401664 5.2233647,0.5021877 5.28125,0.53125 C 5.5272625,0.6543372 5.5009409,0.90220969 5.21875,1.3125 C 4.9293228,1.7022761 4.7453848,2.0419135 4.6875,2.28125 C 4.6296144,2.5205864 4.6082212,2.8221355 4.59375,3.21875 C 4.5792783,3.6153644 4.4298951,4.1418806 4.1875,4.78125 C 3.945105,5.420619 3.6884411,6.0403358 3.40625,6.625 C 3.1240589,7.209664 2.862173,7.8426514 2.384619,8.2802928 C 2.2399059,8.2529406 2.0266353,8.0400726 1.96875,7.9375 C 2.2798835,7.6092677 2.3562276,7.3330852 2.21875,7.09375 C 2.081272,6.854413 1.8377689,6.7792652 1.46875,6.875 C 1.2589157,6.6972066 0.88572186,6.5399137 0.55288096,6.4168262 C 0.5187724,5.8688163 0.598734,5.5728999 0.90625,5.125 C 1.2137656,4.6770993 1.5862561,4.1896279 2.03125,3.65625 C 2.4762435,3.122873 2.8750557,2.7534908 3.21875,2.53125 C 3.5624439,2.3090093 3.8431226,2.1084545 4.03125,1.9375 C 4.2193771,1.7665454 4.4056226,1.468893 4.59375,1.03125 C 4.7619791,0.69788872 4.9214507,0.51795009 5.09375,0.5 z M 9.0625,0.59375 C 8.9694602,0.82634867 9.03267,1.0961174 9.21875,1.40625 L 9.28125,1.3125 C 9.1727042,1.002368 9.2041905,0.81179 9.34375,0.71875 L 9.59375,1.09375 L 9.75,1.09375 C 9.7500002,0.96969727 9.670572,0.82682265 9.5,0.65625 L 9.53125,0.65625 C 9.7793562,0.85783533 9.9062502,1.048414 9.90625,1.25 C 9.6581442,1.560132 9.435842,1.679036 9.21875,1.59375 C 9.0016575,1.5084633 8.8905066,1.294152 8.875,0.9375 C 8.8750002,0.73591467 8.9229404,0.62476331 9.0625,0.59375 z M 9.96875,0.65625 C 11.689983,0.57871667 13.086294,1.4199833 14.15625,3.21875 C 13.380919,3.0481774 12.706735,2.9844933 12.15625,3 C 11.605766,3.0155061 10.970821,3.6817014 10.21875,4.96875 C 9.4666795,6.2557985 9.3477753,7.2714264 9.875,8.03125 C 9.4253089,8.4964478 9.044626,8.4330012 8.75,7.84375 C 8.4088549,6.8358205 8.234256,6.011008 8.21875,5.40625 C 9.4747849,4.5223731 10.030303,3.3321473 9.90625,1.8125 C 10.092329,1.7349673 10.20348,1.599846 10.25,1.375 C 10.29652,1.150154 10.216856,0.90435531 9.96875,0.65625 z M 8.625,0.78125 C 8.6250002,1.0448627 8.7039538,1.2911346 8.8125,1.5625 C 8.9210469,1.833866 9.1273679,1.9525333 9.4375,1.875 C 9.5150329,3.208568 9.0231992,4.208216 7.96875,4.875 C 7.7516571,4.4563218 7.5138487,4.21875 7.28125,4.21875 C 7.0331438,4.2187498 6.8265861,4.3611514 6.625,4.59375 C 6.5009471,4.4852038 6.4219934,4.3428026 6.4375,4.21875 C 6.5925658,4.0636838 6.7671641,4.0000002 6.96875,4 L 6.96875,3.59375 C 6.8446971,3.5937501 6.6221586,3.67294 6.25,3.8125 L 5.96875,3.40625 L 6.34375,3.03125 L 6.34375,2.875 L 5.78125,3.03125 L 6.8125,2.03125 C 6.8435138,2.1242901 6.9544273,2.1405068 7.125,2.125 L 6.96875,2.65625 L 7.125,3.5625 L 7.125,4 L 7.40625,4 L 7.40625,3.5625 L 7.25,2.65625 C 7.2810131,2.3151048 7.5352755,2.029356 8.0625,1.78125 L 8.0625,1.65625 C 7.6903415,1.56321 7.3886119,1.5317234 7.125,1.59375 C 7.4661445,1.3146307 7.9582155,1.0603687 8.625,0.78125 z M 12.4375,3.5625 C 12.537445,3.5477204 12.648238,3.556685 12.75,3.5625 C 13.564096,3.6090194 14.794036,4.1802805 16.46875,5.28125 C 17.261888,5.845857 18.504424,5.9482161 20.125,5.65625 C 20.05184,6.0074228 20,6.3846828 20,6.8125 C 20,7.3707378 20.269531,8.0846364 20.78125,8.9375 C 19.897373,8.9530058 19.294626,8.8897962 19,8.78125 C 18.705374,8.6727031 18.498816,8.6012664 18.34375,8.5625 C 18.188684,8.5237325 17.934895,8.5157429 17.59375,8.53125 C 17.252605,8.5467571 16.887665,8.7053747 16.5,9 C 15.926255,9.2015858 15.283557,9.3522137 14.5625,9.4375 C 13.841443,9.5227865 12.802319,9.3244552 11.46875,8.84375 C 10.104168,7.8203138 9.7709528,6.6777921 10.46875,5.40625 C 11.079323,4.2936511 11.737885,3.6659579 12.4375,3.5625 z M 24.625,3.625 C 24.882797,3.6385684 25.146278,3.6685904 25.375,3.75 C 25.832445,3.9128194 25.983309,4.0871806 25.84375,4.25 C 25.704191,4.4128191 25.505622,4.3573629 25.21875,4.09375 C 24.931877,3.8301378 24.44827,3.7030067 23.8125,3.6875 C 24.099372,3.6332271 24.367203,3.6114317 24.625,3.625 z M 22.875,5.25 C 23.853249,5.2409139 24.616189,5.4841688 25.125,5.96875 C 25.939097,6.7440805 26.34375,7.5853469 26.34375,8.53125 C 26.328243,9.5081665 25.741476,10.015744 24.625,10.03125 C 23.524031,9.9692231 22.706735,9.6439977 22.15625,9.0625 C 21.605765,8.4810025 21.264323,8.0129019 21.09375,7.65625 C 21.248816,7.2530778 21.471118,6.9673295 21.78125,6.78125 C 22.091382,6.5951705 22.393111,6.5556935 22.71875,6.6875 C 23.044388,6.8193058 23.297941,6.9147132 23.4375,7 C 23.577061,7.0852858 23.577061,7.0216028 23.4375,6.78125 C 23.297941,6.5408978 22.933,6.358546 22.34375,6.25 C 21.754499,6.1414531 21.246923,6.3950055 20.84375,6.96875 C 20.848237,6.3988554 20.947719,5.9049763 21.09375,5.5 C 21.75615,5.3521403 22.348553,5.2548896 22.875,5.25 z M 8.3125,8.4375 C 8.3977865,8.4345924 8.4886068,8.4416133 8.53125,8.46875 C 8.8879022,8.7633751 9.1658973,8.8984955 9.40625,8.90625 C 9.6466029,8.9140031 9.9083813,8.7788826 10.1875,8.46875 C 10.28054,8.5928025 10.518585,8.7991242 10.90625,9.09375 C 10.534091,9.7760411 10.04202,10.125 9.40625,10.125 L 4.25,10.125 C 4.2189871,9.9234131 4.282434,9.685605 4.4375,9.4375 C 4.1583805,9.4685131 4.03125,9.7063216 4.03125,10.125 L 3.90625,10.125 C 3.8442233,9.8613871 3.923414,9.5601317 4.125,9.25 C 3.7838545,9.2810131 3.625,9.5822689 3.625,10.125 L 3.4375,10.125 C 3.4375,9.6287885 3.6435846,9.3113163 4.03125,9.15625 C 3.5195318,9.1252358 3.2497633,9.4427089 3.21875,10.125 L 2.96875,10.125 C 2.96875,9.3651758 3.3654126,8.9687502 4.15625,8.96875 C 4.5749278,9.1083091 4.9476208,9.2349671 5.25,9.3125 C 5.5523785,9.3900325 6.1158868,9.2471585 6.96875,8.875 C 7.6083973,8.5958808 8.056641,8.4462222 8.3125,8.4375 z M 17.78125,9.0625 C 18.230941,9.1400331 18.60387,9.2352035 18.90625,9.34375 C 19.208629,9.4522958 19.621036,9.4920098 20.125,9.46875 C 20.628965,9.4454891 20.970407,9.4852037 21.1875,9.59375 C 21.404591,9.7022965 21.769294,9.9081448 22.25,10.15625 L 18.1875,10.15625 C 18.156487,9.9546645 18.219934,9.7168565 18.375,9.46875 C 18.095881,9.4997631 17.96875,9.7375721 17.96875,10.15625 L 17.84375,10.15625 C 17.781724,9.8926378 17.860914,9.5913831 18.0625,9.28125 C 17.721354,9.3122638 17.53125,9.6135195 17.53125,10.15625 L 17.375,10.15625 C 17.375,9.6600385 17.581085,9.3113161 17.96875,9.15625 C 17.457032,9.1252371 17.171519,9.4739601 17.125,10.15625 L 16.90625,10.15625 C 16.95277,9.3964265 17.254025,9.0159803 17.78125,9.0625 z M 11.28125,9.53125 C 12.878431,9.9189151 14.036696,10.06978 14.75,10 C 15.463303,9.9302205 16.034565,9.7793561 16.46875,9.53125 L 16.46875,10.125 L 10.78125,10.125 C 11.091382,9.9079071 11.250237,9.7018228 11.28125,9.53125 z"
     id="path2676"
     sodipodi:nodetypes="cscssssscscsccssccsscssccscccsscccccccsscsssssscssccssssssccsccsssscccccccccccsscccssccccsccsccsccccccccccccccccccccccsccscssscscsccssscccsccscsssssccccssccccccccccccccssccssscccccccccccccscccc" />
</svg>
