<?xml version="1.0" encoding="UTF-8" standalone="no"?>
<svg
   xmlns:dc="http://purl.org/dc/elements/1.1/"
   xmlns:cc="http://creativecommons.org/ns#"
   xmlns:rdf="http://www.w3.org/1999/02/22-rdf-syntax-ns#"
   xmlns:svg="http://www.w3.org/2000/svg"
   xmlns="http://www.w3.org/2000/svg"
   xmlns:sodipodi="http://sodipodi.sourceforge.net/DTD/sodipodi-0.dtd"
   xmlns:inkscape="http://www.inkscape.org/namespaces/inkscape"
   width="15.417194"
   height="17.977583"
   id="svg2"
   sodipodi:version="0.32"
   inkscape:version="0.46"
   sodipodi:docname="US248E13.svg"
   inkscape:output_extension="org.inkscape.output.svg.inkscape">
  <metadata
     id="metadata9">
    <rdf:RDF>
      <cc:Work
         rdf:about="">
        <dc:format>image/svg+xml</dc:format>
        <dc:type
           rdf:resource="http://purl.org/dc/dcmitype/StillImage" />
      </cc:Work>
    </rdf:RDF>
  </metadata>
  <defs
     id="defs7">
    <inkscape:perspective
       sodipodi:type="inkscape:persp3d"
       inkscape:vp_x="0 : 8.9887915 : 1"
       inkscape:vp_y="0 : 1000 : 0"
       inkscape:vp_z="15.417194 : 8.9887915 : 1"
       inkscape:persp3d-origin="7.7085972 : 5.9925276 : 1"
       id="perspective11" />
  </defs>
  <sodipodi:namedview
     inkscape:window-height="701"
     inkscape:window-width="640"
     inkscape:pageshadow="2"
     inkscape:pageopacity="0.0"
     guidetolerance="10.0"
     gridtolerance="10.0"
     objecttolerance="10.0"
     borderopacity="1.0"
     bordercolor="#666666"
     pagecolor="#ffffff"
     id="base"
     showgrid="false"
     inkscape:zoom="27.701165"
     inkscape:cx="7.7085972"
     inkscape:cy="8.9887915"
     inkscape:window-x="20"
     inkscape:window-y="42"
     inkscape:current-layer="svg2" />
  <path
     style="fill:#000000; stroke:none"
     d="M 2.724985,0.822982 L 2.468946,1.792272 C 2.9078693,1.7556947 3.121235,1.664252 3.109043,1.517944 L 2.77985,0.822982 L 2.724985,0.822982 z M 3.98689,1.060732 L 4.133198,1.261906 C 4.0234673,1.4082133 3.9868903,1.7495983 4.023467,2.286061 L 3.822294,2.286061 C 3.761332,1.6276757 3.8161973,1.2192327 3.98689,1.060732 z M 2.633542,2.743273 C 2.41408,2.9383503 2.0544063,3.072466 1.554521,3.14562 C 1.249713,3.2065813 1.2314247,3.157812 1.499656,2.999312 C 1.438694,2.6823113 1.5331847,2.4963783 1.783128,2.441513 C 2.03307,2.3866477 2.3165413,2.4872343 2.633542,2.743273 z M 12.381306,17.593525 C 13.064076,17.593525 13.341451,17.285669 13.213432,16.669956 C 13.085413,16.054243 12.893383,15.63056 12.637344,15.398907 C 12.381305,15.167252 11.978959,14.545444 11.430305,13.533481 C 10.88165,12.521518 10.400053,12.021632 9.985514,12.033825 C 9.6441287,12.033825 9.473436,12.649537 9.473436,13.880961 C 9.473436,15.124578 9.7020423,16.035955 10.159255,16.615091 C 10.616467,17.194226 11.357151,17.52037 12.381306,17.593525 z M 1.024155,4.700141 C 0.426731,4.7854877 0.164596,4.5111603 0.23775,3.877159 C 0.07925,3.804005 0,3.4931007 0,2.944446 C 0,2.7493693 0.225558,2.5725807 0.676674,2.41408 C 0.835174,1.9995413 1.1948477,1.792272 1.755695,1.792272 C 2.0117337,1.792272 2.139753,1.7313103 2.139753,1.609387 C 2.2616763,1.158271 2.3531187,0.707155 2.41408,0.256039 L 2.743273,0.23775 L 3.273639,1.243617 C 3.3711777,1.1095017 3.529678,0.69496267 3.74914,0 L 3.950313,0 C 4.2916983,0.438924 4.5843143,0.89918433 4.828161,1.380781 C 5.072007,1.8623777 5.0232377,2.25558 4.681853,2.560388 C 5.072007,2.8042347 5.370719,3.072466 5.577989,3.365082 C 5.4072963,3.3528893 5.2975653,3.3589853 5.248796,3.38337 L 5.5597,3.62112 L 5.651143,3.767428 L 5.32195,3.712563 C 5.5901813,3.8344863 5.7852583,3.974698 5.907181,4.133198 C 5.6877197,4.0844287 5.510931,4.0783327 5.376815,4.11491 L 6.016912,4.59041 L 5.797451,4.626987 L 5.5597,4.608699 C 5.620662,4.694045 5.8279317,4.883026 6.181509,5.175642 C 6.0839703,5.187834 5.9925277,5.19393 5.907181,5.19393 L 6.382682,5.669431 L 6.254663,5.669431 L 5.870605,5.614565 L 6.40097,6.108355 C 6.315624,6.1327397 6.266855,6.1266433 6.254663,6.090066 C 6.8886637,6.5533747 7.3032027,7.1751833 7.49828,7.955492 C 8.6199733,8.4675693 9.619744,9.10157 10.497592,9.857494 C 11.497363,9.4429553 12.551999,9.1686283 13.6615,9.034513 C 14.173577,8.973551 14.435712,9.125955 14.447905,9.491725 C 14.484482,9.857495 14.252827,10.052572 13.752942,10.076957 C 12.740979,10.211072 11.985055,10.393957 11.48517,10.625611 C 13.240865,11.832652 13.996789,14.283309 13.752942,17.977583 L 5.651143,17.977583 C 5.517027,16.892466 5.858412,16.386484 6.675298,16.459639 C 7.37026,16.532793 8.120088,16.587658 8.924782,16.624235 C 8.5833967,16.270657 8.33955,15.642752 8.193242,14.74052 C 7.3032027,14.399135 6.2851437,13.789519 5.139065,12.911672 C 5.0902957,13.411557 5.0049493,14.143097 4.883026,15.106291 C 5.1390647,16.081677 5.0537183,16.484023 4.626987,16.31333 L 3.602832,17.959295 C 3.1273313,17.971487 2.6579267,17.977583 2.194618,17.977583 C 1.73131,17.977583 1.426502,17.977583 1.280194,17.977583 C 1.1582707,17.624005 1.213136,17.270428 1.44479,16.916851 C 1.6764447,16.563273 2.090984,16.416965 2.688408,16.477926 C 3.5418707,16.026811 3.554063,14.533251 2.724985,11.997248 C 2.200715,11.680247 1.7435027,11.018814 1.353348,10.012947 C 0.96319333,9.0070803 1.024155,7.723838 1.536233,6.16322 C 1.536233,5.4316807 1.3655403,4.9439877 1.024155,4.700141 z M 10.259841,11.540035 C 10.820688,11.527843 11.338862,12.00944 11.814363,12.984826 C 12.289864,13.960212 12.734884,14.71004 13.149423,15.23431 C 13.027499,13.381077 12.289863,11.948479 10.936516,10.936516 C 10.656093,11.107208 10.430534,11.308381 10.259841,11.540035 z M 0.640097,3.877159 C 0.932713,3.9137363 1.155223,3.898496 1.307627,3.831438 C 1.460031,3.76438 1.542329,3.804005 1.554521,3.950313 C 1.5667137,4.096621 1.4722233,4.13015 1.27105,4.0509 C 1.0698767,3.97165 0.859559,3.968602 0.640097,4.041756 C 0.627905,4.2612173 0.86565533,4.328275 1.353348,4.242929 C 1.658156,4.6696603 1.844089,5.029334 1.911147,5.32195 C 1.978205,5.6145653 2.0056377,5.907181 1.993445,6.199797 C 1.3350597,7.8945303 1.4325983,9.5283017 2.286061,11.101111 C 2.0909837,10.820688 1.9812527,10.302514 1.956868,9.54659 C 1.9324833,8.790666 2.261676,8.11704 2.944446,7.525712 C 3.6272167,6.9343847 4.2063523,6.638721 4.681853,6.638721 C 5.1573537,6.638721 5.5536043,6.8398943 5.870605,7.242241 L 5.724297,7.37026 C 5.4072963,7.0410673 5.0415263,6.876471 4.626987,6.876471 C 4.2246403,6.876471 3.718659,7.2056637 3.109043,7.864049 C 2.4994263,8.5224343 2.2921567,9.220445 2.487234,9.958081 C 2.6823113,10.695717 3.0115043,11.509555 3.474813,12.399594 C 3.938121,13.289633 4.279506,13.323162 4.498968,12.500181 C 4.71843,11.677199 4.791584,11.043198 4.71843,10.598178 C 4.645276,10.153159 4.7031893,10.031236 4.89217,10.232409 C 5.0811513,10.433582 5.215267,10.607322 5.294517,10.753631 C 5.373767,10.899938 5.340238,11.40592 5.19393,12.271575 C 6.376586,13.283538 7.345876,13.929731 8.1018,14.210155 C 8.028646,13.307923 8.187146,12.500181 8.5773,11.78693 C 8.9674547,11.073679 9.4368593,10.534168 9.985514,10.168399 C 9.241782,9.4856283 8.2968767,8.918685 7.150798,8.467569 C 6.833798,7.4312217 6.2119897,6.571663 5.285373,5.888893 C 5.3097577,5.7669697 5.3524307,5.706008 5.413392,5.706008 L 5.577989,5.760873 C 5.517027,5.6877197 5.407296,5.5657967 5.248796,5.395104 C 5.248796,5.2853727 5.3036613,5.230507 5.413392,5.230507 L 5.065911,4.95618 C 5.065911,4.809872 5.1146803,4.736718 5.212219,4.736718 L 4.937891,4.498968 C 4.937891,4.35266 4.9805643,4.279506 5.065911,4.279506 L 4.755007,4.041756 L 4.791584,3.877159 L 4.992757,3.877159 L 4.663564,3.474813 L 4.864738,3.493101 L 4.35266,2.944446 L 4.700141,2.981023 C 4.456295,2.7615617 4.303891,2.651831 4.242929,2.651831 C 4.242929,2.4811383 4.3374197,2.325686 4.526401,2.185474 C 4.7153817,2.0452627 4.505064,1.487464 3.895448,0.512078 L 3.858871,0.512078 C 3.554063,1.585002 3.102947,2.1275603 2.505523,2.139753 C 1.688637,2.1153683 1.2253287,2.219003 1.115598,2.450657 C 1.0180593,2.5725803 0.77421267,2.706696 0.384058,2.853004 C 0.64009667,2.767658 0.768116,2.9078697 0.768116,3.273639 C 0.57303933,3.2980237 0.475501,3.270591 0.475501,3.191341 C 0.475501,3.112091 0.45721233,3.0968507 0.420635,3.14562 C 0.420635,3.523582 0.493789,3.7674283 0.640097,3.877159 L 0.640097,3.877159 z M 6.967914,7.827473 L 7.388549,8.266397 L 6.967914,7.827473 z"
     id="path4"
     sodipodi:nodetypes="cccccccccccscsccsssssscccscsccccccsccccccccccccccccccccssccccsccccccscsccscccsccccsssccsccsssccssssssssccscccccccccccccccccccscccsscscccccc" />
</svg>
