<?xml version="1.0" encoding="UTF-8" standalone="no"?>
<svg
   xmlns:dc="http://purl.org/dc/elements/1.1/"
   xmlns:cc="http://web.resource.org/cc/"
   xmlns:rdf="http://www.w3.org/1999/02/22-rdf-syntax-ns#"
   xmlns:svg="http://www.w3.org/2000/svg"
   xmlns="http://www.w3.org/2000/svg"
   xmlns:sodipodi="http://sodipodi.sourceforge.net/DTD/sodipodi-0.dtd"
   xmlns:inkscape="http://www.inkscape.org/namespaces/inkscape"
   width="21.344145"
   height="21.822086"
   id="svg2241"
   sodipodi:version="0.32"
   inkscape:version="0.45"
   sodipodi:docname="E138VARB.svg"
   inkscape:output_extension="org.inkscape.output.svg.inkscape"
   sodipodi:docbase="C:\PROGRA~1\JSesh\fontsST"
   version="1.0"
   sodipodi:modified="true">
  <metadata
     id="metadata2248">
    <rdf:RDF>
      <cc:Work
         rdf:about="">
        <dc:format>image/svg+xml</dc:format>
        <dc:type
           rdf:resource="http://purl.org/dc/dcmitype/StillImage" />
      </cc:Work>
    </rdf:RDF>
  </metadata>
  <defs
     id="defs2246" />
  <sodipodi:namedview
     inkscape:window-height="712"
     inkscape:window-width="1024"
     inkscape:pageshadow="2"
     inkscape:pageopacity="0.0"
     guidetolerance="10.0"
     gridtolerance="10.0"
     objecttolerance="10.0"
     borderopacity="1.0"
     bordercolor="#666666"
     pagecolor="#ffffff"
     id="base"
     inkscape:zoom="34.55215"
     inkscape:cx="10.672072"
     inkscape:cy="13.226384"
     inkscape:window-x="-4"
     inkscape:window-y="-4"
     inkscape:current-layer="svg2241" />
  <path
     style="fill:#000000;stroke:none"
     d="M 6.1875,0.01353309 C 6.1875,0.11901309 6.23632,0.32795379 6.3125,0.63853309 C 6.38868,0.94911239 6.41797,1.1912531 6.40625,1.3260331 C 6.394531,1.4608131 6.33985,1.5564932 6.28125,1.6385331 L 5.03125,2.7010331 C 4.86717,2.8299531 4.8398311,3.0135131 4.96875,3.2010331 C 4.96875,3.3416731 4.98437,3.4373538 5.03125,3.5135331 C 5.07813,3.5897131 5.11914,3.6424331 5.125,3.7010331 C 5.13086,3.7596331 5.2226399,3.8162631 5.375,3.8572831 C 5.52736,3.8983031 5.632801,3.9119731 5.75,3.8885331 L 6.125,3.7010331 C 5.304601,4.2987524 4.85157,5.4117951 4.78125,7.0760331 L 2.71875,6.5135331 C 2.589831,6.4432131 2.46095,6.4705531 2.34375,6.5760331 C 2.24999,6.6580731 1.9609901,6.9275438 1.46875,7.4197831 C 0.976511,7.9120224 0.6484499,8.2146931 0.53125,8.3260331 C 0.414051,8.4373724 0.3125101,8.6385029 0.21875,8.9197831 L 0,9.8885331 C 0.66804,9.6658538 1.00781,9.4120031 1.03125,9.1072831 C 1.03125,8.9314831 0.9726701,8.841653 0.84375,8.8885331 C 0.80859,8.7244538 0.882791,8.673684 1.09375,8.7322831 C 1.29299,8.4861638 1.5488,8.2186429 1.8125,7.9197831 C 2.0762,7.6209238 2.359341,7.4237025 2.6875,7.2947831 C 3.0654695,7.4910926 3.4023104,7.6468185 3.71875,7.7947831 C 3.6768172,7.8111754 3.6385618,7.8169525 3.59375,7.8572831 C 3.49999,7.9393231 3.2109891,8.2087936 2.71875,8.7010331 C 2.226511,9.1932724 1.89845,9.4959431 1.78125,9.6072831 C 1.664051,9.7186224 1.56251,9.919753 1.46875,10.201033 L 1.25,11.169783 C 1.918039,10.947104 2.25781,10.693253 2.28125,10.388533 C 2.28125,10.212733 2.22267,10.122903 2.09375,10.169783 C 2.05859,10.005704 2.132791,9.954934 2.34375,10.013533 C 2.54299,9.7674138 2.7988,9.4998929 3.0625,9.2010331 C 3.326199,8.9021738 3.609341,8.7049526 3.9375,8.5760331 C 4.3154695,8.7723426 4.6523104,8.9280685 4.96875,9.0760331 C 4.9145239,9.0908068 4.8632867,9.124075 4.8125,9.1697831 C 4.71874,9.2518231 4.429739,9.5525439 3.9375,10.044783 C 3.445261,10.537022 3.1172,10.808443 3,10.919783 C 2.882801,11.031122 2.78126,11.232253 2.6875,11.513533 L 2.46875,12.482283 C 3.136789,12.259604 3.47656,12.005753 3.5,11.701033 C 3.5,11.525233 3.44142,11.466653 3.3125,11.513533 C 3.27734,11.349454 3.351541,11.298684 3.5625,11.357283 C 3.76174,11.111164 4.01755,10.843643 4.28125,10.544783 C 4.544949,10.245924 4.828091,10.017452 5.15625,9.8885331 C 5.4977391,10.065895 5.8024866,10.219384 6.09375,10.357283 C 6.0819128,10.366073 6.07422,10.377985 6.0625,10.388533 C 5.96874,10.470573 5.6797393,10.771294 5.1875,11.263533 C 4.6952607,11.755772 4.3672,12.058443 4.25,12.169783 C 4.1328007,12.281122 4.03126,12.451003 3.9375,12.732283 L 3.71875,13.701033 C 4.3867893,13.478354 4.72656,13.224503 4.75,12.919783 C 4.75,12.743983 4.69142,12.685403 4.5625,12.732283 C 4.52734,12.568204 4.6015407,12.517434 4.8125,12.576033 C 5.01174,12.329914 5.26755,12.062393 5.53125,11.763533 C 5.7949493,11.464674 6.0780908,11.236202 6.40625,11.107283 C 7.918128,11.892521 8.9413507,12.283063 9.46875,12.294783 C 9.70315,12.494023 10.179611,12.783024 10.90625,13.169783 C 11.08205,13.275263 11.19921,13.365093 11.28125,13.388533 C 11.19921,14.67773 11.382771,15.654084 11.78125,16.357283 C 12.214889,17.119082 12.45507,17.724424 12.53125,18.169783 C 12.607429,18.615142 12.605481,19.486054 12.5,20.763533 L 12.1875,21.763533 C 12.691459,21.845574 12.99608,21.751842 13.125,21.482283 C 13.277359,21.247882 13.26955,21.103382 13.09375,21.044783 C 13.011709,20.939303 13.05076,20.783084 13.25,20.607283 C 13.27344,19.095405 13.40232,17.962832 13.625,17.201033 C 13.34372,16.790834 13.22656,16.494023 13.25,16.294783 C 13.683639,17.115182 13.923819,17.277207 14,18.201033 C 14.037133,18.651332 14.07423,19.486055 13.96875,20.763533 L 13.65625,21.763533 C 14.160209,21.845574 14.464829,21.751842 14.59375,21.482283 C 14.746109,21.247882 14.738299,21.103382 14.5625,21.044783 C 14.480459,20.951023 14.55076,20.794804 14.75,20.607283 C 14.604277,19.614616 14.733157,17.995697 15.125,17.201033 C 14.87888,16.802554 14.73047,16.540892 14.71875,16.388533 C 14.893112,16.691373 15.029792,16.93915 15.125,17.201033 C 15.329193,17.762697 15.453645,17.930036 15.5,18.201033 C 15.57618,18.646392 15.57423,19.517305 15.46875,20.794783 L 15.15625,21.794783 C 15.660209,21.876824 15.964829,21.771372 16.09375,21.513533 C 16.246109,21.279132 16.238299,21.134632 16.0625,21.076033 C 15.980459,20.970553 16.05076,20.845584 16.25,20.669783 C 16.219429,19.453942 16.061029,18.492147 16.5,17.232283 C 16.33592,16.927563 16.22266,16.630752 16.1875,16.326033 C 16.56254,17.076112 16.798821,17.675594 16.875,18.138533 C 16.95118,18.601472 16.94923,19.454805 16.84375,20.732283 L 16.53125,21.732283 C 17.046929,21.814323 17.351551,21.708872 17.46875,21.451033 C 17.62111,21.216632 17.6133,21.072132 17.4375,21.013533 C 17.355461,20.908052 17.39451,20.783083 17.59375,20.607283 C 17.61719,19.095405 17.492326,18.31611 17.96875,17.138533 C 17.65231,16.669734 17.527339,16.259663 17.5625,15.919783 C 18.171939,15.497863 18.46875,14.962822 18.46875,14.294783 C 18.46875,13.638464 18.308629,13.021402 17.96875,12.482283 C 18.625069,12.118963 19.10739,12.179504 19.40625,12.607283 C 19.705109,13.035062 19.89452,13.743894 20,14.763533 C 20.105481,15.783172 20.320281,16.495913 20.625,16.888533 C 20.929719,17.281152 21.11327,17.497903 21.21875,17.544783 C 21.394549,17.591663 21.386739,17.310472 21.1875,16.701033 C 20.988259,16.091594 20.816419,15.111332 20.6875,13.763533 C 20.558579,12.415735 20.107509,11.617072 19.28125,11.388533 C 18.454991,11.159993 17.84379,11.318163 17.46875,11.857283 C 17.410151,11.904163 17.21488,11.796763 16.875,11.544783 C 16.535121,11.292803 15.929779,11.134633 15.0625,11.076033 C 14.195221,11.076033 13.490289,11.042842 12.96875,10.919783 C 12.447211,10.796723 12.0801,10.496002 11.875,10.044783 C 11.669901,9.5935638 11.790971,9.1600633 12.21875,8.7322831 C 12.646529,8.3045038 12.85547,7.6698718 12.84375,6.8260331 C 12.84375,6.1345538 12.642619,5.5936524 12.25,5.2010331 C 11.955535,4.9065686 11.666168,4.6892042 11.375,4.5760331 C 11.27859,4.3497788 11.170135,4.1524181 11,3.9822831 C 10.748131,3.7304141 10.495675,3.546197 10.25,3.4197831 C 10.237262,3.4132286 10.23138,3.3948913 10.21875,3.3885331 C 10.120231,3.1059386 9.9832754,2.8405583 9.78125,2.6385331 C 9.509047,2.3663305 9.2343565,2.1912811 8.96875,2.0760331 C 8.8705953,1.8050084 8.7275601,1.5535928 8.53125,1.3572831 C 8.13863,0.96466369 7.76176,0.74010309 7.375,0.66978309 C 7.082001,0.25958379 6.8886799,0.05064309 6.8125,0.04478309 C 6.73632,0.03892309 6.6874999,0.07212319 6.6875,0.10728309 C 6.72266,0.31824269 6.75781,0.41587299 6.78125,0.45103309 C 6.57029,0.15803379 6.4316499,0.02525309 6.34375,0.01353309 C 6.25585,0.0018130903 6.1992199,-0.0099069097 6.1875,0.01353309 z M 6.375,0.23228309 C 6.668,0.57216269 6.8203101,0.89631359 6.84375,1.2010331 L 7.0625,1.0447831 C 7.01562,0.89242309 6.9336,0.71668299 6.875,0.48228309 L 7.3125,1.1072831 C 7.3617503,1.2102608 7.3985123,1.2516703 7.4375,1.2947831 C 7.4375,1.4002631 7.48632,1.6092037 7.5625,1.9197831 C 7.5888204,2.02709 7.6096318,2.1116711 7.625,2.2010331 C 7.6541122,2.3703123 7.6639207,2.5190703 7.65625,2.6072831 C 7.6637732,2.5207673 7.6521971,2.3678313 7.625,2.2010331 L 7.46875,2.3572831 C 7.53907,2.4627631 7.5683599,2.5857838 7.5625,2.7322831 C 7.55664,2.8787831 7.46877,2.9451731 7.28125,2.9510331 C 7.09373,2.9568931 6.9199401,3.0213331 6.75,3.1385331 C 6.58006,3.2557331 6.40822,3.3357931 6.25,3.3885331 C 6.091781,3.4412724 5.93947,3.5330531 5.78125,3.6385331 C 5.62303,3.7440131 5.4961,3.7518231 5.4375,3.6697831 L 5.9375,3.2635331 L 5.84375,3.1697831 C 5.480431,3.5448224 5.26563,3.6385531 5.21875,3.4510331 C 5.17187,3.2635138 5.13672,3.1072931 5.125,3.0135331 C 5.11328,2.9197731 5.242161,2.7869924 5.5,2.5760331 C 5.75784,2.3650731 5.9823999,2.1834731 6.1875,2.0135331 C 6.3926,1.8435938 6.5292901,1.6600332 6.59375,1.5135331 C 6.65821,1.3670331 6.58596,0.94720209 6.375,0.23228309 z M 7.4375,1.0135331 C 7.5087403,1.0313432 7.7080571,1.1635527 7.96875,1.3572831 C 7.9470225,1.3692456 7.9374999,1.370953 7.9375,1.3885331 C 7.97266,1.5994927 8.0078102,1.6971231 8.03125,1.7322831 C 7.82029,1.4392837 7.6816492,1.3065032 7.59375,1.2947831 L 7.4375,1.0135331 z M 7.625,1.5135331 C 7.9179993,1.8534124 8.0703101,2.1775637 8.09375,2.4822831 L 8.28125,2.3260331 C 8.23437,2.1736731 8.1836,1.997933 8.125,1.7635331 L 8.5625,2.3885331 C 8.62696,2.5233127 8.67187,2.6063033 8.71875,2.6385331 C 8.7017314,2.6448361 8.6607577,2.6295177 8.65625,2.6385331 C 8.65625,2.744013 8.7050702,2.9529538 8.78125,3.2635331 C 8.8101981,3.3815532 8.7967708,3.4230093 8.8125,3.5135331 L 8.71875,3.6385331 C 8.78907,3.7440131 8.8183602,3.8670338 8.8125,4.0135331 C 8.80664,4.1600331 8.7187691,4.2264231 8.53125,4.2322831 C 8.3437293,4.2381431 8.1699391,4.3025831 8,4.4197831 C 7.83006,4.5369831 7.65822,4.6170431 7.5,4.6697831 C 7.3417807,4.7225224 7.1894693,4.8143031 7.03125,4.9197831 C 6.87303,5.0252631 6.7460999,5.0330731 6.6875,4.9510331 L 7.1875,4.5447831 L 7.09375,4.4510331 C 6.7304307,4.8260724 6.51563,4.9198031 6.46875,4.7322831 C 6.42187,4.5447638 6.38672,4.3885431 6.375,4.2947831 C 6.36328,4.2010231 6.4921612,4.0682424 6.75,3.8572831 C 7.00784,3.6463231 7.2323999,3.4647231 7.4375,3.2947831 C 7.6425993,3.1248438 7.7792901,2.9412831 7.84375,2.7947831 C 7.90821,2.6482831 7.8359593,2.2284517 7.625,1.5135331 z M 6.6875,1.8572831 C 6.6289,1.8455633 6.58399,1.8475131 6.53125,1.8885331 C 6.425771,1.9705724 6.417961,2.0994531 6.5,2.2635331 L 6.875,1.9510331 C 6.81054,1.8865734 6.7461,1.8690029 6.6875,1.8572831 z M 8.6875,2.2947831 C 8.76188,2.3133781 8.9690998,2.4594194 9.25,2.6697831 C 9.1946134,2.6676572 9.1562499,2.6717331 9.15625,2.7010331 C 9.19141,2.9119924 9.2265602,3.0408731 9.25,3.0760331 C 9.03904,2.7830338 8.9003994,2.6190031 8.8125,2.6072831 C 8.8209237,2.5961125 8.836425,2.5936131 8.84375,2.5760331 L 8.6875,2.2947831 z M 5.40625,2.7947831 C 5.27733,2.8182231 5.24218,2.9314831 5.3125,3.1072831 C 5.41798,3.1190031 5.48437,3.0330831 5.53125,2.8572831 L 5.40625,2.7947831 z M 8.84375,2.8260331 C 9.1367493,3.1659124 9.28906,3.4900638 9.3125,3.7947831 L 9.5,3.6697831 C 9.45312,3.5174231 9.40235,3.3104331 9.34375,3.0760331 L 9.78125,3.7010331 C 9.8362945,3.8161258 9.8640249,3.8794698 9.90625,3.9197831 C 9.9128707,4.0329456 9.962395,4.2015672 10.03125,4.4822831 C 10.063753,4.6147969 10.045998,4.6630225 10.0625,4.7635331 L 9.9375,4.9510331 C 10.00782,5.0565131 10.03711,5.1795338 10.03125,5.3260331 C 10.015767,5.3647398 10.022228,5.4199145 10,5.4510331 L 9.96875,5.4822831 C 9.9204052,5.5203731 9.8437598,5.5418531 9.75,5.5447831 C 9.5624793,5.5506431 9.3886891,5.6150832 9.21875,5.7322831 C 9.04881,5.8494831 8.8769702,5.929543 8.71875,5.9822831 C 8.5605307,6.0350224 8.4082195,6.126803 8.25,6.2322831 C 8.09178,6.3377631 7.9648499,6.3455732 7.90625,6.2635331 L 8.40625,5.8885331 L 8.3125,5.7635331 C 7.9491807,6.1385724 7.7343801,6.2323031 7.6875,6.0447831 C 7.64062,5.8572638 7.60547,5.7322931 7.59375,5.6385331 C 7.58203,5.5447731 7.710911,5.3807423 7.96875,5.1697831 C 8.22659,4.9588231 8.4511499,4.7772231 8.65625,4.6072831 C 8.8613493,4.4373438 8.99804,4.2850331 9.0625,4.1385331 C 9.12696,3.9920331 9.0547093,3.5409518 8.84375,2.8260331 z M 7.9375,3.1385331 C 7.8789,3.1268133 7.8339901,3.1287631 7.78125,3.1697831 C 7.6757707,3.2518224 7.6367105,3.3807031 7.71875,3.5447831 L 8.125,3.2322831 C 8.06054,3.1678234 7.9961,3.1502529 7.9375,3.1385331 z M 6.875,3.4510331 L 6.28125,3.9822831 C 6.11717,4.1112031 6.089831,4.2947631 6.21875,4.4822831 C 6.21875,4.6229231 6.2343699,4.7186038 6.28125,4.7947831 C 6.32813,4.8709631 6.36914,4.9236831 6.375,4.9822831 C 6.38086,5.0408831 6.44139,5.0975131 6.59375,5.1385331 C 6.7461098,5.1795531 6.8828007,5.1932231 7,5.1697831 L 7.375,4.9822831 C 6.5600804,5.5760104 6.1061765,6.6802218 6.03125,8.3260331 C 5.6793916,8.1582419 4.9223485,8.3377518 5.0625,7.3885331 C 5.1736617,5.6196268 5.4412481,4.2727157 6.875,3.4510331 z M 9.90625,3.6385331 C 9.9756497,3.655883 10.157061,3.7979855 10.40625,3.9822831 C 10.434345,4.1369001 10.480237,4.2651384 10.5,4.2947831 C 10.28904,4.0017838 10.150399,3.8377531 10.0625,3.8260331 C 10.045596,3.8237792 10.045337,3.8269866 10.03125,3.8260331 L 9.90625,3.6385331 z M 10.09375,4.0447831 C 10.386749,4.3846624 10.53906,4.7088137 10.5625,5.0135331 L 10.78125,4.8885331 C 10.73437,4.7361731 10.6836,4.5291831 10.625,4.2947831 L 11.03125,4.9197831 C 11.16017,5.1893424 11.2539,5.2479231 11.3125,5.1072831 L 11.15625,4.8572831 C 11.25001,4.8807231 11.51558,5.0603738 11.9375,5.3885331 C 12.35942,5.7166924 12.560551,6.2322037 12.53125,6.9822831 C 12.501949,7.7323618 12.273479,8.3201329 11.875,8.7010331 C 11.476521,9.0819324 11.36912,9.5642538 11.5625,10.138533 C 11.755879,10.712812 12.165951,11.060393 12.78125,11.201033 C 13.396549,11.341673 14.144442,11.394393 15,11.388533 C 15.855559,11.382673 16.648361,11.685344 17.375,12.294783 C 17.867239,11.650184 18.441331,11.466633 19.15625,11.701033 C 19.871168,11.935432 20.28905,12.665745 20.40625,13.919783 C 20.523451,15.173821 20.67186,16.015443 20.8125,16.419783 C 20.953139,16.824122 20.92385,16.812402 20.71875,16.419783 C 20.51365,16.027163 20.322279,15.234362 20.1875,14.044783 C 20.05272,12.855204 19.691469,12.197142 19.09375,12.044783 C 18.496031,11.892423 17.94927,12.025203 17.46875,12.482283 C 17.93755,13.033122 18.19336,13.628704 18.1875,14.232283 C 18.18164,14.835862 17.832099,15.361144 17.1875,15.794783 C 17.21094,16.240142 17.33201,16.704884 17.53125,17.232283 C 17.249712,20.218481 17.340502,17.267339 16.4375,16.107283 C 16.027301,15.327904 15.859371,14.521432 15.90625,13.701033 C 14.019333,13.630713 12.746159,13.495973 12.125,13.326033 C 11.503841,13.156094 10.738379,12.767502 9.8125,12.169783 C 9.0787793,11.92567 8.9167472,11.595907 8.78125,11.201033 C 8.9082917,9.1794259 9.2363569,7.7173232 11.28125,6.9510331 C 11.539089,6.7166331 11.574239,6.3768625 11.375,5.9197831 L 11.1875,6.1697831 C 11.25782,6.2752631 11.28711,6.3982839 11.28125,6.5447831 C 11.27539,6.6912831 11.187519,6.7576732 11,6.7635331 C 10.812479,6.7693931 10.638689,6.8338331 10.46875,6.9510331 C 10.29881,7.0682331 10.12697,7.1482931 9.96875,7.2010331 C 9.8105307,7.2537724 9.6582193,7.3455531 9.5,7.4510331 C 9.34178,7.5565131 9.2148501,7.564323 9.15625,7.4822831 L 9.65625,7.1072831 L 9.5625,6.9822831 C 9.1991807,7.3573224 8.9843801,7.4510532 8.9375,7.2635331 C 8.89062,7.0760138 8.8554698,6.9510431 8.84375,6.8572831 C 8.83203,6.7635231 8.9609107,6.5994923 9.21875,6.3885331 C 9.47659,6.1775731 9.7011501,5.9959731 9.90625,5.8260331 C 10.111349,5.6560938 10.24804,5.5037831 10.3125,5.3572831 C 10.37696,5.2107831 10.304709,4.7597018 10.09375,4.0447831 z M 6.65625,4.0760331 C 6.52733,4.0994731 6.4921799,4.2127331 6.5625,4.3885331 C 6.6679798,4.4002531 6.73437,4.3143331 6.78125,4.1385331 L 6.65625,4.0760331 z M 9.15625,4.4510331 C 9.09765,4.4393133 9.0527401,4.4412631 9,4.4822831 C 8.8945207,4.5643224 8.8554605,4.6932031 8.9375,4.8572831 L 9.34375,4.5760331 C 9.27929,4.5115734 9.21485,4.4627529 9.15625,4.4510331 z M 8.25,4.6697831 L 7.5,5.3260331 C 7.33592,5.4549531 7.3085811,5.6072631 7.4375,5.7947831 C 7.4375,5.9354231 7.4531199,6.0311037 7.5,6.1072831 C 7.54688,6.1834631 7.58789,6.2674331 7.59375,6.3260331 C 7.59961,6.3846331 7.6601398,6.4412631 7.8125,6.4822831 C 7.96486,6.5233031 8.1015509,6.505723 8.21875,6.4822831 L 8.59375,6.2947831 C 7.7897884,6.8805264 7.3339329,7.9968181 7.25,9.6072831 C 6.9230291,9.5263172 6.1764027,9.5755892 6.3125,8.6697831 C 6.4265985,6.8541444 6.7141064,5.484784 8.25,4.6697831 z M 7.875,5.4197831 C 7.7460798,5.4432231 7.7109299,5.5252331 7.78125,5.7010331 C 7.88673,5.7127531 7.9531202,5.6268331 8,5.4510331 L 7.875,5.4197831 z M 10.40625,5.6697831 C 10.34765,5.6580633 10.30274,5.6600131 10.25,5.7010331 C 10.144521,5.7830724 10.136711,5.9119531 10.21875,6.0760331 L 10.59375,5.7947831 C 10.52929,5.7303235 10.46485,5.6815029 10.40625,5.6697831 z M 8.65625,6.6385331 C 8.5881274,6.7462106 8.5908106,6.872893 8.6875,7.0135331 C 8.6875,7.1541731 8.7031199,7.2498538 8.75,7.3260331 C 8.79688,7.4022131 8.8378898,7.4861832 8.84375,7.5447831 C 8.84961,7.6033831 8.9413898,7.6600132 9.09375,7.7010331 C 9.24611,7.7420531 9.3828007,7.7244731 9.5,7.7010331 L 9.84375,7.5135331 C 8.7913707,8.3242776 8.695072,9.6037699 8.5009363,10.613642 C 8.1706591,10.600547 7.4174732,10.693178 7.5418227,9.9717104 C 7.6309176,8.553952 7.8441117,7.4578876 8.65625,6.6385331 z M 9.125,6.6385331 C 8.99608,6.6619731 8.9609299,6.7439832 9.03125,6.9197831 C 9.13673,6.9315031 9.20312,6.8455831 9.25,6.6697831 L 9.125,6.6385331 z M 11.65625,13.576033 C 12.05473,13.716672 12.406221,13.810404 12.6875,13.857283 C 12.65234,14.712842 12.71092,15.298654 12.875,15.638533 C 12.83984,16.154213 12.941381,16.728314 13.1875,17.326033 C 12.978635,18.439898 13.117571,17.236218 12.125,16.138533 C 11.738241,15.347434 11.585931,14.501912 11.65625,13.576033 z M 13.0625,13.919783 C 13.390659,13.943223 13.765581,13.966653 14.1875,14.013533 C 14.082021,14.751892 14.132791,15.318184 14.34375,15.669783 C 14.35547,16.255782 14.45701,16.810354 14.65625,17.326033 C 14.528906,18.157491 14.34585,17.133357 13.40625,15.794783 C 13.11325,15.243944 12.99218,14.622982 13.0625,13.919783 z M 14.59375,14.013533 C 14.781269,14.025252 15.078081,14.064313 15.5,14.076033 C 15.5586,14.708912 15.64452,15.165843 15.75,15.482283 C 15.83204,16.197202 15.95701,16.829884 16.15625,17.357283 C 15.867078,18.645531 15.936451,17.777508 15.03125,16.169783 C 14.585891,15.384544 14.44139,14.658132 14.59375,14.013533 z "
     id="path2278"
     sodipodi:nodetypes="csscccsssccccsssccsccsccsssccsccsccsssccsccscssssccsccsccscsscccccccscccccccssccsccccscccccccscssssssscscssssscsssscscssssccccccssssccssssscccsssssccssscccccccsssccssssscccsssssccscccccssscccccccccccssccsccsssscccsssssccsccccccssscccccccsscccccccccsssssscsssssscsccccscccccssssscccsssssccccccsccccccsssccccccccccscccccsssccccccccccccccccccccccccccc" />
</svg>
