<?xml version="1.0" encoding="UTF-8" standalone="no"?>
<svg
   xmlns:dc="http://purl.org/dc/elements/1.1/"
   xmlns:cc="http://creativecommons.org/ns#"
   xmlns:rdf="http://www.w3.org/1999/02/22-rdf-syntax-ns#"
   xmlns:svg="http://www.w3.org/2000/svg"
   xmlns="http://www.w3.org/2000/svg"
   xmlns:sodipodi="http://sodipodi.sourceforge.net/DTD/sodipodi-0.dtd"
   xmlns:inkscape="http://www.inkscape.org/namespaces/inkscape"
   width="20.441425"
   height="17.983217"
   id="svg2467"
   sodipodi:version="0.32"
   inkscape:version="0.46"
   sodipodi:docname="E140.svg"
   inkscape:output_extension="org.inkscape.output.svg.inkscape">
  <metadata
     id="metadata2474">
    <rdf:RDF>
      <cc:Work
         rdf:about="">
        <dc:format>image/svg+xml</dc:format>
        <dc:type
           rdf:resource="http://purl.org/dc/dcmitype/StillImage" />
      </cc:Work>
    </rdf:RDF>
  </metadata>
  <defs
     id="defs2472">
    <inkscape:perspective
       sodipodi:type="inkscape:persp3d"
       inkscape:vp_x="0 : 8.9916086 : 1"
       inkscape:vp_y="0 : 1000 : 0"
       inkscape:vp_z="20.441425 : 8.9916086 : 1"
       inkscape:persp3d-origin="10.220713 : 5.9944057 : 1"
       id="perspective2476" />
  </defs>
  <sodipodi:namedview
     inkscape:window-height="712"
     inkscape:window-width="1024"
     inkscape:pageshadow="2"
     inkscape:pageopacity="0.0"
     guidetolerance="10.0"
     gridtolerance="10.0"
     objecttolerance="10.0"
     borderopacity="1.0"
     bordercolor="#666666"
     pagecolor="#ffffff"
     id="base"
     showgrid="false"
     inkscape:zoom="36.332023"
     inkscape:cx="10.220713"
     inkscape:cy="8.9916086"
     inkscape:window-x="-4"
     inkscape:window-y="-4"
     inkscape:current-layer="svg2467" />
  <path
     style="fill:#000000; stroke:none"
     d="M 5.21875,0 L 4.75,0.03125 L 4.75,1.15625 C 4.764856,1.6762107 4.6782719,1.9375 4.5,1.9375 C 3.6086387,1.922644 3.1352426,2.000262 3.03125,2.15625 C 2.927258,2.3122387 2.6570027,2.4854061 2.21875,2.65625 C 1.7804973,2.8270947 1.2594573,2.960046 0.6875,3.09375 C 0.11554333,3.227454 -0.102454,3.3678332 0.03125,3.53125 C 0.060962667,3.82837 0.19826601,4.0179313 0.40625,4.0625 C 0.361682,4.493324 0.83715728,4.6503095 1.4313979,4.5760293 C 2.7387286,4.5017493 3.4970871,4.8621795 3.7644952,4.9290322 C 4.0319039,4.9958835 4.5003925,4.7401944 4.649936,5.2900376 C 4.6929298,5.4481176 4.7234133,5.9282026 4.9313979,6.4481632 C 5.1393825,6.9681237 5.1880233,7.7977091 5.5,9.625 C 5.5445687,10.130105 5.4310864,10.854287 5.15625,11.8125 C 4.8814133,12.770714 4.67392,13.32019 4.5625,13.46875 C 4.4510793,13.61731 4.3122381,14.050228 4.15625,14.71875 C 4.000262,15.387271 3.6418854,16.25926 3.0625,17.34375 C 2.4385473,17.269469 2.1249999,17.357591 2.125,17.625 C 2.125,17.847841 2.229516,17.96875 2.4375,17.96875 L 3.65625,17.96875 L 3.8125,17.78125 L 4.03125,17.25 C 4.5214987,16.091229 4.8873034,15.282002 5.125,14.84375 C 5.362696,14.405497 5.561224,14.038155 5.6875,13.71875 C 5.8137767,13.399345 5.9884811,12.98871 6.21875,12.46875 C 6.449018,11.948789 6.7028793,11.393423 7,10.84375 C 7.029712,10.784326 7.1759821,11.106839 7.40625,11.8125 C 7.6365187,12.518161 7.733606,13.003337 7.71875,13.21875 C 7.703894,13.434162 7.7830498,13.810471 7.96875,14.375 C 8.1544507,14.939529 8.1798107,15.881708 8.03125,17.21875 L 7.96875,17.21875 C 7.4339333,17.21875 7.1562502,17.357591 7.15625,17.625 C 7.15625,17.847841 7.2607652,17.96875 7.46875,17.96875 L 8.84375,17.96875 C 9.036878,17.96875 9.1070676,17.759719 9.0625,17.34375 L 8.96875,11.625 C 9.072742,11.298167 9.0368779,10.932363 8.84375,10.53125 C 9.9728073,10.664955 11.297184,10.263286 12.8125,9.3125 C 12.693651,10.367278 12.74591,11.448298 12.96875,12.5625 C 12.389365,15.147449 11.901112,16.69879 11.5,17.21875 L 11.40625,17.21875 C 10.886289,17.21875 10.65625,17.357591 10.65625,17.625 C 10.65625,17.847841 10.727978,17.96875 10.90625,17.96875 L 12.125,17.96875 L 12.28125,17.78125 L 13.625,14.125 C 13.966689,13.486191 14.159326,12.981545 14.21875,12.625 C 14.21875,11.585078 14.514364,10.801211 15.09375,10.28125 C 15.806839,12.004549 16.486191,13.224411 17.125,13.9375 C 17.332984,14.219765 17.491295,15.142474 17.625,16.6875 C 17.491295,17.044045 17.403174,17.305333 17.34375,17.46875 C 17.284326,17.632167 17.302258,17.790478 17.40625,17.96875 L 18.09375,17.96875 C 18.46515,17.790478 18.674182,17.596302 18.71875,17.34375 C 18.362205,16.184979 18.203894,15.086028 18.21875,14.03125 C 17.891918,13.125032 17.682887,12.099345 17.59375,11 C 18.589103,15.486519 19.374509,17.75 19.96875,17.75 C 20.340152,17.735145 20.511781,17.258934 20.4375,16.375 C 20.36322,15.491067 19.779417,13.650001 18.6875,10.8125 C 17.595582,7.975 16.054745,6.5625 14.09375,6.5625 C 13.677781,6.6367802 13.386866,6.6630399 13.03125,6.71875 L 13.96875,3.90625 L 13.8125,3.90625 C 13.910832,3.7622634 13.98288,3.5777282 14,3.34375 C 13.955487,2.77992 13.673993,2.4671753 13.125,2.4375 C 12.576007,2.4375 12.246851,2.733832 12.1875,3.3125 C 12.200728,3.5638299 12.292783,3.7551588 12.40625,3.90625 L 11.65625,3.90625 C 11.756777,3.7622634 11.82663,3.5777282 11.84375,3.34375 C 11.799238,2.77992 11.501331,2.4671753 10.9375,2.4375 C 10.403345,2.4375 10.0906,2.733832 10.03125,3.3125 C 10.044566,3.5655006 10.138096,3.7548251 10.25,3.90625 L 9.5,3.90625 C 9.5983324,3.7622634 9.6703795,3.5777282 9.6875,3.34375 C 9.6429867,2.77992 9.3302424,2.4671753 8.78125,2.4375 C 8.232258,2.4375 7.9507633,2.733832 7.90625,3.3125 C 7.9128638,3.5638299 7.9839491,3.7551588 8.09375,3.90625 L 7.90625,3.90625 L 8.78125,6.53125 C 8.6878295,6.4811051 8.5926904,6.4333221 8.5,6.375 C 7.8389073,5.9590313 7.3655108,5.4887108 7.03125,4.96875 C 6.6969893,4.4487893 6.3596209,3.9441427 6.0625,3.46875 C 6.2407727,3.0676373 6.2930307,2.7689467 6.21875,2.53125 C 6.21875,1.8478727 5.9021266,0.99535333 5.21875,0 z M 5.15625,0.75 L 5.21875,0.75 C 5.6347187,1.5076573 5.8125001,2.1168193 5.8125,2.5625 C 5.8125,2.8744767 5.7064467,3.1895612 5.46875,3.53125 C 5.7213027,3.8580827 6.0602093,4.3806607 6.46875,5.09375 C 6.8772907,5.8068387 7.4969563,6.4234291 8.34375,6.90625 C 8.5656643,7.0327801 8.7964507,7.1253789 9,7.21875 C 9.5731657,7.4816695 10.072451,7.625 10.5,7.625 C 10.913313,7.625 11.765149,7.4778119 12.84375,7.28125 C 13.277138,7.2022702 13.646702,7.1419643 14.1875,7.03125 C 14.648037,7.03125 15.170616,7.1880242 15.75,7.5 C 16.463089,8.0051053 16.917015,8.6844572 17.125,9.53125 C 17.243849,11.507102 17.399084,12.76129 17.5625,13.28125 C 16.789987,12.672153 16.07631,11.452291 15.4375,9.625 C 15.021531,8.9564793 14.392898,8.6265376 13.53125,8.65625 C 13.011289,8.65625 12.454385,8.8473496 11.875,9.21875 C 10.49339,10.006119 9.4123689,10.198757 8.625,9.8125 L 8.3125,8.46875 L 8.09375,8.71875 C 8.1680307,9.3575587 8.3084097,10.1071 8.53125,10.96875 C 8.4866813,12.929745 8.4254583,13.722578 8.34375,13.34375 C 8.262042,12.964921 8.0904126,12.373692 7.875,11.59375 C 7.659588,10.813809 7.3370754,10.201571 6.90625,9.71875 C 6.475426,9.2359293 6.0886125,8.4446339 5.6875,7.375 C 5.4498033,6.4390707 5.2056881,5.363019 4.9308517,4.8059174 C 4.6560157,4.2488167 4.3255784,4.4763287 3.7721592,4.4432186 C 3.2085722,4.4095002 2.9721631,4.0495084 1.413131,4.1975359 C 1.1308663,4.2718159 0.96567403,4.2305298 0.90625,4.15625 C 0.846826,4.08197 0.864758,4.029712 0.96875,4 C 1.072742,3.9702873 1.936251,3.9211301 2.062527,3.9137021 C 2.1888037,3.9062741 2.266421,3.8465881 2.281277,3.7574521 C 2.296133,3.6683161 2.1777769,3.6704802 2.0143602,3.7224761 C 1.8509442,3.7744721 0.95535194,3.8770608 0.73251196,3.8919169 C 0.62851929,3.8324929 0.56250003,3.6946659 0.5625,3.53125 C 1.2458773,3.3529773 1.8043193,3.188776 2.25,3.0625 C 2.6956807,2.936224 2.9897581,2.8048107 3.09375,2.65625 C 3.1977427,2.50769 3.7023885,2.4374999 4.59375,2.4375 C 4.9948627,2.4375 5.171106,2.0373694 5.15625,1.25 C 5.5722187,2.245354 5.5706813,2.8381221 5.125,3.03125 L 5.25,3.25 C 5.5174087,2.982592 5.6562498,2.7571666 5.65625,2.59375 C 5.65625,2.1332133 5.4830827,1.5373693 5.15625,0.75 z M 8.78125,2.75 C 9.1225153,2.7945133 9.2992366,2.986072 9.34375,3.3125 C 9.3177841,3.6370731 9.1423577,3.8315978 8.84375,3.90625 L 8.625,3.90625 C 8.3537661,3.8142783 8.2187503,3.6167413 8.21875,3.3125 C 8.2632627,2.9563967 8.4548216,2.764838 8.78125,2.75 z M 10.9375,2.75 C 11.278766,2.7945133 11.470325,2.986072 11.5,3.3125 C 11.474034,3.6370731 11.287248,3.8315978 11,3.90625 L 10.75,3.90625 C 10.489352,3.810114 10.362262,3.6054731 10.375,3.3125 C 10.404676,2.9563967 10.596235,2.764838 10.9375,2.75 z M 13.09375,2.75 C 13.435016,2.7945133 13.611737,2.986072 13.65625,3.3125 C 13.617301,3.6370731 13.44512,3.8315978 13.15625,3.90625 L 12.9375,3.90625 C 12.655908,3.8142783 12.518022,3.6167413 12.53125,3.3125 C 12.560925,2.9563967 12.752485,2.764838 13.09375,2.75 z M 3.28125,2.78125 C 3.0848719,2.7993558 3,2.906512 3,3.0625 C 3.044568,3.225916 3.2192733,3.2707461 3.53125,3.21875 C 3.8432267,3.166754 4.0537958,3.0875979 4.1875,2.96875 C 4.083508,2.89447 3.8803666,2.8183899 3.53125,2.78125 C 3.4439708,2.771965 3.3467094,2.7752147 3.28125,2.78125 z M 8.75,4.5 L 13.15625,4.5 L 12.34375,6.8125 C 12.296833,6.8189773 12.233092,6.8376804 12.1875,6.84375 C 11.329607,7.0914654 10.334095,7.1465132 9.53125,6.84375 L 8.75,4.5 z M 13.71875,9.15625 C 14.136576,9.1868906 14.509489,9.3665577 14.84375,9.65625 C 14.368357,10.339627 13.948756,11.335602 13.5625,12.6875 C 13.265379,11.513875 13.162402,10.361126 13.28125,9.1875 C 13.42981,9.16893 13.579475,9.1460365 13.71875,9.15625 z M 6.03125,9.21875 C 6.2855824,9.6002484 6.5581683,9.9713177 6.8125,10.3125 C 6.7959913,10.31705 6.7837974,10.325551 6.75,10.34375 C 6.653436,10.395746 6.4190449,10.813809 6.0625,11.59375 C 5.705956,12.373691 5.4267346,13.01718 5.21875,13.5 C 5.0107653,13.982821 5.0958114,13.652881 5.4375,12.53125 C 5.7791887,11.40962 5.9718258,10.30324 6.03125,9.21875 z M 17.75,9.96875 L 17.8125,9.96875 C 19.476374,14.588974 20.173659,16.992834 19.90625,17.15625 C 19.772546,17.15625 19.05733,14.752391 17.75,9.96875 z"
     id="path2469"
     sodipodi:nodetypes="cccsssscccssscssscsccccsssssssccscccccccccsccccccccscccccsssccccccccccccccccccccsscccccscssssscccccccccccssscsscsssssccssscccscccccccccccscccccsccsscscccccccccccccsssssccccc" />
</svg>
