<?xml version="1.0" encoding="UTF-8" standalone="no"?>
<svg
   width="1793.2085"
   height="1412.6591"
   version="1.1"
   id="svg1"
   sodipodi:docname="E148M.svg"
   inkscape:version="1.4 (e7c3feb1, 2024-10-09)"
   xmlns:inkscape="http://www.inkscape.org/namespaces/inkscape"
   xmlns:sodipodi="http://sodipodi.sourceforge.net/DTD/sodipodi-0.dtd"
   xmlns="http://www.w3.org/2000/svg"
   xmlns:svg="http://www.w3.org/2000/svg"
   xmlns:rdf="http://www.w3.org/1999/02/22-rdf-syntax-ns#"
   xmlns:cc="http://creativecommons.org/ns#"
   xmlns:dc="http://purl.org/dc/elements/1.1/">
  <title
     id="title1">E148M</title>
  <defs
     id="defs1" />
  <sodipodi:namedview
     id="namedview1"
     pagecolor="#ffffff"
     bordercolor="#000000"
     borderopacity="0.25"
     inkscape:showpageshadow="2"
     inkscape:pageopacity="0.0"
     inkscape:pagecheckerboard="0"
     inkscape:deskcolor="#d1d1d1"
     inkscape:zoom="0.18072406"
     inkscape:cx="1366.7245"
     inkscape:cy="481.39689"
     inkscape:window-width="1744"
     inkscape:window-height="1039"
     inkscape:window-x="1465"
     inkscape:window-y="53"
     inkscape:window-maximized="0"
     inkscape:current-layer="svg1" />
  <path
     id="path1"
     style="fill:#000000;stroke:none;stroke-width:58.6954"
     d="m 481.01953,-1.9980469 c -3.10016,0.052449 -6.19728,0.6017111 -9.08695,1.73839182 -3.14059,1.2106641 -6.03267,3.05915068 -8.45689,5.39574548 -2.43013,2.3307537 -4.3775,5.1542366 -5.71857,8.2426286 -1.34702,3.304148 -2.18056,6.790545 -3.27064,10.184467 -19.93104,65.850032 -39.86208,131.700064 -59.79312,197.550094 -5.60569,-0.83907 -11.0986,-2.31881 -16.45508,-4.15625 -0.59315,-0.2167 -1.45283,-0.50798 -2.05682,-0.73247 -14.20227,-5.2234 -27.39569,-12.76631 -40.32859,-20.53834 -7.68565,-4.66692 -15.35774,-9.35728 -23.16002,-13.83445 -6.20624,-3.61656 -12.41212,-7.23374 -18.61863,-10.84982 -0.72838,145.43555 -1.45564,290.8711 -2.1836,436.30664 -1.16536,0.21159 -2.33072,0.42318 -3.49609,0.63477 -1.62978,-2.61627 -3.33244,-5.20051 -4.91681,-7.83675 -13.04496,-48.10715 -26.16326,-96.19539 -39.85273,-144.12287 -5.7379,-19.93913 -11.47688,-39.88087 -17.85741,-59.62632 -1.88731,-5.62528 -3.67013,-11.30717 -6.11637,-16.72152 -0.63173,-1.25526 -1.67219,-2.25979 -2.53227,-3.36314 -5.94078,-7.05085 -13.69951,-12.66975 -22.50373,-15.53455 -9.81982,-3.28321 -20.46799,-3.2082 -30.5607,-1.3229 -10.10979,1.90392 -19.86558,5.41954 -29.15412,9.79953 -12.61226,6.01195 -24.29279,14.34527 -33.12637,25.25366 -8.266825,10.09759 -13.820733,22.27374 -16.604617,34.99196 -0.17715,0.93124 -0.478919,1.88708 -0.53407,2.81017 3.33653,7.39421 7.392542,14.43229 11.360447,21.49868 10.88474,19.04536 22.26947,37.79757 33.68469,56.52865 21.89937,35.8387 44.16701,71.45084 66.50508,107.01649 0.32277,0.54739 0.8239,1.37194 1.2151,2.02566 2.48299,4.13012 4.96597,8.26024 7.44896,12.39036 -13.01621,5.68004 -25.72561,12.38376 -36.81305,21.33579 -8.5872,6.96883 -16.21605,15.55112 -20.40099,25.90689 -1.96444,4.84807 -3.12003,10.02524 -3.36799,15.25146 -27.59829,21.49686 -52.677313,46.31323 -73.88473,74.15992 -19.528336,25.57503 -35.728746,53.66981 -48.227693,83.31674 -10.671508,25.26579 -18.6645702,51.62756 -24.2786336,78.46362 0.013735,0.49429 -0.5648322,1.46693 -0.1530859,1.6398 30.5335935,0 61.0671875,0 91.6007815,0 9.944918,-12.98799 21.780791,-24.3912 34.073781,-35.13081 11.71424,-10.13507 23.9353,-19.67647 36.49458,-28.74029 1.62543,-1.14984 3.35343,-2.40388 5.00373,-3.55568 10.84516,-7.61464 21.92565,-14.90085 33.27664,-21.7397 9.3447,-5.43021 19.78143,-9.42603 30.66804,-9.92798 2.64656,-0.12476 5.30323,-0.0427 7.93635,0.25266 0.87434,0.10258 2.02613,0.25897 3.00041,0.43358 2.66616,0.46706 5.29197,1.15666 7.8492,2.04298 0.76663,0.27203 1.81054,0.65511 2.66993,1.00782 4.8969,1.98899 9.39837,4.79318 13.96139,7.42951 5.22761,3.10476 10.35635,6.38241 15.30423,9.84783 4.77104,3.33968 9.61536,7.0244 14.13841,10.86427 3.8785,3.32991 7.70775,6.7428 11.17546,10.50434 5.18799,5.86785 9.35148,12.54692 13.32886,19.26903 8.45495,14.54976 15.70409,29.75866 22.67998,45.06035 7.66694,16.99534 14.96385,34.15924 21.83692,51.49112 4.58052,11.65238 8.9464,23.29578 12.64242,35.25398 2.17884,7.2054 4.24652,14.4963 5.15205,21.988 0.26024,2.8679 0.55184,5.8875 -0.46084,8.6469 -0.59368,1.3293 -1.89706,2.1387 -2.86048,3.1818 -8.19249,7.6789 -16.70543,15.0065 -25.19115,22.3573 -14.99213,12.967 -30.23179,25.6411 -45.0612,38.7951 -23.61696,20.8191 -46.67366,42.2634 -69.45866,63.9871 -19.48539,18.3778 -39.70727,36.1429 -61.16636,52.2472 -7.92047,5.9543 -16.06337,11.6093 -24.37485,17.0028 -10.93733,7.3483 -20.1167,17.2725 -26.60469,28.74 -8.40869,14.7189 -12.52906,31.5177 -14.09228,48.2943 -0.59639,6.461 -0.99504,13.0057 -0.007,19.4506 1.2826,9.2857 5.12056,18.1831 10.95077,25.5195 7.23607,9.178 17.06024,15.9664 27.45208,21.1231 13.45469,6.6444 27.97354,10.8425 42.6089,13.9604 5.96174,1.2417 11.96241,2.3432 17.9872,3.2014 93.84258,-8.6212 187.68486,-17.2458 281.52732,-25.8683 38.60052,12.8421 78.55499,21.7629 119.04335,25.8636 10.50766,0.031 21.03485,-2.3786 30.39025,-7.1897 11.98147,-6.1018 21.8464,-15.7057 29.76122,-26.4599 9.63889,-13.1279 16.74604,-27.9297 22.56081,-43.0911 0.78294,-2.0424 1.52708,-4.0995 2.2932,-6.1483 -13.06633,-1.569 -26.13282,-3.1366 -39.19922,-4.705 -1.17155,-2.7361 -3.73019,-4.5136 -6.11181,-6.1309 -4.49943,-2.9307 -9.41957,-5.1181 -14.28076,-7.3652 0,3.8522 0,7.7044 0,11.5566 -7.77019,-0.8633 -15.54037,-1.7266 -23.31055,-2.5898 -0.0734,-3.0666 -2.07903,-5.783 -4.6773,-7.2749 -4.01021,-2.3576 -8.72084,-3.0628 -13.27765,-3.5353 -0.76822,-0.071 -1.53654,-0.141 -2.30482,-0.2113 -1.00966,3.025 -2.01683,6.0508 -3.02539,9.0761 -7.21774,-0.9802 -14.44669,-1.8906 -21.65741,-2.9146 -5.016,-0.9915 -10.12945,-1.4239 -15.23706,-1.4797 -42.06319,-3.8515 -84.17723,-7.2689 -126.37174,-9.3001 -22.32145,-1.0139 -44.67424,-1.7224 -67.0193,-1.1857 -11.83929,0.34 -23.71162,0.9169 -35.41737,2.8186 -4.53108,0.7197 -8.99557,1.8185 -13.34989,3.2623 -3.54542,1.0825 -7.24594,2.1435 -10.75777,3.018 -4.22683,0.9924 -8.50891,2.0613 -12.87891,2.0156 -0.66052,-0.065 -1.47369,-0.049 -1.99414,-0.4433 0.48698,-1.816 1.87762,-3.21 3.06307,-4.6082 1.64482,-1.8189 3.42605,-3.5108 5.29045,-5.1028 0.29344,-0.2319 0.88751,-0.7447 1.19597,-0.9852 6.26633,-5.0344 13.44417,-8.8288 20.89387,-11.7902 1.23517,-0.4823 2.69681,-1.0393 4.03624,-1.5077 1.86479,-0.6645 4.0283,-1.3619 5.93361,-1.9318 9.38618,-2.8571 19.17031,-4.0512 28.89492,-5.0959 7.80641,-0.7917 15.63909,-1.3332 23.4614,-1.7634 22.72672,-1.2064 45.47944,-1.4435 68.24879,-1.4686 16.40237,-0.1034 32.84946,-0.7954 49.08239,-3.2678 9.98893,-1.5831 19.99581,-3.7673 29.25657,-7.9382 6.12614,-2.8046 12.06766,-6.6669 15.82231,-12.3946 0.61888,-0.949 1.17175,-1.9422 1.64072,-2.9738 22.76997,12.2548 46.59886,22.7975 71.58113,29.6441 11.1358,3.0133 22.48126,5.4203 34.00087,6.3183 17.32187,1.391 34.7427,0.5376 52.01262,-1.1373 22.26095,-2.2261 44.35022,-5.9372 66.26916,-10.3754 22.70558,-4.6763 45.23149,-10.48 67.00144,-18.501 16.55658,-6.1372 32.74455,-13.555 47.46595,-23.3711 3.17325,-2.1373 6.17599,-4.3274 9.41085,-6.3384 15.38228,-9.7756 32.08965,-17.2893 49.142,-23.634 20.8738,-7.7188 42.36743,-13.6564 64.04761,-18.6286 11.0325,22.4753 22.6026,44.7201 35.567,66.1509 6.2104,10.2175 12.7411,20.2566 19.9604,29.7944 0.4531,3.9062 -0.4838,8.0465 -3.0325,11.1045 -3.3577,4.0891 -8.3571,6.3583 -13.2809,7.964 -2.6262,0.8389 -5.3316,1.4851 -7.9704,1.9876 -11.8067,2.2049 -23.87,2.2493 -35.83925,2.23 -9.89063,-0.064 -19.76361,-0.4245 -29.61332,-0.9384 -31.07672,-1.6808 -61.99453,-4.8279 -92.90857,-8.4559 -16.66782,-2.0153 -33.35855,-4.0836 -50.08526,-5.704 -16.581,-1.5933 -33.20248,-2.9999 -49.8675,-3.2093 -6.99032,-0.014 -14.03133,0.051 -20.93538,1.261 -2.37962,0.4086 -4.69808,1.1274 -6.88026,2.1602 -8.56883,3.5559 -15.97475,9.6725 -21.36883,17.1938 -6.77283,9.3574 -10.73545,20.439 -13.21775,31.6382 -3.00863,13.7613 -3.91764,27.8968 -3.87708,41.9558 0.1057,6.2202 1.83177,12.5889 5.82134,17.4659 4.28078,5.3455 10.67847,8.5257 17.19126,10.2518 7.74672,2.0848 15.82604,2.3644 23.80459,2.2784 155.14362,0 310.28721,0 465.43091,0 1.8609,-6.5007 3.7171,-13.0027 5.5761,-19.5039 6.6363,6.1601 15.2724,9.7964 24.0975,11.4504 10.6886,2.0059 21.6848,1.5616 32.4123,0.1023 12.5026,-1.7857 24.676,-6.2708 35.0719,-13.4895 10.8757,-7.4593 19.6642,-17.6503 26.4591,-28.8893 6.7095,-11.0785 12.0699,-22.9108 17.0022,-34.8678 8.6641,-21.2322 15.8243,-43.0444 22.4798,-64.9781 3.4525,-11.3233 6.5769,-22.7295 9.9342,-34.0773 3.1708,-10.6802 6.5668,-21.4023 10.2598,-31.8464 3.7533,-10.441 7.7387,-20.8428 12.9199,-30.6719 2.4521,-4.4832 5.0706,-8.997 8.7872,-12.5644 1.6928,-1.5696 3.9154,-3.0592 6.3403,-2.5657 3.6722,0.6153 6.8574,2.751 9.8139,4.8985 4.7106,3.5484 8.9066,7.7229 12.9356,12.0148 0.7363,0.8043 1.6597,1.7945 2.4501,2.6872 4.9876,5.5622 9.7129,11.4076 14.2509,17.2718 6.2499,8.1047 12.3136,16.5281 18.1898,24.9733 7.2142,10.2793 15.5092,19.9963 25.7058,27.4315 7.9335,5.7998 17.2244,9.9964 27.0627,11.0255 9.6531,1.0643 19.4571,-0.9908 28.2606,-4.955 10.363,-4.6003 19.4404,-11.5854 27.9084,-19.0283 20.4266,-18.0864 36.3462,-40.755 48.8589,-64.8771 9.7424,-18.7557 17.4752,-38.4937 23.9637,-58.5906 8.3085,-25.0697 17.3702,-49.9238 28.1714,-74.0377 7.11,-15.753 14.921,-31.2545 24.4764,-45.68254 3.5051,-5.19757 7.2141,-10.2553 10.6216,-15.5192 13.5179,-20.60228 25.3066,-42.28606 36.3296,-64.3084 5.8648,-11.70948 11.4323,-23.5634 16.9113,-35.4567 3.7638,-7.71687 6.5536,-16.16885 6.3467,-24.84491 -0.1115,-6.95471 -2.5349,-13.82585 -6.7831,-19.33067 -5.4106,-7.08947 -13.1069,-12.03134 -21.092,-15.77378 -1.7933,-0.82679 -3.6063,-1.61128 -5.4434,-2.33594 2.7276,-7.55972 4.4212,-15.7661 3.0531,-23.79177 -1.0491,-6.45552 -4.4011,-12.44684 -9.193,-16.87354 -5.4864,-5.12909 -12.3836,-8.49816 -19.4589,-10.84386 -6.8429,-2.22471 -14.3928,-3.11462 -21.3674,-0.94293 -6.475,1.94425 -11.875,6.52639 -15.7149,11.99576 -1.9042,2.66378 -3.4986,5.53934 -4.8794,8.50517 -8.5624,-3.69728 -17.6441,-6.65157 -27.0366,-6.95646 -6.9959,-0.24084 -14.1959,1.37729 -19.9948,5.41403 -6.3927,4.36244 -10.747,11.10961 -13.5922,18.19589 -2.1861,5.38138 -3.4336,11.07302 -5.0481,16.63717 -11.0712,40.43267 -20.9391,81.23069 -28.2281,122.52719 -6.6354,37.28567 -11.8152,74.81499 -16.362,112.40879 -1.8574,14.5229 -4.0543,29.0398 -7.6596,43.2445 -1.8503,7.0372 -3.9608,14.088 -7.4205,20.5237 -1.6879,2.9597 -3.6761,6.0278 -6.7893,7.6392 -2.9962,1.468 -6.4859,0.5788 -9.3629,-0.7434 -5.4935,-2.6222 -10.0875,-6.7465 -14.4152,-10.9541 -8.3639,-8.3307 -15.6328,-17.6778 -22.5998,-27.1844 -4.2749,-6.0515 -8.927,-11.8607 -14.2451,-17.0331 -9.8575,-9.7364 -21.8677,-17.3274 -35.0126,-21.7565 -16.3594,-5.5968 -34.0288,-6.3771 -51.0889,-4.2699 -8.6473,0.9447 -17.138,3.2513 -25.0672,6.8294 -14.3644,6.4498 -26.782,16.5901 -37.4163,28.0882 -12.7372,13.7964 -23.1747,29.5496 -32.3346,45.8945 -8.1647,14.6251 -15.286,29.8121 -21.75,45.257 -22.6513,-34.4113 -46.1724,-68.2686 -71.2418,-100.97 -6.8494,-8.9258 -13.8194,-17.7593 -20.934,-26.4753 37.168,-122.80014 74.3359,-245.60027 111.5039,-368.4004 0.7653,-1.47014 1.2389,-3.0496 1.6923,-4.63696 21.1138,-69.77681 42.2478,-139.54786 63.349,-209.32827 2.1899,-7.62754 0.511,-16.22638 -4.3896,-22.46834 -4.0741,-5.30623 -10.3208,-8.88232 -16.9683,-9.66001 -3.0047,-0.38809 -6.089,-0.22941 -9.0336,0.48747 -3.5745,0.82175 -6.9528,2.46157 -9.8373,4.72394 -2.6564,2.06813 -4.886,4.67981 -6.5308,7.61773 -1.9762,3.46458 -2.8009,7.40962 -4.0166,11.17321 -20.0662,66.29669 -40.1325,132.59337 -60.1987,198.89006 -3.2776,-0.49143 -6.5183,-1.20524 -9.7168,-2.07031 -0.6737,-0.1969 -1.6505,-0.45658 -2.436,-0.7032 -13.3951,-4.04598 -25.8829,-10.54784 -37.9699,-17.49967 -8.959,-5.1583 -17.6594,-10.70336 -26.6075,-15.9208 -7.963,-4.63974 -15.9258,-9.27972 -23.8889,-13.9193 -0.6744,134.77539 -1.3476,269.55078 -2.0215,404.32617 -16.1251,-10.83492 -34.8461,-17.27812 -53.8715,-20.71762 -21.3502,-3.85012 -43.1912,-4.20179 -64.7936,-2.7758 -13.5703,0.88761 -27.0729,2.58895 -40.5086,4.66758 -37.68548,5.62849 -75.41045,10.75826 -113.21861,15.40456 -31.48609,3.8613 -63.04828,7.38366 -94.61605,10.56726 -12.15252,0.5457 -24.375,0.6817 -36.56783,0.2935 -3.53496,-0.1143 -7.19366,-0.2765 -10.73331,-0.4849 -8.1717,-0.4809 -16.24693,-1.2096 -24.3846,-2.26006 -10.07831,-1.29904 -20.21141,-3.09281 -30.14269,-5.49885 -23.30372,-5.61049 -46.17863,-14.75976 -65.76675,-28.85387 -11.48408,-8.24616 -21.81794,-18.02862 -31.04687,-28.72266 -1.11512,-1.30538 -2.38563,-2.80502 -3.47752,-4.14212 -15.53401,-18.99357 -27.87344,-40.41019 -38.14868,-62.6385 -2.59391,-5.62216 -4.99338,-11.15413 -7.33598,-16.87993 -3.61807,-8.85805 -6.89145,-17.85248 -10.58088,-26.68214 -20.35428,-49.49317 -46.3373,-96.58296 -76.29682,-140.8919 -6.16536,-9.10711 -12.46443,-18.12795 -18.97996,-26.98704 -1.90541,-2.36023 -1.84942,-5.62009 -1.51774,-8.47895 0.88329,-6.16823 3.34042,-11.97101 5.93573,-17.58886 2.99107,-6.32059 6.46154,-12.45283 10.04833,-18.40587 7.50634,-12.35135 15.88382,-24.46546 24.38896,-36.17186 9.59678,-13.22858 19.66601,-26.10408 29.47102,-39.17718 13.90498,-18.52147 27.74226,-37.10416 40.90687,-56.16194 5.32977,-7.82028 10.6734,-15.65748 15.25611,-23.94744 0.94757,-1.82165 1.99347,-3.62638 2.62207,-5.58602 2.67929,-9.62611 2.87728,-19.96716 0.25624,-29.62861 -3.00912,-11.35399 -9.48229,-21.49864 -17.25145,-30.19027 -7.22434,-8.03927 -15.51006,-15.08857 -24.35544,-21.28098 -11.00096,-7.61089 -23.33484,-13.64994 -36.58316,-16.01457 -11.03572,-2.01662 -22.54908,-1.22566 -33.22427,2.20975 -1.71315,0.5369 -3.39779,1.15914 -5.07484,1.79873 -6.85815,15.16447 -14.09117,30.15532 -21.24171,45.18294 -20.9044,43.69103 -42.01081,87.28676 -63.12015,130.87993 -9.90477,20.45656 -19.83629,40.90038 -29.75337,61.35119 -4.30469,0.78255 -8.60938,1.56511 -12.91407,2.34766 35.86849,-118.50456 71.73698,-237.00912 107.60547,-355.51367 0.76529,-1.47014 1.23892,-3.0496 1.69232,-4.63696 21.10486,-69.74537 42.22779,-139.48549 63.32134,-209.234131 2.22197,-7.618566 0.57443,-16.223943 -4.30073,-22.4853404 -4.07429,-5.3487881 -10.35018,-8.95761767 -17.03148,-9.7391077 -1.0849,-0.1780893 -2.19328,-0.1629999 -3.28887,-0.2189178 z M 327.79102,229.7207 c 14.54078,8.3809 29.6854,15.96011 45.81172,20.77972 9.21756,2.73549 18.76899,4.50462 28.39921,4.67731 0.72907,0.31662 0.0678,1.03616 0.0121,1.5802 -25.42655,84.00777 -50.8531,168.01555 -76.27965,252.02332 0.46614,-93.14844 0.93229,-186.29687 1.39843,-279.44531 0.2194,0.12825 0.4388,0.25651 0.65821,0.38476 z M 490.9707,392.4375 c 1.29942,-0.027 2.58042,0.15329 3.79883,0.61344 11.46462,3.51876 22.09118,9.66238 30.91958,17.77254 7.07979,6.47618 13.10295,14.06976 18.08172,22.25857 1.87722,3.50778 3.37956,7.6175 2.38542,11.62498 -0.73817,2.9201 -2.90334,5.22421 -5.32031,6.90039 -45.27327,60.02144 -90.54321,120.0454 -135.81446,180.06836 -4.9476,8.44027 -8.45794,17.97173 -8.60961,27.84257 -0.034,3.06423 0.17169,6.17364 0.82936,9.15712 26.637,37.5254 50.8047,76.91439 71.8056,117.91865 8.94211,17.42327 17.29824,35.14655 25.07817,53.11877 3.29105,7.65115 6.55541,15.46142 9.6483,23.25128 7.75832,19.7966 16.88986,39.08887 27.86398,57.31482 15.30936,25.50123 34.29882,48.94034 57.04093,68.18923 11.79182,9.97997 24.52262,18.87138 38.04244,26.35298 15.8281,8.5373 33.14902,13.9586 50.68078,17.7164 23.34868,4.9356 47.21671,6.9712 71.04237,7.6119 32.70425,0.8179 65.42083,-1.0566 97.96179,-4.2329 21.91141,-2.1473 43.7494,-4.981 65.53141,-8.1762 24.83284,-3.5302 49.69776,-6.5273 74.74984,-8.6235 14.44206,-1.2024 28.98796,-2.1044 43.47086,-2.5208 10.9324,-0.3254 21.8748,-0.3614 32.8071,-0.018 4.039,0.1372 8.3505,0.3304 12.378,0.591 15.5505,1.0162 31.1244,2.885 46.1973,6.9563 8.0629,2.2073 15.9994,5.0686 23.2997,9.1812 0.8126,0.4581 1.8516,1.0746 2.7325,1.6289 1.7315,1.0907 3.4114,2.2639 5.0215,3.5274 0.3387,0.267 0.8104,0.6462 1.1953,0.9739 4.6681,4.0589 9.0315,8.4571 13.3144,12.9167 2.2096,2.3229 4.4511,4.7662 6.5627,7.1387 15.4432,17.4117 29.0059,36.4046 41.5729,55.9682 13.1885,20.6056 25.2481,41.9176 36.5926,63.5869 6.2057,14.9683 13.7161,29.5351 23.7245,42.3405 8.0556,10.282 17.9467,19.3814 29.7486,25.1635 0.9078,0.4427 1.8163,0.8838 2.7245,1.3257 5.6408,-15.6137 11.5645,-31.2084 17.888,-46.4878 7.9109,-19.0973 16.4429,-37.9731 26.2876,-56.1889 3.8755,-7.1642 7.9745,-14.2098 12.3713,-21.0675 6.5932,-10.206 13.9286,-20.2501 22.6497,-28.8587 6.2619,-6.1177 13.3559,-11.6719 21.6322,-14.7558 2.6051,-0.9738 5.3231,-1.6218 8.0774,-1.9949 0.5709,-0.08 1.4779,-0.2103 2.1815,-0.2873 11.4184,-1.4094 23.1856,-0.069 33.9285,4.0816 13.0309,4.9708 24.3545,13.6277 33.922,23.6537 6.3427,6.6062 11.9251,13.8947 17.1344,21.4144 7.2615,10.1084 15.2265,19.8365 24.7563,27.9027 6.7949,5.6903 14.5579,10.5959 23.2941,12.5749 6.7875,1.5817 14.0498,0.9855 20.4807,-1.706 3.3453,-1.3293 6.4853,-3.2247 9.0292,-5.7901 5.0009,-4.9014 8.5242,-11.0708 11.5474,-17.3281 5.0815,-10.7226 8.6649,-22.0815 11.7976,-33.5041 5.3063,-19.6593 9.0945,-39.6919 12.372,-59.7772 4.0583,-25.0883 7.1629,-50.3207 9.8764,-75.58686 5.4074,-30.90001 11.1394,-61.75642 18.1031,-92.34832 3.0294,-13.19748 6.2798,-26.35302 10.194,-39.31881 0.9285,-3.03746 1.972,-6.3239 3,-9.31446 2.3453,-6.66985 4.8027,-13.37444 8.4848,-19.44186 1.3398,-2.03471 2.7636,-4.2343 4.9956,-5.37343 1.5337,-0.79636 3.225,0.36001 3.9942,1.68834 1.6797,2.92642 1.8541,6.41187 1.961,9.70703 0.046,4.65311 -0.4706,9.37449 -1.1328,13.89443 -1.8346,12.06411 -4.7908,23.77094 -8.0078,35.52617 -2.6534,9.55281 -5.5375,19.04048 -8.545,28.4876 -3.145,9.83593 -6.4887,19.79751 -9.8728,29.57097 -3.0417,8.77156 -6.1664,17.51378 -9.3205,26.24544 5.2787,3.29696 10.556,6.59636 15.834,9.89453 3.8066,-14.03059 7.7061,-28.10176 11.789,-42.01367 6.4599,-21.91499 13.2606,-43.66036 21.2977,-65.03974 4.5217,-11.85124 9.3215,-23.64367 15.421,-34.78396 2.8929,-5.14047 5.9949,-10.26968 10.1944,-14.46196 1.9882,-1.88966 4.3818,-3.83506 7.2635,-3.86341 1.4581,-0.004 2.7354,0.79005 4.0695,1.26821 1.4157,3.03163 1.3507,6.49595 1.1588,9.76438 -0.3054,4.18294 -1.1763,8.47309 -2.1412,12.43875 -0.8162,3.30072 -1.7616,6.61893 -2.7631,9.78928 -2.779,8.84396 -6.0915,17.52138 -9.5839,26.064 -7.8295,19.05846 -16.678,37.72759 -25.8255,56.21557 -7.4995,15.11676 -15.2241,30.05911 -23.1166,44.96416 -0.4135,0.7845 -0.8268,1.56915 -1.2402,2.3537 4.9073,1.4033 9.8147,2.80618 14.7227,4.20704 9.9134,-23.15806 20.0974,-46.16872 31.366,-68.71995 6.5106,-12.96212 13.3069,-25.81464 21.203,-37.99585 1.6989,-2.60594 3.5632,-5.29728 5.3587,-7.71194 3.2522,-4.25614 6.6642,-8.52947 11.0679,-11.65463 1.8804,-1.25262 4.2304,-2.52808 6.5434,-1.75748 1.742,0.55307 2.1793,2.58235 2.2431,4.18614 0.089,4.38715 -1.2389,8.64469 -2.584,12.77236 -2.0145,5.89757 -4.6029,11.73255 -7.2216,17.25439 -6.221,12.9865 -13.2692,25.54476 -20.5127,37.95399 -13.1102,22.33511 -27.0658,44.21223 -41.2256,65.86047 -4.0591,6.18202 -8.1388,12.3505 -12.2382,18.50586 -11.2524,33.65782 -23.0872,67.15402 -36.4847,100.00322 -6.7953,16.6069 -14.0281,33.1287 -22.0818,49.1159 -2.5843,5.1013 -5.2399,10.1312 -8.0359,15.0779 -5.5343,9.7387 -11.4914,19.3123 -18.7779,27.8522 -4.172,4.8696 -8.9116,9.3737 -14.5795,12.4591 -6.272,3.5711 -13.582,5.6249 -20.8266,4.8397 -8.0794,-0.8006 -15.4835,-4.7899 -21.7323,-9.8005 -8.3886,-6.7611 -15.1802,-15.2659 -21.2251,-24.1264 -4.2502,-6.2059 -7.8845,-12.8058 -12.1368,-19.0103 -7.8807,-11.6907 -16.7919,-22.8389 -27.6003,-31.966 -8.6619,-7.3003 -18.77,-13.2274 -29.9288,-15.6406 -6.429,-1.3842 -13.1385,-1.6664 -19.6272,-0.5289 -8.486,1.5512 -16.1062,6.1863 -22.4092,11.9433 -8.6406,7.9353 -15.2789,17.7712 -20.9981,27.9448 -8.6413,15.5805 -15.1927,32.2195 -20.912,49.0626 -4.2198,12.4248 -7.7513,25.0672 -11.627,37.5765 -7.3046,23.84 -14.8248,47.6245 -23.2867,71.0826 -3.5512,9.7231 -7.2287,19.4322 -11.5618,28.8726 -4.4337,9.706 -10.1649,19.0339 -18.1433,26.2344 -6.2325,5.6677 -13.9897,9.702 -22.2976,11.2177 -8.633,1.6948 -17.7871,1.3353 -26.038,-1.87 -7.0219,-2.7104 -13.3444,-7.1713 -18.3003,-12.8321 -6.4694,-7.2648 -11.7658,-15.4742 -16.796,-23.7731 -8.3982,-14.0388 -15.7583,-28.6071 -22.8719,-43.3786 -10.5173,-21.6689 -22.705,-42.639 -37.6726,-61.5588 -7.9409,-10.021 -16.7178,-19.3982 -26.4077,-27.7503 -1.1147,-0.9864 -2.2294,-1.9727 -3.3441,-2.959 1.2917,6.9176 2.6348,13.8317 4.4662,20.6305 5.2839,19.9453 12.8959,39.1945 21.385,57.9724 11.7094,25.7404 25.2237,50.6216 39.5169,75.008 5.8198,9.9209 11.7912,19.7522 17.8761,29.5121 -129.0332,0 -258.06644,0 -387.09964,0 1.10382,-3.9386 3.55339,-7.3179 5.98255,-10.5433 5.83668,-7.4348 12.68615,-13.9967 19.63277,-20.3785 2.05838,-1.8663 4.19011,-3.7777 6.28116,-5.6661 -6.65063,0.012 -13.3253,0.012 -19.92793,0.9146 -8.6283,1.1371 -17.3383,3.4765 -24.57538,8.4794 -5.62207,3.8491 -9.98092,9.5004 -12.20185,15.9477 -1.44782,4.097 -2.13706,8.435 -2.28702,12.7697 -1.72136,0 -3.44271,-1e-4 -5.16407,0 0.0297,-1.9228 0.0838,-3.8637 0.18905,-5.7001 0.0711,-1.3786 0.16285,-2.7507 0.27473,-4.0423 0.16991,-2.0477 0.40481,-4.1693 0.67305,-6.1062 0.13215,-1.0255 0.28019,-1.8919 0.44575,-2.9561 1.85404,-11.191 5.64511,-22.2721 12.45974,-31.4462 1.57141,-2.1205 3.31626,-4.1045 4.97331,-6.1574 -4.51687,0.041 -9.07905,-0.028 -13.5163,0.9531 -6.63179,1.3375 -12.88728,4.6682 -17.481,9.6659 -5.76868,6.1928 -9.0021,14.2895 -10.8689,22.4384 -1.73844,7.6536 -2.37064,15.5165 -2.47364,23.3509 -3.18946,-1e-4 -6.37891,0 -9.56836,0 0.38367,-5.2045 0.91876,-10.4555 1.60623,-15.5628 0.79825,-5.817 1.82778,-11.6077 3.26681,-17.3025 0.14625,-0.5324 0.33021,-1.2795 0.49228,-1.8531 1.92158,-6.9129 4.41251,-13.8281 8.70108,-19.6547 2.91084,-3.9595 7.02202,-7.2767 11.93064,-8.2605 1.84403,-0.3897 3.74876,-0.5117 5.60606,-0.1427 44.46017,5.7466 88.98209,11.0624 133.62469,15.1791 26.78839,2.4375 53.62525,4.5007 80.5162,5.3465 18.61309,0.5311 37.31039,0.5892 55.82479,-1.6405 11.1584,-1.3834 22.3374,-3.4936 32.8014,-7.7208 7.2776,-2.9884 14.3423,-7.1743 19.2245,-13.4752 3.1821,-4.047 5.1561,-8.9768 5.8252,-14.0711 -15.4443,-24.1078 -29.7341,-49.0055 -41.592,-75.1094 -5.8733,-12.9587 -11.1594,-26.2984 -15.4412,-39.9211 -1.3612,-4.3364 -2.5931,-8.6066 -3.744,-13.019 -1.1292,-4.3461 -2.1295,-8.6773 -3.0175,-13.1092 -0.6607,-3.3221 -1.296,-6.9244 -1.7842,-10.2807 -0.5979,-4.0292 -1.0556,-8.0498 -1.3898,-12.1582 -0.3131,-3.4998 -0.047,-7.0253 0.3028,-10.5134 0.1492,-1.314 0.3304,-2.5497 0.5536,-3.7821 1.1706,-6.5441 3.6958,-13.114 8.5415,-17.827 4.4553,-4.3887 10.5867,-6.6574 16.7112,-7.3915 2.2325,-0.2183 4.4875,0.068 6.7111,0.3001 9.8751,1.267 19.299,4.7947 28.3111,8.905 14.6274,6.7866 28.3219,15.4046 41.572,24.5516 17.63,12.2476 34.4411,25.6322 50.8455,39.4663 6.2504,5.2866 12.4773,10.7153 18.668,16.1152 -0.6043,-11.4746 -1.2073,-22.9493 -1.8125,-34.4238 -17.8505,-17.8443 -36.71,-34.7836 -57.3396,-49.3745 -14.791,-10.408 -30.538,-19.6571 -47.5002,-26.0552 -14.0639,-5.2872 -29.0963,-8.5293 -44.1782,-7.8536 -9.7198,0.4471 -19.5049,2.9119 -27.7619,8.1855 -8.036,5.0586 -14.2933,12.5969 -18.591,21.004 -5.4755,10.6552 -8.2385,22.4823 -9.7512,34.3023 -0.7957,6.2734 -1.213,12.5906 -1.3799,18.9106 -24.20754,3.2275 -48.29072,7.9186 -71.5846,15.3395 -19.22379,6.1643 -37.97807,14.2614 -54.74069,25.6114 -1.51886,1.014 -2.90059,1.9046 -4.45403,2.8873 -16.04561,10.0678 -33.32667,18.0297 -51.01166,24.7497 -7.66821,2.8998 -15.5893,5.6252 -23.47541,8.1017 -5.93558,1.8696 -11.88476,3.6168 -17.91561,5.2833 -6.41251,1.7686 -12.99096,3.4546 -19.50938,5.033 -20.1736,4.8144 -40.66308,9.0059 -61.29877,11.6359 -12.15876,1.5163 -24.57977,2.539 -36.90764,2.3287 -1.58174,-0.024 -3.24653,-0.075 -4.7173,-0.1465 -0.9992,-0.056 -1.94566,-0.086 -2.85265,-0.1568 -6.45339,-0.3964 -12.87032,-1.3251 -19.16518,-2.8041 -16.51591,-3.7047 -32.4974,-9.7161 -47.42564,-17.6853 -0.77356,-0.4289 -1.78007,-0.9581 -2.56368,-1.3959 -4.9208,-2.7169 -9.72093,-5.6499 -14.40507,-8.7565 12.34753,-11.8536 24.69604,-23.7063 37.04297,-35.5605 -2.33809,-15.1934 -4.67602,-30.3867 -7.01368,-45.5801 -3.68671,5.3229 -7.42037,10.7342 -11.27343,15.8633 -16.0195,21.4284 -34.56346,41.2399 -56.4727,56.7398 -16.13352,11.4189 -34.15074,20.3194 -53.29963,25.3549 -6.38402,1.7008 -12.88309,2.9602 -19.43275,3.8213 -0.82433,0.093 -1.93219,0.2375 -2.86886,0.3409 -1.24174,0.1244 -2.36157,0.2567 -3.54158,0.3487 -2.66359,0.2373 -5.42946,0.4047 -8.00693,0.4974 -18.34398,0.4922 -36.80245,1.3345 -55.12961,2.9603 -19.9234,1.7765 -39.82291,4.3361 -59.33729,8.8051 -15.45034,3.5691 -30.75603,8.4323 -44.62062,16.2552 -12.304,6.8936 -23.37965,16.196 -31.57451,27.7297 -3.73335,5.2759 -6.98797,10.9249 -9.40208,16.9282 -1.69189,4.4129 -2.89233,9.3289 -1.65958,14.0155 0.97129,3.8838 3.99681,6.9769 7.57312,8.6238 5.12942,2.4069 10.90333,2.876 16.49567,2.9405 9.83787,0.013 19.58077,-1.5932 29.23025,-3.3575 7.9067,-1.3335 16.09477,-2.2282 24.1043,-2.9017 9.69595,-0.8085 19.45707,-1.286 29.21233,-1.6158 29.27949,-0.895 58.75864,-0.3681 88.05412,0.6379 31.58195,1.1099 63.10256,2.8664 94.62912,4.9558 0.89646,0.108 1.88716,0.028 2.72559,0.2518 3.47903,4.0787 8.71096,6.2641 13.94571,6.9093 7.16343,0.9246 14.40816,-0.2475 21.3725,-1.9257 0.69215,-0.1966 -0.70323,0.5732 -0.91441,0.7947 -3.64666,2.6044 -7.29225,5.2103 -10.93959,7.8137 -0.70043,4.1978 -1.39979,8.3958 -2.0996,12.5937 9.84489,-1.1353 19.77844,-2.5842 29.06836,-6.1835 5.18117,-2.0784 10.3592,-4.9316 13.64453,-9.5899 1.19514,-1.7186 2.07378,-3.6636 2.51367,-5.7129 4.36002,0.3633 8.72005,0.7266 13.08008,1.0899 -4.51797,6.6044 -10.6606,12.3368 -18.20043,15.2619 -3.90138,1.5807 -8.09547,2.248 -12.27614,2.5213 0,3.761 0,7.5221 0,11.2832 6.79301,0.7115 13.68995,0.6146 20.41901,-0.612 12.2224,-2.139 23.6358,-7.766 33.47192,-15.2307 3.93445,-2.9679 7.65074,-6.2216 11.16181,-9.6788 0.97916,0.2448 1.95833,0.4896 2.9375,0.7344 -2.7723,8.4158 -7.53286,16.3591 -14.50246,21.9506 -7.4465,6.0769 -16.92096,9.1366 -26.37299,10.1797 -2.16221,0.2522 -4.40005,0.4012 -6.47938,0.4699 -9.70769,0.3282 -19.38964,-0.9302 -28.90808,-2.7404 -12.07055,-2.1035 -24.1054,-4.5881 -35.99418,-7.7005 -5.89474,-1.5447 -11.63434,-3.2133 -17.44948,-5.1344 -9.34414,-3.0954 -18.53238,-6.7343 -27.2446,-11.3355 -98.61585,5.5919 -197.23178,11.1822 -295.84766,16.7735 -10.02794,-1.3968 -20.0806,-3.6117 -29.24285,-8.0414 -6.79379,-3.2944 -13.11344,-8.1217 -16.87585,-14.7864 -3.66717,-6.3702 -4.60505,-13.9667 -3.86847,-21.1915 1.25335,-11.6969 4.20913,-23.4408 10.35612,-33.5756 1.60629,-2.6333 3.41989,-5.1413 5.4416,-7.4716 0.63393,-0.723 1.46283,-1.6337 2.21489,-2.3906 4.3409,-4.4576 9.55006,-7.9953 15.10697,-10.7565 10.36,-5.5722 19.93154,-12.4747 29.26696,-19.5983 16.99992,-13.1227 33.10011,-27.3627 48.89703,-41.8978 11.41303,-10.6101 22.88869,-21.153 34.49796,-31.5484 29.8568,-26.7639 60.22246,-52.9804 90.75886,-78.9916 13.65265,-11.6183 27.37244,-23.2088 41.10303,-34.7562 -11.59938,-37.0033 -23.60814,-73.88793 -36.80447,-110.35698 -8.04234,-22.10937 -16.45722,-44.10476 -26.15647,-65.54856 -5.15146,-11.2308 -10.57526,-22.38645 -17.25468,-32.8019 -3.3359,-5.05795 -6.91303,-10.09929 -11.65651,-13.94277 -9.91383,-7.3611 -19.97818,-14.52452 -30.24059,-21.39304 -7.70618,-5.08688 -15.4652,-10.13426 -23.64923,-14.4283 -12.70135,-6.60295 -26.23883,-11.46885 -39.99118,-15.36829 -5.12418,-1.25683 -10.48079,-0.36849 -15.50745,0.91813 -8.81587,2.36428 -17.12587,6.26562 -25.21181,10.43717 -14.40056,7.54586 -28.10122,16.34515 -41.54226,25.46944 -17.08979,11.64403 -33.71222,23.95932 -50.1084,36.55611 -0.20204,-0.55473 -0.50475,-1.12275 0.004,-1.59552 9.48676,-15.31103 22.49054,-28.16423 36.76149,-39.02734 13.6256,-10.37605 28.49222,-19.01554 43.80655,-26.63691 -1.34829,-4.71745 -2.69541,-9.43524 -4.04492,-14.15234 -8.47477,2.21064 -16.79313,5.04513 -24.76874,8.67426 -17.80334,8.03387 -33.83238,19.74295 -47.45272,33.69738 -16.522596,16.87949 -29.666438,36.79929 -40.397684,57.77094 -4.228544,3.2407 -8.933322,6.20964 -14.26594,7.12866 -3.681335,0.65789 -7.600722,-0.24691 -10.578665,-2.52133 -1.902351,-1.39495 -3.48422,-3.18145 -4.85266,-5.09171 6.737688,-18.05452 14.806644,-35.69769 24.068359,-52.54102 7.870546,-14.33167 16.769833,-28.33019 26.384766,-41.55859 15.641084,-21.51729 33.443284,-41.38905 52.947144,-59.50083 2.85923,-2.63745 5.63078,-5.19833 8.56814,-7.72228 9.42956,-7.04349 18.4315,-14.88793 25.45266,-24.39949 5.10813,-6.96023 9.0821,-15.03944 9.91371,-23.72845 0.0774,-0.77742 0.12827,-1.55752 0.15155,-2.3384 12.36612,-6.92245 25.45281,-12.24455 38.83789,-16.8418 11.41423,-3.89833 23.23718,-7.26321 35.03322,-10.20471 12.32805,-3.06814 24.84716,-5.7254 37.36326,-8.09216 20.5363,-3.85176 41.36098,-6.9624 62.15143,-9.55426 0.88967,-0.11243 1.77935,-0.22483 2.66889,-0.33832 35.68946,-75.45672 71.37749,-150.91412 107.0664,-226.3711 2.43319,-4.3991 5.99383,-8.49066 10.8418,-10.22851 1.96594,-0.71993 4.06342,-1.02583 6.15234,-1.01758 z m -306.16211,1.99023 c 3.81066,0.47758 7.81401,1.92997 10.09519,5.19605 2.00238,2.82343 2.51566,6.38783 2.50247,9.7727 18.60139,64.35013 37.20174,128.70055 55.80273,193.05079 -8.46744,1.33658 -16.93489,2.67317 -25.40234,4.00976 -34.80221,-54.98625 -69.62054,-109.96307 -104.41267,-164.95522 -2.08803,-3.78597 -3.5817,-8.28157 -2.46086,-12.60697 0.78651,-3.17171 2.95957,-5.76911 5.3802,-7.86341 8.0643,-9.09266 17.9599,-16.72389 29.27735,-21.29356 9.06832,-3.70475 18.9012,-5.44901 28.68226,-5.3714 0.17856,0.0204 0.35712,0.0408 0.53567,0.0613 z M 1205.3809,649.6875 c 14.4814,8.3505 29.5645,15.89862 45.6177,20.72367 9.2788,2.76747 18.8967,4.56123 28.5952,4.73336 0.7269,0.31803 0.065,1.0366 0.01,1.5802 -25.4259,84.00712 -50.8518,168.01424 -76.2777,252.02136 0.4655,-93.14778 0.931,-186.29557 1.3965,-279.44336 0.2194,0.12826 0.4388,0.25651 0.6582,0.38477 z m -950.72074,39.25977 c -16.80847,0.18804 -33.77596,2.80516 -49.33581,9.35677 -12.96478,5.40515 -24.73333,13.65537 -34.18631,24.04953 -11.56343,12.62075 -22.72981,25.68094 -32.30779,39.89331 -5.15997,7.7248 -9.87024,15.82739 -13.09978,24.56562 2.11862,3.53117 4.2367,7.06267 6.35547,10.59375 5.93049,-5.68218 12.0394,-11.33453 18.27929,-16.57813 7.59321,-6.34919 15.67215,-12.58096 24.46293,-17.43683 4.07843,-2.20727 8.34447,-4.20751 12.88316,-5.2364 11.26928,-0.072 22.18606,-3.89791 31.99962,-9.22716 12.73007,-6.96633 23.97416,-16.32835 34.35351,-26.39887 10.24845,-9.97583 19.61529,-20.8119 28.56836,-31.95269 -9.2344,-1.04145 -18.51964,-1.75101 -27.81871,-1.62993 l -0.1,6.7e-4 z m -25.20899,23.93554 c -7.92813,7.84297 -17.0546,14.71453 -27.49609,18.81836 -0.56317,0.20991 -1.43492,0.55319 -2.12621,0.78344 -1.44143,0.50632 -2.90424,0.95099 -4.3816,1.33961 3.68954,-6.87238 9.2776,-12.82017 16.26227,-16.38859 5.55034,-2.89672 11.76327,-4.33561 17.97991,-4.79305 -0.0794,0.0801 -0.15885,0.16015 -0.23828,0.24023 z" />
  <metadata
     id="metadata1">
    <rdf:RDF>
      <cc:Work
         rdf:about="">
        <dc:title>E148M</dc:title>
        <dc:creator>
          <cc:Agent>
            <dc:title>S. J. P. Thomas</dc:title>
          </cc:Agent>
        </dc:creator>
        <dc:description>Modified E148D to match E148M. S. Rosmorduc
</dc:description>
      </cc:Work>
    </rdf:RDF>
  </metadata>
</svg>
