<?xml version="1.0" encoding="UTF-8" standalone="no"?>
<svg
   xmlns:dc="http://purl.org/dc/elements/1.1/"
   xmlns:cc="http://web.resource.org/cc/"
   xmlns:rdf="http://www.w3.org/1999/02/22-rdf-syntax-ns#"
   xmlns:svg="http://www.w3.org/2000/svg"
   xmlns="http://www.w3.org/2000/svg"
   xmlns:sodipodi="http://sodipodi.sourceforge.net/DTD/sodipodi-0.dtd"
   xmlns:inkscape="http://www.inkscape.org/namespaces/inkscape"
   width="21.721325"
   height="17.983217"
   id="svg2214"
   sodipodi:version="0.32"
   inkscape:version="0.45"
   sodipodi:docname="E148K.svg"
   inkscape:output_extension="org.inkscape.output.svg.inkscape"
   sodipodi:docbase="C:\Program Files\JSesh\fontsST"
   sodipodi:modified="true">
  <metadata
     id="metadata2221">
    <rdf:RDF>
      <cc:Work
         rdf:about="">
        <dc:format>image/svg+xml</dc:format>
        <dc:type
           rdf:resource="http://purl.org/dc/dcmitype/StillImage" />
      </cc:Work>
    </rdf:RDF>
  </metadata>
  <defs
     id="defs2219" />
  <sodipodi:namedview
     inkscape:window-height="480"
     inkscape:window-width="640"
     inkscape:pageshadow="2"
     inkscape:pageopacity="0.0"
     guidetolerance="10.0"
     gridtolerance="10.0"
     objecttolerance="10.0"
     borderopacity="1.0"
     bordercolor="#666666"
     pagecolor="#ffffff"
     id="base" />
  <path
     style="fill:#000000; stroke:none"
     d="M 20.625,0 C 20.432824,0.0106765 20.314059,0.140117 20.25,0.375 C 19.765999,0.23264667 19.49444,0.35418999 19.4375,0.78125 C 19.337853,1.4218393 19.224648,2.230954 19.125,3.15625 L 17.78125,10.0625 C 17.425367,10.019794 17.001016,9.8048387 16.53125,9.40625 C 16.061485,9.0076607 14.965357,8.9114699 13.25,9.125 C 12.767608,9.1850486 12.338835,9.2026072 11.9375,9.21875 C 12.136795,8.6493373 12.329177,7.9450905 12.5,7.0625 C 12.670824,6.17991 12.786808,5.4515307 12.84375,4.875 C 12.900691,4.29847 12.90625,3.5728701 12.90625,2.71875 C 12.109072,2.6191033 11.582971,2.483324 11.3125,2.3125 L 11.3125,0.84375 C 11.127441,0.715632 10.952075,0.695838 10.78125,0.78125 C 10.809721,3.9557267 10.903132,6.7560388 11.03125,9.21875 C 10.45532,9.1911709 9.9913156,9.1033051 9.65625,8.9375 C 8.9658367,8.595852 8.3661186,7.969222 7.875,7.09375 C 7.3838813,6.2182773 6.8138539,5.35134 6.1875,4.46875 C 6.3156173,4.1840433 6.6734686,3.6733979 7.25,2.96875 C 7.8265307,2.2641013 8.1475738,1.827074 8.21875,1.65625 C 8.3183967,1.3003667 8.1359126,0.96664731 7.6875,0.625 C 7.2390873,0.283352 6.8190738,0.18994066 6.40625,0.375 C 6.2923673,0.61700067 5.7860605,1.7004521 4.875,3.59375 C 4.362528,1.7573933 4.0541621,0.76457399 3.96875,0.59375 C 3.7552207,0.294808 3.4313987,0.22830866 2.96875,0.40625 C 2.5061027,0.584192 2.2104127,0.86842598 2.125,1.28125 C 2.2388827,1.5232507 2.7622033,2.374732 3.6875,3.8125 C 2.6056147,4.139912 2.0767353,4.5472485 2.0625,5.03125 C 0.980616,5.871134 0.28470667,6.9601443 0,8.3125 L 1.25,8.3125 C 1.378118,8.113206 1.5732787,7.9010301 1.84375,7.6875 C 2.1142213,7.47397 2.4863088,7.2859269 2.90625,7.09375 C 3.326192,6.9015733 3.6896019,6.9609553 4.03125,7.28125 C 4.372898,7.6015447 4.6416761,7.955058 4.8125,8.375 C 4.983324,8.794942 5.0795155,9.1994991 5.09375,9.5625 C 5.107986,9.9255 5.1574707,10.22397 5.25,10.4375 C 5.3425293,10.65103 5.3057208,10.987529 5.15625,11.5 C 5.0067787,12.012472 4.8638821,12.579719 4.75,13.15625 C 4.6361173,13.732781 4.6135439,14.222073 4.65625,14.65625 C 4.698956,15.090427 4.7512208,15.54725 4.84375,16.03125 C 4.93628,16.515251 5.3507339,16.704853 6.0625,16.5625 C 6.774266,16.420147 7.7615268,16.188177 9,15.875 C 8.9288233,16.08853 8.9486172,16.412352 9.0625,16.875 C 9.176382,17.337649 9.5298958,17.695501 10.15625,17.9375 C 10.412486,18.051383 10.607647,17.949632 10.75,17.59375 L 11.25,16.59375 C 11.350068,16.743853 11.373567,16.814435 11.53125,17.03125 C 11.815957,17.444074 12.441027,17.449633 13.4375,17.09375 L 13.125,16.6875 C 13.181941,16.644793 13.198956,16.531588 13.15625,16.375 L 13,16.46875 L 12.78125,16.15625 C 12.880897,16.099309 12.863883,16.017354 12.75,15.875 L 12.5625,15.9375 L 12.53125,15.84375 C 12.597148,15.846892 12.679534,15.870952 12.75,15.875 C 13.14053,15.897435 13.437916,15.887232 13.96875,15.9375 C 15.847813,16.115441 16.857647,16.006574 17,15.59375 C 17.142353,15.180925 17.258339,14.73678 17.34375,14.28125 C 17.429163,13.82572 17.594632,13.467868 17.84375,13.21875 C 18.092867,12.969632 18.334734,12.394046 18.5625,11.46875 L 20.78125,3.5625 C 21.151369,2.8792047 21.459735,2.1662814 21.6875,1.46875 C 21.829853,1.0701613 21.640251,0.79860336 21.15625,0.65625 C 21.241662,0.314602 21.142692,0.116662 20.84375,0.03125 C 20.765456,0.009897 20.689059,-0.0035588332 20.625,0 z M 20.6875,0.625 C 20.915265,0.710412 20.722884,1.5052913 20.125,3 L 20.3125,3.03125 C 20.71109,1.7073653 20.995323,1.0751767 21.1875,1.125 C 21.379677,1.1748233 21.081209,1.9768201 20.3125,3.5 L 18.09375,11.3125 C 17.823278,12.223561 17.585751,12.759558 17.34375,12.9375 C 17.101751,13.115441 16.899471,13.512881 16.75,14.125 C 16.600529,14.737119 16.471868,15.134558 16.34375,15.3125 C 16.215633,15.490442 15.321783,15.503118 13.65625,15.375 C 12.88517,15.315686 12.275417,15.292485 11.8125,15.3125 L 11.8125,14.75 C 12.040737,14.752165 12.270323,14.748847 12.53125,14.78125 C 13.620252,14.916485 14.392558,14.896691 14.8125,14.71875 C 15.232443,14.540808 15.351207,14.30328 15.1875,13.96875 C 15.023793,13.63422 15.070499,12.891606 15.3125,11.78125 L 14.8125,11.59375 L 14.65625,12.0625 C 13.688248,12.162147 13.05606,12.327618 12.75,12.5625 C 12.44394,12.797383 11.910722,12.975529 11.15625,13.125 C 10.401778,13.274471 9.3919438,12.995796 8.125,12.3125 L 8.46875,11.90625 L 8.40625,11.375 L 7.9375,12.15625 C 7.780912,12.440957 7.5715153,12.682823 7.34375,12.875 C 7.1159847,13.067177 6.8840155,13.365646 6.65625,13.75 C 6.4284853,14.134353 6.3097205,14.527455 6.28125,14.96875 C 6.2527793,15.410045 6.7618651,15.489221 7.84375,15.21875 C 8.925634,14.948279 9.604529,14.809721 9.875,14.78125 C 9.5760587,15.009015 9.3808975,15.184382 9.28125,15.3125 C 7.7153647,15.711089 6.6687215,15.943059 6.15625,16 C 5.643778,16.056942 5.3623234,15.948076 5.3125,15.65625 C 5.262676,15.364427 5.2230881,14.972545 5.1875,14.53125 C 5.151912,14.089955 5.2255294,13.570972 5.375,12.9375 C 5.5244707,12.304028 5.6998381,11.664722 5.90625,11.03125 C 6.1126627,10.397778 6.3573088,9.940956 6.65625,9.65625 L 6.5,8.84375 L 5.75,10.125 C 5.707294,9.2424093 5.5742948,8.5734128 5.375,8.125 C 5.1757053,7.6765873 4.9013679,7.2933826 4.53125,6.9375 C 4.1611313,6.5816167 3.8202946,6.3892354 3.5,6.375 C 3.1797053,6.3607647 2.5134873,6.7142782 1.53125,7.46875 L 1.5,7.4375 C 1.71353,7.067382 2.0840581,6.7562361 2.625,6.5 L 2.59375,6.34375 C 1.967396,6.514574 1.4298393,6.9955281 1.03125,7.75 C 0.831956,7.9065887 0.67638267,7.8895739 0.5625,7.71875 C 0.889912,6.83616 1.4302486,6.0780893 2.15625,5.4375 C 2.497898,5.1954993 2.6562501,4.9465153 2.65625,4.71875 C 3.1402513,4.4340433 3.9719395,4.2388828 5.125,4.125 L 6.65625,0.96875 C 6.7131913,0.840632 6.7781328,0.78402932 6.90625,0.8125 C 7.2194273,0.84097067 7.4854259,1.0135586 7.65625,1.3125 C 7.741662,1.440618 7.7076326,1.539588 7.59375,1.625 L 5.6875,4.15625 C 5.5878527,4.3270733 5.5652794,4.4684113 5.59375,4.625 C 6.220104,5.50759 6.8028073,6.4283508 7.34375,7.375 C 7.884692,8.3216487 8.541013,9.0444694 9.28125,9.5 C 10.021487,9.95553 11.256173,10.020471 13,9.75 C 14.743827,9.479528 15.85975,9.5927336 16.34375,10.0625 C 16.827751,10.532265 17.39066,10.786808 18.03125,10.84375 L 19.59375,3.21875 C 19.664926,1.5247467 19.807823,0.72430866 20,0.78125 C 20.192177,0.83819133 20.125677,1.5396594 19.8125,2.90625 L 20,2.9375 C 20.213529,1.3289087 20.445499,0.56805865 20.6875,0.625 z M 3.40625,0.71875 C 3.5343673,0.71875 3.59375,0.79514667 3.59375,0.9375 L 4.46875,3.625 L 4.09375,3.6875 L 2.65625,1.4375 C 2.5993087,1.309382 2.6163234,1.1961767 2.6875,1.125 C 2.8867947,0.86876467 3.1357788,0.73298534 3.40625,0.71875 z M 11.375,2.96875 C 11.560059,3.0683973 11.876764,3.1475733 12.375,3.21875 C 12.34653,5.3540487 12.052399,7.3313492 11.46875,9.125 C 11.397573,7.4594667 11.375,5.40299 11.375,2.96875 z M 3.4375,4.96875 C 3.0077712,5.0034485 2.6830594,5.1393381 2.4375,5.40625 C 2.110088,5.7621333 1.8808973,6.0704992 1.78125,6.3125 L 1.84375,6.375 C 2.171162,6.076058 2.4399407,5.917706 2.625,5.875 C 2.9951187,5.8607647 3.4222492,5.5666334 3.90625,4.96875 C 3.7425438,4.9545147 3.5807429,4.9571838 3.4375,4.96875 z M 3.28125,5.25 C 3.0961907,5.449294 2.9180447,5.5510439 2.71875,5.59375 L 2.71875,5.5625 C 2.8326327,5.34897 3.0107785,5.2499998 3.28125,5.25 z M 14.53125,12.71875 C 14.431603,13.160045 14.471191,13.609749 14.65625,14.09375 C 14.385779,14.349985 13.879472,14.419265 13.125,14.3125 C 12.605975,14.239053 12.176577,14.257013 11.8125,14.28125 L 11.818463,14.271191 C 11.748157,13.89818 11.311683,13.904143 11.0625,14.0625 C 10.759145,13.904143 10.482572,13.904143 10.324425,14.205603 L 10.3125,14.25 C 9.8658666,14.289147 9.3217516,14.367543 8.65625,14.53125 C 7.3252473,14.858663 6.739764,14.848766 6.875,14.5 C 7.0102353,14.151235 7.1317786,13.913707 7.28125,13.75 C 7.4307207,13.586294 7.672588,13.327413 8,13 C 9.3808267,13.597884 10.45994,13.836972 11.25,13.6875 C 12.040061,13.538029 12.607308,13.345647 12.90625,13.125 C 13.205191,12.904352 13.748307,12.775691 14.53125,12.71875 z M 10.625,14.40625 C 10.71875,14.328736 10.83635,14.334699 10.90625,14.40625 L 10.90625,15.71875 C 10.824425,15.808189 10.71875,15.814152 10.625,15.71875 L 10.625,14.40625 z M 11.21875,14.40625 C 11.3125,14.275073 11.465876,14.322774 11.5,14.40625 L 11.5,15.71875 C 11.4301,15.820114 11.306537,15.838002 11.21875,15.71875 L 11.21875,14.40625 z M 10.3125,15.09375 C 10.301124,15.974391 10.287777,16.15828 10.65625,16.1875 C 10.676889,16.305638 10.687912,16.42502 10.75,16.5625 C 10.579176,16.633677 10.443398,16.519842 10.34375,16.135488 C 10.172927,16.576782 10.266338,16.840632 10.59375,16.96875 L 10.53125,17.09375 C 10.218073,16.979867 9.988883,16.790266 9.875,16.5625 C 9.746882,16.904149 9.9222491,17.189942 10.40625,17.375 L 10.34375,17.5625 C 9.831278,17.277794 9.5399255,16.893031 9.46875,16.4375 C 9.3975733,15.981971 9.6054109,15.578972 10.125,15.1875 C 10.178957,15.146847 10.252402,15.128723 10.3125,15.09375 z M 11.8125,15.8125 C 11.870279,15.812706 11.998853,15.81113 12.0625,15.8125 L 12.25,16 L 11.84375,15.9375 L 11.8125,15.9375 L 11.8125,15.8125 z M 11.8125,16.09375 C 12.032698,16.258989 12.227322,16.298269 12.375,16.21875 L 12.5625,16.4375 C 12.277793,16.465971 12.062838,16.426382 11.90625,16.3125 L 11.8125,16.375 C 12.011794,16.645471 12.342734,16.78125 12.8125,16.78125 L 12.84375,16.875 C 12.331279,17.060059 11.889913,16.887472 11.5625,16.375 C 11.50661,16.311658 11.478761,16.273315 11.4375,16.21875 C 11.562092,16.21875 11.717175,16.268202 11.8125,16.09375 z M 10.90625,16.125 C 10.916647,16.121976 10.926973,16.128381 10.9375,16.125 C 10.970135,16.192448 11.111616,16.382474 11.1875,16.5 C 11.032879,16.359765 10.922639,16.238042 10.90625,16.125 z "
     id="path2216"
     sodipodi:nodetypes="ccsccsscsscccccsscssscccscccccssssssssssscssccsccccccccsssssccscsccccsccssssccssscccssccccssssccssssscccsssccccccccccsscccssssccsccccccccsccccccscccccccccccscccccssscssccccccccccccccccccccssccccccccccccccssccssc" />
</svg>
