<?xml version="1.0" encoding="UTF-8" standalone="no"?>
<svg
   xmlns:dc="http://purl.org/dc/elements/1.1/"
   xmlns:cc="http://web.resource.org/cc/"
   xmlns:rdf="http://www.w3.org/1999/02/22-rdf-syntax-ns#"
   xmlns:svg="http://www.w3.org/2000/svg"
   xmlns="http://www.w3.org/2000/svg"
   xmlns:sodipodi="http://sodipodi.sourceforge.net/DTD/sodipodi-0.dtd"
   xmlns:inkscape="http://www.inkscape.org/namespaces/inkscape"
   width="29.728886"
   height="17.983217"
   id="svg2214"
   sodipodi:version="0.32"
   inkscape:version="0.45"
   sodipodi:docname="E148L.svg"
   inkscape:output_extension="org.inkscape.output.svg.inkscape"
   sodipodi:docbase="C:\Program Files\JSesh\fontsST"
   sodipodi:modified="true">
  <metadata
     id="metadata2221">
    <rdf:RDF>
      <cc:Work
         rdf:about="">
        <dc:format>image/svg+xml</dc:format>
        <dc:type
           rdf:resource="http://purl.org/dc/dcmitype/StillImage" />
      </cc:Work>
    </rdf:RDF>
  </metadata>
  <defs
     id="defs2219" />
  <sodipodi:namedview
     inkscape:window-height="480"
     inkscape:window-width="640"
     inkscape:pageshadow="2"
     inkscape:pageopacity="0.0"
     guidetolerance="10.0"
     gridtolerance="10.0"
     objecttolerance="10.0"
     borderopacity="1.0"
     bordercolor="#666666"
     pagecolor="#ffffff"
     id="base" />
  <path
     style="fill:#000000; stroke:none"
     d="M 0.5 0 C 0.24078267 0.048603333 0.064804667 0.18058668 0 0.375 C 2.4949687 2.9833767 4.8024111 5.2908202 6.84375 7.21875 C 6.0411149 8.0636549 5.5023489 9.0825906 5.25 10.28125 L 6.6875 10.28125 C 6.83331 10.070637 7.0671787 9.836767 7.375 9.59375 C 7.6828207 9.3507333 8.0104755 9.1330642 8.375 8.90625 C 8.7395247 8.679434 9.0671793 8.6423885 9.375 8.8125 C 9.6828207 8.9826113 9.9305865 9.1724858 10.125 9.375 C 10.319413 9.5775133 10.589177 10.086942 10.9375 10.9375 C 11.285823 11.788057 11.409706 12.254643 11.3125 12.34375 C 11.215293 12.432856 10.983729 12.666726 10.5625 13.03125 C 10.141271 13.395775 9.6144896 13.834568 9.03125 14.3125 C 8.4480107 14.790432 7.9964734 15.153981 7.65625 15.4375 C 7.3160273 15.721019 7.1261529 16.188757 7.09375 16.8125 C 7.061348 17.436241 7.5568798 17.806739 8.59375 17.96875 L 13.09375 17.53125 C 13.725592 17.725663 14.383206 17.872696 15.03125 17.9375 C 15.582087 18.002304 16.004679 17.57856 16.3125 16.6875 L 15.6875 16.625 C 15.703701 16.576395 15.631914 16.518505 15.4375 16.4375 L 15.4375 16.5625 L 15.03125 16.5625 C 15.047451 16.465294 14.929364 16.391201 14.71875 16.375 L 14.6875 16.53125 L 14.3125 16.46875 C 14.231495 16.452549 14.143506 16.409706 14.0625 16.3125 C 11.081499 16.409706 9.6666903 16.365712 9.8125 16.1875 C 9.95831 16.009289 10.192179 15.884253 10.5 15.84375 C 10.807821 15.803247 11.362396 15.789351 12.15625 15.78125 C 12.950103 15.77315 13.533625 15.664316 13.90625 15.4375 C 14.440887 15.72912 14.929471 15.918995 15.375 16 C 15.82053 16.081005 16.468891 16.030063 17.34375 15.84375 C 18.21861 15.657438 18.847277 15.401571 19.1875 15.09375 C 19.527723 14.785929 20.196929 14.537011 21.25 14.375 C 21.557821 15.087848 21.864631 15.613478 22.15625 15.9375 C 22.188653 16.196718 21.964036 16.327549 21.4375 16.34375 C 20.910965 16.359951 20.092422 16.317109 19.03125 16.1875 C 17.970079 16.057891 17.364561 16.043995 17.21875 16.125 C 16.797522 16.287011 16.59375 16.753597 16.59375 17.53125 C 16.59375 17.839071 16.812571 17.96875 17.25 17.96875 L 24.75 17.96875 L 24.8125 17.65625 C 25.087919 17.834463 25.36463 17.9375 25.65625 17.9375 C 25.931669 17.953701 26.150489 17.865713 26.3125 17.6875 C 26.47451 17.509289 26.606493 17.305517 26.6875 17.0625 L 28.90625 6.40625 C 29.246474 5.579994 29.509289 4.7475547 29.6875 3.9375 C 29.81711 3.467668 29.598289 3.1909567 29.03125 3.09375 C 29.096054 2.7049233 28.950173 2.4560053 28.59375 2.375 C 28.237325 2.310196 28.033554 2.4711253 27.96875 2.84375 C 27.401712 2.746544 27.094902 2.9364187 27.0625 3.40625 C 27.030098 4.1515007 27.03125 5.0557281 27.03125 6.125 L 25.75 14.125 C 25.247767 13.071929 24.760335 12.224441 24.25 11.625 C 23.739665 11.025559 22.382749 10.917877 20.1875 11.25 C 17.992251 11.582123 16.474405 11.523079 15.65625 11.09375 C 14.838095 10.664421 14.217527 9.9489161 13.8125 8.96875 C 13.407473 7.9885833 12.884147 7.0044682 12.1875 6 C 12.1875 5.8379893 12.514003 5.3065634 13.21875 4.375 C 13.923499 3.4434373 14.325245 2.8657119 14.40625 2.6875 C 14.535859 2.2662713 14.391131 1.8957748 13.9375 1.53125 C 13.483869 1.1667253 13.030027 1.0717879 12.625 1.25 C 12.47919 1.5254187 11.866723 2.7642489 10.78125 5 C 10.214212 2.845254 9.8946576 1.6631634 9.78125 1.46875 C 9.538234 1.1285273 9.151536 1.0787367 8.625 1.28125 C 8.0984647 1.483764 7.7847068 1.8264673 7.6875 2.3125 C 7.8171087 2.571718 8.4145264 3.5639339 9.5 5.28125 C 8.236314 5.5728693 7.6099515 5.9804129 7.59375 6.53125 C 7.3021307 5.8994073 6.8633373 5.077408 6.3125 4.21875 C 5.7616627 3.3600913 5.2800271 2.6434347 4.875 2.125 C 4.4699727 1.6065647 3.9454954 1.0091473 3.28125 0.3125 C 2.5522007 0.84713667 2.012674 1.153946 1.65625 1.21875 L 0.5 0 z M 3.21875 1.15625 C 4.8712613 2.9383707 6.216586 4.8371188 7.15625 6.78125 C 5.7791567 5.4527607 4.0992292 3.727686 2.1875 1.71875 C 2.4143153 1.6701467 2.7489179 1.4964733 3.21875 1.15625 z M 9.25 1.6875 C 9.4120107 1.7037013 9.4837984 1.7754887 9.5 1.9375 L 10.375 5.0625 L 9.96875 5.15625 L 8.25 2.46875 C 8.185196 2.32294 8.1840435 2.2222067 8.28125 2.125 C 8.540468 1.83338 8.8773748 1.6875 9.25 1.6875 z M 13.125 1.6875 C 13.481423 1.7847067 13.743087 2.0035267 13.9375 2.34375 C 14.034707 2.48956 14.035859 2.5902932 13.90625 2.6875 L 11.75 5.53125 C 11.636592 5.7256633 11.576397 5.9155382 11.625 6.09375 C 12.321647 7.1144187 12.91442 8.1726271 13.34375 9.25 C 13.773079 10.327373 14.392494 11.115817 15.21875 11.59375 C 16.045005 12.071683 17.547803 12.151571 19.71875 11.84375 C 21.889697 11.535929 23.224616 11.58572 23.71875 12.03125 C 24.212883 12.476781 24.657472 13.156391 25.0625 14.03125 C 25.467527 14.906109 25.802131 15.34375 26.09375 15.34375 L 27.5625 6.15625 C 27.449093 4.2445207 27.491936 3.311348 27.71875 3.34375 C 27.945565 3.3761527 27.960614 4.1622927 27.75 5.75 L 27.96875 5.78125 C 28.033554 3.9343247 28.193331 3.0451467 28.46875 3.09375 C 28.744169 3.1585547 28.658484 4.0778306 28.15625 5.84375 L 28.34375 5.84375 C 28.63537 4.3046453 28.898185 3.561348 29.125 3.59375 C 29.351815 3.6261527 29.102897 4.5454286 28.40625 6.34375 L 26.1875 16.875 C 26.057891 17.101815 25.917807 17.224545 25.8125 17.28125 C 25.707193 17.337953 25.489525 17.271961 25.125 17.09375 C 24.760475 16.915538 24.416619 16.543889 24.125 15.96875 C 23.83338 15.393611 23.513825 14.949022 23.125 14.625 C 23.254608 15.321647 23.676049 16.284917 24.4375 17.5 L 18.1875 17.5 C 18.1875 17.386591 18.333381 17.181669 18.625 16.90625 C 18.090364 16.90625 17.84375 17.126222 17.84375 17.53125 L 17.65625 17.53125 C 17.65625 17.142423 17.759287 16.850663 17.9375 16.65625 C 17.532472 16.65625 17.3125 16.948011 17.3125 17.53125 L 17.09375 17.53125 C 17.142353 16.818401 17.348429 16.4375 17.65625 16.4375 C 19.648985 16.696718 20.997801 16.821753 21.71875 16.78125 C 22.439699 16.740748 22.811348 16.542771 22.84375 16.21875 C 22.179505 15.068471 21.829854 14.209391 21.78125 13.59375 C 21.78125 13.204923 21.942178 12.969902 22.25 12.9375 C 22.719831 12.9375 23.478179 13.420287 24.53125 14.34375 L 24.5 13.875 C 23.641342 13.000141 22.882995 12.5625 22.21875 12.5625 C 21.635509 12.5625 21.298603 13.000141 21.25 13.875 C 20.180727 14.004609 19.451325 14.223429 19.0625 14.53125 C 18.673673 14.839071 18.099405 15.086837 17.28125 15.28125 C 16.463094 15.475663 15.842527 15.549755 15.4375 15.46875 C 15.032473 15.387745 14.637673 15.211767 14.28125 14.96875 L 14.90625 14.375 L 14.8125 13.75 C 14.099652 14.786871 13.275313 15.290503 12.34375 15.25 C 11.412187 15.209497 10.704783 15.275489 10.21875 15.4375 C 9.7327167 15.599511 9.3969617 15.861173 9.21875 16.25 C 9.0405387 16.638826 10.572281 16.770809 13.8125 16.625 C 13.942109 16.770809 14.174825 16.828701 14.53125 16.8125 L 14.1875 17.0625 L 14.1875 17.21875 C 14.592527 17.170147 14.811348 17.038163 14.84375 16.84375 L 15.125 16.875 C 14.97919 17.085614 14.819413 17.202549 14.625 17.21875 L 14.59375 17.3125 C 14.950174 17.361105 15.285929 17.230273 15.59375 16.90625 L 15.6875 16.96875 C 15.541689 17.438582 15.132995 17.613407 14.46875 17.5 C 13.885511 17.386591 13.447869 17.239559 13.15625 17.09375 L 8.4375 17.4375 C 7.8866627 17.340293 7.6388968 17.077478 7.6875 16.65625 C 7.7361033 16.235021 7.8750348 15.920111 8.09375 15.75 C 8.3124647 15.579889 8.726956 15.222136 9.375 14.6875 C 10.023044 14.152863 10.928423 13.439663 12.0625 12.5 C 11.398255 10.393857 10.909671 9.2268157 10.59375 9 C 10.277829 8.773184 10.006914 8.5902581 9.8125 8.46875 C 9.6180873 8.3472413 9.3772688 8.2372549 9.09375 8.15625 C 8.8102307 8.075244 8.1178751 8.4688902 7 9.34375 L 6.96875 9.28125 C 7.1955653 8.8762227 7.6343583 8.5265708 8.25 8.21875 L 8.1875 8.03125 C 7.474652 8.2256633 6.8911305 8.7663418 6.4375 9.625 C 6.2268853 9.8194133 6.0520592 9.8043643 5.90625 9.59375 C 6.2788753 8.5892813 6.8762934 7.7290485 7.71875 7 C 8.0913747 6.740782 8.2812495 6.4629187 8.28125 6.1875 C 8.832088 5.863478 9.7814617 5.6307605 11.09375 5.46875 L 12.8125 1.875 C 12.877305 1.72919 12.97919 1.6712993 13.125 1.6875 z M 9.1875 6.46875 C 8.6984293 6.500646 8.3107192 6.690154 8.03125 7 C 7.6586247 7.413128 7.394658 7.7407825 7.28125 8 L 7.375 8.125 C 7.731424 7.7685753 8.0393856 7.5636518 8.25 7.53125 C 8.6712287 7.5150487 9.1366622 7.1804458 9.6875 6.5 C 9.5011873 6.4797487 9.3505236 6.458118 9.1875 6.46875 z M 9.03125 6.78125 C 8.8044347 7.0080653 8.5705658 7.1388968 8.34375 7.1875 L 8.34375 7.15625 C 8.4733593 6.9132333 8.7072286 6.78125 9.03125 6.78125 z "
     id="path2216" />
</svg>
