<?xml version="1.0" encoding="UTF-8" standalone="no"?>
<svg
   xmlns:dc="http://purl.org/dc/elements/1.1/"
   xmlns:cc="http://web.resource.org/cc/"
   xmlns:rdf="http://www.w3.org/1999/02/22-rdf-syntax-ns#"
   xmlns:svg="http://www.w3.org/2000/svg"
   xmlns="http://www.w3.org/2000/svg"
   xmlns:sodipodi="http://sodipodi.sourceforge.net/DTD/sodipodi-0.dtd"
   xmlns:inkscape="http://www.inkscape.org/namespaces/inkscape"
   width="18.743757"
   height="15.602624"
   id="svg2241"
   sodipodi:version="0.32"
   inkscape:version="0.45"
   sodipodi:docname="E148B.svg"
   inkscape:output_extension="org.inkscape.output.svg.inkscape"
   sodipodi:docbase="C:\Program Files\JSesh\fontsST"
   sodipodi:modified="true"
   version="1.0">
  <metadata
     id="metadata2248">
    <rdf:RDF>
      <cc:Work
         rdf:about="">
        <dc:format>image/svg+xml</dc:format>
        <dc:type
           rdf:resource="http://purl.org/dc/dcmitype/StillImage" />
      </cc:Work>
    </rdf:RDF>
  </metadata>
  <defs
     id="defs2246" />
  <sodipodi:namedview
     inkscape:window-height="480"
     inkscape:window-width="640"
     inkscape:pageshadow="2"
     inkscape:pageopacity="0.0"
     guidetolerance="10.0"
     gridtolerance="10.0"
     objecttolerance="10.0"
     borderopacity="1.0"
     bordercolor="#666666"
     pagecolor="#ffffff"
     id="base" />
  <path
     style="fill:#000000;stroke:none"
     d="M 0.26449696,-1.6653345e-016 C 0.12971877,0.05520683 0.03464536,0.18247115 0,0.35405356 L 0.92949466,1.1036007 C 0.88166556,1.3484778 0.64592556,1.7464478 0.24221976,2.2451102 C 0.73091546,2.6621564 1.1577987,2.9774652 1.52129,3.2282267 C 1.8847808,3.4789885 2.3751935,3.7873839 2.9769698,4.1226215 C 3.4698953,4.3972202 3.89178,4.5968914 4.2995666,4.7521019 C 3.9185069,5.3440235 3.7136161,6.023271 3.6802935,6.7994651 L 4.6699742,6.6561747 C 4.7395797,6.4795301 4.9615912,6.2048272 5.3755776,5.8593458 C 5.7895647,5.5138636 6.1104565,5.3658025 6.2895526,5.4112581 C 6.4686494,5.4567136 6.6011347,5.6700257 6.7018177,6.0778128 C 6.8025009,6.4856013 7.2434046,7.0336578 8.0439948,7.7148852 C 8.8445855,8.3961114 9.3715928,8.8497792 9.6242188,9.0333092 C 9.8768468,9.2168393 10.252884,9.5729172 10.757607,10.100671 C 11.262332,10.628423 11.604251,10.963814 11.762808,11.155014 C 11.727847,11.160076 11.662711,11.196965 11.586199,11.243737 C 11.308521,11.462404 11.228849,11.775079 11.30952,12.167919 C 11.343108,12.317724 11.508309,12.352388 11.831227,12.281838 L 12.41885,12.19676 C 12.318807,12.348266 12.584022,12.539688 12.675643,12.443763 C 12.709949,12.588261 12.665437,12.790525 12.539751,13.031803 C 12.537479,13.59132 12.705593,13.914803 13.0322,14.034083 C 13.358808,14.153361 13.543857,14.081718 13.597434,13.794367 C 13.651012,13.507016 13.83715,13.063595 14.134132,12.485203 C 14.356918,12.298278 14.312137,12.1249 14.027081,11.963913 L 15.913661,11.690766 C 16.126637,11.600442 16.265678,11.384889 16.292495,11.035975 C 16.319311,10.687061 16.375282,10.305507 16.506901,9.8997785 C 16.63852,9.4940502 16.805808,9.1764705 16.973623,8.9796572 C 17.141437,8.782845 17.270354,8.633288 17.348396,8.5149099 C 17.680266,9.6566228 17.723243,11.249469 17.47233,13.296493 L 17.406831,13.716463 C 17.299206,14.041383 17.195225,14.404262 17.126092,14.830688 C 17.083326,15.110524 17.220797,15.250804 17.568868,15.271795 C 17.552625,15.488303 17.674474,15.599722 17.900949,15.602624 C 18.114084,15.595562 18.217223,15.498705 18.23178,15.270542 C 18.566509,15.281566 18.747543,15.153754 18.743697,14.880666 C 18.719447,14.384478 18.660376,13.869009 18.586138,13.356263 C 18.674962,11.011469 18.373336,8.8460095 17.650273,6.8924108 C 17.461503,6.5747104 17.263285,6.2867076 17.082953,6.0272747 C 16.870719,5.6296888 16.239965,5.2560259 15.175959,4.850889 C 14.111953,4.4457528 13.186996,4.3096547 12.439652,4.4892435 C 11.69231,4.6688331 11.151197,4.8194881 10.800911,4.9475387 C 10.450624,5.0755895 10.158717,5.139363 9.9438948,5.1347727 C 9.7290728,5.1301826 9.4887608,4.940264 9.1649776,4.5528795 C 8.841194,4.1654957 8.442558,3.7481592 7.9737949,3.3044313 C 7.9103086,3.1946467 8.034222,2.8366631 8.382722,2.2032223 C 8.7312217,1.5697822 8.9137552,1.1836322 8.941809,1.0486966 C 9.1078588,0.79860038 8.9929603,0.5708453 8.5604714,0.37766405 C 8.1279826,0.18448263 7.8260806,0.17922469 7.6765895,0.37933296 C 7.6713705,0.26111284 7.5774266,0.20652075 7.3933466,0.1677354 C 7.2092669,0.12895069 7.0842193,0.15666747 7.031172,0.28332438 C 7.0176742,0.19009713 6.8879399,0.14435066 6.6331749,0.15149311 C 6.3784099,0.15863486 6.2469051,0.26188301 6.2006068,0.43515315 L 5.9093548,3.0033892 C 5.1680744,3.3070252 4.8264433,3.6464604 4.8240827,4.0130674 C 3.4894231,2.7944947 1.9793109,1.4753317 0.26449696,-1.6653345e-016 z M 6.7971853,0.41192954 C 6.9196236,0.4358441 6.8450548,1.1093345 6.584448,2.4320086 L 6.6772305,2.4185751 C 6.9329329,1.1442015 7.107185,0.51119584 7.1862269,0.48190565 C 7.2652694,0.45261474 7.3499557,0.45591471 7.4116752,0.51241596 C 7.4733948,0.5689165 7.2378949,1.3320693 6.7045147,2.8251107 L 6.3069348,2.9142499 C 6.4559128,1.5601467 6.5478134,0.80405586 6.5766321,0.63331723 C 6.6054509,0.46257781 6.6747465,0.388015 6.7971853,0.41192954 z M 1.2261709,1.4079808 C 2.5304833,2.5371744 3.6345095,3.5026614 4.5905132,4.362643 C 4.5711336,4.3857365 4.5563792,4.4100346 4.5376139,4.4334537 C 3.22319,3.8662834 1.9648161,3.1223358 0.79891506,2.1645093 C 1.0347278,1.8210291 1.1781851,1.5695971 1.2261709,1.4079808 z M 7.8979772,0.5998862 C 7.9245845,0.57978794 7.9733864,0.57707066 8.0216872,0.58197489 C 8.2231681,0.57659916 8.3990869,0.6568472 8.5259005,0.79315526 C 8.5976647,0.87794582 8.5878013,0.94573603 8.5263178,1.0141257 L 7.4695816,3.093251 C 7.4065676,3.2332482 7.4085247,3.3542438 7.4569826,3.4424094 C 8.0059468,4.029194 8.4841418,4.5503427 8.8829865,5.0041933 C 9.2818298,5.4580442 9.5762068,5.6831552 9.8035258,5.6918854 C 10.030844,5.7006141 10.379026,5.6209129 10.841628,5.4468568 C 11.30423,5.2728011 11.86546,5.1251823 12.511297,4.9840839 C 13.157135,4.8429868 14.037379,4.9420856 15.181271,5.3237574 C 16.325162,5.7054308 16.963754,6.4303535 17.098889,7.44588 C 17.17144,7.9469742 17.034613,8.3516796 16.681424,8.7062046 C 16.328234,9.0607306 16.015004,9.9760941 15.74965,11.430329 L 13.770288,11.716911 C 13.735096,11.685272 13.694574,11.642241 13.659594,11.606633 L 13.915136,11.190725 C 14.236968,11.146675 14.50813,11.096663 15.152236,11.011612 L 15.191285,10.627049 C 14.589545,9.4292288 14.312908,8.6248951 14.333741,8.1935647 C 14.354575,7.7622339 14.469901,7.3702539 14.66738,7.0085288 L 14.32676,6.8368144 C 14.089575,7.3351614 13.978279,7.7265581 13.962193,8.0263282 C 13.803795,7.9183888 13.577564,7.9236846 13.334687,8.0540296 C 13.091811,8.1843758 12.652163,8.3340708 12.009699,8.498474 L 11.75655,7.8404577 L 11.372403,8.0223795 C 11.565175,8.6964289 11.784568,9.3076796 12.052086,9.8816744 C 12.150031,10.091827 12.310317,10.352732 12.473307,10.610084 L 12.186838,11.03047 C 12.164726,11.003876 12.169821,11.000492 12.146955,10.973093 C 11.628732,10.352113 10.840343,9.4713037 9.8040548,8.3126036 C 9.6706498,8.2129423 9.4410938,7.8159782 9.1301014,7.1471479 L 8.8208262,7.1919261 C 9.0666462,7.7393185 9.2160708,8.0696251 9.2778688,8.167756 C 9.2028886,8.1429192 8.85454,7.8295161 8.2332032,7.2770048 C 7.6118666,6.7244935 7.2297187,6.21873 7.0989805,5.7677031 C 6.9682415,5.3166764 6.7912597,5.0805164 6.5804993,5.0217992 C 6.3697387,4.963082 6.1644551,4.9360551 5.9704873,4.9522403 C 5.7765203,4.9684262 5.3528237,5.3231301 4.69965,5.9887855 L 4.6951722,5.9578579 C 4.8212003,5.6778639 5.0641724,5.4120237 5.4317031,5.1565512 L 5.3828643,5.0373189 C 4.9236376,5.2346816 4.5866951,5.6354061 4.3863142,6.2236066 C 4.2516933,6.3620734 4.1224921,6.361102 4.0107062,6.246413 C 4.154136,5.6432581 4.443558,5.0971293 4.8428285,4.5787184 L 5.1162811,4.2865201 C 5.1062156,4.2772814 5.0909637,4.2693241 5.0808758,4.2600703 C 5.1763271,4.1310678 5.2342897,4.0111415 5.2171848,3.8930006 C 5.5962112,3.5525809 6.2010691,3.2732479 6.9967131,3.0985634 L 7.8495556,0.70162444 C 7.8669569,0.65746372 7.8713698,0.61998446 7.8979772,0.5998862 z M 5.8581244,3.9580818 C 5.5401076,4.0342414 5.3245584,4.1818958 5.1651199,4.4057523 C 4.9525355,4.7042276 4.8298871,4.9508155 4.7952414,5.1223976 L 4.8351246,5.1797748 C 5.0461005,4.9112766 5.210483,4.750635 5.3336082,4.6971162 C 5.6249413,4.6549358 5.9128413,4.4022689 6.1983271,3.9088257 C 6.0747017,3.9178015 5.96413,3.9326952 5.8581244,3.9580818 z M 5.765759,4.1924857 C 5.6578189,4.350885 5.5476432,4.4528766 5.3995239,4.4981176 L 5.3905682,4.4362625 C 5.4285887,4.2879865 5.5443455,4.2245428 5.765759,4.1924857 z M 17.412225,7.2110589 C 18.093422,9.0398459 18.367439,11.068345 18.26343,13.308258 C 18.44871,14.423604 18.477679,14.974553 18.346116,14.969806 C 18.214556,14.965059 18.155652,14.504484 18.175541,13.573589 L 18.047354,13.560573 C 18.109352,14.646178 18.078735,15.190193 17.93552,15.187133 C 17.757346,15.189136 17.762309,14.629156 17.950093,13.543079 L 17.826383,13.560991 C 17.74654,14.488667 17.623879,14.965917 17.493162,14.966997 C 17.362444,14.968076 17.472903,14.406553 17.790561,13.313571 C 18.037943,11.159978 17.933839,9.3883396 17.493243,7.9887247 C 17.464561,7.7906184 17.447813,7.5390396 17.412225,7.2110589 z M 13.569508,8.3673654 C 13.689708,8.3330609 13.804798,8.3662534 13.901173,8.4772249 C 13.858407,8.7570616 14.150293,9.3948882 14.753405,10.43784 C 14.798803,10.669219 14.608799,10.829905 14.215038,10.863121 C 14.125329,10.870689 14.054431,10.890561 13.967618,10.898944 C 13.955182,10.609915 13.686126,10.414444 13.419044,10.599459 C 13.37795,10.21404 13.11428,10.179458 12.7445,10.230721 L 12.733325,10.225103 C 12.521716,9.8544141 12.295856,9.4087037 12.12081,8.8297211 C 12.836568,8.6785006 13.283148,8.5355831 13.450276,8.4162042 C 13.492059,8.3863592 13.529441,8.3788006 13.569508,8.3673654 z M 12.848915,10.587277 C 12.967295,10.37731 13.238479,10.541356 13.096752,10.772425 L 12.418016,11.754819 C 12.314614,11.893282 12.04186,11.807406 12.174656,11.600599 L 12.848915,10.587277 z M 13.371039,10.922167 C 13.580327,10.74157 13.727569,10.905914 13.618877,11.107316 L 12.913691,12.125115 C 12.819219,12.239318 12.583299,12.150025 12.665853,11.939967 L 13.371039,10.922167 z M 11.842992,11.490739 C 11.641239,11.63092 11.795151,11.760812 11.825915,11.808971 C 11.857396,11.871784 11.809527,11.967281 11.830811,12.060868 L 11.7071,12.07878 C 11.684609,11.92344 11.669483,11.810359 11.686517,11.715292 C 11.706127,11.605856 11.771005,11.520302 11.842992,11.490739 z M 13.452475,11.920804 C 13.509358,11.99234 13.547567,12.045615 13.607529,12.119385 C 13.875714,12.163839 13.812248,12.509408 13.437067,13.122917 L 13.343867,12.91538 L 13.273056,12.86248 C 13.221853,13.084051 13.260532,13.215291 13.362196,13.26006 L 13.287324,13.397204 C 13.187191,13.280827 13.15475,13.164244 13.176213,13.065957 L 13.105403,13.013057 C 13.012491,13.193075 13.03706,13.416516 13.164031,13.636085 L 13.137581,13.671491 C 12.897452,13.492101 12.880121,13.236489 13.061041,12.924752 C 13.201515,12.71451 13.221148,12.515533 13.166006,12.341191 L 13.452475,11.920804 z "
     id="path2243"
     sodipodi:nodetypes="ccccsscccsssssssssccccsscccssscccscscscccssssscscscssscccccccssccscccccccsscccsssssssccccccscccscccsccscccsssssccccccccscccccscccccccccccsccsccsccccccscccccscccccccccccccccsccccccccccccscc" />
</svg>
