<?xml version="1.0" encoding ="US-ASCII" standalone="yes"?>
<svg width="17.199509" height="17.972717">
<path style="fill:#000000; stroke:none" d=" M 0.512591 4.333723  Q 0.419393 4.077427 0.862085 4.054128  Q 1.09508 4.217225 1.036831 4.357022  Q 0.978583 4.49682 0.885384 4.48517  Q 0.792186 4.47352 0.803836 4.380322  Q 0.815485 4.287124 0.698988 4.322073  Q 0.58249 4.357022 0.512591 4.333723  Z  M 4.357022 0.186397  Q 5.475402 1.048481 4.892913 3.122144  Q 4.869613 3.93763 5.463753 5.743348  Q 6.057892 7.549066 8.655796 9.378083  Q 11.253699 11.2071 11.673092 11.673092  Q 14.02635 13.51376 14.212747 16.426207  Q 16.216511 14.632139 16.379608 12.453629  Q 16.542706 10.275117 15.354426 9.051888  Q 14.166147 7.82866 12.139084 7.036475  Q 11.067303 6.220989 12.418678 6.384086  Q 16.076714 7.85196 16.8456 10.030471  Q 17.614487 12.208982 16.717453 14.317595  Q 15.820418 16.426207 14.166147 17.730984  L 7.758762 17.730984  Q 6.570483 17.894081 6.17439 17.474689  Q 6.127791 17.055296 6.547184 16.589304  Q 7.409268 16.449507 8.714045 16.938799  Q 9.55283 16.915499 9.913974 16.752401  Q 10.275117 16.589304 9.51788 15.901967  Q 8.760644 15.214629 8.853842 13.863253  Q 9.180037 13.164266 7.595665 12.663324  Q 6.011293 12.162383 5.661799 11.74299  Q 5.6385 12.744873 4.240524 16.472807  Q 4.380322 17.614487 3.634735 17.544588  Q 3.634735 18.033878 2.586254 17.96398  Q 1.840667 17.96398 1.817368 17.532938  Q 1.794068 17.101894 3.122144 16.729101  Q 4.147326 13.886553 4.380322 11.137201  Q 3.821132 8.457749 3.459988 6.74523  Q 3.098845 5.032711 2.481406 5.090959  Q 1.863967 5.149208 1.561072 5.149208  Q 1.281477 5.149208 0.885384 5.149208  Q 0.279595 4.892913 0.198046 4.659917  Q 0.116498 4.426921 0 3.984229  Q 0.139798 3.844431 0.838785 3.576486  Q 1.537773 3.308541 1.794068 3.192043  Q 1.863967 2.679452 2.702752 2.446456  Q 2.749351 1.258178 3.122144 0  Q 3.91433 0.629089 3.844431 1.840667  Q 4.054128 0.978583 4.357022 0.186397  Z  M 2.376558 3.35514  Q 2.376558 3.052246 2.539655 3.005646  Q 2.702752 2.959047 3.157094 3.075545  Q 3.611436 3.192043 3.133794 3.39009  Q 2.656153 3.588136 2.376558 3.35514  Z  M 4.240524 2.81925  Q 2.81925 2.702752 2.493056 2.877499  Q 2.166861 3.052246 2.190161 3.494938  Q 0.931983 3.867731 0.442692 4.170626  Q 0.512591 4.403622 0.617439 4.578369  Q 0.722287 4.753115 1.153329 4.788064  Q 1.584372 4.823014 2.353258 4.659917  Q 3.588136 4.310423 4.100727 6.628732  Q 4.613318 8.947041 4.939512 10.042121  Q 5.265706 11.137201 9.063539 12.721573  Q 9.50623 12.045885 10.053771 12.302181  Q 10.601311 12.558476 10.974105 13.071067  Q 11.346898 13.583658 11.370197 14.538941  Q 10.624611 13.164266 9.692627 12.954569  Q 8.99364 15.284528 11.253699 16.519405  Q 12.139084 17.451389 12.954569 16.705803  Q 14.212747 15.307827 10.484813 11.463396  Q 7.013175 9.436332 5.801597 7.991757  Q 4.590018 6.547184 4.333723 3.005646  Q 4.729816 2.656153 4.47352 1.09508  Q 4.310423 2.003764 3.821132 2.516355  L 4.240524 2.81925  Z  M 3.564837 2.469756  Q 3.564837 1.537773 3.285241 0.862085  Q 3.261942 1.607671 3.075545 2.423157  Q 3.261942 2.399857 3.564837 2.469756  Z "/></svg>
