<?xml version="1.0" encoding="UTF-8" standalone="no"?>
<svg
   xmlns:dc="http://purl.org/dc/elements/1.1/"
   xmlns:cc="http://web.resource.org/cc/"
   xmlns:rdf="http://www.w3.org/1999/02/22-rdf-syntax-ns#"
   xmlns:svg="http://www.w3.org/2000/svg"
   xmlns="http://www.w3.org/2000/svg"
   xmlns:sodipodi="http://inkscape.sourceforge.net/DTD/sodipodi-0.dtd"
   xmlns:inkscape="http://www.inkscape.org/namespaces/inkscape"
   width="19.24375"
   height="16.32"
   id="svg2"
   sodipodi:version="0.32"
   inkscape:version="0.43"
   sodipodi:docname="E14C.svg"
   sodipodi:docbase="C:\Program Files\JSesh\fonts">
  <metadata
     id="metadata9">
    <rdf:RDF>
      <cc:Work
         rdf:about="">
        <dc:format>image/svg+xml</dc:format>
        <dc:type
           rdf:resource="http://purl.org/dc/dcmitype/StillImage" />
        <dc:title>E14C</dc:title>
        <dc:date>4/01/2006</dc:date>
        <dc:creator>
          <cc:Agent>
            <dc:title>Serge Thomas</dc:title>
          </cc:Agent>
        </dc:creator>
        <dc:publisher>
          <cc:Agent>
            <dc:title>Serge Rosmorduc</dc:title>
          </cc:Agent>
        </dc:publisher>
        <dc:identifier>US22</dc:identifier>
        <dc:description>inspiré par IFAO page 129</dc:description>
      </cc:Work>
    </rdf:RDF>
  </metadata>
  <defs
     id="defs7" />
  <sodipodi:namedview
     inkscape:window-height="708"
     inkscape:window-width="1024"
     inkscape:pageshadow="2"
     inkscape:pageopacity="0.0"
     borderopacity="1.0"
     bordercolor="#666666"
     pagecolor="#ffffff"
     id="base"
     inkscape:zoom="32.952642"
     inkscape:cx="9.6491391"
     inkscape:cy="8.1415963"
     inkscape:window-x="-4"
     inkscape:window-y="-4"
     inkscape:current-layer="svg2" />
  <path
     style="fill:#000000; stroke:none"
     d="M 3.348323,0.561302 C 3.449785,0.693203 3.8635524,0.74654569 3.8229664,2.5373417 C 3.7519454,2.5576337 3.5824743,2.554702 3.5114533,2.574995 C 3.548227,2.0350234 3.5193737,1.6700662 3.348323,0.561302 z M 4.109284,0.683055 C 4.271624,0.957001 5.068096,1.824499 4.413667,2.600679 C 4.342645,2.549949 4.271624,2.6152356 4.200602,2.5645056 C 4.170162,1.9760286 4.139724,1.271533 4.109284,0.683055 z M 3.882102,1.764321 L 3.882102,1.764321 C 3.910846,2.062156 3.940161,2.363794 3.976725,2.713766 C 3.964026,2.713276 3.951327,2.712789 3.938628,2.712299 C 3.938628,2.712299 3.938625,2.712299 3.938625,2.712299 L 3.938625,2.712299 C 3.938625,2.712299 3.938625,2.712299 3.938625,2.712299 C 3.940136,2.738031 3.8355041,2.5926119 3.6834551,2.5636519 C 3.6834551,2.5636519 3.9082597,2.739318 4.0589467,2.745114 C 4.0589467,2.745114 3.904987,2.139333 3.882102,1.764321 z M 2.617799,3.385025 C 2.40473,3.570469 2.2676571,3.6821861 2.435167,3.718819 C 2.710865,3.7791117 3.49305,3.767505 3.393978,3.604232 C 3.295338,3.441662 2.617799,3.377984 2.617799,3.385025 z M 3.05886,3.1382 C 3.6381808,3.1382 4.54264,2.99135 5.067557,3.907895 C 5.83429,4.836808 6.370366,5.942292 7.143147,6.857126 C 7.741243,7.20053 9.1385299,8.3948669 13.064807,7.501651 C 13.604063,7.366641 14.21766,7.022906 14.785636,7.022906 C 15.076233,7.022906 15.350364,7.1174473 15.605544,7.366852 C 16.641718,8.3795768 15.683467,8.7582986 16.268053,10.934769 C 16.418365,11.494395 15.899613,11.047566 15.569673,10.930498 C 14.504916,10.660388 14.188012,10.594778 13.40245,9.459782 C 13.286606,9.142602 13.15189,8.9771597 13.024652,9.036292 C 10.106126,10.392646 8.353717,9.598475 8.072978,9.598475 C 7.5818,9.598475 7.2268116,10.074067 7.231819,10.559823 C 7.048208,10.52037 7.0628238,9.8453661 6.821651,9.62903 C 6.6186677,9.4469505 6.1562646,10.208328 6.05931,10.056595 C 5.9281287,9.8512976 6.5336153,9.1933416 6.1158783,8.8597946 C 5.3018462,7.2940918 5.0825347,7.0527829 4.3021715,5.7353911 C 3.9650369,4.7090829 3.963943,4.295547 3.576058,4.295547 C 3.518281,4.295547 2.946405,4.405197 2.717374,4.405197 C 2.099931,4.405197 1.431608,4.303116 0.708705,4.194832 C 0.645899,4.137534 0.63294343,3.699352 1.1820417,3.7216433 C 2.3859619,3.7705178 2.049705,3.1382 3.05886,3.1382 z M 3.217727,0 C 2.916298,0 3.2405838,1.7056077 3.1587608,2.6689367 C 3.2448238,2.6853297 3.223729,2.684803 3.09231,2.67975 C 1.81274,2.790467 2.219089,3.026459 1.550352,3.360069 C 1.386877,3.380504 0.46664676,3.2862316 0.097803273,3.4731166 C 0.021476982,3.5117894 0.033036128,4.3392336 0.224321,4.414563 C 0.95478935,4.702227 1.652989,4.779336 2.027164,4.779336 C 2.190835,4.875019 2.386012,4.855276 2.625257,4.855276 C 2.850093,4.855276 3.113853,4.824895 3.42697,4.786444 C 3.427178,4.786416 3.427394,4.786405 3.427606,4.786405 C 3.519671,4.786405 4.2232962,6.7630593 5.711538,9.278844 C 5.711538,9.278844 5.032577,11.606545 4.930529,11.912687 C 4.828482,12.218832 3.6890453,15.219409 3.6890453,15.219409 C 2.7701612,15.986743 2.8218431,15.7502 2.77349,16.221403 C 2.851362,16.273317 3.136533,16.297901 3.430021,16.297901 C 3.777551,16.297901 4.1643981,16.274012 4.17722,16.19906 C 4.238673,15.83983 4.7386578,15.472408 4.7846008,14.83194 C 4.823705,14.286808 5.1699286,13.984257 5.1886261,13.744344 C 5.2053421,13.529865 6.657341,10.220951 6.657445,10.220712 L 6.657445,10.220712 C 6.657438,10.220913 6.636374,13.063802 6.578309,14.706895 C 6.568623,14.980968 6.1235759,15.611063 6.1235759,15.611063 C 6.1235759,15.611063 5.4832183,16.349855 6.1637553,16.356615 C 6.5440463,16.360569 6.830291,16.302058 6.830291,16.302058 C 6.830291,16.302058 7.2911329,15.265748 7.2777274,14.979541 C 7.2386201,14.144599 7.4797739,13.473261 7.4804466,13.484025 C 7.4804466,13.484025 7.504497,11.73591 7.83788,10.246272 L 7.83788,10.246272 C 7.84516,10.351626 8.468525,10.513695 9.393973,10.513695 C 10.402002,10.513695 11.768427,10.321413 13.087465,9.654119 L 13.087465,9.654119 C 13.087448,9.654167 12.843238,10.312387 13.939272,12.26983 C 13.939272,12.26983 12.888904,15.367701 12.888904,15.367701 C 11.922804,15.701331 12.080476,16.116274 11.978426,16.252333 C 12.108771,16.295782 13.089718,16.252951 13.218132,16.252951 C 13.263811,16.252951 13.305678,16.25643 13.341029,16.265852 C 13.547523,15.751038 13.823721,13.903583 14.967255,12.49684 C 14.618163,11.625196 14.656383,11.379671 14.979587,11.379671 C 15.351691,11.379671 16.800735,12.000119 16.800735,12.442327 C 16.800735,12.884534 16.018368,15.163607 16.018368,15.163607 C 15.471955,15.592187 15.249324,15.645002 15.08489,16.272358 C 15.08489,16.272358 15.663921,16.276737 15.992747,16.276737 C 16.185503,16.152016 16.211535,16.387751 16.463736,15.728355 C 16.463736,15.728355 16.949474,14.224328 17.662811,12.002538 C 17.662811,12.002538 18.059326,12.000119 17.344992,11.591928 C 16.630659,11.183738 16.613762,9.815898 16.613762,9.815898 C 16.678413,8.821037 16.933096,8.313678 16.392548,7.30592 C 20.042616,7.061132 19.147543,4.346529 19.147543,4.346529 C 18.738752,3.35415 18.074617,2.97175 17.444323,2.97175 C 16.251879,2.97175 15.180554,4.340451 16.188599,5.536794 C 16.459745,5.775038 16.722059,5.864389 16.955097,5.864389 C 17.654381,5.864389 18.09001,5.059837 17.709585,5.059837 C 17.701786,5.059837 17.693644,5.060174 17.685154,5.060866 C 17.673052,5.056831 17.660795,5.054968 17.648403,5.054968 C 17.499058,5.054968 17.330374,5.325596 17.181025,5.325596 C 17.168636,5.325596 17.156378,5.323733 17.144276,5.319698 C 17.144276,5.319698 17.12693,5.321328 17.097719,5.321328 C 16.968731,5.321328 16.608328,5.289525 16.487614,4.945078 C 16.197689,4.117815 16.774603,3.541289 17.420431,3.541289 C 18.015089,3.541289 18.668177,4.030087 18.756763,5.262025 C 18.756763,5.262025 18.767265,6.684549 16.278072,6.684549 C 16.092379,6.684549 15.892771,6.676632 15.678211,6.659617 C 15.332959,6.540986 14.97788,6.413019 14.662981,6.496054 C 12.754799,6.9992175 11.287282,7.170907 10.66105,7.170907 C 8.988156,7.170907 7.772664,6.654334 7.266354,6.040571 C 6.812831,5.490795 5.740537,3.432053 4.827124,2.781799 C 5.354702,1.234278 4.6956,1.262261 4.292837,0.25875 C 4.189203,0.07831 4.112662,0.010019 4.054249,0.010019 C 3.9009,0.010019 3.872479,0.480645 3.806792,0.62844 C 3.824453,0.840393 3.854306,1.308883 3.882102,1.764321 L 3.882102,1.764321 C 3.848451,1.415641 3.881214,1.1268647 3.838405,0.71714669 C 3.725019,0.54706769 3.546003,0.322297 3.432617,0.152216 C 3.337918,0.047 3.268109,0 3.217727,0 z "
     id="path4"
     sodipodi:nodetypes="ccccccccccsccccccccsssccccsssccsscssccsscscccccsscssscsccssssccscscscccscccccsccsscccccscccscssssscssscscsssccsccccsc" />
</svg>
