<?xml version="1.0" encoding="UTF-8" standalone="no"?>
<svg
   xmlns:dc="http://purl.org/dc/elements/1.1/"
   xmlns:cc="http://web.resource.org/cc/"
   xmlns:rdf="http://www.w3.org/1999/02/22-rdf-syntax-ns#"
   xmlns:svg="http://www.w3.org/2000/svg"
   xmlns="http://www.w3.org/2000/svg"
   xmlns:sodipodi="http://sodipodi.sourceforge.net/DTD/sodipodi-0.dtd"
   xmlns:inkscape="http://www.inkscape.org/namespaces/inkscape"
   width="20.339453"
   height="18.11161"
   id="svg2337"
   sodipodi:version="0.32"
   inkscape:version="0.45"
   sodipodi:docname="E150C.svg"
   inkscape:output_extension="org.inkscape.output.svg.inkscape"
   sodipodi:docbase="C:\Program Files\JSesh\fontsST"
   sodipodi:modified="true"
   version="1.0">
  <metadata
     id="metadata2344">
    <rdf:RDF>
      <cc:Work
         rdf:about="">
        <dc:format>image/svg+xml</dc:format>
        <dc:type
           rdf:resource="http://purl.org/dc/dcmitype/StillImage" />
      </cc:Work>
    </rdf:RDF>
  </metadata>
  <defs
     id="defs2342" />
  <sodipodi:namedview
     inkscape:window-height="480"
     inkscape:window-width="640"
     inkscape:pageshadow="2"
     inkscape:pageopacity="0.0"
     guidetolerance="10.0"
     gridtolerance="10.0"
     objecttolerance="10.0"
     borderopacity="1.0"
     bordercolor="#666666"
     pagecolor="#ffffff"
     id="base" />
  <path
     style="fill:#000000;stroke:none"
     d="M 10.6875,0 L 10.6875,6.21875 C 10.532762,5.9799678 10.330328,5.9651734 10.03125,6.1875 C 9.7148054,6.422735 9.6595485,6.8181617 9.875,7.40625 C 10.119594,7.6549359 10.238147,7.872479 10.28125,8.0625 L 9.6875,7.9375 C 9.323926,7.8329507 9.1163628,7.8846519 9.0625,8.09375 C 8.9413094,8.5250146 8.9677305,8.8119273 9.15625,8.96875 C 9.2835734,9.0746664 9.4931501,9.1619672 9.71875,9.25 C 9.7662888,9.3049093 9.821063,9.3724466 9.90625,9.4375 C 9.9036812,9.5527567 9.9305278,9.6554948 9.96875,9.75 C 9.8810625,10.130058 9.7386078,10.600638 9.5,11.5 C 9.2104878,12.591231 8.9721837,13.311353 8.75,13.625 C 8.5278162,13.938647 8.0728019,14.097442 7.40625,14.15625 C 6.7396988,14.215059 6.2914171,14.059956 6.0625,13.6875 C 5.8335837,13.315044 5.8359976,12.878143 6.03125,12.375 C 6.2265024,11.871858 6.6195274,11.563074 7.21875,11.40625 C 7.8179735,11.249426 8.2085825,11.179543 8.4375,11.21875 L 9.1875,10.375 C 8.4602635,9.9768602 7.7099259,9.7846815 6.9375,9.78125 C 7.2386509,9.4263811 7.5308767,9.0340103 7.84375,8.53125 C 8.2544536,7.8712836 8.5657985,7.3062649 8.78125,6.875 C 8.9967006,6.4437353 9.244152,5.8983189 9.5,5.21875 C 8.8132505,4.9704457 8.3938039,4.7221669 8.21875,4.5 L 8.6875,3.28125 C 8.552843,3.1244262 8.380339,3.0676125 8.21875,3.09375 C 7.280261,5.605002 6.4706706,7.8377411 5.8125,9.84375 C 5.457036,9.6063473 4.8998327,9.7511619 4.125,10.28125 L 1.5,9.03125 C 1.2980145,8.9789755 1.0990885,9.0772644 0.9375,9.3125 C 0.7759116,9.5477346 0.73170569,9.6846561 0.8125,9.75 C 0.664378,9.7238623 0.5740618,9.7974371 0.5,10 C 0.425939,10.202565 0.44130871,10.353976 0.5625,10.40625 C 0.2797202,10.419318 0.105311,10.68947 0.03125,11.21875 C -0.0428117,11.74803 0.06960741,12 0.40625,12 C 0.5409071,12.039205 1.0401278,12.079259 1.875,12.125 C 2.709873,12.17074 3.1514215,12.275564 3.21875,12.40625 C 3.0706272,13.138094 3.0552569,13.781798 3.15625,14.34375 C 3.2572425,14.905701 3.634897,15.676102 4.28125,16.65625 C 4.927603,17.636397 6.0999429,18.095174 7.84375,18.0625 C 9.5875569,18.029828 11.239428,18.041475 12.78125,18.09375 C 14.323072,18.146025 15.497826,18.030975 16.3125,17.75 C 17.127174,17.469025 17.785434,17.096892 18.25,16.59375 C 18.714567,16.090607 18.840451,15.323897 18.625,14.34375 C 19.50027,12.553347 19.968241,10.363728 20.0625,7.75 C 20.197158,7.2011175 20.303354,6.6426326 20.34375,6.09375 C 20.397613,5.7670338 20.203005,5.6249998 19.8125,5.625 C 19.8125,5.3766963 19.711131,5.2136373 19.46875,5.1875 C 19.226368,5.2005686 19.075965,5.3403338 19.0625,5.5625 C 18.658529,5.5625 18.486535,5.7408962 18.5,6.09375 C 18.553862,6.6687698 18.628808,7.2141863 18.75,7.75 C 18.87119,10.023941 18.681413,11.766436 18.15625,12.96875 C 17.860005,12.668171 17.568348,12.438072 17.3125,12.28125 C 16.666147,11.88919 16.449946,11.399166 16.625,10.84375 C 16.800054,10.288333 16.607862,9.9380729 16.0625,9.78125 C 15.570617,9.6398043 14.054793,9.2236593 12.03125,8.65625 C 12.02739,8.6515779 12.003942,8.66075 12,8.65625 C 11.938502,8.5860498 11.881934,8.5372735 11.8125,8.53125 C 11.831808,8.4561734 11.829026,8.3555804 11.8125,8.28125 C 12.023247,7.9959427 12.043367,7.7451246 11.8125,7.53125 C 11.609753,7.3251108 11.462466,7.16835 11.3125,7 L 11.3125,0 L 10.6875,0 z M 8.0625,5 C 8.2106228,5.1306864 8.4888141,5.2727209 8.90625,5.46875 C 8.2751106,7.0813277 7.4127171,8.5227679 6.375,9.8125 C 6.3539614,9.8149267 6.3335712,9.8410385 6.3125,9.84375 C 6.7889443,8.4609641 7.3713889,6.872989 8.0625,5 z M 19.4375,5.6875 C 19.612554,5.6875 19.616873,6.2795042 19.46875,7.46875 L 19.59375,7.46875 C 19.647613,6.4624654 19.758127,5.96875 19.90625,5.96875 C 20.054373,5.96875 19.983744,6.5658672 19.6875,7.78125 C 19.620171,10.264292 19.134416,12.495387 18.21875,14.46875 C 18.232215,14.102829 18.254319,13.815917 18.28125,13.59375 C 19.008397,12.260749 19.273122,10.311454 19.125,7.75 C 18.855685,6.5084798 18.813896,5.8750002 18.96875,5.875 C 19.123607,5.875 19.223069,6.4101907 19.25,7.46875 L 19.375,7.46875 C 19.240344,6.2795043 19.262446,5.6875001 19.4375,5.6875 z M 10.28125,6.53125 L 10.3125,6.5625 C 10.258638,6.8369417 10.324946,7.0437448 10.5,7.1875 L 10.53125,7.15625 C 10.463922,7.0517007 10.446138,6.9380738 10.5,6.78125 L 10.65625,6.875 C 10.572678,6.9445198 10.59113,7.098731 10.6875,7.28125 L 10.6875,7.78125 C 10.647518,7.5869842 10.557487,7.4380181 10.4375,7.34375 C 10.100858,7.0823778 10.065799,6.8056916 10.28125,6.53125 z M 11.3125,7.53125 C 11.395672,7.646367 11.451891,7.7696169 11.4375,7.84375 L 11.3125,7.90625 L 11.3125,7.53125 z M 9.5,8.21875 L 9.65625,8.25 C 9.6118132,8.4225057 9.6437222,8.5430432 9.75,8.65625 L 9.59375,8.75 C 9.5902622,8.7883481 9.5953236,8.8107807 9.59375,8.84375 C 9.4692922,8.7552858 9.4316361,8.5504923 9.5,8.21875 z M 11.28125,8.25 C 11.442463,8.1807979 11.527321,8.4664355 11.40625,8.53125 L 10.15625,9.125 C 9.9608819,9.2229701 9.8317046,8.9207142 10.03125,8.84375 L 11.28125,8.25 z M 9.84375,8.3125 L 9.9375,8.3125 C 9.9088857,8.4069207 9.9243973,8.4916844 9.96875,8.5625 L 9.875,8.625 C 9.8245038,8.5269853 9.8168187,8.4235838 9.84375,8.3125 z M 11.5625,8.8125 C 11.704095,8.7463364 11.864803,9.0359047 11.71875,9.09375 L 10.46875,9.6875 C 10.298645,9.7797526 10.090374,9.4939355 10.3125,9.40625 L 11.5625,8.8125 z M 12.1875,9.09375 C 13.949329,9.5893722 15.355362,9.9817912 15.71875,10.09375 C 16.14292,10.224437 16.268804,10.571005 16.09375,11.09375 C 15.918696,11.616496 16.190154,12.080382 16.9375,12.53125 C 17.684845,12.982119 17.991872,13.57043 17.84375,14.25 C 18.382378,15.569932 18.037879,16.447426 16.8125,16.9375 C 15.587123,17.427573 14.335008,17.647446 13.0625,17.5625 C 11.789993,17.477555 10.262101,17.465909 8.4375,17.53125 C 6.6128996,17.596594 5.3872067,17.169918 4.78125,16.28125 C 4.1752941,15.392582 3.8307943,14.745185 3.75,14.28125 C 3.6692066,13.817313 3.6778437,13.027309 3.8125,11.96875 C 3.6374466,11.864201 3.487554,11.807388 3.3125,11.78125 L 0.625,11.59375 C 0.5307401,11.606818 0.44664711,11.555118 0.40625,11.4375 C 0.3523872,11.241471 0.39659293,11.039779 0.53125,10.84375 C 0.5716471,10.752269 0.64227508,10.723862 0.75,10.75 L 3.59375,11.34375 C 4.2535688,10.716455 4.885407,10.294892 5.4375,10.125 C 5.5856228,10.242618 5.8196081,10.265911 6.15625,10.1875 C 6.9507258,10.08295 7.6968864,10.152834 8.4375,10.375 C 8.4778971,10.557962 8.4029514,10.679544 8.1875,10.71875 C 7.5007499,10.574994 6.9400488,10.636921 6.46875,10.9375 L 6.53125,11.09375 C 6.9890832,10.884652 7.417676,10.791475 7.78125,10.84375 L 7.78125,10.875 C 6.7309258,11.110236 6.0880369,11.386921 5.90625,11.6875 C 5.7244633,11.988079 5.5856229,12.291749 5.4375,12.625 C 5.2893772,12.958251 5.3821077,13.419868 5.71875,13.96875 C 6.055392,14.517632 6.582939,14.759378 7.34375,14.6875 C 8.1045619,14.615623 8.5884111,14.477278 8.75,14.28125 C 8.6692057,14.607966 8.4481769,14.99828 8.125,15.46875 L 8.65625,15.28125 C 8.9524948,14.771573 9.1778426,14.399441 9.3125,14.125 C 9.8092054,12.250325 10.111902,11.016968 10.34375,10.0625 C 10.345426,10.055599 10.342081,10.038121 10.34375,10.03125 L 10.9375,9.78125 L 10.03125,14 L 10.4375,14.03125 L 10.625,13.46875 C 11.783048,13.246582 12.52921,13.188349 12.90625,13.3125 C 13.283289,13.436653 13.742623,13.678398 14.28125,14.03125 C 14.388976,14.344898 14.525911,14.660216 14.6875,15 L 15.03125,14.8125 C 14.425294,13.479499 14.443078,12.485535 15.0625,11.8125 C 15.681922,11.139465 15.748231,10.701142 15.25,10.53125 C 14.785658,10.372913 13.532177,9.9646882 11.78125,9.375 L 12.1875,9.1875 C 12.199278,9.1611712 12.185286,9.1258485 12.1875,9.09375 z M 1.25,9.46875 C 1.3089124,9.4540477 1.3744901,9.4673284 1.46875,9.5 C 1.6572691,9.5653436 2.4611024,9.9454304 3.875,10.625 L 3.5,10.90625 C 1.7359942,10.540329 0.83269822,10.310231 0.8125,10.21875 C 0.7923011,10.12727 0.82545581,10.058809 0.90625,10 C 0.9870443,9.9411911 1.7380337,10.159641 3.125,10.65625 L 3.1875,10.5625 C 1.7466711,10.039754 1.0778696,9.7179014 1.125,9.59375 C 1.1485648,9.5316737 1.1910876,9.4834523 1.25,9.46875 z M 11.4375,9.65625 C 13.363094,10.309682 14.500375,10.689769 14.84375,10.78125 C 15.187126,10.87273 15.131867,11.131235 14.6875,11.5625 C 14.243131,11.993765 14.039888,12.567588 14.09375,13.3125 C 13.703246,13.116471 13.367893,12.956255 13.03125,12.8125 C 12.694608,12.668744 11.912879,12.715333 10.6875,12.9375 L 11.4375,9.65625 z M 5.96875,10.375 C 5.5513138,10.401138 5.1669269,10.631235 4.84375,11.0625 C 5.5035689,11.088638 5.9542644,10.985235 6.15625,10.75 C 6.2774413,10.65852 6.5157455,10.583524 6.90625,10.53125 L 6.875,10.46875 C 6.6864809,10.37727 6.3861868,10.348863 5.96875,10.375 z M 5.75,10.59375 C 5.7906183,10.595384 5.8312367,10.611932 5.875,10.625 L 5.90625,10.65625 C 5.7715937,10.760799 5.603917,10.817612 5.375,10.84375 C 5.4625271,10.739201 5.5374731,10.664206 5.625,10.625 C 5.6687635,10.605397 5.7093817,10.592116 5.75,10.59375 z "
     id="path2339"
     sodipodi:nodetypes="ccscccsssscsssssscccsscccccccssscscscssssssccccsccccsssssscscccccccccccsccccscccccccccccscccccccccscccccccccccccccccssscssssscccssccccccccccssssccccscccccscccssccccsccssccsccsscsccccccccccccsc" />
</svg>
