<?xml version="1.0" encoding="UTF-8" standalone="no"?>
<svg
   xmlns:dc="http://purl.org/dc/elements/1.1/"
   xmlns:cc="http://web.resource.org/cc/"
   xmlns:rdf="http://www.w3.org/1999/02/22-rdf-syntax-ns#"
   xmlns:svg="http://www.w3.org/2000/svg"
   xmlns="http://www.w3.org/2000/svg"
   xmlns:sodipodi="http://sodipodi.sourceforge.net/DTD/sodipodi-0.dtd"
   xmlns:inkscape="http://www.inkscape.org/namespaces/inkscape"
   width="20.709053"
   height="17.983217"
   id="svg2387"
   sodipodi:version="0.32"
   inkscape:version="0.45"
   sodipodi:docname="E150D.svg"
   inkscape:output_extension="org.inkscape.output.svg.inkscape"
   sodipodi:docbase="C:\Program Files\JSesh\fontsST"
   sodipodi:modified="true">
  <metadata
     id="metadata2394">
    <rdf:RDF>
      <cc:Work
         rdf:about="">
        <dc:format>image/svg+xml</dc:format>
        <dc:type
           rdf:resource="http://purl.org/dc/dcmitype/StillImage" />
      </cc:Work>
    </rdf:RDF>
  </metadata>
  <defs
     id="defs2392" />
  <sodipodi:namedview
     inkscape:window-height="480"
     inkscape:window-width="640"
     inkscape:pageshadow="2"
     inkscape:pageopacity="0.0"
     guidetolerance="10.0"
     gridtolerance="10.0"
     objecttolerance="10.0"
     borderopacity="1.0"
     bordercolor="#666666"
     pagecolor="#ffffff"
     id="base" />
  <path
     style="fill:#000000; stroke:none"
     d="M 10 0 C 9.91773 0.0034278334 9.8459816 0.014509333 9.75 0.0625 L 9.71875 1.46875 C 9.4719407 1.6195787 8.9904297 1.6875 8.25 1.6875 C 8.236288 2.4553527 8.2576532 3.0932739 8.3125 3.59375 C 8.3673473 4.0942253 8.4429222 4.767224 8.59375 5.5625 C 8.744578 6.3577767 8.9544016 6.9964953 9.1875 7.53125 C 9.0864177 7.9453832 9.1306888 8.2191612 9.3125 8.375 C 9.4926502 8.5294138 9.7828838 8.6630635 10.15625 8.78125 C 10.157443 8.8716087 10.160592 8.953896 10.1875 9.03125 C 10.106703 9.4083631 9.9542431 10.026545 9.6875 11.0625 C 9.3926993 12.207423 9.1324926 12.92092 8.90625 13.25 C 8.680008 13.57908 8.2099776 13.782047 7.53125 13.84375 C 6.8525227 13.905452 6.420598 13.734532 6.1875 13.34375 C 5.9544013 12.952967 5.9261804 12.496649 6.125 11.96875 C 6.3238193 11.440851 6.7335812 11.10204 7.34375 10.9375 C 7.9539187 10.77296 8.3606515 10.708865 8.59375 10.75 L 9.34375 9.875 C 8.27424 9.2716873 7.1654915 9.0832282 6 9.34375 C 5.6434973 9.0283813 5.0551615 9.1603983 4.21875 9.75 L 1.5 8.4375 C 1.2943247 8.382654 1.13329 8.5031906 0.96875 8.75 C 0.80421067 8.99681 0.76148067 9.1501913 0.84375 9.21875 C 0.692922 9.1913267 0.57541399 9.2874696 0.5 9.5 C 0.424586 9.7125313 0.43909536 9.8201531 0.5625 9.875 C 0.27455533 9.8887113 0.106664 10.194677 0.03125 10.75 C -0.044164667 11.305322 0.063458005 11.5625 0.40625 11.5625 C 0.54336667 11.603635 1.0561274 11.670759 1.90625 11.71875 C 2.7563727 11.766741 3.2126914 11.862883 3.28125 12 C 3.1304213 12.767853 3.1159126 13.441649 3.21875 14.03125 C 3.321588 14.620851 3.6855905 15.409125 4.34375 16.4375 C 5.00191 17.465873 6.2243401 17.971779 8 17.9375 C 9.77566 17.903221 11.461265 17.913904 13.03125 17.96875 C 14.601235 18.023597 15.795444 17.9198 16.625 17.625 C 17.454555 17.330199 18.089448 16.9029 18.5625 16.375 C 19.035553 15.847101 19.156887 15.059624 18.9375 14.03125 C 19.828759 12.152753 20.341519 9.8673321 20.4375 7.125 C 20.574617 6.54911 20.646365 5.9508892 20.6875 5.375 C 20.742347 5.032208 20.585139 4.8750002 20.1875 4.875 C 20.1875 4.6144787 20.05931 4.4649232 19.8125 4.4375 C 19.56569 4.451212 19.451211 4.579402 19.4375 4.8125 C 19.02615 4.8125 18.798789 5.0047851 18.8125 5.375 C 18.867347 5.9783127 18.970345 6.5628215 19.09375 7.125 C 19.217155 9.5108287 19.003506 11.332277 18.46875 12.59375 C 18.167094 12.278382 17.885521 12.03954 17.625 11.875 C 16.96684 11.46365 16.727999 10.957746 16.90625 10.375 C 17.084502 9.7922547 16.899072 9.4145401 16.34375 9.25 C 15.850079 9.103727 14.317816 8.6734698 12.3125 8.09375 C 12.239482 7.9742917 12.160659 7.8522656 12.0625 7.84375 C 12.081808 7.7686734 12.079026 7.6993304 12.0625 7.625 C 12.252749 7.3396263 12.257492 7.0909591 12.03125 6.875 C 11.45536 6.2716873 11.063934 5.8260507 10.90625 5.53125 C 10.748565 5.2364493 10.509724 5.2219408 10.1875 5.46875 C 10.162859 5.4876237 10.146473 5.5102114 10.125 5.53125 C 10.183196 3.8386591 10.209008 2.0596545 10.21875 0.0625 C 10.150192 0.021365 10.08227 -0.0034278334 10 0 z M 9.6875 2 C 9.6745581 4.0318251 9.6433354 5.7434081 9.59375 7.25 C 9.5589709 7.248286 9.5298515 7.2465721 9.5 7.25 C 9.0022227 5.628435 8.7316424 3.9354022 8.71875 2.15625 C 9.1849467 2.1151147 9.5092478 2.068558 9.6875 2 z M 19.78125 4.9375 C 19.959502 4.9375 19.99458 5.5647386 19.84375 6.8125 L 19.96875 6.8125 C 20.023597 5.756702 20.130422 5.2499998 20.28125 5.25 C 20.432079 5.25 20.332908 5.8810652 20.03125 7.15625 C 19.962692 9.7614653 19.463643 12.085789 18.53125 14.15625 C 18.544963 13.772324 18.566328 13.483099 18.59375 13.25 C 19.33418 11.851411 19.650828 9.8124855 19.5 7.125 C 19.225767 5.822392 19.154816 5.1562499 19.3125 5.15625 C 19.470183 5.15625 19.566326 5.7018553 19.59375 6.8125 L 19.71875 6.8125 C 19.581633 5.5647387 19.602998 4.9375 19.78125 4.9375 z M 10.46875 5.84375 L 10.5 5.875 C 10.445153 6.1629447 10.509249 6.3804222 10.6875 6.53125 L 10.71875 6.5 C 10.650191 6.3903067 10.663903 6.2582898 10.71875 6.09375 L 10.84375 6.21875 C 10.747769 6.30102 10.769133 6.4544012 10.90625 6.6875 L 10.96875 6.625 L 10.96875 6.34375 C 11.452086 6.744816 11.689672 7.0101054 11.65625 7.1875 L 10.90625 7.5625 C 10.91921 7.1359956 10.851641 6.8456735 10.65625 6.6875 C 10.313459 6.413266 10.249363 6.1316944 10.46875 5.84375 z M 10.0625 6.78125 C 10.29128 7.0275989 10.42686 7.2472182 10.46875 7.4375 L 10.03125 7.3125 C 10.039152 7.1460187 10.055132 6.9510898 10.0625 6.78125 z M 9.6875 7.59375 L 9.8125 7.625 C 9.771365 7.78954 9.7893021 7.9181288 9.875 8.03125 L 9.84375 8.0625 C 9.8344491 8.1647616 9.8385163 8.2441103 9.84375 8.3125 C 9.6517867 8.2576533 9.6052304 8.0051002 9.6875 7.59375 z M 11.5 7.59375 C 11.661213 7.5245479 11.777321 7.7789351 11.65625 7.84375 L 10.40625 8.4375 C 10.210882 8.5354701 10.050455 8.2644648 10.25 8.1875 L 11.5 7.59375 z M 10.03125 7.6875 L 10.125 7.71875 C 10.102719 7.7945069 10.135083 7.8449761 10.15625 7.90625 L 10.03125 7.96875 C 10.000212 7.8819294 10.008626 7.7836532 10.03125 7.6875 z M 11.8125 8.15625 C 11.954095 8.0900864 12.083553 8.3484052 11.9375 8.40625 L 10.71875 9 C 10.548645 9.0922526 10.340374 8.8376861 10.5625 8.75 L 11.8125 8.15625 z M 12.40625 8.53125 C 14.18153 9.0458882 15.632135 9.4769664 16 9.59375 C 16.431918 9.7308667 16.553252 10.045284 16.375 10.59375 C 16.196748 11.142217 16.489002 11.651948 17.25 12.125 C 18.010997 12.598053 18.307078 13.193244 18.15625 13.90625 C 18.704717 15.291128 18.372762 16.267063 17.125 16.78125 C 15.877239 17.295437 14.608252 17.495375 13.3125 17.40625 C 12.016747 17.317123 10.42043 17.306441 8.5625 17.375 C 6.7045707 17.443557 5.4920247 17.026142 4.875 16.09375 C 4.2579747 15.161357 3.89477 14.424264 3.8125 13.9375 C 3.7302307 13.450735 3.7691333 12.673144 3.90625 11.5625 C 3.727998 11.452807 3.5532513 11.371173 3.375 11.34375 L 0.625 11.15625 C 0.529018 11.169961 0.44738467 11.092155 0.40625 10.96875 C 0.35140333 10.763075 0.39413336 10.580675 0.53125 10.375 C 0.57238467 10.279019 0.67155669 10.222577 0.78125 10.25 L 3.65625 10.875 C 4.3281213 10.216841 4.9690722 9.8032517 5.53125 9.625 C 5.6820787 9.7484053 5.9072085 9.7697699 6.25 9.6875 C 7.058988 9.5778067 7.8396089 9.6419017 8.59375 9.875 C 8.6348853 10.066963 8.5631374 10.177615 8.34375 10.21875 C 7.6444553 10.067922 7.0424081 10.153382 6.5625 10.46875 L 6.65625 10.59375 C 7.1224467 10.374364 7.5360356 10.320154 7.90625 10.375 L 7.90625 10.40625 C 6.8367407 10.65306 6.2163572 10.934632 6.03125 11.25 C 5.8461427 11.565369 5.6820789 11.900353 5.53125 12.25 C 5.380422 12.599647 5.4697086 13.04911 5.8125 13.625 C 6.1552913 14.20089 6.7252907 14.450414 7.5 14.375 C 8.2747087 14.299586 8.7417104 14.174425 8.90625 13.96875 C 8.82398 14.311541 8.6103298 14.72513 8.28125 15.21875 L 8.8125 15.03125 C 9.114156 14.496495 9.3316331 14.069195 9.46875 13.78125 C 9.9952627 11.733702 10.327186 10.410337 10.5625 9.40625 L 11.15625 9.125 L 10.21875 13.6875 L 10.65625 13.6875 L 10.8125 13.09375 C 11.991702 12.860651 12.772324 12.807239 13.15625 12.9375 C 13.540177 13.067761 14.014034 13.317286 14.5625 13.6875 C 14.672193 14.01658 14.80421 14.362247 14.96875 14.71875 L 15.3125 14.5 C 14.695475 13.101411 14.713014 12.049901 15.34375 11.34375 C 15.974487 10.637599 16.038582 10.209501 15.53125 10.03125 C 15.045067 9.8604287 13.746335 9.4305782 11.875 8.78125 L 12.40625 8.53125 z M 1.25 8.90625 C 1.3099885 8.8908243 1.4040184 8.9032209 1.5 8.9375 C 1.6919633 9.0060587 2.4977761 9.4119937 3.9375 10.125 L 3.5625 10.4375 C 1.766272 10.053573 0.86431733 9.7834814 0.84375 9.6875 C 0.82318267 9.5915187 0.85523003 9.5304538 0.9375 9.46875 C 1.01977 9.4070473 1.7751994 9.6352066 3.1875 10.15625 L 3.25 10.0625 C 1.7828527 9.5140333 1.0770094 9.1615104 1.125 9.03125 C 1.1489953 8.9661197 1.1900115 8.9216757 1.25 8.90625 z M 11.65625 9.09375 C 13.617018 9.7793333 14.775353 10.185268 15.125 10.28125 C 15.474647 10.377231 15.421235 10.641265 14.96875 11.09375 C 14.516265 11.546235 14.320154 12.155935 14.375 12.9375 C 13.977362 12.731825 13.592792 12.557078 13.25 12.40625 C 12.907209 12.255421 12.122761 12.298152 10.875 12.53125 L 11.65625 9.09375 z M 6.0625 9.875 C 5.6374387 9.9024233 5.2665792 10.141265 4.9375 10.59375 C 5.6093707 10.621173 6.0443245 10.49681 6.25 10.25 C 6.3734047 10.154018 6.6336121 10.086096 7.03125 10.03125 L 7 9.96875 C 6.8080367 9.872768 6.487562 9.8475764 6.0625 9.875 z M 5.875 10.09375 C 5.9195628 10.090322 5.9554372 10.111288 6 10.125 L 6 10.15625 C 5.8628833 10.265943 5.701848 10.347576 5.46875 10.375 C 5.6024385 10.210461 5.7413116 10.104034 5.875 10.09375 z "
     id="path2389" />
</svg>
