<?xml version="1.0" encoding="UTF-8" standalone="no"?>
<svg
   xmlns:dc="http://purl.org/dc/elements/1.1/"
   xmlns:cc="http://web.resource.org/cc/"
   xmlns:rdf="http://www.w3.org/1999/02/22-rdf-syntax-ns#"
   xmlns:svg="http://www.w3.org/2000/svg"
   xmlns="http://www.w3.org/2000/svg"
   xmlns:sodipodi="http://sodipodi.sourceforge.net/DTD/sodipodi-0.dtd"
   xmlns:inkscape="http://www.inkscape.org/namespaces/inkscape"
   width="21.822844"
   height="17.983217"
   id="svg2436"
   sodipodi:version="0.32"
   inkscape:version="0.45"
   sodipodi:docname="E150E.svg"
   inkscape:output_extension="org.inkscape.output.svg.inkscape"
   sodipodi:docbase="C:\Program Files\JSesh\fontsST"
   sodipodi:modified="true">
  <metadata
     id="metadata2443">
    <rdf:RDF>
      <cc:Work
         rdf:about="">
        <dc:format>image/svg+xml</dc:format>
        <dc:type
           rdf:resource="http://purl.org/dc/dcmitype/StillImage" />
      </cc:Work>
    </rdf:RDF>
  </metadata>
  <defs
     id="defs2441" />
  <sodipodi:namedview
     inkscape:window-height="480"
     inkscape:window-width="640"
     inkscape:pageshadow="2"
     inkscape:pageopacity="0.0"
     guidetolerance="10.0"
     gridtolerance="10.0"
     objecttolerance="10.0"
     borderopacity="1.0"
     bordercolor="#666666"
     pagecolor="#ffffff"
     id="base" />
  <path
     style="fill:#000000; stroke:none"
     d="M 15.375 0 C 14.367555 2.7776707 13.487655 5.2814047 12.78125 7.5 C 12.702765 7.4773167 12.705542 7.4920232 12.625 7.46875 C 12.627783 7.392928 12.623456 7.3212901 12.59375 7.25 C 12.906504 6.8882296 12.93242 6.5448664 12.65625 6.28125 C 12.049387 5.6454887 11.666164 5.1856562 11.5 4.875 C 11.416918 4.719672 11.31393 4.6376429 11.1875 4.625 C 11.06107 4.6123571 10.919777 4.6512076 10.75 4.78125 C 10.410446 5.0413333 10.362564 5.5060393 10.59375 6.15625 C 10.859252 6.434395 10.987 6.6632302 11.03125 6.875 L 10.375 6.71875 C 9.984874 6.6031573 9.7765465 6.6750645 9.71875 6.90625 C 9.5887087 7.3830713 9.6102126 7.7016111 9.8125 7.875 C 9.9591588 8.0007073 10.200575 8.1158272 10.46875 8.21875 C 10.514192 8.3158018 10.585645 8.3671041 10.71875 8.46875 C 10.71827 8.4902646 10.717747 8.5102705 10.71875 8.53125 C 10.633099 8.9302209 10.50048 9.5933413 10.21875 10.6875 C 9.908094 11.894 9.6134102 12.653221 9.375 13 C 9.1365893 13.346779 8.6527313 13.559979 7.9375 13.625 C 7.2222693 13.690021 6.7456347 13.50555 6.5 13.09375 C 6.2543647 12.68195 6.2592373 12.21254 6.46875 11.65625 C 6.678262 11.099959 7.1070145 10.735889 7.75 10.5625 C 8.3929853 10.389111 8.8168649 10.331652 9.0625 10.375 L 9.84375 9.4375 C 8.9792512 8.9498337 8.0802595 8.7333178 7.15625 8.78125 C 7.4929397 8.3803861 7.837109 7.9181613 8.1875 7.34375 C 8.628198 6.6212947 8.9803396 6.0393207 9.21875 5.5625 C 9.4571607 5.0856793 9.7086659 4.4701041 9.96875 3.71875 C 9.246294 3.429768 8.7815882 3.168686 8.59375 2.9375 L 9.09375 1.53125 C 8.93481 1.3578607 8.7671396 1.283602 8.59375 1.3125 C 7.6098796 4.0644855 6.7649431 6.5467982 6.0625 8.75 C 5.6809202 8.6351564 5.1441358 8.8143793 4.4375 9.3125 L 1.59375 7.9375 C 1.3770133 7.879704 1.1733893 7.9899162 1 8.25 C 0.82661067 8.510084 0.78830535 8.6777547 0.875 8.75 C 0.71606 8.721102 0.61072001 8.8072888 0.53125 9.03125 C 0.45178 9.2552107 0.46370802 9.3797035 0.59375 9.4375 C 0.29031867 9.4519493 0.11072067 9.7585615 0.03125 10.34375 C -0.04822 10.928939 0.076272011 11.21875 0.4375 11.21875 C 0.58199133 11.262097 1.1041553 11.324428 2 11.375 C 2.8958447 11.425572 3.3965039 11.511758 3.46875 11.65625 C 3.3098093 12.4654 3.2666313 13.191188 3.375 13.8125 C 3.483368 14.433812 3.9001927 15.291317 4.59375 16.375 C 5.2873073 17.458685 6.5663401 17.973624 8.4375 17.9375 C 10.30866 17.901377 12.064327 17.910954 13.71875 17.96875 C 15.373173 18.026546 16.625828 17.904405 17.5 17.59375 C 18.374171 17.283094 19.064006 16.837541 19.5625 16.28125 C 20.060995 15.724959 20.199936 14.927433 19.96875 13.84375 C 20.907943 11.864222 21.430107 9.4210726 21.53125 6.53125 C 21.675742 5.9243873 21.769152 5.3256127 21.8125 4.71875 C 21.870296 4.357522 21.700275 4.15625 21.28125 4.15625 C 21.28125 3.8817173 21.135084 3.7476487 20.875 3.71875 C 20.614917 3.7331993 20.4832 3.8481154 20.46875 4.09375 C 20.035277 4.09375 19.829301 4.2973742 19.84375 4.6875 C 19.901547 5.3232613 19.994957 5.9388366 20.125 6.53125 C 20.255042 9.0453953 20.032266 10.951932 19.46875 12.28125 C 19.15087 11.948921 18.868284 11.704639 18.59375 11.53125 C 17.900193 11.097777 17.624662 10.582837 17.8125 9.96875 C 18.000339 9.354662 17.803939 8.9546391 17.21875 8.78125 C 16.787055 8.6533407 15.216113 8.2236878 13.6875 7.78125 C 14.106525 7.3333273 14.528052 6.7609302 14.96875 6.03125 C 15.409448 5.30157 15.76159 4.6955709 16 4.21875 C 16.23841 3.7419293 16.489915 3.126354 16.75 2.375 C 16.027544 2.1004667 15.562839 1.8393846 15.375 1.59375 L 15.875 0.21875 C 15.716059 0.045360667 15.548389 -0.028898 15.375 0 z M 15.1875 2.09375 C 15.33199 2.2382413 15.645827 2.4395133 16.09375 2.65625 C 15.400193 4.5201853 14.449276 6.1824414 13.25 7.65625 C 13.784617 6.095746 14.421697 4.2322179 15.1875 2.09375 z M 8.40625 3.4375 C 8.5507413 3.5819907 8.8645776 3.7520132 9.3125 3.96875 C 8.6431577 5.7676082 7.7341144 7.3947947 6.59375 8.84375 C 6.5729328 8.8472275 6.5520967 8.8400076 6.53125 8.84375 C 7.0570188 7.298123 7.6623037 5.5149342 8.40625 3.4375 z M 20.84375 4.25 C 21.031588 4.25 21.065191 4.9038806 20.90625 6.21875 L 21.03125 6.21875 C 21.089047 5.106168 21.184811 4.5624998 21.34375 4.5625 C 21.502691 4.5625 21.44288 5.2187327 21.125 6.5625 C 21.052755 9.3078313 20.51379 11.786934 19.53125 13.96875 C 19.545699 13.564175 19.564851 13.245634 19.59375 13 C 20.374002 11.526191 20.690191 9.3632759 20.53125 6.53125 C 20.242267 5.158584 20.177584 4.46875 20.34375 4.46875 C 20.509914 4.46875 20.627352 5.0483713 20.65625 6.21875 L 20.78125 6.21875 C 20.636759 4.9038807 20.655912 4.2499998 20.84375 4.25 z M 11.03125 5.1875 L 11.0625 5.21875 C 11.004705 5.5221813 11.062162 5.7473093 11.25 5.90625 L 11.3125 5.875 C 11.240254 5.7594073 11.223453 5.6108893 11.28125 5.4375 L 11.4375 5.5625 C 11.336356 5.6491947 11.355509 5.8168655 11.5 6.0625 L 11.5625 6 L 11.5625 5.6875 C 12.241609 6.2510153 12.445232 6.6055087 12.15625 6.75 L 12.09375 7 L 11.46875 7.28125 C 11.534087 6.6839563 11.463408 6.2605569 11.21875 6.0625 C 10.857522 5.773518 10.800064 5.4909321 11.03125 5.1875 z M 10.1875 7.03125 L 10.34375 7.0625 C 10.27578 7.3343816 10.364347 7.5488439 10.625 7.6875 L 10.40625 7.78125 L 10.375 7.78125 C 10.172712 7.7234533 10.100805 7.4647234 10.1875 7.03125 z M 10.5625 7.125 L 10.6875 7.15625 C 10.64521 7.3000365 10.675009 7.4057241 10.78125 7.5 C 10.751089 7.5396153 10.757021 7.5439982 10.71875 7.59375 C 10.588289 7.4469337 10.520914 7.3017371 10.5625 7.125 z M 12.0625 7.28125 C 12.223713 7.2120479 12.339821 7.4976854 12.21875 7.5625 L 10.96875 8.15625 C 10.773382 8.2542201 10.644205 7.9519646 10.84375 7.875 L 12.0625 7.28125 z M 12.375 7.84375 C 12.516595 7.7775864 12.677303 8.0671546 12.53125 8.125 L 11.28125 8.71875 C 11.111145 8.8110026 10.902874 8.5251854 11.125 8.4375 L 12.375 7.84375 z M 12.96875 7.96875 C 14.953939 8.5438677 16.474318 8.997799 16.875 9.125 C 17.330148 9.2694913 17.43784 9.6407858 17.25 10.21875 C 17.062161 10.796715 17.385574 11.314005 18.1875 11.8125 C 18.989425 12.310994 19.315189 12.936146 19.15625 13.6875 C 19.734214 15.14686 19.346119 16.145658 18.03125 16.6875 C 16.716381 17.229341 15.396691 17.468919 14.03125 17.375 C 12.665809 17.281081 10.989105 17.271504 9.03125 17.34375 C 7.0733953 17.415995 5.77521 16.951289 5.125 15.96875 C 4.47479 14.986211 4.1179448 14.231694 4.03125 13.71875 C 3.9445553 13.205807 3.9492587 12.389128 4.09375 11.21875 C 3.9059113 11.103157 3.7190886 11.028898 3.53125 11 L 0.65625 10.78125 C 0.555106 10.795699 0.48084734 10.723792 0.4375 10.59375 C 0.37970333 10.377014 0.41800866 10.154237 0.5625 9.9375 C 0.60584733 9.8363567 0.69690733 9.8148519 0.8125 9.84375 L 3.875 10.5 C 4.5830067 9.8064427 5.2200869 9.3440875 5.8125 9.15625 C 5.9714407 9.2862913 6.2325224 9.3366946 6.59375 9.25 C 7.446248 9.1344073 8.2677989 9.191865 9.0625 9.4375 C 9.1058467 9.6397873 9.0124356 9.7691529 8.78125 9.8125 C 8.044346 9.65356 7.4432194 9.7301708 6.9375 10.0625 L 7 10.21875 C 7.49127 9.987564 7.9536244 9.8797033 8.34375 9.9375 L 8.34375 10 C 7.2167193 10.260085 6.5388132 10.542671 6.34375 10.875 C 6.1486873 11.20733 5.9714409 11.569048 5.8125 11.9375 C 5.65356 12.305952 5.7637718 12.799387 6.125 13.40625 C 6.4862273 14.013112 7.0586254 14.26697 7.875 14.1875 C 8.6913753 14.108029 9.2016104 13.966736 9.375 13.75 C 9.2883053 14.111228 9.0655288 14.542333 8.71875 15.0625 L 9.28125 14.875 C 9.59913 14.311485 9.824259 13.865931 9.96875 13.5625 C 10.497019 11.50812 10.843664 10.151306 11.09375 9.09375 C 11.106064 9.0986725 11.112123 9.1209417 11.125 9.125 L 11.71875 8.84375 L 10.75 13.4375 L 11.21875 13.46875 L 11.375 12.84375 C 12.617623 12.598115 13.439174 12.518983 13.84375 12.65625 C 14.248325 12.793516 14.765786 13.078624 15.34375 13.46875 C 15.459343 13.815529 15.57661 14.155573 15.75 14.53125 L 16.125 14.34375 C 15.47479 12.869941 15.491591 11.744129 16.15625 11 C 16.820909 10.255871 16.878367 9.7815879 16.34375 9.59375 C 15.859443 9.4235878 14.538644 8.9645015 12.75 8.34375 L 13 8.21875 C 13.030668 8.1501957 12.995625 8.0628039 12.96875 7.96875 z M 1.3125 8.4375 C 1.375715 8.4212449 1.461356 8.4326272 1.5625 8.46875 C 1.7647873 8.5409947 2.6390934 8.9361455 4.15625 9.6875 L 3.75 10.03125 C 1.8571667 9.6266747 0.896674 9.3511438 0.875 9.25 C 0.85332667 9.148856 0.88205536 9.065021 0.96875 9 C 1.0554447 8.9349787 1.855492 9.1696832 3.34375 9.71875 L 3.4375 9.625 C 1.8914453 9.047036 1.1369287 8.6997668 1.1875 8.5625 C 1.212786 8.4938667 1.249285 8.4537551 1.3125 8.4375 z M 12.28125 8.625 C 14.347473 9.3474553 15.569047 9.7738564 15.9375 9.875 C 16.305953 9.9761447 16.226821 10.24193 15.75 10.71875 C 15.273179 11.195571 15.067203 11.8639 15.125 12.6875 C 14.705976 12.470763 14.329978 12.28394 13.96875 12.125 C 13.607523 11.96606 12.75237 12.004365 11.4375 12.25 L 12.28125 8.625 z M 6.40625 9.4375 C 5.9583273 9.466398 5.5655285 9.7106794 5.21875 10.1875 C 5.9267567 10.216398 6.3770138 10.103834 6.59375 9.84375 C 6.723792 9.7426067 6.9872253 9.6515466 7.40625 9.59375 L 7.375 9.53125 C 7.1727127 9.430106 6.8541719 9.4086017 6.40625 9.4375 z M 6.1875 9.6875 C 6.2344596 9.6838878 6.2655404 9.6730509 6.3125 9.6875 L 6.34375 9.71875 C 6.1992587 9.8343427 5.9956351 9.908602 5.75 9.9375 C 5.890879 9.764111 6.0466211 9.6983367 6.1875 9.6875 z "
     id="path2438" />
</svg>
