<?xml version="1.0" encoding="UTF-8" standalone="no"?>
<svg
   xmlns:dc="http://purl.org/dc/elements/1.1/"
   xmlns:cc="http://web.resource.org/cc/"
   xmlns:rdf="http://www.w3.org/1999/02/22-rdf-syntax-ns#"
   xmlns:svg="http://www.w3.org/2000/svg"
   xmlns="http://www.w3.org/2000/svg"
   xmlns:sodipodi="http://sodipodi.sourceforge.net/DTD/sodipodi-0.dtd"
   xmlns:inkscape="http://www.inkscape.org/namespaces/inkscape"
   width="23.849583"
   height="15.6"
   id="svg2233"
   sodipodi:version="0.32"
   inkscape:version="0.45"
   sodipodi:docname="E150A.svg"
   inkscape:output_extension="org.inkscape.output.svg.inkscape"
   sodipodi:docbase="C:\Program Files\JSesh\fontsST"
   sodipodi:modified="true">
  <metadata
     id="metadata2240">
    <rdf:RDF>
      <cc:Work
         rdf:about="">
        <dc:format>image/svg+xml</dc:format>
        <dc:type
           rdf:resource="http://purl.org/dc/dcmitype/StillImage" />
      </cc:Work>
    </rdf:RDF>
  </metadata>
  <defs
     id="defs2238" />
  <sodipodi:namedview
     inkscape:window-height="480"
     inkscape:window-width="640"
     inkscape:pageshadow="2"
     inkscape:pageopacity="0.0"
     guidetolerance="10.0"
     gridtolerance="10.0"
     objecttolerance="10.0"
     borderopacity="1.0"
     bordercolor="#666666"
     pagecolor="#ffffff"
     id="base" />
  <path
     style="fill:#000000; stroke:none"
     d="M 22.8125 0 C 22.528261 0.015791333 22.390791 0.16905265 22.375 0.4375 C 21.901268 0.4375 21.671708 0.63614204 21.6875 1.0625 C 21.750664 1.7573053 21.857881 2.4463173 22 3.09375 C 22.14212 5.84139 21.897101 7.9222251 21.28125 9.375 C 20.933848 9.0118067 20.61253 8.7519925 20.3125 8.5625 C 19.55453 8.0887693 19.263466 7.5148693 19.46875 6.84375 C 19.674033 6.1726313 19.483286 5.7207426 18.84375 5.53125 C 18.280635 5.3644011 16.489702 4.875301 14.21875 4.21875 C 14.135036 4.1153138 14.037984 4.0393358 13.9375 4.03125 C 13.96857 3.9191919 13.947934 3.7955258 13.90625 3.6875 C 14.125351 3.358849 14.104302 3.0612084 13.84375 2.8125 C 13.180527 2.117694 12.744096 1.6207567 12.5625 1.28125 C 12.471702 1.1114963 12.356922 1.0138172 12.21875 1 C 12.080578 0.98618284 11.935545 1.0453807 11.75 1.1875 C 11.378911 1.471738 11.309844 1.9769034 11.5625 2.6875 C 11.838096 2.9762203 12.00504 3.2142213 12.0625 3.4375 L 11.34375 3.28125 C 10.917392 3.1549213 10.688164 3.2160932 10.625 3.46875 C 10.482881 3.989854 10.528926 4.3730071 10.75 4.5625 C 10.893526 4.6855225 11.093733 4.7719447 11.34375 4.875 C 11.401553 4.9346659 11.493623 4.9915763 11.59375 5.0625 C 11.589889 5.2231936 11.586274 5.3770181 11.65625 5.5 C 11.552894 5.960412 11.434041 6.5461361 11.15625 7.625 C 10.816743 8.943552 10.510552 9.7772665 10.25 10.15625 C 9.989448 10.535235 9.4691562 10.77269 8.6875 10.84375 C 7.9058447 10.91481 7.3934478 10.731295 7.125 10.28125 C 6.8565527 9.831206 6.8335298 9.2954555 7.0625 8.6875 C 7.29147 8.0795453 7.7660489 7.689492 8.46875 7.5 C 9.1714513 7.3105073 9.6378024 7.2338774 9.90625 7.28125 L 10.75 6.25 C 9.5182993 5.555194 8.2484879 5.3562199 6.90625 5.65625 C 6.4956833 5.293056 5.8070032 5.4459852 4.84375 6.125 L 1.75 4.625 C 1.5131347 4.561836 1.2832426 4.6532607 1.09375 4.9375 C 0.90425733 5.221738 0.87400333 5.4210449 0.96875 5.5 C 0.79504867 5.468418 0.64935068 5.5677385 0.5625 5.8125 C 0.47564933 6.0572607 0.51413133 6.2180859 0.65625 6.28125 C 0.32463867 6.2970413 0.11810067 6.6104631 0.03125 7.25 C -0.055600667 7.8895373 0.073974011 8.2187495 0.46875 8.21875 C 0.62666 8.2661227 1.2084559 8.3197317 2.1875 8.375 C 3.166544 8.4302687 3.7022947 8.5295898 3.78125 8.6875 C 3.6075487 9.5717973 3.5690672 10.352235 3.6875 11.03125 C 3.8059333 11.710265 4.2420308 12.659423 5 13.84375 C 5.75797 15.028078 7.1738111 15.601978 9.21875 15.5625 C 11.263689 15.523023 13.191927 15.530586 15 15.59375 C 16.808073 15.656913 18.169642 15.495757 19.125 15.15625 C 20.080358 14.816743 20.830209 14.357955 21.375 13.75 C 21.919791 13.142045 22.065157 12.246828 21.8125 11.0625 C 22.838918 8.899128 23.420713 6.2519567 23.53125 3.09375 C 23.689161 2.4305267 23.796378 1.756974 23.84375 1.09375 C 23.906915 0.69897467 23.707941 0.50000001 23.25 0.5 C 23.25 0.19997 23.096738 0.031582 22.8125 0 z M 22.78125 0.59375 C 22.986535 0.59375 23.017453 1.3130161 22.84375 2.75 L 23 2.75 C 23.063163 1.53409 23.170049 0.93749998 23.34375 0.9375 C 23.517452 0.9375 23.441153 1.6564333 23.09375 3.125 C 23.014795 6.125296 22.41754 8.8343032 21.34375 11.21875 C 21.359541 10.776601 21.405918 10.393448 21.4375 10.125 C 22.290216 8.5143147 22.611202 6.1887927 22.4375 3.09375 C 22.12168 1.5936013 22.068402 0.84374998 22.25 0.84375 C 22.431597 0.84375 22.530918 1.4709261 22.5625 2.75 L 22.71875 2.75 C 22.560841 1.313016 22.575967 0.59375002 22.78125 0.59375 z M 12.03125 1.625 L 12.09375 1.65625 C 12.030586 1.9878613 12.107216 2.2325486 12.3125 2.40625 L 12.34375 2.375 C 12.264795 2.248672 12.249336 2.0957426 12.3125 1.90625 L 12.5 2.03125 C 12.389463 2.1259967 12.40459 2.3253026 12.5625 2.59375 L 12.625 2.5 L 12.625 2.1875 C 13.274407 2.7263687 13.532426 3.0938315 13.375 3.28125 L 13.5 3.25 L 12.5625 3.6875 C 12.593357 3.1478518 12.488346 2.7866965 12.25 2.59375 C 11.855225 2.2779293 11.778594 1.956612 12.03125 1.625 z M 11.15625 3.65625 L 11.3125 3.65625 C 11.261286 3.8611066 11.28675 4.0518517 11.40625 4.1875 L 11.21875 4.28125 C 11.214925 4.3202565 11.220717 4.3408939 11.21875 4.375 C 11.095238 4.257534 11.081107 4.0319675 11.15625 3.65625 z M 13.25 3.71875 C 13.448884 3.639561 13.586862 3.9570813 13.4375 4.03125 L 11.90625 4.71875 C 11.665229 4.8308586 11.472577 4.4943215 11.71875 4.40625 L 13.25 3.71875 z M 11.53125 3.75 L 11.65625 3.78125 C 11.623681 3.8919845 11.639461 3.9786348 11.6875 4.0625 L 11.59375 4.125 C 11.534534 4.0065672 11.499668 3.8842237 11.53125 3.75 z M 13.625 4.34375 C 13.799681 4.268038 13.992682 4.590057 13.8125 4.65625 L 12.28125 5.34375 C 12.071396 5.4493168 11.819718 5.1315899 12.09375 5.03125 L 13.625 4.34375 z M 11.21875 4.5625 C 11.22416 4.6280686 11.229654 4.6700499 11.25 4.71875 C 11.235145 4.6755331 11.222663 4.6181818 11.21875 4.5625 z M 14.375 4.71875 C 16.365857 5.2960515 18.020089 5.7737384 18.4375 5.90625 C 18.934917 6.0641607 19.080283 6.4621086 18.875 7.09375 C 18.669715 7.7253913 18.998597 8.3302093 19.875 8.875 C 20.751403 9.41979 21.111201 10.085116 20.9375 10.90625 C 21.569141 12.501145 21.155735 13.595336 19.71875 14.1875 C 18.281766 14.779663 16.804753 15.040141 15.3125 14.9375 C 13.820247 14.834858 12.014684 14.827295 9.875 14.90625 C 7.7353147 14.985205 6.3043467 14.48004 5.59375 13.40625 C 4.8831533 12.332459 4.5009967 11.529332 4.40625 10.96875 C 4.3115047 10.408169 4.34209 9.4665739 4.5 8.1875 C 4.2947167 8.061172 4.0802833 8.0003319 3.875 7.96875 L 0.71875 7.71875 C 0.60821267 7.7345407 0.51612268 7.6733694 0.46875 7.53125 C 0.40558533 7.2943847 0.46708932 7.0493655 0.625 6.8125 C 0.67237333 6.7019627 0.748672 6.6871682 0.875 6.71875 L 4.21875 7.40625 C 4.9925107 6.64828 5.6963182 6.1740335 6.34375 5.96875 C 6.517452 6.1108693 6.8239749 6.125996 7.21875 6.03125 C 8.1504213 5.9049213 9.0377431 5.9815519 9.90625 6.25 C 9.9536227 6.471074 9.8464063 6.6088767 9.59375 6.65625 C 8.7884073 6.4825487 8.1151862 6.5743062 7.5625 6.9375 L 7.65625 7.09375 C 8.1931447 6.8410933 8.6673914 6.7493362 9.09375 6.8125 L 9.09375 6.875 C 7.8620493 7.1592387 7.1506792 7.4805559 6.9375 7.84375 C 6.7243213 8.2069433 6.5174522 8.5973286 6.34375 9 C 6.1700487 9.402672 6.292724 9.9305269 6.6875 10.59375 C 7.082276 11.256973 7.7328065 11.524351 8.625 11.4375 C 9.5171933 11.350649 10.060507 11.205616 10.25 10.96875 C 10.155254 11.363526 9.9102351 11.837773 9.53125 12.40625 L 10.15625 12.1875 C 10.503653 11.571649 10.748339 11.112861 10.90625 10.78125 C 11.502301 8.4632734 11.884253 6.9380306 12.15625 5.78125 L 12.84375 5.46875 L 11.75 10.625 L 12.25 10.65625 L 12.4375 9.96875 C 13.795529 9.700302 14.714101 9.6312349 15.15625 9.78125 C 15.598399 9.9312647 16.118359 10.229892 16.75 10.65625 C 16.876329 11.035235 17.029257 11.433183 17.21875 11.84375 L 17.625 11.59375 C 16.914403 9.9830647 16.929863 8.7819882 17.65625 7.96875 C 18.382639 7.1555113 18.45927 6.6427835 17.875 6.4375 C 17.331916 6.2466867 15.858656 5.7410686 13.8125 5.03125 L 14.375 4.78125 C 14.383137 4.7643781 14.370677 4.7378902 14.375 4.71875 z M 1.4375 5.15625 C 1.5065857 5.1384852 1.608213 5.1480223 1.71875 5.1875 C 1.9398247 5.2664553 2.8731915 5.7101167 4.53125 6.53125 L 4.09375 6.90625 C 2.0251247 6.4641007 0.99243664 6.1730374 0.96875 6.0625 C 0.94506333 5.9519633 0.96775395 5.8523102 1.0625 5.78125 C 1.1572467 5.71019 2.029774 5.9936909 3.65625 6.59375 L 3.75 6.46875 C 2.0603593 5.8371087 1.2572314 5.4312655 1.3125 5.28125 C 1.3401343 5.2062427 1.3684143 5.1740148 1.4375 5.15625 z M 13.40625 5.375 C 15.664369 6.164552 17.00358 6.6082125 17.40625 6.71875 C 17.808922 6.8292873 17.739854 7.1663962 17.21875 7.6875 C 16.697646 8.208604 16.468086 8.9124109 16.53125 9.8125 C 16.073311 9.5756347 15.644776 9.3612013 15.25 9.1875 C 14.855224 9.0137987 13.968234 9.0753023 12.53125 9.34375 L 13.40625 5.375 z M 7 6.25 C 6.510478 6.281582 6.0664846 6.5726458 5.6875 7.09375 C 6.4612607 7.125332 6.9818849 7.0029889 7.21875 6.71875 C 7.3608693 6.6082127 7.6670599 6.5006641 8.125 6.4375 L 8.0625 6.375 C 7.841426 6.264462 7.4895225 6.2184172 7 6.25 z M 6.75 6.53125 C 6.8013208 6.5273022 6.8549292 6.515459 6.90625 6.53125 L 6.9375 6.59375 C 6.7795893 6.7200787 6.5496972 6.7809182 6.28125 6.8125 C 6.4352125 6.6230075 6.5960375 6.5430934 6.75 6.53125 z "
     id="path2235" />
</svg>
