<?xml version="1.0" encoding="UTF-8" standalone="no"?>
<svg
   xmlns:dc="http://purl.org/dc/elements/1.1/"
   xmlns:cc="http://web.resource.org/cc/"
   xmlns:rdf="http://www.w3.org/1999/02/22-rdf-syntax-ns#"
   xmlns:svg="http://www.w3.org/2000/svg"
   xmlns="http://www.w3.org/2000/svg"
   xmlns:sodipodi="http://sodipodi.sourceforge.net/DTD/sodipodi-0.dtd"
   xmlns:inkscape="http://www.inkscape.org/namespaces/inkscape"
   width="23.159117"
   height="17.983217"
   id="svg2287"
   sodipodi:version="0.32"
   inkscape:version="0.45"
   sodipodi:docname="E150B.svg"
   inkscape:output_extension="org.inkscape.output.svg.inkscape"
   sodipodi:docbase="C:\Program Files\JSesh\fontsST"
   sodipodi:modified="true">
  <metadata
     id="metadata2294">
    <rdf:RDF>
      <cc:Work
         rdf:about="">
        <dc:format>image/svg+xml</dc:format>
        <dc:type
           rdf:resource="http://purl.org/dc/dcmitype/StillImage" />
      </cc:Work>
    </rdf:RDF>
  </metadata>
  <defs
     id="defs2292" />
  <sodipodi:namedview
     inkscape:window-height="480"
     inkscape:window-width="640"
     inkscape:pageshadow="2"
     inkscape:pageopacity="0.0"
     guidetolerance="10.0"
     gridtolerance="10.0"
     objecttolerance="10.0"
     borderopacity="1.0"
     bordercolor="#666666"
     pagecolor="#ffffff"
     id="base" />
  <path
     style="fill:#000000; stroke:none"
     d="M 8.5 0 C 7.7333067 3.0667747 7.0997678 5.9209988 6.59375 8.34375 C 6.2042106 7.8941745 5.5458692 8.1761697 4.6875 8.78125 L 1.6875 7.3125 C 1.457492 7.2511647 1.2465066 7.3802408 1.0625 7.65625 C 0.878494 7.93226 0.84549665 8.0795809 0.9375 8.15625 C 0.76882733 8.125582 0.64683669 8.231075 0.5625 8.46875 C 0.478164 8.7064253 0.48699531 8.8761644 0.625 8.9375 C 0.30298867 8.952834 0.115586 9.2539782 0.03125 9.875 C -0.053086667 10.496022 0.085402665 10.8125 0.46875 10.8125 C 0.62208867 10.858501 1.1743001 10.915081 2.125 10.96875 C 3.0757 11.022419 3.5795808 11.127911 3.65625 11.28125 C 3.4875773 12.139947 3.4787461 12.903143 3.59375 13.5625 C 3.708754 14.221856 4.1389738 15.13121 4.875 16.28125 C 5.6110253 17.431291 6.9517636 17.975835 8.9375 17.9375 C 10.923237 17.899166 12.806772 17.907414 14.5625 17.96875 C 16.318228 18.030085 17.666051 17.892179 18.59375 17.5625 C 19.521451 17.232823 20.252232 16.777854 20.78125 16.1875 C 21.310269 15.597145 21.432842 14.71254 21.1875 13.5625 C 22.184202 11.46176 22.736412 8.879274 22.84375 5.8125 C 22.997088 5.1684773 23.110249 4.5502726 23.15625 3.90625 C 23.217587 3.5229033 23.007183 3.3125 22.5625 3.3125 C 22.5625 3.021156 22.43226 2.8744173 22.15625 2.84375 C 21.880241 2.8590833 21.734085 2.9893241 21.71875 3.25 C 21.258734 3.25 21.047166 3.4609854 21.0625 3.875 C 21.123835 4.54969 21.205744 5.1838107 21.34375 5.8125 C 21.481755 8.4805933 21.254271 10.526784 20.65625 11.9375 C 20.318905 11.58482 20.010094 11.309006 19.71875 11.125 C 18.982724 10.664984 18.706909 10.12044 18.90625 9.46875 C 19.105589 8.8170607 18.902271 8.4027565 18.28125 8.21875 C 17.752269 8.0620154 16.04973 7.5705029 13.96875 6.96875 C 13.87857 6.7998829 13.73507 6.6676219 13.59375 6.65625 C 13.628273 6.531741 13.616353 6.3992643 13.5625 6.28125 C 13.690529 6.015363 13.655611 5.7706969 13.4375 5.5625 C 12.793477 4.8878093 12.395089 4.3921786 12.21875 4.0625 C 12.13058 3.897661 12.009172 3.825917 11.875 3.8125 C 11.740828 3.799083 11.586423 3.861995 11.40625 4 C 11.045904 4.2760093 10.973408 4.7474754 11.21875 5.4375 C 11.489306 5.7209396 11.633442 5.9690103 11.6875 6.1875 L 11.03125 6.03125 C 10.617235 5.9085787 10.373835 5.9734079 10.3125 6.21875 C 10.174495 6.724768 10.222826 7.0659932 10.4375 7.25 C 10.596935 7.3866581 10.83024 7.5137148 11.125 7.625 C 11.159318 7.6513764 11.207838 7.6576354 11.25 7.6875 C 11.246394 7.8375817 11.282671 7.9757728 11.34375 8.09375 C 11.347631 8.1012464 11.339603 8.1176277 11.34375 8.125 C 11.246927 8.5635505 11.119935 9.1461264 10.84375 10.21875 C 10.514072 11.499129 10.221759 12.319487 9.96875 12.6875 C 9.7157413 13.055513 9.1965266 13.274748 8.4375 13.34375 C 7.6784733 13.412753 7.1669252 13.249516 6.90625 12.8125 C 6.645574 12.375485 6.6214094 11.840354 6.84375 11.25 C 7.0660913 10.659645 7.5363927 10.277756 8.21875 10.09375 C 8.901108 9.9097433 9.3643249 9.8602485 9.625 9.90625 L 10.4375 8.90625 C 9.550104 8.4056674 8.6339832 8.1875492 7.6875 8.21875 C 8.0264001 7.7286034 8.373886 7.1542758 8.71875 6.4375 C 9.109764 5.6248047 9.3944099 4.9352685 9.59375 4.40625 C 9.79309 3.8772313 9.9881597 3.2030292 10.1875 2.375 C 9.3901393 2.160326 8.8862588 1.948758 8.65625 1.71875 L 9.0625 0.1875 C 8.86316 0.034161333 8.6686735 -0.030667333 8.5 0 z M 8.53125 2.25 C 8.715256 2.3726713 9.0564824 2.5347433 9.5625 2.71875 C 9.0167766 4.7500514 8.1789706 6.609614 7.09375 8.28125 C 7.4750746 6.5907578 7.9548913 4.5706007 8.53125 2.25 z M 22.125 3.40625 C 22.324341 3.40625 22.356173 4.104618 22.1875 5.5 L 22.3125 5.5 C 22.373835 4.319292 22.487578 3.7187501 22.65625 3.71875 C 22.824923 3.71875 22.743595 4.4489501 22.40625 5.875 C 22.329581 8.788436 21.761454 11.403336 20.71875 13.71875 C 20.734084 13.289402 20.781831 12.948176 20.8125 12.6875 C 21.640529 11.123445 21.949922 8.8179387 21.78125 5.8125 C 21.474573 4.355782 21.417411 3.625 21.59375 3.625 C 21.770089 3.625 21.875582 4.2579566 21.90625 5.5 L 22.0625 5.5 C 21.909162 4.104618 21.92566 3.4062501 22.125 3.40625 z M 11.6875 4.40625 L 11.75 4.4375 C 11.688665 4.7595113 11.73816 5.0188273 11.9375 5.1875 L 12 5.125 C 11.923331 5.0023293 11.907414 4.8715068 11.96875 4.6875 L 12.125 4.8125 C 12.017663 4.9045033 12.034161 5.083074 12.1875 5.34375 L 12.28125 5.28125 L 12.28125 4.9375 C 12.856417 5.4147665 13.079191 5.7434634 13 5.9375 L 12.1875 6.3125 C 12.199573 5.8431755 12.122601 5.5188912 11.90625 5.34375 C 11.522904 5.037072 11.442158 4.7282615 11.6875 4.40625 z M 12.9375 6.34375 C 13.136384 6.264561 13.243112 6.5820815 13.09375 6.65625 L 11.5625 7.3125 C 11.321479 7.4246086 11.128827 7.0880717 11.375 7 L 12.9375 6.34375 z M 10.8125 6.375 L 10.96875 6.40625 C 10.926714 6.5743937 10.954848 6.7236215 11.03125 6.84375 L 10.875 6.90625 C 10.868625 6.9712608 10.87609 7.0105516 10.875 7.0625 C 10.771496 6.9417459 10.743498 6.7200119 10.8125 6.375 z M 11.21875 6.46875 L 11.3125 6.5 C 11.293333 6.565169 11.302916 6.6319147 11.3125 6.6875 L 11.21875 6.75 C 11.192155 6.6608719 11.195749 6.5665035 11.21875 6.46875 z M 13.3125 6.96875 C 13.487181 6.893038 13.648932 7.2150571 13.46875 7.28125 L 11.9375 7.96875 C 11.727646 8.0743168 11.475968 7.75659 11.75 7.65625 L 13.3125 6.96875 z M 13.96875 7.4375 C 15.884637 7.9931178 17.502958 8.4657207 17.90625 8.59375 C 18.389267 8.7470887 18.51184 9.1366452 18.3125 9.75 C 18.113161 10.363355 18.43022 10.908481 19.28125 11.4375 C 20.13228 11.966519 20.481172 12.640139 20.3125 13.4375 C 20.925854 14.986221 20.551632 16.04998 19.15625 16.625 C 17.760868 17.200021 16.324051 17.44342 14.875 17.34375 C 13.425949 17.244079 11.67149 17.235831 9.59375 17.3125 C 7.51601 17.38917 6.127524 16.886454 5.4375 15.84375 C 4.7474753 14.801046 4.3420025 14.013102 4.25 13.46875 C 4.1579967 12.924398 4.1904113 12.023294 4.34375 10.78125 C 4.1444093 10.658579 3.94934 10.593167 3.75 10.5625 L 0.6875 10.34375 C 0.58016267 10.359083 0.51475133 10.294255 0.46875 10.15625 C 0.407414 9.926242 0.44041133 9.6987584 0.59375 9.46875 C 0.639752 9.3614133 0.75232931 9.3130826 0.875 9.34375 L 4.09375 10.03125 C 4.84511 9.295224 5.5588115 8.82434 6.1875 8.625 C 6.3561727 8.7630047 6.6166533 8.7795032 7 8.6875 C 7.9046987 8.5648293 8.7816376 8.6455745 9.625 8.90625 C 9.6710013 9.120924 9.5578409 9.2664984 9.3125 9.3125 C 8.530472 9.1438273 7.8804351 9.2098211 7.34375 9.5625 L 7.4375 9.75 C 7.9588513 9.504658 8.4297351 9.407415 8.84375 9.46875 L 8.84375 9.5 C 7.6477073 9.7760093 6.9570075 10.08482 6.75 10.4375 C 6.5429933 10.790179 6.3561728 11.171487 6.1875 11.5625 C 6.0188273 11.953514 6.1166535 12.480978 6.5 13.125 C 6.8833467 13.769023 7.5086361 14.053086 8.375 13.96875 C 9.2413633 13.884413 9.7534936 13.698758 9.9375 13.46875 C 9.8454967 13.852097 9.6180123 14.32298 9.25 14.875 L 9.84375 14.6875 C 10.181095 14.089479 10.440412 13.634512 10.59375 13.3125 C 11.180676 11.030008 11.54915 9.5292584 11.8125 8.40625 L 12.4375 8.125 L 11.40625 13.15625 L 11.90625 13.1875 L 12.09375 12.53125 C 13.412463 12.270574 14.289401 12.198078 14.71875 12.34375 C 15.148099 12.489422 15.667896 12.773485 16.28125 13.1875 C 16.403921 13.555513 16.534744 13.945069 16.71875 14.34375 L 17.125 14.09375 C 16.434976 12.529695 16.450892 11.352194 17.15625 10.5625 C 17.861608 9.7728053 17.911104 9.2930898 17.34375 9.09375 C 16.810299 8.9063212 15.399625 8.4213115 13.375 7.71875 L 13.96875 7.4375 z M 1.40625 7.84375 C 1.4733358 7.8264993 1.5489127 7.8366654 1.65625 7.875 C 1.870924 7.95167 2.796194 8.3901392 4.40625 9.1875 L 4 9.53125 C 1.9912627 9.1019013 0.96050065 8.8260875 0.9375 8.71875 C 0.91449933 8.6114133 0.93924665 8.537753 1.03125 8.46875 C 1.1232533 8.3997473 1.9831113 8.6360631 3.5625 9.21875 L 3.65625 9.125 C 2.015526 8.5116447 1.1963321 8.1144212 1.25 7.96875 C 1.2768343 7.895914 1.3391642 7.8610007 1.40625 7.84375 z M 13.03125 8.0625 C 15.223993 8.8291933 16.515236 9.2676629 16.90625 9.375 C 17.297265 9.4823373 17.224769 9.7752324 16.71875 10.28125 C 16.212733 10.787268 16.001164 11.46972 16.0625 12.34375 C 15.617818 12.113743 15.195847 11.918673 14.8125 11.75 C 14.429153 11.581327 13.551632 11.645574 12.15625 11.90625 L 13.03125 8.0625 z M 6.78125 8.90625 C 6.3059 8.9369173 5.8992634 9.2127331 5.53125 9.71875 C 6.28261 9.7494187 6.769992 9.6197599 7 9.34375 C 7.1380047 9.2364127 7.4303173 9.1550851 7.875 9.09375 L 7.84375 9.03125 C 7.629076 8.9239127 7.2565999 8.8755825 6.78125 8.90625 z M 6.5625 9.15625 C 6.612335 9.1524165 6.6376651 9.1721661 6.6875 9.1875 L 6.71875 9.21875 C 6.5654113 9.3414207 6.3544258 9.4380824 6.09375 9.46875 C 6.2432555 9.2847435 6.412995 9.1677505 6.5625 9.15625 z "
     id="path2289" />
</svg>
