<?xml version="1.0" encoding="UTF-8" standalone="no"?>
<svg
   version="1.1"
   width="1785.0728"
   height="897.42932"
   id="svg55"
   viewBox="0 0 1785.0727 897.42933"
   sodipodi:docname="E151.svg"
   inkscape:version="1.4 (e7c3feb1, 2024-10-09)"
   xml:space="preserve"
   xmlns:inkscape="http://www.inkscape.org/namespaces/inkscape"
   xmlns:sodipodi="http://sodipodi.sourceforge.net/DTD/sodipodi-0.dtd"
   xmlns="http://www.w3.org/2000/svg"
   xmlns:svg="http://www.w3.org/2000/svg"
   xmlns:rdf="http://www.w3.org/1999/02/22-rdf-syntax-ns#"
   xmlns:cc="http://creativecommons.org/ns#"
   xmlns:dc="http://purl.org/dc/elements/1.1/"><title
     id="title1">E151</title><defs
     id="defs55"><inkscape:perspective
       sodipodi:type="inkscape:persp3d"
       inkscape:vp_x="0 : -897.29069 : 1"
       inkscape:vp_y="0 : 1000 : 0"
       inkscape:vp_z="24.700572 : -897.29069 : 1"
       inkscape:persp3d-origin="12.350286 : -899.05069 : 1"
       id="perspective2539" /></defs><sodipodi:namedview
     id="namedview55"
     pagecolor="#ffffff"
     bordercolor="#000000"
     borderopacity="0.25"
     inkscape:showpageshadow="2"
     inkscape:pageopacity="0.0"
     inkscape:pagecheckerboard="0"
     inkscape:deskcolor="#d1d1d1"
     inkscape:zoom="0.3250625"
     inkscape:cx="664.4876"
     inkscape:cy="144.58758"
     inkscape:window-width="1920"
     inkscape:window-height="1147"
     inkscape:window-x="1440"
     inkscape:window-y="25"
     inkscape:window-maximized="0"
     inkscape:current-layer="svg55"
     inkscape:document-units="px"
     showguides="false" /><path
     id="path17-5"
     style="fill:#000000;fill-opacity:1;stroke:none;stroke-width:25.3118;stroke-linecap:square;stroke-linejoin:miter;stroke-dasharray:none;stroke-opacity:1"
     inkscape:transform-center-x="-6.6617009"
     inkscape:transform-center-y="-43.554349"
     d="m 593.90503,0.0034688 c -2.02806,0.034632 -4.09181,0.3333764 -6.18931,0.8925084 -8.39291,2.2368163 -15.94632,5.3167153 -22.65658,9.2332358 -6.71016,3.916618 -8.94838,8.389466 -6.71165,13.428967 2.23763,5.039596 8.67114,6.998503 19.30073,5.875524 10.6286,-1.12115 10.07003,1.67942 -1.6798,8.389582 -11.75349,6.714009 -15.94687,23.498742 -12.58719,50.354399 3.35701,26.856525 13.42707,44.199175 30.21188,52.032315 -8.95158,36.92734 -24.3361,71.05661 -46.15678,102.38859 -21.82063,31.33179 -15.94762,46.44353 17.62281,45.32064 -7.83038,11.18544 -6.71119,17.90392 3.35961,20.14063 -8.95616,5.59547 -10.06977,10.63345 -3.35961,15.1069 5.79671,3.86682 -5.53587,21.40952 1.76812,29.0751 l -1.65726,-0.10522 -62.09981,116.19147 54.84513,5.11266 36.83337,-97.98992 c 21.30253,0.0811 40.66236,-5.66432 59.26632,-13.67887 17.01928,12.96738 29.22415,31.35133 36.83899,54.89961 -41.04535,32.38647 -71.39184,68.58959 -102.18002,114.43087 -9.63396,14.5724 -6.52343,34.09231 7.16263,44.94862 -50.28004,65.53167 -102.22973,173.163 -112.43918,200.66036 -115.36814,10.66174 -239.39286,36.51069 -292.6207,38.19749 C 169.14772,809.3126 136.17519,798.4254 109.28413,798.6991 33.594676,799.46948 -5.4421353,826.43152 0.61227281,895.81155 L 568.37364,897.42934 635.1314,844.32601 c 433.2841,1.30803 560.0235,-122.22476 708.8586,-134.34226 15.6193,36.70861 36.1367,73.94766 62.562,108.29792 -119.6895,-5.57819 -115.3089,-30.56512 -175.6439,-30.56512 -53.5306,0 -112.3527,23.79532 -112.3527,76.91169 0,32.29862 38.4398,31.25846 92.7231,31.25846 h 544.9076 c 20.3553,-0.004 34.312,-20.50938 26.8485,-39.44699 -29.7281,-75.39896 -94.6471,-179.09323 -160.2325,-266.62145 -32.7927,-43.7641 -65.5925,-83.11941 -94.8107,-112.4185 -14.6091,-14.64955 -28.2408,-26.79153 -41.465,-36.02353 15.0668,-4.06058 34.6882,-50.26078 -47.5961,-52.40248 -32.2524,-0.83945 -64.3838,12.20023 -89.2997,35.55379 -62.2063,0.26175 -128.7654,0.16484 -188.4303,-4.44563 2.3182,-52.77588 -154.8267,-65.32216 -178.96742,-86.74996 C 984.69452,297.41449 973.10244,197.48427 948.2084,134.85307 930.72765,90.87302 889.75261,14.160588 816.18852,12.562474 752.18899,11.17214 631.8857,21.453293 607.30017,115.16339 l -0.27996,-0.13152 c -10.07184,-15.666371 -8.67434,-29.652661 4.19385,-41.961072 12.87278,-12.309561 15.3904,-26.856019 7.5572,-43.640851 2.23677,-8.9515 -0.28094,-16.506986 -7.5572,-22.6603235 -5.45521,-4.6150523 -11.22495,-6.8706314 -17.30903,-6.7661547 z M 815.35427,51.034292 c 51.60039,1.120968 83.52474,63.894938 97.09366,98.033148 21.37102,53.76767 32.51593,123.06035 30.69853,187.67483 -40.63463,12.94532 -95.11397,37.07193 -134.513,60.1168 0.0386,-37.84607 -1.12987,-75.67897 -1.95251,-113.51323 16.55429,-16.77618 27.26009,-33.16202 31.96309,-49.1481 9.61529,-32.6827 2.93115,-73.4445 -36.08178,-79.72827 -17.34441,-2.79729 -34.97096,2.51905 -52.87409,15.94678 C 722.58512,155.2381 687.0011,142.18082 643.09258,131.20412 654.63744,53.978241 773.21865,50.118937 815.35427,51.034292 Z M 615.41542,156.9948 c 43.64128,7.83209 88.39955,23.49804 134.27839,46.99668 l 13.42708,-3.35959 c 31.81783,-29.37339 50.21046,-3.33541 41.95919,23.49459 -5.09093,16.54499 -34.76012,49.26643 -36.97428,55.29233 l 1.87896,86.44368 c -18.49794,9.84301 -35.13618,19.77197 -50.37131,29.96386 -7.35717,-20.04916 -18.56183,-37.01988 -33.70112,-50.84292 38.04575,-20.14261 58.74574,-56.5075 62.10545,-109.10025 h -8.39146 c -5.5946,46.99729 -22.66062,77.76926 -51.1943,92.31544 -28.53452,14.54706 -51.753,22.9432 -69.65701,25.18002 -20.14543,3.35691 -29.09095,-0.002 -26.85418,-10.07312 2.2367,-10.07092 0.55529,-18.46799 -5.04126,-25.17815 38.04935,2.23922 48.95673,-2.7965 32.73159,-15.105 -16.22601,-12.30764 -27.69934,-15.66569 -34.4095,-10.06938 4.47619,-16.78753 -4.47488,-25.17814 -26.85417,-25.17814 22.15121,-35.23913 41.78422,-72.04332 57.06793,-110.78005 z m 22.44613,19.30449 c -6.85381,0.27966 -12.93936,1.95708 -18.25416,5.03375 -10.62615,6.15333 -15.94519,12.02707 -15.94678,17.62281 26.85559,-8.95621 48.39725,-10.07908 64.62327,-3.35958 16.22514,6.71767 37.76389,11.19027 64.6195,13.42708 L 722.834,200.63376 c -24.61792,-8.95149 -45.32072,-15.94083 -62.10544,-20.98052 -8.39237,-2.51513 -16.0132,-3.63352 -22.86701,-3.35395 z m 0.62756,24.75349 c -14.82669,-0.27985 -25.31462,5.17435 -31.4689,16.36392 l -15.10877,10.06936 v 8.39335 l 13.42709,1.67604 c 20.14168,12.31129 50.9137,9.51249 92.31734,-8.39147 l 35.24751,5.04128 1.67979,-13.43085 -38.60522,-1.67793 c -23.49867,-11.74975 -42.66216,-17.76365 -57.48884,-18.0437 z m -7.9762,11.32828 c -4.47112,7.83073 -3.91571,15.10947 1.6798,21.81855 -7.83223,-2.23681 -14.54419,-4.47682 -20.14063,-6.71355 2.23766,-5.59459 8.38996,-10.63156 18.46083,-15.105 z m 25.18189,0.01 28.53398,11.74917 c -10.06961,4.47296 -20.14049,7.26641 -30.21001,8.38958 7.82937,-5.59392 8.38504,-12.30696 1.67603,-20.13875 z m 288.46443,185.06683 c 38.24517,70.65491 172.44527,84.82046 368.19267,84.94802 -5.5677,16.03316 -8.8387,33.64783 -8.8387,52.75197 0,30.45761 6.187,72.67241 20.1445,118.8145 -168.9157,20.81555 -268.2031,136.03245 -708.67444,132.62677 l -66.69577,53.05072 c -13.61929,10.83276 -20.38677,-25.10679 -7.07241,-49.82851 77.917,-184.99217 217.74436,-314.535 402.94415,-392.36369 z m 499.07767,84.71316 c 35.0247,0 88.7918,82.76395 133.3726,142.26023 51.7423,69.05349 103.4539,150.61203 134.7482,213.73421 0,0 -108.7712,8.77084 -202.3552,-38.91526 -78.4369,-39.96785 -148.3631,-203.11695 -148.3631,-255.82491 0,-62.56816 48.3201,-61.25427 82.5975,-61.25427 z"
     sodipodi:nodetypes="ccccccccsccccccccccccccscccccsssccsscscccssccccccsscccscccsscccccccccccsccccsccccccscccccccccccccccccccsscssscsscssssc" /><metadata
     id="metadata1"><rdf:RDF><cc:Work
         rdf:about=""><dc:title>E151</dc:title><dc:creator><cc:Agent><dc:title>Serge Rosmorduc</dc:title></cc:Agent></dc:creator><dc:source>BM EA 22</dc:source><dc:description>A Sphinx with nemes dress and straight beard.</dc:description></cc:Work></rdf:RDF></metadata></svg>
