<?xml version="1.0" encoding ="US-ASCII" standalone="yes"?>
<svg width="18.761335" height="17.977417">
<path style="fill:#000000; stroke:none" d=" M 17.854889 11.210689  L 0.885366 11.210689  L 1.37021 12.159295  L 17.391125 12.159295  L 17.854889 11.210689  Z  M 17.918129 17.429333  L 17.180325 12.812779  L 1.517771 12.812779  L 0.801046 17.429333  L 7.567774 17.429333  L 7.567774 14.351631  L 11.172481 14.351631  L 11.172481 17.429333  L 17.918129 17.429333  Z  M 10.624396 14.899714  L 8.115858 14.899714  L 8.115858 17.429333  L 10.624396 17.429333  L 10.624396 14.899714  Z  M 17.644087 9.376715  Q 17.306805 8.385948 16.516298 7.700843  Q 15.725793 7.015738 14.798266 6.826017  Q 14.081541 6.783856 14.355583 7.627062  Q 14.966908 8.554589 17.180325 9.503196  Q 17.686247 9.503196 17.644087 9.376715  Z  M 4.806274 1.619219  Q 5.56516 1.830021 6.071084 2.104063  Q 6.387286 1.872181 6.692948 1.914341  Q 6.99861 1.956502 7.146172 2.304324  Q 7.293733 2.652147 7.104011 2.978889  Q 6.91429 3.305631 6.735108 3.548053  Q 6.555927 3.790475 6.735108 4.053977  Q 6.91429 4.317479 7.146172 4.422879  Q 7.378053 4.52828 7.736416 4.032897  Q 8.094778 3.537513 8.136939 3.242391  Q 8.242339 2.673227 7.968297 2.019742  Q 7.694255 1.366257 6.96699 1.050055  Q 6.239725 0.733853 5.60732 0.870874  Q 4.974916 1.007895 4.806274 1.619219  Z  M 6.91429 4.718001  Q 6.766729 4.844482 6.492687 4.5072  Q 6.218645 4.169918 6.250265 3.790475  Q 6.281885 3.411032 6.598087 3.04213  Q 6.91429 2.673227 6.692948 2.462425  Q 6.471607 2.251624 6.218645 2.483505  L 6.050004 2.504586  Q 5.248958 2.082983 4.468992 1.956502  Q 4.216031 2.525666 3.773347 3.305631  Q 4.17387 3.326711 4.08955 3.621834  Q 4.216031 3.516433 4.511152 3.748314  Q 4.806274 3.980196 4.11063 3.938036  Q 4.216031 4.064517 4.17387 4.243698  Q 4.13171 4.422879 4.490072 4.359639  Q 4.827355 4.338559 5.322738 4.064517  Q 5.818122 3.790475 5.944603 2.905108  L 6.028924 2.905108  Q 5.965683 3.895875 5.375439 4.233158  Q 5.56516 4.907723 6.134324 5.434727  Q 6.408366 5.097444 6.91429 4.718001  Z  M 4.17387 2.905108  L 4.17387 2.799708  L 4.363591 2.694307  Q 4.574393 2.272704 5.417599 2.715387  L 5.881362 2.736467  L 5.839202 2.884028  L 5.417599 2.841868  Q 4.700874 3.17915 4.342511 2.947269  L 4.17387 2.905108  Z  M 4.405752 2.820788  Q 4.511152 2.862948 4.679794 2.884028  Q 4.553313 2.757547 4.637633 2.631067  Q 4.447912 2.715387 4.405752 2.820788  Z  M 4.932755 2.884028  Q 5.080317 2.841868 5.291118 2.757547  L 4.932755 2.631067  Q 5.059237 2.757547 4.932755 2.884028  Z  M 4.321431 2.462425  Q 4.321431 2.357024 4.511152 2.251624  Q 4.700874 2.146223 4.995996 2.230544  Q 5.291118 2.314864 5.733801 2.483505  L 5.839202 2.588906  Q 5.375439 2.525666 5.080317 2.409725  Q 4.785194 2.293784 4.321431 2.462425  Z  M 7.968297 4.696921  Q 6.682408 5.645528 6.260805 6.193612  Q 5.649481 6.931417 5.55462 7.858944  Q 5.459759 8.78647 6.197565 9.650757  Q 6.492687 8.78647 7.778576 8.944571  Q 9.064466 9.102674 10.266034 9.028893  Q 11.467603 8.955112 13.533458 8.027585  Q 13.533458 6.889257 13.301576 6.868177  Q 10.687637 7.036818 9.507149 6.140912  Q 8.32666 5.245005 7.968297 4.696921  Z  M 0.442683 10.536123  Q 0.105401 10.198841 0.389983 9.735078  Q 0.674565 9.271315 2.192336 9.713998  Q 3.604706 9.840478 4.321431 9.376715  Q 5.038157 8.912951 4.953835 8.069746  Q 4.869515 7.22654 5.818122 5.87741  Q 5.164637 5.287166 4.932755 4.46504  L 4.574393 4.591521  Q 3.857668 6.804936 3.256883 7.100059  Q 2.656099 7.395181 2.371517 7.23708  Q 2.086935 7.078979 2.160716 6.920877  Q 2.234496 6.762776 2.561239 6.889257  Q 2.887981 7.015738 3.299044 6.436034  Q 3.710107 5.85633 3.941988 4.380719  Q 3.963068 4.085597 3.857668 4.001276  Q 3.752267 3.916956 3.878748 3.811555  Q 3.731187 3.769395 3.857668 3.579673  Q 3.267424 3.579673 3.657406 2.999969  Q 4.047389 2.420265 4.19495 1.72462  Q 3.878748 1.577059 3.826048 1.081675  Q 3.773347 0.586292 3.984149 0.470351  Q 4.19495 0.35441 4.005229 0.36495  Q 3.815507 0.37549 3.783887 0.28063  Q 3.752267 0.185769 3.857668 0.111988  Q 3.963068 0.038208 4.12117 0.006588  Q 4.279271 -0.025033 4.416292 0.090908  Q 4.553313 0.206849 4.490072 0.35441  Q 4.637633 0.670612 4.416292 0.891954  Q 4.19495 1.113296 4.342511 1.408418  Q 4.827355 0.480891 5.649481 0.417651  Q 6.471607 0.35441 7.219952 0.649532  Q 7.968297 0.944654 8.432061 1.7984  Q 8.895824 2.652147 8.242339 4.275318  Q 8.621782 4.675841 9.897131 5.772009  Q 11.172481 6.868177 13.93398 6.172532  Q 14.650705 5.287166 15.525532 5.192305  Q 16.400358 5.097444 17.222485 6.509814  Q 16.948442 7.036818 16.368738 6.288473  Q 15.789034 5.540127 15.114469 6.151452  Q 16.273878 6.741696 17.211945 7.490041  Q 18.150011 8.238387 18.550533 9.071053  Q 18.951057 9.903719 18.276491 10.557203  L 18.761335 10.557203  L 17.728407 12.812779  L 18.571613 17.977417  L 0.168641 17.977417  L 0.969687 12.812779  L 0 10.557203  L 0.442683 10.536123  Z  M 6.113244 10.536123  L 11.425443 10.536123  Q 11.046 10.1356 11.457063 9.829938  Q 11.868126 9.524276 13.122395 9.851019  Q 14.376663 10.177761 14.798266 9.439956  Q 14.650705 9.060513 14.028841 8.923491  Q 13.406977 8.78647 12.922133 9.049973  Q 12.437289 9.313475 10.803577 9.619137  Q 9.169866 9.924799 8.042078 9.650757  Q 6.91429 9.376715 7.104011 9.966959  Q 7.293733 10.557203 6.113244 10.536123  Z "/></svg>
