<?xml version="1.0" encoding="UTF-8" standalone="no"?>
<svg
   width="2374.8999"
   height="1798.3"
   version="1.1"
   id="svg1"
   sodipodi:docname="E154A.svg"
   inkscape:version="1.4 (e7c3feb1, 2024-10-09)"
   xmlns:inkscape="http://www.inkscape.org/namespaces/inkscape"
   xmlns:sodipodi="http://sodipodi.sourceforge.net/DTD/sodipodi-0.dtd"
   xmlns="http://www.w3.org/2000/svg"
   xmlns:svg="http://www.w3.org/2000/svg"
   xmlns:rdf="http://www.w3.org/1999/02/22-rdf-syntax-ns#"
   xmlns:cc="http://creativecommons.org/ns#"
   xmlns:dc="http://purl.org/dc/elements/1.1/">
  <title
     id="title1">E154A</title>
  <defs
     id="defs1" />
  <sodipodi:namedview
     id="namedview1"
     pagecolor="#ffffff"
     bordercolor="#000000"
     borderopacity="0.25"
     inkscape:showpageshadow="2"
     inkscape:pageopacity="0.0"
     inkscape:pagecheckerboard="0"
     inkscape:deskcolor="#d1d1d1"
     inkscape:zoom="0.090362031"
     inkscape:cx="553.32975"
     inkscape:cy="1455.2572"
     inkscape:window-width="1288"
     inkscape:window-height="730"
     inkscape:window-x="1440"
     inkscape:window-y="30"
     inkscape:window-maximized="0"
     inkscape:current-layer="svg1"
     showguides="true" />
  <path
     id="path1"
     style="fill:#000000;stroke:none;stroke-width:99.9947"
     d="M 685.74805,0.07421875 C 669.10248,0.74676642 651.69982,5.9589868 633.54102,15.710938 c -36.3176,19.503894 -54.47657,58.51173 -54.47657,117.023442 0,58.51169 30.9361,115.34123 92.81055,170.49023 -30.93723,33.62742 -53.80354,70.61778 -68.59961,110.9707 h -76.66992 c 13.45095,48.42342 22.19327,83.39638 26.22851,104.91797 4.03532,21.52152 3.36281,43.04286 -2.01757,64.56445 -22.86665,-28.24703 -46.74066,-37.66172 -71.625,-28.24609 -24.88422,9.4157 -37.32618,19.50292 -37.32618,30.26367 0,12.1059 16.13959,16.81324 48.42188,14.12305 -36.3176,78.01559 -32.95515,120.38589 10.08789,127.11133 -9.41563,17.48626 -11.43311,34.30019 -6.05273,50.4414 -18.83134,25.55684 -32.95345,56.4949 -42.36915,92.8125 2.69021,6.72545 12.10496,11.43286 28.2461,14.12305 4.03531,6.72551 1.34538,12.10531 -8.07031,16.14063 2.69019,9.41563 7.39754,14.79744 14.12304,16.14257 -8.07056,12.10588 -6.05316,19.50324 6.05274,22.19336 -6.72552,21.5216 -2.68866,39.68056 12.10742,54.47657 L 439.8457,1168.7949 c 20.17646,13.451 45.73465,18.1583 76.67188,14.1231 l 40.35156,-179.5703 c 24.21178,2.6898 47.08004,2.3546 68.60156,-1.0079 21.52153,-3.36256 55.8442,47.395 44.38672,151.3223 -5.47758,49.6855 1.21718,209.0357 -69.7207,286.3945 -77.89693,84.9478 -328.65709,85.5812 -350.12891,76.7813 -41.02554,-16.8137 -74.98872,-24.5485 -101.89062,-23.2031 -56.494062,0 -94.492196,29.593 -113.996096,88.7773 -6.10152,18.515 -8.628703,33.787 -8.345703,46.5098 L 0,1628.8184 v 169.4824 H 2374.7676 V 1630.8359 1487.584 c 0,-124.1332 -43.7153,-224.6308 -127.1114,-306.6817 -204.8366,-201.5334 -575.9447,71.6818 -864.5605,-36.3164 -104.2449,-39.0078 -192.0126,-75.9983 -263.3027,-110.9707 -71.2902,-34.97264 -112.9879,-75.99777 -125.09378,-123.07614 26.90198,-108.95281 0.67323,-211.18173 -78.6875,-306.68359 8.07057,-14.79608 84.73928,-193.02121 230.00978,-534.675782 h -42.3692 C 1022.9465,249.42074 971.83207,347.61276 950.31055,363.75391 c 2.69019,-79.36066 17.48677,-136.52746 44.38867,-171.5 39.00788,-32.28229 60.52908,-59.5207 64.56448,-81.71485 4.0352,-22.19408 -6.7264,-44.72319 -32.2832,-67.589841 -36.31774,-21.521523 -64.90101,-25.221173 -85.75003,-11.097657 -20.84903,14.123517 -39.34323,41.361902 -55.48438,81.714848 -39.00779,57.83912 -77.67844,97.18417 -116.01367,118.0332 -38.3353,20.84895 -60.19384,33.9633 -65.57422,39.34375 -51.11368,-47.07843 -77.00719,-92.4758 -77.67968,-136.19141 -0.67258,-43.715663 12.10653,-71.626529 38.33593,-83.732419 26.22934,-12.105823 47.07823,-10.760857 62.54688,4.035157 15.46864,14.79608 19.16823,29.927847 11.09765,45.396482 -8.07064,15.46858 -18.49505,15.46858 -31.27343,0 -12.77845,-15.468635 -23.20482,-23.203123 -31.27539,-23.203123 -12.1059,8.070571 -14.79583,21.859373 -8.07032,41.363283 6.7255,19.50396 22.19453,29.25586 46.40625,29.25586 44.38824,0 66.24679,-18.49616 65.57422,-55.486331 C 779.14775,55.390693 763.67879,28.489488 733.41406,11.675781 718.28174,3.2689287 702.39361,-0.59832892 685.74805,0.07421875 Z M 975.91016,80.148438 c 4.79191,0.420344 9.70979,2.817885 14.7539,7.189453 21.52154,12.105888 12.10474,32.282259 -28.24804,60.529299 -43.04318,67.25482 -64.56446,147.28794 -64.56446,240.09961 -10.76076,12.10589 -26.9023,20.84813 -48.42383,26.22851 H 661.78711 C 692.7244,348.28555 734.08687,301.20797 785.87305,272.96094 837.65929,244.7139 887.76407,196.96185 936.1875,129.70703 948.29341,95.407056 961.53442,78.887401 975.91016,80.148438 Z M 579.06445,452.53125 H 936.1875 c -17.48627,49.76862 -35.64523,90.79383 -54.47656,123.07617 -41.69799,-20.17645 -84.40549,-33.29079 -128.1211,-39.34375 -43.71567,-6.05294 -95.16535,0.33664 -154.34961,19.16797 -8.07057,-47.07837 -14.7954,-81.3788 -20.17578,-102.90039 z m 130.26367,120.30078 c 12.86249,0.33627 26.27119,1.59742 40.22657,3.7832 55.8215,8.74314 103.9088,31.94665 144.26172,69.60938 52.45874,84.7411 75.66225,149.30519 69.60937,193.69336 -6.05301,44.38823 -21.18476,73.98132 -45.39648,88.77734 -24.21178,14.79602 -57.16725,18.83092 -98.86524,12.10547 -41.69798,-6.72544 -62.54687,-35.64406 -62.54687,-86.75781 33.62742,0 50.77666,-22.53113 51.44922,-67.5918 0.67256,-45.0608 -8.40692,-71.62669 -27.23829,-79.69726 -18.8314,-8.07057 -37.66281,-8.07057 -56.49414,0 -59.18425,-21.52152 -121.05841,-34.30069 -185.62304,-38.33594 8.07056,-28.24703 31.27414,-52.79356 69.60937,-73.64258 28.75147,-15.63677 62.42038,-22.95218 101.00781,-21.94336 z M 532.6582,700.70117 c 56.49406,-1.34513 118.36822,12.10648 185.62305,40.35352 37.66273,-10.76076 56.49414,0.67141 56.49414,34.29883 0,33.6274 -20.84882,50.4414 -62.54687,50.4414 0,106.26269 51.11443,159.39453 153.34179,159.39453 4.29521,0 8.19032,-0.55974 12.31055,-0.80468 L 714.56445,1096.373 c -7.96274,-96.2249 -27.46839,-142.81642 -58.83007,-138.42573 -33.62744,4.70781 -63.89101,7.06054 -90.79297,7.06054 -26.9019,0 -39.68107,-6.05238 -38.33594,-18.1582 1.34507,-12.10589 -2.01732,-20.17562 -10.08789,-24.21094 h 40.35156 l -4.03516,-14.12305 -44.38671,-6.05468 c 4.03524,-4.03532 4.03524,-10.08764 0,-18.15821 18.83133,-2.69019 25.89336,-10.75997 21.18554,-24.21093 -4.70788,-13.45095 -8.74473,-17.82305 -12.10742,-13.11524 -3.36275,4.70781 -3.69801,9.75236 -1.00781,15.13282 2.69019,5.38039 -10.0889,5.38038 -38.33594,0 5.38038,-24.21178 24.21179,-60.52964 56.49414,-108.95313 14.79601,-13.45096 55.82135,-7.39865 123.07617,18.1582 v -16.14062 c -64.56464,-29.59209 -107.60739,-39.68126 -129.1289,-30.26563 0,-10.75885 1.34593,-18.82665 4.03515,-24.20703 z m 24.21094,62.54688 c -12.10582,8.07057 -18.1582,16.81477 -18.1582,26.23047 0,9.4157 6.05238,16.14053 18.1582,20.17578 l 68.60156,-14.12305 v -14.125 z m 418.46875,227.06054 c 22.97116,33.94731 62.66291,65.20371 119.23441,93.74411 74.6528,37.6628 165.7828,75.9999 273.3906,115.0078 212.1208,76.8939 460.1637,-33.7192 630.7676,-37.705 89.9533,-2.1018 156.7863,17.8641 200.5019,59.8984 69.945,67.2549 104.918,158.7221 104.918,274.4004 -0.6382,40.2098 -1.3594,106.4425 -1.3594,139.041 -41.3671,0 -95.6812,-0.8378 -145.8672,-0.1308 -662.8803,-9.6786 -1420.20251,-5.0254 -2083.189425,-5.6036 1.40885,-63.1735 35.469945,-94.9765 102.630855,-94.9765 36.31761,12.1058 67.25369,21.5226 92.81055,28.248 12.65393,3.3299 290.05982,0.7068 375.18164,-96.7246 69.8625,-79.9654 75.7277,-218.3352 73.74219,-298.8086 z M 58.511719,1687.3301 H 2303.7441 v 52.459 H 58.511719 Z"
     sodipodi:nodetypes="ssscccscssccccccccccccsssscscccccscssccccccscscscssssscsssssscccccscscccsccsscssscssccssccscsccssscccccssscccccccsccccccssscccccssccccccc" />
  <metadata
     id="metadata1">
    <rdf:RDF>
      <cc:Work
         rdf:about="">
        <dc:title>E154A</dc:title>
        <dc:creator>
          <cc:Agent>
            <dc:title>S. J. P. THOMAS</dc:title>
          </cc:Agent>
        </dc:creator>
        <dc:description>Modified (S. Rosmorduc): a mumiform sphinx. Further modification depends on the availability of a good epigraphical source for this sign.
</dc:description>
      </cc:Work>
    </rdf:RDF>
  </metadata>
</svg>
