<?xml version="1.0" encoding="UTF-8" standalone="no"?>
<svg
   version="1.1"
   width="1890.3672"
   height="973.02887"
   id="svg55"
   viewBox="0 0 1890.3671 973.02888"
   sodipodi:docname="E159B.svg"
   inkscape:version="1.4 (e7c3feb1, 2024-10-09)"
   xml:space="preserve"
   xmlns:inkscape="http://www.inkscape.org/namespaces/inkscape"
   xmlns:sodipodi="http://sodipodi.sourceforge.net/DTD/sodipodi-0.dtd"
   xmlns="http://www.w3.org/2000/svg"
   xmlns:svg="http://www.w3.org/2000/svg"
   xmlns:rdf="http://www.w3.org/1999/02/22-rdf-syntax-ns#"
   xmlns:cc="http://creativecommons.org/ns#"
   xmlns:dc="http://purl.org/dc/elements/1.1/"><title
     id="title1">E159B</title><defs
     id="defs55"><inkscape:perspective
       sodipodi:type="inkscape:persp3d"
       inkscape:vp_x="0 : -821.69114 : 1"
       inkscape:vp_y="0 : 1000 : 0"
       inkscape:vp_z="24.700572 : -821.69114 : 1"
       inkscape:persp3d-origin="12.350286 : -823.45114 : 1"
       id="perspective2539" /></defs><sodipodi:namedview
     id="namedview55"
     pagecolor="#ffffff"
     bordercolor="#000000"
     borderopacity="0.25"
     inkscape:showpageshadow="2"
     inkscape:pageopacity="0.0"
     inkscape:pagecheckerboard="0"
     inkscape:deskcolor="#d1d1d1"
     inkscape:zoom="0.56566237"
     inkscape:cx="697.41249"
     inkscape:cy="873.31247"
     inkscape:window-width="2160"
     inkscape:window-height="1379"
     inkscape:window-x="1440"
     inkscape:window-y="25"
     inkscape:window-maximized="0"
     inkscape:current-layer="svg55"
     inkscape:document-units="px"
     showguides="true" /><path
     id="path17-5"
     style="fill:#000000;fill-opacity:1;stroke:none;stroke-width:25.3118;stroke-linecap:square;stroke-linejoin:miter;stroke-dasharray:none;stroke-opacity:1"
     inkscape:transform-center-x="-6.6617009"
     inkscape:transform-center-y="-43.554349"
     d="m 692.7461,0.00346956 c -2.02806,0.034632 -4.09196,0.33344612 -6.18946,0.89257813 -8.39291,2.23681631 -15.94599,5.31590141 -22.65625,9.23242131 -6.71016,3.916618 -8.94766,8.390187 -6.71093,13.429688 2.23763,5.039596 8.67119,6.997979 19.30078,5.875 10.6286,-1.12115 10.07014,1.680463 -1.67969,8.390625 -11.75349,6.714009 -15.94757,23.497858 -12.58789,50.353515 3.35701,26.856523 13.42808,44.200063 30.21289,52.033203 -8.95158,36.92734 -24.33752,71.05474 -46.1582,102.38672 -21.82063,31.33179 -15.94739,46.44515 17.62304,45.32226 -7.83038,11.18544 -6.71142,17.90392 3.35938,20.14063 -8.95616,5.59547 -10.06954,10.63202 -3.35938,15.10547 5.79671,3.86682 -5.53445,21.41059 1.76953,29.07617 l -1.6582,-0.10547 -62.09961,116.1914 54.84571,5.11329 36.83203,-97.99024 c 21.30253,0.0811 40.66362,-5.66514 59.26757,-13.67969 17.01928,12.96738 29.22306,31.35212 36.8379,54.9004 -41.04535,32.38646 -71.39151,68.5884 -102.17969,114.42968 -9.63396,14.5724 -6.52395,34.09291 7.16211,44.94922 C 647.54788,637.47627 600.26189,733.51848 585.94922,768.25542 515.40374,704.93621 393.89773,629.95574 316.76953,586.34331 306.833,564.6614 284.03751,543.51036 257.70703,528.85308 c -1.50226,-84.0159 49.39478,-172.79429 64.375,-269.09571 l 0.64649,-4.1582 -1.08399,-4.06445 c -8.75236,-32.85635 -38.16652,-51.49983 -68.60937,-61.4668 -29.97201,-9.81282 -63.31731,-12.58927 -91.66993,-11.8457 -28.35303,-0.74375 -61.699186,2.03266 -91.671871,11.8457 -30.442854,9.96697 -59.857009,28.61045 -68.609374,61.4668 L 0,255.59917 l 0.646485,4.1582 c 15.214271,97.80599 67.595112,187.8633 64.380859,273.04102 -4.612605,122.23405 -19.49304,241.02208 -40.896485,361.74805 h -12.74414 l -0.523438,0.10546 0.523438,78.37696 1875.804681,-0.63086 3.1758,-77.85156 h -26.9727 c 15.5359,-4.69832 24.8612,-21.9223 18.4825,-38.10743 -29.7281,-75.39896 -94.6471,-179.09287 -160.2325,-266.62109 -32.7927,-43.7641 -65.5923,-83.11888 -94.8105,-112.41797 -14.6091,-14.64955 -28.2407,-26.79144 -41.4649,-36.02344 15.0668,-4.06058 34.6867,-50.26064 -47.5976,-52.40234 -32.2524,-0.83945 -64.3829,12.19917 -89.2988,35.55273 -62.2063,0.26175 -128.7648,0.16516 -188.4297,-4.44531 2.3182,-52.77588 -154.8281,-65.3222 -178.9688,-86.75 2.4617,-35.91746 -9.1294,-135.84731 -34.0234,-198.47851 C 1029.57,90.873029 988.59534,14.160177 915.03125,12.562063 851.03172,11.171729 730.72811,21.453528 706.14258,115.16362 l -0.28125,-0.13281 c -10.07184,-15.666368 -8.67288,-29.652524 4.19531,-41.960935 12.87278,-12.309561 15.38984,-26.855793 7.55664,-43.640624 2.23677,-8.9515 -0.28038,-16.506819 -7.55664,-22.6601565 C 704.60143,2.1540422 698.83018,-0.10100714 692.7461,0.00346956 Z M 914.19532,51.034719 c 51.60039,1.120968 83.52483,63.894991 97.09378,98.033201 21.371,53.76767 32.5166,123.05935 30.6992,187.67383 -40.6347,12.94532 -95.11466,37.07231 -134.51369,60.11719 0.0386,-37.84607 -1.12853,-75.67942 -1.95117,-113.51368 16.55429,-16.77618 27.25989,-33.16235 31.96289,-49.14843 9.61529,-32.6827 2.9309,-73.44475 -36.08203,-79.72852 -17.34441,-2.79729 -34.97187,2.51954 -52.875,15.94727 C 821.42625,155.23743 785.84212,142.18134 741.9336,131.20464 753.47846,53.978762 872.0597,50.119364 914.19532,51.034719 Z M 714.25782,156.9937 c 43.64128,7.83209 88.3985,23.49941 134.27734,46.99805 l 13.42773,-3.35938 c 31.81783,-29.37339 50.21026,-3.33586 41.95899,23.49414 -5.09093,16.54499 -34.76045,49.26512 -36.97461,55.29102 l 1.87891,86.44531 c -18.49794,9.84301 -35.13597,19.771 -50.3711,29.96289 -7.35717,-20.04916 -18.56188,-37.01875 -33.70117,-50.84179 38.04575,-20.14261 58.74576,-56.50882 62.10547,-109.10157 h -8.39063 c -5.5946,46.99729 -22.66163,77.77023 -51.19531,92.31641 -28.53452,14.54706 -51.75224,22.94287 -69.65625,25.17969 -20.14543,3.35691 -29.09224,-0.003 -26.85547,-10.07422 2.2367,-10.07092 0.55554,-18.46758 -5.04101,-25.17774 38.04935,2.23922 48.95756,-2.79697 32.73242,-15.10547 -16.22601,-12.30764 -27.7,-15.66466 -34.41016,-10.06836 4.47619,-16.78753 -4.47422,-25.17773 -26.85351,-25.17773 22.15121,-35.23913 41.78465,-72.04452 57.06836,-110.78125 z m 22.44531,19.30469 c -6.85381,0.27966 -12.93911,1.95848 -18.25391,5.03515 -10.62615,6.15333 -15.94567,12.02536 -15.94726,17.6211 26.85559,-8.95621 48.39702,-10.07888 64.62304,-3.35938 16.22514,6.71767 37.76549,11.19093 64.6211,13.42774 l -10.07032,-8.39063 c -24.61792,-8.95149 -45.32074,-15.94078 -62.10546,-20.98047 -8.39237,-2.51513 -16.01338,-3.63308 -22.86719,-3.35351 z m 0.62695,24.7539 c -14.82669,-0.27985 -25.31447,5.17372 -31.46875,16.36329 l -15.10742,10.07031 v 8.39258 l 13.42578,1.67578 c 20.14168,12.31129 50.91472,9.51333 92.31836,-8.39063 l 35.24805,5.04102 1.67968,-13.43164 -38.60546,-1.67774 c -23.49867,-11.74975 -42.66356,-17.76292 -57.49024,-18.04297 z m -7.97461,11.32813 c -4.47112,7.83073 -3.91582,15.10928 1.67969,21.81836 -7.83223,-2.23681 -14.54419,-4.47616 -20.14063,-6.71289 2.23766,-5.59459 8.39007,-10.63203 18.46094,-15.10547 z m 25.18164,0.01 28.53321,11.75 c -10.06961,4.47297 -20.13947,7.26551 -30.20899,8.38868 7.82937,-5.59392 8.38479,-12.30689 1.67578,-20.13868 z m -593.17188,5.83399 c 24.89081,-0.73994 55.40361,2.05844 79.22462,9.85742 8.09241,2.64946 15.09703,5.7203 20.99218,9.18164 L 64.464844,235.48808 c 5.176868,-2.73193 11.015558,-5.22633 17.673828,-7.40625 23.821598,-7.79917 54.335418,-10.59756 79.226558,-9.85742 z m -116.92773,57.08594 233.3418,2.10156 c -16.94583,73.60372 -56.5438,151.39355 -59.93164,235.37891 -18.24707,-4.48996 -36.10246,-4.84667 -50.90039,0.77734 -11.27254,4.28421 -21.5359,2.82308 -37.2754,9.94336 -34.490095,15.6028 -24.53137,88.24425 21.21875,110.07617 21.87002,10.43634 48.37538,15.98566 59.01563,15.68945 5.56746,-0.15498 10.257,-0.14415 15.1836,-0.17968 6.57486,74.86045 16.51189,148.93162 29.07031,223.32617 L 68.933594,870.31987 C 87.677854,758.86321 100.70109,648.17552 104.99805,534.3062 108.51055,441.22475 62.503808,355.77535 44.4375,275.31011 Z m 998.5645,122.14624 c 38.2451,70.65491 172.444,84.82166 368.1914,84.94922 -5.5677,16.03316 -8.8379,33.64781 -8.8379,52.75195 0,30.45761 6.187,72.67237 20.1445,118.81446 -168.9157,20.81555 -268.2044,136.03263 -708.67578,132.62695 l -65.29297,51.93555 c -3.54013,-11.87223 -8.33041,-23.25424 -13.96484,-32.98633 1.16201,-5.38147 2.82556,-10.77887 5.49023,-15.72656 77.917,-184.99217 217.74553,-314.53655 402.94536,-392.36524 z m 499.0761,84.71485 c 35.0247,0 88.7923,82.76348 133.3731,142.25976 51.7423,69.05349 103.4537,150.6122 134.748,213.73438 0,0 -108.7714,8.77008 -202.3554,-38.91602 -78.4369,-39.96785 -148.3633,-203.11626 -148.3633,-255.82422 0,-62.56816 48.3202,-61.2539 82.5976,-61.2539 z M 265.46875,651.58354 c 4.53395,0.99847 8.10422,2.28911 10.4375,4 100.84547,82.0993 170.0551,155.42371 294.58985,229.70118 3.92166,2.33903 9.84795,5.7401 16.27343,9.26172 H 298.59766 C 284.18225,813.23645 272.80459,732.77545 265.46875,651.58354 Z m 1177.36325,58.4004 c 15.6193,36.70861 36.1372,73.94661 62.5625,108.29687 -119.6895,-5.57819 -115.3095,-30.56445 -175.6445,-30.56445 -53.5306,0 -112.3535,23.79574 -112.3535,76.91211 0,20.32384 15.2576,27.4297 40.0683,29.91797 H 670.83985 l 63.13281,-50.22071 c 433.28414,1.30803 560.02424,-122.2243 708.85934,-134.34179 z"
     sodipodi:nodetypes="ccccccccsccccccccccccccccccscscccsccccccccsscscccssccccccsscccccccsccccccccccccscccccsccccccscccccccccccccccccccsccsccccsssscccscccsccccccsscsssccscccccsscccc" /><metadata
     id="metadata1"><rdf:RDF><cc:Work
         rdf:about=""><dc:creator><cc:Agent><dc:title>Serge Rosmorduc</dc:title></cc:Agent></dc:creator><dc:source>BM EA 22</dc:source><dc:description>A Sphinx with nemes dress and straight beard, holding a vase. The front pawn are in fact human arms.</dc:description><dc:title>E159B</dc:title></cc:Work></rdf:RDF></metadata></svg>
