<?xml version="1.0" encoding="UTF-8" standalone="no"?>
<svg
   xmlns:dc="http://purl.org/dc/elements/1.1/"
   xmlns:cc="http://creativecommons.org/ns#"
   xmlns:rdf="http://www.w3.org/1999/02/22-rdf-syntax-ns#"
   xmlns:svg="http://www.w3.org/2000/svg"
   xmlns="http://www.w3.org/2000/svg"
   xmlns:sodipodi="http://sodipodi.sourceforge.net/DTD/sodipodi-0.dtd"
   xmlns:inkscape="http://www.inkscape.org/namespaces/inkscape"
   width="1800"
   height="1800"
   id="svg2461"
   sodipodi:version="0.32"
   inkscape:version="0.46"
   sodipodi:docname="US248E16B.svg"
   inkscape:output_extension="org.inkscape.output.svg.inkscape"
   version="1.0">
  <metadata
     id="metadata2468">
    <rdf:RDF>
      <cc:Work
         rdf:about="">
        <dc:format>image/svg+xml</dc:format>
        <dc:type
           rdf:resource="http://purl.org/dc/dcmitype/StillImage" />
      </cc:Work>
    </rdf:RDF>
  </metadata>
  <defs
     id="defs2466">
    <inkscape:perspective
       sodipodi:type="inkscape:persp3d"
       inkscape:vp_x="0 : 8.9916086 : 1"
       inkscape:vp_y="0 : 1000 : 0"
       inkscape:vp_z="20.592178 : 8.9916086 : 1"
       inkscape:persp3d-origin="10.296089 : 5.9944057 : 1"
       id="perspective2470" />
  </defs>
  <sodipodi:namedview
     inkscape:window-height="712"
     inkscape:window-width="1024"
     inkscape:pageshadow="2"
     inkscape:pageopacity="0.0"
     guidetolerance="10.0"
     gridtolerance="10.0"
     objecttolerance="10.0"
     borderopacity="1.0"
     bordercolor="#666666"
     pagecolor="#ffffff"
     id="base"
     showgrid="false"
     inkscape:zoom="0.18032987"
     inkscape:cx="905.38866"
     inkscape:cy="698.29157"
     inkscape:window-x="20"
     inkscape:window-y="42"
     inkscape:current-layer="svg2461" />
  <path
     style="fill:#000000;stroke:none"
     d="M 1037.3438,390.09375 C 1018.4916,391.6853 1006.3861,408.87757 998.8125,424.5 C 935.80208,535.10417 872.79167,645.70833 809.78125,756.3125 C 793.45758,733.86654 776.87902,711.57413 762.71875,687.75 C 768.22283,653.95655 774.21266,618.49921 764.19666,585.02227 C 752.54557,537.58275 727.46932,494.88818 700.625,454.5 C 689.47079,455.65711 678.31257,456.77006 667.15625,457.90625 C 665.87571,492.26214 669.68652,526.93726 664.625,561.0625 C 663.31426,567.70855 659.50468,577.09151 650.87576,575.1808 C 617.54904,575.86292 582.95502,576.13134 551.78125,589.09375 C 538.85963,596.77891 529.058,609.16014 514.72214,614.64868 C 484.74272,628.83786 451.50503,634.05639 419.65933,642.4676 C 399.58165,646.963 377.42242,649.86194 361.21875,663.46875 C 354.23607,670.13896 353.28196,681.44027 358.31446,689.56334 C 362.5443,701.49425 373.67358,709.16784 382.34375,717.1875 C 381.98498,734.77663 397.75834,748.49393 414.1875,751.4375 C 446.46509,760.37063 479.74598,750.6101 512.15625,748.1875 C 528.82558,747.37647 545.90404,751.51085 559.125,761.96875 C 572.8113,770.62017 589.78858,775.45183 605.8125,771.4375 C 613.43602,770.46861 621.79188,774.20991 624.0625,782.09375 C 634.2461,803.50936 633.27117,828.59292 642.96875,850.3125 C 648.12354,864.72131 656.7855,877.68161 662.59375,891.6875 C 665.84273,914.28284 655.899,935.88133 648.71367,956.86442 C 639.0312,981.94285 627.07756,1006.102 614.8125,1030.0938 C 569.55235,1050.2431 518.30848,1053.011 469.5,1046.6562 C 459.59486,1045.6058 448.96334,1046.7501 439.5,1045.0938 C 426.71598,1028.4616 417.71156,1009.5644 406.16137,992.109 C 363.76241,921.88536 320.51273,851.97889 285.25,777.96875 C 280.90625,763.99825 282.00242,748.94456 280.75,734.4375 C 280.21854,711.87169 281.30127,689.00964 286.125,667.03125 C 300.12729,661.72392 300.34279,637.89321 285.6875,633.21875 C 274.8366,628.26769 262.37194,629.94609 251.0625,628.34375 C 226.07742,596.43005 203.63852,562.1397 184.14068,526.46886 C 160.18951,483.04325 139.995,437.35037 121.90625,391.125 C 79.410703,413.70135 37.041721,436.22447 -5.46875,458.8125 C 48.578971,531.10893 98.338097,607.83969 129.3125,693.0625 C 121.63036,704.98801 110.96728,718.92673 115.25,734.09375 C 119.65881,743.94331 133.74152,749.16407 142.78125,742.46875 C 171.66441,755.39231 199.84116,771.20233 224.60325,791.26696 C 232.72771,797.37341 240.36498,803.99698 244.97837,813.18999 C 294.72192,890.44199 335.12445,972.90885 377.0726,1054.5122 C 378.21861,1058.4132 383.77833,1063.3958 378.125,1066.25 C 366.30529,1079.0947 358.12127,1095.1838 354.25,1112.1875 C 302.86458,1112.1875 251.47917,1112.1875 200.09375,1112.1875 C 190.09428,1119.3708 180.19569,1131.8625 184.46875,1144.9688 C 189.48666,1159.9383 206.83523,1164.5081 214.5042,1177.621 C 236.42842,1204.468 256.24394,1233.1398 271.21875,1264.5625 C 254.23414,1265.2148 234.13808,1267.8126 223.75,1282.7812 C 216.20419,1295.4063 223.53743,1313.3406 237.59977,1317.2846 C 252.58129,1324.1489 269.58353,1324.6389 285.875,1325.1562 C 258.06065,1487.8955 230.26112,1650.6373 202.4375,1813.375 C 385.03125,1813.375 567.625,1813.375 750.21875,1813.375 C 750.21875,1725.0729 750.21875,1636.7708 750.21875,1548.4688 C 806.71875,1548.4687 863.21875,1548.4688 919.71875,1548.4688 C 919.71875,1636.7708 919.71875,1725.0729 919.71875,1813.375 C 1100.6146,1813.375 1281.5104,1813.375 1462.4062,1813.375 C 1437.8819,1649.8026 1413.3652,1486.2291 1388.8438,1322.6562 C 1408.4746,1322.0466 1431.4639,1320.3332 1444.7812,1303.9688 C 1451.8202,1294.2803 1450.3906,1277.9296 1438.625,1272.5312 C 1425.4436,1264.7936 1409.665,1265.2369 1394.875,1264.0938 C 1396.2056,1232.4918 1418.7439,1207.3449 1441.0057,1187.1576 C 1453.0018,1176.7916 1466.5612,1166.6413 1479.625,1158.9062 C 1523.6205,1298.5439 1569.1779,1438.5396 1630.4862,1571.8137 C 1654.0364,1621.8704 1679.283,1672.5484 1717.3438,1713.1875 C 1731.3942,1727.6321 1750.8744,1740.9559 1772.0938,1737.5312 C 1790.5303,1734.4983 1805.247,1718.8174 1808.8125,1700.6875 C 1818.1744,1665.881 1811.1623,1629.3975 1805.061,1594.6295 C 1787.0698,1503.7815 1753.3037,1417.1365 1721.3137,1330.4822 C 1682.8415,1228.9625 1642.1855,1127.9507 1592.4348,1031.4223 C 1561.934,973.70888 1525.7687,917.30674 1475.604,874.86381 C 1450.9792,854.48217 1420.1425,840.24895 1387.6258,841.10072 C 1323.5767,839.87591 1262.4782,862.35172 1202.5312,882.25 C 1148.8373,899.90355 1092.9471,912.6423 1036.1875,913.46875 C 1002.4409,914.04404 968.52983,907.07157 938.8528,890.8855 C 909.04608,875.32716 884.12419,852.53921 862.89604,826.71404 C 854.99639,817.65504 847.37084,808.30961 839.8125,798.875 C 907.25,685.14583 974.6875,571.41667 1042.125,457.6875 C 1091.3624,591.61538 1140.5853,725.54862 1189.8438,859.46875 C 1200.8062,853.39286 1211.7706,847.32037 1222.7188,841.21875 C 1217.0322,827.62562 1211.4252,814.00119 1205.8125,800.375 C 1212.8542,797.65625 1219.8958,794.9375 1226.9375,792.21875 C 1233.5524,805.44779 1240.1483,818.68636 1246.7188,831.9375 C 1258.5217,826.03293 1270.3221,820.12333 1282.125,814.21875 C 1274.9501,800.403 1267.5983,786.68017 1260.3438,772.90625 C 1266.625,770.29167 1272.9062,767.67708 1279.1875,765.0625 C 1288.2044,778.26375 1297.2504,791.44506 1306.3438,804.59375 C 1318.2049,798.73722 1329.9474,792.65289 1341.8438,786.875 C 1255.7139,666.45544 1168.5489,546.75478 1083.125,425.84375 C 1072.7276,409.76532 1058.7912,389.82705 1037.3438,390.09375 z M 697.375,564.1875 C 704.43527,585.74594 710.82764,610.03143 702.71875,632.1875 C 698.68523,640.80473 690.36694,647.15658 681.0625,649.21875 C 687.20076,658.3369 693.17536,667.54179 699.375,676.625 C 712.91773,661.14153 730.62089,644.82939 730.46875,622.6875 C 730.402,614.62957 729.69324,606.55981 728.5625,598.625 C 733.07446,621.04691 732.03224,645.7064 720.125,665.90625 C 716.39357,672.91597 712.17151,679.48679 707.84375,686.125 C 742.1995,756.09102 782.02203,825.1417 839.18311,878.91853 C 872.15052,911.7541 909.16238,942.80703 954.5,956.3125 C 1004.2639,972.56493 1057.8098,968.07945 1108.7046,960.11365 C 1161.6137,951.51896 1212.7688,934.94666 1263.6471,918.62504 C 1306.8133,906.13532 1351.7609,894.25451 1397.0938,898.53125 C 1430.7285,903.7467 1457.6371,928.65748 1477.4597,954.66281 C 1505.5066,991.07915 1525.9873,1032.6587 1546.875,1073.3438 C 1594.086,1170.4075 1628.0354,1273.2155 1667.6457,1373.5321 C 1690.3537,1433.9055 1715.2152,1493.5383 1734.8756,1555.0034 C 1747.2485,1594.4454 1757.3219,1635.3553 1757.3438,1677.0625 C 1715.4521,1611.1952 1686.2705,1538.4065 1656.2225,1466.4882 C 1609.8131,1351.6835 1568.3036,1234.726 1528.8438,1117.375 C 1526.0169,1103.1219 1527.7867,1088.3961 1524.1869,1074.2543 C 1520.2677,1053.2458 1509.9162,1030.8334 1489.4062,1021.75 C 1486.8967,1019.2574 1480.2192,1018.4325 1481.1875,1023.6562 C 1482.5449,1036.8561 1479.1346,1050.9638 1483.1875,1063.6562 C 1492.6487,1071.3422 1498.5417,1087.2716 1489.4688,1097.5312 C 1485.9607,1102.1419 1481.937,1108.2368 1476.0625,1109.7188 C 1351.4375,1109.7187 1226.8125,1109.7188 1102.1875,1109.7188 C 1123.8524,1096.3687 1150.9433,1097.9232 1175.2812,1101.3438 C 1235.0113,1106.8934 1295.0438,1103.5718 1354.875,1101.9688 C 1358.5636,1096.4761 1355.6842,1087.1143 1348.2613,1087.1936 C 1321.3319,1083.2634 1292.2291,1075.3367 1274.0938,1053.6562 C 1260.2773,1037.4689 1262.0846,1013.3724 1270.6562,994.96875 C 1278.9699,975.30753 1292.1894,958.34171 1304.4375,941 C 1216.6085,982.80495 1128.0498,1025.8148 1032.5067,1046.3251 C 1005.6565,1051.7838 978.04736,1051.8823 950.82408,1049.2884 C 902.50975,1046.889 854.28927,1041.5133 805.90625,1041.1875 C 768.26476,1044.5533 736.19335,1069.2456 714.51529,1098.8551 C 711.32133,1102.1225 709.41007,1107.6722 705.6875,1109.7188 C 605.48959,1109.683 505.29155,1109.8051 405.09375,1109.625 C 410.1677,1098.2509 424.7522,1097.1048 435.59375,1096.1562 C 469.12872,1093.9128 502.47556,1101.7689 536.02961,1098.9009 C 574.47634,1097.4494 612.58361,1091.1025 649.84375,1081.7812 C 674.56273,1044.4208 689.48761,1001.7344 704.61817,959.78543 C 712.63038,934.63488 719.21132,907.02448 712.0625,880.9375 C 706.54138,865.53422 693.83051,853.93013 688.46875,838.375 C 674.47445,806.59735 673.96916,768.99811 653.625,740.1875 C 648.13116,732.25304 638.53532,727.9657 628.78125,728.75 C 611.46339,728.91623 593.08567,735.18601 576.625,727.1875 C 559.54491,719.87487 542.70037,711.16047 524.03125,709 C 515.41391,707.56582 504.41955,708.16737 497.15625,708.4375 C 503.77401,703.76095 505.20089,691.35284 496.84375,687.71875 C 484.57922,683.78378 472.75968,691.69164 460.46629,691.63334 C 443.89216,693.91924 427.24734,696.47083 410.5625,697.0625 C 407.58948,693.15605 404.97517,688.66623 404.375,683.78125 C 448.42301,671.21427 493.12799,660.64683 536.21875,645.125 C 546.63128,640.91155 555.45118,633.74013 563.84375,626.5625 C 584.08466,617.60527 606.97351,618.64215 628.78125,616.84375 C 642.50783,616.09111 657.0556,618.29912 670.15625,613.59375 C 688.61483,604.92303 695.0705,582.88977 697.375,564.1875 z M 571.875,628.1875 C 559.29694,628.4675 545.58447,638.28115 547.03125,651.96875 C 548.58522,665.12274 563.14622,672.25221 575.3125,671.5 C 597.02888,671.89365 619.0739,665.98884 637.78232,655.27745 C 641.69959,652.84167 645.24856,649.93545 648.78125,646.96875 C 629.81092,631.84992 604.30554,631.36517 581.3125,628.21875 C 578.1671,628.11792 575.02007,628.16266 571.875,628.1875 z M 473.0625,712.5 C 471.29734,713.08888 462.8713,714.30495 458.59798,714.99126 C 448.27157,716.49031 437.37993,717.68324 427.09375,717.0625 C 442.09833,713.79264 457.74573,713.82803 473.0625,712.5 z M 1224.5625,1026.4062 C 1223.3523,1037.951 1223.7942,1050.0154 1228.4375,1060.7812 C 1196.9075,1069.2663 1163.8907,1065.3719 1131.7812,1062.9688 C 1163.2005,1051.4693 1194.0486,1038.4785 1224.7188,1025.125 L 1224.5977,1026.1176 L 1224.5625,1026.4062 z M 1053.875,1086.625 C 1048.1853,1093.5102 1042.4441,1102.2128 1042.8125,1111.2188 C 1043.893,1113.8655 1038.5784,1111.524 1037.5,1112.3328 C 949.05234,1111.9936 860.60415,1112.2893 772.15625,1112.1875 C 789.10609,1097.8432 811.17079,1086.157 834.02371,1090.4547 C 905.89471,1096.8679 979.33535,1103.2498 1050.4375,1087.3125 C 1051.5408,1087.1278 1052.8339,1086.7344 1053.875,1086.625 z M 1370.5938,1168.3438 C 1351.1688,1197.9536 1334.4535,1229.7606 1325.6875,1264.25 C 998.59375,1264.25 671.5,1264.25 344.40625,1264.25 C 336.30426,1228.9337 317.73216,1196.8175 295.6875,1168.3438 C 653.98958,1168.3438 1012.2917,1168.3437 1370.5938,1168.3438 z M 1387.125,1747.4062 C 1256.5729,1747.4062 1126.0208,1747.4063 995.46875,1747.4062 C 995.46875,1658.2917 995.46875,1569.1771 995.46875,1480.0625 C 889.28125,1480.0625 783.09375,1480.0625 676.90625,1480.0625 C 676.90625,1569.1771 676.90625,1658.2917 676.90625,1747.4062 C 545.57292,1747.4062 414.23958,1747.4062 282.90625,1747.4062 C 306.73958,1606.6979 330.57292,1465.9896 354.40625,1325.2812 C 675.59375,1324.4687 996.78125,1323.6563 1317.9688,1322.8438 C 1341.0208,1464.3646 1364.0729,1605.8854 1387.125,1747.4062 z"
     id="path2463" />
</svg>
