<?xml version="1.0" encoding="UTF-8" standalone="no"?>
<svg
   xmlns:dc="http://purl.org/dc/elements/1.1/"
   xmlns:cc="http://creativecommons.org/ns#"
   xmlns:rdf="http://www.w3.org/1999/02/22-rdf-syntax-ns#"
   xmlns:svg="http://www.w3.org/2000/svg"
   xmlns="http://www.w3.org/2000/svg"
   xmlns:sodipodi="http://sodipodi.sourceforge.net/DTD/sodipodi-0.dtd"
   xmlns:inkscape="http://www.inkscape.org/namespaces/inkscape"
   width="20.20162"
   height="17.983217"
   id="svg2551"
   sodipodi:version="0.32"
   inkscape:version="0.46"
   sodipodi:docname="E172.svg"
   inkscape:output_extension="org.inkscape.output.svg.inkscape">
  <metadata
     id="metadata2558">
    <rdf:RDF>
      <cc:Work
         rdf:about="">
        <dc:format>image/svg+xml</dc:format>
        <dc:type
           rdf:resource="http://purl.org/dc/dcmitype/StillImage" />
      </cc:Work>
    </rdf:RDF>
  </metadata>
  <defs
     id="defs2556">
    <inkscape:perspective
       sodipodi:type="inkscape:persp3d"
       inkscape:vp_x="0 : 8.9916086 : 1"
       inkscape:vp_y="0 : 1000 : 0"
       inkscape:vp_z="20.20162 : 8.9916086 : 1"
       inkscape:persp3d-origin="10.10081 : 5.9944057 : 1"
       id="perspective2560" />
  </defs>
  <sodipodi:namedview
     inkscape:window-height="480"
     inkscape:window-width="640"
     inkscape:pageshadow="2"
     inkscape:pageopacity="0.0"
     guidetolerance="10.0"
     gridtolerance="10.0"
     objecttolerance="10.0"
     borderopacity="1.0"
     bordercolor="#666666"
     pagecolor="#ffffff"
     id="base"
     showgrid="false" />
  <path
     style="fill:#000000; stroke:none"
     d="M 7.0625,0 L 7.0625,0.25 C 7.0625,0.61219933 7.0078059,0.89560672 6.875,1.125 C 6.7059733,1.4992733 6.1938533,1.8160633 5.3125,2.09375 C 5.0951807,2.0454567 4.9282631,2.0585973 4.84375,2.125 C 4.7592367,2.1914033 4.6448802,2.1914033 4.5,2.125 C 4.35512,2.0585973 4.2599393,2.0717374 4.1875,2.15625 C 3.0284607,1.733684 2.4446033,1.0688527 2.46875,0.1875 C 2.4204567,0.054693333 2.3657634,0.014206668 2.28125,0.0625 C 2.1242967,0.18323333 2.0312501,0.41691734 2.03125,0.71875 C 2.03125,1.00851 2.17082,1.3657866 2.40625,1.8125 C 2.6416793,2.2592127 3.1122467,2.6285633 3.8125,2.90625 C 3.77628,3.08735 3.76314,3.2098766 3.78125,3.3125 C 3.79936,3.4151233 3.68607,3.7905109 3.46875,4.40625 C 3.28765,4.55113 3.1875001,4.7059742 3.1875,4.875 C 3.1875,5.0440267 3.2400601,5.139206 3.3125,5.1875 C 3.3125,5.356526 3.6818506,5.4374999 4.40625,5.4375 C 4.5632033,5.4254267 4.6846633,5.3494232 4.78125,5.15625 C 4.9019833,5.3132033 5.0447534,5.4083835 5.25,5.46875 C 5.455246,5.5291167 5.5898467,5.6434735 5.65625,5.8125 C 5.7226533,5.9815267 5.8835335,6.143474 6.125,6.3125 C 6.125,6.9886067 6.480144,7.6939238 7.15625,8.40625 L 7.15625,8.59375 C 6.951004,8.9800973 6.7972265,9.227987 6.71875,9.3125 C 6.6402733,9.3970133 6.6058233,9.5245104 6.59375,9.6875 C 6.5816767,9.8504893 6.4268333,10.166213 6.125,10.625 C 5.8473133,10.757807 5.659086,10.948167 5.5625,11.25 C 5.3732054,11.413481 5.2027384,11.663642 5.0625,11.9375 L 3.1875,11.9375 L 2.8125,11.28125 C 2.7642067,11.196737 2.7642066,11.022716 2.8125,10.78125 C 2.8970133,10.382831 3.2066999,10.004243 3.75,9.59375 L 1.875,7.46875 C 1.7180467,7.2997233 1.7393567,7.0447302 1.96875,6.71875 C 2.2705833,6.259964 2.1775367,5.9097898 1.71875,5.65625 C 1.0909373,5.2699033 0.55964,5.3913635 0.125,6.03125 C -0.16475933,6.4658893 0.0092606398,7.2663875 0.625,8.4375 L 2.84375,12.625 L 3.5,12.625 L 4.09375,13.78125 L 6.15625,13.78125 L 6.78125,12.625 L 10.1875,12.625 L 18.5625,16.21875 L 18.5625,17.96875 L 19.25,17.96875 L 19.25,11.9375 L 18.84375,11.9375 L 18.84375,11.71875 C 19.121437,11.71875 19.24183,11.64488 19.1875,11.5 C 19.133169,11.35512 19.053263,11.026256 18.96875,10.53125 C 18.884237,10.036244 18.884236,9.4431492 18.96875,8.71875 C 18.678991,8.2599633 18.48366,7.797566 18.375,7.375 C 18.62854,7.0973133 18.809663,6.6459228 18.90625,6 C 18.97869,5.5155575 18.976426,5.0979278 18.90625,4.71875 C 19.016185,5.1140617 19.102948,5.5483389 19.09375,6.03125 C 19.081678,6.6650993 19.07564,7.1559099 19.09375,7.5 C 19.11186,7.8440893 19.118964,8.3906601 19.125,9.1875 C 19.131037,9.9843393 19.165487,10.556124 19.25,10.90625 C 19.334513,11.256377 19.47515,11.4375 19.65625,11.4375 C 19.897717,11.449573 20.0657,11.241103 20.15625,10.8125 C 20.2468,10.383897 20.193173,9.7300731 20,8.8125 C 19.613654,7.8949273 19.425428,7.3302465 19.4375,7.125 C 19.558234,5.5313213 19.455951,4.3948566 19.09375,3.71875 C 18.731551,3.042644 17.933185,2.6743601 16.75,2.65625 C 15.566814,2.63814 14.504219,2.7585333 13.5625,3 C 12.620781,3.2414667 11.483249,3.1928101 10.125,2.8125 C 8.7667513,2.43219 7.7315036,2.1782626 7.03125,2.09375 L 7.03125,2.03125 L 6.84375,2.09375 C 7.27839,1.5745967 7.5000002,1.11717 7.5,0.71875 C 7.4396333,0.24789067 7.3778367,0 7.28125,0 L 7.0625,0 z M 6.78125,2.3125 C 6.6967367,2.7954333 6.5489964,3.0504268 6.34375,3.0625 C 6.1385033,3.0745733 5.9694533,3.0553966 5.8125,3.03125 C 5.70384,3.03125 5.6107935,3.0717366 5.5625,3.15625 L 5.46875,3.03125 L 5.5625,2.9375 C 5.574574,2.7443267 5.9844105,2.5418933 6.78125,2.3125 z M 5.0625,2.34375 C 5.20738,2.45241 5.3004273,2.6456067 5.3125,2.875 L 5.21875,2.90625 L 5.375,3.1875 C 5.471586,3.3203067 5.5788393,3.3476533 5.6875,3.28125 C 5.7961593,3.2148467 5.9510033,3.21378 6.15625,3.25 C 6.3614967,3.28622 6.5365833,3.2528366 6.6875,3.15625 C 6.8384167,3.0596633 6.9588107,2.80467 7.03125,2.40625 C 7.4417433,2.40625 8.2170276,2.6005133 9.40625,2.96875 C 10.595472,3.3369867 11.577094,3.4989332 12.34375,3.46875 C 13.110406,3.4385667 13.794414,3.3636301 14.34375,3.21875 C 14.893086,3.07387 15.411243,3 15.90625,3 C 16.401257,3 16.873957,2.9950299 17.375,3.03125 C 17.876043,3.06747 18.19887,3.1818266 18.34375,3.375 C 18.114357,3.2059733 17.87854,3.1321032 17.625,3.15625 L 17.625,3.40625 C 18.095861,3.5269833 18.410517,4.0380381 18.53125,4.9375 C 18.651984,5.8369627 18.463757,6.6434965 17.96875,7.34375 C 18.201743,8.9892343 15.840986,7.0569098 14.78125,6.90625 L 14.71875,7.15625 C 14.875703,7.22869 14.99006,7.3288399 15.0625,7.4375 C 13.432601,8.0170193 11.919683,8.2265564 10.53125,8.09375 L 10.375,6.875 C 10.375,6.7059733 10.260643,6.5582333 10.03125,6.4375 L 9.59375,5.84375 L 9.34375,5.9375 L 9.59375,6.4375 L 10.0625,6.96875 C 10.617304,8.9224779 7.6822313,7.5066269 7.78125,6.3125 C 7.7752133,5.8054207 7.9098134,5.4207964 8.1875,5.125 C 8.4651867,4.829204 8.6605178,4.3991232 8.78125,3.84375 C 8.78125,3.77131 8.6931734,3.7187499 8.5,3.71875 C 8.3792673,4.2861967 8.1658269,4.7091741 7.90625,4.96875 C 7.6466733,5.2283267 7.4989335,5.5500865 7.46875,5.90625 C 7.4135991,7.3898777 8.2050061,7.7916888 9.0625,8.34375 C 8.458834,8.48863 7.8728433,8.3884796 7.28125,8.0625 C 6.7258773,7.4346867 6.4374998,6.7890329 6.4375,6.125 L 5.9375,5.71875 C 5.9375,5.4893567 5.8028993,5.3416165 5.53125,5.28125 C 5.2596,5.2208833 5.0106433,4.9921692 4.78125,4.59375 L 4.625,4.59375 C 4.6129267,4.9680227 4.517746,5.1754264 4.3125,5.1875 C 4.2159127,5.11506 4.0560994,5.0958834 3.875,5.15625 C 3.62146,5.0958833 3.4999999,4.9935992 3.5,4.8125 C 3.5845133,4.7159133 3.6321034,4.6633534 3.65625,4.6875 C 3.6803967,4.7116467 3.6864333,4.7258533 3.65625,4.75 C 3.6260667,4.7741467 3.6189634,4.8277733 3.625,4.90625 C 3.6310367,4.984726 3.6786266,5.0433226 3.78125,5.03125 C 3.8838733,5.019176 3.9698167,4.9332334 4,4.8125 C 4.0301833,4.6917673 3.9310999,4.5774101 3.75,4.46875 C 3.96732,3.85301 4.0816774,3.3693026 4.09375,3.03125 C 4.45595,2.9346633 4.8252998,2.9730167 5.1875,3.09375 L 5.1875,3 C 4.8494467,2.85512 4.5397598,2.80256 4.25,2.875 C 4.32244,2.76634 4.3892066,2.6114967 4.4375,2.40625 C 4.65482,2.47869 4.8572531,2.4524099 5.0625,2.34375 z M 6.65625,2.5 C 6.5234432,2.5120734 6.3757033,2.55256 6.21875,2.625 C 6.0617965,2.69744 5.8806733,2.8046933 5.6875,2.9375 C 5.7116468,2.9737199 5.79262,3 5.9375,3 C 6.0823801,3 6.22195,2.9747867 6.3125,2.96875 C 6.40305,2.9627133 6.4577433,2.9353667 6.5,2.875 C 6.5422565,2.8146333 6.5564633,2.78622 6.5625,2.75 C 6.5685368,2.7137801 6.5603667,2.7340233 6.5,2.8125 C 6.4396333,2.8909767 6.34552,2.9122867 6.21875,2.90625 C 6.0919799,2.9002134 6.0777733,2.8789033 6.15625,2.8125 C 6.2347267,2.7460967 6.3906367,2.6328067 6.65625,2.5 z M 4.21875,3.125 C 4.2308233,3.2819533 4.2833832,3.3913399 4.34375,3.5 C 4.4041167,3.6086593 4.4850898,3.7290534 4.59375,3.84375 C 4.70241,3.9584467 4.7500002,4.1193268 4.75,4.3125 L 4.84375,4.3125 C 4.8558233,4.0710333 4.7819533,3.81604 4.625,3.5625 C 4.8663506,3.5050362 5.1023993,3.3965582 5.34375,3.21875 C 4.8655211,3.1274435 4.4781658,3.0896251 4.21875,3.125 z M 4.4375,3.28125 L 4.90625,3.28125 L 4.53125,3.4375 L 4.4375,3.28125 z M 0.96875,5.9375 C 1.1045748,5.90128 1.2745104,5.9286268 1.4375,6.03125 C 1.7031133,6.1882033 1.6768334,6.4169175 1.375,6.71875 C 1.097314,7.04473 1.123594,7.3806965 1.4375,7.71875 L 3.03125,9.53125 C 2.6931973,9.74857 2.4765566,10.03908 2.34375,10.4375 L 1,7.90625 C 0.55328667,7.0611167 0.44390001,6.5035395 0.625,6.25 C 0.73366,6.0749367 0.83292516,5.97372 0.96875,5.9375 z M 14.59375,8 L 14.65625,9.25 C 14.54759,9.6846393 14.374637,10.055057 14.1875,10.375 C 14.000364,10.694943 13.770584,11.010666 13.46875,11.3125 C 13.250645,11.486984 13.092023,11.681062 13,11.9375 L 11.03125,11.9375 L 11.03125,11.71875 C 11.42967,11.646309 11.52485,11.458082 11.34375,11.15625 C 11.09021,10.649171 10.95561,10.29296 10.9375,10.09375 C 10.91939,9.89454 10.91939,9.7194536 10.9375,9.5625 C 10.95561,9.4055467 10.928264,9.2507031 10.84375,9.09375 C 10.759237,8.9367967 10.66619,8.7151862 10.59375,8.4375 C 11.595836,8.4616467 12.394201,8.4403366 12.9375,8.34375 C 12.9375,8.5369233 12.98509,8.8395062 13.09375,9.25 L 13.28125,9.25 L 13.46875,8.375 C 13.46875,8.30256 13.845203,8.1931726 14.59375,8 z M 16.71875,8.375 C 16.97229,8.48366 17.266704,8.7134403 17.5625,9.09375 C 17.858295,9.47406 17.966616,10.187547 17.90625,11.25 C 17.682139,11.46581 17.524654,11.70457 17.4375,11.9375 L 14.40625,11.9375 L 14.5,11.65625 C 14.596587,11.69247 14.710944,11.699574 14.84375,11.6875 C 14.976557,11.675426 15.037287,11.541893 15.03125,11.3125 C 15.025213,11.083107 15.17899,10.644856 15.46875,9.96875 C 15.72229,9.8842367 15.877134,9.7293931 15.9375,9.5 C 16.106527,9.0412133 16.356551,8.6647603 16.71875,8.375 z M 9.21875,8.59375 L 9.6875,9.3125 C 9.7357933,9.5901867 9.8693266,9.8309736 10.0625,10 L 10.21875,11.28125 C 10.033604,11.45798 9.8901354,11.684509 9.78125,11.9375 L 6.4375,11.9375 L 6.5,11.78125 C 6.5,11.648444 6.5788407,11.600854 6.6875,11.625 C 6.7961607,11.649146 6.8245731,11.555032 6.8125,11.34375 C 6.800426,11.132467 7.0149332,10.749976 7.4375,10.21875 C 7.6668933,10.110091 7.7954569,9.9804599 7.84375,9.78125 C 7.8920433,9.58204 8.1328302,9.3281128 8.53125,9.0625 C 8.7727167,8.7968867 8.9893569,8.6420436 9.21875,8.59375 z M 3.53125,10.0625 L 4.84375,11.75 L 5.5625,10.75 L 3.53125,10.0625 z M 4.34375,10.65625 L 4.96875,10.90625 L 4.78125,11.15625 L 4.34375,10.65625 z M 4.09375,12.625 L 6.15625,12.625 L 5.84375,13.15625 L 4.40625,13.15625 L 4.09375,12.625 z M 11.71875,12.625 L 18.5625,12.625 L 18.5625,15.53125 L 11.71875,12.625 z"
     id="path2553"
     sodipodi:nodetypes="ccccssccssscscscscsscccsscccccsccscscccccccccccccssccscsssssscssssscccccccssccccccccssscssssscccsccccccccccccsscscccccscccccsssssccccccccscsssssssccssccccccccccscccccscccscccccssscccccccsccccssccccccccccsscsccccccccccccccccccc" />
</svg>
