<?xml version="1.0" encoding="UTF-8" standalone="no"?>
<svg
   xmlns:dc="http://purl.org/dc/elements/1.1/"
   xmlns:cc="http://creativecommons.org/ns#"
   xmlns:rdf="http://www.w3.org/1999/02/22-rdf-syntax-ns#"
   xmlns:svg="http://www.w3.org/2000/svg"
   xmlns="http://www.w3.org/2000/svg"
   xmlns:sodipodi="http://sodipodi.sourceforge.net/DTD/sodipodi-0.dtd"
   xmlns:inkscape="http://www.inkscape.org/namespaces/inkscape"
   width="23.275606"
   height="17.983217"
   id="svg2740"
   sodipodi:version="0.32"
   inkscape:version="0.46"
   sodipodi:docname="E174B.svg"
   inkscape:output_extension="org.inkscape.output.svg.inkscape">
  <metadata
     id="metadata2747">
    <rdf:RDF>
      <cc:Work
         rdf:about="">
        <dc:format>image/svg+xml</dc:format>
        <dc:type
           rdf:resource="http://purl.org/dc/dcmitype/StillImage" />
      </cc:Work>
    </rdf:RDF>
  </metadata>
  <defs
     id="defs2745">
    <inkscape:perspective
       sodipodi:type="inkscape:persp3d"
       inkscape:vp_x="0 : 8.9916086 : 1"
       inkscape:vp_y="0 : 1000 : 0"
       inkscape:vp_z="23.275606 : 8.9916086 : 1"
       inkscape:persp3d-origin="11.637803 : 5.9944057 : 1"
       id="perspective2749" />
  </defs>
  <sodipodi:namedview
     inkscape:window-height="480"
     inkscape:window-width="640"
     inkscape:pageshadow="2"
     inkscape:pageopacity="0.0"
     guidetolerance="10.0"
     gridtolerance="10.0"
     objecttolerance="10.0"
     borderopacity="1.0"
     bordercolor="#666666"
     pagecolor="#ffffff"
     id="base"
     showgrid="false" />
  <path
     style="fill:#000000; stroke:none"
     d="M 4.381509,6.13829 L 4.511469,6.323947 C 4.573355,6.2249303 4.6785607,6.175422 4.827086,6.175422 C 5.0251207,6.1877987 5.254098,6.1908927 5.514018,6.184704 C 5.773938,6.178516 5.959595,5.8598047 6.070989,5.22857 C 5.0560637,5.5256213 4.5362237,5.7979187 4.511469,6.045462 L 4.381509,6.13829 z M 20.385157,11.652308 C 21.028768,10.773531 21.273217,9.752416 21.118504,8.588964 C 20.963789,7.4255127 20.583191,6.7695243 19.976711,6.620999 L 19.976711,6.342513 C 20.298516,6.2930043 20.607945,6.3796443 20.904997,6.602433 C 20.71934,6.3548903 20.304706,6.209459 19.661095,6.166139 C 19.017483,6.122819 18.38006,6.0980647 17.748825,6.091876 C 17.11759,6.0856873 16.44613,6.1754217 15.734445,6.361079 C 15.022759,6.5467363 14.178019,6.661225 13.200225,6.704545 C 12.22243,6.747865 10.972339,6.534359 9.44995,6.064027 C 7.9275613,5.5936957 6.906447,5.3523413 6.386607,5.339964 C 6.2752123,5.859804 6.1297807,6.1816097 5.950312,6.305381 C 5.7708433,6.429153 5.5480547,6.4662847 5.281946,6.416776 C 5.0158373,6.3672673 4.8116147,6.385833 4.669278,6.472473 C 4.5269407,6.559113 4.3938863,6.5219817 4.270115,6.361079 C 3.9359323,6.5962443 3.607938,6.7509587 3.286132,6.825222 C 3.4965433,7.1594047 3.589372,7.4750217 3.564618,7.772073 L 3.471789,7.772073 C 3.471789,7.536907 3.406809,7.341967 3.276849,7.187253 C 3.146889,7.032539 3.038589,6.890202 2.951949,6.760242 C 2.865309,6.6302813 2.8158003,6.466284 2.803423,6.26825 C 3.1376063,6.2187413 3.6265037,6.2496843 4.270115,6.361079 L 4.065892,5.989764 L 4.177286,5.915502 C 4.152532,5.6308273 4.053515,5.4204157 3.880235,5.284267 C 3.6079377,5.4204157 3.3356403,5.4389813 3.063343,5.339964 C 3.0014577,5.599884 2.9210063,5.804107 2.821989,5.952633 C 3.193303,5.865993 3.6017487,5.9155017 4.047326,6.101159 L 4.047326,6.212553 C 3.5769947,6.0516503 3.1066633,6.0392733 2.636332,6.175422 C 2.6239547,6.5962447 2.475429,7.2027247 2.190755,7.994862 C 2.4382977,8.13101 2.540409,8.2764413 2.497089,8.431156 C 2.453769,8.58587 2.367129,8.67251 2.237169,8.691076 C 2.107209,8.709642 2.0360403,8.6694163 2.023663,8.570399 C 2.0112857,8.4713817 2.026757,8.4064017 2.070077,8.375459 C 2.113397,8.3445157 2.1195857,8.3104787 2.088643,8.273348 C 2.0577003,8.236216 1.9865317,8.2857243 1.875137,8.421873 C 1.875137,8.6446617 2.0422287,8.799376 2.376412,8.886016 C 2.5992007,8.799376 2.7724807,8.799376 2.896252,8.886016 C 3.156172,8.886016 3.298509,8.6446617 3.323263,8.161953 L 3.490355,8.124822 C 3.7874063,8.644662 4.1123063,8.9448077 4.465055,9.025259 C 4.8178037,9.1057103 4.994178,9.2882733 4.994178,9.572948 L 5.625412,10.092788 C 5.625412,10.946811 5.9843493,11.782268 6.702224,12.599159 C 7.45723,13.007605 8.218424,13.118999 8.985806,12.933342 C 8.985806,12.710553 8.7135093,12.515613 8.168916,12.348522 C 7.6243213,12.181431 7.2808553,11.831777 7.138518,11.29956 C 6.9961807,10.767342 6.9404833,10.272256 6.971426,9.814301 C 7.0023693,9.3563477 7.1849323,8.9602793 7.519115,8.626096 C 7.8532983,8.2919133 8.1008413,7.7658847 8.261744,7.04801 C 8.4969093,7.04801 8.620681,7.09133 8.633059,7.17797 C 8.4721557,7.8958447 8.2153297,8.4435333 7.862581,8.821036 C 7.5098323,9.1985387 7.3365523,9.7121903 7.342741,10.361991 C 7.3489297,11.011791 7.5686237,11.500688 8.001823,11.828682 C 8.4350237,12.156677 8.7753957,12.221657 9.022939,12.023623 C 9.8219912,12.616674 10.614916,14.119674 10.285407,11.1696 L 9.672738,10.519799 L 9.375687,9.888565 L 9.672738,9.758605 L 10.22971,10.519799 C 10.526761,10.680702 10.675287,10.866359 10.675287,11.076771 L 10.87951,12.636291 C 12.661819,12.797194 14.592653,12.506331 16.672014,11.763702 C 16.585373,11.627554 16.443036,11.51616 16.245003,11.42952 L 16.337831,11.132468 C 16.931934,11.305747 17.278493,11.534724 17.37751,11.819399 C 18.069117,11.05295 20.644196,14.409892 20.385157,11.652308 z M 3.081909,6.453907 L 3.211869,6.65813 L 3.694578,6.472473 L 3.081909,6.453907 z M 18.825636,13.007606 C 18.355305,13.354165 18.014934,13.824497 17.804522,14.4186 C 17.717882,14.715651 17.513659,14.919874 17.191854,15.031268 C 16.820539,15.897668 16.641071,16.479394 16.653448,16.776445 C 16.665825,17.073497 16.585374,17.225117 16.412094,17.231306 C 16.238814,17.237495 16.090288,17.222023 15.966516,17.184891 L 15.725162,17.964651 L 13.942853,17.964651 C 14.029493,17.469566 14.25847,17.067308 14.629785,16.757879 C 15.025853,16.36181 15.344564,15.956459 15.585919,15.541825 C 15.827273,15.127191 16.016025,14.647577 16.152174,14.102983 L 16.077911,12.50633 C 15.112494,12.753873 14.629785,12.920965 14.629785,13.007606 L 14.388431,14.102983 L 14.147076,14.102983 C 14.010927,13.583142 13.942853,13.193262 13.942853,12.933342 C 13.249733,13.069491 12.26575,13.119 10.990904,13.081868 C 11.077544,13.440805 11.173467,13.722385 11.278673,13.926608 C 11.383878,14.130831 11.424104,14.33196 11.39935,14.529994 C 11.374596,14.728028 11.371502,14.950816 11.390067,15.198359 C 11.408632,15.445902 11.591195,15.897669 11.937756,16.553658 C 12.160544,16.949726 12.024395,17.19108 11.52931,17.277719 L 11.52931,17.983217 L 9.747002,17.983217 C 9.88315,17.475754 10.124504,17.06112 10.471065,16.739315 L 10.285407,15.086966 C 10.037864,14.8518 9.88315,14.567126 9.821264,14.232943 L 9.208595,13.267526 C 8.9115443,13.341789 8.6083043,13.546011 8.298875,13.880194 C 7.7914123,14.226754 7.506738,14.5269 7.444852,14.780631 C 7.3829667,15.034362 7.2096867,15.229302 6.925012,15.365451 C 6.380418,16.05857 6.1143097,16.538185 6.126687,16.804295 C 6.1390637,17.070403 6.077178,17.187986 5.94103,17.157043 C 5.8048807,17.1261 5.7306177,17.197268 5.718241,17.370548 L 5.384058,17.983217 L 3.676012,17.983217 C 3.8864233,17.413868 4.164909,16.980668 4.511469,16.683617 C 4.6352403,16.299926 4.870406,16.027629 5.216966,15.866726 C 5.6130347,15.285 5.8172577,14.885837 5.829635,14.669237 C 5.8420123,14.452637 5.8977097,14.291734 5.996727,14.186528 C 6.0957437,14.081323 6.275212,13.774989 6.535132,13.267526 L 6.535132,13.026171 C 5.668732,12.110262 5.235532,11.219108 5.235532,10.352708 C 4.9384807,10.129919 4.746635,9.9133193 4.659995,9.702908 C 4.573355,9.492496 4.3969807,9.3501587 4.130872,9.275896 C 3.8647633,9.2016333 3.6512577,9.0592963 3.490355,8.848885 C 3.3665837,9.0964277 3.2118693,9.2263877 3.026212,9.238765 C 2.0855487,9.238765 1.615217,9.1397477 1.615217,8.941713 C 1.528577,8.8674503 1.485257,8.7189247 1.485257,8.496136 C 1.485257,8.2857247 1.5966513,8.0876903 1.81944,7.902033 C 2.1041147,7.1098957 2.2340747,6.6457527 2.20932,6.509604 C 2.184566,6.3734553 2.1969433,6.193987 2.246452,5.971199 C 1.34292,5.6246383 0.74262833,5.1635897 0.445577,4.588053 C 0.14852567,4.0125157 0,3.5390897 0,3.167775 C 0,2.7840837 0.099017,2.5117867 0.297051,2.350884 C 0.40844567,2.3013753 0.49508567,2.363261 0.556971,2.536541 C 0.532217,3.6504843 1.2624687,4.4735643 2.747726,5.005781 C 2.834366,4.919141 2.9705147,4.919141 3.156172,5.005781 C 3.3418293,5.092421 3.4872607,5.089327 3.592466,4.996499 C 3.697672,4.9036697 3.892612,4.888198 4.177286,4.950084 C 5.303606,4.5911467 5.9781603,4.1703237 6.200949,3.687615 C 6.374229,3.402941 6.460869,3.031627 6.460869,2.573673 L 6.460869,2.276621 L 6.702224,2.276621 C 6.813618,2.276621 6.9188237,2.579861 7.017841,3.186341 C 7.017841,3.6938043 6.7331667,4.2755303 6.163818,4.931519 L 6.405172,4.857255 L 6.405172,4.950084 C 7.3087033,5.0738553 8.6268693,5.3740013 10.35967,5.850522 C 12.09247,6.3270413 13.56535,6.410587 14.778311,6.101159 C 15.99127,5.7917303 17.35585,5.6524873 18.872051,5.68343 C 20.388251,5.7143727 21.378423,6.163044 21.842566,7.029444 C 22.306709,7.895844 22.458329,9.3501583 22.297426,11.392387 C 22.285049,11.652308 22.526403,12.363994 23.021488,13.527445 C 23.269031,14.715651 23.337106,15.585146 23.225712,16.135929 C 23.114317,16.686712 22.897717,16.949726 22.575911,16.924971 C 22.340746,16.924971 22.167467,16.702182 22.056072,16.256605 C 21.944677,15.811028 21.888979,15.077683 21.888979,14.056568 C 21.888979,13.035454 21.876602,12.305202 21.851849,11.865813 C 21.827094,11.426425 21.820905,10.798285 21.833282,9.981394 C 21.84566,9.164502 21.728077,8.4466273 21.480534,7.82777 C 21.690946,8.4218733 21.731172,9.1335593 21.601212,9.962828 C 21.471251,10.792097 21.245368,11.386199 20.923563,11.745136 C 21.059711,12.277353 21.319631,12.834325 21.703323,13.416051 C 21.591929,14.356714 21.591929,15.142662 21.703323,15.773897 C 21.814718,16.405132 21.901358,16.813578 21.963243,16.999235 C 22.025129,17.184891 21.882792,17.277719 21.536232,17.277719 L 21.536232,17.983217 L 19.623962,17.983217 C 19.673471,17.525263 19.908637,17.098252 20.32946,16.702183 C 20.403722,15.340697 20.252102,14.415505 19.874599,13.926608 C 19.497097,13.437711 19.147443,13.131377 18.825636,13.007606 z M 5.903898,5.469924 C 5.7429953,5.4823013 5.5635267,5.53181 5.365492,5.61845 C 5.1674573,5.70509 4.9446687,5.8412387 4.697126,6.026896 C 4.7095033,6.0640273 4.8116147,6.082593 5.00346,6.082593 C 5.195306,6.082593 5.3469263,6.0794987 5.458321,6.07331 C 5.569715,6.0671213 5.6532607,6.0268957 5.708958,5.952633 C 5.7646547,5.8783697 5.7986917,5.819578 5.811069,5.776258 C 5.8234463,5.732938 5.786315,5.7607867 5.699675,5.859804 C 5.613035,5.9588213 5.492358,6.0021413 5.337644,5.989764 C 5.1829293,5.9773873 5.1550807,5.9278787 5.254098,5.841238 C 5.3531153,5.754598 5.5697153,5.6308267 5.903898,5.469924 z M 10.563892,1.961004 C 11.257013,1.787724 11.690213,1.614444 11.863493,1.441164 L 11.52931,0.160129 C 11.665459,0.023980333 11.813984,-0.025528 11.974887,0.011604 C 12.65563,2.4499013 13.243544,4.6592217 13.73863,6.639565 L 12.903173,6.695261 C 12.56899,6.299193 12.234807,5.7731647 11.900624,5.117176 C 11.566441,4.4611873 11.309616,3.9227813 11.130147,3.501958 C 10.950678,3.0811353 10.761927,2.567484 10.563892,1.961004 z M 13.293053,6.639565 C 12.946493,5.2780783 12.500916,3.6690493 11.956322,1.812478 C 11.820173,1.9114953 11.52931,2.0352667 11.083733,2.183792 C 11.591196,3.8175753 12.327636,5.302833 13.293053,6.639565 z"
     id="path2742"
     sodipodi:nodetypes="ccssccccscccssssscsssccccsscccccccccccssssscccccsccccssssccsssccccccccccccccccccccssccccscccccccssssccccccccscsscccccsscccsscccscscsssccsscccccccccssssccsssssscsccssccccsccscssssssscccccccssccccc" />
</svg>
