<?xml version="1.0" encoding ="US-ASCII" standalone="yes"?>
<svg width="19.092791" height="17.52">
<path style="fill:#000000; stroke:none" d=" M 4.386181 4.992507  Q 4.730196 4.682894 4.730196 4.35608  Q 4.730196 4.09807 4.214175 3.960464  Q 3.010124 3.960464 2.872519 4.235675  Q 2.597307 4.35608 1.978082 5.405324  L 1.118046 6.557771  Q 1.032043 6.970588 1.479261 7.159796  Q 2.803716 6.574971 3.268135 6.574971  Q 4.489386 6.574971 5.194615 8.329444  Q 5.55583 9.103477 6.501869 10.496734  Q 6.05465 7.624216 7.344704 6.712577  Q 6.708278 8.312243 6.759879 9.103477  Q 6.811482 9.89471 7.189898 10.359129  Q 7.568313 10.823548 9.451791 10.513935  Q 11.335269 10.204322 11.61048 10.40213  Q 11.885692 10.599939 12.702725 10.40213  Q 13.519758 10.204322 14.74101 10.290325  Q 13.708967 9.155079 13.53696 7.349004  Q 14.104584 8.277843 14.465797 8.845466  Q 14.827013 9.41309 15.162428 9.619498  Q 15.497841 9.825907 16.332075 9.155079  Q 17.166309 8.484251 17.303917 7.366205  Q 17.441523 6.248158 16.495483 6.28256  L 11.36967 6.248158  Q 8.101535 6.179356 6.123454 5.233317  L 5.865443 5.07851  L 5.349422 5.267718  L 4.971005 5.095711  Q 6.037449 4.321678 6.157855 3.650851  Q 5.33222 4.080868 5.33222 4.235675  Q 5.039809 4.854901 4.386181 4.992507  Z  M 2.528505 5.353722  L 2.528505 5.31932  Q 2.64891 4.717295 3.405741 4.717295  Q 3.680952 4.751697 3.680952 4.8377  L 3.680952 4.854901  Q 3.680952 5.147313 2.889719 5.508528  Q 2.614508 5.508528 2.528505 5.353722  Z  M 10.35483 15.828955  Q 8.514352 13.386454 7.404906 12.354411  Q 6.29546 11.322369 5.702036 10.307527  Q 5.108612 9.292684 4.196974 7.916627  Q 3.921762 7.297401 3.182132 7.297401  Q 1.943681 7.675817 1.341655 7.847825  Q 0.602025 7.555412 0.602025 7.125395  Q 0.068803 6.76418 0.516021 6.385764  Q 0.96324 6.007349 1.290053 5.31072  Q 1.616867 4.614091 1.995283 4.046468  Q 0 1.414758 0 0.417117  Q 0.034401 0.262311 0.103204 0.262311  Q 0.24081 0.348314 0.705229 1.173949  Q 1.118046 1.861977 2.16729 2.876819  Q 2.872519 3.39284 3.216533 3.39284  Q 3.921762 3.39284 4.334579 3.031625  Q 5.401024 2.223192 6.708278 0.141906  Q 6.914686 -0.133306 7.035091 0.124705  Q 6.897485 0.812734 6.106253 2.033984  Q 5.31502 3.255235 4.953805 3.461643  L 5.29782 3.719654  Q 5.710636 3.341238 6.53627 3.100428  Q 6.570672 3.39284 6.53627 3.616449  Q 6.501869 3.840059 6.175055 4.424882  Q 8.153138 5.594532 10.466634 5.689136  Q 12.780129 5.78374 17.819939 5.594532  Q 18.215551 5.628932 18.765976 6.454566  Q 18.920782 6.746979 19.05839 7.297401  Q 19.161592 11.735185 18.989584 12.732827  Q 18.83478 13.042439 18.61117 12.57802  Q 17.940342 10.978354 18.095148 9.464692  Q 18.249954 7.95103 18.043549 6.850183  Q 18.026344 9.585096 13.330552 13.145644  Q 12.57372 13.936877 11.816889 16.052563  L 11.799687 16.052563  L 12.212505 16.258972  Q 12.401712 16.379377 11.885692 17.136209  Q 11.558878 17.617828 11.38687 17.497425  Q 10.939652 17.187813 10.922452 16.620186  L 10.853649 16.534185  L 10.750444 16.706192  Q 10.372029 16.620186 10.268825 16.860998  L 10.028015 17.37702  Q 9.924809 17.411423 9.7012 17.325417  L 8.875567 16.534185  Q 9.40879 16.207371 9.7012 16.172968  Q 10.286026 15.932158 10.35483 15.828955  Z  M 11.146061 15.209729  Q 11.937293 14.349693 12.410314 12.810229  Q 12.883333 11.270766 13.476757 10.978354  Q 14.070182 10.685942 13.141344 10.943953  Q 12.212505 11.201963 11.670684 11.029956  Q 11.12886 10.85795 10.225823 10.952553  Q 9.322786 11.047156 8.548753 11.356771  Q 9.030373 11.61478 9.253983 12.148002  Q 9.477592 12.681225 9.718401 13.558461  Q 9.959211 14.435698 11.146061 15.209729  Z "/></svg>
