<?xml version="1.0" encoding="UTF-8" standalone="no"?>
<svg
   xmlns:dc="http://purl.org/dc/elements/1.1/"
   xmlns:cc="http://creativecommons.org/ns#"
   xmlns:rdf="http://www.w3.org/1999/02/22-rdf-syntax-ns#"
   xmlns:svg="http://www.w3.org/2000/svg"
   xmlns="http://www.w3.org/2000/svg"
   xmlns:sodipodi="http://sodipodi.sourceforge.net/DTD/sodipodi-0.dtd"
   xmlns:inkscape="http://www.inkscape.org/namespaces/inkscape"
   width="25.487131"
   height="15.12"
   id="svg2874"
   sodipodi:version="0.32"
   inkscape:version="0.46"
   sodipodi:docname="E183.svg"
   inkscape:output_extension="org.inkscape.output.svg.inkscape">
  <metadata
     id="metadata2881">
    <rdf:RDF>
      <cc:Work
         rdf:about="">
        <dc:format>image/svg+xml</dc:format>
        <dc:type
           rdf:resource="http://purl.org/dc/dcmitype/StillImage" />
      </cc:Work>
    </rdf:RDF>
  </metadata>
  <defs
     id="defs2879">
    <inkscape:perspective
       sodipodi:type="inkscape:persp3d"
       inkscape:vp_x="0 : 7.5599999 : 1"
       inkscape:vp_y="0 : 1000 : 0"
       inkscape:vp_z="25.487131 : 7.5599999 : 1"
       inkscape:persp3d-origin="12.743566 : 5.04 : 1"
       id="perspective2883" />
  </defs>
  <sodipodi:namedview
     inkscape:window-height="480"
     inkscape:window-width="640"
     inkscape:pageshadow="2"
     inkscape:pageopacity="0.0"
     guidetolerance="10.0"
     gridtolerance="10.0"
     objecttolerance="10.0"
     borderopacity="1.0"
     bordercolor="#666666"
     pagecolor="#ffffff"
     id="base"
     showgrid="false" />
  <path
     style="fill:#000000; stroke:none"
     d="M 5.893389,2.663784 L 6.48948,2.924574 L 6.48948,3.017713 C 6.2038527,3.452363 5.79404,3.5455023 5.260042,3.297131 L 4.030603,4.060873 C 4.0181843,3.9491063 4.1361607,3.8156067 4.384532,3.660374 C 4.632904,3.505142 4.8812757,3.3281773 5.129647,3.12948 C 5.303507,2.819016 5.5580877,2.663784 5.893389,2.663784 z M 3.471767,4.17264 C 3.682883,4.0981287 3.8008593,4.1105473 3.825696,4.209896 C 3.862952,4.2844073 3.7387663,4.4148023 3.453139,4.601081 C 3.3910463,4.6134997 3.335163,4.5451973 3.285489,4.396174 C 3.2606517,4.3216633 3.3227443,4.247152 3.471767,4.17264 z M 4.179626,5.457963 C 4.2044627,5.818101 4.2603463,6.1596117 4.347277,6.482495 L 4.421788,6.482495 L 4.440416,5.364823 L 4.179626,5.457963 z M 19.175053,12.313015 C 19.150215,11.977713 19.081913,11.65483 18.970146,11.344366 C 19.156424,11.642411 19.274401,11.878364 19.324076,12.052224 C 19.373749,12.226085 19.466888,12.30991 19.603493,12.3037 C 19.740097,12.297491 19.79598,12.201248 19.771143,12.014969 C 19.746307,11.82869 19.600389,11.555482 19.333389,11.195343 C 19.06639,10.835204 18.746611,10.636507 18.374054,10.599252 L 15.300457,10.748275 C 15.089342,10.723438 14.983784,10.766903 14.983784,10.87867 C 14.983784,10.978018 15.095551,11.002855 15.319085,10.953181 C 16.784476,10.915925 17.722078,10.860041 18.131891,10.78553 L 18.616217,10.915925 C 18.516868,11.996341 18.703147,12.462038 19.175053,12.313015 z M 8.31501,2.552017 L 8.613056,2.6079 C 8.7620793,2.9432013 8.7713933,3.3778513 8.640998,3.91185 C 8.5106027,4.4458487 8.029383,4.948801 7.197339,5.420707 C 7.160083,4.290617 7.175606,3.5703397 7.243908,3.259875 C 7.3122107,2.949411 7.4519197,2.6575747 7.663035,2.384366 L 7.979709,2.458877 C 7.805849,2.7941783 7.700291,3.095329 7.663035,3.362329 C 7.6257797,3.6293277 7.588524,4.0919193 7.551268,4.750104 C 8.1721967,4.17885 8.4267773,3.4461543 8.31501,2.552017 z M 12.767069,5.104033 C 11.289258,4.6445463 10.277144,4.0857107 9.730727,3.427526 C 9.1843103,2.7693413 8.6223703,2.2725983 8.044907,1.937297 C 7.467443,1.6019957 6.7502703,1.6578793 5.893389,2.104948 C 5.0365077,2.5520167 4.527346,2.8686903 4.365904,3.054969 C 4.2044627,3.2412477 3.9623007,3.4865143 3.639418,3.790769 C 3.3165353,4.0950243 3.161303,4.315454 3.173721,4.452058 C 3.1861397,4.5886627 3.2916977,4.743895 3.490395,4.917755 C 3.7263477,4.830825 3.9902423,4.7221623 4.282079,4.591767 C 4.5739157,4.4613717 4.719834,4.4458483 4.719834,4.545197 C 4.719834,4.632127 4.6111713,4.6973247 4.393846,4.74079 C 4.1765213,4.7842547 3.918836,4.8804987 3.62079,5.029522 C 3.744976,5.2158007 4.039917,5.212696 4.505613,5.020208 C 4.9713097,4.82772 5.353181,4.644546 5.651227,4.470686 C 5.9492723,4.296826 6.1728063,4.2657797 6.321829,4.377547 C 6.2969923,6.1782397 6.3746087,7.289702 6.554678,7.711934 C 6.7347473,8.1341653 6.9924327,8.5501873 7.327734,8.96 C 7.327734,8.0907 7.66614,7.159307 8.342952,6.165821 C 9.0197647,5.172335 10.49447,4.8184057 12.767069,5.104033 z M 5.9224662,12.988978 C 7.1146495,13.075908 8.4764523,12.87185 8.836591,12.61106 C 9.072543,12.313015 9.2991817,12.170201 9.516507,12.182619 C 9.7338323,12.195038 9.867332,12.325433 9.917006,12.573805 C 10.239889,12.462038 10.550354,12.474456 10.848399,12.61106 L 11.649397,14.455218 C 10.966376,14.343451 10.301982,14.157172 9.656217,13.896382 C 8.849009,14.182009 7.44571,14.318614 5.44632,14.306195 C 4.974414,14.492474 4.5987523,14.560776 4.319335,14.511102 C 4.039917,14.461427 3.813278,14.362079 3.639418,14.213057 C 3.465558,14.064034 3.403465,13.738046 3.453139,13.235093 C 3.5028137,12.732141 3.658046,12.35648 3.918836,12.108109 C 4.3286487,11.8349 4.890589,11.508912 5.604657,11.130145 C 6.318725,10.751379 6.7906307,10.496799 7.020374,10.366404 C 7.250118,10.236009 7.2221763,9.9286487 6.936549,9.444324 C 6.0424117,8.5501873 5.6450173,7.022703 5.744366,4.861871 L 5.353181,5.066778 C 5.4649483,5.6628693 5.4742623,6.0788913 5.381123,6.314844 C 5.2879837,6.5507967 5.1948443,6.5694247 5.101705,6.370728 C 5.0085657,6.1720307 4.986833,5.768427 5.036507,5.159917 L 4.738461,5.30894 L 4.738461,7.059958 L 4.533555,7.059958 C 4.1237423,6.7743313 3.918836,6.420402 3.918836,5.99817 C 3.9064173,5.6628687 3.8101733,5.4859043 3.630104,5.467277 C 3.4500347,5.448649 3.3103257,5.3213583 3.210977,5.085405 C 2.9750243,4.8991263 2.8415247,4.69422 2.810478,4.470686 C 2.779432,4.247152 2.9563967,3.942897 3.341372,3.557921 C 3.726348,3.172945 3.977824,2.8966317 4.0958,2.728981 C 4.2137767,2.5613303 4.726043,2.2291337 5.632599,1.732391 C 5.7356127,1.4648283 5.183271,1.4258793 4.608067,1.685821 C 4.191151,1.8742304 3.5773247,1.591837 2.819792,1.256535 C 1.5282607,1.5794183 0.59686767,1.4591823 0.025613,0.614719 C -0.048898333,0.20490633 0.038031667,0 0.286403,0 C 0.43542633,0 0.55961233,0.062093 0.658961,0.186279 C 1.1673327,0.61213713 1.4207266,0.31621831 2.111933,0.223534 C 2.5643634,0.049674 3.0246987,0.30255872 3.844324,0.51367472 C 4.2293,0.31497739 4.6949967,0.062092667 5.241414,0.223534 C 6.110714,0 6.762689,0.11797667 7.197339,0.577464 C 7.631989,0.11797667 8.2198963,0.1639797 9.101615,0.3875137 C 9.6356137,0.22607237 10.165378,0.15099768 10.550353,0.51367472 C 11.369979,0.30255872 11.947443,0.049674 12.282744,0.223534 C 12.618045,0.397394 12.9223,0.46569633 13.195509,0.428441 C 13.468718,0.391185 13.651892,0.31046433 13.745031,0.186279 C 13.83817,0.062093 13.959251,0 14.108274,0 C 14.369064,0 14.455994,0.20490633 14.369064,0.614719 C 13.79781,1.4591823 12.866417,1.7199723 11.574885,1.397089 C 10.829771,1.732391 10.236784,1.828635 9.795925,1.685821 C 9.3550657,1.5430077 8.7699843,1.3539093 8.5091943,1.540188 C 8.7699843,1.7513033 9.4451007,2.3688423 10.06603,2.971143 C 10.686958,3.5734443 11.556258,4.0795013 12.673929,4.489314 C 13.7916,4.8991267 14.965156,5.1164517 16.194595,5.141289 C 17.424034,5.1661263 18.625531,5.13508 19.799086,5.04815 C 20.972641,4.96122 22.065475,5.2530563 23.077589,5.923659 C 24.089702,6.5942623 24.477782,7.6622593 24.241829,9.12765 C 24.005876,10.593042 23.959306,11.505807 24.102121,11.865946 C 24.244934,12.226085 24.564712,12.78492 25.061455,13.542453 C 25.558198,14.299986 25.620291,14.815357 25.247734,15.088566 C 24.912432,15.22517 24.499515,14.939543 24.008982,14.231684 C 23.518447,13.523825 23.313541,12.645211 23.394262,11.595842 C 23.474983,10.546473 23.546389,9.6989053 23.608482,9.05314 C 23.248343,9.7361607 22.953403,10.403659 22.72366,11.055634 C 22.493916,11.707609 22.41009,12.272655 22.472183,12.75077 C 22.534276,13.228885 22.506334,13.533139 22.388357,13.663534 C 22.270381,13.793929 22.146195,13.871545 22.0158,13.896382 C 21.885405,13.92122 21.522162,13.902592 20.926071,13.840499 C 20.081608,13.877754 19.199889,13.834289 18.280914,13.710104 C 18.243659,13.846708 18.166043,13.983312 18.048067,14.119917 C 17.93009,14.256521 17.746916,14.275149 17.498545,14.1758 C 17.374358,14.473846 17.225335,14.70359 17.051476,14.865031 L 14.983784,14.380707 C 15.331503,13.92122 15.722688,13.505197 16.157339,13.13264 C 16.480222,12.809757 17.237754,12.555177 18.429937,12.368898 C 18.23124,12.095689 18.187775,11.667249 18.299543,11.083576 L 15.784781,11.158088 C 15.586084,11.257436 15.592294,11.524435 15.80341,11.959085 C 15.617131,11.971504 15.263202,11.74797 14.741622,11.288483 C 14.542925,11.213971 14.431158,11.120832 14.406321,11.009065 C 14.406321,10.934553 14.11138,10.866251 13.521497,10.804158 C 12.931615,10.742065 12.220652,10.586833 11.388607,10.338462 L 10.475842,11.828691 L 10.475842,11.847318 C 9.1843107,12.207457 7.2760909,12.666096 5.9224662,12.988978 z M 9.97289,11.30711 L 9.954262,11.30711 C 10.662121,10.450229 11.028469,9.7858353 11.053306,9.31393 C 11.202329,9.227 11.27684,9.3325577 11.27684,9.630603 C 12.14614,10.015579 13.319695,10.239113 14.797505,10.301206 L 14.909272,10.412973 L 18.392681,10.226694 C 18.243658,9.990742 18.051171,9.5871383 17.815218,9.015883 L 18.187775,8.810977 C 18.460984,9.369813 18.914262,10.043521 19.547609,10.8321 C 20.316249,12.14329 20.514017,12.615515 21.950603,13.076756 C 21.776744,12.281968 21.925766,11.375412 22.397671,10.357089 C 22.869577,9.3387663 23.114844,8.627803 23.133472,8.224199 C 23.152099,7.8205957 22.975134,7.420097 22.602577,7.022703 L 22.602577,6.799169 C 23.086902,7.022703 23.453251,7.3207483 23.701622,7.693305 C 23.54018,7.072377 23.068274,6.5570063 22.285904,6.147193 C 21.503534,5.7373803 20.283409,5.6007763 18.62553,5.737381 C 16.967651,5.873985 15.260098,5.8522523 13.502869,5.672183 C 11.745641,5.4921137 10.491365,5.5386833 9.740042,5.811892 C 8.988718,6.0851007 8.454719,6.690506 8.138045,7.628108 C 7.8213717,8.5657107 7.725128,9.2021623 7.849314,9.537463 C 7.6630353,10.543368 8.6991259,10.36895 7.514012,10.841413 C 6.4433584,11.482714 4.4634345,12.061306 5.036507,12.815967 C 5.682273,12.666944 7.327734,12.163991 9.97289,11.30711 z"
     id="path2876"
     sodipodi:nodetypes="cccccscccsssccccccccssssccsccccccscsccscccsssssscssscsscscscccscccccssscsscccssccccsscssscsccscccccccssssccscsssssssscsscssssccscccccccccsscccccccccccccccsscccssssscccc" />
</svg>
