<?xml version="1.0" encoding="UTF-8" standalone="no"?>
<svg
   xmlns:dc="http://purl.org/dc/elements/1.1/"
   xmlns:cc="http://creativecommons.org/ns#"
   xmlns:rdf="http://www.w3.org/1999/02/22-rdf-syntax-ns#"
   xmlns:svg="http://www.w3.org/2000/svg"
   xmlns="http://www.w3.org/2000/svg"
   xmlns:sodipodi="http://sodipodi.sourceforge.net/DTD/sodipodi-0.dtd"
   xmlns:inkscape="http://www.inkscape.org/namespaces/inkscape"
   width="23.90489"
   height="16.559999"
   id="svg2998"
   sodipodi:version="0.32"
   inkscape:version="0.46"
   sodipodi:docname="E185.svg"
   inkscape:output_extension="org.inkscape.output.svg.inkscape">
  <metadata
     id="metadata3005">
    <rdf:RDF>
      <cc:Work
         rdf:about="">
        <dc:format>image/svg+xml</dc:format>
        <dc:type
           rdf:resource="http://purl.org/dc/dcmitype/StillImage" />
      </cc:Work>
    </rdf:RDF>
  </metadata>
  <defs
     id="defs3003">
    <inkscape:perspective
       sodipodi:type="inkscape:persp3d"
       inkscape:vp_x="0 : 8.2799997 : 1"
       inkscape:vp_y="0 : 1000 : 0"
       inkscape:vp_z="23.90489 : 8.2799997 : 1"
       inkscape:persp3d-origin="11.952445 : 5.5199998 : 1"
       id="perspective3007" />
  </defs>
  <sodipodi:namedview
     inkscape:window-height="480"
     inkscape:window-width="640"
     inkscape:pageshadow="2"
     inkscape:pageopacity="0.0"
     guidetolerance="10.0"
     gridtolerance="10.0"
     objecttolerance="10.0"
     borderopacity="1.0"
     bordercolor="#666666"
     pagecolor="#ffffff"
     id="base"
     showgrid="false" />
  <path
     style="fill:#000000; stroke:none"
     d="M 4.005817,0.684058 C 4.328171,0.88552933 4.489348,1.0668537 4.489348,1.228031 C 5.6041567,1.3354823 6.161561,1.711562 6.161561,2.35627 C 6.1749917,2.92039 5.9231523,3.3300487 5.406043,3.585246 C 4.888933,3.8404427 3.978954,3.9075997 2.676106,3.786717 L 2.676106,3.927747 C 4.1938567,4.156081 5.2415077,4.0889237 5.819059,3.726275 C 6.3966103,3.363627 6.685386,2.900243 6.685386,2.336123 C 6.685386,1.7182777 6.376463,1.221315 5.758617,0.845235 C 5.1407723,0.469155 4.5565057,0.41542933 4.005817,0.684058 z M 0.419627,3.283038 C 0.473353,3.5516667 0.54051,3.712844 0.621098,3.76657 C 1.0106093,3.806864 1.3766157,3.7430647 1.719117,3.575172 C 2.0616183,3.4072793 2.209364,3.393848 2.162354,3.534878 C 2.115344,3.675908 1.93402,3.7732857 1.618382,3.827011 C 1.3027433,3.880737 1.0173253,3.9076 0.762128,3.9076 C 0.856148,4.0687767 1.044188,4.1392913 1.326248,4.119144 C 1.608308,4.0989973 1.910515,4.0486297 2.232869,3.968041 C 2.192575,3.874021 2.2060063,3.759854 2.273163,3.62554 C 2.3403203,3.4912253 2.6223803,3.4610047 3.119343,3.534878 C 3.6163057,3.6087507 4.119984,3.5650983 4.630378,3.403921 C 4.2945927,3.0144097 4.1267,2.678624 4.1267,2.396564 C 4.1132687,2.0876413 4.1602787,1.892886 4.26773,1.812298 L 4.509495,1.812298 C 5.1810663,1.9734747 5.4832733,2.3764173 5.416116,3.021126 C 5.5907247,2.8868113 5.678029,2.658477 5.678029,2.336123 C 5.678029,1.960043 5.1474877,1.7182773 4.086405,1.610826 C 4.086405,1.288472 3.9453753,1.060138 3.663316,0.925824 C 3.42155,0.91239267 3.206647,0.952687 3.018607,1.046707 C 2.830567,1.140727 2.5250023,1.2951883 2.101913,1.510091 C 1.678823,1.7249937 1.144924,2.201809 0.500216,2.940537 C 0.47335267,3.0479883 0.44648967,3.1621553 0.419627,3.283038 z M 3.42155,1.651121 L 4.066258,1.93318 L 4.066258,2.033916 C 3.7707667,2.4234273 3.3275297,2.5174473 2.736547,2.315976 L 1.426984,3.06142 C 1.4001207,2.9539687 1.5243613,2.8431593 1.799706,2.728992 C 2.07505,2.6148253 2.2933107,2.4973003 2.454488,2.376417 C 2.723116,1.9331803 3.04547,1.691415 3.42155,1.651121 z M 4.509495,2.114505 L 4.428907,2.114505 C 4.469201,2.571173 4.6841037,3.0412727 5.073615,3.524804 C 5.1273403,3.2561753 5.1407717,3.0009783 5.113909,2.759213 C 5.0870463,2.517447 4.885575,2.3025443 4.509495,2.114505 z M 0.862864,3.041273 C 1.1046293,3.041273 1.225512,3.1017143 1.225512,3.222597 C 1.225512,3.3031857 1.0509037,3.39049 0.701687,3.48451 C 0.58080433,3.4710787 0.520363,3.3837743 0.520363,3.222597 C 0.520363,3.1420083 0.63453,3.081567 0.862864,3.041273 z M 22.561327,14.464698 C 22.789662,14.813915 22.856819,15.095975 22.762798,15.310878 C 22.668779,15.525781 22.480739,15.6198 22.198679,15.592937 C 22.21211,15.969017 22.097943,16.284655 21.856178,16.539852 L 19.720581,16.539852 C 20.056367,15.989164 20.466025,15.43176 20.949556,14.86764 L 20.949556,13.477489 C 20.815242,12.564152 20.163818,11.623952 18.995285,10.65689 C 18.780382,10.791204 18.646067,10.992675 18.592342,11.261304 C 18.538616,11.529933 18.474817,11.81535 18.400944,12.117557 C 18.327071,12.419764 18.095379,12.658172 17.705868,12.83278 C 17.316357,13.007389 16.933561,13.400258 16.557482,14.011388 C 16.181401,14.622517 15.879194,15.028818 15.650861,15.230289 C 15.570272,15.848134 15.301644,16.076469 14.844975,15.915292 C 14.858407,16.076469 14.844976,16.284655 14.804681,16.539852 L 12.568349,16.539852 C 13.078744,15.626515 13.495118,15.142984 13.817472,15.089259 C 13.951786,15.116122 14.112963,14.921367 14.301003,14.504992 C 14.918848,13.940873 15.402379,13.380111 15.751596,12.822706 C 16.100813,12.265303 16.335862,11.274736 16.456745,9.851005 L 14.301003,10.112917 C 14.206982,10.368114 14.173404,10.791204 14.200267,11.382187 C 13.94507,11.247873 13.790609,10.979245 13.736883,10.576302 C 13.495117,10.522575 13.340656,10.401692 13.273499,10.213653 C 13.112322,10.133064 12.612002,10.025613 11.772537,9.891298 C 10.933073,9.756984 10.177555,9.6965427 9.505984,9.709974 C 9.65373,10.475565 9.8954957,11.01618 10.231281,11.331819 C 10.567067,11.647457 10.728244,12.08062 10.714812,12.631309 C 10.701381,13.181997 10.929716,13.793127 11.399816,14.464698 C 11.628149,14.813915 11.698664,15.099332 11.611361,15.320951 C 11.524056,15.542569 11.339374,15.633231 11.057314,15.592937 C 11.057314,15.969017 10.943147,16.291371 10.714812,16.559999 L 8.55907,16.559999 C 8.908286,15.99588 9.3246597,15.43176 9.808191,14.86764 C 9.767897,14.196069 9.660446,13.652097 9.485838,13.235723 C 8.9888753,13.061114 8.6530893,12.617877 8.47848,11.906012 C 8.0889693,11.409049 7.7733313,11.100127 7.531566,10.979244 C 7.3972513,10.992675 7.0916863,11.207578 6.614871,11.623952 C 6.1380557,12.040326 5.684745,12.530573 5.254939,13.094693 C 4.7579763,13.363322 4.489348,13.551362 4.449054,13.658813 C 4.0058173,14.169207 3.784199,14.827347 3.784199,15.633232 C 3.6498843,15.969017 3.3879713,16.063037 2.99846,15.915292 C 2.9178713,16.103331 2.7499787,16.311518 2.494782,16.539852 L 0.600951,16.539852 C 0.89644233,15.989164 1.460562,15.411613 2.29331,14.807199 C 2.29331,14.538571 2.5149287,14.219575 2.958166,13.85021 C 3.4014027,13.480847 3.6801047,13.077904 3.794272,12.641382 C 3.9084393,12.204861 4.0662587,11.882507 4.26773,11.67432 C 4.4692013,11.466133 4.640452,11.207578 4.781482,10.898655 C 4.922512,10.589732 4.9594483,10.314388 4.892291,10.072622 C 3.723757,8.8100687 3.1529217,6.902807 3.179785,4.350837 L 2.615665,4.250101 C 1.6888963,4.4247097 1.0811243,4.485151 0.792349,4.431425 C 0.50357367,4.3776997 0.27188167,4.162797 0.097273,3.786717 C -0.11762967,3.276323 0.0099686667,2.782718 0.480068,2.305902 C 0.950168,1.8290867 1.4068367,1.453007 1.850074,1.177663 C 2.2933107,0.902319 2.7365477,0.670627 3.179785,0.482587 C 3.9319443,0.093075667 4.516211,-0.061385667 4.932585,0.019203 C 5.348959,0.099791667 5.7854803,0.28447367 6.242149,0.573249 C 6.698817,0.86202433 7.279726,1.2750407 7.984876,1.812298 C 8.690026,2.3495547 9.647015,2.7021293 10.855843,2.870022 C 12.064671,3.0379147 13.337298,3.1520817 14.673724,3.212523 C 16.010151,3.272965 17.292852,3.2830387 18.521828,3.242744 C 19.750803,3.20245 20.979778,3.5415933 22.208754,4.260174 C 23.437729,4.9787553 23.790303,6.74163 23.266478,9.548798 C 23.561969,10.824783 23.763441,11.761624 23.870892,12.359323 C 23.978343,12.957021 23.837313,13.323027 23.447802,13.457341 C 23.058291,13.457341 22.806451,12.9268 22.692284,11.865718 C 22.578117,10.804635 22.594906,9.9786027 22.742651,9.38762 C 22.890397,8.7966373 22.944123,8.0713407 22.90383,7.21173 C 22.648633,8.1116347 22.359857,8.7496273 22.037502,9.125708 C 21.715147,9.5017873 21.624485,9.9584553 21.765516,10.495712 C 21.906545,11.032969 22.064365,11.308314 22.238974,11.321745 C 22.440445,11.308314 22.514317,11.563511 22.460592,12.087337 C 22.487455,13.63195 22.521034,14.424404 22.561327,14.464698 z M 21.785664,8.420558 C 22.235616,7.816144 22.474024,7.2385927 22.500887,6.687904 C 22.527749,6.137216 22.259121,5.6872633 21.695002,5.338046 L 21.654707,5.116428 C 22.205396,5.304468 22.588191,5.5260863 22.803093,5.781283 L 22.944122,5.962607 C 22.702357,5.317899 22.054291,4.7806423 20.999926,4.350837 C 19.945559,3.921031 18.625921,3.7732853 17.041014,3.9076 C 15.456105,4.041914 13.75703,4.0687767 11.943788,3.988188 C 9.754466,4.0016193 8.3508823,4.243385 7.733037,4.713485 C 7.1151917,5.183585 6.806269,5.955892 6.806269,7.030406 C 6.7331918,10.538962 9.0132714,10.261262 9.002306,8.843648 C 9.1634833,8.749628 9.244072,8.863795 9.244072,9.186149 C 10.143977,9.172717 11.594571,9.3204627 13.595853,9.629386 L 13.736883,9.750269 C 15.711302,9.4279143 17.182042,9.313747 18.149105,9.407767 C 17.611848,8.816785 17.081307,8.588451 16.557482,8.722765 L 16.295568,8.360116 C 20.097355,8.3223479 19.049688,12.421674 21.785664,8.420558 z M 7.209211,1.973475 C 7.209211,2.8330857 6.886857,3.5080147 6.242149,3.998262 C 5.5974403,4.4885087 4.791555,4.6261807 3.824493,4.411278 C 3.8379243,6.452854 4.1770677,7.9638893 4.841923,8.944384 C 5.5067783,9.9248773 6.027246,10.441987 6.403326,10.495712 C 6.779406,10.549439 7.014456,10.502429 7.108476,10.354683 C 6.356316,9.333895 6.0641823,7.9068063 6.232075,6.073417 C 6.3999677,4.2400277 8.303872,3.4106373 11.943788,3.585246 C 9.6335827,3.3703427 8.0553903,2.8330857 7.209211,1.973475 z"
     id="path3000"
     sodipodi:nodetypes="ccssccssscccssscscsscscccsccsscccccccscccccsccscsccsccccccssssccccccscccccscsscscccccccscccccccsssscccsssscssssssscscsscssscccsccccsscsccccccccccscsscscc" />
</svg>
