<?xml version="1.0" encoding="UTF-8" standalone="no"?>
<svg
   xmlns:dc="http://purl.org/dc/elements/1.1/"
   xmlns:cc="http://creativecommons.org/ns#"
   xmlns:rdf="http://www.w3.org/1999/02/22-rdf-syntax-ns#"
   xmlns:svg="http://www.w3.org/2000/svg"
   xmlns="http://www.w3.org/2000/svg"
   xmlns:sodipodi="http://sodipodi.sourceforge.net/DTD/sodipodi-0.dtd"
   xmlns:inkscape="http://www.inkscape.org/namespaces/inkscape"
   width="24.443653"
   height="17.983217"
   id="svg2780"
   sodipodi:version="0.32"
   inkscape:version="0.46"
   sodipodi:docname="E186BARA.svg"
   inkscape:output_extension="org.inkscape.output.svg.inkscape">
  <metadata
     id="metadata2787">
    <rdf:RDF>
      <cc:Work
         rdf:about="">
        <dc:format>image/svg+xml</dc:format>
        <dc:type
           rdf:resource="http://purl.org/dc/dcmitype/StillImage" />
      </cc:Work>
    </rdf:RDF>
  </metadata>
  <defs
     id="defs2785">
    <inkscape:perspective
       sodipodi:type="inkscape:persp3d"
       inkscape:vp_x="0 : 8.9916086 : 1"
       inkscape:vp_y="0 : 1000 : 0"
       inkscape:vp_z="24.443653 : 8.9916086 : 1"
       inkscape:persp3d-origin="12.221827 : 5.9944057 : 1"
       id="perspective2789" />
  </defs>
  <sodipodi:namedview
     inkscape:window-height="712"
     inkscape:window-width="1024"
     inkscape:pageshadow="2"
     inkscape:pageopacity="0.0"
     guidetolerance="10.0"
     gridtolerance="10.0"
     objecttolerance="10.0"
     borderopacity="1.0"
     bordercolor="#666666"
     pagecolor="#ffffff"
     id="base"
     showgrid="false"
     inkscape:zoom="28.192125"
     inkscape:cx="12.221591"
     inkscape:cy="8.9913445"
     inkscape:window-x="-4"
     inkscape:window-y="-4"
     inkscape:current-layer="svg2780" />
  <path
     style="fill:#000000; stroke:none"
     d="M 12.221171,0 C 12.444796,0.013976667 12.570585,0.080365333 12.598538,0.199166 C 12.626491,0.31796667 12.577573,0.44026133 12.451784,0.56605 C 12.703362,0.66388533 12.75228,0.83160367 12.598538,1.069205 C 12.486726,1.2509003 12.12683,1.4186187 11.51885,1.57236 C 10.910871,1.726102 9.8137127,1.7680317 8.227376,1.698149 C 6.6410387,1.6282663 5.456527,2.089492 4.673841,3.081826 C 4.6598643,3.0958027 4.6808293,3.1377323 4.736736,3.207615 C 5.6452107,2.1733517 6.7773103,1.7680323 8.133035,1.991657 C 7.8954337,3.137733 7.0917827,3.8505363 5.722082,4.130067 C 7.035876,5.1363777 8.9436733,5.803757 11.445474,6.132205 C 13.947274,6.4606537 16.267379,6.3208887 18.405788,5.71291 C 20.544199,5.1049307 22.011736,5.3460257 22.808399,6.436195 L 22.934187,5.639533 L 22.913223,4.717081 L 24.422688,4.717081 L 24.443653,5.241201 C 24.443653,6.009911 24.087252,6.8205503 23.374449,7.673119 C 23.374449,8.5396643 23.039012,9.6368223 22.368137,10.964593 C 22.563808,11.397866 22.871292,11.838127 23.290588,12.285377 L 23.20673,14.926942 C 23.220706,15.402144 23.416378,16.073018 23.793745,16.939564 C 23.779768,17.107282 23.584096,17.275 23.20673,17.442719 C 23.178777,17.72225 22.962141,17.893462 22.55682,17.956356 C 22.151501,18.01925 21.781123,17.973827 21.445686,17.820086 C 21.501592,17.079329 21.606416,16.611114 21.760159,16.415443 C 21.969807,16.121936 22.067642,15.898311 22.053665,15.744569 C 21.634369,13.410487 20.949519,11.775232 19.999115,10.838804 L 19.579819,12.138622 L 17.713951,15.891323 C 17.769857,16.017112 17.79781,16.219771 17.79781,16.499302 C 17.79781,16.79281 17.651057,16.95354 17.35755,16.981493 L 17.189831,17.023422 L 17.189831,17.966839 L 14.883701,17.966839 L 14.883701,17.505613 C 15.848082,16.569185 16.62378,15.492992 17.210794,14.277033 C 17.546232,13.354581 17.672021,12.22947 17.588161,10.901699 C 16.931264,11.265089 16.218461,11.523655 15.449752,11.677397 C 14.233793,11.831139 13.094705,11.887045 12.032488,11.845116 C 11.899486,13.571872 12.104751,14.80519 13.169667,16.29278 C 13.305047,16.729306 12.900293,16.641585 12.829151,16.855703 L 12.996869,17.505613 C 12.451784,17.966838 11.690063,18.071663 10.711705,17.820086 L 11.151966,16.604126 C 10.847086,13.715326 10.026856,12.662742 9.453817,12.159587 C 9.3699583,12.31333 9.0345213,12.2714 8.447506,12.033798 C 7.7376668,12.775842 7.2526008,14.212406 6.875146,15.409132 C 7.1041157,17.167416 6.4458859,16.227868 6.099448,16.415443 C 6.1553543,16.492314 6.2112607,16.569184 6.267167,16.646055 L 6.267167,17.966839 L 4.191651,17.966839 C 4.3593697,17.086316 4.5131113,16.646055 4.652876,16.646055 L 5.428575,15.681675 C 5.993189,14.10207 6.4950505,12.669473 6.581639,10.985559 C 5.0581963,9.643811 3.856214,8.0994033 2.975692,6.352336 C 2.7800207,6.352336 2.4935017,6.3942657 2.116135,6.478125 C 1.8645577,6.841515 1.6758743,7.204905 1.550085,7.568295 C 1.4242963,7.9316843 1.200672,8.0924147 0.879212,8.050486 L 0.879212,6.561984 C 0.72547,6.5759607 0.52281,6.4361953 0.271232,6.142688 C 0.019654667,5.8491807 -0.057216333,5.5556733 0.040619,5.262166 C 0.43196233,4.7170813 0.94909433,4.1510317 1.592015,3.564017 C 1.801663,2.935073 2.2349357,2.4878237 2.891833,2.222269 C 3.2971523,1.956715 3.625601,1.7121257 3.877179,1.488501 C 4.7437243,0.83160367 5.519422,0.43327233 6.204272,0.293507 C 6.8891227,0.15374167 7.7347033,0.12928267 8.741014,0.22013 C 9.7473247,0.310978 10.907377,0.23760133 12.221171,0 z M 4.002967,2.201305 C 4.9114423,1.4885017 5.6871403,1.055229 6.330061,0.901487 C 6.9729817,0.747745 7.811574,0.71979167 8.845838,0.817627 C 9.8801013,0.915463 11.026177,0.803651 12.284066,0.482191 L 12.242136,0.356402 C 10.956295,0.59400267 9.799737,0.67087367 8.772461,0.587015 C 7.7451857,0.50315567 6.9100877,0.538097 6.267167,0.691839 C 5.6242457,0.84558033 4.8345713,1.278853 3.898144,1.991657 L 4.002967,2.201305 z M 4.233581,2.515777 L 4.359369,2.683495 C 5.295797,1.9427383 6.022577,1.51296 6.539709,1.39416 C 7.056841,1.2753593 7.8535037,1.2543943 8.929697,1.331265 C 10.00589,1.4081363 11.165943,1.271865 12.409855,0.922451 L 12.305031,0.817627 C 11.117025,1.1111343 9.9884193,1.2089703 8.919214,1.111135 C 7.8500093,1.013299 7.000935,1.044746 6.371991,1.205476 C 5.743047,1.3662067 5.0302437,1.8029737 4.233581,2.515777 z M 5.114102,3.626911 L 5.239891,3.7527 C 6.330061,3.4591927 7.0917823,2.9839903 7.525055,2.327093 C 6.686463,2.327093 5.882812,2.7603657 5.114102,3.626911 z M 3.269199,3.438228 C 3.255223,3.9693367 2.9197863,4.234891 2.262889,4.234891 C 2.067217,4.2069377 2.046252,4.039219 2.199994,3.731735 C 2.5773607,3.5360637 2.9337623,3.438228 3.269199,3.438228 z M 0.606669,5.220237 C 0.606669,5.1363777 0.72546967,5.0804713 0.963071,5.052518 C 1.2146483,5.052518 1.340437,5.1084243 1.340437,5.220237 C 1.340437,5.3180723 1.1447657,5.4368727 0.753423,5.576638 C 0.655587,5.520732 0.606669,5.4019317 0.606669,5.220237 z M 1.969381,3.710771 L 0.564739,5.199272 C 0.452927,5.422896 0.55775133,5.68845 0.879212,5.995934 C 1.200672,5.9540047 1.515144,5.8352043 1.822628,5.639533 C 2.130112,5.443861 2.3048187,5.4368727 2.346748,5.618568 C 2.3327713,5.7583333 2.2069823,5.8421927 1.969381,5.870146 C 1.7317803,5.8980987 1.4452613,6.016899 1.109824,6.226547 C 1.1936833,6.380289 1.284531,6.4396893 1.382367,6.404748 C 1.480203,6.3698067 1.6723803,6.2929357 1.958899,6.174135 C 2.2454183,6.0553343 2.7450797,5.9260513 3.457883,5.786286 C 3.5836717,6.41523 4.118274,7.3271993 5.06169,8.522194 C 6.0051067,9.717188 6.8821343,10.527827 7.692773,10.954111 C 8.5034123,11.380395 9.0065677,11.579561 9.202239,11.551608 C 8.9925917,11.411843 8.6292017,11.160265 8.112069,10.796875 C 7.5949377,10.433485 7.336372,9.6577873 7.336372,8.469782 L 7.776633,8.448816 C 7.7626563,9.0777607 7.8744683,9.5459747 8.112069,9.853458 C 8.9114904,11.001908 10.9325,12.365434 11.204378,9.790565 C 10.959789,9.077761 10.760623,8.6654527 10.606881,8.55364 C 11.249802,8.6095467 11.690063,9.497057 11.927664,11.216171 C 12.933975,11.286054 13.80052,11.268583 14.5273,11.163759 C 15.25408,11.058935 15.876036,10.901699 16.393167,10.692051 C 17.720939,10.146966 18.538567,9.874423 18.84605,9.874423 C 19.894291,9.874423 20.579141,10.20986 20.9006,10.880734 C 20.851383,10.451582 21.706511,11.591005 21.718229,10.901699 C 22.431032,9.3782563 22.815387,8.357969 22.871292,7.840837 C 22.871292,7.4634703 22.689597,7.0791157 22.326208,6.687773 C 21.417733,5.919063 19.936219,5.817733 17.881668,6.383783 C 15.827118,6.949833 13.608343,7.0861043 11.225343,6.792597 C 8.8423437,6.4990897 7.0917827,5.8876163 5.97366,4.958177 C 4.8555367,4.028737 4.2056273,3.406781 4.023932,3.092309 C 3.8422373,2.777837 3.5312597,2.652048 3.090999,2.714942 C 2.6507377,2.7778367 2.276865,3.1097797 1.969381,3.710771 z"
     id="path2782"
     sodipodi:nodetypes="cscsssscccsscccccccccccscsccccsccccccccccccccccccccccccccsccsccccssccssccssccccssccssccccccccccsscccccssscsscsscsccccccsssccccsssssc" />
</svg>
