<?xml version="1.0" encoding ="US-ASCII" standalone="yes"?>
<svg width="20.170124" height="18.959999">
<path style="fill:#000000; stroke:none" d=" M 7.857785 11.32935  Q 7.391283 11.32935 7.391283 10.579615  Q 7.424604 10.429667 7.374621 11.362671  L 7.857785 11.32935  Z  M 3.959155 5.614693  L 4.392336 3.782004  Q 4.042459 3.632057 3.809208 3.715361  L 3.959155 5.614693  Z  M 3.775886 5.598032  L 3.6426 3.732022  Q 3.342705 3.632057 3.142775 3.815326  L 3.775886 5.598032  Z  M 4.125763 5.631353  L 5.075429 3.998595  Q 4.89216 3.798665 4.575604 3.831986  L 4.125763 5.631353  Z  M 3.592617 5.648015  L 2.976167 3.848647  Q 2.709594 3.798665 2.526325 3.981934  L 3.592617 5.648015  Z  M 1.943197 4.298489  L 3.409348 5.747979  L 2.393039 4.031916  Q 2.126466 4.081898 1.943197 4.298489  Z  M 5.675219 4.415115  L 4.408997 5.814622  L 5.941792 4.781652  Q 5.875148 4.548401 5.675219 4.415115  Z  M 4.27571 5.697997  L 5.558593 4.31515  Q 5.475288 4.13188 5.258699 4.098559  L 4.27571 5.697997  Z  M 1.360069 4.881618  Q 2.109805 5.114869 3.276062 5.914587  Q 3.02615 5.598032 1.79325 4.398454  Q 1.543338 4.465097 1.360069 4.881618  Z  M 4.508962 5.96457  L 6.141722 5.298138  Q 6.141722 5.081547 6.025095 4.948261  L 4.508962 5.96457  Z  M 1.210121 5.031564  Q 1.060174 5.114869 1.043513 5.331459  Q 2.109805 5.614693 3.209418 6.1645  Q 1.99318 5.164851 1.210121 5.031564  Z  M 4.575604 6.097857  L 6.175043 5.797962  Q 6.241686 5.581371 6.175043 5.448085  L 4.575604 6.097857  Z  M 3.192758 6.38109  Q 2.226431 5.781301 0.960209 5.581371  Q 0.810262 5.714658 0.860245 5.881266  L 3.192758 6.38109  Z  M 6.658206 5.997892  L 6.608224 6.197822  Q 6.991423 6.414412 7.274657 6.314447  Q 7.691177 6.264464 7.891107 6.322777  Q 8.091037 6.38109 8.240983 6.547698  L 8.124357 6.664324  Q 7.824463 6.431073 7.54123 6.522707  Q 7.257996 6.614342 7.199683 7.022532  Q 7.14137 7.430722 7.3413 7.880564  L 8.107697 7.880564  Q 8.540878 7.430722 8.507556 6.830932  Q 8.474234 6.231143 7.807803 5.989561  Q 7.14137 5.747979 6.658206 5.997892  Z  M 4.608927 6.264464  L 6.108399 6.281125  Q 6.225025 6.097857 6.191704 5.914587  L 4.608927 6.264464  Z  M 3.892512 5.98123  Q 3.525974 5.997892 3.525974 6.364429  Q 3.525974 6.730968 3.892512 6.730968  Q 4.242389 6.730968 4.25905 6.364429  Q 4.242389 5.997892 3.892512 5.98123  Z  M 0.77694 6.064535  Q 0.660315 6.247804 0.693636 6.481055  Q 1.726607 6.447733 3.192758 6.564359  L 0.77694 6.064535  Z  M 7.75782 6.131178  L 7.75782 6.214482  L 7.208014 6.214482  Q 6.991423 6.214482 6.958101 6.214482  Q 6.924779 6.214482 6.966432 6.106186  Q 7.008084 5.997892 6.924779 5.997892  Q 6.841476 5.997892 6.874797 6.106186  Q 6.908119 6.214482 6.866467 6.206151  Q 6.824814 6.197822 6.791493 6.131178  Q 6.774832 5.997892 6.899788 5.9729  Q 7.024745 5.947909 7.099718 6.022883  Q 7.174692 6.097857 7.75782 6.131178  Z  M 6.558241 6.397751  Q 6.12506 7.847242 4.425658 7.780599  Q 4.47564 7.880564 4.875499 7.880564  L 7.041406 7.880564  Q 6.841476 7.41406 6.883128 7.072515  Q 6.924779 6.730968 7.074727 6.581019  Q 6.791493 6.614342 6.558241 6.397751  Z  M 4.592266 6.431073  L 5.891809 6.697646  Q 6.058417 6.597682 6.075078 6.414412  L 4.592266 6.431073  Z  M 3.209418 6.764289  Q 1.943197 6.581019 0.726958 6.730968  Q 0.626993 6.847593 0.693636 7.014201  Q 2.026501 6.830932 3.24274 6.814271  L 3.209418 6.764289  Z  M 4.558945 6.564359  L 5.50861 7.080844  Q 5.725201 6.99754 5.808505 6.830932  L 4.558945 6.564359  Z  M 4.508962 6.714306  L 5.042107 7.347417  Q 5.308681 7.330757 5.358663 7.19747  L 4.508962 6.714306  Z  M 4.775535 7.3974  L 4.408997 6.847593  Q 4.159084 7.080844 3.85919 7.080844  Q 4.109102 7.364078 4.775535 7.3974  Z  M 3.292723 6.947558  Q 2.109805 6.964219 0.660315 7.280774  Q 0.626993 7.480704 0.726958 7.713955  Q 1.709946 7.314095 3.309384 7.047523  L 3.292723 6.947558  Z  M 3.409348 7.230792  L 3.376027 7.147488  Q 1.843232 7.447382 0.76028 7.963867  Q 0.76028 8.330406 0.910227 8.497013  Q 1.99318 7.880564 3.409348 7.230792  Z  M 0.97687 8.713604  Q 1.010192 8.996837 1.243443 9.146785  Q 2.093144 8.397047 3.525974 7.447382  L 3.44267 7.347417  Q 2.093144 7.963867 0.97687 8.713604  Z  M 3.625939 7.564008  Q 2.293074 8.463692 1.310086 9.330053  Q 1.326747 9.513323 1.543338 9.596625  Q 2.759577 8.363727 3.709243 7.663973  L 3.625939 7.564008  Z  M 1.676624 9.746573  Q 1.726607 9.946503 1.943197 9.996486  Q 2.493004 9.246748 3.942494 7.897224  L 3.84253 7.780599  Q 2.759577 8.646959 1.676624 9.746573  Z  M 7.857785 8.097154  Q 6.874797 10.329701 6.924779 11.362671  L 7.191353 11.362671  Q 7.14137 10.113111 7.991072 8.097154  L 7.857785 8.097154  Z  M 7.574551 8.097154  Q 6.558241 10.396345 6.558241 11.362671  L 6.741511 11.362671  Q 6.741511 10.263059 7.724499 8.097154  L 7.574551 8.097154  Z  M 7.274657 8.097154  Q 6.141722 10.47965 6.091739 11.362671  L 6.358312 11.362671  Q 6.408294 10.379685 7.424604 8.097154  L 7.274657 8.097154  Z  M 6.958101 8.097154  Q 5.791844 10.196415 5.625236 11.362671  L 5.92513 11.362671  Q 6.041757 10.213076 7.14137 8.097154  L 6.958101 8.097154  Z  M 6.658206 8.097154  Q 5.408645 10.146434 5.10875 11.296029  L 5.441967 11.362671  Q 5.625236 10.113111 6.808154 8.097154  L 6.658206 8.097154  Z  M 6.374973 8.097154  Q 4.792196 10.246399 4.525623 11.212725  L 4.942142 11.279367  Q 5.192055 10.163094 6.491599 8.097154  L 6.374973 8.097154  Z  M 5.975113 8.097154  Q 4.408997 10.096451 4.075781 11.146081  L 4.392336 11.196064  Q 4.65891 10.213076 6.141722 8.097154  L 5.975113 8.097154  Z  M 5.641896 8.097154  Q 3.84253 10.129772 3.525974 10.979474  L 3.892512 11.0961  Q 4.225728 10.079789 5.791844 8.097154  L 5.641896 8.097154  Z  M 5.342001 8.097154  Q 3.542635 10.046469 3.109454 10.762882  Q 3.126115 10.862847 3.376027 10.91283  Q 3.725904 10.046469 5.50861 8.097154  L 5.342001 8.097154  Z  M 2.692934 10.562953  Q 2.759577 10.69624 2.976167 10.679579  Q 3.575957 9.696591 5.175394 8.097154  L 4.975464 8.097154  Q 3.342705 9.546645 2.692934 10.562953  Z  M 4.742213 8.097154  L 4.458979 8.097154  Q 3.126115 9.346714 2.393039 10.346363  Q 2.409699 10.47965 2.609629 10.496311  Q 3.24274 9.380035 4.742213 8.097154  Z  M 4.25905 8.063831  L 4.109102 7.997189  Q 2.692934 9.313393 2.026501 10.096451  Q 2.093144 10.246399 2.259752 10.29638  Q 2.842881 9.363374 4.25905 8.063831  Z  M 19.05385 11.212725  L 19.05385 11.445977  L 19.153812 11.395994  L 19.08717 11.212725  L 19.05385 11.212725  Z  M 18.770615 11.512619  L 18.770615 11.545941  L 18.920561 11.545941  Q 19.003866 11.545941 19.003866 11.479297  L 18.770615 11.512619  Z  M 18.870581 11.879157  Q 18.887239 11.879157 19.387064 12.062426  L 19.153812 11.762531  L 18.870581 11.879157  Z  M 8.874093 2.649069  Q 8.590859 2.582425 8.307626 2.48246  Q 8.074375 2.4658 7.95775 2.699051  Q 8.107697 2.865659 8.307626 2.815676  Q 8.657503 2.699051 8.874093 2.649069  Z  M 16.721333 8.546994  Q 16.754658 9.513323 16.871283 9.779897  Q 16.987907 10.046469 16.854624 10.113111  Q 16.721333 10.179754 16.538067 11.31269  L 15.555079 11.31269  Q 15.671705 11.029455 15.838313 10.979474  Q 16.004921 10.92949 16.154869 10.92949  Q 16.18819 10.812865 16.279823 10.138103  Q 16.371458 9.463339 16.254833 8.963516  Q 15.705027 8.01385 15.53842 6.414412  Q 15.305168 5.947909 14.7387 5.947909  Q 12.48949 6.847593 11.68977 6.814271  Q 10.890052 6.78095 10.423549 6.581019  Q 10.173636 9.596625 10.281934 9.90485  Q 10.390227 10.213076 10.22362 10.28805  Q 10.057012 10.363024 10.106995 11.31269  L 18.27079 11.31269  L 17.837608 10.612936  Q 17.337786 9.87986 16.721333 8.546994  Z  M 8.257644 2.799016  Q 8.39093 2.649069 8.324287 2.557434  Q 8.257644 2.4658 8.191 2.557434  Q 8.124357 2.649069 8.257644 2.799016  Z  M 16.971249 14.761478  L 16.971249 15.311285  L 12.30622 15.311285  L 12.30622 18.959999  L 11.589806 18.959999  L 11.589806 15.311285  L 9.973709 15.311285  Q 9.124005 15.277964 8.357609 15.644501  Q 7.54123 16.477539 6.758171 16.494202  Q 5.841827 16.477539 5.225376 15.461232  Q 4.742213 15.294624 4.742213 15.044712  Q 4.742213 14.778138 5.242037 14.611531  Q 5.841827 13.611882 6.758171 13.578561  Q 7.54123 13.611882 8.357609 14.428262  Q 9.124005 14.7948 9.973709 14.761478  L 11.589806 14.761478  L 11.589806 11.879157  L 7.324639 11.879157  Q 4.742213 11.912479 3.492652 11.545941  Q 1.709946 11.012794 0.926888 9.946503  Q 0.14383 8.880211 0.035534 7.922215  Q -0.072761 6.964219 0.14383 6.006222  Q 0.36042 5.048225 1.310086 4.181863  Q 2.259752 3.315501 3.367696 3.232197  Q 4.47564 3.148893 5.51694 3.657048  Q 6.558241 4.165203 6.641546 5.831284  Q 6.908119 5.498067 7.466256 5.606362  Q 8.024393 5.714658 8.465904 5.9729  Q 8.907416 6.231143 8.907416 6.797611  Q 8.907416 7.364078 8.599191 8.01385  Q 8.290966 8.66362 8.032723 9.25508  Q 7.774481 9.846539 7.75782 10.429667  Q 7.741159 11.012794 9.057363 11.212725  Q 9.024042 10.89617 9.673812 10.712901  L 9.673812 6.99754  Q 9.723796 6.764289 9.523867 6.114517  Q 9.074023 3.248858 8.624181 3.232197  L 8.240983 3.232197  L 7.391283 3.08225  Q 6.674868 3.08225 6.674868 2.649069  L 7.624534 2.532443  Q 8.007732 2.215888 8.674166 2.215888  L 8.857431 2.099262  Q 8.940737 2.099262 9.024042 0.316555  L 9.257293 0  L 9.290614 0  L 9.323936 0.016661  Q 9.773778 1.132935 9.673812 1.949315  Q 9.673812 2.26587 9.590508 2.615747  Q 9.590508 3.048928 9.907063 3.6987  Q 10.84007 5.648015 11.806396 5.648015  L 12.672758 5.598032  Q 14.138911 5.214833 14.655395 5.214833  Q 15.221863 5.198173 15.838313 5.581371  Q 16.454762 5.96457 16.921267 6.622672  Q 17.387768 7.280774 17.954235 8.45536  Q 18.520702 9.629949 18.937223 10.979474  Q 19.453709 10.846189 19.437048 11.429316  L 19.287102 11.712548  Q 19.570335 12.179051 19.620316 12.179051  Q 19.87023 12.179051 20.170124 12.712197  L 19.387064 12.378982  Q 20.053497 13.661864 20.053497 14.511566  Q 20.053497 15.361268 19.936872 15.511214  Q 19.820246 15.444571 19.445377 14.819791  Q 19.070509 14.195011 18.837257 13.495256  Q 18.604006 12.795502 18.537363 11.879157  L 12.30622 11.879157  L 12.30622 14.761478  L 16.971249 14.761478  Z  M 5.575253 15.044712  Q 5.841827 15.961058 6.758171 16.061022  Q 7.424604 16.061022 8.240983 15.044712  Q 7.424604 14.011742 6.774832 14.011742  Q 5.841827 14.111706 5.575253 15.044712  Z "/></svg>
