<?xml version="1.0" encoding="UTF-8" standalone="no"?>
<svg
   xmlns:dc="http://purl.org/dc/elements/1.1/"
   xmlns:cc="http://creativecommons.org/ns#"
   xmlns:rdf="http://www.w3.org/1999/02/22-rdf-syntax-ns#"
   xmlns:svg="http://www.w3.org/2000/svg"
   xmlns="http://www.w3.org/2000/svg"
   xmlns:sodipodi="http://sodipodi.sourceforge.net/DTD/sodipodi-0.dtd"
   xmlns:inkscape="http://www.inkscape.org/namespaces/inkscape"
   width="24.917807"
   height="17.983217"
   id="svg2574"
   sodipodi:version="0.32"
   inkscape:version="0.46"
   sodipodi:docname="E211.svg"
   inkscape:output_extension="org.inkscape.output.svg.inkscape">
  <metadata
     id="metadata2581">
    <rdf:RDF>
      <cc:Work
         rdf:about="">
        <dc:format>image/svg+xml</dc:format>
        <dc:type
           rdf:resource="http://purl.org/dc/dcmitype/StillImage" />
      </cc:Work>
    </rdf:RDF>
  </metadata>
  <defs
     id="defs2579">
    <inkscape:perspective
       sodipodi:type="inkscape:persp3d"
       inkscape:vp_x="0 : 8.9916086 : 1"
       inkscape:vp_y="0 : 1000 : 0"
       inkscape:vp_z="24.917807 : 8.9916086 : 1"
       inkscape:persp3d-origin="12.458903 : 5.9944057 : 1"
       id="perspective2583" />
  </defs>
  <sodipodi:namedview
     inkscape:window-height="480"
     inkscape:window-width="640"
     inkscape:pageshadow="2"
     inkscape:pageopacity="0.0"
     guidetolerance="10.0"
     gridtolerance="10.0"
     objecttolerance="10.0"
     borderopacity="1.0"
     bordercolor="#666666"
     pagecolor="#ffffff"
     id="base"
     showgrid="false" />
  <path
     style="fill:#000000; stroke:none"
     d="M 12.03125,0 L 12.03125,0.25 C 12.03125,0.6041 11.938964,0.87876063 11.8125,1.09375 C 11.63545,1.4604967 11.141207,1.7969253 10.28125,2.0625 C 10.066261,2.0245607 9.9196284,2.0241948 9.84375,2.09375 C 9.767872,2.1633053 9.6454341,2.1569821 9.5,2.09375 C 9.354566,2.030518 9.2507318,2.049122 9.1875,2.125 C 8.0493213,1.707668 7.4873534,1.0787067 7.5,0.21875 C 7.4620607,0.092286 7.4010246,0.024560667 7.3125,0.0625 C 7.1607427,0.188964 7.0937502,0.396632 7.09375,0.6875 C 7.09375,0.96572133 7.2098648,1.3386253 7.4375,1.78125 C 7.665136,2.2238747 8.092386,2.5781746 8.75,2.84375 C 8.7120607,3.0208 8.6997805,3.1488286 8.71875,3.25 C 8.73772,3.3511713 8.6524894,3.7054713 8.4375,4.3125 C 8.2604507,4.45161 8.1562495,4.6168462 8.15625,4.78125 C 8.15625,4.9456533 8.2053723,5.0617681 8.28125,5.125 C 8.28125,5.3146967 8.6601106,5.4062502 9.40625,5.40625 C 9.5580067,5.3809573 9.6614746,5.2462391 9.75,5.03125 C 9.876464,5.1956533 10.035377,5.3180913 10.21875,5.375 C 10.402123,5.4319093 10.530518,5.5543469 10.59375,5.71875 C 10.656982,5.883154 10.803614,6.0230966 11.03125,6.1875 C 11.03125,6.8577607 11.36099,7.5544468 12.03125,8.25 L 12.03125,8.4375 C 11.828907,8.8168927 11.700879,9.0427984 11.625,9.125 C 11.549122,9.207202 11.512646,9.3355967 11.5,9.5 C 11.487354,9.6644033 11.303515,9.9636249 11,10.40625 C 10.734425,10.545361 10.557275,10.771632 10.46875,11.0625 C 10.271044,11.231962 10.141637,11.4684 10,11.75 L 2.75,11.75 C 2.1303253,11.130325 1.8069087,10.494675 1.75,9.875 C 1.6930907,9.2553253 1.387546,8.9687505 0.84375,8.96875 C 0.27466067,8.96875 -0.0063233333,9.3290077 0,10.0625 C 0.0063233333,10.795993 0.30554464,11.369875 0.90625,11.8125 C 1.5069547,12.255125 2.1176787,12.46875 2.75,12.46875 L 8.15625,12.46875 C 9.1518691,13.894575 10.3868,14.972505 11.8125,15.6875 L 11.8125,17.96875 L 12.5625,17.96875 L 12.5625,16.03125 C 13.816149,16.440599 15.051649,16.261115 16.25,15.5 C 17.653753,14.608427 17.757222,13.581635 16.59375,12.46875 L 24,12.46875 L 24,11.75 L 23.59375,11.75 L 23.59375,11.5 C 23.859325,11.5 23.956835,11.420361 23.90625,11.28125 C 23.855663,11.142139 23.776025,10.830638 23.6875,10.34375 C 23.598977,9.8568627 23.598976,9.2706996 23.6875,8.5625 C 23.396633,8.1198753 23.226172,7.6673328 23.125,7.25 C 23.377928,6.9844253 23.530151,6.5448948 23.625,5.90625 C 23.694323,5.4394764 23.718661,5.0250683 23.65625,4.65625 C 23.760583,5.0380141 23.821984,5.4320089 23.8125,5.90625 C 23.799853,6.5385713 23.79353,7.0398691 23.8125,7.375 C 23.831469,7.71013 23.84375,8.2784218 23.84375,9.0625 C 23.84375,9.8465787 23.911475,10.408546 24,10.75 C 24.088525,11.091454 24.197951,11.25 24.375,11.25 C 24.615283,11.262646 24.786474,11.048655 24.875,10.625 C 24.963525,10.201345 24.921093,9.5355431 24.71875,8.625 C 24.352004,7.73975 24.174854,7.2023434 24.1875,7 C 24.301317,5.431844 24.166599,4.3142308 23.8125,3.625 C 23.4584,2.93577 22.694722,2.5565426 21.53125,2.53125 C 20.367779,2.5059567 19.329438,2.6283947 18.40625,2.875 C 17.483061,3.1216053 16.365082,3.0728501 15.0625,2.71875 C 13.759918,2.36465 12.752096,2.1078607 12.03125,1.96875 L 12.0625,1.84375 L 11.84375,1.96875 C 12.248436,1.5261247 12.46875,1.0795387 12.46875,0.6875 C 12.405518,0.219582 12.307275,0 12.21875,0 L 12.03125,0 z M 11.71875,2.28125 C 11.642871,2.761814 11.514842,2.9936765 11.3125,3 C 11.110157,3.0063227 10.914403,3.0126459 10.75,3 C 10.648829,3 10.581836,3.0491213 10.53125,3.125 L 10.4375,2.96875 L 10.53125,2.90625 C 10.556543,2.7039073 10.947318,2.5088854 11.71875,2.28125 z M 10.0625,2.3125 C 10.188964,2.4136713 10.268604,2.584864 10.28125,2.8125 L 10.1875,2.875 L 10.34375,3.125 C 10.444921,3.2641107 10.548756,3.2883053 10.65625,3.21875 C 10.763745,3.1491947 10.941261,3.1432374 11.15625,3.1875 C 11.371239,3.2317627 11.54839,3.2012446 11.6875,3.09375 C 11.826611,2.9862553 11.918165,2.7543926 11.96875,2.375 C 12.373436,2.4761713 13.142706,2.7024434 14.3125,3.03125 C 15.482295,3.3600573 16.466288,3.4754392 17.21875,3.4375 C 17.971213,3.3995607 18.612453,3.3080068 19.15625,3.15625 C 19.700045,3.0044927 20.463725,2.9683839 21.4375,3 C 22.059218,3.0201856 22.468519,3.0664706 22.75,3.15625 C 22.909393,3.207089 23.043456,3.2705954 23.09375,3.34375 C 22.986255,3.255225 22.876464,3.1910277 22.75,3.15625 C 22.623536,3.1214723 22.489183,3.1060303 22.34375,3.125 L 22.34375,3.34375 C 22.799021,3.457568 23.06736,3.9521766 23.1875,4.84375 C 23.307641,5.7353227 23.118211,6.5358425 22.625,7.21875 C 23.362989,9.3050775 21.607124,7.1398633 20.375,7.25 C 20.311768,7.0350107 20.049022,6.8452147 19.59375,6.71875 L 19.53125,6.96875 C 19.683007,7.031982 19.780518,7.1049322 19.84375,7.21875 C 18.2503,7.7878393 16.772064,8.0327142 15.40625,7.90625 L 15.25,6.78125 C 15.25,6.6168467 15.152489,6.4702148 14.9375,6.34375 L 14.46875,5.75 L 14.25,5.84375 L 14.46875,6.34375 L 14.96875,6.84375 C 15.268206,9.5550297 14.27228,7.8564452 14,7.5 C 13.797657,7.6391107 13.547558,7.5903552 13.21875,7.34375 C 12.889943,7.0971447 12.725074,6.7182841 12.71875,6.21875 C 12.712427,5.7192167 12.821852,5.3221178 13.09375,5.03125 C 13.365648,4.740382 13.592286,4.3250461 13.71875,3.78125 C 13.706103,3.7053713 13.5833,3.65625 13.40625,3.65625 C 13.279785,4.2253393 13.096679,4.6533214 12.84375,4.90625 C 12.590821,5.1591787 12.462793,5.4334732 12.4375,5.78125 C 12.412207,6.1290267 12.455006,6.5328149 12.5625,6.9375 C 12.669995,7.3421853 12.926418,7.5922853 13.34375,7.71875 C 13.761083,7.845214 13.96875,7.9858891 13.96875,8.125 C 13.374368,8.2641107 12.831004,8.1599109 12.3125,7.84375 C 11.768704,7.2746607 11.5,6.6576142 11.5,6 L 11,5.625 C 11,5.3973647 10.859325,5.2444092 10.59375,5.1875 C 10.328175,5.1305913 10.071386,4.8920395 9.84375,4.5 L 9.625,4.5 C 9.612354,4.8793927 9.5148429,5.0937502 9.3125,5.09375 C 9.2113287,5.0178713 9.0706531,5.0178716 8.90625,5.09375 C 8.653322,5.0178713 8.5126466,4.8831532 8.5,4.71875 C 8.5885253,4.6175787 8.6622075,4.5997073 8.6875,4.625 C 8.7127927,4.6502933 8.6878664,4.6622072 8.65625,4.6875 C 8.6246333,4.7127927 8.6436029,4.7678715 8.65625,4.84375 C 8.668896,4.9196287 8.7176517,4.9501466 8.8125,4.9375 C 8.907348,4.9248533 8.9683837,4.8388907 9,4.71875 C 9.031616,4.5986087 8.9583005,4.5074212 8.78125,4.40625 C 8.9835927,3.7992213 9.0811038,3.3288066 9.09375,3 C 9.460496,2.8988287 9.8334002,2.9047861 10.1875,3.03125 L 10.1875,2.9375 C 9.8586927,2.7983893 9.5408675,2.7492679 9.25,2.8125 C 9.3258787,2.698682 9.3869146,2.5646959 9.4375,2.375 C 9.6524893,2.438232 9.8601571,2.4136713 10.0625,2.3125 z M 11.59375,2.4375 C 11.479932,2.4501467 11.345581,2.4929447 11.1875,2.5625 C 11.02942,2.6320554 10.864551,2.7358893 10.6875,2.875 C 10.6875,2.9129394 10.754493,2.9438233 10.90625,2.9375 C 11.058007,2.9311766 11.199049,2.90625 11.28125,2.90625 C 11.363452,2.90625 11.424487,2.9006587 11.46875,2.84375 C 11.513012,2.7868406 11.518603,2.7254387 11.53125,2.6875 C 11.543897,2.6495606 11.538305,2.674122 11.46875,2.75 C 11.399195,2.8258787 11.307641,2.8500727 11.1875,2.84375 C 11.06736,2.8374266 11.017872,2.8132327 11.09375,2.75 C 11.169629,2.686768 11.340821,2.5766107 11.59375,2.4375 z M 9.21875,3.0625 C 9.2313967,3.2142573 9.2805182,3.3363285 9.34375,3.4375 C 9.4069827,3.5386713 9.4862557,3.6611088 9.59375,3.78125 C 9.7012447,3.9013907 9.7499999,4.0417001 9.75,4.21875 L 9.8125,4.21875 C 9.825146,3.9911147 9.7455068,3.7529287 9.59375,3.5 C 9.82248,3.439808 10.07231,3.3310388 10.3125,3.15625 C 9.848813,3.0729055 9.4778312,3.0254883 9.21875,3.0625 z M 9.4375,3.21875 L 9.90625,3.25 L 9.53125,3.375 L 9.4375,3.21875 z M 3.65625,7.5625 C 3.466554,7.5625 3.319922,7.684572 3.21875,7.9375 C 2.788772,7.9375 2.538672,8.151857 2.4375,8.53125 C 2.0960467,8.872704 1.9375,9.1108898 1.9375,9.25 C 1.9501467,9.3511713 1.9862554,9.4177984 2.09375,9.5 C 2.2012447,9.5822027 2.3177254,9.6190437 2.40625,9.59375 C 2.6212393,9.5684573 2.8959,9.482861 3.25,9.34375 C 3.4144033,9.3816887 3.6406746,9.6265637 3.90625,10.03125 C 3.261282,10.435935 2.9252194,10.673755 2.90625,10.78125 C 2.88728,10.888744 2.8809573,11.023462 2.90625,11.15625 C 2.9315433,11.289037 3.1146501,11.325146 3.46875,11.3125 C 4.2907673,11.236622 4.7857429,11.206104 4.9375,11.21875 L 5.5,11.34375 C 5.4114747,10.913772 5.3202874,10.730298 5.1875,10.8125 C 5.0547127,10.894701 4.9750732,10.894701 4.96875,10.8125 C 4.9624267,10.730298 4.9073482,10.736622 4.8125,10.8125 C 4.717652,10.888379 4.6078607,10.918896 4.46875,10.90625 C 4.3296393,10.893604 4.1710928,10.863086 3.96875,10.8125 C 4.449314,10.749268 4.7730969,10.676318 4.9375,10.5625 C 5.6583467,10.815429 6.2381858,10.894702 6.71875,10.8125 C 7.199314,10.730299 7.5900892,10.613818 7.90625,10.5 L 8.21875,10.75 C 7.637014,10.825879 7.2641108,10.869043 7.125,10.84375 C 6.9858893,10.818457 6.8697749,10.836695 6.78125,10.90625 C 6.6927247,10.975805 6.6380118,11.061401 6.59375,11.15625 C 6.5494873,11.251098 6.6224372,11.28125 6.84375,11.28125 C 7.065062,11.28125 7.1934573,11.250732 7.21875,11.1875 C 7.2946287,11.124269 7.5815697,11.130591 8.09375,11.1875 C 8.60593,11.244409 9.0826683,11.244042 9.5,11.21875 C 9.626464,11.21875 9.6875,11.176318 9.6875,11.0625 C 9.6875,10.936036 9.6141835,10.813598 9.46875,10.71875 C 9.323316,10.623902 9.2500002,10.477636 9.25,10.25 C 9.3132313,9.959132 9.2886705,9.6532216 9.1875,9.375 C 9.5163067,9.6532213 9.7485351,10.1668 9.875,10.875 C 9.8876467,11.014111 9.9304449,11.069189 10,11.03125 C 10.069555,10.993311 10.112354,10.919628 10.125,10.84375 C 10.125,10.477003 9.9720444,10.049754 9.6875,9.53125 C 9.4029553,9.0127473 8.9448209,8.7373538 8.3125,8.75 C 7.6801787,8.7626467 7.1182107,8.8363287 6.625,8.9375 C 6.1317893,9.0386713 5.6673322,9.0755123 5.25,9.03125 C 4.832668,8.986988 4.3443819,8.7119608 3.75,8.21875 C 4.002928,8.18081 4.1919928,7.9545389 4.34375,7.5625 L 3.65625,7.5625 z M 4.03125,7.75 L 3.4375,8.1875 L 3.4375,8.125 C 3.4754393,7.884718 3.6645042,7.7499999 4.03125,7.75 z M 20.53125,7.75 C 20.935936,7.9144033 21.155518,8.1220719 21.21875,8.375 C 21.281982,8.6279293 21.184471,8.6763181 20.90625,8.5625 C 20.843017,8.8154287 20.73286,8.8522697 20.59375,8.65625 C 20.454639,8.46023 20.380957,8.1978491 20.40625,7.84375 L 20.53125,7.75 z M 19.3125,7.96875 L 19.40625,9.0625 C 19.305078,9.4924787 19.158446,9.8713393 18.96875,10.1875 C 18.779054,10.50366 18.522265,10.802882 18.21875,11.09375 C 18.017707,11.276516 17.876639,11.501199 17.78125,11.75 L 15.96875,11.75 L 15.96875,11.5 C 16.348143,11.449415 16.4583,11.253661 16.28125,10.9375 C 16.028321,10.44429 15.887646,10.10227 15.875,9.90625 C 15.862353,9.7102307 15.887281,9.5267576 15.90625,9.375 C 15.92522,9.2232427 15.894702,9.0892567 15.8125,8.9375 C 15.730298,8.7857427 15.638378,8.5594714 15.5625,8.28125 C 16.498335,8.3065427 17.218851,8.2886715 17.75,8.1875 C 17.75,8.3898427 17.805078,8.6704609 17.90625,9.0625 L 18.125,9.0625 L 18.25,8.4375 C 18.25,8.374268 18.616947,8.2216787 19.3125,7.96875 z M 3.125,8.21875 C 3.200878,8.2693353 3.21875,8.3363284 3.21875,8.4375 C 3.3452147,8.4501467 3.468018,8.4382325 3.53125,8.375 C 4.1509247,8.9187967 4.6820088,9.2057375 5.15625,9.25 C 5.6304907,9.2942627 6.1191427,9.2760254 6.625,9.1875 C 7.1308567,9.0989747 7.6016374,9.0438963 8,9.03125 C 8.398362,9.0186033 8.6666997,9.0677248 8.84375,9.15625 L 8.8125,9.53125 C 9.0274893,9.7083007 9.0944821,9.9710471 9.03125,10.3125 C 9.03125,10.578075 9.1231698,10.742578 9.28125,10.84375 C 9.4393293,10.944921 9.4761707,11.018603 9.375,11.03125 L 8.15625,11.03125 L 8.125,10.9375 L 8.75,10.9375 L 8.75,10.78125 C 7.9279827,10.389211 7.6771502,9.9805643 8.03125,9.5 L 7.90625,9.5 C 7.7292,9.689696 7.6372807,9.8541995 7.65625,10.03125 C 7.6752193,10.208299 7.7180181,10.30581 7.78125,10.34375 C 7.4903827,10.432275 7.1115213,10.511914 6.65625,10.5625 C 6.2009787,10.613085 5.7246076,10.576611 5.21875,10.4375 L 5.21875,10.21875 C 4.8267113,10.446385 4.3384253,10.586328 3.71875,10.6875 C 3.5796393,10.776025 3.5119139,10.83706 3.5625,10.875 C 3.6130853,10.912939 3.8884788,10.968017 4.34375,11.03125 L 4.34375,11.09375 C 3.977004,11.068457 3.6833734,11.043531 3.5,11.0625 C 3.3166267,11.08147 3.200878,11.051318 3.125,10.9375 C 3.0997067,10.836329 3.2277354,10.683374 3.53125,10.5 C 3.834764,10.316627 4.103834,10.176318 4.3125,10.0625 C 4.521166,9.9486827 4.6733892,9.8385255 4.8125,9.75 L 4.8125,9.5625 C 4.4836927,9.688964 4.2455067,9.7924324 4.09375,9.90625 C 3.7902353,9.4003927 3.5341779,9.1316889 3.28125,9.09375 C 2.8512713,9.334032 2.5148427,9.4627935 2.3125,9.4375 C 2.388378,9.374268 2.4680172,9.3314696 2.53125,9.3125 C 2.594482,9.2935313 2.625,9.2626466 2.625,9.25 C 2.625,9.2247067 2.61272,9.21875 2.59375,9.21875 C 2.5747807,9.21875 2.5200681,9.2615482 2.40625,9.34375 C 2.3174725,9.4078681 2.2378076,9.3988909 2.1875,9.34375 C 2.2886713,9.3184572 2.3500727,9.2630127 2.34375,9.21875 C 2.3374266,9.1744871 2.312866,9.149926 2.28125,9.15625 C 2.2496341,9.162573 2.2313967,9.19978 2.21875,9.21875 C 2.2061033,9.2377196 2.1934567,9.2436767 2.21875,9.25 C 2.2440426,9.2563235 2.2321287,9.2559573 2.15625,9.28125 C 2.1414233,9.2584985 2.1398268,9.2319807 2.125,9.1875 L 2.5625,8.75 C 2.7016107,8.3959 2.8847173,8.2187502 3.125,8.21875 z M 21.4375,8.21875 C 22.423921,8.6360813 22.821386,9.6014713 22.59375,11.09375 C 22.368486,11.300993 22.209024,11.510657 22.125,11.75 L 19.28125,11.75 L 19.375,11.4375 C 19.476172,11.462793 19.585963,11.475073 19.71875,11.46875 C 19.851537,11.462427 19.912574,11.352636 19.90625,11.125 C 19.899928,10.897365 20.034279,10.438864 20.3125,9.78125 C 20.552781,9.6927247 20.6875,9.5952141 20.6875,9.46875 L 20.65625,8.90625 C 20.795361,9.0580073 20.886549,9.0888915 20.96875,8.96875 C 21.050953,8.8486093 21.204274,8.7444089 21.375,8.6875 C 21.545727,8.6305913 21.551318,8.4843248 21.4375,8.21875 z M 14.0625,8.4375 L 14.53125,9.15625 C 14.581835,9.4218253 14.69795,9.63545 14.875,9.8125 L 15.03125,11.09375 C 14.836783,11.269696 14.700066,11.492684 14.59375,11.75 L 11.375,11.75 L 11.46875,11.5625 C 11.46875,11.436035 11.517506,11.380957 11.625,11.40625 C 11.732495,11.431543 11.793896,11.358593 11.78125,11.15625 C 11.768604,10.953908 11.957668,10.59365 12.375,10.0625 C 12.602636,9.9486827 12.730665,9.7897697 12.78125,9.59375 C 12.831836,9.3977307 13.058107,9.1718253 13.4375,8.90625 C 13.677782,8.6533213 13.88545,8.4880851 14.0625,8.4375 z M 2.8125,8.53125 C 2.7366213,8.539154 2.7250734,8.5716186 2.71875,8.59375 C 2.706104,8.6380127 2.6997807,8.6622072 2.71875,8.6875 C 2.73772,8.7127927 2.7987554,8.7064689 2.90625,8.6875 C 3.0137447,8.6685307 3.0930181,8.6197754 3.15625,8.53125 C 3.010816,8.5249267 2.8883787,8.523346 2.8125,8.53125 z M 0.875,9.46875 C 1.064696,9.46875 1.1808107,9.6760523 1.21875,10.125 C 1.2566893,10.573948 1.6109894,11.191361 2.28125,11.9375 C 1.6615753,11.735157 1.2093986,11.44785 0.9375,11.09375 C 0.665602,10.73965 0.51860334,10.397996 0.53125,10.03125 C 0.543896,9.664504 0.67265666,9.4687501 0.875,9.46875 z M 5.25,10.875 C 5.313232,10.963525 5.3504395,11.049122 5.3125,11.125 L 5.09375,11.125 L 5.15625,10.9375 L 5.25,10.875 z M 6.90625,10.9375 L 7.09375,11.09375 L 7.09375,11.15625 C 6.9167,11.19419 6.7946285,11.188233 6.71875,11.125 L 6.90625,10.9375 z M 9.84375,12.46875 L 11.8125,12.46875 L 11.8125,14.34375 C 11.032437,13.85343 10.358879,13.233638 9.84375,12.46875 z M 12.5625,12.46875 L 14.46875,12.46875 C 16.391006,13.670161 17.08137,14.556277 16.53125,15.09375 C 15.981131,15.631223 14.936467,15.643503 13.40625,15.125 C 13.113398,15.025769 12.829877,14.906883 12.5625,14.78125 L 12.5625,14.75 L 12.5625,12.46875 z"
     id="path2576"
     sodipodi:nodetypes="ccscssccssscscscccsscccssccccssssccccccscccccssccscsssssscssssscccccccssccccccccssscsssssssccscccccccccccccsssccssssccccscccccsssssccccccccsssssssssccssccccccccccccsssccsscccssssccsccsssssssssccsssssssccccccccscsccccsscccsssscccccccccssscccscccccccscscccsccsssscccccssssssssssccccccccsscccssccccccccsscscccssscccscsscccccccccccccccccssccc" />
</svg>
