<?xml version="1.0" encoding="UTF-8" standalone="no"?>
<svg
   xmlns:dc="http://purl.org/dc/elements/1.1/"
   xmlns:cc="http://creativecommons.org/ns#"
   xmlns:rdf="http://www.w3.org/1999/02/22-rdf-syntax-ns#"
   xmlns:svg="http://www.w3.org/2000/svg"
   xmlns="http://www.w3.org/2000/svg"
   xmlns:sodipodi="http://sodipodi.sourceforge.net/DTD/sodipodi-0.dtd"
   xmlns:inkscape="http://www.inkscape.org/namespaces/inkscape"
   width="2524.0254"
   height="1797.5413"
   id="svg5090"
   version="1.1"
   inkscape:version="0.48.0 r9654"
   sodipodi:docname="E216D.svg">
  <metadata
     id="metadata5100">
    <rdf:RDF>
      <cc:Work
         rdf:about="">
        <dc:format>image/svg+xml</dc:format>
        <dc:type
           rdf:resource="http://purl.org/dc/dcmitype/StillImage" />
      </cc:Work>
    </rdf:RDF>
  </metadata>
  <defs
     id="defs5098" />
  <sodipodi:namedview
     pagecolor="#ffffff"
     bordercolor="#666666"
     borderopacity="1"
     objecttolerance="10"
     gridtolerance="10"
     guidetolerance="10"
     inkscape:pageopacity="0"
     inkscape:pageshadow="2"
     inkscape:window-width="1920"
     inkscape:window-height="1152"
     id="namedview5096"
     showgrid="false"
     fit-margin-top="0"
     fit-margin-left="0"
     fit-margin-right="0"
     fit-margin-bottom="0"
     inkscape:zoom="0.19470888"
     inkscape:cx="2258.5008"
     inkscape:cy="900.0015"
     inkscape:window-x="1280"
     inkscape:window-y="0"
     inkscape:window-maximized="0"
     inkscape:current-layer="svg5090" />
  <path
     style="fill:#000000;stroke:none"
     d="M 148.3125 0 C 123.89246 0 111.6875 15.878964 111.6875 47.625 C 133.85722 78.319289 172.63815 136.71873 228.0625 222.84375 C 283.48685 308.96212 335.09358 361.39752 382.84375 380.15625 C 423.19089 396.00594 459.26956 404.5677 491.09375 405.8125 C 465.68494 408.80802 446.65527 425.40337 434 455.625 C 418.65173 492.29046 394.3483 520.02251 361.09375 538.78125 C 327.83914 557.53997 302.25004 577.13091 284.34375 597.59375 C 266.4374 618.05657 240.41975 643.64944 206.3125 674.34375 C 132.98186 696.51731 97.169667 747.65851 98.875 827.8125 C 92.053536 849.97937 92.053536 872.14537 98.875 894.3125 C 98.875 923.39574 114.95155 937.9375 147.09375 937.9375 L 152.59375 937.9375 C 156.00446 997.62189 174.76773 1027.4688 208.875 1027.4688 C 237.86618 1025.738 252.375 1012.1177 252.375 986.5625 C 300.12518 984.83167 324 971.18025 324 945.625 C 324 928.57048 335.08027 919.17287 357.25 917.46875 L 441.65625 881.6875 C 485.9957 885.08247 522.23644 893.59703 550.375 907.25 C 578.5135 920.89637 602.81695 970.35877 623.28125 1055.625 C 720.48701 1219.3412 747.36173 1308.0167 703.875 1321.6562 C 660.38817 1335.3027 575.96926 1348.9542 450.625 1362.5938 C 325.28075 1376.2401 223.8128 1403.0826 146.21875 1443.1562 C 68.624682 1483.2366 22.986611 1526.299 9.34375 1572.3438 C -4.2991778 1618.3884 -3.0134582 1663.5969 13.1875 1707.9375 C 29.388462 1752.2715 46.008908 1777.8332 63.0625 1784.6562 C 80.116159 1791.4794 131.29427 1795.3354 216.5625 1796.1875 C 219.72073 1796.2205 223.00321 1796.2187 226.4375 1796.2188 C 315.72477 1796.2188 498.32922 1785.5356 774.21875 1764.1875 C 813.44214 1779.5312 870.55774 1788.9288 945.59375 1792.3438 L 957.1875 1792.3438 C 1018.4673 1792.3438 1055.523 1766.2467 1068.375 1714.0312 C 1082.0179 1658.607 1061.1431 1629.1894 1005.7188 1625.7812 C 950.29453 1622.3863 911.48227 1620.2403 889.3125 1619.375 L 873.625 1619.375 C 883.61206 1618.7093 893.55777 1618.0136 903.40625 1617.2812 C 984.41092 1611.2902 1037.7008 1604.8969 1063.2812 1598.0938 C 1078.6296 1587.8624 1091.4241 1575.0627 1101.6562 1559.7188 C 1144.2903 1563.1137 1219.3121 1567.3988 1326.75 1572.5312 C 1352.535 1573.7295 1376.4477 1574.3125 1398.5 1574.3125 C 1468.3327 1574.3125 1519.4417 1568.1588 1551.8438 1555.8438 C 1594.4778 1539.6479 1634.5758 1523.0232 1672.0938 1505.9688 C 1695.9688 1541.782 1724.0981 1581.8535 1756.5 1626.1875 C 1766.448 1647.509 1739.6964 1658.1562 1676.2188 1658.1562 C 1663.5234 1658.1562 1649.3512 1657.7403 1633.7188 1656.875 C 1539.9237 1651.7493 1437.5987 1643.2101 1326.75 1631.2812 C 1256.2101 1623.686 1204.9913 1619.9062 1173.125 1619.9062 C 1154.9155 1619.9062 1143.05 1621.1307 1137.4688 1623.5938 C 1093.1293 1638.9442 1070.9375 1683.2942 1070.9375 1756.625 C 1070.9375 1783.911 1094.8123 1797.5312 1142.5625 1797.5312 L 2176.0312 1797.5312 C 2343.157 1797.5312 2389.1921 1665.3641 2314.1562 1401.0312 C 2312.4506 1361.8096 2327.3569 1313.6593 2358.9062 1256.5312 C 2390.4556 1199.3963 2409.6472 1074.4561 2416.4688 881.75 C 2472.7458 847.64746 2502.5892 798.20968 2506 733.40625 L 2523.9062 541.53125 C 2525.6118 512.54105 2507.7056 495.49405 2470.1875 490.375 C 2430.9642 490.375 2409.6607 503.16812 2406.25 528.75 L 2390.9062 725.71875 C 2382.3794 746.18157 2374.0693 756.40625 2365.9688 756.40625 C 2357.8684 756.40625 2349.9556 746.18157 2342.2812 725.71875 L 2319.2812 533.875 C 2314.7034 507.9403 2297.1418 494.96875 2266.625 494.96875 C 2263.0351 494.96875 2259.262 495.30311 2255.3125 495.96875 C 2216.089 502.7919 2198.183 519.83902 2201.5938 547.125 L 2227.1875 741.53125 C 2228.8929 801.22226 2257.8792 848.11621 2314.1562 882.21875 C 2300.5132 1103.9216 2265.5583 1223.2957 2209.2812 1240.3438 C 2170.0579 1197.7139 2103.9735 1150.8199 2011.0312 1099.6562 C 1948.3735 1065.1678 1862.4431 1047.9375 1753.2812 1047.9375 C 1700.5197 1047.9375 1642.3443 1051.9454 1578.7188 1060 C 1537.6572 1065.174 1499.8325 1069.4875 1465.2188 1072.9375 C 1468.4711 1057.4195 1464.5285 1041.1888 1466.2188 1025.4375 C 1466.8504 723.69789 1467.4663 421.95834 1468.0938 120.21875 C 1450.8651 111.73467 1431.6477 107.12864 1412.375 107.65625 C 1396.2129 107.72865 1379.5147 112.28074 1367.4688 123.40625 C 1366.9976 205.86493 1366.4111 288.32295 1365.875 370.78125 C 1316.0755 394.57808 1266.2567 418.31316 1216.375 441.9375 C 1282.4772 653.45775 1347.0369 865.4717 1413.6875 1076.8125 C 1346.532 1081.4239 1363.9813 1082.4688 1300.5312 1082.4688 C 1260.2048 1082.4688 1230.5653 1079.5454 1211.625 1073.6875 C 1162.1693 1058.337 1122.5313 1037.0047 1092.6875 1009.7188 C 1062.8435 982.43277 1027.4599 932.97033 986.53125 861.34375 C 926.8435 762.43104 895.28575 680.15556 891.875 614.5 C 888.46434 548.84445 862.87527 491.29666 815.125 441.84375 C 885.04493 436.71808 943.04895 421.35651 989.09375 395.78125 C 1035.1386 370.19937 1090.1426 317.33479 1154.0938 237.1875 C 1218.0448 157.03357 1261.0802 103.31727 1283.25 76.03125 C 1287.752 43.013773 1276.4117 26.5 1249.2188 26.5 C 1245.511 26.5 1241.5166 26.834318 1237.2188 27.5 C 1126.3701 63.306924 1024.4736 98.695014 931.53125 133.65625 C 838.5889 168.61768 760.56718 233.84598 697.46875 329.34375 C 625.84345 245.78153 545.6789 182.26315 457 138.78125 C 368.32103 95.292707 270.28163 49.686355 162.84375 1.9375 C 157.59648 0.6527396 152.75251 2.9605947e-16 148.3125 0 z M 155.15625 29.71875 C 260.8888 80.875877 353.84789 129.05733 434 174.25 C 514.15218 219.44267 584.91947 279.55889 646.3125 354.59375 L 613.0625 364.8125 C 524.38354 260.78752 367.48305 150.77974 142.375 34.8125 L 155.15625 29.75 L 155.15625 29.71875 z M 1242.3438 52.21875 L 1242.3438 52.71875 L 1255.125 62.96875 C 1019.7847 155.05823 843.26386 259.92235 725.59375 377.59375 L 881.65625 392.96875 C 816.8524 398.09443 764.81714 408.3191 725.59375 423.65625 C 725.59375 447.53403 733.27673 459.46875 748.625 459.46875 C 796.37523 498.69031 823.67855 554.95044 830.5 628.28125 C 837.32143 701.61194 871.41937 789.46038 932.8125 891.78125 C 972.03586 959.99968 1005.2767 1010.7181 1032.5625 1043.9688 C 1059.8482 1077.2259 1109.3122 1106.6368 1180.9375 1132.2188 C 1216.7502 1145.0064 1266.1148 1151.4063 1329 1151.4062 C 1391.8853 1151.4062 1468.292 1145.0063 1558.25 1132.2188 C 1627.4484 1122.3801 1690.2913 1117.4688 1746.75 1117.4688 C 1837.0837 1117.4688 1911.0924 1130.0675 1968.8125 1155.25 C 2062.6075 1196.1823 2124.0088 1239.6739 2153 1285.7188 C 2171.2037 1314.629 2188.407 1329.0938 2204.5938 1329.0938 C 2214.1858 1329.0938 2223.4288 1323.9952 2232.3125 1313.8438 C 2312.4646 1272.9114 2353.3884 1128.8028 2355.0938 881.53125 C 2291.9952 838.89477 2259.5804 790.29086 2257.875 735.71875 L 2237.4062 566.90625 C 2235.7007 544.73258 2242.5267 531.93957 2257.875 528.53125 L 2261.4062 528.53125 C 2276.2238 528.53125 2284.4477 538.82357 2286.0312 559.40625 L 2309.0312 730.8125 C 2312.4421 756.38776 2323.0939 774.26855 2341 784.5 C 2349.595 789.42599 2358.1013 791.90625 2366.5 791.90625 C 2375.5984 791.90625 2384.6008 789.01008 2393.4688 783.21875 C 2410.5224 772.13529 2420.7456 753.80076 2424.1562 728.21875 L 2436.9375 556.84375 C 2440.1048 536.25432 2448.4151 525.9375 2461.875 525.9375 L 2465.0938 525.9375 C 2482.1472 527.66834 2489.7989 539.60969 2488.0938 561.75 L 2472.75 733.15625 C 2471.0445 791.13654 2437.8037 840.59889 2373 881.53125 C 2362.7678 1052.0637 2344.433 1166.7234 2318 1225.5625 C 2291.5667 1284.3948 2266.4064 1339.4054 2242.5312 1390.5625 C 2305.6298 1573.0372 2309.884 1680.4698 2255.3125 1712.875 C 2223.4091 1731.8201 2193.5424 1741.2813 2165.7188 1741.2812 C 2145.9495 1741.2812 2127.2095 1736.5032 2109.5 1726.9375 C 2066.8659 1703.9118 2031.0538 1665.5571 2002.0625 1611.8438 C 1973.0713 1558.1238 1938.9733 1515.9196 1899.75 1485.2188 C 1913.393 1550.0222 1959.4283 1640.4078 2037.875 1756.375 L 1239.7812 1756.375 C 1239.7812 1746.1436 1255.116 1727.3799 1285.8125 1700.0938 C 1229.5356 1701.8246 1201.4063 1720.5883 1201.4062 1756.375 L 1183.5 1756.375 C 1183.5 1720.5617 1192.866 1693.2587 1211.625 1674.5 C 1168.9908 1674.5 1147.6875 1701.803 1147.6875 1756.375 L 1124.6562 1756.375 C 1129.7727 1689.8674 1148.5359 1656.5937 1180.9375 1656.5938 L 1500.6875 1687.2812 C 1607.2452 1696.5808 1691.778 1701.25 1754.25 1701.25 C 1840.7497 1701.25 1884.9883 1692.3267 1886.9688 1674.5 C 1757.361 1531.2533 1686.5937 1418.7018 1674.6562 1336.8438 C 1663.0804 1257.462 1697.2032 1217.7812 1777.0312 1217.7812 L 1784.625 1217.7812 C 1869.8932 1220.3109 1988.4413 1304.2965 2140.2188 1469.75 L 2137.6562 1426.25 C 2008.0487 1248.8944 1874.5943 1159.3606 1737.3125 1157.6562 C 1736.1389 1157.6433 1734.97 1157.6563 1733.8125 1157.6562 C 1599.4742 1157.6562 1567.8306 1255.716 1638.8438 1451.8438 C 1606.4416 1460.371 1572.3126 1474.0225 1536.5 1492.7812 C 1511.0845 1506.0947 1468.7168 1512.75 1409.375 1512.75 C 1385.099 1512.75 1357.9852 1511.6071 1328.0312 1509.3438 C 1224.8567 1501.6753 1152.8037 1492.7315 1111.875 1482.5 L 1106.75 1369.9375 L 1070.9375 1313.6562 C 1069.232 1450.0864 1052.1831 1527.2495 1019.7812 1545.1562 C 987.37933 1563.063 885.4828 1574.1459 714.09375 1578.4062 C 681.13427 1579.2051 649.59043 1579.5937 619.4375 1579.5938 C 492.79532 1579.5938 390.88496 1572.3714 313.75 1557.9062 C 290.69818 1553.5795 270.48198 1551.4062 253.09375 1551.4062 C 198.44509 1551.4062 171.76875 1572.7791 173.0625 1615.4688 C 173.0625 1652.0675 205.00573 1670.3438 268.90625 1670.3438 C 282.42372 1670.3438 297.37304 1669.5079 313.75 1667.8438 C 393.11528 1659.909 548.1985 1655.9375 778.96875 1655.9375 L 912.34375 1655.9375 L 879.09375 1696.875 L 876.53125 1709.6875 C 914.04928 1702.8644 934.52681 1685.786 937.9375 1658.5 L 966.0625 1661.0938 C 950.71423 1690.0839 933.66526 1706.3039 914.90625 1709.7188 L 914.90625 1722.5 C 950.7189 1722.5 983.13389 1702.0263 1012.125 1661.0938 L 1019.7812 1661.0938 C 1018.2555 1712.9766 987.38752 1738.9375 927.15625 1738.9375 C 920.07027 1738.9375 912.58595 1738.576 904.6875 1737.8438 C 850.11588 1731.0205 808.30372 1720.7714 779.3125 1707.125 C 492.81135 1725.8905 307.78157 1737.396 224.21875 1741.6562 C 215.32919 1742.322 206.83632 1742.6562 198.71875 1742.6562 C 130.53026 1742.6562 89.590488 1726.662 75.875 1694.6562 C 60.526222 1658.8498 59.669641 1623.8903 73.3125 1589.7812 C 86.955428 1555.6719 126.16492 1521.5713 190.96875 1487.4688 C 255.7726 1453.3597 370.89223 1427.7733 536.3125 1410.7188 C 701.73281 1393.6642 784.86602 1363.3947 785.71875 1319.9062 C 786.57142 1276.4244 748.61639 1176.2366 671.875 1019.3438 C 646.29453 932.3667 629.67417 884.62101 622 876.09375 C 614.32589 867.56649 601.10272 860.73744 582.34375 855.625 C 640.32612 848.80185 680.85257 832.61312 703.875 807.03125 C 726.89743 781.44934 734.97779 747.31739 728.15625 704.6875 C 697.45973 767.78686 653.13862 801.0606 595.15625 804.46875 C 537.17388 807.86372 447.64331 829.16466 326.5625 868.40625 C 308.84564 841.02036 286.5625 827.34375 259.71875 827.34375 L 254.9375 827.34375 C 244.70532 863.15692 220.83048 887.89155 183.3125 901.53125 C 178.35142 903.99424 174.28201 905.21875 171.125 905.21875 C 165.60016 905.21875 162.84375 901.41455 162.84375 893.8125 C 156.02229 871.64563 157.73657 850.33785 167.96875 829.875 C 166.26336 771.88807 184.99536 737.79397 224.21875 727.5625 C 304.37085 650.82348 358.51778 604.75665 386.65625 589.40625 C 414.79481 574.06234 437.81245 549.78826 455.71875 516.53125 C 473.62511 483.27411 493.24548 464.51032 514.5625 460.25 C 535.87953 455.98968 566.58019 444.90673 606.65625 427 C 646.73226 409.09338 680.40163 383.07788 707.6875 348.96875 C 786.13421 267.11044 867.58444 207.42369 952 169.90625 C 1036.4154 132.38881 1133.2004 93.151103 1242.3438 52.21875 z M 254.9375 827.34375 L 270.28125 817.09375 L 265.15625 806.875 C 237.87039 822.22541 210.59829 843.52634 183.3125 870.8125 L 188.40625 878.5 L 254.9375 827.34375 z M 175.625 70.65625 C 277.94682 137.16384 351.7141 186.6016 396.90625 219 C 442.0984 251.40507 493.67388 297.44064 551.65625 357.125 L 467.25 359.71875 C 383.68716 354.59295 286.47369 258.26799 175.625 70.6875 L 175.625 70.65625 z M 1216.75 91.09375 C 1091.755 266.76537 987.66915 354.625 904.5 354.625 C 903.70025 354.625 902.92081 354.61315 902.125 354.59375 L 820.25 344.34375 C 883.34843 289.77174 938.781 248.41933 986.53125 220.28125 C 1034.2813 192.13652 1111.0175 149.07404 1216.75 91.09375 z M 1407.0312 422.3125 C 1407.0103 427.5625 1406.9887 432.8125 1406.9688 438.0625 C 1406.1086 573.88519 1405.2807 709.70808 1404.5 845.53125 C 1367.2708 722.6875 1330.0417 599.84375 1292.8125 477 C 1330.9044 458.81047 1369.004 440.63674 1407.0312 422.3125 z M 528.53125 513.15625 L 528.53125 513.1875 C 492.7869 513.1875 464.68312 526.83902 444.21875 554.125 C 445.92407 569.46878 437.41524 586.52252 418.65625 605.28125 L 434 615.5 L 449.34375 597.59375 C 522.6744 597.59375 558.4866 570.32209 556.78125 515.75 C 546.89014 514.01927 537.46737 513.15625 528.53125 513.15625 z M 213.28125 757.71875 C 201.82118 757.71875 189.26797 763.17676 175.625 774.09375 L 183.3125 786.90625 C 192.1551 780.71536 199.02342 777.625 203.96875 777.625 C 208.56085 777.625 211.48712 780.2684 212.71875 785.59375 C 215.2768 796.6774 204.62515 803.07714 180.75 804.78125 L 183.3125 820.125 C 217.41981 818.39426 235.75445 808.59867 238.3125 790.71875 C 240.87055 772.8121 235.33039 762.15833 221.6875 758.75 C 218.95897 758.08435 216.14626 757.75 213.28125 757.75 L 213.28125 757.71875 z M 288.1875 843.1875 L 295.84375 843.1875 L 295.84375 871.3125 C 297.54915 912.23835 288.18314 933.54597 267.71875 935.25 L 267.71875 899.4375 L 206.3125 963.40625 C 204.60711 932.71194 217.8302 909.66282 245.96875 894.3125 C 274.10724 878.96852 288.1875 861.94623 288.1875 843.1875 z M 278.625 1597.9688 L 278.625 1598.0625 C 301.10009 1598.0625 333.27082 1601.8103 375.15625 1609.3125 C 386.77876 1611.376 398.40876 1613.2965 410.03125 1615.0938 C 398.40876 1616.4252 386.77876 1617.9023 375.15625 1619.5 C 336.42022 1624.9584 305.97864 1627.6875 283.84375 1627.6875 C 254.33037 1627.6875 239.5625 1622.8013 239.5625 1613.0625 C 239.5625 1602.991 252.60121 1597.9688 278.625 1597.9688 z "
     id="path5092" />
</svg>
