<?xml version="1.0" encoding="UTF-8" standalone="no"?>
<svg
   xmlns:dc="http://purl.org/dc/elements/1.1/"
   xmlns:cc="http://web.resource.org/cc/"
   xmlns:rdf="http://www.w3.org/1999/02/22-rdf-syntax-ns#"
   xmlns:svg="http://www.w3.org/2000/svg"
   xmlns="http://www.w3.org/2000/svg"
   xmlns:sodipodi="http://sodipodi.sourceforge.net/DTD/sodipodi-0.dtd"
   xmlns:inkscape="http://www.inkscape.org/namespaces/inkscape"
   width="21.349766"
   height="17.983217"
   id="svg2656"
   sodipodi:version="0.32"
   inkscape:version="0.45"
   sodipodi:docname="E216J.svg"
   inkscape:output_extension="org.inkscape.output.svg.inkscape"
   sodipodi:docbase="C:\Program Files\JSesh\fontsST"
   sodipodi:modified="true">
  <metadata
     id="metadata2663">
    <rdf:RDF>
      <cc:Work
         rdf:about="">
        <dc:format>image/svg+xml</dc:format>
        <dc:type
           rdf:resource="http://purl.org/dc/dcmitype/StillImage" />
      </cc:Work>
    </rdf:RDF>
  </metadata>
  <defs
     id="defs2661" />
  <sodipodi:namedview
     inkscape:window-height="480"
     inkscape:window-width="640"
     inkscape:pageshadow="2"
     inkscape:pageopacity="0.0"
     guidetolerance="10.0"
     gridtolerance="10.0"
     objecttolerance="10.0"
     borderopacity="1.0"
     bordercolor="#666666"
     pagecolor="#ffffff"
     id="base" />
  <path
     style="fill:#000000; stroke:none"
     d="M 10.125 0 C 9.1941653 0.290886 8.3551635 0.608092 7.5625 0.90625 C 6.769836 1.204408 6.0273314 1.7102859 5.34375 2.4375 C 4.6165353 1.8411847 3.8384581 1.4274813 3.03125 1.1875 C 2.224042 0.94751933 1.3349227 0.68475265 0.375 0.4375 C 0.06957 0.4375 -0.058176667 0.60081999 0 0.90625 C 0.21816467 1.1389587 0.62970671 1.5788014 1.21875 2.21875 C 1.807794 2.8586987 2.3209434 3.217962 2.75 3.3125 C 3.0981954 3.3892212 3.3894735 3.4084353 3.65625 3.375 C 3.4789913 3.4295412 3.3372655 3.5645605 3.25 3.75 C 3.1336453 3.9972533 2.9398634 4.1837634 2.65625 4.34375 C 2.372636 4.5037373 2.1527148 4.6931959 2 4.875 C 1.8472847 5.0568033 1.6346353 5.2527474 1.34375 5.5 C 0.71834533 5.689076 0.40841134 6.1289186 0.4375 6.8125 C 0.36477867 7.0161207 0.37932266 7.2004694 0.4375 7.375 C 0.452044 7.651342 0.60081999 7.7790886 0.90625 7.75 C 0.92079467 8.2735947 1.0841146 8.545795 1.375 8.53125 C 1.6222533 8.53125 1.75 8.405664 1.75 8.1875 C 2.171784 8.1584113 2.3582941 8.0473699 2.34375 7.84375 C 2.34375 7.6837627 2.4359245 7.5937501 2.625 7.59375 L 3.375 7.28125 C 3.7386073 7.310338 4.0339971 7.3836454 4.28125 7.5 C 4.5285027 7.616354 4.6751166 7.9052597 4.71875 8.3125 C 4.7623827 8.7197407 4.8095507 9.0884373 4.875 9.4375 C 4.9404493 9.7865633 5.0304619 10.070358 5.125 10.28125 C 5.219538 10.492143 5.1440691 11.014725 4.875 11.84375 C 4.6059307 12.672775 4.4876174 13.429036 4.53125 14.15625 C 4.5748827 14.883464 4.6314839 15.505494 4.71875 16 C 4.806016 16.494506 5.234264 16.676693 5.96875 16.53125 C 6.7032367 16.385807 7.703397 16.132475 8.96875 15.8125 C 8.896028 16.030664 8.914895 16.40231 9.03125 16.875 C 9.147604 17.347689 9.5163012 17.690246 10.15625 17.9375 C 10.418048 18.053854 10.635807 17.926107 10.78125 17.5625 L 11.5625 16.40625 C 11.421335 16.323904 11.324888 16.230271 11.28125 16.15625 C 11.30234 16.148771 11.324543 16.133739 11.34375 16.125 C 11.590287 16.321927 11.889473 16.606343 12.25 17.03125 C 12.671785 17.525756 13.421562 17.544623 14.46875 17.09375 L 14.09375 16.65625 C 14.151927 16.627162 14.168632 16.518282 14.125 16.34375 L 14 16.4375 L 13.75 16.125 C 13.851811 16.081367 13.835105 15.989193 13.71875 15.84375 L 13.53125 15.875 L 13.5 15.8125 C 13.570871 15.816635 13.644078 15.838898 13.71875 15.84375 C 14.090025 15.867873 14.347251 15.864411 14.8125 15.90625 C 16.834157 16.088053 17.917057 15.953034 18.0625 15.53125 C 18.207943 15.109465 18.318985 14.684167 18.40625 14.21875 C 18.493516 13.753333 18.651726 13.379526 18.90625 13.125 C 19.160775 12.870475 19.423541 12.289128 19.65625 11.34375 C 20.005313 10.820155 20.265131 10.312117 20.46875 9.78125 C 20.672369 9.2503833 20.724647 8.1435045 20.59375 6.5 C 21.000989 6.2382027 21.220912 5.8862112 21.25 5.40625 L 21.34375 3.9375 C 21.358294 3.719336 21.245092 3.5915886 20.96875 3.5625 C 20.692409 3.5479553 20.545794 3.6401293 20.53125 3.84375 L 20.40625 5.3125 C 20.275351 5.6324747 20.147605 5.6324745 20.03125 5.3125 L 19.875 3.875 C 19.831367 3.6568353 19.682591 3.5646613 19.40625 3.59375 C 19.129908 3.6373833 19.002162 3.750586 19.03125 3.96875 L 19.21875 5.4375 C 19.233294 5.8883727 19.436511 6.2382025 19.84375 6.5 C 19.829206 8.3907573 19.590418 9.4736583 19.125 9.75 C 18.412331 9.255494 17.743132 8.865769 17.125 8.53125 C 16.506868 8.1967313 15.277353 8.2104879 13.4375 8.625 C 12.82869 8.7621628 12.297092 8.8526955 11.8125 8.90625 C 12.002658 8.4300328 12.178597 7.903328 12.34375 7.28125 C 12.561914 6.459498 12.725234 5.7735938 12.8125 5.25 C 12.899765 4.7264053 12.956367 4.0644801 13 3.25 C 12.214609 3.1918227 11.699298 3.0807814 11.4375 2.90625 L 11.53125 1.4375 C 11.32763 1.33569 11.159987 1.3168227 11 1.375 C 10.848602 4.1965102 10.734702 6.7072958 10.6875 8.96875 C 10.255956 8.9463188 9.8929063 8.8825723 9.625 8.75 C 8.919602 8.4009373 8.3498509 7.8166413 7.90625 7.03125 C 7.4626493 6.245858 7.2093167 5.5599554 7.1875 5 C 7.1656833 4.4400453 6.9363284 3.9719013 6.5 3.59375 C 7.1108607 3.49194 7.6385545 3.3358926 8.03125 3.125 C 8.423946 2.914108 8.8920894 2.4648314 9.4375 1.78125 C 9.9829107 1.097668 10.358879 0.67020868 10.5625 0.4375 C 10.591588 0.117526 10.43043 -0.043632667 10.125 0 z M 10.1875 0.21875 L 10.28125 0.28125 C 8.2741373 1.0666413 6.7848061 1.965194 5.78125 2.96875 L 7.09375 3.09375 C 6.5410673 3.1373827 6.1157694 3.2295574 5.78125 3.375 C 5.78125 3.57862 5.8378506 3.6874999 5.96875 3.6875 C 6.3759893 4.0220187 6.5980727 4.5068673 6.65625 5.125 C 6.7144273 5.743132 6.9866267 6.4616595 7.4375 7.3125 C 7.8883727 8.1633413 8.4697196 8.8470822 9.21875 9.3125 C 9.9677807 9.7779167 11.306176 9.7779162 13.21875 9.3125 C 15.131323 8.8470827 16.396412 8.8187823 17 9.21875 C 17.603588 9.618718 18.293814 10.091184 19.09375 10.6875 L 19.1875 11.15625 C 18.911159 12.087085 18.646231 12.630697 18.40625 12.8125 C 18.16627 12.994304 17.965215 13.405846 17.8125 14.03125 C 17.659785 14.656654 17.513171 15.068196 17.375 15.25 C 17.236829 15.431804 16.272242 15.443399 14.46875 15.3125 C 13.596062 15.24916 12.89632 15.256047 12.34375 15.28125 L 12.3125 14.65625 C 12.547461 14.663223 12.796267 14.692809 13.0625 14.71875 C 14.480568 14.856921 15.383444 14.830782 15.8125 14.65625 C 16.241557 14.481719 16.386009 14.224063 16.21875 13.875 C 16.05149 13.525937 16.081953 12.790705 16.34375 11.65625 L 15.84375 11.1875 L 15.6875 11.90625 C 14.814843 12.138959 14.183379 12.392292 13.8125 12.625 C 13.441621 12.857709 12.732528 13.077631 11.65625 13.28125 C 10.579973 13.484871 9.4280875 13.153908 8.25 12.28125 L 8.4375 11.78125 L 8.34375 11.21875 L 7.875 12.03125 C 7.351406 12.525755 6.9398642 13.012766 6.65625 13.5 C 6.3726367 13.987233 6.2165886 14.448105 6.1875 14.90625 C 6.1584113 15.364395 6.683156 15.463841 7.78125 15.1875 C 8.8793433 14.911158 9.5841141 14.762382 9.875 14.71875 C 9.56957 14.951459 9.3518099 15.119102 9.25 15.25 C 7.635584 15.657241 6.5788218 15.910573 6.0625 15.96875 C 5.5461773 16.026928 5.2696546 15.891908 5.21875 15.59375 C 5.1678447 15.295592 5.1061326 14.765736 5.0625 14.03125 C 5.0188667 13.296763 5.19162 12.448328 5.5625 11.4375 C 5.9333787 10.426672 6.28832 9.7596349 6.59375 9.46875 L 6.4375 8.65625 L 5.625 9.96875 C 5.4795567 9.270624 5.3256708 8.6558663 5.1875 8.125 C 5.0493293 7.5941333 4.9644272 7.3154488 4.90625 7.25 C 4.8480733 7.1845507 4.7370318 7.1206775 4.5625 7.0625 C 5.057006 7.0188673 5.3974022 6.8816864 5.59375 6.65625 C 5.790098 6.4308133 5.8561334 6.1448575 5.8125 5.78125 C 5.5361587 6.3339333 5.1507561 6.5959112 4.65625 6.625 C 4.1617447 6.6540887 3.4243501 6.8529811 2.40625 7.1875 C 2.2462627 6.9257027 2.0117973 6.8146615 1.75 6.84375 C 1.662734 7.14918 1.4762241 7.3523961 1.15625 7.46875 C 1.0398953 7.5269273 0.96874999 7.5080598 0.96875 7.40625 C 0.91057333 7.2171747 0.94398467 7.0182819 1.03125 6.84375 C 1.0249244 6.6286738 1.0312938 6.4817904 1.09375 6.34375 C 1.1748938 6.1644062 1.3340057 6.049311 1.53125 6 C 2.214832 5.3309627 2.6735413 4.9121489 2.90625 4.78125 C 3.138958 4.6503513 3.3160346 4.4398635 3.46875 4.15625 C 3.6214653 3.872636 3.7796746 3.7238607 3.96875 3.6875 C 4.157826 3.6511393 4.4133199 3.5255533 4.71875 3.34375 C 5.02418 3.161946 5.3341139 2.968164 5.625 2.75 C 6.2940367 2.051874 6.9988073 1.5387246 7.71875 1.21875 C 8.4386927 0.898776 9.2566657 0.58235733 10.1875 0.21875 z M 1.09375 6.34375 L 1.15625 6.46875 C 1.3016933 6.3814847 1.384434 6.3742122 1.40625 6.46875 C 1.4280667 6.5632873 1.3598701 6.6250001 1.15625 6.625 L 1.15625 6.78125 C 1.46168 6.7667053 1.610456 6.6599872 1.625 6.5 C 1.6395447 6.3400127 1.609082 6.2718159 1.5 6.25 C 1.3909173 6.2281833 1.2391927 6.2419401 1.09375 6.34375 z M 1.75 6.84375 L 1.875 6.71875 L 1.875 6.65625 C 1.6277473 6.7871487 1.3889587 6.9693351 1.15625 7.1875 L 1.21875 7.28125 L 1.75 6.84375 z M 9.96875 0.5625 C 8.8924727 2.075106 7.9939208 2.8103386 7.28125 2.78125 L 6.59375 2.6875 C 7.1318893 2.2366267 7.5927601 1.8962306 8 1.65625 C 8.40724 1.4162693 9.0670041 1.057006 9.96875 0.5625 z M 0.375 0.6875 C 1.3349233 0.96384133 2.1717634 1.2309306 2.90625 1.5 C 3.6407367 1.7690693 4.3288015 2.1806113 4.96875 2.71875 L 4.6875 2.875 C 3.8002987 2.1186973 2.3152893 1.4044934 0.25 0.75 L 0.375 0.6875 z M 0.59375 1 C 1.5536727 1.4217847 2.2344652 1.7338801 2.65625 1.9375 C 3.078034 2.14112 3.5744778 2.46776 4.15625 2.875 L 3.46875 3.03125 C 2.75608 3.1039713 1.800926 2.4107959 0.59375 1 z M 11.4375 3.46875 C 11.626577 3.5560153 11.942995 3.631484 12.4375 3.71875 C 12.303837 5.5499241 11.906256 7.2905795 11.28125 8.9375 C 11.241787 8.9394879 11.194704 8.9674415 11.15625 8.96875 C 11.215084 7.3847856 11.315617 5.5949407 11.4375 3.46875 z M 20.9375 3.90625 C 21.024767 3.9207947 21.0625 3.9962625 21.0625 4.15625 L 20.96875 5.34375 C 20.954205 5.7509907 20.732123 6.042058 20.28125 6.1875 C 20.339428 7.860094 20.284987 8.9241271 20.125 9.375 C 19.965013 9.8258727 19.745092 10.265715 19.46875 10.6875 L 19.34375 10.28125 C 19.998243 9.8594647 20.272603 8.500042 20.15625 6.1875 C 19.719921 6.042058 19.5 5.7844018 19.5 5.40625 L 19.375 4.25 C 19.360455 4.0900127 19.398189 3.983294 19.5 3.96875 C 19.572721 3.9542053 19.62716 4.0275125 19.65625 4.1875 L 19.75 5.34375 C 19.779088 5.518282 19.885807 5.6554625 20.03125 5.75 C 20.176693 5.844538 20.323307 5.8518099 20.46875 5.75 C 20.614193 5.64819 20.672956 5.5015758 20.6875 5.3125 L 20.75 4.09375 C 20.77909 3.9337627 20.850235 3.891706 20.9375 3.90625 z M 4.03125 4.125 C 3.7530906 4.1413621 3.5386235 4.2709269 3.375 4.5 C 3.389544 4.630898 3.3162367 4.7608069 3.15625 4.90625 L 3.28125 5 L 3.4375 4.84375 C 4.0629047 4.84375 4.3728385 4.6216672 4.34375 4.15625 C 4.238304 4.1380695 4.1239698 4.119546 4.03125 4.125 z M 2.0625 6.96875 L 2.09375 6.96875 L 2.09375 7.1875 C 2.1228387 7.5511067 2.064076 7.7187501 1.875 7.71875 L 1.875 7.4375 L 1.34375 7.96875 C 1.3292053 7.7069527 1.4475194 7.5058987 1.6875 7.375 C 1.9274813 7.244102 2.047956 7.1141935 2.0625 6.96875 z M 15.53125 12.59375 C 15.42944 13.044623 15.467174 13.505494 15.65625 14 C 15.379908 14.261797 14.864597 14.35181 14.09375 14.25 C 13.322903 14.148189 12.717578 14.148189 12.28125 14.25 L 12.25 13.90625 C 12.084814 13.845402 11.978244 13.816689 11.875 13.8125 C 12.893099 13.63198 13.600868 13.431721 13.9375 13.21875 C 14.293835 12.993314 14.833124 12.782826 15.53125 12.59375 z M 7.96875 12.90625 C 9.3133598 13.690606 10.505419 13.990088 11.59375 13.84375 C 11.529008 13.870818 11.458835 13.922592 11.375 13.96875 C 11.049694 13.871762 10.732277 13.912288 10.53125 14.125 L 10.53125 14.1875 C 9.9311073 14.227085 9.2937255 14.307827 8.625 14.46875 C 7.2651087 14.795996 6.6692181 14.78224 6.84375 14.375 C 7.0182813 13.967759 7.4015228 13.473477 7.96875 12.90625 z M 11.78125 14.125 C 11.873344 14.111839 11.971926 14.146965 11.96875 14.25 L 12.03125 15.5625 C 12.033622 15.731055 11.703003 15.755377 11.6875 15.625 L 11.59375 14.28125 C 11.584778 14.177035 11.689156 14.138161 11.78125 14.125 z M 11.03125 14.21875 C 11.123803 14.199487 11.22121 14.228758 11.21875 14.34375 L 11.3125 15.6875 C 11.320332 15.837134 10.934468 15.870023 10.9375 15.71875 L 10.875 14.40625 C 10.863474 14.314484 10.938697 14.238013 11.03125 14.21875 z M 10.5625 14.875 L 10.625 16.125 C 10.638826 16.136225 10.669643 16.147643 10.6875 16.15625 C 10.690096 16.274785 10.719171 16.393789 10.78125 16.53125 C 10.592174 16.603971 10.431016 16.455195 10.34375 16.0625 C 10.169219 16.513373 10.242526 16.806602 10.5625 16.9375 L 10.53125 17.09375 C 10.196731 16.962851 9.9768101 16.763958 9.875 16.53125 C 9.7441013 16.880313 9.911744 17.17138 10.40625 17.375 L 10.34375 17.5625 C 9.8201553 17.271614 9.5102213 16.871667 9.4375 16.40625 C 9.3647787 15.940833 9.5941336 15.524968 10.125 15.125 C 10.250828 15.030198 10.386828 14.939569 10.5625 14.875 z M 12.375 15.75 C 12.536476 15.751027 12.831132 15.772938 13.03125 15.78125 L 13.1875 15.96875 L 12.8125 15.875 L 12.59375 15.90625 C 12.913725 16.197136 13.169219 16.289311 13.34375 16.1875 L 13.53125 16.40625 C 13.240365 16.449883 13.020444 16.412147 12.875 16.28125 L 12.75 16.3125 C 12.968165 16.588842 13.315833 16.735456 13.78125 16.75 L 13.8125 16.84375 C 13.288905 17.04737 12.851224 16.898594 12.53125 16.375 C 12.393811 16.220381 12.252292 16.103886 12.125 16 C 12.219999 15.965302 12.298975 15.905118 12.375 15.84375 L 12.375 15.75 z M 10.84375 16.1875 C 10.924641 16.19733 11.003938 16.20107 11.09375 16.1875 C 11.002104 16.1994 10.925676 16.20061 10.84375 16.1875 z "
     id="path2658" />
</svg>
