<?xml version="1.0" encoding="UTF-8" standalone="no"?>
<svg
   xmlns:dc="http://purl.org/dc/elements/1.1/"
   xmlns:cc="http://creativecommons.org/ns#"
   xmlns:rdf="http://www.w3.org/1999/02/22-rdf-syntax-ns#"
   xmlns:svg="http://www.w3.org/2000/svg"
   xmlns="http://www.w3.org/2000/svg"
   xmlns:sodipodi="http://sodipodi.sourceforge.net/DTD/sodipodi-0.dtd"
   xmlns:inkscape="http://www.inkscape.org/namespaces/inkscape"
   width="26.617868"
   height="17.983217"
   id="svg2445"
   sodipodi:version="0.32"
   inkscape:version="0.46"
   sodipodi:docname="E219.svg"
   inkscape:output_extension="org.inkscape.output.svg.inkscape">
  <metadata
     id="metadata2452">
    <rdf:RDF>
      <cc:Work
         rdf:about="">
        <dc:format>image/svg+xml</dc:format>
        <dc:type
           rdf:resource="http://purl.org/dc/dcmitype/StillImage" />
      </cc:Work>
    </rdf:RDF>
  </metadata>
  <defs
     id="defs2450">
    <inkscape:perspective
       sodipodi:type="inkscape:persp3d"
       inkscape:vp_x="0 : 8.9916086 : 1"
       inkscape:vp_y="0 : 1000 : 0"
       inkscape:vp_z="26.617868 : 8.9916086 : 1"
       inkscape:persp3d-origin="13.308934 : 5.9944057 : 1"
       id="perspective2454" />
  </defs>
  <sodipodi:namedview
     inkscape:window-height="480"
     inkscape:window-width="640"
     inkscape:pageshadow="2"
     inkscape:pageopacity="0.0"
     guidetolerance="10.0"
     gridtolerance="10.0"
     objecttolerance="10.0"
     borderopacity="1.0"
     bordercolor="#666666"
     pagecolor="#ffffff"
     id="base"
     showgrid="false" />
  <path
     style="fill:#000000; stroke:none"
     d="M 7.375,0 L 7.375,0.375 C 7.375,0.89871467 7.2919121,1.299448 7.09375,1.625 C 6.83897,2.1770233 6.0693041,2.666176 4.78125,3.0625 C 4.4556973,3.0058827 4.2140627,3.0259194 4.09375,3.125 C 3.9734373,3.2240813 3.8373168,3.217004 3.625,3.125 C 3.412684,3.032996 3.2553313,3.0571686 3.15625,3.15625 C 1.4577173,2.5476087 0.59669132,1.600554 0.625,0.3125 C 0.554228,0.12849267 0.48823599,0.037132663 0.375,0.09375 C 0.13437467,0.277758 0,0.59246263 0,1.03125 C 0,1.4558833 0.18446601,1.9980687 0.53125,2.65625 C 0.87803333,3.314432 1.54338,3.8536758 2.5625,4.25 C 2.5200367,4.50478 2.510018,4.7193007 2.53125,4.875 C 2.5524813,5.0306987 2.419302,5.5628661 2.09375,6.46875 C 1.83897,6.6810667 1.6874999,6.8843745 1.6875,7.125 C 1.6875,7.37978 1.7446693,7.5713235 1.84375,7.65625 C 1.84375,7.8827213 2.3930119,7.9687498 3.46875,7.96875 C 3.6810667,7.9545953 3.8443013,7.8284934 4,7.53125 C 4.1840073,7.7718753 4.4527559,7.9079957 4.75,8 C 5.0472427,8.0920033 5.2446688,8.2593747 5.34375,8.5 C 5.4428307,8.7406253 5.6461385,8.9952196 6,9.25 C 6,9.575552 6.0341913,9.8130515 6.0625,9.96875 L 5.875,10.21875 C 4.5727913,10.784928 3.7931066,11.095496 3.53125,11.1875 C 3.2693927,11.279505 3.1291361,11.501103 3.09375,11.8125 C 3.058364,12.123897 2.85092,12.696138 2.46875,13.53125 C 2.1148887,13.786029 1.883272,14.140808 1.8125,14.59375 C 1.4727933,14.990075 1.2352947,15.525182 1.09375,16.21875 L 3.03125,15.90625 L 3.3125,15.125 C 3.2841913,14.940992 3.3613966,14.867923 3.53125,14.875 C 3.7011033,14.882077 3.7582726,14.734743 3.6875,14.4375 C 3.616728,14.140257 3.7941168,13.585112 4.21875,12.75 C 4.4593753,12.679227 4.5754591,12.557812 4.625,12.4375 C 4.6745407,12.317187 5.2308808,12.28125 6.25,12.28125 C 6.7737147,12.196323 7.1715066,12.182169 7.46875,12.28125 L 7.46875,12.3125 C 8.063236,12.666361 8.5954028,12.840809 9.0625,12.8125 L 9.28125,13.375 C 9.2387867,13.75717 9.3189331,14.189154 9.53125,14.65625 L 9.75,16.53125 C 9.3536753,16.899265 9.061949,17.388419 8.90625,17.96875 L 10.96875,17.96875 L 10.96875,17.15625 C 11.534928,17.057169 11.69228,16.765442 11.4375,16.3125 C 11.097793,15.590623 10.903309,15.122703 10.875,14.875 C 10.846691,14.627297 10.86967,14.402758 10.96875,14.21875 C 11.067832,14.034743 11.102022,13.800184 11.03125,13.53125 C 10.960477,13.262316 10.940441,13.001839 10.96875,12.71875 C 11.336766,12.704595 12.066358,12.667463 13.15625,12.625 C 14.246141,12.582537 15.159006,12.519485 15.9375,12.40625 C 15.9375,12.576103 16.031801,12.950918 16.1875,13.53125 L 16.46875,13.53125 L 16.71875,12.28125 C 16.71875,12.182169 17.288049,12.001838 18.40625,11.71875 L 18.5,13.53125 C 18.330147,14.168199 18.088511,14.713326 17.8125,15.1875 C 17.536488,15.661673 17.171692,16.140807 16.71875,16.59375 C 16.294117,16.947611 16.036581,17.402573 15.9375,17.96875 L 17.96875,17.96875 L 18.25,17.0625 C 18.391544,17.104964 18.583088,17.132077 18.78125,17.125 C 18.979412,17.117923 19.045405,16.933457 19.03125,16.59375 C 19.017096,16.254043 19.248713,15.584561 19.6875,14.59375 C 20.041362,14.46636 20.275919,14.245956 20.375,13.90625 C 20.615625,13.226837 21.010476,12.691728 21.5625,12.28125 C 21.916361,12.436949 22.287041,12.784649 22.71875,13.34375 C 23.150461,13.902851 23.334927,14.974262 23.25,16.53125 C 22.768749,16.970038 22.494118,17.430881 22.4375,17.96875 L 24.65625,17.96875 L 24.65625,17.1875 C 25.038419,17.1875 25.195771,17.056067 25.125,16.84375 C 25.054227,16.631434 24.93989,16.166455 24.8125,15.4375 C 24.685109,14.708547 24.68511,13.811583 24.8125,12.75 C 24.373712,12.084742 24.0932,11.452392 23.9375,10.84375 C 24.31967,10.433271 24.577206,9.7679249 24.71875,8.8125 C 24.860294,7.8570747 24.803125,7.0402589 24.5625,6.375 C 24.845589,7.082722 24.982905,7.9095569 24.96875,8.84375 C 24.954597,9.7779433 24.971691,10.497518 25,11 C 25.028309,11.502483 25.03125,12.332259 25.03125,13.5 C 25.03125,14.667741 25.09136,15.49044 25.21875,16 C 25.346141,16.509559 25.543566,16.78125 25.8125,16.78125 C 26.180517,16.809559 26.43511,16.504872 26.5625,15.875 C 26.689891,15.245127 26.595589,14.233827 26.3125,12.875 C 25.746321,11.544483 25.485845,10.734743 25.5,10.4375 C 25.684007,8.0878633 25.499541,6.4212341 24.96875,5.4375 C 24.437959,4.4537667 23.32767,3.9416359 21.59375,3.90625 C 19.859831,3.8708633 18.286308,4.0523885 16.90625,4.40625 C 15.526192,4.7601107 13.83245,4.6457726 11.84375,4.09375 C 9.8550513,3.5417267 8.345774,3.2040447 7.3125,3.0625 L 7.3125,2.96875 L 7.0625,3.0625 C 7.713604,2.3123147 8.03125,1.6257366 8.03125,1.03125 C 7.9321687,0.33768267 7.7977941,0 7.65625,0 L 7.375,0 z M 6.9375,3.40625 C 6.81011,4.128126 6.6097435,4.4929225 6.3125,4.5 C 6.0152573,4.5070773 5.7577211,4.4829048 5.53125,4.46875 C 5.3613967,4.46875 5.2270219,4.543014 5.15625,4.65625 L 5.03125,4.4375 L 5.15625,4.34375 C 5.1845587,4.0606613 5.7768362,3.7459566 6.9375,3.40625 z M 4.46875,3.46875 C 4.666912,3.6244487 4.7670954,3.8619478 4.78125,4.1875 L 4.65625,4.28125 L 4.875,4.6875 C 5.0306987,4.871508 5.1880507,4.9115811 5.34375,4.8125 C 5.4994487,4.7134193 5.7269292,4.6933829 6.03125,4.75 C 6.3355707,4.806618 6.6001841,4.7736213 6.8125,4.625 C 7.0248167,4.476378 7.1992648,4.111582 7.3125,3.53125 C 7.9069867,3.545404 9.0644264,3.8058814 10.8125,4.34375 C 12.560573,4.8816193 14.006799,5.1432908 15.125,5.09375 C 16.243201,5.0442093 17.193197,4.8998168 18,4.6875 C 18.806802,4.4751833 19.583546,4.3679228 20.3125,4.375 C 21.041453,4.3820773 21.771046,4.4192093 22.5,4.46875 C 23.228953,4.5182907 23.693933,4.6856615 23.90625,4.96875 C 23.566543,4.71397 23.211765,4.5996319 22.84375,4.65625 L 22.84375,5 C 23.537317,5.1698533 23.979319,5.8953092 24.15625,7.21875 C 24.333181,8.54219 24.065626,9.7308803 23.34375,10.75 C 23.93208,13.277669 21.369993,11.393726 18.6875,10.15625 L 18.5625,10.5 C 18.803127,10.599081 18.99467,10.719301 19.09375,10.875 C 16.715805,11.724267 14.894764,12.15625 13.65625,12.15625 C 12.417737,12.15625 11.537869,12.15625 11,12.15625 L 11.28125,10.6875 C 11.352022,10.461029 11.28603,10.220589 11.03125,9.9375 L 10.65625,8.90625 L 10.28125,8.9375 L 10.40625,9.75 L 10.84375,10.65625 C 10.121035,13.326984 9.4137259,11.698364 9.1875,11.15625 C 8.8477933,11.28364 8.4859381,11.10331 8.125,10.59375 C 7.7640613,10.08419 7.6868561,9.4889722 7.90625,8.78125 C 8.125644,8.073528 8.4833631,7.5714161 9,7.28125 C 9.5166373,6.991084 9.9957714,6.4547805 10.40625,5.71875 C 10.434559,5.6196687 10.300184,5.5395227 10.03125,5.46875 C 9.6066167,6.2047813 9.1616729,6.7210472 8.6875,6.96875 C 8.213326,7.2164527 7.8785854,7.5741714 7.6875,8.0625 C 7.4964153,8.5508273 7.4033095,9.0959539 7.375,9.71875 C 7.3466913,10.341545 7.5871311,10.843657 8.125,11.21875 C 8.6628687,11.593843 8.9003676,11.938602 8.84375,12.25 C 8.4898893,12.207537 8.0950374,12.053126 7.65625,11.8125 C 6.8494467,10.878307 6.4687501,9.945407 6.46875,8.96875 L 5.71875,8.375 C 5.71875,8.049448 5.4971513,7.8420031 5.09375,7.75 C 4.690348,7.657996 4.325552,7.3132365 4,6.71875 L 3.8125,6.75 C 3.7841913,7.3020233 3.6097433,7.5937501 3.3125,7.59375 C 3.170956,7.4946687 2.97353,7.4946688 2.71875,7.59375 C 2.33658,7.4946687 2.15625,7.3172793 2.15625,7.0625 C 2.28364,6.9068007 2.339614,6.8325368 2.375,6.875 C 2.410386,6.9174633 2.4245406,6.964614 2.375,7 C 2.32546,7.0353867 2.2912687,7.1055149 2.3125,7.21875 C 2.3337313,7.3319853 2.4209553,7.3649813 2.5625,7.34375 C 2.7040447,7.322518 2.7942093,7.2394307 2.84375,7.0625 C 2.89329,6.88557 2.8001841,6.7181986 2.53125,6.5625 C 2.8426473,5.6566153 2.9858454,4.9641552 3,4.46875 C 3.5378687,4.3272053 4.0871314,4.3472419 4.625,4.53125 L 4.625,4.40625 C 4.11544,4.1939333 3.6433834,4.1196687 3.21875,4.21875 C 3.331986,4.0488967 3.4292281,3.8284933 3.5,3.53125 C 3.825552,3.6444853 4.1573518,3.6244486 4.46875,3.46875 z M 4.875,4.6875 C 4.1389693,4.56011 3.60092,4.5371319 3.21875,4.59375 C 3.2470587,4.8060667 3.2829959,4.9693013 3.375,5.125 C 3.467004,5.2806987 3.5943014,5.4480695 3.75,5.625 C 3.9056987,5.8019307 3.9999999,6.0435662 4,6.3125 L 4.0625,6.3125 C 4.0908087,5.972794 4.0077206,5.6009199 3.78125,5.21875 C 4.1351107,5.1338233 4.4928298,4.9564348 4.875,4.6875 z M 6.75,3.65625 C 6.5659927,3.6845587 6.3514713,3.7446687 6.125,3.84375 C 5.8985292,3.9428306 5.6580893,4.1001833 5.375,4.3125 C 5.4033085,4.3549632 5.5306053,4.375 5.75,4.375 C 5.9693933,4.3749999 6.12261,4.3820773 6.25,4.375 C 6.37739,4.3679229 6.474632,4.303676 6.53125,4.21875 C 6.5878681,4.1338233 6.6350187,4.0807907 6.65625,4.03125 C 6.6774813,3.9817095 6.6303307,4.0117647 6.53125,4.125 C 6.4321687,4.2382355 6.309008,4.295404 6.125,4.28125 C 5.9409927,4.2670955 5.8867647,4.1928307 6,4.09375 C 6.1132352,3.9946686 6.36783,3.854412 6.75,3.65625 z M 3.53125,4.8125 L 4.21875,4.8125 L 3.6875,5.03125 L 3.53125,4.8125 z"
     id="path2447"
     sodipodi:nodetypes="ccccssccssscscscccsscccsscccccsscscccccccccccssscsccccccsccccsscccsccccssccscssssssccsssscccccccssccccccccssscssssscccsccccsccccccccsssccssssccccscccccssssscccccccccsscccccscsssssssccccc" />
</svg>
