<?xml version="1.0" encoding="UTF-8" standalone="no"?>
<svg
   xmlns:dc="http://purl.org/dc/elements/1.1/"
   xmlns:cc="http://creativecommons.org/ns#"
   xmlns:rdf="http://www.w3.org/1999/02/22-rdf-syntax-ns#"
   xmlns:svg="http://www.w3.org/2000/svg"
   xmlns="http://www.w3.org/2000/svg"
   xmlns:sodipodi="http://sodipodi.sourceforge.net/DTD/sodipodi-0.dtd"
   xmlns:inkscape="http://www.inkscape.org/namespaces/inkscape"
   width="19.050909"
   height="17.804081"
   id="svg2498"
   sodipodi:version="0.32"
   inkscape:version="0.46"
   sodipodi:docname="E225VARA.svg"
   inkscape:output_extension="org.inkscape.output.svg.inkscape"
   version="1.0">
  <metadata
     id="metadata2505">
    <rdf:RDF>
      <cc:Work
         rdf:about="">
        <dc:format>image/svg+xml</dc:format>
        <dc:type
           rdf:resource="http://purl.org/dc/dcmitype/StillImage" />
      </cc:Work>
    </rdf:RDF>
  </metadata>
  <defs
     id="defs2503">
    <inkscape:perspective
       sodipodi:type="inkscape:persp3d"
       inkscape:vp_x="0 : 8.9916086 : 1"
       inkscape:vp_y="0 : 1000 : 0"
       inkscape:vp_z="19.050182 : 8.9916086 : 1"
       inkscape:persp3d-origin="9.5250912 : 5.9944057 : 1"
       id="perspective2507" />
  </defs>
  <sodipodi:namedview
     inkscape:window-height="480"
     inkscape:window-width="640"
     inkscape:pageshadow="2"
     inkscape:pageopacity="0.0"
     guidetolerance="10.0"
     gridtolerance="10.0"
     objecttolerance="10.0"
     borderopacity="1.0"
     bordercolor="#666666"
     pagecolor="#ffffff"
     id="base"
     showgrid="false" />
  <path
     style="fill:#000000;stroke:none"
     d="M 4.4380757,1.8267929 L 4.9009817,2.0231779 L 4.9009817,2.0933149 C 4.6765424,2.4112709 4.367938,2.4814082 3.9751687,2.3037269 L 3.0353287,2.8788539 C 3.0259774,2.7946886 3.114818,2.6941582 3.3018507,2.5772629 C 3.4888834,2.4603676 3.6759164,2.3271066 3.8629497,2.1774799 C 3.9938724,1.9436886 4.185581,1.8267929 4.4380757,1.8267929 z M 2.6145047,2.9630189 C 2.7734827,2.9069089 2.866999,2.9162602 2.8950537,2.9910729 C 2.913757,3.0471829 2.8155647,3.1453752 2.6004767,3.2856499 C 2.5537187,3.2950019 2.5116364,3.2435679 2.4742297,3.1313479 C 2.4555264,3.0752379 2.5022847,3.0191282 2.6145047,2.9630189 z M 6.2616467,1.7286009 L 6.4860867,1.7847109 C 6.598306,2.0372049 6.6076577,2.3621746 6.5141417,2.7596199 C 6.420625,3.1570652 6.0559107,3.5334689 5.4199987,3.8888309 C 5.3919434,3.0378316 5.4059707,2.4977742 5.4620807,2.2686589 C 5.5181907,2.0395429 5.621059,1.8221169 5.7706857,1.6163809 L 6.0091517,1.6724909 C 5.878229,1.9249856 5.7987404,2.1517629 5.7706857,2.3528229 C 5.7426304,2.5538836 5.7145754,2.9022326 5.6865207,3.3978699 C 6.1541027,2.9676939 6.3458114,2.4112709 6.2616467,1.7286009 z M 9.0250587,1.7286009 C 8.940894,2.4112709 9.1326027,2.9676939 9.6001847,3.3978699 C 9.57213,2.9022326 9.544075,2.5538836 9.5160197,2.3528229 C 9.487965,2.1517629 9.408476,1.9249856 9.2775527,1.6724909 L 9.5160197,1.6163809 C 9.6656464,1.8221169 9.7685147,2.0395429 9.8246247,2.2686589 C 9.880734,2.4977742 9.8947614,3.0378316 9.8667067,3.8888309 C 9.2307947,3.5334689 8.8660804,3.1570652 8.7725637,2.7596199 C 8.679047,2.3621746 8.688399,2.0372049 8.8006197,1.7847109 L 9.0250587,1.7286009 z M 8.6883997,1.1394469 C 7.9776744,0.84019416 7.2763007,0.84019416 6.5842787,1.1394469 C 6.7806634,1.2984249 7.13135,1.6023536 7.6363387,2.0512329 C 8.1506794,1.6023536 8.5013664,1.2984249 8.6883997,1.1394469 z M 12.672201,2.9630189 C 12.784421,3.0191282 12.831179,3.0752379 12.812476,3.1313479 C 12.775069,3.2435679 12.732987,3.2950019 12.686228,3.2856499 C 12.47114,3.1453752 12.372948,3.0471829 12.391652,2.9910729 C 12.419707,2.9162602 12.513223,2.9069089 12.672201,2.9630189 z M 10.84863,1.8267929 C 11.101125,1.8267929 11.292833,1.9436886 11.423756,2.1774799 C 11.610789,2.3271066 11.797822,2.4603676 11.984855,2.5772629 C 12.171888,2.6941582 12.256053,2.7946886 12.23735,2.8788539 L 11.311536,2.3037269 C 10.909415,2.4814082 10.600811,2.4112709 10.385724,2.0933149 L 10.385724,2.0231779 L 10.84863,1.8267929 z M 4.4801577,5.0250569 L 4.9430647,5.2074139 L 4.9430647,5.2775509 C 4.7186254,5.6048589 4.410021,5.6796722 4.0172517,5.5019909 L 3.0914387,6.0630889 C 3.0727354,5.9789242 3.1569,5.8783942 3.3439327,5.7614989 C 3.530966,5.6446029 3.717999,5.5113419 3.9050317,5.3617159 C 4.035955,5.1372766 4.2276637,5.0250569 4.4801577,5.0250569 z M 2.6565867,6.1472539 C 2.8155647,6.0911439 2.9090814,6.1004956 2.9371367,6.1753089 C 2.95584,6.2314189 2.8576477,6.3296112 2.6425597,6.4698859 C 2.595801,6.4792379 2.5537184,6.4278039 2.5163117,6.3155839 C 2.497609,6.2594739 2.5443674,6.2033639 2.6565867,6.1472539 z M 6.3037297,4.9268639 L 6.5281687,4.9689469 C 6.6403887,5.2307929 6.6497404,5.5604382 6.5562237,5.9578829 C 6.462707,6.3553282 6.0979927,6.7317322 5.4620807,7.0870949 C 5.434026,6.2360949 5.4480537,5.6936992 5.5041637,5.4599079 C 5.560273,5.2261166 5.663141,5.0110289 5.8127677,4.8146449 L 6.0512347,4.8707549 C 5.9203114,5.1138976 5.8408224,5.3383369 5.8127677,5.5440729 C 5.784713,5.7498089 5.756658,6.0958199 5.7286027,6.5821059 C 6.1961854,6.1519299 6.3878944,5.6001826 6.3037297,4.9268639 z M 9.0110317,4.9689469 C 8.9268664,5.6516169 9.1185747,6.2080399 9.5861567,6.6382159 C 9.5581027,6.1425786 9.530048,5.7942296 9.5019927,5.5931689 C 9.473938,5.3921089 9.394449,5.1653316 9.2635257,4.9128369 L 9.5019927,4.8567269 C 9.6516187,5.0624629 9.7544867,5.2798886 9.8105967,5.5090039 C 9.8667067,5.7381192 9.8807344,6.2781769 9.8526797,7.1291769 C 9.2167677,6.7738142 8.8520534,6.3974106 8.7585367,5.9999659 C 8.66502,5.6025206 8.6743717,5.2775509 8.7865917,5.0250569 L 9.0110317,4.9689469 z M 12.658174,6.2033639 C 12.770393,6.2594739 12.817151,6.3155839 12.798448,6.3716939 C 12.761042,6.4839132 12.71896,6.5353472 12.672201,6.5259959 C 12.457114,6.3857212 12.358921,6.2875289 12.377624,6.2314189 C 12.405679,6.1566056 12.499196,6.1472539 12.658174,6.2033639 z M 10.834603,5.0671389 C 11.087097,5.0671389 11.278806,5.1840346 11.409729,5.4178259 C 11.596762,5.5674519 11.783795,5.7007129 11.970828,5.8176089 C 12.157861,5.9345042 12.242025,6.0350342 12.223322,6.1191989 L 11.297509,5.5440729 C 10.895388,5.7217542 10.586784,5.6516169 10.371696,5.3336609 L 10.371696,5.2635229 L 10.834603,5.0671389 z M 15.295338,14.199023 C 15.257932,13.946528 15.173767,13.712736 15.042843,13.497649 L 15.070899,13.483621 C 15.229877,13.698709 15.335083,13.869377 15.386517,13.995624 C 15.43795,14.121871 15.515101,14.177981 15.61797,14.163954 C 15.720839,14.149926 15.755907,14.072775 15.723176,13.9325 C 15.690445,13.792225 15.56186,13.598179 15.337421,13.35036 C 15.112982,13.102541 14.860487,12.978632 14.579938,12.978632 L 12.279432,13.287237 C 12.120454,13.277885 12.045641,13.315291 12.054992,13.399456 C 12.064344,13.483621 12.148509,13.492973 12.307487,13.427512 C 13.410981,13.305941 14.112354,13.207748 14.411607,13.132935 L 14.776322,13.175017 C 14.776322,13.857688 14.949327,14.199023 15.295338,14.199023 z M 10.105174,8.7283089 C 9.7404597,8.4851656 9.5557647,8.2583882 9.5510887,8.0479769 C 9.5464134,7.8375642 9.5955094,7.6388416 9.6983767,7.4518089 C 9.8012454,7.2647762 10.119202,6.8953862 10.652245,6.3436389 C 10.914092,6.3436389 11.094111,6.3903972 11.192303,6.4839139 C 11.290496,6.5774299 11.517273,6.6966632 11.872635,6.8416139 C 12.227998,6.9865646 12.452437,6.9842266 12.545954,6.8345999 C 12.321515,6.7317319 12.127468,6.6639326 11.963814,6.6312019 C 11.80016,6.5984712 11.718333,6.5493752 11.718333,6.4839139 C 11.718333,6.4091006 11.828215,6.4184519 12.047979,6.5119679 C 12.267742,6.6054846 12.461789,6.6849739 12.630119,6.7504359 C 12.789097,6.6195126 12.873262,6.5026169 12.882614,6.3997489 C 12.891965,6.2968809 12.775069,6.1308889 12.531927,5.9017729 C 12.288784,5.6726582 12.104088,5.4903012 11.977841,5.3547019 C 11.851594,5.2191032 11.468177,4.9829742 10.827589,4.6463149 C 10.187001,4.3096556 9.6492807,4.2675732 9.2144287,4.5200679 C 8.7795774,4.7725619 8.2488717,5.1653309 7.6223117,5.6983749 C 7.0425097,5.1279242 6.5351827,4.7164519 6.1003307,4.4639579 C 5.6654794,4.2114632 5.1277597,4.2535456 4.4871717,4.5902049 C 3.8465837,4.9268642 3.4631664,5.1653312 3.3369197,5.3056059 C 3.2106724,5.4458806 3.0259774,5.6305756 2.7828347,5.8596909 C 2.5396914,6.0888062 2.4227957,6.2547979 2.4321477,6.3576659 C 2.441499,6.4605339 2.5256637,6.5774296 2.6846417,6.7083529 C 2.8529717,6.6428916 3.0470184,6.5610646 3.2667817,6.4628719 C 3.4865457,6.3646799 3.5964277,6.3529906 3.5964277,6.4278039 C 3.5964277,6.5026166 3.5146007,6.5563886 3.3509467,6.5891199 C 3.1872927,6.6218506 2.993246,6.6896499 2.7688067,6.7925179 C 2.8623234,6.9421446 3.086763,6.9421446 3.4421257,6.7925179 C 3.7974877,6.6428912 4.0850507,6.5026166 4.3048147,6.3716939 C 4.5245787,6.2407706 4.6905704,6.2173912 4.8027897,6.3015559 C 4.8027897,8.1251272 4.8565617,9.4483852 4.9641057,10.27133 C 5.0716497,11.094275 5.349861,11.842407 5.7987397,12.515725 C 6.247619,13.189044 6.6029817,13.546745 6.8648277,13.588827 C 7.1266744,13.63091 7.2903284,13.595841 7.3557897,13.483621 C 6.8320977,12.772896 6.6286994,11.781621 6.7455947,10.509797 C 6.86249,9.2379736 7.9823497,8.6441442 10.105174,8.7283089 z M 11.241399,6.8766829 L 10.946823,6.7504359 C 10.554053,7.0870946 10.292207,7.3208856 10.161284,7.4518089 C 10.030361,7.5827322 9.9789267,7.7580756 10.006981,7.9778389 C 10.035036,8.1976029 10.203366,8.3612569 10.511971,8.4688009 C 10.820575,8.5763449 11.482204,8.6207652 12.496858,8.6020619 C 13.511511,8.5833579 14.446676,8.5599789 15.302352,8.5319249 C 16.158027,8.5038696 17.013703,8.7399986 17.869379,9.2403119 C 18.725055,9.7406246 18.970536,10.972704 18.605821,12.93655 C 18.811558,13.815605 18.951832,14.463206 19.026645,14.879355 C 19.101459,15.295503 19.003267,15.550335 18.732069,15.643852 C 18.46087,15.643852 18.285527,15.274462 18.206039,14.535682 C 18.12655,13.796902 18.140577,13.221776 18.248121,12.810303 C 18.355665,12.39883 18.390733,11.893841 18.353326,11.295336 C 18.175645,11.921896 17.976923,12.366099 17.75716,12.627945 C 17.537397,12.889792 17.474273,13.210086 17.567789,13.588827 C 17.661305,13.967569 17.768849,14.15694 17.89042,14.15694 C 18.030695,14.15694 18.082129,14.339297 18.044723,14.704011 C 18.063426,15.77945 18.086805,16.326522 18.11486,16.345226 C 18.273837,16.588368 18.320595,16.784752 18.255134,16.934379 C 18.189673,17.084006 18.05875,17.149467 17.862365,17.130763 C 17.871716,17.392609 17.792228,17.612373 17.623899,17.790056 L 16.136987,17.790056 C 16.370777,17.406638 16.656002,17.018545 16.992662,16.625776 L 16.992662,15.657879 C 16.899146,15.021967 16.557811,14.516978 15.968657,14.142912 C 15.921898,14.376703 15.76292,14.460868 15.491723,14.395407 C 15.379503,14.516978 15.295338,14.559061 15.239229,14.521654 C 15.173767,14.858313 15.005437,15.087429 14.734239,15.209 C 14.463042,15.330572 14.19652,15.604108 13.934674,16.029607 C 13.672827,16.455107 13.462415,16.74267 13.303438,16.892297 C 13.247327,17.31312 13.060294,17.467422 12.742339,17.355203 C 12.75169,17.467422 12.742339,17.612373 12.714284,17.790056 L 11.157235,17.790056 C 11.512598,17.163494 11.802499,16.826834 12.026938,16.780076 C 12.120454,16.79878 12.232673,16.663182 12.363596,16.373281 C 12.793772,15.980512 13.130432,15.592418 13.373575,15.209 C 13.616718,14.825583 13.794399,14.24578 13.906619,13.469593 L 12.419707,13.595841 C 12.354246,13.801577 12.307487,14.086802 12.279432,14.451516 C 12.157861,14.386055 12.031614,14.142912 11.900691,13.722088 C 11.751064,13.684682 11.666899,13.572462 11.648196,13.385429 C 11.535977,13.338671 11.187628,13.266196 10.603149,13.168003 C 10.018671,13.069811 9.4926407,13.025391 9.0250587,13.034743 C 9.1279267,13.567786 9.2962564,13.94419 9.5300477,14.163954 C 9.763839,14.383717 9.8783967,14.687646 9.8737207,15.075739 C 9.8690447,15.463832 10.030361,15.89167 10.357668,16.359252 C 10.507295,16.593043 10.551715,16.78709 10.490929,16.941392 C 10.069651,17.122016 10.140653,17.425482 9.8667067,17.804082 L 8.3657677,17.804082 C 8.6089104,17.411313 8.8988114,17.018545 9.2354707,16.625776 C 9.207416,16.158193 9.132603,15.779451 9.0110317,15.48955 C 8.6650204,15.367978 8.431229,15.064049 8.3096577,14.577764 C 8.0384597,14.222401 7.818696,14.002638 7.6503667,13.918473 C 7.55685,13.927824 7.3441,14.077451 7.0121167,14.367352 C 6.6801334,14.657253 6.364515,14.998589 6.0652617,15.391358 C 5.719251,15.587742 5.5322184,15.718665 5.5041637,15.784127 C 5.195559,16.139489 5.0412567,16.59772 5.0412567,17.158819 C 4.94774,17.39261 4.765383,17.458072 4.4941857,17.355203 C 4.4380757,17.486126 4.32118,17.631077 4.1434987,17.790056 L 2.8249167,17.790056 C 3.0306527,17.406638 3.4234217,17.004517 4.0032237,16.583692 C 4.0032237,16.39666 4.157526,16.174559 4.4661307,15.917388 C 4.7747354,15.660217 4.968782,15.379668 5.0482707,15.075739 C 5.1277594,14.771811 5.237641,14.547371 5.3779157,14.40242 C 5.5181904,14.25747 5.637424,14.077451 5.7356167,13.862363 C 5.8338094,13.647275 5.8595264,13.460242 5.8127677,13.301264 C 5.148801,12.534429 4.7420044,11.718498 4.5923777,10.85347 C 4.4427517,9.9884429 4.3679387,8.5973859 4.3679387,6.6802979 L 4.0733617,6.8345999 C 4.1575264,7.1338532 4.16454,7.3746582 4.0944027,7.5570149 C 4.0242654,7.7393722 3.954128,7.7557376 3.8839907,7.6061109 C 3.8138534,7.4564849 3.797488,7.2180179 3.8348947,6.8907099 L 3.6104547,7.0029299 L 3.6104547,8.1251269 L 3.4701807,8.1251269 C 3.1522247,7.9006876 2.9932467,7.6294899 2.9932467,7.3115339 C 2.9932467,7.1993146 2.9231094,7.1361912 2.7828347,7.1221639 C 2.6425594,7.1081359 2.5350154,7.0122812 2.4602027,6.8345999 C 2.2918727,6.7036772 2.1936804,6.5517129 2.1656257,6.3787069 C 2.1375704,6.2057016 2.2684934,5.9765862 2.5583947,5.6913609 C 2.848296,5.4061356 3.037667,5.1980616 3.1265077,5.0671389 C 3.2153484,4.9362162 3.428098,4.7678866 3.7647567,4.5621499 C 3.998548,4.4218752 4.185581,4.3143312 4.3258557,4.2395179 L 4.3258557,3.4820349 L 4.0312787,3.6363369 C 4.115444,3.9075349 4.122458,4.1343122 4.0523207,4.3166689 C 3.9821834,4.4990262 3.912046,4.5153916 3.8419087,4.3657649 C 3.7717707,4.2161389 3.755405,3.9963752 3.7928117,3.7064739 L 3.5683727,3.8046669 L 3.5683727,4.7024249 L 3.4280977,4.7024249 C 3.1756037,4.5527982 3.0306534,4.3891442 2.9932467,4.2114629 C 2.95584,4.0337816 2.869337,3.9379272 2.7337377,3.9238999 C 2.598139,3.9098726 2.492933,3.8186939 2.4181197,3.6503639 C 2.2404384,3.5100892 2.1399084,3.3557872 2.1165297,3.1874579 C 2.0931504,3.0191286 2.226411,2.7900132 2.5163117,2.5001119 C 2.806213,2.2102106 2.995584,2.0021362 3.0844247,1.8758889 C 3.1732654,1.7496422 3.559021,1.4994859 4.2416917,1.1254199 C 4.0640097,0.99449656 3.809177,0.98046886 3.4771937,1.0833369 C 3.1452104,1.1862056 2.6939934,1.1113926 2.1235427,0.85889786 C 1.1509714,1.1113926 0.44959808,0.91500786 0.019422746,0.26974386 C -0.036687254,-0.029508808 0.028774079,0.00086486192 0.21580675,0.00086486192 C 0.32802675,0.00086486192 0.42154342,0.047623192 0.49635675,0.14113986 C 0.57117008,0.23465586 0.71144475,0.29544153 0.91718075,0.32349686 C 1.1229167,0.35155153 1.349694,0.30011753 1.5975127,0.16919486 C 1.8453314,0.038271532 2.277845,0.052298862 2.8950537,0.21127686 C 3.184955,0.061650862 3.535642,0.047623532 3.9471147,0.16919486 C 4.60173,-0.0084864681 5.0926914,0.080354192 5.4199987,0.43571686 C 5.747306,0.080354192 6.2429434,-0.0084864681 6.9069107,0.16919486 C 7.1687567,0.085029532 7.4072237,0.061650192 7.6223117,0.099056862 C 7.799993,0.061650192 8.0524877,0.085029532 8.3797957,0.16919486 C 9.0437617,-0.0084864681 9.5393987,0.080354192 9.8667067,0.43571686 C 10.194014,0.080354192 10.684976,-0.0084864681 11.339592,0.16919486 C 11.751064,0.047623532 12.097075,0.061650862 12.377624,0.21127686 C 12.994833,0.052298862 13.429685,0.038271532 13.682179,0.16919486 C 13.934674,0.30011753 14.163789,0.35155153 14.369525,0.32349686 C 14.575262,0.29544153 14.713198,0.23465586 14.783335,0.14113986 C 14.853473,0.047623192 14.949328,0.00086486192 15.070899,0.00086486192 C 15.257932,0.00086486192 15.323393,-0.029508808 15.267283,0.26974386 C 14.837107,0.91500786 14.131058,1.1113926 13.149135,0.85889786 C 12.588036,1.1113926 12.141495,1.1862056 11.809512,1.0833369 C 11.477528,0.98046886 11.222696,0.99449656 11.045015,1.1254199 C 11.727685,1.4994859 12.11344,1.7496422 12.202281,1.8758889 C 12.291122,2.0021362 12.480493,2.2102106 12.770394,2.5001119 C 13.060295,2.7900132 13.191218,3.0191286 13.163163,3.1874579 C 13.135108,3.3557872 13.036915,3.5100892 12.868586,3.6503639 C 12.793773,3.8186939 12.686229,3.9098726 12.545954,3.9238999 C 12.405679,3.9379272 12.316839,4.0384576 12.279432,4.2254909 C 12.242025,4.4125236 12.101751,4.5855289 11.858608,4.7445069 L 11.718333,4.7445069 L 11.718333,3.8046669 L 11.479867,3.7064739 C 11.526625,3.9963752 11.514935,4.2184769 11.444797,4.3727789 C 11.37466,4.5270816 11.304523,4.5130542 11.234385,4.3306969 C 11.164248,4.1483396 11.171262,3.9168862 11.255427,3.6363369 L 10.946823,3.4820349 L 10.960849,4.3236829 C 11.091773,4.3610896 11.288158,4.4592819 11.550004,4.6182599 C 11.886663,4.8239959 12.099413,4.9899876 12.188254,5.1162349 C 12.277095,5.2424822 12.466465,5.4505562 12.756366,5.7404569 C 13.046267,6.0303582 13.17719,6.2594739 13.149135,6.4278039 C 13.12108,6.5961332 13.022888,6.7504352 12.854559,6.8907099 C 12.779746,7.0590399 12.672202,7.1502186 12.531927,7.1642459 C 12.391652,7.1782732 12.321515,7.2273692 12.321515,7.3115339 C 12.321515,7.6294899 12.162537,7.9006876 11.84458,8.1251269 L 11.704306,8.1251269 L 11.704306,7.0450119 L 11.479867,6.9468199 C 11.517273,7.2367212 11.500907,7.4564849 11.43077,7.6061109 C 11.360633,7.7557376 11.290495,7.7393722 11.220358,7.5570149 C 11.150221,7.3746582 11.157234,7.1478809 11.241399,6.8766829 z M 10.525999,4.1413259 L 10.525999,3.1032929 C 10.638218,3.0284796 10.80421,3.0565346 11.023973,3.1874579 C 11.243737,3.3183812 11.5313,3.4563179 11.886663,3.6012679 C 12.242026,3.7462186 12.466465,3.7438809 12.559982,3.5942549 C 12.335542,3.4913862 12.141495,3.4235866 11.977841,3.3908559 C 11.814187,3.3581252 11.73236,3.3090292 11.73236,3.2435679 C 11.73236,3.1687546 11.842242,3.1781062 12.062007,3.2716229 C 12.28177,3.3651396 12.475817,3.4446286 12.644146,3.5100899 C 12.803125,3.3791666 12.887289,3.2622709 12.89664,3.1594029 C 12.905992,3.0565349 12.789097,2.8905432 12.545954,2.6614279 C 12.302811,2.4323126 12.118116,2.2499552 11.991869,2.1143559 C 11.865622,1.9787572 11.482204,1.7426282 10.841616,1.4059689 C 10.201029,1.0693096 9.6633087,1.0272272 9.2284567,1.2797219 C 8.7936054,1.5322166 8.2582237,1.9717439 7.6223117,2.5983039 C 7.0144544,1.9717439 6.4931,1.5322166 6.0582487,1.2797219 C 5.6233974,1.0272272 5.0856777,1.0693096 4.4450897,1.4059689 C 3.8045017,1.7426282 3.421084,1.9787572 3.2948367,2.1143559 C 3.1685894,2.2499552 2.9838944,2.4323126 2.7407517,2.6614279 C 2.497609,2.8905432 2.3807134,3.0565349 2.3900647,3.1594029 C 2.3994167,3.2622709 2.4835817,3.3791666 2.6425597,3.5100899 C 2.810889,3.4446286 3.0049357,3.3651396 3.2246997,3.2716229 C 3.444463,3.1781062 3.5543447,3.1687546 3.5543447,3.2435679 C 3.5543447,3.3090292 3.472518,3.3581252 3.3088647,3.3908559 C 3.1452107,3.4235866 2.951164,3.4913862 2.7267247,3.5942549 C 2.8202407,3.7438809 3.0423424,3.7462186 3.3930297,3.6012679 C 3.7437164,3.4563179 4.0312794,3.3183812 4.2557187,3.1874579 C 4.480158,3.0565346 4.639136,3.0331556 4.7326527,3.1173209 L 4.7326527,4.0992429 C 5.218938,3.9589682 5.6046934,3.9262376 5.8899187,4.0010509 C 6.175144,4.0758642 6.418287,4.1880842 6.6193477,4.3377109 C 6.8204077,4.4873369 7.154729,4.7538586 7.6223117,5.1372759 C 8.1366517,4.7912652 8.494352,4.5434469 8.6954127,4.3938209 C 8.8964734,4.2441942 9.139616,4.1319742 9.4248407,4.0571609 C 9.7100667,3.9823476 10.07712,4.0104026 10.525999,4.1413259 z M 17.090854,13.189044 C 17.100207,12.908495 17.261523,12.557808 17.574802,12.136984 C 17.888083,11.71616 18.054075,11.314039 18.072778,10.930621 C 18.091481,10.547204 17.909124,10.233924 17.525707,9.9907809 L 17.483623,9.8364789 C 17.867041,9.9674019 18.133563,10.12638 18.283189,10.313413 L 18.381382,10.425633 C 18.213052,9.9767539 17.761835,9.6026876 17.027731,9.3034349 C 16.293626,9.0041822 15.374827,8.9036522 14.271333,9.0018449 C 13.167838,9.1000369 11.984855,9.1164022 10.722383,9.0509409 C 9.198064,9.0602922 8.2208167,9.2286219 7.7906407,9.5559299 C 7.3604654,9.8832369 7.1453777,10.420957 7.1453777,11.169089 C 7.1453777,11.917221 7.2833143,12.529754 7.5591877,13.006687 C 7.966245,13.296231 8.8459053,14.773156 8.6883997,12.431561 C 8.791267,12.3661 8.8427007,12.450265 8.8427007,12.684056 C 9.4692614,12.665352 10.47924,12.763544 11.872635,12.978632 L 11.970828,13.062797 L 14.56591,12.684056 L 14.720212,12.684056 C 14.561234,12.375451 14.299388,12.263231 13.934674,12.347396 L 13.752316,12.094901 C 15.771025,12.179181 16.844604,14.780643 17.090854,13.189044 z M 4.7747357,16.808132 C 4.5502957,17.041923 4.4895097,17.170508 4.5923777,17.193887 C 4.6952457,17.217266 4.7747347,17.184536 4.8308447,17.095695 C 4.8869547,17.006854 4.8682517,16.911 4.7747357,16.808132 z"
     id="path2500"
     sodipodi:nodetypes="cccccscccssscccscsccsccccsccscscccccccssscccsccccccccccscccssscccscsccsccccsccscscccssscccsccccccccssssccscccccsscsscssscssssscssssscssscsscssscscccsssssscscsscssscssccccccccssccccscscccccscsssccccccsscccccccsssscsccssccccsscsssscccssccccsscssscsccsssscccccccccssssccscssscssccccsscccsssscssccccsscccsscssscssssscssssscssscssccsscssccssccccsscsscccccccccccssc" />
</svg>
