<?xml version="1.0" encoding="UTF-8" standalone="no"?>
<svg
   xmlns:dc="http://purl.org/dc/elements/1.1/"
   xmlns:cc="http://creativecommons.org/ns#"
   xmlns:rdf="http://www.w3.org/1999/02/22-rdf-syntax-ns#"
   xmlns:svg="http://www.w3.org/2000/svg"
   xmlns="http://www.w3.org/2000/svg"
   xmlns:sodipodi="http://sodipodi.sourceforge.net/DTD/sodipodi-0.dtd"
   xmlns:inkscape="http://www.inkscape.org/namespaces/inkscape"
   width="25.592978"
   height="17.96875"
   id="svg2255"
   sodipodi:version="0.32"
   inkscape:version="0.46"
   sodipodi:docname="E227.svg"
   inkscape:output_extension="org.inkscape.output.svg.inkscape"
   sodipodi:docbase="C:\Program Files\JSesh\fontsST"
   sodipodi:modified="true"
   version="1.0">
  <metadata
     id="metadata2262">
    <rdf:RDF>
      <cc:Work
         rdf:about="">
        <dc:format>image/svg+xml</dc:format>
        <dc:type
           rdf:resource="http://purl.org/dc/dcmitype/StillImage" />
      </cc:Work>
    </rdf:RDF>
  </metadata>
  <defs
     id="defs2260">
    <inkscape:perspective
       sodipodi:type="inkscape:persp3d"
       inkscape:vp_x="0 : 8.984375 : 1"
       inkscape:vp_y="0 : 1000 : 0"
       inkscape:vp_z="25.592978 : 8.984375 : 1"
       inkscape:persp3d-origin="12.796489 : 5.9895833 : 1"
       id="perspective2446" />
  </defs>
  <sodipodi:namedview
     inkscape:window-height="573"
     inkscape:window-width="748"
     inkscape:pageshadow="2"
     inkscape:pageopacity="0.0"
     guidetolerance="10.0"
     gridtolerance="10.0"
     objecttolerance="10.0"
     borderopacity="1.0"
     bordercolor="#666666"
     pagecolor="#ffffff"
     id="base"
     showguides="true"
     inkscape:guide-bbox="true"
     inkscape:zoom="20.98087"
     inkscape:cx="12.796489"
     inkscape:cy="8.984375"
     inkscape:window-x="22"
     inkscape:window-y="29"
     inkscape:current-layer="svg2255"
     showgrid="false" />
  <path
     style="fill:#000000;stroke:none"
     d="M 4.4054769,0 L 4.0304769,0.03125 L 4.0304769,1.15625 C 4.0304769,1.5892206 3.9447076,1.8479193 3.7804769,1.9375 C 3.2429963,1.9375 2.8290776,1.9803852 2.5304769,2.0625 C 2.2318763,2.1446153 1.9759569,2.2821245 1.8117269,2.46875 C 1.6474963,2.6553753 0.9327828,2.8105946 0.3579769,2.9375 C -0.2168291,3.0644053 -0.4489636,3.2448 -0.3295231,3.46875 C -0.2847331,3.6927006 -0.1635429,3.8805601 0.0454769,4 C 0.0604069,4.4180406 0.3708455,4.5746501 0.9829769,4.5 C 1.7145483,4.44028 2.1612636,4.2002643 2.3467984,4.393676 C 2.6080738,4.666044 3.3718382,4.5657201 3.5743009,4.959412 C 3.694569,5.1932751 3.7902063,5.5012341 3.9992269,6.03125 C 4.2082469,6.561266 4.4506263,7.7573563 4.7492269,9.59375 C 4.8089469,10.086441 4.7129323,10.818263 4.4367269,11.78125 C 4.1605216,12.744237 3.9698822,13.28681 3.8429769,13.40625 C 3.7160716,13.52569 3.624227,13.682299 3.6242269,13.90625 C 3.6242269,14.1302 3.1571789,15.233056 2.1867269,17.21875 C 1.6641763,17.21875 1.405477,17.356259 1.4054769,17.625 C 1.4054769,17.848951 1.5089565,17.96875 1.7179769,17.96875 L 2.8429769,17.96875 L 2.9992269,17.75 L 3.2492269,17.21875 C 4.0255889,15.442077 4.4586069,14.47673 4.5929769,14.3125 C 4.7273469,14.148269 4.8457569,13.908671 4.9054769,13.625 C 4.9651976,13.34133 5.0952416,12.936266 5.3117269,12.40625 C 5.5240062,11.886532 5.8456873,11.29799 6.2804769,10.65625 C 6.3189976,10.641581 6.4677724,10.967069 6.6867269,11.6875 C 6.9181422,12.448931 7.0066916,12.9323 6.9992269,13.15625 C 6.9917616,13.380201 7.0584316,13.56806 7.1554769,13.6875 C 7.2525223,13.80694 7.2967969,14.979246 7.3117269,17.21875 L 7.2492269,17.21875 C 6.7266756,17.21875 6.4679769,17.356259 6.4679769,17.625 C 6.4679769,17.848951 6.5714562,17.96875 6.7804769,17.96875 L 7.6867269,17.96875 L 8.7804769,17.96875 L 8.9679769,17.75 L 9.1867269,17.21875 C 9.9630889,15.442077 10.427357,14.47673 10.561727,14.3125 C 10.696097,14.148269 10.783257,13.90867 10.842977,13.625 C 10.902698,13.34133 11.063992,12.936266 11.280477,12.40625 C 11.457214,11.973549 11.730752,11.486034 12.061727,10.96875 C 12.091535,11.495917 12.174876,12.003244 12.280477,12.53125 C 11.683276,15.114144 11.199908,16.681269 10.811727,17.21875 L 10.749227,17.21875 C 10.226676,17.21875 9.9679769,17.356259 9.9679769,17.625 C 9.9679769,17.848951 10.022497,17.96875 10.186727,17.96875 L 11.311727,17.96875 L 11.499227,17.75 L 12.842977,14.09375 C 12.93504,13.917629 12.990053,13.781804 13.061727,13.625 C 13.073705,13.644749 13.078755,13.669996 13.092977,13.6875 C 13.190022,13.80694 13.265547,14.979246 13.280477,17.21875 L 13.217977,17.21875 C 12.695426,17.21875 12.436727,17.356259 12.436727,17.625 C 12.436727,17.848951 12.540206,17.96875 12.749227,17.96875 L 13.842977,17.96875 C 14.037067,17.96875 14.174577,17.711441 14.249227,17.21875 L 14.030477,11.5 C 14.114956,11.234494 14.078604,10.939283 13.967977,10.625 C 14.02467,10.546259 14.089671,10.477397 14.155477,10.40625 C 14.25725,10.411476 14.363405,10.408489 14.467977,10.40625 C 15.174447,12.019036 15.817755,13.175844 16.374227,13.875 C 16.598177,14.188531 16.787428,15.118458 16.936727,16.65625 C 16.84407,16.91363 16.802838,17.060758 16.749227,17.21875 L 16.686727,17.21875 C 16.164176,17.21875 15.905477,17.356259 15.905477,17.625 C 15.905477,17.848951 15.991247,17.96875 16.155477,17.96875 L 17.280477,17.96875 L 17.342977,17.96875 C 17.716228,17.789591 17.923187,17.581242 17.967977,17.3125 L 17.874227,16.65625 L 18.155477,15.90625 C 18.565718,17.100847 18.910582,17.75 19.217977,17.75 L 19.280477,17.75 C 19.474567,17.75 19.579437,17.389211 19.624227,16.6875 C 19.597904,16.046979 19.360105,15.066963 18.936727,13.84375 C 19.195263,13.315235 19.354405,12.86322 19.405477,12.53125 C 19.405477,11.486148 19.715916,10.710051 20.342977,10.1875 C 21.089478,11.919383 21.760706,13.143429 22.342977,13.875 C 22.566928,14.188531 22.756177,15.118458 22.905477,16.65625 C 22.771107,17.029501 22.676482,17.304519 22.624227,17.46875 C 22.571972,17.632981 22.613467,17.78959 22.717977,17.96875 L 23.311727,17.96875 C 23.684978,17.789591 23.891937,17.581242 23.936727,17.3125 L 23.405477,13.96875 C 23.077016,13.072949 22.886377,12.073572 22.811727,10.96875 C 23.797108,15.477618 24.589526,17.75 25.186727,17.75 L 25.249227,17.75 C 25.443317,17.75 25.548187,17.389211 25.592977,16.6875 C 25.548187,15.597608 24.912379,13.651985 23.717977,10.875 C 22.717666,8.0084353 21.251241,6.5937498 19.280477,6.59375 C 17.608314,6.8923507 16.419689,7.03125 15.717977,7.03125 C 15.016266,7.03125 14.319863,6.8242906 13.655477,6.40625 C 12.99109,5.9882087 12.445737,5.4027515 11.967977,4.65625 C 11.658357,4.2059859 11.349141,3.7548669 11.124227,3.40625 C 11.303388,3.0628593 11.405477,2.7701301 11.405477,2.53125 C 11.390546,1.8444687 11.046077,1.000312 10.374227,0 L 9.9679769,0.03125 L 9.9679769,1.15625 C 9.9679769,1.5892207 9.9134575,1.8479193 9.7492269,1.9375 C 9.2117462,1.9375 8.7665775,1.9803853 8.4679769,2.0625 C 8.1693762,2.1446153 7.9447069,2.2821246 7.7804769,2.46875 C 7.6162462,2.6553753 7.0115329,2.8105947 6.4367269,2.9375 C 5.8619209,3.0644053 5.6297862,3.2448 5.7492269,3.46875 C 5.7940169,3.6927007 5.9152069,3.8805601 6.1242269,4 C 6.1391569,4.4180407 6.4495956,4.5746501 7.0617269,4.5 C 7.7932982,4.44028 8.1710506,4.1888208 8.3651694,4.3736158 C 8.7022752,4.6945298 9.3885335,4.6223598 9.5378343,4.8388451 C 9.6871343,5.0553304 9.7589563,5.5012341 9.9679769,6.03125 C 10.046794,6.231109 10.126422,6.6143871 10.217977,7 C 10.074403,7.008262 9.8659496,7.03125 9.7492269,7.03125 C 9.0475156,7.03125 8.3823629,6.8242905 7.7179769,6.40625 C 7.0535903,5.9882086 6.4769869,5.4027515 5.9992269,4.65625 C 5.6896069,4.2059859 5.3803912,3.7548668 5.1554769,3.40625 C 5.3346376,3.0628593 5.4367269,2.7701301 5.4367269,2.53125 C 5.4217963,1.8444686 5.0773276,1.000312 4.4054769,0 z M 4.3429769,0.65625 L 4.4054769,0.65625 C 4.8085869,1.4326113 5.0155463,2.0520994 5.0304769,2.5 L 5.0304769,2.625 C 5.0304769,2.83402 4.9092876,3.1104293 4.6554769,3.46875 C 4.9092876,3.7972106 5.2388263,4.3309288 5.6867269,5.0625 L 5.7492269,5.0625 C 6.2246713,5.8254728 6.8065308,6.4373244 7.5304769,6.84375 C 8.3814883,7.3215113 9.1044555,7.5624998 9.6867269,7.5625 C 9.8289467,7.5625 10.127093,7.521168 10.342977,7.5 C 10.448888,8.0087287 10.565659,8.6452406 10.686727,9.375 C 9.4859495,9.9842395 8.5259575,10.113853 7.8117269,9.75 L 7.4992269,8.40625 L 7.2804769,8.65625 C 7.3551276,9.2982413 7.4940263,10.071559 7.7179769,10.9375 L 7.9054769,17.21875 C 7.9032374,17.231067 7.9078634,17.238166 7.9054769,17.25 C 7.8231789,17.259441 7.7496364,17.261838 7.6867269,17.28125 C 7.6946302,17.256974 7.7136008,17.247194 7.7179769,17.21875 C 7.6881163,14.979246 7.6186669,13.747735 7.4992269,13.53125 C 7.3797869,13.314765 7.3131169,13.132981 7.3429769,12.96875 C 7.3728369,12.80452 7.2782124,12.338862 7.0617269,11.5625 C 6.8452416,10.786139 6.5259476,10.141475 6.0929769,9.65625 C 5.6600056,9.171024 5.2460875,8.3874622 4.8429769,7.3125 C 4.6040969,6.3719086 4.2736033,5.3024133 3.9689323,4.7612488 C 3.5938677,4.0950494 2.9775245,4.3236952 2.5342984,4.018676 C 2.1784215,3.7737687 1.6996184,4.0340301 0.9829769,4.09375 C 0.6993063,4.15347 0.5114467,4.1609348 0.4517269,4.09375 C 0.3920069,4.0265646 0.4097167,3.9673601 0.5142269,3.9375 C 0.6187376,3.90764 0.7310725,3.8824646 0.8579769,3.875 C 0.9848823,3.8675346 1.0855814,3.8395799 1.1079769,3.75 C 1.1303716,3.66042 1.0296725,3.6352453 0.8579769,3.6875 C 0.6862816,3.7397553 0.4881768,3.7663201 0.2642269,3.78125 C 0.1597163,3.6468793 0.1242965,3.49305 0.1392269,3.34375 C 0.8260076,3.16459 1.6237115,3.0494752 1.7804769,2.9375 C 1.9372423,2.8255246 2.1693762,2.66423 2.4679769,2.5 C 2.7665776,2.3357693 3.1818864,2.3166699 3.7492269,2.40625 C 4.1374076,2.34653 4.3429769,1.9176813 4.3429769,1.15625 C 4.7610183,2.156562 4.7283783,2.7583401 4.2804769,2.9375 L 4.4367269,3.1875 C 4.7203976,2.9187593 4.8429768,2.6954801 4.8429769,2.53125 C 4.8280469,2.0684186 4.6714376,1.4475413 4.3429769,0.65625 z M 10.311727,0.65625 L 10.374227,0.65625 C 10.777337,1.4326113 10.984296,2.0520994 10.999227,2.5 L 10.999227,2.625 C 10.999227,2.83402 10.878037,3.1104293 10.624227,3.46875 C 10.878038,3.7972107 11.207576,4.3309288 11.655477,5.0625 L 11.717977,5.0625 C 12.193421,5.8254728 12.775281,6.4373244 13.499227,6.84375 C 14.350238,7.3215113 15.073205,7.5624998 15.655477,7.5625 C 16.252678,7.5625 17.478114,7.3732505 19.374227,7 C 19.822128,7 20.354456,7.1552199 20.936727,7.46875 C 21.653368,7.9763713 22.119027,8.6326691 22.342977,9.46875 C 22.462418,11.469373 22.599927,12.742379 22.749227,13.25 C 23.092618,13.832271 23.352707,15.124377 23.561727,17.125 C 23.561727,17.393741 23.354768,17.534031 22.936727,17.59375 C 23.205467,16.966689 23.289847,16.277751 23.155477,15.53125 C 23.021107,14.784749 22.883597,14.196511 22.749227,13.71875 C 21.972866,12.808018 21.282538,11.447853 20.655477,9.65625 C 20.222506,8.939608 19.568989,8.5788198 18.717977,8.59375 C 18.180496,8.59375 17.612748,8.7993189 17.030477,9.1875 C 15.641984,9.9787907 14.571768,10.15311 13.780477,9.75 L 13.467977,8.40625 L 13.217977,8.65625 C 13.292628,9.2982413 13.462776,10.071559 13.686727,10.9375 L 13.874227,17.21875 C 13.814507,17.547211 13.694708,17.702431 13.530477,17.6875 L 12.811727,17.6875 L 12.811727,17.5 L 13.342977,17.5 C 13.537067,17.5 13.656866,17.41284 13.686727,17.21875 C 13.656866,14.979246 13.587417,13.747736 13.467977,13.53125 C 13.348537,13.314765 13.281867,13.13298 13.311727,12.96875 C 13.341587,12.80452 13.246962,12.338862 13.030477,11.5625 C 12.813992,10.786139 12.494697,10.141476 12.061727,9.65625 C 11.628756,9.171024 11.214838,8.3874622 10.811727,7.3125 C 10.572847,6.3719087 10.338164,5.5435174 10.145983,4.952967 C 9.8266887,3.9718111 9.3994554,4.5282496 8.5526694,3.9986158 C 8.1864066,3.7695317 7.7471183,4.0340301 7.0304769,4.09375 C 6.7468062,4.15347 6.5901969,4.1609349 6.5304769,4.09375 C 6.4707569,4.0265647 6.4884669,3.9673601 6.5929769,3.9375 C 6.6974876,3.90764 6.8098223,3.8824647 6.9367269,3.875 C 7.0636322,3.8675347 7.1330816,3.8395799 7.1554769,3.75 C 7.1778716,3.66042 7.1084223,3.6352453 6.9367269,3.6875 C 6.7650316,3.7397553 6.5669269,3.7663201 6.3429769,3.78125 C 6.2384662,3.6468793 6.2030462,3.49305 6.2179769,3.34375 C 6.9047576,3.16459 7.5612115,3.0494753 7.7179769,2.9375 C 7.8747422,2.8255247 8.1068763,2.66423 8.4054769,2.5 C 8.7040776,2.3357693 9.1506363,2.3166699 9.7179769,2.40625 C 10.106158,2.34653 10.311727,1.9176814 10.311727,1.15625 C 10.729768,2.156562 10.697128,2.7583401 10.249227,2.9375 L 10.374227,3.1875 C 10.657898,2.9187593 10.811727,2.6954801 10.811727,2.53125 C 10.796797,2.0684187 10.640188,1.4475413 10.311727,0.65625 z M 2.6242269,2.71875 C 2.3704169,2.6814253 2.2492268,2.7583401 2.2492269,2.9375 C 2.2790869,3.0868006 2.4002769,3.1385399 2.6242269,3.09375 C 2.8481776,3.0489593 3.0197169,2.97951 3.1242269,2.875 C 3.0495769,2.81528 2.8780376,2.7560752 2.6242269,2.71875 z M 8.5929769,2.71875 C 8.3391669,2.6814253 8.2179768,2.7583401 8.2179769,2.9375 C 8.2478369,3.0868007 8.3690269,3.1385399 8.5929769,3.09375 C 8.8169276,3.0489593 8.9884668,2.97951 9.0929769,2.875 C 9.0183269,2.81528 8.8467876,2.7560752 8.5929769,2.71875 z M 18.499227,9.125 C 19.096428,9.06528 19.613827,9.220499 20.061727,9.59375 C 19.434666,10.399972 19.073877,11.468798 18.999227,12.8125 C 18.566256,13.753092 18.013439,15.218126 17.311727,17.21875 C 17.192287,17.547211 17.038458,17.702431 16.874227,17.6875 L 16.280477,17.6875 L 16.280477,17.5 L 16.780477,17.5 C 16.899918,17.455209 17.003397,17.36805 17.092977,17.21875 C 18.048499,14.605995 18.564507,13.037481 18.624227,12.5 C 18.400276,11.439968 18.364857,10.319402 18.499227,9.125 z M 5.2179769,9.15625 C 5.4867176,9.55936 5.7468069,9.9392488 6.0304769,10.3125 C 6.0603376,10.252779 6.0426276,10.295664 5.9679769,10.4375 C 5.8933269,10.579335 5.7483523,10.795149 5.5617269,11.09375 C 5.3751016,11.39235 5.1919269,11.856619 4.9679769,12.46875 C 4.7440263,13.080881 4.6065169,13.484555 4.5617269,13.65625 C 4.5169369,13.827945 4.4400223,13.966845 4.3429769,14.09375 C 4.2459316,14.220655 3.9457376,14.798648 3.4679769,15.84375 C 3.2141663,16.440951 3.022137,16.905219 2.8429769,17.21875 C 2.7235363,17.547211 2.5860269,17.702431 2.4367269,17.6875 L 1.8117269,17.6875 L 1.8117269,17.5 L 2.3117269,17.5 C 2.4311669,17.455209 2.5509668,17.36805 2.6554769,17.21875 C 3.2228183,15.919837 3.5761417,15.084535 3.7179769,14.71875 C 3.8598123,14.352965 3.9381169,14.094266 3.9679769,13.9375 C 3.9978369,13.780735 4.0584316,13.63437 4.1554769,13.5 C 4.2525216,13.365629 4.4832663,12.848231 4.8117269,11.9375 C 5.1401876,11.026768 5.2776969,10.096841 5.2179769,9.15625 z M 18.092977,9.1875 C 18.003397,10.027314 18.02065,10.847686 18.124227,11.6875 C 18.010955,11.413159 17.906559,11.16814 17.780477,10.875 C 17.619713,10.414302 17.435057,10.011657 17.249227,9.625 C 17.527787,9.4889787 17.800946,9.3594434 18.092977,9.1875 z M 11.436727,9.53125 C 11.620755,9.795784 11.808446,10.061472 11.999227,10.3125 C 12.029088,10.252779 12.011378,10.295664 11.936727,10.4375 C 11.862077,10.579335 11.717102,10.79515 11.530477,11.09375 C 11.343852,11.39235 11.160677,11.856618 10.936727,12.46875 C 10.712776,13.080881 10.575267,13.484554 10.530477,13.65625 C 10.485687,13.827945 10.408772,13.966844 10.311727,14.09375 C 10.214682,14.220655 9.9144876,14.798648 9.4367269,15.84375 C 9.1829162,16.440951 8.9596369,16.905219 8.7804769,17.21875 C 8.6610362,17.547211 8.5547769,17.702431 8.4054769,17.6875 L 8.1867269,17.6875 C 8.2068458,17.640877 8.2009883,17.559536 8.2179769,17.5 L 8.2804769,17.5 C 8.3999169,17.455209 8.519717,17.36805 8.6242269,17.21875 C 9.1915682,15.919837 9.5448916,15.084535 9.6867269,14.71875 C 9.8285622,14.352965 9.9068669,14.094266 9.9367269,13.9375 C 9.9665869,13.780735 10.027181,13.63437 10.124227,13.5 C 10.221272,13.365629 10.452016,12.848232 10.780477,11.9375 C 11.048203,11.195168 11.176899,10.449671 11.186727,9.6875 C 11.272337,9.6467649 11.34983,9.575417 11.436727,9.53125 z M 10.749227,9.875 C 10.750406,10.349643 10.633753,10.98537 10.405477,11.78125 C 10.129272,12.744237 9.9073823,13.28681 9.7804769,13.40625 C 9.6535716,13.52569 9.5929769,13.682299 9.5929769,13.90625 C 9.5929769,14.113674 9.1442348,15.156254 8.3117269,16.875 L 8.0617269,11.5 C 8.1662369,11.171539 8.1308169,10.809361 7.9367269,10.40625 C 8.7716944,10.500184 9.7172611,10.306395 10.749227,9.875 z M 16.936727,9.9375 L 16.999227,9.9375 C 17.466687,11.073427 17.834379,12.051852 18.155477,12.9375 C 18.089712,13.214523 17.999852,13.467566 17.936727,13.71875 L 16.936727,9.9375 z M 22.905477,9.9375 L 22.936727,9.9375 C 24.429729,13.565496 25.186727,15.925038 25.186727,17 L 25.186727,17.125 L 25.124227,17.15625 C 25.004786,17.15625 24.814147,16.761431 24.530477,16 L 22.905477,9.9375 z M 16.405477,9.96875 C 16.515426,11.627119 16.646474,12.794385 16.780477,13.25 C 17.030872,13.674582 17.257778,14.477519 17.436727,15.65625 C 17.369221,15.870019 17.312809,16.01213 17.249227,16.1875 C 17.244578,15.978273 17.226248,15.750809 17.186727,15.53125 C 17.052357,14.784749 16.914848,14.196511 16.780477,13.71875 C 16.116316,12.939637 15.522874,11.798774 14.967977,10.375 C 15.422916,10.316498 15.901761,10.157322 16.405477,9.96875 z M 12.249227,10.65625 C 12.276324,10.645931 12.351593,10.865309 12.467977,11.21875 C 12.35561,10.883393 12.275444,10.646266 12.249227,10.65625 z M 16.842977,10.96875 C 17.159512,12.41714 17.472748,13.548128 17.749227,14.53125 C 17.70649,14.689198 17.665633,14.82383 17.624227,14.96875 L 17.467977,13.96875 C 17.139516,13.072949 16.917626,12.073572 16.842977,10.96875 z M 12.499227,11.28125 C 12.543357,11.41724 12.568343,11.503623 12.624227,11.6875 C 12.821285,12.335886 12.912884,12.741349 12.936727,13 C 12.513273,13.943947 12.007288,15.324759 11.342977,17.21875 C 11.223537,17.547211 11.069707,17.702431 10.905477,17.6875 L 10.311727,17.6875 L 10.311727,17.5 L 10.842977,17.5 C 10.962418,17.455209 11.065898,17.36805 11.155477,17.21875 C 12.110999,14.605995 12.595756,13.037481 12.655477,12.5 C 12.572569,12.107567 12.532021,11.692747 12.499227,11.28125 z M 18.655477,14.5 C 19.014777,15.641034 19.217977,16.472845 19.217977,17 L 19.217977,17.125 L 19.155477,17.15625 C 19.036036,17.15625 18.845397,16.761431 18.561727,16 L 18.374227,15.28125 L 18.655477,14.5 z M 6.8742269,17.5 L 7.3742269,17.5 C 7.385644,17.5 7.3946281,17.500672 7.4054769,17.5 C 7.3905666,17.537727 7.3742269,17.579605 7.3742269,17.625 C 7.3742269,17.654641 7.4018154,17.661782 7.4054769,17.6875 L 6.8742269,17.6875 L 6.8742269,17.5 z M 7.7804769,17.5 L 7.8117269,17.5 C 7.799363,17.524961 7.7944738,17.574154 7.7804769,17.59375 L 7.7804769,17.5 z"
     id="path2264"
     sodipodi:nodetypes="ccccssscccssscssscsccccssscsssccscccccsssccccsccccssccscccccscccccsccccccccccccccsccccccccccssccsccccssscccssscssccsccccccccsscccccccsscsssscsscsssssccssccccsccccccccssccccccsccscccccccccccsssscsscsssssccssccccsccsscccsscccccscccccccccssssscccccccssssccccccccssssscccccccsssscccsssccccccccccccccccccccsccccscccccccscsccccccccccccccccssccccccc" />
</svg>
