<?xml version="1.0" encoding="UTF-8" standalone="no"?>
<svg
   xmlns:dc="http://purl.org/dc/elements/1.1/"
   xmlns:cc="http://creativecommons.org/ns#"
   xmlns:rdf="http://www.w3.org/1999/02/22-rdf-syntax-ns#"
   xmlns:svg="http://www.w3.org/2000/svg"
   xmlns="http://www.w3.org/2000/svg"
   xmlns:sodipodi="http://sodipodi.sourceforge.net/DTD/sodipodi-0.dtd"
   xmlns:inkscape="http://www.inkscape.org/namespaces/inkscape"
   width="59.471756"
   height="17.983217"
   id="svg2214"
   sodipodi:version="0.32"
   inkscape:version="0.46"
   sodipodi:docname="E228.svg"
   inkscape:output_extension="org.inkscape.output.svg.inkscape"
   sodipodi:docbase="C:\PROGRA~1\JSesh"
   version="1.0"
   sodipodi:modified="true">
  <metadata
     id="metadata2221">
    <rdf:RDF>
      <cc:Work
         rdf:about="">
        <dc:format>image/svg+xml</dc:format>
        <dc:type
           rdf:resource="http://purl.org/dc/dcmitype/StillImage" />
      </cc:Work>
    </rdf:RDF>
  </metadata>
  <defs
     id="defs2219">
    <inkscape:perspective
       sodipodi:type="inkscape:persp3d"
       inkscape:vp_x="0 : 8.9916086 : 1"
       inkscape:vp_y="0 : 1000 : 0"
       inkscape:vp_z="59.471756 : 8.9916086 : 1"
       inkscape:persp3d-origin="29.735878 : 5.9944057 : 1"
       id="perspective2592" />
  </defs>
  <sodipodi:namedview
     inkscape:window-height="712"
     inkscape:window-width="1024"
     inkscape:pageshadow="2"
     inkscape:pageopacity="0.0"
     guidetolerance="10.0"
     gridtolerance="10.0"
     objecttolerance="10.0"
     borderopacity="1.0"
     bordercolor="#666666"
     pagecolor="#ffffff"
     id="base"
     inkscape:zoom="22.32903"
     inkscape:cx="34.906551"
     inkscape:cy="8.9916087"
     inkscape:window-x="0"
     inkscape:window-y="22"
     inkscape:current-layer="svg2214"
     showguides="true"
     inkscape:guide-bbox="true"
     showgrid="false" />
  <g
     id="g2166">
    <path
       id="path2271"
       d="M 45.625,0 C 45.152379,0 44.760202,0.17704266 44.46875,0.5 C 44.177301,0.82295737 44.031249,1.1686494 44.03125,1.5625 C 44.03125,1.9090887 44.12371,2.1859521 44.28125,2.375 C 44.391529,2.5798027 44.529703,2.7334719 44.71875,2.84375 C 44.529702,2.84375 44.345557,2.9207134 44.125,3.0625 C 43.904443,3.204286 43.796744,3.280734 43.8125,3.34375 C 43.780992,3.296488 43.727143,3.3122421 43.65625,3.34375 C 43.585356,3.375258 43.546746,3.436726 43.5625,3.53125 C 43.263174,3.625774 43.125001,3.9331125 43.125,4.46875 C 43.298294,4.3899794 43.390236,4.3592462 43.4375,4.375 C 43.642302,4.375 43.934662,4.7745408 44.28125,5.59375 C 44.218235,5.656766 44.126035,5.7954555 44,5.96875 C 43.873968,6.142044 43.812498,6.4183912 43.8125,6.84375 L 43.8125,7.875 L 44.1875,7.875 C 44.1875,8.4263907 44.156768,9.5483071 44.09375,11.28125 L 41.96875,8.375 C 41.779701,7.7133314 41.395141,7.3750002 40.84375,7.375 L 40.0625,5.46875 C 40.472104,5.295456 40.918133,5.1874998 41.375,5.1875 C 41.375,4.8724194 41.298294,4.5958145 41.125,4.34375 C 40.731149,4.6273227 40.331091,4.8427182 39.96875,4.96875 C 40.252323,3.8502147 40.168,3.1661913 39.6875,2.90625 C 39.207003,2.6463087 38.830061,2.7458715 38.59375,3.25 C 38.35744,3.7541287 38.69603,4.3690655 39.5625,5.09375 C 39.152896,5.2670447 38.737858,5.3440078 38.3125,5.3125 C 38.3125,5.643334 38.404703,5.9509314 38.59375,6.21875 C 38.893077,5.90367 39.27738,5.6885325 39.75,5.5625 L 40.25,7.375 C 39.69861,7.375 39.606406,7.5134314 39.96875,7.78125 C 39.921488,8.190854 40.029186,8.3904958 40.28125,8.40625 C 40.297004,8.5007747 40.297005,8.6237102 40.28125,8.78125 C 40.249741,9.001806 40.434145,9.5093027 40.84375,10.28125 C 41.253354,11.053197 41.607182,11.990969 41.875,13.09375 L 40.71875,13.71875 C 40.104344,13.624226 39.481788,13.485794 38.84375,13.3125 C 38.205713,13.139205 37.106652,12.647721 35.53125,11.78125 C 36.886096,10.867517 37.6547,9.2993132 37.84375,7.09375 L 34.375,5.46875 C 33.965395,5.1379154 33.842459,4.3845475 34,3.21875 C 32.975988,2.9981934 32.145916,3.4978132 31.5,4.71875 C 30.854085,5.9396867 30.900056,6.9003148 31.65625,7.625 C 32.522721,6.8530534 33.230117,6.5612099 33.75,6.71875 L 35.59375,7.9375 C 35.609504,9.2135754 34.28743,10.505174 31.625,11.78125 C 34.618265,13.971059 37.646973,15.416069 40.6875,16.125 L 31.0625,16.125 L 31.0625,17.96875 L 59.46875,17.96875 L 59.46875,16.125 L 49.90625,16.125 C 51.619845,15.717001 53.338468,15.054738 55.0625,14.15625 C 55.598137,15.117246 56.1897,15.678591 56.875,15.8125 C 57.5603,15.946409 58.106406,15.815596 58.46875,15.4375 C 58.642045,14.964879 58.503357,14.434268 58.09375,13.875 C 57.786546,13.455549 57.37716,13.203278 56.875,13.125 C 57.542639,12.711238 58.205802,12.268257 58.875,11.78125 C 56.212571,10.505174 54.890499,9.2135752 54.90625,7.9375 L 56.78125,6.71875 C 57.301133,6.56121 57.977279,6.8530535 58.84375,7.625 C 59.599944,6.9003147 59.677167,5.9396865 59.03125,4.71875 C 58.385334,3.4978134 57.555262,2.9981935 56.53125,3.21875 C 56.688791,4.3845474 56.534604,5.1379156 56.125,5.46875 L 52.65625,7.09375 C 52.861053,9.2993134 53.629658,10.867517 54.96875,11.78125 C 54.606407,11.986053 54.329804,12.093234 54.125,12.15625 L 49.71875,9.6875 L 49.71875,5.78125 L 48.96875,5.78125 L 48.96875,9.3125 L 48,8.8125 L 47.65625,9.34375 L 48.96875,10.0625 L 48.96875,13.96875 L 47.3125,14.25 L 46.84375,13.125 C 47.158831,11.770154 47.3125,10.033301 47.3125,7.875 L 48.1875,7.875 C 48.1875,6.063288 47.933753,4.7564513 47.4375,3.96875 C 46.941248,3.1810487 46.580061,2.842976 46.34375,2.9375 C 46.910894,2.638174 47.202737,2.1769074 47.25,1.5625 C 47.234245,1.1213874 47.072957,0.73682598 46.75,0.4375 C 46.427043,0.13817334 46.05036,0 45.625,0 z M 45.625,0.4375 C 45.908573,0.4375 46.169941,0.56857072 46.40625,0.78125 C 46.642561,0.9939294 46.749998,1.24742 46.75,1.5625 C 46.75,1.8303187 46.642302,2.0840668 46.4375,2.3125 C 46.232697,2.5409334 45.971589,2.6562499 45.625,2.65625 C 45.294165,2.65625 45.017303,2.5175606 44.8125,2.28125 C 44.607698,2.04494 44.499999,1.7990688 44.5,1.53125 C 44.507206,1.2599731 44.615177,1.0013417 44.8125,0.78125 C 45.017303,0.5528167 45.294166,0.43750001 45.625,0.4375 z M 4.09375,1.25 L 3.78125,1.3125 L 3.78125,2.34375 C 3.78125,2.7479153 3.6845975,3.010129 3.53125,3.09375 C 3.0293869,3.1076867 2.6538128,3.1178164 2.375,3.1875 C 2.0961868,3.2571835 1.8720969,3.3882907 1.71875,3.5625 C 1.5654021,3.7367094 1.0311852,3.9127874 0.4875,4.03125 C -0.05618518,4.1497124 -0.2942164,4.2596991 -0.16875,4.46875 C -0.1408687,4.6778014 -0.0201688,4.8572562 0.175,4.96875 C 0.2028813,5.3729156 0.49237425,5.5384337 1.05,5.46875 C 1.7330918,5.3990666 2.0752665,5.2168634 2.2920726,5.3579134 C 2.5588376,5.5314657 3.1105931,5.6416667 3.3608366,5.8279162 C 3.5577787,5.9744949 3.5618012,6.4184643 3.75,6.90625 C 3.9381987,7.3940359 4.1759963,8.4732801 4.46875,10.1875 C 4.5105719,10.661349 4.3829019,11.382329 4.125,12.28125 C 3.8670981,13.180169 3.6913343,13.673133 3.59375,13.8125 C 3.4961651,13.951867 3.3963769,14.341596 3.25,14.96875 C 3.1036232,15.595903 2.7138755,16.420116 2.15625,17.4375 C 1.5707427,17.367817 1.2812498,17.43664 1.28125,17.6875 C 1.28125,17.896552 1.3985802,18.031251 1.59375,18.03125 L 2.625,18.03125 L 2.8125,17.84375 L 3,17.34375 C 3.4600418,16.256685 3.8048313,15.504885 4,15.09375 C 4.1951692,14.682616 4.3432843,14.33089 4.46875,14.03125 C 4.5942156,13.731609 4.7735806,13.331536 4.96875,12.84375 C 5.1601275,12.365441 5.4557515,11.817662 5.875,11.21875 C 5.9109679,11.205411 6.0455551,11.508405 6.25,12.1875 C 6.4660798,12.905242 6.5451906,13.360417 6.53125,13.5625 C 6.5173092,13.764583 6.6312719,14.126654 6.8125,14.65625 C 6.9937288,15.185845 6.9970969,16.058191 6.84375,17.3125 L 6.78125,17.3125 C 6.2933276,17.312501 6.03125,17.43664 6.03125,17.6875 C 6.0312501,17.896552 6.1485812,18.031251 6.34375,18.03125 L 7.34375,18.03125 C 7.4822145,18.03125 7.5745711,17.915165 7.59375,17.71875 C 7.5937502,17.927801 7.679831,18.0625 7.875,18.0625 L 8.9375,18.0625 L 9.09375,17.875 L 9.3125,17.375 C 9.7725405,16.287935 10.086082,15.536135 10.28125,15.125 C 10.476419,14.713866 10.655784,14.36214 10.78125,14.0625 C 10.906715,13.762859 11.05483,13.331536 11.25,12.84375 C 11.292036,12.738689 11.353748,12.640826 11.40625,12.53125 C 11.427675,12.676113 11.441702,12.823887 11.46875,12.96875 C 10.925064,15.393743 10.438897,16.824713 10.0625,17.3125 L 10.03125,17.3125 C 9.5293866,17.312501 9.28125,17.43664 9.28125,17.6875 C 9.2812501,17.896552 9.363962,18.031251 9.53125,18.03125 L 10.5625,18.03125 L 10.75,17.84375 L 12,14.4375 C 12.320636,13.838219 12.537988,13.345041 12.59375,12.96875 C 12.59375,12.795861 12.606783,12.626493 12.625,12.46875 C 12.778993,13.005178 12.855437,13.424346 12.84375,13.59375 C 12.82981,13.795833 12.881272,14.126654 13.0625,14.65625 C 13.243728,15.185845 13.278347,16.089441 13.125,17.34375 L 13.0625,17.34375 C 12.574577,17.343751 12.3125,17.467888 12.3125,17.71875 C 12.3125,17.927801 12.429831,18.0625 12.625,18.0625 L 13.65625,18.0625 C 13.802626,18.0625 13.893181,17.907004 13.90625,17.6875 C 13.910607,17.614332 13.885456,17.535057 13.875,17.4375 L 13.84375,12 C 13.875766,11.877309 13.878164,11.756745 13.875,11.625 C 14.396776,12.744191 14.863503,13.680227 15.28125,14.21875 C 15.41014,14.399145 15.548887,14.877503 15.65625,15.5 C 15.658115,15.510812 15.654385,15.520351 15.65625,15.53125 C 15.469342,16.061838 15.178667,16.712417 14.78125,17.4375 C 14.195743,17.367817 13.90625,17.436638 13.90625,17.6875 C 13.906251,17.896552 13.992331,18.03125 14.1875,18.03125 L 15.25,18.03125 L 15.40625,17.84375 L 15.625,17.34375 C 15.605931,17.3992 15.575838,17.52059 15.5625,17.5625 C 15.513707,17.715804 15.558666,17.89526 15.65625,18.0625 L 15.8125,18.0625 L 16.875,18.0625 L 17.03125,17.875 L 17.34375,17.0625 C 17.574548,17.540961 17.749489,17.8125 17.9375,17.8125 L 18,17.8125 C 18.181229,17.8125 18.301927,17.48484 18.34375,16.84375 C 18.327175,16.435039 18.18735,15.872613 18,15.21875 L 18.3125,14.4375 C 18.633137,13.838219 18.787988,13.345041 18.84375,12.96875 C 18.843749,12.756423 18.877442,12.5627 18.90625,12.375 C 19.068696,12.942457 19.168396,13.386441 19.15625,13.5625 C 19.142309,13.764583 19.225022,14.095405 19.40625,14.625 C 19.587478,15.154596 19.590847,16.058192 19.4375,17.3125 L 19.375,17.3125 C 18.887079,17.312501 18.65625,17.436638 18.65625,17.6875 C 18.65625,17.896552 18.742332,18.03125 18.9375,18.03125 L 19.96875,18.03125 C 20.163919,18.03125 20.229323,17.827729 20.1875,17.4375 L 20.125,11.96875 C 20.145909,11.888614 20.182273,11.833621 20.1875,11.75 C 20.692279,12.823243 21.156152,13.694921 21.5625,14.21875 C 21.771609,14.511422 21.971652,15.394328 22.125,16.84375 C 21.999532,17.178233 21.923794,17.440445 21.875,17.59375 C 21.826209,17.747054 21.808665,17.895258 21.90625,18.0625 L 22.5,18.0625 C 22.523276,18.05133 22.540591,18.042731 22.5625,18.03125 L 23.1875,18.03125 L 23.3125,17.84375 L 23.625,17.0625 C 23.862391,17.564206 24.057477,17.8125 24.25,17.8125 L 24.28125,17.8125 C 24.462478,17.8125 24.583177,17.48484 24.625,16.84375 C 24.608546,16.438 24.46718,15.898062 24.28125,15.25 C 24.278395,15.240049 24.284126,15.228747 24.28125,15.21875 L 24.59375,14.40625 C 24.914384,13.80697 25.100487,13.313791 25.15625,12.9375 C 25.15625,11.961928 25.445742,11.237787 26.03125,10.75 C 26.728282,12.366663 27.376505,13.5046 27.90625,14.1875 C 28.11536,14.480172 28.284153,15.363079 28.4375,16.8125 C 28.312033,17.146984 28.205042,17.409195 28.15625,17.5625 C 28.107459,17.715805 28.152415,17.864009 28.25,18.03125 L 28.8125,18.03125 C 29.161018,17.86401 29.333178,17.674425 29.375,17.4375 C 29.040424,16.350435 28.892308,15.302009 28.90625,14.3125 C 28.599554,13.462358 28.427395,12.500069 28.34375,11.46875 C 29.277773,15.677647 30.004873,17.8125 30.5625,17.8125 L 30.625,17.8125 C 30.80623,17.8125 30.895677,17.484841 30.9375,16.84375 C 30.895677,15.812433 30.316692,13.998484 29.1875,11.40625 C 28.267417,8.730395 26.871416,7.4062498 25.03125,7.40625 C 23.469896,7.6989219 22.37396,7.8437499 21.71875,7.84375 C 21.06354,7.8437498 20.432859,7.6402285 19.8125,7.25 C 19.192142,6.8597704 18.664851,6.3045241 18.21875,5.59375 C 17.934345,5.1773612 17.644823,4.7691229 17.4375,4.4375 C 17.590847,4.1308916 17.65625,3.8306744 17.65625,3.59375 C 17.642311,2.9526596 17.314829,2.1837622 16.6875,1.25 L 16.375,1.3125 L 16.375,2.3125 C 16.375001,2.7166655 16.309598,2.978879 16.15625,3.0625 C 15.654389,3.0764368 15.247563,3.1178163 14.96875,3.1875 C 14.689937,3.2571835 14.465847,3.3882906 14.3125,3.5625 C 14.159153,3.7367094 13.624935,3.8815376 13.08125,4 C 12.537565,4.1184624 12.299534,4.2596992 12.425,4.46875 C 12.452881,4.6778015 12.604831,4.8572563 12.8,4.96875 C 12.827881,5.3729157 13.117374,5.5384336 13.675,5.46875 C 14.358092,5.3990666 14.417499,5.2084681 14.636197,5.3465662 C 15.02353,5.5911495 15.795278,5.6416666 15.91195,5.7982831 C 16.058616,5.9951606 16.155552,6.3872142 16.34375,6.875 C 16.412576,7.0533857 16.510942,7.4075912 16.59375,7.75 C 16.12292,7.8079248 15.697741,7.875 15.40625,7.875 C 14.75104,7.8749998 14.120359,7.6402286 13.5,7.25 C 13.001778,6.9365996 12.573325,6.520151 12.1875,6 C 11.76928,5.4007196 11.403813,4.9147257 11.125,4.46875 C 11.278347,4.1621415 11.34375,3.8619242 11.34375,3.625 C 11.32981,2.9839096 11.033578,2.2150124 10.40625,1.28125 L 10.03125,1.34375 L 10.03125,2.34375 C 10.03125,2.7479154 9.965847,3.010129 9.8125,3.09375 C 9.3106374,3.1076867 8.935062,3.1178163 8.65625,3.1875 C 8.3774372,3.2571835 8.153347,3.4195407 8,3.59375 C 7.8466518,3.7679594 7.2811841,3.9127876 6.7375,4.03125 C 6.1938137,4.1497124 6.0182833,4.2909493 6.14375,4.5 C 6.1716312,4.7090516 6.2610815,4.8572561 6.45625,4.96875 C 6.4841312,5.3729157 6.7736232,5.5696837 7.33125,5.5 C 8.0143413,5.4303162 8.145013,5.3688927 8.3918975,5.4460166 C 9.0292971,5.6451329 9.5282436,5.6729166 9.6676506,5.875 C 9.8070569,6.0770827 9.8800011,6.4411977 10.0682,6.9289834 C 10.134885,7.1018199 10.168884,7.4242709 10.25,7.75 C 9.8099345,7.8025025 9.371262,7.84375 9.09375,7.84375 C 8.4385387,7.8437498 7.8391086,7.6402287 7.21875,7.25 C 6.5983909,6.8597703 6.0398505,6.3045238 5.59375,5.59375 C 5.3093462,5.1773612 5.0198225,4.7691229 4.8125,4.4375 C 4.9658468,4.1308916 5.0625001,3.8306743 5.0625,3.59375 C 5.0485592,2.9526596 4.7210787,2.1837622 4.09375,1.25 z M 16.65625,1.84375 L 16.6875,1.84375 C 17.063896,2.554524 17.26731,3.1756478 17.28125,3.59375 L 17.28125,3.6875 C 17.281249,3.8965508 17.1918,4.1482048 16.96875,4.46875 L 17.96875,6 C 18.410566,6.7028242 18.986972,7.2435003 19.65625,7.625 C 20.450867,8.0779436 21.112565,8.3125 21.65625,8.3125 C 22.199934,8.3125004 23.354538,8.1436045 25.125,7.78125 C 25.557162,7.7812499 26.050065,7.9260787 26.59375,8.21875 C 27.262901,8.6926002 27.711081,9.3306061 27.90625,10.125 C 28.017774,11.978587 28.127902,13.137214 28.28125,13.625 C 27.556336,13.053594 26.880698,11.901719 26.28125,10.1875 C 25.890912,9.5603461 25.308558,9.2533763 24.5,9.28125 C 24.012079,9.2812495 23.481187,9.464081 22.9375,9.8125 C 21.641021,10.551147 20.645106,10.737355 19.90625,10.375 L 19.625,9.09375 L 19.40625,9.3125 C 19.475953,9.9117797 19.603391,10.660419 19.8125,11.46875 C 19.770679,13.3084 19.732924,14.042887 19.65625,13.6875 C 19.579576,13.332114 19.42089,12.762929 19.21875,12.03125 C 19.01661,11.29957 18.71678,10.702944 18.3125,10.25 C 17.908223,9.7970553 17.501398,9.065946 17.125,8.0625 C 16.901949,7.184485 16.507894,5.9787895 16.156182,5.5140812 C 15.89828,5.1733212 15.123101,5.2316346 14.732763,4.9800828 C 14.39947,4.7652934 14.344151,5.0067532 13.675,5.0625 C 13.410128,5.1321843 13.230762,5.1321843 13.175,5.0625 C 13.119237,4.9928165 13.139915,4.9341236 13.2375,4.90625 C 13.335084,4.8783768 13.431505,4.8819681 13.55,4.875 C 13.668496,4.8680312 13.72356,4.8336203 13.7375,4.75 C 13.751442,4.6663795 13.703347,4.6387217 13.55,4.6875 C 13.396653,4.7362787 13.196609,4.7673134 12.9875,4.78125 C 12.889914,4.6558186 12.84856,4.5143672 12.8625,4.375 C 13.50377,4.2077595 14.134873,4.1045257 14.28125,4 C 14.427627,3.8954743 14.596186,3.7470539 14.875,3.59375 C 15.153813,3.4404455 15.595256,3.4163795 16.125,3.5 C 16.487457,3.444253 16.656251,3.0232741 16.65625,2.3125 C 17.046589,3.2462621 17.01197,3.8500726 16.59375,4.03125 L 16.75,4.21875 C 17.000932,3.9678882 17.093751,3.7470541 17.09375,3.59375 C 17.093749,3.1617105 16.962944,2.5823975 16.65625,1.84375 z M 4.09375,1.875 C 4.4701468,2.585774 4.6735593,3.1756477 4.6875,3.59375 L 4.6875,3.6875 C 4.6874998,3.8965508 4.5667999,4.1482047 4.34375,4.46875 C 4.580741,4.7753584 4.9255307,5.3031628 5.34375,6 L 5.375,6 C 5.8168163,6.7028241 6.3619709,7.2435001 7.03125,7.625 C 7.8258674,8.0779436 8.518815,8.3124998 9.0625,8.3125 C 9.3343419,8.3125004 9.7652128,8.2780887 10.34375,8.1875 C 10.429462,8.5775878 10.527411,9.1173651 10.625,9.65625 C 10.530494,9.7070135 10.471254,9.7508163 10.375,9.8125 C 9.0785201,10.551147 8.0513552,10.737355 7.3125,10.375 L 7.03125,9.125 L 6.8125,9.34375 C 6.8822038,9.9430307 7.0096406,10.660418 7.21875,11.46875 C 7.1769283,13.3084 7.107923,14.042887 7.03125,13.6875 C 6.9545762,13.332113 6.8271393,12.762929 6.625,12.03125 C 6.4228605,11.299569 6.1230292,10.702944 5.71875,10.25 C 5.3144714,9.7970553 4.9076474,9.0971956 4.53125,8.09375 C 4.3082001,7.2157349 3.9234635,5.8892714 3.495824,5.4933184 C 3.2220882,5.2398654 2.7432401,5.2584371 2.3529022,4.9829134 C 2.0289633,4.7542581 1.7191513,5.0067529 1.05,5.0625 C 0.78512728,5.1321842 0.6057627,5.1321839 0.55,5.0625 C 0.49423751,4.9928165 0.5461654,4.9341235 0.64375,4.90625 C 0.74133431,4.8783768 0.8690049,4.913218 0.9875,4.90625 C 1.1059953,4.899281 1.1298093,4.8336204 1.14375,4.75 C 1.1576906,4.6663795 1.1095967,4.6387218 0.95625,4.6875 C 0.8029022,4.7362787 0.6341093,4.7673133 0.425,4.78125 C 0.32741467,4.6558186 0.2548096,4.5456173 0.26875,4.40625 C 0.9100196,4.2390095 1.5098734,4.1045258 1.65625,4 C 1.8026268,3.8954742 2.0336871,3.7470539 2.3125,3.59375 C 2.5913131,3.4404454 2.9702556,3.4163796 3.5,3.5 C 3.8624567,3.444253 4.0625001,3.0545239 4.0625,2.34375 C 4.4528379,3.277512 4.4182193,3.8500727 4,4.03125 L 4.15625,4.21875 C 4.4071818,3.9678882 4.53125,3.747054 4.53125,3.59375 C 4.5312501,3.1693542 4.389688,2.5952504 4.09375,1.875 z M 10.34375,1.875 L 10.40625,1.875 C 10.782647,2.5857742 10.954809,3.1756476 10.96875,3.59375 L 10.96875,3.71875 C 10.96875,3.9278008 10.84805,4.1794548 10.625,4.5 C 10.861991,4.8066086 11.20678,5.3031628 11.625,6 L 11.6875,6 C 12.131437,6.7130977 12.667778,7.2709349 13.34375,7.65625 C 14.138368,8.1091936 14.800064,8.3437502 15.34375,8.34375 C 15.625971,8.3437503 16.074719,8.2851378 16.6875,8.1875 C 16.772491,8.5838701 16.871008,9.1415629 16.96875,9.6875 C 16.865253,9.7420295 16.7306,9.7760763 16.625,9.84375 C 15.328522,10.582398 14.301354,10.768604 13.5625,10.40625 L 13.3125,9.125 L 13.0625,9.34375 C 13.132203,9.9430307 13.290891,10.660418 13.5,11.46875 C 13.458178,13.3084 13.389173,14.042887 13.3125,13.6875 C 13.235826,13.332113 13.108389,12.794179 12.90625,12.0625 C 12.70411,11.330819 12.404279,10.734194 12,10.28125 C 11.595721,9.8283053 11.220147,9.0971956 10.84375,8.09375 C 10.6207,7.2157349 10.29864,5.6584979 9.7527484,5.4543975 C 9.449378,5.3409719 8.9697355,5.2856181 8.5793975,5.1022666 C 8.2205093,4.9336879 8.0004012,5.0380033 7.33125,5.09375 C 7.0663774,5.1634343 6.9182626,5.1634345 6.8625,5.09375 C 6.8067375,5.0240664 6.8274157,4.9653733 6.925,4.9375 C 7.0225844,4.9096267 7.1190038,4.9132181 7.2375,4.90625 C 7.3559952,4.8992811 7.4423095,4.8336203 7.45625,4.75 C 7.4701904,4.6663795 7.390847,4.6699717 7.2375,4.71875 C 7.0841522,4.7675287 6.9153595,4.7985631 6.70625,4.8125 C 6.6086649,4.6870687 6.5673093,4.5456172 6.58125,4.40625 C 7.2225197,4.2390095 7.7911224,4.1045257 7.9375,4 C 8.083876,3.8954743 8.314936,3.7470541 8.59375,3.59375 C 8.8725624,3.4404454 9.282756,3.4163796 9.8125,3.5 C 10.174957,3.444253 10.34375,3.0545239 10.34375,2.34375 C 10.734087,3.277512 10.730718,3.8500726 10.3125,4.03125 L 10.40625,4.25 C 10.657181,3.9991382 10.8125,3.7783038 10.8125,3.625 C 10.8125,3.1929604 10.650443,2.6136476 10.34375,1.875 z M 45.09375,3.1875 C 45.487601,3.1875 45.694861,3.4491255 45.75,3.9375 C 45.805139,4.4258747 45.413217,4.74871 44.5625,4.90625 C 44.704286,4.98502 44.819602,5.0845827 44.90625,5.25 C 44.992897,5.4154174 45.046747,5.6079553 45.0625,5.78125 C 44.936469,5.8127574 44.821151,5.7741469 44.71875,5.6875 C 44.616349,5.6008527 44.485534,5.377838 44.34375,5.03125 C 44.123193,4.4168427 43.846332,4.1092462 43.53125,4.125 L 43.375,4.125 C 43.406509,3.998968 43.467977,3.98373 43.5625,4.0625 C 43.609763,3.98373 43.732954,3.9682341 43.90625,4.03125 C 43.764464,3.87371 43.6875,3.7200408 43.6875,3.5625 C 43.76627,3.578254 43.812242,3.54752 43.84375,3.46875 C 43.875258,3.484504 43.990574,3.4461514 44.1875,3.34375 C 44.384425,3.2413494 44.6999,3.1874999 45.09375,3.1875 z M 39.34375,3.21875 C 39.394951,3.2285963 39.440922,3.2477727 39.5,3.28125 C 39.736311,3.4151594 39.797778,3.9305327 39.6875,4.78125 C 39.104601,4.1510894 38.858472,3.712938 38.96875,3.46875 C 39.051459,3.2856095 39.190148,3.1892111 39.34375,3.21875 z M 45.96875,3.3125 C 46.331093,3.328254 46.723016,3.6973195 47.15625,4.40625 C 47.589485,5.1151814 47.812502,6.1294001 47.8125,7.5 L 47.3125,7.5 C 47.296747,6.4129727 46.835738,5.8749999 45.90625,5.875 L 45.90625,7.53125 L 45.59375,7.5 L 45.59375,5.21875 C 46.176648,4.7933914 46.315339,4.1632173 45.96875,3.3125 z M 44.40625,3.34375 C 44.500774,3.406766 44.531767,3.4837301 44.46875,3.5625 C 44.421488,3.48373 44.344523,3.4375001 44.25,3.4375 C 44.092459,3.4375 44.03125,3.545198 44.03125,3.75 C 44.125775,3.8287707 44.164128,3.9136113 44.15625,3.96875 C 44.148373,4.0238894 44.140755,4.0622419 44.125,4.09375 C 44.188016,4.156766 44.249484,4.3256735 44.3125,4.625 C 44.359763,4.625 44.375001,4.6252578 44.375,4.59375 C 44.375,4.2786694 44.390496,4.0632739 44.40625,3.96875 C 44.500774,3.7639474 44.615833,3.6562499 44.78125,3.65625 C 44.946667,3.65625 45.085101,3.7334714 45.1875,3.84375 C 45.289902,3.954028 45.320637,4.0769639 45.28125,4.21875 C 45.241865,4.360536 45.003353,4.4984512 44.59375,4.6875 L 44.59375,4.71875 C 45.223911,4.56121 45.516011,4.2846047 45.46875,3.875 C 45.421488,3.4653954 45.067918,3.280734 44.40625,3.34375 z M 44.25,3.53125 C 44.360278,3.53125 44.406249,3.5617259 44.40625,3.65625 C 44.40625,3.7507747 44.360277,3.827996 44.25,3.84375 C 44.202738,3.84375 44.156768,3.7972627 44.09375,3.75 C 44.103445,3.6530523 44.147975,3.6310376 44.1875,3.59375 C 44.171746,3.609504 44.15625,3.624742 44.15625,3.65625 C 44.15625,3.719266 44.186983,3.75 44.25,3.75 C 44.32877,3.75 44.375001,3.7192659 44.375,3.65625 C 44.375,3.593234 44.328769,3.5625001 44.25,3.5625 C 44.258361,3.5610435 44.240911,3.53125 44.25,3.53125 z M 2.3125,3.78125 C 2.1797135,3.7995216 2.0937501,3.895367 2.09375,4.03125 C 2.135572,4.156681 2.2596407,4.1668102 2.46875,4.125 C 2.6778599,4.083189 2.8399158,4.0523704 2.9375,3.96875 C 2.8677968,3.8990664 2.7127114,3.8160921 2.46875,3.78125 C 2.4077597,3.7725395 2.3567622,3.7751595 2.3125,3.78125 z M 14.90625,3.78125 C 14.765257,3.7995216 14.6875,3.8953669 14.6875,4.03125 C 14.729322,4.1566811 14.853391,4.1668101 15.0625,4.125 C 15.271611,4.083189 15.433666,4.0211204 15.53125,3.9375 C 15.461548,3.8678165 15.306461,3.816092 15.0625,3.78125 C 15.00151,3.7725395 14.953247,3.7751595 14.90625,3.78125 z M 8.75,3.8125 C 8.5060388,3.7776584 8.375,3.8500726 8.375,4.03125 C 8.4168216,4.1566811 8.540891,4.1980602 8.75,4.15625 C 8.9591098,4.1144391 9.121165,4.0523703 9.21875,3.96875 C 9.1490463,3.8990664 8.993961,3.8473421 8.75,3.8125 z M 33.3125,3.9375 C 33.154959,4.8669874 33.447061,5.5123992 34.1875,5.90625 L 37.15625,7.46875 C 36.951448,9.7058214 35.952466,11.151089 34.125,11.78125 C 37.701163,13.876535 41.421515,14.90625 45.28125,14.90625 C 49.140986,14.90625 52.845841,13.876535 56.40625,11.78125 C 54.578783,11.151089 53.548552,9.7058212 53.34375,7.46875 L 56.34375,5.90625 C 57.068434,5.5123994 57.376288,4.8669875 57.21875,3.9375 C 57.628355,3.9375 58.0124,4.2829339 58.40625,5.03125 C 58.800101,5.779566 58.892562,6.3254155 58.65625,6.65625 C 57.994581,6.0103347 57.271689,5.8873996 56.53125,6.28125 L 54.09375,7.625 C 54.235536,9.2476647 55.373208,10.646961 57.5,11.78125 C 53.529987,14.506696 49.456066,15.84375 45.28125,15.84375 C 41.09068,15.84375 37.001264,14.506696 33.03125,11.78125 C 35.158043,10.646961 36.295712,9.2476648 36.4375,7.625 L 33.96875,6.28125 C 33.228311,5.8873994 32.536669,6.0103348 31.875,6.65625 C 31.638689,6.3254154 31.6999,5.7795659 32.09375,5.03125 C 32.487601,4.282934 32.902894,3.9375001 33.3125,3.9375 z M 44.5,6.03125 C 44.572862,6.0174653 44.655476,6.061984 44.75,6.125 C 44.482182,6.314048 44.359247,6.7595608 44.375,7.5 L 44.1875,7.5 C 44.171746,6.8068234 44.2101,6.399922 44.3125,6.21875 C 44.363701,6.1281647 44.427138,6.0450347 44.5,6.03125 z M 45.15625,6.28125 C 45.201051,6.2721422 45.230049,6.2714038 45.28125,6.28125 L 45.28125,7.875 L 46.25,7.875 L 46.25,6.28125 C 46.628097,6.20248 46.8125,6.7407108 46.8125,7.875 C 46.686467,10.663462 46.48657,12.400315 46.21875,13.125 L 46.625,14.3125 C 44.608485,14.422779 42.917604,14.299843 41.53125,13.9375 L 42.5625,13.4375 C 42.200158,11.925115 41.800359,10.787185 41.375,10.0625 C 40.949641,9.3378154 40.85744,8.9075411 41.09375,8.75 C 41.33006,8.59246 41.575673,8.7616258 41.875,9.25 L 44.03125,12.09375 L 44.53125,12.09375 L 44.6875,7.875 C 44.6875,6.8824969 44.842646,6.3450047 45.15625,6.28125 z M 40.34375,7.75 L 40.84375,7.75 C 41.190338,7.75 41.405473,7.9191659 41.5,8.25 L 40.84375,8.25 C 40.497161,8.25 40.343749,8.0808348 40.34375,7.75 z M 24.28125,9.75 C 24.838875,9.6803158 25.331781,9.8251443 25.75,10.1875 C 25.303899,10.82859 24.893707,11.825506 24.53125,13.09375 C 24.252436,11.992747 24.169724,10.851001 24.28125,9.75 z M 4.875,9.8125 C 5.1136614,10.170392 5.3550893,10.523679 5.59375,10.84375 C 5.5782586,10.848018 5.594215,10.857927 5.5625,10.875 C 5.4718855,10.923778 5.2408255,11.299569 4.90625,12.03125 C 4.5716745,12.762929 4.3201692,13.359555 4.125,13.8125 C 3.9298313,14.265444 3.991865,13.989724 4.3125,12.9375 C 4.6331351,11.885275 4.8192375,10.829883 4.875,9.8125 z M 17.46875,9.8125 C 17.714979,10.181741 17.972522,10.514768 18.21875,10.84375 C 18.203257,10.848018 18.187966,10.857928 18.15625,10.875 C 18.065636,10.923779 17.834575,11.29957 17.5,12.03125 C 17.165426,12.762929 16.91392,13.359555 16.71875,13.8125 C 16.523581,14.265445 16.585615,13.958474 16.90625,12.90625 C 17.226884,11.854026 17.412988,10.829883 17.46875,9.8125 z M 23.90625,9.8125 C 23.808665,10.857755 23.867332,11.892244 24.0625,12.9375 C 23.987363,13.272634 23.915692,13.545615 23.84375,13.84375 C 23.58056,13.122861 23.273858,12.353139 22.875,11.4375 C 22.759989,11.103017 22.629387,10.792672 22.5,10.5 C 22.953922,10.318549 23.411737,10.106327 23.90625,9.8125 z M 11.15625,9.84375 C 11.402601,10.213173 11.6599,10.545875 11.90625,10.875 C 11.890758,10.879268 11.875465,10.889177 11.84375,10.90625 C 11.753135,10.955028 11.553325,11.330819 11.21875,12.0625 C 10.884174,12.794179 10.601419,13.390805 10.40625,13.84375 C 10.211081,14.296694 10.273115,13.989724 10.59375,12.9375 C 10.914384,11.885275 11.100488,10.861133 11.15625,9.84375 z M 10.75,10.15625 C 10.753902,10.178969 10.746082,10.164559 10.75,10.1875 C 10.791821,10.661349 10.664152,11.382329 10.40625,12.28125 C 10.148348,13.180169 10.003834,13.673133 9.90625,13.8125 C 9.8086636,13.951867 9.677626,14.372846 9.53125,15 C 9.3848723,15.627153 9.026375,16.420116 8.46875,17.4375 C 7.9051987,17.37043 7.6146826,17.45623 7.59375,17.6875 C 7.5981065,17.614332 7.6042057,17.535057 7.59375,17.4375 L 7.5625,12 C 7.6461439,11.679455 7.5735376,11.345043 7.40625,10.96875 C 8.3685576,11.07698 9.5178318,10.795116 10.75,10.15625 z M 17.03125,10.15625 C 17.035119,10.178794 17.027364,10.164739 17.03125,10.1875 C 17.06729,10.595847 16.9984,11.185758 16.8125,11.90625 C 16.738764,11.73385 16.673709,11.621057 16.59375,11.4375 C 16.482939,11.115225 16.374159,10.78346 16.25,10.5 C 16.507671,10.39412 16.760613,10.297821 17.03125,10.15625 z M 49.71875,10.4375 L 53.46875,12.5625 C 52.476245,13.003613 51.246631,13.402895 49.75,13.8125 L 49.71875,13.8125 L 49.71875,10.4375 z M 28.4375,10.53125 L 28.46875,10.53125 C 29.862815,13.917878 30.5625,16.121554 30.5625,17.125 L 30.5625,17.21875 L 30.5,17.25 C 30.374533,17.250001 30.171122,16.898274 29.90625,16.1875 L 28.4375,10.53125 z M 15.84375,10.625 C 15.861535,10.618866 15.8884,10.631316 15.90625,10.625 C 16.18203,11.297352 16.4051,11.923178 16.625,12.5 C 16.567783,12.695848 16.547352,12.878796 16.5,13.03125 L 15.84375,10.625 z M 22.15625,10.625 C 22.164754,10.622081 22.178684,10.627612 22.1875,10.625 C 22.837855,12.209289 23.314992,13.506616 23.65625,14.5625 C 23.567458,14.905853 23.489805,15.186035 23.40625,15.46875 L 22.15625,10.625 z M 15.34375,10.8125 C 15.443554,12.202913 15.557756,13.243544 15.6875,13.65625 C 15.079761,13.177204 14.488307,12.251023 13.96875,10.96875 C 14.398175,10.987279 14.863125,10.936121 15.34375,10.8125 z M 21.625,10.8125 C 21.725174,12.215441 21.838322,13.241365 21.96875,13.65625 C 21.358544,13.175259 20.802557,12.259503 20.28125,10.96875 C 20.703434,10.987292 21.153317,10.930995 21.625,10.8125 z M 13.71875,10.96875 C 13.793653,11.137236 13.825307,11.309573 13.84375,11.46875 C 13.820878,11.311492 13.793076,11.135937 13.71875,10.96875 z M 18.5,11.1875 C 18.527202,11.193524 18.618986,11.383244 18.71875,11.6875 C 18.552771,12.107803 18.401389,12.56404 18.25,13.09375 C 18.155157,12.719222 18.050281,12.34261 18,11.96875 C 17.998732,11.959319 18.001225,11.946948 18,11.9375 C 18.143675,11.6933 18.310995,11.455691 18.5,11.1875 z M 12.1875,11.21875 C 12.213289,11.209186 12.265651,11.445333 12.375,11.78125 C 12.223748,12.175288 12.076458,12.607535 11.9375,13.09375 C 11.839014,12.704837 11.799782,12.295163 11.75,11.90625 C 11.883192,11.68523 12.015287,11.463113 12.1875,11.21875 z M 15.71875,11.46875 C 15.903008,12.299053 16.08039,13.020993 16.25,13.6875 C 16.232562,13.724853 16.20179,13.792089 16.1875,13.8125 C 16.179883,13.823378 16.164314,13.861287 16.15625,13.875 C 15.93371,13.144695 15.788074,12.323506 15.71875,11.46875 z M 22,11.5 C 22.45011,13.528293 22.856068,15.043337 23.21875,16.09375 C 23.21609,16.101908 23.221486,16.116949 23.21875,16.125 C 23.119944,16.415678 22.996923,16.64725 22.90625,16.84375 C 22.686325,15.972928 22.582393,15.149831 22.59375,14.34375 C 22.287055,13.493608 22.083644,12.53132 22,11.5 z M 17.6875,12.5625 C 17.707869,12.697893 17.72472,12.833357 17.75,12.96875 C 17.679469,13.283339 17.598711,13.530323 17.53125,13.8125 C 17.466774,13.636227 17.447553,13.469121 17.375,13.28125 C 17.43591,13.127302 17.458062,13.02667 17.53125,12.84375 C 17.567118,12.754103 17.643627,12.656384 17.6875,12.5625 z M 56.09375,13.625 C 56.834189,13.751032 57.326189,13.989285 57.5625,14.34375 C 57.79881,14.698215 57.891015,14.936467 57.84375,15.0625 C 57.76498,15.141271 57.519109,15.156767 57.09375,15.09375 C 56.668392,15.030734 56.222362,14.615697 55.78125,13.84375 L 56.09375,13.625 z M 17.125,13.875 C 17.202934,14.09229 17.342124,14.333989 17.40625,14.53125 C 17.314122,14.893418 17.211269,15.171934 17.125,15.46875 L 16.875,14.53125 C 16.94352,14.368452 17.005287,14.167885 17.0625,14.03125 C 17.078184,13.993795 17.108613,13.915004 17.125,13.875 z M 16.625,15.03125 C 16.730749,15.392113 16.838286,15.805966 16.9375,16.09375 C 16.839882,16.388832 16.714887,16.641607 16.625,16.84375 C 16.513906,16.407416 16.459351,15.982601 16.40625,15.5625 C 16.458778,15.448178 16.553257,15.179053 16.59375,15.09375 C 16.604559,15.07098 16.614486,15.053755 16.625,15.03125 z M 17.78125,15.875 C 17.90292,16.379445 17.9375,16.828554 17.9375,17.125 L 17.9375,17.21875 L 17.90625,17.25 C 17.81545,17.250001 17.633227,17.031106 17.46875,16.65625 L 17.46875,16.625 L 17.78125,15.875 z M 24.0625,15.90625 C 24.180277,16.399255 24.25,16.864587 24.25,17.15625 L 24.25,17.21875 L 24.1875,17.28125 C 24.0934,17.281251 23.953765,17.02481 23.78125,16.625 L 24.0625,15.90625 z M 31.625,16.65625 L 58.90625,16.65625 L 58.90625,17.40625 L 31.625,17.40625 L 31.625,16.65625 z M 15.625,17.5625 C 15.628558,17.556731 15.652245,17.568039 15.65625,17.5625 C 15.62707,17.609812 15.59375,17.656035 15.59375,17.71875 C 15.59375,17.656035 15.595819,17.609811 15.625,17.5625 z"
       style="fill:#000000;stroke:none"
       sodipodi:nodetypes="cssccsssccscsccccccccccsscccccccssccsccccscccccccccccscscccccscccccccccccccccccsccsccssssssscccccsssccsssscssscsccccssscsssccsccsccccsssscccsccccscssccsccscccssscsccccsccccccccccccssccscccccscscccccccccsccccccsccccccccccssccsccccsssccsssscssccsccccsssccsssscssccscccccccsscccccccccccssscsscsssssccssccccscccccccssccsccccssscsscsssssccssccccsccccccccssccsccccssscsscsssssccssccccsccscscsccccccssccscsccsccccccccsscsscsssssccsccssssssssccsscsccsscsccssccccccsccccsccccsccccscccccscccccccccccsscccccccccccccccsssssccsssssccccccccsssssccsssscscccccscscccccccccccccccccccccccccccccccccsccccssccccccccssccsscccccccsccsssccccccscccccsccccccccccccccccccccssc" />
    <path
       sodipodi:nodetypes="ccccccccccc"
       id="path2235"
       d="M 0.26211683,8.6800808 C 1.851536,8.2942441 2.9483229,7.5949142 3.821186,6.7164452 L 5.3201567,6.0067827 L 9.8436263,5.9495294 L 10.077981,6.3033063 L 11.780347,5.7661886 L 11.944119,5.9822817 L 16.213811,5.9974969 L 17.904445,5.5586516 L 18.240537,6.0237312 L 34.62291,5.8973904"
       style="fill:none;fill-rule:evenodd;stroke:#000000;stroke-width:0.4;stroke-linecap:butt;stroke-linejoin:miter;stroke-opacity:1;stroke-miterlimit:4;stroke-dasharray:none" />
  </g>
</svg>
