<?xml version="1.0" encoding="UTF-8" standalone="no"?>
<svg
   xmlns:dc="http://purl.org/dc/elements/1.1/"
   xmlns:cc="http://creativecommons.org/ns#"
   xmlns:rdf="http://www.w3.org/1999/02/22-rdf-syntax-ns#"
   xmlns:svg="http://www.w3.org/2000/svg"
   xmlns="http://www.w3.org/2000/svg"
   xmlns:sodipodi="http://sodipodi.sourceforge.net/DTD/sodipodi-0.dtd"
   xmlns:inkscape="http://www.inkscape.org/namespaces/inkscape"
   width="22.531834"
   height="20.8125"
   id="svg2829"
   sodipodi:version="0.32"
   inkscape:version="0.46"
   sodipodi:docname="E238.svg"
   inkscape:output_extension="org.inkscape.output.svg.inkscape"
   version="1.0">
  <metadata
     id="metadata2836">
    <rdf:RDF>
      <cc:Work
         rdf:about="">
        <dc:format>image/svg+xml</dc:format>
        <dc:type
           rdf:resource="http://purl.org/dc/dcmitype/StillImage" />
      </cc:Work>
    </rdf:RDF>
  </metadata>
  <defs
     id="defs2834">
    <inkscape:perspective
       sodipodi:type="inkscape:persp3d"
       inkscape:vp_x="0 : 8.9917564 : 1"
       inkscape:vp_y="0 : 1000 : 0"
       inkscape:vp_z="22.543415 : 8.9917564 : 1"
       inkscape:persp3d-origin="11.271708 : 5.9945043 : 1"
       id="perspective2838" />
  </defs>
  <sodipodi:namedview
     inkscape:window-height="712"
     inkscape:window-width="1024"
     inkscape:pageshadow="2"
     inkscape:pageopacity="0.0"
     guidetolerance="10.0"
     gridtolerance="10.0"
     objecttolerance="10.0"
     borderopacity="1.0"
     bordercolor="#666666"
     pagecolor="#ffffff"
     id="base"
     showgrid="false"
     inkscape:zoom="24.36036"
     inkscape:cx="11.265917"
     inkscape:cy="10.40625"
     inkscape:window-x="-4"
     inkscape:window-y="-4"
     inkscape:current-layer="svg2829" />
  <path
     style="fill:#000000;stroke:none"
     d="M 4.21875,0 C 3.8306267,1e-07 3.4660776,0.0988344 3.125,0.25 C 2.7839225,0.4011656 2.4657372,0.5837457 2.21875,0.84375 C 1.9717629,1.1037549 1.8032663,1.405343 1.65625,1.75 C 1.5092342,2.0946576 1.4375,2.4759234 1.4375,2.875 C 1.4375,3.2740767 1.5092342,3.6553424 1.65625,4 C 1.8032663,4.3446575 1.9717629,4.621042 2.21875,4.875 C 2.459874,5.1229292 2.7629498,5.3500406 3.09375,5.5 C 2.9143767,5.5784245 2.7488951,5.6434886 2.5625,5.75 C 1.855652,6.153914 1.555272,6.4831341 1.65625,6.71875 C 0.71378533,7.442428 0.21875,7.9206341 0.21875,8.15625 C 0.117772,8.3077173 0.17304334,8.514384 0.375,8.75 C 0.50963733,9.0697653 0.67304333,9.2860326 0.875,9.4375 C 0.875,9.9760513 1.1633687,10.25 1.71875,10.25 C 2.0216847,9.9302347 2.2523727,10.011938 2.4375,10.5 C 2.4543293,11.290997 2.675416,12.133269 3.0625,13 C 3.4495833,13.866731 3.6249999,14.487916 3.625,14.875 C 3.625,15.262084 3.4615941,15.827998 3.125,16.59375 C 2.7884053,17.359502 2.240508,18.338749 1.5,19.5 L 0.8125,19.4375 C 0.61054333,19.4375 0.33659467,19.644166 0,20.03125 L 0,20.8125 L 2.3125,20.8125 L 2.5625,20.3125 C 3.0169027,19.588823 3.605652,19.180308 4.3125,19.0625 C 4.3966487,18.372481 4.7198632,17.605906 5.25,16.78125 C 5.780136,15.956593 6.1562132,15.286142 6.375,14.78125 C 7.6540587,17.019603 8.2812502,18.252373 8.28125,18.4375 C 8.28125,18.959221 8.2259775,19.204329 8.125,19.1875 L 7.53125,19.1875 C 7.026358,19.507265 6.7499998,19.795634 6.75,20.03125 L 6.78125,20.8125 L 8.96875,20.8125 C 9.3726633,20.76201 9.605761,20.009856 9.65625,18.5625 C 9.9255253,18.528841 10.07451,18.409882 10.125,18.25 C 10.175489,18.090118 10.134638,17.990398 10,17.90625 C 9.865362,17.670634 9.5217216,16.466704 9,14.3125 C 9.8078267,14.548116 10.588822,14.65625 11.3125,14.65625 C 12.053008,14.65625 13.213676,14.495254 14.8125,14.125 C 14.644203,14.596232 14.603352,15.701629 14.6875,17.46875 C 14.6875,17.754855 14.497662,18.159773 14.09375,18.65625 C 13.689837,19.152727 13.348606,19.375 13.0625,19.375 L 12.59375,19.375 C 12.139347,19.375 11.850978,19.550416 11.75,19.9375 L 11.75,20.8125 L 14.21875,20.8125 L 15.21875,19.5 C 15.555344,18.978278 16.03596,18.497662 16.625,18.09375 C 16.557681,16.915669 16.925342,15.985689 17.75,15.3125 C 18.591485,16.053008 19.300379,16.586485 19.90625,16.90625 C 20.512119,17.226015 20.931457,17.514384 21.125,17.75 C 21.318541,17.985617 21.40625,18.545525 21.40625,19.4375 L 20.9375,19.375 C 20.398949,19.694766 20.125,19.971124 20.125,20.15625 L 20.15625,20.8125 L 22.03125,20.8125 C 22.266866,20.8125 22.430271,20.4977 22.53125,19.875 L 22.53125,17.28125 C 22.548079,16.860507 22.200843,16.361875 21.46875,15.78125 C 20.736657,15.200625 20.421857,14.424448 20.53125,13.40625 C 20.640643,12.388052 20.646649,11.094005 20.5625,9.5625 C 20.915924,9.2595647 21.218713,8.8306254 21.4375,8.25 C 21.656287,7.6693747 21.717564,6.9845027 21.625,6.21875 C 21.532437,5.452998 21.107094,4.6828266 20.375,3.875 C 19.642907,3.0671727 18.269567,2.723532 16.25,2.875 C 14.482879,3.2789133 13.788406,3.7835506 14.125,4.40625 C 14.209149,4.5745473 14.372554,4.65625 14.625,4.65625 C 14.877446,4.6225907 15.090118,4.5168661 15.25,4.28125 C 15.409883,4.045634 15.78355,3.8125367 16.40625,3.59375 C 18.106051,3.4086233 19.26672,3.7090033 19.90625,4.5 C 20.545779,5.2909973 20.903841,5.9818747 20.9375,6.5625 C 20.97116,7.1431253 20.854611,7.6766026 20.59375,8.15625 C 20.332889,8.6358973 20.024095,8.9482879 19.6875,9.125 C 19.350905,9.301712 18.948397,9.3221381 18.46875,9.1875 C 17.989104,9.0528627 16.928154,8.9855801 15.3125,8.96875 C 11.997045,9.069728 10.127482,8.8486412 9.65625,8.34375 C 8.7060971,6.9041244 7.2932425,5.9156563 5.46875,5.375 C 5.7253342,5.2372507 5.984155,5.0792213 6.1875,4.875 C 6.4403677,4.6210419 6.6342337,4.3446575 6.78125,4 C 6.9282665,3.6553424 7,3.2740767 7,2.875 C 6.9999998,2.4759234 6.9282664,2.0946575 6.78125,1.75 C 6.6342338,1.4053431 6.4403676,1.1037549 6.1875,0.84375 C 5.934632,0.5837457 5.6164472,0.4011656 5.28125,0.25 C 4.9460533,0.0988344 4.6068725,0 4.21875,0 z M 4.25,0.625 C 4.5675553,0.625 4.8544901,0.6915674 5.125,0.8125 C 5.3955095,0.9334326 5.6379273,1.1008684 5.84375,1.3125 C 6.0495728,1.5241316 6.1948868,1.7591524 6.3125,2.03125 C 6.4301128,2.3033477 6.5,2.6039188 6.5,2.90625 C 6.4999998,3.220674 6.4301126,3.5091518 6.3125,3.78125 C 6.194887,4.0533476 6.0495726,4.2944147 5.84375,4.5 C 5.6379275,4.7055847 5.3955093,4.8538638 5.125,4.96875 C 4.8544903,5.0836357 4.5675553,5.15625 4.25,5.15625 C 3.9324451,5.1562501 3.6201404,5.0836357 3.34375,4.96875 C 3.0673592,4.8538638 2.8249417,4.7055847 2.625,4.5 C 2.4250578,4.2944147 2.2738627,4.0533476 2.15625,3.78125 C 2.0386369,3.5091518 2,3.220674 2,2.90625 C 2,2.6039188 2.0386369,2.3033477 2.15625,2.03125 C 2.2738627,1.7591524 2.4250578,1.5241316 2.625,1.3125 C 2.8249417,1.1008684 3.0673592,0.9334326 3.34375,0.8125 C 3.6201404,0.6915674 3.9324451,0.625 4.25,0.625 z M 4.1875,2.15625 C 3.7405706,2.1925294 3.484545,2.4204867 3.4375,2.84375 C 3.4963064,3.3032932 3.7523322,3.5383134 4.1875,3.5625 C 4.622668,3.5383134 4.8514778,3.3032932 4.875,2.84375 C 4.8397164,2.4204867 4.6109068,2.1925294 4.1875,2.15625 z M 15.28125,3.71875 C 14.877337,4.206812 14.594973,4.3269567 14.46875,4.125 C 14.342527,3.9230433 14.624891,3.8028987 15.28125,3.71875 z M 4,5.875 C 3.899022,6.0937867 3.9398734,6.3533147 4.125,6.65625 L 4.21875,6.59375 C 4.1177713,6.3076447 4.146612,6.1009786 4.28125,6 L 4.53125,6.375 L 4.6875,6.375 C 4.6875,6.240362 4.6057973,6.1057968 4.4375,5.9375 L 4.5,5.9375 C 4.7356167,6.1394567 4.84375,6.3437141 4.84375,6.5625 C 4.6081333,6.8486053 4.3750359,6.9591489 4.15625,6.875 C 3.9374633,6.7908513 3.8293299,6.5721739 3.8125,6.21875 C 3.8125,6.0167933 3.8653622,5.89183 4,5.875 z M 4.90625,5.9375 C 6.6060527,6.3245833 7.9709776,7.1560316 9.03125,8.46875 C 8.3917207,8.3004527 7.7296831,8.2211592 7.03125,8.1875 C 6.3328167,8.1538407 5.6095025,8.9120005 4.84375,10.46875 C 4.0779973,12.025499 4.4132232,13.329148 5.84375,14.40625 L 5.71875,14.78125 C 5.0623907,15.201993 4.5457425,15.396649 4.125,15.3125 C 4.3101267,14.672971 4.1851632,13.90039 3.78125,13 C 3.3773367,12.09961 3.1730801,11.32462 3.15625,10.71875 C 4.40165,9.8267747 4.961558,8.6252545 4.84375,7.09375 C 5.0288767,7.0264307 5.1370106,6.8834514 5.1875,6.65625 C 5.2379887,6.4290487 5.158696,6.1899454 4.90625,5.9375 z M 3.5625,6.03125 C 3.5625,6.3173553 3.6093573,6.6057249 3.71875,6.875 C 3.8281433,7.144276 4.0552354,7.2403985 4.375,7.15625 C 4.4591487,8.485798 3.9665227,9.4830611 2.90625,10.15625 C 2.687464,9.7523367 2.4627814,9.53125 2.21875,9.53125 C 1.9747193,9.53125 1.7332067,9.6562135 1.53125,9.875 C 1.413442,9.757192 1.3581706,9.6322287 1.375,9.53125 C 1.526468,9.3629527 1.7042933,9.2812502 1.90625,9.28125 L 1.90625,8.90625 C 1.771612,8.90625 1.5265041,8.9903629 1.15625,9.125 L 0.90625,8.6875 L 1.25,8.3125 L 1.25,8.1875 L 0.71875,8.3125 L 1.75,7.28125 C 1.8004893,7.3822287 1.8797827,7.4375002 2.03125,7.4375 L 1.90625,7.9375 L 2.03125,8.875 L 2.03125,9.28125 L 2.3125,9.28125 L 2.3125,8.875 L 2.15625,7.9375 C 2.17308,7.6009053 2.4614486,7.298116 3,7.0625 L 3,6.90625 C 2.629746,6.8389313 2.300526,6.8557607 2.03125,6.90625 C 2.3678447,6.6201447 2.8893106,6.3173553 3.5625,6.03125 z M 7.1875,8.78125 C 7.6671473,8.78125 8.4949997,8.9470655 9.65625,9.25 C 10.817501,9.5529353 11.99259,9.6466485 13.1875,9.5625 C 16.233681,9.5625 18.041965,9.6706342 18.65625,9.90625 C 19.270535,10.141866 19.640606,10.491512 19.75,10.9375 C 19.859393,11.383487 19.902654,12.211341 19.84375,13.40625 C 19.784846,14.601161 20.132082,15.48788 20.90625,16.09375 C 21.680417,16.69962 22.0625,17.355652 22.0625,18.0625 L 22.0625,19.8125 C 22.01201,20.233243 21.72605,20.4375 21.1875,20.4375 C 21.322137,20.319692 21.375,20.2404 21.375,20.15625 C 21.375,20.072102 21.313723,20.034846 21.1875,20.09375 C 21.061278,20.152654 20.98799,20.269202 20.9375,20.4375 L 20.8125,20.4375 C 20.8125,20.151394 20.923042,19.975978 21.125,19.875 C 21.478424,19.891829 21.740363,19.769276 21.875,19.5 L 21.875,18.5625 C 21.875,17.872482 21.595046,17.38827 21.03125,17.09375 C 20.467455,16.799229 19.858279,16.402727 19.21875,15.90625 C 18.57922,15.409773 17.976051,14.800598 17.4375,14.09375 C 17.100906,13.437391 16.677972,13.151432 16.15625,13.21875 C 13.564473,13.774131 11.911177,14.03125 11.1875,14.03125 C 10.463822,14.03125 9.6828272,13.894275 8.875,13.625 C 8.875,13.03596 8.6154715,12.641866 8.09375,12.40625 C 7.740326,12.338931 7.6466127,12.418224 7.78125,12.6875 C 8.269312,12.923116 8.444728,13.459002 8.34375,14.25 C 9.033768,16.723969 9.4446918,18.021612 9.5625,18.15625 C 9.3942027,18.173079 9.3004892,18.350905 9.25,18.6875 C 9.149022,19.815091 8.9567757,20.375 8.6875,20.375 L 8.21875,20.375 L 8.46875,20.0625 L 8.375,19.90625 C 8.105724,19.956739 7.9687498,20.105724 7.96875,20.375 L 7.75,20.375 C 7.632192,20.139384 7.7018842,19.975978 7.9375,19.875 L 7.8125,19.71875 L 8.59375,19.71875 C 8.694728,19.331667 8.7500005,18.867881 8.75,18.3125 C 8.75,18.127373 8.4376094,17.352383 7.78125,16.03125 C 7.1248907,14.710117 6.6586952,14.088931 6.40625,14.15625 C 5.043042,13.112807 4.7078158,11.958144 5.40625,10.6875 C 6.1046833,9.416856 6.7078526,8.7812501 7.1875,8.78125 z M 16.03125,13.84375 C 16.197444,13.822713 16.400208,13.830516 16.59375,13.90625 C 16.964003,14.411141 17.180271,14.754782 17.28125,14.90625 C 16.439763,15.697247 16.03125,16.69451 16.03125,17.90625 C 15.374891,18.478461 14.649168,19.297898 13.875,20.375 L 13,20.375 L 13.21875,20.15625 L 13.21875,20.0625 L 13.125,20 L 13.0625,20 C 12.843713,20.100977 12.71875,20.223532 12.71875,20.375 L 12.53125,20.375 C 12.53125,20.223532 12.644203,20.060126 12.8125,19.875 L 12.75,19.75 L 13.0625,19.78125 L 13.25,19.78125 C 13.586595,19.78125 13.991512,19.498886 14.4375,18.96875 C 14.883488,18.438613 15.137011,17.995254 15.1875,17.625 C 15.1875,15.470795 15.31606,14.266866 15.59375,14.03125 C 15.732596,13.913442 15.865056,13.864787 16.03125,13.84375 z M 5.46875,15.4375 C 4.4589667,17.053153 3.8990579,18.16096 3.78125,18.75 C 3.1922093,18.850978 2.5626087,19.410886 1.90625,20.4375 L 1.28125,20.4375 L 1.28125,20.28125 L 1.59375,20.1875 L 1.59375,20 C 1.3749633,20 1.211558,20.134565 1.09375,20.4375 L 0.75,20.4375 C 0.81731867,20.151394 0.94228262,19.949547 1.09375,19.78125 L 1.75,19.90625 L 1.96875,19.6875 C 2.7260873,18.593568 3.4229709,17.307936 4.0625,15.84375 C 4.5169027,15.911069 4.980688,15.774094 5.46875,15.4375 z M 7.65625,19.71875 L 7.4375,20.375 L 7.28125,20.375 C 7.3149093,19.954257 7.4374641,19.735579 7.65625,19.71875 z M 12.59375,19.71875 C 12.442283,19.920707 12.375,20.139384 12.375,20.375 L 12.21875,20.375 C 12.21875,20.072066 12.341304,19.853388 12.59375,19.71875 z M 0.84375,19.75 L 0.53125,20.40625 L 0.5,20.40625 C 0.53365933,19.985507 0.64179333,19.766831 0.84375,19.75 z M 20.5625,20.09375 L 20.625,20.09375 L 20.625,20.15625 L 20.5625,20.1875 L 20.5625,20.4375 L 20.5,20.4375 L 20.4375,20.3125 L 20.5625,20.09375 z"
     id="path2831" />
</svg>
