<?xml version="1.0" encoding ="US-ASCII" standalone="yes"?>
<svg width="20.61536" height="8.16">
<path style="fill:#000000; stroke:none" d=" M 5.570189 1.150356  Q 5.634694 1.322372 5.838963 1.343874  Q 6.043231 1.365376 6.086236 0.913834  Q 6.150742 0.526798 6.559279 0.698814  L 6.559279 0.698814  Q 6.451768 0.440791 6.172245 0.440791  Q 6.02173 0.440791 5.871215 0.741818  Q 5.570189 1.042846 5.570189 1.150356  Z  M 9.010504 3.128538  Q 7.677382 4.870198 5.570189 5.794784  Q 5.290663 6.203321 6.193746 7.256917  Q 6.279754 6.353835 7.634378 6.547353  Q 8.989003 6.740869 10.203867 6.558104  Q 11.418729 6.375337 12.676592 5.816286  Q 13.934458 5.257234 16.385681 6.654862  Q 17.245764 7.321424 17.6973 7.041899  Q 17.890823 6.203321 16.826473 5.289487  Q 15.762124 4.375652 14.988053 4.278893  Q 14.213984 4.182135 13.160386 4.375652  Q 10.55865 4.655179 9.010504 3.128538  Z  M 8.773983 2.418972  Q 8.644971 1.795415 8.021414 1.204111  Q 7.397857 0.612806 6.838805 0.569802  Q 7.505366 1.51589 6.66679 1.644901  Q 6.322758 1.795415 6.398014 2.236205  Q 6.473271 2.676997 5.763707 3.322056  Q 5.376671 4.225138 5.484181 5.128222  Q 7.591374 4.117629 8.773983 2.418972  Z  M 4.28007 2.612491  Q 4.043548 2.676997 3.946789 2.752253  Q 3.85003 2.827511 3.63501 2.849012  Q 3.656512 3.25755 3.914536 3.193044  Q 4.108054 3.25755 4.237065 3.064032  Q 4.366077 2.870514 4.677855 2.881264  Q 4.989635 2.892016 5.097145 3.171542  Q 5.806711 2.720001 5.763707 1.945929  Q 5.806711 1.580395 5.613194 1.494388  Q 5.419676 1.40838 5.376671 1.257866  Q 5.312166 0.97834 5.570189 0.784822  Q 5.05414 0.913834 4.667105 0.956838  Q 4.28007 0.999842 3.979042 1.268617  Q 3.678015 1.537392 3.20497 1.859921  Q 3.140465 2.031937 3.333983 2.246957  Q 3.269477 2.547984 3.613508 2.612491  Q 3.807027 2.590988 3.957539 2.515731  Q 4.108054 2.440474 4.28007 2.612491  Z  M 6.172245 1.322372  L 6.172245 1.343874  Q 6.516275 1.386878 6.580783 0.913834  Q 6.580783 0.806324 6.451768 0.827826  Q 6.279754 0.806324 6.279754 1.107352  L 6.172245 1.322372  Z  M 4.903627 1.107352  Q 4.903627 1.150356 4.667105 1.150356  Q 4.430583 1.150356 4.312323 1.290119  Q 4.194062 1.429882 4.194062 1.666404  L 4.108054 1.666404  Q 4.022045 1.322372 4.226314 1.182609  Q 4.430583 1.042846 4.677855 1.064348  Q 4.925129 1.08585 4.903627 1.107352  Z  M 4.968132 1.365376  Q 4.796116 1.580395 4.430583 1.666404  Q 4.430583 1.752411 4.323073 1.730909  L 4.323073 1.623399  Q 4.301571 1.257866 4.559595 1.247115  Q 4.817618 1.236364 4.968132 1.365376  Z  M 4.17256 1.795415  L 4.258567 1.838419  Q 4.129556 2.332965 5.376671 2.418972  L 5.247659 2.50498  Q 4.258567 2.39747 4.161808 2.1717  Q 4.06505 1.945929 4.17256 1.795415  Z  M 12.063787 8.073993  Q 11.870269 8.030989 11.709002 7.848222  Q 11.547739 7.665456 11.35422 8.05249  Q 11.053195 7.622452 11.536986 7.256917  Q 12.020781 6.891384 12.848608 7.17091  Q 13.676435 7.450436 14.816036 6.869884  Q 14.665525 6.482846 14.031218 6.343084  Q 13.396909 6.203321 12.902365 6.472096  Q 12.407819 6.740869 10.741413 7.052649  Q 9.075011 7.364429 8.053666 7.224664  Q 7.032323 7.084902 7.311849 7.643954  Q 7.526868 8.073993 5.871215 8.05249  L 0.710741 8.05249  Q 0.323706 7.665456 0.237698 8.16  Q -0.17084 7.643954 0.119437 7.17091  Q 0.409713 6.697866 1.957855 7.149407  Q 3.398489 7.27842 4.129556 6.805376  Q 4.860623 6.332332 4.699358 5.945297  Q 4.538093 5.558263 4.699358 4.741186  Q 4.860623 3.924111 4.968132 3.601582  Q 4.860623 3.25755 4.645603 3.225297  Q 4.430583 3.193044 4.29082 3.375811  Q 4.151058 3.558578 3.721019 3.623083  Q 3.376987 3.451067 3.323231 3.085534  Q 3.269477 2.720001 3.226473 2.720001  Q 3.011453 2.569487 3.011453 2.354466  Q 2.710425 2.053439 2.839437 1.816917  Q 2.903943 1.687905 3.258725 1.472886  Q 3.613508 1.257866 3.903785 1.010593  Q 4.194062 0.76332 4.516592 0.65581  Q 4.83912 0.5483 5.226156 0.419289  Q 5.312166 0.032253 6.279754 0  Q 7.247343 -0.032253 8.096671 0.559051  Q 8.945998 1.150356 9.548053 2.676997  Q 11.1177 4.225138 13.934458 3.601582  Q 15.138569 3.558578 15.95564 3.934862  Q 16.772717 4.311146 17.503784 4.977708  Q 18.234854 5.64427 18.66489 6.547353  Q 19.675488 5.923794 19.826002 4.579921  Q 19.976511 3.236048 18.342361 1.580395  Q 18.127346 1.365376 17.718805 1.40838  Q 17.310268 1.451384 16.68671 0.892332  Q 16.127657 0.311779 16.88023 0.204269  Q 17.783312 0.139763 18.643391 0.999842  Q 19.589478 1.494388 20.299044 3.193044  Q 21.008614 4.891701 20.127026 6.289329  Q 19.245445 7.686958 18.406866 8.05249  L 12.063787 8.073993  Z "/></svg>
