<?xml version="1.0" encoding="UTF-8" standalone="no"?>
<svg
   xmlns:dc="http://purl.org/dc/elements/1.1/"
   xmlns:cc="http://web.resource.org/cc/"
   xmlns:rdf="http://www.w3.org/1999/02/22-rdf-syntax-ns#"
   xmlns:svg="http://www.w3.org/2000/svg"
   xmlns="http://www.w3.org/2000/svg"
   xmlns:sodipodi="http://inkscape.sourceforge.net/DTD/sodipodi-0.dtd"
   xmlns:inkscape="http://www.inkscape.org/namespaces/inkscape"
   width="24.034239"
   height="9.36"
   id="svg1338"
   sodipodi:version="0.32"
   inkscape:version="0.43"
   sodipodi:docname="E4A.svg"
   sodipodi:docbase="C:\Program Files\JSesh\fonts">
  <metadata
     id="metadata1345">
    <rdf:RDF>
      <cc:Work
         rdf:about="">
        <dc:format>image/svg+xml</dc:format>
        <dc:type
           rdf:resource="http://purl.org/dc/dcmitype/StillImage" />
      </cc:Work>
    </rdf:RDF>
  </metadata>
  <defs
     id="defs1343" />
  <sodipodi:namedview
     inkscape:window-height="708"
     inkscape:window-width="1024"
     inkscape:pageshadow="2"
     inkscape:pageopacity="0.0"
     borderopacity="1.0"
     bordercolor="#666666"
     pagecolor="#ffffff"
     id="base"
     inkscape:zoom="38.819619"
     inkscape:cx="12.017119"
     inkscape:cy="4.6811226"
     inkscape:window-x="-4"
     inkscape:window-y="-4"
     inkscape:current-layer="svg1338" />
  <path
     style="fill:#000000; stroke:none"
     d="M 2.4101657,2.2867947 C 2.6642837,2.1797993 3.223289,1.6428357 4.293263,0.572863 C 4.9486177,-0.0022463333 6.2626753,-0.14602367 8.235436,0.141531 C 10.208191,0.42908567 11.726213,0.59626867 12.789501,0.64308 C 13.85279,0.68989133 14.685364,0.77682667 15.287222,0.903886 C 15.889077,1.0309453 16.424066,1.3352183 16.892189,1.816705 C 17.360301,2.2981917 17.738132,2.9000507 18.025681,3.622282 C 18.313228,4.3445113 18.961893,5.3275477 19.971676,6.571391 C 20.981461,7.8152363 22.188527,8.3435347 23.592876,8.156286 C 23.820245,8.156286 23.967366,8.2833473 24.034239,8.53747 C 23.940612,8.9387027 23.726613,9.139319 23.392241,9.139319 C 21.880906,9.125945 20.734032,8.7213637 19.95162,7.925575 C 19.169201,7.1297823 18.503816,6.323958 17.955463,5.508102 C 17.40711,4.6922533 16.965744,3.9299 16.631367,3.221042 C 16.510998,4.3846347 16.785183,5.374358 17.453922,6.190212 L 19.600529,7.614614 L 19.680782,7.935605 C 19.600535,8.149599 19.500223,8.6243973 19.379848,9.36 L 18.055777,9.36 C 18.002276,9.0925127 18.032363,8.9052717 18.14604,8.798277 C 18.259724,8.6912783 18.410189,8.6879343 18.597435,8.788245 C 18.784678,8.888553 18.891675,8.7514623 18.918425,8.376973 C 18.864928,8.1496003 18.176141,7.7182657 16.852064,7.082969 C 15.527965,6.4476737 14.671983,5.635164 14.284118,4.64544 C 13.976501,4.9129327 13.642136,6.0832147 13.281024,8.156286 C 13.093778,8.3970333 12.839657,8.7715227 12.518661,9.279754 L 11.515563,9.279754 C 11.395193,9.279754 11.35507,9.1460107 11.395193,8.878524 C 11.435317,8.6110307 11.662688,8.557532 12.077306,8.718028 C 12.344799,8.437156 12.505292,8.0626633 12.558787,7.59455 C 12.612286,7.1264393 12.625662,6.6014843 12.598915,6.019685 C 12.572163,5.4378883 12.685848,4.8326873 12.939971,4.204082 C 11.77637,4.2308307 11.09426,4.3043913 10.893641,4.424764 C 10.693023,4.545132 10.10454,4.6186907 9.128191,4.64544 C 9.181689,4.739062 9.2920293,5.1436457 9.459212,5.859191 C 9.6263947,6.5747343 9.8136397,7.0930027 10.020947,7.413996 C 10.228252,7.734986 10.331905,7.9222303 10.331905,7.975729 C 10.077789,8.189723 9.964105,8.5575247 9.990853,9.079134 C 9.9239817,9.1995053 9.796923,9.259691 9.609677,9.259691 L 8.60659,9.259691 C 8.4594687,8.9119577 8.579839,8.697967 8.967701,8.617719 C 9.4224343,8.9119543 9.576241,8.7581433 9.429121,8.156286 C 9.3622457,7.7149233 9.2251573,7.3036537 9.017856,6.922477 C 8.8105527,6.5412983 8.6534023,6.293867 8.546405,6.180183 C 8.439407,6.066499 8.1719113,5.6686023 7.743918,4.986493 C 7.583424,5.0399917 7.4530213,5.330891 7.35271,5.859191 C 7.2524,6.387489 7.1320287,6.7419177 6.991596,6.922477 C 6.851162,7.103033 6.6806347,7.561114 6.480014,8.29672 C 6.2258967,8.4438447 6.0720883,8.6210613 6.018589,8.82837 C 5.9650903,9.0356693 5.9049037,9.139319 5.838029,9.139319 L 5.476913,9.219568 C 4.8884303,9.259692 4.594189,9.2329423 4.594189,9.139319 C 4.500569,8.804959 4.5808167,8.617717 4.834932,8.577593 C 5.1425487,8.564219 5.3097313,8.5775943 5.33648,8.617719 C 5.6039727,8.4572217 5.811281,8.1228533 5.958405,7.614614 C 6.2392717,6.5981407 6.3863917,5.5616057 6.399765,4.505009 C 5.8915277,4.130519 4.4312457,3.9033858 3.550969,4.163955 C 3.189853,4.6320657 2.7752383,5.033304 2.307125,5.36767 C 2.1733803,5.9695307 1.8657637,6.230337 1.384275,6.150089 C 1.0097857,6.0430917 0.70885633,5.9494693 0.481487,5.869222 C 0.25411833,5.8558447 0.093622667,5.775596 0,5.628476 C 0.066873333,4.759128 0.11764099,4.0512618 0.35838432,3.5563978 C -0.1569622,2.9261903 0.75780815,2.2855833 1.213748,2.6758261 C 1.3323534,2.7773416 1.3229263,2.6509862 1.2725687,2.4459243 C 1.1144254,1.8019477 2.4235544,1.6668176 2.4101657,2.2867947 z M 2.267001,2.920111 C 2.0797563,2.5589963 1.9125737,2.4152193 1.765453,2.48878 C 1.6183317,2.5623407 1.6557066,2.7045453 1.5707276,2.9980073 L 1.4657121,3.1148247 C 1.2123748,3.066057 1.0365357,2.953549 0.902789,3.060547 C 0.76904167,3.1675437 0.76904167,3.3481017 0.902789,3.602221 C 0.52829833,4.658815 0.44470667,5.243954 0.652014,5.357638 C 0.85932133,5.4713227 1.019817,5.5014157 1.133501,5.447917 C 1.247185,5.394419 1.3107143,5.4612923 1.324089,5.648537 C 1.5915823,5.688661 1.832326,5.4144813 2.04632,4.825998 C 2.2870627,4.705626 2.5010567,4.4581953 2.688302,4.083706 C 2.8354227,3.8162133 3.0360427,3.6690927 3.290162,3.642344 C 5.1091133,3.2678533 6.2052527,3.3724415 6.730791,3.782777 C 7.2313512,4.1736098 7.6168613,4.4314493 7.964602,4.324454 C 8.3524707,5.1001793 8.8406437,6.0631537 9.429121,7.213377 L 9.589614,7.07294 L 9.589614,7.032816 C 9.4826187,7.0729407 9.35556,6.8021033 9.208438,6.220304 C 9.0613207,5.6385073 8.840643,4.9798077 8.546405,4.244205 C 8.546405,3.9232123 8.8406437,3.70253 9.429121,3.582158 C 9.0278877,3.822902 8.9208903,4.03021 9.108129,4.204082 C 9.9774803,4.2174567 10.542559,4.147239 10.803364,3.993429 C 11.064167,3.8396203 12.063924,3.796153 13.802634,3.863027 C 13.682263,3.6490317 13.508393,3.4885353 13.281024,3.381538 C 13.053655,3.2745407 13.180712,3.2477917 13.662195,3.301291 C 14.143688,3.354789 14.501462,3.6858123 14.735516,4.294361 C 14.969569,4.9029037 15.467772,5.548229 16.230125,6.230337 L 17.975525,7.093003 C 16.678181,6.1835237 16.052915,5.22055 16.099728,4.204082 C 16.146539,3.187606 15.929201,2.465374 15.447713,2.037386 L 15.58815,1.816705 C 16.310381,2.1376957 16.845371,2.6894 17.193119,3.471818 C 17.540859,4.2542327 18.122648,5.1871137 18.938486,6.270461 C 19.754342,7.3538077 20.546789,8.0626667 21.315826,8.397038 C 22.084867,8.7314033 22.763631,8.8718367 23.352118,8.818338 C 23.606241,8.804964 23.733303,8.7414347 23.733303,8.62775 C 23.733303,8.5140653 23.599554,8.46391 23.332056,8.477284 C 21.954469,8.6511553 20.727346,8.055982 19.650686,6.691764 C 18.574036,5.327548 17.851813,4.2040777 17.484016,3.321353 C 17.116212,2.4386263 16.521038,1.8434543 15.698493,1.535837 C 14.875948,1.228221 13.91966,1.064382 12.829628,1.04432 C 11.739589,1.0242573 10.562618,0.94066567 9.298717,0.793545 C 8.034815,0.64642367 7.035062,0.582894 6.299458,0.602956 C 5.5638493,0.623018 4.9486163,0.840356 4.453759,1.25497 C 3.4372843,2.1510707 2.708365,2.7061177 2.267001,2.920111 z M 2.086444,3.221042 L 2.106508,3.321353 L 1.865763,3.521972 C 1.8122643,3.7092173 1.705267,3.8496513 1.544771,3.943274 C 1.384275,4.0368953 1.3174017,4.143893 1.344151,4.264267 L 1.283965,4.304392 C 1.1234697,3.970024 1.1034077,3.7393103 1.223779,3.612251 C 1.344151,3.4851917 1.474554,3.425006 1.614988,3.431694 C 1.755422,3.4383807 1.912574,3.3681633 2.086444,3.221042 z M 13.441517,4.18402 C 13.040276,4.7858753 12.919904,5.6886633 13.080401,6.892384 C 13.294398,5.7956593 13.608703,4.8995587 14.023316,4.204082 L 13.441517,4.18402 z M 6.881254,4.785873 C 6.801008,5.374357 6.6672613,6.06984 6.480014,6.872322 C 6.4265147,6.9926913 6.4599517,7.032814 6.580325,6.99269 C 6.8478177,6.3373347 7.0952487,5.6084163 7.322618,4.805935 L 6.881254,4.785873 z "
     id="path1340"
     sodipodi:nodetypes="ccssssssccsssccccccsscsccccscsscscssccccccsscsscsccsscscccccccssccsccscssccscsccccscccscsssccsccssssscsssssscccccsccsscccccccccc" />
</svg>
