<?xml version="1.0" encoding="UTF-8" standalone="no"?>
<svg
   width="1800"
   height="1800"
   version="1.1"
   id="svg4"
   sodipodi:docname="E240A.svg"
   inkscape:version="1.3.2 (091e20e, 2023-11-25)"
   xml:space="preserve"
   xmlns:inkscape="http://www.inkscape.org/namespaces/inkscape"
   xmlns:sodipodi="http://sodipodi.sourceforge.net/DTD/sodipodi-0.dtd"
   xmlns="http://www.w3.org/2000/svg"
   xmlns:svg="http://www.w3.org/2000/svg"
   xmlns:rdf="http://www.w3.org/1999/02/22-rdf-syntax-ns#"
   xmlns:cc="http://creativecommons.org/ns#"
   xmlns:dc="http://purl.org/dc/elements/1.1/"><title
     id="title1">E240</title><defs
     id="defs8" /><sodipodi:namedview
     id="namedview6"
     pagecolor="#ffffff"
     bordercolor="#666666"
     borderopacity="1.0"
     inkscape:pageshadow="2"
     inkscape:pageopacity="0.0"
     inkscape:pagecheckerboard="0"
     showgrid="false"
     inkscape:zoom="0.26168026"
     inkscape:cx="397.43159"
     inkscape:cy="519.71823"
     inkscape:window-width="1512"
     inkscape:window-height="997"
     inkscape:window-x="172"
     inkscape:window-y="25"
     inkscape:window-maximized="0"
     inkscape:current-layer="layer2"
     inkscape:showpageshadow="2"
     inkscape:deskcolor="#d1d1d1"
     showguides="true" /><metadata
     id="metadata825"><rdf:RDF><cc:Work
         rdf:about=""><dc:title>E240</dc:title><dc:creator><cc:Agent><dc:title>Serge Rosmorduc</dc:title></cc:Agent></dc:creator><dc:description>Lionness sign, O.K.
From a model in H.G. Fischer, Varia I, 1976, p. 29, fig. 2
Fragment of the offering niche of Mry, MMA 67.50</dc:description></cc:Work></rdf:RDF></metadata><g
     inkscape:groupmode="layer"
     id="layer2"
     inkscape:label="main"
     style="display:inline"><path
       id="path104"
       style="color:#000000;fill:#000000;-inkscape-stroke:none"
       d="M 1114.3535 155.04297 C 1094.0558 320.46594 1073.7442 485.8882 1053.4414 651.31055 C 1077.9102 669.05112 1105.1222 687.86599 1115.8691 717.35547 C 1112.3049 740.32839 1086.357 749.35764 1067.5586 757.52344 C 1059.4852 764.42851 1037.9049 759.31156 1040.3496 774.37695 C 1021.0951 970.42569 1001.9781 1166.489 982.81641 1362.5469 C 944.05909 1354.1586 905.44325 1345.0644 867.05469 1335.9668 C 832.11729 1314.698 808.26 1279.0918 772.47266 1258.418 C 742.04128 1234.7926 704.00249 1217.0158 675.48242 1194.2715 C 667.92801 1146.3319 616.0359 1099.4402 566.61133 1119.4941 C 533.52538 1152.0648 486.20702 1143.4379 448.58008 1167.916 C 417.74676 1190.8058 385.03905 1208.3534 348.98633 1221.4883 C 319.08831 1233.891 288.25491 1258.872 292.42578 1294.8613 C 294.10369 1324.9736 318.09605 1348.0009 322.27344 1376.748 C 337.84679 1402.4083 350.97873 1479.2169 392.47852 1448.5605 C 427.97198 1437.1567 466.16006 1423.8406 503.7168 1430.457 C 550.35658 1451.7175 587.87555 1488.4294 622.74805 1525.2109 C 587.34536 1537.4167 573.42516 1587.4944 535.15039 1584.2715 C 445.3872 1588.9891 355.31031 1594.1005 266.50586 1608.5059 C 214.80005 1586.7148 149.38652 1589.8966 108.82812 1632.3125 C 73.783497 1667.074 62.994065 1721.3743 71.183594 1768.7559 C 80.013977 1809.1848 127.12938 1805.3416 157.17773 1794.3691 C 253.37591 1776.4732 351.84905 1786.4392 449.09766 1786.0938 C 510.42968 1789.1491 574.98761 1786.0428 632.77734 1809.582 C 650.28718 1820.4127 669.6752 1798.3891 687.02344 1793.5527 C 729.11405 1770.8479 769.28517 1744.8878 808.73633 1717.8691 C 835.54529 1737.8274 874.8337 1759.1194 925.81445 1762.8301 C 967.51554 1765.8655 1014.0499 1748.7437 1062.6953 1734.4922 C 1099.7003 1723.6511 1137.3994 1714.688 1161.8262 1712.252 C 1163.5059 1722.3245 1165.7755 1732.0144 1168.6641 1737.7988 C 1174.9589 1750.4044 1184.0652 1766.7952 1207.7578 1770.7305 C 1262.0276 1779.7448 1310.0862 1760.4886 1356.8105 1765.6309 C 1407.9961 1771.2644 1473.3643 1787.0053 1545.4961 1766.5918 C 1578.9361 1757.1282 1573.673 1755.5144 1595.6953 1744.4902 C 1627.3682 1722.1816 1650.8914 1680.6255 1660.5918 1652.1582 C 1695.4085 1672.7298 1745.0687 1665.6833 1769.0566 1630.916 C 1809.0268 1571.8532 1805.7087 1486.1222 1764.6113 1430.3027 C 1720.5961 1370.5202 1658.6593 1297.6208 1604.1074 1228.3477 C 1583.7115 1202.4479 1566.2817 1147.3796 1559.4199 1135.9805 C 1548.0389 1117.074 1540.2927 1105.0136 1525.2773 1093.3984 C 1498.4947 1072.6807 1435.7499 1106.1468 1464.5 1163.7539 C 1488.2935 1211.4293 1549.2978 1223.4592 1576.3066 1269.4824 C 1624.9096 1335.9572 1674.3366 1402.054 1718.9863 1471.2422 C 1737.1662 1510.7926 1746.0127 1565.5558 1715.2207 1601.043 C 1674.6968 1612.9566 1664.0789 1552.4644 1644.0938 1528.6289 C 1609.8271 1466.1618 1551.3207 1417.561 1481.8438 1399.8262 C 1404.791 1374.7971 1324.3747 1380.5285 1244.7109 1385.6504 C 1258.25 1233.4044 1271.7895 1081.1581 1285.3281 928.91211 C 1327.6892 888.8216 1370.2219 842.6591 1384.2676 784.36133 C 1393.7551 729.08294 1363.2514 677.26552 1333.9609 632.97266 C 1315.2116 617.21915 1326.5742 593.79096 1326.9062 573.14844 C 1338.8762 459.43525 1350.8463 345.72272 1362.8184 232.00977 C 1316.8257 217.33999 1270.8318 202.67338 1224.8379 188.00781 C 1224.7486 188.73566 1224.6596 189.46356 1224.5703 190.19141 C 1187.8317 178.47435 1151.0928 166.75761 1114.3535 155.04297 z M 1148.1777 207.81445 L 1211.4238 225.1875 L 1221.0273 219.05078 C 1201.9978 374.12602 1182.9586 529.20055 1163.9258 684.27539 C 1188.3946 702.01598 1215.6065 720.83079 1226.3535 750.32031 C 1222.7893 773.29325 1196.8413 782.32052 1178.043 790.48633 C 1169.9696 797.3914 1148.3893 792.27639 1150.834 807.3418 C 1132.377 995.27065 1114.0487 1183.2126 1095.6836 1371.1504 L 1092.7266 1367.7734 C 1071.1 1363.9377 1036.7287 1371.1645 1023.2266 1360.2773 C 1041.6023 1172.2318 1059.9507 984.18184 1078.4102 796.14453 C 1113.7423 783.88701 1155.7204 759.17277 1155.8672 716.86328 C 1154.4689 679.75981 1122.0646 654.87916 1095.9941 632.96875 C 1113.3896 491.25105 1130.7841 349.53238 1148.1777 207.81445 z M 1258.6621 240.7793 C 1277.8598 253.2219 1326.1213 246.68172 1317.8535 277.06445 C 1305.5693 393.73924 1293.2888 510.41493 1281.0059 627.08984 C 1309.7885 669.04644 1344.6908 713.06731 1346.0527 766.25195 C 1342.6996 804.86296 1314.7555 835.30516 1291.4121 864.19922 C 1277.391 880.29594 1262.6455 895.79277 1246.8379 910.15039 C 1232.6744 1069.4073 1218.5149 1228.665 1204.3516 1387.9219 C 1198.2234 1388.2285 1192.0338 1388.7398 1185.9258 1388.959 C 1168.6704 1388.8818 1151.4987 1387.9108 1134.3633 1386.5742 C 1152.5214 1200.7505 1170.6532 1014.925 1188.8945 829.10938 C 1224.2267 816.85185 1266.2048 792.13766 1266.3516 749.82812 C 1264.9533 712.72461 1232.549 687.84402 1206.4785 665.93359 C 1223.874 524.21576 1241.2684 382.49737 1258.6621 240.7793 z M 595.01758 1176.9531 C 605.16672 1177.4665 613.35249 1185.5145 616.49609 1206.0273 C 619.4289 1251.0007 669.68514 1257.7067 698.88672 1281.1738 C 738.28813 1305.8493 775.63624 1333.6901 807.68945 1367.5176 C 844.86981 1403.6382 899.6263 1402.5177 946.58789 1416.2969 C 1048.7682 1439.7177 1153.8565 1456.7478 1258.9121 1446.1895 C 1317.6215 1440.901 1378.9232 1438.5088 1436.8438 1450.6211 C 1433.2396 1450.6328 1429.5923 1450.7884 1425.873 1451.2168 C 1410.8912 1452.9425 1396.9939 1458.3929 1383.9277 1467.8574 C 1370.8615 1477.3218 1357.0096 1492.9731 1356.5703 1515.4336 C 1355.8976 1549.8965 1371.8593 1579.8283 1386.8281 1604.9434 C 1376.5024 1603.8743 1365.8952 1602.5787 1355.2734 1600.8965 C 1322.9231 1595.7731 1293.8073 1588.9294 1269.9258 1588.6211 C 1221.7632 1587.9994 1190.4212 1595.0719 1171.7266 1618.6152 C 1162.9426 1629.6775 1159.5054 1641.0746 1158.2676 1651.4629 C 1122.2053 1653.4283 1083.9625 1665.7394 1045.8262 1676.9121 C 996.5648 1691.344 946.63881 1704.1871 930.16992 1702.9883 C 902.78677 1700.9952 879.89005 1691.8833 861.51758 1681.0391 C 864.89717 1678.6349 868.30664 1676.2632 871.68164 1673.8555 C 852.91193 1624.9568 805.36678 1646.2336 774.2793 1669.4863 C 731.39829 1697.0181 689.10636 1725.8244 643.22656 1748.2637 C 565.45322 1723.5864 482.2423 1728.0906 401.61328 1725.2891 C 310.58088 1724.8156 217.72863 1717.1714 128.54688 1739.5879 C 126.27901 1696.0108 158.87953 1650.1258 206.07031 1655.2188 C 235.39508 1658.6323 262.63859 1678.1388 292.24219 1665.1094 C 391.17659 1652.4755 490.87342 1644.0138 590.64453 1643.3145 C 613.41288 1598.7307 656.35994 1569.7199 702.57227 1553.3848 C 722.7266 1550.0773 718.71334 1540.8219 705.92969 1529.4082 C 658.82377 1474.0385 608.95309 1417.5347 544.30469 1382.3691 C 498.09314 1356.3261 443.56475 1369.7108 396.03906 1384.2832 C 392.80993 1377.3077 388.07516 1370.8046 384.30664 1363.998 C 402.23273 1354.0331 420.39827 1345.6995 439.32617 1342.8301 L 438.53125 1337.7031 C 418.82678 1340.6903 397.5527 1337.8177 377 1340.7715 C 358.54918 1315.9861 340.64455 1276.3927 385.96875 1270.5117 C 411.768 1261.1043 437.34318 1252.6826 457.7832 1233.4375 C 484.27498 1209.7945 519.66315 1206.4065 552.6875 1201.8496 C 565.67506 1188.0868 581.96869 1176.2931 595.01758 1176.9531 z M 490.25586 1228.6113 C 482.02627 1228.7902 474.51333 1232.5561 467.57031 1236.6387 C 461.08668 1240.5318 454.55441 1244.4035 447.55664 1247.3145 C 445.2174 1248.3883 442.87821 1249.4612 440.53906 1250.5352 C 449.55015 1252.1633 458.58514 1253.7404 467.4375 1256.1133 C 476.07427 1258.1968 485.20654 1259.6393 493.98242 1257.5039 C 502.75188 1255.5014 510.889 1251.485 519.57812 1249.2051 C 521.42792 1248.6568 523.27993 1248.1142 525.12695 1247.5566 C 520.02906 1244.3777 514.74161 1241.3863 510.37305 1237.2031 C 505.795 1233.191 500.79111 1228.9581 491.91016 1228.623 C 491.3551 1228.6021 490.8045 1228.5994 490.25586 1228.6113 z M 638.54688 1263.7637 L 548.83008 1370.4629 L 561.14844 1386.1641 L 660.03125 1284.7012 L 638.54688 1263.7637 z M 687.06445 1295.9805 L 597.34766 1402.6797 L 609.66602 1418.3809 L 708.54883 1316.918 L 687.06445 1295.9805 z M 728.30078 1328.3203 L 638.58398 1435.0176 L 650.90234 1450.7207 L 749.78516 1349.2578 L 728.30078 1328.3203 z M 772.10742 1364.0312 L 682.38867 1470.7305 L 694.70898 1486.4316 L 793.5918 1384.9688 L 772.10742 1364.0312 z M 1490.293 1494.4102 C 1495.3812 1494.5385 1500.099 1495.5598 1504.084 1497.8711 C 1517.6768 1505.7549 1537.3941 1507.8216 1550.3223 1504.2148 C 1576.3633 1529.6262 1593.729 1562.747 1612.752 1594.3672 C 1618.932 1622.8441 1591.2597 1653.431 1546.0977 1701.2246 C 1536.1135 1711.7906 1520.486 1717.837 1524.2305 1716.7773 C 1481.882 1728.762 1430.4514 1709.6735 1363.375 1702.291 C 1311.8454 1696.6199 1266.7875 1699.6495 1223.2949 1693.3086 C 1222.9772 1692.9173 1222.681 1692.6539 1222.3438 1691.9785 C 1220.1205 1687.5262 1218.4864 1679.5325 1218.4707 1678.9668 C 1217.9881 1661.5181 1218.9829 1655.5881 1218.7148 1655.9258 C 1218.4466 1656.2635 1228.058 1648.0868 1269.1523 1648.6172 C 1278.5388 1648.7384 1311.807 1654.7587 1345.8887 1660.1562 C 1379.9703 1665.5538 1416.3146 1670.8535 1449.1074 1664.9258 L 1498.8652 1655.9316 L 1467.123 1616.5723 C 1467.123 1616.5723 1453.7731 1599.9726 1440.5195 1577.9707 C 1427.9256 1557.064 1417.5542 1530.6571 1416.7266 1518.5605 C 1422.0477 1513.0035 1432.2734 1510.8741 1432.7402 1510.8203 C 1439.2371 1510.0719 1468.2442 1493.854 1490.293 1494.4102 z " /></g></svg>
