<?xml version="1.0" encoding="UTF-8" standalone="no"?>
<svg
   xmlns:dc="http://purl.org/dc/elements/1.1/"
   xmlns:cc="http://web.resource.org/cc/"
   xmlns:rdf="http://www.w3.org/1999/02/22-rdf-syntax-ns#"
   xmlns:svg="http://www.w3.org/2000/svg"
   xmlns="http://www.w3.org/2000/svg"
   xmlns:sodipodi="http://sodipodi.sourceforge.net/DTD/sodipodi-0.dtd"
   xmlns:inkscape="http://www.inkscape.org/namespaces/inkscape"
   width="19.919899"
   height="17.040001"
   id="svg3072"
   sodipodi:version="0.32"
   inkscape:version="0.44"
   sodipodi:docname="US22E241.svg"
   sodipodi:docbase="C:\Program Files\Inkscape\envoi31\E">
  <metadata
     id="metadata3079">
    <rdf:RDF>
      <cc:Work
         rdf:about="">
        <dc:format>image/svg+xml</dc:format>
        <dc:type
           rdf:resource="http://purl.org/dc/dcmitype/StillImage" />
        <dc:description>FCD p. 87
in :pAXt</dc:description>
        <dc:title>US22E241</dc:title>
        <dc:date>30/09/06</dc:date>
        <dc:creator>
          <cc:Agent>
            <dc:title>Serge Thomas</dc:title>
          </cc:Agent>
        </dc:creator>
        <dc:publisher>
          <cc:Agent>
            <dc:title>Serge Rosmorduc</dc:title>
          </cc:Agent>
        </dc:publisher>
        <cc:license
           rdf:resource="http://creativecommons.org/licenses/GPL/2.0/" />
      </cc:Work>
      <cc:License
         rdf:about="http://creativecommons.org/licenses/GPL/2.0/">
        <cc:permits
           rdf:resource="http://web.resource.org/cc/Reproduction" />
        <cc:permits
           rdf:resource="http://web.resource.org/cc/Distribution" />
        <cc:requires
           rdf:resource="http://web.resource.org/cc/Notice" />
        <cc:permits
           rdf:resource="http://web.resource.org/cc/DerivativeWorks" />
        <cc:requires
           rdf:resource="http://web.resource.org/cc/ShareAlike" />
        <cc:requires
           rdf:resource="http://web.resource.org/cc/SourceCode" />
      </cc:License>
    </rdf:RDF>
  </metadata>
  <defs
     id="defs3077" />
  <sodipodi:namedview
     inkscape:window-height="569"
     inkscape:window-width="939"
     inkscape:pageshadow="2"
     inkscape:pageopacity="0.0"
     guidetolerance="10.0"
     gridtolerance="10.0"
     objecttolerance="10.0"
     borderopacity="1.0"
     bordercolor="#666666"
     pagecolor="#ffffff"
     id="base"
     inkscape:zoom="22.124412"
     inkscape:cx="9.9599495"
     inkscape:cy="8.5200005"
     inkscape:window-x="87"
     inkscape:window-y="-12"
     inkscape:current-layer="svg3072" />
  <path
     style="fill:#000000; stroke:none"
     d=" M 5.368698 1.112435  Q 5.451873 1.27878 5.649407 1.289177  Q 5.846941 1.299573 5.888528 0.862916  Q 5.930115 0.509433 6.325184 0.675778  L 6.325184 0.654985  Q 6.242012 0.405467 5.9717 0.405467  Q 5.805357 0.405467 5.680598 0.696571  Q 5.368698 0.987675 5.368698 1.112435  Z  M 8.695606 3.025406  Q 7.427223 4.68886 5.368698 5.603758  Q 5.119181 5.978036 5.992494 7.017694  Q 6.075666 6.144383 7.37524 6.321123  Q 8.674813 6.497866 9.849627 6.321123  Q 11.02444 6.144383 12.251239 5.614155  Q 13.478035 5.08393 15.848456 6.414693  Q 16.680182 7.080075 17.11684 6.809762  Q 17.283184 5.978036 16.26432 5.104722  Q 15.245455 4.23141 14.496901 4.127444  Q 13.748349 4.023478 12.708689 4.23141  Q 10.192715 4.480928 8.695606 3.025406  Z  M 8.466881 2.339231  Q 8.342121 1.73623 7.749517 1.164417  Q 7.156911 0.592605 6.61629 0.551019  Q 7.240085 1.445125 6.449943 1.590677  Q 6.09646 1.73623 6.169237 2.16249  Q 6.242012 2.58875 5.576632 3.212544  Q 5.202355 4.085858 5.285526 4.959172  Q 7.323257 3.981892 8.466881 2.339231  Z  M 4.121109 2.505577  Q 3.892384 2.58875 3.809211 2.651129  Q 3.726038 2.71351 3.518107 2.734302  Q 3.5389 3.129372 3.788418 3.066993  Q 3.975557 3.129372 4.100316 2.942234  Q 4.225075 2.755095 4.516179 2.775889  Q 4.807282 2.796681 4.932043 3.046199  Q 5.597424 2.630336 5.576632 1.860989  Q 5.597424 1.507505 5.431079 1.424332  Q 5.223146 1.341159 5.181561 1.2164  Q 5.119181 0.925296 5.389492 0.738158  Q 4.869663 0.862916 4.505782 0.914899  Q 4.141901 0.966882 3.840401 1.226797  Q 3.5389 1.486712 3.081451 1.777816  Q 3.019071 1.944161 3.20621 2.172886  Q 3.143831 2.463991 3.476521 2.52637  Q 3.663659 2.484784 3.819608 2.412008  Q 3.975557 2.339231 4.121109 2.505577  Z  M 5.950908 1.257987  L 5.950908 1.299573  Q 6.304391 1.341159 6.345977 0.88371  Q 6.345977 0.758951 6.242012 0.779744  Q 6.075666 0.758951 6.054874 1.070848  L 5.950908 1.257987  Z  M 4.744904 1.050055  Q 4.744904 1.091641 4.505782 1.102038  Q 4.266661 1.112435 4.162695 1.24759  Q 4.058729 1.382746 4.037936 1.590677  L 3.954764 1.590677  Q 3.871591 1.257987 4.069126 1.122831  Q 4.266661 0.987675 4.505782 1.018865  Q 4.744904 1.050055 4.744904 1.050055  Z  M 4.786489 1.320366  Q 4.640937 1.528298 4.266661 1.611471  Q 4.266661 1.67385 4.162695 1.67385  L 4.162695 1.549091  Q 4.162695 1.195607 4.401816 1.195607  Q 4.640937 1.195607 4.786489 1.320366  Z  M 4.037936 1.73623  L 4.121109 1.777816  Q 3.99635 2.256058 5.202355 2.339231  L 5.056801 2.401611  Q 4.100316 2.318438 4.006746 2.10011  Q 3.913177 1.881782 4.037936 1.73623  Z  M 17.740635 7.787042  Q 18.073326 8.078146 17.574289 8.597976  Q 16.53463 9.138597 16.26432 9.762395  Q 16.950493 9.762395 16.950493 10.178255  Q 16.929701 10.531741 16.139561 10.531741  L 17.11684 17.040001  L 10.088749 17.040001  L 10.088749 13.463577  L 7.926259 13.463577  L 7.926259 17.040001  L 0.814995 17.040001  L 1.89624 10.552533  Q 1.04372 10.552533 1.064513 10.15746  Q 1.064513 9.762395 1.750688 9.762395  Q 1.459583 9.138597 0.419925 8.597976  Q -0.058318 8.078146 0.315959 7.787042  L 0.669443 7.787042  Q 0.295166 7.412765 0.211993 7.891008  Q -0.162284 7.371179 0.118424 6.924125  Q 0.399131 6.477073 1.89624 6.892935  Q 3.268589 7.038488 3.985953 6.570641  Q 4.703318 6.102795 4.536972 5.728517  Q 4.370627 5.35424 4.536972 4.5641  Q 4.703318 3.77396 4.786489 3.462063  Q 4.682524 3.150165 4.474593 3.118975  Q 4.266661 3.087786 4.131505 3.264528  Q 3.99635 3.44127 3.601279 3.503649  Q 3.247796 3.337304 3.20621 2.983819  Q 3.164623 2.630336 3.123037 2.630336  Q 2.915105 2.484784 2.915105 2.256058  Q 2.624 1.964955 2.727967 1.757023  Q 2.790346 1.611471 3.133434 1.413936  Q 3.476521 1.2164 3.757228 0.966882  Q 4.037936 0.717364 4.36023 0.623795  Q 4.682524 0.530226 5.056801 0.384674  Q 5.119181 0.03119 6.054874 0  Q 6.990568 -0.03119 7.811896 0.530226  Q 8.633226 1.091641 9.215436 2.58875  Q 10.754128 4.085858 13.478035 3.462063  Q 14.642453 3.44127 15.422197 3.80515  Q 16.201941 4.16903 16.919304 4.813619  Q 17.636667 5.458208 18.031738 6.33152  Q 19.029812 5.728517 19.164968 4.418548  Q 19.300125 3.108579 17.719839 1.528298  Q 17.511909 1.320366 17.11684 1.351556  Q 16.721767 1.382746 16.118769 0.862916  Q 15.59894 0.301501 16.326698 0.197535  Q 17.200014 0.135156 18.031738 0.946089  Q 18.925848 1.445125 19.612024 3.087786  Q 20.298197 4.730446 19.456068 6.082001  Q 18.613949 7.433558 17.782221 7.766249  L 17.740635 7.787042  Z  M 11.648236 7.787042  Q 11.48189 7.745456 11.315548 7.568714  Q 11.149201 7.391972 10.982853 7.766249  Q 10.69175 7.350386 11.159598 6.996902  Q 11.627443 6.643418 12.417583 6.913728  Q 13.207725 7.18404 14.309762 6.622625  Q 14.164209 6.269142 13.561207 6.123589  Q 12.958205 5.978036 12.469567 6.237951  Q 11.980927 6.497866 10.369453 6.799366  Q 8.757986 7.100869 7.77031 6.965713  Q 6.782634 6.830556 7.052945 7.391972  Q 7.260877 7.787042 5.659804 7.787042  L 11.648236 7.787042  Z  M 1.646721 8.597976  Q 2.395275 9.138597 2.520034 9.762395  L 15.474179 9.762395  Q 15.619731 9.138597 16.347492 8.597976  L 1.646721 8.597976  Z  M 2.748759 10.531741  L 1.792274 16.229069  L 6.990568 16.229069  L 6.990568 12.527884  L 11.02444 12.527884  L 11.02444 16.229069  L 16.201941 16.229069  L 15.28704 10.531741  L 2.748759 10.531741  Z "
     id="path3074" />
</svg>
