<?xml version="1.0" encoding="UTF-8" standalone="no"?>
<svg
   xmlns:dc="http://purl.org/dc/elements/1.1/"
   xmlns:cc="http://creativecommons.org/ns#"
   xmlns:rdf="http://www.w3.org/1999/02/22-rdf-syntax-ns#"
   xmlns:svg="http://www.w3.org/2000/svg"
   xmlns="http://www.w3.org/2000/svg"
   xmlns:sodipodi="http://sodipodi.sourceforge.net/DTD/sodipodi-0.dtd"
   xmlns:inkscape="http://www.inkscape.org/namespaces/inkscape"
   width="19.894674"
   height="17.97541"
   id="svg2445"
   sodipodi:version="0.32"
   inkscape:version="0.46"
   sodipodi:docname="E250.svg"
   inkscape:output_extension="org.inkscape.output.svg.inkscape"
   version="1.0">
  <metadata
     id="metadata2452">
    <rdf:RDF>
      <cc:Work
         rdf:about="">
        <dc:format>image/svg+xml</dc:format>
        <dc:type
           rdf:resource="http://purl.org/dc/dcmitype/StillImage" />
      </cc:Work>
    </rdf:RDF>
  </metadata>
  <defs
     id="defs2450">
    <inkscape:perspective
       sodipodi:type="inkscape:persp3d"
       inkscape:vp_x="0 : 8.9916086 : 1"
       inkscape:vp_y="0 : 1000 : 0"
       inkscape:vp_z="16.573669 : 8.9916086 : 1"
       inkscape:persp3d-origin="8.2868347 : 5.9944057 : 1"
       id="perspective2454" />
  </defs>
  <sodipodi:namedview
     inkscape:window-height="480"
     inkscape:window-width="640"
     inkscape:pageshadow="2"
     inkscape:pageopacity="0.0"
     guidetolerance="10.0"
     gridtolerance="10.0"
     objecttolerance="10.0"
     borderopacity="1.0"
     bordercolor="#666666"
     pagecolor="#ffffff"
     id="base"
     showgrid="false" />
  <path
     style="fill:#000000;stroke:none"
     d="M 7.7003391,0.0066596588 C 5.2162791,1.1905524 3.4343158,2.7188662 2.3878391,4.6004097 C 1.9438791,4.769537 1.5900618,5.1647132 1.2940891,5.7566597 C 1.0826791,5.8940757 0.82995301,6.096257 0.51283911,6.3816597 C 0.12173181,6.550787 -0.050584189,6.7736477 0.012839111,7.0379097 C 0.076261811,7.3550237 0.23846841,7.4763323 0.48158911,7.4129097 L 0.76283911,7.3816597 C 0.94253711,7.6776324 1.0388045,7.9250741 1.0440891,8.1629097 C 1.0493744,8.4007457 1.206295,8.5374484 1.5128391,8.5691597 L 1.5128391,7.2566597 C 1.8299531,7.288371 2.1332251,7.2580445 2.4503391,7.1629097 C 3.6342318,9.9640844 4.5146431,11.583379 5.1065891,12.03791 C 5.1700118,12.196467 4.9577211,12.834722 4.4503391,13.91291 C 4.1966478,14.663413 3.8577638,15.401837 3.4190891,16.16291 C 2.9804144,16.923984 2.7122938,17.31916 2.6065891,17.31916 L 2.0440891,17.97541 L 3.1065891,17.97541 L 3.4503391,17.28791 C 3.6617484,17.28791 3.7729478,17.192105 3.7940891,16.97541 C 3.8152298,16.758716 4.0174112,16.237407 4.4190891,15.41291 C 4.8101964,14.789252 5.0128392,14.434973 5.0128391,14.35041 C 5.4990804,13.483631 6.066111,12.744286 6.7003391,12.16291 L 7.0753391,12.16291 C 7.3338577,12.574625 7.5485801,13.155932 7.7940891,13.81916 C 7.7769542,13.855934 7.7806797,13.874999 7.7628391,13.91291 C 7.5091478,14.663413 7.1702637,15.401837 6.7315891,16.16291 C 6.2929144,16.923984 6.0247938,17.31916 5.9190891,17.31916 L 5.3565891,17.97541 L 6.4503391,17.97541 L 6.7940891,17.28791 C 7.0054984,17.28791 7.1166978,17.192105 7.1378391,16.97541 C 7.1589798,16.758716 7.3611611,16.237407 7.7628391,15.41291 C 7.9269826,15.151168 8.0425848,14.954697 8.1378391,14.78791 C 8.2762095,15.274053 8.3814855,15.757206 8.4503391,16.22541 C 8.5560438,16.944202 8.5463963,17.359135 8.3878391,17.47541 L 7.9815891,17.97541 L 9.0128391,17.97541 L 9.2003391,17.28791 C 9.4011784,17.28791 9.4772263,17.222432 9.4190891,17.06916 C 9.3609518,16.915888 9.2646849,16.728639 9.1378391,16.50666 C 9.0109938,16.28468 8.8843997,15.666643 8.7628391,14.69416 C 8.7258439,14.398199 8.6851141,14.170689 8.6378391,13.91291 C 9.0419739,13.269698 9.4854794,12.691242 9.9815891,12.22541 C 10.127539,12.234281 10.274616,12.222282 10.419089,12.22541 C 10.693114,12.673901 10.972243,13.274388 11.231589,14.00666 C 11.343726,14.323282 11.429059,14.634856 11.512839,14.94416 C 11.303499,15.529207 10.935663,16.283566 10.387839,17.28791 L 10.044089,17.97541 L 11.044089,17.97541 L 11.012839,17.28791 C 11.25596,17.298481 11.36762,17.227717 11.325339,17.06916 C 11.284157,16.914725 11.411768,16.535974 11.731589,15.97541 C 11.745967,16.05891 11.781892,16.142472 11.794089,16.22541 C 11.899794,16.944202 11.858896,17.359135 11.700339,17.47541 L 11.325339,17.97541 L 12.356589,17.97541 L 12.544089,17.28791 C 12.744928,17.28791 12.820977,17.222432 12.762839,17.06916 C 12.704702,16.915888 12.608435,16.72864 12.481589,16.50666 C 12.378056,16.325476 12.269102,15.812835 12.169089,15.13166 C 12.311427,14.842471 12.470469,14.558365 12.575339,14.28791 C 12.776178,13.769957 12.876808,13.152382 12.919089,12.44416 C 13.246774,13.215805 13.854702,13.818447 14.700339,14.22541 C 14.825337,14.285565 14.906318,14.349175 15.012839,14.41291 C 14.886879,15.006926 14.467537,15.938671 13.731589,17.28791 L 13.356589,17.97541 L 14.387839,17.97541 L 14.356589,17.28791 C 14.59971,17.298481 14.680121,17.227716 14.637839,17.06916 C 14.595557,16.910602 14.737084,16.530821 15.075339,15.94416 C 15.29009,15.5717 15.478476,15.226425 15.637839,14.88166 C 15.849248,15.126102 15.950339,15.408757 15.950339,15.69416 C 15.950339,16.254395 15.84971,16.801207 15.606589,17.31916 L 15.200339,17.97541 L 16.231589,17.97541 L 16.262839,17.28791 C 16.569383,17.28791 16.660825,17.105946 16.512839,16.72541 C 16.364852,16.344872 16.334063,15.676752 16.450339,14.72541 C 16.270439,14.552429 16.092195,14.33861 15.919089,14.13166 C 16.088813,13.644799 16.22437,13.088526 16.262839,12.44416 C 16.590524,13.215805 17.167202,13.818447 18.012839,14.22541 C 18.858476,14.632373 19.294089,15.123354 19.294089,15.69416 C 19.294089,16.254395 19.16221,16.801207 18.919089,17.31916 L 18.544089,17.97541 L 19.575339,17.97541 L 19.575339,17.28791 C 19.881883,17.28791 19.973325,17.105946 19.825339,16.72541 C 19.677352,16.344872 19.677813,15.676752 19.794089,14.72541 C 19.244424,14.196887 18.717831,13.508548 18.231589,12.66291 C 18.601556,11.711567 18.783519,10.871593 18.794089,10.13166 C 18.802016,9.5767102 18.622036,9.112422 18.231589,8.7566597 C 18.792446,8.6392437 19.238482,8.4226764 19.544089,8.1629097 C 19.861204,7.893363 19.952646,7.5540168 19.794089,7.1629097 C 19.128149,7.902843 18.247277,8.247474 17.169089,8.1629097 C 16.909993,8.0818304 16.614302,8.0598535 16.325339,8.0379097 C 16.538906,7.7919847 16.586245,7.4981444 16.450339,7.1629097 C 15.988459,7.6761099 15.422856,7.9831367 14.762839,8.1004097 C 14.730474,8.1033904 14.701776,8.1289479 14.669089,8.1316597 C 14.359885,8.157312 14.069662,8.1613151 13.731589,8.1629097 C 13.39248,8.0671637 13.026753,8.0037915 12.637839,8.0066597 C 12.413877,8.0083114 12.190817,8.0348056 11.950339,8.0691597 C 11.939366,8.0680887 11.930086,8.0702503 11.919089,8.0691597 C 11.284861,7.8471804 10.84971,7.7566595 10.606589,7.7566597 C 10.363468,7.7566597 9.9480742,7.7865258 9.3878391,7.8816597 C 8.9967318,7.8076664 8.6881744,7.5602252 8.4503391,7.1004097 C 8.2125038,6.6405944 7.8529395,6.1390421 7.3878391,5.6316597 C 7.9057918,5.4625324 8.614349,5.0480608 9.5128391,4.3504097 C 9.3225704,4.286987 9.0997097,4.2667684 8.8565891,4.2879097 L 9.1690891,4.0691597 C 8.8096931,4.0691597 8.4453057,4.1408459 8.0753391,4.2254097 C 7.7053731,4.309973 7.3612031,4.4611477 7.0440891,4.7254097 C 6.7269744,4.989671 6.5440891,5.0806532 6.5440891,5.0066597 C 7.8125458,3.632499 9.6041563,2.3270457 11.919089,1.0691597 C 12.236203,0.87889166 12.205876,0.79755765 11.825339,0.85040966 C 9.4998364,1.875745 7.7385524,3.0405937 6.5440891,4.2879097 C 7.3897271,3.0405937 8.4583092,1.9926911 9.7003391,1.1629097 C 10.942369,0.33312766 11.392915,-0.056763008 11.044089,0.0066596588 C 8.6988442,1.1243937 6.9829324,2.548319 5.9190891,4.2879097 C 5.8017164,4.2740947 5.677338,4.2763227 5.5440891,4.2879097 L 5.8253391,4.0691597 C 5.4659431,4.0691597 5.1015558,4.1408459 4.7315891,4.2254097 C 4.3616231,4.309973 4.0174531,4.4611477 3.7003391,4.7254097 C 3.3832244,4.989671 3.2315891,5.0806532 3.2315891,5.0066597 C 4.5000458,3.632499 6.2916562,2.3270457 8.6065891,1.0691597 C 8.9237031,0.87889166 8.8933764,0.79755765 8.5128391,0.85040966 C 6.1873364,1.875745 4.4260524,3.0405937 3.2315891,4.2879097 C 4.0772271,3.0405937 5.1145591,1.992691 6.3565891,1.1629097 C 7.5986191,0.33312766 8.0491644,-0.056763008 7.7003391,0.0066596588 z M 5.2940891,4.5379097 C 4.7338538,4.929017 4.1875031,5.1923138 3.6378391,5.3191597 L 3.6378391,5.2879097 C 4.2297851,4.8333797 4.7761358,4.5801917 5.2940891,4.5379097 z M 8.6378391,4.5379097 C 8.0776038,4.929017 7.531253,5.1923138 6.9815891,5.3191597 L 6.9815891,5.2879097 C 7.5735351,4.8333797 8.1198856,4.5801917 8.6378391,4.5379097 z M 5.4190891,4.7879097 C 5.3369138,4.8434047 5.2764805,4.9026751 5.2003391,4.9754097 C 5.2719762,4.9051784 5.3421228,4.8427126 5.4190891,4.7879097 z M 2.5128391,5.0379097 L 2.6065891,5.4441597 L 3.3878391,5.4129097 L 3.3878391,5.8504097 L 3.7628391,5.8816597 C 3.8490942,5.9846867 3.9290279,6.1142365 4.0128391,6.2254097 C 3.9433753,6.2849354 3.9007863,6.3137572 3.8253391,6.3816597 C 3.4342318,6.550787 3.2619158,6.7736477 3.3253391,7.0379097 C 3.3887618,7.3550237 3.5509685,7.4763323 3.7940891,7.4129097 L 4.0753391,7.3816597 C 4.2550371,7.6776324 4.3513044,7.9250741 4.3565891,8.1629097 C 4.3618744,8.4007457 4.5187951,8.5374484 4.8253391,8.5691597 L 4.8253391,7.5066597 C 5.1583091,8.119747 5.578527,8.4129096 6.0753391,8.4129097 C 6.1627279,8.3870167 6.2163629,8.3723386 6.2940891,8.3504097 C 6.9541279,9.8218586 7.5383708,10.894749 7.9815891,11.50666 C 7.881407,12.295139 7.6219237,12.403485 7.2628391,11.78791 L 6.5128391,11.78791 C 5.8257584,12.527843 5.5734931,12.518196 5.7003391,11.72541 C 4.7807078,10.974907 3.8286104,9.2839251 2.8878391,6.6941597 C 2.3698858,6.821005 1.9905658,6.9023388 1.7315891,6.9129097 C 1.4726131,6.9234804 1.2747939,6.9129097 1.1690891,6.9129097 C 1.0633844,6.9129097 0.99836771,6.9590924 0.91908911,7.0066597 C 0.83981041,7.0542264 0.71321651,7.0585891 0.54408911,7.0691597 L 0.54408911,7.0066597 L 0.70033911,6.9754097 L 0.66908911,6.8191597 L 0.48158911,6.8816597 L 0.48158911,6.7879097 C 0.57672311,6.766769 0.84920641,6.5544786 1.3565891,6.1316597 C 1.6737031,6.2796457 2.0794498,6.1780939 2.5128391,5.8504097 C 2.3754231,5.8292684 2.2382585,5.8143359 2.1378391,5.7879097 C 2.0374191,5.7614837 1.8708504,5.7966344 1.6065891,5.9129097 C 1.8708504,5.4372384 2.1640131,5.1436145 2.5128391,5.0379097 z M 5.8565891,5.0379097 L 5.9503391,5.4441597 L 6.7315891,5.4129097 L 6.7003391,5.8504097 L 7.1065891,5.8816597 C 7.4871264,6.3361904 7.83612,6.893573 8.1690891,7.5066597 C 8.5020591,8.119747 8.9222771,8.4129096 9.4190891,8.4129097 C 9.9898944,8.2437817 10.354282,8.1629093 10.512839,8.1629097 C 10.692537,8.1629097 10.909651,8.2129933 11.200339,8.3504097 C 11.491026,8.4878257 12.012797,8.5893775 12.731589,8.6316597 C 13.450381,8.673941 14.255204,8.644075 15.137839,8.5066597 C 16.020472,8.3692437 16.754073,8.4443697 17.356589,8.7879097 C 17.959106,9.1314497 18.24216,9.6483959 18.231589,10.28791 C 18.221018,10.927423 17.998619,11.68124 17.544089,12.56916 C 18.284022,13.636777 18.390398,13.991056 17.856589,13.63166 C 17.32278,13.272264 16.968502,12.866979 16.794089,12.44416 C 16.619676,12.021342 16.351555,11.646845 15.981589,11.31916 C 15.30508,11.625703 14.707722,11.803304 14.200339,11.81916 C 13.692956,11.835015 12.721103,11.697851 11.294089,11.44416 C 11.198954,12.300369 10.976555,12.422139 10.606589,11.78791 L 9.8565891,11.78791 C 9.1695084,12.527843 8.8859929,12.518196 9.0128391,11.72541 C 8.0932078,10.974907 7.1723604,9.2839251 6.2315891,6.6941597 C 5.7136358,6.821005 5.3030658,6.9023388 5.0440891,6.9129097 C 4.7851131,6.9234804 4.6185438,6.9129097 4.5128391,6.9129097 C 4.4071344,6.9129097 4.3108678,6.9590923 4.2315891,7.0066597 C 4.1523104,7.0542264 4.0257164,7.0585891 3.8565891,7.0691597 L 3.8565891,7.0066597 L 4.0128391,6.9754097 L 3.9815891,6.8191597 L 3.8253391,6.8816597 L 3.7940891,6.7879097 C 3.8892231,6.766769 4.1929564,6.5544785 4.7003391,6.1316597 C 5.0174531,6.2796457 5.3919498,6.1780939 5.8253391,5.8504097 C 5.6879231,5.8292684 5.5820083,5.8143359 5.4815891,5.7879097 C 5.3811691,5.7614837 5.1833504,5.7966344 4.9190891,5.9129097 C 5.1833504,5.4372384 5.5077631,5.1436145 5.8565891,5.0379097 z M 4.9815891,5.1941597 C 4.8548026,5.3532146 4.7451658,5.5420058 4.6378391,5.7566597 C 4.5643564,5.8044233 4.4428423,5.9097672 4.3565891,5.9754097 C 4.2608736,5.8601971 4.1833001,5.7494352 4.0753391,5.6316597 C 4.3343154,5.5470961 4.6274784,5.4108544 4.9815891,5.1941597 z M 5.7940891,7.1629097 C 5.9076055,7.4314975 5.9985149,7.6346463 6.1065891,7.8816597 C 6.0922225,7.8840713 6.0899206,7.8791836 6.0753391,7.8816597 C 5.7308234,7.816481 5.4259255,7.6212118 5.2003391,7.2566597 C 5.3906075,7.2452435 5.6038206,7.2199905 5.7940891,7.1629097 z M 8.3253391,12.00666 C 8.3561902,12.01283 8.3882993,12.000728 8.4190891,12.00666 C 8.4290742,12.014848 8.440517,12.030368 8.4503391,12.03791 C 8.4820504,12.117188 8.4363289,12.322474 8.3253391,12.63166 C 8.299084,12.558359 8.2579328,12.476374 8.2315891,12.41291 L 8.3253391,12.00666 z M 11.637839,12.16291 C 11.700038,12.157031 11.763431,12.169919 11.825339,12.16291 L 11.794089,13.06916 C 11.729423,12.839329 11.652097,12.597828 11.575339,12.41291 L 11.637839,12.16291 z M 15.075339,12.16291 C 15.106366,12.159688 15.138135,12.166414 15.169089,12.16291 L 15.106589,13.00666 C 15.033329,12.888591 14.959713,12.787908 14.887839,12.66291 C 14.955351,12.489307 15.019795,12.329473 15.075339,12.16291 z M 13.325339,12.22541 C 13.670336,12.24638 14.019844,12.236531 14.356589,12.22541 C 14.305053,12.33652 14.259361,12.453862 14.200339,12.56916 C 14.940272,13.636777 15.046648,13.991056 14.512839,13.63166 C 13.97903,13.272264 13.624752,12.866979 13.450339,12.44416 C 13.417613,12.364824 13.36495,12.301396 13.325339,12.22541 z M 11.919089,13.50666 C 11.99948,13.859121 12.049104,14.234281 12.106589,14.69416 C 12.050376,14.244457 11.999036,13.868208 11.919089,13.50666 z"
     id="path2456" />
</svg>
