<?xml version="1.0" encoding="UTF-8" standalone="no"?>
<svg
   xmlns:dc="http://purl.org/dc/elements/1.1/"
   xmlns:cc="http://creativecommons.org/ns#"
   xmlns:rdf="http://www.w3.org/1999/02/22-rdf-syntax-ns#"
   xmlns:svg="http://www.w3.org/2000/svg"
   xmlns="http://www.w3.org/2000/svg"
   xmlns:sodipodi="http://sodipodi.sourceforge.net/DTD/sodipodi-0.dtd"
   xmlns:inkscape="http://www.inkscape.org/namespaces/inkscape"
   width="21.573484"
   height="17.983217"
   id="svg2860"
   sodipodi:version="0.32"
   inkscape:version="0.46"
   sodipodi:docname="E253.svg"
   inkscape:output_extension="org.inkscape.output.svg.inkscape">
  <metadata
     id="metadata2867">
    <rdf:RDF>
      <cc:Work
         rdf:about="">
        <dc:format>image/svg+xml</dc:format>
        <dc:type
           rdf:resource="http://purl.org/dc/dcmitype/StillImage" />
      </cc:Work>
    </rdf:RDF>
  </metadata>
  <defs
     id="defs2865">
    <inkscape:perspective
       sodipodi:type="inkscape:persp3d"
       inkscape:vp_x="0 : 8.9916086 : 1"
       inkscape:vp_y="0 : 1000 : 0"
       inkscape:vp_z="21.573484 : 8.9916086 : 1"
       inkscape:persp3d-origin="10.786742 : 5.9944057 : 1"
       id="perspective2869" />
  </defs>
  <sodipodi:namedview
     inkscape:window-height="480"
     inkscape:window-width="640"
     inkscape:pageshadow="2"
     inkscape:pageopacity="0.0"
     guidetolerance="10.0"
     gridtolerance="10.0"
     objecttolerance="10.0"
     borderopacity="1.0"
     bordercolor="#666666"
     pagecolor="#ffffff"
     id="base"
     showgrid="false" />
  <path
     style="fill:#000000; stroke:none"
     d="M 16.490913,12.391797 L 11.919548,12.391797 L 16.490913,15.433076 L 16.490913,12.391797 z M 3.456858,12.391797 L 1.303405,12.391797 L 1.624534,12.958495 L 3.135729,12.958495 L 3.456858,12.391797 z M 0.661148,12.391797 L 0.01889,12.391797 L 0,11.692869 L 21.553415,11.692869 L 21.553415,12.391797 L 17.18984,12.391797 L 17.18984,17.983217 L 16.472023,17.983217 L 16.472023,16.169783 L 10.748372,12.391797 L 4.099116,12.391797 L 3.456858,13.600753 L 1.303405,13.600753 L 0.661148,12.391797 z M 7.159285,2.94683 L 7.253735,3.097949 C 7.2915143,3.0223897 7.367074,2.98461 7.480414,2.98461 C 7.6315333,2.9972033 7.8078393,3.0003517 8.009332,2.994055 C 8.2108247,2.9877583 8.3556477,2.7453373 8.443801,2.266792 C 7.6756097,2.4934713 7.278921,2.7012607 7.253735,2.89016 L 7.159285,2.94683 z M 19.362183,7.159285 C 19.853321,6.479247 20.039072,5.698463 19.919436,4.816933 C 19.799799,3.935403 19.513302,3.4316713 19.059944,3.305738 L 19.059944,3.097949 C 19.299216,3.0727623 19.532192,3.1420253 19.758871,3.305738 C 19.620346,3.104246 19.305514,2.9877583 18.814375,2.956275 C 18.323236,2.9247917 17.838395,2.90905 17.35985,2.90905 C 16.881305,2.90905 16.368129,2.978313 15.82032,3.116839 C 15.272512,3.255365 14.627106,3.343518 13.884102,3.381298 C 13.141097,3.419078 12.187156,3.2585137 11.022277,2.899605 C 9.8573977,2.5406963 9.0734653,2.3549453 8.67048,2.342352 C 8.59492,2.732744 8.487877,2.9751647 8.349351,3.069614 C 8.210825,3.164064 8.0408157,3.1955473 7.839323,3.164064 C 7.6378303,3.1325807 7.4835623,3.1483223 7.376519,3.211289 C 7.2694763,3.274255 7.165582,3.2427717 7.064836,3.116839 C 6.81297,3.3057383 6.5674007,3.4253747 6.328128,3.475748 C 6.4792473,3.727614 6.5485103,3.9668863 6.535917,4.193565 L 6.460358,4.193565 C 6.460358,4.017259 6.4099847,3.8724363 6.309238,3.759097 C 6.208492,3.645757 6.1266357,3.5355657 6.063669,3.428523 C 6.0007023,3.3214803 5.9629223,3.192399 5.950329,3.041279 C 6.202195,3.0034997 6.5736973,3.0286863 7.064836,3.116839 L 6.913716,2.83349 L 6.989275,2.79571 C 6.9766823,2.5690307 6.9074197,2.405318 6.781487,2.304572 C 6.567401,2.405318 6.3533147,2.4179113 6.139228,2.342352 C 6.0888553,2.5438447 6.0321857,2.694964 5.969219,2.79571 C 6.2462717,2.732744 6.5548073,2.770524 6.894826,2.90905 L 6.894826,3.0035 C 6.542214,2.8775667 6.183305,2.8649733 5.818099,2.96572 C 5.8055063,3.2931453 5.692167,3.759097 5.478081,4.363575 C 5.6669803,4.464321 5.7456883,4.5745123 5.714205,4.694149 C 5.6827217,4.813785 5.6197553,4.8798997 5.525306,4.892493 C 5.430856,4.9050863 5.3773343,4.873603 5.364741,4.798043 C 5.3521477,4.7224837 5.3615927,4.675259 5.393076,4.656369 C 5.4245593,4.637479 5.4277077,4.6122923 5.402521,4.580809 C 5.3773343,4.5493257 5.3206647,4.5839573 5.232512,4.684704 C 5.2451053,4.86101 5.3710383,4.980646 5.610311,5.043612 C 5.786617,4.980646 5.925143,4.980646 6.025889,5.043612 C 6.2273817,5.043612 6.3344247,4.8610093 6.347018,4.495804 L 6.479248,4.476914 C 6.7059267,4.867306 6.9514957,5.0939853 7.215955,5.156952 C 7.4804137,5.2199187 7.612643,5.358445 7.612643,5.572531 L 8.103782,5.969219 C 8.103782,6.6240703 8.3745377,7.2600313 8.916049,7.877102 C 9.4953403,8.1919347 10.080928,8.280088 10.672812,8.141562 C 10.672812,7.9652553 10.465023,7.8141357 10.049445,7.688203 C 9.6338663,7.5622703 9.3725553,7.2978113 9.265512,6.894826 C 9.1584693,6.4918407 9.114393,6.114042 9.133283,5.76143 C 9.152173,5.408818 9.2906993,5.106579 9.548862,4.854713 C 9.8070247,4.602847 9.9927753,4.1998617 10.106114,3.645757 C 10.295013,3.645757 10.39576,3.6772403 10.408354,3.740207 C 10.282421,4.2943117 10.084077,4.7130383 9.813321,4.996387 C 9.542565,5.2797363 9.4103353,5.6701283 9.416632,6.167563 C 9.4229287,6.6649983 9.5897897,7.0396487 9.917215,7.291514 C 10.244641,7.54338 10.502804,7.5937533 10.691703,7.442634 C 11.107142,7.7825598 11.869679,8.9440136 11.655089,6.781487 L 11.182841,6.290348 L 10.956161,5.79921 L 11.182841,5.70476 L 11.61731,6.290348 C 11.831395,6.4162813 11.938438,6.561104 11.938438,6.724816 L 12.108448,7.895992 C 13.468523,8.0219247 14.941938,7.807839 16.528692,7.253735 C 16.465725,7.140395 16.358682,7.0522417 16.207563,6.989275 L 16.283123,6.762597 C 16.736482,6.8885297 17.034301,6.9593958 17.097267,7.1734811 C 17.686602,7.0676223 20.111198,9.2491595 19.362183,7.159285 z M 6.158119,3.192399 L 6.252568,3.343518 L 6.630367,3.211289 L 6.158119,3.192399 z M 16.774261,7.367074 L 14.941937,7.990442 L 14.941937,8.084891 L 16.812042,7.442634 L 16.774261,7.367074 z M 17.09539,7.782653 C 17.057611,8.135265 17.111132,8.409169 17.255955,8.604365 C 17.400777,8.799561 17.504671,8.7712263 17.567638,8.519361 C 17.832097,8.6326997 17.935992,8.5634363 17.879322,8.311571 C 17.822652,8.059705 17.592825,7.8519157 17.18984,7.688203 L 17.09539,7.782653 z M 20.212229,4.231345 C 20.36335,4.6847037 20.391685,5.2293633 20.297234,5.865324 C 20.202785,6.5012853 20.029627,6.9577923 19.777761,7.234845 C 19.878508,7.6378303 20.073703,8.0597053 20.363348,8.50047 C 20.275195,9.2182873 20.275195,9.8164687 20.363348,10.295014 C 20.451502,10.773559 20.520765,11.085243 20.571138,11.230065 C 20.621511,11.374888 20.514469,11.4473 20.25001,11.4473 L 20.25001,11.995109 L 18.776594,11.995109 C 18.814373,11.642496 18.996976,11.315071 19.324402,11.012832 C 19.563675,9.5016367 19.160689,8.5508433 18.115446,8.160452 C 18.228786,8.4249107 18.200451,8.588623 18.030441,8.651589 C 17.860433,8.7145557 17.715611,8.7964123 17.595974,8.897159 C 17.476337,8.9979057 17.366146,8.9853123 17.2654,8.859379 L 17.303179,9.407187 C 17.303179,9.5457137 17.177246,9.6590533 16.925381,9.747206 C 16.648328,10.402057 16.51295,10.839674 16.519247,11.060057 C 16.525544,11.28044 16.462577,11.396927 16.330347,11.40952 C 16.198118,11.422114 16.081631,11.415818 15.980885,11.390631 L 15.810875,11.976218 L 14.4508,11.976218 C 14.513766,11.598419 14.690072,11.289884 14.979717,11.050611 C 15.269363,10.748372 15.508636,10.439837 15.697536,10.125005 C 15.886435,9.810173 16.031258,9.438671 16.132004,9.010499 L 16.037554,7.933772 C 15.29455,8.1730447 14.923048,8.3241643 14.923048,8.387131 L 14.790818,9.010499 L 14.601919,9.010499 C 14.501173,8.620107 14.4508,8.3304613 14.4508,8.141562 C 13.921881,8.242308 13.17258,8.2737913 12.202897,8.236012 C 12.265864,8.5130633 12.338275,8.7302973 12.420132,8.887714 C 12.501988,9.04513 12.533471,9.1993977 12.514582,9.350517 C 12.495691,9.5016363 12.492543,9.6716457 12.505136,9.860545 C 12.517729,10.049444 12.656256,10.39576 12.920715,10.899492 C 13.097021,11.201731 12.989978,11.384333 12.599586,11.4473 L 12.599586,11.995109 L 11.258401,11.995109 C 11.359147,11.592124 11.54175,11.270994 11.806209,11.031721 L 11.655089,9.766096 C 11.46619,9.58979 11.346554,9.375704 11.296181,9.123838 L 10.823933,8.387131 C 10.609847,8.4375037 10.383167,8.5949197 10.143894,8.859379 C 9.7535027,9.1238377 9.5362687,9.3536653 9.492192,9.548862 C 9.4481153,9.744058 9.3127377,9.892029 9.086059,9.992775 C 8.6704797,10.521693 8.468987,10.886898 8.481581,11.088391 C 8.4941737,11.289884 8.4469487,11.381186 8.339906,11.362295 C 8.2328627,11.343406 8.179341,11.396927 8.179341,11.52286 L 7.914882,11.995109 L 6.611477,11.995109 C 6.7751897,11.554344 6.9892757,11.220621 7.253735,10.993941 C 7.3418877,10.704296 7.5181937,10.496507 7.782653,10.370574 C 8.0848923,9.9298087 8.2423083,9.6275697 8.254901,9.463857 C 8.2674943,9.3001437 8.311571,9.174211 8.387131,9.086059 C 8.4626903,8.9979057 8.6012167,8.7649297 8.80271,8.387131 L 8.80271,8.198232 C 8.1352653,7.5056007 7.801543,6.825563 7.801543,6.158119 C 7.5748637,5.9944057 7.4268923,5.8306927 7.357629,5.66698 C 7.2883663,5.5032673 7.156137,5.393076 6.960941,5.336406 C 6.765745,5.2797367 6.6051807,5.1695457 6.479248,5.005833 C 6.3785013,5.1947323 6.2588647,5.2954787 6.120338,5.308072 C 5.4025207,5.308072 5.043612,5.232512 5.043612,5.081392 C 4.980646,5.018426 4.949163,4.9050867 4.949163,4.741374 C 4.949163,4.5776607 5.0310193,4.4328377 5.194732,4.306905 C 5.408818,3.702427 5.5095643,3.3466667 5.496971,3.239624 C 5.4843777,3.1325807 5.4906743,2.990906 5.515861,2.8146 C 4.835823,2.5501413 4.3824647,2.1975293 4.155786,1.756764 C 3.9291067,1.3159987 3.815767,0.95709 3.815767,0.680038 C 3.815767,0.390392 3.8913267,0.18260267 4.042446,0.05667 C 4.118006,0.01889 4.1809723,0.062966333 4.231345,0.188899 C 4.2187517,1.045243 4.779153,1.6812043 5.912549,2.096783 C 5.9629223,2.021223 6.0636687,2.0149263 6.214788,2.077893 C 6.3659073,2.140859 6.479247,2.1377107 6.554807,2.068448 C 6.630367,1.9991847 6.7751897,1.9897397 6.989275,2.040113 C 7.845619,1.7630603 8.361944,1.4419313 8.53825,1.076726 C 8.6641833,0.86264 8.72715,0.579291 8.72715,0.226679 L 8.72715,0 L 8.916049,0 C 9.0042023,0 9.0860587,0.22667933 9.161618,0.680038 C 9.161618,1.0830233 8.9790153,1.5048983 8.61381,1.945663 L 8.783819,1.888993 L 8.783819,1.945663 C 9.4008903,1.9960363 10.376871,2.2290123 11.71176,2.644591 C 13.046648,3.0601697 14.173747,3.151471 15.093058,2.918495 C 16.012368,2.685519 17.051314,2.5816243 18.209896,2.606811 C 19.368479,2.6319977 20.124077,2.9720163 20.476688,3.626867 C 20.829301,4.2817183 20.942641,5.389928 20.816708,6.951496 C 20.804114,7.1529887 20.986716,7.7007967 21.364515,8.59492 C 21.566008,9.489044 21.622678,10.147043 21.534525,10.568918 C 21.446372,10.990793 21.282659,11.195434 21.043386,11.182841 C 20.86708,11.182841 20.734851,11.012831 20.646698,10.672812 C 20.558545,10.332794 20.514469,9.772393 20.514469,8.991609 C 20.514469,8.210825 20.505024,7.6535717 20.486134,7.319849 C 20.467243,6.986127 20.460946,6.507582 20.467243,5.884214 C 20.47354,5.2608467 20.388535,4.7098903 20.212229,4.231345 z M 8.311571,2.436801 C 8.1856383,2.4493943 8.047112,2.4903227 7.895992,2.559586 C 7.7448727,2.6288493 7.5748633,2.732744 7.385964,2.87127 C 7.3985573,2.8964567 7.4804137,2.90905 7.631533,2.90905 C 7.7826523,2.90905 7.8991403,2.9059017 7.980997,2.899605 C 8.0628537,2.8933083 8.12582,2.861825 8.169896,2.805155 C 8.2139733,2.748485 8.2391603,2.7012603 8.245457,2.663481 C 8.251753,2.625701 8.223418,2.647739 8.160452,2.729595 C 8.0974853,2.8114517 8.006184,2.8460833 7.886548,2.83349 C 7.7669113,2.8208967 7.744873,2.7831167 7.820433,2.72015 C 7.8959923,2.657184 8.059705,2.5627343 8.311571,2.436801 z M 3.079059,12.127337 L 0,12.127337 L 0,8.70826 C 0,8.5067673 0.22038267,8.406021 0.661148,8.406021 C 1.0389467,8.406021 1.2939607,8.642145 1.42619,9.114393 C 1.5584193,9.586641 1.7063903,9.958143 1.870103,10.228899 C 2.0338163,10.499655 2.4368017,10.64133 3.079059,10.653923 C 3.721317,10.64133 4.1243023,10.499655 4.288015,10.228899 C 4.4517277,9.958143 4.5996987,9.586641 4.731928,9.114393 C 4.864158,8.642145 5.1191723,8.406021 5.496971,8.406021 C 5.9377363,8.406021 6.158119,8.5067673 6.158119,8.70826 L 6.158119,12.127337 L 3.079059,12.127337 z M 3.079059,11.163951 L 3.079059,11.163951 C 2.411615,11.163951 1.9267733,11.006535 1.624534,10.691703 C 1.3222953,10.376871 1.1270993,10.011666 1.038946,9.596087 C 0.95079333,9.1805077 0.82486067,8.972718 0.661148,8.972718 C 0.49743533,8.972718 0.42187533,9.0356847 0.434468,9.161618 L 0.434468,11.692869 L 5.72365,11.692869 L 5.72365,9.161618 C 5.7362433,9.0356847 5.6606837,8.972718 5.496971,8.972718 C 5.3332583,8.972718 5.2073253,9.1805077 5.119172,9.596087 C 5.0310193,10.011666 4.8358233,10.376871 4.533584,10.691703 C 4.2313453,11.006535 3.7465037,11.163951 3.079059,11.163951 L 3.079059,11.163951 L 3.079059,11.163951 z"
     id="path2862"
     sodipodi:nodetypes="cccccccccccccccccccccccccssccccscccssssscsssccccsscccccccccccssssscccccsccccssssccssscccccccccccccccccccccccscscccsccsscccccsscccssccccscccccccssssccccccccscsscccccsscccsscssscscsssccsscscccccccssssscssssssccsssssssssccccssscssscccccsssccccsssccc" />
</svg>
