<?xml version="1.0" encoding="UTF-8" standalone="no"?>
<svg
   xmlns:dc="http://purl.org/dc/elements/1.1/"
   xmlns:cc="http://creativecommons.org/ns#"
   xmlns:rdf="http://www.w3.org/1999/02/22-rdf-syntax-ns#"
   xmlns:svg="http://www.w3.org/2000/svg"
   xmlns="http://www.w3.org/2000/svg"
   xmlns:sodipodi="http://sodipodi.sourceforge.net/DTD/sodipodi-0.dtd"
   xmlns:inkscape="http://www.inkscape.org/namespaces/inkscape"
   width="1563"
   height="1798"
   id="svg2"
   sodipodi:version="0.32"
   inkscape:version="0.46"
   sodipodi:docname="E25B.svg"
   inkscape:output_extension="org.inkscape.output.svg.inkscape"
   version="1.0">
  <metadata
     id="metadata9">
    <rdf:RDF>
      <cc:Work
         rdf:about="">
        <dc:format>image/svg+xml</dc:format>
        <dc:type
           rdf:resource="http://purl.org/dc/dcmitype/StillImage" />
      </cc:Work>
    </rdf:RDF>
  </metadata>
  <defs
     id="defs7">
    <inkscape:perspective
       sodipodi:type="inkscape:persp3d"
       inkscape:vp_x="0 : 8.9916086 : 1"
       inkscape:vp_y="0 : 1000 : 0"
       inkscape:vp_z="15.627081 : 8.9916086 : 1"
       inkscape:persp3d-origin="7.8135405 : 5.9944057 : 1"
       id="perspective11" />
    <inkscape:perspective
       id="perspective2502"
       inkscape:persp3d-origin="10.490479 : 5.9895833 : 1"
       inkscape:vp_z="20.980957 : 8.984375 : 1"
       inkscape:vp_y="0 : 1000 : 0"
       inkscape:vp_x="0 : 8.984375 : 1"
       sodipodi:type="inkscape:persp3d" />
  </defs>
  <sodipodi:namedview
     inkscape:window-height="762"
     inkscape:window-width="1273"
     inkscape:pageshadow="2"
     inkscape:pageopacity="0.0"
     guidetolerance="10.0"
     gridtolerance="10.0"
     objecttolerance="10.0"
     borderopacity="1.0"
     bordercolor="#666666"
     pagecolor="#ffffff"
     id="base"
     showgrid="false"
     showguides="true"
     inkscape:guide-bbox="true"
     inkscape:zoom="0.23186966"
     inkscape:cx="723.12799"
     inkscape:cy="1126.8626"
     inkscape:window-x="2"
     inkscape:window-y="22"
     inkscape:current-layer="svg2" />
  <path
     style="fill:#000000;stroke:none"
     d="M 718.3125,102.875 C 695.40451,103.04925 678.00761,116.52397 666.15625,143.28125 C 646.70855,187.18994 627.67473,218.02614 609.03125,235.78125 C 590.38785,253.53638 573.70228,265.52076 559,271.6875 C 531.4149,260.56969 507.69346,260.41299 487.84375,271.28125 C 467.99322,282.15017 453.07646,297.24501 443.09375,316.53125 C 311.49491,308.10443 218.88029,353.43782 136.375,451.8125 C 31.728194,576.58748 16.885754,720.47807 8.5625,876.8125 C 4.913677,1099.571 126.72294,1260.7938 356.34375,1359.9688 C 391.18895,1386.7726 399.68182,1455.5854 381.8125,1566.375 C 341.6065,1626.2374 300.28338,1670.4404 257.84375,1699.0312 C 215.40415,1727.6222 194.63788,1752.8601 195.53125,1774.75 C 196.42475,1796.64 212.9601,1807.5938 245.125,1807.5938 L 404.59375,1807.5938 C 435.86505,1807.5937 457.53183,1801.3521 469.59375,1788.8438 C 481.65555,1776.3351 497.5312,1739.6931 517.1875,1678.9375 C 535.05683,1608.3537 557.83375,1546.7147 585.53125,1494 C 597.14627,1519.9108 612.7811,1541.3365 632.4375,1558.3125 C 655.66763,1580.6491 670.40175,1609.0078 676.65625,1643.4062 C 682.91037,1677.8047 673.098,1705.7442 647.1875,1727.1875 C 621.27703,1748.6305 608.10275,1767.3862 607.65625,1783.4688 C 607.20947,1799.551 617.6818,1807.5937 639.125,1807.5938 L 805.3125,1807.5938 C 823.18183,1807.5937 832.1249,1791.9588 832.125,1760.6875 C 832.12503,1730.3096 824.0824,1679.5931 808,1608.5625 C 791.91763,1537.5319 787.8962,1488.1662 795.9375,1460.4688 C 870.09523,1479.2315 944.24853,1495.7669 1018.4062,1510.0625 C 1019.2997,1551.162 1015.519,1584.4424 1007.0312,1609.9062 C 998.54331,1635.3699 977.53625,1659.4979 944.03125,1682.2812 C 910.52637,1705.0646 887.95895,1716.4688 876.34375,1716.4688 C 851.32663,1724.5099 838.8125,1741.7052 838.8125,1768.0625 C 838.81253,1794.4197 844.6349,1807.5937 856.25,1807.5938 L 1007.6875,1807.5938 C 1036.2784,1807.5937 1049.6931,1800.2109 1047.9062,1785.4688 C 1046.1192,1770.7264 1056.1725,1755.9923 1078.0625,1741.25 C 1099.9523,1726.5078 1140.8252,1698.5995 1200.6875,1657.5 C 1193.5398,1598.5313 1208.7243,1555.1975 1246.25,1527.5 C 1279.3083,1559.6649 1319.9716,1592.7046 1368.2188,1626.6562 C 1378.0469,1673.1164 1374.4446,1705.2869 1357.4688,1723.1562 C 1323.517,1747.2797 1306.5625,1767.3863 1306.5625,1783.4688 C 1306.5625,1799.551 1314.605,1807.5937 1330.6875,1807.5938 L 1495.5312,1807.5938 C 1513.4006,1807.5937 1523.9039,1795.0795 1527.0312,1770.0625 C 1530.1583,1745.0453 1530.818,1719.1475 1529.0312,1692.3438 C 1527.2443,1665.5397 1528.1447,1637.8411 1531.7188,1609.25 C 1535.2926,1580.6592 1500.0015,1527.0624 1425.8438,1448.4375 C 1464.263,1397.5097 1484.3692,1333.6193 1486.1562,1256.7812 C 1487.8082,1185.7478 1476.0731,1139.5264 1451,1118.125 C 1484.5165,1144.0516 1503.3874,1175.5145 1507.5938,1212.5312 C 1512.0612,1251.8437 1512.0612,1290.2867 1507.5938,1327.8125 C 1503.1265,1365.3379 1510.2684,1387.2144 1529.0312,1393.4688 C 1547.794,1399.723 1561.2086,1396.6024 1569.25,1384.0938 C 1577.2911,1371.5853 1579.7212,1331.3721 1576.5938,1263.4688 C 1573.4667,1195.5653 1563.4134,1136.387 1546.4375,1085.9062 C 1529.4618,1035.4253 1494.8617,989.84023 1442.5938,949.1875 C 1390.3261,908.53474 1312.6017,877.50566 1209.4062,856.0625 C 1106.2109,834.61928 999.43695,831.91762 889.09375,848 C 778.75073,864.08244 676.65785,873.92618 582.84375,877.5 C 556.21917,853.58446 544.6738,810.61668 532.71875,777.1875 C 601.76245,778.0363 664.49222,792.26819 720.9375,819.875 C 777.382,847.48106 815.61963,849.60398 835.65625,826.21875 C 855.69365,802.83283 869.91009,790.57519 878.3125,789.4375 C 886.7137,788.29977 890.48841,780.46229 889.625,766 C 888.761,751.53698 877.21707,738.54112 854.96875,726.90625 L 868.9375,694.46875 L 800.8125,665.21875 L 783.5625,694.0625 L 733.21875,674.6875 C 772.57595,660.52716 796.58049,633.13241 805.25,592.53125 C 813.9209,551.93018 804.14826,516.56377 775.90625,486.4375 C 747.66285,456.31114 714.1773,441.50751 675.4375,442.03125 C 636.6975,442.55496 615.56779,447.32742 612.125,456.28125 C 608.6835,465.23515 625.43143,473.17321 662.3125,480.15625 C 699.1946,487.14007 725.21372,507.3245 740.40625,540.65625 C 755.59875,573.98651 745.16453,599.49458 709.0625,617.21875 C 672.9598,634.94215 639.42689,633.23188 608.5,612.09375 C 577.5735,590.95634 561.30863,573.12155 559.6875,558.625 L 589.3125,557.71875 L 596.90625,515.90625 L 570.15625,503.34375 C 593.97525,446.72706 628.05506,414.85199 672.40625,407.75 L 697.5625,430.53125 L 731.46875,386.5 L 710.53125,370.75 C 705.15675,355.32415 711.72491,344.25233 730.25,337.5 C 788.8624,350.78101 827.44635,345.70377 845.96875,322.25 C 864.49055,298.79546 868.60972,265.93502 858.375,223.71875 C 848.1388,181.50241 818.41851,146.59669 769.1875,118.9375 C 749.95699,108.13285 732.99711,102.7633 718.3125,102.875 z M 726.3125,160.4375 C 744.51151,160.66951 763.568,171.90643 783.4375,194.15625 C 815.2278,229.75665 825.73982,257.18628 815,276.4375 C 804.2586,295.68867 781.07517,304.51807 745.46875,302.90625 C 709.86235,301.29442 688.20923,310.14211 680.5,329.53125 C 672.7893,348.92034 673.23352,364.1075 681.84375,375.125 L 675.6875,385.125 C 617.1135,387.78769 571.44123,428.42591 538.65625,507.03125 C 505.87045,585.63581 537.09919,638.84659 632.25,666.6875 L 844.3125,760.5625 C 814.9817,804.78315 781.00216,813.67121 742.34375,787.25 C 703.68455,760.82803 645.08392,743.58095 566.5,735.46875 C 487.9169,727.35585 427.58204,709.8302 385.53125,682.875 C 343.48045,655.91979 336.10841,608.86602 363.4375,541.78125 L 325.125,533.25 C 326.4718,553.80775 320.75111,583.32508 308,621.84375 C 295.2483,660.36161 311.36899,694.69028 356.3125,724.8125 C 401.2567,754.93547 437.76278,768.77119 465.90625,768.46875 C 508.46259,778.71528 494.89805,800.71475 458.21875,799.09375 C 420.69315,796.86005 382.94094,785.45602 344.96875,764.90625 C 306.99645,744.35657 277.49648,731.42337 256.5,726.0625 C 235.5035,720.70171 233.28339,726.73365 249.8125,744.15625 C 266.3417,761.57891 296.0511,782.10441 338.9375,805.78125 C 381.824,829.45808 421.34586,843.53266 457.53125,848 C 493.7166,852.46739 508.48215,860.96028 501.78125,873.46875 C 495.08004,885.97736 469.15133,889.09798 424.03125,882.84375 C 378.91115,876.58941 337.37854,864.5568 299.40625,846.6875 C 261.43395,828.81819 232.83461,814.05253 213.625,802.4375 C 194.4155,790.82244 209.39058,810.7194 258.53125,862.09375 C 307.67185,913.46808 400.37133,936.90487 536.625,932.4375 C 672.87873,927.97018 784.78405,919.47724 872.34375,906.96875 C 959.90343,894.46015 1042.7593,892.44955 1120.9375,900.9375 C 1199.1158,909.42545 1267.0276,925.75144 1324.6562,949.875 C 1382.2848,973.99854 1429.1896,1007.9388 1465.375,1051.7188 C 1501.5603,1095.4985 1504.6811,1107.112 1474.75,1086.5625 C 1444.8189,1066.0128 1421.1415,1063.3425 1403.7188,1078.5312 C 1386.2963,1093.7201 1388.7573,1114.4865 1411.0938,1140.8438 C 1433.4305,1167.201 1444.5938,1208.0738 1444.5938,1263.4688 C 1444.5938,1318.8635 1419.5653,1379.6336 1369.5312,1445.75 C 1455.304,1525.2686 1498.4283,1590.4787 1498.875,1641.4062 C 1499.3217,1692.3338 1497.9709,1727.4156 1494.8438,1746.625 C 1491.7167,1765.8347 1485.4752,1776.0974 1476.0938,1777.4375 C 1466.7125,1778.7779 1467.3723,1757.5611 1478.0938,1713.7812 L 1468.7188,1713.7812 C 1457.9972,1754.8806 1447.9439,1776.0974 1438.5625,1777.4375 C 1429.1811,1778.7778 1426.0604,1775.8665 1429.1875,1768.7188 C 1432.3146,1761.571 1439.2473,1743.2657 1449.9688,1713.7812 L 1439.25,1713.7812 C 1424.9546,1752.2002 1411.7493,1772.7569 1399.6875,1775.4375 C 1387.6257,1778.1178 1395.0086,1757.5611 1421.8125,1713.7812 L 1407.0625,1713.7812 C 1390.9801,1735.2243 1379.3665,1751.76 1372.2188,1763.375 C 1365.071,1774.9901 1361.0496,1774.2991 1360.1562,1761.3438 C 1359.2629,1748.3884 1368.6562,1735.6647 1388.3125,1723.1562 C 1402.6079,1702.6065 1410.2005,1689.223 1411.0938,1682.9688 C 1412.8808,1674.034 1408.4091,1648.5553 1397.6875,1606.5625 C 1330.6775,1560.9957 1274.8296,1512.0803 1230.1562,1459.8125 C 1185.4829,1407.5445 1137.6776,1376.4844 1086.75,1366.6562 L 1076.0312,1392.125 C 1124.2784,1405.527 1160.9204,1431.0057 1185.9375,1468.5312 C 1082.2953,1476.5724 946.0526,1453.7953 777.1875,1400.1875 L 779.84375,1338.5312 L 749.03125,1334.5 C 742.77687,1392.5754 741.0071,1434.1391 743.6875,1459.1562 C 746.36793,1484.1732 754.8295,1532.1882 769.125,1603.2188 C 783.42043,1674.2494 790.59385,1716.0228 790.59375,1728.5312 C 796.84813,1751.7613 795.2564,1763.8252 785.875,1764.7188 C 776.49363,1765.6122 771.8125,1766.0625 771.8125,1766.0625 L 775.84375,1715.125 L 766.46875,1715.125 C 763.78833,1748.1833 757.5155,1765.3784 747.6875,1766.7188 C 737.85943,1768.0588 734.52895,1766.7078 737.65625,1762.6875 C 740.78337,1758.6669 744.56385,1742.8225 749.03125,1715.125 L 739.65625,1715.125 C 730.72157,1751.7571 720.21785,1769.6123 708.15625,1768.7188 C 696.09447,1767.8253 700.77575,1750.4207 722.21875,1716.4688 L 711.5,1716.4688 C 699.88493,1735.2316 690.07225,1748.8559 682.03125,1757.3438 C 673.99007,1765.8317 669.5184,1765.3815 668.625,1756 C 667.73143,1746.6186 675.98355,1733.6542 693.40625,1717.125 C 710.82877,1700.5958 718.87145,1684.3014 717.53125,1668.2188 C 716.19107,1652.1363 711.26895,1630.9196 702.78125,1604.5625 C 694.29317,1578.2053 672.6577,1548.9461 637.8125,1516.7812 C 602.07383,1435.4758 540.4035,1331.3724 452.84375,1204.5 L 448.84375,1204.5 C 443.48295,1204.5001 435.85947,1208.9716 426.03125,1217.9062 L 519.84375,1372.0312 C 212.49123,1275.5368 58.1527,1119.8475 56.8125,904.96875 C 55.778483,751.87595 83.790274,602.14343 185.46875,486.46875 C 247.6764,415.69812 304.74455,379.72022 352.78125,375.0625 C 305.88565,404.82352 269.67071,433.55931 244.125,461.25 C 339.1762,508.06515 403.15876,495.39806 436.03125,423.25 L 415.1875,405.1875 C 368.8465,456.22981 330.9182,472.02338 301.4375,452.46875 C 346.6124,427.1854 380.56636,399.07723 403.21875,368.21875 L 395.59375,359.90625 C 434.05925,365.44368 462.5381,364.84684 481.0625,358.09375 L 462.0625,375.4375 L 468.5625,382.59375 L 518.875,378.03125 C 531.3766,386.94746 553.08534,377.30218 583.96875,349.09375 L 698,244.9375 L 685.75,238.65625 L 575.28125,339.5625 L 568.09375,322.1875 C 635.33545,262.22299 677.46523,212.13086 694.46875,171.90625 C 704.78493,164.11768 715.39309,160.2983 726.3125,160.4375 z M 728.28125,171.0625 C 726.97626,171.12505 725.96112,171.47816 725.21875,172.15625 C 722.05105,175.04964 718.43637,179.42348 714.375,185.3125 C 710.3122,191.20147 711.23298,195.7888 717.15625,199.09375 C 723.08025,202.39799 726.77244,204.85401 728.21875,206.4375 C 729.66575,208.02177 732.50056,208.35437 736.71875,207.40625 C 740.93745,206.45887 744.44173,203.95285 747.28125,199.90625 C 750.12155,195.85895 751.10385,191.7173 750.15625,187.5 C 749.20895,183.28121 746.13202,179.15277 741,175.125 C 735.38883,172.2616 731.15222,170.9249 728.28125,171.0625 z M 705.40625,200.65625 C 704.75264,200.67474 704.07345,200.71653 703.40625,200.78125 C 699.30925,207.42806 698.11118,213.23986 699.78125,218.25 C 701.45295,223.26021 704.7238,226.82 709.5625,228.9375 C 714.4012,231.05353 718.24734,229.34276 721.15625,223.78125 C 724.06505,218.21973 725.41435,214.07504 725.15625,211.40625 C 724.89735,208.73816 722.53565,206.19724 718.09375,203.71875 C 714.20577,201.55 709.98155,200.52682 705.40625,200.65625 z M 540.34375,294.375 C 546.2068,294.41115 552.45497,294.82025 559.0625,295.59375 L 564.28125,306.09375 C 545.23915,307.50916 529.54923,310.58985 517.1875,315.34375 C 504.8264,320.0984 488.7105,332.24628 468.84375,351.84375 L 466.09375,336.90625 C 472.99645,326.97033 479.85757,318.89455 486.6875,312.65625 C 493.5173,306.41792 500.30511,302.04107 507.0625,299.5 C 516.35447,296.00657 527.44504,294.29547 540.34375,294.375 z M 539.5625,336.71875 C 546.32581,336.46878 552.82015,339.47394 559.0625,345.6875 C 546.9785,361.08241 529.28274,366.35086 505.96875,361.5 C 510.21605,355.71404 514.38568,350.94663 518.46875,347.1875 C 525.75985,340.47479 532.79919,336.96872 539.5625,336.71875 z M 654.75,456.96875 C 695.94347,456.4269 729.27971,470.48138 754.8125,499.15625 C 782.9866,530.7975 790.94029,564.58466 778.6875,600.46875 C 766.4361,636.35292 734.67936,658.8082 683.40625,667.875 L 678,661.9375 C 750.3109,640.91864 781.39838,603.81212 771.28125,550.59375 C 761.16495,497.37615 717.56809,466.73109 640.5,458.6875 L 641.6875,457.59375 C 646.11667,457.22492 650.48861,457.0248 654.75,456.96875 z M 440.78125,1390.7812 C 465.79825,1400.6094 487.70605,1406.4317 506.46875,1408.2188 C 525.23156,1410.0056 539.0653,1418.0484 548,1432.3438 L 478.3125,1678.9375 C 449.7216,1736.1193 427.15409,1764.4778 410.625,1764.0312 C 394.0958,1763.5844 399.67751,1746.8394 427.375,1713.7812 L 413.96875,1713.7812 C 384.48435,1746.8394 366.17902,1763.3751 359.03125,1763.375 C 350.99015,1763.375 359.4829,1746.8394 384.5,1713.7812 L 373.78125,1713.7812 C 343.40335,1746.8394 322.39638,1763.3751 310.78125,1763.375 C 299.16625,1763.3751 312.58091,1745.4888 351,1709.75 L 337.59375,1709.75 C 298.28125,1748.1692 271.24218,1766.7153 256.5,1765.375 C 241.7578,1764.0349 261.65474,1743.478 316.15625,1703.7188 C 370.65775,1663.9594 405.94882,1612.8237 422.03125,1550.2812 C 438.11365,1487.7384 444.35506,1434.5611 440.78125,1390.7812 z M 1208.7188,1508.7188 C 1175.6606,1542.6705 1159.125,1587.8056 1159.125,1644.0938 C 1120.7059,1669.1109 1086.9752,1692.5474 1057.9375,1714.4375 C 1028.8999,1736.3273 1013.7152,1751.9623 1012.375,1761.3438 C 1011.0348,1770.7251 1008.1235,1775.1968 1003.6562,1774.75 C 999.18891,1774.3031 997.4192,1765.1506 998.3125,1747.2812 L 994.28125,1748.625 C 981.77267,1764.7073 970.60915,1772.7501 960.78125,1772.75 C 950.05957,1772.7501 956.3323,1762.9376 979.5625,1743.2812 L 972.84375,1743.2812 C 949.61363,1763.8309 933.76925,1773.8528 925.28125,1773.4062 C 916.79327,1772.9594 925.49575,1763.8067 951.40625,1745.9375 L 943.375,1744.5938 C 911.21023,1766.9303 892.6641,1776.1143 887.75,1772.0938 C 882.83603,1768.0731 881.48515,1762.9104 883.71875,1756.6562 C 885.95243,1750.4018 895.55535,1746.1709 912.53125,1743.9375 C 929.50697,1741.7038 959.00698,1722.4979 1001,1686.3125 C 1042.9929,1650.1269 1063.0994,1591.8181 1061.3125,1511.4062 C 1110.4531,1515.8735 1159.5781,1514.9731 1208.7188,1508.7188 z"
     id="path4"
     sodipodi:nodetypes="ccscscscccssccsccccssccssccsscsccssccccsccssscscssssccscscccssscccccccscccccccccccccccccccccsccccccscsccccccssssssssssssssssssscsssccssccsccssccccccccccsscscccssccsccsssssccccccscccccccccccccccccccsssssssccccssssscccccccssccccsccsccccccccsccsccsccsccscscccsssccsccsccsssccc" />
</svg>
