<?xml version="1.0" encoding="UTF-8" standalone="no"?>
<svg
   xmlns:dc="http://purl.org/dc/elements/1.1/"
   xmlns:cc="http://creativecommons.org/ns#"
   xmlns:rdf="http://www.w3.org/1999/02/22-rdf-syntax-ns#"
   xmlns:svg="http://www.w3.org/2000/svg"
   xmlns="http://www.w3.org/2000/svg"
   xmlns:sodipodi="http://sodipodi.sourceforge.net/DTD/sodipodi-0.dtd"
   xmlns:inkscape="http://www.inkscape.org/namespaces/inkscape"
   width="23.617849"
   height="17.983217"
   id="svg2445"
   sodipodi:version="0.32"
   inkscape:version="0.46"
   sodipodi:docname="E260.svg"
   inkscape:output_extension="org.inkscape.output.svg.inkscape">
  <metadata
     id="metadata2452">
    <rdf:RDF>
      <cc:Work
         rdf:about="">
        <dc:format>image/svg+xml</dc:format>
        <dc:type
           rdf:resource="http://purl.org/dc/dcmitype/StillImage" />
      </cc:Work>
    </rdf:RDF>
  </metadata>
  <defs
     id="defs2450">
    <inkscape:perspective
       sodipodi:type="inkscape:persp3d"
       inkscape:vp_x="0 : 8.9916086 : 1"
       inkscape:vp_y="0 : 1000 : 0"
       inkscape:vp_z="23.617849 : 8.9916086 : 1"
       inkscape:persp3d-origin="11.808925 : 5.9944057 : 1"
       id="perspective2454" />
  </defs>
  <sodipodi:namedview
     inkscape:window-height="480"
     inkscape:window-width="640"
     inkscape:pageshadow="2"
     inkscape:pageopacity="0.0"
     guidetolerance="10.0"
     gridtolerance="10.0"
     objecttolerance="10.0"
     borderopacity="1.0"
     bordercolor="#666666"
     pagecolor="#ffffff"
     id="base"
     showgrid="false" />
  <path
     style="fill:#000000; stroke:none"
     d=" M 7.581189 15.111118  Q 7.150614 15.992771 7.478671 16.105541  Q 7.806727 16.218309 7.76572 15.910757  Q 7.724713 15.603204 7.581189 15.111118  Z  M 17.709944 5.002867  Q 16.479731 4.264739 15.895379 4.38776  Q 15.311028 4.510781 15.280272 4.808083  Q 15.249517 5.105384 15.803113 5.320672  Q 16.356709 5.535959 17.68944 5.125888  Q 22.261732 5.843513 22.856335 8.396205  Q 23.450937 10.948897 22.466768 12.148355  Q 21.482597 13.347813 19.616774 13.573352  L 19.698788 13.962919  Q 21.441589 13.778387 22.548782 12.353391  Q 23.655973 10.928393 23.051119 8.365449  Q 22.446264 5.802505 17.709944 5.002867  Z  M 9.529026 3.731647  Q 8.216799 3.731647 7.827231 4.910601  Q 7.437664 6.089555 7.386405 7.750343  Q 7.335146 9.411131 6.43299 16.484856  Q 6.20745 16.935934 5.817883 17.038452  L 4.977237 17.161474  Q 4.833713 17.26399 4.833713 17.551041  L 6.227954 17.551041  Q 6.740543 17.551041 7.027593 16.279821  Q 6.925075 16.013275 7.037844 15.490434  Q 7.150614 14.967593 7.581189 14.578026  Q 7.376153 13.880905 8.401331 9.042067  Q 8.401331 8.898541 8.298813 8.714009  L 8.934422 8.0784  Q 9.118955 8.447464 9.539278 9.124081  Q 9.9596 9.800698 11.220569 10.754113  Q 12.481538 11.707528 13.07614 11.922815  Q 13.670744 12.138103 14.490886 12.650692  Q 14.695921 12.076592 15.229013 11.215443  L 15.249517 11.215443  L 15.536567 11.379472  Q 14.470382 13.983422 15.300776 14.957341  Q 16.13117 15.93126 16.971815 16.50536  L 16.971815 16.525864  Q 16.274694 16.935934 15.731351 17.048704  Q 15.188006 17.161474 13.680995 16.884676  Q 12.173985 16.607878 11.927941 16.843668  Q 11.681899 17.079458 11.579381 17.304998  Q 11.476864 17.530537 11.968948 17.489531  L 19.247709 17.510035  Q 19.698788 17.489531 19.001667 16.659136  Q 18.304546 15.828742 18.786381 14.967593  Q 19.268213 14.106444 18.817135 12.999252  Q 18.366056 11.89206 17.422894 10.825875  Q 16.479731 9.759691 15.782609 9.544404  Q 15.085488 9.329116 13.896282 7.914371  Q 12.707077 6.499626 12.030459 5.115636  Q 11.353842 3.731647 9.529026 3.731647  Z  M 6.576514 0.943163  Q 6.576514 1.476256 6.873816 1.599277  Q 7.171117 1.722298 7.499174 1.291724  Q 7.499174 0.963667 7.171117 0.656114  L 7.13011 0.656114  Q 7.355649 0.902156 7.355649 1.107192  L 7.212124 1.107192  L 6.986586 0.738128  L 6.576514 0.943163  Z  M 6.945579 1.332731  L 6.884068 1.414745  Q 6.638025 0.943163 6.761046 0.594603  Q 6.576514 0.63561 6.945579 1.332731  Z  M 5.018244 1.619781  Q 5.366805 1.537766 5.85889 1.660788  L 5.85889 1.783809  Q 5.141266 2.152873 5.120762 2.685965  L 5.264287 3.608625  L 5.264287 4.0392  L 5.018244 4.0392  L 5.018244 3.608625  L 4.854216 2.685965  L 5.018244 2.173377  Q 4.792706 2.19388 4.751698 2.050355  L 3.808535 3.055029  L 4.30062 2.932008  L 4.30062 3.055029  L 3.993067 3.444597  L 4.218606 3.875171  Q 4.710691 3.649632 4.895223 3.649632  L 4.895223 4.0392  Q 4.608173 4.0392 4.423641 4.305746  Q 4.403138 4.469774 4.567166 4.633803  Q 4.833713 4.305746 5.141266 4.305746  Q 5.469323 4.305746 6.022919 5.576966  Q 7.171117 3.916178 7.0686 1.865823  Q 6.638025 2.009348 6.4945 1.599277  Q 6.350976 1.189206 6.350976 0.779135  Q 5.469323 1.20971 5.018244 1.619781  Z  M 6.740543 9.841705  L 6.802053 8.837031  Q 3.706017 10.477315 3.039652 10.549078  Q 2.373286 10.62084 1.604403 10.641344  Q 0.83552 10.661847 0.671491 10.784868  Q 0.507463 10.90789 0.579225 11.041162  Q 0.650988 11.174436 1.050807 11.461486  Q 1.450626 11.748535 2.229761 11.092422  Q 3.152421 10.90789 3.767528 11.276954  Q 4.341627 10.825875 6.740543 9.841705  Z  M 11.353842 3.690639  L 11.374346 3.690639  Q 9.836579 0.553596 7.540181 0.656114  Q 7.868238 1.025178 7.806727 1.373738  Q 7.745217 1.722298 7.499174 1.824816  Q 7.601692 3.588122 6.853312 5.146392  Q 6.104933 6.704662 6.863564 7.381279  Q 6.945579 4.797831 7.642699 4.018696  Q 8.401331 3.157547 9.508522 3.157547  Q 10.595211 3.157547 11.353842 3.690639  Z  M 6.863564 8.098903  Q 6.515004 7.914371 6.248457 7.61707  Q 5.981911 7.319768 5.797379 6.417612  Q 5.182273 4.490278 4.710691 5.02337  Q 3.993067 5.02337 3.993067 4.203228  Q 3.706017 3.977689 3.521485 3.506108  Q 3.275443 3.137043 3.37796 2.891001  Q 3.37796 2.54244 4.628677 1.435249  Q 4.505656 1.086688 5.459071 0.543344  Q 6.412486 0 7.212124 0  Q 10.287658 0 11.343591 2.173377  Q 12.399524 4.346753 12.789091 5.207902  Q 13.178658 6.069051 14.244843 7.422286  Q 15.311028 8.77552 16.07991 9.052319  Q 16.848795 9.329116 17.884224 10.487567  Q 18.919653 11.646018 19.493752 13.081266  L 19.493752 13.10177  Q 21.646626 12.917238 22.353998 11.605011  Q 23.061371 10.292784 22.466768 8.129659  Q 21.872164 5.966534 17.668936 5.392434  Q 16.828291 5.88452 16.038904 5.802505  Q 15.249517 5.720491 14.92146 5.228406  Q 14.593404 4.73632 15.013726 4.305746  Q 15.434049 3.875171 16.223436 3.957186  Q 17.012823 4.0392 17.75095 4.715817  Q 22.835831 5.65898 23.430435 8.447464  Q 24.025038 11.235947 22.733315 12.732706  Q 21.441589 14.229465 19.760298 14.413998  Q 18.776129 15.828742 19.750048 16.905178  Q 20.723965 17.981615 19.616774 17.981615  L 11.640892 17.981615  Q 10.656721 17.981615 10.954022 17.284494  Q 11.251325 16.587374 11.702402 16.331079  Q 12.153481 16.074785 13.660492 16.39259  Q 15.167502 16.710396 15.987645 16.423346  Q 14.080814 15.131621 14.326858 13.245295  Q 13.445205 12.548174 12.881357 12.425153  Q 12.317509 12.302132 11.05654 11.410227  Q 9.795572 10.518322 8.913919 9.083074  Q 7.847734 13.901408 8.011763 15.0086  Q 8.462841 16.771906 7.478671 16.50536  Q 7.191621 17.981615 6.638025 17.981615  L 4.792706 17.981615  Q 4.259613 18.022623 4.259613 17.510035  Q 4.259613 16.525864 5.243783 16.525864  Q 5.981911 16.525864 6.002415 16.013275  Q 6.638025 11.276954 6.679032 10.333791  Q 4.567166 11.174436 3.931556 11.748535  Q 3.234435 11.379472 2.373286 11.584507  Q 1.286598 12.240621 0.917534 11.994578  Q 0.54847 11.748535 0.169154 11.399975  Q -0.210161 11.051414 0.251169 10.600337  Q 0.712498 10.149259 1.532641 10.159511  Q 2.352783 10.169762 2.967889 10.108252  Q 3.582996 10.046741 5.049 9.318865  Q 6.515004 8.590988 6.863564 8.098903  Z "
     id="path2447" />
  <path
     style="fill:#000000;stroke:none"
     d="M 4.332931,17.972717 L 0,17.972717 L 2.1531198,11.114282 L 4.332931,17.972717 z M 3.6735854,17.461733 L 2.1531198,12.729873 L 0.70265377,17.461733 L 3.6735854,17.461733 z"
     id="path4"
     sodipodi:nodetypes="cccccccc" />
</svg>
