<?xml version="1.0" encoding="UTF-8" standalone="no"?>
<svg
   xmlns:dc="http://purl.org/dc/elements/1.1/"
   xmlns:cc="http://creativecommons.org/ns#"
   xmlns:rdf="http://www.w3.org/1999/02/22-rdf-syntax-ns#"
   xmlns:svg="http://www.w3.org/2000/svg"
   xmlns="http://www.w3.org/2000/svg"
   xmlns:sodipodi="http://sodipodi.sourceforge.net/DTD/sodipodi-0.dtd"
   xmlns:inkscape="http://www.inkscape.org/namespaces/inkscape"
   width="23.540022"
   height="17.983217"
   id="svg2445"
   sodipodi:version="0.32"
   inkscape:version="0.46"
   sodipodi:docname="E265.svg"
   inkscape:output_extension="org.inkscape.output.svg.inkscape">
  <metadata
     id="metadata2452">
    <rdf:RDF>
      <cc:Work
         rdf:about="">
        <dc:format>image/svg+xml</dc:format>
        <dc:type
           rdf:resource="http://purl.org/dc/dcmitype/StillImage" />
      </cc:Work>
    </rdf:RDF>
  </metadata>
  <defs
     id="defs2450">
    <inkscape:perspective
       sodipodi:type="inkscape:persp3d"
       inkscape:vp_x="0 : 8.9916086 : 1"
       inkscape:vp_y="0 : 1000 : 0"
       inkscape:vp_z="23.540022 : 8.9916086 : 1"
       inkscape:persp3d-origin="11.770011 : 5.9944057 : 1"
       id="perspective2454" />
  </defs>
  <sodipodi:namedview
     inkscape:window-height="480"
     inkscape:window-width="640"
     inkscape:pageshadow="2"
     inkscape:pageopacity="0.0"
     guidetolerance="10.0"
     gridtolerance="10.0"
     objecttolerance="10.0"
     borderopacity="1.0"
     bordercolor="#666666"
     pagecolor="#ffffff"
     id="base"
     showgrid="false" />
  <path
     style="fill:#000000; stroke:none"
     d="M 2,0 C 1.5558073,0.014380333 1.176802,0.067478665 0.8125,0.125 C 0.68467467,0.11221733 0.64276134,0.249328 0.6875,0.5625 C 0.73223867,0.875672 0.79120733,1.0255653 0.90625,1 C 1.3025087,0.94887 1.59661,0.91334732 1.75,0.875 C 1.9161733,2.6006413 2.6464653,3.4318152 3.9375,3.40625 C 5.0623627,3.4190327 5.9532112,2.761198 6.65625,1.40625 C 8.5878749,1.9312034 10.633452,2.6733001 12.75,3.625 L 12.75,7.21875 C 13.389127,7.21875 13.71875,7.2349515 13.71875,7.71875 C 13.71875,8.2369664 13.389126,8.2499997 12.75,8.25 L 12.75,13.40625 C 12.480287,13.348538 12.21145,13.273149 12,13.15625 C 11.213875,12.721644 10.633476,12.380651 10.25,12.125 C 9.252964,10.233186 7.8108466,9.2812505 5.90625,9.28125 C 5.4077313,9.28125 4.8692468,9.4183601 4.28125,9.71875 C 3.693254,10.019139 3.4233046,10.277012 3.5,10.46875 C 2.733048,11.056746 2.34375,11.433262 2.34375,11.625 C 2.2670553,11.752825 2.3338273,11.92048 2.5,12.125 C 2.60226,12.380651 2.727294,12.590924 2.90625,12.71875 C 2.90625,13.153356 3.146362,13.375 3.59375,13.375 C 3.836618,13.119349 4.0341102,13.166241 4.1875,13.5625 C 4.2130653,14.214409 4.3920891,14.963168 4.75,15.78125 C 3.3950527,16.433158 2.5212586,16.691031 2.125,16.53125 C 1.728742,16.371469 1.399118,16.268468 1.15625,16.28125 C 0.61938333,16.294033 0.27909667,16.600211 0.09375,17.15625 C -0.091596667,17.71229 0.034144014,17.96875 0.46875,17.96875 L 18.3125,17.96875 C 19.475711,17.96875 20.07387,17.754204 20.125,17.28125 C 20.764125,17.268468 21.344524,17.010595 21.875,16.53125 C 22.405474,16.051905 22.758545,15.429593 22.9375,14.65625 C 23.116456,13.882907 23.063172,13.03256 22.75,12.125 C 22.436829,11.217441 21.424511,10.499931 19.75,9.9375 C 18.203315,9.6562847 17.480121,9.8111561 17.53125,10.4375 C 17.556815,10.603673 17.670479,10.735805 17.875,10.8125 C 18.07952,10.876413 18.289088,10.852966 18.5,10.71875 C 18.710911,10.584533 19.093818,10.524152 19.65625,10.5625 C 21.087893,10.984323 21.90699,11.63718 22.15625,12.5 C 22.405509,13.362821 22.453814,14.093113 22.28125,14.6875 C 22.108685,15.281888 21.839443,15.711686 21.46875,16.03125 C 21.098057,16.350813 20.727226,16.518467 20.34375,16.53125 C 20.34375,15.483083 19.948766,14.585843 19.15625,13.8125 C 18.363734,13.039157 17.153925,12.835275 15.5625,13.21875 C 14.792349,13.404329 14.144053,13.506013 13.5625,13.5 L 13.5625,9 C 14.201626,9 14.5,8.389308 14.5,7.71875 C 14.5,7.178008 14.201626,6.4687498 13.5625,6.46875 L 13.5625,4 C 16.51794,5.3891723 19.629369,7.1719254 22.9375,9.375 C 23.295411,9.247174 23.492902,9.0141604 23.53125,8.65625 C 23.326729,8.4772953 21.710567,7.5196739 18.6875,5.78125 C 15.664433,4.0428267 13.102726,2.779734 11,2 C 8.897274,1.2202653 7.3770153,0.70522667 6.4375,0.46875 C 5.497984,0.23227333 4.5169172,0.088771334 3.46875,0.03125 C 2.9446667,0.0024893333 2.4441927,-0.014380333 2,0 z M 2.28125,0.8125 C 3.5978507,0.72302267 4.8779972,0.8793067 6.15625,1.25 C 5.6577313,2.3620793 4.9345373,2.9247173 3.9375,2.9375 C 2.9021153,2.9247173 2.3451626,2.2057953 2.28125,0.8125 z M 5.46875,9.78125 C 5.3920547,9.972988 5.4403591,10.194632 5.59375,10.4375 L 5.65625,10.375 C 5.566772,10.11935 5.5724575,9.9516942 5.6875,9.875 L 5.90625,10.1875 L 6.03125,10.1875 C 6.03125,10.072457 5.9531073,9.9531076 5.8125,9.8125 L 5.875,9.8125 C 6.0795207,9.9786727 6.1562499,10.164794 6.15625,10.34375 C 5.9517293,10.586618 5.7727051,10.664054 5.59375,10.59375 C 5.4147947,10.523445 5.3252826,10.343716 5.3125,10.0625 C 5.3125,9.8835447 5.3537073,9.7940322 5.46875,9.78125 z M 6.21875,9.8125 C 7.624828,9.7485873 8.7614729,10.454727 9.65625,11.9375 C 9.017124,11.796892 8.4850301,11.737218 8.03125,11.75 C 7.5774707,11.762782 7.0262028,12.31405 6.40625,13.375 C 5.7862973,14.435949 5.6903941,15.267123 6.125,15.90625 C 5.7415247,16.289725 5.448836,16.248518 5.21875,15.75 C 4.9375347,14.919136 4.7940328,14.248518 4.78125,13.75 C 5.8166347,13.034178 6.2585099,12.04672 6.15625,10.78125 C 6.30964,10.717337 6.4055433,10.591596 6.4375,10.40625 C 6.469456,10.220904 6.4104881,10.017021 6.21875,9.8125 z M 5.09375,9.90625 C 5.09375,10.136335 5.1292719,10.376447 5.21875,10.59375 C 5.3082273,10.811053 5.5128169,10.876413 5.78125,10.8125 C 5.8451627,11.911797 5.4317119,12.731601 4.5625,13.28125 C 4.3835447,12.936121 4.1732701,12.78125 3.96875,12.78125 C 3.7642293,12.78125 3.5908907,12.870762 3.4375,13.0625 C 3.33524,12.973023 3.2997174,12.88351 3.3125,12.78125 C 3.4275427,12.653425 3.5710446,12.5625 3.75,12.5625 L 3.75,12.28125 C 3.6349573,12.28125 3.4189981,12.33524 3.125,12.4375 L 2.9375,12.0625 L 3.21875,11.78125 L 3.21875,11.6875 L 2.75,11.78125 L 3.625,10.9375 C 3.6505647,11.014196 3.734392,11.0625 3.875,11.0625 L 3.71875,11.46875 L 3.875,12.21875 L 3.875,12.5625 L 4.09375,12.5625 L 4.09375,12.21875 L 3.9375,11.46875 C 3.9630653,11.187535 4.190394,10.95452 4.625,10.75 L 4.625,10.625 C 4.3310013,10.548305 4.0923027,10.54262 3.875,10.59375 C 4.1562153,10.363665 4.5568842,10.136336 5.09375,9.90625 z M 18.09375,10.15625 C 18.223173,10.14187 18.443926,10.173305 18.71875,10.25 C 18.233015,10.518433 17.969456,10.554662 17.9375,10.34375 C 17.921522,10.238294 17.964327,10.17063 18.09375,10.15625 z M 8.25,12.21875 C 8.3316883,12.206567 8.4169136,12.213957 8.5,12.21875 C 9.1646913,12.257098 10.020018,12.621537 11.09375,13.34375 C 11.580027,13.670829 12.143122,13.872385 12.75,13.96875 C 13.483149,14.085165 14.278343,14.064046 15.1875,13.84375 C 16.849228,13.441101 18.022808,13.541982 18.6875,14.1875 C 19.352191,14.833017 19.6875,15.545548 19.6875,16.3125 C 19.674718,17.117799 19.22006,17.518468 18.3125,17.53125 C 17.392159,17.480121 16.70378,17.294705 16.25,16.96875 C 15.796221,16.642795 15.5625,16.27267 15.5625,15.8125 C 15.5625,15.339547 15.688242,14.99714 15.9375,14.84375 C 16.186759,14.69036 16.450317,14.672599 16.71875,14.78125 C 16.987184,14.889901 17.166208,14.992196 17.28125,15.0625 C 17.396292,15.132803 17.421151,15.073129 17.3125,14.875 C 17.203849,14.676871 16.898376,14.526978 16.40625,14.4375 C 15.914123,14.348022 15.482205,14.576057 15.15625,15.09375 C 14.830295,15.611442 14.812534,16.132166 15.09375,16.65625 C 14.365146,16.669032 13.899118,16.620728 13.65625,16.53125 C 13.413381,16.441772 13.221575,16.375706 13.09375,16.34375 C 12.965925,16.311793 12.774825,16.299717 12.5,16.3125 C 12.225176,16.325281 11.913313,16.463099 11.59375,16.71875 C 11.108014,16.884923 10.556746,16.992197 9.96875,17.0625 C 9.380754,17.132803 8.5495798,16.971541 7.4375,16.5625 C 6.32542,15.718853 6.0497867,14.766917 6.625,13.71875 C 7.1283122,12.801604 7.6781817,12.304034 8.25,12.21875 z M 4.84375,16.21875 C 4.9144533,16.216353 4.9960982,16.227631 5.03125,16.25 C 5.312466,16.492868 5.5518715,16.618608 5.75,16.625 C 5.9481293,16.631391 6.1449147,16.505651 6.375,16.25 C 6.4516953,16.365043 6.6491867,16.551164 6.96875,16.78125 C 6.6619693,17.356463 6.2613012,17.637782 5.75,17.625 L 1.5,17.625 C 1.4744347,17.471609 1.5284247,17.279803 1.65625,17.0625 C 1.4261647,17.088065 1.3124999,17.279872 1.3125,17.625 L 1.1875,17.625 C 1.13637,17.420479 1.2272946,17.174683 1.40625,16.90625 C 1.1250347,16.944598 0.96875,17.190394 0.96875,17.625 L 0.84375,17.625 C 0.84375,17.215959 0.99293661,16.958792 1.3125,16.84375 C 0.89067667,16.805403 0.66334801,17.062569 0.625,17.625 L 0.46875,17.625 C 0.46875,16.998655 0.78559068,16.6875 1.4375,16.6875 C 1.7698453,16.802543 2.0632407,16.873587 2.3125,16.9375 C 2.5617593,17.001413 3.04057,16.90053 3.75,16.59375 C 4.282073,16.363665 4.6316401,16.22594 4.84375,16.21875 z M 12.65625,16.75 C 13.026944,16.813913 13.344491,16.910522 13.59375,17 C 13.843009,17.089479 14.153459,17.112924 14.5625,17.09375 C 14.971541,17.074576 15.283403,17.098023 15.46875,17.1875 C 15.654097,17.276977 15.929024,17.42048 16.3125,17.625 L 13,17.625 C 12.961652,17.458828 13.015642,17.298271 13.15625,17.09375 C 12.926165,17.119317 12.8125,17.279873 12.8125,17.625 L 12.6875,17.625 C 12.63637,17.407697 12.696044,17.19315 12.875,16.9375 C 12.593784,16.975847 12.46875,17.190394 12.46875,17.625 L 12.3125,17.625 C 12.3125,17.215961 12.492937,16.958794 12.8125,16.84375 C 12.390677,16.805403 12.163348,17.06257 12.125,17.625 L 11.9375,17.625 C 11.975847,17.011439 12.221644,16.724435 12.65625,16.75 z M 7.3125,17.125 C 8.616318,17.457345 9.5618626,17.595163 10.15625,17.53125 C 10.750638,17.467339 11.20459,17.329521 11.5625,17.125 L 11.5625,17.625 L 6.875,17.625 C 7.117868,17.446045 7.2741528,17.265608 7.3125,17.125 z"
     id="path2447"
     sodipodi:nodetypes="ccsscccccsccscsscccccccssscccssscssscssscssccsccccssssccccccccccccccsscccssccccsccsccscccccccccccccccccccccccsccsssssscsssssssscssscscsccssccccccccccccccssccssscccccccccccccscccc" />
</svg>
