<?xml version="1.0" encoding="UTF-8" standalone="no"?>
<svg
   xmlns:dc="http://purl.org/dc/elements/1.1/"
   xmlns:cc="http://creativecommons.org/ns#"
   xmlns:rdf="http://www.w3.org/1999/02/22-rdf-syntax-ns#"
   xmlns:svg="http://www.w3.org/2000/svg"
   xmlns="http://www.w3.org/2000/svg"
   xmlns:sodipodi="http://sodipodi.sourceforge.net/DTD/sodipodi-0.dtd"
   xmlns:inkscape="http://www.inkscape.org/namespaces/inkscape"
   width="23.742407"
   height="16.559999"
   id="svg3074"
   sodipodi:version="0.32"
   inkscape:version="0.46"
   sodipodi:docname="E268.svg"
   inkscape:output_extension="org.inkscape.output.svg.inkscape">
  <metadata
     id="metadata3081">
    <rdf:RDF>
      <cc:Work
         rdf:about="">
        <dc:format>image/svg+xml</dc:format>
        <dc:type
           rdf:resource="http://purl.org/dc/dcmitype/StillImage" />
      </cc:Work>
    </rdf:RDF>
  </metadata>
  <defs
     id="defs3079">
    <inkscape:perspective
       sodipodi:type="inkscape:persp3d"
       inkscape:vp_x="0 : 8.2799997 : 1"
       inkscape:vp_y="0 : 1000 : 0"
       inkscape:vp_z="23.742407 : 8.2799997 : 1"
       inkscape:persp3d-origin="11.871203 : 5.5199998 : 1"
       id="perspective3083" />
  </defs>
  <sodipodi:namedview
     inkscape:window-height="480"
     inkscape:window-width="640"
     inkscape:pageshadow="2"
     inkscape:pageopacity="0.0"
     guidetolerance="10.0"
     gridtolerance="10.0"
     objecttolerance="10.0"
     borderopacity="1.0"
     bordercolor="#666666"
     pagecolor="#ffffff"
     id="base"
     showgrid="false" />
  <path
     style="fill:#000000; stroke:none"
     d="M 3.53125 0 C 3.033761 -0.0043513734 2.5141025 0.29708001 1.96875 0.90625 C 1.241614 1.7184773 0.97059871 2.2045112 1.15625 2.34375 C 0.81588867 2.80788 0.52909399 3.270092 0.3125 3.71875 C -0.058803333 4.120996 -0.090977327 4.503696 0.1875 4.875 C 0.465978 5.2463033 0.65748201 5.374384 0.78125 5.3125 C 1.0906693 5.77663 1.5210154 5.77663 2.0625 5.3125 C 2.2945653 5.4207973 2.6933527 5.5318667 3.28125 5.59375 C 3.5906693 5.5628087 3.7657788 5.6748011 3.78125 5.96875 L 3.78125 15.46875 L 5.25 15.46875 L 5.25 8.65625 C 5.605832 9.2441473 6.2032432 9.7617395 7 10.15625 C 7.7967553 10.55076 8.6178458 10.686576 9.46875 10.59375 C 10.025705 10.872228 10.536178 11.350527 11.03125 12.03125 C 11.216901 12.34067 11.487609 12.579511 11.8125 12.71875 L 12.1875 13.375 C 12.009636 13.593681 12.03997 13.75444 12.09375 14.0625 C 11.849654 14.312841 11.744154 14.590003 11.8125 14.84375 C 11.716162 14.924555 11.584317 15.026878 11.5 15.09375 C 11.051341 15.372227 10.716286 15.754928 10.46875 16.25 L 12.46875 16.53125 L 12.8125 15.75 C 12.857138 15.759764 12.896636 15.743757 12.9375 15.75 C 12.90269 16.005271 12.898822 16.284022 12.9375 16.5625 L 14.78125 15.96875 L 14.59375 15.53125 C 14.863949 15.361177 15.032632 14.804337 14.84375 14.625 C 15.108071 14.446697 15.1784 14.131948 15.125 13.84375 C 15.335115 13.731582 15.565932 13.585983 15.78125 13.34375 C 16.477444 11.93589 17.314621 11.059419 18.3125 10.75 C 19.310378 10.44058 20.059385 10.121304 20.53125 9.75 C 21.003115 9.3786967 21.409639 8.7252878 21.75 7.8125 C 22.090363 6.8997113 22.233913 5.6720987 22.1875 4.125 C 22.558804 4.155942 22.750308 4.905256 22.78125 6.375 C 22.812192 7.8447433 22.716594 9.1917776 22.5 10.40625 C 22.283407 11.620723 22.195852 12.68127 22.25 13.625 C 22.304148 14.568731 22.566812 15.062808 23 15.09375 C 23.324891 15.09375 23.50866 14.798912 23.59375 14.21875 C 23.678841 13.638588 23.742264 13.048604 23.75 12.4375 C 23.757735 11.826397 23.702046 11.315923 23.59375 10.875 C 23.485453 10.434077 23.413678 9.8843113 23.375 9.25 C 23.336323 8.6156893 23.304764 7.5554502 23.3125 6.0625 C 23.320235 4.56955 22.961049 3.621304 22.1875 3.25 C 21.599603 2.9560513 20.571846 2.7169021 19.15625 2.53125 C 17.740655 2.345598 16.202118 2.4650186 14.53125 2.875 C 12.860383 3.2849813 11.194073 3.3245826 9.5 2.96875 C 7.8059267 2.6129173 6.5068468 2.4220293 5.625 2.4375 L 5.6875 2.21875 L 6.0625 1.8125 C 6.1553253 1.3328993 5.9796 0.85460001 5.5 0.375 L 5.03125 1.03125 C 5.000308 0.690888 4.6732958 0.37222733 4.03125 0.09375 C 3.8707385 0.0241305 3.6970797 0.0014504578 3.53125 0 z M 3.5625 0.5 C 3.6848175 0.50580158 3.7902175 0.53380001 3.90625 0.59375 C 4.3703793 0.83355067 4.625616 1.1760333 4.6875 1.59375 C 4.3161967 2.0888213 4.2837149 2.4554354 4.53125 2.6875 C 4.6395473 2.8576807 4.8790046 2.8737672 5.28125 2.75 C 5.064656 3.5235493 4.0919712 4.2091312 2.34375 4.8125 C 2.127156 4.7660867 1.968134 4.7976446 1.90625 4.875 L 1.8125 4.53125 C 0.82235733 4.05165 0.74223001 3.3821548 1.53125 2.53125 C 1.53125 2.2527727 1.8103087 1.8140753 2.375 1.1875 C 2.798518 0.717569 3.1955474 0.48259525 3.5625 0.5 z M 5.5 1 C 5.716594 1.4177167 5.780326 1.6884247 5.6875 1.78125 L 5.15625 2.125 L 5.0625 1.90625 L 5.5 1 z M 4.9375 1.625 L 4.96875 1.65625 C 4.8604533 1.934728 4.8285866 2.1098372 4.875 2.15625 L 5.125 2.34375 L 5 2.625 L 4.6875 2.5 C 4.5482613 2.3917033 4.6435511 2.1046007 4.9375 1.625 z M 2.65625 1.8125 C 2.3004173 1.781558 2.0133154 1.8298193 1.78125 2 C 1.6574827 2.216594 1.6896566 2.4557434 1.90625 2.71875 C 1.3492947 3.2911767 1.0863227 3.594058 1.125 3.625 C 1.1636773 3.655942 1.473986 3.3849266 2 2.8125 C 2.1392387 2.719674 2.2747467 2.616032 2.40625 2.5 C 2.5377533 2.3839673 2.6098367 2.1683327 2.65625 1.8125 z M 6.46875 2.8125 C 6.7781693 2.8125 7.0813593 2.8604532 7.40625 2.96875 L 4.875 6.59375 L 4.34375 5.71875 L 6.46875 2.8125 z M 5.5 2.96875 L 5.875 2.96875 L 4.1875 5.21875 C 4.2029707 5.1878073 4.0436407 5.1401629 3.71875 5.09375 C 3.285562 5.0473373 2.8870828 4.9678262 2.53125 4.875 C 4.1711747 4.3025733 5.1596382 3.6804152 5.5 2.96875 z M 18.25 3.09375 C 18.632674 3.1010759 19.003696 3.1156387 19.375 3.15625 C 20.860214 3.3186953 21.673569 3.56558 21.84375 3.875 C 21.565272 3.751232 21.166485 3.7032793 20.625 3.71875 L 20.65625 4.0625 C 21.336973 4.124384 21.607989 4.8019233 21.46875 6.09375 C 21.329511 7.385578 20.98672 8.3186604 20.4375 8.9375 C 19.88828 9.5563393 19.067806 10.034331 18.03125 10.34375 C 16.994693 10.653169 16.18134 11.466524 15.5625 12.8125 C 15.361377 13.106449 15.106448 13.297644 14.8125 13.375 C 14.761642 13.359742 14.662356 13.450698 14.53125 13.5625 L 14 13.46875 C 14.436457 12.950508 14.835434 12.350803 15.21875 11.6875 C 16.108331 10.148137 16.514854 9.047988 16.4375 8.375 C 16.360144 7.7020127 16.232372 6.9926081 16.03125 6.25 L 15.71875 6.40625 C 15.780634 6.622844 15.796412 6.7985695 15.75 6.96875 C 15.889239 7.6649447 15.905326 8.1751094 15.8125 8.5 C 14.064279 9.3663753 12.533476 9.7809421 11.1875 9.75 C 10.909023 9.3941673 10.574583 8.8202702 10.21875 8.03125 C 10.125925 7.8146567 9.9028619 7.7026631 9.5625 7.65625 L 8.71875 7.125 L 8.46875 7.34375 L 9.03125 7.84375 L 9.875 8.28125 C 10.292716 9.2868647 10.778751 10.044222 11.3125 10.5625 C 11.846249 11.080778 12.165218 11.36788 12.28125 11.4375 C 12.397283 11.507119 12.469058 11.754004 12.5 12.15625 C 12.788465 12.655517 12.9786 12.959015 13.1875 13.28125 L 12.59375 13.15625 L 12.1875 12.4375 C 11.831667 12.267319 11.61634 12.107682 11.53125 11.9375 C 11.446159 11.767319 11.215054 11.480525 10.84375 11.09375 C 10.472446 10.706975 9.8348171 10.228368 8.9375 9.625 C 8.7673187 9.9034773 8.4007052 9.9436954 7.84375 9.78125 C 7.286794 9.618804 6.8802715 9.2280602 6.625 8.59375 C 6.3697287 7.9594393 6.3536412 7.3855428 6.5625 6.875 C 6.771358 6.364458 6.8112673 5.7423 6.6875 4.96875 C 6.6511575 4.9081798 6.5809766 4.8937292 6.46875 4.9375 L 7.71875 3.15625 C 8.1828793 3.2336053 8.7570844 3.3607614 9.46875 3.5 C 11.263385 3.8558327 13.000854 3.8400534 14.65625 3.46875 C 15.897797 3.190272 17.101977 3.0717724 18.25 3.09375 z M 0.625 4 C 0.810652 4.2011227 0.98606938 4.3920116 1.15625 4.53125 L 0.78125 5.03125 C 0.533714 4.752772 0.46998203 4.4338035 0.59375 4.0625 L 0.625 4 z M 1.4375 4.625 C 1.561268 4.7023547 1.656558 4.877464 1.6875 5.125 L 1.25 5.1875 L 1.4375 4.625 z M 6.375 5.0625 C 6.4811575 5.7916948 6.4666776 6.3748904 6.28125 6.8125 C 6.0878627 7.268894 6.0244394 7.7546205 6.125 8.21875 C 6.225562 8.6828793 6.3926273 9.0498014 6.59375 9.34375 C 6.2379173 9.1116853 5.9115214 8.7769375 5.65625 8.34375 C 5.4009787 7.910562 5.2017386 7.4325713 5.0625 6.9375 L 6.375 5.0625 z M 4.0625 6.0625 L 4.9375 7.4375 L 4.9375 15.09375 L 4.0625 15.09375 L 4.0625 6.0625 z M 15.78125 9.21875 C 15.030399 11.068067 14.30711 12.362919 13.59375 13.15625 C 13.314782 12.743281 13.12635 12.422633 13.0625 12.28125 C 12.954203 12.04145 12.866649 11.802608 12.8125 11.59375 C 12.758351 11.384892 12.558803 11.137391 12.1875 10.8125 C 11.816197 10.487609 11.577355 10.264854 11.5 10.1875 C 12.227137 10.218441 12.960672 10.138623 13.71875 9.9375 C 13.687808 10.215978 13.719674 10.646016 13.8125 11.1875 L 14.0625 11.21875 L 14.53125 9.875 C 14.871612 9.7202893 15.286178 9.4972271 15.78125 9.21875 z M 23 10.21875 C 23.201123 11.239835 23.312191 12.236034 23.28125 13.1875 C 23.250308 14.138966 23.155018 14.609221 23.03125 14.59375 C 22.87654 14.609221 22.780635 14.234564 22.71875 13.46875 C 22.656867 12.702936 22.736993 11.611139 23 10.21875 z M 12.5625 13.5625 C 12.608013 13.533878 12.682516 13.543244 12.75 13.5625 L 14.53125 13.9375 C 14.755949 13.992659 14.618357 14.340996 14.4375 14.3125 L 12.625 13.9375 C 12.410797 13.898015 12.425961 13.648366 12.5625 13.5625 z M 12.53125 14.34375 L 14.3125 14.71875 C 14.514928 14.761777 14.386499 15.148603 14.1875 15.09375 L 12.40625 14.75 C 12.151026 14.711159 12.228873 14.260035 12.53125 14.34375 z M 12.21875 15.0625 L 12.875 15.21875 C 12.801799 15.279583 12.722431 15.353269 12.65625 15.4375 L 12.125 15.15625 C 12.161214 15.132901 12.182807 15.08659 12.21875 15.0625 z M 11.84375 15.34375 L 12.53125 15.625 C 12.484837 15.686883 12.389239 15.830434 12.25 16.0625 L 11.28125 15.96875 L 11.84375 15.34375 z M 13.65625 15.375 L 14.125 15.46875 L 14.15625 15.59375 L 13.28125 15.9375 C 13.292626 15.865454 13.299265 15.810894 13.3125 15.75 C 13.493657 15.709539 13.606673 15.629935 13.625 15.4375 C 13.626831 15.418276 13.652144 15.395253 13.65625 15.375 z "
     id="path3076" />
</svg>
