<?xml version="1.0" encoding="UTF-8" standalone="no"?>
<svg
   version="1.1"
   width="1899.1787"
   height="1203.7217"
   id="svg55"
   viewBox="0 0 1899.1787 1203.7217"
   sodipodi:docname="E276.svg"
   inkscape:version="1.4 (e7c3feb1, 2024-10-09)"
   xml:space="preserve"
   xmlns:inkscape="http://www.inkscape.org/namespaces/inkscape"
   xmlns:sodipodi="http://sodipodi.sourceforge.net/DTD/sodipodi-0.dtd"
   xmlns="http://www.w3.org/2000/svg"
   xmlns:svg="http://www.w3.org/2000/svg"
   xmlns:rdf="http://www.w3.org/1999/02/22-rdf-syntax-ns#"
   xmlns:cc="http://creativecommons.org/ns#"
   xmlns:dc="http://purl.org/dc/elements/1.1/"><title
     id="title1">E276</title><defs
     id="defs55"><inkscape:perspective
       sodipodi:type="inkscape:persp3d"
       inkscape:vp_x="0 : -891.93428 : 1"
       inkscape:vp_y="0 : 1000 : 0"
       inkscape:vp_z="24.700572 : -891.93428 : 1"
       inkscape:persp3d-origin="12.350286 : -893.69428 : 1"
       id="perspective2539" /></defs><sodipodi:namedview
     id="namedview55"
     pagecolor="#ffffff"
     bordercolor="#000000"
     borderopacity="0.25"
     inkscape:showpageshadow="2"
     inkscape:pageopacity="0.0"
     inkscape:pagecheckerboard="0"
     inkscape:deskcolor="#d1d1d1"
     inkscape:zoom="0.2298539"
     inkscape:cx="783.10615"
     inkscape:cy="417.65661"
     inkscape:window-width="1920"
     inkscape:window-height="1147"
     inkscape:window-x="1440"
     inkscape:window-y="25"
     inkscape:window-maximized="0"
     inkscape:current-layer="svg55"
     inkscape:document-units="px"
     showguides="false" /><path
     id="path17-5"
     style="fill:#000000;fill-opacity:1;stroke:none;stroke-width:25.3118;stroke-linecap:square;stroke-linejoin:miter;stroke-dasharray:none;stroke-opacity:1"
     inkscape:transform-center-x="-6.6617009"
     inkscape:transform-center-y="-43.554349"
     d="m 678.71289,0.03910396 c -11.51853,0.29923 -23.10004,2.32344254 -33.91406,6.22656254 -12.98904,6.4830295 -20.20613,27.8015695 -7.48242,38.0312495 4.66449,6.78423 24.21756,4.847863 12.30664,13.970703 -13.70642,16.95034 -19.13467,39.064194 -17.41016,60.562501 0.53523,44.24862 1.75798,88.60599 6.45899,132.61719 3.9987,27.62039 18.12581,57.14319 45.82031,67.5039 26.24587,9.36253 56.99822,6.97195 81.26367,-6.85156 15.92403,-9.43859 27.53888,-24.88774 34.5957,-41.80078 14.84954,22.40751 35.96419,40.29178 60.07813,51.9414 -47.75198,7.00579 -98.58875,24.44459 -125.07031,66.10157 2.14631,-6.65329 1.73675,-40.31886 -10.03907,-50.27735 -5.45521,-4.61506 -11.22646,-6.8701 -17.31054,-6.76562 -2.02806,0.0346 -4.09196,0.33345 -6.18946,0.89258 -8.39291,2.23681 -15.94599,5.3159 -22.65625,9.23242 -6.71016,3.91662 -8.94766,8.39019 -6.71093,13.42969 2.23763,5.03959 8.67119,6.99798 19.30078,5.875 10.6286,-1.12115 10.07014,1.68046 -1.67969,8.39062 -11.75349,6.71401 -15.94757,23.49788 -12.58789,50.35352 3.35701,26.85653 13.42808,18.20006 30.21289,26.0332 -8.95158,36.92734 -24.33752,71.05474 -46.1582,102.38672 -21.82063,31.33179 -15.94739,46.44515 17.62304,45.32226 -7.83038,11.18544 -6.71142,17.90392 3.35938,20.14063 -8.95616,5.59547 -10.06954,10.63202 -3.35938,15.10547 5.79671,3.86682 -5.53444,21.41059 1.76953,29.07617 l -1.6582,-0.10547 -62.09961,116.19141 54.84571,5.11328 36.83203,-97.99024 c 21.30253,0.0811 40.66363,-5.66513 59.26757,-13.67968 17.01928,12.96738 29.22306,31.35211 36.8379,54.90039 -41.04535,32.38646 -71.39151,68.5884 -102.17969,114.42968 -9.63396,14.5724 -6.52395,34.09291 7.16211,44.94922 -50.28004,65.53167 -102.23001,173.16276 -112.43946,200.66016 -90.89417,8.3999 -186.61244,26.0657 -249.39648,34.0761 25.12569,-85.4201 50.25032,-170.84045 75.37891,-256.25969 H 0 c 0.25195,0.85482 0.50391,1.70963 0.75586,2.56445 29.962596,101.85693 59.922283,203.71474 89.882813,305.57224 h 8.666016 c -0.295809,4.6682 -0.338891,9.7363 0.185547,15.7461 81.688634,17.0047 163.377774,30.9035 245.066404,7.9961 l 337.92188,11.0234 66.75781,-53.1035 c 433.28417,1.3081 560.02427,-122.2243 708.85937,-134.3418 15.6193,36.7087 36.1372,73.9467 62.5625,108.2969 -119.6895,-5.5782 -115.3095,-30.5645 -175.6445,-30.5645 -53.5306,0 -112.3535,23.7957 -112.3535,76.9121 0,32.2986 38.4413,31.2578 92.7246,31.2578 h 544.9062 c 20.3553,0 34.3132,-20.5096 26.8497,-39.4472 -29.7281,-75.3989 -94.6471,-179.09286 -160.2325,-266.62108 -32.7927,-43.7641 -65.5923,-83.11888 -94.8105,-112.41797 -14.6091,-14.64955 -28.2407,-26.79144 -41.4649,-36.02343 15.0668,-4.06058 34.6867,-50.26065 -47.5976,-52.40235 -32.2524,-0.83945 -64.3829,12.19918 -89.2988,35.55274 -62.2063,0.26175 -128.7648,0.16515 -188.4297,-4.44532 2.3182,-52.77588 -154.8281,-65.3222 -178.9688,-86.75 2.4616,-35.91746 -9.1294,-135.84731 -34.0235,-198.47851 -13.3616,-33.61679 -40.5141,-86.25273 -85.39057,-109.95508 20.3713,-6.52073 39.15097,-17.56464 53.73637,-33.58398 7.3359,-6.31235 12.1426,-22.33977 21.0273,-8.94141 27.0578,21.83847 56.2211,41.91212 89.2969,53.40039 13.4119,5.0107 26.8624,12.96387 41.5547,12.31055 17.7341,-7.33358 3.741,-24.19629 -8.6152,-27.69532 -39.7856,-22.99373 -77.0349,-51.30566 -106.4317,-86.86132 17.3322,-43.55855 7.998,-94.2548 -17.9922,-132.35938 -17.3568,-27.914644 -44.1565,-50.621103 -76.33984,-58.984373 -35.86962,-9.32007 -74.99951,-7.749763 -109.65235,5.623046 -44.21665,17.68703 -75.32548,61.054947 -83.73046,107.240237 -4.5568,21.55056 1.16975,45.40673 -11.51954,64.87304 -9.13941,14.38043 -24.97355,23.68731 -40.95703,28.47657 -10.74734,-2.3917 -4.36177,-18.50962 -2.5332,-26.35743 7.46352,-24.39602 21.77431,-45.80838 31.69727,-69.11718 10.95591,-29.96405 13.74859,-63.030521 8.45898,-94.449221 C 761.31625,42.496149 747.74374,23.010554 727.66016,14.376994 715.88994,7.9648548 703.55924,1.2881353 690.17969,0.30863521 c -3.79438,-0.27778 -7.62729,-0.36927125 -11.4668,-0.26953125 z M 708.50977,49.601603 c 14.96166,0.42834 25.34346,12.903587 29.26953,28.253907 5.1262,37.60869 -10.58993,73.98046 -27.55469,106.61328 -11.57561,25.72949 -23.27647,54.54597 -16.9668,83.18555 3.12572,15.73568 21.37577,20.97739 35.03711,16.20117 10.04231,-1.28266 25.78403,-12.44835 29.64649,-13.6582 -11.28677,15.68475 -30.38543,28.26879 -50.41406,23.65625 -21.52531,-3.96479 -35.76639,-24.70355 -38.82227,-45.33399 -8.36332,-45.24321 -8.16831,-91.52484 -8.35547,-137.38281 0.0581,-24.959456 15.59683,-47.452132 37.09375,-59.794922 3.91742,-1.29705 7.61371,-1.839084 11.06641,-1.740235 z m 220.82617,27.453126 c 31.86142,-0.382981 65.66531,11.151084 84.87696,37.781251 28.5765,35.29901 31.7551,86.99761 11.4629,127.02929 -13.6594,27.86209 -38.0161,52.10833 -69.27931,58.33008 -38.91981,8.67433 -82.48158,-1.7634 -110.56055,-30.88867 -39.71059,-38.5768 -42.82558,-107.65671 -7.94141,-150.36523 19.19383,-26.277569 51.24148,-40.824113 83.38282,-41.681643 2.6843,-0.13482 5.37101,-0.197768 8.05859,-0.205078 z m -2.60156,80.261721 c -16.3919,0.0124 -31.2157,13.7618 -30.34961,30.52343 -0.15427,16.18722 13.2649,30.44706 29.60742,30.42774 15.92516,1.0236 30.45879,-11.90573 31.09961,-27.91016 2.17119,-16.73994 -11.83587,-32.55958 -28.66016,-32.94726 z m 2.72461,199.01367 c 51.60039,1.12097 83.52481,63.89499 97.09371,98.0332 21.3711,53.76767 32.5167,123.05935 30.6993,187.67383 -40.6347,12.94532 -95.11469,37.07231 -134.51372,60.11719 0.0386,-37.84607 -1.12853,-75.67942 -1.95117,-113.51368 16.55429,-16.77617 27.25989,-33.16235 31.96289,-49.14843 9.61529,-32.6827 2.9309,-73.44475 -36.08203,-79.72852 -17.34441,-2.79729 -34.97187,2.51954 -52.875,15.94727 -27.10305,-15.17815 -62.68718,-28.23424 -106.5957,-39.21094 11.54486,-77.22588 130.1261,-81.08527 172.26172,-80.16992 z M 729.52149,462.2891 c 43.64128,7.83209 88.3985,23.49941 134.27734,46.99805 l 13.42773,-3.35938 c 31.81783,-29.37339 50.21026,-3.33585 41.95899,23.49415 -5.09093,16.54498 -34.76045,49.26511 -36.97461,55.29101 l 1.87891,86.44531 c -18.49794,9.84301 -35.13597,19.771 -50.3711,29.96289 -7.35717,-20.04916 -18.56188,-37.01875 -33.70117,-50.84179 38.04575,-20.14261 58.74576,-56.50882 62.10547,-109.10157 h -8.39063 c -5.5946,46.99729 -22.66163,77.77023 -51.19531,92.31641 -28.53452,14.54706 -51.75224,22.94287 -69.65625,25.17969 -20.14543,3.35691 -29.09224,-0.003 -26.85547,-10.07422 2.2367,-10.07092 0.55554,-18.46757 -5.04101,-25.17773 38.04935,2.23922 48.95756,-2.79697 32.73242,-15.10547 -16.22601,-12.30764 -27.7,-15.66466 -34.41016,-10.06836 4.47619,-16.78753 -4.47422,-25.17774 -26.85351,-25.17774 22.15121,-35.23913 41.78465,-72.04452 57.06836,-110.78125 z m 22.44531,19.30469 c -6.85381,0.27966 -12.93911,1.95849 -18.25391,5.03516 -10.62615,6.15333 -15.94567,12.02535 -15.94726,17.62109 26.85559,-8.95621 48.39702,-10.07887 64.62304,-3.35938 16.22514,6.71767 37.76549,11.19093 64.6211,13.42774 l -10.07032,-8.39063 c -24.61792,-8.95149 -45.32074,-15.94077 -62.10546,-20.98046 -8.39237,-2.51513 -16.01338,-3.63309 -22.86719,-3.35352 z m 0.62695,24.75391 c -14.82669,-0.27985 -25.31447,5.17371 -31.46875,16.36328 l -15.10742,10.07031 v 8.39258 l 13.42578,1.67578 c 20.14168,12.31129 50.91472,9.51333 92.31836,-8.39063 l 35.24805,5.04102 1.67968,-13.43164 -38.60546,-1.67774 C 786.58532,512.64092 767.42043,506.62775 752.59375,506.3477 Z m -7.97461,11.32812 c -4.47112,7.83073 -3.91582,15.10928 1.67969,21.81836 -7.83223,-2.23681 -14.54419,-4.47616 -20.14063,-6.71289 2.23766,-5.59459 8.39007,-10.63203 18.46094,-15.10547 z m 25.18164,0.01 28.53321,11.75 c -10.06961,4.47297 -20.13947,7.2655 -30.20899,8.38867 7.82937,-5.59392 8.38479,-12.30688 1.67578,-20.13867 z m 288.46482,185.0664 c 38.2452,70.65491 172.4441,84.82166 368.1915,84.94922 -5.5677,16.03316 -8.8379,33.64781 -8.8379,52.75195 0,30.45762 6.187,72.67237 20.1445,118.81446 -168.9157,20.81555 -268.2044,136.03265 -708.67581,132.62695 l -66.69531,53.0508 c -13.61929,10.8328 -20.38663,-25.1064 -7.07227,-49.8281 77.917,-184.99224 217.74553,-314.53659 402.94529,-392.36528 z m 499.0762,84.71485 c 35.0247,0 88.7923,82.76348 133.3731,142.25976 51.7423,69.05349 103.4537,150.61217 134.748,213.73437 0,0 -108.7714,8.7701 -202.3554,-38.916 -78.4369,-39.9678 -148.3633,-203.11627 -148.3633,-255.82423 0,-62.56816 48.3202,-61.2539 82.5976,-61.2539 z M 72.35547,913.96879 H 351.12891 C 331.5319,980.58338 311.9349,1047.1979 292.33789,1113.8125 H 131.14649 C 111.54948,1047.1979 91.952475,980.58338 72.35547,913.96879 Z" /><metadata
     id="metadata1"><rdf:RDF><cc:Work
         rdf:about=""><dc:creator><cc:Agent><dc:title>Serge Rosmorduc</dc:title></cc:Agent></dc:creator><dc:source>BM EA 22</dc:source><dc:description>A Sphinx with nemes dress and straight beard, with a solar disk on his head, holding a W10 vase.</dc:description><dc:title>E276</dc:title></cc:Work></rdf:RDF></metadata></svg>
