<?xml version="1.0" encoding ="US-ASCII" standalone="yes"?>
<svg width="14.963204" height="17.976807">
<path style="fill:#000000; stroke:none" d=" M 2.120199 5.325375  C 1.937761 5.325375 1.692521 5.504677 1.692521 5.692198  C 1.692521 5.822671 1.852496 5.842096 2.012106 5.842096  C 2.079784 5.842096 2.147396 5.838603 2.202719 5.838603  C 2.401786 5.838603 2.771487 5.535526 2.757629 5.510302  C 2.722208 5.445831 2.544896 5.378764 2.153111 5.327454  C 2.142427 5.326054 2.131432 5.325375 2.120199 5.325375  Z  M 2.322476 4.680329  C 3.277996 5.264258 3.875196 6.24632 4.114076 7.626515  C 5.666996 8.754758 9.826487 7.956446 13.768806 9.55746  C 13.941928 10.030231 13.523816 10.49644 13.495251 10.612413  C 13.345277 11.221289 13.44486 11.70693 13.418319 11.985623  C 13.099813 11.985623 12.565805 11.942266 12.315619 11.687472  C 11.779285 11.141261 11.014751 9.930698 10.802713 9.577367  L 10.802713 9.577367  C 10.772778 10.239326 10.82686 10.796512 11.366585 11.49579  C 10.755306 11.758744 10.310721 11.912971 9.741723 11.912971  C 9.086345 11.912971 8.265907 11.708363 6.835578 11.22962  C 6.769224 11.295975 6.80811 12.397477 6.701941 12.424019  C 6.33035 12.224953 6.09147 11.873268 5.985301 11.368966  C 5.932217 10.904478 5.879133 10.439989 5.826049 9.9755  C 5.746423 9.457927 5.553991 9.106242 5.248755 8.920446  L 5.248755 8.920446  C 5.195671 9.053158 5.732422 10.332014 5.035491 10.847733  C 4.716985 10.608853 3.120698 8.739478 2.776278 7.067601  C 2.584038 6.844802 2.355473 6.769456 2.131083 6.769456  C 1.66215 6.769456 1.211449 7.098513 1.148618 7.098513  C 0.923009 7.098513 0.788454 7.023889 0.629201 6.891179  C 0.788454 6.66557 1.008637 6.379031 1.008637 6.312675  C 1.114806 6.193235 1.327144 5.894635 1.64565 5.416875  C 1.88453 5.045284 2.110139 4.799769 2.322476 4.680329  Z  M 5.012389 0  C 5.006297 0 4.999986 0.000426 4.993449 0.001297  C 4.847466 0.810835 3.941037 1.87407 2.760423 2.669756  C 2.607536 2.772796 2.187833 3.163622 2.163223 3.884063  C 2.143762 4.453771 2.02392 3.954722 1.293322 5.065514  C 0.956455 5.387821 0.892082 5.781512 0.486619 6.33007  C 0.153103 6.781287 -0.070205 6.956465 0.019295 7.234373  C 0.068904 7.388411 0.340834 7.382092 0.367376 7.488262  C 0.541566 7.600241 0.75096 7.82189 0.904814 7.82189  C 0.915065 7.82189 0.92507 7.820906 0.934801 7.81884  C 1.112029 7.781213 1.349521 7.385191 1.804023 7.385191  C 1.948758 7.385191 2.1155 7.425352 2.309312 7.530035  C 2.569308 8.26974 2.753788 8.794371 3.218276 9.418114  C 3.988001 10.439989 4.386134 10.977468 4.412676 11.030553  C 4.598472 11.36233 4.691369 11.714015 4.691369 12.085606  C 4.691369 12.49701 4.565293 12.988042 4.313143 13.558699  C 4.114076 13.996644 3.238183 15.854601 2.760423 16.345631  C 2.163223 16.942831 1.888873 17.156094 1.795975 17.315348  C 1.684097 17.702944 1.584135 17.941412 1.849545 17.943872  L 2.500027 17.949902  C 2.524998 17.950132 2.54871 17.95026 2.571233 17.95026  C 3.416937 17.95026 2.586792 17.771526 3.84797 16.242878  C 4.100121 15.672221 4.40604 14.865902 4.671463 14.295245  C 5.029783 13.565334 5.40801 13.001312 5.806143 12.603179  C 6.575867 14.248796 6.960728 15.403381 6.960728 16.066938  C 6.960728 16.43853 6.959591 16.63896 6.813609 16.930923  C 6.536525 17.073931 6.337913 17.666471 6.337913 17.958435  L 7.397505 17.956385  C 7.5833 17.956024 7.325684 17.058657 7.66156 16.928921  C 8.000657 16.54406 7.771121 16.307871 7.698884 15.715057  C 7.60462 14.941477 7.557928 13.830756 7.557928 13.538793  C 7.557928 13.074304 7.637554 12.669535 7.796808 12.324486  C 7.79984 12.324326 7.803045 12.324247 7.806419 12.324247  C 7.987789 12.324247 8.660332 12.550578 9.480355 12.550578  C 9.913786 12.550578 10.38842 12.487347 10.853505 12.294043  C 11.211824 12.639091 11.344974 12.928821 11.320286 13.538793  C 11.226022 15.891302 10.670001 16.053665 10.245327 16.544699  C 9.887007 16.956102 9.950143 17.09569 9.609922 17.976807  L 10.804323 17.976126  C 11.077246 17.975971 10.715173 17.29665 11.08041 17.058687  C 11.379669 16.863714 12.116553 14.228889 12.216086 13.797579  C 12.216086 13.346361 12.401881 13.120751 12.773473 13.120751  C 12.839828 13.120751 12.912819 13.134023 12.992445 13.160566  C 13.881909 14.078068 14.176667 13.84767 14.176667 15.002255  C 14.176667 15.347305 14.186845 16.372175 14.107219 16.743765  C 13.722357 17.102083 13.913192 16.960642 13.729891 17.185953  C 13.652676 17.280863 13.391827 17.967781 13.472551 17.968246  L 14.594607 17.974733  C 14.595194 17.974737 14.595776 17.974739 14.596353 17.974739  C 14.821208 17.974739 14.33685 17.717253 14.757653 17.137308  C 14.687005 16.496202 14.949933 15.343662 14.963204 14.812819  C 14.989747 14.281975 14.787362 13.717952 14.356052 13.120751  C 13.924741 12.523552 13.947965 11.169899 14.107219 11.169899  C 14.186845 11.169899 14.216331 11.549623 14.362313 11.642521  C 14.479965 11.717391 14.519843 11.859501 14.682577 11.859501  C 14.721764 11.859501 14.768073 11.851261 14.824307 11.831858  C 14.887033 11.810215 14.910419 11.565388 14.950233 11.499032  C 15.02986 10.596599 14.638062 9.623816 13.908152 8.880633  C 12.179713 8.048346 9.827287 7.905209 7.95606 7.785768  C 6.336986 7.6796 5.41053 7.367429 4.614264 6.982567  C 4.600993 6.756958 4.241425 5.686588 3.974805 5.297435  C 3.817288 5.067527 4.069571 4.919754 4.273329 4.724588  C 5.276259 3.763949 5.059934 3.229534 4.623141 3.229534  C 4.367929 3.229534 4.037452 3.411978 3.830937 3.798445  C 3.742835 3.963319 3.638951 3.993028 3.502592 3.993028  C 3.425761 3.993028 3.33862 3.983596 3.238183 3.983596  C 3.185098 3.54565 3.201015 3.460198 3.755756 2.878285  C 4.366706 2.23741 5.261383 1.078191 5.195027 0.600431  C 5.182192 0.369395 5.191833 0 5.012389 0  Z "/></svg>
