<?xml version="1.0" encoding="UTF-8" standalone="no"?>
<svg
   width="2014.5386"
   height="1127.6947"
   version="1.1"
   id="svg2"
   sodipodi:docname="E295.svg"
   inkscape:version="1.4 (e7c3feb1, 2024-10-09)"
   xmlns:inkscape="http://www.inkscape.org/namespaces/inkscape"
   xmlns:sodipodi="http://sodipodi.sourceforge.net/DTD/sodipodi-0.dtd"
   xmlns="http://www.w3.org/2000/svg"
   xmlns:svg="http://www.w3.org/2000/svg">
  <defs
     id="defs2" />
  <sodipodi:namedview
     id="namedview2"
     pagecolor="#ffffff"
     bordercolor="#000000"
     borderopacity="0.25"
     inkscape:showpageshadow="2"
     inkscape:pageopacity="0.0"
     inkscape:pagecheckerboard="0"
     inkscape:deskcolor="#d1d1d1"
     inkscape:zoom="0.12767206"
     inkscape:cx="70.493107"
     inkscape:cy="399.46094"
     inkscape:window-width="1920"
     inkscape:window-height="1147"
     inkscape:window-x="1440"
     inkscape:window-y="25"
     inkscape:window-maximized="1"
     inkscape:current-layer="svg2" />
  <path
     id="path4"
     style="stroke-linecap:round"
     d="M 152.46094 0.052734375 C 150.29415 -0.0208378 148.11782 -0.017973122 145.9375 0.064453125 L 144.66602 0.0859375 C 115.47686 -0.0295425 86.443324 13.246046 68.214844 36.197266 C 53.167844 53.627066 44.855924 76.697766 46.115234 99.759766 C 46.568094 123.89917 57.564002 147.65919 75.732422 163.51172 C 80.831362 170.0709 65.446744 168.62719 62.177734 172.87305 C 55.292954 176.50813 49.059046 181.50022 44.378906 187.75195 C 31.862866 185.06362 26.294149 199.33181 22.949219 207.49023 C 5.9418992 216.23722 0.61692562 237.10633 0.66601562 254.83203 C -0.96844438 260.10309 0.13328373 269.95511 6.9960938 262.64453 C 15.484993 257.29768 29.984649 255.65866 33.480469 267.67773 C 39.472869 280.64244 40.714629 295.33493 47.792969 307.88281 C 53.273249 319.91114 61.410627 330.65245 68.091797 341.83398 L 68.091797 355.31836 L 12.433594 355.31836 L 22.675781 382.39453 C 38.652506 424.63018 77.424564 472.79731 149.28516 481.11523 L 149.28516 1014.5996 C 125.85907 1017.1226 109.59644 1024.728 101.28125 1037.9707 C 81.453461 1069.5483 83.289426 1097.0863 106.78906 1120.5859 L 192.70898 1120.5859 C 324.54238 1125.3251 436.18658 1127.6953 527.64258 1127.6953 C 747.96764 1127.6953 851.12501 1113.9418 837.11328 1086.4375 C 821.19081 1055.1824 834.15548 1039.5547 876.00781 1039.5547 C 886.27328 1039.5547 898.27624 1040.4963 912.01758 1042.377 C 933.61144 1045.3318 957.31761 1046.8086 983.13281 1046.8086 C 1040.7206 1046.8086 1108.81 1039.4568 1187.4043 1024.752 C 1301.2301 1003.4555 1375.4007 983.62671 1409.916 965.26758 C 1432.0411 953.49898 1455.9765 947.61523 1481.7227 947.61523 C 1496.1404 947.61523 1511.1264 949.46154 1526.6797 953.15234 C 1570.0072 963.43348 1596.0782 981.79138 1604.8906 1008.2285 C 1585.7397 1043.5067 1552.4084 1061.1465 1504.8965 1061.1465 C 1483.1767 1061.1465 1458.4923 1057.4603 1430.8457 1050.0879 C 1384.6168 1037.7602 1346.6748 1031.5957 1317.0176 1031.5957 C 1290.1408 1031.5957 1270.0695 1036.6587 1256.8027 1046.7832 C 1228.8971 1068.0799 1227.4284 1093.4147 1252.3965 1122.7891 L 1968.4004 1122.7891 C 2016.8689 1078.7273 2027.15 1027.6884 1999.2441 969.67383 C 1971.3381 911.65916 1924.3386 856.58323 1858.2461 804.44336 C 1792.153 752.30349 1719.4518 704.93682 1640.1406 662.34375 C 1660.8646 644.21008 1680.8737 635.14258 1700.1699 635.14258 C 1724.6347 635.14258 1747.9532 649.71819 1770.123 678.86719 C 1793.3921 709.46172 1813.121 724.75781 1829.3105 724.75781 C 1840.7113 724.75781 1850.356 717.17287 1858.2461 702 C 1805.8983 608.32573 1751.2895 561.48828 1694.4199 561.48828 C 1690.6567 561.48828 1686.883 561.6936 1683.0996 562.10547 C 1622.1469 568.7146 1566.7022 602.86223 1516.7656 664.54883 C 1456.296 679.78169 1399.9621 687.39844 1347.7617 687.39844 C 1233.8702 687.39844 1139.6601 651.14211 1065.1328 578.62891 C 1024.0084 474.34931 974.80595 402.015 917.52539 361.625 C 863.20772 323.32412 804.59745 304.17383 741.69531 304.17383 L 741.69531 304.16992 C 738.26418 304.16992 734.82163 304.22754 731.36523 304.3418 C 664.53817 306.54488 628.92183 320.12926 624.51562 345.09766 C 598.07856 355.37879 573.47634 363.82433 550.71094 370.43359 C 527.94574 377.04273 506.65013 389.16029 486.82227 406.78516 C 466.9944 424.40982 444.96245 440.19941 420.72852 454.15234 C 396.49454 468.10528 382.17576 480.22095 377.76953 490.50195 C 370.42598 506.65802 377.03368 524.28349 397.5957 543.37695 C 397.5957 559.53295 404.93962 572.7522 419.62695 583.0332 C 422.56449 583.0332 425.86942 595.51597 429.54102 620.48438 C 433.21255 645.45271 446.79889 663.8127 470.29883 675.5625 C 499.67343 671.15617 518.76586 662.7105 527.57812 650.22656 C 535.06866 639.61496 544.6829 634.30859 556.41797 634.30859 C 558.48924 634.30859 560.62532 634.47451 562.82812 634.80664 C 577.51553 637.00944 588.5314 649.127 595.875 671.1582 C 589.99993 693.18914 581.55433 732.11021 570.53906 787.92188 C 559.5236 843.73368 559.5236 884.85806 570.53906 911.29492 C 581.55453 937.73206 562.09312 967.47326 512.15625 1000.5195 C 474.06892 1025.7244 421.88408 1038.3281 355.60156 1038.3281 C 334.9803 1038.3281 312.99482 1037.1073 289.64453 1034.668 C 254.9428 1025.0271 225.24236 1018.9336 199.79297 1015.8574 L 199.79297 480.10742 C 229.71823 475.2021 253.46515 462.75459 271.38672 447.35547 C 294.62557 427.38747 308.64762 403.26606 319.00977 385.31836 L 336.33008 355.31836 L 280.07617 355.31836 C 280.5524 311.59169 277.74631 266.18214 256.83984 226.90234 C 245.02765 204.45345 227.39265 184.26118 204.27734 173.0957 C 230.18306 161.97633 246.37715 134.99 249.48242 107.63281 C 253.0803 86.046851 247.88093 63.139066 234.31836 45.822266 C 215.60548 19.501644 184.96272 1.156317 152.46094 0.052734375 z M 143.17383 27.097656 C 144.56678 27.057598 145.96561 27.063877 147.36719 27.117188 C 176.82512 27.172187 204.21552 48.535961 213.83203 75.962891 C 221.36411 99.022901 213.98929 125.37009 197.04688 142.4043 C 178.37242 161.93986 147.80841 166.36354 122.77344 158.42383 C 101.42593 150.95486 85.596782 131.57202 79.382812 110.19922 C 73.905452 91.531317 78.26463 70.749756 90.25 55.509766 C 102.56256 38.655072 122.27958 27.698534 143.17383 27.097656 z M 116.05469 193.89062 C 132.02001 193.0131 149.56176 201.35249 154.64844 217.39844 C 160.99001 232.44558 160.04032 252.43765 146.35156 263.19922 C 137.20994 271.24619 125.53334 275.49921 114.05273 278.99219 C 119.02511 289.47117 126.45905 301.20282 122.4043 313.1543 C 116.09549 324.01794 99.401916 323.17136 92.160156 313.76758 C 76.170566 298.36151 69.629316 276.58505 60.660156 256.9668 C 54.429606 249.35971 49.813244 240.95607 45.589844 232.14258 C 41.282574 226.26212 39.782586 218.00868 48.503906 216.01562 C 54.752456 206.90036 63.728365 200.77236 74.609375 198.51367 C 88.056645 194.66223 102.14954 194.04459 116.05469 193.89062 z M 177.03125 197.21289 C 199.15915 200.3159 215.00774 218.71496 225.3457 237.17773 C 245.4078 272.99944 247.82364 315.10085 247.27539 355.31836 L 100.86719 355.31836 L 100.86719 343.41211 C 118.51923 343.50611 137.02758 333.59391 142.92773 316.23242 C 147.45108 308.44185 142.45384 295.04847 152.15625 291.22656 C 170.69317 280.54096 186.79016 261.9193 187.26953 239.60352 C 187.98306 224.83961 183.38582 210.36939 177.03125 197.21289 z M 75.644531 202.09961 C 63.856271 201.57374 52.114822 211.24305 52.888672 223.53906 C 52.393232 235.12532 61.091978 247.20804 73.361328 247.23242 C 84.739298 248.43877 96.877687 240.66961 98.404297 228.87891 C 101.37534 217.28717 93.467017 203.7403 81.060547 202.66406 C 79.273517 202.33252 77.460481 202.15728 75.644531 202.09961 z M 721.44922 347.30078 L 721.45117 347.30078 C 740.54457 347.30078 753.76376 356.84801 761.10742 375.94141 C 751.70756 372.18147 743.65953 370.30078 736.9668 370.30078 C 722.74486 370.30078 714.63614 378.79106 712.63867 395.76953 C 709.76961 425.8956 701.64584 440.95898 688.26758 440.95898 C 687.94871 440.95898 687.62631 440.94897 687.30078 440.93164 C 673.34791 440.19691 663.43326 433.95454 657.55859 422.20508 C 657.55859 413.39268 668.57474 398.70673 690.60547 378.14453 C 700.88647 357.5824 711.16809 347.30078 721.44922 347.30078 z M 789.74609 362.72266 C 827.93296 365.66019 868.32288 387.32491 910.91602 427.71484 C 953.50928 468.10484 978.47887 509.59632 985.82227 552.18945 C 906.5112 668.21885 794.15205 760.74714 648.74805 829.77734 C 642.87298 768.09081 653.15473 706.40535 679.5918 644.71875 C 728.05966 600.65695 749.35729 563.57176 743.48242 533.46289 C 737.60736 503.35396 747.15256 483.15809 772.12109 472.87695 C 827.93296 462.59589 833.80803 425.87792 789.74609 362.72266 z M 659.76367 382.54688 L 659.76367 382.55078 C 640.67034 395.76931 633.32817 412.66046 637.73438 433.22266 C 640.67191 442.03499 649.48286 449.37709 664.16992 455.25195 C 677.38846 461.12702 682.52926 476.54938 679.5918 501.51758 C 682.52933 555.86051 659.76474 597.71915 611.29688 627.09375 C 603.95314 609.46895 589.63247 599.92179 568.33594 598.45312 C 566.30787 598.31359 564.33708 598.24414 562.42188 598.24414 C 544.22921 598.24414 531.14494 604.55555 523.17188 617.17969 C 516.97061 626.99835 509.67819 631.9082 501.29492 631.9082 C 497.76552 631.9082 494.04389 631.03734 490.12695 629.29688 C 487.72349 629.89474 485.47039 630.19531 483.36719 630.19531 C 470.04845 630.19531 462.75479 618.14344 461.48633 594.04297 C 476.17366 592.57417 486.45319 589.63674 492.32812 585.23047 C 498.20319 580.82414 509.2192 575.68339 525.375 569.80859 C 518.223 561.63486 510.89419 557.54883 503.38672 557.54883 C 500.10245 557.54883 496.78242 558.33013 493.42969 559.89453 C 482.41429 565.03486 471.03314 569.07405 459.2832 572.01172 C 434.31487 567.60545 424.76764 555.12261 430.64258 534.56055 C 415.95531 518.40455 410.81457 504.45111 415.2207 492.70117 C 447.53277 472.13904 474.33628 452.67749 495.63281 434.31836 C 516.92935 415.95936 540.79718 404.9453 567.23438 401.27344 C 593.67151 397.60184 624.51441 391.35941 659.76367 382.54688 z M 753.01367 386.63867 L 753.01367 386.64258 C 758.40914 386.64258 761.10742 390.41919 761.10742 397.97266 C 758.41502 427.59192 747.08219 442.40039 727.11133 442.40039 C 725.29579 442.40039 723.40957 442.279 721.45117 442.0332 L 721.45117 437.62695 L 730.26367 417.79883 C 731.64081 397.14476 737.53635 386.81836 747.94922 386.81836 C 748.64342 386.81836 749.35578 386.86403 750.08984 386.95703 C 751.13871 386.7445 752.11421 386.63867 753.01367 386.63867 z M 73.431641 395.31836 L 265.02539 395.31836 C 259.2318 403.07496 252.85317 410.54328 245.31836 417.01758 C 228.23893 431.69308 206.41338 442.38477 171.53516 442.38477 C 118.50939 442.38477 90.141941 421.28136 73.431641 395.31836 z M 556.78711 411.67188 C 543.51131 411.67188 531.20587 415.55179 519.86914 423.30859 C 505.91614 432.85526 501.87702 449.37735 507.75195 472.87695 L 516.56445 472.87695 C 518.03325 458.18969 522.43967 446.07401 529.7832 436.52734 C 537.12687 426.98061 549.24241 422.20703 566.13281 422.20703 C 583.02321 422.20703 591.46875 420.00392 591.46875 415.59766 L 566.13281 412.29297 C 562.96608 411.8811 559.85084 411.67383 556.78711 411.67383 L 556.78711 411.67188 z M 556.21875 431.01562 L 556.21875 431.01953 C 538.59395 431.01953 529.78125 443.50237 529.78125 468.4707 L 529.78125 481.68945 C 531.25005 481.98172 532.60234 482.12891 533.83594 482.12891 C 538.771 482.12891 541.82487 479.77799 543 475.07812 C 567.9684 469.20306 586.32833 458.92151 598.07812 444.23438 C 587.79706 435.42204 573.84348 431.01563 556.21875 431.01562 z M 516.5625 488.29883 C 509.21883 498.57989 508.48444 511.43178 514.35938 526.85352 C 520.23444 542.27512 556.95436 552.92389 624.51562 558.79883 L 639.93555 552.18945 C 554.74921 546.31439 516.5626 526.48574 525.375 492.70508 L 516.5625 488.29883 z M 1010.0547 624.88867 L 1010.0566 624.89062 C 1101.5835 712.65616 1218.2625 756.53906 1360.0938 756.53906 C 1384.4076 756.53906 1409.4597 755.24939 1435.252 752.66992 C 1437.8958 751.78839 1440.4082 751.34766 1442.7871 751.34766 C 1464.2012 751.34766 1474.9082 787.0377 1474.9082 858.41797 C 1329.504 923.0417 1214.9437 958.29108 1131.2266 964.16602 C 1106.4214 965.90648 1081.2605 966.77734 1055.7461 966.77734 C 995.14947 966.77734 932.5539 961.86756 867.95703 952.04883 C 854.00416 949.92769 841.05887 948.86719 829.125 948.86719 C 762.54627 948.86719 727.38874 981.87241 723.65234 1047.8828 C 661.96601 974.44661 639.93575 924.5094 657.56055 898.07227 C 802.96435 833.44827 920.46213 742.38687 1010.0547 624.88867 z M 1598.0371 734.83008 C 1600.2406 734.83008 1602.5244 734.90263 1604.8887 735.04883 C 1670.9815 746.79863 1731.1999 776.54166 1785.543 824.27539 C 1839.8862 872.00892 1878.807 931.12417 1902.3066 1001.623 C 1906.713 1008.9666 1890.5584 1012.6387 1853.8398 1012.6387 C 1699.6236 948.01473 1601.9529 882.65719 1560.8281 816.56445 C 1542.6663 762.07832 1555.0687 734.83398 1598.0371 734.83398 L 1598.0371 734.83008 z " />
</svg>
