<?xml version="1.0" encoding="UTF-8" standalone="no"?>
<svg
   width="24.149265"
   height="17.983217"
   version="1.1"
   id="svg1"
   sodipodi:docname="E31B.svg"
   inkscape:version="1.4 (e7c3feb1, 2024-10-09)"
   xmlns:inkscape="http://www.inkscape.org/namespaces/inkscape"
   xmlns:sodipodi="http://sodipodi.sourceforge.net/DTD/sodipodi-0.dtd"
   xmlns="http://www.w3.org/2000/svg"
   xmlns:svg="http://www.w3.org/2000/svg"
   xmlns:rdf="http://www.w3.org/1999/02/22-rdf-syntax-ns#"
   xmlns:cc="http://creativecommons.org/ns#"
   xmlns:dc="http://purl.org/dc/elements/1.1/">
  <title
     id="title1">E31B</title>
  <defs
     id="defs1" />
  <sodipodi:namedview
     id="namedview1"
     pagecolor="#ffffff"
     bordercolor="#000000"
     borderopacity="0.25"
     inkscape:showpageshadow="2"
     inkscape:pageopacity="0.0"
     inkscape:pagecheckerboard="0"
     inkscape:deskcolor="#d1d1d1"
     inkscape:zoom="12.652406"
     inkscape:cx="6.4809809"
     inkscape:cy="5.6510992"
     inkscape:window-width="1304"
     inkscape:window-height="536"
     inkscape:window-x="0"
     inkscape:window-y="25"
     inkscape:window-maximized="0"
     inkscape:current-layer="svg1" />
  <path
     style="fill:#000000;stroke:none"
     d="M 4.002822,2.201224 C 4.911264,1.4884467 5.6869337,1.05519 6.329831,0.901454 6.9727283,0.74771733 7.8112897,0.71976533 8.845515,0.817598 9.879741,0.91543 11.025775,0.80362167 12.283618,0.482173 L 12.241691,0.356389 C 10.955896,0.593981 9.7993797,0.670849 8.772141,0.586993 7.744903,0.503137 6.9098353,0.538077 6.266938,0.691813 5.6240407,0.84554967 4.834395,1.2788067 3.898001,1.991584 Z M 4.233426,2.515685 4.35921,2.683397 C 5.295604,1.9426677 6.0223577,1.512905 6.539471,1.394109 7.0565837,1.2753123 7.8532173,1.2543483 8.929372,1.331217 10.005526,1.408085 11.165536,1.271819 12.409403,0.922418 l -0.10482,-0.10482 C 11.11662,1.1110947 9.988056,1.2089267 8.91889,1.111094 7.8497233,1.013262 7.0006793,1.044708 6.371758,1.205432 5.7428373,1.3661567 5.03006,1.8029077 4.233426,2.515685 Z M 5.113916,3.626779 5.2397,3.752563 C 6.3298307,3.459067 7.0915243,2.9838823 7.524781,2.327009 c -0.838562,0 -1.6421837,0.4332567 -2.410865,1.29977 z M 3.26908,3.438103 C 3.255104,3.9691917 2.9196793,4.234736 2.262806,4.234736 2.067142,4.2067847 2.046178,4.0390727 2.199914,3.7316 2.5772667,3.5359353 2.9336553,3.438103 3.26908,3.438103 Z M 8.468163,5.387759 C 8.2724983,6.0725843 7.9475557,6.7713857 7.493335,7.484163 7.0391143,8.1969403 6.5115193,8.7280293 5.91055,9.07743 c 0.6149447,1.705075 1.5373623,2.557613 2.767253,2.557613 H 9.474437 C 8.9852757,11.411427 8.5065967,11.124918 8.0384,10.775517 7.5702027,10.426116 7.336104,9.657435 7.336104,8.469473 L 7.77635,8.448509 C 7.762373,9.0774303 7.874181,9.5456273 8.111774,9.8531 c 0.2375927,0.307472 0.5904873,0.580004 1.058684,0.817597 0.4681967,0.237593 0.852538,0.653379 1.153023,1.24736 0.300484,0.593982 0.607956,1.261338 0.922417,2.002067 0.314461,0.74073 0.618439,1.642184 0.911936,2.704361 0.321449,0.02795 0.607957,0.0559 0.859526,0.08386 L 12.765791,16.2681 13.247964,16.31003 C 12.087954,15.177967 11.476503,13.983016 11.41361,12.725173 11.350718,11.46733 11.130596,10.454069 10.753243,9.685388 10.389867,9.0424907 10.124323,8.700078 9.95661,8.65815 V 8.553329 c 0.656873,0.055904 1.22989,0.7896457 1.719051,2.201225 0.74073,0.223616 1.537364,0.321448 2.389901,0.293496 0.852538,-0.02795 1.530375,-0.146748 2.033511,-0.356388 1.327723,-0.545066 2.152309,-0.817599 2.473757,-0.817599 1.048203,0 1.733029,0.335425 2.054478,1.006275 0.377352,0.614945 0.758199,1.415072 1.14254,2.400383 0.384341,0.985309 0.562535,1.869293 0.534582,2.651951 l 0.125784,0.628922 h 0.10482 c 0.06988,0 0.09783,0.01398 0.08386,0.04193 l 0.230604,-0.04193 C 22.611903,16.058457 22.479131,15.492427 22.45118,14.863505 l 0.04193,-2.410864 c -0.461209,-0.586993 -0.817597,-1.104107 -1.069166,-1.55134 0.726753,-1.5233867 1.111094,-2.5436363 1.153022,-3.060749 0,-0.3773527 -0.1747,-0.7616933 -0.524101,-1.153022 C 21.270205,6.1704167 20.536463,5.925836 19.851637,5.953788 16.623175,6.3730687 14.491831,6.544275 13.457604,6.467407 12.423378,6.390539 11.389152,6.2193327 10.354926,5.953788 9.3207,5.6882433 8.691779,5.499567 8.468163,5.387759 Z M 23.101065,5.199082 c 0.02795,0.768682 -0.04892,1.3277233 -0.230606,1.677124 0.0559,0 0.09084,0.041928 0.10482,0.125784 0.461209,-0.5450653 0.691814,-1.1460347 0.691814,-1.802908 z M 4.380175,8.008264 C 4.2823423,8.1899527 4.296318,8.322725 4.422102,8.406581 4.6177667,8.532365 4.7645153,8.518389 4.862348,8.364653 Z m 11.15287,3.438103 c 0.167713,0.181689 0.118796,0.538077 -0.146749,1.069166 l 0.146749,0.08386 c 0.405305,-0.782657 0.953864,-1.31724 1.645677,-1.603749 0.691813,-0.286509 1.114588,-0.429763 1.268324,-0.429763 0.517113,0.01398 0.824586,0.216629 0.922419,0.607958 0.0559,0.363377 0.167712,0.604463 0.335424,0.723259 0.167712,0.118796 0.342413,0.115302 0.524102,-0.01048 0.181687,-0.125785 0.174699,-0.363377 -0.02096,-0.712777 -0.195665,-0.349401 -0.42627,-0.586993 -0.691815,-0.712778 -0.265545,-0.125784 -0.621933,-0.160724 -1.069166,-0.104821 z m 2.347973,-0.293497 c 0.08386,2.082428 -0.607958,3.913288 -2.075441,5.492579 0.656874,0.111809 1.030733,0.111809 1.121578,0 0.09084,-0.111808 0.1153,-0.398316 0.07337,-0.859525 l 1.802908,-3.7316 c -0.321449,-0.237593 -0.440246,-0.621934 -0.35639,-1.153023 -0.181687,0 -0.370363,0.08386 -0.566028,0.251569 z m 1.006273,-0.314461 c -0.195663,0.503137 -0.08385,0.838562 0.335424,1.006275 z M 7.084536,11.572151 c 0,0.922418 -0.2725327,1.837848 -0.817598,2.746289 l -0.524101,1.572304 -0.628921,0.77567 0.670849,0.188675 C 5.714885,16.603521 5.718379,16.400869 5.795248,16.247133 5.872116,16.093396 6.0922383,16.051467 6.455615,16.121347 L 6.43465,15.09411 C 6.9657393,14.101812 7.4339367,13.01867 7.839242,11.844684 Z M 0.606647,5.220047 c 0,-0.083857 0.11879633,-0.139761 0.356389,-0.167713 0.251568,0 0.377352,0.055904 0.377352,0.167713 0,0.097832 -0.1956643,0.216628 -0.586993,0.356388 C 0.655563,5.520531 0.606647,5.401735 0.606647,5.220047 Z M 0.87918,5.995716 C 1.200628,5.953788 1.5150883,5.8349917 1.822561,5.639327 2.1300337,5.443663 2.3047343,5.436675 2.346663,5.618363 2.3326863,5.7581237 2.206902,5.84198 1.96931,5.869932 1.7317173,5.897884 1.4452087,6.01668 1.109784,6.22632 1.19364,6.3800567 1.284484,6.439455 1.382316,6.404515 1.4801487,6.369575 1.6723193,6.2927067 1.958828,6.17391 2.2453367,6.055114 2.7449797,5.925836 3.457757,5.786076 3.583541,6.4149967 4.2124623,7.197654 5.344521,8.134048 6.462603,7.2116307 7.03562,6.2542727 7.063572,5.261974 6.029346,4.954502 5.3095803,4.5946193 4.904275,4.182326 4.498971,3.7700333 4.2054747,3.4066567 4.023786,3.092196 3.8420973,2.7777353 3.5311307,2.6519513 3.090886,2.714844 2.6506413,2.777736 2.2767827,3.1096663 1.96931,3.710635 L 0.564719,5.199082 C 0.452911,5.4226987 0.55773133,5.6882433 0.87918,5.995716 Z m 3.207498,3.773527 c 0.3494007,0.2096407 0.8385617,0.370365 1.467483,0.482173 0.041928,0.04193 0.03494,0.10482 -0.020964,0.188677 l 0.566029,0.293496 0.020964,0.10482 -0.586993,0.964346 -0.125784,0.02097 -0.524101,-0.377353 C 4.841383,11.544202 4.792467,11.572156 4.736563,11.530232 4.3731863,10.999143 4.0098097,10.62179 3.646433,10.398174 3.1712483,11.124927 2.3396747,12.536506 1.151712,14.63291 1.095808,14.70279 1.025928,14.71677 0.942072,14.67484 L 0.124474,14.150728 C 0.054594,14.1088 0.040618,14.045908 0.082546,13.962052 1.4382207,11.977456 2.3536503,10.614793 2.828835,9.874063 2.4514823,9.636471 1.9413573,9.468759 1.29846,9.370927 1.242556,9.356951 1.242556,9.301047 1.29846,9.203215 L 0.753395,8.909718 0.711467,8.804897 1.319424,7.819588 H 1.445209 L 1.948346,8.19694 C 2.00425,8.099108 2.053166,8.064168 2.095094,8.09212 2.4724467,8.6092333 2.8218473,8.9795983 3.143296,9.203215 3.171248,8.2528443 3.3040203,7.4911507 3.541613,6.918134 L 3.122332,6.289213 C 2.8288353,6.331141 2.4934107,6.394033 2.116058,6.477889 1.8644893,6.8272897 1.675813,7.1382563 1.550029,7.410789 1.4242443,7.6833217 1.200628,7.798624 0.87918,7.756696 V 6.561745 C 0.72544333,6.575721 0.52279067,6.4359607 0.271222,6.142464 0.019654,5.8489673 -0.057214,5.5554707 0.040618,5.261974 0.43194667,4.7169093 0.94905967,4.1508803 1.591957,3.563887 1.8015977,2.9349657 2.2348543,2.4877327 2.891727,2.222188 3.2970323,1.956644 3.6254693,1.7120637 3.877038,1.488447 4.7435513,0.83157367 5.5192207,0.433257 6.204046,0.293497 6.8888713,0.15373633 7.734421,0.129278 8.740695,0.220122 9.746969,0.31096667 10.906979,0.23759267 12.220726,0 c 0.223616,0.013976 0.3494,0.080362 0.377353,0.199158 0.02795,0.11879667 -0.02096,0.241087 -0.146748,0.366871 0.251569,0.097832 0.300485,0.26554433 0.146748,0.503137 C 12.486271,1.2508547 12.126388,1.418567 11.518431,1.572303 10.910474,1.7260397 9.8133557,1.7679677 8.227077,1.698087 6.6407977,1.628207 5.456329,2.089416 4.673671,3.081714 4.659695,3.09569 4.680659,3.137618 4.736563,3.207498 5.645005,2.173272 6.7770633,1.7679673 8.132738,1.991584 7.895146,3.137618 7.0915243,3.8503953 5.721873,4.129916 6.0712737,4.3814847 6.5464587,4.549197 7.147428,4.633053 7.259236,4.381485 7.4758643,4.262689 7.797313,4.276665 c 0.3633773,0.041928 0.5730177,0.1956643 0.628921,0.461209 2.138333,0.7267533 3.83642,1.114588 5.094262,1.163504 1.257843,0.048916 3.333284,-0.1292783 6.226321,-0.534583 1.187963,-0.1257847 2.110381,0.230604 2.767254,1.069166 L 22.66082,5.639327 22.618891,4.716909 h 1.530374 v 0.524102 c 0,0.7686813 -0.3494,1.5792907 -1.0482,2.431828 0,0.866514 -0.342413,1.9636323 -1.027239,3.291355 0.209641,0.433257 0.524101,0.873501 0.943382,1.320734 l -0.08386,2.64147 c 0,0.475185 0.188676,1.146034 0.566028,2.012548 0,0.167712 -0.188676,0.335424 -0.566028,0.503137 -0.04193,0.279521 -0.262051,0.450727 -0.660368,0.513619 -0.398317,0.06289 -0.765188,0.01747 -1.100611,-0.136267 0.04193,-0.740729 0.139759,-1.208925 0.293495,-1.40459 0.209641,-0.293497 0.314461,-0.517113 0.314461,-0.670849 0,-0.866514 -0.412293,-2.061465 -1.236878,-3.584852 -0.195665,0.167713 -0.398317,0.251569 -0.607958,0.251569 -0.20964,0 -0.426268,-0.09084 -0.649885,-0.272532 l -1.865799,3.752563 c 0.0559,0.125784 0.08385,0.328436 0.08385,0.607957 0,0.293497 -0.146748,0.454221 -0.440245,0.482172 l -0.146747,0.04193 v 0.943383 h -2.327009 v -0.461211 c 0.964346,-0.936393 1.747003,-2.012547 2.347972,-3.228462 0.321449,-0.922417 0.468198,-1.921703 0.440245,-2.997858 -0.642897,0.209641 -1.16001,0.63591 -1.551339,1.278807 l -0.167712,0.335425 c -0.195664,0 -0.370364,-0.125784 -0.524101,-0.377353 0.265545,-0.559041 0.293497,-0.901454 0.08386,-1.027238 -1.495435,0.125784 -2.64147,0.09084 -3.438103,-0.104821 0.153737,1.705076 0.349401,2.742796 0.586994,3.113161 0.237593,0.370365 0.670849,0.960852 1.29977,1.771462 l -0.272533,0.398317 0.251569,0.62892 c -0.461209,0.53109 -1.201938,0.754707 -2.222189,0.670851 L 11.69662,16.687379 C 11.417105,15.611223 11.0118,14.514105 10.480711,13.396023 l -0.77567,-1.278807 c -0.6988013,0.08386 -1.118082,0.0559 -1.257842,-0.08386 -0.013977,0.195665 -0.2795213,0.74073 -0.796634,1.635195 -0.5171127,0.894466 -0.775669,1.474471 -0.775669,1.740016 v 1.153023 l -0.77567,-0.146749 0.167712,0.230604 v 1.320736 H 4.191498 C 4.3592107,17.08569 4.512947,16.645445 4.652707,16.645445 L 5.428377,15.6811 C 5.665969,14.758686 5.9175373,14.035426 6.183082,13.511325 6.4486267,12.987224 6.588387,12.284928 6.602363,11.404439 5.9035617,10.482021 5.491269,9.8181597 5.365485,9.412855 5.1698203,9.468759 4.7435513,9.587555 4.086678,9.769243 Z"
     id="path1"
     sodipodi:nodetypes="cssccssccccssccssccccccccccscscsccssssccccsccccscscsccsccccccccsscccccccccccccsccssssccccsccccccccscccsccccscscscccscsscccsssccccccccccccccccccccccccccccccsccsccccsscsccsscccccccscccccsccccccsccscsccsccccccccccccsccccccccsscccccccscccc" />
  <metadata
     id="metadata1">
    <rdf:RDF>
      <cc:Work
         rdf:about="">
        <dc:title>E31B</dc:title>
        <dc:creator>
          <cc:Agent>
            <dc:title>S. J. P. Thomas</dc:title>
          </cc:Agent>
        </dc:creator>
        <dc:description>Goat with a anx (S34) collar.
Variant of Gardiner E31 (goat with collar carrying a cylinder seal). Corresponds to the shape chosen for E31 in the Hieroglyphica.</dc:description>
      </cc:Work>
    </rdf:RDF>
  </metadata>
</svg>
