<?xml version="1.0" encoding="UTF-8" standalone="no"?>
<svg
   xmlns:dc="http://purl.org/dc/elements/1.1/"
   xmlns:cc="http://web.resource.org/cc/"
   xmlns:rdf="http://www.w3.org/1999/02/22-rdf-syntax-ns#"
   xmlns:svg="http://www.w3.org/2000/svg"
   xmlns="http://www.w3.org/2000/svg"
   xmlns:sodipodi="http://sodipodi.sourceforge.net/DTD/sodipodi-0.dtd"
   xmlns:inkscape="http://www.inkscape.org/namespaces/inkscape"
   width="17.591343"
   height="10.8"
   id="svg1333"
   sodipodi:version="0.32"
   inkscape:version="0.44"
   sodipodi:docname="E34.svg"
   sodipodi:docbase="/home/rosmord/Travail/Gsigns/SThomasDetail/FullFont/E">
  <metadata
     id="metadata1340">
    <rdf:RDF>
      <cc:Work
         rdf:about="">
        <dc:format>image/svg+xml</dc:format>
        <dc:type
           rdf:resource="http://purl.org/dc/dcmitype/StillImage" />
        <dc:title>US22E24B</dc:title>
        <dc:date>22/01/2006</dc:date>
        <dc:creator>
          <cc:Agent>
            <dc:title>Serge Thomas</dc:title>
          </cc:Agent>
        </dc:creator>
        <dc:publisher>
          <cc:Agent>
            <dc:title>Serge Rosmorduc</dc:title>
          </cc:Agent>
        </dc:publisher>
        <dc:identifier>US22</dc:identifier>
        <dc:source>KV 57</dc:source>
        <dc:relation>wn</dc:relation>
        <dc:description>reprise et optimisation de E24</dc:description>
        <cc:license
           rdf:resource="http://creativecommons.org/licenses/GPL/2.0/" />
      </cc:Work>
      <cc:License
         rdf:about="http://creativecommons.org/licenses/GPL/2.0/">
        <cc:permits
           rdf:resource="http://web.resource.org/cc/Reproduction" />
        <cc:permits
           rdf:resource="http://web.resource.org/cc/Distribution" />
        <cc:requires
           rdf:resource="http://web.resource.org/cc/Notice" />
        <cc:permits
           rdf:resource="http://web.resource.org/cc/DerivativeWorks" />
        <cc:requires
           rdf:resource="http://web.resource.org/cc/ShareAlike" />
        <cc:requires
           rdf:resource="http://web.resource.org/cc/SourceCode" />
      </cc:License>
    </rdf:RDF>
  </metadata>
  <defs
     id="defs1338" />
  <sodipodi:namedview
     inkscape:window-height="708"
     inkscape:window-width="1024"
     inkscape:pageshadow="2"
     inkscape:pageopacity="0.0"
     borderopacity="1.0"
     bordercolor="#666666"
     pagecolor="#ffffff"
     id="base"
     inkscape:zoom="48.942153"
     inkscape:cx="8.476644"
     inkscape:cy="5.4005411"
     inkscape:window-x="25"
     inkscape:window-y="0"
     inkscape:current-layer="svg1333" />
  <path
     style="fill:#000000; stroke:none"
     d="M 7.378019,9.367402 C 7.989261,9.9316253 8.259618,10.331284 8.18909,10.566378 L 2.705545,10.566378 C 2.0825483,10.742697 1.447797,10.754451 0.801291,10.601641 C 0.81304567,10.178473 1.0128747,9.890484 1.400778,9.737674 C 1.7886813,9.5848633 3.205117,9.5848633 5.650085,9.737674 C 4.0161883,8.7737927 3.0758163,7.6982417 2.828969,6.511021 C 2.0531617,6.4169837 1.5006927,6.5051437 1.171562,6.775501 C 0.71313067,6.8107643 0.36930733,6.760807 0.140092,6.625629 C -0.089124,6.4904503 -0.039167,5.9820617 0.289963,5.100463 C 0.18417167,4.595013 0.21355833,4.2012323 0.378123,3.919121 C 0.54268833,3.637009 0.983488,3.26086 1.700522,2.790674 C 2.7349313,1.2508147 4.2248333,0.507333 6.170228,0.560229 C 8.115624,0.613125 9.90527,0.427989 11.539166,0.004821 C 12.267954,-0.042197667 12.47366,0.18407933 12.156285,0.683652 C 11.838909,1.1832253 11.262931,1.5916997 10.428352,1.909075 C 11.321705,1.9325843 12.197427,2.014867 13.055516,2.155923 C 12.890951,2.7201463 12.30028,3.0169513 11.283503,3.046338 C 10.266724,3.075724 9.182357,3.3872223 8.030401,3.980833 C 6.8784457,4.5744423 5.5501703,4.5773807 4.045575,3.989648 C 5.2798137,4.9652847 6.1966767,5.5912203 6.796164,5.867455 C 7.3956513,6.1436883 8.0010157,6.214216 8.612257,6.079038 C 9.223499,5.9438593 10.252031,5.8880247 11.697854,5.911534 C 13.143675,5.9350433 14.302942,6.3088174 15.241881,6.934189 C 16.420962,7.7195051 16.50248,8.921242 16.50248,8.921242 C 16.53916,7.998844 15.987375,7.6345746 16.567334,7.2997348 C 17.356873,6.8438943 17.479724,8.0115337 17.441437,8.9524869 C 17.421005,9.4546367 17.465066,9.5016317 16.670073,10.425321 C 16.315518,10.837273 15.582765,10.686861 14.924505,10.610456 C 14.266244,10.534052 13.261222,10.554623 11.909438,10.672169 C 11.345215,10.836734 10.575285,10.842611 9.599648,10.6898 C 9.8700047,10.055049 10.440105,9.7788153 11.309949,9.861098 C 12.179794,9.9433807 12.861565,9.884607 13.35526,9.684777 L 12.403131,9.26161 C 10.428351,9.708286 8.7533137,9.74355 7.378019,9.367402 z M 3.287399,3.072785 C 3.6282843,3.319633 4.2924223,3.54591 5.279813,3.751616 C 6.2672037,3.9573227 7.0900297,3.8397763 7.748291,3.398977 C 8.4065517,2.9581777 9.2029293,2.7230847 10.137424,2.693698 C 11.071919,2.6643113 11.694915,2.5937833 12.006413,2.482114 C 12.317911,2.3704447 11.950578,2.332242 10.904415,2.367506 C 9.8582503,2.40277 8.75919,2.291101 7.607234,2.032499 C 6.4552787,1.7738963 5.511968,1.768019 4.777302,2.014867 C 4.042636,2.261715 3.5460017,2.6143543 3.287399,3.072785 z M 2.564488,2.57909 C 4.21014,1.4388887 5.844037,1.0598013 7.466179,1.441828 C 9.088321,1.823854 10.445983,1.527049 11.539166,0.551413 C 10.093345,0.90405233 8.756253,1.0656787 7.527891,1.036292 C 6.2995297,1.0069053 5.414992,1.0304147 4.874278,1.10682 C 4.333564,1.1832253 3.563634,1.673982 2.564488,2.57909 z M 1.118666,6.123118 C 1.4948153,5.8762707 2.1413213,5.793988 3.058184,5.87627 C 3.2580133,5.617668 3.3784987,5.2826603 3.41964,4.871247 C 3.4607813,4.4598343 3.2991547,4.0513603 2.93476,3.645825 C 2.570366,3.2402897 2.1148733,3.228535 1.568282,3.610561 C 1.0216907,3.992587 0.774843,4.3187787 0.827739,4.589136 C 0.880635,4.8594927 0.81304567,5.3414333 0.624971,6.034958 L 1.118666,6.123118 z M 4.116103,4.853616 C 4.0220657,4.677296 3.975047,4.762517 3.975047,5.109279 C 3.975047,5.4560417 3.8839483,5.7704787 3.701751,6.05259 C 3.5195543,6.334702 3.593021,6.7578693 3.922151,7.322092 C 4.251281,7.8863153 4.7773017,8.4005817 5.500213,8.864891 C 6.2231237,9.329199 6.619843,9.4056043 6.690371,9.094107 C 6.7608997,8.7826083 7.2163927,8.706203 8.05685,8.864891 C 8.8973073,9.0235783 9.7171947,9.076474 10.516512,9.023578 C 11.315829,8.970682 11.771321,8.867829 11.88299,8.715019 C 11.994659,8.5622083 11.953517,8.1831203 11.759565,7.577755 C 11.565614,6.9723903 11.168894,6.628567 10.569407,6.546285 C 9.9699203,6.4640023 9.1764813,6.5227757 8.18909,6.722605 C 7.2016993,6.9224343 5.844037,6.299438 4.116103,4.853616 z M 12.314972,6.652077 C 12.314972,7.263319 12.42958,7.7834627 12.658795,8.212508 C 12.888011,8.6415527 13.252405,9.047088 13.751978,9.429114 C 14.251551,9.81114 14.71586,9.952196 15.144904,9.852282 C 15.573949,9.7523673 15.773777,9.4878877 15.74439,9.058843 C 15.715005,8.6297983 15.312409,8.071452 14.536603,7.383804 C 13.760794,6.6961573 13.020251,6.4522483 12.314972,6.652077 z M 1.2295765,5.0964906 C 0.94425158,4.6263046 1.1186667,4.4363253 1.471306,4.342288 C 1.8239453,4.2482507 2.0040151,4.3869632 2.035529,4.75664 C 2.0692752,5.1525036 1.5890611,5.3732751 1.2295765,5.0964906 z "
     id="path1335"
     sodipodi:nodetypes="ccccscccscscscsccsscsssscssssccsccccsssssssccscsscccsssscccsssssssssssccsssssccssc" />
  <path
     style="fill:#000000;fill-opacity:1;fill-rule:nonzero;stroke:none;stroke-width:1px;stroke-linecap:butt;stroke-linejoin:miter;stroke-opacity:1"
     d="M 1.1311044,4.8505119 C 1.0666909,4.6963712 1.0640051,4.3778401 1.2563043,4.1473292 C 1.5979189,3.7378324 2.52552,3.4897777 2.3105379,3.6525533 C 2.1583428,3.7677891 1.6714026,3.9402769 1.4516644,4.2417586 C 1.3921157,4.3234597 1.4282937,4.5027745 1.2086503,4.6066449 C 1.170474,4.6389742 1.1689374,4.817781 1.1311044,4.8505119 z "
     id="path1348"
     sodipodi:nodetypes="cssssc" />
  <path
     style="fill:#000000;fill-opacity:1;fill-rule:nonzero;stroke:none;stroke-width:1px;stroke-linecap:butt;stroke-linejoin:miter;stroke-opacity:1"
     d="M 1.15281,5.7035727 C 1.1995833,5.6576228 0.96963386,6.082999 0.93379139,6.1379187 C 0.71132854,6.4787876 0.6899355,6.1791486 0.75366738,6.1043466 C 0.70805261,6.1432272 1.0016747,5.643568 1.0475551,5.55041 C 1.0828612,5.5031827 1.2296439,5.6253361 1.15281,5.7035727 z "
     id="path1355"
     sodipodi:nodetypes="cssss" />
  <path
     style="fill:#000000;fill-opacity:1;fill-rule:nonzero;stroke:none;stroke-width:1px;stroke-linecap:butt;stroke-linejoin:miter;stroke-opacity:1"
     id="path1361"
     d="M 0.92460822,5.3856642 C 0.84109774,5.34154 1.5436813,5.6783371 1.4635348,5.6965381 L 1.2077612,5.7546234 C 1.0209289,5.760991 0.97577975,5.7046563 0.96632456,5.6457147 L 0.92460822,5.3856642 z "
     sodipodi:nodetypes="cscsc" />
  <path
     style="fill:#000000;fill-opacity:1;fill-rule:nonzero;stroke:none;stroke-width:1px;stroke-linecap:butt;stroke-linejoin:miter;stroke-opacity:1"
     id="path1363"
     d="M 0.096584148,5.7243897 L 0.2545689,5.7797547 L 0.16722715,5.9187737 L -0.61502728,6.2787122 L -1.1065915,6.2924646 L 0.096584148,5.7243897 z "
     sodipodi:nodetypes="cccccc" />
  <path
     style="fill:#000000;fill-opacity:1;fill-rule:nonzero;stroke:none;stroke-width:1px;stroke-linecap:butt;stroke-linejoin:miter;stroke-opacity:1"
     id="path1365"
     d="M -1.0127912,6.8782581 L 0.19484661,6.0744852 L 0.2648513,6.2779146 L -0.55294543,6.8178696 L -1.0127912,6.8782581 z "
     sodipodi:nodetypes="ccccc" />
</svg>
