<?xml version="1.0" encoding ="US-ASCII" standalone="yes"?>
<svg width="18.73855" height="18.48">
<path style="fill:#000000; stroke:none" d=" M 2.506654 10.521809  L 2.524183 10.504281  Q 2.769589 9.925821 3.523338 10.101111  Q 3.786274 10.188758 3.768745 10.276402  L 3.768745 10.293931  Q 3.698629 10.591925 2.822176 10.767216  Q 2.541712 10.6971 2.506654 10.521809  Z  M 2.541712 6.10449  Q 2.331363 6.928355 2.743296 7.59446  Q 3.155228 8.260563 3.944035 8.453382  Q 4.750372 8.628673 5.398946 8.172918  Q 6.047521 7.717163 6.222811 6.998472  Q 6.345514 6.27978 6.029992 5.604913  Q 5.714468 4.930044 4.855545 4.719696  Q 3.961564 4.509347 3.339283 4.947573  Q 2.717002 5.385799 2.541712 6.10449  Z  M 5.100952 4.369115  Q 5.977405 4.579464 6.24034 5.122864  L 6.520805 1.371648  Q 7.046676 1.494351 7.116793 1.178828  Q 7.186909 0.880835 6.713624 0.758131  Q 6.450689 0.705544 6.257869 0.845776  Q 6.06505 0.986009 5.854702 1.284003  L 5.100952 4.369115  Z  M 4.7679 4.28147  L 5.521649 1.213886  Q 5.486591 0.845776 5.355123 0.617899  Q 5.223656 0.390021 4.873075 0.319905  Q 4.557552 0.23226 4.487436 0.530254  Q 4.41732 0.845776 4.925662 0.96848  L 3.365577 4.421701  Q 3.996623 4.08865 4.7679 4.28147  Z  M 15.145096 12.081895  L 12.1301 8.365737  L 11.989867 8.48844  L 14.496521 12.642823  Q 15.05745 12.607766 15.145096 12.081895  Z  M 5.328829 11.082739  L 4.995778 10.819803  Q 6.222811 10.293931 6.503276 9.662887  Q 5.574236 9.890764 5.539178 10.048524  Q 5.118481 10.609455 4.41732 10.574396  Q 4.855545 10.346519 4.925662 10.030996  Q 4.978249 9.78559 4.504965 9.522655  Q 3.277931 9.259719 3.102641 9.487597  Q 2.804647 9.557713 1.928195 10.451694  L 0.823865 11.415791  Q 0.666104 11.801429 1.069272 12.081895  Q 2.506654 11.801429 2.979938 11.906604  Q 3.751216 12.081895 4.382262 12.940818  Q 5.381417 12.502591 6.292927 11.766372  L 5.889759 11.012622  L 5.328829 11.082739  Z  M 18.125034 17.813894  Q 18.125034 16.464155 17.195993 15.447472  Q 16.161781 14.500903 14.023236 14.535961  Q 11.428937 14.343142 9.789971 13.703331  Q 8.151006 13.063521 6.520805 12.187069  Q 5.679411 12.835644 4.557552 13.449161  Q 5.171068 15.219594 5.591765 15.911992  Q 6.012463 16.604389 6.41563 16.849794  Q 6.380572 17.463312 5.521649 17.559725  Q 4.662726 17.656132 3.593454 17.533432  Q 2.962409 17.533432 3.085112 17.813894  L 18.125034 17.813894  Z  M 1.47244 13.624451  Q 1.577614 13.939974 1.700317 14.062677  L 1.805492 13.975031  Q 1.752905 13.799742 1.47244 13.624451  Z  M 0.631046 16.131104  L 0.876452 16.096046  L 1.121859 15.727936  L 0.701162 15.885698  L 0.631046 16.131104  Z  M 1.735376 15.272182  Q 2.103486 15.675349 2.717002 15.324769  Q 3.277931 14.869013 2.874763 14.360671  Q 2.489124 13.869858 1.910666 14.290555  Q 1.419853 14.798897 1.735376 15.272182  Z  M 3.260402 15.920756  Q 3.155228 15.605232 2.997467 15.500059  L 2.892292 15.587705  Q 2.979938 15.727936 3.260402 15.920756  Z  M 3.961564 13.712096  L 3.891448 13.747154  L 3.698629 13.904916  Q 3.891448 14.115264 3.838861 14.325613  Q 3.593454 14.308084 3.48828 14.062677  L 3.190286 14.290555  Q 3.418164 14.833955 3.190286 15.307239  Q 3.418164 15.377356 3.505809 16.148634  Q 2.664415 15.973343 2.681944 15.727936  Q 2.085956 15.938285 1.612672 15.587705  Q 1.297149 15.815582 1.191975 16.078518  L 1.191975 16.516743  L 0.788807 16.341454  Q 0.595988 16.376513 0.227878 16.586861  L 0.087645 16.394039  Q 0.385639 16.096046 0.455755 15.920756  L 0.385639 15.482529  L 0.806336 15.587705  Q 1.086801 15.552647 1.384794 15.307239  Q 1.174446 14.763838 1.507498 14.220438  Q 1.262091 14.18538 1.297149 13.326457  Q 2.01584 13.589393 2.033369 13.834799  Q 2.559241 13.729625 3.032525 14.080206  L 3.312989 13.852327  Q 3.102641 13.694567 3.137699 13.449161  Q 3.365577 13.449161 3.523338 13.694567  L 3.733687 13.519277  L 3.838861 13.396573  Q 3.453222 12.783057 2.734531 12.607766  Q 1.419853 12.712941 0.771278 12.747998  Q 0.105174 12.292244 0.210349 11.854016  Q -0.245407 11.363203 0.280465 11.100268  Q 0.806336 10.837332 1.288385 10.215051  Q 1.770434 9.592772 2.278776 9.119488  L 2.278776 9.119488  Q 1.419853 8.172918 1.270856 7.226349  Q 1.121859 6.27978 0.508342 5.490973  Q 0.385639 5.000161 0.858923 5.298154  Q 1.384794 5.788968 1.56885 6.29731  Q 1.752905 6.805652 2.366421 7.874924  Q 1.928195 7.016 2.156073 6.034374  Q 2.331363 5.280625 2.839705 4.807341  L 4.522494 1.108712  Q 4.031681 1.003538 4.171913 0.460137  Q 4.312145 -0.13585 5.048365 0.03944  Q 5.69694 0.197202 5.767056 0.933422  Q 6.170224 0.319905 6.818799 0.477666  Q 7.53749 0.652957 7.397257 1.248944  Q 7.274554 1.792345 6.80127 1.669642  L 6.520805 5.701322  Q 6.783741 6.262251 6.60845 7.068587  Q 6.555863 7.506814 6.029992 8.172918  Q 6.959031 7.506814 7.362199 7.138704  Q 7.765368 6.770594 8.466529 6.595303  Q 9.009931 6.560245 8.676878 6.928355  Q 7.765368 7.349052 7.186909 8.102801  Q 6.60845 8.85655 5.398946 9.277247  L 5.644353 9.522655  Q 6.117637 9.24219 6.994089 9.189603  Q 6.959031 9.505125 6.871386 9.706709  Q 6.783741 9.908293 6.345514 10.434165  Q 6.485747 10.924977 6.731153 11.328146  Q 6.959031 11.2405 7.07297 11.389498  Q 7.186909 11.538494 7.151851 11.766372  Q 7.870542 12.222126 8.606762 12.450005  L 11.586699 7.769749  Q 11.954809 7.261407 12.270331 7.752221  L 15.706025 12.064365  Q 15.478148 13.203753 14.32123 13.256341  L 11.674344 8.874081  L 9.413097 12.695411  Q 11.726932 13.81727 14.233585 13.869858  Q 16.740238 13.922445 17.721869 15.061831  Q 18.756081 16.288866 18.73855 17.621075  L 18.73855 18.48  L 2.769589 18.48  Q 2.331363 18.252119 2.322599 17.7876  Q 2.313834 17.32308 2.769589 16.849794  Q 3.470751 16.692034 4.329675 16.858561  Q 5.188597 17.025087 5.363888 16.727095  Q 4.434848 15.587705 3.961564 13.712096  Z "/></svg>
