<?xml version="1.0" encoding="UTF-8" standalone="no"?>
<svg
   xmlns:dc="http://purl.org/dc/elements/1.1/"
   xmlns:cc="http://creativecommons.org/ns#"
   xmlns:rdf="http://www.w3.org/1999/02/22-rdf-syntax-ns#"
   xmlns:svg="http://www.w3.org/2000/svg"
   xmlns="http://www.w3.org/2000/svg"
   xmlns:sodipodi="http://sodipodi.sourceforge.net/DTD/sodipodi-0.dtd"
   xmlns:inkscape="http://www.inkscape.org/namespaces/inkscape"
   width="21.20702"
   height="17.983217"
   id="svg2458"
   sodipodi:version="0.32"
   inkscape:version="0.46"
   sodipodi:docname="E73B.svg"
   inkscape:output_extension="org.inkscape.output.svg.inkscape">
  <metadata
     id="metadata2465">
    <rdf:RDF>
      <cc:Work
         rdf:about="">
        <dc:format>image/svg+xml</dc:format>
        <dc:type
           rdf:resource="http://purl.org/dc/dcmitype/StillImage" />
      </cc:Work>
    </rdf:RDF>
  </metadata>
  <defs
     id="defs2463">
    <inkscape:perspective
       sodipodi:type="inkscape:persp3d"
       inkscape:vp_x="0 : 8.9916086 : 1"
       inkscape:vp_y="0 : 1000 : 0"
       inkscape:vp_z="21.20702 : 8.9916086 : 1"
       inkscape:persp3d-origin="10.60351 : 5.9944057 : 1"
       id="perspective2467" />
  </defs>
  <sodipodi:namedview
     inkscape:window-height="480"
     inkscape:window-width="640"
     inkscape:pageshadow="2"
     inkscape:pageopacity="0.0"
     guidetolerance="10.0"
     gridtolerance="10.0"
     objecttolerance="10.0"
     borderopacity="1.0"
     bordercolor="#666666"
     pagecolor="#ffffff"
     id="base"
     showgrid="false" />
  <path
     style="fill:#000000; stroke:none"
     d="M 7.625,0 C 7.6011155,-0.0020241146 7.5501979,0.01019925 7.5,0.03125 C 4.8184573,2.0650773 3.0897586,4.3359554 2.3125,6.875 C 1.820236,7.1729493 1.4885194,7.7410367 1.28125,8.53125 C 1.0610267,8.7514733 0.77965334,9.0542122 0.46875,9.46875 C 0.054212,9.7796533 -0.098293332,10.095346 0.03125,10.40625 C 0.199656,10.756017 0.44670932,10.879543 0.71875,10.75 C 0.90011,10.685229 1.0213653,10.608976 1.125,10.53125 C 1.2286347,10.453524 1.3521613,10.394431 1.46875,10.375 C 1.5853387,10.355569 1.7775046,10.320113 2.0625,10.28125 C 2.3474947,10.242387 2.6685294,10.131815 3.03125,9.9375 C 4.5728133,13.020627 6.1276412,14.749325 7.65625,15.125 C 6.490362,15.643173 5.7590867,15.982503 5.5,16.125 C 5.0077367,16.409995 4.862844,16.760007 5.03125,17.1875 C 5.1607933,17.589083 5.3583016,17.782385 5.65625,17.75 C 5.9541993,17.717615 6.3450085,17.623066 6.84375,17.5 C 7.3424907,17.376934 8.0211512,17.225566 8.84375,17.03125 C 9.6663487,16.836935 10.220346,16.737045 10.53125,16.75 C 10.702951,17.024722 10.944638,17.293468 11.21875,17.5625 C 11.199273,17.605098 11.174575,17.64352 11.15625,17.6875 L 11.3125,17.65625 C 11.42564,17.762546 11.527046,17.863347 11.65625,17.96875 C 11.686737,17.870515 11.698007,17.744493 11.71875,17.625 L 12.625,17.53125 C 12.871132,17.25921 12.881814,16.967154 12.6875,16.65625 C 12.985449,17.006017 13.259409,16.92219 13.447246,16.676058 C 13.635083,16.429927 14.31468,16.595347 15.5,16.90625 C 16.68532,17.217154 17.485236,17.463071 17.90625,17.625 C 18.327265,17.786929 18.589206,17.775111 18.71875,17.59375 C 18.848293,17.412391 18.777382,17.084878 18.53125,16.625 C 18.285118,16.165122 18.461261,15.342705 19.03125,14.125 C 19.458743,13.205244 19.558632,12.497606 19.3125,12.03125 C 19.947261,12.044205 20.402505,11.951928 20.6875,11.71875 C 20.972495,11.485572 21.153978,11.098968 21.21875,10.59375 C 20.415582,11.3451 19.637033,11.608177 18.9375,11.375 C 18.043653,10.532969 16.671444,10.117387 14.8125,10.15625 C 12.953556,10.195114 11.166901,10.20159 9.4375,10.15625 C 7.7080993,10.11091 6.6634028,9.9015841 6.28125,9.5 C 5.899098,9.0984167 5.3268038,8.5089634 4.5625,7.71875 C 5.158398,7.381938 5.8874028,6.6689581 6.78125,5.59375 C 6.5351187,5.5678413 6.2849954,5.5968201 6,5.6875 L 6.3125,5.40625 C 5.8720533,5.483976 5.4274927,5.6181854 5,5.8125 C 4.572508,6.0068147 4.2106767,6.2859161 3.90625,6.6875 C 3.601824,7.0890833 3.4321587,7.2652261 3.40625,7.1875 C 4.585092,5.2054907 6.3953845,3.1610986 8.84375,1.0625 C 9.32306,0.68682467 9.2704443,0.61057199 8.6875,0.84375 C 6.1484547,2.6573533 4.3198659,4.4806009 3.21875,6.28125 C 3.905328,4.5712807 4.9050228,3.0583853 6.1875,1.75 C 7.3096671,0.60516283 7.7921914,0.014168802 7.625,0 z M 5.78125,6.0625 C 5.2112607,6.6713527 4.6218074,7.1395506 4,7.4375 L 3.96875,7.375 C 4.564648,6.6884213 5.1723975,6.2438602 5.78125,6.0625 z M 2.5625,7.375 L 2.78125,7.8125 L 3.71875,7.5625 L 3.78125,8.125 L 4.28125,8.0625 C 4.9030573,8.8268047 5.4688733,9.4764865 6,9.96875 C 6.5311267,10.461015 7.6638953,10.705796 9.40625,10.71875 C 11.148605,10.731704 12.942874,10.725227 14.75,10.71875 C 16.557126,10.712273 17.724214,10.963532 18.28125,11.46875 C 18.838285,11.973969 19.026245,12.522625 18.8125,13.125 C 18.598753,13.727375 18.358178,14.358762 18.125,15 C 17.891823,15.641239 17.880004,16.19103 18.09375,16.625 C 18.307497,17.058971 18.24954,17.2275 17.90625,17.15625 C 17.562961,17.085002 17.202264,16.986247 16.78125,16.84375 C 16.360234,16.701252 16.323644,16.60784 16.71875,16.5625 C 17.113857,16.51716 17.015103,16.225104 16.40625,15.6875 C 15.797397,15.149896 15.242264,14.004174 14.75,12.28125 L 14.53125,12.53125 C 14.596021,13.166012 14.65932,13.597618 14.75,13.84375 C 14.387279,13.791932 13.792485,13.878868 12.9375,14.125 C 12.082515,14.371132 11.159074,14.523637 10.1875,14.5625 C 10.1875,14.445911 10.15318,13.774864 10.0625,12.53125 L 9.6875,13 C 9.7393173,13.362721 9.780114,13.806146 9.8125,14.34375 C 9.8448853,14.881354 9.5581709,15.291595 8.96875,15.53125 C 8.379328,15.770905 7.830672,15.956594 7.3125,16.125 C 6.7943273,16.293406 6.5323855,16.34068 6.5,16.25 C 6.467614,16.159319 6.7638758,15.978972 7.4375,15.6875 C 8.1111247,15.396029 8.4031805,15.138293 8.3125,14.9375 C 8.2218193,14.736709 8.0769272,14.551019 7.84375,14.34375 C 7.610572,14.136481 7.3882921,13.866926 7.1875,13.5625 C 6.9867087,13.258074 6.9459111,12.738396 7.0625,12 L 6.8125,12 C 6.5534133,12.867939 6.7585347,13.709787 7.40625,14.5 C 6.071956,13.878193 4.7588399,12.112903 3.4375,9.25 C 2.854556,9.5349947 2.3981761,9.7347742 2.09375,9.8125 C 1.7893233,9.8902267 1.5670433,9.9428418 1.4375,9.96875 C 1.3079573,10.007613 1.2092033,10.053751 1.125,10.125 C 1.0407973,10.196249 0.91306466,10.260683 0.71875,10.3125 L 0.65625,10.21875 L 0.875,10.15625 L 0.78125,9.96875 L 0.59375,10.0625 L 0.5625,10 C 0.66613467,9.9481833 0.96353195,9.6035117 1.46875,8.96875 C 1.883288,9.0594307 2.3438734,8.8672638 2.875,8.375 C 2.5640967,8.3102287 2.3429521,8.2865914 2.1875,8.3125 C 2.0320487,8.3513627 1.8688607,8.4619356 1.6875,8.65625 C 1.8818147,8.0214887 2.1609159,7.5952235 2.5625,7.375 z M 14.53125,14.21875 C 14.657959,14.209439 14.774604,14.209034 14.875,14.21875 C 15.302493,15.06078 15.652505,15.605231 15.9375,15.8125 C 16.222495,16.019769 16.164538,16.077726 15.75,16 C 14.288187,15.832404 13.244377,15.702253 12.572246,15.949574 L 12.5,15.46875 C 12.179266,15.153609 11.976937,15.208426 11.65625,15.40625 C 11.431116,15.231031 10.990746,15.304764 10.8125,15.55445 L 10.84375,15.84375 C 10.736877,15.782217 10.540336,15.797274 10.28125,15.875 C 9.516946,16.147041 8.6880528,16.386481 7.78125,16.59375 C 6.8744487,16.801019 6.4009088,16.853635 6.375,16.75 C 6.375,16.711137 6.8260389,16.552155 7.6875,16.3125 C 8.548962,16.072845 9.2146677,15.858177 9.6875,15.625 C 10.160333,15.391823 10.346021,15.163065 10.28125,14.96875 C 11.291687,14.96875 12.208651,14.828063 13.03125,14.5625 C 13.648199,14.363328 14.151122,14.246683 14.53125,14.21875 z M 11.3125,15.5625 C 11.402328,15.558893 11.49762,15.590665 11.5,15.6875 L 11.625,16.84375 C 11.638903,16.971267 11.284581,16.939915 11.28125,16.8125 L 11.15625,15.6875 C 11.141143,15.608379 11.222672,15.566107 11.3125,15.5625 z M 12.03125,15.5625 C 12.120883,15.563986 12.217567,15.632117 12.21875,15.71875 L 12.34375,16.84375 C 12.353092,16.986509 12.02061,16.956043 12,16.84375 L 11.875,15.71875 C 11.861873,15.629456 11.941617,15.561014 12.03125,15.5625 z M 11.84375,17.125 C 12.013593,17.227933 12.249201,17.214085 12.447246,17.082308 C 12.482714,17.058708 12.472239,17.300901 12.34375,17.3125 L 11.78125,17.375 C 11.787954,17.308228 11.776925,17.228211 11.78125,17.15625 C 11.798847,17.144896 11.833614,17.139147 11.84375,17.125 z M 11.203283,17.099787 C 11.246666,17.106163 11.468879,17.217164 11.513455,17.21875 C 11.502102,17.238112 11.386065,17.261542 11.375,17.28125 L 11.203283,17.099787 z"
     id="path2460"
     sodipodi:nodetypes="cccccsssssccscsssccccccccsssssscsccsssccccssccccsccccccccccssssssssssscccscccssssssssccccsssccccccccsccccscccccccsssscsccccccccccccccsccsccscc" />
</svg>
