<?xml version="1.0" encoding ="US-ASCII" standalone="yes"?>
<svg width="17.827948" height="14.4">
<path style="fill:#000000; stroke:none" d=" M 17.386389 3.869507  Q 17.629246 4.995482 17.011063 6.264964  Q 16.392881 7.534447 16.812363 8.307175  Q 17.231842 9.079903 17.827948 9.587696  Q 17.386389 10.757831 17.463661 11.530558  Q 17.540934 12.303286 17.408468 13.296793  Q 17.585089 13.937055 17.298077 14.047443  Q 16.966906 14.246147 16.216257 14.224067  Q 15.99548 14.047443 16.08379 13.793548  Q 16.172102 13.539652 16.459116 13.142247  Q 16.966906 11.994194 16.591581 10.647439  Q 16.216257 9.300683 15.421453 9.388995  Q 15.046126 9.521462 14.505218 11.177311  Q 13.964307 12.833156 13.986384 13.605887  Q 13.765605 14.003289 12.970799 14.003289  Q 12.639629 14.003289 12.41885 13.937055  Q 12.573396 13.252637 12.992877 12.921469  Q 13.522749 11.729259 13.699371 10.437698  Q 13.875994 9.146136 13.412358 8.307175  Q 13.081187 8.263019 12.551317 8.594188  Q 12.021446 8.925357 11.679238 9.068864  Q 11.337029 9.212371 11.193523 9.013668  Q 11.050017 8.814968 10.354561 8.737695  Q 9.659104 8.660422 9.372091 8.903278  Q 9.239623 9.234449 9.239623 9.720164  Q 9.239623 10.20588 9.7143 11.376011  Q 10.188974 12.546144 10.188974 13.098093  Q 10.188974 13.429261 9.990274 13.848742  Q 9.637026 14.290303 8.643519 14.069521  Q 8.577286 13.78251 8.809104 13.572768  Q 9.040922 13.363028 9.040922 13.009779  Q 9.217545 12.170817 8.544168 10.868218  Q 7.87079 9.565617 7.00975 9.278605  Q 6.126632 10.382502 5.618841 11.905881  Q 5.375982 12.501987 4.934423 13.539652  Q 4.735721 14.268225 4.20585 14.356534  Q 3.23442 14.489001 3.168186 14.224067  Q 3.23442 13.804585 3.720135 13.495494  Q 4.20585 13.186404 4.559097 12.303286  Q 5.044813 11.287699 5.729229 8.550033  Q 5.729229 8.108474 5.044813 7.424057  Q 4.007149 6.496783 2.859095 4.598079  Q 2.527926 4.311066 2.108445 4.531845  Q 1.688964 4.752624 1.313638 4.90717  Q 0.695456 5.105872 0.298052 4.421455  Q -0.32013 4.001975 0.342208 3.582493  Q 1.092859 2.588985 1.335716 1.99288  Q 1.644808 1.198074 2.682472 0.888983  Q 3.477278 0.800671 3.764292 0.601969  Q 4.868189 -0.369461 5.331826 0.226644  Q 5.927931 0.866905 4.691565 1.882491  Q 4.824033 2.942232 6.181828 3.461065  Q 7.539621 3.979897 9.007804 4.001975  Q 10.475989 4.024052 12.738979 3.637688  Q 15.001972 3.251324 16.724049 3.670805  Q 16.768206 3.582493 16.635736 3.416909  Q 16.503269 3.251324 16.38184 3.019506  Q 16.260414 2.787687 16.238335 2.566907  Q 16.216257 2.346128 16.613659 2.379244  Q 17.011063 2.412361 17.242884 2.831843  Q 17.474699 3.251324 17.386389 3.869507  Z  M 15.134438 8.814968  Q 14.560411 8.505877 13.72145 7.733149  Q 14.427942 8.903278 14.052619 10.912375  Q 14.604568 9.653932 15.134438 8.814968  Z  M 16.547426 4.68639  Q 15.575996 3.869507 12.650667 4.277948  Q 9.725339 4.68639 8.025337 4.631196  Q 6.325334 4.576001 4.824033 3.317558  Q 4.404552 2.942232 4.117538 2.191582  Q 4.470785 1.065606 2.925329 1.286386  Q 2.152601 1.46301 1.821431 2.125348  Q 1.578574 2.898076 1.125975 3.383792  Q 0.673378 3.869507 0.805845 4.013013  Q 0.938313 4.15652 1.225326 4.333143  Q 1.821431 4.134442 2.748705 3.781194  Q 3.101953 3.096778 3.34481 3.118856  Q 3.322732 4.15652 3.66494 4.851975  Q 4.007149 5.547431 5.243515 6.827954  Q 5.640917 7.490291 5.773385 6.651329  Q 5.905853 5.812366 6.457802 5.150028  Q 6.457802 6.673408 6.777932 7.247433  Q 7.098063 7.82146 7.296764 8.263019  Q 7.716246 9.079903 8.709753 9.896787  Q 8.621442 9.256527 8.433779 8.649384  Q 8.246115 8.042239 8.268194 7.799383  Q 9.195467 8.152631 11.314953 8.218863  Q 12.970799 7.887695 13.103266 7.534447  Q 13.235736 7.137044 13.412358 7.048733  Q 13.588981 6.96042 14.571449 7.832499  Q 15.55392 8.704578 16.260414 8.881202  Q 15.796777 7.446135 16.205219 6.507822  Q 16.613659 5.56951 16.613659 5.238339  Q 16.613659 4.90717 16.547426 4.68639  Z  M 2.505848 2.655219  Q 2.329224 2.655219 2.240912 2.566907  Q 1.975977 2.301972 2.240912 2.014958  Q 2.505848 1.772101 2.792861 2.037036  Q 2.881173 2.147426 2.881173 2.301972  Q 2.881173 2.655219 2.505848 2.655219  Z "/></svg>
