<?xml version="1.0" encoding="UTF-8" standalone="no"?>
<svg
   xmlns:dc="http://purl.org/dc/elements/1.1/"
   xmlns:cc="http://creativecommons.org/ns#"
   xmlns:rdf="http://www.w3.org/1999/02/22-rdf-syntax-ns#"
   xmlns:svg="http://www.w3.org/2000/svg"
   xmlns="http://www.w3.org/2000/svg"
   xmlns:sodipodi="http://sodipodi.sourceforge.net/DTD/sodipodi-0.dtd"
   xmlns:inkscape="http://www.inkscape.org/namespaces/inkscape"
   width="1800"
   height="1800"
   id="svg2456"
   sodipodi:version="0.32"
   inkscape:version="0.46"
   sodipodi:docname="E91.svg"
   inkscape:output_extension="org.inkscape.output.svg.inkscape"
   version="1.0">
  <metadata
     id="metadata2463">
    <rdf:RDF>
      <cc:Work
         rdf:about="">
        <dc:format>image/svg+xml</dc:format>
        <dc:type
           rdf:resource="http://purl.org/dc/dcmitype/StillImage" />
      </cc:Work>
    </rdf:RDF>
  </metadata>
  <defs
     id="defs2461">
    <inkscape:perspective
       sodipodi:type="inkscape:persp3d"
       inkscape:vp_x="0 : 13.222576 : 1"
       inkscape:vp_y="0 : 1000 : 0"
       inkscape:vp_z="13.246222 : 13.222576 : 1"
       inkscape:persp3d-origin="6.6231108 : 8.8150508 : 1"
       id="perspective2465" />
  </defs>
  <sodipodi:namedview
     inkscape:window-height="712"
     inkscape:window-width="1024"
     inkscape:pageshadow="2"
     inkscape:pageopacity="0.0"
     guidetolerance="10.0"
     gridtolerance="10.0"
     objecttolerance="10.0"
     borderopacity="1.0"
     bordercolor="#666666"
     pagecolor="#ffffff"
     id="base"
     showgrid="false"
     showguides="true"
     inkscape:guide-bbox="true"
     inkscape:zoom="0.28277778"
     inkscape:cx="900"
     inkscape:cy="900"
     inkscape:window-x="0"
     inkscape:window-y="22"
     inkscape:current-layer="svg2456" />
  <path
     style="fill:#000000;stroke:none"
     d="M 169.95109,0.081997238 C 138.39861,-1.2584742 123.23307,13.846116 123.23308,44.676473 C 123.23308,75.506822 139.39531,89.045202 172.07465,85.023857 L 301.61098,85.023857 C 347.81286,85.023857 371.68801,144.8849 371.68801,265.52531 L 371.68801,560.69826 L 0.067386817,161.47153 C 20.351117,371.9221 115.46116,508.3149 286.74616,571.316 L 369.56447,656.25786 L 123.23308,656.25786 L 123.23308,1257.2215 L 299.48744,1257.2215 L 182.69238,1495.0588 L 244.27523,1529.0355 L 371.68801,1257.2215 L 371.68801,1788.1081 C 398.73299,1805.5338 428.19758,1806.3171 460.87697,1790.2317 L 460.87697,1380.3872 C 472.31763,1391.4294 500.65211,1393.8513 547.94237,1386.7579 C 593.51048,1394.2144 658.8005,1402.6603 743.30864,1410.1169 C 788.87676,1334.7223 853.70024,1301.1965 936.55137,1310.3101 C 919.15263,1340.1365 869.0972,1375.0096 787.90312,1414.3639 C 706.7091,1453.7182 652.1452,1484.6017 624.39004,1507.8 C 596.63494,1530.9983 577.35839,1559.1349 564.93074,1590.6183 C 552.50309,1622.1017 545.81882,1662.8828 545.81882,1715.9076 C 545.81882,1769.7608 560.17268,1796.6023 590.41331,1796.6023 C 620.65395,1796.6023 638.47861,1778.7253 641.37842,1743.5136 C 644.27822,1708.3019 643.91625,1674.6715 643.50196,1639.4599 C 643.08772,1604.2481 658.68431,1576.1116 688.09644,1556.6415 C 717.50861,1537.1716 773.00554,1506.8069 855.85661,1467.4526 C 938.70773,1428.0984 1002.6505,1386.8507 1046.9758,1340.0398 C 1091.3011,1293.229 1115.8623,1237.3701 1119.1764,1174.4032 C 1122.4904,1111.4364 1106.4795,1034.0205 1074.5819,940.8131 C 1042.6842,847.60558 1048.4877,737.13048 1091.5703,609.53983 L 1110.6822,603.16919 L 1110.6822,535.2157 L 1127.6706,571.316 L 1136.1647,513.98024 C 1139.4788,523.09389 1143.9349,530.24468 1148.906,535.2157 C 1148.0775,507.04636 1146.316,482.5374 1144.6589,465.13867 L 1161.6473,505.48605 L 1161.6473,441.77966 C 1167.4469,445.92224 1172.0076,455.30108 1178.6357,469.38577 C 1181.9497,455.3011 1182.7783,438.30494 1178.6357,418.42066 L 1189.2534,437.53256 L 1191.377,426.91484 L 1191.377,399.30873 C 1194.6911,400.96571 1200.9088,407.64999 1208.3653,418.42066 C 1212.5079,389.42277 1210.7464,360.35313 1204.1182,331.35524 C 1221.517,348.75397 1243.8501,349.22047 1269.9482,333.47879 C 1296.0463,317.73705 1324.2352,297.21776 1354.8901,274.01949 L 1354.8901,261.27821 C 1306.8365,246.36501 1278.2333,236.88159 1269.9482,229.42502 L 1337.9017,193.32472 L 1335.7782,169.96572 C 1305.9518,165.82314 1275.949,160.43392 1244.4656,152.97735 C 1237.009,152.97735 1233.8479,142.66545 1233.8479,121.12415 C 1233.8479,82.18413 1218.2513,56.742114 1189.2534,46.800019 C 1178.4827,15.316579 1166.4093,0.081997238 1153.1531,0.081997238 C 1115.8701,0.081997238 1094.4178,6.2997417 1089.4467,17.07037 C 1047.1926,12.927835 1027.9161,29.095463 1029.9874,68.035486 C 1032.0587,106.9755 1012.8345,158.37823 972.65166,220.93083 C 932.46886,283.48337 878.838,310.7392 813.38567,301.6256 C 747.93329,292.51195 696.89254,277.7439 658.36678,257.03111 C 619.84102,236.31836 588.12906,220.72176 564.93074,212.43664 C 541.73246,204.15153 530.02096,189.38343 526.7069,167.84217 C 526.7069,124.75957 507.12067,104.13578 471.4947,104.13578 C 459.89553,104.13578 454.50633,111.39108 454.50633,129.61833 L 454.50633,148.73025 C 439.71609,50.458592 403.24286,1.0873453 344.08191,0.081997238 L 169.95109,0.081997238 z M 1140.4118,34.058741 C 1143.7259,37.372787 1141.9643,40.429379 1136.1647,40.42938 C 1131.1937,40.42938 1130.2606,47.113648 1131.9176,59.541298 C 1156.773,59.541298 1165.3233,50.628973 1159.5238,34.058741 C 1169.4659,59.742576 1178.8448,75.443679 1187.1299,82.900311 C 1202.8716,89.528406 1209.1938,120.82614 1208.3653,176.33636 C 1208.3653,216.9334 1245.8808,246.93608 1318.7897,267.64885 L 1318.7897,271.89595 C 1257.4799,311.6645 1221.7261,325.08527 1212.6124,312.24332 C 1203.4988,299.40139 1194.482,293.13141 1182.8828,293.13141 C 1182.8828,317.98676 1179.8262,336.84901 1176.5121,352.59071 L 1163.7709,333.47879 L 1170.1415,384.44391 L 1161.6473,371.70263 L 1155.2767,407.80292 L 1142.5354,401.43228 L 1134.0412,439.65612 L 1125.547,426.91484 L 1119.1764,460.89158 C 1110.8913,455.92051 1107.3681,470.6886 1110.6822,505.48605 C 1105.7112,499.6865 1101.6169,500.51498 1095.8174,505.48605 C 1093.3318,521.22775 1090.2752,530.71117 1089.4467,537.33926 L 1085.1996,526.72152 C 1028.0324,663.42581 1004.352,765.86936 1015.1226,834.63578 C 1025.8932,903.40219 1040.6091,964.70262 1057.5935,1019.3843 C 1074.578,1074.066 1083.0761,1124.588 1083.0761,1170.1561 C 1083.0761,1215.7242 1068.3603,1254.1727 1040.6051,1284.8276 C 1012.85,1315.4825 996.73472,1312.3214 991.76358,1274.2099 C 888.19975,1272.5529 821.14815,1281.9839 792.15021,1303.9395 C 763.15236,1325.895 740.76691,1347.7616 724.19673,1367.6459 C 725.02521,1310.4787 732.59021,1262.1848 745.43219,1223.2448 C 758.2741,1184.3048 780.19299,1146.7893 811.26213,1112.8204 C 842.33135,1078.8514 879.07054,1052.4764 923.81009,1034.2491 L 913.19236,1019.3843 C 856.85355,1035.9546 817.00549,1053.8838 792.15021,1074.5965 C 799.60682,1017.4293 794.73638,972.7108 779.40894,940.8131 C 764.08155,908.91546 757.34498,855.69892 758.17348,781.54711 C 759.00196,707.39538 770.14239,652.83146 790.02667,618.03401 C 839.7373,611.40593 871.50154,610.00638 885.58626,611.66337 L 885.58626,594.67501 C 847.47475,586.38989 809.49276,578.25376 773.0383,567.0689 C 736.58377,555.88399 741.45426,527.33314 785.77958,484.25059 C 830.10495,441.16803 865.9634,418.36842 896.20399,416.2971 C 926.44465,414.22583 955.46201,420.85777 981.14585,433.28548 C 1005.1726,449.85566 1019.1122,472.70761 1025.7403,503.36251 L 1040.6051,501.23896 C 1037.2911,465.61299 1024.7512,441.36153 1002.3813,424.7913 C 980.01151,408.2211 938.50647,391.69148 881.33916,375.94973 C 952.59117,320.43946 999.95197,267.63712 1021.4932,216.68374 C 1043.0346,165.73031 1054.2272,123.7587 1055.47,93.518044 C 1056.7128,63.277381 1064.7443,48.095076 1078.829,48.923566 C 1084.6286,63.836773 1084.6285,79.847616 1078.829,93.518044 C 1073.0294,107.18847 1074.8432,113.04421 1085.1996,112.62996 C 1095.556,112.21572 1098.2506,106.41226 1093.6938,95.64159 C 1089.137,84.870962 1087.7897,70.102862 1089.4467,51.047112 L 1091.5703,51.047112 C 1098.1984,41.104974 1114.7281,34.887231 1140.4118,34.058741 z M 1140.4118,95.64159 C 1138.7548,96.262977 1138.7548,102.27358 1140.4118,112.62996 C 1145.3829,146.59891 1154.7618,169.91734 1168.018,184.83054 C 1185.4167,163.28923 1190.4439,144.47926 1187.1299,127.49479 C 1183.8158,110.51031 1171.2758,104.24034 1148.906,108.38287 C 1143.9349,99.269266 1142.0689,95.020203 1140.4118,95.64159 z M 1233.8479,174.21281 L 1297.5543,191.20118 L 1297.5543,195.44828 L 1250.8363,218.80728 C 1240.0656,218.80728 1235.5049,204.03922 1233.8479,174.21281 z M 463.00051,248.53693 C 469.60271,259.21694 479.83692,270.49931 494.85371,278.26659 C 518.88053,290.69428 530.95401,300.17764 530.954,310.11978 C 530.954,320.89041 539.50436,328.8697 558.5601,331.35524 C 577.61585,333.84076 603.1101,347.26152 635.00778,371.70263 C 666.90547,396.14369 702.60708,423.03756 739.06155,454.52094 C 676.09472,499.26057 609.0431,527.86369 539.44818,539.4628 C 530.33458,492.2377 509.34878,469.38575 477.86533,469.38577 C 470.92048,469.38577 466.88147,470.89147 463.00051,473.63286 L 463.00051,263.40175 C 463.00051,258.15021 463.07216,253.63144 463.00051,248.53693 z M 1199.8712,265.52531 L 1199.8712,280.39013 C 1235.4971,277.90457 1257.054,280.5992 1267.8246,288.88432 L 1280.566,278.26659 C 1270.6238,265.83894 1244.6108,261.38277 1199.8712,265.52531 z M 745.43219,618.03401 C 724.71942,688.4575 716.27356,751.57175 722.07318,809.15322 C 727.87274,866.73476 734.60931,916.37594 743.30864,957.80146 C 752.00805,999.22701 731.43649,1034.5144 681.7258,1061.8552 C 666.81259,1061.8552 619.81373,1051.1813 539.44818,1032.1256 C 530.33458,973.30133 509.34878,945.0602 477.86533,945.0602 C 470.90267,945.0602 466.88354,946.38971 463.00051,949.30728 L 463.00051,622.28111 C 475.28254,632.32034 502.3743,632.37908 547.94237,624.40466 C 566.99816,642.6319 584.40856,647.50233 598.90749,637.14594 C 613.40645,626.78955 662.58114,620.5195 745.43219,618.03401 z M 169.95109,722.08782 L 371.68801,923.82473 L 169.95109,923.82473 L 169.95109,722.08782 z M 237.90458,722.08782 L 371.68801,722.08782 L 371.68801,853.7477 L 237.90458,722.08782 z M 169.95109,989.65467 L 371.68801,1191.3916 L 169.95109,1191.3916 L 169.95109,989.65467 z M 237.90458,989.65467 L 371.68801,989.65467 L 371.68801,1119.191 L 237.90458,989.65467 z M 460.87697,1087.3378 C 472.5279,1099.2995 501.33864,1110.2322 547.94237,1117.0675 L 550.06592,1117.0675 C 589.00594,1123.6956 623.05054,1135.769 654.1197,1153.1677 C 685.18884,1170.5665 705.2939,1185.3346 713.57899,1197.7622 C 692.86623,1270.6712 663.84887,1306.9439 628.63714,1308.1867 C 593.42545,1309.4294 562.54194,1307.1491 535.2011,1299.6924 C 521.11638,1245.8392 501.89215,1217.7027 477.86533,1216.8741 C 469.9945,1216.8741 464.81238,1217.6 460.87697,1221.1212 L 460.87697,1087.3378 z"
     id="path2458" />
</svg>
