<?xml version="1.0" encoding="UTF-8" standalone="no"?>
<svg
   width="25.607237"
   height="16.32"
   version="1.1"
   id="svg1"
   sodipodi:docname="E9B.svg"
   inkscape:version="1.4 (e7c3feb1, 2024-10-09)"
   xmlns:inkscape="http://www.inkscape.org/namespaces/inkscape"
   xmlns:sodipodi="http://sodipodi.sourceforge.net/DTD/sodipodi-0.dtd"
   xmlns="http://www.w3.org/2000/svg"
   xmlns:svg="http://www.w3.org/2000/svg"
   xmlns:rdf="http://www.w3.org/1999/02/22-rdf-syntax-ns#"
   xmlns:cc="http://creativecommons.org/ns#"
   xmlns:dc="http://purl.org/dc/elements/1.1/">
  <title
     id="title1">E9B</title>
  <defs
     id="defs1" />
  <sodipodi:namedview
     id="namedview1"
     pagecolor="#ffffff"
     bordercolor="#000000"
     borderopacity="0.25"
     inkscape:showpageshadow="2"
     inkscape:pageopacity="0.0"
     inkscape:pagecheckerboard="0"
     inkscape:deskcolor="#d1d1d1"
     inkscape:zoom="4.5060727"
     inkscape:cx="20.194969"
     inkscape:cy="8.2111414"
     inkscape:window-width="1920"
     inkscape:window-height="1147"
     inkscape:window-x="1440"
     inkscape:window-y="25"
     inkscape:window-maximized="1"
     inkscape:current-layer="svg1" />
  <path
     style="fill:#000000;stroke:none"
     d="M 6.688455,3.700906 C 7.196393,3.5580487 7.5019493,3.399318 7.605124,3.224714 7.7082993,3.05011 7.8075063,2.946935 7.902745,2.915189 L 8.021792,2.986618 C 7.9583,3.0024913 7.882903,3.1255077 7.795601,3.355667 7.7082997,3.5858263 7.517823,3.7524937 7.224171,3.855669 6.930519,3.9588437 6.7202007,3.978685 6.593216,3.915193 6.4662313,3.8517003 6.4701997,3.7088427 6.605121,3.48662 6.7400417,3.2643967 6.982106,3.0659833 7.331314,2.89138 L 7.474172,2.938999 C 7.3789333,2.9866183 7.255917,3.0501107 7.105123,3.129476 6.954329,3.2088413 6.8154397,3.399318 6.688455,3.700906 Z m 7.642885,7.857172 c -0.523812,0.317461 -1.222227,0.476192 -2.095246,0.476192 -0.873019,0 -1.619054,-0.150794 -2.238103,-0.452383 0.031745,0.253969 -0.1746047,0.575399 -0.61905,0.96429 -0.444446,0.38889 -0.9682577,0.996035 -1.571435,1.821435 -0.1111113,0.09524 0.8254003,0.174603 2.809535,0.238096 0.587303,-0.253969 0.884923,-0.29762 0.89286,-0.130953 0.0079,0.166667 0.29762,0.178572 0.86905,0.03571 l 1.333339,1.714293 H 12.259903 C 11.942442,16.256508 11.656727,16.181111 11.402758,15.99857 11.148789,15.81603 10.291643,15.736665 8.83132,15.760474 7.3709967,15.784283 6.505914,15.756505 6.236072,15.67714 5.8392447,15.153329 5.71226,14.748566 5.855118,14.462851 6.5852793,13.177132 7.081313,12.248557 7.343219,11.677126 7.6051243,11.105695 7.6646483,10.653313 7.521791,10.319978 7.3313137,10.208867 6.1328967,10.367597 3.92654,10.79617 3.577332,10.85966 3.355109,11.00252 3.259871,11.224743 3.164632,11.446966 2.791615,12.510462 2.140819,14.415231 2.061454,14.637454 2.0297073,14.939043 2.04558,15.319996 2.061453,15.70095 1.700341,15.871586 0.962243,15.831903 0.224145,15.792223 -0.08934833,15.613648 0.021763,15.296186 L 0.331288,14.653327 C 0.52176533,14.367612 0.692401,14.093801 0.843195,13.831896 0.993989,13.56999 1.2201803,13.054115 1.521769,12.284271 1.823357,11.514427 2.029707,10.950933 2.140819,10.593789 2.2519303,10.236644 2.4344707,10.002516 2.68844,9.891405 2.9424093,9.7802937 3.5336813,9.534261 4.462256,9.153307 5.3908307,8.7723537 6.132897,8.4152097 6.688455,8.081875 6.577343,7.462825 6.4662313,6.812029 6.35512,6.129487 6.14877,6.050121 5.8194037,6.2525027 5.367021,6.736632 4.9146383,7.2207607 4.4741607,7.375523 4.045588,7.200919 3.9662227,7.3437763 3.779714,7.339808 3.486062,7.189014 3.19241,7.03822 3.0971713,6.8517113 3.200346,6.629488 3.3035213,6.4072653 3.3471723,6.1850427 3.331299,5.96282 3.3154263,5.7405967 3.6963803,5.2088487 4.474161,4.367576 5.1408297,3.0501107 5.9265467,2.050107 6.831312,1.367565 L 7.117027,0.200894 C 7.2122657,0.01041667 7.4106793,-0.04513933 7.712268,0.034226 L 8.474175,1.03423 C 9.236083,0.70089533 9.7757673,0.58184733 10.093228,0.677086 9.9503707,1.089786 9.6329093,1.5977243 9.140844,2.200901 L 9.474179,2.653284 C 10.029736,2.3199493 11.132915,2.4310607 12.783715,2.986618 12.545619,3.431064 12.013871,3.7802717 11.188471,4.034241 10.728152,4.12948 10.236087,4.1691623 9.712275,4.153289 9.363067,4.2802737 9.244019,4.7961483 9.355131,5.700913 c 0.2222227,1.000004 0.833336,1.531752 1.83334,1.595244 3.25398,-0.8730187 5.337321,-1.3293693 6.250023,-1.369052 0.912702,-0.039683 1.837308,0.250001 2.773819,0.869051 1.015877,-0.3333347 1.595244,-0.7420663 1.738102,-1.226195 0.142857,-0.4841287 0.365081,-0.7142883 0.66667,-0.690479 0.301587,0.023809 0.305555,0.4285727 0.0119,1.21429 -0.293651,0.7857173 -1.05159,1.369053 -2.273817,1.750007 0.158731,0.9047653 0.472224,1.5754027 0.940479,2.011912 0.468256,0.436509 0.928575,0.702383 1.380957,0.797622 0.452384,0.09524 0.765878,0.333334 0.940481,0.714288 0.174604,0.380954 0.615081,1.063496 1.321432,2.047627 0.706353,0.98413 0.853179,1.55556 0.44048,1.714291 0.111111,0.333335 0.06349,0.698416 -0.142859,1.095243 l -1.976198,-0.04762 c 0.238097,-0.66667 0.46032,-1.119053 0.66667,-1.357148 0.01587,-0.682542 -0.226192,-1.321433 -0.726193,-1.916674 -0.500002,-0.59524 -1.76588,-0.932543 -3.797634,-1.011908 0.111112,0.222223 0.277779,0.511906 0.500002,0.86905 0.222223,0.357145 0.230159,0.607146 0.02381,0.750003 -0.20635,0.142857 -0.722225,0.436509 -1.547625,0.880955 -0.8254,0.444446 -1.369053,0.781749 -1.630959,1.011909 -0.261905,0.230159 -0.503969,0.27381 -0.726192,0.130953 C 15.767853,16.058094 15.490074,16.32 15.188485,16.32 c -0.269842,0 -0.527779,-0.04762 -0.773812,-0.142857 -0.246033,-0.09524 -0.408732,-0.246033 -0.488097,-0.452383 0.238096,-0.4127 0.57143,-0.753971 1.000003,-1.023813 1.746039,-0.761908 2.841281,-1.333339 3.285726,-1.714293 -0.06349,-0.333335 -0.634922,-0.849209 -1.714291,-1.547624 -0.142857,-0.03175 -0.353177,-0.01985 -0.630954,0.03571 -0.1541,0.03082 -0.595766,0.03957 -0.784062,0.109472 -0.05403,0.513816 -0.184722,1.487882 -0.451734,1.433572 -0.267013,-0.05431 -0.295103,-0.850025 -0.299923,-1.459706 z M 10.069419,10.81998 c 0.238096,0.317461 0.761908,0.535716 1.571435,0.654764 0.809527,0.119048 1.849213,-0.05952 3.119058,-0.535716 l 2.904772,-0.07143 C 17.267858,10.169184 17.069445,9.669182 17.069445,9.367594 h 0.357143 c 0.190478,0.698415 0.539686,1.218258 1.047625,1.559529 0.507937,0.341271 1.400796,0.587303 2.678579,0.738098 0.376291,0.04441 0.714074,0.102475 1.010144,0.185875 1.24905,0.351844 1.116365,-0.420561 0.525577,-0.578733 C 22.396781,11.194257 21.906764,11.00252 21.248032,10.415216 20.589299,9.8279127 20.196441,9.3001333 20.069456,8.831878 19.942471,8.363622 19.847233,7.819969 19.783741,7.200919 18.704371,6.5025037 17.692462,6.240598 16.748014,6.415202 15.803567,6.589806 14.013878,7.034252 11.378948,7.74854 9.8868787,7.7961593 9.021796,7.169173 8.7837,5.867581 8.7043347,4.9628157 8.8154463,4.2961467 9.117035,3.867574 10.529738,3.756462 11.497996,3.534239 12.021808,3.200905 10.910693,2.8358243 10.005927,2.8278877 9.307511,3.177095 L 9.140844,3.129476 C 9.17259,3.0342373 9.0297327,2.7088393 8.712272,2.153282 9.2043367,1.565978 9.4741787,1.1929607 9.521798,1.03423 L 8.355127,1.462803 7.617029,0.462799 7.283695,1.724709 C 6.664645,2.169155 5.9662297,3.010428 5.188449,4.248528 4.982099,4.6453547 4.6963837,5.0183717 4.331303,5.367579 L 3.974159,5.9152 4.140826,5.93901 C 4.204318,5.73266 4.3154297,5.6532943 4.474161,5.700913 4.4582877,5.8596443 4.4146367,6.0104387 4.343208,6.153296 4.2717787,6.296154 4.1328893,6.3279003 3.92654,6.248535 L 3.831301,6.796156 C 3.9900317,6.8437753 4.3074933,6.5659967 4.783686,5.96282 4.9741627,6.0421847 5.053528,6.1215497 5.021782,6.200915 L 4.52178,6.796156 4.664638,6.772346 C 5.55353,5.9628193 6.251945,5.4905953 6.759883,5.355674 7.2678217,5.2207533 7.712268,4.8358313 8.093222,4.200908 L 8.378937,4.343766 C 8.204333,5.058054 7.7281407,5.5580557 6.95036,5.843771 6.966233,6.399329 7.025757,7.0144107 7.128932,7.689016 7.2321073,8.363622 7.6487757,9.4072767 8.378937,10.81998 7.109091,13.248561 6.442422,14.530311 6.37893,14.665232 c 0.080011,0.254016 0.5705647,0.2083 0.857145,-0.273815 L 9.450369,11.581883 9.688465,10.843785 Z M 0.736052,15.510473 C 0,0 0,0 0.736052,15.510473 Z M 0.474146,14.843804 C 0,0 0,0 0.474146,14.843804 Z"
     id="path1"
     sodipodi:nodetypes="csccssssccsccscsccscccssccsccscssccsssssccscssscccccccccccccscssscssssccccscsssscssccccsczccccccsssssscsccccccccccccccccsccccccscccscscccccccccc" />
  <metadata
     id="metadata1">
    <rdf:RDF>
      <cc:Work
         rdf:about="">
        <dc:title>E9B</dc:title>
        <dc:description>Rising newborn bubalis with umbilical cord.
(with minor graphical arrangement by S. Rosmorduc to match the rest of the font).

</dc:description>
        <dc:creator>
          <cc:Agent>
            <dc:title>S. J. P. Thomas</dc:title>
          </cc:Agent>
        </dc:creator>
      </cc:Work>
    </rdf:RDF>
  </metadata>
</svg>
