<?xml version="1.0" encoding="UTF-8" standalone="no"?>
<svg
   xmlns:dc="http://purl.org/dc/elements/1.1/"
   xmlns:cc="http://creativecommons.org/ns#"
   xmlns:rdf="http://www.w3.org/1999/02/22-rdf-syntax-ns#"
   xmlns:svg="http://www.w3.org/2000/svg"
   xmlns="http://www.w3.org/2000/svg"
   xmlns:sodipodi="http://sodipodi.sourceforge.net/DTD/sodipodi-0.dtd"
   xmlns:inkscape="http://www.inkscape.org/namespaces/inkscape"
   width="16.883898"
   height="17.977583"
   id="svg2434"
   sodipodi:version="0.32"
   inkscape:version="0.46"
   sodipodi:docname="F1.svg"
   inkscape:output_extension="org.inkscape.output.svg.inkscape">
  <metadata
     id="metadata2441">
    <rdf:RDF>
      <cc:Work
         rdf:about="">
        <dc:format>image/svg+xml</dc:format>
        <dc:type
           rdf:resource="http://purl.org/dc/dcmitype/StillImage" />
      </cc:Work>
    </rdf:RDF>
  </metadata>
  <defs
     id="defs2439">
    <inkscape:perspective
       sodipodi:type="inkscape:persp3d"
       inkscape:vp_x="0 : 8.9887915 : 1"
       inkscape:vp_y="0 : 1000 : 0"
       inkscape:vp_z="16.883898 : 8.9887915 : 1"
       inkscape:persp3d-origin="8.4419489 : 5.9925276 : 1"
       id="perspective2443" />
  </defs>
  <sodipodi:namedview
     inkscape:window-height="480"
     inkscape:window-width="640"
     inkscape:pageshadow="2"
     inkscape:pageopacity="0.0"
     guidetolerance="10.0"
     gridtolerance="10.0"
     objecttolerance="10.0"
     borderopacity="1.0"
     bordercolor="#666666"
     pagecolor="#ffffff"
     id="base"
     showgrid="false" />
  <path
     style="fill:#000000; stroke:none"
     d="M 14.227897,8.131399 C 13.876594,8.168276 13.455028,8.297345 12.963198,8.518608 C 12.471368,8.73987 11.926842,9.071764 11.329625,9.514291 C 11.364754,9.624921 11.619449,9.680236 12.093715,9.680236 L 13.20033,9.680236 C 13.463807,9.680236 13.657026,9.578825 13.779984,9.376001 C 13.90294,9.173178 13.99077,9.016449 14.043464,8.905817 C 14.059272,8.872628 14.062434,8.856033 14.052949,8.856033 C 14.030817,8.856033 13.939829,8.946383 13.779984,9.127082 C 13.58018,9.352953 13.326581,9.465889 13.019186,9.465889 C 12.975273,9.465889 12.930262,9.463584 12.884152,9.458975 C 12.515281,9.422096 12.44502,9.293026 12.673369,9.071765 C 12.90172,8.850502 13.419895,8.537046 14.227897,8.131399 z M 14.807554,7.688874 C 14.456251,9.163958 13.964421,9.919938 13.332067,9.956814 C 13.12128,9.969107 12.9183,9.975253 12.723128,9.975253 C 12.332792,9.975253 11.973683,9.950668 11.6458,9.901501 C 11.294493,9.901501 11.048579,10.03057 10.908055,10.28871 L 10.591881,9.846184 L 10.908055,9.624922 C 10.943188,8.998012 12.243019,8.352661 14.807554,7.688874 z M 8.839736,10.620605 L 8.415148,10.818691 L 8.415148,10.818691 C 8.442266,10.74075 8.43534,10.674722 8.394368,10.620605 L 8.839736,10.620605 z M 8.415148,10.818691 C 8.415148,10.818691 8.415148,10.818691 8.415148,10.818691 L 8.415148,10.818691 L 8.415148,10.818691 z M 7.746301,10.620605 C 7.67679,10.803024 7.727625,10.94935 7.898818,11.05958 L 7.898818,11.05958 L 7.535516,11.229074 L 7.272039,10.620605 L 7.746301,10.620605 z M 7.705321,10.104323 C 7.346206,10.104323 7.026125,10.128908 6.74508,10.178079 C 6.815339,10.657479 6.94708,11.072347 7.140298,11.422681 C 7.333517,11.773011 7.588212,12.132562 7.904389,12.501333 C 8.220561,12.870107 8.378654,13.367948 8.378654,13.994856 L 8.642133,13.994856 C 8.677264,13.220437 8.448917,12.42758 7.957085,11.616284 C 8.729958,11.395023 9.520396,10.989374 10.328401,10.39934 C 9.297907,10.202662 8.423546,10.104323 7.705321,10.104323 z M 9.379873,7.688874 C 9.801442,8.020766 10.029793,8.555485 10.064924,9.293026 L 9.801442,9.514291 L 10.328401,10.39934 C 10.532983,10.661818 10.737569,10.793056 10.942155,10.793056 C 11.053746,10.793056 11.165338,10.75401 11.276929,10.675919 C 11.476618,10.536173 11.742869,10.466301 12.075685,10.466301 C 12.269828,10.466301 12.486621,10.490077 12.726066,10.537629 C 12.942705,10.580652 13.138851,10.602164 13.314504,10.602164 C 13.66581,10.602164 13.935144,10.516117 14.122507,10.344023 L 14.122507,10.344023 C 14.019914,14.602929 13.34712,15.180592 9.536434,15.232873 C 9.067382,15.232873 8.558498,15.225848 8.009783,15.211799 C 7.97465,16.244358 7.640907,16.779078 7.008554,16.815956 C 6.836096,16.695265 6.632281,16.63492 6.397109,16.63492 C 6.201133,16.63492 5.983381,16.676826 5.743854,16.760639 C 4.935852,16.576252 4.53185,16.189043 4.53185,15.599009 C 4.724305,15.339268 4.868346,15.209394 4.963976,15.209394 C 4.99054,15.209394 5.013369,15.219416 5.032461,15.239458 C 5.120286,15.331651 5.111504,15.414624 5.006114,15.488378 C 4.90072,15.562132 4.86559,15.728079 4.900722,15.98622 C 4.931461,16.212091 5.069788,16.325029 5.3157,16.325029 C 5.350831,16.325029 5.388157,16.322723 5.42768,16.318113 C 5.743854,16.281235 5.945857,16.059973 6.033684,15.654325 C 6.121509,15.248678 5.884377,14.879908 5.322289,14.548013 C 5.989774,12.556649 6.341075,11.007812 6.376204,9.901501 C 6.882086,9.752148 7.387967,9.677471 7.893849,9.677471 C 8.512148,9.677471 9.130446,9.789023 9.748746,10.012131 L 9.748746,9.735553 C 9.027646,9.40754 8.339436,9.243534 7.684119,9.243534 C 7.381664,9.243534 7.086216,9.278471 6.797776,9.348344 C 7.043686,8.979572 7.254471,8.481731 7.430126,7.854821 C 7.683065,7.943326 7.938815,7.987577 8.197374,7.987577 C 8.585217,7.987577 8.979383,7.88801 9.379873,7.688874 z M 15.597994,0 C 15.597994,1.696346 15.264256,3.051579 14.596773,4.0657 C 13.929291,5.079821 12.418672,5.992529 10.064924,6.803824 C 9.810644,6.74763 9.586955,6.719533 9.393856,6.719533 C 9.08007,6.719533 8.847062,6.793726 8.694828,6.942114 C 8.566954,7.066758 8.408205,7.129079 8.218585,7.129079 C 8.04355,7.129079 7.842208,7.075976 7.614562,6.969769 C 7.377428,6.859138 7.177623,6.803823 7.015144,6.803823 C 6.852664,6.803823 6.727511,6.859138 6.639684,6.969769 C 3.056363,5.642195 1.299832,3.558639 1.370093,0.719104 C 1.238353,0.38721 1.086852,0.221263 0.91559,0.221263 C 0.858503,0.221263 0.799221,0.239702 0.737742,0.276578 C 0.245914,0.645349 0,1.327576 0,2.323257 C 0,3.245185 0.360089,4.434471 1.080267,5.891114 C 1.800444,7.34776 3.144189,8.518608 5.111504,9.403658 C 5.041243,9.993692 5.023677,10.454656 5.058809,10.786549 C 5.093938,11.118444 4.795329,12.298512 4.162979,14.326751 C 3.600888,14.769275 3.319843,15.267116 3.319843,15.820272 C 3.319843,16.37343 3.425235,16.742201 3.636019,16.926586 C 3.636019,17.627251 4.848026,17.977583 7.272039,17.977583 C 7.763866,17.940704 8.202998,17.47974 8.589435,16.594692 L 8.6559155,16.344813 C 14.672005,16.440991 15.392407,14.634766 15.229123,9.403658 L 16.019562,6.803824 L 14.385985,7.246347 C 16.21278,5.660634 17.038351,4.05648 16.862696,2.433888 C 16.687042,0.811296 16.458693,0 16.177649,0 L 15.597994,0 z"
     id="path2436"
     sodipodi:nodetypes="cscccsssssssccssccccccccccccccccccccccsscccccccccssssscccccsccsssssssccsccsccsccscsssssccsssscscscccccccscc" />
</svg>
