<?xml version="1.0" encoding="UTF-8" standalone="no"?>
<svg
   xmlns:dc="http://purl.org/dc/elements/1.1/"
   xmlns:cc="http://creativecommons.org/ns#"
   xmlns:rdf="http://www.w3.org/1999/02/22-rdf-syntax-ns#"
   xmlns:svg="http://www.w3.org/2000/svg"
   xmlns="http://www.w3.org/2000/svg"
   xmlns:sodipodi="http://sodipodi.sourceforge.net/DTD/sodipodi-0.dtd"
   xmlns:inkscape="http://www.inkscape.org/namespaces/inkscape"
   width="21.25"
   height="21.21875"
   id="svg2864"
   sodipodi:version="0.32"
   inkscape:version="0.46"
   sodipodi:docname="F104.svg"
   inkscape:output_extension="org.inkscape.output.svg.inkscape"
   version="1.0">
  <metadata
     id="metadata2871">
    <rdf:RDF>
      <cc:Work
         rdf:about="">
        <dc:format>image/svg+xml</dc:format>
        <dc:type
           rdf:resource="http://purl.org/dc/dcmitype/StillImage" />
      </cc:Work>
    </rdf:RDF>
  </metadata>
  <defs
     id="defs2869">
    <inkscape:perspective
       sodipodi:type="inkscape:persp3d"
       inkscape:vp_x="0 : 8.3999996 : 1"
       inkscape:vp_y="0 : 1000 : 0"
       inkscape:vp_z="21.254332 : 8.3999996 : 1"
       inkscape:persp3d-origin="10.627166 : 5.5999997 : 1"
       id="perspective2873" />
  </defs>
  <sodipodi:namedview
     inkscape:window-height="712"
     inkscape:window-width="1024"
     inkscape:pageshadow="2"
     inkscape:pageopacity="0.0"
     guidetolerance="10.0"
     gridtolerance="10.0"
     objecttolerance="10.0"
     borderopacity="1.0"
     bordercolor="#666666"
     pagecolor="#ffffff"
     id="base"
     showgrid="true"
     inkscape:zoom="23.404479"
     inkscape:cx="10.625"
     inkscape:cy="11.212253"
     inkscape:window-x="0"
     inkscape:window-y="22"
     inkscape:current-layer="svg2864"
     showguides="true"
     inkscape:guide-bbox="true" />
  <path
     style="fill:#000000;stroke:none"
     d="M 7.53125,0 C 5.4492854,0.3404874 3.594394,0.5202662 1.96875,0.53125 L 1.96875,3.46875 C 4.4595025,3.4907174 5.903713,4.0562024 6.3125,5.1875 L 6.3125,14.5 C 6.3125,15.038191 6.2608235,15.156112 6.15625,15.5625 L 7.53125,15.5625 C 7.4266767,15.156112 7.3749999,15.017925 7.375,14.46875 L 7.375,0.8125 C 7.375,0.5159457 7.4266767,0.2306525 7.53125,0 z M 15.25,0 C 13.168035,0.340488 11.313144,0.520266 9.6875,0.53125 L 9.6875,3.46875 C 12.178253,3.4907173 13.622463,4.0562024 14.03125,5.1875 L 14.03125,14.5 C 14.03125,15.038191 13.979574,15.156112 13.875,15.5625 L 15.25,15.5625 C 15.145426,15.156112 15.09375,15.017925 15.09375,14.46875 L 15.09375,0.8125 C 15.09375,0.5159454 15.145426,0.2306529 15.25,0 z M 15.25,15.5625 C 14.916551,15.891993 14.569842,16.177195 14.15625,16.375 C 12.680636,17.080729 11.517789,17.679654 10.65625,18.15625 C 9.776382,17.679654 8.5693635,17.080729 7.09375,16.375 C 5.618136,15.669272 4.6549302,14.123813 4.1875,11.75 C 3.72007,9.3761867 3.1819866,7.8140539 2.53125,7.0625 C 1.8805133,6.3109447 1.07278,5.4327633 0.15625,4.40625 L 0,4.40625 C 1.5397707,6.477608 2.3716861,8.4427785 2.5,10.3125 C 2.628314,12.182222 2.8279561,13.67225 3.09375,14.78125 C 3.359544,15.890251 3.9455505,16.875542 4.84375,17.71875 C 5.7419493,18.561958 6.6292962,19.122126 7.5,19.40625 C 8.3707027,19.690374 8.8458463,20.302218 8.9375,21.21875 L 12.3125,21.21875 C 12.404153,20.302218 12.879296,19.690374 13.75,19.40625 C 14.620704,19.122126 15.508049,18.561958 16.40625,17.71875 C 17.304446,16.875542 17.890456,15.890251 18.15625,14.78125 C 18.422043,13.672249 18.621683,12.182222 18.75,10.3125 C 18.878311,8.4427787 19.710228,6.477608 21.25,4.40625 L 21.09375,4.40625 C 20.177219,5.4327633 19.400735,6.3109446 18.75,7.0625 C 18.099262,7.814054 17.529929,9.3761867 17.0625,11.75 C 16.726083,13.458469 16.10623,14.71643 15.25,15.5625 z M 6.34375,0.9375 L 6.34375,3.90625 C 5.9634823,3.2801919 4.7137419,2.96875 2.59375,2.96875 L 2.59375,1.03125 C 3.7250461,1.0202668 4.9747865,0.9704506 6.34375,0.9375 z M 14.0625,0.9375 L 14.0625,3.90625 C 13.682232,3.2801919 12.432492,2.96875 10.3125,2.96875 L 10.3125,1.03125 C 11.443796,1.0202668 12.693537,0.9704506 14.0625,0.9375 z M 2.59375,8.1875 C 3.19866,10.167205 3.5887786,11.721828 3.78125,12.8125 C 3.9737213,13.90317 4.3805141,14.888463 5.03125,15.75 C 5.6819867,16.611539 6.5655793,17.217973 7.65625,17.59375 C 8.7002501,17.953448 9.6636013,18.524519 10.53125,19.3125 L 10.53125,20.34375 L 9.53125,20.34375 C 9.5129187,19.665517 8.9527512,19.140353 7.84375,18.71875 C 6.7347493,18.297145 5.7752967,17.600275 4.96875,16.65625 C 4.162204,15.712223 3.648302,14.532701 3.4375,13.09375 C 3.226698,11.654797 2.960362,10.00223 2.59375,8.1875 z M 18.65625,8.1875 C 18.28964,10.00223 18.023303,11.654796 17.8125,13.09375 C 17.601699,14.532701 17.087796,15.712223 16.28125,16.65625 C 15.474704,17.600275 14.515253,18.297145 13.40625,18.71875 C 12.297248,19.140353 11.737079,19.665517 11.71875,20.34375 L 10.75,20.34375 L 10.78125,19.3125 C 11.630517,18.527449 12.552267,17.952581 13.59375,17.59375 C 14.684421,17.217973 15.568015,16.611539 16.21875,15.75 C 16.869486,14.888463 17.276278,13.90317 17.46875,12.8125 C 17.661221,11.721828 18.051341,10.167205 18.65625,8.1875 z"
     id="path2866" />
</svg>
