<?xml version="1.0" encoding="UTF-8" standalone="no"?>
<svg
   xmlns:dc="http://purl.org/dc/elements/1.1/"
   xmlns:cc="http://creativecommons.org/ns#"
   xmlns:rdf="http://www.w3.org/1999/02/22-rdf-syntax-ns#"
   xmlns:svg="http://www.w3.org/2000/svg"
   xmlns="http://www.w3.org/2000/svg"
   xmlns:sodipodi="http://sodipodi.sourceforge.net/DTD/sodipodi-0.dtd"
   xmlns:inkscape="http://www.inkscape.org/namespaces/inkscape"
   width="1800"
   height="1800"
   id="svg2864"
   sodipodi:version="0.32"
   inkscape:version="0.46"
   sodipodi:docname="F106.svg"
   inkscape:output_extension="org.inkscape.output.svg.inkscape"
   version="1.0">
  <metadata
     id="metadata2871">
    <rdf:RDF>
      <cc:Work
         rdf:about="">
        <dc:format>image/svg+xml</dc:format>
        <dc:type
           rdf:resource="http://purl.org/dc/dcmitype/StillImage" />
      </cc:Work>
    </rdf:RDF>
  </metadata>
  <defs
     id="defs2869">
    <inkscape:perspective
       sodipodi:type="inkscape:persp3d"
       inkscape:vp_x="0 : 8.3999996 : 1"
       inkscape:vp_y="0 : 1000 : 0"
       inkscape:vp_z="21.254332 : 8.3999996 : 1"
       inkscape:persp3d-origin="10.627166 : 5.5999997 : 1"
       id="perspective2873" />
  </defs>
  <sodipodi:namedview
     inkscape:window-height="712"
     inkscape:window-width="1024"
     inkscape:pageshadow="2"
     inkscape:pageopacity="0.0"
     guidetolerance="10.0"
     gridtolerance="10.0"
     objecttolerance="10.0"
     borderopacity="1.0"
     bordercolor="#666666"
     pagecolor="#ffffff"
     id="base"
     showgrid="true"
     inkscape:zoom="0.28277778"
     inkscape:cx="900"
     inkscape:cy="1427.101"
     inkscape:window-x="0"
     inkscape:window-y="22"
     inkscape:current-layer="svg2864"
     showguides="true"
     inkscape:guide-bbox="true" />
  <path
     style="fill:#000000;stroke:none"
     d="M 0.45723415,0 C 57.695675,77.753629 89.297577,151.07576 94.067431,221.26046 C 98.837295,291.44518 105.46202,348.41342 115.34248,390.04246 C 125.22293,431.67161 147.19686,467.6024 180.58594,499.25436 C 213.97502,530.90628 247.50251,552.41419 279.86948,563.07949 C 322.80807,585.77288 327.58542,608.46625 336.60293,631.15963 L 336.60293,1800.7765 L 450.06983,1800.7765 L 450.06983,631.15963 C 455.03908,603.98985 473.13965,569.49759 511.05828,563.07949 C 543.42531,552.41419 576.95264,530.90628 610.34183,499.25436 C 643.73077,467.6024 665.70482,431.67161 675.5853,390.04246 C 685.46572,348.41337 692.09038,291.44517 696.86033,221.26046 C 701.63011,151.07577 733.23205,77.753629 790.47053,0 L 784.79719,0 C 750.72666,38.532756 721.05034,71.072017 696.86033,99.283537 C 672.67028,127.49501 651.82945,186.05017 634.45355,275.15723 C 629.70789,299.49382 623.52282,322.12995 616.01517,341.81903 C 618.71323,327.35174 620.27018,311.90277 620.27018,296.43227 C 620.27018,263.90049 615.18082,233.75444 603.25014,205.65876 C 591.3195,177.56311 575.54742,153.10027 555.02671,131.90527 C 534.506,110.71034 509.89348,93.16783 482.69156,80.845167 C 455.48974,68.522497 426.25163,63.825132 394.75471,63.825132 C 363.2577,63.825132 333.0787,68.522497 305.39952,80.845167 C 277.72042,93.16783 254.52623,110.71033 234.48272,131.90527 C 214.43922,153.10027 198.18997,177.56313 186.25929,205.65876 C 174.32865,233.75442 169.23926,263.90049 169.23926,296.43227 C 169.23926,309.03433 168.86728,321.37262 170.65759,333.30901 C 164.53268,315.81224 160.55657,296.09221 156.47423,275.15723 C 139.09829,186.05017 118.25749,127.495 94.067431,99.283537 C 69.877368,71.072022 40.201074,38.532756 6.1305841,0 L 0.45723415,0 z M 377.73467,113.4669 C 383.96842,112.85078 391.14886,113.4669 397.59138,113.4669 C 423.36167,113.46691 446.55581,117.79212 468.5082,127.65026 C 490.46063,137.50841 509.95711,151.53029 526.65998,168.78202 C 543.36294,186.03374 556.82884,204.75303 566.3734,226.9338 C 575.91792,249.11459 581.9751,273.20528 581.9751,297.85062 C 581.9751,323.48175 575.91792,348.00493 566.3734,370.18575 C 556.82884,392.36655 543.36294,411.57872 526.65998,428.33755 C 509.95711,445.09629 490.46063,457.26743 468.5082,466.63262 C 446.55581,475.99787 423.36167,480.81599 397.59138,480.81599 C 371.82119,480.81599 347.68584,475.99787 325.25623,466.63262 C 302.82656,457.26743 283.33011,445.09629 267.10445,428.33755 C 250.87872,411.57872 238.35388,392.36655 228.80937,370.18575 C 219.26482,348.00498 214.62602,323.48175 214.62602,297.85062 C 214.62603,273.20528 219.26482,249.11456 228.80937,226.9338 C 238.35387,204.75304 250.87874,186.03374 267.10445,168.78202 C 283.33011,151.5303 302.82655,137.50842 325.25623,127.65026 C 342.07844,120.25665 359.03339,115.3153 377.73467,113.4669 z M 96.904104,141.83362 C 119.39063,216.14685 133.71772,275.34788 140.87253,316.28898 C 161.25325,454.98208 289.97307,492.0031 391.91805,560.24281 L 391.91805,598.5379 L 366.84185,598.5379 C 363.13467,579.13026 333.52605,554.0428 292.6345,537.54944 C 251.68161,521.03134 214.823,494.97725 184.84096,459.54095 C 154.85894,424.10451 135.94372,380.23198 128.1075,326.21735 C 120.27129,272.20258 110.5323,209.95408 96.904104,141.83362 z M 694.02366,141.83362 C 680.39557,209.95408 670.65652,272.2026 662.82027,326.21735 C 654.98411,380.23198 636.06885,424.10451 606.08682,459.54095 C 576.10483,494.97725 538.63923,519.59952 498.29326,537.54944 C 462.72148,553.37531 434.2588,573.07875 422.27044,598.5379 L 400.42806,598.5379 L 401.84639,560.24281 C 514.09888,498.58503 615.98475,445.10378 650.05523,316.28898 C 657.2101,275.34787 671.53716,216.14683 694.02366,141.83362 z M 369.22466,631.15963 L 418.86642,631.15963 L 418.86642,1763.8997 L 369.22466,1763.8997 L 369.22466,631.15963 z"
     id="path2866"
     sodipodi:nodetypes="csssccccccsssccsscssssssssscsscccssssssssssssssssccccccsssccssscccccccccc" />
</svg>
