<?xml version="1.0" encoding="UTF-8" standalone="no"?>
<!-- Created with Inkscape (http://www.inkscape.org/) -->

<svg
   xmlns:dc="http://purl.org/dc/elements/1.1/"
   xmlns:cc="http://creativecommons.org/ns#"
   xmlns:rdf="http://www.w3.org/1999/02/22-rdf-syntax-ns#"
   xmlns:svg="http://www.w3.org/2000/svg"
   xmlns="http://www.w3.org/2000/svg"
   xmlns:sodipodi="http://sodipodi.sourceforge.net/DTD/sodipodi-0.dtd"
   xmlns:inkscape="http://www.inkscape.org/namespaces/inkscape"
   width="1580.4396"
   height="1441.8894"
   id="svg2"
   version="1.1"
   inkscape:version="0.48.3.1 r9886"
   sodipodi:docname="Nouveau document 2">
  <title
     id="title3768">F113</title>
  <defs
     id="defs4" />
  <sodipodi:namedview
     id="base"
     pagecolor="#ffffff"
     bordercolor="#666666"
     borderopacity="1.0"
     inkscape:pageopacity="0.0"
     inkscape:pageshadow="2"
     inkscape:zoom="0.175"
     inkscape:cx="1212.0591"
     inkscape:cy="1201.7406"
     inkscape:document-units="px"
     inkscape:current-layer="layer1"
     showgrid="false"
     inkscape:window-width="1855"
     inkscape:window-height="1176"
     inkscape:window-x="65"
     inkscape:window-y="24"
     inkscape:window-maximized="1"
     fit-margin-top="0"
     fit-margin-left="0"
     fit-margin-right="0"
     fit-margin-bottom="0" />
  <metadata
     id="metadata7">
    <rdf:RDF>
      <cc:Work
         rdf:about="">
        <dc:format>image/svg+xml</dc:format>
        <dc:type
           rdf:resource="http://purl.org/dc/dcmitype/StillImage" />
        <dc:title>F113</dc:title>
        <dc:creator>
          <cc:Agent>
            <dc:title>S. Rosmorduc</dc:title>
          </cc:Agent>
        </dc:creator>
        <dc:description>Sign F1113, free drawing.</dc:description>
      </cc:Work>
    </rdf:RDF>
  </metadata>
  <g
     inkscape:label="Calque 1"
     inkscape:groupmode="layer"
     id="layer1"
     transform="translate(-32.980828,407.36603)">
    <path
       style="font-size:medium;font-style:normal;font-variant:normal;font-weight:normal;font-stretch:normal;text-indent:0;text-align:start;text-decoration:none;line-height:normal;letter-spacing:normal;word-spacing:normal;text-transform:none;direction:ltr;block-progression:tb;writing-mode:lr-tb;text-anchor:start;baseline-shift:baseline;color:#000000;fill:#000000;fill-opacity:1;stroke:none;stroke-width:70;marker:none;visibility:visible;display:inline;overflow:visible;enable-background:accumulate;font-family:Sans;-inkscape-font-specification:Sans"
       d="m 1458.6875,-395.29407 c -131.7094,91.72301 -282.345,151.17868 -385.5937,144.59375 -358.62286,-22.87201 -664.88108,77.59685 -853.5313,319.125 -104.9256,134.33582 -157.198155,344.674 -177.34375,533 -10.072797,94.163 -11.69492,182.6521 -5.90625,253.875 2.894335,35.6114 7.590656,66.8668 14.5,93.125 6.909344,26.2582 14.605159,47.8612 32.03125,65.43752 2.894408,2.9188 6.30747,5.3217 10.03125,7.0625 64.85593,30.3275 147.30297,5.9176 245.46875,-33.81252 98.16578,-39.7301 211.07934,-101.055 322.375,-169.3438 111.29566,-68.2887 220.71225,-143.5198 310.59375,-211.125 89.8815,-67.6051 159.2154,-125.9698 194.9063,-167.375 155.5114,-180.4096 123.3951,-357.49159 100.7187,-460.7812 l 310.6563,-212.5 c 56.1116,-38.02918 34.416,-98.27681 14.5312,-125.03125 -32.7428,-44.05441 -95.6055,-62.44111 -133.4375,-36.25 z m 76.3125,105.59375 -327.0625,223.75 c -11.7433,8.769108 -17.1457,23.155611 -14.4063,36.375 22.6335,103.1186 68.4432,250.55274 -80.3124,423.125 -26.8805,31.1842 -95.9646,90.9631 -183.9688,157.1563 -88.00421,66.1931 -195.93972,140.4124 -305.125,207.4062 -109.18528,66.9938 -219.87128,126.7817 -312.0625,164.0938 -84.18976,34.0736 -153.6422,44.1331 -182.34375,37.5624 -2.96312,-5.457 -7.57827,-15.321 -11.21875,-29.1562 -5.36798,-20.4004 -9.74688,-48.2483 -12.40625,-80.9688 -5.31874,-65.4408 -3.93992,-150.4895 5.71875,-240.7812 19.31735,-180.5834 73.45837,-382.82399 162.90625,-497.34375 171.91572,-220.10303 450.60696,-314.23846 793.90625,-292.34375 131.2355,8.36985 287.7155,-58.54358 426.9375,-154.875 29.2519,-13.31553 52.1336,29.17199 39.4375,46 z"
       id="path2990"
       inkscape:connector-curvature="0"
       sodipodi:nodetypes="csssssccssssccsccccsssscssssscc" />
  </g>
</svg>
