<?xml version="1.0" encoding="UTF-8" standalone="no"?>
<!-- Created with Inkscape (http://www.inkscape.org/) -->
<svg
   xmlns:dc="http://purl.org/dc/elements/1.1/"
   xmlns:cc="http://web.resource.org/cc/"
   xmlns:rdf="http://www.w3.org/1999/02/22-rdf-syntax-ns#"
   xmlns:svg="http://www.w3.org/2000/svg"
   xmlns="http://www.w3.org/2000/svg"
   xmlns:sodipodi="http://sodipodi.sourceforge.net/DTD/sodipodi-0.dtd"
   xmlns:inkscape="http://www.inkscape.org/namespaces/inkscape"
   width="1800"
   height="1800"
   id="svg2"
   sodipodi:version="0.32"
   inkscape:version="0.45.1"
   version="1.0"
   sodipodi:docbase="/Users/rosmord/Travail/Gsigns/Distribution"
   sodipodi:docname="F118B.svg"
   inkscape:output_extension="org.inkscape.output.svg.inkscape">
  <defs
     id="defs4" />
  <sodipodi:namedview
     id="base"
     pagecolor="#ffffff"
     bordercolor="#666666"
     borderopacity="1.0"
     inkscape:pageopacity="0.0"
     inkscape:pageshadow="2"
     inkscape:zoom="0.16887913"
     inkscape:cx="1003.2787"
     inkscape:cy="924.85417"
     inkscape:document-units="px"
     inkscape:current-layer="layer1"
     width="1800px"
     height="1800px"
     inkscape:window-width="1280"
     inkscape:window-height="752"
     inkscape:window-x="0"
     inkscape:window-y="22" />
  <metadata
     id="metadata7">
    <rdf:RDF>
      <cc:Work
         rdf:about="">
        <dc:format>image/svg+xml</dc:format>
        <dc:type
           rdf:resource="http://purl.org/dc/dcmitype/StillImage" />
        <dc:title>F118B</dc:title>
        <dc:creator>
          <cc:Agent>
            <dc:title>S. Rosmorduc</dc:title>
          </cc:Agent>
        </dc:creator>
        <dc:description>F118B, from Theinhart font (F, 54, p. 9)
</dc:description>
      </cc:Work>
    </rdf:RDF>
  </metadata>
  <g
     inkscape:label="Calque 1"
     inkscape:groupmode="layer"
     id="layer1">
    <path
       style="fill:#000000;fill-opacity:1;fill-rule:evenodd;stroke:none;stroke-width:18.20000076;stroke-linecap:butt;stroke-linejoin:miter;stroke-miterlimit:4;stroke-opacity:1"
       d="M 753.96875 685.15625 C 739.83545 928.6831 720.10147 1257.9505 673 1399.1562 C 628.42584 1377.4127 563.16544 1330.3293 538.71875 1330.9375 C 514.55933 1331.5387 502.03522 1340.0038 493.0625 1357.0312 C 470.04831 1335.6549 438.24317 1317.9065 411.53125 1317.9062 C 384.06806 1317.9062 365.8619 1343.9852 343.03125 1357.0312 C 321.10422 1334.476 297.88886 1323.726 268.90625 1324.7812 C 195.62971 1327.4493 156.73424 1547.7991 103.125 1626.2188 C 57.127998 1693.5031 19.863113 1758.7719 8 1798.25 C 89.446223 1807.0249 177.12516 1769.9723 254.40625 1743.3438 C 275.06254 1759.6514 281.1562 1780.1299 301.8125 1796.4375 C 336.60205 1776.8684 373.46045 1761.4753 408.25 1741.9062 C 412.59869 1763.6497 416.96381 1785.3815 421.3125 1807.125 C 488.35014 1817.9825 555.39067 1797.595 597.4375 1764.7188 C 636.57578 1779.939 670.18888 1794.3004 708.59375 1793.7188 C 741.9424 1793.2135 777.42807 1761.0681 812.6875 1761.4688 C 863.71241 1762.0485 919.22852 1755.4885 972.5 1758.75 L 1041 1582.0625 L 1093.1875 1614.6875 C 1135.3895 1556.6083 1138.066 1476.9328 1132.3125 1409.2188 C 1123.9327 1310.5951 1073.7729 1282.2519 1046.5938 1184.4062 C 1042.8876 1046.3353 1072.5032 841.63349 1083.375 703.5625 L 753.96875 685.15625 z M 842.03125 783 L 989.4375 789.53125 C 981.19909 925.5197 968.43084 1065.3535 993.875 1203.75 C 1010.1881 1292.481 1070.9611 1398.5238 1060.5625 1479.25 L 985.53125 1453.1562 C 920.32928 1485.7997 953.01284 1601.7297 939.875 1686.4375 C 884.42918 1682.0888 826.17384 1675.0637 773.53125 1673.4062 C 748.80041 1672.6277 715.47798 1695.4315 708.3125 1715.8125 C 683.30753 1709.2894 658.31748 1702.7419 633.3125 1696.2188 C 639.83554 1674.4753 646.35194 1652.7434 652.875 1631 C 545.64033 1637.8617 509.00819 1614.998 506.09375 1526.625 C 504.6029 1481.4187 504.2904 1427.897 534.65625 1429.8438 C 572.55096 1432.2728 614.91113 1472.639 659.53125 1473.5938 C 692.12846 1474.2912 732.83544 1460.4988 745.65625 1423.4375 C 770.15958 1352.6051 791.1664 1269.0793 801.71875 1178.5938 C 816.80353 1049.2434 824.75967 909.0184 842.03125 783 z M 450.65625 1405.6875 C 435.08291 1483.964 444.51118 1570.5538 458.09375 1640.5 C 381.0246 1642.399 370.83018 1602.9958 370.5625 1537.9062 C 370.31182 1478.8977 399.66508 1412.9732 450.65625 1405.6875 z M 313.125 1425.3125 C 314.7017 1425.3036 316.28741 1425.3848 317.90625 1425.5312 C 304.32369 1482.0642 288.64967 1538.592 287.5625 1595.125 C 270.16773 1575.5559 234.98461 1575.0012 235.40625 1532.25 C 235.75389 1498.7197 264.24739 1425.5884 313.125 1425.3125 z "
       id="path5167" />
  </g>
</svg>
