<?xml version="1.0" encoding="UTF-8" standalone="no"?>
<!-- Created with Inkscape (http://www.inkscape.org/) -->
<svg
   xmlns:dc="http://purl.org/dc/elements/1.1/"
   xmlns:cc="http://creativecommons.org/ns#"
   xmlns:rdf="http://www.w3.org/1999/02/22-rdf-syntax-ns#"
   xmlns:svg="http://www.w3.org/2000/svg"
   xmlns="http://www.w3.org/2000/svg"
   xmlns:sodipodi="http://sodipodi.sourceforge.net/DTD/sodipodi-0.dtd"
   xmlns:inkscape="http://www.inkscape.org/namespaces/inkscape"
   width="5.6279287"
   height="17.858015"
   id="svg2715"
   sodipodi:version="0.32"
   inkscape:version="0.46"
   version="1.0"
   sodipodi:docname="F11A.svg"
   inkscape:output_extension="org.inkscape.output.svg.inkscape">
  <defs
     id="defs2717">
    <inkscape:perspective
       sodipodi:type="inkscape:persp3d"
       inkscape:vp_x="0 : 526.18109 : 1"
       inkscape:vp_y="0 : 1000 : 0"
       inkscape:vp_z="744.09448 : 526.18109 : 1"
       inkscape:persp3d-origin="372.04724 : 350.78739 : 1"
       id="perspective2723" />
  </defs>
  <sodipodi:namedview
     id="base"
     pagecolor="#ffffff"
     bordercolor="#666666"
     borderopacity="1.0"
     inkscape:pageopacity="0.0"
     inkscape:pageshadow="2"
     inkscape:zoom="27.588238"
     inkscape:cx="1.955535"
     inkscape:cy="10.419012"
     inkscape:document-units="px"
     inkscape:current-layer="layer1"
     showgrid="false"
     inkscape:window-width="1024"
     inkscape:window-height="712"
     inkscape:window-x="-4"
     inkscape:window-y="-4" />
  <metadata
     id="metadata2720">
    <rdf:RDF>
      <cc:Work
         rdf:about="">
        <dc:format>image/svg+xml</dc:format>
        <dc:type
           rdf:resource="http://purl.org/dc/dcmitype/StillImage" />
      </cc:Work>
    </rdf:RDF>
  </metadata>
  <g
     inkscape:label="Calque 1"
     inkscape:groupmode="layer"
     id="layer1"
     transform="translate(-1.4033164,-0.121919)">
    <path
       style="fill:#000000;stroke:none"
       d="M -0.59375,-6 C -0.72647167,-5.9841572 -0.8274054,-5.9549969 -0.90625,-5.90625 C -1.0639392,-5.8087559 -1.1457372,-5.6892424 -1.15625,-5.5625 C -1.0721491,-5.4650059 -0.93893918,-5.4581293 -0.78125,-5.53125 C -0.6235609,-5.6043706 -0.47515789,-5.639624 -0.34375,-5.625 C -0.2123425,-5.6103759 -0.15099351,-5.4349793 -0.15625,-5.09375 C -0.161506,-4.7525209 -0.15625001,-4.3567241 -0.15625,-3.9375 C -0.15625,-3.5085261 0.048245686,-2.9617066 0.46875,-2.25 C 0.2690104,-2.1525055 0.1670503,-1.9722342 0.125,-1.71875 L -0.84375,-1 C -1.1381031,-0.8732576 -1.2707375,-0.6792334 -1.28125,-0.40625 C -1.2917627,-0.1332672 -1.3227249,0.070506798 -1.34375,0.1875 C -1.3647753,0.3044924 -1.2727523,0.37900281 -1.0625,0.4375 C -0.9048108,0.5447432 -0.7666322,0.60349928 -0.65625,0.59375 C -0.5458674,0.584 -0.4436197,0.60062642 -0.34375,0.625 C -0.2438802,0.649373 -0.095189202,0.5788661 0.0625,0.4375 C 0.17964421,0.33248145 0.55889017,0.31694796 1.09375,0.34375 L 1.09375,8.9375 C 0.3549447,9.279539 -1.8423332e-18,9.8275832 0,10.59375 L 0,11.84375 L 0.71875,11.84375 L 0.71875,10.625 C 0.71875,9.995647 0.98010071,9.6562501 1.5,9.65625 C 2.006218,9.65625 2.2500001,9.9956472 2.25,10.625 L 2.25,11.84375 L 2.96875,11.84375 L 2.96875,10.59375 C 2.96875,9.813901 2.5747813,9.2658569 1.78125,8.9375 L 1.78125,0.375 C 2.2178279,0.36049662 2.5662191,0.24816682 2.78125,0 C 3.017784,-0.2729828 3.125,-0.59827268 3.125,-0.96875 C 3.125,-1.3392273 3.268147,-1.6742665 3.5625,-1.9375 C 3.856854,-2.2007341 3.9947438,-2.4623929 4,-2.75 C 4.005257,-3.0376078 4.0105118,-3.2952631 4,-3.5 L 2.75,-2.59375 C 3.107429,-3.061721 3.3125,-3.5182761 3.3125,-3.9375 C 3.3125,-4.3664739 3.291762,-4.7573955 3.28125,-5.09375 C 3.270737,-5.4301044 3.3320859,-5.6055012 3.46875,-5.625 C 3.605414,-5.6444989 3.7485611,-5.6092454 3.90625,-5.53125 C 4.06394,-5.4532546 4.1971501,-5.4650059 4.28125,-5.5625 C 4.270738,-5.6892423 4.1629448,-5.8038812 4,-5.90625 C 3.837055,-6.0086188 3.591948,-6.0341229 3.21875,-6 C 2.845553,-5.9658771 2.6562501,-5.6709666 2.65625,-5.125 C 2.65625,-3.5065994 2.2878701,-2.71875 1.5625,-2.71875 C 0.8266171,-2.71875 0.46874999,-3.5065995 0.46875,-5.125 C 0.46875,-5.6709664 0.2794476,-5.965877 -0.09375,-6 C -0.2803488,-6.0170615 -0.46102833,-6.0158428 -0.59375,-6 z M 3.71875,-2.90625 C 3.71875,-2.6137679 3.585828,-2.3589863 3.3125,-2.125 C 3.039172,-1.8910144 2.721917,-1.7009938 2.375,-1.59375 L 2.4375,-1.34375 L 2.75,-1.46875 L 2.75,-1.0625 C 2.75,-0.3702925 2.4637059,-0.0194992 1.875,0 C 1.8422941,0.0010832556 1.8136639,-0.00078235055 1.78125,0 C 1.5435482,0.0057372374 1.3157478,0.010444804 1.09375,0 C 0.80111656,-0.013768151 0.51534618,-0.020613741 0.25,-0.0625 C 0.0555168,0.0642424 -0.1957814,0.34393011 -0.34375,0.3125 C -0.4173382,0.3315096 -0.4889117,0.31256789 -0.5625,0.28125 C -0.373273,0.0472639 -0.2298384,-0.074251297 -0.15625,-0.09375 C -0.0826616,-0.1132493 -0.031249999,-0.16025341 -0.03125,-0.21875 C -0.0417628,-0.2967452 -0.28773298,-0.1634787 -0.71875,0.1875 L -0.875,0.15625 C -0.9380756,0.039257 -0.96378133,-0.082258205 -0.9375,-0.21875 C -0.9112182,-0.3552417 -0.84461333,-0.4346271 -0.75,-0.46875 C -0.6553864,-0.502873 -0.65041798,-0.47049239 -0.71875,-0.34375 C -0.787082,-0.2170082 -0.75640761,-0.16312641 -0.625,-0.1875 C -0.4935925,-0.2118736 -0.42727531,-0.28638401 -0.40625,-0.4375 C -0.3852247,-0.5886154 -0.41589911,-0.7130043 -0.5,-0.78125 C -0.1846219,-1.0834815 0.13263411,-1.2677563 0.4375,-1.375 C 0.4795503,-1.6479828 0.72026435,-1.8703853 1.125,-2.03125 C 1.5297359,-2.1921153 1.7391999,-2.2322439 1.78125,-2.125 C 1.8233006,-2.0177568 1.915323,-1.96875 2.0625,-1.96875 C 2.22019,-1.96875 2.4200041,-2.0060056 2.625,-2.09375 C 2.829996,-2.1814952 3.193119,-2.4480281 3.71875,-2.90625 z M 0.8125,-1.71875 C 0.6653236,-1.5432604 0.65041799,-1.4217458 0.71875,-1.34375 C 0.787082,-1.2657548 0.86333597,-1.2422521 1,-1.28125 C 1.1366638,-1.3202472 1.3826343,-1.341748 1.6875,-1.3125 C 1.5298111,-1.5562355 1.3659267,-1.6728757 1.21875,-1.6875 C 1.0715736,-1.7021237 0.92813889,-1.7090001 0.8125,-1.71875 z"
       transform="translate(2.749995,6.136184)"
       id="path2490" />
  </g>
</svg>
