<?xml version="1.0" encoding ="US-ASCII" standalone="yes"?>
<svg width="13.285522" height="8.16">
<path style="fill:#000000; stroke:none" d=" M 3.781207 2.665557  Q 2.252432 2.391161 1.39658 3.377679  Q 0.540727 4.364195 0.880454 5.690441  Q 1.220182 7.016687 1.834306 7.193083  Q 2.448429 7.36948 2.317764 5.448713  Q 2.1871 3.527943 3.781207 2.665557  Z  M 6.629694 0.914652  Q 8.197668 0.979984 8.302199 0.574924  Q 7.256884 0.431193 6.629694 0.431193  Q 6.002504 0.431193 4.957188 0.574924  Q 5.06172 0.979984 6.629694 0.914652  Z  M 7.544345 1.332778  Q 7.008621 1.241313 6.642761 1.241313  Q 6.2769 1.241313 5.728109 1.332778  Q 4.421463 2.103699 4.525995 4.128999  Q 4.630527 6.1543 5.264251 6.846822  Q 5.897973 7.539345 6.636228 7.532812  Q 7.374482 7.526278 8.014738 6.853355  Q 8.654995 6.180434 8.766058 4.142066  Q 8.877124 2.103699 7.544345 1.332778  Z  M 9.203786 1.973034  Q 11.608013 1.581041 12.63373 3.149015  Q 13.659448 4.71699 13.071456 6.33723  Q 12.483467 7.957471 11.281353 7.957471  Q 10.092303 7.957471 10.281771 5.977903  Q 10.471232 3.998336 9.478181 3.606341  L 9.478181 3.606341  L 9.360582 5.16125  Q 9.256051 6.298031 8.583128 7.232282  Q 7.910206 8.166533 6.642761 8.16  Q 5.375315 8.153467 4.695858 7.225749  Q 4.016403 6.298031 3.924938 5.16125  L 3.807342 3.606341  Q 2.827357 3.998336 3.010287 5.977903  Q 3.193217 7.957471 2.00417 7.957471  Q 0.802056 7.957471 0.214065 6.33723  Q -0.373925 4.71699 0.651792 3.149015  Q 1.677508 1.581041 4.094802 1.973034  L 4.748125 1.293579  L 4.748125 1.084516  Q 4.290799 0.914652 4.094802 0.457326  Q 4.904922 0 6.629694 0  Q 8.354466 0 9.164585 0.457326  Q 8.968589 0.914652 8.511263 1.084516  L 8.537396 1.293579  L 9.190719 1.973034  L 9.203786 1.973034  Z  M 9.504313 2.665557  Q 11.111489 3.527943 10.980824 5.448713  Q 10.850161 7.36948 11.464283 7.193083  Q 12.078406 7.016687 12.418135 5.690441  Q 12.757861 4.364195 11.902009 3.377679  Q 11.046158 2.391161 9.504313 2.665557  Z "/></svg>
