<?xml version="1.0" encoding="UTF-8" standalone="no"?>
<svg
   xmlns:dc="http://purl.org/dc/elements/1.1/"
   xmlns:cc="http://creativecommons.org/ns#"
   xmlns:rdf="http://www.w3.org/1999/02/22-rdf-syntax-ns#"
   xmlns:svg="http://www.w3.org/2000/svg"
   xmlns="http://www.w3.org/2000/svg"
   xmlns:sodipodi="http://sodipodi.sourceforge.net/DTD/sodipodi-0.dtd"
   xmlns:inkscape="http://www.inkscape.org/namespaces/inkscape"
   width="7.3871288"
   height="18.0625"
   id="svg1333"
   sodipodi:version="0.32"
   inkscape:version="0.46"
   sodipodi:docname="F133.svg"
   sodipodi:docbase="C:\Program Files\JSesh\fonts"
   inkscape:output_extension="org.inkscape.output.svg.inkscape"
   version="1.0">
  <metadata
     id="metadata1340">
    <rdf:RDF>
      <cc:Work
         rdf:about="">
        <dc:format>image/svg+xml</dc:format>
        <dc:type
           rdf:resource="http://purl.org/dc/dcmitype/StillImage" />
      </cc:Work>
    </rdf:RDF>
  </metadata>
  <defs
     id="defs1338">
    <inkscape:perspective
       sodipodi:type="inkscape:persp3d"
       inkscape:vp_x="0 : 8.9887085 : 1"
       inkscape:vp_y="0 : 1000 : 0"
       inkscape:vp_z="4.882184 : 8.9887085 : 1"
       inkscape:persp3d-origin="2.441092 : 5.9924723 : 1"
       id="perspective2543" />
  </defs>
  <sodipodi:namedview
     inkscape:window-height="708"
     inkscape:window-width="1024"
     inkscape:pageshadow="2"
     inkscape:pageopacity="0.0"
     borderopacity="1.0"
     bordercolor="#666666"
     pagecolor="#ffffff"
     id="base"
     inkscape:zoom="27.979548"
     inkscape:cx="2.441092"
     inkscape:cy="8.9887085"
     inkscape:window-x="0"
     inkscape:window-y="26"
     inkscape:current-layer="svg1333"
     showgrid="false" />
  <path
     style="fill:#000000;stroke:none"
     d="M 4.04001,0 L 4.04001,1.21875 L 3.07126,1.21875 L 3.07126,2 L 4.04001,2 L 3.97751,3.53125 C 3.59832,3.7943598 3.2894541,4.2398111 3.00876,4.84375 C 2.7952958,5.0354095 2.547362,5.1851903 2.25876,5.3125 C 1.0312938,5.7888454 0.31475539,6.306935 0.16500999,6.875 C 0.015265095,7.443065 -0.018917405,8.130771 0.008759995,8.90625 L 0.47750999,8.90625 C 0.34073969,7.6042252 0.52752189,6.7717574 1.04001,6.40625 C 1.5524993,6.0407417 1.9164021,5.843262 2.13376,5.8125 C 1.8200845,6.7852815 1.8174234,8.0691862 2.13376,9.6875 L 2.60251,9.59375 C 2.2737708,8.3491839 2.2953135,7.0938682 2.63376,5.78125 C 2.7727402,5.4841133 2.9876117,5.3020648 3.29001,5.28125 C 3.5105766,5.3011138 3.6898925,5.3171338 3.88376,5.3125 L 3.60251,10.8125 C 2.7683307,11.152981 2.2898927,11.617194 2.19626,12.1875 C 2.102628,12.757807 2.085486,13.341657 2.10251,13.9375 C 2.119534,14.533342 2.1708413,15.157073 2.29001,15.8125 C 2.4091787,16.467926 2.7253,17.108444 3.22751,17.5 C 3.72972,17.891553 4.3614927,18.0625 4.72751,18.0625 C 5.0935273,18.0625 5.7253,17.868814 6.22751,17.46875 C 6.72972,17.068684 7.0458411,16.450903 7.16501,15.8125 C 7.2841787,15.174097 7.3667359,14.573104 7.38376,13.96875 C 7.400784,13.364395 7.3523926,12.757807 7.25876,12.1875 C 7.165128,11.617194 6.7037132,11.152981 5.85251,10.8125 L 5.60251,4.78125 C 5.7751383,4.6726503 5.9544106,4.5671067 6.10251,4.4375 C 6.4199704,4.1596789 6.4568197,3.7931571 6.19626,3.375 C 6.015501,3.0849099 5.7888736,2.9687362 5.54001,2.9375 L 5.50876,2 L 6.41501,2 L 6.41501,1.21875 L 5.41501,1.21875 L 5.41501,0 L 4.04001,0 z M 4.50876,0.5 L 4.94626,0.5 L 4.88376,2 L 4.94626,4.6875 C 4.8411029,4.7314528 4.7500274,4.7767288 4.63376,4.8125 C 4.6015744,4.8224023 4.572032,4.8350639 4.54001,4.84375 L 4.60251,2 L 4.50876,0.5 z M 5.57126,3.40625 C 5.6604614,3.4477075 5.7286137,3.4952188 5.79001,3.59375 C 5.9410594,3.8361606 5.9012069,4.0637537 5.63376,4.28125 C 5.6234736,4.2896152 5.612988,4.3042759 5.60251,4.3125 L 5.57126,3.40625 z M 3.94626,4.1875 L 3.88376,4.90625 C 3.7459907,4.9077008 3.612026,4.8977306 3.47751,4.875 C 3.5688004,4.6118696 3.7442132,4.4050385 3.94626,4.1875 z M 4.94626,5.125 L 5.10251,11.34375 C 5.9196653,11.582087 6.3469132,11.918149 6.41501,12.34375 C 6.483106,12.769352 6.5172719,13.330465 6.50876,14.0625 C 6.500248,14.794535 6.3720967,15.515049 6.13376,16.1875 C 5.8954227,16.859951 5.4567467,17.241607 4.75876,17.34375 C 4.0437493,17.241607 3.5510853,16.859951 3.32126,16.1875 C 3.0914353,15.515049 2.963284,14.817273 2.94626,14.09375 C 2.929236,13.370227 2.971914,12.777864 3.04001,12.34375 C 3.108106,11.909637 3.5353548,11.582087 4.35251,11.34375 L 4.50876,5.25 C 4.6670677,5.2189459 4.8128662,5.1789137 4.94626,5.125 z M 4.72751,12.15625 C 4.229556,12.15625 3.72972,12.512251 3.22751,13.21875 L 3.22751,13.96875 C 4.23193,12.538729 5.2401141,12.538729 6.22751,13.96875 L 6.22751,13.21875 C 5.733812,12.512251 5.225464,12.15625 4.72751,12.15625 z M 4.72751,13.6875 C 4.5530133,13.6875 4.3750127,13.750118 4.19626,13.84375 C 3.8387547,14.031015 3.66501,14.446836 3.66501,15.09375 L 3.94626,16.8125 L 4.22751,16.6875 L 4.13376,15.71875 C 4.065664,15.00374 4.1738753,14.627563 4.44626,14.40625 C 4.7186453,14.184937 4.7761372,14.184937 5.04001,14.40625 C 5.3038833,14.627563 5.389356,14.989513 5.32126,15.6875 L 5.19626,16.6875 L 5.54001,16.78125 L 5.79001,15.09375 C 5.772986,14.446836 5.5992413,14.031015 5.25876,13.84375 C 5.0885193,13.750117 4.9020067,13.6875 4.72751,13.6875 z"
     id="path2491" />
</svg>
