<?xml version="1.0" encoding="UTF-8" standalone="no"?>
<svg
   xmlns:dc="http://purl.org/dc/elements/1.1/"
   xmlns:cc="http://creativecommons.org/ns#"
   xmlns:rdf="http://www.w3.org/1999/02/22-rdf-syntax-ns#"
   xmlns:svg="http://www.w3.org/2000/svg"
   xmlns="http://www.w3.org/2000/svg"
   xmlns:sodipodi="http://sodipodi.sourceforge.net/DTD/sodipodi-0.dtd"
   xmlns:inkscape="http://www.inkscape.org/namespaces/inkscape"
   width="23.97723"
   height="10.8"
   id="svg2440"
   sodipodi:version="0.32"
   inkscape:version="0.46"
   sodipodi:docname="F143.svg"
   inkscape:output_extension="org.inkscape.output.svg.inkscape">
  <metadata
     id="metadata2447">
    <rdf:RDF>
      <cc:Work
         rdf:about="">
        <dc:format>image/svg+xml</dc:format>
        <dc:type
           rdf:resource="http://purl.org/dc/dcmitype/StillImage" />
      </cc:Work>
    </rdf:RDF>
  </metadata>
  <defs
     id="defs2445">
    <inkscape:perspective
       sodipodi:type="inkscape:persp3d"
       inkscape:vp_x="0 : 5.4000001 : 1"
       inkscape:vp_y="0 : 1000 : 0"
       inkscape:vp_z="23.97723 : 5.4000001 : 1"
       inkscape:persp3d-origin="11.988615 : 3.6000001 : 1"
       id="perspective2449" />
  </defs>
  <sodipodi:namedview
     inkscape:window-height="667"
     inkscape:window-width="640"
     inkscape:pageshadow="2"
     inkscape:pageopacity="0.0"
     guidetolerance="10.0"
     gridtolerance="10.0"
     objecttolerance="10.0"
     borderopacity="1.0"
     bordercolor="#666666"
     pagecolor="#ffffff"
     id="base"
     showgrid="false"
     inkscape:zoom="22.696219"
     inkscape:cx="11.984375"
     inkscape:cy="5.3937502"
     inkscape:window-x="22"
     inkscape:window-y="29"
     inkscape:current-layer="svg2440" />
  <path
     style="fill:#000000; stroke:none"
     d="M 3.34375 0 L 0 2.40625 L 2.875 4.5 C 2.8313761 4.6452776 2.7944556 4.7904731 2.78125 4.96875 C 2.78125 6.00708 3.3660338 6.6133775 4.5 6.75 C 4.8759469 6.75 5.1773775 6.6573374 5.4375 6.53125 C 7.3959526 9.3505071 10.334587 10.799388 14.28125 10.8125 C 18.858101 10.798838 22.083361 8.8781905 23.96875 5.09375 L 6.28125 5.09375 C 6.2851446 5.0527019 6.3100237 5.011342 6.3125 4.96875 C 6.2441887 3.9167573 5.6476272 3.3632232 4.5 3.28125 C 4.4782346 3.2818153 4.4588501 3.2802226 4.4375 3.28125 L 3.34375 0 z M 2.78125 1.625 L 3.5 3.53125 C 3.4342128 3.5725507 3.400674 3.6363375 3.34375 3.6875 L 1.75 2.40625 L 2.78125 1.625 z M 4.5 4.15625 C 5.060152 4.2108987 5.3691894 4.4769093 5.4375 4.96875 C 5.3965133 5.51524 5.1011378 5.8203512 4.5 5.875 C 3.926186 5.765702 3.6249999 5.4605906 3.625 4.96875 C 3.6933107 4.4359227 3.9808345 4.169912 4.5 4.15625 z M 6.28125 5.96875 L 22.28125 5.96875 C 20.428836 8.474956 17.749594 9.7682313 14.28125 9.84375 C 10.811041 9.7754387 8.1393147 8.4826022 6.28125 5.96875 z "
     id="path2442" />
</svg>
