<?xml version="1.0" encoding="UTF-8" standalone="no"?>
<svg
   xmlns:dc="http://purl.org/dc/elements/1.1/"
   xmlns:cc="http://creativecommons.org/ns#"
   xmlns:rdf="http://www.w3.org/1999/02/22-rdf-syntax-ns#"
   xmlns:svg="http://www.w3.org/2000/svg"
   xmlns="http://www.w3.org/2000/svg"
   xmlns:sodipodi="http://sodipodi.sourceforge.net/DTD/sodipodi-0.dtd"
   xmlns:inkscape="http://www.inkscape.org/namespaces/inkscape"
   width="21.254332"
   height="16.799999"
   id="svg2864"
   sodipodi:version="0.32"
   inkscape:version="0.46"
   sodipodi:docname="F153.svg"
   inkscape:output_extension="org.inkscape.output.svg.inkscape">
  <metadata
     id="metadata2871">
    <rdf:RDF>
      <cc:Work
         rdf:about="">
        <dc:format>image/svg+xml</dc:format>
        <dc:type
           rdf:resource="http://purl.org/dc/dcmitype/StillImage" />
      </cc:Work>
    </rdf:RDF>
  </metadata>
  <defs
     id="defs2869">
    <inkscape:perspective
       sodipodi:type="inkscape:persp3d"
       inkscape:vp_x="0 : 8.3999996 : 1"
       inkscape:vp_y="0 : 1000 : 0"
       inkscape:vp_z="21.254332 : 8.3999996 : 1"
       inkscape:persp3d-origin="10.627166 : 5.5999997 : 1"
       id="perspective2873" />
  </defs>
  <sodipodi:namedview
     inkscape:window-height="712"
     inkscape:window-width="1024"
     inkscape:pageshadow="2"
     inkscape:pageopacity="0.0"
     guidetolerance="10.0"
     gridtolerance="10.0"
     objecttolerance="10.0"
     borderopacity="1.0"
     bordercolor="#666666"
     pagecolor="#ffffff"
     id="base"
     showgrid="true"
     inkscape:zoom="30.178573"
     inkscape:cx="10.627166"
     inkscape:cy="8.5136564"
     inkscape:window-x="0"
     inkscape:window-y="22"
     inkscape:current-layer="svg2864"
     showguides="true"
     inkscape:guide-bbox="true" />
  <path
     style="fill:#000000; stroke:none"
     d="M 0 0 C 1.5397707 2.071358 2.3716861 4.0365285 2.5 5.90625 C 2.628314 7.775972 2.8279561 9.2659997 3.09375 10.375 C 3.359544 11.484001 3.9455505 12.469292 4.84375 13.3125 C 5.7419493 14.155708 6.6292962 14.715876 7.5 15 C 8.3707027 15.284124 8.8458463 15.895968 8.9375 16.8125 L 12.3125 16.8125 C 12.404153 15.895968 12.879296 15.284124 13.75 15 C 14.620704 14.715876 15.508049 14.155708 16.40625 13.3125 C 17.304446 12.469292 17.890456 11.484001 18.15625 10.375 C 18.422043 9.2659993 18.621683 7.7759718 18.75 5.90625 C 18.878311 4.0365287 19.710228 2.071358 21.25 0 L 21.09375 0 C 20.177219 1.0265133 19.400735 1.9046946 18.75 2.65625 C 18.099262 3.407804 17.529929 4.9699367 17.0625 7.34375 C 16.595069 9.7175627 15.631863 11.263022 14.15625 11.96875 C 12.680636 12.674479 11.517789 13.273404 10.65625 13.75 C 9.776382 13.273404 8.5693635 12.674479 7.09375 11.96875 C 5.618136 11.263022 4.6549302 9.7175627 4.1875 7.34375 C 3.72007 4.9699367 3.1819866 3.4078039 2.53125 2.65625 C 1.8805133 1.9046947 1.07278 1.0265133 0.15625 0 L 0 0 z M 10.65625 0 C 10.405733 0 10.258305 0.2670327 10.21875 0.78125 L 10.21875 4.15625 C 10.231936 4.4199514 10.158221 4.6821036 10 4.90625 C 9.7231132 5.0117307 9.4380157 5.0117309 9.1875 4.90625 L 6 3.84375 C 5.485782 3.725084 5.1909254 3.7758539 5.125 4 C 5.04589 4.2373314 5.2621525 4.4584741 5.75 4.65625 L 8.96875 5.6875 C 9.2192667 5.7666107 9.4042796 5.9189188 9.5625 6.15625 C 9.5625 6.4463207 9.4839053 6.6952885 9.3125 6.90625 L 7.34375 9.65625 C 7.066864 10.104543 7.0209747 10.36815 7.21875 10.5 C 7.4165267 10.645035 7.6884391 10.520552 8.03125 10.125 L 10 7.40625 C 10.145036 7.182104 10.379364 7.0297954 10.65625 6.9375 C 10.919951 7.01661 11.12303 7.1689189 11.28125 7.40625 L 13.25 10.125 C 13.592811 10.520552 13.877908 10.645035 14.0625 10.5 C 14.260276 10.354963 14.201201 10.073293 13.9375 9.625 L 11.9375 6.90625 C 11.766093 6.695288 11.705565 6.4331355 11.71875 6.15625 C 11.876971 5.9189187 12.080049 5.7666105 12.34375 5.6875 L 15.5625 4.65625 C 16.050347 4.458474 16.235361 4.2553961 16.15625 4.03125 C 16.07714 3.7939187 15.782283 3.725084 15.28125 3.84375 L 12.0625 4.90625 C 11.811985 4.9985454 11.576201 4.9985456 11.3125 4.90625 C 11.141095 4.6821034 11.049315 4.4199516 11.0625 4.15625 L 11.0625 0.78125 C 11.022945 0.26703267 10.893581 -2.3087739e-10 10.65625 0 z M 2.59375 3.78125 C 3.19866 5.7609553 3.5887786 7.3155784 3.78125 8.40625 C 3.9737213 9.49692 4.3805141 10.482213 5.03125 11.34375 C 5.6819867 12.205289 6.5655793 12.811723 7.65625 13.1875 C 8.7002501 13.547198 9.6636013 14.118269 10.53125 14.90625 L 10.53125 15.9375 L 9.53125 15.9375 C 9.5129187 15.259267 8.9527512 14.734103 7.84375 14.3125 C 6.7347493 13.890895 5.7752967 13.194025 4.96875 12.25 C 4.162204 11.305973 3.648302 10.126451 3.4375 8.6875 C 3.226698 7.2485467 2.960362 5.5959799 2.59375 3.78125 z M 18.65625 3.78125 C 18.28964 5.59598 18.023303 7.2485465 17.8125 8.6875 C 17.601699 10.126451 17.087796 11.305973 16.28125 12.25 C 15.474704 13.194025 14.515253 13.890895 13.40625 14.3125 C 12.297248 14.734103 11.737079 15.259267 11.71875 15.9375 L 10.75 15.9375 L 10.78125 14.90625 C 11.630517 14.121199 12.552267 13.546331 13.59375 13.1875 C 14.684421 12.811723 15.568015 12.205289 16.21875 11.34375 C 16.869486 10.482213 17.276278 9.4969204 17.46875 8.40625 C 17.661221 7.315578 18.051341 5.7609552 18.65625 3.78125 z M 10.65625 4.96875 C 10.893581 4.96875 11.108131 5.0654095 11.3125 5.25 C 11.516868 5.4345914 11.625 5.6737987 11.625 5.9375 C 11.625 6.1748307 11.521747 6.3647247 11.34375 6.5625 C 11.165751 6.7602767 10.928256 6.8749998 10.625 6.875 C 10.348113 6.875 10.115499 6.7734613 9.9375 6.5625 C 9.7595026 6.3515387 9.6874999 6.14846 9.6875 5.9375 C 9.6875 5.6869834 9.7595022 5.4411833 9.9375 5.25 C 10.115499 5.0588167 10.366178 4.9687501 10.65625 4.96875 z M 10.65625 5.15625 C 10.418919 5.15625 10.207536 5.2167794 10.0625 5.375 C 9.9174643 5.5332215 9.84375 5.739724 9.84375 5.9375 C 9.8437504 6.1089047 9.917464 6.2726854 10.0625 6.4375 C 10.207536 6.6023125 10.400854 6.6875 10.625 6.6875 C 10.875515 6.6875002 11.080307 6.589128 11.21875 6.4375 C 11.357193 6.2858714 11.40625 6.1352754 11.40625 5.9375 C 11.40625 5.7265387 11.321063 5.5266287 11.15625 5.375 C 10.991437 5.2233722 10.840841 5.15625 10.65625 5.15625 z M 10.03125 8.46875 L 10.03125 13.1875 L 11.3125 13.1875 L 11.3125 8.46875 L 10.03125 8.46875 z "
     id="path2866" />
</svg>
