<?xml version="1.0" encoding="UTF-8" standalone="no"?>
<svg
   xmlns:dc="http://purl.org/dc/elements/1.1/"
   xmlns:cc="http://creativecommons.org/ns#"
   xmlns:rdf="http://www.w3.org/1999/02/22-rdf-syntax-ns#"
   xmlns:svg="http://www.w3.org/2000/svg"
   xmlns="http://www.w3.org/2000/svg"
   xmlns:sodipodi="http://sodipodi.sourceforge.net/DTD/sodipodi-0.dtd"
   xmlns:inkscape="http://www.inkscape.org/namespaces/inkscape"
   width="21.457708"
   height="17.96875"
   id="svg3119"
   sodipodi:version="0.32"
   inkscape:version="0.46"
   sodipodi:docname="F156A.svg"
   inkscape:output_extension="org.inkscape.output.svg.inkscape"
   version="1.0">
  <metadata
     id="metadata3126">
    <rdf:RDF>
      <cc:Work
         rdf:about="">
        <dc:format>image/svg+xml</dc:format>
        <dc:type
           rdf:resource="http://purl.org/dc/dcmitype/StillImage" />
      </cc:Work>
    </rdf:RDF>
  </metadata>
  <defs
     id="defs3124">
    <inkscape:perspective
       sodipodi:type="inkscape:persp3d"
       inkscape:vp_x="0 : 8.9887085 : 1"
       inkscape:vp_y="0 : 1000 : 0"
       inkscape:vp_z="6.406846 : 8.9887085 : 1"
       inkscape:persp3d-origin="3.203423 : 5.9924723 : 1"
       id="perspective3128" />
  </defs>
  <sodipodi:namedview
     inkscape:window-height="712"
     inkscape:window-width="1024"
     inkscape:pageshadow="2"
     inkscape:pageopacity="0.0"
     guidetolerance="10.0"
     gridtolerance="10.0"
     objecttolerance="10.0"
     borderopacity="1.0"
     bordercolor="#666666"
     pagecolor="#ffffff"
     id="base"
     showgrid="true"
     inkscape:zoom="28.215652"
     inkscape:cx="10.728855"
     inkscape:cy="8.984375"
     inkscape:window-x="-4"
     inkscape:window-y="-4"
     inkscape:current-layer="svg3119"
     showguides="true"
     inkscape:guide-bbox="true" />
  <path
     style="fill:#000000;stroke:none"
     d="M 7.8226046,0 L 7.8226046,1.0625 L 9.3226046,1.0625 L 9.6976046,4.59375 L 2.8851046,4.59375 C 2.2087802,4.59375 1.7067194,4.8089201 1.3538546,5.25 C 1.0156928,5.676378 0.82260436,6.1416542 0.82260456,6.65625 C 0.83730746,7.1708427 1.0138479,7.634275 1.3226046,8.03125 C 1.6901722,8.4576289 2.2253273,8.6875003 2.9163546,8.6875 L 10.135105,8.6875 L 10.416355,11.34375 C 10.480105,11.802748 10.437355,12.01275 10.322605,12 C 9.5448586,11.655751 8.902102,11.758502 8.3538546,12.28125 C 8.0096059,12.701998 8.0026066,13.496005 8.3851046,14.65625 C 8.7676032,15.816495 9.1409813,16.658377 9.4788546,17.1875 C 9.8167279,17.716623 10.340108,17.96875 11.041355,17.96875 C 11.857351,17.96875 12.410731,17.716623 12.697605,17.1875 C 12.984479,16.658377 13.320857,15.81012 13.728855,14.65625 C 14.136853,13.50238 14.136853,12.714748 13.728855,12.28125 C 13.040358,11.771253 12.354852,11.687002 11.666355,12.03125 C 11.602605,12.03125 11.602605,11.802748 11.666355,11.34375 L 11.947605,8.6875 L 18.822605,8.6875 C 19.513621,8.6875 20.063491,8.4576285 20.416355,8.03125 C 20.739809,7.6342754 20.901651,7.1708429 20.916355,6.65625 C 20.901651,6.141654 20.739809,5.6763781 20.416355,5.25 C 20.063491,4.80892 19.530167,4.5937502 18.853855,4.59375 L 12.353855,4.59375 L 12.728855,1.0625 L 14.228855,1.0625 L 14.228855,0 L 7.8226046,0 z M 10.260105,1.0625 L 11.853855,1.0625 L 11.635105,4.59375 L 10.447605,4.59375 L 10.260105,1.0625 z M 2.5726046,5.25 C 2.6543888,5.2297838 2.7343881,5.2499999 2.8226046,5.25 L 18.916355,5.25 C 19.269222,5.25 19.572662,5.3952905 19.822605,5.71875 C 20.072549,6.04221 20.197605,6.3474929 20.197605,6.65625 C 20.197605,6.979706 20.107489,7.2978499 19.916355,7.5625 C 19.607602,7.8859614 19.283924,8.0312496 18.916355,8.03125 L 2.8226046,8.03125 C 2.4697388,8.03125 2.1313608,7.8859613 1.8226046,7.5625 C 1.6167668,7.29785 1.5101046,6.9797062 1.5101046,6.65625 C 1.5248075,6.3474927 1.6664091,6.0422098 1.9163546,5.71875 C 2.1038143,5.4761555 2.3272526,5.3106485 2.5726046,5.25 z M 10.697605,8.6875 L 11.385105,8.6875 L 11.197605,12.03125 L 10.885105,12.03125 L 10.697605,8.6875 z M 4.7601046,9.5 C 4.6539228,9.5030869 4.5185903,9.5262283 4.3851046,9.5625 C 3.0551005,9.9292646 1.6753566,10.379108 0.22885456,10.875 C 0.044401364,10.957314 -0.028727436,11.068338 0.010104564,11.21875 L 0.57260456,12.8125 C 0.60172836,12.915473 0.69094256,12.91623 0.88510456,12.8125 C 2.1568604,12.249626 3.4689328,11.620161 4.7601046,10.90625 C 5.2552156,10.620587 5.4509356,10.303695 5.3538546,9.9375 C 5.2810447,9.6480987 5.0786501,9.4907392 4.7601046,9.5 z M 6.6351046,9.53125 C 6.1723221,9.53125 5.9476046,9.7808819 5.9476046,10.25 C 5.9476046,10.719108 6.1723221,10.9375 6.6351046,10.9375 C 7.1094435,10.9375 7.3538546,10.719108 7.3538546,10.25 C 7.3538546,9.7808823 7.1094434,9.5312503 6.6351046,9.53125 z M 9.2601046,9.53125 C 8.7857344,9.53125 8.5413546,9.7808819 8.5413546,10.25 C 8.5413546,10.719108 8.7857343,10.9375 9.2601046,10.9375 C 9.7228863,10.9375 9.9476046,10.719108 9.9476046,10.25 C 9.9476046,9.7808823 9.7228863,9.5312503 9.2601046,9.53125 z M 14.135105,9.53125 C 13.660734,9.53125 13.416354,9.7808819 13.416355,10.25 C 13.416355,10.719108 13.660734,10.9375 14.135105,10.9375 C 14.597886,10.9375 14.822604,10.719108 14.822605,10.25 C 14.822605,9.7808823 14.597886,9.5312503 14.135105,9.53125 z M 16.697605,9.53125 C 16.379059,9.5219891 16.207915,9.6793489 16.135105,9.96875 C 16.038024,10.334945 16.233743,10.651837 16.728855,10.9375 C 18.020027,11.651411 19.300849,12.280876 20.572605,12.84375 C 20.766767,12.94748 20.855981,12.977973 20.885105,12.875 L 21.447605,11.25 C 21.486437,11.099588 21.413308,10.988564 21.228855,10.90625 C 19.782353,10.410358 18.402609,9.9605148 17.072605,9.59375 C 16.939119,9.5574783 16.803786,9.534337 16.697605,9.53125 z M 4.6038546,9.90625 C 4.8368481,9.8644019 4.9736996,9.9453612 5.0101046,10.09375 C 5.0586456,10.262092 4.9081354,10.447044 4.5101046,10.65625 C 3.2868896,11.338282 2.0791966,11.918086 0.88510456,12.4375 L 0.44760456,11.1875 C 1.7679015,10.724113 3.0723916,10.328536 4.3538546,10 C 4.4533623,9.9649131 4.5261901,9.9201994 4.6038546,9.90625 z M 16.635105,9.9375 C 16.746747,9.9231237 16.904839,9.9610759 17.103855,10.03125 C 18.385318,10.359786 19.689808,10.755363 21.010105,11.21875 L 20.603855,12.46875 C 19.409763,11.949336 18.20207,11.369532 16.978855,10.6875 C 16.580824,10.478294 16.399064,10.293342 16.447605,10.125 C 16.471875,10.026074 16.523462,9.9518763 16.635105,9.9375 z M 9.9163546,12.5625 C 10.150635,12.54736 10.416481,12.543375 10.728855,12.5625 L 10.728855,17 C 10.741605,17.178498 10.663103,17.28125 10.510105,17.28125 C 10.267855,17.28125 9.9436026,16.817245 9.5101046,15.9375 C 9.0766066,15.057754 8.8538546,14.137995 8.8538546,13.15625 C 8.8538546,12.802439 9.2135142,12.607921 9.9163546,12.5625 z M 11.322605,12.5625 C 12.584849,12.486 13.228854,12.703002 13.228855,13.1875 C 13.228855,14.156495 13.006102,15.057754 12.572605,15.9375 C 12.139107,16.817245 11.783603,17.28125 11.541355,17.28125 C 11.388355,17.28125 11.322604,17.178498 11.322605,17 L 11.322605,12.5625 z"
     id="path3121" />
</svg>
