<?xml version="1.0" encoding="UTF-8" standalone="no"?>
<svg
   xmlns:dc="http://purl.org/dc/elements/1.1/"
   xmlns:cc="http://creativecommons.org/ns#"
   xmlns:rdf="http://www.w3.org/1999/02/22-rdf-syntax-ns#"
   xmlns:svg="http://www.w3.org/2000/svg"
   xmlns="http://www.w3.org/2000/svg"
   xmlns:sodipodi="http://sodipodi.sourceforge.net/DTD/sodipodi-0.dtd"
   xmlns:inkscape="http://www.inkscape.org/namespaces/inkscape"
   width="18.5"
   height="17.96875"
   id="svg3381"
   sodipodi:version="0.32"
   inkscape:version="0.46"
   sodipodi:docname="F157.svg"
   inkscape:output_extension="org.inkscape.output.svg.inkscape"
   version="1.0">
  <metadata
     id="metadata3388">
    <rdf:RDF>
      <cc:Work
         rdf:about="">
        <dc:format>image/svg+xml</dc:format>
        <dc:type
           rdf:resource="http://purl.org/dc/dcmitype/StillImage" />
      </cc:Work>
    </rdf:RDF>
  </metadata>
  <defs
     id="defs3386">
    <inkscape:perspective
       sodipodi:type="inkscape:persp3d"
       inkscape:vp_x="0 : 8.9887085 : 1"
       inkscape:vp_y="0 : 1000 : 0"
       inkscape:vp_z="6.406846 : 8.9887085 : 1"
       inkscape:persp3d-origin="3.203423 : 5.9924723 : 1"
       id="perspective3390" />
  </defs>
  <sodipodi:namedview
     inkscape:window-height="712"
     inkscape:window-width="1024"
     inkscape:pageshadow="2"
     inkscape:pageopacity="0.0"
     guidetolerance="10.0"
     gridtolerance="10.0"
     objecttolerance="10.0"
     borderopacity="1.0"
     bordercolor="#666666"
     pagecolor="#ffffff"
     id="base"
     showgrid="true"
     showguides="true"
     inkscape:guide-bbox="true"
     inkscape:zoom="25.698909"
     inkscape:cx="3.203423"
     inkscape:cy="8.9887085"
     inkscape:window-x="-4"
     inkscape:window-y="-4"
     inkscape:current-layer="svg3381" />
  <path
     style="fill:#000000;stroke:none"
     d="M 2,0 L 2,1.0625 L 7.5,1.0625 L 8.59375,11.34375 C 8.6575,11.802748 8.61475,12.01275 8.5,12 C 7.722254,11.655751 7.0794973,11.758503 6.53125,12.28125 C 6.1870013,12.701998 6.180002,13.496005 6.5625,14.65625 C 6.9449987,15.816495 7.3183767,16.658377 7.65625,17.1875 C 7.9941233,17.716623 8.5175033,17.96875 9.21875,17.96875 C 10.034746,17.96875 10.588126,17.716623 10.875,17.1875 C 11.161874,16.658377 11.498252,15.810119 11.90625,14.65625 C 12.314248,13.50238 12.314248,12.714748 11.90625,12.28125 C 11.217753,11.771253 10.532247,11.687001 9.84375,12.03125 C 9.7800007,12.03125 9.7800008,11.802748 9.84375,11.34375 L 10.90625,1.0625 L 16.375,1.0625 L 16.375,0 L 2,0 z M 8.4375,1.0625 L 10.03125,1.0625 L 9.375,12.03125 L 9.0625,12.03125 L 8.4375,1.0625 z M 0,3.375 L 0,6.65625 L 6.90625,6.65625 L 6.90625,3.40625 L 0,3.375 z M 11.59375,3.4375 L 11.59375,6.6875 L 18.5,6.6875 L 18.5,3.4375 L 11.59375,3.4375 z M 0.84375,4.1875 L 6.03125,4.1875 L 6.03125,5.78125 L 0.84375,5.8125 L 0.84375,4.1875 z M 12.4375,4.21875 L 17.625,4.25 L 17.625,5.84375 L 12.4375,5.84375 L 12.4375,4.21875 z M 8.09375,12.5625 C 8.3280301,12.54736 8.5938765,12.543375 8.90625,12.5625 L 8.90625,17 C 8.919,17.178498 8.8404986,17.28125 8.6875,17.28125 C 8.4452507,17.28125 8.120998,16.817245 7.6875,15.9375 C 7.254002,15.057754 7.03125,14.137995 7.03125,13.15625 C 7.03125,12.802439 7.3909096,12.607921 8.09375,12.5625 z M 9.5,12.5625 C 10.762244,12.486 11.40625,12.703002 11.40625,13.1875 C 11.40625,14.156495 11.183498,15.057754 10.75,15.9375 C 10.316502,16.817245 9.9609987,17.28125 9.71875,17.28125 C 9.5657507,17.28125 9.4999999,17.178498 9.5,17 L 9.5,12.5625 z"
     id="path3383" />
</svg>
