<?xml version="1.0" encoding="UTF-8" standalone="no"?>
<!-- Created with Inkscape (http://www.inkscape.org/) -->
<svg
   xmlns:dc="http://purl.org/dc/elements/1.1/"
   xmlns:cc="http://web.resource.org/cc/"
   xmlns:rdf="http://www.w3.org/1999/02/22-rdf-syntax-ns#"
   xmlns:svg="http://www.w3.org/2000/svg"
   xmlns="http://www.w3.org/2000/svg"
   xmlns:sodipodi="http://inkscape.sourceforge.net/DTD/sodipodi-0.dtd"
   xmlns:inkscape="http://www.inkscape.org/namespaces/inkscape"
   width="18.000000px"
   height="18.000000px"
   id="svg1290"
   sodipodi:version="0.32"
   inkscape:version="0.43"
   sodipodi:docbase="C:\Program Files\JSesh\fonts"
   sodipodi:docname="F16.svg">
  <defs
     id="defs3" />
  <sodipodi:namedview
     id="base"
     pagecolor="#ffffff"
     bordercolor="#666666"
     borderopacity="1.0"
     inkscape:pageopacity="0.0"
     inkscape:pageshadow="2"
     inkscape:zoom="22.77175"
     inkscape:cx="8.5054939"
     inkscape:cy="7.6485848"
     inkscape:document-units="px"
     inkscape:current-layer="layer1"
     inkscape:window-width="811"
     inkscape:window-height="542"
     inkscape:window-x="5"
     inkscape:window-y="49" />
  <metadata
     id="metadata4">
    <rdf:RDF>
      <cc:Work
         rdf:about="">
        <dc:format>image/svg+xml</dc:format>
        <dc:type
           rdf:resource="http://purl.org/dc/dcmitype/StillImage" />
        <cc:license
           rdf:resource="http://creativecommons.org/licenses/by/2.0/" />
        <dc:subject>
          <rdf:Bag>
            <rdf:li>JSesh hieroglyph</rdf:li>
          </rdf:Bag>
        </dc:subject>
      </cc:Work>
      <cc:License
         rdf:about="http://creativecommons.org/licenses/by/2.0/">
        <cc:permits
           rdf:resource="http://web.resource.org/cc/Reproduction" />
        <cc:permits
           rdf:resource="http://web.resource.org/cc/Distribution" />
        <cc:requires
           rdf:resource="http://web.resource.org/cc/Notice" />
        <cc:requires
           rdf:resource="http://web.resource.org/cc/Attribution" />
        <cc:permits
           rdf:resource="http://web.resource.org/cc/DerivativeWorks" />
        <cc:requires
           rdf:resource="http://web.resource.org/cc/ShareAlike" />
      </cc:License>
    </rdf:RDF>
  </metadata>
  <g
     inkscape:label="Layer 1"
     inkscape:groupmode="layer"
     id="layer1">
    <path
       sodipodi:nodetypes="ccccccccccccccccccc"
       id="path4392"
       d="M 0.76734670,5.2205506 C 0.57991782,5.0679689 -0.087909167,4.6751369 0.032574480,5.1870101 C 1.1850780,6.8685359 2.0206594,8.7665789 2.4718273,10.754998 C 2.9139397,12.297919 3.7347947,13.743407 4.9167948,14.839172 C 6.4372459,16.361340 8.4808258,17.366400 10.628965,17.566221 C 13.044089,17.933793 15.647244,17.982365 18.085405,18.018786 L 18.085405,14.756646 C 14.999802,14.572351 11.848062,14.877905 8.8291835,14.065114 C 7.3386207,13.664196 5.7988200,13.005133 4.8812482,11.702706 C 3.8291494,10.094113 3.4900589,8.0924403 2.2136455,6.6189182 C 1.8033781,6.0861235 1.3286583,5.5951939 0.76734670,5.2205506 z M 1.8836105,7.3255084 C 3.2488672,8.7802242 3.3175907,10.979973 4.6553970,12.452783 C 5.7577180,13.708614 7.3665641,14.348188 8.9512060,14.744718 C 11.687535,15.418528 14.682925,15.323115 17.476099,15.360277 L 17.476099,17.403341 C 14.215356,17.403341 11.100799,17.254609 8.2625476,16.373814 C 6.1676358,15.451010 4.4256611,13.747827 3.4471854,11.680048 C 2.8535857,10.254230 2.6645531,8.6753542 1.8836105,7.3255084 z "
       style="color:#000000;fill:#000000;fill-opacity:1.0000000;fill-rule:nonzero;stroke:none;stroke-width:0.60000002;stroke-linecap:butt;stroke-linejoin:miter;stroke-miterlimit:4.0000000;stroke-dashoffset:0.0000000;stroke-opacity:1.0000000;marker:none;marker-start:none;marker-mid:none;marker-end:none;visibility:visible;display:inline;overflow:visible" />
  </g>
</svg>
