<?xml version="1.0" encoding="UTF-8" standalone="no"?>
<svg
   xmlns:dc="http://purl.org/dc/elements/1.1/"
   xmlns:cc="http://creativecommons.org/ns#"
   xmlns:rdf="http://www.w3.org/1999/02/22-rdf-syntax-ns#"
   xmlns:svg="http://www.w3.org/2000/svg"
   xmlns="http://www.w3.org/2000/svg"
   xmlns:sodipodi="http://sodipodi.sourceforge.net/DTD/sodipodi-0.dtd"
   xmlns:inkscape="http://www.inkscape.org/namespaces/inkscape"
   width="22.861108779907227"
   height="18.0"
   id="svg5229"
   version="1.1"
   inkscape:version="0.48.0 r9654"
   sodipodi:docname="F163.svg">
  <metadata
     id="metadata5239">
    <rdf:RDF>
      <cc:Work
         rdf:about="">
        <dc:format>image/svg+xml</dc:format>
        <dc:type
           rdf:resource="http://purl.org/dc/dcmitype/StillImage" />
      </cc:Work>
    </rdf:RDF>
  </metadata>
  <defs
     id="defs5237" />
  <sodipodi:namedview
     pagecolor="#ffffff"
     bordercolor="#666666"
     borderopacity="1"
     objecttolerance="10"
     gridtolerance="10"
     guidetolerance="10"
     inkscape:pageopacity="0"
     inkscape:pageshadow="2"
     inkscape:window-width="640"
     inkscape:window-height="480"
     id="namedview5235"
     showgrid="false"
     inkscape:zoom="17.277778"
     inkscape:cx="11.430554"
     inkscape:cy="9"
     inkscape:window-x="1759"
     inkscape:window-y="511"
     inkscape:window-maximized="0"
     inkscape:current-layer="svg5229" />
  <path
     style="fill:black cmyk(0, 0, 0, 100);stroke:none"
     d="M 12.5 0 C 12.380495 0 12.35887 0.3796583 12.1875 0.9375 C 11.992559 1.5720686 11.8565 2.8986278 11.40625 3.15625 C 11.337739 3.1954501 11.286615 3.21875 11.21875 3.21875 C 11.084913 3.21875 10.929082 3.15625 10.78125 3.15625 C 10.726832 3.15625 10.683345 3.1687462 10.625 3.1875 C 10.41387 3.2553634 10.284798 3.5861862 10.0625 3.625 C 9.1410225 3.785893 7.8919689 3.7179175 7.1875 3.78125 C 6.7350549 3.821925 7.9480334 4.71875 9.15625 4.71875 C 9.1733197 4.71875 9.201685 4.71911 9.21875 4.71875 C 9.4697068 4.7133345 9.7057276 4.6875 9.96875 4.6875 C 10.409718 4.6875 10.859474 4.7270627 11.21875 4.875 C 11.571092 5.0200817 11.973746 5.4297786 11.96875 5.84375 L 11.90625 11.65625 L 8.875 11.78125 L 7.78125 11.71875 C 6.9631581 10.855209 6.2300426 10.4375 5.59375 10.4375 C 5.3665022 10.42235 5.1173977 10.39015 4.875 10.375 C 3.5872639 10.617397 2.8200474 10.75 2.5625 10.75 C 2.3807017 10.75 2.28125 10.851352 2.28125 11.09375 C 2.28125 11.427047 2.5474051 11.59375 3.0625 11.59375 C 3.9470209 11.45274 4.6214156 11.40625 5.09375 11.40625 C 5.1796269 11.40625 5.2714985 11.401589 5.34375 11.40625 C 5.6012976 11.40625 5.8021022 11.506652 5.96875 11.71875 C 5.6733281 12.08451 5.0269432 12.28125 4 12.28125 C 3.9210048 12.28125 3.8333237 12.283414 3.75 12.28125 C 2.5834625 12.25095 1.5500909 12.085198 0.65625 11.8125 C 0.21690481 11.8125 0 12.078655 0 12.59375 C 0.045449431 13.063395 1.6954344 13.29735 4.9375 13.3125 L 7.09375 13.09375 L 11.90625 13.0625 L 11.84375 18 L 13.1875 18 L 13.15625 13.0625 L 19.40625 13.03125 L 22.875 13.0625 L 22.875 7.53125 C 22.85985 6.7889079 22.444042 6.40625 21.65625 6.40625 C 20.883608 6.40625 20.482949 6.6231548 20.4375 7.0625 C 20.119353 9.9258204 19.769847 11.359851 19.40625 11.375 L 13.15625 11.625 L 13.125 4.28125 C 13.123145 3.9128464 14.17339 3.6617159 14.3125 3.34375 C 14.554648 2.7902679 14.453169 0.35890826 14.0625 0.03125 C 14.058004 0.027478919 14.035965 0.03125 14.03125 0.03125 C 13.855439 0.03125 13.547944 2.5748106 13.03125 3.125 C 12.97848 3.1811906 12.871346 3.21875 12.78125 3.21875 C 12.684761 3.21875 12.578344 3.1774335 12.59375 3.125 C 12.922169 2.0072383 13.07762 0.38730804 12.5625 0.03125 C 12.541141 0.016486354 12.516437 0 12.5 0 z M 21.625 7.03125 C 21.943147 7.03125 22.125 7.1979535 22.125 7.53125 L 22.125 11.34375 L 20.65625 11.34375 L 21.125 7.3125 C 21.14015 7.1155518 21.306853 7.03125 21.625 7.03125 z "
     id="path5231" />
</svg>
