<?xml version="1.0" encoding="UTF-8" standalone="no"?>
<svg
   xmlns:dc="http://purl.org/dc/elements/1.1/"
   xmlns:cc="http://creativecommons.org/ns#"
   xmlns:rdf="http://www.w3.org/1999/02/22-rdf-syntax-ns#"
   xmlns:svg="http://www.w3.org/2000/svg"
   xmlns="http://www.w3.org/2000/svg"
   xmlns:sodipodi="http://sodipodi.sourceforge.net/DTD/sodipodi-0.dtd"
   xmlns:inkscape="http://www.inkscape.org/namespaces/inkscape"
   width="13.952616"
   height="17.977583"
   id="svg2440"
   sodipodi:version="0.32"
   inkscape:version="0.46"
   sodipodi:docname="F164.svg"
   inkscape:output_extension="org.inkscape.output.svg.inkscape">
  <metadata
     id="metadata2447">
    <rdf:RDF>
      <cc:Work
         rdf:about="">
        <dc:format>image/svg+xml</dc:format>
        <dc:type
           rdf:resource="http://purl.org/dc/dcmitype/StillImage" />
      </cc:Work>
    </rdf:RDF>
  </metadata>
  <defs
     id="defs2445">
    <inkscape:perspective
       sodipodi:type="inkscape:persp3d"
       inkscape:vp_x="0 : 8.9887915 : 1"
       inkscape:vp_y="0 : 1000 : 0"
       inkscape:vp_z="13.952616 : 8.9887915 : 1"
       inkscape:persp3d-origin="6.9763079 : 5.9925276 : 1"
       id="perspective2449" />
  </defs>
  <sodipodi:namedview
     inkscape:window-height="480"
     inkscape:window-width="640"
     inkscape:pageshadow="2"
     inkscape:pageopacity="0.0"
     guidetolerance="10.0"
     gridtolerance="10.0"
     objecttolerance="10.0"
     borderopacity="1.0"
     bordercolor="#666666"
     pagecolor="#ffffff"
     id="base"
     showgrid="false" />
  <path
     style="fill:#000000; stroke:none"
     d="M 8.46875 0 C 8.0751945 0.010596031 7.8468751 0.4335926 7.75 1.28125 L 7.125 6.03125 C 7.097322 6.1142853 7.0589294 6.1736608 7.03125 6.1875 C 7.003572 6.1736607 6.9999999 6.1281254 7 6.03125 L 7.5625 1.65625 C 7.687054 0.701338 7.5120539 0.17321467 7 0.0625 C 6.515624 -0.062053333 6.1799105 0.35758803 6 1.3125 L 4.78125 7.25 C 4.7535713 7.4022327 4.7955356 7.4723213 4.90625 7.5 C 5.971876 7.4446427 6.5104908 7.5843747 6.53125 7.875 C 6.5320916 7.8867821 6.5300786 7.8949228 6.53125 7.90625 C 6.1772329 7.8047563 5.7656258 7.8563107 5.28125 8.09375 C 4.6308027 7.816964 4.1200899 7.8553563 3.71875 8.1875 C 2.957588 7.8415167 2.4189734 7.7191961 2.09375 7.84375 C 1.768526 7.9683033 1.4747773 8.0102673 1.21875 7.96875 C 0.96272333 7.927232 0.78437534 7.836384 0.6875 7.71875 C 0.59062467 7.6011153 0.46473199 7.5625002 0.3125 7.5625 C 0.021874667 7.4656253 -0.062053334 7.5357142 0.0625 7.8125 C 0.61607267 8.642858 1.5218733 8.912054 2.78125 8.59375 C 3.500894 8.912054 4.0779015 9.006473 4.5 8.875 C 4.9220987 8.743526 5.187946 8.7330351 5.3125 8.84375 C 4.8281247 8.9821427 4.59375 9.1919637 4.59375 9.46875 C 4.19241 9.6071427 3.6714299 9.9709809 3.0625 10.59375 C 2.827232 10.718304 2.648884 10.833705 2.53125 10.9375 C 2.413616 11.041295 2.4241074 11.296428 2.5625 11.65625 C 2.5486607 11.86384 2.6080354 12.077232 2.71875 12.3125 C 2.954018 12.464732 3.1080353 12.569642 3.21875 12.625 C 3.2879467 13.566073 3.5361599 14.178125 3.9375 14.46875 L 4.15625 14.46875 L 4.15625 12.53125 L 4.53125 12.46875 C 4.462054 13.091519 4.4830353 13.521652 4.59375 13.75 C 4.704464 13.978348 4.8198658 13.967857 4.9375 13.71875 C 5.055134 13.469643 5.0656246 13.029019 4.96875 12.40625 L 5.34375 12.34375 C 5.34375 14.696432 6.0187482 16.57098 7.375 17.96875 L 8.90625 17.96875 L 8.90625 17.3125 C 8.5602667 16.495982 8.5392848 15.544645 8.84375 14.4375 C 9.1482147 13.330355 10.368747 12.445537 12.5 11.78125 L 12.5 10.8125 C 11.434373 10.8125 10.643973 10.578126 10.125 10.09375 C 9.606026 9.6093747 9.0500009 9.2142863 8.46875 8.9375 C 8.7178573 8.7575893 9.0779013 8.7435263 9.5 8.875 C 9.9220987 9.0064727 10.467856 8.912054 11.1875 8.59375 C 12.446877 8.912054 13.352678 8.6428582 13.90625 7.8125 C 13.989286 7.5080353 13.936608 7.4379468 13.6875 7.5625 C 13.535268 7.5625 13.402456 7.6011153 13.3125 7.71875 C 13.222544 7.836384 13.044196 7.927232 12.78125 7.96875 C 12.518303 8.0102673 12.231474 7.9683034 11.90625 7.84375 C 11.581027 7.719196 11.063394 7.8241066 10.34375 8.15625 C 9.9008927 7.837946 9.4183046 7.8553563 8.90625 8.1875 C 8.2476932 7.8794646 7.7101781 7.7889966 7.3125 7.9375 C 7.3678573 7.660714 7.8749985 7.5839287 8.84375 7.75 C 8.9544647 7.7638393 9.017411 7.7147328 9.03125 7.5625 L 9.28125 1.65625 C 9.3366073 0.67365933 9.1406257 0.14196467 8.65625 0.03125 C 8.5939731 0.015680833 8.5249722 -0.0015137187 8.46875 0 z M 8.625 0.34375 C 8.8464293 0.412946 8.933929 0.85714134 8.90625 1.6875 L 8.71875 7.125 C 8.71875 7.2218753 8.6941966 7.2464287 8.625 7.21875 L 5.3125 6.96875 C 5.229464 6.96875 5.1736607 6.9406255 5.1875 6.84375 L 6.34375 1.40625 C 6.509822 0.686606 6.7022321 0.33348199 6.9375 0.375 C 7.214286 0.45803533 7.3156254 0.86026672 7.21875 1.59375 L 6.625 5.96875 C 6.597322 6.245536 6.7370532 6.399554 7 6.46875 C 7.2629467 6.5241073 7.3959819 6.4156247 7.4375 6.125 L 8.03125 1.53125 C 8.1281247 0.700892 8.3343746 0.28839268 8.625 0.34375 z M 6.53125 8.96875 C 7.0398446 8.9220425 7.506752 9.0321424 7.9375 9.28125 C 8.5118313 9.6133933 9.074999 10.033035 9.65625 10.53125 C 10.2375 11.029465 10.989284 11.267411 11.875 11.28125 C 9.8821393 11.917858 8.6477676 12.872543 8.21875 14.125 C 7.7897313 15.377457 7.7441958 16.423213 8.0625 17.28125 C 7.6334813 17.295088 7.1997772 16.892858 6.75 16.0625 C 6.300222 15.232141 6.0763386 13.927681 6.0625 12.15625 C 6.0763387 11.782589 5.8595987 11.684598 5.4375 11.84375 C 5.0154013 12.002903 4.7006701 12.086831 4.5 12.09375 C 4.29933 12.10067 4.1104914 12.125224 3.9375 12.1875 C 3.7645087 12.249777 3.516072 12.239286 3.15625 12.15625 C 3.4607147 12.087053 3.7754461 11.999554 4.09375 11.875 C 4.412054 11.750446 4.5310265 11.628125 4.46875 11.53125 C 4.4064733 11.434375 4.2455361 11.50067 3.96875 11.6875 C 3.6919633 11.874331 3.3424114 11.972322 2.96875 12 C 2.8857147 11.986161 2.8332593 11.919644 2.8125 11.78125 C 2.7917413 11.642857 2.8790181 11.524107 3.03125 11.46875 L 3.34375 11.3125 C 3.5236607 11.395536 3.6216513 11.385045 3.65625 11.28125 C 3.690848 11.177455 3.669866 11.100447 3.59375 11.03125 C 3.517634 10.962053 3.4511167 10.916741 3.375 10.9375 C 3.298884 10.958259 3.2116074 11.028124 3.15625 11.125 L 2.84375 11.34375 L 2.78125 11.15625 L 3.75 10.53125 C 3.9714287 10.240625 4.3700886 9.9991077 4.9375 9.75 C 4.9375 9.500892 5.2872753 9.2562506 6 9.0625 C 6.1781812 9.0140625 6.3617185 8.9843192 6.53125 8.96875 z M 7.4375 9.5625 C 7.22991 9.8254473 7.1004468 10.077455 7.03125 10.375 C 6.962054 10.672545 6.9584819 11.392855 7 12.5 C 7.8026793 12.029463 8.2504463 11.543304 8.375 11.03125 C 8.4995533 10.519195 8.4959815 10.099554 8.34375 9.78125 L 8.0625 9.71875 C 8.173214 10.590627 7.9214294 11.304018 7.3125 11.84375 C 7.3401787 11.220981 7.395982 10.762947 7.4375 10.5 C 7.479018 10.237054 7.5839285 9.9433044 7.75 9.625 L 7.4375 9.5625 z M 5.34375 9.75 C 5.1603794 9.7742187 5.0379462 9.8580358 4.96875 9.96875 L 4.96875 10.28125 C 4.7334813 10.419643 4.4991076 10.556027 4.25 10.6875 C 4.0008927 10.818973 3.875 10.934375 3.875 11.03125 L 5.125 10.4375 C 5.1526787 10.492858 5.2611607 10.51384 5.46875 10.5 C 5.7040187 10.486161 5.9312501 10.423215 6.125 10.3125 L 6.125 10.1875 L 6 10.1875 C 5.79241 10.062946 5.56875 10.020982 5.375 10.0625 C 5.1812493 10.104018 5.0691968 10.153125 5 10.25 C 5.0962639 10.052925 5.4346679 9.9556704 6.0625 9.96875 L 6.0625 9.8125 C 5.764955 9.7502233 5.5271206 9.7257813 5.34375 9.75 z "
     id="path2442" />
</svg>
