<?xml version="1.0" encoding="UTF-8" standalone="no"?>
<svg
   xmlns:dc="http://purl.org/dc/elements/1.1/"
   xmlns:cc="http://creativecommons.org/ns#"
   xmlns:rdf="http://www.w3.org/1999/02/22-rdf-syntax-ns#"
   xmlns:svg="http://www.w3.org/2000/svg"
   xmlns="http://www.w3.org/2000/svg"
   xmlns:sodipodi="http://sodipodi.sourceforge.net/DTD/sodipodi-0.dtd"
   xmlns:inkscape="http://www.inkscape.org/namespaces/inkscape"
   width="21.4935"
   height="5.52"
   id="svg2508"
   sodipodi:version="0.32"
   inkscape:version="0.46"
   sodipodi:docname="F16Bvara.svg"
   inkscape:output_extension="org.inkscape.output.svg.inkscape">
  <metadata
     id="metadata2515">
    <rdf:RDF>
      <cc:Work
         rdf:about="">
        <dc:format>image/svg+xml</dc:format>
        <dc:type
           rdf:resource="http://purl.org/dc/dcmitype/StillImage" />
      </cc:Work>
    </rdf:RDF>
  </metadata>
  <defs
     id="defs2513">
    <inkscape:perspective
       sodipodi:type="inkscape:persp3d"
       inkscape:vp_x="0 : 2.76 : 1"
       inkscape:vp_y="0 : 1000 : 0"
       inkscape:vp_z="21.4935 : 2.76 : 1"
       inkscape:persp3d-origin="10.74675 : 1.84 : 1"
       id="perspective2517" />
  </defs>
  <sodipodi:namedview
     inkscape:window-height="667"
     inkscape:window-width="640"
     inkscape:pageshadow="2"
     inkscape:pageopacity="0.0"
     guidetolerance="10.0"
     gridtolerance="10.0"
     objecttolerance="10.0"
     borderopacity="1.0"
     bordercolor="#666666"
     pagecolor="#ffffff"
     id="base"
     showgrid="false"
     inkscape:zoom="25.309978"
     inkscape:cx="10.74675"
     inkscape:cy="2.76"
     inkscape:window-x="44"
     inkscape:window-y="58"
     inkscape:current-layer="svg2508" />
  <path
     style="fill:#000000; stroke:none"
     d=" M 0.548167 0.552  Q 0.4255 2.484 1.606167 3.174  Q 2.786833 3.864 5.4855 3.496  Q 5.424167 3.158667 2.510833 3.281333  Q 0.916167 2.698667 0.916167 1.502667  Q 1.866833 3.22 3.890833 2.944  Q 5.3935 2.729333 7.202833 3.511333  Q 9.012167 4.293334 13.3055 3.588  Q 17.598833 2.882667 18.672167 4.814667  L 19.377501 4.630667  Q 18.0895 2.392 13.964833 2.928667  Q 9.840167 3.465333 7.6475 2.744667  Q 5.454834 2.024 3.752833 2.422667  Q 2.050833 2.821333 0.548167 0.552  Z  M 18.396166 5.52  Q 17.261499 3.312 13.060166 4.155334  Q 8.858833 4.998667 5.8535 3.986667  Q 1.1615 4.814667 0.3795 2.775333  Q -0.4025 0.736 0.4255 0  Q 1.130833 0.122667 1.744167 1.088667  Q 2.3575 2.054667 3.9215 1.717333  Q 5.4855 1.38 7.0955 1.686667  Q 8.7055 1.993333 10.652833 1.364667  Q 12.600166 0.736 16.234167 1.15  Q 19.868166 1.564 21.217501 4.109334  L 21.4935 4.692  L 18.396166 5.52  Z  M 9.226833 2.422667  Q 11.128166 2.361333 14.8695 2.238667  Q 18.610834 2.116 19.960167 4.477334  L 20.696167 4.324  Q 19.2855 1.809333 15.636167 1.686667  Q 11.986834 1.564 9.226833 2.422667  Z "
     id="path2510" />
</svg>
