<?xml version="1.0" encoding="UTF-8" standalone="no"?>
<svg
   xmlns:dc="http://purl.org/dc/elements/1.1/"
   xmlns:cc="http://creativecommons.org/ns#"
   xmlns:rdf="http://www.w3.org/1999/02/22-rdf-syntax-ns#"
   xmlns:svg="http://www.w3.org/2000/svg"
   xmlns="http://www.w3.org/2000/svg"
   xmlns:sodipodi="http://sodipodi.sourceforge.net/DTD/sodipodi-0.dtd"
   xmlns:inkscape="http://www.inkscape.org/namespaces/inkscape"
   width="21.254332"
   height="16.799999"
   id="svg2864"
   sodipodi:version="0.32"
   inkscape:version="0.46"
   sodipodi:docname="F171.svg"
   inkscape:output_extension="org.inkscape.output.svg.inkscape">
  <metadata
     id="metadata2871">
    <rdf:RDF>
      <cc:Work
         rdf:about="">
        <dc:format>image/svg+xml</dc:format>
        <dc:type
           rdf:resource="http://purl.org/dc/dcmitype/StillImage" />
      </cc:Work>
    </rdf:RDF>
  </metadata>
  <defs
     id="defs2869">
    <inkscape:perspective
       sodipodi:type="inkscape:persp3d"
       inkscape:vp_x="0 : 8.3999996 : 1"
       inkscape:vp_y="0 : 1000 : 0"
       inkscape:vp_z="21.254332 : 8.3999996 : 1"
       inkscape:persp3d-origin="10.627166 : 5.5999997 : 1"
       id="perspective2873" />
  </defs>
  <sodipodi:namedview
     inkscape:window-height="712"
     inkscape:window-width="1024"
     inkscape:pageshadow="2"
     inkscape:pageopacity="0.0"
     guidetolerance="10.0"
     gridtolerance="10.0"
     objecttolerance="10.0"
     borderopacity="1.0"
     bordercolor="#666666"
     pagecolor="#ffffff"
     id="base"
     showgrid="true"
     inkscape:zoom="30.178573"
     inkscape:cx="17.022603"
     inkscape:cy="9.7254435"
     inkscape:window-x="0"
     inkscape:window-y="22"
     inkscape:current-layer="svg2864"
     showguides="true"
     inkscape:guide-bbox="true" />
  <path
     style="fill:#000000; stroke:none"
     d="M 0 0 C 1.5397707 2.071358 2.3716861 4.0365285 2.5 5.90625 C 2.628314 7.775972 2.8279561 9.2659997 3.09375 10.375 C 3.359544 11.484001 3.9455505 12.469292 4.84375 13.3125 C 5.7419493 14.155708 6.6292962 14.715876 7.5 15 C 8.3707027 15.284124 8.8458463 15.895968 8.9375 16.8125 L 12.3125 16.8125 C 12.404153 15.895968 12.879296 15.284124 13.75 15 C 14.620704 14.715876 15.508049 14.155708 16.40625 13.3125 C 17.304446 12.469292 17.890456 11.484001 18.15625 10.375 C 18.422043 9.2659993 18.621683 7.7759718 18.75 5.90625 C 18.878311 4.0365287 19.710228 2.071358 21.25 0 L 21.09375 0 C 20.177219 1.0265133 19.400735 1.9046946 18.75 2.65625 C 18.099262 3.407804 17.529929 4.9699367 17.0625 7.34375 C 16.595069 9.7175627 15.631863 11.263022 14.15625 11.96875 C 12.954466 12.543517 12.01181 13.012805 11.21875 13.4375 L 11.15625 11 C 11.813034 10.250911 12.69873 9.794429 13.8125 9.59375 C 13.74592 8.6849399 13.606953 7.5781012 13.40625 6.28125 C 13.193504 4.9212018 13.073781 4.0270764 13.0625 3.625 C 13.051218 3.2229236 13.076494 2.9607158 13.09375 2.84375 C 13.803456 2.5167475 14.109679 1.9851495 14.0625 1.21875 C 14.015323 0.45235093 13.684202 0.060581384 13.03125 0.03125 C 12.378299 0.0019184924 11.849023 0.1601851 11.4375 0.5 C 11.025975 0.83981428 10.706459 1.3371538 10.5 2.03125 C 10.366344 2.8800269 10.383849 3.6358081 10.375 4.40625 L 10.21875 13.53125 C 9.3772257 13.087033 8.3881478 12.587811 7.09375 11.96875 C 5.618136 11.263022 4.6549302 9.7175627 4.1875 7.34375 C 3.72007 4.9699367 3.1819866 3.4078039 2.53125 2.65625 C 1.8805133 1.9046947 1.07278 1.0265133 0.15625 0 L 0 0 z M 12.875 0.5625 C 13.011338 0.57191118 13.127254 0.59792891 13.21875 0.65625 C 13.401742 0.77289276 13.51505 0.94491913 13.53125 1.15625 C 13.531081 1.5162903 13.444927 1.7942108 13.28125 2 C 13.117576 2.2057886 12.889132 2.366035 12.625 2.46875 C 12.573229 2.8196487 12.550922 3.1810928 12.5625 3.59375 C 12.579127 4.186284 12.677988 5.0691689 12.84375 6.21875 C 13.042672 7.4521147 13.181899 8.356123 13.21875 8.9375 C 12.230793 9.2299522 11.448632 9.5815121 10.875 10 C 10.900167 6.5048299 10.924232 4.2879635 10.96875 3.3125 C 11.013268 2.3370371 11.160415 1.654355 11.4375 1.28125 C 11.714584 0.90814489 12.043891 0.67274748 12.40625 0.59375 C 12.587429 0.55425126 12.738662 0.55308882 12.875 0.5625 z M 2.59375 3.78125 C 3.19866 5.7609553 3.5887786 7.3155784 3.78125 8.40625 C 3.9737213 9.49692 4.3805141 10.482213 5.03125 11.34375 C 5.6819867 12.205289 6.5655793 12.811723 7.65625 13.1875 C 8.7002501 13.547198 9.6636013 14.118269 10.53125 14.90625 L 10.53125 15.9375 L 9.53125 15.9375 C 9.5129187 15.259267 8.9527512 14.734103 7.84375 14.3125 C 6.7347493 13.890895 5.7752967 13.194025 4.96875 12.25 C 4.162204 11.305973 3.648302 10.126451 3.4375 8.6875 C 3.226698 7.2485467 2.960362 5.5959799 2.59375 3.78125 z M 18.65625 3.78125 C 18.28964 5.59598 18.023303 7.2485465 17.8125 8.6875 C 17.601699 10.126451 17.087796 11.305973 16.28125 12.25 C 15.474704 13.194025 14.515253 13.890895 13.40625 14.3125 C 12.297248 14.734103 11.737079 15.259267 11.71875 15.9375 L 10.75 15.9375 L 10.78125 14.90625 C 11.630517 14.121199 12.552267 13.546331 13.59375 13.1875 C 14.684421 12.811723 15.568015 12.205289 16.21875 11.34375 C 16.869486 10.482213 17.276278 9.4969204 17.46875 8.40625 C 17.661221 7.315578 18.051341 5.7609552 18.65625 3.78125 z "
     id="path2866" />
</svg>
