<?xml version="1.0" encoding="UTF-8" standalone="no"?>
<svg
   xmlns:dc="http://purl.org/dc/elements/1.1/"
   xmlns:cc="http://creativecommons.org/ns#"
   xmlns:rdf="http://www.w3.org/1999/02/22-rdf-syntax-ns#"
   xmlns:svg="http://www.w3.org/2000/svg"
   xmlns="http://www.w3.org/2000/svg"
   xmlns:sodipodi="http://sodipodi.sourceforge.net/DTD/sodipodi-0.dtd"
   xmlns:inkscape="http://www.inkscape.org/namespaces/inkscape"
   width="21.254332"
   height="16.799999"
   id="svg2864"
   sodipodi:version="0.32"
   inkscape:version="0.46"
   sodipodi:docname="F174.svg"
   inkscape:output_extension="org.inkscape.output.svg.inkscape">
  <metadata
     id="metadata2871">
    <rdf:RDF>
      <cc:Work
         rdf:about="">
        <dc:format>image/svg+xml</dc:format>
        <dc:type
           rdf:resource="http://purl.org/dc/dcmitype/StillImage" />
      </cc:Work>
    </rdf:RDF>
  </metadata>
  <defs
     id="defs2869">
    <inkscape:perspective
       sodipodi:type="inkscape:persp3d"
       inkscape:vp_x="0 : 8.3999996 : 1"
       inkscape:vp_y="0 : 1000 : 0"
       inkscape:vp_z="21.254332 : 8.3999996 : 1"
       inkscape:persp3d-origin="10.627166 : 5.5999997 : 1"
       id="perspective2873" />
  </defs>
  <sodipodi:namedview
     inkscape:window-height="712"
     inkscape:window-width="1024"
     inkscape:pageshadow="2"
     inkscape:pageopacity="0.0"
     guidetolerance="10.0"
     gridtolerance="10.0"
     objecttolerance="10.0"
     borderopacity="1.0"
     bordercolor="#666666"
     pagecolor="#ffffff"
     id="base"
     showgrid="true"
     inkscape:zoom="30.178573"
     inkscape:cx="10.627166"
     inkscape:cy="8.3999998"
     inkscape:window-x="0"
     inkscape:window-y="22"
     inkscape:current-layer="svg2864"
     showguides="true"
     inkscape:guide-bbox="true" />
  <path
     style="fill:#000000; stroke:none"
     d="M 0 0 C 1.5397707 2.071358 2.3716861 4.0365285 2.5 5.90625 C 2.628314 7.775972 2.8279561 9.2659997 3.09375 10.375 C 3.359544 11.484001 3.9455505 12.469292 4.84375 13.3125 C 5.7419493 14.155708 6.6292962 14.715876 7.5 15 C 8.3707027 15.284124 8.8458463 15.895968 8.9375 16.8125 L 12.3125 16.8125 C 12.404153 15.895968 12.879296 15.284124 13.75 15 C 14.620704 14.715876 15.508049 14.155708 16.40625 13.3125 C 17.304446 12.469292 17.890456 11.484001 18.15625 10.375 C 18.422043 9.2659993 18.621683 7.7759718 18.75 5.90625 C 18.878311 4.0365287 19.710228 2.071358 21.25 0 L 21.09375 0 C 20.177219 1.0265133 19.400735 1.9046946 18.75 2.65625 C 18.099262 3.407804 17.529929 4.9699367 17.0625 7.34375 C 16.595069 9.7175627 15.631863 11.263022 14.15625 11.96875 C 12.680636 12.674479 11.517789 13.273404 10.65625 13.75 C 9.776382 13.273404 8.5693635 12.674479 7.09375 11.96875 C 5.618136 11.263022 4.6549302 9.7175627 4.1875 7.34375 C 3.72007 4.9699367 3.1819866 3.4078039 2.53125 2.65625 C 1.8805133 1.9046947 1.07278 1.0265133 0.15625 0 L 0 0 z M 10.625 1.9375 C 10.040692 1.9375 9.4822324 2.0599212 8.96875 2.28125 C 8.455268 2.5025789 8.028082 2.8068152 7.65625 3.1875 C 7.2844178 3.5681855 6.9713288 3.9953712 6.75 4.5 C 6.528672 5.0046296 6.4375 5.5719428 6.4375 6.15625 C 6.4375001 6.7405572 6.528672 7.2766204 6.75 7.78125 C 6.9713288 8.2858796 7.284418 8.721918 7.65625 9.09375 C 8.0280818 9.4655819 8.4552676 9.7474212 8.96875 9.96875 C 9.4822328 10.190078 10.040692 10.3125 10.625 10.3125 C 11.209307 10.3125 11.745371 10.190078 12.25 9.96875 C 12.754629 9.7474214 13.213064 9.465582 13.59375 9.09375 C 13.974434 8.7219179 14.278671 8.2858796 14.5 7.78125 C 14.721329 7.2766204 14.8125 6.7405572 14.8125 6.15625 C 14.8125 5.5719428 14.721329 5.0046296 14.5 4.5 C 14.278671 3.9953712 13.974434 3.5681856 13.59375 3.1875 C 13.213064 2.8068151 12.754629 2.5025788 12.25 2.28125 C 11.745371 2.0599213 11.209307 1.9375 10.625 1.9375 z M 10.6875 2.84375 C 11.16557 2.84375 11.592755 2.9479368 12 3.125 C 12.407244 3.3020634 12.75264 3.53389 13.0625 3.84375 C 13.37236 4.1536101 13.635437 4.5078588 13.8125 4.90625 C 13.989563 5.3046411 14.0625 5.7135924 14.0625 6.15625 C 14.0625 6.616613 13.989563 7.070358 13.8125 7.46875 C 13.635437 7.8671411 13.37236 8.1989928 13.0625 8.5 C 12.75264 8.8010064 12.407244 9.0505396 12 9.21875 C 11.592755 9.3869598 11.16557 9.46875 10.6875 9.46875 C 10.20943 9.46875 9.7598476 9.3869596 9.34375 9.21875 C 8.9276518 9.0505398 8.5510064 8.8010064 8.25 8.5 C 7.9489927 8.1989928 7.7083124 7.8671412 7.53125 7.46875 C 7.3541868 7.0703579 7.28125 6.6166132 7.28125 6.15625 C 7.2812501 5.7135922 7.3541868 5.3046412 7.53125 4.90625 C 7.7083124 4.5078587 7.9489928 4.15361 8.25 3.84375 C 8.5510063 3.5338901 8.9276516 3.3020633 9.34375 3.125 C 9.7598478 2.9479369 10.20943 2.84375 10.6875 2.84375 z M 2.59375 3.78125 C 3.19866 5.7609553 3.5887786 7.3155784 3.78125 8.40625 C 3.9737213 9.49692 4.3805141 10.482213 5.03125 11.34375 C 5.6819867 12.205289 6.5655793 12.811723 7.65625 13.1875 C 8.7002501 13.547198 9.6636013 14.118269 10.53125 14.90625 L 10.53125 15.9375 L 9.53125 15.9375 C 9.5129187 15.259267 8.9527512 14.734103 7.84375 14.3125 C 6.7347493 13.890895 5.7752967 13.194025 4.96875 12.25 C 4.162204 11.305973 3.648302 10.126451 3.4375 8.6875 C 3.226698 7.2485467 2.960362 5.5959799 2.59375 3.78125 z M 18.65625 3.78125 C 18.28964 5.59598 18.023303 7.2485465 17.8125 8.6875 C 17.601699 10.126451 17.087796 11.305973 16.28125 12.25 C 15.474704 13.194025 14.515253 13.890895 13.40625 14.3125 C 12.297248 14.734103 11.737079 15.259267 11.71875 15.9375 L 10.75 15.9375 L 10.78125 14.90625 C 11.630517 14.121199 12.552267 13.546331 13.59375 13.1875 C 14.684421 12.811723 15.568015 12.205289 16.21875 11.34375 C 16.869486 10.482213 17.276278 9.4969204 17.46875 8.40625 C 17.661221 7.315578 18.051341 5.7609552 18.65625 3.78125 z "
     id="path2866" />
</svg>
