<?xml version="1.0" encoding="UTF-8" standalone="no"?>
<svg
   xmlns:dc="http://purl.org/dc/elements/1.1/"
   xmlns:cc="http://creativecommons.org/ns#"
   xmlns:rdf="http://www.w3.org/1999/02/22-rdf-syntax-ns#"
   xmlns:svg="http://www.w3.org/2000/svg"
   xmlns="http://www.w3.org/2000/svg"
   xmlns:sodipodi="http://sodipodi.sourceforge.net/DTD/sodipodi-0.dtd"
   xmlns:inkscape="http://www.inkscape.org/namespaces/inkscape"
   width="17.02524"
   height="16.843992"
   id="svg2445"
   sodipodi:version="0.32"
   inkscape:version="0.46"
   sodipodi:docname="F177.svg"
   inkscape:output_extension="org.inkscape.output.svg.inkscape"
   version="1.0">
  <metadata
     id="metadata2452">
    <rdf:RDF>
      <cc:Work
         rdf:about="">
        <dc:format>image/svg+xml</dc:format>
        <dc:type
           rdf:resource="http://purl.org/dc/dcmitype/StillImage" />
      </cc:Work>
    </rdf:RDF>
  </metadata>
  <defs
     id="defs2450">
    <inkscape:perspective
       sodipodi:type="inkscape:persp3d"
       inkscape:vp_x="0 : 2.6400001 : 1"
       inkscape:vp_y="0 : 1000 : 0"
       inkscape:vp_z="17.5872 : 2.6400001 : 1"
       inkscape:persp3d-origin="8.7936001 : 1.7600001 : 1"
       id="perspective2454" />
  </defs>
  <sodipodi:namedview
     inkscape:window-height="712"
     inkscape:window-width="1024"
     inkscape:pageshadow="2"
     inkscape:pageopacity="0.0"
     guidetolerance="10.0"
     gridtolerance="10.0"
     objecttolerance="10.0"
     borderopacity="1.0"
     bordercolor="#666666"
     pagecolor="#ffffff"
     id="base"
     showgrid="true"
     showguides="true"
     inkscape:guide-bbox="true"
     showborder="true"
     inkscape:zoom="30.099754"
     inkscape:cx="8.2076199"
     inkscape:cy="8.4243991"
     inkscape:window-x="-4"
     inkscape:window-y="-4"
     inkscape:current-layer="svg2445" />
  <path
     style="fill:#000000;stroke:none"
     d="M 0.90625,0.00024175589 C 0.86514535,-0.002683644 0.84069452,0.020497656 0.8125,0.093991756 C 0.89738853,1.351956 0.69824387,2.5835242 0.25,3.7189918 C -0.042436829,4.6356022 -0.064665946,5.6703011 0.25,6.6564918 C 0.59432883,7.9080459 1.3834299,9.091601 2.5,10.000242 C 1.6624947,10.561541 0.81540657,11.104364 0,11.687742 L 1.15625,13.281492 C 2.1217232,12.64458 3.1332483,11.959906 4.09375,11.250242 C 5.0542517,11.959906 6.0657768,12.64458 7.03125,13.281492 L 8.1875,11.687742 C 7.3720934,11.104364 6.5250053,10.561541 5.6875,10.000242 C 6.8040701,9.0916011 7.5931712,7.908046 7.9375,6.6564918 C 8.252166,5.6703011 8.2299368,4.6356022 7.9375,3.7189918 C 7.4892561,2.5835242 7.2901115,1.351956 7.375,0.093991756 C 7.3468055,0.020497656 7.3223547,-0.0026836441 7.28125,0.00024175589 C 7.1579361,0.0090180556 7.0119202,0.29688345 6.96875,0.40649176 C 6.7665758,0.80437536 6.6477839,1.2092384 6.59375,1.6252418 C 6.3590048,2.8305076 6.8633668,3.9413104 6.8125,5.1252418 C 6.7317657,6.1092147 6.0643644,7.0120337 5.3125,7.7814918 C 4.9318794,8.1711899 4.5233093,8.5360201 4.09375,8.8752418 C 3.6641907,8.5360201 3.2556206,8.1711899 2.875,7.7814918 C 2.1231356,7.0120337 1.4557343,6.1092147 1.375,5.1252418 C 1.3241332,3.9413104 1.8284952,2.8305076 1.59375,1.6252418 C 1.5397161,1.2092384 1.4209242,0.80437536 1.21875,0.40649176 C 1.1755798,0.29688345 1.0295639,0.0090180556 0.90625,0.00024175589 z M 7.03125,13.281492 L 1.15625,13.281492 L 0,13.281492 L 0,16.843992 L 17.01625,16.843992 L 17.01625,13.281492 L 15.86,13.281492 L 10.01625,13.281492 L 7.03125,13.281492 z M 10.01625,13.281492 C 10.975031,12.648995 11.967893,11.954568 12.9225,11.250242 C 13.883002,11.959906 14.894527,12.64458 15.86,13.281492 L 17.01625,11.687742 C 16.200844,11.104364 15.353755,10.561541 14.51625,10.000242 C 15.6426,9.0896992 16.451289,7.9148893 16.7975,6.6564918 C 17.112166,5.670301 17.089937,4.6356022 16.7975,3.7189918 C 16.349256,2.5835241 16.150112,1.351956 16.235,0.093991756 C 16.206806,0.020497653 16.182355,-0.0026836441 16.14125,0.00024175589 C 16.017936,0.0090180556 15.87192,0.29688345 15.82875,0.40649176 C 15.626576,0.80437537 15.507784,1.2092384 15.45375,1.6252418 C 15.219005,2.8305076 15.723367,3.9413104 15.6725,5.1252418 C 15.591766,6.1092146 14.924364,7.0120337 14.1725,7.7814918 C 13.791879,8.1711898 13.383309,8.5360201 12.95375,8.8752418 C 12.517026,8.5314398 12.090195,8.1771533 11.70375,7.7814918 C 10.951886,7.0120336 10.284484,6.1092147 10.20375,5.1252418 C 10.152883,3.9413103 10.657245,2.8305076 10.4225,1.6252418 C 10.368466,1.2092384 10.249674,0.80437538 10.0475,0.40649176 C 10.00433,0.29688344 9.8583138,0.0090180557 9.735,0.00024175589 C 9.6938954,-0.0026836442 9.6694445,0.020497656 9.64125,0.093991756 C 9.7261386,1.351956 9.5269939,2.5835242 9.07875,3.7189918 C 8.7863134,4.6356021 8.764084,5.6703011 9.07875,6.6564918 C 9.4249617,7.9148892 10.23365,9.0896995 11.36,10.000242 C 10.522495,10.561541 9.6754065,11.104364 8.86,11.687742 L 10.01625,13.281492 z M 1.15625,1.8439918 C 1.4512663,3.0744773 0.60305212,4.3028605 0.875,5.5314918 C 1.0837781,6.5642888 1.8149329,7.4778217 2.625,8.2814918 C 4.0277573,9.663979 5.7700873,10.716065 7.4375,11.812742 L 6.9375,12.500242 C 4.975265,11.240956 3.2329197,10.20965 1.84375,8.6877418 C 0.91710971,7.4326004 0.43410121,5.9402169 0.59375,4.5627418 C 0.75263784,3.6442367 1.1376,2.798122 1.15625,1.8439918 z M 7.03125,1.8439918 C 7.0499,2.798122 7.4348621,3.6442367 7.59375,4.5627418 C 7.7533988,5.9402169 7.2703904,7.4325996 6.34375,8.6877418 C 6.0066368,9.0570669 5.6570519,9.3974593 5.28125,9.7189918 C 5.0288974,9.5453005 4.7758226,9.3694858 4.53125,9.1877418 C 4.892338,8.893537 5.2329868,8.6062435 5.5625,8.2814918 C 6.3725671,7.4778217 7.103722,6.5642889 7.3125,5.5314918 C 7.5844479,4.3028605 6.7362337,3.0744773 7.03125,1.8439918 z M 9.985,1.8439918 C 10.280016,3.0744773 9.4318021,4.3028605 9.70375,5.5314918 C 9.9125283,6.5642888 10.643683,7.4778217 11.45375,8.2814918 C 12.856507,9.6639795 14.598837,10.716065 16.26625,11.812742 L 15.76625,12.500242 C 13.804015,11.240956 12.06167,10.209649 10.6725,8.6877418 C 9.7458599,7.4326 9.2628512,5.9402169 9.4225,4.5627418 C 9.581388,3.6442366 9.96635,2.798122 9.985,1.8439918 z M 15.89125,1.8439918 C 15.9099,2.798122 16.294862,3.6442367 16.45375,4.5627418 C 16.613399,5.9402168 16.13039,7.4325996 15.20375,8.6877418 C 14.856458,9.0682192 14.498302,9.4201556 14.11,9.7502418 C 13.864493,9.5814601 13.629517,9.3952684 13.39125,9.2189918 C 13.758191,8.9207446 14.088014,8.6111448 14.4225,8.2814918 C 15.232567,7.4778221 15.963722,6.5642889 16.1725,5.5314918 C 16.444448,4.3028604 15.596234,3.0744773 15.89125,1.8439918 z M 2.9375,10.343992 C 3.1768582,10.539877 3.4046033,10.745707 3.65625,10.937742 C 2.9016727,11.455701 2.1004274,11.954471 1.25,12.500242 L 0.75,11.812742 C 1.4824919,11.330973 2.2125844,10.843046 2.9375,10.343992 z M 11.7975,10.375242 C 12.032548,10.566895 12.269562,10.749797 12.51625,10.937742 C 11.761673,11.455701 10.960427,11.954471 10.11,12.500242 L 9.61,11.812742 C 10.337694,11.334129 11.077063,10.870723 11.7975,10.375242 z M 0.78125,14.125242 L 16.26625,14.125242 L 16.26625,16.093992 L 0.78125,16.062742 L 0.78125,14.125242 z"
     id="path2982"
     sodipodi:nodetypes="ccccccccccccccssccscsccsccccccccccccccccccssccscsccssccccccccsccccccccccsccccsccccccccccsccccccccccccccccc" />
</svg>
