<?xml version="1.0" encoding="UTF-8" standalone="no"?>
<svg
   xmlns:dc="http://purl.org/dc/elements/1.1/"
   xmlns:cc="http://creativecommons.org/ns#"
   xmlns:rdf="http://www.w3.org/1999/02/22-rdf-syntax-ns#"
   xmlns:svg="http://www.w3.org/2000/svg"
   xmlns="http://www.w3.org/2000/svg"
   xmlns:sodipodi="http://sodipodi.sourceforge.net/DTD/sodipodi-0.dtd"
   xmlns:inkscape="http://www.inkscape.org/namespaces/inkscape"
   width="6.406846"
   height="17.977417"
   id="svg3697"
   sodipodi:version="0.32"
   inkscape:version="0.46"
   sodipodi:docname="F179.svg"
   inkscape:output_extension="org.inkscape.output.svg.inkscape">
  <metadata
     id="metadata3704">
    <rdf:RDF>
      <cc:Work
         rdf:about="">
        <dc:format>image/svg+xml</dc:format>
        <dc:type
           rdf:resource="http://purl.org/dc/dcmitype/StillImage" />
      </cc:Work>
    </rdf:RDF>
  </metadata>
  <defs
     id="defs3702">
    <inkscape:perspective
       sodipodi:type="inkscape:persp3d"
       inkscape:vp_x="0 : 8.9887085 : 1"
       inkscape:vp_y="0 : 1000 : 0"
       inkscape:vp_z="6.406846 : 8.9887085 : 1"
       inkscape:persp3d-origin="3.203423 : 5.9924723 : 1"
       id="perspective3706" />
  </defs>
  <sodipodi:namedview
     inkscape:window-height="667"
     inkscape:window-width="640"
     inkscape:pageshadow="2"
     inkscape:pageopacity="0.0"
     guidetolerance="10.0"
     gridtolerance="10.0"
     objecttolerance="10.0"
     borderopacity="1.0"
     bordercolor="#666666"
     pagecolor="#ffffff"
     id="base"
     showgrid="false"
     inkscape:zoom="25.698909"
     inkscape:cx="3.203423"
     inkscape:cy="8.9887085"
     inkscape:window-x="88"
     inkscape:window-y="67"
     inkscape:current-layer="svg3697" />
  <path
     style="fill:#000000; stroke:none"
     d="M 0 0 L 0 1.0625 L 1.5 1.0625 L 2.03125 6.09375 L 0.0625 6.09375 L 0.0625 8.09375 L 2.25 8.09375 L 2.59375 11.34375 C 2.6575 11.802748 2.61475 12.01275 2.5 12 C 1.722254 11.655751 1.0794974 11.758502 0.53125 12.28125 C 0.18700133 12.701998 0.18000202 13.496005 0.5625 14.65625 C 0.94499867 15.816495 1.3183767 16.658377 1.65625 17.1875 C 1.9941233 17.716623 2.5175033 17.96875 3.21875 17.96875 C 4.034746 17.96875 4.588126 17.716623 4.875 17.1875 C 5.161874 16.658377 5.4982521 15.81012 5.90625 14.65625 C 6.314248 13.50238 6.3142481 12.714748 5.90625 12.28125 C 5.2177533 11.771253 4.5322474 11.687002 3.84375 12.03125 C 3.7800007 12.03125 3.7800008 11.802748 3.84375 11.34375 L 4.1875 8.09375 L 6.4375 8.09375 L 6.4375 6.125 L 4.375 6.125 L 4.90625 1.0625 L 6.40625 1.0625 L 6.40625 0 L 0 0 z M 2.4375 1.0625 L 4.03125 1.0625 L 3.71875 6.125 L 2.71875 6.09375 L 2.4375 1.0625 z M 0.625 6.59375 L 5.84375 6.59375 L 5.84375 7.5625 L 0.625 7.59375 L 0.625 6.59375 z M 2.84375 8.09375 L 3.625 8.09375 L 3.375 12.03125 L 3.0625 12.03125 L 2.84375 8.09375 z M 2.09375 12.5625 C 2.3280301 12.54736 2.5938765 12.543375 2.90625 12.5625 L 2.90625 17 C 2.919 17.178498 2.8404986 17.28125 2.6875 17.28125 C 2.4452507 17.28125 2.120998 16.817245 1.6875 15.9375 C 1.254002 15.057754 1.03125 14.137995 1.03125 13.15625 C 1.03125 12.802439 1.3909096 12.607921 2.09375 12.5625 z M 3.5 12.5625 C 4.762244 12.486 5.4062498 12.703002 5.40625 13.1875 C 5.40625 14.156495 5.1834979 15.057754 4.75 15.9375 C 4.316502 16.817245 3.9609987 17.28125 3.71875 17.28125 C 3.5657507 17.28125 3.4999999 17.178498 3.5 17 L 3.5 12.5625 z "
     id="path3699" />
</svg>
