<?xml version="1.0" encoding="UTF-8" standalone="no"?>
<svg
   xmlns:dc="http://purl.org/dc/elements/1.1/"
   xmlns:cc="http://creativecommons.org/ns#"
   xmlns:rdf="http://www.w3.org/1999/02/22-rdf-syntax-ns#"
   xmlns:svg="http://www.w3.org/2000/svg"
   xmlns="http://www.w3.org/2000/svg"
   xmlns:sodipodi="http://sodipodi.sourceforge.net/DTD/sodipodi-0.dtd"
   xmlns:inkscape="http://www.inkscape.org/namespaces/inkscape"
   width="12.770792"
   height="18.35018"
   id="svg2440"
   sodipodi:version="0.32"
   inkscape:version="0.46"
   sodipodi:docname="F184.svg"
   inkscape:output_extension="org.inkscape.output.svg.inkscape"
   version="1.0">
  <metadata
     id="metadata2447">
    <rdf:RDF>
      <cc:Work
         rdf:about="">
        <dc:format>image/svg+xml</dc:format>
        <dc:type
           rdf:resource="http://purl.org/dc/dcmitype/StillImage" />
      </cc:Work>
    </rdf:RDF>
  </metadata>
  <defs
     id="defs2445">
    <inkscape:perspective
       sodipodi:type="inkscape:persp3d"
       inkscape:vp_x="0 : 6 : 1"
       inkscape:vp_y="0 : 1000 : 0"
       inkscape:vp_z="23.930408 : 6 : 1"
       inkscape:persp3d-origin="11.965204 : 4 : 1"
       id="perspective2449" />
  </defs>
  <sodipodi:namedview
     inkscape:window-height="712"
     inkscape:window-width="1024"
     inkscape:pageshadow="2"
     inkscape:pageopacity="0.0"
     guidetolerance="10.0"
     gridtolerance="10.0"
     objecttolerance="10.0"
     borderopacity="1.0"
     bordercolor="#666666"
     pagecolor="#ffffff"
     id="base"
     showgrid="true"
     inkscape:zoom="27.629158"
     inkscape:cx="6.3853961"
     inkscape:cy="9.1750902"
     inkscape:window-x="0"
     inkscape:window-y="22"
     inkscape:current-layer="svg2440"
     showguides="true"
     inkscape:guide-bbox="true" />
  <path
     style="fill:#000000;stroke:none"
     d="M 0.46875,0.00017891209 C 0.17468739,0.013766112 0.1779882,0.35205378 0.3125,0.56892891 C 0.62591709,1.4374694 1.103732,1.6932675 1.625,1.8814289 C 1.8902816,1.9771946 2.1573392,2.0064289 2.4375,2.0064289 C 2.6900206,2.0064289 2.9437743,1.9761906 3.1875,1.9439289 C 3.3755648,1.9841253 3.5619357,2.0287335 3.75,2.0689289 C 3.805299,2.071579 3.8833904,2.0689289 3.9375,2.0689289 C 4.4376546,2.068929 4.8814428,1.971753 5.375,1.9126789 C 5.4769501,1.9634725 5.5371321,2.0631475 5.625,2.1314289 C 5.5596258,2.1602975 5.502582,2.1779726 5.46875,2.2251789 C 5.3816578,2.3467007 5.171115,2.4584549 4.875,2.5689289 C 4.6775898,2.7512116 4.490272,2.9033707 4.28125,2.9751789 C 4.1767388,2.9751793 3.866305,3.1895333 3.34375,3.6314289 C 2.9837678,3.8468531 2.8125,4.1235539 2.8125,4.4439289 C 2.8821745,4.5433561 2.9084691,4.5689289 2.9375,4.5689289 L 2.9375,4.6626789 C 2.9374998,4.8504851 3.084691,4.9439289 3.375,4.9439289 L 3.15625,5.8501789 L 3.84375,5.8501789 L 3.90625,4.9439289 L 4.375,4.9126789 C 4.5724098,4.9623921 4.768436,4.9807019 4.96875,4.9751789 C 5.1690618,4.9696551 5.378922,5.0447889 5.59375,5.1939289 C 5.4485958,5.6137299 5.385761,6.0861689 5.28125,6.7876789 L 6.67,6.7876789 L 6.67,10.506429 L 4.21875,10.568929 C 3.897349,10.449952 3.618604,10.357082 3.40625,10.287679 L 2.125,7.3814289 L 0.8125,10.318929 C 0.72067078,10.274312 0.6007538,10.19437 0.46875,10.100179 L 0,10.600179 C 0.45914461,10.902578 1.0443817,11.124087 1.71875,11.287679 C 2.3931184,11.451272 3.2673142,11.428429 4.375,11.225179 L 6.67,11.256429 L 6.67,15.443929 C 5.931195,15.785968 5.625,16.334012 5.625,17.100179 L 5.625,18.350179 L 6.34375,18.350179 L 6.34375,17.131429 C 6.34375,16.502076 6.605101,16.19393 7.125,16.193929 C 7.631218,16.193929 7.875,16.502075 7.875,17.131429 L 7.875,18.350179 L 8.59375,18.350179 L 8.59375,17.100179 C 8.59375,16.32033 8.279782,15.772286 7.48625,15.443929 L 7.48625,11.256429 L 12.71875,11.318929 L 12.71875,8.4439289 C 12.713011,8.0572545 12.470624,7.8789499 12,7.8814289 C 11.529378,7.8839075 11.278698,7.9708479 11.25,8.1939289 C 11.060603,9.6811335 10.843093,10.443929 10.625,10.443929 L 7.48625,10.506429 L 7.48625,6.7876789 L 9.21875,6.7876789 L 8.75,4.2876789 C 8.7814606,2.9557708 8.2736086,2.4281179 7.375,2.1001789 C 7.4607505,2.0343683 7.5572094,1.9620227 7.65625,1.9126789 C 8.1498068,1.9717531 8.593595,2.0689289 9.09375,2.0689289 C 9.147858,2.068929 9.225951,2.0715789 9.28125,2.0689289 C 9.4693138,2.0287336 9.655685,1.9841252 9.84375,1.9439289 C 10.087475,1.9761907 10.30998,2.0064288 10.5625,2.0064289 C 10.842661,2.006429 11.140969,1.9771945 11.40625,1.8814289 C 11.927519,1.6932677 12.374083,1.4374694 12.6875,0.56892891 C 12.841228,0.3210716 12.806618,-0.12147289 12.375,0.031428912 C 11.899696,0.78009873 11.425816,1.0278534 10.84375,1.0314289 C 10.198621,0.91052061 9.5528298,0.77128394 8.90625,0.65642891 C 8.5689602,0.59825799 8.1794375,0.56267891 7.8125,0.56267891 C 7.1692942,0.56267892 6.870209,0.80190564 6.5,1.1251789 C 6.129791,0.80190563 5.8619557,0.56267891 5.21875,0.56267891 C 4.8518121,0.56267891 4.4622891,0.598258 4.125,0.65642891 C 3.4784199,0.77128391 2.8326294,0.91052061 2.1875,1.0314289 C 1.6054334,1.0278534 1.1315536,0.78009879 0.65625,0.031428912 C 0.60229767,0.012316012 0.510759,-0.0017620879 0.46875,0.00017891209 z M 6.65625,2.3189289 C 6.8446238,2.3336727 7.026353,2.3857627 7.1875,2.4126789 C 8.1576048,2.7651609 8.405945,3.3510921 8.34375,4.2876789 L 8.71875,6.3814289 L 5.78125,6.3814289 C 5.9049398,5.6773579 5.930836,5.3204629 6.09375,5.0376789 C 6.2592258,4.7504461 6.381657,4.5158899 6.46875,4.3501789 L 6.3125,4.2251789 C 6.2428268,4.3356541 6.03587,4.5665789 5.6875,4.8814289 C 5.5423448,4.7985741 5.442456,4.7270709 5.34375,4.6939289 C 4.8850628,4.6939291 4.543379,4.6554159 4.375,4.6001789 C 3.6724528,4.6775111 3.3357247,4.7123919 3.3125,4.6626789 L 3.3125,4.6314289 C 3.5853911,4.5706671 3.794565,4.5523579 3.96875,4.5689289 C 4.1429351,4.5854991 4.25,4.5671889 4.25,4.5064289 C 4.2674178,4.3572891 4.171966,4.3059899 3.96875,4.3501789 C 3.8758511,4.4109401 3.619376,4.4439289 3.21875,4.4439289 C 3.1548816,4.4439291 3.1279033,4.4164639 3.125,4.3501789 C 3.1220973,4.2838951 3.1709325,4.1757719 3.28125,4.0376789 C 3.4902728,4.1260591 3.607582,4.0068869 3.625,3.7251789 L 3.96875,3.4751789 C 4.0674551,3.3867992 4.213962,3.2850695 4.4375,3.1939289 C 4.6610368,3.102788 4.819157,3.037832 4.90625,2.9439289 C 4.8830248,3.0323079 4.918714,3.0963947 5,3.1626789 L 4.59375,3.3501789 C 4.2627978,3.5048428 4.099556,3.6129657 4.09375,3.6626789 L 4.15625,3.7251789 L 4.6875,3.4751789 C 4.9778088,3.3370863 5.123631,3.2564289 5.1875,3.2564289 C 5.4197458,3.2564287 5.5625,3.1942347 5.5625,3.0064289 C 5.5624998,2.8904314 5.435797,2.7840472 5.25,2.7564289 C 5.3719298,2.7564286 5.485653,2.67214 5.625,2.5064289 C 5.6946748,2.3904312 5.869528,2.3501789 6.125,2.3501789 C 6.2708758,2.3263758 6.467876,2.3041852 6.65625,2.3189289 z M 11.96875,8.1939289 C 12.163887,8.1939285 12.28125,8.2704209 12.28125,8.4439289 L 12.28125,10.443929 L 11.40625,10.443929 L 11.65625,8.3501789 C 11.667728,8.2411175 11.773614,8.1939289 11.96875,8.1939289 z M 2.125,8.4126789 L 2.9375,10.225179 L 2.40625,10.225179 L 2.125,9.5689289 L 1.8125,10.225179 L 1.65625,10.225179 C 1.65625,10.478004 1.8208169,10.631429 2.125,10.631429 L 2.90625,10.631429 C 3.1300831,10.656215 3.144115,10.675606 2.9375,10.725179 C 2.6964492,10.779709 2.417388,10.788651 2.15625,10.756429 C 1.8951116,10.724206 1.5835123,10.650191 1.1875,10.506429 L 2.125,8.4126789 z"
     id="path2480"
     sodipodi:nodetypes="ccsscsscsscscccccccccsccccccccccscccccccsccccccccsscccccccsscsscccsscssccccccccscccccccssssscccsscccccssssscccccccccccccccsscc" />
</svg>
