<?xml version="1.0" encoding="UTF-8" standalone="no"?>
<svg
   xmlns:dc="http://purl.org/dc/elements/1.1/"
   xmlns:cc="http://creativecommons.org/ns#"
   xmlns:rdf="http://www.w3.org/1999/02/22-rdf-syntax-ns#"
   xmlns:svg="http://www.w3.org/2000/svg"
   xmlns="http://www.w3.org/2000/svg"
   xmlns:sodipodi="http://sodipodi.sourceforge.net/DTD/sodipodi-0.dtd"
   xmlns:inkscape="http://www.inkscape.org/namespaces/inkscape"
   width="24.122807"
   height="10.619772"
   id="svg2732"
   sodipodi:version="0.32"
   inkscape:version="0.46"
   sodipodi:docname="F18B.svg"
   inkscape:output_extension="org.inkscape.output.svg.inkscape">
  <metadata
     id="metadata2739">
    <rdf:RDF>
      <cc:Work
         rdf:about="">
        <dc:format>image/svg+xml</dc:format>
        <dc:type
           rdf:resource="http://purl.org/dc/dcmitype/StillImage" />
      </cc:Work>
    </rdf:RDF>
  </metadata>
  <defs
     id="defs2737">
    <inkscape:perspective
       sodipodi:type="inkscape:persp3d"
       inkscape:vp_x="0 : 5.309886 : 1"
       inkscape:vp_y="0 : 1000 : 0"
       inkscape:vp_z="24.122807 : 5.309886 : 1"
       inkscape:persp3d-origin="12.061403 : 3.539924 : 1"
       id="perspective2741" />
  </defs>
  <sodipodi:namedview
     inkscape:window-height="667"
     inkscape:window-width="640"
     inkscape:pageshadow="2"
     inkscape:pageopacity="0.0"
     guidetolerance="10.0"
     gridtolerance="10.0"
     objecttolerance="10.0"
     borderopacity="1.0"
     bordercolor="#666666"
     pagecolor="#ffffff"
     id="base"
     showgrid="false"
     inkscape:zoom="22.551273"
     inkscape:cx="12.061403"
     inkscape:cy="5.309886"
     inkscape:window-x="88"
     inkscape:window-y="67"
     inkscape:current-layer="svg2732" />
  <path
     style="fill:#000000;stroke:none"
     d="M 23.167217,9.62857 C 23.1672,9.628585 23.167181,9.6286 23.167164,9.628615 C 23.167181,9.6286 23.1672,9.628585 23.167217,9.62857 z M 1.99875,0.749966 C 2.0197,0.749966 2.040594,0.750405 2.0614,0.751284 C 2.577741,0.773128 3.096468,1.062929 3.106311,1.851464 C 3.241066,3.518409 4.036173,4.612259 5.304067,5.282131 C 6.510776,5.919661 8.157134,6.173593 10.075016,6.204366 C 10.212245,6.206571 10.350941,6.207641 10.491038,6.207641 C 14.114344,6.207641 18.675421,5.491883 23.04364,5.176231 L 23.043642,5.176231 C 23.085865,5.283419 23.126854,5.437094 23.164915,5.622078 C 23.260189,6.085205 23.330173,6.721081 23.359091,7.360211 C 23.387827,7.995305 23.376108,8.633199 23.307985,9.103355 C 23.277618,9.312994 23.238083,9.481812 23.187115,9.589358 C 23.186726,9.590181 23.186342,9.590992 23.185966,9.59179 L 23.185966,9.59179 C 20.295897,9.725274 17.232206,9.734743 14.344922,9.870218 C 13.64332,9.862299 13.000956,9.860323 12.409594,9.860323 C 11.820414,9.860323 11.28186,9.862285 10.785789,9.862285 C 9.39173,9.862285 8.333153,9.846793 7.429288,9.728745 C 5.941065,9.534403 4.898164,9.058988 3.379215,7.869807 L 3.379215,7.869807 C 1.557298,5.859856 0.491491,4.171328 0.803916,1.506198 L 0.803916,1.506198 C 0.937304,1.013607 1.485083,0.749966 1.99875,0.749966 z M 2.000303,0 C 1.136643,0 0.276458,0.505773 0.070295,1.347765 L 0.064903,1.369571 L 0.062153,1.392445 C -0.286939,4.299054 0.85791,6.209428 2.845364,8.397571 L 2.866275,8.420643 L 2.891217,8.440231 C 4.529706,9.726972 5.701738,10.259445 7.331774,10.472378 C 8.283465,10.596683 9.400355,10.610877 10.886536,10.610877 C 11.326431,10.610877 11.79868,10.609633 12.308575,10.609633 C 12.932382,10.609633 13.612534,10.611495 14.358722,10.619772 C 17.285637,10.483059 20.369368,10.474313 23.275103,10.338456 L 23.275103,10.338456 C 23.278234,10.338509 23.281363,10.338535 23.284487,10.338535 C 23.420742,10.338535 23.550894,10.288324 23.657913,10.195769 C 23.739418,10.125297 23.808735,10.028848 23.864613,9.911065 C 23.947765,9.735742 24.009052,9.495016 24.050203,9.211126 C 24.125113,8.694228 24.139185,8.009137 24.108347,7.326858 C 24.07769,6.648615 24.002739,5.972729 23.899591,5.47125 C 23.844193,5.201868 23.779297,4.977795 23.70631,4.818577 C 23.656313,4.709488 23.59754,4.620861 23.531277,4.556837 C 23.434721,4.463514 23.314341,4.413494 23.19132,4.413494 C 23.168581,4.413494 23.14575,4.415203 23.122965,4.418664 L 23.122963,4.418664 C 18.733892,4.727881 14.138516,5.457698 10.49846,5.457698 C 10.359737,5.457698 10.222404,5.456638 10.086521,5.454454 C 8.286941,5.425496 6.756674,5.201306 5.654567,4.61907 C 4.613644,4.069177 3.967739,3.201618 3.855044,1.816408 C 3.84151,0.65435 3.007858,0.040309 2.092454,0.001928 C 2.061752,0.00064 2.031025,0 2.000303,0 z"
     id="path2734"
     sodipodi:insensitive="true" />
</svg>
