<?xml version="1.0" encoding="UTF-8" standalone="no"?>
<svg
   xmlns:dc="http://purl.org/dc/elements/1.1/"
   xmlns:cc="http://creativecommons.org/ns#"
   xmlns:rdf="http://www.w3.org/1999/02/22-rdf-syntax-ns#"
   xmlns:svg="http://www.w3.org/2000/svg"
   xmlns="http://www.w3.org/2000/svg"
   xmlns:sodipodi="http://sodipodi.sourceforge.net/DTD/sodipodi-0.dtd"
   xmlns:inkscape="http://www.inkscape.org/namespaces/inkscape"
   width="7.196631"
   height="20.9034"
   id="svg2467"
   sodipodi:version="0.32"
   inkscape:version="0.46"
   sodipodi:docname="F25A.svg"
   inkscape:output_extension="org.inkscape.output.svg.inkscape"
   version="1.0">
  <metadata
     id="metadata2474">
    <rdf:RDF>
      <cc:Work
         rdf:about="">
        <dc:format>image/svg+xml</dc:format>
        <dc:type
           rdf:resource="http://purl.org/dc/dcmitype/StillImage" />
      </cc:Work>
    </rdf:RDF>
  </metadata>
  <defs
     id="defs2472">
    <inkscape:perspective
       sodipodi:type="inkscape:persp3d"
       inkscape:vp_x="0 : 8.9887085 : 1"
       inkscape:vp_y="0 : 1000 : 0"
       inkscape:vp_z="5.4854822 : 8.9887085 : 1"
       inkscape:persp3d-origin="2.7427411 : 5.9924723 : 1"
       id="perspective2476" />
  </defs>
  <sodipodi:namedview
     inkscape:window-height="712"
     inkscape:window-width="1024"
     inkscape:pageshadow="2"
     inkscape:pageopacity="0.0"
     guidetolerance="10.0"
     gridtolerance="10.0"
     objecttolerance="10.0"
     borderopacity="1.0"
     bordercolor="#666666"
     pagecolor="#ffffff"
     id="base"
     showgrid="false"
     inkscape:zoom="24.724732"
     inkscape:cx="3.3183499"
     inkscape:cy="12.995946"
     inkscape:window-x="-4"
     inkscape:window-y="-4"
     inkscape:current-layer="svg2467" />
  <path
     style="fill:#000000;stroke:none"
     d="M 5.1462317,5.2997205 C 5.430207,7.1455598 5.448279,8.5507997 5.0545857,10.874234 C 4.660893,13.197668 4.8192039,15.01675 5.4516939,16.720601 C 5.6065899,17.146564 5.7368932,17.767652 5.2005533,17.805624 C 4.5728226,17.526031 4.4509499,18.005226 4.2707089,18.328772 C 4.563761,19.48034 4.315629,20.358766 3.3627173,20.808234 C 1.919655,20.997335 0.97619215,21.03569 0,19.636715 C 0.24525133,18.771881 0.77882269,18.37312 1.6178407,17.521194 C 2.50849,17.043599 2.7338147,15.599397 2.7338147,13.275964 C 2.7338147,12.398221 2.7569684,10.516038 2.3632757,7.979622 C 0.27253619,-3.969847 11.696278,-0.44661167 5.1462317,5.2997205 z M 4.8319237,16.973248 C 4.380145,15.527556 4.1703907,14.083679 4.2026607,13.2253 C 4.23493,12.366919 4.3381937,11.571264 4.5124517,10.254651 C 4.686709,8.9380383 4.5547235,7.1155383 4.3352882,4.9599083 C 8.0797265,2.3432203 5.6249336,-1.7339116 3.2398375,2.9512027 C 2.7562156,3.689536 2.8699134,6.3983967 3.1280727,8.25069 C 3.386232,10.102983 3.3404894,11.771338 3.4308447,13.255754 C 3.5212007,14.74017 3.4443177,16.114868 2.7601957,17.379849 C 3.4055937,17.599284 3.7883321,17.817911 3.8813051,17.418573 C 3.9897994,16.952568 4.3520698,16.78467 4.8319237,16.973248 z M 3.5733967,18.560928 C 3.160342,18.457664 2.6569314,18.3544 2.0631647,18.251137 C 1.5468467,18.586744 1.1725157,19.025614 0.94017169,19.567749 C 1.0563435,19.619381 1.5077409,19.914212 1.6476883,19.806106 C 2.1083164,19.450284 2.5671202,18.232199 2.6809059,18.38981 C 2.8909898,18.680809 2.1509527,19.330179 2.3521034,19.921438 C 3.6686982,20.043089 3.5889935,19.680733 3.5733967,18.560928 z"
     id="path2469"
     sodipodi:nodetypes="csscccccscccssccsscsccccsscc" />
</svg>
