<?xml version="1.0" encoding ="US-ASCII" standalone="yes"?>
<svg width="8.088149" height="17.977417">
<path style="fill:#000000; stroke:none" d=" M 7.614299 17.759668  Q 6.264721 18.385561 5.159631 17.221794  Q 4.054542 16.058027 3.575344 14.747566  Q 3.096145 13.437106 3.086366 11.735464  Q 3.076586 10.033822 3.086366 8.76248  Q 3.096145 7.491138 2.744081 6.767451  Q 2.33334 6.963042 1.590094 7.549815  Q 1.042439 8.019234 0.455666 8.488652  Q -0.052871 8.488652 0.005807 7.88232  Q 0.357871 6.122001 0.37743 4.283444  Q 0.396989 2.62092 0.005807 1.056192  Q 1.159794 0.156473 3.6438 0  Q 6.147366 0.156473 7.301353 1.056192  Q 6.910172 2.62092 6.92973 4.303003  Q 6.92973 6.122001 7.301353 7.901879  Q 7.360031 8.488652 6.851494 8.488652  Q 6.225603 8.019234 5.717066 7.549815  Q 4.915143 6.982601 4.406606 6.767451  Q 4.191455 7.491138 4.465283 9.202559  Q 4.73911 10.913981 5.228088 12.244001  Q 5.717066 13.57402 7.223117 15.187647  Q 8.729168 16.801273 7.614299 17.759668  Z  M 6.264721 1.486492  Q 5.325884 0.899719 3.6438 0.899719  Q 1.961717 0.899719 1.042439 1.466933  Q 1.198912 2.699157 1.198912 4.16609  Q 1.081558 5.848173 1.02288 7.080397  Q 2.157308 6.395828 3.6438 5.007132  Q 5.149852 6.395828 6.28428 7.080397  Q 6.225603 5.828614 6.108248 4.16609  Q 6.108248 2.699157 6.264721 1.486492  Z  M 7.203558 16.449209  Q 5.697507 14.864922 4.905363 13.192617  Q 4.113219 11.520314 3.682919 7.706288  Q 3.487328 12.791656 4.53374 14.845362  Q 5.580152 16.899069 6.577667 17.0751  Q 7.536063 17.329369 7.203558 16.449209  Z "/></svg>
