<?xml version="1.0" encoding="UTF-8" standalone="no"?>
<svg
   xmlns:dc="http://purl.org/dc/elements/1.1/"
   xmlns:cc="http://creativecommons.org/ns#"
   xmlns:rdf="http://www.w3.org/1999/02/22-rdf-syntax-ns#"
   xmlns:svg="http://www.w3.org/2000/svg"
   xmlns="http://www.w3.org/2000/svg"
   xmlns:sodipodi="http://sodipodi.sourceforge.net/DTD/sodipodi-0.dtd"
   xmlns:inkscape="http://www.inkscape.org/namespaces/inkscape"
   width="20.70026"
   height="17.977583"
   id="svg2509"
   sodipodi:version="0.32"
   inkscape:version="0.46"
   sodipodi:docname="F2A.svg"
   inkscape:output_extension="org.inkscape.output.svg.inkscape">
  <metadata
     id="metadata2516">
    <rdf:RDF>
      <cc:Work
         rdf:about="">
        <dc:format>image/svg+xml</dc:format>
        <dc:type
           rdf:resource="http://purl.org/dc/dcmitype/StillImage" />
      </cc:Work>
    </rdf:RDF>
  </metadata>
  <defs
     id="defs2514">
    <inkscape:perspective
       sodipodi:type="inkscape:persp3d"
       inkscape:vp_x="0 : 8.9887915 : 1"
       inkscape:vp_y="0 : 1000 : 0"
       inkscape:vp_z="20.70026 : 8.9887915 : 1"
       inkscape:persp3d-origin="10.35013 : 5.9925276 : 1"
       id="perspective2518" />
  </defs>
  <sodipodi:namedview
     inkscape:window-height="712"
     inkscape:window-width="1024"
     inkscape:pageshadow="2"
     inkscape:pageopacity="0.0"
     guidetolerance="10.0"
     gridtolerance="10.0"
     objecttolerance="10.0"
     borderopacity="1.0"
     bordercolor="#666666"
     pagecolor="#ffffff"
     id="base"
     showgrid="false"
     inkscape:zoom="46.422887"
     inkscape:cx="10.338784"
     inkscape:cy="10.053082"
     inkscape:window-x="-4"
     inkscape:window-y="-4"
     inkscape:current-layer="svg2509" />
  <path
     style="fill:#000000; stroke:none"
     d="M 4.1332601,-3.8584798 C 2.9536257,-3.8206982 2.3192042,-3.3719577 2.35375,-2.65625 C 2.3741,-2.2281084 3.0577476,-1.7040459 3.9375,-1.84375 C 2.6561756,-1.1198711 2.0453377,-0.011114235 2.1819849,1.0689698 C 2.3186321,2.1490537 2.6780275,3.0406132 2.725,4.28125 C 2.7719724,5.5218866 3.0252673,6.4641261 3.44375,6.83875 C 3.8622322,7.2133735 4.7024361,7.4525232 5.71875,7.58875 C 6.7350645,7.7249766 7.6900149,7.5704086 8.53125,7.08875 C 8.9069459,6.8736408 9.1289176,6.7498281 9.4569178,6.5570377 C 9.3845407,6.7386143 9.3416428,6.7447343 9.25,6.9375 C 8.5503407,7.1305093 8.0493928,7.5147216 7.6875,8.09375 C 6.9878407,8.2143807 6.5438828,8.4961051 6.375,8.90625 C 5.265196,9.3163947 4.2342339,9.1755315 3.28125,8.5 C 2.328266,7.8244667 1.648082,7.0226081 1.25,6.09375 C 0.851918,5.1648927 0.44139533,4.8212388 0.03125,5.0625 C -0.11350667,5.6415287 0.12271932,6.7585464 0.75,8.375 C 1.37728,9.991454 3.2029773,10.929236 6.21875,11.21875 L 7.125,13.53125 L 8.96875,15.65625 C 9.5719047,16.959064 9.9632403,17.684746 10.15625,17.78125 C 10.325133,18.143143 11.012441,18.016528 12.21875,17.4375 C 13.063166,17.075607 13.492876,16.514914 13.46875,15.71875 L 13.4375,15.625 C 14.643809,14.756458 17.044447,14.305376 20.6875,14.28125 C 19.288181,10.565819 18.794357,6.7976887 19.15625,2.9375 C 16.786253,3.1800984 14.754078,3.9560702 13.0625,5.28125 C 12.546194,4.8550325 12.093497,4.593168 11.6875,4.5 C 11.635197,4.1266349 11.562516,3.7678988 11.4375,3.4375 C 11.075607,2.5207053 10.610278,1.7380326 10.03125,1.0625 C 9.452222,0.38696667 8.7577901,0.024126 7.9375,0 C 7.5032287,0.072378667 7.3623666,0.24173601 7.53125,0.53125 C 8.616928,1.375666 9.3639814,2.2920768 9.75,3.28125 C 9.9327223,3.7380554 9.9667853,4.1246745 9.90625,4.695 C 9.5219173,4.8625993 9.0835841,5.0495865 8.59375,5.32 C 7.3511139,6.0059995 6.484053,6.2243775 5.68125,5.97625 C 4.878447,5.7281222 4.6521316,5.2127555 4.99375,4.09375 C 5.3353684,2.9747445 5.7328763,2.0589409 6.18125,1.34375 C 6.6296241,0.62855953 6.7613406,-0.22866799 6.7613407,-0.82222785 C 6.623114,-2.4555392 6.004476,-3.5294328 4.1332601,-3.8584798 z M 4.03125,-3.21875 C 4.1988564,-3.2248315 4.3930493,-3.2000372 4.59375,-3.15625 C 5.638117,-2.5677189 6.1875075,-1.6513293 6.09375,-0.6875 C 6.09375,-0.11340131 5.8829621,0.56325254 5.46875,1.3125 C 5.0545377,2.0617475 4.744761,2.7945402 4.53125,3.5 C 4.3177385,4.20546 4.2187498,4.8439402 4.21875,5.4375 C 4.295614,6.0407898 4.7907521,6.3539559 5.6875,6.5388356 C 6.5842478,6.7237143 7.6028762,6.4179258 8.9138356,5.6735445 C 9.2056043,5.507874 9.5856339,5.3699732 9.8340411,5.2457534 C 9.8098176,5.3865445 9.758078,5.6684106 9.71875,5.8125 C 9.2868973,6.0630885 8.8775756,6.3809258 8.375,6.6583733 C 7.5465761,7.1157058 6.6483011,7.2015334 5.6875,7.03125 C 4.7266989,6.8609663 4.117045,6.6190106 3.84375,6.3125 C 3.5704555,6.0059901 3.4219725,5.263467 3.375,4.125 C 3.3280276,2.9865335 2.8700939,2.0450937 2.7975,1.28125 C 2.7221053,0.1540674 3.5742624,-1.3842456 5.40625,-1.6875 C 5.132955,-2.0572585 4.691582,-2.2756368 4.09375,-2.34375 C 3.6667274,-2.34375 3.0494845,-2.4216846 3.0212611,-2.6940316 C 3.0212611,-2.8983719 3.1282616,-3.0811063 3.4577364,-3.1552253 C 3.5998688,-3.1871995 3.8636436,-3.2126685 4.03125,-3.21875 z M 3.84375,-3.09375 C 3.778629,-3.09375 3.7203036,-3.081961 3.65625,-3.0625 C 3.5281433,-3.0235784 3.4318715,-2.97717 3.40625,-2.875 C 3.380629,-2.7728299 3.4442924,-2.7000371 3.59375,-2.65625 C 3.7432083,-2.6124623 3.9087718,-2.5958084 4.0625,-2.625 C 4.216228,-2.6541916 4.2897905,-2.7290428 4.28125,-2.875 C 4.2556284,-2.9625747 4.1636273,-3.0235784 4.03125,-3.0625 C 3.9650616,-3.081961 3.908871,-3.09375 3.84375,-3.09375 z M 18.0625,4.3125 C 17.748859,7.4006507 18.133072,10.312116 19.21875,13.0625 C 16.733754,13.159005 14.523844,13.705451 12.59375,14.71875 C 12.666129,15.732049 12.511019,16.331117 12.125,16.5 L 11.75,15.34375 L 11.4375,15.4375 C 11.775266,16.306043 11.708397,16.838241 11.25,17.03125 C 11.370631,16.838241 11.396942,16.628325 11.3125,16.375 C 11.228059,16.121675 11.060886,16 10.84375,16 C 10.626615,16 10.509878,16.095365 10.4375,16.3125 C 10.099733,15.419832 9.3455561,14.422304 8.1875,13.3125 C 8.3563827,12.564589 8.6808495,12.106384 9.1875,11.9375 L 10.46875,11.65625 L 10.375,11.25 L 9.1875,11.5 C 8.4878407,11.765388 8.0822574,12.209345 7.9375,12.8125 L 7.125,10.75 C 7.2697573,10.315729 7.2412619,9.8503999 7,9.34375 C 7.747912,9.078362 8.1940538,8.8158244 8.375,8.5625 C 8.5559467,8.3091747 8.8113603,8.1206307 9.125,8 C 9.5833973,8.3618927 10.122719,8.502755 10.75,8.40625 C 10.581117,9.491928 10.74335,10.665936 11.25,11.96875 C 12.552813,11.558605 13.447853,10.916794 13.90625,10 L 13.25,9.21875 L 13.8125,8.65625 L 13.5,8.4375 L 12.78125,9.125 L 13.34375,9.90625 C 12.981857,10.630035 12.414041,11.133738 11.59375,11.375 C 11.255984,10.434079 11.181991,9.6727784 11.375,9.09375 C 12.070781,8.1660415 12.744039,7.3773366 13.4375,6.71875 C 14.602469,7.6853269 15.490961,7.7726302 16.09375,7 C 16.392665,6.5523974 16.493207,6.3368262 16.34375,6.3125 C 16.194293,6.288174 15.980593,6.3540429 15.75,6.5 C 15.519408,6.6459573 15.269025,6.7069608 15,6.6875 C 14.825089,6.6748475 14.501516,6.4461444 14.09375,6.125 C 15.403838,5.0498915 16.761564,4.4256253 18.0625,4.3125 z M 11.75,4.84375 C 12.182221,4.9829167 12.789048,5.3300642 13.583872,6.0403188 C 14.454999,6.8187574 15.091417,7.156436 15.53125,6.9375 C 15.971084,6.7185642 16.045739,6.6806122 15.834681,6.9481862 C 15.619088,7.2215095 15.201662,7.3109561 14.864314,7.2623037 C 13.744066,6.7357003 12.841186,5.8051527 11.75,5.21875 C 11.751143,5.1040077 11.763044,4.9554173 11.75,4.84375 z M 11.75,5.625 C 11.92988,5.6837786 12.107937,5.8212697 12.3125,5.9375 C 12.095829,6.1413682 11.857758,6.3720908 11.65625,6.59375 C 11.71007,6.2573755 11.737451,5.9369874 11.75,5.625 z M 11.03125,12.0625 L 9.25,12.375 C 8.6468453,12.592135 8.4917359,13.064589 8.78125,13.8125 C 8.8536287,13.957257 9.1090409,13.950134 9.53125,13.78125 C 9.953458,13.612367 10.504844,13.080168 11.15625,12.1875 L 11.03125,12.0625 z M 10.625,12.375 L 10.6875,12.4375 L 9.84375,13.34375 C 9.9402547,13.198993 9.9210679,13.048822 9.8125,12.84375 C 9.7310745,12.689945 9.6283425,12.617796 9.46875,12.625 C 9.7432251,12.537251 10.083627,12.433526 10.625,12.375 z M 9.125,12.71875 C 8.9930036,12.805915 8.9416077,12.944054 8.96875,13.125 C 9.0049393,13.366262 9.1337384,13.521372 9.375,13.59375 L 9.15625,13.71875 L 8.96875,13.71875 C 8.7998673,13.2121 8.8069902,12.894757 9,12.75 C 9.02579,12.730657 9.0868267,12.737637 9.125,12.71875 z M 10.875,16.375 C 10.920236,16.359921 10.989029,16.383216 11.03125,16.4375 C 11.115692,16.546067 11.096505,16.672682 11,16.78125 C 10.903495,16.889819 10.822378,16.796639 10.75,16.53125 C 10.798252,16.446809 10.829764,16.390079 10.875,16.375 z"
     id="path2511"
     sodipodi:nodetypes="cccsssssccccsscscccccccccccssccscsssscccccsscssccssssccccsccssssssccccccccsscccccccccscccccccccccccssscccsssccccccccccscccccscccscccsccsscc" />
</svg>
