<?xml version="1.0" encoding="UTF-8" standalone="no"?>
<svg
   xmlns:dc="http://purl.org/dc/elements/1.1/"
   xmlns:cc="http://web.resource.org/cc/"
   xmlns:rdf="http://www.w3.org/1999/02/22-rdf-syntax-ns#"
   xmlns:svg="http://www.w3.org/2000/svg"
   xmlns="http://www.w3.org/2000/svg"
   xmlns:sodipodi="http://inkscape.sourceforge.net/DTD/sodipodi-0.dtd"
   xmlns:inkscape="http://www.inkscape.org/namespaces/inkscape"
   width="20.708252"
   height="15.36"
   id="svg3970"
   sodipodi:version="0.32"
   inkscape:version="0.43"
   sodipodi:docname="US22F30A.svg"
   sodipodi:docbase="C:\Program Files\JSesh\fonts\envoi25_SR">
  <metadata
     id="metadata3977">
    <rdf:RDF>
      <cc:Work
         rdf:about="">
        <dc:format>image/svg+xml</dc:format>
        <dc:type
           rdf:resource="http://purl.org/dc/dcmitype/StillImage" />
        <dc:title>US22F30A</dc:title>
        <dc:date>03/04/06</dc:date>
        <dc:creator>
          <cc:Agent>
            <dc:title>SR &amp; ST</dc:title>
          </cc:Agent>
        </dc:creator>
        <dc:publisher>
          <cc:Agent>
            <dc:title>Serge Rosmorduc</dc:title>
          </cc:Agent>
        </dc:publisher>
        <dc:description>variante optimisée du signe de Jsesh représentant &quot;a waterskin&quot;</dc:description>
        <cc:license
           rdf:resource="http://creativecommons.org/licenses/GPL/2.0/" />
      </cc:Work>
      <cc:License
         rdf:about="http://creativecommons.org/licenses/GPL/2.0/">
        <cc:permits
           rdf:resource="http://web.resource.org/cc/Reproduction" />
        <cc:permits
           rdf:resource="http://web.resource.org/cc/Distribution" />
        <cc:requires
           rdf:resource="http://web.resource.org/cc/Notice" />
        <cc:permits
           rdf:resource="http://web.resource.org/cc/DerivativeWorks" />
        <cc:requires
           rdf:resource="http://web.resource.org/cc/ShareAlike" />
        <cc:requires
           rdf:resource="http://web.resource.org/cc/SourceCode" />
      </cc:License>
    </rdf:RDF>
  </metadata>
  <defs
     id="defs3975" />
  <sodipodi:namedview
     inkscape:window-height="542"
     inkscape:window-width="811"
     inkscape:pageshadow="2"
     inkscape:pageopacity="0.0"
     borderopacity="1.0"
     bordercolor="#666666"
     pagecolor="#ffffff"
     id="base"
     inkscape:zoom="24.283855"
     inkscape:cx="10.354126"
     inkscape:cy="7.6799998"
     inkscape:window-x="44"
     inkscape:window-y="58"
     inkscape:current-layer="svg3970" />
  <path
     style="fill:#000000; stroke:none"
     d=" M 20.694761 12.396241  L 19.251543 12.396241  Q 19.251543 13.942551 19.174227 15.36  L 17.009394 15.36  Q 17.164024 9.690201 15.746576 6.030603  Q 13.014764 6.391409 10.115436 6.533154  Q 7.216106 6.674899 5.308993 5.97906  Q 4.8451 6.958389 3.814228 8.6851  L 2.912215 8.195436  Q 3.814228 6.932618 3.814228 5.644026  Q 0.438121 7.164564 0 4.355436  Q 0.438121 1.546309 3.814228 3.041074  Q 3.814228 1.752483 2.937987 0.489664  L 3.814228 0  Q 4.8451 1.726711 5.308993 2.628725  Q 7.216106 2.010201 10.115436 2.151946  Q 13.014764 2.293691 15.179596 2.577181  Q 17.344427 2.860671 18.852079 3.20859  Q 20.35973 3.556509 20.127785 4.355436  Q 20.35973 5.12859 18.736107 5.515167  Q 20.875166 9.690201 20.694761 12.396241  Z  M 19.973152 11.648859  Q 19.92161 9.690201 18.091812 5.618255  Q 19.303085 9.690201 19.251543 11.623087  L 19.973152 11.648859  Z  M 18.452616 14.5353  Q 18.787649 9.690201 17.344427 5.747113  L 16.468185 5.927517  Q 18.014496 9.690201 17.705235 14.5353  L 18.452616 14.5353  Z  M 19.019596 4.638926  L 19.019596 4.020402  Q 17.112482 3.608053 14.522413 3.311678  Q 11.932348 3.015302 9.471141 3.002416  Q 7.009933 2.98953 3.814228 3.814228  Q 2.937987 3.453423 1.958657 3.414765  Q 0.979329 3.376107 0.927785 4.355436  Q 0.979329 5.308993 1.958657 5.283221  Q 2.937987 5.257449 3.814228 4.870872  Q 7.009933 5.721342 9.471141 5.69557  Q 11.932348 5.669798 14.50953 5.373423  Q 17.08671 5.077046 19.019596 4.638926  Z "
     id="path3972" />
</svg>
