<?xml version="1.0" encoding="UTF-8" standalone="no"?>
<!-- Created with Inkscape (http://www.inkscape.org/) -->
<svg
   xmlns:dc="http://purl.org/dc/elements/1.1/"
   xmlns:cc="http://web.resource.org/cc/"
   xmlns:rdf="http://www.w3.org/1999/02/22-rdf-syntax-ns#"
   xmlns:svg="http://www.w3.org/2000/svg"
   xmlns="http://www.w3.org/2000/svg"
   xmlns:sodipodi="http://inkscape.sourceforge.net/DTD/sodipodi-0.dtd"
   xmlns:inkscape="http://www.inkscape.org/namespaces/inkscape"
   sodipodi:docname="F31.svg"
   sodipodi:docbase="/home/rosmord/Desktop/lien vers Gsigns/Others"
   inkscape:version="0.41.1"
   sodipodi:version="0.32"
   id="svg2"
   height="1800.0000px"
   width="1800.0000px">
  <defs
     id="defs3" />
  <sodipodi:namedview
     inkscape:window-y="0"
     inkscape:window-x="0"
     inkscape:window-height="538"
     inkscape:window-width="887"
     inkscape:current-layer="layer1"
     inkscape:document-units="px"
     inkscape:cy="917.02329"
     inkscape:cx="900.00000"
     inkscape:zoom="0.052500000"
     inkscape:pageshadow="2"
     inkscape:pageopacity="0.0"
     borderopacity="1.0"
     bordercolor="#666666"
     pagecolor="#ffffff"
     id="base" />
  <metadata
     id="metadata4">
    <rdf:RDF
       id="RDF5">
      <cc:Work
         id="Work6"
         rdf:about="">
        <dc:format
           id="format7">image/svg+xml</dc:format>
        <dc:type
           rdf:resource="http://purl.org/dc/dcmitype/StillImage"
           id="type9" />
        <dc:creator
           id="creator1310">
          <cc:Agent
             id="Agent1312">
            <dc:title
               id="title1314">S. Rosmorduc</dc:title>
          </cc:Agent>
        </dc:creator>
        <cc:license
           rdf:resource="http://creativecommons.org/licenses/by/2.0/"
           id="license1316" />
        <dc:description
           id="description1332">Signe ms, tiré de la stèle d'Antef (Louvre C26), XVIIIeme dynastie
</dc:description>
      </cc:Work>
      <cc:License
         id="License1318"
         rdf:about="http://creativecommons.org/licenses/by/2.0/">
        <cc:permits
           id="permits1320"
           rdf:resource="http://web.resource.org/cc/Reproduction" />
        <cc:permits
           id="permits1322"
           rdf:resource="http://web.resource.org/cc/Distribution" />
        <cc:requires
           id="requires1324"
           rdf:resource="http://web.resource.org/cc/Notice" />
        <cc:requires
           id="requires1326"
           rdf:resource="http://web.resource.org/cc/Attribution" />
        <cc:permits
           id="permits1328"
           rdf:resource="http://web.resource.org/cc/DerivativeWorks" />
        <cc:requires
           id="requires1330"
           rdf:resource="http://web.resource.org/cc/ShareAlike" />
      </cc:License>
    </rdf:RDF>
  </metadata>
  <g
     id="layer1"
     inkscape:groupmode="layer"
     inkscape:label="Layer 1">
    <path
       id="path1334"
       d="M 616.12500 2.6875000 C 615.06683 2.4923159 613.92825 2.4958941 612.71875 2.7187500 C 563.24459 6.1406239 513.65078 7.7946110 464.06250 7.6250000 C 453.38664 8.2581049 452.52761 21.809953 456.12500 29.437500 C 478.41312 92.293132 497.63717 156.07956 515.68750 220.25000 C 514.83333 220.25050 513.97917 220.24950 513.12500 220.25000 C 495.31171 220.56690 477.20042 220.20975 459.59375 221.96875 C 459.26271 222.40342 459.00574 222.87186 458.68750 223.31250 C 457.62486 219.26379 454.87473 215.60775 450.68750 214.62500 C 393.04780 175.77471 337.23715 134.24088 281.84375 92.312500 C 280.12358 92.049433 278.41394 91.430756 276.65625 91.718750 C 271.15334 95.146602 269.12295 102.82349 266.06250 108.46875 C 256.35014 134.62569 248.21284 161.38981 237.40625 187.15625 C 229.70938 206.66820 221.15979 226.11310 215.31250 246.15625 C 220.36523 257.10378 234.18573 253.32555 243.12500 250.56250 C 311.37943 235.97734 381.64559 237.29122 451.09375 236.37500 C 444.18209 251.55334 441.23146 268.58291 434.96875 284.06250 C 432.15817 292.88677 428.81604 301.80397 426.87500 310.90625 C 425.61985 310.72786 424.34050 310.69723 423.06250 311.03125 C 338.29995 343.86252 255.48384 384.06083 183.09375 439.59375 C 148.47852 466.43310 114.15618 494.22006 83.875000 525.81250 C 83.226970 538.53445 97.583426 542.62418 107.12500 546.28125 C 126.63252 554.33263 146.16307 562.38412 165.68750 570.43750 C 155.78658 584.00065 153.24656 601.66774 146.93750 617.09375 C 114.09525 713.38406 67.891450 804.31259 29.343750 898.28125 C 29.549267 908.87651 42.887579 912.05861 51.031250 908.28125 C 64.632057 905.70648 78.267836 904.44385 91.937500 904.12500 C 89.083759 914.75196 87.972080 926.06608 83.218750 936.06250 C 60.145498 1009.5616 22.381737 1077.1977 -6.1250000 1148.5312 C -7.8758032 1158.5433 4.8189849 1163.6894 12.687500 1159.7812 C 47.536760 1154.0213 82.806686 1149.0123 118.15625 1147.6250 C 114.12174 1157.4279 113.33181 1168.4257 110.28125 1178.5938 C 93.181162 1250.7880 68.251757 1322.0241 65.250000 1396.7500 C 64.608838 1445.3724 70.454780 1493.8610 78.218750 1541.7812 C 91.490050 1620.5572 115.30967 1697.3304 146.03125 1771.0000 C 146.50288 1781.9787 162.52571 1786.3110 168.12500 1776.6250 C 172.61092 1766.6793 174.01934 1755.5476 177.40625 1745.1562 C 195.09295 1681.3475 207.76761 1616.0742 213.40625 1550.0625 C 218.92233 1493.1013 221.13924 1435.8056 220.75000 1378.5938 C 218.38511 1311.6170 202.43049 1246.2330 192.12500 1180.2500 C 190.35351 1170.2891 189.04768 1160.0487 186.46875 1150.2500 C 220.51222 1153.4898 253.98592 1160.1809 287.43750 1167.1250 C 298.39316 1167.3749 300.83291 1152.9504 296.00000 1145.3438 C 267.28224 1070.1871 237.99174 995.06515 213.87500 918.34375 C 215.02478 918.55872 216.19554 918.75427 217.34375 918.96875 C 246.48500 924.24400 275.71328 931.05371 305.21875 932.75000 C 314.46775 925.08702 307.81951 912.55071 303.34375 904.15625 C 267.77196 827.03496 238.63926 746.06972 227.06250 661.59375 C 223.32999 638.68713 223.41043 615.18985 219.43750 592.40625 C 244.52846 602.61295 269.62138 612.79654 294.81250 622.62500 C 305.78312 619.98109 306.30570 606.48922 304.09375 597.53125 C 300.24745 542.66588 311.75193 486.39851 339.46875 438.68750 C 363.05978 396.53253 397.19693 361.96853 431.96875 329.00000 C 445.78231 340.79851 461.80766 349.60147 477.37500 359.03125 C 474.75247 359.67337 472.12669 360.31292 469.53125 361.06250 C 440.92929 416.42550 416.83134 473.94307 391.15625 530.68750 C 387.85797 538.54153 384.02095 546.61078 382.87500 555.00000 C 389.98953 566.55700 405.03092 562.61452 416.28125 562.78125 C 426.91201 562.51238 437.55299 562.28630 448.18750 562.03125 C 444.59434 573.07595 443.61011 585.35254 440.03125 596.28125 C 419.54252 680.99984 399.20320 765.75159 378.96875 850.53125 C 382.14765 862.23250 396.40358 861.88789 406.15625 861.06250 C 423.68100 860.42794 441.21573 859.85166 458.75000 859.25000 C 453.90920 873.11612 451.73150 888.09045 447.03125 901.96875 C 424.27866 985.24374 401.12324 1068.5073 378.90625 1151.8750 C 382.11926 1164.0691 397.01922 1163.6231 407.06250 1162.7188 C 434.99938 1161.9112 462.95120 1161.1256 490.90625 1160.3438 C 489.45848 1164.9236 488.47261 1169.7625 487.68750 1174.0312 C 470.16725 1250.4791 443.24075 1325.4903 439.21875 1404.4062 C 438.90846 1475.9720 449.49034 1547.1875 465.84375 1616.7188 C 479.32962 1672.8515 498.45609 1727.4929 520.18750 1780.9062 C 521.52683 1790.5839 535.43048 1795.1732 541.15625 1786.5312 C 545.81488 1778.2318 546.67212 1768.2781 549.93750 1759.3438 C 573.65956 1677.3381 587.24182 1592.5471 591.56250 1507.3125 C 594.39881 1461.9199 596.02601 1416.3530 593.96875 1370.9062 C 589.26268 1305.6711 574.49208 1241.8412 564.09375 1177.4375 C 562.86643 1171.0695 561.88751 1164.5138 560.18750 1158.2188 C 589.51183 1157.3016 618.84940 1156.4140 648.12500 1155.2188 C 658.54697 1147.1736 652.76261 1133.0615 649.84375 1122.7500 C 624.92708 1033.4526 600.21503 944.03234 574.71875 854.93750 C 599.20394 853.98949 623.70652 853.13350 648.15625 851.96875 C 658.43167 843.89985 652.64636 829.90883 649.56250 819.71875 C 623.76957 732.77858 597.98044 645.84640 572.18750 558.90625 C 598.47751 558.21791 624.77612 557.57030 651.03125 556.68750 C 660.98821 550.11059 656.12933 536.74372 651.50000 528.37500 C 628.09977 475.36658 605.04869 422.19558 580.81250 369.56250 C 598.27715 362.37694 615.60502 354.94087 632.59375 346.84375 C 679.41351 390.70544 720.26158 443.33712 739.06250 505.34375 C 749.85527 542.21389 750.58481 581.24249 746.81250 619.25000 C 750.61678 630.18978 764.83411 628.43102 772.78125 623.46875 C 792.32741 615.40297 811.90274 607.34300 831.46875 599.28125 C 831.31203 599.45106 831.12344 599.57730 830.96875 599.75000 C 828.09625 676.53344 812.86315 752.83393 784.90625 824.46875 C 772.02432 859.55098 755.85609 893.29637 741.75000 927.87500 C 740.65267 938.03719 753.78516 942.64156 761.50000 938.18750 C 787.36439 934.36943 813.11863 929.23650 838.90625 924.31250 C 833.75634 938.59382 830.19894 953.52308 824.43750 967.59375 C 802.45348 1032.0069 777.57029 1095.3691 753.62500 1159.0625 C 751.38034 1168.5893 762.84933 1176.6080 771.15625 1171.6875 C 802.36416 1164.7022 834.12796 1159.3878 866.06250 1156.3438 C 865.31911 1159.3562 864.77113 1162.3951 864.43750 1165.1250 C 853.91361 1224.2737 842.32323 1283.2993 834.87500 1342.9375 C 830.82289 1380.1625 830.15099 1417.6682 832.53125 1455.0312 C 835.91103 1549.4698 845.41140 1644.2605 870.71875 1735.5625 C 874.98630 1751.1137 879.10688 1766.8373 884.15625 1782.0938 C 888.41906 1790.8131 903.16724 1789.4832 905.28125 1779.7500 C 941.73827 1692.9632 968.16381 1601.6246 980.18750 1508.1562 C 986.86144 1453.9088 991.16174 1398.4401 980.75000 1344.3750 C 970.26206 1286.8809 953.20615 1230.8397 939.56250 1174.0625 C 937.30502 1167.5000 936.18427 1160.3659 933.93750 1153.7812 C 950.27219 1154.1911 966.58000 1155.3024 982.84375 1157.4062 C 1005.5260 1159.8108 1027.9638 1164.5501 1050.6562 1166.5625 C 1060.2781 1163.8370 1059.4612 1151.2353 1054.7188 1144.5312 C 1022.9689 1068.0800 981.69659 994.97135 961.37500 914.31250 C 961.10367 912.98306 960.68400 911.47288 960.34375 910.03125 C 964.15131 910.06774 967.96133 910.14453 971.78125 910.31250 C 986.25312 911.37046 1000.6103 914.30769 1015.0000 915.50000 C 1025.1507 911.02426 1022.6906 897.68555 1017.9062 890.06250 C 975.77970 794.25021 930.12735 699.67633 897.53125 600.03125 C 894.51156 592.22644 892.30335 583.54872 887.78125 576.65625 C 887.55302 576.46499 887.26790 576.37027 887.03125 576.18750 C 913.39777 565.19129 939.74611 554.16113 965.90625 542.81250 C 972.07631 532.28006 961.69896 522.17924 953.93750 516.15625 C 886.86391 455.05063 813.06046 400.40274 731.03125 361.00000 C 700.09205 346.24133 668.64559 332.14397 636.15625 321.18750 C 633.78605 313.95811 630.41588 306.80430 628.65625 299.68750 C 620.27790 275.67915 613.23746 250.89358 602.62500 227.84375 C 608.14751 229.02921 614.75544 228.01940 620.03125 228.34375 C 686.65077 228.02591 753.97058 228.93889 819.21875 243.93750 C 825.71757 246.79601 838.08572 244.54181 836.40625 235.37500 C 824.85184 199.12545 808.51324 164.59980 796.71875 128.40625 C 791.44752 113.63484 786.24029 98.542662 779.65625 84.437500 C 777.08374 83.371202 774.50838 83.059468 771.75000 83.406250 C 715.94905 124.16799 661.19596 166.61927 603.40625 204.65625 C 597.35407 207.82980 589.53131 213.93978 593.84375 221.59375 C 593.86249 221.62972 593.88730 221.65189 593.90625 221.68750 C 577.56509 218.59731 560.56803 221.00417 544.00000 220.21875 C 542.05209 220.21990 540.10416 220.21760 538.15625 220.21875 C 538.54475 219.00311 538.72003 217.71014 538.62500 216.37500 C 561.16361 149.12151 583.72658 80.926311 622.25000 20.812500 C 626.94023 14.688942 623.53216 4.0537888 616.12500 2.6875000 z "
       style="color:#000000;fill:#000000;fill-opacity:1.0000000;fill-rule:evenodd;stroke:none;stroke-width:16.881557;stroke-linecap:round;stroke-linejoin:round;stroke-miterlimit:4.0000000;stroke-dashoffset:0.0000000;stroke-opacity:1.0000000;marker:none;marker-start:none;marker-mid:none;marker-end:none;visibility:visible;display:inline;overflow:visible" />
  </g>
  <g
     inkscape:label="dessin"
     id="layer2"
     inkscape:groupmode="layer" />
</svg>
