<?xml version="1.0" encoding="UTF-8" standalone="no"?>
<svg
   width="622.03485"
   height="1740.9629"
   id="svg2214"
   sodipodi:version="0.32"
   inkscape:version="1.4 (e7c3feb1, 2024-10-09)"
   sodipodi:docname="F31VARA.svg"
   inkscape:output_extension="org.inkscape.output.svg.inkscape"
   sodipodi:modified="true"
   version="1.1"
   xml:space="preserve"
   xmlns:inkscape="http://www.inkscape.org/namespaces/inkscape"
   xmlns:sodipodi="http://sodipodi.sourceforge.net/DTD/sodipodi-0.dtd"
   xmlns="http://www.w3.org/2000/svg"
   xmlns:svg="http://www.w3.org/2000/svg"
   xmlns:rdf="http://www.w3.org/1999/02/22-rdf-syntax-ns#"
   xmlns:cc="http://creativecommons.org/ns#"
   xmlns:dc="http://purl.org/dc/elements/1.1/"><title
     id="title1">F31VARA</title><metadata
     id="metadata2221"><rdf:RDF><cc:Work
         rdf:about=""><dc:format>image/svg+xml</dc:format><dc:type
           rdf:resource="http://purl.org/dc/dcmitype/StillImage" /><dc:creator><cc:Agent><dc:title>Serge Rosmorduc</dc:title></cc:Agent></dc:creator><cc:license
           rdf:resource="http://scripts.sil.org/OFL" /><dc:title>F31VARA</dc:title><dc:description>cryptographic variant of F31 found on C65.
Either a single fox skin, or a branch looking like one.
</dc:description><dc:source>Louvre C65 (personnal Hi-res photo)</dc:source></cc:Work><cc:License
         rdf:about="http://scripts.sil.org/OFL"><cc:permits
           rdf:resource="http://scripts.sil.org/pub/OFL/Reproduction" /><cc:permits
           rdf:resource="http://scripts.sil.org/pub/OFL/Distribution" /><cc:permits
           rdf:resource="http://scripts.sil.org/pub/OFL/Embedding" /><cc:permits
           rdf:resource="http://scripts.sil.org/pub/OFL/DerivativeWorks" /><cc:requires
           rdf:resource="http://scripts.sil.org/pub/OFL/Notice" /><cc:requires
           rdf:resource="http://scripts.sil.org/pub/OFL/Attribution" /><cc:requires
           rdf:resource="http://scripts.sil.org/pub/OFL/ShareAlike" /><cc:requires
           rdf:resource="http://scripts.sil.org/pub/OFL/DerivativeRenaming" /><cc:requires
           rdf:resource="http://scripts.sil.org/pub/OFL/BundlingWhenSelling" /></cc:License></rdf:RDF></metadata><defs
     id="defs2219" /><sodipodi:namedview
     inkscape:window-height="1136"
     inkscape:window-width="1712"
     inkscape:pageshadow="2"
     inkscape:pageopacity="0.0"
     guidetolerance="10.0"
     gridtolerance="10.0"
     objecttolerance="10.0"
     borderopacity="1.0"
     bordercolor="#666666"
     pagecolor="#ffffff"
     id="base"
     inkscape:showpageshadow="2"
     inkscape:pagecheckerboard="0"
     inkscape:deskcolor="#d1d1d1"
     inkscape:zoom="0.2495281"
     inkscape:cx="420.79429"
     inkscape:cy="967.82687"
     inkscape:window-x="1024"
     inkscape:window-y="25"
     inkscape:window-maximized="0"
     inkscape:current-layer="layer1" /><g
     inkscape:groupmode="layer"
     id="layer1"
     inkscape:label="Layer 1"
     transform="translate(-531.74756,-30.199219)"><path
       id="path1"
       style="fill:#000000;fill-opacity:1;stroke:none;stroke-width:2.9;stroke-dasharray:none;stroke-opacity:1"
       d="m 669.95117,30.199219 c 0,0 52.24774,88.265691 65.41602,137.185551 16.86152,62.64014 24.41851,110.19216 28.33984,161.05273 l -4.25586,-2.55273 c 0,0 -70.1136,29.87666 -104.84961,89.26367 C 621.84182,471.15668 601.90583,589.27822 574.95898,680.4375 554.10946,750.96995 518.25826,804.79297 537,804.79297 c 51.98597,0 82.02846,-70.76763 97.76562,-124.6875 25.59686,-87.70198 22.79239,-177.93911 66.59376,-253.62305 14.26157,-24.64243 45.06955,-55.66632 63.81835,-73.47461 4.07487,74.0762 2.62055,160.49177 10.63282,312.96289 4.40425,83.81171 7.92939,172.62492 11.29492,262.09766 -123.27452,7.27752 -233.17174,420.62694 -204.13867,420.62694 51.26934,0 71.52642,-100.8995 99.20312,-194.5508 27.39979,-92.7142 57.38987,-172.28608 106.07031,-196.13669 7.93463,212.83759 15.39661,426.13449 31.97071,578.04879 9.17007,84.0508 33.84144,235.1055 95.19922,235.1055 61.35777,0 48.08034,-153.4712 36.44531,-230.3262 -23.28624,-153.8168 -57.19848,-351.1795 -83.43164,-552.85348 12.75654,-0.80092 28.34539,0.5499 36.3125,13.94338 56.90283,95.6589 149.99977,363.6074 224.92577,363.6074 29.4952,0 29.7998,-37.8302 12.4453,-43.2656 -12.9685,-4.0617 -175.47674,-392.25121 -281.61521,-399.66799 -12.21089,-101.34459 -22.27955,-202.71158 -27.3125,-299.17188 -2.59714,-49.7761 -5.3233,-95.51063 -8.10742,-142.62304 13.22712,-4.53159 24.08276,-9.71648 41.34765,-7.75586 10.21405,47.50406 50.9204,131.55928 82.38672,186.06055 38.96681,67.49249 88.84636,130.42773 104.25976,130.42773 24.0365,0 -111.34867,-292.57385 -173.83398,-339.71875 -9.81689,2.15032 -40.16035,-25.70642 -58.16601,-39.47852 -4.14098,-78.82829 -6.60937,-151.32975 -3.33789,-209.37109 C 823.83599,92.612309 849.11719,30.685547 849.11719,30.685547 783.0003,44.984575 729.3564,36.035154 669.95117,30.199219 Z" /></g></svg>
