<?xml version="1.0" encoding ="US-ASCII" standalone="yes"?>
<svg width="17.758648" height="10.56">
<path style="fill:#000000; stroke:none" d=" M 13.324833 4.015174  Q 15.288112 4.215137 16.469713 5.696685  Q 17.651318 7.178231 17.751299 8.632511  Q 17.85128 10.086791 16.63332 10.450361  Q 15.233575 10.886644 14.615507 9.586883  Q 13.997437 8.28712 14.224668 6.814662  Q 14.4519 5.342205 13.324833 4.778671  L 11.052524 4.778671  L 9.689137 8.632511  Q 9.616423 8.814298 9.252853 8.687046  Q 8.889283 8.559796 8.961997 8.359834  L 10.198134 4.778671  L 8.271214 4.778671  L 6.926004 8.577974  Q 6.853291 8.759759 6.480633 8.6416  Q 6.107974 8.523439 6.180688 8.323477  L 7.398646 4.778671  L 5.435369 4.778671  L 4.108339 8.577974  Q 4.035625 8.77794 3.681144 8.65069  Q 3.326664 8.523439 3.381199 8.341654  L 4.635516 4.778671  L 2.690417 4.778671  L 1.363387 8.523439  Q 1.308851 8.741582 0.936192 8.614333  Q 0.563533 8.487082 0.636247 8.305298  L 1.836028 4.778671  L 0.199963 4.778671  Q 0 4.724136 0 4.342387  Q 0 3.960639 0.199963 4.015174  L 2.108705 4.015174  L 3.435735 0.106799  Q 3.49027 -0.074986 3.85384 0.043174  Q 4.21741 0.161334 4.162874 0.343119  L 2.926738 4.015174  L 4.871836 4.015174  L 6.180688 0.106799  Q 6.253401 -0.074986 6.61697 0.052263  Q 6.98054 0.179513 6.926004 0.361298  L 5.67169 4.015174  L 7.653144 4.015174  L 8.961997 0.124977  Q 9.05289 -0.074986 9.434639 0.043174  Q 9.816386 0.161334 9.743671 0.397655  L 8.489355 4.015174  L 10.452634 4.015174  L 11.779663 0.161334  Q 11.834199 -0.038629 12.206857 0.08862  Q 12.579516 0.21587 12.506803 0.415833  L 11.270666 4.015174  L 13.324833 4.015174  Z  M 15.088146 5.433097  Q 14.851826 7.832657 15.242665 8.877921  Q 15.633502 9.923184 16.396999 9.686865  Q 17.087782 9.486901 16.86055 8.39619  Q 16.63332 7.30548 15.088146 5.433097  Z "/></svg>
