<?xml version="1.0" encoding="UTF-8" standalone="no"?>
<svg
   xmlns:dc="http://purl.org/dc/elements/1.1/"
   xmlns:cc="http://creativecommons.org/ns#"
   xmlns:rdf="http://www.w3.org/1999/02/22-rdf-syntax-ns#"
   xmlns:svg="http://www.w3.org/2000/svg"
   xmlns="http://www.w3.org/2000/svg"
   xmlns:sodipodi="http://sodipodi.sourceforge.net/DTD/sodipodi-0.dtd"
   xmlns:inkscape="http://www.inkscape.org/namespaces/inkscape"
   width="13.000427"
   height="33.875523"
   id="svg2819"
   sodipodi:version="0.32"
   inkscape:version="0.46"
   sodipodi:docname="F37G.svg"
   inkscape:output_extension="org.inkscape.output.svg.inkscape"
   version="1.0">
  <metadata
     id="metadata2826">
    <rdf:RDF>
      <cc:Work
         rdf:about="">
        <dc:format>image/svg+xml</dc:format>
        <dc:type
           rdf:resource="http://purl.org/dc/dcmitype/StillImage" />
      </cc:Work>
    </rdf:RDF>
  </metadata>
  <defs
     id="defs2824">
    <inkscape:perspective
       sodipodi:type="inkscape:persp3d"
       inkscape:vp_x="0 : 8.9916086 : 1"
       inkscape:vp_y="0 : 1000 : 0"
       inkscape:vp_z="19.421148 : 8.9916086 : 1"
       inkscape:persp3d-origin="9.7105742 : 5.9944057 : 1"
       id="perspective2828" />
  </defs>
  <sodipodi:namedview
     inkscape:window-height="712"
     inkscape:window-width="1024"
     inkscape:pageshadow="2"
     inkscape:pageopacity="0.0"
     guidetolerance="10.0"
     gridtolerance="10.0"
     objecttolerance="10.0"
     borderopacity="1.0"
     bordercolor="#666666"
     pagecolor="#ffffff"
     id="base"
     showgrid="true"
     showguides="true"
     inkscape:guide-bbox="true"
     inkscape:zoom="13.490125"
     inkscape:cx="22.107866"
     inkscape:cy="17.201066"
     inkscape:window-x="-4"
     inkscape:window-y="-4"
     inkscape:current-layer="svg2819" />
  <path
     style="fill:#000000;stroke:none"
     d="M 6.4375314,0.00015894128 C 6.0614665,0.0040959213 5.8797914,0.064594061 5.8750314,0.18765894 L 5.8750314,3.8439089 L 0.40628144,3.9064089 C 0.23113224,3.9735809 0.19097034,4.2005307 0.31253144,4.5626589 C 0.43409363,4.9247866 0.58152054,5.0663789 0.78128144,5.0001589 L 5.8750314,5.0939089 L 5.8750314,8.9376589 L 0.43753144,9.0314089 C 0.25055185,9.0858001 0.22174084,9.3065889 0.34378144,9.6564089 C 0.46582074,10.00623 0.60613304,10.129831 0.78128144,10.062659 L 5.9062814,10.093909 L 5.9062814,13.875159 L 0.50003144,13.968909 C 0.30122224,14.010516 0.25938484,14.206923 0.37503144,14.562659 C 0.49067734,14.918395 0.63738164,15.036082 0.81253144,14.968909 L 5.9062814,15.125159 L 5.9062814,18.968909 L 0.56253144,19.000159 C 0.36327965,19.039592 0.32578024,19.23693 0.43753144,19.593909 C 0.54928185,19.950887 0.69915854,20.127914 0.87503144,20.062659 L 5.9375314,20.125159 L 5.9375314,23.906409 L 0.53128144,23.968909 C 0.33203023,24.008341 0.32577964,24.205681 0.43753144,24.562659 C 0.54928274,24.919638 0.66790794,25.065415 0.84378144,25.000159 L 5.9687814,25.062659 L 5.9687814,28.968909 L 0.28128144,28.968909 C 0.08677844,28.959536 0.0019024396,29.137634 3.1439569e-05,29.500159 C -0.0018405604,29.862685 0.07974944,30.037351 0.28128144,30.062659 L 6.0000314,30.062659 L 6.0000314,33.593909 C 6.0425905,33.768104 6.2617504,33.867265 6.6250314,33.875159 C 6.9883124,33.883054 7.1353894,33.761466 7.0937814,33.562659 L 7.0625314,30.062659 L 12.687531,30.062659 C 12.889065,30.087966 12.993706,29.905416 13.000031,29.531409 C 13.006357,29.157401 12.937505,28.962345 12.750031,28.968909 L 7.0625314,28.968909 L 7.0312814,25.093909 L 12.656281,24.968909 C 12.843842,24.916566 12.893644,24.719836 12.781281,24.375159 C 12.668918,24.03048 12.511782,23.866979 12.312531,23.906409 L 7.0312814,23.937659 L 7.0312814,20.062659 L 12.687531,20.062659 C 12.781312,20.036487 12.824982,19.974414 12.843781,19.875159 C 12.862581,19.775905 12.868714,19.641249 12.812531,19.468909 C 12.700168,19.12423 12.543032,18.991978 12.343781,19.031409 L 7.0000314,18.937659 L 7.0000314,15.031409 L 12.593781,15.000159 C 12.78076,14.945771 12.803655,14.749838 12.687531,14.406409 C 12.571408,14.062979 12.417589,13.896052 12.218781,13.937659 L 6.9687814,13.875159 L 7.0000314,10.093909 L 12.593781,10.031409 C 12.768928,9.9642359 12.778319,9.7562299 12.656281,9.4064089 C 12.534243,9.0565882 12.381147,8.9135659 12.218781,8.9689089 L 6.9687814,8.9064089 L 6.9375314,5.0626589 L 12.562531,5.0001589 C 12.750463,4.9211569 12.796311,4.7178669 12.687531,4.3439089 C 12.578752,3.969951 12.406221,3.817481 12.156281,3.9064089 L 6.9687814,3.8439089 L 6.9687814,0.18765894 C 6.9981563,0.065545551 6.8135954,-0.0037762587 6.4375314,0.00015894128 z"
     id="path2821" />
</svg>
