<?xml version="1.0" encoding="UTF-8" standalone="no"?>
<!-- Created with Inkscape (http://www.inkscape.org/) -->
<svg
   xmlns:dc="http://purl.org/dc/elements/1.1/"
   xmlns:cc="http://creativecommons.org/ns#"
   xmlns:rdf="http://www.w3.org/1999/02/22-rdf-syntax-ns#"
   xmlns:svg="http://www.w3.org/2000/svg"
   xmlns="http://www.w3.org/2000/svg"
   xmlns:sodipodi="http://sodipodi.sourceforge.net/DTD/sodipodi-0.dtd"
   xmlns:inkscape="http://www.inkscape.org/namespaces/inkscape"
   width="1800"
   height="1800"
   id="svg2"
   sodipodi:version="0.32"
   inkscape:version="0.46"
   version="1.0"
   sodipodi:docname="US1F37L.svg"
   inkscape:output_extension="org.inkscape.output.svg.inkscape">
  <defs
     id="defs4">
    <inkscape:perspective
       sodipodi:type="inkscape:persp3d"
       inkscape:vp_x="0 : 526.18109 : 1"
       inkscape:vp_y="0 : 1000 : 0"
       inkscape:vp_z="744.09448 : 526.18109 : 1"
       inkscape:persp3d-origin="372.04724 : 350.78739 : 1"
       id="perspective10" />
    <inkscape:perspective
       id="perspective2671"
       inkscape:persp3d-origin="12.741887 : 5.9925276 : 1"
       inkscape:vp_z="25.483774 : 8.9887915 : 1"
       inkscape:vp_y="0 : 1000 : 0"
       inkscape:vp_x="0 : 8.9887915 : 1"
       sodipodi:type="inkscape:persp3d" />
  </defs>
  <sodipodi:namedview
     id="base"
     pagecolor="#ffffff"
     bordercolor="#666666"
     borderopacity="1.0"
     inkscape:pageopacity="0.0"
     inkscape:pageshadow="2"
     inkscape:zoom="0.305"
     inkscape:cx="900"
     inkscape:cy="900"
     inkscape:document-units="px"
     inkscape:current-layer="layer1"
     showgrid="false"
     inkscape:window-width="1280"
     inkscape:window-height="752"
     inkscape:window-x="40"
     inkscape:window-y="62" />
  <metadata
     id="metadata7">
    <rdf:RDF>
      <cc:Work
         rdf:about="">
        <dc:format>image/svg+xml</dc:format>
        <dc:type
           rdf:resource="http://purl.org/dc/dcmitype/StillImage" />
      </cc:Work>
    </rdf:RDF>
  </metadata>
  <g
     inkscape:label="Calque 1"
     inkscape:groupmode="layer"
     id="layer1">
    <path
       style="fill:#000000;fill-opacity:1;fill-rule:nonzero;stroke:none;stroke-width:59.99999619;stroke-linecap:round;stroke-linejoin:miter;marker:none;stroke-miterlimit:4;stroke-dasharray:none;stroke-dashoffset:0;stroke-opacity:1;visibility:visible;display:inline;overflow:visible;enable-background:accumulate"
       d="M 55.75 315.34375 C 44.637965 315.60052 34.564529 321.96469 29.59375 331.90625 C 24.622969 341.84781 25.569446 353.73756 32.03125 362.78125 L 255.75 684.96875 L 255.09375 685.4375 L 255.125 685.46875 L 85.84375 802.96875 L 61.21875 820.09375 L 78.3125 844.71875 L 192.09375 1008.5938 L 209.21875 1033.25 L 340.125 1221.75 L 341.96875 1224.4375 L 453.90625 1385.625 L 471 1410.25 L 472.875 1412.9688 L 490 1437.5938 L 601.9375 1598.8125 L 619.03125 1623.4375 L 643.6875 1606.3438 L 813.59375 1488.375 L 1026.875 1795.5312 C 1032.9007 1804.5512 1043.3412 1809.6193 1054.1562 1808.7812 C 1064.9714 1807.9432 1074.4671 1801.3406 1079.0312 1791.5 C 1083.5954 1781.6593 1082.5024 1770.1101 1076.1562 1761.3125 L 862.875 1454.125 L 1026.0938 1340.7812 L 1050.7188 1323.6875 L 1033.625 1299.0312 L 921.6875 1137.8438 L 904.5625 1113.1875 L 902.71875 1110.5 L 885.59375 1085.875 L 788.90625 946.625 L 773.6875 924.6875 L 771.8125 922 L 767.5 915.78125 L 756.5625 900.0625 L 658.03125 758.125 L 640.90625 733.5 L 623.8125 708.84375 L 623.78125 708.84375 L 510 544.96875 L 492.90625 520.34375 L 468.25 537.4375 L 305.03125 650.78125 L 81.3125 328.5625 C 75.598707 320.09064 65.965915 315.10938 55.75 315.34375 z M 477.84375 603.84375 L 574.53125 743.0625 L 504.90625 791.40625 L 435.9375 839.28125 L 339.25 700.0625 L 477.84375 603.84375 z M 283.9375 738.46875 L 380.625 877.71875 L 323.09375 917.65625 L 241.375 974.375 L 144.71875 835.15625 L 283.9375 738.46875 z M 608.75 792.34375 L 705.40625 931.5625 L 566.84375 1027.8125 L 470.15625 888.5625 L 608.75 792.34375 z M 414.84375 927 L 511.5 1066.2188 L 372.28125 1162.9062 L 275.625 1023.6562 L 287.125 1015.6562 L 414.84375 927 z M 741.5 983.5625 L 836.3125 1120.0625 L 697.71875 1216.3125 L 602.9375 1079.7812 L 741.5 983.5625 z M 547.59375 1118.1875 L 642.40625 1254.7188 L 503.1875 1351.375 L 408.375 1214.875 L 547.59375 1118.1875 z M 872.40625 1172.0625 L 967.21875 1308.625 L 828.65625 1404.875 L 733.8125 1268.2812 L 872.40625 1172.0625 z M 678.5 1306.7188 L 773.3125 1443.25 L 634.09375 1539.9375 L 539.28125 1403.375 L 678.5 1306.7188 z "
       id="rect3152" />
  </g>
</svg>
