<?xml version="1.0" encoding ="US-ASCII" standalone="yes"?>
<svg width="12.756263" height="8.64">
<path style="fill:#000000; stroke:none" d=" M 3.855183 6.531851  Q 3.562384 5.633935 2.820627 5.633935  Q 2.078871 5.633935 1.825112 6.531851  L 3.855183 6.531851  Z  M 1.825112 7.156488  Q 2.078871 8.034884 2.820627 8.034884  Q 3.562384 8.034884 3.855183 7.156488  L 1.825112 7.156488  Z  M 5.494855 7.156488  Q 5.748614 8.034884 6.509892 8.034884  Q 7.251647 8.034884 7.524927 7.156488  L 5.494855 7.156488  Z  M 7.524927 6.531851  Q 7.232128 5.633935 6.490371 5.633935  Q 5.748614 5.633935 5.475336 6.531851  L 7.524927 6.531851  Z  M 11.136111 6.531851  Q 10.843312 5.633935 10.101554 5.633935  Q 9.359798 5.633935 9.10604 6.531851  L 11.136111 6.531851  Z  M 9.125559 7.156488  Q 9.398837 8.034884 10.140593 8.034884  Q 10.882352 8.034884 11.175151 7.156488  L 9.125559 7.156488  Z  M 11.741228 7.156488  Q 11.467948 8.425282 10.101554 8.64  Q 9.633078 8.600962 9.281719 8.425282  Q 8.59852 8.015365 8.500921 7.156488  L 8.500921 7.156488  L 8.091003 7.156488  Q 7.817725 8.425282 6.470851 8.64  Q 5.982853 8.600962 5.651015 8.425282  Q 4.967818 8.015365 4.870218 7.156488  L 4.460299 7.156488  Q 4.187021 8.425282 2.820627 8.64  Q 2.352149 8.600962 2.000791 8.425282  Q 1.317594 8.015365 1.219995 7.156488  L 0.204959 7.156488  L 0.204959 6.531851  L 1.219995 6.531851  Q 1.317594 5.672976 2.000791 5.243536  L 0.146399 0.929636  Q -0.185439 0.207399 0.224479 0.03172  Q 0.634397 -0.143959 0.927196 0.578277  L 2.879187 5.048337  Q 4.187021 5.243536 4.460299 6.531851  L 4.850699 6.531851  Q 4.987338 5.672976 5.670534 5.243536  L 3.796623 0.929636  Q 3.484305 0.207399 3.874702 0.03172  Q 4.28462 -0.143959 4.596939 0.578277  L 6.529411 5.048337  Q 7.837245 5.243536 8.110524 6.531851  L 8.500921 6.531851  Q 8.59852 5.672976 9.281719 5.243536  L 7.407807 0.929636  Q 7.095488 0.207399 7.505406 0.03172  Q 7.895805 -0.143959 8.208123 0.578277  L 10.140593 5.048337  Q 11.467948 5.243536 11.741228 6.531851  L 12.756263 6.531851  L 12.756263 7.156488  L 11.741228 7.156488  Z "/></svg>
