<?xml version="1.0" encoding="UTF-8" standalone="no"?>
<svg
   xmlns:dc="http://purl.org/dc/elements/1.1/"
   xmlns:cc="http://web.resource.org/cc/"
   xmlns:rdf="http://www.w3.org/1999/02/22-rdf-syntax-ns#"
   xmlns:svg="http://www.w3.org/2000/svg"
   xmlns="http://www.w3.org/2000/svg"
   xmlns:sodipodi="http://inkscape.sourceforge.net/DTD/sodipodi-0.dtd"
   xmlns:inkscape="http://www.inkscape.org/namespaces/inkscape"
   width="19.239746"
   height="11.28"
   id="svg1333"
   sodipodi:version="0.32"
   inkscape:version="0.43"
   sodipodi:docname="US2224A.svg"
   sodipodi:docbase="C:\Program Files\JSesh\fonts\envoi24_SR">
  <metadata
     id="metadata1340">
    <rdf:RDF>
      <cc:Work
         rdf:about="">
        <dc:format>image/svg+xml</dc:format>
        <dc:type
           rdf:resource="http://purl.org/dc/dcmitype/StillImage" />
        <dc:title>US2224A</dc:title>
        <dc:date>18/03/06</dc:date>
        <dc:creator>
          <cc:Agent>
            <dc:title>Serge Thomas</dc:title>
          </cc:Agent>
        </dc:creator>
        <dc:publisher>
          <cc:Agent>
            <dc:title>Serge Rosmorduc</dc:title>
          </cc:Agent>
        </dc:publisher>
        <dc:description>valeur HAt
protome de lion tête empruntée à chapelle de Tout ankh Amon</dc:description>
        <cc:license
           rdf:resource="http://creativecommons.org/licenses/GPL/2.0/" />
      </cc:Work>
      <cc:License
         rdf:about="http://creativecommons.org/licenses/GPL/2.0/">
        <cc:permits
           rdf:resource="http://web.resource.org/cc/Reproduction" />
        <cc:permits
           rdf:resource="http://web.resource.org/cc/Distribution" />
        <cc:requires
           rdf:resource="http://web.resource.org/cc/Notice" />
        <cc:permits
           rdf:resource="http://web.resource.org/cc/DerivativeWorks" />
        <cc:requires
           rdf:resource="http://web.resource.org/cc/ShareAlike" />
        <cc:requires
           rdf:resource="http://web.resource.org/cc/SourceCode" />
      </cc:License>
    </rdf:RDF>
  </metadata>
  <defs
     id="defs1338" />
  <sodipodi:namedview
     inkscape:window-height="708"
     inkscape:window-width="1024"
     inkscape:pageshadow="2"
     inkscape:pageopacity="0.0"
     borderopacity="1.0"
     bordercolor="#666666"
     pagecolor="#ffffff"
     id="base"
     inkscape:zoom="47.702365"
     inkscape:cx="9.6089621"
     inkscape:cy="5.6101382"
     inkscape:window-x="-4"
     inkscape:window-y="-4"
     inkscape:current-layer="svg1333" />
  <path
     style="fill:#000000; stroke:none"
     d="M 15.887754,11.28 C 11.938981,11.28 5.3114138,11.432728 2.288008,11.130315 C 1.530323,11.287126 0.13258666,11.548504 0,10.916485 C 0.057022,10.20371 0.76971955,8.2394191 3.8330772,9.205824 C 8.7094395,9.2537805 9.273205,9.0628553 11.996009,8.179429 C 12.295375,7.666229 12.430802,7.2599477 12.402289,6.960585 C 12.11718,6.5614303 12.024521,6.1836587 12.12431,5.82727 C 12.010266,5.4708827 11.835634,5.2748697 11.600415,5.239231 C 11.365198,5.2035917 11.169184,5.285561 11.012373,5.485139 C 10.855564,5.684715 10.549072,5.820143 10.092896,5.891423 C 9.7079973,5.6918437 9.4870367,5.392477 9.430014,4.993323 C 9.3729913,4.594169 9.315969,4.394592 9.258947,4.394592 C 9.0308597,4.223526 8.916816,4.0096937 8.916816,3.753095 C 8.574684,3.4252197 8.4677673,3.1401097 8.596066,2.897765 C 8.667344,2.7409543 8.898996,2.548505 9.291022,2.320417 C 9.6830493,2.092329 10.039437,1.83573 10.360186,1.55062 C 10.680934,1.26551 11.058704,1.0980077 11.493495,1.048113 C 11.928294,0.998219 12.352398,0.887739 12.765805,0.716673 C 12.637506,0.38879633 13.121471,-0.0069381967 14.24125,0.021717 C 18.839465,0.13831064 19.486886,4.0566585 19.138008,6.597069 C 16.971172,8.4075163 15.887754,9.9684933 15.887754,11.28 z M 13.129322,1.785836 C 13.214853,1.9711573 13.371664,2.0745097 13.599754,2.095893 C 13.827839,2.1172757 13.963267,1.878496 14.006037,1.379554 C 14.06306,0.95188933 14.319656,0.83784533 14.775827,1.037422 L 14.775827,1.016038 C 14.661782,0.73092867 14.455079,0.588374 14.155717,0.588374 C 13.970396,0.588374 13.799331,0.75944 13.642522,1.101572 C 13.300389,1.4294487 13.129322,1.6575367 13.129322,1.785836 z M 18.346834,6.340471 C 18.940221,4.9635487 18.036679,1.2443875 15.246258,0.82359 C 15.64541,1.8499853 15.381685,2.4415883 14.455084,2.598399 C 14.055928,2.769465 14.253886,3.0101821 14.195341,3.592722 C 14.145296,4.0906801 13.621343,5.1706903 12.958255,5.399605 C 12.715912,5.8985497 12.794318,6.347599 13.193471,6.746753 C 13.279006,7.573569 13.107941,8.3005987 12.680276,8.927842 C 12.095799,9.070396 10.837749,9.4887897 8.906124,9.759645 C 6.9745047,10.030499 3.5640054,9.952507 2.3035806,9.6768756 C 1.7333606,9.5770869 1.1618233,10.125304 1.133312,10.595737 C 1.8421114,9.7044846 4.2444229,11.3535 15.053812,10.552971 C 15.738075,8.671243 16.835749,7.2670763 18.346834,6.340471 z M 11.096001,4.1496386 C 10.835646,4.2314168 10.538379,4.351826 10.445718,4.43736 C 10.353057,4.522892 10.185555,4.5727857 9.943211,4.587041 C 9.957467,5.0432163 10.114278,5.2356657 10.413643,5.164389 C 10.61322,5.2356657 10.787851,5.1608247 10.937535,4.939866 C 11.087216,4.7189053 11.329559,4.6191167 11.664565,4.6405 C 11.999572,4.6618833 12.231225,4.822258 12.359525,5.121624 C 13.129322,4.636936 13.499965,3.9597997 13.471454,3.090215 C 13.499965,2.6910603 13.414431,2.4415887 13.214852,2.3418 C 12.986767,2.2562667 12.85134,2.135095 12.808571,1.978285 C 12.737292,1.650409 12.851337,1.3795543 13.150706,1.165721 C 12.56623,1.3082763 12.063722,1.408065 11.643181,1.465087 C 11.222642,1.522109 10.841307,1.7003027 10.499175,1.999668 C 10.157044,2.2990333 9.7293797,2.6197823 9.216183,2.961915 C 9.130649,3.1329817 9.201926,3.3468147 9.430014,3.603414 C 9.358736,3.9312893 9.5155467,4.1308657 9.900446,4.202143 C 10.100023,4.1736323 10.285345,4.1201743 10.45641,4.041769 C 10.627476,3.9633637 10.910679,3.9643173 11.096001,4.1496386 z M 14.134335,2.063818 L 14.134335,2.106584 C 14.519229,2.163606 14.740187,1.9283903 14.797209,1.400937 C 14.797209,1.2726377 14.733059,1.2227433 14.60476,1.251254 C 14.419443,1.2227433 14.319656,1.3795543 14.305398,1.721687 L 14.134335,2.063818 z M 12.311797,1.6793013 C 11.482228,1.7745723 11.165621,1.8606773 11.044448,2.01036 C 10.923279,2.1600427 10.855565,2.3631833 10.841308,2.619782 L 10.713009,2.619782 C 10.61322,2.2491393 10.668514,1.8904451 10.894767,1.7760976 C 11.232197,1.6055614 11.632995,1.5705381 12.311797,1.6793013 z M 12.292706,2.1073475 C 12.093127,2.3354355 11.646747,2.541377 11.24759,2.641165 C 11.233335,2.7266983 11.176313,2.7623373 11.076524,2.748082 L 11.076524,2.555632 C 11.048011,2.156478 11.176311,1.9533373 11.461426,1.94621 C 11.746536,1.939082 12.121637,1.9647922 12.292706,2.1073475 z M 10.893812,2.8970015 L 11.01161,3.0560426 C 10.883312,3.5834946 11.296784,3.841237 13.1551,3.902776 L 12.594741,4.009693 C 11.497064,4.0674174 10.89833,3.735275 10.79854,3.485805 C 10.698753,3.2363343 10.765513,3.0680688 10.893812,2.8970015 z "
     id="path1335"
     sodipodi:nodetypes="cccccccsscsscsssscscccscccscccccscccscccccsccssccsscsscccscccsscccsccscccccscccccsc" />
</svg>
