<?xml version="1.0" encoding="UTF-8" standalone="no"?>
<svg
   xmlns:dc="http://purl.org/dc/elements/1.1/"
   xmlns:cc="http://web.resource.org/cc/"
   xmlns:rdf="http://www.w3.org/1999/02/22-rdf-syntax-ns#"
   xmlns:svg="http://www.w3.org/2000/svg"
   xmlns="http://www.w3.org/2000/svg"
   xmlns:sodipodi="http://sodipodi.sourceforge.net/DTD/sodipodi-0.dtd"
   xmlns:inkscape="http://www.inkscape.org/namespaces/inkscape"
   width="11.977046"
   height="11.76"
   id="svg1899"
   sodipodi:version="0.32"
   inkscape:version="0.44"
   sodipodi:docname="US22F41.svg"
   sodipodi:docbase="C:\Program Files\JSesh\fonteUS22">
  <metadata
     id="metadata1906">
    <rdf:RDF>
      <cc:Work
         rdf:about="">
        <dc:format>image/svg+xml</dc:format>
        <dc:type
           rdf:resource="http://purl.org/dc/dcmitype/StillImage" />
        <dc:title>US22F41</dc:title>
        <dc:creator>
          <cc:Agent>
            <dc:title>Serge Thomas</dc:title>
          </cc:Agent>
        </dc:creator>
        <dc:publisher>
          <cc:Agent>
            <dc:title>Serge Rosmorduc</dc:title>
          </cc:Agent>
        </dc:publisher>
        <dc:date>5/11/06</dc:date>
        <dc:description>FCD p. 223 
in ( spHt ).
Urk. IV 292,7 ( Sat ).</dc:description>
        <cc:license
           rdf:resource="http://creativecommons.org/licenses/GPL/2.0/" />
      </cc:Work>
      <cc:License
         rdf:about="http://creativecommons.org/licenses/GPL/2.0/">
        <cc:permits
           rdf:resource="http://web.resource.org/cc/Reproduction" />
        <cc:permits
           rdf:resource="http://web.resource.org/cc/Distribution" />
        <cc:requires
           rdf:resource="http://web.resource.org/cc/Notice" />
        <cc:permits
           rdf:resource="http://web.resource.org/cc/DerivativeWorks" />
        <cc:requires
           rdf:resource="http://web.resource.org/cc/ShareAlike" />
        <cc:requires
           rdf:resource="http://web.resource.org/cc/SourceCode" />
      </cc:License>
    </rdf:RDF>
  </metadata>
  <defs
     id="defs1904" />
  <sodipodi:namedview
     inkscape:window-height="569"
     inkscape:window-width="939"
     inkscape:pageshadow="2"
     inkscape:pageopacity="0.0"
     guidetolerance="10.0"
     gridtolerance="10.0"
     objecttolerance="10.0"
     borderopacity="1.0"
     bordercolor="#666666"
     pagecolor="#ffffff"
     id="base"
     inkscape:zoom="32.057823"
     inkscape:cx="5.988523"
     inkscape:cy="5.8800001"
     inkscape:window-x="66"
     inkscape:window-y="87"
     inkscape:current-layer="svg1899" />
  <path
     style="fill:#000000; stroke:none"
     d=" M 11.957316 6.097047  L 11.957316 6.846846  L 9.550067 6.846846  L 8.997585 8.622684  L 11.937584 8.622684  L 11.937584 9.313287  L 9.313287 9.313287  Q 8.267515 11.76 5.978658 11.76  Q 3.70953 11.76 2.407248 9.313287  L 0 9.313287  L 0 8.622684  L 2.979463 8.622684  L 2.42698 6.846846  L 0 6.846846  L 0 6.097047  L 2.979463 6.097047  L 2.42698 4.340939  L 0 4.340939  L 0 3.650335  L 2.979463 3.650335  L 2.42698 1.874497  L 0 1.874497  L 0 1.144429  L 4.755301 1.144429  Q 4.873691 0 5.978658 0  Q 7.083624 0 7.202013 1.144429  L 11.977046 1.144429  L 11.977046 1.874497  L 9.550067 1.874497  L 8.997585 3.650335  L 11.957316 3.650335  L 11.957316 4.340939  L 9.550067 4.340939  L 8.997585 6.097047  L 11.957316 6.097047  Z  M 6.708724 1.144429  Q 6.610067 0.414362 5.978658 0.414362  Q 5.347249 0.414362 5.24859 1.144429  L 6.708724 1.144429  Z  M 8.662148 1.874497  L 3.295167 1.874497  L 3.867383 3.650335  L 8.109664 3.650335  L 8.662148 1.874497  Z  M 8.662148 4.340939  L 3.295167 4.340939  L 3.867383 6.097047  L 8.109664 6.097047  L 8.662148 4.340939  Z  M 8.662148 6.846846  L 3.295167 6.846846  L 3.867383 8.622684  L 8.109664 8.622684  L 8.662148 6.846846  Z  M 8.4451 9.313287  L 3.295167 9.313287  Q 4.360671 11.069396 5.978658 11.069396  Q 7.596643 11.069396 8.4451 9.313287  Z "
     id="path1901" />
</svg>
