<?xml version="1.0" encoding ="US-ASCII" standalone="yes"?>
<svg width="19.075127" height="5.76">
<path style="fill:#000000; stroke:none" d=" M 16.860882 5.76  Q 16.556967 5.477792 16.003405 4.707155  Q 15.449845 3.936509 14.429568 3.545766  Q 11.564095 4.804842 9.556084 4.609468  Q 7.548074 4.414095 6.299865 3.61089  Q 5.051645 2.807689 4.530649 2.807689  Q 2.72887 3.024771 1.013924 3.741135  Q -0.462231 3.676013 0.210722 2.482066  Q 1.165882 1.48349 2.72887 0.864807  Q 4.291856 0.246125 8.644343 0.018189  Q 12.996834 -0.209747 17.577261 2.199861  Q 18.53241 2.634024 19.075127 3.437224  Q 19.031708 4.023345 18.358755 4.837401  Q 17.685799 5.651459 16.860882 5.76  Z  M 18.271923 3.415517  Q 18.011421 3.111604 15.167634 1.928506  Q 12.323881 0.745413 8.763739 0.777975  Q 5.2036 0.810537 3.40182 1.407512  Q 1.600045 2.004486 1.209298 2.395234  Q 1.035632 2.91623 1.448088 2.785981  Q 3.770858 1.961068 6.126199 1.668009  Q 8.48153 1.37495 11.466408 1.852527  Q 14.451274 2.33011 15.460694 3.089896  Q 16.470135 3.849676 17.012838 4.6963  Q 17.881174 4.414095 18.271923 3.415517  Z  M 13.127074 3.176728  Q 9.979398 2.286693 6.289011 2.503776  Q 7.135626 3.306975 9.252172 3.632598  Q 11.368724 3.958218 13.127074 3.176728  Z "/></svg>
