<?xml version="1.0" encoding ="US-ASCII" standalone="yes"?>
<svg width="17.7798" height="8.64">
<path style="fill:#000000; stroke:none" d=" M 4.132674 2.175787  Q 5.340522 0.799399 6.464101 0.77131  L 13.964007 0.77131  Q 16.57634 0.967937 16.492069 3.10274  Q 16.379709 3.889248 15.621291 5.097097  Q 16.070723 4.731933 16.379709 4.647665  Q 17.390936 4.282503 17.671829 4.661711  Q 17.952726 5.040918 17.503294 5.883605  Q 17.278578 6.220678 17.278578 6.979097  Q 17.924635 8.243128 16.829145 8.524021  Q 16.070723 8.467844 15.284216 7.147635  L 14.890963 7.035277  Q 13.90783 8.72065 12.166278 8.636379  Q 9.13261 8.18695 7.48937 8.341441  Q 5.846133 8.495934 4.104585 8.215038  Q 2.868643 8.130769 2.672017 6.979097  Q 2.672017 5.265634 3.289986 4.282503  Q 2.587748 4.226323 1.29563 4.675754  Q 0.621481 4.956649 0.200138 4.675754  Q -0.221205 4.113965 0.242272 3.229144  Q 0.705749 2.344324 0.747884 1.06625  Q 0.790018 -0.211824 2.025958 0.040982  Q 3.318076 1.670175 4.132674 2.175787  Z  M 15.846005 5.855515  Q 15.396574 5.911693 3.964135 2.934203  Q 3.093359 2.681397 2.672017 2.077474  Q 2.250674 1.473548 1.941689 1.276922  Q 1.632704 1.080295 1.646749 1.726354  Q 1.660793 2.372413 1.26754 3.088696  Q 0.874287 3.804979 1.323719 3.762845  Q 1.773152 3.720711 2.152361 3.495994  Q 2.531569 3.271278 3.683241 3.467905  Q 4.778731 3.608352 10.087655 4.956649  Q 15.396574 6.304947 15.846005 6.75438  Q 16.379709 7.765603 16.646561 7.821783  Q 16.913412 7.877962 16.941504 7.540888  Q 16.379709 6.473484 16.758921 5.981918  Q 17.138128 5.490352 16.913412 5.293725  Q 16.688694 5.097097 15.846005 5.855515  Z  M 4.975358 2.484771  L 14.722425 5.040918  Q 15.64938 4.142055 15.733648 3.439815  Q 16.070723 1.557817 13.964007 1.557817  L 7.447237 1.557817  Q 6.014669 1.529728 4.975358 2.484771  Z  M 4.497837 4.338681  Q 3.936046 4.310592 3.62706 5.757201  Q 3.318076 7.203815 4.273121 7.456617  Q 7.250611 7.653246 8.472507 7.540888  Q 9.6944 7.428528 12.166278 7.877962  Q 13.626933 7.962229 14.188726 6.75438  L 4.497837 4.338681  Z "/></svg>
