<?xml version="1.0" encoding ="US-ASCII" standalone="yes"?>
<svg width="9.832973" height="17.972717">
<path style="fill:#000000; stroke:none" d=" M 4.916487 1.407625  Q 5.6917 -0.0204 7.91534 0  Q 9.751372 0.244804 9.832973 2.080837  Q 9.730971 4.120873 7.91534 4.202474  Q 6.568916 4.120873 6.466914 2.652047  Q 6.507715 1.366824 7.91534 1.326023  L 7.91534 1.978835  Q 7.303329 2.040036 7.282928 2.652047  Q 7.32373 3.325259 7.91534 3.36606  Q 9.016959 3.304858 9.016959 2.101237  Q 9.016959 1.081219 7.91534 0.816014  Q 6.344512 0.816014 5.916104 1.927834  Q 5.487697 3.039654 5.467297 4.488079  Q 5.467297 5.10009 5.467297 5.181692  L 5.467297 17.972717  L 4.365677 17.972717  L 4.365677 5.181692  Q 4.365677 5.10009 4.365677 4.488079  Q 4.345277 3.039654 3.916869 1.927834  Q 3.488461 0.816014 1.917634 0.816014  Q 0.816014 1.081219 0.816014 2.101237  Q 0.816014 3.304858 1.917634 3.36606  Q 2.488844 3.325259 2.529645 2.652047  Q 2.529645 2.040036 1.917634 1.978835  L 1.917634 1.326023  Q 3.304858 1.366824 3.36606 2.652047  Q 3.243657 4.120873 1.917634 4.202474  Q 0.102002 4.120873 0 2.080837  Q 0.081601 0.244804 1.917634 0  Q 4.141273 -0.0204 4.916487 1.407625  L 4.916487 1.407625  Z "/></svg>
