<?xml version="1.0" encoding="UTF-8" standalone="no"?>
<svg
   xmlns:dc="http://purl.org/dc/elements/1.1/"
   xmlns:cc="http://creativecommons.org/ns#"
   xmlns:rdf="http://www.w3.org/1999/02/22-rdf-syntax-ns#"
   xmlns:svg="http://www.w3.org/2000/svg"
   xmlns="http://www.w3.org/2000/svg"
   xmlns:sodipodi="http://sodipodi.sourceforge.net/DTD/sodipodi-0.dtd"
   xmlns:inkscape="http://www.inkscape.org/namespaces/inkscape"
   width="9.25202"
   height="17.983217"
   id="svg3375"
   sodipodi:version="0.32"
   inkscape:version="0.46"
   sodipodi:docname="F62.svg"
   inkscape:output_extension="org.inkscape.output.svg.inkscape">
  <metadata
     id="metadata3382">
    <rdf:RDF>
      <cc:Work
         rdf:about="">
        <dc:format>image/svg+xml</dc:format>
        <dc:type
           rdf:resource="http://purl.org/dc/dcmitype/StillImage" />
      </cc:Work>
    </rdf:RDF>
  </metadata>
  <defs
     id="defs3380">
    <inkscape:perspective
       sodipodi:type="inkscape:persp3d"
       inkscape:vp_x="0 : 8.9916086 : 1"
       inkscape:vp_y="0 : 1000 : 0"
       inkscape:vp_z="9.2520199 : 8.9916086 : 1"
       inkscape:persp3d-origin="4.6260099 : 5.9944057 : 1"
       id="perspective3384" />
  </defs>
  <sodipodi:namedview
     inkscape:window-height="712"
     inkscape:window-width="1024"
     inkscape:pageshadow="2"
     inkscape:pageopacity="0.0"
     guidetolerance="10.0"
     gridtolerance="10.0"
     objecttolerance="10.0"
     borderopacity="1.0"
     bordercolor="#666666"
     pagecolor="#ffffff"
     id="base"
     showgrid="false"
     inkscape:zoom="36.332023"
     inkscape:cx="4.6260099"
     inkscape:cy="5.6887372"
     inkscape:window-x="-4"
     inkscape:window-y="-4"
     inkscape:current-layer="svg3375" />
  <path
     style="fill:#000000; stroke:none"
     d="M 3.147377,3.218008 C 3.682501,3.218008 4.0275153,3.5278167 4.18242,4.147434 L 3.92894,4.147434 C 3.7740353,3.6545567 3.5135143,3.408118 3.147377,3.408118 L 3.147377,3.218008 z M 4.161296,5.330341 L 3.971187,5.330341 C 3.971187,4.837463 3.858529,4.4924487 3.633213,4.295298 C 3.633213,4.4783667 3.5346377,4.569901 3.337487,4.569901 C 3.1685003,4.569901 3.084007,4.49949 3.084007,4.358668 C 3.084007,4.2178453 3.034719,4.069982 2.936143,3.915078 C 2.8375677,3.7601733 3.017116,3.7601733 3.474788,3.915078 C 3.93246,4.069982 4.161296,4.5417363 4.161296,5.330341 z M 3.337487,4.231928 C 3.2952403,4.260092 3.274117,4.2812153 3.274117,4.295298 C 3.274117,4.30938 3.2846787,4.3269827 3.305802,4.348106 C 3.3269253,4.3692293 3.344528,4.379791 3.35861,4.379791 C 3.372692,4.379791 3.3902947,4.3692293 3.411418,4.348106 C 3.4325413,4.3269827 3.443103,4.30938 3.443103,4.295298 C 3.443103,4.2812153 3.4325413,4.267133 3.411418,4.253051 C 3.3902947,4.238969 3.365651,4.231928 3.337487,4.231928 z M 4.62601,7.379304 L 5.175217,7.337058 L 5.175217,7.294811 L 4.62601,7.252564 L 4.076803,7.294811 L 4.076803,7.337058 L 4.62601,7.379304 z M 7.081933,10.421064 C 6.2792463,8.5340467 5.963821,7.4004277 5.935657,7.020207 C 5.935657,7.358181 5.8441223,7.5306883 5.661053,7.537729 C 5.4779843,7.5447703 5.316039,7.5834967 5.175217,7.653908 C 5.0343943,7.7243187 4.8478047,7.759524 4.615448,7.759524 C 4.3830913,7.759524 4.2000227,7.7243187 4.066242,7.653908 C 3.9324607,7.5834967 3.770515,7.5447703 3.580405,7.537729 C 3.390295,7.5306883 3.29524,7.358181 3.29524,7.020207 C 3.281158,7.4004277 2.9727737,8.5340467 2.170087,10.421064 L 7.081933,10.421064 z M 5.682177,6.492124 L 5.618806,6.492124 C 5.618806,6.6611107 5.5202307,6.7491247 5.32308,6.756166 C 5.1259287,6.7632067 5.027353,6.6470283 5.027353,6.407631 C 5.027353,6.2386443 5.1259287,6.1259867 5.32308,6.069658 C 5.1681753,6.0133287 5.0132707,6.0133287 4.858366,6.069658 C 4.703462,6.1259867 4.5485577,6.1259867 4.393653,6.069658 C 4.2387483,6.0133287 4.083844,6.0133287 3.92894,6.069658 C 4.1260913,6.1259867 4.224667,6.2386443 4.224667,6.407631 C 4.224667,6.6470283 4.1260913,6.7632067 3.92894,6.756166 C 3.7317887,6.7491247 3.633213,6.6611107 3.633213,6.492124 L 3.569843,6.492124 C 3.5416783,6.8160153 3.5980073,6.9955637 3.73883,7.030769 C 3.879652,7.065975 4.0627207,7.051893 4.288036,6.988523 C 4.513352,6.9251523 4.7386677,6.9251523 4.963983,6.988523 C 5.189299,7.051893 5.372368,7.065975 5.51319,7.030769 C 5.654012,6.9955637 5.710341,6.8160153 5.682177,6.492124 z M 5.914533,4.231928 C 5.8722863,4.231928 5.844122,4.238969 5.83004,4.253051 C 5.815958,4.267133 5.808917,4.2812153 5.808917,4.295298 C 5.808917,4.30938 5.815958,4.3269827 5.83004,4.348106 C 5.844122,4.3692293 5.8652453,4.379791 5.89341,4.379791 C 5.907492,4.379791 5.9250947,4.3692293 5.946218,4.348106 C 5.9673413,4.3269827 5.977903,4.30938 5.977903,4.295298 C 5.977903,4.2812153 5.9567797,4.260092 5.914533,4.231928 z M 5.090723,5.330341 C 5.076641,4.5417363 5.3019567,4.069982 5.76667,3.915078 C 6.2313833,3.7601733 6.4109317,3.7601733 6.305315,3.915078 C 6.1996983,4.069982 6.1504107,4.2178453 6.157452,4.358668 C 6.1644927,4.49949 6.0764787,4.569901 5.89341,4.569901 C 5.7103407,4.569901 5.618806,4.4783667 5.618806,4.295298 C 5.3934907,4.4924487 5.280833,4.837463 5.280833,5.330341 L 5.090723,5.330341 z M 6.08352,3.408118 C 5.7314647,3.408118 5.4779847,3.6545567 5.32308,4.147434 L 5.048477,4.147434 C 5.203381,3.5278167 5.5483953,3.218008 6.08352,3.218008 L 6.08352,3.408118 z M 5.83004,2.901158 L 5.83004,3.112391 C 5.463902,2.9574863 5.0625587,2.880034 4.62601,2.880034 C 4.1894613,2.880034 3.788118,2.9574863 3.42198,3.112391 L 3.42198,2.901158 C 3.788118,2.7180887 4.1894613,2.626554 4.62601,2.626554 C 5.0625587,2.626554 5.463902,2.7180887 5.83004,2.901158 z M 5.83004,6.154151 C 6.1539307,5.6049443 6.3862873,4.8726687 6.52711,3.957324 C 6.513028,3.8869133 6.710179,3.8305847 7.118563,3.788338 C 8.019825,3.8305847 8.590155,3.6545567 8.829553,3.260254 C 8.674649,3.0912673 8.4070867,3.006774 8.026866,3.006774 C 7.4776593,3.5278167 6.9566173,3.788338 6.46374,3.788338 L 6.46374,3.598228 C 6.7031373,3.598228 7.0340693,3.4644467 7.456536,3.196884 C 7.188974,3.323624 6.8298773,3.386994 6.379246,3.386994 L 6.379246,3.196884 L 6.569356,3.196884 L 6.52711,3.091268 L 6.21026,3.154638 C 5.9990267,2.9997333 5.949739,2.7673767 6.062397,2.457568 C 5.555437,2.1336767 5.0766413,1.971731 4.62601,1.971731 C 4.1612967,1.971731 3.682501,2.1336767 3.189623,2.457568 C 3.302281,2.7673767 3.2529933,2.9997333 3.04176,3.154638 L 2.703787,3.091268 L 2.682663,3.196884 L 2.85165,3.196884 L 2.85165,3.386994 C 2.4151013,3.386994 2.0630457,3.323624 1.795483,3.196884 C 2.2038677,3.4644467 2.5348,3.598228 2.78828,3.598228 L 2.78828,3.788338 C 2.28132,3.788338 1.7532367,3.5278167 1.20403,3.006774 C 0.82381,3.006774 0.563289,3.0912673 0.422467,3.260254 C 0.66186433,3.6545567 1.225153,3.8305847 2.112333,3.788338 C 2.5347997,3.8305847 2.738992,3.8869133 2.72491,3.957324 C 2.865732,4.8726687 3.0980887,5.6049443 3.42198,6.154151 C 3.576884,5.7598483 3.8162817,5.5908617 4.140173,5.647191 C 4.4640643,5.7035197 4.7879553,5.7035197 5.111846,5.647191 C 5.4357373,5.5908617 5.6751353,5.7598483 5.83004,6.154151 z M 4.62601,1.549264 C 5.287874,1.549264 5.8863683,1.7534563 6.421493,2.161841 C 6.8298777,1.9928543 7.2805087,1.4154833 7.773386,0.429728 C 7.871962,0.10583667 7.998702,-0.034985667 8.153606,0.007261 C 8.2944287,0.049507667 8.3296343,0.22553533 8.259223,0.535344 C 7.9071677,1.7323333 7.407249,2.53502 6.759467,2.943404 L 6.78059,3.049021 L 8.04799,2.668801 C 8.442292,2.668801 8.8436353,2.8096233 9.25202,3.091268 C 9.25202,3.8094613 8.7661833,4.168558 7.79451,4.168558 C 7.3861253,4.0559 7.0974397,4.062941 6.928453,4.189681 C 6.7453843,4.950121 6.534151,5.57678 6.294753,6.069658 C 6.2102597,6.5907 6.7031373,8.2679087 7.773386,10.901284 L 5.063983,10.901284 L 5.063983,17.983217 L 4.188036,17.983217 L 4.188036,10.901284 L 1.478633,10.901284 C 2.5488823,8.2679087 3.0417603,6.5907 2.957267,6.069658 C 2.717869,5.57678 2.5066357,4.950121 2.323567,4.189681 C 2.1545803,4.062941 1.8658947,4.0559 1.45751,4.168558 C 0.48583667,4.168558 0,3.8094613 0,3.091268 C 0.40838467,2.8096233 0.809728,2.668801 1.20403,2.668801 L 2.450307,3.049021 L 2.492553,2.943404 C 1.844771,2.53502 1.3448523,1.7323333 0.992797,0.535344 C 0.92238567,0.22553533 0.95055,0.049507667 1.07729,0.007261 C 1.2321947,-0.034985667 1.3589347,0.10583667 1.45751,0.429728 C 1.96447,1.4154833 2.4221423,1.9928543 2.830527,2.161841 C 3.365651,1.7534563 3.9641453,1.549264 4.62601,1.549264 z"
     id="path3377"
     sodipodi:nodetypes="ccccccccssssccsssssscccccccccsssssssccccsscsscssccssssccssssssccssssccccccccccsccscccccccccccccccsccccccccccccccssccccsccccccccccccccccccccccsccc" />
</svg>
