<?xml version="1.0" encoding="UTF-8" standalone="no"?>
<svg
   xmlns:dc="http://purl.org/dc/elements/1.1/"
   xmlns:cc="http://creativecommons.org/ns#"
   xmlns:rdf="http://www.w3.org/1999/02/22-rdf-syntax-ns#"
   xmlns:svg="http://www.w3.org/2000/svg"
   xmlns="http://www.w3.org/2000/svg"
   xmlns:sodipodi="http://sodipodi.sourceforge.net/DTD/sodipodi-0.dtd"
   xmlns:inkscape="http://www.inkscape.org/namespaces/inkscape"
   width="17.43907"
   height="17.96875"
   id="svg2440"
   sodipodi:version="0.32"
   inkscape:version="0.46"
   sodipodi:docname="F65.svg"
   inkscape:output_extension="org.inkscape.output.svg.inkscape"
   version="1.0">
  <metadata
     id="metadata2447">
    <rdf:RDF>
      <cc:Work
         rdf:about="">
        <dc:format>image/svg+xml</dc:format>
        <dc:type
           rdf:resource="http://purl.org/dc/dcmitype/StillImage" />
      </cc:Work>
    </rdf:RDF>
  </metadata>
  <defs
     id="defs2445">
    <inkscape:perspective
       sodipodi:type="inkscape:persp3d"
       inkscape:vp_x="0 : 8.9887915 : 1"
       inkscape:vp_y="0 : 1000 : 0"
       inkscape:vp_z="6.7065592 : 8.9887915 : 1"
       inkscape:persp3d-origin="3.3532796 : 5.9925276 : 1"
       id="perspective2449" />
  </defs>
  <sodipodi:namedview
     inkscape:window-height="712"
     inkscape:window-width="1024"
     inkscape:pageshadow="2"
     inkscape:pageopacity="0.0"
     guidetolerance="10.0"
     gridtolerance="10.0"
     objecttolerance="10.0"
     borderopacity="1.0"
     bordercolor="#666666"
     pagecolor="#ffffff"
     id="base"
     showgrid="false"
     inkscape:zoom="28.215652"
     inkscape:cx="8.7195353"
     inkscape:cy="8.984375"
     inkscape:window-x="-4"
     inkscape:window-y="-4"
     inkscape:current-layer="svg2440" />
  <path
     style="fill:#000000;stroke:none"
     d="M 10.53125,0 C 10.53125,0.613934 10.403158,1.1017247 10.15625,1.46875 C 9.9093413,1.835776 9.3317073,2.1751299 8.4375,2.46875 C 8.1839187,2.4153647 8.0309247,2.4199213 7.9375,2.5 C 7.8440753,2.580078 7.7114267,2.5734054 7.53125,2.5 C 7.351074,2.4265953 7.2229821,2.4511721 7.15625,2.53125 C 5.7949187,2.037434 5.111654,1.277672 5.125,0.25 C 5.0716147,0.10319 4.9996747,0.040364668 4.90625,0.09375 C 4.7194007,0.227214 4.625,0.46549401 4.625,0.8125 C 4.625,1.159506 4.7576494,1.5978179 5.03125,2.125 C 5.3048513,2.6521827 5.8151027,3.0859368 6.5625,3.40625 C 6.5358073,3.619792 6.5491533,3.7861328 6.5625,3.90625 C 6.575846,4.0263673 6.4410813,4.4355453 6.1875,5.15625 C 5.9873047,5.3297533 5.875,5.5319004 5.875,5.71875 C 5.875,5.918946 5.919922,6.0449221 6,6.125 C 6,6.3785813 6.4540993,6.5000001 7.375,6.5 C 7.5485033,6.4733073 7.714844,6.3203126 7.875,6 L 8.375,6 L 8.375,7.625 L 0,7.625 C 1.5976487,10.866274 4.277782,12.50503 8.09375,12.5625 C 8.1902728,12.560758 8.2799668,12.566503 8.375,12.5625 L 8.375,14.21875 C 7.6542953,14.539063 7.3124999,15.083006 7.3125,15.84375 L 6.1875,15.84375 L 6.1875,16.5625 L 7.3125,16.5625 C 7.526042,17.496747 7.8678374,17.96875 8.375,17.96875 L 8,16.5625 L 9.5,16.5625 L 9.0625,17.96875 C 9.5696627,17.96875 9.9518219,17.496747 10.21875,16.5625 L 11.34375,16.5625 L 11.34375,15.84375 L 10.21875,15.84375 C 10.21875,15.06966 9.8365908,14.525717 9.0625,14.21875 L 9.0625,12.5 C 11.760647,12.217814 13.819383,10.97214 15.21875,8.71875 C 14.850946,9.7991746 14.690016,10.632563 14.71875,11.21875 C 14.747485,11.80494 14.969482,12.262944 15.40625,12.625 C 15.843018,12.987058 16.307487,12.987058 16.75,12.625 C 17.192516,12.262944 17.420261,11.80494 17.4375,11.21875 C 17.454742,10.632563 17.329375,9.9658525 17.09375,9.21875 C 16.858125,8.471648 16.452926,7.9353345 15.84375,7.625 L 9.0625,7.625 L 9.0625,6 C 9.4228527,6 9.7263993,5.8045259 10,5.4375 C 10.273601,5.0704747 10.40625,4.3759794 10.40625,3.375 L 10.71875,2.46875 L 10.09375,2.625 C 10.787762,2.0511053 11.097981,1.4622407 11.03125,0.875 C 10.964518,0.28775867 10.888022,0 10.78125,0 L 10.53125,0 z M 8.1875,2.78125 C 8.3476567,2.9013673 8.4241533,3.1080725 8.4375,3.375 L 8.34375,3.4375 L 8.5625,3.75 C 8.6692707,3.9101567 8.7794594,3.9550779 8.90625,3.875 C 9.0330407,3.7949213 9.2106114,3.7657873 9.4375,3.8125 C 9.6643887,3.8592127 9.8307285,3.8434254 9.9375,3.75 C 9.9108073,4.3372413 9.7872734,4.7867835 9.59375,5.09375 C 9.400228,5.4007173 8.7506541,5.5266934 7.65625,5.5 C 7.642904,5.8736993 7.5214852,6.0624998 7.28125,6.0625 C 7.1611327,5.995768 7.0126961,5.9957678 6.8125,6.0625 C 6.5055333,5.9824213 6.34375,5.8564452 6.34375,5.65625 C 6.4371747,5.536132 6.497884,5.4666338 6.53125,5.5 C 6.564616,5.533366 6.5712893,5.5670566 6.53125,5.59375 C 6.4912107,5.6204427 6.4866533,5.6944986 6.5,5.78125 C 6.5133467,5.8680013 6.5673827,5.8883467 6.6875,5.875 C 6.8076173,5.861654 6.8728839,5.7963874 6.90625,5.65625 C 6.939616,5.5161133 6.8697921,5.3701173 6.65625,5.25 C 6.8964847,4.5159487 7.0358073,3.9807954 7.0625,3.59375 C 7.4895847,3.4736327 7.9166659,3.47819 8.34375,3.625 L 8.34375,3.53125 C 7.9433587,3.3577467 7.565756,3.2949214 7.21875,3.375 C 7.3121747,3.241536 7.3841146,3.0527346 7.4375,2.8125 C 7.6910813,2.9059247 7.9339188,2.9013673 8.1875,2.78125 z M 8.5625,3.75 C 7.9619127,3.6432287 7.4944674,3.6162106 7.1875,3.65625 C 7.2141927,3.8430993 7.2703447,4.0048827 7.34375,4.125 C 7.4171553,4.245118 7.5048826,4.3598635 7.625,4.5 C 7.7451173,4.6401373 7.8124999,4.8356115 7.8125,5.0625 L 7.90625,5.0625 C 7.9195967,4.782226 7.8430992,4.4944673 7.65625,4.1875 C 7.94987,4.120768 8.2555328,3.9768887 8.5625,3.75 z M 10.25,2.78125 C 10.10319,3.3151053 9.921062,3.5870767 9.6875,3.59375 C 9.453938,3.6004227 9.2493494,3.6070961 9.0625,3.59375 C 8.91569,3.59375 8.8212894,3.6253252 8.78125,3.71875 L 8.65625,3.53125 L 8.78125,3.46875 C 8.7945967,3.241862 9.2757139,3.0081387 10.25,2.78125 z M 10.03125,2.9375 C 9.8844395,2.9641927 9.711426,3.013672 9.53125,3.09375 C 9.3510742,3.1738287 9.1643887,3.2773433 8.9375,3.4375 C 8.9508458,3.4775394 9.0385733,3.5 9.21875,3.5 C 9.3989261,3.5 9.524902,3.5066733 9.625,3.5 C 9.7250974,3.4933266 9.8282873,3.441732 9.875,3.375 C 9.9217128,3.3082681 9.924154,3.2587893 9.9375,3.21875 C 9.9508465,3.1787114 9.923828,3.1944987 9.84375,3.28125 C 9.7636713,3.3680013 9.6713873,3.419596 9.53125,3.40625 C 9.3911135,3.3929034 9.3507487,3.3546553 9.4375,3.28125 C 9.5242511,3.2078453 9.7242827,3.0976567 10.03125,2.9375 z M 7.375,3.8125 L 7.59375,3.8125 C 7.5845694,3.8213844 7.5701999,3.8309169 7.5625,3.84375 C 7.5224613,3.910482 7.5449219,3.9599609 7.625,4 L 7.5,4.0625 L 7.375,3.8125 z M 7.8125,3.84375 L 7.96875,3.84375 L 7.78125,3.9375 C 7.8012693,3.904134 7.8191732,3.8671062 7.8125,3.84375 z M 1.5,8.46875 L 14.25,8.46875 C 12.744303,10.687069 10.618805,11.770473 7.90625,11.71875 C 5.1936953,11.667028 3.063168,10.583624 1.5,8.46875 z M 16.0625,9.125 C 16.384328,9.8146326 16.51724,10.439316 16.5,11.03125 C 16.482758,11.623186 16.349847,11.90625 16.0625,11.90625 C 15.775152,11.90625 15.605245,11.623186 15.59375,11.03125 C 15.582257,10.439316 15.752164,9.8146322 16.0625,9.125 z M 8.78125,14.9375 C 9.2750667,14.9375 9.5,15.229816 9.5,15.84375 L 8,15.84375 C 8,15.229816 8.2740874,14.9375 8.78125,14.9375 z"
     id="path2442" />
</svg>
