<?xml version="1.0" encoding="UTF-8" standalone="no"?>
<svg
   xmlns:dc="http://purl.org/dc/elements/1.1/"
   xmlns:cc="http://creativecommons.org/ns#"
   xmlns:rdf="http://www.w3.org/1999/02/22-rdf-syntax-ns#"
   xmlns:svg="http://www.w3.org/2000/svg"
   xmlns="http://www.w3.org/2000/svg"
   xmlns:sodipodi="http://sodipodi.sourceforge.net/DTD/sodipodi-0.dtd"
   xmlns:inkscape="http://www.inkscape.org/namespaces/inkscape"
   width="6.659399"
   height="17.977583"
   id="svg2505"
   sodipodi:version="0.32"
   inkscape:version="0.46"
   sodipodi:docname="F66.svg"
   inkscape:output_extension="org.inkscape.output.svg.inkscape">
  <metadata
     id="metadata2512">
    <rdf:RDF>
      <cc:Work
         rdf:about="">
        <dc:format>image/svg+xml</dc:format>
        <dc:type
           rdf:resource="http://purl.org/dc/dcmitype/StillImage" />
      </cc:Work>
    </rdf:RDF>
  </metadata>
  <defs
     id="defs2510">
    <inkscape:perspective
       sodipodi:type="inkscape:persp3d"
       inkscape:vp_x="0 : 8.9887915 : 1"
       inkscape:vp_y="0 : 1000 : 0"
       inkscape:vp_z="6.659399 : 8.9887915 : 1"
       inkscape:persp3d-origin="3.3296995 : 5.9925276 : 1"
       id="perspective2514" />
  </defs>
  <sodipodi:namedview
     inkscape:window-height="480"
     inkscape:window-width="640"
     inkscape:pageshadow="2"
     inkscape:pageopacity="0.0"
     guidetolerance="10.0"
     gridtolerance="10.0"
     objecttolerance="10.0"
     borderopacity="1.0"
     bordercolor="#666666"
     pagecolor="#ffffff"
     id="base"
     showgrid="false" />
  <path
     style="fill:#000000; stroke:none"
     d="M 0.352466,3.992387 C 0.30976267,4.8179763 0.80084567,5.2805907 1.825715,5.38023 C 1.3132803,5.08131 0.94318867,4.6685157 0.71544,4.141847 L 0.352466,3.992387 z M 0.928955,4.205901 C 1.2705777,4.7325697 1.5908493,5.0599583 1.88977,5.188067 L 1.911121,5.166716 C 1.8399497,5.152482 1.512561,4.8322103 0.928955,4.205901 z M 2.551664,5.593745 C 2.9929273,5.593745 3.213559,5.743205 3.213559,6.042125 L 3.213559,6.447803 L 2.722476,6.447803 C 2.5089613,6.447803 2.402204,6.3659557 2.402204,6.202261 C 2.402204,6.0385663 2.4627,5.9531607 2.583692,5.946044 C 2.7046833,5.9389267 2.8221163,6.020774 2.935991,6.191586 C 2.935991,5.9496027 2.807882,5.828611 2.551664,5.828611 L 2.551664,5.593745 z M 4.11032,5.828611 C 3.8398687,5.828611 3.704643,5.9496027 3.704643,6.191586 C 3.818517,6.020774 3.9395083,5.9389267 4.067617,5.946044 C 4.1957257,5.9531607 4.2562213,6.0385663 4.249104,6.202261 C 4.2419873,6.3659557 4.1316717,6.447803 3.918157,6.447803 L 3.427074,6.447803 L 3.427074,6.042125 C 3.427074,5.743205 3.6548227,5.593745 4.11032,5.593745 L 4.11032,5.828611 z M 5.711679,4.205901 C 5.1280723,4.8322103 4.8006833,5.152482 4.729512,5.166716 L 4.750863,5.188067 C 5.0497837,5.0599583 5.3700557,4.7325697 5.711679,4.205901 z M 5.925193,4.141847 C 5.7116783,4.6685157 5.3415867,5.08131 4.814918,5.38023 C 5.8397867,5.2805907 6.3308697,4.8179763 6.288167,3.992387 L 5.925193,4.141847 z M 3.725994,8.62565 C 3.4555423,8.62565 3.1850907,8.62565 2.914639,8.62565 C 3.1507527,9.0712968 3.6633027,8.8595301 3.725994,8.62565 z M 2.957342,17.977583 L 2.957342,9.031327 C 2.8149993,8.9886243 2.7153593,8.8533987 2.658422,8.62565 C 2.4306733,8.0705127 2.3096817,7.725331 2.295447,7.590105 C 2.281213,7.454879 2.181573,7.2911847 1.996527,7.099022 C 1.811481,6.9068587 1.718958,6.5545597 1.718958,6.042125 L 1.718958,5.636448 C 0.480574,5.5795107 -0.088797667,4.9033817 0.010843,3.608061 C 0.63715167,3.608061 1.099766,3.8215753 1.398686,4.248604 C 1.6976067,4.6756327 1.9182383,4.9104987 2.060581,4.953202 L 2.210041,4.803741 C 1.9680583,4.490587 1.747427,3.8927467 1.548147,3.01022 C 1.3488663,2.127694 1.025036,1.4230963 0.576656,0.896427 C 0.12827533,0.36975833 -0.003392,0.074396667 0.181654,0.010342 C 0.3667,-0.053712 0.718999,0.17403667 1.238551,0.693588 C 1.7581023,1.21314 2.0961667,1.875035 2.252744,2.679273 C 2.4093213,3.4835103 2.6370703,4.0422063 2.935991,4.355361 L 3.320317,4.355361 L 3.320317,4.739687 L 2.914639,4.739687 C 2.4876103,4.9532017 2.2029243,5.394465 2.060581,6.063477 C 2.060581,6.447803 2.2100413,6.8534803 2.508962,7.280509 C 2.622836,7.679069 2.704683,7.9851063 2.754503,8.198621 C 2.804323,8.4121357 2.879053,8.518893 2.978693,8.518893 C 3.1352703,8.518893 3.213559,8.4548387 3.213559,8.32673 C 3.213559,8.1701527 3.113919,8.091864 2.914639,8.091864 C 2.914639,7.892584 2.9786933,7.792944 3.106802,7.792944 C 3.206442,7.792944 3.2776137,7.842764 3.320317,7.942404 C 3.348785,7.842764 3.4199563,7.792944 3.533831,7.792944 C 3.6619397,7.792944 3.725994,7.892584 3.725994,8.091864 C 3.526714,8.091864 3.427074,8.1701527 3.427074,8.32673 C 3.427074,8.4548387 3.5053627,8.518893 3.66194,8.518893 C 3.76158,8.518893 3.83631,8.4121357 3.88613,8.198621 C 3.93595,7.9851063 4.017797,7.679069 4.131671,7.280509 C 4.4305917,6.8534803 4.580052,6.447803 4.580052,6.063477 C 4.4377087,5.394465 4.1530227,4.9532017 3.725994,4.739687 L 3.320317,4.739687 L 3.320317,4.355361 L 3.704643,4.355361 C 4.003563,4.0422063 4.2313117,3.4835103 4.387889,2.679273 C 4.5444663,1.875035 4.8825307,1.21314 5.402082,0.693588 C 5.921634,0.17403667 6.273933,-0.053712 6.458979,0.010342 C 6.6440243,0.074396667 6.512357,0.36975833 6.063977,0.896427 C 5.615597,1.4230963 5.2917667,2.127694 5.092486,3.01022 C 4.893206,3.8927467 4.6725747,4.490587 4.430592,4.803741 L 4.580052,4.953202 C 4.7223947,4.9104987 4.9430263,4.6756327 5.241947,4.248604 C 5.540867,3.8215753 6.0105987,3.608061 6.651142,3.608061 C 6.736548,4.9033817 6.160059,5.5795107 4.921675,5.636448 L 4.921675,6.042125 C 4.921675,6.5545597 4.829152,6.9068587 4.644106,7.099022 C 4.45906,7.2911847 4.3629787,7.454879 4.355862,7.590105 C 4.3487447,7.725331 4.2241943,8.0705127 3.982211,8.62565 C 3.9252743,8.8533987 3.8256343,8.9886243 3.683291,9.031327 L 3.683291,17.977583 L 2.957342,17.977583 z"
     id="path2507"
     sodipodi:nodetypes="ccccccccccccsscccccsscccccccccccccccccccsscccsccsssssccccccssscssscsssccccccsssssccscccsscccc" />
</svg>
