<?xml version="1.0" encoding="UTF-8" standalone="no"?>
<!-- Created with Inkscape (http://www.inkscape.org/) -->
<svg
   xmlns:dc="http://purl.org/dc/elements/1.1/"
   xmlns:cc="http://web.resource.org/cc/"
   xmlns:rdf="http://www.w3.org/1999/02/22-rdf-syntax-ns#"
   xmlns:svg="http://www.w3.org/2000/svg"
   xmlns="http://www.w3.org/2000/svg"
   xmlns:sodipodi="http://sodipodi.sourceforge.net/DTD/sodipodi-0.dtd"
   xmlns:inkscape="http://www.inkscape.org/namespaces/inkscape"
   width="1800"
   height="1800"
   id="svg2"
   sodipodi:version="0.32"
   inkscape:version="0.44"
   version="1.0"
   sodipodi:docbase="/home/rosmord/Travail/Gsigns/Distribution"
   sodipodi:docname="F67.svg">
  <defs
     id="defs4" />
  <sodipodi:namedview
     id="base"
     pagecolor="#ffffff"
     bordercolor="#666666"
     borderopacity="1.0"
     inkscape:pageopacity="0.0"
     inkscape:pageshadow="2"
     inkscape:zoom="0.20777778"
     inkscape:cx="376.16328"
     inkscape:cy="1180.2568"
     inkscape:document-units="px"
     inkscape:current-layer="layer1"
     width="1800px"
     height="1800px"
     inkscape:window-width="1255"
     inkscape:window-height="953"
     inkscape:window-x="25"
     inkscape:window-y="0" />
  <metadata
     id="metadata7">
    <rdf:RDF>
      <cc:Work
         rdf:about="">
        <dc:format>image/svg+xml</dc:format>
        <dc:type
           rdf:resource="http://purl.org/dc/dcmitype/StillImage" />
        <dc:creator>
          <cc:Agent>
            <dc:title>S. Thomas et S. Rosmorduc</dc:title>
          </cc:Agent>
        </dc:creator>
        <dc:description>S. Rosmorduc : Création de F67 à partir d'une tête de canidé de S. Thomas</dc:description>
      </cc:Work>
    </rdf:RDF>
  </metadata>
  <g
     inkscape:label="Calque 1"
     inkscape:groupmode="layer"
     id="layer1">
    <path
       style="fill:black;stroke:none"
       d="M 1032.4062,589.54328 C 1024.2594,590.1988 1024.6597,600.55667 1023.9062,606.63703 C 1024.686,697.91754 1010.899,788.16222 995.09375,877.79328 C 989.07444,905.76029 984.49346,935.56114 967.71875,959.38703 C 924.31614,998.34593 851.60553,981.20635 797.125,985.91828 C 705.34655,996.77009 642.39399,1018.6871 591.65625,1096.887 C 524.62795,1128.839 417.62726,1118.0251 343.4375,1119.6683 C 320.28103,1121.2773 295.91315,1121.1394 274.59375,1131.1058 C 265.27169,1135.1582 260.242,1146.1894 263.09375,1156.1683 C 281.603,1205.8085 317.88776,1250.9141 347.6875,1294.762 C 493.51523,1305.6132 638.80967,1296.3908 784.3125,1296.8245 C 832.38806,1298.6894 896.28825,1311.2439 925.78125,1353.9808 C 939.70435,1376.2663 951.73658,1399.5886 963.0625,1423.2932 L 0,1423.2932 L 0,1493.2932 L 995.0625,1493.2932 C 1031.1961,1575.9456 1065.6271,1659.4524 1095.0625,1744.762 C 1101.8126,1764.9679 1107.991,1785.7262 1111.0938,1806.9182 C 1138.008,1798.5385 1163.84,1786.5741 1189.2812,1774.5745 C 1293.7386,1678.847 1402.8602,1588.2578 1508.0625,1493.2932 L 1800,1493.2932 L 1800,1423.2932 L 1452.875,1423.2932 C 1350.0746,1371.8516 1270.2003,1288.3535 1206.0625,1194.4808 C 1187.8487,1165.1118 1170.4139,1132.3285 1171.4062,1096.7933 C 1172.282,1078.5192 1180.2654,1061.5838 1183.4688,1043.6683 C 1203.4094,905.20284 1210.1034,707.15552 1090.5,607.07453 C 1073.4819,595.48842 1053.0827,589.19374 1032.4062,589.54328 z M 1086.4375,719.54328 C 1093.1485,720.94259 1096.113,728.8245 1098.625,734.35578 C 1115.4296,771.3577 1122.149,812.23792 1126.1562,852.51203 C 1133.8498,929.83544 1125.7127,1010.9927 1090.0625,1081.012 C 1084.6449,1091.6525 1076.0618,1101.7379 1077.7188,1114.4808 C 1111.2039,1240.4998 1226.2911,1338.6826 1319.2812,1423.2932 L 1052.7188,1423.2932 C 1026.1851,1367.5059 997.46525,1312.8008 962.375,1261.887 C 954.33999,1250.1728 943.00624,1241.1195 929.65625,1236.012 C 832.65687,1204.8082 722.23358,1218.2306 622,1224.5745 C 604.78584,1224.3745 521.88789,1226.0647 525.71875,1196.6058 C 548.24963,1173.157 588.20145,1177.2845 618.03125,1171.6683 C 682.47046,1153.152 711.71341,1088.8553 779.75,1080.2933 C 852.40562,1076.6373 926.47216,1070.9347 994.9375,1044.6995 C 1043.9616,1020.6106 1049.5692,962.94165 1057.7188,914.60578 C 1066.0883,854.27114 1069.5324,793.27438 1079.875,733.23078 C 1081.5756,729.08747 1080.7467,720.56897 1086.4375,719.54328 z M 874.25,1081.512 C 845.01091,1081.719 816.98732,1097.0208 791.625,1110.4183 C 808.20768,1135.3178 849.79451,1133.0433 867.90625,1133.0433 C 892.2769,1133.0433 965.71097,1118.8674 988.5625,1119.8558 C 957.51999,1101.8678 910.7758,1081.2534 874.25,1081.512 z M 1085.5312,1493.2932 L 1397.2812,1493.2932 L 1167.5625,1693.6682 C 1142.4782,1626.2204 1114.8444,1559.1896 1085.5312,1493.2932 z "
       id="path1874"
       sodipodi:nodetypes="cccccccccccccccccccccccccccccssscccccccccccccccscscccc" />
  </g>
</svg>
