<?xml version="1.0" encoding="UTF-8" standalone="no"?>
<svg
   xmlns:dc="http://purl.org/dc/elements/1.1/"
   xmlns:cc="http://creativecommons.org/ns#"
   xmlns:rdf="http://www.w3.org/1999/02/22-rdf-syntax-ns#"
   xmlns:svg="http://www.w3.org/2000/svg"
   xmlns="http://www.w3.org/2000/svg"
   xmlns:sodipodi="http://sodipodi.sourceforge.net/DTD/sodipodi-0.dtd"
   xmlns:inkscape="http://www.inkscape.org/namespaces/inkscape"
   width="15.927227"
   height="17.96875"
   id="svg2917"
   sodipodi:version="0.32"
   inkscape:version="0.46"
   sodipodi:docname="F67A.svg"
   inkscape:output_extension="org.inkscape.output.svg.inkscape"
   version="1.0">
  <metadata
     id="metadata2924">
    <rdf:RDF>
      <cc:Work
         rdf:about="">
        <dc:format>image/svg+xml</dc:format>
        <dc:type
           rdf:resource="http://purl.org/dc/dcmitype/StillImage" />
      </cc:Work>
    </rdf:RDF>
  </metadata>
  <defs
     id="defs2922">
    <inkscape:perspective
       sodipodi:type="inkscape:persp3d"
       inkscape:vp_x="0 : 8.9887915 : 1"
       inkscape:vp_y="0 : 1000 : 0"
       inkscape:vp_z="15.942849 : 8.9887915 : 1"
       inkscape:persp3d-origin="7.9714246 : 5.9925276 : 1"
       id="perspective2926" />
  </defs>
  <sodipodi:namedview
     inkscape:window-height="712"
     inkscape:window-width="1024"
     inkscape:pageshadow="2"
     inkscape:pageopacity="0.0"
     guidetolerance="10.0"
     gridtolerance="10.0"
     objecttolerance="10.0"
     borderopacity="1.0"
     bordercolor="#666666"
     pagecolor="#ffffff"
     id="base"
     showgrid="false"
     inkscape:zoom="28.215652"
     inkscape:cx="7.9738867"
     inkscape:cy="10.410861"
     inkscape:window-x="-4"
     inkscape:window-y="-4"
     inkscape:current-layer="svg2917" />
  <path
     style="fill:#000000;stroke:none"
     d="M 6.5522266,0 C 6.3842833,0 6.3022268,0.18009531 6.3022266,0.53125 L 6.3022266,3.75 C 6.3022266,3.9332113 6.2354382,4.03125 6.0522266,4.03125 C 5.3346499,4.1228553 4.7783814,4.3516131 4.4272266,4.6875 C 3.9233966,5.1913307 3.3086874,5.5689335 2.5834766,5.84375 C 1.8582666,6.1185667 1.1934653,6.2910286 0.55222659,6.375 C -0.089012078,6.458972 -0.17106875,6.7955469 0.30222659,7.40625 C 0.34802926,7.5894607 0.49687462,7.8015214 0.80222659,8 C 0.80222659,8.748112 1.6039505,9.034595 3.1459766,8.84375 C 4.6880026,8.6529047 5.7540234,8.7767045 6.3647266,9.25 C 7.3485172,9.8833994 7.8027557,10.753878 7.7397266,11.875 C 5.3069828,12.341092 3.177937,13.116238 0.46457866,13.31552 L 0.65435923,14.417653 C 3.7048738,13.988269 5.6200059,13.394241 7.6147266,12.9375 C 7.5798252,13.29342 7.5834766,13.311752 7.5834766,13.72875 C 6.2047169,14.765742 4.6751865,16.093483 1.944956,17.140814 L 2.5522266,17.91875 C 4.7291899,17.106969 6.1400338,16.043254 7.6147266,15.01 C 7.6698981,15.800841 7.7753032,17.008593 7.9272266,17.96875 L 15.927227,16.0625 C 14.418788,14.184124 13.815163,11.933466 13.364727,9.625 C 13.370534,9.6188675 13.358947,9.5998896 13.364727,9.59375 C 17.696315,5.5236493 14.702556,-0.78891552 11.177227,5.125 C 10.978119,4.8957382 10.74475,4.6861899 10.520977,4.46875 C 10.50571,3.7053707 9.9966726,2.3779133 8.9584766,0.5 C 8.7599979,0.16411333 8.498561,0 8.2084766,0 C 8.0405333,0 7.9584768,0.16411332 7.9584766,0.5 L 7.9584766,2 C 7.7599979,1.5267047 7.4971314,1.03508 7.1459766,0.53125 C 6.9474979,0.18009533 6.735437,0 6.5522266,0 z M 7.0522266,1.625 L 7.1459766,1.625 C 7.4971313,2.5410553 7.7592835,3.3115292 7.9272266,3.9375 L 7.6772266,3.9375 C 7.5398179,3.3115293 7.3270425,2.5410553 7.0522266,1.625 z M 8.7084766,1.625 L 8.8022266,1.625 C 9.5045353,3.4571107 9.8334768,4.7032267 9.8334766,5.375 C 9.8334766,6.046774 9.6366842,6.6524202 9.2397266,7.15625 L 9.5209766,7.4375 C 10.116412,6.8115293 10.444639,6.2204361 10.520977,5.625 C 11.352638,6.4814867 11.982155,7.6820343 12.364727,9.25 C 11.273332,10.304628 9.9518538,11.026884 8.5834766,11.625 C 8.6184515,10.343552 8.0230568,9.3106299 6.8334766,8.53125 C 5.8868866,8.103758 4.8041685,7.957057 3.5522266,8.125 C 2.3002846,8.2929433 1.6209313,8.3089258 1.5522266,8.15625 C 1.4835226,8.003574 1.7296918,7.8964711 2.3022266,7.8125 C 2.8747613,7.728528 3.292678,7.6958486 3.5522266,7.71875 C 3.8117759,7.7416513 3.9265119,7.6359788 3.8959766,7.4375 C 3.8654413,7.2390213 3.6769973,7.1979928 3.3334766,7.3125 C 2.9899559,7.4270067 2.3411373,7.5326793 1.3334766,7.59375 C 1.0128573,7.21206 0.96419523,6.9673201 1.2084766,6.90625 C 2.2619399,6.6314333 3.0080826,6.4019612 3.4584766,6.21875 C 3.9088706,6.0355393 4.3267875,5.7323585 4.7084766,5.3125 C 5.0901659,4.8926413 6.2535104,4.6874998 8.1772266,4.6875 C 8.3909733,4.6875 8.4897268,4.5553521 8.4897266,4.25 L 8.4897266,2.09375 C 9.0698946,3.8800573 9.283385,4.9794725 9.1459766,5.4375 C 9.0085686,5.895528 8.8444557,6.1896445 8.6459766,6.28125 L 8.8959766,6.6875 C 9.3234686,6.2142047 9.5522268,5.7218652 9.5522266,5.1875 C 9.5522266,4.6531347 9.2733775,3.4571106 8.7084766,1.625 z M 6.8334766,2.09375 C 7.0777579,2.826594 7.257853,3.4489372 7.3647266,3.9375 L 6.8334766,3.9375 L 6.8334766,2.09375 z M 13.052227,8.4375 C 12.76235,7.5614744 12.333119,6.7605092 11.802227,6 C 14.391318,1.0262347 15.818367,5.6128821 13.052227,8.4375 z M 5.4897266,5.40625 C 5.2234984,5.4363081 5.1147266,5.6001836 5.1147266,5.875 C 5.1147266,6.241422 5.3289321,6.3492394 5.8022266,6.25 C 6.2755219,6.1507607 6.6683926,6.0429434 6.9584766,5.875 C 6.6683926,5.645986 6.2755221,5.4749542 5.8022266,5.40625 C 5.6839029,5.389074 5.5784693,5.3962306 5.4897266,5.40625 z M 12.583477,10.375 C 12.926998,12.504828 13.525725,14.200826 14.395977,15.4375 L 8.6147266,16.6875 C 8.4061047,15.344496 8.3441692,14.037327 8.4584766,12.75 C 10.308747,11.937383 11.436743,11.441735 12.583477,10.375 z"
     id="path2978"
     sodipodi:nodetypes="ccccsssccsccccccccccccccccscccccccccccsccccccsssssscssssccsccscccccccccsscscccccc" />
</svg>
