<?xml version="1.0" encoding="UTF-8" standalone="no"?>
<svg
   xmlns:dc="http://purl.org/dc/elements/1.1/"
   xmlns:cc="http://creativecommons.org/ns#"
   xmlns:rdf="http://www.w3.org/1999/02/22-rdf-syntax-ns#"
   xmlns:svg="http://www.w3.org/2000/svg"
   xmlns="http://www.w3.org/2000/svg"
   xmlns:sodipodi="http://sodipodi.sourceforge.net/DTD/sodipodi-0.dtd"
   xmlns:inkscape="http://www.inkscape.org/namespaces/inkscape"
   width="15.448309"
   height="17.96875"
   id="svg3553"
   sodipodi:version="0.32"
   inkscape:version="0.46"
   sodipodi:docname="F67C.svg"
   inkscape:output_extension="org.inkscape.output.svg.inkscape"
   version="1.0">
  <metadata
     id="metadata3560">
    <rdf:RDF>
      <cc:Work
         rdf:about="">
        <dc:format>image/svg+xml</dc:format>
        <dc:type
           rdf:resource="http://purl.org/dc/dcmitype/StillImage" />
      </cc:Work>
    </rdf:RDF>
  </metadata>
  <defs
     id="defs3558">
    <inkscape:perspective
       sodipodi:type="inkscape:persp3d"
       inkscape:vp_x="0 : 8.9887915 : 1"
       inkscape:vp_y="0 : 1000 : 0"
       inkscape:vp_z="11.550257 : 8.9887915 : 1"
       inkscape:persp3d-origin="5.7751284 : 5.9925276 : 1"
       id="perspective3562" />
  </defs>
  <sodipodi:namedview
     inkscape:window-height="667"
     inkscape:window-width="640"
     inkscape:pageshadow="2"
     inkscape:pageopacity="0.0"
     guidetolerance="10.0"
     gridtolerance="10.0"
     objecttolerance="10.0"
     borderopacity="1.0"
     bordercolor="#666666"
     pagecolor="#ffffff"
     id="base"
     showgrid="false"
     inkscape:zoom="25.698672"
     inkscape:cx="5.7751284"
     inkscape:cy="8.9887915"
     inkscape:window-x="179"
     inkscape:window-y="61"
     inkscape:current-layer="svg3553" />
  <path
     style="fill:#000000;stroke:none"
     d="M 9.875,0 C 9.7087333,0 9.6249999,0.150072 9.625,0.46875 L 9.625,3.40625 C 9.625,3.586372 9.5586614,3.6875001 9.40625,3.6875 C 8.7550387,3.756778 8.2561774,3.9313227 7.9375,4.25 C 7.4802667,4.693378 6.9393894,5.0631001 6.28125,5.3125 C 5.6231113,5.5619 4.9881833,5.7293665 4.40625,5.8125 C 3.8243167,5.8956333 3.7579773,6.1783834 4.1875,6.71875 C 4.2290667,6.8850167 4.3791393,7.0698778 4.65625,7.25 C 4.65625,7.9289227 5.3505887,8.1731944 6.75,8 C 8.0373582,7.8406732 9.046927,8.0242121 9.8125,8.46875 C 5.2737664,9.2134618 1.6284703,11.614901 0,16.9375 C 0.2316364,17.326041 0.5034989,17.587892 1.0625,17.15625 C 2.6581461,12.390489 5.9875614,10.006425 10.625,9.375 C 10.693449,9.7276416 10.555615,10.110005 10.1875,10.53125 C 9.515506,11.300233 8.1617666,12.113244 6.125,13 C 8.3834553,14.399411 10.337333,16.056683 12,17.96875 C 13.191577,16.319939 14.217312,14.100856 15.0625,11.28125 C 15.90769,8.4616447 15.363423,6.0576999 13.4375,4.0625 C 13.4375,3.383578 12.973428,2.1729833 12.03125,0.46875 C 11.851128,0.150072 11.638255,-4.4225457e-18 11.375,0 C 11.208733,0 11.125,0.150072 11.125,0.46875 L 11.125,1.8125 C 10.944877,1.382978 10.711072,0.92598333 10.40625,0.46875 C 10.212272,0.150072 10.027411,1.1056364e-18 9.875,0 z M 10.3125,1.46875 L 10.40625,1.46875 C 10.724928,2.3139387 10.955195,3.008278 11.09375,3.5625 L 10.875,3.5625 C 10.7503,3.008278 10.5619,2.3139386 10.3125,1.46875 z M 11.8125,1.46875 L 11.875,1.46875 C 12.512356,3.1314167 12.84375,4.2653562 12.84375,4.875 C 12.84375,5.4846447 12.655351,6.0289111 12.28125,6.5 L 12.5625,6.75 C 13.102866,6.181922 13.375,5.6933773 13.375,5.25 C 14.065527,6.1230793 14.443164,7.1200312 14.53125,8.25 C 13.310953,8.1980013 12.1411,8.1974316 11,8.3125 C 10.889538,8.2099619 10.797299,8.1310693 10.65625,8.03125 C 9.7556387,7.393894 8.6635668,7.1566999 7.375,7.34375 C 6.086434,7.5308 5.4061,7.5517334 5.34375,7.40625 C 5.2814,7.2607667 5.5116673,7.1387053 6.03125,7.0625 C 6.550834,6.9862947 6.9276341,6.9722893 7.15625,7 C 7.3848667,7.0277113 7.4582826,6.9370499 7.4375,6.75 C 7.416716,6.56295 7.2804993,6.5210833 6.96875,6.625 C 6.6569993,6.7289167 6.039466,6.8369728 5.125,6.90625 C 4.8201773,6.546006 4.7644553,6.3540667 5,6.3125 C 5.9560333,6.049244 6.6537614,5.8225159 7.0625,5.65625 C 7.4712393,5.4899827 7.8411113,5.2247771 8.1875,4.84375 C 8.5338887,4.462722 9.5979502,4.2500001 11.34375,4.25 C 11.537728,4.25 11.625,4.1208606 11.625,3.84375 L 11.625,1.90625 C 12.151511,3.541206 12.34345,4.5600116 12.21875,4.96875 C 12.094049,5.3774887 11.930122,5.6217614 11.75,5.71875 L 12,6.0625 C 12.387955,5.6468333 12.5625,5.2106219 12.5625,4.71875 C 12.5625,4.226878 12.325155,3.1314166 11.8125,1.46875 z M 10.125,1.90625 C 10.346689,2.5713167 10.496761,3.1191226 10.59375,3.5625 L 10.125,3.5625 L 10.125,1.90625 z M 8.90625,4.90625 C 8.6646435,4.9335282 8.5312501,5.0631002 8.53125,5.3125 C 8.53125,5.6450333 8.7579772,5.7775609 9.1875,5.6875 C 9.617022,5.5974387 9.9693499,5.4649115 10.21875,5.3125 C 9.96935,5.1046667 9.6170219,4.9686001 9.1875,4.90625 C 9.0801193,4.8906625 8.9867855,4.8971573 8.90625,4.90625 z M 13.65625,9.1875 C 13.946621,9.1907606 14.233063,9.2054116 14.53125,9.21875 C 14.493315,9.7762479 14.38619,10.356029 14.21875,10.96875 C 13.588323,13.275699 12.77885,15.1283 11.78125,16.5 C 10.714373,15.086734 9.3955727,13.956334 7.84375,13.125 C 8.7027947,12.847889 9.4597834,12.467549 10.0625,11.96875 C 10.665217,11.46995 11.122362,10.84195 11.46875,10.09375 C 11.598646,9.8131753 11.639214,9.5462373 11.59375,9.28125 C 12.252768,9.2271643 12.949536,9.1795643 13.65625,9.1875 z"
     id="path3555" />
</svg>
