<?xml version="1.0" encoding="UTF-8" standalone="no"?>
<svg
   xmlns:dc="http://purl.org/dc/elements/1.1/"
   xmlns:cc="http://creativecommons.org/ns#"
   xmlns:rdf="http://www.w3.org/1999/02/22-rdf-syntax-ns#"
   xmlns:svg="http://www.w3.org/2000/svg"
   xmlns="http://www.w3.org/2000/svg"
   xmlns:sodipodi="http://sodipodi.sourceforge.net/DTD/sodipodi-0.dtd"
   xmlns:inkscape="http://www.inkscape.org/namespaces/inkscape"
   width="17.268787"
   height="18"
   id="svg2440"
   sodipodi:version="0.32"
   inkscape:version="0.46"
   sodipodi:docname="F68.svg"
   inkscape:output_extension="org.inkscape.output.svg.inkscape"
   version="1.0">
  <metadata
     id="metadata2447">
    <rdf:RDF>
      <cc:Work
         rdf:about="">
        <dc:format>image/svg+xml</dc:format>
        <dc:type
           rdf:resource="http://purl.org/dc/dcmitype/StillImage" />
      </cc:Work>
    </rdf:RDF>
  </metadata>
  <defs
     id="defs2445">
    <inkscape:perspective
       sodipodi:type="inkscape:persp3d"
       inkscape:vp_x="0 : 8.9887915 : 1"
       inkscape:vp_y="0 : 1000 : 0"
       inkscape:vp_z="15.942849 : 8.9887915 : 1"
       inkscape:persp3d-origin="7.9714246 : 5.9925276 : 1"
       id="perspective2449" />
  </defs>
  <sodipodi:namedview
     inkscape:window-height="712"
     inkscape:window-width="1024"
     inkscape:pageshadow="2"
     inkscape:pageopacity="0.0"
     guidetolerance="10.0"
     gridtolerance="10.0"
     objecttolerance="10.0"
     borderopacity="1.0"
     bordercolor="#666666"
     pagecolor="#ffffff"
     id="base"
     showgrid="false"
     inkscape:zoom="25.698672"
     inkscape:cx="7.9714246"
     inkscape:cy="8.9887915"
     inkscape:window-x="-4"
     inkscape:window-y="-4"
     inkscape:current-layer="svg2440" />
  <path
     style="fill:#000000;stroke:none"
     d="M 6.5625,0 C 6.3945567,0 6.3125002,0.18009531 6.3125,0.53125 L 6.3125,3.75 C 6.3125,3.9332113 6.2457116,4.03125 6.0625,4.03125 C 5.3449233,4.1228553 4.7886548,4.3516131 4.4375,4.6875 C 3.93367,5.1913307 3.3189608,5.5689335 2.59375,5.84375 C 1.86854,6.1185667 1.2037387,6.2910286 0.5625,6.375 C -0.078738667,6.458972 -0.16079534,6.7955469 0.3125,7.40625 C 0.35830267,7.5894607 0.50714803,7.8015214 0.8125,8 C 0.8125,8.748112 1.6142239,9.034595 3.15625,8.84375 C 4.698276,8.6529047 5.7642968,8.7767045 6.375,9.25 C 7.0910881,9.711043 7.5260369,10.311802 7.6875,11.03125 L 5.3125,12.90625 C 4.450867,12.2074 2.9083951,12.742418 2.125,13.28125 C 0.42932026,14.448195 0.42629238,15.50764 0.6875,16.1875 L 0,16.6875 L 0.96875,18 L 1.6875,17.5 C 2.3026697,18.025711 3.1709694,18.182887 4.78125,16.9375 C 5.7998194,16.149739 6.3014607,14.767714 6.09375,14.0625 L 7.625,12.96875 C 7.5035983,14.251127 7.6104042,15.901502 7.9375,17.96875 L 15.9375,16.0625 C 14.60922,14.29146 13.797003,12.315899 13.46875,10.125 C 13.409698,9.7308658 13.319553,9.3428732 13.21875,8.96875 L 17.268788,5.809037 L 16.143788,4.246537 L 12.5625,7.25 C 12.066446,6.2364194 11.393652,5.3067438 10.53125,4.46875 C 10.515983,3.7053707 10.006946,2.3779133 8.96875,0.5 C 8.7702713,0.16411333 8.5088344,0 8.21875,0 C 8.0508067,0 7.9687502,0.16411332 7.96875,0.5 L 7.96875,2 C 7.7702713,1.5267047 7.5074048,1.03508 7.15625,0.53125 C 6.9577713,0.18009533 6.7457104,0 6.5625,0 z M 7.0625,1.625 L 7.15625,1.625 C 7.5074047,2.5410553 7.7695569,3.3115292 7.9375,3.9375 L 7.6875,3.9375 C 7.5500913,3.3115293 7.3373159,2.5410553 7.0625,1.625 z M 8.71875,1.625 L 8.8125,1.625 C 9.5148087,3.4571107 9.8437502,4.7032267 9.84375,5.375 C 9.84375,6.046774 9.6469576,6.6524202 9.25,7.15625 L 9.53125,7.4375 C 10.126685,6.8115293 10.454912,6.2204361 10.53125,5.625 C 11.079745,6.1898686 11.521842,6.9069134 11.875,7.78125 L 8.40625,10.46875 C 8.1621678,9.7109525 7.6491326,9.0589143 6.84375,8.53125 C 5.89716,8.103758 4.8144419,7.957057 3.5625,8.125 C 2.310558,8.2929433 1.6312047,8.3089258 1.5625,8.15625 C 1.493796,8.003574 1.7399652,7.8964711 2.3125,7.8125 C 2.8850347,7.728528 3.3029514,7.6958486 3.5625,7.71875 C 3.8220493,7.7416513 3.9367853,7.6359788 3.90625,7.4375 C 3.8757147,7.2390213 3.6872707,7.1979928 3.34375,7.3125 C 3.0002293,7.4270067 2.3514107,7.5326793 1.34375,7.59375 C 1.0231307,7.21206 0.97446864,6.9673201 1.21875,6.90625 C 2.2722133,6.6314333 3.018356,6.4019612 3.46875,6.21875 C 3.919144,6.0355393 4.3370609,5.7323585 4.71875,5.3125 C 5.1004393,4.8926413 6.2637838,4.6874998 8.1875,4.6875 C 8.4012467,4.6875 8.5000002,4.5553521 8.5,4.25 L 8.5,2.09375 C 9.080168,3.8800573 9.2936584,4.9794725 9.15625,5.4375 C 9.018842,5.895528 8.8547291,6.1896445 8.65625,6.28125 L 8.90625,6.6875 C 9.333742,6.2142047 9.5625002,5.7218652 9.5625,5.1875 C 9.5625,4.6531347 9.2836509,3.4571106 8.71875,1.625 z M 6.84375,2.09375 C 7.0880313,2.826594 7.2681264,3.4489372 7.375,3.9375 L 6.84375,3.9375 L 6.84375,2.09375 z M 5.5,5.40625 C 5.2337718,5.4363081 5.125,5.6001836 5.125,5.875 C 5.125,6.241422 5.3392055,6.3492394 5.8125,6.25 C 6.2857953,6.1507607 6.678666,6.0429434 6.96875,5.875 C 6.678666,5.645986 6.2857955,5.4749542 5.8125,5.40625 C 5.6941763,5.389074 5.5887427,5.3962306 5.5,5.40625 z M 15.979875,5.1681121 L 16.386125,5.7618621 L 15.479875,6.3868621 L 15.073625,5.8868621 L 15.979875,5.1681121 z M 14.604875,6.2618621 L 14.979875,6.7306121 L 14.511125,7.0743621 L 14.167375,6.6056121 L 14.604875,6.2618621 z M 13.698625,6.9806121 L 14.011125,7.4181121 L 13.729875,7.6368621 L 13.386125,7.1993621 L 13.698625,6.9806121 z M 12.917375,7.5743621 L 13.229875,7.9806121 L 12.792375,8.2618621 L 12.511125,7.8868621 L 12.917375,7.5743621 z M 12.042375,8.2618621 L 12.292375,8.6368621 L 5.9375,13.3125 L 12.042375,8.2618621 z M 12.40625,9.5625 C 12.466995,9.8306652 12.547018,10.085262 12.59375,10.375 C 12.937271,12.504828 13.535998,14.200826 14.40625,15.4375 L 8.625,16.6875 C 8.3943366,15.202604 8.3358926,13.760583 8.5,12.34375 L 12.40625,9.5625 z M 4.15625,13.21875 C 4.4857982,13.213181 4.787959,13.290427 5,13.46875 C 5.241314,13.655915 5.4577232,13.944985 5.53125,14.25 C 5.6431303,14.781801 5.0985717,15.928093 4.40625,16.4375 C 3.2818672,17.264817 2.695772,17.43926 2.15625,17.125 C 1.9872767,17.019856 1.8995893,16.841277 1.78125,16.6875 L 1.09375,17.1875 L 0.84375,16.8125 L 1.5,16.3125 C 1.3147936,16.072044 1.2238079,15.938487 1.1875,15.78125 C 0.94576365,14.962229 1.896068,14.165663 2.46875,13.78125 C 2.9630951,13.449948 3.607003,13.228032 4.15625,13.21875 z"
     id="path2442"
     sodipodi:nodetypes="ccccsssccscccsccccsccccsccccccscccccccccccsccccccsssssscssssccsccsccccccsscsccccccccccccccccccccccccccscccccssssccccssc" />
</svg>
