<?xml version="1.0" encoding="UTF-8" standalone="no"?>
<svg
   xmlns:dc="http://purl.org/dc/elements/1.1/"
   xmlns:cc="http://creativecommons.org/ns#"
   xmlns:rdf="http://www.w3.org/1999/02/22-rdf-syntax-ns#"
   xmlns:svg="http://www.w3.org/2000/svg"
   xmlns="http://www.w3.org/2000/svg"
   xmlns:sodipodi="http://sodipodi.sourceforge.net/DTD/sodipodi-0.dtd"
   xmlns:inkscape="http://www.inkscape.org/namespaces/inkscape"
   width="1800"
   height="1800"
   id="svg2811"
   sodipodi:version="0.32"
   inkscape:version="0.46"
   sodipodi:docname="F71.svg"
   inkscape:output_extension="org.inkscape.output.svg.inkscape"
   version="1.0">
  <metadata
     id="metadata2818">
    <rdf:RDF>
      <cc:Work
         rdf:about="">
        <dc:format>image/svg+xml</dc:format>
        <dc:type
           rdf:resource="http://purl.org/dc/dcmitype/StillImage" />
      </cc:Work>
    </rdf:RDF>
  </metadata>
  <defs
     id="defs2816">
    <inkscape:perspective
       sodipodi:type="inkscape:persp3d"
       inkscape:vp_x="0 : 3.48 : 1"
       inkscape:vp_y="0 : 1000 : 0"
       inkscape:vp_z="11.341504 : 3.48 : 1"
       inkscape:persp3d-origin="5.670752 : 2.32 : 1"
       id="perspective2820" />
  </defs>
  <sodipodi:namedview
     inkscape:window-height="712"
     inkscape:window-width="1024"
     inkscape:pageshadow="2"
     inkscape:pageopacity="0.0"
     guidetolerance="10.0"
     gridtolerance="10.0"
     objecttolerance="10.0"
     borderopacity="1.0"
     bordercolor="#666666"
     pagecolor="#ffffff"
     id="base"
     showgrid="false"
     inkscape:zoom="0.28277778"
     inkscape:cx="900"
     inkscape:cy="868.3472"
     inkscape:window-x="0"
     inkscape:window-y="22"
     inkscape:current-layer="svg2811" />
  <path
     style="fill:#000000;stroke:none"
     d="M 547.53134,-4.5474735e-13 C 533.58946,-4.5474735e-13 526.04288,13.065543 526.04288,40.828103 L 526.04288,296.54097 C 526.04288,311.02578 517.61485,318.02942 502.40554,318.02942 C 442.83581,325.27183 400.477,343.04629 371.32585,369.60177 C 329.50025,409.43493 276.81229,440.27499 216.60883,462.00221 C 156.40537,483.72943 100.08244,498.34036 46.849866,504.97917 C -6.3826442,511.61804 -13.929294,538.35272 25.361396,586.63537 C 29.163696,601.12018 45.138366,616.06929 70.487196,631.76116 C 70.487196,690.90742 133.72302,713.46379 261.73461,698.37544 C 389.7462,683.28711 469.45208,688.67248 502.40554,713.41738 C 687.80184,843.51156 601.83732,1053.3599 487.36362,1207.6523 L 708.6949,1805.0319 L 1129.869,1805.0319 L 1344.7538,1207.6523 L 1348.1919,1207.6523 C 1310.0353,706.99505 1054.9611,460.24986 876.305,352.411 C 875.03749,292.05755 831.41128,189.29744 745.22531,40.828103 C 728.74855,14.272611 709.13903,-4.5474735e-13 685.05759,-4.5474735e-13 C 671.1158,-4.5474735e-13 663.56911,14.27268 663.56911,40.828103 L 663.56911,156.86587 C 647.09235,119.44677 623.95713,80.661274 594.80598,40.828103 C 578.3292,13.065543 562.74059,-4.5474735e-13 547.53134,-4.5474735e-13 z M 586.2106,128.93085 L 594.80598,128.93085 C 623.95713,201.35485 645.32956,262.0931 659.27143,311.58289 L 637.78295,311.58289 C 626.37596,262.0931 609.02457,201.35485 586.2106,128.93085 z M 723.73682,128.93085 L 732.33221,128.93085 C 790.63454,273.77893 818.28611,372.36089 818.28611,425.47181 C 818.28611,478.58285 801.8161,525.31373 768.86262,565.14689 L 792.49995,588.78422 C 841.93017,539.29451 869.96773,522.29819 876.305,475.22262 C 994.17703,553.68196 1256.012,882.74581 1227.6845,1205.5035 L 620.59217,1201.2058 C 731.90003,1004.2161 738.26001,777.82766 532.48942,657.54735 C 478.62316,634.00953 400.04639,629.22767 296.11619,642.5054 C 192.18601,655.78316 136.35843,656.72493 130.65492,644.65426 C 124.95144,632.58351 147.59127,623.35805 195.12035,616.71924 C 242.64937,610.08038 276.71852,608.4621 298.26504,610.27271 C 319.81154,612.08331 328.73496,604.47617 326.20006,588.78422 C 323.6652,573.09235 309.59168,568.98697 281.07424,578.03998 C 252.5568,587.09299 194.9664,594.70018 111.3153,599.52846 C 84.699016,569.35175 82.440846,552.7844 102.71991,547.95611 C 190.17338,526.22889 252.28016,506.57089 289.66963,492.08608 C 327.05917,477.60127 361.12827,454.36847 392.81433,421.17413 C 424.50036,387.97975 521.06231,371.75063 680.75989,371.75063 C 698.50412,371.75063 706.54605,359.36156 706.54605,335.22022 L 706.54605,165.46126 C 754.70884,306.68813 773.82307,395.70625 762.41608,431.91834 C 751.00912,468.13032 735.91587,489.1413 719.43914,496.38379 L 740.9276,528.61648 C 776.41597,491.19739 794.6488,452.67719 794.6488,410.42988 C 794.6488,368.1825 770.63219,273.77893 723.73682,128.93085 z M 569.01982,167.61011 C 589.29894,225.54929 605.27353,272.95671 614.14561,311.58289 L 569.01982,311.58289 L 569.01982,167.61011 z M 459.4286,427.62066 C 437.32756,429.99703 425.04703,442.42384 425.04703,464.15106 C 425.04703,493.12069 445.92405,504.22966 485.21477,496.38379 C 524.50546,488.53784 555.68268,477.42874 579.76406,464.15106 C 555.68268,446.04505 524.50543,433.05246 485.21477,427.62066 C 475.39208,426.26266 466.7956,426.82851 459.4286,427.62066 z M 635.63409,1291.4574 L 1209.3764,1291.4574 L 1054.6593,1710.4826 L 790.3511,1710.4826 L 635.63409,1291.4574 z"
     id="path2813"
     sodipodi:nodetypes="cccccssccsccccccccscccccccccccsccccccsssssscssssccsccsccccccsscscccccc" />
</svg>
