<?xml version="1.0" encoding="UTF-8" standalone="no"?>
<svg
   xmlns:dc="http://purl.org/dc/elements/1.1/"
   xmlns:cc="http://creativecommons.org/ns#"
   xmlns:rdf="http://www.w3.org/1999/02/22-rdf-syntax-ns#"
   xmlns:svg="http://www.w3.org/2000/svg"
   xmlns="http://www.w3.org/2000/svg"
   xmlns:sodipodi="http://sodipodi.sourceforge.net/DTD/sodipodi-0.dtd"
   xmlns:inkscape="http://www.inkscape.org/namespaces/inkscape"
   width="14.28125"
   height="17.96875"
   id="svg2999"
   sodipodi:version="0.32"
   inkscape:version="0.46"
   sodipodi:docname="F73A.svg"
   inkscape:output_extension="org.inkscape.output.svg.inkscape"
   version="1.0">
  <metadata
     id="metadata3006">
    <rdf:RDF>
      <cc:Work
         rdf:about="">
        <dc:format>image/svg+xml</dc:format>
        <dc:type
           rdf:resource="http://purl.org/dc/dcmitype/StillImage" />
      </cc:Work>
    </rdf:RDF>
  </metadata>
  <defs
     id="defs3004">
    <inkscape:perspective
       sodipodi:type="inkscape:persp3d"
       inkscape:vp_x="0 : 8.9887915 : 1"
       inkscape:vp_y="0 : 1000 : 0"
       inkscape:vp_z="6.3578668 : 8.9887915 : 1"
       inkscape:persp3d-origin="3.1789334 : 5.9925276 : 1"
       id="perspective3008" />
  </defs>
  <sodipodi:namedview
     inkscape:window-height="712"
     inkscape:window-width="1024"
     inkscape:pageshadow="2"
     inkscape:pageopacity="0.0"
     guidetolerance="10.0"
     gridtolerance="10.0"
     objecttolerance="10.0"
     borderopacity="1.0"
     bordercolor="#666666"
     pagecolor="#ffffff"
     id="base"
     showgrid="false"
     inkscape:zoom="28.201789"
     inkscape:cx="3.1786942"
     inkscape:cy="8.9887914"
     inkscape:window-x="-4"
     inkscape:window-y="-4"
     inkscape:current-layer="svg2999" />
  <path
     style="fill:#000000;stroke:none"
     d="M 6.21875,0 C 6.1420047,0 6.09375,0.065259339 6.09375,0.21875 L 6.09375,0.875 C 6.004214,0.670346 5.8722406,0.43619467 5.71875,0.21875 C 5.6420047,0.07805 5.5767453,0.031250001 5.5,0.03125 C 5.3720913,0.03125 5.3125,0.078050006 5.3125,0.21875 L 5.3125,1.625 C 4.992728,1.625 4.7287813,1.7200553 4.5625,1.9375 C 4.3450547,2.1421547 4.0882307,2.3159868 3.78125,2.4375 C 3.4742687,2.5590133 3.1819813,2.6178774 2.875,2.65625 C 2.5680193,2.6946227 2.514096,2.8379326 2.71875,3.09375 C 2.7443313,3.23445 2.8095907,3.3607554 2.9375,3.4375 C 2.9375,3.8212267 3.2780427,3.9581406 3.96875,3.875 C 4.6594573,3.7918593 5.1085727,3.8344459 5.28125,3.96875 C 5.4539267,4.1030547 5.6029046,4.2640958 5.75,4.46875 C 5.8970947,4.673404 5.8438993,5.3672802 5.5625,6.53125 L 6.775,6.53125 L 6.775,6.71875 C 4.7719774,6.777513 2.5672745,7.4733163 0,8.78125 C 2.5672746,10.078004 4.7719772,10.754239 6.775,10.8125 L 6.775,11 C 4.7719774,11.058763 2.5672745,11.723317 0,13.03125 C 2.5672746,14.328005 4.7719772,15.03549 6.775,15.09375 L 6.775,15.25 C 6.084292,15.569772 5.8437501,16.096211 5.84375,16.8125 L 5.84375,17.96875 L 6.53125,17.96875 L 6.5,16.8125 C 6.5,16.224119 6.7511555,15.9375 7.25,15.9375 C 7.7104713,15.9375 7.96875,16.224119 7.96875,16.8125 L 7.96875,17.96875 L 8.625,17.96875 L 8.625,16.8125 C 8.625,16.08342 8.4103308,15.556981 7.68125,15.25 L 7.68125,15.09375 C 9.6615731,15.017287 11.754231,14.307671 14.28125,13.03125 C 11.764805,11.743826 9.6708795,11.077123 7.68125,11 L 7.68125,10.8125 C 9.6615731,10.736037 11.754231,10.05767 14.28125,8.78125 C 11.764805,7.4938256 9.6708795,6.7958719 7.68125,6.71875 L 7.68125,6.53125 L 8.9375,6.53125 C 8.7456367,3.8067927 8.1837342,2.21614 7.25,1.78125 C 7.25,1.551014 7.0414306,1.0245753 6.59375,0.21875 C 6.5170047,0.065259333 6.3978227,0 6.21875,0 z M 5.6875,0.71875 L 5.71875,0.71875 C 5.8722407,1.1152673 5.9857547,1.4018866 6.0625,1.59375 L 5.96875,1.59375 C 5.9175867,1.4018867 5.8154086,1.1152673 5.6875,0.71875 z M 6.40625,0.71875 L 6.4375,0.71875 C 6.7444813,1.498994 6.9062498,2.0183101 6.90625,2.3125 C 6.90625,2.60669 6.8040725,2.8763046 6.625,3.09375 L 6.75,3.21875 C 7.0058173,2.9501413 7.1619178,2.6620681 7.1875,2.40625 C 7.77588,2.8283493 8.1590093,4.0486632 8.3125,6.03125 L 6.1875,6.03125 C 6.3793633,5.0847247 6.372968,4.4625038 6.1875,4.1875 C 6.002032,3.912496 5.7813993,3.7216587 5.5,3.59375 C 5.2186007,3.4658413 4.7815487,3.4296501 4.21875,3.5 C 3.6559513,3.5703493 3.369332,3.563954 3.34375,3.5 C 3.3181687,3.4360453 3.4444733,3.3821227 3.6875,3.34375 C 3.9305267,3.3053773 4.0787773,3.2997088 4.1875,3.3125 C 4.296222,3.3252907 4.3565407,3.3018906 4.34375,3.21875 C 4.3309593,3.1356093 4.2408453,3.1114819 4.09375,3.15625 C 3.9466547,3.201018 3.6720987,3.2244181 3.25,3.25 C 3.1093,3.083718 3.0851727,2.9943313 3.1875,2.96875 C 3.6351807,2.853632 3.9579913,2.7642453 4.15625,2.6875 C 4.3545087,2.6107547 4.5276139,2.4915719 4.6875,2.3125 C 4.847386,2.1334273 5.3376334,2.0312499 6.15625,2.03125 C 6.2585767,2.03125 6.3125,1.9531994 6.3125,1.8125 L 6.3125,0.90625 C 6.5555267,1.6737027 6.6513086,2.1454914 6.59375,2.34375 C 6.5361907,2.5420087 6.464536,2.6803773 6.375,2.71875 L 6.5,2.875 C 6.6790727,2.670346 6.7499999,2.4489859 6.75,2.21875 C 6.75,1.9885147 6.6492766,1.498994 6.40625,0.71875 z M 5.625,0.90625 C 5.7273273,1.226022 5.7741274,1.45305 5.8125,1.59375 L 5.625,1.59375 L 5.625,0.90625 z M 4.9375,2.34375 C 4.8863365,2.3741283 4.8749999,2.4232547 4.875,2.5 C 4.875,2.6662813 4.982846,2.732268 5.1875,2.6875 C 5.392154,2.642732 5.5411319,2.5767454 5.65625,2.5 C 5.541132,2.410464 5.392154,2.3757274 5.1875,2.34375 C 5.085173,2.3277613 4.9886635,2.3133717 4.9375,2.34375 z M 6.775,7.53125 L 6.775,10 C 5.1903406,9.9573934 3.5980246,9.5554967 1.8125,8.78125 C 3.5985571,7.9846429 5.1899277,7.5748625 6.775,7.53125 z M 7.68125,7.5625 C 9.2479836,7.6197408 10.728158,8.0002724 12.46875,8.78125 C 10.728029,9.5405888 9.248087,9.9443976 7.68125,10 L 7.68125,7.5625 z M 6.775,11.8125 L 6.775,14.28125 C 5.1899279,14.238849 3.5985571,13.836977 1.8125,13.0625 C 3.5980246,12.26613 5.1903404,11.856324 6.775,11.8125 z M 7.68125,11.8125 C 9.2480871,11.869691 10.728029,12.281464 12.46875,13.0625 C 10.728158,13.821782 9.2479834,14.194349 7.68125,14.25 L 7.68125,11.8125 z"
     id="path3001"
     sodipodi:nodetypes="cccsscccssccssscccccccccccccsccccccccccccccsccccccccscccccsssssssscssssccsccsccccccsscsccccccccccccccccc" />
</svg>
