<?xml version="1.0" encoding="UTF-8" standalone="no"?>
<svg
   xmlns:dc="http://purl.org/dc/elements/1.1/"
   xmlns:cc="http://creativecommons.org/ns#"
   xmlns:rdf="http://www.w3.org/1999/02/22-rdf-syntax-ns#"
   xmlns:svg="http://www.w3.org/2000/svg"
   xmlns="http://www.w3.org/2000/svg"
   xmlns:sodipodi="http://sodipodi.sourceforge.net/DTD/sodipodi-0.dtd"
   xmlns:inkscape="http://www.inkscape.org/namespaces/inkscape"
   width="17.501654"
   height="17.96875"
   id="svg3110"
   sodipodi:version="0.32"
   inkscape:version="0.46"
   sodipodi:docname="F75.svg"
   inkscape:output_extension="org.inkscape.output.svg.inkscape"
   version="1.0">
  <metadata
     id="metadata3117">
    <rdf:RDF>
      <cc:Work
         rdf:about="">
        <dc:format>image/svg+xml</dc:format>
        <dc:type
           rdf:resource="http://purl.org/dc/dcmitype/StillImage" />
      </cc:Work>
    </rdf:RDF>
  </metadata>
  <defs
     id="defs3115">
    <inkscape:perspective
       sodipodi:type="inkscape:persp3d"
       inkscape:vp_x="0 : 8.9887915 : 1"
       inkscape:vp_y="0 : 1000 : 0"
       inkscape:vp_z="6.8803701 : 8.9887915 : 1"
       inkscape:persp3d-origin="3.4401851 : 5.9925276 : 1"
       id="perspective3119" />
  </defs>
  <sodipodi:namedview
     inkscape:window-height="667"
     inkscape:window-width="640"
     inkscape:pageshadow="2"
     inkscape:pageopacity="0.0"
     guidetolerance="10.0"
     gridtolerance="10.0"
     objecttolerance="10.0"
     borderopacity="1.0"
     bordercolor="#666666"
     pagecolor="#ffffff"
     id="base"
     showgrid="false"
     inkscape:zoom="25.698672"
     inkscape:cx="3.4401851"
     inkscape:cy="8.9887915"
     inkscape:window-x="218"
     inkscape:window-y="-6"
     inkscape:current-layer="svg3110" />
  <path
     style="fill:#000000;stroke:none"
     d="M 7.4050981,0 C 7.2479634,0 7.186348,0.11251066 7.1863481,0.3125 L 7.1863481,2.09375 C 6.7720854,2.09375 6.4631221,2.2116214 6.2488481,2.46875 C 5.9631494,2.7544487 5.6104334,2.975008 5.2175981,3.125 C 4.8247628,3.2749913 4.4229341,3.3562526 4.0300981,3.40625 C 3.6372627,3.4562473 3.5854694,3.6714466 3.8425981,4 C 3.8711681,4.185704 3.9524294,4.3062554 4.1238481,4.40625 C 4.1238481,4.8919373 4.60872,5.0803494 5.5300981,4.9375 C 6.4514761,4.7946507 7.2729969,4.892876 8.0300981,5.25 L 8.0300981,8.875 C 7.1644082,8.9575618 6.3066386,9.0913448 5.4363481,9.25 C 4.6865995,9.2596463 3.6211368,8.6385014 2.9988481,8.25 C 2.8056711,8.1316004 2.2232761,7.962148 2.0300981,7.84375 C 2.2821701,7.423833 2.7163681,7.324291 2.8113481,6.78125 C 2.8422031,6.604842 2.6339501,6.1875 2.3425981,6.1875 C 2.1617951,6.1874998 1.9669521,6.347527 1.7488481,6.84375 C 1.711494,6.9287332 1.4675981,7.75 1.4675981,7.75 C 1.4675981,7.7499999 1.3099441,6.995169 1.2488481,6.875 C 1.042792,6.4697108 0.76348607,6.3125 0.53009807,6.3125 C 0.17539897,6.3125001 -0.053730926,6.889287 0.15509807,7.28125 C 0.15509807,7.28125 0.90509807,8.09375 0.90509807,8.09375 C 0.92191317,8.1079772 0.91659007,8.125 0.90509807,8.125 C 0.90508907,8.1250053 0.65472607,8.218936 0.53009807,8.28125 C -0.28826293,8.8903394 0.049457074,9.687847 0.18634807,9.875 C 0.36769807,9.9663742 0.66308207,10.15625 1.0300981,10.15625 C 1.344101,10.15625 1.6857671,10.002871 2.1238481,9.90625 C 2.7816552,9.7594879 3.1393517,10.227606 3.6238481,10.5625 C 3.6238481,10.5625 4.633248,11.21875 6.7800981,11.21875 C 7.2405476,11.21875 7.6387448,11.1894 8.0300981,11.125 L 8.0300981,17.96875 L 8.9675981,17.96875 L 8.9675981,10.9375 C 9.4934509,10.821355 9.966175,10.71875 10.405098,10.71875 C 10.560268,10.71875 13.644475,10.65625 14.280098,10.65625 C 14.766156,10.631327 16.46908,10.517169 16.842598,10.5 C 17.721529,10.459597 17.467598,10.15625 17.467598,10.15625 C 17.467598,10.15625 17.013106,9.5625 15.155098,9.5625 C 15.118773,9.5624998 15.098741,9.562031 15.061348,9.5625 C 15.045868,9.5626917 15.014453,9.5625 14.998848,9.5625 C 14.114347,9.5624996 13.017077,9.272656 12.686348,9.1875 C 11.440634,8.843861 10.207961,8.7284968 8.9675981,8.78125 L 8.9675981,5.25 C 9.0104528,5.292854 9.3042333,5.1606979 9.8113481,4.875 C 10.318463,4.5893013 10.561348,4.2044381 10.561348,3.71875 C 10.561348,3.218778 10.465803,2.8508786 10.280098,2.59375 C 10.094394,2.3366207 9.9175868,2.21875 9.7175981,2.21875 C 9.7175981,1.9901913 9.42828,1.3552993 8.8425981,0.3125 C 8.7283181,0.11251067 8.5399066,0 8.3113481,0 C 8.2256388,0 8.1863483,0.11251066 8.1863481,0.3125 L 8.1863481,1.125 C 8.0720688,0.86787133 7.9175873,0.59819799 7.7175981,0.3125 C 7.6033188,0.11251067 7.4908075,0 7.4050981,0 z M 7.6863481,0.90625 L 7.7175981,0.90625 C 7.9175874,1.4205073 8.0693887,1.8223365 8.1550981,2.09375 L 8.0300981,2.09375 C 7.9586728,1.8223367 7.8434822,1.4205074 7.6863481,0.90625 z M 8.5613481,0.90625 L 8.6238481,0.90625 C 9.1095361,1.7919153 9.3300953,2.4000192 9.2800981,2.75 C 9.2301008,3.0999807 9.1443774,3.3401854 9.0300981,3.46875 L 9.2175981,3.625 C 9.4890114,3.3821567 9.6434936,3.0785534 9.6863481,2.75 C 9.7577734,2.75 9.8265316,2.840186 9.9050981,2.96875 C 9.9836654,3.0973147 10.030098,3.3303766 10.030098,3.6875 C 10.030098,4.030338 9.8068588,4.3169758 9.3425981,4.53125 C 8.8783381,4.745524 8.3514953,4.7651692 7.7800981,4.59375 C 7.2087014,4.4223307 6.5541648,4.3687554 5.8113481,4.46875 C 5.0685321,4.5687447 4.683668,4.5857093 4.6550981,4.5 C 4.6265281,4.41429 4.7542221,4.3553544 5.0613481,4.3125 C 5.3684741,4.2696453 5.6059988,4.2428581 5.7488481,4.25 C 5.8916974,4.2571427 5.9506327,4.2249947 5.9363481,4.125 C 5.9220628,4.025006 5.8095521,4.00536 5.6238481,4.0625 C 5.4381441,4.1196393 5.0872101,4.1589301 4.5300981,4.1875 C 4.3443934,3.9875107 4.3247487,3.8553547 4.4675981,3.8125 C 5.0389954,3.655366 5.4363622,3.5374946 5.6863481,3.4375 C 5.9363348,3.3375053 6.1595741,3.1392713 6.3738481,2.875 C 6.5881221,2.6107293 7.2230134,2.4999999 8.2800981,2.5 C 8.3943774,2.5 8.4675979,2.4437446 8.4675981,2.34375 L 8.4675981,1.15625 C 8.7818668,2.14191 8.9167035,2.7151852 8.8738481,2.84375 C 8.8309934,2.972314 8.7550928,3.03661 8.6550981,3.09375 L 8.7800981,3.3125 C 8.9515174,3.1410807 9.0300981,2.9642739 9.0300981,2.75 C 9.0300981,2.5214413 8.8756169,1.9061947 8.5613481,0.90625 z M 7.5613481,1.15625 C 7.6899128,1.5705133 7.7854581,1.8937612 7.8425981,2.09375 L 7.5613481,2.09375 L 7.5613481,1.15625 z M 6.8113481,3 C 6.6599272,3.0184181 6.5925981,3.1000084 6.5925981,3.25 C 6.5925981,3.4499893 6.7345775,3.49464 6.9988481,3.4375 C 7.2631194,3.3803607 7.4809988,3.3357099 7.6238481,3.25 C 7.4809988,3.121436 7.2631195,3.0357127 6.9988481,3 C 6.9327804,2.991072 6.8618217,2.9938606 6.8113481,3 z M 1.4675981,8.53125 C 1.4951331,8.5312501 1.5334211,8.527465 1.5613481,8.53125 C 1.568005,8.5298611 1.5752451,8.53125 1.5925981,8.53125 C 3.0315681,8.7170797 3.8717598,9.7120385 5.2800981,9.875 C 6.6223276,9.7557244 7.8947535,9.4024891 9.2488481,9.3125 C 11.509708,9.306537 12.837836,9.6955379 14.623848,9.96875 C 14.711469,9.96875 14.784831,9.973633 14.873848,9.96875 C 15.031227,9.9601184 15.183415,9.9375 15.311348,9.9375 C 16.267583,9.9375001 16.399186,10.15625 15.842598,10.15625 C 15.77749,10.15625 14.834348,10.1875 14.436348,10.1875 C 13.741286,10.1875 12.390504,10.09375 11.217598,10.09375 C 10.623837,10.09375 10.080072,10.110213 9.6863481,10.1875 C 7.8810798,10.669432 6.1410001,10.859888 4.3738481,10.21875 C 3.6504781,10.006849 3.557385,9.371941 2.3113481,9.25 C 2.2197361,9.2499997 1.1256601,9.5 1.0613481,9.5 C 0.32971407,9.5000002 0.82847207,8.53125 1.4675981,8.53125 z"
     id="path3112" />
</svg>
