<?xml version="1.0" encoding="UTF-8" standalone="no"?>
<svg
   xmlns:dc="http://purl.org/dc/elements/1.1/"
   xmlns:cc="http://creativecommons.org/ns#"
   xmlns:rdf="http://www.w3.org/1999/02/22-rdf-syntax-ns#"
   xmlns:svg="http://www.w3.org/2000/svg"
   xmlns="http://www.w3.org/2000/svg"
   xmlns:sodipodi="http://sodipodi.sourceforge.net/DTD/sodipodi-0.dtd"
   xmlns:inkscape="http://www.inkscape.org/namespaces/inkscape"
   width="18.34375"
   height="17.96875"
   id="svg3391"
   sodipodi:version="0.32"
   inkscape:version="0.46"
   sodipodi:docname="F76.svg"
   inkscape:output_extension="org.inkscape.output.svg.inkscape"
   version="1.0">
  <metadata
     id="metadata3398">
    <rdf:RDF>
      <cc:Work
         rdf:about="">
        <dc:format>image/svg+xml</dc:format>
        <dc:type
           rdf:resource="http://purl.org/dc/dcmitype/StillImage" />
      </cc:Work>
    </rdf:RDF>
  </metadata>
  <defs
     id="defs3396">
    <inkscape:perspective
       sodipodi:type="inkscape:persp3d"
       inkscape:vp_x="0 : 1.230469 : 1"
       inkscape:vp_y="0 : 1000 : 0"
       inkscape:vp_z="18.359375 : 1.230469 : 1"
       inkscape:persp3d-origin="9.1796875 : 0.82031266 : 1"
       id="perspective3400" />
  </defs>
  <sodipodi:namedview
     inkscape:window-height="712"
     inkscape:window-width="1024"
     inkscape:pageshadow="2"
     inkscape:pageopacity="0.0"
     guidetolerance="10.0"
     gridtolerance="10.0"
     objecttolerance="10.0"
     borderopacity="1.0"
     bordercolor="#666666"
     pagecolor="#ffffff"
     id="base"
     showgrid="false"
     inkscape:zoom="28.215652"
     inkscape:cx="9.171875"
     inkscape:cy="8.984375"
     inkscape:window-x="-4"
     inkscape:window-y="-4"
     inkscape:current-layer="svg3391" />
  <path
     style="fill:#000000;stroke:none"
     d="M 8.09375,6.750156e-14 C 7.9366154,6.750156e-14 7.8437499,0.1125107 7.84375,0.3125 L 7.84375,2.09375 C 7.4294874,2.09375 7.1205242,2.2116214 6.90625,2.46875 C 6.6205514,2.7544487 6.2678354,2.9750081 5.875,3.125 C 5.4821647,3.2749914 5.1115859,3.3562528 4.71875,3.40625 C 4.3259147,3.4562474 4.2428712,3.6714468 4.5,4 C 4.52857,4.185704 4.6410816,4.3062554 4.8125,4.40625 C 4.8125,4.8919374 5.266122,5.0803494 6.1875,4.9375 C 7.108878,4.7946507 7.9616489,4.8928759 8.71875,5.25 L 8.71875,9.21875 C 8.5524584,9.1123808 8.3850419,9.0103231 8.21875,8.96875 C 7.9479166,8.901042 7.6822912,8.9010419 7.40625,8.96875 C 7.130208,9.0364586 6.8229165,9.1979166 6.5,9.4375 L 0,9.4375 L 0,10.875 L 6.5,10.875 C 6.8229166,11.114583 7.1302079,11.276042 7.40625,11.34375 C 7.6822913,11.411459 7.947917,11.411459 8.21875,11.34375 C 8.3850416,11.302177 8.5524584,11.200119 8.71875,11.09375 L 8.71875,17.96875 L 9.65625,17.96875 L 9.65625,11.15625 C 9.7903646,11.233073 9.955729,11.309896 10.09375,11.34375 C 10.369792,11.411459 10.630209,11.411459 10.90625,11.34375 C 11.182292,11.276042 11.46875,11.114583 11.78125,10.875 L 18.34375,10.875 L 18.34375,9.4375 L 11.78125,9.4375 C 11.46875,9.1979166 11.182292,9.0364586 10.90625,8.96875 C 10.630209,8.901042 10.369792,8.9010419 10.09375,8.96875 C 9.9557291,9.0026043 9.7903647,9.079427 9.65625,9.15625 L 9.65625,5.25 C 9.6991047,5.292854 9.9616353,5.1606981 10.46875,4.875 C 10.975865,4.5893014 11.25,4.204438 11.25,3.71875 C 11.25,3.218778 11.154454,2.8508788 10.96875,2.59375 C 10.783046,2.3366207 10.574988,2.2187502 10.375,2.21875 C 10.375,1.9901914 10.085682,1.3552994 9.5,0.3125 C 9.38572,0.1125107 9.2285591,-9.9999933e-08 9,6.750156e-14 C 8.9142907,6.750156e-14 8.8437502,0.1125107 8.84375,0.3125 L 8.84375,1.125 C 8.7294707,0.8678714 8.5749898,0.598198 8.375,0.3125 C 8.2607207,0.1125107 8.1794598,-9.9999933e-08 8.09375,6.750156e-14 z M 8.34375,0.90625 L 8.375,0.90625 C 8.5749894,1.4205074 8.7267902,1.8223368 8.8125,2.09375 L 8.6875,2.09375 C 8.6160747,1.8223367 8.5008837,1.4205074 8.34375,0.90625 z M 9.25,0.90625 L 9.3125,0.90625 C 9.798188,1.7919154 10.018748,2.4000195 9.96875,2.75 C 9.9187527,3.0999807 9.833029,3.3401852 9.71875,3.46875 L 9.875,3.625 C 10.146413,3.3821567 10.300895,3.1098034 10.34375,2.78125 C 10.415175,2.78125 10.515183,2.8401862 10.59375,2.96875 C 10.672317,3.0973147 10.6875,3.3303766 10.6875,3.6875 C 10.6875,4.030338 10.46426,4.316976 10,4.53125 C 9.5357396,4.745524 9.0088973,4.7651695 8.4375,4.59375 C 7.8661034,4.4223307 7.2115668,4.3687554 6.46875,4.46875 C 5.725934,4.5687447 5.3410698,4.5857093 5.3125,4.5 C 5.28393,4.41429 5.442874,4.3553546 5.75,4.3125 C 6.057126,4.2696454 6.2634007,4.242858 6.40625,4.25 C 6.5490994,4.2571427 6.6080345,4.2249947 6.59375,4.125 C 6.5794647,4.025006 6.4982042,4.0053599 6.3125,4.0625 C 6.126796,4.1196394 5.7446122,4.1589301 5.1875,4.1875 C 5.0017954,3.9875107 4.9821508,3.8553547 5.125,3.8125 C 5.6963974,3.655366 6.1250139,3.5374948 6.375,3.4375 C 6.6249867,3.3375054 6.8482258,3.1392716 7.0625,2.875 C 7.276774,2.6107294 7.911665,2.4999999 8.96875,2.5 C 9.0830294,2.5 9.1250004,2.4437446 9.125,2.34375 L 9.125,1.15625 C 9.4392687,2.14191 9.5741051,2.7151855 9.53125,2.84375 C 9.4883954,2.972314 9.4437448,3.0678602 9.34375,3.125 L 9.46875,3.3125 C 9.6401694,3.1410807 9.7187496,2.9642741 9.71875,2.75 C 9.71875,2.5214414 9.5642684,1.9061947 9.25,0.90625 z M 8.25,1.15625 C 8.3785647,1.5705134 8.4428596,1.8937615 8.5,2.09375 L 8.25,2.09375 L 8.25,1.15625 z M 7.65625,3 C 7.3919794,2.964288 7.2812498,3.0500112 7.28125,3.25 C 7.28125,3.4499894 7.3919795,3.5258899 7.65625,3.46875 C 7.9205214,3.4116107 8.1384008,3.3357098 8.28125,3.25 C 8.1384007,3.121436 7.9205215,3.0357127 7.65625,3 z M 7.8125,9.4375 C 7.9492187,9.4375 8.0833335,9.4375 8.21875,9.46875 C 8.4367378,9.5190549 8.5884892,9.6474754 8.71875,9.8125 L 8.71875,10.5 C 8.5875215,10.671784 8.4419543,10.792242 8.21875,10.84375 C 7.9479166,10.90625 7.6822912,10.90625 7.40625,10.84375 C 7.130208,10.78125 6.8749999,10.645833 6.6875,10.40625 L 0.5,10.40625 L 0.5,9.9375 L 6.6875,9.9375 C 6.875,9.6979166 7.1302079,9.53125 7.40625,9.46875 C 7.5442706,9.4375 7.6757813,9.4375 7.8125,9.4375 z M 10.5,9.4375 C 10.638021,9.4375 10.768229,9.4375 10.90625,9.46875 C 11.182292,9.53125 11.40625,9.6979166 11.59375,9.9375 L 17.875,9.9375 L 17.875,10.40625 L 11.59375,10.40625 C 11.40625,10.645833 11.182292,10.78125 10.90625,10.84375 C 10.630209,10.90625 10.369792,10.90625 10.09375,10.84375 C 9.9233656,10.805172 9.7730582,10.731044 9.65625,10.625 L 9.65625,9.71875 C 9.7753401,9.6061461 9.9170158,9.5087652 10.09375,9.46875 C 10.231771,9.4375 10.361979,9.4375 10.5,9.4375 z"
     id="path3393" />
</svg>
