<?xml version="1.0" encoding="UTF-8" standalone="no"?>
<!-- Created with Inkscape (http://www.inkscape.org/) -->
<svg
   xmlns:dc="http://purl.org/dc/elements/1.1/"
   xmlns:cc="http://creativecommons.org/ns#"
   xmlns:rdf="http://www.w3.org/1999/02/22-rdf-syntax-ns#"
   xmlns:svg="http://www.w3.org/2000/svg"
   xmlns="http://www.w3.org/2000/svg"
   xmlns:sodipodi="http://sodipodi.sourceforge.net/DTD/sodipodi-0.dtd"
   xmlns:inkscape="http://www.inkscape.org/namespaces/inkscape"
   width="11.457217"
   height="18.879663"
   id="svg2639"
   sodipodi:version="0.32"
   inkscape:version="0.46"
   version="1.0"
   sodipodi:docname="F78A.svg"
   inkscape:output_extension="org.inkscape.output.svg.inkscape">
  <defs
     id="defs2641">
    <inkscape:perspective
       sodipodi:type="inkscape:persp3d"
       inkscape:vp_x="0 : 526.18109 : 1"
       inkscape:vp_y="0 : 1000 : 0"
       inkscape:vp_z="744.09448 : 526.18109 : 1"
       inkscape:persp3d-origin="372.04724 : 350.78739 : 1"
       id="perspective2647" />
  </defs>
  <sodipodi:namedview
     id="base"
     pagecolor="#ffffff"
     bordercolor="#666666"
     borderopacity="1.0"
     inkscape:pageopacity="0.0"
     inkscape:pageshadow="2"
     inkscape:zoom="25.261155"
     inkscape:cx="6.098073"
     inkscape:cy="10.258936"
     inkscape:document-units="px"
     inkscape:current-layer="layer1"
     showgrid="false"
     inkscape:window-width="1024"
     inkscape:window-height="712"
     inkscape:window-x="-4"
     inkscape:window-y="-4" />
  <metadata
     id="metadata2644">
    <rdf:RDF>
      <cc:Work
         rdf:about="">
        <dc:format>image/svg+xml</dc:format>
        <dc:type
           rdf:resource="http://purl.org/dc/dcmitype/StillImage" />
      </cc:Work>
    </rdf:RDF>
  </metadata>
  <g
     inkscape:label="Calque 1"
     inkscape:groupmode="layer"
     id="layer1"
     transform="translate(-0.3127805,0.40625)">
    <path
       style="fill:#000000;stroke:none"
       d="M 4.84375,-0.40625 C 4.7294575,-0.40625 4.6562501,-0.28099083 4.65625,-0.0625 L 4.65625,1.9375 C 4.65625,2.0514952 4.5934325,2.1249999 4.46875,2.125 C 3.9804103,2.1819978 3.6139745,2.2910088 3.375,2.5 C 3.032123,2.8134871 2.6185348,3.0790072 2.125,3.25 C 1.6314653,3.4209932 1.1863888,3.5102524 0.75,3.5625 C 0.31361153,3.614748 0.24040369,3.8387657 0.5625,4.21875 C 0.59367045,4.3327452 0.72969578,4.4390049 0.9375,4.5625 C 0.9375,5.0279804 1.4505889,5.2124946 2.5,5.09375 C 3.5494109,4.9750048 4.1986048,5.0240081 4.46875,5.21875 C 4.7388955,5.4134919 5.0110252,5.6430127 5.25,5.9375 C 5.4889751,6.2319885 5.5309327,6.7957836 5.40625,7.59375 L 4.96875,9.65625 C 4.3223909,11.425079 3.9974478,13.724223 3.40625,15.625 C 3.2373215,16.325001 3.0629272,16.6375 2.3125,16.9375 C 1.7869439,17.2175 1.4688953,17.558253 1.0625,17.6875 C 0.70780109,17.665262 -0.09178073,18.28056 0.5625,18.4375 C 1.1068241,18.4575 1.643174,18.4375 2.1875,18.4375 C 2.7598721,18.282858 3.0395185,18.048513 3.59375,18.4375 C 3.8127311,18.462879 4.137165,18.480627 4.28125,18.40625 C 4.8068052,17.846251 4.4062499,17.67125 4.40625,17.03125 C 4.3090884,15.775542 5.9759141,13.988327 5.9375,12.1875 C 6.0175825,11.743784 6.7746851,10.248414 7.90625,10.40625 C 8.4827712,12.223259 9.2773904,14.198737 10.03125,16.09375 C 10.109551,16.649063 9.7454865,16.941352 9.40625,17 C 8.8581771,17.268768 8.4855072,17.594996 8.0625,17.71875 C 7.694541,17.69666 6.8848221,18.316322 7.5625,18.46875 C 8.1273037,18.48904 8.6850123,18.436478 9.25,18.4375 C 9.8455164,18.28959 10.178295,18.061704 10.75,18.4375 C 10.977061,18.462361 11.256014,18.477635 11.40625,18.40625 C 11.95689,17.867727 11.812547,17.530314 11.4375,16.84375 C 10.953842,15.082665 11.089127,13.338257 10.1875,11.6875 C 10.053867,10.983395 9.6434369,10.396336 10.21875,9.71875 L 10.1875,9.65625 L 10.15625,9.46875 C 9.8506739,5.5883197 8.9819195,3.2156282 7.53125,2.375 C 7.5208592,1.9000196 7.1752837,1.0747015 6.46875,-0.09375 C 6.3336772,-0.30274145 6.1661643,-0.40625 5.96875,-0.40625 C 5.8544581,-0.40625 5.7812502,-0.30274145 5.78125,-0.09375 L 5.78125,0.84375 C 5.6461772,0.54926232 5.4577246,0.25098714 5.21875,-0.0625 C 5.0836769,-0.28099083 4.9684324,-0.40625 4.84375,-0.40625 z M 5.15625,0.625 L 5.21875,0.625 C 5.4577247,1.1949764 5.635708,1.6730161 5.75,2.0625 L 5.59375,2.0625 C 5.500238,1.673016 5.3432738,1.1949764 5.15625,0.625 z M 6.28125,0.625 L 6.34375,0.625 C 6.8216996,1.764953 7.0625002,2.5195176 7.0625,2.9375 C 7.0625,3.3554829 6.9263952,3.7490132 6.65625,4.0625 L 6.84375,4.21875 C 7.2489679,3.829266 7.4792984,3.4642344 7.53125,3.09375 C 8.4975389,3.7112245 9.0943854,5.711891 9.34375,9.09375 L 5.8125,9.09375 L 6.0625,7.625 C 6.1871825,6.7130381 6.103426,6.0599836 5.8125,5.65625 C 5.5215743,5.2525167 5.1603339,4.9664927 4.71875,4.78125 C 4.2771664,4.5960076 3.6332471,4.5517545 2.78125,4.65625 C 1.9292533,4.7607459 1.4842561,4.7824957 1.4375,4.6875 C 1.3907441,4.5925033 1.5478671,4.5209977 1.9375,4.46875 C 2.3271326,4.4165025 2.6046165,4.3920007 2.78125,4.40625 C 2.9578836,4.4204996 3.0520305,4.3422448 3.03125,4.21875 C 3.0104698,4.0952549 2.8900297,4.0850029 2.65625,4.15625 C 2.4224701,4.2274974 1.9670034,4.2745015 1.28125,4.3125 C 1.0630555,4.0750097 1.0212567,3.9442485 1.1875,3.90625 C 1.9044244,3.735257 2.4122391,3.5827454 2.71875,3.46875 C 3.0252611,3.3547548 3.3027446,3.1674892 3.5625,2.90625 C 3.8222552,2.6450109 4.6283343,2.5312499 5.9375,2.53125 C 6.0829631,2.53125 6.1562498,2.4399922 6.15625,2.25 L 6.15625,0.90625 C 6.5510777,2.017704 6.6872616,2.7150116 6.59375,3 C 6.5002379,3.2849879 6.3850726,3.4430024 6.25,3.5 L 6.4375,3.75 C 6.7284258,3.4555123 6.8750001,3.1449863 6.875,2.8125 C 6.875,2.4800139 6.6656876,1.764953 6.28125,0.625 z M 5.03125,0.90625 C 5.1974936,1.3622311 5.3022686,1.7585127 5.375,2.0625 L 5.03125,2.0625 L 5.03125,0.90625 z M 4.125,2.96875 C 3.9438205,2.9874523 3.8437499,3.079007 3.84375,3.25 C 3.84375,3.4779905 3.9904032,3.5617472 4.3125,3.5 C 4.6345963,3.4382524 4.8963359,3.3544957 5.09375,3.25 C 4.8963361,3.1075061 4.6345964,3.011498 4.3125,2.96875 C 4.2319758,2.9580629 4.1853932,2.9625159 4.125,2.96875 z"
       transform="translate(-2.9249696e-4,0)"
       id="path2630" />
  </g>
</svg>
