<?xml version="1.0" encoding="UTF-8" standalone="no"?>
<svg
   xmlns:dc="http://purl.org/dc/elements/1.1/"
   xmlns:cc="http://creativecommons.org/ns#"
   xmlns:rdf="http://www.w3.org/1999/02/22-rdf-syntax-ns#"
   xmlns:svg="http://www.w3.org/2000/svg"
   xmlns="http://www.w3.org/2000/svg"
   xmlns:sodipodi="http://sodipodi.sourceforge.net/DTD/sodipodi-0.dtd"
   xmlns:inkscape="http://www.inkscape.org/namespaces/inkscape"
   width="26.123751"
   height="20.698624"
   id="svg2884"
   sodipodi:version="0.32"
   inkscape:version="0.46"
   sodipodi:docname="F91.svg"
   inkscape:output_extension="org.inkscape.output.svg.inkscape"
   version="1.0">
  <metadata
     id="metadata2891">
    <rdf:RDF>
      <cc:Work
         rdf:about="">
        <dc:format>image/svg+xml</dc:format>
        <dc:type
           rdf:resource="http://purl.org/dc/dcmitype/StillImage" />
      </cc:Work>
    </rdf:RDF>
  </metadata>
  <defs
     id="defs2889">
    <inkscape:perspective
       sodipodi:type="inkscape:persp3d"
       inkscape:vp_x="0 : 8.9902582 : 1"
       inkscape:vp_y="0 : 1000 : 0"
       inkscape:vp_z="14.220374 : 8.9902582 : 1"
       inkscape:persp3d-origin="7.1101871 : 5.9935055 : 1"
       id="perspective2893" />
  </defs>
  <sodipodi:namedview
     inkscape:window-height="712"
     inkscape:window-width="1024"
     inkscape:pageshadow="2"
     inkscape:pageopacity="0.0"
     guidetolerance="10.0"
     gridtolerance="10.0"
     objecttolerance="10.0"
     borderopacity="1.0"
     bordercolor="#666666"
     pagecolor="#ffffff"
     id="base"
     showgrid="false"
     inkscape:zoom="24.434858"
     inkscape:cx="11.582555"
     inkscape:cy="9.8888333"
     inkscape:window-x="-4"
     inkscape:window-y="-4"
     inkscape:current-layer="svg2884" />
  <path
     style="fill:#000000;stroke:none"
     d="M 19.68875,0.00060176143 C 19.518689,-0.0033123386 19.356112,0.012416161 19.18875,0.031851761 C 17.849857,0.18733646 17.238042,0.46097646 17.37625,0.87560176 C 16.875245,1.0656385 16.363282,1.1901358 15.845,1.2506018 C 15.326719,1.3110678 14.889961,1.4988304 14.50125,1.8443518 C 14.112539,2.1898724 13.663841,2.5280471 13.18875,2.8131018 C 12.713659,3.0981571 12.43138,3.3418158 12.345,3.5318518 C 12.189515,3.8255452 12.336625,4.1657532 12.75125,4.5631018 C 12.75125,4.8740712 12.881083,5.1230658 13.1575,5.3131018 C 13.209328,5.3131018 13.275896,5.5394837 13.345,6.0318518 C 13.414105,6.5242192 13.691047,6.9010131 14.1575,7.1256018 C 14.72761,7.0564972 15.101101,6.8761039 15.2825,6.6256018 C 15.463899,6.3750985 15.684945,6.2699112 15.97,6.3131018 C 16.255055,6.3562918 16.456792,6.6139244 16.595,7.0631018 C 16.474068,7.4777272 16.607203,7.937097 16.97,8.4381018 C 16.987276,8.8008992 16.801547,9.2849139 16.43875,9.9068518 C 15.868547,10.038207 15.281652,10.140397 14.68875,10.250602 C 13.525281,8.8870385 12.681334,8.0398725 12.18875,7.7818518 C 11.984952,7.3596991 11.753861,7.0293209 11.47,6.7818518 C 11.186139,6.5343831 10.681158,6.239527 9.93875,5.8756018 C 9.9241927,5.0167385 9.69951,4.2515531 9.31375,3.6256018 C 8.9279893,2.9996504 8.1658106,2.7047944 7.00125,2.7193518 C 6.4335267,2.7193518 5.86478,2.9410278 5.2825,3.4068518 C 4.9476887,3.5233078 4.600618,3.7971985 4.25125,4.2193518 C 4.7316313,4.6560618 5.1707113,4.9299525 5.56375,5.0318518 C 5.6074213,5.2356498 5.737088,5.5116772 5.97,5.8756018 C 5.9845567,6.8363645 6.1287808,7.6486218 6.37625,8.2818518 C 6.5379868,8.695707 7.0295778,9.7383175 7.68875,11.063102 C 6.9369755,11.09919 6.1873199,11.115646 5.4075,11.125602 C 4.059968,10.814632 3.1778153,10.867226 2.72,11.281852 C 2.2621847,11.696477 1.9766039,12.338274 1.9075,13.219352 C 2.598542,13.582149 3.5452287,13.676664 4.72,13.469352 C 6.472987,13.469352 7.7077462,13.490237 8.9075,13.500602 C 9.5565612,14.864495 9.9075,15.740412 9.9075,16.063102 C 9.9075,16.572596 9.579258,17.724648 8.93875,19.500602 C 8.93875,19.6025 8.4996699,19.661125 7.62625,19.719352 C 6.3161193,19.763023 5.6575001,19.961598 5.6575,20.281852 C 5.6575,20.471092 5.764066,20.563102 5.93875,20.563102 L 11.75125,20.563102 C 12.115175,20.271961 12.301328,20.0169 12.345,19.813102 C 12.694368,19.958671 12.878386,20.159383 12.9075,20.406852 C 12.965728,20.639764 13.072294,20.731774 13.18875,20.688102 C 13.305207,20.64443 13.345,20.552422 13.345,20.406852 C 13.243101,20.013812 13.002596,19.645778 12.595,19.281852 L 13.2825,16.313102 C 14.694529,16.26943 15.921896,16.064448 16.97,15.656852 C 17.552279,15.787865 17.99136,15.700128 18.2825,15.438102 C 18.57364,15.176075 18.533846,14.772518 18.12625,14.219352 C 17.945535,14.038637 17.772098,13.844802 17.595,13.656852 C 18.706819,13.663705 19.655889,13.688102 21.1575,13.688102 C 21.1575,12.081429 22.469041,10.177385 25.095,8.0006018 C 25.509625,5.2018818 24.981655,3.1207458 23.47,1.7818518 C 22.147303,0.61031945 20.879179,0.028000361 19.68875,0.00060176143 z M 19.095,0.71935176 C 19.457797,0.71935175 19.692817,0.90508042 19.81375,1.2506018 C 19.260916,1.0087372 18.959327,1.1558464 18.9075,1.6568518 C 18.838395,2.2615138 18.675279,2.5491284 18.4075,2.5318518 C 18.139723,2.5145764 17.934683,2.3814411 17.81375,2.1568518 C 17.81375,2.0013678 18.038099,1.7417012 18.47,1.3443518 C 18.660037,0.92972645 18.870411,0.71935176 19.095,0.71935176 z M 20.4075,1.0006018 C 21.150371,1.0524298 22.063773,1.6309605 23.12625,2.7193518 C 24.188727,3.8077432 24.537573,5.4455176 24.1575,7.6568518 C 22.326238,8.7970712 21.000725,10.501413 20.18875,12.781852 L 3.31375,12.813102 C 3.331026,12.260268 3.685208,12.053195 4.37625,12.156852 C 7.6068713,12.105023 10.379096,11.899984 12.72,11.563102 C 15.060905,11.226218 16.605431,10.968586 17.31375,10.813102 C 17.832031,10.03568 18.042407,9.172837 17.93875,8.1881018 C 17.437745,7.7043725 17.346531,7.1677638 17.6575,6.5631018 C 18.590407,5.6992998 18.979907,4.9403758 18.87625,4.3443518 C 18.772594,3.7483278 18.986271,3.3641644 19.47,3.1568518 C 20.575667,2.9668158 20.873954,2.2444778 20.4075,1.0006018 z M 17.845,1.4068518 C 17.482203,1.6659925 17.366343,1.9955284 17.47,2.3756018 C 17.504551,2.5656384 17.662333,2.7094458 17.93875,2.8131018 C 18.197891,2.9340344 18.303079,3.2356224 18.25125,3.7193518 C 18.303079,4.7904672 17.857683,5.6319666 16.9075,6.2193518 C 16.769292,5.8565552 16.478375,5.6515165 16.06375,5.6256018 C 15.649125,5.5996885 15.361511,5.7328233 15.18875,6.0006018 C 15.01599,6.2683805 14.805615,6.3369825 14.56375,6.2506018 C 14.200953,6.3197065 14.018526,6.0846858 14.00125,5.5318518 C 14.277667,5.5145758 14.474067,5.4706199 14.595,5.3756018 C 14.715932,5.2805832 14.940281,5.1667579 15.25125,5.0631018 C 15.043937,4.8385132 14.833563,4.7719457 14.62625,4.8756018 C 14.418938,4.9792585 14.166641,5.0597999 13.9075,5.0943518 C 13.441047,5.0079718 13.272594,4.7729512 13.37625,4.3756018 C 13.099833,4.0646325 13.00862,3.7876897 13.095,3.5631018 C 13.716938,3.1484764 14.234237,2.7696491 14.6575,2.4068518 C 15.080763,2.0440551 15.554107,1.8197064 16.06375,1.7506018 C 16.573394,1.6814978 17.153958,1.5623365 17.845,1.4068518 z M 19.47,1.5006018 C 19.51211,1.4811662 19.570103,1.4919638 19.62625,1.5006018 C 19.79901,1.4660498 19.87625,1.5153412 19.87625,1.6881018 C 19.78987,2.3100398 19.512927,2.6149298 19.06375,2.5631018 L 19.06375,2.5006018 L 19.2825,2.0631018 C 19.2825,1.7521328 19.343669,1.5589086 19.47,1.5006018 z M 16.06375,2.0006018 C 15.726867,1.9660498 15.425279,2.0379531 15.1575,2.2193518 C 14.889721,2.4007498 14.803843,2.7216484 14.9075,3.1881018 L 15.095,3.1568518 C 15.095,2.8631591 15.158266,2.6195004 15.31375,2.4381018 C 15.469235,2.2567031 15.704255,2.1654898 16.0325,2.1568518 C 16.360745,2.1482138 16.5325,2.1149297 16.5325,2.0631018 C 16.549776,2.0458258 16.400633,2.0351538 16.06375,2.0006018 z M 15.845,2.3443518 C 15.499479,2.3443518 15.327724,2.5933464 15.345,3.0943518 L 15.345,3.3443518 C 15.483209,3.3616278 15.5325,3.3090344 15.5325,3.1881018 C 16.033505,3.0844458 16.401661,2.8707684 16.62625,2.5943518 C 16.436213,2.4215911 16.190521,2.3443518 15.845,2.3443518 z M 7.00125,3.1568518 C 7.6854293,3.1568518 8.218654,3.4140498 8.62625,3.9381018 C 9.033846,4.4621545 9.2533859,5.2838266 9.2825,6.3756018 C 10.345161,6.5939565 11.058132,7.0706943 11.4075,7.8131018 C 11.465728,8.3080405 11.35489,8.546409 11.06375,8.5318518 C 10.77261,8.5172945 10.543655,8.4274216 10.37625,8.2818518 C 10.208844,8.1362818 10.161772,8.1833537 10.22,8.4381018 C 10.278228,8.6928491 10.57522,9.0116764 11.1575,9.3756018 C 11.739781,9.7395265 11.801409,10.041661 11.31375,10.281852 C 10.82609,10.522042 10.212407,10.290952 9.47,9.5631018 C 8.7275927,8.8352511 8.3261708,8.2853338 8.2825,7.9068518 C 8.2388287,7.5283698 8.4018813,7.1646056 8.75125,6.8443518 C 9.100618,6.5240978 9.0484033,6.4697472 8.62625,6.6881018 C 8.2040967,6.9064571 7.9918353,7.2346991 7.97,7.6568518 C 7.9481647,8.0790051 8.1133532,8.5296349 8.47,9.0318518 C 8.8099575,9.5105683 9.5017806,10.120944 10.47,10.844352 C 9.8036913,10.908538 9.1293166,10.99027 8.43875,11.031852 C 8.4008885,10.963836 8.3840156,10.914023 8.345,10.844352 C 7.6317067,9.5706138 7.1665192,8.6547963 6.97,8.0943518 C 6.77348,7.5339071 6.6741928,7.0122332 6.68875,6.5318518 C 6.7033067,6.0514705 6.6185768,5.6949852 6.4075,5.4693518 C 6.196424,5.2437185 6.132658,4.9813778 6.22,4.7193518 C 6.307342,4.4573251 6.1631187,4.2335138 5.81375,4.0006018 L 5.81375,3.6256018 C 6.1922327,3.3199044 6.5936539,3.1568518 7.00125,3.1568518 z M 6.87625,3.3443518 C 6.6287807,3.3443518 6.5012499,3.4907118 6.50125,3.7818518 C 6.50125,4.0293205 6.6287807,4.1568518 6.87625,4.1568518 C 7.138276,4.1422951 7.2512501,4.0126278 7.25125,3.7506018 C 7.25125,3.4885758 7.138276,3.3443518 6.87625,3.3443518 z M 15.06375,3.4693518 C 14.908266,3.6593884 14.880318,3.8857713 15.00125,4.1881018 C 15.122182,4.4904325 15.858493,4.7373924 17.18875,4.8756018 L 17.47,4.7193518 C 15.811499,4.5811432 15.064515,4.1883418 15.22,3.5318518 L 15.06375,3.4693518 z M 5.43875,3.6256018 L 5.43875,4.0318518 L 4.56375,4.1881018 C 4.825776,3.9115185 5.1330534,3.7129438 5.43875,3.6256018 z M 5.47,4.1568518 C 5.8048113,4.4188785 5.8758553,4.619589 5.6575,4.7506018 C 5.3226893,4.6341458 5.0676273,4.4710932 4.9075,4.2818518 L 5.47,4.1568518 z M 11.7825,8.3443518 C 12.118117,8.456224 12.854573,9.1961216 13.9075,10.406852 C 13.289386,10.510126 12.643211,10.575799 12.00125,10.656852 C 12.612644,10.285648 12.317788,9.7096234 11.095,8.9381018 C 11.546267,8.8216458 11.767944,8.6209343 11.7825,8.3443518 z M 9.75125,13.500602 C 11.253717,13.517795 12.303247,13.526153 12.75125,13.563102 C 13.251203,13.604335 14.695743,13.640222 16.595,13.656852 C 17.263709,14.107138 17.612013,14.44329 17.62625,14.656852 C 17.611693,14.860651 17.517548,14.988182 17.31375,15.031852 C 17.109952,15.075523 16.890412,15.004479 16.6575,14.844352 C 15.842307,15.237391 15.046742,15.454795 14.2825,15.469352 C 13.518257,15.483909 12.902439,15.356378 12.4075,15.094352 C 12.887881,15.516505 13.053069,15.972278 12.9075,16.438102 C 12.76193,16.903925 12.68875,16.87054 12.68875,16.375602 C 12.68875,15.880663 12.048959,15.420619 10.7825,14.969352 L 10.7825,15.813102 C 10.63693,16.424496 10.561615,16.426632 10.5325,15.844352 C 10.445158,15.218401 10.235033,14.533674 9.9075,13.813102 C 9.8677547,13.725662 9.7966757,13.596187 9.75125,13.500602 z M 19.4675,14.406852 L 22.06125,19.906852 L 23.155,19.938102 L 20.53,14.406852 L 19.4675,14.406852 z M 22.43625,14.406852 L 25.06125,19.906852 L 26.12375,19.906852 L 23.49875,14.406852 L 22.43625,14.406852 z M 4.0625,14.365602 C 1.6679095,14.365602 0.30897952,15.764872 0,18.553102 L 8.125,18.553102 C 7.8160207,15.764873 6.4570912,14.365602 4.0625,14.365602 z M 4.0625,15.084352 C 5.7103922,15.084352 6.7497812,15.972178 7.1875,17.771852 L 0.9375,17.771852 C 1.3494721,15.972177 2.3888615,15.084352 4.0625,15.084352 z M 11.1575,15.719352 C 11.870793,15.92315 12.22,16.192769 12.22,16.469352 L 11.50125,19.125602 C 11.443022,19.445855 11.242311,19.625602 10.9075,19.625602 L 10.0325,19.625602 L 10.0325,19.563102 L 11.1575,16.156852 L 11.1575,15.719352 z"
     id="path2886"
     sodipodi:nodetypes="cscsssscsscsscccccscssccccsccscccsccscccssccccsccccscccssccccsccccscccscccssccssccscscccssccsccccccsccsssccccccccsccsssssssssssccsssssccccsssccsccccccccccccccccccscsscscsscccsccccccccccccccccccccccccccc" />
</svg>
