<?xml version="1.0" encoding="UTF-8" standalone="no"?>
<!-- Created with Inkscape (http://www.inkscape.org/) -->
<svg
   xmlns:dc="http://purl.org/dc/elements/1.1/"
   xmlns:cc="http://creativecommons.org/ns#"
   xmlns:rdf="http://www.w3.org/1999/02/22-rdf-syntax-ns#"
   xmlns:svg="http://www.w3.org/2000/svg"
   xmlns="http://www.w3.org/2000/svg"
   xmlns:sodipodi="http://sodipodi.sourceforge.net/DTD/sodipodi-0.dtd"
   xmlns:inkscape="http://www.inkscape.org/namespaces/inkscape"
   width="6.6947184"
   height="17.438826"
   id="svg2474"
   sodipodi:version="0.32"
   inkscape:version="0.46"
   version="1.0"
   sodipodi:docname="F96.svg"
   inkscape:output_extension="org.inkscape.output.svg.inkscape">
  <defs
     id="defs2476">
    <inkscape:perspective
       sodipodi:type="inkscape:persp3d"
       inkscape:vp_x="0 : 526.18109 : 1"
       inkscape:vp_y="0 : 1000 : 0"
       inkscape:vp_z="744.09448 : 526.18109 : 1"
       inkscape:persp3d-origin="372.04724 : 350.78739 : 1"
       id="perspective2482" />
  </defs>
  <sodipodi:namedview
     id="base"
     pagecolor="#ffffff"
     bordercolor="#666666"
     borderopacity="1.0"
     inkscape:pageopacity="0.0"
     inkscape:pageshadow="2"
     inkscape:zoom="29.073058"
     inkscape:cx="3.3473593"
     inkscape:cy="8.7194126"
     inkscape:document-units="px"
     inkscape:current-layer="layer1"
     showgrid="false"
     showguides="true"
     inkscape:guide-bbox="true"
     inkscape:window-width="1024"
     inkscape:window-height="712"
     inkscape:window-x="-4"
     inkscape:window-y="-4" />
  <metadata
     id="metadata2479">
    <rdf:RDF>
      <cc:Work
         rdf:about="">
        <dc:format>image/svg+xml</dc:format>
        <dc:type
           rdf:resource="http://purl.org/dc/dcmitype/StillImage" />
      </cc:Work>
    </rdf:RDF>
  </metadata>
  <g
     inkscape:label="Calque 1"
     inkscape:groupmode="layer"
     id="layer1"
     transform="translate(-0.1940242,3.0866048e-3)">
    <path
       style="fill:#000000;stroke:none"
       d="M 3,0 C 2.9070566,-0.007745375 2.8116933,0.0191265 2.71875,0.0625 C 2.346976,0.23599467 2.1815727,0.38900534 2.21875,0.5625 C 1.9337233,0.37661267 1.6664914,0.38253999 1.40625,0.53125 C 1.1460087,0.67995933 1.018858,0.92186862 1.03125,1.28125 C 0.597514,1.764556 0.43211001,2.1524739 0.53125,2.4375 C 0.08512133,3.14387 -0.092674669,3.601828 0.03125,3.8125 C 0.142782,3.9612093 0.26993266,4.0501071 0.40625,4.0625 C 0.70366867,4.4094887 0.93264801,4.5684272 1.09375,4.53125 C 1.1681047,4.593212 1.3017207,4.7015055 1.5,4.875 C 1.6982793,5.0484947 2.2813094,4.7670146 2.53125,4.3125 C 2.3193188,4.5219122 2.2990667,5.3964131 2.40625,5.90625 L 3.7625,5.90625 L 3.7625,17.4375 L 4.8625,17.4375 L 4.8625,5.895 L 6.6875,5.895 C 6.6858177,2.97038 5.3804148,0.73760736 3.84375,0.75 C 3.5649195,0.266694 3.2788301,0.023236125 3,0 z M 2.78125,0.40625 C 2.8277217,0.40934817 2.8879304,0.40651866 2.9375,0.4375 C 2.8631453,0.47467733 2.84375,0.60829334 2.84375,0.84375 C 2.9304973,1.1287767 2.879852,1.3195027 2.71875,1.40625 L 2.40625,1.53125 L 2.46875,1.6875 C 2.6379637,1.625968 2.8941663,1.6101508 3.1875,1.625 C 3.3667802,1.6340756 3.5556056,1.6498928 3.78125,1.6875 L 3.78125,1.5625 L 3.34375,1.46875 C 3.4181047,1.4315727 3.513468,1.3550673 3.625,1.21875 C 4.864246,1.21875 5.8795985,3.0662686 6.03125,5.34375 L 2.875,5.34375 C 2.8502153,4.58781 2.8485599,4.5721328 3,4.15625 C 3.0495693,4.1810353 3.0554968,4.1115319 2.96875,4 L 3.0625,4.09375 L 3.15625,4.0625 C 3.10668,3.950968 2.9477413,3.7855647 2.6875,3.5625 C 2.8238173,3.61207 3.026936,3.7521506 3.25,4 L 3.3125,3.90625 C 3.0274733,3.5468687 2.8049592,3.3873919 2.65625,3.375 C 2.5942873,3.4245693 2.5878226,3.4504301 2.625,3.5 L 2.5625,3.59375 L 2.75,3.78125 L 2.75,3.8125 L 2.5,3.625 L 2.4375,3.75 L 2.5625,3.84375 C 2.240296,4.2527013 2.017782,4.4943411 1.90625,4.5625 C 1.7947173,4.630658 1.6104567,4.5544211 1.375,4.34375 C 1.4617473,4.29418 1.6142207,4.1858866 1.8125,4 L 1.65625,3.78125 C 1.4084007,4.0414913 1.2491934,4.1877687 1.15625,4.21875 C 1.0633067,4.2497313 0.94288998,4.1926211 0.84375,4.0625 C 0.74461067,3.9323793 0.64278268,3.8496773 0.53125,3.8125 C 0.63039,3.7257527 0.73814535,3.7068954 0.8125,3.78125 C 0.9612093,3.7068953 0.99946197,3.6301206 0.9375,3.5 C 0.8755373,3.3698793 0.75485202,3.3445567 0.59375,3.4375 C 0.43264867,3.5304433 0.36907266,3.6384679 0.40625,3.75 L 0.3125,3.65625 C 0.28771533,3.4084013 0.45958398,3.0393407 0.84375,2.53125 C 0.79418,2.4197173 0.832164,2.26051 0.9375,2.03125 C 1.042836,1.8019893 1.227366,1.598602 1.5,1.4375 C 1.5743547,1.2392207 1.8221913,1.0296367 2.21875,0.84375 C 2.2435353,0.98006733 2.2052827,1.0818953 2.09375,1.15625 C 1.982218,1.2306047 1.9380372,1.3448253 2,1.46875 L 2.15625,1.6875 L 2.3125,1.625 L 2.3125,1.59375 L 2.25,1.40625 C 2.2252147,1.3814647 2.3141132,1.3049592 2.5,1.15625 C 2.4752153,0.73490667 2.5199326,0.49946266 2.65625,0.4375 C 2.6996236,0.412715 2.7347783,0.40315183 2.78125,0.40625 z M 3.1875,1.625 C 2.9830245,1.6126075 2.8240857,1.6503227 2.71875,1.6875 L 2.90625,1.9375 C 3.240846,1.9003227 3.6222987,1.9956859 4.03125,2.21875 L 3.96875,2 C 3.6589387,1.9132527 3.3281313,1.8372847 2.96875,1.8125 L 2.9375,1.75 C 3.1729567,1.7376073 3.5226214,1.8071107 3.96875,1.90625 L 3.9375,1.75 C 3.6338846,1.6880377 3.3919755,1.6373925 3.1875,1.625 z M 3.15625,0.46875 C 3.2677827,0.60506667 3.3378227,0.70069864 3.375,0.78125 C 3.4121773,0.86180067 3.3868548,0.95096795 3.3125,1.0625 L 3.0625,1.15625 C 3.0625,1.1314653 3.1578633,1.0172447 3.34375,0.84375 L 3.28125,0.75 L 3.09375,0.90625 C 3.1804973,0.794718 3.2060888,0.69962336 3.1875,0.65625 C 3.1689113,0.612876 3.1244621,0.61907268 3.0625,0.65625 L 3.09375,0.53125 L 3.15625,0.46875 z M 1.71875,0.75 C 1.7752906,0.74148025 1.8349933,0.73450934 1.90625,0.75 C 1.6584007,0.84913933 1.4929974,0.99514794 1.40625,1.15625 C 1.4434275,0.914597 1.5491281,0.77555925 1.71875,0.75 z M 3.21875,1.25 C 3.1101869,1.3293292 3.050863,1.4222025 3.0625,1.46875 C 3.0005373,1.481142 2.9622848,1.4746773 2.9375,1.4375 C 3.0118547,1.38793 3.0436426,1.3496773 3.03125,1.3125 L 3.21875,1.25 z M 1.71875,1.71875 C 1.4213313,1.830282 1.2176747,1.9380373 1.09375,2 C 0.982218,2.111532 0.98221801,2.2769361 1.09375,2.5 L 1.15625,2.59375 L 1.34375,2.53125 L 1.28125,2.40625 C 1.5167067,2.369072 1.6373927,2.2289913 1.625,1.96875 L 1.78125,1.875 C 1.8060353,1.82543 1.7807127,1.7683201 1.71875,1.71875 z M 3.125,1.96875 C 3.0545179,1.9695246 2.9870698,1.975215 2.9375,2 L 2.96875,2.125 C 3.01832,2.1002153 3.1390054,2.1002153 3.3125,2.125 C 3.5727413,2.2117473 3.8081859,2.3448252 4.03125,2.46875 L 4.03125,2.28125 C 3.6315935,2.06748 3.3364463,1.9664263 3.125,1.96875 z M 1.4375,2.03125 C 1.425108,2.1551747 1.399516,2.2252153 1.34375,2.25 C 1.287984,2.2747853 1.2435353,2.2683199 1.21875,2.21875 C 1.2063573,2.16918 1.276398,2.1056047 1.4375,2.03125 z M 2.96875,2.1875 L 3.03125,2.3125 L 3.3125,2.34375 C 3.485994,2.405712 3.7338307,2.5328626 4.03125,2.71875 L 4.03125,2.5625 C 3.6099067,2.2650813 3.2537767,2.1379306 2.96875,2.1875 z M 3.0625,2.375 L 3.0625,2.5 C 3.322742,2.5123927 3.6217614,2.633616 3.96875,2.90625 L 4,2.78125 C 3.7149733,2.5210087 3.4094888,2.3997854 3.0625,2.375 z M 3.03125,2.5625 L 3.0625,2.6875 C 3.2483867,2.6998927 3.5220839,2.8211159 3.90625,3.09375 L 3.9375,3.03125 C 3.4665867,2.6718687 3.1675672,2.51293 3.03125,2.5625 z M 3.03125,2.75 L 3,2.84375 C 3.272634,2.9304973 3.526936,3.0894353 3.75,3.3125 L 3.84375,3.1875 C 3.397622,2.8281187 3.1303899,2.6756454 3.03125,2.75 z M 3,2.875 L 2.96875,2.96875 C 3.241384,3.1174593 3.4703633,3.2893281 3.65625,3.5 L 3.75,3.375 C 3.5145433,3.1147587 3.2478486,2.9493548 3,2.875 z M 2.9375,3.0625 L 2.875,3.15625 C 3.197204,3.3545293 3.4008607,3.5452553 3.5,3.71875 L 3.59375,3.59375 C 3.3954707,3.333508 3.1729568,3.1616393 2.9375,3.0625 z M 2.84375,3.21875 L 2.75,3.3125 C 2.9482793,3.3992473 3.1454707,3.6023659 3.34375,3.875 L 3.4375,3.75 C 3.1648653,3.4154033 2.9800667,3.2311419 2.84375,3.21875 z"
       transform="translate(0.2012428,-1.7605206e-3)"
       id="path2454"
       sodipodi:nodetypes="cscsccsccsccccccccccsccccscccccccccccccscccccccscccssccsscccsccsccccccsccccccccccccscccccsccccccccsscccsccccccccccsccccssccccccccccccccccccccccccccccccccccccc" />
  </g>
</svg>
