<?xml version="1.0" encoding="UTF-8" standalone="no"?>
<svg
   xmlns:dc="http://purl.org/dc/elements/1.1/"
   xmlns:cc="http://creativecommons.org/ns#"
   xmlns:rdf="http://www.w3.org/1999/02/22-rdf-syntax-ns#"
   xmlns:svg="http://www.w3.org/2000/svg"
   xmlns="http://www.w3.org/2000/svg"
   xmlns:sodipodi="http://sodipodi.sourceforge.net/DTD/sodipodi-0.dtd"
   xmlns:inkscape="http://www.inkscape.org/namespaces/inkscape"
   width="23.307501"
   height="19.43788"
   id="svg2716"
   sodipodi:version="0.32"
   inkscape:version="0.46"
   sodipodi:docname="F98.svg"
   inkscape:output_extension="org.inkscape.output.svg.inkscape"
   version="1.0">
  <metadata
     id="metadata2723">
    <rdf:RDF>
      <cc:Work
         rdf:about="">
        <dc:format>image/svg+xml</dc:format>
        <dc:type
           rdf:resource="http://purl.org/dc/dcmitype/StillImage" />
      </cc:Work>
    </rdf:RDF>
  </metadata>
  <defs
     id="defs2721">
    <inkscape:perspective
       sodipodi:type="inkscape:persp3d"
       inkscape:vp_x="0 : 8.1599998 : 1"
       inkscape:vp_y="0 : 1000 : 0"
       inkscape:vp_z="23.789682 : 8.1599998 : 1"
       inkscape:persp3d-origin="11.894841 : 5.4399999 : 1"
       id="perspective2725" />
  </defs>
  <sodipodi:namedview
     inkscape:window-height="712"
     inkscape:window-width="1024"
     inkscape:pageshadow="2"
     inkscape:pageopacity="0.0"
     guidetolerance="10.0"
     gridtolerance="10.0"
     objecttolerance="10.0"
     borderopacity="1.0"
     bordercolor="#666666"
     pagecolor="#ffffff"
     id="base"
     showgrid="false"
     inkscape:zoom="26.083093"
     inkscape:cx="11.84375"
     inkscape:cy="9.0288699"
     inkscape:window-x="-4"
     inkscape:window-y="-4"
     inkscape:current-layer="svg2716"
     showguides="true"
     inkscape:guide-bbox="true" />
  <path
     style="opacity:1;fill:#000000;stroke:none"
     d="M 2.5,0.00037925139 L 2.5,0.68787925 L 1.65625,0.031629251 L 1.65625,0.31287925 C 1.5628253,0.31287925 1.3831386,0.23856775 1.15625,0.094129251 C 1.169596,0.48411355 1.3942047,0.91553855 1.78125,1.4066293 C 1.287434,2.1143787 1.0537113,2.6177523 1.09375,2.9066293 C 0.399738,4.0188065 0.0266923,4.7091394 0,4.9691293 C 0.1201173,5.4602198 0.2548827,5.7191293 0.375,5.7191293 L 0.78125,5.6566293 L 0.78125,6.0941293 C 1.2750667,6.1085728 1.5719401,5.9024446 1.71875,5.4691293 C 2.4661473,4.9202627 2.956054,4.642186 3.15625,4.6566293 C 3.0628253,7.0398658 3.0470379,8.4780387 3.09375,8.9691293 C 3.1404627,9.4602206 3.4169906,10.224865 3.9375,11.250379 C 3.4036447,11.755914 2.8081074,12.127472 2.1875,12.344129 C 1.5668933,12.560787 1.1261408,12.738163 0.8125,12.875379 C 0.49886,13.012596 0.3125001,13.396099 0.3125,14.031629 C 0.2858073,16.140433 0.3440757,17.523461 0.4375,18.187879 L 0.84375,19.437879 C 1.5644553,18.787905 2.0446747,18.339676 1.95125,18.094129 C 1.7644007,17.90636 1.5980609,17.738567 1.45125,17.594129 C 1.7448707,17.247476 1.6999486,16.95023 1.32625,16.719129 C 1.2194787,15.75139 1.2777465,14.795061 1.45125,13.812879 C 2.2653793,13.466227 3.6464787,13.111475 5.96875,12.750379 C 6.4225273,12.779267 8.3489636,12.563773 8.995,12.406629 L 23.3075,12.406629 L 23.3075,11.406629 L 22.37,11.406629 L 22.37,8.3128793 L 23.3075,8.3128793 L 23.3075,7.3441293 L 8.745,7.3128793 C 8.3045693,7.3128793 7.5457938,6.0141202 7.125,4.8753793 L 7.5,4.7816293 C 7.0462233,3.2939118 6.6033539,2.1170108 6.15625,1.2503793 C 5.709146,0.38374765 4.501958,-0.014064849 2.5,0.00037925139 z M 1.84375,0.62537925 C 2.1640633,0.71204195 2.4742828,0.95886955 2.78125,1.4066293 C 2.1139307,1.1177525 1.8037112,0.87092455 1.84375,0.62537925 z M 2.78125,0.90662925 C 3.6754573,0.84885395 4.392414,0.98789285 4.90625,1.3128793 C 5.420086,1.6378664 5.6801488,2.3401461 5.95375,3.4378793 C 6.3290418,5.1225741 7.2389304,7.2982044 8.2925,7.8753793 L 8.2925,11.156629 C 8.2557975,11.429257 8.209655,11.576075 8.13625,11.594129 C 7.98944,11.630239 6.3368453,11.873962 5.3025,11.187879 C 4.2681553,10.501796 3.7512309,9.3919844 3.77125,7.8753793 C 3.7912693,6.3587742 3.8249605,5.0308873 3.865,3.8753793 C 3.451262,3.9909296 2.8291027,4.1538615 2.46875,4.4066293 C 2.108398,4.659397 1.8072929,4.8559405 1.59375,5.0003793 C 1.246744,4.8848281 0.9589842,5.0119208 0.71875,5.3441293 C 0.5585933,5.2719099 0.4820971,5.1424548 0.46875,4.9691293 C 0.6956387,4.376931 1.0507799,3.7034038 1.53125,2.9378793 C 1.517904,2.6201143 1.7382805,2.0999344 2.21875,1.4066293 C 2.5390633,1.6088432 2.8131498,1.7551034 3,1.8128793 L 3.21875,1.6878793 C 3.152018,1.4567778 2.9947921,1.1955069 2.78125,0.90662925 z M 1.9375,2.5316293 C 1.7639973,2.6038487 1.7324219,2.7763644 1.8125,3.0941293 L 2.65625,2.9378793 C 2.6295567,2.8367723 2.3779309,2.7049554 1.9375,2.5316293 z M 1.28125,5.3441293 C 1.3246258,5.3405184 1.3807778,5.3573244 1.4375,5.3753793 C 1.4375,5.5631489 1.3027347,5.6734351 1.0625,5.6878793 C 1.0725095,5.4820543 1.1511227,5.3549621 1.28125,5.3441293 z M 9.15125,8.2816293 L 11.37,8.3128793 L 11.37,11.437879 L 9.12,11.437879 L 9.15125,8.2816293 z M 12.33875,8.3128793 L 14.8075,8.3128793 L 14.8075,11.437879 L 12.37,11.437879 L 12.33875,8.3128793 z M 15.77625,8.3128793 L 18.1825,8.3128793 L 18.1825,11.437879 L 15.77625,11.437879 L 15.77625,8.3128793 z M 19.15125,8.3128793 L 21.40125,8.3128793 L 21.40125,11.406629 L 19.15125,11.437879 L 19.15125,8.3128793 z"
     id="path2718"
     sodipodi:nodetypes="cccccccccccccscssccccccccccccccccccscccccscccssscscccccccccccccccccccccccccccccccccccc" />
</svg>
