<?xml version="1.0" encoding ="US-ASCII" standalone="yes"?>
<svg width="9.027341" height="8.88">
<path style="fill:#000000; stroke:none" d=" M 5.363487 1.987726  C 5.924748 1.987726 6.203566 2.085588 6.706234 2.413525  C 7.792518 3.122197 8.501472 4.712052 8.022554 5.863419  C 7.478015 7.172553 7.172823 7.297768 6.591863 7.588043  C 6.041857 7.86285 5.514234 7.999792 5.016881 7.999792  C 4.311878 7.999792 3.6677 7.724628 3.106838 7.176964  C 2.076864 6.171221 1.78914 4.79108 2.359061 3.590061  C 2.877023 2.498541 3.645301 2.050733 5.098065 1.993571  C 5.193606 1.989811 5.281555 1.987726 5.363487 1.987726  Z  M 1.337494 0  C 1.190613 0 1.083616 0.080563 1.02117 0.243293  C 0.958703 0.406073 1.138528 0.680566 1.522503 1.008545  C 2.116245 1.515706 2.305639 1.974018 1.921482 1.974018  C 1.811619 1.974018 1.442831 1.70168 1.101952 1.368824  C 0.749344 1.024511 0.57247 0.884412 0.428616 0.884412  C 0.35898 0.884412 0.297084 0.91724 0.226736 0.975623  C -0.15259 1.290437 -0.100407 1.426791 0.723918 2.274769  C 1.27899 2.845769 1.450593 3.135804 1.377704 3.379746  C 1.096678 4.320271 1.09258 5.634783 1.368422 6.357067  C 1.816939 7.531505 2.959194 8.545882 4.078681 8.763912  C 4.474799 8.841063 4.847842 8.88 5.200309 8.88  C 6.352754 8.88 7.285234 8.463755 8.085162 7.606012  C 9.139206 6.475788 9.340525 4.485002 8.536867 3.139312  C 8.09341 2.396754 7.345299 1.608949 6.633143 1.380309  C 6.078788 1.202331 5.4948 1.139373 5.003422 1.139373  C 4.43292 1.139373 3.987245 1.22424 3.857719 1.3125  C 3.754745 1.382665 3.647866 1.422802 3.527969 1.422802  C 3.264416 1.422802 2.937987 1.228868 2.451992 0.733671  C 1.974783 0.247431 1.594896 0 1.337494 0  Z "/></svg>
