<?xml version="1.0" encoding="UTF-8" standalone="no"?>
<svg
   width="17.51"
   height="17.78"
   version="1.1"
   id="svg1"
   sodipodi:docname="G1001.svg"
   inkscape:version="1.4 (e7c3feb1, 2024-10-09)"
   xmlns:inkscape="http://www.inkscape.org/namespaces/inkscape"
   xmlns:sodipodi="http://sodipodi.sourceforge.net/DTD/sodipodi-0.dtd"
   xmlns="http://www.w3.org/2000/svg"
   xmlns:svg="http://www.w3.org/2000/svg"
   xmlns:rdf="http://www.w3.org/1999/02/22-rdf-syntax-ns#"
   xmlns:cc="http://creativecommons.org/ns#"
   xmlns:dc="http://purl.org/dc/elements/1.1/">
  <title
     id="title1">G1001</title>
  <defs
     id="defs1" />
  <sodipodi:namedview
     id="namedview1"
     pagecolor="#ffffff"
     bordercolor="#000000"
     borderopacity="0.25"
     inkscape:showpageshadow="2"
     inkscape:pageopacity="0.0"
     inkscape:pagecheckerboard="0"
     inkscape:deskcolor="#d1d1d1"
     inkscape:zoom="1.4623172"
     inkscape:cx="8.8900003"
     inkscape:cy="8.8900003"
     inkscape:window-width="1920"
     inkscape:window-height="1147"
     inkscape:window-x="1024"
     inkscape:window-y="25"
     inkscape:window-maximized="1"
     inkscape:current-layer="svg1" />
  <path
     style="fill:black; stroke:none"
     d=" M 3.4 0.6  C 3.82 0.6 4.16 0.81 4.44 1.24  C 4.59 1.48 4.67 1.64 4.81 2.01  C 5.92 4.1 7.57 6.05 9.12 7.91  C 9.79 8.69 10.42 9.35 10.78 9.65  C 11.84 10.55 13.75 11.8 14.49 12.08  C 14.71 12.17 14.84 12.24 14.93 12.33  C 14.99 12.39 15 12.4 14.98 12.51  C 14.98 12.57 14.98 12.66 14.99 12.72  C 15.05 12.93 15.22 13.03 15.98 13.3  C 16.24 13.4 16.46 13.48 16.46 13.48  C 16.47 13.49 16.36 13.65 16.23 13.85  C 15.92 14.31 15.81 14.5 15.76 14.66  C 15.73 14.76 15.72 14.78 15.67 14.79  C 15.67 14.79 15.67 14.79 15.66 14.79  C 15.53 14.79 15.17 14.53 14.19 13.75  C 12.78 12.61 11.92 12.05 11.12 11.75  C 10.68 11.58 10.3 11.51 9.77 11.51  C 9.7 11.51 9.63 11.51 9.56 11.51  C 8.97 11.53 8.55 11.62 8.18 11.8  C 8.03 11.87 7.96 11.93 7.76 12.12  L 7.56 12.3  L 6.95 11.66  C 6.5 11.17 6.14 10.71 5.67 10.21  C 5.56 10.04 5.27 9.72 4.77 9.11  C 3.9 8.07 3.33 7.22 2.93 6.38  C 2.54 5.59 2.41 5.01 2.51 4.62  C 2.53 4.55 2.61 4.34 2.69 4.15  C 2.91 3.61 2.92 3.51 2.74 3.07  C 2.56 2.63 2.28 2.28 1.99 2.14  C 1.91 2.1 1.84 2.05 1.83 2.03  C 1.78 1.86 2.13 1.21 2.44 0.94  C 2.58 0.81 2.71 0.74 2.95 0.67  C 3.11 0.63 3.26 0.6 3.4 0.6  C 3.4 0.6 3.4 0.6 3.4 0.6  Z  M 6.17 11.75  C 6.17 11.75 6.18 11.75 6.18 11.75  C 6.19 11.76 6.41 11.99 6.8 12.41  C 7.33 13.05 7.45 13.05 7.46 13.14  C 7.47 13.19 7.5 13.93 7.54 14.77  C 7.58 15.61 7.61 16.41 7.62 16.54  L 7.64 16.78  L 6.05 16.78  C 6.05 16.78 6.04 16.78 6.04 16.78  C 4.55 16.78 4.47 16.77 4.48 16.74  C 4.49 16.72 4.55 16.54 4.63 16.34  C 4.7 16.09 4.91 15.65 5.01 15.36  C 5.23 14.79 5.86 13.6 6.02 12.78  C 6.04 12.63 6.09 12.34 6.12 12.13  C 6.14 11.95 6.12 11.76 6.16 11.75  L 6.16 11.75  C 6.16 11.75 6.16 11.75 6.17 11.75  Z  M 3.53 0  C 3 0 2.46 0.18 2.08 0.48  C 1.89 0.63 1.81 0.73 1.64 0.99  C 1.51 1.2 1.38 1.32 1.23 1.4  C 1.17 1.43 0.96 1.48 0.72 1.53  C 0.13 1.65 0 1.73 0 1.96  C -0 2.04 0.01 2.07 0.08 2.13  C 0.17 2.22 0.31 2.27 0.82 2.4  C 1.05 2.46 1.3 2.54 1.39 2.57  C 1.94 2.78 2.19 3.04 2.21 3.45  C 2.22 3.69 2.17 3.9 1.99 4.3  C 1.92 4.47 1.85 4.67 1.83 4.74  C 1.8 4.91 1.84 5.11 2.02 5.66  C 2.45 7.01 2.8 7.59 4.2 9.34  C 4.56 9.79 4.69 9.98 4.81 10.24  C 4.93 10.49 5 10.76 5.09 11.39  C 5.14 11.67 5.19 11.98 5.21 12.08  C 5.22 12.18 5.25 12.35 5.23 12.45  L 5.2 12.67  L 4.89 13.58  C 4.56 14.34 3.66 16.48 3.57 16.71  L 3.54 16.77  L 2.47 16.78  C 1.36 16.79 1.09 16.81 0.76 16.9  C 0.34 17.01 0.25 17.23 0.54 17.44  C 0.74 17.59 0.9 17.65 1.11 17.68  C 1.37 17.71 2.18 17.75 2.99 17.77  C 3.29 17.77 4.32 17.78 5.45 17.78  C 5.72 17.78 5.99 17.78 6.26 17.78  C 8.86 17.77 9.38 17.76 9.51 17.69  C 9.65 17.62 9.78 17.41 9.78 17.27  C 9.78 17.03 9.53 16.83 9.22 16.83  C 9.22 16.83 9.22 16.83 9.22 16.83  C 9.13 16.83 9.01 16.84 8.93 16.85  C 8.89 16.86 8.86 16.86 8.84 16.86  C 8.79 16.86 8.77 16.85 8.73 16.81  C 8.57 16.67 8.49 16.25 8.44 15.18  C 8.4 14.4 8.32 12.83 8.4 12.64  C 8.64 12.36 9.16 12.13 9.45 12.1  C 9.55 12.09 9.64 12.09 9.74 12.09  C 10.56 12.09 11.33 12.38 12.33 13.06  C 12.79 13.37 13.22 13.7 14.44 14.69  C 15.07 15.19 15.62 15.62 15.65 15.63  C 15.68 15.64 15.72 15.65 15.76 15.65  C 15.85 15.65 15.94 15.6 16.03 15.5  C 16.15 15.37 16.21 15.25 16.31 14.96  C 16.43 14.62 16.5 14.47 16.65 14.31  C 16.77 14.18 16.82 14.14 17.23 13.88  C 17.48 13.72 17.53 13.65 17.48 13.54  C 17.47 13.51 17.38 13.39 17.29 13.28  C 17.08 13.03 17.08 13 17.27 12.98  C 17.39 12.97 17.42 12.96 17.47 12.9  C 17.51 12.85 17.52 12.83 17.51 12.73  C 17.48 12.41 17.34 12.34 16.19 12  C 15.15 11.7 14.72 11.54 14.14 11.25  C 13.64 11 13.19 10.72 12.52 10.24  C 10.79 8.88 9.9 8.07 7.33 4.78  C 6.09 3.19 5.67 2.56 5.35 1.74  C 5.12 1.17 4.82 0.74 4.41 0.38  C 4.08 0.1 3.85 0 3.53 0  Z "
     id="path1" />
  <metadata
     id="metadata1">
    <rdf:RDF>
      <cc:Work
         rdf:about="">
        <dc:title>G1001</dc:title>
        <dc:creator>
          <cc:Agent>
            <dc:title>Luca Miatello</dc:title>
          </cc:Agent>
        </dc:creator>
        <dc:description>Wagtail.

Bird found in PT. 269 1-2; Allen, A Grammar of the Ancient Egyptian Pyramid Texts, vol. I, p. 231.

Value : phon. det : bn ?



</dc:description>
      </cc:Work>
    </rdf:RDF>
  </metadata>
</svg>
