<?xml version="1.0" encoding="UTF-8" standalone="no"?>
<svg
   width="1775.9102"
   height="1787.0977"
   version="1.1"
   id="svg1"
   sodipodi:docname="G129D.svg"
   inkscape:version="1.4 (e7c3feb1, 2024-10-09)"
   xmlns:inkscape="http://www.inkscape.org/namespaces/inkscape"
   xmlns:sodipodi="http://sodipodi.sourceforge.net/DTD/sodipodi-0.dtd"
   xmlns="http://www.w3.org/2000/svg"
   xmlns:svg="http://www.w3.org/2000/svg"
   xmlns:rdf="http://www.w3.org/1999/02/22-rdf-syntax-ns#"
   xmlns:cc="http://creativecommons.org/ns#"
   xmlns:dc="http://purl.org/dc/elements/1.1/">
  <title
     id="title2">G129D</title>
  <defs
     id="defs1" />
  <sodipodi:namedview
     id="namedview1"
     pagecolor="#ffffff"
     bordercolor="#000000"
     borderopacity="0.25"
     inkscape:showpageshadow="2"
     inkscape:pageopacity="0.0"
     inkscape:pagecheckerboard="0"
     inkscape:deskcolor="#d1d1d1"
     inkscape:zoom="0.19550756"
     inkscape:cx="30.68935"
     inkscape:cy="7.6723376"
     inkscape:window-width="1728"
     inkscape:window-height="1186"
     inkscape:window-x="1777"
     inkscape:window-y="25"
     inkscape:window-maximized="0"
     inkscape:current-layer="svg1" />
  <path
     id="path1"
     style="fill:#000000;stroke:none;stroke-width:63.8024"
     d="M 5.292969,0 0,1787.0977 h 428.36133 v -485.9161 h 919.18757 v 485.9161 h 428.3613 L 1770.6172,0 H 887.95507 Z M 65.115234,60 H 887.95507 1710.7949 l 4.9356,1667.0977 h -308.1816 v -450.8125 c 6.1299,6.492 12.1853,13.0636 18.3417,19.5273 41.5519,6.8179 84.9307,-11.7307 127.1641,-15.0234 29.0563,-8.6179 65.8205,-2.1988 88.75,-23.5391 11.494,-36.456 -35.5914,-57.1873 -52.7793,-84.4941 -15.8264,-18.7009 -65.7205,-67.4468 -58.7109,-65.9395 50.5155,29.4394 99.2409,62.908 153.0058,86.1738 30.5374,-8.1662 -21.6986,-37.5077 -32.4668,-47.9023 -10.0105,-11.8325 -52.966,-27.5046 -18.2539,-28.668 40.5392,-31.8496 -19.8791,-63.1288 -44.9179,-78.7558 C 1496.1515,972.55511 1404.0095,908.19754 1312.1114,843.56445 1222.4379,716.63685 1137.1272,586.43338 1039.2696,465.51367 990.89126,399.45893 944.24148,323.88682 865.71484,290.70312 857.81038,233.91566 825.91439,176.06216 769.58984,155.5332 737.10209,142.35921 701.56427,138.68988 666.76757,139.02148 c -59.99077,0.13712 -130.78923,16.44123 -161.84179,73.35547 -19.20023,24.63531 3.7744,39.72223 27.94336,30.6875 33.53453,5.21215 39.50248,56.75291 37.43555,85.06446 -16.09094,73.32242 -6.17734,153.09176 33.97657,217.28125 12.75922,29.53246 43.11896,50.81269 47.50585,82.65429 35.06082,114.01409 67.94214,230.17451 76.5918,349.62696 1.25408,23.05279 -8.0825,55.91489 19.35156,64.50779 -18.52251,61.4431 -37.04585,122.887 -55.56836,184.3301 -43.88517,-8.0043 -88.4399,5.6849 -132.25,-2.1738 -19.80563,1.6996 -42.35239,6.393 -60.48046,16.8261 H 368.36133 v 485.9161 H 60.179687 Z M 661.23437,180.44141 c 1.39644,0.007 3.3257,0.25333 5.91993,0.7832 34.5711,-0.0237 69.95087,8.20936 98.73047,27.96094 0.32245,32.30057 -31.61708,52.18595 -60.2422,57.26757 -15.89236,-0.84886 -54.51255,16.15964 -19.73047,21.79493 39.31781,7.08763 84.61264,11.18861 116.34961,-18.46289 20.17984,-0.27506 5.2755,66.22775 43.625,65.5664 64.10302,29.81848 102.04012,93.47061 143.89063,147.22461 65.84296,83.26271 129.37956,168.33894 189.20316,256.0586 44.4571,63.97461 88.6106,128.18724 135.1504,190.67773 C 1190.4048,868.90537 1066.9838,807.8694 944.27343,745.43555 865.8251,704.8485 791.47946,655.46092 729.08398,592.55078 c -32.35747,-32.6273 -63.57899,-69.86749 -76.19727,-114.88086 3.39761,-45.19267 37.67259,-79.72677 64.1172,-113.85351 11.61294,-13.91324 59.19126,-59.84196 16.32813,-55.91407 -46.99721,18.31651 -82.19819,59.03144 -108.4004,100.95118 -7.75257,17.0131 -12.33357,24.69168 -11.5371,1.39453 -2.58812,-31.63791 3.20201,-63.07058 9.48242,-93.72071 -1.57257,-35.60045 -19.07783,-67.79563 -29.28906,-101.29101 -12.61239,-13.57756 22.32588,-29.99453 13.43359,-4.19141 6.5115,36.8302 62.58618,25.01102 57.36914,-10.49023 3.37091,-8.45201 -12.93135,-20.15879 -3.15626,-20.11328 z m 123.60157,564.36328 c 1.02466,0.81363 2.04959,1.62783 3.07422,2.4414 68.09648,53.74341 141.78559,99.71611 214.69724,146.51563 -1.1402,51.21258 -0.6078,102.70015 3.7149,153.64448 -25.03481,-18.7554 -53.94917,-33.2071 -84.74026,-39.1386 C 869.86457,924.01598 807.41065,843.05401 784.83594,744.80469 Z m -32.95898,61.88086 0.68359,1.95898 c 28.4192,79.81193 78.98954,148.65761 123.39063,219.97267 -19.22226,16.2839 -31.70037,28.9817 -47.1797,2.5723 -18.89179,-23.0257 -62.04832,-23.5695 -51.13671,-60.56255 -2.75946,-55.37483 -13.88005,-109.91843 -25.75781,-163.9414 z m 226.55078,11.75586 3.5918,1.79882 3.58984,1.79688 c 132.34972,65.44403 264.05672,132.19147 397.27152,195.88279 59.9088,72.2844 124.9236,140.0808 188.2988,209.2813 -41.0371,6.9023 -82.0742,13.8047 -123.1113,20.707 -91.7042,-99.1091 -182.4474,-199.2088 -274.834,-297.62304 -62.6312,-47.26263 -128.9931,-89.22823 -194.80666,-131.84375 z m 73.89456,108.02343 c 42.172,29.14023 88.1657,54.64528 120.3633,95.52146 67.5975,72.743 134.187,146.5637 201.8886,219.1953 h -283.8398 c -17.5348,-7.6051 -36.5523,-11.1209 -55.4688,-7.8906 -22.5853,0.4066 -59.73887,6.3175 -75.06248,-3.0195 -2.95228,-53.1904 -5.90513,-106.3819 -8.85742,-159.5723 31.16171,13.9874 53.2401,40.7726 76.5449,64.4727 51.2926,16.6336 34.5831,-50.2921 29.627,-78.4707 -4.6916,-43.2344 -5.5368,-86.78328 -5.1953,-130.23636 z m -249.36918,148.49026 1.16211,1.2363 c 13.99783,27.3663 46.74244,54.2188 70.50195,19.0059 25.24769,-36.3471 13.78372,24.6703 18.46485,42.7402 1.76677,32.3645 3.53401,64.7292 5.30078,97.0937 -39.28431,-8.8628 -73.51695,13.1677 -110.52539,-0.6679 -18.26843,-0.8622 -43.22491,5.2881 -26.93164,-20.3496 14.00911,-46.3527 28.01822,-92.7058 42.02734,-139.0586 z" />
  <metadata
     id="metadata2">
    <rdf:RDF>
      <cc:Work
         rdf:about="">
        <dc:title>G129D</dc:title>
        <dc:creator>
          <cc:Agent>
            <dc:title>Serge Rosmorduc</dc:title>
          </cc:Agent>
        </dc:creator>
        <dc:description>Sign combination found in the latest version of the Hieroglyphica.</dc:description>
      </cc:Work>
    </rdf:RDF>
  </metadata>
</svg>
