<?xml version="1.0" encoding="UTF-8" standalone="no"?>
<svg
   xmlns:dc="http://purl.org/dc/elements/1.1/"
   xmlns:cc="http://web.resource.org/cc/"
   xmlns:rdf="http://www.w3.org/1999/02/22-rdf-syntax-ns#"
   xmlns:svg="http://www.w3.org/2000/svg"
   xmlns="http://www.w3.org/2000/svg"
   xmlns:sodipodi="http://sodipodi.sourceforge.net/DTD/sodipodi-0.dtd"
   xmlns:inkscape="http://www.inkscape.org/namespaces/inkscape"
   width="15.08406"
   height="17.977583"
   id="svg2555"
   sodipodi:version="0.32"
   inkscape:version="0.45"
   sodipodi:docname="G155.svg"
   inkscape:output_extension="org.inkscape.output.svg.inkscape"
   sodipodi:docbase="C:\Program Files\JSesh\GroupeG"
   sodipodi:modified="true">
  <metadata
     id="metadata2562">
    <rdf:RDF>
      <cc:Work
         rdf:about="">
        <dc:format>image/svg+xml</dc:format>
        <dc:type
           rdf:resource="http://purl.org/dc/dcmitype/StillImage" />
      </cc:Work>
    </rdf:RDF>
  </metadata>
  <defs
     id="defs2560" />
  <sodipodi:namedview
     inkscape:window-height="480"
     inkscape:window-width="640"
     inkscape:pageshadow="2"
     inkscape:pageopacity="0.0"
     guidetolerance="10.0"
     gridtolerance="10.0"
     objecttolerance="10.0"
     borderopacity="1.0"
     bordercolor="#666666"
     pagecolor="#ffffff"
     id="base" />
  <path
     style="fill:#000000; stroke:none"
     d="M 7.03125 0 C 6.86351 0 6.7134667 0.03084733 6.5625 0.09375 C 6.4115333 0.15665267 6.2694746 0.23052533 6.15625 0.34375 C 6.0430253 0.45697467 5.9691528 0.60742001 5.90625 0.75 C 5.8433473 0.89257933 5.8124998 1.05101 5.8125 1.21875 C 5.8125 1.3864907 5.8433474 1.5407273 5.90625 1.6875 C 5.9691527 1.8342733 6.0430253 1.9534686 6.15625 2.0625 C 6.2694747 2.1715307 6.4549615 2.2598793 6.65625 2.34375 C 6.396252 2.360524 6.1966919 2.4862115 6.0625 2.6875 C 5.9031467 2.6791127 5.826976 2.7552834 5.84375 2.90625 C 5.6173007 2.973346 5.5 3.170608 5.5 3.53125 C 5.600644 3.4725407 5.6745165 3.4519759 5.75 3.46875 C 5.850644 3.46875 5.9412906 3.5902432 6 3.8125 C 6.0587087 4.034756 6.2049612 4.2857287 6.40625 4.5625 L 0.1875 4.5625 C 0.1875 6.3740973 0.83569677 7.2812498 2.09375 7.28125 L 5.5 7.28125 C 5.2316153 7.381894 4.8385848 7.6286731 4.34375 8.03125 C 3.2031153 9.0293053 2.6249999 10.17106 2.625 11.4375 C 2.625 11.772981 2.625 12.017461 2.625 12.21875 C 2.7340313 13.426481 3.2317822 14.477589 4.125 15.375 C 4.5106612 15.762472 4.9478644 16.061075 5.4375 16.28125 L 1.4375 16.28125 L 0 15.375 L 0 17.96875 L 15.09375 17.96875 L 15.09375 15.375 L 13.625 16.28125 L 9.84375 16.28125 C 10.325643 16.061747 10.773516 15.757734 11.15625 15.375 C 12.053661 14.477589 12.538832 13.426481 12.65625 12.21875 C 12.664637 11.824559 12.673024 11.580079 12.65625 11.4375 C 12.65625 10.17106 12.100998 9.0293058 10.96875 8.03125 C 10.482303 7.6454467 10.083183 7.3986678 9.78125 7.28125 L 12.65625 7.28125 C 14.023335 7.28125 14.6875 6.3740974 14.6875 4.5625 L 8.96875 4.5625 C 8.918428 3.9502473 8.7539091 3.4319314 8.46875 3 C 8.1835907 2.568068 7.8195121 2.3353626 7.375 2.34375 C 7.6349973 2.2682667 7.8284687 2.1757246 7.9375 2.0625 C 8.0465313 1.9492753 8.1204039 1.8342733 8.1875 1.6875 C 8.2545967 1.5407273 8.2812498 1.3864907 8.28125 1.21875 C 8.28125 1.05101 8.2545966 0.89257934 8.1875 0.75 C 8.120404 0.60742 8.0465314 0.45697466 7.9375 0.34375 C 7.8284687 0.23052533 7.6822161 0.15665266 7.53125 0.09375 C 7.3802833 0.030847333 7.2073776 0 7.03125 0 z M 7.03125 0.25 C 7.165442 0.25 7.3116948 0.293428 7.4375 0.34375 C 7.563306 0.39407267 7.6577434 0.47443665 7.75 0.5625 C 7.8422573 0.650564 7.918428 0.73052533 7.96875 0.84375 C 8.019072 0.95697467 8.0624997 1.0845573 8.0625 1.21875 C 8.0625 1.352942 8.019072 1.4805246 7.96875 1.59375 C 7.918428 1.7069747 7.8422574 1.8181866 7.75 1.90625 C 7.6577433 1.994314 7.5633062 2.0476212 7.4375 2.09375 C 7.3116947 2.1398787 7.1654422 2.15625 7.03125 2.15625 C 6.897058 2.15625 6.7820562 2.1398786 6.65625 2.09375 C 6.5304447 2.0476213 6.4047565 1.994314 6.3125 1.90625 C 6.2202427 1.8181867 6.175322 1.7069746 6.125 1.59375 C 6.0746773 1.4805247 6.0312498 1.352942 6.03125 1.21875 C 6.03125 1.0845573 6.0746773 0.95697466 6.125 0.84375 C 6.175322 0.73052533 6.2202425 0.65056399 6.3125 0.5625 C 6.4047567 0.47443667 6.5304449 0.39407267 6.65625 0.34375 C 6.782056 0.293428 6.8970582 0.25 7.03125 0.25 z M 6.9375 2.65625 C 7.281368 2.65625 7.4767348 2.8020994 7.53125 3.125 C 7.585766 3.4479 7.4193511 3.6866947 7 3.8125 C 7.1425793 4.0808847 7.1425791 4.2412099 7 4.3125 C 6.8574207 4.3837893 6.7195555 4.3487487 6.59375 4.21875 C 6.4679447 4.0887513 6.3464509 3.9036674 6.25 3.65625 C 6.1535493 3.4088327 6.0054019 3.28125 5.8125 3.28125 L 6.03125 3.28125 C 5.9389927 3.147058 5.9207262 3.0442333 5.9375 2.96875 C 6.0213707 2.985524 6.0602018 2.9588701 6.09375 2.875 C 6.2363293 2.7240333 6.5181485 2.65625 6.9375 2.65625 z M 7.65625 2.6875 C 7.782056 2.6875 7.9713329 2.8272608 8.21875 3.125 C 8.466168 3.4227393 8.6059287 3.8854493 8.65625 4.53125 L 8.71875 5.46875 C 8.911652 7.5235707 9.0270565 8.940653 9.03125 9.75 C 9.035444 10.559347 8.6961235 11.209439 8 11.6875 L 8.625 13.15625 C 7.9624253 13.516891 7.3393895 13.516892 6.71875 13.15625 L 7.375 11.6875 C 6.67049 11.217827 6.3083062 10.559348 6.3125 9.75 C 6.3166933 8.9406527 6.3886708 8.0049499 6.53125 6.90625 L 6.71875 5.4375 L 6.78125 4.5625 C 7.1335053 4.5625 7.28125 4.3568506 7.28125 3.9375 C 7.8264067 3.6691147 7.9665707 3.2494301 7.65625 2.6875 z M 6.4375 2.84375 C 6.2781469 2.8521373 6.1875 2.928308 6.1875 3.0625 C 6.1875001 3.2218534 6.2781467 3.3125 6.4375 3.3125 C 6.5884662 3.3124999 6.6478627 3.2218533 6.65625 3.0625 C 6.6478625 2.9283081 6.588466 2.8521373 6.4375 2.84375 z M 0.625 4.875 L 1.6875 4.875 C 1.6875 5.6717673 2.3006561 6.0625 3.5 6.0625 L 6.28125 6.0625 L 6.1875 6.9375 L 2.5 6.9375 C 1.2671073 6.9375 0.64177398 6.2504712 0.625 4.875 z M 2 4.875 L 6.375 4.875 L 6.3125 5.75 L 3.5 5.75 C 2.5103313 5.75 1.9999999 5.4620912 2 4.875 z M 9.03125 4.875 L 12.875 4.875 C 12.875 5.4620913 12.395918 5.7500002 11.40625 5.75 L 9.125 5.75 L 9.03125 4.875 z M 13.1875 4.875 L 14.28125 4.875 C 14.272863 6.2504713 13.639142 6.9375002 12.40625 6.9375 L 9.21875 6.9375 L 9.15625 6.0625 L 11.40625 6.0625 C 12.605594 6.0625 13.1875 5.6717672 13.1875 4.875 z M 6.03125 7.4375 L 3.3125 10.875 C 3.2424395 10.88975 3.1869546 10.943057 3.125 10.96875 C 3.279474 9.9845147 3.7020901 9.1492805 4.4375 8.5 C 4.9574953 8.0471007 5.4777064 7.6974982 6.03125 7.4375 z M 9.40625 7.5625 C 9.8759233 7.7470147 10.371778 8.0554877 10.875 8.5 C 11.617035 9.1492808 12.031634 9.9845148 12.1875 10.96875 C 12.118831 10.937823 12.048427 10.891774 11.96875 10.875 L 9.40625 7.5625 z M 6.09375 7.84375 C 5.9176227 8.8753533 5.8993558 9.73299 6 10.4375 L 5.34375 10.75 L 4.84375 9.9375 L 3.78125 11.03125 L 3.8125 11.03125 C 3.745404 11.224151 3.8234701 11.421816 4.0625 11.59375 C 4.30153 11.765685 4.4291126 11.905445 4.4375 12.03125 C 4.2445987 11.913832 4.0838709 11.854032 4 11.875 C 3.91613 11.895967 3.8319748 11.813708 3.71875 11.625 C 3.6139788 11.450381 3.4031919 11.342033 3.09375 11.25 C 3.0957936 11.229467 3.0914687 11.207896 3.09375 11.1875 L 3.5 11.0625 L 6.09375 7.84375 z M 9.21875 7.84375 L 11.71875 10.96875 L 11.9375 11.125 L 12.21875 11.21875 C 11.892719 11.311043 11.676199 11.442269 11.5625 11.625 C 11.445082 11.813708 11.360927 11.895968 11.28125 11.875 C 11.201573 11.854032 11.036652 11.913832 10.84375 12.03125 C 10.852137 11.905445 10.983913 11.765684 11.21875 11.59375 C 11.453587 11.421816 11.535846 11.224152 11.46875 11.03125 L 10.46875 9.9375 L 9.96875 10.75 L 9.375 10.4375 C 9.4756433 9.7413767 9.4032642 8.8837398 9.21875 7.84375 z M 4.84375 10.40625 L 5.3125 11.15625 L 6.09375 10.75 C 6.2531033 11.085481 6.5204474 11.435084 6.90625 11.8125 L 6.1875 13.4375 C 7.1855553 13.923948 8.1749682 13.923948 9.15625 13.4375 L 8.40625 11.8125 C 8.80044 11.435083 9.0677835 11.08548 9.21875 10.75 L 10 11.15625 L 10.5 10.40625 L 11.25 11.09375 C 11.266775 11.286652 11.141087 11.465647 10.90625 11.625 C 10.671413 11.784354 10.653147 12.021252 10.8125 12.28125 C 10.946692 12.147057 11.057501 12.072782 11.1875 12.09375 C 11.317499 12.114717 11.504881 11.997418 11.71875 11.75 C 11.852418 11.595365 12.039342 11.51691 12.25 11.46875 C 12.256113 11.574863 12.28125 11.671644 12.28125 11.78125 C 12.28125 13.064464 11.824629 14.113274 10.90625 14.96875 C 9.9878713 15.824226 8.8830533 16.28125 7.625 16.28125 C 6.3921073 16.28125 5.3246284 15.824226 4.40625 14.96875 C 3.4878713 14.113273 3.03125 13.064464 3.03125 11.78125 C 3.03125 11.671644 3.0564416 11.574863 3.0625 11.46875 C 3.2597925 11.519419 3.4351219 11.602642 3.5625 11.75 C 3.7763687 11.997417 3.9325004 12.114718 4.0625 12.09375 C 4.1924987 12.072782 4.3345571 12.147058 4.46875 12.28125 C 4.6281033 12.021252 4.5743932 11.784354 4.34375 11.625 C 4.1131067 11.465647 4.0228625 11.309515 4.03125 11.125 L 4.84375 10.40625 z M 0.46875 16.125 L 1.4375 16.71875 L 7.625 16.71875 L 13.625 16.71875 L 14.625 16.125 L 14.625 17.53125 L 0.46875 17.53125 L 0.46875 16.125 z "
     id="path2557" />
</svg>
