<?xml version="1.0" encoding="UTF-8" standalone="no"?>
<svg
   xmlns:dc="http://purl.org/dc/elements/1.1/"
   xmlns:cc="http://web.resource.org/cc/"
   xmlns:rdf="http://www.w3.org/1999/02/22-rdf-syntax-ns#"
   xmlns:svg="http://www.w3.org/2000/svg"
   xmlns="http://www.w3.org/2000/svg"
   xmlns:sodipodi="http://sodipodi.sourceforge.net/DTD/sodipodi-0.dtd"
   xmlns:inkscape="http://www.inkscape.org/namespaces/inkscape"
   width="11.106106"
   height="17.977583"
   id="svg2592"
   sodipodi:version="0.32"
   inkscape:version="0.45"
   sodipodi:docname="G156.svg"
   inkscape:output_extension="org.inkscape.output.svg.inkscape"
   sodipodi:docbase="C:\Program Files\JSesh\GroupeG"
   sodipodi:modified="true">
  <metadata
     id="metadata2599">
    <rdf:RDF>
      <cc:Work
         rdf:about="">
        <dc:format>image/svg+xml</dc:format>
        <dc:type
           rdf:resource="http://purl.org/dc/dcmitype/StillImage" />
      </cc:Work>
    </rdf:RDF>
  </metadata>
  <defs
     id="defs2597" />
  <sodipodi:namedview
     inkscape:window-height="480"
     inkscape:window-width="640"
     inkscape:pageshadow="2"
     inkscape:pageopacity="0.0"
     guidetolerance="10.0"
     gridtolerance="10.0"
     objecttolerance="10.0"
     borderopacity="1.0"
     bordercolor="#666666"
     pagecolor="#ffffff"
     id="base" />
  <path
     style="fill:#000000; stroke:none"
     d="M 5.46875 0 C 5.350648 0 5.2607247 0.017076001 5.15625 0.0625 C 5.0517753 0.10792333 4.9567627 0.17277935 4.875 0.25 C 4.7932373 0.32722 4.7329242 0.43131731 4.6875 0.53125 C 4.6420767 0.631182 4.59375 0.71656333 4.59375 0.84375 C 4.59375 0.96185133 4.6420769 1.0875673 4.6875 1.1875 C 4.732924 1.287432 4.7932374 1.3602793 4.875 1.4375 C 4.9567627 1.51472 5.0512286 1.5926567 5.1875 1.65625 C 4.8786187 1.6653347 4.6936827 1.7387287 4.59375 1.875 C 4.4847333 1.875 4.4284154 1.9222326 4.4375 2.03125 C 4.2830593 2.0675887 4.1875 2.2365421 4.1875 2.5 C 4.2510933 2.4636607 4.3204912 2.4375 4.375 2.4375 C 4.447678 2.4375 4.4903689 2.5285166 4.53125 2.6875 C 4.5721313 2.8464827 4.59375 2.99672 4.59375 3.1875 C 3.3037153 3.0239747 2.1817333 2.1955687 1.21875 0.6875 C 0.77359733 2.113806 0.83046134 3.19764 1.34375 3.90625 C 1.857038 4.6148607 2.7019741 5.0723008 3.9375 5.28125 C 3.7390283 5.3585309 3.476277 5.5314785 3.125 5.8125 C 2.2801187 6.5483647 1.84375 7.3767708 1.84375 8.3125 C 1.84375 8.3492932 1.84375 8.3715009 1.84375 8.40625 C 1.84375 8.6031618 1.84375 8.8062254 1.84375 8.9375 C 1.9255127 9.8278053 2.3101061 10.591356 2.96875 11.25 C 3.246638 11.527888 3.5563989 11.745605 3.90625 11.90625 L 1.0625 11.90625 L 0 11.25 L 0 13.15625 L 11.09375 13.15625 L 11.09375 11.25 L 10.03125 11.90625 L 7.1875 11.90625 C 7.538459 11.745605 7.8451956 11.527888 8.125 11.25 C 8.7881867 10.591356 9.1682372 9.8278053 9.25 8.9375 C 9.257722 8.6903948 9.2554053 8.5220804 9.25 8.40625 C 9.2490461 8.3858093 9.2513627 8.3288525 9.25 8.3125 C 9.2409153 7.3767707 8.8267119 6.5483648 8 5.8125 C 7.63661 5.5308727 7.343034 5.3630128 7.125 5.28125 C 8.4059493 5.0723007 9.3213765 4.6148607 9.84375 3.90625 C 10.366123 3.19764 10.369572 2.113806 9.90625 0.6875 C 8.9523513 2.1955687 7.8434493 3.04614 6.5625 3.21875 C 6.5534147 2.7463433 6.4720294 2.37992 6.28125 2.09375 C 6.09047 1.8075807 5.9004447 1.6471654 5.71875 1.65625 C 5.9004447 1.6017413 6.0165295 1.5505127 6.09375 1.46875 C 6.17097 1.3869873 6.235826 1.287432 6.28125 1.1875 C 6.326674 1.0875673 6.3437498 0.96185133 6.34375 0.84375 C 6.34375 0.71656333 6.326674 0.63118197 6.28125 0.53125 C 6.235826 0.43131733 6.1709701 0.32722001 6.09375 0.25 C 6.0165293 0.17277933 5.9169748 0.10792333 5.8125 0.0625 C 5.7080253 0.017076 5.5959359 0 5.46875 0 z M 5.46875 0.25 C 5.5505127 0.25 5.64153 0.24945334 5.71875 0.28125 C 5.7959707 0.31304667 5.8471991 0.38299133 5.90625 0.4375 C 5.9653013 0.49200867 6.0307032 0.55232201 6.0625 0.625 C 6.094296 0.697678 6.0937501 0.75290266 6.09375 0.84375 C 6.09375 0.92551267 6.0942958 1.021072 6.0625 1.09375 C 6.0307033 1.166428 5.9653011 1.2267414 5.90625 1.28125 C 5.8471993 1.335758 5.7959707 1.3789953 5.71875 1.40625 C 5.64153 1.433504 5.5505126 1.4374999 5.46875 1.4375 C 5.3779027 1.4375 5.2959705 1.433504 5.21875 1.40625 C 5.1415293 1.3789953 5.0903007 1.335758 5.03125 1.28125 C 4.9721993 1.2267413 4.9067967 1.166428 4.875 1.09375 C 4.8432033 1.021072 4.8437502 0.92551266 4.84375 0.84375 C 4.84375 0.75290267 4.8432033 0.69767801 4.875 0.625 C 4.9067967 0.552322 4.9721993 0.49200866 5.03125 0.4375 C 5.0903007 0.38299133 5.1415291 0.31304667 5.21875 0.28125 C 5.2959707 0.24945333 5.3779026 0.25 5.46875 0.25 z M 1.34375 1.28125 C 2.1977167 2.571284 3.2895419 3.30922 4.625 3.5 L 4.4375 5.03125 C 2.9657707 4.8223007 2.0116487 4.4086447 1.59375 3.75 C 1.175852 3.091356 1.098462 2.2624027 1.34375 1.28125 z M 9.8125 1.28125 C 10.066873 2.2624027 9.9803984 3.0913561 9.5625 3.75 C 9.1446013 4.4086447 8.1995639 4.8444659 6.71875 5.0625 L 6.59375 3.5 C 7.8837847 3.30922 8.9676185 2.571284 9.8125 1.28125 z M 5.21875 1.875 C 5.4549533 1.875 5.5841178 1.9916314 5.625 2.21875 C 5.6658813 2.4458687 5.5497969 2.5744873 5.25 2.65625 C 5.2681693 2.84703 5.2334707 2.9682033 5.15625 3 C 5.07903 3.0317967 5.0101778 3.010178 4.9375 2.9375 C 4.864822 2.864822 4.7868861 2.7351107 4.71875 2.5625 C 4.6506147 2.38989 4.5646868 2.3124999 4.4375 2.3125 L 4.5625 2.3125 C 4.4989073 2.212568 4.4818306 2.139174 4.5 2.09375 C 4.554508 2.09375 4.5977453 2.0857587 4.625 2.03125 C 4.7158473 1.931318 4.9098685 1.8750001 5.21875 1.875 z M 5.71875 1.90625 C 5.8095973 1.90625 5.9080595 2.0098007 6.0625 2.21875 C 6.2169407 2.4276993 6.3124999 2.7463432 6.3125 3.21875 C 6.4851107 5.1992253 6.5579579 6.4941567 6.5625 7.09375 C 6.5670427 7.693344 6.3303309 8.1860289 5.8125 8.53125 L 6.28125 9.59375 C 5.799758 9.857208 5.3383221 9.8572076 4.875 9.59375 L 5.34375 8.53125 C 4.8259187 8.1769447 4.5579574 7.6888014 4.5625 7.09375 C 4.567042 6.4986987 4.6188174 5.8085428 4.71875 5 L 4.90625 3.21875 C 5.26964 3.21875 5.4687499 3.0810467 5.46875 2.78125 C 5.8503093 2.59047 5.936784 2.296894 5.71875 1.90625 z M 4.84375 2 C 4.7347328 2.0090847 4.6965847 2.0563173 4.6875 2.15625 C 4.6965849 2.2652667 4.7347327 2.34375 4.84375 2.34375 C 4.9436821 2.3437499 4.9909153 2.2652667 5 2.15625 C 4.9909153 2.0563173 4.943682 2.0090847 4.84375 2 z M 4.375 5.40625 L 2.375 8 C 2.305768 8.0133137 2.2458055 8.0343574 2.1875 8.0625 C 2.2913113 7.3061218 2.6243305 6.6839779 3.1875 6.1875 C 3.5690593 5.8604487 3.9661858 5.5970295 4.375 5.40625 z M 6.84375 5.5 C 7.1889707 5.627186 7.5650254 5.8604485 7.9375 6.1875 C 8.500669 6.683978 8.8336888 7.3061219 8.9375 8.0625 C 8.8799749 8.0343574 8.8192321 8.0133137 8.75 8 L 6.84375 5.5 z M 4.40625 5.6875 C 4.2790633 6.4506193 4.2710713 7.0759196 4.34375 7.59375 L 3.875 7.84375 L 3.5 7.21875 L 2.71875 8.09375 C 2.6642413 8.239106 2.7290974 8.4040629 2.90625 8.53125 C 3.0834027 8.658436 3.1784154 8.7529023 3.1875 8.84375 C 3.042144 8.752902 2.9385933 8.705123 2.875 8.71875 C 2.8114067 8.7323773 2.7380126 8.667521 2.65625 8.53125 C 2.5780116 8.4008524 2.4237896 8.3138503 2.1875 8.25 L 2.5 8.125 L 4.40625 5.6875 z M 6.71875 5.6875 L 8.59375 8.125 L 8.9375 8.21875 C 8.7010237 8.2827873 8.551335 8.3965066 8.46875 8.53125 C 8.3824453 8.6720633 8.3090502 8.732377 8.25 8.71875 C 8.1909487 8.7051233 8.0828561 8.761987 7.9375 8.84375 C 7.9465847 8.752902 8.0461396 8.6271862 8.21875 8.5 C 8.39136 8.372814 8.4516732 8.2783477 8.40625 8.1875 L 7.65625 7.21875 L 7.28125 7.84375 L 6.8125 7.59375 C 6.885178 7.0759193 6.8459365 6.4506194 6.71875 5.6875 z M 3.46875 7.53125 L 3.84375 8.125 L 4.40625 7.8125 C 4.5243513 8.0668727 4.7183727 8.3524575 5 8.625 L 4.46875 9.8125 C 5.2046147 10.166805 5.9385554 10.166805 6.65625 9.8125 L 6.125 8.625 C 6.4066273 8.3524573 6.6006479 8.0668726 6.71875 7.8125 L 7.3125 8.125 L 7.65625 7.5625 L 8.21875 8.15625 C 8.2278347 8.2925213 8.1726099 8.4131484 8 8.53125 C 7.8273893 8.6493513 7.7881482 8.8092204 7.90625 9 C 8.006182 8.9091533 8.0921096 8.8926234 8.1875 8.90625 C 8.28289 8.9198773 8.4080596 8.8066953 8.5625 8.625 C 8.6633407 8.5063641 8.8059394 8.4709275 8.96875 8.4375 C 8.9707589 8.4902668 8.96875 8.5398466 8.96875 8.59375 C 8.96875 9.538564 8.6410213 10.30611 7.96875 10.9375 C 7.2964787 11.56889 6.4891447 11.90625 5.5625 11.90625 C 4.6449407 11.90625 3.8330639 11.56889 3.15625 10.9375 C 2.479436 10.30611 2.15625 9.5385642 2.15625 8.59375 C 2.15625 8.5398466 2.1542411 8.4902668 2.15625 8.4375 C 2.3071862 8.4747434 2.433522 8.5417688 2.53125 8.65625 C 2.6902327 8.8424873 2.84211 8.9244194 2.9375 8.90625 C 3.03289 8.8880807 3.118818 8.9313177 3.21875 9.03125 C 3.336852 8.84047 3.2976107 8.6851443 3.125 8.5625 C 2.95239 8.439856 2.8659152 8.3146864 2.875 8.1875 L 3.46875 7.53125 z M 0.34375 11.78125 L 1.0625 12.25 L 5.53125 12.25 L 10.03125 12.25 L 10.75 11.78125 L 10.75 12.84375 L 0.34375 12.84375 L 0.34375 11.78125 z M 4.125 13.3125 C 3.7888647 13.339754 3.5425214 13.590093 3.40625 14.0625 C 3.6606227 14.0625 3.8898893 13.936784 4.0625 13.71875 C 4.1442627 13.982209 4.3212081 14.181319 4.59375 14.28125 C 4.5846653 13.772504 4.4247969 13.448771 4.125 13.3125 z M 7.0625 13.3125 C 6.771788 13.448771 6.6289961 13.759423 6.65625 14.25 C 6.892454 14.159153 7.0432373 13.973123 7.125 13.71875 C 7.29761 13.927699 7.5530379 14.053415 7.84375 14.0625 C 7.67114 13.590093 7.4077209 13.339754 7.0625 13.3125 z M 5.5625 13.375 C 5.244534 13.456763 5.0635934 13.728173 5 14.21875 C 5.2543733 14.173327 5.435314 14.026538 5.5625 13.78125 C 5.6896867 14.026539 5.8967878 14.173327 6.1875 14.21875 C 6.0966527 13.728173 5.8895513 13.456763 5.5625 13.375 z M 5.5625 14.25 C 5.271788 14.331763 5.0606899 14.586097 4.90625 15.03125 C 4.9153347 15.113012 4.9494873 15.134084 5.03125 15.125 C 5.22203 15.006899 5.3989753 14.886271 5.5625 14.75 C 5.726026 14.886271 5.9120555 15.029064 6.09375 15.15625 C 6.1845973 15.15625 6.2409148 15.113012 6.25 15.03125 C 6.0955593 14.586097 5.8532127 14.331763 5.5625 14.25 z M 7.25 14.25 C 6.9865427 14.386271 6.8005126 14.670762 6.71875 15.125 C 6.746004 15.206763 6.7932365 15.23692 6.875 15.21875 C 7.0385253 15.064309 7.2074789 14.913525 7.34375 14.75 C 7.5254447 14.859017 7.6973008 14.940402 7.90625 15.03125 C 7.9880127 15.022165 8.0403349 14.988013 8.03125 14.90625 C 7.8041313 14.497437 7.5497974 14.286339 7.25 14.25 z M 3.9375 14.28125 C 3.6377033 14.308505 3.3833686 14.497437 3.15625 14.90625 C 3.1471653 14.988013 3.1994874 15.053415 3.28125 15.0625 C 3.4901993 14.971652 3.6620553 14.881182 3.84375 14.78125 C 3.9800213 14.935691 4.1489747 15.086474 4.3125 15.25 C 4.3942627 15.268169 4.4414953 15.238013 4.46875 15.15625 C 4.3869873 14.692928 4.2009581 14.408437 3.9375 14.28125 z M 7.375 15.0625 C 7.1115427 15.198771 6.9567632 15.514512 6.875 15.96875 C 6.9022547 16.050513 6.9494871 16.08067 7.03125 16.0625 C 7.1947753 15.908059 7.3324788 15.726026 7.46875 15.5625 C 7.6504447 15.671516 7.8535507 15.784152 8.0625 15.875 C 8.1442627 15.856831 8.1965844 15.822678 8.1875 15.75 C 7.9603813 15.341187 7.6747967 15.098839 7.375 15.0625 z M 3.78125 15.09375 C 3.4814533 15.121004 3.2271187 15.341186 3 15.75 C 2.9909153 15.831763 3.0119874 15.856831 3.09375 15.875 C 3.3026993 15.784153 3.5058053 15.702767 3.6875 15.59375 C 3.8237713 15.757275 3.9927242 15.908059 4.15625 16.0625 C 4.2380127 16.080669 4.2852461 16.050513 4.3125 15.96875 C 4.2307373 15.514513 4.0447079 15.230021 3.78125 15.09375 z M 5.5625 15.21875 C 5.271788 15.309597 5.0606899 15.563932 4.90625 16 C 4.9153347 16.081763 4.9494873 16.125 5.03125 16.125 C 5.22203 15.997814 5.3989753 15.886272 5.5625 15.75 C 5.726026 15.886272 5.9120555 15.997814 6.09375 16.125 C 6.1845973 16.125 6.2409148 16.081763 6.25 16 C 6.0955593 15.563933 5.8532127 15.309597 5.5625 15.21875 z M 3.59375 15.96875 C 3.257614 15.932411 2.946962 16.191834 2.65625 16.71875 C 2.6653347 16.855021 2.7387286 16.859018 2.875 16.75 C 3.06578 16.559221 3.2950466 16.455669 3.53125 16.4375 C 3.7583687 16.537432 3.9222334 16.701296 4.03125 16.9375 C 4.1130133 17.101026 4.1864065 17.127187 4.25 17 C 4.1500673 16.400407 3.9208008 16.050513 3.59375 15.96875 z M 7.53125 15.96875 C 7.195114 16.050513 6.9970971 16.378242 6.90625 16.96875 C 6.9698433 17.095937 7.043238 17.091942 7.125 16.9375 C 7.243102 16.701297 7.4069662 16.506182 7.625 16.40625 C 7.861204 16.424419 8.0592211 16.537056 8.25 16.71875 C 8.3862707 16.836852 8.4596643 16.823771 8.46875 16.6875 C 8.178038 16.160585 7.8673854 15.93241 7.53125 15.96875 z M 5.5625 16.125 C 5.2081953 16.152253 4.9407799 16.436745 4.75 17 C 4.7863393 17.127186 4.8818988 17.127186 5 17 C 5.1544407 16.781966 5.3353814 16.648258 5.5625 16.59375 C 5.798704 16.648259 6.0018093 16.781966 6.15625 17 C 6.2743513 17.136271 6.3386608 17.136271 6.375 17 C 6.1751353 16.436745 5.898636 16.152254 5.5625 16.125 z M 3.4375 16.875 C 3.0922793 16.838661 2.7594621 17.098085 2.46875 17.625 C 2.48692 17.761271 2.5824787 17.765266 2.71875 17.65625 C 2.9095293 17.474555 3.1166314 17.371004 3.34375 17.34375 C 3.5708687 17.452768 3.7256479 17.616632 3.84375 17.84375 C 3.9255127 17.998191 3.9989066 18.033436 4.0625 17.90625 C 3.962568 17.324825 3.7645513 16.965847 3.4375 16.875 z M 7.6875 16.875 C 7.3604487 16.956763 7.1311818 17.306656 7.03125 17.90625 C 7.0948433 18.024352 7.1904026 17.989107 7.28125 17.84375 C 7.3902673 17.598463 7.5632168 17.443683 7.78125 17.34375 C 8.0265387 17.371003 8.2245552 17.474554 8.40625 17.65625 C 8.551606 17.765267 8.6159153 17.730021 8.625 17.59375 C 8.3252033 17.07592 8.0236353 16.847746 7.6875 16.875 z M 5.5625 17 C 5.2081953 17.018169 4.9407799 17.311745 4.75 17.875 C 4.7863393 18.011271 4.8818988 18.011271 5 17.875 C 5.1544407 17.66605 5.3353814 17.532344 5.5625 17.46875 C 5.798704 17.532343 6.0018093 17.66605 6.15625 17.875 C 6.2743513 18.011271 6.3386608 18.011271 6.375 17.875 C 6.1751353 17.311745 5.898636 17.018169 5.5625 17 z "
     id="path2594" />
</svg>
