<?xml version="1.0" encoding="UTF-8" standalone="no"?>
<svg
   width="1865.7004"
   height="1802.6523"
   version="1.1"
   id="svg2"
   sodipodi:docname="G15A.svg"
   inkscape:version="1.4 (e7c3feb1, 2024-10-09)"
   xmlns:inkscape="http://www.inkscape.org/namespaces/inkscape"
   xmlns:sodipodi="http://sodipodi.sourceforge.net/DTD/sodipodi-0.dtd"
   xmlns="http://www.w3.org/2000/svg"
   xmlns:svg="http://www.w3.org/2000/svg"
   xmlns:rdf="http://www.w3.org/1999/02/22-rdf-syntax-ns#"
   xmlns:cc="http://creativecommons.org/ns#"
   xmlns:dc="http://purl.org/dc/elements/1.1/">
  <title
     id="title2">G15A</title>
  <defs
     id="defs2" />
  <sodipodi:namedview
     id="namedview2"
     pagecolor="#ffffff"
     bordercolor="#000000"
     borderopacity="0.25"
     inkscape:showpageshadow="2"
     inkscape:pageopacity="0.0"
     inkscape:pagecheckerboard="0"
     inkscape:deskcolor="#d1d1d1"
     inkscape:zoom="0.18055556"
     inkscape:cx="2785.8461"
     inkscape:cy="863.99998"
     inkscape:window-width="1376"
     inkscape:window-height="659"
     inkscape:window-x="0"
     inkscape:window-y="25"
     inkscape:window-maximized="0"
     inkscape:current-layer="svg2" />
  <path
     id="path1"
     style="fill:#000000;stroke:none;stroke-width:99.9926"
     d="M 1392.6777,0 1078.5938,321.34766 C 1041.3397,292.52621 1007.3493,265.91691 965.59961,233.94531 904.01952,201.1026 849.783,184.68164 802.88867,184.68164 c -101.95977,0 -102.17606,90.62576 -140.22265,159.68359 -16.30842,25.18314 -62.51633,40.21038 -106.29493,39.71289 C 482.5993,383.2398 515.6866,295.67068 528.3105,235.70703 540.9345,175.74339 537.7797,120.5152 518.8438,70.019531 502.012,25.134461 461.2406,2.6914063 396.5312,2.6914062 c -8.0886,0 -16.5519,0.3514144 -25.3886,1.0527344 -25.2478,0 -96.5721,17.6725214 -213.9746,53.0195314 C 61.2262,80.749142 8.8367,109.78461 0,143.86914 l 5.6816,79.53125 70.0625,-24.61719 c 78.2684,25.24786 143.281,37.8711 195.0391,37.8711 53.0205,0 71.9573,24.30218 56.8086,72.90429 -15.1487,48.60212 -12.8434,108.62796 7.5742,179.89063 25.4727,88.90623 152.9273,86.60392 205.336,131.35742 41.80515,35.69882 128.49883,208.05798 179.35152,299.58789 26.23929,239.21047 -31.06966,615.40717 -59.61914,685.32427 -30.92859,75.7436 -68.48419,114.8776 -112.66797,117.4023 -18.39501,1.0819 -35.60411,1.6211 -51.62891,1.6211 -40.0614,0 -72.7171,-3.3797 -97.9648,-10.1426 -35.347,-9.4665 -58.0708,-14.2012 -68.17,-14.2012 -35.347,2.5247 -53.0195,18.9369 -53.0195,49.2344 v 53.0195 c 13.7716,-22.9526 26.5006,-34.4277 38.1856,-34.4277 1.1685,0 2.325,0.1133 3.4726,0.3399 11.2069,21.6668 41.2078,32.5 90,32.5 33.6498,0 76.2374,-5.1538 127.7637,-15.459 h 728.9062 c 21.2083,-14.1388 39.9929,-21.2071 56.3535,-21.2071 4.09,0 8.0272,0.4423 11.8145,1.3262 18.9359,4.4186 33.4535,15.4635 43.5527,33.1367 20.1983,-16.411 23.3552,-35.9781 9.4688,-58.7011 -20.7111,-17.3974 -48.6258,-26.0957 -83.7442,-26.0957 -18.3953,0 -38.7669,2.3869 -61.1152,7.1601 -17.0272,3.6366 -34.2933,5.4551 -51.7969,5.4551 -49.3282,0 -100.5474,-14.4434 -153.6582,-43.3281 l 5.2793,-171.8614 69.3985,-328.3867 c 79.8678,114.472 213.1883,184.6215 306.7168,259.1934 35.3471,171.6853 41.868,217.069 69.6406,256.2031 17.7515,25.0136 46.7198,37.5215 86.9062,37.5215 22.686,0 48.9459,-3.9856 78.7813,-11.957 82.6867,-22.0918 115.8253,-72.2727 99.4141,-150.5411 -99.7289,-392.6007 -134.1775,-697.86027 -229.5704,-850.94918 -55.4005,-88.9081 -189.5446,-203.16017 -396.6132,-364.60547 L 1327.125,147.96094 c 12.5901,-12.59013 27.2795,-18.88671 44.0664,-18.88672 1.5258,0 3.07,0.0526 4.6309,0.15625 17.4804,2.49732 31.2142,13.11078 41.2031,31.83984 l 245.3535,511.30274 c 7.4915,7.49164 22.4743,21.85178 44.9492,43.07812 23.7235,-14.98329 29.3417,-41.20391 16.8555,-78.66211 6.2426,11.23749 15.2941,20.60013 27.1562,28.0918 6.4705,4.0863 12.6618,6.13086 18.5743,6.13086 4.9277,0 9.6635,-1.42013 14.2031,-4.25781 9.9892,-6.24304 14.0467,-16.23018 12.1738,-29.96485 -1.8729,-13.73467 -5.9309,-25.59712 -12.1738,-35.58594 17.7744,17.77429 34.7628,26.66211 50.9687,26.66211 8.8393,0 17.4475,-2.64528 25.8204,-7.93359 9.9883,-6.24283 4.3693,-25.59483 -16.8575,-58.05859 L 1488.1953,117.99219 Z M 347.4062,35.457031 c 7.6917,0.338793 12.2364,3.538876 12.2364,11.001953 0,7.90207 14.8916,0.594213 20.9687,1.783204 29.035,5.68077 45.7613,15.781328 50.1797,30.298828 3.0795,10.11827 6.1588,15.175781 9.2383,15.175781 1.3389,0 2.6787,-0.956431 4.0176,-2.869141 4.4183,-6.312 7.8892,-13.253795 10.414,-20.828125 34.0846,45.446129 37.5576,108.880379 10.4161,190.304689 -27.1414,81.42432 -17.6975,158.11056 25.9785,172.99023 47.5054,16.18429 142.94468,19.84258 184.3945,-2.83789 77.78122,-42.56023 48.95174,-183.15429 130.98438,-183.15429 35.97595,0 75.21191,11.95197 117.70703,35.85546 260.93069,203.39896 473.00859,362.07508 520.02729,438.45118 128.3428,208.47712 140.5225,463.48129 251.3477,863.26169 -3.7873,42.9214 -27.7734,69.4301 -71.957,79.5293 -12.8534,2.9379 -24.5587,4.4082 -35.1153,4.4082 -25.7316,0 -44.64,-8.7281 -56.7246,-26.1836 -17.0422,-24.6166 -28.1815,-86.3434 -68.5781,-255.5039 -121.1893,-77.235 -251.5171,-143.0605 -323.0078,-278.164 C 984.27063,1026.8323 848.69797,952.76357 741.89453,812.30664 695.81723,755.49901 636.64087,590.59923 563.7832,555.72266 498.4923,524.4683 416.8843,519.58768 398.4023,469.22656 367.977,386.32168 384.9255,258.71471 412.8027,217.71875 c 21.4607,-31.5598 31.5593,-56.80827 30.2969,-75.74414 -0.526,-7.88997 -2.2021,-11.83399 -5.0293,-11.83399 -3.9581,0 -10.1721,7.73297 -18.6406,23.19727 -14.5175,26.5102 -55.8601,40.3958 -124.0293,41.6582 -3.4085,0.0631 -6.8333,0.0937 -10.2734,0.0937 -65.3603,0 -136.4166,-11.39153 -213.17,-34.17773 l 140.125,9.4668 c 45.1306,8.88933 78.8711,13.33398 101.2227,13.33398 18.9128,0 29.6717,-3.18234 32.2754,-9.54687 5.6807,-13.88633 1.2616,-22.09238 -13.2559,-24.61719 -14.5175,-2.52481 -29.0352,-3.78711 -43.5527,-3.78711 -14.5175,0 -25.5623,2.52655 -33.1367,7.57617 l 1.6543,6.61328 c -13.3045,-1.78329 -29.0062,-3.98652 -47.1016,-6.61328 -21.4607,-34.0846 -24.6155,-57.440513 -9.4668,-70.064452 2.5248,-5.049531 8.2062,-7.574219 17.043,-7.574219 -2.5248,16.41107 0.3139,28.404171 8.5195,35.978511 2.8961,2.67334 5.7934,4.00977 8.6895,4.00977 5.3094,0 10.6182,-4.4913 15.9277,-13.47656 8.2056,-13.886361 1.5778,-23.986891 -19.8828,-30.298831 41.9231,-12.726675 93.3138,-37.471455 116.3886,-36.455078 z m -14.08,25.865235 c -17.8034,0 -34.2319,12.366069 -49.2871,37.099609 8.8367,16.411135 23.3544,26.511685 43.5527,30.298825 3.6725,0.91811 7.2186,1.37696 10.6406,1.37696 15.3991,0 28.2631,-9.29514 38.5918,-27.88672 -1.2624,-22.723071 -12.6233,-35.978437 -34.084,-39.765628 -3.1793,-0.74808 -6.3178,-1.123046 -9.414,-1.123046 z M 160.9551,102.21094 c -2.5248,11.36154 -2e-4,22.09032 7.5742,32.18945 l -100.3594,9.46875 c -1.2624,-13.88626 29.6656,-27.77186 92.7852,-41.6582 z m 1295.4004,43.87695 327.7597,408.29297 -103.0097,61.80664 z M 281.1895,159.5332 c 12.3424,0 22.1292,1.40701 29.3593,4.21875 3.1812,1.23717 2.8478,1.85547 -0.998,1.85547 -6.3695,0 -22.3759,-1.69618 -48.0215,-5.08984 7.1492,-0.65532 13.7023,-0.98438 19.6602,-0.98438 z m 597.19331,1007.0059 c 45.72803,49.0861 97.05134,282.0395 94.62305,343.5957 l -12.76367,175.1113 -240.35938,32.1953 c -22.27728,2.984 -12.62416,-53.3365 15.14844,-118.3496 27.77269,-65.0133 117.26415,-328.7387 143.35156,-432.5527 z" />
  <metadata
     id="metadata2">
    <rdf:RDF>
      <cc:Work
         rdf:about="">
        <dc:title>G15A</dc:title>
        <dc:creator>
          <cc:Agent>
            <dc:title>Serge J. Paul THOMAS</dc:title>
          </cc:Agent>
        </dc:creator>
        <dc:description>Fixed legs (S. Rosmorduc)

</dc:description>
      </cc:Work>
    </rdf:RDF>
  </metadata>
</svg>
