<?xml version="1.0" encoding="UTF-8" standalone="no"?>
<svg
   xmlns:dc="http://purl.org/dc/elements/1.1/"
   xmlns:cc="http://web.resource.org/cc/"
   xmlns:rdf="http://www.w3.org/1999/02/22-rdf-syntax-ns#"
   xmlns:svg="http://www.w3.org/2000/svg"
   xmlns="http://www.w3.org/2000/svg"
   xmlns:sodipodi="http://sodipodi.sourceforge.net/DTD/sodipodi-0.dtd"
   xmlns:inkscape="http://www.inkscape.org/namespaces/inkscape"
   width="28.0625"
   height="17.975901"
   id="svg2241"
   sodipodi:version="0.32"
   inkscape:version="0.45"
   sodipodi:docname="G167.svg"
   inkscape:output_extension="org.inkscape.output.svg.inkscape"
   sodipodi:docbase="C:\Program Files\JSesh\fontsGroupeG"
   version="1.0"
   sodipodi:modified="true">
  <metadata
     id="metadata2248">
    <rdf:RDF>
      <cc:Work
         rdf:about="">
        <dc:format>image/svg+xml</dc:format>
        <dc:type
           rdf:resource="http://purl.org/dc/dcmitype/StillImage" />
      </cc:Work>
    </rdf:RDF>
  </metadata>
  <defs
     id="defs2246" />
  <sodipodi:namedview
     inkscape:window-height="708"
     inkscape:window-width="1024"
     inkscape:pageshadow="2"
     inkscape:pageopacity="0.0"
     guidetolerance="10.0"
     gridtolerance="10.0"
     objecttolerance="10.0"
     borderopacity="1.0"
     bordercolor="#666666"
     pagecolor="#ffffff"
     id="base"
     showguides="true"
     inkscape:guide-bbox="true"
     inkscape:zoom="28.702412"
     inkscape:cx="11.866027"
     inkscape:cy="10.38072"
     inkscape:window-x="-4"
     inkscape:window-y="-4"
     inkscape:current-layer="svg2241" />
  <path
     style="fill:#000000;stroke:none"
     d="M 4.34375,0 C 3.600047,0 2.9078907,0.36434938 2.25,1.09375 C 1.8209407,1.208166 1.2437027,1.3818667 0.5,1.625 C 0.1853567,1.753718 0.0143021,1.9835547 0,2.3125 L 2.625,2.5625 C 3.5260251,2.6340093 3.985698,2.9636761 4,3.5 C 4.014302,4.0363247 3.8138561,4.5208841 3.40625,5 C 2.9986433,5.479116 2.6761287,6.1000474 2.46875,6.84375 C 2.2613713,7.5874527 2.173198,8.4729034 2.1875,9.53125 C 2.2013871,10.558893 2.6323261,11.36586 3.46875,11.96875 C 2.5005638,12.247526 2.0723479,12.611284 2.1875,13.03125 C 2.309067,13.474611 2.649317,13.594822 3.25,13.4375 C 2.978262,13.609124 2.772524,13.797127 2.59375,13.96875 C 2.414975,14.140374 2.334741,14.367564 2.40625,14.625 C 2.477762,14.882435 2.702305,15.097971 3.03125,15.3125 C 4.289824,15.026461 5.2189679,14.852759 5.8125,14.78125 C 6.2387277,14.729897 6.915717,14.777616 7.71875,14.875 C 7.6364472,16.063651 7.452732,16.895457 7.1875,17.28125 C 6.701233,17.28125 5.838022,17.205519 4.59375,17.0625 C 4.193295,17.119708 3.9242699,17.220324 3.78125,17.40625 C 3.638231,17.592175 3.674773,17.782824 3.875,17.96875 C 4.003718,17.840032 4.1284331,17.810641 4.25,17.875 C 4.371567,17.939359 4.650389,17.96875 5.09375,17.96875 L 13.09375,17.96875 L 16.4375,17.96875 C 16.65918,17.96875 16.858768,17.98484 17,17.96875 L 17.6875,17.96875 L 22.96875,17.96875 C 23.412111,17.96875 23.690934,17.939359 23.8125,17.875 C 23.934067,17.810641 24.058783,17.840032 24.1875,17.96875 C 24.387727,17.782824 24.39302,17.592175 24.25,17.40625 C 24.10698,17.220324 23.837956,17.119708 23.4375,17.0625 C 22.193228,17.205519 21.330018,17.28125 20.84375,17.28125 C 20.529107,16.823586 20.338459,15.775019 20.28125,14.1875 C 22.212017,13.357985 23.644528,12.639084 24.53125,12.03125 C 25.417973,11.423416 25.860699,10.589596 25.875,9.53125 C 25.889302,8.4729035 25.80113,7.5874527 25.59375,6.84375 C 25.386371,6.1000474 25.063858,5.479116 24.65625,5 C 24.248644,4.5208841 24.048199,4.0363247 24.0625,3.5 C 24.076802,2.9636761 24.536476,2.6340093 25.4375,2.5625 L 28.0625,2.3125 C 28.048198,1.9835546 27.877144,1.753718 27.5625,1.625 C 26.818797,1.3818667 26.24156,1.208166 25.8125,1.09375 C 25.154609,0.36434938 24.462454,0 23.71875,0 C 22.396373,0 21.674756,0.75995501 21.5625,2.28125 C 21.538555,1.9705804 21.366132,1.7492129 21.0625,1.625 C 20.318797,1.3818667 19.74156,1.208166 19.3125,1.09375 C 18.654609,0.36434938 17.931203,0 17.1875,0 C 15.714396,0 15.002646,0.95588933 15.03125,2.84375 C 15.03125,3.5302448 15.192507,4.4620347 15.5,5.65625 C 15.807493,6.8504648 15.284532,7.3395293 13.96875,7.125 C 13.115652,6.9859077 12.057037,7.2640174 10.8125,7.875 C 9.5279876,7.2342276 8.435054,6.9827355 7.5625,7.125 C 6.246718,7.3395293 5.7550069,6.8504648 6.0625,5.65625 C 6.369993,4.4620347 6.5312498,3.5302448 6.53125,2.84375 C 6.559854,0.95588933 5.816854,3.2749162e-018 4.34375,0 z M 4.1875,0.65625 C 5.059921,0.65625 5.5561371,1.1453147 5.65625,2.125 C 5.756364,3.1046853 5.612055,4.3250946 5.21875,5.8125 C 4.825446,7.2999053 5.4365792,7.9261289 7.03125,7.71875 C 8.625919,7.5113713 10.518892,8.1910848 12.75,9.75 C 14.981109,11.308915 16.577523,12.208668 17.5,12.4375 C 18.422477,12.666331 18.826016,12.847183 18.71875,12.96875 C 18.611485,13.090317 16.802181,13.024383 13.3125,12.78125 C 9.8228182,12.538117 7.548549,12.007218 6.46875,11.15625 C 5.388951,10.305283 5.1127751,9.7966237 5.65625,9.625 C 5.427419,9.281752 5.16104,9.2060224 4.875,9.40625 C 4.560357,9.7065913 4.5701539,10.100332 4.90625,10.59375 C 5.242346,11.087169 5.9906388,11.627865 7.15625,12.25 C 8.321861,12.872136 10.079533,13.207094 12.375,13.25 C 14.670467,13.292906 16.127864,13.349042 16.75,13.40625 C 17.372136,13.463458 17.939577,13.676347 18.46875,14.0625 C 18.640374,14.448653 18.584238,14.658895 18.3125,14.6875 C 16.310224,14.101119 14.471529,14.003148 12.8125,14.375 C 12.497857,14.475113 12.287614,14.727191 12.1875,15.15625 C 11.915762,14.512661 11.568361,14.1875 11.125,14.1875 C 9.680501,14.115991 8.3968049,13.861267 7.28125,13.375 C 6.165697,12.888733 5.167973,12.353329 4.28125,11.78125 C 3.3945272,11.209171 2.96875,10.272877 2.96875,9 C 2.96875,7.7271247 3.2475719,6.6385815 3.8125,5.6875 C 4.377428,4.7364187 4.6562499,4.0397573 4.65625,3.625 C 4.65625,3.2102427 4.5145871,2.8654873 4.25,2.59375 C 3.985413,2.322012 3.7039451,2.1652601 3.375,2.09375 C 3.0460547,2.0222407 2.891948,1.79505 2.90625,1.4375 C 3.1350813,0.96553533 3.5439111,0.71345798 4.1875,0.65625 z M 17.34375,0.65625 C 17.987339,0.71345798 18.42742,0.96553533 18.65625,1.4375 C 18.670552,1.79505 18.516446,2.0222407 18.1875,2.09375 C 17.858555,2.1652601 17.577087,2.322012 17.3125,2.59375 C 17.047913,2.8654873 16.90625,3.2102427 16.90625,3.625 C 16.90625,4.0397573 17.185072,4.7364187 17.75,5.6875 C 18.314928,6.6385815 18.593751,7.7271247 18.59375,9 C 18.59375,10.225892 18.196264,11.141928 17.375,11.71875 C 16.993938,11.574108 16.58091,11.386154 16.09375,11.125 C 16.311084,10.940199 16.507921,10.765633 16.625,10.59375 C 16.961096,10.100332 16.970893,9.7065913 16.65625,9.40625 C 16.51323,9.3061362 16.373141,9.27569 16.25,9.3125 C 16.126859,9.34931 16.020665,9.453376 15.90625,9.625 C 16.366072,9.7702071 16.203962,10.181567 15.5,10.8125 C 14.744369,10.374823 13.879457,9.8328602 12.90625,9.15625 C 12.397637,8.8026429 11.929603,8.5128277 11.46875,8.25 C 12.59078,7.7908032 13.620146,7.6002655 14.53125,7.71875 C 16.125921,7.9261289 16.737054,7.2999053 16.34375,5.8125 C 15.950445,4.3250946 15.806136,3.1046853 15.90625,2.125 C 16.006363,1.1453147 16.471329,0.65625 17.34375,0.65625 z M 23.84375,0.65625 C 24.487339,0.71345798 24.92742,0.96553533 25.15625,1.4375 C 25.170552,1.79505 25.016446,2.0222407 24.6875,2.09375 C 24.358555,2.1652601 24.077088,2.322012 23.8125,2.59375 C 23.547913,2.8654874 23.406251,3.2102427 23.40625,3.625 C 23.40625,4.0397573 23.685073,4.7364187 24.25,5.6875 C 24.814928,6.6385816 25.093751,7.7271247 25.09375,9 C 25.09375,10.272876 24.667974,11.209171 23.78125,11.78125 C 22.894528,12.35333 21.896804,12.888733 20.78125,13.375 C 20.214965,13.621842 19.58948,13.803666 18.9375,13.9375 C 18.763292,13.774536 18.539279,13.600465 18.28125,13.4375 C 18.881933,13.594822 19.253434,13.474611 19.375,13.03125 C 19.396484,12.952897 19.39126,12.885939 19.375,12.8125 C 19.93856,12.663013 20.457072,12.473066 20.875,12.25 C 22.040611,11.627864 22.788905,11.087169 23.125,10.59375 C 23.461096,10.100332 23.470894,9.7065913 23.15625,9.40625 C 23.08474,9.3561931 23.036686,9.3285897 22.96875,9.3125 C 22.917799,9.3004327 22.861379,9.3055779 22.8125,9.3125 C 22.665862,9.3332662 22.534969,9.431923 22.40625,9.625 C 22.949725,9.7966238 22.67355,10.305283 21.59375,11.15625 C 21.015564,11.611906 20.057639,11.976873 18.78125,12.25 C 18.58996,12.154866 18.380304,12.051483 18.09375,11.96875 C 18.929231,11.365875 19.361118,10.558576 19.375,9.53125 C 19.383401,8.9095684 19.349341,8.3568642 19.28125,7.84375 C 19.899038,7.7090797 20.487469,7.6480339 21.03125,7.71875 C 22.625921,7.9261289 23.237055,7.2999053 22.84375,5.8125 C 22.450445,4.3250945 22.306137,3.1046853 22.40625,2.125 C 22.506363,1.1453147 22.97133,0.65625 23.84375,0.65625 z M 4.125,1 C 3.810357,1.042906 3.666047,1.1800647 3.6875,1.4375 C 3.708953,1.694936 3.8559089,1.8027033 4.15625,1.78125 C 4.456591,1.7597973 4.600901,1.6324353 4.59375,1.375 C 4.586599,1.117564 4.439643,0.99999998 4.125,1 z M 17.4375,1 C 17.122857,0.99999998 16.975901,1.117564 16.96875,1.375 C 16.961599,1.6324353 17.105909,1.7597973 17.40625,1.78125 C 17.706591,1.8027033 17.853547,1.694936 17.875,1.4375 C 17.896453,1.1800647 17.752143,1.042906 17.4375,1 z M 23.9375,1 C 23.622857,0.99999998 23.475902,1.117564 23.46875,1.375 C 23.4616,1.6324353 23.60591,1.7597973 23.90625,1.78125 C 24.206591,1.8027033 24.353548,1.694936 24.375,1.4375 C 24.396453,1.1800647 24.252144,1.042906 23.9375,1 z M 21.5625,2.3125 C 21.551237,2.477326 21.528486,2.6612892 21.53125,2.84375 C 21.53125,3.5302447 21.692508,4.4620347 22,5.65625 C 22.307493,6.8504648 21.815783,7.3395293 20.5,7.125 C 20.101252,7.0599866 19.641033,7.0889842 19.15625,7.1875 C 19.130999,7.0739664 19.123593,6.9507682 19.09375,6.84375 C 18.886371,6.1000474 18.563857,5.479116 18.15625,5 C 17.748644,4.5208841 17.548198,4.0363247 17.5625,3.5 C 17.576802,2.9636761 18.036476,2.6340093 18.9375,2.5625 L 21.5625,2.3125 z M 4.125,12.40625 C 4.4192516,12.582582 4.7226152,12.776094 5.09375,12.96875 C 3.7991277,13.029307 2.9083523,13.041966 2.84375,12.96875 C 2.736485,12.847183 3.140023,12.666331 4.0625,12.4375 C 4.0809258,12.432929 4.1060612,12.411356 4.125,12.40625 z M 5.90625,13.34375 C 6.4754595,13.619034 7.0393515,13.882184 7.75,14.1875 C 7.7495927,14.198803 7.7504203,14.207505 7.75,14.21875 C 6.3583123,14.062157 4.8729864,14.212197 3.25,14.6875 C 2.978261,14.658895 2.922126,14.448653 3.09375,14.0625 C 3.622922,13.676347 4.1903639,13.463458 4.8125,13.40625 C 5.0302101,13.386231 5.4838502,13.362986 5.90625,13.34375 z M 18.96875,13.96875 C 19.058137,14.054562 19.130596,14.13957 19.15625,14.25 C 19.129433,14.142735 19.058137,14.054562 18.96875,13.96875 z M 8.15625,14.375 L 8.75,14.59375 L 8.09375,15.59375 L 8.15625,14.375 z M 19.875,14.375 L 19.96875,15.59375 L 19.3125,14.59375 L 19.875,14.375 z M 9.625,14.65625 C 9.5220104,14.794019 9.4276139,14.957625 9.34375,15.15625 C 9.3001188,14.969261 9.2099903,14.840581 9.125,14.71875 C 9.1334279,14.707181 9.1477319,14.699047 9.15625,14.6875 C 9.3383418,14.664738 9.4643473,14.666074 9.625,14.65625 z M 10.5,14.6875 C 10.599985,14.701818 10.697007,14.726182 10.78125,14.75 C 10.829481,14.763636 10.894429,14.7645 10.9375,14.78125 C 11.323653,14.931421 11.590032,15.381297 11.71875,16.125 C 11.847467,16.868701 11.732549,17.21875 11.375,17.21875 L 10.1875,17.21875 C 9.829952,17.21875 9.7150329,16.868701 9.84375,16.125 C 9.972467,15.381297 10.238847,14.931421 10.625,14.78125 C 10.671941,14.762995 10.729613,14.76678 10.78125,14.75 C 10.697262,14.726255 10.59862,14.711598 10.5,14.6875 z M 15.25,14.75 C 15.42021,14.75 15.552575,14.767547 15.6875,14.78125 C 15.706689,14.783199 15.731524,14.779024 15.75,14.78125 C 15.813789,14.788935 15.92853,14.802337 16,14.8125 C 15.939943,14.912885 15.896157,15.032129 15.84375,15.15625 C 15.808237,15.00405 15.750473,14.890026 15.6875,14.78125 C 15.323082,14.744241 14.782069,14.779606 14.15625,14.84375 C 14.473914,14.881001 14.787198,14.935435 15.1875,15 C 15.575397,16.175815 15.602256,16.916223 15.28125,17.21875 C 14.903411,17.248321 14.564861,17.28125 14.34375,17.28125 C 14.079005,16.896166 13.895195,16.061646 13.8125,14.875 C 13.924891,14.861416 14.051157,14.854499 14.15625,14.84375 C 14.554812,14.802983 14.956413,14.75 15.25,14.75 z M 19,14.84375 C 19.576782,15.672057 19.941379,16.557946 20.0625,17.5 C 19.561931,17.285471 19.121852,17.190147 18.75,17.21875 L 17.46875,17.21875 C 17.32556,17.146941 17.160572,17.094368 16.9375,17.0625 C 16.737924,17.08544 16.617575,17.10574 16.4375,17.125 C 16.285056,16.971155 16.252658,16.651312 16.34375,16.125 C 16.438061,15.580095 16.608672,15.195868 16.84375,14.96875 C 17.321946,15.059872 17.868819,15.161948 18.53125,15.3125 C 18.754388,15.166976 18.895321,15.009018 19,14.84375 z M 13.40625,14.9375 L 13.4375,15.59375 L 13.0625,14.96875 C 13.190884,14.948955 13.285165,14.95446 13.40625,14.9375 z M 8.78125,15.3125 C 9.0973188,16.391135 9.0658333,17.057931 8.6875,17.28125 C 8.4693947,17.327732 8.2502846,17.392735 8,17.5 C 8.0999457,16.722646 8.3708853,16.012249 8.78125,15.3125 z M 12.78125,15.3125 C 13.17945,16.00278 13.464168,16.735196 13.5625,17.5 C 13.322175,17.397004 13.086583,17.32877 12.875,17.28125 C 12.495051,17.058574 12.466926,16.390441 12.78125,15.3125 z "
     id="path2243" />
</svg>
