<?xml version="1.0" encoding="UTF-8" standalone="no"?>
<svg
   xmlns:dc="http://purl.org/dc/elements/1.1/"
   xmlns:cc="http://web.resource.org/cc/"
   xmlns:rdf="http://www.w3.org/1999/02/22-rdf-syntax-ns#"
   xmlns:svg="http://www.w3.org/2000/svg"
   xmlns="http://www.w3.org/2000/svg"
   xmlns:sodipodi="http://sodipodi.sourceforge.net/DTD/sodipodi-0.dtd"
   xmlns:inkscape="http://www.inkscape.org/namespaces/inkscape"
   width="32.395439"
   height="17.975901"
   id="svg2241"
   sodipodi:version="0.32"
   inkscape:version="0.45"
   sodipodi:docname="G167.svg"
   inkscape:output_extension="org.inkscape.output.svg.inkscape"
   sodipodi:docbase="C:\Program Files\JSesh\fontsGroupeG"
   version="1.0"
   sodipodi:modified="true">
  <metadata
     id="metadata2248">
    <rdf:RDF>
      <cc:Work
         rdf:about="">
        <dc:format>image/svg+xml</dc:format>
        <dc:type
           rdf:resource="http://purl.org/dc/dcmitype/StillImage" />
      </cc:Work>
    </rdf:RDF>
  </metadata>
  <defs
     id="defs2246" />
  <sodipodi:namedview
     inkscape:window-height="708"
     inkscape:window-width="1024"
     inkscape:pageshadow="2"
     inkscape:pageopacity="0.0"
     guidetolerance="10.0"
     gridtolerance="10.0"
     objecttolerance="10.0"
     borderopacity="1.0"
     bordercolor="#666666"
     pagecolor="#ffffff"
     id="base"
     showguides="true"
     inkscape:guide-bbox="true"
     inkscape:zoom="28.705099"
     inkscape:cx="19.204678"
     inkscape:cy="8.9879501"
     inkscape:window-x="0"
     inkscape:window-y="26"
     inkscape:current-layer="svg2241" />
  <path
     style="fill:#000000;stroke:none"
     d="M 4.34375,0 C 3.6000473,0 2.9078906,0.36434938 2.25,1.09375 C 1.8209407,1.208166 1.2437027,1.3818667 0.5,1.625 C 0.18535667,1.753718 0.014302,1.9835546 0,2.3125 L 2.625,2.5625 C 3.5260247,2.6340093 3.9856979,2.9636761 4,3.5 C 4.014302,4.0363247 3.813856,4.5208841 3.40625,5 C 2.9986433,5.479116 2.6761286,6.1000474 2.46875,6.84375 C 2.2613713,7.5874527 2.1731981,8.4729035 2.1875,9.53125 C 2.201802,10.589596 2.6445274,11.423416 3.53125,12.03125 C 4.4179727,12.639084 5.8504832,13.357985 7.78125,14.1875 C 7.724042,15.775019 7.5333932,16.823586 7.21875,17.28125 C 6.7324827,17.28125 5.8692718,17.205519 4.625,17.0625 C 4.2245447,17.119708 3.95552,17.220324 3.8125,17.40625 C 3.6694807,17.592175 3.6747726,17.782824 3.875,17.96875 C 4.003718,17.840032 4.1284335,17.810641 4.25,17.875 C 4.3715667,17.939359 4.6503887,17.96875 5.09375,17.96875 L 10.375,17.96875 L 11.0625,17.96875 C 11.203732,17.98484 11.40332,17.96875 11.625,17.96875 L 16.875,17.96875 C 16.882701,17.961819 16.898632,17.975121 16.90625,17.96875 L 18.125,17.96875 L 18.15625,17.96875 L 26.09375,17.96875 C 26.436998,17.96875 26.414757,17.772809 26,17.34375 C 25.470827,17.186428 25.417337,16.401593 25.875,15 C 27.190782,14.78547 28.156468,14.709739 28.75,14.78125 C 29.343532,14.852759 30.272675,15.026461 31.53125,15.3125 C 31.874498,15.097971 32.091892,14.851185 32.15625,14.59375 C 32.220609,14.336314 32.147524,14.140374 31.96875,13.96875 C 31.789976,13.797127 31.569936,13.626072 31.3125,13.46875 C 31.898882,13.61177 32.246283,13.474611 32.375,13.03125 C 32.503718,12.587889 32.024451,12.223539 30.9375,11.9375 C 29.850551,11.65146 28.488478,10.922762 26.84375,9.75 C 28.674403,8.777466 29.767451,7.6335741 30.125,6.375 C 30.668475,4.4585353 31.391882,2.7294673 32.25,1.15625 C 30.934218,0.45545332 29.636219,0.20602268 28.40625,0.40625 C 27.17628,0.606478 25.943428,1.6603373 24.65625,3.5625 C 23.869642,4.735262 22.798834,5.9066859 21.46875,7.09375 C 19.495078,7.2367693 18.663904,6.7450585 19,5.59375 C 19.336097,4.4424406 19.531251,3.4989947 19.53125,2.8125 C 19.559854,0.92463932 18.816855,4.0699722e-011 17.34375,0 C 16.61435,0 15.939141,0.36434928 15.28125,1.09375 C 14.852191,1.208166 14.258005,1.3818665 13.5,1.625 C 13.241707,1.7356975 13.057316,1.9287144 13,2.1875 C 12.862789,0.73981765 12.163966,0 10.875,0 C 10.131297,0 9.4078906,0.36434938 8.75,1.09375 C 8.3209407,1.208166 7.7437029,1.3818667 7,1.625 C 6.6963692,1.7492129 6.5239454,1.9705804 6.5,2.28125 C 6.387745,0.75995501 5.6661267,0 4.34375,0 z M 17.1875,0.625 C 18.059921,0.625 18.556137,1.1140647 18.65625,2.09375 C 18.756364,3.0734353 18.604905,4.3179433 18.21875,5.8125 C 17.832597,7.307056 18.732349,7.9841241 20.90625,7.8125 L 20.6875,8.03125 L 21.21875,8.375 C 23.063705,6.7302733 24.508659,5.1071134 25.53125,3.5625 C 26.553842,2.0178866 27.561363,1.1644726 28.5625,1 C 29.563639,0.83552732 30.499933,0.97719063 31.34375,1.40625 C 30.68586,2.5647093 30.091673,4.0978364 29.5625,6 C 29.033328,7.9021626 26.754555,9.4718324 22.75,10.6875 L 23.1875,11.125 C 24.531886,10.681639 25.493068,10.280747 26.09375,9.9375 C 28.110328,11.381999 29.577522,12.215819 30.5,12.4375 C 31.422478,12.659181 31.833165,12.847183 31.71875,12.96875 C 31.604334,13.090317 29.795031,13.024383 26.3125,12.78125 C 22.82997,12.538117 20.555701,11.975968 19.46875,11.125 C 18.3818,10.274033 18.129725,9.7653738 18.6875,9.59375 C 18.458669,9.250502 18.175341,9.2060224 17.875,9.40625 C 17.574659,9.7065913 17.608554,10.100332 17.9375,10.59375 C 18.266445,11.087169 19.014738,11.627865 20.1875,12.25 C 21.360262,12.872136 23.079534,13.207094 25.375,13.25 C 27.670468,13.292906 29.127865,13.349042 29.75,13.40625 C 30.372136,13.463458 30.953879,13.676347 31.46875,14.0625 C 31.654676,14.448653 31.598539,14.658895 31.3125,14.6875 C 29.310224,14.101119 27.47153,14.003148 25.8125,14.375 C 25.512159,14.475113 25.301916,14.727191 25.1875,15.15625 C 24.915762,14.512661 24.585309,14.1875 24.15625,14.1875 C 22.711751,14.115991 21.428053,13.861267 20.3125,13.375 C 19.196946,12.888733 18.175123,12.353329 17.28125,11.78125 C 16.387377,11.209171 15.96875,10.289825 15.96875,9.03125 C 15.96875,7.7440726 16.240422,6.6073311 16.8125,5.65625 C 17.38458,4.7051686 17.656249,4.0567052 17.65625,3.65625 C 17.65625,3.2271906 17.545837,2.8654874 17.28125,2.59375 C 17.016664,2.322012 16.711096,2.1340099 16.375,2.0625 C 16.038904,1.9909906 15.860698,1.8119974 15.875,1.46875 C 16.118134,0.98248265 16.558213,0.682208 17.1875,0.625 z M 4.21875,0.65625 C 5.0911707,0.65625 5.5561368,1.1453147 5.65625,2.125 C 5.756364,3.1046853 5.6120548,4.3250945 5.21875,5.8125 C 4.825446,7.2999053 5.4365793,7.9261289 7.03125,7.71875 C 7.5750322,7.6480339 8.163462,7.7090797 8.78125,7.84375 C 8.7131605,8.3568642 8.6790986,8.9095684 8.6875,9.53125 C 8.701802,10.589596 9.1445271,11.423417 10.03125,12.03125 C 10.236324,12.171825 10.489084,12.347569 10.75,12.5 C 8.6965556,12.202568 7.2525236,11.773926 6.46875,11.15625 C 5.3889513,10.305283 5.1127755,9.7966238 5.65625,9.625 C 5.4846265,9.367564 5.2975534,9.2642308 5.09375,9.3125 C 5.0258155,9.3285897 4.97776,9.3561931 4.90625,9.40625 C 4.5916073,9.7065913 4.6014038,10.100332 4.9375,10.59375 C 5.273596,11.087169 6.0218888,11.627864 7.1875,12.25 C 8.3307701,12.860212 10.019771,13.197027 12.25,13.25 C 12.861905,13.550308 13.497163,13.850633 14.28125,14.1875 C 13.780762,14.215666 13.31638,14.269066 12.84375,14.375 C 12.529107,14.475113 12.318864,14.727191 12.21875,15.15625 C 11.947012,14.512661 11.568361,14.1875 11.125,14.1875 C 9.6805007,14.115991 8.3968048,13.861267 7.28125,13.375 C 6.1656967,12.888733 5.1679725,12.35333 4.28125,11.78125 C 3.3945273,11.209171 2.9687499,10.272876 2.96875,9 C 2.96875,7.7271247 3.2475721,6.6385816 3.8125,5.6875 C 4.377428,4.7364187 4.65625,4.0397573 4.65625,3.625 C 4.65625,3.2102427 4.5145868,2.8654874 4.25,2.59375 C 3.9854133,2.322012 3.7039454,2.1652601 3.375,2.09375 C 3.0460547,2.0222407 2.8919479,1.79505 2.90625,1.4375 C 3.1350813,0.96553533 3.5751606,0.71345798 4.21875,0.65625 z M 10.71875,0.65625 C 11.591171,0.65625 12.056137,1.1453147 12.15625,2.125 C 12.256364,3.1046853 12.112055,4.3250946 11.71875,5.8125 C 11.325446,7.2999053 11.936579,7.9261289 13.53125,7.71875 C 14.074189,7.6481434 14.662371,7.6787737 15.28125,7.8125 C 15.210118,8.3339865 15.210174,8.8966302 15.21875,9.53125 C 15.233052,10.589596 15.651679,11.423417 16.53125,12.03125 C 16.73467,12.171825 16.989591,12.347569 17.25,12.5 C 15.198604,12.207756 13.752608,11.773992 12.96875,11.15625 C 11.888951,10.305283 11.612775,9.7966237 12.15625,9.625 C 11.984627,9.367564 11.82253,9.2654177 11.625,9.3125 C 11.559157,9.3281941 11.47776,9.3561931 11.40625,9.40625 C 11.091607,9.7065913 11.101404,10.100332 11.4375,10.59375 C 11.773596,11.087169 12.521889,11.627865 13.6875,12.25 C 14.825131,12.857202 16.504951,13.194403 18.71875,13.25 C 19.333961,13.550931 19.989487,13.849836 20.78125,14.1875 C 20.292424,14.216949 19.807951,14.270955 19.34375,14.375 C 19.029107,14.475113 18.818865,14.727191 18.71875,15.15625 C 18.447012,14.512661 18.068361,14.1875 17.625,14.1875 C 16.180501,14.115991 14.928055,13.861267 13.8125,13.375 C 12.696947,12.888733 11.667973,12.353329 10.78125,11.78125 C 9.8945272,11.209171 9.4687502,10.272877 9.46875,9 C 9.46875,7.7271247 9.7475721,6.6385815 10.3125,5.6875 C 10.877428,4.7364187 11.15625,4.0397573 11.15625,3.625 C 11.15625,3.2102427 11.014587,2.8654873 10.75,2.59375 C 10.485413,2.322012 10.203945,2.1652601 9.875,2.09375 C 9.5460547,2.0222407 9.3919479,1.79505 9.40625,1.4375 C 9.6350813,0.96553533 10.075161,0.71345798 10.71875,0.65625 z M 4.125,1 C 3.8103567,1.042906 3.6660473,1.1800647 3.6875,1.4375 C 3.7089533,1.694936 3.8559089,1.8027033 4.15625,1.78125 C 4.4565913,1.7597973 4.6009005,1.6324353 4.59375,1.375 C 4.5865987,1.117564 4.4396434,0.99999998 4.125,1 z M 10.625,1 C 10.310357,1.042906 10.166047,1.1800647 10.1875,1.4375 C 10.208953,1.694936 10.355909,1.8027033 10.65625,1.78125 C 10.956591,1.7597973 11.100901,1.6324353 11.09375,1.375 C 11.086599,1.117564 10.939643,0.99999998 10.625,1 z M 17.125,1 C 16.810357,1.028604 16.658897,1.1729133 16.6875,1.4375 C 16.716104,1.7020866 16.88716,1.841104 17.1875,1.8125 C 17.487842,1.783896 17.632151,1.6324353 17.625,1.375 C 17.617849,1.117564 17.453946,0.98569804 17.125,1 z M 6.5,2.3125 L 9.125,2.5625 C 10.026025,2.6340093 10.485698,2.9636761 10.5,3.5 C 10.514302,4.0363247 10.313856,4.5208841 9.90625,5 C 9.4986433,5.479116 9.1761286,6.1000474 8.96875,6.84375 C 8.9389084,6.9507682 8.9315013,7.0739664 8.90625,7.1875 C 8.4214684,7.0889842 7.9612483,7.0599866 7.5625,7.125 C 6.246718,7.3395293 5.7550073,6.8504648 6.0625,5.65625 C 6.3699927,4.4620347 6.5312501,3.5302447 6.53125,2.84375 C 6.5340146,2.6612892 6.5112631,2.477326 6.5,2.3125 z M 13,2.3125 L 15.625,2.5625 C 16.540327,2.6340093 16.992848,2.9565246 17,3.5 C 17.007151,4.0434753 16.806706,4.5280355 16.40625,5 C 16.005795,5.4719653 15.707379,6.1000474 15.5,6.84375 C 15.469914,6.9516447 15.43167,7.0729828 15.40625,7.1875 C 14.929428,7.0916961 14.487354,7.0608254 14.09375,7.125 C 12.777968,7.3395293 12.255007,6.8504648 12.5625,5.65625 C 12.869993,4.4620347 13.03125,3.5302448 13.03125,2.84375 C 13.034146,2.6526148 13.012304,2.4845042 13,2.3125 z M 8.1875,14.375 L 8.75,14.59375 L 8.09375,15.59375 L 8.1875,14.375 z M 14.6875,14.375 L 15.25,14.59375 L 14.625,15.59375 L 14.6875,14.375 z M 21.15625,14.375 L 21.75,14.59375 L 21.09375,15.59375 L 21.15625,14.375 z M 9.71875,14.625 C 9.8893894,14.613485 10.039035,14.61641 10.1875,14.625 C 10.484429,14.642181 10.744423,14.706165 10.9375,14.78125 C 11.323653,14.931421 11.590032,15.381297 11.71875,16.125 C 11.809842,16.651312 11.777444,16.971155 11.625,17.125 C 11.444925,17.10574 11.324576,17.08544 11.125,17.0625 C 10.901928,17.094368 10.73694,17.146941 10.59375,17.21875 L 9.3125,17.21875 C 8.9406487,17.190147 8.5005693,17.285471 8,17.5 C 8.128718,16.498862 8.5126616,15.55992 9.15625,14.6875 C 9.3564777,14.662471 9.5481106,14.636515 9.71875,14.625 z M 16.71875,14.625 C 17.015516,14.637514 17.244424,14.706165 17.4375,14.78125 C 17.823653,14.931421 18.090033,15.381297 18.21875,16.125 C 18.306377,16.631289 18.26288,16.938578 18.125,17.09375 C 18.515774,17.135779 18.883638,17.191809 19.1875,17.21875 C 18.754865,17.182995 18.215886,17.134009 17.59375,17.0625 C 17.378645,17.094368 17.233411,17.146941 17.09375,17.21875 L 15.8125,17.21875 C 15.440649,17.190147 15.000569,17.285471 14.5,17.5 C 14.628718,16.498862 15.012661,15.55992 15.65625,14.6875 C 16.056706,14.637443 16.421984,14.612486 16.71875,14.625 z M 23.21875,14.625 C 23.519092,14.637514 23.775674,14.674915 23.96875,14.75 C 24.354904,14.900171 24.597185,15.374146 24.71875,16.125 C 24.840317,16.875853 24.718247,17.233053 24.375,17.21875 L 22.3125,17.21875 C 21.940649,17.190147 21.517519,17.285471 21.03125,17.5 C 21.145666,16.498862 21.512663,15.55992 22.15625,14.6875 C 22.563857,14.637443 22.918408,14.612486 23.21875,14.625 z M 14.25,14.8125 C 14.169449,16.03502 13.988462,16.888941 13.71875,17.28125 C 13.497639,17.28125 13.159089,17.248321 12.78125,17.21875 C 12.460244,16.916223 12.487103,16.175815 12.875,15 C 13.407639,14.91409 13.835478,14.852539 14.25,14.8125 z M 20.75,14.8125 C 20.658941,16.03502 20.457214,16.857691 20.1875,17.25 C 19.959548,17.25 19.644528,17.250179 19.25,17.21875 C 18.931954,16.915045 18.987103,16.175815 19.375,15 C 19.907649,14.914089 20.33908,14.853116 20.75,14.8125 z "
     id="path2243" />
</svg>
