<?xml version="1.0" encoding="UTF-8" standalone="no"?>
<svg
   xmlns:dc="http://purl.org/dc/elements/1.1/"
   xmlns:cc="http://web.resource.org/cc/"
   xmlns:rdf="http://www.w3.org/1999/02/22-rdf-syntax-ns#"
   xmlns:svg="http://www.w3.org/2000/svg"
   xmlns="http://www.w3.org/2000/svg"
   xmlns:sodipodi="http://sodipodi.sourceforge.net/DTD/sodipodi-0.dtd"
   xmlns:inkscape="http://www.inkscape.org/namespaces/inkscape"
   width="15.601932"
   height="17.977583"
   id="svg2160"
   sodipodi:version="0.32"
   inkscape:version="0.45"
   sodipodi:docname="G171.svg"
   inkscape:output_extension="org.inkscape.output.svg.inkscape"
   sodipodi:docbase="C:\Program Files\JSesh\fontsGroupeG"
   sodipodi:modified="true">
  <metadata
     id="metadata2167">
    <rdf:RDF>
      <cc:Work
         rdf:about="">
        <dc:format>image/svg+xml</dc:format>
        <dc:type
           rdf:resource="http://purl.org/dc/dcmitype/StillImage" />
      </cc:Work>
    </rdf:RDF>
  </metadata>
  <defs
     id="defs2165" />
  <sodipodi:namedview
     inkscape:window-height="480"
     inkscape:window-width="640"
     inkscape:pageshadow="2"
     inkscape:pageopacity="0.0"
     guidetolerance="10.0"
     gridtolerance="10.0"
     objecttolerance="10.0"
     borderopacity="1.0"
     bordercolor="#666666"
     pagecolor="#ffffff"
     id="base" />
  <path
     style="fill:#000000; stroke:none"
     d="M 6.435354,17.598019 C 6.8379227,17.425489 7.1887327,17.350726 7.487784,17.37373 L 9.144068,17.37373 C 9.4316173,17.37373 9.523633,17.074679 9.420115,16.476576 C 9.3165977,15.878473 9.1095623,15.519037 8.799009,15.398266 C 8.4884557,15.277495 8.0111237,15.257367 7.367013,15.33788 C 6.8494243,16.0395 6.5388713,16.79288 6.435354,17.598019 z M 2.398161,4.554781 C 2.329149,4.761817 2.39241,4.9343467 2.587944,5.07237 C 2.9330033,5.07237 3.211926,5.1816387 3.424712,5.400176 C 3.6374987,5.6187133 3.743892,5.8947607 3.743892,6.228318 C 3.743892,6.5618753 3.499475,7.1456007 3.010641,7.979494 C 2.521807,8.8133867 2.27739,9.7364197 2.27739,10.748593 C 2.27739,11.78377 2.6454533,12.494017 3.38158,12.879333 C 4.117706,13.26465 4.940097,13.690223 5.848753,14.156053 C 6.757409,14.621882 7.7925867,14.883552 8.954286,14.941062 C 9.3108467,14.941062 9.598396,15.199856 9.816934,15.717445 C 9.8974473,15.372386 10.064226,15.1596 10.317269,15.079086 C 11.651498,14.780035 13.12375,14.866299 14.734027,15.33788 C 14.952564,15.314876 14.992821,15.148097 14.854797,14.837544 C 14.429224,14.526991 13.96627,14.348711 13.465934,14.302703 C 12.965598,14.256695 11.792397,14.216438 9.946331,14.181932 C 8.1002643,14.147426 6.7085257,13.880005 5.771115,13.379669 C 4.8337037,12.879334 4.22985,12.430757 3.959554,12.033938 C 3.689258,11.63712 3.6806317,11.317941 3.933675,11.0764 C 4.1637143,10.915372 4.3707497,10.972882 4.554781,11.248929 C 4.1177063,11.386952 4.3333683,11.798148 5.201767,12.482515 C 6.0701657,13.166883 7.9076057,13.606834 10.714087,13.802367 C 13.520568,13.9979 14.966941,14.046784 15.053206,13.949018 C 15.139471,13.851251 14.811665,13.710351 14.069788,13.52632 C 13.327911,13.342288 12.059818,12.623414 10.265511,11.369699 C 8.471203,10.115984 6.9586933,9.5725163 5.727982,9.739295 C 4.4972713,9.9060737 4.0141887,9.3913603 4.278734,8.195155 C 4.5432793,6.9989497 4.635295,6.0069047 4.554781,5.21902 C 4.4742677,4.4311347 4.0832007,4.037192 3.38158,4.037192 C 2.9560067,4.037192 2.6282003,4.2097217 2.398161,4.554781 z M 3.226303,4.261481 C 3.4908483,4.249979 3.6259967,4.3477457 3.631748,4.554781 C 3.6374987,4.761817 3.5196033,4.8739613 3.278062,4.891214 C 3.0365207,4.9084667 2.904248,4.8135753 2.881244,4.60654 C 2.85824,4.3995047 2.9732597,4.284485 3.226303,4.261481 z M 6.521618,16.062504 L 7.039207,15.251616 L 6.573377,15.079086 L 6.521618,16.062504 z M 4.623793,4.088951 C 4.9458483,4.295987 5.101125,4.8653347 5.089623,5.796994 C 5.089623,6.3490887 4.991856,7.1053433 4.796322,8.065758 C 4.6007887,9.0261727 5.0321127,9.4201153 6.090294,9.247586 C 7.148476,9.075056 8.5833473,9.6185243 10.394908,10.877991 C 12.206468,12.137456 13.549323,12.882209 14.423473,13.112248 C 15.297623,13.342288 15.685815,13.635588 15.588048,13.992149 C 15.490281,14.34871 15.199857,14.46373 14.716774,14.337209 C 14.935311,14.475232 15.116467,14.613256 15.260242,14.75128 C 15.404017,14.889303 15.447149,15.061833 15.389639,15.268868 C 15.332129,15.475904 15.171101,15.665687 14.906556,15.838216 C 13.894383,15.608176 13.14963,15.464401 12.672298,15.406892 C 12.194967,15.349382 11.421459,15.406892 10.351775,15.579422 C 9.9837123,16.695113 10.012467,17.32197 10.43804,17.459993 C 10.771597,17.805053 10.806102,17.977583 10.541557,17.977583 L 4.106204,17.977583 C 3.7496427,17.977583 3.5224787,17.951703 3.424712,17.899944 C 3.3269453,17.848185 3.2263033,17.874065 3.122786,17.977583 C 2.961758,17.828057 2.938754,17.678532 3.053774,17.529007 C 3.1687933,17.379481 3.3873307,17.281714 3.709386,17.235706 C 4.7100573,17.350726 5.4059267,17.408236 5.796994,17.408236 C 6.0500373,17.040172 6.199563,16.217781 6.245571,14.941062 C 4.658299,14.124423 3.5167283,13.509067 2.820859,13.094995 C 2.1249897,12.680924 1.777055,11.89879 1.777055,10.748593 C 1.788557,10.196498 1.8690707,9.6213997 2.018596,9.023297 C 2.168122,8.4251943 2.424041,7.8702243 2.786353,7.358387 C 3.148665,6.846549 3.3039417,6.3950967 3.252183,6.00403 C 3.2004237,5.6129627 2.817983,5.405927 2.104861,5.382923 L 0,5.382923 C 0.011502,5.1183777 0.14377467,4.934346 0.396818,4.830828 C 0.99492067,4.6352947 1.4665017,4.4915203 1.811561,4.399505 C 2.0531023,4.169465 2.2428847,4.019939 2.380908,3.950927 C 2.3349007,3.5023503 2.1566203,3.1112833 1.846067,2.777726 L 4.106204,2.777726 C 3.5886153,2.5131807 3.183171,2.280266 2.889871,2.078982 C 2.5965703,1.8776973 2.3607797,1.6649107 2.182499,1.440622 C 2.0042183,1.2163333 1.9237047,0.99492033 1.940958,0.776383 C 1.9582107,0.55784567 2.0502263,0.396818 2.217005,0.2933 C 2.3837837,0.18978267 2.5534377,0.149526 2.725967,0.17253 C 2.898497,0.19553333 3.025019,0.333557 3.105533,0.586601 C 3.117035,0.79363633 3.0796533,0.94316167 2.993388,1.035177 C 2.9071233,1.127193 2.7949793,1.1703257 2.656956,1.164575 C 2.518932,1.1588237 2.461422,1.0811853 2.484426,0.93166 C 2.495928,0.885652 2.541936,0.87415 2.62245,0.897154 C 2.7489713,0.885652 2.823734,0.822391 2.846738,0.707371 C 2.85824,0.59235167 2.823734,0.511838 2.74322,0.46583 C 2.6627067,0.419822 2.5793173,0.40832 2.493052,0.431324 C 2.4067873,0.454328 2.3435267,0.50321133 2.30327,0.577974 C 2.2630133,0.65273667 2.248636,0.75913 2.260138,0.897154 C 2.2716393,1.0351773 2.3492773,1.1990803 2.493052,1.388863 C 2.6368267,1.5786457 2.8524887,1.7482997 3.140038,1.897825 C 3.4275873,2.047351 3.9509273,2.3406513 4.710058,2.777726 L 5.986777,0 L 6.366342,0.207035 L 4.623793,4.088951 z "
     id="path2162"
     sodipodi:nodetypes="cccssccccsssssscccccssssccsssssssssccsssccccccsssssscsscsccccscscccscssscccccccssssscssssssssssscccc" />
</svg>
