<?xml version="1.0" encoding="UTF-8" standalone="no"?>
<svg
   xmlns:dc="http://purl.org/dc/elements/1.1/"
   xmlns:cc="http://web.resource.org/cc/"
   xmlns:rdf="http://www.w3.org/1999/02/22-rdf-syntax-ns#"
   xmlns:svg="http://www.w3.org/2000/svg"
   xmlns="http://www.w3.org/2000/svg"
   xmlns:sodipodi="http://sodipodi.sourceforge.net/DTD/sodipodi-0.dtd"
   xmlns:inkscape="http://www.inkscape.org/namespaces/inkscape"
   width="1800"
   height="1800"
   id="svg2501"
   sodipodi:version="0.32"
   inkscape:version="0.45.1"
   sodipodi:docname="G176A.svg"
   sodipodi:docbase="/Users/rosmord/Travail/Gsigns/Distribution"
   inkscape:output_extension="org.inkscape.output.svg.inkscape"
   version="1.0">
  <metadata
     id="metadata2508">
    <rdf:RDF>
      <cc:Work
         rdf:about="">
        <dc:format>image/svg+xml</dc:format>
        <dc:type
           rdf:resource="http://purl.org/dc/dcmitype/StillImage" />
        <dc:description>G176A, legs corrected.</dc:description>
        <dc:creator>
          <cc:Agent>
            <dc:title>S.Thomas</dc:title>
          </cc:Agent>
        </dc:creator>
      </cc:Work>
    </rdf:RDF>
  </metadata>
  <defs
     id="defs2506" />
  <sodipodi:namedview
     inkscape:window-height="701"
     inkscape:window-width="1093"
     inkscape:pageshadow="2"
     inkscape:pageopacity="0.0"
     guidetolerance="10.0"
     gridtolerance="10.0"
     objecttolerance="10.0"
     borderopacity="1.0"
     bordercolor="#666666"
     pagecolor="#ffffff"
     id="base"
     height="1800px"
     width="1800px"
     inkscape:zoom="0.19563288"
     inkscape:cx="793.00266"
     inkscape:cy="762.93033"
     inkscape:window-x="124"
     inkscape:window-y="22"
     inkscape:current-layer="svg2501" />
  <path
     style="fill:#000000;stroke:none"
     d="M 360.9375,3.625 C 352.82098,3.6517322 344.26199,4.0821863 335.28125,4.9375 C 311.33255,4.9375 246.33955,20.912281 140.28125,52.84375 C 53.609951,74.51159 6.8425,100.74017 0,131.53125 L 5.125,203.375 L 68.4375,181.125 C 139.143,203.93321 197.8682,215.34375 244.625,215.34375 C 291.3819,215.34375 309.06036,231.31848 297.65625,263.25 C 286.25215,295.18148 287.37761,347.63865 301.0625,420.625 C 217.8125,490.19008 173.90546,553.75295 169.34375,611.34375 C 164.78215,668.93453 190.46356,703.43964 246.34375,714.84375 C 299.94305,726.24789 336.4255,705.16181 355.8125,651.5625 C 369.44148,613.23103 368.7521,574.894 353.75,536.5625 C 375.35662,564.53968 414.22087,602.3023 470.40625,649.84375 C 558.42047,719.43641 628.80056,856.59803 655.1875,969.03125 C 658.67268,1002.405 695.52469,1117.0411 699.09375,1180.9062 C 699.09377,1292.4635 687.28824,1377.81 663.625,1436.9688 C 548.68565,1597.5462 470.94113,1685.4444 430.375,1700.6562 L 273.125,1693.0312 C 213.96491,1682.8889 186.96066,1694.7568 192.03125,1728.5625 C 192.03125,1764.0581 208.10409,1789.4444 240.21875,1804.6562 C 240.21875,1791.1342 251.15152,1781.8207 273.125,1776.75 L 359.375,1802.0938 L 1051.5,1799.5625 C 1085.3058,1797.8727 1101.3786,1804.6306 1099.6875,1819.8438 C 1119.9712,1808.0114 1130.125,1782.6264 1130.125,1743.75 C 1130.125,1709.9444 1108.5708,1699.3855 1065.4688,1712.0625 C 1022.3666,1724.7398 994.8948,1713.3392 983.0625,1677.8438 C 1016.8683,1583.1881 1045.6492,1505.4436 1069.3125,1444.5938 C 1087.9051,1370.2218 1099.7106,1286.5597 1104.7812,1193.5938 L 1216.25,1250.2812 C 1248.1816,1405.3772 1276.4187,1500.5847 1300.9375,1535.9375 C 1325.4563,1571.2902 1375.3265,1578.9885 1450.5938,1559.0312 C 1525.861,1539.0742 1556.1066,1493.7368 1541.2812,1423.0312 C 1450.0483,1068.3634 1359.6473,828.59386 1270.125,703.71875 C 1180.6027,578.8437 1016.1114,404.64557 776.625,181.125 C 691.0941,135.50851 621.232,124.98112 567.0625,149.5 C 512.8929,174.01881 478.96616,224.46742 465.28125,300.875 C 460.71955,297.45375 464.15831,268.66953 475.5625,214.5 C 486.9665,160.33047 484.37964,110.15541 467.84375,63.96875 C 453.37475,23.555379 417.75313,3.4378747 360.9375,3.625 z M 323.3125,43.53125 C 330.80625,43.478823 337.3558,44.002394 342.96875,45.125 C 368.62805,50.25679 383.7508,59.385267 388.3125,72.5 C 392.8741,85.61474 397.1336,89.32701 401.125,83.625 C 405.1165,77.92293 408.28171,71.655006 410.5625,64.8125 C 441.3536,105.86736 444.48765,163.16226 419.96875,236.71875 C 395.44995,310.2753 427.09458,353.33049 514.90625,365.875 C 525.16995,267.79964 551.39846,212.20848 593.59375,199.09375 C 635.78885,185.97902 684.26021,194.80265 739,225.59375 C 953.3973,418.32328 1106.7831,577.4297 1199.1562,702.875 C 1291.5296,828.32028 1387.8938,1071.8021 1488.25,1433.3125 C 1485.9691,1472.0864 1464.8519,1496.0329 1424.9375,1505.1562 C 1385.0231,1514.2797 1357.3643,1507.7068 1341.9688,1485.4688 C 1326.5733,1463.2307 1300.6494,1375.7212 1264.1562,1222.9062 C 1206.2864,1158.4118 1100.7902,1153.0787 1045.0625,1091.4688 C 1034.8934,1119.772 1028.5702,1183.3819 1026.1562,1282.3438 C 1010.7403,1225.3043 941.89564,1131.7124 819.625,1001.5625 C 751.55733,926.48257 693.42474,820.24935 627.78125,735.375 C 585.58605,684.0565 527.16574,624.75304 452.46875,557.46875 C 377.77185,490.18449 340.71106,420.62721 341.28125,348.78125 C 341.85145,276.93536 352.10531,226.76029 372.0625,198.25 C 392.0197,169.73972 401.1481,146.64511 399.4375,128.96875 C 397.7269,111.29238 390.57574,114.69994 378.03125,139.21875 C 365.48675,163.73762 328.42606,176.57837 266.84375,177.71875 C 205.26155,178.85919 137.9864,168.57409 65,146.90625 L 189.875,155.46875 C 266.2826,170.29407 306.78215,171.45076 311.34375,158.90625 C 315.90535,146.36174 311.88826,138.93707 299.34375,136.65625 C 286.79925,134.37544 273.68489,133.25 260,133.25 C 246.315,133.25 236.63961,135.50087 230.9375,140.0625 L 232.21875,145.15625 C 219.8153,143.31572 205.22784,141.08477 188.15625,138.375 C 169.90965,108.72428 167.0805,88.185379 179.625,76.78125 C 183.0463,72.21962 188.73585,69.937502 196.71875,69.9375 C 193.29755,84.76283 195.30615,95.594982 202.71875,102.4375 C 210.13145,109.27994 217.8296,106.45076 225.8125,93.90625 C 233.7953,81.36174 227.5274,72.233321 207,66.53125 C 257.78391,51.385133 296.54911,43.718488 323.3125,43.53125 z M 300.625,56.96875 C 284.56791,57.179248 269.30828,68.337632 254.875,90.46875 C 263.9983,105.29408 277.69091,114.4225 295.9375,117.84375 C 313.0436,122.40538 327.2833,114.43365 338.6875,93.90625 C 337.5471,73.37885 327.87161,61.390009 309.625,57.96875 C 306.59578,57.255995 303.59853,56.929769 300.625,56.96875 z M 145.40625,93.90625 C 141.98495,104.16996 143.68874,113.84549 150.53125,122.96875 L 59.875,131.53125 C 59.875,118.98674 88.38565,106.45076 145.40625,93.90625 z M 250.46875,145.6875 C 262.49876,145.467 272.23919,146.75586 279.6875,149.5 C 287.38361,152.33539 273.80781,151.18363 239.78125,146.25 C 243.52647,145.95356 247.08584,145.74951 250.46875,145.6875 z M 290.8125,497.59375 C 310.1995,604.79244 298.78894,659.53168 256.59375,661.8125 C 217.81975,642.42554 229.23031,587.6863 290.8125,497.59375 z M 724.4375,993.28125 C 788.66684,1060.893 820.81252,1107.8322 820.8125,1134.0312 C 820.81249,1160.2304 801.37636,1191.0358 762.5,1226.5312 C 764.19104,1152.1595 751.4816,1074.4149 724.4375,993.28125 z M 886.71875,1226.5312 C 956.02005,1267.0976 988.1332,1340.6373 983.0625,1447.125 L 904.5,1657.5625 C 889.28821,1696.4388 861.37863,1715.0649 820.8125,1713.375 C 716.01569,1715.0649 641.667,1708.243 597.71875,1693.0312 C 597.71878,1660.9153 645.84213,1583.1708 742.1875,1459.7812 C 811.48878,1304.2759 859.67467,1226.5313 886.71875,1226.5312 z "
     id="path2503"
     sodipodi:nodetypes="ccccccsscscccccccccccccccscccccsccscsccsccssscscscccsscccccssssssccssscccccsscccccccccccccsccccccsccccccccc" />
</svg>
