<?xml version="1.0" encoding="UTF-8" standalone="no"?>
<svg
   xmlns:dc="http://purl.org/dc/elements/1.1/"
   xmlns:cc="http://web.resource.org/cc/"
   xmlns:rdf="http://www.w3.org/1999/02/22-rdf-syntax-ns#"
   xmlns:svg="http://www.w3.org/2000/svg"
   xmlns="http://www.w3.org/2000/svg"
   xmlns:sodipodi="http://sodipodi.sourceforge.net/DTD/sodipodi-0.dtd"
   xmlns:inkscape="http://www.inkscape.org/namespaces/inkscape"
   width="13.177313"
   height="17.977583"
   id="svg2241"
   sodipodi:version="0.32"
   inkscape:version="0.45"
   sodipodi:docname="G179A.svg"
   inkscape:output_extension="org.inkscape.output.svg.inkscape"
   sodipodi:docbase="C:\Program Files\JSesh\fontsGroupeG"
   sodipodi:modified="true">
  <metadata
     id="metadata2248">
    <rdf:RDF>
      <cc:Work
         rdf:about="">
        <dc:format>image/svg+xml</dc:format>
        <dc:type
           rdf:resource="http://purl.org/dc/dcmitype/StillImage" />
      </cc:Work>
    </rdf:RDF>
  </metadata>
  <defs
     id="defs2246" />
  <sodipodi:namedview
     inkscape:window-height="480"
     inkscape:window-width="640"
     inkscape:pageshadow="2"
     inkscape:pageopacity="0.0"
     guidetolerance="10.0"
     gridtolerance="10.0"
     objecttolerance="10.0"
     borderopacity="1.0"
     bordercolor="#666666"
     pagecolor="#ffffff"
     id="base" />
  <path
     style="fill:#000000; stroke:none"
     d="M 5.98107,15.279227 C 5.946696,15.531302 5.8235223,15.909416 5.611549,16.413568 C 5.399577,16.917719 5.3566097,17.221355 5.482647,17.324478 L 6.273248,17.066673 C 6.616988,16.023996 6.743026,15.51698 6.651362,15.545625 C 6.559698,15.57427 6.43366,15.674528 6.273248,15.846397 L 5.98107,15.279227 z M 2.629608,4.55455 C 2.79002,4.588924 2.875955,4.692046 2.887413,4.863916 C 2.784291,5.0472433 2.658253,5.115991 2.509299,5.070159 C 2.3603457,5.0357857 2.245766,4.961309 2.16556,4.846729 C 2.3145133,4.617569 2.469196,4.520176 2.629608,4.55455 z M 5.912322,14.815178 C 6.1987713,14.74643 6.364912,14.872468 6.410744,15.193292 C 6.513866,15.03288 6.628446,14.952674 6.754484,14.952674 C 6.846148,14.001661 6.60553,13.062106 6.03263,12.134009 C 6.215958,12.970442 6.1758553,13.864165 5.912322,14.815178 z M 0.498422,5.190468 L 1.271837,5.121721 C 1.214547,5.041515 1.19736,4.95558 1.220276,4.863916 C 0.73904,4.967038 0.498422,5.0758887 0.498422,5.190468 z M 12.70118,16.310446 C 11.841831,13.216789 11.016855,11.1343 10.226254,10.062978 C 9.4356533,8.991656 8.1294427,7.636749 6.307622,5.998257 C 5.8378447,5.734723 5.4224927,5.6573813 5.061566,5.766232 C 4.7006393,5.8750833 4.474344,6.3534543 4.38268,7.201345 C 3.6379113,7.0753077 3.3686487,6.702923 3.574892,6.084191 C 3.781136,5.4654603 3.752491,4.972767 3.488957,4.606111 C 3.466041,4.674859 3.4402607,4.732149 3.411616,4.777981 C 3.3829713,4.823813 3.3485973,4.789439 3.308494,4.674859 C 3.2683913,4.560279 3.139489,4.4829377 2.921787,4.442835 C 2.704085,4.4027317 2.3145133,4.468615 1.753072,4.640485 C 1.924942,4.686317 1.9793673,4.760794 1.916348,4.863916 C 1.8533293,4.967038 1.7903107,4.989954 1.727292,4.932664 C 1.6642727,4.875374 1.644221,4.78371 1.667137,4.657672 C 1.609847,4.66913 1.564015,4.692046 1.529641,4.72642 C 1.4150617,4.818084 1.4379777,4.9956827 1.598389,5.259216 C 2.2056623,5.35088 2.4663317,5.379525 2.380397,5.345151 C 2.2944623,5.3107777 2.159831,5.2993197 1.976503,5.310777 L 1.959316,5.259216 C 2.016606,5.224842 2.102541,5.207655 2.217121,5.207655 C 2.3317003,5.207655 2.4434157,5.2162487 2.552267,5.233436 C 2.6611177,5.2506227 2.6954917,5.3136417 2.655389,5.422493 C 2.6152857,5.5313437 2.2686813,5.52275 1.615576,5.396712 L 0.549983,5.327964 C 1.1687143,5.511292 1.741614,5.597227 2.268682,5.585769 C 2.7957493,5.574311 3.1137083,5.46546 3.222559,5.259216 C 3.3314097,5.0529727 3.391564,5.024328 3.403022,5.173282 C 3.41448,5.3222353 3.3371387,5.517021 3.170998,5.757639 C 3.0048573,5.998257 2.916058,6.425067 2.9046,7.038069 C 2.893142,7.651071 3.2082367,8.2468863 3.849884,8.825515 C 4.4915313,9.4041437 4.9928183,9.9111597 5.353745,10.346563 C 5.7146717,10.781966 6.12143,11.41502 6.57402,12.245725 C 7.0266107,13.076428 7.235719,13.921455 7.201345,14.780805 C 7.8200763,14.700599 8.341415,14.826637 8.765361,15.158918 C 8.9143143,14.723515 8.9458237,14.37691 8.859889,14.119105 C 8.7739543,13.8613 8.8025993,13.680837 8.945824,13.577716 C 9.0890493,13.474594 9.699187,13.78396 10.776237,14.505813 C 11.097061,15.812023 11.323356,16.559657 11.455123,16.748714 C 11.58689,16.937771 11.821779,16.992196 12.15979,16.911989 C 12.4978,16.831784 12.678263,16.631269 12.70118,16.310446 z M 9.349718,14.162073 C 9.384092,14.68914 9.2809703,15.342246 9.040353,16.121389 C 8.593491,15.537032 8.2010547,15.273498 7.863044,15.330788 C 7.5250333,15.388077 7.2958737,15.582863 7.175565,15.915145 C 7.0552557,16.247427 6.9492693,16.63127 6.857606,17.066673 C 7.4075893,17.364581 7.9346567,17.461974 8.438808,17.358852 C 8.9429593,17.255729 9.315344,17.301561 9.555962,17.496347 C 9.659084,17.668217 9.636168,17.8229 9.487214,17.960396 C 9.407008,17.8229 9.2952927,17.736965 9.152068,17.702591 C 9.0088427,17.668217 8.8283793,17.719778 8.610678,17.857275 L 4.073315,17.857275 C 3.0993857,18.05206 2.5436733,18.006227 2.406178,17.719778 C 2.303056,17.696862 2.194205,17.782797 2.079625,17.977583 L 2.062438,17.582283 C 2.073896,17.341664 2.2171207,17.215626 2.492112,17.204168 C 2.56086,17.204168 2.73273,17.238542 3.007722,17.307291 C 3.2827133,17.376038 3.666556,17.398955 4.15925,17.37604 C 4.5029893,17.353123 4.795168,17.049486 5.035786,16.465128 C 5.2764033,15.880771 5.368067,15.611509 5.310777,15.65734 L 5.035786,15.812023 C 5.5399373,14.51727 5.706078,13.32564 5.534208,12.237131 C 5.362338,11.148622 4.8524577,10.277815 4.004567,9.62471 C 3.2025077,8.9945207 2.7241367,8.4044343 2.569454,7.854451 C 2.4147713,7.3044677 2.3947197,6.8432837 2.509299,6.470899 C 2.623879,6.0985143 2.4806543,5.912322 2.079625,5.912322 C 1.678595,5.912322 1.1744433,5.814929 0.56717,5.620143 L 0.034374,5.8092 L 0,5.190468 C 0.045832,4.9269347 0.44113267,4.703504 1.185902,4.520176 C 2.4189055,3.9339141 3.0101507,4.1773843 3.995973,4.614705 C 4.1391983,5.010005 4.1621143,5.4396793 4.064721,5.903728 C 3.9673283,6.3677767 3.93009,6.611259 3.953006,6.634175 C 4.079044,5.9810697 4.374087,5.551395 4.838135,5.345151 C 5.3021837,5.1389077 5.9008637,5.2305717 6.634175,5.620143 C 8.673697,7.522169 10.074436,9.0059783 10.836392,10.071571 C 11.598348,11.137164 12.368898,13.188144 13.148041,16.22451 C 13.274079,16.820327 13.016274,17.20417 12.374627,17.37604 C 11.73298,17.547908 11.306169,17.484888 11.094196,17.186981 C 10.882223,16.889074 10.638741,16.075557 10.36375,14.74643 L 9.349718,14.162073 z M 2.595234,1.237463 L 2.38899,1.237463 C 2.2744107,1.8447363 2.136915,2.3288363 1.976503,2.689763 C 1.816091,3.0506897 1.730156,3.5519767 1.718698,4.193624 C 2.199934,4.067586 2.6926277,3.8552984 3.196779,4.110811 C 3.196779,3.4691637 3.122302,3.0621477 2.973348,2.689763 C 2.824394,2.3173783 2.698356,1.8332783 2.595234,1.237463 z M 1.168715,4.520176 C 0.916639,4.2681007 0.81065267,3.9959733 0.850756,3.703794 C 0.89085867,3.411616 1.0111673,3.07647 1.211682,2.698356 C 1.4121967,2.3202427 1.512454,1.942129 1.512454,1.564015 C 1.3749587,1.4494357 1.283295,1.31194 1.237463,1.151528 C 1.191631,0.991116 1.237463,0.85648467 1.374959,0.747634 C 1.5124543,0.63878267 1.661408,0.613002 1.82182,0.670292 C 1.982232,0.727582 2.10827,0.870807 2.199934,1.099967 C 2.211392,0.962471 2.1741533,0.82783967 2.088218,0.696073 C 2.0022833,0.56430567 1.999419,0.41248733 2.079625,0.240618 C 2.159831,0.068748 2.3030557,-0.011458 2.509299,0 C 2.704085,-0.011458 2.8444453,0.071612333 2.93038,0.249211 C 3.0163153,0.42680967 3.0163153,0.58149267 2.93038,0.71326 C 2.8444453,0.84502667 2.795749,0.973929 2.784291,1.099967 C 2.887413,0.882265 3.0163153,0.74763367 3.170998,0.696073 C 3.3256807,0.64451167 3.4746347,0.67315667 3.61786,0.782008 C 3.7610847,0.89085867 3.8069167,1.02549 3.755356,1.185902 C 3.7037947,1.346314 3.609266,1.4780807 3.47177,1.581202 C 3.47177,1.959316 3.5662987,2.3431587 3.755356,2.73273 C 3.9444127,3.1223013 4.0704503,3.4803633 4.133469,3.806916 C 4.1964877,4.1334687 4.1420623,4.38268 3.970193,4.55455 C 2.9504323,4.348306 2.0166063,4.336848 1.168715,4.520176 z M 2.612421,1.099967 L 2.612421,0.91091 L 2.371804,0.91091 L 2.371804,1.099967 L 2.612421,1.099967 z M 2.629608,0.790601 C 2.870226,0.46977767 2.830123,0.280721 2.509299,0.223431 C 2.1770177,0.280721 2.131186,0.46977767 2.371804,0.790601 L 2.629608,0.790601 z "
     id="path2243"
     sodipodi:nodetypes="csccsccccsccccccccccccscscscssscsssscsccsssccssssssssccsscsscccsscsccscccccssssccscssscccccscscscssccccsccsccsscssscssssscssscssccccccccccc" />
</svg>
