<?xml version="1.0" encoding="UTF-8" standalone="no"?>
<svg
   width="1336.8727"
   height="1790.0977"
   version="1.1"
   id="svg2"
   sodipodi:docname="G179A.svg"
   inkscape:version="1.4 (e7c3feb1, 2024-10-09)"
   xmlns:inkscape="http://www.inkscape.org/namespaces/inkscape"
   xmlns:sodipodi="http://sodipodi.sourceforge.net/DTD/sodipodi-0.dtd"
   xmlns="http://www.w3.org/2000/svg"
   xmlns:svg="http://www.w3.org/2000/svg"
   xmlns:rdf="http://www.w3.org/1999/02/22-rdf-syntax-ns#"
   xmlns:cc="http://creativecommons.org/ns#"
   xmlns:dc="http://purl.org/dc/elements/1.1/">
  <title
     id="title2">G179A</title>
  <defs
     id="defs2" />
  <sodipodi:namedview
     id="namedview2"
     pagecolor="#ffffff"
     bordercolor="#000000"
     borderopacity="0.25"
     inkscape:showpageshadow="2"
     inkscape:pageopacity="0.0"
     inkscape:pagecheckerboard="0"
     inkscape:deskcolor="#d1d1d1"
     showguides="true"
     inkscape:zoom="0.12767206"
     inkscape:cx="383.7958"
     inkscape:cy="415.12607"
     inkscape:window-width="1320"
     inkscape:window-height="687"
     inkscape:window-x="0"
     inkscape:window-y="25"
     inkscape:window-maximized="0"
     inkscape:current-layer="svg2" />
  <path
     id="path1"
     style="fill:#000000;stroke:none;stroke-width:76.1213"
     d="m 255.07812,0 c -18.61799,0 -31.69094,8.0661451 -39.21874,24.197265 -8.0296,17.206463 -7.74313,32.403997 0.85937,45.595704 8.6036,13.19164 12.33255,26.670304 11.18555,40.435541 -9.1766,-22.942049 -21.79412,-37.280113 -37.85352,-43.015619 -5.5377,-1.977757 -10.94018,-2.966797 -16.20508,-2.966797 -10.0034,0 -19.5146,3.569241 -28.5332,10.708984 -13.7652,10.897435 -18.35403,24.376125 -13.76562,40.435542 4.58869,16.05943 13.76605,29.82594 27.53124,41.29688 0,37.85437 -10.03702,75.70821 -30.11132,113.5625 -20.0742,37.85437 -32.118016,71.40721 -36.132816,100.6582 -4.0148,29.25114 6.595633,56.49431 31.832036,81.73047 1.041,-0.22499 2.08395,-0.44603 3.12695,-0.66602 -0.47,0.22099 -0.9412,0.44203 -1.4082,0.66602 0,0 8.47652,1.82775 12.73046,2.74805 -6.74267,1.99251 -12.2769,3.52044 -19.47461,5.6875 C 46.606832,479.33268 6.7267886,501.43664 0,527.38281 l 4.3242188,60.54102 53.3339842,-18.74024 c 59.580217,19.21943 109.070917,28.83008 148.470707,28.83008 40.36079,0 54.77578,18.4987 43.24414,55.49609 -11.53167,36.9974 -9.77684,82.69023 5.76562,136.9375 19.39056,67.67812 116.41157,65.92639 156.30664,99.99414 31.82336,27.17499 97.81874,158.3794 136.5293,228.0547 19.97417,182.0942 -23.65208,468.4664 -45.38477,521.6895 -23.54377,57.6584 -52.13164,87.4493 -85.76562,89.3711 -14.00284,0.8237 -27.10226,1.2344 -39.30078,1.2344 -30.49597,0 -55.35486,-2.5728 -74.57422,-7.7207 -26.90719,-7.2064 -44.20482,-10.8106 -51.89258,-10.8106 -26.90719,1.9221 -40.36133,14.4151 -40.36133,37.4785 v 40.3594 c 10.48332,-17.4722 20.17343,-26.207 29.06836,-26.207 0.88948,0 1.76902,0.083 2.64258,0.2578 8.53107,16.4934 31.36964,24.7402 68.51172,24.7402 25.61522,0 58.03446,-3.9232 97.25781,-11.7676 h 554.86524 c 16.14434,-10.7629 30.44439,-16.1425 42.89848,-16.1425 3.1134,0 6.1088,0.3352 8.9921,1.0097 14.4146,3.3637 25.4665,11.7712 33.1543,25.2246 15.3756,-12.4925 17.7779,-27.3882 7.2071,-44.6855 -15.7659,-13.2433 -37.015,-19.8652 -63.74808,-19.8652 -14.003,0 -29.50924,1.8179 -46.52148,5.4511 -12.96161,2.7685 -26.1055,4.1524 -39.42969,4.1524 -37.55022,0 -76.54112,-10.9945 -116.9707,-32.9824 l 4.01953,-130.8282 52.82812,-249.9785 c 60.79787,87.1396 162.2857,140.5403 233.4824,197.3067 26.9072,130.692 31.8704,165.2411 53.0117,195.0312 13.5129,19.041 35.5651,28.5625 66.1563,28.5625 17.2692,0 37.2591,-3.0355 59.9707,-9.1035 62.9435,-16.8169 88.1704,-55.0154 75.6777,-114.5957 -75.917,-298.8588 -102.1399,-531.2317 -174.7558,-647.76765 -52.3961,-84.0866 -192.84503,-194.96469 -423.97073,-371.95898 -46.87661,-25.00086 -88.16199,-37.50195 -123.85938,-37.50195 -77.61485,0 -77.77998,68.98774 -106.74218,121.55664 -12.21498,18.86212 -46.46438,30.23828 -79.30664,30.23828 -0.53666,0 -1.072,-0.002 -1.60743,-0.008 -56.15738,-0.63815 -30.97101,-67.29723 -21.36132,-112.94336 9.60974,-45.64611 7.20759,-87.68813 -7.20704,-126.12696 -2.59571,-6.9219 -6.13896,-12.95495 -10.23046,-18.47461 l 0.75781,-0.36133 c 6.5106,1.16915 13.05637,2.41867 19.63867,3.75 17.2065,-17.20654 22.6548,-42.15528 16.3457,-74.84765 -6.309,-32.6924 -18.92621,-68.53961 -37.85351,-107.54102 -18.9271,-39.00139 -28.39063,-77.42884 -28.39063,-115.2832 13.7652,-10.32385 23.22873,-23.51675 28.39063,-39.57617 5.1618,-16.05942 0.56957,-29.538111 -13.76563,-40.435546 -9.7295,-7.394724 -19.72237,-11.091797 -29.98047,-11.091797 -4.8588,0 -9.77826,0.829016 -14.75586,2.488282 -15.4859,5.161927 -28.39094,18.640594 -38.71484,40.435541 1.1469,-12.618127 6.0213,-25.523197 14.625,-38.714838 8.6036,-13.191706 8.6036,-28.676983 0,-46.457031 -8.0817,-16.7024679 -20.97152,-25.0527348 -38.66992,-25.0527348 -1.142,0 -2.30443,0.033995 -3.48633,0.1035157 -1.2842,-0.071654 -2.54981,-0.1074219 -3.79102,-0.1074219 z m 3.79688,22.476562 c 32.1189,5.73551 36.13402,24.662459 12.04492,56.78125 H 245.11133 C 221.02213,47.139021 225.6091,28.212074 258.875,22.476562 Z m -13.76367,68.826171 h 24.08789 v 18.925777 h -24.08789 z m 1.7207,32.691407 h 20.64649 c 10.3238,59.64923 22.94316,108.11374 37.85546,145.39453 14.9124,37.28077 22.36719,78.02992 22.36719,142.26758 -17.2925,-8.76415 -34.44945,-12.03125 -51.47265,-12.03125 -32.6632,0 -64.83016,12.02728 -96.50196,20.32226 1.147,-64.23764 9.7492,-114.42491 25.8086,-150.55859 16.0594,-36.1337 29.82597,-84.59819 41.29687,-145.39453 z m 17.97656,320.99023 c 5.5715,0.36577 8.96289,2.71778 8.96289,8.2461 0,2.17604 1.48304,2.83789 3.59571,2.83789 3.2685,0 8.04324,-1.58203 11.16015,-1.58203 0.4377,0 0.84159,0.0305 1.20508,0.10156 22.10232,4.32437 34.83582,12.0133 38.19922,23.06445 2.34415,7.70234 4.68702,11.55274 7.03125,11.55273 1.01919,0 2.03932,-0.72762 3.05859,-2.18359 3.36342,-4.80488 6.00575,-10.08965 7.92774,-15.85547 25.94619,34.59497 28.59055,82.88259 7.92969,144.86524 -20.66089,61.98263 -13.47209,120.35871 19.77539,131.68554 18.27147,6.22482 45.85804,10.01368 72.75195,10.01368 26.33403,0 52.00477,-3.63407 67.61523,-12.17579 59.20939,-32.39814 37.26327,-139.41992 99.70899,-139.41992 27.38598,0 57.253,9.09691 89.60156,27.29297 198.62836,154.8334 360.06917,275.62193 395.86137,333.76172 97.6983,158.69905 106.9685,352.81775 191.332,657.14265 -2.8827,32.673 -21.1416,52.8511 -54.7754,60.539 -9.7844,2.2365 -18.6945,3.3555 -26.7305,3.3555 -19.5876,0 -33.9824,-6.6437 -43.1816,-19.9316 -12.973,-18.7389 -21.4501,-65.7281 -52.2012,-194.4981 -92.253,-58.7937 -191.46389,-108.9013 -245.88475,-211.7461 -118.49542,-62.5306 -221.69798,-118.914 -303,-225.834 C 529.67651,992.97305 484.62941,867.44558 429.16797,840.89648 379.4666,817.10474 317.34449,813.38913 303.27539,775.05273 280.11474,711.94305 293.01728,614.80696 314.23828,583.59961 c 16.3365,-24.02427 24.0235,-43.24561 23.0625,-57.66016 -0.40041,-6.00609 -1.67593,-9.00781 -3.82812,-9.00781 -3.01303,0 -7.74295,5.88628 -14.18946,17.6582 -11.05117,20.18035 -42.52355,30.74998 -94.41601,31.71094 -2.5946,0.048 -5.20162,0.0723 -7.82031,0.0723 -49.75427,0 -103.8445,-8.67204 -162.271489,-26.01757 l 106.667969,7.20703 c 34.35472,6.7668 60.03805,10.15039 77.05273,10.15039 14.39702,0 22.58831,-2.42269 24.57032,-7.26758 4.32434,-10.57068 0.95934,-16.81828 -10.0918,-18.74024 -11.05118,-1.92196 -22.1012,-2.88281 -33.15234,-2.88281 -11.05116,0 -19.45875,1.92368 -25.22461,5.76758 l 1.25781,5.03516 c -10.12776,-1.35744 -22.07874,-3.03558 -35.85352,-5.03516 -16.33649,-25.94621 -18.73869,-43.72426 -7.20703,-53.33398 1.92195,-3.84385 6.24588,-5.76758 12.97266,-5.76758 -1.92199,12.4926 0.24004,21.62285 6.48633,27.38867 2.20463,2.03502 4.41068,3.05273 6.61523,3.05273 4.04166,0 8.08131,-3.41992 12.12305,-10.25976 6.24639,-10.57075 1.20172,-18.25961 -15.13477,-23.06445 23.34342,-7.08641 50.51358,-19.04288 70.3125,-24.66407 6.74981,-1.36953 12.91679,-2.34576 18.63867,-2.95703 z m -11.07031,19.56055 c -13.55249,0 -26.05908,9.41428 -37.51953,28.24219 6.72677,12.49265 17.77877,20.18157 33.1543,23.06445 2.79556,0.6988 5.4947,1.04687 8.09961,1.04687 11.72225,0 21.51445,-7.07608 29.37695,-21.22851 -0.96096,-17.29749 -9.60881,-27.3866 -25.94531,-30.26953 -2.42022,-0.56946 -4.80908,-0.85547 -7.16602,-0.85547 z m -131.21484,31.125 c -1.92195,8.64875 -2.4e-4,16.81615 5.76562,24.50391 l -76.396482,7.20898 c -0.960975,-10.57064 22.582315,-21.1422 70.630862,-31.71289 z m 91.52734,43.63672 c 9.39537,0 16.84389,1.07062 22.34766,3.21093 2.42165,0.94178 2.16778,1.41211 -0.75977,1.41211 -4.84863,0 -17.03251,-1.2916 -36.55469,-3.875 5.44215,-0.4986 10.43146,-0.74804 14.9668,-0.74804 z m 454.59961,766.56256 c 34.80955,37.3658 73.87974,214.6962 72.03125,261.5547 l -9.7168,133.3008 -182.96875,24.5078 c -0.43161,0.058 -0.84607,0.084 -1.24609,0.084 -15.32849,0 -7.82628,-41.9467 12.77734,-90.1778 21.14115,-49.4894 89.26354,-250.241 109.12305,-329.2695 z" />
  <metadata
     id="metadata2">
    <rdf:RDF>
      <cc:Work
         rdf:about="">
        <dc:title>G179A</dc:title>
        <dc:creator>
          <cc:Agent>
            <dc:title>S.J.P. Thomas</dc:title>
          </cc:Agent>
        </dc:creator>
        <dc:description>fixed to match Hieroglyphica (S. Rosmorduc)</dc:description>
      </cc:Work>
    </rdf:RDF>
  </metadata>
</svg>
