<?xml version="1.0" encoding ="US-ASCII" standalone="yes"?>
<svg width="16.616261" height="17.976807">
<path style="fill:#000000; stroke:none" d=" M 6.180521 5.525307  Q 5.437294 7.578961 10.40518 12.390379  Q 13.514999 15.128584 14.864543 15.656667  Q 15.783797 16.02828 15.529535 14.972116  Q 15.353508 14.189771 14.140875 11.67649  Q 12.928241 9.163208 11.226642 7.344258  Q 9.525043 5.525307 8.273292 4.566935  Q 6.708603 4.058412 6.180521 5.525307  Z  M 7.647416 3.412977  Q 7.471389 1.496234 8.15594 0.322717  Q 8.703581 -0.361834 9.016519 0.400951  Q 9.309898 0.909475 8.742699 3.530329  Q 12.908682 7.500727 14.473371 10.287828  Q 16.038059 13.07493 16.370556 14.414695  Q 16.703053 15.754459 16.585701 16.18475  Q 16.350998 17.280031 14.786308 16.810625  Q 7.940795 16.262983 5.124356 16.008722  Q 4.713625 16.008722 4.537597 16.282541  Q 4.518039 17.886349 3.833488 17.847231  Q 3.266288 17.847231 3.540108 16.399895  Q 2.11233 17.240913 0.919255 17.964582  Q 0.234703 18.042816 0 17.651646  Q 0.117352 17.416941 2.014537 16.194529  Q 3.911722 14.972116 5.06568 15.011232  L 11.930752 15.676226  L 11.95031 15.676226  L 11.95031 15.637108  Q 8.077705 11.588476 7.080216 10.473636  Q 6.082727 9.358794 5.515528 8.224395  Q 4.948328 7.089996 5.007004 5.48619  Q 5.143914 4.938549 4.909211 4.78208  Q 3.422757 3.569446 3.012026 2.239461  Q 2.992467 1.496234 3.677018 1.613585  Q 4.283335 1.848289 5.711114 3.980177  Q 6.708603 3.412977 7.647416 3.412977  Z "/></svg>
