<?xml version="1.0" encoding="UTF-8" standalone="no"?>
<svg
   xmlns:dc="http://purl.org/dc/elements/1.1/"
   xmlns:cc="http://web.resource.org/cc/"
   xmlns:rdf="http://www.w3.org/1999/02/22-rdf-syntax-ns#"
   xmlns:svg="http://www.w3.org/2000/svg"
   xmlns="http://www.w3.org/2000/svg"
   xmlns:sodipodi="http://sodipodi.sourceforge.net/DTD/sodipodi-0.dtd"
   xmlns:inkscape="http://www.inkscape.org/namespaces/inkscape"
   width="16.098068"
   height="17.977583"
   id="svg2277"
   sodipodi:version="0.32"
   inkscape:version="0.45"
   sodipodi:docname="G180.svg"
   inkscape:output_extension="org.inkscape.output.svg.inkscape"
   sodipodi:docbase="C:\Program Files\JSesh\fontsGroupeG"
   sodipodi:modified="true">
  <metadata
     id="metadata2284">
    <rdf:RDF>
      <cc:Work
         rdf:about="">
        <dc:format>image/svg+xml</dc:format>
        <dc:type
           rdf:resource="http://purl.org/dc/dcmitype/StillImage" />
      </cc:Work>
    </rdf:RDF>
  </metadata>
  <defs
     id="defs2282" />
  <sodipodi:namedview
     inkscape:window-height="480"
     inkscape:window-width="640"
     inkscape:pageshadow="2"
     inkscape:pageopacity="0.0"
     guidetolerance="10.0"
     gridtolerance="10.0"
     objecttolerance="10.0"
     borderopacity="1.0"
     bordercolor="#666666"
     pagecolor="#ffffff"
     id="base" />
  <path
     style="fill:#000000; stroke:none"
     d="M 5.595285,6.851899 C 6.0220863,7.0364617 6.3018143,6.9124583 6.434469,6.479889 C 6.5671237,6.0473197 6.9679713,6.139601 7.637012,6.756733 C 8.3060533,7.3738657 9.3759417,8.2130503 10.846677,9.274287 C 12.317413,10.335524 13.243112,11.292944 13.623773,12.146548 L 14.385095,13.686495 C 14.592728,13.790311 14.754221,13.778776 14.869572,13.651889 C 14.70808,13.155876 14.367792,12.42916 13.848708,11.47174 C 13.306555,10.618137 11.126405,8.7379017 7.308259,5.831035 C 7.0083443,5.7041483 6.676708,5.6983807 6.31335,5.813732 C 5.9499913,5.929084 5.7106363,6.2751397 5.595285,6.851899 z M 13.052781,11.887006 C 12.868218,11.448669 12.043452,10.675812 10.578484,9.568435 C 9.1135153,8.461057 7.8792507,7.497869 6.87569,6.678871 C 6.7257327,6.563519 6.6680567,6.6038923 6.702662,6.799991 C 6.7718733,7.019159 7.1208127,7.494985 7.74948,8.227469 C 8.3781473,8.9599537 9.119283,9.7126243 9.972887,10.485481 C 10.82649,11.258339 11.853122,11.725514 13.052781,11.887006 z M 15.35405,16.974022 L 15.475169,16.90481 C 14.079412,13.894127 13.341161,12.342645 13.260414,12.250364 C 12.67212,12.250364 12.02615,12.109058 11.322503,11.826447 C 10.618857,11.543835 9.8661863,11.010333 9.064491,10.22594 C 8.2627957,9.4415473 7.3890057,8.4379863 6.443121,7.215257 L 6.287396,7.336377 C 7.048718,9.2050763 7.9282757,10.70465 8.926069,11.835098 C 9.9238623,12.965546 10.411224,13.617284 10.388153,13.790312 L 15.35405,16.974022 z M 7.239048,15.399469 C 7.2044427,15.641708 7.0804397,16.016602 6.867039,16.524149 C 6.6536377,17.031698 6.616148,17.337381 6.75457,17.441196 L 7.533195,17.198957 C 7.879251,16.13772 8.009022,15.621521 7.922508,15.65036 C 7.835994,15.679198 7.706223,15.780131 7.533195,15.953158 L 7.239048,15.399469 z M 11.512834,15.105322 C 11.708932,15.416772 11.910798,15.739757 12.118431,16.074278 C 12.326064,16.408797 12.496208,16.685641 12.628862,16.90481 C 12.761517,17.123979 13.081619,17.204726 13.589167,17.147049 C 14.096715,17.089373 14.315883,16.974022 14.246672,16.800995 L 11.512834,15.105322 z M 3.865007,4.602538 C 4.0264997,4.6256087 4.1130137,4.7294253 4.124549,4.913988 C 4.0207323,5.087016 3.8938453,5.156227 3.743888,5.121621 C 3.5939307,5.0870157 3.4785787,5.0062697 3.397832,4.879383 C 3.5477893,4.6602143 3.7035143,4.5679327 3.865007,4.602538 z M 1.771372,5.36386 C 2.3942713,5.5484233 2.9710303,5.637821 3.501649,5.632053 C 4.0322677,5.6262857 4.352369,5.5167013 4.461953,5.3033 C 4.571537,5.0898993 4.6320967,5.0581777 4.643632,5.208135 C 4.6551673,5.3580923 4.577305,5.5570743 4.410045,5.805081 C 4.2427843,6.0530877 4.159154,6.4827733 4.159154,7.094138 C 4.159154,7.7055027 4.4763717,8.302448 5.110807,8.884974 C 5.7452417,9.4675013 6.2527897,9.972166 6.633451,10.398968 C 7.0141123,10.825769 7.4322627,11.463088 7.887902,12.310925 C 8.343542,13.15876 8.5540593,14.015247 8.519454,14.880386 C 9.1077487,14.811175 9.649902,14.949597 10.145914,15.295652 C 10.307407,14.349767 9.866186,13.334671 8.822252,12.250364 C 7.778318,11.166057 6.806479,9.5799693 5.906735,7.492102 C 4.9262443,7.3536793 4.5513507,6.9355287 4.782054,6.23765 C 5.012758,5.539772 4.9954553,5.0120377 4.730146,4.654447 C 4.7070753,4.7121223 4.6782373,4.7669143 4.643632,4.818823 C 4.6090267,4.870731 4.574421,4.8390093 4.539815,4.723658 C 4.5052097,4.608306 4.3783227,4.5275597 4.159154,4.481419 C 3.939986,4.4352783 3.5535577,4.4987217 2.999869,4.671749 C 3.161361,4.7178897 3.2103853,4.7957523 3.146942,4.905337 C 3.0834987,5.014921 3.0200553,5.040875 2.956612,4.983199 C 2.893168,4.925523 2.8729813,4.827474 2.896052,4.689052 C 2.8268407,4.7005873 2.7807,4.7236577 2.75763,4.758263 C 2.642278,4.8620797 2.6653483,5.040875 2.826841,5.294649 C 3.4382057,5.3869303 3.700631,5.418652 3.614117,5.389814 C 3.527603,5.3609767 3.3920647,5.3523253 3.207502,5.36386 L 3.190199,5.294649 C 3.247875,5.271579 3.334389,5.25716 3.449741,5.251392 C 3.5650923,5.2456247 3.6775603,5.2513923 3.787145,5.268695 C 3.896729,5.2859977 3.9313343,5.352325 3.890961,5.467677 C 3.8505883,5.583029 3.5016493,5.5714937 2.844144,5.433071 L 1.771372,5.36386 z M 7.169837,14.914991 C 7.458217,14.84578 7.6254773,14.972667 7.671618,15.295652 C 7.7754347,15.145695 7.8907863,15.070717 8.017673,15.070717 C 8.109955,14.101762 7.867716,13.150109 7.290956,12.215759 C 7.4755193,13.069362 7.4351463,13.969106 7.169837,14.914991 z M 1.736766,5.225438 L 2.515391,5.17353 C 2.4461797,5.0927833 2.428877,4.9889667 2.463483,4.86208 C 1.9674697,5.000502 1.7252307,5.1216213 1.736766,5.225438 z M 4.159154,1.263103 L 3.951521,1.2458 C 3.7900283,1.8456293 3.6170007,2.3185717 3.432438,2.664627 C 3.2478753,3.010683 3.126756,3.5124637 3.06908,4.169969 C 3.5650927,4.0776877 4.066873,4.0080607 4.574421,4.181088 C 4.6205617,3.5235827 4.5773047,3.1144993 4.44465,2.733838 C 4.3119953,2.3531773 4.21683,1.8629323 4.159154,1.263103 z M 2.515391,4.446813 C 2.261617,4.1815037 2.1664517,3.9046593 2.229895,3.61628 C 2.2933383,3.3279007 2.437528,2.999148 2.662464,2.630022 C 2.8874007,2.260896 3.011404,1.89177 3.034474,1.522644 C 2.9075873,1.3957573 2.826841,1.2486837 2.792235,1.081423 C 2.7576297,0.914163 2.8153057,0.78150867 2.965263,0.68346 C 3.1152203,0.58541067 3.2651777,0.56810767 3.415135,0.631551 C 3.5650923,0.694995 3.6804443,0.84783633 3.761191,1.090075 C 3.784261,0.951653 3.755423,0.81323067 3.674677,0.674808 C 3.5939303,0.536386 3.6025817,0.383545 3.700631,0.216285 C 3.7986797,0.049024333 3.9515207,-0.023070667 4.159154,0 C 4.355252,0.011535333 4.4879067,0.10670067 4.557118,0.285496 C 4.6263293,0.46429133 4.6147943,0.61713233 4.522513,0.744019 C 4.430231,0.87090633 4.372555,0.99779333 4.349485,1.12468 C 4.464837,0.91704667 4.603259,0.79015967 4.764751,0.744019 C 4.9262437,0.69787833 5.0733173,0.73536767 5.205972,0.856487 C 5.3386267,0.977607 5.376116,1.118913 5.31844,1.280405 C 5.260764,1.4418977 5.1569473,1.5687847 5.00699,1.661066 C 4.98392,2.030192 5.056015,2.4166207 5.223275,2.820352 C 5.390535,3.2240833 5.4914677,3.5932093 5.526073,3.92773 C 5.560679,4.26225 5.4683977,4.516024 5.249229,4.689052 C 5.387651,5.058178 5.4078377,5.4763283 5.309789,5.943503 C 5.2117397,6.4106783 5.1742503,6.655801 5.197321,6.678871 C 5.3242077,6.032901 5.6760307,5.6262857 6.25279,5.459025 C 6.8295493,5.291765 7.3774707,5.3580923 7.896554,5.658007 C 8.3925673,6.0963443 9.159657,6.725012 10.197823,7.54401 C 11.23599,8.363008 12.233783,9.2281467 13.191203,10.139426 C 13.548794,10.427806 13.900617,10.84884 14.246672,11.402529 C 14.742685,12.313808 15.106043,13.138573 15.336747,13.876825 C 15.140649,14.072924 14.927248,14.170973 14.696545,14.170973 L 16.098068,17.233564 L 15.457867,17.475803 L 14.627334,17.043234 C 14.638869,17.285472 14.313,17.446964 13.649727,17.52771 C 12.986454,17.608457 12.559652,17.516175 12.369321,17.250866 C 12.17899,16.985557 11.622418,16.080045 10.699603,14.53433 L 10.509273,14.413211 C 10.61309,15.174534 10.549646,15.785898 10.318942,16.247305 C 9.8806053,15.647476 9.491293,15.376399 9.151005,15.434075 C 8.8107177,15.491751 8.580014,15.690733 8.458894,16.031021 C 8.3377747,16.371308 8.2253067,16.754853 8.12149,17.181656 C 8.6751793,17.493105 9.1827277,17.573852 9.644135,17.423895 C 10.105542,17.273936 10.445829,17.297006 10.664998,17.493105 C 10.884167,17.689203 10.918772,17.850696 10.768814,17.977583 C 10.445829,17.76995 10.15745,17.76995 9.903676,17.977583 L 5.31844,17.977583 C 4.1995273,17.977583 3.640071,17.914139 3.640071,17.787252 C 3.5362543,17.706507 3.42667,17.764182 3.311318,17.960279 L 3.311318,17.562317 C 3.311318,17.366218 3.4612757,17.265285 3.761191,17.259518 C 4.0611057,17.25375 4.2860417,17.294123 4.435999,17.380638 C 4.5859563,17.467151 4.871452,17.50464 5.292486,17.493105 C 5.71352,17.48157 6.0451567,17.181656 6.287396,16.593361 C 6.5296347,16.005066 6.621916,15.728222 6.56424,15.762828 L 6.287396,15.935856 C 6.8526193,14.551634 7.0342983,13.328904 6.832433,12.267667 C 6.630567,11.20643 6.1086,10.347059 5.266532,9.689554 C 4.4244633,9.0320487 3.937102,8.3831947 3.804448,7.742992 C 3.6717933,7.1027893 3.6573743,6.6442657 3.761191,6.367421 C 3.8650077,6.090577 3.71505,5.952155 3.311318,5.952155 C 2.9075867,5.952155 2.4000387,5.8541057 1.788674,5.658007 L 1.217683,5.848338 L 1.217683,5.225438 C 1.275359,4.9601287 1.7021607,4.7063547 2.498088,4.464116 L 2.515391,4.446813 z M 4.176457,1.107378 L 4.19376,0.917047 L 3.951521,0.899744 L 3.934218,1.107378 L 4.176457,1.107378 z M 4.211063,0.81323 C 4.4763717,0.50178067 4.4475337,0.30568267 4.124549,0.224936 C 3.7900283,0.25954133 3.73812,0.449872 3.968824,0.795928 L 4.211063,0.81323 z M 0.88893,6.730779 C 0.692832,6.5000757 0.57748033,6.439516 0.542875,6.5491 C 0.508269,6.6586847 0.490966,6.851899 0.490966,7.128743 C 0.67552933,7.693967 0.612086,8.0111847 0.300636,8.080396 C 0.17374867,7.319074 0.084351,6.8057583 0.032443,6.540449 C -0.019465667,6.2751397 -0.010814333,5.9781087 0.058397,5.649356 C 0.12760833,5.3206033 0.12184067,4.9370587 0.041094,4.498722 C 0.30640333,4.5448627 0.44194167,4.720774 0.447709,5.026456 C 0.453477,5.3321387 0.467896,5.623402 0.490966,5.900246 C 0.81395133,6.0386687 1.061958,6.246302 1.234986,6.523146 L 7.879251,16.749086 C 8.075349,16.691411 8.248377,16.777924 8.398335,17.008627 C 8.4560103,17.089374 8.513686,17.239331 8.571362,17.4585 C 8.6175033,17.608457 8.582898,17.718041 8.467546,17.787252 C 8.3406587,17.441197 8.2541447,17.222028 8.208004,17.129747 C 8.0811167,16.968254 7.9542297,16.933649 7.827343,17.02593 C 7.6773857,17.106676 7.6600827,17.233563 7.775434,17.406591 C 7.8215753,17.487337 7.983068,17.660365 8.259912,17.925674 C 8.14456,18.006421 8.0292083,17.989119 7.913857,17.873766 C 7.7292937,17.735345 7.6197093,17.619993 7.585104,17.52771 C 7.4351467,17.297007 7.4236113,17.10091 7.550498,16.939417 L 0.88893,6.730779 z M 3.432438,11.644768 L 4.574421,11.921612 L 4.487907,12.28497 L 3.345924,12.008125 L 2.809538,14.188275 L 2.221244,14.03255 L 2.774932,11.869703 L 1.650252,11.592859 L 1.736766,11.212198 L 2.878749,11.489042 C 2.4750177,9.8625813 2.7460947,9.164703 3.69198,9.395407 C 4.6494,9.6376457 4.562886,10.387433 3.432438,11.644768 z M 3.190199,11.437134 C 4.1130137,10.445109 4.251436,9.8683497 3.605466,9.706857 C 2.9710307,9.556899 2.8326083,10.133658 3.190199,11.437134 z M 8.346426,5.658007 C 8.381032,5.6118663 8.4329403,5.5830287 8.502151,5.571494 C 8.4560103,5.513818 8.4502427,5.4647933 8.484848,5.42442 C 8.519454,5.3840467 8.5598273,5.381163 8.605968,5.415769 C 8.6405733,5.323487 8.603084,5.2686947 8.4935,5.251392 C 8.3839153,5.2340893 8.3118203,5.3350223 8.277215,5.554191 L 8.346426,5.658007 z M 8.415637,5.779127 L 8.43294,5.761824 C 7.4293787,6.4308647 6.6219157,6.932645 6.010551,7.267165 C 5.3761163,7.6016857 4.8628007,7.8698787 4.470604,8.071744 C 4.078408,8.27361 3.7063983,8.2937967 3.354575,8.132304 C 3.0027523,7.9708113 2.826841,7.693967 2.826841,7.301771 C 2.826841,6.909575 3.1152207,6.557752 3.69198,6.246302 L 3.743888,6.799991 C 3.57086,6.8922723 3.4497407,7.0278103 3.38053,7.206605 C 3.3113187,7.385401 3.3574593,7.5324747 3.518952,7.647826 C 3.6804447,7.763178 3.9255673,7.7458753 4.25432,7.595918 C 4.5830727,7.4459607 5.0588987,7.215257 5.681798,6.903807 C 6.304698,6.592357 7.129464,6.1194147 8.156096,5.48498 C 8.09842,5.231206 8.1762823,5.0668293 8.389683,4.99185 C 8.6030843,4.916872 8.747274,4.9687803 8.822252,5.147575 C 8.8972307,5.326371 8.9058823,5.4619097 8.848207,5.554191 L 9.523015,4.689052 L 11.045659,6.350118 C 11.184081,6.2809073 11.359993,6.2693723 11.573394,6.315513 C 11.786795,6.3616537 11.962706,6.5058433 12.101128,6.748082 C 12.262621,7.036462 12.228015,7.3652147 11.997312,7.73434 C 11.893495,7.8612273 11.772375,7.9650443 11.633953,8.045791 C 11.495531,8.1380723 11.310968,8.1496073 11.080264,8.080396 C 10.861096,8.0111847 10.693836,7.87853 10.578484,7.682432 C 10.474667,7.4978693 10.422759,7.290236 10.422759,7.059532 L 8.605968,5.882944 L 8.709785,5.709916 C 8.6867143,5.7214513 8.6290383,5.7502893 8.536757,5.79643 L 8.415637,5.779127 z "
     id="path2279"
     sodipodi:nodetypes="cssscccccsccsssssccccssccscccsccscccsssccccscccssssssssccscscssscsssscsccssscccccccccccccsccsccsscssscssssssssscsscscscscccccccsscccsscssccccccssssccssssscccccccccccccccsccsscscccsscssscssccccccccccccsccsccssssccccssssccsssscsscccssssssccccc" />
</svg>
