<?xml version="1.0" encoding="UTF-8" standalone="no"?>
<svg
   width="1531.9153"
   height="1811.0476"
   version="1.1"
   id="svg2"
   sodipodi:docname="G184A.svg"
   inkscape:version="1.4 (e7c3feb1, 2024-10-09)"
   xmlns:inkscape="http://www.inkscape.org/namespaces/inkscape"
   xmlns:sodipodi="http://sodipodi.sourceforge.net/DTD/sodipodi-0.dtd"
   xmlns="http://www.w3.org/2000/svg"
   xmlns:svg="http://www.w3.org/2000/svg"
   xmlns:rdf="http://www.w3.org/1999/02/22-rdf-syntax-ns#"
   xmlns:cc="http://creativecommons.org/ns#"
   xmlns:dc="http://purl.org/dc/elements/1.1/">
  <title
     id="title2">G184A</title>
  <defs
     id="defs2" />
  <sodipodi:namedview
     id="namedview2"
     pagecolor="#ffffff"
     bordercolor="#000000"
     borderopacity="0.25"
     inkscape:showpageshadow="2"
     inkscape:pageopacity="0.0"
     inkscape:pagecheckerboard="0"
     inkscape:deskcolor="#d1d1d1"
     inkscape:zoom="0.25534412"
     inkscape:cx="763.67532"
     inkscape:cy="399.46094"
     inkscape:window-width="1440"
     inkscape:window-height="847"
     inkscape:window-x="0"
     inkscape:window-y="25"
     inkscape:window-maximized="0"
     inkscape:current-layer="svg2"
     showguides="true" />
  <path
     id="path1"
     style="fill:#000000;stroke:none;stroke-width:80.3018"
     d="m 358.21654,0.02870303 c -70.7497,-0.44563 -139.92,42.41772897 -170.57812,106.23632697 -32.20966,65.76105 -21.85783,151.17596 28.86133,204.87891 21.11847,22.93594 48.84188,37.8682 76.97656,50.51953 -7.36025,1.57565 -14.58005,3.27949 -21.54883,5.04297 -64.09349,18.27306 -129.78588,32.69318 -191.412104,58.34961 -49.108342,14.36821 -56.101728,63.8481 -44.917969,107.3789 13.611504,19.32174 57.571691,-28.16817 84.304683,-5.03906 49.65207,15.91933 101.56554,22.24467 153.31641,24.95898 46.08648,12.54845 12.22236,61.41378 13.3789,92.61524 -1.20853,43.84721 3.44565,90.6846 25.125,129.42383 38.80636,54.22798 117.37542,46.16647 162.42969,91.14453 53.85706,71.00202 90.53653,153.06933 134.44727,230.23433 13.80627,157.8697 -2.32167,317.0531 -29.22656,472.7266 -10.59335,57.824 -27.55343,124.4693 -80.08204,158.4199 -37.52868,14.0738 -79.81483,8.0767 -119.10156,5.3711 -43.06189,-6.6316 -88.88651,-10.6016 -91,-63.5703 l -60.01758,-171.1563 c 40.55534,-20.6798 106.12436,-29.6316 130.96094,-57.6816 -10.12652,-21.4307 -9.59027,-65.8942 -41.63086,-39.9902 -32.97932,8.7509 -84.16564,41.1636 -105.76953,35.1328 6.32853,-73.9676 15.93566,-154.046 -17.64063,-223.0606 -19.84505,-41.6295 -72.85522,-49.4987 -112.187492,-33.4199 -43.188873,11.993 -88.7752147,47.776 -82.28320278,97.3828 11.23740178,73.3877 67.23641978,128.928 116.09960478,180.7656 34.56066,25.5445 -42.619777,27.9728 -59.562496,42.9004 -30.481746,11.9043 -74.61874,17.5687 -45.197265,56.8477 8.404653,43.0557 60.902905,-9.5916 89.791011,-10.9961 31.23515,-16.7768 59.13973,-26.231 63.12695,17.498 28.51289,76.5773 58.2736,153.1487 88.33399,228.8203 -5.14818,39.7558 12.14878,8.6859 26.0039,-10.0156 29.42274,13.2803 75.0848,31.0634 115.82227,21.2578 38.36618,-3.9142 75.93827,-13.756 114.75,-10.7656 h 541.09959 c 27.2756,-25.276 71.8693,-19.4121 89.4023,10.9961 36.3291,-23.4094 8.3631,-71.4845 -28.2363,-72.7988 -56.773,-13.4307 -113.76102,19.245 -170.44137,1.0312 -22.53789,-11.311 -76.44011,-10.0569 -71.06641,-43.9101 2.17124,-42.1457 0.79795,-84.717 5.32227,-126.5801 17.34038,-82.0492 34.6811,-164.0992 52.02148,-246.1484 62.9306,85.3986 158.17783,136.3867 240.28903,200.4492 15.6595,64.5635 20.7153,132.8569 48.7695,193.6797 23.5969,49.3472 86.7769,48.9292 132.2403,36.8613 46.19,-7.5859 96.9583,-38.8398 98.0156,-90.6875 0.1741,-50.2385 -21.0219,-97.6253 -29.498,-146.7285 -39.3701,-161.6723 -63.7541,-327.3718 -116.7989,-485.4532 C 1277.6856,949.45827 1230.9122,886.30644 1174.0486,835.09901 1101.4193,766.4238 1022.579,704.76937 944.04272,643.07948 1000.1268,585.97074 1053.5579,525.89234 1111.3083,470.64589 c 48.9807,-27.53834 66.2087,38.61361 82.5117,70.73437 57.0356,118.86317 114.0741,237.72568 171.1075,356.58985 18.4857,23.53805 52.6593,55.24404 61.207,6.71484 -10.3938,-42.28082 34.2648,17.54588 49.9277,-18.06054 9.8417,-18.50353 -10.0611,-44.8303 19.416,-24.27344 57.1131,13.48032 36.95,-53.38569 8.0508,-74.6836 C 1386.4454,641.92755 1270.0449,495.63868 1152.2595,350.46425 l -1.5703,1.60742 C 1067.0493,437.64858 983.40783,523.22388 899.76733,608.80019 853.28832,574.5533 811.23497,531.66264 754.39819,515.00331 706.35505,497.75458 638.09634,486.58808 605.55444,537.06776 c -23.86437,32.18664 -24.05009,78.83529 -54.89258,105.6543 -26.63782,14.88355 -62.80257,25.19352 -91.67383,11.47461 -25.51246,-34.16252 1.11047,-78.20756 5.40039,-115.89258 8.50251,-52.03378 7.54407,-112.83435 -27.10742,-155.56445 -6.37824,-5.8365 -13.26311,-10.50136 -20.46485,-14.35352 l -0.20312,-6.84179 c 33.12913,-10.35459 67.25824,-24.32497 90.10351,-51.63282 31.29584,-35.04355 49.6456,-81.9853 47.26368,-129.20117 C 552.15448,113.72207 509.17434,51.624011 450.16576,21.413469 422.0373,6.3799386 390.01734,-0.50440697 358.21654,0.02870303 Z m 2.5254,46.24023397 c 45.19843,0.02523 89.31491,22.309282 118.21093,56.681643 23.17126,27.37278 33.75488,64.20646 30.23438,99.74804 -2.91819,41.26426 -27.54444,79.41615 -62.62305,100.87891 -43.16804,27.99152 -100.28506,33.74068 -147.58594,12.9707 -37.04911,-15.77931 -69.11204,-46.09769 -81.0625,-85.23632 -13.25052,-42.46799 -5.43207,-91.5324 22.91016,-126.25782 C 269.63234,69.455966 314.44,45.590004 360.74194,46.268937 Z M 313.67358,388.9037 c 17.81363,19.23757 64.37663,7.26078 72.52929,46.4043 27.23486,-31.5304 33.50371,37.53547 31.96485,62.29297 -4.29648,60.1919 -42.62103,120.00023 -18.97461,180.65039 17.50581,42.63246 72.2029,37.55047 110.19922,40.19336 41.66487,1.25498 90.32869,-11.63647 105.87109,-55.47461 17.93161,-32.71661 15.65615,-79.89329 50.35547,-101.10352 46.11346,-9.57724 94.58508,12.6561 129.74219,41.71485 120.61242,95.9107 246.84282,185.54999 358.89842,291.67968 58.2606,58.22153 85.4429,139.06018 110.832,215.51758 49.247,170.4194 76.2876,346.3835 125.5,516.8672 -1.4815,52.2873 -67.2435,75.1086 -109.6269,56.7226 -36.9507,-30.1189 -33.073,-85.7334 -47.877,-127.791 -14.528,-34.0271 -4.0362,-86.0369 -41.9863,-103.4004 C 1100.1027,1397.676 1002.5287,1339.6057 951.19897,1242.1634 824.55726,1176.311 692.76669,1102.0545 614.9353,977.81191 578.60515,918.61732 554.74534,847.49757 498.22436,803.70448 456.56369,776.74777 398.69608,779.23174 363.8728,741.45253 338.50135,687.35144 342.92061,623.26638 355.96654,566.32167 c 6.24985,-37.11748 51.59767,-68.82372 34.11915,-108.4043 -24.12485,16.32603 -46.25794,52.37815 -85.22266,48.90821 21.32479,-7.59367 11.4668,-44.55993 -18.73828,-36.55469 -33.90317,-8.81453 -78.66253,32.31169 -91.19727,-17.68164 -9.22548,-22.67593 15.46294,-43.96332 13.88282,-10.38086 14.31209,31.64134 52.80886,-15.98505 23.4707,-27.67383 27.10622,-8.28592 52.88197,-22.93616 81.39258,-25.63086 z m -11.73828,12.75 c -50.27756,2.11367 -51.00268,64.69697 1.30273,62.99024 49.80168,1.86713 48.02017,-65.14646 -1.30273,-62.99024 z m -142.34376,42.35547 c 12.71422,32.59321 -43.42856,14.37088 -63.689445,23.24805 17.861355,-13.8895 42.906145,-18.5873 63.689445,-23.24805 z m -26.09765,48.24024 c 52.85202,-0.12379 104.16662,13.62963 156.73828,15.47265 0.26152,0.044 0.46921,0.0219 0.72656,0.0606 -52.85553,3.66763 -106.05762,-3.33534 -157.46484,-15.5332 z m 1088.06441,10.83007 c 79.4317,98.94984 158.8633,197.89972 238.2949,296.84961 -26.5694,6.49145 -67.9452,62.20588 -82.5488,28.91602 -51.9155,-108.5886 -103.8305,-217.17703 -155.7461,-325.76563 z M 119.531,1223.2923 c 51.76618,4.347 51.65725,71.7116 52.8418,111.0235 -2.55133,29.4387 1.16849,87.3351 -12.29883,99.3887 -42.22625,-42.9199 -90.714739,-86.716 -106.814453,-146.8125 -9.456213,-39.3324 33.057304,-62.3292 66.271483,-63.5997 z m 622.53125,78.1465 c 37.96761,68.7641 52.47716,147.826 66.07226,224.3946 8.10293,59.3124 -4.88258,118.9699 -6.64843,178.3984 -63.96118,8.0985 -128.01814,18.0953 -191.92188,24.9961 -9.01298,-45.8662 23.23421,-89.2767 35.58789,-132.4883 35.42001,-97.1442 67.73452,-197.2773 96.91016,-295.3008 z" />
  <metadata
     id="metadata2">
    <rdf:RDF>
      <cc:Work
         rdf:about="">
        <dc:title>G184A</dc:title>
        <dc:creator>
          <cc:Agent>
            <dc:title>S.J.P. Thomas</dc:title>
          </cc:Agent>
        </dc:creator>
        <dc:description>Modified to match Hieroglyphica (S. Rosmorduc)</dc:description>
      </cc:Work>
    </rdf:RDF>
  </metadata>
</svg>
