<?xml version="1.0" encoding="UTF-8" standalone="no"?>
<svg
   xmlns:dc="http://purl.org/dc/elements/1.1/"
   xmlns:cc="http://web.resource.org/cc/"
   xmlns:rdf="http://www.w3.org/1999/02/22-rdf-syntax-ns#"
   xmlns:svg="http://www.w3.org/2000/svg"
   xmlns="http://www.w3.org/2000/svg"
   xmlns:sodipodi="http://sodipodi.sourceforge.net/DTD/sodipodi-0.dtd"
   xmlns:inkscape="http://www.inkscape.org/namespaces/inkscape"
   width="30.03125"
   height="17.98023"
   id="svg2241"
   sodipodi:version="0.32"
   inkscape:version="0.45"
   sodipodi:docname="G188.svg"
   inkscape:output_extension="org.inkscape.output.svg.inkscape"
   sodipodi:docbase="C:\Program Files\JSesh\fontsGroupeG"
   sodipodi:modified="true"
   version="1.0">
  <metadata
     id="metadata2248">
    <rdf:RDF>
      <cc:Work
         rdf:about="">
        <dc:format>image/svg+xml</dc:format>
        <dc:type
           rdf:resource="http://purl.org/dc/dcmitype/StillImage" />
      </cc:Work>
    </rdf:RDF>
  </metadata>
  <defs
     id="defs2246" />
  <sodipodi:namedview
     inkscape:window-height="708"
     inkscape:window-width="1024"
     inkscape:pageshadow="2"
     inkscape:pageopacity="0.0"
     guidetolerance="10.0"
     gridtolerance="10.0"
     objecttolerance="10.0"
     borderopacity="1.0"
     bordercolor="#666666"
     pagecolor="#ffffff"
     id="base"
     showguides="true"
     inkscape:guide-bbox="true"
     inkscape:zoom="28.698343"
     inkscape:cx="15.015625"
     inkscape:cy="8.9901643"
     inkscape:window-x="-4"
     inkscape:window-y="-4"
     inkscape:current-layer="svg2241" />
  <path
     style="fill:#000000;stroke:none"
     d="M 3.6875,0.011381759 C 3.6101402,0.028572759 3.5625,0.12385309 3.5625,0.26138176 C 3.6427247,1.2011619 3.6734407,1.8711832 3.65625,2.3238818 C 3.6390587,2.7765804 3.5916861,3.1457065 3.5,3.3863818 C 3.2822467,3.4551457 3.061504,3.5217745 2.84375,3.6363818 C 2.625996,3.750989 2.4417001,3.9102992 2.28125,4.1051318 L 0,5.0738818 C 0.091686,5.52085 0.26765334,5.7749065 0.53125,5.8551318 C 1.104286,6.015582 1.6629045,6.0827436 2.21875,6.0426318 C 2.7745953,6.0025187 3.1655747,5.9769989 3.40625,6.0113818 C 3.1770353,6.481272 3.2249428,6.8863105 3.5,7.2301318 C 3.4197753,7.390582 3.3750001,7.6644272 3.375,8.0426318 C 3.375,8.4208348 3.7019491,8.9601984 4.34375,9.6363818 C 4.9970113,11.871224 5.2927106,13.511167 5.28125,14.542632 C 5.28125,14.6687 5.3905894,14.727 5.5625,14.761382 L 4.875,17.105132 C 4.7489327,17.082212 4.5505773,17.098868 4.28125,17.167632 C 4.0119227,17.236398 3.7099593,17.242127 3.40625,17.167632 C 3.1025407,17.093138 2.7313499,17.107197 2.25,17.198882 C 1.8947173,17.279109 1.690632,17.533164 1.65625,17.980132 C 2.0000713,17.785301 2.2093534,17.757716 2.3125,17.855132 C 2.4156467,17.952549 2.6395212,17.980132 2.9375,17.980132 L 21.875,17.980132 C 22.127136,17.980132 22.319761,17.932758 22.46875,17.823882 C 22.61774,17.715004 22.846812,17.762376 23.15625,17.980132 C 23.167711,17.544625 22.93864,17.282239 22.46875,17.167632 C 21.998861,17.328081 21.621941,17.356201 21.3125,17.230132 L 21.1875,15.105132 C 21.737616,15.861541 22.207218,16.082282 22.5625,15.761382 C 22.459354,14.890366 22.406249,14.096947 22.40625,13.386382 L 23,13.761382 C 23.343822,13.921833 24.098196,14.667879 25.25,15.980132 C 26.401804,17.292385 27.046839,17.912436 27.21875,17.855132 L 29.25,17.417632 C 29.479216,17.348869 29.51253,17.242661 29.375,17.105132 L 27.78125,15.323882 C 28.789794,15.965683 29.538439,16.367588 30.03125,16.573882 C 29.779114,16.298825 29.385536,15.955218 28.8125,15.542632 L 29.21875,15.730132 C 29.390661,15.69575 29.460422,15.564557 29.4375,15.323882 C 26.973444,13.547469 25.414722,11.988214 24.75,10.698882 C 24.085278,9.4095511 23.166396,8.2449405 21.96875,7.1676318 C 20.771104,6.0903231 19.820972,4.9418366 19.15625,3.7613818 C 19.259396,3.5321671 19.340617,3.2614539 19.375,2.9176318 C 19.420844,2.4592031 19.395859,1.9588844 19.28125,1.4488818 C 19.166643,0.93887976 18.995873,0.53124311 18.8125,0.19888176 C 18.480139,-0.076175568 18.34375,-0.03972957 18.34375,0.29263176 C 18.423976,0.79690376 18.437499,1.2940905 18.4375,1.7926318 C 18.4375,2.2911738 18.342754,2.6040639 18.125,2.7301318 C 18.125,1.9737238 18.021392,1.3671985 17.84375,0.94888176 C 17.666109,0.53056506 17.51253,0.26244976 17.375,0.13638176 C 17.065561,-0.069911568 16.906251,-0.013675571 16.90625,0.26138176 C 16.986475,1.2011618 17.017191,1.871183 17,2.3238818 C 16.982809,2.7765805 16.935435,3.1457064 16.84375,3.3863818 C 16.625997,3.4551458 16.405253,3.5530246 16.1875,3.6676318 C 15.969746,3.7822391 15.78545,3.910299 15.625,4.1051318 L 13.4375,5.0426318 C 13.12178,4.6245607 12.837487,4.1942259 12.59375,3.7613818 C 12.696896,3.532167 12.746868,3.2614538 12.78125,2.9176318 C 12.827094,2.459203 12.802108,1.9588845 12.6875,1.4488818 C 12.572893,0.93887977 12.433372,0.53124311 12.25,0.19888176 C 11.917639,-0.076175574 11.75,-0.070979574 11.75,0.26138176 C 11.830226,0.76565377 11.875,1.2940906 11.875,1.7926318 C 11.875,2.2911739 11.749004,2.6040638 11.53125,2.7301318 C 11.53125,1.9737237 11.458892,1.3671985 11.28125,0.94888176 C 11.103609,0.53056511 10.918779,0.26244976 10.78125,0.13638176 C 10.471811,-0.069911574 10.34375,-0.044925575 10.34375,0.23013176 C 10.423975,1.1699118 10.454691,1.8711832 10.4375,2.3238818 C 10.420309,2.7765804 10.341686,3.1144566 10.25,3.3551318 C 10.032247,3.4238957 9.811504,3.5217745 9.59375,3.6363818 C 9.375996,3.750989 9.1916995,3.9102989 9.03125,4.1051318 L 6.7028483,5.0948996 C 6.7001569,5.0976717 5.958968,3.9962248 5.8125,3.7613818 C 5.915646,3.532167 5.996868,3.2614538 6.03125,2.9176318 C 6.0770933,2.459203 6.0208574,1.9588845 5.90625,1.4488818 C 5.7916427,0.93887977 5.6521215,0.53124309 5.46875,0.19888176 C 5.1363887,-0.076175577 4.96875,-0.039729577 4.96875,0.29263176 C 5.0489753,0.79690377 5.09375,1.2940905 5.09375,1.7926318 C 5.09375,2.2911739 4.9677541,2.6040638 4.75,2.7301318 C 4.75,1.9737237 4.6776413,1.3671985 4.5,0.94888176 C 4.3223587,0.5305651 4.1687786,0.26244976 4.03125,0.13638176 C 3.8765303,0.033235089 3.7648598,-0.0058092412 3.6875,0.011381759 z M 3.96875,0.69888176 C 4.255268,1.1573112 4.3947894,2.0652665 4.40625,3.4176318 C 4.910522,3.1769564 5.226544,2.8723944 5.3125,2.5113818 C 5.3984547,2.150369 5.4208429,1.5667651 5.375,0.73013176 C 5.661518,1.5323826 5.7422053,2.2221931 5.65625,2.8238818 C 5.5702947,3.4255697 5.4614893,3.7582499 5.3125,3.7926318 C 6.034526,5.0991544 6.9872563,6.2778232 8.15625,7.3551318 C 9.325244,8.4324407 10.180096,9.530422 10.71875,10.636382 C 10.959213,11.130099 11.303674,11.660938 11.75,12.198882 C 11.841136,12.627471 11.919332,13.002067 11.96875,13.355132 C 10.654059,12.73254 9.1363991,12.02661 8.6875,11.823882 C 7.9769353,11.502981 6.8315802,10.770994 5.25,9.6363818 C 4.4133667,8.9601982 4,8.4208352 4,8.0426318 C 4,7.6529662 4.3238175,7.4270277 5,7.3238818 C 5.6761827,7.2207353 6.1957559,7.1759603 6.5625,7.1988818 C 5.8977773,6.9238247 5.2886541,6.8176172 4.75,6.8863818 C 4.211346,6.955146 3.9156466,6.9468176 3.8125,6.8551318 C 3.7093533,6.7634467 3.71455,6.4896003 3.875,6.0426318 C 4.3334293,5.8134173 4.680168,5.4781392 4.875,5.0426318 L 4.75,5.0113818 C 4.3947173,5.5041927 3.9980073,5.7332637 3.5625,5.6988818 C 3.126992,5.6645 2.6803106,5.6785584 2.1875,5.7301318 C 1.6946887,5.7817053 1.4489606,5.759318 1.4375,5.6676318 C 1.7698607,5.6217893 2.0155886,5.6134605 2.1875,5.6363818 L 2.3125,5.4801318 C 2.060364,5.3999073 1.537658,5.436353 0.78125,5.5738818 C 0.655182,5.516578 0.54064668,5.4135029 0.4375,5.2301318 L 2.53125,4.5113818 C 2.5770933,4.4426173 2.6525839,4.3645285 2.75,4.2613818 C 2.8115743,4.1961859 2.9132422,4.1672373 3,4.1363818 C 3.0505008,4.1184213 3.0972162,4.0802069 3.15625,4.0738818 C 3.3167,4.0566907 3.5009961,4.1040638 3.71875,4.2301318 L 4.0625,4.2301318 L 4.09375,4.1051318 L 3.8125,4.0738818 C 3.5718247,3.9707353 3.3817987,3.9431511 3.25,3.9488818 C 3.118202,3.9546117 3.0229214,3.9572104 3,3.9801318 C 3.0458427,3.9572104 3.1520501,3.9124351 3.3125,3.8551318 C 3.4729507,3.7978277 3.7051535,3.7114104 3.96875,3.5738818 C 4.0489747,2.897699 4.0375139,1.9251798 3.96875,0.69888176 z M 3,4.1363818 C 2.929803,4.1578708 2.8640729,4.2098088 2.8125,4.2613818 L 2.65625,4.4176318 L 2.71875,4.5426318 C 2.7989753,4.542632 2.8853927,4.5394998 3,4.5738818 C 3.1146073,4.6082647 3.3186927,4.5832786 3.59375,4.4801318 L 4.03125,4.5426318 L 4.03125,4.3238818 L 3.625,4.3238818 C 3.5447747,4.197814 3.3963906,4.1535732 3.21875,4.1363818 C 3.129929,4.1277867 3.070197,4.114893 3,4.1363818 z M 10.75,0.69888176 C 11.036518,1.1573112 11.17604,2.0652665 11.1875,3.4176318 C 11.691772,3.1769564 11.976544,2.8723944 12.0625,2.5113818 C 12.148455,2.150369 12.170843,1.5667651 12.125,0.73013176 C 12.411518,1.5323826 12.523456,2.2221931 12.4375,2.8238818 C 12.351545,3.4255697 12.24274,3.7582499 12.09375,3.7926318 C 12.815776,5.0991544 13.737256,6.2778229 14.90625,7.3551318 C 16.075244,8.4324407 16.930096,9.5304227 17.46875,10.636382 C 17.662361,11.033902 17.949606,11.460013 18.28125,11.886382 C 18.399179,12.408428 18.470481,12.874065 18.53125,13.292632 C 17.319849,12.724471 15.859979,12.014678 15.4375,11.823882 C 14.726936,11.502981 13.58158,10.770994 12,9.6363818 C 11.163367,8.9601982 10.75,8.4208349 10.75,8.0426318 C 10.75,7.6529662 11.105068,7.3957779 11.78125,7.2926318 C 12.457433,7.1894853 12.977006,7.1759606 13.34375,7.1988818 C 12.679028,6.9238247 12.069904,6.8176169 11.53125,6.8863818 C 10.992596,6.955146 10.665647,6.9468179 10.5625,6.8551318 C 10.459354,6.7634467 10.4958,6.4896006 10.65625,6.0426318 C 11.11468,5.8134173 11.430168,5.4781389 11.625,5.0426318 L 11.53125,5.0113818 C 11.175968,5.5041927 10.779258,5.7332639 10.34375,5.6988818 C 9.9082423,5.6645 9.4615609,5.6785587 8.96875,5.7301318 C 8.4759387,5.7817053 8.1989606,5.7593178 8.1875,5.6676318 C 8.5198607,5.6217893 8.7968389,5.6134603 8.96875,5.6363818 L 9.0625,5.4801318 C 8.810364,5.3999073 8.3189081,5.4363532 7.5625,5.5738818 C 7.436432,5.516578 7.3218968,5.3822531 7.21875,5.1988818 L 9.3125,4.5113818 C 9.335069,4.4775286 9.4024314,4.4285682 9.4375,4.3863818 C 9.4736644,4.3428772 9.4817927,4.2824985 9.53125,4.2301318 C 9.5384129,4.2225477 9.5549963,4.2372513 9.5625,4.2301318 L 9.4375,4.3863818 L 9.5,4.5113818 C 9.5802253,4.511382 9.6666424,4.5394996 9.78125,4.5738818 C 9.8958573,4.6082647 10.099943,4.5832783 10.375,4.4801318 L 10.8125,4.5426318 L 10.8125,4.3238818 L 10.375,4.3238818 C 10.294775,4.197814 10.177641,4.1223229 10,4.1051318 C 9.911179,4.0965366 9.820197,4.1148929 9.75,4.1363818 C 9.8005008,4.1184213 9.8472164,4.0802069 9.90625,4.0738818 C 10.0667,4.0566907 10.282246,4.1040636 10.5,4.2301318 L 10.84375,4.2301318 L 10.875,4.1051318 L 10.5625,4.0738818 C 10.321825,3.9707353 10.131799,3.9119011 10,3.9176318 C 9.8682023,3.9233617 9.804171,3.9572104 9.78125,3.9801318 C 9.8270927,3.9572104 9.9333,3.912435 10.09375,3.8551318 C 10.254201,3.7978277 10.455154,3.6801604 10.71875,3.5426318 C 10.798975,2.866449 10.818764,1.9251798 10.75,0.69888176 z M 17.34375,0.69888176 C 17.630268,1.1573111 17.76979,2.0652666 17.78125,3.4176318 C 18.285522,3.1769565 18.570295,2.9036445 18.65625,2.5426318 C 18.742205,2.1816191 18.764592,1.5667651 18.71875,0.73013176 C 19.005268,1.5323825 19.117205,2.2221932 19.03125,2.8238818 C 18.945295,3.4255698 18.836489,3.7582497 18.6875,3.7926318 C 19.409526,5.0991545 20.331006,6.277823 21.5,7.3551318 C 22.668994,8.4324405 23.523846,9.530423 24.0625,10.636382 C 24.601154,11.742343 25.668419,12.974649 27.25,14.292632 C 24.487966,12.974649 22.741817,12.144782 22.03125,11.823882 C 21.320686,11.502981 20.175331,10.770993 18.59375,9.6363818 C 17.757117,8.9601985 17.34375,8.420835 17.34375,8.0426318 C 17.34375,7.6529665 17.698818,7.427028 18.375,7.3238818 C 19.051183,7.2207351 19.570756,7.1759606 19.9375,7.1988818 C 19.272778,6.9238245 18.663654,6.817617 18.125,6.8863818 C 17.586346,6.9551458 17.259398,6.9468179 17.15625,6.8551318 C 17.053104,6.7634465 17.089551,6.4896007 17.25,6.0426318 C 17.70843,5.8134171 18.023918,5.478139 18.21875,5.0426318 L 18.125,5.0113818 C 17.769718,5.5041925 17.373009,5.733264 16.9375,5.6988818 C 16.501992,5.6644998 16.024061,5.6785583 15.53125,5.7301318 C 15.038439,5.7817051 14.792711,5.7593178 14.78125,5.6676318 C 15.113611,5.6217891 15.359339,5.6134604 15.53125,5.6363818 L 15.65625,5.4801318 C 15.404114,5.3999071 14.912658,5.4363533 14.15625,5.5738818 C 14.030182,5.5165778 13.915647,5.4135032 13.8125,5.2301318 L 15.90625,4.5113818 C 15.952093,4.4426171 16.027584,4.3645284 16.125,4.2613818 C 16.13094,4.2550924 16.150076,4.2673516 16.15625,4.2613818 C 16.214079,4.2054684 16.265362,4.1642607 16.34375,4.1363818 C 16.394251,4.1184211 16.440966,4.080207 16.5,4.0738818 C 16.66045,4.0566905 16.844746,4.1040636 17.0625,4.2301318 L 17.4375,4.2301318 L 17.4375,4.1051318 L 17.15625,4.0738818 C 16.915575,3.9707351 16.725549,3.9431512 16.59375,3.9488818 C 16.461952,3.9546118 16.39792,3.9572105 16.375,3.9801318 C 16.420843,3.9572105 16.52705,3.9124351 16.6875,3.8551318 C 16.847951,3.7978278 17.048904,3.7114105 17.3125,3.5738818 C 17.392725,2.8976991 17.412514,1.9251798 17.34375,0.69888176 z M 16.34375,4.1363818 C 16.273553,4.1578706 16.207823,4.2098088 16.15625,4.2613818 L 16.03125,4.4176318 L 16.0625,4.5426318 C 16.142725,4.5426318 16.260392,4.5394996 16.375,4.5738818 C 16.489607,4.6082645 16.693694,4.5832784 16.96875,4.4801318 L 17.40625,4.5426318 L 17.40625,4.3551318 L 16.96875,4.3551318 C 16.888525,4.2290638 16.771392,4.153573 16.59375,4.1363818 C 16.504929,4.1277864 16.413947,4.114893 16.34375,4.1363818 z M 10.03125,4.1988818 L 10.34375,4.3863818 L 10.03125,4.4488818 C 10.088554,4.3686567 10.100015,4.2791067 10.03125,4.1988818 z M 3.25,4.2301318 L 3.5625,4.3863818 L 3.28125,4.4488818 C 3.338554,4.3686567 3.3187647,4.3103565 3.25,4.2301318 z M 9.8125,4.2301318 C 9.743736,4.2988967 9.7437359,4.3999063 9.8125,4.4801318 L 9.59375,4.4488818 L 9.8125,4.2301318 z M 16.625,4.2301318 L 16.90625,4.3863818 L 16.625,4.4488818 C 16.682304,4.3686565 16.693764,4.3103563 16.625,4.2301318 z M 16.40625,4.2613818 C 16.337486,4.3301465 16.337485,4.3999064 16.40625,4.4801318 L 16.1875,4.4488818 L 16.40625,4.2613818 z M 2.96875,4.3551318 C 2.96875,4.3911958 2.9968679,4.4400192 3.03125,4.4801318 L 2.84375,4.4488818 L 2.96875,4.3551318 z M 7.3125,5.8551318 C 7.885536,6.015582 8.4441545,6.0514939 9,6.0113818 C 9.5558453,5.9712687 9.9468252,5.9769991 10.1875,6.0113818 C 9.9582856,6.481272 9.9749434,6.8863103 10.25,7.2301318 C 10.169776,7.390582 10.15625,7.6644269 10.15625,8.0426318 C 10.15625,8.4208348 10.45195,8.9601982 11.09375,9.6363818 C 11.198306,9.9940723 11.287472,10.309518 11.375,10.636382 C 10.711928,9.3714923 9.7723157,8.2277777 8.59375,7.1676318 C 8.1177797,6.7394864 7.7029043,6.2995572 7.3125,5.8551318 z M 14.15625,5.9176318 C 14.641217,6.0284826 15.121208,6.0767325 15.59375,6.0426318 C 16.149595,6.0025185 16.540576,5.9769992 16.78125,6.0113818 C 16.552035,6.4812718 16.568692,6.9175604 16.84375,7.2613818 C 16.763526,7.4218318 16.718751,7.664427 16.71875,8.0426318 C 16.71875,8.4208351 17.0457,8.9601982 17.6875,9.6363818 C 17.736325,9.8034146 17.767388,9.9448212 17.8125,10.105132 C 17.184176,9.0452864 16.383111,8.0431995 15.375,7.1363818 C 14.925479,6.7320277 14.526697,6.3345105 14.15625,5.9176318 z M 5.03125,10.448882 L 5.09375,10.448882 C 5.3688073,11.732483 6.0393635,13.171473 7.09375,14.730132 C 6.7613893,14.993728 6.3313653,14.809432 5.78125,14.167632 C 5.78125,13.468527 5.5240605,12.213833 5.03125,10.448882 z M 11.8125,10.448882 L 11.875,10.448882 C 12.150058,11.732483 12.820614,13.171473 13.875,14.730132 C 13.54264,14.993728 13.112616,14.778182 12.5625,14.136382 C 12.5625,13.437277 12.305311,12.213833 11.8125,10.448882 z M 18.40625,10.448882 L 18.46875,10.448882 C 18.743808,11.732483 19.414364,13.171473 20.46875,14.730132 C 20.13639,14.993728 19.675115,14.809432 19.125,14.167632 C 19.125,13.468527 18.899062,12.213833 18.40625,10.448882 z M 5.8125,11.136382 C 6.6605933,11.789643 7.5935344,12.426884 8.625,13.011382 L 8.625,15.042632 C 8.2582567,14.756114 7.9177828,14.568686 7.5625,14.511382 C 6.553956,12.872498 5.9614895,11.743801 5.8125,11.136382 z M 12.59375,11.136382 C 13.441844,11.789643 14.374784,12.426885 15.40625,13.011382 L 15.40625,15.011382 C 15.039507,14.724864 14.667783,14.568686 14.3125,14.511382 C 13.303956,12.872498 12.74274,11.743801 12.59375,11.136382 z M 19.15625,11.136382 C 20.004344,11.789643 20.968534,12.426885 22,13.011382 L 22,15.042632 C 21.633257,14.756114 21.261534,14.568686 20.90625,14.511382 C 19.897706,12.872498 19.30524,11.743801 19.15625,11.136382 z M 13.46875,11.261382 C 16.87173,12.97678 17.972382,13.549462 18.59375,13.855132 C 18.615555,14.094464 18.658427,14.346715 18.65625,14.542632 C 18.65625,14.6687 18.734339,14.727 18.90625,14.761382 L 18.71875,15.355132 L 17.4375,13.917632 C 16.818621,13.424821 15.497299,12.533523 13.46875,11.261382 z M 6.6875,11.292632 C 10.209068,13.067809 11.466758,13.677303 12.03125,13.948882 C 12.046541,14.145478 12.06434,14.345798 12.0625,14.511382 C 12.0625,14.63745 12.14059,14.727 12.3125,14.761382 L 12.09375,15.511382 L 10.65625,13.917632 C 10.037371,13.424821 8.7160486,12.564773 6.6875,11.292632 z M 20.0625,11.292632 C 24.268588,13.412866 26.371868,14.480132 26.40625,14.480132 C 27.231422,15.419912 28.024842,16.27163 28.78125,17.073882 L 28.78125,17.105132 L 27.15625,17.386382 L 24.03125,13.948882 C 23.412371,13.456071 22.091049,12.564773 20.0625,11.292632 z M 9.03125,13.386382 L 9.65625,13.761382 C 10.000071,13.921833 10.723197,14.667879 11.875,15.980132 C 11.900583,16.009279 11.91837,16.024916 11.9375,16.042632 L 11.625,17.105132 C 11.498933,17.082212 11.300578,17.098869 11.03125,17.167632 C 10.761923,17.236398 10.49121,17.242128 10.1875,17.167632 C 9.9202361,17.102077 9.5610793,17.104498 9.15625,17.167632 C 9.1455159,17.169307 9.1358308,17.165868 9.125,17.167632 C 9.079759,17.183081 9.0440637,17.185907 9,17.198882 C 8.586402,17.320673 8.217147,17.344062 7.9375,17.230132 L 7.84375,15.105132 C 8.3938653,15.861541 8.8322178,16.082282 9.1875,15.761382 C 9.084354,14.890366 9.0312502,14.096947 9.03125,13.386382 z M 15.8125,13.386382 L 16.40625,13.761382 C 16.740976,13.917588 17.492899,14.608342 18.59375,15.855132 L 18.21875,17.105132 C 18.092683,17.082211 17.894328,17.09887 17.625,17.167632 C 17.355673,17.236397 17.084959,17.242126 16.78125,17.167632 C 16.477541,17.093137 16.0751,17.107198 15.59375,17.198882 C 15.528047,17.213718 15.460978,17.234003 15.40625,17.261382 C 15.146249,17.292157 14.917844,17.279994 14.71875,17.198882 L 14.625,15.105132 C 15.175116,15.861541 15.613468,16.082282 15.96875,15.761382 C 15.865604,14.890366 15.8125,14.096947 15.8125,13.386382 z M 6.0625,15.292632 C 6.4292433,15.751061 6.8061638,15.767718 7.21875,15.355132 L 7.34375,17.230132 C 6.9884673,17.16137 6.6698464,17.186354 6.40625,17.323882 C 6.0738887,17.220736 5.7552682,17.19575 5.46875,17.230132 L 6.0625,15.292632 z M 12.8125,15.292632 C 13.179244,15.751061 13.587414,15.767719 14,15.355132 L 14.125,17.198882 C 13.769718,17.13012 13.451097,17.186354 13.1875,17.323882 C 12.855139,17.220736 12.536518,17.164501 12.25,17.198882 L 12.8125,15.292632 z M 19.40625,15.292632 C 19.772994,15.751061 20.181163,15.767719 20.59375,15.355132 L 20.6875,17.230132 C 20.332218,17.161369 20.044847,17.186352 19.78125,17.323882 C 19.448889,17.220735 19.130269,17.195752 18.84375,17.230132 L 19.40625,15.292632 z "
     id="path2243"
     sodipodi:nodetypes="ccscsccssccscsccssscsccscccccccsccccccccsscssccscsccscscccssccscsccscscccssccscsscccscscssccscsscsscccssccccccsssccccsssccccccsccccscccscscssccscsscsscccssccccccsscccsccccsssccccsssccccscscsscscsscsscccssccccccssssccccsssccccccsccccsccccccccccccccccccccccccccsccsccsccsccsccscccccccccccccccccccccccccccccccccsccccccscccccccccccccsccsssssccccccccsssscccccccccccccccccccccc"
     sodipodi:insensitive="true" />
</svg>
