<?xml version="1.0" encoding="UTF-8" standalone="no"?>
<!-- Created with Inkscape (http://www.inkscape.org/) -->
<svg
   xmlns:dc="http://purl.org/dc/elements/1.1/"
   xmlns:cc="http://web.resource.org/cc/"
   xmlns:rdf="http://www.w3.org/1999/02/22-rdf-syntax-ns#"
   xmlns:svg="http://www.w3.org/2000/svg"
   xmlns="http://www.w3.org/2000/svg"
   xmlns:sodipodi="http://sodipodi.sourceforge.net/DTD/sodipodi-0.dtd"
   xmlns:inkscape="http://www.inkscape.org/namespaces/inkscape"
   width="1800.0000px"
   height="1800.0000px"
   id="svg1290"
   sodipodi:version="0.32"
   inkscape:version="0.45.1"
   sodipodi:docbase="/home/rosmord/Desktop/tmp"
   sodipodi:docname="G19.svg"
   inkscape:output_extension="org.inkscape.output.svg.inkscape">
  <defs
     id="defs3" />
  <sodipodi:namedview
     id="base"
     pagecolor="#ffffff"
     bordercolor="#666666"
     borderopacity="1.0"
     inkscape:pageopacity="0.0"
     inkscape:pageshadow="2"
     inkscape:zoom="0.19915251"
     inkscape:cx="855.74403"
     inkscape:cy="947.12057"
     inkscape:document-units="px"
     inkscape:current-layer="svg1290"
     inkscape:window-width="753"
     inkscape:window-height="572"
     inkscape:window-x="313"
     inkscape:window-y="107" />
  <metadata
     id="metadata4">
    <rdf:RDF>
      <cc:Work
         rdf:about="">
        <dc:format>image/svg+xml</dc:format>
        <dc:type
           rdf:resource="http://purl.org/dc/dcmitype/StillImage" />
        <cc:license
           rdf:resource="http://creativecommons.org/licenses/by/2.0/" />
        <dc:subject>
          <rdf:Bag>
            <rdf:li>JSesh hieroglyph</rdf:li>
          </rdf:Bag>
        </dc:subject>
        <dc:creator>
          <cc:Agent>
            <dc:title>S. Rosmorduc</dc:title>
          </cc:Agent>
        </dc:creator>
        <dc:description>G17 sign from Abydos</dc:description>
      </cc:Work>
      <cc:License
         rdf:about="http://creativecommons.org/licenses/by/2.0/">
        <cc:permits
           rdf:resource="http://web.resource.org/cc/Reproduction" />
        <cc:permits
           rdf:resource="http://web.resource.org/cc/Distribution" />
        <cc:requires
           rdf:resource="http://web.resource.org/cc/Notice" />
        <cc:requires
           rdf:resource="http://web.resource.org/cc/Attribution" />
        <cc:permits
           rdf:resource="http://web.resource.org/cc/DerivativeWorks" />
        <cc:requires
           rdf:resource="http://web.resource.org/cc/ShareAlike" />
      </cc:License>
    </rdf:RDF>
  </metadata>
  <path
     style="opacity:1;color:#000000;fill:#000000;fill-opacity:1;fill-rule:nonzero;stroke:none;stroke-width:8.25491714;stroke-linecap:butt;stroke-linejoin:round;marker:none;marker-start:none;marker-mid:none;marker-end:none;stroke-miterlimit:4;stroke-dashoffset:0;stroke-opacity:1;visibility:visible;display:inline;overflow:visible"
     d="M 617 22.84375 C 581 38.84375 514 54.84375 460 49.84375 C 410 58.843748 352 13.84375 308 42.84375 C 252.99999 122.84375 203 211.84375 197 310.84375 C 185.99999 500.84376 190.99999 566.84375 341 722.84375 C 359.49777 764.85563 383.0145 836.65253 407.59375 919.09375 L 375.4375 919.75 C 330.54928 900.51218 292.71743 885.1364 261.9375 873.59375 L 79.1875 456.125 L -105.5 873.59375 C -117.04303 867.18112 -132.41842 856.26526 -151.65625 840.875 L -217.0625 921.6875 C -151.65339 970.42339 -71.500691 1008.2543 23.40625 1035.1875 C 118.3124 1062.1205 244.00102 1058.9081 400.46875 1025.5625 L 438.5 1026 C 482.47172 1182.0881 524.6453 1346.6556 543 1412.8438 C 579 1446.8438 498 1632.8438 464 1678.8438 C 427 1729.8438 269 1683.8438 203 1724.8438 C 174.99999 1742.8438 165 1809.8438 181 1818.8438 C 195.99999 1795.8438 226 1764.8438 247 1761.8438 C 226.99999 1782.8438 297 1772.8438 312 1777.8438 C 372 1778.8438 433 1785.8438 494 1778.8438 C 510 1771.8438 528 1757.8438 514 1783.8438 C 606 1807.8438 735 1792.8438 756 1738.8438 C 786 1683.8438 814 1625.8438 834 1565.8438 C 867 1572.8438 911 1600.8438 938 1583.8438 C 966 1564.8438 995.00005 1475.8438 1011 1416.8438 C 1014 1404.8438 1043 1404.8438 1048 1415.8438 C 1078 1475.8438 1128 1659.8438 1176 1736.8438 C 1235 1829.8438 1431 1845.8438 1565 1788.8438 C 1630 1760.8438 1678 1766.8438 1664 1730.8438 C 1642 1670.8438 1604 1613.8438 1564 1562.8438 C 1622 1598.8438 1680 1635.8438 1738 1671.8438 C 1752 1722.8438 1828 1683.8438 1791 1644.8438 C 1673.8825 1475.6168 1521.09 1244.9123 1366.2812 1036.3438 L 1782.3438 1040.9688 L 1782.3438 571.5625 C 1782.3438 508.71877 1749.0038 477.28125 1682.3125 477.28125 C 1615.6211 477.28125 1580.3474 495.24545 1576.5 531.15625 C 1549.5665 774.83576 1520.7184 896.65624 1489.9375 896.65625 L 1263.0312 901.34375 C 1152.7762 762.07936 1045.3193 643.68294 953 576.84375 C 913 541.84373 866 514.84375 814 501.84375 C 797 457.84376 802 398.84375 792 348.84375 C 782 249.84376 722 85.84375 617 22.84375 z M 608 87.84375 C 667 156.84375 719 236.84375 729 328.84375 C 739 394.84376 742 460.84375 752 525.84375 C 705 521.84373 719 448.84375 728 413.84375 C 736 344.84376 699 280.84375 673 219.84375 C 655 186.84375 638 134.84375 592 133.84375 C 541 142.84375 508 185.84375 475 222.84375 C 441 188.84375 405 151.84375 358 137.84375 C 339 130.84375 301 156.84375 327 124.84375 C 344 64.843748 410 117.84375 454 108.84375 C 506 111.84375 559 105.84375 608 87.84375 z M 592 163.84375 C 631 173.84375 640 227.84375 659 259.84375 C 683 315.84376 712 376.84375 693 439.84375 C 678 469.84376 697 507.84375 695 529.84375 C 658 555.84373 626 613.84375 573 600.84375 C 529 591.84373 507 549.84375 473 529.84375 C 445 556.84373 430 616.84375 375 599.84375 C 338 591.84373 289 595.84375 278 550.84375 C 258.99999 504.84373 257 453.84375 254 403.84375 C 280 408.84376 282 382.84375 284 360.84375 C 297 311.84376 347 306.84375 383 335.84375 C 400 354.84376 452 369.84375 441 399.84375 C 436 417.84376 430 436.84375 424 455.84375 L 466 511.84375 C 470 482.84376 513 458.84375 488 429.84375 C 484 416.84376 469 399.84375 471 389.84375 C 489 357.84376 513 329.84375 541 305.84375 C 575 272.84376 611 329.84375 641 333.84375 C 664 308.84376 639 298.84375 616 285.84375 C 581 252.84376 528 263.84375 502 301.84375 C 477 316.84376 462 377.84375 436 337.84375 C 401 309.84376 358 277.84375 311 287.84375 C 282 293.84376 256 353.84375 255 350.84375 C 253.99999 303.84376 276 261.84375 289 215.84375 C 301 165.84375 364 150.84375 396 191.84375 C 431 204.84375 455 274.84375 491 249.84375 C 522 216.84375 547 177.84375 592 163.84375 z M 542 329.84375 C 515 342.84376 482 378.84375 532 384.84375 C 556 383.84376 611 358.84375 601 335.84375 C 582 353.84376 562 329.84375 542 329.84375 z M 345 338.84375 C 312 346.84376 295 382.84375 337 390.84375 C 359 392.84376 431 361.84375 375 354.84375 C 366 348.84376 357 338.84375 345 338.84375 z M 1679.4375 529.21875 C 1707.0112 529.21875 1720.7812 543.34695 1720.7812 571.5625 L 1720.7812 896.65625 L 1595.75 896.65625 L 1636.1562 554.25 C 1637.4392 537.57721 1651.863 529.21877 1679.4375 529.21875 z M 721 545.84375 C 735 574.84373 758 558.84375 775 550.84375 C 799 567.84373 882 565.84375 833 601.84375 C 802 643.84373 636.32629 758.36112 521.25 778.5625 C 471.56405 787.28476 555 865.84375 582 893.84375 C 589.82972 900.87042 597.64947 907.90873 605.46875 914.96875 L 566.78125 915.78125 C 516.28864 837.51175 456.05945 757.97888 385 681.84375 C 373 668.84373 316 608.84375 335 622.84375 C 381 634.84373 444 635.84375 470 587.84375 C 482 551.84373 508 616.84375 536 616.84375 C 578 644.84373 633 632.84375 665 596.84375 C 684 579.84373 702 562.84375 721 545.84375 z M 902 619.84375 C 983.24782 666.56126 1084.8733 775.3219 1187.25 902.9375 L 691.75 913.1875 C 656.40826 881.33348 621.54829 849.38784 587 817.84375 C 739 766.84375 848 680.84375 902 619.84375 z M 79.1875 625.40625 L 194.625 863.96875 L 121.5 863.96875 L 79.1875 756.25 L 36.875 863.96875 L 17.625 863.96875 C 17.625 905.00945 38.801101 925.53127 81.125 925.53125 L 190.78125 925.53125 C 222.84427 929.3788 224.12372 935.14863 194.625 942.84375 C 159.99675 951.82142 124.39523 953.75508 87.84375 948.625 C 51.291265 943.49493 4.8062989 929.36662 -51.625 906.28125 L 79.1875 625.40625 z M 450 857.84375 C 466.25449 874.61019 482.32831 894.6995 498.09375 917.21875 L 470.6875 917.78125 C 464.07188 897.73414 457.19451 877.69368 450 857.84375 z M 504.09375 1026.7188 L 563.75 1027.375 C 641.61117 1177.1613 703.37215 1363.3308 724 1456.8438 C 675 1416.8438 608 1390.8438 593 1365.8438 C 580.91895 1346.2121 552.83704 1197.136 504.09375 1026.7188 z M 633.4375 1028.1562 L 732.5 1029.25 C 839.71805 1123.963 951.01023 1214.2557 1078 1282.8438 C 1195 1348.8438 1318 1407.8438 1431 1480.8438 C 1485 1558.8438 1549 1630.8438 1590 1716.8438 C 1549 1728.8438 1509 1745.8438 1467 1755.8438 C 1384 1776.8438 1275 1755.8438 1235 1712.8438 C 1181 1655.8438 1122 1412.8438 1091 1323.8438 C 1076 1289.8438 1040 1332.8438 1033 1321.8438 C 1029 1272.8438 958 1269.8438 963 1323.8438 C 957 1386.8438 945 1449.8438 915 1506.8438 C 901 1543.8438 829 1493.8438 785 1482.8438 C 793.5472 1432.2181 751.06517 1244.5601 633.4375 1028.1562 z M 825.9375 1030.3125 L 1289.3438 1035.4688 C 1452.4267 1254.8616 1600.1912 1486.0667 1649 1545.8438 C 1499 1450.8438 1351 1354.8438 1190 1276.8438 C 1059.134 1212.5689 939.3333 1125.1323 825.9375 1030.3125 z M 653 1481.8438 C 685 1500.8438 714 1526.8438 749 1540.8438 C 728 1592.8438 715 1650.8438 672 1691.8438 C 649 1728.8438 598 1693.8438 561 1696.8438 C 589 1626.8438 631 1595.8438 653 1481.8438 z "
     id="path1312" />
</svg>
