<?xml version="1.0" encoding="UTF-8" standalone="no"?>
<!-- Created with Inkscape (http://www.inkscape.org/) -->
<svg
   xmlns:dc="http://purl.org/dc/elements/1.1/"
   xmlns:cc="http://web.resource.org/cc/"
   xmlns:rdf="http://www.w3.org/1999/02/22-rdf-syntax-ns#"
   xmlns:svg="http://www.w3.org/2000/svg"
   xmlns="http://www.w3.org/2000/svg"
   xmlns:sodipodi="http://sodipodi.sourceforge.net/DTD/sodipodi-0.dtd"
   xmlns:inkscape="http://www.inkscape.org/namespaces/inkscape"
   width="1800"
   height="1800"
   id="svg2"
   sodipodi:version="0.32"
   inkscape:version="0.44"
   version="1.0"
   sodipodi:docbase="/home/rosmord/Travail/Gsigns/Distribution"
   sodipodi:docname="G2.svg">
  <defs
     id="defs4" />
  <sodipodi:namedview
     id="base"
     pagecolor="#ffffff"
     bordercolor="#666666"
     borderopacity="1.0"
     inkscape:pageopacity="0.0"
     inkscape:pageshadow="2"
     inkscape:zoom="0.64000002"
     inkscape:cx="1128.0307"
     inkscape:cy="1458.9264"
     inkscape:document-units="px"
     inkscape:current-layer="layer3"
     width="1800px"
     height="1800px"
     inkscape:window-width="1255"
     inkscape:window-height="953"
     inkscape:window-x="25"
     inkscape:window-y="0" />
  <metadata
     id="metadata7">
    <rdf:RDF>
      <cc:Work
         rdf:about="">
        <dc:format>image/svg+xml</dc:format>
        <dc:type
           rdf:resource="http://purl.org/dc/dcmitype/StillImage" />
        <dc:title>G1</dc:title>
        <dc:creator>
          <cc:Agent>
            <dc:title>S. Rosmorduc</dc:title>
          </cc:Agent>
        </dc:creator>
        <dc:description>G1 sign from Sethy temple in Abydos.</dc:description>
      </cc:Work>
    </rdf:RDF>
  </metadata>
  <g
     inkscape:groupmode="layer"
     id="layer3"
     inkscape:label="dessinCourant"
     style="display:inline">
    <path
       style="fill:black;fill-opacity:1;fill-rule:evenodd;stroke:none;stroke-width:70;stroke-linecap:butt;stroke-linejoin:miter;stroke-miterlimit:4;stroke-opacity:1;display:inline"
       d="M 518.6875,-12.21875 C 454.58891,-11.685211 389.07355,-0.19408216 326.875,5.65625 C 250.93578,43.179601 174.01696,14.583459 94.375,43.875 C 36.83342,69.98837 20.717754,122.98775 -3.09375,175.96875 C 139.03286,128.10605 227.51142,199.30194 356.34375,232.40625 C 356.17449,282.2257 348.45557,338.75998 344.78125,395.71875 C 329.57264,550.09003 409.93531,685.56244 526.125,782.03125 C 609.34565,969.60104 724.50215,1113.52 808.5625,1259.875 C 798.54034,1325.6055 738.08781,1573.7374 708.28125,1662.8125 C 626.35892,1676.7434 536.64942,1682.2235 452.96875,1675.5312 C 404.21663,1668.5971 350.15604,1755.1491 297.1875,1800.5 L 1332.8438,1808.6875 C 1332.5227,1807.5383 1332.1797,1806.386 1331.8125,1805.25 L 1765.9375,1808.6875 C 1763.0952,1798.5143 1758.4303,1788.8561 1752.2812,1779.7188 C 1821.2761,1776.214 1904.8748,1749.1748 1939.5938,1686.125 C 2006.95,1736.3165 2086.3139,1770.0818 2184.9688,1779.75 C 2264.4015,1775.8176 2363.3899,1740.6601 2384.8125,1655.2188 C 2490.1765,1649.2133 2412.9108,1545.3047 2373.8125,1504.5938 C 2087.0865,1190.4789 1850.4329,831.89591 1567.125,515.4375 C 1458.0148,406.49173 1334.8204,332.80272 1182.25,271.6875 C 1170.8924,243.4526 1167.1671,203.28787 1159.7812,159.09375 C 1151.7219,110.88292 1126.3062,31.965473 1079.8438,7.40625 C 978.89432,-30.089575 864.72421,-4.196941 759.96875,5.65625 C 730.48501,20.224856 700.84986,24.795145 670.96875,26.6875 C 664.07378,18.800954 655.74764,12.643078 646.75,7.40625 C 605.7393,-7.8264289 562.54443,-12.583803 518.6875,-12.21875 z M 527.46875,43.875 C 469.92715,69.98837 453.81151,122.98775 430,175.96875 C 522.21231,144.91524 591.84313,163.98847 664.5625,190.25 C 670.96012,237.57653 667.45017,314.15348 712.0625,329.09375 C 735.82014,338.40495 758.70447,347.95053 780.8125,357.8125 C 779.95842,367.65167 779.17263,377.52075 778.46875,387.4375 C 712.00485,405.98008 565.71875,480.27851 565.71875,615.5 C 565.71875,659.21188 577.27722,699.78406 597.375,737.59375 C 597.07308,737.57197 596.77392,737.54956 596.46875,737.53125 C 377.72712,620.21795 412.45722,382.90021 420.9375,173.6875 C 330.04348,168.59509 255.16297,118.38301 168.84375,97.5 C 235.79921,88.732771 302.54048,77.421278 369.65625,70.40625 C 357.06302,72.9598 345.54546,80.36917 337.875,90.71875 C 335.71487,134.80711 435.12232,130.11672 430.59375,97.28125 C 419.56293,79.893671 399.19169,68.781301 378.59375,69.4375 L 527.46875,43.875 z M 927.25,53.25 C 938.58668,106.74142 917.71612,168.47877 877.625,186.6875 L 890.4375,214.375 C 940.52086,190.28546 988.64862,118.1537 995.8125,53.40625 C 1064.1939,57.516166 1082.8945,109.64517 1093.5938,170.125 C 1106.414,211.45548 1093.4092,311.76412 1145.1562,329.09375 C 1297.9922,388.99396 1414.826,458.26542 1519.6875,562.96875 C 1700.638,792.01559 1889.7416,1013.8608 2070.6875,1243.1562 C 2140.9993,1332.3742 2205.2953,1414.1143 2257.5,1475.7812 C 1982.701,1267.8677 1675.668,1108.8415 1374.4375,943.59375 C 1214.336,855.54857 1061.5625,783.54091 1061.5625,589.6875 C 1061.5624,485.44751 1251.3632,398.09664 1243.5312,384.53125 C 1235.2175,370.13172 998.8125,443.61539 998.8125,615.5 C 998.81248,659.21188 1010.3708,699.78406 1030.4688,737.59375 C 1030.1668,737.57197 1029.8677,737.54956 1029.5625,737.53125 C 810.82085,620.21795 845.55097,382.90021 854.03125,173.6875 C 763.13721,168.59509 688.25672,118.38301 601.9375,97.5 C 668.89294,88.732771 735.63423,77.421278 802.75,70.40625 C 790.15675,72.9598 778.63921,80.36917 770.96875,90.71875 C 768.8086,134.80711 868.21607,130.11672 863.6875,97.28125 C 852.65666,79.893671 832.28544,68.781301 811.6875,69.4375 C 845.06513,64.59515 889.52741,57.40978 927.25,53.25 z M 735.53125,216 C 752.84983,221.94239 770.70105,227.5918 789.4375,232.40625 C 789.37779,249.97962 788.39833,268.40671 786.96875,287.375 C 774.56247,282.05234 761.96774,276.81941 749.15625,271.6875 C 742.95118,256.26164 739.02167,237.25929 735.53125,216 z M 776.5625,413.75 C 769.04788,560.62995 847.57559,689.33729 959.21875,782.03125 C 999.15161,872.03539 1046.4497,951.9739 1094.125,1026.9688 C 1043.1497,999.17568 992.13932,971.47611 941.3125,943.59375 C 781.21097,855.54857 628.46875,783.54091 628.46875,589.6875 C 628.46875,515.70083 723.86145,450.37572 776.5625,413.75 z M 625.6875,833.28125 C 761.57975,987.8407 874.09524,1164.2038 974.375,1343.3438 C 995.4434,1369.6514 971.73535,1393.7318 954.34375,1418.7188 C 888.27298,1206.3525 736.19722,1042.4921 625.6875,833.28125 z M 1058.7812,833.28125 C 1194.6734,987.8407 1307.1889,1164.2039 1407.4688,1343.3438 C 1428.5371,1369.6514 1404.8291,1393.7319 1387.4375,1418.7188 C 1321.3667,1206.3525 1169.291,1042.4921 1058.7812,833.28125 z M 792.46875,935.34375 C 918.58224,1003.343 1044.1949,1071.6064 1168.5938,1141.8438 L 1200.8125,1197.9062 L 1213.1875,1310.9062 C 1213.5562,1319.7039 1217.6168,1342.7009 1219.625,1365.9688 C 1215.1499,1385.4229 1210.2205,1406.1908 1205.0625,1427.4688 L 1068.75,1272.4375 C 1055.253,1281.4415 1042.5482,1291.6727 1028.625,1300.0312 C 966.0275,1171.8149 874.40591,1052.453 792.46875,935.34375 z M 1225.5625,935.34375 C 1537.4749,1103.5241 1846.3275,1273.29 2141.3125,1470.6562 C 2210.7925,1527.6557 2272.6951,1591.1832 2314.625,1650.5625 C 2286.8195,1694.297 2233.8989,1709.3144 2184.9688,1712.625 C 1935.2789,1703.813 1837.5439,1460.1673 1705.6562,1286.0938 L 1633.9062,1197.9062 L 1646.2812,1310.9062 C 1647.2066,1332.9892 1671.375,1444.4959 1628.0312,1425.3438 L 1501.8438,1272.4375 C 1488.3467,1281.4415 1475.6418,1291.6726 1461.7188,1300.0312 C 1399.1212,1171.8149 1307.4997,1052.453 1225.5625,935.34375 z M 876.21875,1399.0312 C 895.81011,1447.2284 905.97408,1498.2751 917.0625,1548.875 C 948.9246,1522.7626 979.82035,1495.9402 1005.9688,1464 C 988.93462,1557.7186 957.1491,1652.2188 880.0625,1652.2188 C 833.40576,1652.2188 811.79361,1620.3129 841.71875,1523.5625 C 855.81428,1477.9905 867.03715,1434.4021 876.21875,1399.0312 z M 1309.3125,1399.0312 C 1328.9038,1447.2284 1339.0679,1498.2751 1350.1562,1548.875 C 1382.0183,1522.7626 1412.9142,1495.9402 1439.0625,1464 C 1422.0285,1557.7186 1390.2429,1652.2188 1313.1562,1652.2188 C 1266.4994,1652.2188 1244.8874,1620.3129 1274.8125,1523.5625 C 1288.908,1477.9905 1300.1309,1434.402 1309.3125,1399.0312 z M 1107.0312,1441.5938 L 1187.75,1497.0625 C 1170.8597,1563.3182 1153.5609,1626.3956 1141.375,1662.8125 C 1108.6493,1672.4416 1079.9001,1663.6369 1046.9688,1664.5312 C 1070.0531,1597.7045 1098.833,1534.9289 1107.0312,1441.5938 z M 1540.125,1441.5938 C 1569.0299,1467.77 1601.4438,1496.0897 1641.9062,1499.0312 C 1670.4331,1496.8588 1689.19,1484.5446 1701.1562,1465.9688 C 1703.507,1467.5369 1705.8695,1469.0848 1708.2188,1470.6562 C 1777.6989,1527.6557 1839.6016,1591.1832 1881.5312,1650.5625 C 1853.7256,1694.297 1800.8051,1709.3144 1751.875,1712.625 C 1646.7914,1708.9164 1568.6279,1663.6114 1503.5,1599.4062 C 1519.7014,1553.6203 1534.5927,1504.5753 1540.125,1441.5938 z "
       id="path4951"
       sodipodi:nodetypes="cccccccccccccccccccccccccccccccccsccccccccccccccccccccssccccccccccccccccccsccccccccccccccscccccccccccccccccssccccsscccccccccccccc" />
  </g>
</svg>
