<?xml version="1.0" encoding="UTF-8" standalone="no"?>
<svg
   xmlns:dc="http://purl.org/dc/elements/1.1/"
   xmlns:cc="http://creativecommons.org/ns#"
   xmlns:rdf="http://www.w3.org/1999/02/22-rdf-syntax-ns#"
   xmlns:svg="http://www.w3.org/2000/svg"
   xmlns="http://www.w3.org/2000/svg"
   xmlns:sodipodi="http://sodipodi.sourceforge.net/DTD/sodipodi-0.dtd"
   xmlns:inkscape="http://www.inkscape.org/namespaces/inkscape"
   width="18.236736297607422"
   height="18.0"
   id="svg5462"
   version="1.1"
   inkscape:version="0.48.0 r9654"
   sodipodi:docname="G209.svg">
  <metadata
     id="metadata5472">
    <rdf:RDF>
      <cc:Work
         rdf:about="">
        <dc:format>image/svg+xml</dc:format>
        <dc:type
           rdf:resource="http://purl.org/dc/dcmitype/StillImage" />
      </cc:Work>
    </rdf:RDF>
  </metadata>
  <defs
     id="defs5470" />
  <sodipodi:namedview
     pagecolor="#ffffff"
     bordercolor="#666666"
     borderopacity="1"
     objecttolerance="10"
     gridtolerance="10"
     guidetolerance="10"
     inkscape:pageopacity="0"
     inkscape:pageshadow="2"
     inkscape:window-width="640"
     inkscape:window-height="480"
     id="namedview5468"
     showgrid="false"
     inkscape:zoom="17.277778"
     inkscape:cx="9.1183681"
     inkscape:cy="9"
     inkscape:window-x="1754"
     inkscape:window-y="452"
     inkscape:window-maximized="0"
     inkscape:current-layer="svg5462" />
  <path
     style="fill:black cmyk(0, 0, 0, 100);stroke:none"
     d="M 7.84375 0.15625 C 7.7839089 0.15625 7.7389039 0.21336414 7.6875 0.3125 C 7.5980189 0.48507058 7.5681838 0.71806663 7.59375 1.03125 C 7.6193155 1.3444334 7.4332066 1.7344109 7.0625 2.15625 C 6.3083035 2.1690332 5.7584905 2.3963447 5.375 2.84375 C 4.2756624 3.1633249 3.7727358 3.5824305 3.875 4.09375 L 4 4.78125 C 4.1789615 4.4744582 4.4005899 4.3011317 4.65625 4.25 C 4.8296545 4.2322148 4.9854259 4.21875 5.125 4.21875 C 5.7879758 4.21875 6.0690691 4.4112251 5.96875 4.8125 C 5.8473119 5.2982541 5.793326 6.0057562 5.8125 6.875 C 5.8301563 7.6754134 6.2099074 8.629845 6.9375 9.75 C 6.7895056 9.7520574 6.6098792 9.75 6.46875 9.75 C 5.6550766 9.75 4.9802208 9.7201381 4.5 9.625 C 4.4027363 9.5082797 3.4724115 8.1483091 2.875 8 C 2.828018 7.9883356 2.674987 7.9825434 2.5 7.96875 C 2.402535 7.1406112 2.3166229 6.2968424 2.21875 5.46875 C 2.4061333 5.238346 2.7960136 5.3194324 2.90625 5 C 3.0192 4.8503401 2.9545403 4.5993278 2.75 4.59375 C 2.6200623 4.5419443 2.293627 4.53125 2.15625 4.53125 C 2.1292877 4.53125 2.1027397 4.5303675 2.09375 4.53125 C 1.7825552 4.5886142 1.383377 4.7737771 1.4375 5.15625 L 1.4375 7.90625 C 0.82770629 7.8741504 0.18607007 7.8218047 0 7.8125 C 0 8.1577609 0.26832457 8.65625 1.15625 8.65625 C 1.1659761 9.4343673 1.3228549 10.388677 1.46875 10.875 L 1.5625 12.125 C 1.5625 12.266178 1.8298821 12.3125 2.09375 12.3125 C 2.4110341 12.3125 2.75 12.25 2.75 12.25 L 2.6875 10.96875 C 4.0599263 10.97943 5.9746617 11.029212 7.75 11.0625 C 8.1836149 11.866673 8.40625 12.55594 8.40625 13.15625 C 8.40625 13.999928 8.3352122 14.646345 8.15625 15.09375 C 7.2870064 16.308135 6.6817918 16.978703 6.375 17.09375 L 5.1875 17.03125 C 5.0842524 17.013551 5.0148789 17 4.9375 17 C 4.6795711 17 4.5642506 17.115839 4.59375 17.3125 C 4.59375 17.580942 4.694623 17.759953 4.9375 17.875 C 4.9375 17.772737 5.021321 17.725849 5.1875 17.6875 L 5.84375 17.875 L 11.09375 17.84375 C 11.119317 17.842472 11.133367 17.84375 11.15625 17.84375 C 11.362182 17.84375 11.449005 17.896459 11.4375 18 C 11.590896 17.910519 11.6875 17.731509 11.6875 17.4375 C 11.6875 17.251565 11.578662 17.15625 11.40625 17.15625 C 11.341595 17.15625 11.2764 17.161353 11.1875 17.1875 C 11.101719 17.21273 11.006904 17.21875 10.9375 17.21875 C 10.74317 17.21875 10.628434 17.1353 10.5625 16.9375 C 10.81816 16.221652 11.039788 15.616438 11.21875 15.15625 C 11.359363 14.593798 11.430402 13.953064 11.46875 13.25 C 12.478607 13.8508 13.024151 14.988776 13.0625 16.625 C 13.100849 17.315281 13.645686 17.661934 14.6875 17.6875 C 14.750642 17.689049 14.784671 17.6875 14.84375 17.6875 C 15.75947 17.6875 16.216291 17.497256 16.15625 17.125 L 15.71875 16.09375 C 16.374943 16.928905 16.903441 17.34375 17.28125 17.34375 C 17.308236 17.34375 17.318184 17.34801 17.34375 17.34375 C 17.484363 17.318185 17.573868 17.197429 17.625 17.03125 C 17.714481 16.762806 17.55323 16.338018 17.125 15.75 C 16.696769 15.161982 16.205919 14.426059 15.65625 13.53125 C 15.141734 12.668398 14.677831 11.878581 14.25 11.1875 C 15.643924 11.220134 17.577583 11.28125 17.71875 11.28125 C 17.963364 11.28125 18.125 11.020981 18.125 10.65625 L 18.25 5.15625 L 15.21875 5.125 L 15 9.40625 C 14.47292 9.4077678 13.829343 9.4361375 13.15625 9.46875 C 12.44676 8.3844479 11.906845 7.6732425 11.5625 7.3125 C 10.891392 6.6094352 10.124928 6.1604952 9.28125 5.96875 C 8.9105432 5.6747411 8.8217455 5.3096221 8.96875 4.875 C 9.1157551 4.4403786 9.0908967 3.9367443 8.9375 3.40625 C 8.7841049 2.8757552 8.5454242 2.4985609 8.1875 2.28125 C 8.686037 2.0639393 8.9914866 1.783349 9.09375 1.40625 C 9.196014 1.0291518 9.1953063 0.74714592 9.125 0.59375 C 9.0883184 0.51371732 9.0540801 0.5 9 0.5 C 8.9504264 0.5 8.8766931 0.52650042 8.8125 0.59375 C 8.6782788 0.73436281 8.5766979 0.94959904 8.5 1.25 C 8.4233021 1.5504003 8.1178527 1.8494581 7.59375 2.15625 C 8.002806 1.7855432 8.2066749 1.421132 8.1875 1.03125 C 8.1683255 0.64136865 8.1150473 0.37782972 8 0.25 C 7.9510439 0.19560434 7.8880766 0.15625 7.84375 0.15625 z M 7.28125 2.6875 C 7.9331831 2.6875 8.3103776 2.9261805 8.40625 3.4375 C 8.5021227 3.9488204 8.4658961 4.4034441 8.3125 4.8125 C 8.1591042 5.2215559 8.1896471 5.6236094 8.375 5.96875 C 8.5603539 6.3138912 8.7940576 6.5113677 9.0625 6.5625 C 9.8422633 6.728679 10.469506 7.0753313 11 7.625 C 11.345465 7.9829515 11.884762 8.6595805 12.46875 9.5 C 11.418062 9.5573431 10.318293 9.6311534 9.21875 9.6875 C 9.2017753 9.6725224 9.1729963 9.639814 9.15625 9.625 C 8.325355 8.8899777 7.8522642 8.100777 7.75 7.21875 C 7.75 7.052571 7.8885146 6.9204479 8.125 6.84375 C 8.3614862 6.7670521 8.4502839 6.6406128 8.4375 6.5 C 8.4247177 6.3593872 8.3593628 6.2826656 8.21875 6.21875 C 8.1619366 6.2009957 8.1227658 6.1875 8.0625 6.1875 C 7.9058096 6.1875 7.7112774 6.2549817 7.53125 6.375 C 7.2819813 6.5411793 7.1505655 6.8153786 7.125 7.25 C 7.2957121 8.1149426 7.782988 8.9500658 8.53125 9.71875 C 8.2463974 9.7313589 7.9915095 9.7101538 7.71875 9.71875 C 6.937196 8.5378518 6.5035656 7.5669625 6.46875 6.875 C 6.4176183 5.8587511 6.435378 5.1114609 6.53125 4.59375 C 6.6271226 4.0760381 6.4957066 3.7528297 6.125 3.625 L 5.96875 3.1875 C 6.1988438 2.855142 6.6293169 2.6875 7.28125 2.6875 z M 7.125 3.03125 C 6.86934 3.0695986 6.7613683 3.2443399 6.8125 3.5 C 6.8468126 3.6944362 6.9792178 3.78125 7.1875 3.78125 C 7.2120034 3.78125 7.2230888 3.783941 7.25 3.78125 C 7.4928762 3.7301177 7.6136317 3.586627 7.5625 3.34375 C 7.5097009 3.1431129 7.4074793 3.03125 7.25 3.03125 C 7.2168462 3.03125 7.1627935 3.0223574 7.125 3.03125 z M 5.59375 3.1875 L 5.6875 3.5625 L 4.3125 3.96875 C 4.5425939 3.572477 4.9673832 3.3153297 5.59375 3.1875 z M 5.75 3.75 L 5.875 4.03125 L 5.28125 3.9375 L 5.75 3.75 z M 15.8125 5.75 C 16.75427 5.7959026 17.276997 5.8125 17.5 5.8125 C 17.545928 5.8125 17.603193 5.8140294 17.625 5.8125 L 17.5 10.71875 C 16.691508 10.389362 16.19232 10.072916 15.625 9.625 L 15.8125 5.75 z M 8.71875 11.0625 C 9.1934413 11.0719 9.5921256 11.08388 10.0625 11.09375 C 11.107101 12.00479 12.422162 13.16059 14.40625 14.8125 C 14.764174 15.119292 15.08809 15.669105 15.34375 16.5 C 15.548278 16.857924 15.332334 17.049717 14.71875 17.0625 C 14.704805 17.06279 14.701187 17.0625 14.6875 17.0625 C 14.098933 17.0625 13.737432 16.787176 13.625 16.25 C 13.535519 15.163445 13.284056 14.373537 12.875 13.875 C 12.056888 12.992973 11.470141 12.50283 11.125 12.375 C 10.984387 12.375 10.900566 12.889294 10.875 13.9375 C 10.74717 13.464529 10.161838 12.668937 9.0625 11.53125 C 8.9319986 11.368625 8.8393184 11.218621 8.71875 11.0625 z M 10.90625 11.09375 C 12.153729 11.120683 12.536508 11.132415 13.5625 11.15625 C 14.609942 12.772894 15.623074 14.357019 16.59375 15.84375 L 16.875 16.625 C 15.34104 14.963211 13.893347 13.575187 12.5 12.4375 C 11.835222 11.8947 11.442995 11.544891 10.90625 11.09375 z M 8.59375 11.75 C 9.0795041 12.26132 9.34375 12.614364 9.34375 12.8125 C 9.34375 13.010637 9.2002586 13.231556 8.90625 13.5 C 8.9190329 12.937548 8.7982784 12.363584 8.59375 11.75 z M 9.84375 13.5 C 10.367853 13.806792 10.600849 14.382171 10.5625 15.1875 L 9.96875 16.78125 C 9.8584962 17.063009 9.6613528 17.1875 9.375 17.1875 C 9.3625501 17.1875 9.3565326 17.188032 9.34375 17.1875 C 9.264497 17.188778 9.1684016 17.1875 9.09375 17.1875 C 8.4218734 17.1875 7.9553727 17.134791 7.65625 17.03125 C 7.65625 16.788373 8.0213692 16.214409 8.75 15.28125 C 9.2741035 14.105214 9.6392225 13.5 9.84375 13.5 z "
     id="path5464" />
</svg>
