<?xml version="1.0" encoding ="US-ASCII" standalone="yes"?>
<svg width="19.695518" height="17.976807">
<path style="fill:#000000; stroke:none" d=" M 7.334478 5.525307  Q 6.591251 7.578961 11.559138 12.390379  Q 14.668957 15.128584 16.018501 15.656667  Q 16.937756 16.02828 16.683493 14.972116  Q 16.507465 14.189771 15.294832 11.67649  Q 14.082198 9.163208 12.3806 7.344258  Q 10.679001 5.525307 9.42725 4.566935  Q 7.862561 4.058412 7.334478 5.525307  Z  M 8.801374 3.412977  Q 8.625346 1.496234 9.309898 0.322717  Q 9.857539 -0.361834 10.170477 0.400951  Q 10.463856 0.909475 9.896656 3.530329  Q 14.06264 7.500727 15.627329 10.287828  Q 17.192017 13.07493 17.524513 14.414695  Q 17.85701 15.754459 17.739658 16.18475  Q 17.504955 17.280031 15.940267 16.810625  Q 9.094753 16.262983 6.278314 16.008722  Q 5.867583 16.008722 5.691556 16.282541  Q 5.671997 17.886349 4.987445 17.847231  Q 4.420246 17.847231 4.694066 16.399895  Q 3.266288 17.240913 2.073213 17.964582  Q 1.388661 18.042816 1.153958 17.651646  Q 1.27131 17.416941 3.168495 16.194529  Q 5.06568 14.972116 6.219638 15.011232  L 13.084709 15.676226  L 13.104268 15.676226  L 13.104268 15.637108  Q 9.231664 11.588476 8.234175 10.473636  Q 7.236685 9.358794 6.669486 8.224395  Q 6.102286 7.089996 6.160962 5.48619  Q 6.297872 4.938549 6.063169 4.78208  Q 4.576715 3.569446 4.165984 2.239461  Q 4.146425 1.496234 4.830976 1.613585  Q 5.437294 1.848289 6.865072 3.980177  Q 7.862561 3.412977 8.801374 3.412977  Z  M 16.72261 9.867318  Q 17.172459 9.847759 17.602749 6.151183  Q 17.661425 5.583983 18.658913 5.583983  Q 19.675961 5.583983 19.695518 6.542355  L 19.695518 11.314655  L 16.703053 11.275538  L 16.703053 11.275538  L 6.121845 11.334214  L 4.263777 11.5298  Q 0.078234 11.510242 0 10.903925  Q 0 10.238932 0.586758 10.238932  Q 1.740716 10.590987 3.246729 10.630104  Q 4.752742 10.669221 5.143914 10.160697  Q 4.948328 9.886877 4.615832 9.886877  Q 4.009515 9.847759 2.659971 10.082463  Q 1.97542 10.082463 1.97542 9.632615  Q 1.97542 9.319677 2.229681 9.319677  Q 2.562178 9.319677 4.224659 9.00674  Q 4.537597 9.026299 4.830976 9.045856  Q 5.652438 9.045856 6.708603 10.160697  L 7.647416 10.219374  L 16.72261 9.867318  Z  M 17.798334 9.847759  L 19.050085 9.847759  L 19.050085 6.542355  Q 19.050085 6.112065 18.639355 6.112065  Q 18.228624 6.112065 18.209064 6.385886  L 17.798334 9.847759  Z "/></svg>
