<?xml version="1.0" encoding ="US-ASCII" standalone="yes"?>
<svg width="20.013466" height="17.976807">
<path style="fill:#000000; stroke:none" d=" M 7.95764 5.630031  Q 7.51997 7.818381 12.51339 12.453707  Q 15.776022 15.099623 17.188503 15.577081  Q 18.103632 15.935175 17.825113 14.880787  Q 17.606279 14.085023 16.273375 11.578366  Q 14.94047 9.07171 13.150001 7.291188  Q 11.359531 5.510666 10.046521 4.595537  Q 8.435099 4.118079 7.95764 5.630031  Z  M 8.832981 3.441679  L 8.852875 0  L 9.966945 0  L 9.966945 3.362103  Q 13.72693 5.689713 15.994857 9.310439  Q 18.262785 12.931166 18.650719 14.274017  Q 19.038654 15.616869 18.939184 16.074432  Q 18.740242 17.188503 17.12882 16.770727  Q 10.165885 16.233585 7.301135 15.994857  Q 6.863465 15.994857 6.704312 16.273375  Q 6.684418 17.90469 5.988124 17.845009  Q 5.411195 17.845009 5.669819 16.392738  Q 4.217549 17.248186 3.023903 17.964373  Q 2.307716 18.043949 2.088881 17.646067  Q 2.188351 17.407337 4.128026 16.163958  Q 6.067701 14.920575 7.241453 14.980258  L 14.204388 15.656657  L 14.244176 15.656657  L 14.244176 15.616869  Q 10.106203 11.717626 9.201021 10.653291  Q 8.29584 9.588957 7.5896 8.315734  Q 6.883359 7.042511 6.823677 6.087595  L 3.461574 6.087595  L 3.441679 5.09289  L 7.102194 5.09289  Q 7.51997 3.799773 8.832981 3.441679  Z  M 16.989561 9.529274  Q 17.46702 9.529274 17.90469 5.749395  Q 17.944479 5.172466 18.978971 5.172466  Q 20.013466 5.172466 20.013466 6.147277  L 20.013466 11.001437  L 16.989561 10.981544  L 16.989561 10.981544  L 6.206959 11.021332  L 4.336914 11.220273  Q 0.079576 11.200378 0 10.583661  Q 0 9.927156 0.596823 9.927156  Q 1.770575 10.28525 3.292474 10.315091  Q 4.814373 10.344933 5.232149 9.827685  Q 5.013313 9.549169 4.675114 9.549169  Q 4.058396 9.529274 2.705598 9.748109  Q 2.009304 9.748109 2.009304 9.310439  Q 2.009304 8.972239 2.248033 8.972239  Q 2.606127 8.972239 4.277232 8.653934  Q 4.595537 8.673828 4.913843 8.693722  Q 5.729501 8.693722 6.803782 9.827685  L 7.758699 9.887368  L 16.989561 9.529274  Z  M 18.103632 9.529274  L 19.376854 9.529274  L 19.376854 6.167171  Q 19.376854 5.709607 18.939184 5.709607  Q 18.521408 5.709607 18.521408 5.988124  L 18.103632 9.529274  Z "/></svg>
