<?xml version="1.0" encoding="UTF-8" standalone="no"?>
<svg
   xmlns:dc="http://purl.org/dc/elements/1.1/"
   xmlns:cc="http://web.resource.org/cc/"
   xmlns:rdf="http://www.w3.org/1999/02/22-rdf-syntax-ns#"
   xmlns:svg="http://www.w3.org/2000/svg"
   xmlns="http://www.w3.org/2000/svg"
   xmlns:sodipodi="http://sodipodi.sourceforge.net/DTD/sodipodi-0.dtd"
   xmlns:inkscape="http://www.inkscape.org/namespaces/inkscape"
   width="28.03125"
   height="18.001238"
   id="svg2314"
   sodipodi:version="0.32"
   inkscape:version="0.45"
   sodipodi:docname="G211.svg"
   inkscape:output_extension="org.inkscape.output.svg.inkscape"
   sodipodi:docbase="C:\Program Files\JSesh\fontsGroupeG"
   sodipodi:modified="true"
   version="1.0">
  <metadata
     id="metadata2321">
    <rdf:RDF>
      <cc:Work
         rdf:about="">
        <dc:format>image/svg+xml</dc:format>
        <dc:type
           rdf:resource="http://purl.org/dc/dcmitype/StillImage" />
      </cc:Work>
    </rdf:RDF>
  </metadata>
  <defs
     id="defs2319" />
  <sodipodi:namedview
     inkscape:window-height="708"
     inkscape:window-width="1024"
     inkscape:pageshadow="2"
     inkscape:pageopacity="0.0"
     guidetolerance="10.0"
     gridtolerance="10.0"
     objecttolerance="10.0"
     borderopacity="1.0"
     bordercolor="#666666"
     pagecolor="#ffffff"
     id="base"
     width="1.8703581pc"
     height="1.2003236pc"
     units="pc"
     inkscape:zoom="28.664695"
     inkscape:cx="14.015625"
     inkscape:cy="9.0006189"
     inkscape:window-x="-4"
     inkscape:window-y="-4"
     inkscape:current-layer="svg2314" />
  <path
     style="fill:#000000;stroke:none"
     d="M 4.34375,0.0012381206 C 4.068806,-0.011259212 3.6999087,0.10128145 3.25,0.31373812 C 3.1000307,0.41371746 2.7999133,0.53876876 2.375,0.68873812 C 0.787824,0.98867746 1.5612511e-016,1.1825088 0,1.2824881 L 0,1.5637381 C 1.4372067,1.6637174 2.4626219,1.7199881 3.0625,1.7199881 C 3.9873113,1.8074701 4.4375001,1.9450313 4.4375,2.1574881 C 4.4624947,2.3574474 4.2499047,2.6325568 3.78125,2.9699881 C 3.312596,3.3074194 3.0187333,4.1640234 2.9375,5.5637381 C 2.8562667,6.9634523 3.7816326,8.3827735 5.65625,9.7824881 L 7.84375,12.938738 C 7.031416,15.438229 6.1560592,16.89508 5.21875,17.344988 L 4.125,17.188738 C 3.6001067,17.288719 3.3500047,17.53882 3.375,17.938738 C 3.5249693,17.851256 3.6687793,17.838751 3.8125,17.907488 C 3.9562207,17.976224 4.1625561,17.951211 4.4375,17.813738 L 5.5,17.969988 L 9.09375,17.969988 C 9.3414129,17.969988 9.5219996,17.940961 9.6875,17.907488 C 9.6877718,17.918235 9.6868142,17.927765 9.6875,17.938738 C 9.7073489,17.92716 9.7302606,17.91633 9.75,17.907488 C 9.879403,17.849524 10.031552,17.847849 10.15625,17.907488 C 10.246076,17.950448 10.358915,17.945078 10.5,17.907488 C 10.542416,17.929199 10.581088,17.939943 10.625,17.969988 C 10.637498,17.937182 10.622657,17.906896 10.625,17.876238 C 10.6775,17.856337 10.722824,17.842951 10.78125,17.813738 L 11.8125,17.938738 L 15.40625,17.969988 C 15.699118,17.969988 15.912742,17.924766 16.09375,17.876238 C 16.092081,17.907126 16.091692,17.937068 16.09375,17.969988 C 16.243719,17.882506 16.38753,17.870002 16.53125,17.938738 C 16.622518,17.982388 16.762063,17.978246 16.90625,17.938738 C 16.91847,17.943918 16.924326,17.960974 16.9375,17.969988 C 16.941666,17.959053 16.934504,17.949477 16.9375,17.938738 C 17.012962,17.915841 17.066943,17.889641 17.15625,17.844988 L 18.21875,18.001238 L 21.8125,18.001238 C 22.199922,18.001238 22.49379,17.957473 22.6875,17.876238 C 22.88121,17.795005 23.075049,17.838772 23.3125,18.001238 C 23.41248,17.738792 23.206138,17.563714 22.65625,17.438738 C 22.731236,16.626403 22.756244,15.344631 22.71875,13.594988 C 22.743745,13.032603 22.825036,12.626187 23,12.376238 C 23.78734,12.51371 24.575164,12.563738 25.375,12.563738 C 25.674939,12.888671 25.975056,13.476409 26.25,14.313738 L 28.03125,12.876238 L 27.71875,12.532488 C 27.81873,12.057585 27.67492,11.644915 27.28125,11.282488 C 26.887581,10.920062 26.3311,10.219784 25.59375,9.2199881 C 24.8564,8.2201928 24.062322,7.3073115 23.1875,6.4387381 C 22.312679,5.5701654 21.474845,4.8698875 20.71875,4.3762381 C 19.962655,3.8825888 19.331139,3.7950495 18.78125,4.0949881 C 18.231362,4.3949268 17.924997,4.4386995 17.90625,4.2512381 C 17.887504,4.0637761 18.031307,3.8074129 18.3125,3.4387381 C 18.593692,3.0700634 18.712494,2.6949168 18.6875,2.3449881 C 18.6875,2.1950188 18.674991,2.0574574 18.625,1.9074881 C 18.799964,2.3324014 19.875409,2.9701667 21.875,3.8449881 L 22.3125,3.2824881 C 20.325406,2.5326414 19.181183,1.9324069 18.84375,1.5324881 C 19.131192,1.8699194 20.287925,2.2763348 22.375,2.7512381 L 22.96875,2.1574881 C 20.681717,1.9075394 19.081063,1.3948254 18.15625,0.59498812 C 17.868809,0.20756746 17.512408,0.019990787 17.0625,0.032488121 C 16.787556,0.019990787 16.418659,0.10128145 15.96875,0.31373812 C 15.818781,0.41371746 15.518663,0.53876879 15.09375,0.68873812 C 13.810005,0.93133607 13.089172,1.139453 12.84375,1.2512381 C 12.413248,1.055387 12.041566,0.81590357 11.75,0.56373812 C 11.462559,0.17631747 11.106158,-0.011259213 10.65625,0.0012381206 C 10.381306,-0.011259213 10.012408,0.070031455 9.5625,0.28248812 C 9.4125307,0.38246747 9.143663,0.50751876 8.71875,0.65748812 C 7.4933568,0.88905891 6.7480676,1.1076084 6.46875,1.2199881 C 6.4602403,1.2159404 6.4459658,1.2240667 6.4375,1.2199881 C 6.0471326,1.0319174 5.7095002,0.79898165 5.4375,0.56373812 C 5.1500587,0.17631746 4.7936579,-0.011259212 4.34375,0.0012381206 z M 4.28125,0.43873812 C 4.9922694,0.46580545 5.373444,1.0905439 5.40625,2.2824881 C 5.40625,2.6199194 5.2936968,2.9450568 5.03125,3.2824881 C 4.7688033,3.6199194 4.6687602,3.9450576 4.71875,4.2824881 C 4.8437247,5.0573303 5.1626135,5.2324029 5.71875,4.8137381 C 6.2748867,4.3950736 6.7750849,4.3200314 7.1875,4.5324881 C 7.599916,4.7449456 8.0751181,5.0513241 8.65625,5.4699881 C 8.8367356,5.6000158 9.066091,5.7826965 9.28125,5.9699881 C 9.3768671,7.2359062 10.273324,8.4853195 11.96875,9.7512381 L 13.25,11.563738 C 11.156233,10.677205 9.1547094,9.8401972 7.90625,9.3137381 C 6.3503173,8.6576223 5.4937128,7.8135281 5.3125,6.7824881 C 5.1312867,5.751449 5.4939361,5.3387834 6.40625,5.5637381 L 6.40625,5.0949881 C 6.259405,5.0856152 6.1265366,5.0874701 6,5.0949881 C 5.1142435,5.1476143 4.7343972,5.6209489 4.84375,6.5012381 C 4.968724,7.5072836 5.3751399,8.2513406 6.0625,8.7512381 C 6.74986,9.251137 7.6439756,9.7513346 8.75,10.219988 C 9.8560247,10.688643 10.837674,11.0763 11.6875,11.376238 C 12.292856,11.589893 12.998148,11.896971 13.75,12.282488 L 14.1875,12.938738 C 14.149529,13.055572 14.100744,13.138882 14.0625,13.251238 L 13.75,13.501238 L 13.0625,12.094988 C 12.075202,12.144977 11.031034,12.044934 9.96875,11.782488 C 9.756294,12.669807 9.4811837,12.601026 9.15625,11.563738 C 6.8442213,9.9765623 5.3123405,8.7885843 4.53125,8.0324881 C 3.7501593,7.2763923 3.4062694,6.3447652 3.5,5.2512381 C 3.5937307,4.1577116 3.8563367,3.4824347 4.28125,3.2199881 C 4.7061633,2.9575421 4.9062499,2.5886441 4.90625,2.1262381 C 4.90625,1.7263201 4.3497752,1.4949708 3.25,1.4074881 C 3.0000507,1.2825134 2.9437679,1.1011921 3.03125,0.87623812 L 3.5,0.71998812 C 3.5,1.0074294 3.6313059,1.1574881 3.90625,1.1574881 C 4.0812147,1.1574881 4.1937555,1.0261947 4.21875,0.81373812 C 4.1937553,0.6512708 4.1062226,0.54497278 3.96875,0.46998812 C 4.0843514,0.4496798 4.1796758,0.43487136 4.28125,0.43873812 z M 10.625,0.43873812 C 11.33716,0.46334263 11.717194,1.0592939 11.75,2.2512381 C 11.75,2.5886694 11.606197,2.9450568 11.34375,3.2824881 C 11.081304,3.6199194 10.98126,3.9450573 11.03125,4.2824881 C 11.156225,5.0573303 11.506364,5.2324027 12.0625,4.8137381 C 12.618637,4.3950736 13.087585,4.2887812 13.5,4.5012381 C 13.912416,4.7136956 14.418868,5.0513239 15,5.4699881 C 15.205459,5.6180076 15.445037,5.8443954 15.6875,6.0637381 C 15.807234,7.309001 16.707237,8.5372246 18.375,9.7824881 L 19.59375,11.532488 C 17.490147,10.647148 15.502962,9.8420955 14.25,9.3137381 C 12.694068,8.6576223 11.837463,7.8135279 11.65625,6.7824881 C 11.475037,5.751449 11.837686,5.3387836 12.75,5.5637381 L 12.75,5.0949881 C 12.603155,5.085615 12.470808,5.0872059 12.34375,5.0949881 C 11.454343,5.1494632 11.046898,5.6209491 11.15625,6.5012381 C 11.281224,7.5072836 11.68764,8.2513404 12.375,8.7512381 C 13.06236,9.251137 13.956476,9.7200844 15.0625,10.188738 C 16.168525,10.657393 17.150175,11.045049 18,11.344988 C 18.598641,11.556273 19.313695,11.871411 20.0625,12.251238 L 20.5625,12.969988 C 20.540207,13.038581 20.522387,13.090439 20.5,13.157488 L 20.0625,13.501238 L 19.375,12.094988 C 18.387702,12.144977 17.374785,12.013685 16.3125,11.751238 C 16.100044,12.638557 15.824934,12.569776 15.5,11.532488 C 13.187972,9.9453124 11.624841,8.7885841 10.84375,8.0324881 C 10.06266,7.2763923 9.7187695,6.3447654 9.8125,5.2512381 C 9.9062307,4.1577116 10.168837,3.4824347 10.59375,3.2199881 C 11.018664,2.9575421 11.25,2.5886441 11.25,2.1262381 C 11.25,1.7263201 10.693526,1.4949709 9.59375,1.4074881 C 9.3438007,1.2825134 9.2562684,1.1011921 9.34375,0.87623812 L 9.84375,0.71998812 C 9.84375,1.0074294 9.9750556,1.1262381 10.25,1.1262381 C 10.424965,1.1262381 10.506256,1.0261948 10.53125,0.81373812 C 10.506256,0.6512708 10.449973,0.54497278 10.3125,0.46998812 C 10.428102,0.4496798 10.523263,0.43522319 10.625,0.43873812 z M 17.03125,0.46998812 C 17.74341,0.49459259 18.092194,1.0905438 18.125,2.2824881 C 18.125,2.6199194 18.012446,2.9763069 17.75,3.3137381 C 17.487554,3.6511694 17.38751,3.9763074 17.4375,4.3137381 C 17.562475,5.0885801 17.881363,5.2636528 18.4375,4.8449881 C 18.993637,4.4263234 19.493835,4.3200312 19.90625,4.5324881 C 20.318666,4.7449454 20.793868,5.082574 21.375,5.5012381 C 21.956131,5.9199028 22.706431,6.6076828 23.59375,7.5637381 C 24.48107,8.5197928 25.162594,9.3138718 25.625,9.9699881 C 26.087406,10.626105 26.450062,11.057534 26.75,11.282488 C 27.049939,11.507442 27.212508,11.788807 27.25,12.126238 C 24.388084,10.913985 22.180934,10.001105 20.625,9.3449881 C 19.069068,8.6888721 18.212463,7.8447779 18.03125,6.8137381 C 17.850037,5.7826988 18.212686,5.3700332 19.125,5.5949881 L 19.125,5.1262381 C 17.95024,5.0512534 17.437526,5.5264435 17.5625,6.5324881 C 17.687474,7.5385334 18.093891,8.2825905 18.78125,8.7824881 C 19.46861,9.2823868 20.362726,9.7825844 21.46875,10.251238 C 22.574775,10.719893 23.556423,11.076299 24.40625,11.376238 C 25.256078,11.676177 26.237732,12.145118 27.375,12.782488 L 26.46875,13.532488 L 25.75,12.126238 C 24.762702,12.176227 23.749783,12.076185 22.6875,11.813738 C 22.475044,12.701057 22.199935,12.601026 21.875,11.563738 C 19.562972,9.9765623 18.031092,8.8198341 17.25,8.0637381 C 16.46891,7.3076421 16.125018,6.3760155 16.21875,5.2824881 C 16.312481,4.1889614 16.575087,3.5136848 17,3.2512381 C 17.424914,2.9887921 17.625,2.6198942 17.625,2.1574881 C 17.625,1.7575701 17.068526,1.5262208 15.96875,1.4387381 C 15.718801,1.3137634 15.662518,1.1324421 15.75,0.90748812 L 16.21875,0.75123812 C 16.21875,1.0386794 16.350057,1.1574881 16.625,1.1574881 C 16.799965,1.1574881 16.912506,1.0574448 16.9375,0.84498812 C 16.912506,0.68252079 16.824974,0.57622278 16.6875,0.50123812 C 16.803102,0.48092979 16.929513,0.4664732 17.03125,0.46998812 z M 12.4375,1.5012381 C 12.724942,1.8386694 13.912926,2.2450847 16,2.7199881 L 16.59375,2.1262381 C 15.597793,2.0173905 14.743185,1.8680103 14,1.6574881 C 14.63196,1.691295 15.432423,1.7199881 15.78125,1.7199881 C 16.706062,1.8074701 17.156249,1.9762813 17.15625,2.1887381 C 17.181245,2.3886974 16.968655,2.6638067 16.5,3.0012381 C 16.058718,3.3189613 15.785295,4.1166952 15.6875,5.3762381 C 15.230147,4.9780833 14.76543,4.6202995 14.34375,4.3449881 C 13.587655,3.851339 12.924888,3.7637994 12.375,4.0637381 C 11.825112,4.363677 11.549996,4.4074495 11.53125,4.2199881 C 11.512504,4.0325263 11.656307,3.7761628 11.9375,3.4074881 C 12.218692,3.0388134 12.337495,2.6636667 12.3125,2.3137381 C 12.3125,2.1637688 12.26874,2.0262073 12.21875,1.8762381 C 12.393714,2.3011514 13.500408,2.9389169 15.5,3.8137381 L 15.9375,3.2512381 C 13.950406,2.5013914 12.774932,1.9011568 12.4375,1.5012381 z M 6.125,1.5324881 C 6.412442,1.8699194 7.600426,2.2763347 9.6875,2.7512381 L 10.25,2.1262381 C 9.226929,2.0144272 8.3733254,1.8483725 7.625,1.6262381 C 8.2410159,1.6588708 9.0322837,1.6887381 9.375,1.6887381 C 10.299812,1.7762201 10.78125,1.9450313 10.78125,2.1574881 C 10.806245,2.3574474 10.562405,2.6325569 10.09375,2.9699881 C 9.6525505,3.2876524 9.4103408,4.0858541 9.3125,5.3449881 C 8.8649162,4.9640205 8.4113616,4.613563 8,4.3449881 C 7.2439047,3.851339 6.6123879,3.7637992 6.0625,4.0637381 C 5.512612,4.363677 5.206246,4.4386993 5.1875,4.2512381 C 5.1687533,4.0637763 5.3125565,3.7761628 5.59375,3.4074881 C 5.874942,3.0388134 5.9937446,2.6636667 5.96875,2.3137381 C 5.96875,2.1637688 5.9562393,2.0262074 5.90625,1.8762381 C 6.081214,2.3011514 7.1566577,2.9389168 9.15625,3.8137381 L 9.59375,3.2512381 C 7.6066553,2.5013914 6.4624315,1.9324068 6.125,1.5324881 z M 13.09375,10.438738 C 13.493668,10.751175 14.012625,11.138825 14.625,11.563738 C 14.687487,11.926164 14.668734,12.263799 14.59375,12.563738 C 13.831406,11.538947 13.331202,10.813662 13.09375,10.438738 z M 6.78125,10.469988 C 7.181168,10.782425 7.6688742,11.138825 8.28125,11.563738 C 8.3437367,11.926164 8.3562339,12.263799 8.28125,12.563738 C 7.5189053,11.538947 7.0187011,10.844912 6.78125,10.469988 z M 19.5,10.501238 C 19.899918,10.813675 20.387626,11.170075 21,11.594988 C 21.062487,11.957414 21.074984,12.295049 21,12.594988 C 20.237656,11.570197 19.737451,10.876162 19.5,10.501238 z M 15.09375,11.907488 C 15.331202,12.232421 15.462507,12.520035 15.5,12.751238 C 15.537492,12.982441 15.575011,13.232549 15.625,13.532488 C 15.87495,15.257136 15.849942,16.520144 15.5625,17.282488 C 15.300054,17.582427 15.012427,17.651202 14.65625,17.469988 C 14.300072,17.288775 13.943679,17.338796 13.59375,17.626238 C 13.59375,17.463771 13.381166,17.33872 12.96875,17.251238 C 13.306181,16.538883 13.650078,15.863613 14.03125,15.251238 C 14.412422,14.638863 14.687526,14.032361 14.8125,13.407488 C 15.06245,13.207529 15.156238,12.969937 15.09375,12.719988 L 15.09375,11.907488 z M 8.75,11.938738 C 8.9874513,12.263671 9.1187571,12.520035 9.15625,12.751238 C 9.193742,12.982441 9.2625103,13.263799 9.3125,13.563738 C 9.5624493,15.288386 9.5374412,16.520144 9.25,17.282488 C 8.9875533,17.582427 8.6686771,17.651201 8.3125,17.469988 C 7.956322,17.288775 7.5999289,17.338797 7.25,17.626238 C 7.25,17.463771 7.0374153,17.338719 6.625,17.251238 C 6.9624307,16.538883 7.3375771,15.863613 7.71875,15.251238 C 8.099922,14.638863 8.3437756,14.032361 8.46875,13.407488 C 8.7186993,13.207529 8.8124872,12.969937 8.75,12.719988 L 8.75,11.938738 z M 21.46875,11.938738 C 21.706202,12.263671 21.837508,12.551285 21.875,12.782488 C 21.912492,13.013691 21.95001,13.295049 22,13.594988 C 22.24995,15.319636 22.256191,16.551394 21.96875,17.313738 C 21.706304,17.613677 21.387428,17.682452 21.03125,17.501238 C 20.675072,17.320025 20.318678,17.370048 19.96875,17.657488 C 19.96875,17.495021 19.756166,17.36997 19.34375,17.282488 C 19.681181,16.570133 20.056327,15.894863 20.4375,15.282488 C 20.818672,14.670113 21.062526,14.063611 21.1875,13.438738 C 21.43745,13.238779 21.531238,13.001187 21.46875,12.751238 L 21.46875,11.938738 z M 16.625,12.313738 C 17.41234,12.45121 18.200163,12.532488 19,12.532488 C 19.299939,12.857421 19.600056,13.445159 19.875,14.282488 L 20.15625,14.032488 C 19.455654,15.864306 18.726695,16.997426 17.9375,17.376238 L 16.84375,17.219988 C 16.643229,17.258183 16.49527,17.32552 16.375,17.407488 C 16.364799,17.404623 16.353178,17.409994 16.34375,17.407488 C 16.31311,17.399343 16.286832,17.384609 16.25,17.376238 C 16.324986,16.563903 16.349994,15.282131 16.3125,13.532488 C 16.337495,12.970103 16.450035,12.563687 16.625,12.313738 z M 10.28125,12.344988 C 11.068589,12.48246 11.887664,12.532488 12.6875,12.532488 C 12.987439,12.857421 13.256306,13.445159 13.53125,14.282488 L 13.75,14.094988 C 13.059401,15.873661 12.338833,16.972349 11.5625,17.344988 L 10.4375,17.188738 C 10.208746,17.232311 10.061813,17.306948 9.9375,17.407488 C 10.012485,16.595153 10.037493,15.313381 10,13.563738 C 10.024995,13.001353 10.106286,12.594938 10.28125,12.344988 z "
     id="path2316" />
</svg>
