<?xml version="1.0" encoding="UTF-8" standalone="no"?>
<svg
   xmlns:dc="http://purl.org/dc/elements/1.1/"
   xmlns:cc="http://web.resource.org/cc/"
   xmlns:rdf="http://www.w3.org/1999/02/22-rdf-syntax-ns#"
   xmlns:svg="http://www.w3.org/2000/svg"
   xmlns="http://www.w3.org/2000/svg"
   xmlns:sodipodi="http://sodipodi.sourceforge.net/DTD/sodipodi-0.dtd"
   xmlns:inkscape="http://www.inkscape.org/namespaces/inkscape"
   width="25.891609"
   height="20.6875"
   id="svg2338"
   sodipodi:version="0.32"
   inkscape:version="0.45"
   sodipodi:docname="Aa75.svg"
   inkscape:output_extension="org.inkscape.output.svg.inkscape"
   sodipodi:docbase="C:\Program Files\JSesh\fontsGroupeG"
   sodipodi:modified="true"
   version="1.0">
  <metadata
     id="metadata2345">
    <rdf:RDF>
      <cc:Work
         rdf:about="">
        <dc:format>image/svg+xml</dc:format>
        <dc:type
           rdf:resource="http://purl.org/dc/dcmitype/StillImage" />
      </cc:Work>
    </rdf:RDF>
  </metadata>
  <defs
     id="defs2343" />
  <sodipodi:namedview
     inkscape:window-height="708"
     inkscape:window-width="1024"
     inkscape:pageshadow="2"
     inkscape:pageopacity="0.0"
     guidetolerance="10.0"
     gridtolerance="10.0"
     objecttolerance="10.0"
     borderopacity="1.0"
     bordercolor="#666666"
     pagecolor="#ffffff"
     id="base"
     inkscape:zoom="14.202806"
     inkscape:cx="12.823132"
     inkscape:cy="6.3104081"
     inkscape:window-x="-4"
     inkscape:window-y="-4"
     inkscape:current-layer="svg2338" />
  <path
     style="fill:#000000;stroke:none"
     d="M 10.047858,0 C 8.212103,0 7.1057306,0.619912 6.7353584,1.84375 L 0.17285837,5.46875 C -0.13310103,5.8713273 -0.028985633,6.0483091 0.45410837,6 C 4.866363,4.115935 7.3441025,3.143016 7.8916084,3.0625 C 6.5067404,4.334646 5.9161648,5.7131078 6.1416084,7.21875 C 6.3670517,8.724392 7.7010288,9.9561661 10.172858,10.90625 C 12.644687,11.856334 14.526668,12.68161 15.766608,13.40625 C 13.624894,13.454559 12.075589,13.425222 11.141608,13.3125 C 10.207627,13.199778 8.6006042,13.465728 6.2978584,14.09375 C 5.4665349,13.981028 4.9766029,14.081722 4.8603584,14.4375 L 0.82910837,14.4375 L 0.82910837,15.65625 L 19.297858,15.65625 L 24.547858,20.65625 L 24.547858,20.6875 L 25.860358,20.65625 L 25.860358,14.4375 L 17.329108,14.4375 C 17.589274,14.344089 17.717142,14.173914 17.672858,13.875 L 17.141608,12.1875 C 18.365446,12.026469 19.301932,11.886877 19.954108,11.75 C 20.606284,11.613124 21.542771,12.055099 22.766608,13.09375 C 23.990446,14.132401 25.022041,13.726859 25.891608,11.875 C 25.376309,11.166463 24.920142,10.59199 24.485358,10.125 C 25.129483,10.012278 25.335801,9.7908119 25.110358,9.46875 C 24.482336,9.050068 23.310193,8.5120294 21.579108,7.84375 C 19.848023,7.1754706 17.302601,6.431112 13.985358,5.59375 C 12.181809,5.2555846 10.795296,5.2333423 9.8291084,5.53125 C 8.862921,5.829158 8.3916086,5.8433483 8.3916084,5.59375 C 8.3916084,5.344152 8.9083616,4.7909654 9.9228584,3.9375 C 10.937355,3.084034 11.36514,2.154643 11.204108,1.15625 C 13.506854,2.251262 15.424312,2.811544 16.954108,2.84375 L 16.829108,1.03125 C 13.205906,0.821909 10.949633,0.483093 10.047858,0 z M 9.2041084,0.5625 C 9.4476682,0.578603 9.689363,0.633253 9.9228584,0.75 C 10.389849,0.983495 10.611315,1.3597 10.579108,1.875 C 10.546902,2.3903 10.067537,3.046646 9.1416084,3.84375 C 8.2156784,4.6408543 7.7292192,5.2243343 7.6728584,5.5625 C 7.6164977,5.9006653 7.7125618,6.1737101 7.9541084,6.375 C 8.195655,6.5762886 9.1098986,6.4205934 10.704108,5.9375 C 9.2709304,6.4205933 8.5478584,7.0263151 8.5478584,7.71875 C 8.5478584,8.298462 9.1526248,8.7697753 10.360358,9.15625 C 13.35554,9.9292 17.869043,10.327647 23.891608,10.34375 C 24.519631,10.778535 24.991899,11.294331 25.297858,11.90625 C 24.782559,13.210603 23.970518,13.365342 22.891608,12.375 C 21.812699,11.384659 20.884264,10.964925 20.079108,11.09375 C 19.273953,11.222575 18.285887,11.355072 17.110358,11.5 C 16.997637,11.403381 16.717496,11.270884 16.266608,11.09375 L 17.047858,13.78125 C 17.096168,13.974487 16.992052,14.138235 16.766608,14.21875 L 16.016608,13.71875 C 16.43529,13.622131 16.524258,13.415812 16.266608,13.09375 C 15.944546,12.675069 14.321419,11.907513 11.422858,10.8125 C 8.5242964,9.717488 6.9678972,8.4947213 6.7666084,7.09375 C 6.565319,5.6927786 7.1932839,4.37913 8.6103584,3.1875 C 8.6103584,2.784922 8.2422048,2.579559 7.4853584,2.53125 L 7.2041084,1.9375 C 7.5422737,1.261169 7.9781102,0.825332 8.4853584,0.65625 C 8.7389827,0.571708 8.9605486,0.546397 9.2041084,0.5625 z M 11.735358,0.90625 C 14.263548,1.518168 15.737118,1.769928 16.204108,1.625 L 16.360358,2.21875 C 15.44248,2.154338 13.909279,1.711406 11.735358,0.90625 z M 8.3291084,0.96875 C 8.1811609,0.977808 8.043632,1.06884 7.9228584,1.25 C 7.8584457,1.523753 7.9322668,1.716837 8.1416084,1.78125 C 8.5119797,1.845662 8.7182991,1.741546 8.7666084,1.5 C 8.8149177,1.210144 8.726905,1.048309 8.4853584,1 C 8.4330232,0.983897 8.3784242,0.965731 8.3291084,0.96875 z M 12.735358,6.125 C 13.500256,6.1008453 15.926416,6.6833694 20.016608,7.875 C 22.979583,8.9539093 24.484402,9.544484 24.516608,9.625 C 24.049616,9.7216186 22.471932,9.7509564 19.766608,9.71875 C 12.713442,9.1390373 9.1728582,8.4604492 9.1728584,7.6875 C 9.1889617,7.397644 9.5945048,7.0810708 10.391608,6.71875 C 11.188713,6.35643 11.97046,6.1491547 12.735358,6.125 z M 9.9228584,13.78125 L 16.016608,14.4375 L 12.641608,14.4375 C 12.3749,14.339372 11.898555,14.279137 11.204108,14.21875 L 9.9228584,13.78125 z M 20.922858,15.65625 L 24.579108,15.65625 L 24.579108,19.0625 L 20.922858,15.65625 z "
     id="path2340" />
</svg>
