<?xml version="1.0" encoding="UTF-8" standalone="no"?>
<svg
   width="1795.6324"
   height="1434.7177"
   id="svg2338"
   sodipodi:version="0.32"
   inkscape:version="1.4 (e7c3feb1, 2024-10-09)"
   sodipodi:docname="G217.svg"
   inkscape:output_extension="org.inkscape.output.svg.inkscape"
   sodipodi:modified="true"
   version="1.0"
   xmlns:inkscape="http://www.inkscape.org/namespaces/inkscape"
   xmlns:sodipodi="http://sodipodi.sourceforge.net/DTD/sodipodi-0.dtd"
   xmlns="http://www.w3.org/2000/svg"
   xmlns:svg="http://www.w3.org/2000/svg"
   xmlns:rdf="http://www.w3.org/1999/02/22-rdf-syntax-ns#"
   xmlns:cc="http://creativecommons.org/ns#"
   xmlns:dc="http://purl.org/dc/elements/1.1/">
  <metadata
     id="metadata2345">
    <rdf:RDF>
      <cc:Work
         rdf:about="">
        <dc:format>image/svg+xml</dc:format>
        <dc:type
           rdf:resource="http://purl.org/dc/dcmitype/StillImage" />
      </cc:Work>
    </rdf:RDF>
  </metadata>
  <defs
     id="defs2343" />
  <sodipodi:namedview
     inkscape:window-height="847"
     inkscape:window-width="1392"
     inkscape:pageshadow="2"
     inkscape:pageopacity="0.0"
     guidetolerance="10.0"
     gridtolerance="10.0"
     objecttolerance="10.0"
     borderopacity="1.0"
     bordercolor="#666666"
     pagecolor="#ffffff"
     id="base"
     inkscape:zoom="0.14201125"
     inkscape:cx="1809.7158"
     inkscape:cy="1035.1292"
     inkscape:window-x="53"
     inkscape:window-y="25"
     inkscape:current-layer="svg2338"
     inkscape:showpageshadow="2"
     inkscape:pagecheckerboard="0"
     inkscape:deskcolor="#d1d1d1"
     inkscape:window-maximized="0"
     showguides="true" />
  <path
     style="fill:#000000;stroke:none;stroke-width:69.3522"
     d="M 696.83811,0 C 569.525,0 492.79596,42.992079 467.10994,127.86758 L 11.988057,379.26824 c -21.2188674,27.9195 -13.9982657,40.19353 19.505223,36.84319 305.99827,-130.6635 477.83422,-198.13728 515.8048,-203.72122 -96.04323,88.22575 -137.00077,183.82471 -121.36583,288.24387 15.63492,104.41913 108.14877,189.84501 279.57485,255.73515 171.42603,65.89011 301.945,123.12461 387.9372,173.37978 -148.53193,3.35034 -255.97916,1.31559 -320.75258,-6.50178 -64.77336,-7.81744 -176.22343,10.6267 -335.92324,54.18119 -57.65386,-7.81751 -91.63158,-0.83429 -99.69336,23.83968 H 57.500245 v 84.5227 H 1338.3432 l 364.0975,346.7595 v 2.1673 l 91.0244,-2.1673 v -431.2822 h -591.6584 c 18.043,-6.47811 26.9109,-18.28017 23.8397,-39.01039 l -36.8432,-117.03137 c 84.8755,-11.16778 149.8226,-20.84874 195.0522,-30.34142 45.2297,-9.49261 110.1768,21.15915 195.0522,93.1916 84.8756,72.03245 156.4186,43.90735 216.7248,-84.52261 -35.737,-49.13841 -67.373,-88.97923 -97.5262,-121.36587 44.6713,-7.8175 58.9799,-23.17658 43.345,-45.51218 -43.5545,-29.0364 -124.8449,-66.3504 -244.8989,-112.69685 -120.0541,-46.34645 -296.5839,-97.96914 -526.6411,-156.04178 -125.07954,-23.45242 -221.23686,-24.99497 -288.2438,-4.3345 -67.00694,20.66049 -99.69335,21.64462 -99.69336,4.3345 0,-17.3101 35.83782,-55.67465 106.1951,-114.8641 C 758.52639,213.88363 788.19413,149.4286 777.02622,80.188143 936.72605,156.12931 1069.7054,194.98593 1175.7997,197.21948 l -8.669,-125.700326 C 915.85477,57.000956 759.37795,33.50342 696.83811,0 Z m -58.51565,39.010447 c 16.89134,1.116774 33.65333,4.906856 49.84668,13.003482 32.38668,16.193324 47.74575,42.28386 45.51217,78.020901 -2.23359,35.73703 -35.47845,81.25588 -99.69335,136.53656 -64.21501,55.2807 -97.95187,95.74615 -101.86061,119.19859 -3.90871,23.4524 2.75351,42.38859 19.50523,56.34842 16.75171,13.95975 80.15626,3.16199 190.71772,-30.34146 -99.3936,33.50344 -149.54002,75.5114 -149.54002,123.53308 0,40.20414 41.9417,72.89061 125.70032,99.69337 207.72156,53.60555 520.7416,81.2386 938.4179,82.35536 43.5547,30.1532 76.3073,65.92465 97.5262,108.36238 -35.737,90.45939 -92.0536,101.19081 -166.8781,32.5087 -74.8243,-68.68204 -139.2131,-97.79137 -195.0522,-88.8571 -55.8391,8.93426 -124.3632,18.12318 -205.8884,28.1742 -7.8175,-6.70082 -27.2458,-15.88967 -58.5157,-28.1742 l 54.1812,186.3832 c 3.3504,13.40136 -3.8706,24.75763 -19.5052,30.34148 l -52.014,-34.67598 c 29.0364,-6.70075 35.2065,-21.00929 17.338,-43.34491 C 1105.7846,879.04022 993.21774,825.80872 792.19699,749.86745 591.1762,673.92631 483.23695,589.12512 469.27719,491.96509 455.31739,394.80505 498.86795,303.70101 597.14477,221.0592 c 0,-27.91955 -25.53216,-42.16187 -78.0209,-45.51219 l -19.50522,-41.17769 c 23.4524,-46.904844 53.6785,-77.130973 88.85713,-88.857132 17.58932,-5.863149 32.95535,-7.618515 49.84668,-6.501741 z m 175.54695,23.839718 c 175.33485,42.437685 277.52969,59.897715 309.91639,49.846685 l 10.8362,41.1777 c -63.6565,-4.4671 -169.98701,-35.18528 -320.75259,-91.024385 z m -236.22987,4.334494 c -10.26044,0.62819 -19.79833,6.941435 -28.17421,19.505223 -4.46714,18.985288 0.65249,32.376038 15.17073,36.843198 25.68596,4.4671 39.9946,-2.75355 43.34494,-19.50522 3.35034,-20.102067 -2.7535,-31.325629 -19.50522,-34.675955 -3.62955,-1.116773 -7.41609,-2.37662 -10.83624,-2.167246 z M 883.22138,424.78042 c 53.0471,-1.67519 221.30592,38.72399 504.96852,121.36584 205.4879,74.82442 309.85,115.7819 312.0836,121.36583 -32.3868,6.70072 -141.8022,8.73532 -329.4216,6.50175 -489.15048,-40.20418 -734.6967,-87.26556 -734.69669,-140.87107 1.1168,-20.10206 29.24199,-42.05701 84.5226,-67.18465 55.28075,-25.12758 109.49641,-39.50252 162.54357,-41.1777 z M 688.16914,955.75593 1110.7823,1001.2681 H 876.7196 c -18.49671,-6.80545 -51.53213,-10.98273 -99.69338,-15.17069 z m 762.87096,130.03487 h 253.5679 v 236.2299 z"
     id="path2340" />
</svg>
