<?xml version="1.0" encoding="UTF-8" standalone="no"?>
<svg
   xmlns:dc="http://purl.org/dc/elements/1.1/"
   xmlns:cc="http://web.resource.org/cc/"
   xmlns:rdf="http://www.w3.org/1999/02/22-rdf-syntax-ns#"
   xmlns:svg="http://www.w3.org/2000/svg"
   xmlns="http://www.w3.org/2000/svg"
   xmlns:sodipodi="http://sodipodi.sourceforge.net/DTD/sodipodi-0.dtd"
   xmlns:inkscape="http://www.inkscape.org/namespaces/inkscape"
   width="43.339565"
   height="14.690389"
   id="svg2160"
   sodipodi:version="0.32"
   inkscape:version="0.45"
   sodipodi:docname="G215.svg"
   inkscape:output_extension="org.inkscape.output.svg.inkscape"
   sodipodi:docbase="C:\Program Files\JSesh\fontsGroupeG"
   sodipodi:modified="true"
   version="1.0">
  <metadata
     id="metadata2167">
    <rdf:RDF>
      <cc:Work
         rdf:about="">
        <dc:format>image/svg+xml</dc:format>
        <dc:type
           rdf:resource="http://purl.org/dc/dcmitype/StillImage" />
      </cc:Work>
    </rdf:RDF>
  </metadata>
  <defs
     id="defs2165" />
  <sodipodi:namedview
     inkscape:window-height="708"
     inkscape:window-width="1024"
     inkscape:pageshadow="2"
     inkscape:pageopacity="0.0"
     guidetolerance="10.0"
     gridtolerance="10.0"
     objecttolerance="10.0"
     borderopacity="1.0"
     bordercolor="#666666"
     pagecolor="#ffffff"
     id="base"
     inkscape:zoom="21.666115"
     inkscape:cx="21.669782"
     inkscape:cy="7.3451945"
     inkscape:window-x="-4"
     inkscape:window-y="-4"
     inkscape:current-layer="svg2160" />
  <path
     style="fill:#000000;stroke:none"
     d="M 10.058314,0 C 8.2225589,0 7.1161861,0.61991272 6.7458142,1.84375 L 0.18331415,5.46875 C -0.12264518,5.8713273 -0.049779839,6.0483096 0.43331415,6 C 4.8455689,4.1159353 7.323308,3.111766 7.8708142,3.03125 C 6.4859462,4.3033967 5.9266208,5.7131078 6.1520642,7.21875 C 6.3775075,8.724392 7.7114844,9.9561663 10.183314,10.90625 C 12.655143,11.856334 14.505874,12.68161 15.745814,13.40625 C 13.604099,13.454559 12.086045,13.425222 11.152064,13.3125 C 10.218083,13.199778 8.5798102,13.465728 6.2770642,14.09375 C 5.3269802,13.964925 4.8556677,14.141907 4.8395642,14.625 C 5.1616269,14.480072 5.3759967,14.442683 5.4645642,14.53125 C 5.5531309,14.619817 5.82522,14.641103 6.3083142,14.625 L 12.902064,14.625 C 12.885961,14.431763 12.325679,14.284118 11.214564,14.1875 L 9.9333142,13.78125 L 13.839564,14.1875 C 13.670705,14.282553 13.565024,14.423711 13.558314,14.625 C 13.880377,14.480072 14.094747,14.442683 14.183314,14.53125 C 14.271881,14.619817 14.54397,14.641103 15.027064,14.625 L 21.620814,14.625 C 21.604711,14.431762 21.044428,14.315368 19.933314,14.21875 L 18.652064,13.78125 L 22.558314,14.1875 C 22.384419,14.292265 22.283873,14.452001 22.277064,14.65625 C 22.599127,14.511322 22.782247,14.473933 22.870814,14.5625 C 22.959381,14.651067 23.262721,14.703603 23.745814,14.6875 L 30.339564,14.6875 C 30.323461,14.494262 29.763179,14.346618 28.652064,14.25 L 27.370814,13.84375 L 34.308314,14.5625 C 34.888026,14.5625 35.153974,14.341034 35.089564,13.90625 L 34.558314,12.25 C 35.782152,12.088969 36.718638,11.918126 37.370814,11.78125 C 38.02299,11.644374 38.959478,12.117599 40.183314,13.15625 C 41.407152,14.194901 42.469996,13.789358 43.339564,11.9375 C 42.824265,11.228962 42.336848,10.62324 41.902064,10.15625 C 42.546189,10.043528 42.752507,9.8220619 42.527064,9.5 C 41.899042,9.081318 40.7269,8.5432793 38.995814,7.875 C 37.264729,7.2067206 34.750557,6.462362 31.433314,5.625 C 29.629765,5.2868346 28.243253,5.2645927 27.277064,5.5625 C 26.310877,5.860408 25.808314,5.8745987 25.808314,5.625 C 25.808314,5.375402 26.325069,4.8222153 27.339564,3.96875 C 28.354061,3.1152846 28.781846,2.2171433 28.620814,1.21875 C 30.92356,2.313762 32.841016,2.8740441 34.370814,2.90625 L 34.277064,1.09375 C 30.653862,0.88440931 28.39759,0.51434333 27.495814,0.03125 C 26.187839,0.03125 25.247379,0.34746133 24.683314,0.96875 C 21.601665,0.75694085 19.598962,0.44030221 18.777064,0 C 17.446142,0 16.493994,0.32547047 15.933314,0.96875 C 12.870687,0.75598957 10.877032,0.43859862 10.058314,0 z M 8.8395642,0.5625 C 9.2145312,0.51036462 9.5830715,0.574879 9.9333142,0.75 C 10.400305,0.98349533 10.62177,1.3597 10.589564,1.875 C 10.557358,2.3903 10.077993,3.0466461 9.1520642,3.84375 C 8.2261342,4.6408547 7.7396747,5.2243348 7.6833142,5.5625 C 7.6269535,5.9006653 7.7230173,6.1737107 7.9645642,6.375 C 8.2061109,6.5762887 9.1203551,6.4205934 10.714564,5.9375 C 9.2813862,6.4205933 8.5583144,7.0263156 8.5583142,7.71875 C 8.5583142,8.298462 9.1630813,8.7697753 10.370814,9.15625 C 12.116965,9.6068696 14.438581,9.9008678 17.214564,10.09375 C 17.70657,10.379457 18.257136,10.658362 18.902064,10.90625 C 19.13861,10.99717 19.301799,11.067395 19.527064,11.15625 C 18.821002,11.26316 18.074389,11.382436 17.120814,11.5 C 17.008093,11.403381 16.696701,11.270884 16.245814,11.09375 L 16.964564,13.625 C 16.718247,13.677028 16.453291,13.747668 16.183314,13.8125 L 16.152064,13.8125 L 16.027064,13.71875 C 16.445745,13.622131 16.503464,13.415812 16.245814,13.09375 C 15.923751,12.675069 14.331876,11.907513 11.433314,10.8125 C 8.5347522,9.717488 6.9783528,8.4634713 6.7770642,7.0625 C 6.5757749,5.6615287 7.1724894,4.3791308 8.5895642,3.1875 C 8.5895642,2.784922 8.2214109,2.5483092 7.4645642,2.5 L 7.2145642,1.9375 C 7.5527295,1.2611693 7.9573167,0.82533266 8.4645642,0.65625 C 8.5913764,0.61397933 8.7145752,0.57987846 8.8395642,0.5625 z M 17.558314,0.5625 C 17.931202,0.51117125 18.301822,0.57487899 18.652064,0.75 C 19.119055,0.98349533 19.340521,1.3597 19.308314,1.875 C 19.276108,2.3903 18.796744,3.0466459 17.870814,3.84375 C 16.944884,4.6408546 16.458425,5.2243345 16.402064,5.5625 C 16.345704,5.9006653 16.441768,6.1737104 16.683314,6.375 C 16.924861,6.5762886 17.839104,6.4205932 19.433314,5.9375 C 18.000136,6.4205933 17.277065,7.0263153 17.277064,7.71875 C 17.277064,8.298462 17.88183,8.7697755 19.089564,9.15625 C 20.806224,9.5992588 23.092921,9.8998034 25.808314,10.09375 C 26.322906,10.401875 26.931554,10.672573 27.620814,10.9375 C 27.832866,11.019005 27.980328,11.076404 28.183314,11.15625 C 27.491848,11.26009 26.768859,11.38543 25.839564,11.5 C 25.726843,11.403381 25.446703,11.270884 24.995814,11.09375 L 25.714564,13.625 C 25.446984,13.680699 25.166836,13.741409 24.870814,13.8125 L 24.745814,13.71875 C 25.164496,13.62213 25.253465,13.415812 24.995814,13.09375 C 24.673752,12.675069 23.050625,11.907512 20.152064,10.8125 C 17.253502,9.7174878 15.697103,8.4947215 15.495814,7.09375 C 15.294525,5.6927786 15.922491,4.3791305 17.339564,3.1875 C 17.339564,2.784922 16.940161,2.5483092 16.183314,2.5 L 15.933314,1.9375 C 16.27148,1.2611693 16.676066,0.82533265 17.183314,0.65625 C 17.310126,0.61397933 17.434018,0.57960958 17.558314,0.5625 z M 26.652064,0.59375 C 26.895624,0.609853 27.137319,0.69575267 27.370814,0.8125 C 27.837805,1.0459953 28.05927,1.4221999 28.027064,1.9375 C 27.994858,2.4528 27.515495,3.1091461 26.589564,3.90625 C 25.663634,4.7033546 25.145924,5.2555847 25.089564,5.59375 C 25.033204,5.9319153 25.129268,6.2049606 25.370814,6.40625 C 25.612361,6.6075386 26.526605,6.4830933 28.120814,6 C 26.687636,6.4830933 25.995814,7.0575655 25.995814,7.75 C 25.995814,8.329712 26.600581,8.8010257 27.808314,9.1875 C 30.803496,9.96045 35.317,10.358897 41.339564,10.375 C 41.967587,10.809784 42.408605,11.356831 42.714564,11.96875 C 42.199265,13.273102 41.418475,13.427842 40.339564,12.4375 C 39.260655,11.447158 38.30097,10.996175 37.495814,11.125 C 36.690659,11.253824 35.702594,11.386322 34.527064,11.53125 C 34.414343,11.434631 34.134204,11.302134 33.683314,11.125 L 34.464564,13.84375 C 34.512874,14.036987 34.40876,14.169484 34.183314,14.25 L 33.464564,13.75 C 33.883246,13.65338 33.940966,13.447062 33.683314,13.125 C 33.361252,12.706319 31.769376,11.970012 28.870814,10.875 C 25.972252,9.7799879 24.415854,8.5259712 24.214564,7.125 C 24.013275,5.7240286 24.60999,4.4103807 26.027064,3.21875 C 26.027064,2.816172 25.658912,2.6108094 24.902064,2.5625 L 24.620814,1.96875 C 24.95898,1.2924193 25.394815,0.88783267 25.902064,0.71875 C 26.155689,0.63420867 26.408504,0.577647 26.652064,0.59375 z M 11.714564,0.90625 C 13.529792,1.3456046 14.805658,1.6067542 15.558314,1.65625 C 15.533534,1.719812 15.484918,1.7764917 15.464564,1.84375 L 15.183314,2 C 14.2949,1.7915214 13.15256,1.4388409 11.714564,0.90625 z M 20.433314,0.90625 C 22.248542,1.3456046 23.522422,1.6017353 24.277064,1.65625 C 24.247406,1.729471 24.206986,1.7967796 24.183314,1.875 L 23.933314,2 C 23.037067,1.7899294 21.881338,1.4425552 20.433314,0.90625 z M 8.3395642,0.96875 C 8.1916167,0.97780789 8.0540876,1.06884 7.9333142,1.25 C 7.8689015,1.5237533 7.9427233,1.6855874 8.1520642,1.75 C 8.5224355,1.814412 8.7287551,1.7415467 8.7770642,1.5 C 8.8253735,1.210144 8.7373611,1.0483093 8.4958142,1 C 8.443479,0.98389683 8.38888,0.9657307 8.3395642,0.96875 z M 17.058314,0.96875 C 16.910367,0.97780787 16.772838,1.0688399 16.652064,1.25 C 16.587652,1.5237533 16.661472,1.6855873 16.870814,1.75 C 17.241186,1.814412 17.447506,1.7415466 17.495814,1.5 C 17.544124,1.210144 17.456112,1.0483093 17.214564,1 C 17.162229,0.98389683 17.10763,0.96573071 17.058314,0.96875 z M 29.152064,0.96875 C 31.680254,1.5806686 33.185072,1.8011786 33.652064,1.65625 L 33.777064,2.28125 C 32.859186,2.216838 31.325986,1.773906 29.152064,0.96875 z M 25.745814,1.03125 C 25.597867,1.0403079 25.491587,1.13134 25.370814,1.3125 C 25.306402,1.5862533 25.380223,1.7480873 25.589564,1.8125 C 25.959936,1.876912 26.166255,1.7727966 26.214564,1.53125 C 26.262874,1.241394 26.143611,1.0795593 25.902064,1.03125 C 25.849729,1.0151468 25.79513,1.0282307 25.745814,1.03125 z M 11.183314,1.15625 C 12.364157,1.7177699 13.424726,2.1553115 14.402064,2.4375 L 8.9020642,5.46875 C 8.8128261,5.5861684 8.767928,5.6709383 8.7458142,5.75 C 8.5112909,5.7604086 8.3708141,5.7162562 8.3708142,5.59375 C 8.3708142,5.344152 8.8875676,4.7909654 9.9020642,3.9375 C 10.916561,3.0840347 11.344345,2.1546433 11.183314,1.15625 z M 19.902064,1.15625 C 21.093588,1.7228488 22.167183,2.1563168 23.152064,2.4375 L 17.589564,5.5 C 17.500671,5.616965 17.486851,5.702346 17.464564,5.78125 C 17.238085,5.7858914 17.120815,5.715481 17.120814,5.59375 C 17.120814,5.344152 17.606318,4.7909654 18.620814,3.9375 C 19.635311,3.0840346 20.063097,2.1546433 19.902064,1.15625 z M 16.589564,3.03125 C 15.632643,3.9102824 15.090129,4.8532332 14.902064,5.84375 C 14.581028,5.7596774 14.339758,5.6805707 13.995814,5.59375 C 12.776289,5.3650892 11.768737,5.1953009 10.933314,5.25 C 14.029477,3.9444435 16.136724,3.0978446 16.589564,3.03125 z M 25.308314,3.09375 C 24.371902,3.9539431 23.820973,4.8768 23.620814,5.84375 C 23.294103,5.7589069 23.058521,5.680574 22.714564,5.59375 C 21.392035,5.3457758 20.305807,5.2813178 19.433314,5.375 C 22.679503,4.0085688 24.843817,3.1620587 25.308314,3.09375 z M 12.745814,6.125 C 13.085111,6.1142854 13.812285,6.2401985 14.808314,6.46875 C 14.801197,6.7130213 14.833269,6.9680027 14.870814,7.21875 C 14.990554,8.0184392 15.429875,8.7320322 16.183314,9.375 C 11.59222,8.8771815 9.1833142,8.3110778 9.1833142,7.6875 C 9.1994175,7.397644 9.6049613,7.0498208 10.402064,6.6875 C 11.199169,6.32518 11.980916,6.1491548 12.745814,6.125 z M 21.464564,6.125 C 21.804073,6.1142786 22.531421,6.2400066 23.527064,6.46875 C 23.516761,6.7269275 23.51857,6.9845657 23.558314,7.25 C 23.671036,8.002821 24.071496,8.6985685 24.745814,9.3125 C 20.279067,8.8201114 17.902064,8.3021539 17.902064,7.6875 C 17.918168,7.397644 18.32371,7.0810706 19.120814,6.71875 C 19.917919,6.35643 20.699666,6.1491545 21.464564,6.125 z M 30.183314,6.15625 C 30.948212,6.1320953 33.374371,6.7146193 37.464564,7.90625 C 40.427539,8.9851593 41.932358,9.5757339 41.964564,9.65625 C 41.497572,9.7528686 39.888638,9.7822068 37.183314,9.75 C 30.130148,9.1702873 26.620815,8.4916992 26.620814,7.71875 C 26.636918,7.428894 27.042461,7.1123208 27.839564,6.75 C 28.636669,6.38768 29.418415,6.1804047 30.183314,6.15625 z M 20.183314,11.71875 C 20.816202,11.725851 21.674956,12.18493 22.745814,13.09375 C 22.887298,13.213825 23.046565,13.324806 23.183314,13.40625 C 21.756328,13.414531 20.587219,13.398963 19.870814,13.3125 C 19.327726,13.246955 18.532952,13.315088 17.527064,13.5 L 17.120814,12.1875 C 18.344651,12.026469 19.281138,11.886876 19.933314,11.75 C 20.014836,11.732891 20.092901,11.717736 20.183314,11.71875 z M 28.902064,11.71875 C 29.540934,11.725851 30.424957,12.18493 31.495814,13.09375 C 31.648794,13.223581 31.786283,13.321554 31.933314,13.40625 C 31.942187,13.411361 31.955713,13.432553 31.964564,13.4375 C 30.502678,13.448099 29.285333,13.431494 28.558314,13.34375 C 28.021141,13.278919 27.235762,13.35105 26.245814,13.53125 L 25.839564,12.1875 C 27.063402,12.026469 27.999889,11.886876 28.652064,11.75 C 28.733586,11.732891 28.810797,11.717736 28.902064,11.71875 z "
     id="path2162" />
</svg>
