<?xml version="1.0" encoding ="US-ASCII" standalone="yes"?>
<svg width="15.674812" height="17.976807">
<path style="fill:#000000; stroke:none" d=" M 2.595114 1.673399  Q 3.221415 1.88869 3.06484 2.769426  Q 2.908265 3.650163 3.06484 4.491755  Q 3.06484 7.09482 5.902768 10.637338  Q 7.781672 12.574957 7.996964 13.357834  Q 8.016535 11.596361 8.27097 11.596361  Q 8.858128 11.792081 10.267305 13.299118  Q 10.952323 14.160283 11.089327 16.000044  Q 11.285046 16.939495 12.332143 16.919924  Q 13.379241 16.900351 13.026946 16.293621  Q 12.596364 14.884443 11.989635 14.356002  Q 7.174943 10.343759 5.60919 8.895436  Q 4.043436 7.447115 3.710713 5.803074  Q 3.769429 5.059341 4.200011 4.785334  Q 4.630593 4.511327 4.982888 4.609187  Q 5.198179 4.707046 5.217751 4.941909  Q 5.237323 5.176772 4.836099 5.313776  Q 4.434874 5.450779 4.434874 5.724786  Q 4.630593 7.231824 6.039772 8.484426  Q 7.44895 9.737029 9.817152 11.674649  Q 12.185354 13.612269 14.788419 16.430626  L 14.455696 15.530317  Q 12.752939 12.888108 10.893607 10.020822  Q 9.034275 7.153536 8.133966 6.22387  Q 7.233658 5.294204 5.902768 5.000625  Q 5.452614 4.902765 5.139463 4.315608  Q 4.826313 3.72845 5.080748 3.033647  Q 5.335183 2.338844 5.168821 1.467894  Q 5.00246 0.596943 3.896646 0.596943  Q 2.790833 0.596943 2.399395 1.184101  L 2.595114 1.673399  Z  M 1.968813 1.184101  Q 0.911929 1.37982 0.520491 2.064837  L 2.086244 1.595111  L 1.968813 1.184101  Z  M 3.710713 1.027526  Q 4.102152 0.929666 4.200011 1.340676  Q 4.278299 1.771259 3.886861 1.849546  Q 3.436707 1.88869 3.358419 1.516824  Q 3.280131 1.086241 3.710713 1.027526  Z  M 5.393898 10.891772  Q 5.746193 11.929084 5.726621 12.888108  Q 6.235491 12.437954 6.225705 12.095446  Q 6.215919 11.752936 5.393898 10.891772  Z  M 4.317443 16.900351  Q 4.885028 17.096071 6.235491 17.056927  Q 6.763933 17.096071 6.94008 16.5872  L 7.605525 14.786584  Q 7.683813 13.41655 6.803076 12.888108  Q 6.43121 12.888108 5.550474 14.884443  Q 4.317443 16.489342 4.317443 16.900351  Z  M 2.066672 6.077081  Q 1.009789 7.623262 1.675234 7.955985  Q 2.399395 7.916841 2.066672 6.077081  Z  M 2.869121 16.959066  Q 3.397563 16.763348 4.885028 14.708297  Q 5.178607 13.944991 5.178607 12.516241  Q 5.178607 11.06792 4.053222 9.286875  Q 2.927837 7.505831 2.614686 6.037937  Q 2.908265 6.957817 2.810405 7.838553  Q 2.477683 8.758433 1.557802 8.562715  Q 0.598778 8.366995 0.677066 7.378613  Q 0.755354 6.390231 2.360251 4.902765  Q 2.203676 3.865454 2.399395 3.043433  Q 2.595114 2.221413 0.931501 2.39756  Q 0.461775 2.475848 0.187768 2.984717  L 0.011621 2.201841  Q -0.144955 1.340676 1.73395 0.773091  Q 2.379823 0.029358 3.867289 0  Q 5.354754 -0.029358 5.707049 1.154743  Q 6.059343 2.338844 5.795123 3.072791  Q 5.530902 3.806738 6.196347 4.33518  Q 7.605525 4.648331 8.750483 5.842217  Q 9.895439 7.036105 13.398812 12.90768  Q 14.338264 14.43429 15.072211 15.432457  Q 15.806159 16.430626 15.649583 16.900351  Q 15.551723 17.174358 15.31686 17.213501  Q 14.670987 17.330933 13.4771 15.804324  L 13.946826 16.998211  Q 14.044686 17.663656 12.273427 17.624512  Q 10.502169 17.585369 10.443453 16.430626  Q 10.384737 13.631841 8.662409 12.614101  Q 8.603693 13.807988 8.349257 14.767012  Q 8.055679 15.549889 7.605525 16.763348  Q 7.781672 17.213501 8.329686 17.056927  Q 8.8777 16.900351 8.8777 17.330933  Q 8.8777 17.82023 8.623264 17.976807  Q 8.642837 17.781088 8.192682 17.800659  L 2.262391 17.82023  L 1.518659 17.624512  Q 1.244652 17.663656 1.244652 17.859375  Q 0.833641 17.663656 0.833641 17.19393  Q 0.755354 16.763348 1.518659 16.900351  L 2.869121 16.959066  Z  M 1.616518 2.025693  L 2.321107 2.143125  L 2.14496 1.829974  L 1.616518 2.025693  Z "/></svg>
