<?xml version="1.0" encoding="UTF-8" standalone="no"?>
<!-- Created with Inkscape (http://www.inkscape.org/) -->
<svg
   xmlns:dc="http://purl.org/dc/elements/1.1/"
   xmlns:cc="http://creativecommons.org/ns#"
   xmlns:rdf="http://www.w3.org/1999/02/22-rdf-syntax-ns#"
   xmlns:svg="http://www.w3.org/2000/svg"
   xmlns="http://www.w3.org/2000/svg"
   xmlns:sodipodi="http://sodipodi.sourceforge.net/DTD/sodipodi-0.dtd"
   xmlns:inkscape="http://www.inkscape.org/namespaces/inkscape"
   width="1800"
   height="1800"
   id="svg2278"
   sodipodi:version="0.32"
   inkscape:version="0.46"
   version="1.0"
   sodipodi:docbase="C:\Program Files\JSesh\fontsGroupeG"
   sodipodi:docname="G226.svg"
   inkscape:output_extension="org.inkscape.output.svg.inkscape">
  <defs
     id="defs2280">
    <inkscape:perspective
       sodipodi:type="inkscape:persp3d"
       inkscape:vp_x="0 : 11.438985 : 1"
       inkscape:vp_y="0 : 1000 : 0"
       inkscape:vp_z="18.697811 : 11.438985 : 1"
       inkscape:persp3d-origin="9.3489056 : 7.6259899 : 1"
       id="perspective8" />
  </defs>
  <sodipodi:namedview
     id="base"
     pagecolor="#ffffff"
     bordercolor="#666666"
     borderopacity="1.0"
     inkscape:pageopacity="0.0"
     inkscape:pageshadow="2"
     inkscape:zoom="0.28055556"
     inkscape:cx="900"
     inkscape:cy="1335.4927"
     inkscape:document-units="px"
     inkscape:current-layer="layer1"
     inkscape:window-width="1024"
     inkscape:window-height="708"
     inkscape:window-x="1280"
     inkscape:window-y="22"
     showgrid="false" />
  <metadata
     id="metadata2283">
    <rdf:RDF>
      <cc:Work
         rdf:about="">
        <dc:format>image/svg+xml</dc:format>
        <dc:type
           rdf:resource="http://purl.org/dc/dcmitype/StillImage" />
      </cc:Work>
    </rdf:RDF>
  </metadata>
  <g
     inkscape:label="Calque 1"
     inkscape:groupmode="layer"
     id="layer1"
     transform="translate(-5.7458159,1.2921412e-2)">
    <path
       style="fill:#000000;stroke:none"
       d="M 405.19679,0.9853315 C 361.72635,11.611401 325.9047,52.974686 296.92445,121.56134 L 60.69391,244.59809 C -30.566227,282.39117 6.6484862,304.84349 65.615379,293.81279 L 301.84593,227.37295 C 335.47911,217.79525 364.53301,206.99533 400.27532,222.45147 C 344.24679,322.91639 314.58688,398.60665 311.68887,448.83909 C 228.6121,488.44543 186.19138,546.27055 186.1914,623.55126 C 215.17163,672.81772 241.75066,673.34639 264.93491,626.01199 C 263.96888,563.22139 281.3967,531.00935 319.07107,530.04333 C 319.07107,544.53351 334.91278,582.81586 365.82503,640.77641 C 396.7373,698.73689 448.92938,757.09073 523.31207,817.94931 L 653.73102,1061.5621 C 595.77044,1236.4098 531.34625,1338.679 461.7937,1366.6932 L 363.3643,1354.3895 C 332.52627,1359.9404 313.48689,1370.9838 304.30666,1386.3791 L 141.89816,1386.3791 C 90.518717,1410.8159 53.498988,1453.0471 33.625825,1511.8766 C 13.752616,1570.706 5.1034593,1623.2051 6.5577418,1669.3636 C 8.0116936,1715.5222 28.292504,1751.5872 65.615379,1780.0966 C 102.93798,1808.6064 139.51033,1808.6064 176.34844,1780.0966 C 213.18654,1751.5872 232.98249,1715.5222 235.40608,1669.3636 C 237.82957,1623.2052 222.13433,1557.5812 191.11286,1472.5048 C 322.95433,1670.7148 523.00253,1773.1105 791.53218,1777.636 C 1113.3802,1773.1105 1343.3276,1641.6083 1478.0772,1386.3791 L 1067.1345,1386.3791 C 1055.518,1369.4708 1027.5511,1357.1189 981.00876,1349.4681 C 969.41669,1331.1139 966.91021,1280.991 976.08728,1199.3632 C 985.26429,1117.7354 985.74731,1068.1413 976.08728,1051.7191 L 934.25481,965.59342 C 995.11337,963.66136 1067.2397,971.31782 1150.7995,987.74002 C 1234.3592,1004.1622 1295.7483,1017.9804 1335.3546,1029.5725 C 1374.9609,1041.1647 1410.7827,1036.589 1443.6269,1017.2689 C 1475.5052,945.78423 1480.6096,901.24863 1458.3913,881.92843 C 1356.9604,871.30238 1262.3933,830.37638 1177.8676,758.89169 C 1093.3417,687.40699 970.56383,593.80597 808.75732,478.3679 C 646.95081,362.92985 517.52803,347.5712 419.96121,431.61395 C 422.85921,362.06131 459.64691,277.65719 528.23353,178.15824 C 559.14588,135.65386 556.1564,88.128789 523.31207,37.896356 C 509.78788,8.9160634 470.88535,-3.8447434 405.19679,0.9853315 z M 437.18635,37.896356 C 447.08794,38.620861 455.56036,42.184727 464.25443,47.739294 C 481.64258,58.848377 493.87458,73.678349 498.70472,92.032524 C 503.53469,113.28471 496.93568,132.69027 481.47958,148.62942 C 466.02341,164.56859 442.47949,171.74207 410.11827,170.77604 C 377.75697,169.81001 352.62702,167.25783 331.37474,163.39383 C 338.13682,137.31156 345.35598,112.27297 355.98209,89.571788 C 366.60813,66.870558 382.97852,51.028882 405.19679,42.817824 C 416.3059,38.712269 427.28475,37.171849 437.18635,37.896356 z M 387.97165,69.885909 C 377.82856,69.704758 371.90832,74.794421 368.28578,87.111053 C 362.48971,103.53323 366.62797,114.27058 383.05017,119.10061 C 400.43833,124.89666 411.70439,119.26361 417.50046,101.87546 C 421.36449,86.419314 416.69745,77.176665 400.27532,72.346644 C 396.1698,70.897618 391.35267,69.946293 387.97165,69.885909 z M 547.91943,443.91761 C 612.25712,439.16303 686.36914,467.81083 769.38555,527.5826 C 902.21179,623.21749 1007.0789,696.92994 1084.3596,751.50948 C 1161.6403,806.08897 1187.7821,837.81804 1165.5639,847.47814 C 1011.9684,849.41018 890.20228,831.98236 798.91438,793.34198 C 707.62655,754.70163 640.65022,716.37353 599.59486,680.14816 C 558.53948,643.92284 551.32027,618.30983 574.98751,601.40464 C 598.65473,584.49945 609.4378,570.72696 609.4378,562.03289 C 609.4378,554.30483 601.78132,546.11963 587.29117,537.42554 C 539.95672,546.11961 510.7799,562.44429 498.70472,584.1795 C 486.62956,605.91471 495.82649,634.56294 525.7728,670.30522 C 555.71905,706.04753 617.10806,750.58313 710.32791,805.64564 C 803.54773,860.70822 979.96682,894.94371 1236.9252,906.53578 L 1399.3337,923.76092 C 1398.3677,959.50323 1372.846,974.86191 1325.5116,970.51488 C 1278.1772,966.16784 1224.9734,958.46563 1165.5639,945.90753 C 1106.1543,933.34944 1041.1558,927.23335 968.70509,928.68238 C 896.25444,930.13135 792.92764,892.81496 658.65248,817.94931 C 524.37723,743.08366 433.90275,651.50603 390.43238,542.347 C 382.70434,521.09481 400.56943,503.66697 442.10781,488.21084 C 473.9861,462.12861 509.31679,446.77035 547.91943,443.91761 z M 592.21265,842.55666 C 623.12484,861.87677 647.68045,875.16633 666.03469,881.92843 L 675.87763,980.35781 C 628.54317,914.66928 601.87268,868.63887 592.21265,842.55666 z M 712.78866,901.6143 C 728.24474,901.6143 760.45685,920.09959 808.75732,960.67194 C 857.05773,1001.2443 891.82196,1034.5139 912.10818,1061.5621 C 929.49633,1084.7463 937.68148,1144.0661 936.71554,1238.735 C 935.74942,1333.4038 896.40964,1378.3767 821.06099,1371.6147 C 798.84272,1371.6147 777.80526,1367.5678 754.62116,1361.7717 C 739.63135,1361.7717 727.9297,1371.4377 722.6316,1386.3791 L 680.7991,1386.3791 C 681.6154,1383.4436 683.25983,1379.6756 683.25983,1376.5361 C 673.59973,1357.2159 643.93981,1347.0073 594.67338,1347.0073 C 604.33348,1295.8088 628.36033,1239.4785 666.03469,1174.7559 C 703.70897,1110.0333 721.13678,1064.5317 720.17087,1039.4155 C 700.85067,972.76089 693.67716,931.88055 698.02425,918.83945 C 702.37121,905.79834 706.99259,901.6143 712.78866,901.6143 z M 274.77785,1452.8189 L 1350.119,1452.8189 C 1218.2776,1619.3515 1037.5408,1704.6625 808.75732,1708.7353 C 579.97386,1712.808 401.77209,1627.4971 274.77785,1452.8189 z M 122.21228,1504.4943 C 148.38678,1558.7984 160.09263,1607.9882 159.12331,1654.5992 C 158.15376,1701.2103 146.44791,1725.9605 122.21228,1725.9605 C 97.976769,1725.9606 84.294704,1701.2103 82.840523,1654.5992 C 81.386464,1607.9882 95.068525,1558.7984 122.21228,1504.4943 z"
       id="path2252" />
  </g>
</svg>
