<?xml version="1.0" encoding="UTF-8" standalone="no"?>
<svg
   xmlns:dc="http://purl.org/dc/elements/1.1/"
   xmlns:cc="http://web.resource.org/cc/"
   xmlns:rdf="http://www.w3.org/1999/02/22-rdf-syntax-ns#"
   xmlns:svg="http://www.w3.org/2000/svg"
   xmlns="http://www.w3.org/2000/svg"
   xmlns:sodipodi="http://sodipodi.sourceforge.net/DTD/sodipodi-0.dtd"
   xmlns:inkscape="http://www.inkscape.org/namespaces/inkscape"
   width="23.65625"
   height="17.984474"
   id="svg2241"
   sodipodi:version="0.32"
   inkscape:version="0.45"
   sodipodi:docname="G47.svg"
   inkscape:output_extension="org.inkscape.output.svg.inkscape"
   sodipodi:docbase="C:\Program Files\JSesh\fontsGroupeG"
   sodipodi:modified="true"
   version="1.0">
  <metadata
     id="metadata2248">
    <rdf:RDF>
      <cc:Work
         rdf:about="">
        <dc:format>image/svg+xml</dc:format>
        <dc:type
           rdf:resource="http://purl.org/dc/dcmitype/StillImage" />
      </cc:Work>
    </rdf:RDF>
  </metadata>
  <defs
     id="defs2246" />
  <sodipodi:namedview
     inkscape:window-height="708"
     inkscape:window-width="1024"
     inkscape:pageshadow="2"
     inkscape:pageopacity="0.0"
     guidetolerance="10.0"
     gridtolerance="10.0"
     objecttolerance="10.0"
     borderopacity="1.0"
     bordercolor="#666666"
     pagecolor="#ffffff"
     id="base"
     inkscape:zoom="20.971467"
     inkscape:cx="9.0228491"
     inkscape:cy="10.895757"
     inkscape:window-x="-4"
     inkscape:window-y="-4"
     inkscape:current-layer="svg2241" />
  <path
     style="fill:#000000;stroke:none"
     d="M 3.90625,0.015725068 C 3.4402807,0.083622188 3.0120475,0.34261406 2.65625,0.76572507 C 2.0023513,0.71443907 1.2709007,0.74968841 0.4375,0.89072507 L 0.4375,1.0782251 C 1.2965433,1.3731204 1.831712,1.6823651 2.0625,2.0157251 C 1.6778533,1.9003311 1.1482913,2.0020791 0.46875,2.2969751 C 0.93032533,2.4636551 1.435852,2.5229398 2,2.4844751 C 1.6794613,2.7665491 1.19797,3.1238643 0.53125,3.5469751 L 0.5625,3.7032251 C 1.408722,3.6519384 2.1289593,3.5445832 2.71875,3.3907251 C 3.8342247,3.4163678 4.655406,3.5838117 5.1875,3.8594751 C 5.719594,4.1351384 5.8910366,4.9378919 5.75,6.2969751 C 5.7004037,6.774902 5.728248,7.2411533 5.75,7.7032251 C 5.636062,7.7043599 5.584222,7.7020172 5.46875,7.7032251 C 5.1563686,7.7032251 4.8912267,7.6692113 4.6875,7.5469751 C 4.565264,7.1395217 4.3137034,6.904307 3.90625,6.8907251 C 3.4580513,6.8771431 2.9753626,6.9383202 2.5,7.0469751 C 0.8294413,7.6989004 1e-008,8.4372365 0,9.2657251 C 0,10.121377 0.42559802,10.546975 1.28125,10.546975 C 1.8245213,10.546975 2.5587706,10.368851 3.46875,10.015725 C 4.1510285,10.099114 5.0846851,10.151571 6.15625,10.203225 C 5.290167,10.788263 4.7011214,11.57499 4.375,12.515725 C 4.823754,12.964479 6.108802,12.868338 8.25,12.265725 C 9.2244373,13.624808 10.098493,14.595006 10.90625,15.171975 C 9.9318133,15.018117 9.1530956,14.946815 8.53125,14.953225 C 7.9094053,14.959636 7.4383242,15.151115 7.15625,15.484475 C 7.1177853,15.663976 6.8381834,15.747296 6.3125,15.734475 C 5.7868167,15.721653 5.2748792,15.732867 4.78125,15.796975 C 4.28762,15.861083 4.0384639,16.009294 4,16.265725 C 3.9743567,16.445227 4.0336413,16.606261 4.1875,16.734475 C 4.2516073,16.503687 4.5199958,16.361083 4.96875,16.296975 C 5.9175447,16.450833 6.8749201,16.445227 7.875,16.265725 C 8.2852893,16.45805 8.5528737,16.701597 8.6875,17.015725 C 8.822126,17.329853 9.0784968,17.532545 9.4375,17.609475 C 9.60418,17.699225 9.6762862,17.817795 9.625,17.984475 C 9.7532153,17.894724 9.8477494,17.746513 9.9375,17.515725 C 9.8605707,17.131079 9.3125799,16.494162 8.3125,15.609475 C 8.7356113,15.622297 9.4558482,15.877864 10.46875,16.390725 C 11.481652,16.903587 12.403778,17.188796 13.25,17.265725 C 13.557717,17.342655 13.748392,17.159195 13.8125,16.671975 C 15.645981,17.082265 17.027171,16.77302 17.9375,15.734475 C 17.9451,15.722405 17.963062,15.715916 17.96875,15.703225 C 18.190046,16.390979 18.645054,16.734475 19.375,16.734475 C 19.850362,16.734475 20.267788,16.457073 20.59375,15.859475 C 21.191349,16.321255 21.686298,16.546976 22.09375,16.546975 C 23.139547,16.546975 23.65625,16.034358 23.65625,15.015725 C 23.65625,14.105745 23.256493,12.930934 22.46875,11.484475 C 21.681006,10.038015 20.884198,9.0889235 20.0625,8.6407251 C 19.240803,8.1925264 18.430412,7.9273839 17.65625,7.8594751 C 16.366867,7.7316019 13.149112,7.6889677 8.875,7.7032251 C 9.1187013,7.6423377 9.389626,7.5654893 9.6875,7.4532251 C 10.963243,6.9724171 11.790032,6.7344752 12.1875,6.7344751 C 12.584968,6.7344751 13.049638,6.804973 13.5625,6.9844751 C 13.06535,7.1999066 12.661727,7.4391409 12.3125,7.6719751 C 12.581665,7.6739369 13.030283,7.6691467 13.28125,7.6719751 C 13.581844,7.5081442 13.909425,7.3755122 14.28125,7.2344751 L 14.28125,6.8907251 C 13.345277,6.4419711 12.630647,6.2344753 12.15625,6.2344751 C 11.681853,6.2344751 11.093006,6.346633 10.375,6.6094751 C 9.6569927,6.8723164 9.0617362,7.0637957 8.59375,7.1407251 C 8.125764,7.2176544 7.822126,7.08546 7.6875,6.7969751 C 7.5528733,6.5084898 7.427894,5.9789286 7.3125,5.2032251 C 7.1971067,4.4275218 7.0897512,3.4405038 7,2.2032251 C 6.9102493,0.96594574 6.0418006,0.22086974 4.375,0.015725068 C 4.2083198,-0.0035072654 4.0615731,-0.0069073054 3.90625,0.015725068 z M 4.03125,0.67197507 C 4.1525692,0.65344867 4.2716238,0.65594807 4.40625,0.67197507 C 5.598654,0.81301174 6.2403739,1.4026618 6.375,2.4219751 C 6.509626,3.4412878 6.6410169,4.4170918 6.75,5.3594751 C 6.8589833,6.3018584 7.0616762,7.0228998 7.34375,7.4844751 C 7.4034195,7.5821162 7.4896153,7.6477543 7.59375,7.7032251 C 7.1320514,7.7061406 6.8357487,7.6988668 6.34375,7.7032251 C 6.3292423,7.3795257 6.3158364,7.0333823 6.34375,6.6719751 C 6.4655547,5.0949251 6.2812902,4.0782659 5.78125,3.5782251 C 5.28121,3.0781851 4.329442,2.7985831 2.90625,2.7344751 C 3.252432,2.3370078 3.3173234,1.8483017 3.125,1.2969751 C 3.355788,0.94117707 3.6672925,0.72755426 4.03125,0.67197507 z M 2.5625,1.0469751 C 2.7868767,1.0469751 2.8397506,1.3393984 2.75,1.8907251 C 2.596142,1.6471158 2.4775727,1.4195838 2.375,1.2657251 C 2.2724273,1.1118664 2.3381227,1.0469751 2.5625,1.0469751 z M 4.1875,1.1407251 C 3.9927729,1.186402 3.9038485,1.3041696 3.875,1.5157251 C 3.823714,1.8106204 3.9719253,1.9956891 4.34375,2.0469751 C 4.6514673,2.0982618 4.8237139,1.9796925 4.875,1.6719751 C 4.9134647,1.4027224 4.7524319,1.2304758 4.40625,1.1407251 C 4.32291,1.1375198 4.252409,1.1254995 4.1875,1.1407251 z M 4.375,1.4219751 C 4.5032153,1.4476184 4.5753214,1.5381524 4.5625,1.6407251 C 4.5368567,1.7304758 4.459144,1.7472971 4.34375,1.7344751 C 4.228356,1.7088324 4.1746779,1.6551545 4.1875,1.5782251 C 4.2003213,1.4628311 4.259606,1.4091538 4.375,1.4219751 z M 3.1875,7.6407251 C 3.5270446,7.6407251 3.7786054,7.6978164 3.96875,7.7657251 C 3.96875,8.4040691 3.6695941,8.9166855 3.03125,9.2969751 C 2.3929066,9.6772651 1.76743,9.8594753 1.15625,9.8594751 C 0.66730534,9.7915664 0.51502334,9.478828 0.71875,8.9219751 C 1.370676,8.1342324 2.1960301,7.6950523 3.1875,7.6407251 z M 4.65625,8.2657251 L 15.84375,8.3594751 C 18.397126,8.3594751 20.212376,9.1698651 21.3125,10.765725 C 22.412624,12.361584 22.946995,13.766201 22.90625,15.015725 C 22.811178,15.409597 22.498441,15.623057 21.96875,15.609475 C 21.602042,15.609475 21.311058,15.391927 21.09375,14.984475 C 20.536898,12.51259 19.581014,10.992409 18.25,10.421975 C 17.665983,10.163921 16.727769,9.9817113 15.4375,9.8594751 C 11.308638,9.7508211 7.4864307,9.6121209 3.96875,9.4219751 C 4.2675486,9.0960124 4.5068499,8.7003413 4.65625,8.2657251 z M 7.125,10.265725 C 7.7388562,10.288205 8.2801874,10.314383 9,10.328225 C 9.3685917,10.335313 9.7776927,10.3468 10.15625,10.359475 C 10.270351,10.412456 10.372595,10.486907 10.5,10.515725 C 10.69595,10.560047 10.884142,10.515427 11.03125,10.421975 C 12.260726,10.475822 13.544478,10.530231 14.875,10.640725 C 15.308282,10.865397 15.725017,11.087689 16.15625,11.359475 C 16.515253,11.026115 16.80207,10.91876 16.96875,11.046975 C 17.135431,11.175191 17.105788,11.413937 16.875,11.734475 C 17.582914,12.534002 17.928662,13.305747 17.90625,14.078225 C 17.868875,14.256202 17.861535,14.334953 17.84375,14.453225 C 17.791662,14.748922 17.691519,15.036535 17.53125,15.328225 C 16.556813,16.289842 15.258943,16.545408 13.65625,16.109475 C 13.463927,16.058189 13.262038,15.707285 13.03125,15.046975 C 12.800462,14.386666 12.60418,14.041368 12.4375,14.015725 C 12.399036,14.015725 12.32693,14.050974 12.25,14.140725 C 12.391037,14.922839 12.814851,15.804108 13.46875,16.765725 C 12.532777,16.65033 11.353477,16.257766 9.96875,15.578225 C 11.302191,16.014158 12.159425,16.251295 12.53125,16.328225 C 12.749216,16.366689 12.814107,16.320226 12.75,16.140725 C 12.570498,15.756078 12.326949,15.18966 12,14.484475 C 11.673051,13.77929 11.536857,13.339459 11.5625,13.140725 C 11.588143,12.941992 11.671463,12.786565 11.8125,12.703225 C 11.953537,12.619885 12.340494,12.650331 12.96875,12.765725 C 12.981572,12.522115 12.648292,12.366689 11.96875,12.328225 C 11.2251,12.341046 10.962319,12.805717 11.21875,13.703225 L 11.71875,15.078225 C 10.693026,14.321754 9.6266879,13.208952 8.5625,11.734475 C 8.331712,11.657546 7.8734527,11.187269 7.1875,10.328225 C 7.1692648,10.305388 7.1407062,10.289998 7.125,10.265725 z M 6.46875,10.859475 C 6.9046827,11.218478 7.2732115,11.562972 7.59375,11.921975 C 6.8372787,12.088655 6.0633642,12.179189 5.28125,12.140725 C 5.5376807,11.563756 5.9430668,11.128727 6.46875,10.859475 z M 17.5,10.953225 C 18.235624,11.208767 18.494788,11.778639 18.25,12.734475 C 18.23364,12.798358 18.234172,12.829702 18.21875,12.890725 C 18.041632,12.488072 17.777155,12.097555 17.40625,11.703225 C 17.533145,11.396558 17.561072,11.146952 17.5,10.953225 z M 18.96875,11.703225 C 19.770074,12.640367 20.15625,13.567705 20.15625,14.484475 C 20.15625,15.401245 19.825844,15.859475 19.1875,15.859475 C 18.644229,15.859475 18.453845,15.44205 18.5625,14.640725 C 18.847718,13.364037 18.982333,12.395895 18.96875,11.703225 z "
     id="path2243" />
</svg>
