<?xml version="1.0" encoding="UTF-8" standalone="no"?>
<svg
   xmlns:dc="http://purl.org/dc/elements/1.1/"
   xmlns:cc="http://creativecommons.org/ns#"
   xmlns:rdf="http://www.w3.org/1999/02/22-rdf-syntax-ns#"
   xmlns:svg="http://www.w3.org/2000/svg"
   xmlns="http://www.w3.org/2000/svg"
   xmlns:sodipodi="http://sodipodi.sourceforge.net/DTD/sodipodi-0.dtd"
   xmlns:inkscape="http://www.inkscape.org/namespaces/inkscape"
   width="2393.2109"
   height="1481.7427"
   id="svg5573"
   version="1.1"
   inkscape:version="0.48.0 r9654"
   sodipodi:docname="G232A.svg.2013_03_24_12_47_26.0.svg">
  <metadata
     id="metadata5581">
    <rdf:RDF>
      <cc:Work
         rdf:about="">
        <dc:format>image/svg+xml</dc:format>
        <dc:type
           rdf:resource="http://purl.org/dc/dcmitype/StillImage" />
        <dc:title></dc:title>
      </cc:Work>
    </rdf:RDF>
  </metadata>
  <defs
     id="defs5579" />
  <sodipodi:namedview
     pagecolor="#ffffff"
     bordercolor="#666666"
     borderopacity="1"
     objecttolerance="10"
     gridtolerance="10"
     guidetolerance="10"
     inkscape:pageopacity="0"
     inkscape:pageshadow="2"
     inkscape:window-width="1920"
     inkscape:window-height="1152"
     id="namedview5577"
     showgrid="false"
     inkscape:snap-grids="false"
     inkscape:snap-to-guides="false"
     fit-margin-top="0"
     fit-margin-left="0"
     fit-margin-right="0"
     fit-margin-bottom="0"
     inkscape:zoom="0.54611111"
     inkscape:cx="1197.0006"
     inkscape:cy="900.093"
     inkscape:window-x="1280"
     inkscape:window-y="0"
     inkscape:window-maximized="0"
     inkscape:current-layer="svg5573" />
  <path
     style="fill:#000000;stroke:none"
     d="m 1551.2188,0 c -5.7272,0 -11.6602,0.33355333 -17.7813,1 -54.3131,4.7984533 -94.7281,27.114917 -121.2813,66.96875 -35.0015,2.399227 -79.0815,31.977037 -132.1874,88.71875 -3.279,26.23823 8.5541,39.34375 35.4687,39.34375 l 8.9063,0 c 11.0636,-0.99973 22.097,-1.46875 33.0937,-1.46875 21.9935,0 43.8374,1.96996 65.5625,5.96875 32.5879,5.99801 48.2694,27.73956 47.0625,65.1875 -33.7948,82.07359 -59.1335,159.9329 -76.0313,233.5625 -55.761,-23.65907 -120.4026,-35.5 -193.9062,-35.5 -31.5018,0 -64.6146,2.16807 -99.375,6.5 -3.6208,-47.07153 15.3915,-104.1087 57.0312,-171.09375 41.6404,-66.98509 60.6522,-122.80978 57.0313,-167.46875 C 1207.0596,45.326617 1166.7677,2.125 1093.9688,2.125 c -6.5335,0 -13.318,0.33354 -20.375,1 -54.3135,4.79844 -94.75949,26.539947 -121.31255,65.1875 -35.00183,2.399233 -79.65562,31.97702 -133.96875,88.71875 -2.18616,26.23823 10.23201,39.34375 37.25,39.34375 l 8.90625,0 c 11.06389,-0.99973 22.09698,-1.5 33.09375,-1.5 21.99343,0 43.86852,2.00121 65.59375,6 32.58777,5.99801 47.66395,27.70831 45.24995,65.15625 -32.58763,82.07359 -57.92677,161.7516 -76.0312,239 -62.70283,-26.49807 -131.55062,-39.75 -206.53125,-39.75 -27.49304,0 -55.79373,1.80738 -84.9375,5.40625 C 636.07848,424.82223 654.78779,368.09153 697.03125,300.5 739.27484,232.9151 758.55839,177.39021 754.9375,133.9375 747.0923,46.518973 705.94958,2.8125 631.5,2.8125 c -5.72688,0 -11.62893,0.33354 -17.75,1 -54.31314,4.7984533 -94.75941,26.508703 -121.3125,65.15625 -35.00177,3.59884 -79.65564,33.78288 -133.96875,90.53125 -2.18617,26.23823 10.23204,39.34375 37.25,39.34375 l 8.90625,0 c 11.06376,-0.99961 22.09704,-1.5 33.09375,-1.5 21.99349,0 43.86846,2.00133 65.59375,6 32.58785,6.06465 47.66392,27.79944 45.25,65.1875 -32.58784,82.06686 -57.92683,152.06533 -76.03125,210 -12.50846,-7.8974 -30.9539,-11.84375 -55.3125,-11.84375 -20.29886,0 -44.70629,2.80469 -73.25,8.1875 C 266.73888,489.43909 209.41733,512.60602 172,544.59375 134.58587,576.57875 101.9772,613.09052 74.21875,654.125 46.457179,695.16409 26.538343,738.30383 14.46875,783.5625 2.3991572,828.8213 -2.1113674,872.89715 0.90625,915.75 c 3.0171451,42.84615 20.515623,87.8035 52.5,134.875 31.984448,47.0715 72.1296,93.5147 120.40625,139.375 48.27996,45.8635 107.98923,87.2662 180.125,122.2188 169.55799,82.1575 352.70933,127.1703 524.125,150.25 101.28072,13.6366 208.1904,19.2812 320.4375,19.2812 111.0401,0 217.2712,-6.9651 318.6562,-20.8438 101.3844,-13.8787 196.1118,-33.4641 284.2188,-58.8124 88.1088,-25.3489 167.1855,-56.4393 237.1875,-93.25 70.0051,-36.8124 129.4308,-77.2288 178.3125,-121.2813 48.8819,-44.0524 88.7226,-90.5217 119.5,-139.4063 30.7775,-48.88399 48.8812,-94.17252 54.3125,-135.81245 5.4315,-41.63993 2.1013,-85.08495 -9.9687,-130.34375 -12.0699,-45.25867 -31.9884,-88.39849 -59.75,-129.4375 -27.7586,-41.03456 -60.336,-77.54638 -97.75,-109.53125 -37.4175,-31.98786 -95.965,-55.24109 -175.625,-69.71875 -22.7592,-4.13634 -43.7824,-6.1875 -63.0938,-6.1875 -48.2783,0 -85.7745,12.9475 -112.5,38.8125 -70.9579,-28.74407 -146.5906,-43.125 -226.9062,-43.125 -27.609,0 -55.7858,1.69495 -84.5,5.09375 -3.6211,-45.86507 15.3909,-102.59582 57.0312,-170.1875 41.6401,-67.58489 60.6522,-123.10991 57.0312,-166.5625 -7.8451,-87.41856 -48.9878,-131.125 -123.4374,-131.125 z m -468.0626,38.53125 c 11.5486,0 26.7628,2.7768 45.6563,8.375 22.3287,6.66452 35.8911,35.942573 40.7187,87.8125 3.6211,39.82715 -16.2682,94.74582 -59.7187,164.75 -43.4505,70.00408 -62.7654,130.33418 -57.9375,181.03125 0,22.85927 19.55,34.3125 58.6875,34.3125 12.524,0 27.0625,-1.1674 43.5937,-3.5 13.4705,-1.93273 27.4624,-2.90625 41.9688,-2.90625 58.9317,0 126.4066,15.74215 202.4375,47.21875 94.7463,39.22733 182.5399,98.68278 263.4063,178.34375 -92.9363,22.93267 -173.4936,36.50672 -241.6876,40.71875 -68.1921,4.21191 -106.52,6.3125 -114.9687,6.3125 -47.0713,-72.4233 -109.8287,-132.7847 -188.2813,-181.0625 -78.4519,-48.2778 -125.52825,-74.22502 -141.2187,-77.84375 20.51828,-91.73053 43.1633,-168.08416 67.9063,-229.03125 24.7424,-60.95364 0.9175,-108.90416 -71.50005,-143.90625 L 968.59375,100.25 C 987.90507,64.04162 1024.1125,43.54387 1077.2188,38.71875 l 5.9374,0 z m 459.8438,0 c 11.5482,0 26.7626,2.7768 45.6562,8.375 22.3289,6.66452 35.9223,35.33634 40.75,86 3.6212,41.03342 -16.2993,96.55832 -59.75,166.5625 -43.4501,70.00408 -62.7654,129.73462 -57.9374,179.21875 -3e-4,22.85927 19.55,34.3125 58.6874,34.3125 12.5244,0 27.0623,-1.1674 43.5938,-3.5 11.8597,-1.66613 24.3756,-2.5 37.5312,-2.5 62.4894,0 139.5838,18.9247 231.3126,56.8125 6.0344,14.48207 -0.5936,38.94229 -19.9063,73.34375 -19.3099,34.39631 -68.8093,61.855 -148.4687,82.375 -49.4856,-54.3157 -106.4903,-101.39148 -171.0626,-141.21875 -64.5719,-39.82713 -99.8714,-60.35623 -105.9062,-61.5625 19.3113,-89.31787 41.3198,-164.15271 66.0625,-224.5 24.7426,-60.34719 0.9175,-108.60415 -71.5,-144.8125 l -3.625,-47.09375 c 19.3113,-37.414673 55.5188,-57.91241 108.625,-61.53125 l 5.9375,0 z m -917.375,1.125 0,0.0625 c 11.08895,0 25.23835,2.7226 42.4375,8.1875 22.93226,7.24434 36.7972,36.215957 41.625,86.90625 3.62089,39.82727 -16.29955,95.04573 -59.75,165.65625 -43.45059,70.60399 -63.37086,130.66558 -59.75,180.15625 0,22.85933 19.76604,34.28125 59.25,34.28125 12.63479,0 27.29086,-1.16733 43.96875,-3.5 12.65227,-1.79933 25.86093,-2.6875 39.65625,-2.6875 61.21645,0 133.68214,17.46883 217.40625,52.4375 C 1053.0602,604.00252 1152.0565,677.93133 1247.4062,782.9375 1124.2966,781.73783 996.35962,773.59181 863.59375,758.5 730.82868,743.40828 636.37195,716.56064 580.25,677.9375 524.12483,639.31214 504.50885,580.76057 521.40625,502.3125 538.30372,423.85783 559.13237,354.16587 583.875,293.21875 c 24.74265,-60.95363 0.88625,-108.93541 -71.53125,-143.9375 l -5.40625,-47.0625 c 20.51827,-37.41466 56.72578,-57.943673 108.625,-61.5625 3.01737,-0.66646 6.36621,-1 10.0625,-1 z m 858.9375,35.375 c -20.5183,13.275747 -27.4508,28.08022 -20.8125,44.375 5.2717,12.93576 13.395,19.375 24.375,19.375 2.8465,0 5.8635,-0.4149 9.0938,-1.28125 15.6902,-4.19869 23.5626,-14.75959 23.5624,-31.6875 3e-4,-15.68822 -12.0796,-25.95613 -36.2187,-30.78125 z m -919.71875,1.75 0,0.0625 c -21.72523,13.27576 -29.26333,28.04908 -22.625,44.34375 5.12095,12.56939 13.13296,18.84375 24,18.84375 3.21983,0 6.68192,-0.55451 10.40625,-1.6875 16.29393,-4.79851 24.4375,-15.06636 24.4375,-30.78125 0,-15.694967 -12.07957,-25.95613 -36.21875,-30.78125 z m 459.87505,0.0625 c -20.5186,13.27576 -27.48211,27.74929 -20.8438,43.4375 5.2303,12.36274 13.2759,18.53125 24.125,18.53125 2.9211,0 6.0467,-0.41478 9.375,-1.28125 15.6905,-4.19857 23.5312,-14.16 23.5312,-29.875 0,-15.694853 -12.0486,-25.956097 -36.1874,-30.78125 z M 485.1875,100.375 487,125.71875 410.96875,149.25 z m 459.875,0 1.78125,25.34375 -76.03125,21.71875 z m 459.8437,0 1.8126,25.34375 -76.0626,21.71875 z m -456.24995,38 3.625,16.3125 -79.65625,3.59375 z m 459.87495,0 5.4063,16.3125 -81.4687,1.78125 z m -919.7187,1.8125 3.625,16.28125 -79.65625,1.8125 z m 1654.75,430.87495 c 77.0245,49.43415 151.4784,130.40453 166.5625,219.0938 41.7464,245.45365 -226.1328,416.11375 -410.9688,492.43735 -213.8472,88.3031 -489.2323,135.3466 -701.0937,127.5935 C 948.92424,1401.0698 694.55761,1359.5925 477.96875,1275.3438 409.09997,1248.5552 347.37923,1215.4385 290.86688,1172.485 172.54504,1082.5517 50.408131,973.28561 81.46875,813.6875 c 18.380876,-94.44606 89.37202,-189.10297 153.875,-231.75 69.27965,-45.80519 135.27762,-66.81952 204.59375,-47.03125 0.3913,23.67388 -2.94136,47.77378 5.71875,80.09375 36.69283,136.9395 234.26767,185.5125 384.11783,204.08306 119.592,20.09564 243.18582,26.85281 368.28842,28.97954 201.3687,-5.63215 416.006,-25.03489 599.6875,-74.0945 99.8701,-27.05895 172.6055,-137.65107 157.5312,-239.0931 63.79,-18.36669 138.3063,4.11366 188.2813,36.18745 z"
     id="path5575"
     inkscape:connector-curvature="0"
     sodipodi:nodetypes="ccccscssccscscscccscssccscccscccscscccsssssssssssssssssssssscsccccccccscscsccscsccccccccccscscscscscscccccccccccscsccssccccccccsccccccscscccscsccccccccccccccccccccccccccsssssssscsccccs" />
</svg>
