<?xml version="1.0" encoding="UTF-8" standalone="no"?>
<svg
   xmlns:dc="http://purl.org/dc/elements/1.1/"
   xmlns:cc="http://web.resource.org/cc/"
   xmlns:rdf="http://www.w3.org/1999/02/22-rdf-syntax-ns#"
   xmlns:svg="http://www.w3.org/2000/svg"
   xmlns="http://www.w3.org/2000/svg"
   xmlns:sodipodi="http://sodipodi.sourceforge.net/DTD/sodipodi-0.dtd"
   xmlns:inkscape="http://www.inkscape.org/namespaces/inkscape"
   width="1800"
   height="1800"
   id="svg2"
   sodipodi:version="0.32"
   inkscape:version="0.45.1"
   sodipodi:docname="G235.svg"
   sodipodi:docbase="/home/rosmord/Desktop/tmp"
   inkscape:output_extension="org.inkscape.output.svg.inkscape"
   version="1.0">
  <metadata
     id="metadata9">
    <rdf:RDF>
      <cc:Work
         rdf:about="">
        <dc:format>image/svg+xml</dc:format>
        <dc:type
           rdf:resource="http://purl.org/dc/dcmitype/StillImage" />
      </cc:Work>
    </rdf:RDF>
  </metadata>
  <defs
     id="defs7" />
  <sodipodi:namedview
     inkscape:window-height="572"
     inkscape:window-width="753"
     inkscape:pageshadow="2"
     inkscape:pageopacity="0.0"
     guidetolerance="10.0"
     gridtolerance="10.0"
     objecttolerance="10.0"
     borderopacity="1.0"
     bordercolor="#666666"
     pagecolor="#ffffff"
     id="base"
     width="1800px"
     height="1800px"
     inkscape:zoom="0.18311404"
     inkscape:cx="783.76479"
     inkscape:cy="324.95614"
     inkscape:window-x="186"
     inkscape:window-y="134"
     inkscape:current-layer="svg2" />
  <path
     style="fill:#000000;stroke:none"
     d="M 951,806.84375 C 911.32003,806.84376 878.8814,824.4789 853.6875,859.75 C 853.68749,864.15892 823.4646,879.6091 763,906.0625 C 746.62413,910.47132 738.4375,919.581 738.4375,933.4375 L 738.4375,963.6875 L 966.125,963.6875 C 951.63863,1026.6716 927.0789,1091.5494 892.4375,1158.3125 C 862.06058,1216.8572 839.17606,1278.9261 823.8125,1343.2812 L 449.77453,1343.2812 C 453.13181,1269.1026 466.65773,1186.4132 494.1875,1121.0625 C 527.8839,1041.0727 544.71895,984.0739 544.71875,950.0625 C 544.71876,910.38249 536.6863,878.40505 520.625,854.15625 C 504.56412,829.90733 467.878,817.78125 410.5625,817.78125 C 370.8825,817.78123 338.4439,835.4164 313.25,870.6875 C 313.24999,875.09639 283.0271,890.5466 222.5625,917 C 206.1866,921.40879 198,930.5185 198,944.375 L 198,974.625 L 425.6875,974.625 C 411.2011,1037.6091 386.6414,1102.4869 352,1169.25 C 323.28884,1224.5843 301.26852,1282.7574 285.96875,1343.2812 L 91.75,1341.8125 C 21.07866,1341.8125 -14.768474,1420.3276 -15.75,1577.375 C -14.768475,1734.4225 21.078663,1812.9375 91.75,1812.9375 L 1724.5625,1812.9375 C 1801.123,1812.9375 1839.3751,1734.4224 1839.375,1577.375 C 1838.3935,1420.3277 1800.1416,1341.8125 1724.5625,1341.8125 L 1528.125,1343.2812 C 1529.2502,1261.0171 1544.8785,1182.5889 1575.0625,1110.9375 C 1608.7589,1030.9477 1625.5939,973.9489 1625.5938,939.9375 C 1625.5937,900.25748 1617.5613,868.28005 1601.5,844.03125 C 1585.4391,819.78238 1548.753,807.65625 1491.4375,807.65625 C 1451.7575,807.65628 1419.3189,825.2914 1394.125,860.5625 C 1394.125,864.97138 1363.9021,880.4216 1303.4375,906.875 C 1287.0616,911.28378 1278.875,920.3935 1278.875,934.25 L 1278.875,964.5 L 1506.5625,964.5 C 1492.0761,1027.4841 1467.5164,1092.3619 1432.875,1159.125 C 1402.7577,1217.1695 1380.0471,1279.5253 1364.6875,1343.2812 L 987.625,1343.2812 C 988.59358,1260.4989 1004.2727,1182.1759 1034.625,1110.125 C 1068.3215,1030.1352 1085.1565,973.1364 1085.1562,939.125 C 1085.1563,899.44502 1077.1238,867.46755 1061.0625,843.21875 C 1045.0016,818.96986 1008.3155,806.84375 951,806.84375 z M 950.0625,827.625 C 1021.2347,827.62502 1055.8893,865.1115 1054,940.0625 C 1045.1823,986.04102 1025.9463,1045.5633 996.34375,1118.625 C 969.64548,1184.5186 955.024,1259.9687 952.40625,1343.2812 L 862.46875,1343.2812 C 876.6244,1283.022 897.77717,1223.743 925.96875,1166.8125 C 958.40563,1101.309 985.02791,1025.4133 1005.8125,939.125 L 866.9375,939.125 C 863.15859,920.22982 862.20435,901.3327 864.09375,882.4375 C 886.76803,845.90672 915.4215,827.6249 950.0625,827.625 z M 1490.5,828.4375 C 1561.6722,828.43748 1596.3268,865.924 1594.4375,940.875 C 1585.6197,986.85348 1566.3838,1046.3758 1536.7812,1119.4375 C 1510.2361,1184.9531 1495.6461,1260.5461 1492.9062,1343.2812 L 1406.125,1343.2812 C 1420.1974,1287.604 1440.2529,1220.4393 1466.4062,1167.625 C 1498.8431,1102.1215 1525.4654,1026.2259 1546.25,939.9375 L 1407.375,939.9375 C 1403.5961,921.04228 1402.6418,902.1452 1404.5312,883.25 C 1427.2055,846.71918 1455.859,828.4374 1490.5,828.4375 z M 409.625,838.5625 C 480.79719,838.56249 515.4518,876.049 513.5625,951 C 504.7447,996.97849 485.50885,1056.5008 455.90625,1129.5625 C 430.29102,1192.783 415.79096,1264.0263 412.34375,1343.2812 L 327.84375,1343.2812 C 341.74952,1291.1545 360.96823,1227.3529 385.53125,1177.75 C 417.96816,1112.2465 444.5904,1036.3508 465.375,950.0625 L 326.5,950.0625 C 322.72109,931.16729 321.76685,912.2702 323.65625,893.375 C 346.33056,856.84419 374.984,838.5624 409.625,838.5625 z M 929.0625,851.21875 C 907.78319,851.16146 897.15615,859.6656 897.15625,876.75 C 897.15623,891.86622 908.17445,899.7452 930.21875,900.375 C 952.26323,900.37502 963.28115,892.4961 963.28125,876.75 C 963.28123,859.74432 952.57095,851.25 931.15625,851.25 C 930.44763,851.23032 929.7491,851.22055 929.0625,851.21875 z M 1467.5625,852.03125 C 1447.5931,852.49415 1437.5937,861.01199 1437.5938,877.5625 C 1437.5937,892.67868 1448.6119,900.5577 1470.6562,901.1875 C 1492.7007,901.18748 1503.7187,893.3086 1503.7188,877.5625 C 1503.7187,860.55678 1493.0085,852.0625 1471.5938,852.0625 C 1470.8851,852.04278 1470.1866,852.03305 1469.5,852.03125 C 1468.835,852.02946 1468.2067,852.01632 1467.5625,852.03125 z M 388.625,862.15625 C 367.34569,862.09893 356.71865,870.6031 356.71875,887.6875 C 356.71876,902.80369 367.73695,910.6827 389.78125,911.3125 C 411.82576,911.31249 422.84365,903.4336 422.84375,887.6875 C 422.84376,870.68179 412.13345,862.1875 390.71875,862.1875 C 390.01016,862.16779 389.3116,862.15805 388.625,862.15625 z M 851.8125,890 C 849.29309,896.92822 848.9854,904.77585 850.875,913.59375 L 763,930.625 C 786.93393,916.76842 816.5415,903.2267 851.8125,890 z M 1392.25,890.8125 C 1389.7306,897.74068 1389.4229,905.58835 1391.3125,914.40625 L 1303.4375,931.4375 C 1327.3714,917.58088 1356.979,904.0392 1392.25,890.8125 z M 311.375,900.9375 C 308.85559,907.86569 308.5479,915.71335 310.4375,924.53125 L 222.5625,941.5625 C 246.4964,927.70589 276.104,914.1642 311.375,900.9375 z M 850.875,924 C 852.76443,929.03872 854.33405,934.0863 855.59375,939.125 L 759.21875,939.125 L 850.875,924 z M 1391.3125,924.8125 C 1393.2019,929.85118 1394.7715,934.8988 1396.0312,939.9375 L 1299.6562,939.9375 L 1391.3125,924.8125 z M 310.4375,934.9375 C 312.3269,939.97619 313.89655,945.0238 315.15625,950.0625 L 218.78125,950.0625 L 310.4375,934.9375 z M 93.21875,1399.2188 L 1723.0625,1399.2188 C 1760.3611,1399.2188 1779.5183,1458.608 1780.5,1577.375 C 1781.4814,1696.1421 1762.3242,1755.5314 1723.0625,1755.5312 L 93.21875,1755.5312 C 59.846182,1755.5312 43.41549,1696.4015 43.90625,1578.125 C 44.397013,1459.8487 60.827708,1400.2002 93.21875,1399.2188 z "
     id="path4"
     sodipodi:nodetypes="ccccccccccscscccccccccccccccscsccccccccccccccsccsccccccsccsccccccsccscccccscscccscscsccscscccccccccccccccccccccccccccccccsc" />
</svg>
