<?xml version="1.0" encoding ="US-ASCII" standalone="yes"?>
<svg width="23.834419" height="13.68">
<path style="fill:#000000; stroke:none" d=" M 21.686018 12.963866  Q 22.420513 12.963866 22.402151 10.742015  Q 22.383787 8.520163 21.686018 8.520163  L 1.358819 8.520163  Q 0.752859 8.538526 0.743678 10.751197  Q 0.734497 12.963866 1.358819 12.963866  L 21.686018 12.963866  Z  M 5.710711 7.822391  Q 5.710711 5.233289 6.628832 4.232537  Q 7.546955 3.231786 7.657129 2.754363  Q 7.767303 2.27694 7.519411 1.799517  Q 7.271518 1.322094 6.151411 0.789584  Q 5.251651 0.514148 4.608967 0.624322  L 3.26851 1.009933  L 3.286873 1.13847  Q 3.801021 1.06502 4.608967 1.450631  Q 5.01294 1.781154 6.206497 1.579168  Q 7.106256 1.67098 7.179706 2.148403  Q 7.308243 2.772725 6.142229 4.039732  Q 4.976216 5.306738 4.976216 7.822391  L 5.710711 7.822391  Z  M 4.425343 0.918121  Q 5.068028 0.807946 5.104753 0.991571  Q 5.141477 1.230282 4.810953 1.276188  Q 4.48043 1.322094 4.425343 1.028295  L 4.425343 0.918121  Z  M 21.70438 7.804029  Q 23.118284 7.804029 23.136646 10.742015  Q 23.136646 13.68 21.70438 13.68  L 1.340456 13.68  Q 0.018362 13.68 0 10.742015  Q 0.018362 7.804029 1.340456 7.804029  L 4.241719 7.822391  Q 4.572243 5.233289 5.205746 4.498791  Q 5.839249 3.764296 6.335034 3.158336  Q 6.830819 2.552376 6.775732 2.185128  Q 6.739007 1.964779 6.151411 1.983141  Q 4.810953 2.240215 4.003007 1.67098  Q 3.397047 1.468993 0.367248 1.505718  Q 0.183624 1.487356 0.174443 1.29455  Q 0.165262 1.101745 0.367248 1.06502  Q 2.056591 0.863034 3.19506 0.642685  L 4.517155 0.220349  Q 5.710711 -0.018362 7.36333 0.918121  Q 9.107759 1.891329 11.91721 0.018362  L 11.91721 0.807946  Q 9.456644 2.019866 7.895841 1.762792  Q 8.465075 2.736001 7.372511 3.902014  Q 6.279947 5.068028 6.426846 7.822391  L 16.15893 7.804029  Q 16.489454 5.214926 17.113773 4.48043  Q 17.738096 3.745934 18.243059 3.139973  Q 18.748026 2.534014 18.69294 2.166766  Q 18.656219 1.946417 18.050257 1.964779  Q 16.709801 2.221853 15.920218 1.652618  Q 15.295897 1.450631 12.284457 1.505718  Q 12.08247 1.468993 12.073288 1.276188  Q 12.064108 1.083383 12.266094 1.046658  Q 13.973799 0.863034 15.112272 0.624322  L 16.434364 0.220349  Q 17.62792 -0.036725 19.262173 0.899759  Q 21.024969 1.872967 23.834419 0  L 23.834419 0.807946  Q 21.373854 2.019866 19.794685 1.762792  Q 20.363918 2.717638 19.271358 3.883652  Q 18.178791 5.049664 18.344053 7.804029  L 21.70438 7.804029  Z  M 17.62792 7.804029  Q 17.62792 5.214926 18.546038 4.214176  Q 19.464161 3.213423 19.574337 2.745181  Q 19.684513 2.27694 19.436619 1.790336  Q 19.188728 1.303732 18.068621 0.771222  Q 17.150499 0.495785 16.526178 0.60596  L 15.185722 0.991571  L 15.204084 1.120108  Q 15.718231 1.06502 16.507816 1.432269  Q 16.930149 1.762792 18.123707 1.560805  Q 19.005104 1.652618 19.096912 2.130041  Q 19.225452 2.754363 18.059437 4.02137  Q 16.893427 5.288376 16.893427 7.804029  L 17.62792 7.804029  Z  M 16.342554 0.899759  Q 16.966875 0.789584 17.021963 0.973208  Q 17.058689 1.21192 16.728165 1.257826  Q 16.39764 1.303732 16.342554 1.009933  L 16.342554 0.899759  Z "/></svg>
