<?xml version="1.0" encoding ="US-ASCII" standalone="yes"?>
<svg width="23.381598" height="17.976807">
<path style="fill:#000000; stroke:none" d=" M 22.519964 17.173922  L 22.519964 12.454519  L 0.861633 12.454519  L 0.861633 17.173922  L 22.519964 17.173922  Z  M 17.506824 11.690799  Q 17.487242 8.733829 18.407623 6.472042  Q 19.328005 4.210254 19.602161 2.761143  Q 19.68049 0.430817 17.467659 0.450399  Q 16.390617 0.450399 15.666062 1.586189  Q 15.626897 2.173666 15.744392 2.741561  L 18.623032 2.741561  Q 17.957224 5.424374 16.948721 7.470754  Q 15.940219 9.517133 15.528984 11.690799  L 17.506824 11.690799  Z  M 17.076008 0.920381  Q 17.722233 0.920381 17.741816 1.449111  Q 17.722233 1.958258 17.056425 1.958258  Q 16.351452 1.919093 16.351452 1.449111  Q 16.351452 0.920381 17.076008 0.920381  Z  M 15.411489 2.42824  L 13.511979 2.741561  L 15.48982 2.741561  Q 15.450654 2.5849 15.411489 2.42824  Z  M 15.431071 1.723267  Q 14.314864 2.134501 13.570726 2.565318  L 15.411489 2.232414  Q 15.352741 1.938675 15.431071 1.723267  Z  M 7.637206 11.671217  Q 7.637206 8.733829 8.557587 6.462251  Q 9.477968 4.190672 9.752124 2.761143  Q 9.810871 0.430817 7.59804 0.430817  Q 6.520998 0.430817 5.816026 1.566606  Q 5.757278 2.154083 5.874774 2.741561  L 8.753412 2.741561  Q 8.107187 5.424374 7.098684 7.460962  Q 6.090182 9.49755 5.659365 11.671217  L 7.637206 11.671217  Z  M 7.206389 0.920381  Q 7.872196 0.920381 7.872196 1.449111  Q 7.872196 1.938675 7.186806 1.938675  Q 6.501416 1.919093 6.501416 1.449111  Q 6.501416 0.900799 7.206389 0.920381  Z  M 5.54187 2.42824  L 3.642359 2.741561  L 5.639782 2.741561  Q 5.600617 2.5849 5.54187 2.42824  Z  M 5.561452 1.723267  Q 4.464828 2.134501 3.72069 2.565318  L 5.54187 2.212831  Q 5.483122 1.938675 5.561452 1.723267  Z  M 23.381598 11.671217  L 23.381598 17.976807  L 0 17.976807  L 0 11.671217  L 4.856479 11.671217  Q 5.326461 9.360473 6.403503 7.284719  Q 7.480545 5.208966 7.930944 3.250708  L 3.211543 3.250708  L 3.211543 2.624065  Q 3.211543 2.193249 3.72069 2.056171  Q 5.600617 1.233702 5.600617 1.096624  Q 6.383921 0 7.617623 0  Q 9.399637 0 9.898993 0.753929  Q 10.398349 1.507859 10.398349 2.741561  Q 10.398349 3.79902 9.350681 6.286007  Q 8.303013 8.772995 8.381344 11.671217  L 14.706516 11.671217  Q 15.176498 9.380054 16.25354 7.29451  Q 17.330582 5.208966 17.780981 3.250708  L 13.06158 3.250708  L 13.06158 2.643648  Q 13.06158 2.212831 13.570726 2.056171  Q 15.470237 1.233702 15.470237 1.096624  Q 16.25354 0 17.487242 0  Q 19.269257 0 19.758821 0.763721  Q 20.248386 1.527441 20.267969 2.741561  Q 20.248386 3.79902 19.200718 6.295799  Q 18.153049 8.792578 18.250963 11.690799  L 23.381598 11.671217  Z "/></svg>
