<?xml version="1.0" encoding ="US-ASCII" standalone="yes"?>
<svg width="22.598946" height="17.979877">
<path style="fill:#000000; stroke:none" d=" M 5.502352 0.611372  Q 5.895377 0.611372 5.895377 1.026232  Q 5.917212 1.419258 5.502352 1.441092  Q 5.131162 1.441092 5.131162 1.048067  Q 5.131162 0.611372 5.502352 0.611372  Z  M 14.476426 8.974074  Q 15.415319 10.174985 16.747238 11.506903  Q 17.35861 12.336623 16.921917 12.729648  Q 16.485222 13.122673 15.611833 12.926161  Q 14.039732 13.537533 11.921762 13.581203  L 11.223051 16.550726  Q 11.834424 17.096594 11.987267 17.686132  Q 11.987267 17.90448 11.81259 17.969984  Q 11.637912 18.035488 11.550572 17.686132  Q 11.506903 17.314941 10.982869 17.096594  Q 10.917365 17.402281 10.371497 17.817141  L 4.563459 17.817141  Q 4.301442 17.817141 4.301442 17.555124  Q 4.301442 17.074759 6.266568 17.009254  Q 7.598486 16.921917 7.598486 16.747238  Q 8.537379 14.105236 8.537379 13.341021  Q 8.537379 12.838821 7.489313 10.655349  L 6.419411 8.602884  L 7.205461 8.624719  Q 8.035181 10.000307 8.526463 11.092043  Q 9.017744 12.18378 9.148752 13.122673  Q 9.192422 13.996062 9.410769 13.079003  L 9.410769 12.249284  Q 11.31039 12.904325 11.31039 13.668541  Q 11.31039 14.410922 11.528738 13.712211  Q 11.747085 13.013499 11.026539 12.380292  Q 11.76892 12.773317 12.915243 12.751483  Q 14.061566 12.729648 15.284311 12.14011  Q 15.633667 12.358458 15.939353 12.303871  Q 16.245039 12.249284 16.266874 11.921762  Q 16.245039 11.616076 15.196973 10.917365  L 13.581203 8.886735  L 14.476426 8.974074  Z  M 9.78196 12.991665  L 9.78196 13.450194  L 8.668388 16.856413  L 8.668388 16.900082  L 9.541778 16.900082  Q 10.043976 16.878246 10.131315 16.419718  L 10.851861 13.734046  Q 10.851861 13.297351 9.78196 12.991665  Z  M 4.06126 1.288249  L 4.06126 0.895224  Q 3.624565 1.048067 3.209705 1.462927  L 4.06126 1.288249  Z  M 3.537226 1.572101  Q 3.777408 1.855952 4.279607 2.03063  Q 4.607128 1.812283 4.104929 1.441092  L 3.537226 1.572101  Z  M 7.598486 6.244733  Q 8.581049 6.244733 9.27976 6.244733  Q 8.930405 6.113725 8.843066 5.720699  Q 8.755727 5.327674 9.006826 5.556939  Q 9.257926 5.786203 9.69462 5.808038  Q 10.131315 5.829873 10.043976 5.087492  Q 9.519942 3.973921 7.926007 3.6464  Q 7.904172 2.008795 7.2928 1.222745  Q 6.681427 0.436695 5.63336 0.436695  Q 5.021988 0.436695 4.454285 0.895224  L 4.454285 1.266414  Q 5.000154 1.593935 4.858228 1.997878  Q 4.716302 2.40182 5.032906 2.729341  Q 5.349509 3.056862 5.327674 3.788326  Q 5.30584 4.519789 5.524187 5.131162  Q 5.742534 5.742534 6.026386 6.266568  Q 6.681427 6.266568 7.096287 6.244733  Q 6.572254 5.567856 6.605006 4.934649  Q 6.637758 4.301442 7.270965 3.973921  Q 7.904172 3.6464 7.380139 4.126764  Q 6.856105 4.607128 6.921609 5.163914  Q 6.987114 5.720699 7.598486 6.244733  Z  M 9.716455 6.244733  Q 10.764523 6.244733 11.288556 6.244733  Q 10.699018 5.720699 10.415167 5.63336  Q 10.393332 6.04822 9.716455 6.244733  Z  M 16.856413 6.397576  Q 17.991817 6.50675 19.170893 7.12904  Q 20.34997 7.751329 21.474457 9.749207  Q 22.598946 11.747085 22.598946 12.991665  Q 22.620781 14.389088 21.09235 14.389088  Q 20.524647 14.389088 19.673092 13.75588  Q 19.192728 14.5856 18.494017 14.5856  Q 17.074759 14.5856 17.009254 12.795152  Q 17.009254 12.445796 17.424114 10.917365  Q 17.838974 9.388934 16.332378 9.148752  Q 12.161945 8.733892 8.613801 8.668388  Q 5.065658 8.602884 3.318879 8.384537  Q 2.008795 8.864901 1.222745 8.864901  Q 0 8.864901 0 7.70766  Q 0 6.550419 2.40182 5.655195  Q 3.078697 5.502352 3.711904 5.524187  Q 4.301442 5.546021 4.47612 6.09189  Q 4.759971 6.288403 5.349509 6.288403  Q 5.109327 5.829873 4.869145 5.218501  Q 4.628963 4.607128 4.607128 3.166036  Q 4.257772 2.598333 4.192268 2.292647  Q 3.602731 2.161638 2.882185 1.506596  Q 3.406218 0.873389 3.930252 0.698711  Q 4.781806 0 5.63336 0  Q 7.380139 -0.021835 7.958759 0.906141  Q 8.537379 1.834117 8.559215 3.144201  Q 9.672786 3.690069 10.098563 4.06126  Q 10.52434 4.43245 10.830027 5.065658  Q 11.31039 5.30584 12.227449 6.244733  Q 15.393485 6.266568 16.856413 6.397576  Z  M 3.777408 6.310237  Q 3.537226 6.222898 3.035028 6.222898  Q 1.637605 6.288403 0.698711 7.401974  Q 0.37119 8.166189 1.091737 8.253529  Q 1.965126 8.253529 2.871267 7.729495  Q 3.777408 7.205461 3.777408 6.310237  Z  M 4.43245 6.790601  Q 4.235938 7.401974 3.777408 7.816833  Q 8.821231 8.078851 14.760278 8.253529  Q 16.61623 8.428206 17.44595 8.777562  Q 19.345572 9.563612 20.131622 12.96983  Q 20.459143 13.537533 20.983175 13.537533  Q 21.747391 13.559368 21.878401 13.013499  Q 21.943905 11.288556 20.371803 9.083248  Q 18.799704 6.87794 15.131469 6.87794  L 4.43245 6.790601  Z  M 18.100992 9.934802  Q 18.122826 10.895531 17.729801 12.664144  Q 17.555124 13.75588 18.341173 13.75588  Q 19.258232 13.75588 19.258232 12.511301  Q 19.258232 11.223051 18.100992 9.934802  Z "/></svg>
