<?xml version="1.0" encoding ="US-ASCII" standalone="yes"?>
<svg width="19.629423" height="17.979877">
<path style="fill:#000000; stroke:none" d=" M 5.829873 0  Q 7.576652 -0.021835 8.155272 0.906141  Q 8.733892 1.834117 8.755727 3.144201  Q 9.869298 3.690069 10.295075 4.06126  Q 10.720853 4.43245 11.026539 5.065658  Q 11.943598 5.546021 14.410922 8.559215  Q 15.611833 10.174985 16.921917 11.506903  Q 17.555124 12.336623 17.118429 12.729648  Q 16.681734 13.122673 15.78651 12.926161  Q 14.236244 13.537533 12.09644 13.581203  L 11.419564 16.550726  Q 12.009102 17.096594 12.161945 17.686132  Q 12.161945 17.90448 11.987267 17.969984  Q 11.81259 18.035488 11.747085 17.686132  Q 11.703416 17.314941 11.179382 17.096594  Q 11.113878 17.402281 10.568009 17.817141  L 4.759971 17.817141  Q 4.47612 17.817141 4.47612 17.555124  Q 4.47612 17.074759 6.441246 17.009254  Q 7.773164 16.921917 7.773164 16.747238  Q 8.733892 14.105236 8.733892 13.341021  Q 8.733892 12.838821 7.685825 10.655349  Q 5.567856 6.50675 5.196666 5.556939  Q 4.825476 4.607128 4.803641 3.166036  Q 4.454285 2.598333 4.366946 2.292647  Q 3.799243 2.161638 3.078697 1.506596  Q 3.602731 0.873389 4.104929 0.698711  Q 4.978319 0 5.829873 0  Z  M 5.67703 0.611372  Q 6.09189 0.611372 6.09189 1.026232  Q 6.09189 1.419258 5.67703 1.419258  Q 5.30584 1.419258 5.30584 1.048067  Q 5.30584 0.611372 5.67703 0.611372  Z  M 11.201217 12.380292  Q 11.965432 12.773317 13.100839 12.751483  Q 14.236244 12.729648 15.480824 12.118276  Q 15.830179 12.358458 16.135866 12.303871  Q 16.441551 12.249284 16.441551 11.921762  Q 16.441551 11.616076 15.371651 10.917365  Q 11.463234 5.917212 10.611679 5.63336  Q 10.589845 6.04822 9.912968 6.222898  Q 11.747085 7.380139 10.830027 7.936924  Q 9.912968 8.493711 9.410769 8.231693  Q 7.838668 7.074453 7.303718 6.310237  Q 6.768766 5.546021 6.801518 4.923732  Q 6.83427 4.301442 7.467478 3.973921  Q 8.100685 3.6464 7.576652 4.126764  Q 7.052618 4.607128 7.118122 5.163914  Q 7.183626 5.720699 8.297197 6.823353  Q 9.410769 7.926007 10.142232 7.565734  Q 10.873695 7.205461 9.989389 6.659593  Q 9.105083 6.113725 9.028661 5.720699  Q 8.95224 5.327674 9.192422 5.556939  Q 9.432604 5.786203 9.880216 5.808038  Q 10.327827 5.829873 10.240489 5.087492  Q 9.716455 3.973921 8.122519 3.6464  Q 8.078851 2.008795 7.467478 1.222745  Q 6.856105 0.436695 5.829873 0.436695  Q 5.218501 0.436695 4.650798 0.895224  L 4.650798 1.266414  Q 5.174831 1.593935 5.043823 1.997878  Q 4.912815 2.40182 5.229418 2.729341  Q 5.546021 3.056862 5.524187 3.788326  Q 5.502352 4.519789 5.797121 5.360426  Q 6.09189 6.201064 7.150874 8.100685  Q 8.209859 10.000307 8.70114 11.092043  Q 9.192422 12.18378 9.345264 13.122673  Q 9.388934 13.996062 9.585446 13.079003  L 9.585446 12.249284  Q 11.485068 12.904325 11.485068 13.657624  Q 11.485068 14.410922 11.714333 13.712211  Q 11.943598 13.013499 11.201217 12.380292  Z  M 9.956637 12.991665  L 9.956637 13.450194  L 8.864901 16.856413  L 8.864901 16.900082  L 9.716455 16.900082  Q 10.240489 16.878246 10.327827 16.419718  L 11.026539 13.734046  Q 11.048373 13.297351 9.956637 12.991665  Z  M 4.235938 1.288249  L 4.235938 0.895224  Q 3.799243 1.048067 3.406218 1.462927  L 4.235938 1.288249  Z  M 3.733739 1.572101  Q 3.973921 1.855952 4.454285 2.03063  Q 4.803641 1.812283 4.301442 1.441092  L 3.733739 1.572101  Z  M 9.803794 10.349663  Q 13.253681 10.349663 17.140263 8.821231  Q 13.253681 7.249131 9.803794 7.249131  L 9.803794 7.249131  Q 6.353907 7.249131 2.467324 8.821231  Q 6.353907 10.349663 9.803794 10.349663  L 9.803794 10.349663  Z  M 9.803794 6.244733  Q 14.083402 6.244733 19.629423 8.799397  Q 14.083402 11.35406 9.803794 11.35406  Q 5.546021 11.35406 0 8.799397  Q 5.524187 6.244733 9.803794 6.244733  Z "/></svg>
