<?xml version="1.0" encoding ="US-ASCII" standalone="yes"?>
<svg width="18.071611" height="17.98107">
<path style="fill:#000000; stroke:none" d=" M 4.888938 0.632943  Q 5.303625 0.632943 5.303625 1.025804  Q 5.303625 1.440491 4.888938 1.440491  Q 4.517903 1.440491 4.517903 1.069455  Q 4.517903 0.632943 4.888938 0.632943  Z  M 9.166759 13.008068  L 9.166759 13.444581  L 8.075479 16.871202  L 8.075479 16.893028  L 8.926678 16.893028  Q 9.450493 16.893028 9.537795 16.412865  L 10.236215 13.728313  Q 10.25804 13.313627 9.166759 13.008068  Z  M 3.448448 1.309537  L 3.448448 0.916676  Q 3.011935 1.04763 2.619074 1.484142  L 3.448448 1.309537  Z  M 2.946458 1.571445  Q 3.18654 1.877003 3.666704 2.051608  Q 4.015913 1.833352 3.492099 1.440491  L 2.946458 1.571445  Z  M 14.579513 10.978286  L 7.835397 10.978286  Q 8.402863 12.200521 8.555642 13.117196  Q 8.599294 14.012047 8.795724 13.095371  L 8.795724 12.244172  Q 10.694552 12.920766 10.694552 13.662837  Q 10.694552 14.404908 10.912809 13.706488  Q 11.131065 13.008068 10.41082 12.375125  Q 11.174716 12.767986 12.309649 12.746161  Q 13.444581 12.724336 14.688641 12.135043  Q 15.016026 12.375125 15.332497 12.309649  Q 15.648968 12.244172 15.648968 11.938613  Q 15.648968 11.611229 14.579513 10.978286  Z  M 8.642944 6.220301  Q 8.31556 6.111173 8.239171 5.729225  Q 8.162781 5.347276 8.402863 5.565533  Q 8.642944 5.783789 9.09037 5.816527  Q 9.537795 5.849266 9.450493 5.107194  Q 8.904852 3.972262 7.333407 3.644878  Q 7.289756 2.007957 6.678639 1.222235  Q 6.067522 0.436512 5.041718 0.436512  Q 4.430601 0.436512 3.863134 0.89485  L 3.863134 1.287712  Q 4.386949 1.615096 4.255995 2.007957  Q 4.125042 2.400818 4.441513 2.739115  Q 4.757985 3.077412 4.736159 3.80857  Q 4.714334 4.539729 4.921677 5.139933  Q 5.12902 5.740138 5.390928 6.220301  L 6.460383 6.220301  Q 5.980219 5.565533 6.012958 4.93259  Q 6.045696 4.299647 6.678639 3.972262  Q 7.311582 3.644878 6.776855 4.125042  Q 6.242127 4.605206 6.318516 5.172671  Q 6.394906 5.740138 6.940547 6.220301  L 8.642944 6.220301  Z  M 10.672728 6.220301  Q 10.083435 5.718312 9.821528 5.63101  Q 9.799703 6.067522 9.123108 6.220301  L 10.672728 6.220301  Z  M 18.071611 6.220301  L 18.071611 10.978286  L 15.561666 10.978286  L 16.129131 11.502101  Q 16.762075 12.3533 16.31465 12.735248  Q 15.867225 13.117196 14.9942 12.942592  Q 13.422755 13.531883 11.30567 13.59736  L 10.629076 16.565643  Q 11.218368 17.111284 11.371147 17.700577  Q 11.371147 17.918833 11.196542 17.973396  Q 11.021937 18.02796 10.95646 17.700577  Q 10.890984 17.307714 10.388994 17.089458  Q 10.323517 17.416843 9.756051 17.83153  L 3.972262 17.83153  Q 3.688529 17.83153 3.688529 17.547796  Q 3.688529 17.067633 5.652835 17.002157  Q 6.984198 16.93668 6.984198 16.762075  Q 7.922699 14.099349 7.922699 13.357278  Q 7.922699 12.833464 7.027849 10.978286  L 0 10.978286  L 0 6.220301  L 4.670682 6.220301  Q 4.015913 4.605206 4.015913 3.18654  Q 3.666704 2.619074 3.579401 2.313515  Q 3.011935 2.160736 2.29169 1.505968  Q 2.815505 0.89485 3.317494 0.720245  Q 4.190519 0 5.041718 0  Q 6.765942 -0.021826 7.34432 0.916676  Q 7.922699 1.855178 7.966351 3.164715  Q 9.079457 3.710355 9.494143 4.070478  Q 9.908831 4.430601 10.214389 5.063543  Q 10.716378 5.325451 11.633055 6.220301  L 18.071611 6.220301  Z  M 0.611117 6.831419  L 0.611117 10.367168  L 8.162781 10.367168  L 6.460383 6.831419  L 0.611117 6.831419  Z  M 9.952482 6.853244  L 11.611229 10.367168  L 10.781856 10.367168  L 9.079457 6.853244  L 7.333407 6.853244  L 8.992155 10.367168  L 17.460495 10.367168  L 17.460495 6.831419  L 9.952482 6.853244  Z "/></svg>
