<?xml version="1.0" encoding ="US-ASCII" standalone="yes"?>
<svg width="18.210165" height="17.979877">
<path style="fill:#000000; stroke:none" d=" M 4.585293 0.611372  Q 5.000154 0.611372 5.000154 1.026232  Q 5.000154 1.419258 4.585293 1.441092  Q 4.214103 1.441092 4.214103 1.069902  Q 4.214103 0.611372 4.585293 0.611372  Z  M 8.864901 12.991665  L 8.864901 13.450194  L 7.773164 16.856413  L 7.773164 16.900082  L 8.624719 16.900082  Q 9.148752 16.900082 9.236091 16.419718  L 9.934802 13.734046  Q 9.956637 13.297351 8.864901 12.991665  Z  M 3.144201 1.288249  L 3.144201 0.917059  Q 2.707507 1.048067 2.314481 1.462927  L 3.144201 1.288249  Z  M 2.642002 1.572101  Q 2.882185 1.855952 3.362549 2.03063  Q 3.711904 1.834117 3.209705 1.441092  L 2.642002 1.572101  Z  M 6.484915 6.04822  Q 7.052618 5.939047 8.035181 5.873542  Q 7.947842 5.829873 7.904172 5.589691  Q 7.860503 5.349509 8.100685 5.567856  Q 8.340867 5.786203 8.788479 5.808038  Q 9.236091 5.829873 9.148752 5.087492  Q 8.624719 3.973921 7.030783 3.6464  Q 6.987114 2.008795 6.375741 1.222745  Q 5.764369 0.436695 4.738137 0.436695  Q 4.126764 0.436695 3.559061 0.895224  L 3.559061 1.266414  Q 4.083095 1.593935 3.952086 1.997878  Q 3.821078 2.40182 4.137681 2.729341  Q 4.454285 3.056862 4.43245 3.788326  Q 4.410615 4.519789 4.628963 5.152997  Q 4.84731 5.786203 5.131162 6.419411  Q 5.30584 6.419411 5.917212 6.222898  Q 6.09189 6.179229 6.09189 6.157394  Q 5.67703 5.567856 5.709782 4.934649  Q 5.742534 4.301442 6.375741 3.973921  Q 7.008948 3.6464 6.484915 4.126764  Q 5.960881 4.607128 6.015468 5.065658  Q 6.070055 5.524187 6.484915 6.04822  Z  M 9.27976 5.939047  Q 9.891133 5.939047 10.349663 6.201064  Q 9.78196 5.720699 9.519942 5.63336  Q 9.498108 5.873542 9.27976 5.939047  Z  M 14.62927 11.201217  Q 13.38469 11.201217 11.277638 11.60516  Q 9.170587 12.009102 8.013346 12.074606  Q 8.100685 12.18378 8.253529 13.122673  Q 8.297197 13.996062 8.493711 13.079003  L 8.493711 12.249284  Q 10.393332 12.904325 10.393332 13.668541  Q 10.393332 14.410922 10.622597 13.712211  Q 10.851861 13.013499 10.10948 12.380292  Q 10.873695 12.773317 12.009102 12.751483  Q 13.144507 12.729648 14.389088 12.14011  Q 14.738443 12.380292 15.044129 12.314788  Q 15.349815 12.249284 15.349815 11.921762  Q 15.349815 11.616076 14.62927 11.201217  Z  M 7.227296 12.074606  Q 6.87794 12.09644 4.84731 12.085524  Q 2.81668 12.074606 0.873389 11.616076  Q 0 11.397729 0 9.956637  Q 0.021835 8.646553 0.960728 8.559215  Q 2.81668 8.100685 4.345111 8.100685  Q 3.668235 8.166189 3.264292 7.270965  Q 2.86035 6.375741 4.192268 6.419411  Q 4.454285 6.441246 4.47612 6.419411  Q 4.214103 5.873542 3.973921 5.240335  Q 3.733739 4.607128 3.711904 3.166036  Q 3.362549 2.598333 3.27521 2.292647  Q 2.707507 2.161638 1.986961 1.506596  Q 2.510994 0.873389 3.013193 0.698711  Q 3.886582 0 4.738137 0  Q 6.484915 -0.021835 7.063535 0.906141  Q 7.642156 1.834117 7.66399 3.144201  Q 8.777562 3.690069 9.203339 4.06126  Q 9.629116 4.43245 9.934802 5.065658  Q 10.589845 5.415013 12.074606 7.030783  Q 13.057169 7.620321 14.956791 7.773164  Q 16.856413 7.926007 18.210165 7.532982  L 18.210165 11.637912  Q 16.266874 11.266721 15.502659 11.223051  L 15.830179 11.506903  Q 16.463387 12.336623 16.026691 12.729648  Q 15.589997 13.122673 14.694774 12.926161  Q 13.144507 13.537533 11.004704 13.603037  L 10.327827 16.550726  Q 10.917365 17.096594 11.070209 17.686132  Q 11.070209 17.90448 10.895531 17.969984  Q 10.720853 18.035488 10.655349 17.686132  Q 10.611679 17.314941 10.087646 17.096594  Q 10.022141 17.402281 9.476274 17.817141  L 3.668235 17.817141  Q 3.384383 17.817141 3.384383 17.555124  Q 3.384383 17.074759 5.349509 17.009254  Q 6.681427 16.921917 6.681427 16.747238  Q 7.642156 14.105236 7.642156 13.341021  Q 7.642156 12.838821 7.227296 12.074606  Z  M 4.017591 7.096287  L 4.039425 7.118122  Q 4.06126 7.70766 5.567856 7.70766  Q 8.777562 7.423809 8.035181 8.559215  Q 3.209705 8.646553 1.397423 9.192422  Q 0.720546 9.214256 0.698711 10.043976  Q 0.698711 10.9392 1.484762 11.004704  Q 3.362549 11.31039 6.594089 11.31039  Q 8.384537 11.419564 12.074606 10.699018  Q 13.996062 10.458836 14.782113 10.458836  Q 16.004858 10.458836 17.511454 10.786357  L 17.511454 8.406371  Q 16.070362 8.559215 14.42184 8.493711  Q 12.773317 8.428206 11.124795 7.489313  Q 9.476274 6.550419 7.794999 6.594089  Q 6.353907 6.790601 5.436848 7.063535  Q 4.519789 7.33647 4.017591 7.096287  Z "/></svg>
