<?xml version="1.0" encoding ="US-ASCII" standalone="yes"?>
<svg width="18.603191" height="17.979877">
<path style="fill:#000000; stroke:none" d=" M 6.83427 0  Q 8.581049 -0.021835 9.15967 0.906141  Q 9.73829 1.834117 9.760124 3.144201  Q 10.873695 3.690069 11.299473 4.06126  Q 11.72525 4.43245 12.030936 5.043823  Q 12.947995 5.524187 15.415319 8.559215  Q 16.61623 10.174985 17.948149 11.485068  Q 18.559521 12.336623 18.122826 12.718731  Q 17.686132 13.100839 16.812742 12.926161  Q 15.240642 13.515698 13.122673 13.581203  L 12.423962 16.550726  Q 13.035335 17.096594 13.188177 17.686132  Q 13.188177 17.90448 13.013499 17.969984  Q 12.838821 18.035488 12.751483 17.686132  Q 12.707813 17.293106 12.18378 17.074759  Q 12.118276 17.402281 11.572407 17.817141  L 5.764369 17.817141  Q 5.502352 17.817141 5.502352 17.533289  Q 5.502352 17.052925 7.467478 16.987421  Q 8.799397 16.921917 8.799397 16.747238  Q 9.73829 14.083402 9.73829 13.341021  Q 9.73829 12.838821 8.690223 10.633513  Q 6.572254 6.50675 6.201064 5.546021  Q 5.829873 4.585293 5.829873 3.166036  Q 5.458683 2.598333 5.393178 2.292647  Q 4.803641 2.139804 4.083095 1.506596  Q 4.607128 0.873389 5.131162 0.698711  Q 5.982716 0 6.83427 0  Z  M 6.703262 0.611372  Q 7.096287 0.611372 7.096287 1.004398  Q 7.118122 1.419258 6.703262 1.419258  Q 6.332072 1.419258 6.332072 1.048067  Q 6.332072 0.611372 6.703262 0.611372  Z  M 12.227449 12.380292  Q 12.96983 12.751483 14.116154 12.729648  Q 15.262477 12.707813 16.485222 12.118276  Q 16.834578 12.358458 17.140263 12.292953  Q 17.44595 12.227449 17.467785 11.921762  Q 17.44595 11.616076 16.397882 10.917365  Q 12.489466 5.917212 11.616076 5.611526  Q 11.594242 6.04822 10.917365 6.201064  Q 12.751483 7.358304 11.834424 7.91509  Q 10.917365 8.471875 10.415167 8.231693  Q 8.843066 7.074453 8.308115 6.310237  Q 7.773164 5.546021 7.805916 4.912815  Q 7.838668 4.279607 8.471875 3.963004  Q 9.105083 3.6464 8.581049 4.115847  Q 8.057015 4.585293 8.133437 5.152997  Q 8.209859 5.720699 9.312512 6.812436  Q 10.415167 7.904172 11.14663 7.554817  Q 11.878094 7.205461 11.004704 6.659593  Q 10.131315 6.113725 10.043976 5.720699  Q 9.956637 5.327674 10.207737 5.546021  Q 10.458836 5.764369 10.895531 5.797121  Q 11.332225 5.829873 11.244886 5.087492  Q 10.720853 3.973921 9.126918 3.6464  Q 9.105083 1.986961 8.493711 1.211828  Q 7.882338 0.436695 6.83427 0.436695  Q 6.222898 0.436695 5.655195 0.895224  L 5.655195 1.266414  Q 6.201064 1.593935 6.059138 1.986961  Q 5.917212 2.379986 6.233816 2.718424  Q 6.550419 3.056862 6.528584 3.788326  Q 6.50675 4.519789 6.801518 5.349509  Q 7.096287 6.179229 8.166189 8.089767  Q 9.236091 10.000307 9.727372 11.092043  Q 10.218654 12.18378 10.349663 13.100839  Q 10.415167 13.996062 10.611679 13.079003  L 10.611679 12.227449  Q 12.511301 12.904325 12.511301 13.646707  Q 12.511301 14.389088 12.729648 13.690376  Q 12.947995 12.991665 12.227449 12.380292  Z  M 10.982869 12.991665  L 10.982869 13.450194  L 9.891133 16.856413  L 9.891133 16.900082  L 10.742687 16.900082  Q 11.244886 16.878246 11.332225 16.397882  L 12.052772 13.712211  Q 12.052772 13.297351 10.982869 12.991665  Z  M 5.26217 1.288249  L 5.26217 0.895224  Q 4.825476 1.048067 4.410615 1.462927  L 5.26217 1.288249  Z  M 4.759971 1.550266  Q 4.978319 1.855952 5.480517 2.03063  Q 5.829873 1.812283 5.30584 1.441092  L 4.759971 1.550266  Z  M 18.603191 9.061413  L 5.939047 8.930405  Q 3.690069 9.454438 2.314481 9.028661  Q 0.938893 8.602884 0 7.838668  L 0.633207 6.987114  Q 0.895224 7.227296 1.069902 7.33647  L 2.86035 2.969523  L 4.607128 7.33647  Q 5.043823 7.511147 5.67703 7.816833  L 15.808345 7.554817  Q 16.245039 7.554817 16.638065 3.755574  Q 16.681734 3.187871 17.642462 3.187871  Q 18.603191 3.187871 18.603191 4.170434  L 18.603191 9.061413  Z  M 2.86035 4.738137  L 1.593935 7.66399  Q 2.40182 8.035181 2.936771 8.111603  Q 3.471722 8.188024 3.952086 8.057015  Q 4.366946 7.947842 3.930252 7.860503  L 2.86035 7.860503  Q 2.248977 7.860503 2.248977 7.227296  L 2.44549 7.227296  L 2.86035 6.113725  L 3.253375 7.227296  L 3.952086 7.227296  L 2.86035 4.738137  Z  M 16.834578 7.554817  L 18.013653 7.554817  L 18.013653 4.192268  Q 18.013653 3.733739 17.620628 3.733739  Q 17.227602 3.733739 17.227602 3.995756  L 16.834578 7.554817  Z "/></svg>
