<?xml version="1.0" encoding="UTF-8" standalone="no"?>
<svg
   xmlns:dc="http://purl.org/dc/elements/1.1/"
   xmlns:cc="http://web.resource.org/cc/"
   xmlns:rdf="http://www.w3.org/1999/02/22-rdf-syntax-ns#"
   xmlns:svg="http://www.w3.org/2000/svg"
   xmlns="http://www.w3.org/2000/svg"
   xmlns:sodipodi="http://sodipodi.sourceforge.net/DTD/sodipodi-0.dtd"
   xmlns:inkscape="http://www.inkscape.org/namespaces/inkscape"
   width="1800"
   height="1800"
   id="svg2"
   sodipodi:version="0.32"
   inkscape:version="0.45.1"
   sodipodi:docname="G248.svg"
   sodipodi:docbase="/home/rosmord/Desktop/tmp"
   inkscape:output_extension="org.inkscape.output.svg.inkscape"
   version="1.0">
  <metadata
     id="metadata9">
    <rdf:RDF>
      <cc:Work
         rdf:about="">
        <dc:format>image/svg+xml</dc:format>
        <dc:type
           rdf:resource="http://purl.org/dc/dcmitype/StillImage" />
      </cc:Work>
    </rdf:RDF>
  </metadata>
  <defs
     id="defs7" />
  <sodipodi:namedview
     inkscape:window-height="572"
     inkscape:window-width="753"
     inkscape:pageshadow="2"
     inkscape:pageopacity="0.0"
     guidetolerance="10.0"
     gridtolerance="10.0"
     objecttolerance="10.0"
     borderopacity="1.0"
     bordercolor="#666666"
     pagecolor="#ffffff"
     id="base"
     width="1800px"
     height="1800px"
     inkscape:zoom="0.1051168"
     inkscape:cx="711"
     inkscape:cy="884.60298"
     inkscape:window-x="0"
     inkscape:window-y="120"
     inkscape:current-layer="svg2" />
  <path
     style="fill:#000000;stroke:none"
     d="M 489.9375 12.15625 C 486.37247 12.139183 482.76613 12.141985 479.125 12.1875 C 422.32343 12.1875 364.78922 35.518622 306.53125 82.125 C 273.03287 93.776583 238.79855 120.70044 203.84375 162.9375 C 251.90662 206.63099 295.6134 233.58606 334.9375 243.78125 C 339.30687 264.17153 353.13431 292.55756 376.4375 328.96875 C 377.89392 425.09448 391.02158 504.8318 415.78125 568.1875 C 433.15338 612.63964 479.30006 709.8528 554.03125 859.34375 C 481.22694 858.58135 419.21506 854.80738 374.625 846.5 C 364.40378 834.9653 265.68675 699.68783 202.90625 685.03125 C 197.969 683.87852 183.23268 682.58181 164.84375 681.21875 C 154.6014 599.37839 144.28523 517.52314 134 435.6875 C 153.69167 412.91797 197.3218 419.13015 208.90625 387.5625 C 220.77592 372.77249 212.74469 348.01993 191.25 347.46875 C 174.91525 341.34422 128.22687 340.59375 122.46875 341.125 C 89.766053 346.79393 46.2186 365.51485 51.90625 403.3125 C 51.906248 493.7318 51.90625 584.17472 51.90625 674.59375 C -12.175501 671.42162 -78.008849 668.66937 -97.5625 667.75 C -97.562499 701.87006 -68.247433 748.46875 25.0625 748.46875 C 26.0846 825.36563 40.38699 919.53322 55.71875 967.59375 C 55.810082 967.52853 55.90866 967.50251 56 967.4375 L 68 1093.4375 C 68.000001 1124.1653 191.1875 1105.6875 191.1875 1105.6875 L 185.5625 979.15625 C 309.1988 980.06105 459.36226 982.16561 617.21875 984.8125 C 632.28817 1014.5374 648.11557 1045.6072 664.8125 1078.3125 C 734.72207 1223.9575 769.68752 1313.533 769.6875 1347.0312 C 769.6875 1398.0068 737.6463 1512.3444 673.5625 1690.0312 C 673.5625 1700.2263 629.85567 1708.2369 542.46875 1714.0625 C 411.38823 1718.432 345.84374 1736.6456 345.84375 1768.6875 C 345.84375 1787.6213 354.58508 1797.0937 372.0625 1797.0938 L 953.1875 1797.0938 C 989.5987 1767.9648 1010.0056 1743.2026 1014.375 1722.8125 C 1049.3298 1737.3769 1068.2435 1757.0217 1071.1562 1781.7812 C 1076.9821 1805.0846 1085.7234 1814.557 1097.375 1810.1875 C 1109.0267 1805.8181 1114.875 1796.3457 1114.875 1781.7812 C 1104.6799 1742.457 1079.1869 1704.5988 1038.4062 1668.1875 L 1108.3125 1373.25 C 1249.5881 1368.8806 1372.6668 1346.312 1477.5312 1305.5312 C 1535.7891 1318.6394 1579.4646 1312.0911 1608.5938 1285.875 C 1637.7228 1259.6589 1631.9056 1218.8764 1591.125 1163.5312 C 1539.9292 1112.3355 1490.2002 1058.2181 1441.9062 1001.2188 C 1618.0441 1005.0818 1746.2228 1008 1762.8438 1008 C 1788.5496 1008 1805.7188 982.07549 1805.7188 946.03125 L 1818.875 403 L 1502.8125 399.9375 L 1477.125 823.5 C 1426.2414 823.6378 1366.9927 825.51333 1302.875 828.3125 C 1157.1086 651.90166 1055.8162 548.75937 999.0625 519.03125 C 978.6722 476.79422 954.27574 443.32217 925.875 418.5625 C 897.47425 393.8029 846.15393 363.1925 771.875 326.78125 C 770.41851 240.8507 750.37714 166.59612 711.78125 103.96875 C 674.39144 43.298504 600.45348 12.685331 489.9375 12.15625 z M 479.125 55.90625 C 547.57815 55.90625 602.18821 82.099072 642.96875 134.53125 C 683.74935 186.96349 705.58707 267.79753 708.5 377.03125 C 814.82084 398.87797 885.48267 446.93983 920.4375 521.21875 C 926.26328 570.73816 914.59775 594.76905 885.46875 593.3125 C 856.33976 591.8561 833.4054 583.84579 816.65625 569.28125 C 799.90704 554.7167 794.45546 560.19948 800.28125 585.6875 C 806.10705 611.17533 838.14826 642.11997 896.40625 678.53125 C 954.66427 714.94237 959.38476 745.1561 910.59375 769.1875 C 861.80263 793.21894 800.27896 768.82256 726 696 C 651.72105 623.17743 612.4006 567.83644 608.03125 529.96875 C 603.66187 492.10102 618.9514 457.13565 653.90625 425.09375 C 688.86102 393.05187 685.20585 387.96579 642.96875 409.8125 C 600.73169 431.65926 578.52843 463.70057 576.34375 505.9375 C 574.1591 548.17456 590.91074 594.40873 626.59375 644.65625 C 662.2767 694.90379 732.54181 758.62058 837.40625 835.8125 C 870.90462 853.28986 918.23539 843.48334 979.40625 806.34375 C 1040.5771 769.20434 1009.9979 712.03567 887.65625 634.84375 C 932.8062 623.19217 956.10609 603.51626 957.5625 575.84375 C 996.16379 588.71082 1082.2442 674.31189 1215.6875 832.46875 C 1025.7565 842.21085 807.80425 856.6909 632.03125 859.125 C 625.63192 847.57639 619.11899 835.85534 612.375 823.8125 C 541.00895 696.37302 495.5058 604.60457 475.84375 548.53125 C 456.18164 492.45793 447.07477 440.4066 448.53125 392.34375 C 449.98766 344.28089 440.14977 308.94995 419.03125 286.375 C 397.91278 263.80006 391.73007 239.40359 400.46875 213.1875 C 409.20744 186.97134 396.1111 162.20942 361.15625 138.90625 L 361.15625 101.78125 C 399.02401 71.195795 438.3444 55.906249 479.125 55.90625 z M 466 75.5625 C 441.24033 75.5625 428.87499 90.121012 428.875 119.25 C 428.875 144.0096 441.24034 156.40625 466 156.40625 C 492.2161 154.94984 505.34374 141.09109 505.34375 114.875 C 505.34375 88.658912 492.21611 75.562501 466 75.5625 z M 321.8125 103.96875 L 321.8125 143.28125 L 236.625 158.5625 C 262.84108 130.88993 291.22711 112.70745 321.8125 103.96875 z M 326.1875 156.40625 C 359.68588 182.62242 365.50301 202.26699 343.65625 215.375 C 310.15795 203.72339 285.42722 188.43388 269.40625 169.5 L 326.1875 156.40625 z M 1565.3438 461.875 C 1684.6951 467.34553 1739.6127 468.91631 1753.0312 468.03125 L 1739.875 954.125 C 1654.9123 921.57346 1602.5245 888.57744 1542.9062 844.3125 L 1565.3438 461.875 z M 700.78125 986.25 C 926.85578 990.24549 1160.9131 995.12741 1352.4688 999.28125 C 1379.0676 1032.4622 1406.8648 1067.4648 1436 1104.5312 C 1505.9096 1151.1376 1541.6062 1185.372 1543.0625 1207.2188 C 1541.6061 1227.6093 1530.6714 1239.9744 1510.2812 1244.3438 C 1489.8909 1248.7131 1468.0531 1242.8961 1444.75 1226.875 C 1363.1888 1266.1992 1284.1822 1286.6062 1207.7188 1288.0625 C 1131.2551 1289.5189 1068.2694 1277.1223 1018.75 1250.9062 C 1066.8129 1293.1432 1083.5332 1337.581 1068.9688 1384.1875 C 1054.4043 1430.7938 1047.125 1429.3318 1047.125 1379.8125 C 1047.125 1330.2933 983.77364 1282.9626 857.0625 1237.8125 L 857.0625 1320.8125 C 842.498 1381.9833 833.75671 1383.4455 830.84375 1325.1875 C 822.10506 1262.5601 801.36389 1195.1881 768.59375 1123.0938 C 751.35111 1085.1599 728.70939 1039.5064 700.78125 986.25 z M 894.21875 1314.2812 C 965.5848 1334.6716 1001.25 1358.7025 1001.25 1386.375 L 929.15625 1655.0625 C 923.33045 1687.1044 903.68582 1703.125 870.1875 1703.125 L 782.78125 1703.125 L 782.78125 1698.7812 L 894.21875 1357.9688 L 894.21875 1314.2812 z "
     id="path4" />
</svg>
