<?xml version="1.0" encoding ="US-ASCII" standalone="yes"?>
<svg width="16.698694" height="17.976807">
<path style="fill:#000000; stroke:none" d=" M 4.066183 0.689587  Q 4.494202 0.689587 4.494202 1.117606  Q 4.517981 1.569404 4.066183 1.569404  Q 3.661942 1.569404 3.661942 1.165163  Q 3.661942 0.689587 4.066183 0.689587  Z  M 15.789153 13.007028  Q 15.789153 12.650346 14.623989 11.889422  Q 10.367577 6.467846 9.416423 6.134942  Q 9.392644 6.610519 8.655499 6.776971  Q 10.652923 8.03725 9.654211 8.64361  Q 8.655499 9.24997 8.132365 8.964624  Q 6.396509 7.728125 5.813928 6.895865  Q 5.231346 6.063605 5.267014 5.374019  Q 5.302682 4.684433 5.992269 4.32775  Q 6.681855 3.971067 6.111163 4.494202  Q 5.540471 5.017336 5.623697 5.635586  Q 5.706923 6.253836 6.919644 7.442779  Q 8.132365 8.631721 8.917067 8.251259  Q 9.701769 7.870798 8.750615 7.264437  Q 7.799461 6.658077 7.716235 6.241947  Q 7.633009 5.825817 7.894577 6.063605  Q 8.156144 6.301394 8.64361 6.337062  Q 9.131077 6.37273 9.012182 5.56425  Q 8.44149 4.32775 6.729413 3.971067  Q 6.681855 2.187654 6.016048 1.331615  Q 5.35024 0.475577 4.232635 0.475577  Q 3.566827 0.475577 2.924798 0.974933  L 2.924798 1.402952  Q 3.519269 1.759634 3.376596 2.187654  Q 3.233923 2.615673 3.566827 2.984245  Q 3.89973 3.352817 3.875952 4.149408  Q 3.852173 4.946 4.173187 5.849596  Q 4.494202 6.753192 5.659365 8.83384  Q 6.824528 10.91449 7.359552 12.103432  Q 7.894577 13.292375 8.275038 14.267307  Q 8.798173 15.384912 8.893288 14.314864  L 8.893288 13.625278  Q 10.391356 14.077076 11.889422 13.970071  Q 13.387489 13.863067 14.719105 13.221038  Q 15.099566 13.482605 15.44436 13.411268  Q 15.789153 13.339931 15.789153 13.007028  Z  M 2.496779 1.426731  L 2.496779 0.998711  Q 2.021202 1.141385 1.569404 1.616961  L 2.496779 1.426731  Z  M 1.949865 1.712077  Q 2.187654 2.044981 2.734567 2.235211  Q 3.115029 1.997423 2.544336 1.569404  L 1.949865 1.712077  Z  M 9.368865 14.505095  L 9.606653 16.336067  Q 9.630432 17.525009 8.370153 17.28722  Q 5.56425 15.812932 4.708211 16.122057  Q 5.397798 16.645191 6.634298 16.740307  Q 7.870798 16.835423 7.062317 17.976807  Q 7.014759 17.310999 6.206278 17.50123  Q 3.7095 16.45496 1.070048 17.715239  Q 0.83226 17.168325 0 17.90547  Q -0.023779 16.645191 1.498067 16.621412  Q 2.758346 16.312288 3.804615 15.610811  Q 4.850884 14.909336 8.346375 16.336067  Q 8.179923 15.622701 7.751904 15.087677  Q 7.323884 14.552653 6.230057 11.604076  Q 3.923509 7.109875 3.519269 6.063605  Q 3.115029 5.017336 3.115029 3.471711  Q 2.734567 2.853461 2.639452 2.520558  Q 1.997423 2.354106 1.2365 1.64074  Q 1.807192 0.974933 2.354106 0.784702  Q 3.305259 0 4.232635 0  Q 6.111163 -0.023779 6.741302 0.998711  Q 7.371442 2.021202 7.395221 3.447932  Q 8.631721 4.042404 9.083519 4.434754  Q 9.535316 4.827106 9.86822 5.516692  Q 10.866932 6.039826 13.553942 9.345086  Q 14.885557 11.10472 16.312288 12.531451  Q 16.978096 13.458826 16.502518 13.874956  Q 16.026941 14.291085 15.075788 14.100855  Q 13.36371 14.885557 11.770528 14.909336  Q 10.177345 14.933114 9.368865 14.505095  Z "/></svg>
