<?xml version="1.0" encoding="UTF-8" standalone="no"?>
<svg
   xmlns:dc="http://purl.org/dc/elements/1.1/"
   xmlns:cc="http://creativecommons.org/ns#"
   xmlns:rdf="http://www.w3.org/1999/02/22-rdf-syntax-ns#"
   xmlns:svg="http://www.w3.org/2000/svg"
   xmlns="http://www.w3.org/2000/svg"
   xmlns:sodipodi="http://sodipodi.sourceforge.net/DTD/sodipodi-0.dtd"
   xmlns:inkscape="http://www.inkscape.org/namespaces/inkscape"
   width="24.937744"
   height="17.940796"
   id="svg2"
   version="1.1"
   inkscape:version="0.48.0 r9654"
   sodipodi:docname="G24B.svg">
  <metadata
     id="metadata10">
    <rdf:RDF>
      <cc:Work
         rdf:about="">
        <dc:format>image/svg+xml</dc:format>
        <dc:type
           rdf:resource="http://purl.org/dc/dcmitype/StillImage" />
      </cc:Work>
    </rdf:RDF>
  </metadata>
  <defs
     id="defs8" />
  <sodipodi:namedview
     pagecolor="#ffffff"
     bordercolor="#666666"
     borderopacity="1"
     objecttolerance="10"
     gridtolerance="10"
     guidetolerance="10"
     inkscape:pageopacity="0"
     inkscape:pageshadow="2"
     inkscape:window-width="1920"
     inkscape:window-height="1032"
     id="namedview6"
     showgrid="false"
     inkscape:zoom="47.706992"
     inkscape:cx="4.1686255"
     inkscape:cy="8.9703979"
     inkscape:window-x="0"
     inkscape:window-y="22"
     inkscape:window-maximized="0"
     inkscape:current-layer="svg2" />
  <path
     style="fill:#000000;stroke:none"
     d="M 7.085938,2.71875 C 7.085938,2.9895833 6.903646,3.125 6.539062,3.125 6.4453127,3.125 6.385417,3.0703127 6.359375,2.960938 6.333333,2.8515627 6.364583,2.7421873 6.453125,2.632812 6.541667,2.5234373 6.6953127,2.46875 6.914062,2.46875 c 0.114584,0.052083 0.171876,0.1354167 0.171876,0.25 z m 2.046874,6.375 c 0.2291667,0.2395833 1.03125,0.8255207 2.40625,1.757812 1.375,0.932292 2.138021,1.593751 2.289063,1.984376 0.151042,0.390625 0.286459,0.539062 0.40625,0.445312 0.119791,-0.09375 0.117187,-0.447917 -0.0078,-1.0625 -0.0625,-0.333333 0.02083,-0.5 0.25,-0.5 l 1.375,0 c 0.479167,-0.07292 1.546875,0.109375 3.203126,0.546875 1.656249,0.4375 2.885416,0.666667 3.6875,0.6875 0.802083,0.02083 1.203124,-0.1875 1.203124,-0.625 0,-0.489583 -0.317708,-0.765625 -0.953124,-0.828125 -0.635417,-0.0625 -2.177084,-0.125 -4.625,-0.1875 -0.9375,0 -2.03125,-0.598958 -3.28125,-1.796875 -0.4375,0.489583 -0.940104,0.804688 -1.507813,0.945313 -0.567709,0.140625 -1.065104,-0.289063 -1.492187,-1.289063 L 12.492188,9.0625 c 0.375,0.9375 1.002604,1.088542 1.882812,0.453125 0.880208,-0.6354167 1.4375,-1.4401043 1.671875,-2.414063 0.234375,-0.973958 0.351563,-1.9713537 0.351563,-2.992187 0,-0.21875 0.07813,-0.328125 0.234374,-0.328125 0.270833,0 0.484375,0.2395833 0.640626,0.71875 1.635416,2.8645833 2.739583,4.3671873 3.3125,4.507812 0.572916,0.1406253 1.348957,0.210938 2.328124,0.210938 C 20.632813,6.5833333 19.083334,4.9270833 18.265625,4.25 17.447916,3.5729167 16.841145,3.234375 16.445312,3.234375 c -0.395833,0 -0.744791,0.3229167 -1.046874,0.96875 -0.6875,2.15625 -1.796875,3.484375 -3.328126,3.984375 L 11.789062,7.703125 C 13.111979,7.1927083 14.044271,6.3203127 14.585938,5.085938 15.127605,3.8515627 15.473959,3.1666667 15.625,3.03125 c 0.151041,-0.1354167 0.408854,-0.203125 0.773438,-0.203125 0.552083,0 1.179687,0.2734377 1.882812,0.820313 0.703125,0.5468747 1.367188,1.1848953 1.992188,1.914062 0.322916,0.2916667 0.958333,0.4270833 1.90625,0.40625 0.947916,-0.020833 1.541666,-0.125 1.78125,-0.3125 C 21.325521,4.1145833 19.411458,3.091146 18.21875,2.585938 17.026042,2.0807293 16.210938,1.8229167 15.773438,1.8125 c -0.270833,0 -0.671875,0.559896 -1.203126,1.679688 C 14.039063,4.6119793 13.520834,5.377604 13.015625,5.789062 12.510416,6.2005207 12.023437,6.40625 11.554688,6.40625 10.731771,6.40625 10.151041,5.859375 9.8125,4.765625 9.4739587,3.671875 9.166667,2.908854 8.890625,2.476562 8.614583,2.0442707 8.252604,1.828125 7.804688,1.828125 c -0.4583333,0 -0.9843753,0.2708333 -1.578126,0.8125 -0.083333,0.1041667 -0.125,0.2552083 -0.125,0.453125 0,0.125 0.1614587,0.296875 0.484376,0.515625 0.4583333,0.1666667 0.6875,0.4270833 0.6875,0.78125 C 7.221354,5.6822917 7.291666,6.5677083 7.484375,7.046875 7.6770837,7.5260417 7.835938,7.84375 7.960938,8 L 8.445312,7.71875 C 8.757812,7.5104167 9.065104,7.609375 9.367188,8.015625 9.6692707,8.421875 9.5911453,8.78125 9.132812,9.09375 z m 2.59375,2.6875 c 0.229167,0.875 0.359375,1.408854 0.390626,1.601562 0.03125,0.192709 0.114583,0.177084 0.25,-0.04687 0.135416,-0.223959 0.260416,-0.471355 0.375,-0.742188 -0.166667,-0.15625 -0.505209,-0.427083 -1.015626,-0.812504 z m 0.65625,5.171875 c 0.604167,-0.07292 1,-0.479167 1.1875,-1.21875 0.1875,-0.739583 0.208333,-1.3125 0.0625,-1.71875 -0.145833,-0.40625 -0.296875,-0.708333 -0.453124,-0.90625 -0.343751,0.625 -0.572917,1.166667 -0.6875,1.625 -0.114584,0.458333 -0.151043,1.197917 -0.109376,2.21875 z M 8.523438,1.515625 C 9.3880207,1.4947917 9.8619787,1.2369793 9.945312,0.742188 10.028645,0.247396 10.210937,0 10.492188,0 c 0.354167,0 0.53125,0.13020833 0.53125,0.390625 0,1.1875 -0.385417,1.9583333 -1.15625,2.3125 0.5,2.0520833 1.0625,3.078125 1.6875,3.078125 0.375,0 0.765625,-0.1744793 1.171874,-0.523438 0.406251,-0.348958 0.820313,-0.945312 1.242188,-1.789062 0.421875,-0.84375 0.755208,-1.40625 1,-1.6875 0.244792,-0.28125 0.513021,-0.421875 0.804688,-0.421875 1.354167,0 4.395833,1.390625 9.125,4.171875 0.177083,0.2604167 -0.223959,0.5104167 -1.203126,0.75 -0.979167,0.2395833 -1.807291,0.3177083 -2.484374,0.234375 l 2.84375,3.171875 -1.609376,0 c -1.479167,0 -2.427083,-0.234375 -2.84375,-0.703125 -0.718749,-0.8020833 -1.614583,-2.1666667 -2.6875,-4.09375 -0.03125,1.8125 -0.453124,3.1875 -1.265624,4.125 1.020833,1.145833 1.927083,1.71875 2.71875,1.71875 1.416667,0.03125 2.864583,0.06771 4.34375,0.109375 1.218749,0 1.828124,0.494792 1.828124,1.484375 0.05208,0.8125 -0.557291,1.21875 -1.828124,1.21875 -0.75,0 -1.963542,-0.216146 -3.640626,-0.648437 -1.677083,-0.432292 -3.098957,-0.591146 -4.265624,-0.476563 0.07292,0.229167 0.104166,0.505208 0.09375,0.828125 -0.177084,0.395833 -0.333334,0.84375 -0.46875,1.34375 -0.135417,0.5 -0.151043,1.34375 -0.04688,2.53125 0.489584,-0.208333 0.895834,-0.08854 1.21875,0.359375 0.114584,0.354167 0.122397,0.484375 0.02344,0.390625 -0.09896,-0.09375 -0.197917,-0.09896 -0.296875,-0.01563 -0.09896,0.08333 -0.236979,0.07552 -0.414063,-0.02344 -0.177083,-0.09896 -0.338541,-0.109375 -0.484374,-0.03125 -0.145833,0.07813 -0.734375,0.117187 -1.765626,0.117187 -0.593749,-0.177083 -1.122395,-0.195312 -1.585937,-0.05469 -0.463542,0.140625 -1.1276043,0.08073 -1.992187,-0.179688 -0.552084,0.25 -0.890626,0.307292 -1.015626,0.171875 -0.125,-0.135417 -0.34375,-0.109375 -0.65625,0.07813 0.1875,-0.34375 0.4791667,-0.570313 0.875,-0.679688 0.3958333,-0.109375 0.9479167,-0.171875 1.65625,-0.1875 0.708333,-0.01563 1.143229,-0.109375 1.304688,-0.28125 0.161459,-0.171875 0.283855,-0.567708 0.367188,-1.1875 0.08333,-0.619791 0.04167,-1.338541 -0.125,-2.15625 -0.166667,-0.817708 -0.375,-1.585937 -0.625,-2.304687 C 10.315104,10.817708 9.5598953,10.28125 8.601562,9.53125 c -1.8437493,1.239583 -2.921874,1.739583 -3.234374,1.5 -1.125,0.666667 -1.8281253,0.744792 -2.109376,0.234375 C 2.4765627,10.348958 1.932292,9.627604 1.625,9.101562 1.317708,8.5755207 0.96614533,7.796875 0.570312,6.765625 0.29947867,6.484375 0.158854,6.2083333 0.148438,5.9375 0.13802067,5.6666667 0.12239533,5.4427083 0.101562,5.265625 -0.01302067,5.078125 -0.033854,4.9635417 0.039062,4.921875 0.12239533,4.859375 0.19791633,4.872396 0.265625,4.960938 0.33333367,5.0494793 0.38281267,5.1875 0.414062,5.375 0.4453127,5.5625 0.4765627,5.6953127 0.507812,5.773438 0.5390627,5.851563 0.5963547,5.8802083 0.679688,5.859375 0.752604,5.8489583 0.79427067,5.7291667 0.804688,5.5 0.815104,5.2708333 0.64322867,4.9166667 0.289062,4.4375 0.164062,4.2395833 0.10677067,4.0234373 0.117188,3.789062 0.127604,3.5546873 0.26302067,3.59375 0.523438,3.90625 c 0.0937493,0.1770833 0.229166,0.3880207 0.40625,0.632812 0.1770827,0.244792 0.3124993,0.5598963 0.40625,0.945313 0.093749,0.3854167 0.072916,0.7916667 -0.0625,1.21875 l 0,0 C 1.7942713,7.4739583 2.2708337,8.059896 2.703125,8.460938 3.1354163,8.8619793 3.533854,9.3541667 3.898438,9.9375 3.9817713,10.135417 4.0807293,10.182292 4.195312,10.078125 3.747396,9.515625 3.403646,9.03125 3.164062,8.625 2.851562,8.09375 2.4973953,7.3177083 2.101562,6.296875 1.8307287,6.015625 1.690104,5.7369793 1.679688,5.460938 1.6692707,5.184896 1.6536453,4.9635417 1.632812,4.796875 1.5182293,4.5989583 1.497396,4.4791667 1.570312,4.4375 1.6536453,4.375 1.7291663,4.390625 1.796875,4.484375 1.864584,4.578125 1.9140627,4.71875 1.945312,4.90625 1.976563,5.09375 2.007813,5.2265627 2.039062,5.304688 2.070313,5.382813 2.127605,5.4114583 2.210938,5.390625 2.283854,5.380208 2.3255207,5.2578127 2.335938,5.023438 2.346354,4.7890627 2.1744787,4.4375 1.820312,3.96875 1.695312,3.7708333 1.6380207,3.5546873 1.648438,3.320312 1.658854,3.0859373 1.7942707,3.125 2.054688,3.4375 c 0.093749,0.1666667 0.229166,0.375 0.40625,0.625 0.1770827,0.25 0.3124993,0.5677083 0.40625,0.953125 0.093749,0.3854167 0.072916,0.7916667 -0.0625,1.21875 l 0,0 c 0.5208333,0.7708333 0.9947913,1.3541667 1.421874,1.75 0.4062507,0.375 1.0434587,1.1166306 1.324708,1.5541306 C 5.6971033,9.4030889 6.3168953,8.9968389 7.410646,8.3197556 6.8471224,7.3943357 6.5703127,5.59375 6.664062,4.40625 c 0,-0.375 -0.5104167,-0.625 -1.53125,-0.75 -0.1666667,0 -0.5885413,0.072917 -1.265624,0.21875 l 0,-0.390625 c 0.1875,-0.2291667 0.692708,-0.4583333 1.515624,-0.6875 0.2604173,-0.21875 0.484376,-0.4375 0.671876,-0.65625 0.6770827,-0.5208333 1.260416,-0.78125 1.75,-0.78125 0.3020827,0 0.541666,0.052083 0.71875,0.15625 z"
     id="path4"
     inkscape:connector-curvature="0"
     sodipodi:nodetypes="sssscscssscscssssccsccsssscscsscccsssscscscsssssscsccsccsccsscccsscsccssscssssscsccsccccccssccsccsssscscscsssssccccscsccssccscscssccsccccsccssccscscsscccccccccccsc" />
</svg>
