<?xml version="1.0" encoding="UTF-8" standalone="no"?>
<svg
   xmlns:dc="http://purl.org/dc/elements/1.1/"
   xmlns:cc="http://web.resource.org/cc/"
   xmlns:rdf="http://www.w3.org/1999/02/22-rdf-syntax-ns#"
   xmlns:svg="http://www.w3.org/2000/svg"
   xmlns="http://www.w3.org/2000/svg"
   xmlns:sodipodi="http://sodipodi.sourceforge.net/DTD/sodipodi-0.dtd"
   xmlns:inkscape="http://www.inkscape.org/namespaces/inkscape"
   width="23.34375"
   height="22.745003"
   id="svg2160"
   sodipodi:version="0.32"
   inkscape:version="0.45"
   sodipodi:docname="Aa80.svg"
   inkscape:output_extension="org.inkscape.output.svg.inkscape"
   sodipodi:docbase="C:\Program Files\JSesh\fontsGroupeG"
   sodipodi:modified="true"
   version="1.0">
  <metadata
     id="metadata2167">
    <rdf:RDF>
      <cc:Work
         rdf:about="">
        <dc:format>image/svg+xml</dc:format>
        <dc:type
           rdf:resource="http://purl.org/dc/dcmitype/StillImage" />
      </cc:Work>
    </rdf:RDF>
  </metadata>
  <defs
     id="defs2165" />
  <sodipodi:namedview
     inkscape:window-height="708"
     inkscape:window-width="1024"
     inkscape:pageshadow="2"
     inkscape:pageopacity="0.0"
     guidetolerance="10.0"
     gridtolerance="10.0"
     objecttolerance="10.0"
     borderopacity="1.0"
     bordercolor="#666666"
     pagecolor="#ffffff"
     id="base"
     inkscape:zoom="22.686303"
     inkscape:cx="11.671875"
     inkscape:cy="11.372502"
     inkscape:window-x="-4"
     inkscape:window-y="-4"
     inkscape:current-layer="svg2160" />
  <path
     style="fill:#000000;stroke:none"
     d="M 5.65625,0.026251793 C 5.5143676,0.045873793 5.3616387,0.081763793 5.21875,0.12000179 C 4.6471954,0.27295279 4.2050534,0.55414879 3.875,0.93250179 C 3.5449474,1.3108548 3.3314507,1.8490968 3.21875,2.5575018 C 3.25095,2.7668038 3.5311954,3.0612488 4.0625,3.4637518 L 3.96875,4.1200018 C 1.6503307,4.1522018 0.3220027,4.5507948 0,5.3075018 L 0,5.4012518 C 2.39892,5.3368518 3.7262974,5.498749 4,5.9012518 C 3.339894,8.5416738 3.8639354,10.423393 5.5625,11.526252 C 7.261064,12.629112 8.4942438,13.639795 9.21875,14.557502 C 8.9450474,15.539609 8.5019545,16.381296 7.90625,17.057502 L 6.34375,17.338752 C 5.972523,17.274747 5.7955376,17.401178 5.75,17.713752 L 1.03125,17.713752 L 1.03125,22.745002 L 18.25,22.745002 L 18.25,17.713752 L 12.6875,17.713752 C 12.564513,17.398457 12.255421,17.200503 11.71875,17.120002 C 11.284047,17.120002 11.0625,17.016803 11.0625,16.807502 L 11.34375,14.745002 C 11.649652,14.294198 11.574853,13.999753 11.15625,13.838752 C 11.751955,14.048054 12.821337,14.165452 14.375,14.213752 C 15.928663,14.262053 18.622718,15.235335 22.40625,17.151252 C 22.277449,15.718339 22.587044,14.436411 23.34375,13.245002 C 19.479718,12.649297 16.492168,11.726663 14.375,10.495002 C 12.257832,9.2633418 10.214216,7.8692149 8.25,6.3075018 C 7.3966927,5.4058948 7.3673434,4.4174608 8.15625,3.3387518 C 8.397752,3.0972498 8.5303,2.7573548 8.5625,2.3387518 C 8.5947007,1.9201478 8.4692522,1.4851048 8.1875,1.0262518 C 7.9057474,0.56739779 7.4929547,0.26490279 6.9375,0.12000179 C 6.5209091,0.011325793 6.0818973,-0.032614207 5.65625,0.026251793 z M 6.0625,0.15125179 L 6.21875,0.18250179 L 6.21875,1.5262518 L 6.375,1.5575018 L 6.625,0.21375179 L 6.78125,0.24500179 L 6.5,1.5575018 L 6.625,1.5887518 L 7.125,0.37000179 L 7.25,0.43250179 L 6.75,1.6200018 L 6.875,1.6825018 L 7.625,0.68250179 L 7.71875,0.80750179 L 6.96875,1.7450018 L 7.125,1.9637518 L 8.03125,1.1512518 L 8.09375,1.3075018 L 7.1875,2.0575018 L 7.28125,2.2762518 L 8.21875,1.5887518 L 8.28125,1.7450018 L 7.3125,2.4637518 L 7.375,2.7137518 L 8.34375,2.0262518 L 8.375,2.2137518 L 7.40625,2.8700018 L 7.46875,3.2137518 L 8.28125,2.6512518 L 7.6875,3.1512518 C 7.0112947,3.7791568 6.6723507,4.3850968 6.65625,4.9325018 C 6.6401507,5.4799071 6.9639448,6.0768456 7.65625,6.7450018 C 8.348556,7.4131568 9.5220867,8.2983928 11.15625,9.4012518 C 12.790414,10.504111 14.729882,11.529945 17,12.463752 C 15.373888,12.576453 13.639866,12.414555 11.8125,11.963752 C 9.9851347,11.512948 8.6506576,10.944407 7.78125,10.276252 C 6.9118427,9.6080958 6.4100507,9.0182568 6.28125,8.4950018 C 6.1524487,7.9717468 6.5065434,7.6238029 7.34375,7.4950018 C 7.569152,7.3018008 7.5256027,7.1995531 7.1875,7.1512518 C 5.8672894,7.2478528 5.1875,7.5564966 5.1875,8.1200018 C 5.2197,9.0055088 5.9127385,10.010043 7.28125,11.088752 C 8.6497614,12.167461 10.56793,12.7715 13.03125,12.932502 C 15.494571,13.093503 17.044446,13.123803 17.65625,12.995002 L 22.1875,13.963752 C 21.720596,14.704358 21.543549,15.441896 21.65625,16.182502 C 19.595434,14.894491 17.219023,13.978956 14.5625,13.463752 C 12.855886,13.367151 11.749104,13.249753 11.25,13.088752 C 10.750896,12.92775 10.485801,12.9268 10.4375,13.120002 C 10.389199,13.313203 10.522698,13.623749 10.8125,14.026252 L 9.53125,13.245002 L 9.4375,13.838752 C 8.8095947,12.904944 7.7099135,11.94586 6.15625,10.963752 C 4.6025874,9.9816438 4.1230447,8.3134214 4.71875,5.9950018 C 4.75095,5.7535008 4.6548519,5.5551538 4.4375,5.3700018 C 4.2201487,5.1848508 3.2085154,5.0442528 1.4375,4.9637518 C 2.5001087,4.9154508 3.2021474,4.9003008 3.5,4.9325018 C 3.7978527,4.9647018 4.0113487,4.9647018 4.15625,4.9325018 C 4.3011514,4.9003008 4.286002,4.8648028 4.125,4.7762518 C 3.9639994,4.6877008 3.063614,4.6796508 1.4375,4.7762518 C 2.4518087,4.5830508 3.4260427,4.4940518 4.34375,4.5262518 C 4.31155,4.1237488 4.3853987,3.7696548 4.5625,3.4637518 C 4.5142,3.3510508 4.130756,3.0272568 3.40625,2.4637518 L 3.40625,2.2450018 L 4.40625,3.0575018 L 4.4375,2.7762518 L 3.46875,1.9637518 L 3.53125,1.8387518 L 4.5,2.6825018 L 4.59375,2.4325018 L 3.59375,1.5575018 L 3.6875,1.4325018 L 4.625,2.3075018 L 4.75,2.1200018 L 3.90625,1.2137518 L 4,1.0575018 L 4.84375,2.0262518 L 5,1.8700018 L 4.3125,0.80750179 L 4.40625,0.68250179 L 5.0625,1.7450018 L 5.21875,1.6512518 L 4.6875,0.52625179 L 4.8125,0.46375179 L 5.3125,1.6200018 L 5.5,1.5575018 L 5.15625,0.33875179 L 5.34375,0.27625179 L 5.59375,1.5262518 L 5.75,1.5262518 L 5.6875,0.18250179 L 5.8125,0.21375179 L 5.84375,1.5262518 L 6.0625,1.5262518 L 6.0625,0.15125179 z M 5.15625,3.4637518 C 4.8181474,3.6086528 4.6704494,3.8150498 4.71875,4.0887518 C 4.76705,4.3624548 4.9360473,4.5030518 5.25,4.4950018 C 5.5639527,4.4869518 5.7480994,4.3402048 5.8125,4.0262518 C 5.8769007,3.7122988 5.6714547,3.5120528 5.15625,3.4637518 z M 10.03125,14.088752 L 10.5625,14.401252 C 10.659101,14.852055 10.570102,15.634092 10.3125,16.745002 C 10.3125,16.922103 10.032256,17.039502 9.46875,17.120002 L 9,16.963752 C 9.3381034,15.997744 9.7376467,15.231807 10.15625,14.620002 L 10.03125,14.088752 z M 8.09375,17.620002 C 8.2909767,17.626039 8.504473,17.669476 8.75,17.713752 L 7.34375,17.713752 C 7.4074861,17.701832 7.5045531,17.695031 7.5625,17.682502 C 7.7114264,17.650302 7.8965233,17.613964 8.09375,17.620002 z M 2.09375,18.651252 L 17.21875,18.651252 L 17.21875,21.807502 L 2.09375,21.807502 L 2.09375,18.651252 z "
     id="path2162" />
</svg>
