<?xml version="1.0" encoding="UTF-8" standalone="no"?>
<svg
   xmlns:dc="http://purl.org/dc/elements/1.1/"
   xmlns:cc="http://web.resource.org/cc/"
   xmlns:rdf="http://www.w3.org/1999/02/22-rdf-syntax-ns#"
   xmlns:svg="http://www.w3.org/2000/svg"
   xmlns="http://www.w3.org/2000/svg"
   xmlns:sodipodi="http://sodipodi.sourceforge.net/DTD/sodipodi-0.dtd"
   xmlns:inkscape="http://www.inkscape.org/namespaces/inkscape"
   width="23.34375"
   height="26.24165"
   id="svg2160"
   sodipodi:version="0.32"
   inkscape:version="0.45"
   sodipodi:docname="G22.svg"
   inkscape:output_extension="org.inkscape.output.svg.inkscape"
   sodipodi:docbase="C:\Program Files\JSesh\fontsGroupeG"
   sodipodi:modified="true"
   version="1.0">
  <metadata
     id="metadata2167">
    <rdf:RDF>
      <cc:Work
         rdf:about="">
        <dc:format>image/svg+xml</dc:format>
        <dc:type
           rdf:resource="http://purl.org/dc/dcmitype/StillImage" />
      </cc:Work>
    </rdf:RDF>
  </metadata>
  <defs
     id="defs2165" />
  <sodipodi:namedview
     inkscape:window-height="708"
     inkscape:window-width="1024"
     inkscape:pageshadow="2"
     inkscape:pageopacity="0.0"
     guidetolerance="10.0"
     gridtolerance="10.0"
     objecttolerance="10.0"
     borderopacity="1.0"
     bordercolor="#666666"
     pagecolor="#ffffff"
     id="base"
     inkscape:zoom="19.663398"
     inkscape:cx="11.671875"
     inkscape:cy="13.120825"
     inkscape:window-x="-4"
     inkscape:window-y="-4"
     inkscape:current-layer="svg2160" />
  <path
     style="fill:#000000;stroke:none"
     d="M 6.09375,0.00011825562 C 5.8119977,0.0021307552 5.5045274,0.048642588 5.21875,0.12511826 C 4.6471953,0.27806959 4.2050534,0.52801492 3.875,0.90636826 C 3.5449473,1.2847216 3.3314507,1.822963 3.21875,2.5313683 C 3.25095,2.7406703 3.5311955,3.0663651 4.0625,3.4688683 L 3.96875,4.1251183 C 1.6503307,4.1573183 0.32200267,4.5559114 0,5.3126183 L 0,5.4063683 C 2.39892,5.3419683 3.7262973,5.5038647 4,5.9063683 C 3.339894,8.5467903 3.8639356,10.428509 5.5625,11.531368 C 7.261064,12.634228 8.4629938,13.644911 9.1875,14.562618 C 8.9137973,15.544725 8.5019545,16.355162 7.90625,17.031368 L 6.34375,17.312618 C 5.8999601,17.236103 5.697083,17.444699 5.71875,17.906368 C 5.4575265,18.036322 5.1994961,18.200749 4.96875,18.375118 C 3.512354,19.22157 2.5479652,20.097782 2.0625,21.031368 C 1.6019307,21.442146 1.3560673,21.732098 1.3125,21.906368 C 1.2689327,22.080637 1.3320847,22.219129 1.53125,22.281368 C 1.35698,22.368502 1.3001826,22.431655 1.34375,22.500118 C 1.3873173,22.568581 1.469402,22.663245 1.625,22.812618 C 1.780598,22.961992 2.1713068,23.195016 2.78125,23.468868 C 3.7521813,24.016572 4.4454199,24.338035 4.84375,24.437618 C 5.316768,25.856671 5.9974278,26.43035 6.875,26.187618 C 7.752572,25.944885 8.4080757,25.812356 8.84375,25.750118 C 8.27115,25.426474 7.9623951,25.2059 7.9375,25.093868 C 9.4187913,25.205899 10.900062,24.972875 12.40625,24.437618 C 13.626136,25.520579 14.697507,25.823108 15.59375,25.343868 C 16.489994,24.864626 17.492247,24.177613 18.625,23.281368 C 17.255739,22.920381 16.253485,22.567408 15.59375,22.218868 L 17.0625,22.125118 C 17.709789,22.150014 18.314847,22.421033 18.875,22.937618 C 19.435151,23.454203 20.115941,23.67491 20.9375,23.625118 C 21.373173,22.666635 21.562111,21.494378 21.46875,20.125118 C 21.375393,18.755857 20.795619,17.570891 19.75,16.562618 C 19.189847,16.749335 18.647679,17.19684 18.09375,17.906368 C 17.53982,18.615894 17.111247,19.057047 16.8125,19.218868 L 15.15625,19.218868 L 14.625,18.843868 C 14.491425,18.528389 13.734945,18.137065 12.71875,17.812618 C 12.628969,17.439967 12.309088,17.182419 11.71875,17.093868 C 11.284047,17.093868 11.0625,16.990669 11.0625,16.781368 L 11.3125,14.750118 C 11.618402,14.299314 11.574853,13.973619 11.15625,13.812618 C 11.751955,14.02192 12.821337,14.170568 14.375,14.218868 C 15.928663,14.267169 18.591468,15.240452 22.375,17.156368 C 22.246199,15.723455 22.587043,14.410277 23.34375,13.218868 C 19.479717,12.623163 16.460918,11.70053 14.34375,10.468868 C 12.226582,9.2372083 10.214216,7.8430811 8.25,6.2813683 C 7.3966927,5.379761 7.3360929,4.3913275 8.125,3.3126183 C 8.366502,3.0711163 8.5302996,2.7312216 8.5625,2.3126183 C 8.5947007,1.8940143 8.4692522,1.4589717 8.1875,1.0001183 C 7.9057473,0.54126426 7.4617046,0.2387696 6.90625,0.093868256 C 6.6285227,0.021417589 6.3755023,-0.001894244 6.09375,0.00011825562 z M 6.0625,0.15636826 L 6.21875,0.18761826 L 6.21875,1.5001183 L 6.375,1.5626183 L 6.625,0.18761826 L 6.78125,0.21886826 L 6.5,1.5626183 L 6.625,1.5938683 L 7.125,0.37511826 L 7.25,0.40636826 L 6.75,1.5938683 L 6.875,1.6876183 L 7.59375,0.65636826 L 7.71875,0.78136826 L 6.96875,1.7188683 L 7.125,1.9376183 L 8.03125,1.1563683 L 8.09375,1.2813683 L 7.1875,2.0626183 L 7.28125,2.2813683 L 8.21875,1.5938683 L 8.28125,1.7501183 L 7.3125,2.4376183 L 7.375,2.6876183 L 8.34375,2.0001183 L 8.375,2.2188683 L 7.40625,2.8438683 L 7.46875,3.1876183 L 8.28125,2.6563683 L 7.6875,3.1563683 C 7.0112947,3.784273 6.6723507,4.3589634 6.65625,4.9063683 C 6.6401507,5.453773 6.9639448,6.0819622 7.65625,6.7501183 C 8.348556,7.4182736 9.5220866,8.3035091 11.15625,9.4063683 C 12.790413,10.509227 14.729881,11.50381 17,12.437618 C 15.373887,12.550319 13.639866,12.388422 11.8125,11.937618 C 9.9851347,11.486814 8.6506575,10.918273 7.78125,10.250118 C 6.9118427,9.5819623 6.4100505,8.9921225 6.28125,8.4688683 C 6.1524487,7.9456136 6.5065434,7.6289191 7.34375,7.5001183 C 7.569152,7.306917 7.5256029,7.1734189 7.1875,7.1251183 C 5.8672893,7.221719 5.1874999,7.5616133 5.1875,8.1251183 C 5.2197,9.010625 5.9127385,9.983909 7.28125,11.062618 C 8.6497613,12.141327 10.567929,12.776616 13.03125,12.937618 C 15.494571,13.098619 17.044445,13.09767 17.65625,12.968868 L 22.15625,13.937618 C 21.689346,14.678224 21.5123,15.415762 21.625,16.156368 C 19.564184,14.868357 17.219023,13.984072 14.5625,13.468868 C 12.855885,13.372267 11.749104,13.223619 11.25,13.062618 C 10.750896,12.901616 10.485801,12.931916 10.4375,13.125118 C 10.389199,13.318319 10.491447,13.628864 10.78125,14.031368 L 9.5,13.218868 L 9.40625,13.812618 C 8.7783447,12.87881 7.7099134,11.919726 6.15625,10.937618 C 4.6025873,9.9555103 4.1230446,8.3185385 4.71875,6.0001183 C 4.75095,5.758617 4.6548521,5.5290203 4.4375,5.3438683 C 4.2201487,5.158717 3.2085153,5.049369 1.4375,4.9688683 C 2.5001087,4.9205676 3.2021474,4.9054176 3.5,4.9376183 C 3.7978527,4.9698183 4.0113488,4.9698183 4.15625,4.9376183 C 4.3011513,4.9054176 4.286002,4.838669 4.125,4.7501183 C 3.9639993,4.6615676 3.063614,4.6847677 1.4375,4.7813683 C 2.4518087,4.588167 3.4260428,4.4991682 4.34375,4.5313683 C 4.31155,4.128865 4.3853989,3.7747711 4.5625,3.4688683 C 4.5142,3.3561676 4.130756,3.001123 3.40625,2.4376183 L 3.40625,2.2188683 L 4.40625,3.0626183 L 4.4375,2.7501183 L 3.46875,1.9376183 L 3.53125,1.8126183 L 4.5,2.6563683 L 4.59375,2.4376183 L 3.59375,1.5626183 L 3.65625,1.4376183 L 4.625,2.3126183 L 4.75,2.1251183 L 3.875,1.1876183 L 4,1.0626183 L 4.84375,2.0001183 L 5,1.8438683 L 4.3125,0.78136826 L 4.40625,0.68761826 L 5.0625,1.7501183 L 5.21875,1.6563683 L 4.6875,0.53136826 L 4.8125,0.43761826 L 5.3125,1.5938683 L 5.46875,1.5626183 L 5.15625,0.31261826 L 5.34375,0.25011826 L 5.59375,1.5001183 L 5.75,1.5001183 L 5.6875,0.18761826 L 5.78125,0.18761826 L 5.84375,1.5001183 L 6.0625,1.5001183 L 6.0625,0.15636826 z M 5.15625,3.4688683 C 4.8181473,3.6137696 4.6704493,3.8201665 4.71875,4.0938683 C 4.76705,4.367571 4.9360475,4.5081685 5.25,4.5001183 C 5.5639527,4.4920683 5.7480993,4.3140708 5.8125,4.0001183 C 5.8769007,3.6861656 5.6714548,3.5171691 5.15625,3.4688683 z M 10.03125,14.093868 L 10.5625,14.375118 C 10.659101,14.825921 10.570102,15.607958 10.3125,16.718868 C 10.3125,16.895969 10.032255,17.013368 9.46875,17.093868 L 9,16.968868 C 9.3381033,16.00286 9.7376471,15.205673 10.15625,14.593868 L 10.03125,14.093868 z M 19.375,17.718868 C 20.084527,18.291468 20.512968,19.054213 20.625,20.031368 C 20.737031,21.008523 20.667915,21.821581 20.46875,22.468868 C 19.933493,22.580898 19.448123,22.442275 19,22.062618 C 18.55188,21.682959 17.997133,21.418296 17.3125,21.281368 L 15.375,21.500118 C 15.026459,21.998031 14.496869,22.521136 13.75,23.062618 C 13.003131,23.604099 11.862254,23.994938 10.3125,24.250118 C 8.7627442,24.505299 7.3509805,24.38548 6.09375,23.875118 L 6.59375,23.562618 C 8.2493106,24.185009 9.5918289,23.995944 10.625,23.000118 C 9.4051109,21.805127 8.2831685,21.37007 7.25,21.656368 C 7.4118213,20.971737 7.2415585,20.366676 6.71875,19.843868 C 6.7934366,19.706942 6.9197405,19.568189 7.15625,19.406368 C 6.7828146,19.344129 6.4171325,19.451369 6.03125,19.750118 C 6.740776,20.472093 6.9171325,21.354398 6.53125,22.375118 C 8.0747806,22.213297 9.158857,22.440226 9.78125,23.062618 C 8.6733913,23.523188 7.6147319,23.441366 6.65625,22.843868 C 5.9840673,23.379125 5.5049199,23.668946 5.1875,23.687618 C 4.87008,23.70629 4.2524414,23.429177 3.34375,22.906368 C 2.8333886,22.819233 2.4740606,22.718346 2.25,22.593868 C 2.673226,22.593868 2.8750001,22.556002 2.875,22.468868 C 2.8376566,22.132776 2.534996,21.937619 1.9375,21.937618 L 1.9375,21.812618 C 2.3233827,21.526319 2.6133347,21.204856 2.8125,20.843868 C 3.248174,20.196581 4.1934992,19.516051 5.625,18.843868 C 6.932022,18.221477 8.3251142,17.950458 9.84375,18.031368 C 11.362385,18.112279 13.108192,18.786584 15.0625,20.031368 L 16.875,19.875118 C 17.497394,19.763088 17.938676,19.454204 18.21875,18.937618 C 18.498826,18.421033 18.877087,18.017616 19.375,17.718868 z M 6,17.750118 C 6.0258752,17.744943 6.0652873,17.750857 6.09375,17.750118 C 6.008389,17.784581 5.9267214,17.805402 5.84375,17.843868 C 5.8900379,17.807643 5.9396245,17.762193 6,17.750118 z M 3.84375,20.500118 C 3.7107137,20.502841 3.5523817,20.522163 3.375,20.562618 C 3.0015653,20.848919 2.8440107,21.09478 2.90625,21.312618 C 2.9684886,21.530455 3.2395081,21.656369 3.71875,21.656368 C 4.1979913,21.656368 4.4375,21.442015 4.4375,21.000118 C 4.4375,20.668695 4.2428588,20.491949 3.84375,20.500118 z M 15.28125,22.812618 C 15.692029,23.136262 16.265578,23.363191 17,23.500118 C 16.477191,23.898449 15.947731,24.264001 15.40625,24.593868 C 14.864769,24.923735 14.152597,24.753603 13.28125,24.093868 C 13.990775,23.782671 14.658859,23.360324 15.28125,22.812618 z M 5.625,24.500118 C 6.222496,24.749075 6.7581798,24.875118 7.21875,24.875118 C 7.3681233,25.099179 7.5068768,25.263087 7.65625,25.375118 C 6.8097986,25.624075 6.2551805,25.599048 6,25.343868 C 5.7448193,25.088687 5.6249999,24.823762 5.625,24.500118 z "
     id="path2162" />
</svg>
