<?xml version="1.0" encoding="UTF-8" standalone="no"?>
<svg
   width="1890.3885"
   height="1806.2401"
   version="1.1"
   id="svg1"
   sodipodi:docname="G266A.svg"
   inkscape:version="1.4 (e7c3feb1, 2024-10-09)"
   xmlns:inkscape="http://www.inkscape.org/namespaces/inkscape"
   xmlns:sodipodi="http://sodipodi.sourceforge.net/DTD/sodipodi-0.dtd"
   xmlns="http://www.w3.org/2000/svg"
   xmlns:svg="http://www.w3.org/2000/svg"
   xmlns:rdf="http://www.w3.org/1999/02/22-rdf-syntax-ns#"
   xmlns:cc="http://creativecommons.org/ns#"
   xmlns:dc="http://purl.org/dc/elements/1.1/">
  <title
     id="title1">G266A</title>
  <defs
     id="defs1" />
  <sodipodi:namedview
     id="namedview1"
     pagecolor="#ffffff"
     bordercolor="#000000"
     borderopacity="0.25"
     inkscape:showpageshadow="2"
     inkscape:pageopacity="0.0"
     inkscape:pagecheckerboard="0"
     inkscape:deskcolor="#d1d1d1"
     inkscape:zoom="0.19740079"
     inkscape:cx="1038.4964"
     inkscape:cy="1583.0737"
     inkscape:window-width="1760"
     inkscape:window-height="1186"
     inkscape:window-x="2240"
     inkscape:window-y="25"
     inkscape:window-maximized="0"
     inkscape:current-layer="svg1" />
  <path
     d="m 141.7349,71.759755 c -21.26027,0 -31.8904,10.039572 -31.8904,30.118715 0,21.26019 10.63013,31.89029 31.8904,31.89029 21.26019,0 32.48085,-10.6301 33.66198,-31.89029 C 174.21575,81.799327 162.99509,71.759755 141.7349,71.759755 Z m 744.10793,1.771691 c -21.26019,1.181124 -31.89029,11.220689 -31.89029,30.118694 0,22.44134 10.6301,33.66201 31.89029,33.66201 20.07915,-1.18113 30.70927,-12.4018 31.89037,-33.66201 C 916.5521,84.752135 905.92198,74.71257 885.84283,73.531446 Z M 212.60223,43.412838 c 46.06385,0 72.93441,22.146061 80.6117,66.438182 7.67735,44.29211 -16.83095,74.70605 -73.52492,91.24182 18.89801,37.79596 18.60265,61.7137 -0.88607,71.75323 -6.9022,3.55568 -13.65625,5.33352 -20.26215,5.33352 -12.04601,0 -23.59937,-5.91174 -34.66009,-17.73522 -17.12613,-18.3075 -32.18538,-44.58754 -45.17775,-78.84011 C 105.71056,147.35168 86.222021,130.22539 60.23732,130.22539 H 88.584233 C 77.954168,111.32744 73.229699,96.563403 74.410827,85.933269 v 0 c 2.147486,0.429484 4.158316,0.644226 6.032491,0.644226 8.433781,0 14.100234,-4.348691 16.999357,-13.046073 C 117.52182,53.452366 155.90834,43.412838 212.60223,43.412838 Z m 744.10806,3.543381 c 46.06381,0 72.93441,22.14606 80.61171,66.438181 7.6773,44.29211 -16.8311,74.70605 -73.52498,91.2418 18.89797,37.79596 18.60262,61.71371 -0.88607,71.75325 -6.90215,3.55569 -13.6562,5.33353 -20.26214,5.33353 -12.04598,0 -23.59933,-5.91179 -34.66004,-17.73536 -17.12617,-18.30741 -32.18546,-44.58741 -45.17785,-78.83999 -12.99233,-34.25258 -32.48087,-51.37887 -58.4656,-51.37887 h 28.34697 C 820.88106,114.87081 816.15655,100.10677 818.51876,89.476645 v 0 c 2.14755,0.429484 4.1584,0.644226 6.03254,0.644226 8.43379,0 14.10024,-4.348691 16.99936,-13.046073 C 860.44864,56.995726 898.83518,46.9562 956.71029,46.956219 Z m -648.43695,0 c 16.53569,0 39.86288,36.024267 69.98155,108.072801 30.11869,72.04855 79.72587,138.48677 148.82156,199.31464 69.09575,60.82787 124.3133,134.9434 165.65266,222.34661 41.33933,87.40308 122.24631,183.07409 242.72093,287.01304 C 724.02887,759.76436 591.15245,695.09785 536.82079,669.70376 482.48906,644.30959 394.49532,586.72978 272.83956,496.96433 203.15327,444.99488 168.31013,403.65555 168.31013,372.94634 c 0,-24.80359 2.95283,-46.06382 8.8585,-63.78069 v -1.77172 c 55.51285,0 83.26927,-28.93751 83.26927,-86.81253 73.22965,-37.79597 89.1748,-95.67103 47.83544,-173.625181 z m 742.33626,3.543375 c 17.7169,0 41.6347,36.024269 71.7534,108.072806 30.1185,72.04855 79.4304,138.48677 147.9356,199.31464 68.5052,60.82789 123.7227,134.64812 165.6526,221.46071 41.9299,86.81256 123.1322,182.77885 243.6068,287.89887 -212.6023,-105.12002 -345.774,-170.08181 -399.5151,-194.88538 -53.7411,-24.80365 -142.0301,-82.08815 -264.867,-171.8535 -68.50517,-51.96949 -102.75776,-93.89939 -102.75776,-125.7897 0,-23.62246 2.9528,-44.29214 8.8584,-62.00903 v -1.77172 c 54.33171,0 81.49756,-28.93751 81.49756,-86.81253 74.4108,-37.79594 90.356,-95.671 47.8355,-173.625166 z M 262.20943,560.74503 c 21.26027,102.75775 72.0486,215.55507 152.36501,338.39196 -7.14677,5.78552 -15.029,8.67828 -23.64668,8.67828 -21.29076,0 -47.07055,-17.65681 -77.33936,-52.97043 0,-55.51283 -18.89798,-153.5461 -56.69394,-294.09981 z m 744.10817,3.54344 c 20.079,101.57661 70.8673,214.37393 152.3648,338.39196 -7.1467,5.78553 -15.029,8.67829 -23.6467,8.67829 -21.2908,0 -47.0706,-17.65681 -77.3393,-52.97044 0,-56.69397 -18.898,-154.72724 -56.6939,-294.09981 z m -690.9575,51.37884 c 66.14289,51.96946 138.19144,101.57665 216.14563,148.82156 V 923.94055 C 504.33983,901.4992 477.17397,887.91629 450.00814,883.19181 372.05397,753.26823 327.17129,664.0934 315.3601,615.66731 Z m 744.108,3.54334 c 64.9617,51.96939 137.0103,100.98601 216.1456,147.04986 v 161.22335 c -28.3469,-23.62239 -56.1033,-37.79582 -83.2692,-42.5203 C 1115.5714,756.22105 1071.2793,667.63674 1059.4681,619.21065 Z M 976.19879,945.2008 v 0 c 15.60603,10.08389 30.40681,19.48452 44.40221,28.20187 v 0 l -5.0324,17.44455 z m 65.28501,127.9288 c 3.6419,4.0299 7.2744,8.0414 10.8975,12.0343 v 3.5433 l -15.9439,2.5056 v 0 z M 384.45575,626.29744 871.66939,879.6485 c 45.31841,53.01401 89.39881,103.55198 132.24121,151.6139 v 0 l -17.08169,59.2166 c -1.71793,-0.2141 -3.62137,-0.3211 -5.71032,-0.3211 -9.40015,0 -22.55602,2.1745 -39.46762,6.5235 -6.65667,1.7119 -13.46649,2.8723 -20.42948,3.4811 v 0 L 687.41405,837.128 C 640.16907,798.15091 539.18297,727.87405 384.45575,626.29744 Z m -49.60717,317.13171 c 14.89419,19.23828 30.27749,28.85742 46.1499,28.85742 14.33637,0 29.07175,-7.84745 44.20614,-23.54236 l 7.08658,145.27819 c -8.35878,-1.4537 -16.32617,-2.1805 -23.90216,-2.1805 -17.04583,0 -32.11033,3.6797 -45.19349,11.0391 -20.21032,-6.4309 -39.34887,-9.6464 -57.41565,-9.6464 -5.16197,0 -10.23647,0.2609 -15.2235,0.7827 z m 832.69222,8.8584 8.8586,145.27825 c -8.3587,-1.4537 -16.326,-2.1805 -23.9019,-2.1805 -17.0459,0 -32.1105,3.6796 -45.1938,11.0389 -1.6236,-0.5151 -3.2405,-1.0112 -4.8507,-1.4881 v 0 c 3.9757,-4.6147 2.6398,-10.615 -4.0079,-18.0009 l -45.9474,-53.2724 9.7477,-34.92933 v 0 c 35.2049,20.82933 63.8072,36.05643 85.8068,45.68133 -16.7251,-18.8158 -43.1641,-41.7947 -79.317,-68.93665 v 0 l 1.3707,-4.91177 v 0 0 0 0 0 l 17.709,6.52434 c 6.2108,-1.12923 10.6671,-4.14759 13.3689,-9.05508 v 0 c 7.8755,4.93431 15.7921,7.40147 23.7499,7.40147 14.0738,0 28.2761,-7.71669 42.607,-23.15008 z m -40.7487,-322.44672 487.2136,253.35101 c 63.7807,73.22971 124.6085,141.73486 182.4835,205.51556 v 1.7711 l -124.018,21.2608 L 1431.522,840.6714 C 1384.2771,801.69428 1282.7004,731.41742 1126.7921,629.84083 Z m 180.7121,166.53844 46.0636,30.11863 c 25.9848,12.99239 83.2693,71.16276 171.8536,174.5111 52.8596,61.6696 92.2613,104.3087 118.205,127.9174 v 0 0 0 0 0 l -279.4286,-1.2423 c 1.1815,-12.9924 -15.9448,-24.2131 -51.3788,-33.6621 -20.1381,7.1459 -38.3112,10.7188 -54.5191,10.7188 -13.261,0 -25.2066,-2.3919 -35.8367,-7.1758 l -8.8585,-164.76597 v 0 c 30.1187,42.6681 56.6816,64.00215 79.6889,64.00215 9.4737,0 18.3444,-3.61721 26.6122,-10.85162 -8.2677,-68.50517 -12.4016,-131.69526 -12.4016,-189.57029 z m -744.1082,-1.77173 46.06382,28.34702 c 25.98475,12.99233 83.26925,71.16266 171.8535,174.51099 35.28117,41.16135 64.66062,73.84485 88.13836,98.05045 v 0 c -9.6777,-1.742 -20.27207,-2.613 -31.78312,-2.613 -15.37748,0 -32.39087,1.554 -51.04017,4.6621 -28.34694,5.9057 -42.52041,16.5359 -42.52041,31.8904 l -122.24634,-1.7712 c 1.18115,-15.3546 -15.94514,-27.1659 -51.37887,-35.4338 -19.17922,6.8055 -36.73808,10.2083 -52.67659,10.2083 -14.48946,0 -27.6398,-2.8121 -39.45103,-8.4362 l -7.08677,-164.76699 v 0 c 30.11869,42.6681 56.38537,64.00215 78.80005,64.00215 9.22957,0 17.80603,-3.61717 25.7294,-10.85151 C 567.52994,913.90108 563.396,851.30151 563.396,794.60754 Z m 283.46973,403.94436 1.77172,81.4975 c -47.24493,-17.7169 -99.80494,-44.8827 -157.68004,-81.4975 z m 209.05897,-1.7722 c 88.5843,34.2525 100.9861,62.0089 37.2054,83.2692 -44.1559,14.7186 -85.7644,22.0779 -124.82531,22.0779 -17.3604,0 -34.2176,-1.4537 -50.57159,-4.3611 v -99.2144 z M 243.5899,0 c -0.58371,0 -1.16866,0.00217095 -1.75485,0.00651284 C 162.10923,0.59704207 111.61619,16.246943 90.355925,46.956215 c -1.181127,-0.06562 -2.323976,-0.09843 -3.428545,-0.09843 -18.777647,0 -26.493208,9.481782 -23.146683,28.445345 -30.709205,9.449009 -46.063808,38.97712 -46.063808,88.58434 8.858395,-5.31503 17.384618,-7.97255 25.578669,-7.97255 2.731349,0 5.425788,0.29535 8.083316,0.88606 14.173507,0 25.394202,15.6499 33.662084,46.94971 8.267814,31.29973 25.394102,65.84757 51.378872,103.64353 l 1.77172,1.77172 c -5.9056,11.81127 -8.8584,32.48094 -8.8584,62.00901 0,30.70919 24.21301,72.63908 72.63904,125.78967 50.78835,177.16862 75.59196,305.91111 74.41083,386.22748 0,10.63012 6.49619,17.12632 19.48857,19.4886 l -53.15064,186.0267 c -2.90744,-0.7272 -6.346,-1.0908 -10.31568,-1.0908 -8.93183,0 -20.5526,1.8397 -34.86232,5.5191 -10.33483,2.6572 -20.96495,3.9858 -31.89036,3.9858 -10.92539,0 -22.14607,-1.3286 -33.66204,-3.9858 -10.90983,-2.5174 -23.3435,-3.7761 -37.301017,-3.7761 -15.508404,0 -32.898106,1.554 -52.169105,4.6621 C 14.173476,1101.109 0,1112.3299 0,1127.6845 l 1.7716887,1.7712 v 69.0957 H 589.97136 c 96.85211,67.324 183.07415,114.5689 258.66612,141.7348 l -1.77172,465.9534 70.86744,5e-4 0,-450.008 c 17.48679,3.0679 35.41184,4.6019 53.77514,4.6019 52.33536,0 108.23056,-12.4593 167.68556,-37.3779 80.3165,-33.6621 88.5843,-75.8873 24.8036,-126.6755 v 0 l 598.8298,1.7721 v -67.1631 0 l 70.8673,-16.1062 c 16.5357,-5.9057 19.4886,-14.1736 8.8586,-24.8036 L 1720.3068,948.74421 v 0 c 76.7731,49.60719 133.467,82.67859 170.0818,99.21429 -17.7169,-21.2602 -48.4261,-47.8355 -92.1276,-79.72579 v 0 l 33.6621,12.40188 c 11.8111,-2.36227 17.1261,-12.9924 15.945,-31.89038 C 1658.8884,808.19048 1539.0044,687.1253 1488.216,585.54869 1437.4277,483.97201 1377.4856,400.99804 1308.3899,336.62677 1239.2942,272.25552 1188.2106,200.50224 1155.1391,121.36694 1122.0676,42.231644 1065.6689,2.6639954 985.94304,2.6639954 c -79.72581,0 -130.21883,15.3546366 -151.47908,46.0639086 -22.44136,0 -31.89035,10.039535 -28.34698,30.118605 -30.7092,9.449009 -46.0638,38.977121 -46.0638,88.584341 11.1363,-6.07439 21.40484,-9.11158 30.80562,-9.11158 1.56675,0 3.10944,0.0843 4.62809,0.25287 14.1735,0 25.09888,15.94517 32.77615,47.8355 7.67734,31.89033 25.09892,66.73348 52.26475,104.52943 v 1.77172 c -5.9056,11.81126 -8.8584,32.48094 -8.8584,62.00903 0,29.52807 24.80359,71.45797 74.41078,125.7897 49.51155,172.71487 74.32843,299.40776 74.45063,380.07868 v 0 C 880.17039,767.19796 788.32475,667.671 744.99386,582.00533 693.61499,480.42862 633.67294,397.74994 565.16771,333.96928 496.66254,270.18855 445.57893,198.43528 411.91686,118.70946 378.50238,39.56982 322.39339,0 243.5899,0 Z"
     style="fill:#000000;stroke:none;stroke-width:100.347"
     id="path1"
     sodipodi:nodetypes="ssscscscccsccsscsccssscssscssssccssscscssscscscccccssscscsccccccscccccsccccccccccccccsscccccccccccsccsssccccsccscsccccscsscccscsccccccccssscccccccccccsscccccccsccssccccssssccccsccsscccccccsscccsscsccsccccsccccssssscccccccccssscccccccscscccsssscccscsccscssssss" />
  <metadata
     id="metadata1">
    <rdf:RDF>
      <cc:Work
         rdf:about="">
        <dc:title>G266A</dc:title>
        <dc:creator>
          <cc:Agent>
            <dc:title>S. J. P. THOMAS</dc:title>
          </cc:Agent>
        </dc:creator>
        <dc:description>Modified by S. Rosmorduc
===</dc:description>
      </cc:Work>
    </rdf:RDF>
  </metadata>
</svg>
