<?xml version="1.0" encoding="UTF-8" standalone="no"?>
<svg
   xmlns:dc="http://purl.org/dc/elements/1.1/"
   xmlns:cc="http://web.resource.org/cc/"
   xmlns:rdf="http://www.w3.org/1999/02/22-rdf-syntax-ns#"
   xmlns:svg="http://www.w3.org/2000/svg"
   xmlns="http://www.w3.org/2000/svg"
   xmlns:sodipodi="http://sodipodi.sourceforge.net/DTD/sodipodi-0.dtd"
   xmlns:inkscape="http://www.inkscape.org/namespaces/inkscape"
   width="1639"
   height="1798"
   id="svg2"
   sodipodi:version="0.32"
   inkscape:version="0.45.1"
   sodipodi:docname="G26C.svg"
   sodipodi:docbase="/home/rosmord/Desktop/tmp"
   inkscape:output_extension="org.inkscape.output.svg.inkscape"
   version="1.0">
  <metadata
     id="metadata9">
    <rdf:RDF>
      <cc:Work
         rdf:about="">
        <dc:format>image/svg+xml</dc:format>
        <dc:type
           rdf:resource="http://purl.org/dc/dcmitype/StillImage" />
      </cc:Work>
    </rdf:RDF>
  </metadata>
  <defs
     id="defs7" />
  <sodipodi:namedview
     inkscape:window-height="572"
     inkscape:window-width="753"
     inkscape:pageshadow="2"
     inkscape:pageopacity="0.0"
     guidetolerance="10.0"
     gridtolerance="10.0"
     objecttolerance="10.0"
     borderopacity="1.0"
     bordercolor="#666666"
     pagecolor="#ffffff"
     id="base"
     width="1639px"
     height="1798px"
     inkscape:zoom="0.037087829"
     inkscape:cx="821.2455"
     inkscape:cy="897.14395"
     inkscape:window-x="80"
     inkscape:window-y="120"
     inkscape:current-layer="svg2" />
  <path
     style="fill:#000000;stroke:none"
     d="M 1171.5312 0 L 804.5 377.09375 C 708.40866 375.97643 633.53865 393.30762 579.90625 429.0625 C 526.27389 464.81743 529.63235 408.10252 589.96875 258.9375 C 650.30516 109.7725 611.74542 35.187501 474.3125 35.1875 C 435.20561 35.1875 398.89524 47.481025 365.375 72.0625 C 338.55883 102.23071 316.22124 121.78 298.34375 130.71875 C 183.25766 205.58056 112.28492 281.02081 85.46875 357 C 85.46875 390.52023 96.083039 400.56435 117.3125 387.15625 C 169.82754 294.41693 241.90932 234.08976 333.53125 206.15625 C 373.75552 217.32964 406.70738 219.83286 432.40625 213.6875 C 458.10505 207.54214 478.50958 206.43309 493.59375 210.34375 C 508.67778 214.25447 506.71352 237.44727 487.71875 279.90625 C 468.72394 322.36515 450.85387 373.75735 434.09375 434.09375 C 417.33364 494.43016 423.48038 541.35478 452.53125 574.875 C 503.92891 621.80331 604.49506 694.42397 754.21875 792.75 C 778.80022 816.21416 789.95347 838.01291 787.71875 858.125 C 786.60143 950.86432 760.6202 1052.2544 709.78125 1162.3125 C 658.94222 1272.3706 602.79748 1322.9387 541.34375 1314 C 462.01253 1314 417.87625 1330.761 408.9375 1364.2812 L 0 1364.2812 L 0 1448.0625 L 1213.4375 1448.0625 L 1557 1801.7188 L 1642.5 1801.7188 L 1642.5 1364.2812 L 1091.0938 1364.2812 C 1091.0938 1336.3477 1095.8464 1314.5491 1105.3438 1298.9062 C 1114.8411 1283.2636 1116.2352 1266.2175 1109.5312 1247.7812 C 1102.8272 1229.3452 1098.0746 1187.173 1095.2812 1121.25 C 1092.4878 1055.3268 1088.3054 980.4568 1082.7188 896.65625 L 1288.8438 896.65625 C 1310.0733 896.65625 1351.4214 915.09651 1412.875 951.96875 L 1595.5625 920.125 C 1558.6903 868.72741 1497.793 826.27024 1412.875 792.75 C 1427.4004 796.10203 1479.3627 813.43319 1568.75 844.71875 C 1597.8008 843.60143 1608.4153 827.37931 1600.5938 796.09375 C 1589.4204 777.09893 1565.9425 753.08208 1530.1875 724.03125 C 1201.6893 509.5018 981.03896 396.10327 868.1875 383.8125 L 1126.2812 122.34375 C 1136.3374 108.93566 1148.6308 102.78887 1163.1562 103.90625 C 1178.7989 105.02358 1190.5223 113.4197 1198.3438 129.0625 L 1427.9688 527.9375 C 1446.9635 554.75367 1459.796 565.368 1466.5 559.78125 C 1485.4948 546.37315 1489.4235 525.14458 1478.25 496.09375 C 1483.8366 503.91512 1491.9165 510.63207 1502.5312 516.21875 C 1513.146 521.80548 1521.8272 521.80546 1528.5312 516.21875 C 1536.3527 511.74941 1539.1409 503.9234 1536.9062 492.75 C 1534.6715 481.57655 1530.743 471.53242 1525.1562 462.59375 C 1549.7378 482.70588 1571.5365 486.60327 1590.5312 474.3125 C 1598.3526 468.72577 1592.2059 453.64396 1572.0938 429.0625 L 1255.3438 88.84375 L 1171.5312 0 z M 437.4375 79.5625 C 462.6602 79.005293 494.34351 97.538231 494.6875 112.8125 C 495.04258 128.57948 462.00396 140.87935 436.4375 142.75 C 410.87104 144.62067 392.76133 136.07947 392.40625 120.3125 C 392.05115 104.5455 409.46479 81.558158 435.03125 79.6875 C 435.8302 79.629042 436.62386 79.580474 437.4375 79.5625 z M 1231.875 113.96875 L 1521.8125 425.71875 L 1441.375 481 L 1231.875 113.96875 z M 806.15625 413.96875 C 903.3649 419.55548 1035.7739 471.23266 1203.375 569 C 1370.9761 666.76727 1491.6617 744.14062 1565.4062 801.125 C 1477.1363 769.83948 1399.4779 754.21875 1332.4375 754.21875 C 1125.7294 754.21875 979.06265 728.77654 892.46875 677.9375 C 805.87485 627.09847 762.59378 590.24923 762.59375 567.34375 C 762.59375 544.43828 767.60023 532.96872 777.65625 532.96875 C 861.45688 532.96875 907.27247 513.41945 915.09375 474.3125 L 884.9375 464.25 C 867.06 484.36214 835.50221 494.15237 790.25 493.59375 C 744.99769 493.03505 722.375 516.19671 722.375 563.125 C 722.375 610.05332 770.12362 659.5124 865.65625 711.46875 C 961.1889 763.4251 1077.6608 789.40626 1215.0938 789.40625 C 1296.6597 789.40625 1362.0246 801.41472 1411.1875 825.4375 C 1460.3505 849.46035 1495.0127 870.97395 1515.125 889.96875 L 1414.5625 906.71875 C 1398.9197 876.55055 1320.1524 861.46873 1178.25 861.46875 C 1092.2147 861.46875 1030.177 837.45189 992.1875 789.40625 L 958.6875 789.40625 C 1019.0239 840.80391 1048.6174 887.44349 1047.5 929.34375 C 1046.3827 971.24402 1040.521 971.52916 1029.9062 930.1875 C 1019.2916 888.84591 961.46761 857.00311 856.4375 834.65625 C 850.85085 906.16611 839.12752 899.44912 821.25 814.53125 C 808.95923 783.24566 753.63848 737.17627 655.3125 676.28125 C 556.98653 615.38615 506.70345 575.71736 504.46875 557.28125 C 502.23412 538.84512 533.82315 510.36076 599.1875 471.8125 C 664.55194 433.26424 733.52909 413.96874 806.15625 413.96875 z M 886.625 868.1875 C 936.90541 882.71298 970.96636 908.94793 988.84375 946.9375 C 1023.4814 1038.5595 1041.3513 1121.2555 1042.4688 1195 C 1043.586 1268.7444 1016.2108 1308.4133 960.34375 1314 C 866.48711 1314 820.1327 1330.761 821.25 1364.2812 L 663.6875 1364.2812 C 798.88572 1113.9968 873.21692 948.63605 886.625 868.1875 z M 1317.3438 1448.0625 L 1557 1448.0625 L 1557 1689.4062 L 1317.3438 1448.0625 z "
     id="path4" />
</svg>
