<?xml version="1.0" encoding="UTF-8" standalone="no"?>
<!-- Created with Inkscape (http://www.inkscape.org/) -->
<svg
   xmlns:dc="http://purl.org/dc/elements/1.1/"
   xmlns:cc="http://web.resource.org/cc/"
   xmlns:rdf="http://www.w3.org/1999/02/22-rdf-syntax-ns#"
   xmlns:svg="http://www.w3.org/2000/svg"
   xmlns="http://www.w3.org/2000/svg"
   xmlns:sodipodi="http://sodipodi.sourceforge.net/DTD/sodipodi-0.dtd"
   xmlns:inkscape="http://www.inkscape.org/namespaces/inkscape"
   width="2816.9709"
   height="1799.1459"
   id="svg1290"
   sodipodi:version="0.32"
   inkscape:version="0.45.1"
   sodipodi:docbase="/home/rosmord/Desktop/tmp"
   sodipodi:docname="G281.svg"
   inkscape:output_extension="org.inkscape.output.svg.inkscape"
   version="1.0">
  <defs
     id="defs3" />
  <sodipodi:namedview
     id="base"
     pagecolor="#ffffff"
     bordercolor="#666666"
     borderopacity="1.0"
     inkscape:pageopacity="0.0"
     inkscape:pageshadow="2"
     inkscape:zoom="0.2100997"
     inkscape:cx="812.81827"
     inkscape:cy="864.92706"
     inkscape:document-units="px"
     inkscape:current-layer="svg1290"
     inkscape:window-width="753"
     inkscape:window-height="572"
     inkscape:window-x="85"
     inkscape:window-y="16" />
  <metadata
     id="metadata4">
    <rdf:RDF>
      <cc:Work
         rdf:about="">
        <dc:format>image/svg+xml</dc:format>
        <dc:type
           rdf:resource="http://purl.org/dc/dcmitype/StillImage" />
        <cc:license
           rdf:resource="http://creativecommons.org/licenses/by/2.0/" />
        <dc:subject>
          <rdf:Bag>
            <rdf:li>JSesh hieroglyph</rdf:li>
          </rdf:Bag>
        </dc:subject>
        <dc:creator>
          <cc:Agent>
            <dc:title>S. Rosmorduc</dc:title>
          </cc:Agent>
        </dc:creator>
        <dc:description>G17 sign from Abydos</dc:description>
      </cc:Work>
      <cc:License
         rdf:about="http://creativecommons.org/licenses/by/2.0/">
        <cc:permits
           rdf:resource="http://web.resource.org/cc/Reproduction" />
        <cc:permits
           rdf:resource="http://web.resource.org/cc/Distribution" />
        <cc:requires
           rdf:resource="http://web.resource.org/cc/Notice" />
        <cc:requires
           rdf:resource="http://web.resource.org/cc/Attribution" />
        <cc:permits
           rdf:resource="http://web.resource.org/cc/DerivativeWorks" />
        <cc:requires
           rdf:resource="http://web.resource.org/cc/ShareAlike" />
      </cc:License>
    </rdf:RDF>
  </metadata>
  <path
     style="color:#000000;fill:#000000;fill-opacity:1;fill-rule:nonzero;stroke:none;stroke-width:8.25491714;stroke-linecap:butt;stroke-linejoin:round;marker:none;marker-start:none;marker-mid:none;marker-end:none;stroke-miterlimit:4;stroke-dashoffset:0;stroke-opacity:1;visibility:visible;display:inline;overflow:visible"
     d="M 443.63597,2.1316282e-14 C 407.63597,16 340.63597,32 286.63597,27 C 236.63597,36 178.63597,-8.9999997 134.63597,20 C 79.635972,100 29.635972,189 23.635972,288 C 12.635972,478 17.635972,544 167.63597,700 C 226.63597,834 336.63597,1271 369.63597,1390 C 405.63597,1424.0001 324.63597,1610 290.63597,1656 C 253.63597,1707.0001 95.635975,1661 29.635972,1702 C 1.6359717,1720.0001 -8.3640278,1787 7.6359717,1796 C 22.635972,1773.0001 52.635972,1742 73.635972,1739 C 53.635972,1760.0001 123.63597,1750 138.63597,1755 C 198.63597,1756.0001 259.63597,1763 320.63597,1756 C 336.63597,1749.0001 354.63597,1735 340.63597,1761 C 432.63597,1785.0001 561.63597,1770 582.63597,1716 C 612.63597,1661.0001 640.63597,1603 660.63597,1543 C 693.63596,1550.0001 737.63597,1578 764.63597,1561 C 792.63597,1542.0001 821.63597,1453 837.63597,1394 C 840.63597,1382.0001 869.63597,1382 874.63597,1393 C 890.14944,1424.027 911.06147,1488.2235 934.22972,1553.625 C 916.21212,1597.6047 895.37813,1637.7882 881.91722,1656 C 844.91723,1707.0001 686.91722,1661 620.91722,1702 C 592.91722,1720.0001 582.91722,1787 598.91722,1796 C 613.91722,1773.0001 643.91722,1742 664.91722,1739 C 644.91722,1760.0001 714.91722,1750 729.91722,1755 C 789.91722,1756.0001 850.91722,1763 911.91722,1756 C 927.91723,1749.0001 945.91722,1735 931.91722,1761 C 1023.9172,1785.0001 1152.9172,1770 1173.9172,1716 C 1203.9172,1661.0001 1231.9172,1603 1251.9172,1543 C 1284.9172,1550.0001 1328.9172,1578 1355.9172,1561 C 1383.9172,1542.0001 1412.9172,1453 1428.9172,1394 C 1431.9172,1382.0001 1460.9172,1382 1465.9172,1393 C 1482.1231,1425.4118 1504.1936,1494.008 1528.6047,1562.375 C 1511.4789,1602.8787 1492.4825,1638.9999 1479.9172,1656 C 1442.9172,1707.0001 1284.9172,1661 1218.9172,1702 C 1190.9173,1720.0001 1180.9172,1787 1196.9172,1796 C 1211.9172,1773.0001 1241.9172,1742 1262.9172,1739 C 1242.9172,1760.0001 1312.9172,1750 1327.9172,1755 C 1387.9172,1756.0001 1448.9172,1763 1509.9172,1756 C 1525.9172,1749.0001 1543.9172,1735 1529.9172,1761 C 1621.9172,1785.0001 1750.9172,1770 1771.9172,1716 C 1801.9172,1661.0001 1829.9172,1603 1849.9172,1543 C 1882.9172,1550.0001 1926.9172,1578 1953.9172,1561 C 1981.9172,1542.0001 2010.9172,1453 2026.9172,1394 C 2029.9172,1382.0001 2058.9172,1382 2063.9172,1393 C 2093.9172,1453.0001 2143.9172,1637 2191.9172,1714 C 2250.9172,1807.0001 2446.9172,1823 2580.9172,1766 C 2645.9172,1738.0001 2693.9172,1744 2679.9172,1708 C 2657.9171,1648.0001 2619.9172,1591 2579.9172,1540 C 2637.9172,1576.0001 2695.9172,1613 2753.9172,1649 C 2767.9171,1700.0001 2843.9172,1661 2806.9172,1622 C 2579.9171,1294.0001 2218.9172,735.00002 1968.9172,554 C 1928.9172,519.00002 1881.9172,492 1829.9172,479 C 1812.9172,434.99999 1817.9172,376 1807.9172,326 C 1797.9172,226.99999 1737.9172,63 1632.9172,2.1316282e-14 C 1596.9172,15.999999 1529.9172,32 1475.9172,27 C 1425.9172,35.999998 1367.9172,-8.9999997 1323.9172,20 C 1268.9172,100 1218.9172,189 1212.9172,288 C 1212.0579,302.84349 1211.3323,316.84934 1210.7297,330.28125 C 1210.4705,328.84968 1210.2008,327.41778 1209.9172,326 C 1199.9172,226.99999 1139.9172,63 1034.9172,2.1316282e-14 C 998.91718,15.999999 931.91722,32 877.91722,27 C 827.91723,35.999998 769.91722,-8.9999997 725.91722,20 C 670.91721,100 620.91722,189 614.91722,288 C 614.75212,290.85177 614.60592,293.57838 614.44847,296.375 C 596.89082,196.94526 538.7328,57.058103 443.63597,2.1316282e-14 z M 434.63597,65 C 493.63597,134 545.63597,214 555.63597,306 C 565.63597,372 568.63597,438 578.63597,503 C 531.63597,499 545.63597,426 554.63597,391 C 562.63597,322 525.63597,258 499.63597,197 C 481.63597,164 464.63597,112 418.63597,111 C 367.63597,120 334.63597,163 301.63597,200 C 267.63597,166 231.63597,129 184.63597,115 C 165.63597,108 127.63597,134 153.63597,102 C 170.63597,42 236.63597,95.000001 280.63597,86.000001 C 332.63597,89.000001 385.63597,83 434.63597,65 z M 1025.9172,65 C 1084.9172,134 1136.9172,214 1146.9172,306 C 1156.9172,371.99999 1159.9172,438 1169.9172,503 C 1122.9172,498.99999 1136.9172,426 1145.9172,391 C 1153.9172,321.99999 1116.9172,258 1090.9172,197 C 1072.9172,164 1055.9172,112 1009.9172,111 C 958.91723,120 925.91722,163 892.91722,200 C 858.91723,166 822.91722,129 775.91722,115 C 756.91722,108 718.91722,134 744.91722,102 C 761.91722,41.999999 827.91722,95.000001 871.91722,86.000001 C 923.91723,89.000001 976.91722,83 1025.9172,65 z M 1623.9172,65 C 1682.9172,134 1734.9172,214 1744.9172,306 C 1754.9172,371.99999 1757.9172,438 1767.9172,503 C 1720.9172,498.99999 1734.9172,426 1743.9172,391 C 1751.9172,321.99999 1714.9172,258 1688.9172,197 C 1670.9172,164 1653.9172,112 1607.9172,111 C 1556.9172,120 1523.9172,163 1490.9172,200 C 1456.9172,166 1420.9172,129 1373.9172,115 C 1354.9172,108 1316.9172,134 1342.9172,102 C 1359.9172,41.999999 1425.9172,95.000001 1469.9172,86.000001 C 1521.9172,89.000001 1574.9172,83 1623.9172,65 z M 418.63597,141 C 457.63597,151 466.63597,205 485.63597,237 C 509.63596,293 538.63597,354 519.63597,417 C 504.63596,447 523.63597,485 521.63597,507 C 484.63597,533 452.63597,591 399.63597,578 C 355.63597,569 333.63597,527 299.63597,507 C 271.63597,534 256.63597,594 201.63597,577 C 164.63597,569 115.63597,573 104.63597,528 C 85.635972,482 83.635972,431 80.635972,381 C 106.63597,386 108.63597,360 110.63597,338 C 123.63597,289 173.63597,284 209.63597,313 C 226.63597,332 278.63597,347 267.63597,377 C 262.63597,395 256.63597,414 250.63597,433 L 292.63597,489 C 296.63597,460 339.63597,436 314.63597,407 C 310.63597,394 295.63597,377 297.63597,367 C 315.63597,335 339.63597,307 367.63597,283 C 401.63597,250 437.63597,307 467.63597,311 C 490.63597,286 465.63597,276 442.63597,263 C 407.63597,230 354.63597,241 328.63597,279 C 303.63597,294 288.63597,355 262.63597,315 C 227.63597,287 184.63597,255 137.63597,265 C 108.63597,271 82.635972,331 81.635972,328 C 80.635972,281 102.63597,239 115.63597,193 C 127.63597,143 190.63597,128 222.63597,169 C 257.63597,182 281.63597,252 317.63597,227 C 348.63597,194 373.63597,155 418.63597,141 z M 1009.9172,141 C 1048.9172,151 1057.9172,205 1076.9172,237 C 1100.9172,293 1129.9172,354 1110.9172,417 C 1095.9172,446.99999 1114.9172,485 1112.9172,507 C 1075.9172,532.99999 1043.9172,591 990.91722,578 C 946.91723,569.00002 924.91722,527 890.91722,507 C 862.91723,533.99999 847.91722,594 792.91722,577 C 755.91722,569.00002 706.91722,573 695.91722,528 C 676.91721,482.00002 674.91722,431 671.91722,381 C 697.91723,385.99999 699.91722,360 701.91722,338 C 714.91722,288.99999 764.91722,284 800.91722,313 C 817.91722,331.99999 869.91722,347 858.91722,377 C 853.91723,394.99999 847.91722,414 841.91722,433 L 883.91722,489 C 887.91723,459.99999 930.91722,436 905.91722,407 C 901.91723,393.99999 886.91722,377 888.91722,367 C 906.91723,334.99999 930.91722,307 958.91722,283 C 992.91718,249.99999 1028.9172,307 1058.9172,311 C 1081.9172,285.99999 1056.9172,276 1033.9172,263 C 998.91718,229.99999 945.91722,241 919.91722,279 C 894.91723,293.99999 879.91722,355 853.91722,315 C 818.91723,286.99999 775.91722,255 728.91722,265 C 699.91722,270.99999 673.91722,331 672.91722,328 C 671.91722,280.99999 693.91722,239 706.91722,193 C 718.91722,143 781.91722,128 813.91722,169 C 848.91722,182 872.91722,252 908.91722,227 C 939.91723,194 964.91722,155 1009.9172,141 z M 1607.9172,141 C 1646.9172,151 1655.9172,205 1674.9172,237 C 1698.9172,293 1727.9172,354 1708.9172,417 C 1693.9172,446.99999 1712.9172,485 1710.9172,507 C 1673.9172,532.99999 1641.9172,591 1588.9172,578 C 1544.9172,569.00002 1522.9172,527 1488.9172,507 C 1460.9172,533.99999 1445.9172,594 1390.9172,577 C 1353.9172,569.00002 1304.9172,573 1293.9172,528 C 1274.9172,482.00002 1272.9172,431 1269.9172,381 C 1295.9172,385.99999 1297.9172,360 1299.9172,338 C 1312.9172,288.99999 1362.9172,284 1398.9172,313 C 1415.9172,331.99999 1467.9172,347 1456.9172,377 C 1451.9172,394.99999 1445.9172,414 1439.9172,433 L 1481.9172,489 C 1485.9172,459.99999 1528.9172,436 1503.9172,407 C 1499.9172,393.99999 1484.9172,377 1486.9172,367 C 1504.9172,334.99999 1528.9172,307 1556.9172,283 C 1590.9172,249.99999 1626.9172,307 1656.9172,311 C 1679.9172,285.99999 1654.9172,276 1631.9172,263 C 1596.9172,229.99999 1543.9172,241 1517.9172,279 C 1492.9172,293.99999 1477.9172,355 1451.9172,315 C 1416.9172,286.99999 1373.9172,255 1326.9172,265 C 1297.9172,270.99999 1271.9172,331 1270.9172,328 C 1269.9172,280.99999 1291.9172,239 1304.9172,193 C 1316.9172,143 1379.9172,128 1411.9172,169 C 1446.9172,182 1470.9172,252 1506.9172,227 C 1537.9172,194 1562.9172,155 1607.9172,141 z M 368.63597,307 C 341.63597,320 308.63597,356 358.63597,362 C 382.63597,361 437.63597,336 427.63597,313 C 408.63597,331 388.63597,307 368.63597,307 z M 959.91722,307 C 932.91723,319.99999 899.91722,356 949.91722,362 C 973.91723,360.99999 1028.9172,336 1018.9172,313 C 999.91718,330.99999 979.91722,307 959.91722,307 z M 1557.9172,307 C 1530.9172,319.99999 1497.9172,356 1547.9172,362 C 1571.9172,360.99999 1626.9172,336 1616.9172,313 C 1597.9172,330.99999 1577.9172,307 1557.9172,307 z M 171.63597,316 C 138.63597,324 121.63597,360 163.63597,368 C 185.63597,370 257.63597,339 201.63597,332 C 192.63597,326 183.63597,316 171.63597,316 z M 762.91722,316 C 729.91722,323.99999 712.91722,360 754.91722,368 C 776.91722,369.99999 848.91722,339 792.91722,332 C 783.91722,325.99999 774.91722,316 762.91722,316 z M 1360.9172,316 C 1327.9172,323.99999 1310.9172,360 1352.9172,368 C 1374.9172,369.99999 1446.9172,339 1390.9172,332 C 1381.9172,325.99999 1372.9172,316 1360.9172,316 z M 547.63597,523 C 561.63597,552 584.63597,536 601.63597,528 C 609.93311,533.87714 625.2539,537.46799 639.76097,541.15625 C 645.4335,553.56595 652.1086,566.01104 659.97972,578.75 C 659.86383,578.83536 659.75349,578.91365 659.63597,579 C 628.63597,621 462.96227,735.51735 347.88597,755.71875 C 298.20007,764.44104 381.63597,843 408.63597,871 C 564.63596,1011.0001 717.63597,1159 904.63597,1260 C 913.02409,1264.7318 921.44178,1269.428 929.88597,1274.0938 C 942.74793,1322.6068 953.85448,1364.5313 960.91722,1390 C 972.15568,1400.6141 971.99397,1426.0493 965.41722,1457.4062 C 946.49335,1395.2232 929.86789,1336.1174 917.63597,1301 C 902.63597,1267.0001 866.63597,1310 859.63597,1299 C 855.63597,1250.0001 784.63597,1247 789.63597,1301 C 783.63597,1364.0001 771.63597,1427 741.63597,1484 C 727.63597,1521.0001 655.63597,1471 611.63597,1460 C 624.63597,1383.0001 519.63597,989.00008 211.63597,659 C 199.63597,646 142.63597,586 161.63597,600 C 207.63597,612 270.63597,613 296.63597,565 C 308.63597,529 334.63597,594 362.63597,594 C 404.63597,622 459.63597,610 491.63597,574 C 510.63596,557 528.63597,540 547.63597,523 z M 1138.9172,523 C 1152.9172,552.00002 1175.9172,536 1192.9172,528 C 1202.6925,534.92417 1222.2248,538.7161 1238.6672,543.1875 C 1243.5944,553.76223 1249.2742,564.38095 1255.7922,575.1875 C 1254.3324,576.412 1252.7286,577.66918 1250.9172,579 C 1219.9172,621.00002 1054.2435,735.54862 939.16722,755.75 C 889.48128,764.47224 972.91722,843 999.91718,871 C 1155.9172,1011 1308.9172,1159 1495.9172,1260 C 1506.9026,1266.197 1517.9625,1272.3162 1529.0422,1278.4062 C 1541.3673,1324.8987 1552.0736,1365.3216 1558.9172,1390 C 1571.6186,1401.9958 1569.7351,1432.9243 1560.511,1469.9375 C 1539.9986,1403.2547 1521.967,1338.4655 1508.9172,1301 C 1493.9172,1267.0001 1457.9172,1310 1450.9172,1299 C 1446.9172,1250.0001 1375.9172,1247 1380.9172,1301 C 1374.9172,1364.0001 1362.9172,1427 1332.9172,1484 C 1318.9172,1521.0001 1246.9172,1471 1202.9172,1460 C 1215.9172,1383.0001 1110.9172,988.99998 802.91722,659 C 790.91722,646.00002 733.91722,586 752.91722,600 C 798.91722,612.00002 861.91722,613 887.91722,565 C 899.91723,529.00002 925.91722,594 953.91722,594 C 995.91718,622.00002 1050.9172,610 1082.9172,574 C 1101.9172,557.00002 1119.9172,540 1138.9172,523 z M 1736.9172,523 C 1750.9172,552.00002 1773.9172,536 1790.9172,528 C 1814.9172,545.00002 1897.9172,543 1848.9172,579 C 1817.9172,621.00002 1652.2435,735.54862 1537.1672,755.75 C 1487.4812,764.47224 1570.9172,843 1597.9172,871 C 1753.9172,1011 1906.9172,1159 2093.9172,1260 C 2210.9172,1326.0001 2333.9172,1385 2446.9172,1458 C 2500.9172,1536.0001 2564.9172,1608 2605.9172,1694 C 2564.9172,1706.0001 2524.9172,1723 2482.9172,1733 C 2399.9172,1754.0001 2290.9172,1733 2250.9172,1690 C 2196.9172,1633.0001 2137.9172,1390 2106.9172,1301 C 2091.9172,1267.0001 2055.9172,1310 2048.9172,1299 C 2044.9172,1250.0001 1973.9172,1247 1978.9172,1301 C 1972.9172,1364.0001 1960.9172,1427 1930.9172,1484 C 1916.9172,1521.0001 1844.9172,1471 1800.9172,1460 C 1813.9172,1383.0001 1708.9172,988.99998 1400.9172,659 C 1388.9172,646.00002 1331.9172,586 1350.9172,600 C 1396.9172,612.00002 1459.9172,613 1485.9172,565 C 1497.9172,529.00002 1523.9172,594 1551.9172,594 C 1593.9172,622.00002 1648.9172,610 1680.9172,574 C 1699.9172,557.00002 1717.9172,540 1736.9172,523 z M 1917.9172,597 C 2157.9172,735.00004 2575.9172,1414 2664.9172,1523 C 2514.9171,1428.0001 2366.9172,1332 2205.9172,1254 C 1979.9172,1143.0001 1786.9172,963 1602.9172,795 C 1754.9172,743.99998 1863.9172,658 1917.9172,597 z M 1291.5735,626.25 C 1309.4785,648.8971 1331.0492,673.09721 1356.9172,700 C 1397.1258,791.32108 1460.9748,1023.2529 1508.0422,1199.4688 C 1324.0295,1089.089 1161.2268,937.71746 1004.9172,795 C 1133.8981,751.72352 1231.85,683.26903 1291.5735,626.25 z M 696.47972,629.84375 C 713.80439,651.45271 734.41921,674.52207 758.91722,700 C 798.7625,790.49607 861.78952,1018.9862 908.72972,1194.5938 C 728.01429,1084.6572 567.66069,935.63127 413.63597,795 C 539.89117,752.63805 636.43662,686.11665 696.47972,629.84375 z M 1611.6047,793.40625 C 1610.0441,793.94035 1608.487,794.4733 1606.9172,795 C 1615.302,802.65567 1623.7113,810.36465 1632.136,818.0625 C 1625.2691,809.73317 1618.4318,801.52671 1611.6047,793.40625 z M 276.63597,835 C 403.63597,966.0001 520.63597,1298 550.63597,1434 C 501.63597,1394.0001 434.63597,1368 419.63597,1343 C 403.63597,1317.0001 359.63597,1064.0001 276.63597,835 z M 867.91722,835 C 994.91718,966 1111.9172,1298 1141.9172,1434 C 1092.9172,1394.0001 1025.9172,1368 1010.9172,1343 C 994.91718,1317.0001 950.91722,1064 867.91722,835 z M 1465.9172,835 C 1592.9172,966 1709.9172,1298 1739.9172,1434 C 1690.9172,1394.0001 1623.9172,1368 1608.9172,1343 C 1592.9172,1317.0001 1548.9172,1064 1465.9172,835 z M 479.63597,1459 C 511.63596,1478.0001 540.63597,1504 575.63597,1518 C 554.63597,1570.0001 541.63597,1628 498.63597,1669 C 475.63597,1706.0001 424.63597,1671 387.63597,1674 C 415.63597,1604.0001 457.63597,1573 479.63597,1459 z M 1070.9172,1459 C 1102.9172,1478.0001 1131.9172,1504 1166.9172,1518 C 1145.9172,1570.0001 1132.9172,1628 1089.9172,1669 C 1066.9172,1706.0001 1015.9172,1671 978.91722,1674 C 1006.9172,1604.0001 1048.9172,1573 1070.9172,1459 z M 1668.9172,1459 C 1700.9172,1478.0001 1729.9172,1504 1764.9172,1518 C 1743.9172,1570.0001 1730.9172,1628 1687.9172,1669 C 1664.9172,1706.0001 1613.9172,1671 1576.9172,1674 C 1604.9172,1604.0001 1646.9172,1573 1668.9172,1459 z "
     id="path2253" />
</svg>
