<?xml version="1.0" encoding="UTF-8" standalone="no"?>
<svg
   xmlns:dc="http://purl.org/dc/elements/1.1/"
   xmlns:cc="http://web.resource.org/cc/"
   xmlns:rdf="http://www.w3.org/1999/02/22-rdf-syntax-ns#"
   xmlns:svg="http://www.w3.org/2000/svg"
   xmlns="http://www.w3.org/2000/svg"
   xmlns:sodipodi="http://sodipodi.sourceforge.net/DTD/sodipodi-0.dtd"
   xmlns:inkscape="http://www.inkscape.org/namespaces/inkscape"
   width="15.395395"
   height="17.977583"
   id="svg2241"
   sodipodi:version="0.32"
   inkscape:version="0.45"
   sodipodi:docname="G297.svg"
   inkscape:output_extension="org.inkscape.output.svg.inkscape"
   sodipodi:docbase="C:\Program Files\JSesh\fontsGroupeG"
   sodipodi:modified="true">
  <metadata
     id="metadata2248">
    <rdf:RDF>
      <cc:Work
         rdf:about="">
        <dc:format>image/svg+xml</dc:format>
        <dc:type
           rdf:resource="http://purl.org/dc/dcmitype/StillImage" />
      </cc:Work>
    </rdf:RDF>
  </metadata>
  <defs
     id="defs2246" />
  <sodipodi:namedview
     inkscape:window-height="480"
     inkscape:window-width="640"
     inkscape:pageshadow="2"
     inkscape:pageopacity="0.0"
     guidetolerance="10.0"
     gridtolerance="10.0"
     objecttolerance="10.0"
     borderopacity="1.0"
     bordercolor="#666666"
     pagecolor="#ffffff"
     id="base" />
  <path
     style="fill:#000000; stroke:none"
     d="M 2.970038,1.396508 C 3.3765333,1.396508 3.579781,1.5145227 3.579781,1.750552 C 3.579781,1.9734693 3.3896463,2.084928 3.009377,2.084928 C 2.589769,2.084928 2.379965,1.966913 2.379965,1.730883 C 2.379965,1.521079 2.576656,1.4096207 2.970038,1.396508 z M 5.999084,12.116183 C 6.0515353,12.784933 6.307234,13.74872 6.76618,15.007545 L 6.884195,15.007545 L 6.864526,13.453684 C 6.7727367,13.322556 6.484256,12.876722 5.999084,12.116183 z M 7.316916,14.043757 L 7.316916,14.88953 C 7.316916,15.059995 7.0677737,15.820535 6.569489,17.171148 C 7.3824797,17.236713 7.7955313,17.210487 7.808644,17.092472 C 8.0315607,16.869555 8.1167933,16.233587 8.064342,15.184566 C 7.9594407,14.751845 7.7102987,14.371576 7.316916,14.043757 z M 11.290079,15.695964 C 11.644124,16.941675 11.932604,17.557975 12.155521,17.544863 C 12.365325,17.584201 12.24731,17.040022 11.801476,15.912325 L 11.290079,15.695964 z M 12.273536,16.128685 C 12.496453,17.072804 12.739038,17.544863 13.001293,17.544863 C 13.158646,17.531749 13.106196,17.177704 12.843941,16.482729 L 12.273536,16.128685 z M 13.256992,16.659752 C 13.375007,17.249826 13.525803,17.544863 13.709382,17.544863 C 13.853622,17.544863 13.840509,17.31539 13.670044,16.856443 L 13.256992,16.659752 z M 13.98475,17.072803 C 14.037201,17.400622 14.155216,17.557975 14.338795,17.544863 C 14.496147,17.557975 14.528929,17.459629 14.43714,17.249825 L 13.98475,17.072803 z M 14.535485,16.67942 C 13.89296,16.141797 12.62758,15.14195 10.739344,13.679878 C 8.851108,12.217807 7.441487,11.139283 6.510481,10.444307 C 5.5794757,9.749331 5.113973,9.1166407 5.113973,8.546236 C 5.113973,7.9758313 5.2418223,7.602118 5.497521,7.425096 C 5.7532197,7.248074 5.9794147,7.2054573 6.176106,7.297246 C 6.3072333,7.3365847 6.3629627,7.4185393 6.343294,7.54311 C 6.3236247,7.6676813 6.2154443,7.759471 6.018753,7.818479 C 5.8220617,7.8774863 5.7007687,8.1004027 5.654874,8.487228 C 5.6089793,8.8740547 6.022031,9.4018433 6.894029,10.070594 C 7.766027,10.739344 8.759318,11.496605 9.873902,12.342378 C 10.988486,13.18815 12.444002,14.286343 14.240449,15.636957 C 13.479909,13.158647 12.601355,11.21796 11.604786,9.814895 C 10.52954,8.280703 9.0805807,7.2972467 7.257908,6.864526 C 5.435236,6.4318053 4.5501253,5.6843783 4.602576,4.622245 L 4.897613,2.615994 C 4.9500637,1.842342 4.5763503,1.4161777 3.776473,1.337501 C 2.976595,1.2588243 2.1898297,1.2424333 1.416177,1.288328 C 0.642525,1.3342227 0.327819,1.6653197 0.472059,2.281619 C 0.66875033,2.071815 1.2522677,1.9931383 2.222611,2.045589 C 2.3406263,2.1373783 2.33407,2.235724 2.202942,2.340626 L 1.239155,2.340626 C 1.2129297,2.4848667 1.4489593,2.556987 1.947244,2.556987 C 2.3930773,2.6881143 2.9175873,2.7471217 3.520774,2.734009 C 3.9010433,2.773347 4.0846217,2.897918 4.071509,3.107722 C 3.7043523,4.4452227 3.524052,5.5368593 3.530608,6.382632 C 3.5371647,7.2284047 4.1206823,8.5200107 5.281161,10.25745 C 6.4416397,11.994889 7.2415173,13.109473 7.680794,13.601202 C 8.1200713,14.092931 8.3987173,14.60105 8.516732,15.12556 L 8.674086,15.12556 L 8.477394,14.181441 C 8.4249433,13.827396 8.5888527,13.709382 8.969122,13.827397 C 10.516427,14.6535 12.371881,15.597619 14.535485,16.659752 L 14.535485,16.67942 z M 5.290996,11.408094 C 3.940382,9.2182647 3.245406,7.9594407 3.206068,7.631622 C 2.6976076,6.2696503 3.1318402,4.8198441 3.461766,3.442097 C 3.2650753,3.927269 2.9831513,4.169855 2.615994,4.169855 C 2.2488373,4.169855 2.1439353,4.064953 2.301288,3.855149 C 2.4586413,3.645345 2.609438,3.4289847 2.753678,3.206068 C 2.5700993,3.206068 2.2553933,3.1339477 1.80956,2.989707 L 1.376839,2.989707 C 1.101471,2.989707 0.87855433,2.832354 0.708089,2.517648 L 0.413052,2.9307 L 0.098346,2.9307 C 0.032782,2.6291067 0,2.3799643 0,2.183273 C 0,1.278493 0.557292,0.81299033 1.671876,0.786765 L 2.576656,0.786765 C 2.8520233,0.786765 3.0454363,0.662194 3.156895,0.413052 C 3.2683537,0.16390933 3.4224287,0.026225333 3.61912,0 C 3.8289233,0 3.933825,0.124571 3.933825,0.373713 L 3.933825,0.786765 L 3.953495,0.786765 C 4.0190583,0.367157 4.1960803,0.157353 4.484561,0.157353 C 4.7730417,0.17046567 4.864831,0.439277 4.759929,0.963787 C 5.2582137,1.094915 5.4811303,1.684989 5.428679,2.734009 L 5.172981,4.622245 C 5.1336423,5.3827843 6.0449787,6.0121963 7.90699,6.510481 C 9.7690007,7.0087657 11.201569,8.005335 12.204694,9.500189 C 13.207819,10.995043 13.988028,12.670197 14.545321,14.525651 C 15.102612,16.381105 15.381258,17.354727 15.381258,17.446516 C 15.433709,17.721884 15.351754,17.862846 15.135394,17.869402 C 14.919033,17.875959 14.732176,17.807117 14.574823,17.662876 C 14.522372,17.925131 14.338794,17.925131 14.024088,17.662876 C 14.037201,17.794004 13.938855,17.859568 13.729052,17.859568 C 13.53236,17.859568 13.388119,17.787448 13.29633,17.643208 C 13.165203,17.957914 12.909504,17.957914 12.529235,17.643208 C 12.516122,17.787448 12.384994,17.859568 12.135852,17.859568 C 11.79492,17.859568 11.565447,17.721884 11.447433,17.446516 L 10.778682,15.420596 C 10.083706,15.079665 9.506745,14.764959 9.047799,14.476479 L 9.205152,15.145228 L 8.831438,17.131811 C 9.4083993,17.000684 9.6837673,17.128533 9.657542,17.515358 C 9.631316,17.902185 9.5526397,18.033312 9.421513,17.908741 C 9.290385,17.78417 9.067468,17.807117 8.752762,17.977583 L 3.540443,17.957914 C 3.435541,17.957914 3.3175263,17.879237 3.186399,17.721884 L 2.911031,17.957914 C 2.7536777,17.853011 2.675001,17.682545 2.675001,17.446516 C 2.675001,17.210487 2.9831507,17.099028 3.59945,17.112141 C 4.3862153,16.994127 5.0156277,17.00724 5.487687,17.15148 C 5.8286183,16.823661 6.0974297,16.122129 6.294121,15.046883 C 5.7958363,13.722495 5.4614613,12.509565 5.290996,11.408094 z "
     id="path2243"
     sodipodi:nodetypes="cssscccccccccccccccccscccscccscccssssssssssccsccsscccccccssscccccccccssccccccsccsscccscccsssssccsccscccccssccccscccc" />
</svg>
