<?xml version="1.0" encoding="UTF-8" standalone="no"?>
<svg
   xmlns:dc="http://purl.org/dc/elements/1.1/"
   xmlns:cc="http://web.resource.org/cc/"
   xmlns:rdf="http://www.w3.org/1999/02/22-rdf-syntax-ns#"
   xmlns:svg="http://www.w3.org/2000/svg"
   xmlns="http://www.w3.org/2000/svg"
   xmlns:sodipodi="http://sodipodi.sourceforge.net/DTD/sodipodi-0.dtd"
   xmlns:inkscape="http://www.inkscape.org/namespaces/inkscape"
   width="17.917706"
   height="17.981033"
   id="svg2"
   sodipodi:version="0.32"
   inkscape:version="0.45.1"
   sodipodi:docname="G29A.svg"
   sodipodi:docbase="/home/rosmord/Desktop/tmp"
   inkscape:output_extension="org.inkscape.output.svg.inkscape">
  <metadata
     id="metadata9">
    <rdf:RDF>
      <cc:Work
         rdf:about="">
        <dc:format>image/svg+xml</dc:format>
        <dc:type
           rdf:resource="http://purl.org/dc/dcmitype/StillImage" />
      </cc:Work>
    </rdf:RDF>
  </metadata>
  <defs
     id="defs7" />
  <sodipodi:namedview
     inkscape:window-height="572"
     inkscape:window-width="753"
     inkscape:pageshadow="2"
     inkscape:pageopacity="0.0"
     guidetolerance="10.0"
     gridtolerance="10.0"
     objecttolerance="10.0"
     borderopacity="1.0"
     bordercolor="#666666"
     pagecolor="#ffffff"
     id="base"
     inkscape:zoom="10.511076"
     inkscape:cx="3.5638475"
     inkscape:cy="12.57759"
     inkscape:window-x="0"
     inkscape:window-y="120"
     inkscape:current-layer="svg2" />
  <path
     id="path2178"
     style="fill:#000000;stroke:none"
     d="M 16.990721,11.71641 L 14.929732,11.495589 C 11.6665,11.348376 9.4429633,10.925138 8.259122,10.225873 C 7.07528,9.526609 6.2932083,8.950023 5.912907,8.496115 C 5.532605,8.042207 5.4191277,7.6772403 5.572475,7.401215 C 5.725823,7.1251897 6.1030577,6.931972 6.704179,6.821562 C 6.8881963,6.931972 6.980205,7.036248 6.980205,7.13439 C 6.980205,7.2448 6.8299243,7.4073483 6.529363,7.622035 C 6.2288023,7.8367217 6.3392123,8.174086 6.860593,8.634128 C 7.3819743,9.09417 8.222318,9.5695467 9.381624,10.060258 C 10.540931,10.55097 12.095873,10.784058 14.046452,10.759522 C 14.328611,10.636844 13.978978,10.22894 12.997555,9.53581 C 12.016132,8.84268 10.68201,7.8888593 8.995189,6.674348 C 7.3083677,5.4598373 5.9251743,5.2942223 4.845609,6.177503 C 4.3180943,6.3737877 4.103408,6.6068757 4.20155,6.876767 C 4.7536007,8.2630277 5.8822373,9.4315347 7.58746,10.382288 C 9.2926827,11.333041 10.605336,11.799217 11.52542,11.780816 C 12.445505,11.762414 13.282782,11.832954 14.037251,11.992435 C 14.79172,12.151916 15.469515,12.25926 16.070637,12.314465 C 16.671758,12.36967 16.978453,12.170318 16.990721,11.71641 z M 4.551182,1.282655 C 4.6002533,1.0863703 4.5205127,0.95755867 4.31196,0.89622 C 4.103408,0.82261267 3.9684623,0.89008533 3.907123,1.098638 C 3.8335163,1.3071907 3.9009893,1.4421363 4.109542,1.503475 C 4.330362,1.5770817 4.4775753,1.503475 4.551182,1.282655 z M 6.740983,10.685916 C 6.8636603,11.017146 7.22556,11.599866 7.826682,12.434075 L 7.679469,11.182761 C 7.4463803,11.096886 7.1335517,10.931271 6.740983,10.685916 z M 4.31196,2.809995 C 3.858052,2.6137103 3.4440143,2.635179 3.069847,2.874401 C 2.695679,3.1136223 2.0301513,3.588999 1.073264,4.300531 C -0.214854,5.110205 -0.343666,4.932322 0.686828,3.766882 C 1.4965027,2.9081367 2.2693737,2.1598017 3.005441,1.521877 C 3.3734743,0.65086367 3.8335163,0.14788433 4.385567,0.012939 C 5.2197763,-0.048400333 5.7227557,0.104947 5.894505,0.472981 C 6.3116103,1.1109057 6.323878,1.6997593 5.931308,2.239542 C 5.0602953,3.5031247 4.6063873,4.5765563 4.569584,5.459837 C 5.8086307,4.3925397 7.4555813,4.5918913 9.510436,6.057892 C 11.565291,7.5238927 13.129434,8.7108013 14.202866,9.618618 C 15.276297,10.526435 16.457072,11.047816 17.74519,11.182761 C 18.027349,11.428117 17.966009,12.004703 17.561172,12.912519 C 17.144068,13.157875 16.684026,13.206946 16.181047,13.059732 C 15.678068,12.912519 14.895996,12.734637 13.834832,12.526084 C 12.773668,12.317531 11.856651,12.225523 11.08378,12.250059 L 11.635831,13.354159 C 11.758508,13.562712 11.761575,14.185302 11.645032,15.221931 C 11.528488,16.258559 11.543822,16.893417 11.691035,17.126505 C 12.586584,17.273718 12.97302,17.555877 12.850342,17.972982 C 12.739932,17.776698 12.589652,17.721493 12.399501,17.807367 C 12.20935,17.893241 11.991596,17.893241 11.746241,17.807367 C 11.52542,17.807367 11.267797,17.850304 10.97337,17.936178 C 10.678943,18.022053 10.004215,17.98525 8.949184,17.825769 L 8.360331,17.972982 C 8.360331,17.519074 8.5075443,17.29212 8.801971,17.29212 C 9.0963977,17.365727 9.3846907,17.402531 9.66685,17.402531 C 10.623737,17.488405 11.108315,16.93022 11.120584,15.727977 C 11.132851,14.525734 11.028575,13.777398 10.807755,13.482971 C 10.550131,13.139474 10.114624,12.710101 9.501235,12.194854 C 8.8878457,11.679607 8.4830087,11.421983 8.286724,11.421983 C 8.2131173,11.421983 8.1487117,11.50479 8.093507,11.670405 C 8.0383017,11.83602 8.133377,12.342067 8.378733,13.188544 C 8.3910003,13.507507 8.1579123,14.077959 7.679469,14.899901 C 7.201025,15.721843 6.900464,16.45791 6.777786,17.108103 C 7.4034433,17.108103 7.777611,17.230781 7.900289,17.476137 C 7.900289,17.598815 7.8512177,17.709225 7.753075,17.807367 C 7.630397,17.672421 7.4218447,17.611082 7.127418,17.62335 L 4.992823,17.972982 L 4.219952,17.733761 C 3.9132573,17.880974 3.6771023,17.923911 3.511487,17.862572 C 3.3458717,17.801233 3.1771897,17.838036 3.005441,17.972982 C 2.9441017,17.555877 3.220127,17.292119 3.833517,17.181709 L 5.103233,17.347324 C 5.9865137,16.991559 6.7961877,15.703442 7.532255,13.482971 L 5.894505,10.373087 C 4.949885,9.6002157 4.2812903,8.8457467 3.888721,8.10968 C 3.3752601,7.3501441 3.2215742,6.5581301 3.189458,5.680657 C 3.1661615,5.0441524 3.6004287,4.085845 4.31196,2.809995 z "
     sodipodi:nodetypes="ccssscsssscssccssssccsssccccccscccccccssccssccsccscsccccssssscsccccccsccccccsc" />
</svg>
