<?xml version="1.0" encoding="UTF-8" standalone="no"?>
<svg
   width="1868.2115"
   height="1799.8516"
   version="1.1"
   id="svg2"
   sodipodi:docname="G31F.svg"
   inkscape:version="1.4 (e7c3feb1, 2024-10-09)"
   xmlns:inkscape="http://www.inkscape.org/namespaces/inkscape"
   xmlns:sodipodi="http://sodipodi.sourceforge.net/DTD/sodipodi-0.dtd"
   xmlns="http://www.w3.org/2000/svg"
   xmlns:svg="http://www.w3.org/2000/svg">
  <defs
     id="defs2" />
  <sodipodi:namedview
     id="namedview2"
     pagecolor="#ffffff"
     bordercolor="#000000"
     borderopacity="0.25"
     inkscape:showpageshadow="2"
     inkscape:pageopacity="0.0"
     inkscape:pagecheckerboard="0"
     inkscape:deskcolor="#d1d1d1"
     inkscape:zoom="0.22714803"
     inkscape:cx="13.207247"
     inkscape:cy="6.6036233"
     inkscape:window-width="2272"
     inkscape:window-height="1186"
     inkscape:window-x="1603"
     inkscape:window-y="25"
     inkscape:window-maximized="0"
     inkscape:current-layer="svg2" />
  <path
     id="path5"
     style="baseline-shift:baseline;display:inline;overflow:visible;vector-effect:none;enable-background:accumulate;stop-color:#000000;stop-opacity:1"
     d="m 463.9668,0 c -21.60126,0 -43.767,2.4478181 -66.49805,7.34375 L 276.66797,44.363281 C 207.8255,63.847023 122.09873,76.835545 19.484375,83.330078 6.495237,84.629024 0,91.77258 0,104.76172 c 0,11.80834 5.3666923,17.71289 16.101562,17.71289 1.073464,0 2.202007,-0.0578 3.382813,-0.17578 39.524331,-0.835 75.648206,-1.25391 108.373045,-1.25391 119.99038,0 194.27355,5.6135 222.84961,16.83985 38.62862,27.44665 77.85376,41.16992 117.67578,41.16992 11.06164,0 22.1705,-1.05796 33.32422,-3.17578 17.10245,-3.24732 31.38952,-4.8711 42.86328,-4.8711 22.94744,0 34.63735,6.49328 35.07031,19.48242 0.64928,19.48374 -43.18955,43.19049 -131.51562,71.11719 -88.32627,27.92662 -139.63184,65.27029 -153.91992,112.03125 -14.28809,46.76098 -14.28809,103.26311 0,169.50781 14.28808,64.94575 94.16989,203.92902 239.64844,416.95118 l 146.1289,340.96684 c -64.94574,242.897 -135.08676,383.1789 -210.42383,420.8476 L 358.5,1712.1699 c -53.2555,6.4949 -77.28549,32.4737 -72.08984,77.9356 9.82306,-9.8232 19.79964,-14.7344 29.92968,-14.7344 4.60454,0 9.24223,1.015 13.91016,3.0449 4.39343,1.9105 9.32045,2.8653 14.78125,2.8652 13.10603,0 29.28649,-5.5013 48.54102,-16.5039 l 64.29492,25.3282 c 95.74842,-16.7004 157.38061,-25.0508 184.89648,-25.0508 4.58608,0 8.2254,0.2345 10.91602,0.7012 18.83424,3.2471 34.09684,14.6118 45.78711,34.0957 10.3913,-7.7935 14.28728,-16.2357 11.68945,-25.3282 37.27899,12.7294 66.28297,19.0938 87.01367,19.0938 8.8845,0 16.25064,-1.17 22.0957,-3.5078 17.3189,-6.9276 33.19452,-10.3908 47.62696,-10.3906 7.21616,0 14.07178,0.8658 20.5664,2.5976 15.43858,4.7503 29.11179,7.125 41.02149,7.125 14.14277,0 25.79823,-3.3481 34.96484,-10.0469 5.83337,-4.263 11.20032,-6.3945 16.10352,-6.3945 9.2904,0 16.91197,7.6515 22.86327,22.9551 10.1105,-45.4972 -27.12086,-68.2461 -111.69335,-68.2461 -2.34933,0 -4.73574,0.018 -7.1582,0.053 -5.1957,-59.7502 -4.54543,-134.1142 1.94922,-223.0898 6.49458,-88.9757 9.74218,-153.5968 9.74218,-193.8633 1.85565,-41.7509 16.30321,-62.625 43.3418,-62.625 10.81549,0 23.64553,3.3394 38.49023,10.0195 93.52202,89.6252 164.96152,151.9741 214.32032,187.0449 35.891,15.3818 70.3663,23.0723 103.4238,23.0723 8.8154,0 17.5287,-0.5467 26.1426,-1.6406 40.9159,-5.1955 76.3126,-22.0819 106.1875,-50.6582 l -165.6113,-122.7481 1.9472,-1.9492 c 64.9458,41.5653 103.2629,64.2966 114.9532,68.1934 4.9269,1.1199 9.2564,1.6797 12.9863,1.6797 17.9038,0 22.0185,-12.8981 12.3437,-38.6973 -42.8642,-59.7499 -101.9656,-118.8516 -177.3027,-177.3027 -75.3369,-58.4542 -134.4366,-119.5036 -177.3008,-183.15042 -33.0186,-60.29485 -64.91737,-115.43382 -95.73239,-165.5918 l 489.89449,-636.30078 80.8965,896.4629 c 4.1135,43.3803 18.6252,68.2017 43.5352,74.4609 7.6994,1.9347 16.3937,2.0944 26.0801,0.4824 40.431,-6.4713 56.4643,-32.1752 48.1015,-77.1132 8.3182,31.815 23.2144,50.4202 44.6895,55.8164 8.3806,2.1058 17.7623,2.2005 28.1465,0.2832 36.9937,-6.8312 50.4213,-32.1835 40.2793,-76.0567 8.318,31.815 23.2143,50.4203 44.6894,55.8164 8.3805,2.1058 17.7623,2.2005 28.1465,0.2832 36.9938,-6.8311 47.8775,-38.1139 32.6523,-93.84761 L 1552.2246,49.683594 c -17.2682,-13.810166 -33.6416,-22.660222 -49.1172,-26.548828 -8.0713,-2.028111 -15.8988,-2.707825 -23.4824,-2.03711 -22.7509,2.012146 -43.306,16.169129 -61.668,42.470703 L 909.43359,725.83203 C 873.23613,670.87353 838.58093,623.01014 805.65234,583.08789 732.2636,494.11214 650.75601,442.80457 561.13086,429.16602 471.50571,415.52742 427.34368,401.56543 428.64258,387.27734 c 0,-11.69028 45.46066,-33.12296 136.38476,-64.29687 90.92407,-31.174 136.38672,-74.6877 136.38672,-130.54102 64.94578,31.17393 182.49839,65.59515 352.65624,103.26367 l 29.2246,-66.24414 C 886.63587,198.73094 766.54741,168.59223 721.08789,139.02734 763.66404,161.98672 883.70994,175.90001 1081.3477,180.75 l 42.8632,-70.14258 c -58.9408,5.4512 -113.8162,8.17774 -164.62496,8.17774 -142.9,0 -253.63521,-21.559927 -332.20899,-64.679691 C 577.06896,18.035573 522.59854,0 463.9668,0 Z M 448.75,41.765625 h 0.002 c 44.90004,3.14e-4 85.28255,10.606954 121.14649,31.822266 46.1115,27.277219 36.69379,47.086129 -28.25196,59.425779 -23.2825,4.4237 -43.97637,6.63672 -62.08398,6.63672 -32.40299,0 -56.52145,-7.08449 -72.35352,-21.25 C 364.90147,98.359964 329.2754,88.339844 300.32812,88.339844 c -4.82458,0 -9.46453,0.279252 -13.91796,0.835937 V 77.484375 L 409.1582,44.363281 c 13.56577,-1.731799 26.76362,-2.597571 39.5918,-2.597656 z m 0.006,15.001953 c -10.63812,0 -23.83746,3.659331 -39.59766,10.976563 l -1.94726,11.689453 c 3.37011,17.97421 14.02685,26.960936 31.9707,26.960936 2.80369,0 5.78383,-0.21957 8.94336,-0.6582 C 471.50559,102.48901 481.2484,92.423002 477.3517,75.537109 472.1992,63.024223 462.66741,56.767578 448.756,56.767578 Z m 1055.2264,44.310542 c 1.5666,-0.12614 3.1657,0.0139 4.7969,0.42383 4.5451,1.14207 9.34,4.3659 14.3867,9.66993 l 110.918,328.73632 -128.2324,22.96094 -30.0235,-319.74805 c 7.8025,-27.14686 17.1882,-41.16006 28.1543,-42.04297 z M 370.31055,481.23828 c 4.38195,0 9.21266,0.50217 14.49218,1.50781 40.91583,7.79351 95.79613,12.33982 164.63868,13.63868 68.84244,1.29896 103.91393,9.74309 105.21289,25.33007 -15.11468,0.94465 -29.54261,1.41602 -43.28321,1.41602 -24.046,0 -45.9882,-1.44683 -65.82617,-4.33984 -4.11731,-0.60062 -8.02016,-0.90039 -11.70703,-0.9004 -24.22759,0 -39.16005,12.96522 -44.79687,38.89454 -20.7826,62.34792 29.22625,157.16911 150.02539,284.46289 120.79909,127.29362 240.94898,223.41355 360.44921,288.35935 24.67938,18.1848 38.31818,40.2658 40.91598,66.2442 -6.0615,0.1266 -11.9286,0.1894 -17.6015,0.1894 -53.89178,0 -90.23964,-5.5816 -109.04299,-16.7461 -2.13442,-1.2672 -4.25431,-1.9004 -6.36133,-1.9004 -18.40883,0 -35.77262,48.3679 -52.08984,145.1055 C 848.8414,1213.3882 801.75495,1122.4619 714.07812,1049.7227 626.40139,976.98342 545.86924,888.65738 472.48047,784.74414 399.09176,680.83092 355.9032,602.57096 342.91406,549.96484 c -11.31312,-45.81816 -2.18185,-68.72656 27.39649,-68.72656 z m 1277.41215,3.67383 180.2148,519.25779 c 7.4388,24.5475 4.0432,39.0652 -10.1875,43.5528 -3.0238,0.8599 -5.9008,0.9471 -8.6289,0.2617 -10.0031,-2.5136 -18.0167,-15.4165 -24.043,-38.709 L 1619.4434,489.14453 Z m -50.5098,8.47461 127.75,526.48628 c 4.9447,28.4564 -1.8312,44.3911 -20.3281,47.8067 -3.938,0.6302 -7.565,0.5286 -10.8809,-0.3047 -12.1579,-3.0549 -20.1322,-15.9468 -23.9238,-38.6777 L 1568.9355,497.61914 Z m -55.1348,8.82422 69.9492,536.90816 c 5.1756,33.5541 -1.7812,52.2159 -20.8711,55.9864 -3.9593,0.7391 -7.5578,0.7006 -10.7968,-0.1133 -12.7653,-3.2075 -19.9352,-18.4733 -21.5098,-45.8008 L 1511.668,505.9082 Z M 687.77539,547.04297 C 742.32985,565.22776 818.31767,655.50273 915.73633,817.86719 1013.155,980.23153 1069.0069,1066.6086 1083.2949,1077 c -12.7293,12.7293 -25.4581,19.0938 -38.1875,19.0938 -5.4555,0 -10.9118,-1.1681 -16.3672,-3.5059 -20.7826,-7.7937 -80.53242,-46.761 -179.24997,-116.90235 C 750.77266,905.54411 670.56569,828.90797 608.86719,745.77734 547.16871,662.64681 520.86457,606.1446 529.95703,576.26953 c 3.11737,-10.39131 18.70504,-15.58789 46.76172,-15.58789 7.01411,0 14.80811,0.32533 23.38086,0.97461 8.57287,0.64927 16.60022,0.97266 24.08203,0.97266 29.92696,0 51.1242,-5.19463 63.59375,-15.58594 z m -83.7793,469.55863 c 46.76096,50.6577 83.13103,94.1714 109.10938,130.541 5.19563,36.3696 5.844,78.5847 1.94726,126.6445 -27.27721,-87.0273 -64.29565,-172.7561 -111.05664,-257.1855 z m 504.62891,79.8828 27.2773,25.3281 c -10.3913,12.9891 -24.0301,20.1347 -40.916,21.4336 l -42.8652,-21.4336 c 3.0564,0.3066 6.0146,0.4609 8.873,0.4609 21.4388,0 37.316,-8.5955 47.6309,-25.7871 z m 48.709,50.6582 31.1738,21.4316 c 0,13.7197 -6.8603,20.5801 -20.5801,20.5801 -3.1664,0 -6.6972,-0.3651 -10.5937,-1.0957 l -31.1738,-25.3301 c 18.1848,0 28.576,-5.1945 31.1738,-15.5859 z m -395.51955,29.2246 c 48.05989,89.6251 71.76472,207.1776 71.11524,352.6562 -0.61129,136.9209 -37.17963,205.3809 -109.70313,205.3809 -4.53268,0 -9.20588,-0.2655 -14.01953,-0.7988 -17.81383,-13.3603 -48.0322,-20.041 -90.6582,-20.041 -7.10408,0 -14.55444,0.1872 -22.34766,0.5605 22.08156,-83.1306 55.20405,-169.5096 99.36719,-259.1348 44.16314,-89.625 66.24609,-151.9721 66.24609,-187.0429 z m 457.86715,17.5351 c 16.886,10.3914 27.9274,19.4838 33.1231,27.2774 -7.7935,5.1955 -17.5364,9.0935 -29.2266,11.6914 l -31.1738,-25.3301 c 11.6902,-2.5978 20.7828,-7.144 27.2773,-13.6387 z m -130.541,13.6387 268.875,204.5801 c -14.9374,9.0925 -32.147,13.6387 -51.6308,13.6387 -19.4838,0 -41.2416,-4.5462 -65.2715,-13.6387 -31.174,-7.7934 -97.419,-65.5963 -198.7344,-173.4063 l 60.4004,17.5372 z m 194.8379,35.0723 25.3281,17.5351 c -2.5978,7.7936 -10.3917,11.6895 -23.3808,11.6895 l -29.2246,-19.4844 z m 52.6055,40.914 27.2773,37.0196 -46.7617,-31.1739 z" />
</svg>
