<?xml version="1.0" encoding="UTF-8" standalone="no"?>
<svg
   width="24.15"
   height="17.78"
   version="1.1"
   id="svg1"
   sodipodi:docname="G1001.svg"
   inkscape:version="1.4 (e7c3feb1, 2024-10-09)"
   xmlns:inkscape="http://www.inkscape.org/namespaces/inkscape"
   xmlns:sodipodi="http://sodipodi.sourceforge.net/DTD/sodipodi-0.dtd"
   xmlns="http://www.w3.org/2000/svg"
   xmlns:svg="http://www.w3.org/2000/svg"
   xmlns:rdf="http://www.w3.org/1999/02/22-rdf-syntax-ns#"
   xmlns:cc="http://creativecommons.org/ns#"
   xmlns:dc="http://purl.org/dc/elements/1.1/">
  <title
     id="title1">US6450G39VARB</title>
  <defs
     id="defs1" />
  <sodipodi:namedview
     id="namedview1"
     pagecolor="#ffffff"
     bordercolor="#000000"
     borderopacity="0.25"
     inkscape:showpageshadow="2"
     inkscape:pageopacity="0.0"
     inkscape:pagecheckerboard="0"
     inkscape:deskcolor="#d1d1d1"
     inkscape:zoom="1.4623172"
     inkscape:cx="12.309231"
     inkscape:cy="9.2319231"
     inkscape:window-width="1120"
     inkscape:window-height="550"
     inkscape:window-x="0"
     inkscape:window-y="563"
     inkscape:window-maximized="0"
     inkscape:current-layer="svg1" />
  <path
     style="fill:#000000; stroke:none"
     d=" M 3.76 0  C 3.26 0 2.58 0.09 1.94 0.41  C 1.12 0.81 0.4 1.56 0.14 2.8  L 0 3.47  L 1.33 3.75  L 1.47 3.08  C 1.65 2.25 2.1 1.85 2.54 1.63  C 2.99 1.41 3.46 1.36 3.76 1.36  C 3.81 1.36 3.86 1.36 3.9 1.37  C 4.51 1.4 4.97 1.81 5.28 2.26  C 5.62 2.74 5.8 3.3 5.77 3.57  C 5.76 3.73 5.8 3.91 5.89 4.08  C 5.93 4.16 5.99 4.25 6.07 4.35  C 6.19 4.52 6.38 4.72 6.61 4.96  C 7.04 5.41 7.67 6 8.43 6.68  C 9.94 8.02 12 9.71 14.17 11.33  C 15.59 12.39 17.02 13.41 18.29 14.3  L 18.29 14.3  C 15.71 14.6 11.25 15.09 9.81 15.1  C 7.47 15.11 1.23 15.2 1.23 15.2  L 0.55 15.21  L 0.57 16.57  L 1.25 16.56  L 1.25 16.56  C 1.25 16.56 1.25 16.56 1.25 16.56  C 1.25 16.56 7.48 16.48 9.82 16.46  C 11.67 16.45 18.34 15.67 19.98 15.47  L 19.98 15.47  C 21.68 16.64 22.83 17.4 22.83 17.41  L 23.4 17.78  L 24.15 16.64  L 23.58 16.27  L 23.58 16.27  C 23.58 16.27 23.58 16.27 23.58 16.27  L 23.58 16.27  C 23.58 16.27 22.75 15.72 21.46 14.83  L 21.46 14.83  C 21.67 14.68 21.91 14.51 22.13 14.34  C 22.73 13.9 23.28 13.47 23.28 13.46  L 23.82 13.04  L 22.97 11.97  L 22.44 12.4  C 22.44 12.39 22.44 12.39 22.44 12.39  L 22.44 12.39  C 22.44 12.4 21.9 12.82 21.32 13.25  C 21.03 13.46 20.73 13.68 20.48 13.85  C 20.39 13.91 20.31 13.96 20.25 14  L 20.25 14  C 18.73 12.95 16.86 11.63 14.99 10.23  C 12.85 8.64 10.82 6.97 9.33 5.66  C 8.6 5 8 4.44 7.59 4.01  C 7.39 3.81 7.25 3.65 7.15 3.52  C 7.15 3.52 7.14 3.51 7.14 3.5  L 7.14 3.5  C 7.13 2.92 6.87 2.15 6.4 1.48  C 5.84 0.69 5 0.06 3.97 0.01  C 3.9 0 3.84 0 3.76 0  Z "
     id="path1" />
  <metadata
     id="metadata1">
    <rdf:RDF>
      <cc:Work
         rdf:about="">
        <dc:creator>
          <cc:Agent>
            <dc:title>J.A. Roberson</dc:title>
          </cc:Agent>
        </dc:creator>
        <dc:title>US6450G39VARB</dc:title>
      </cc:Work>
    </rdf:RDF>
  </metadata>
</svg>
