<?xml version="1.0" encoding="UTF-8" standalone="no"?>
<!-- Created with Inkscape (http://www.inkscape.org/) -->
<svg
   xmlns:dc="http://purl.org/dc/elements/1.1/"
   xmlns:cc="http://web.resource.org/cc/"
   xmlns:rdf="http://www.w3.org/1999/02/22-rdf-syntax-ns#"
   xmlns:svg="http://www.w3.org/2000/svg"
   xmlns="http://www.w3.org/2000/svg"
   xmlns:sodipodi="http://sodipodi.sourceforge.net/DTD/sodipodi-0.dtd"
   xmlns:inkscape="http://www.inkscape.org/namespaces/inkscape"
   width="1800"
   height="1800"
   id="svg2337"
   sodipodi:version="0.32"
   inkscape:version="0.44"
   version="1.0"
   sodipodi:docbase="/home/rosmord/Travail/Gsigns/Distribution"
   sodipodi:docname="G3A.svg">
  <defs
     id="defs2339" />
  <sodipodi:namedview
     id="base"
     pagecolor="#ffffff"
     bordercolor="#666666"
     borderopacity="1.0"
     inkscape:pageopacity="0.0"
     inkscape:pageshadow="2"
     inkscape:zoom="0.23277778"
     inkscape:cx="900"
     inkscape:cy="900"
     inkscape:document-units="px"
     inkscape:current-layer="layer2"
     height="1800px"
     width="1800px"
     inkscape:window-width="1010"
     inkscape:window-height="624"
     inkscape:window-x="209"
     inkscape:window-y="295" />
  <metadata
     id="metadata2342">
    <rdf:RDF>
      <cc:Work
         rdf:about="">
        <dc:format>image/svg+xml</dc:format>
        <dc:type
           rdf:resource="http://purl.org/dc/dcmitype/StillImage" />
        <dc:creator>
          <cc:Agent>
            <dc:title>S. Rosmorduc</dc:title>
          </cc:Agent>
        </dc:creator>
        <dc:description>U2 sign from Karnak Hypostyle hall
</dc:description>
        <dc:title>U2</dc:title>
      </cc:Work>
    </rdf:RDF>
  </metadata>
  <g
     inkscape:groupmode="layer"
     id="layer2"
     inkscape:label="dessin">
    <path
       style="opacity:1;fill:black;fill-opacity:1;fill-rule:evenodd;stroke:none;stroke-width:70;stroke-linecap:butt;stroke-linejoin:miter;stroke-miterlimit:4;stroke-dasharray:none;stroke-opacity:1"
       d="M 839.21414,8.4577191 C 775.11555,8.9912578 709.60019,20.482387 647.40164,26.332719 C 571.4624,63.85607 494.5436,35.259928 414.90164,64.551469 C 357.36007,90.664839 341.2444,143.66422 317.43289,196.64522 C 459.5595,148.78252 548.03806,219.97841 676.87039,253.08272 C 676.70111,302.90217 668.98221,359.43645 665.30789,416.39522 C 650.09926,570.76648 730.46195,706.23891 846.65164,802.70772 C 887.40634,894.56414 935.82558,975.93812 984.49539,1052.2702 C 959.18481,1046.7981 933.87862,1041.1048 908.58914,1035.0827 C 741.71987,979.67637 560.38489,922.57278 425.15164,820.39522 C 449.44478,760.31181 529.09129,717.28757 566.27664,658.77022 C 575.59122,638.01522 574.4999,614.02179 561.49539,594.52022 C 511.62954,495.37403 484.89434,389.27236 482.68289,281.92647 C 481.15437,282.19963 479.64907,282.4658 478.12039,282.73897 C 377.93561,299.09412 277.63837,315.09195 177.43289,331.36397 C 237.04413,420.18781 289.30174,514.65402 307.55789,616.11397 C 248.46928,685.53098 108.88256,730.11268 26.839144,793.80147 C 7.2739235,812.43866 1.1408835,843.51765 21.370394,863.70772 C 321.62183,1062.7196 708.75437,1164.0393 1094.1516,1222.3639 C 1106.2449,1241.7929 1117.9425,1261.1443 1129.0891,1280.5515 C 1119.067,1346.282 1058.6145,1594.4138 1028.8079,1683.4889 C 946.88554,1697.4199 857.17606,1702.8997 773.49539,1696.2077 C 724.74325,1689.2736 670.68268,1775.8255 617.71414,1821.1765 L 1653.3704,1829.3639 C 1625.4432,1729.4067 1421.2781,1679.0993 1367.4954,1685.2077 C 1390.5797,1618.381 1419.3594,1555.6054 1427.5579,1462.2702 C 1456.4629,1488.4465 1488.8766,1516.766 1529.3391,1519.7077 C 1578.8086,1515.9404 1598.88,1481.7389 1605.1517,1437.1139 C 1717.2104,1624.7142 1842.5291,1777.8987 2072.4017,1800.4265 C 2151.8343,1796.4941 2250.8228,1761.3367 2272.2454,1675.8952 C 2377.6095,1669.8898 2300.3437,1565.9813 2261.2454,1525.2702 C 2186.8098,1443.7243 2115.7804,1359.1699 2046.4017,1273.1452 C 2217.7434,1264.8217 2388.6293,1248.6559 2556.0891,1224.3952 C 2581.783,1218.7556 2611.3141,1210.8548 2623.7141,1189.6139 C 2634.0006,1144.1084 2573.8212,1137.0584 2522.6517,1137.0515 C 2502.6287,1137.0487 2483.9941,1138.1209 2471.4954,1138.3952 C 2296.1087,1146.9378 2122.025,1151.9184 1948.9641,1150.3327 C 1789.1381,940.90855 1627.008,735.34978 1454.5579,536.11397 C 1345.4478,427.16818 1222.2532,353.47919 1069.6829,292.36397 C 1058.3253,264.12905 1054.6,223.96434 1047.2141,179.77022 C 1039.1548,131.55939 1013.7392,52.641942 967.27664,28.082719 C 926.26593,12.85004 883.07107,8.0926663 839.21414,8.4577191 z M 814.68289,73.926469 C 826.01957,127.41789 805.14901,189.15524 765.05789,207.36397 L 777.87039,235.05147 C 827.95375,210.96193 876.08151,138.83016 883.24539,74.082719 C 951.62687,78.192635 970.32741,130.32164 981.02664,190.80147 C 993.84691,232.13195 980.84207,332.44059 1032.5891,349.77022 C 1185.4251,409.67041 1302.2589,478.94189 1407.1204,583.64522 C 1588.0709,812.69204 1777.1745,1034.5371 1958.1204,1263.8327 C 2028.4323,1353.0507 2092.7282,1434.7906 2144.9329,1496.4577 C 1870.1338,1288.5442 1563.1009,1129.5179 1261.8704,964.27022 C 1101.7689,876.22509 948.99539,804.21738 948.99539,610.36397 C 948.99537,506.12396 1138.7961,418.77311 1130.9641,405.20772 C 1122.6505,390.80817 886.24539,464.29186 886.24539,636.17647 C 886.24537,679.88833 897.80386,720.46053 917.90164,758.27022 C 917.5997,758.24842 917.30056,758.22603 916.99539,758.20772 C 698.25374,640.8944 732.98386,403.57668 741.46414,194.36397 C 650.5701,189.27156 575.68961,139.05948 489.37039,118.17647 C 556.32586,109.40924 623.06712,98.097747 690.18289,91.082719 C 677.58964,93.636265 666.0721,101.04564 658.40164,111.39522 C 656.24149,155.48357 755.64896,150.79319 751.12039,117.95772 C 740.08955,100.57014 719.71833,89.45777 699.12039,90.113969 C 732.49802,85.271615 776.9603,78.086249 814.68289,73.926469 z M 403.33914,357.77022 L 403.46414,358.83272 L 403.46414,358.95772 C 412.39823,452.80149 441.93589,545.23176 488.83914,630.61397 C 448.14742,699.71116 289.07725,783.28345 355.55789,862.20772 C 481.24752,963.0857 648.60208,1020.5618 807.90164,1074.4265 C 876.48354,1096.4247 946.78924,1114.7498 1016.5266,1133.4889 C 793.80866,1121.0587 480.50054,1005.6988 252.74539,914.83272 C 199.44092,891.18077 146.6975,865.77422 99.557894,834.30147 C 162.97778,735.57848 342.11892,735.91774 396.08914,636.08272 C 382.30437,545.08659 348.97904,456.36689 299.43289,374.55147 C 334.04832,368.84634 368.73825,363.53681 403.33914,357.77022 z M 946.21414,853.95772 C 1082.1064,1008.5171 1194.6218,1184.8805 1294.9017,1364.0202 C 1315.9701,1390.3279 1292.262,1414.4085 1274.8704,1439.3952 C 1208.7996,1227.029 1056.7239,1063.1685 946.21414,853.95772 z M 1112.9954,956.02022 C 1424.9078,1124.2005 1733.7604,1293.9663 2028.7454,1491.3327 C 2098.2255,1548.3322 2160.128,1611.8596 2202.0579,1671.2389 C 2174.2524,1714.9735 2121.3317,1729.9908 2072.4017,1733.3015 C 1822.7117,1724.4895 1724.9768,1480.8439 1593.0891,1306.7702 L 1521.3391,1218.5827 L 1533.7141,1331.5827 C 1534.6396,1353.6657 1558.8078,1465.1725 1515.4641,1446.0202 L 1389.2767,1293.1139 C 1375.7797,1302.118 1363.0748,1312.3489 1349.1517,1320.7077 C 1286.5542,1192.4914 1194.9326,1073.1294 1112.9954,956.02022 z M 1196.7454,1419.7077 C 1216.3367,1467.9049 1226.5007,1518.9515 1237.5891,1569.5515 C 1269.4513,1543.4391 1300.3471,1516.6167 1326.4954,1484.6765 C 1309.4614,1578.3951 1277.6757,1672.8952 1200.5891,1672.8952 C 1153.9325,1672.8953 1132.3202,1640.9893 1162.2454,1544.2389 C 1176.3409,1498.667 1187.5637,1455.0783 1196.7454,1419.7077 z "
       id="path2356"
       sodipodi:nodetypes="ccccccccccccccccccccccccccccccccccscccccccccccccccccssscccccccccccccccccccccccccccccccccccccccssc" />
  </g>
</svg>
