<?xml version="1.0" encoding="UTF-8" standalone="no"?>
<svg
   xmlns:dc="http://purl.org/dc/elements/1.1/"
   xmlns:cc="http://web.resource.org/cc/"
   xmlns:rdf="http://www.w3.org/1999/02/22-rdf-syntax-ns#"
   xmlns:svg="http://www.w3.org/2000/svg"
   xmlns="http://www.w3.org/2000/svg"
   xmlns:sodipodi="http://sodipodi.sourceforge.net/DTD/sodipodi-0.dtd"
   xmlns:inkscape="http://www.inkscape.org/namespaces/inkscape"
   width="17.253677"
   height="17.976807"
   id="svg2"
   sodipodi:version="0.32"
   inkscape:version="0.45.1"
   sodipodi:docname="G47A.svg"
   sodipodi:docbase="/home/rosmord/Desktop/tmp"
   inkscape:output_extension="org.inkscape.output.svg.inkscape">
  <metadata
     id="metadata9">
    <rdf:RDF>
      <cc:Work
         rdf:about="">
        <dc:format>image/svg+xml</dc:format>
        <dc:type
           rdf:resource="http://purl.org/dc/dcmitype/StillImage" />
      </cc:Work>
    </rdf:RDF>
  </metadata>
  <defs
     id="defs7" />
  <sodipodi:namedview
     inkscape:window-height="572"
     inkscape:window-width="753"
     inkscape:pageshadow="2"
     inkscape:pageopacity="0.0"
     guidetolerance="10.0"
     gridtolerance="10.0"
     objecttolerance="10.0"
     borderopacity="1.0"
     bordercolor="#666666"
     pagecolor="#ffffff"
     id="base"
     inkscape:zoom="21.027094"
     inkscape:cx="8.6268387"
     inkscape:cy="8.9884033"
     inkscape:window-x="0"
     inkscape:window-y="120"
     inkscape:current-layer="svg2" />
  <path
     style="fill:#000000; stroke:none"
     d="M 3.731987,0.885389 C 3.695929,1.0296203 3.725977,1.101736 3.822131,1.101736 C 3.930305,1.101736 3.981387,1.0566637 3.975377,0.966519 C 3.9693677,0.87637433 3.8882377,0.849331 3.731987,0.885389 z M 2.50602,1.444286 C 2.1935187,1.5164013 1.688709,1.654623 0.991591,1.858951 C 0.64303167,1.9070283 0.420675,2.0152017 0.324521,2.183471 C 2.2115477,2.1714517 2.938714,1.9250567 2.50602,1.444286 z M 0.360578,2.381789 L 2.50602,2.417847 L 2.50602,2.183471 L 0.360578,2.381789 z M 3.407466,0.921447 C 3.4315047,0.66904233 3.5997747,0.56086867 3.912276,0.596926 C 4.212758,0.65702267 4.34497,0.80726367 4.308912,1.047649 C 4.2848733,1.348131 4.0985747,1.4623143 3.750016,1.390199 C 3.4735727,1.390199 3.3593893,1.2339483 3.407466,0.921447 z M 2.740396,2.273616 C 3.2331867,2.4659247 3.7319867,2.477944 4.236796,2.309674 C 4.741606,2.141404 5.0360787,2.243568 5.120214,2.616166 C 5.2043487,2.9887633 5.129228,3.475544 4.894852,4.076508 C 4.660476,4.677472 4.2698493,5.1702627 3.722972,5.55488 C 3.1760947,5.9394967 2.8605887,6.534451 2.776454,7.339743 L 2.794483,7.357772 C 3.960353,10.999614 6.250026,13.90227 9.663502,16.065741 C 9.7836947,16.25805 9.8197523,16.462377 9.771675,16.678724 C 9.7235983,16.895071 9.8047287,16.943148 10.015066,16.822956 C 10.225403,16.702763 10.237423,16.465382 10.051124,16.110813 C 9.8648247,15.756244 9.8317713,15.338574 9.951964,14.857803 C 10.072157,14.377032 10.129249,14.40708 10.12324,14.947948 C 10.11723,15.488816 10.468794,15.75925 11.177932,15.75925 C 12.343802,15.891461 13.179142,15.786292 13.683951,15.443743 C 14.188761,15.101194 14.62446,14.981001 14.991048,15.083165 C 15.357637,15.185328 15.769297,15.128237 16.226028,14.91189 C 15.841412,14.779678 14.408113,14.389051 11.926131,13.74001 C 9.4441497,13.090969 7.4489493,12.138441 5.94053,10.882426 C 4.43211,9.6264113 3.6779,8.715951 3.6779,8.151045 C 3.6779,7.4539263 4.0384783,7.105367 4.759635,7.105367 C 5.5168497,7.105367 5.7151677,7.1594537 5.354589,7.267627 C 4.994011,7.375801 4.714563,7.47496 4.516245,7.565104 C 4.317927,7.6552487 4.2217727,7.8896247 4.227782,8.268232 C 4.2337913,8.6468393 4.9369193,9.4010493 6.337166,10.530862 C 7.737412,11.660674 10.402688,12.826544 14.332993,14.028473 C 10.138264,9.809705 7.6442627,7.5590947 6.85099,7.276642 C 6.0577173,6.9941887 5.5769463,6.7147403 5.408677,6.438297 C 5.2404063,6.1618537 5.1743,5.822309 5.210358,5.419663 C 5.246416,5.017017 5.4086763,4.265812 5.697139,3.166048 C 5.9856017,2.0662833 6.0186547,1.3481313 5.796298,1.011592 C 5.5739413,0.675052 5.1923293,0.45870467 4.651462,0.36255 C 4.1706907,0.266396 3.7710493,0.34452133 3.452538,0.596926 C 3.1340273,0.84933133 2.908666,1.0656787 2.776454,1.245968 C 3.0168393,1.4262567 3.070926,1.5945263 2.938714,1.750777 C 2.806502,1.9070277 2.740396,2.0813073 2.740396,2.273616 z M 5.354589,15.975596 C 6.268055,16.612618 6.8029133,17.111418 6.959164,17.471996 C 6.9110867,17.700363 6.8149323,17.868634 6.670701,17.976807 C 6.670701,17.712382 6.52046,17.565146 6.219978,17.535097 C 5.919496,17.50505 5.6069947,17.381852 5.282474,17.165504 C 4.9579533,16.949157 4.5523027,16.877042 4.065522,16.949158 C 3.5787413,17.021273 2.7764543,17.051322 1.658661,17.039303 C 1.1778897,17.159495 0.92548467,17.339784 0.901446,17.58017 C 0.697118,17.484017 0.58894467,17.345795 0.576926,17.165504 C 0.576926,16.9131 0.85336933,16.720792 1.406256,16.588579 C 1.9591427,16.456367 2.5090247,16.336174 3.055902,16.228001 C 3.6027793,16.119828 4.1376373,15.9155 4.660476,15.615018 C 5.1833147,15.314536 6.6646913,15.602999 9.104606,16.480406 C 5.5348793,14.004434 3.1375181,11.033369 2.289673,7.538061 C 2.2254557,6.4913297 2.6657579,5.9270254 3.389437,5.239374 C 3.9182857,4.8727853 4.2908833,4.3499463 4.50723,3.670857 C 4.7235773,2.9917677 4.7446113,2.673257 4.570332,2.715325 C 4.396052,2.7573923 4.1706903,2.811479 3.894247,2.877585 C 3.6178037,2.943691 3.1730903,2.8805897 2.560107,2.688281 C 1.9471237,2.652223 1.3671933,2.6432087 0.820316,2.661238 C 0.27343867,2.6792667 0,2.574098 0,2.345732 C 0.036058,1.9611147 0.405651,1.6786613 1.108779,1.498372 C 1.811907,1.3180833 2.295683,1.1558233 2.560107,1.011592 C 3.0528977,0.242358 3.7680447,-0.088172333 4.705548,0.020001 C 5.282474,0.116155 5.7452163,0.34452133 6.093775,0.7051 C 6.430315,1.137794 6.4363247,1.940081 6.111804,3.111961 C 5.7872833,4.283841 5.6370423,5.134205 5.661081,5.663053 C 5.6851197,6.1919017 6.150867,6.5975523 7.058323,6.880005 C 7.9657783,7.1624583 9.456169,8.3974397 11.529495,10.584949 C 13.602821,12.772458 14.741648,13.866213 14.945976,13.866213 C 15.595017,14.25083 16.135885,14.386046 16.568579,14.271863 C 17.001274,14.15768 17.22964,14.392056 17.253677,14.974991 C 17.277716,15.557926 17.064374,15.780283 16.613651,15.642061 C 16.162928,15.50384 15.492853,15.482806 14.603426,15.57896 C 13.641884,16.288097 12.307744,16.546512 10.601006,16.354204 C 10.877449,17.027283 10.775285,17.357814 10.294514,17.345795 C 9.6574927,17.345795 8.010851,16.889062 5.354589,15.975596 z "
     id="path4"
     sodipodi:nodetypes="cssccccccccccsscccsssscccssssscsscsssssssscssssssscsccccsssccsssscccssscssscccsssscsssccsc" />
</svg>
