<?xml version="1.0" encoding ="US-ASCII" standalone="yes"?>
<svg width="23.85512" height="13.2">
<path style="fill:#000000; stroke:none" d=" M 2.312332 0.902598  Q 2.270289 1.133831 2.039056 1.091788  Q 1.765781 1.028725 1.807823 0.818513  Q 1.849865 0.608301 2.10212 0.671364  Q 2.354374 0.713407 2.312332 0.902598  Z  M 1.261272 1.491192  Q 2.228246 1.428128 2.680203 1.827531  Q 3.132159 2.226933 2.963989 3.435652  Q 2.795819 4.644371 3.289818 5.31705  Q 3.783815 5.989728 3.973006 6.052791  Q 4.708749 7.208957 5.234278 7.377127  Q 5.003045 6.389132 5.633681 6.347089  Q 6.117169 6.452194 6.13819 6.662407  Q 5.738787 6.557301 5.633681 6.620364  Q 5.528576 6.683427 5.486534 6.862108  Q 5.44449 7.040787 5.644192 7.545295  Q 5.843894 8.049804 5.970021 8.365122  Q 6.012063 8.491248 5.843894 8.449206  Q 5.570619 8.386143 4.58262 8.007762  Q 5.591639 8.575334 6.201254 8.659417  L 6.243296 8.617375  Q 5.843894 7.944698 5.75981 7.335084  Q 5.822872 7.293041 5.864914 7.293041  Q 5.970021 7.293041 6.096148 7.79755  Q 6.264318 8.175931 6.432487 8.260015  Q 7.630694 8.617375 8.261329 8.028782  Q 8.849922 7.27202 7.946011 6.347089  Q 8.240309 5.947686 8.156225 5.863601  Q 8.072139 5.779516 7.651715 6.115856  Q 6.684741 5.296029 5.675724 5.022754  Q 5.381427 5.611347 4.982025 5.558794  Q 4.58262 5.50624 4.22526 5.043773  Q 5.150194 5.464198 5.265811 4.844072  Q 5.381427 4.223947 6.558614 3.76148  Q 5.654703 3.425142 4.635174 3.835054  Q 3.615646 4.244967 3.426456 3.887607  Q 3.237265 3.530247 3.184712 2.805017  Q 3.132159 2.079784 3.058584 1.375575  Q 2.98501 0.671364 2.354374 0.41911  Q 1.93395 0.356047 1.40842 0.671364  Q 1.57659 1.11281 1.261272 1.491192  Z  M 1.954971 0.839534  Q 1.954971 0.923619 2.039056 0.923619  Q 2.144162 0.94464 2.144162 0.881576  Q 2.165183 0.818513 2.060077 0.776471  Q 1.975992 0.755449 1.954971 0.839534  Z  M 2.123141 6.305046  Q 2.837862 6.326067 3.279307 6.115856  Q 2.942968 5.884622 2.774798 5.569305  Q 2.438459 5.632367 2.123141 6.305046  Z  M 1.261272 0.860555  Q 1.324336 0.482174 1.187698 0.503195  Q 1.05106 0.524216 1.124634 0.618811  Q 1.198208 0.713407 1.261272 0.860555  Z  M 9.711792 2.374081  Q 9.648729 2.584294 9.438517 2.542251  Q 9.16524 2.479187 9.207284 2.268975  Q 9.249327 2.058763 9.501581 2.121827  Q 9.753835 2.163869 9.711792 2.374081  Z  M 9.354432 2.289996  Q 9.354432 2.374081 9.438517 2.374081  Q 9.522603 2.395103 9.543623 2.332039  Q 9.564644 2.268975 9.459538 2.226933  Q 9.375454 2.226933 9.354432 2.289996  Z  M 9.501581 7.755507  Q 10.237325 7.776528 10.67877 7.566316  Q 10.321408 7.335084 10.174259 7.019766  Q 9.837919 7.08283 9.501581 7.755507  Z  M 8.660732 2.311018  Q 8.702775 1.932636 8.576648 1.964168  Q 8.450521 1.9957 8.524095 2.079784  Q 8.59767 2.163869 8.660732 2.311018  Z  M 17.090231 0.923619  Q 17.027166 1.154852 16.816957 1.11281  Q 16.543682 1.049746 16.564703 0.839534  Q 16.627766 0.608301 16.858999 0.671364  Q 17.132275 0.734428 17.090231 0.923619  Z  M 16.732872 0.860555  Q 16.711851 0.94464 16.816957 0.94464  Q 16.901041 0.965661 16.922066 0.902598  Q 16.943083 0.818513 16.837976 0.797492  Q 16.753893 0.776471 16.732872 0.860555  Z  M 16.88002 6.326067  Q 17.594738 6.347089 18.036184 6.115856  Q 17.699844 5.905643 17.552696 5.590325  Q 17.216358 5.653389 16.88002 6.326067  Z  M 16.039171 0.881576  Q 16.081213 0.503195 15.955087 0.524216  Q 15.828959 0.545237 15.902534 0.639833  Q 15.976108 0.734428 16.039171 0.881576  Z  M 12.570676 12.275066  Q 17.952103 12.275066 22.30349 9.269032  Q 22.597788 8.953716 22.093279 9.037801  Q 16.985125 10.824602 12.570676 10.824602  Q 8.177245 10.824602 3.048074 9.037801  Q 2.564587 8.953716 2.858883 9.269032  Q 7.18925 12.275066 12.570676 12.275066  Z  M 15.450579 9.68946  L 15.66079 9.500268  Q 16.249382 8.722481 15.345471 7.79755  Q 15.618747 7.398148 15.534663 7.314063  Q 15.450579 7.229978 15.051174 7.566316  Q 14.084203 6.746491 13.054165 6.473216  Q 12.759868 7.08283 12.370975 7.019766  Q 11.982084 6.956703 11.624723 6.494236  Q 12.528635 6.935682 12.654761 6.305046  Q 12.78089 5.674409 13.958076 5.232965  Q 13.033143 4.875604 12.024125 5.285518  Q 11.015107 5.695431 10.815409 5.338071  Q 10.615706 4.98071 10.573663 4.265988  Q 10.531622 3.551269 10.458046 2.836548  Q 10.384472 2.121827 9.753835 1.869573  Q 9.33341 1.806509 8.80788 2.121827  Q 8.976051 2.563272 8.660732 2.962676  Q 9.627707 2.878591 10.079666 3.277994  Q 10.531622 3.677396 10.363451 4.896626  Q 10.195281 6.115856 10.689281 6.778023  Q 11.183277 7.44019 11.351448 7.503253  Q 12.108211 8.659417 12.633741 8.848609  Q 12.402508 7.839592 13.033143 7.79755  Q 13.516632 7.902655 13.537653 8.112867  Q 13.117229 8.007762 13.012122 8.070825  Q 12.907017 8.133888 12.864975 8.312569  Q 12.822931 8.491248 13.033143 8.995756  Q 13.243357 9.500268 13.369482 9.815584  Q 13.390505 9.941713 13.243357 9.89967  Q 12.970081 9.836606 11.982084 9.458224  Q 12.507614 9.752522 12.928039 9.920691  Q 13.306419 9.920691 13.537653 9.89967  Q 13.243357 9.395162 13.159272 8.785546  Q 13.222335 8.743504 13.243357 8.743504  Q 13.369482 8.764524 13.495611 9.248013  Q 13.66378 9.647414 13.831947 9.710478  L 14.294415 9.836606  Q 14.504626 9.836606 15.450579 9.68946  Z  M 11.56166 9.85763  L 12.234338 9.920691  Q 11.456553 9.479246 11.141237 9.437202  L 11.56166 9.85763  Z  M 18.898056 9.037801  L 18.624783 8.974735  Q 18.099247 9.248013 18.898056 9.037801  Z  M 23.501699 8.028782  Q 23.606808 8.028782 23.732931 8.238996  Q 24.069275 8.70146 23.480682 9.205971  Q 19.717886 13.2 12.570676 13.2  Q 5.44449 13.2 1.660675 9.205971  Q 1.114123 8.764524 1.376888 8.302058  Q 1.639654 7.839592 2.165183 8.007762  Q 2.354374 7.96572 2.701224 7.923676  Q 3.048074 7.881634 3.426456 7.608359  Q 4.351388 7.608359 4.834875 7.671422  Q 4.372408 7.461212 3.573604 6.389132  Q 2.354374 7.08283 1.429441 6.557301  Q 1.660675 5.611347 2.564587 5.022754  Q 2.375395 4.223947 2.543565 3.22544  Q 2.711735 2.226933 2.364884 2.048253  Q 2.018035 1.869573 1.324336 1.848552  Q 0.903912 1.9957 0.252254 2.121827  L 0.231233 2.058763  Q 0.777784 1.659361 0.987996 1.091788  Q 0.609615 0.608301 0 0.461153  L 0 0.377068  Q 0.735742 0.271962 1.303314 0.335025  Q 1.618632 -0.085399 2.396417 0.019707  Q 3.426456 0.229919 3.479008 1.102299  Q 3.531561 1.974679 3.626157 2.647357  Q 3.720752 3.320035 3.815347 3.456673  Q 3.909942 3.593311 4.866406 3.288504  Q 5.822872 2.983697 7.000059 3.593311  L 7.000059 4.013734  Q 6.096148 4.28701 5.864914 4.623349  Q 6.873932 4.959688 7.693758 5.611347  Q 7.946011 5.422156 8.208776 5.464198  Q 8.471541 5.50624 8.555626 5.769005  Q 8.63971 6.03177 8.4295 6.305046  Q 9.291368 7.250999 8.576648 8.260015  Q 7.861927 9.016779 6.495551 8.638397  Q 6.432487 9.016779 6.201254 8.953716  Q 5.549597 8.848609 4.803344 8.438697  Q 4.05709 8.028782 3.741773 7.98674  L 4.309344 8.491248  Q 6.936995 9.205971 8.934007 9.563331  Q 8.934007 9.353119 9.33341 9.395162  Q 9.732813 9.437202 10.090176 9.384651  Q 10.447536 9.332097 10.825916 9.058822  Q 11.729828 9.058822 12.213317 9.142908  Q 11.771873 8.911673 10.973067 7.839592  Q 9.753835 8.53329 8.828902 8.007762  Q 9.060135 7.061809 9.964049 6.473216  Q 9.774858 5.674409 9.932516 4.686413  Q 10.090176 3.698417 9.753835 3.509226  Q 9.417498 3.320035 8.723795 3.320035  Q 8.303372 3.446162 7.651715 3.57229  L 7.630694 3.509226  Q 8.177245 3.109823 8.387457 2.542251  Q 8.009076 2.058763 7.399462 1.911615  L 7.399462 1.848552  Q 8.114181 1.722424 8.702775 1.785488  Q 9.018092 1.365064 9.795878 1.491192  Q 10.825916 1.680382 10.867962 2.552762  Q 10.910002 3.425142 11.015107 4.097819  Q 11.120214 4.770497 11.204298 4.907135  Q 11.288383 5.043773 12.244848 4.738966  Q 13.201314 4.434158 14.39952 5.043773  L 14.39952 5.464198  Q 13.495611 5.758495 13.264377 6.073813  Q 14.273393 6.410152 15.093218 7.08283  Q 15.345471 6.872618 15.608238 6.91466  Q 15.871002 6.956703 15.955087 7.219468  Q 16.039171 7.482232 15.828959 7.755507  Q 16.690826 8.70146 16.060192 9.584352  L 16.753893 9.437202  Q 16.774914 9.290055 17.10074 9.195459  Q 17.426569 9.100863 17.731377 8.922184  Q 18.036184 8.743504 18.288443 8.3441  Q 19.129288 7.98674 19.591757 7.692444  Q 19.129288 7.482232 18.351507 6.410152  Q 17.132275 7.103851 16.207342 6.578321  Q 16.438576 5.611347 17.342485 5.043773  Q 17.153296 4.244967 17.310953 3.246461  Q 17.468615 2.247954 17.132275 2.069274  Q 16.795933 1.890594 16.102236 1.869573  Q 15.681811 1.9957 15.030155 2.142848  L 15.009132 2.079784  Q 15.555684 1.680382 15.765896 1.11281  Q 15.387515 0.608301 14.777901 0.482174  L 14.777901 0.398089  Q 15.492621 0.292983 16.081213 0.356047  Q 16.396532 -0.064377 17.174314 0.040729  Q 18.204351 0.250941 18.246397 1.12332  Q 18.288443 1.9957 18.383034 2.668379  Q 18.477631 3.341057 18.572229 3.477695  Q 18.666821 3.614332 19.623287 3.309525  Q 20.579756 3.004718 21.777962 3.614332  L 21.777962 4.034755  Q 20.87405 4.308031 20.642817 4.644371  Q 21.651833 4.98071 22.450644 5.632367  Q 22.723919 5.443177 22.986685 5.485219  Q 23.249447 5.527263 23.33353 5.790027  Q 23.417618 6.052791 23.207407 6.326067  Q 24.069275 7.27202 23.501699 8.028782  Z  M 23.102299 7.96572  Q 23.627827 7.293041 22.723919 6.36811  Q 22.997194 5.968707 22.913105 5.884622  Q 22.829023 5.800538 22.429621 6.136877  Q 21.462645 5.31705 20.432608 5.043773  Q 20.138308 5.632367 19.749411 5.579815  Q 19.360523 5.527263 19.003162 5.064795  Q 19.907074 5.485219 20.033207 4.865093  Q 20.159332 4.244967 21.336519 3.782501  Q 20.411583 3.446162 19.402563 3.856075  Q 18.393545 4.265988 18.193842 3.908628  Q 17.994141 3.551269 17.941589 2.826038  Q 17.889036 2.100806 17.825972 1.396596  Q 17.762909 0.692386 17.132275 0.440131  Q 16.711851 0.377068 16.186319 0.671364  Q 16.333467 1.11281 16.039171 1.512213  Q 17.006145 1.449149 17.44759 1.838041  Q 17.889036 2.226933 17.731377 3.446162  Q 17.573719 4.665392 18.06772 5.338071  Q 18.56172 6.010749 18.729887 6.073813  Q 19.48665 7.229978 20.01218 7.398148  Q 19.780947 6.410152 20.411583 6.347089  Q 20.895073 6.473216 20.895073 6.683427  Q 20.495668 6.578321 20.390562 6.641386  Q 20.285456 6.704449 20.243416 6.883129  Q 20.201376 7.061809 20.411583 7.566316  Q 20.621798 8.070825 20.747925 8.386143  Q 20.768944 8.51227 20.600775 8.470227  Q 20.558731 8.238996 19.507669 8.281037  Q 20.663836 8.407166 20.832006 8.554312  L 20.958138 8.53329  Q 20.621798 7.96572 20.537716 7.356106  Q 20.600775 7.293041 20.621798 7.293041  Q 20.747925 7.314063 20.87405 7.818571  Q 21.042219 8.196952 21.630817 8.407166  L 23.102299 7.96572  Z  M 19.570732 8.911673  L 20.537716 8.70146  Q 19.024183 8.470227 18.708864 8.575334  L 19.570732 8.911673  Z "/></svg>
