<?xml version="1.0" encoding ="US-ASCII" standalone="yes"?>
<svg width="24.326748" height="17.976807">
<path style="fill:#000000; stroke:none" d=" M 3.478138 0.909662  Q 3.417473 1.111879 3.579247 1.111879  Q 3.720799 1.111879 3.710688 0.980438  Q 3.700577 0.848997 3.478138 0.909662  Z  M 2.345721 1.415205  Q 1.900843 1.516314 0.909978 1.799418  Q 0.424656 1.880305 0.303326 2.102745  Q 2.952373 2.102745 2.345721 1.415205  Z  M 0.343769 2.304962  L 2.345721 2.325184  L 2.345721 2.102745  L 0.343769 2.304962  Z  M 3.174812 0.929884  Q 3.215256 0.586114 3.660134 0.626558  Q 4.064569 0.707445 4.024125 1.051214  Q 3.983682 1.475871 3.49836 1.374762  Q 3.093925 1.374762 3.174812 0.929884  Z  M 11.344394 8.614143  Q 11.344394 9.74656 14.155214 10.191439  Q 16.035835 10.494764 20.03974 10.818313  L 23.65943 12.132725  Q 23.497656 11.849621 20.949718 10.818313  Q 19.513975 10.130774 17.410913 8.583811  Q 15.307854 7.036848 12.618362 7.036848  Q 11.344394 7.623278 11.344394 8.614143  Z  M 10.110868 0.909662  Q 10.029981 1.111879 10.191754 1.111879  Q 10.333306 1.111879 10.323195 0.980438  Q 10.313085 0.848997 10.110868 0.909662  Z  M 8.958229 1.415205  Q 8.51335 1.516314 7.542707 1.799418  Q 7.057385 1.880305 6.915833 2.102745  Q 9.56488 2.102745 8.958229 1.415205  Z  M 6.956277 2.304962  L 8.958229 2.325184  L 8.958229 2.102745  L 6.956277 2.304962  Z  M 9.78732 0.929884  Q 9.827764 0.586114 10.272641 0.626558  Q 10.677076 0.707445 10.636633 1.051214  Q 10.596189 1.475871 10.110868 1.374762  Q 9.726655 1.374762 9.78732 0.929884  Z  M 9.20089 1.23321  Q 9.544659 1.496092 9.362663 1.708421  Q 9.180668 1.920749 9.180668 2.183631  Q 10.232198 2.466736 10.757963 2.234186  Q 11.283729 2.001636 11.405059 2.51729  Q 11.526389 3.032944 11.233174 3.862036  Q 10.939959 4.691127 9.78732 6.167313  Q 8.756011 7.05707 8.836898 8.351261  Q 8.917786 9.645452 10.859072 10.78798  Q 12.800359 11.930508 13.154239 12.314721  Q 13.50812 12.698934 13.87211 13.103369  Q 13.87211 12.618047 14.185547 12.314721  Q 14.498984 12.011395 15.226967 12.011395  Q 15.73251 12.011395 17.410913 13.346029  Q 17.81535 13.406694 18.634329 13.133701  Q 19.45331 12.860707 20.39362 13.174145  Q 21.333931 13.487581 22.628122 13.750464  L 22.891005 13.346029  Q 21.55637 12.65849 20.717167 12.365275  Q 19.877966 12.07206 19.089317 11.404742  Q 16.804262 11.101417 13.973219 10.878978  Q 12.456589 10.595873 11.809493 10.252104  Q 10.596189 9.685895 10.596189 8.492813  Q 10.596189 7.764831 11.526389 6.976182  Q 10.393971 6.591969 10.980402 5.479774  Q 11.566833 4.367579 11.961157 2.952057  Q 12.35548 1.536536 12.031933 1.030993  Q 11.708385 0.525449 10.96018 0.404119  Q 9.807542 0.242345 9.20089 1.23321  Z  M 15.024749 12.65849  Q 14.620315 12.840486 14.600093 13.426916  Q 14.721423 13.487581 15.995393 13.750464  L 16.217833 13.426916  L 15.024749 12.65849  Z  M 13.386788 13.649355  Q 12.335258 13.487581 11.526389 14.074012  Q 11.607276 14.579556 11.324172 15.267094  Q 11.283729 16.015299 11.081511 17.30949  Q 11.30395 17.410599 11.617387 17.481375  Q 11.930823 17.552151 12.254372 17.188158  Q 13.710337 15.22665 13.851889 14.943546  Q 13.62945 13.952682 13.386788 13.649355  Z  M 13.022798 13.022482  Q 12.395924 12.375386 10.090646 11.121638  L 7.360712 10.878978  Q 5.844081 10.595873 5.196986 10.252104  Q 3.96346 9.685895 3.96346 8.492813  Q 3.96346 7.764831 4.913882 6.976182  Q 3.781465 6.591969 4.367895 5.479774  Q 4.954325 4.367579 5.348649 2.952057  Q 5.742973 1.536536 5.409314 1.030993  Q 5.075655 0.525449 4.347673 0.404119  Q 3.174812 0.242345 2.588382 1.23321  Q 2.91193 1.496092 2.740045 1.708421  Q 2.56816 1.920749 2.56816 2.183631  Q 3.599469 2.466736 4.125234 2.234186  Q 4.650999 2.001636 4.772329 2.51729  Q 4.89366 3.032944 4.610556 3.862036  Q 4.327451 4.691127 3.174812 6.167313  Q 2.143504 7.05707 2.224391 8.351261  Q 2.305278 9.645452 4.246564 10.78798  Q 6.187851 11.930508 6.541731 12.314721  Q 6.895612 12.698934 7.259603 13.103369  Q 7.259603 12.618047 7.57304 12.314721  Q 7.886477 12.011395 8.614459 12.011395  Q 9.120003 12.011395 10.798407 13.346029  Q 11.18262 13.406694 11.860047 13.194366  Q 12.537476 12.982038 13.022798 13.022482  Z  M 9.261555 10.454321  Q 7.785368 9.038799 8.27069 7.340174  Q 7.198938 7.036848 6.005856 7.036848  Q 4.731886 7.623278 4.731886 8.614143  Q 4.731886 9.74656 7.542707 10.191439  Q 8.290912 10.312769 9.261555 10.454321  Z  M 8.998672 2.588066  Q 8.129138 2.527401 7.370822 2.547623  Q 6.612507 2.567844 6.612507 2.264518  Q 6.652951 1.738753 7.643816 1.475871  Q 8.634681 1.212988 8.998672 1.010771  Q 9.56488 -0.141868 10.980402 0.019906  Q 12.11282 0.201901 12.47681 0.808553  Q 13.022798 1.779197 12.153263 3.91259  Q 11.283729 6.045983 11.910602 6.147091  Q 13.649672 6.268422 15.125858 6.7133  Q 16.602045 7.158178 19.028652 8.917469  Q 20.343065 9.888113 21.940582 10.575651  Q 24.326748 11.809177 24.326748 11.869843  L 24.326748 12.77982  L 20.363287 11.627182  Q 21.920361 12.152946 23.416769 13.12359  Q 23.699873 13.548246 23.487545 13.861684  Q 23.275217 14.17512 22.830339 14.185231  Q 22.385462 14.195342 21.192379 13.952682  Q 19.311758 13.224699 18.159119 14.074012  Q 18.219784 14.579556 17.956902 15.267094  Q 17.896236 16.015299 17.694017 17.30949  Q 17.916458 17.410599 18.189451 17.521818  Q 18.462444 17.633038 18.462444 17.976807  Q 18.199562 17.794811 17.997345 17.976807  L 14.559649 17.976807  Q 14.215879 17.976807 14.084438 17.885809  Q 13.952997 17.794811 13.791224 17.916142  Q 13.710337 17.815033 13.771002 17.66337  Q 13.831667 17.511707 14.094549 17.511707  L 14.498984 17.511707  Q 15.469627 17.329712 15.995393 17.471264  Q 16.966036 17.471264 17.107588 17.188158  Q 17.148031 13.831351 16.844706 13.871795  Q 16.642488 14.17512 16.207722 14.185231  Q 15.772953 14.195342 14.660758 13.952682  Q 14.68098 14.074012 14.903419 14.680664  Q 14.68098 15.064877 12.840802 17.30949  Q 13.063241 17.410599 13.346345 17.521818  Q 13.62945 17.633038 13.609228 17.976807  Q 13.366567 17.794811 13.144128 17.976807  L 7.92692 17.976807  Q 7.583151 17.976807 7.46182 17.885809  Q 7.34049 17.794811 7.158494 17.916142  Q 7.097829 17.815033 7.148384 17.66337  Q 7.198938 17.511707 7.482042 17.511707  L 7.866255 17.511707  Q 8.85712 17.329712 9.382885 17.471264  Q 10.353528 17.471264 10.495081 17.188158  Q 10.535524 13.831351 10.070424 13.831351  Q 8.776233 12.65849 8.412242 12.65849  Q 7.987586 12.840486 7.987586 13.366251  Q 7.987586 13.871795 8.27069 14.680664  Q 8.04825 15.064877 6.228294 17.30949  Q 6.450734 17.410599 6.723727 17.521818  Q 6.99672 17.633038 6.99672 17.976807  Q 6.733838 17.794811 6.531621 17.976807  L 3.093925 17.976807  Q 2.750156 17.976807 2.618715 17.885809  Q 2.487273 17.794811 2.3255 17.916142  Q 2.244613 17.815033 2.305278 17.66337  Q 2.365943 17.511707 2.628826 17.511707  L 3.03326 17.511707  Q 4.003903 17.329712 4.529669 17.471264  Q 5.500312 17.471264 5.641864 17.188158  Q 7.097829 15.22665 7.21916 14.943546  Q 6.895612 13.386473 6.066521 12.719155  Q 2.628826 10.717204 2.09295 9.787004  Q 1.557074 8.856804 1.557074 7.906383  Q 1.557074 6.915517 2.649047 5.884209  Q 3.902795 4.448466 4.206121 3.498044  Q 4.509447 2.547623 4.054458 2.699286  Q 3.599469 2.850949 2.386165 2.588066  Q 1.51663 2.527401 0.758315 2.547623  Q 0 2.567844 0 2.264518  Q 0.040443 1.738753 1.031309 1.475871  Q 2.022173 1.212988 2.386165 1.010771  Q 2.952373 -0.141868 4.367895 0.019906  Q 5.500312 0.201901 5.864303 0.808553  Q 6.41029 1.779197 5.540755 3.91259  Q 4.671221 6.045983 5.298095 6.147091  Q 7.037164 6.268422 8.553794 6.7133  Q 8.634681 6.490861 9.574991 5.469664  Q 10.515303 4.448466 10.818628 3.498044  Q 11.121954 2.547623 10.677076 2.699286  Q 10.232198 2.850949 8.998672 2.588066  Z "/></svg>
