<?xml version="1.0" encoding ="US-ASCII" standalone="yes"?>
<svg width="18.349348" height="17.976807">
<path style="fill:#000000; stroke:none" d=" M 5.608112 9.407321  Q 7.116727 11.867019 7.887432 14.015155  Q 8.051412 14.326717 8.510555 14.86785  Q 8.756526 14.474298 8.822118 13.818379  Q 8.215392 11.850621 5.608112 9.407321  Z  M 8.969699 14.900646  L 8.608944 15.44178  L 8.166198 15.031831  Q 8.166198 15.507372 7.82184 17.163568  Q 8.658137 17.097977 8.813918 16.720823  Q 8.969699 16.34367 8.969699 15.212209  L 8.969699 14.900646  Z  M 17.923 16.99959  L 18.054184 16.868404  Q 17.759022 16.294476 15.397711 13.08047  Q 13.036401 9.866465 8.707332 6.176917  Q 8.018616 6.537673 6.526399 6.537673  Q 6.264031 6.537673 6.264031 6.88203  Q 6.264031 7.488756 8.338377 9.202346  Q 10.412723 10.915936 12.446073 12.391754  Q 14.479424 13.867574 15.102547 14.211931  Q 16.070028 14.835054 17.923 16.99959  Z  M 2.246524 1.99543  Q 2.836852 1.979032 3.34519 2.126614  L 3.492771 2.766136  Q 3.443578 2.093818 3.82893 1.970833  Q 4.214283 1.847848 4.443855 2.151211  Q 4.673427 2.454574 4.476651 2.708743  Q 4.279875 2.962911 4.197885 3.340065  Q 4.443855 3.799209 5.066978 3.782811  Q 6.378817 2.356186 6.067255 1.487092  Q 5.755694 0.617999 4.943994 0.44582  Q 4.132293 0.273641 3.435379 0.560606  Q 2.738464 0.847571 2.246524 1.99543  Z  M 2.377708 5.111048  L 1.967759 6.258907  L 1.279043 6.160519  L 1.754585 4.897874  L 1.656197 4.537118  Q 1.475819 4.455128 1.590605 4.291149  Q 1.459421 4.143567 1.557809 4.02878  L 1.590605 3.930393  L 1.279043 3.979587  Q 1.098665 3.946791 1.238048 3.586035  Q 1.377431 3.225279 1.590605 2.634952  Q 1.525013 2.454574 1.656197 2.208604  Q 2.213728 0.617999 3.156613 0.240845  Q 4.099497 -0.136308 5.13257 0.076866  Q 6.165643 0.290039 6.43621 1.249322  Q 6.706777 2.208604 6.362419 2.913718  Q 6.018062 3.618831 5.476928 4.159965  Q 5.411336 4.487924 6.182042 4.348541  Q 6.952747 4.209158 8.649939 5.430809  Q 10.347131 6.652459 12.06072 8.456238  Q 13.77431 10.260016 14.807383 11.629248  Q 15.840456 12.99848 17.094902 14.79406  Q 18.349348 16.58964 18.349348 16.99959  Q 18.382145 17.409538 17.824614 17.343946  L 15.4797 15.064627  L 16.643957 16.688026  L 13.626728 17.639111  L 11.757358 13.769185  L 10.888264 13.096868  Q 10.888264 13.933166 10.281538 15.146616  Q 9.969976 14.900646 9.691211 14.703871  L 9.691211 15.458179  Q 9.691211 16.540445 9.576425 17.065182  Q 9.920783 17.393141 10.502912 17.319349  Q 11.08504 17.24556 11.216224 17.47513  Q 11.347407 17.704702 11.183428 17.950672  Q 10.937458 17.7211 10.781677 17.876881  Q 10.625896 18.032661 10.101161 17.950672  L 4.96859 17.96707  Q 4.689825 17.950672 4.468451 17.811289  Q 4.247079 17.671907 3.919119 17.950672  Q 3.902721 17.179966 4.902998 17.179966  Q 5.755694 17.442335 6.370618 17.319349  Q 6.985543 17.196365 7.165921 16.983191  Q 7.543075 15.343392 7.461084 14.375911  Q 7.477482 13.703593 6.149245 11.309487  Q 4.821008 8.915381 3.845328 7.570746  Q 2.869648 6.226111 3.107419 5.611187  Q 3.34519 4.996262 3.164812 4.84868  L 2.377708 5.111048  Z  M 1.902167 4.43873  Q 1.934963 4.586312 2.041549 4.668302  Q 2.148136 4.750292 2.60728 4.619108  L 3.509169 4.291149  Q 3.935517 4.914272 3.697746 5.537395  Q 3.459975 6.160519 4.575038 7.570746  Q 5.690102 8.980973 7.067533 10.407598  Q 8.444963 11.834223 9.314057 13.818379  L 10.101161 14.605483  Q 10.625896 13.277246 10.478314 12.276969  Q 12.052521 13.260848 12.183705 13.703593  L 13.889095 17.130774  L 16.020834 16.491251  Q 15.381312 15.408984 13.905494 13.965961  Q 5.37854 8.013492 5.78849 6.88203  Q 5.78849 6.144121 6.772369 6.127723  Q 8.23179 6.045733 8.31378 5.848957  Q 6.673981 4.6847 5.796689 4.824083  Q 4.919396 4.963466 4.919396 4.19276  Q 4.575038 4.19276 4.271676 4.012383  Q 3.968313 3.832005 3.820731 3.340065  Q 3.673149 3.487647 3.533766 3.372861  Q 3.394383 3.258075 3.476373 3.061299  L 3.246802 3.061299  L 3.164812 2.503768  Q 2.787658 2.306992 1.934963 2.40538  L 1.803779 2.667748  Q 2.082545 2.503768 2.377708 2.520166  Q 2.672872 2.536564 3.082822 2.700544  L 3.066424 2.766136  L 2.820454 2.749738  Q 2.19733 2.470972 1.721789 2.979309  Q 1.590605 3.274473 1.410227 3.766413  Q 1.459421 3.881199 1.6316 3.725418  Q 1.803779 3.569637 2.049748 3.848403  L 1.738187 3.897597  L 1.738187 3.995985  L 2.328514 4.012383  L 2.328514 4.110771  L 1.902167 4.43873  Z  M 1.902167 3.077697  Q 1.934963 2.585758 2.85325 2.913718  Q 2.066146 3.405657 1.902167 3.077697  Z  M 2.19733 4.127169  Q 1.541411 4.209158 1.705391 4.35674  L 2.19733 4.127169  Z  M 3.787935 2.831728  Q 3.623955 3.159687 3.787935 3.184284  Q 3.951915 3.208881 4.025706 3.044901  Q 4.099497 2.880922 4.23888 2.684146  Q 4.378263 2.48737 4.230681 2.290594  Q 4.083099 2.093818 3.886323 2.233201  Q 3.689547 2.372584 3.787935 2.831728  Z  M 1.393829 10.440393  Q 1.656197 10.604374 1.664396 11.120911  Q 1.672595 11.637447 2.549887 12.416351  Q 3.42718 13.195256 3.394383 14.769463  L 4.657029 14.769463  Q 5.066978 14.753065 5.066978 14.966239  Q 5.050581 15.146616 4.657029 15.540168  Q 4.427457 15.753342 3.689547 17.671907  Q 3.558363 17.96707 3.34519 17.96707  L 1.721789 17.96707  Q 1.525013 17.96707 1.393829 17.671907  Q 0.655919 15.753342 0.40995 15.540168  Q 0 15.179413 0 14.966239  Q 0 14.753065 0.40995 14.769463  L 1.902167 14.769463  Q 1.902167 13.57241 1.188854 12.908291  Q 0.475542 12.244172 0.72971 11.383278  Q 0.983879 10.522384 1.393829 10.440393  Z  M 1.213451 11.194701  Q 0.787103 11.899815 1.598804 12.695117  Q 2.410504 13.490419 2.410504 14.769463  L 2.85325 14.769463  Q 2.836852 13.342837 2.189131 12.744311  Q 1.541411 12.145784 1.213451 11.194701  Z  M 4.017507 15.35979  L 1.065869 15.35979  L 1.770983 17.081579  Q 1.902167 17.491529 2.295718 17.491529  L 2.77126 17.491529  Q 3.18121 17.491529 3.295995 17.081579  L 4.017507 15.35979  Z "/></svg>
