<?xml version="1.0" encoding ="US-ASCII" standalone="yes"?>
<svg width="17.168694" height="17.976807">
<path style="fill:#000000; stroke:none" d=" M 4.427457 9.407321  Q 5.936071 11.867019 6.706777 14.015155  Q 6.870757 14.326717 7.329901 14.86785  Q 7.575871 14.474298 7.641462 13.818379  Q 7.034737 11.850621 4.427457 9.407321  Z  M 7.789044 14.900646  L 7.428288 15.44178  L 6.985543 15.031831  Q 6.985543 15.507372 6.641185 17.163568  Q 7.477482 17.097977 7.633264 16.720823  Q 7.789044 16.34367 7.789044 15.212209  L 7.789044 14.900646  Z  M 16.742346 16.99959  L 16.873529 16.868404  Q 16.578365 16.294476 14.217055 13.08047  Q 11.855745 9.866465 7.526677 6.176917  Q 6.837961 6.537673 5.345744 6.537673  Q 5.083376 6.537673 5.083376 6.88203  Q 5.083376 7.488756 7.157722 9.210545  Q 9.232067 10.932334 11.265418 12.399954  Q 13.298768 13.867574 13.921892 14.211931  Q 14.905771 14.851453 16.742346 16.99959  Z  M 1.065869 1.99543  Q 1.656197 1.979032 2.164534 2.126614  L 2.312116 2.766136  Q 2.27932 2.093818 2.656474 1.979032  Q 3.033628 1.864246 3.2632 2.15941  Q 3.492771 2.454574 3.295995 2.708743  Q 3.09922 2.962911 3.01723 3.340065  Q 3.2632 3.799209 3.886323 3.782811  Q 5.198162 2.356186 4.8866 1.487092  Q 4.575038 0.617999 3.763338 0.44582  Q 2.951638 0.273641 2.254723 0.560606  Q 1.557809 0.847571 1.065869 1.99543  Z  M 1.197053 5.111048  L 0.787103 6.258907  L 0.098388 6.160519  L 0.57393 4.914272  L 0.475542 4.537118  Q 0.295164 4.455128 0.40995 4.291149  Q 0.278766 4.143567 0.377154 4.045178  L 0.40995 3.930393  L 0.098388 3.979587  Q -0.08199 3.946791 0.065592 3.594234  Q 0.213174 3.241677 0.40995 2.634952  Q 0.344358 2.454574 0.475542 2.208604  Q 1.033073 0.617999 1.975958 0.240845  Q 2.918842 -0.136308 3.951915 0.076866  Q 4.984988 0.290039 5.255555 1.249322  Q 5.526122 2.208604 5.181764 2.913718  Q 4.837407 3.618831 4.296273 4.159965  Q 4.230681 4.487924 5.001386 4.35674  Q 5.772092 4.225556 7.469284 5.439008  Q 9.166475 6.652459 10.880065 8.456238  Q 12.593655 10.260016 13.634927 11.629248  Q 14.676199 12.99848 15.922446 14.79406  Q 17.168694 16.58964 17.168694 16.99959  Q 17.201488 17.409538 16.643957 17.343946  L 14.299046 15.064627  L 15.463303 16.688026  L 12.446073 17.655508  L 10.576702 13.769185  L 9.707609 13.096868  Q 9.707609 13.933166 9.100883 15.146616  Q 8.789322 14.900646 8.510555 14.703871  L 8.510555 15.474576  Q 8.510555 16.540445 8.39577 17.065182  Q 8.740128 17.393141 9.322256 17.327549  Q 9.904385 17.261957 10.035568 17.48333  Q 10.166753 17.704702 10.002772 17.950672  Q 9.756803 17.7211 9.601022 17.876881  Q 9.445241 18.032661 8.920506 17.950672  L 3.787935 17.96707  Q 3.509169 17.950672 3.295995 17.811289  Q 3.082822 17.671907 2.738464 17.950672  Q 2.722066 17.196365 3.722343 17.196365  Q 4.575038 17.442335 5.189963 17.319349  Q 5.804888 17.196365 5.985266 16.983191  Q 6.362419 15.343392 6.280429 14.375911  Q 6.296827 13.703593 4.96859 11.309487  Q 3.640353 8.915381 2.672872 7.570746  Q 1.705391 6.226111 1.934963 5.611187  Q 2.164534 4.996262 1.984156 4.84868  L 1.197053 5.111048  Z  M 0.721511 4.43873  Q 0.754307 4.586312 0.860894 4.668302  Q 0.967481 4.750292 1.426625 4.619108  L 2.328514 4.291149  Q 2.754862 4.914272 2.517091 5.545595  Q 2.27932 6.176917 3.394383 7.578945  Q 4.509447 8.980973 5.886878 10.415797  Q 7.264308 11.850621 8.133402 13.818379  L 8.920506 14.605483  Q 9.445241 13.277246 9.297659 12.276969  Q 10.871866 13.260848 11.00305 13.703593  L 12.708441 17.130774  L 14.840179 16.507648  Q 14.200658 15.425383 12.724838 13.965961  Q 4.197885 8.013492 4.607835 6.88203  Q 4.607835 6.144121 5.608112 6.127723  Q 7.051135 6.045733 7.133125 5.848957  Q 5.493326 4.6847 4.616034 4.824083  Q 3.738741 4.963466 3.738741 4.19276  Q 3.394383 4.19276 3.091021 4.012383  Q 2.787658 3.832005 2.640076 3.356463  Q 2.508892 3.487647 2.36131 3.372861  Q 2.213728 3.258075 2.295718 3.061299  L 2.066146 3.061299  L 1.984156 2.503768  Q 1.607003 2.306992 0.754307 2.40538  L 0.623124 2.667748  Q 0.901889 2.503768 1.197053 2.528365  Q 1.492217 2.552962 1.902167 2.700544  L 1.885769 2.766136  L 1.639799 2.749738  Q 1.016675 2.470972 0.541134 2.979309  Q 0.40995 3.274473 0.229572 3.766413  Q 0.278766 3.881199 0.450945 3.725418  Q 0.623124 3.569637 0.869093 3.848403  L 0.557532 3.897597  L 0.557532 3.995985  L 1.147859 4.012383  L 1.147859 4.110771  L 0.721511 4.43873  Z  M 0.721511 3.077697  Q 0.754307 2.585758 1.672595 2.913718  Q 0.901889 3.405657 0.721511 3.077697  Z  M 1.016675 4.127169  Q 0.360756 4.209158 0.524736 4.35674  L 1.016675 4.127169  Z  M 2.60728 2.848125  Q 2.4433 3.159687 2.60728 3.184284  Q 2.77126 3.208881 2.845051 3.044901  Q 2.918842 2.880922 3.058225 2.692345  Q 3.197608 2.503768 3.050026 2.298793  Q 2.902444 2.093818 2.705668 2.2414  Q 2.508892 2.388982 2.60728 2.848125  Z "/></svg>
