<?xml version="1.0" encoding="UTF-8" standalone="no"?>
<!-- Created with Inkscape (http://www.inkscape.org/) -->
<svg
   xmlns:dc="http://purl.org/dc/elements/1.1/"
   xmlns:cc="http://web.resource.org/cc/"
   xmlns:rdf="http://www.w3.org/1999/02/22-rdf-syntax-ns#"
   xmlns:svg="http://www.w3.org/2000/svg"
   xmlns="http://www.w3.org/2000/svg"
   xmlns:sodipodi="http://sodipodi.sourceforge.net/DTD/sodipodi-0.dtd"
   xmlns:inkscape="http://www.inkscape.org/namespaces/inkscape"
   width="1800"
   height="1800"
   id="svg2"
   sodipodi:version="0.32"
   inkscape:version="0.45.1"
   version="1.0"
   sodipodi:docbase="/home/rosmord/Desktop/tmp"
   sodipodi:docname="G57.svg"
   inkscape:output_extension="org.inkscape.output.svg.inkscape">
  <defs
     id="defs4" />
  <sodipodi:namedview
     id="base"
     pagecolor="#ffffff"
     bordercolor="#666666"
     borderopacity="1.0"
     inkscape:pageopacity="0.0"
     inkscape:pageshadow="2"
     inkscape:zoom="0.20758518"
     inkscape:cx="1000.8793"
     inkscape:cy="901.7821"
     inkscape:document-units="px"
     inkscape:current-layer="layer3"
     width="1800px"
     height="1800px"
     inkscape:window-width="753"
     inkscape:window-height="572"
     inkscape:window-x="184"
     inkscape:window-y="120" />
  <metadata
     id="metadata7">
    <rdf:RDF>
      <cc:Work
         rdf:about="">
        <dc:format>image/svg+xml</dc:format>
        <dc:type
           rdf:resource="http://purl.org/dc/dcmitype/StillImage" />
        <dc:title>G1</dc:title>
        <dc:creator>
          <cc:Agent>
            <dc:title>S. Rosmorduc</dc:title>
          </cc:Agent>
        </dc:creator>
        <dc:description>G1 sign from Sethy temple in Abydos.</dc:description>
      </cc:Work>
    </rdf:RDF>
  </metadata>
  <g
     inkscape:groupmode="layer"
     id="layer3"
     inkscape:label="dessinCourant"
     style="display:inline">
    <path
       style="fill:#000000;fill-opacity:1;fill-rule:evenodd;stroke:none;stroke-width:70;stroke-linecap:butt;stroke-linejoin:miter;stroke-miterlimit:4;stroke-opacity:1;display:inline"
       d="M 518.6875,-12.21875 C 454.58891,-11.685211 389.07355,-0.19408216 326.875,5.65625 C 250.93578,43.179601 174.01696,14.583459 94.375,43.875 C 36.83342,69.98837 20.717754,122.98775 -3.09375,175.96875 C 139.03286,128.10605 227.51142,199.30194 356.34375,232.40625 C 356.17449,282.2257 348.45557,338.75998 344.78125,395.71875 C 333.25063,512.75754 376.6648,618.91842 448.96875,705.46875 C 442.07025,705.6531 435.15766,705.69424 428.25,705.5625 C 412.92887,705.45932 397.61261,704.92288 382.3125,704.125 C 327.04061,662.70943 269.92863,622.86728 208.71875,590.84375 C 177.14677,576.20093 142.84384,567.60459 111.84375,551.78125 C 132.05177,517.82342 172.18743,500.66258 189.1875,464.46875 C 195.48829,450.5131 201.17278,434.49485 196.34375,419.15625 C 190.41853,398.68324 177.71916,377.88799 157.21875,369.65625 C 152.98753,368.15255 148.51537,367.32588 144,367.5 C 123.05442,368.49554 107.70331,385.84523 96.65625,401.9375 C 83.015771,422.24306 72.776794,444.69706 66.5,468.40625 C 59.720106,490.43576 53.186123,512.54105 46.6875,534.65625 C 39.646131,505.11855 34.017368,474.93488 24.0625,446.21875 C 10.428221,418.61868 -11.003259,391.62081 -41.9375,383.5 C -56.305898,379.34094 -72.920646,381.64425 -83.9375,392.15625 C -105.81,412.54543 -112.3372,445.95465 -105.4375,474.4375 C -103.04111,484.23153 -99.096578,493.781 -91.0625,500.5 C -66.878247,527.19912 -42.684256,553.89463 -18.5,580.59375 C -33.005326,588.39699 -48.559991,594.53971 -62.4375,603.34375 C -92.305749,625.75638 -115.77189,659.28481 -118.25,697.40625 C -120.15009,725.38122 -112.78751,754.17524 -96.9375,777.3125 C -66.352973,794.00749 -33.502526,811.00519 2.4375,809.6875 C 41.836797,807.99701 78.90218,792.91072 117.28125,784.90625 C 151.79384,776.17705 189.11881,782.63455 219.5,800.9375 C 244.56344,815.20915 265.35864,835.68738 285.6875,855.875 C 327.7454,880.52988 375.03413,895.21586 422.34375,906.53125 C 480.93851,919.90064 540.93625,926.8168 601.0625,928.40625 C 670.58814,1049.2674 747.71717,1153.939 808.5625,1259.875 C 798.54034,1325.6055 738.08781,1573.7374 708.28125,1662.8125 C 626.35892,1676.7434 536.64942,1682.2234 452.96875,1675.5312 C 404.21663,1668.5971 350.15604,1755.1491 297.1875,1800.5 L 1332.8438,1808.6875 C 1304.9166,1708.7302 1100.7514,1658.423 1046.9688,1664.5312 C 1070.0531,1597.7045 1098.8329,1534.9289 1107.0312,1441.5938 C 1135.9362,1467.77 1168.35,1496.0897 1208.8125,1499.0312 C 1258.2819,1495.2639 1278.3534,1461.0624 1284.625,1416.4375 C 1396.6837,1604.0377 1522.0025,1757.2223 1751.875,1779.75 C 1831.3076,1775.8176 1930.296,1740.6601 1951.7188,1655.2188 C 2057.0829,1649.2133 1979.8169,1545.3047 1940.7188,1504.5938 C 1756.4526,1302.7258 1592.8605,1082.4906 1424.2812,866.875 C 1439.6545,866.70863 1455.0334,866.5285 1470.4062,866.375 C 1568.4798,860.81717 1666.5283,854.65138 1764.5938,849.03125 C 1782.5896,846.82193 1802.4092,845.22616 1817.0312,833.46875 C 1825.3498,827.0218 1824.9515,813.87452 1817.4688,806.9375 C 1795.1387,785.03325 1765.0552,772.90827 1735.6875,763.53125 C 1670.8515,743.88617 1602.2309,740.88801 1534.7812,741.65625 C 1451.7335,739.31942 1370.645,719.82917 1290.5312,699.0625 C 1239.5968,636.73567 1187.6527,575.33331 1134.0312,515.4375 C 1024.9211,406.49173 901.7266,332.80272 749.15625,271.6875 C 737.79872,243.4526 734.07331,203.28787 726.6875,159.09375 C 718.62822,110.88292 693.21257,31.965473 646.75,7.40625 C 605.7393,-7.8264289 562.54443,-12.583803 518.6875,-12.21875 z M 494.15625,53.25 C 505.49295,106.74142 484.62237,168.47877 444.53125,186.6875 L 457.34375,214.375 C 507.42713,190.28546 555.55487,118.1537 562.71875,53.40625 C 631.10025,57.516166 649.80077,109.64517 660.5,170.125 C 673.32029,211.45548 660.31543,311.76412 712.0625,329.09375 C 864.89855,388.99396 981.7322,458.26542 1086.5938,562.96875 C 1116.1658,600.40101 1145.9691,637.63872 1175.9062,674.75 C 1101.1276,662.01041 1025.4307,654.75516 949.5625,652.28125 C 898.71041,651.16761 847.86847,654.26951 797.09375,656.71875 C 744.28501,659.727 691.38092,664.09126 639.125,672.3125 C 632.19501,647.40632 628.46875,620.03807 628.46875,589.6875 C 628.46875,485.44751 818.26946,398.09664 810.4375,384.53125 C 809.788,383.40629 807.74358,382.82841 804.53125,382.78125 C 766.62571,382.22482 565.71875,457.04388 565.71875,615.5 C 565.71875,639.40155 569.17627,662.35187 575.59375,684.4375 C 566.68987,686.47275 557.81192,688.66015 548.96875,691 C 543.79977,692.40202 538.62073,693.7101 533.40625,694.90625 C 385.02627,568.61968 413.38528,360.00467 420.9375,173.6875 C 330.04348,168.59509 255.16297,118.38301 168.84375,97.5 C 235.79921,88.732771 302.54048,77.421278 369.65625,70.40625 C 357.06302,72.9598 345.54546,80.36917 337.875,90.71875 C 335.71487,134.80711 435.12232,130.11672 430.59375,97.28125 C 419.56293,79.893671 399.19169,68.781301 378.59375,69.4375 C 411.9714,64.59515 456.43366,57.40978 494.15625,53.25 z M -10.875,577.09375 C -10.436649,577.06289 -9.9948892,577.41287 -9.71875,578.5 C -13.429872,580.75307 -12.190054,577.18633 -10.875,577.09375 z M 47.59375,631.0625 C 62.175265,631.63631 76.96,631.72934 91.46875,634.375 C 170.57276,647.02202 247.97449,678.55139 308.625,731.34375 C 319.5262,740.4177 328.7953,751.19722 339,760.875 C 356.07424,771.03095 376.73153,772.81355 396.0625,775.65625 C 458.91848,782.25224 522.77198,780.23149 585.0625,769.78125 C 612.92697,764.93292 640.64375,757.56848 666.1875,745.4375 C 768.94421,725.48309 874.09538,712.49155 978.84375,721.75 C 1018.38,725.0687 1057.9213,729.32948 1097.6562,728.65625 C 1184.4278,731.14953 1267.8299,757.19158 1352.5625,773.5 C 1415.3901,786.1163 1479.6653,793.28244 1543.7812,788.53125 C 1581.8934,787.46471 1620.6835,786.45362 1658.0312,795.03125 C 1662.405,796.65086 1668.8173,797.41623 1671.3125,801.65625 C 1665.1541,806.75094 1655.8428,806.06552 1648.0938,807.0625 C 1584.6555,807.91155 1521.1983,809.48323 1457.75,808.78125 C 1318.887,805.03711 1179.9939,793.45599 1041.0312,799.96875 C 917.53869,811.60145 797.85591,839.77547 673.90625,853.84375 C 659.44291,855.74665 645.14058,854.73283 630.71875,853.90625 C 594.90902,852.01293 559.02487,855.37423 523.25,852.96875 C 476.98121,848.4964 432.85348,832.69577 388.75,818.625 C 366.56504,811.31818 343.77017,804.8458 324.46875,791.21875 C 294.70032,770.99053 268.62707,744.96377 235.46875,730.28125 C 205.53614,716.42788 172.68308,709.13694 139.84375,706.75 C 93.450998,714.59097 47.665664,726.86575 1.28125,735.125 C -12.512385,735.37174 -29.844143,731.21738 -34.75,716.65625 C -40.20433,698.30023 -29.88669,679.66005 -18.84375,665.65625 C -2.6653072,646.00904 21.55282,631.09268 47.59375,631.0625 z M 1333.375,867.9375 C 1435.4418,992.37994 1537.7539,1116.6388 1637.5938,1243.1562 C 1707.9057,1332.3742 1772.2015,1414.1143 1824.4062,1475.7812 C 1549.6071,1267.8677 1242.543,1108.8415 941.3125,943.59375 C 914.22934,928.69981 887.39448,914.26836 861.4375,899.625 C 923.36061,884.93487 985.47829,872.48807 1049.3125,871.625 C 1143.9996,870.36795 1238.685,869.08588 1333.375,867.9375 z M 702.46875,925.875 C 804.92463,1056.6082 893.61202,1199.0688 974.375,1343.3438 C 995.4434,1369.6514 971.73535,1393.7319 954.34375,1418.7188 C 898.49905,1239.2214 781.19808,1094.3654 679.5,927.5 C 687.17184,927.08333 694.8251,926.53571 702.46875,925.875 z M 792.46875,935.34375 C 1104.3812,1103.5241 1413.2336,1273.29 1708.2188,1470.6562 C 1777.6989,1527.6557 1839.6015,1591.1832 1881.5312,1650.5625 C 1853.7256,1694.297 1800.8051,1709.3144 1751.875,1712.625 C 1502.185,1703.813 1404.4502,1460.1673 1272.5625,1286.0938 L 1200.8125,1197.9062 L 1213.1875,1310.9062 C 1214.1129,1332.9892 1238.2812,1444.4959 1194.9375,1425.3438 L 1068.75,1272.4375 C 1055.253,1281.4415 1042.5482,1291.6726 1028.625,1300.0312 C 966.0275,1171.8149 874.40591,1052.453 792.46875,935.34375 z M 876.21875,1399.0312 C 895.81011,1447.2284 905.97408,1498.2751 917.0625,1548.875 C 948.9246,1522.7626 979.8204,1495.9402 1005.9688,1464 C 988.93468,1557.7186 957.1491,1652.2188 880.0625,1652.2188 C 833.40576,1652.2188 811.79361,1620.3129 841.71875,1523.5625 C 855.81428,1477.9905 867.03715,1434.402 876.21875,1399.0312 z "
       id="path2327"
       sodipodi:nodetypes="cccccccccccccccccccccccccccccccccccccccccccccccccccccccccccccccccccccssssccccccccccccccccccccccccccccccccccccccccccccccccccccccccccccccccccssc" />
  </g>
</svg>
