<?xml version="1.0" encoding ="US-ASCII" standalone="yes"?>
<svg width="21.476076" height="17.976807">
<path style="fill:#000000; stroke:none" d=" M 10.676773 5.982353  Q 9.407506 6.131678 8.418225 5.945021  Q 7.428944 5.758365 7.316949 6.402331  Q 7.204955 7.046297 8.492887 8.819537  Q 9.78082 10.592777 11.414067 11.498063  Q 13.047316 12.403349 14.652564 13.028649  Q 16.257814 13.65395 17.751068 14.587234  Q 19.244324 15.520519 20.942902 16.603128  Q 20.830906 16.043158 19.393648 15.100541  Q 17.95639 14.157924 16.761787 13.056648  Q 15.287198 10.891428 14.055263 9.379508  Q 12.823327 7.867587 10.676773 5.982353  Z  M 10.322125 16.733789  L 10.322125 14.848554  L 10.247462 14.99788  Q 10.04214 14.531238 9.986142 14.195255  Q 9.892815 14.661898 9.538166 15.184537  L 8.940865 14.73656  Q 8.82887 14.979214 8.380894 16.957777  Q 9.482169 17.256428 10.322125 16.733789  Z  M 9.687491 13.672616  Q 9.202184 12.198027 7.988914 10.984756  L 8.268899 13.13131  Q 8.324897 13.523291 8.642213 13.812609  Q 8.95953 14.101927 9.388841 14.437909  L 9.687491 13.672616  Z  M 6.682316 0.923952  Q 7.130292 0.923952 7.130292 1.203937  Q 7.130292 1.502588 6.719647 1.577251  Q 6.141011 1.539919 6.122345 1.203937  Q 6.159677 0.923952 6.682316 0.923952  Z  M 5.618372 1.091943  Q 4.031788 1.091943 3.658475 1.409259  L 3.658475 1.745242  Q 4.386436 1.390594 4.797081 2.043893  Q 5.095733 1.409259 5.879692 1.875902  Q 6.663651 2.342544 6.72898 2.127888  Q 6.79431 1.913233 6.327668 1.745242  Q 5.861026 1.577251 5.795696 1.437258  Q 5.730366 1.297265 5.823694 1.035946  L 5.618372 1.091943  Z  M 5.935688 5.403717  Q 5.935688 6.9903 7.932917 10.051473  Q 9.538166 11.656722 10.098137 13.056648  Q 10.378122 13.765944 10.73277 14.036596  Q 11.087419 14.307249 11.498063 14.456574  Q 11.647388 13.728613 11.423401 12.515344  Q 14.297916 13.728613 15.651178 15.707176  Q 17.00444 17.68574 19.337652 17.312426  Q 18.367037 16.211149 17.891062 15.595181  Q 17.415087 14.979214 16.593796 14.503239  Q 15.772506 14.027264 13.271303 13.037983  Q 10.770102 12.048701 9.659493 11.050087  Q 8.548884 10.051473 7.522272 8.46489  Q 6.495659 6.878306 6.644985 5.963687  Q 6.79431 5.049068 7.923584 5.245058  Q 9.052858 5.441048 10.023474 5.310388  Q 8.567551 3.929127 8.567551 2.118556  L 8.567551 1.091943  Q 8.567551 0.550638 7.727594 0.737295  L 6.53299 0.737295  Q 6.346334 0.737295 5.898357 1.01728  Q 5.749032 1.334597 5.90769 1.455924  Q 6.066349 1.577251 6.225007 1.623915  Q 6.383665 1.670579 6.588987 1.77324  Q 6.79431 1.875902 6.831642 2.062558  Q 6.868973 2.249215 6.700982 2.379875  Q 6.53299 2.510535 6.094347 2.239882  Q 5.655703 1.96923 5.450381 1.913233  Q 5.245058 1.857236 5.235725 1.922566  Q 5.226392 1.987896 5.431715 2.062558  Q 5.637038 2.137221 5.870358 2.277214  Q 6.10368 2.417207 6.309002 2.65986  Q 5.935688 4.115784 5.935688 5.403717  Z  M 3.8078 1.96923  L 4.479765 1.96923  Q 4.06912 1.689245 3.8078 1.96923  Z  M 1.306598 8.016912  Q 0.746628 8.688877 0.746628 9.323511  Q 0.746628 9.958144 0.914619 9.958144  Q 1.063944 9.958144 1.129274 9.127521  Q 1.194604 8.296898 1.306598 8.016912  Z  M 7.372946 10.275461  Q 6.570322 9.118188 6.010351 7.848921  L 2.183885 7.848921  Q 2.818519 9.696824 4.283775 10.452785  Q 5.749032 11.208745 7.540937 11.432734  L 7.372946 10.275461  Z  M 7.932917 14.195255  L 7.634266 12.14203  Q 4.871744 11.806047 3.443819 10.676773  Q 2.015894 9.547499 1.922566 9.043526  Q 1.885234 10.686106 0.95195 10.686106  Q 0 10.686106 0 9.622162  Q 0 8.558218 0.270652 8.100908  Q 0.541305 7.643599 1.399927 7.270285  L 5.767697 7.270285  Q 4.89041 5.142397 5.637038 2.678526  Q 5.207726 2.510535 4.946407 2.314545  Q 4.685088 2.118556 3.602478 2.249215  L 3.079838 2.622529  L 3.079838 1.241268  Q 3.490484 0.606635 5.618372 0.606635  Q 6.10368 0.19599 6.53299 0.19599  L 7.727594 0.19599  Q 9.183518 -0.345315 9.164852 0.606635  L 9.276847 2.09989  Q 9.370175 3.817133 10.686106 4.965073  Q 12.002037 6.113012 12.935321 7.270285  L 18.777681 7.270285  Q 18.777681 9.024859 17.667072 9.91148  Q 16.556465 10.7981 16.089823 10.984756  Q 16.519133 11.582059 17.135101 12.627337  Q 18.367037 13.877938 20.093613 14.99788  Q 21.820189 16.117821 21.390877 17.46175  L 18.684353 15.707176  L 20.569588 17.872395  L 18.068386 17.872395  Q 17.321758 17.891062 16.733789 17.573744  Q 16.145819 17.256428 14.895218 15.707176  Q 13.644617 14.157924 12.076699 13.616619  Q 12.151362 14.139258 11.908709 15.277865  L 11.124749 14.904552  L 11.124749 17.013773  Q 11.442066 17.312426 12.179361 17.293758  Q 12.916656 17.275093 12.991319 17.471083  Q 13.065981 17.667072 12.879324 17.965723  Q 12.785995 17.68574 12.618005 17.863062  Q 12.450013 18.040386 11.834045 17.947058  L 6.029017 17.947058  Q 4.89041 18.040386 4.769083 17.779066  Q 4.647756 17.517748 4.442433 17.928392  Q 4.125117 17.480415 4.507763 17.26576  Q 4.89041 17.051105 5.357052 17.163099  Q 5.823694 17.275093 6.281004 17.060438  Q 6.738313 16.845783 7.466275 17.013773  Q 8.156905 15.184537 7.932917 14.195255  Z  M 13.401963 7.848921  Q 14.167256 8.614215 15.679177 10.443452  Q 18.068386 9.28618 17.95639 7.848921  L 13.401963 7.848921  Z "/></svg>
