<?xml version="1.0" encoding="UTF-8" standalone="no"?>
<svg
   xmlns:dc="http://purl.org/dc/elements/1.1/"
   xmlns:cc="http://web.resource.org/cc/"
   xmlns:rdf="http://www.w3.org/1999/02/22-rdf-syntax-ns#"
   xmlns:svg="http://www.w3.org/2000/svg"
   xmlns="http://www.w3.org/2000/svg"
   xmlns:sodipodi="http://sodipodi.sourceforge.net/DTD/sodipodi-0.dtd"
   xmlns:inkscape="http://www.inkscape.org/namespaces/inkscape"
   width="1800"
   height="1800"
   id="svg2"
   sodipodi:version="0.32"
   inkscape:version="0.45.1"
   sodipodi:docname="G65.svg"
   sodipodi:docbase="/home/rosmord/Desktop/tmp"
   inkscape:output_extension="org.inkscape.output.svg.inkscape"
   version="1.0">
  <metadata
     id="metadata9">
    <rdf:RDF>
      <cc:Work
         rdf:about="">
        <dc:format>image/svg+xml</dc:format>
        <dc:type
           rdf:resource="http://purl.org/dc/dcmitype/StillImage" />
      </cc:Work>
    </rdf:RDF>
  </metadata>
  <defs
     id="defs7" />
  <sodipodi:namedview
     inkscape:window-height="572"
     inkscape:window-width="753"
     inkscape:pageshadow="2"
     inkscape:pageopacity="0.0"
     guidetolerance="10.0"
     gridtolerance="10.0"
     objecttolerance="10.0"
     borderopacity="1.0"
     bordercolor="#666666"
     pagecolor="#ffffff"
     id="base"
     width="1800px"
     height="1800px"
     inkscape:zoom="0.20704414"
     inkscape:cx="656.94452"
     inkscape:cy="898.66135"
     inkscape:window-x="92"
     inkscape:window-y="146"
     inkscape:current-layer="svg2" />
  <path
     style="fill:#000000;stroke:none"
     d="M 315.34375 -11.5 C 306.02046 -11.33138 300.0108 -3.3349868 297.3125 12.46875 C 293.38789 35.456004 294.23695 61.532914 299.84375 90.6875 C 304.58053 115.31918 282.79671 164.72125 267.25 192.9375 C 255.56689 192.10985 243.81517 191.83614 232.125 191.96875 C 174.61792 192.78671 117.66734 202.02769 60.65625 208.40625 C 17.491435 230.24938 -32.354602 225.90359 -79.3125 229.125 C -113.36377 231.48732 -150.27107 238.02667 -175.6875 262.1875 C -207.3327 290.56261 -220.17977 332.74292 -237.65625 370.21875 C -242.96721 378.04267 -232.73238 371.39333 -228.6875 370.59375 C -178.15665 352.76704 -121.93919 351.53552 -70.59375 367.21875 C -18.410028 381.50286 30.865472 405.31452 83.375 418.84375 C 82.611244 484.7119 69.065469 550.03566 72.40625 616 C 78.58933 704.01937 120.49686 786.52844 179.40625 851.03125 C 196.5543 869.93009 215.02768 887.64423 234.65625 903.96875 C 292.96623 1036.684 377.87615 1154.8104 454.875 1277.0312 C 464.43003 1292.5452 473.90595 1308.1269 483.0625 1323.875 C 465.10237 1420.0746 440.29443 1514.8465 415.125 1609.4062 C 409.15444 1630.9556 402.95817 1652.4355 396.0625 1673.75 C 320.63758 1686.4607 243.60849 1689.7537 167.3125 1684.1562 C 140.91574 1686.5281 121.1894 1706.7803 103.0625 1724.125 C 75.832683 1751.7823 51.494798 1782.6362 20.9375 1806.75 C 334.18763 1809.2083 647.43769 1811.6905 960.6875 1814.1875 C 953.8044 1779.9341 927.52738 1753.7676 899.375 1735.3125 C 845.54762 1701.1205 783.15587 1681.3421 719.875 1674.5625 C 716.7281 1673.4087 708.30794 1676.1925 709.5 1672.3125 C 730.31119 1615.0727 752.29476 1557.0862 757.84375 1496.0312 C 759.37243 1496.1999 763.01463 1500.7476 765.3125 1502.1875 C 788.07791 1521.51 814.99889 1539.7077 845.9375 1540.1562 C 873.32917 1538.4185 899.08096 1519.9995 908.09375 1493.8438 C 910.22682 1488.625 911.8841 1483.3136 913.21875 1477.7812 C 965.333 1563.3183 1024.8858 1647.3144 1106.3438 1707.1875 C 1169.8105 1753.7003 1246.5288 1782.6621 1325.1875 1788.1562 C 1357.8558 1786.9642 1390.1935 1779.3581 1420.1562 1766.4688 C 1457.1417 1750.4283 1490.8251 1721.7845 1503.4688 1682.4375 C 1503.4744 1677.8636 1506.8425 1677.6688 1510.4062 1677.4688 C 1527.4038 1675.5957 1546.7066 1667.1353 1551.5 1649.2188 C 1557.2622 1627.1595 1545.7506 1605.5597 1535.125 1587 C 1510.7634 1547.1365 1475.0874 1515.7671 1445.4062 1479.875 C 1215.7536 1218.1681 1020.0363 928.41205 788.5 668.3125 C 758.49981 635.65831 724.40744 607.03204 689.1875 580.1875 C 613.676 523.37441 529.27963 479.35229 441.59375 444.5 C 424.89376 395.57679 427.61928 341.77833 408.375 293.5 C 398.12785 264.81933 383.72317 235.7826 359.34375 216.75 C 376.10319 157.62967 384.27356 69.56087 373.84375 46.09375 C 362.63036 20.863814 348.0662 3.2169363 330.125 -6.875 C 324.51829 -10.028751 319.58155 -11.576646 315.34375 -11.5 z M 277.09375 262.375 L 277.78125 262.4375 C 302.93056 264.58601 326.45939 280.8361 336.25 304.28125 C 348.56693 330.4363 352.74479 359.3265 357.25 387.65625 C 360.84944 421.65844 360.15874 458.43339 379.09375 488.25 C 387.59312 500.39184 401.69978 506.23329 415.3125 510.75 C 439.0006 520.13392 462.46267 530.25757 485.5 541.21875 C 471.42281 541.63834 457.96207 546.75101 444.65625 550.90625 C 400.83032 566.45246 359.91556 591.35599 326.59375 623.53125 C 294.84416 654.88944 271.38741 696.63661 269 742 C 266.54557 777.97203 274.59034 813.99638 288.96875 846.78125 C 231.79935 813.04991 187.55431 758.08122 167.96875 694.5 C 143.25223 618.46668 144.85949 537.09026 147.96875 458 C 149.42579 424.21064 151.47311 390.44947 152.84375 356.65625 C 90.549682 354.8744 33.939613 326.38257 -23.46875 305.21875 C -31.377269 302.34519 -39.14133 299.46835 -47.15625 297.03125 C -7.312059 291.46513 32.501007 285.09669 72.40625 280.40625 C 67.038407 285.07712 65.463853 292.88201 68.5625 299.28125 C 74.69775 315.88222 93.77105 322.3943 110 323.125 C 127.06154 324.38793 146.69483 321.16256 158.09375 307.3125 C 163.04849 300.21232 161.74271 289.7019 154.8125 284.40625 C 150.31138 279.36156 144.98424 274.99485 139.09375 271.75 C 161.5038 268.41383 183.91299 264.90661 206.40625 262.5625 C 211.68805 297.22737 203.75194 336.15405 177.15625 360.53125 C 171.90782 364.95755 165.81922 368.37896 159.375 370.875 C 164.92119 382.69722 170.39281 394.55428 175.875 406.40625 C 220.12907 385.90884 249.99426 343.5042 267.40625 299.15625 C 271.89342 287.2847 275.29205 274.96878 277.09375 262.375 z M 496.375 546.40625 C 497.48958 546.94792 498.60417 547.48958 499.71875 548.03125 C 576.79303 585.72123 649.56339 633.37135 712.0625 692.34375 C 737.64478 715.41503 756.60389 744.65139 778.8125 771 C 943.11453 975.87827 1112.8088 1176.227 1274.25 1383.4062 C 1299.6157 1415.5041 1325.1587 1447.5294 1351.0625 1479.1562 C 1098.7002 1295.3499 819.18776 1154.25 546.75 1003.3125 C 490.18345 971.77898 433.10431 937.44432 390.8125 887.71875 C 360.23853 851.02901 340.85833 804.91163 337.28125 757.25 C 334.51609 733.54482 335.47889 707.99726 348.40625 687.3125 C 369.74879 650.04638 404.447 622.97992 438.5625 597.84375 C 457.18771 584.24261 476.84091 571.92198 494.25 556.8125 C 496.5195 553.96982 497.8363 549.91293 496.375 546.40625 z M 362.4375 995.875 C 363.42708 997.07292 364.41667 998.27083 365.40625 999.46875 C 467.12899 1123.8341 552.76276 1260.5929 631.40625 1400.5625 C 640.86661 1410.7758 637.22217 1426.8704 629.4375 1436.9688 C 626.63269 1441.5127 623.3991 1445.8662 620.28125 1450.0938 C 577.25517 1319.2483 496.02184 1206.1709 421.9375 1091.625 C 401.39634 1060.0925 381.46975 1028.3063 362.4375 995.875 z M 494.5625 1053.0938 C 495.75 1053.7396 496.9375 1054.3854 498.125 1055.0312 C 764.71739 1199.1665 1030.5083 1345.8877 1282.25 1514.7812 C 1337.0648 1560.4328 1389.1469 1610.5873 1430.6875 1668.5312 C 1410.8533 1696.7607 1376.9065 1709.9642 1343.9375 1714.9688 C 1311.0309 1720.1671 1277.5231 1713.3521 1245.8438 1704.5625 C 1185.7782 1686.504 1134.2689 1648.3707 1092.2812 1602.4062 C 1011.2715 1515.1369 958.39959 1406.0067 882.25 1314.7812 C 863.87012 1292.9135 846.09779 1270.5393 828 1248.4375 C 834.13679 1307.823 841.42284 1367.1018 847.34375 1426.5 C 848.09895 1438.969 849.07546 1453.1068 842.125 1463.9375 C 837.60665 1467.0936 832.0054 1463.0791 830.1875 1458.7188 C 793.67235 1414.4535 757.13076 1370.2105 720.625 1325.9375 C 708.8764 1333.411 697.92814 1342.1058 686.3125 1349.7188 C 633.66875 1244.0336 562.47136 1149.2734 494.5625 1053.0938 z M 550.25 1465.6562 L 550.5625 1466.5938 L 550.875 1467.4688 C 564.51464 1506.9975 572.37939 1548.3339 581.5 1589.1562 C 606.62867 1568.8501 631.38599 1547.8497 653.5 1524.3438 C 644.55428 1565.7167 632.55892 1608.9331 603.9375 1641.1562 C 586.18063 1659.9018 556.97407 1669.8832 532.21875 1660.25 C 521.86285 1656.0627 515.14229 1646.1032 513.9375 1635.3125 C 508.65749 1606.5712 519.09786 1578.1391 526.46875 1550.7812 C 534.65781 1522.4694 543.13807 1494.2714 550.25 1465.6562 z "
     id="path4" />
</svg>
