<?xml version="1.0" encoding="UTF-8" standalone="no"?>
<!-- Created with Inkscape (http://www.inkscape.org/) -->
<svg
   xmlns:dc="http://purl.org/dc/elements/1.1/"
   xmlns:cc="http://web.resource.org/cc/"
   xmlns:rdf="http://www.w3.org/1999/02/22-rdf-syntax-ns#"
   xmlns:svg="http://www.w3.org/2000/svg"
   xmlns="http://www.w3.org/2000/svg"
   xmlns:sodipodi="http://inkscape.sourceforge.net/DTD/sodipodi-0.dtd"
   xmlns:inkscape="http://www.inkscape.org/namespaces/inkscape"
   sodipodi:docname="G7.svg"
   sodipodi:docbase="/home/rosmord/Travail/Gsigns/Ramessides/Fontes"
   inkscape:version="0.41.1"
   sodipodi:version="0.32"
   id="svg1290"
   height="1800.0000px"
   width="1800.0000px">
  <defs
     id="defs3" />
  <sodipodi:namedview
     inkscape:window-y="0"
     inkscape:window-x="0"
     inkscape:window-height="944"
     inkscape:window-width="1273"
     inkscape:current-layer="layer1"
     inkscape:document-units="px"
     inkscape:cy="410.12656"
     inkscape:cx="1901.9794"
     inkscape:zoom="0.20543407"
     inkscape:pageshadow="2"
     inkscape:pageopacity="0.0"
     borderopacity="1.0"
     bordercolor="#666666"
     pagecolor="#ffffff"
     id="base" />
  <metadata
     id="metadata4">
    <rdf:RDF
       id="RDF5">
      <cc:Work
         id="Work6"
         rdf:about="">
        <dc:format
           id="format7">image/svg+xml</dc:format>
        <dc:type
           rdf:resource="http://purl.org/dc/dcmitype/StillImage"
           id="type9" />
        <cc:license
           rdf:resource="http://creativecommons.org/licenses/by/2.0/"
           id="license1300" />
        <dc:subject
           id="subject1316">
          <rdf:Bag
             id="Bag1318">
            <rdf:li
               id="li1350">JSesh hieroglyph</rdf:li>
          </rdf:Bag>
        </dc:subject>
        <dc:creator
           id="creator3298">
          <cc:Agent
             id="Agent3300">
            <dc:title
               id="title3302">Serge Rosmorduc</dc:title>
          </cc:Agent>
        </dc:creator>
        <dc:description
           id="description3304">Karnak Hypostyle Hall
</dc:description>
      </cc:Work>
      <cc:License
         id="License1302"
         rdf:about="http://creativecommons.org/licenses/by/2.0/">
        <cc:permits
           id="permits1304"
           rdf:resource="http://web.resource.org/cc/Reproduction" />
        <cc:permits
           id="permits1306"
           rdf:resource="http://web.resource.org/cc/Distribution" />
        <cc:requires
           id="requires1308"
           rdf:resource="http://web.resource.org/cc/Notice" />
        <cc:requires
           id="requires1310"
           rdf:resource="http://web.resource.org/cc/Attribution" />
        <cc:permits
           id="permits1312"
           rdf:resource="http://web.resource.org/cc/DerivativeWorks" />
        <cc:requires
           id="requires1314"
           rdf:resource="http://web.resource.org/cc/ShareAlike" />
      </cc:License>
    </rdf:RDF>
  </metadata>
  <g
     id="layer1"
     inkscape:groupmode="layer"
     inkscape:label="Layer 1">
    <path
       id="path1295"
       d="M 543.90625 -12.093750 C 535.78550 -12.032885 527.59785 -11.716565 519.34375 -11.187500 L 519.31250 -11.187500 C 449.31304 -6.6607429 396.77175 21.725700 377.34375 66.343750 C 372.80940 76.753929 374.53681 88.844901 381.81250 97.562500 C 389.08819 106.28010 400.66542 110.13051 411.71875 107.53125 C 415.47936 106.64604 412.85737 106.67168 417.18750 107.68750 C 419.40404 108.20747 423.11249 109.27688 428.12500 110.56250 C 433.58876 127.49316 437.79551 137.65180 440.18750 144.06250 C 442.89355 151.31489 443.75811 153.89529 444.46875 164.18750 C 428.87621 219.93048 434.94330 275.90284 440.75000 304.31250 C 450.36703 351.36456 479.48667 402.88314 517.56250 451.68750 C 517.42959 455.31730 517.75978 458.97341 518.96875 462.50000 C 537.39330 518.90788 558.89441 595.52001 574.25000 666.96875 C 589.60559 738.41749 597.78738 806.93019 593.62500 836.90625 C 591.51248 852.11402 601.22209 866.46267 616.12500 870.15625 C 616.76547 870.31513 617.36549 870.54857 618.00000 870.71875 L 564.84375 1047.1562 C 522.18989 1040.8998 476.08739 1054.0072 448.34375 1047.9062 C 431.93896 1044.1500 376.90709 1057.3029 362.09375 1084.1875 L 251.18750 1084.1875 C 244.93453 1003.7913 202.51581 959.57090 123.90625 951.53125 C 44.403404 959.57088 3.3048628 1003.7914 0.62500000 1084.1875 L 0.62500000 1141.8125 L 54.218750 1141.8125 L 109.15625 1243.6562 L 287.37500 1243.6562 L 340.96875 1141.8125 L 499.06250 1141.8125 L 741.59375 1494.2188 L 741.59375 1803.7188 L 799.21875 1803.7188 L 799.21875 1141.8125 L 1254.8125 1141.8125 L 1254.8125 1100.5625 C 1258.1558 1104.1982 1261.5004 1107.8331 1264.8438 1111.4688 C 1271.7073 1118.9310 1281.8752 1122.4222 1291.8750 1120.7500 C 1350.3876 1110.9390 1408.8938 1101.1234 1467.4062 1091.3125 C 1478.1964 1089.5156 1487.1529 1081.9757 1490.7812 1071.6562 C 1494.4097 1061.3368 1492.1350 1049.8733 1484.8438 1041.7188 C 1462.9878 1017.2610 1440.8284 993.25293 1418.6562 969.40625 L 1585.7500 1078.2188 C 1599.6348 1087.2625 1618.2375 1083.3223 1627.2812 1069.4375 C 1636.3248 1055.5528 1632.3848 1036.9812 1618.5000 1027.9375 L 1482.8438 939.62500 C 1485.7110 937.28394 1488.4731 934.36630 1490.5312 930.43750 C 1495.4038 921.13655 1494.1177 911.54494 1492.5000 906.56250 C 1490.8823 901.58006 1489.1172 899.16936 1487.7188 897.25000 C 1482.1247 889.57255 1479.2297 888.31520 1475.2500 885.25000 C 1471.2703 882.18480 1466.8469 879.07998 1462.0312 875.78125 C 1452.4002 869.18378 1441.2615 861.93271 1431.6875 855.53125 C 1422.1135 849.12979 1413.1344 842.42146 1412.8438 842.15625 C 1411.9054 841.30262 1410.9138 840.50936 1409.8750 839.78125 C 1329.8998 783.50321 1249.8738 727.35825 1169.9375 671.12500 C 1169.6785 670.93559 1169.3888 670.80525 1169.1250 670.62500 C 1087.8797 556.63804 1010.9622 437.05778 921.28125 326.25000 C 877.60232 272.28132 826.67525 172.46447 738.46875 135.21875 C 733.60386 108.79509 722.66448 66.629596 689.68750 34.562500 C 653.45990 -0.66545122 600.75147 -12.519807 543.90625 -12.093750 z M 546.09375 48.093750 C 573.20668 48.327279 597.02853 52.263860 615.90625 59.093750 C 612.75516 81.629029 598.87859 116.49651 519.78125 137.06250 C 593.38633 131.73265 641.45601 125.71099 666.28125 106.09375 C 675.25027 126.30467 680.11277 149.16838 682.25000 162.25000 C 684.09044 173.50825 692.15623 182.74879 703.06250 186.09375 C 766.07665 205.41284 821.45642 298.30614 874.62500 364.00000 C 970.37753 482.30966 1053.2556 614.16359 1145.7188 740.56250 C 1103.0522 719.62647 1060.4308 698.68137 1017.5625 677.78125 C 898.37923 615.10166 776.04288 565.75526 673.93750 488.46875 C 614.54705 439.02142 555.71039 387.98182 533.62500 322.87500 C 525.99542 272.73684 563.55071 214.61391 611.06250 193.90625 C 624.02758 188.48569 631.49819 174.80312 629.03125 160.96875 C 626.56429 147.13437 614.82082 136.85510 600.78125 136.25000 C 596.06301 136.04334 591.36262 136.95344 587.06250 138.90625 C 549.06224 155.46838 516.52510 185.09298 495.87500 221.34375 C 496.86520 205.98601 499.05954 190.28643 503.40625 176.12500 C 504.44447 172.74839 504.87821 169.21496 504.68750 165.68750 C 503.67806 147.04061 500.50940 134.09045 496.40625 123.09375 C 492.30310 112.09705 487.85353 102.26673 480.50000 76.781250 C 478.72251 70.645513 475.03307 65.237252 469.96875 61.343750 C 484.08014 55.108118 501.80421 50.072110 523.15625 48.687500 C 527.45834 48.411748 531.57288 48.382861 535.75000 48.281250 C 524.10459 50.883889 515.37501 61.261041 515.37500 73.687500 C 515.37500 88.072454 527.05256 99.718753 541.43750 99.718750 C 555.82245 99.718750 567.50002 88.072457 567.50000 73.687500 C 567.50000 60.897224 558.25180 50.297307 546.09375 48.093750 z M 666.50000 596.06250 C 727.57587 643.07713 792.90694 684.18469 856.96875 725.18750 C 856.48056 769.42550 857.57011 813.88739 861.68750 858.50000 C 840.83308 844.88014 817.91397 834.63657 791.37500 828.15625 C 751.91887 764.06786 708.62838 705.05382 682.18750 642.37500 C 676.70864 629.38724 671.56129 613.21097 666.50000 596.06250 z M 641.40625 697.06250 C 668.94134 752.34616 704.08353 801.98201 735.06250 851.18750 C 729.11945 855.21532 723.75834 859.38117 719.46875 863.43750 C 718.35775 864.48809 717.74002 865.18972 716.71875 866.18750 C 699.69536 846.61097 678.91192 830.72320 654.84375 820.34375 C 655.77849 785.20997 650.08725 742.89026 641.40625 697.06250 z M 932.00000 701.68750 C 951.69417 711.42147 971.26652 721.21387 990.46875 731.31250 C 990.73752 731.45201 991.00838 731.58744 991.28125 731.71875 C 1069.9866 770.09101 1148.6211 809.52058 1228.2500 847.53125 C 1284.3842 915.14459 1344.9395 977.90412 1403.2500 1041.2188 C 1368.1651 1047.1015 1333.0849 1052.9922 1298.0000 1058.8750 C 1211.8209 965.16221 1125.6478 871.46282 1039.4688 777.75000 C 1038.2556 776.43620 1036.9274 775.23350 1035.5000 774.15625 C 1001.8701 748.65775 967.06871 724.82931 932.00000 701.68750 z M 916.90625 764.12500 C 944.50645 782.44152 971.52962 801.07941 997.37500 820.59375 C 1078.1702 908.45195 1158.9561 996.32682 1239.7500 1084.1875 L 991.96875 1084.1875 C 969.84163 1059.6370 918.35558 1037.3535 894.34375 1051.9688 C 873.13968 1050.1332 849.18564 1051.1306 824.78125 1052.5312 L 816.43750 900.68750 C 839.08408 912.27369 857.50345 929.09913 879.53125 955.28125 C 888.30582 965.68005 902.97961 968.87609 915.28125 963.06250 C 927.58291 957.24892 934.43233 943.88129 931.96875 930.50000 C 921.80908 875.67445 917.67044 820.21848 916.90625 764.12500 z M 670.53125 904.34375 C 676.37135 911.00231 681.82724 918.42216 686.84375 926.75000 C 691.17833 933.93761 698.33778 938.98162 706.56250 940.65625 C 714.78721 942.33088 723.32508 940.48301 730.12500 935.56250 C 742.72430 926.44105 750.38846 917.67769 756.90625 910.93750 L 764.71875 1053.5000 C 736.90010 1051.8063 708.07396 1049.4233 694.71875 1063.0312 C 682.01045 1053.2333 656.54031 1052.3197 625.62500 1053.4375 L 670.53125 904.34375 z M 123.90625 1005.1250 C 169.46407 1011.3780 193.11968 1037.7365 194.90625 1084.1875 L 54.218750 1084.1875 C 54.218750 1037.7364 77.455153 1011.3780 123.90625 1005.1250 z M 109.15625 1141.8125 L 287.37500 1141.8125 L 260.56250 1188.7188 L 134.62500 1188.7188 L 109.15625 1141.8125 z M 568.75000 1141.8125 L 742.93750 1141.8125 L 742.93750 1395.0625 L 568.75000 1141.8125 z "
       style="fill:#000000;fill-opacity:1.0000000;fill-rule:nonzero;stroke:none;stroke-width:60.000000;stroke-linecap:round;stroke-linejoin:round;stroke-miterlimit:4.0000000;stroke-opacity:1.0000000;display:inline" />
  </g>
</svg>
