<?xml version="1.0" encoding ="US-ASCII" standalone="yes"?>
<svg width="14.481278" height="17.976807">
<path style="fill:#000000; stroke:none" d=" M 7.490964 10.55581  Q 6.747283 9.733012 6.335884 9.100092  Q 6.288415 9.179207 5.829547 9.645986  Q 5.370679 10.112765 4.674467 10.049473  Q 3.978254 9.986181 3.187103 10.381757  Q 2.744058 10.666571 2.641208 11.07797  Q 2.538359 11.489367 2.585828 11.853297  Q 2.712412 11.900766 2.759881 11.805828  Q 2.728235 11.489367 2.80735 11.236199  Q 2.680766 10.983031 2.918111 10.8248  Q 3.187103 10.666571 3.345333 10.903916  Q 3.471917 11.220376 3.218749 11.362783  Q 3.044695 11.457722 2.949757 11.39443  Q 2.823173 11.505191 2.933934 11.932412  Q 2.933934 12.106465 2.96558 12.280519  L 3.820024 11.521014  Q 4.690289 10.571632 5.726697 10.698216  Q 6.763105 10.8248 7.490964 10.55581  Z  M 5.00675 6.172832  Q 4.801051 5.207628 4.516236 4.558885  Q 5.576379 4.084194 6.636521 4.875345  L 6.146008 4.100017  Q 5.101688 2.327838 3.756732 2.549361  Q 4.421299 5.63485 5.00675 6.172832  Z  M 3.64597 3.925964  Q 3.440271 2.897467 3.234572 2.312015  Q 4.294714 1.853148 5.21245 2.470246  L 4.864343 1.868971  Q 3.914962 0.2392 2.570005 0.476545  Q 2.870642 1.932263 3.06843 2.660122  Q 3.266218 3.387981 3.64597 3.925964  Z  M 5.370679 7.31209  Q 5.038396 6.932338 4.864343 6.6317  Q 3.930785 7.596905 3.234572 7.533612  Q 2.538359 7.47032 1.763031 7.865896  Q 1.304163 8.15071 1.201313 8.562109  Q 1.098464 8.973508 1.145933 9.337437  Q 1.272517 9.369083 1.335809 9.289968  Q 1.28834 8.957685 1.367455 8.720339  Q 1.240871 8.467171 1.478216 8.293118  Q 1.747208 8.15071 1.889615 8.372232  Q 2.016199 8.688693 1.763031 8.8311  Q 1.588977 8.941861 1.494039 8.862746  Q 1.383278 8.98933 1.494039 9.400729  Q 1.494039 9.590606 1.541508 9.764659  L 2.380129 9.020976  Q 3.250395 8.055772 4.286803 8.182356  Q 5.323211 8.308941 5.750432 8.087419  Q 5.497264 7.644373 5.370679 7.31209  Z  M 8.804276 5.698142  Q 8.978329 4.970283 8.748895 4.202867  Q 8.519461 3.43545 8.978329 3.308866  Q 9.975179 2.865821 9.864418 2.058847  Q 9.896064 1.505041 9.40555 1.615802  Q 8.471992 1.599979 8.313762 2.612653  Q 7.316911 3.815202 6.573229 4.036725  Q 7.585903 5.63485 8.076416 6.077895  Q 8.440346 6.093718 8.804276 5.698142  Z  M 9.421373 9.084269  Q 8.725161 8.372232 7.554256 6.331063  Q 6.414999 4.574708 5.054219 4.780407  Q 5.52891 6.536762 5.869105 7.430763  Q 6.2093 8.324763 7.823248 10.318464  Q 8.456169 10.951385 7.649195 11.782094  Q 6.842221 12.612803 6.138096 12.557422  Q 5.433972 12.502041 4.658644 12.881794  Q 4.199776 13.166608 4.096926 13.585918  Q 3.994077 14.005228 4.041546 14.369158  Q 4.16813 14.400804 4.215599 14.305865  Q 4.183953 13.989406 4.263068 13.736237  Q 4.136484 13.483068 4.373829 13.340661  Q 4.642821 13.182431 4.801051 13.403954  Q 4.927635 13.704591 4.674467 13.846998  Q 4.484591 13.957759 4.405475 13.894467  Q 4.278891 14.005228 4.389652 14.43245  Q 4.389652 14.606503 4.437121 14.796379  L 5.259919 14.036875  Q 6.146008 13.07167 7.190327 13.206165  Q 8.234647 13.340661 8.93086 13.087493  L 8.851745 12.723563  L 9.231497 12.502041  L 9.642896 13.799529  Q 10.08594 14.922963 10.497338 15.389743  Q 10.908737 15.856522 12.269517 17.391356  Q 13.187252 16.299566 12.000525 14.258396  Q 11.256844 12.596979 10.180878 10.508341  L 10.544807 10.286819  L 11.193551 11.55266  Q 11.510012 11.283669 11.731534 10.761509  Q 11.953056 10.239349 11.826472 9.843774  Q 11.699888 9.416552 11.668242 9.115914  Q 11.573304 8.419702 11.889765 8.340587  Q 12.886615 7.897542 12.775854 7.074745  Q 12.791677 6.520939 12.301163 6.647523  Q 11.256844 6.568408 11.288489 7.644373  Q 10.196701 8.846923 9.421373 9.084269  Z  M 8.108063 6.520939  Q 9.04162 8.166533 9.532134 8.593755  Q 9.816949 8.530463 10.354932 8.055772  Q 10.497338 7.739312 10.228347 6.845311  Q 9.959356 5.95131 10.434047 5.824726  Q 11.415073 5.397505 11.320136 4.574708  Q 11.320136 4.036725 10.845445 4.147486  Q 9.92771 4.131663 9.737834 5.429151  Q 9.453019 5.713965 8.962505 6.117452  Q 8.471992 6.520939 8.108063 6.520939  Z  M 11.383428 11.948236  Q 11.873941 12.976732 12.617623 14.353334  Q 13.899288 16.726788 12.190402 17.976807  Q 11.826472 17.502115 10.703038 16.354946  Q 9.579603 15.207778 9.073267 13.451423  Q 8.361231 13.688767 7.332734 13.570095  Q 6.304238 13.451423 5.433972 14.337512  L 4.642821 15.002079  Q 4.057369 15.571708 3.107988 16.299566  L 2.997226 16.15716  Q 2.712412 15.888167 3.17128 15.381831  Q 3.820024 14.606503 3.8042 14.210928  Q 3.756732 13.040024 4.484591 12.596979  Q 5.259919 12.122289 5.979866 12.17767  Q 6.699813 12.233049 7.198238 11.687156  Q 7.696664 11.141261 7.601726 10.951385  Q 6.921336 11.172908 5.884928 11.054235  Q 4.84852 10.935562 3.978254 11.821651  L 3.202926 12.502041  Q 2.601651 13.07167 1.65227 13.799529  L 1.541508 13.657122  Q 1.272517 13.38813 1.715562 12.865971  Q 2.348483 12.106465 2.348483 11.71089  Q 2.28519 10.524163 3.013049 10.096942  Q 3.8042 9.606428 4.524148 9.661809  Q 5.244095 9.71719 5.797901 9.100092  Q 6.082716 8.815277 6.082716 8.688693  L 5.956131 8.467171  L 5.971954 8.482994  Q 5.465618 8.657047 4.42921 8.538374  Q 3.392802 8.419702 2.538359 9.305791  L 1.763031 9.986181  Q 1.161756 10.55581 0.212375 11.283669  L 0.101613 11.125439  Q -0.167378 10.856447 0.275667 10.365933  Q 0.924411 9.590606 0.892765 9.179207  Q 0.845295 8.024126 1.573154 7.581081  Q 2.364305 7.090568 3.084253 7.145948  Q 3.8042 7.201329 4.176042 6.797842  Q 4.547883 6.394355 4.611175 6.251948  Q 4.183953 5.856372 3.820024 4.622177  Q 2.80735 3.720264 2.522536 2.185431  Q 2.237721 0.808828 2.016199 0.2392  Q 3.899139 -0.583598 5.046308 1.410103  Q 6.193477 3.403804 6.557406 3.609503  Q 7.016274 3.59368 8.060594 2.39113  Q 8.060594 1.378457 9.547957 1.299342  Q 9.801126 0.87212 10.465693 0.91959  Q 10.528985 1.631625 10.149232 1.837325  Q 10.449869 3.024051 9.24732 3.530388  Q 8.899214 3.656972 9.342258 5.239275  Q 9.500488 3.894318 11.003675 3.815202  Q 11.24102 3.387981 11.905587 3.43545  Q 11.96888 4.147486 11.60495 4.353185  Q 11.873941 5.492443 11.035321 5.840549  Q 10.877091 5.95131 10.560631 6.141187  Q 10.354932 6.188656 10.797976 7.612728  L 10.956206 7.422852  L 10.956206 7.407028  Q 10.892914 6.251948 12.459394 6.331063  Q 12.696738 5.903841 13.361305 5.95131  Q 13.44042 6.647523 13.060668 6.853222  Q 13.329659 7.976657 12.475216 8.372232  Q 12.222048 8.577932 12.032171 8.67287  L 12.032171 8.67287  Q 11.889765 8.957685 12.28534 10.033649  L 12.28534 10.017827  Q 12.854969 10.302641 14.16828 11.046323  Q 14.611324 11.299492 14.429359 11.908678  Q 14.247395 12.517864 14.160368 12.058996  Q 14.073341 11.600129 14.002138 11.869121  Q 13.930934 12.138112 13.859731 12.359634  Q 13.788527 12.581157 13.614473 12.612803  Q 13.456244 12.454572 13.567005 11.900766  Q 13.835996 11.362783 13.22681 11.014677  Q 12.617623 10.666571 12.111287 10.698216  Q 12.047995 10.903916 11.842296 11.331138  Q 12.28534 11.615952 13.503713 12.533688  Q 13.978403 12.850147 13.630297 13.467245  Q 13.28219 14.084343 13.290102 13.59383  Q 13.298014 13.103316 13.155606 13.380219  Q 13.013199 13.657122 12.878703 13.878644  Q 12.744207 14.100166 12.554332 14.11599  Q 12.44357 13.91029 12.680916 13.372308  Q 13.12396 12.834325 12.530597 12.399192  Q 11.937234 11.964059 11.367605 11.948236  L 11.383428 11.948236  Z "/></svg>
