<?xml version="1.0" encoding ="US-ASCII" standalone="yes"?>
<svg width="18.509741" height="17.976807">
<path style="fill:#000000; stroke:none" d=" M 6.284773 16.281069  L 7.292141 15.441596  Q 8.400247 14.367069 9.634274 14.526569  Q 10.868299 14.686069 12.194669 14.073254  Q 13.521037 13.460438 14.561985 12.57899  Q 15.602932 11.697542 15.241959 10.463516  Q 14.880984 9.229489 15.418248 9.111963  Q 16.62709 8.658648 16.543142 7.701647  Q 16.593512 7.046858 16.00588 7.147594  Q 14.931354 7.080437 14.679511 8.2557  Q 13.722511 9.2127 12.815879 9.791937  Q 11.909247 10.371174 11.363589 11.328175  Q 10.817931 12.285174 10.137958 13.032306  Q 9.457984 13.779438 8.526168 13.703885  Q 7.594352 13.628332 6.637352 14.048069  Q 6.083299 14.35028 5.948984 14.837174  Q 5.814668 15.324069 5.831457 15.760596  Q 5.982563 15.794175 6.04972 15.693438  Q 6.032931 15.324069 6.133668 15.021859  Q 5.999352 14.719648 6.284773 14.551754  Q 6.603773 14.383859 6.788457 14.66928  Q 6.905983 15.021859 6.620563 15.189754  Q 6.402299 15.30728 6.284773 15.223332  Q 6.150457 15.357649 6.251194 15.861333  Q 6.234405 16.062807 6.284773 16.281069  Z  M 4.051773 13.107859  L 5.075931 12.268385  Q 6.167247 11.193858 7.409668 11.353358  Q 8.652089 11.512858 9.978457 10.900043  Q 11.304827 10.287227 12.337379 9.405779  Q 13.369932 8.524332 13.008958 7.290305  Q 12.647985 6.056279 13.202037 5.938753  Q 14.39409 5.485436 14.326932 4.528437  Q 14.3773 3.873647 13.789669 3.974384  Q 12.715142 3.907226 12.44651 5.099278  Q 11.5063 6.039489 10.591273 6.627121  Q 9.676248 7.214753 9.138984 8.163358  Q 8.601721 9.111963 7.913352 9.859095  Q 7.224984 10.606227 6.293168 10.530674  Q 5.361352 10.455121 4.421141 10.874858  Q 3.867089 11.177069 3.724378 11.663963  Q 3.581667 12.150859 3.615246 12.570596  Q 3.766352 12.637753 3.833509 12.520227  Q 3.799931 12.150859 3.917457 11.865438  Q 3.783141 11.546437 4.051773 11.378543  Q 4.387562 11.227437 4.572247 11.512858  Q 4.689773 11.865438 4.387562 12.016542  Q 4.169299 12.134069 4.068562 12.050121  Q 3.917457 12.184438 4.034983 12.688122  Q 4.001404 12.889595 4.051773 13.107859  Z  M 1.869141 9.917858  L 2.893299 9.061595  Q 4.001404 7.987069 5.235431 8.146568  Q 6.469457 8.306068 7.795826 7.701647  Q 9.122194 7.097226 10.163142 6.215779  Q 11.204089 5.334332 10.843116 4.09191  Q 10.482142 2.849489 11.019405 2.731962  Q 12.211458 2.278647 12.1443 1.321647  Q 12.194669 0.683647 11.607037 0.767594  Q 10.532511 0.700436 10.280668 1.892489  Q 9.323668 2.832699 8.417036 3.420331  Q 7.510405 4.007963 6.964747 4.956568  Q 6.419089 5.905173 5.730721 6.652305  Q 5.042352 7.399437 4.118931 7.332279  Q 3.195509 7.265121 2.255299 7.668068  Q 1.684457 7.987069 1.541746 8.465569  Q 1.399036 8.944069 1.432614 9.380595  Q 1.58372 9.430964 1.650878 9.313437  Q 1.634088 8.944069 1.734825 8.658648  Q 1.600509 8.339647 1.88593 8.171753  Q 2.22172 8.020647 2.389615 8.306068  Q 2.507141 8.658648 2.22172 8.809752  Q 1.986667 8.927279 1.88593 8.860121  Q 1.751615 8.977648 1.852351 9.481332  Q 1.835562 9.699595 1.869141 9.917858  Z  M 12.16109 4.813858  Q 12.228248 3.621805 13.991142 3.621805  Q 14.310143 3.11812 15.082458 3.218857  Q 15.116037 4.058331 14.679511 4.276594  Q 14.931354 5.68691 13.504248 6.224174  Q 13.353143 6.476016 13.571405 7.399437  Q 13.789669 8.322858 13.386722 8.809752  L 14.39409 7.970279  Q 14.444458 6.778226 16.224142 6.778226  Q 16.543142 6.291331 17.29867 6.392068  Q 17.349037 7.231542 16.895721 7.449805  Q 17.164354 8.860121 15.720458 9.380595  Q 15.586143 9.766753 15.871564 11.009174  L 15.888353 10.992385  Q 16.643879 11.47928 18.154932 12.570596  Q 18.708984 12.939964 18.39838 13.661911  Q 18.087774 14.383859 18.029011 13.804622  Q 17.970249 13.225385 17.844328 13.55278  Q 17.718407 13.880175 17.609274 14.140411  Q 17.500143 14.400648 17.265091 14.417438  Q 17.113985 14.182385 17.315458 13.544385  Q 17.735195 12.923175 17.021643 12.411096  Q 16.30809 11.899016 15.6533 11.865438  Q 15.552564 12.134069 15.233563 12.604175  Q 15.737248 13.023911 17.164354 14.316701  Q 17.684828 14.753227 17.181143 15.46678  Q 16.677458 16.180332 16.744617 15.575912  Q 16.811775 14.971491 16.601906 15.29049  Q 16.392038 15.60949 16.198959 15.869727  Q 16.00588 16.129965 15.754038 16.129965  Q 15.636511 15.861333 16.00588 15.223332  Q 16.62709 14.635701 15.955511 14.022885  Q 15.283932 13.410069 14.578774 13.309332  Q 13.823248 13.913754 12.396142 14.560148  Q 10.969037 15.206543 9.760195 15.00507  Q 8.551353 14.803596 7.476826 15.794175  L 6.519825 16.549702  Q 5.797878 17.187702 4.622615 17.976807  L 4.505089 17.808912  Q 4.202878 17.473122 4.756931 16.902281  Q 5.546036 16.012438 5.562826 15.559122  Q 5.562826 14.165596 6.435878 13.69549  Q 7.577563 13.158227 8.626904 13.208595  Q 9.676248 13.258964 10.582879 11.630384  Q 10.868299 11.14349 10.985826 10.975595  Q 10.582879 11.210648 9.659458 11.630384  Q 8.736036 12.050121 7.535589 11.840253  Q 6.335142 11.630384 5.260615 12.637753  L 4.303615 13.376491  Q 3.581667 14.01449 2.406404 14.820385  L 2.288878 14.635701  Q 1.969878 14.299911 2.54072 13.745859  Q 3.329825 12.856016 3.346615 12.385911  Q 3.346615 11.009174 4.219667 10.52228  Q 5.344563 9.985016 6.393905 10.035384  Q 7.443247 10.085753 8.366668 8.457173  L 8.819983 7.768806  Q 8.417036 8.003858 7.493615 8.423594  Q 6.570194 8.843331 5.361352 8.633463  Q 4.15251 8.423594 3.077983 9.430964  L 2.120983 10.169701  Q 1.399036 10.8077 0.223772 11.613595  L 0.106246 11.428911  Q -0.195965 11.109911 0.358088 10.539069  Q 1.147193 9.649226 1.163983 9.179121  Q 1.163983 7.802384 2.053825 7.315489  Q 3.161931 6.795016 4.219667 6.836989  Q 5.277404 6.878963 6.192431 5.258779  Q 7.107457 3.638594 8.072852 3.101331  Q 9.038247 2.564068 9.978457 1.607068  Q 10.045615 0.415015 11.8253 0.415015  Q 12.1443 -0.07188 12.899827 0.012067  Q 12.950195 0.851541 12.49688 1.069804  Q 12.765511 2.48012 11.338406 3.017384  Q 11.153721 3.319594 11.371984 4.217831  Q 11.590247 5.116068 11.237668 5.653331  L 12.16109 4.813858  Z "/></svg>
