<?xml version="1.0" encoding ="US-ASCII" standalone="yes"?>
<svg width="16.236677" height="17.977417">
<path style="fill:#000000; stroke:none" d=" M 3.022747 0.374924  C 3.231252 0.374924 3.524952 0.409481 3.738885 0.475102  C 4.167377 0.606536 4.309588 0.721321 4.255412 0.892014  C 4.164823 1.177432 3.888991 1.414614 3.517737 1.526321  L 3.149915 1.636995  L 3.566471 1.686096  C 3.682167 1.699734 3.772375 1.707361 3.850837 1.707361  C 4.009732 1.707361 4.120451 1.676079 4.297122 1.600077  C 4.469873 1.525761 4.611216 1.43933 4.611216 1.408009  C 4.611216 1.376686 4.64032 1.351059 4.67589 1.351059  C 4.711461 1.351059 4.78769 1.52056 4.845288 1.727727  C 4.943331 2.080371 4.971509 2.115651 5.287063 2.280865  C 5.472441 2.377923 5.787227 2.624893 5.986588 2.829688  C 6.434978 3.2903 8.128947 5.515384 9.286164 7.163789  C 9.762622 7.842482 10.332279 8.646198 10.552071 8.949823  C 10.771862 9.25345 10.973496 9.538404 11.000149 9.583055  C 11.026328 9.626912 11.025019 9.661915 10.997578 9.661915  C 10.99708 9.661915 10.996576 9.661903 10.996063 9.66188  C 10.838943 9.654829 5.527013 6.907765 5.034825 6.579027  C 4.208921 6.027393 3.201034 5.012278 2.927892 4.456982  C 2.729061 4.052759 2.720047 4.006449 2.795166 3.775041  C 2.891885 3.477093 3.190678 3.016681 3.630656 2.487627  C 3.844511 2.230477 3.924272 2.09109 3.865179 2.077787  C 3.854895 2.075472 3.843805 2.074343 3.831971 2.074343  C 3.537311 2.074343 2.781706 2.774498 2.526911 3.297938  C 2.440915 3.474603 2.345321 3.620283 2.314479 3.621671  C 2.31441 3.621674 2.314343 3.621676 2.314275 3.621676  C 2.28361 3.621676 2.277568 3.309167 2.300878 2.926017  C 2.324239 2.54202 2.344164 2.131696 2.345155 2.014185  C 2.347022 1.7927 2.10773 0.988046 1.999112 0.850567  C 1.917973 0.74787 1.978913 0.657788 2.210562 0.537998  C 2.294676 0.494501 2.340885 0.472727 2.36189 0.472727  C 2.382977 0.472727 2.378666 0.494669 2.361806 0.538605  C 2.27487 0.765158 2.428258 0.985699 2.618847 0.985699  C 2.661788 0.985699 2.706617 0.974504 2.751011 0.94966  C 2.875086 0.880223 2.893184 0.56826 2.779719 0.454795  C 2.725718 0.400794 2.842343 0.374924 3.022747 0.374924  Z  M 4.324688 7.139404  C 4.352695 7.139404 4.583212 7.295953 4.851355 7.497632  C 5.130066 7.70726 5.755653 8.136967 6.241547 8.452536  L 7.124991 9.026298  L 7.162098 10.042974  C 7.182507 10.602145 7.194121 11.062007 7.187908 11.064889  C 7.187816 11.064932 7.187688 11.064954 7.187526 11.064954  C 7.176804 11.064954 7.014747 10.971524 6.823341 10.85492  C 6.629042 10.736554 6.374294 10.621741 6.257233 10.599781  C 6.068206 10.56432 5.98703 10.467976 5.531632 9.738602  C 5.249613 9.286914 4.937165 8.756607 4.837302 8.560143  C 4.64878 8.189255 4.283329 7.181548 4.322331 7.14014  C 4.322796 7.139647 4.323585 7.139404 4.324688 7.139404  Z  M 3.606458 6.515076  C 3.637844 6.515076 3.754054 6.815037 3.924593 7.389896  C 4.208426 8.346649 4.505042 8.972427 5.156541 9.988972  L 5.635218 10.735859  L 5.431714 10.911823  C 5.319787 11.008603 5.212023 11.088974 5.19224 11.090426  C 5.192096 11.090437 5.191946 11.090443 5.191791 11.090443  C 5.170814 11.090443 5.059338 10.993055 4.942775 10.872793  C 4.825352 10.751644 4.632946 10.600643 4.515205 10.537236  C 4.312193 10.427905 4.298932 10.398181 4.258523 9.961911  C 4.195036 9.27649 3.98752 8.177765 3.744845 7.242161  C 3.617601 6.751589 3.578589 6.515076 3.606458 6.515076  Z  M 4.618825 11.193385  C 4.65833 11.193385 4.729043 11.259154 4.847864 11.402199  C 4.973677 11.553661 5.107714 11.677586 5.145724 11.677586  C 5.183733 11.677586 5.339194 11.57568 5.491191 11.451131  L 5.76755 11.224674  L 5.807534 11.986941  C 5.829524 12.406187 5.86105 12.873418 5.877591 13.02523  L 5.907665 13.301253  L 5.514958 13.301253  C 5.298969 13.301253 5.073027 13.326808 5.012864 13.358042  C 4.981123 13.374518 4.936157 13.382875 4.890265 13.382875  C 4.849171 13.382875 4.807333 13.376176 4.773583 13.362606  C 4.702142 13.333884 4.487126 13.308329 4.295771 13.305819  C 4.045567 13.302536 3.956557 13.278453 3.978847 13.22007  C 3.995895 13.175419 4.131817 12.729722 4.280898 12.229632  C 4.429978 11.729544 4.567064 11.276826 4.585533 11.223596  C 4.592439 11.203693 4.603187 11.193385 4.618825 11.193385  Z  M 5.894683 7.658885  C 5.913544 7.658885 7.20498 8.290935 8.802692 9.082235  L 11.758286 10.546055  L 12.649837 11.541418  C 13.14019 12.088867 13.66817 12.679491 13.823127 12.853916  C 14.144843 13.216053 14.17596 13.187449 13.306031 13.329258  C 12.962259 13.385298 12.624344 13.431147 12.555107 13.431147  C 12.473433 13.431147 11.86043 12.812066 10.809591 11.668321  C 9.918795 10.698768 9.039304 9.793893 8.855168 9.657491  C 8.671034 9.521087 7.940383 9.024965 7.231501 8.554998  C 6.522619 8.085031 5.921131 7.68204 5.894862 7.659464  C 5.894412 7.659078 5.894354 7.658885 5.894683 7.658885  Z  M 7.598764 9.334763  L 8.191466 9.743051  C 8.680303 10.079789 9.046589 10.435871 10.28166 11.775006  C 11.105282 12.668023 11.837344 13.464433 11.908467 13.544804  L 12.037784 13.690933  L 10.321611 13.687281  L 8.605439 13.683626  L 8.258335 13.482706  C 7.982878 13.323257 7.908905 13.290472 7.514136 13.290472  C 7.429063 13.290472 7.329092 13.291994 7.208997 13.2941  L 6.506761 13.306414  L 6.467207 12.735548  C 6.445453 12.421575 6.411499 11.938184 6.391752 11.661349  C 6.372007 11.384514 6.381363 11.158012 6.412546 11.158012  C 6.526954 11.158012 7.052744 11.535111 7.259369 11.765358  C 7.406549 11.929361 7.470767 11.992757 7.536229 11.992757  C 7.572074 11.992757 7.608292 11.973749 7.658706 11.941841  C 7.737338 11.892074 7.739649 11.763885 7.6742 11.082292  C 7.631893 10.641708 7.597612 10.068275 7.598022 9.807998  L 7.598764 9.334763  Z  M 15.392369 14.535242  L 15.392369 15.606862  C 15.392369 16.196253 15.379963 16.678482 15.364799 16.678482  C 15.349635 16.678482 14.894424 16.196253 14.353223 15.606862  L 13.369217 14.535242  Z  M 3.05345 0  C 2.245111 0 1.46556 0.282888 1.187064 0.696148  C 0.984865 0.996191 0.997184 1.091273 1.238257 1.091273  C 1.347768 1.091273 1.491456 1.120221 1.557566 1.155601  C 1.718146 1.241541 1.903581 1.819006 1.878073 2.1537  C 1.866798 2.301639 1.85609 2.729553 1.854277 3.104621  C 1.850294 3.928907 1.977748 4.323477 2.508671 5.130466  C 2.700612 5.422212 2.857655 5.688948 2.857655 5.723213  C 2.857655 5.757477 2.946849 6.074549 3.055864 6.427817  C 3.444774 7.688104 3.831856 9.669986 3.831856 10.400938  C 3.831856 10.624822 3.861849 10.714868 3.9526 10.763435  C 4.066848 10.824579 4.054506 10.890042 3.723196 11.980151  C 3.530614 12.613802 3.362741 13.14255 3.350145 13.155147  C 3.337549 13.167742 2.87818 13.185097 2.329325 13.193711  C 1.454822 13.207438 1.298742 13.226518 1.067276 13.347987  C 0.922004 13.424226 0.764988 13.532576 0.718354 13.588767  C 0.66244 13.656137 0.525674 13.690933 0.316781 13.690933  L 0 13.690933  L 0 14.113088  L 0 14.535242  L 6.121227 14.537681  L 12.242455 14.540121  L 13.801175 16.257801  L 15.359897 17.975485  L 15.798286 17.97645  L 16.236677 17.977417  L 16.236677 15.834174  L 16.236677 13.690933  L 15.181293 13.6847  C 14.230124 13.67908 14.157975 13.671041 14.450642 13.603277  C 14.977589 13.481271 14.94192 13.375355 14.048775 12.409941  C 13.336129 11.639636 13.087419 11.355938 13.128322 11.355938  C 13.132769 11.355938 13.140639 11.359291 13.15171 11.365738  C 13.187428 11.386539 13.563225 11.612455 13.98681 11.867774  C 14.78912 12.351373 15.254528 12.599157 15.340216 12.599157  C 15.411409 12.599157 15.220491 12.428117 14.742903 12.079171  C 14.290405 11.748558 14.155911 11.64919 14.213144 11.64919  C 14.236457 11.64919 14.291593 11.665681 14.370008 11.689748  C 14.45682 11.716391 14.554437 11.731458 14.625759 11.731458  C 14.659074 11.731458 14.686652 11.72817 14.704713 11.72124  C 14.872669 11.65679 14.829218 11.372258 14.629247 11.227047  C 14.531014 11.155716 13.626561 10.519175 12.619349 9.812511  L 10.788054 8.527671  L 9.834644 7.163789  C 8.559184 5.339203 6.82222 3.031058 6.372226 2.56279  C 6.171666 2.354084 5.854134 2.095567 5.6666 1.988306  C 5.479067 1.881045 5.32563 1.753334 5.32563 1.704503  C 5.32563 1.440214 5.022154 0.846558 4.745757 0.57016  C 4.388414 0.212818 4.004939 0.062919 3.312282 0.009822  C 3.226059 0.003213 3.139591 0 3.05345 0  Z "/></svg>
