<?xml version="1.0" encoding="UTF-8" standalone="no"?>
<!-- Created with Inkscape (http://www.inkscape.org/) -->
<svg
   xmlns:dc="http://purl.org/dc/elements/1.1/"
   xmlns:cc="http://web.resource.org/cc/"
   xmlns:rdf="http://www.w3.org/1999/02/22-rdf-syntax-ns#"
   xmlns:svg="http://www.w3.org/2000/svg"
   xmlns="http://www.w3.org/2000/svg"
   xmlns:sodipodi="http://inkscape.sourceforge.net/DTD/sodipodi-0.dtd"
   xmlns:inkscape="http://www.inkscape.org/namespaces/inkscape"
   sodipodi:docname="G8.svg"
   sodipodi:docbase="/home/rosmord/Travail/Gsigns/Ramessides/Fontes"
   inkscape:version="0.43"
   sodipodi:version="0.32"
   id="svg1290"
   height="1800"
   width="1800"
   version="1.0"
   inkscape:export-filename="/home/rosmord/Desktop/G8.png"
   inkscape:export-xdpi="104.76175"
   inkscape:export-ydpi="104.76175">
  <defs
     id="defs3" />
  <sodipodi:namedview
     inkscape:window-y="0"
     inkscape:window-x="0"
     inkscape:window-height="959"
     inkscape:window-width="1280"
     inkscape:current-layer="layer1"
     inkscape:document-units="px"
     inkscape:cy="937.59773"
     inkscape:cx="-241.23564"
     inkscape:zoom="0.2329524"
     inkscape:pageshadow="2"
     inkscape:pageopacity="0.0"
     borderopacity="1.0"
     bordercolor="#666666"
     pagecolor="#ffffff"
     id="base" />
  <metadata
     id="metadata4">
    <rdf:RDF>
      <cc:Work
         rdf:about="">
        <dc:format>image/svg+xml</dc:format>
        <dc:type
           rdf:resource="http://purl.org/dc/dcmitype/StillImage" />
        <cc:license
           rdf:resource="http://creativecommons.org/licenses/by-sa/2.0/" />
        <dc:subject>
          <rdf:Bag>
            <rdf:li>JSesh hieroglyph</rdf:li>
          </rdf:Bag>
        </dc:subject>
        <dc:creator>
          <cc:Agent>
            <dc:title>Serge Rosmorduc</dc:title>
          </cc:Agent>
        </dc:creator>
        <dc:description>Combination of G5 from 
Karnak Hypostyle Hall
and S12 from Luxor Obelisk.
</dc:description>
        <dc:title>G8</dc:title>
      </cc:Work>
      <cc:License
         rdf:about="http://creativecommons.org/licenses/by/2.0/">
        <cc:permits
           rdf:resource="http://web.resource.org/cc/Reproduction" />
        <cc:permits
           rdf:resource="http://web.resource.org/cc/Distribution" />
        <cc:requires
           rdf:resource="http://web.resource.org/cc/Notice" />
        <cc:requires
           rdf:resource="http://web.resource.org/cc/Attribution" />
        <cc:permits
           rdf:resource="http://web.resource.org/cc/DerivativeWorks" />
        <cc:requires
           rdf:resource="http://web.resource.org/cc/ShareAlike" />
      </cc:License>
    </rdf:RDF>
  </metadata>
  <g
     id="layer1"
     inkscape:groupmode="layer"
     inkscape:label="Layer 1">
    <path
       style="fill:#000000"
       d="M 4.7842732,1803.4968 C 3.9512486,1662.7877 -16.056975,1519.0794 8.3758956,1379.8849 C 25.355806,1283.15 137.07104,1235.9472 228.15168,1238.7918 C 285.6648,1240.5881 320.04461,1220.4448 366.45677,1192.8716 C 419.59584,1161.3019 491.66137,1186.648 554.15041,1181.6252 C 605.1937,1169.1306 628.8608,1063.4837 642.54232,1012.4235 C 657.70546,955.83393 616.61934,952.18131 616.88987,896.56605 C 617.53891,763.13597 563.91098,630.4244 521.42271,503.41852 C 457.64522,429.18164 409.04699,330.64217 431.49808,232.5403 C 443.70877,179.18469 428.57027,88.060568 356.89617,108.23997 C 355.96325,39.599676 443.35261,18.965481 500.07217,8.554341 C 587.91255,-7.5691738 701.17848,9.3165087 744.96446,96.93017 C 749.3579,169.22589 814.45371,181.57627 858.75378,225.83346 C 930.83696,297.84688 986.99871,384.12906 1053.1167,461.62101 C 1132.5639,561.7762 1204.0854,668.72966 1283.2839,768.62652 C 1406.6042,851.19648 1537.8534,924.54583 1653.4196,1016.1154 C 1706.1406,1057.8892 1577.0458,1046.6579 1643.626,1076.6594 C 1665.3779,1086.4609 1758.878,1160.8166 1686.4839,1129.1851 C 1626.0922,1102.7978 1569.6298,1062.4306 1511.7035,1034.9127 C 1559.2251,1087.8981 1612.4891,1135.6642 1658.7579,1189.7904 C 1647.8421,1250.7669 1545.8434,1221.87 1497.7471,1244.205 C 1426.269,1277.398 1381.7435,1222.1915 1339.2522,1173.9435 C 1254.8437,1089.0045 1177.6909,995.09369 1087.792,917.15896 C 1058.4693,891.7387 1009.087,853.93117 980.8186,855.36611 C 979.90726,922.98413 1004.8192,993.15003 995.38339,1057.3303 C 984.18922,1133.4709 898.52808,983.13583 865.41786,1014.9119 C 868.62121,1073.8665 871.83342,1132.8301 876.0734,1191.7193 C 942.35636,1197.0598 1018.1879,1172.001 1071.1885,1226.3992 C 1098.1558,1239.9655 1134.987,1231.6644 1165.4894,1233.7739 C 1259.6341,1240.2847 1367.9707,1239.179 1436.1006,1316.366 C 1488.5364,1375.7725 1474.4982,1458.6804 1477.8151,1530.8559 C 1482,1621.9196 1473.8857,1713.2122 1473.144,1804.3567 C 1436.4318,1803.6825 1399.5106,1805.9319 1362.9529,1802.9282 C 1371.6284,1672.0426 1382.4372,1537.9846 1356.1941,1408.6604 C 1347.0797,1363.7454 1286.1149,1347.9321 1252.9497,1377.1328 C 1102.5428,1459.6855 940.45258,1532.3779 764.6726,1534.8348 C 615.95269,1536.9135 473.34454,1492.2244 339.67711,1431.1566 C 281.24618,1404.4617 217.7129,1333.0476 154.05028,1370.6072 C 96.147176,1404.7689 111.37807,1488.6985 107.52202,1548.9144 C 102.10819,1633.4563 107.75319,1718.5655 115.37285,1802.9902 C 78.756349,1805.7199 41.519059,1804.3154 4.7842732,1803.4968 z M 792.03567,1480.6065 C 926.61467,1476.1657 1052.7439,1422.6004 1168.9463,1359.1663 C 961.16973,1356.9159 752.83735,1368.6225 544.80944,1361.5439 C 469.74045,1358.9895 394.62042,1358.0557 319.51285,1357.0211 C 377.02599,1393.9463 462.02582,1422.6493 527.72642,1446.2989 C 617.49297,1478.6112 697.18291,1483.7364 792.03567,1480.6065 z M 1307.6341,1303.2908 C 1257.7936,1284.5969 1193.6336,1288.2787 1138.0178,1286.8198 C 900.6754,1280.5938 662.8589,1281.7509 425.4215,1287.284 C 397.64506,1283.3707 342.15429,1304.4264 400.75389,1303.9987 C 560.04108,1309.3506 1165.1938,1312.2735 1307.6341,1303.2908 z M 1511.9806,1195.0988 C 1543.8974,1189.1276 1613.2662,1198.2489 1559.307,1153.2319 C 1487.2068,1093.0804 1428.0853,1016.1353 1363.2449,948.21348 C 1193.6061,872.04837 1026.617,789.58143 857.38915,712.91417 C 965.2109,788.48703 1088.9308,844.09794 1179.829,942.37928 C 1263.4327,1032.7736 1351.0213,1119.5629 1438.0626,1206.7163 C 1462.7275,1203.0107 1487.4721,1199.6841 1511.9806,1195.0988 z M 728.95045,1198.1368 C 765.45009,1186.551 819.09452,1215.2518 818.94861,1150.4985 C 818.85853,1110.5177 814.4597,1038.3822 795.92888,1017.8213 C 766.29473,1066.206 721.01111,1052.0453 696.95491,1009.8443 C 681.59825,1068.165 645.61948,1138.8218 645.58353,1190.8269 C 673.80688,1188.2537 704.76673,1205.8132 728.95045,1198.1368 z M 758.92898,986.93872 C 823.55946,954.09447 732.06758,889.60163 710.41267,849.02582 C 666.46468,766.67845 629.20309,679.9104 603.76328,589.91257 C 605.60389,630.73205 631.27058,697.8404 641.63034,748.38128 C 654.3264,810.32 664.73804,873.21205 668.13313,935.88879 C 704.07245,938.27561 731.47581,994.52032 758.92898,986.93872 z M 936.64214,990.39075 C 925.10158,932.11613 943.95339,859.46894 921.71059,809.7903 C 837.5709,759.05006 753.89278,707.25448 674.32232,649.61024 C 688.90036,734.237 752.328,807.04773 790.79741,883.71361 C 825.33741,952.54855 882.79277,954.06832 936.64214,990.39075 z M 1294.1292,862.64063 C 1164.0734,691.5093 1039.9377,515.79748 902.08185,350.67172 C 854.20667,293.32613 807.92979,226.49395 733.83555,201.98064 C 714.96746,175.76048 708.25235,115.10089 674.96888,150.34463 C 641.68541,185.58837 499.61358,160.48792 556.56216,148.50032 C 609.27986,156.01792 705.02687,75.461774 617.93395,52.125297 C 591.33521,44.998186 535.23028,37.724908 523.61003,44.433864 C 533.63455,49.713784 535.59515,89.808566 503.08093,89.808566 C 472.08442,89.808566 470.31432,64.892871 471.92421,56.058751 C 419.00705,89.977437 512.99045,163.64477 481.91553,222.52061 C 470.14585,244.81994 462.08912,363.76998 498.70072,294.0128 C 523.43352,246.88865 629.07207,160.73234 636.57215,191.26298 C 645.90376,229.24928 516.96982,292.89507 523.1549,363.14048 C 531.27451,455.3569 629.26897,516.31571 702.5208,568.89006 C 849.41415,674.31844 1022.1407,736.19126 1184.3392,814.49889 C 1219.7435,831.59169 1258.4645,852.12047 1294.1292,862.64063 z M 732.7016,1746.8525 C 672.08039,1709.601 701.67183,1569.612 734.08443,1552.2467 C 758.87757,1538.9636 772.34927,1658.9485 772.48731,1707.5172 C 772.54406,1727.4846 752.66427,1759.1195 732.7016,1746.8525 z M 628.65198,1739.9732 C 564.70827,1701.9864 627.37786,1584.4254 666.57834,1555.3256 C 694.57155,1534.5454 680.66447,1656.223 676.19954,1692.5152 C 673.39173,1715.3378 652.01796,1753.8542 628.65198,1739.9732 z M 841.43822,1739.6018 C 782.92139,1707.0191 774.86263,1594.6242 799.34628,1557.8396 C 817.09065,1531.1802 870.86636,1654.4888 878.70362,1699.8771 C 882.23176,1720.3098 862.87637,1751.5388 841.43822,1739.6018 z M 509.98383,1716.756 C 449.23774,1685.2265 523.39702,1600.3478 553.67324,1559.5402 C 608.00059,1486.3154 580.80735,1619.5108 570.37495,1647.7172 C 560.16524,1675.3214 542.64186,1733.7067 509.98383,1716.756 z M 956.32798,1715.4081 C 908.2793,1683.6026 878.18277,1533.3391 906.87785,1536.2325 C 944.20955,1539.9968 1003.8235,1637.3353 991.55351,1701.1017 C 988.80455,1715.3879 967.992,1723.129 956.32798,1715.4081 z M 398.04381,1676.7615 C 335.96881,1633.8925 437.10754,1556.003 480.36457,1527.0402 C 540.81205,1486.5674 480.59781,1600.6931 466.61337,1625.3057 C 452.93111,1649.3865 424.64053,1695.1292 398.04381,1676.7615 z M 1066.7539,1676.3864 C 1014.0512,1648.173 951.56714,1530.8753 977.21272,1515.0251 C 1003.2715,1498.9196 1079.6085,1582.3422 1103.0451,1634.8754 C 1112.9312,1657.0351 1091.453,1689.6086 1066.7539,1676.3864 z "
       id="path1573"
       sodipodi:nodetypes="cssscsscscscsccsssccscscscccsssccscssssccccscsscsccccsccscscscccscscscccccsccsczcsczcssssssccssscssscssscssscssscssscsss" />
  </g>
</svg>
