<?xml version="1.0" encoding="UTF-8" standalone="no"?>
<svg
   xmlns:dc="http://purl.org/dc/elements/1.1/"
   xmlns:cc="http://web.resource.org/cc/"
   xmlns:rdf="http://www.w3.org/1999/02/22-rdf-syntax-ns#"
   xmlns:svg="http://www.w3.org/2000/svg"
   xmlns="http://www.w3.org/2000/svg"
   xmlns:sodipodi="http://sodipodi.sourceforge.net/DTD/sodipodi-0.dtd"
   xmlns:inkscape="http://www.inkscape.org/namespaces/inkscape"
   width="24.300896"
   height="17.976807"
   id="svg2241"
   sodipodi:version="0.32"
   inkscape:version="0.45"
   sodipodi:docname="G82.svg"
   inkscape:output_extension="org.inkscape.output.svg.inkscape"
   sodipodi:docbase="C:\Program Files\JSesh\GroupeG"
   sodipodi:modified="true">
  <metadata
     id="metadata2248">
    <rdf:RDF>
      <cc:Work
         rdf:about="">
        <dc:format>image/svg+xml</dc:format>
        <dc:type
           rdf:resource="http://purl.org/dc/dcmitype/StillImage" />
      </cc:Work>
    </rdf:RDF>
  </metadata>
  <defs
     id="defs2246" />
  <sodipodi:namedview
     inkscape:window-height="480"
     inkscape:window-width="640"
     inkscape:pageshadow="2"
     inkscape:pageopacity="0.0"
     guidetolerance="10.0"
     gridtolerance="10.0"
     objecttolerance="10.0"
     borderopacity="1.0"
     bordercolor="#666666"
     pagecolor="#ffffff"
     id="base" />
  <path
     style="fill:#000000; stroke:none"
     d="M 5.406705,11.965019 L 5.406705,9.408057 L 2.888781,9.408057 L 2.888781,11.965019 L 5.406705,11.965019 z M 16.278671,15.244176 C 16.330722,14.879825 16.298191,14.443906 16.181078,13.936417 L 16.415304,13.741229 C 17.01388,14.235705 17.563659,14.382096 18.064642,14.180402 C 18.565623,13.978707 19.261793,13.978707 20.153152,14.180402 C 21.04451,14.382096 21.389342,14.264983 21.187647,13.829063 C 20.985954,13.393144 20.045799,12.836858 18.367182,12.160207 C 16.19409,10.663766 14.352818,9.759395 12.843365,9.447095 C 11.333912,9.1347943 10.406769,8.780203 10.061936,8.383321 C 9.7171047,7.986439 9.694333,6.506264 9.993621,3.942796 C 10.058684,3.1230067 9.938318,2.543949 9.632524,2.205623 C 9.3267293,1.8672977 8.8615313,1.698135 8.23693,1.698135 C 7.6904033,1.698135 7.267496,1.8607917 6.968208,2.186105 C 6.66892,2.5114177 6.4346947,2.8367307 6.265532,3.162044 C 6.369632,3.253132 6.4737323,3.272651 6.577833,3.220601 C 6.6949457,2.9473377 6.8576023,2.7196183 7.065803,2.537443 C 7.0918277,2.290205 7.2219527,2.1600797 7.456178,2.147067 C 7.7294413,2.147067 7.8725793,2.270686 7.885592,2.517924 C 7.8595667,2.7781747 7.7164287,2.9148063 7.456178,2.927819 C 7.26099,2.927819 7.1503837,2.882275 7.124359,2.791187 C 6.9682083,2.8692623 6.818564,3.109994 6.675426,3.513382 C 6.5843387,3.6435073 6.51277,3.7996577 6.46072,3.981833 C 7.059296,3.9948457 7.6578723,3.9070113 8.256449,3.71833 C 8.855025,3.529648 9.1705787,3.6630263 9.20311,4.118465 C 9.2356413,4.573903 9.251907,5.016329 9.251907,5.445743 C 9.251907,6.291557 8.955872,7.0137523 8.363802,7.612329 C 7.771732,8.210905 7.475697,8.972138 7.475697,9.896028 C 7.475697,10.819917 7.9051103,11.464036 8.763937,11.828387 C 9.6227637,12.192738 10.510869,12.612392 11.428252,13.08735 C 12.345635,13.562307 13.643635,13.994974 15.322251,14.385349 C 15.77769,14.515474 16.096496,14.80175 16.278671,15.244176 z M 12.472507,17.391243 C 12.914934,17.196055 13.30531,17.104967 13.643635,17.117979 L 15.536958,17.117979 C 15.849259,17.130992 15.959865,16.789414 15.868777,16.093243 C 15.777689,15.397073 15.553223,14.996938 15.195379,14.892838 C 14.837534,14.788738 14.404868,14.69765 13.897379,14.619575 C 13.051565,15.543464 12.576608,16.467354 12.472507,17.391243 z M 8.744418,5.601893 C 8.7964687,4.4567903 8.598028,4.007858 8.149096,4.255096 C 7.7001633,4.5023347 7.176409,4.5413723 6.577833,4.372209 C 5.7580437,4.554385 4.730054,4.7105353 3.493864,4.84066 C 3.422815,4.0893415 3.7770282,4.1680008 4.333172,3.786645 C 5.2960987,3.4613323 5.875156,3.129513 6.070344,2.791187 C 6.6428953,1.8152477 7.3650907,1.327278 8.23693,1.327278 C 8.8875567,1.327278 9.4080577,1.4964407 9.798433,1.834766 C 10.318934,2.2381547 10.533641,2.9213123 10.442554,3.884239 C 10.338453,5.758043 10.312428,6.9356767 10.364478,7.41714 C 10.416529,7.898604 10.676779,8.210905 11.145229,8.354043 C 12.017069,7.5472663 12.927946,6.4281887 13.87786,4.99681 C 14.827775,3.5654327 17.32618,2.114536 21.373075,0.64412 C 21.464164,1.5940347 21.431633,2.3812927 21.275482,3.005894 C 21.952133,3.005894 22.960605,2.9408313 24.300896,2.810706 C 24.079683,5.374174 22.957352,6.929171 20.933903,7.475697 C 18.910455,8.022223 17.37823,8.907075 16.337229,10.130253 C 17.911744,11.210292 19.05034,11.903209 19.753017,12.209003 C 20.455694,12.514798 21.005473,12.869389 21.402355,13.272778 C 21.799236,13.676166 21.987918,14.076301 21.968399,14.473184 C 21.94888,14.870066 21.42838,14.977419 20.406897,14.795243 C 19.385414,14.613068 18.672977,14.619574 18.269588,14.814762 C 17.866201,15.00995 17.378231,14.990432 16.805679,14.756207 C 16.45434,16.252648 16.564947,17.157018 17.137499,17.469318 C 17.254612,17.755593 17.222081,17.885719 17.039906,17.859694 C 14.316685,17.824836 11.364702,17.741661 8.70538,17.879213 C 8.5362173,17.671012 8.516699,17.479077 8.646825,17.303408 C 8.7769497,17.12774 9.0176813,17.013881 9.36902,16.96183 C 10.50111,17.091955 11.288368,17.157017 11.730793,17.157017 C 12.017069,16.753629 12.192738,15.862271 12.257801,14.482943 C 12.140688,14.235705 11.642958,13.926657 10.764613,13.5558 C 9.8862677,13.184943 9.0111753,12.742517 8.139336,12.228522 C 7.2674967,11.714527 6.831577,10.989079 6.831577,10.052177 C 6.8445897,8.8680377 7.169903,7.9701733 7.807517,7.358584 C 8.158855,6.9812207 8.367055,6.694945 8.432117,6.499757 C 6.8966397,6.6559077 6.1744447,7.6383537 6.265532,9.447095 L 6.265532,17.898731 L 5.406705,17.898731 L 5.406705,12.804327 L 2.888781,12.804327 L 2.888781,17.879213 L 2.049473,17.879213 L 2.049473,4.216059 L 0,0.468451 L 0.64412,0 L 2.888781,4.216059 L 2.888781,8.549231 L 5.426224,8.549231 C 5.4522487,6.9356777 6.5583133,5.9532317 8.744418,5.601893 z M 11.750312,8.607787 C 12.101651,8.7248997 12.439976,8.829 12.765289,8.920088 C 13.598091,8.191386 14.460171,7.2186993 15.351529,6.002028 C 16.242887,4.7853573 18.009338,3.8321897 20.650881,3.142525 C 20.872094,2.491899 20.93065,1.919348 20.82655,1.424872 C 17.339193,2.7911873 15.153088,4.1379837 14.268236,5.465261 C 13.383385,6.792539 12.544077,7.8400477 11.750312,8.607787 z M 13.507004,9.095757 C 14.404868,9.342995 15.153088,9.5967393 15.751664,9.85699 C 17.052917,8.438624 18.643699,7.47895 20.52401,6.977968 C 22.40432,6.4769853 23.455081,5.3026047 23.676294,3.454826 C 22.140815,3.4418133 20.602083,3.6955577 19.060099,4.216059 C 17.518116,4.7365597 16.386026,5.4977923 15.66383,6.499757 C 14.941635,7.5017223 14.222693,8.3670557 13.507004,9.095757 z M 12.648176,15.556477 L 13.350853,14.52198 L 12.726252,14.36583 L 12.648176,15.556477 z "
     id="path2243"
     sodipodi:nodetypes="ccccccccssscsscssscccssscccssssssscccccsscccscccssccscscccscsssssccccscccsscccccccccccccccccccsccscccscssccccc" />
</svg>
