<?xml version="1.0" encoding="UTF-8" standalone="no"?>
<svg
   xmlns:dc="http://purl.org/dc/elements/1.1/"
   xmlns:cc="http://web.resource.org/cc/"
   xmlns:rdf="http://www.w3.org/1999/02/22-rdf-syntax-ns#"
   xmlns:svg="http://www.w3.org/2000/svg"
   xmlns="http://www.w3.org/2000/svg"
   xmlns:sodipodi="http://sodipodi.sourceforge.net/DTD/sodipodi-0.dtd"
   xmlns:inkscape="http://www.inkscape.org/namespaces/inkscape"
   width="14.333704"
   height="17.976807"
   id="svg2449"
   sodipodi:version="0.32"
   inkscape:version="0.45"
   sodipodi:docname="G84.svg"
   inkscape:output_extension="org.inkscape.output.svg.inkscape"
   sodipodi:docbase="C:\Program Files\JSesh\GroupeG"
   sodipodi:modified="true">
  <metadata
     id="metadata2456">
    <rdf:RDF>
      <cc:Work
         rdf:about="">
        <dc:format>image/svg+xml</dc:format>
        <dc:type
           rdf:resource="http://purl.org/dc/dcmitype/StillImage" />
      </cc:Work>
    </rdf:RDF>
  </metadata>
  <defs
     id="defs2454" />
  <sodipodi:namedview
     inkscape:window-height="480"
     inkscape:window-width="640"
     inkscape:pageshadow="2"
     inkscape:pageopacity="0.0"
     guidetolerance="10.0"
     gridtolerance="10.0"
     objecttolerance="10.0"
     borderopacity="1.0"
     bordercolor="#666666"
     pagecolor="#ffffff"
     id="base" />
  <path
     style="fill:#000000; stroke:none"
     d="M 10.751218,9.932189 C 12.555618,12.688912 13.560568,14.180048 13.766069,14.405598 C 13.971571,14.631148 14.011669,14.525891 13.886363,14.089828 C 13.761057,13.653765 13.437769,12.914462 12.916498,11.87192 C 12.866375,9.846982 12.658368,8.45609 12.292477,7.699244 C 11.926584,6.942398 11.580741,6.5288897 11.254946,6.458719 C 10.929151,6.3885477 10.593332,6.240687 10.247489,6.015137 C 9.9016457,5.789587 9.7437607,6.1554793 9.773834,7.112814 C 9.8039073,8.0701487 10.129702,9.0099403 10.751218,9.932189 z M 4.541074,9.315686 L 2.225427,9.315686 L 2.225427,10.278032 L 4.541074,10.293069 L 4.541074,9.315686 z M 6.5929695,1.828238 C 6.0741369,1.7637561 6.1474913,1.829931 5.811672,1.955237 C 5.4758533,2.0805423 5.217724,2.323635 5.037284,2.684515 C 4.906966,3.0554197 4.9445577,3.396251 5.150059,3.707009 C 5.3555603,4.0177663 5.5685797,4.2733897 5.789117,4.473879 C 5.8893617,4.4438057 5.9244473,4.3836587 5.894374,4.293438 C 5.7039093,4.1230227 5.5685793,3.947595 5.488384,3.767155 C 5.2578213,3.666911 5.1726133,3.511532 5.23276,3.301018 C 5.312956,3.0905053 5.468335,3.0253467 5.698897,3.105542 C 5.9394837,3.2258353 6.0246917,3.3862263 5.954521,3.586715 C 5.8943743,3.7370817 5.819191,3.807253 5.728971,3.797229 C 5.728971,3.9275463 5.8267093,4.0754067 6.022186,4.24081 C 6.2176627,4.4062133 6.2452297,4.4989397 6.104887,4.518989 L 6.510877,4.624245 C 6.591073,4.072901 6.656232,3.666911 6.706354,3.406275 C 6.9983908,2.7433114 6.829512,1.9262268 6.5929695,1.828238 z M 9.728724,3.661899 L 9.006965,4.022779 C 8.7764017,5.4562743 8.6811693,6.7043177 8.721268,7.766909 C 8.7613653,8.8295003 9.097184,9.8244267 9.728724,10.751688 C 10.360264,11.678949 11.072,12.493435 11.863931,13.195147 L 12.721022,15.059693 C 13.081901,15.400524 13.242292,15.30028 13.202194,14.75896 C 13.292414,14.528397 12.826277,13.716417 11.803784,12.323019 C 10.781291,10.929622 10.152257,10.002361 9.916682,9.541236 C 9.681108,9.0801113 9.5056803,8.4711263 9.390399,7.714281 C 9.2751183,6.957435 9.2500573,6.441176 9.315216,6.165504 C 9.3803747,5.889832 9.5382597,5.689343 9.788871,5.564037 C 10.039482,5.4387317 10.360264,5.5063967 10.751218,5.767032 C 11.142171,6.027668 11.312586,6.072778 11.262465,5.902362 C 11.112098,5.6016287 10.806352,5.2156877 10.345227,4.744539 C 10.204885,4.5941723 9.999384,4.2332923 9.728724,3.661899 z M 4.541074,8.639036 C 4.541074,8.147838 5.0322717,7.7719213 6.014667,7.511286 C 6.997063,7.25065 7.533371,6.6366527 7.623591,5.669294 C 7.713811,4.7019353 7.9293363,4.0378157 8.270167,3.676935 C 8.3704117,3.2358597 8.4080033,2.6970457 8.382942,2.060493 C 8.3578813,1.423941 8.1498743,1.2986357 7.758921,1.684577 C 7.3679677,2.0705183 7.172491,2.534149 7.172491,3.075469 C 7.172491,3.626813 7.0722467,4.148084 6.871758,4.639282 C 6.83166,5.270822 6.7113663,6.012631 6.510877,6.864709 C 5.9061713,6.915434 6.0376701,6.2798961 5.834227,5.992582 C 5.7941297,5.230724 5.6487753,4.7946607 5.398164,4.684392 C 4.686428,4.052852 4.4207803,3.3461287 4.601221,2.564222 C 4.7716363,1.9928287 5.4132007,1.5016307 6.525914,1.090628 L 6.525914,1.075592 C 8.2293341,-0.57830395 9.3327698,0.17328821 9.849018,2.16575 C 10.059531,3.2935 10.382819,4.0754067 10.818883,4.51147 C 11.254946,4.9475333 11.708552,5.6216773 12.179701,6.533902 C 12.991682,7.9974713 13.372611,9.2204537 13.322488,10.202849 C 13.272366,11.185245 13.417721,12.047347 13.758552,12.789156 C 14.560507,14.673752 14.525422,15.355414 13.653295,14.834143 C 13.723466,14.98451 13.715948,15.104803 13.630739,15.195023 C 13.545532,15.285243 13.490397,15.433104 13.465336,15.638605 C 13.440275,15.844106 13.350055,15.891722 13.194676,15.781453 C 13.039297,15.671184 12.826278,15.598507 12.555618,15.563421 C 12.284958,15.528336 11.914053,14.80407 11.442904,13.390623 C 10.841438,12.81923 10.545717,12.533533 10.555741,12.533533 C 10.555741,13.345513 10.475545,13.997102 10.315154,14.488299 C 10.615887,15.179986 10.881535,15.816538 11.112098,16.397957 C 11.182269,16.738788 11.152196,17.049546 11.021877,17.330231 C 10.951706,17.159814 10.901584,16.984386 10.871511,16.803947 C 10.741193,16.904191 10.585814,17.044533 10.405375,17.224974 C 10.565766,17.475584 10.6209,17.635975 10.570778,17.706146 C 10.520655,17.776317 10.520655,17.846489 10.570778,17.91666 C 10.390337,17.986831 10.104641,17.545756 9.713688,16.593433 C 9.6034193,15.8416 9.6034193,15.215072 9.713688,14.71385 C 9.8239567,14.212627 9.8389933,13.225219 9.758798,11.751626 C 9.4380153,11.430843 9.1272573,10.954682 8.826524,10.323143 L 8.826524,10.33818 C 8.7563533,11.200281 8.63606,12.232799 8.465644,13.435733 L 9.232514,14.71385 C 9.4229787,15.034632 9.4330033,15.400524 9.262588,15.811526 L 9.187405,15.631086 C 8.9869157,15.651135 8.8515853,15.776441 8.781414,16.007004 C 8.911732,16.227542 8.9392993,16.35786 8.864116,16.397957 C 8.7889327,16.438054 8.836549,16.598445 9.006965,16.879129 C 8.5558643,16.688665 8.2300697,16.367883 8.029581,15.916783 C 7.7288477,15.024608 7.6561703,14.027175 7.811549,12.924486 C 7.9669283,11.821797 8.1047647,10.513607 8.225058,8.999916 C 8.2050087,7.7769333 8.2300697,6.4837797 8.300241,5.120455 C 8.1398497,6.784513 7.5709623,7.7368353 6.593579,7.977422 C 5.6161957,8.2180093 5.1174797,8.5738773 5.097431,9.045026 L 5.097431,11.556149 L 4.541074,11.556149 L 4.541074,10.954682 L 2.225427,10.954682 L 2.225427,17.976807 L 1.57885,17.976807 L 1.57885,3.331092 L 0,0.429015 L 0.49621,0.083172 L 2.225427,3.331092 L 2.225427,8.639036 L 4.541074,8.639036 z "
     id="path2451"
     sodipodi:nodetypes="csscsssscccccccscscccssscsccccccsscccsssssscsccsscsssccccccccscsccsssscscccccsccsccccccccsccsccsccccccccccccc" />
</svg>
