<?xml version="1.0" encoding="UTF-8" standalone="no"?>
<!-- Created with Inkscape (http://www.inkscape.org/) -->
<svg
   xmlns:dc="http://purl.org/dc/elements/1.1/"
   xmlns:cc="http://web.resource.org/cc/"
   xmlns:rdf="http://www.w3.org/1999/02/22-rdf-syntax-ns#"
   xmlns:svg="http://www.w3.org/2000/svg"
   xmlns="http://www.w3.org/2000/svg"
   xmlns:sodipodi="http://sodipodi.sourceforge.net/DTD/sodipodi-0.dtd"
   xmlns:inkscape="http://www.inkscape.org/namespaces/inkscape"
   width="1800.0000px"
   height="1800.0000px"
   id="svg1290"
   sodipodi:version="0.32"
   inkscape:version="0.45.1"
   sodipodi:docbase="/home/rosmord/Desktop/tmp"
   sodipodi:docname="G89.svg"
   inkscape:output_extension="org.inkscape.output.svg.inkscape">
  <defs
     id="defs3" />
  <sodipodi:namedview
     id="base"
     pagecolor="#ffffff"
     bordercolor="#666666"
     borderopacity="1.0"
     inkscape:pageopacity="0.0"
     inkscape:pageshadow="2"
     inkscape:zoom="0.26611111"
     inkscape:cx="900"
     inkscape:cy="900"
     inkscape:document-units="px"
     inkscape:current-layer="svg1290"
     inkscape:window-width="1024"
     inkscape:window-height="695"
     inkscape:window-x="0"
     inkscape:window-y="0" />
  <metadata
     id="metadata4">
    <rdf:RDF>
      <cc:Work
         rdf:about="">
        <dc:format>image/svg+xml</dc:format>
        <dc:type
           rdf:resource="http://purl.org/dc/dcmitype/StillImage" />
        <cc:license
           rdf:resource="http://creativecommons.org/licenses/by/2.0/" />
        <dc:subject>
          <rdf:Bag>
            <rdf:li>JSesh hieroglyph</rdf:li>
          </rdf:Bag>
        </dc:subject>
        <dc:creator>
          <cc:Agent>
            <dc:title>S. Rosmorduc</dc:title>
          </cc:Agent>
        </dc:creator>
        <dc:description>G17 sign from Abydos</dc:description>
      </cc:Work>
      <cc:License
         rdf:about="http://creativecommons.org/licenses/by/2.0/">
        <cc:permits
           rdf:resource="http://web.resource.org/cc/Reproduction" />
        <cc:permits
           rdf:resource="http://web.resource.org/cc/Distribution" />
        <cc:requires
           rdf:resource="http://web.resource.org/cc/Notice" />
        <cc:requires
           rdf:resource="http://web.resource.org/cc/Attribution" />
        <cc:permits
           rdf:resource="http://web.resource.org/cc/DerivativeWorks" />
        <cc:requires
           rdf:resource="http://web.resource.org/cc/ShareAlike" />
      </cc:License>
    </rdf:RDF>
  </metadata>
  <path
     style="color:#000000;fill:#000000;fill-opacity:1;fill-rule:nonzero;stroke:none;stroke-width:8.25491714;stroke-linecap:butt;stroke-linejoin:round;marker:none;marker-start:none;marker-mid:none;marker-end:none;stroke-miterlimit:4;stroke-dashoffset:0;stroke-opacity:1;visibility:visible;display:inline;overflow:visible"
     d="M 635.25,2.75 C 599.25001,18.75 532.25,34.75 478.25,29.75 C 428.25001,38.749999 370.25,-6.2500002 326.25,22.75 C 271.25,102.75 221.25,191.75 215.25,290.75 C 204.25,480.74999 209.25,546.75 359.25,702.75 C 361.70316,708.32157 364.24915,714.47442 366.875,721.0625 C 359.83704,713.45475 349.85817,708.32402 340.09375,705.5 C 337.68776,704.89185 335.21569,704.48262 332.71875,704.59375 C 321.86103,706.9846 317.63778,720.28461 306.875,723.28125 C 203.69939,742.29299 99.547372,701.33093 15.28125,780.21875 C -44.33834,910.0068 86.43044,993.61108 198.40625,1015.2188 C 215.92103,1017.5714 234.65996,1021.512 251.84375,1015.8125 C 310.50976,991.45759 389.84472,997.21156 454,996.21875 C 498.95258,1155.1454 542.51362,1325.1854 561.25,1392.75 C 597.25001,1426.75 516.25,1612.75 482.25,1658.75 C 445.25001,1709.75 287.25,1663.75 221.25,1704.75 C 193.25,1722.75 183.25,1789.75 199.25,1798.75 C 214.25,1775.75 244.25,1744.75 265.25,1741.75 C 245.25,1762.75 315.25,1752.75 330.25,1757.75 C 390.25,1758.75 451.25,1765.75 512.25,1758.75 C 528.25001,1751.75 546.25,1737.75 532.25,1763.75 C 624.25001,1787.75 753.25,1772.75 774.25,1718.75 C 804.24998,1663.75 832.25,1605.75 852.25,1545.75 C 885.24998,1552.75 929.25,1580.75 956.25,1563.75 C 984.24998,1544.75 1013.25,1455.75 1029.25,1396.75 C 1032.25,1384.75 1061.25,1384.75 1066.25,1395.75 C 1096.25,1455.75 1146.25,1639.75 1194.25,1716.75 C 1253.25,1809.75 1449.25,1825.75 1583.25,1768.75 C 1648.25,1740.75 1696.25,1746.75 1682.25,1710.75 C 1660.25,1650.75 1622.25,1593.75 1582.25,1542.75 C 1640.25,1578.75 1698.25,1615.75 1756.25,1651.75 C 1770.25,1702.75 1846.25,1663.75 1809.25,1624.75 C 1773.184,1572.637 1733.4162,1514.2768 1691.5625,1452.9375 C 1703.795,1445.6415 1714.6356,1436.147 1723.125,1424.4375 C 1750.3945,1387.5522 1756.9724,1340.303 1759.4062,1295.5938 C 1766.7166,1104.4907 1692.3847,914.34227 1511.5,832.8125 C 1416.3007,801.24374 1315.1428,801.56559 1215.9375,800.90625 C 1128.8883,696.95646 1045.2125,610.2989 971.25,556.75 C 931.24998,521.75002 884.25,494.75 832.25,481.75 C 815.24998,437.74999 820.25,378.75 810.25,328.75 C 800.24998,229.74999 740.25,65.75 635.25,2.75 z M 626.25,67.75 C 685.25001,136.75 737.25,216.75 747.25,308.75 C 757.24998,374.74999 760.25,440.75 770.25,505.75 C 723.24998,501.74999 737.25,428.75 746.25,393.75 C 754.24998,324.74999 717.25,260.75 691.25,199.75 C 673.25001,166.75 656.25,114.75 610.25,113.75 C 559.25001,122.75 526.25,165.75 493.25,202.75 C 459.25001,168.75 423.25,131.75 376.25,117.75 C 357.25,110.75 319.25,136.75 345.25,104.75 C 362.25,44.750003 428.25,97.75 472.25,88.75 C 524.25001,91.750003 577.25,85.75 626.25,67.75 z M 610.25,143.75 C 649.25001,153.75 658.25,207.75 677.25,239.75 C 701.25001,295.75 730.25,356.75 711.25,419.75 C 696.24998,449.74999 715.25,487.75 713.25,509.75 C 676.24998,535.74999 644.25,593.75 591.25,580.75 C 547.25001,571.75002 525.25,529.75 491.25,509.75 C 463.25001,536.74999 448.25,596.75 393.25,579.75 C 356.25,571.75002 307.25,575.75 296.25,530.75 C 277.25,484.75002 275.25,433.75 272.25,383.75 C 298.25001,388.74999 300.25,362.75 302.25,340.75 C 315.25,291.74999 365.25,286.75 401.25,315.75 C 418.25,334.74999 470.25,349.75 459.25,379.75 C 454.25001,397.74999 448.25,416.75 442.25,435.75 L 484.25,491.75 C 488.25001,462.74999 531.25,438.75 506.25,409.75 C 502.25001,396.74999 487.25,379.75 489.25,369.75 C 507.25001,337.74999 531.25,309.75 559.25,285.75 C 593.25001,252.74999 629.25,309.75 659.25,313.75 C 682.25001,288.74999 657.25,278.75 634.25,265.75 C 599.25001,232.74999 546.25,243.75 520.25,281.75 C 495.25001,296.74999 480.25,357.75 454.25,317.75 C 419.25001,289.74999 376.25,257.75 329.25,267.75 C 300.25,273.74999 274.25,333.75 273.25,330.75 C 272.25,283.74999 294.25,241.75 307.25,195.75 C 319.25,145.75 382.25,130.75 414.25,171.75 C 449.25,184.75 473.25,254.75 509.25,229.75 C 540.25001,196.75 565.25,157.75 610.25,143.75 z M 560.25,309.75 C 533.25001,322.74999 500.25,358.75 550.25,364.75 C 574.25001,363.74999 629.25,338.75 619.25,315.75 C 600.25001,333.74999 580.25,309.75 560.25,309.75 z M 363.25,318.75 C 330.25,326.74999 313.25,362.75 355.25,370.75 C 377.25,372.74999 449.25,341.75 393.25,334.75 C 384.25,328.74999 375.25,318.75 363.25,318.75 z M 739.25,525.75 C 753.24998,554.75002 776.25,538.75 793.25,530.75 C 817.24998,547.75002 900.25,545.75 851.25,581.75 C 820.24998,623.75002 654.57629,738.29862 539.5,758.5 C 524.17136,761.1909 521.52402,770.52193 525.96875,782.96875 C 518.7414,782.34612 511.50859,781.73071 504.28125,781.0625 C 473.35542,740.81429 439.73016,700.83589 403.25,661.75 C 391.25,648.75002 334.25,588.75 353.25,602.75 C 399.25,614.75002 462.25,615.75 488.25,567.75 C 500.25001,531.75002 526.25,596.75 554.25,596.75 C 596.25001,624.75002 651.25,612.75 683.25,576.75 C 702.25001,559.75002 720.25,542.75 739.25,525.75 z M 920.25,599.75 C 983.34629,636.03039 1058.7296,709.71663 1137.2188,800.59375 C 967.3262,799.9237 797.48358,797.34858 627.75,789.8125 C 768.01412,738.17971 868.95529,657.69402 920.25,599.75 z M 296.125,778.3125 C 289.72984,842.90444 261.67359,904.1538 221.5,954.71875 C 147.57386,966.99375 64.27625,917.19923 63.34375,839.625 C 112.33761,751.29941 213.28878,790.53018 296.125,778.3125 z M 362.5625,806.09375 C 462.67948,830.32358 564.3508,844.35981 667.09375,849.84375 C 929.59888,867.31876 1203.8089,829.81187 1462.625,882.75 C 1506.499,893.34251 1549.2592,912.85168 1581.875,944.4375 C 1680.912,1048.6659 1708.3257,1174.3015 1708.0625,1313.125 C 1706.7555,1339.1111 1702.8607,1367.7647 1682.8438,1386.4688 C 1670.1396,1398.1556 1653.2064,1405.0978 1636.7812,1409.375 C 1515.5044,1373.1319 1515.2981,1224.6716 1517,1117.6562 C 1517.853,1078.927 1510.7992,1037.6235 1485.7812,1006.9375 C 1427.6105,957.65935 1331.5543,961.02892 1258.7188,953.125 C 1030.7998,939.5052 802.17403,939.49187 573.90625,940.34375 C 496.69668,919.06971 387.4805,977.06609 314.5625,942.4375 C 336.64906,898.24696 352.60427,856.07246 362.5625,806.09375 z M 874.4375,994.46875 C 914.67993,994.44554 954.91553,994.53065 995.15625,994.84375 C 1132.1126,996.93932 1268.9619,1008.6386 1404.0312,1031.2812 C 1362.4692,1116.1391 1313.2106,1207.0804 1293.3438,1300.1875 C 1119.5485,1219.5252 973.36733,1116.2991 825.59375,994.5625 C 841.87204,994.52494 858.15931,994.47814 874.4375,994.46875 z M 734.5,994.78125 C 899.46863,1157.4859 1091.3186,1260.4364 1291.6562,1368.5625 C 1306.0507,1441.5401 1378.441,1462.5095 1444.3125,1457.5938 C 1445.961,1458.6426 1447.6105,1459.6909 1449.25,1460.75 C 1503.25,1538.75 1567.25,1610.75 1608.25,1696.75 C 1567.25,1708.75 1527.25,1725.75 1485.25,1735.75 C 1402.25,1756.75 1293.25,1735.75 1253.25,1692.75 C 1199.25,1635.75 1140.25,1392.75 1109.25,1303.75 C 1094.25,1269.75 1058.25,1312.75 1051.25,1301.75 C 1047.25,1252.75 976.25,1249.75 981.25,1303.75 C 975.24998,1366.75 963.25,1429.75 933.25,1486.75 C 919.24998,1523.75 847.25,1473.75 803.25,1462.75 C 811.96708,1411.118 767.61682,1216.9522 644.59375,995.125 C 654.13816,995.07482 663.67501,995.01516 673.21875,994.9375 C 693.6496,994.90487 714.06882,994.84244 734.5,994.78125 z M 575.6875,995.375 C 656.49739,1147.0738 721.07041,1340.7358 742.25,1436.75 C 693.24998,1396.75 626.25,1370.75 611.25,1345.75 C 598.90979,1325.6971 569.88604,1170.584 519.1875,995.625 C 538.01745,995.52146 556.85694,995.42772 575.6875,995.375 z M 1441.0625,1058.3125 L 1441.5625,1058.3438 C 1450.0564,1057.743 1458.4942,1063.2751 1459.7188,1072.0938 C 1425.8066,1165.1679 1516.5505,1318.4419 1437.625,1391.8438 C 1362.1454,1416.5702 1341.3766,1340.8349 1356.4062,1284 C 1381.1694,1207.4569 1416.8047,1135.0536 1441.0625,1058.3125 z M 1521.25,1432.8438 C 1532.2962,1440.7424 1531.7164,1440.0822 1520.5625,1433.125 C 1520.7888,1433.0253 1521.0239,1432.9437 1521.25,1432.8438 z M 1626.875,1470.9375 C 1643.7893,1494.999 1657.5283,1513.8437 1667.25,1525.75 C 1591.8338,1453.0834 1491.8463,1464.3968 1626.875,1470.9375 z M 671.25,1461.75 C 703.25001,1480.75 732.25,1506.75 767.25,1520.75 C 746.24998,1572.75 733.25,1630.75 690.25,1671.75 C 667.25001,1708.75 616.25,1673.75 579.25,1676.75 C 607.25001,1606.75 649.25,1575.75 671.25,1461.75 z "
     id="path2253"
     sodipodi:nodetypes="ccccccccccccccccccccccccccccccccccccccccccccccccccccccccccccccccccccccccccccccccccccccccccscccccccccccccccccccccccccccccccccccccccccccccccccccccccccccccccccccccccc" />
</svg>
