<?xml version="1.0" encoding="UTF-8" standalone="no"?>
<svg
   xmlns:dc="http://purl.org/dc/elements/1.1/"
   xmlns:cc="http://web.resource.org/cc/"
   xmlns:rdf="http://www.w3.org/1999/02/22-rdf-syntax-ns#"
   xmlns:svg="http://www.w3.org/2000/svg"
   xmlns="http://www.w3.org/2000/svg"
   xmlns:sodipodi="http://sodipodi.sourceforge.net/DTD/sodipodi-0.dtd"
   xmlns:inkscape="http://www.inkscape.org/namespaces/inkscape"
   width="1800"
   height="1800"
   id="svg2"
   sodipodi:version="0.32"
   inkscape:version="0.45.1"
   sodipodi:docname="G8B.svg"
   sodipodi:docbase="/home/rosmord/Desktop/tmp"
   inkscape:output_extension="org.inkscape.output.svg.inkscape"
   version="1.0">
  <metadata
     id="metadata9">
    <rdf:RDF>
      <cc:Work
         rdf:about="">
        <dc:format>image/svg+xml</dc:format>
        <dc:type
           rdf:resource="http://purl.org/dc/dcmitype/StillImage" />
      </cc:Work>
    </rdf:RDF>
  </metadata>
  <defs
     id="defs7" />
  <sodipodi:namedview
     inkscape:window-height="572"
     inkscape:window-width="753"
     inkscape:pageshadow="2"
     inkscape:pageopacity="0.0"
     guidetolerance="10.0"
     gridtolerance="10.0"
     objecttolerance="10.0"
     borderopacity="1.0"
     bordercolor="#666666"
     pagecolor="#ffffff"
     id="base"
     width="1800px"
     height="1800px"
     inkscape:zoom="0.074246212"
     inkscape:cx="703.95041"
     inkscape:cy="217.06174"
     inkscape:window-x="163"
     inkscape:window-y="0"
     inkscape:current-layer="svg2" />
  <path
     style="fill:#000000;stroke:none"
     d="M 565.03125,-5.96875 C 525.66225,-5.419043 489.23888,5.9844732 454.5,23.03125 C 424.45044,36.129617 370.51111,69.209047 376.5625,108.84375 C 390.35649,119.18963 407.13977,107.15651 425.5,115.46875 C 438.90334,136.89012 446.45936,162.87214 450.75,187.78125 C 421.3705,297.90727 456.64448,390.07863 523.9375,476.4375 C 555.68556,587.89579 588.00271,699.89399 602.46875,815.09375 C 605.16098,838.14827 605.63339,861.59328 602.9375,884.59375 C 636.3769,941.72413 590.6474,1022.5005 570.59375,1091.375 C 524.13507,1087.6373 477.50199,1094.4091 431.0625,1090.1562 C 403.51511,1094.7418 374.2911,1104.556 354.65625,1125.1562 C 265.82259,1125.1865 176.98899,1125.2166 88.15625,1125.3125 C 56.847043,1126.6659 25.826888,1144.2451 12.09375,1172.9688 C -8.7427197,1212.2782 -6.2387727,1258.2587 -6.25,1301.4688 C -6.25,1473.2604 -6.25,1645.0521 -6.25,1816.8438 C 49.09375,1816.8438 104.4375,1816.8436 159.78125,1816.8438 C 160.06141,1643.1701 159.22889,1469.4684 160.21875,1295.8125 C 160.98089,1291.9043 162.83899,1298.283 164.65625,1298.5625 C 226.0944,1360.7865 299.04301,1410.682 376.0625,1451.75 C 334.77076,1493.052 293.47959,1534.3546 252.1875,1575.6562 C 407.30618,1691.856 542.84124,1750.2646 737.06414,1741.83 C 892.764,1735.0683 1040.4417,1666.7787 1176.6875,1573.75 C 1136.0468,1532.7728 1094.8492,1492.3363 1053.8438,1451.7188 C 1132.3094,1410.1914 1206.6955,1358.7032 1269.2188,1296.0312 C 1271.5181,1302.104 1269.0873,1309.0125 1270.0938,1315.375 C 1270.0938,1482.9479 1270.0936,1650.5207 1270.0938,1818.0938 C 1325.4375,1818.0938 1380.7812,1818.0936 1436.125,1818.0938 C 1435.831,1626.5742 1436.7378,1435.0438 1435.625,1243.5312 C 1433.7887,1211.0797 1426.3212,1176.287 1403.5,1152.0938 C 1431.3669,1147.9123 1459.3249,1144.0687 1487.0938,1139.75 C 1500.178,1136.6601 1515.3925,1129.9 1519.1562,1115.7188 C 1521.3726,1105.5534 1519.1,1093.9412 1510.3438,1087.4062 C 1476.1966,1050.1445 1441.3221,1013.5346 1406.8125,976.59375 C 1455.9072,1006.5151 1505.2254,1036.4976 1557.875,1059.6562 C 1562.9514,1060.3529 1570.4976,1062.4045 1573.2812,1056.375 C 1572.5335,1049.3208 1564.6889,1046.912 1560.9688,1041.6562 C 1540.3328,1022.2327 1517.6562,1004.4008 1495.2188,987.53125 C 1517.6084,984.05052 1530.1172,955.46671 1511.5312,939.90625 C 1404.7402,862.25126 1293.6355,790.38146 1187.7812,711.4375 C 1095.8733,581.39534 1008.1992,442.52069 906.125,320.125 C 974.1968,256.28483 1041.4648,191.56373 1110.0938,128.34375 C 1138.7792,108.08228 1155.7108,116.08608 1169.0938,147.96875 C 1242.8589,287.69821 1316.1073,427.69776 1390.3125,567.1875 C 1400.7232,581.71937 1417.2756,596.68165 1436.7188,593.375 C 1456.6515,582.08775 1456.4971,558.76199 1453.25,538.78125 C 1466.8727,547.90539 1482.4762,558.41206 1499.6875,555.71875 C 1523.147,547.84705 1515.9528,523.23322 1511.1875,505.0625 C 1524.5777,514.11196 1541.607,523.01583 1558.0625,517.375 C 1594.8732,491.01866 1556.328,456.01077 1537.125,433.9375 C 1408.774,291.28856 1280.4656,148.60175 1152.0625,6 C 1057.3878,92.654874 962.56669,179.15049 867.8125,265.71875 C 837.2262,227.67488 804.57076,189.02481 760.5625,166.375 C 754.92064,162.98318 745.83079,163.02983 743.84375,155.75 C 734.56297,134.35956 733.1613,109.94285 720.03125,90.21875 C 685.4486,36.250221 633.55502,-6.9255434 565.03125,-5.96875 z M 642.9375,76.90625 C 636.16474,134.99291 593.49535,126.14773 553.28125,145.28125 C 548.33521,148.17849 549.36489,156.04788 555.125,157.15625 C 581.55756,158.72341 607.67411,163.69654 634.21875,161.6875 C 652.78414,157.38882 669.69354,147.41009 683.53125,134.4375 C 689.02399,155.84879 692.47974,178.77475 705.0625,197.34375 C 820.18743,254.95067 891.13912,381.96072 966.6875,482.25 C 1040.2274,587.48222 1113.7029,692.76495 1189.5938,796.3125 C 1106.7838,756.38557 1024.152,716.27294 942.53125,673.96875 C 848.58357,631.58562 753.86066,586.24522 674.59375,520.65625 C 624.8567,479.5016 519.957,408.96139 533.84375,330.3125 C 554.42526,274.50469 598.46465,225.65578 634.4375,177.90625 C 625.31874,175.32433 614.52798,171.06209 605.96875,177.40625 C 558.03915,203.09538 516.73833,244.22653 493.375,293.78125 C 478.54248,254.99879 505.24633,208.06482 499.65625,172.40625 C 489.37268,139.72339 483.00997,105.29139 466.9375,74.75 C 472.95142,72.134398 479.10142,67.652484 484.5,65.40625 C 480.97751,80.908324 490.04344,99.337718 505.40625,104.09375 C 516.96719,105.49842 531.15742,102.18075 536,90.40625 C 542.66978,78.584632 543.71996,62.001855 534.09375,51.46875 C 572.43289,48.215961 608.89767,60.459937 642.9375,76.90625 z M 1235.4688,172.84375 C 1319.5104,265.65625 1403.5521,358.46875 1487.5938,451.28125 C 1461.7812,466.10417 1435.9689,480.92708 1410.1562,495.75 C 1351.9271,388.11458 1293.6978,280.47917 1235.4688,172.84375 z M 662.40625,614 C 730.81509,667.64901 803.95031,714.66791 878.1875,759.71875 C 877.47716,810.79782 880.06228,861.83842 881.71875,912.875 C 857.50907,895.40128 830.09739,881.49867 800.5625,876.09375 C 742.81889,789.8817 692.37868,713.97222 662.40625,614 z M 629.4375,676.4375 L 629.8125,677.375 L 630.03125,677.96875 C 661.52874,755.40154 705.90655,826.74517 751.78125,896.40625 C 741.80015,901.71909 732.57987,908.53338 724.6875,916.5625 C 704.64689,897.03205 684.64384,875.01825 657.84375,865.09375 C 666.57342,811.35431 641.67322,731.23906 629.4375,676.4375 z M 886.46875,702.28125 C 1006.1541,761.58128 1125.407,821.80481 1246.0312,879.125 C 1315.3886,943.91695 1379.0089,1023.0385 1444.7188,1093.5312 C 1404.6771,1100.3958 1364.6353,1107.2604 1324.5938,1114.125 C 1216.9225,1014.9566 1138.579,882.97476 1020.0625,796.0625 C 996.94967,776.80507 859.85415,689.11522 886.46875,702.28125 z M 928.15625,795.75 C 956.85953,814.45992 987.96873,830.13281 1012.8125,853.96875 C 1099.4278,942.03979 1181.0132,1035.1486 1265.9062,1125.0625 C 1176.3924,1125.1082 1086.8892,1125.1226 997.375,1125.125 C 974.89527,1108.7311 947.53429,1101.8352 920.8125,1095.8125 C 917.06195,1108.6192 853.03376,1101.2444 836.78125,1101.2812 C 833.86458,1047.8333 830.94792,994.38542 828.03125,940.9375 C 842.235,948.54704 859.11079,953.25025 869.0625,966.9375 C 882.15343,981.15921 894.96104,996.77392 912.1875,1006.125 C 972.07223,996.04408 929.52131,843.11411 928.15625,795.75 z M 679.21875,944.1875 L 679.25,944.21875 C 690.97321,957.31945 701.83468,973.37771 718.71875,980.15625 C 796.42881,946.08066 773.83096,1031.744 773.5625,1100.7812 C 749.73396,1098.3932 722.10716,1093.4974 700.9375,1107.75 C 677.8299,1098.6974 654.02461,1100.0626 632.1875,1101.4688 L 679.21875,944.1875 z M 72.4375,1176.5312 C 89.634893,1206.1911 109.56968,1234.1004 130.28125,1261.375 C 117.47576,1269.6568 113.73994,1286.2105 111.40625,1300.3125 C 110.32454,1319.1212 111.7644,1337.9797 111.125,1356.8125 C 111.125,1493.9375 111.125,1631.0625 111.125,1768.1875 C 88.635417,1768.1875 66.145833,1768.1875 43.65625,1768.1875 C 43.850967,1596.1397 43.285104,1424.0682 43.96875,1252.0312 C 42.317453,1242.9409 58.341124,1162.2404 72.4375,1176.5312 z M 134.9375,1175 C 521.625,1175 908.3125,1175 1295,1175 C 1239.3408,1267.7558 1153.3862,1337.5452 1060.9375,1391.8125 C 948.76639,1457.4228 817.68525,1491.6675 687.40625,1485.9688 C 578.46866,1480.2515 471.18666,1448.5712 376.625,1394.5938 C 312.12224,1357.9244 251.3557,1313.6432 200.1875,1259.9688 C 175.65836,1234.0292 153.4291,1205.641 134.9375,1175 z M 1360.0312,1175.625 C 1372.3177,1180.686 1375.1273,1195.8419 1378.8438,1207.1875 C 1390.365,1250.6907 1385.1315,1296.2583 1386.25,1340.7812 C 1386.25,1483.25 1386.25,1625.7188 1386.25,1768.1875 C 1364.1667,1768.1875 1342.0833,1768.1875 1320,1768.1875 C 1319.8773,1611.5442 1320.2539,1454.8803 1319.7812,1298.25 C 1316.3,1284.9292 1311.7629,1270.0273 1299.5312,1262.2188 C 1321.1628,1234.46 1341.0995,1204.9273 1360.0312,1175.625 z M 417.625,1474.75 C 597.91093,1547.2456 833.50231,1572.4297 1012.2812,1474.7812 C 1043.3751,1505.875 1074.4687,1536.9687 1105.5625,1568.0625 C 868.72906,1729.1353 561.96127,1731.8982 324.34375,1568.0312 C 355.4375,1536.9375 386.53125,1505.8438 417.625,1474.75 z "
     id="path4"
     sodipodi:nodetypes="ccccccccccccccccccccscccccccccccccccccccccccccccccccccscccccccccscccccccccccccccccccccccccccccccccccccccccccccccccccccccccccccccccccccccccccccc" />
</svg>
