<?xml version="1.0" encoding="UTF-8" standalone="no"?>
<!-- Created with Inkscape (http://www.inkscape.org/) -->
<svg
   xmlns:dc="http://purl.org/dc/elements/1.1/"
   xmlns:cc="http://web.resource.org/cc/"
   xmlns:rdf="http://www.w3.org/1999/02/22-rdf-syntax-ns#"
   xmlns:svg="http://www.w3.org/2000/svg"
   xmlns="http://www.w3.org/2000/svg"
   xmlns:sodipodi="http://sodipodi.sourceforge.net/DTD/sodipodi-0.dtd"
   xmlns:inkscape="http://www.inkscape.org/namespaces/inkscape"
   width="1800.0000px"
   height="1800.0000px"
   id="svg1290"
   sodipodi:version="0.32"
   inkscape:version="0.45.1"
   sodipodi:docbase="/home/rosmord/Desktop/tmp"
   sodipodi:docname="G91.svg"
   inkscape:output_extension="org.inkscape.output.svg.inkscape">
  <defs
     id="defs3" />
  <sodipodi:namedview
     id="base"
     pagecolor="#ffffff"
     bordercolor="#666666"
     borderopacity="1.0"
     inkscape:pageopacity="0.0"
     inkscape:pageshadow="2"
     inkscape:zoom="0.22677427"
     inkscape:cx="811.45392"
     inkscape:cy="897.67209"
     inkscape:document-units="px"
     inkscape:current-layer="svg1290"
     inkscape:window-width="834"
     inkscape:window-height="624"
     inkscape:window-x="101"
     inkscape:window-y="35" />
  <metadata
     id="metadata4">
    <rdf:RDF>
      <cc:Work
         rdf:about="">
        <dc:format>image/svg+xml</dc:format>
        <dc:type
           rdf:resource="http://purl.org/dc/dcmitype/StillImage" />
        <cc:license
           rdf:resource="http://creativecommons.org/licenses/by/2.0/" />
        <dc:subject>
          <rdf:Bag>
            <rdf:li>JSesh hieroglyph</rdf:li>
          </rdf:Bag>
        </dc:subject>
        <dc:creator>
          <cc:Agent>
            <dc:title>S. Rosmorduc</dc:title>
          </cc:Agent>
        </dc:creator>
        <dc:description>G17 sign from Abydos</dc:description>
      </cc:Work>
      <cc:License
         rdf:about="http://creativecommons.org/licenses/by/2.0/">
        <cc:permits
           rdf:resource="http://web.resource.org/cc/Reproduction" />
        <cc:permits
           rdf:resource="http://web.resource.org/cc/Distribution" />
        <cc:requires
           rdf:resource="http://web.resource.org/cc/Notice" />
        <cc:requires
           rdf:resource="http://web.resource.org/cc/Attribution" />
        <cc:permits
           rdf:resource="http://web.resource.org/cc/DerivativeWorks" />
        <cc:requires
           rdf:resource="http://web.resource.org/cc/ShareAlike" />
      </cc:License>
    </rdf:RDF>
  </metadata>
  <path
     style="fill:#000000;stroke:none"
     d="M 807.25272,7.1596713 C 771.25273,23.159671 704.25272,39.159671 650.25272,34.159671 C 600.25273,43.15967 542.25272,-1.8403289 498.25272,27.159671 C 443.25271,107.15967 393.25272,196.15967 387.25272,295.15967 C 376.25272,485.15966 381.25271,551.15967 531.25272,707.15967 C 532.01062,708.88101 532.79076,710.6834 533.56522,712.50342 L 402.75272,712.87842 C 247.79279,728.98018 120.43181,840.78358 49.252717,974.37842 C -57.733873,1167.2384 27.953387,1201.5042 209.59647,1210.0659 L 683.25272,1209.9097 C 704.86865,1290.8771 722.8789,1359.7511 733.25272,1397.1597 C 769.25273,1431.1597 688.25272,1617.1597 654.25272,1663.1597 C 617.25273,1714.1597 459.25272,1668.1597 393.25272,1709.1597 C 365.25272,1727.1597 355.25272,1794.1597 371.25272,1803.1597 C 386.25272,1780.1597 416.25272,1749.1597 437.25272,1746.1597 C 417.25272,1767.1597 487.25272,1757.1597 502.25272,1762.1597 C 562.25272,1763.1597 623.25272,1770.1597 684.25272,1763.1597 C 700.25273,1756.1597 718.25272,1742.1597 704.25272,1768.1597 C 796.25273,1792.1597 925.25272,1777.1597 946.25272,1723.1597 C 976.2527,1668.1597 1004.2527,1610.1597 1024.2527,1550.1597 C 1057.2527,1557.1597 1101.2527,1585.1597 1128.2527,1568.1597 C 1156.2527,1549.1597 1185.2527,1460.1597 1201.2527,1401.1597 C 1204.2527,1389.1597 1233.2527,1389.1597 1238.2527,1400.1597 C 1268.2527,1460.1597 1318.2528,1644.1597 1366.2527,1721.1597 C 1425.2527,1814.1597 1621.2527,1830.1597 1755.2527,1773.1597 C 1820.2527,1745.1597 1868.2527,1751.1597 1854.2527,1715.1597 C 1832.2527,1655.1597 1794.2527,1598.1597 1754.2527,1547.1597 C 1812.2527,1583.1597 1870.2527,1620.1597 1928.2527,1656.1597 C 1942.2527,1707.1597 2018.2527,1668.1597 1981.2527,1629.1597 C 1898.8266,1510.0595 1798.691,1360.4866 1692.6589,1209.6285 L 1746.0027,1209.5972 C 1833.2383,1209.5701 1811.9811,1064.8899 1726.2839,1064.9722 L 1589.2215,1065.0972 C 1534.6173,990.3575 1479.4984,917.66068 1425.2839,850.69092 L 1746.3152,850.65967 C 1829.8507,850.6528 1816.0889,708.46279 1733.0652,708.72217 L 1304.3777,710.03467 C 1247.5451,648.58249 1193.1821,597.30857 1143.2527,561.15967 C 1103.2527,526.15969 1056.2527,499.15967 1004.2527,486.15967 C 987.2527,442.15966 992.25272,383.15967 982.25272,333.15967 C 972.2527,234.15966 912.25272,70.159671 807.25272,7.1596713 z M 798.25272,72.159671 C 857.25273,141.15967 909.25272,221.15967 919.25272,313.15967 C 929.2527,379.15966 932.25272,445.15967 942.25272,510.15967 C 895.2527,506.15966 909.25272,433.15967 918.25272,398.15967 C 926.2527,329.15966 889.25272,265.15967 863.25272,204.15967 C 845.25273,171.15967 828.25272,119.15967 782.25272,118.15967 C 731.25273,127.15967 698.25272,170.15967 665.25272,207.15967 C 631.25273,173.15967 595.25272,136.15967 548.25272,122.15967 C 529.25272,115.15967 491.25272,141.15967 517.25272,109.15967 C 534.25272,49.159674 600.25272,102.15967 644.25272,93.159671 C 696.25273,96.159674 749.25272,90.159671 798.25272,72.159671 z M 782.25272,148.15967 C 821.25273,158.15967 830.25272,212.15967 849.25272,244.15967 C 873.25273,300.15967 902.25272,361.15967 883.25272,424.15967 C 868.2527,454.15966 887.25272,492.15967 885.25272,514.15967 C 848.2527,540.15966 816.25272,598.15967 763.25272,585.15967 C 719.25273,576.15969 697.25272,534.15967 663.25272,514.15967 C 635.25273,541.15966 620.25272,601.15967 565.25272,584.15967 C 528.25272,576.15969 479.25272,580.15967 468.25272,535.15967 C 449.25271,489.15969 447.25272,438.15967 444.25272,388.15967 C 470.25273,393.15966 472.25272,367.15967 474.25272,345.15967 C 487.25272,296.15966 537.25272,291.15967 573.25272,320.15967 C 590.25272,339.15966 642.25272,354.15967 631.25272,384.15967 C 626.25273,402.15966 620.25272,421.15967 614.25272,440.15967 L 656.25272,496.15967 C 660.25273,467.15966 703.25272,443.15967 678.25272,414.15967 C 674.25273,401.15966 659.25272,384.15967 661.25272,374.15967 C 679.25273,342.15966 703.25272,314.15967 731.25272,290.15967 C 765.25273,257.15966 801.25272,314.15967 831.25272,318.15967 C 854.25273,293.15966 829.25272,283.15967 806.25272,270.15967 C 771.25273,237.15966 718.25272,248.15967 692.25272,286.15967 C 667.25273,301.15966 652.25272,362.15967 626.25272,322.15967 C 591.25273,294.15966 548.25272,262.15967 501.25272,272.15967 C 472.25272,278.15966 446.25272,338.15967 445.25272,335.15967 C 444.25272,288.15966 466.25272,246.15967 479.25272,200.15967 C 491.25272,150.15967 554.25272,135.15967 586.25272,176.15967 C 621.25272,189.15967 645.25272,259.15967 681.25272,234.15967 C 712.25273,201.15967 737.25272,162.15967 782.25272,148.15967 z M 732.25272,314.15967 C 705.25273,327.15966 672.25272,363.15967 722.25272,369.15967 C 746.25273,368.15966 801.25272,343.15967 791.25272,320.15967 C 772.25273,338.15966 752.25272,314.15967 732.25272,314.15967 z M 535.25272,323.15967 C 502.25272,331.15966 485.25272,367.15967 527.25272,375.15967 C 549.25272,377.15966 621.25272,346.15967 565.25272,339.15967 C 556.25272,333.15966 547.25272,323.15967 535.25272,323.15967 z M 911.25272,530.15967 C 925.2527,559.15969 948.25272,543.15967 965.25272,535.15967 C 989.2527,552.15969 1072.2527,550.15967 1023.2527,586.15967 C 992.2527,628.15969 826.57901,742.70829 711.50272,762.90967 C 661.81678,771.63191 745.25272,850.15967 772.25272,878.15967 C 928.25273,1018.1597 1081.2527,1166.1597 1268.2527,1267.1597 C 1385.2526,1333.1597 1508.2527,1392.1597 1621.2527,1465.1597 C 1675.2527,1543.1597 1739.2527,1615.1597 1780.2527,1701.1597 C 1739.2527,1713.1597 1699.2527,1730.1597 1657.2527,1740.1597 C 1574.2527,1761.1597 1465.2527,1740.1597 1425.2527,1697.1597 C 1371.2527,1640.1597 1312.2527,1397.1597 1281.2527,1308.1597 C 1266.2527,1274.1597 1230.2527,1317.1597 1223.2527,1306.1597 C 1219.2527,1257.1597 1148.2527,1254.1597 1153.2527,1308.1597 C 1147.2527,1371.1597 1135.2527,1434.1597 1105.2527,1491.1597 C 1091.2527,1528.1597 1019.2527,1478.1597 975.25272,1467.1597 C 988.2527,1390.1597 883.25272,996.15969 575.25272,666.15967 C 563.25272,653.15969 506.25272,593.15967 525.25272,607.15967 C 571.25272,619.15969 634.25272,620.15967 660.25272,572.15967 C 672.25273,536.15969 698.25272,601.15967 726.25272,601.15967 C 768.25273,629.15969 823.25272,617.15967 855.25272,581.15967 C 874.25273,564.15969 892.25272,547.15967 911.25272,530.15967 z M 1092.2527,604.15967 C 1332.2527,742.15971 1750.2527,1421.1597 1839.2527,1530.1597 C 1689.2527,1435.1597 1541.2527,1339.1597 1380.2527,1261.1597 C 1154.2528,1150.1597 961.25272,970.15967 777.25272,802.15967 C 929.25273,751.15965 1038.2527,665.15967 1092.2527,604.15967 z M 448.06522,850.62842 C 450.1058,850.64008 452.16641,850.68743 454.22147,850.75342 L 581.78397,850.75342 C 602.02186,915.75722 623.63017,991.31125 644.25272,1066.0035 L 170.94022,1066.4722 C 219.85161,956.16647 319.50824,849.89377 448.06522,850.62842 z M 643.31522,850.75342 L 648.28397,850.75342 C 772.14843,987.13415 884.88757,1308.0377 914.25272,1441.1597 C 865.2527,1401.1597 798.25272,1375.1597 783.25272,1350.1597 C 767.45251,1324.4843 724.3188,1077.4473 643.31522,850.75342 z M 843.25272,1466.1597 C 875.25273,1485.1597 904.25272,1511.1597 939.25272,1525.1597 C 918.2527,1577.1597 905.25272,1635.1597 862.25272,1676.1597 C 839.25273,1713.1597 788.25272,1678.1597 751.25272,1681.1597 C 779.25273,1611.1597 821.25272,1580.1597 843.25272,1466.1597 z "
     id="path2286" />
</svg>
