<?xml version="1.0" encoding="UTF-8" standalone="no"?>
<!-- Created with Inkscape (http://www.inkscape.org/) -->
<svg
   xmlns:dc="http://purl.org/dc/elements/1.1/"
   xmlns:cc="http://web.resource.org/cc/"
   xmlns:rdf="http://www.w3.org/1999/02/22-rdf-syntax-ns#"
   xmlns:svg="http://www.w3.org/2000/svg"
   xmlns="http://www.w3.org/2000/svg"
   xmlns:sodipodi="http://sodipodi.sourceforge.net/DTD/sodipodi-0.dtd"
   xmlns:inkscape="http://www.inkscape.org/namespaces/inkscape"
   width="1800.0000px"
   height="1800.0000px"
   id="svg1290"
   sodipodi:version="0.32"
   inkscape:version="0.45.1"
   sodipodi:docbase="/home/rosmord/Desktop/tmp"
   sodipodi:docname="G97.svg"
   inkscape:output_extension="org.inkscape.output.svg.inkscape">
  <defs
     id="defs3" />
  <sodipodi:namedview
     id="base"
     pagecolor="#ffffff"
     bordercolor="#666666"
     borderopacity="1.0"
     inkscape:pageopacity="0.0"
     inkscape:pageshadow="2"
     inkscape:zoom="0.12833333"
     inkscape:cx="921.06918"
     inkscape:cy="1072.1591"
     inkscape:document-units="px"
     inkscape:current-layer="svg1290"
     inkscape:window-width="1024"
     inkscape:window-height="695"
     inkscape:window-x="0"
     inkscape:window-y="0" />
  <metadata
     id="metadata4">
    <rdf:RDF>
      <cc:Work
         rdf:about="">
        <dc:format>image/svg+xml</dc:format>
        <dc:type
           rdf:resource="http://purl.org/dc/dcmitype/StillImage" />
        <cc:license
           rdf:resource="http://creativecommons.org/licenses/by/2.0/" />
        <dc:subject>
          <rdf:Bag>
            <rdf:li>JSesh hieroglyph</rdf:li>
          </rdf:Bag>
        </dc:subject>
        <dc:creator>
          <cc:Agent>
            <dc:title>S. Rosmorduc</dc:title>
          </cc:Agent>
        </dc:creator>
        <dc:description>G17 sign from Abydos</dc:description>
      </cc:Work>
      <cc:License
         rdf:about="http://creativecommons.org/licenses/by/2.0/">
        <cc:permits
           rdf:resource="http://web.resource.org/cc/Reproduction" />
        <cc:permits
           rdf:resource="http://web.resource.org/cc/Distribution" />
        <cc:requires
           rdf:resource="http://web.resource.org/cc/Notice" />
        <cc:requires
           rdf:resource="http://web.resource.org/cc/Attribution" />
        <cc:permits
           rdf:resource="http://web.resource.org/cc/DerivativeWorks" />
        <cc:requires
           rdf:resource="http://web.resource.org/cc/ShareAlike" />
      </cc:License>
    </rdf:RDF>
  </metadata>
  <path
     style="color:#000000;fill:#000000;fill-opacity:1;fill-rule:nonzero;stroke:none;stroke-width:8.25491714;stroke-linecap:butt;stroke-linejoin:round;stroke-miterlimit:4;stroke-dashoffset:0;stroke-opacity:1;marker:none;marker-start:none;marker-mid:none;marker-end:none;visibility:visible;display:inline;overflow:visible"
     d="M 441.25 2.75 C 405.25001 18.75 338.25 34.75 284.25 29.75 C 234.25001 38.749999 176.25 -6.2500002 132.25 22.75 C 77.249996 102.75 27.25 191.75 21.25 290.75 C 10.25 480.74999 15.249997 546.75 165.25 702.75 C 187.89557 754.18232 218.03439 850.31173 248.46875 955.90625 C 229.28306 967.05474 210.09133 978.19431 190.90625 989.34375 C 109.43913 1044.9029 33.109008 1111.1036 -20.625 1194.5625 C -55.98902 1248.9874 -79.595008 1311.8886 -83.125 1377.0938 C -86.726714 1434.1794 -76.1889 1491.3756 -57.21875 1545.0938 C 12.269055 1527.9408 81.755649 1510.7825 151.25 1493.6562 C 160.38616 1429.0236 168.72418 1364.2691 178.34375 1299.7188 C 186.79339 1255.2023 216.20705 1216.9475 252.96875 1191.4375 C 269.43897 1179.827 287.10848 1169.8852 305.46875 1161.5312 C 332.267 1261.1348 355.04393 1348.7342 367.25 1392.75 C 403.25001 1426.75 322.25 1612.75 288.25 1658.75 C 251.25001 1709.75 93.25 1663.75 27.25 1704.75 C -0.74999987 1722.75 -10.75 1789.75 5.25 1798.75 C 20.25 1775.75 50.25 1744.75 71.25 1741.75 C 51.250004 1762.75 121.25 1752.75 136.25 1757.75 C 196.25 1758.75 257.25 1765.75 318.25 1758.75 C 334.25001 1751.75 352.25 1737.75 338.25 1763.75 C 430.25001 1787.75 559.25 1772.75 580.25 1718.75 C 610.24998 1663.75 638.25 1605.75 658.25 1545.75 C 691.24998 1552.75 735.25 1580.75 762.25 1563.75 C 790.24998 1544.75 819.25 1455.75 835.25 1396.75 C 838.24998 1384.75 867.25 1384.75 872.25 1395.75 C 902.24998 1455.75 952.25004 1639.75 1000.25 1716.75 C 1059.25 1809.75 1255.25 1825.75 1389.25 1768.75 C 1454.25 1740.75 1502.25 1746.75 1488.25 1710.75 C 1466.25 1650.75 1428.25 1593.75 1388.25 1542.75 C 1446.25 1578.75 1504.25 1615.75 1562.25 1651.75 C 1576.25 1702.75 1652.25 1663.75 1615.25 1624.75 C 1472.9692 1419.1637 1278.0513 1122.8465 1090.8125 885.71875 C 1137.7603 851.39502 1182.2328 813.70633 1223.7812 773.0625 C 1300.44 698.45264 1369.8673 613.48512 1412.0312 514.375 C 1444.3665 438.94869 1457.4338 354.39651 1443.75 273.0625 C 1442.3073 270.50488 1443.984 259.82193 1439.5 264.15625 C 1240.6879 379.63761 1041.859 495.07423 843.03125 610.53125 C 820.40966 590.14384 798.42752 572.08253 777.25 556.75 C 737.24998 521.75002 690.25 494.75 638.25 481.75 C 621.24998 437.74999 626.25 378.75 616.25 328.75 C 606.24998 229.74999 546.25 65.75 441.25 2.75 z M 432.25 67.75 C 491.25001 136.75 543.25 216.75 553.25 308.75 C 563.24998 374.74999 566.25 440.75 576.25 505.75 C 529.24998 501.74999 543.25 428.75 552.25 393.75 C 560.24998 324.74999 523.25 260.75 497.25 199.75 C 479.25001 166.75 462.25 114.75 416.25 113.75 C 365.25001 122.75 332.25 165.75 299.25 202.75 C 265.25001 168.75 229.25 131.75 182.25 117.75 C 163.25 110.75 125.25 136.75 151.25 104.75 C 168.25 44.750003 234.25 97.75 278.25 88.75 C 330.25001 91.750003 383.25 85.75 432.25 67.75 z M 416.25 143.75 C 455.25001 153.75 464.25 207.75 483.25 239.75 C 507.25001 295.75 536.25 356.75 517.25 419.75 C 502.24998 449.74999 521.25 487.75 519.25 509.75 C 482.24998 535.74999 450.25 593.75 397.25 580.75 C 353.25001 571.75002 331.25 529.75 297.25 509.75 C 269.25001 536.74999 254.25 596.75 199.25 579.75 C 162.25 571.75002 113.25 575.75 102.25 530.75 C 83.249996 484.75002 81.25 433.75 78.25 383.75 C 104.25001 388.74999 106.25 362.75 108.25 340.75 C 121.25 291.74999 171.25 286.75 207.25 315.75 C 224.25 334.74999 276.25 349.75 265.25 379.75 C 260.25001 397.74999 254.25 416.75 248.25 435.75 L 290.25 491.75 C 294.25001 462.74999 337.25 438.75 312.25 409.75 C 308.25001 396.74999 293.25 379.75 295.25 369.75 C 313.25001 337.74999 337.25 309.75 365.25 285.75 C 399.25001 252.74999 435.25 309.75 465.25 313.75 C 488.25001 288.74999 463.25 278.75 440.25 265.75 C 405.25001 232.74999 352.25 243.75 326.25 281.75 C 301.25001 296.74999 286.25 357.75 260.25 317.75 C 225.25001 289.74999 182.25 257.75 135.25 267.75 C 106.25 273.74999 80.25 333.75 79.25 330.75 C 78.250004 283.74999 100.25 241.75 113.25 195.75 C 125.25 145.75 188.25 130.75 220.25 171.75 C 255.25 184.75 279.25 254.75 315.25 229.75 C 346.25001 196.75 371.25 157.75 416.25 143.75 z M 366.25 309.75 C 339.25001 322.74999 306.25 358.75 356.25 364.75 C 380.25001 363.74999 435.25 338.75 425.25 315.75 C 406.25001 333.74999 386.25 309.75 366.25 309.75 z M 169.25 318.75 C 136.25 326.74999 119.25 362.75 161.25 370.75 C 183.25 372.74999 255.25 341.75 199.25 334.75 C 190.25 328.74999 181.25 318.75 169.25 318.75 z M 1357.625 404.3125 C 1357.1875 405.4375 1356.75 406.5625 1356.3125 407.6875 C 1311.0193 526.21505 1238.1721 633.79673 1146.4375 721.21875 C 1053.6434 810.43615 942.62193 878.99491 827.15625 934.90625 C 669.05136 1010.9193 498.88464 1059.7396 326.125 1088.9688 C 267.66098 1100.4773 210.76496 1127.4276 170.25 1171.8125 C 123.16653 1222.3743 99.65902 1290.2714 89.90625 1357.7188 C 86.634847 1379.5861 84.770692 1401.7173 83.875 1423.8438 C 71.642062 1441.5952 49.983892 1450.1568 28.96875 1450.4062 C 16.798594 1451.1373 4.1995762 1451.7168 -7.5625 1448.4375 C -19.794795 1404.0574 -15.224889 1355.5851 4.53125 1314.0625 C 27.82218 1263.2198 57.350596 1215.0251 92.25 1171.375 C 132.8312 1123.781 183.53183 1085.924 235.8125 1051.875 C 609.74555 836.0208 983.69196 620.16671 1357.625 404.3125 z M 545.25 525.75 C 559.24998 554.75002 582.25 538.75 599.25 530.75 C 623.24998 547.75002 706.25 545.75 657.25 581.75 C 626.24998 623.75002 460.57629 738.29862 345.5 758.5 C 298.9206 766.67689 369.08173 835.95681 400.3125 867.6875 C 393.64494 871.56088 386.98 875.43903 380.3125 879.3125 C 332.07204 806.36182 275.34961 732.57102 209.25 661.75 C 197.25 648.75002 140.25 588.75 159.25 602.75 C 205.25 614.75002 268.25 615.75 294.25 567.75 C 306.25001 531.75002 332.25 596.75 360.25 596.75 C 402.25001 624.75002 457.25 612.75 489.25 576.75 C 508.25001 559.75002 526.25 542.75 545.25 525.75 z M 726.25 599.75 C 745.52151 610.83112 765.94564 625.45367 787.25 642.9375 C 676.09081 707.48785 564.93097 772.02868 453.78125 836.59375 C 439.55125 823.60313 425.36232 810.63517 411.25 797.75 C 563.25001 746.74998 672.25 660.75 726.25 599.75 z M 274.25 837.75 C 293.18508 857.28145 311.88991 881.31567 330.125 908.46875 C 321.24232 913.62955 312.35132 918.77652 303.46875 923.9375 C 294.31986 895.15465 284.58825 866.27363 274.25 837.75 z M 1041.0938 920.1875 C 1231.1952 1163.2689 1417.2804 1457.2029 1473.25 1525.75 C 1323.25 1430.75 1175.25 1334.75 1014.25 1256.75 C 911.67438 1206.3699 815.91095 1141.766 724.6875 1070.5312 C 799.11572 1046.1119 871.62502 1016.0084 941.0625 979.25 C 975.33709 961.20173 1008.724 941.46234 1041.0938 920.1875 z M 653.71875 1091.9688 C 731.50451 1155.6096 812.99609 1214.5434 902.25 1262.75 C 1019.2499 1328.75 1142.25 1387.75 1255.25 1460.75 C 1309.25 1538.75 1373.25 1610.75 1414.25 1696.75 C 1373.25 1708.75 1333.25 1725.75 1291.25 1735.75 C 1208.25 1756.75 1099.25 1735.75 1059.25 1692.75 C 1005.25 1635.75 946.25 1392.75 915.25 1303.75 C 900.24998 1269.75 864.25 1312.75 857.25 1301.75 C 853.24998 1252.75 782.25 1249.75 787.25 1303.75 C 781.24998 1366.75 769.25 1429.75 739.25 1486.75 C 725.24998 1523.75 653.25 1473.75 609.25 1462.75 C 616.22075 1421.4616 589.20868 1288.9947 515.21875 1124.1562 C 561.81106 1115.2863 608.0506 1104.6057 653.71875 1091.9688 z M 447.75 1135.7188 C 496.55388 1251.9818 533.26459 1368.8161 548.25 1436.75 C 499.24998 1396.75 432.25 1370.75 417.25 1345.75 C 408.66738 1331.8033 391.98789 1252.4651 365.59375 1146.625 C 393.02092 1143.5339 420.42647 1139.9168 447.75 1135.7188 z M 477.25 1461.75 C 509.25001 1480.75 538.25 1506.75 573.25 1520.75 C 552.24998 1572.75 539.25 1630.75 496.25 1671.75 C 473.25001 1708.75 422.25 1673.75 385.25 1676.75 C 413.25001 1606.75 455.25 1575.75 477.25 1461.75 z "
     id="path2267" />
</svg>
