<?xml version="1.0" encoding="UTF-8" standalone="no"?>
<!-- Created with Inkscape (http://www.inkscape.org/) -->
<svg
   xmlns:dc="http://purl.org/dc/elements/1.1/"
   xmlns:cc="http://web.resource.org/cc/"
   xmlns:rdf="http://www.w3.org/1999/02/22-rdf-syntax-ns#"
   xmlns:svg="http://www.w3.org/2000/svg"
   xmlns="http://www.w3.org/2000/svg"
   xmlns:sodipodi="http://sodipodi.sourceforge.net/DTD/sodipodi-0.dtd"
   xmlns:inkscape="http://www.inkscape.org/namespaces/inkscape"
   sodipodi:docname="G9A.svg"
   sodipodi:docbase="/home/rosmord/Desktop/tmp"
   inkscape:version="0.45.1"
   sodipodi:version="0.32"
   id="svg1290"
   height="1800"
   width="1800"
   version="1.0"
   inkscape:output_extension="org.inkscape.output.svg.inkscape">
  <defs
     id="defs3" />
  <sodipodi:namedview
     inkscape:window-y="25"
     inkscape:window-x="10"
     inkscape:window-height="572"
     inkscape:window-width="753"
     inkscape:current-layer="layer1"
     inkscape:document-units="px"
     inkscape:cy="883.47137"
     inkscape:cx="763.98745"
     inkscape:zoom="0.20940844"
     inkscape:pageshadow="2"
     inkscape:pageopacity="0.0"
     borderopacity="1.0"
     bordercolor="#666666"
     pagecolor="#ffffff"
     id="base"
     showborder="true"
     width="1800px"
     height="1800px"
     showguides="true"
     inkscape:guide-bbox="true" />
  <metadata
     id="metadata4">
    <rdf:RDF>
      <cc:Work
         rdf:about="">
        <dc:format>image/svg+xml</dc:format>
        <dc:type
           rdf:resource="http://purl.org/dc/dcmitype/StillImage" />
        <cc:license
           rdf:resource="http://creativecommons.org/licenses/by-sa/2.0/" />
        <dc:subject>
          <rdf:Bag>
            <rdf:li>JSesh hieroglyph</rdf:li>
          </rdf:Bag>
        </dc:subject>
        <dc:creator>
          <cc:Agent>
            <dc:title>Serge Rosmorduc</dc:title>
          </cc:Agent>
        </dc:creator>
        <dc:description>Karnak Hypostyle Hall
</dc:description>
      </cc:Work>
      <cc:License
         rdf:about="http://creativecommons.org/licenses/by/2.0/">
        <cc:permits
           rdf:resource="http://web.resource.org/cc/Reproduction" />
        <cc:permits
           rdf:resource="http://web.resource.org/cc/Distribution" />
        <cc:requires
           rdf:resource="http://web.resource.org/cc/Notice" />
        <cc:requires
           rdf:resource="http://web.resource.org/cc/Attribution" />
        <cc:permits
           rdf:resource="http://web.resource.org/cc/DerivativeWorks" />
        <cc:requires
           rdf:resource="http://web.resource.org/cc/ShareAlike" />
      </cc:License>
    </rdf:RDF>
  </metadata>
  <g
     id="layer1"
     inkscape:groupmode="layer"
     inkscape:label="Layer 1">
    <path
       style="fill:#000000;stroke:none"
       d="M 325.28125 14 C 322.0124 14.033973 318.75636 14.118601 315.5 14.25 C 307.20045 14.450286 298.96065 15.247324 290.8125 16.5625 C 246.81203 23.664471 205.75854 46.47261 175.90625 79.375 C 143.61044 112.95523 127.34975 153.87251 119.5 204.34375 C 112.68318 248.17405 123.35179 290.17563 139.125 321.875 C 120.7312 339.28484 97.86119 351.98662 90.4375 338.9375 C 86.454448 329.3913 91.19719 318.79539 93.15625 309.21875 C 101.17823 283.53955 114.105 257.43975 109.8125 229.875 C 106.49996 199.22326 93.141155 169.97728 74.03125 146 C 67.804227 140.77217 60.464063 137.5685 52.75 135.25 C 45.035941 132.9315 36.907601 131.48971 29.21875 129.6875 C 19.307029 127.83597 5.229479 127.05102 0.1875 137.84375 C -6.99286 151.34448 0.546161 171.11997 16.3125 173.84375 C 24.602713 176.1908 33.252472 175.74951 41.53125 178.09375 C 28.958408 189.86498 18.0456 206.60807 21.34375 224.625 C 23.61229 269.12947 17.368842 316.66208 37.75 357.875 C 70.68949 410.35848 121.61808 385.58385 157.53125 351.65625 C 163.17691 358.99153 168.89222 365.0092 174.28125 369.40625 C 174.23437 369.59034 174.17393 369.78319 174.125 369.96875 L 202.625 391.4375 C 202.63693 391.40728 202.64435 391.37397 202.65625 391.34375 C 207.12309 394.90652 211.75647 398.23234 216.53125 401.3125 C 169.77113 417.28242 136.38287 444.597 121.90625 477.84375 C 118.32996 485.99791 108.49985 506.61615 125.46875 502.1875 C 183.28698 494.94161 177.40842 513.93545 186 516.03125 C 193.17013 538.50506 209.00569 583.45923 210.09375 601.09375 C 190.67965 669.63805 197.89296 741.50625 204.96875 776.125 C 216.88473 834.42497 255.17323 902.27339 305.4375 965.6875 C 304.32554 970.05239 303.94356 974.4699 305.4375 978.84375 C 329.41608 1052.2557 357.33186 1151.5625 377.3125 1244.5312 C 397.29315 1337.5001 408.60445 1425.8315 402.5625 1469.3438 C 400.8272 1481.3004 408.4578 1492.5728 420.1875 1495.4688 C 423.70176 1496.3405 426.82997 1497.9536 430.21875 1499.0625 L 356.34375 1744.1875 C 299.1288 1731.9901 234.94228 1750.1199 197.375 1741.2812 C 171.85512 1735.0438 72.858106 1759.4418 80.59375 1810.2812 C 104.43744 1790.2046 114.39035 1800.2586 144.90625 1799.7812 C 175.42214 1799.3037 239.90924 1785.2977 263.6875 1799.5625 C 362.64154 1795.6103 410.91773 1803.971 514.40625 1804.4688 C 577.18665 1803.9048 689.3879 1801.3847 751.28125 1798.2188 C 789.20756 1798.4472 809.0393 1803.0075 827.875 1802.4688 C 844.64394 1801.9802 860.79803 1791.9588 903.3125 1803.5938 C 878.41294 1769.5079 806.44684 1735.2145 773.375 1754.6875 C 744.68335 1751.7806 712.11513 1752.9892 678.9375 1754.4688 L 666.4375 1529.1875 C 705.21606 1545.3236 734.65671 1570.28 768.46875 1610.4688 C 775.40025 1618.4588 786.83549 1620.8199 796.375 1616.25 C 805.91455 1611.6802 811.22608 1601.2214 809.34375 1590.8125 C 794.01969 1508.1177 792.3263 1430.0872 793.25 1347.2188 C 836.20905 1375.3795 878.56039 1403.9644 918.71875 1434.3125 C 1034.4008 1560.1071 1150.2242 1685.8304 1265.9062 1811.625 C 1271.2382 1817.4538 1279.0744 1819.9976 1286.875 1818.75 C 1362.4665 1806.0755 1438.1273 1793.7059 1513.7188 1781.0312 C 1522.2029 1779.6558 1529.1762 1773.7317 1532.0312 1765.625 C 1534.8865 1757.5181 1533.0935 1748.3573 1527.3438 1741.9688 C 1468.264 1675.856 1407.2093 1612.1011 1348.0625 1547.2812 C 1460.5879 1616.4992 1606.3801 1704.8081 1594.3125 1683.9062 C 1586.8034 1670.9002 1522.6375 1623.7101 1453 1574.5 C 1464.0661 1579.1258 1474.9145 1584.0713 1486.0312 1588.5938 C 1486.4314 1588.8505 1486.96 1589.2367 1487.375 1589.4688 C 1495.5811 1592.2143 1500.124 1594.0815 1508.8125 1594.375 C 1510.9847 1594.4483 1513.3921 1594.2466 1517.5312 1593.0312 C 1521.6702 1591.8158 1528.6068 1588.3721 1532.4688 1581 C 1536.3307 1573.628 1535.5605 1566.0364 1534.25 1562 C 1532.9395 1557.9636 1531.2556 1555.8679 1530.0312 1554.1875 C 1525.1336 1547.4659 1521.807 1545.5603 1517.0625 1541.9062 C 1512.3178 1538.2518 1506.8805 1534.2719 1500.7812 1530.0938 C 1488.5828 1521.7376 1473.9615 1512.3218 1461.4688 1503.9688 C 1448.9762 1495.6158 1437.6249 1487.519 1435.3438 1485.4375 C 1434.6514 1484.7397 1433.8992 1484.0432 1433.125 1483.4375 C 1329.819 1410.7416 1226.5297 1338.1861 1123.25 1265.5312 C 1122.5872 1265.0625 1121.6919 1265.4534 1121 1265.0625 C 1014.8035 1116.2573 914.94463 960.45166 798.84375 817 C 739.57076 743.76374 671.51777 615.6562 561.0625 572.96875 C 555.73742 541.43389 543.7033 483.21255 501 441.6875 C 483.09755 424.27904 461.26328 411.49641 436.65625 402.59375 C 453.18138 392.39103 468.34314 379.95413 481.5625 365.84375 C 487.35 359.9222 492.7841 353.64001 497.875 347.09375 C 501.473 386.96179 506.3097 429.18096 529.3125 463 C 545.0808 484.22988 567.27265 500.82373 592.15625 509.625 C 600.62224 509.72077 603.31045 497.30952 596.65625 492.8125 C 584.18544 479.71803 571.0493 466.93882 562.6875 450.59375 C 539.2607 408.04722 539.9219 357.92543 539.75 310.625 C 539.9362 284.05257 538.39045 257.46691 538.09375 230.9375 C 540.18156 181.73249 525.4718 131.17607 492.875 93.84375 C 459.0752 51.708513 409.4826 19.879106 354.625 15.34375 C 344.93681 14.259906 335.0878 13.898082 325.28125 14 z M 329.625 70.125 C 385.2987 69.78687 440.32725 99.616092 467.90625 148.53125 C 488.85524 182.67961 496.02015 225.6391 484.09375 264.3125 C 472.97966 305.76675 443.47565 342.20574 404.65625 360.78125 C 365.39652 381.38469 317.27446 383.79999 275.6875 369.15625 C 243.49991 358.61607 215.63156 336.50484 197.625 307.8125 C 172.54873 271.12888 165.84174 222.72167 180.09375 180.65625 C 195.3004 134.81745 230.70121 95.21428 276.96875 79.71875 C 286.42854 76.355098 296.23802 73.852079 306.1875 72.21875 C 312.1572 71.238749 318.20501 70.579924 324.25 70.25 C 326.04639 70.175906 327.82907 70.135908 329.625 70.125 z M 328.84375 165.65625 C 327.76685 165.6588 326.66664 165.68881 325.59375 165.75 C 321.73004 165.69214 317.83689 166.0504 313.96875 166.71875 C 293.08104 170.32777 273.36596 184.22225 268.28125 205.4375 C 261.12032 232.17341 273.73937 264.9947 300.8125 274.59375 C 325.26613 283.86524 357.7547 279.99404 373.84375 257.59375 C 388.1621 236.13235 387.1023 205.29482 371.75 184.6875 C 361.39718 172.1534 344.99729 165.6179 328.84375 165.65625 z M 318.65625 423.4375 C 374.47043 423.1923 419.01517 439.25343 450.09375 461.5625 C 450.58297 465.83211 451.65482 470.10636 450.78125 474.28125 C 446.86926 494.04001 435.25128 512.35154 419.28125 524.53125 C 394.12599 540.99127 363.77376 545.72692 335.125 552.875 C 327.93509 553.61314 333.61644 555.33129 337.59375 556 C 357.17576 559.39319 399.29226 564.54781 419.0625 563.8125 C 441.19771 561.28046 462.09822 552.07529 480.03125 539.03125 C 486.33043 533.73936 491.72621 527.15948 496.3125 520.28125 C 508.06373 547.81215 514.44097 577.04403 517.09375 593.28125 C 518.5352 602.02908 524.69671 609.15924 533.15625 611.8125 C 623.80737 639.60462 695.4368 763.90302 762.4375 846.6875 C 900.1505 1016.8426 1017.2039 1207.1215 1152.0312 1384.9688 C 1077.4345 1348.6823 1003.104 1312.0114 928.34375 1275.5625 C 775.36215 1195.1082 616.06637 1130.9477 482.03125 1029.5312 C 481.80737 1029.3448 481.59893 1029.0614 481.375 1028.875 C 404.1444 964.58261 325.09309 896.69927 295.15625 806.5 C 283.3268 733.21865 435.0741 601.29238 417.96875 595.75 C 387.16825 585.77022 274.27683 680.39065 252.0625 770.3125 C 251.80297 769.17129 251.19719 767.8676 250.96875 766.75 C 245.16596 738.35942 238.64035 666.7003 256.3125 609.125 C 257.13431 606.43347 257.3935 603.68373 257.21875 600.875 C 255.96421 577.70058 252.42401 563.93796 247.375 550.40625 C 242.32597 536.87459 236.3012 523.00398 226.625 489.46875 C 224.16703 480.88793 215.35062 463.35957 210.09375 462 C 224.89588 451.03039 239.8959 439.63849 261.4375 432.09375 C 255.1472 438.17083 250.96876 446.95039 250.96875 457.09375 C 250.96874 475.37655 263.97135 490.12493 279.96875 490.125 C 295.96616 490.12501 309.00001 475.37654 309 457.09375 L 309 456.875 C 308.91827 442.20999 300.28296 430.11058 288.6875 425.84375 C 292.8893 425.25662 296.28717 424.36528 300.96875 424.0625 C 306.98091 423.67715 312.88237 423.46287 318.65625 423.4375 z M 373.3125 1041.5938 C 378.50826 1046.7893 384.07248 1051.4879 389.375 1056.5625 C 406.4228 1118.6588 422.22304 1187.1804 444.53125 1240.0625 C 483.00301 1331.2609 541.30619 1410.6056 590.96875 1491.25 C 578.81343 1497.7715 568.31855 1505.1742 560.40625 1512.6562 C 553.91576 1518.794 549.62191 1522.8691 544.53125 1528.0625 C 519.91181 1495.6551 488.30554 1470.5286 450.09375 1456.625 C 453.67092 1399.0553 441.49714 1320.3487 423.09375 1234.7188 C 408.87312 1168.5508 391.13775 1102.6337 373.3125 1041.5938 z M 453.4375 1113.9375 C 544.88473 1189.2223 646.75298 1252.3458 746.15625 1316.1875 C 744.72437 1388.636 744.75913 1457.7911 752.84375 1529.1875 C 719.98508 1501.6841 684.44213 1481.6971 639.21875 1470.6875 C 637.31925 1470.2202 635.71576 1471.5915 633.84375 1471.5938 C 582.21724 1386.9003 523.73427 1307.5981 487.625 1222 C 475.22611 1192.6083 464.2557 1154.3011 453.4375 1113.9375 z M 578.03125 1148.0938 C 685.863 1210.7894 799.71711 1260.7107 907.34375 1317.3125 C 907.50582 1317.396 907.6173 1317.4516 907.78125 1317.5312 C 1010.9215 1367.8167 1113.779 1419.5268 1217.9062 1469.125 C 1296.2642 1563.8217 1381.2894 1651.875 1463.0312 1741.5 C 1405.9477 1751.0713 1348.8961 1760.7411 1291.8125 1770.3125 C 1178.5923 1647.195 1065.2201 1524.3676 952 1401.25 C 951.11006 1400.1867 950.15687 1399.2649 949.09375 1398.375 C 829.70187 1307.8509 698.04725 1232.572 578.03125 1148.0938 z M 485.8125 1532.3125 C 498.84575 1544.4876 510.7214 1558.5503 520.875 1575.4062 C 524.27755 1580.9883 530.09324 1584.8252 536.5 1586.125 C 542.90676 1587.4248 549.50339 1586.1581 554.8125 1582.3438 C 572.00636 1569.8961 582.50724 1556.5591 592.78125 1546.8438 C 596.57211 1543.2589 600.4863 1540.3582 604.59375 1537.4375 L 616.4375 1754.25 C 577.28941 1751.7193 534.64498 1746.0257 515.28125 1765.1875 C 498.39085 1751.7671 461.44087 1751.3773 419.28125 1752.4688 L 485.8125 1532.3125 z "
       id="path2255" />
  </g>
</svg>
