<?xml version="1.0" encoding ="US-ASCII" standalone="yes"?>
<svg width="18.790136" height="12.72">
<path style="fill:#000000; stroke:none" d=" M 18.551418 3.717104  Q 17.903484 3.887613 17.187346 3.887613  Q 15.99378 3.887613 14.015871 3.171475  Q 13.09512 2.762252 12.037964 2.080214  Q 11.901553 2.421233 11.79925 3.989919  Q 11.696943 5.353995 11.185416 5.899625  Q 10.980806 6.54756 10.281716 7.877533  Q 9.582626 9.207506 9.309812 9.957747  Q 8.900591 11.151314 9.002894 12.34488  Q 8.69598 12.72 7.775227 12.72  Q 6.513459 12.6859 6.308848 12.72  Q 6.308848 12.583591 6.17244 12.464238  Q 6.036033 12.34488 5.967829 12.242575  Q 5.967829 10.673886 6.990883 9.173404  Q 7.945737 7.945737 8.93469 6.718069  Q 9.957747 5.28579 9.957747 3.853512  Q 9.957747 3.512493 9.889545 3.171475  Q 8.764182 2.830455 7.468309 2.830455  Q 6.138338 2.830455 3.81941 3.239678  Q 1.227667 3.648901 0.102306 3.717104  Q 0 3.648901 0 3.512493  Q 0 3.341983 0.272815 3.000965  Q 0.375121 2.762252 0.988954 2.694048  Q 2.114316 2.387131 4.467345 1.773297  Q 5.319892 1.568686 6.070135 0.579732  Q 6.718069 0 8.013942 0  Q 7.877533 0 10.70799 0.238713  Q 11.287719 0.443324 12.651796 0.852547  Q 14.90252 1.364075 16.096087 1.364075  Q 17.187346 1.364075 18.244503 1.023056  Q 18.619623 1.125362 18.619623 1.364075  Q 18.619623 1.500483 18.483221 1.670992  Q 18.142197 1.943807 17.528364 1.977909  Q 17.016836 1.943807 16.471203 1.943807  Q 14.800216 2.012011 12.617697 1.568686  Q 14.800216 3.171475 17.016836 3.171475  Q 17.289656 3.171475 17.750029 3.069169  Q 18.210402 2.966863 18.517317 3.000965  Q 18.790136 3.000965 18.790136 3.341983  Q 18.790136 3.546595 18.551418 3.717104  Z  M 11.185416 4.603753  Q 11.32182 3.546595 11.32182 3.035067  Q 11.32182 1.841501 10.810295 1.329973  Q 10.36697 0.886649 9.923644 0.784343  Q 9.616729 0.716139 8.593673 0.647936  Q 7.502412 0.613834 6.769222 1.023056  Q 6.036033 1.432279 5.353995 2.421233  Q 5.83142 2.387131 6.581662 2.301877  Q 7.331903 2.216622 7.672922 2.216622  Q 8.116245 2.216622 8.627773 2.318927  Q 9.241611 2.421233 9.855442 2.489437  Q 10.503378 2.625844 10.469275 3.000965  Q 10.57158 3.478391 10.57158 3.887613  Q 10.57158 5.08118 9.78724 6.445255  Q 9.309812 7.263699 7.775227 9.309812  Q 6.683966 10.36697 6.786274 11.833353  Q 7.161395 12.208472 7.60472 12.208472  Q 7.945737 12.208472 8.218553 11.867452  Q 8.593673 10.36697 8.917641 9.412118  Q 9.241611 8.457265 10.230562 6.752171  Q 11.083111 5.28579 11.185416 4.603753  Z  M 7.911635 1.705093  Q 7.741124 2.080214 7.331903 1.909705  Q 6.956782 1.739196 7.161395 1.329973  Q 7.331903 0.954852 7.707024 1.125362  Q 8.082143 1.329973 7.911635 1.705093  Z "/></svg>
