<?xml version="1.0" encoding="UTF-8" standalone="no"?>
<svg
   xmlns:dc="http://purl.org/dc/elements/1.1/"
   xmlns:cc="http://web.resource.org/cc/"
   xmlns:rdf="http://www.w3.org/1999/02/22-rdf-syntax-ns#"
   xmlns:svg="http://www.w3.org/2000/svg"
   xmlns="http://www.w3.org/2000/svg"
   xmlns:sodipodi="http://sodipodi.sourceforge.net/DTD/sodipodi-0.dtd"
   xmlns:inkscape="http://www.inkscape.org/namespaces/inkscape"
   width="17.4375"
   height="17.064495"
   id="svg2165"
   sodipodi:version="0.32"
   inkscape:version="0.45"
   sodipodi:docname="D21A.svg"
   inkscape:output_extension="org.inkscape.output.svg.inkscape"
   sodipodi:docbase="C:\Program Files\JSesh\fontsST"
   sodipodi:modified="true"
   version="1.0">
  <metadata
     id="metadata2172">
    <rdf:RDF>
      <cc:Work
         rdf:about="">
        <dc:format>image/svg+xml</dc:format>
        <dc:type
           rdf:resource="http://purl.org/dc/dcmitype/StillImage" />
      </cc:Work>
    </rdf:RDF>
  </metadata>
  <defs
     id="defs2170" />
  <sodipodi:namedview
     inkscape:window-height="708"
     inkscape:window-width="1024"
     inkscape:pageshadow="2"
     inkscape:pageopacity="0.0"
     guidetolerance="10.0"
     gridtolerance="10.0"
     objecttolerance="10.0"
     borderopacity="1.0"
     bordercolor="#666666"
     pagecolor="#ffffff"
     id="base"
     inkscape:zoom="28.174628"
     inkscape:cx="8.714163"
     inkscape:cy="9.1571752"
     inkscape:window-x="-4"
     inkscape:window-y="-4"
     inkscape:current-layer="svg2165" />
  <path
     style="fill:#000000;stroke:none"
     d="M 10.25,0.0019946159 C 9.8728896,0.021076616 9.4572835,0.18305162 9,0.47074462 C 8.1923301,0.98741562 7.7812499,2.5125119 7.78125,5.0332446 L 7.78125,12.283245 C 5.4795883,12.454115 2.8853247,13.245764 0,14.658245 C 3.2824033,16.251378 6.1917115,17.064494 8.71875,17.064495 C 11.245789,17.064495 14.155097,16.251378 17.4375,14.658245 C 14.247829,13.090213 11.402783,12.289891 8.90625,12.251995 L 8.90625,11.689495 C 8.90625,11.470301 9.0278637,11.174663 9.28125,10.783245 C 9.75635,10.18829 10.593501,9.7370365 11.78125,9.4082446 L 10.5,4.2832446 C 10.389144,3.8605128 10.66362,3.4715058 11.28125,3.0957446 C 12.13643,2.5477586 12.288023,1.8473946 11.78125,1.0332446 C 11.375435,0.31890662 10.878517,-0.029808384 10.25,0.0019946159 z M 10.40625,0.93949462 C 10.651718,0.97863662 10.833715,1.1498446 11,1.4394946 C 11.28506,1.9091966 11.08765,2.31386 10.375,2.6269946 C 9.6465136,2.9870992 9.38745,3.5628447 9.625,4.3769946 L 10.65625,8.7832446 C 9.9436005,8.8771853 9.3351098,9.2195397 8.8125,9.8144946 L 8.8125,4.3769946 C 8.8125,2.5608142 9.0403139,1.5182226 9.53125,1.2207446 C 9.8559019,1.0093786 10.160782,0.90035262 10.40625,0.93949462 z M 8.71875,13.189495 C 10.765102,13.189495 12.925188,13.700653 15.21875,14.689495 C 12.925188,15.650868 10.765102,16.126995 8.71875,16.126995 C 6.686132,16.126995 4.5260459,15.650868 2.21875,14.689495 C 4.526046,13.700653 6.6861322,13.189495 8.71875,13.189495 z "
     id="path2167" />
</svg>
