<?xml version="1.0" encoding="UTF-8" standalone="no"?>
<svg
   xmlns:dc="http://purl.org/dc/elements/1.1/"
   xmlns:cc="http://web.resource.org/cc/"
   xmlns:rdf="http://www.w3.org/1999/02/22-rdf-syntax-ns#"
   xmlns:svg="http://www.w3.org/2000/svg"
   xmlns="http://www.w3.org/2000/svg"
   xmlns:sodipodi="http://sodipodi.sourceforge.net/DTD/sodipodi-0.dtd"
   xmlns:inkscape="http://www.inkscape.org/namespaces/inkscape"
   width="43.09375"
   height="16.313278"
   id="svg2214"
   sodipodi:version="0.32"
   inkscape:version="0.45"
   sodipodi:docname="Aa86.svg"
   inkscape:output_extension="org.inkscape.output.svg.inkscape"
   sodipodi:docbase="C:\Program Files\JSesh\GroupeG"
   sodipodi:modified="true"
   version="1.0">
  <metadata
     id="metadata2221">
    <rdf:RDF>
      <cc:Work
         rdf:about="">
        <dc:format>image/svg+xml</dc:format>
        <dc:type
           rdf:resource="http://purl.org/dc/dcmitype/StillImage" />
      </cc:Work>
    </rdf:RDF>
  </metadata>
  <defs
     id="defs2219" />
  <sodipodi:namedview
     inkscape:window-height="708"
     inkscape:window-width="1024"
     inkscape:pageshadow="2"
     inkscape:pageopacity="0.0"
     guidetolerance="10.0"
     gridtolerance="10.0"
     objecttolerance="10.0"
     borderopacity="1.0"
     bordercolor="#666666"
     pagecolor="#ffffff"
     id="base"
     inkscape:zoom="21.789703"
     inkscape:cx="21.546875"
     inkscape:cy="8.1566392"
     inkscape:window-x="-4"
     inkscape:window-y="-4"
     inkscape:current-layer="svg2214" />
  <path
     style="fill:#000000;stroke:none"
     d="M 9.53125,0.00077823361 C 9.1142171,0.0075318162 8.688982,0.062478235 8.25,0.15702823 L 5.75,0.90702823 C 4.3182432,1.3122422 2.5048922,1.5802209 0.34375,1.6882782 C 0.1006212,1.7423069 -9.9999925e-008,1.8826496 7.4606987e-014,2.1257782 C -9.9999925e-008,2.3959209 0.1048574,2.5320282 0.375,2.5320282 C 4.1840132,2.4509849 6.497836,2.543135 7.28125,2.8132782 C 8.3077929,3.5696775 9.3526939,3.8418921 10.40625,3.6257782 C 11.459807,3.4096642 12.004235,3.5018142 12.03125,3.9070282 C 12.058263,4.3122422 11.149471,4.8262217 9.3125,5.4070282 C 7.4755291,5.9878355 6.4044141,6.764757 6.09375,7.7507782 C 5.7830859,8.7367989 5.7695787,9.9000636 6.09375,11.250778 C 6.3909067,12.601492 7.203314,14.287207 8.5,16.313278 L 19.90625,16.313278 L 30.6875,16.313278 L 40.8125,16.313278 C 39.542829,14.071093 38.313627,12.34142 37.125,11.125778 C 35.936372,9.9101355 34.408743,9.1771708 32.53125,8.9070282 C 30.653758,8.6368855 29.722986,8.3604357 29.75,8.0632782 C 29.75,7.9094893 30.175487,7.6604482 30.9375,7.3445282 C 31.136213,7.3995763 31.316806,7.4549428 31.53125,7.5007782 L 31.875,6.9695282 C 32.109286,6.8847541 32.320163,6.8126644 32.59375,6.7195282 C 34.498257,6.0711862 35.468751,5.1623921 35.46875,4.0007782 C 36.819465,4.6491209 38.11738,6.7443789 41.65625,7.5007782 L 42.5,6.1882782 C 38.20473,5.4859069 36.493693,3.3991209 35.65625,2.7507782 C 36.385635,3.2910635 37.332445,4.4739144 42.53125,5.7507782 L 43.09375,4.4382782 C 37.960374,4.0750275 36.090171,2.3414209 33.875,1.1257782 C 32.821443,0.35587123 31.657348,-0.019482513 30.40625,0.00077823361 C 29.989217,0.0075318161 29.563982,0.062478236 29.125,0.15702823 L 26.625,0.90702823 C 25.909122,1.1096352 25.116975,1.2787104 24.21875,1.4070282 C 24.063476,1.3158775 23.907765,1.2123565 23.75,1.1257782 C 22.696443,0.35587123 21.532349,-0.019482513 20.28125,0.00077823361 C 19.864217,0.0075318161 19.438982,0.062478236 19,0.15702823 L 16.5,0.90702823 C 15.665213,1.1432886 14.677049,1.3342615 13.59375,1.4695282 C 13.398877,1.3541288 13.198014,1.2344444 13,1.1257782 C 11.946443,0.35587121 10.782349,-0.019482514 9.53125,0.00077823361 z M 9.375,0.81327823 C 10.269004,0.83100623 11.093245,1.0651727 11.8125,1.5007782 C 12.771507,2.0815849 12.555957,2.5076496 11.21875,2.7507782 C 9.8815431,2.9939069 8.982021,2.8662716 8.46875,2.4070282 C 7.4422071,1.9477862 6.585843,1.7634855 5.9375,1.8445282 L 5.90625,1.5945282 L 8.46875,0.87577823 C 8.7861678,0.83525673 9.0769987,0.8073689 9.375,0.81327823 z M 20.125,0.84452823 C 21.019004,0.86225623 21.843245,1.0651727 22.5625,1.5007782 C 23.521507,2.0815849 23.305957,2.5076495 21.96875,2.7507782 C 20.631543,2.9939069 19.732021,2.8662715 19.21875,2.4070282 C 18.192207,1.9477862 17.335843,1.7634855 16.6875,1.8445282 L 16.65625,1.6257782 L 19.21875,0.87577823 C 19.536168,0.83525673 19.826999,0.8386189 20.125,0.84452823 z M 30.25,0.84452823 C 31.144004,0.86225623 31.968245,1.0651727 32.6875,1.5007782 C 33.646507,2.0815849 33.462208,2.5076495 32.125,2.7507782 C 30.787793,2.9939069 29.857021,2.8662715 29.34375,2.4070282 C 28.317207,1.9477862 27.460843,1.7634855 26.8125,1.8445282 L 26.78125,1.6257782 L 29.34375,0.87577823 C 29.661168,0.83525673 29.951999,0.8386189 30.25,0.84452823 z M 9.40625,1.1882782 C 9.1631215,1.1612639 8.8604565,1.2314356 8.46875,1.4070282 L 8.40625,1.6570282 C 8.514307,2.0622422 8.808501,2.2423068 9.28125,2.1882782 C 9.754001,2.1342495 9.960279,1.9144635 9.90625,1.5632782 C 9.8116995,1.3336569 9.6493785,1.2152925 9.40625,1.1882782 z M 20.15625,1.1882782 C 19.913122,1.1612639 19.610456,1.2314356 19.21875,1.4070282 L 19.15625,1.6570282 C 19.264307,2.0622422 19.558501,2.2423069 20.03125,2.1882782 C 20.504001,2.1342495 20.710279,1.9144635 20.65625,1.5632782 C 20.5617,1.3336569 20.399378,1.2152925 20.15625,1.1882782 z M 30.28125,1.1882782 C 30.038121,1.1612639 29.735457,1.2314356 29.34375,1.4070282 L 29.3125,1.6570282 C 29.420557,2.0622422 29.683501,2.2423069 30.15625,2.1882782 C 30.629001,2.1342495 30.86653,1.9144635 30.8125,1.5632782 C 30.71795,1.3336569 30.524379,1.2152925 30.28125,1.1882782 z M 15.46875,2.5632782 C 16.734511,2.6071892 17.616046,2.670104 18.03125,2.8132782 C 19.057793,3.5696775 20.102694,3.8418922 21.15625,3.6257782 C 22.209807,3.4096642 22.754235,3.5018141 22.78125,3.9070282 C 22.795048,4.1140017 22.566251,4.372994 22.09375,4.6257782 L 22.1875,4.4070282 C 18.934717,4.176853 17.014947,3.4095095 15.46875,2.5632782 z M 26.21875,2.5945282 C 27.13105,2.6455976 27.815696,2.6958453 28.15625,2.8132782 C 29.182793,3.5696775 30.227695,3.8418922 31.28125,3.6257782 C 32.334807,3.4096642 32.879235,3.5018141 32.90625,3.9070282 C 32.915995,4.0532062 32.764075,4.2379994 32.53125,4.4070282 C 29.536677,4.1410178 27.690572,3.4063443 26.21875,2.5945282 z M 25.53125,2.7507782 C 26.165207,3.2203762 26.982135,4.1705136 30.59375,5.2507782 C 30.452577,5.298334 30.341829,5.358233 30.1875,5.4070282 C 30.069138,5.4444514 29.987025,5.4929228 29.875,5.5320282 C 27.379009,4.6156249 26.180431,3.2533701 25.53125,2.7507782 z M 15.40625,3.2820282 C 16.113353,3.8234156 17.339009,4.556415 20.1875,5.3757782 C 20.142209,5.390363 20.108984,5.392331 20.0625,5.4070282 C 19.830972,5.4802321 19.642576,5.5765967 19.4375,5.6570282 C 17.397551,4.9691506 16.173538,3.9581541 15.40625,3.2820282 z M 14.5625,4.0007782 C 15.514494,4.4577351 16.478619,5.6151328 18.1875,6.5320282 C 18.100044,6.4852466 17.989722,6.4550012 17.90625,6.4070282 C 17.350567,6.8045803 17.002231,7.2477741 16.84375,7.7507782 C 16.533086,8.7367989 16.519579,9.9000645 16.84375,11.250778 C 16.903302,11.52147 17.01885,11.824881 17.125,12.125778 C 16.822778,11.757708 16.515907,11.429689 16.21875,11.125778 C 15.030122,9.9101354 13.502493,9.177171 11.625,8.9070282 C 9.7475081,8.6368855 8.816736,8.3604358 8.84375,8.0632782 C 8.84375,7.8201502 9.8142439,7.3678716 11.71875,6.7195282 C 13.623257,6.0711862 14.5625,5.1623922 14.5625,4.0007782 z M 25.3125,4.0007782 C 26.148839,4.4022208 26.994264,5.3386837 28.34375,6.1882782 C 27.610412,6.6334225 27.154782,7.1603313 26.96875,7.7507782 C 26.670628,8.6969921 26.682261,9.8124729 26.96875,11.094528 C 25.784039,9.8975919 24.236327,9.1748448 22.375,8.9070282 C 20.497508,8.6368855 19.597986,8.3604357 19.625,8.0632782 C 19.625,7.9269661 19.932588,7.7019655 20.53125,7.4382782 C 20.618397,7.4591864 20.69127,7.4815458 20.78125,7.5007782 L 20.9375,7.2507782 C 21.355685,7.083825 21.842035,6.9328781 22.46875,6.7195282 C 24.373257,6.0711862 25.3125,5.1623921 25.3125,4.0007782 z M 8.75,9.5007782 C 9.4591248,9.485583 10.332432,9.6335087 11.40625,9.9070282 C 12.838007,10.271721 13.5625,10.570149 13.5625,10.813278 C 12.725057,10.894321 11.992093,10.876578 11.34375,10.782028 C 10.695408,10.687478 10.287086,10.937714 10.125,11.532028 C 9.854857,12.450514 10.271651,13.679715 11.40625,15.219528 L 9.25,15.219528 C 8.223457,13.760757 7.582643,12.487599 7.3125,11.407028 C 7.0423569,10.326457 7.310336,9.711857 8.09375,9.5632782 C 8.2896035,9.5261337 8.5136251,9.5058433 8.75,9.5007782 z M 19.5,9.5007782 C 20.209125,9.4855829 21.082433,9.6335087 22.15625,9.9070282 C 23.588007,10.271721 24.3125,10.570149 24.3125,10.813278 C 23.475057,10.894321 22.742093,10.876578 22.09375,10.782028 C 21.445408,10.687478 21.037086,10.937714 20.875,11.532028 C 20.604857,12.450514 21.021651,13.679715 22.15625,15.219528 L 20.03125,15.219528 C 19.004707,13.760757 18.332643,12.487599 18.0625,11.407028 C 17.792357,10.326457 18.060336,9.7118569 18.84375,9.5632782 C 19.039604,9.5261337 19.263625,9.5058433 19.5,9.5007782 z M 29.625,9.5007782 C 30.334125,9.4855829 31.238682,9.6335087 32.3125,9.9070282 C 33.744257,10.271721 34.437501,10.570149 34.4375,10.813278 C 33.600057,10.894321 32.867093,10.876578 32.21875,10.782028 C 31.570408,10.687478 31.162085,10.937714 31,11.532028 C 30.729857,12.450514 31.177901,13.679715 32.3125,15.219528 L 30.15625,15.219528 C 29.129707,13.760757 28.488893,12.487599 28.21875,11.407028 C 27.948607,10.326457 28.185336,9.7118569 28.96875,9.5632782 C 29.164603,9.5261337 29.388625,9.5058433 29.625,9.5007782 z M 14.28125,11.344528 C 15.388835,11.749742 16.613801,13.031371 17.9375,15.219528 L 12.84375,15.219528 C 11.601093,13.679715 11.060899,12.590857 11.25,11.969528 C 11.331043,11.699386 11.783322,11.620743 12.59375,11.688278 C 13.404178,11.755814 13.957078,11.641685 14.28125,11.344528 z M 25.03125,11.344528 C 26.138835,11.749742 27.363802,13.031371 28.6875,15.219528 L 23.59375,15.219528 C 22.351093,13.679715 21.810899,12.590857 22,11.969528 C 22.081043,11.699386 22.533321,11.620743 23.34375,11.688278 C 24.154178,11.755814 24.707079,11.641685 25.03125,11.344528 z M 35.1875,11.344528 C 36.295085,11.749742 37.488801,13.031371 38.8125,15.219528 L 33.71875,15.219528 C 32.476093,13.679715 31.935899,12.590857 32.125,11.969528 C 32.206043,11.699386 32.658322,11.620743 33.46875,11.688278 C 34.279178,11.755814 34.863327,11.641685 35.1875,11.344528 z "
     id="path2245" />
</svg>
