<?xml version="1.0" encoding="UTF-8" standalone="no"?>
<svg
   xmlns:dc="http://purl.org/dc/elements/1.1/"
   xmlns:cc="http://web.resource.org/cc/"
   xmlns:rdf="http://www.w3.org/1999/02/22-rdf-syntax-ns#"
   xmlns:svg="http://www.w3.org/2000/svg"
   xmlns="http://www.w3.org/2000/svg"
   xmlns:sodipodi="http://sodipodi.sourceforge.net/DTD/sodipodi-0.dtd"
   xmlns:inkscape="http://www.inkscape.org/namespaces/inkscape"
   width="19.25"
   height="17.979979"
   id="svg2746"
   sodipodi:version="0.32"
   inkscape:version="0.45"
   sodipodi:docname="N16.svg"
   inkscape:output_extension="org.inkscape.output.svg.inkscape"
   sodipodi:docbase="C:\Program Files\JSesh\fontsST"
   sodipodi:modified="true"
   version="1.0">
  <metadata
     id="metadata2753">
    <rdf:RDF>
      <cc:Work
         rdf:about="">
        <dc:format>image/svg+xml</dc:format>
        <dc:type
           rdf:resource="http://purl.org/dc/dcmitype/StillImage" />
      </cc:Work>
    </rdf:RDF>
  </metadata>
  <defs
     id="defs2751" />
  <sodipodi:namedview
     inkscape:window-height="708"
     inkscape:window-width="1024"
     inkscape:pageshadow="2"
     inkscape:pageopacity="0.0"
     guidetolerance="10.0"
     gridtolerance="10.0"
     objecttolerance="10.0"
     borderopacity="1.0"
     bordercolor="#666666"
     pagecolor="#ffffff"
     id="base"
     inkscape:zoom="28.698587"
     inkscape:cx="9.625"
     inkscape:cy="8.9899891"
     inkscape:window-x="-4"
     inkscape:window-y="-4"
     inkscape:current-layer="svg2746" />
  <path
     style="fill:#000000;stroke:none"
     d="M 11.21875,0.011229257 C 10.632962,0.055511257 10.133736,0.22870886 9.71875,0.54247926 C 9.1654347,0.96083926 8.7344012,1.6340228 8.4375,2.5112293 C 8.2305657,3.5881718 8.2275353,4.5296577 8.1875,5.5112293 L 8.09375,7.7612293 L 0.78125,7.7612293 C 0.266678,8.0989173 -6.9388939e-018,8.5867632 1.3524338e-034,9.2299793 C 1.3524338e-034,9.9053566 0.26667802,10.407465 0.78125,10.761229 L 7.96875,10.761229 L 7.65625,17.979979 L 8.96875,17.979979 L 8.96875,13.948729 C 9.859452,13.01754 11.060242,12.445907 12.53125,12.229979 C 12.510448,11.782744 12.451099,11.282611 12.40625,10.761229 L 18.5625,10.761229 C 19.028833,10.407465 19.25,9.9053566 19.25,9.2299793 C 19.25,8.5867633 19.028833,8.0989173 18.5625,7.7612293 L 12.09375,7.7612293 C 11.890138,6.1881862 11.78125,5.1193495 11.78125,4.6362293 C 11.78125,4.1234006 11.78551,3.7846793 11.8125,3.6362293 C 12.757185,3.24486 13.22124,2.5521526 13.1875,1.5737293 C 13.153762,0.59530666 12.700714,0.071959357 11.84375,0.011229257 C 11.629509,-0.003953243 11.414013,-0.003531443 11.21875,0.011229257 z M 11.625,0.69872926 C 11.803815,0.71559856 11.975665,0.74613026 12.09375,0.82372926 C 12.329921,0.97892796 12.455254,1.2100701 12.46875,1.4799793 C 12.455254,1.938826 12.316426,2.2860645 12.09375,2.5424793 C 11.871075,2.7988933 11.600884,2.9835191 11.25,3.1049793 C 11.169028,3.55033 11.125,4.0474052 11.125,4.5737293 C 11.125,5.3294773 11.199559,6.4464705 11.375,7.9174793 C 11.590928,9.4964513 11.723009,10.643977 11.75,11.386229 C 10.440938,11.723616 9.3942428,12.15465 8.625,12.667479 C 8.786946,8.2139673 8.9367812,5.3465646 9.03125,4.1049793 C 9.125718,2.8633946 9.3408757,2.0393241 9.71875,1.5737293 C 10.096623,1.1081346 10.52091,0.81769986 11,0.72997926 C 11.239545,0.68611896 11.446185,0.68185996 11.625,0.69872926 z M 1.4375,8.5424793 L 8.0625,8.5424793 L 8,10.011229 L 1.4375,10.011229 C 1.2284547,10.011229 1.058104,9.937204 0.9375,9.7924793 C 0.81689733,9.6477546 0.78125002,9.4551033 0.78125,9.2299793 C 0.78125,9.004854 0.81689732,8.8193333 0.9375,8.6987293 C 1.058104,8.5781266 1.2284548,8.5424793 1.4375,8.5424793 z M 12.1875,8.5424793 L 17.78125,8.5424793 C 18.006382,8.5424793 18.16869,8.5781266 18.28125,8.6987293 C 18.393813,8.8193333 18.4375,9.004854 18.4375,9.2299793 C 18.4375,9.4551033 18.385773,9.6477546 18.28125,9.7924793 C 18.176729,9.937204 18.022461,10.011229 17.78125,10.011229 L 12.34375,10.011229 C 12.297429,9.5527499 12.250147,9.0512975 12.1875,8.5424793 z "
     id="path2748" />
</svg>
