<?xml version="1.0" encoding="UTF-8" standalone="no"?>
<svg
   xmlns:dc="http://purl.org/dc/elements/1.1/"
   xmlns:cc="http://web.resource.org/cc/"
   xmlns:rdf="http://www.w3.org/1999/02/22-rdf-syntax-ns#"
   xmlns:svg="http://www.w3.org/2000/svg"
   xmlns="http://www.w3.org/2000/svg"
   xmlns:sodipodi="http://sodipodi.sourceforge.net/DTD/sodipodi-0.dtd"
   xmlns:inkscape="http://www.inkscape.org/namespaces/inkscape"
   width="9.4764404"
   height="17.387903"
   id="svg2"
   sodipodi:version="0.32"
   inkscape:version="0.45"
   sodipodi:docname="H6.svg"
   sodipodi:docbase="C:\Program Files\JSesh\fontsST"
   inkscape:output_extension="org.inkscape.output.svg.inkscape"
   sodipodi:modified="true"
   version="1.0">
  <metadata
     id="metadata9">
    <rdf:RDF>
      <cc:Work
         rdf:about="">
        <dc:format>image/svg+xml</dc:format>
        <dc:type
           rdf:resource="http://purl.org/dc/dcmitype/StillImage" />
      </cc:Work>
    </rdf:RDF>
  </metadata>
  <defs
     id="defs7" />
  <sodipodi:namedview
     inkscape:window-height="708"
     inkscape:window-width="1024"
     inkscape:pageshadow="2"
     inkscape:pageopacity="0.0"
     guidetolerance="10.0"
     gridtolerance="10.0"
     objecttolerance="10.0"
     borderopacity="1.0"
     bordercolor="#666666"
     pagecolor="#ffffff"
     id="base"
     inkscape:zoom="31.123831"
     inkscape:cx="5.515955"
     inkscape:cy="8.3344495"
     inkscape:window-x="-4"
     inkscape:window-y="-4"
     inkscape:current-layer="svg2" />
  <path
     style="fill:#000000;stroke:none"
     d="M 0.20911812,4.2074365 C -0.047502247,3.317612 -0.067937837,2.5430655 0.14781116,1.8837967 C 0.3635593,1.2245277 0.8406634,0.67537573 1.5791236,0.23634046 C 2.3175832,-0.20269444 2.9797707,-0.030053576 3.5656859,0.75426303 C 4.151602,1.5385798 4.1682733,2.3609304 3.6156993,3.2213146 C 3.6782254,3.3586332 3.8557771,3.637882 4.1483542,4.0590611 C 4.4409314,4.4802403 5.1780422,5.3402809 6.3596865,6.6391832 C 7.484051,7.8792839 8.3994747,8.9605328 9.1059575,9.8829298 C 8.0210287,10.899503 7.3784327,12.044256 7.1781701,13.317189 L 9.4764401,16.625661 L 8.379158,17.387903 L 1.7138027,6.8347736 C 1.1866804,6.0057816 0.6535791,5.209974 0.20911812,4.2074365 z M 6.1563946,12.449492 C 6.495586,11.589447 7.1064971,10.647458 7.9891274,9.6235243 C 7.543493,9.0293219 6.7815916,8.145422 5.7034236,6.9718245 C 4.7201016,5.8637974 4.0128573,4.9994412 3.5816906,4.3787557 C 3.2814142,3.9464931 3.0374869,3.5243835 2.8499088,3.112427 C 3.0687896,2.8124888 3.1965259,2.4937051 3.2331176,2.1560759 C 3.269709,1.8184462 3.162657,1.4573592 2.9119616,1.0728151 C 2.7468898,0.858842 2.5231005,0.75549371 2.2405934,0.76277044 C 1.9580861,0.77004806 1.6451204,0.94637313 1.3016965,1.2917456 C 0.9582725,1.637118 0.7642041,2.1087889 0.7194914,2.7067584 C 0.674778,3.3047282 0.9678009,4.140509 1.59856,5.2141009 C 2.2293189,6.2876939 3.7485971,8.6994908 6.1563946,12.449492 z "
     id="path4"
     sodipodi:nodetypes="cssscsscccccccccscssssssc" />
</svg>
