<?xml version="1.0" encoding="UTF-8" standalone="no"?>
<svg
   xmlns:dc="http://purl.org/dc/elements/1.1/"
   xmlns:cc="http://web.resource.org/cc/"
   xmlns:rdf="http://www.w3.org/1999/02/22-rdf-syntax-ns#"
   xmlns:svg="http://www.w3.org/2000/svg"
   xmlns="http://www.w3.org/2000/svg"
   xmlns:sodipodi="http://sodipodi.sourceforge.net/DTD/sodipodi-0.dtd"
   xmlns:inkscape="http://www.inkscape.org/namespaces/inkscape"
   width="10.96875"
   height="17.37541"
   id="svg2"
   sodipodi:version="0.32"
   inkscape:version="0.45"
   sodipodi:docname="H6B.svg"
   sodipodi:docbase="C:\Program Files\JSesh\fontsST"
   inkscape:output_extension="org.inkscape.output.svg.inkscape"
   version="1.0"
   sodipodi:modified="true">
  <metadata
     id="metadata9">
    <rdf:RDF>
      <cc:Work
         rdf:about="">
        <dc:format>image/svg+xml</dc:format>
        <dc:type
           rdf:resource="http://purl.org/dc/dcmitype/StillImage" />
      </cc:Work>
    </rdf:RDF>
  </metadata>
  <defs
     id="defs7" />
  <sodipodi:namedview
     inkscape:window-height="708"
     inkscape:window-width="1024"
     inkscape:pageshadow="2"
     inkscape:pageopacity="0.0"
     guidetolerance="10.0"
     gridtolerance="10.0"
     objecttolerance="10.0"
     borderopacity="1.0"
     bordercolor="#666666"
     pagecolor="#ffffff"
     id="base"
     inkscape:zoom="83.935848"
     inkscape:cx="0.72676965"
     inkscape:cy="14.85567"
     inkscape:window-x="0"
     inkscape:window-y="26"
     inkscape:current-layer="svg2" />
  <path
     style="fill:#000000;stroke:none"
     d="M 3.875,0.00041103125 C 3.6195292,-0.0069846888 3.3706723,0.085772942 3.09375,0.25041103 C 2.6322124,0.52480807 2.2573532,0.82748523 2,1.187911 L 1.0625,0.50041103 L 0.65625,1.094161 L 1.6875,1.844161 C 1.6829487,1.857333 1.6605898,1.8621498 1.65625,1.875411 C 1.6023128,2.0402282 1.5556642,2.2274341 1.53125,2.406661 L 0.34375,1.531661 L 0,2.094161 L 1.53125,3.219161 C 1.5623466,3.5364768 1.616576,3.8648752 1.71875,4.219161 C 2.163211,5.2216985 2.6916277,6.0151691 3.21875,6.844161 L 9.875,17.375411 L 10.96875,16.625411 L 8.6875,13.312911 C 8.8877626,12.039978 9.5088217,10.891984 10.59375,9.875411 C 9.8872672,8.953014 8.9993646,7.8655119 7.875,6.625411 C 6.6933557,5.3265087 5.9488273,4.4840902 5.65625,4.062911 C 5.3636729,3.6417319 5.1875261,3.3564795 5.125,3.219161 C 5.677574,2.3587768 5.648416,1.5347278 5.0625,0.75041103 C 4.696303,0.26021315 4.3007847,0.012737231 3.875,0.00041103125 z M 3.75,0.75041103 C 4.0325071,0.7431343 4.2411782,0.84893797 4.40625,1.062911 C 4.6569454,1.4474551 4.7553414,1.8190312 4.71875,2.156661 C 4.6821583,2.4942902 4.5626308,2.8254728 4.34375,3.125411 C 4.5313281,3.5373675 4.7934737,3.9431485 5.09375,4.375411 C 5.5249167,4.9960965 6.2354281,5.8611338 7.21875,6.969161 C 8.296918,8.1427585 9.0543654,9.0312082 9.5,9.625411 C 8.6173697,10.649345 7.9954415,11.577866 7.65625,12.437911 C 5.2484525,8.6879098 3.7245089,6.2927541 3.09375,5.219161 C 2.4629909,4.1455691 2.1740366,3.3171307 2.21875,2.719161 C 2.2634627,2.1211915 2.469076,1.6270335 2.8125,1.281661 C 3.1559239,0.93628856 3.4674927,0.75768868 3.75,0.75041103 z "
     id="path4" />
</svg>
