<?xml version="1.0" encoding="UTF-8" standalone="no"?>
<svg
   xmlns:dc="http://purl.org/dc/elements/1.1/"
   xmlns:cc="http://creativecommons.org/ns#"
   xmlns:rdf="http://www.w3.org/1999/02/22-rdf-syntax-ns#"
   xmlns:svg="http://www.w3.org/2000/svg"
   xmlns="http://www.w3.org/2000/svg"
   xmlns:sodipodi="http://sodipodi.sourceforge.net/DTD/sodipodi-0.dtd"
   xmlns:inkscape="http://www.inkscape.org/namespaces/inkscape"
   width="21.875"
   height="11.46875"
   id="svg2441"
   sodipodi:version="0.32"
   inkscape:version="0.46"
   sodipodi:docname="I112.svg"
   inkscape:output_extension="org.inkscape.output.svg.inkscape"
   version="1.0">
  <metadata
     id="metadata2448">
    <rdf:RDF>
      <cc:Work
         rdf:about="">
        <dc:format>image/svg+xml</dc:format>
        <dc:type
           rdf:resource="http://purl.org/dc/dcmitype/StillImage" />
      </cc:Work>
    </rdf:RDF>
  </metadata>
  <defs
     id="defs2446">
    <inkscape:perspective
       sodipodi:type="inkscape:persp3d"
       inkscape:vp_x="0 : 5.421875 : 1"
       inkscape:vp_y="0 : 1000 : 0"
       inkscape:vp_z="20.75 : 5.421875 : 1"
       inkscape:persp3d-origin="10.375 : 3.6145833 : 1"
       id="perspective2450" />
  </defs>
  <sodipodi:namedview
     inkscape:window-height="708"
     inkscape:window-width="1024"
     inkscape:pageshadow="2"
     inkscape:pageopacity="0.0"
     guidetolerance="10.0"
     gridtolerance="10.0"
     objecttolerance="10.0"
     borderopacity="1.0"
     bordercolor="#666666"
     pagecolor="#ffffff"
     id="base"
     showgrid="false"
     inkscape:zoom="41.707865"
     inkscape:cx="10.9375"
     inkscape:cy="5.734375"
     inkscape:window-x="-4"
     inkscape:window-y="-4"
     inkscape:current-layer="svg2441" />
  <path
     style="fill:#000000;stroke:none"
     d="M 10.96875 -0.09375 L 10.1875 1.125 L 9.03125 -0.03125 L 8.71875 1.28125 L 7.15625 0.21875 L 7.25 1.5625 L 5.40625 0.65625 L 5.9375 1.9375 L 3.84375 1.21875 L 4.75 2.4375 L 2.46875 1.9375 L 3.75 3.03125 L 1.375 2.78125 L 3 3.75 L 0.5 3.71875 L 2.4375 4.5 L 0 4.6875 L 2.15625 5.3125 L -0.1875 5.71875 L 2.09375 6.125 L -0.0625 6.75 L 2.375 6.9375 L 0.46875 7.71875 L 2.90625 7.6875 L 1.3125 8.65625 L 3.71875 8.40625 L 2.40625 9.5 L 4.6875 9 L 3.78125 10.21875 L 5.875 9.5 L 5.34375 10.78125 L 7.1875 9.875 L 7.09375 11.21875 L 8.625 10.1875 L 8.96875 11.4375 L 10.1875 10.25 L 11 11.5625 L 11.75 10.34375 L 12.90625 11.46875 L 13.25 10.1875 L 14.78125 11.21875 L 14.6875 9.90625 L 16.53125 10.8125 L 16 9.5 L 18.09375 10.21875 L 17.1875 9 L 19.46875 9.5 L 18.15625 8.40625 L 20.5625 8.6875 L 18.96875 7.6875 L 21.4375 7.75 L 19.5 6.9375 L 21.9375 6.78125 L 19.75 6.125 L 22.0625 5.75 L 19.6875 5.34375 L 21.875 4.6875 L 19.46875 4.5 L 21.375 3.71875 L 18.875 3.78125 L 20.5 2.78125 L 18.125 3.0625 L 19.40625 1.96875 L 17.125 2.46875 L 18.03125 1.25 L 15.9375 1.9375 L 16.46875 0.65625 L 14.625 1.59375 L 14.71875 0.25 L 13.15625 1.28125 L 12.84375 0 L 11.6875 1.125 L 10.96875 -0.09375 z M 10.9375 0.59375 L 11.46875 1.5625 L 11.75 1.5625 L 12.625 0.65625 L 12.84375 1.6875 L 13.125 1.6875 L 14.28125 0.875 L 14.1875 1.90625 L 14.4375 1.9375 L 15.8125 1.25 L 15.40625 2.25 L 15.625 2.3125 L 17.21875 1.75 L 16.46875 2.71875 L 16.6875 2.8125 L 18.4375 2.375 L 17.40625 3.25 L 17.5625 3.34375 L 17.6875 3.3125 L 19.4375 3.125 L 18.125 3.875 L 18.25 4 L 20.15625 3.9375 L 18.78125 4.53125 L 18.65625 4.5625 L 18.75 4.71875 L 20.65625 4.8125 L 18.9375 5.28125 L 18.96875 5.4375 L 20.8125 5.75 L 19 6.03125 L 19 6.1875 L 20.6875 6.625 L 18.8125 6.75 L 18.71875 6.90625 L 20.21875 7.53125 L 18.3125 7.46875 L 18.1875 7.59375 L 19.46875 8.34375 L 17.75 8.125 L 17.625 8.09375 L 17.46875 8.21875 L 18.5 9.09375 L 16.75 8.65625 L 16.53125 8.75 L 17.28125 9.6875 L 15.6875 9.15625 L 15.46875 9.21875 L 15.875 10.21875 L 14.5 9.53125 L 14.25 9.5625 L 14.34375 10.59375 L 13.1875 9.78125 L 12.90625 9.78125 L 12.6875 10.8125 L 11.84375 9.96875 L 11.8125 9.90625 L 11.53125 9.90625 L 11 10.875 L 10.4375 9.90625 L 10.0625 9.875 L 10.03125 9.9375 L 9.1875 10.78125 L 8.96875 9.78125 L 8.6875 9.75 L 7.53125 10.5625 L 7.625 9.5625 L 7.375 9.5 L 6 10.21875 L 6.40625 9.21875 L 6.1875 9.125 L 4.59375 9.6875 L 5.34375 8.75 L 5.15625 8.65625 L 3.375 9.0625 L 4.40625 8.21875 L 4.25 8.09375 L 4.125 8.125 L 2.375 8.3125 L 3.6875 7.5625 L 3.53125 7.4375 L 1.65625 7.5 L 3.15625 6.90625 L 3.0625 6.75 L 1.15625 6.625 L 2.875 6.15625 L 2.875 6.03125 L 1.0625 5.71875 L 2.875 5.40625 L 2.9375 5.28125 L 1.21875 4.8125 L 3.125 4.6875 L 3.21875 4.5625 L 3.09375 4.53125 L 1.71875 3.9375 L 3.625 4 L 3.75 3.875 L 2.4375 3.125 L 4.1875 3.3125 L 4.3125 3.34375 L 3.4375 2.375 L 5.1875 2.78125 L 5.40625 2.6875 L 4.6875 1.75 L 6.25 2.3125 L 6.46875 2.21875 L 6.0625 1.25 L 7.4375 1.9375 L 7.6875 1.875 L 7.59375 0.875 L 8.75 1.6875 L 9.03125 1.65625 L 9.25 0.65625 L 10.125 1.5625 L 10.375 1.5625 L 10.9375 0.59375 z M 5.71875 3.28125 C 5.4518042 3.2691164 5.1992944 3.6870277 4.96875 4.5 C 4.7503395 3.6870278 4.4577672 3.3161611 4.09375 3.4375 C 3.7297326 3.6680442 3.8620548 4.1260184 4.46875 4.78125 C 3.9833937 5.0603299 3.7500001 5.4190631 3.75 5.84375 C 3.75 6.2684368 4.0965991 6.482714 4.8125 6.53125 C 5.5526685 6.3371074 6.2501033 6.4824783 6.875 6.9375 C 7.4998963 7.3925216 8.7181451 7.4595972 10.5625 7.15625 C 11.812293 6.8043663 13.003528 6.7102766 14.15625 6.84375 C 15.308973 6.9772225 16.219769 6.9981692 16.875 6.9375 C 17.906382 6.9132327 18.4375 6.8261255 18.4375 6.65625 C 18.158419 6.4014379 17.759625 6.2411874 17.25 6.15625 C 16.170082 6.1441163 15.173093 5.9265175 14.28125 5.5625 C 13.389407 5.1984825 12.104998 5.1984827 10.40625 5.5625 C 9.1079217 5.8901152 8.0298922 5.8552048 7.15625 5.40625 C 6.6344922 5.0907684 6.0824279 4.8312761 5.5 4.625 C 5.9853564 4.2488483 6.1865847 3.9362451 6.15625 3.6875 C 6.1259153 3.4387547 5.9856962 3.2933837 5.71875 3.28125 z M 5.1875 5.125 C 5.6243205 5.1128663 6.3156882 5.4036076 7.25 5.9375 C 7.9294989 6.2893836 8.7201082 6.3573749 9.59375 6.1875 C 10.309651 6.0418926 11.055045 5.9217052 11.84375 5.8125 C 12.632454 5.7032953 13.356902 5.7564066 14 5.96875 C 14.643097 6.1810936 15.169063 6.3143303 15.59375 6.375 C 16.018437 6.4356695 16.671572 6.482714 17.59375 6.53125 C 16.999188 6.5919195 16.445294 6.6250001 15.875 6.625 C 15.304706 6.625 14.62032 6.5649061 13.84375 6.4375 C 13.067179 6.3100942 12.348798 6.310094 11.6875 6.4375 C 11.026202 6.5649063 10.280807 6.6720449 9.4375 6.78125 C 8.5941931 6.8904552 7.7905356 6.7963659 7.0625 6.46875 C 6.2980637 5.9469916 5.5056238 5.8007053 4.65625 6.03125 C 4.4257053 6.0191158 4.3194823 5.8989277 4.34375 5.65625 C 4.4772232 5.3286341 4.7506789 5.1371344 5.1875 5.125 z M 4.90625 5.34375 C 4.6999732 5.4104869 4.6007322 5.5227766 4.625 5.65625 C 4.6492679 5.7897225 4.7755227 5.8367679 5 5.8125 C 5.2244774 5.7882327 5.4238751 5.6889911 5.59375 5.53125 C 5.3389378 5.3371073 5.1125263 5.2770138 4.90625 5.34375 z "
     id="path2443" />
</svg>
