<?xml version="1.0" encoding="UTF-8" standalone="no"?>
<svg
   xmlns:dc="http://purl.org/dc/elements/1.1/"
   xmlns:cc="http://creativecommons.org/ns#"
   xmlns:rdf="http://www.w3.org/1999/02/22-rdf-syntax-ns#"
   xmlns:svg="http://www.w3.org/2000/svg"
   xmlns="http://www.w3.org/2000/svg"
   xmlns:sodipodi="http://sodipodi.sourceforge.net/DTD/sodipodi-0.dtd"
   xmlns:inkscape="http://www.inkscape.org/namespaces/inkscape"
   width="12.281655"
   height="17.977583"
   id="svg2441"
   sodipodi:version="0.32"
   inkscape:version="0.46"
   sodipodi:docname="I128.svg"
   inkscape:output_extension="org.inkscape.output.svg.inkscape">
  <metadata
     id="metadata2448">
    <rdf:RDF>
      <cc:Work
         rdf:about="">
        <dc:format>image/svg+xml</dc:format>
        <dc:type
           rdf:resource="http://purl.org/dc/dcmitype/StillImage" />
      </cc:Work>
    </rdf:RDF>
  </metadata>
  <defs
     id="defs2446">
    <inkscape:perspective
       sodipodi:type="inkscape:persp3d"
       inkscape:vp_x="0 : 8.9887915 : 1"
       inkscape:vp_y="0 : 1000 : 0"
       inkscape:vp_z="12.281655 : 8.9887915 : 1"
       inkscape:persp3d-origin="6.1408277 : 5.9925276 : 1"
       id="perspective2450" />
  </defs>
  <sodipodi:namedview
     inkscape:window-height="708"
     inkscape:window-width="1024"
     inkscape:pageshadow="2"
     inkscape:pageopacity="0.0"
     guidetolerance="10.0"
     gridtolerance="10.0"
     objecttolerance="10.0"
     borderopacity="1.0"
     bordercolor="#666666"
     pagecolor="#ffffff"
     id="base"
     showgrid="false"
     inkscape:zoom="40.095428"
     inkscape:cx="6.1397705"
     inkscape:cy="9.1068779"
     inkscape:window-x="0"
     inkscape:window-y="26"
     inkscape:current-layer="svg2441" />
  <path
     style="fill:#000000; stroke:none"
     d="M 4.5,0 C 3.9996133,0 3.6332641,0.043259332 3.375,0.15625 C 3.0360293,0.32573533 2.7944859,0.67904335 2.625,1.1875 L 2.625,1.21875 C 2.8025567,1.525438 3.0289913,1.65625 3.34375,1.65625 L 3.71875,1.625 C 3.2829293,2.0769613 3.0403534,2.7282106 3,3.53125 C 2.959646,4.3342887 3.0180141,5.119352 3.1875,5.90625 C 3.3569853,6.6931473 3.7778895,7.2547785 4.16125,7.59375 C 4.7848354,8.1659469 5.5612659,8.5072007 6.3125,8.875 C 5.8811935,9.0957601 5.3861553,9.3480732 4.9607076,9.5801356 C 1.8868145,7.8065422 -0.074524621,7.8621278 0,9.96875 C 0.062920644,11.732468 1.6190885,11.846843 4.84375,10.375 C 6.1841288,11.152428 6.2047092,11.846972 6.775678,12.318072 C 6.2122195,12.587747 5.5787656,12.981 5.03125,13.28125 C 1.6896892,11.721356 -0.014494838,11.726607 0,13.625 C 0.014564894,15.514933 1.6811441,15.735842 5.03125,14.03125 C 6.6041206,14.845098 7.6806267,16.344651 8.71875,17.74141 C 9.2598235,16.652676 7.1477884,14.625548 5.78125,13.65625 C 6.2598423,13.394764 6.8105332,13.118505 7.2892924,12.857364 C 10.487162,14.969346 12.270612,14.624754 12.28125,12.59875 C 12.2914,10.648849 10.631237,10.56757 7.375,12.0625 C 6.6284027,11.413304 6.6698641,10.812399 5.5,10.09375 C 6.03618,9.821906 6.6875334,9.4989177 7.2171992,9.2147288 C 10.659844,10.721499 12.308932,10.603012 12.28125,8.8125 C 12.249978,6.7544946 10.461859,6.4728484 7.21875,8.4375 C 6.8669523,8.2568671 6.4878405,8.0637478 6.09375,7.84375 C 5.0386027,6.9547885 5.3115619,6.1919215 5.8392768,4.9776342 C 6.3235215,3.9486142 6.4649999,3.2565839 6.465,2.5625 C 6.465,1.9410527 6.3230235,1.3683486 5.75,0.84375 C 5.4191,0.278798 4.9923152,0 4.5,0 z M 4.25,0.375 C 4.5405467,0.375 4.7982313,0.43336865 5,0.5625 C 5.6779427,1.3695747 6.0000001,2.0379012 6,2.5625 C 6,3.2485133 5.8651534,3.9068009 5.5625,4.5 C 5.2598473,5.0932 5.0283438,5.6246138 4.875,6.125 C 5.0095915,6.1344156 4.3329961,7.4695623 3.625,5.6875 C 3.483762,4.7149753 3.4586133,3.9228747 3.53125,3.28125 C 3.6038867,2.639626 3.8615714,2.099108 4.28125,1.6875 C 4.7493533,1.6148633 4.9757881,1.586712 5,1.5625 L 4.96875,1.125 C 4.2504533,1.1734247 3.7804101,1.2177173 3.5625,1.25 C 3.34459,1.2822827 3.1905987,1.2299194 3.09375,1.125 L 3.09375,1.09375 C 3.2632353,0.60950533 3.6446939,0.37499999 4.25,0.375 z M 3.84375,0.53125 C 3.62584,0.571604 3.5221466,0.64404732 3.5625,0.78125 C 3.5947833,0.88616933 3.716588,0.92642665 3.90625,0.90625 C 4.0959127,0.88607333 4.168356,0.81259664 4.15625,0.6875 C 4.144144,0.56240333 4.0535892,0.52317933 3.84375,0.53125 z M 10.65625,7.8125 C 11.287786,7.8135088 11.625,8.1597546 11.625,8.84375 C 11.625,9.9581795 10.374545,9.9351471 7.9375,8.78125 C 9.1355605,8.1458347 10.046638,7.8115262 10.65625,7.8125 z M 4.3125,9.9375 C 1.9066831,11.098171 0.68750001,11.118383 0.6875,10 C 0.50306457,8.0740092 2.9320776,9.2799208 4.3125,9.9375 z M 10.84375,11.705 C 11.349937,11.738481 11.59375,12.184503 11.59375,12.6975 C 11.59375,14.034139 10.204072,14.014395 7.96875,12.53125 C 9.2744121,11.900789 10.245394,11.665423 10.84375,11.705 z M 4.3125,13.65625 C 1.8982714,14.93598 0.69145183,14.933214 0.6875,13.59375 C 0.63003447,11.874586 2.9661711,13.09005 4.3125,13.65625 z"
     id="path2443"
     sodipodi:nodetypes="csccccsscccscccsccccscccscccsccccssccscccsccccsssccsccccccsccccc" />
</svg>
