<?xml version="1.0" encoding="UTF-8" standalone="no"?>
<svg
   xmlns:dc="http://purl.org/dc/elements/1.1/"
   xmlns:cc="http://creativecommons.org/ns#"
   xmlns:rdf="http://www.w3.org/1999/02/22-rdf-syntax-ns#"
   xmlns:svg="http://www.w3.org/2000/svg"
   xmlns="http://www.w3.org/2000/svg"
   xmlns:sodipodi="http://sodipodi.sourceforge.net/DTD/sodipodi-0.dtd"
   xmlns:inkscape="http://www.inkscape.org/namespaces/inkscape"
   width="18.318424224853516"
   height="18.0"
   id="svg2"
   version="1.1"
   inkscape:version="0.91 r13725"
   sodipodi:docname="I136.svg">
  <title
     id="title4138">I136</title>
  <metadata
     id="metadata10">
    <rdf:RDF>
      <cc:Work
         rdf:about="">
        <dc:format>image/svg+xml</dc:format>
        <dc:type
           rdf:resource="http://purl.org/dc/dcmitype/StillImage" />
        <dc:title>I136</dc:title>
        <dc:description>Mutilated I96 sign. See I96 for more information</dc:description>
        <dc:creator>
          <cc:Agent>
            <dc:title>S. P. Thomas (modified by S. Rosmorduc)</dc:title>
          </cc:Agent>
        </dc:creator>
      </cc:Work>
    </rdf:RDF>
  </metadata>
  <defs
     id="defs8" />
  <sodipodi:namedview
     pagecolor="#ffffff"
     bordercolor="#666666"
     borderopacity="1"
     objecttolerance="10"
     gridtolerance="10"
     guidetolerance="10"
     inkscape:pageopacity="0"
     inkscape:pageshadow="2"
     inkscape:window-width="1268"
     inkscape:window-height="843"
     id="namedview6"
     showgrid="false"
     inkscape:zoom="6.5555556"
     inkscape:cx="3.2175237"
     inkscape:cy="9.1340359"
     inkscape:window-x="2098"
     inkscape:window-y="306"
     inkscape:window-maximized="0"
     inkscape:current-layer="svg2" />
  <path
     d="m 10.892879,11.856461 c 1.419894,0 2.861768,0.158885 4.071913,0.464571 1.899553,0.0096 1.713104,0.189844 1.272695,0.189844 l -0.0072,-1.6e-5 c -0.06592,0 -1.052408,0.03164 -1.45535,0.03164 -0.839468,-0.04564 -1.669081,-0.09288 -2.494542,-0.09288 -0.932228,0 -1.85916,0.06025 -2.7890098,0.251071 l 0,-0.790951 C 9.9498635,11.87407 10.42014,11.85646 10.892853,11.85646 Z M 1.6451779,10.865682 c 0.1419682,0.02991 0.2159668,0.03948 0.3239503,0.05922 2.3844257,0.904099 3.0774598,1.179955 4.0674529,1.179955 0.37628,0 0.7954613,-0.03985 1.3667197,-0.100205 l 0,0.885866 c -0.2961968,0.03434 -0.5750157,0.05424 -0.849889,0.05424 -0.6233581,0 -1.2264297,-0.102338 -1.9658964,-0.370623 -0.7323523,-0.214532 -0.7949631,-0.857324 -2.0564724,-0.980779 -0.09275,0 -1.232049,0.253104 -1.2971595,0.253104 -0.74071888,0 -0.23576771,-0.980779 0.4112944,-0.980778 z M 0.69603682,10.612578 c -0.86358268,0.566511 -0.48660922,1.424063 -0.34801841,1.61354 0.18360185,0.09251 0.48265368,0.284742 0.85422699,0.284742 0.317902,0 0.6638106,-0.155283 1.1073313,-0.253104 0.086278,-0.01925 0.1679883,-0.02805 0.2459325,-0.02805 0.523696,0 0.8773656,0.397322 1.3043314,0.69245 0,0 0.365011,0.197068 1.0124172,0.379656 -0.9691232,1.275192 -1.776444,2.37275 -2.3728528,3.290356 C 2.0754137,16.840877 1.7731131,17.046728 1.5819019,17.19329 1.3906897,17.339851 1.1100982,17.438609 0.72767486,17.50967 0.2454889,17.5452 0,17.629536 0,17.762774 l 0,0.03164 0,0.158191 C -0.00513296,17.985508 0.13869002,18 0.42950687,18 c 0.18020314,0 0.4168466,-0.0056 0.70946243,-0.01576 0.2452875,-0.06953 0.4524827,-0.0992 0.6239001,-0.0992 0.1132662,0 0.2109108,0.01295 0.293603,0.03593 0.2078392,0.05774 0.3731921,0.06328 0.5062086,0.06328 0.1330166,0 0.2374017,-0.01941 0.3163804,-0.09492 0.078979,-0.0755 0.1482603,-0.305206 0.1898282,-0.696036 0,-0.10659 0.3540312,-0.541597 1.0440553,-1.265522 0.690024,-0.723924 1.0708449,-1.272112 1.1706073,-1.645178 0,-0.09771 0.1219365,-0.197016 0.3796565,-0.348018 0.091448,0 0.3085322,0.187536 0.6327607,0.569484 0.6318296,0.817191 1.0685364,1.393675 1.2971596,1.740092 0.2286222,0.346418 0.2611852,0.562251 0.094914,0.664399 -0.1662711,0.102149 -0.3399375,0.238086 -0.5062086,0.411295 -0.1533003,0.159697 -0.3256479,0.255173 -0.4949526,0.255173 -0.014324,0 -0.028627,-6.82e-4 -0.042894,-0.0021 -0.3657965,0.06218 -0.5378467,0.142622 -0.5378467,0.284742 l 0,0.126553 1.2971596,0 c 0.2237511,-0.127872 0.4248894,-0.185269 0.6001243,-0.185269 0.1047344,0 0.2002153,0.0205 0.2857407,0.05872 0.2286227,0.102149 0.3815054,0.126553 0.5062086,0.126553 0.1912118,-0.02665 0.2847423,-0.110985 0.2847423,-0.253105 0,-0.151003 -0.056811,-0.310794 -0.1898282,-0.506208 C 8.6824495,16.869626 8.4152526,16.250975 8.0993376,15.358283 7.818409,14.56445 7.3551138,13.990549 6.738902,13.586553 l 0,0 c 0.05768,0.0068 0.114795,0.0098 0.1714496,0.0098 0.3742896,0 0.7285631,-0.132852 1.0940719,-0.19965 l 0,-2.056472 c -0.4279284,0.09893 -0.8691998,0.142704 -1.3114931,0.142704 -1.7178949,0 -3.4443991,-0.794873 -4.4782678,-1.245897 C 1.6081,9.9724255 1.2071832,10.277243 0.69603682,10.612556 Z m 9.87106718,0.664399 c -0.548392,0.01127 -1.0967845,0.02037 -1.6451774,0.03164 l 0.031638,2.08811 c 0.460783,-0.02306 1.1837404,-0.219285 1.7400924,-0.31638 0.139506,0 2.502401,-0.0521 3.511822,-0.06328 l 0,0 c -0.930918,1.129871 -1.64104,2.358468 -2.467767,3.575098 -0.42399,0.24871 -0.726292,0.454561 -0.917503,0.601123 -0.191211,0.146561 -0.503443,0.245319 -0.8858653,0.31638 -0.4821855,0.03553 -0.6960368,0.119866 -0.6960368,0.253104 l 0,0.03164 0,0.158191 C 9.2331742,17.985508 9.3649373,18 9.6465243,18 c 0.1744852,0 0.4064977,-0.0056 0.6991137,-0.01576 0.245288,-0.06953 0.463954,-0.0992 0.6445,-0.0992 0.119296,0 0.22195,0.01295 0.304641,0.03593 0.207839,0.05774 0.373193,0.06328 0.506209,0.06328 0.133016,0 0.237402,-0.01941 0.31638,-0.09492 0.07898,-0.0755 0.116623,-0.305206 0.158191,-0.696036 0,-0.10659 0.35403,-0.541597 1.044055,-1.265522 0.690025,-0.723924 1.102482,-1.272112 1.202245,-1.645178 0,-0.09771 0.121937,-0.197016 0.379657,-0.348018 0.09145,0 0.308531,0.187536 0.63276,0.569484 0.631829,0.817191 1.036899,1.393675 1.265522,1.740092 0.228623,0.346418 0.261186,0.562251 0.09491,0.664399 -0.166272,0.102149 -0.308299,0.238086 -0.474571,0.411295 -0.1533,0.159697 -0.325649,0.255173 -0.494952,0.255173 -0.01432,0 -0.02863,-6.82e-4 -0.04289,-0.0021 -0.365796,0.06218 -0.537847,0.142622 -0.537847,0.284742 l 0,0.126553 1.265522,0 c 0.223752,-0.127872 0.424891,-0.185269 0.600126,-0.185269 0.104733,0 0.200213,0.0205 0.285739,0.05872 0.228622,0.102149 0.413144,0.126553 0.537846,0.126553 0.191213,-0.02665 0.284743,-0.110985 0.284743,-0.253105 0,-0.151003 -0.05681,-0.310794 -0.189829,-0.506208 -0.207839,-0.355302 -0.475036,-0.973953 -0.79095,-1.866645 -0.315915,-0.892692 -0.841996,-1.530207 -1.581902,-1.92992 l -0.379657,-0.442932 c 0.73086,-0.04395 1.594444,-0.114041 1.866644,-0.126553 0.889845,-0.0409 0.727675,-0.221466 0.727675,-0.221466 -2e-6,0 -0.586688,-0.727675 -2.467767,-0.727675 -1.938435,-0.410459 -3.377952,-0.621114 -4.935534,-0.63276 z"
     style="fill:#000000;stroke:none"
     id="path4"
     inkscape:connector-curvature="0"
     sodipodi:nodetypes="cccccsccscssccsccscscscscccscsccscsssscscccsssscsccsccscsccsccscscccccccscsccscsssscscccsssscsccsccscsccscccccc" />
</svg>
