<?xml version="1.0" encoding="UTF-8" standalone="no"?>
<svg
   xmlns:dc="http://purl.org/dc/elements/1.1/"
   xmlns:cc="http://creativecommons.org/ns#"
   xmlns:rdf="http://www.w3.org/1999/02/22-rdf-syntax-ns#"
   xmlns:svg="http://www.w3.org/2000/svg"
   xmlns="http://www.w3.org/2000/svg"
   xmlns:sodipodi="http://sodipodi.sourceforge.net/DTD/sodipodi-0.dtd"
   xmlns:inkscape="http://www.inkscape.org/namespaces/inkscape"
   width="17.866035"
   height="17.977583"
   id="svg2451"
   sodipodi:version="0.32"
   inkscape:version="0.46"
   sodipodi:docname="I137.svg"
   inkscape:output_extension="org.inkscape.output.svg.inkscape">
  <metadata
     id="metadata2458">
    <rdf:RDF>
      <cc:Work
         rdf:about="">
        <dc:format>image/svg+xml</dc:format>
        <dc:type
           rdf:resource="http://purl.org/dc/dcmitype/StillImage" />
      </cc:Work>
    </rdf:RDF>
  </metadata>
  <defs
     id="defs2456">
    <inkscape:perspective
       sodipodi:type="inkscape:persp3d"
       inkscape:vp_x="0 : 8.9887915 : 1"
       inkscape:vp_y="0 : 1000 : 0"
       inkscape:vp_z="17.866035 : 8.9887915 : 1"
       inkscape:persp3d-origin="8.9330177 : 5.9925276 : 1"
       id="perspective2460" />
  </defs>
  <sodipodi:namedview
     inkscape:window-height="667"
     inkscape:window-width="640"
     inkscape:pageshadow="2"
     inkscape:pageopacity="0.0"
     guidetolerance="10.0"
     gridtolerance="10.0"
     objecttolerance="10.0"
     borderopacity="1.0"
     bordercolor="#666666"
     pagecolor="#ffffff"
     id="base"
     showgrid="false"
     inkscape:zoom="25.698672"
     inkscape:cx="8.9330177"
     inkscape:cy="8.9887915"
     inkscape:window-x="22"
     inkscape:window-y="29"
     inkscape:current-layer="svg2451" />
  <path
     style="fill:#000000; stroke:none"
     d="M 8.9375 0 C 7.6980947 0 6.5157835 0.22272264 5.4375 0.6875 C 4.3592167 1.1522773 3.4306132 1.8007953 2.625 2.625 C 1.819386 3.4492047 1.1897247 4.4093226 0.71875 5.5 C 0.247776 6.5906773 -5.2084365e-18 7.7605941 0 9 C 0 10.2518 0.24777599 11.409323 0.71875 12.5 C 1.1897247 13.590677 1.8193859 14.556992 2.625 15.375 C 3.4306133 16.193009 4.3592168 16.82267 5.4375 17.28125 C 6.5157833 17.73983 7.6980944 17.96875 8.9375 17.96875 C 10.164512 17.96875 11.315573 17.73983 12.40625 17.28125 C 13.496927 16.82267 14.444386 16.193008 15.25 15.375 C 16.055614 14.556993 16.685276 13.590678 17.15625 12.5 C 17.627223 11.409323 17.875 10.2518 17.875 9 C 17.875 8.169598 17.773198 7.3621821 17.5625 6.59375 C 17.351801 5.8253187 17.046664 5.1005819 16.65625 4.4375 C 16.265837 3.7744173 15.795338 3.1765353 15.25 2.625 C 14.704661 2.0734647 14.094385 1.6091634 13.4375 1.21875 C 12.780615 0.82833733 12.074735 0.52319866 11.3125 0.3125 C 10.550266 0.10180067 9.7679024 7.2872575e-18 8.9375 0 z M 8.9375 0.5625 C 9.705932 0.5625 10.437394 0.67669531 11.15625 0.875 C 11.875105 1.0733053 12.542744 1.3531253 13.15625 1.71875 C 13.769756 2.0843747 14.329397 2.5168966 14.84375 3.03125 C 15.358103 3.5456033 15.790625 4.1241001 16.15625 4.75 C 16.521875 5.3759 16.807892 6.0623945 17 6.78125 C 17.192108 7.5001053 17.28125 8.2504241 17.28125 9.03125 C 17.28125 10.196291 17.06499 11.28999 16.625 12.3125 C 16.185012 13.33501 15.593591 14.206515 14.84375 14.96875 C 14.093909 15.730985 13.21001 16.347459 12.1875 16.78125 C 11.16499 17.215042 10.090148 17.40625 8.9375 17.40625 C 7.7724587 17.40625 6.6601688 17.215042 5.65625 16.78125 C 4.6523313 16.347459 3.7934848 15.730985 3.03125 14.96875 C 2.2690153 14.206515 1.652542 13.33501 1.21875 12.3125 C 0.784958 11.28999 0.56250001 10.196291 0.5625 9.03125 C 0.5625 7.8538147 0.78495796 6.7412598 1.21875 5.71875 C 1.652542 4.69624 2.2690154 3.7934846 3.03125 3.03125 C 3.7934847 2.2690153 4.6523314 1.6899893 5.65625 1.25 C 6.6601687 0.81001133 7.7724584 0.56250001 8.9375 0.5625 z M 8.9375 0.8125 C 7.8220347 0.8125 6.7665781 1.0099053 5.78125 1.4375 C 4.7959227 1.8650953 3.9311441 2.4689093 3.1875 3.21875 C 2.4438567 3.9685907 1.858898 4.8209751 1.4375 5.8125 C 1.016102 6.8040247 0.81249999 7.8909968 0.8125 9.03125 C 0.8125 10.171503 1.016102 11.227225 1.4375 12.21875 C 1.858898 13.210275 2.4438568 14.068856 3.1875 14.8125 C 3.931144 15.556143 4.7959228 16.134905 5.78125 16.5625 C 6.766578 16.990095 7.8220345 17.21875 8.9375 17.21875 C 10.052965 17.21875 11.102226 16.990096 12.09375 16.5625 C 13.085275 16.134905 13.950054 15.556144 14.6875 14.8125 C 15.424946 14.068856 16.016102 13.210275 16.4375 12.21875 C 16.858898 11.227225 17.0625 10.171503 17.0625 9.03125 C 17.0625 8.262818 16.973358 7.5127641 16.78125 6.8125 C 16.589141 6.1122353 16.296927 5.4761115 15.9375 4.875 C 15.578072 4.273888 15.177066 3.7207093 14.6875 3.21875 C 14.197934 2.7167907 13.632361 2.2907307 13.03125 1.9375 C 12.430138 1.5842693 11.787818 1.2920553 11.09375 1.09375 C 10.399683 0.89544533 9.6811432 0.81249998 8.9375 0.8125 z M 8.9375 1.34375 C 9.6439613 1.34375 10.324259 1.445286 10.96875 1.625 C 11.613241 1.804714 12.21732 2.0716099 12.78125 2.40625 C 13.345179 2.7408893 13.85392 3.1289726 14.3125 3.59375 C 14.77108 4.0585267 15.165361 4.5861226 15.5 5.15625 C 15.834639 5.7263767 16.107733 6.3180618 16.28125 6.96875 C 16.454767 7.619438 16.53125 8.3247888 16.53125 9.03125 C 16.53125 10.097139 16.327912 11.070446 15.9375 12 C 15.547087 12.929554 15.025423 13.743432 14.34375 14.4375 C 13.662076 15.131567 12.835804 15.69714 11.90625 16.09375 C 10.976695 16.490361 9.9909945 16.6875 8.9375 16.6875 C 7.8963987 16.6875 6.9171601 16.49036 6 16.09375 C 5.0828393 15.697141 4.2878174 15.131567 3.59375 14.4375 C 2.8996827 13.743433 2.33411 12.929554 1.9375 12 C 1.54089 11.070445 1.34375 10.097139 1.34375 9.03125 C 1.34375 7.9653607 1.54089 6.9546075 1.9375 6.03125 C 2.33411 5.1078927 2.8996827 4.2940139 3.59375 3.59375 C 4.2878173 2.8934853 5.0828394 2.33411 6 1.9375 C 6.91716 1.54089 7.8963985 1.34375 8.9375 1.34375 z M 11.40625 3.96875 C 11.128506 3.9797778 10.873438 4.0072643 10.625 4.03125 C 9.6312462 4.1271928 8.8035752 4.2463453 8.09375 4.40625 C 7.3839248 4.5661547 6.6473265 5.0264996 5.9375 5.78125 C 5.9633123 6.1010593 6.0693174 6.2684581 6.25 6.28125 C 5.4369274 6.4603436 4.8797093 6.8305931 4.53125 7.40625 C 4.5699678 7.5981356 4.6630666 7.7783263 4.84375 7.90625 C 4.1081124 8.0597577 3.6147744 8.4413386 3.34375 9.09375 C 3.3824679 9.2856363 3.5652583 9.453035 3.875 9.59375 C 2.9715861 9.7984289 2.3117712 10.313416 1.9375 11.09375 C 2.0407474 11.362389 2.2527583 11.842288 2.5625 11.90625 L 14.1875 11.90625 L 14.1875 4.09375 C 13.497033 4.0233918 12.874923 3.9799434 12.28125 3.96875 C 11.984414 3.9631533 11.683994 3.9577222 11.40625 3.96875 z M 11.4375 4.78125 C 12.1199 4.7508682 12.359128 4.7669957 13.0625 4.84375 L 13.03125 10.875 L 3.75 10.875 C 3.6338464 10.644737 4.1455297 10.328398 5.28125 9.90625 C 5.0231317 9.7143637 4.8131501 9.4391445 4.59375 9.09375 C 4.7099036 8.6971862 5.3860329 8.3808483 6.625 8.125 C 6.3281639 7.9586997 6.0631506 7.7317247 5.84375 7.4375 C 5.9986208 7.1816532 6.7039706 6.895102 7.96875 6.5625 C 7.7880668 6.3706144 7.6052765 6.0826019 7.4375 5.75 C 7.4375 5.5325291 8.1146443 5.3062858 9.4375 5.03125 C 10.098929 4.8937321 10.7551 4.8116318 11.4375 4.78125 z "
     id="path2453" />
</svg>
