<?xml version="1.0" encoding="UTF-8" standalone="no"?>
<svg
   xmlns:dc="http://purl.org/dc/elements/1.1/"
   xmlns:cc="http://creativecommons.org/ns#"
   xmlns:rdf="http://www.w3.org/1999/02/22-rdf-syntax-ns#"
   xmlns:svg="http://www.w3.org/2000/svg"
   xmlns="http://www.w3.org/2000/svg"
   xmlns:sodipodi="http://sodipodi.sourceforge.net/DTD/sodipodi-0.dtd"
   xmlns:inkscape="http://www.inkscape.org/namespaces/inkscape"
   width="1753"
   height="939"
   id="svg2"
   sodipodi:version="0.32"
   inkscape:version="0.46"
   sodipodi:docname="I14C.svg"
   inkscape:output_extension="org.inkscape.output.svg.inkscape"
   version="1.0">
  <metadata
     id="metadata9">
    <rdf:RDF>
      <cc:Work
         rdf:about="">
        <dc:format>image/svg+xml</dc:format>
        <dc:type
           rdf:resource="http://purl.org/dc/dcmitype/StillImage" />
      </cc:Work>
    </rdf:RDF>
  </metadata>
  <defs
     id="defs7">
    <inkscape:perspective
       sodipodi:type="inkscape:persp3d"
       inkscape:vp_x="0 : 4.6953125 : 1"
       inkscape:vp_y="0 : 1000 : 0"
       inkscape:vp_z="17.53125 : 4.6953125 : 1"
       inkscape:persp3d-origin="8.765625 : 3.1302083 : 1"
       id="perspective11" />
  </defs>
  <sodipodi:namedview
     inkscape:window-height="701"
     inkscape:window-width="796"
     inkscape:pageshadow="2"
     inkscape:pageopacity="0.0"
     guidetolerance="10.0"
     gridtolerance="10.0"
     objecttolerance="10.0"
     borderopacity="1.0"
     bordercolor="#666666"
     pagecolor="#ffffff"
     id="base"
     showgrid="false"
     inkscape:zoom="0.19884556"
     inkscape:cx="1325.5505"
     inkscape:cy="202.74375"
     inkscape:window-x="1688"
     inkscape:window-y="81"
     inkscape:current-layer="svg2" />
  <path
     style="fill:#000000;stroke:none"
     d="M 117.5,1.96875 C 41.262251,10.32357 2.0887054,42.18056 0,97.53125 C 0,127.81748 12.270181,151.0625 36.8125,167.25 C 61.354755,183.43744 123.22399,191.01311 222.4375,189.96875 C 243.32454,224.43239 243.32454,277.43055 222.4375,348.96875 C 201.55044,420.50687 191.12499,506.39842 191.125,606.65625 C 191.125,698.55929 219.3237,777.68357 275.71875,844 C 332.11381,910.31636 385.8892,943.46874 437.0625,943.46875 C 549.8526,943.46875 606.24997,872.43824 606.25,730.40625 L 578.0625,409.28125 C 578.0625,354.97491 596.32264,327.81251 632.875,327.8125 C 669.42735,327.8125 687.71876,354.9749 687.71875,409.28125 L 661.0625,736.6875 C 661.0625,873.49771 699.7179,941.90625 777,941.90625 C 855.32646,941.90625 894.49998,873.49773 894.5,736.6875 L 867.84375,409.28125 C 867.84375,354.97491 886.13516,327.81251 922.6875,327.8125 C 959.23984,327.8125 977.50001,354.9749 977.5,409.28125 L 950.875,736.6875 C 950.875,873.49771 989.5304,941.90625 1066.8125,941.90625 C 1145.1389,941.90625 1184.2812,873.49773 1184.2812,736.6875 L 1156.0938,409.28125 C 1156.0938,354.97491 1174.9033,327.81251 1212.5,327.8125 C 1249.0523,327.8125 1267.3125,354.9749 1267.3125,409.28125 L 1239.125,736.6875 C 1239.125,864.24646 1273.1885,932.31142 1341.2812,940.9375 C 1350.142,943.25085 1359.6617,944.40625 1369.8438,944.40625 C 1388.6422,943.36188 1425.712,920.89409 1481.0625,877.03125 C 1471.9245,851.44459 1457.5639,838.65625 1438.0312,838.65625 C 1435.2408,838.65623 1432.3462,838.91532 1429.3438,839.4375 C 1405.3236,843.61489 1386.516,858.96037 1369.8438,883.3125 C 1360.2401,897.34002 1340.4031,881.69258 1327.3438,867.25 C 1309.0494,847.01788 1300.2187,803.30259 1300.2188,736.6875 L 1328.4062,409.28125 C 1328.4063,314.24516 1289.782,266.71874 1212.5,266.71875 C 1134.1735,266.71875 1095,314.24515 1095,409.28125 L 1123.1875,736.6875 C 1123.1875,832.76795 1104.4092,880.81247 1066.8125,880.8125 C 1030.2602,880.8125 1011.9688,832.76797 1011.9688,736.6875 L 1038.5938,409.28125 C 1038.5938,314.24516 999.96959,266.71874 922.6875,266.71875 C 845.40541,266.71875 806.75,314.24515 806.75,409.28125 L 833.40625,736.6875 C 833.40625,832.76795 814.59669,880.29439 777,879.25 C 740.44766,879.25 722.15627,831.72362 722.15625,736.6875 L 748.8125,409.28125 C 748.8125,314.24516 710.15707,266.71874 632.875,266.71875 C 546.19373,266.71875 502.84374,314.24515 502.84375,409.28125 L 529.5,730.40625 C 529.5,796.20047 498.67929,829.125 437.0625,829.125 C 407.82062,829.125 376.99994,810.05636 344.625,771.9375 C 312.25006,733.81858 296.06248,678.71661 296.0625,606.65625 C 296.0625,477.15651 302.08373,369.86479 314.09375,284.75 C 326.10384,199.63529 318.52818,131.22668 291.375,79.53125 C 264.22183,27.835759 206.26997,1.96875 117.5,1.96875 z M 144.125,44.28125 C 190.0765,44.28125 227.40525,66.199695 256.125,110.0625 C 284.84467,153.92531 294.23382,214.75819 284.3125,292.5625 C 274.39111,370.36675 263.96567,414.23485 253,424.15625 C 242.03427,434.07757 244.10684,400.40711 259.25,323.125 C 274.39307,245.84292 265.78119,187.34164 233.40625,147.65625 L 145.6875,147.65625 C 76.760222,147.65625 42.28125,130.95053 42.28125,97.53125 C 42.28125,62.023258 76.242064,44.281252 144.125,44.28125 z M 120.625,53.6875 C 94.516188,53.6875 78.846766,64.63109 73.625,86.5625 C 73.625,99.094733 84.081691,105.375 104.96875,105.375 C 135.25496,105.375 150.37499,96.503997 150.375,78.75 C 150.375,63.08471 140.46771,54.731855 120.625,53.6875 z"
     id="path2413"
     sodipodi:nodetypes="ccscssssccsccsccsccsccscccccssssccsccsccscccccsccsssssccssssccscccssc" />
</svg>
