<?xml version="1.0" encoding="UTF-8" standalone="no"?>
<svg
   xmlns:dc="http://purl.org/dc/elements/1.1/"
   xmlns:cc="http://creativecommons.org/ns#"
   xmlns:rdf="http://www.w3.org/1999/02/22-rdf-syntax-ns#"
   xmlns:svg="http://www.w3.org/2000/svg"
   xmlns="http://www.w3.org/2000/svg"
   xmlns:sodipodi="http://sodipodi.sourceforge.net/DTD/sodipodi-0.dtd"
   xmlns:inkscape="http://www.inkscape.org/namespaces/inkscape"
   width="18.825047"
   height="13.20023"
   id="svg2452"
   sodipodi:version="0.32"
   inkscape:version="0.46"
   sodipodi:docname="I15.svg"
   inkscape:output_extension="org.inkscape.output.svg.inkscape">
  <metadata
     id="metadata2459">
    <rdf:RDF>
      <cc:Work
         rdf:about="">
        <dc:format>image/svg+xml</dc:format>
        <dc:type
           rdf:resource="http://purl.org/dc/dcmitype/StillImage" />
      </cc:Work>
    </rdf:RDF>
  </metadata>
  <defs
     id="defs2457">
    <inkscape:perspective
       sodipodi:type="inkscape:persp3d"
       inkscape:vp_x="0 : 6.6001148 : 1"
       inkscape:vp_y="0 : 1000 : 0"
       inkscape:vp_z="18.825047 : 6.6001148 : 1"
       inkscape:persp3d-origin="9.4125233 : 4.4000765 : 1"
       id="perspective2461" />
  </defs>
  <sodipodi:namedview
     inkscape:window-height="708"
     inkscape:window-width="1024"
     inkscape:pageshadow="2"
     inkscape:pageopacity="0.0"
     guidetolerance="10.0"
     gridtolerance="10.0"
     objecttolerance="10.0"
     borderopacity="1.0"
     bordercolor="#666666"
     pagecolor="#ffffff"
     id="base"
     showgrid="false"
     inkscape:zoom="28.897671"
     inkscape:cx="9.4125233"
     inkscape:cy="6.6001148"
     inkscape:window-x="-4"
     inkscape:window-y="-4"
     inkscape:current-layer="svg2452" />
  <path
     style="fill:#000000; stroke:none"
     d="M 1.254653,0.609623 C 1.220262,0.609623 1.186744,0.612591 1.154098,0.618527 C 0.889223,0.744657 0.794625,0.877095 0.870304,1.01584 C 0.908143,1.116744 1.034274,1.186116 1.248697,1.223956 C 1.291581,1.231523 1.332195,1.235307 1.370538,1.235307 C 1.523914,1.235307 1.640964,1.174764 1.721688,1.053679 C 1.822593,0.902321 1.787907,0.78565 1.61763,0.703665 C 1.487418,0.640971 1.366426,0.609623 1.254653,0.609623 z M 1.222978,0.464805 C 1.43405,0.464805 1.688579,0.528658 1.986563,0.656366 C 2.299368,0.600868 2.596532,0.573119 2.878057,0.573119 C 3.300343,0.573119 3.687439,0.635554 4.039344,0.760424 C 4.625853,0.96854 5.02632,1.510903 5.240742,2.387514 C 5.455165,3.264124 5.281734,4.134427 4.720451,4.998425 C 4.159168,5.862422 3.689331,6.729572 3.310938,7.599875 C 2.66767,9.113447 2.346036,10.229707 2.346036,10.948653 C 2.5649605,11.276438 2.046386,11.978565 1.456813,10.977033 C 1.6583063,7.9338003 0.58484828,4.0706966 2.64875,1.583429 C 2.946878,1.468764 3.375305,1.411432 3.934033,1.411432 C 3.989907,1.411432 4.047083,1.412005 4.105563,1.413152 C 4.244307,1.400538 4.25692,1.32486 4.143402,1.186116 C 3.908963,1.124421 3.66916,1.093574 3.423992,1.093574 C 2.91731,1.093574 2.387714,1.225326 1.835206,1.488831 C 1.650551,1.525156 1.485148,1.543319 1.338997,1.543319 C 0.876187,1.543319 0.606438,1.361186 0.52975,0.99692 C 0.640115,0.642176 0.871191,0.464805 1.222978,0.464805 z M 1.388187,0 C 0.959491,0 0.597667,0.124191 0.302714,0.372572 C 0.100905,0.574381 0,0.782497 0,0.99692 C 0,1.274408 0.157664,1.50775 0.472991,1.696947 C 0.721934,1.846312 0.974808,1.920995 1.231612,1.920995 C 1.300093,1.920995 1.368853,1.915684 1.437893,1.905063 L 1.437893,1.905063 C -0.10162951,4.2248536 0.80308384,8.1748281 0.718947,11.003951 C 0.94343423,13.150006 2.736535,13.214534 4.80559,13.20009 C 6.773233,13.20009 7.757054,12.348706 7.757054,10.645939 L 7.238135,6.956608 C 7.238135,6.2755 7.996704,5.934947 8.513841,5.934947 C 9.030977,5.934947 9.639546,6.2755 9.639546,6.956608 L 9.129546,10.645939 C 9.129546,12.348706 9.945427,13.20009 11.257189,13.20009 C 11.266742,13.200183 11.276259,13.20023 11.285742,13.20023 C 12.565856,13.20023 13.205913,12.355105 13.205913,10.664858 L 12.885913,6.975528 C 12.885913,6.29442 13.464481,5.953866 13.981618,5.953866 C 14.498755,5.953866 15.087323,6.29442 15.087323,6.975528 L 14.757323,10.664858 C 14.757323,12.355105 15.39738,13.20023 16.677494,13.20023 C 16.686977,13.20023 16.696495,13.200183 16.706047,13.20009 C 17.071827,13.20009 17.77816,12.928909 18.825047,12.386546 C 18.647699,12.065104 18.37538,11.904382 18.008089,11.904382 C 17.957428,11.904382 17.904959,11.90744 17.850685,11.913555 C 17.40292,11.964006 17.021374,12.008153 16.706047,12.045992 C 16.176296,12.045992 15.911422,11.585613 15.911422,10.664858 L 16.241423,6.975528 C 16.241423,5.512408 15.268154,4.780849 13.981618,4.780849 C 12.695082,4.780849 11.731814,5.512408 11.731814,6.975528 L 12.051814,10.664858 C 12.051814,11.585613 11.786939,12.045992 11.257189,12.045992 L 11.257189,12.027073 C 10.727439,12.027073 10.302564,11.566694 10.302564,10.645939 L 10.812564,6.956608 C 10.812564,5.506102 9.812989,4.780849 8.513841,4.780849 C 7.038108,4.780849 5.970242,5.506102 5.970242,6.956608 L 6.470242,10.645939 C 6.4866254,12.059722 3.9516509,12.261979 3.5564062,11.380083 C 3.2284652,11.165661 3.1592555,10.33053 3.4871965,9.2899489 C 3.8151375,8.2493689 4.4425573,7.032286 5.3002483,5.707911 C 6.1579393,4.383536 6.256096,3.197905 5.940769,2.151018 C 5.625441,1.104131 5.105151,0.489243 4.379898,0.306353 C 3.866914,0.176992 3.364973,0.112311 2.874075,0.112311 C 2.670945,0.112311 2.469706,0.123386 2.270357,0.145536 C 1.950179,0.048512 1.656122,0 1.388187,0 z"
     id="path2454"
     sodipodi:nodetypes="csssssscccssssccccsscscscccssssccccccsccssccsccsscsscccsccccccscccssssscc" />
</svg>
