<?xml version="1.0" encoding="UTF-8" standalone="no"?>
<svg
   width="19.82"
   height="6.72"
   version="1.1"
   id="svg1"
   sodipodi:docname="US12I200.svg"
   inkscape:version="1.3.2 (091e20e, 2023-11-25)"
   xmlns:inkscape="http://www.inkscape.org/namespaces/inkscape"
   xmlns:sodipodi="http://sodipodi.sourceforge.net/DTD/sodipodi-0.dtd"
   xmlns="http://www.w3.org/2000/svg"
   xmlns:svg="http://www.w3.org/2000/svg">
  <defs
     id="defs1" />
  <sodipodi:namedview
     id="namedview1"
     pagecolor="#ffffff"
     bordercolor="#000000"
     borderopacity="0.25"
     inkscape:showpageshadow="2"
     inkscape:pageopacity="0.0"
     inkscape:pagecheckerboard="0"
     inkscape:deskcolor="#d1d1d1"
     inkscape:zoom="17.305752"
     inkscape:cx="9.8811077"
     inkscape:cy="3.3514868"
     inkscape:window-width="1472"
     inkscape:window-height="449"
     inkscape:window-x="1629"
     inkscape:window-y="25"
     inkscape:window-maximized="0"
     inkscape:current-layer="svg1" />
  <path
     style="fill:#000000;stroke:none"
     d="m 3.8532692,2.39 q 0.96,1.34 2.26,1.6 1.3,0.26 2.58,-0.02 1.29,-0.27 2.4099998,0.88 1.12,1.15 2.84,0.99 1.72,-0.15 2.57,0.48 0.85,0.63 3.31,0.28 -2.21,-1.18 -3.21,-1.9 -1,-0.73 -2.37,-0.45 -1.37,0.27 -2.46,-0.96 -1.09,-1.23 -3.3499998,-0.93 -2.25,0.3 -2.64,-0.44 -0.93,-1.61 -2.95,-1.87 -2.01999997,-0.26 -2.81999997,0.89 -0.11,0.32 0.3,0.65 1.36999997,1.12 3.52999997,0.8 z M 0.93326923,1.29 q -0.28,-0.22 -0.11,-0.33 0.72999997,-0.54 2.17999997,-0.32 1.45,0.21 2.18,1.45 0.72,1.23 3.01,0.84 2.2799998,-0.38 3.3399998,0.91 1.07,1.28 2.59,1.01 1.52,-0.28 2.46,0.41 0.94,0.68 1.87,1.09 -0.98,-0.03 -1.88,-0.63 -0.91,-0.6 -2.52,-0.42 -1.61,0.18 -2.73,-1.05 -1.13,-1.24 -3.4099998,-0.8 -2.28,0.44 -3.81,-1.61 -2.33,0.25 -3.16999997,-0.55 z"
     id="path1" />
</svg>
