<?xml version="1.0" encoding="UTF-8" standalone="no"?>
<svg
   xmlns:dc="http://purl.org/dc/elements/1.1/"
   xmlns:cc="http://creativecommons.org/ns#"
   xmlns:rdf="http://www.w3.org/1999/02/22-rdf-syntax-ns#"
   xmlns:svg="http://www.w3.org/2000/svg"
   xmlns="http://www.w3.org/2000/svg"
   xmlns:sodipodi="http://sodipodi.sourceforge.net/DTD/sodipodi-0.dtd"
   xmlns:inkscape="http://www.inkscape.org/namespaces/inkscape"
   width="19.3125"
   height="7.4375"
   id="svg2688"
   sodipodi:version="0.32"
   inkscape:version="0.46"
   sodipodi:docname="I24B.svg"
   inkscape:output_extension="org.inkscape.output.svg.inkscape"
   version="1.0">
  <metadata
     id="metadata2695">
    <rdf:RDF>
      <cc:Work
         rdf:about="">
        <dc:format>image/svg+xml</dc:format>
        <dc:type
           rdf:resource="http://purl.org/dc/dcmitype/StillImage" />
      </cc:Work>
    </rdf:RDF>
  </metadata>
  <defs
     id="defs2693">
    <inkscape:perspective
       sodipodi:type="inkscape:persp3d"
       inkscape:vp_x="0 : 3.24 : 1"
       inkscape:vp_y="0 : 1000 : 0"
       inkscape:vp_z="15.935364 : 3.24 : 1"
       inkscape:persp3d-origin="7.9676819 : 2.16 : 1"
       id="perspective2697" />
  </defs>
  <sodipodi:namedview
     inkscape:window-height="708"
     inkscape:window-width="1024"
     inkscape:pageshadow="2"
     inkscape:pageopacity="0.0"
     guidetolerance="10.0"
     gridtolerance="10.0"
     objecttolerance="10.0"
     borderopacity="1.0"
     bordercolor="#666666"
     pagecolor="#ffffff"
     id="base"
     showgrid="false"
     inkscape:zoom="34.137909"
     inkscape:cx="10.317963"
     inkscape:cy="3.24"
     inkscape:window-x="-4"
     inkscape:window-y="-4"
     inkscape:current-layer="svg2688" />
  <path
     style="fill:#000000;stroke:none"
     d="M 0,-5.5511151e-17 L 0,0.71875 C 6.419253,0.71875001 11.294047,0.7390454 12.625,0.75 C 13.955955,0.76095389 15.260545,1.2641075 16.53125,2.25 C 17.801955,3.2358918 18.4375,4.7141035 18.4375,6.71875 L 0.03125,6.71875 L 0.03125,7.4375 L 19.3125,7.4375 C 19.312501,4.961816 18.658272,3.1331373 17.34375,1.90625 C 16.029227,0.67936247 14.577427,0.0476816 13,0.03125 C 11.422573,0.01481851 6.419253,-5.5511151e-17 0,-5.5511151e-17 z M 4.28125,1.3125 C 3.9506954,1.2944222 3.6583322,1.7331613 3.375,2.625 C 3.0916676,1.7331613 2.7298594,1.3674298 2.28125,1.5 C 1.8444453,1.7410377 1.9173633,2.1666051 2.53125,2.78125 C 2.0118072,2.9138206 1.7500001,3.2532085 1.75,3.84375 C 1.7618059,4.4101878 2.1777811,4.7187501 2.96875,4.71875 C 3.7597203,4.71875 4.4333357,4.860979 5,5.15625 C 5.566665,5.4515211 6.134377,5.59375 6.71875,5.59375 C 7.3031255,5.59375 7.9402814,5.5075705 8.625,5.375 C 9.935415,5.0857542 10.963198,4.96875 11.71875,4.96875 L 14.8125,5.1875 C 16.453465,5.1392919 17.28125,4.9789853 17.28125,4.75 C 17.115976,4.5451178 16.727083,4.3562266 16.125,4.1875 C 15.286808,4.1875 14.505552,4.0919332 13.75,3.875 C 12.69931,3.4772881 11.84861,3.2812501 11.1875,3.28125 C 8.897231,3.6187028 7.565277,3.78125 7.1875,3.78125 C 6.8097255,3.78125 6.243749,3.6187029 5.5,3.28125 C 4.756252,2.9437979 4.2902773,2.7428531 4.125,2.71875 C 4.6326372,2.3210382 4.879166,2.0151408 4.84375,1.75 C 4.808334,1.4848584 4.6118045,1.3305778 4.28125,1.3125 z M 3.34375,3.1875 C 3.6979155,3.1875 4.3138925,3.4302012 5.1875,3.90625 C 6.061109,4.3822988 7.3024374,4.4443748 8.9375,4.125 C 10.572568,3.8056249 11.856255,3.8308487 12.8125,4.15625 C 13.76875,4.48165 14.731252,4.6250001 15.6875,4.625 L 15.71875,4.625 L 15.71875,4.71875 L 14.4375,4.75 L 11.0625,4.40625 C 8.748619,4.7678057 7.354859,4.96875 6.90625,4.96875 C 6.4812515,4.96875 5.96354,4.7941502 5.34375,4.46875 C 4.723961,4.1433496 4.1638884,3.9687499 3.65625,3.96875 L 2.65625,4.0625 C 2.5263893,4.0142925 2.4687501,3.9187253 2.46875,3.75 C 2.46875,3.4607545 2.7652799,3.2718622 3.34375,3.1875 z"
     id="path2690" />
</svg>
