<?xml version="1.0" encoding="UTF-8" standalone="no"?>
<svg
   xmlns:dc="http://purl.org/dc/elements/1.1/"
   xmlns:cc="http://creativecommons.org/ns#"
   xmlns:rdf="http://www.w3.org/1999/02/22-rdf-syntax-ns#"
   xmlns:svg="http://www.w3.org/2000/svg"
   xmlns="http://www.w3.org/2000/svg"
   xmlns:sodipodi="http://sodipodi.sourceforge.net/DTD/sodipodi-0.dtd"
   xmlns:inkscape="http://www.inkscape.org/namespaces/inkscape"
   width="19.3125"
   height="7.4448028"
   id="svg2688"
   sodipodi:version="0.32"
   inkscape:version="0.46"
   sodipodi:docname="I25.svg"
   inkscape:output_extension="org.inkscape.output.svg.inkscape"
   version="1.0">
  <metadata
     id="metadata2695">
    <rdf:RDF>
      <cc:Work
         rdf:about="">
        <dc:format>image/svg+xml</dc:format>
        <dc:type
           rdf:resource="http://purl.org/dc/dcmitype/StillImage" />
      </cc:Work>
    </rdf:RDF>
  </metadata>
  <defs
     id="defs2693">
    <inkscape:perspective
       sodipodi:type="inkscape:persp3d"
       inkscape:vp_x="0 : 3.24 : 1"
       inkscape:vp_y="0 : 1000 : 0"
       inkscape:vp_z="15.935364 : 3.24 : 1"
       inkscape:persp3d-origin="7.9676819 : 2.16 : 1"
       id="perspective2697" />
  </defs>
  <sodipodi:namedview
     inkscape:window-height="708"
     inkscape:window-width="1024"
     inkscape:pageshadow="2"
     inkscape:pageopacity="0.0"
     guidetolerance="10.0"
     gridtolerance="10.0"
     objecttolerance="10.0"
     borderopacity="1.0"
     bordercolor="#666666"
     pagecolor="#ffffff"
     id="base"
     showgrid="false"
     inkscape:zoom="34.137909"
     inkscape:cx="10.317963"
     inkscape:cy="3.24"
     inkscape:window-x="-4"
     inkscape:window-y="-4"
     inkscape:current-layer="svg2688" />
  <path
     style="fill:#000000;stroke:none"
     d="M 6.3125,0.0073029156 C 4.7350734,0.023734476 3.2832728,0.6554154 1.96875,1.8823029 C 0.6542277,3.1091902 -9.9999999e-09,4.9691191 1.110223e-16,7.4448029 L 19.33,7.4448029 L 19.33,6.7260529 L 0.875,6.7260529 C 0.875,4.7214064 1.5105457,3.2119447 2.78125,2.2260529 C 4.0519552,1.2401605 5.3565451,0.7370068 6.6875,0.72605292 C 8.0184537,0.71509831 12.893248,0.72605292 19.3125,0.72605292 L 19.3125,0.0073029156 C 12.893247,0.0073029156 7.8899272,-0.0091286444 6.3125,0.0073029156 z M 6.28125,1.4135529 C 5.9506954,1.3954751 5.6583322,1.8342142 5.375,2.7260529 C 5.0916676,1.8342142 4.7298594,1.4684827 4.28125,1.6010529 C 3.8444453,1.8420906 3.9173633,2.267658 4.53125,2.8823029 C 4.0118072,3.0148735 3.7500001,3.3542614 3.75,3.9448029 C 3.7618059,4.5112407 4.1777811,4.819803 4.96875,4.8198029 C 5.7597203,4.8198029 6.4333357,4.9620319 7,5.2573029 C 7.566665,5.552574 8.134377,5.6948029 8.71875,5.6948029 C 9.3031255,5.6948029 9.9402814,5.6086234 10.625,5.4760529 C 11.935415,5.1868071 12.963198,5.0698029 13.71875,5.0698029 L 16.8125,5.2885529 C 18.453465,5.2403448 19.28125,5.0800382 19.28125,4.8510529 C 19.115976,4.6461707 18.727083,4.4572795 18.125,4.2885529 C 17.286808,4.2885529 16.505552,4.1929861 15.75,3.9760529 C 14.69931,3.578341 13.84861,3.382303 13.1875,3.3823029 C 10.897231,3.7197557 9.565277,3.8823029 9.1875,3.8823029 C 8.8097255,3.8823029 8.243749,3.7197558 7.5,3.3823029 C 6.756252,3.0448508 6.2902773,2.843906 6.125,2.8198029 C 6.6326372,2.4220911 6.879166,2.1161937 6.84375,1.8510529 C 6.808334,1.5859113 6.6118045,1.4316307 6.28125,1.4135529 z M 5.34375,3.2885529 C 5.6979155,3.2885529 6.3138925,3.5312541 7.1875,4.0073029 C 8.061109,4.4833517 9.3024374,4.5454277 10.9375,4.2260529 C 12.572568,3.9066778 13.856255,3.9319016 14.8125,4.2573029 C 15.76875,4.5827029 16.731252,4.726053 17.6875,4.7260529 L 17.71875,4.7260529 L 17.71875,4.8198029 L 16.4375,4.8510529 L 13.0625,4.5073029 C 10.748619,4.8688586 9.354859,5.0698029 8.90625,5.0698029 C 8.4812515,5.0698029 7.96354,4.8952031 7.34375,4.5698029 C 6.723961,4.2444025 6.1638884,4.0698028 5.65625,4.0698029 L 4.65625,4.1635529 C 4.5263893,4.1153454 4.4687501,4.0197782 4.46875,3.8510529 C 4.46875,3.5618074 4.7652799,3.3729151 5.34375,3.2885529 z"
     id="path2690"
     sodipodi:nodetypes="csccccsscccccccsssscccccccsscsccssscccccssccsc" />
</svg>
