<?xml version="1.0" encoding ="US-ASCII" standalone="yes"?>
<svg width="21.418802" height="14.4">
<path style="fill:#000000; stroke:none" d=" M 3.852715 0.801059  Q 2.47947 0.648477 1.41139 0.858278  Q 0.095364 0.324238 0.648477 1.678411  L 0.896424 1.296953  L 1.220662 1.983576  L 1.487682 1.430463  L 1.792848 2.098013  L 2.002649 1.563973  L 2.365033 2.193377  L 2.555761 1.773775  L 2.803708 2.231523  L 3.013509 1.964503  L 3.261456 2.365033  L 3.471258 2.07894  Q 4.062516 2.498543 4.567947 2.469934  Q 5.073376 2.441324 6.713642 3.585695  Q 6.866227 2.365033 7.877085 2.250596  Q 8.525561 1.888211 8.830728 2.193377  L 8.830728 2.422251  L 8.182252 2.670198  Q 7.438409 2.708344 7.323973 3.528477  Q 7.323973 4.176953 8.468344 4.348608  Q 8.8498 3.909933 10.47099 3.909933  Q 12.626222 3.814569 12.626222 3.242384  Q 12.836023 2.288741 13.675235 2.174304  Q 14.171124 2.174304 14.800529 2.307814  Q 14.514435 2.803708 13.732454 2.708344  Q 13.293775 2.765562 13.274701 3.204237  Q 13.274701 4.043443 14.323706 4.405827  Q 14.571654 4.405827 14.705163 4.100661  Q 14.628874 3.814569 15.334567 3.833642  Q 16.173771 3.929005 17.279999 4.844503  Q 17.947546 5.645562 18.195496 6.847153  Q 19.83576 12.759731 20.808472 13.656159  Q 20.236284 11.729798 20.036018 10.776155  Q 19.83576 9.822515 19.511522 8.201323  L 19.263575 6.179601  Q 18.691389 3.814569 17.566088 2.765562  Q 17.203707 2.403179 16.173771 2.059867  Q 15.735096 1.773775 11.13854 1.659338  Q 6.69457 1.659338 6.69457 1.201589  Q 5.931654 0.762914 4.901721 0.667549  Q 4.329536 0.305166 3.852715 0.801059  Z  M 3.967152 0.839205  Q 4.634701 0.553113 5.149667 1.144371  Q 4.672847 1.068079 4.558411 1.27788  Q 4.310462 1.430463 4.119735 1.220662  Q 4.119735 0.934569 3.967152 0.839205  Z  M 16.84132 5.893509  Q 17.127415 6.179601 16.669664 6.637351  Q 15.716021 7.133245 15.468076 7.70543  Q 16.116552 7.70543 16.116552 8.086885  Q 16.097481 8.411125 15.372712 8.411125  L 16.250065 14.4  L 9.803443 14.4  L 9.803443 11.100393  L 7.838939 11.100393  L 7.838939 14.4  L 1.316026 14.4  L 2.307814 8.430198  Q 1.525828 8.430198 1.525828 8.086885  Q 1.525828 7.70543 2.174304 7.70543  Q 1.907284 7.133245 0.953642 6.637351  Q 0.514967 6.179601 0.858278 5.893509  L 16.84132 5.893509  Z  M 2.07894 6.637351  Q 2.746489 7.133245 2.879999 7.70543  L 14.762383 7.70543  Q 14.895892 7.133245 15.56344 6.637351  L 2.07894 6.637351  Z  M 3.070727 8.411125  L 2.21245 13.637087  L 6.980661 13.637087  L 6.980661 10.242117  L 10.661719 10.242117  L 10.661719 13.637087  L 15.429931 13.637087  L 14.571654 8.411125  L 3.070727 8.411125  Z  M 15.658802 4.768211  Q 15.506222 5.454833 15.372712 5.43576  Q 12.626222 5.779071 12.025428 5.540661  Q 11.424633 5.30225 11.348341 5.779071  Q 10.985957 5.130594 10.73801 5.779071  L 10.623572 5.43576  Q 10.280261 5.30225 10.242117 5.550197  L 10.165825 5.779071  Q 9.803443 4.82543 10.547281 4.787284  Q 11.19576 4.672847 12.626222 5.054303  Q 13.370066 4.920795 13.370066 4.634701  L 13.370066 4.634701  Q 12.702514 4.348608 12.492713 4.348608  Q 9.269403 4.443973 9.269403 4.749138  Q 9.116821 5.43576 8.98331 5.416687  Q 6.23682 5.759998 5.636025 5.521587  Q 5.035231 5.283176 4.95894 5.759998  Q 4.596556 5.111522 4.348608 5.759998  L 4.234172 5.416687  Q 3.89086 5.283176 3.852715 5.531124  L 3.776423 5.759998  Q 3.41404 4.806357 4.157879 4.768211  Q 4.806357 4.653775 6.217747 5.035231  Q 6.980661 4.901721 6.980661 4.615629  Q 6.980661 4.310462 4.539337 3.013509  Q 2.460397 2.822781 0.514967 2.288741  Q 0.114437 2.326888 0.114437 1.94543  L 0.40053 1.773775  L 0.038146 1.506755  Q -0.038146 1.029934 0.038146 0.781987  Q 0.343311 0 1.468609 0.286093  Q 2.365033 0.190728 3.852715 0.286093  Q 4.215099 0 4.653775 0  Q 5.893509 0 7.800793 0.839205  Q 7.800793 0.896424 14.457218 1.068079  Q 15.487148 1.068079 16.879469 1.602119  Q 18.615101 2.460397 19.339867 4.443973  Q 19.70225 5.397614 19.931126 6.866227  Q 20.007408 7.896158 20.86569 11.748871  Q 21.151783 12.988606 21.418802 13.86596  Q 21.380657 14.247417 20.980125 14.304636  Q 20.255358 14.304636 19.244501 12.015891  Q 18.233643 9.30755 17.508871 6.618278  Q 16.917614 5.054303 15.658802 4.768211  L 15.658802 4.768211  Z "/></svg>
