<?xml version="1.0" encoding="UTF-8" standalone="no"?>
<svg
   xmlns:dc="http://purl.org/dc/elements/1.1/"
   xmlns:cc="http://web.resource.org/cc/"
   xmlns:rdf="http://www.w3.org/1999/02/22-rdf-syntax-ns#"
   xmlns:svg="http://www.w3.org/2000/svg"
   xmlns="http://www.w3.org/2000/svg"
   xmlns:sodipodi="http://sodipodi.sourceforge.net/DTD/sodipodi-0.dtd"
   xmlns:inkscape="http://www.inkscape.org/namespaces/inkscape"
   width="12.238969"
   height="17.972734"
   id="svg2045"
   sodipodi:version="0.32"
   inkscape:version="0.44"
   sodipodi:docname="I52.svg"
   sodipodi:docbase="C:\Program Files\JSesh\fontsST">
  <metadata
     id="metadata2052">
    <rdf:RDF>
      <cc:Work
         rdf:about="">
        <dc:format>image/svg+xml</dc:format>
        <dc:type
           rdf:resource="http://purl.org/dc/dcmitype/StillImage" />
      </cc:Work>
    </rdf:RDF>
  </metadata>
  <defs
     id="defs2050" />
  <sodipodi:namedview
     inkscape:window-height="480"
     inkscape:window-width="640"
     inkscape:pageshadow="2"
     inkscape:pageopacity="0.0"
     guidetolerance="10.0"
     gridtolerance="10.0"
     objecttolerance="10.0"
     borderopacity="1.0"
     bordercolor="#666666"
     pagecolor="#ffffff"
     id="base" />
  <g
     id="g2056">
    <path
       sodipodi:nodetypes="csssssssscscsccssssscssssscccccccccccccccsscssscsssssssssscsscccccc"
       id="path2047"
       d="M 11.913599,17.631197 C 11.659121,17.349932 11.424733,16.847672 11.210436,16.124418 C 10.996138,15.401165 10.888989,14.436826 10.888989,13.231403 C 10.888989,12.02598 10.74166,11.185532 10.447001,10.710059 C 10.152342,10.234587 8.7024863,10.010245 6.097433,10.037032 C 3.492379,10.063819 2.1865037,9.7691593 2.179807,9.153054 C 2.1731103,8.5369493 2.4510273,7.5993983 3.013558,6.340401 C 3.335004,5.603753 3.7368117,4.873802 4.218981,4.150548 C 4.7011503,3.427294 4.8316377,2.7053986 4.671015,1.970741 C 4.4711814,1.0567404 3.6794985,0.66752766 2.692112,0.453917 C 2.1965493,0.520885 1.9219807,0.54767233 1.868406,0.534279 C 1.2516277,0.12176089 0.69252241,0.44182487 0.602712,0.815544 C 0.70986067,1.1102033 0.88397733,1.2642297 1.125062,1.277623 C 1.3661467,1.2910163 1.5670503,1.270926 1.727773,1.217352 C 2.4376337,0.895906 3.1073133,0.80884767 3.736812,0.956177 C 3.8305673,1.076719 3.8238707,1.143687 3.716722,1.157081 C 3.1541907,1.143687 2.728944,1.1905643 2.440982,1.297713 C 2.15302,1.4048617 1.9018903,1.7497467 1.687593,2.332368 C 1.473295,2.9149893 1.3694943,3.963038 1.376191,5.476514 C 1.3828883,6.9899893 1.3929337,8.165277 1.406327,9.002377 C 1.4197203,9.8394763 1.7009857,10.338387 2.250123,10.49911 C 3.1608877,10.606259 4.466763,10.636395 6.167749,10.589518 C 7.868735,10.54264 8.9100867,10.525898 9.291804,10.539291 C 9.6735213,10.552684 9.9648317,10.753588 10.165735,11.142003 C 10.36664,11.530418 10.487182,12.287155 10.527363,13.412216 C 10.567544,14.537278 10.718222,15.498268 10.979397,16.295187 C 11.240572,17.092105 11.551972,17.537442 11.913599,17.631197 z M 2.551479,11.282636 C 2.551479,12.581814 3.174281,13.385429 4.419885,13.693482 L 4.419885,11.282636 L 2.551479,11.282636 z M 9.321939,11.282636 L 7.332991,11.282636 C 7.332991,12.943441 6.5293757,13.934567 4.922145,14.256013 L 4.922145,17.450384 L 4.419885,17.450384 L 4.419885,14.256013 C 2.7992603,13.934567 1.988948,12.943441 1.988948,11.282636 L 0,11.282636 L 0,10.720105 L 1.54696,10.720105 C 1.1049713,10.519201 0.88732533,9.963367 0.894022,9.052603 C 0.90071867,8.1418383 0.88062833,6.8660987 0.833751,5.225384 C 0.78687367,3.5846693 0.97103567,2.362504 1.386237,1.558888 C 1.1049717,1.6124627 0.82705467,1.562237 0.552486,1.408211 C 0.27791733,1.2541843 0.140633,1.0566287 0.140633,0.815544 C 0.44514206,0.01494833 1.0425419,-0.022032306 1.757909,0.011929 C 1.9140668,0.019430807 2.0492193,0.098986667 2.169762,0.192742 C 2.7188993,0.0722 3.3082173,0.139168 3.937716,0.393646 C 4.5672147,0.648124 5.0159,1.160429 5.283772,1.930561 C 5.5516433,2.7006923 5.313907,3.641592 4.570563,4.75326 C 3.827219,5.864928 3.314914,6.8560537 3.033648,7.726637 C 2.7523827,8.597221 2.7557313,9.1296163 3.043694,9.323823 C 3.331656,9.5180297 4.6140923,9.62183 6.891003,9.635224 C 9.1679137,9.6486173 10.473789,9.916489 10.808628,10.438839 C 11.143467,10.961189 11.297494,11.845166 11.270707,13.090771 C 11.24392,14.336374 11.324281,15.287319 11.511791,15.943605 C 11.699302,16.599891 11.903554,17.092105 12.124548,17.420248 C 12.345542,17.748392 12.248439,17.932554 11.833238,17.972734 C 11.404643,17.932554 11.029623,17.453733 10.708177,16.536272 C 10.38673,15.618811 10.155691,14.480355 10.015058,13.120906 C 9.8744253,11.761457 9.6433857,11.081732 9.321939,11.081732 L 9.321939,11.282636 z M 4.922145,11.282636 L 4.922145,13.693482 C 6.154355,13.385429 6.77046,12.581814 6.77046,11.282636 L 4.922145,11.282636 z "
       style="fill:#000000; stroke:none" />
    <path
       sodipodi:nodetypes="cssssc"
       id="path1906"
       d="M 1.1302615,0.4575395 C 1.2690055,0.4323135 1.4235162,0.46069283 1.5937935,0.5426775 C 1.7640702,0.62466283 1.7987562,0.74133417 1.6978515,0.8926915 C 1.5969468,1.0440482 1.4392832,1.1008072 1.2248605,1.0629685 C 1.0104378,1.0251292 0.88430681,0.9557572 0.84646748,0.8548525 C 0.77078881,0.71610783 0.86538681,0.58367017 1.1302615,0.4575395 z "
       style="fill:black;stroke:none" />
  </g>
</svg>
