<?xml version="1.0" encoding="UTF-8" standalone="no"?>
<svg
   xmlns:dc="http://purl.org/dc/elements/1.1/"
   xmlns:cc="http://creativecommons.org/ns#"
   xmlns:rdf="http://www.w3.org/1999/02/22-rdf-syntax-ns#"
   xmlns:svg="http://www.w3.org/2000/svg"
   xmlns="http://www.w3.org/2000/svg"
   xmlns:sodipodi="http://sodipodi.sourceforge.net/DTD/sodipodi-0.dtd"
   xmlns:inkscape="http://www.inkscape.org/namespaces/inkscape"
   width="17.308434"
   height="11.276989"
   id="svg2445"
   sodipodi:version="0.32"
   inkscape:version="0.46"
   sodipodi:docname="I6A.svg"
   inkscape:output_extension="org.inkscape.output.svg.inkscape">
  <metadata
     id="metadata2452">
    <rdf:RDF>
      <cc:Work
         rdf:about="">
        <dc:format>image/svg+xml</dc:format>
        <dc:type
           rdf:resource="http://purl.org/dc/dcmitype/StillImage" />
      </cc:Work>
    </rdf:RDF>
  </metadata>
  <defs
     id="defs2450">
    <inkscape:perspective
       sodipodi:type="inkscape:persp3d"
       inkscape:vp_x="0 : 5.6384945 : 1"
       inkscape:vp_y="0 : 1000 : 0"
       inkscape:vp_z="17.308434 : 5.6384945 : 1"
       inkscape:persp3d-origin="8.6542168 : 3.7589963 : 1"
       id="perspective2454" />
  </defs>
  <sodipodi:namedview
     inkscape:window-height="480"
     inkscape:window-width="640"
     inkscape:pageshadow="2"
     inkscape:pageopacity="0.0"
     guidetolerance="10.0"
     gridtolerance="10.0"
     objecttolerance="10.0"
     borderopacity="1.0"
     bordercolor="#666666"
     pagecolor="#ffffff"
     id="base"
     showgrid="false" />
  <path
     style="fill:#000000; stroke:none"
     d="M 16.216934,10.199132 C 16.216934,9.425986 16.071401,8.698319 15.780334,8.016131 C 15.489267,7.3339437 15.08905,6.7427147 14.579683,6.242444 C 14.070316,5.7421727 13.474539,5.3487777 12.792352,5.062259 C 12.110164,4.7757403 11.44162,4.632481 10.786719,4.632481 C 10.140915,4.632481 9.5769733,4.6961517 9.094894,4.823493 C 8.6128153,4.950835 8.1648457,5.1372997 7.750985,5.382887 C 7.3371243,5.6284743 6.959647,5.919541 6.618553,6.256087 C 6.277459,6.592633 5.9841183,6.9678363 5.738531,7.381697 C 5.4929437,7.7955577 5.304205,8.2389797 5.172315,8.711963 C 5.0404257,9.1849463 4.974481,9.6806693 4.974481,10.199132 L 16.216934,10.199132 z M 7.021044,0.675792 C 6.9664687,0.63940867 6.9073457,0.562094 6.843675,0.443848 C 6.7800037,0.32560267 6.8527703,0.19143933 7.061975,0.041358 C 7.271179,-0.10872333 7.935175,0.12094633 9.053963,0.730367 C 10.17275,1.3397883 11.09143,2.313043 11.810001,3.650131 C 12.137451,3.6774183 12.658188,3.8434173 13.372211,4.148128 C 14.086234,4.452838 14.75023,4.9076297 15.364199,5.512503 C 15.978168,6.1173763 16.455699,6.8268513 16.796793,7.640928 C 17.137887,8.4550053 17.308434,9.6670257 17.308434,11.276989 L 3.855693,11.276989 C 3.855693,9.9671883 3.9330073,9.030317 4.087636,8.466375 L 4.10128,8.425445 C 3.7465427,8.3344863 3.3235863,8.3071987 2.832411,8.343582 C 2.3503317,8.3708693 1.5908293,8.602813 0.553904,9.039413 C 0.49023333,9.0757963 0.39245333,9.096262 0.260564,9.10081 C 0.128674,9.105358 0.042263333,8.9802903 0.001332,8.725607 C -0.039598667,8.4709237 0.46067233,7.9774747 1.502145,7.24526 C 2.5436183,6.5130447 3.7920217,6.101458 5.247355,6.0105 C 5.5475177,5.7012413 5.770366,5.4829413 5.9159,5.3556 C 5.6430247,5.0736287 5.292835,4.818945 4.865331,4.591549 C 4.4378263,4.3550577 3.66468,4.1504017 2.545892,3.977581 C 2.4822213,3.977581 2.393537,3.9434713 2.279839,3.875252 C 2.166141,3.8070333 2.1570453,3.6524043 2.252552,3.411365 C 2.348058,3.170325 3.0325197,3.0134217 4.305937,2.940655 C 5.5793537,2.8678883 6.8573187,3.1998863 8.139832,3.936649 C 8.4127067,3.845691 8.7492523,3.7547327 9.149469,3.663774 C 9.0676063,3.2544613 8.9038813,2.840601 8.658294,2.422193 C 8.421802,1.9946883 7.876052,1.4125547 7.021044,0.675792 z"
     id="path2447"
     sodipodi:nodetypes="cssssssssscccssscsssccccsssssccscsssccsc" />
</svg>
