<?xml version="1.0" encoding="UTF-8" standalone="no"?>
<svg
   xmlns:dc="http://purl.org/dc/elements/1.1/"
   xmlns:cc="http://web.resource.org/cc/"
   xmlns:rdf="http://www.w3.org/1999/02/22-rdf-syntax-ns#"
   xmlns:svg="http://www.w3.org/2000/svg"
   xmlns="http://www.w3.org/2000/svg"
   xmlns:sodipodi="http://sodipodi.sourceforge.net/DTD/sodipodi-0.dtd"
   xmlns:inkscape="http://www.inkscape.org/namespaces/inkscape"
   width="18.013037"
   height="13.68"
   id="svg2674"
   sodipodi:version="0.32"
   inkscape:version="0.44"
   sodipodi:docname="US22I7.svg"
   sodipodi:docbase="C:\PROGRA~1\JSesh\FONTEU~1">
  <metadata
     id="metadata2681">
    <rdf:RDF>
      <cc:Work
         rdf:about="">
        <dc:format>image/svg+xml</dc:format>
        <dc:type
           rdf:resource="http://purl.org/dc/dcmitype/StillImage" />
        <cc:license
           rdf:resource="http://creativecommons.org/licenses/GPL/2.0/" />
        <dc:title>US22I7</dc:title>
        <dc:date>5/11/06</dc:date>
        <dc:creator>
          <cc:Agent>
            <dc:title>SR &amp; ST</dc:title>
          </cc:Agent>
        </dc:creator>
        <dc:description>optimisation de signe Jsesh</dc:description>
        <dc:publisher>
          <cc:Agent>
            <dc:title>Serge Rosmorduc</dc:title>
          </cc:Agent>
        </dc:publisher>
      </cc:Work>
      <cc:License
         rdf:about="http://creativecommons.org/licenses/GPL/2.0/">
        <cc:permits
           rdf:resource="http://web.resource.org/cc/Reproduction" />
        <cc:permits
           rdf:resource="http://web.resource.org/cc/Distribution" />
        <cc:requires
           rdf:resource="http://web.resource.org/cc/Notice" />
        <cc:permits
           rdf:resource="http://web.resource.org/cc/DerivativeWorks" />
        <cc:requires
           rdf:resource="http://web.resource.org/cc/ShareAlike" />
        <cc:requires
           rdf:resource="http://web.resource.org/cc/SourceCode" />
      </cc:License>
    </rdf:RDF>
  </metadata>
  <defs
     id="defs2679" />
  <sodipodi:namedview
     inkscape:window-height="569"
     inkscape:window-width="939"
     inkscape:pageshadow="2"
     inkscape:pageopacity="0.0"
     guidetolerance="10.0"
     gridtolerance="10.0"
     objecttolerance="10.0"
     borderopacity="1.0"
     bordercolor="#666666"
     pagecolor="#ffffff"
     id="base"
     inkscape:zoom="27.558479"
     inkscape:cx="9.0065184"
     inkscape:cy="6.8400002"
     inkscape:window-x="22"
     inkscape:window-y="29"
     inkscape:current-layer="svg2674" />
  <path
     style="fill:#000000; stroke:none"
     d=" M 9.173106 13.140406  Q 7.331043 12.544991 6.977515 12.26589  Q 6.679808 12.09843 6.558864 12.26589  Q 6.437921 12.433351 6.819358 12.656631  Q 7.200796 12.879911 7.349649 13.149709  Q 7.498503 13.419506 7.275222 13.68  L 0.762875 13.68  Q 0.390741 13.68 0 13.68  Q -0.018607 13.289259 0.558201 12.945035  Q 1.135009 12.600811 1.376896 12.544991  Q 4.037655 12.247284 4.456306 11.810026  Q 4.874957 11.372768 4.977294 10.693624  Q 5.079631 10.014479 4.102779 9.316728  Q 3.125927 8.618976 2.474692 7.260686  Q 1.823457 5.902396 1.823457 5.567476  Q 1.823457 5.232555 1.423413 4.953454  Q 1.023369 4.674354 0.660538 3.790535  Q 0.297707 2.906717 0.800088 1.939168  L 0.558201 1.715887  Q 1.135009 0.692518 2.130468 0.497148  Q 3.125927 0.301778 3.851588 0.469238  Q 5.023811 -0.181997 5.786686 0.069194  Q 6.549561 0.320384 6.735628 1.008832  Q 8.391625 3.185817 12.271123 4.972061  Q 16.150621 6.758305 17.294935 9.009716  Q 18.439247 11.261128 17.760101 12.303103  Q 17.080957 13.345079 16.327385 13.503236  Q 15.573814 13.661393 14.457412 13.68  L 7.57293 13.68  Q 7.945064 13.252046 9.173106 13.140406  Z  M 14.587659 8.618976  Q 13.824783 9.344637 13.033998 9.791198  Q 12.243214 10.23776 12.12227 10.665713  Q 12.001327 11.093668 12.23391 11.633263  Q 12.466494 12.172856 13.554986 12.09843  Q 14.643478 12.024003 15.759881 11.930969  Q 16.336689 11.819329 16.373903 12.0147  Q 16.411116 12.21007 15.871521 12.358924  Q 13.266582 13.028766 11.936203 12.870608  Q 10.605824 12.712451 10.484879 12.852001  Q 10.363935 12.991551 10.308116 13.214832  Q 11.591979 13.084585 13.657323 13.205529  Q 15.722668 13.326472 16.262262 12.870608  Q 16.801857 12.414744 16.932104 12.051913  Q 17.062351 11.689082 16.960014 11.493711  Q 16.857677 11.298342 15.406354 11.400679  Q 13.95503 11.503016 13.554986 11.186701  Q 13.154942 10.870387 13.936423 10.758747  Q 14.717905 10.647107 15.434263 10.79596  Q 16.150621 10.944814 17.062351 10.591287  Q 16.578577 9.121357 15.415657 7.977044  Q 14.252738 6.832732 13.154942 6.348958  Q 12.057146 5.865183 10.615127 5.232555  Q 9.173106 4.599927 6.065786 1.771707  Q 5.954146 1.157686 5.516889 0.887889  Q 5.079631 0.618092 3.944622 1.157686  Q 2.623546 0.953012 2.065345 1.260023  Q 1.507143 1.567034 1.944401 2.236875  Q 2.381659 2.906717 3.125927 3.595165  Q 3.21896 3.837052 2.865433 3.911479  Q 2.009524 3.297457 1.376896 2.255482  Q 1.041976 2.609009 1.274559 3.316064  Q 1.507143 4.023119 1.907187 4.38595  Q 2.307232 4.748781 2.428175 5.186038  Q 2.549119 5.623296 3.10732 6.776912  Q 3.665521 7.930528 4.363273 8.581762  Q 5.061024 9.232997 5.368035 9.540008  Q 5.675045 9.847018 5.675045 10.405219  Q 5.675045 10.982027 5.349428 11.865846  Q 5.023811 12.749664 1.972311 12.824092  Q 1.730424 12.824092 1.730424 13.047372  Q 1.730424 13.233439 1.972311 13.233439  Q 2.791006 13.233439 3.777162 13.121799  Q 4.763317 13.010159 5.749473 13.177619  Q 6.735628 13.345079 6.04718 12.972945  Q 5.358732 12.600811 6.363494 11.326252  Q 7.368256 10.051692 6.679808 7.856101  Q 7.591537 8.470122 7.57293 10.070299  Q 7.665963 11.372768 9.145197 11.726295  Q 10.62443 12.079823 11.201238 11.912363  Q 10.884924 10.79596 11.275664 10.107512  Q 11.666406 9.419065 12.652561 9.21439  Q 13.638717 9.009716 14.587659 8.618976  Z  M 5.693653 1.920561  Q 5.377338 2.478762 4.707497 2.162448  Q 4.112082 1.901954 4.447003 1.30654  Q 4.74471 0.748339 5.377338 1.046046  Q 5.99136 1.343753 5.693653 1.920561  Z "
     id="path2676" />
</svg>
