<?xml version="1.0" encoding="UTF-8" standalone="no"?>
<svg
   width="2510"
   height="1778"
   version="1.1"
   id="svg1"
   sodipodi:docname="I70B.svg"
   inkscape:version="1.4 (e7c3feb1, 2024-10-09)"
   xmlns:inkscape="http://www.inkscape.org/namespaces/inkscape"
   xmlns:sodipodi="http://sodipodi.sourceforge.net/DTD/sodipodi-0.dtd"
   xmlns="http://www.w3.org/2000/svg"
   xmlns:svg="http://www.w3.org/2000/svg"
   xmlns:rdf="http://www.w3.org/1999/02/22-rdf-syntax-ns#"
   xmlns:cc="http://creativecommons.org/ns#"
   xmlns:dc="http://purl.org/dc/elements/1.1/">
  <title
     id="title1">I70B</title>
  <defs
     id="defs1" />
  <sodipodi:namedview
     id="namedview1"
     pagecolor="#ffffff"
     bordercolor="#000000"
     borderopacity="0.25"
     inkscape:showpageshadow="2"
     inkscape:pageopacity="0.0"
     inkscape:pagecheckerboard="0"
     inkscape:deskcolor="#d1d1d1"
     inkscape:zoom="0.091394822"
     inkscape:cx="10.941539"
     inkscape:cy="10.941539"
     inkscape:window-width="1432"
     inkscape:window-height="693"
     inkscape:window-x="0"
     inkscape:window-y="25"
     inkscape:window-maximized="0"
     inkscape:current-layer="svg1" />
  <path
     style="fill:#000000;stroke:none;stroke-width:100"
     d="m 1947,1391 q 99,-290 -42,-283 -140,8 -120,215 97,457 -275,455 -297,0 -128,-520 88,-337 -111,-303 -200,35 -137,346 95,446 -237,464 -332,18 -404,-211 -72,-228 -91,-482 -19,-253 122,-467 -58,9 -108,14 -132,7 -189,-99 72,-97 151,-99 70,-2 101,34 237,-18 370,74 96,67 124,180 29,113 -96,315 -125,203 -121,389 5,187 139,174 134,-14 100,-252 -135,-475 273,-521 409,-47 238,561 -68,282 18,277 175,5 151,-225 -88,-434 210,-446 298,-11 208,372 -97,319 63,299 61,2 103,-35 41,-37 67,-98 26,-61 38,-135 13,-74 13,-144 -2,-52 -10,-114 -8,-61 -22,-124 -13,-63 -30,-124 -17,-61 -37,-113 -50,-142 -156,-264 -105,-123 -267,-220 -81,-51 -169,-83 -88,-31 -181,-52 -94,-20 -192,-30 -98,-10 -201,-15 -88,-2 -180,3 -92,4 -180,19 -88,14 -166,39 -77,25 -136,61 Q 333,293 254,359 176,425 133,484 88,549 66,582 45,614 32,619 18,621 12,614 7,608 0,592 25,529 55,470 86,412 128,359 171,306 227,258 284,209 360,164 428,122 514,91 601,61 699,41 797,20 901,10 1006,0 1112,0 q 121,0 232,11 110,12 211,35 102,24 197,61 96,37 190,91 185,106 300,234 115,128 173,288 25,72 42,134 17,62 28,123 11,61 17,125 5,64 8,143 0,45 -7,100 -7,55 -22,113 -14,59 -39,114 -25,55 -62,100 -37,45 -89,73 -52,29 -119,29 -320,22 -225,-383 z m 54,-27 q -113,407 180,369 126,-18 200,-138 75,-121 81,-350 0,-77 -6,-141 -7,-64 -21,-125 -13,-61 -32,-121 -19,-61 -42,-131 Q 2302,572 2194,446 2086,320 1915,223 1733,122 1534,78 1335,34 1112,34 1011,34 910,43 810,52 716,70 621,88 538,117 455,146 387,189 277,254 203,327 128,401 88,491 q 2,-5 5,-10 4,-6 6,-11 41,-60 118,-129 78,-69 204,-143 61,-36 142,-63 81,-27 173,-43 92,-15 189,-22 97,-7 191,0 v 0 q 108,4 212,14 103,11 199,33 96,23 186,55 90,33 173,85 169,103 281,230 113,127 163,269 18,50 33,115 16,65 30,132 13,66 21,129 8,63 8,110 0,50 -5,101 -4,50 -15,99 -12,48 -31,93 -19,45 -47,79 -28,34 -68,56 -39,23 -91,27 -214,14 -119,-340 92,-337 -151,-330 -243,8 -187,353 66,328 -189,317 -155,5 -54,-369 133,-509 -200,-461 -333,47 -225,438 67,325 -145,343 -213,18 -205,-228 8,-245 125,-423 Q 932,819 898,716 864,612 765,560 614,482 443,545 q -87,15 -119,-27 34,-36 72,-36 43,6 38,51 189,-83 406,25 -174,-110 -379,-65 -18,-41 -81,-38 -49,0 -99,63 21,58 138,58 150,-29 229,-12 79,17 124,50 L 632,592 q -45,34 -108,146 -72,138 -51,373 20,235 82,424 62,189 339,170 276,-19 191,-404 -86,-358 188,-401 273,-42 147,403 -133,437 95,437 304,4 225,-387 -18,-291 169,-291 186,0 92,302 z"
     id="path1" />
  <metadata
     id="metadata1">
    <rdf:RDF>
      <cc:Work
         rdf:about="">
        <dc:title>I70B</dc:title>
        <dc:creator>
          <cc:Agent>
            <dc:title>Serge J. Paul THOMAS</dc:title>
          </cc:Agent>
        </dc:creator>
        <dc:description>Modified to avoid having two thin parallel lines.
</dc:description>
      </cc:Work>
    </rdf:RDF>
  </metadata>
</svg>
