<?xml version="1.0" encoding="UTF-8" standalone="no"?>
<svg
   xmlns:dc="http://purl.org/dc/elements/1.1/"
   xmlns:cc="http://creativecommons.org/ns#"
   xmlns:rdf="http://www.w3.org/1999/02/22-rdf-syntax-ns#"
   xmlns:svg="http://www.w3.org/2000/svg"
   xmlns="http://www.w3.org/2000/svg"
   xmlns:sodipodi="http://sodipodi.sourceforge.net/DTD/sodipodi-0.dtd"
   xmlns:inkscape="http://www.inkscape.org/namespaces/inkscape"
   width="13.898696"
   height="17.972734"
   id="svg2567"
   sodipodi:version="0.32"
   inkscape:version="0.46"
   sodipodi:docname="I70C.svg"
   inkscape:output_extension="org.inkscape.output.svg.inkscape">
  <metadata
     id="metadata2574">
    <rdf:RDF>
      <cc:Work
         rdf:about="">
        <dc:format>image/svg+xml</dc:format>
        <dc:type
           rdf:resource="http://purl.org/dc/dcmitype/StillImage" />
      </cc:Work>
    </rdf:RDF>
  </metadata>
  <defs
     id="defs2572">
    <inkscape:perspective
       sodipodi:type="inkscape:persp3d"
       inkscape:vp_x="0 : 8.9863672 : 1"
       inkscape:vp_y="0 : 1000 : 0"
       inkscape:vp_z="13.898696 : 8.9863672 : 1"
       inkscape:persp3d-origin="6.949348 : 5.9909115 : 1"
       id="perspective2576" />
  </defs>
  <sodipodi:namedview
     inkscape:window-height="708"
     inkscape:window-width="1024"
     inkscape:pageshadow="2"
     inkscape:pageopacity="0.0"
     guidetolerance="10.0"
     gridtolerance="10.0"
     objecttolerance="10.0"
     borderopacity="1.0"
     bordercolor="#666666"
     pagecolor="#ffffff"
     id="base"
     showgrid="false"
     inkscape:zoom="36.353214"
     inkscape:cx="6.949348"
     inkscape:cy="4.5851058"
     inkscape:window-x="-4"
     inkscape:window-y="-4"
     inkscape:current-layer="svg2567" />
  <path
     style="fill:#000000; stroke:none"
     d="M 3.472199,7.708275 C 3.5148343,7.686957 3.5601343,7.694951 3.608099,7.732257 C 3.6560643,7.769563 3.6640587,7.8201927 3.632082,7.884146 C 3.6001053,7.9480987 3.5548053,7.9747457 3.496182,7.964087 C 3.437558,7.9534283 3.4029167,7.9214517 3.392258,7.868157 C 3.37094,7.814863 3.397587,7.761569 3.472199,7.708275 z M 5.166954,7.644322 C 4.9964127,7.7402513 4.756589,7.8468397 4.447483,7.964087 C 3.839929,8.1772637 3.4668697,8.1879223 3.328305,7.996063 C 3.1897403,7.8042043 3.264352,7.6656397 3.55214,7.580369 C 3.775976,7.5377337 3.9092117,7.580369 3.951847,7.708275 C 3.9944823,7.836181 3.9358587,7.9214517 3.775976,7.964087 C 3.82927,7.9001337 3.8612467,7.84151 3.871906,7.788216 C 3.8825647,7.734922 3.8559173,7.689622 3.791964,7.652316 C 3.7280113,7.61501 3.6294173,7.6203393 3.496182,7.668304 C 3.3629467,7.7162693 3.3096523,7.785552 3.336299,7.876152 C 3.3629463,7.966752 3.440223,8.0253753 3.568129,8.052022 C 3.696035,8.0786693 3.9838237,8.017381 4.431495,7.868157 L 5.134978,7.596357 L 5.166954,7.644322 z M 4.986984,14.863019 C 5.2205477,13.22444 7.219743,10.701066 6.969527,9.123236 C 6.772339,8.3398113 6.565927,7.8601633 6.070291,7.684292 C 5.574655,7.5084213 4.996413,7.4791097 4.335565,7.596357 C 4.133047,7.447133 3.8932233,7.4151567 3.616094,7.500428 C 3.4029173,7.5643807 3.2270463,7.6922867 3.088481,7.884146 C 3.1950697,8.193252 3.3709407,8.3531343 3.616094,8.363793 C 3.8612473,8.3744523 4.0584357,8.3531347 4.207659,8.29984 C 4.900483,7.969416 5.550672,7.8841453 6.158226,8.044028 C 6.2541553,8.1612753 6.2434967,8.2252287 6.12625,8.235888 C 5.7318727,8.2252287 5.476119,8.2731933 5.198989,8.379782 C 3.8356508,9.5290663 3.7525364,11.139211 3.72807,12.824516 C 3.802682,14.199506 3.9189274,14.899875 4.1267748,15.805876 C 4.5126819,16.422809 4.7112236,15.972906 4.986984,14.863019 z M 13.848577,13.975671 C 13.805941,15.649108 13.294317,16.485826 12.313704,16.485826 C 11.258479,16.485826 10.730867,15.649108 10.730867,13.975671 C 10.730867,12.70727 10.448408,12.073069 9.88349,12.073069 C 9.371866,12.073069 9.1107243,12.685952 9.100065,13.911717 C 9.0894063,16.619062 8.295323,17.972734 6.717815,17.972734 C 4.8951543,17.972734 3.8665767,17.37584 3.632082,16.182051 C 3.3975873,14.98826 3.2297107,13.7092 3.128452,12.344869 C 3.0271927,10.980538 3.3496223,9.749442 4.095741,8.651582 C 3.6693877,8.6942173 3.3229757,8.6382587 3.056505,8.483706 C 2.7900337,8.3291527 2.656798,8.1292993 2.656798,7.884146 C 2.6461393,7.7029453 2.7367397,7.5430627 2.928599,7.404498 C 3.0991403,7.2872507 3.320311,7.1966507 3.592111,7.132698 C 3.8639117,7.0687447 4.0770883,7.0500917 4.231641,7.076739 C 4.3861943,7.1033857 4.5220947,7.164674 4.639342,7.260604 C 5.172284,7.1433567 5.71322,7.15668 6.26215,7.300574 C 6.81108,7.4444687 7.232104,7.98274 7.525222,8.915388 C 7.81834,9.8480367 7.618487,10.855297 6.925663,11.937168 C 6.2328383,13.019041 5.7585197,14.106242 5.502707,15.198772 C 5.246895,16.291303 5.6572603,16.837568 6.733803,16.837568 C 7.575851,16.837568 8.0022043,15.862284 8.012863,13.911717 C 8.012863,12.014444 8.6364053,11.065808 9.88349,11.065808 C 11.023985,11.065808 11.594233,12.035762 11.594233,13.975671 C 11.594233,15.062872 11.834057,15.606473 12.313704,15.606473 C 12.71874,15.606473 12.947905,15.062872 13.001199,13.975671 C 13.288988,10.884608 13.049164,8.1639403 12.281728,5.813667 C 11.514291,3.463393 10.618949,2.013791 9.595701,1.464861 C 8.5724523,0.915931 7.3999803,0.70008967 6.078285,0.817337 C 4.756589,0.93458433 3.666723,1.2889907 2.808687,1.880556 C 1.9506503,2.4721213 1.3324377,3.895076 0.954049,6.14942 C 0.57566033,8.403764 0.623625,10.327684 1.097943,11.92118 C 1.5722617,13.514676 1.817415,14.780413 1.833403,15.71839 C 1.8493917,16.656368 1.3191147,17.407816 0.242572,17.972734 C 0.15730133,17.962076 0.11200133,17.938094 0.106672,17.900787 C 0.10134267,17.863481 0.306525,17.60234 0.722219,17.117363 C 1.1379137,16.632385 1.31112,16.03549 1.241838,15.326678 C 1.1725553,14.617865 0.89276067,13.421411 0.402454,11.737315 C -0.087852,10.053219 -0.13048733,8.065346 0.274548,5.773696 C 0.679584,3.482046 1.348426,1.989809 2.281074,1.296985 C 3.2137227,0.60416033 4.484789,0.18313633 6.094273,0.033913 C 7.703757,-0.115311 9.0920703,0.20978333 10.259213,1.009196 C 11.426356,1.8086087 12.359005,3.2875223 13.057158,5.445937 C 13.755311,7.604351 14.019118,10.447596 13.848577,13.975671 z"
     id="path2569"
     sodipodi:nodetypes="cssssccsssssssssscccccscscsccscccccssscssscssssscssssscssscssssssscsssssssssc" />
</svg>
