<?xml version="1.0" encoding="UTF-8" standalone="no"?>
<svg
   xmlns:dc="http://purl.org/dc/elements/1.1/"
   xmlns:cc="http://creativecommons.org/ns#"
   xmlns:rdf="http://www.w3.org/1999/02/22-rdf-syntax-ns#"
   xmlns:svg="http://www.w3.org/2000/svg"
   xmlns="http://www.w3.org/2000/svg"
   xmlns:sodipodi="http://sodipodi.sourceforge.net/DTD/sodipodi-0.dtd"
   xmlns:inkscape="http://www.inkscape.org/namespaces/inkscape"
   width="12.093386"
   height="17.977583"
   id="svg2441"
   sodipodi:version="0.32"
   inkscape:version="0.46"
   sodipodi:docname="I71Avara.svg"
   inkscape:output_extension="org.inkscape.output.svg.inkscape">
  <metadata
     id="metadata2448">
    <rdf:RDF>
      <cc:Work
         rdf:about="">
        <dc:format>image/svg+xml</dc:format>
        <dc:type
           rdf:resource="http://purl.org/dc/dcmitype/StillImage" />
      </cc:Work>
    </rdf:RDF>
  </metadata>
  <defs
     id="defs2446">
    <inkscape:perspective
       sodipodi:type="inkscape:persp3d"
       inkscape:vp_x="0 : 8.9887915 : 1"
       inkscape:vp_y="0 : 1000 : 0"
       inkscape:vp_z="12.093386 : 8.9887915 : 1"
       inkscape:persp3d-origin="6.0466928 : 5.9925276 : 1"
       id="perspective2450" />
  </defs>
  <sodipodi:namedview
     inkscape:window-height="708"
     inkscape:window-width="1024"
     inkscape:pageshadow="2"
     inkscape:pageopacity="0.0"
     guidetolerance="10.0"
     gridtolerance="10.0"
     objecttolerance="10.0"
     borderopacity="1.0"
     bordercolor="#666666"
     pagecolor="#ffffff"
     id="base"
     showgrid="false"
     inkscape:zoom="27.975508"
     inkscape:cx="6.0467231"
     inkscape:cy="10.419796"
     inkscape:window-x="-4"
     inkscape:window-y="-4"
     inkscape:current-layer="svg2441" />
  <path
     style="fill:#000000; stroke:none"
     d="M 5.820207,1.959589 C 5.8677303,1.9500843 5.912878,1.9619653 5.95565,1.995232 C 5.998422,2.0284987 6.007927,2.0760227 5.984165,2.137804 C 5.960403,2.1995853 5.917631,2.2257237 5.855849,2.216219 C 5.7940677,2.2067143 5.7536723,2.1782 5.734663,2.130676 C 5.7156537,2.0736467 5.7441683,2.0166177 5.820207,1.959589 z M 7.516816,1.90256 C 7.3457293,1.997608 7.1033567,2.102161 6.789698,2.216219 C 6.190894,2.4158203 5.820206,2.4277013 5.677634,2.251862 C 5.535062,2.0760227 5.6111007,1.940579 5.90575,1.845531 C 6.1243607,1.8075117 6.2550517,1.8479073 6.297823,1.966718 C 6.340595,2.085528 6.28119,2.168695 6.119608,2.216219 C 6.1766373,2.1591903 6.2122803,2.1021613 6.226537,2.045132 C 6.2407943,1.9881033 6.2146563,1.9453317 6.148123,1.916817 C 6.081589,1.888303 5.9817883,1.8954317 5.848721,1.938203 C 5.7156537,1.980975 5.661001,2.0451327 5.684763,2.130676 C 5.708525,2.2162193 5.7845637,2.273248 5.912879,2.301762 C 6.0411937,2.3302767 6.3287143,2.273248 6.775441,2.130676 L 7.474045,1.874046 L 7.516816,1.90256 z M 12.064872,0.662181 C 11.893785,1.2039557 10.427667,1.25148 7.666517,0.804754 C 4.9053677,0.35802733 3.0329187,1.215837 2.04917,3.378183 C 1.0654213,5.540529 0.701862,7.724261 0.958492,9.929379 C 1.215122,12.134496 1.5359097,13.900016 1.920855,15.225938 C 2.3058003,16.55186 3.931124,17.205316 6.796826,17.186306 C 9.6625287,17.167297 11.09538,16.910667 11.09538,16.416416 C 11.09538,15.998205 10.434795,15.789099 9.113626,15.789099 C 7.1936527,15.789099 6.2384183,15.31861 6.247923,14.377633 C 6.247923,13.284579 7.2079097,12.738052 9.127883,12.738052 L 9.127883,12.738052 C 10.496576,12.738052 11.180923,12.528946 11.180923,12.110734 C 11.180923,11.730541 10.501329,11.540445 9.14214,11.540445 L 9.14214,11.554703 C 7.4597873,11.507179 6.466534,11.371735 6.16238,11.148372 C 5.858226,10.925009 5.6990203,10.464025 5.684763,9.765421 C 5.6705057,9.0668163 5.6443673,7.9333667 5.606348,6.365072 C 5.5683287,4.7967773 5.76793,3.632437 6.205152,2.872051 C 5.9390167,2.9100703 5.6728817,2.8554177 5.406747,2.708093 C 5.1406123,2.5607683 5.007545,2.3730483 5.007545,2.144933 C 5.007545,1.9738463 5.102593,1.8217693 5.292689,1.688702 C 5.454271,1.574644 5.6705057,1.4867243 5.941393,1.424943 C 6.2122803,1.3631617 6.4261387,1.3465283 6.582968,1.375043 C 6.7397973,1.403557 6.875241,1.4605857 6.989299,1.546129 C 7.5120643,1.4320717 8.0799773,1.446329 8.693038,1.588901 C 9.3060987,1.731473 9.7456963,2.2233473 10.011831,3.064524 C 10.277966,3.9057007 10.047474,4.8585587 9.320355,5.923098 C 8.593237,6.9876373 8.0823533,7.935743 7.787704,8.767415 C 7.4930547,9.5990863 7.4384017,10.098089 7.623745,10.264423 C 7.8090897,10.430758 8.3152213,10.513925 9.14214,10.513925 C 11.119142,10.513925 12.102891,11.046195 12.093386,12.110734 C 12.093386,13.146759 11.104885,13.664772 9.127883,13.664772 L 9.127883,13.664772 C 7.825723,13.664772 7.174643,13.89764 7.174643,14.363376 C 7.174643,14.772083 7.8209707,14.976437 9.113626,14.976437 C 11.052608,14.976437 12.022099,15.45643 12.022099,16.416416 C 12.012595,17.461946 10.277966,17.982335 6.818212,17.977583 C 3.3584587,17.972831 1.4289807,17.181555 1.029778,15.603755 C 0.630576,14.025955 0.30978867,12.13212 0.067416,9.92225 C -0.17495733,7.71238 0.236126,5.4074617 1.300666,3.007495 C 2.3652053,0.60752833 4.2519113,-0.35721067 6.960784,0.113278 C 9.6696573,0.58376667 11.152409,0.78812033 11.409039,0.726339 C 11.665669,0.66455767 11.88428,0.64317167 12.064872,0.662181 z M 6.9178079,9.9359942 C 6.9178079,9.3562002 7.045434,8.6414753 7.577704,7.434364 C 7.9008673,6.7310073 8.2976933,6.0347793 8.768182,5.34568 C 9.2386707,4.6565807 9.3859953,3.960353 9.210156,3.256997 C 9.0343173,2.5536403 8.9068963,2.1187947 8.407893,1.95246 C 7.9088903,1.786126 7.3314727,1.759988 6.67564,1.874046 C 6.4760387,1.7219687 6.2384183,1.6887017 5.962779,1.774245 C 5.753673,1.840779 5.5825863,1.9643417 5.449519,2.144933 C 5.5540717,2.4395823 5.7251583,2.5892833 5.962779,2.594036 C 6.2003997,2.598788 6.3952483,2.577402 6.547325,2.529878 C 7.2411763,2.2162193 7.8922563,2.1354283 8.500565,2.287505 C 8.595613,2.401563 8.5861083,2.4633443 8.472051,2.472849 C 7.9302763,2.4633443 7.6849357,2.5108683 7.376029,2.615421 C 7.0671223,2.7199743 6.808116,3.050267 6.59901,3.606299 C 6.389904,4.1623303 6.2877273,5.1650883 6.29248,6.614573 C 6.297232,8.0640577 6.3385205,9.1168594 6.3385205,9.9675407 C 6.6995189,10.465517 6.6427186,10.136582 6.9178079,9.9359942 z"
     id="path2443"
     sodipodi:nodetypes="cssssccssssssssssccccssssssscccsccssscssssscsssssssccssssssssscccssscscsccsssscc" />
</svg>
