<?xml version="1.0" encoding="UTF-8" standalone="no"?>
<svg
   xmlns:dc="http://purl.org/dc/elements/1.1/"
   xmlns:cc="http://creativecommons.org/ns#"
   xmlns:rdf="http://www.w3.org/1999/02/22-rdf-syntax-ns#"
   xmlns:svg="http://www.w3.org/2000/svg"
   xmlns="http://www.w3.org/2000/svg"
   xmlns:sodipodi="http://sodipodi.sourceforge.net/DTD/sodipodi-0.dtd"
   xmlns:inkscape="http://www.inkscape.org/namespaces/inkscape"
   width="19.292198"
   height="16.559999"
   id="svg2589"
   sodipodi:version="0.32"
   inkscape:version="0.46"
   sodipodi:docname="I72.svg"
   inkscape:output_extension="org.inkscape.output.svg.inkscape">
  <metadata
     id="metadata2596">
    <rdf:RDF>
      <cc:Work
         rdf:about="">
        <dc:format>image/svg+xml</dc:format>
        <dc:type
           rdf:resource="http://purl.org/dc/dcmitype/StillImage" />
      </cc:Work>
    </rdf:RDF>
  </metadata>
  <defs
     id="defs2594">
    <inkscape:perspective
       sodipodi:type="inkscape:persp3d"
       inkscape:vp_x="0 : 8.2799997 : 1"
       inkscape:vp_y="0 : 1000 : 0"
       inkscape:vp_z="19.292198 : 8.2799997 : 1"
       inkscape:persp3d-origin="9.6460991 : 5.5199998 : 1"
       id="perspective2598" />
  </defs>
  <sodipodi:namedview
     inkscape:window-height="708"
     inkscape:window-width="1024"
     inkscape:pageshadow="2"
     inkscape:pageopacity="0.0"
     guidetolerance="10.0"
     gridtolerance="10.0"
     objecttolerance="10.0"
     borderopacity="1.0"
     bordercolor="#666666"
     pagecolor="#ffffff"
     id="base"
     showgrid="false"
     inkscape:zoom="27.898552"
     inkscape:cx="9.6460991"
     inkscape:cy="8.2799997"
     inkscape:window-x="-4"
     inkscape:window-y="-4"
     inkscape:current-layer="svg2589" />
  <path
     style="fill:#000000; stroke:none"
     d="M 3.688541,2.842744 C 3.7336217,2.8202033 3.78152,2.828656 3.832236,2.868102 C 3.8829527,2.907548 3.8914053,2.9638993 3.857594,3.037156 C 3.8237833,3.1104127 3.775885,3.138588 3.713899,3.121682 C 3.6519123,3.1047767 3.615284,3.0737837 3.604014,3.028703 C 3.5814733,2.9610817 3.609649,2.8990953 3.688541,2.842744 z M 5.48051,2.775122 C 5.300186,2.8765547 5.0466057,2.9892573 4.719769,3.11323 C 4.0773643,3.3386347 3.6829053,3.349905 3.536392,3.147041 C 3.3898787,2.9441763 3.4687703,2.797663 3.773067,2.707501 C 4.0097423,2.6624197 4.1506207,2.7075007 4.195702,2.842744 C 4.2407827,2.9779867 4.1787963,3.0681487 4.009743,3.11323 C 4.0660943,3.0568787 4.099905,2.9977097 4.111175,2.935723 C 4.122445,2.873737 4.0942693,2.823021 4.026648,2.783575 C 3.9590267,2.744129 3.854777,2.749764 3.713899,2.80048 C 3.573021,2.8511967 3.5166697,2.9244533 3.544845,3.02025 C 3.573021,3.1160473 3.6547303,3.1808513 3.789973,3.214662 C 3.9252157,3.2484727 4.223877,3.1864863 4.685957,3.028703 L 5.446699,2.724406 L 5.48051,2.775122 z M 5.338247,10.41635 C 5.9073943,8.8047047 6.4511837,7.5959707 6.969615,6.790148 C 7.4880463,5.9843253 7.6430123,5.1672323 7.434513,4.338869 C 7.226013,3.5105057 6.9569123,3.0061623 6.427211,2.825839 C 5.897509,2.6455143 5.2889157,2.6117033 4.601431,2.724406 C 4.3872963,2.5666227 4.1337157,2.532812 3.840689,2.622974 C 3.6152843,2.6905953 3.4293253,2.8258383 3.282812,3.028703 C 3.395514,3.3555403 3.5786553,3.524594 3.832236,3.535864 C 4.0858167,3.547134 4.291499,3.5245937 4.449283,3.468243 C 5.193119,3.118865 5.886239,3.028703 6.528643,3.197757 C 6.630075,3.3217297 6.618805,3.389351 6.494833,3.400621 C 5.3567332,3.414993 5.0580172,3.9994631 4.464756,4.905199 C 3.6117508,6.9163118 3.9576563,9.1212132 4.422492,11.189174 C 4.9452118,12.199882 5.0816277,12.668134 5.338247,10.41635 z M 13.797953,13.712897 C 11.949632,13.701627 11.484734,12.47317 12.403259,10.027527 C 13.321785,7.581883 13.172454,6.359061 11.955267,6.359061 C 10.771891,6.359061 10.295723,7.5847003 10.526764,10.035979 C 10.757803,12.487258 9.6223257,13.707262 7.120331,13.695992 C 5.193119,13.695992 4.10554,13.064858 3.857594,11.80259 C 3.6096487,10.540323 3.4321423,9.1878933 3.325075,7.745302 C 3.2180077,6.30271 3.5589327,5.0009963 4.34785,3.840161 C 3.89704,3.8852417 3.530757,3.8260727 3.249001,3.662654 C 2.967245,3.4992353 2.826367,3.2879183 2.826367,3.028703 C 2.8150963,2.837109 2.9108933,2.6680553 3.113758,2.521542 C 3.294082,2.3975693 3.5279397,2.301772 3.815331,2.23415 C 4.1027223,2.1665287 4.3281273,2.146806 4.491546,2.174982 C 4.6549647,2.2031573 4.7986603,2.2679613 4.922633,2.369394 C 5.474875,2.2454207 6.0440223,2.2595083 6.630075,2.411657 C 7.2161283,2.563805 7.6641207,3.1329527 7.974052,4.1191 C 8.2839847,5.1052467 8.0726677,6.170285 7.340101,7.314215 C 6.607535,8.4581443 6.106009,9.6077097 5.835523,10.762911 C 5.565037,11.918111 5.9989417,12.495711 7.137237,12.495711 L 7.137237,12.478806 C 8.8165037,12.478806 9.5237117,11.278524 9.258861,8.877961 C 8.9940103,6.4773983 9.915353,5.277117 12.022889,5.277117 C 14.152966,5.277117 14.789735,6.4914863 13.933196,8.920225 C 13.076657,11.348964 13.082292,12.563333 13.950101,12.563333 L 13.950101,12.546427 C 14.829181,12.546427 15.279991,11.532105 15.302531,9.50346 C 15.302531,7.5424367 15.956205,6.561925 17.263554,6.561925 C 18.4582,6.561925 19.089334,7.5424367 19.156956,9.50346 C 19.134415,12.512617 18.173626,14.524356 16.27459,15.538678 C 14.375553,16.553001 11.400208,16.812216 7.348554,16.316324 C 3.2969,15.820434 1.0343977,14.845558 0.561047,13.391696 C 0.087696333,11.937834 -0.086992667,9.9204597 0.03698,7.339573 C 0.16095333,4.7586863 0.83716833,2.7751227 2.065625,1.388882 C 3.2940823,0.0026413333 5.8327057,-0.34673633 9.681495,0.340749 C 13.530284,1.0282337 15.826598,1.386064 16.570435,1.41424 C 17.31427,1.4424153 17.931316,1.2226453 18.421572,0.75493 C 18.911828,0.28721533 19.179496,0.056175333 19.224577,0.06181 C 19.269658,0.067445333 19.292198,0.109709 19.292198,0.188601 C 18.762497,1.3494363 18.004573,1.949577 17.018427,1.989023 C 16.03228,2.0284683 13.665528,1.7129013 9.91817,1.042322 C 6.1708127,0.371742 3.789973,0.61405233 2.775651,1.769253 C 1.7613283,2.924453 1.2006333,4.789679 1.093566,7.364931 C 0.98649867,9.9401823 1.15837,11.802591 1.60918,12.952156 C 2.05999,14.101721 4.0970873,14.904727 7.720472,15.361172 C 11.343857,15.817617 14.017723,15.592212 15.74207,14.684957 C 17.466418,13.777702 18.2497,12.050536 18.091917,9.50346 C 18.035566,8.229922 17.759445,7.593153 17.263554,7.593153 C 16.722583,7.593153 16.452097,8.229922 16.452097,9.50346 C 16.328123,12.298481 15.437773,13.695992 13.781048,13.695992 L 13.797953,13.712897 z"
     id="path2591"
     sodipodi:nodetypes="cssssccssssssssssccccssscscscccccccssscsscssssscssssccssscccscssssssssscssssssscsccc" />
</svg>
