<?xml version="1.0" encoding="UTF-8" standalone="no"?>
<svg
   xmlns:dc="http://purl.org/dc/elements/1.1/"
   xmlns:cc="http://creativecommons.org/ns#"
   xmlns:rdf="http://www.w3.org/1999/02/22-rdf-syntax-ns#"
   xmlns:svg="http://www.w3.org/2000/svg"
   xmlns="http://www.w3.org/2000/svg"
   xmlns:sodipodi="http://sodipodi.sourceforge.net/DTD/sodipodi-0.dtd"
   xmlns:inkscape="http://www.inkscape.org/namespaces/inkscape"
   width="17.287222"
   height="16.559999"
   id="svg1333"
   sodipodi:version="0.32"
   inkscape:version="0.46"
   sodipodi:docname="I73.svg"
   sodipodi:docbase="C:\Program Files\JSesh\fonts"
   inkscape:output_extension="org.inkscape.output.svg.inkscape">
  <metadata
     id="metadata1340">
    <rdf:RDF>
      <cc:Work
         rdf:about="">
        <dc:format>image/svg+xml</dc:format>
        <dc:type
           rdf:resource="http://purl.org/dc/dcmitype/StillImage" />
      </cc:Work>
    </rdf:RDF>
  </metadata>
  <defs
     id="defs1338">
    <inkscape:perspective
       sodipodi:type="inkscape:persp3d"
       inkscape:vp_x="0 : 8.2799997 : 1"
       inkscape:vp_y="0 : 1000 : 0"
       inkscape:vp_z="17.287222 : 8.2799997 : 1"
       inkscape:persp3d-origin="8.643611 : 5.5199998 : 1"
       id="perspective2446" />
  </defs>
  <sodipodi:namedview
     inkscape:window-height="708"
     inkscape:window-width="1024"
     inkscape:pageshadow="2"
     inkscape:pageopacity="0.0"
     borderopacity="1.0"
     bordercolor="#666666"
     pagecolor="#ffffff"
     id="base"
     inkscape:zoom="30.369811"
     inkscape:cx="8.6406178"
     inkscape:cy="8.2787495"
     inkscape:window-x="0"
     inkscape:window-y="26"
     inkscape:current-layer="svg1333"
     showgrid="false"
     showguides="true"
     inkscape:guide-bbox="true" />
  <path
     style="fill:#000000; stroke:none"
     d="M 1.9375 0 C 0.67620195 0.125573 0.044396781 0.89441331 0 1.5625 C 0 1.5624999 -0.010034126 2.1473753 0.5 2.125 C 1.261856 2.152704 1.373854 2.371787 1.625 2.46875 C 0.94233 5.514936 1.194495 8.907917 1.46875 10.71875 C 1.869551 14.43372 4.54993 13.84375 4.59375 13.84375 C 6.2857668 13.84375 6.792456 12.680127 7.0625 11.9375 C 7.256427 11.258757 7.073139 9.998003 7.15625 9.25 C 7.1562501 6.1610168 7.595412 4.257645 8.21875 3.21875 C 8.9113473 1.86126 9.3792596 1.5032339 13.1875 1.28125 C 15.071882 1.1714087 16.213365 1.819347 16.1875 3.1875 C 16.1875 3.5753551 16.517556 4.7279651 14.28125 4.46875 C 8.3668131 3.7831945 9.03125 6.25 9.03125 6.25 C 9.0732476 7.1503581 9.1727433 7.9556032 11.40625 8 C 11.510591 8.0020741 14.847888 7.875 15.03125 7.875 C 16.790446 7.875 16.25 9.0625 16.25 9.0625 C 15.855706 9.4078618 14.819181 9.9012988 13.34375 9.875 C 9.5609431 9.8075737 9.065714 10.526818 8.96875 11.46875 C 8.8388352 13.008043 10.119003 13.529808 11.90625 13.34375 C 17.209392 12.791676 16.060561 15.788569 17.03125 16.5625 C 17.142065 16.520939 17.21875 16.437169 17.21875 16.3125 L 17.21875 15.84375 C 16.997122 14.500108 16.68774 13.605607 15.3125 12.84375 C 14.545082 12.700492 14.556289 12.318272 10.6875 12.53125 C 10.313498 12.53125 9.84375 12.261838 9.84375 11.59375 C 9.5727153 10.697425 12.142432 10.879194 12.1875 10.875 C 15.049874 10.608619 16.970473 10.575556 17.28125 9.03125 L 17.15625 8.09375 C 16.447093 7.216749 16.272632 6.9237984 15.40625 6.9375 L 11.46875 7 C 10.928527 6.9445922 9.779913 7.303252 9.875 6.125 C 9.8618703 5.4960709 10.722904 5.2327564 11.3125 5.25 L 15.5 5.375 C 16.641668 5.2485032 17.250382 4.342297 16.96875 2.65625 C 16.582497 0.66326011 14.541288 0.4375 12.90625 0.4375 C 12.031494 0.4375 10.06805 0.55636578 8.8125 1.09375 C 7.5676477 2.0242323 7.196477 2.514629 6.65625 4.09375 C 6.1437278 6.2546541 5.96875 8.054523 5.96875 8.96875 C 5.8717849 10.312388 5.843418 11.177857 5.71875 11.46875 C 5.5525268 11.953566 5.102726 12.125 4.5625 12.125 C 4.5304532 12.136648 3.764003 11.757014 3.78125 11.125 C 3.870534 8.3664021 5.646392 5.420096 6.03125 3.46875 C 6.2356978 2.4321379 5.09375 1.28125 5.09375 1.28125 C 3.6808508 0.22850302 2.671653 0 1.9375 0 z M 1.96875 0.625 C 2.370456 0.62499999 2.821587 0.72008 3.625 1.21875 C 4.7885621 1.828236 5.375 2.439163 5.375 3.0625 C 5.3749999 3.962879 4.870123 5.239473 4.34375 6.5 C 3.498782 8.203788 3.15625 10.8125 3.15625 10.8125 C 3.1209337 12.078932 3.882005 12.84375 4.46875 12.84375 C 4.5463359 12.84375 5.4561849 12.740087 5.8125 12.5625 C 6.1506262 12.393978 4.6781119 13.793539 3.1875 12.78125 C 2.8827581 12.628878 2.593085 12.209996 2.34375 11.53125 C 1.942044 9.7443518 2 8.010082 2 5.28125 C 2 4.754877 2.0619798 3.2917242 2.78125 2.75 C 3.515403 2.6114809 3.75 2.409463 3.75 2.3125 C 3.75 2.215536 3.533467 2.030917 3.0625 1.90625 C 1.385511 1.8646929 0.71875 1.375 0.71875 1.375 C 1.092753 0.76551506 1.622451 0.625 1.96875 0.625 z M 2 0.78125 C 1.741263 0.76822571 1.4948275 0.93318524 1.5 1.125 C 1.5462641 1.5067891 2.0577277 1.4391455 2.375 1.375 C 2.826196 1.1119018 2.416745 0.91220072 2.25 0.84375 C 2.1676819 0.79423952 2.0862457 0.78559143 2 0.78125 z "
     id="path1335" />
</svg>
