<?xml version="1.0" encoding="UTF-8" standalone="no"?>
<svg
   xmlns:dc="http://purl.org/dc/elements/1.1/"
   xmlns:cc="http://creativecommons.org/ns#"
   xmlns:rdf="http://www.w3.org/1999/02/22-rdf-syntax-ns#"
   xmlns:svg="http://www.w3.org/2000/svg"
   xmlns="http://www.w3.org/2000/svg"
   xmlns:sodipodi="http://sodipodi.sourceforge.net/DTD/sodipodi-0.dtd"
   xmlns:inkscape="http://www.inkscape.org/namespaces/inkscape"
   width="18.115845"
   height="8.640625"
   id="svg2441"
   sodipodi:version="0.32"
   inkscape:version="0.46"
   sodipodi:docname="I86B.svg"
   inkscape:output_extension="org.inkscape.output.svg.inkscape">
  <metadata
     id="metadata2448">
    <rdf:RDF>
      <cc:Work
         rdf:about="">
        <dc:format>image/svg+xml</dc:format>
        <dc:type
           rdf:resource="http://purl.org/dc/dcmitype/StillImage" />
      </cc:Work>
    </rdf:RDF>
  </metadata>
  <defs
     id="defs2446">
    <inkscape:perspective
       sodipodi:type="inkscape:persp3d"
       inkscape:vp_x="0 : 4.3203125 : 1"
       inkscape:vp_y="0 : 1000 : 0"
       inkscape:vp_z="18.115845 : 4.3203125 : 1"
       inkscape:persp3d-origin="9.0579224 : 2.8802083 : 1"
       id="perspective2450" />
  </defs>
  <sodipodi:namedview
     inkscape:window-height="708"
     inkscape:window-width="1024"
     inkscape:pageshadow="2"
     inkscape:pageopacity="0.0"
     guidetolerance="10.0"
     gridtolerance="10.0"
     objecttolerance="10.0"
     borderopacity="1.0"
     bordercolor="#666666"
     pagecolor="#ffffff"
     id="base"
     showgrid="false"
     inkscape:zoom="60.057923"
     inkscape:cx="10.385573"
     inkscape:cy="2.2842483"
     inkscape:window-x="-4"
     inkscape:window-y="-4"
     inkscape:current-layer="svg2441" />
  <path
     style="fill:#000000; stroke:none"
     d="M 1.015625,5.71875 C 1.171875,5.7291667 1.25,5.8020833 1.25,5.9375 C 1.25,6.1041667 1.125,6.1927083 0.875,6.203125 C 0.69791667,6.203125 0.609375,6.1458333 0.609375,6.03125 C 0.65104167,5.8333333 0.78645833,5.7291667 1.015625,5.71875 z M 10.203125,8.640625 C 10.338542,8.1510417 10.606771,7.8645833 11.007812,7.78125 C 11.408854,7.6979167 12.427083,7.653646 14.0625,7.648438 C 15.697917,7.6432293 16.705729,6.5208333 17.085938,4.28125 C 17.466146,2.0416667 17.026042,0.921875 15.765625,0.921875 C 15.296875,0.921875 15.216146,1.9296873 15.523438,3.945312 C 15.830729,5.9609373 15.307292,6.96875 13.953125,6.96875 C 12.598958,6.96875 12.158854,5.9635417 12.632812,3.953125 C 13.106771,1.9427083 12.911458,0.9375 12.046875,0.9375 C 11.182292,0.9375 10.953125,1.9427083 11.359375,3.953125 C 11.765625,5.9635417 11.23956,6.9629503 9.78125,6.945312 C 8.5060732,6.9296873 7.9087737,5.7361142 8.289062,3.914062 C 8.7095536,1.8993866 8.4947917,0.90625 7.515625,0.90625 C 6.5364583,0.90625 6.2717722,1.1727498 6.685625,3.921875 C 6.9740861,5.8264472 6.2304334,6.9208494 4.421875,6.9375 L 1.96875,6.921875 C 1.0729167,6.9322917 0.52343733,6.872396 0.320312,6.742188 C 0.11718733,6.6119793 0.010416667,6.4114583 0,6.140625 C 0.010416667,5.640625 0.328125,5.3489583 0.953125,5.265625 C 1.734375,5.265625 2.296875,5.3802083 2.640625,5.609375 C 3.0052083,5.859375 3.5989583,5.9635417 4.421875,5.921875 C 5.703125,5.921875 6.09375,4.9375 5.59375,2.96875 C 5.09375,1 5.7057293,0.015625 7.429688,0.015625 C 9.153646,0.015625 9.809896,1.0104167 9.398438,3 C 8.9869793,4.9895833 9.1328127,5.9869793 9.835938,5.992188 C 10.539063,5.997396 10.697917,5.002604 10.3125,3.007812 C 9.9270833,1.0130207 10.507813,0.015625 12.054688,0.015625 C 13.601563,0.015625 14.143229,1.015625 13.679688,3.015625 C 13.216146,5.015625 13.307292,6.015625 13.953125,6.015625 C 14.598958,6.015625 14.776042,5.0130207 14.484375,3.007812 C 14.192708,1.002604 14.619792,0 15.765625,0 C 17.703125,0 18.442708,1.4166667 17.984375,4.25 C 17.526042,7.0833333 16.341146,8.5 14.429688,8.5 C 12.518229,8.5 11.109375,8.546875 10.203125,8.640625 z M 3.521875,6.296875 C 2.7168434,6.1883858 2.019198,5.8036428 1.203125,5.625 C 0.63020833,5.6458333 0.34375,5.8125 0.34375,6.125 C 0.35416667,6.4375 0.64583333,6.5885417 1.21875,6.578125 L 3.521875,6.5625 C 4.4026732,6.5075357 4.1578956,6.2921563 3.521875,6.296875 z"
     id="path2443"
     sodipodi:nodetypes="csssccsssssssssssssccsscscsssssssssssscccsccc" />
</svg>
