<?xml version="1.0" encoding="UTF-8" standalone="no"?>
<svg
   xmlns:dc="http://purl.org/dc/elements/1.1/"
   xmlns:cc="http://creativecommons.org/ns#"
   xmlns:rdf="http://www.w3.org/1999/02/22-rdf-syntax-ns#"
   xmlns:svg="http://www.w3.org/2000/svg"
   xmlns="http://www.w3.org/2000/svg"
   xmlns:sodipodi="http://sodipodi.sourceforge.net/DTD/sodipodi-0.dtd"
   xmlns:inkscape="http://www.inkscape.org/namespaces/inkscape"
   width="17.36499"
   height="8.793457"
   id="svg2452"
   sodipodi:version="0.32"
   inkscape:version="0.46"
   sodipodi:docname="I86C.svg"
   inkscape:output_extension="org.inkscape.output.svg.inkscape">
  <metadata
     id="metadata2459">
    <rdf:RDF>
      <cc:Work
         rdf:about="">
        <dc:format>image/svg+xml</dc:format>
        <dc:type
           rdf:resource="http://purl.org/dc/dcmitype/StillImage" />
      </cc:Work>
    </rdf:RDF>
  </metadata>
  <defs
     id="defs2457">
    <inkscape:perspective
       sodipodi:type="inkscape:persp3d"
       inkscape:vp_x="0 : 4.3967285 : 1"
       inkscape:vp_y="0 : 1000 : 0"
       inkscape:vp_z="17.36499 : 4.3967285 : 1"
       inkscape:persp3d-origin="8.6824951 : 2.9311523 : 1"
       id="perspective2461" />
  </defs>
  <sodipodi:namedview
     inkscape:window-height="708"
     inkscape:window-width="1024"
     inkscape:pageshadow="2"
     inkscape:pageopacity="0.0"
     guidetolerance="10.0"
     gridtolerance="10.0"
     objecttolerance="10.0"
     borderopacity="1.0"
     bordercolor="#666666"
     pagecolor="#ffffff"
     id="base"
     showgrid="false"
     inkscape:zoom="88.607269"
     inkscape:cx="5.69331"
     inkscape:cy="1.6881471"
     inkscape:window-x="-4"
     inkscape:window-y="-4"
     inkscape:current-layer="svg2452" />
  <path
     style="fill:#000000; stroke:none"
     d="M 14.5625,0 C 13.416667,0 13.020833,0.99479198 13.3125,3 C 13.604167,5.0052087 13.395833,6 12.75,6 C 12.114583,6 12.041667,5 12.5,3 C 12.958333,1 12.416667,0.03125 10.875,0.03125 C 9.492938,0.03125 8.8672671,1.2019423 9.125,3 C 9.4125489,5.0060666 9.3645833,5.9895833 8.65625,6 C 7.9479167,6.0104167 7.75,5.0416667 8.0625,3.0625 C 8.375,1.0833333 7.2552087,0.0625 4.71875,0.03125 C 2.182292,0 0.94791665,0.97916667 0.9375,3 C 0.9375,4.478491 1.2609064,5.6482246 1.9375,6.5 C 1.2840586,6.9175901 0.63031076,7.3226707 0,7.75 C 0.052083333,7.9270833 0.14583333,8.0520833 0.28125,8.125 L 1.125,7.625 C 1.3020833,7.7083333 1.59375,7.96875 2,8.4375 C 2.5625,8.09375 2.96875,7.817708 3.25,7.59375 C 3.2586355,7.5868736 3.2724918,7.5695482 3.28125,7.5625 C 3.496881,7.671227 3.8434936,7.8255019 4.40625,8 C 5.0781253,8.2083333 5.7447913,8.375 6.375,8.5625 C 7.005208,8.75 7.4218753,8.8385408 7.65625,8.78125 C 7.8906253,8.723958 8.0416667,8.5729167 8.125,8.3125 C 8.2708333,7.8229167 8.0729167,7.4479167 7.5,7.1875 C 6.75,6.9479167 6.3576554,6.920143 5.9618221,7.045143 C 5.5520147,7.2150631 4.7526057,7.1512192 3.96875,6.9375 C 4.0880989,6.825271 4.1795582,6.7562589 4.3125,6.625 C 4.723958,6.21875 5.2916667,5.46875 6.03125,4.34375 C 6.125,4.1875 6.1510413,4.1041667 6.09375,4.0625 C 6.036458,4.0208333 5.9270833,4.0208333 5.8125,4.125 C 4.7495885,4.732378 3.7280192,5.3700358 2.71875,6 C 2.1711825,5.3573251 1.8722294,4.5074527 1.84375,3.40625 C 1.75,1.5833333 2.7083333,0.69270865 4.75,0.75 C 6.7916667,0.807292 7.5277508,1.8371814 7.125,3.875 C 6.7624295,5.7095164 7.597263,6.9270833 8.625,6.9375 C 10.067676,6.9516819 10.402224,5.783104 10.1875,3.9375 C 9.9510618,1.905261 10,0.9375 10.875,0.9375 C 11.739583,0.9375 11.916667,1.9270833 11.4375,3.9375 C 10.958333,5.9479167 11.421875,6.9739587 12.78125,6.96875 C 14.012941,6.9635413 14.496645,5.9212038 14.34375,3.9375 C 14.187003,1.9038255 14.09375,0.90625 14.5625,0.90625 C 15.822917,0.90625 16.453125,2.036458 16.4375,4.28125 C 16.421875,6.5260413 16.125,7.625 15.5625,7.625 C 15,7.625 14.526042,7.6666667 14.125,7.75 C 13.723959,7.8333333 13.447917,8.1354167 13.3125,8.625 C 14.21875,8.53125 15.09375,8.5 15.9375,8.5 C 16.78125,8.5 17.28125,7.0781247 17.375,4.25 C 17.46875,1.4218747 16.510417,0 14.5625,0 z M 5.03125,5.125 C 4.25,6.1145833 3.3020833,6.9895833 2.1875,7.75 C 1.96875,7.4895833 1.8125,7.3020833 1.6875,7.25 C 2.9791667,6.3958333 4.0833333,5.7083333 5.03125,5.125 z M 3.8316076,7.1675358 C 4.7419738,7.4554687 5.3459733,7.5330326 5.84375,7.4375 C 6.3593747,7.3385413 6.7916667,7.3333333 7.15625,7.4375 C 7.6979167,7.6354167 7.9166667,7.8958333 7.8125,8.1875 C 7.71875,8.4791667 7.3958333,8.5208333 6.84375,8.34375 C 5.9270833,8.0833333 5.2291667,7.8854167 4.75,7.75 C 4.3149195,7.6270425 4.0616074,7.503667 3.6866433,7.3463573 C 3.6453794,7.2586495 3.7569451,7.1466821 3.8316076,7.1675358 z M 7.125,7.59375 C 7.0729167,7.6171875 7.0260416,7.6822916 7,7.75 C 6.9583333,7.90625 7.0729167,8.0104167 7.3125,8.09375 C 7.4791667,8.1458333 7.5625,8.1145833 7.59375,8 C 7.6145833,7.8020833 7.5208333,7.6666667 7.3125,7.59375 C 7.234375,7.5729166 7.1770833,7.5703125 7.125,7.59375 z"
     id="path2454"
     sodipodi:nodetypes="cssssssssccccccsssssscccscscccsssssssssssscssccccccscscscccssssc" />
</svg>
