<?xml version="1.0" encoding="UTF-8" standalone="no"?>
<svg
   xmlns:dc="http://purl.org/dc/elements/1.1/"
   xmlns:cc="http://creativecommons.org/ns#"
   xmlns:rdf="http://www.w3.org/1999/02/22-rdf-syntax-ns#"
   xmlns:svg="http://www.w3.org/2000/svg"
   xmlns="http://www.w3.org/2000/svg"
   xmlns:sodipodi="http://sodipodi.sourceforge.net/DTD/sodipodi-0.dtd"
   xmlns:inkscape="http://www.inkscape.org/namespaces/inkscape"
   width="23.09375"
   height="12.050781"
   id="svg2441"
   sodipodi:version="0.32"
   inkscape:version="0.46"
   sodipodi:docname="I86H.svg"
   inkscape:output_extension="org.inkscape.output.svg.inkscape">
  <metadata
     id="metadata2448">
    <rdf:RDF>
      <cc:Work
         rdf:about="">
        <dc:format>image/svg+xml</dc:format>
        <dc:type
           rdf:resource="http://purl.org/dc/dcmitype/StillImage" />
      </cc:Work>
    </rdf:RDF>
  </metadata>
  <defs
     id="defs2446">
    <inkscape:perspective
       sodipodi:type="inkscape:persp3d"
       inkscape:vp_x="0 : 6.0253906 : 1"
       inkscape:vp_y="0 : 1000 : 0"
       inkscape:vp_z="23.09375 : 6.0253906 : 1"
       inkscape:persp3d-origin="11.546875 : 4.0169271 : 1"
       id="perspective2450" />
  </defs>
  <sodipodi:namedview
     inkscape:window-height="708"
     inkscape:window-width="1024"
     inkscape:pageshadow="2"
     inkscape:pageopacity="0.0"
     guidetolerance="10.0"
     gridtolerance="10.0"
     objecttolerance="10.0"
     borderopacity="1.0"
     bordercolor="#666666"
     pagecolor="#ffffff"
     id="base"
     showgrid="false"
     inkscape:zoom="33.313437"
     inkscape:cx="9.4294085"
     inkscape:cy="6.0253906"
     inkscape:window-x="-4"
     inkscape:window-y="-4"
     inkscape:current-layer="svg2441" />
  <path
     style="fill:#000000; stroke:none"
     d="M 1,10.816406 C 1.15625,10.826823 1.2395833,10.899739 1.25,11.035156 C 1.25,11.201823 1.125,11.290364 0.875,11.300781 C 0.69791667,11.311198 0.609375,11.253906 0.609375,11.128906 C 0.65104167,10.930989 0.78125,10.826823 1,10.816406 z M 1.328125,10.347656 C 1.7552083,9.253906 2.0208333,8.0768227 2.125,6.816406 C 1.84375,6.753906 1.6510417,6.6861977 1.546875,6.613281 C 1.4427083,8.0611977 1.3697917,9.3059893 1.328125,10.347656 z M 6.46875,5.128906 C 6.8958333,4.0247393 7.15625,2.8424477 7.25,1.582031 C 6.96875,1.519531 6.78125,1.4518227 6.6875,1.378906 C 6.5833333,2.8268227 6.5104167,4.0768227 6.46875,5.128906 z M 11.046875,5.113281 C 11.473958,4.019531 11.734375,2.8424477 11.828125,1.582031 C 11.546875,1.5091143 11.359375,1.4361977 11.265625,1.363281 C 11.161458,2.8216143 11.088542,4.0716143 11.046875,5.113281 z M 15.515625,5.113281 C 15.942708,4.019531 16.208333,2.8424477 16.3125,1.582031 C 16.020833,1.5091143 15.828125,1.4361977 15.734375,1.363281 C 15.630208,2.8216143 15.557292,4.0716143 15.515625,5.113281 z M 1.1875,10.722656 C 0.61458333,10.743489 0.33333333,10.910156 0.34375,11.222656 C 0.34375,11.535156 0.63541667,11.686198 1.21875,11.675781 L 1.96875,11.675781 C 4.502323,11.851224 2.0912816,10.920499 1.1875,10.722656 z M 19.8125,5.097656 C 20.239583,3.9934893 20.5,2.8111977 20.59375,1.550781 C 20.3125,1.488281 20.125,1.4205727 20.03125,1.347656 C 19.927083,2.8059893 19.854167,4.0559893 19.8125,5.097656 z M 17.109375,8.113281 C 16.692708,10.113281 16.851563,11.110677 17.585938,11.105469 C 18.320313,11.10026 18.536458,10.097656 18.234375,8.097656 C 17.942708,6.1809893 18.338542,5.1861977 19.421875,5.113281 C 19.432292,3.6236977 19.520833,1.9309893 19.6875,0.035156 C 19.833333,-0.027344 19.96875,-0.011719 20.09375,0.082031 L 20.046875,0.753906 C 20.192708,0.86848933 20.53125,0.98307267 21.0625,1.097656 C 21.03125,1.7122393 20.989583,2.188802 20.9375,2.527344 C 20.885417,2.8658853 20.794271,3.2929687 20.664062,3.808594 C 20.533854,4.3242187 20.375,4.7591143 20.1875,5.113281 C 21.395833,5.207031 21.802083,6.2018227 21.40625,8.097656 C 20.989583,10.097656 20.984375,11.097656 21.390625,11.097656 C 21.744792,11.128906 22.104167,11.183594 22.46875,11.261719 C 22.833333,11.339844 23.041667,11.582031 23.09375,11.988281 C 22.208333,11.988281 21.635417,11.988281 21.375,11.988281 C 20.260417,11.988281 19.921875,10.990885 20.359375,8.996094 C 20.796875,7.001302 20.614583,6.003906 19.8125,6.003906 C 19.125,6.003906 18.945313,7.0065103 19.273438,9.011719 C 19.601563,11.016927 19.041667,12.019531 17.59375,12.019531 C 16.265905,12.019531 15.638021,11.019531 16.070312,9.019531 C 16.502604,7.019531 16.317708,6.019531 15.515625,6.019531 C 14.828125,6.019531 14.648437,7.0221353 14.976562,9.027344 C 15.304687,11.032552 14.71875,12.035156 13.21875,12.035156 C 11.858423,12.035156 11.169271,11.035156 11.601562,9.035156 C 12.033854,7.035156 11.848958,6.035156 11.046875,6.035156 C 10.359375,6.035156 10.179687,7.0377603 10.507812,9.042969 C 10.835937,11.048177 10.302083,12.050781 8.90625,12.050781 C 7.515905,12.040364 6.8697917,10.882462 7.328125,9.027344 C 7.8214825,7.030464 7.5208333,6.019531 6.53125,6.019531 C 5.8020833,6.019531 5.6468477,7.0170454 5.976562,9.027344 C 6.2759015,10.852444 5.46847,12.035156 3.734375,12.035156 L 1.953125,12.035156 C 1.0677083,12.035156 0.52083333,11.970052 0.3125,11.839844 C 0.10416667,11.709635 0,11.514323 0,11.253906 C 0,10.743489 0.31770833,10.446614 0.953125,10.363281 C 0.96354167,8.8841143 1.0520833,7.191406 1.21875,5.285156 C 1.3541667,5.222656 1.484375,5.238281 1.609375,5.332031 L 1.5625,6.019531 C 1.7083333,6.1236977 2.046875,6.2330727 2.578125,6.347656 C 2.5572917,6.9622393 2.5208333,7.438802 2.46875,7.777344 C 2.4166667,8.1158853 2.3229167,8.5455727 2.1875,9.066406 C 2.0520833,9.5872393 1.8958333,10.019531 1.71875,10.363281 C 2.601544,10.479491 3.0810716,11.22328 3.7944108,11.155228 C 4.8881608,11.155228 5.1822917,10.050781 4.796875,8.082031 C 4.421875,6.1549477 5.2091733,5.2306085 6.078125,5.128906 C 6.0885417,3.6497393 6.1770833,1.957031 6.34375,0.050781 C 6.4895833,-0.0013023333 6.625,0.019531 6.75,0.113281 L 6.703125,0.785156 C 6.8489583,0.88932267 7.1875,0.99869767 7.71875,1.113281 C 7.6875,1.7278643 7.6458333,2.207031 7.59375,2.550781 C 7.5416667,2.894531 7.4505207,3.3242187 7.320312,3.839844 C 7.190104,4.3554687 7.03125,4.785156 6.84375,5.128906 C 8.1519937,5.2018227 8.8333333,6.191406 8.4375,8.097656 C 8.0208333,10.097656 8.1770833,11.097656 8.90625,11.097656 C 9.5833333,11.097656 9.7708333,10.102864 9.46875,8.113281 C 9.1770833,6.207031 9.5729167,5.2174477 10.65625,5.144531 C 10.677083,3.644531 10.765625,1.9466143 10.921875,0.050781 C 11.067708,-0.011719 11.203125,0.003906 11.328125,0.097656 L 11.28125,0.769531 C 11.427083,0.88411433 11.765625,0.99869767 12.296875,1.113281 C 12.276042,1.7278643 12.239583,2.204427 12.1875,2.542969 C 12.135417,2.8815103 12.041667,3.3085937 11.90625,3.824219 C 11.770833,4.3398437 11.609375,4.7799477 11.421875,5.144531 C 12.630208,5.238281 13.036458,6.2330727 12.640625,8.128906 C 12.223958,10.128906 12.411458,11.128906 13.203125,11.128906 C 14.005208,11.128906 14.25,10.123698 13.9375,8.113281 C 13.645833,6.1966143 14.041667,5.207031 15.125,5.144531 C 15.145833,3.644531 15.234375,1.9466143 15.390625,0.050781 C 15.536458,-0.011719 15.671875,0.003906 15.796875,0.097656 L 15.75,0.769531 C 15.895833,0.88411433 16.234375,0.99869767 16.765625,1.113281 C 16.744792,1.7278643 16.708333,2.204427 16.65625,2.542969 C 16.604167,2.8815103 16.510417,3.3085937 16.375,3.824219 C 16.239583,4.3398437 16.078125,4.7747393 15.890625,5.128906 C 17.098958,5.222656 17.505208,6.2174477 17.109375,8.113281 z"
     id="path2443"
     sodipodi:nodetypes="csssccccccccccccccccccsccccccccsscccccsscscscsssssssssssscsssccsscccccssccscccccsscssscccccsscssccccccsscc" />
</svg>
