<?xml version="1.0" encoding="UTF-8" standalone="no"?>
<svg
   xmlns:dc="http://purl.org/dc/elements/1.1/"
   xmlns:cc="http://creativecommons.org/ns#"
   xmlns:rdf="http://www.w3.org/1999/02/22-rdf-syntax-ns#"
   xmlns:svg="http://www.w3.org/2000/svg"
   xmlns="http://www.w3.org/2000/svg"
   xmlns:sodipodi="http://sodipodi.sourceforge.net/DTD/sodipodi-0.dtd"
   xmlns:inkscape="http://www.inkscape.org/namespaces/inkscape"
   width="17.90625"
   height="14.624512"
   id="svg2441"
   sodipodi:version="0.32"
   inkscape:version="0.46"
   sodipodi:docname="I87.svg"
   inkscape:output_extension="org.inkscape.output.svg.inkscape">
  <metadata
     id="metadata2448">
    <rdf:RDF>
      <cc:Work
         rdf:about="">
        <dc:format>image/svg+xml</dc:format>
        <dc:type
           rdf:resource="http://purl.org/dc/dcmitype/StillImage" />
      </cc:Work>
    </rdf:RDF>
  </metadata>
  <defs
     id="defs2446">
    <inkscape:perspective
       sodipodi:type="inkscape:persp3d"
       inkscape:vp_x="0 : 7.3122559 : 1"
       inkscape:vp_y="0 : 1000 : 0"
       inkscape:vp_z="17.90625 : 7.3122559 : 1"
       inkscape:persp3d-origin="8.953125 : 4.8748372 : 1"
       id="perspective2450" />
  </defs>
  <sodipodi:namedview
     inkscape:window-height="708"
     inkscape:window-width="1024"
     inkscape:pageshadow="2"
     inkscape:pageopacity="0.0"
     guidetolerance="10.0"
     gridtolerance="10.0"
     objecttolerance="10.0"
     borderopacity="1.0"
     bordercolor="#666666"
     pagecolor="#ffffff"
     id="base"
     showgrid="false"
     inkscape:zoom="42.96445"
     inkscape:cx="10.656905"
     inkscape:cy="4.5192491"
     inkscape:window-x="-4"
     inkscape:window-y="-4"
     inkscape:current-layer="svg2441" />
  <path
     style="fill:#000000; stroke:none"
     d="M 5.390625,13.414062 C 5.578125,13.486979 5.6614583,13.622396 5.640625,13.820312 C 5.609375,13.945312 5.5260417,13.981771 5.390625,13.929688 C 5.1822917,13.846355 5.0989583,13.721355 5.140625,13.554688 C 5.1822917,13.429688 5.265625,13.382813 5.390625,13.414062 z M 5,14.164062 C 5.4791667,14.351562 5.7552083,14.294271 5.828125,13.992188 C 5.9114583,13.700521 5.7239583,13.460938 5.265625,13.273438 C 4.877508,13.094695 1.7577555,13.299018 5,14.164062 z M 3.0625,4.304688 C 3.1979167,3.4609373 3.3541667,2.4505207 3.53125,1.273438 C 3.4270833,1.3046873 3.2447917,1.320312 2.984375,1.320312 C 2.8489583,2.3515627 2.875,3.3463547 3.0625,4.304688 z M 8.359375,5.289062 C 8.4947917,4.4453127 8.6510417,3.434896 8.828125,2.257812 C 8.7239583,2.2994787 8.5416667,2.315104 8.28125,2.304688 C 8.1458333,3.3359373 8.171875,4.3307287 8.359375,5.289062 z M 12.3125,6.054688 C 12.458333,5.2109373 12.614583,4.2005207 12.78125,3.023438 C 12.6875,3.0651047 12.505208,3.0807293 12.234375,3.070312 C 12.109375,4.1015627 12.135417,5.0963547 12.3125,6.054688 z M 13.640625,9.382812 C 13.276042,11.028645 13.364583,11.893229 13.90625,11.976562 C 14.447917,12.059895 14.606771,11.382812 14.382812,9.945312 C 14.158854,8.507812 14.688967,7.789062 15.484375,7.789062 C 15.203125,6.851562 15.049479,6.164062 15.023438,5.726562 C 14.997396,5.289062 14.992187,4.9322913 15.007812,4.65625 C 15.023437,4.3802087 15.078125,3.992188 15.171875,3.492188 C 15.661458,3.492188 15.979167,3.466146 16.125,3.414062 L 16.25,2.648438 C 16.364583,2.6067713 16.484375,2.617188 16.609375,2.679688 C 16.390625,4.377604 16.09375,6.0807287 15.71875,7.789062 C 16.5166,7.7994793 16.979167,8.5130213 16.6875,9.929688 C 16.385417,11.356771 16.380208,12.070312 16.671875,12.070312 C 16.921875,12.091145 17.179687,12.130208 17.445312,12.1875 C 17.710937,12.244792 17.864583,12.408855 17.90625,12.679688 C 17.260417,12.679688 16.84375,12.679688 16.65625,12.679688 C 15.854167,12.679688 15.609375,11.971355 15.921875,10.554688 C 16.234375,9.1380213 16.119792,8.429688 15.578125,8.429688 C 15.046875,8.429688 14.898622,9.1379907 15.132812,10.554688 C 15.343912,11.831705 14.852213,12.682292 13.867188,12.6875 C 12.975263,12.692576 12.48405,11.768879 12.8125,10.195312 C 13.161557,8.5230195 13.036458,7.585312 12.359375,7.585312 C 11.671875,7.585312 11.460937,8.5286453 11.726562,10.195312 C 11.992187,11.861979 11.303545,12.744466 10.289062,12.703125 C 9.2754074,12.661818 8.6328127,11.752605 8.992188,9.835938 C 9.3515627,7.9192713 9.1614583,6.780938 8.421875,6.780938 C 7.6822917,6.780938 7.5148535,7.911436 7.828125,9.828125 C 8.1253249,11.646483 7.5484994,12.695312 6.65625,12.695312 C 5.712567,12.705729 5.1302083,11.572917 5.328125,9.296875 C 5.5260417,7.020833 4.809896,5.880208 3.179688,5.875 C 1.5494793,5.869792 0.73958333,6.7578127 0.75,8.539062 C 0.76041667,10.414062 1.2421873,11.651041 2.195312,12.25 C 3.1484373,12.848959 3.5019493,13.067546 4.2101253,12.859213 C 4.8099009,12.804038 4.9270833,12.768229 5.5625,13.007812 C 6.0520833,13.268229 6.234375,13.638021 6.109375,14.117188 C 6.0364583,14.377604 5.8984373,14.539062 5.695312,14.601562 C 5.4921873,14.664062 5.125,14.598958 4.59375,14.40625 C 4.0625,14.213542 3.3984373,13.932292 2.601562,13.5625 C 1.8046873,13.192708 1.171875,12.710937 0.703125,12.117188 C 0.234375,11.523437 0,10.195312 0,8.132812 C 0,6.1432293 0.99479167,5.1432293 2.984375,5.132812 C 2.703125,4.2161453 2.5494793,3.539062 2.523438,3.101562 C 2.497396,2.664062 2.4921873,2.3072913 2.507812,2.03125 C 2.5234373,1.7552087 2.5729167,1.367188 2.65625,0.867188 C 3.15625,0.867188 3.4791667,0.841146 3.625,0.789062 L 3.75,0.023438 C 3.8541667,-0.018228667 3.9739583,-0.007812 4.109375,0.054688 C 3.890625,1.752604 3.59375,3.445312 3.21875,5.132812 C 5.2604167,5.132812 6.2109373,6.2369787 6.070312,8.445312 C 5.9296873,10.653645 6.1197917,11.852604 6.640625,11.842188 C 7.171875,11.842188 7.3095659,10.788255 6.953125,8.898438 C 6.6302083,7.1863634 7.3056673,6.0703127 8.28125,6.039062 C 8,5.1744793 7.846354,4.523438 7.820312,4.085938 C 7.7942707,3.648438 7.7890627,3.291667 7.804688,3.015625 C 7.8203127,2.739583 7.8697917,2.351562 7.953125,1.851562 C 8.453125,1.8619793 8.7760417,1.835938 8.921875,1.773438 L 9.046875,1.023438 C 9.1614583,0.971354 9.28125,0.98177067 9.40625,1.054688 C 9.1875,2.742188 8.890625,4.403646 8.515625,6.039062 C 9.6492497,6.039062 10.187662,7.2327503 9.851562,8.921875 C 9.4700016,10.839469 9.6484373,11.917292 10.320312,11.9225 C 10.992187,11.927708 11.219307,10.995935 10.929688,9.359375 C 10.664063,7.8584006 11.285158,6.898438 12.234375,6.898438 C 11.953125,5.971354 11.799479,5.289062 11.773438,4.851562 C 11.747396,4.414062 11.742187,4.0572913 11.757812,3.78125 C 11.773437,3.5052087 11.828125,3.117188 11.921875,2.617188 C 12.411458,2.627604 12.729167,2.601562 12.875,2.539062 L 13,1.789062 C 13.114583,1.7369793 13.239583,1.747396 13.375,1.820312 C 13.145833,3.507812 12.84375,5.2005207 12.46875,6.898438 C 13.428383,6.9321291 13.935383,7.853354 13.640625,9.382812 z M 15.5625,6.929688 C 15.708333,6.0859373 15.864583,5.0755207 16.03125,3.898438 C 15.9375,3.9296873 15.755208,3.945312 15.484375,3.945312 C 15.348958,4.9765627 15.375,5.9713547 15.5625,6.929688 z"
     id="path2443"
     sodipodi:nodetypes="csssccscccccccccccccccsscssccccccsscsssssssssssscssssccsssssscsscccccssscsscccccssscsscccccccccc" />
</svg>
