<?xml version="1.0" encoding="UTF-8" standalone="no"?>
<svg
   xmlns:dc="http://purl.org/dc/elements/1.1/"
   xmlns:cc="http://creativecommons.org/ns#"
   xmlns:rdf="http://www.w3.org/1999/02/22-rdf-syntax-ns#"
   xmlns:svg="http://www.w3.org/2000/svg"
   xmlns="http://www.w3.org/2000/svg"
   xmlns:sodipodi="http://sodipodi.sourceforge.net/DTD/sodipodi-0.dtd"
   xmlns:inkscape="http://www.inkscape.org/namespaces/inkscape"
   width="25.79"
   height="13.51"
   id="svg2"
   version="1.1"
   inkscape:version="0.47pre3 r22311"
   sodipodi:docname="K12.svg">
  <metadata
     id="metadata10">
    <rdf:RDF>
      <cc:Work
         rdf:about="">
        <dc:format>image/svg+xml</dc:format>
        <dc:type
           rdf:resource="http://purl.org/dc/dcmitype/StillImage" />
        <dc:title></dc:title>
        <dc:creator>
          <cc:Agent>
            <dc:title>S. Thomas</dc:title>
          </cc:Agent>
        </dc:creator>
        <dc:description>Sign from the Mastaba of Akhethetep, Louvre Museum.
</dc:description>
      </cc:Work>
    </rdf:RDF>
  </metadata>
  <defs
     id="defs8">
    <inkscape:perspective
       sodipodi:type="inkscape:persp3d"
       inkscape:vp_x="0 : 6.7550001 : 1"
       inkscape:vp_y="0 : 1000 : 0"
       inkscape:vp_z="25.790001 : 6.7550001 : 1"
       inkscape:persp3d-origin="12.895 : 4.5033334 : 1"
       id="perspective12" />
  </defs>
  <sodipodi:namedview
     pagecolor="#ffffff"
     bordercolor="#666666"
     borderopacity="1"
     objecttolerance="10"
     gridtolerance="10"
     guidetolerance="10"
     inkscape:pageopacity="0"
     inkscape:pageshadow="2"
     inkscape:window-width="1021"
     inkscape:window-height="484"
     id="namedview6"
     showgrid="false"
     inkscape:zoom="17.468542"
     inkscape:cx="12.895"
     inkscape:cy="6.7550001"
     inkscape:window-x="1508"
     inkscape:window-y="132"
     inkscape:window-maximized="0"
     inkscape:current-layer="svg2" />
  <path
     style="fill:#000000; stroke:none"
     d=" M 15.26 0.62  L 14.45 2.31  C 14.03 2.71 13.63 2.91 13.23 2.91  L 15.26 0.62  Z  M 8.26 4.97  C 8.34 4.97 8.42 5.03 8.48 5.09  C 8.53 5.15 8.54 5.23 8.54 5.31  C 8.54 5.39 8.53 5.44 8.48 5.5  C 8.42 5.56 8.34 5.59 8.26 5.59  C 8.17 5.59 8.07 5.56 8.01 5.5  C 7.95 5.44 7.95 5.39 7.95 5.31  C 7.95 5.23 7.95 5.15 8.01 5.09  C 8.07 5.03 8.17 4.97 8.26 4.97  Z  M 8.26 4.72  C 8.1 4.72 7.97 4.77 7.85 4.88  C 7.74 4.99 7.67 5.13 7.67 5.28  C 7.67 5.44 7.74 5.58 7.85 5.69  C 7.97 5.79 8.1 5.84 8.26 5.84  C 8.41 5.84 8.55 5.79 8.67 5.69  C 8.77 5.58 8.82 5.44 8.82 5.28  C 8.82 5.13 8.77 4.99 8.67 4.88  C 8.55 4.77 8.41 4.72 8.26 4.72  Z  M 8.54 4.59  C 8.53 4.59 8.55 4.62 8.54 4.62  C 8.59 4.64 8.65 4.7 8.7 4.75  C 8.75 4.8 8.8 4.85 8.85 4.91  C 8.91 4.97 8.95 5.03 8.98 5.09  C 9.01 5.16 9.01 5.25 9.01 5.31  C 9.01 5.41 8.99 5.48 8.95 5.56  C 8.91 5.65 8.86 5.72 8.79 5.78  C 8.79 5.79 8.79 5.81 8.79 5.81  C 8.79 5.84 8.8 5.84 8.82 5.84  C 8.83 5.84 8.84 5.85 8.85 5.85  C 8.85 5.85 8.85 5.85 8.85 5.84  C 8.91 5.8 8.93 5.71 8.98 5.62  C 9.03 5.55 9.08 5.48 9.1 5.41  C 9.1 5.38 9.1 5.36 9.1 5.34  C 9.1 5.32 9.1 5.3 9.1 5.28  C 9.1 5.21 9.07 5.14 9.04 5.06  C 9.01 4.99 8.97 4.91 8.92 4.84  C 8.86 4.78 8.82 4.73 8.76 4.69  C 8.69 4.64 8.61 4.61 8.54 4.59  Z  M 7.48 5.34  C 7.47 5.34 7.45 5.36 7.45 5.38  L 7.48 5.44  C 7.49 5.62 7.55 5.76 7.67 5.88  C 7.78 5.99 7.95 6.06 8.14 6.06  L 8.17 6.06  C 8.18 6.06 8.2 6.06 8.21 6.06  C 8.22 6.06 8.22 6.06 8.22 6.06  L 8.22 6.06  C 8.22 6.05 8.23 6.04 8.23 6.03  C 8.23 6.01 8.19 6.01 8.17 6  C 7.76 5.97 7.54 5.77 7.51 5.38  C 7.5 5.36 7.5 5.34 7.48 5.34  Z  M 8.22 6.06  C 8.22 6.06 8.22 6.06 8.22 6.06  C 8.22 6.06 8.23 6.06 8.23 6.06  C 8.24 6.06 8.23 6.06 8.22 6.06  C 8.22 6.06 8.22 6.06 8.22 6.06  Z  M 17.26 1.97  C 17.94 1.97 18.47 2.08 18.85 2.31  C 19.23 2.55 19.55 3.15 19.76 4.09  C 19.97 5.04 20.41 5.5 21.07 5.5  C 21.31 5.5 21.54 5.48 21.76 5.44  C 22.21 5.46 22.45 5.74 22.45 6.25  C 22.45 6.72 22.23 6.94 21.82 6.94  C 21.42 6.94 21.04 6.98 20.7 7.06  C 20.36 7.14 19.88 7.44 19.29 7.94  C 18.7 8.44 17.88 8.69 16.82 8.69  C 14.68 8.69 13.02 8.43 11.82 7.88  C 11.84 7.72 12.14 7.54 12.7 7.34  C 13.25 7.14 13.51 6.8 13.51 6.38  C 13.51 5.97 13.26 5.64 12.73 5.38  C 12.2 5.11 11.92 4.86 11.92 4.62  C 11.92 4.4 12.18 4.01 12.7 3.5  C 13.5 3.5 14.25 3.24 14.95 2.72  C 15.65 2.21 16.41 1.97 17.26 1.97  Z  M 24.73 3.28  C 24.78 3.57 24.71 3.86 24.57 4.12  C 24.27 4.7 23.82 5.4 23.23 6.25  C 24.56 7.78 25.29 8.72 25.39 9.09  C 24.35 8.76 23.21 8.19 21.98 7.34  C 22.57 7.27 22.85 6.9 22.85 6.25  C 22.85 5.6 22.56 5.18 22.01 5.03  C 22.82 4.58 23.75 4.01 24.73 3.28  Z  M 20.23 7.91  C 20.67 8.19 21.12 8.55 21.6 9  C 22.15 9.61 22.46 10.09 22.48 10.44  C 21.3 10.28 20.13 9.76 18.98 8.84  C 19.37 8.61 19.77 8.29 20.23 7.91  Z  M 15.2 9.19  L 16.32 9.22  C 16.58 9.45 16.8 10.04 17.01 10.97  C 16.4 10.53 15.8 9.93 15.2 9.19  Z  M 14.98 0.59  L 15.04 0.62  L 12.67 2.94  C 11.86 3.61 11.45 4.18 11.45 4.62  C 11.45 5.07 11.7 5.41 12.23 5.66  C 12.76 5.9 13.04 6.14 13.04 6.38  C 13.04 6.56 12.72 6.77 12.1 7  C 11.48 7.23 11.19 7.61 11.2 8.12  L 11.23 8.12  C 11.92 9.52 12.45 10.57 12.89 11.25  C 13.08 11.55 13.21 11.76 13.32 11.91  C 12.52 11.06 11.75 9.84 10.98 8.25  C 8.76 7.8 7.17 7.36 6.26 6.88  C 6.07 6.8 5.98 6.66 5.98 6.47  C 5.98 6.28 6.31 5.88 6.95 5.28  C 7.57 4.69 8.04 4.37 8.39 4.37  C 8.4 4.37 8.41 4.37 8.42 4.38  C 9.51 4.38 10.39 4.2 11.04 3.84  C 11.68 3.48 12.99 2.41 14.98 0.59  Z  M 11.6 8.38  C 12.22 8.64 12.83 8.82 13.42 8.94  C 13.42 10.52 13.45 11.51 13.54 12  C 13.49 11.85 13.37 11.59 13.04 11.12  C 12.63 10.53 12.14 9.61 11.6 8.38  Z  M 15.39 0  C 14.73 0.35 13.95 0.93 13.04 1.78  C 12.12 2.63 11.25 3.21 10.45 3.5  C 9.64 3.79 8.96 3.94 8.42 3.94  C 7.86 3.94 6.96 4.6 5.73 5.94  L 5.7 5.84  C 5.5 5.51 5.1 5.31 4.92 5.06  C 4.74 4.82 4.56 4.58 4.76 4.09  C 5.05 3.25 4.91 2.66 4.7 2.16  C 4.49 1.65 4.21 1.22 4.26 0.38  C 4.3 0.22 4.19 0.06 4.07 0.03  C 4.06 0.03 4.04 0.03 4.02 0.03  C 3.92 0.03 3.84 0.11 3.82 0.31  C 3.76 1.27 4.06 1.89 4.26 2.38  C 4.45 2.84 4.48 3.19 4.26 3.88  C 4.25 3.89 4.27 3.89 4.26 3.91  C 4.04 4.51 4.14 5.07 4.39 5.41  C 4.55 5.63 4.73 5.8 4.89 5.94  C 4.53 5.72 4.22 5.52 3.98 5.28  C 3.66 4.96 3.46 4.58 3.39 3.84  C 3.35 2.9 2.82 2.27 2.23 1.84  C 2.12 1.77 2.04 1.75 1.98 1.75  C 1.79 1.75 1.82 2.04 2.04 2.25  C 2.55 2.61 2.88 3.09 2.92 3.88  C 3 4.7 3.24 5.23 3.64 5.62  C 3.94 5.93 4.32 6.15 4.7 6.38  C 4.63 6.38 4.57 6.38 4.5 6.38  C 3.72 6.38 3.15 6.24 2.73 6.03  C 2.23 5.78 1.9 5.42 1.67 5.03  C 1.43 4.64 1.31 4.22 1.14 3.84  C 0.96 3.46 0.74 3.07 0.32 2.94  C 0.26 2.9 0.2 2.89 0.15 2.89  C -0.07 2.89 -0.06 3.21 0.23 3.38  C 0.43 3.44 0.57 3.63 0.73 3.97  C 0.89 4.31 1.03 4.77 1.29 5.22  C 1.56 5.67 1.88 6.2 2.48 6.5  C 2.93 6.73 3.5 6.87 4.23 6.91  C 3.3 7.47 2.74 8.32 2.35 9.22  C 1.86 10.37 1.75 11.74 1.67 13.06  C 1.65 13.36 1.76 13.51 1.87 13.51  C 1.98 13.51 2.09 13.38 2.1 13.12  C 2.18 11.81 2.41 10.49 2.85 9.44  C 3.23 8.55 3.82 7.87 4.79 7.41  L 4.79 7.41  C 4.31 7.99 3.97 8.57 3.79 9.28  C 3.54 10.27 3.54 11.39 3.85 12.81  C 3.91 13.04 4.06 13.14 4.19 13.14  C 4.35 13.14 4.47 12.98 4.32 12.72  C 4.02 11.34 4.03 10.28 4.26 9.41  C 4.46 8.63 4.99 8.09 5.64 7.47  C 6.18 8.95 7.71 10.23 8.7 11.12  C 8.84 11.26 8.96 11.32 9.05 11.32  C 9.18 11.32 9.21 11.16 9.01 10.91  C 8.02 10.01 6.65 8.64 6.17 7.34  L 6.2 7.34  C 7 7.74 8.5 8.23 10.7 8.81  C 11.63 10.57 12.6 11.88 13.6 12.75  C 13.75 12.89 13.86 12.96 13.93 12.96  C 14.04 12.96 14.08 12.81 14.04 12.5  C 13.93 11.91 13.89 10.74 13.95 9.03  L 13.95 9.03  L 14.64 9.12  C 15.47 10.23 16.43 11.16 17.54 11.91  L 17.42 10.84  C 17.28 10.14 17.07 9.6 16.82 9.25  C 17.56 9.25 18.13 9.18 18.54 9.03  C 19.57 9.82 20.38 10.34 20.98 10.56  C 21.53 10.75 22.21 10.87 22.95 10.94  C 22.95 9.78 22.18 8.69 20.67 7.66  C 20.98 7.57 21.22 7.53 21.39 7.53  C 23.68 8.9 25.1 9.61 25.67 9.69  C 25.75 9.53 25.79 9.38 25.79 9.25  C 25.79 8.68 25.11 7.7 23.73 6.25  C 24.66 4.94 25.14 4.02 25.14 3.47  C 25.14 3.23 25.04 2.98 24.85 2.72  C 22.81 4.21 21.53 4.94 21.04 4.94  C 20.65 4.94 20.33 4.37 20.07 3.19  C 19.81 2.01 18.88 1.41 17.29 1.41  C 16.44 1.41 15.71 1.6 15.07 1.97  C 15.39 1.36 15.58 0.89 15.6 0.59  C 15.63 0.3 15.55 0.11 15.39 0  Z "
     id="path4" />
</svg>
