<?xml version="1.0" encoding ="US-ASCII" standalone="yes"?>
<svg width="19.299889" height="7.44">
<path style="fill:#000000; stroke:none" d=" M 11.35192 0.912342  C 11.871757 0.935971 14.801433 1.597478 15.10861 1.691993  C 15.179495 1.833766 15.21494 1.975539 15.21494 2.117312  C 15.21494 2.117312 11.529137 1.325846 11.174705 1.231331  C 11.221965 1.089558 11.281036 0.983228 11.35192 0.912342  Z  M 4.094229 2.374638  C 4.066222 2.374638 4.036983 2.377352 4.006594 2.383087  C 3.470644 2.55108 3.565715 3.235118 3.999895 3.235118  C 4.077485 3.235118 4.165904 3.213274 4.263483 3.162737  C 4.656437 2.979895 4.512557 2.374638 4.094229 2.374638  Z  M 17.740574 1.984424  C 19.272526 2.102569 19.18145 3.670856 17.829733 4.004589  C 17.81786 4.004861 17.806099 4.005001 17.794439 4.005001  C 17.289118 4.005001 16.979927 3.746217 17.164497 3.030244  C 17.046362 2.345009 17.14986 2.173455 17.740574 1.984424  Z  M 4.480014 4.04274  C 4.456104 4.04274 4.43112 4.044855 4.405061 4.049311  C 3.72536 4.242297 3.877829 4.892629 4.347629 4.892629  C 4.438781 4.892629 4.541881 4.868145 4.653162 4.811092  C 4.660909 4.811893 4.668457 4.812287 4.675807 4.812287  C 5.001204 4.812287 4.935941 4.04274 4.480014 4.04274  Z  M 4.227743 1.683207  C 5.361926 2.108525 5.704642 2.991676 5.468355 4.385773  C 5.385102 5.234951 5.045173 5.482975 4.476447 5.482975  C 4.238095 5.482975 3.959557 5.439412 3.642884 5.378277  L 2.358239 5.369493  C 1.753269 4.745865 1.440433 3.644198 2.216467 2.462858  C 2.216467 2.462858 3.896943 1.777721 4.227743 1.683207  Z  M 9.079118 1.309492  C 9.10993 1.309492 9.140903 1.310001 9.172016 1.311004  C 9.597333 1.334633 14.848988 2.365512 15.321562 2.578171  C 15.321562 2.578171 15.6758 2.721293 16.0438 2.721293  C 16.162884 2.721293 16.283415 2.706306 16.393833 2.666632  C 16.393833 2.666632 17.093319 2.998026 16.464531 3.553007  L 15.791112 3.473334  C 15.642188 3.457135 15.479523 3.449521 15.31609 3.449521  C 14.84663 3.449521 14.370873 3.512348 14.196568 3.615007  L 8.835458 5.484511  C 7.373006 5.159764 7.443989 4.684061 9.367106 3.499695  C 9.343472 2.820514 8.729125 2.554542 7.524063 2.223741  C 7.772937 1.567611 8.38455 1.309492 9.079118 1.309492  Z  M 14.825849 3.951539  C 15.120159 3.951539 15.317439 4.022045 15.214836 4.315184  L 11.644252 5.493496  C 10.5337 5.351723 10.631247 5.212778 12.096231 4.811092  C 12.096231 4.811092 13.962908 4.066787 14.222827 3.995899  C 14.429177 3.977955 14.645692 3.951539 14.825849 3.951539  Z  M 9.358217 0.434007  C 9.381841 0.504893 9.367106 0.723312 9.367106 0.770569  C 8.209295 0.841456 6.877691 1.299288 6.753295 2.489317  C 6.753295 2.489317 8.495965 2.77023 8.755877 3.384578  L 7.027855 4.562992  C 6.909712 5.13008 7.057442 5.48744 7.577277 5.581955  C 7.941386 5.794353 8.332258 5.893522 8.721787 5.893522  C 8.938934 5.893522 9.155665 5.862704 9.367106 5.8035  C 9.414355 5.850758 9.43799 5.898015 9.43799 5.945275  C 9.137455 6.011245 8.712399 6.046197 8.251195 6.046197  C 7.225705 6.046197 6.0215 5.873387 5.610127 5.484511  C 5.610127 5.484511 6.78423 2.828317 4.981232 1.567991  C 6.005665 0.859719 9.003788 0.457635 9.358217 0.434007  Z  M 9.748189 0  C 9.748189 0 6.220363 0.254551 4.54683 1.054213  C 4.54683 1.054213 2.7156 1.857494 2.172139 1.904751  C 1.605047 1.644834 1.643026 2.104807 0.931627 0.735126  C 0.872457 0.460565 0.600825 0.510653 0.435423 0.487024  L 0.435423 0.487024  C 0.364536 0.865085 0.621327 1.620811 0.833986 1.904356  L 0.833986 1.904356  C 0.522439 1.704414 0.314631 1.623719 0.190892 1.623719  C -0.085268 1.623719 0.057313 2.025654 0.39998 2.400956  L 0.931234 2.728731  C 0.695928 2.668931 0.511398 2.64357 0.371118 2.64357  C -0.291182 2.64357 0.032907 3.208891 0.656869 3.384381  C -0.045743 3.83606 -0.028169 3.735982 0.019088 4.066785  C 0.113023 4.22553 0.322698 4.256388 0.514699 4.256388  C 0.636828 4.256388 0.751806 4.243904 0.825298 4.243904  C 0.565381 4.456563 -0.080989 4.465642 0.214075 4.908535  C 0.222461 5.049123 0.282152 5.098974 0.364529 5.098974  C 0.54498 5.098974 0.83429 4.859759 0.931627 4.811092  L 0.931627 4.811092  C 0.881244 5.233282 0.022411 5.322038 0.267289 5.635069  C 0.312975 5.794019 0.416152 5.856363 0.549411 5.856363  C 0.718045 5.856363 0.934852 5.756526 1.144287 5.626285  L 1.144287 5.626285  C 0.978885 6.169747 0.907999 6.642324 0.931627 7.044013  C 1.136954 7.308003 1.310419 7.44 1.452024 7.44  C 1.538559 7.44 1.613196 7.390704 1.675935 7.292119  C 1.814778 5.84549 2.110236 6.38504 2.80133 5.962846  C 3.061246 5.962846 4.94648 6.030805 5.371799 6.078063  C 6.095068 6.448524 7.139783 6.601009 8.134813 6.601009  C 8.95614 6.601009 9.743613 6.497117 10.288526 6.326163  C 10.217639 6.066247 10.00508 5.7208 9.863307 5.555394  L 9.863307 5.555394  C 10.264994 5.626285 10.914491 5.968704 11.174409 6.157735  C 11.174409 6.157735 15.448392 4.754848 15.755569 4.589451  L 15.711441 3.88957  L 16.065872 3.818684  C 16.700228 4.218144 17.379732 4.533882 17.955034 4.533882  C 18.617479 4.533882 19.141745 4.115262 19.299889 2.923815  C 19.228998 2.427612 19.093081 1.907877 18.467203 1.603632  C 18.220634 1.516814 18.011908 1.481068 17.830591 1.481068  C 17.093473 1.481068 16.809519 2.071869 16.278524 2.223741  L 15.817768 2.223741  C 15.58148 2.011081 15.463337 1.656747 15.463337 1.373201  C 15.463337 1.373201 11.431597 0.439865 11.148048 0.416236  L 10.474427 1.169133  L 9.748189 0  Z "/></svg>
