<?xml version="1.0" encoding="UTF-8" standalone="no"?>
<svg
   xmlns:dc="http://purl.org/dc/elements/1.1/"
   xmlns:cc="http://web.resource.org/cc/"
   xmlns:rdf="http://www.w3.org/1999/02/22-rdf-syntax-ns#"
   xmlns:svg="http://www.w3.org/2000/svg"
   xmlns="http://www.w3.org/2000/svg"
   xmlns:sodipodi="http://sodipodi.sourceforge.net/DTD/sodipodi-0.dtd"
   xmlns:inkscape="http://www.inkscape.org/namespaces/inkscape"
   width="18.178762"
   height="9.36"
   id="svg1881"
   sodipodi:version="0.32"
   inkscape:version="0.44"
   sodipodi:docname="K5.svg"
   sodipodi:docbase="C:\Program Files\JSesh\fontsST">
  <metadata
     id="metadata1888">
    <rdf:RDF>
      <cc:Work
         rdf:about="">
        <dc:format>image/svg+xml</dc:format>
        <dc:type
           rdf:resource="http://purl.org/dc/dcmitype/StillImage" />
      </cc:Work>
    </rdf:RDF>
  </metadata>
  <defs
     id="defs1886" />
  <sodipodi:namedview
     inkscape:window-height="480"
     inkscape:window-width="640"
     inkscape:pageshadow="2"
     inkscape:pageopacity="0.0"
     guidetolerance="10.0"
     gridtolerance="10.0"
     objecttolerance="10.0"
     borderopacity="1.0"
     bordercolor="#666666"
     pagecolor="#ffffff"
     id="base" />
  <path
     style="fill:#000000; stroke:none"
     d="M 8.039818,0.512049 C 9.898776,1.1891099 11.077233,1.4172921 12.947838,1.16529 C 13.620138,1.16529 14.166492,1.345795 14.440983,1.591362 C 14.535882,1.676243 14.591627,1.761745 14.59909,1.847542 C 14.605782,1.924512 14.572198,2.008613 14.477636,2.106772 C 14.225833,2.368124 13.642347,2.623208 12.607815,2.789927 L 12.377503,2.789927 C 10.273931,2.141016 8.40766,1.704467 6.325988,1.704467 C 6.186731,1.704467 6.04651,1.70642 5.90519,1.710395 L 5.90519,1.710395 C 6.458011,0.851049 7.209007,0.517401 8.020088,0.512113 C 8.026661,0.51207 8.033237,0.512049 8.039818,0.512049 z M 2.812737,3.127987 C 2.532578,3.127987 2.32708,3.266805 2.26394,3.447952 C 2.198256,3.636387 2.288517,3.8593 2.570261,3.99981 L 2.588574,4.008993 L 2.609189,4.009847 C 2.621821,4.010369 2.634273,4.010626 2.646543,4.010626 C 2.956266,4.010626 3.149945,3.846919 3.195645,3.651619 C 3.244209,3.444084 3.122488,3.215614 2.840771,3.131952 L 2.827553,3.128009 L 2.813612,3.127987 C 2.81332,3.127987 2.813028,3.127987 2.812737,3.127987 z M 0.676316,4.026964 C 0.676316,4.026965 0.676316,4.026966 0.676316,4.026967 L 0.676316,4.026967 C 0.676316,4.026966 0.676316,4.026965 0.676316,4.026964 z M 0.491548,4.715316 C 0.491527,4.71534 0.491507,4.715363 0.491487,4.715386 C 0.491507,4.715363 0.491527,4.71534 0.491548,4.715316 z M 15.325609,5.025635 C 15.325609,5.025635 15.325609,5.025635 15.325609,5.025635 L 15.325609,5.025635 C 15.325609,5.025635 15.325609,5.025635 15.325609,5.025635 z M 17.424419,2.748724 C 17.855703,3.523292 17.649086,5.08315 17.311035,5.613039 L 17.311035,5.613039 C 16.985298,5.595613 16.675777,5.512148 16.369406,5.407977 C 16.122683,5.324077 15.878386,5.226748 15.631572,5.134865 L 15.631572,5.134865 C 15.856257,4.717828 15.941621,3.971621 15.710267,3.389751 L 15.710267,3.389751 C 16.257092,3.110569 16.816133,2.867655 17.424419,2.748724 z M 17.311035,5.613039 C 17.311035,5.613039 17.311035,5.613039 17.311035,5.613039 L 17.311035,5.613039 C 17.311035,5.613039 17.311035,5.613039 17.311035,5.613039 z M 5.040199,4.02246 C 4.7364688,3.7102307 4.2926698,3.8995587 4.2000758,4.1327553 C 4.7590443,3.9008815 4.9056653,4.2204409 4.890779,4.264482 C 4.747835,4.6873811 3.871028,5.8039647 3.110983,6.073367 C 3.1111233,6.0751933 3.1112637,6.0770197 3.111404,6.078846 C 3.111404,6.078846 3.111404,6.078846 3.111404,6.078846 C 2.676566,5.899636 2.183001,5.68318 1.736858,5.460536 C 1.265301,5.225216 0.849225,4.985443 0.625877,4.780975 C 0.590206,4.748313 0.560804,4.717694 0.539169,4.689913 L 0.539169,4.689913 C 0.542194,4.688668 0.545372,4.687387 0.548707,4.686067 L 0.710395,4.621981 L 0.710395,4.496013 L 0.710395,4.496013 C 0.71565,4.486526 0.720621,4.476889 0.72494,4.466842 C 0.766685,4.369814 0.763091,4.25871 0.69688,4.148146 L 0.69688,4.148146 C 0.69214,4.121657 0.687839,4.098261 0.684239,4.077536 L 0.684239,4.077536 C 0.709791,4.063622 0.740601,4.047404 0.777433,4.027316 L 0.791236,4.019774 L 0.804012,4.010599 C 1.9631402,3.215583 3.2885806,2.7794024 4.6081856,2.4739781 C 4.931065,2.9692923 5.0269756,3.4723387 5.040199,4.02246 z M 4.989672,4.586137 C 4.863338,5.299409 4.505972,5.942523 3.982669,6.419617 C 3.832123,6.364537 3.638661,6.290878 3.419739,6.203746 L 3.419739,6.203746 C 4.1556171,5.8747951 4.5299648,5.1834413 4.989672,4.586137 z M 11.952972,3.195635 L 11.952972,3.195635 L 12.196256,3.278944 C 13.251978,3.6502981 14.318472,3.588677 15.410672,3.50232 L 15.410672,3.50232 C 15.619898,4.020597 15.520397,4.716178 15.325609,5.025635 L 15.325609,5.025635 C 15.30072,5.01724 15.275784,5.008977 15.250797,5.000864 C 14.86813,4.876586 14.474331,4.7884 14.057357,4.7884 C 13.592614,4.7884 13.099079,4.897947 12.56007,5.189167 C 11.854765,5.6236143 11.101129,5.9692443 10.36034,6.336813 C 10.36034,6.336813 10.36034,6.336813 10.36034,6.336813 C 10.359219,6.3371217 10.358098,6.3374303 10.356977,6.337739 C 8.4868998,6.765039 7.0234048,6.9406452 4.7854676,6.4579757 C 5.7917116,5.3699647 6.0081883,3.9619024 5.2655173,2.3995864 C 7.5048557,1.932807 9.7974742,2.5790512 11.952972,3.195635 z M 12.625518,5.721126 C 15.044482,6.9618144 12.671726,7.6883991 10.92046,6.645699 C 11.528434,6.4157291 12.070545,6.0526263 12.625518,5.721126 z M 4.810166,7.143409 C 5.2705926,7.2011799 5.7283443,7.2769486 6.187285,7.344901 L 6.187285,7.344901 C 6.488809,7.657925 6.6706511,7.9965719 6.866164,8.23185 C 7.5764316,9.0865784 6.6467636,8.9264711 6.085792,8.428823 L 6.085792,8.428823 C 5.626959,8.024461 5.207694,7.596064 4.810166,7.143409 z M 8.039527,0 C 8.031997,0 8.02447,2.4e-005 8.016948,7.3e-005 C 6.957247,0.006911 5.98403,0.494295 5.332373,1.671645 L 5.332373,1.671645 C 4.4013142,1.9275261 3.4928727,2.2608713 2.576807,2.565775 C 1.854746,2.824217 1.153464,3.131701 0.518393,3.585328 L 0.518393,3.585328 C 0.44993,3.622533 0.398227,3.649664 0.359717,3.674041 C 0.279988,3.724518 0.224202,3.784385 0.19289,3.856812 C 0.163677,3.924382 0.156745,4.00182 0.168511,4.092762 C 0.174816,4.141546 0.187311,4.203949 0.201916,4.290364 L 0.202361,4.293001 L 0.202361,4.293001 C 0.165179,4.318929 0.133173,4.347316 0.106335,4.377966 C 0.029446,4.465766 -0.007014,4.573467 0,4.685143 C 0.005616,4.774618 0.039574,4.865665 0.098351,4.953626 C 0.143586,5.02132 0.204675,5.089607 0.280263,5.158792 C 0.538483,5.39516 0.994201,5.662175 1.508039,5.918615 C 2.434288,6.380861 3.557744,6.816658 3.988981,6.965469 L 3.988981,6.965469 C 4.533763,7.632441 5.108574,8.251637 5.760245,8.824426 L 5.786359,8.844549 C 6.6284362,9.5712951 7.5610815,9.2150436 7.8190237,9.3049962 C 8.4192937,9.5143292 6.7407005,7.371387 7.2509715,7.3844469 C 8.2879277,7.4109868 9.3248839,7.2826383 10.303757,6.9994013 C 12.672323,8.6241973 16.205677,6.9092796 13.219581,5.451269 C 13.219581,5.451269 13.219581,5.451269 13.219581,5.451269 C 13.518424,5.342532 13.797023,5.299169 14.061831,5.299169 C 14.425829,5.299169 14.763772,5.381103 15.092418,5.487803 C 15.468878,5.610047 15.83382,5.766695 16.204315,5.892684 C 16.602427,6.028078 17.007633,6.128439 17.435404,6.128439 L 17.54936,6.128439 L 17.625631,6.043767 C 18.185408,5.422099 18.468292,3.268399 17.751381,2.313533 L 17.659317,2.190585 C 16.834337,2.2677129 16.114958,2.6600842 15.373325,2.987329 L 15.373325,2.987329 C 14.828431,3.1372832 14.272802,3.0705349 13.720245,3.062189 L 13.720245,3.062189 C 14.266254,2.893073 14.631715,2.684836 14.846313,2.46212 C 15.043923,2.257046 15.128842,2.027721 15.109184,1.802827 C 15.090301,1.586761 14.974851,1.38196 14.782519,1.209856 C 14.415854,0.881776 13.736482,0.54527642 12.940894,0.654891 C 10.74964,0.95679768 9.5026085,0.44434456 8.039527,0 z "
     id="path1883"
     sodipodi:nodetypes="cssssccsccsccscccsscccccccccsccccccccscccccccccccscccssccccccscccccccccccccccccccccsscccccccccccccsccccsccsccssscccsssssccccsscccssscccccccccssssc" />
</svg>
