<?xml version="1.0" encoding ="US-ASCII" standalone="yes"?>
<svg width="20.346277" height="17.040001">
<path style="fill:#000000; stroke:none" d=" M 7.263084 1.981458  Q 7.675944 2.263942 7.545567 3.024474  Q 9.631599 4.806293 10.087919 7.131349  Q 12.543351 7.283455 14.129604 7.772369  Q 15.715858 8.261283 17.236921 9.076138  Q 18.757988 9.890995 19.659761 10.738444  Q 20.561535 11.585896 20.279051 12.063944  Q 19.97484 12.476806 19.04047 12.433346  Q 19.714085 13.693657 18.703665 13.617603  Q 17.693243 13.54155 13.89058 11.281682  Q 15.15089 13.020042 15.129162 14.867048  Q 15.107431 16.714058 13.66242 16.507626  Q 12.217409 16.301195 11.033151 14.801861  Q 9.848894 13.302526 9.58814 12.759288  Q 10.196566 14.519377 10.294349 15.019156  Q 10.392133 15.518934 9.066632 16.670597  Q 9.023172 16.14909 8.653771 17.040001  Q 8.436476 16.322927 9.110091 15.953526  Q 9.783705 15.584122 9.859758 15.019156  Q 9.935812 14.454189 9.479491 13.856627  Q 9.023172 13.259068 8.957984 12.867935  Q 8.892796 12.476806 9.370845 12.063944  Q 8.871067 11.042658 8.805878 10.629799  Q 8.306101 11.194765 7.219625 11.78146  Q 7.523838 12.25951 7.512973 13.117825  Q 7.502108 13.97614 7.665079 14.443324  Q 7.82805 14.910508 6.198338 16.257734  Q 6.002773 15.866607 6.024503 16.714058  Q 5.372618 16.127361 6.285257 15.594986  Q 7.197896 15.062614 7.165301 14.399865  Q 7.132707 13.737116 6.56774 11.82492  Q 7.849781 10.173478 8.501666 9.934454  Q 8.653771 9.825807 8.686366 8.891438  Q 8.718959 7.95707 8.914525 7.609398  Q 8.653771 7.305185 8.349559 6.979242  Q 8.436476 7.196537 8.436476 7.978799  Q 8.436476 8.761061 7.654215 9.130462  Q 4.41652 8.261283 4.220954 7.89188  L 2.330488 5.78412  Q 2.352218 6.001415 2.765078 6.414275  Q 2.417406 6.370817 3.330045 7.022701  Q 2.569513 6.848865 3.634258 7.457291  Q 2.851996 7.435562 4.394791 8.608955  Q 3.438693 8.261283 5.67683 11.173036  Q 6.480822 11.716273 6.13315 12.455075  Q 6.176609 12.172592 6.035367 12.118268  Q 5.894126 12.063944 5.828937 12.281239  Q 5.785478 12.541992 5.981043 12.781017  Q 5.807207 12.824476 5.589912 12.704964  Q 5.372618 12.585452 5.502995 11.629354  Q 4.503438 9.825807 3.31918 8.456847  Q 2.134923 7.08789 1.39612 6.044874  Q 1.287473 6.588111 2.048005 7.000972  Q 1.569956 7.000972 2.2653 7.52248  Q 1.743792 7.50075 2.721619 8.065718  Q 1.852439 7.89188 3.330045 9.217379  Q 2.221841 8.608955 3.275722 9.88013  Q 4.329602 11.151306 4.590356 12.172592  Q 5.068405 12.954854 4.829381 13.280796  Q 4.764191 12.867935 4.45998 12.889665  Q 4.45998 13.150419 4.655544 13.302526  Q 4.373061 13.454633 4.633814 13.650197  Q 4.112307 13.650197 4.134036 12.846206  L 4.264413 12.194322  Q 4.155766 11.629354 1.287473 7.826694  Q 0.157539 6.066603 0.048891 5.327801  Q -0.059756 4.588998 0.070621 4.426027  Q 0.200998 4.263055 0.505211 4.371702  Q 0.353104 4.024031 0.592129 3.83933  Q 0.831153 3.654629 1.200555 3.893654  Q 1.374391 3.806736 1.613415 3.763277  Q 1.852439 3.719818 2.656431 4.241325  Q 3.460422 4.762834 7.241354 7.174808  Q 7.284813 4.415162 6.828494 3.958842  Q 6.263527 4.132678 5.51386 4.121813  Q 4.764191 4.110949 4.959757 3.545982  Q 5.285699 2.307401 6.285257 2.068376  Q 6.198338 1.416492 5.024945 0.482123  Q 4.633814 0.17791 5.220511 0.330017  Q 5.502995 0.286558 6.828494 1.894541  Q 6.958871 1.416492 5.655101 0.19964  Q 5.285699 -0.039385 5.763749 0.004074  Q 7.284813 0.938443 7.263084 1.981458  Z  M 6.56774 2.459507  Q 6.698117 3.611171 5.350888 3.350417  Q 5.26397 3.415605 5.285699 3.589441  Q 5.459536 3.698088 6.31785 3.611171  Q 7.176166 3.524252 7.263084 2.915827  Q 7.350001 2.307401 6.937142 2.285671  Q 6.524281 2.263942 6.56774 2.459507  Z  M 5.524724 2.828909  Q 5.502995 3.19831 5.774614 3.187445  Q 6.046232 3.17658 6.187473 3.035339  Q 6.328715 2.894097 6.306986 2.644208  Q 6.285257 2.394319 5.981043 2.416048  Q 5.67683 2.437778 5.524724 2.828909  Z  M 7.350001 3.372146  Q 7.741133 5.827579 8.382153 6.555517  Q 9.023172 7.283455 9.131821 7.283455  Q 9.414304 7.06616 9.696787 7.044431  Q 9.066632 4.762834 7.350001 3.372146  Z  M 1.635145 4.132678  L 7.43692 8.196094  L 7.43692 7.826694  Q 3.873282 5.262612 1.635145 4.132678  Z  M 3.395234 8.109176  Q 2.721619 6.935783 2.330488 6.316493  Q 1.939357 5.697202 1.265743 5.197423  Q 1.200555 5.523365 3.395234 8.109176  Z  M 7.610755 6.001415  Q 7.87151 7.022701 7.82805 8.022259  Q 7.784592 8.456847 7.534703 8.489443  Q 7.284813 8.522038 6.15488 7.848422  Q 5.024945 7.174808 3.210533 5.729796  Q 1.39612 4.284785 1.070178 4.154408  Q 0.744235 4.024031 0.700776 4.458621  L 0.592129 4.567269  Q 0.331375 4.588998 0.450887 5.316936  Q 0.570399 6.044874 2.134923 8.500307  Q 0.809424 5.675472 0.809424 5.284341  Q 0.635588 4.89321 0.809424 4.719375  Q 1.048448 4.458621 1.656874 4.91494  Q 2.830267 5.805849 3.699447 6.63157  Q 4.568627 7.457291 5.090134 7.870152  L 7.589026 8.826251  Q 8.110535 8.674142 8.143128 7.598533  Q 8.175722 6.522923 7.610755 6.001415  Z  M 9.153549 8.478578  Q 8.979713 10.064831 9.848894 11.716273  Q 10.674615 10.760174 11.174395 10.564609  Q 11.674171 10.369044 11.402553 11.064387  Q 11.130935 11.75973 10.022729 12.563722  Q 10.435591 13.367714 11.750225 14.736671  Q 13.064859 16.105629 13.977497 16.007849  Q 14.890136 15.910066 14.672841 14.247758  Q 14.455546 12.585452 12.836699 10.684121  Q 11.217853 8.782791 10.457319 8.369929  Q 10.087919 7.93534 10.674615 8.109176  Q 13.43426 9.521593 15.97661 10.684121  Q 18.518963 11.846648 19.20344 11.955297  Q 19.887922 12.063944 19.801003 11.542436  Q 19.540249 11.129576 17.725836 10.021371  Q 15.911424 8.913167 14.336035 8.39166  Q 12.760647 7.870152 10.196566 7.50075  Q 9.17528 7.457291 9.153549 8.478578  Z  M 12.60854 9.499864  Q 13.934038 10.825363 16.346012 12.139997  Q 18.757988 13.454633 18.757988 12.933125  Q 18.540691 12.194322 12.60854 9.499864  Z "/></svg>
