<?xml version="1.0" encoding="UTF-8" standalone="no"?>
<svg
   xmlns:dc="http://purl.org/dc/elements/1.1/"
   xmlns:cc="http://web.resource.org/cc/"
   xmlns:rdf="http://www.w3.org/1999/02/22-rdf-syntax-ns#"
   xmlns:svg="http://www.w3.org/2000/svg"
   xmlns="http://www.w3.org/2000/svg"
   xmlns:sodipodi="http://sodipodi.sourceforge.net/DTD/sodipodi-0.dtd"
   xmlns:inkscape="http://www.inkscape.org/namespaces/inkscape"
   width="16.032097"
   height="17.96875"
   id="svg2624"
   sodipodi:version="0.32"
   inkscape:version="0.45"
   sodipodi:docname="F10B.svg"
   inkscape:output_extension="org.inkscape.output.svg.inkscape"
   sodipodi:docbase="C:\Program Files\JSesh\fontsST"
   sodipodi:modified="true"
   version="1.0">
  <metadata
     id="metadata2631">
    <rdf:RDF>
      <cc:Work
         rdf:about="">
        <dc:format>image/svg+xml</dc:format>
        <dc:type
           rdf:resource="http://purl.org/dc/dcmitype/StillImage" />
      </cc:Work>
    </rdf:RDF>
  </metadata>
  <defs
     id="defs2629" />
  <sodipodi:namedview
     inkscape:window-height="708"
     inkscape:window-width="1024"
     inkscape:pageshadow="2"
     inkscape:pageopacity="0.0"
     guidetolerance="10.0"
     gridtolerance="10.0"
     objecttolerance="10.0"
     borderopacity="1.0"
     bordercolor="#666666"
     pagecolor="#ffffff"
     id="base"
     inkscape:zoom="28.716522"
     inkscape:cx="8.0160481"
     inkscape:cy="8.984375"
     inkscape:window-x="-4"
     inkscape:window-y="-4"
     inkscape:current-layer="svg2624" />
  <path
     style="fill:#000000;stroke:none"
     d="M 12.1875,0 C 11.431172,0.013268667 10.635172,0.54079402 9.8125,1.5625 C 9.401164,2.000374 8.9143133,2.1941346 8.34375,2.1875 C 7.7731873,2.180866 7.2021974,1.8415213 6.625,1.125 C 6.0478027,0.40847933 5.3633467,0.044519333 4.59375,0.03125 C 4.3549093,0.071056667 4.332216,0.14384867 4.53125,0.25 C 5.2743087,0.55518533 5.8245273,1.037324 6.15625,1.6875 C 6.302208,1.9661473 6.4751973,2.2119286 6.6875,2.4375 C 6.899802,2.6630713 7.1682774,2.8360607 7.5,2.96875 C 7.2478913,3.2208593 7.1042294,3.5347208 7.03125,3.90625 C 6.9582713,4.2777793 6.8107653,4.578372 6.625,4.84375 C 6.3994287,4.8968253 6.28125,5.0651028 6.28125,5.34375 C 6.4670147,5.8214307 6.6853906,6.0624998 6.9375,6.0625 C 7.0303827,6.035962 7.1031747,6.0425966 7.15625,6.0625 C 7.209326,6.0824033 7.3407733,6.0710568 7.5,6.03125 C 7.6592267,5.9914433 7.7641359,5.9186514 7.84375,5.8125 C 7.84375,5.719618 7.9212548,5.6874998 8.09375,5.6875 L 8.09375,8.375 C 7.2719701,8.3205921 6.4094681,8.2971466 5.46875,8.3125 C 5.8288162,7.6028985 6.0602323,7.0186727 6.15625,6.5625 C 6.2522676,6.1063281 6.2377768,5.8344763 6.09375,5.75 C 5.9497237,5.6655234 5.6918135,5.625 5.34375,5.625 C 4.9956864,5.625 4.2339584,5.9891616 3.09375,6.6875 C 1.9535421,7.3858375 1.1808345,7.9526184 0.71875,8.375 C 0.2566654,8.797382 0,9.2431417 0,9.75 C 0.0120022,10.155487 0.0649888,10.375 0.125,10.375 C 0.3530418,10.386264 0.5024895,10.201091 0.5625,9.8125 C 0.6225111,9.423909 0.7117257,9.2074867 0.84375,9.21875 C 0.9517697,9.2187504 1,9.3633979 1,9.65625 C 1.0000001,9.9378369 1.0747238,10.085028 1.21875,10.0625 C 1.3147677,9.949865 1.3569966,9.6636592 1.375,9.21875 C 1.3930032,8.7738412 1.8835743,8.2732028 2.84375,7.6875 C 3.8039251,7.1017972 4.5584076,6.7550816 5.0625,6.6875 C 5.0625,7.4872099 4.7900989,8.105777 4.25,8.5 C 3.2778223,9.2096012 3.1211294,9.9702758 3.78125,10.78125 C 3.1211294,11.569696 3.2778223,12.321648 4.25,13.03125 C 4.7900989,13.425473 5.0625,14.001527 5.0625,14.8125 C 4.5584076,14.744919 3.803925,14.435084 2.84375,13.84375 C 1.8835743,13.252414 1.3930032,12.726159 1.375,12.28125 C 1.3569966,11.836341 1.3147677,11.550135 1.21875,11.4375 C 1.0747238,11.414972 1,11.562162 1,11.84375 C 1.0000001,12.136601 0.9517696,12.28125 0.84375,12.28125 C 0.7117258,12.292514 0.6225111,12.10734 0.5625,11.71875 C 0.5024895,11.330157 0.3530419,11.144987 0.125,11.15625 C 0.0649887,11.15625 0.012002,11.3645 0,11.78125 C 2e-007,12.276845 0.2566654,12.733867 0.71875,13.15625 C 1.1808345,13.578631 1.9535421,14.114162 3.09375,14.8125 C 4.2339583,15.510838 4.9956864,15.875 5.34375,15.875 C 5.6918135,15.875 5.9497237,15.834475 6.09375,15.75 C 6.2377768,15.665523 6.2522677,15.38804 6.15625,14.9375 C 6.0602322,14.486959 5.8288162,13.908365 5.46875,13.1875 C 6.410025,13.202862 7.271554,13.179481 8.09375,13.125 L 8.09375,14.78125 C 7.4966493,14.967015 7.1695194,15.40848 7.15625,16.125 C 7.1164433,16.390379 7.207216,16.786456 7.40625,17.34375 C 7.52567,17.755086 7.7847207,17.96875 8.15625,17.96875 C 7.9041407,17.00012 7.7679812,16.390378 7.78125,16.125 C 7.7945193,15.580975 8.0176074,15.3125 8.46875,15.3125 C 8.906624,15.3125 9.1429814,15.580975 9.15625,16.125 C 9.1695193,16.390379 9.0646091,17.00012 8.8125,17.96875 C 9.1840293,17.96875 9.4118298,17.773067 9.53125,17.375 C 9.7302833,16.804437 9.8210569,16.390378 9.78125,16.125 C 9.7679813,15.40848 9.4721009,14.967015 8.875,14.78125 L 8.875,13.0625 C 11.280484,12.824874 13.155375,12.271514 14.4375,11.375 C 14.557521,11.870595 14.967367,12.212229 15.6875,12.4375 C 15.927543,12.381181 16.043252,12.207824 16.03125,11.9375 C 15.923231,11.655912 15.717063,11.438939 15.375,11.28125 C 15.032937,11.12356 14.802764,10.972729 14.71875,10.78125 C 14.802764,10.578506 15.032937,10.382071 15.375,10.21875 C 15.717063,10.055428 15.923231,9.8440875 16.03125,9.5625 C 16.043252,9.2921762 15.927543,9.1188177 15.6875,9.0625 C 14.967367,9.2877704 14.557521,9.6606552 14.4375,10.15625 C 13.155609,9.2598994 11.27984,8.7064525 8.875,8.46875 L 8.875,5.46875 C 9.551714,5.3095227 9.8749998,4.8547893 9.875,4.125 C 9.875,4.0055793 9.8475949,3.8599953 9.78125,3.6875 C 10.073167,3.6875 10.28962,3.5579747 10.46875,3.3125 C 10.64788,3.0670247 10.845485,2.8146093 11.03125,2.5625 C 10.699527,2.350198 10.172002,2.4503953 9.46875,2.875 C 10.012775,2.4503953 10.456162,1.98816 10.78125,1.4375 C 11.106338,0.88684067 11.599823,0.45287799 12.25,0.1875 C 12.449034,0.081348667 12.426341,0.026538 12.1875,0 z M 8.4375,2.625 C 8.8289327,2.618366 9.0293279,2.6798113 9.0625,2.8125 C 9.0956727,2.9451893 9.2025048,3.1267354 9.375,3.3125 C 9.7730673,2.9144327 10.164433,2.7054814 10.5625,2.71875 C 10.350197,3.0504727 10.222595,3.2414427 10.15625,3.28125 C 10.15625,3.347594 9.9331614,3.4203867 9.46875,3.5 C 9.5749007,3.7653787 9.6250001,3.9657736 9.625,4.125 C 9.625,4.4965293 9.4614348,4.7943321 9.15625,5 C 8.8510653,5.205668 8.4190254,5.3399054 7.875,5.40625 C 7.6626973,5.6450907 7.5171134,5.78125 7.4375,5.78125 L 7.65625,5.46875 L 7.5,5.34375 C 7.327504,5.5958593 7.1819201,5.7461561 7.0625,5.8125 C 6.94308,5.8125 6.8249014,5.7444201 6.71875,5.625 C 6.8514393,5.625 6.9289434,5.5881702 6.96875,5.46875 C 7.0085567,5.34933 6.9792293,5.2519229 6.90625,5.21875 C 6.8332713,5.185578 6.7718259,5.1695192 6.71875,5.15625 C 6.6656747,5.15625 6.6288446,5.1969241 6.5625,5.25 L 6.5625,5.15625 C 6.8411473,5.15625 7.0481766,4.8603692 7.1875,4.25 C 7.3268233,3.63963 7.5158719,3.239708 7.78125,3.09375 C 7.8210573,2.7885653 8.0460673,2.6316346 8.4375,2.625 z M 8.1875,3.4375 C 7.8159707,3.5436513 7.6562499,3.69866 7.65625,3.9375 C 8.0145107,4.0569207 8.3103905,4.0389392 8.5625,3.90625 C 8.5625,3.6010653 8.4263407,3.464038 8.1875,3.4375 z M 6.71875,5.3125 C 6.8249013,5.339038 6.8589414,5.3777898 6.8125,5.4375 C 6.7660587,5.49721 6.6960566,5.5218256 6.65625,5.46875 C 6.6164433,5.415674 6.6524054,5.3523066 6.71875,5.3125 z M 6.4375,9 C 10.005527,9.0234069 12.519741,9.6281465 13.9375,10.78125 C 12.317205,12.087817 9.2725588,12.657689 4.84375,12.5 C 4.0636077,12.060723 3.9478996,11.490851 4.5,10.78125 C 3.9478996,10.049121 4.0636077,9.4592641 4.84375,9.03125 C 5.3973511,9.0115388 5.9277819,8.9966562 6.4375,9 z "
     id="path2626" />
</svg>
