<?xml version="1.0" encoding="UTF-8" standalone="no"?>
<svg
   xmlns:dc="http://purl.org/dc/elements/1.1/"
   xmlns:cc="http://web.resource.org/cc/"
   xmlns:rdf="http://www.w3.org/1999/02/22-rdf-syntax-ns#"
   xmlns:svg="http://www.w3.org/2000/svg"
   xmlns="http://www.w3.org/2000/svg"
   xmlns:sodipodi="http://sodipodi.sourceforge.net/DTD/sodipodi-0.dtd"
   xmlns:inkscape="http://www.inkscape.org/namespaces/inkscape"
   width="20.141371"
   height="19.5625"
   id="svg2329"
   sodipodi:version="0.32"
   inkscape:version="0.45"
   sodipodi:docname="F12B.svg"
   inkscape:output_extension="org.inkscape.output.svg.inkscape"
   sodipodi:docbase="C:\Program Files\JSesh\fontsST"
   sodipodi:modified="true"
   version="1.0">
  <metadata
     id="metadata2336">
    <rdf:RDF>
      <cc:Work
         rdf:about="">
        <dc:format>image/svg+xml</dc:format>
        <dc:type
           rdf:resource="http://purl.org/dc/dcmitype/StillImage" />
      </cc:Work>
    </rdf:RDF>
  </metadata>
  <defs
     id="defs2334" />
  <sodipodi:namedview
     inkscape:window-height="708"
     inkscape:window-width="1024"
     inkscape:pageshadow="2"
     inkscape:pageopacity="0.0"
     guidetolerance="10.0"
     gridtolerance="10.0"
     objecttolerance="10.0"
     borderopacity="1.0"
     bordercolor="#666666"
     pagecolor="#ffffff"
     id="base"
     inkscape:zoom="26.376997"
     inkscape:cx="10.070685"
     inkscape:cy="9.78125"
     inkscape:window-x="-4"
     inkscape:window-y="-4"
     inkscape:current-layer="svg2329" />
  <path
     style="fill:#000000;stroke:none"
     d="M 9.59375 0 C 9.3290917 0.55337733 9.1251392 1.0080868 8.96875 1.375 C 8.8123611 1.7419133 8.7715701 2.4798053 8.84375 3.5625 C 8.3384924 3.63468 8.0049787 3.7834613 7.8125 4 C 7.6200207 4.2165393 7.106476 4.3797006 6.3125 4.5 C 5.915512 4.5721793 5.7463354 4.6753306 5.8125 4.84375 C 5.8786647 5.0121693 5.991496 5.1945511 6.09375 5.375 C 6.1960047 5.5554493 6.3387707 5.6634402 6.53125 5.6875 C 6.5793694 6.1446373 6.9728933 6.2945942 7.71875 6.15625 C 8.4646067 6.017906 9.1100626 6.0503314 9.6875 6.21875 L 9.6875 9.09375 C 9.2585427 9.1252086 8.8102043 9.1874078 8.375 9.34375 L 9.5625 8.6875 L 9.5625 7.28125 L 7.4375 6.625 C 7.2735281 6.2674121 7.225404 6.1813062 7.25 6.375 C 7.2745954 6.5686932 7.3805862 6.7082036 7.59375 6.8125 L 9.28125 7.46875 C 9.1336752 8.0945288 9.1336755 8.4418532 9.28125 8.53125 C 7.8382954 8.888838 6.9795606 9.286665 6.75 9.71875 L 6.96875 8.375 C 6.96875 7.9727133 5.8964901 7.6802447 3.78125 7.53125 C 3.4205112 7.1438632 2.8726177 7.0058042 2.09375 7.125 C 1.3148827 7.244196 0.606697 7.7978831 0 8.78125 C 1.00023 7.9915761 1.9137425 7.7125563 2.75 7.90625 L 1.1875 8.875 C 2.2861134 8.666408 3.1433034 8.3724875 3.75 8 L 6.46875 8.6875 C 6.2063946 9.372876 6.1203666 9.7721541 6.21875 9.90625 C 5.5136702 10.442632 5.0436053 10.752902 4.78125 10.8125 C 4.5188946 10.872098 4.4180143 10.993806 4.5 11.1875 C 4.5983834 11.023605 4.7555862 11.023605 4.96875 11.1875 L 4.96875 11.4375 C 4.7883804 11.631193 4.6311777 11.631193 4.5 11.4375 C 4.4180143 11.601395 4.5188946 11.746903 4.78125 11.84375 C 5.0436053 11.940596 5.5136702 12.227066 6.21875 12.71875 C 6.1203666 12.852846 6.2063947 13.301175 6.46875 14.03125 L 3.75 14.71875 C 3.1433035 14.346262 2.2861134 14.052343 1.1875 13.84375 L 2.75 14.8125 C 1.9137425 15.021093 1.00023 14.727173 0 13.9375 C 0.606697 14.920867 1.3148826 15.474554 2.09375 15.59375 C 2.8726178 15.712946 3.4205111 15.559988 3.78125 15.1875 C 5.8964902 14.919309 6.9687502 14.641739 6.96875 14.34375 L 6.75 12.84375 C 6.9795611 13.275835 7.8218986 13.690012 9.28125 14.0625 C 9.1336752 14.136997 9.1336755 14.499221 9.28125 15.125 L 7.59375 15.75 C 7.3805861 15.854296 7.2745954 16.025057 7.25 16.21875 C 7.225404 16.412443 7.273528 16.326337 7.4375 15.96875 L 9.53125 15.3125 L 9.53125 13.9375 L 8.375 13.25 C 8.8206906 13.415674 9.2543242 13.49635 9.6875 13.53125 L 9.6875 19.5625 L 10.78125 19.5625 L 10.78125 14.25 C 10.750305 14.203065 10.745566 14.168745 10.71875 14.125 C 10.878623 14.385741 11.109556 14.721263 11.4375 15.09375 L 12.0625 15.59375 L 13.5625 16.125 L 13.25 15.90625 L 12.09375 15.4375 L 11.53125 14.78125 L 10.96875 13.5625 C 11.427872 13.547601 11.927642 13.497098 12.46875 13.4375 C 12.337573 13.675892 12.622273 14.143474 13.34375 14.84375 L 13.90625 15.25 L 15.3125 15.96875 L 15.09375 15.75 L 13.96875 15.125 L 13.375 14.5 L 12.8125 13.40625 C 13.238827 13.316852 13.697128 13.177343 14.15625 12.96875 C 14.04147 13.207142 14.225289 13.676174 14.75 14.40625 L 16.09375 14.8125 L 18.15625 15.21875 L 17.28125 14.84375 L 16.15625 14.5625 L 15 14.21875 L 14.625 12.84375 C 15.248095 12.575558 15.734556 12.333593 16.0625 12.125 C 17.06273 12.497487 17.790877 12.306024 18.25 11.53125 C 19.250229 10.950169 19.720295 10.136715 19.6875 9.09375 C 20.326992 8.1401824 20.285522 7.3074746 19.53125 6.5625 C 19.744413 5.8026253 19.401847 5.2859926 18.5 5.0625 C 18.352426 4.3026259 17.824494 3.9538506 16.90625 3.96875 C 16.479922 3.4323679 15.922285 3.3299122 15.25 3.6875 C 15.053234 3.4491081 14.980514 3.0690829 15.0625 2.5625 C 14.537789 3.1882788 14.52448 3.6900126 15 4.0625 C 15.459122 4.5541839 15.987052 4.7619978 16.59375 4.6875 C 16.675736 5.2983793 17.076169 5.574497 17.78125 5.5 C 17.78125 6.1108794 18.082347 6.5428581 18.65625 6.78125 C 18.344702 7.5411242 18.328304 8.2165198 18.65625 8.8125 C 17.918375 9.11049 17.592206 9.6478264 17.625 10.4375 C 17.067495 10.214007 16.508313 10.179855 16 10.34375 C 15.540878 10.135157 15.084122 9.927343 14.625 9.71875 L 15 8.375 L 16.15625 8 L 17.28125 7.75 L 18.15625 7.375 L 16.09375 7.78125 L 14.75 8.1875 C 14.225289 8.9175758 14.04147 9.3866084 14.15625 9.625 C 13.697128 9.401508 13.238827 9.2456471 12.8125 9.15625 L 13.375 8.0625 L 13.96875 7.4375 L 15.09375 6.84375 L 15.3125 6.59375 L 13.90625 7.34375 L 13.34375 7.75 C 12.622273 8.4502761 12.337573 8.9178584 12.46875 9.15625 C 11.927642 9.111551 11.427872 9.0610492 10.96875 9.03125 L 11.53125 7.8125 L 12.09375 7.125 L 13.25 6.71875 L 13.5625 6.46875 L 12.0625 7.03125 L 11.4375 7.5 C 11.109556 7.8724874 10.878623 8.2080088 10.71875 8.46875 C 10.745566 8.425005 10.750305 8.3906854 10.78125 8.34375 L 10.78125 5.8125 C 11.358687 5.2952127 11.440268 4.5561452 11.03125 3.59375 C 11.247789 3.160672 11.376175 2.597972 11.40625 1.90625 C 11.436325 1.2145287 11.327159 0.630258 11.0625 0.125 C 10.821901 0.67837733 10.586699 1.1859067 10.40625 1.625 C 10.225801 2.0640927 10.122649 2.6411734 10.0625 3.375 L 9.875 3.375 C 9.9592097 2.953952 9.9531948 2.439232 9.875 1.84375 C 9.7968057 1.2482673 9.7020194 0.63758667 9.59375 0 z M 15.90625 3.78125 C 16.068172 3.764488 16.223326 3.7967775 16.375 3.875 C 16.678348 4.0314448 16.728018 4.2303581 16.53125 4.46875 C 15.973745 4.3644535 15.603016 4.1922427 15.40625 3.96875 C 15.578421 3.8570038 15.744328 3.798012 15.90625 3.78125 z M 9.8125 3.9375 C 10.391065 3.9386278 10.634351 4.1477956 10.59375 4.53125 C 10.539615 5.0425227 10.429274 5.3832262 10.21875 5.59375 C 10.008226 5.804274 9.8042741 5.837874 9.59375 5.6875 C 9.3832264 5.5371253 8.8696813 5.556346 8.09375 5.71875 C 7.3178191 5.8811547 6.9375 5.8607594 6.9375 5.65625 L 8.4375 5.21875 L 8.34375 5.03125 L 6.6875 5.46875 C 6.4589314 5.2642407 6.3893807 5.0938894 6.4375 4.9375 C 7.2314767 4.7690813 7.7341668 4.5734938 7.96875 4.375 C 8.203334 4.176506 8.5956827 4.04812 9.125 4 C 9.3866517 3.9578952 9.6196449 3.9371241 9.8125 3.9375 z M 9.0625 4.21875 C 8.7376917 4.19469 8.5817201 4.2762705 8.59375 4.46875 C 8.5937504 4.6973187 8.9249133 4.7045086 9.5625 4.5 C 9.5625004 4.3315807 9.3873079 4.2428101 9.0625 4.21875 z M 17.0625 4.28125 C 17.620004 4.2514512 18.007131 4.511219 18.1875 5.0625 L 17.96875 5.3125 C 17.394848 5.2380028 17.022575 4.9796863 16.875 4.5625 L 17.0625 4.28125 z M 18.46875 5.375 C 18.895077 5.5537943 19.13831 5.8982159 19.1875 6.375 L 18.84375 6.4375 C 18.499408 6.228907 18.269485 5.9527891 18.1875 5.625 L 18.46875 5.375 z M 19.3125 6.78125 C 19.706033 7.4517276 19.749046 8.0766211 19.4375 8.6875 L 19.125 8.65625 C 18.895438 8.1645666 18.836026 7.5767271 19 6.90625 L 19.3125 6.78125 z M 18.90625 9 L 19.3125 9.1875 C 19.115734 9.962274 18.788019 10.566464 18.3125 10.96875 L 17.96875 10.53125 C 18.116324 9.9501698 18.43073 9.4320846 18.90625 9 z M 10.8125 9.78125 C 11.091253 10.794416 11.074855 11.833486 10.8125 12.90625 L 9.875 12.8125 C 10.284931 11.799334 10.314636 10.795867 9.9375 9.8125 L 10.8125 9.78125 z M 11.375 9.84375 L 12.1875 9.9375 C 12.400664 10.861269 12.400664 11.763731 12.1875 12.6875 L 11.3125 12.84375 C 11.673239 11.815684 11.702945 10.827117 11.375 9.84375 z M 9.21875 9.875 C 9.6450774 10.843467 9.6450778 11.780082 9.21875 12.71875 C 7.1527019 12.495258 6.0522805 12.027676 5.9375 11.3125 C 6.0522805 10.567526 7.1527023 10.098493 9.21875 9.875 z M 12.8125 9.9375 L 13.53125 10.125 C 13.793605 10.914674 13.778753 11.692526 13.5 12.4375 L 12.8125 12.65625 C 12.976473 11.76228 12.976473 10.84637 12.8125 9.9375 z M 14.0625 10.1875 L 14.71875 10.34375 C 14.94831 10.984428 14.961619 11.588618 14.78125 12.125 L 14.0625 12.28125 C 14.24287 11.625671 14.24287 10.932475 14.0625 10.1875 z M 15.28125 10.5 L 15.90625 10.8125 C 16.037427 11.140289 16.037427 11.46691 15.90625 11.75 L 15.28125 11.96875 C 15.46162 11.521765 15.46162 11.036382 15.28125 10.5 z M 16.71875 10.71875 C 17.06924 10.696401 17.412312 10.89904 17.78125 11.3125 C 17.305731 11.878681 16.819269 12.033091 16.34375 11.75 C 16.622502 11.46691 16.622503 11.140289 16.34375 10.8125 C 16.45853 10.756627 16.60192 10.7262 16.71875 10.71875 z "
     id="path2331" />
</svg>
