<?xml version="1.0" encoding="UTF-8" standalone="no"?>
<svg
   xmlns:dc="http://purl.org/dc/elements/1.1/"
   xmlns:cc="http://creativecommons.org/ns#"
   xmlns:rdf="http://www.w3.org/1999/02/22-rdf-syntax-ns#"
   xmlns:svg="http://www.w3.org/2000/svg"
   xmlns="http://www.w3.org/2000/svg"
   xmlns:sodipodi="http://sodipodi.sourceforge.net/DTD/sodipodi-0.dtd"
   xmlns:inkscape="http://www.inkscape.org/namespaces/inkscape"
   width="17.09"
   height="18"
   id="svg2278"
   sodipodi:version="0.32"
   inkscape:version="0.46"
   sodipodi:docname="L23.svg"
   inkscape:output_extension="org.inkscape.output.svg.inkscape"
   sodipodi:docbase="C:\Program Files\JSesh\fontsST"
   sodipodi:modified="true"
   version="1.0">
  <metadata
     id="metadata2285">
    <rdf:RDF>
      <cc:Work
         rdf:about="">
        <dc:format>image/svg+xml</dc:format>
        <dc:type
           rdf:resource="http://purl.org/dc/dcmitype/StillImage" />
      </cc:Work>
    </rdf:RDF>
  </metadata>
  <defs
     id="defs2283">
    <inkscape:perspective
       sodipodi:type="inkscape:persp3d"
       inkscape:vp_x="0 : 10.875 : 1"
       inkscape:vp_y="0 : 1000 : 0"
       inkscape:vp_z="17.09375 : 10.875 : 1"
       inkscape:persp3d-origin="8.546875 : 7.25 : 1"
       id="perspective2743" />
  </defs>
  <sodipodi:namedview
     inkscape:window-height="708"
     inkscape:window-width="1024"
     inkscape:pageshadow="2"
     inkscape:pageopacity="0.0"
     guidetolerance="10.0"
     gridtolerance="10.0"
     objecttolerance="10.0"
     borderopacity="1.0"
     bordercolor="#666666"
     pagecolor="#ffffff"
     id="base"
     inkscape:zoom="23.218391"
     inkscape:cx="8.546875"
     inkscape:cy="7.125"
     inkscape:window-x="208"
     inkscape:window-y="22"
     inkscape:current-layer="svg2278"
     showgrid="false" />
  <path
     style="fill:#000000;stroke:none"
     d="M 1.3808269,0 L 1.3808269,2.1884804 L 2.9700805,2.1884804 C 4.1658358,4.0151996 4.8926801,5.8312561 5.1325075,7.6596813 C 4.963981,7.7728594 4.8259961,7.8777446 4.7677608,7.9983747 L 4.9240808,6.9562412 C 4.9240808,6.6427884 4.1810993,6.421001 2.6834938,6.3049077 C 2.4280881,6.0030648 2.0104311,5.8993928 1.4589869,5.9922677 C 0.90754305,6.0851425 0.42954601,6.5026645 0,7.2688812 C 0.70817029,6.6535856 1.3358705,6.4405727 1.927947,6.5914944 L 0.83370681,7.3470412 C 1.6115333,7.1845108 2.2018415,6.9598881 2.6313871,6.6696545 L 4.5593341,7.1907212 C 4.3735846,7.7247509 4.333358,8.0502107 4.4030141,8.1546947 C 3.9038123,8.5726311 3.5466299,8.8116974 3.3608806,8.8581348 C 3.175131,8.9045723 3.1204607,8.9938006 3.1785072,9.1447215 C 3.2481634,9.0170193 3.3662788,9.0170193 3.5172006,9.1447215 L 3.5172006,9.3531482 C 3.3894976,9.50407 3.2713819,9.50407 3.1785072,9.3531482 C 3.1204608,9.4808513 3.1751309,9.590327 3.3608806,9.6657883 C 3.54663,9.7412488 3.9038124,9.9600668 4.4030141,10.343175 C 4.3333579,10.44766 4.3735846,10.790397 4.5593341,11.359255 L 2.6313871,11.906375 C 2.2018415,11.616142 1.6115333,11.365466 0.83370681,11.202935 L 1.927947,11.958482 C 1.3358705,12.121012 0.7081703,11.89639 0,11.281095 C 0.42954601,12.047311 0.90754305,12.490888 1.4589869,12.583762 C 2.0104311,12.676637 2.4280881,12.561357 2.6834938,12.271122 C 3.9938986,12.088275 4.7081735,11.898573 4.8719742,11.697949 C 4.5172919,13.101988 3.8876666,14.513546 2.9700805,15.918589 L 2.9700805,18.133123 L 11.776109,18.10707 L 11.776109,15.918589 C 11.032645,14.773413 10.48153,13.624058 10.108695,12.479549 L 10.838188,12.896402 L 10.681868,12.687975 L 10.056588,12.323229 C 9.8871741,11.778177 9.777194,11.226768 9.6918416,10.681868 C 9.7997425,10.637324 9.8938938,10.580842 10.004482,10.525548 C 9.923217,10.711297 10.07589,11.103037 10.447388,11.671895 L 11.385309,11.958482 L 12.844296,12.297175 L 12.219015,12.010589 L 11.437415,11.776109 L 10.603708,11.515575 L 10.343175,10.447388 C 10.784331,10.23842 11.127069,10.062799 11.359255,9.9002683 C 12.067427,10.190502 12.597394,10.034995 12.922456,9.4313083 C 13.630625,8.9785438 13.961755,8.3420686 13.938536,7.5294146 C 14.391301,6.7864163 14.342299,6.1298284 13.808269,5.5493609 C 13.959191,4.957284 13.71729,4.5511011 13.078776,4.3769607 C 12.974292,3.7848842 12.608607,3.5055912 11.958482,3.5172006 C 11.744676,3.2211621 11.478059,3.0990025 11.176882,3.1524539 C 11.354821,2.8323668 11.543035,2.5085151 11.750055,2.1884804 L 14.251176,4.0643207 L 14.251176,0 L 1.3808269,0 z M 1.849787,0.54712009 L 13.808269,0.54712009 L 13.808269,3.0742939 L 11.750055,1.6153069 L 1.849787,1.6153069 L 1.849787,0.54712009 z M 3.4390406,2.1884804 L 11.307149,2.1884804 C 11.099418,2.5125154 10.886513,2.8284116 10.707922,3.1524539 C 10.640442,2.9739602 10.61228,2.7450519 10.655815,2.4490137 C 10.313609,2.8981613 10.29291,3.2355167 10.551602,3.5172006 C 10.03638,4.5133794 9.66782,5.4905952 9.4313083,6.4872811 C 8.9409011,7.0162974 8.7148707,7.3731534 8.8060282,7.5554679 C 8.4229199,7.5206401 8.0889567,7.5005271 7.7638946,7.4773079 L 8.1546947,6.5133344 L 8.5454948,5.9922677 L 9.3792016,5.6535743 L 9.5876283,5.4712009 L 8.5454948,5.9141077 L 8.0765347,6.2788544 C 7.6121608,6.8593216 7.3875386,7.2711742 7.3991479,7.5033613 C 6.9115554,7.4453143 6.4393629,7.5144292 5.940161,7.711788 L 6.7738678,7.1907212 L 6.7738678,6.1225344 L 5.2627742,5.6014676 C 5.1466808,5.3228432 5.0890401,5.2421192 5.1064542,5.3930409 C 5.1238678,5.5439622 5.2160661,5.6765222 5.3669876,5.7577876 L 6.5654411,6.2528011 C 6.460957,6.7403935 6.4609571,7.0168516 6.5654411,7.0865079 C 6.1587037,7.1974362 5.8199266,7.3050721 5.5493609,7.4252013 C 5.2853213,5.6747553 4.5636554,3.9374761 3.4390406,2.1884804 z M 11.255042,3.3869339 C 11.369684,3.3738734 11.460296,3.4041449 11.567682,3.4650939 C 11.782455,3.5869921 11.837262,3.7222512 11.697949,3.9080007 C 11.346555,3.8356547 11.09138,3.7413131 10.942402,3.5953606 C 10.965414,3.5505782 10.996981,3.5098753 11.020562,3.4650939 C 11.096714,3.4265865 11.181847,3.3952726 11.255042,3.3869339 z M 12.062695,3.777734 C 12.457413,3.7545154 12.742647,3.9474152 12.870349,4.3769607 L 12.714029,4.5593341 C 12.307702,4.5012876 12.036915,4.3112227 11.932429,3.9861607 L 12.062695,3.777734 z M 10.838188,3.8298406 C 11.108331,4.0498234 11.417158,4.1353604 11.750055,4.090374 C 11.808103,4.5663573 12.084561,4.7737007 12.583762,4.7156541 C 12.583762,5.1916373 12.776662,5.5199313 13.182989,5.705681 C 12.962412,6.2977575 12.976855,6.8305607 13.209042,7.2949346 C 12.686622,7.5271217 12.430277,7.9562527 12.453495,8.5715481 C 12.058778,8.3974076 11.693092,8.3656851 11.333202,8.4933881 C 11.00814,8.3308571 10.668237,8.1609057 10.343175,7.9983747 L 10.603708,6.9562412 L 11.437415,6.6696545 L 12.219015,6.4872811 L 12.844296,6.174641 L 11.385309,6.4872811 L 10.447388,6.7999211 C 10.07589,7.3687791 9.923217,7.7605186 10.004482,7.946268 C 9.8780684,7.8785468 9.7626367,7.8158142 9.639735,7.7638946 C 9.7012625,7.2442147 9.7882582,6.7202365 9.9263217,6.2006944 L 10.681868,5.7577876 L 10.838188,5.5754143 L 9.9784284,6.0704277 C 10.188317,5.3164021 10.46708,4.583576 10.838188,3.8298406 z M 13.078776,4.6374941 C 13.380618,4.7768065 13.538961,5.0215418 13.573789,5.3930409 L 13.339309,5.4451476 C 13.095514,5.2826165 12.928397,5.0752732 12.870349,4.8198675 L 13.078776,4.6374941 z M 13.651949,5.705681 C 13.930574,6.2281017 13.976739,6.7407917 13.756162,7.2167746 L 13.521682,7.1646679 C 13.359151,6.7815595 13.327429,6.3323144 13.443522,5.8098943 L 13.651949,5.705681 z M 9.3010416,7.0604545 C 9.2661676,7.2503473 9.247641,7.4437167 9.2228816,7.633628 C 9.1711901,7.6188662 9.1175894,7.593297 9.0665615,7.5815213 L 9.3010416,7.0604545 z M 13.391416,7.4512546 L 13.651949,7.5815213 C 13.512637,8.1852074 13.28518,8.6488961 12.948509,8.9623482 L 12.714029,8.6497081 C 12.818512,8.1969436 13.054745,7.7879256 13.391416,7.4512546 z M 7.633628,8.0504814 C 7.8309868,8.8399175 7.8454308,9.637569 7.6596813,10.473442 L 6.9822945,10.421335 C 7.2725285,9.631899 7.3014162,8.8427513 7.0344012,8.0765347 L 7.633628,8.0504814 z M 6.5133344,8.102588 C 6.8151773,8.8571961 6.8151774,9.6117866 6.5133344,10.343175 C 5.0505571,10.169035 4.2758529,9.8061837 4.1945874,9.2489349 C 4.2758528,8.6684682 5.0505572,8.2767282 6.5133344,8.102588 z M 8.024428,8.102588 L 8.6236548,8.1546947 C 8.7745766,8.8744747 8.7745757,9.5973426 8.6236548,10.317122 L 7.9983747,10.447388 C 8.2537804,9.6463429 8.2566154,8.8688046 8.024428,8.102588 z M 9.0665615,8.180748 L 9.5615749,8.3110147 C 9.7473265,8.9263095 9.7589359,9.5282283 9.5615749,10.108695 L 9.0665615,10.291068 C 9.1826552,9.594508 9.1826552,8.8889186 9.0665615,8.180748 z M 9.952375,8.3631214 L 10.395282,8.4933881 C 10.557811,8.9925892 10.575091,9.4562786 10.447388,9.874215 L 9.952375,10.004482 C 10.080079,9.4936704 10.080079,8.9435889 9.952375,8.3631214 z M 10.812135,8.6236548 L 11.255042,8.8581348 C 11.347917,9.1135409 11.347917,9.3670503 11.255042,9.5876283 L 10.812135,9.7700017 C 10.939839,9.4217215 10.939839,9.0415912 10.812135,8.6236548 z M 11.828215,8.7799748 C 12.076366,8.7625603 12.322552,8.9267756 12.583762,9.2489349 C 12.247091,9.6900909 11.904354,9.8082063 11.567682,9.5876283 C 11.765041,9.3670503 11.765041,9.1135409 11.567682,8.8581348 C 11.648948,8.8145995 11.745498,8.7857799 11.828215,8.7799748 z M 4.7677608,10.447388 C 4.8205687,10.556776 4.9356763,10.681597 5.0804009,10.786082 C 5.038773,11.037188 4.9837192,11.29049 4.9240808,11.541629 L 4.7677608,10.447388 z M 5.9141077,10.733975 C 6.4249187,10.942943 6.9115554,11.026501 7.3991479,10.968455 C 7.3875386,11.200641 7.6121606,11.612495 8.0765347,12.192962 L 8.5454948,12.583762 L 9.5876283,13.000616 L 9.3792016,12.818242 L 8.5454948,12.479549 L 8.1546947,11.958482 L 7.7638946,10.994509 C 8.0889565,10.982899 8.4229199,10.936732 8.8060282,10.890295 C 8.7131532,11.076044 8.9465503,11.46495 9.4573616,12.010589 L 9.5615749,12.088749 L 9.5615749,12.114802 C 9.9253879,13.381369 10.52021,14.651275 11.333202,15.918589 L 3.4390406,15.918589 C 4.4908075,14.279065 5.17233,12.632666 5.4712009,10.994509 C 5.7568984,11.130761 6.1121939,11.257992 6.5654411,11.385309 C 6.460957,11.443355 6.4609571,11.731423 6.5654411,12.219015 L 5.3669876,12.714029 C 5.216066,12.795294 5.123868,12.9018 5.1064542,13.052722 C 5.0890399,13.203643 5.1466808,13.148973 5.2627742,12.870349 L 6.7478145,12.375335 L 6.7478145,11.281095 L 5.9141077,10.733975 z M 9.2749882,10.812135 C 9.3252633,11.114305 9.3815068,11.421786 9.4573616,11.724002 L 9.0665615,10.890295 C 9.1344761,10.874622 9.2058981,10.832509 9.2749882,10.812135 z M 3.4390406,16.465709 L 11.333202,16.465709 L 11.333202,17.533896 L 3.4390406,17.533896 L 3.4390406,16.465709 z"
     id="path2280" />
</svg>
