<?xml version="1.0" encoding="UTF-8" standalone="no"?>
<svg
   xmlns:dc="http://purl.org/dc/elements/1.1/"
   xmlns:cc="http://web.resource.org/cc/"
   xmlns:rdf="http://www.w3.org/1999/02/22-rdf-syntax-ns#"
   xmlns:svg="http://www.w3.org/2000/svg"
   xmlns="http://www.w3.org/2000/svg"
   xmlns:sodipodi="http://sodipodi.sourceforge.net/DTD/sodipodi-0.dtd"
   xmlns:inkscape="http://www.inkscape.org/namespaces/inkscape"
   width="26.021425"
   height="13.2"
   id="svg2"
   sodipodi:version="0.32"
   inkscape:version="0.45.1"
   sodipodi:docname="US22L4VERH.svg"
   sodipodi:docbase="/Users/rosmord/Travail/Gsigns/SThomasDetail/42"
   inkscape:output_extension="org.inkscape.output.svg.inkscape">
  <metadata
     id="metadata9">
    <rdf:RDF>
      <cc:Work
         rdf:about="">
        <dc:format>image/svg+xml</dc:format>
        <dc:type
           rdf:resource="http://purl.org/dc/dcmitype/StillImage" />
        <dc:description>dessin TT78 (nouvel empire)</dc:description>
        <dc:title>L4VERH</dc:title>
        <dc:creator>
          <cc:Agent>
            <dc:title>S. P. Thomas</dc:title>
          </cc:Agent>
        </dc:creator>
      </cc:Work>
    </rdf:RDF>
  </metadata>
  <defs
     id="defs7" />
  <sodipodi:namedview
     inkscape:window-height="581"
     inkscape:window-width="701"
     inkscape:pageshadow="2"
     inkscape:pageopacity="0.0"
     guidetolerance="10.0"
     gridtolerance="10.0"
     objecttolerance="10.0"
     borderopacity="1.0"
     bordercolor="#666666"
     pagecolor="#ffffff"
     id="base"
     inkscape:zoom="23.63437"
     inkscape:cx="13.010713"
     inkscape:cy="6.5999999"
     inkscape:window-x="605"
     inkscape:window-y="34"
     inkscape:current-layer="svg2" />
  <path
     style="fill:#000000; stroke:none"
     d=" M 4.610837 6.004607  Q 5.049129 7.301953 4.891344 9.247972  Q 5.3647 8.353855 5.776695 7.433441  Q 6.18869 6.513026 6.311412 7.450972  Q 6.434134 8.388918 6.504261 8.774615  L 7.240592 8.774615  Q 8.835977 5.443593 8.993762 8.634362  Q 9.309333 8.125942 9.931707 7.512333  Q 10.554083 6.898724 11.413136 5.93448  Q 7.450972 5.653973 4.610837 6.004607  Z  M 9.993069 10.019366  Q 10.571615 10.019366 11.272882 9.247972  Q 16.462265 2.287887 16.970686 1.849594  Q 17.356382 1.972316 17.365149 1.665511  Q 17.373915 1.358707 16.944387 1.39377  Q 16.51486 1.428833 16.444735 1.744404  Q 16.322012 1.954785 12.289721 5.952012  Q 10.869654 7.424675 10.124557 8.213601  Q 9.379459 9.002527 9.519712 9.510947  Q 9.659966 10.019366 9.993069 10.019366  Z  M 14.481184 5.671505  L 16.935621 5.864354  Q 16.988216 4.18131 17.181065 2.305418  Q 16.567455 2.743711 14.481184 5.671505  Z  M 14.077954 6.285114  L 12.850736 8.108411  L 17.058344 7.915562  Q 16.935621 7.021446 16.953154 6.54809  L 14.077954 6.285114  Z  M 1.823297 6.232519  Q 2.507033 6.214987 2.507033 7.003914  Q 2.507033 8.546703 2.138867 8.546703  Q 1.227219 8.61683 1.227219 7.056509  Q 1.227219 6.232519 1.823297 6.232519  Z  M 17.742081 6.618217  L 17.934929 8.020753  L 25.245647 8.248665  Q 25.26318 7.79284 24.106087 7.249358  Q 22.948994 6.705875 17.742081 6.618217  Z  M 7.713948 8.774615  L 8.537937 8.739552  Q 8.590532 6.600685 7.713948 8.774615  Z  M 5.943246 7.968157  L 5.662739 8.739552  L 6.065968 8.739552  L 5.943246 7.968157  Z  M 17.969992 8.476577  Q 17.969992 9.265503 18.320625 10.212214  L 18.811514 10.212214  Q 18.390753 9.405757 18.390753 8.494108  L 17.969992 8.476577  Z  M 17.198597 8.546703  L 16.830431 8.546703  Q 16.532393 9.475883 16.918091 10.317405  L 17.63689 10.26481  Q 17.584295 10.019366 17.198597 8.546703  Z  M 15.743466 8.61683  Q 15.515554 9.581074 15.848657 10.37  L 16.51486 10.317405  Q 16.199289 9.370693 16.462265 8.581767  L 15.743466 8.61683  Z  M 14.463652 8.651894  Q 14.323399 9.528479 14.568842 10.334937  L 15.392832 10.317405  Q 15.182451 9.44082 15.392832 8.634362  L 14.463652 8.651894  Z  M 13.253964 8.757084  Q 13.061116 9.405757 13.359155 10.387532  L 14.130549 10.352468  Q 13.937701 9.510947 14.077954 8.686957  L 13.253964 8.757084  Z  M 18.98683 8.599298  Q 18.829044 9.405757 19.407591 10.299873  L 20.459494 10.492723  Q 20.056265 9.914176 20.371834 9.02006  L 18.98683 8.599298  Z  M 6.662046 9.300567  L 6.784768 9.633669  L 7.047743 9.300567  L 6.662046 9.300567  Z  M 20.862722 9.072655  Q 20.477024 9.879112 20.915318 10.492723  L 21.546459 10.492723  Q 21.353609 9.94924 21.546459 9.160313  L 20.862722 9.072655  Z  M 22.125004 9.212908  Q 21.844498 10.036898 22.019814 10.597912  L 22.58083 10.632976  Q 22.563297 10.019366 22.808741 9.388225  Q 22.49317 9.265503 22.125004 9.212908  Z  M 23.141844 9.458352  Q 22.826273 10.001835 23.089249 10.685571  L 23.124311 10.650507  L 23.755453 10.738166  Q 23.63273 10.019366 23.755453 9.528479  L 23.141844 9.458352  Z  M 24.193745 9.54601  Q 24.018429 10.124557 24.079788 10.405064  Q 24.14115 10.685571 24.509315 10.738166  Q 25.526154 10.685571 25.53492 10.185917  Q 25.543686 9.686264 24.193745 9.54601  Z  M 6.714641 10.440127  Q 6.241285 10.913483 6.889958 10.738166  L 6.714641 10.440127  Z  M 10.624209 10.405064  Q 11.588453 10.597912 12.920862 10.405064  Q 12.640355 9.405757 12.833204 8.774615  L 12.342317 8.792148  Q 12.079341 9.265503 11.325478 10.001835  Q 10.799527 10.405064 10.624209 10.405064  Z  M 8.958698 10.405064  Q 8.76585 9.984303 8.625596 9.353162  L 7.608757 9.318098  Q 7.293187 9.686264 7.01268 10.194683  L 7.240592 10.597912  Q 8.204835 10.492723 8.958698 10.405064  Z  M 6.521792 10.071961  Q 6.276349 9.563542 6.171158 9.300567  L 5.46989 9.300567  Q 4.856281 10.194683 4.417988 10.317405  Q 5.224446 10.755697 5.750397 10.597912  Q 6.276349 10.440127 6.521792 10.071961  Z  M 7.030211 11.106332  L 6.18869 11.211522  Q 5.680271 11.158927 6.048436 10.860888  Q 4.926407 11.176458 3.997227 10.562849  Q 3.50634 10.825825 3.032984 10.492723  Q 2.734945 10.825825 2.647287 11.421902  L 2.436906 11.649815  L 2.401843 11.176458  L 2.401843 11.158927  L 2.103804 11.264117  L 1.96355 11.264117  Q 2.629755 10.808292 2.734945 10.352468  Q 2.524565 10.738166 2.261589 10.77323  L 2.261589 10.597912  L 1.770702 10.597912  Q 1.928487 10.124557 1.989848 9.896645  Q 2.051209 9.668733 2.103804 9.6512  Q 2.261589 9.6512 2.261589 10.26481  L 2.542096 10.071961  Q 2.331716 9.984303 2.331716 9.247972  L 2.331716 8.739552  L 2.436906 8.739552  Q 2.507033 8.739552 2.57716 9.02006  Q 2.57716 9.686264 2.78754 9.686264  Q 3.120642 9.160313 3.182003 8.397684  Q 3.243364 7.635055 2.89273 6.092266  Q 2.454438 5.250744 1.928487 5.250744  Q 1.402536 5.250744 1.148326 5.873119  Q 0.894117 6.495495 0.920414 7.740245  Q 0.946712 8.984996 1.577853 9.686264  Q 1.735638 9.405757 1.735638 8.82721  Q 1.928487 8.686957 2.086272 8.844743  Q 2.103804 9.475883 1.823297 9.826517  L 1.823297 10.247278  Q 1.665511 10.405064 1.437599 10.212214  Q 1.349941 10.492723 1.490194 10.562849  L 1.525258 10.703102  L 1.349941 10.703102  L 1.823297 11.229053  L 1.788233 11.229053  L 1.490194 11.123863  L 1.490194 11.158927  Q 1.875892 11.351775 1.875892 11.597219  L 1.875892 11.649815  Q 1.402536 11.439434 1.244751 11.150161  Q 1.086965 10.860888 1.086965 10.554083  Q 1.086965 10.247278 1.209687 9.844049  L 0.894117 9.475883  Q 0.613609 10.37 0.797692 10.554083  Q 0.981775 10.738166 0.981775 10.98361  L 0.613609 10.825825  L 0.859053 11.211522  L 0.683736 11.229053  L 0.876585 11.772536  L 0.859053 11.772536  Q 0.350634 11.649815 0.350634 10.790761  Q 0.262975 10.615444 0.245444 10.194683  Q 0.245444 9.861581 0.613609 9.142781  Q 0.490888 8.897338 0.490888 7.564929  Q 0.490888 4.865047 1.420068 4.812451  L 0 0.499653  Q -0.017532 -0.149019 0.385697 0.376932  L 1.893424 4.724793  L 1.96355 4.724793  L 3.155706 0.25421  Q 3.471277 -0.25421 3.593998 0.25421  L 2.489501 4.777388  Q 3.032984 4.917642 3.225833 5.408529  Q 3.488808 4.812451 4.067354 5.233212  Q 7.521099 5.057895 12.202063 5.355934  Q 13.394218 4.198842 16.129164 1.604151  Q 16.269417 1.025604 17.005749 1.025604  Q 17.812206 1.025604 17.969992 2.340482  L 17.794676 2.796306  L 17.882334 3.602764  L 17.689486 4.619603  L 17.952459 4.567008  L 17.969992 4.759856  L 17.671953 4.952705  L 17.671953 5.198149  L 17.882334 5.128022  L 17.882334 5.338402  L 17.671953 5.496188  L 17.689486 5.7241  L 17.969992 5.653973  L 17.987524 5.82929  L 17.777143 5.952012  Q 23.299629 6.092266 24.535614 6.662046  Q 25.771599 7.231826 26.017042 8.792148  Q 23.825579 8.651894 21.178293 8.564235  Q 22.230194 8.792148 23.352224 9.002527  Q 24.474253 9.212908 25.105394 9.256738  Q 25.736534 9.300567 25.920618 9.677498  Q 26.1047 10.05443 25.955681 10.58038  Q 25.806662 11.106332 24.588209 11.097566  Q 23.369755 11.088799 22.054878 11.123863  Q 20.74 11.158927 18.899172 10.87842  Q 18.899172 10.948546 18.636196 11.176458  L 18.706324 11.369308  L 19.021894 11.123863  L 19.232275 11.176458  Q 19.232275 11.281649 19.056957 11.562156  L 19.354996 11.912789  L 19.740694 11.632282  L 19.968605 11.8076  L 19.758224 12.158234  L 20.21405 12.403677  L 20.424429 12.088107  L 20.634809 12.193297  L 20.512089 12.491336  L 20.862722 12.63159  L 20.985445 12.33355  L 21.265951 12.403677  L 21.178293 12.736779  L 21.423737 12.736779  L 21.546459 12.421209  L 21.721775 12.456272  L 21.75684 12.771843  L 21.949688 12.736779  L 22.002283 12.491336  L 22.177599 12.491336  L 22.265259 12.771843  L 22.510702 12.771843  L 22.615892 12.561462  L 22.773678 12.684184  Q 22.650955 13.262731 21.520161 13.192604  Q 20.389366 13.122477 19.53908 12.666653  Q 18.688791 12.210829 17.777143 10.843356  Q 13.394218 11.053737 11.579687 11.115097  Q 9.765157 11.176458 9.309333 10.77323  Q 8.415215 10.87842 7.608757 10.98361  L 8.274962 11.439434  L 9.134015 11.772536  Q 8.993762 11.930322 8.476577 11.947853  Q 7.959392 11.965384 7.705182 11.70241  Q 7.450972 11.439434 7.030211 11.106332  Z  M 3.120642 10.05443  Q 3.418681 10.194683 3.900803 9.975537  Q 4.382925 9.756391 4.496881 8.61683  Q 4.610837 7.47727 4.295266 6.381538  Q 3.979696 5.285808 3.471277 5.93448  Q 3.646594 7.003914 3.646594 8.169772  Q 3.646594 9.33563 3.120642 10.05443  Z  M 18.35569 10.790761  L 18.741386 10.738166  L 18.741386 10.703102  Q 18.338158 10.738166 18.35569 10.790761  Z "
     id="path4" />
</svg>
