<?xml version="1.0" encoding="UTF-8" standalone="no"?>
<!-- Created with Inkscape (http://www.inkscape.org/) -->
<svg
   xmlns:dc="http://purl.org/dc/elements/1.1/"
   xmlns:cc="http://creativecommons.org/ns#"
   xmlns:rdf="http://www.w3.org/1999/02/22-rdf-syntax-ns#"
   xmlns:svg="http://www.w3.org/2000/svg"
   xmlns="http://www.w3.org/2000/svg"
   xmlns:sodipodi="http://sodipodi.sourceforge.net/DTD/sodipodi-0.dtd"
   xmlns:inkscape="http://www.inkscape.org/namespaces/inkscape"
   width="425.49451"
   height="1806.593"
   id="svg2451"
   sodipodi:version="0.32"
   inkscape:version="0.46"
   version="1.0"
   sodipodi:docname="M118vara.svg"
   inkscape:output_extension="org.inkscape.output.svg.inkscape">
  <defs
     id="defs2453">
    <inkscape:perspective
       sodipodi:type="inkscape:persp3d"
       inkscape:vp_x="0 : 526.18109 : 1"
       inkscape:vp_y="0 : 1000 : 0"
       inkscape:vp_z="744.09448 : 526.18109 : 1"
       inkscape:persp3d-origin="372.04724 : 350.78739 : 1"
       id="perspective2459" />
  </defs>
  <sodipodi:namedview
     id="base"
     pagecolor="#ffffff"
     bordercolor="#666666"
     borderopacity="1.0"
     inkscape:pageopacity="0.0"
     inkscape:pageshadow="2"
     inkscape:zoom="0.23229233"
     inkscape:cx="1573.6264"
     inkscape:cy="1081.5"
     inkscape:document-units="px"
     inkscape:current-layer="layer1"
     showgrid="true"
     inkscape:window-width="1024"
     inkscape:window-height="708"
     inkscape:window-x="-4"
     inkscape:window-y="-4" />
  <metadata
     id="metadata2456">
    <rdf:RDF>
      <cc:Work
         rdf:about="">
        <dc:format>image/svg+xml</dc:format>
        <dc:type
           rdf:resource="http://purl.org/dc/dcmitype/StillImage" />
      </cc:Work>
    </rdf:RDF>
  </metadata>
  <g
     inkscape:label="Calque 1"
     inkscape:groupmode="layer"
     id="layer1"
     transform="translate(-642.0271,-0.7103271)">
    <path
       style="fill:#000000;stroke:none"
       d="M 926.23653,0.71035857 C 901.41322,0.71035857 887.66365,11.802335 884.99034,33.952393 C 883.08089,50.373976 878.9856,64.219418 872.6843,75.485379 C 866.38301,86.751332 850.52485,98.392309 825.12867,110.42208 C 799.73251,122.45183 772.61673,146.97976 743.78346,184.02384 C 720.74316,213.6253 706.93169,255.20141 702.30265,308.70093 C 655.05149,309.183 614.48942,356.70991 666.03625,389.75932 C 681.79251,397.81251 709.60338,391.34396 749.51937,370.33554 C 701.90031,411.65208 678.10769,455.78524 678.10768,502.70398 C 678.10766,549.62275 684.57621,604.41395 697.53142,667.08903 C 703.9402,698.09364 719.31003,719.95895 743.62706,732.71265 C 740.02956,733.39353 736.39002,734.09406 732.67671,734.8245 C 677.99409,745.58176 650.65367,766.62207 650.65367,797.9974 C 650.65365,811.44391 655.14254,822.23283 664.10692,830.3008 C 702.65362,830.30079 729.9941,857.61519 746.12998,912.29778 C 748.66719,920.89604 753.44716,934.12163 756.27203,941.36825 C 712.62748,1003.2062 695.95181,1075.6461 723.16039,1157.011 C 738.07009,1201.5974 750.99886,1237.4989 771.99356,1276.6821 C 759.46478,1390.346 757.57838,1525.4331 766.30985,1658.5877 C 779.75647,1758.9883 810.69308,1807.3036 859.10069,1807.3033 C 907.50828,1807.3033 938.41896,1758.9883 951.86547,1658.5877 C 953.68124,1628.3807 954.99366,1598.6764 955.77629,1569.4729 C 970.30413,1600.7272 977.36498,1628.4567 976.94694,1652.6693 C 976.07848,1703.0597 970.42672,1745.9978 960,1790.2 C 959.1311,1799.04 963.04352,1804.3616 971.7325,1806.1299 C 986.50363,1807.898 1003.8924,1784.6477 1023.8769,1727.6266 C 1043.8608,1670.6057 1050.8165,1619.0931 1044.735,1573.1231 C 1038.6522,1527.1525 1009.9606,1474.3294 958.69637,1414.6564 C 957.3587,1413.0991 956.0101,1411.5389 954.68125,1409.9633 C 954.67745,1409.9587 954.68496,1409.9418 954.68125,1409.9373 C 951.71916,1340.316 945.40316,1273.9304 935.7268,1210.8242 C 920.48738,1110.4233 910.1838,1038.2724 904.80522,994.34694 L 906.16095,994.34694 C 933.95044,994.34694 955.90922,966.98043 972.04526,912.29778 C 988.18093,857.61517 1015.5213,830.3008 1054.0683,830.3008 C 1063.033,822.23283 1067.5216,811.44389 1067.5216,797.9974 C 1067.5216,766.62211 1040.1551,745.58175 985.47256,734.8245 C 984.59461,734.65178 988.37759,734.47301 987.50608,734.30308 C 1081.9114,556.95042 1086.548,467.42189 1004.7658,456.92126 C 929.05684,447.20039 888.08227,486.99044 882.51348,573.72457 C 896.19228,721.81746 732.17927,713.43959 829.87376,556.25622 C 857.53485,498.13303 871.38069,447.01732 871.38068,402.8997 C 871.38068,395.48851 870.85952,388.47421 869.84242,381.83339 C 872.43903,373.89755 875.38778,365.7317 878.70698,357.32555 C 896.27426,312.83451 908.77791,260.13652 916.22482,199.22389 C 923.67186,138.31128 932.74423,93.818799 948.47609,80.908366 C 969.86703,55.644774 982.4993,1.3921236 926.23653,0.71035857 z M 922.09108,29.676566 C 932.40228,29.676566 938.22276,32.935332 939.55941,39.427556 C 940.89602,45.919817 925.68453,63.46243 918.64952,74.051406 C 904.85895,94.808709 896.00996,136.01543 889.13584,195.78237 C 882.58654,252.72503 871.53443,302.11351 855.97201,343.97658 C 846.99917,330.18571 834.10965,319.35925 817.28091,311.51674 C 799.24867,303.11338 782.39572,298.42497 766.727,298.21995 C 754.23018,298.05639 742.49644,300.75295 731.50348,306.64125 C 734.8112,265.33122 747.5165,229.33281 769.59492,198.6503 C 795.56393,162.561 824.37885,136.85688 856.07632,121.58097 C 887.77377,106.30506 902.43576,85.488631 908.22064,60.572074 C 911.27587,47.412885 909.48844,29.676575 922.09108,29.676566 z M 703.26733,308.70093 C 703.96125,308.70349 704.65669,308.72954 705.35308,308.75308 C 704.65822,308.73024 703.95984,308.7033 703.26733,308.70093 z M 708.16889,308.90952 C 708.93851,308.96696 709.69226,309.03437 710.46324,309.1181 C 709.69514,309.03595 708.93568,308.96575 708.16889,308.90952 z M 757.57565,326.4561 C 769.06462,326.40822 781.09824,328.58384 793.65952,333.02628 C 822.37095,343.18032 836.90207,369.64681 837.25221,412.36388 C 837.60236,455.08095 825.32427,499.87325 800.46436,546.79198 C 775.60438,593.71077 771.58758,625.20356 771.23746,654.96544 C 770.88733,684.72733 790.24908,709.87318 846.1689,706.48407 C 880.32193,704.4142 910.22823,669.70213 910.22822,596.17272 C 910.22819,522.64331 938.25828,484.79985 994.25897,486.40886 C 1058.4811,488.25409 1049.6988,567.90159 958.8789,729.84474 C 954.57364,729.0817 954.08453,728.3394 949.9622,727.65468 C 1029.0935,572.93075 1041.4899,499.51597 990.06114,498.50635 C 945.24586,497.65151 922.84714,535.07584 922.84715,610.35597 C 922.84712,677.95333 902.24868,714.07178 861.03004,718.71191 C 860.39256,718.7071 859.72693,718.68586 859.10069,718.68586 C 853.14828,718.68585 846.64554,718.90217 839.67692,719.33763 C 777.77752,720.99832 741.08249,697.63268 729.57414,649.22959 C 717.66936,599.15953 711.71473,549.24301 711.71472,499.52316 C 711.71472,449.80328 739.03766,408.85791 793.65952,376.64501 L 792.59057,355.63086 C 773.68304,350.72889 754.07985,350.72889 733.77176,355.63086 C 713.46361,360.53281 698.76128,369.78804 689.65761,369.78804 C 680.55398,369.78804 668.20024,366.84267 668.20024,357.03873 C 668.20026,347.2348 681.23918,331.80862 691.7434,328.3072 C 703.64815,324.8058 711.7106,327.96751 715.91232,337.7714 C 728.91126,330.28717 742.80412,326.51763 757.57565,326.4561 z M 695.94103,333.57379 C 687.53767,335.67465 684.05944,340.5754 685.46001,348.27852 C 686.86059,353.18044 691.41875,355.11692 699.12183,354.06652 C 706.82494,353.01609 710.47443,349.31447 710.12432,343.01192 C 709.77412,336.70942 705.04466,333.57378 695.94103,333.57379 z M 979.68438,526.14287 C 1025.1498,524.40686 949.26223,705.99041 919.53599,722.83134 C 916.17341,722.36261 915.00746,722.97596 911.79255,722.5706 C 925.18219,697.09552 943.14126,687.37936 943.33985,613.84961 C 943.54137,540.3197 961.4186,527.78839 977.44247,526.3775 C 978.22588,526.25617 978.96287,526.1704 979.68438,526.14287 z M 859.10069,764.39034 C 919.16194,764.39032 968.00199,773.36812 1005.6523,791.29684 C 964.41628,818.18997 939.75348,850.22282 931.68562,887.42494 C 923.61769,924.62703 912.42157,945.46382 898.07856,949.946 C 883.73561,954.42819 873.43203,956.67263 867.15698,956.67263 L 867.15698,1003.7328 C 879.53738,1136.5835 888.68567,1244.4011 894.74133,1327.6796 C 872.42977,1292.4198 851.68778,1253.8165 832.50706,1211.8668 C 837.59178,1151.0106 843.75873,1081.6338 851.01833,1003.7328 L 851.01833,956.67263 C 844.74328,956.67262 834.21006,954.42816 819.41883,949.946 C 804.6276,945.46385 793.17577,924.62705 785.10787,887.42494 C 777.03984,850.22281 752.86258,818.18994 712.52292,791.29684 C 750.17328,773.36813 799.03943,764.39034 859.10069,764.39034 z M 771.75888,969.94337 C 775.10727,974.60138 778.60701,978.58732 782.23992,981.9105 C 687.96438,1098.1825 838.801,1310.1931 924.17681,1425.9194 C 971.53103,1486.919 999.76213,1535.993 1008.8854,1573.1231 C 1018.009,1610.253 1014.7484,1656.208 999.1083,1711.0186 C 1018.2238,1620.8456 998.03516,1539.5266 938.51652,1467.0354 C 878.99776,1394.5429 830.76976,1320.9321 793.84206,1246.23 C 753.52802,1158.3236 707.01323,1057.3637 771.75888,969.94337 z M 811.38862,999.24854 C 807.0331,1010.2116 800.57972,1096.2518 794.20706,1142.802 C 773.29772,1097.2223 781.85104,1008.2563 811.38862,999.24854 z M 820.46174,1369.8122 C 840.42215,1400.2785 861.28587,1428.9255 882.46136,1455.7461 C 889.85893,1465.1165 896.81617,1474.2917 903.34518,1483.2522 C 903.39545,1485.7647 903.42127,1488.1876 903.44946,1490.5264 C 903.44948,1658.1603 888.68307,1741.9662 859.10069,1741.9664 C 829.51823,1741.9664 814.72584,1658.1603 814.72585,1490.5264 C 815.06183,1462.6375 816.97799,1422.3884 820.46174,1369.8122 z"
       id="path3454" />
  </g>
</svg>
