<?xml version="1.0" encoding="UTF-8" standalone="no"?>
<!-- Created with Inkscape (http://www.inkscape.org/) -->
<svg
   xmlns:dc="http://purl.org/dc/elements/1.1/"
   xmlns:cc="http://creativecommons.org/ns#"
   xmlns:rdf="http://www.w3.org/1999/02/22-rdf-syntax-ns#"
   xmlns:svg="http://www.w3.org/2000/svg"
   xmlns="http://www.w3.org/2000/svg"
   xmlns:sodipodi="http://sodipodi.sourceforge.net/DTD/sodipodi-0.dtd"
   xmlns:inkscape="http://www.inkscape.org/namespaces/inkscape"
   width="1800"
   height="1800"
   id="svg2451"
   sodipodi:version="0.32"
   inkscape:version="0.46"
   version="1.0"
   sodipodi:docname="M119vara.svg"
   inkscape:output_extension="org.inkscape.output.svg.inkscape">
  <defs
     id="defs2453">
    <inkscape:perspective
       sodipodi:type="inkscape:persp3d"
       inkscape:vp_x="0 : 526.18109 : 1"
       inkscape:vp_y="0 : 1000 : 0"
       inkscape:vp_z="744.09448 : 526.18109 : 1"
       inkscape:persp3d-origin="372.04724 : 350.78739 : 1"
       id="perspective2459" />
  </defs>
  <sodipodi:namedview
     id="base"
     pagecolor="#ffffff"
     bordercolor="#666666"
     borderopacity="1.0"
     inkscape:pageopacity="0.0"
     inkscape:pageshadow="2"
     inkscape:zoom="0.23195889"
     inkscape:cx="151.98097"
     inkscape:cy="1090.3828"
     inkscape:document-units="px"
     inkscape:current-layer="layer1"
     showgrid="true"
     inkscape:window-width="1024"
     inkscape:window-height="708"
     inkscape:window-x="-4"
     inkscape:window-y="-4">
    <inkscape:grid
       type="xygrid"
       id="grid2576"
       visible="true"
       enabled="true" />
  </sodipodi:namedview>
  <metadata
     id="metadata2456">
    <rdf:RDF>
      <cc:Work
         rdf:about="">
        <dc:format>image/svg+xml</dc:format>
        <dc:type
           rdf:resource="http://purl.org/dc/dcmitype/StillImage" />
      </cc:Work>
    </rdf:RDF>
  </metadata>
  <g
     inkscape:label="Calque 1"
     inkscape:groupmode="layer"
     id="layer1">
    <path
       style="fill:#000000;stroke:none"
       d="M 1007.4726,-7.0317779 C 1006.7732,-7.0106626 1006.0777,-6.9647084 1005.3598,-6.9013646 L 889.31732,199.85726 C 885.26344,206.61374 881.0327,209.97742 876.64107,209.97742 C 814.05254,180.47371 734.33074,105.23062 719.04856,59.975028 C 718.37295,41.057058 724.0359,30.256648 736.02851,27.554057 C 748.02119,24.851486 756.14101,26.625246 760.3638,32.874958 C 764.58656,39.124624 764.33694,45.378796 759.60735,51.628529 C 754.87792,57.87821 750.98878,57.8782 747.94835,51.628529 C 744.908,45.378805 741.70201,42.238692 738.32376,42.238692 C 731.90512,44.603456 730.38107,54.504192 733.75929,63.287541 C 737.13753,72.070873 743.5494,76.117767 753.0084,75.442137 C 762.46741,74.766462 773.36684,71.560531 777.08288,65.817582 C 791.86446,46.19934 791.01356,5.4481724 748.70476,1.4451412 C 715.62822,-1.2448499 694.51139,11.506158 690.17488,50.11572 C 688.65467,65.148728 697.09713,81.703992 706.89396,99.777417 C 734.38035,132.76691 760.53028,160.09357 817.85035,209.48184 L 688.14039,209.48184 C 694.89014,248.08213 699.9938,279.62825 703.45104,304.13642 C 659.52604,309.08462 625.61946,353.41913 674.49908,384.75849 C 690.2618,392.81495 718.08404,386.34378 758.01633,365.32676 C 710.37781,406.66019 686.57545,450.81138 686.57544,497.74933 C 686.57543,544.68728 693.04662,599.50088 706.00715,662.20159 C 712.41855,693.21892 727.79468,715.09316 752.12162,727.85208 C 748.52266,728.53325 744.88162,729.23403 741.16682,729.96481 C 686.46181,740.72644 659.11023,761.77535 659.11023,793.1635 C 659.11021,806.61552 663.60094,817.40888 672.56898,825.48014 C 711.13146,825.48013 738.48307,852.8057 754.62558,907.51067 C 757.1638,916.11244 761.94574,929.3434 764.77176,936.59302 C 721.10937,998.45637 704.42687,1070.9257 731.64659,1152.324 C 746.5624,1196.9284 759.49644,1232.8446 780.49972,1272.0442 C 767.96583,1385.7549 766.07867,1520.8968 774.81366,1654.1055 C 788.26578,1754.5474 819.21509,1802.8826 867.64246,1802.8823 C 916.06983,1802.8823 946.9932,1754.5474 960.44523,1654.1055 C 962.26172,1623.8864 963.57467,1594.1702 964.35763,1564.9546 C 978.89141,1596.2214 985.95505,1623.9624 985.53695,1648.1849 C 984.66784,1698.596 979.01398,1741.5518 968.58304,1785.7718 C 967.71381,1794.6154 971.62785,1799.9391 980.32036,1801.7083 C 995.0973,1803.477 1012.4933,1780.2175 1032.4862,1723.1727 C 1052.4783,1666.1286 1059.4369,1614.5951 1053.3521,1568.606 C 1047.2675,1522.6169 1018.5644,1469.7722 967.27891,1410.0747 C 965.94067,1408.517 964.5915,1406.956 963.26215,1405.3799 C 963.25833,1405.3749 963.26585,1405.3582 963.26215,1405.3536 C 960.29882,1335.7039 953.98024,1269.2912 944.29992,1206.1591 C 929.05425,1105.7173 918.74653,1033.5367 913.36571,989.59334 L 914.72199,989.59334 C 942.52283,989.59335 964.49059,962.2157 980.63329,907.51067 C 996.77554,852.80567 1024.1276,825.48014 1062.6899,825.48014 C 1071.6581,817.40887 1076.1487,806.61549 1076.1487,793.1635 C 1076.1487,761.77539 1048.771,740.72643 994.0661,729.96481 C 993.1877,729.792 996.97202,729.61315 996.10037,729.44315 C 1090.5446,552.01794 1095.1828,462.45284 1013.3675,451.9479 C 937.62725,442.22303 896.63591,482.02937 891.06487,568.79896 C 904.74924,716.95243 740.66913,708.57111 838.40363,551.32347 C 866.076,493.1765 879.92754,442.03988 879.92752,397.90423 C 879.92752,382.93947 877.83949,369.56143 873.6937,357.73665 L 1032.7209,6.2704483 C 1026.387,-2.914058 1017.9641,-7.3484976 1007.4726,-7.0317779 z M 722.10027,237.36438 L 898.91582,237.36438 L 858.12224,330.40185 C 849.75667,320.60272 838.99511,312.63047 825.80563,306.4839 C 807.76601,298.07711 790.90613,293.38679 775.231,293.18165 C 759.55582,292.97652 745.0877,297.26097 731.777,306.71863 L 722.10027,237.36438 z M 766.07592,321.42936 C 777.5696,321.38149 789.60814,323.55799 802.17454,328.00223 C 830.89774,338.16045 845.4348,364.63772 845.78506,407.37228 C 846.13538,450.1068 833.85231,494.91745 808.98218,541.85539 C 784.11206,588.7933 780.09356,620.29902 779.74333,650.07308 C 779.39305,679.84712 798.76271,705.00322 854.70541,701.61276 C 888.87242,699.54208 918.79093,664.81578 918.79091,591.25628 C 918.79089,517.69681 946.83244,479.83791 1002.8559,481.44756 C 1067.1047,483.29354 1058.3189,562.9736 967.46152,724.98298 C 963.15446,724.21963 962.66515,723.47702 958.54117,722.79202 C 1037.7046,568.00483 1050.1058,494.56003 998.65661,493.54998 C 953.8229,492.69477 931.41501,530.13442 931.41502,605.44533 C 931.41499,673.07034 910.80811,709.20357 869.57259,713.84562 C 868.93489,713.84081 868.269,713.81953 867.64246,713.81953 C 861.68767,713.81952 855.18223,714.03592 848.21075,714.4716 C 786.28607,716.13297 749.57606,692.75774 738.06295,644.33485 C 726.15333,594.24433 720.19624,544.30741 720.19623,494.56721 C 720.19623,444.82698 747.53033,403.86486 802.17454,371.63884 L 801.10517,350.61605 C 782.18992,345.7121 762.5787,345.7121 742.2623,350.61605 C 721.94583,355.52002 707.23752,364.77903 698.13015,364.77903 C 689.02277,364.77903 676.66399,361.83244 676.66399,352.02454 C 676.664,342.21658 689.70825,326.7841 700.21678,323.28122 C 712.12638,319.77844 720.19214,322.94138 724.39553,332.74932 C 737.39979,325.26203 751.29835,321.49091 766.07592,321.42936 z M 704.4161,328.54996 C 696.0093,330.65169 692.52965,335.55446 693.93081,343.26071 C 695.33194,348.16466 699.89199,350.10191 707.59825,349.05107 C 715.30446,348.00024 718.95543,344.29709 718.60517,337.99197 C 718.25485,331.68685 713.52344,328.54995 704.4161,328.54996 z M 988.27544,521.1978 C 1033.7597,519.4611 957.84087,701.11891 928.1025,717.96669 C 924.73855,717.49781 923.57212,718.11141 920.35589,717.70588 C 933.75103,692.22032 951.71741,682.50023 951.91613,608.94046 C 952.11771,535.38045 970.00224,522.84398 986.03273,521.43253 C 986.81618,521.31118 987.55367,521.22537 988.27544,521.1978 z M 867.64246,759.54272 C 927.7283,759.5427 976.58831,768.52413 1014.2539,786.46024 C 973.0012,813.36433 948.32827,845.4103 940.25709,882.62764 C 932.18588,919.84497 920.98519,940.69025 906.63632,945.17426 C 892.28751,949.6583 881.97969,951.90365 875.70208,951.90365 L 875.70208,998.98315 C 888.08754,1131.8881 897.23955,1239.7498 903.29772,1323.0624 C 880.97702,1287.7879 860.22656,1249.1691 841.038,1207.2022 C 846.12481,1146.3209 852.29424,1076.916 859.55679,998.98315 L 859.55679,951.90365 C 853.27922,951.90364 842.74167,949.65828 827.94442,945.17426 C 813.14711,940.69028 801.6906,919.84499 793.61939,882.62764 C 785.54809,845.41028 761.36094,813.3643 721.00482,786.46024 C 758.6705,768.52416 807.55663,759.54272 867.64246,759.54272 z M 780.265,965.17982 C 783.61469,969.83973 787.1159,973.82732 790.75029,977.1518 C 696.43621,1093.4714 847.33451,1305.5683 932.74524,1421.3424 C 980.11882,1482.3667 1008.3616,1531.4609 1017.4883,1568.606 C 1026.6157,1605.7509 1023.3537,1651.7251 1007.7072,1706.5581 C 1026.8309,1616.348 1006.6338,1534.996 947.09081,1462.475 C 887.54771,1389.953 839.29996,1316.312 802.35715,1241.5796 C 762.02663,1153.6372 715.49282,1052.6358 780.265,965.17982 z M 819.91089,994.49691 C 815.55359,1005.4644 809.09759,1091.5396 802.72232,1138.109 C 781.80441,1092.5108 790.36124,1003.5084 819.91089,994.49691 z M 828.98772,1365.212 C 848.9563,1395.6911 869.8286,1424.3498 891.01271,1451.1814 C 898.41329,1460.5553 905.37336,1469.734 911.90507,1478.6984 C 911.95536,1481.212 911.98117,1483.6362 912.00938,1485.9755 C 912.0094,1653.6784 897.23697,1737.5185 867.64246,1737.5187 C 838.04791,1737.5187 823.24951,1653.6784 823.24952,1485.9755 C 823.58559,1458.0754 825.50252,1417.81 828.98772,1365.212 z"
       id="path2036" />
  </g>
</svg>
