<?xml version="1.0" encoding ="US-ASCII" standalone="yes"?>
<svg width="6.238998" height="17.977417">
<path style="fill:#000000; stroke:none" d=" M 5.954545 0.96714  L 4.570209 2.04806  L 5.954545 3.128981  Q 4.570209 4.09612 4.020266 4.190938  L 4.020266 14.639837  L 5.70802 12.990011  L 6.238998 13.539953  L 4.361609 15.284597  Q 5.878691 16.024174 5.859728 17.977417  L 1.251592 17.977417  Q 1.251592 16.024174 2.768674 15.284597  L 0.891285 13.558917  L 1.422264 13.027938  L 3.110017 14.620874  L 3.110017 4.190938  Q 1.649826 4.09612 0.843877 3.640996  Q 0.037927 3.185871 0 2.04806  Q 0.037927 0.929213 0.853358 0.474088  Q 1.66879 0.018964 3.119499 0  Q 4.570209 -0.018964 5.954545 0.96714  Z  M 0.910249 2.067024  Q 0.910249 3.299653 3.0152 3.39447  Q 4.001303 3.39447 4.570209 2.996236  L 3.166908 2.04806  L 4.589172 1.118848  Q 4.020266 0.758541 2.996236 0.815431  Q 0.910249 0.986103 0.910249 2.067024  Z  M 2.029097 17.313694  L 5.082223 17.313694  Q 4.835698 15.853502 3.565142 15.853502  Q 2.31355 15.853502 2.029097 17.313694  Z "/></svg>
