<?xml version="1.0" encoding="UTF-8" standalone="no"?>
<svg
   xmlns:dc="http://purl.org/dc/elements/1.1/"
   xmlns:cc="http://creativecommons.org/ns#"
   xmlns:rdf="http://www.w3.org/1999/02/22-rdf-syntax-ns#"
   xmlns:svg="http://www.w3.org/2000/svg"
   xmlns="http://www.w3.org/2000/svg"
   xmlns:sodipodi="http://sodipodi.sourceforge.net/DTD/sodipodi-0.dtd"
   xmlns:inkscape="http://www.inkscape.org/namespaces/inkscape"
   width="17.4375"
   height="17.96875"
   id="svg2551"
   sodipodi:version="0.32"
   inkscape:version="0.46"
   sodipodi:docname="M120.svg"
   inkscape:output_extension="org.inkscape.output.svg.inkscape"
   version="1.0">
  <metadata
     id="metadata2558">
    <rdf:RDF>
      <cc:Work
         rdf:about="">
        <dc:format>image/svg+xml</dc:format>
        <dc:type
           rdf:resource="http://purl.org/dc/dcmitype/StillImage" />
      </cc:Work>
    </rdf:RDF>
  </metadata>
  <defs
     id="defs2556">
    <inkscape:perspective
       sodipodi:type="inkscape:persp3d"
       inkscape:vp_x="0 : 8.9887915 : 1"
       inkscape:vp_y="0 : 1000 : 0"
       inkscape:vp_z="6.8718262 : 8.9887915 : 1"
       inkscape:persp3d-origin="3.4359131 : 5.9925276 : 1"
       id="perspective2560" />
  </defs>
  <sodipodi:namedview
     inkscape:window-height="708"
     inkscape:window-width="1024"
     inkscape:pageshadow="2"
     inkscape:pageopacity="0.0"
     guidetolerance="10.0"
     gridtolerance="10.0"
     objecttolerance="10.0"
     borderopacity="1.0"
     bordercolor="#666666"
     pagecolor="#ffffff"
     id="base"
     showgrid="false"
     showguides="true"
     inkscape:guide-bbox="true"
     inkscape:zoom="27.993043"
     inkscape:cx="8.71875"
     inkscape:cy="8.984375"
     inkscape:window-x="-4"
     inkscape:window-y="-4"
     inkscape:current-layer="svg2551" />
  <path
     style="fill:#000000;stroke:none"
     d="M 8.75,0 C 8.262322,0 7.5577153,0.10391267 6.65625,0.28125 C 5.7547847,0.45858733 5.3125,0.79526538 5.3125,1.3125 C 5.3125,1.5341713 5.3834687,1.7107466 5.53125,1.84375 C 6.1667087,1.84375 6.6089934,2.2860346 6.875,3.1875 C 7.141006,4.0889653 7.5106279,4.5312501 7.96875,4.53125 C 7.9674864,4.5436329 7.9700654,4.5810949 7.96875,4.59375 C 5.6202941,4.7342425 2.964655,5.5174335 0,6.96875 C 2.705679,8.2819668 5.1513167,9.0505155 7.34375,9.28125 C 7.1254352,11.187252 7.0718113,13.259182 7.21875,15.5 C 7.440422,17.155149 7.9519812,17.96875 8.75,17.96875 C 9.5480187,17.96875 10.059579,17.15515 10.28125,15.5 C 10.415944,13.259182 10.366518,11.187252 10.15625,9.28125 C 12.332862,9.0426086 14.757242,8.2696288 17.4375,6.96875 C 14.498416,5.5239062 11.850577,4.739436 9.5,4.59375 C 9.4984399,4.5811246 9.5015128,4.5436044 9.5,4.53125 L 9.53125,4.53125 C 9.989372,4.53125 10.358994,4.0889653 10.625,3.1875 C 10.891006,2.2860347 11.333291,1.8437499 11.96875,1.84375 C 12.116531,1.7107467 12.1875,1.5341714 12.1875,1.3125 C 12.1875,0.79526533 11.745215,0.45858734 10.84375,0.28125 C 9.9422847,0.10391267 9.2376779,6.9217028e-18 8.75,0 z M 8.75,0.75 C 9.740134,0.75 10.535569,0.89193729 11.15625,1.1875 C 10.476456,1.6308433 10.070503,2.167958 9.9375,2.78125 C 9.8044967,3.394542 9.6426999,3.7386092 9.40625,3.8125 C 9.1698,3.8863907 8.9784466,3.9375001 8.875,3.9375 L 8.875,4.5625 C 8.8235327,4.5618482 8.769922,4.5625 8.71875,4.5625 C 8.6882128,4.5625 8.6556475,4.5622654 8.625,4.5625 L 8.625,3.9375 C 8.5215533,3.9375 8.3375893,3.8863906 8.09375,3.8125 C 7.8499113,3.7386093 7.6642534,3.394542 7.53125,2.78125 C 7.3982467,2.167958 7.0087653,1.6308433 6.34375,1.1875 C 6.9644313,0.89193733 7.7598659,0.75000002 8.75,0.75 z M 8.5625,5.5 C 8.6133036,5.4993864 8.6681168,5.5 8.71875,5.5 C 8.7901154,5.5 8.8658339,5.4987973 8.9375,5.5 C 9.0381515,6.604056 9.1165532,7.5350792 9.1875,8.40625 C 9.0325708,8.4116621 8.8722876,8.4375 8.71875,8.4375 C 8.5864962,8.4375 8.4459167,8.41032 8.3125,8.40625 C 8.3834468,7.5350792 8.4618484,6.604056 8.5625,5.5 z M 7.84375,5.5625 C 7.7547779,6.2694444 7.6792217,6.9442449 7.5,8.125 C 7.4868716,8.2070522 7.4811494,8.2922796 7.46875,8.375 C 5.7984838,8.2212493 4.0648627,7.7379636 2.21875,6.96875 C 4.2028039,6.1184411 6.0628028,5.6816247 7.84375,5.5625 z M 9.65625,5.5625 C 11.427057,5.6886187 13.26936,6.128294 15.21875,6.96875 C 13.407165,7.728097 11.688607,8.184178 10.03125,8.34375 C 10.020746,8.2712769 10.011034,8.1969592 10,8.125 C 9.8209854,6.9456094 9.7527268,6.2691743 9.65625,5.5625 z M 8.21875,9.3125 C 8.3850938,9.3191441 8.5555564,9.34375 8.71875,9.34375 C 8.9023018,9.34375 9.093713,9.3209052 9.28125,9.3125 C 9.4005847,10.857522 9.4606416,12.045741 9.46875,12.71875 C 9.46875,15.482259 9.2376779,16.875 8.75,16.875 C 8.262322,16.875 8.03125,15.482259 8.03125,12.71875 C 8.0393585,12.045741 8.0994153,10.857522 8.21875,9.3125 z"
     id="path2553" />
</svg>
