<?xml version="1.0" encoding="UTF-8" standalone="no"?>
<svg
   xmlns:dc="http://purl.org/dc/elements/1.1/"
   xmlns:cc="http://creativecommons.org/ns#"
   xmlns:rdf="http://www.w3.org/1999/02/22-rdf-syntax-ns#"
   xmlns:svg="http://www.w3.org/2000/svg"
   xmlns="http://www.w3.org/2000/svg"
   xmlns:sodipodi="http://sodipodi.sourceforge.net/DTD/sodipodi-0.dtd"
   xmlns:inkscape="http://www.inkscape.org/namespaces/inkscape"
   width="18.862406"
   height="17.96875"
   id="svg2434"
   sodipodi:version="0.32"
   inkscape:version="0.46"
   sodipodi:docname="M122.svg"
   inkscape:output_extension="org.inkscape.output.svg.inkscape"
   version="1.0">
  <metadata
     id="metadata2441">
    <rdf:RDF>
      <cc:Work
         rdf:about="">
        <dc:format>image/svg+xml</dc:format>
        <dc:type
           rdf:resource="http://purl.org/dc/dcmitype/StillImage" />
      </cc:Work>
    </rdf:RDF>
  </metadata>
  <defs
     id="defs2439">
    <inkscape:perspective
       sodipodi:type="inkscape:persp3d"
       inkscape:vp_x="0 : 8.9887915 : 1"
       inkscape:vp_y="0 : 1000 : 0"
       inkscape:vp_z="6.8718262 : 8.9887915 : 1"
       inkscape:persp3d-origin="3.4359131 : 5.9925276 : 1"
       id="perspective2443" />
  </defs>
  <sodipodi:namedview
     inkscape:window-height="708"
     inkscape:window-width="1024"
     inkscape:pageshadow="2"
     inkscape:pageopacity="0.0"
     guidetolerance="10.0"
     gridtolerance="10.0"
     objecttolerance="10.0"
     borderopacity="1.0"
     bordercolor="#666666"
     pagecolor="#ffffff"
     id="base"
     showgrid="false"
     showguides="true"
     inkscape:guide-bbox="true"
     inkscape:zoom="25.698672"
     inkscape:cx="9.2982921"
     inkscape:cy="8.9887915"
     inkscape:window-x="-4"
     inkscape:window-y="-4"
     inkscape:current-layer="svg2434" />
  <path
     style="fill:#000000;stroke:none"
     d="M 9.4755404,0 C 8.9878624,0 8.2832557,0.10391267 7.3817904,0.28125 C 6.4803251,0.45858733 6.0380404,0.79526538 6.0380404,1.3125 C 6.0380404,1.5341713 6.1090091,1.7107466 6.2567904,1.84375 C 6.8922491,1.84375 7.3345337,2.2860346 7.6005404,3.1875 C 7.8665464,4.0889653 8.2361684,4.5312501 8.6942904,4.53125 C 8.637139,5.0913333 8.4825319,6.1954437 8.3192904,7.3125 C 7.8713849,7.2692224 7.4227351,7.2219353 6.9755404,7.125 C 5.349008,6.7724284 4.0191535,6.3141156 2.9755404,5.75 C 3.8593203,5.1482771 4.3751636,4.0916996 4.5067904,2.625 L 2.1942904,1.53125 C 1.9216343,1.3150063 1.8408688,0.83345767 1.9442904,0.0625 C 1.7750558,0.027242842 1.6292031,0.0071575568 1.4755404,0.03125 C 1.0145524,0.10352733 0.60888054,0.45607631 0.28804044,1.0625 C -0.13974716,1.8710651 -0.085261561,2.5205016 0.41304044,3 C 0.98655734,2.4828943 1.4401692,2.262177 1.7880404,2.375 L 3.0380404,3.1875 C 3.0474421,4.0430743 2.1493512,4.9038272 0.38179044,5.75 C 2.9127864,7.5980289 5.4940113,8.6131689 8.1005404,8.875 C 7.8800033,10.569233 7.8058705,12.411392 7.8817904,14.375 C 7.5900291,14.334615 7.2982498,14.313178 7.0067904,14.25 C 5.380258,13.897428 4.0504034,13.439116 3.0067904,12.875 C 3.8905703,12.273277 4.3751636,11.24795 4.5067904,9.78125 L 2.2255404,8.6875 C 1.9528843,8.4712563 1.872119,7.9584577 1.9755404,7.1875 C 1.8063058,7.1522429 1.6292031,7.1634076 1.4755404,7.1875 C 1.0145524,7.2597773 0.64013064,7.5810762 0.31929044,8.1875 C -0.10849716,8.9960651 -0.085261461,9.6455018 0.41304044,10.125 C 0.98655734,9.6078941 1.4401694,9.4184268 1.7880404,9.53125 L 3.0380404,10.3125 C 3.0474421,11.168074 2.1806009,12.028827 0.41304044,12.875 C 2.9223335,14.707183 5.4545041,15.758179 8.0380404,16.03125 C 8.294484,17.307827 8.7739855,17.96875 9.4755404,17.96875 C 10.177095,17.96875 10.631186,17.307827 10.88179,16.03125 C 13.454643,15.747577 15.976338,14.691882 18.47554,12.875 C 16.707979,12.028827 15.841144,11.168074 15.85054,10.3125 L 17.06929,9.53125 C 17.417158,9.4184269 17.870771,9.6078945 18.44429,10.125 C 18.951994,9.6455014 19.001777,8.996065 18.56929,8.1875 C 18.1368,7.3789351 17.589976,7.0464714 16.91304,7.1875 C 17.016459,7.9584577 16.935699,8.4712558 16.66304,8.6875 L 14.35054,9.78125 C 14.482167,11.24795 14.988608,12.273277 15.88179,12.875 C 14.856982,13.429713 13.517725,13.892727 11.88179,14.25 C 11.588646,14.31402 11.299633,14.333773 11.00679,14.375 C 11.075852,12.411225 11.031266,10.56936 10.81929,8.875 C 13.405132,8.5974957 15.964074,7.5757979 18.47554,5.75 C 16.707979,4.9038272 15.809892,4.0430744 15.81929,3.1875 L 17.06929,2.375 C 17.417158,2.2621769 17.870771,2.4828943 18.44429,3 C 18.951994,2.5205016 18.970527,1.8710651 18.53804,1.0625 C 18.213673,0.45607632 17.843659,0.10352733 17.38179,0.03125 C 17.227834,0.0071575557 17.051024,0.027242843 16.88179,0.0625 C 16.985209,0.83345767 16.904449,1.3150063 16.63179,1.53125 L 14.31929,2.625 C 14.450917,4.0916996 14.988607,5.1482771 15.88179,5.75 C 14.856981,6.3047132 13.517725,6.7364769 11.88179,7.09375 C 11.451888,7.1876366 11.029793,7.2676331 10.60054,7.3125 C 10.43471,6.1954437 10.294122,5.0913333 10.22554,4.53125 C 10.683662,4.53125 11.053284,4.0889652 11.31929,3.1875 C 11.585296,2.2860347 12.027581,1.8437499 12.66304,1.84375 C 12.810822,1.7107467 12.881791,1.5341713 12.88179,1.3125 C 12.88179,0.79526533 12.439506,0.45858734 11.53804,0.28125 C 10.636575,0.10391267 9.9632184,6.8846838e-18 9.4755404,0 z M 1.5067904,0.53125 C 1.4033695,1.1423749 1.5803907,1.5804961 2.0692904,1.84375 L 4.0692904,2.875 C 3.9282616,4.3511011 3.250888,5.3269135 2.0380404,5.75 C 4.0417667,6.9188405 6.1185749,7.5696591 8.2567904,7.75 C 8.2324223,7.9131466 8.220604,7.9516397 8.1942904,8.125 C 8.1827769,8.1969592 8.1739933,8.2712769 8.1630404,8.34375 C 5.8280388,8.1128035 3.5527781,7.273558 1.3192904,5.75 C 2.7295781,4.9884443 3.4752716,4.062417 3.5692904,3 L 1.9442904,2.09375 C 1.4553912,1.8398986 0.97993034,1.911262 0.53804044,2.34375 C 0.38760974,2.118104 0.43103674,1.7748506 0.69429044,1.28125 C 0.95754434,0.7876487 1.2435367,0.53125002 1.5067904,0.53125 z M 17.35054,0.53125 C 17.623198,0.53125 17.868537,0.78764868 18.13179,1.28125 C 18.395045,1.7748506 18.44787,2.118104 18.28804,2.34375 C 17.846149,1.911262 17.401941,1.8398985 16.91304,2.09375 L 15.28804,3 C 15.382058,4.0624171 16.105902,4.9884443 17.50679,5.75 C 15.300863,7.2601507 13.069102,8.103561 10.75679,8.34375 C 10.746286,8.2712769 10.736574,8.1969592 10.72554,8.125 C 10.699227,7.9516397 10.687571,7.9131466 10.66304,7.75 C 12.779097,7.5618687 14.835114,6.9074371 16.81929,5.75 C 15.597041,5.3269135 14.919667,4.3511012 14.78804,2.875 L 16.78804,1.84375 C 17.267538,1.5804961 17.453962,1.1423749 17.35054,0.53125 z M 9.4755404,0.75 C 10.465674,0.75 11.261109,0.89193729 11.88179,1.1875 C 11.201996,1.6308433 10.796043,2.167958 10.66304,2.78125 C 10.530037,3.394542 10.336991,3.7386092 10.10054,3.8125 C 9.8640904,3.8863907 9.7039871,3.9375001 9.6005404,3.9375 L 9.6005404,4.6875 C 9.9847717,8.810596 10.179512,11.492167 10.19429,12.71875 C 10.19429,15.482259 9.9632184,16.875 9.4755404,16.875 C 8.9878624,16.875 8.7255404,15.482259 8.7255404,12.71875 C 8.7403184,11.492167 8.9350591,8.8105961 9.3192904,4.6875 L 9.3192904,3.9375 C 9.2158437,3.9375 9.0631298,3.8863906 8.8192904,3.8125 C 8.5754517,3.7386093 8.3897938,3.394542 8.2567904,2.78125 C 8.1237871,2.167958 7.7030557,1.6308433 7.0380404,1.1875 C 7.6587217,0.89193733 8.4854064,0.75000002 9.4755404,0.75 z M 1.5067904,7.65625 C 1.4033695,8.2673749 1.6116407,8.7054961 2.1005404,8.96875 L 4.0692904,10.03125 C 3.9282616,11.507351 3.2508882,12.451914 2.0380404,12.875 C 3.9332723,13.980552 5.8974893,14.622549 7.9130404,14.84375 C 7.9236177,15.054996 7.9303836,15.254301 7.9442904,15.46875 C 5.696224,15.201517 3.4729682,14.344116 1.3192904,12.875 C 2.7295781,12.113444 3.5065215,11.187417 3.6005404,10.125 L 1.9442904,9.21875 C 1.4553912,8.9648986 1.0111805,9.0675115 0.56929044,9.5 C 0.41885974,9.274354 0.46228694,8.8998508 0.72554044,8.40625 C 0.98879434,7.9126487 1.2435368,7.6562498 1.5067904,7.65625 z M 17.35054,7.65625 C 17.623198,7.65625 17.899787,7.9126489 18.16304,8.40625 C 18.426295,8.8998506 18.47912,9.2743535 18.31929,9.5 C 17.877399,9.067512 17.401941,8.9648983 16.91304,9.21875 L 15.28804,10.125 C 15.382058,11.187417 16.137152,12.113444 17.53804,12.875 C 15.401846,14.337413 13.211499,15.197277 10.97554,15.46875 C 10.988296,15.254151 10.99712,15.055142 11.00679,14.84375 C 13.007429,14.617959 14.937298,13.97283 16.81929,12.875 C 15.597041,12.451914 14.919666,11.507351 14.78804,10.03125 L 16.78804,8.96875 C 17.267538,8.7054961 17.453962,8.2673747 17.35054,7.65625 z"
     id="path2515" />
</svg>
