<?xml version="1.0" encoding="UTF-8" standalone="no"?>
<svg
   xmlns:dc="http://purl.org/dc/elements/1.1/"
   xmlns:cc="http://web.resource.org/cc/"
   xmlns:rdf="http://www.w3.org/1999/02/22-rdf-syntax-ns#"
   xmlns:svg="http://www.w3.org/2000/svg"
   xmlns="http://www.w3.org/2000/svg"
   xmlns:sodipodi="http://inkscape.sourceforge.net/DTD/sodipodi-0.dtd"
   xmlns:inkscape="http://www.inkscape.org/namespaces/inkscape"
   width="8.7299995pt"
   height="14.210001pt"
   id="svg1402"
   sodipodi:version="0.32"
   inkscape:version="0.43"
   sodipodi:docname="US22M138.svg"
   sodipodi:docbase="C:\Program Files\JSesh\fonts\envoi23_SR"
   version="1.0">
  <metadata
     id="metadata1409">
    <rdf:RDF>
      <cc:Work
         rdf:about="">
        <dc:format>image/svg+xml</dc:format>
        <dc:type
           rdf:resource="http://purl.org/dc/dcmitype/StillImage" />
        <dc:title>US22M138</dc:title>
        <dc:creator>
          <cc:Agent>
            <dc:title>Serge Thomas</dc:title>
          </cc:Agent>
        </dc:creator>
        <dc:date>02/03/06</dc:date>
        <dc:publisher>
          <cc:Agent>
            <dc:title>Serge Rosmorduc</dc:title>
          </cc:Agent>
        </dc:publisher>
        <cc:license
           rdf:resource="http://creativecommons.org/licenses/GPL/2.0/" />
      </cc:Work>
      <cc:License
         rdf:about="http://creativecommons.org/licenses/GPL/2.0/">
        <cc:permits
           rdf:resource="http://web.resource.org/cc/Reproduction" />
        <cc:permits
           rdf:resource="http://web.resource.org/cc/Distribution" />
        <cc:requires
           rdf:resource="http://web.resource.org/cc/Notice" />
        <cc:permits
           rdf:resource="http://web.resource.org/cc/DerivativeWorks" />
        <cc:requires
           rdf:resource="http://web.resource.org/cc/ShareAlike" />
        <cc:requires
           rdf:resource="http://web.resource.org/cc/SourceCode" />
      </cc:License>
    </rdf:RDF>
  </metadata>
  <defs
     id="defs1407" />
  <sodipodi:namedview
     inkscape:window-height="708"
     inkscape:window-width="1024"
     inkscape:pageshadow="2"
     inkscape:pageopacity="0.0"
     borderopacity="1.0"
     bordercolor="#666666"
     pagecolor="#ffffff"
     id="base"
     showguides="true"
     inkscape:guide-bbox="true"
     inkscape:zoom="30.349099"
     inkscape:cx="5.52892"
     inkscape:cy="8.8825008"
     inkscape:window-x="-4"
     inkscape:window-y="-4"
     inkscape:current-layer="svg1402" />
  <g
     id="g1484">
    <path
       id="path1404"
       d="M 3.242714,17.76 L 7.82853,17.76 L 7.56027,13.062015 L 6.770305,12.686875 C 7.074191,10.609756 7.954987,7.390285 8.380217,6.387971 C 9.504051,6.20578 10.081135,5.415992 10.361919,4.605568 L 9.624336,4.284926 L 9.483239,3.078551 L 8.329069,3.765691 L 7.286894,3.47221 C 7.165375,4.413677 7.377902,5.568023 7.711948,6.08426 C 7.379489,7.042659 6.375763,9.911152 6.193396,12.675058 L 6.071877,13.039615 L 5.829014,12.918097 L 5.829014,3.745584 C 6.375763,3.34099 7.013519,2.500231 7.165375,1.406909 L 6.284579,1.072863 L 5.494791,4.0207062e-009 L 4.735516,1.194206 L 3.915392,1.315725 C 3.97624,2.520866 4.705179,3.371326 5.160746,3.715249 L 5.160746,12.948431 L 4.978554,12.857425 C 4.796187,11.095835 4.012396,7.523798 3.399155,6.114596 C 3.885056,5.112281 3.733201,3.958111 3.642017,3.532882 L 3.025073,3.87557 L 1.703351,3.034282 L 1.414808,4.348949 L 0.695921,4.7479 C 0.908448,5.324984 1.789419,6.296964 2.70055,6.418307 C 3.186452,7.78518 4.036912,10.670428 4.249614,12.735906 L 3.702865,13.092351 L 3.242714,17.76 M 4.006576,16.980089 L 4.346265,13.663085 C 4.482776,14.236291 5.205896,14.495556 5.560754,13.553912 C 5.942949,14.290787 6.557072,14.359045 6.892,13.699772 L 7.013519,16.980089 L 4.006576,16.980089 M 2.859989,5.964152 C 2.502839,5.854273 1.843212,5.359553 1.540913,4.86501 L 2.585204,5.249674 L 3.050294,4.39022 C 3.162465,4.727617 3.05241,5.524459 2.859989,5.964152 M 8.790631,4.701867 L 8.59821,4.252827 L 9.143372,3.707665 L 9.175473,4.541369 L 8.790631,4.701867 M 5.519836,1.967415 L 5.198842,1.559117 L 5.525127,0.91113101 L 5.840302,1.527018 L 5.519836,1.967415 M 2.39296,4.782468 L 1.880427,4.403976 L 1.97161,3.705372 L 2.51836,4.130602 L 2.39296,4.782468 M 8.329069,5.881786 C 8.026771,5.524459 7.916892,4.56271 7.889376,4.095504 L 8.631368,5.139795 L 9.624336,4.701867 C 9.510753,5.139795 8.823789,5.716881 8.329069,5.881786 M 5.583683,3.290725 C 5.113654,2.823343 4.756327,2.136202 4.58366,1.822439 L 5.525127,2.642386 L 6.405923,1.670407 C 6.229552,2.363191 5.855645,2.905708 5.583683,3.290725"
       style="fill:#000000;stroke:none" />
    <path
       sodipodi:nodetypes="ccccccccccccccccccc"
       id="path1490"
       d="M 4.5654303,13.518644 C 4.4602443,13.304114 3.3692843,11.60803 3.2333093,11.385128 C 3.0301603,11.102986 2.7510656,10.589471 2.5119889,10.557674 C 2.0774609,10.552802 1.5927389,12.812164 1.3763989,13.160367 C 0.87234486,13.823227 0.98021586,14.207077 0.98689386,14.560907 C 0.94437386,15.022197 1.0398259,15.744696 1.4361769,15.817846 C 1.8394439,15.873966 2.0951269,15.152867 2.2490329,14.759947 C 2.3348839,14.528537 2.6229613,14.068917 2.2249869,13.311497 C 2.1497359,13.013177 2.4392249,12.229957 2.5146309,12.010924 C 2.572801,11.573591 2.9272336,11.974908 3.0358896,12.204445 C 3.155121,12.424419 3.9106466,13.620188 4.0433429,13.858449 C 4.0579019,14.163109 4.7423503,13.767204 4.5654303,13.518644 z M 1.4973349,15.383597 C 1.3248969,15.379237 1.3298249,14.443567 1.4046689,13.931087 C 1.6226219,13.561297 1.6750709,13.328957 1.7979139,12.720775 C 1.8914169,12.468463 2.0421959,11.975357 2.1465559,12.002219 C 2.2227269,12.021223 2.0977099,12.451347 2.0244309,12.777622 C 1.9120929,13.372847 1.9593849,13.652347 2.0552239,14.068537 C 1.9469669,14.724717 1.6592639,15.419367 1.4973349,15.383597 z "
       style="fill:#000000" />
    <path
       sodipodi:nodetypes="ccccccccccccccccccc"
       id="path1482"
       d="M 6.7018695,13.499152 C 6.8070555,13.284622 7.8980155,11.588537 8.0339905,11.365635 C 8.2371392,11.083493 8.5162339,10.569978 8.7553109,10.538181 C 9.1898382,10.533309 9.6745603,12.792672 9.8909003,13.140875 C 10.394955,13.803735 10.287084,14.187585 10.280406,14.541415 C 10.322926,15.002705 10.227474,15.725204 9.8311223,15.798354 C 9.4278553,15.854474 9.1721722,15.133375 9.0182662,14.740455 C 8.9324152,14.509045 8.6443382,14.049425 9.0423122,13.292005 C 9.1175632,12.993685 8.8280742,12.210465 8.7526682,11.991432 C 8.6944985,11.554098 8.3400659,11.955416 8.2314099,12.184953 C 8.1121785,12.404927 7.3566525,13.600696 7.2239565,13.838957 C 7.2093975,14.143617 6.5249495,13.747712 6.7018695,13.499152 z M 9.7699643,15.364105 C 9.9424023,15.359745 9.9374743,14.424075 9.8626303,13.911595 C 9.6446773,13.541805 9.5922283,13.309465 9.4693853,12.701283 C 9.3758823,12.448971 9.2251035,11.955865 9.1207435,11.982727 C 9.0445724,12.001731 9.1695898,12.431855 9.2428682,12.75813 C 9.3552066,13.353355 9.3079142,13.632855 9.2120752,14.049045 C 9.3203322,14.705225 9.6080353,15.399875 9.7699643,15.364105 z "
       style="fill:#000000" />
  </g>
</svg>
