<?xml version="1.0" encoding="UTF-8" standalone="no"?>
<svg
   xmlns:dc="http://purl.org/dc/elements/1.1/"
   xmlns:cc="http://web.resource.org/cc/"
   xmlns:rdf="http://www.w3.org/1999/02/22-rdf-syntax-ns#"
   xmlns:svg="http://www.w3.org/2000/svg"
   xmlns="http://www.w3.org/2000/svg"
   xmlns:sodipodi="http://sodipodi.sourceforge.net/DTD/sodipodi-0.dtd"
   xmlns:inkscape="http://www.inkscape.org/namespaces/inkscape"
   width="1800"
   height="1800"
   id="svg1333"
   sodipodi:version="0.32"
   inkscape:version="0.44"
   sodipodi:docname="M139.svg"
   sodipodi:docbase="/home/rosmord/Travail/Gsigns/SThomasDetail/ManuelDeCodage/M"
   version="1.0">
  <metadata
     id="metadata1340">
    <rdf:RDF>
      <cc:Work
         rdf:about="">
        <dc:format>image/svg+xml</dc:format>
        <dc:type
           rdf:resource="http://purl.org/dc/dcmitype/StillImage" />
        <dc:title>US22M139B</dc:title>
        <dc:creator>
          <cc:Agent>
            <dc:title>Serge Thomas</dc:title>
          </cc:Agent>
        </dc:creator>
        <dc:date>02/03/06</dc:date>
        <dc:publisher>
          <cc:Agent>
            <dc:title>Serge Rosmorduc</dc:title>
          </cc:Agent>
        </dc:publisher>
        <cc:license
           rdf:resource="http://creativecommons.org/licenses/GPL/2.0/" />
      </cc:Work>
      <cc:License
         rdf:about="http://creativecommons.org/licenses/GPL/2.0/">
        <cc:permits
           rdf:resource="http://web.resource.org/cc/Reproduction" />
        <cc:permits
           rdf:resource="http://web.resource.org/cc/Distribution" />
        <cc:requires
           rdf:resource="http://web.resource.org/cc/Notice" />
        <cc:permits
           rdf:resource="http://web.resource.org/cc/DerivativeWorks" />
        <cc:requires
           rdf:resource="http://web.resource.org/cc/ShareAlike" />
        <cc:requires
           rdf:resource="http://web.resource.org/cc/SourceCode" />
      </cc:License>
    </rdf:RDF>
  </metadata>
  <defs
     id="defs1338" />
  <sodipodi:namedview
     inkscape:window-height="708"
     inkscape:window-width="1024"
     inkscape:pageshadow="2"
     inkscape:pageopacity="0.0"
     borderopacity="1.0"
     bordercolor="#666666"
     pagecolor="#ffffff"
     id="base"
     inkscape:zoom="0.13972222"
     inkscape:cx="628.19421"
     inkscape:cy="221.57044"
     inkscape:window-x="139"
     inkscape:window-y="33"
     inkscape:current-layer="svg1333"
     width="1800px"
     height="1800px" />
  <path
     style="fill:black;stroke:none"
     d="M 549.78125 5.78125 C 483.67036 5.7812504 417.57962 25.355438 351.46875 64.5 C 328.85189 80.15788 328.85189 94.925647 351.46875 108.84375 C 426.27845 150.59798 474.97688 212.35632 497.59375 294.125 C 497.59375 311.52259 493.66541 333.27858 505.84375 359.375 C 517.84467 494.81389 521.24404 724.63146 509.6875 1195.7812 C 499.29397 1196.7257 489.15889 1198.0734 479.28125 1199.8125 C 487.47703 1181.2587 485.74985 1157.6163 476.3125 1095.0938 C 441.51725 905.4599 404.99343 822.14531 366.71875 724.71875 C 328.444 627.29224 305.35293 572.49082 317.53125 560.3125 C 312.31199 476.80397 336.66121 401.98587 390.59375 335.875 C 406.25156 313.25814 401.03386 299.34427 374.9375 294.125 C 223.57838 268.02858 100.947 315.87305 7 437.65625 C -10.397591 458.5334 -5.1798833 471.59324 22.65625 476.8125 C 106.16472 488.99082 175.7339 531.61755 231.40625 604.6875 C 243.58457 599.46823 268.3764 637.28868 305.78125 718.1875 C 343.18603 799.08636 379.29857 889.80052 414.09375 1110.75 C 419.2248 1150.3323 406.59733 1179.5502 389.875 1203.125 C 362.93026 1159.0761 304.59805 1068.2458 295.8125 1053.8438 C 279.48739 1031.1706 257.05615 989.89895 237.84375 987.34375 C 202.92494 986.95225 163.97895 1168.5182 146.59375 1196.5 C 106.08764 1249.7677 114.74465 1280.6285 115.28125 1309.0625 C 111.86435 1346.132 119.55525 1404.1842 151.40625 1410.0625 C 183.81296 1414.5724 204.35085 1356.6378 216.71875 1325.0625 C 223.61775 1306.4663 246.76265 1269.5229 214.78125 1208.6562 C 208.73405 1184.6831 232.0028 1121.7266 238.0625 1104.125 C 242.73711 1068.9806 271.2058 1101.2418 279.9375 1119.6875 C 288.45755 1135.4063 337.32357 1213.01 355.5625 1243.5 C 348.70266 1251.1822 342.7125 1258.4215 338.625 1265.5312 C 329.7214 1273.3402 321.19712 1281.7854 313.125 1290.875 C 255.83238 1355.3893 227.1875 1426.1554 227.1875 1503.1875 C 227.1875 1589.8485 260.64091 1663.7308 327.5625 1724.875 C 394.48414 1786.0193 466.94255 1817.0997 544.9375 1818.0625 C 639.30172 1817.0997 716.09414 1784.5954 775.3125 1720.5625 C 834.53091 1656.5297 864.15625 1584.0712 864.15625 1503.1875 L 862.71875 1506.0625 C 863.68165 1432.8821 834.53094 1362.5906 775.3125 1295.1875 C 770.67612 1289.9103 765.96502 1284.8328 761.125 1279.9688 C 760.05344 1272.4742 756.386 1265.1163 751.1875 1257.5 C 751.93152 1256.2156 752.40463 1254.5893 752.5 1252.5938 C 763.1635 1233.447 823.85603 1137.3647 833.4375 1119.6875 C 842.1692 1101.2418 870.66917 1068.9806 875.34375 1104.125 C 881.40345 1121.7266 904.67218 1184.6831 898.625 1208.6562 C 866.6436 1269.5229 889.78849 1306.4663 896.6875 1325.0625 C 909.0554 1356.6378 929.59332 1414.5724 962 1410.0625 C 993.851 1404.1842 1001.5419 1346.132 998.125 1309.0625 C 998.6616 1280.6285 1007.3186 1249.7677 966.8125 1196.5 C 949.4273 1168.5182 910.48132 986.95225 875.5625 987.34375 C 856.3501 989.89895 833.91886 1031.1706 817.59375 1053.8438 C 807.94433 1069.6619 738.53376 1177.682 716.59375 1214.625 C 696.91706 1189.1442 678.5671 1157.0314 680.28125 1110.75 C 716.81621 891.54025 753.78264 801.71132 791.1875 720.8125 C 828.59228 639.91364 852.53014 601.20792 862.96875 604.6875 C 920.38086 533.35728 990.83532 491.5845 1074.3438 479.40625 C 1102.1798 474.18691 1107.3976 460.27312 1090 437.65625 C 996.05299 315.87304 873.39042 268.9138 722.03125 296.75 C 694.19511 301.96926 688.97741 315.88313 706.375 338.5 C 760.30755 402.87109 774.62551 477.68926 769.40625 562.9375 C 781.58457 573.3761 768.11328 627.29224 728.96875 724.71875 C 689.82411 822.14531 653.71168 906.3139 620.65625 1097.6875 C 615.74884 1161.4839 609.83884 1183.8674 612.25 1200.0625 C 605.22578 1198.6996 598.09823 1197.5519 590.84375 1196.6562 C 578.99226 720.66013 578.19137 495.51702 588.53125 359.375 C 600.70957 333.27858 596.78123 311.5226 596.78125 294.125 C 622.87767 212.35631 673.31527 150.59798 748.125 108.84375 C 770.74185 94.925647 770.74183 80.157883 748.125 64.5 C 682.01409 25.355436 615.89214 5.7812496 549.78125 5.78125 z M 549.78125 60.15625 C 591.73579 60.15625 633.71395 71.034278 680.6875 92.78125 C 689.38627 96.260809 689.38624 99.73926 680.6875 103.21875 C 621.53568 144.97298 587.20089 189.74311 557.625 257.59375 L 539.34375 257.59375 C 513.24733 189.7431 479.79785 144.97298 418.90625 103.21875 C 410.20748 99.739263 410.20748 96.260811 418.90625 92.78125 C 465.87975 71.034278 507.82671 60.15625 549.78125 60.15625 z M 281.4375 339.59375 C 292.98268 339.46047 305.10677 339.84887 317.9375 340.71875 C 326.63633 340.71875 328.3755 344.1972 323.15625 351.15625 C 281.40202 410.30808 260.53124 450.63754 260.53125 532.40625 L 244.875 540.25 C 192.68222 477.61862 160.16367 457.67884 87.09375 440.28125 C 80.1347 440.28125 79.249476 437.65678 84.46875 432.4375 C 148.40493 366.97901 200.62125 340.52671 281.4375 339.59375 z M 815.5625 341.625 C 896.37875 341.41622 948.56375 368.08176 1012.5 435.0625 C 1017.7192 440.28184 1015.98 442.87501 1007.2812 442.875 C 935.95105 458.53282 904.31775 477.61863 852.125 540.25 L 836.46875 535.03125 C 836.46875 453.26256 815.56674 412.04784 773.8125 351.15625 C 768.59323 345.93699 770.33249 343.31251 779.03125 343.3125 C 791.86198 342.22515 804.01732 341.65483 815.5625 341.625 z M 207.6875 1103.3438 C 207.95661 1103.3315 208.20667 1103.37 208.46875 1103.4375 C 214.58985 1104.9646 204.54495 1139.5304 198.65625 1165.75 C 189.62866 1213.5826 193.45465 1236.0547 201.15625 1269.5 C 192.45665 1322.2309 169.3252 1378.0307 156.3125 1375.1562 C 142.4553 1374.8058 142.8605 1299.6207 148.875 1258.4375 C 166.3898 1228.721 170.59695 1210.0613 180.46875 1161.1875 C 187.74783 1141.5451 199.3452 1103.7247 207.6875 1103.3438 z M 905.71875 1103.3438 C 914.06105 1103.7247 925.65842 1141.5451 932.9375 1161.1875 C 942.8093 1210.0613 947.01643 1228.721 964.53125 1258.4375 C 970.54575 1299.6207 970.95094 1374.8058 957.09375 1375.1562 C 944.08105 1378.0307 920.94961 1322.2309 912.25 1269.5 C 919.9516 1236.0547 923.74637 1213.5826 914.71875 1165.75 C 908.83005 1139.5304 898.78513 1104.9646 904.90625 1103.4375 C 905.16832 1103.37 905.44964 1103.3315 905.71875 1103.3438 z M 547.125 1241.75 C 584.67812 1241.75 622.94005 1249.9432 661.9375 1266.3125 L 550.71875 1378.9688 L 436.625 1266.3125 C 472.73377 1249.9432 509.57188 1241.75 547.125 1241.75 z M 393.28125 1299.5312 L 547.84375 1454.0625 L 702.375 1299.5312 C 725.48464 1310.1231 743.80067 1328.408 757.28125 1354.4062 L 604.15625 1508.9688 L 755.8125 1660.625 C 743.29482 1685.6604 724.5354 1703.9451 699.5 1715.5 L 547.84375 1563.8438 L 399.0625 1712.625 C 374.0271 1697.2185 355.74232 1678.4279 344.1875 1656.2812 L 492.96875 1508.9688 L 336.96875 1352.9688 C 347.56065 1327.9334 366.32001 1310.1232 393.28125 1299.5312 z M 303.75 1389.0625 L 416.40625 1501.75 L 303.75 1614.4062 C 271.01137 1536.4112 271.01137 1461.2801 303.75 1389.0625 z M 790.5 1394.8438 C 823.23861 1472.8388 823.23862 1547.97 790.5 1620.1875 L 677.84375 1507.5 L 790.5 1394.8438 z M 550.71875 1634.625 L 663.375 1747.2812 C 590.19457 1780.0199 515.09453 1780.02 438.0625 1747.2812 L 550.71875 1634.625 z "
     id="path1335" />
</svg>
