<?xml version="1.0" encoding="UTF-8" standalone="no"?>
<svg
   xmlns:dc="http://purl.org/dc/elements/1.1/"
   xmlns:cc="http://creativecommons.org/ns#"
   xmlns:rdf="http://www.w3.org/1999/02/22-rdf-syntax-ns#"
   xmlns:svg="http://www.w3.org/2000/svg"
   xmlns="http://www.w3.org/2000/svg"
   xmlns:sodipodi="http://sodipodi.sourceforge.net/DTD/sodipodi-0.dtd"
   xmlns:inkscape="http://www.inkscape.org/namespaces/inkscape"
   width="14.325253"
   height="17.977583"
   id="svg2434"
   sodipodi:version="0.32"
   inkscape:version="0.46"
   sodipodi:docname="M154.svg"
   inkscape:output_extension="org.inkscape.output.svg.inkscape">
  <metadata
     id="metadata2441">
    <rdf:RDF>
      <cc:Work
         rdf:about="">
        <dc:format>image/svg+xml</dc:format>
        <dc:type
           rdf:resource="http://purl.org/dc/dcmitype/StillImage" />
      </cc:Work>
    </rdf:RDF>
  </metadata>
  <defs
     id="defs2439">
    <inkscape:perspective
       sodipodi:type="inkscape:persp3d"
       inkscape:vp_x="0 : 8.9887915 : 1"
       inkscape:vp_y="0 : 1000 : 0"
       inkscape:vp_z="14.325253 : 8.9887915 : 1"
       inkscape:persp3d-origin="7.1626263 : 5.9925276 : 1"
       id="perspective2443" />
  </defs>
  <sodipodi:namedview
     inkscape:window-height="708"
     inkscape:window-width="1024"
     inkscape:pageshadow="2"
     inkscape:pageopacity="0.0"
     guidetolerance="10.0"
     gridtolerance="10.0"
     objecttolerance="10.0"
     borderopacity="1.0"
     bordercolor="#666666"
     pagecolor="#ffffff"
     id="base"
     showgrid="false"
     inkscape:zoom="25.698672"
     inkscape:cx="5.7706858"
     inkscape:cy="7.9228738"
     inkscape:window-x="-4"
     inkscape:window-y="-4"
     inkscape:current-layer="svg2434" />
  <path
     style="fill:#000000; stroke:none"
     d="M 5.375 0 C 4.5768987 0 3.8806408 0.27561001 3.3125 0.84375 C 3.2313373 0.694952 2.9692547 0.73459336 2.46875 0.9375 C 1.9006093 1.167462 1.4319287 1.167462 1.09375 0.9375 C 0.80968 0.95102733 0.69169602 1.117044 0.71875 1.46875 C 0.74580467 1.820456 0.8857073 2.0918701 1.15625 2.28125 C 0.66927267 2.7141187 0.43750001 3.2089141 0.4375 3.75 C 0.978586 3.8987987 1.5036907 3.8027328 2.03125 3.4375 C 2.152994 3.748624 2.3805714 3.9475185 2.71875 4.0625 C 3.0569287 4.1774807 3.2625867 4.0965707 3.34375 3.8125 C 3.1949513 3.43374 3.3222673 2.9937408 3.6875 2.5 C 4.0527333 2.0062587 4.0872387 1.62782 3.84375 1.34375 C 4.357782 0.93793533 4.8744962 0.71874999 5.375 0.71875 C 6.2948467 0.70522267 6.7499999 1.0862292 6.75 1.84375 L 6.75 9.5 C 6.492984 9.0671313 5.928238 8.84375 5.0625 8.84375 C 4.1967627 8.84375 3.5839834 9.1370823 3.21875 9.71875 C 3.1511147 9.6240607 2.9235373 9.6856202 2.53125 9.875 C 1.9631093 10.104961 1.5256787 10.104961 1.1875 9.875 C 0.90343 9.875 0.75419597 10.023295 0.78125 10.375 C 0.80830467 10.726706 0.97945737 10.99812 1.25 11.1875 C 0.76302267 11.620369 0.49999999 12.132887 0.5 12.6875 C 1.041086 12.822771 1.5974413 12.708983 2.125 12.34375 C 2.2332173 12.654875 2.4363074 12.853769 2.78125 12.96875 C 3.126192 13.083731 3.3386139 13.00282 3.40625 12.71875 C 3.2709787 12.339989 3.3847674 11.924477 3.75 11.4375 C 4.1152333 10.950523 4.1767934 10.507957 3.90625 10.15625 C 4.2038473 9.7639633 4.5932455 9.5625002 5.09375 9.5625 C 5.5942547 9.5625 6.0081392 9.7884489 6.3125 10.1875 C 6.6168613 10.586551 6.7499999 10.964989 6.75 11.34375 L 6.75 14.09375 C 4.77531 14.173927 2.5159949 14.799569 0 16.03125 C 2.6911795 17.337431 5.0843799 18 7.15625 18 C 9.2281205 18 11.590067 17.337431 14.28125 16.03125 C 11.789156 14.806146 9.5697744 14.179615 7.59375 14.09375 L 7.59375 11.34375 C 7.59375 10.964989 7.7513756 10.586551 8.0625 10.1875 C 8.3736253 9.7884493 8.7807455 9.5625002 9.28125 9.5625 C 9.7682273 9.5625 10.153431 9.7774901 10.4375 10.15625 C 10.180485 10.494429 10.259767 10.912509 10.625 11.40625 C 10.990233 11.899991 11.086299 12.30874 10.9375 12.6875 C 11.018663 12.97157 11.224321 13.059244 11.5625 12.9375 C 11.900679 12.815755 12.128256 12.610097 12.25 12.3125 C 12.777559 12.677733 13.302665 12.805049 13.84375 12.65625 C 13.84375 12.115165 13.611977 11.620369 13.125 11.1875 C 13.395543 10.99812 13.535446 10.726706 13.5625 10.375 C 13.589555 10.023294 13.47157 9.8260272 13.1875 9.8125 C 12.849321 10.042461 12.41189 10.042461 11.84375 9.8125 C 11.464989 9.6095933 11.223886 9.565756 11.15625 9.6875 C 10.77749 9.1193593 10.164711 8.84375 9.3125 8.84375 C 8.446762 8.84375 7.8642926 9.0671309 7.59375 9.5 L 7.59375 1.84375 C 7.59375 0.61277933 6.8629869 2.1353937e-18 5.375 0 z M 3.09375 1.15625 C 3.2712938 1.1680862 3.40531 1.2397287 3.5 1.375 C 3.7029073 1.632016 3.6439152 1.9843408 3.3125 2.4375 C 2.9810847 2.89066 2.8605327 3.3045439 2.96875 3.65625 C 2.9822773 3.7238853 2.8946034 3.7171219 2.71875 3.65625 C 2.5428973 3.595378 2.4291086 3.45128 2.375 3.1875 C 2.3208913 2.9237213 2.3621608 2.6606988 2.53125 2.4375 C 2.7003393 2.214302 2.7551353 2.0811626 2.6875 2 C 2.6333913 1.9323647 2.4757659 1.9297968 2.21875 2.03125 C 1.961734 2.1327033 1.7122387 2.1462306 1.46875 2.03125 C 1.2252613 1.9162693 1.1072773 1.7451167 1.09375 1.5625 C 1.0802227 1.3798833 1.1021413 1.3166953 1.15625 1.34375 C 1.480902 1.5466573 1.9167047 1.5356981 2.4375 1.3125 C 2.6978976 1.200901 2.9162062 1.1444138 3.09375 1.15625 z M 2.15625 2.40625 C 1.9803973 2.6091573 1.8927233 2.7928966 1.90625 2.96875 C 1.649234 3.1716567 1.4148933 3.3208914 1.21875 3.375 C 1.022606 3.4291087 0.93330401 3.4400674 0.90625 3.40625 C 0.87919533 3.372432 0.89854605 3.2696034 1 3.09375 C 1.1014533 2.9178973 1.2919567 2.72063 1.5625 2.53125 C 1.724826 2.5853587 1.9262888 2.5415219 2.15625 2.40625 z M 11.1875 10.03125 C 11.365044 10.019414 11.614602 10.075901 11.875 10.1875 C 12.395795 10.410698 12.800349 10.421658 13.125 10.21875 C 13.179109 10.191697 13.201027 10.286134 13.1875 10.46875 C 13.173973 10.651367 13.055989 10.791269 12.8125 10.90625 C 12.569011 11.021231 12.319516 11.038953 12.0625 10.9375 C 11.805485 10.836046 11.647859 10.807364 11.59375 10.875 C 11.526114 10.956163 11.58091 11.120552 11.75 11.34375 C 11.919089 11.566949 11.960358 11.798721 11.90625 12.0625 C 11.852142 12.326279 11.738353 12.501628 11.5625 12.5625 C 11.386647 12.623372 11.298973 12.598886 11.3125 12.53125 C 11.420717 12.179545 11.331415 11.772423 11 11.3125 C 10.668585 10.852577 10.578343 10.524739 10.78125 10.28125 C 10.87594 10.145979 11.009956 10.043086 11.1875 10.03125 z M 2.84375 10.09375 C 3.1747425 10.020197 3.4103196 10.088488 3.5625 10.28125 C 3.7654073 10.538266 3.7064153 10.890591 3.375 11.34375 C 3.0435847 11.796909 2.9230328 12.210794 3.03125 12.5625 C 3.0447773 12.643663 2.9883532 12.661386 2.8125 12.59375 C 2.6366473 12.526114 2.5228587 12.357529 2.46875 12.09375 C 2.4146413 11.829971 2.4559106 11.566948 2.625 11.34375 C 2.7940893 11.120552 2.8488853 10.987413 2.78125 10.90625 C 2.7271413 10.838614 2.569516 10.860533 2.3125 10.96875 C 2.055484 11.076967 1.8059887 11.059245 1.5625 10.9375 C 1.3190113 10.815756 1.1765406 10.651367 1.15625 10.46875 C 1.1359593 10.286133 1.1823647 10.240669 1.25 10.28125 C 1.5611247 10.47063 1.9792046 10.435185 2.5 10.21875 C 2.6301988 10.164642 2.7334192 10.118268 2.84375 10.09375 z M 2.21875 11.3125 C 2.0428967 11.515407 1.9864726 11.699147 2 11.875 C 1.742984 12.077907 1.5154073 12.227141 1.3125 12.28125 C 1.1095933 12.335359 0.98904132 12.339555 0.96875 12.3125 C 0.94845933 12.285446 0.992296 12.182616 1.09375 12 C 1.1952033 11.817383 1.3857067 11.62688 1.65625 11.4375 C 1.818576 11.491608 1.9887886 11.447771 2.21875 11.3125 z M 12.125 11.3125 C 12.354961 11.447772 12.556424 11.491609 12.71875 11.4375 C 12.989293 11.62688 13.179796 11.792897 13.28125 11.96875 C 13.382704 12.144603 13.433305 12.247432 13.40625 12.28125 C 13.379195 12.315067 13.258643 12.304109 13.0625 12.25 C 12.866356 12.195892 12.632016 12.077908 12.375 11.875 C 12.388528 11.699147 12.300853 11.515407 12.125 11.3125 z M 7.15625 14.84375 C 8.8340149 14.84375 10.619551 15.251767 12.5 16.0625 C 10.619551 16.85071 8.8340148 17.249999 7.15625 17.25 C 5.4897459 17.25 3.7042074 16.850709 1.8125 16.0625 C 3.7042074 15.251768 5.4897458 14.84375 7.15625 14.84375 z "
     id="path2436" />
</svg>
