<?xml version="1.0" encoding="UTF-8" standalone="no"?>
<!-- Created with Inkscape (http://www.inkscape.org/) -->
<svg
   xmlns:dc="http://purl.org/dc/elements/1.1/"
   xmlns:cc="http://creativecommons.org/ns#"
   xmlns:rdf="http://www.w3.org/1999/02/22-rdf-syntax-ns#"
   xmlns:svg="http://www.w3.org/2000/svg"
   xmlns="http://www.w3.org/2000/svg"
   xmlns:sodipodi="http://sodipodi.sourceforge.net/DTD/sodipodi-0.dtd"
   xmlns:inkscape="http://www.inkscape.org/namespaces/inkscape"
   width="903.56256"
   height="1805.5625"
   id="svg2451"
   sodipodi:version="0.32"
   inkscape:version="0.46"
   version="1.0"
   sodipodi:docname="M164.svg"
   inkscape:output_extension="org.inkscape.output.svg.inkscape">
  <defs
     id="defs2453">
    <inkscape:perspective
       sodipodi:type="inkscape:persp3d"
       inkscape:vp_x="0 : 526.18109 : 1"
       inkscape:vp_y="0 : 1000 : 0"
       inkscape:vp_z="744.09448 : 526.18109 : 1"
       inkscape:persp3d-origin="372.04724 : 350.78739 : 1"
       id="perspective2459" />
  </defs>
  <sodipodi:namedview
     id="base"
     pagecolor="#ffffff"
     bordercolor="#666666"
     borderopacity="1.0"
     inkscape:pageopacity="0.0"
     inkscape:pageshadow="2"
     inkscape:zoom="0.27944444"
     inkscape:cx="899.99997"
     inkscape:cy="872.94199"
     inkscape:document-units="px"
     inkscape:current-layer="layer1"
     showgrid="true"
     inkscape:window-width="1024"
     inkscape:window-height="708"
     inkscape:window-x="-4"
     inkscape:window-y="-4"
     showguides="true"
     inkscape:guide-bbox="true" />
  <metadata
     id="metadata2456">
    <rdf:RDF>
      <cc:Work
         rdf:about="">
        <dc:format>image/svg+xml</dc:format>
        <dc:type
           rdf:resource="http://purl.org/dc/dcmitype/StillImage" />
      </cc:Work>
    </rdf:RDF>
  </metadata>
  <g
     inkscape:label="Calque 1"
     inkscape:groupmode="layer"
     id="layer1"
     transform="translate(-447.15625,0)">
    <path
       style="fill:#000000;stroke:none"
       d="M 880.5625,0 C 624.63769,0 480.17879,151.3557 447.15625,454.0625 L 728.4375,454.0625 C 695.14667,466.95898 669.92395,490.68475 652.8125,525.21875 C 625.50225,580.33579 624.26624,635.69889 649.09375,691.3125 C 656.04543,714.15384 663.2392,729.30179 670.6875,736.75 C 678.13573,744.19824 686.59685,745.43426 696.03125,740.46875 C 705.46573,735.50325 710.40967,727.32693 710.90625,715.90625 C 711.40275,704.48564 704.20897,690.8271 689.3125,674.9375 C 676.40222,647.13068 678.87421,611.13046 696.75,566.9375 C 714.62583,522.74457 755.85472,500.625 820.40625,500.625 C 884.95771,500.625 917.21874,552.78699 917.21875,657.0625 C 917.21875,761.33804 916.99654,867.34236 916.5,975.09375 C 916.00346,1082.8451 915.24313,1191.3527 914.25,1300.5938 C 861.61569,1259.8767 802.29121,1243.9685 736.25,1252.9062 C 670.20885,1261.8443 622.51522,1286.4356 593.21875,1326.6562 C 563.9223,1366.8767 549.28127,1408.8348 549.28125,1452.5312 C 623.76377,1367.1245 689.80643,1322.1877 747.40625,1317.7188 C 805.00603,1313.2496 847.21751,1324.9119 874.03125,1352.7188 C 900.84495,1380.5254 914.25003,1399.3814 914.25,1409.3125 L 914.25,1452.5312 C 895.38108,1427.7036 868.571,1410.306 833.8125,1400.375 C 799.05398,1390.444 758.58545,1390.951 712.40625,1401.875 C 666.22708,1412.799 627.24797,1436.1235 595.46875,1471.875 C 563.68955,1507.6266 547.81253,1542.8977 547.8125,1577.6562 C 627.26052,1515.091 686.07811,1479.3442 724.3125,1470.4062 C 762.54687,1461.4682 793.09619,1461.4683 815.9375,1470.4062 C 838.77879,1479.3441 859.88455,1494.9677 879.25,1517.3125 C 898.61548,1539.6573 908.28125,1567.2276 908.28125,1600 L 908.28125,1805.5625 L 991.71875,1805.5625 L 991.71875,1600 C 991.71875,1567.2276 1000.6554,1539.6573 1018.5312,1517.3125 C 1036.407,1494.9677 1056.7524,1479.3442 1079.5938,1470.4062 C 1102.4349,1461.4682 1132.9844,1461.4683 1171.2188,1470.4062 C 1209.4531,1479.3441 1268.302,1515.0909 1347.75,1577.6562 C 1347.75,1542.8978 1331.8417,1507.6266 1300.0625,1471.875 C 1268.2833,1436.1235 1229.3042,1412.7991 1183.125,1401.875 C 1136.9458,1390.9509 1096.7308,1390.444 1062.4688,1400.375 C 1028.207,1410.306 1002.6327,1427.7036 985.75,1452.5312 L 985.75,1409.3125 C 985.75,1399.3814 998.90174,1380.5255 1025.2188,1352.7188 C 1051.5359,1324.9118 1093.7473,1313.2497 1151.8438,1317.7188 C 1209.9401,1322.1877 1276.2362,1367.1245 1350.7188,1452.5312 C 1350.7188,1408.8348 1335.8243,1366.8768 1306.0312,1326.6562 C 1276.2382,1286.4355 1228.5761,1261.8443 1163.0312,1252.9062 C 1097.4866,1243.9685 1038.3841,1259.8767 985.75,1300.5938 C 984.75688,1191.3527 984.0278,1082.5916 983.53125,974.34375 C 983.03469,866.09573 982.5278,767.28522 982.03125,677.90625 C 981.53474,588.52719 967.6228,526.95293 940.3125,493.1875 C 926.02602,475.52424 906.09592,462.4858 880.53125,454.0625 L 1314,454.0625 C 1280.9774,151.35571 1136.4874,-1.1359237e-15 880.5625,0 z M 880.5625,78.4375 C 1056.6831,78.4375 1168.1558,176.1165 1214.9375,371.5 L 546.21875,371.5 C 590.24879,176.11649 701.69028,78.437498 880.5625,78.4375 z"
       id="path2563" />
  </g>
</svg>
