<?xml version="1.0" encoding="UTF-8" standalone="no"?>
<!-- Created with Inkscape (http://www.inkscape.org/) -->
<svg
   xmlns:dc="http://purl.org/dc/elements/1.1/"
   xmlns:cc="http://creativecommons.org/ns#"
   xmlns:rdf="http://www.w3.org/1999/02/22-rdf-syntax-ns#"
   xmlns:svg="http://www.w3.org/2000/svg"
   xmlns="http://www.w3.org/2000/svg"
   xmlns:sodipodi="http://sodipodi.sourceforge.net/DTD/sodipodi-0.dtd"
   xmlns:inkscape="http://www.inkscape.org/namespaces/inkscape"
   width="934.61316"
   height="1791.1875"
   id="svg2451"
   sodipodi:version="0.32"
   inkscape:version="0.46"
   version="1.0"
   sodipodi:docname="M165.svg"
   inkscape:output_extension="org.inkscape.output.svg.inkscape">
  <defs
     id="defs2453">
    <inkscape:perspective
       sodipodi:type="inkscape:persp3d"
       inkscape:vp_x="0 : 526.18109 : 1"
       inkscape:vp_y="0 : 1000 : 0"
       inkscape:vp_z="744.09448 : 526.18109 : 1"
       inkscape:persp3d-origin="372.04724 : 350.78739 : 1"
       id="perspective2459" />
  </defs>
  <sodipodi:namedview
     id="base"
     pagecolor="#ffffff"
     bordercolor="#666666"
     borderopacity="1.0"
     inkscape:pageopacity="0.0"
     inkscape:pageshadow="2"
     inkscape:zoom="0.27944444"
     inkscape:cx="899.99997"
     inkscape:cy="899.99997"
     inkscape:document-units="px"
     inkscape:current-layer="layer1"
     showgrid="true"
     inkscape:window-width="1024"
     inkscape:window-height="708"
     inkscape:window-x="-4"
     inkscape:window-y="-4" />
  <metadata
     id="metadata2456">
    <rdf:RDF>
      <cc:Work
         rdf:about="">
        <dc:format>image/svg+xml</dc:format>
        <dc:type
           rdf:resource="http://purl.org/dc/dcmitype/StillImage" />
      </cc:Work>
    </rdf:RDF>
  </metadata>
  <g
     inkscape:label="Calque 1"
     inkscape:groupmode="layer"
     id="layer1"
     transform="translate(-461.63684,-3.125)">
    <path
       style="fill:#000000;stroke:none"
       d="M 802.28125,3.125 C 733.41439,3.125 680.16152,40.252928 642.5,114.5 C 601.61032,129.56457 566.09803,131.18024 535.96875,119.34375 C 517.67598,104.27918 502.34322,97.024521 489.96875,97.5625 C 477.59423,98.10053 468.99848,104.01405 464.15625,115.3125 C 459.31406,126.61096 461.44737,135.75569 470.59375,142.75 C 479.74013,149.74431 496.13953,156.99896 519.8125,164.53125 C 561.77819,179.59587 596.22388,181.76042 623.125,171 C 616.66872,205.4334 620.9666,239.33015 636.03125,272.6875 C 644.6396,297.43654 652.71767,313.83592 660.25,321.90625 C 667.78229,329.97657 676.92707,331.31771 687.6875,325.9375 C 698.44798,320.55729 704.08698,311.68703 704.625,299.3125 C 705.16298,286.93803 696.84169,272.1542 679.625,254.9375 C 666.7125,224.80824 667.7791,184.44908 682.84375,133.875 C 697.90832,83.300902 742.56546,58.000001 816.8125,58 C 891.05958,58 927.91303,115.85648 927.375,231.53125 C 926.83697,347.20598 926.288,463.40544 925.75,580.15625 C 925.21196,696.90705 924.41975,814.47885 923.34375,932.84375 C 866.31338,888.72593 802.30016,871.50311 731.28125,881.1875 C 660.26231,890.87186 608.59384,917.48268 576.3125,961.0625 C 544.03116,1004.6422 527.90626,1050.1227 527.90625,1097.4688 C 608.60955,1004.9289 680.42636,956.24843 743.375,951.40625 C 806.32356,946.56401 852.04734,959.18323 880.5625,989.3125 C 909.07772,1019.4417 923.34374,1039.8957 923.34375,1050.6562 L 923.34375,1097.4688 C 903.97492,1070.5676 875.47407,1051.7293 837.8125,1040.9688 C 800.15096,1030.2084 756.28608,1030.7572 706.25,1042.5938 C 656.21394,1054.4303 613.99588,1079.6999 579.5625,1118.4375 C 545.12909,1157.1751 527.90626,1195.4009 527.90625,1233.0625 C 612.91375,1165.2716 676.13478,1126.5281 717.5625,1116.8438 C 758.99016,1107.1592 792.06349,1107.1593 816.8125,1116.8438 C 841.56155,1126.528 864.42342,1143.4765 885.40625,1167.6875 C 906.38912,1191.8985 916.87498,1221.7406 916.875,1257.25 L 916.875,1436.875 C 740.73323,1452.8881 640.53069,1572.0258 616.28125,1794.3125 L 1302.2188,1794.3125 C 1278.2301,1574.4167 1179.9124,1455.4731 1007.2812,1437.4375 L 1007.2812,1257.25 C 1008.3573,1221.7406 1018.5687,1191.8985 1037.9375,1167.6875 C 1057.3063,1143.4765 1079.1015,1126.5281 1103.3125,1116.8438 C 1127.5235,1107.1592 1160.3536,1107.1593 1201.7812,1116.8438 C 1243.2089,1126.528 1306.9477,1165.2716 1393.0312,1233.0625 C 1393.0312,1195.4009 1375.8085,1157.1751 1341.375,1118.4375 C 1306.9416,1079.6999 1264.7235,1054.4302 1214.6875,1042.5938 C 1164.6514,1030.7573 1121.061,1030.2084 1083.9375,1040.9688 C 1046.814,1051.7293 1019.1053,1070.5676 1000.8125,1097.4688 L 1000.8125,1050.6562 C 1000.8125,1039.8957 1015.353,1019.4417 1044.4062,989.3125 C 1073.4595,959.18324 1119.1831,946.56401 1181.5938,951.40625 C 1244.0044,956.24843 1315.5467,1004.9289 1396.25,1097.4688 C 1396.25,1050.1227 1380.3995,1004.6423 1348.6562,961.0625 C 1316.913,917.48266 1265.2445,890.87188 1193.6875,881.1875 C 1122.1306,871.50309 1057.8429,888.72592 1000.8125,932.84375 C 999.73635,814.47886 998.94423,696.63255 998.40625,579.34375 C 997.86825,462.05487 997.31936,355.00018 996.78125,258.15625 C 996.24325,161.31226 981.18507,94.585536 951.59375,58 C 922.00258,21.414523 872.22405,3.1249999 802.28125,3.125 z M 959.25,1497.0625 C 1098.6206,1497.0625 1186.8237,1574.3548 1223.8438,1728.9688 L 694.65625,1728.9688 C 729.49881,1574.3547 817.7019,1497.0626 959.25,1497.0625 z"
       id="path2385" />
  </g>
</svg>
