<?xml version="1.0" encoding="UTF-8" standalone="no"?>
<svg
   xmlns:dc="http://purl.org/dc/elements/1.1/"
   xmlns:cc="http://creativecommons.org/ns#"
   xmlns:rdf="http://www.w3.org/1999/02/22-rdf-syntax-ns#"
   xmlns:svg="http://www.w3.org/2000/svg"
   xmlns="http://www.w3.org/2000/svg"
   xmlns:sodipodi="http://sodipodi.sourceforge.net/DTD/sodipodi-0.dtd"
   xmlns:inkscape="http://www.inkscape.org/namespaces/inkscape"
   width="12.814198"
   height="17.977583"
   id="svg2477"
   sodipodi:version="0.32"
   inkscape:version="0.46"
   sodipodi:docname="M167.svg"
   inkscape:output_extension="org.inkscape.output.svg.inkscape">
  <metadata
     id="metadata2484">
    <rdf:RDF>
      <cc:Work
         rdf:about="">
        <dc:format>image/svg+xml</dc:format>
        <dc:type
           rdf:resource="http://purl.org/dc/dcmitype/StillImage" />
      </cc:Work>
    </rdf:RDF>
  </metadata>
  <defs
     id="defs2482">
    <inkscape:perspective
       sodipodi:type="inkscape:persp3d"
       inkscape:vp_x="0 : 8.9887915 : 1"
       inkscape:vp_y="0 : 1000 : 0"
       inkscape:vp_z="12.814198 : 8.9887915 : 1"
       inkscape:persp3d-origin="6.4070988 : 5.9925276 : 1"
       id="perspective2486" />
  </defs>
  <sodipodi:namedview
     inkscape:window-height="667"
     inkscape:window-width="640"
     inkscape:pageshadow="2"
     inkscape:pageopacity="0.0"
     guidetolerance="10.0"
     gridtolerance="10.0"
     objecttolerance="10.0"
     borderopacity="1.0"
     bordercolor="#666666"
     pagecolor="#ffffff"
     id="base"
     showgrid="false"
     inkscape:zoom="25.698672"
     inkscape:cx="6.4070988"
     inkscape:cy="8.9887915"
     inkscape:window-x="132"
     inkscape:window-y="67"
     inkscape:current-layer="svg2477" />
  <path
     style="fill:#000000; stroke:none"
     d="M 4.5625 0 C 3.8402277 0 3.2293381 0.23070729 2.71875 0.6875 C 2.4430411 0.59199096 2.1082781 0.61748765 1.75 0.8125 C 1.218676 1.1017013 0.769434 1.1570673 0.40625 0.96875 C 0.123774 1.009104 0.026493336 1.212768 0.09375 1.5625 C 0.161006 1.9122327 0.32907264 2.1645366 0.625 2.3125 C 0.18110867 2.7967447 -0.004756665 3.3056999 0.0625 3.84375 C 0.61400067 3.9244573 1.1407553 3.7607388 1.625 3.34375 C 1.7729633 3.6396773 2.0252673 3.8010179 2.375 3.875 C 2.724732 3.9489813 2.9283959 3.8449759 2.96875 3.5625 C 2.7804327 3.1993167 2.8468713 2.7745981 3.15625 2.25 C 3.3942331 1.8464626 3.4332729 1.4642754 3.28125 1.15625 C 3.716734 0.86788908 4.1270159 0.71875 4.5625 0.71875 C 5.4906353 0.71875 5.96875 1.103932 5.96875 1.84375 L 5.96875 7.3125 C 5.7131767 6.8955113 5.1421291 6.6874998 4.28125 6.6875 C 3.5643448 6.6875 3.0154153 6.8927281 2.625 7.3125 C 2.3566461 7.226917 2.0323497 7.2766819 1.6875 7.46875 C 1.156176 7.7646773 0.70693334 7.8133173 0.34375 7.625 C 0.061274 7.665354 -0.036006 7.8690176 0.03125 8.21875 C 0.098506 8.568482 0.29782266 8.8207864 0.59375 8.96875 C 0.14985933 9.4529947 -0.067256 9.9619511 0 10.5 C 0.55150067 10.580708 1.0782553 10.416989 1.5625 10 C 1.710464 10.282477 1.9627681 10.450543 2.3125 10.53125 C 2.662232 10.611957 2.8658961 10.501226 2.90625 10.21875 C 2.7179327 9.8555667 2.7843714 9.4308487 3.09375 8.90625 C 3.3186882 8.5248331 3.3422328 8.1710892 3.21875 7.875 C 3.4940501 7.5477466 3.856645 7.3750002 4.3125 7.375 C 4.8101953 7.375 5.1973467 7.5964627 5.5 8 C 5.8026527 8.4035373 5.96875 8.761817 5.96875 9.125 L 5.96875 11.03125 C 5.6997253 10.600811 5.1421295 10.40625 4.28125 10.40625 C 3.4688873 10.40625 2.8731966 10.693753 2.46875 11.25 C 2.2501673 11.233186 2.0122993 11.289536 1.75 11.4375 C 1.225402 11.733427 0.769434 11.782067 0.40625 11.59375 C 0.123774 11.634104 0.026493336 11.837768 0.09375 12.1875 C 0.161006 12.537232 0.34252398 12.789536 0.625 12.9375 C 0.19456 13.421745 -0.004756665 13.9307 0.0625 14.46875 C 0.60054933 14.549458 1.1095053 14.36794 1.59375 13.9375 C 1.741714 14.233427 1.9940181 14.419293 2.34375 14.5 C 2.693482 14.580707 2.8971461 14.501226 2.9375 14.21875 C 2.762634 13.855567 2.8223475 13.399599 3.125 12.875 C 3.3898211 12.415976 3.3909109 12.02294 3.15625 11.6875 C 3.4387253 11.310865 3.7970045 11.125 4.28125 11.125 C 4.778946 11.125 5.1906219 11.321939 5.5 11.71875 C 5.7839115 12.082898 5.9453792 12.434095 5.96875 12.78125 C 5.3454275 12.860624 4.8346397 13.121234 4.4375 13.5625 C 3.953256 14.10055 3.7187501 14.698091 3.71875 15.34375 C 3.71875 16.070117 3.9975482 16.676353 4.5625 17.1875 C 5.127452 17.698648 5.7293409 17.955299 6.375 17.96875 C 7.1686233 17.955299 7.7902798 17.6943 8.28125 17.15625 C 8.7722207 16.618201 9.0312499 16.016313 9.03125 15.34375 C 9.03125 14.738444 8.7722205 14.158702 8.28125 13.59375 C 7.886079 13.139033 7.3950243 12.901225 6.8125 12.8125 C 6.8281975 12.455488 6.9952065 12.093785 7.28125 11.71875 C 7.5839033 11.321939 7.9710538 11.125 8.46875 11.125 C 8.9664453 11.125 9.3425236 11.310866 9.625 11.6875 C 9.403904 12.010049 9.4215532 12.418266 9.6875 12.875 C 9.996878 13.406324 10.063316 13.837768 9.875 14.1875 C 9.9153527 14.469976 10.087767 14.573982 10.4375 14.5 C 10.787232 14.426019 11.039536 14.233427 11.1875 13.9375 C 11.671745 14.36794 12.198499 14.531659 12.75 14.4375 C 12.817255 13.899451 12.631391 13.408294 12.1875 12.9375 C 12.483427 12.776085 12.651494 12.505982 12.71875 12.15625 C 12.786005 11.806518 12.688726 11.620653 12.40625 11.59375 C 12.043067 11.782067 11.593825 11.733427 11.0625 11.4375 C 10.796838 11.289536 10.564014 11.233186 10.34375 11.25 C 10.339909 11.244443 10.316384 11.255502 10.3125 11.25 C 9.9198805 10.693752 9.3252573 10.40625 8.5 10.40625 C 7.6391213 10.40625 7.0680742 10.600811 6.8125 11.03125 L 6.8125 9.125 C 6.8125 8.7618167 6.9785975 8.4035374 7.28125 8 C 7.5839033 7.5964627 7.9710538 7.3750002 8.46875 7.375 C 8.9411201 7.375 9.3152532 7.5548529 9.59375 7.90625 C 9.4861685 8.1897289 9.5328398 8.5020514 9.75 8.875 C 10.059379 9.4063247 10.094568 9.8690183 9.90625 10.21875 C 9.946604 10.501225 10.150267 10.605231 10.5 10.53125 C 10.849732 10.457269 11.102036 10.264678 11.25 9.96875 C 11.734245 10.39919 12.261 10.580708 12.8125 10.5 C 12.866305 9.9485 12.68044 9.4395437 12.25 8.96875 C 12.532477 8.8073347 12.707268 8.5372322 12.78125 8.1875 C 12.855232 7.8377673 12.751226 7.6519027 12.46875 7.625 C 12.092115 7.8133173 11.649598 7.7646774 11.125 7.46875 C 10.771905 7.2695681 10.430125 7.213083 10.15625 7.3125 C 9.7658342 6.8927282 9.2169051 6.6874998 8.5 6.6875 C 7.6391213 6.6875 7.0680742 6.8955111 6.8125 7.3125 L 6.8125 1.84375 C 6.7990487 0.61968733 6.0421359 0 4.5625 0 z M 2.40625 0.96875 C 2.5861602 0.95698016 2.7294147 1.0106647 2.84375 1.125 C 3.0724213 1.3536713 3.0569999 1.7277799 2.78125 2.21875 C 2.5054993 2.7097207 2.4145367 3.1012193 2.5625 3.4375 C 2.5894027 3.504756 2.525342 3.5403533 2.34375 3.5 C 2.1621587 3.459646 2.0249334 3.2868234 1.9375 3.03125 C 1.8500673 2.7756767 1.890012 2.5546226 2.03125 2.3125 C 2.172488 2.070378 2.1922568 1.9110066 2.125 1.84375 C 2.057744 1.776494 1.898372 1.8029873 1.65625 1.9375 C 1.4141273 2.072012 1.1618234 2.0874327 0.90625 2 C 0.650676 1.9125667 0.53362801 1.7753419 0.5 1.59375 C 0.466372 1.4121587 0.47744466 1.3480973 0.53125 1.375 C 0.86753067 1.5364147 1.2590293 1.4632506 1.75 1.1875 C 1.995485 1.049625 2.2263398 0.98051984 2.40625 0.96875 z M 1.625 2.3125 C 1.4770367 2.52772 1.410598 2.731384 1.4375 2.90625 C 1.2088293 3.1349213 1.0075434 3.3010187 0.8125 3.375 C 0.61745733 3.448982 0.52017735 3.4644026 0.5 3.4375 C 0.47982333 3.410598 0.51304266 3.2820672 0.59375 3.09375 C 0.67445733 2.905432 0.80257866 2.7152194 1.03125 2.5 C 1.206116 2.5403533 1.40978 2.4739147 1.625 2.3125 z M 2.34375 7.625 C 2.4004909 7.621288 2.4497816 7.6474186 2.5 7.65625 L 2.78125 7.78125 C 3.0099213 8.0099213 2.9945007 8.3840299 2.71875 8.875 C 2.4429993 9.3659707 2.3654872 9.757469 2.5 10.09375 C 2.540354 10.161007 2.462842 10.196604 2.28125 10.15625 C 2.099658 10.115896 1.9624327 9.9743238 1.875 9.71875 C 1.7875667 9.4631767 1.827512 9.2108724 1.96875 8.96875 C 2.109988 8.7266273 2.129756 8.5672565 2.0625 8.5 C 1.995244 8.432744 1.8358726 8.4592377 1.59375 8.59375 C 1.351628 8.7282627 1.130574 8.750409 0.875 8.65625 C 0.61942667 8.5620913 0.47112799 8.4248649 0.4375 8.25 C 0.403872 8.0751333 0.41494532 8.0043476 0.46875 8.03125 C 0.80503133 8.192664 1.19653 8.1194998 1.6875 7.84375 C 1.932985 7.7058747 2.1638397 7.6367698 2.34375 7.625 z M 10.46875 7.625 C 10.645298 7.633407 10.848265 7.7058751 11.09375 7.84375 C 11.584721 8.1195013 12.007469 8.1614155 12.34375 8 C 12.411006 7.9730973 12.415354 8.0684084 12.375 8.25 C 12.334646 8.4315913 12.186348 8.562091 11.9375 8.65625 C 11.688652 8.7504093 11.460872 8.7349883 11.21875 8.59375 C 10.976627 8.4525113 10.817256 8.4014937 10.75 8.46875 C 10.682743 8.549458 10.702511 8.7021036 10.84375 8.9375 C 10.984988 9.1728967 11.024933 9.4319264 10.9375 9.6875 C 10.850066 9.9430733 10.712842 10.077921 10.53125 10.125 C 10.349658 10.17208 10.285597 10.161006 10.3125 10.09375 C 10.460464 9.744018 10.400751 9.3279945 10.125 8.84375 C 9.8492493 8.3595053 9.8025791 8.0099212 10.03125 7.78125 C 10.085055 7.7207195 10.147711 7.6844135 10.21875 7.65625 L 10.25 7.65625 C 10.314156 7.6350461 10.391341 7.6213138 10.46875 7.625 z M 1.5625 8.96875 C 1.4145367 9.18397 1.3480974 9.3876337 1.375 9.5625 C 1.1463287 9.7911707 0.94504332 9.9572676 0.75 10.03125 C 0.55495733 10.105231 0.43315267 10.120652 0.40625 10.09375 C 0.379348 10.066848 0.41256731 9.9383178 0.5 9.75 C 0.58743333 9.5616833 0.74007935 9.3714705 0.96875 9.15625 C 1.1436167 9.1966033 1.3472807 9.1301651 1.5625 8.96875 z M 11.25 8.96875 C 11.465219 9.130164 11.651085 9.1653537 11.8125 9.125 C 12.054622 9.3536713 12.231793 9.5684084 12.3125 9.75 C 12.393207 9.931592 12.401902 10.060123 12.375 10.09375 C 12.348097 10.127379 12.257544 10.080707 12.0625 10 C 11.867457 9.9192927 11.634921 9.7599209 11.40625 9.53125 C 11.446604 9.3698353 11.397963 9.1974211 11.25 8.96875 z M 2.40625 11.59375 C 2.5861602 11.583661 2.7294147 11.628939 2.84375 11.75 C 3.0724213 11.978671 3.0324761 12.352779 2.75 12.84375 C 2.467524 13.33472 2.414536 13.757469 2.5625 14.09375 C 2.589402 14.161007 2.4940913 14.165354 2.3125 14.125 C 2.130908 14.084647 1.9936834 13.943074 1.90625 13.6875 C 1.8188173 13.431927 1.8587619 13.179623 2 12.9375 C 2.141238 12.695378 2.1788054 12.536006 2.125 12.46875 C 2.0442927 12.401494 1.8916467 12.427988 1.65625 12.5625 C 1.4208533 12.697012 1.1618234 12.719159 0.90625 12.625 C 0.650676 12.530842 0.50910334 12.393616 0.46875 12.21875 C 0.428396 12.043883 0.46399333 11.973097 0.53125 12 C 0.86753067 12.161415 1.2590293 12.094976 1.75 11.8125 C 1.995485 11.671262 2.2263398 11.603839 2.40625 11.59375 z M 10.4375 11.59375 C 10.61741 11.602157 10.817015 11.674625 11.0625 11.8125 C 11.553471 12.088251 11.976219 12.161415 12.3125 12 C 12.366305 11.973097 12.377378 12.037158 12.34375 12.21875 C 12.310121 12.400341 12.161823 12.537567 11.90625 12.625 C 11.650676 12.712433 11.398372 12.697012 11.15625 12.5625 C 10.914127 12.427987 10.754756 12.370244 10.6875 12.4375 C 10.620245 12.518208 10.671262 12.702104 10.8125 12.9375 C 10.953738 13.172897 10.955707 13.400677 10.875 13.65625 C 10.794293 13.911823 10.688317 14.053396 10.5 14.09375 C 10.311683 14.134104 10.209646 14.147555 10.25 14.09375 C 10.397964 13.744018 10.344976 13.327994 10.0625 12.84375 C 9.7800247 12.359505 9.7400794 11.978671 9.96875 11.75 C 10.083086 11.628939 10.25759 11.585343 10.4375 11.59375 z M 11.1875 12.9375 C 11.402719 13.098915 11.606383 13.165354 11.78125 13.125 C 12.009921 13.353671 12.162566 13.537158 12.25 13.71875 C 12.337433 13.900343 12.370653 14.004348 12.34375 14.03125 C 12.316847 14.058152 12.195043 14.042731 12 13.96875 C 11.804957 13.894769 11.603671 13.759921 11.375 13.53125 C 11.401903 13.369835 11.335463 13.166172 11.1875 12.9375 z M 1.625 12.96875 C 1.4770367 13.18397 1.410598 13.369835 1.4375 13.53125 C 1.2088293 13.773372 1.0075434 13.926018 0.8125 14 C 0.61745733 14.073981 0.49565268 14.089402 0.46875 14.0625 C 0.44184733 14.035597 0.48179266 13.938317 0.5625 13.75 C 0.64320733 13.561683 0.78912733 13.34022 1.03125 13.125 C 1.206116 13.151902 1.40978 13.116714 1.625 12.96875 z M 6.40625 13.125 C 6.7223541 13.128363 7.0209204 13.202512 7.34375 13.34375 L 6.40625 14.28125 L 5.46875 13.34375 C 5.7781287 13.209238 6.0901459 13.121637 6.40625 13.125 z M 5.125 13.625 L 6.375 14.90625 L 7.6875 13.625 C 7.8758173 13.705707 8.04864 13.865079 8.15625 14.09375 L 6.875 15.375 L 8.15625 16.65625 C 8.04864 16.87147 7.8714698 17.030842 7.65625 17.125 L 6.375 15.84375 L 5.15625 17.09375 C 4.9410307 16.972688 4.7816587 16.813318 4.6875 16.625 L 5.9375 15.375 L 4.625 14.0625 C 4.7191587 13.84728 4.8828772 13.705707 5.125 13.625 z M 4.34375 14.375 L 5.3125 15.3125 L 4.34375 16.25 C 4.061274 15.604341 4.0612741 14.993757 4.34375 14.375 z M 8.4375 14.4375 C 8.719976 15.08316 8.7199756 15.707194 8.4375 16.3125 L 7.46875 15.34375 L 8.4375 14.4375 z M 6.40625 16.4375 L 7.34375 17.375 C 6.7384447 17.657477 6.1278615 17.657477 5.46875 17.375 L 6.40625 16.4375 z "
     id="path2479" />
</svg>
