<?xml version="1.0" encoding="UTF-8" standalone="no"?>
<svg
   xmlns:dc="http://purl.org/dc/elements/1.1/"
   xmlns:cc="http://creativecommons.org/ns#"
   xmlns:rdf="http://www.w3.org/1999/02/22-rdf-syntax-ns#"
   xmlns:svg="http://www.w3.org/2000/svg"
   xmlns="http://www.w3.org/2000/svg"
   xmlns:sodipodi="http://sodipodi.sourceforge.net/DTD/sodipodi-0.dtd"
   xmlns:inkscape="http://www.inkscape.org/namespaces/inkscape"
   width="10.902212"
   height="17.983217"
   id="svg2445"
   sodipodi:version="0.32"
   inkscape:version="0.46"
   sodipodi:docname="M174A.svg"
   inkscape:output_extension="org.inkscape.output.svg.inkscape">
  <metadata
     id="metadata2452">
    <rdf:RDF>
      <cc:Work
         rdf:about="">
        <dc:format>image/svg+xml</dc:format>
        <dc:type
           rdf:resource="http://purl.org/dc/dcmitype/StillImage" />
      </cc:Work>
    </rdf:RDF>
  </metadata>
  <defs
     id="defs2450">
    <inkscape:perspective
       sodipodi:type="inkscape:persp3d"
       inkscape:vp_x="0 : 8.9916086 : 1"
       inkscape:vp_y="0 : 1000 : 0"
       inkscape:vp_z="10.902212 : 8.9916086 : 1"
       inkscape:persp3d-origin="5.4511061 : 5.9944057 : 1"
       id="perspective2454" />
  </defs>
  <sodipodi:namedview
     inkscape:window-height="480"
     inkscape:window-width="640"
     inkscape:pageshadow="2"
     inkscape:pageopacity="0.0"
     guidetolerance="10.0"
     gridtolerance="10.0"
     objecttolerance="10.0"
     borderopacity="1.0"
     bordercolor="#666666"
     pagecolor="#ffffff"
     id="base"
     showgrid="false"
     showguides="true"
     inkscape:guide-bbox="true" />
  <path
     style="fill:#000000; stroke:none"
     d="M 5.469216,8.185714 C 5.831416,8.1977873 6.1091027,8.321539 6.302276,8.556969 C 6.4954487,8.7923983 6.592035,9.04292 6.592035,9.308534 C 6.592035,9.5741467 6.4954487,9.8276863 6.302276,10.069153 C 6.1091027,10.31062 5.831416,10.43739 5.469216,10.449463 C 5.1673833,10.449463 4.9017703,10.343821 4.672377,10.132538 C 4.4429837,9.9212547 4.328287,9.6465867 4.328287,9.308534 C 4.328287,9.018774 4.4309103,8.7591973 4.636157,8.529804 C 4.841403,8.3004107 5.1190893,8.185714 5.469216,8.185714 z M 5.469216,8.493584 C 5.215676,8.493584 5.013448,8.575079 4.862532,8.738069 C 4.7116153,8.9010583 4.636157,9.0912133 4.636157,9.308534 C 4.636157,9.55 4.7176517,9.7492097 4.880641,9.906163 C 5.043631,10.063116 5.2458593,10.141593 5.487326,10.141593 C 5.7287927,10.141593 5.9249843,10.05708 6.075901,9.888053 C 6.2268177,9.7190263 6.3083123,9.5258533 6.320385,9.308534 C 6.2962383,9.1032873 6.217762,8.9161507 6.084956,8.747124 C 5.9521493,8.5780973 5.7469027,8.493584 5.469216,8.493584 z M 4.708597,16.987167 C 4.8655497,17.32522 5.125126,17.494247 5.487326,17.494247 C 5.849526,17.494247 6.0970293,17.32522 6.229836,16.987167 C 5.8555627,15.224462 5.668426,12.996934 5.668426,10.304583 C 5.5476927,10.36495 5.4269593,10.36495 5.306226,10.304583 C 5.306226,12.996934 5.1070163,15.224462 4.708597,16.987167 z M 6.030626,10.232142 C 6.030626,12.960714 6.2841657,15.206352 6.791245,16.969057 C 6.6222183,17.645164 6.1875787,17.983217 5.487326,17.983217 C 4.7870733,17.983217 4.3524337,17.645164 4.183407,16.969057 C 4.6904863,15.206352 4.944026,12.960714 4.944026,10.232142 L 6.030626,10.232142 z M 8.312484,5.614096 C 8.6746833,5.614096 8.9523697,5.731811 9.145543,5.967241 C 9.338717,6.2026703 9.4413403,6.4531917 9.453413,6.718805 C 9.453413,6.9964917 9.353808,7.2560683 9.154598,7.497535 C 8.955388,7.7390017 8.6746833,7.859735 8.312484,7.859735 C 8.0106513,7.859735 7.7450383,7.754093 7.515645,7.542809 C 7.2862517,7.3315263 7.171555,7.0568583 7.171555,6.718805 C 7.171555,6.429045 7.274178,6.172487 7.479424,5.949131 C 7.6846707,5.7257743 7.9623573,5.614096 8.312484,5.614096 z M 8.312484,5.903856 C 8.058944,5.903856 7.856716,5.9883693 7.7058,6.157396 C 7.5548827,6.326422 7.479424,6.5135583 7.479424,6.718805 C 7.479424,6.972345 7.560919,7.1775917 7.723909,7.334545 C 7.886899,7.4914977 8.0891273,7.569974 8.330594,7.569974 C 8.5720607,7.5579013 8.768252,7.4673517 8.919168,7.298325 C 9.0700847,7.1292983 9.1515797,6.936125 9.163653,6.718805 C 9.139507,6.5135583 9.0610307,6.326422 8.928224,6.157396 C 8.7954167,5.9883693 8.59017,5.903856 8.312484,5.903856 z M 3.748767,7.243995 C 4.0988937,7.243995 4.373562,7.36171 4.572772,7.59714 C 4.7719813,7.8325693 4.871586,8.0830907 4.871586,8.348704 C 4.871586,8.6263907 4.7719813,8.8859673 4.572772,9.127434 C 4.373562,9.3689007 4.0988937,9.489634 3.748767,9.489634 C 3.434861,9.489634 3.1662297,9.3839923 2.942873,9.172709 C 2.7195163,8.961425 2.607838,8.6867567 2.607838,8.348704 C 2.607838,8.058944 2.707443,7.802386 2.906653,7.57903 C 3.105863,7.3556733 3.3865677,7.243995 3.748767,7.243995 z M 3.748767,7.551865 C 3.4952277,7.551865 3.2929997,7.63336 3.142083,7.79635 C 2.9911663,7.9593393 2.915708,8.1434573 2.915708,8.348704 C 2.915708,8.6022433 2.997203,8.8074897 3.160193,8.964443 C 3.323183,9.121397 3.5193743,9.199874 3.748767,9.199874 C 4.002307,9.199874 4.2045353,9.1153607 4.355452,8.946334 C 4.5063687,8.7773073 4.581827,8.5780973 4.581827,8.348704 C 4.5697537,8.1434573 4.4942953,7.9593393 4.355452,7.79635 C 4.2166087,7.63336 4.0143803,7.551865 3.748767,7.551865 z M 7.189665,7.243995 C 7.551865,7.243995 7.8295513,7.36171 8.022724,7.59714 C 8.2158973,7.8325693 8.312484,8.0830907 8.312484,8.348704 C 8.312484,8.6263907 8.2158973,8.8859673 8.022724,9.127434 C 7.8295513,9.3689007 7.551865,9.489634 7.189665,9.489634 C 6.8757583,9.489634 6.6071267,9.3839923 6.38377,9.172709 C 6.160414,8.961425 6.048736,8.6867567 6.048736,8.348704 C 6.048736,8.058944 6.1513593,7.802386 6.356606,7.57903 C 6.561852,7.3556733 6.8395383,7.243995 7.189665,7.243995 z M 7.189665,7.551865 C 6.936125,7.551865 6.7338967,7.63336 6.58298,7.79635 C 6.432064,7.9593393 6.356606,8.1434573 6.356606,8.348704 C 6.356606,8.6022433 6.4381007,8.8074897 6.60109,8.964443 C 6.76408,9.121397 6.9663083,9.199874 7.207775,9.199874 C 7.449241,9.199874 7.6454327,9.1153607 7.79635,8.946334 C 7.947266,8.7773073 8.0287607,8.5780973 8.040834,8.348704 C 8.0166873,8.1434573 7.938211,7.9593393 7.805405,7.79635 C 7.6725977,7.63336 7.467351,7.551865 7.189665,7.551865 z M 5.469216,2.535398 C 5.215676,2.535398 5.013448,2.6199113 4.862532,2.788938 C 4.7116153,2.9579647 4.636157,3.1451013 4.636157,3.350348 C 4.636157,3.6038873 4.7176517,3.8091337 4.880641,3.966087 C 5.043631,4.1230403 5.2458593,4.201517 5.487326,4.201517 C 5.7287927,4.1894437 5.9249843,4.0988937 6.075901,3.929867 C 6.2268177,3.7608403 6.3083123,3.5676673 6.320385,3.350348 C 6.2962383,3.1451013 6.217762,2.9579647 6.084956,2.788938 C 5.9521493,2.6199113 5.7469027,2.535398 5.469216,2.535398 z M 5.125126,2.281858 C 5.3545193,2.209418 5.5899493,2.209418 5.831416,2.281858 C 6.0608093,1.7385587 6.1785243,1.222424 6.184561,0.733454 C 6.190597,0.24448467 6.284165,0 6.465265,0 C 6.6584383,0 6.7520067,0.24448467 6.74597,0.733454 C 6.7399333,1.222424 6.5920353,1.8351453 6.302276,2.571618 C 6.4954487,2.825158 6.592035,3.0847347 6.592035,3.350348 C 6.592035,3.628034 6.4954487,3.8876103 6.302276,4.129077 C 6.1091027,4.3705437 5.831416,4.491277 5.469216,4.491277 C 5.1673833,4.491277 4.9017703,4.3856353 4.672377,4.174352 C 4.4429837,3.9630687 4.328287,3.6884007 4.328287,3.350348 C 4.328287,3.060588 4.4309103,2.8010113 4.636157,2.571618 C 4.3584703,1.8351453 4.2166087,1.222424 4.210572,0.733454 C 4.2045353,0.24448467 4.2981037,0 4.491277,0 C 4.672377,0 4.7659453,0.24448467 4.771982,0.733454 C 4.778018,1.222424 4.8957327,1.7385587 5.125126,2.281858 z M 5.487326,4.292067 C 6.1755053,4.038527 6.610145,3.7306573 6.791245,3.368458 C 6.972345,3.006258 7.062895,2.607838 7.062895,2.173198 C 7.062895,1.7385587 7.153445,1.521239 7.334545,1.521239 C 7.5277183,1.5333123 7.6212867,1.7657237 7.61525,2.218473 C 7.6092127,2.671223 7.485461,3.1571743 7.243995,3.676327 C 7.0146017,4.147187 6.6946583,4.4610937 6.284165,4.618047 C 6.4894117,4.8715863 6.5980717,5.1311627 6.610145,5.396776 C 6.610145,5.6744627 6.51054,5.9340393 6.31133,6.175506 C 6.1121207,6.416972 5.8374527,6.537705 5.487326,6.537705 C 5.17342,6.537705 4.9047887,6.4320633 4.681432,6.22078 C 4.4580753,6.0094973 4.346397,5.7348293 4.346397,5.396776 C 4.346397,5.107016 4.4429837,4.8534763 4.636157,4.636157 C 4.2860303,4.5033503 3.9872153,4.1803887 3.739712,3.667272 C 3.4922093,3.154156 3.3654397,2.671223 3.359403,2.218473 C 3.3533663,1.7657237 3.4469343,1.5333123 3.640107,1.521239 C 3.821207,1.521239 3.911757,1.7385587 3.911757,2.173198 C 3.911757,2.607838 4.002307,3.006258 4.183407,3.368458 C 4.364507,3.7306573 4.7991467,4.038527 5.487326,4.292067 z M 5.487326,4.581827 C 5.2217127,4.581827 5.013448,4.663322 4.862532,4.826312 C 4.7116153,4.9893013 4.636157,5.179456 4.636157,5.396776 C 4.636157,5.650316 4.7206703,5.8555627 4.889697,6.012516 C 5.058723,6.1694693 5.2579327,6.247946 5.487326,6.247946 C 5.7287927,6.2358727 5.9280027,6.1453227 6.084956,5.976296 C 6.2419087,5.8072693 6.320385,5.614096 6.320385,5.396776 C 6.3083123,5.1915293 6.2328543,5.004393 6.094011,4.835367 C 5.9551677,4.6663403 5.7529393,4.581827 5.487326,4.581827 z M 6.320385,6.646365 C 6.501485,6.863685 6.592035,7.099115 6.592035,7.352655 C 6.592035,7.6303417 6.4954487,7.889918 6.302276,8.131384 C 6.1091027,8.3728507 5.831416,8.493584 5.469216,8.493584 C 5.1673833,8.493584 4.9017703,8.3879427 4.672377,8.17666 C 4.4429837,7.9653767 4.328287,7.6907083 4.328287,7.352655 C 4.328287,7.062895 4.418837,6.8214283 4.599937,6.628255 C 4.273957,6.555815 3.929867,6.2570003 3.567667,5.731811 C 3.2054677,5.206621 2.8130847,4.26792 2.390518,2.915708 C 2.4871047,2.5776547 2.662168,2.535398 2.915708,2.788938 C 3.1451013,3.4771173 3.4137327,4.1622783 3.721602,4.844421 C 4.029472,5.5265643 4.61201,6.2098572 5.469216,6.247946 C 6.2576122,6.2077164 6.90896,5.5265643 7.21683,4.844421 C 7.5247,4.1622783 7.7933313,3.4771173 8.022724,2.788938 C 8.276264,2.535398 8.457364,2.5776547 8.566024,2.915708 C 8.1434573,4.26792 7.748056,5.206621 7.37982,5.731811 C 7.0115833,6.2570003 6.6584383,6.5618517 6.320385,6.646365 z M 5.469216,6.555815 C 5.215676,6.555815 5.013448,6.63731 4.862532,6.8003 C 4.7116153,6.96329 4.636157,7.1474083 4.636157,7.352655 C 4.636157,7.606195 4.7176517,7.8114413 4.880641,7.968394 C 5.043631,8.1253473 5.2458593,8.203824 5.487326,8.203824 C 5.7287927,8.203824 5.9249843,8.1193107 6.075901,7.950284 C 6.2268177,7.7812573 6.3083123,7.5820477 6.320385,7.352655 C 6.2962383,7.1474083 6.217762,6.96329 6.084956,6.8003 C 5.9521493,6.63731 5.7469027,6.555815 5.469216,6.555815 z M 9.290423,3.875537 C 9.652623,3.8876103 9.9303097,4.011362 10.123483,4.246792 C 10.316656,4.482222 10.413242,4.7327433 10.413242,4.998356 C 10.413242,5.2639693 10.316656,5.5175093 10.123483,5.758976 C 9.9303097,6.0004427 9.652623,6.1272127 9.290423,6.139286 C 8.976517,6.139286 8.7078857,6.0336443 8.484529,5.822361 C 8.2611723,5.6110777 8.149494,5.3364093 8.149494,4.998356 C 8.149494,4.7085967 8.249099,4.4490203 8.448309,4.219627 C 8.647519,3.9902337 8.9282237,3.875537 9.290423,3.875537 z M 9.290423,4.183407 C 9.036883,4.183407 8.834655,4.264902 8.683739,4.427892 C 8.5328223,4.590882 8.457364,4.7810367 8.457364,4.998356 C 8.457364,5.2398227 8.538859,5.4390327 8.701849,5.595986 C 8.864839,5.7529393 9.0670673,5.831416 9.308534,5.831416 C 9.55,5.831416 9.7461913,5.7469027 9.897108,5.577876 C 10.048025,5.4088493 10.12952,5.215676 10.141593,4.998356 C 10.117446,4.79311 10.038969,4.6059737 9.906163,4.436947 C 9.7733563,4.2679203 9.5681097,4.183407 9.290423,4.183407 z M 9.779393,1.973989 C 10.12952,1.9860623 10.404188,2.1098137 10.603397,2.345243 C 10.802607,2.580673 10.902212,2.8311947 10.902212,3.096808 C 10.902212,3.3624213 10.802607,3.615961 10.603397,3.857427 C 10.404188,4.0988937 10.12952,4.2256637 9.779393,4.237737 C 9.465487,4.237737 9.1968553,4.1320953 8.973498,3.920812 C 8.750142,3.7095293 8.638464,3.4348613 8.638464,3.096808 C 8.638464,2.807048 8.738069,2.5474713 8.937279,2.318078 C 9.136489,2.0886853 9.4171937,1.973989 9.779393,1.973989 z M 9.779393,2.281858 C 9.5137803,2.281858 9.3085337,2.363353 9.163653,2.526343 C 9.0187737,2.689333 8.946334,2.879488 8.946334,3.096808 C 8.946334,3.3382747 9.027829,3.5374843 9.190819,3.694437 C 9.353809,3.8513903 9.5500003,3.929867 9.779393,3.929867 C 10.02086,3.929867 10.22007,3.8453537 10.377023,3.676327 C 10.533976,3.507301 10.612453,3.314128 10.612453,3.096808 C 10.600379,2.8915613 10.524921,2.7044247 10.386078,2.535398 C 10.247235,2.3663713 10.045006,2.281858 9.779393,2.281858 z M 1.140929,2.281858 C 0.863243,2.281858 0.65799667,2.3663713 0.52519,2.535398 C 0.39238333,2.7044247 0.31390667,2.8915613 0.28976,3.096808 C 0.30183333,3.314128 0.38332833,3.507301 0.534245,3.676327 C 0.685161,3.8453537 0.88135233,3.929867 1.122819,3.929867 C 1.3642857,3.929867 1.566514,3.8513903 1.729504,3.694437 C 1.892494,3.5374843 1.973989,3.3382747 1.973989,3.096808 C 1.973989,2.879488 1.8985307,2.689333 1.747614,2.526343 C 1.5966973,2.363353 1.394469,2.281858 1.140929,2.281858 z M 1.140929,1.973989 C 1.4910557,1.973989 1.7687423,2.0886853 1.973989,2.318078 C 2.179235,2.5474713 2.281858,2.807048 2.281858,3.096808 C 2.281858,3.4348613 2.1671617,3.7095293 1.937769,3.920812 C 1.7083757,4.1320953 1.4427623,4.237737 1.140929,4.237737 C 0.77872967,4.2256637 0.498025,4.0988937 0.298815,3.857427 C 0.099605,3.615961 0,3.3624213 0,3.096808 C 0.012073333,2.8311947 0.11469667,2.580673 0.30787,2.345243 C 0.50104333,2.1098137 0.77872967,1.9860623 1.140929,1.973989 z M 1.611789,4.183407 C 1.3461757,4.183407 1.1439473,4.2679203 1.005104,4.436947 C 0.86626067,4.6059737 0.79080233,4.79311 0.778729,4.998356 C 0.778729,5.215676 0.85720567,5.4088493 1.014159,5.577876 C 1.1711123,5.7469027 1.3703223,5.831416 1.611789,5.831416 C 1.8532557,5.831416 2.0554837,5.7529393 2.218473,5.595986 C 2.381463,5.4390327 2.462958,5.2398227 2.462958,4.998356 C 2.462958,4.7810367 2.3874997,4.590882 2.236583,4.427892 C 2.085667,4.264902 1.8774023,4.183407 1.611789,4.183407 z M 1.611789,3.875537 C 1.9739883,3.875537 2.254693,3.9902337 2.453903,4.219627 C 2.653113,4.4490203 2.752718,4.7085967 2.752718,4.998356 C 2.752718,5.3364093 2.6410397,5.6110777 2.417683,5.822361 C 2.194327,6.0336443 1.9256957,6.139286 1.611789,6.139286 C 1.2616623,6.1272127 0.986994,6.0004427 0.787784,5.758976 C 0.58857467,5.5175093 0.48897,5.2639693 0.48897,4.998356 C 0.50104333,4.7327433 0.60366633,4.482222 0.796839,4.246792 C 0.99001233,4.011362 1.2616623,3.8876103 1.611789,3.875537 z M 2.589728,5.903856 C 2.3241147,5.903856 2.1218867,5.9883693 1.983044,6.157396 C 1.8442007,6.326422 1.7687423,6.5135583 1.756669,6.718805 C 1.756669,6.936125 1.8351457,7.1292983 1.992099,7.298325 C 2.1490517,7.4673517 2.3482613,7.5579013 2.589728,7.569974 C 2.8191213,7.569974 3.015313,7.4914977 3.178303,7.334545 C 3.341293,7.1775917 3.422788,6.972345 3.422788,6.718805 C 3.422788,6.5135583 3.350348,6.326422 3.205468,6.157396 C 3.060588,5.9883693 2.8553413,5.903856 2.589728,5.903856 z M 2.589728,5.614096 C 2.951928,5.614096 3.232633,5.7257743 3.431843,5.949131 C 3.6310523,6.172487 3.730657,6.429045 3.730657,6.718805 C 3.730657,7.0568583 3.6189787,7.3315263 3.395622,7.542809 C 3.172266,7.754093 2.9036347,7.859735 2.589728,7.859735 C 2.2396013,7.859735 1.9649333,7.7390017 1.765724,7.497535 C 1.566514,7.2560683 1.466909,6.9964917 1.466909,6.718805 C 1.466909,6.4531917 1.566514,6.2026703 1.765724,5.967241 C 1.9649333,5.731811 2.2396013,5.614096 2.589728,5.614096 z"
     id="path2447"
     sodipodi:nodetypes="csssssssccsssssssccsccccccsccccsssssssccsssssssccsssssssccsssssssccsssssssccsssssssccssssssscccssscssssscsssccssssscssssscsssssccsssssssccssssscsccscsccsccsssssssccsssssssccsssssssccsssssssccsssssssccsssssssccsssssssccsssssssccsssssssccsssssssccsssssssc" />
</svg>
