<?xml version="1.0" encoding ="US-ASCII" standalone="yes"?>
<svg width="14.093278" height="14.64">
<path style="fill:#000000; stroke:none" d=" M 14.093278 13.87054  L 13.384565 14.64  Q 9.294274 13.263072 8.281828 12.777096  Q 7.127635 12.250623 4.748381 10.296596  Q 2.369128 8.342575 0 2.166639  L 3.746058 3.766307  Q 3.563818 5.892448 4.485145 8.12996  Q 5.406473 10.367469 7.208631 11.400166  Q 5.507719 8.524816 4.718009 5.041992  L 3.280332 0  L 7.107386 2.470374  Q 6.621411 4.151038 6.540414 5.811452  Q 6.540414 6.763154 6.682157 8.22108  Q 6.8239 9.679005 7.61361 10.7117  Q 8.403322 11.744397 10.063733 12.716348  Q 7.552863 9.638509 7.289627 3.887802  L 10.529461 6.783402  Q 9.658756 8.342575 9.517013 10.205479  Q 9.577759 11.157178 10.023234 11.744397  Q 10.590207 12.635354 12.149378 13.283319  Q 13.607303 13.749045 14.093278 13.87054  Z  M 9.800497 6.904897  L 7.957843 5.163486  Q 8.281828 7.309876 8.909545 9.294274  L 9.800497 6.904897  Z  M 6.256929 2.632365  L 4.272533 1.316183  Q 5.082489 4.151038 5.932946 6.8239  Q 5.973444 4.151038 6.256929 2.632365  Z  M 2.956349 4.31303  L 1.194689 3.381577  Q 2.186888 6.094938 3.90805 8.504568  Q 2.956349 5.791204 2.956349 4.31303  Z "/></svg>
