<?xml version="1.0" encoding="UTF-8" standalone="no"?>
<!-- Created with Inkscape (http://www.inkscape.org/) -->
<svg
   xmlns:dc="http://purl.org/dc/elements/1.1/"
   xmlns:cc="http://creativecommons.org/ns#"
   xmlns:rdf="http://www.w3.org/1999/02/22-rdf-syntax-ns#"
   xmlns:svg="http://www.w3.org/2000/svg"
   xmlns="http://www.w3.org/2000/svg"
   xmlns:sodipodi="http://sodipodi.sourceforge.net/DTD/sodipodi-0.dtd"
   xmlns:inkscape="http://www.inkscape.org/namespaces/inkscape"
   width="6.09375"
   height="17.96875"
   id="svg2445"
   sodipodi:version="0.32"
   inkscape:version="0.46"
   version="1.0"
   sodipodi:docname="M206.svg"
   inkscape:output_extension="org.inkscape.output.svg.inkscape">
  <defs
     id="defs2447">
    <inkscape:perspective
       sodipodi:type="inkscape:persp3d"
       inkscape:vp_x="0 : 526.18109 : 1"
       inkscape:vp_y="0 : 1000 : 0"
       inkscape:vp_z="744.09448 : 526.18109 : 1"
       inkscape:persp3d-origin="372.04724 : 350.78739 : 1"
       id="perspective2453" />
  </defs>
  <sodipodi:namedview
     id="base"
     pagecolor="#ffffff"
     bordercolor="#666666"
     borderopacity="1.0"
     inkscape:pageopacity="0.0"
     inkscape:pageshadow="2"
     inkscape:zoom="25.698672"
     inkscape:cx="2.8878884"
     inkscape:cy="8.9887914"
     inkscape:document-units="px"
     inkscape:current-layer="layer1"
     showgrid="false"
     inkscape:window-width="640"
     inkscape:window-height="667"
     inkscape:window-x="143"
     inkscape:window-y="26" />
  <metadata
     id="metadata2450">
    <rdf:RDF>
      <cc:Work
         rdf:about="">
        <dc:format>image/svg+xml</dc:format>
        <dc:type
           rdf:resource="http://purl.org/dc/dcmitype/StillImage" />
      </cc:Work>
    </rdf:RDF>
  </metadata>
  <g
     inkscape:label="Calque 1"
     inkscape:groupmode="layer"
     id="layer1"
     transform="translate(0.15625,0)">
    <path
       style="fill:#000000;stroke:none"
       d="M 0.28125,0 C -0.075751296,0.15300067 -0.075751297,0.30299933 0.28125,0.46875 C 1.8112573,0.46875 2.5625,1.2454927 2.5625,2.75 L 2.5625,14.53125 L 0.25,12.90625 L -0.15625,13.46875 L 1.9375,14.96875 C 0.67656076,15.333087 0.03125,16.324368 0.03125,17.96875 L 5.78125,17.96875 C 5.78125,16.318882 5.1347511,15.308384 3.875,14.9375 L 5.9375,13.46875 L 5.53125,12.90625 L 3.28125,14.46875 L 3.28125,14.4375 C 3.5617514,13.736247 4.2044947,12.888005 5.25,11.90625 L 5.25,11.40625 C 4.2682453,11.865252 3.625502,12.09375 3.28125,12.09375 C 3.5617514,11.392497 4.2044947,10.557005 5.25,9.5625 L 5.25,9.0625 C 4.2682453,9.5215023 3.625502,9.75 3.28125,9.75 C 3.5617514,9.048747 4.2044947,8.2005047 5.25,7.21875 L 5.25,6.71875 C 4.2682453,7.1777521 3.625502,7.40625 3.28125,7.40625 C 3.5617514,6.7049966 4.2044947,5.8695047 5.25,4.875 L 5.25,4.375 C 4.2682453,4.8340028 3.625502,5.0625 3.28125,5.0625 C 3.5617514,4.3612466 4.2044947,3.5130047 5.25,2.53125 L 5.25,2.03125 C 4.2682453,2.4902526 3.625502,2.75 3.28125,2.75 C 3.2812501,0.92674125 2.2830093,0 0.28125,0 z M 4.5625,2.75 L 3.28125,4.03125 L 3.28125,3.21875 L 4.5625,2.75 z M 4.5625,5.0625 L 3.28125,6.375 L 3.28125,5.5625 L 4.5625,5.0625 z M 4.5625,7.40625 L 3.28125,8.6875 L 3.28125,7.90625 L 4.5625,7.40625 z M 4.5625,9.75 L 3.28125,11.0625 L 3.28125,10.25 L 4.5625,9.75 z M 4.5625,12.09375 L 3.28125,13.375 L 3.28125,12.59375 L 4.5625,12.09375 z M 2.90625,15.6875 C 4.0537553,15.6875 4.7149993,16.204495 4.90625,17.25 L 0.90625,17.25 C 1.0847507,16.204495 1.7459947,15.6875 2.90625,15.6875 z"
       id="path2436" />
  </g>
</svg>
