<?xml version="1.0" encoding ="US-ASCII" standalone="yes"?>
<svg width="15.50599" height="17.972717">
<path style="fill:#000000; stroke:none" d=" M 13.62214 14.724071  Q 13.565144 15.712008 13.726634 16.243975  Q 13.888124 16.775942 14.173105 16.994427  Q 14.458088 17.212914 14.562581 16.861435  Q 14.667074 16.509958 14.467587 15.987491  Q 14.2681 15.465024 13.62214 14.724071  Z  M 0.816948 7.808507  Q 1.500905 8.169484 2.678831 9.518399  L 2.69783 9.518399  L 2.69783 1.10193  Q 2.52684 0.740953 1.880881 0.740953  L 0.816948 7.808507  Z  M 5.205671 7.827506  Q 5.908627 8.188483 7.067554 9.518399  L 7.105552 9.518399  L 7.105552 1.120929  Q 6.915564 0.778951 6.269604 0.778951  L 5.205671 7.827506  Z  M 0 13.508147  L 2.412848 13.508147  L 2.412848 10.981307  Q 2.412848 9.917374 0.037998 8.321475  L 0.037998 8.264479  L 1.291919 0  Q 3.020809 -0.037998 3.343789 0.930941  L 3.343789 13.527146  L 6.801571 13.527146  L 6.801571 10.981307  Q 6.801571 9.917374 4.445719 8.321475  L 5.69964 0  Q 7.409533 -0.018999 7.751511 0.930941  L 7.751511 13.546145  L 11.209292 13.546145  L 11.209292 10.981307  Q 11.209292 9.917374 8.853441 8.321475  L 8.853441 8.264479  L 10.088364 0  Q 11.817254 -0.018999 12.140234 0.930941  L 12.140234 13.546145  Q 13.128172 13.508147 13.869124 13.831127  Q 15.142044 14.762069 15.408028 15.911496  Q 15.674011 17.060923 15.21804 17.564392  Q 14.762069 18.06786 14.087611 17.953867  Q 13.413154 17.839874 12.947683 16.756943  Q 12.482212 15.674011 12.729197 14.439089  L 0 14.439089  L 0 13.508147  Z  M 9.613393 7.827506  Q 10.29735 8.188483 11.475276 9.518399  L 11.494274 9.518399  L 11.494274 1.120929  Q 11.323285 0.778951 10.677326 0.778951  L 9.613393 7.827506  Z "/></svg>
