<?xml version="1.0" encoding="UTF-8" standalone="no"?>
<svg
   xmlns:dc="http://purl.org/dc/elements/1.1/"
   xmlns:cc="http://creativecommons.org/ns#"
   xmlns:rdf="http://www.w3.org/1999/02/22-rdf-syntax-ns#"
   xmlns:svg="http://www.w3.org/2000/svg"
   xmlns="http://www.w3.org/2000/svg"
   xmlns:sodipodi="http://sodipodi.sourceforge.net/DTD/sodipodi-0.dtd"
   xmlns:inkscape="http://www.inkscape.org/namespaces/inkscape"
   width="13.65625"
   height="17.970575"
   id="svg2730"
   sodipodi:version="0.32"
   inkscape:version="0.46"
   sodipodi:docname="M241A.svg"
   inkscape:output_extension="org.inkscape.output.svg.inkscape"
   version="1.0">
  <metadata
     id="metadata2737">
    <rdf:RDF>
      <cc:Work
         rdf:about="">
        <dc:format>image/svg+xml</dc:format>
        <dc:type
           rdf:resource="http://purl.org/dc/dcmitype/StillImage" />
      </cc:Work>
    </rdf:RDF>
  </metadata>
  <defs
     id="defs2735">
    <inkscape:perspective
       sodipodi:type="inkscape:persp3d"
       inkscape:vp_x="0 : 8.9887915 : 1"
       inkscape:vp_y="0 : 1000 : 0"
       inkscape:vp_z="8.7502832 : 8.9887915 : 1"
       inkscape:persp3d-origin="4.3751416 : 5.9925276 : 1"
       id="perspective2739" />
  </defs>
  <sodipodi:namedview
     inkscape:window-height="708"
     inkscape:window-width="1024"
     inkscape:pageshadow="2"
     inkscape:pageopacity="0.0"
     guidetolerance="10.0"
     gridtolerance="10.0"
     objecttolerance="10.0"
     borderopacity="1.0"
     bordercolor="#666666"
     pagecolor="#ffffff"
     id="base"
     showgrid="false"
     inkscape:zoom="25.698672"
     inkscape:cx="4.3751416"
     inkscape:cy="8.9887915"
     inkscape:window-x="-4"
     inkscape:window-y="-4"
     inkscape:current-layer="svg2730"
     showguides="true"
     inkscape:guide-bbox="true" />
  <path
     style="fill:#000000;stroke:none"
     d="M 6.375,0.0018247899 C 6.006076,0.02176679 5.61625,0.38897615 5.1875,1.1268248 C 4.778692,1.1966214 4.4268026,1.4001682 4.1875,1.6893248 C 4.07782,1.8189468 3.926802,1.9007781 3.6875,1.9705748 C 3.537936,2.0204294 3.4714246,2.0783073 3.53125,2.1580748 C 3.680814,2.2777261 3.8730526,2.3794994 4.0625,2.4393248 C 3.9827326,2.9677841 4.0053486,3.2644702 4.125,3.3143248 C 4.2446513,3.4040628 4.4874713,3.25572 4.90625,2.8768248 C 5.0259013,3.0064468 5.162936,3.0982489 5.3125,3.1580748 C 5.511918,3.2079294 5.6023833,3.1400809 5.5625,2.9705748 C 5.4528193,2.7811274 5.4075867,2.5635982 5.4375,2.3143248 C 5.507296,2.0351388 5.5186039,1.7357781 5.46875,1.3768248 C 5.8775573,0.71874345 6.2836772,0.44102546 6.6875,0.59557479 C 7.0913226,0.75012412 7.2799126,1.2480461 7.25,2.0955748 L 7.25,4.9705748 L 5.3125,5.0330748 L 4.65625,5.0018248 C 4.167654,4.4860871 3.74597,4.2205749 3.375,4.2205748 C 3.239278,4.2115264 3.091317,4.1983728 2.9375,4.1893248 C 2.177464,4.3340927 1.6941146,4.4080746 1.53125,4.4080748 C 1.4226729,4.4080748 1.375,4.4820556 1.375,4.6268248 C 1.375,4.83493 1.527068,4.9393248 1.84375,4.9393248 C 2.4590176,4.8307476 2.907012,4.7962284 3.1875,4.8143248 C 3.350365,4.8143248 3.503269,4.875152 3.59375,5.0018248 C 3.403741,5.2370747 2.942175,5.3324214 2.25,5.3143248 C 1.557824,5.2962281 0.9400857,5.2271893 0.40625,5.0643248 C 0.1348086,5.0643248 -9.9999944e-08,5.1941906 5.5511151e-14,5.5018248 C 0.0361923,5.7823146 1.0324671,5.9302766 2.96875,5.9393248 L 4.25,5.8143248 L 7.25,5.8143248 L 7.25,7.6893248 C 6.691628,7.3901968 6.1181972,7.2617954 5.5,7.2518248 C 5.220814,6.9526968 4.9001746,6.7817372 4.53125,6.7518248 C 4.3617446,6.7219114 4.1681686,6.620138 3.96875,6.4705748 C 3.8490986,6.3708654 3.7799126,6.3921447 3.75,6.5018248 C 3.730058,6.6713308 3.752674,6.833657 3.8125,7.0330748 C 3.3338953,7.2524354 3.0950873,7.4460108 3.125,7.5955748 C 3.105058,7.7351681 3.3578486,7.8722029 3.90625,8.0018248 C 3.866366,8.1713301 3.8763373,8.3422897 3.90625,8.5018248 C 3.9760466,8.7012428 4.0678487,8.7351678 4.1875,8.5955748 C 4.2872093,8.4061268 4.4581686,8.2365046 4.6875,8.1268248 C 4.9567146,8.0271154 5.2307845,7.8661269 5.5,7.6268248 C 5.9586626,7.7265341 6.3272092,7.9088017 6.65625,8.1580748 C 6.9852906,8.4073481 7.1888372,8.6035985 7.21875,8.7830748 C 7.238692,9.2716508 7.2400293,9.6248776 7.25,9.8143248 C 6.542064,9.4952548 5.9686332,9.3455743 5.5,9.3455748 C 5.18093,9.0663888 4.8376741,8.9293538 4.46875,8.9393248 C 4.299244,8.9193834 4.0843893,8.850197 3.875,8.7205748 C 3.7354073,8.6308361 3.676192,8.6421444 3.65625,8.7518248 C 3.6662206,8.9313021 3.7114533,9.1035985 3.78125,9.2830748 C 3.3225873,9.5522894 3.0851166,9.7372312 3.125,9.8768248 C 3.125,10.016418 3.4203486,10.130837 3.96875,10.220575 C 3.948808,10.39008 3.960116,10.56104 4,10.720575 C 4.089738,10.900052 4.1715693,10.922668 4.28125,10.783075 C 4.3610173,10.583656 4.5093606,10.412697 4.71875,10.283075 C 4.9879653,10.153454 5.2606979,9.9698482 5.5,9.7205748 C 5.8689246,9.7604581 6.2198406,9.9101386 6.59375,10.189325 C 6.96766,10.468512 7.1888372,10.697349 7.21875,10.876825 L 7.21875,12.126825 C 7.0093606,12.126825 6.7352906,12.174732 6.40625,12.314325 C 6.0572673,12.463888 5.7592439,12.696374 5.5,12.970575 C 5.240756,13.244776 5.0195786,13.554108 4.875,13.908075 C 4.7304213,14.262044 4.65625,14.645546 4.65625,15.064325 C 4.65625,15.473132 4.745378,15.850313 4.875,16.189325 C 5.0345353,16.548279 5.2407559,16.862596 5.5,17.126825 C 5.759244,17.391055 6.0622526,17.597276 6.40625,17.751825 C 6.7502466,17.906375 7.1224419,17.970575 7.53125,17.970575 C 7.9001746,17.970575 8.2447673,17.906375 8.59375,17.751825 C 8.942732,17.597276 9.2407562,17.391055 9.5,17.126825 C 9.7592446,16.862596 9.9754367,16.543294 10.125,16.189325 C 10.274564,15.835357 10.34375,15.441883 10.34375,15.033075 C 10.34375,14.743918 10.309825,14.491126 10.25,14.251825 C 10.180203,14.002552 10.093387,13.7787 9.96875,13.564325 C 9.8441133,13.34995 9.7057413,13.128772 9.53125,12.939325 C 9.3567593,12.749878 9.1468893,12.616491 8.9375,12.501825 C 8.72811,12.38716 8.5381824,12.290372 8.34375,12.220575 C 8.1493166,12.150778 7.9620638,12.126825 7.8125,12.126825 L 7.8125,10.876825 C 7.8424126,10.697349 8.0296651,10.517392 8.34375,10.283075 C 8.657834,10.048758 9.0526451,9.8827838 9.53125,9.7830748 C 9.7605813,10.002436 9.9907559,10.153454 10.25,10.283075 C 10.469361,10.412697 10.617704,10.583656 10.6875,10.783075 C 10.797181,10.922668 10.910262,10.900052 11,10.720575 C 11.049855,10.56104 11.061163,10.39008 11.03125,10.220575 C 11.589621,10.130837 11.85372,10.016418 11.84375,9.8768248 C 11.893604,9.7372314 11.687384,9.5522898 11.21875,9.2830748 C 11.298517,9.1035981 11.34375,8.9313017 11.34375,8.7518248 C 11.323809,8.6421448 11.254623,8.6308357 11.125,8.7205748 C 10.915611,8.8501974 10.700756,8.9193838 10.53125,8.9393248 C 10.152355,8.9293534 9.8303778,9.0663883 9.53125,9.3455748 C 8.8931106,9.3555461 8.3097091,9.5052263 7.78125,9.8143248 C 7.7912206,9.6248774 7.7925578,9.2816216 7.8125,8.7830748 C 7.8424126,8.6035981 8.0423105,8.3973771 8.40625,8.1580748 C 8.7701886,7.9187721 9.1523544,7.7478135 9.53125,7.6580748 C 9.810436,7.8674648 10.074535,8.0271157 10.34375,8.1268248 C 10.563111,8.2365048 10.712791,8.3961565 10.8125,8.5955748 C 10.932151,8.7251968 11.055204,8.6912724 11.125,8.5018248 C 11.154913,8.3323188 11.154913,8.1713309 11.125,8.0018248 C 11.66343,7.8722028 11.916221,7.7351674 11.90625,7.5955748 C 11.936163,7.4559814 11.707326,7.2624063 11.21875,7.0330748 C 11.278576,6.8436274 11.291221,6.6500513 11.28125,6.4705748 C 11.241366,6.3708654 11.182151,6.3808367 11.0625,6.4705748 C 10.863081,6.6301094 10.659535,6.7219112 10.5,6.7518248 C 10.121105,6.7717668 9.8104358,6.9214474 9.53125,7.2205748 C 8.8931106,7.2305461 8.3097091,7.3802263 7.78125,7.6893248 L 7.78125,5.8143248 L 11.59375,5.7830748 L 13.65625,5.7830748 L 13.65625,2.5018248 C 13.65625,2.05847 13.439246,1.8143248 12.96875,1.8143248 C 12.498249,1.8143248 12.236847,1.9581815 12.21875,2.2205748 C 12.019693,3.9306561 11.833106,4.7740272 11.625,4.7830748 L 7.78125,4.9393248 L 7.78125,2.0955748 C 7.78125,1.2979008 7.6279212,0.75340879 7.34375,0.43932479 C 7.059578,0.12524012 6.743924,-0.01811721 6.375,0.0018247899 z M 5.15625,1.4080748 C 5.2759013,1.5476674 5.2985173,1.7778422 5.21875,2.1268248 C 5.2087786,2.2365048 5.2101161,2.4653422 5.25,2.8143248 C 5.0306393,2.6847028 4.9375,2.5010981 4.9375,2.2518248 C 4.9375,2.2418541 4.948808,2.2052554 4.96875,2.0955748 C 4.988692,1.9858948 4.9447966,1.9067374 4.875,1.8768248 C 4.8052033,1.8269701 4.7120633,1.8948188 4.5625,2.0643248 C 4.373052,2.1740048 4.1681686,2.1653714 3.96875,2.0955748 C 4.2180233,1.9858948 4.4115986,1.8688015 4.53125,1.6893248 C 4.790494,1.4799354 4.9967152,1.3781621 5.15625,1.4080748 z M 12.9375,2.1893248 C 13.127507,2.1893248 13.21875,2.3027674 13.21875,2.5018248 L 13.21875,4.7830748 L 12.375,4.7830748 L 12.65625,2.3768248 C 12.665299,2.2501521 12.747491,2.1893247 12.9375,2.1893248 z M 4.71875,2.2830748 C 4.678866,2.4126974 4.7114533,2.549732 4.78125,2.6893248 C 4.6017733,2.9186561 4.430814,3.0443827 4.28125,3.0643248 C 4.2214246,2.8748768 4.222762,2.6586848 4.3125,2.4393248 C 4.4122093,2.3994408 4.549244,2.3528714 4.71875,2.2830748 z M 11,6.7830748 C 10.950145,6.9824934 10.824419,7.1521154 10.625,7.2518248 C 10.40564,7.2817374 10.28125,7.3283076 10.28125,7.4080748 C 10.271279,7.4878421 10.311526,7.5507052 10.40625,7.5955748 C 10.500974,7.6404434 10.573808,7.6580749 10.59375,7.6580748 C 10.803139,7.8076394 10.873663,8.0025521 10.84375,8.2518248 C 10.584505,8.0224934 10.433488,7.8954293 10.34375,7.8455748 C 9.9947673,7.7159528 9.7898841,7.5563016 9.75,7.3768248 C 9.809826,7.2272608 10.014709,7.091563 10.34375,7.0018248 C 10.553139,7.0018248 10.770669,6.9326387 11,6.7830748 z M 4.03125,6.8143248 C 4.2605813,6.9539181 4.4781106,7.001825 4.6875,7.0018248 C 5.0165406,7.1015341 5.2114541,7.227261 5.28125,7.3768248 C 5.2313953,7.5463301 5.036482,7.7059813 4.6875,7.8455748 C 4.5977613,7.8954294 4.415494,8.0537429 4.15625,8.2830748 C 4.136308,8.0338014 4.2380813,7.8388889 4.4375,7.6893248 C 4.457442,7.6893248 4.4940406,7.6404439 4.59375,7.5955748 C 4.6934593,7.5507061 4.738692,7.487843 4.71875,7.4080748 C 4.71875,7.3283074 4.6256106,7.2817374 4.40625,7.2518248 C 4.2068313,7.1521154 4.081104,7.0137433 4.03125,6.8143248 z M 11.0625,7.2518248 C 11.291831,7.3016794 11.485407,7.4047901 11.625,7.5643248 C 11.515319,7.6740054 11.320407,7.7318836 11.03125,7.7518248 C 10.951483,7.6022614 10.838401,7.531738 10.71875,7.5018248 C 10.868314,7.4120868 10.982733,7.3216214 11.0625,7.2518248 z M 3.9375,7.2830748 C 4.0172673,7.3528714 4.1529653,7.412086 4.3125,7.5018248 C 4.182878,7.5317374 4.0797673,7.6335106 4,7.7830748 C 3.7108426,7.7631328 3.51593,7.7052548 3.40625,7.5955748 C 3.5458433,7.4360394 3.7081686,7.3329294 3.9375,7.2830748 z M 3.96875,9.0330748 C 4.1980813,9.1626974 4.4368893,9.2092671 4.65625,9.1893248 C 4.9852906,9.2491501 5.1702327,9.3522611 5.25,9.5018248 C 5.2200873,9.6813014 5.0577612,9.8422901 4.71875,10.001825 C 4.638982,10.061651 4.458052,10.221302 4.21875,10.470575 C 4.1688953,10.221302 4.2480526,10.015081 4.4375,9.8455748 C 4.457442,9.8455748 4.530276,9.8329291 4.625,9.7830748 C 4.719724,9.7332201 4.738692,9.644092 4.71875,9.5643248 C 4.71875,9.4845568 4.6043313,9.4492956 4.375,9.4393248 C 4.1755813,9.3595574 4.0385466,9.232493 3.96875,9.0330748 z M 11.03125,9.0330748 C 10.961453,9.2324934 10.824419,9.3595576 10.625,9.4393248 C 10.395669,9.4492954 10.28125,9.4845567 10.28125,9.5643248 C 10.251337,9.6440921 10.280276,9.7332198 10.375,9.7830748 C 10.469724,9.8329294 10.511309,9.8455751 10.53125,9.8455748 C 10.720698,10.015081 10.821134,10.221302 10.78125,10.470575 C 10.531977,10.221302 10.361017,10.061651 10.28125,10.001825 C 9.9522093,9.8422901 9.7586334,9.6813017 9.71875,9.5018248 C 9.7985173,9.3522608 10.004739,9.2491504 10.34375,9.1893248 C 10.55314,9.2092668 10.791948,9.162697 11.03125,9.0330748 z M 3.9375,9.5018248 C 4.0272386,9.5616508 4.1529653,9.6195289 4.3125,9.6893248 C 4.1928486,9.7391794 4.101046,9.8522603 4.03125,10.001825 C 3.7420926,10.001825 3.54718,9.9452844 3.4375,9.8455748 C 3.5571513,9.6760694 3.71814,9.5616511 3.9375,9.5018248 z M 11.0625,9.5018248 C 11.281861,9.5616508 11.442849,9.6760697 11.5625,9.8455748 C 11.45282,9.9452841 11.267878,10.001824 10.96875,10.001825 C 10.908925,9.8522608 10.807151,9.7391795 10.6875,9.6893248 C 10.837064,9.6195288 10.962791,9.5616511 11.0625,9.5018248 z M 7.5,12.751825 C 7.6994186,12.751825 7.9092879,12.759485 8.09375,12.814325 C 8.278212,12.869165 8.455494,12.964616 8.625,13.064325 C 8.794506,13.164034 8.9278925,13.268482 9.0625,13.408075 C 9.1971073,13.547668 9.3065407,13.71729 9.40625,13.876825 C 9.5059593,14.03636 9.6063953,14.203671 9.65625,14.408075 C 9.7061046,14.61248 9.7187501,14.823686 9.71875,15.033075 C 9.71875,15.362115 9.6509011,15.67011 9.53125,15.939325 C 9.4115986,16.20854 9.2619187,16.4437 9.0625,16.658075 C 8.863082,16.87245 8.6442154,17.038423 8.375,17.158075 C 8.1057846,17.277725 7.7991272,17.345575 7.5,17.345575 C 7.18093,17.345575 6.8892294,17.277725 6.625,17.158075 C 6.36077,17.038423 6.141904,16.87245 5.9375,16.658075 C 5.733096,16.4437 5.5521652,16.20854 5.4375,15.939325 C 5.322834,15.67011 5.2812501,15.362115 5.28125,15.033075 C 5.28125,14.714005 5.3228339,14.432275 5.4375,14.158075 C 5.5521653,13.883874 5.733096,13.62245 5.9375,13.408075 C 6.141904,13.1937 6.3607701,13.02274 6.625,12.908075 C 6.8892293,12.793409 7.1809299,12.751825 7.5,12.751825 z"
     id="path4144" />
</svg>
