<?xml version="1.0" encoding="UTF-8" standalone="no"?>
<svg
   xmlns:dc="http://purl.org/dc/elements/1.1/"
   xmlns:cc="http://creativecommons.org/ns#"
   xmlns:rdf="http://www.w3.org/1999/02/22-rdf-syntax-ns#"
   xmlns:svg="http://www.w3.org/2000/svg"
   xmlns="http://www.w3.org/2000/svg"
   xmlns:sodipodi="http://sodipodi.sourceforge.net/DTD/sodipodi-0.dtd"
   xmlns:inkscape="http://www.inkscape.org/namespaces/inkscape"
   width="15.59375"
   height="17.970942"
   id="svg2434"
   sodipodi:version="0.32"
   inkscape:version="0.46"
   sodipodi:docname="M242.svg"
   inkscape:output_extension="org.inkscape.output.svg.inkscape"
   version="1.0">
  <metadata
     id="metadata2441">
    <rdf:RDF>
      <cc:Work
         rdf:about="">
        <dc:format>image/svg+xml</dc:format>
        <dc:type
           rdf:resource="http://purl.org/dc/dcmitype/StillImage" />
      </cc:Work>
    </rdf:RDF>
  </metadata>
  <defs
     id="defs2439">
    <inkscape:perspective
       sodipodi:type="inkscape:persp3d"
       inkscape:vp_x="0 : 8.9887915 : 1"
       inkscape:vp_y="0 : 1000 : 0"
       inkscape:vp_z="11.508006 : 8.9887915 : 1"
       inkscape:persp3d-origin="5.754003 : 5.9925276 : 1"
       id="perspective2443" />
  </defs>
  <sodipodi:namedview
     inkscape:window-height="708"
     inkscape:window-width="1024"
     inkscape:pageshadow="2"
     inkscape:pageopacity="0.0"
     guidetolerance="10.0"
     gridtolerance="10.0"
     objecttolerance="10.0"
     borderopacity="1.0"
     bordercolor="#666666"
     pagecolor="#ffffff"
     id="base"
     showgrid="false"
     inkscape:zoom="25.698672"
     inkscape:cx="5.754003"
     inkscape:cy="8.9887915"
     inkscape:window-x="-4"
     inkscape:window-y="-4"
     inkscape:current-layer="svg2434" />
  <path
     style="fill:#000000;stroke:none"
     d="M 6.75,0.002192362 C 6.25988,0.028332362 5.7495034,0.51684368 5.1875,1.4709424 C 4.651636,1.5624317 4.2381067,1.7975971 3.9375,2.1896924 C 3.7806613,2.3596011 3.532426,2.5044537 3.21875,2.5959424 C 3.022702,2.6612917 2.9840807,2.7413836 3.0625,2.8459424 C 3.258548,2.9897111 3.4886033,3.1112738 3.75,3.1896924 C 3.6323713,3.8823951 3.642592,4.2675238 3.8125,4.3459424 C 3.9562687,4.4635711 4.2948159,4.2488464 4.84375,3.7521924 C 5.000588,3.9090304 5.1971328,4.035703 5.40625,4.1271924 C 5.6545773,4.1925411 5.7397793,4.1124497 5.6875,3.8771924 C 5.543732,3.6419351 5.4920406,3.3601883 5.53125,3.0334424 C 5.6227387,2.6674864 5.6460294,2.2539571 5.59375,1.7834424 C 6.116544,0.92083169 6.6581709,0.58085902 7.1875,0.78344236 C 7.7168293,0.98602503 7.9454598,1.6412552 7.90625,2.7521924 L 7.90625,6.7521924 L 6.0625,6.8146924 L 5.3125,6.7834424 C 4.7547828,6.1947439 4.2672009,5.9084424 3.84375,5.9084424 C 3.6888282,5.898114 3.5193278,5.8875202 3.34375,5.8771924 C 2.4761931,6.0424405 1.9359049,6.1271924 1.75,6.1271924 C 1.6260626,6.1271924 1.5625,6.1806929 1.5625,6.3459424 C 1.5625,6.583488 1.7635174,6.7209422 2.125,6.7209424 C 2.8273089,6.5970049 3.3360805,6.5440362 3.65625,6.5646924 C 3.8421549,6.5646924 3.9904685,6.6388496 4.09375,6.7834424 C 3.8768599,7.0519728 3.3525954,7.1790994 2.5625,7.1584424 C 1.7724025,7.1377856 1.0781067,7.031847 0.46875,6.8459424 C 0.1589081,6.8459424 -1e-07,7.0260375 0,7.3771924 C 0.0413123,7.6973627 1.164794,7.8668645 3.375,7.8771924 L 4.84375,7.7209424 L 7.90625,7.6896924 L 7.90625,11.564692 C 7.1743387,11.172597 6.4040814,10.952762 5.59375,10.939692 C 5.227794,10.547597 4.7960847,10.340832 4.3125,10.314692 C 4.0903127,10.275483 3.8551467,10.14881 3.59375,9.9396924 C 3.4369113,9.8220644 3.3517093,9.8402433 3.3125,9.9709424 C 3.28636,10.206199 3.3147607,10.441365 3.40625,10.689692 C 2.7658273,10.990299 2.4607907,11.225464 2.5,11.408442 C 2.47386,11.591419 2.812408,11.769783 3.53125,11.939692 C 3.4920407,12.161879 3.50511,12.386824 3.53125,12.595942 C 3.6358087,12.857339 3.762482,12.89085 3.90625,12.720942 C 4.0369487,12.459545 4.2306433,12.270961 4.53125,12.127192 C 4.884136,11.996493 5.2408641,11.753369 5.59375,11.439692 C 6.1949633,11.570391 6.7249444,11.800446 7.15625,12.127192 C 7.5875553,12.453938 7.8227208,12.735685 7.875,12.970942 C 7.88807,13.611365 7.8931805,14.066365 7.90625,14.314692 C 6.9782907,13.896457 6.2080334,13.689692 5.59375,13.689692 C 5.1885847,13.323736 4.7466547,13.145372 4.25,13.158442 C 4.0278127,13.145372 3.7744667,13.060169 3.5,12.877192 C 3.330092,12.759563 3.24489,12.764674 3.21875,12.908442 C 3.21875,13.143699 3.2522607,13.360685 3.34375,13.595942 C 2.7425367,13.948828 2.4789707,14.225464 2.53125,14.408442 C 2.53125,14.60449 2.8930886,14.772633 3.625,14.877192 C 3.5857907,15.09938 3.5909007,15.293076 3.65625,15.502192 C 3.7608087,15.750519 3.8874813,15.778919 4.03125,15.595942 C 4.1358087,15.321475 4.3374633,15.109601 4.625,14.939692 C 4.964816,14.782854 5.2800734,14.529509 5.59375,14.189692 C 6.0904047,14.241972 6.5789153,14.448736 7.0625,14.814692 C 7.5460847,15.180648 7.8227208,15.485685 7.875,15.720942 C 7.88807,15.825501 7.8931805,16.572467 7.90625,17.970942 L 8.59375,17.970942 C 8.60682,16.572467 8.63011,15.825501 8.65625,15.720942 C 8.6954593,15.485685 8.9320495,15.215584 9.34375,14.908442 C 9.75545,14.601301 10.278897,14.382891 10.90625,14.252192 C 11.206857,14.552799 11.503934,14.782854 11.84375,14.939692 C 12.131287,15.109601 12.332942,15.321475 12.4375,15.595942 C 12.581269,15.778919 12.707942,15.75052 12.8125,15.502192 C 12.877849,15.293075 12.90114,15.09938 12.875,14.877192 C 13.593841,14.772633 13.9375,14.60449 13.9375,14.408442 C 13.98978,14.225464 13.726214,13.948828 13.125,13.595942 C 13.216489,13.360685 13.26818,13.143699 13.28125,12.908442 C 13.24204,12.764674 13.138658,12.759563 12.96875,12.877192 C 12.694283,13.060169 12.440938,13.145372 12.21875,13.158442 C 11.735166,13.145372 11.311416,13.323736 10.90625,13.689692 C 10.08285,13.702762 9.2995227,13.909527 8.59375,14.314692 C 8.60682,14.079435 8.63011,13.637504 8.65625,12.970942 C 8.6954593,12.735685 8.9604498,12.440868 9.4375,12.127192 C 9.9145493,11.813515 10.409596,11.619821 10.90625,11.502192 C 11.272206,11.77666 11.615864,11.965244 11.96875,12.095942 C 12.256287,12.239711 12.463052,12.459545 12.59375,12.720942 C 12.750588,12.89085 12.87726,12.844269 12.96875,12.595942 C 13.007959,12.373755 13.007959,12.130629 12.96875,11.908442 C 13.687592,11.738534 14.026139,11.56017 14,11.377192 C 14.039209,11.194215 13.734173,10.959049 13.09375,10.658442 C 13.172169,10.410115 13.23182,10.174949 13.21875,9.9396924 C 13.179541,9.8089937 13.044908,9.7908135 12.875,9.9084424 C 12.626673,10.11756 12.409688,10.244233 12.1875,10.283442 C 11.690845,10.309581 11.272206,10.534526 10.90625,10.939692 C 10.06978,10.939692 9.2864527,11.159526 8.59375,11.564692 L 8.59375,7.6896924 L 13.25,7.6584424 L 15.59375,7.6896924 L 15.59375,3.9084424 C 15.59375,3.4023668 15.318308,3.1584424 14.78125,3.1584424 C 14.244188,3.1584424 13.958158,3.2964285 13.9375,3.5959424 C 13.710284,5.5479468 13.487546,6.5231146 13.25,6.5334424 L 8.59375,6.7209424 L 8.59375,2.7521924 C 8.59375,1.7066037 8.428456,1.0076424 8.0625,0.59594236 C 7.6965447,0.18424169 7.2401193,-0.023947638 6.75,0.002192362 z M 5,1.8146924 C 5.0620818,1.8040731 5.1319532,1.8048901 5.1875,1.8146924 C 5.331268,1.9976704 5.3545587,2.3441777 5.25,2.8146924 C 5.23693,2.9453911 5.2602207,3.2322471 5.3125,3.6896924 C 5.0380333,3.5328537 4.8880699,3.2976885 4.875,2.9709424 C 4.875,2.9448024 4.8801101,2.8647103 4.90625,2.7209424 C 4.93239,2.5771737 4.9039893,2.4789017 4.8125,2.4396924 C 4.7210113,2.3874131 4.571048,2.4675052 4.375,2.6896924 C 4.1266727,2.8334604 3.8863973,2.8436812 3.625,2.7521924 C 3.9517467,2.6084237 4.2050919,2.4249498 4.375,2.1896924 C 4.62006,1.9740399 4.8137546,1.8465503 5,1.8146924 z M 4.59375,2.9709424 C 4.5414707,3.1408504 4.5647606,3.3192145 4.65625,3.5021924 C 4.4209927,3.8027991 4.196048,3.976053 4,4.0021924 C 3.9215807,3.7407957 3.9630514,3.4641597 4.09375,3.1896924 C 4.2244487,3.1374131 4.3846326,3.062431 4.59375,2.9709424 z M 14.78125,3.5646924 C 14.998138,3.5646924 15.09375,3.6812249 15.09375,3.9084424 L 15.09375,6.5334424 L 14.09375,6.5334424 L 14.4375,3.7834424 C 14.447829,3.6388494 14.564361,3.5646925 14.78125,3.5646924 z M 12.8125,10.345942 C 12.747151,10.607339 12.573897,10.808994 12.3125,10.939692 C 12.024963,10.978901 11.90625,11.053883 11.90625,11.158442 C 11.893179,11.263001 11.931801,11.349628 12.0625,11.408442 C 12.193199,11.467256 12.286361,11.502192 12.3125,11.502192 C 12.573897,11.698241 12.68239,11.956696 12.65625,12.283442 C 12.303364,11.982835 12.073309,11.786291 11.96875,11.720942 C 11.511305,11.551033 11.252849,11.349379 11.1875,11.127192 C 11.26592,10.918074 11.506195,10.77607 11.9375,10.658442 C 12.225037,10.658442 12.524964,10.541989 12.8125,10.345942 z M 3.6875,10.377192 C 3.9881067,10.573239 4.2567833,10.658442 4.53125,10.658442 C 4.9625553,10.776071 5.2210114,10.931144 5.3125,11.127192 C 5.2471507,11.362449 4.9886946,11.582283 4.53125,11.752192 C 4.4136213,11.817541 4.183566,11.982835 3.84375,12.283442 C 3.81761,11.956695 3.9573527,11.698239 4.21875,11.502192 C 4.2448893,11.502192 4.3068013,11.467256 4.4375,11.408442 C 4.5681987,11.349627 4.6198899,11.294251 4.59375,11.189692 C 4.60682,11.085133 4.4568566,11.010151 4.15625,10.970942 C 3.9079233,10.840243 3.7659193,10.638589 3.6875,10.377192 z M 3.59375,10.970942 C 3.7113787,11.062431 3.8664519,11.165814 4.0625,11.283442 C 3.892592,11.322652 3.7295594,11.462395 3.625,11.658442 C 3.2459747,11.632303 2.9875187,11.520961 2.84375,11.377192 C 3.026728,11.168074 3.2931433,11.036291 3.59375,10.970942 z M 12.9375,10.970942 C 13.225037,11.036291 13.442022,11.168074 13.625,11.377192 C 13.481231,11.520961 13.240956,11.601052 12.875,11.627192 C 12.770441,11.444215 12.638657,11.335722 12.46875,11.283442 C 12.664797,11.165813 12.819872,11.062431 12.9375,10.970942 z M 3.625,13.283442 C 3.9386767,13.45335 4.2255326,13.528332 4.5,13.502192 C 4.9443747,13.580611 5.2079414,13.712394 5.3125,13.908442 C 5.2602207,14.143699 5.0068745,14.355575 4.5625,14.564692 C 4.4710107,14.643111 4.264246,14.862946 3.9375,15.189692 C 3.8852207,14.862946 3.9834926,14.58631 4.21875,14.377192 C 4.2579593,14.377192 4.3511214,14.324076 4.46875,14.252192 C 4.5863787,14.180308 4.6198899,14.106751 4.59375,14.002192 C 4.59375,13.897634 4.4568567,13.827762 4.15625,13.814692 C 3.8948533,13.710134 3.7164893,13.544839 3.625,13.283442 z M 12.84375,13.283442 C 12.752261,13.544839 12.573897,13.710134 12.3125,13.814692 C 12.011893,13.827763 11.875,13.897634 11.875,14.002192 C 11.848861,14.106751 11.882371,14.180308 12,14.252192 C 12.117629,14.324076 12.210791,14.377192 12.25,14.377192 C 12.485257,14.58631 12.583529,14.862946 12.53125,15.189692 C 12.217573,14.862946 12.010808,14.643111 11.90625,14.564692 C 11.461875,14.355575 11.19546,14.143699 11.15625,13.908442 C 11.247739,13.712394 11.524376,13.580611 11.96875,13.502192 C 12.256287,13.528331 12.543143,13.45335 12.84375,13.283442 z M 3.5625,13.908442 C 3.6931987,13.986861 3.8664519,14.066954 4.0625,14.158442 C 3.9056613,14.223791 3.7789886,14.355575 3.6875,14.564692 C 3.308474,14.564692 3.050018,14.507891 2.90625,14.377192 C 3.063088,14.141935 3.2749633,13.986861 3.5625,13.908442 z M 12.90625,13.908442 C 13.193787,13.986861 13.405662,14.141935 13.5625,14.377192 C 13.418732,14.507891 13.160276,14.564692 12.78125,14.564692 C 12.689761,14.355575 12.563088,14.223792 12.40625,14.158442 C 12.615368,14.066953 12.788621,13.986861 12.90625,13.908442 z"
     id="path2436" />
</svg>
