<?xml version="1.0" encoding="UTF-8" standalone="no"?>
<svg
   xmlns:dc="http://purl.org/dc/elements/1.1/"
   xmlns:cc="http://creativecommons.org/ns#"
   xmlns:rdf="http://www.w3.org/1999/02/22-rdf-syntax-ns#"
   xmlns:svg="http://www.w3.org/2000/svg"
   xmlns="http://www.w3.org/2000/svg"
   xmlns:sodipodi="http://sodipodi.sourceforge.net/DTD/sodipodi-0.dtd"
   xmlns:inkscape="http://www.inkscape.org/namespaces/inkscape"
   width="16.3125"
   height="17.96875"
   id="svg2536"
   sodipodi:version="0.32"
   inkscape:version="0.46"
   sodipodi:docname="M245.svg"
   inkscape:output_extension="org.inkscape.output.svg.inkscape"
   version="1.0">
  <metadata
     id="metadata2543">
    <rdf:RDF>
      <cc:Work
         rdf:about="">
        <dc:format>image/svg+xml</dc:format>
        <dc:type
           rdf:resource="http://purl.org/dc/dcmitype/StillImage" />
      </cc:Work>
    </rdf:RDF>
  </metadata>
  <defs
     id="defs2541">
    <inkscape:perspective
       sodipodi:type="inkscape:persp3d"
       inkscape:vp_x="0 : 8.9887915 : 1"
       inkscape:vp_y="0 : 1000 : 0"
       inkscape:vp_z="10.570426 : 8.9887915 : 1"
       inkscape:persp3d-origin="5.285213 : 5.9925276 : 1"
       id="perspective2545" />
  </defs>
  <sodipodi:namedview
     inkscape:window-height="708"
     inkscape:window-width="1024"
     inkscape:pageshadow="2"
     inkscape:pageopacity="0.0"
     guidetolerance="10.0"
     gridtolerance="10.0"
     objecttolerance="10.0"
     borderopacity="1.0"
     bordercolor="#666666"
     pagecolor="#ffffff"
     id="base"
     showgrid="false"
     inkscape:zoom="25.698672"
     inkscape:cx="5.285213"
     inkscape:cy="8.9887915"
     inkscape:window-x="-4"
     inkscape:window-y="-4"
     inkscape:current-layer="svg2536" />
  <path
     style="fill:#000000;stroke:none"
     d="M 7.34375,0 C 6.4006633,0 5.784608,0.37184062 5.4375,1.125 C 5.090392,1.8781593 5.088896,2.6001327 5.46875,3.28125 C 5.5604393,3.582514 5.651762,3.7767619 5.75,3.875 C 5.848238,3.973238 5.9693147,4.0029919 6.09375,3.9375 C 6.2181847,3.872008 6.2747007,3.744382 6.28125,3.59375 C 6.2877993,3.4431187 6.1964767,3.2720746 6,3.0625 C 5.8297207,2.695744 5.8413227,2.2441827 6.03125,1.6875 C 6.2211767,1.1308167 6.759008,0.84375002 7.65625,0.84375 C 8.553492,0.84375 9.0000001,1.5541206 9,2.96875 C 9,4.38338 9.0065493,5.8606367 9,7.40625 C 8.9996071,7.4989827 9.0004165,7.594673 9,7.6875 L 6.3125,7.8125 L 5.53125,7.75 C 4.9467455,7.0737486 4.4437894,6.7187501 4,6.71875 C 3.8376373,6.7068855 3.6527608,6.699364 3.46875,6.6875 C 2.5595241,6.8773242 2.007334,6.9687501 1.8125,6.96875 C 1.6826099,6.96875 1.625,7.0601745 1.625,7.25 C 1.625,7.5228741 1.8086553,7.6875001 2.1875,7.6875 C 2.923541,7.5451302 3.4769527,7.4762714 3.8125,7.5 C 4.007334,7.5 4.1417579,7.5839031 4.25,7.75 C 4.0226926,8.0584671 3.5155438,8.179979 2.6875,8.15625 C 1.8594539,8.132521 1.1073742,8.0260531 0.46875,7.8125 C 0.1440263,7.8125 -1.9999979e-07,8.0028711 2.0872193e-13,8.40625 C 0.0432966,8.7740369 1.2148874,8.9881358 3.53125,9 L 5.0625,8.8125 L 9,8.78125 C 8.9940143,9.878934 8.978006,10.982983 8.96875,12.09375 C 8.2745333,11.556714 7.4960446,11.344315 6.625,11.46875 C 5.7539547,11.593185 5.1364034,11.907015 4.75,12.4375 C 4.3635967,12.967987 4.15625,13.530518 4.15625,14.09375 C 5.1386313,12.980384 6.0215412,12.402693 6.78125,12.34375 C 7.5409587,12.284807 8.0838426,12.414494 8.4375,12.78125 C 8.7911573,13.148006 8.9687498,13.413365 8.96875,13.53125 C 8.916356,14.788699 8.9062502,16.252857 8.90625,17.96875 L 10,17.96875 C 10,16.252857 9.9586442,14.788699 9.90625,13.53125 C 9.90625,13.413365 10.090392,13.148006 10.4375,12.78125 C 10.784608,12.414495 11.327492,12.284807 12.09375,12.34375 C 12.860007,12.402693 13.736368,12.980384 14.71875,14.09375 C 14.71875,13.530518 14.517953,12.967987 14.125,12.4375 C 13.732047,11.907015 13.114496,11.593186 12.25,11.46875 C 11.385504,11.344315 10.600466,11.556714 9.90625,12.09375 C 9.8969934,10.982983 9.8809859,9.8822047 9.875,8.78125 L 13.84375,8.75 L 16.3125,8.78125 L 16.3125,4.4375 C 16.3125,3.8561594 16.031603,3.59375 15.46875,3.59375 C 14.905893,3.59375 14.615401,3.7496915 14.59375,4.09375 C 14.355621,6.3360623 14.123956,7.4568864 13.875,7.46875 L 9.875,7.65625 C 9.8746321,7.5734158 9.8753493,7.4890283 9.875,7.40625 C 9.8684513,5.8540873 9.8815495,4.43185 9.875,3.1875 C 9.8684507,1.94315 9.6727065,1.1015967 9.3125,0.65625 C 8.9522933,0.210904 8.286836,-9.9466091e-18 7.34375,0 z M 15.46875,4.0625 C 15.696055,4.0625 15.8125,4.17649 15.8125,4.4375 L 15.8125,7.46875 L 14.78125,7.46875 L 15.09375,4.3125 C 15.104576,4.1464028 15.241445,4.0625001 15.46875,4.0625 z"
     id="path2538" />
</svg>
