<?xml version="1.0" encoding="UTF-8" standalone="no"?>
<!-- Created with Inkscape (http://www.inkscape.org/) -->
<svg
   xmlns:dc="http://purl.org/dc/elements/1.1/"
   xmlns:cc="http://creativecommons.org/ns#"
   xmlns:rdf="http://www.w3.org/1999/02/22-rdf-syntax-ns#"
   xmlns:svg="http://www.w3.org/2000/svg"
   xmlns="http://www.w3.org/2000/svg"
   xmlns:sodipodi="http://sodipodi.sourceforge.net/DTD/sodipodi-0.dtd"
   xmlns:inkscape="http://www.inkscape.org/namespaces/inkscape"
   width="1800"
   height="1800"
   id="svg2451"
   sodipodi:version="0.32"
   inkscape:version="0.46"
   version="1.0"
   sodipodi:docname="M2A.svg"
   inkscape:output_extension="org.inkscape.output.svg.inkscape">
  <defs
     id="defs2453">
    <inkscape:perspective
       sodipodi:type="inkscape:persp3d"
       inkscape:vp_x="0 : 526.18109 : 1"
       inkscape:vp_y="0 : 1000 : 0"
       inkscape:vp_z="744.09448 : 526.18109 : 1"
       inkscape:persp3d-origin="372.04724 : 350.78739 : 1"
       id="perspective2459" />
  </defs>
  <sodipodi:namedview
     id="base"
     pagecolor="#ffffff"
     bordercolor="#666666"
     borderopacity="1.0"
     inkscape:pageopacity="0.0"
     inkscape:pageshadow="2"
     inkscape:zoom="0.27944444"
     inkscape:cx="899.99998"
     inkscape:cy="504.41954"
     inkscape:document-units="px"
     inkscape:current-layer="layer1"
     showgrid="true"
     inkscape:window-width="1024"
     inkscape:window-height="708"
     inkscape:window-x="0"
     inkscape:window-y="26">
    <inkscape:grid
       type="xygrid"
       id="grid2576"
       visible="true"
       enabled="true" />
  </sodipodi:namedview>
  <metadata
     id="metadata2456">
    <rdf:RDF>
      <cc:Work
         rdf:about="">
        <dc:format>image/svg+xml</dc:format>
        <dc:type
           rdf:resource="http://purl.org/dc/dcmitype/StillImage" />
      </cc:Work>
    </rdf:RDF>
  </metadata>
  <g
     inkscape:label="Calque 1"
     inkscape:groupmode="layer"
     id="layer1">
    <path
       style="fill:#000000;stroke:none"
       d="M 98.000486,106.341 C 72.979078,106.341 60.468374,157.7739 60.468374,260.6397 C 60.468374,364.89556 72.979078,417.02349 98.000486,417.02349 C 188.35562,318.32791 273.84543,268.98012 354.46993,268.98012 L 354.46993,254.38427 C 273.84543,254.38427 188.35562,205.03651 98.000486,106.341 z M 100.08566,631.79056 C 75.064257,631.79056 62.553553,683.22346 62.553553,786.08927 C 62.553553,888.95507 75.064257,940.38797 100.08566,940.38797 C 189.05068,843.08251 274.54049,794.42978 356.55511,794.42978 L 356.55511,779.83393 C 274.54049,779.83393 189.05068,730.48614 100.08566,631.79056 z M 100.08566,1157.2402 C 75.064257,1157.2402 62.553553,1208.6731 62.553553,1311.5389 C 62.553553,1414.4047 75.064257,1465.8375 100.08566,1465.8375 C 189.05068,1368.5321 274.54049,1319.8793 356.55511,1319.8793 L 356.55511,1305.2835 C 274.54049,1305.2835 189.05068,1255.9357 100.08566,1157.2402 z M 1198.9425,1255.2407 C 1237.8647,1391.4683 1235.7796,1574.9586 1192.6872,1805.7117 L 1109.2824,1807.7968 C 1093.9916,1748.0233 1054.3744,1669.4839 990.43075,1572.1785 C 926.48715,1474.873 761.06786,1402.589 494.17289,1355.3264 C 332.92376,1355.3264 201.56135,1428.3055 100.08566,1574.2636 C 33.361888,1574.2636 0,1486.6887 0,1311.5389 C 0,1136.389 33.361888,1048.814 100.08566,1048.814 C 201.56135,1194.7723 338.48406,1267.7514 510.85381,1267.7514 C 805.55037,1320.5743 1011.2819,1435.2557 1128.0485,1611.7957 C 1150.2898,1410.2344 1121.0981,1247.5953 1040.4735,1123.8783 C 943.16807,975.13988 761.06786,877.13939 494.17289,829.87681 C 332.92376,829.87681 201.56135,902.85589 100.08566,1048.814 C 33.361888,1048.814 0,961.23912 0,786.08927 C 0,610.93941 33.361888,523.36449 100.08566,523.36449 C 201.56135,669.32271 338.48406,742.30182 510.85381,742.30182 C 805.55037,795.12481 1011.977,910.50131 1130.1337,1088.4313 C 1146.8146,879.91956 1111.7151,709.28743 1024.8352,576.53493 C 937.9553,443.78251 761.06786,353.07991 494.17289,304.42715 C 332.92376,305.8172 200.86629,378.79631 98.000486,523.36449 C 32.666829,523.36449 0,435.78956 0,260.6397 C 0,86.879901 32.666829,4.0927262e-12 98.000486,4.0927262e-12 C 200.86629,144.56817 337.789,216.85226 508.76864,216.85226 C 804.85531,269.67518 1007.8067,378.79631 1117.6229,544.21567 C 1227.4391,709.63496 1254.5457,946.64331 1198.9425,1255.2407 z"
       id="path2619" />
  </g>
</svg>
