<?xml version="1.0" encoding="UTF-8" standalone="no"?>
<!-- Created with Inkscape (http://www.inkscape.org/) -->
<svg
   xmlns:dc="http://purl.org/dc/elements/1.1/"
   xmlns:cc="http://web.resource.org/cc/"
   xmlns:rdf="http://www.w3.org/1999/02/22-rdf-syntax-ns#"
   xmlns:svg="http://www.w3.org/2000/svg"
   xmlns="http://www.w3.org/2000/svg"
   xmlns:sodipodi="http://inkscape.sourceforge.net/DTD/sodipodi-0.dtd"
   xmlns:inkscape="http://www.inkscape.org/namespaces/inkscape"
   sodipodi:docname="M3.svg"
   sodipodi:docbase="/home/rosmord/Travail/Gsigns/Ramessides/Fontes"
   inkscape:version="0.41.1"
   sodipodi:version="0.32"
   id="svg1290"
   height="18.000000px"
   width="18.000000px">
  <defs
     id="defs3" />
  <sodipodi:namedview
     inkscape:window-y="49"
     inkscape:window-x="5"
     inkscape:window-height="541"
     inkscape:window-width="840"
     inkscape:current-layer="layer1"
     inkscape:document-units="px"
     inkscape:cy="6.2217690"
     inkscape:cx="11.447968"
     inkscape:zoom="15.389597"
     inkscape:pageshadow="2"
     inkscape:pageopacity="0.0"
     borderopacity="1.0"
     bordercolor="#666666"
     pagecolor="#ffffff"
     id="base" />
  <metadata
     id="metadata4">
    <rdf:RDF
       id="RDF5">
      <cc:Work
         id="Work6"
         rdf:about="">
        <dc:format
           id="format7">image/svg+xml</dc:format>
        <dc:type
           rdf:resource="http://purl.org/dc/dcmitype/StillImage"
           id="type9" />
        <cc:license
           rdf:resource="http://creativecommons.org/licenses/by/2.0/"
           id="license1300" />
        <dc:subject
           id="subject1316">
          <rdf:Bag
             id="Bag1318">
            <rdf:li
               id="li1350">JSesh hieroglyph</rdf:li>
          </rdf:Bag>
        </dc:subject>
        <dc:creator
           id="creator2199">
          <cc:Agent
             id="Agent2201">
            <dc:title
               id="title2203">Serge Rosmorduc</dc:title>
          </cc:Agent>
        </dc:creator>
        <dc:description
           id="description2205">Karnak Hypostyle walls.</dc:description>
      </cc:Work>
      <cc:License
         id="License1302"
         rdf:about="http://creativecommons.org/licenses/by/2.0/">
        <cc:permits
           id="permits1304"
           rdf:resource="http://web.resource.org/cc/Reproduction" />
        <cc:permits
           id="permits1306"
           rdf:resource="http://web.resource.org/cc/Distribution" />
        <cc:requires
           id="requires1308"
           rdf:resource="http://web.resource.org/cc/Notice" />
        <cc:requires
           id="requires1310"
           rdf:resource="http://web.resource.org/cc/Attribution" />
        <cc:permits
           id="permits1312"
           rdf:resource="http://web.resource.org/cc/DerivativeWorks" />
        <cc:requires
           id="requires1314"
           rdf:resource="http://web.resource.org/cc/ShareAlike" />
      </cc:License>
    </rdf:RDF>
  </metadata>
  <g
     id="layer1"
     inkscape:groupmode="layer"
     inkscape:label="Layer 1">
    <path
       id="path2175"
       d="M 0.67825603,14.164746 C 0.45808702,14.213693 0.23762695,14.261717 0.017244711,14.309833 C 0.11164544,15.092064 0.41579382,15.851903 0.92096895,16.459657 C 1.3733883,17.010978 2.0069645,17.449548 2.7240130,17.549788 C 3.2222274,17.596851 3.7246804,17.582895 4.2239712,17.561633 C 5.1569807,17.512900 6.0901580,17.261153 6.8783097,16.749808 C 7.3476579,16.449547 7.7557571,16.061041 8.1070450,15.629761 C 8.1900991,15.552520 8.3162215,15.609827 8.4186832,15.589943 C 10.344469,15.572190 12.271173,15.525768 14.196525,15.584192 C 14.320234,15.556272 14.152236,15.682273 14.129309,15.722101 C 13.623032,16.295994 13.127826,16.879716 12.604231,17.437855 C 12.958061,17.637886 13.311860,17.837988 13.665935,18.037584 C 14.242142,17.468780 14.679582,16.745331 15.386033,16.319058 C 16.051852,15.978407 16.820150,16.017791 17.545457,15.953710 C 17.718862,15.938519 17.892333,15.924032 18.065697,15.908413 C 18.065697,15.431423 18.065697,14.954433 18.065697,14.477443 C 14.988598,14.485772 11.911352,14.485155 8.8345807,14.536662 C 7.2727341,14.579675 5.7258028,14.312974 4.1692863,14.238536 C 3.7226615,14.221992 3.2727534,14.227771 2.8296997,14.283518 C 2.5255324,14.357513 2.4004401,14.676928 2.2542464,14.918801 C 2.1828706,15.044873 2.1064331,15.167830 2.0275169,15.289304 C 2.1753264,15.363454 2.2924874,15.209238 2.4198412,15.161274 C 2.7000939,15.001613 3.0095714,14.839459 3.3432435,14.886353 C 4.4885142,14.905763 5.6241737,15.069998 6.7630229,15.177215 C 6.5286988,15.686919 6.0011283,15.967124 5.4992273,16.155706 C 4.6059236,16.503508 3.6449132,16.667196 2.6887622,16.682285 C 2.1686242,16.643383 1.7524488,16.262870 1.4584066,15.861362 C 1.0810348,15.358527 0.88032172,14.754125 0.69344641,14.161079 L 0.67825603,14.164746 z "
       style="color:#000000;fill:#000000;fill-opacity:1.0000000;fill-rule:evenodd;stroke:none;stroke-width:0.36888990;stroke-linecap:butt;stroke-linejoin:miter;stroke-miterlimit:4.0000000;stroke-dashoffset:0.0000000;stroke-opacity:1.0000000;marker:none;marker-start:none;marker-mid:none;marker-end:none;visibility:visible;display:inline;overflow:visible" />
  </g>
</svg>
