<?xml version="1.0" encoding="UTF-8" standalone="no"?>
<svg
   xmlns:dc="http://purl.org/dc/elements/1.1/"
   xmlns:cc="http://web.resource.org/cc/"
   xmlns:rdf="http://www.w3.org/1999/02/22-rdf-syntax-ns#"
   xmlns:svg="http://www.w3.org/2000/svg"
   xmlns="http://www.w3.org/2000/svg"
   xmlns:sodipodi="http://sodipodi.sourceforge.net/DTD/sodipodi-0.dtd"
   xmlns:inkscape="http://www.inkscape.org/namespaces/inkscape"
   width="9.528039"
   height="17.040001"
   id="svg2"
   sodipodi:version="0.32"
   inkscape:version="0.44"
   sodipodi:docname="US22M31.svg"
   sodipodi:docbase="C:\Program Files\JSesh\fonteUS22">
  <metadata
     id="metadata9">
    <rdf:RDF>
      <cc:Work
         rdf:about="">
        <dc:format>image/svg+xml</dc:format>
        <dc:type
           rdf:resource="http://purl.org/dc/dcmitype/StillImage" />
        <dc:title>US22M31</dc:title>
        <dc:date>09/10/06</dc:date>
        <dc:creator>
          <cc:Agent>
            <dc:title>SR &amp; ST</dc:title>
          </cc:Agent>
        </dc:creator>
        <dc:publisher>
          <cc:Agent>
            <dc:title>Serge Rosmorduc</dc:title>
          </cc:Agent>
        </dc:publisher>
        <dc:description>optimisation du signe M31 de Jsesh</dc:description>
        <cc:license
           rdf:resource="http://creativecommons.org/licenses/GPL/2.0/" />
      </cc:Work>
      <cc:License
         rdf:about="http://creativecommons.org/licenses/GPL/2.0/">
        <cc:permits
           rdf:resource="http://web.resource.org/cc/Reproduction" />
        <cc:permits
           rdf:resource="http://web.resource.org/cc/Distribution" />
        <cc:requires
           rdf:resource="http://web.resource.org/cc/Notice" />
        <cc:permits
           rdf:resource="http://web.resource.org/cc/DerivativeWorks" />
        <cc:requires
           rdf:resource="http://web.resource.org/cc/ShareAlike" />
        <cc:requires
           rdf:resource="http://web.resource.org/cc/SourceCode" />
      </cc:License>
    </rdf:RDF>
  </metadata>
  <defs
     id="defs7" />
  <sodipodi:namedview
     inkscape:window-height="569"
     inkscape:window-width="939"
     inkscape:pageshadow="2"
     inkscape:pageopacity="0.0"
     guidetolerance="10.0"
     gridtolerance="10.0"
     objecttolerance="10.0"
     borderopacity="1.0"
     bordercolor="#666666"
     pagecolor="#ffffff"
     id="base"
     inkscape:zoom="22.124412"
     inkscape:cx="4.7640195"
     inkscape:cy="8.5200005"
     inkscape:window-x="66"
     inkscape:window-y="68"
     inkscape:current-layer="svg2" />
  <path
     style="fill:#000000; stroke:none"
     d=" M 5.357796 3.176013  Q 5.551118 2.678898 5.495883 2.071313  Q 5.440648 1.049465 5.385413 0.524733  Q 5.330178 0 5.799676 0  Q 6.241556 0 6.20013 0.524733  Q 6.158703 1.049465 6.075851 2.071313  Q 6.020616 2.706515 6.213938 3.176013  L 7.484344 3.176013  Q 7.677666 2.678898 7.594814 2.071313  Q 7.539578 1.049465 7.484344 0.524733  Q 7.429109 0 7.898606 0  Q 8.368104 0 8.312869 0.524733  Q 8.257634 1.049465 8.174781 2.071313  Q 8.119546 2.706515 8.312869 3.176013  L 8.948071 3.176013  Q 9.251863 3.176013 9.141394 3.507423  Q 8.478574 5.992999 8.975689 7.001037  Q 9.472804 8.009076 9.528039 10.522269  Q 9.417569 12.400259 8.892837 13.974457  Q 8.368104 15.548655 7.235786 17.040001  L 2.264635 17.040001  Q 1.132318 15.548655 0.621394 13.974457  Q 0.11047 12.400259 0 10.522269  Q 0.055235 8.009076 0.538541 7.001037  Q 1.021848 5.992999 0.359028 3.507423  Q 0.248558 3.176013 0.55235 3.176013  L 1.187553 3.176013  Q 1.380875 2.706515 1.32564 2.071313  Q 1.242788 1.049465 1.201361 0.524733  Q 1.159935 0 1.601815 0  Q 2.071313 0 2.029886 0.524733  Q 1.98846 1.049465 1.905608 2.071313  Q 1.850373 2.678898 2.043695 3.176013  L 3.286483 3.176013  Q 3.479805 2.706515 3.424571 2.071313  Q 3.341718 1.049465 3.300292 0.524733  Q 3.258866 0 3.728363 0  Q 4.170243 0 4.128817 0.524733  Q 4.08739 1.049465 4.004538 2.071313  Q 3.949303 2.678898 4.142626 3.176013  L 5.357796 3.176013  Z  M 6.600584 16.101006  Q 8.506191 13.532577 8.506191 10.522269  Q 8.506191 8.119546 8.036694 7.139125  Q 7.567196 6.158703 7.760519 5.482075  Q 7.953841 4.805446 7.953841 4.142626  L 1.54658 4.142626  Q 1.54658 4.805446 1.739903 5.482075  Q 1.933225 6.158703 1.463728 7.139125  Q 0.99423 8.119546 0.99423 10.522269  Q 0.99423 13.532577 2.899838 16.101006  L 6.600584 16.101006  Z "
     id="path4" />
</svg>
