<?xml version="1.0" encoding="UTF-8" standalone="no"?>
<svg
   xmlns:dc="http://purl.org/dc/elements/1.1/"
   xmlns:cc="http://web.resource.org/cc/"
   xmlns:rdf="http://www.w3.org/1999/02/22-rdf-syntax-ns#"
   xmlns:svg="http://www.w3.org/2000/svg"
   xmlns="http://www.w3.org/2000/svg"
   xmlns:sodipodi="http://sodipodi.sourceforge.net/DTD/sodipodi-0.dtd"
   xmlns:inkscape="http://www.inkscape.org/namespaces/inkscape"
   width="5.502853"
   height="18.719999"
   id="svg1927"
   sodipodi:version="0.32"
   inkscape:version="0.44"
   sodipodi:docname="US22M32.svg"
   sodipodi:docbase="C:\Program Files\JSesh\fonteUS22">
  <metadata
     id="metadata1934">
    <rdf:RDF>
      <cc:Work
         rdf:about="">
        <dc:format>image/svg+xml</dc:format>
        <dc:type
           rdf:resource="http://purl.org/dc/dcmitype/StillImage" />
        <cc:license
           rdf:resource="http://creativecommons.org/licenses/GPL/2.0/" />
        <dc:title>US22M32</dc:title>
        <dc:date>09/10/06</dc:date>
        <dc:creator>
          <cc:Agent>
            <dc:title>SR &amp; ST</dc:title>
          </cc:Agent>
        </dc:creator>
        <dc:publisher>
          <cc:Agent>
            <dc:title>Serge Rosmorduc</dc:title>
          </cc:Agent>
        </dc:publisher>
        <dc:description>optimisation du signe M32 de Jsesh</dc:description>
      </cc:Work>
      <cc:License
         rdf:about="http://creativecommons.org/licenses/GPL/2.0/">
        <cc:permits
           rdf:resource="http://web.resource.org/cc/Reproduction" />
        <cc:permits
           rdf:resource="http://web.resource.org/cc/Distribution" />
        <cc:requires
           rdf:resource="http://web.resource.org/cc/Notice" />
        <cc:permits
           rdf:resource="http://web.resource.org/cc/DerivativeWorks" />
        <cc:requires
           rdf:resource="http://web.resource.org/cc/ShareAlike" />
        <cc:requires
           rdf:resource="http://web.resource.org/cc/SourceCode" />
      </cc:License>
    </rdf:RDF>
  </metadata>
  <defs
     id="defs1932" />
  <sodipodi:namedview
     inkscape:window-height="569"
     inkscape:window-width="939"
     inkscape:pageshadow="2"
     inkscape:pageopacity="0.0"
     guidetolerance="10.0"
     gridtolerance="10.0"
     objecttolerance="10.0"
     borderopacity="1.0"
     bordercolor="#666666"
     pagecolor="#ffffff"
     id="base"
     inkscape:zoom="20.13889"
     inkscape:cx="2.7514266"
     inkscape:cy="9.3599999"
     inkscape:window-x="77"
     inkscape:window-y="145"
     inkscape:current-layer="svg1927" />
  <path
     style="fill:#000000; stroke:none"
     d=" M 2.751427 0  Q 3.060359 0 3.039763 1.050369  L 2.977977 2.780389  Q 2.977977 3.274681 3.122145 3.748377  L 3.286909 3.748377  Q 3.472268 3.23349 3.513459 2.739198  Q 3.616437 1.73002 3.678223 1.050369  Q 3.760605 0 4.069537 0.020595  Q 4.378469 0.061786 4.234301 1.112156  L 3.96656 2.800985  Q 3.904773 3.295276 4.007751 3.748377  L 4.234301 3.748377  Q 4.502042 3.23349 4.584424 2.739198  Q 4.769783 1.73002 4.83157 1.153347  Q 5.016929 0.102977 5.325861 0.164764  Q 5.634793 0.22655 5.408243 1.256324  L 5.037525 2.82158  Q 4.934547 3.315871 4.996334 3.810163  L 4.975738 3.810163  Q 5.140502 4.654577 5.346457 5.437205  Q 5.902534 10.153569 3.595841 14.993506  Q 3.039763 15.899707 4.234301 16.857397  Q 5.428839 17.815086 5.428839 18.39176  Q 5.552412 18.803669 5.140502 18.700691  Q 4.563828 18.597713 3.987155 17.701811  Q 3.410482 16.805908 2.751427 16.51757  Q 2.092372 16.805908 1.515698 17.701811  Q 0.939025 18.597713 0.382947 18.700691  Q -0.049558 18.803669 0.074015 18.39176  Q 0.074015 17.815086 1.268553 16.857397  Q 2.46309 15.899707 1.907012 14.993506  Q -0.399681 10.153569 0.156397 5.437205  Q 0.362352 4.654577 0.527115 3.810163  L 0.527115 3.810163  Q 0.568306 3.315871 0.465329 2.82158  L 0.09461 1.256324  Q -0.13194 0.22655 0.176992 0.164764  Q 0.485925 0.102977 0.671284 1.153347  Q 0.73307 1.73002 0.918429 2.739198  Q 1.000811 3.23349 1.268553 3.748377  L 1.495103 3.748377  Q 1.59808 3.295276 1.536294 2.800985  L 1.268553 1.112156  Q 1.124384 0.061786 1.433316 0.020595  Q 1.742249 0 1.82463 1.050369  Q 1.886417 1.73002 1.989394 2.739198  Q 2.030585 3.23349 2.215945 3.748377  L 2.380708 3.748377  Q 2.524877 3.274681 2.524877 2.780389  L 2.46309 1.050369  Q 2.442495 0 2.751427 0  Z  M 2.751427 14.684574  Q 4.090133 12.480858 4.553531 10.132974  Q 5.016929 7.78509 4.728592 5.437205  Q 4.254897 4.32505 2.751427 4.32505  L 2.751427 4.32505  Q 1.247957 4.32505 0.774261 5.437205  Q 0.485925 7.78509 0.949323 10.132974  Q 1.412721 12.480858 2.751427 14.684574  L 2.751427 14.684574  Z "
     id="path1929" />
</svg>
