<?xml version="1.0" encoding="UTF-8" standalone="no"?>
<svg
   xmlns:dc="http://purl.org/dc/elements/1.1/"
   xmlns:cc="http://web.resource.org/cc/"
   xmlns:rdf="http://www.w3.org/1999/02/22-rdf-syntax-ns#"
   xmlns:svg="http://www.w3.org/2000/svg"
   xmlns="http://www.w3.org/2000/svg"
   xmlns:sodipodi="http://sodipodi.sourceforge.net/DTD/sodipodi-0.dtd"
   xmlns:inkscape="http://www.inkscape.org/namespaces/inkscape"
   width="1800"
   height="1800"
   id="svg1369"
   sodipodi:version="0.32"
   inkscape:version="0.44"
   sodipodi:docname="M3A.svg"
   sodipodi:docbase="/home/rosmord/Travail/Gsigns/Distribution"
   version="1.0">
  <metadata
     id="metadata1376">
    <rdf:RDF>
      <cc:Work
         rdf:about="">
        <dc:format>image/svg+xml</dc:format>
        <dc:type
           rdf:resource="http://purl.org/dc/dcmitype/StillImage" />
        <dc:title>US22M3A</dc:title>
        <dc:date>18/03/06</dc:date>
        <dc:creator>
          <cc:Agent>
            <dc:title>SR &amp; ST</dc:title>
          </cc:Agent>
        </dc:creator>
        <dc:publisher>
          <cc:Agent>
            <dc:title>Serge Rosmorduc</dc:title>
          </cc:Agent>
        </dc:publisher>
        <dc:description>pour rendre le groupe M3A de la classification de Bob Richmond. A partir de signes ST &amp; SR déjà pubkiés</dc:description>
        <cc:license
           rdf:resource="http://creativecommons.org/licenses/GPL/2.0/" />
      </cc:Work>
      <cc:License
         rdf:about="http://creativecommons.org/licenses/GPL/2.0/">
        <cc:permits
           rdf:resource="http://web.resource.org/cc/Reproduction" />
        <cc:permits
           rdf:resource="http://web.resource.org/cc/Distribution" />
        <cc:requires
           rdf:resource="http://web.resource.org/cc/Notice" />
        <cc:permits
           rdf:resource="http://web.resource.org/cc/DerivativeWorks" />
        <cc:requires
           rdf:resource="http://web.resource.org/cc/ShareAlike" />
        <cc:requires
           rdf:resource="http://web.resource.org/cc/SourceCode" />
      </cc:License>
    </rdf:RDF>
  </metadata>
  <defs
     id="defs1374" />
  <sodipodi:namedview
     inkscape:window-height="708"
     inkscape:window-width="1024"
     inkscape:pageshadow="2"
     inkscape:pageopacity="0.0"
     borderopacity="1.0"
     bordercolor="#666666"
     pagecolor="#ffffff"
     id="base"
     inkscape:zoom="0.19769087"
     inkscape:cx="1264.9554"
     inkscape:cy="606.8214"
     inkscape:window-x="293"
     inkscape:window-y="252"
     inkscape:current-layer="svg1369"
     width="1800px"
     height="1800px" />
  <path
     style="opacity:1;color:black;fill:black;fill-opacity:1;fill-rule:nonzero;stroke:none;stroke-width:8.25491714;stroke-linecap:butt;stroke-linejoin:round;marker:none;marker-start:none;marker-mid:none;marker-end:none;stroke-miterlimit:4;stroke-dashoffset:0;stroke-opacity:1;visibility:visible;display:inline;overflow:visible"
     d="M 553.6875 8.40625 C 516.82865 24.78796 448.22577 41.150534 392.9375 36.03125 C 341.74465 45.24596 282.3622 -0.81684921 237.3125 28.875 C 181.00037 110.78355 129.79939 201.88817 123.65625 303.25 C 112.39382 497.7828 117.51522 565.37208 271.09375 725.09375 C 295.05318 779.51009 327.22632 882.77355 359.4375 995.125 C 353.33009 995.22871 342.64697 995.40965 337.25 995.5 C 205.43776 999.13004 74.862489 976.62595 -56.5 970.34375 C -94.192841 968.94741 -132.13978 969.42016 -169.53125 974.125 C -195.20161 980.36983 -205.7557 1007.3371 -218.09375 1027.75 C -224.1174 1038.3899 -230.58988 1048.7794 -237.25 1059.0312 C -224.77564 1065.2892 -214.87315 1052.2667 -204.125 1048.2188 C -180.47309 1034.7441 -154.34795 1021.0423 -126.1875 1025 C -29.532345 1026.6382 66.292893 1040.514 162.40625 1049.5625 C 142.63047 1092.5792 98.107928 1116.2096 55.75 1132.125 C -19.64041 1161.4778 -100.74306 1175.2891 -181.4375 1176.5625 C -225.33469 1173.2794 -260.46554 1141.1665 -285.28125 1107.2812 C -317.12957 1064.8443 -334.07235 1013.8626 -349.84375 963.8125 L -351.125 964.09375 C -369.70621 968.22461 -388.30707 972.28305 -406.90625 976.34375 C -398.93925 1042.3603 -373.25933 1106.4898 -330.625 1157.7812 C -292.44303 1204.3101 -238.98416 1241.3215 -178.46875 1249.7812 C -136.42189 1253.7532 -94.01273 1252.5756 -51.875 1250.7812 C 26.866532 1246.6683 105.64 1225.4363 172.15625 1182.2812 C 211.76697 1156.9407 246.19682 1124.1479 275.84375 1087.75 C 282.85317 1081.2312 293.50902 1086.0532 302.15625 1084.375 C 319.81039 1084.2123 348.90039 1083.756 384.21875 1083.125 C 424.25367 1227.6928 461.00595 1370.5063 477.9375 1431.5625 C 514.79635 1466.3735 431.84238 1656.8088 397.03125 1703.9062 C 359.14854 1756.123 197.38705 1709.0219 129.8125 1751 C 101.14451 1769.4294 90.89954 1838.0353 107.28125 1847.25 C 122.6391 1823.7013 153.37401 1791.9466 174.875 1788.875 C 154.39787 1810.376 226.0484 1800.1307 241.40625 1805.25 C 302.83766 1806.2739 365.29473 1813.4483 427.75 1806.2812 C 444.13171 1799.1142 462.55275 1784.7859 448.21875 1811.4062 C 542.41358 1835.9788 674.49901 1820.632 696 1765.3438 C 726.71571 1709.0317 755.39786 1649.6502 775.875 1588.2188 C 809.66228 1595.3858 854.69962 1624.0306 882.34375 1606.625 C 911.01171 1587.1717 940.71204 1496.0638 957.09375 1435.6562 C 960.16533 1423.37 989.84946 1423.3626 994.96875 1434.625 C 1025.6845 1496.0564 1076.8863 1684.4443 1126.0312 1763.2812 C 1186.4388 1858.5 1387.1156 1874.8911 1524.3125 1816.5312 C 1590.8632 1787.8633 1639.9903 1794.0151 1625.6562 1757.1562 C 1603.1313 1695.7249 1564.2356 1637.3417 1523.2812 1585.125 C 1582.665 1621.9838 1642.0538 1659.8599 1701.4375 1696.7188 C 1715.7715 1748.9355 1793.5702 1709.0241 1755.6875 1669.0938 C 1639.3457 1500.9875 1488.6342 1273.611 1335 1065.1875 C 1473.9976 1063.1723 1584.2727 1062.2848 1629.4688 1063.6562 C 1639.9092 1061.2999 1625.7162 1071.9512 1623.7812 1075.3125 C 1581.054 1123.7461 1539.2513 1173.0209 1495.0625 1220.125 C 1524.924 1237.0067 1554.8052 1253.8737 1584.6875 1270.7188 C 1633.3165 1222.7145 1670.2228 1161.6628 1729.8438 1125.6875 C 1786.0356 1096.9381 1850.8812 1100.2518 1912.0938 1094.8438 C 1926.7281 1093.5617 1941.3688 1092.3494 1956 1091.0312 C 1956 1050.7756 1956 1010.5368 1956 970.28125 C 1842.0172 970.58977 1566.26 974.6412 1270.75 979.46875 C 1138.6838 806.36954 1007.7165 655.2634 897.71875 575.625 C 856.76445 539.78998 808.61556 512.12263 755.375 498.8125 C 737.96941 453.76278 743.11357 393.34909 732.875 342.15625 C 722.63646 240.79443 661.19247 72.909233 553.6875 8.40625 z M 544.46875 74.9375 C 604.87631 145.58363 658.13643 227.49267 668.375 321.6875 C 678.61355 389.26206 681.66768 456.85555 691.90625 523.40625 C 643.78495 519.31083 658.12904 444.55374 667.34375 408.71875 C 675.53459 338.07264 637.65153 272.54902 611.03125 210.09375 C 592.60181 176.30648 575.19116 123.05511 528.09375 122.03125 C 475.87707 131.24596 442.09977 175.27355 408.3125 213.15625 C 373.50136 178.34512 336.62128 140.459 288.5 126.125 C 269.04672 118.958 230.16097 145.57592 256.78125 112.8125 C 274.18682 51.381087 341.7628 105.65221 386.8125 96.4375 C 440.05306 99.509074 494.29976 93.366924 544.46875 74.9375 z M 528.09375 152.75 C 568.02419 162.98857 577.23422 218.29908 596.6875 251.0625 C 621.26004 308.39849 650.95328 370.84077 631.5 435.34375 C 616.14216 466.05945 635.61021 504.97515 633.5625 527.5 C 595.67979 554.12026 562.88941 613.49764 508.625 600.1875 C 463.57529 590.97281 441.06114 547.97713 406.25 527.5 C 377.58202 555.14411 362.21838 616.56181 305.90625 599.15625 C 268.02354 590.96537 217.85617 595.07356 206.59375 549 C 187.14047 501.90258 185.10282 449.6616 182.03125 398.46875 C 208.65153 403.58803 210.70228 376.9936 212.75 354.46875 C 226.06013 304.29976 277.2349 299.18315 314.09375 328.875 C 331.4993 348.32827 384.76243 363.65929 373.5 394.375 C 368.38073 412.80442 362.23689 432.26547 356.09375 451.71875 L 399.09375 509.0625 C 403.18918 479.37065 447.22142 454.7856 421.625 425.09375 C 417.52956 411.78361 402.17104 394.39482 404.21875 384.15625 C 422.64817 351.39282 447.20701 322.72882 475.875 298.15625 C 510.68612 264.36898 547.53429 322.71708 578.25 326.8125 C 601.7987 301.21608 576.20496 290.96639 552.65625 277.65625 C 516.82127 243.86899 462.55778 255.15594 435.9375 294.0625 C 410.34107 309.42036 394.99528 371.86053 368.375 330.90625 C 332.54001 302.23826 288.49627 269.48018 240.375 279.71875 C 210.68315 285.86189 184.08635 347.29032 183.0625 344.21875 C 182.03865 296.09747 204.56486 253.09742 217.875 206 C 230.16128 154.80715 294.64284 139.45937 327.40625 181.4375 C 363.24124 194.74765 387.82865 266.40892 424.6875 240.8125 C 456.42705 207.02521 482.02019 167.08399 528.09375 152.75 z M 476.90625 322.71875 C 449.2621 336.02889 415.4634 372.88811 466.65625 379.03125 C 491.22881 378.00739 547.55107 352.42371 537.3125 328.875 C 517.85923 347.30441 497.38338 322.71875 476.90625 322.71875 z M 275.1875 331.9375 C 241.40021 340.12834 223.99801 376.99665 267 385.1875 C 289.52486 387.23522 363.24223 355.4795 305.90625 348.3125 C 296.69153 342.16935 287.47378 331.9375 275.1875 331.9375 z M 660.15625 543.875 C 674.49022 573.56683 698.06319 557.19086 715.46875 549 C 740.04129 566.40556 825.01274 564.3599 774.84375 601.21875 C 743.1042 644.22076 573.4779 761.47293 455.65625 782.15625 C 404.78496 791.08655 490.19962 871.51951 517.84375 900.1875 C 551.22845 930.14814 584.50649 960.43164 617.96875 990.59375 C 591.90348 991.05071 568.54688 991.45816 544.78125 991.875 C 485.45664 890.00296 409.99962 783.6715 316.15625 683.125 C 303.86997 669.81486 245.51547 608.38475 264.96875 622.71875 C 312.06616 635.00501 376.56722 636.02012 403.1875 586.875 C 415.47378 550.01616 442.082 616.5625 470.75 616.5625 C 513.75199 645.23052 570.08033 632.95259 602.84375 596.09375 C 622.29702 578.68818 640.70297 561.28056 660.15625 543.875 z M 845.5 619.625 C 943.47452 675.96035 1070.4212 820.37124 1193.4375 980.71875 C 1024.547 983.51859 855.82759 986.44923 708.03125 989.03125 C 644.85405 934.03375 583.43492 877.58325 522.96875 822.375 C 678.59499 770.15828 790.21172 682.08026 845.5 619.625 z M 382.71875 863.3125 C 414.59412 896.19182 445.82903 941.46849 475.3125 993.09375 C 455.13433 993.44675 443.19779 993.66508 425.71875 993.96875 C 412.68843 950.65443 398.39643 906.5678 382.71875 863.3125 z M 1257.8125 1066.4062 C 1418.4901 1284.5188 1561.9126 1508.4424 1610.3125 1567.7188 C 1456.734 1470.4523 1305.1847 1372.1734 1140.3438 1292.3125 C 1022.5153 1234.441 913.45713 1158.2459 809.90625 1074.6875 C 959.24494 1071.7003 1117.9934 1068.6571 1257.8125 1066.4062 z M 715.21875 1076.5938 C 811.7738 1159.5932 912.66347 1237.4237 1025.6875 1298.4688 C 1145.4786 1366.0432 1271.398 1426.446 1387.0938 1501.1875 C 1442.382 1581.0484 1507.9281 1654.7608 1549.9062 1742.8125 C 1507.9281 1755.0987 1466.9708 1772.5114 1423.9688 1782.75 C 1338.9887 1804.251 1227.3918 1782.7447 1186.4375 1738.7188 C 1131.1492 1680.3589 1070.7396 1431.5608 1039 1340.4375 C 1023.6422 1305.6265 986.792 1349.6374 979.625 1338.375 C 975.52959 1288.206 902.81822 1285.1492 907.9375 1340.4375 C 901.79438 1404.9406 889.52821 1469.4527 858.8125 1527.8125 C 844.47854 1565.6952 770.7372 1514.4813 725.6875 1503.2188 C 733.8887 1454.6426 696.20546 1282.829 592.3125 1079.0625 C 631.33444 1078.2746 672.31553 1077.4615 715.21875 1076.5938 z M 520.9375 1080.5 C 590.2677 1224.8544 644.09277 1389.7476 663.25 1476.5938 C 613.08103 1435.6394 544.48285 1409.0339 529.125 1383.4375 C 517.8483 1365.1128 492.99436 1236.6358 450.875 1081.875 C 472.67731 1081.4545 496.10548 1080.9946 520.9375 1080.5 z M 590.5625 1502.1875 C 623.32595 1521.6409 653.00876 1548.2597 688.84375 1562.5938 C 667.34275 1615.8343 654.02584 1675.2406 610 1717.2188 C 586.45129 1755.1014 534.22645 1719.2722 496.34375 1722.3438 C 525.01173 1650.6737 568.03765 1618.9072 590.5625 1502.1875 z "
     id="path1312" />
</svg>
