<?xml version="1.0" encoding ="US-ASCII" standalone="yes"?>
<svg width="13.154246" height="13.2">
<path style="fill:#000000; stroke:none" d=" M 6.565685 0.869324  Q 5.92513 0.869324 6.085269 2.219064  Q 6.176778 3.22565 6.565685 4.712652  Q 6.954593 3.22565 7.068978 2.219064  Q 7.20624 0.869324 6.565685 0.869324  Z  M 6.565685 12.330679  Q 7.20624 12.330679 7.0461 10.980937  Q 6.954593 9.951474 6.565685 8.464474  Q 6.176778 9.951474 6.062392 10.980937  Q 5.92513 12.330679 6.565685 12.330679  Z  M 12.284925 6.588562  Q 12.284925 5.970883 10.935183 6.108145  Q 9.928596 6.199654 8.418718 6.588562  Q 9.928596 6.97747 10.935183 7.091855  Q 12.284925 7.229117 12.284925 6.588562  Z  M 5.513346 7.663779  Q 5.078683 7.366378 4.461006 7.366378  Q 4.026343 7.366378 3.111265 7.595148  Q 2.196187 7.823917 1.521317 7.823917  Q 0.846447 7.823917 0.423224 7.515079  Q 0 7.20624 0 6.565685  Q 0 5.92513 0.446101 5.627731  Q 0.892201 5.33033 1.544195 5.33033  Q 2.196187 5.33033 3.111265 5.5591  Q 4.026343 5.787869 4.438128 5.787869  Q 5.078683 5.787869 5.513346 5.513346  Q 5.764992 5.078683 5.764992 4.461006  Q 5.764992 4.04922 5.536222 3.134142  Q 5.307453 2.219064 5.318892 1.544195  Q 5.33033 0.869324 5.627731 0.434662  Q 5.92513 0 6.565685 0  Q 7.20624 0 7.50364 0.446101  Q 7.80104 0.892201 7.812479 1.555633  Q 7.823917 2.219064 7.595148 3.134142  Q 7.366378 4.04922 7.366378 4.461006  Q 7.366378 5.078683 7.640902 5.536222  Q 8.075562 5.810745 8.670364 5.810745  Q 9.105027 5.810745 10.020105 5.581976  Q 10.935183 5.353206 11.610052 5.353206  Q 12.284925 5.353206 12.719585 5.662045  Q 13.154246 5.970883 13.154246 6.588562  Q 13.154246 7.229117 12.708146 7.526518  Q 12.262048 7.823917 11.598614 7.835358  Q 10.935183 7.846796 10.020105 7.618024  Q 9.105027 7.389256 8.693241 7.389256  Q 8.075562 7.389256 7.618024 7.663779  Q 7.366378 8.09844 7.366378 8.716119  Q 7.366378 9.150781 7.595148 10.06586  Q 7.823917 10.980937 7.812479 11.655807  Q 7.80104 12.330679 7.50364 12.765338  Q 7.20624 13.2 6.565685 13.2  Q 5.92513 13.2 5.627731 12.753901  Q 5.33033 12.307801 5.318892 11.644369  Q 5.307453 10.980937 5.536222 10.06586  Q 5.764992 9.150781 5.764992 8.738997  Q 5.764992 8.09844 5.513346 7.663779  Z  M 0.846447 6.565685  Q 0.846447 7.20624 2.196187 7.068978  Q 3.22565 6.954593 4.712652 6.565685  Q 3.22565 6.176778 2.196187 6.062392  Q 0.846447 5.948007 0.846447 6.565685  Z  M 7.343501 6.588562  Q 7.274871 5.902255 6.588562 5.8565  Q 5.92513 5.879377 5.8565 6.588562  Q 5.902255 7.274871 6.542809 7.343501  Q 7.297747 7.343501 7.343501 6.588562  Z "/></svg>
