<?xml version="1.0" encoding="UTF-8" standalone="no"?>
<svg
   xmlns:dc="http://purl.org/dc/elements/1.1/"
   xmlns:cc="http://creativecommons.org/ns#"
   xmlns:rdf="http://www.w3.org/1999/02/22-rdf-syntax-ns#"
   xmlns:svg="http://www.w3.org/2000/svg"
   xmlns="http://www.w3.org/2000/svg"
   xmlns:sodipodi="http://sodipodi.sourceforge.net/DTD/sodipodi-0.dtd"
   xmlns:inkscape="http://www.inkscape.org/namespaces/inkscape"
   width="17.375"
   height="17.96875"
   id="svg2768"
   sodipodi:version="0.32"
   inkscape:version="0.46"
   sodipodi:docname="M48vara.svg"
   inkscape:output_extension="org.inkscape.output.svg.inkscape"
   version="1.0">
  <metadata
     id="metadata2775">
    <rdf:RDF>
      <cc:Work
         rdf:about="">
        <dc:format>image/svg+xml</dc:format>
        <dc:type
           rdf:resource="http://purl.org/dc/dcmitype/StillImage" />
      </cc:Work>
    </rdf:RDF>
  </metadata>
  <defs
     id="defs2773">
    <inkscape:perspective
       sodipodi:type="inkscape:persp3d"
       inkscape:vp_x="0 : 8.9887915 : 1"
       inkscape:vp_y="0 : 1000 : 0"
       inkscape:vp_z="8.3246365 : 8.9887915 : 1"
       inkscape:persp3d-origin="4.1623182 : 5.9925276 : 1"
       id="perspective2777" />
  </defs>
  <sodipodi:namedview
     inkscape:window-height="667"
     inkscape:window-width="640"
     inkscape:pageshadow="2"
     inkscape:pageopacity="0.0"
     guidetolerance="10.0"
     gridtolerance="10.0"
     objecttolerance="10.0"
     borderopacity="1.0"
     bordercolor="#666666"
     pagecolor="#ffffff"
     id="base"
     showgrid="false"
     inkscape:zoom="25.711304"
     inkscape:cx="8.6875"
     inkscape:cy="8.984375"
     inkscape:window-x="44"
     inkscape:window-y="58"
     inkscape:current-layer="svg2768" />
  <path
     style="fill:#000000;stroke:none"
     d="M 8.8125,0 C 7.855518,0 7.2269827,0.53130666 6.96875,1.625 C 5.5560627,7.6858833 4.792962,11.14848 4.65625,11.96875 C 4.5499193,12.439645 4.7241994,12.788206 5.1875,13.03125 C 5.4389565,13.163162 5.7127457,13.332218 6,13.53125 C 5.2629063,13.522201 4.6105034,13.391421 4.03125,13.09375 C 3.4141021,12.72059 2.75141,12.400238 2.0625,12.15625 C 2.6365913,11.711328 2.9108807,11.356722 2.875,11.0625 C 2.8391193,10.768278 2.6595006,10.608102 2.34375,10.59375 C 2.028,10.579398 1.7414433,11.038396 1.46875,12 C 1.2104087,11.038396 0.8680685,10.637727 0.4375,10.78125 C 0.0069313,11.053943 0.1261361,11.568726 0.84375,12.34375 C 0.2696587,12.673852 0,13.09142 0,13.59375 C 0,14.09608 0.4032146,14.38009 1.25,14.4375 C 2.1254893,14.207863 2.9483568,14.368039 3.6875,14.90625 C 4.3574665,15.394089 5.6449827,15.467881 7.5,15.21875 C 7.5851336,15.491609 7.625,15.763399 7.625,16.09375 L 7.625,17.96875 L 9.96875,17.96875 L 9.96875,16.09375 C 9.96875,15.561089 10.091165,15.133188 10.3125,14.75 C 11.000587,14.691584 11.682656,14.704702 12.34375,14.78125 C 13.707218,14.939124 14.756226,14.978011 15.53125,14.90625 C 16.751194,14.877546 17.375,14.763432 17.375,14.5625 C 17.044896,14.261102 16.571546,14.069216 15.96875,13.96875 C 14.691396,13.954398 13.523643,13.711818 12.46875,13.28125 C 12.367537,13.239939 12.266249,13.220884 12.15625,13.1875 C 12.237296,13.139697 12.328922,13.072492 12.40625,13.03125 C 12.861955,12.788207 13.043831,12.439646 12.9375,11.96875 C 12.815978,11.14848 12.037687,7.6858833 10.625,1.625 C 10.351577,0.53130667 9.7542915,0 8.8125,0 z M 8.8125,0.6875 C 9.3745367,0.6875 9.7239678,1.0690506 9.90625,1.84375 L 12.09375,11.4375 C 12.230461,12.029917 12.156018,12.410598 11.875,12.5625 C 11.714564,12.649222 11.486566,12.823227 11.1875,13.03125 C 10.281243,12.944167 9.1901134,12.99944 7.875,13.28125 C 7.5796741,13.355771 7.3079986,13.396949 7.03125,13.4375 C 6.8501955,13.46403 6.6731034,13.48801 6.5,13.5 C 6.6727327,13.482578 6.85342,13.463557 7.03125,13.4375 C 6.4302803,12.991625 5.974293,12.700631 5.71875,12.5625 C 5.4377313,12.410598 5.363288,12.029918 5.5,11.4375 L 7.65625,1.84375 C 7.8537227,1.0690507 8.2504635,0.68750001 8.8125,0.6875 z M 1.71875,12.78125 C 2.235432,12.766898 3.0511234,13.087249 4.15625,13.71875 C 4.959978,14.134966 5.8728854,14.232182 6.90625,14.03125 C 7.7530353,13.859022 8.6296013,13.69167 9.5625,13.5625 C 10.495399,13.43333 11.364328,13.498835 12.125,13.75 C 12.885671,14.001165 13.49767,14.178238 14,14.25 C 14.50233,14.321761 15.315476,14.38009 16.40625,14.4375 C 15.702988,14.509261 15.018308,14.53125 14.34375,14.53125 C 13.669193,14.53125 12.856047,14.463199 11.9375,14.3125 C 11.018953,14.161801 10.18845,14.161801 9.40625,14.3125 C 8.6240507,14.463199 7.7162339,14.620829 6.71875,14.75 C 5.721266,14.87917 4.798638,14.731262 3.9375,14.34375 C 3.033306,13.726601 2.06716,13.571056 1.0625,13.84375 C 0.789806,13.829397 0.6900453,13.662045 0.71875,13.375 C 0.8766253,12.987488 1.2020673,12.795602 1.71875,12.78125 z M 1.5625,13 C 1.4979147,13.000449 1.4359972,13.011515 1.375,13.03125 C 1.1310107,13.110188 1.0337953,13.217124 1.0625,13.375 C 1.0912047,13.532874 1.2344826,13.591204 1.5,13.5625 C 1.7655173,13.533796 1.986568,13.43658 2.1875,13.25 C 1.9614515,13.077772 1.7562558,12.998654 1.5625,13 z M 9.5625,14.84375 C 9.4412249,15.221247 9.3437499,15.634052 9.34375,16.125 L 9.34375,17.40625 L 8.21875,17.40625 L 8.21875,16.125 C 8.21875,15.765356 8.1893802,15.455013 8.125,15.15625 C 8.6114688,15.021706 9.0884914,14.915994 9.5625,14.84375 z"
     id="path2770" />
</svg>
