<?xml version="1.0" encoding="UTF-8" standalone="no"?>
<svg
   xmlns:dc="http://purl.org/dc/elements/1.1/"
   xmlns:cc="http://web.resource.org/cc/"
   xmlns:rdf="http://www.w3.org/1999/02/22-rdf-syntax-ns#"
   xmlns:svg="http://www.w3.org/2000/svg"
   xmlns="http://www.w3.org/2000/svg"
   xmlns:sodipodi="http://inkscape.sourceforge.net/DTD/sodipodi-0.dtd"
   xmlns:inkscape="http://www.inkscape.org/namespaces/inkscape"
   width="6.495067"
   height="17.977417"
   id="svg1378"
   sodipodi:version="0.32"
   inkscape:version="0.43"
   sodipodi:docname="US22M5A.svg"
   sodipodi:docbase="C:\Program Files\JSesh\fonts\envoi25_SR">
  <metadata
     id="metadata1385">
    <rdf:RDF>
      <cc:Work
         rdf:about="">
        <dc:format>image/svg+xml</dc:format>
        <dc:type
           rdf:resource="http://purl.org/dc/dcmitype/StillImage" />
        <dc:creator>
          <cc:Agent>
            <dc:title>SR &amp; ST</dc:title>
          </cc:Agent>
        </dc:creator>
        <dc:publisher>
          <cc:Agent>
            <dc:title>Serge Rosmorduc</dc:title>
          </cc:Agent>
        </dc:publisher>
        <dc:date>03/04/06</dc:date>
        <dc:title>US22M5A</dc:title>
        <dc:description>variante optimisée du signe de Jsesh</dc:description>
        <cc:license
           rdf:resource="http://creativecommons.org/licenses/GPL/2.0/" />
      </cc:Work>
      <cc:License
         rdf:about="http://creativecommons.org/licenses/GPL/2.0/">
        <cc:permits
           rdf:resource="http://web.resource.org/cc/Reproduction" />
        <cc:permits
           rdf:resource="http://web.resource.org/cc/Distribution" />
        <cc:requires
           rdf:resource="http://web.resource.org/cc/Notice" />
        <cc:permits
           rdf:resource="http://web.resource.org/cc/DerivativeWorks" />
        <cc:requires
           rdf:resource="http://web.resource.org/cc/ShareAlike" />
        <cc:requires
           rdf:resource="http://web.resource.org/cc/SourceCode" />
      </cc:License>
    </rdf:RDF>
  </metadata>
  <defs
     id="defs1383" />
  <sodipodi:namedview
     inkscape:window-height="542"
     inkscape:window-width="811"
     inkscape:pageshadow="2"
     inkscape:pageopacity="0.0"
     borderopacity="1.0"
     bordercolor="#666666"
     pagecolor="#ffffff"
     id="base"
     inkscape:zoom="20.748253"
     inkscape:cx="3.2475336"
     inkscape:cy="8.9887084"
     inkscape:window-x="22"
     inkscape:window-y="29"
     inkscape:current-layer="svg1378" />
  <path
     style="fill:#000000; stroke:none"
     d="M 2.602061,9.10217 L 2.602061,7.448147 C 2.0372723,7.448147 1.754878,7.717094 1.754878,8.254988 C 1.754878,8.819776 2.0372723,9.10217 2.602061,9.10217 z M 3.347533,14.911423 C 4.8536357,14.92487 5.6209893,15.946868 5.849594,17.977417 L 0,17.977417 C 0.22860467,15.946868 1.0959583,14.92487 2.602061,14.911423 L 2.602061,9.666959 C 1.6472997,9.666959 1.169919,9.196302 1.169919,8.254988 C 1.1833663,7.3271213 1.660747,6.863188 2.602061,6.863188 L 2.602061,2.284367 C 2.602061,1.437185 2.907988,0.79171267 3.519842,0.34795 C 4.1316967,-0.095812 5.0024123,-0.115983 6.131989,0.287437 C 6.3874883,0.35467367 6.5085143,0.468976 6.495067,0.630344 C 6.4278303,0.77826467 6.2799093,0.811883 6.051304,0.731199 C 4.9755173,0.46225233 4.3392753,0.472338 3.942578,0.761456 C 3.5458813,1.050574 3.347533,1.706132 3.347533,2.72813 L 3.347533,14.911423 z M 5.183951,17.4328 C 4.8612143,16.128408 4.108163,15.476212 2.924797,15.476212 C 1.7145363,15.476212 0.96148533,16.128408 0.665644,17.4328 L 5.183951,17.4328 z "
     id="path1380"
     sodipodi:nodetypes="ccscccccccccscscscccscc" />
</svg>
