<?xml version="1.0" encoding="UTF-8" standalone="no"?>
<svg
   xmlns:dc="http://purl.org/dc/elements/1.1/"
   xmlns:cc="http://creativecommons.org/ns#"
   xmlns:rdf="http://www.w3.org/1999/02/22-rdf-syntax-ns#"
   xmlns:svg="http://www.w3.org/2000/svg"
   xmlns="http://www.w3.org/2000/svg"
   xmlns:sodipodi="http://sodipodi.sourceforge.net/DTD/sodipodi-0.dtd"
   xmlns:inkscape="http://www.inkscape.org/namespaces/inkscape"
   width="17.875"
   height="14.765625"
   id="svg3716"
   sodipodi:version="0.32"
   inkscape:version="0.46"
   sodipodi:docname="M53.svg"
   inkscape:output_extension="org.inkscape.output.svg.inkscape">
  <metadata
     id="metadata3723">
    <rdf:RDF>
      <cc:Work
         rdf:about="">
        <dc:format>image/svg+xml</dc:format>
        <dc:type
           rdf:resource="http://purl.org/dc/dcmitype/StillImage" />
      </cc:Work>
    </rdf:RDF>
  </metadata>
  <defs
     id="defs3721">
    <inkscape:perspective
       sodipodi:type="inkscape:persp3d"
       inkscape:vp_x="0 : 7.3828125 : 1"
       inkscape:vp_y="0 : 1000 : 0"
       inkscape:vp_z="17.875 : 7.3828125 : 1"
       inkscape:persp3d-origin="8.9375 : 4.921875 : 1"
       id="perspective3725" />
  </defs>
  <sodipodi:namedview
     inkscape:window-height="708"
     inkscape:window-width="1024"
     inkscape:pageshadow="2"
     inkscape:pageopacity="0.0"
     guidetolerance="10.0"
     gridtolerance="10.0"
     objecttolerance="10.0"
     borderopacity="1.0"
     bordercolor="#666666"
     pagecolor="#ffffff"
     id="base"
     showgrid="false"
     inkscape:zoom="43.039562"
     inkscape:cx="16.978098"
     inkscape:cy="4.829999"
     inkscape:window-x="-4"
     inkscape:window-y="-4"
     inkscape:current-layer="svg3716" />
  <path
     style="fill:#000000; stroke:none"
     d="M 0.71875,14.015625 L 0.71875,12.953125 L 17.1875,12.953125 L 17.1875,14.015625 L 0.71875,14.015625 z M 2.78125,0.546875 C 2.9479167,0.734375 3.1302083,1.2135417 3.328125,1.984375 C 3.4427083,1.5364583 3.609375,1.1744793 3.828125,0.898438 C 4.046875,0.622396 4.3229167,0.546875 4.65625,0.671875 C 4.2291667,0.859375 3.9244793,1.3072917 3.742188,2.015625 C 3.559896,2.7239583 3.2395833,3.078125 2.78125,3.078125 C 2.3229167,3.078125 2,2.7005207 1.8125,1.945312 C 1.625,1.190104 1.3177083,0.765625 0.890625,0.671875 C 1.234375,0.546875 1.5130207,0.622396 1.726562,0.898438 C 1.940104,1.1744793 2.109375,1.5364583 2.234375,1.984375 C 2.421875,1.2135417 2.6041667,0.734375 2.78125,0.546875 z M 2.765625,11.828125 C 2.578125,11.828125 2.4791667,10.8125 2.46875,8.78125 C 2.4791667,7.8854167 2.578125,6.09375 2.765625,3.40625 L 2.78125,3.40625 C 2.96875,6.09375 3.0625,7.8854167 3.0625,8.78125 C 3.0625,10.8125 2.9635417,11.828125 2.765625,11.828125 z M 14.2,12.21875 L 14.2,11.28125 C 14.2,10.625 14.069792,10.114583 13.809375,9.75 C 13.048958,8.96875 12.66875,8.4270833 12.66875,8.125 C 12.679167,6.5416667 12.871875,4.8958333 13.246875,3.1875 C 13.621875,1.4791667 13.885417,0.825 14.4375,0.825 C 15,0.825 15.26875,1.4791667 15.64375,3.1875 C 16.01875,4.8958333 16.20625,6.5416667 16.20625,8.125 C 16.20625,8.4270833 15.83125,8.96875 15.08125,9.75 C 14.810417,10.114583 14.675,10.625 14.675,11.28125 L 14.675,12.21875 L 14.2,12.21875 z M 0,12.21875 L 0,14.765625 L 17.875,14.765625 L 17.875,12.21875 L 15.484375,12.21875 L 15.484375,11.28125 C 15.484375,10.635417 15.640625,10.161458 15.953125,9.859375 C 16.661458,9.1822917 17.015625,8.6041667 17.015625,8.125 C 16.994792,6.5416667 16.773437,4.7916667 16.351562,2.875 C 15.929687,0.95833333 15.291667,0 14.4375,0 C 13.59375,0 12.960937,0.95833333 12.539062,2.875 C 12.117187,4.7916667 11.895833,6.5416667 11.875,8.125 C 11.875,8.6041667 12.229167,9.1822917 12.9375,9.859375 C 13.25,10.161458 13.40625,10.635417 13.40625,11.28125 L 13.40625,12.21875 L 8.921875,12.21875 L 8.921875,10.15625 L 7.546875,10.15625 L 7.546875,12.21875 L 3.325,12.21875 C 3.45,11.9375 3.5385417,11.463542 3.590625,10.796875 C 3.653125,8.828125 3.5489583,6.359375 3.278125,3.390625 C 3.4760417,3.359375 3.653125,3.234375 3.809375,3.015625 C 3.965625,2.796875 4.1140627,2.4140627 4.254688,1.867188 C 4.3953127,1.3203127 4.6166667,1.002604 4.91875,0.914062 C 5.2208333,0.82552067 5.2859373,0.61093733 5.114062,0.470312 C 4.9421873,0.32968733 4.5416667,0.259375 4.3125,0.259375 C 4.0625,0.259375 3.859375,0.34270833 3.703125,0.509375 C 3.546875,0.67604167 3.4375,0.77395833 3.375,1.003125 C 3.2916667,0.57604167 3.09375,0.39583333 2.78125,0.0625 C 2.4583333,0.39583333 2.2604167,0.57604167 2.1875,1.003125 C 2.1145833,0.77395833 2,0.67604167 1.84375,0.509375 C 1.6875,0.34270833 1.4895833,0.259375 1.25,0.259375 C 1.0104167,0.259375 0.60729167,0.32968733 0.440625,0.470312 C 0.27395833,0.61093733 0.33906267,0.82552067 0.635938,0.914062 C 0.9328127,1.002604 1.1541667,1.3203127 1.3,1.867188 C 1.4458333,2.4140627 1.596875,2.796875 1.753125,3.015625 C 1.909375,3.234375 2.08125,3.359375 2.26875,3.390625 C 1.9979167,6.359375 1.89375,8.828125 1.95625,10.796875 C 2.0083333,11.463542 2.0916667,11.9375 2.20625,12.21875 L 0,12.21875 z"
     id="path3718"
     sodipodi:nodetypes="cccccccscssscsccccccsccccsssssccccccccccssssssscccccccccsssssscccsssssscccc" />
</svg>
