<?xml version="1.0" encoding ="US-ASCII" standalone="yes"?>
<svg width="9.353783" height="17.977417">
<path style="fill:#000000; stroke:none" d=" M 5.189968 1.874703  Q 6.334524 1.302425 7.183074 1.243224  Q 7.85402 1.302425 8.820971 1.815502  Q 9.097244 2.07204 9.136711 2.427247  Q 9.097244 2.683786 8.722303 2.742987  Q 7.656682 2.269377 7.183074 2.22991  Q 6.354257 2.289111 5.130767 2.999525  L 5.130767 4.282217  Q 6.433192 3.61127 7.301476 3.571803  Q 7.952688 3.61127 8.919641 4.144081  Q 9.215646 4.400619 9.255114 4.755826  Q 9.195912 5.012364 8.840706 5.071566  Q 7.755351 4.597956 7.301476 4.558489  Q 6.452926 4.61769 5.249169 5.30837  L 5.249169 6.551594  Q 6.551594 5.939849 7.400144 5.900382  Q 8.071091 5.939849 9.038043 6.47266  Q 9.314315 6.729198 9.353783 7.084405  Q 9.314315 7.340943 8.939374 7.400144  Q 7.873754 6.926535 7.400144 6.887067  Q 6.571328 6.946269 5.426773 7.656682  L 5.643843 14.22801  L 6.452926 17.977417  L 2.881123 17.977417  L 3.650738 14.22801  L 4.005945 7.656682  Q 2.802188 6.926535 1.953638 6.867334  Q 1.499763 6.906801 0.414408 7.380411  Q 0.059201 7.340943 0 7.084405  Q 0.059201 6.729198 0.335473 6.452926  Q 1.302425 5.939849 1.953638 5.900382  Q 2.821922 5.939849 4.045412 6.571328  L 4.045412 5.288636  Q 2.841655 4.578223 2.012839 4.519022  Q 1.53923 4.558489 0.473609 5.032098  Q 0.098669 4.99263 0.059201 4.736092  Q 0.098669 4.380886 0.374941 4.104613  Q 1.341893 3.591537 2.012839 3.552069  Q 2.861389 3.591537 4.104613 4.223016  L 4.104613 2.940324  Q 2.900856 2.22991 2.052307 2.170709  Q 1.598431 2.210176 0.513077 2.683786  Q 0.15787 2.644318 0.098669 2.38778  Q 0.138136 2.032573 0.434142 1.756301  Q 1.401094 1.243224 2.052307 1.203757  Q 2.92059 1.243224 4.065146 1.874703  Q 4.144081 1.026153 4.203282 0.473609  Q 4.223016 0 4.637424 0  Q 5.111033 0 5.091299 0.473609  Q 5.130767 0.868284 5.189968 1.874703  Z  M 4.755826 0.631479  Q 4.637424 0.374941 4.499288 0.611745  L 4.499288 2.032573  Q 4.499288 2.249644 4.440086 2.328579  Q 4.380886 2.407514 4.223016 2.308845  Q 2.900856 1.637899 2.052307 1.558964  Q 1.341893 1.598431 0.670946 1.993106  Q 0.414408 2.170709 0.611745 2.249644  Q 1.677366 1.815502 2.052307 1.815502  Q 2.861389 1.85497 4.361152 2.644318  Q 4.45982 2.683786 4.45982 2.802188  L 4.45982 4.380886  Q 4.499288 4.597956 4.410486 4.667024  Q 4.321684 4.736092 4.163815 4.657157  Q 2.841655 3.986211 2.012839 3.907276  Q 1.282692 3.946743 0.631479 4.341418  Q 0.355207 4.519022 0.552544 4.597956  Q 1.637899 4.163815 2.012839 4.163815  Q 2.802188 4.203282 4.321684 4.99263  Q 4.420353 5.032098 4.440086 5.1505  L 4.440086 6.729198  Q 4.440086 6.946269 4.361152 7.025204  Q 4.282217 7.104138 4.124347 7.00547  Q 2.802188 6.334524 1.953638 6.255589  Q 1.243224 6.295056 0.572278 6.68973  Q 0.315739 6.867334 0.513077 6.946269  Q 1.598431 6.512127 1.953638 6.512127  Q 2.762721 6.551594 4.282217 7.340943  Q 4.361152 7.380411 4.361152 7.913221  L 4.005945 14.22801  L 3.334998 17.563009  L 5.99905 17.563009  L 5.288636 14.22801  L 5.071566 7.893487  Q 5.051832 7.360677 5.1505 7.321209  Q 6.610795 6.571328 7.400144 6.512127  Q 7.775085 6.512127 8.840706 6.966002  Q 9.057776 6.887067 8.781505 6.68973  Q 8.130292 6.31479 7.400144 6.275322  Q 6.571328 6.354257 5.249169 7.044937  Q 5.071566 7.104138 4.982764 7.054804  Q 4.893962 7.00547 4.893962 6.729198  L 4.893962 5.1505  Q 4.953163 5.032098 5.051832 4.99263  Q 6.492393 4.242749 7.301476 4.183548  Q 7.676416 4.183548 8.742037 4.61769  Q 8.959108 4.558489 8.682836 4.361152  Q 8.011889 3.986211 7.301476 3.92701  Q 6.452926 4.005945 5.1505 4.696625  Q 4.953163 4.755826 4.893962 4.676891  Q 4.834761 4.597956 4.854495 4.400619  L 4.854495 2.821922  Q 4.834761 2.703519 4.933429 2.664052  Q 6.393724 1.914171 7.183074 1.85497  Q 7.558014 1.85497 8.643369 2.308845  Q 8.840706 2.22991 8.564433 2.052307  Q 7.913221 1.657632 7.183074 1.618165  Q 6.354257 1.6971 5.051832 2.328579  Q 4.874228 2.427247 4.824894 2.328579  Q 4.77556 2.22991 4.77556 2.012839  L 4.755826 0.631479  Z "/></svg>
