<?xml version="1.0" encoding="UTF-8" standalone="no"?>
<svg
   xmlns:dc="http://purl.org/dc/elements/1.1/"
   xmlns:cc="http://creativecommons.org/ns#"
   xmlns:rdf="http://www.w3.org/1999/02/22-rdf-syntax-ns#"
   xmlns:svg="http://www.w3.org/2000/svg"
   xmlns="http://www.w3.org/2000/svg"
   xmlns:sodipodi="http://sodipodi.sourceforge.net/DTD/sodipodi-0.dtd"
   xmlns:inkscape="http://www.inkscape.org/namespaces/inkscape"
   width="23.589642"
   height="17.983217"
   id="svg2445"
   sodipodi:version="0.32"
   inkscape:version="0.46"
   sodipodi:docname="M54A.svg"
   inkscape:output_extension="org.inkscape.output.svg.inkscape">
  <metadata
     id="metadata2452">
    <rdf:RDF>
      <cc:Work
         rdf:about="">
        <dc:format>image/svg+xml</dc:format>
        <dc:type
           rdf:resource="http://purl.org/dc/dcmitype/StillImage" />
      </cc:Work>
    </rdf:RDF>
  </metadata>
  <defs
     id="defs2450">
    <inkscape:perspective
       sodipodi:type="inkscape:persp3d"
       inkscape:vp_x="0 : 8.9916086 : 1"
       inkscape:vp_y="0 : 1000 : 0"
       inkscape:vp_z="23.589642 : 8.9916086 : 1"
       inkscape:persp3d-origin="11.794821 : 5.9944057 : 1"
       id="perspective2454" />
  </defs>
  <sodipodi:namedview
     inkscape:window-height="480"
     inkscape:window-width="640"
     inkscape:pageshadow="2"
     inkscape:pageopacity="0.0"
     guidetolerance="10.0"
     gridtolerance="10.0"
     objecttolerance="10.0"
     borderopacity="1.0"
     bordercolor="#666666"
     pagecolor="#ffffff"
     id="base"
     showgrid="false" />
  <path
     style="fill:#000000; stroke:none"
     d="M 6.25 0 C 6.17281 0.0040626658 6.1193771 0.035622004 6.0625 0.125 L 4.84375 1.75 C 4.1721 1.3943273 3.6162742 1.2994968 3.1875 1.46875 L 1.53125 0.125 C 1.3687447 0.011246 1.2100053 0.054993994 1.03125 0.25 C 0.88499533 0.46125667 0.8849953 0.63624601 1.03125 0.75 L 2.5625 1.96875 C 2.383744 2.098754 2.2387533 2.2874926 2.125 2.53125 L 0.59375 1.34375 C 0.43124467 1.213746 0.28750466 1.2724933 0.125 1.5 C -0.037505333 1.695006 -0.053755993 1.8849954 0.125 2.03125 L 1.84375 3.21875 C 1.7780542 3.7114677 2.01239 4.2295134 2.5 4.78125 L 1.25 6.40625 C 1.136246 6.5687553 1.179994 6.7437456 1.375 6.90625 C 1.5862567 7.0850053 1.7599954 7.0850056 1.90625 6.90625 L 3.0625 5.34375 C 3.1667559 5.4327104 3.2573193 5.5033577 3.375 5.59375 C 3.4750644 5.6715779 3.5593804 5.7438764 3.65625 5.8125 L 2.46875 7.34375 C 2.338746 7.5062553 2.3824933 7.6812451 2.59375 7.84375 C 2.805006 8.0062547 2.9949961 8.0062544 3.125 7.84375 L 4.34375 6.25 C 5.3394359 6.76617 6.1534782 6.6963042 6.75 6.0625 L 7.96875 7.125 L 6.71875 7.84375 L 6.71875 8.5625 L 9.3125 9.4375 L 7.875 10.5625 L 7.875 11.34375 L 10.65625 12.1875 L 10.65625 14.03125 C 10.233737 14.096252 9.8712595 14.256242 9.5625 14.5 C 8.8149767 13.638723 7.7494193 13.268121 6.34375 13.40625 C 4.9380813 13.544379 4.2268745 13.857485 4.21875 14.3125 C 4.2106247 14.767514 4.3912381 14.845633 4.78125 14.59375 C 5.171262 14.341867 5.9274667 14.21875 7 14.21875 C 8.072534 14.235001 8.6949935 14.554981 8.90625 15.15625 L 8.6875 15.375 C 8.3299887 14.903736 7.5762869 14.708123 6.40625 14.78125 C 5.2362133 14.854378 4.6712496 15.093737 4.6875 15.5 C 4.6712493 15.922513 4.778116 16.053755 5.0625 15.875 C 5.346884 15.696245 5.9499721 15.59375 6.84375 15.59375 C 7.7375273 15.59375 8.2012481 15.73874 8.25 16.03125 C 7.9249893 16.518765 7.7075027 17.156224 7.59375 17.96875 L 16 17.96875 C 15.902497 17.172475 15.66876 16.535015 15.34375 16.03125 C 15.37625 15.738741 15.856222 15.59375 16.75 15.59375 C 17.643779 15.59375 18.215617 15.696245 18.5 15.875 C 18.784384 16.053755 18.9375 15.922513 18.9375 15.5 C 18.9375 15.093737 18.357536 14.846252 17.1875 14.78125 C 16.017463 14.716249 15.232511 14.919987 14.875 15.375 L 14.65625 15.15625 C 14.867507 14.554981 15.521216 14.25 16.59375 14.25 C 17.666283 14.25 18.391238 14.381243 18.78125 14.625 C 19.171262 14.868758 19.383125 14.759389 19.375 14.3125 C 19.366875 13.865611 18.647544 13.57563 17.25 13.4375 C 15.852457 13.299371 14.763774 13.654974 14 14.5 C 13.70749 14.272493 13.360013 14.112503 12.9375 14.03125 L 12.9375 12.21875 L 15.71875 11.34375 L 15.71875 10.5625 L 14.3125 9.4375 L 16.875 8.5625 L 16.875 7.875 L 15.65625 7.125 L 16.875 6.0625 C 17.459094 6.6963041 18.247733 6.76617 19.25 6.25 L 20.46875 7.84375 C 20.598754 8.0062547 20.757494 8.0062544 20.96875 7.84375 C 21.180007 7.6974953 21.223754 7.5375045 21.09375 7.375 L 19.90625 5.8125 L 20.21875 5.59375 L 20.5 5.375 L 21.6875 6.90625 C 21.817503 7.0850053 21.976243 7.0850056 22.1875 6.90625 C 22.398757 6.7599953 22.442504 6.5850055 22.3125 6.40625 L 21.09375 4.8125 C 21.566677 4.2976631 21.815227 3.8098409 21.75 3.375 L 23.46875 2.03125 C 23.631255 1.901246 23.631255 1.7112567 23.46875 1.5 C 23.306245 1.2887433 23.131256 1.2299961 22.96875 1.34375 L 21.4375 2.53125 C 21.323747 2.3037433 21.178756 2.1150046 21 1.96875 L 22.5625 0.78125 C 22.725005 0.66749667 22.725005 0.49250666 22.5625 0.28125 C 22.399995 0.069993333 22.256256 0.011246007 22.09375 0.125 L 20.40625 1.5 C 19.996996 1.3340864 19.438948 1.4265533 18.78125 1.75 L 17.53125 0.125 C 17.401246 -0.053756 17.242506 -0.053755993 17.03125 0.125 C 16.819993 0.28750467 16.761246 0.46249466 16.875 0.625 L 18.09375 2.125 L 17.78125 2.34375 L 17.75 2.34375 L 17.53125 2.5625 C 17.519933 2.5719965 17.511172 2.5842636 17.5 2.59375 L 16.3125 1.0625 C 16.182495 0.883744 16.023757 0.88374401 15.8125 1.0625 C 15.584993 1.208754 15.526246 1.3687446 15.65625 1.53125 L 16.9375 3.15625 C 16.161525 4.0169063 15.975429 4.8194692 16.4375 5.59375 L 15.0625 6.8125 L 15.0625 7.53125 L 16.21875 8.1875 L 13.65625 9 L 13.65625 9.71875 L 15.09375 10.90625 L 12.28125 11.6875 L 12.28125 13.96875 L 11.3125 14 L 11.3125 11.65625 L 8.5 10.875 L 9.9375 9.71875 L 9.9375 9 L 7.34375 8.1875 L 8.53125 7.5 L 8.53125 6.78125 L 7.1875 5.46875 C 7.6375144 4.7437274 7.4466593 3.9654107 6.65625 3.125 L 7.90625 1.5 C 8.036254 1.3374953 8.0087573 1.1775047 7.78125 1.03125 C 7.569994 0.852494 7.3800039 0.85249405 7.25 1.03125 L 6.0625 2.59375 C 5.9690587 2.5169672 5.88447 2.4214425 5.78125 2.34375 L 5.5 2.125 L 6.6875 0.59375 C 6.801254 0.44749533 6.7425068 0.30375533 6.53125 0.125 C 6.433747 0.043747333 6.32719 -0.0040626658 6.25 0 z M 3.46875 2 C 3.577933 1.9842573 3.71984 1.9898435 3.84375 2 C 4.3393907 2.0406267 4.8824805 2.3099853 5.5 2.78125 C 6.1175193 3.2525147 6.5087448 3.7312345 6.6875 4.21875 C 6.866256 4.7062647 6.8387589 5.1112385 6.5625 5.46875 C 6.2862413 5.8262613 5.8868913 6.0012512 5.375 5.96875 C 4.8631093 5.9362493 4.3050194 5.6750152 3.6875 5.1875 C 3.05373 4.7162353 2.6693793 4.2293901 2.53125 3.75 C 2.3931207 3.27061 2.427492 2.8575112 2.6875 2.5 C 2.8825065 2.219679 3.1412009 2.0472281 3.46875 2 z M 19.75 2.03125 C 20.237515 1.9987493 20.629992 2.1424892 20.90625 2.5 C 21.166259 2.8575113 21.240004 3.2706101 21.09375 3.75 C 20.947495 4.22939 20.555019 4.7162352 19.9375 5.1875 C 19.319982 5.6750153 18.746892 5.9362492 18.21875 5.96875 C 17.690609 6.0012513 17.291258 5.8412605 17.03125 5.5 C 16.754993 5.1424887 16.696245 4.7143899 16.875 4.21875 C 17.053755 3.7231093 17.476231 3.2525147 18.09375 2.78125 C 18.72752 2.3099853 19.262486 2.0637514 19.75 2.03125 z M 11.78125 14.5 C 12.788781 14.508125 13.587482 14.828106 14.15625 15.4375 C 14.725018 16.046893 15.117494 16.721226 15.3125 17.46875 L 8.28125 17.4375 C 8.4925067 16.689977 8.8768578 16.015644 9.4375 15.40625 C 9.9981427 14.796856 10.773719 14.491874 11.78125 14.5 z "
     id="path2447" />
</svg>
