<?xml version="1.0" encoding="UTF-8" standalone="no"?>
<svg
   xmlns:dc="http://purl.org/dc/elements/1.1/"
   xmlns:cc="http://web.resource.org/cc/"
   xmlns:rdf="http://www.w3.org/1999/02/22-rdf-syntax-ns#"
   xmlns:svg="http://www.w3.org/2000/svg"
   xmlns="http://www.w3.org/2000/svg"
   xmlns:sodipodi="http://sodipodi.sourceforge.net/DTD/sodipodi-0.dtd"
   xmlns:inkscape="http://www.inkscape.org/namespaces/inkscape"
   width="18.0354"
   height="17.972734"
   id="svg2341"
   sodipodi:version="0.32"
   inkscape:version="0.45"
   sodipodi:docname="Aa141.svg"
   inkscape:output_extension="org.inkscape.output.svg.inkscape"
   sodipodi:docbase="C:\Program Files\JSesh\fontsST"
   sodipodi:modified="true">
  <metadata
     id="metadata2348">
    <rdf:RDF>
      <cc:Work
         rdf:about="">
        <dc:format>image/svg+xml</dc:format>
        <dc:type
           rdf:resource="http://purl.org/dc/dcmitype/StillImage" />
      </cc:Work>
    </rdf:RDF>
  </metadata>
  <defs
     id="defs2346" />
  <sodipodi:namedview
     inkscape:window-height="708"
     inkscape:window-width="1024"
     inkscape:pageshadow="2"
     inkscape:pageopacity="0.0"
     guidetolerance="10.0"
     gridtolerance="10.0"
     objecttolerance="10.0"
     borderopacity="1.0"
     bordercolor="#666666"
     pagecolor="#ffffff"
     id="base"
     showguides="true"
     inkscape:guide-bbox="true"
     inkscape:zoom="28.677453"
     inkscape:cx="9.0235447"
     inkscape:cy="8.9813423"
     inkscape:window-x="-4"
     inkscape:window-y="-4"
     inkscape:current-layer="svg2341" />
  <path
     style="fill:#000000;stroke:none"
     d="M 4.5 0 C 4.2614492 0.012887041 4.0266646 0.064486834 3.78125 0.125 C 1.8179327 0.609106 0.60910533 1.8179333 0.125 3.78125 C -0.24796053 5.293811 0.30318698 6.665059 1.75 7.90625 C 1.0034058 8.1452137 0.40466697 8.4941661 0 9 C 0.38933412 9.4866678 0.95040907 9.8579719 1.65625 10.09375 C 0.25308878 11.319052 -0.24363354 12.692488 0.125 14.1875 C 0.60910533 16.150817 1.840218 17.390895 3.8125 17.875 C 5.3206537 18.245183 6.6706819 17.70384 7.90625 16.28125 C 8.1450769 17.010532 8.4928709 17.576878 9 17.96875 C 9.5013288 17.5754 9.8896241 17.014576 10.125 16.28125 C 11.369439 17.703841 12.748702 18.245183 14.25 17.875 C 16.213317 17.390895 17.422145 16.150817 17.90625 14.1875 C 18.274883 12.692488 17.773764 11.323653 16.375 10.09375 C 17.077213 9.8579719 17.618153 9.4866676 18 9 C 17.608305 8.5007809 17.041527 8.1449357 16.3125 7.90625 C 17.750257 6.6650589 18.303554 5.293811 17.9375 3.78125 C 17.462359 1.8179333 16.244567 0.609106 14.28125 0.125 C 12.779952 -0.245183 11.408992 0.30520951 10.15625 1.71875 C 9.9210413 0.9894679 9.4994449 0.3918723 9 0 C 8.4993581 0.38685964 8.1454101 0.94055736 7.90625 1.65625 C 6.8695527 0.48710134 5.7146489 -0.065618009 4.5 0 z M 4.65625 0.6875 C 6.1809863 0.72181895 7.6506527 2.0518139 9.03125 4.6875 C 10.627006 1.6752873 12.296412 0.36450869 14.0625 0.75 C 15.828589 1.1354913 16.918044 2.2249461 17.3125 4 C 17.706957 5.7750533 16.373892 7.4401043 13.34375 9 C 16.373892 10.559896 17.706957 12.202661 17.3125 13.96875 C 16.918044 15.734839 15.806303 16.824294 14.03125 17.21875 C 12.256195 17.613206 10.609075 16.311393 9.03125 13.28125 C 7.4534247 16.311393 5.7660886 17.613207 4 17.21875 C 2.2339107 16.824293 1.144456 15.734839 0.75 13.96875 C 0.35554333 12.202661 1.6886073 10.559896 4.71875 9 C 1.6886073 7.440104 0.35554333 5.7750534 0.75 4 C 1.144456 2.224946 2.2339106 1.1354913 4 0.75 C 4.2207611 0.70181358 4.4384305 0.68259729 4.65625 0.6875 z M 9 0.84375 C 9.2955513 1.2032047 9.5857519 1.7016318 9.71875 2.25 C 9.4859086 2.5585675 9.2554686 2.8771713 9.03125 3.25 C 8.8096409 2.8771754 8.5737588 2.5326842 8.34375 2.21875 C 8.4803434 1.6703817 8.6964603 1.2032047 9 0.84375 z M 2.3125 8.34375 C 2.6077549 8.5578079 2.8976414 8.7944576 3.25 9 C 2.8745641 9.2190042 2.5285736 9.4281795 2.21875 9.65625 C 1.6825797 9.5191776 1.2203224 9.2982328 0.875 9 C 1.2387559 8.6858472 1.7369771 8.4790774 2.3125 8.34375 z M 15.75 8.34375 C 16.299362 8.4799862 16.773877 8.6967569 17.125 9 C 16.785822 9.2929262 16.335795 9.5188 15.8125 9.65625 C 15.504121 9.4275783 15.185329 9.2190042 14.8125 9 C 15.162412 8.7944575 15.456691 8.557808 15.75 8.34375 z M 9.03125 14.71875 C 9.2392394 15.071108 9.440079 15.392245 9.65625 15.6875 C 9.524484 16.261878 9.305885 16.752977 9 17.125 C 8.6858472 16.752978 8.5103274 16.261878 8.375 15.6875 C 8.5892249 15.392245 8.8257075 15.071108 9.03125 14.71875 z "
     id="path2289" />
</svg>
