<?xml version="1.0" encoding="UTF-8" standalone="no"?>
<svg
   xmlns:dc="http://purl.org/dc/elements/1.1/"
   xmlns:cc="http://creativecommons.org/ns#"
   xmlns:rdf="http://www.w3.org/1999/02/22-rdf-syntax-ns#"
   xmlns:svg="http://www.w3.org/2000/svg"
   xmlns="http://www.w3.org/2000/svg"
   xmlns:sodipodi="http://sodipodi.sourceforge.net/DTD/sodipodi-0.dtd"
   xmlns:inkscape="http://www.inkscape.org/namespaces/inkscape"
   width="1800"
   height="1800"
   id="svg2"
   sodipodi:version="0.32"
   inkscape:version="0.46"
   sodipodi:docname="M93.svg"
   inkscape:output_extension="org.inkscape.output.svg.inkscape"
   version="1.0">
  <metadata
     id="metadata9">
    <rdf:RDF>
      <cc:Work
         rdf:about="">
        <dc:format>image/svg+xml</dc:format>
        <dc:type
           rdf:resource="http://purl.org/dc/dcmitype/StillImage" />
      </cc:Work>
    </rdf:RDF>
  </metadata>
  <defs
     id="defs7">
    <inkscape:perspective
       sodipodi:type="inkscape:persp3d"
       inkscape:vp_x="0 : 11.76 : 1"
       inkscape:vp_y="0 : 1000 : 0"
       inkscape:vp_z="7.2434778 : 11.76 : 1"
       inkscape:persp3d-origin="3.6217389 : 7.8400002 : 1"
       id="perspective11" />
  </defs>
  <sodipodi:namedview
     inkscape:window-height="701"
     inkscape:window-width="796"
     inkscape:pageshadow="2"
     inkscape:pageopacity="0.0"
     guidetolerance="10.0"
     gridtolerance="10.0"
     objecttolerance="10.0"
     borderopacity="1.0"
     bordercolor="#666666"
     pagecolor="#ffffff"
     id="base"
     showgrid="false"
     inkscape:zoom="0.27666667"
     inkscape:cx="900"
     inkscape:cy="1164.369"
     inkscape:window-x="1280"
     inkscape:window-y="22"
     inkscape:current-layer="svg2" />
  <path
     style="fill:#000000;stroke:none"
     d="M 434.80259,629.95315 C 390.19451,661.50526 362.99446,705.29732 353.20245,761.32938 C 343.41039,817.36148 326.81837,848.64159 303.42633,855.16957 C 280.03427,861.69762 256.91423,861.4256 234.0662,854.35357 C 211.21816,847.28154 195.17016,816.00153 185.92212,760.51341 C 176.67411,705.02534 150.29006,660.96126 106.76997,628.32118 C 147.02605,607.64911 200.88214,597.31308 268.33823,597.31308 C 337.97035,597.31308 393.45847,608.19311 434.80259,629.95315 z M 300.9783,910.65769 C 347.7624,907.39365 379.85847,867.95358 397.26652,792.33748 C 414.67452,716.72134 444.59458,678.91327 487.02667,678.91327 C 495.73069,666.94526 500.6267,653.34522 501.71469,638.11319 C 501.71469,601.1211 471.79463,575.82506 411.95453,562.22505 C 352.11442,548.62499 304.24233,541.28099 268.33823,540.19299 C 234.61021,540.19299 187.82613,546.99302 127.98597,560.59308 C 68.145869,574.19309 38.225816,599.48912 38.225816,636.4812 C 39.313851,652.80122 45.297866,666.40126 56.177862,677.2813 C 95.345962,677.2813 123.90601,715.36135 141.858,791.52141 C 159.81005,867.68156 190.00212,907.39365 232.43422,910.65769 L 230.80216,910.65769 L 234.0662,1499.8107 C 188.37009,1448.6747 119.82596,1423.1066 28.433804,1423.1066 C 8.8497841,1423.1066 -0.9422259,1428.5466 -0.9422259,1439.4266 C -0.9422259,1450.3067 8.8497841,1456.2907 28.433804,1457.3787 C 101.32998,1456.2907 169.8741,1497.0908 234.0662,1579.7789 L 230.80216,1769.0912 C 229.71419,1790.8513 243.31421,1801.7313 271.60226,1801.7313 C 299.89032,1802.8193 316.21036,1795.2033 320.56239,1778.8833 L 318.93034,1579.7789 C 383.12248,1499.2668 451.12263,1459.0107 522.93075,1459.0107 C 542.51479,1459.0107 552.85078,1453.5707 553.93877,1442.6907 C 553.93877,1430.7227 544.14676,1424.7387 524.56274,1424.7387 C 433.17058,1424.7387 363.53844,1450.3067 315.66631,1501.4428 L 300.9783,910.65769 z M 423.37852,331.29656 C 382.03445,361.76064 357.01043,402.83274 348.30645,454.51285 C 339.60243,506.19297 324.0984,535.02501 301.79436,541.00899 C 279.49027,546.99299 257.73024,546.72099 236.51423,540.19299 C 215.29819,533.66498 200.61014,504.56091 192.45012,452.8808 C 184.29014,401.20073 159.53808,360.67266 118.19396,331.29656 C 155.18604,311.71254 205.23413,301.92053 268.33823,301.92053 C 333.61836,301.92053 385.29847,311.71254 423.37852,331.29656 z M 299.34632,592.41708 C 342.86641,589.15306 372.78646,552.43302 389.10648,482.25691 C 405.4265,412.08076 433.17056,376.99267 472.33866,376.99267 C 481.04268,367.20066 485.3947,354.68865 485.3947,339.4566 C 485.3947,304.64055 457.65064,280.9765 402.16252,268.46449 C 346.6744,255.95246 302.06631,249.69644 268.33823,249.69644 C 237.87421,249.69644 194.62616,255.95246 138.59405,268.46449 C 82.561943,280.9765 54.545885,304.09655 54.545885,337.82463 C 54.545885,353.05666 59.985883,365.56869 70.865879,375.3607 C 107.85796,375.3607 134.786,410.72075 151.65001,481.44084 C 168.51407,552.16101 195.98613,589.15306 234.0662,592.41708 L 234.0662,592.41708 L 299.34632,592.41708 z M 416.85054,73.440163 C 377.68244,99.552191 353.74641,135.18426 345.04243,180.33638 C 336.3384,225.48844 321.65035,250.78447 300.9783,256.22451 C 280.30628,261.66448 259.90625,261.66448 239.77819,256.22451 C 219.65018,250.78447 205.77814,225.21642 198.1621,179.52031 C 190.54611,133.82426 167.15407,97.920191 127.98597,71.808109 C 162.80208,55.488092 210.13019,47.328082 269.97029,47.328082 C 330.89838,47.328082 379.85847,56.032108 416.85054,73.440163 z M 299.34632,301.92053 C 339.6024,298.65653 367.61845,266.28848 383.39448,204.8164 C 399.17051,143.34427 425.55456,112.60821 462.54665,112.60821 C 470.16264,103.90418 474.51464,93.024163 475.60267,79.968145 C 475.60267,49.504075 449.21862,28.832043 396.45052,17.952047 C 343.68242,7.0719998 301.52235,1.0879843 269.97029,2.2737368e-13 C 240.59421,2.2737368e-13 199.52211,5.7120194 146.75401,17.136058 C 93.985954,28.560047 67.601926,48.960082 67.601926,78.336168 C 67.601926,92.480165 72.497933,103.36019 82.289943,110.97623 C 117.106,110.97623 142.40204,141.98427 158.17807,204.00034 C 173.9541,266.01647 200.88214,298.65653 238.9622,301.92053 L 237.33023,301.92053 L 299.34632,301.92053 z"
     id="path4" />
</svg>
