<?xml version="1.0" encoding ="US-ASCII" standalone="yes"?>
<svg width="18.938974" height="6.48">
<path style="fill:#000000; stroke:none" d=" M 14.797118 2.004124  L 13.928664 3.139795  L 12.993405 2.004124  L 12.091549 3.139795  L 11.189694 1.970721  L 10.287834 3.106392  L 9.385979 2.004124  L 8.484124 3.139795  L 7.58227 2.004124  L 6.647011 3.139795  L 5.745155 2.004124  L 4.8433 3.106392  L 3.908042 2.004124  L 2.338144 3.741033  L 3.006186 4.475874  L 3.908042 3.340206  L 4.8433 4.509277  L 5.745155 3.340206  L 6.680412 4.509277  L 7.58227 3.340206  L 8.484124 4.509277  L 9.385979 3.340206  L 10.287834 4.509277  L 11.189694 3.340206  L 12.091549 4.509277  L 13.026805 3.340206  L 13.928664 4.509277  L 14.797118 3.340206  L 15.73238 4.509277  L 16.367008 3.774434  L 14.797118 2.004124  Z  M 3.206599 6.045774  Q 0.567835 5.845363 0.434227 3.24  Q 0.501031 0.501031 3.206599 0.434227  L 15.73238 0.434227  Q 18.471338 0.501031 18.538137 3.24  Q 18.371128 5.845363 15.73238 6.045774  L 3.206599 6.045774  Z  M 3.206599 0.901856  Q 0.868454 0.901856 0.868454 3.24  Q 0.935258 5.477939 3.206599 5.578145  L 15.73238 5.578145  Q 18.00371 5.477939 18.070522 3.24  Q 18.070522 0.901856 15.765771 0.901856  L 3.206599 0.901856  Z  M 3.206599 5.143917  Q 1.302681 5.110516 1.302681 3.24  Q 1.302681 1.336083 3.206599 1.302681  L 15.765771 1.302681  Q 17.636292 1.336083 17.66968 3.24  Q 17.66968 5.110516 15.73238 5.143917  L 3.206599 5.143917  Z  M 3.206599 0  Q 0.033402 0.066804 0 3.24  Q 0.133608 6.312991 3.206599 6.48  L 15.73238 6.48  Q 18.838772 6.312991 18.938974 3.24  Q 18.905569 0.066804 15.73238 0  L 3.206599 0  Z "/></svg>
