<?xml version="1.0" encoding="UTF-8" standalone="no"?>
<svg
   xmlns:dc="http://purl.org/dc/elements/1.1/"
   xmlns:cc="http://creativecommons.org/ns#"
   xmlns:rdf="http://www.w3.org/1999/02/22-rdf-syntax-ns#"
   xmlns:svg="http://www.w3.org/2000/svg"
   xmlns="http://www.w3.org/2000/svg"
   xmlns:sodipodi="http://sodipodi.sourceforge.net/DTD/sodipodi-0.dtd"
   xmlns:inkscape="http://www.inkscape.org/namespaces/inkscape"
   width="18.019375"
   height="18"
   id="svg2608"
   sodipodi:version="0.32"
   inkscape:version="0.46"
   sodipodi:docname="N112.svg"
   inkscape:output_extension="org.inkscape.output.svg.inkscape">
  <metadata
     id="metadata2615">
    <rdf:RDF>
      <cc:Work
         rdf:about="">
        <dc:format>image/svg+xml</dc:format>
        <dc:type
           rdf:resource="http://purl.org/dc/dcmitype/StillImage" />
      </cc:Work>
    </rdf:RDF>
  </metadata>
  <defs
     id="defs2613">
    <inkscape:perspective
       sodipodi:type="inkscape:persp3d"
       inkscape:vp_x="0 : 9 : 1"
       inkscape:vp_y="0 : 1000 : 0"
       inkscape:vp_z="18.019375 : 9 : 1"
       inkscape:persp3d-origin="9.0096874 : 6 : 1"
       id="perspective2617" />
  </defs>
  <sodipodi:namedview
     inkscape:window-height="708"
     inkscape:window-width="1024"
     inkscape:pageshadow="2"
     inkscape:pageopacity="0.0"
     guidetolerance="10.0"
     gridtolerance="10.0"
     objecttolerance="10.0"
     borderopacity="1.0"
     bordercolor="#666666"
     pagecolor="#ffffff"
     id="base"
     showgrid="false"
     showguides="true"
     inkscape:guide-bbox="true"
     inkscape:zoom="102.66667"
     inkscape:cx="16.748667"
     inkscape:cy="9"
     inkscape:window-x="-4"
     inkscape:window-y="-4"
     inkscape:current-layer="svg2608" />
  <path
     style="fill:#000000; stroke:none"
     d="M 13.413438,0.660625 L 13.413438,3.315312 L 12.141562,3.2875 L 12.141562,0.660625 L 13.413438,0.660625 z M 14.280937,0.68625 L 15.404375,0.688438 L 15.404375,3.315312 L 14.28,3.3225 L 14.280937,0.68625 z M 0.855217,3.704676 C 0.854311,3.704676 0.853405,3.70468 0.8525,3.704688 C 0.817834,3.704976 0.782115,3.707952 0.749375,3.720625 C 0.618413,3.771315 0.55678,3.840808 0.572187,3.942188 C 0.585304,4.028496 0.654668,4.073164 0.762939,4.073164 C 0.781845,4.073164 0.801938,4.071803 0.823125,4.069063 C 0.965642,4.05063 1.084337,3.982937 1.192188,3.863125 C 1.071911,3.753492 0.95849,3.704676 0.855217,3.704676 z M 6.25375,4.100625 C 6.345486,4.123971 6.431883,4.161064 6.519375,4.195625 C 6.927668,4.356911 7.268185,4.450481 7.537813,4.496562 C 7.80744,4.542645 8.236086,4.586259 8.821563,4.623125 C 8.444087,4.669206 8.076766,4.686563 7.714697,4.686563 C 7.714694,4.686563 7.714691,4.686563 7.714687,4.686563 C 7.352616,4.686563 6.923971,4.640834 6.430937,4.544063 C 6.406053,4.539178 6.381886,4.532516 6.357187,4.528125 L 6.25375,4.100625 z M 0.960754,3.561867 C 1.238483,3.561867 1.660239,3.751995 2.239687,4.148125 C 2.383788,4.237402 2.539335,4.309003 2.697187,4.354063 L 2.60875,4.749688 C 2.443321,4.703445 2.278862,4.660141 2.121875,4.575625 C 1.785019,4.30056 1.436077,4.16279 1.073796,4.16279 C 0.914116,4.16279 0.751845,4.189555 0.586875,4.243125 C 0.440506,4.233908 0.379905,4.126514 0.395312,3.942188 C 0.480053,3.693347 0.663919,3.571404 0.94125,3.562187 C 0.94767,3.561974 0.954172,3.561867 0.960754,3.561867 z M 13.44125,4.144688 L 13.44125,8.651875 L 12.141562,8.651875 L 12.141562,4.1725 L 13.44125,4.144688 z M 15.432187,4.144688 L 15.432187,8.651875 L 14.303125,8.664375 L 14.300312,4.14625 L 15.432187,4.144688 z M 4.5125,0.5225 C 4.788231,0.5225 4.972027,0.79248 5.088125,1.314062 L 6.120937,5.763125 C 6.215267,6.144581 6.169177,6.382207 5.95875,6.475625 C 5.095275,6.880435 4.66,7.405194 4.66,8.074688 L 4.66,9.028125 L 4.35,9.028125 L 4.35,8.074688 C 4.35,7.405194 3.915038,6.880435 3.051563,6.475625 C 2.83388,6.382207 2.780046,6.144581 2.874375,5.763125 L 3.9075,1.314062 C 4.030854,0.79248 4.236769,0.5225 4.5125,0.5225 z M 8.720312,9.527813 L 8.720312,10.6 C 8.347322,10.424232 7.986954,10.066834 7.639688,9.527813 L 8.720312,9.527813 z M 10.109375,9.527813 C 11.151175,10.195732 11.523944,10.67643 11.228125,10.969375 C 11.085904,11.110218 10.865095,11.180625 10.565312,11.180625 C 10.241547,11.180625 9.825982,11.098337 9.318438,10.934063 L 9.318438,9.527813 L 10.109375,9.527813 z M 3.144687,13.816563 L 3.144687,15.363438 L 1.852188,15.363438 L 1.852188,13.816563 L 3.144687,13.816563 z M 4.996875,13.816563 L 4.996875,15.363438 L 3.723438,15.363438 L 3.723438,13.816563 L 4.996875,13.816563 z M 6.868125,13.816563 L 6.868125,15.363438 L 5.575625,15.363438 L 5.575625,13.816563 L 6.868125,13.816563 z M 8.739375,13.816563 L 8.739375,15.363438 L 7.446875,15.363438 L 7.446875,13.816563 L 8.739375,13.816563 z M 10.591562,13.816563 L 10.591562,15.363438 L 9.299063,15.363438 L 9.299063,13.816563 L 10.591562,13.816563 z M 12.463125,13.816563 L 12.463125,15.363438 L 11.170313,15.363438 L 11.170313,13.816563 L 12.463125,13.816563 z M 14.334375,13.816563 L 14.334375,15.363438 L 13.041875,15.363438 L 13.041875,13.816563 L 14.334375,13.816563 z M 16.167187,13.816563 L 16.167187,15.363438 L 14.913125,15.363438 L 14.913125,13.816563 L 16.167187,13.816563 z M 3.144687,15.890625 L 3.144687,17.472813 L 1.852188,17.472813 L 1.852188,15.890625 L 3.144687,15.890625 z M 4.996875,15.890625 L 4.996875,17.472813 L 3.723438,17.472813 L 3.723438,15.890625 L 4.996875,15.890625 z M 6.868125,15.890625 L 6.868125,17.472813 L 5.575625,17.472813 L 5.575625,15.890625 L 6.868125,15.890625 z M 8.739375,15.890625 L 8.739375,17.472813 L 7.446875,17.472813 L 7.446875,15.890625 L 8.739375,15.890625 z M 10.591562,15.890625 L 10.591562,17.472813 L 9.299063,17.472813 L 9.299063,15.890625 L 10.591562,15.890625 z M 12.463125,15.890625 L 12.463125,17.472813 L 11.170313,17.472813 L 11.170313,15.890625 L 12.463125,15.890625 z M 14.334375,15.890625 L 14.334375,17.472813 L 13.041875,17.472813 L 13.041875,15.890625 L 14.334375,15.890625 z M 16.167187,15.890625 L 16.167187,17.472813 L 14.913125,17.472813 L 14.913125,15.890625 L 16.167187,15.890625 z M 4.5125,0 C 3.968293,0 3.601715,0.384873 3.420312,1.14 L 2.785938,3.989687 C 2.567594,3.941819 2.368462,3.867477 2.180938,3.752187 C 1.849681,3.512563 1.488212,3.307302 1.118438,3.150625 C 1.426583,2.864918 1.580196,2.642997 1.560938,2.454062 C 1.541678,2.265128 1.435418,2.162341 1.265937,2.153125 C 1.252299,2.152383 1.240373,2.149016 1.228051,2.149016 C 1.221233,2.149016 1.214293,2.150047 1.206875,2.153125 C 1.061108,2.213608 0.921823,2.515318 0.79375,3.055625 C 0.673654,2.520822 0.525196,2.261457 0.337447,2.261457 C 0.308418,2.261457 0.278449,2.267658 0.2475,2.28 C 0.016391,2.45511 0.083881,2.779818 0.469063,3.2775 C 0.160917,3.489475 0.011562,3.762116 0.011563,4.084688 C 0.011563,4.407259 0.235798,4.586259 0.690313,4.623125 C 0.829376,4.579487 0.965126,4.557764 1.097628,4.557764 C 1.412874,4.557764 1.709731,4.680727 1.989063,4.924063 C 2.120604,5.038652 2.303662,5.125919 2.520313,5.177187 L 2.3875,5.747188 C 2.235122,6.362187 2.402905,6.771997 2.889062,6.982187 C 3.513087,7.200162 3.81875,7.56873 3.81875,8.090313 L 3.81875,9.044062 L 0.009375,9.035937 L 0.009375,9.527813 L 6.733125,9.527813 C 7.273318,10.336347 7.935747,10.928153 8.720312,11.303125 L 8.720312,13.289375 L 0,13.271875 L 0,13.816563 L 1.273125,13.816563 L 1.273125,15.363438 L 0,15.363438 L 0,15.890625 L 1.273125,15.890625 L 1.273125,17.472813 L 0,17.472813 L 0,18 L 18.019375,18 L 18.019375,17.472813 L 16.745937,17.472813 L 16.745937,15.890625 L 18.019375,15.890625 L 18.019375,15.363438 L 16.745937,15.363438 L 16.745937,13.816563 L 18.019375,13.816563 L 18.019375,13.271875 L 9.318438,13.289375 L 9.318438,11.549375 C 9.476736,11.607065 9.641433,11.635938 9.813125,11.635938 C 10.199434,11.635938 10.619943,11.489861 11.074062,11.197812 C 11.832905,10.705661 11.897099,10.14886 11.266875,9.527813 L 18.02,9.527813 L 18.02,9.035937 L 17.616562,9.035937 L 17.615,8.665313 L 16.26375,8.665313 L 16.26375,4.2325 L 17.255938,4.2325 L 17.255938,7.314375 L 18.003437,7.324687 L 18.003437,3.97875 C 17.899715,3.430292 17.341881,3.357852 16.797152,3.357852 C 16.601604,3.357852 16.407743,3.367188 16.237188,3.367188 L 16.242813,0.644063 L 17.59375,0.644063 L 17.595312,0.035937 L 10.025625,0.035937 L 10.067812,0.633125 L 11.27875,0.63875 L 11.272187,3.300313 C 11.180852,3.307239 11.085481,3.308484 10.988079,3.308484 C 10.93339,3.308484 10.878061,3.308091 10.822446,3.308091 C 10.323861,3.308091 9.802324,3.339641 9.513437,3.968437 L 9.513437,7.3525 L 10.269062,7.356563 L 10.270312,4.16875 L 11.272187,4.16875 L 11.282187,8.686563 L 9.93125,8.686563 L 9.93375,9.035937 L 5.176562,9.044062 L 5.176562,8.090313 C 5.176562,7.56873 5.496913,7.200162 6.120937,6.982187 C 6.607096,6.771998 6.77519,6.362187 6.622812,5.747188 L 6.41625,4.829062 L 6.41625,4.829062 C 6.489001,4.835474 6.565348,4.834692 6.6375,4.844687 C 7.13289,4.913312 7.551388,4.946516 7.899128,4.946516 C 8.065108,4.946516 8.214969,4.938951 8.349375,4.924063 C 9.004185,4.90563 9.338125,4.831216 9.338125,4.702188 C 9.160941,4.508645 8.909178,4.386702 8.585625,4.322187 C 7.900001,4.312971 7.277468,4.171177 6.71125,3.894687 C 6.550949,3.816411 6.366673,3.75458 6.165312,3.720625 L 5.589687,1.14 C 5.408284,0.384873 5.049451,0 4.5125,0 z"
     id="path2610"
     sodipodi:nodetypes="cccccccccccssssscccsscssscccscccsscsccccccccccccccsccccsccccccccssccccccccccccccccccccccccccccccccccccccccccccccccccccccccccccccccccccccccccccccccccccccscsssscsscscssccccccccccccccccccccccccccccccccsscccccccccccsccccccccssccccccccccccccsssccsccc" />
</svg>
