<?xml version="1.0" encoding="UTF-8" standalone="no"?>
<!-- Created with Inkscape (http://www.inkscape.org/) -->
<svg
   xmlns:dc="http://purl.org/dc/elements/1.1/"
   xmlns:cc="http://creativecommons.org/ns#"
   xmlns:rdf="http://www.w3.org/1999/02/22-rdf-syntax-ns#"
   xmlns:svg="http://www.w3.org/2000/svg"
   xmlns="http://www.w3.org/2000/svg"
   xmlns:sodipodi="http://sodipodi.sourceforge.net/DTD/sodipodi-0.dtd"
   xmlns:inkscape="http://www.inkscape.org/namespaces/inkscape"
   width="1800"
   height="1800"
   id="svg2451"
   sodipodi:version="0.32"
   inkscape:version="0.46"
   version="1.0"
   sodipodi:docname="N119.svg"
   inkscape:output_extension="org.inkscape.output.svg.inkscape">
  <defs
     id="defs2453">
    <inkscape:perspective
       sodipodi:type="inkscape:persp3d"
       inkscape:vp_x="0 : 526.18109 : 1"
       inkscape:vp_y="0 : 1000 : 0"
       inkscape:vp_z="744.09448 : 526.18109 : 1"
       inkscape:persp3d-origin="372.04724 : 350.78739 : 1"
       id="perspective2459" />
  </defs>
  <sodipodi:namedview
     id="base"
     pagecolor="#ffffff"
     bordercolor="#666666"
     borderopacity="1.0"
     inkscape:pageopacity="0.0"
     inkscape:pageshadow="2"
     inkscape:zoom="0.39519412"
     inkscape:cx="901.39062"
     inkscape:cy="1472.5646"
     inkscape:document-units="px"
     inkscape:current-layer="layer1"
     showgrid="true"
     inkscape:window-width="1024"
     inkscape:window-height="708"
     inkscape:window-x="0"
     inkscape:window-y="26">
    <inkscape:grid
       type="xygrid"
       id="grid2576"
       visible="true"
       enabled="true" />
  </sodipodi:namedview>
  <metadata
     id="metadata2456">
    <rdf:RDF>
      <cc:Work
         rdf:about="">
        <dc:format>image/svg+xml</dc:format>
        <dc:type
           rdf:resource="http://purl.org/dc/dcmitype/StillImage" />
      </cc:Work>
    </rdf:RDF>
  </metadata>
  <g
     inkscape:label="Calque 1"
     inkscape:groupmode="layer"
     id="layer1">
    <path
       style="fill:#000000;stroke:none"
       d="M 51.53125,0 L 55.78125,59.875 L 177.15625,60.4375 L 176.5,327.21875 C 116.12381,331.79703 38.15658,311.58008 0.21875,394.15625 L 0.21875,733.375 L 75.9375,733.78125 L 76.09375,414.25 L 176.5,414.25 L 177.5,867.0625 L 42.09375,867.0625 L 42.34375,903.59375 L 2.5625,903.59375 L 2.5625,952.78125 L 673.9375,952.78125 C 727.95676,1033.6346 794.19968,1092.8153 872.65625,1130.3125 L 872.65625,1328.9375 L 0.625,1327.1875 L 0.625,1381.6562 L 127.9375,1381.6562 L 127.9375,1536.3438 L 0.625,1536.3438 L 0.625,1589.0625 L 127.9375,1589.0625 L 127.9375,1747.2812 L 0.625,1747.2812 L 0.625,1800 L 1802.5625,1800 L 1802.5625,1747.2812 L 1675.2188,1747.2812 L 1675.2188,1589.0625 L 1802.5625,1589.0625 L 1802.5625,1536.3438 L 1675.2188,1536.3438 L 1675.2188,1381.6562 L 1802.5625,1381.6562 L 1802.5625,1327.1875 L 932.46875,1328.9375 L 932.46875,1154.9375 C 948.29867,1160.7065 964.76825,1163.5938 981.9375,1163.5938 C 1020.5684,1163.5937 1062.6193,1148.9861 1108.0312,1119.7812 C 1183.9155,1070.5661 1190.335,1014.886 1127.3125,952.78125 L 1800.625,952.78125 L 1800.625,903.59375 L 1463.3438,903.59375 L 1464.4062,409.625 L 1673.2812,409.625 L 1673.2812,267.875 C 1672.5279,231.06384 1649.3308,212.65625 1623.7188,212.65625 C 1601.8733,212.65625 1579.4756,223.2114 1556.5,244.34375 C 1537.1205,262.16846 1521.9161,274.8914 1510.8438,282.53125 C 1519.728,272.80086 1521.9344,246.4333 1517.5,203.4375 C 1504.6938,68.463226 1476.0694,0.96875003 1431.625,0.96875 C 1387.1805,0.96875 1358.5561,68.46323 1345.75,203.4375 C 1341.9836,236.84022 1346.5065,264.78555 1359.3125,287.28125 C 1348.0131,280.46436 1330.6958,266.31695 1307.3438,244.84375 C 1283.9915,223.3706 1261.4081,212.65625 1239.5625,212.65625 C 1213.9505,212.65625 1190.7532,231.06384 1190,267.875 L 1190,409.625 L 1398.875,409.625 L 1399.9375,903.59375 L 812.375,903.59375 L 812.25,864.96875 L 676.8125,864.96875 L 676.8125,420.65625 L 776.25,420.65625 L 776.25,729.53125 L 851.1875,730.5625 L 851.1875,395.21875 C 837.05919,320.51155 738.87223,333.90625 674.15625,333.90625 L 674.71875,60.96875 L 810.125,60.96875 L 810.28125,0 L 51.53125,0 z M 1431.625,47 C 1457.9902,47 1473.0773,112.42836 1476.8438,243.3125 C 1476.8438,271.94339 1461.7566,290.35101 1431.625,298.53125 C 1402.2463,290.35101 1387.5625,271.9434 1387.5625,243.3125 C 1390.5756,112.42835 1405.2596,47.000001 1431.625,47 z M 263.625,62.65625 L 391.125,62.65625 L 391.125,328.71875 L 263.625,325.9375 L 263.625,62.65625 z M 478.09375,65.1875 L 590.65625,65.40625 L 590.65625,328.71875 L 477.96875,329.4375 L 478.09375,65.1875 z M 1246.9062,242.8125 C 1257.829,242.47167 1280.0408,257.63653 1313.5625,288.3125 C 1347.0841,318.98847 1386.4271,334.31251 1431.625,334.3125 C 1476.0694,334.3125 1515.2579,318.98847 1549.1562,288.3125 C 1583.0546,257.63653 1605.4522,242.47167 1616.375,242.8125 C 1627.2978,243.15336 1632.7812,251.16491 1632.7812,266.84375 L 1632.7812,366.03125 L 1230.5,366.03125 L 1230.5,266.84375 C 1230.5,251.16492 1235.9834,243.15336 1246.9062,242.8125 z M 393.90625,411.84375 L 393.90625,863.59375 L 263.625,863.59375 L 263.625,414.625 L 393.90625,411.84375 z M 593.4375,411.84375 L 593.4375,863.59375 L 480.28125,864.84375 L 480,412 L 593.4375,411.84375 z M 764.59375,952.78125 L 872.65625,952.78125 L 872.65625,1060 C 835.35724,1042.4232 799.32042,1006.6835 764.59375,952.78125 z M 932.46875,952.78125 L 1011.5625,952.78125 C 1115.7426,1019.5732 1153.0194,1067.6429 1123.4375,1096.9375 C 1109.2154,1111.0219 1087.1345,1118.0625 1057.1562,1118.0625 C 1024.7797,1118.0625 983.22318,1109.8338 932.46875,1093.4062 L 932.46875,952.78125 z M 185.84375,1381.6562 L 315.09375,1381.6562 L 315.09375,1536.3438 L 185.84375,1536.3438 L 185.84375,1381.6562 z M 372.96875,1381.6562 L 500.3125,1381.6562 L 500.3125,1536.3438 L 372.96875,1536.3438 L 372.96875,1381.6562 z M 558.1875,1381.6562 L 687.4375,1381.6562 L 687.4375,1536.3438 L 558.1875,1536.3438 L 558.1875,1381.6562 z M 745.3125,1381.6562 L 874.5625,1381.6562 L 874.5625,1536.3438 L 745.3125,1536.3438 L 745.3125,1381.6562 z M 930.53125,1381.6562 L 1059.7812,1381.6562 L 1059.7812,1536.3438 L 930.53125,1536.3438 L 930.53125,1381.6562 z M 1117.6562,1381.6562 L 1246.9375,1381.6562 L 1246.9375,1536.3438 L 1117.6562,1536.3438 L 1117.6562,1381.6562 z M 1304.8125,1381.6562 L 1434.0625,1381.6562 L 1434.0625,1536.3438 L 1304.8125,1536.3438 L 1304.8125,1381.6562 z M 1491.9375,1381.6562 L 1617.3438,1381.6562 L 1617.3438,1536.3438 L 1491.9375,1536.3438 L 1491.9375,1381.6562 z M 185.84375,1589.0625 L 315.09375,1589.0625 L 315.09375,1747.2812 L 185.84375,1747.2812 L 185.84375,1589.0625 z M 372.96875,1589.0625 L 500.3125,1589.0625 L 500.3125,1747.2812 L 372.96875,1747.2812 L 372.96875,1589.0625 z M 558.1875,1589.0625 L 687.4375,1589.0625 L 687.4375,1747.2812 L 558.1875,1747.2812 L 558.1875,1589.0625 z M 745.3125,1589.0625 L 874.5625,1589.0625 L 874.5625,1747.2812 L 745.3125,1747.2812 L 745.3125,1589.0625 z M 930.53125,1589.0625 L 1059.7812,1589.0625 L 1059.7812,1747.2812 L 930.53125,1747.2812 L 930.53125,1589.0625 z M 1117.6562,1589.0625 L 1246.9375,1589.0625 L 1246.9375,1747.2812 L 1117.6562,1747.2812 L 1117.6562,1589.0625 z M 1304.8125,1589.0625 L 1434.0625,1589.0625 L 1434.0625,1747.2812 L 1304.8125,1747.2812 L 1304.8125,1589.0625 z M 1491.9375,1589.0625 L 1617.3438,1589.0625 L 1617.3438,1747.2812 L 1491.9375,1747.2812 L 1491.9375,1589.0625 z"
       id="path2486"
       sodipodi:nodetypes="cccccccccccccccccccccccccccccccccccccccsccccccccssccsccsscccccccccccccccccccccccccccccccccssssccccccccccccccccccccccscccccccccccccccccccccccccccccccccccccccccccccccccccccccccccccccccccccccccccccccccc" />
  </g>
</svg>
