<?xml version="1.0" encoding="UTF-8" standalone="no"?>
<svg
   xmlns:dc="http://purl.org/dc/elements/1.1/"
   xmlns:cc="http://creativecommons.org/ns#"
   xmlns:rdf="http://www.w3.org/1999/02/22-rdf-syntax-ns#"
   xmlns:svg="http://www.w3.org/2000/svg"
   xmlns="http://www.w3.org/2000/svg"
   xmlns:sodipodi="http://sodipodi.sourceforge.net/DTD/sodipodi-0.dtd"
   xmlns:inkscape="http://www.inkscape.org/namespaces/inkscape"
   width="14.429376"
   height="17.977583"
   id="svg2472"
   sodipodi:version="0.32"
   inkscape:version="0.46"
   sodipodi:docname="N138.svg"
   inkscape:output_extension="org.inkscape.output.svg.inkscape">
  <metadata
     id="metadata2479">
    <rdf:RDF>
      <cc:Work
         rdf:about="">
        <dc:format>image/svg+xml</dc:format>
        <dc:type
           rdf:resource="http://purl.org/dc/dcmitype/StillImage" />
      </cc:Work>
    </rdf:RDF>
  </metadata>
  <defs
     id="defs2477">
    <inkscape:perspective
       sodipodi:type="inkscape:persp3d"
       inkscape:vp_x="0 : 8.9887915 : 1"
       inkscape:vp_y="0 : 1000 : 0"
       inkscape:vp_z="14.429376 : 8.9887915 : 1"
       inkscape:persp3d-origin="7.2146878 : 5.9925276 : 1"
       id="perspective2481" />
  </defs>
  <sodipodi:namedview
     inkscape:window-height="667"
     inkscape:window-width="640"
     inkscape:pageshadow="2"
     inkscape:pageopacity="0.0"
     guidetolerance="10.0"
     gridtolerance="10.0"
     objecttolerance="10.0"
     borderopacity="1.0"
     bordercolor="#666666"
     pagecolor="#ffffff"
     id="base"
     showgrid="false"
     inkscape:zoom="25.698672"
     inkscape:cx="7.2146878"
     inkscape:cy="8.9887915"
     inkscape:window-x="66"
     inkscape:window-y="67"
     inkscape:current-layer="svg2472" />
  <path
     style="fill:#000000; stroke:none"
     d="M 7.125 0 C 6.5034842 -0.0092766667 6.0526993 0.18559 5.71875 0.59375 C 5.4961181 0.83493532 5.349606 1.029802 5.3125 1.1875 C 4.6724314 0.91848597 4.2573033 1.07184 4.0625 1.65625 L 4.0625 5 L 5.28125 5 L 4.78125 5.75 C 4.8766328 5.8205002 4.9937322 5.8855396 5.09375 5.9375 L 4.5 6.875 C 4.5920814 6.9425264 4.683752 6.9813274 4.78125 7.03125 L 4.1875 7.96875 C 4.2751528 8.0316313 4.3771831 8.0773839 4.46875 8.125 L 3.90625 9.03125 C 4.0007567 9.0990484 4.0884431 9.1682425 4.1875 9.21875 L 3.625 10.15625 C 3.721174 10.225823 3.8060136 10.261434 3.90625 10.3125 L 3.3125 11.21875 C 3.4058092 11.28925 3.5261288 11.354753 3.625 11.40625 L 3.03125 12.34375 C 3.126377 12.414061 3.2435518 12.44859 3.34375 12.5 L 3.1875 12.78125 C 2.9839531 12.338182 2.7864635 11.881962 2.625 11.34375 C 2.365262 10.96342 1.934016 10.78125 1.3125 10.78125 C 0.75591805 10.78125 0.315396 10.982959 0 11.4375 L 0 17.96875 L 14.4375 17.96875 L 14.4375 11.4375 C 14.122104 10.992235 13.659609 10.78125 13.09375 10.78125 C 12.50934 10.78125 12.090791 10.959999 11.8125 11.3125 C 11.662606 11.856682 11.474642 12.305404 11.28125 12.75 L 11.09375 12.46875 C 11.206806 12.413092 11.330822 12.360099 11.4375 12.28125 L 10.8125 11.34375 C 10.912237 11.293486 11.029873 11.255743 11.125 11.1875 L 10.5 10.28125 C 10.613056 10.227331 10.737072 10.17028 10.84375 10.09375 L 10.25 9.1875 C 10.343993 9.138454 10.440846 9.0653984 10.53125 9 L 9.90625 8.09375 C 10.018726 8.0398312 10.143322 7.98278 10.25 7.90625 L 9.625 6.96875 C 9.7247372 6.9168793 9.842373 6.8828112 9.9375 6.8125 L 9.34375 5.875 C 9.4434872 5.8247362 9.561123 5.7869933 9.65625 5.71875 L 9.1875 5 L 10.09375 5 L 10.09375 1.65625 C 9.908223 1.07184 9.4838193 0.918486 8.84375 1.1875 C 8.8344744 1.0669073 8.73533 0.884738 8.53125 0.625 C 8.1973011 0.21684066 7.7186867 0.0092766667 7.125 0 z M 7.125 0.53125 C 7.5702655 0.53124997 7.9197033 0.67654467 8.15625 0.96875 C 8.3927971 1.2609553 8.5346707 1.5884193 8.5625 1.96875 C 8.5625002 2.3212519 8.4159887 2.66263 8.15625 2.96875 C 7.8965123 3.2748692 7.5736867 3.4282233 7.15625 3.4375 C 6.7573667 3.4374999 6.4079287 3.2829293 6.125 3 C 5.8420707 2.7170714 5.71875 2.37691 5.71875 1.96875 C 5.7187501 1.5884193 5.83865 1.2609553 6.09375 0.96875 C 6.3488502 0.67654464 6.6797347 0.53125 7.125 0.53125 z M 4.875 1.65625 C 5.0698032 1.65625 5.1782233 1.7461173 5.1875 1.96875 C 5.1967759 2.5253319 5.4009193 2.9946693 5.78125 3.375 C 6.1615809 3.7553307 6.6182213 3.9375 7.15625 3.9375 C 7.7499374 3.9374999 8.2239127 3.7438507 8.5625 3.3125 C 8.901087 2.8811493 9.040526 2.432568 9.03125 1.96875 C 9.0312502 1.7553934 9.091316 1.6376973 9.15625 1.65625 C 9.3232242 1.65625 9.4350653 1.7324333 9.5 1.84375 L 9.5 4.40625 L 4.6875 4.40625 L 4.6875 1.84375 C 4.6875001 1.7324333 4.7358547 1.6748027 4.875 1.65625 z M 5.5625 5 L 5.75 5 L 5.90625 5.03125 L 5.96875 5.90625 C 5.6719067 5.9248025 5.375462 5.8544747 5.125 5.6875 L 5.5625 5 z M 6.15625 5 L 6.78125 5 L 6.46875 6 C 6.5820217 6.0427439 6.6992284 6.0707018 6.8125 6.09375 L 6.46875 7.125 C 6.5893427 7.1713819 6.6907478 7.1955591 6.8125 7.21875 L 6.46875 8.25 C 6.5824434 8.2929032 6.6988066 8.3519395 6.8125 8.375 L 6.46875 9.40625 C 6.5791387 9.4508301 6.6698897 9.4758238 6.78125 9.5 L 6.46875 10.53125 C 6.5841588 10.576131 6.698076 10.600799 6.8125 10.625 L 6.46875 11.65625 C 6.5798844 11.701131 6.7008732 11.725799 6.8125 11.75 L 6.46875 12.78125 C 6.5845885 12.826298 6.6976536 12.882037 6.8125 12.90625 L 6.46875 13.9375 C 6.5704261 13.976606 6.6791617 14.00863 6.78125 14.03125 L 6.4375 15.0625 C 6.5604118 15.111201 6.6895882 15.1319 6.8125 15.15625 L 6.59375 15.78125 C 5.7830264 15.659399 5.0494961 15.327038 4.4375 14.71875 C 4.185368 14.468146 3.9673952 14.141639 3.75 13.8125 C 3.8847749 13.823884 4.0133439 13.827543 4.15625 13.8125 L 4.09375 12.71875 C 4.2195607 12.726287 4.3365618 12.734984 4.46875 12.71875 L 4.40625 11.625 C 4.5132291 11.628305 4.638029 11.607501 4.75 11.59375 L 4.6875 10.53125 C 4.802933 10.536519 4.9426209 10.546235 5.0625 10.53125 L 4.96875 9.4375 C 5.0829249 9.4453832 5.1934534 9.4481294 5.3125 9.4375 L 5.28125 8.34375 C 5.3954249 8.3499945 5.5059534 8.3565051 5.625 8.34375 L 5.5625 7.25 C 5.6778264 7.2562445 5.7850775 7.2627551 5.90625 7.25 L 5.84375 6.15625 C 5.958689 6.1631661 6.0988709 6.1690942 6.21875 6.15625 L 6.15625 5 z M 7.03125 5 L 7.375 5 L 7.625 5.84375 C 7.3467094 5.9457899 7.0688173 5.94579 6.78125 5.84375 L 7.03125 5 z M 7.625 5 L 8.28125 5 L 8.25 6.09375 C 8.3582242 6.1053455 8.458302 6.0978567 8.5625 6.09375 L 8.53125 7.1875 C 8.6502967 7.2002549 8.760825 7.1942318 8.875 7.1875 L 8.8125 8.28125 C 8.9315465 8.2940051 9.0420752 8.2874946 9.15625 8.28125 L 9.09375 9.375 C 9.223619 9.3912337 9.344099 9.413787 9.46875 9.40625 L 9.40625 10.46875 C 9.5274223 10.481505 9.6341865 10.474995 9.75 10.46875 L 9.6875 11.5625 C 9.7973892 11.574274 9.9255119 11.566915 10.03125 11.5625 L 10 12.65625 C 10.121173 12.669005 10.227936 12.662982 10.34375 12.65625 L 10.28125 13.75 C 10.454994 13.771718 10.617883 13.739577 10.78125 13.71875 C 10.541656 14.102633 10.287622 14.476075 10 14.75 C 9.3691341 15.350825 8.6440222 15.666864 7.8125 15.78125 L 7.59375 15.15625 C 7.7062615 15.132074 7.7937386 15.10708 7.90625 15.0625 L 7.59375 14.03125 C 7.7065293 14.008202 7.8242283 13.980244 7.9375 13.9375 L 7.625 12.90625 C 7.7368909 12.882057 7.82659 12.826041 7.9375 12.78125 L 7.59375 11.75 C 7.7065293 11.725799 7.8242283 11.701131 7.9375 11.65625 L 7.625 10.625 C 7.7363603 10.600824 7.8271113 10.57583 7.9375 10.53125 L 7.59375 9.5 C 7.708174 9.4757993 7.8220912 9.4511313 7.9375 9.40625 L 7.59375 8.375 C 7.7074433 8.3519395 7.8238067 8.2929032 7.9375 8.25 L 7.59375 7.21875 C 7.708174 7.1957017 7.8220912 7.167744 7.9375 7.125 L 7.59375 6.09375 C 7.7070216 6.0707018 7.8242285 6.0427439 7.9375 6 L 7.625 5 z M 8.53125 5 L 8.90625 5 L 9.3125 5.625 C 9.0620391 5.7919741 8.7968433 5.884276 8.5 5.875 L 8.53125 5 z M 9.125 6 L 9.59375 6.75 C 9.3340117 6.9169748 9.0780933 6.9873027 8.78125 6.96875 L 8.8125 6.09375 L 8.96875 6.03125 L 9.125 6 z M 5.3125 6.03125 C 5.3656626 6.0510843 5.4143614 6.0788198 5.46875 6.09375 L 5.59375 6.125 L 5.65625 7 C 5.3594067 7.0185533 5.0942113 6.9482247 4.84375 6.78125 L 5.3125 6.03125 z M 7.03125 6.125 C 7.092282 6.130718 7.157718 6.125 7.21875 6.125 L 7.375 6.125 L 7.625 6.96875 C 7.3374335 7.0615142 7.0282913 7.061514 6.75 6.96875 L 7.03125 6.125 z M 9.4375 7.09375 L 9.90625 7.84375 C 9.6650652 8.0014478 9.36862 8.071776 9.0625 8.0625 L 9.125 7.1875 L 9.4375 7.09375 z M 5.03125 7.125 C 5.1329563 7.1600857 5.2366614 7.2011569 5.34375 7.21875 L 5.375 8.09375 C 5.0781558 8.1123028 4.8129613 8.0419747 4.5625 7.875 L 5.03125 7.125 z M 7.03125 7.25 C 7.0819115 7.2539709 7.13664 7.25 7.1875 7.25 L 7.375 7.25 L 7.625 8.09375 C 7.3467094 8.1865141 7.0688173 8.186514 6.78125 8.09375 L 7.03125 7.25 z M 9.71875 8.1875 L 10.1875 8.9375 C 9.9370387 9.1044745 9.64987 9.1840793 9.34375 9.15625 L 9.40625 8.25 L 9.5625 8.21875 L 9.71875 8.1875 z M 4.71875 8.21875 C 4.8203427 8.2553997 4.92518 8.2933116 5.03125 8.3125 L 5.0625 9.1875 C 4.7563802 9.2060529 4.4692113 9.1357247 4.21875 8.96875 L 4.71875 8.21875 z M 7.03125 8.375 C 7.1485408 8.3861415 7.2577093 8.4162268 7.375 8.40625 L 7.625 9.25 C 7.3374335 9.342764 7.0282913 9.342764 6.75 9.25 L 7.03125 8.375 z M 10 9.28125 C 10.009397 9.2778586 10.021887 9.2847947 10.03125 9.28125 L 10.5 10.03125 C 10.258815 10.198225 9.971646 10.246579 9.65625 10.21875 L 9.6875 9.375 C 9.7943755 9.3562384 9.8971541 9.3183683 10 9.28125 z M 4.4375 9.3125 C 4.5395933 9.3484121 4.6434214 9.3873821 4.75 9.40625 L 4.78125 10.28125 C 4.4844066 10.309079 4.219212 10.229475 3.96875 10.0625 L 4.4375 9.3125 z M 7.0625 9.53125 C 7.103061 9.5339184 7.146812 9.53125 7.1875 9.53125 L 7.375 9.53125 L 7.625 10.375 C 7.3467093 10.47704 7.0780933 10.47704 6.78125 10.375 L 7.0625 9.53125 z M 10.3125 10.375 L 10.78125 11.125 C 10.530788 11.291974 10.234343 11.362303 9.9375 11.34375 L 10 10.46875 L 10.15625 10.40625 L 10.3125 10.375 z M 4.125 10.4375 L 4.3125 10.46875 L 4.4375 10.5 L 4.5 11.375 C 4.1938798 11.393552 3.906712 11.323225 3.65625 11.15625 L 4.125 10.4375 z M 7.03125 10.65625 C 7.0925679 10.662254 7.157718 10.65625 7.21875 10.65625 L 7.375 10.65625 L 7.625 11.5 C 7.3374328 11.60204 7.0595407 11.60204 6.78125 11.5 L 7.03125 10.65625 z M 1.3125 11.4375 C 1.8319759 11.4375 2.2195053 11.887299 2.4375 12.75 C 2.6554947 13.612701 3.1790427 14.460293 4 15.28125 C 4.820958 16.102208 5.8702573 16.509276 7.1875 16.5 C 8.5232958 16.5 9.611904 16.06632 10.4375 15.25 C 11.263096 14.433681 11.782005 13.61734 12 12.75 C 12.217994 11.882661 12.574274 11.4375 13.09375 11.4375 C 13.381317 11.4375 13.610855 11.565459 13.75 11.84375 L 13.75 17.3125 L 0.65625 17.3125 L 0.65625 11.875 C 0.80467133 11.59671 1.0249327 11.4375 1.3125 11.4375 z M 10.59375 11.46875 L 11.0625 12.1875 C 10.821314 12.354474 10.55612 12.434079 10.25 12.40625 L 10.28125 11.53125 L 10.4375 11.5 L 10.59375 11.46875 z M 3.84375 11.53125 L 4 11.5625 L 4.1875 11.59375 L 4.1875 12.46875 C 3.8906567 12.496579 3.6254613 12.416975 3.375 12.25 L 3.84375 11.53125 z M 7.0625 11.78125 C 7.1063352 11.784417 7.1435894 11.78125 7.1875 11.78125 L 7.375 11.78125 L 7.625 12.625 C 7.3467093 12.72704 7.0780933 12.72704 6.78125 12.625 L 7.0625 11.78125 z M 10.90625 12.5625 L 11.15625 13 C 11.080894 13.15891 11.018924 13.323733 10.9375 13.46875 C 10.809195 13.500239 10.673596 13.539877 10.53125 13.53125 L 10.5625 12.65625 L 10.75 12.59375 L 10.90625 12.5625 z M 3.5625 12.59375 C 3.6160732 12.613174 3.6638282 12.641853 3.71875 12.65625 L 3.875 12.71875 L 3.90625 13.59375 C 3.7889966 13.601078 3.6725165 13.554316 3.5625 13.53125 C 3.4635223 13.364127 3.3723461 13.184942 3.28125 13 L 3.5625 12.59375 z M 7.03125 12.9375 C 7.0925679 12.943504 7.157718 12.9375 7.21875 12.9375 L 7.375 12.9375 L 7.625 13.75 C 7.3374328 13.852039 7.0595407 13.852039 6.78125 13.75 L 7.03125 12.9375 z M 7 14.0625 C 7.0656963 14.069287 7.121634 14.0625 7.1875 14.0625 L 7.34375 14.0625 L 7.625 14.90625 C 7.3374335 14.999014 7.0375673 14.999013 6.75 14.90625 L 7 14.0625 z M 7.03125 15.1875 C 7.08211 15.191669 7.13664 15.1875 7.1875 15.1875 L 7.375 15.1875 L 7.5625 15.8125 C 7.4467202 15.821495 7.3382403 15.84375 7.21875 15.84375 C 7.0788967 15.84375 6.9471041 15.825349 6.8125 15.8125 L 7.03125 15.1875 z "
     id="path2474" />
</svg>
