<?xml version="1.0" encoding ="US-ASCII" standalone="yes"?>
<svg width="19.248243" height="4.8">
<path style="fill:#000000; stroke:none" d=" M 7.308527 4.582914  L 7.718576 3.762806  Q 8.779893 3.88341 8.128636 4.8  L 7.308527 4.582914  Z  M 19.248243 1.471356  Q 19.248243 2.484422 18.548744 3.015069  L 0.771858 3.015069  Q 0 2.484422 0 1.471356  Q 0 0.506532 0.771858 0  L 18.548744 0  Q 19.248243 0.506532 19.248243 1.471356  Z  M 18.452257 1.471356  Q 18.452257 1.133668 18.283413 0.952762  Q 18.114573 0.771858 17.776875 0.771858  L 1.447236 0.771858  Q 1.133668 0.771858 0.952762 0.952762  Q 0.771858 1.133668 0.771858 1.471356  Q 0.771858 1.809042 0.952762 2.026129  Q 1.133668 2.243216 1.447236 2.243216  L 17.776875 2.243216  Q 18.138691 2.243216 18.295473 2.026129  Q 18.452257 1.809042 18.452257 1.471356  Z  M 9.189952 4.582914  L 9.6 3.762806  Q 10.637183 3.88341 10.010047 4.8  L 9.189952 4.582914  Z  M 11.071353 4.558794  L 11.481401 3.738686  Q 12.518569 3.859288 11.891454 4.775879  L 11.071353 4.558794  Z "/></svg>
