<?xml version="1.0" encoding ="US-ASCII" standalone="yes"?>
<svg width="18.560652" height="10.56">
<path style="fill:#000000; stroke:none" d=" M 16.581997 3.355109  Q 17.119673 3.355109 17.571325 2.903459  Q 17.850918 2.516334 17.850918 2.02167  Q 17.850918 1.570019 17.485298 1.107617  Q 17.119673 0.645214 16.603506 0.645214  L 1.914135 0.645214  Q 1.419469 0.645214 1.053849 1.107617  Q 0.688227 1.570019 0.666721 2.02167  Q 0.666721 2.516334 0.946313 2.903459  Q 1.419469 3.355109 1.935642 3.355109  L 16.581997 3.355109  Z  M 16.517479 0  Q 17.506802 0 18.022978 0.645214  Q 18.517639 1.290428 18.539145 2.043177  Q 18.517639 2.795923 18.044481 3.355109  Q 17.506802 3.978818 16.517479 3.978818  L 2.000163 3.978818  Q 1.010835 3.978818 0.473157 3.355109  Q 0.021507 2.795923 0 2.043177  Q 0 1.290428 0.494664 0.645214  Q 1.010835 0 2.000163 0  L 16.517479 0  Z  M 16.603506 9.914785  Q 17.141184 9.914785 17.592831 9.463138  Q 17.872427 9.076008 17.872427 8.60285  Q 17.872427 8.151202 17.506802 7.678044  Q 17.141184 7.204878 16.625011 7.204878  L 1.957149 7.204878  Q 1.440976 7.204878 1.075356 7.678044  Q 0.709734 8.151202 0.709734 8.60285  Q 0.709734 9.076008 0.989328 9.463138  Q 1.440976 9.914785 1.978656 9.914785  L 16.603506 9.914785  Z  M 16.560488 6.581172  Q 17.54982 6.581172 18.065987 7.204878  Q 18.539145 7.8501 18.560652 8.60285  Q 18.539145 9.3556 18.087496 9.914785  Q 17.54982 10.56 16.53898 10.56  L 2.043177 10.56  Q 1.032342 10.56 0.494664 9.914785  Q 0.043014 9.3556 0.021507 8.60285  Q 0.021507 7.8501 0.516171 7.204878  Q 1.032342 6.581172 2.02167 6.581172  L 16.560488 6.581172  Z "/></svg>
