<?xml version="1.0" encoding ="US-ASCII" standalone="yes"?>
<svg width="18.455326" height="7.92">
<path style="fill:#000000; stroke:none" d=" M 18.455326 7.92  L 0 7.92  L 0 7.130466  L 1.307664 7.130466  L 1.307664 4.367103  L 0 4.367103  L 0 3.552896  L 1.307664 3.552896  L 1.307664 0.789533  L 0 0.789533  L 0 0  L 18.455326 0  L 18.455326 0.789533  L 17.147661 0.789533  L 17.147661 3.552896  L 18.455326 3.552896  L 18.455326 4.367103  L 17.147661 4.367103  L 17.147661 7.130466  L 18.455326 7.130466  L 18.455326 7.92  Z  M 16.358131 3.552896  L 16.358131 0.789533  L 14.137568 0.789533  L 14.137568 3.552896  L 16.358131 3.552896  Z  M 13.348039 3.552896  L 13.348039 0.789533  L 11.127477 0.789533  L 11.127477 3.552896  L 13.348039 3.552896  Z  M 16.333458 7.130466  L 16.333458 4.367103  L 14.137568 4.367103  L 14.137568 7.130466  L 16.333458 7.130466  Z  M 10.337945 3.552896  L 10.337945 0.789533  L 8.117383 0.789533  L 8.117383 3.552896  L 10.337945 3.552896  Z  M 13.323365 7.130466  L 13.323365 4.367103  L 11.102804 4.367103  L 11.102804 7.130466  L 13.323365 7.130466  Z  M 7.303177 3.552896  L 7.303177 0.789533  L 5.107291 0.789533  L 5.107291 3.552896  L 7.303177 3.552896  Z  M 10.337945 7.130466  L 10.337945 4.367103  L 8.117383 4.367103  L 8.117383 7.130466  L 10.337945 7.130466  Z  M 4.317757 3.552896  L 4.317757 0.789533  L 2.121869 0.789533  L 2.121869 3.552896  L 4.317757 3.552896  Z  M 7.303177 7.130466  L 7.303177 4.367103  L 5.107291 4.367103  L 5.107291 7.130466  L 7.303177 7.130466  Z  M 4.293084 7.130466  L 4.293084 4.367103  L 2.121869 4.367103  L 2.121869 7.130466  L 4.293084 7.130466  Z "/></svg>
