<?xml version="1.0" encoding ="US-ASCII" standalone="yes"?>
<svg width="18.063158" height="4.8">
<path style="fill:#000000; stroke:none" d=" M 18.063158 4.8  L 0 4.8  L 0 0  L 18.063158 0  L 18.063158 4.8  Z  M 0.652632 0.652632  L 0.652632 4.147369  L 2.4 4.147369  L 2.4 0.652632  L 0.652632 0.652632  Z  M 5.11579 4.147369  L 5.11579 0.652632  L 3.052631 0.652632  L 3.052631 4.147369  L 5.11579 4.147369  Z  M 7.515787 4.147369  L 7.515787 0.652632  L 5.768419 0.652632  L 5.768419 4.147369  L 7.515787 4.147369  Z  M 9.894734 4.147369  L 9.894734 0.652632  L 8.168421 0.652632  L 8.168421 4.147369  L 9.894734 4.147369  Z  M 12.294732 4.147369  L 12.294732 0.652632  L 10.547364 0.652632  L 10.547364 4.147369  L 12.294732 4.147369  Z  M 15.010518 4.16842  L 15.010518 0.652632  L 12.947361 0.652632  L 12.947361 4.147369  L 15.010518 4.16842  Z  M 17.410526 4.147369  L 17.410526 0.652632  L 15.642097 0.652632  L 15.642097 4.16842  L 17.410526 4.147369  Z "/></svg>
