<?xml version="1.0" encoding="UTF-8" standalone="no"?>
<svg
   xmlns:dc="http://purl.org/dc/elements/1.1/"
   xmlns:cc="http://creativecommons.org/ns#"
   xmlns:rdf="http://www.w3.org/1999/02/22-rdf-syntax-ns#"
   xmlns:svg="http://www.w3.org/2000/svg"
   xmlns="http://www.w3.org/2000/svg"
   xmlns:sodipodi="http://sodipodi.sourceforge.net/DTD/sodipodi-0.dtd"
   xmlns:inkscape="http://www.inkscape.org/namespaces/inkscape"
   width="18.444092"
   height="15.12"
   id="svg2445"
   sodipodi:version="0.32"
   inkscape:version="0.46"
   sodipodi:docname="N24D.svg"
   inkscape:output_extension="org.inkscape.output.svg.inkscape">
  <metadata
     id="metadata2452">
    <rdf:RDF>
      <cc:Work
         rdf:about="">
        <dc:format>image/svg+xml</dc:format>
        <dc:type
           rdf:resource="http://purl.org/dc/dcmitype/StillImage" />
      </cc:Work>
    </rdf:RDF>
  </metadata>
  <defs
     id="defs2450">
    <inkscape:perspective
       sodipodi:type="inkscape:persp3d"
       inkscape:vp_x="0 : 7.5599999 : 1"
       inkscape:vp_y="0 : 1000 : 0"
       inkscape:vp_z="18.444092 : 7.5599999 : 1"
       inkscape:persp3d-origin="9.2220459 : 5.04 : 1"
       id="perspective2454" />
  </defs>
  <sodipodi:namedview
     inkscape:window-height="480"
     inkscape:window-width="640"
     inkscape:pageshadow="2"
     inkscape:pageopacity="0.0"
     guidetolerance="10.0"
     gridtolerance="10.0"
     objecttolerance="10.0"
     borderopacity="1.0"
     bordercolor="#666666"
     pagecolor="#ffffff"
     id="base"
     showgrid="false" />
  <path
     style="fill:#000000; stroke:none"
     d="M 7.4375 0 L 6.3125 3 L 3.34375 3 L 2.96875 4.03125 L 5.96875 4.03125 L 4.84375 7.03125 L 1.875 7.03125 L 1.5 8.03125 L 4.46875 8.03125 L 3.34375 11.09375 L 0.375 11.09375 L 0 12.09375 L 2.96875 12.09375 L 1.875 15.125 L 2.90625 15.125 L 4 12.09375 L 7.03125 12.125 L 5.90625 15.125 L 6.9375 15.125 L 8.0625 12.125 L 11.03125 12.09375 L 9.9375 15.125 L 10.96875 15.125 L 12.0625 12.09375 L 15.09375 12.09375 L 15.46875 11.09375 L 12.4375 11.09375 L 13.5625 8.03125 L 16.5625 8.03125 L 16.96875 7.03125 L 13.9375 7.03125 L 15.0625 4.03125 L 18.0625 4.03125 L 18.4375 3 L 15.40625 3 L 16.53125 0 L 15.5 0 L 14.40625 3 L 11.40625 3 L 12.5 0 L 11.46875 0 L 10.375 3 L 7.375 3 L 8.4375 0 L 7.4375 0 z M 6.96875 4.03125 L 10.03125 4.03125 L 8.875 7.03125 L 5.875 7.03125 L 6.96875 4.03125 z M 11.03125 4.03125 L 14.03125 4.03125 L 12.9375 7.03125 L 9.9375 7.03125 L 11.03125 4.03125 z M 5.5 8.03125 L 8.53125 8.03125 L 7.40625 11.09375 L 4.375 11.09375 L 5.5 8.03125 z M 9.53125 8.03125 L 12.53125 8.03125 L 11.4375 11.09375 L 8.4375 11.09375 L 9.53125 8.03125 z "
     id="path2447" />
</svg>
