<?xml version="1.0" encoding ="US-ASCII" standalone="yes"?>
<svg width="13.479606" height="7.92">
<path style="fill:#000000; stroke:none" d=" M 12.855371 7.295764  L 12.855371 1.014384  Q 12.640788 0.624237 12.25064 0.624237  Q 11.509361 0.624237 11.206998 1.833695  Q 10.904631 3.043153 9.743943 4.19409  Q 8.583254 5.345026 6.730049 5.345026  L 6.730049 5.345026  Q 4.876848 5.345026 3.716158 4.203844  Q 2.555468 3.06266 2.253104 1.843448  Q 1.950739 0.624237 1.228966 0.624237  Q 0.81931 0.624237 0.624237 1.014384  L 0.624237 7.315271  L 12.855371 7.295764  Z  M 6.730049 4.720789  Q 8.856358 4.623253 9.646407 3.4333  Q 10.436456 2.24335 10.729065 1.121675  Q 11.021674 0 12.25064 0  Q 13.030936 0 13.479606 0.624237  L 13.479606 7.92  L 0 7.92  L 0 0.624237  Q 0.429163 0 1.209459 0  Q 2.438424 0 2.731035 1.121675  Q 3.023646 2.24335 3.813695 3.4333  Q 4.603746 4.623253 6.730049 4.720789  L 6.730049 4.720789  Z "/></svg>
