<?xml version="1.0" encoding="UTF-8" standalone="no"?>
<svg
   xmlns:dc="http://purl.org/dc/elements/1.1/"
   xmlns:cc="http://web.resource.org/cc/"
   xmlns:rdf="http://www.w3.org/1999/02/22-rdf-syntax-ns#"
   xmlns:svg="http://www.w3.org/2000/svg"
   xmlns="http://www.w3.org/2000/svg"
   xmlns:sodipodi="http://inkscape.sourceforge.net/DTD/sodipodi-0.dtd"
   xmlns:inkscape="http://www.inkscape.org/namespaces/inkscape"
   width="16.593866"
   height="8.4"
   id="svg2855"
   sodipodi:version="0.32"
   inkscape:version="0.43"
   sodipodi:docname="USS22N31A.svg"
   sodipodi:docbase="C:\Program Files\JSesh\fonts\envoi23_SR">
  <metadata
     id="metadata2862">
    <rdf:RDF>
      <cc:Work
         rdf:about="">
        <dc:format>image/svg+xml</dc:format>
        <dc:type
           rdf:resource="http://purl.org/dc/dcmitype/StillImage" />
        <dc:title>USS22N31A</dc:title>
        <dc:date>02/03/06</dc:date>
        <dc:creator>
          <cc:Agent>
            <dc:title>Serge Thomas</dc:title>
          </cc:Agent>
        </dc:creator>
        <dc:publisher>
          <cc:Agent>
            <dc:title>Serge Rosmorduc</dc:title>
          </cc:Agent>
        </dc:publisher>
        <dc:description>recréation du sigbe N31A à partir d'un signe du temple de Meneptah (où le signe est d'ailleurs inversé dans le sens vertical !?)</dc:description>
        <cc:license
           rdf:resource="http://creativecommons.org/licenses/GPL/2.0/" />
      </cc:Work>
      <cc:License
         rdf:about="http://creativecommons.org/licenses/GPL/2.0/">
        <cc:permits
           rdf:resource="http://web.resource.org/cc/Reproduction" />
        <cc:permits
           rdf:resource="http://web.resource.org/cc/Distribution" />
        <cc:requires
           rdf:resource="http://web.resource.org/cc/Notice" />
        <cc:permits
           rdf:resource="http://web.resource.org/cc/DerivativeWorks" />
        <cc:requires
           rdf:resource="http://web.resource.org/cc/ShareAlike" />
        <cc:requires
           rdf:resource="http://web.resource.org/cc/SourceCode" />
      </cc:License>
    </rdf:RDF>
  </metadata>
  <defs
     id="defs2860" />
  <sodipodi:namedview
     inkscape:window-height="542"
     inkscape:window-width="811"
     inkscape:pageshadow="2"
     inkscape:pageopacity="0.0"
     borderopacity="1.0"
     bordercolor="#666666"
     pagecolor="#ffffff"
     id="base"
     inkscape:zoom="43.389526"
     inkscape:cx="8.2969332"
     inkscape:cy="4.1999998"
     inkscape:window-x="22"
     inkscape:window-y="29"
     inkscape:current-layer="svg2855" />
  <path
     style="fill:#000000; stroke:none"
     d=" M 2.439264 5.531288  Q 2.851534 4.208589 2.439264 2.903068  L 14.137424 2.903068  Q 13.656444 4.225767 14.137424 5.531288  L 2.439264 5.531288  Z  M 3.95092 1.855215  L 4.878528 0.034356  L 1.065031 0.034356  L 1.97546 1.855215  L 3.95092 1.855215  Z  M 14.566872 1.855215  L 15.494479 0  L 11.680981 0  L 12.574233 1.838037  L 12.557056 1.855215  L 0 1.855215  L 0 2.903068  L 1.219632 2.903068  Q 1.683436 4.208589 1.219632 5.531288  L 0 5.531288  L 0 6.579141  L 7.283436 6.579141  L 6.390184 8.4  L 10.203681 8.4  L 9.276074 6.579141  L 16.593866 6.579141  L 16.593866 5.531288  L 15.391411 5.531288  Q 14.82454 4.225767 15.391411 2.903068  L 16.593866 2.903068  L 16.593866 1.855215  L 14.566872 1.855215  Z  M 12.711657 0.773006  L 14.498159 0.773006  L 13.948466 1.855215  L 13.26135 1.855215  L 12.711657 0.773006  Z  M 2.078527 0.773006  L 3.847853 0.773006  L 3.315337 1.855215  L 2.628221 1.855215  L 2.078527 0.773006  Z  M 7.936196 6.561964  L 8.606135 6.561964  L 9.155828 7.644172  L 7.386503 7.644172  L 7.936196 6.561964  Z "
     id="path2857" />
</svg>
