<?xml version="1.0" encoding="UTF-8" standalone="no"?>
<svg
   xmlns:dc="http://purl.org/dc/elements/1.1/"
   xmlns:cc="http://creativecommons.org/ns#"
   xmlns:rdf="http://www.w3.org/1999/02/22-rdf-syntax-ns#"
   xmlns:svg="http://www.w3.org/2000/svg"
   xmlns="http://www.w3.org/2000/svg"
   xmlns:sodipodi="http://sodipodi.sourceforge.net/DTD/sodipodi-0.dtd"
   xmlns:inkscape="http://www.inkscape.org/namespaces/inkscape"
   width="18.027693"
   height="12.24"
   id="svg2440"
   sodipodi:version="0.32"
   inkscape:version="0.46"
   sodipodi:docname="N31Bvara.svg"
   inkscape:output_extension="org.inkscape.output.svg.inkscape">
  <metadata
     id="metadata2447">
    <rdf:RDF>
      <cc:Work
         rdf:about="">
        <dc:format>image/svg+xml</dc:format>
        <dc:type
           rdf:resource="http://purl.org/dc/dcmitype/StillImage" />
      </cc:Work>
    </rdf:RDF>
  </metadata>
  <defs
     id="defs2445">
    <inkscape:perspective
       sodipodi:type="inkscape:persp3d"
       inkscape:vp_x="0 : 6.1199999 : 1"
       inkscape:vp_y="0 : 1000 : 0"
       inkscape:vp_z="18.027693 : 6.1199999 : 1"
       inkscape:persp3d-origin="9.0138464 : 4.0799999 : 1"
       id="perspective2449" />
  </defs>
  <sodipodi:namedview
     inkscape:window-height="708"
     inkscape:window-width="1024"
     inkscape:pageshadow="2"
     inkscape:pageopacity="0.0"
     guidetolerance="10.0"
     gridtolerance="10.0"
     objecttolerance="10.0"
     borderopacity="1.0"
     bordercolor="#666666"
     pagecolor="#ffffff"
     id="base"
     showgrid="false"
     inkscape:zoom="120.70319"
     inkscape:cx="15.709179"
     inkscape:cy="1.8119115"
     inkscape:window-x="-4"
     inkscape:window-y="-4"
     inkscape:current-layer="svg2440" />
  <path
     style="fill:#000000; stroke:none"
     d="M 2.625 0 C 2.265 0 1.7409613 0.089519336 1.0625 0.21875 C 0.384038 0.34798067 0.03125 0.61942266 0.03125 1.0625 C 0.03125 1.2194227 0.085961331 1.3579806 0.1875 1.46875 C 0.639808 1.46875 0.962404 1.8087501 1.15625 2.46875 C 1.350096 3.12875 1.5760574 3.4375001 1.84375 3.4375 C 1.8351934 3.4957321 1.8208362 3.5360932 1.8125 3.59375 L 0 3.59375 L 0 4.78125 L 1.6875 4.78125 C 1.4849216 6.3984854 1.34375 7.8492192 1.34375 8.9375 C 1.34375 8.9611786 1.3436516 8.9765777 1.34375 9 L 0 9 L 0 10.21875 L 1.4375 10.21875 C 1.5830203 11.539723 1.9722705 12.21875 2.625 12.21875 C 3.2697161 12.21875 3.6615088 11.497659 3.8125 10.21875 L 6.0625 10.21875 L 5.53125 12.25 L 12.53125 12.25 L 12 10.21875 L 14.25 10.21875 C 14.39552 11.539723 14.784771 12.21875 15.4375 12.21875 C 16.097456 12.21875 16.477911 11.53994 16.625 10.21875 L 18.03125 10.21875 L 18.03125 9 L 16.6875 9 C 16.6876 8.9765231 16.6875 8.9612344 16.6875 8.9375 C 16.6875 7.8420121 16.551956 6.3944383 16.34375 4.78125 L 18.03125 4.78125 L 18.03125 3.59375 L 16.21875 3.59375 C 16.210182 3.5363187 16.196294 3.4954944 16.1875 3.4375 C 16.464423 3.4375 16.712404 3.1287501 16.90625 2.46875 C 17.100097 1.80875 17.422693 1.46875 17.875 1.46875 C 17.976538 1.3579807 18 1.2194227 18 1.0625 C 18 0.61942267 17.673846 0.34798067 17 0.21875 C 16.326154 0.089519333 15.815961 2.7483615e-10 15.4375 0 C 15.077499 0 14.553461 0.089519336 13.875 0.21875 C 13.196539 0.34798067 12.84375 0.61942266 12.84375 1.0625 C 12.84375 1.2194227 12.907693 1.3579806 13 1.46875 C 13.461539 1.46875 13.779519 1.8087501 13.96875 2.46875 C 14.157981 3.12875 14.379326 3.4375001 14.65625 3.4375 C 14.647693 3.4954944 14.633336 3.5363187 14.625 3.59375 L 10.25 3.59375 L 9.28125 0 L 8.78125 0 L 7.8125 3.59375 L 3.4375 3.59375 C 3.4291638 3.5360932 3.4148065 3.4957321 3.40625 3.4375 C 3.673942 3.4375 3.8999038 3.1287501 4.09375 2.46875 C 4.2875967 1.80875 4.6101928 1.46875 5.0625 1.46875 C 5.1640387 1.3579807 5.2187501 1.2194227 5.21875 1.0625 C 5.21875 0.61942267 4.861346 0.34798067 4.1875 0.21875 C 3.5136533 0.089519333 3.0034612 2.7483615e-10 2.625 0 z M 2.625 0.6875 C 3.372692 0.6875 3.9631725 0.78769264 4.40625 1 C 3.9170193 1.3230767 3.6281734 1.7202879 3.53125 2.21875 C 3.4343273 2.7172113 3.2875966 2.96875 3.09375 2.96875 C 2.8814427 2.96875 2.7848079 3.1584612 2.8125 3.5 C 3.1355773 5.6969233 3.2812501 7.5358662 3.28125 9.03125 C 3.28125 10.655866 3.0773079 11.510674 2.625 11.59375 C 2.1819233 11.510673 1.9374999 10.655866 1.9375 9.03125 C 1.9375 7.535866 2.1236539 5.6969232 2.4375 3.5 C 2.4744233 3.1584613 2.3905773 2.96875 2.1875 2.96875 C 1.9844233 2.96875 1.8156734 2.7172112 1.71875 2.21875 C 1.6218273 1.720288 1.3329814 1.3230766 0.84375 1 C 1.2868273 0.78769267 1.8865386 0.68749997 2.625 0.6875 z M 15.4375 0.6875 C 16.175962 0.6875 16.766443 0.76567334 17.21875 0.96875 C 16.729519 1.3010573 16.440673 1.7249034 16.34375 2.21875 C 16.246826 2.712596 16.100096 2.9687499 15.90625 2.96875 C 15.693942 2.96875 15.597308 3.1492306 15.625 3.5 C 15.948077 5.6969233 16.09375 7.5138463 16.09375 9 C 16.09375 10.633847 15.889807 11.510674 15.4375 11.59375 C 14.994423 11.510673 14.75 10.633846 14.75 9 C 14.75 7.5138467 14.904904 5.6969232 15.21875 3.5 C 15.246442 3.1492307 15.162596 2.9687499 14.96875 2.96875 C 14.765673 2.96875 14.628173 2.7125961 14.53125 2.21875 C 14.434327 1.7249033 14.14548 1.3010573 13.65625 0.96875 C 14.099327 0.76567333 14.699038 0.68749997 15.4375 0.6875 z M 9 1.53125 L 9.0625 1.53125 L 11.71875 11.625 L 10.4375 11.625 L 9.125 6.6875 L 8.90625 6.6875 L 7.625 11.625 L 6.34375 11.625 L 9 1.53125 z M 0.375 3.96875 L 1.78125 3.96875 C 1.7595179 4.1253004 1.7387783 4.2541484 1.71875 4.40625 L 0.375 4.40625 L 0.375 3.96875 z M 3.46875 3.96875 L 7.71875 3.96875 L 7.625 4.40625 L 3.53125 4.40625 C 3.5112218 4.2541484 3.490482 4.1253004 3.46875 3.96875 z M 10.34375 3.96875 L 14.59375 3.96875 C 14.572018 4.1247541 14.551278 4.2546001 14.53125 4.40625 L 10.4375 4.40625 L 10.34375 3.96875 z M 16.25 3.96875 L 17.65625 3.96875 L 17.65625 4.40625 L 16.3125 4.40625 C 16.291915 4.2546001 16.272336 4.1247541 16.25 3.96875 z M 3.5625 4.78125 L 7.5 4.78125 L 6.40625 9 L 3.90625 9 C 3.9063495 8.9765777 3.90625 8.9611786 3.90625 8.9375 C 3.90625 7.8492191 3.765078 6.3984854 3.5625 4.78125 z M 10.5625 4.78125 L 14.5 4.78125 C 14.297422 6.3944382 14.15625 7.8420121 14.15625 8.9375 C 14.15625 8.9611786 14.156152 8.9765777 14.15625 9 L 11.6875 9 L 10.5625 4.78125 z M 9 8.375 L 9.0625 8.375 L 9.8125 11.625 L 8.25 11.625 L 9 8.375 z M 0.375 9.375 L 1.34375 9.375 C 1.3485814 9.5304774 1.3628246 9.6965101 1.375 9.84375 L 0.375 9.84375 L 0.375 9.375 z M 3.875 9.375 L 6.28125 9.375 L 6.1875 9.84375 L 6.15625 9.84375 L 3.84375 9.84375 C 3.8559473 9.681407 3.8691445 9.5537035 3.875 9.375 z M 11.78125 9.375 L 14.1875 9.375 C 14.192713 9.5397849 14.207954 9.6935068 14.21875 9.84375 L 11.90625 9.84375 L 11.875 9.84375 L 11.78125 9.375 z M 16.6875 9.375 L 17.625 9.375 L 17.625 9.84375 L 16.65625 9.84375 C 16.667166 9.6933806 16.682297 9.529505 16.6875 9.375 z "
     id="path2442" />
</svg>
