<?xml version="1.0" encoding="UTF-8" standalone="no"?>
<!-- Created with Inkscape (http://www.inkscape.org/) -->
<svg
   xmlns:dc="http://purl.org/dc/elements/1.1/"
   xmlns:cc="http://web.resource.org/cc/"
   xmlns:rdf="http://www.w3.org/1999/02/22-rdf-syntax-ns#"
   xmlns:svg="http://www.w3.org/2000/svg"
   xmlns="http://www.w3.org/2000/svg"
   xmlns:sodipodi="http://inkscape.sourceforge.net/DTD/sodipodi-0.dtd"
   xmlns:inkscape="http://www.inkscape.org/namespaces/inkscape"
   sodipodi:docname="N35A.svg"
   sodipodi:docbase="/home/rosmord/Desktop/lien vers Ramessides/Fontes"
   inkscape:version="0.41.1"
   sodipodi:version="0.32"
   id="svg1290"
   height="18.000000px"
   width="18.000000px">
  <defs
     id="defs3" />
  <sodipodi:namedview
     inkscape:window-y="49"
     inkscape:window-x="5"
     inkscape:window-height="541"
     inkscape:window-width="814"
     inkscape:current-layer="layer1"
     inkscape:document-units="px"
     inkscape:cy="9.9501401"
     inkscape:cx="9.0000002"
     inkscape:zoom="19.944444"
     inkscape:pageshadow="2"
     inkscape:pageopacity="0.0"
     borderopacity="1.0"
     bordercolor="#666666"
     pagecolor="#ffffff"
     id="base" />
  <metadata
     id="metadata4">
    <rdf:RDF
       id="RDF5">
      <cc:Work
         id="Work6"
         rdf:about="">
        <dc:format
           id="format7">image/svg+xml</dc:format>
        <dc:type
           rdf:resource="http://purl.org/dc/dcmitype/StillImage"
           id="type9" />
        <cc:license
           rdf:resource="http://creativecommons.org/licenses/by/2.0/"
           id="license1300" />
        <dc:subject
           id="subject1316">
          <rdf:Bag
             id="Bag1318">
            <rdf:li
               id="li1350">JSesh hieroglyph</rdf:li>
          </rdf:Bag>
        </dc:subject>
        <dc:creator
           id="creator3553">
          <cc:Agent
             id="Agent3555">
            <dc:title
               id="title3557">Serge Rosmorduc</dc:title>
          </cc:Agent>
        </dc:creator>
        <dc:description
           id="description3559">Sign from Hypostyle Hall, Karnak
</dc:description>
      </cc:Work>
      <cc:License
         id="License1302"
         rdf:about="http://creativecommons.org/licenses/by/2.0/">
        <cc:permits
           id="permits1304"
           rdf:resource="http://web.resource.org/cc/Reproduction" />
        <cc:permits
           id="permits1306"
           rdf:resource="http://web.resource.org/cc/Distribution" />
        <cc:requires
           id="requires1308"
           rdf:resource="http://web.resource.org/cc/Notice" />
        <cc:requires
           id="requires1310"
           rdf:resource="http://web.resource.org/cc/Attribution" />
        <cc:permits
           id="permits1312"
           rdf:resource="http://web.resource.org/cc/DerivativeWorks" />
        <cc:requires
           id="requires1314"
           rdf:resource="http://web.resource.org/cc/ShareAlike" />
      </cc:License>
    </rdf:RDF>
  </metadata>
  <g
     id="layer1"
     inkscape:groupmode="layer"
     inkscape:label="Layer 1">
    <path
       style="opacity:0.99415207;fill:#000000;fill-opacity:1.0000000;fill-rule:nonzero;stroke:none;stroke-width:0.86318368;stroke-linecap:square;stroke-linejoin:miter;stroke-miterlimit:4.0000000;stroke-opacity:1.0000000;display:inline"
       d="M 1.6656948,13.781250 L 1.2906948,14.593750 L 0.10319484,17.250000 L -0.084305161,17.625000 L 0.69694484,18.000000 L 0.88444484,17.593750 L 1.6969448,15.750000 L 2.1031948,16.468750 L 2.4781948,17.218750 L 2.8531948,16.468750 L 3.2906948,15.687500 L 3.6969448,16.468750 L 4.0719448,17.218750 L 4.4469448,16.468750 L 4.8531948,15.687500 L 5.2906948,16.468750 L 5.6656948,17.218750 L 6.0406948,16.468750 L 6.4469448,15.718750 L 6.8531948,16.468750 L 7.2594448,17.218750 L 7.6344448,16.468750 L 8.0406948,15.687500 L 8.4469448,16.468750 L 8.8531948,17.218750 L 9.2281948,16.468750 L 9.6344448,15.687500 L 10.040695,16.468750 L 10.446945,17.218750 L 10.821945,16.468750 L 11.228195,15.687500 L 11.634445,16.468750 L 12.009445,17.218750 L 12.415695,16.468750 L 12.821945,15.687500 L 13.228195,16.468750 L 13.603195,17.218750 L 14.009445,16.468750 L 14.415695,15.687500 L 14.853195,16.500000 L 15.228195,17.187500 L 15.634445,16.500000 L 16.071945,15.656250 L 17.165695,17.625000 L 17.384445,18.000000 L 18.134445,17.593750 L 17.946945,17.218750 L 16.446945,14.531250 L 16.071945,13.875000 L 15.696945,14.562500 L 15.228195,15.375000 L 14.790695,14.562500 L 14.384445,13.843750 L 14.040695,14.562500 L 13.603195,15.343750 L 13.196945,14.562500 L 12.821945,13.812500 L 12.446945,14.562500 L 12.040695,15.343750 L 11.603195,14.562500 L 11.228195,13.812500 L 10.853195,14.562500 L 10.415695,15.343750 L 10.009445,14.562500 L 9.6344448,13.812500 L 9.2594448,14.562500 L 8.8531948,15.343750 L 8.4156948,14.562500 L 8.0406948,13.812500 L 7.6656948,14.562500 L 7.2594448,15.312500 L 6.8531948,14.562500 L 6.4469448,13.812500 L 6.0719448,14.562500 L 5.6656948,15.343750 L 5.2594448,14.562500 L 4.8531948,13.812500 L 4.4781948,14.562500 L 4.0719448,15.343750 L 3.6656948,14.562500 L 3.2906948,13.812500 L 2.8844448,14.562500 L 2.4781948,15.343750 L 2.0719448,14.562500 L 1.6656948,13.781250 z "
       id="path2133" />
    <path
       style="opacity:0.99415207;fill:#000000;fill-opacity:1.0000000;fill-rule:nonzero;stroke:none;stroke-width:0.86318368;stroke-linecap:square;stroke-linejoin:miter;stroke-miterlimit:4.0000000;stroke-opacity:1.0000000;display:inline"
       d="M 1.6656949,6.8637925 L 1.2906949,7.6762925 L 0.10319483,10.332542 L -0.084305161,10.707542 L 0.69694483,11.082542 L 0.88444479,10.676292 L 1.6969449,8.8325425 L 2.1031949,9.5512925 L 2.4781949,10.301292 L 2.8531949,9.5512925 L 3.2906949,8.7700425 L 3.6969449,9.5512925 L 4.0719449,10.301292 L 4.4469449,9.5512925 L 4.8531949,8.7700425 L 5.2906949,9.5512925 L 5.6656949,10.301292 L 6.0406949,9.5512925 L 6.4469449,8.8012925 L 6.8531949,9.5512925 L 7.2594449,10.301292 L 7.6344449,9.5512925 L 8.0406949,8.7700425 L 8.4469449,9.5512925 L 8.8531949,10.301292 L 9.2281949,9.5512925 L 9.6344449,8.7700425 L 10.040695,9.5512925 L 10.446945,10.301292 L 10.821945,9.5512925 L 11.228195,8.7700425 L 11.634445,9.5512925 L 12.009445,10.301292 L 12.415695,9.5512925 L 12.821945,8.7700425 L 13.228195,9.5512925 L 13.603195,10.301292 L 14.009445,9.5512925 L 14.415695,8.7700425 L 14.853195,9.5825425 L 15.228195,10.270042 L 15.634445,9.5825425 L 16.071945,8.7387925 L 17.165695,10.707542 L 17.384445,11.082542 L 18.134445,10.676292 L 17.946945,10.301292 L 16.446945,7.6137925 L 16.071945,6.9575425 L 15.696945,7.6450425 L 15.228195,8.4575425 L 14.790695,7.6450425 L 14.384445,6.9262925 L 14.040695,7.6450425 L 13.603195,8.4262925 L 13.196945,7.6450425 L 12.821945,6.8950425 L 12.446945,7.6450425 L 12.040695,8.4262925 L 11.603195,7.6450425 L 11.228195,6.8950425 L 10.853195,7.6450425 L 10.415695,8.4262925 L 10.009445,7.6450425 L 9.6344449,6.8950425 L 9.2594449,7.6450425 L 8.8531949,8.4262925 L 8.4156949,7.6450425 L 8.0406949,6.8950425 L 7.6656949,7.6450425 L 7.2594449,8.3950425 L 6.8531949,7.6450425 L 6.4469449,6.8950425 L 6.0719449,7.6450425 L 5.6656949,8.4262925 L 5.2594449,7.6450425 L 4.8531949,6.8950425 L 4.4781949,7.6450425 L 4.0719449,8.4262925 L 3.6656949,7.6450425 L 3.2906949,6.8950425 L 2.8844449,7.6450425 L 2.4781949,8.4262925 L 2.0719449,7.6450425 L 1.6656949,6.8637925 z "
       id="path1306" />
    <path
       style="opacity:0.99415207;fill:#000000;fill-opacity:1.0000000;fill-rule:nonzero;stroke:none;stroke-width:0.86318368;stroke-linecap:square;stroke-linejoin:miter;stroke-miterlimit:4.0000000;stroke-opacity:1.0000000;display:inline"
       d="M 1.6656948,-0.053665267 L 1.2906948,0.75883473 L 0.10319484,3.4150847 L -0.084305161,3.7900847 L 0.69694484,4.1650847 L 0.88444484,3.7588347 L 1.6969448,1.9150847 L 2.1031948,2.6338347 L 2.4781948,3.3838347 L 2.8531948,2.6338347 L 3.2906948,1.8525847 L 3.6969448,2.6338347 L 4.0719448,3.3838347 L 4.4469448,2.6338347 L 4.8531948,1.8525847 L 5.2906948,2.6338347 L 5.6656948,3.3838347 L 6.0406948,2.6338347 L 6.4469448,1.8838347 L 6.8531948,2.6338347 L 7.2594448,3.3838347 L 7.6344448,2.6338347 L 8.0406948,1.8525847 L 8.4469448,2.6338347 L 8.8531948,3.3838347 L 9.2281948,2.6338347 L 9.6344448,1.8525847 L 10.040694,2.6338347 L 10.446944,3.3838347 L 10.821944,2.6338347 L 11.228194,1.8525847 L 11.634444,2.6338347 L 12.009444,3.3838347 L 12.415694,2.6338347 L 12.821944,1.8525847 L 13.228194,2.6338347 L 13.603194,3.3838347 L 14.009444,2.6338347 L 14.415694,1.8525847 L 14.853194,2.6650847 L 15.228194,3.3525847 L 15.634444,2.6650847 L 16.071944,1.8213347 L 17.165694,3.7900847 L 17.384444,4.1650847 L 18.134444,3.7588347 L 17.946944,3.3838347 L 16.446944,0.69633473 L 16.071944,0.040084733 L 15.696944,0.72758473 L 15.228194,1.5400847 L 14.790694,0.72758473 L 14.384444,0.0088347335 L 14.040694,0.72758473 L 13.603194,1.5088347 L 13.196944,0.72758473 L 12.821944,-0.022415267 L 12.446944,0.72758473 L 12.040694,1.5088347 L 11.603194,0.72758473 L 11.228194,-0.022415267 L 10.853194,0.72758473 L 10.415694,1.5088347 L 10.009444,0.72758473 L 9.6344448,-0.022415267 L 9.2594448,0.72758473 L 8.8531948,1.5088347 L 8.4156948,0.72758473 L 8.0406948,-0.022415267 L 7.6656948,0.72758473 L 7.2594448,1.4775847 L 6.8531948,0.72758473 L 6.4469448,-0.022415267 L 6.0719448,0.72758473 L 5.6656948,1.5088347 L 5.2594448,0.72758473 L 4.8531948,-0.022415267 L 4.4781948,0.72758473 L 4.0719448,1.5088347 L 3.6656948,0.72758473 L 3.2906948,-0.022415267 L 2.8844448,0.72758473 L 2.4781948,1.5088347 L 2.0719448,0.72758473 L 1.6656948,-0.053665267 z "
       id="path1308" />
  </g>
</svg>
