<?xml version="1.0" encoding="UTF-8" standalone="no"?>
<svg
   xmlns:dc="http://purl.org/dc/elements/1.1/"
   xmlns:cc="http://creativecommons.org/ns#"
   xmlns:rdf="http://www.w3.org/1999/02/22-rdf-syntax-ns#"
   xmlns:svg="http://www.w3.org/2000/svg"
   xmlns="http://www.w3.org/2000/svg"
   xmlns:sodipodi="http://sodipodi.sourceforge.net/DTD/sodipodi-0.dtd"
   xmlns:inkscape="http://www.inkscape.org/namespaces/inkscape"
   width="14.058249"
   height="14.046663"
   id="svg2445"
   sodipodi:version="0.32"
   inkscape:version="0.46"
   sodipodi:docname="N35C.svg"
   inkscape:output_extension="org.inkscape.output.svg.inkscape"
   version="1.0">
  <metadata
     id="metadata2452">
    <rdf:RDF>
      <cc:Work
         rdf:about="">
        <dc:format>image/svg+xml</dc:format>
        <dc:type
           rdf:resource="http://purl.org/dc/dcmitype/StillImage" />
      </cc:Work>
    </rdf:RDF>
  </metadata>
  <defs
     id="defs2450">
    <inkscape:perspective
       sodipodi:type="inkscape:persp3d"
       inkscape:vp_x="0 : 1.6799999 : 1"
       inkscape:vp_y="0 : 1000 : 0"
       inkscape:vp_z="18.471811 : 1.6799999 : 1"
       inkscape:persp3d-origin="9.2359056 : 1.12 : 1"
       id="perspective2454" />
  </defs>
  <sodipodi:namedview
     inkscape:window-height="708"
     inkscape:window-width="1024"
     inkscape:pageshadow="2"
     inkscape:pageopacity="0.0"
     guidetolerance="10.0"
     gridtolerance="10.0"
     objecttolerance="10.0"
     borderopacity="1.0"
     bordercolor="#666666"
     pagecolor="#ffffff"
     id="base"
     showgrid="false"
     inkscape:zoom="35.809214"
     inkscape:cx="7.029124"
     inkscape:cy="7.0233313"
     inkscape:window-x="-4"
     inkscape:window-y="-4"
     inkscape:current-layer="svg2445" />
  <path
     style="fill:#000000;stroke:none"
     d="M 9.9439233,6.1772863 L 8.5299863,6.548156 L 8.9008533,5.1573958 L 7.4985047,5.5166746 L 7.8693765,4.1259186 L 6.4670254,4.4851953 L 6.8378965,3.0944386 L 5.4355475,3.4537174 L 5.8064165,2.0629586 L 4.4156584,2.4338283 L 4.7749372,1.0314793 L 3.3841791,1.402349 L 3.7434579,8.8817842e-16 L 0,0.9851207 L 0.8692237,1.8543444 L 2.4106479,1.33281 L 1.9007037,2.8858244 L 3.4421272,2.3642893 L 2.932183,3.9173037 L 4.4736065,3.3957686 L 3.9520721,4.9371928 L 5.5050865,4.4272486 L 4.98355,5.9686707 L 6.5365665,5.4587286 L 6.0150293,7.00015 L 7.5680437,6.4902058 L 7.0465107,8.0316314 L 8.5647543,7.4869159 L 8.0779879,9.0631086 L 9.5266963,8.4488583 L 9.1094683,10.094589 L 10.581355,9.5035173 L 10.140948,11.126069 L 11.682372,10.604535 L 11.172428,12.157549 L 12.713849,11.636011 L 12.203903,13.189024 L 13.061543,14.046664 L 14.058248,10.291612 L 12.655904,10.674074 L 13.026772,9.2601354 L 11.624423,9.6425932 L 11.995293,8.251835 L 10.592944,8.6111139 L 10.952224,7.2087663 L 9.5614633,7.5796332 L 9.9439233,6.1772863 z"
     id="path2447" />
</svg>
