<?xml version="1.0" encoding="UTF-8" standalone="no"?>
<!-- Created with Inkscape (http://www.inkscape.org/) -->
<svg
   xmlns:dc="http://purl.org/dc/elements/1.1/"
   xmlns:cc="http://creativecommons.org/ns#"
   xmlns:rdf="http://www.w3.org/1999/02/22-rdf-syntax-ns#"
   xmlns:svg="http://www.w3.org/2000/svg"
   xmlns="http://www.w3.org/2000/svg"
   xmlns:sodipodi="http://sodipodi.sourceforge.net/DTD/sodipodi-0.dtd"
   xmlns:inkscape="http://www.inkscape.org/namespaces/inkscape"
   width="1783.4595"
   height="1800.5831"
   id="svg2451"
   sodipodi:version="0.32"
   inkscape:version="0.46"
   version="1.0"
   sodipodi:docname="N3B.svg"
   inkscape:output_extension="org.inkscape.output.svg.inkscape">
  <defs
     id="defs2453">
    <inkscape:perspective
       sodipodi:type="inkscape:persp3d"
       inkscape:vp_x="0 : 526.18109 : 1"
       inkscape:vp_y="0 : 1000 : 0"
       inkscape:vp_z="744.09448 : 526.18109 : 1"
       inkscape:persp3d-origin="372.04724 : 350.78739 : 1"
       id="perspective2459" />
  </defs>
  <sodipodi:namedview
     id="base"
     pagecolor="#ffffff"
     bordercolor="#666666"
     borderopacity="1.0"
     inkscape:pageopacity="0.0"
     inkscape:pageshadow="2"
     inkscape:zoom="0.27944444"
     inkscape:cx="984.39712"
     inkscape:cy="765.17974"
     inkscape:document-units="px"
     inkscape:current-layer="layer1"
     showgrid="false"
     inkscape:window-width="1024"
     inkscape:window-height="708"
     inkscape:window-x="-4"
     inkscape:window-y="-4" />
  <metadata
     id="metadata2456">
    <rdf:RDF>
      <cc:Work
         rdf:about="">
        <dc:format>image/svg+xml</dc:format>
        <dc:type
           rdf:resource="http://purl.org/dc/dcmitype/StillImage" />
      </cc:Work>
    </rdf:RDF>
  </metadata>
  <g
     inkscape:label="Calque 1"
     inkscape:groupmode="layer"
     id="layer1"
     transform="translate(3.5785285,-3.08032)">
    <path
       style="fill:#000000;stroke:none"
       d="M 1692.1698,86.668193 L 84.132601,86.668193 L 84.132601,380.15439 L 277.09703,268.70386 L 1499.2053,268.70386 L 1692.1698,380.15439 L 1692.1698,86.668193 z M 604.55183,1277.9887 L 606.50103,1277.9887 C 701.35897,1277.9887 775.42614,1326.284 828.70253,1422.8744 L 978.78599,1422.8744 L 978.78599,1656.9205 L 830.65161,1656.9205 C 778.67468,1754.7491 691.61327,1803.6635 569.4674,1803.6635 C 447.3216,1803.6635 360.2602,1754.7491 308.28319,1656.9205 L 160.14893,1656.9205 L 160.14893,1422.8744 L 310.23239,1422.8744 C 360.90994,1326.284 433.02795,1277.9887 526.58642,1277.9887 L 528.53551,352.29173 L 277.09703,352.29173 L -3.5785285,513.895 L -3.5785285,3.08032 L 1779.8809,3.08032 L 1779.8809,513.895 L 1499.2053,352.29173 L 1298.4442,352.29173 L 1298.4442,733.08092 L 1218.5298,733.08092 L 1218.5298,352.29173 L 604.55183,352.29173 L 604.55183,1277.9887 z M 366.75725,1539.8974 C 366.75725,1567.1408 372.2798,1592.5267 383.32492,1616.0551 C 394.37004,1639.5836 408.98855,1660.3258 427.18049,1678.2816 C 445.37241,1696.2376 466.81292,1710.1689 491.502,1720.0756 C 516.191,1729.9824 542.17947,1734.9358 569.4674,1734.9358 C 596.75532,1734.9358 622.74383,1729.9824 647.43292,1720.0756 C 672.12192,1710.1689 693.88725,1696.2376 712.72891,1678.2816 C 731.57057,1660.3258 746.18909,1639.5836 756.58448,1616.0551 C 766.97987,1592.5267 772.17756,1567.1408 772.17756,1539.8974 C 772.17756,1513.8922 766.97987,1488.8159 756.58448,1464.6683 C 746.18909,1440.5207 731.57057,1419.7785 712.72891,1402.4418 C 693.88725,1385.1051 672.12192,1371.1738 647.43292,1360.6478 C 622.74383,1350.1219 596.75532,1344.859 569.4674,1344.859 C 542.17947,1344.859 516.191,1350.1219 491.502,1360.6478 C 466.81292,1371.1738 445.37241,1385.1051 427.18049,1402.4418 C 408.98855,1419.7785 394.37004,1440.5207 383.32492,1464.6683 C 372.2798,1488.8159 366.75725,1513.8922 366.75725,1539.8974 z M 216.67379,1597.48 L 284.89357,1597.48 L 284.89357,1484.1721 L 216.67379,1484.1721 L 216.67379,1597.48 z M 855.99043,1597.48 L 924.21009,1597.48 L 924.21009,1484.1721 L 855.99043,1484.1721 L 855.99043,1597.48 z"
       id="path2442"
       sodipodi:nodetypes="cccccccccccccscccccccccccccccccccsssssssssssssssccccccccccc" />
  </g>
</svg>
