<?xml version="1.0" encoding="UTF-8" standalone="no"?>
<!-- Created with Inkscape (http://www.inkscape.org/) -->
<svg
   xmlns:dc="http://purl.org/dc/elements/1.1/"
   xmlns:cc="http://web.resource.org/cc/"
   xmlns:rdf="http://www.w3.org/1999/02/22-rdf-syntax-ns#"
   xmlns:svg="http://www.w3.org/2000/svg"
   xmlns="http://www.w3.org/2000/svg"
   xmlns:sodipodi="http://sodipodi.sourceforge.net/DTD/sodipodi-0.dtd"
   xmlns:inkscape="http://www.inkscape.org/namespaces/inkscape"
   sodipodi:docname="N46.svg"
   sodipodi:docbase="/home/rosmord/Travail/Gsigns/Ramessides/Fontes"
   inkscape:version="0.44"
   sodipodi:version="0.32"
   id="svg1290"
   height="1800.000000px"
   width="1800.000000px">
  <defs
     id="defs3" />
  <sodipodi:namedview
     inkscape:guide-bbox="true"
     showguides="true"
     inkscape:window-y="0"
     inkscape:window-x="0"
     inkscape:window-height="959"
     inkscape:window-width="1280"
     inkscape:current-layer="layer2"
     inkscape:document-units="px"
     inkscape:cy="766.53371"
     inkscape:cx="1537.5687"
     inkscape:zoom="0.251212"
     inkscape:pageshadow="2"
     inkscape:pageopacity="0.0"
     borderopacity="1.0"
     bordercolor="#666666"
     pagecolor="#ffffff"
     id="base" />
  <metadata
     id="metadata4">
    <rdf:RDF>
      <cc:Work
         rdf:about="">
        <dc:format>image/svg+xml</dc:format>
        <dc:type
           rdf:resource="http://purl.org/dc/dcmitype/StillImage" />
        <cc:license
           rdf:resource="http://creativecommons.org/licenses/by/2.0/" />
        <dc:subject>
          <rdf:Bag>
            <rdf:li>JSesh hieroglyph</rdf:li>
          </rdf:Bag>
        </dc:subject>
        <dc:creator>
          <cc:Agent>
            <dc:title>Serge Rosmorduc</dc:title>
          </cc:Agent>
        </dc:creator>
        <dc:description>Sign from a Sethy the Ist relief in the Louvre.
</dc:description>
      </cc:Work>
      <cc:License
         rdf:about="http://creativecommons.org/licenses/by/2.0/">
        <cc:permits
           rdf:resource="http://web.resource.org/cc/Reproduction" />
        <cc:permits
           rdf:resource="http://web.resource.org/cc/Distribution" />
        <cc:requires
           rdf:resource="http://web.resource.org/cc/Notice" />
        <cc:requires
           rdf:resource="http://web.resource.org/cc/Attribution" />
        <cc:permits
           rdf:resource="http://web.resource.org/cc/DerivativeWorks" />
        <cc:requires
           rdf:resource="http://web.resource.org/cc/ShareAlike" />
      </cc:License>
    </rdf:RDF>
  </metadata>
  <g
     id="layer1"
     inkscape:groupmode="layer"
     inkscape:label="Layer 1" />
  <g
     style="display:inline"
     inkscape:label="dessin"
     id="layer2"
     inkscape:groupmode="layer">
    <path
       style="color:black;fill:black;fill-opacity:1;fill-rule:evenodd;stroke:none;stroke-width:60;stroke-linecap:butt;stroke-linejoin:miter;marker:none;marker-start:none;marker-mid:none;marker-end:none;stroke-miterlimit:4;stroke-dashoffset:0;stroke-opacity:1;visibility:visible;display:inline;overflow:visible"
       d="M -9.09375 5.65625 C -9.0937498 170.72915 -9.09375 335.8021 -9.09375 500.875 C 56.762643 441.38789 122.61468 381.89595 188.46875 322.40625 C 418.88542 322.40626 649.30209 322.40625 879.71875 322.40625 C 872.65333 417.43587 876.64299 787.48074 875.96875 832.25 C 829.27971 811.68379 783.81979 785.8079 733.0625 777.0625 C 721.76196 775.58047 707.18775 779.4922 704 791.8125 C 701.03616 804.27447 711.06733 814.6521 720.125 821.625 C 744.16541 841.35679 773.69546 852.325 801.34375 865.9375 C 820.61303 874.68427 840.12021 882.93765 859.34375 891.71875 C 828.06059 935.57165 790.36636 976.28645 769.6875 1026.6562 C 765.89442 1037.2085 765.94899 1052.1701 777.15625 1058.1562 C 787.98472 1063.8773 800.25485 1057.6143 808.59375 1050.4062 C 834.7004 1030.6476 852.33582 1002.2982 872.59375 977.0625 C 885.55447 959.57949 898.0871 941.82095 911.28125 924.59375 C 943.04855 967.02265 970.78665 1013.8793 1010.3438 1049.4062 C 1019.1838 1056.6258 1032.2597 1063.7244 1043.4375 1057.4062 C 1053.373 1051.1616 1054.9691 1037.3663 1050.2188 1027.375 C 1040.0526 994.01216 1016.4371 967.1495 997.34375 938.5 C 985.17098 921.7113 972.76879 905.09105 960.625 888.28125 C 1009.1391 866.96893 1061.6319 851.9124 1104.125 819.1875 C 1112.7481 812.05617 1119.4725 798.4536 1112.1562 788.1875 C 1104.2288 776.91777 1088.5866 778.33285 1076.6875 780.40625 C 1044.4933 785.51503 1014.9898 800.1263 984.78125 811.6875 C 968.86022 818.3223 953.00584 825.14715 937.0625 831.71875 C 936.32286 785.54048 940.73254 431.73657 932.15625 322.40625 C 1163.3229 322.40625 1394.4896 322.40625 1625.6562 322.40625 C 1693.104 381.42716 1760.5494 440.45105 1828 499.46875 C 1828 334.86456 1828.0001 170.26045 1828 5.65625 C 1215.6355 5.6562501 603.27084 5.65625 -9.09375 5.65625 z M 50.90625 65.65625 C 623.27084 65.65625 1195.6355 65.65625 1768 65.65625 C 1768.0001 166.18745 1768.0001 266.7188 1768 367.25 C 1728.0618 332.30289 1688.1296 297.34885 1648.1875 262.40625 C 1153.927 262.40626 659.66667 262.40625 165.40625 262.40625 C 127.22466 296.85846 89.075242 331.3463 50.90625 365.8125 C 50.90625 265.7604 50.90625 165.70835 50.90625 65.65625 z "
       id="path4388" />
  </g>
</svg>
