<?xml version="1.0" encoding ="US-ASCII" standalone="yes"?>
<svg width="17.718384" height="13.2">
<path style="fill:#000000; stroke:none" d=" M 16.988337 8.642152  L 0.710314 8.642152  L 0.710314 11.779373  L 2.663677 10.595515  L 15.054708 10.595515  L 16.988337 11.779373  L 16.988337 8.642152  Z  M 8.306726 7.75426  Q 7.004484 7.635875 5.919282 6.619731  Q 4.834081 5.603588 4.834081 3.926457  Q 4.834081 2.328251 5.869955 1.164126  Q 6.905829 0 8.819729 0  Q 10.634976 0.019731 11.660988 1.243049  Q 12.686996 2.466367 12.706727 3.847534  Q 12.706727 5.287893 11.73991 6.461884  Q 10.773092 7.635875 9.352467 7.75426  L 17.718384 7.75426  L 17.718384 13.2  L 15.054708 11.483407  L 2.663677 11.483407  L 0 13.2  L 0 7.75426  L 8.306726 7.75426  Z  M 5.860089 3.886996  Q 5.860089 5.149775 6.718386 5.96861  Q 7.576682 6.787444 8.839459 6.787444  Q 10.08251 6.787444 10.871748 5.889687  Q 11.660988 4.991928 11.680717 3.847534  Q 11.601792 2.762332 10.881613 1.904036  Q 10.161436 1.04574 8.780268 1.026009  Q 7.438565 1.026009 6.649327 1.884305  Q 5.860089 2.742601 5.860089 3.886996  Z "/></svg>
