<?xml version="1.0" encoding ="US-ASCII" standalone="yes"?>
<svg width="16.385279" height="17.972717">
<path style="fill:#000000; stroke:none" d=" M 15.728409 0.821089  L 0.675117 0.821089  L 0.675117 3.704022  L 2.481512 2.609237  L 13.922013 2.609237  L 15.728409 3.704022  L 15.728409 0.821089  Z  M 2.481512 3.430326  L 0 5.017764  L 0 0  L 16.385279 0  L 16.385279 5.017764  L 13.922013 3.430326  L 2.481512 3.430326  Z  M 8.174394 3.448572  Q 7.590508 3.448572 7.590508 4.671082  Q 7.590508 5.911838 8.174394 5.911838  Q 8.740032 5.911838 8.740032 4.671082  Q 8.740032 3.448572 8.174394 3.448572  Z  M 3.795254 3.430326  Q 3.229615 3.430326 3.229615 4.671082  Q 3.229615 5.893591 3.795254 5.893591  Q 4.360893 5.893591 4.360893 4.671082  Q 4.360893 3.430326 3.795254 3.430326  Z  M 12.517039 3.430326  Q 11.933154 3.430326 11.933154 4.671082  Q 11.933154 5.893591 12.517039 5.893591  Q 13.082679 5.893591 13.082679 4.671082  Q 13.082679 3.430326 12.517039 3.430326  Z  M 3.795254 7.116101  Q 3.229615 7.116101 3.229615 8.338611  Q 3.229615 9.579367 3.795254 9.579367  Q 4.360893 9.579367 4.360893 8.338611  Q 4.360893 7.116101 3.795254 7.116101  Z  M 3.266108 13.830781  Q 2.627484 13.082679 2.627484 12.024386  Q 2.627484 10.966095 3.247862 10.163252  L 3.266108 10.163252  Q 2.627484 9.41515 2.627484 8.338611  Q 2.627484 7.280319 3.247862 6.477477  L 3.266108 6.477477  Q 2.627484 5.729374 2.627484 4.671082  Q 2.627484 3.61279 3.247862 2.791701  L 4.379139 2.791701  Q 4.963025 3.61279 4.963025 4.671082  Q 4.963025 5.729374 4.342647 6.477477  L 4.379139 6.477477  Q 4.963025 7.280319 4.963025 8.338611  Q 4.963025 9.41515 4.342647 10.145006  L 4.379139 10.163252  Q 4.963025 10.966095 4.963025 12.024386  Q 4.963025 13.082679 4.342647 13.830781  L 4.342647 13.830781  Q 4.141936 14.067985 4.762314 14.943812  Q 5.382692 15.81964 5.984824 17.972717  L 5.163735 17.972717  Q 4.78056 16.549498 4.470371 15.938242  Q 4.160182 15.326987 3.8135 14.925567  Q 3.448572 15.326987 3.147506 15.938242  Q 2.846441 16.549498 2.445019 17.972717  L 1.623931 17.972717  Q 2.262555 15.81964 2.87381 14.943812  Q 3.485065 14.067985 3.266108 13.830781  Z  M 3.8135 10.801877  Q 3.247862 10.801877 3.247862 12.024386  Q 3.247862 13.265142 3.8135 13.265142  Q 4.379139 13.265142 4.379139 12.024386  Q 4.379139 10.801877 3.8135 10.801877  Z  M 8.174394 7.116101  Q 7.590508 7.116101 7.590508 8.338611  Q 7.590508 9.579367 8.174394 9.579367  Q 8.740032 9.579367 8.740032 8.338611  Q 8.740032 7.116101 8.174394 7.116101  Z  M 7.627001 13.830781  Q 7.006623 13.082679 7.006623 12.024386  Q 7.006623 10.966095 7.608755 10.163252  L 7.627001 10.163252  Q 7.006623 9.41515 7.006623 8.338611  Q 7.006623 7.280319 7.608755 6.477477  L 7.627001 6.495723  Q 7.006623 5.729374 7.006623 4.671082  Q 7.006623 3.61279 7.608755 2.809948  L 8.740032 2.809948  Q 9.323917 3.61279 9.323917 4.671082  Q 9.323917 5.729374 8.703539 6.477477  L 8.740032 6.477477  Q 9.323917 7.280319 9.323917 8.338611  Q 9.323917 9.41515 8.703539 10.145006  L 8.740032 10.163252  Q 9.323917 10.966095 9.323917 12.024386  Q 9.323917 13.082679 8.703539 13.830781  Q 8.484582 14.067985 9.114083 14.943812  Q 9.743585 15.81964 10.345716 17.972717  L 9.524628 17.972717  Q 9.123207 16.549498 8.822141 15.938242  Q 8.521075 15.326987 8.174394 14.925567  Q 7.809465 15.326987 7.508399 15.938242  Q 7.207334 16.549498 6.805912 17.972717  L 5.984824 17.972717  Q 6.623448 15.81964 7.234703 14.943812  Q 7.845958 14.067985 7.627001 13.830781  Z  M 8.174394 10.801877  Q 7.590508 10.801877 7.590508 12.024386  Q 7.590508 13.265142 8.174394 13.265142  Q 8.740032 13.265142 8.740032 12.024386  Q 8.740032 10.801877 8.174394 10.801877  Z  M 12.517039 7.134347  Q 11.933154 7.134347 11.933154 8.356857  Q 11.933154 9.579367 12.517039 9.579367  Q 13.082679 9.579367 13.082679 8.356857  Q 13.082679 7.134347 12.517039 7.134347  Z  M 11.987894 13.849028  Q 11.349269 13.100924 11.349269 12.042633  Q 11.349269 10.984341 11.969647 10.163252  L 11.951401 10.163252  Q 11.331023 9.41515 11.331023 8.356857  Q 11.331023 7.298565 11.951401 6.477477  Q 11.349269 5.729374 11.349269 4.671082  Q 11.349269 3.61279 11.951401 2.791701  L 13.082679 2.791701  Q 13.666564 3.61279 13.666564 4.671082  Q 13.666564 5.729374 13.064432 6.477477  L 13.064432 6.477477  Q 13.666564 7.298565 13.666564 8.356857  Q 13.666564 9.41515 13.064432 10.163252  L 13.064432 10.163252  Q 13.666564 10.984341 13.666564 12.042633  Q 13.666564 13.100924 13.064432 13.849028  L 13.064432 13.849028  Q 12.845475 14.049738 13.474977 14.93469  Q 14.104478 15.81964 14.688363 17.954472  L 13.885521 17.954472  Q 13.484099 16.53125 13.183034 15.919995  Q 12.881968 15.308741 12.517039 14.925567  Q 12.152111 15.308741 11.851046 15.919995  Q 11.54998 16.53125 11.148559 17.954472  L 10.345716 17.954472  Q 10.984341 15.81964 11.586473 14.93469  Q 12.188604 14.049738 11.987894 13.849028  L 11.987894 13.849028  Z  M 12.517039 10.820124  Q 11.933154 10.820124 11.933154 12.042633  Q 11.933154 13.265142 12.517039 13.265142  Q 13.082679 13.265142 13.082679 12.042633  Q 13.082679 10.820124 12.517039 10.820124  Z "/></svg>
