<?xml version="1.0" encoding="UTF-8" standalone="no"?>
<!-- Created with Inkscape (http://www.inkscape.org/) -->
<svg
   xmlns:dc="http://purl.org/dc/elements/1.1/"
   xmlns:cc="http://creativecommons.org/ns#"
   xmlns:rdf="http://www.w3.org/1999/02/22-rdf-syntax-ns#"
   xmlns:svg="http://www.w3.org/2000/svg"
   xmlns="http://www.w3.org/2000/svg"
   xmlns:sodipodi="http://sodipodi.sourceforge.net/DTD/sodipodi-0.dtd"
   xmlns:inkscape="http://www.inkscape.org/namespaces/inkscape"
   width="1800"
   height="1800"
   id="svg2"
   sodipodi:version="0.32"
   inkscape:version="0.46"
   version="1.0"
   sodipodi:docname="N60A.svg"
   inkscape:output_extension="org.inkscape.output.svg.inkscape">
  <defs
     id="defs4">
    <inkscape:perspective
       sodipodi:type="inkscape:persp3d"
       inkscape:vp_x="0 : 526.18109 : 1"
       inkscape:vp_y="0 : 1000 : 0"
       inkscape:vp_z="744.09448 : 526.18109 : 1"
       inkscape:persp3d-origin="372.04724 : 350.78739 : 1"
       id="perspective10" />
    <inkscape:perspective
       id="perspective2671"
       inkscape:persp3d-origin="12.741887 : 5.9925276 : 1"
       inkscape:vp_z="25.483774 : 8.9887915 : 1"
       inkscape:vp_y="0 : 1000 : 0"
       inkscape:vp_x="0 : 8.9887915 : 1"
       sodipodi:type="inkscape:persp3d" />
  </defs>
  <sodipodi:namedview
     id="base"
     pagecolor="#ffffff"
     bordercolor="#666666"
     borderopacity="1.0"
     inkscape:pageopacity="0.0"
     inkscape:pageshadow="2"
     inkscape:zoom="0.1378282"
     inkscape:cx="901.67307"
     inkscape:cy="462.71979"
     inkscape:document-units="px"
     inkscape:current-layer="svg2"
     showgrid="false"
     inkscape:window-width="1280"
     inkscape:window-height="752"
     inkscape:window-x="0"
     inkscape:window-y="22" />
  <metadata
     id="metadata7">
    <rdf:RDF>
      <cc:Work
         rdf:about="">
        <dc:format>image/svg+xml</dc:format>
        <dc:type
           rdf:resource="http://purl.org/dc/dcmitype/StillImage" />
      </cc:Work>
    </rdf:RDF>
  </metadata>
  <g
     inkscape:label="Calque 1"
     inkscape:groupmode="layer"
     id="layer1">
    <path
       id="path2727"
       style="fill:#000000;stroke:none"
       d="M 1740.3223,253.66312 C 1742.7174,323.10268 1724.1594,378.17308 1684.6526,418.8801 C 1645.1427,459.58488 1594.2605,479.9363 1532.0069,479.9363 C 1472.1465,477.5431 1423.0605,453.59881 1384.748,408.10344 C 1346.4393,362.61002 1327.2828,312.32629 1327.2828,257.25605 C 1329.6782,194.99998 1348.8316,145.91375 1384.748,109.99735 C 1420.6645,74.080861 1469.7513,56.122674 1532.0069,56.122674 C 1599.052,56.122674 1650.5315,74.080861 1686.4476,109.99735 C 1722.364,145.91375 1740.3223,193.8024 1740.3223,253.66312 z M 1363.1992,472.75475 L 371.90625,472.75475 C 165.98501,472.75475 63.023571,336.27058 63.023571,63.30638 L 296.48102,63.30638 C 296.48102,221.33956 417.39966,300.35407 659.23818,300.35407 L 1266.2246,300.35407 C 1266.2246,343.45409 1298.5504,400.92189 1363.1992,472.75475 z M 1348.8316,63.30638 C 1293.7618,118.37866 1266.2246,177.0418 1266.2246,239.29775 L 659.23818,239.29775 C 460.49988,239.29775 361.13003,180.63254 361.13003,63.30638 L 1348.8316,63.30638 z M 1266.2246,537.40381 L 1266.2246,1805.2542 C 1625.3895,1805.2542 1804.9713,1679.5467 1804.9713,1428.1313 L 1804.9713,257.25605 C 1804.9713,183.02781 1781.6272,121.37172 1734.9338,72.285487 C 1688.2429,23.199253 1620.6008,-1.3427728 1532.0069,-1.3427728 L -1.6254139,-1.3427728 C -1.6254139,357.82167 132.46376,537.40381 400.63861,537.40381 L 1266.2246,537.40381 z M 1503.2743,537.40381 L 1503.2743,1144.3905 C 1503.2743,1343.1286 1444.6093,1442.4989 1327.2828,1442.4989 L 1327.2828,537.40381 L 1503.2743,537.40381 z M 1567.9233,537.40381 C 1620.6008,537.40381 1678.0658,507.47346 1740.3223,447.61274 L 1740.3223,1428.1313 C 1740.3223,1634.051 1602.6426,1738.2097 1327.2828,1740.6051 L 1327.2828,1507.148 C 1487.7095,1507.148 1567.9233,1386.2288 1567.9233,1144.3905 L 1567.9233,537.40381 z M 763.39404,763.6771 C 753.81761,768.46545 749.02898,774.45152 749.02898,781.63531 C 753.81761,786.42366 761.0014,789.4167 770.57783,790.61442 C 780.15509,791.81214 786.74072,788.8191 790.33136,781.63531 C 793.92451,774.45152 792.12668,769.06529 784.94541,765.47241 C 777.76162,761.88178 770.57783,761.28194 763.39404,763.6771 z M 863.96038,1209.0418 C 842.41069,1201.858 841.21353,1175.5186 860.3689,1130.0252 C 879.52511,1084.5298 907.05976,1033.6482 942.97702,977.38035 C 978.89345,921.11027 990.86504,869.63107 978.89345,822.93993 C 966.92103,776.24684 944.77234,746.31648 912.44823,733.14886 C 880.12243,719.97928 847.19932,720.57688 813.67805,734.94446 C 801.70562,722.97231 784.94541,719.97928 763.39404,725.96507 C 741.84519,731.95142 722.68898,738.53509 705.92904,745.71888 C 689.16798,752.90267 680.78703,764.87481 680.78703,781.63531 C 680.78703,805.5796 690.96414,821.14266 711.31471,828.32616 C 731.66808,835.50995 752.61961,836.70767 774.16846,831.91904 C 752.61961,860.65196 743.04319,916.32192 745.43582,998.92948 C 747.83098,1081.5368 749.02898,1150.3766 749.02898,1205.449 C 758.6054,1258.1262 809.48757,1282.67 901.6738,1279.0771 C 993.85835,1275.4865 1042.9441,1180.3069 1048.9307,993.54325 C 1054.9165,806.77731 1127.3475,678.67438 1266.2246,609.23667 L 1266.2246,540.99473 C 1086.6425,603.2506 995.05635,731.95142 991.46487,927.09663 C 987.87256,1122.2438 945.37218,1216.2237 863.96038,1209.0418 L 863.96038,1209.0418 z M 795.71983,763.6771 C 829.2411,758.88874 859.17174,760.68406 885.5109,769.06529 C 911.84839,777.44456 928.01129,800.19112 933.99792,837.30527 C 939.98371,874.41942 931.0046,910.93373 907.05976,946.85016 C 883.11575,982.76659 860.3689,1025.2689 838.82005,1074.353 C 817.26868,1123.4393 807.09242,1155.1652 808.28957,1169.5325 C 809.48757,1183.8998 805.89694,1191.6812 797.51515,1192.8789 C 789.1342,1194.0766 784.94541,1182.7021 784.94541,1158.7578 C 784.94541,1137.209 784.94541,1088.7206 784.94541,1013.2968 C 784.94541,937.87105 787.93872,889.98248 793.92451,869.63107 C 799.91031,849.27742 810.08489,836.10783 824.45247,830.12148 C 838.82005,824.13569 860.3689,821.14266 889.10154,821.14266 C 893.89017,821.14266 893.89017,809.17023 889.10154,785.22623 C 857.97374,778.04439 824.45247,782.83303 788.53604,799.59352 C 781.35225,801.98868 771.77583,803.18444 759.8034,803.18444 C 747.83098,803.18444 739.45003,794.80517 734.6614,778.04439 C 737.05655,766.07225 745.43582,758.88874 759.8034,756.49331 C 774.16846,754.10011 786.14089,756.49331 795.71983,763.6771 z" />
  </g>
</svg>
