<?xml version="1.0" encoding="UTF-8" standalone="no"?>
<svg
   width="1789.1118"
   height="1152.0352"
   version="1.1"
   id="svg2"
   sodipodi:docname="N6E.svg"
   inkscape:version="1.4 (e7c3feb1, 2024-10-09)"
   xmlns:inkscape="http://www.inkscape.org/namespaces/inkscape"
   xmlns:sodipodi="http://sodipodi.sourceforge.net/DTD/sodipodi-0.dtd"
   xmlns="http://www.w3.org/2000/svg"
   xmlns:svg="http://www.w3.org/2000/svg">
  <defs
     id="defs2" />
  <sodipodi:namedview
     id="namedview2"
     pagecolor="#ffffff"
     bordercolor="#000000"
     borderopacity="0.25"
     inkscape:showpageshadow="2"
     inkscape:pageopacity="0.0"
     inkscape:pagecheckerboard="0"
     inkscape:deskcolor="#d1d1d1"
     inkscape:zoom="0.24088026"
     inkscape:cx="1369.9753"
     inkscape:cy="797.07653"
     inkscape:window-width="2560"
     inkscape:window-height="1387"
     inkscape:window-x="1440"
     inkscape:window-y="25"
     inkscape:window-maximized="1"
     inkscape:current-layer="svg2" />
  <path
     id="path27"
     style="baseline-shift:baseline;display:inline;overflow:visible;vector-effect:none;enable-background:accumulate;stop-color:#000000;stop-opacity:1"
     d="M 153.44336,0 C 119.69648,0 85.422555,3.69209 50.621094,11.07421 22.14717,19.51093 5.2729485,41.13018 0,75.93164 0,105.46015 27.946586,124.44218 83.839844,132.8789 32.164945,186.66297 6.328125,243.61106 6.328125,303.72265 c 0,138.1513 5.272461,274.19408 15.81836,408.12695 9.863755,73.19948 32.701378,128.28602 68.376953,165.45122 -4.453729,37.75 -0.927923,75.7621 12.896482,113.4941 14.81151,40.42618 40.98454,70.70268 77,89.55268 H 83.175782 v 71.6875 H 481.40039 v -71.6875 H 384.1914 c 60.33491,-31.5084 79.50961,-87.47748 86.79085,-124.63228 14.29416,-72.9402 -6.02597,-127.0919 -18.78499,-152.0708 6.55307,-13.73373 12.46923,-28.44891 17.62305,-44.33984 21.09179,46.40194 52.72851,89.11304 94.91211,128.13284 93.85848,88.5856 206.17226,132.87888 336.9414,132.87888 146.58788,-1.0547 261.53888,-51.67528 344.85148,-151.86128 34.8015,-43.2382 59.058,-81.20234 72.7676,-113.89458 5.3368,16.8999 11.5189,32.47968 18.377,47.00388 -19.4119,36.7249 -34.459,99.5208 -16.596,167.0991 12.2935,46.50768 39.3386,88.36798 83.8816,111.68408 h -97.2441 v 71.6875 h 398.2266 v -71.6875 h -97.209 c 27.8722,-14.5549 57.1668,-39.8248 74.8027,-83.59178 17.6103,-43.7035 18.7103,-85.9478 15.1465,-117.7675 36.5693,-37.1741 59.8628,-92.88107 69.8691,-167.13872 10.5459,-133.93287 15.8203,-269.97565 15.8203,-408.12695 0,-60.11159 -25.8387,-117.05968 -77.5136,-170.84375 54.8386,-8.43672 82.2578,-27.41875 82.2578,-56.94726 -4.2183,-34.80146 -20.5633,-56.42071 -49.0371,-64.85743 C 1705.2731,3.69209 1670.9973,1e-5 1637.2505,0 c -32.6923,0 -79.0935,17.40166 -139.2051,52.20312 -60.1116,34.80146 -90.168,103.34932 -90.168,205.64453 0,94.9131 17.6654,174.53527 52.9942,238.86524 35.3286,64.32996 59.5831,117.32223 72.7656,158.97851 7.8858,24.91938 11.3351,45.21031 10.541,61.07227 -33.3011,-5.90543 -67.126,-2.93069 -99.8418,4.97461 -0.1557,0.0382 -0.3111,0.077 -0.4668,0.11523 -50.342,-30.13081 -75.5391,-88.81165 -75.5391,-176.10156 0,-111.78652 -41.1288,-216.98188 -123.3867,-315.58594 -82.2581,-98.6042 -196.6796,-148.43369 -343.26752,-149.48828 -152.91552,0 -271.03116,46.92859 -354.34375,140.78711 -83.3126,93.85844 -124.96875,201.42726 -124.96875,322.70508 0,110.67443 -49.90595,152.60532 -84.88477,175.91211 -30.00232,-7.30526 -60.51564,-7.90328 -90.96875,-3.61914 -0.73616,-15.81976 2.70953,-36.00348 10.54688,-60.76954 13.1824,-41.65628 37.43886,-94.6505 72.76758,-158.98046 C 365.15352,432.38292 382.8169,352.7627 382.8169,257.8496 382.8169,155.55439 352.76054,87.00458 292.64893,52.20312 232.53669,17.40126 186.13564,0 153.44336,0 Z m -41.12891,39.54882 c -14.764256,4.21836 -22.410169,13.7084 -22.937497,28.47266 -0.527262,14.76426 9.753914,23.72882 30.845697,26.89258 56.94785,0 104.93331,14.23703 143.95313,42.71094 l 4.74414,-4.7461 C 234.11846,99.13203 193.51718,82.25976 147.11523,82.25976 c 6.32755,-17.92803 4.74522,-31.11211 -4.74609,-39.54883 119.16864,34.80146 178.7539,106.51397 178.7539,215.13672 0,74.87585 -23.46525,157.92448 -70.39453,249.14649 -46.92921,91.22207 -70.39258,166.89034 -70.39258,227.00195 0,55.89328 21.61925,83.83983 64.85743,83.83983 36.80767,-1.0826 69.23668,-10.2177 97.43164,-27.13671 8.98246,3.93681 22.13912,10.10701 35.83789,24.01951 -27.66734,36.1583 -72.01244,54.6803 -133.26953,55.3184 -55.89326,0 -99.65919,-26.1005 -131.29688,-78.30275 C 82.258796,739.5322 66.439453,584.77103 66.439453,327.45117 c 0,-88.58556 37.966017,-155.02559 113.896477,-199.31836 l -20.56445,-20.56446 h -34.80273 c -39.019832,0 -62.746876,-14.23701 -71.183594,-42.71093 8.436718,-16.87344 27.946191,-25.3086 58.529294,-25.3086 z m 1566.06635,0 c 30.5831,0 50.0925,8.43516 58.5293,25.3086 -8.4368,28.47392 -32.1658,42.71093 -71.1855,42.71093 h -34.8008 l -20.5645,20.56446 c 75.9304,44.29277 113.8946,110.7328 113.8946,199.31836 0,257.31986 -15.8175,412.08103 -47.4551,464.2832 -31.6377,52.20225 -75.4036,78.30275 -131.2969,78.30275 -63.5584,0 -109.643,-16.76 -138.4941,-50.0508 10.846,-13.3039 25.4502,-22.65854 41.0586,-29.45508 29.7003,17.01858 62.145,26.21878 97.4355,27.30468 43.2382,0 64.8574,-27.94655 64.8574,-83.83983 0,-60.11161 -23.4653,-135.77988 -70.3945,-227.00195 -46.9293,-91.22201 -70.3945,-174.27064 -70.3945,-249.14649 0,-108.62275 59.5852,-180.33526 178.7539,-215.13672 -9.4914,8.43672 -11.0735,21.6208 -4.7461,39.54883 -46.4019,0 -87.0032,16.87227 -121.8047,50.61914 l 4.7461,4.7461 c 39.0198,-28.47393 87.0033,-42.71094 143.9512,-42.71094 21.0918,-3.16376 31.3729,-12.12832 30.8457,-26.89258 -0.5274,-14.76426 -8.1713,-24.2543 -22.9356,-28.47266 z M 120.22265,47.45703 c 9.49132,10.5459 9.49132,22.67315 0,36.38281 -8.43671,-12.65507 -8.43671,-24.78233 0,-36.38281 z m 1548.66595,0 c 8.4368,11.60048 8.4368,23.72774 0,36.38281 -8.4366,-13.70966 -8.4366,-25.83691 0,-36.38281 z M 904.83789,170.84374 c 121.27781,1.0546 213.29111,39.54807 276.03901,115.47852 62.7482,75.93051 94.1231,161.88004 94.1231,257.84766 0,105.45898 -33.4847,196.68091 -100.4512,273.666 -66.9663,76.985 -156.8699,115.4766 -269.71091,115.4766 -107.56816,0 -199.31758,-36.3837 -275.24805,-109.1504 -75.93046,-72.7668 -113.89453,-166.0965 -113.89453,-279.9922 0,-98.0768 34.53762,-184.81753 103.61328,-260.22071 69.07559,-75.40318 164.25147,-113.10545 285.5293,-113.10547 z m -7.90821,287.9043 c -54.83867,4.21863 -83.84014,32.16521 -87.0039,83.83985 4.21835,54.83867 33.21982,84.36563 87.0039,88.58398 53.78408,-4.21862 82.25811,-33.74558 85.42188,-88.58398 -4.21835,-51.6749 -32.69238,-79.62149 -85.42188,-83.83985 z m -485.63867,262.5918 c -0.99099,10.24029 -2.60059,19.82522 -4.59179,29.00781 -3.48407,-2.53223 -7.06016,-4.9354 -10.72071,-7.20508 5.35561,-6.80565 10.46206,-14.06825 15.3125,-21.80273 z m 960.20309,0 c 6.2535,8.19905 12.7162,15.80369 19.3359,22.95898 -5.1256,3.23152 -10.0525,6.76983 -14.7773,10.5625 -2.2496,-10.47324 -3.7989,-21.61918 -4.5586,-33.52148 z m 11.2461,147.74808 c 41.3302,43.7643 96.5708,65.8066 165.9258,65.8066 32.4541,0 61.3479,-4.9706 86.7968,-14.75 -4.1089,36.1861 -31.3437,119.27438 -128.0761,121.31248 -56.9963,0 -154.4697,-55.81088 -124.6465,-172.36908 z m -975.60544,1.2148 c 19.23364,72.829 -22.15904,163.15748 -118.47009,169.71878 -57.22594,3.8986 -117.5545,-27.3407 -134.00256,-112.67388 -0.30672,-1.9765 -0.6214,-4.1566 -0.88282,-6.2187 -0.0699,-0.5443 -0.13682,-1.1313 -0.20507,-1.7012 25.85707,10.2205 55.27693,15.4668 88.45507,15.4668 69.0007,0 123.97305,-21.6282 165.10547,-64.5918 z"
     sodipodi:nodetypes="scccsccsccccccscccccccsccccccsccscccssssscccsscssccssscscccccccsssccccssccsccccsccssscccssscccccsccccccccsssssssccccccccccccccsscsscccsccc" />
</svg>
