<?xml version="1.0" encoding="UTF-8" standalone="no"?>
<!-- Created with Inkscape (http://www.inkscape.org/) -->
<svg
   xmlns:dc="http://purl.org/dc/elements/1.1/"
   xmlns:cc="http://creativecommons.org/ns#"
   xmlns:rdf="http://www.w3.org/1999/02/22-rdf-syntax-ns#"
   xmlns:svg="http://www.w3.org/2000/svg"
   xmlns="http://www.w3.org/2000/svg"
   xmlns:sodipodi="http://sodipodi.sourceforge.net/DTD/sodipodi-0.dtd"
   xmlns:inkscape="http://www.inkscape.org/namespaces/inkscape"
   width="1800"
   height="1800"
   id="svg2451"
   sodipodi:version="0.32"
   inkscape:version="0.46"
   version="1.0"
   sodipodi:docname="NL15.svg"
   inkscape:output_extension="org.inkscape.output.svg.inkscape">
  <defs
     id="defs2453">
    <inkscape:perspective
       sodipodi:type="inkscape:persp3d"
       inkscape:vp_x="0 : 526.18109 : 1"
       inkscape:vp_y="0 : 1000 : 0"
       inkscape:vp_z="744.09448 : 526.18109 : 1"
       inkscape:persp3d-origin="372.04724 : 350.78739 : 1"
       id="perspective2459" />
  </defs>
  <sodipodi:namedview
     id="base"
     pagecolor="#ffffff"
     bordercolor="#666666"
     borderopacity="1.0"
     inkscape:pageopacity="0.0"
     inkscape:pageshadow="2"
     inkscape:zoom="0.27944444"
     inkscape:cx="899.99999"
     inkscape:cy="939.18942"
     inkscape:document-units="px"
     inkscape:current-layer="layer1"
     showgrid="true"
     inkscape:window-width="1024"
     inkscape:window-height="708"
     inkscape:window-x="-4"
     inkscape:window-y="-4">
    <inkscape:grid
       type="xygrid"
       id="grid2576"
       visible="true"
       enabled="true" />
  </sodipodi:namedview>
  <metadata
     id="metadata2456">
    <rdf:RDF>
      <cc:Work
         rdf:about="">
        <dc:format>image/svg+xml</dc:format>
        <dc:type
           rdf:resource="http://purl.org/dc/dcmitype/StillImage" />
      </cc:Work>
    </rdf:RDF>
  </metadata>
  <g
     inkscape:label="Calque 1"
     inkscape:groupmode="layer"
     id="layer1">
    <path
       style="fill:#000000;stroke:none"
       d="M 761.40625 0 C 715.12909 0.11840211 679.84547 25.566737 655.59375 76.34375 C 609.4373 92.772327 569.14057 118.77977 534.71875 154.375 C 500.29699 189.97023 483.09376 225.35839 483.09375 260.5625 C 490.13459 273.86179 499.14141 272.70873 510.09375 257.0625 C 560.16178 164.74957 634.08589 119.7468 731.875 122.09375 C 755.34441 122.09375 775.69541 126.42581 792.90625 135.03125 C 792.90625 145.98363 769.43877 171.78845 722.5 212.46875 C 675.56121 253.14901 652.09374 288.53722 652.09375 318.65625 C 652.09375 348.77529 674.3769 385.34777 718.96875 428.375 C 851.17964 548.8512 917.28122 638.8255 917.28125 698.28125 C 867.10102 820.25782 816.53584 891.56561 765.59375 912.21875 L 757.0625 912.21875 L 688.46875 903.625 C 676.19123 903.625 664.90728 906.51813 654.625 912.21875 L 305.125 912.21875 C 259.19232 765.36543 205.05595 691.93751 142.71875 691.9375 C 55.227936 691.9375 32.816976 765.36546 75.46875 912.21875 L 0 912.21875 L 0 985.625 L 57.40625 985.625 L 116.46875 1103.5 L 308.40625 1103.5 L 367.46875 985.625 L 497.0625 985.625 L 866.15625 1350.8438 L 866.15625 1403 L 0 1403 L 0 1472.5625 L 224.75 1472.5625 L 224.75 1567.8438 L 0 1567.8438 L 0 1639.3125 L 224.75 1639.3125 L 224.75 1734.5938 L 0 1734.5938 L 0 1806.0625 L 1802.8438 1806.0625 L 1802.8438 1734.5938 L 1578.125 1734.5938 L 1578.125 1639.3125 L 1802.8438 1639.3125 L 1802.8438 1567.8438 L 1578.125 1567.8438 L 1578.125 1472.5625 L 1802.8438 1472.5625 L 1802.8438 1403 L 935.0625 1403 L 935.0625 1370.1562 C 1043.3323 1370.1562 1086.5288 1334.7253 1064.6562 1263.875 C 1188.237 1227.8058 1216.1179 1169.187 1148.3125 1088.0312 L 1064.6562 985.625 L 1801.3125 985.625 L 1801.3125 912.21875 L 1236.25 912.21875 C 1225.0339 901.76609 1205.9362 894.21205 1178.9688 889.5625 C 1166.4518 877.04547 1161.5744 843.7921 1164.3125 789.8125 C 1167.0506 735.83291 1164.8845 702.98468 1157.8438 691.25 C 1136.7214 664.65138 1126.764 644.30037 1127.9375 630.21875 C 1129.1109 616.13711 1165.2783 611.83632 1236.4688 617.3125 C 1254.4619 617.3125 1275.3895 628.0801 1299.25 649.59375 C 1323.1105 671.10735 1349.3206 680.48812 1377.875 677.75 C 1406.4295 675.01192 1421.0926 668.34248 1421.875 657.78125 C 1422.6573 647.22004 1407.7914 623.95515 1377.2812 587.96875 L 1406.625 590.3125 C 1420.7066 589.53019 1425.0074 583.26591 1419.5312 571.53125 C 1397.6265 548.84414 1344.8325 510.1369 1261.125 455.375 C 1071.023 320.81717 896.93347 258.23725 738.90625 267.625 C 819.48446 183.91754 859.78127 126.01236 859.78125 93.9375 C 859.78125 61.862684 851.75616 38.597802 835.71875 24.125 C 819.68134 9.6522331 796.41644 1.6271415 765.90625 0.0625 C 764.39052 0.013604953 762.89906 -0.0038194228 761.40625 0 z M 756.40625 30.75 C 765.69545 30.851605 775.90774 32.37203 787.03125 35.28125 C 825.3646 61.879909 826.72021 80.438786 791.125 91 C 755.52977 101.56122 722.47903 99.021238 691.96875 83.375 C 701.74768 47.926449 723.23052 30.387126 756.40625 30.75 z M 753 42.3125 C 730.31293 43.877142 718.96874 49.736202 718.96875 59.90625 C 718.96875 70.076331 727.5704 75.156247 744.78125 75.15625 C 761.99213 75.15625 770.59375 70.481496 770.59375 61.09375 C 770.59375 51.705972 764.73471 45.441746 753 42.3125 z M 751.15625 303.3125 C 780.42881 303.17037 805.28763 330.18758 825.75 384.375 C 846.87247 440.31036 929.22683 484.90798 1072.7812 518.15625 C 1216.3356 551.40457 1317.8254 588.75614 1377.2812 630.21875 C 1377.2812 642.73574 1366.7162 645.85227 1345.5938 639.59375 C 1297.0903 609.08357 1258.757 593.84372 1230.5938 593.84375 C 1128.893 577.41518 1083.5163 592.65498 1094.4688 639.59375 C 1038.9245 581.70261 968.14824 536.73106 882.09375 504.65625 C 766.31148 430.3365 706.44284 373.61566 702.53125 334.5 C 702.53125 315.72451 717.80229 305.36203 748.3125 303.40625 C 749.26594 303.34513 750.21197 303.31708 751.15625 303.3125 z M 887.9375 318.0625 C 916.88311 318.0625 977.90471 339.80035 1071 383.21875 C 1164.0952 426.63712 1235.1054 463.58357 1284 494.09375 C 1332.8945 524.60396 1357.3438 544.17582 1357.3438 552.78125 C 1343.2622 555.9105 1288.6761 546.12458 1193.625 523.4375 C 1098.574 500.75043 1021.3308 474.94558 961.875 446 C 902.41922 417.05444 868.01277 388.47581 858.625 360.3125 C 849.23725 332.14924 858.99196 318.06249 887.9375 318.0625 z M 885.59375 543.375 C 905.93388 543.375 922.35803 575.4441 934.875 639.59375 C 896.54169 587.96111 880.11754 555.89201 885.59375 543.375 z M 960.59375 584.0625 C 971.76043 583.50899 992.54276 595.16529 1022.9062 619.0625 C 1065.1512 652.31082 1093.496 677.94433 1107.9688 695.9375 C 1122.4416 713.93072 1131.2457 754.39882 1134.375 817.375 C 1137.5043 880.35119 1111.2942 909.91156 1055.75 906 C 1038.5391 906 1021.3359 904.03655 1004.125 900.125 C 994.2003 900.125 987.13911 904.1544 982.9375 912.21875 L 924.21875 912.21875 C 915.69956 904.15603 899.71162 900.125 876.21875 900.125 L 860.96875 900.125 C 868.79185 863.35626 888.33251 820.8935 919.625 772.78125 C 950.91751 724.66899 966.56251 694.36074 966.5625 681.84375 C 951.69856 634.90496 946.82122 604.39414 951.90625 590.3125 C 953.33641 586.35204 956.22418 584.27909 960.59375 584.0625 z M 142.71875 753.75 C 180.99599 753.75 215.44069 806.58744 246.0625 912.21875 L 134.53125 912.21875 C 95.160381 806.58741 97.879706 753.75 142.71875 753.75 z M 116.46875 985.625 L 308.40625 985.625 L 280.53125 1041.6562 L 144.375 1041.6562 L 116.46875 985.625 z M 590.5625 985.625 L 866.15625 985.625 L 866.15625 1252.2812 L 590.5625 985.625 z M 971.15625 985.625 L 999.03125 985.625 L 1113.875 1124.75 C 1144.4967 1164.6839 1123.7111 1194.9515 1051.5312 1215.5625 L 971.15625 985.625 z M 935.0625 1026.2188 L 1015.4375 1260.0312 C 1028.561 1302.5414 1001.7743 1323.7813 935.0625 1323.7812 L 935.0625 1026.2188 z M 292 1472.5625 L 546.28125 1472.5625 L 546.28125 1567.8438 L 292 1567.8438 L 292 1472.5625 z M 611.875 1472.5625 L 866.15625 1472.5625 L 866.15625 1567.8438 L 611.875 1567.8438 L 611.875 1472.5625 z M 935.0625 1472.5625 L 1190.9688 1472.5625 L 1190.9688 1567.8438 L 935.0625 1567.8438 L 935.0625 1472.5625 z M 1256.5938 1472.5625 L 1510.8438 1472.5625 L 1510.8438 1567.8438 L 1256.5938 1567.8438 L 1256.5938 1472.5625 z M 292 1639.3125 L 546.28125 1639.3125 L 546.28125 1734.5938 L 292 1734.5938 L 292 1639.3125 z M 611.875 1639.3125 L 866.15625 1639.3125 L 866.15625 1734.5938 L 611.875 1734.5938 L 611.875 1639.3125 z M 935.0625 1639.3125 L 1190.9688 1639.3125 L 1190.9688 1734.5938 L 935.0625 1734.5938 L 935.0625 1639.3125 z M 1256.5938 1639.3125 L 1510.8438 1639.3125 L 1510.8438 1734.5938 L 1256.5938 1734.5938 L 1256.5938 1639.3125 z "
       id="path2442" />
  </g>
</svg>
