<?xml version="1.0" encoding="UTF-8" standalone="no"?>
<svg
   xmlns:dc="http://purl.org/dc/elements/1.1/"
   xmlns:cc="http://creativecommons.org/ns#"
   xmlns:rdf="http://www.w3.org/1999/02/22-rdf-syntax-ns#"
   xmlns:svg="http://www.w3.org/2000/svg"
   xmlns="http://www.w3.org/2000/svg"
   xmlns:sodipodi="http://sodipodi.sourceforge.net/DTD/sodipodi-0.dtd"
   xmlns:inkscape="http://www.inkscape.org/namespaces/inkscape"
   width="17.963882"
   height="17.977583"
   id="svg3091"
   sodipodi:version="0.32"
   inkscape:version="0.46"
   sodipodi:docname="NL17.svg"
   inkscape:output_extension="org.inkscape.output.svg.inkscape">
  <metadata
     id="metadata3098">
    <rdf:RDF>
      <cc:Work
         rdf:about="">
        <dc:format>image/svg+xml</dc:format>
        <dc:type
           rdf:resource="http://purl.org/dc/dcmitype/StillImage" />
      </cc:Work>
    </rdf:RDF>
  </metadata>
  <defs
     id="defs3096">
    <inkscape:perspective
       sodipodi:type="inkscape:persp3d"
       inkscape:vp_x="0 : 8.9887915 : 1"
       inkscape:vp_y="0 : 1000 : 0"
       inkscape:vp_z="17.963882 : 8.9887915 : 1"
       inkscape:persp3d-origin="8.9819412 : 5.9925276 : 1"
       id="perspective3100" />
  </defs>
  <sodipodi:namedview
     inkscape:window-height="667"
     inkscape:window-width="640"
     inkscape:pageshadow="2"
     inkscape:pageopacity="0.0"
     guidetolerance="10.0"
     gridtolerance="10.0"
     objecttolerance="10.0"
     borderopacity="1.0"
     bordercolor="#666666"
     pagecolor="#ffffff"
     id="base"
     showgrid="false"
     inkscape:zoom="25.698672"
     inkscape:cx="8.9819412"
     inkscape:cy="8.9887915"
     inkscape:window-x="22"
     inkscape:window-y="29"
     inkscape:current-layer="svg3091" />
  <path
     style="fill:#000000; stroke:none"
     d="M 3.315897,0 C 2.880848,0.006136 2.665706,0.426328 2.894598,0.864394 C 3.420745,1.58806 4.046353,1.957349 4.848055,1.957349 C 4.898367,1.957349 4.949372,1.955894 5.001091,1.952982 L 16.945667,1.952982 L 16.945667,1.014479 L 5.444808,1.014479 C 4.712999,0.980725 4.442163,0.898476 3.994085,0.513467 C 3.715871,0.274414 3.522873,0.028129 3.315897,0 z M 6.982409,2.855364 C 7.426239,3.049824 7.748796,3.091079 8.082206,3.091079 C 8.265902,3.091079 8.453021,3.078655 8.665422,3.072085 C 9.103324,3.044271 9.546591,2.993929 9.987858,2.993929 C 10.298043,2.993929 10.607238,3.108182 10.91266,3.182937 C 11.650291,3.312473 12.368137,3.650703 12.934768,4.071618 C 13.301845,4.301294 13.745576,4.372101 14.191502,4.372101 C 14.360371,4.372101 14.529557,4.362106 14.695004,4.346568 C 14.756597,4.34778 14.817494,4.348436 14.878097,4.348436 C 15.304087,4.348436 15.708226,4.316617 16.127047,4.229488 L 16.127047,4.229488 L 16.113968,5.275729 C 15.631714,5.147886 15.179774,5.084229 14.710574,5.084229 C 14.248202,5.084229 13.76914,5.145821 13.2284,5.268256 C 11.984253,5.310386 10.739363,5.342987 9.494319,5.342987 C 8.932015,5.342987 8.369524,5.336327 7.807256,5.320879 C 7.707317,5.322348 7.608444,5.32337 7.51051,5.32337 C 6.501295,5.32337 5.589832,5.242039 4.594115,5.011989 C 4.109591,4.985087 3.768272,4.507524 4.267788,4.28616 C 4.608122,4.135338 4.933966,4.103379 5.268256,4.103379 C 5.515814,4.103379 5.768065,4.120816 6.034253,4.120816 C 6.089382,4.120816 6.145053,4.120147 6.201465,4.118325 C 8.004538,4.147753 9.80999,4.329542 11.593961,4.52966 C 11.846062,4.53697 12.018147,4.541804 12.140746,4.541804 C 12.502138,4.541804 12.433739,4.499138 12.717113,4.350305 C 11.89165,3.841269 11.214183,3.349596 10.15756,3.291609 C 9.870614,3.266092 9.632034,3.257668 9.406509,3.257668 C 9.013028,3.257668 8.659576,3.28369 8.160363,3.291297 C 7.809312,3.255812 7.110677,3.203796 6.982409,2.855364 z M 6.789352,2.506929 L 6.789352,2.506929 C 6.381052,2.698989 6.781981,3.315245 7.125643,3.427994 C 7.433739,3.521168 7.707734,3.567181 8.119572,3.567181 C 8.237594,3.567181 8.366922,3.563531 8.5116,3.555971 C 8.720506,3.540952 8.925535,3.533241 9.1272,3.533241 C 10.082489,3.533241 10.965065,3.796529 11.855521,4.199285 C 11.836659,4.199484 11.817809,4.199596 11.799161,4.199596 C 10.999305,4.199596 10.391168,4.019692 9.5868,3.965749 C 8.299138,3.846509 7.001896,3.753387 5.705434,3.753387 C 5.383465,3.753387 5.061546,3.759238 4.739842,3.771758 C 4.722521,3.771435 4.705473,3.771136 4.688464,3.771136 C 4.016122,3.771136 3.589772,4.023313 3.604547,4.498522 C 3.624674,5.157238 4.079391,5.378249 4.553013,5.436713 C 5.332086,5.599001 6.123431,5.633817 6.920754,5.633817 C 7.234534,5.633817 7.549345,5.628355 7.864551,5.62323 C 8.435617,5.637844 9.007094,5.644404 9.578703,5.644404 C 10.821478,5.644404 12.064451,5.612824 13.303443,5.561576 C 13.595743,5.471756 13.899165,5.447923 14.205514,5.447923 C 14.553985,5.447923 14.906425,5.478749 15.251442,5.478749 C 15.256688,5.478749 15.261964,5.478764 15.267228,5.478764 C 15.269859,5.478764 15.272488,5.47876 15.275107,5.478749 C 15.660898,5.552876 16.146694,5.626898 16.532465,5.701075 L 16.514091,3.821891 C 15.956702,3.944621 15.298531,4.048887 14.712441,4.048887 C 14.686385,4.048887 14.660357,4.048684 14.634597,4.048265 C 14.485574,4.058923 14.347819,4.064456 14.219214,4.064456 C 14.219213,4.064456 14.219213,4.064456 14.219213,4.064456 C 13.701406,4.064456 13.335581,3.973693 13.013236,3.758058 C 12.261961,3.109962 11.289824,2.754852 10.328197,2.670404 C 9.671294,2.677449 9.014536,2.788417 8.359024,2.788417 C 8.072475,2.788417 7.786092,2.767201 7.500235,2.706835 C 7.227985,2.680556 7.046227,2.554827 6.789352,2.506929 z M 14.561733,5.8577 C 14.75265,5.8577 14.947313,5.899343 15.145573,5.982564 L 14.580105,6.555505 L 14.000002,5.982564 C 14.183576,5.899343 14.370817,5.8577 14.561733,5.8577 z M 13.324617,6.606883 L 13.897246,7.179513 L 13.324617,7.752142 C 13.158176,7.355622 13.158176,6.974031 13.324617,6.606883 z M 15.799163,6.636152 C 15.965602,7.032672 15.965602,7.414576 15.799163,7.781723 L 15.226221,7.208782 L 15.799163,6.636152 z M 5.820645,6.797136 C 6.712688,6.797136 7.277299,7.247445 7.514247,8.148218 L 4.127044,8.148218 C 4.350054,7.247445 4.914666,6.797136 5.820645,6.797136 z M 15.351085,6.151644 C 15.468571,6.205492 15.561548,6.298468 15.630082,6.430641 L 14.851941,7.216255 L 15.622921,7.987235 C 15.559281,8.114512 15.463729,8.207488 15.33645,8.266232 L 14.56547,7.495253 L 13.809126,8.251597 C 13.681848,8.173273 13.588872,8.077719 13.530128,7.965127 L 14.286473,7.216255 L 13.493385,6.423168 C 13.547234,6.295889 13.642788,6.205492 13.779857,6.151644 L 14.56547,6.937258 L 15.351085,6.151644 z M 5.820645,6.435623 C 4.524398,6.435623 3.792667,7.133473 3.625409,8.529037 L 8.015882,8.529037 C 7.848624,7.133473 7.116894,6.435623 5.820645,6.435623 z M 14.580105,7.855209 L 15.153047,8.427839 C 14.967024,8.511059 14.778538,8.552669 14.587605,8.552669 C 14.396668,8.552669 14.203288,8.511059 14.007476,8.427839 L 14.580105,7.855209 z M 14.56547,5.615445 C 14.061253,5.615445 13.663528,5.779442 13.372258,6.107428 C 13.080988,6.435413 12.935391,6.795361 12.935391,7.186985 C 12.935392,7.627563 13.10552,8.003022 13.445745,8.313873 C 13.785969,8.624725 14.154315,8.782589 14.550835,8.787484 C 15.030576,8.782589 15.420879,8.617615 15.72194,8.292076 C 16.023003,7.966539 16.173441,7.598191 16.173441,7.186985 L 16.173441,7.186985 L 16.166281,7.201621 C 16.171173,6.829577 16.023003,6.472208 15.72194,6.129536 C 15.42088,5.786865 15.035419,5.615445 14.56547,5.615445 z M 1.422077,7.492139 C 1.803479,7.492139 2.146693,8.018621 2.451814,9.071153 L 1.340495,9.071153 C 0.948196,8.018621 0.975292,7.492139 1.422077,7.492139 z M 3.07302,9.802587 L 2.795267,10.360892 L 1.43858,10.360892 L 1.160517,9.802587 L 3.07302,9.802587 z M 9.95454,9.802587 L 11.098866,11.188854 C 11.403986,11.586763 11.196874,11.888356 10.47766,12.093728 L 9.676788,9.802587 L 9.95454,9.802587 z M 8.630548,9.802587 L 8.630548,12.459601 L 5.884479,9.802587 L 8.630548,9.802587 z M 9.317143,10.207069 L 10.118015,12.536823 C 10.24878,12.960402 9.981873,13.17204 9.317143,13.17204 L 9.317143,10.207069 z M 5.443252,14.654526 L 5.443252,15.603926 L 2.909544,15.603926 L 2.909544,14.654526 L 5.443252,14.654526 z M 8.630548,14.654526 L 8.630548,15.603926 L 6.096841,15.603926 L 6.096841,14.654526 L 8.630548,14.654526 z M 11.867042,14.654526 L 11.867042,15.603926 L 9.317143,15.603926 L 9.317143,14.654526 L 11.867042,14.654526 z M 15.054338,14.654526 L 15.054338,15.603926 L 12.520942,15.603926 L 12.520942,14.654526 L 15.054338,14.654526 z M 5.443252,16.316053 L 5.443252,17.265455 L 2.909544,17.265455 L 2.909544,16.316053 L 5.443252,16.316053 z M 8.630548,16.316053 L 8.630548,17.265455 L 6.096841,17.265455 L 6.096841,16.316053 L 8.630548,16.316053 z M 11.867042,16.316053 L 11.867042,17.265455 L 9.317143,17.265455 L 9.317143,16.316053 L 11.867042,16.316053 z M 15.054338,16.316053 L 15.054338,17.265455 L 12.520942,17.265455 L 12.520942,16.316053 L 15.054338,16.316053 z M 1.422077,6.876227 C 0.550302,6.876227 0.326995,7.607878 0.751985,9.071153 L 0,9.071153 L 0,9.802587 L 0.572007,9.802587 L 1.160517,10.977116 L 3.07302,10.977116 L 3.661529,9.802587 L 4.952826,9.802587 L 8.630548,13.441696 L 8.630548,13.961391 L 0,13.961391 L 0,14.654526 L 2.239452,14.654526 L 2.239452,15.603926 L 0,15.603926 L 0,16.316053 L 2.239452,16.316053 L 2.239452,17.265455 L 0,17.265455 L 0,17.977583 L 17.963882,17.977583 L 17.963882,17.265455 L 15.724742,17.265455 L 15.724742,16.316053 L 17.963882,16.316053 L 17.963882,15.603926 L 15.724742,15.603926 L 15.724742,14.654526 L 17.963882,14.654526 L 17.963882,13.961391 L 9.317143,13.961391 L 9.317143,13.63413 C 10.395965,13.63413 10.826383,13.281089 10.60844,12.575123 C 11.839824,12.215722 12.117634,11.631633 11.442007,10.822982 L 10.60844,9.802587 L 17.948626,9.802587 L 17.948626,9.071153 L 3.040324,9.071153 C 2.582642,7.607877 2.043217,6.876227 1.422077,6.876227 z"
     id="path3093"
     sodipodi:nodetypes="ccsccccsccsssccssscccscssscsssscsccsccccsssssscsssscssscssssccssccccsscccccccccccccccccccccccccccccccccccccscccssssscccsccccccccccccccccccccccccccccccccccccccccccccccccccccccccccccccccccccccccccccccccccccccccccccccccccccccc" />
</svg>
