<?xml version="1.0" encoding="UTF-8" standalone="no"?>
<!-- Created with Inkscape (http://www.inkscape.org/) -->
<svg
   xmlns:dc="http://purl.org/dc/elements/1.1/"
   xmlns:cc="http://creativecommons.org/ns#"
   xmlns:rdf="http://www.w3.org/1999/02/22-rdf-syntax-ns#"
   xmlns:svg="http://www.w3.org/2000/svg"
   xmlns="http://www.w3.org/2000/svg"
   xmlns:sodipodi="http://sodipodi.sourceforge.net/DTD/sodipodi-0.dtd"
   xmlns:inkscape="http://www.inkscape.org/namespaces/inkscape"
   width="1800"
   height="1800"
   id="svg2451"
   sodipodi:version="0.32"
   inkscape:version="0.46"
   version="1.0"
   sodipodi:docname="NL2.svg"
   inkscape:output_extension="org.inkscape.output.svg.inkscape">
  <defs
     id="defs2453">
    <inkscape:perspective
       sodipodi:type="inkscape:persp3d"
       inkscape:vp_x="0 : 526.18109 : 1"
       inkscape:vp_y="0 : 1000 : 0"
       inkscape:vp_z="744.09448 : 526.18109 : 1"
       inkscape:persp3d-origin="372.04724 : 350.78739 : 1"
       id="perspective2459" />
  </defs>
  <sodipodi:namedview
     id="base"
     pagecolor="#ffffff"
     bordercolor="#666666"
     borderopacity="1.0"
     inkscape:pageopacity="0.0"
     inkscape:pageshadow="2"
     inkscape:zoom="0.27944444"
     inkscape:cx="899.99999"
     inkscape:cy="939.18942"
     inkscape:document-units="px"
     inkscape:current-layer="layer1"
     showgrid="true"
     inkscape:window-width="1024"
     inkscape:window-height="708"
     inkscape:window-x="0"
     inkscape:window-y="26">
    <inkscape:grid
       type="xygrid"
       id="grid2576"
       visible="true"
       enabled="true" />
  </sodipodi:namedview>
  <metadata
     id="metadata2456">
    <rdf:RDF>
      <cc:Work
         rdf:about="">
        <dc:format>image/svg+xml</dc:format>
        <dc:type
           rdf:resource="http://purl.org/dc/dcmitype/StillImage" />
      </cc:Work>
    </rdf:RDF>
  </metadata>
  <g
     inkscape:label="Calque 1"
     inkscape:groupmode="layer"
     id="layer1">
    <path
       style="fill:#000000;stroke:none"
       d="M 1495.9688 -0.125 C 1491.8352 -0.125 1487.6511 0.214377 1483.4375 0.90625 L 1478.4062 1.75 L 1473.9375 3.875 C 1340.5806 66.504399 1160.2712 84.94295 1010.0625 90.15625 C 954.5143 90.84861 898.96164 91.875 843.40625 91.875 C 817.9299 91.874998 792.4432 91.65565 766.96875 91.09375 C 747.3922 92.237221 727.32994 90.00539 708.09375 94.53125 C 702.71378 94.920433 697.21904 96.16043 691.75 98.21875 C 685.93341 100.40863 679.85664 103.61611 673.53125 107.78125 C 663.51917 114.37417 652.15899 123.86892 639.75 135.71875 C 553.7557 230.78448 471.33116 328.46663 401.46875 434.625 L 400.28125 436.3125 L 399.375 438.09375 C 397.34013 442.07811 395.0184 443.125 392.90625 443.125 C 390.69485 443.12501 388.72286 441.99212 387.53125 441.84375 C 380.06327 440.92014 373.43351 438.51048 369.875 437 C 351.10733 427.48623 331.59866 423.15625 312.71875 423.15625 C 203.20296 423.15625 114.20382 568.49186 305.59375 688.46875 C 305.95341 689.35068 306.32784 690.24306 306.6875 691.125 C 348.72848 729.10177 392.94733 740.83512 439.375 750.5625 C 456.52383 750.56251 473.89627 747.49423 490.96875 740.65625 L 493.34375 739.6875 L 495.53125 738.4375 C 682.33031 630.1004 867.31373 568.28125 1054.7188 568.28125 C 1212.7702 568.28125 1372.5322 612.23064 1536.5312 709.3125 L 1550.7812 717.75 L 1566.625 712.40625 C 1572.2023 710.53573 1577.4939 707.80237 1582.4375 704.25 L 1582.7812 704.25 L 1582.7812 704 C 1642.2699 585.53946 1655.6688 469.20759 1640 335.9375 C 1634.4207 252.53115 1621.5423 170.78773 1601.3125 110.71875 C 1590.3729 78.237922 1576.9713 51.417227 1561.1875 32.875 C 1550.6693 20.517698 1538.4826 11.312001 1525.2812 5.8125 L 1524.9375 3.65625 L 1521.0625 4.1875 C 1512.9959 1.3530528 1504.5883 -0.125 1495.9688 -0.125 z M 1484.3438 68.8125 C 1492.0389 157.68013 1388.4515 260.87431 1356.5938 342.8125 C 1423.8684 425.50176 1486.7839 526.34687 1532.125 633.25 C 1371.0922 545.80558 1212.4653 505.75 1055.2188 505.75 C 855.90083 505.75 658.76045 570.13202 461.625 684.0625 C 453.96545 686.84332 446.52564 688.03125 439.25 688.03125 C 430.13164 688.03123 421.30903 686.17826 412.75 683.28125 C 394.21847 671.21701 371.02865 661.28594 344.875 644.21875 C 235.53816 592.77136 225.24843 486.25 314.71875 486.25 C 335.07156 486.24999 360.56087 491.76089 391.25 504.6875 C 418.29419 504.6875 445.06708 493.77297 459.875 466.78125 C 530.92235 367.63594 601.74682 267.29034 688.75 179.15625 C 694.36369 166.75567 733.03937 154.49053 767.03125 153.6875 C 809.95271 154.02569 852.88364 154.5625 895.8125 154.5625 C 934.77369 154.56249 973.71735 154.13407 1012.6562 152.71875 C 1165.1456 147.42074 1344.7743 128.32052 1484.3438 68.8125 z M 1535.375 126.59375 C 1535.6796 127.47688 1535.9794 128.35364 1536.2812 129.25 C 1554.8999 184.53837 1566.817 261.37046 1572.0625 339.78125 C 1576.6741 408.71743 1576.1236 504.60031 1570.4062 562.75 C 1558.4509 516.52003 1474.1957 400.3091 1439.2188 334.09375 C 1452.1748 290.50656 1534.1464 196.05246 1535.375 126.59375 z M 367.125 435.6875 C 367.14892 435.68749 367.35616 435.80175 367.8125 436.03125 L 367.8125 436.0625 C 367.33805 435.83231 367.0974 435.6875 367.125 435.6875 z M 142.71875 691.9375 C 55.227936 691.9375 32.816976 765.36546 75.46875 912.21875 L 0 912.21875 L 0 985.625 L 57.40625 985.625 L 116.46875 1103.5 L 308.40625 1103.5 L 367.46875 985.625 L 497.0625 985.625 L 866.15625 1350.8438 L 866.15625 1403 L 0 1403 L 0 1472.5625 L 224.75 1472.5625 L 224.75 1567.8438 L 0 1567.8438 L 0 1639.3125 L 224.75 1639.3125 L 224.75 1734.5938 L 0 1734.5938 L 0 1806.0625 L 1802.8438 1806.0625 L 1802.8438 1734.5938 L 1578.125 1734.5938 L 1578.125 1639.3125 L 1802.8438 1639.3125 L 1802.8438 1567.8438 L 1578.125 1567.8438 L 1578.125 1472.5625 L 1802.8438 1472.5625 L 1802.8438 1403 L 935.0625 1403 L 935.0625 1370.1562 C 1043.3323 1370.1562 1086.5288 1334.7253 1064.6562 1263.875 C 1188.237 1227.8058 1216.1179 1169.187 1148.3125 1088.0312 L 1064.6562 985.625 L 1801.3125 985.625 L 1801.3125 912.21875 L 305.125 912.21875 C 259.19232 765.36543 205.05595 691.93751 142.71875 691.9375 z M 142.71875 753.75 C 180.99599 753.75 215.44069 806.58744 246.0625 912.21875 L 134.53125 912.21875 C 95.160381 806.58741 97.879706 753.75 142.71875 753.75 z M 116.46875 985.625 L 308.40625 985.625 L 280.53125 1041.6562 L 144.375 1041.6562 L 116.46875 985.625 z M 590.5625 985.625 L 866.15625 985.625 L 866.15625 1252.2812 L 590.5625 985.625 z M 971.15625 985.625 L 999.03125 985.625 L 1113.875 1124.75 C 1144.4967 1164.6839 1123.7111 1194.9515 1051.5312 1215.5625 L 971.15625 985.625 z M 935.0625 1026.2188 L 1015.4375 1260.0312 C 1028.561 1302.5414 1001.7743 1323.7813 935.0625 1323.7812 L 935.0625 1026.2188 z M 292 1472.5625 L 546.28125 1472.5625 L 546.28125 1567.8438 L 292 1567.8438 L 292 1472.5625 z M 611.875 1472.5625 L 866.15625 1472.5625 L 866.15625 1567.8438 L 611.875 1567.8438 L 611.875 1472.5625 z M 935.0625 1472.5625 L 1190.9688 1472.5625 L 1190.9688 1567.8438 L 935.0625 1567.8438 L 935.0625 1472.5625 z M 1256.5938 1472.5625 L 1510.8438 1472.5625 L 1510.8438 1567.8438 L 1256.5938 1567.8438 L 1256.5938 1472.5625 z M 292 1639.3125 L 546.28125 1639.3125 L 546.28125 1734.5938 L 292 1734.5938 L 292 1639.3125 z M 611.875 1639.3125 L 866.15625 1639.3125 L 866.15625 1734.5938 L 611.875 1734.5938 L 611.875 1639.3125 z M 935.0625 1639.3125 L 1190.9688 1639.3125 L 1190.9688 1734.5938 L 935.0625 1734.5938 L 935.0625 1639.3125 z M 1256.5938 1639.3125 L 1510.8438 1639.3125 L 1510.8438 1734.5938 L 1256.5938 1734.5938 L 1256.5938 1639.3125 z "
       id="path2442" />
  </g>
</svg>
