<?xml version="1.0" encoding="UTF-8" standalone="no"?>
<!-- Created with Inkscape (http://www.inkscape.org/) -->
<svg
   xmlns:dc="http://purl.org/dc/elements/1.1/"
   xmlns:cc="http://creativecommons.org/ns#"
   xmlns:rdf="http://www.w3.org/1999/02/22-rdf-syntax-ns#"
   xmlns:svg="http://www.w3.org/2000/svg"
   xmlns="http://www.w3.org/2000/svg"
   xmlns:sodipodi="http://sodipodi.sourceforge.net/DTD/sodipodi-0.dtd"
   xmlns:inkscape="http://www.inkscape.org/namespaces/inkscape"
   width="1802.8578"
   height="1806.3315"
   id="svg2451"
   sodipodi:version="0.32"
   inkscape:version="0.46"
   version="1.0"
   sodipodi:docname="NL5.svg"
   inkscape:output_extension="org.inkscape.output.svg.inkscape">
  <defs
     id="defs2453">
    <inkscape:perspective
       sodipodi:type="inkscape:persp3d"
       inkscape:vp_x="0 : 526.18109 : 1"
       inkscape:vp_y="0 : 1000 : 0"
       inkscape:vp_z="744.09448 : 526.18109 : 1"
       inkscape:persp3d-origin="372.04724 : 350.78739 : 1"
       id="perspective2459" />
  </defs>
  <sodipodi:namedview
     id="base"
     pagecolor="#ffffff"
     bordercolor="#666666"
     borderopacity="1.0"
     inkscape:pageopacity="0.0"
     inkscape:pageshadow="2"
     inkscape:zoom="0.27944444"
     inkscape:cx="899.99999"
     inkscape:cy="893.94152"
     inkscape:document-units="px"
     inkscape:current-layer="layer1"
     showgrid="true"
     inkscape:window-width="1024"
     inkscape:window-height="708"
     inkscape:window-x="-4"
     inkscape:window-y="-4"
     showborder="true" />
  <metadata
     id="metadata2456">
    <rdf:RDF>
      <cc:Work
         rdf:about="">
        <dc:format>image/svg+xml</dc:format>
        <dc:type
           rdf:resource="http://purl.org/dc/dcmitype/StillImage" />
      </cc:Work>
    </rdf:RDF>
  </metadata>
  <g
     inkscape:label="Calque 1"
     inkscape:groupmode="layer"
     id="layer1"
     transform="translate(-7.9540755e-6,0.253987)">
    <g
       id="g3939">
      <path
         sodipodi:nodetypes="cccccccccccccccccccccccccccccccccccccccccccccscccccccccccccccccccccccccccccccccccccccccccccccsccccccccc"
         id="path2442"
         d="M 292.00062,1567.8293 L 546.27082,1567.8293 L 546.27082,1472.5698 L 292.00062,1472.5698 L 292.00062,1567.8293 z M 611.88893,1472.5698 L 611.88893,1567.8293 L 866.15913,1567.8293 L 866.15913,1472.5698 L 611.88893,1472.5698 z M 292.00062,1639.3236 L 292.00062,1734.5833 L 546.27082,1734.5833 L 546.27082,1639.3236 L 292.00062,1639.3236 z M 611.88893,1639.3236 L 611.88893,1734.5833 L 866.15913,1734.5833 L 866.15913,1639.3236 L 611.88893,1639.3236 z M 935.05817,1639.3236 L 935.05817,1734.5833 L 1190.9688,1734.5833 L 1190.9688,1639.3236 L 935.05817,1639.3236 z M 1256.587,1639.3236 L 1256.587,1734.5833 L 1510.8572,1734.5833 L 1510.8572,1639.3236 L 1256.587,1639.3236 z M 935.05817,1472.5698 L 935.05817,1567.8293 L 1190.9688,1567.8293 L 1190.9688,1472.5698 L 935.05817,1472.5698 z M 1510.8572,1472.5698 L 1256.587,1472.5698 L 1256.587,1567.8293 L 1510.8572,1567.8293 L 1510.8572,1472.5698 z M 866.15913,985.63506 L 590.56304,985.63506 L 866.15913,1252.2898 L 866.15913,985.63506 z M 246.06794,912.2084 C 215.44614,806.57706 180.99664,753.76141 142.7194,753.76141 C 97.880362,753.76141 95.146261,806.57706 134.51713,912.2084 L 246.06794,912.2084 z M 308.40515,985.63506 L 116.47215,985.63506 L 144.35985,1041.6712 L 280.51744,1041.6712 L 308.40515,985.63506 z M 935.05817,1323.7841 C 1001.77,1323.7841 1028.5639,1302.529 1015.4404,1260.0188 L 935.05817,1026.213 L 935.05817,1323.7841 z M 1064.654,985.63506 L 1148.317,1088.0459 C 1216.1224,1169.2016 1188.2348,1227.8142 1064.654,1263.8834 C 1086.5266,1334.7337 1043.328,1370.1589 935.05817,1370.1589 L 935.05817,1403.0076 L 1802.8578,1403.0076 L 1802.8578,1472.5698 L 1578.1158,1472.5698 L 1578.1158,1567.8293 L 1802.8578,1567.8293 L 1802.8578,1639.3236 L 1578.1158,1639.3236 L 1578.1158,1734.5833 L 1802.8578,1734.5833 L 1802.8578,1806.0776 L 7.9540755e-06,1806.0776 L 7.9540755e-06,1734.5833 L 224.74205,1734.5833 L 224.74205,1639.3236 L 7.9540755e-06,1639.3236 L 7.9540755e-06,1567.8293 L 224.74205,1567.8293 L 224.74205,1472.5698 L 7.9540755e-06,1472.5698 L 7.9540755e-06,1403.0076 L 866.15913,1403.0076 L 866.15913,1350.836 L 497.05723,985.63506 L 367.46145,985.63506 L 367.46145,985.63506 L 308.40515,1103.5042 L 116.47215,1103.5042 L 57.415858,985.63506 L 7.9540755e-06,985.63506 L 7.9540755e-06,912.2084 L 75.460834,912.2084 C 32.809057,765.35508 55.228586,691.92842 142.7194,691.92842 C 205.05661,691.92842 259.19155,765.35508 305.12423,912.2084 L 1801.3201,912.2084 L 1801.3201,985.63506 L 1064.654,985.63506 z M 1051.5304,1215.5764 C 1123.7102,1194.9654 1144.4893,1164.6931 1113.8676,1124.7592 L 999.03585,985.63506 L 971.14811,985.63506 L 1051.5304,1215.5764 z"
         style="fill:#000000;stroke:none" />
      <g
         transform="matrix(56.68538,0,0,52.157622,1044.6578,-8.5304336)"
         id="g1494">
        <path
           style="fill:#000000;stroke:none"
           d="M 416.21875,-0.25 C 414.33186,-0.2003419 412.53781,0.30336851 410.84375,1.28125 C 401.80877,6.4966178 401.80876,16.630813 410.84375,31.625 C 419.2334,46.619151 419.23339,56.722133 410.84375,61.9375 C 401.80877,67.152871 393.10838,62.244187 384.71875,47.25 C 376.32912,31.603932 367.2741,26.726466 357.59375,32.59375 C 349.20414,37.15717 350.35162,50.83899 361,73.65625 C 371.64841,96.473464 375.20571,115.69769 371.65625,131.34375 C 368.10679,146.98985 373.75053,167.86065 388.59375,193.9375 C 403.43699,220.01428 419.89877,236.4673 437.96875,243.3125 C 455.29405,249.87554 468.1361,255.99215 476.5625,261.65625 C 447.6082,316.97105 433.12501,367.08471 433.125,412 L 433.125,608.5625 C 433.77038,650.28543 443.44087,691.36219 462.15625,731.78125 C 456.34806,743.51578 445.7073,763.40489 430.21875,791.4375 C 410.85807,792.08937 396.66001,800.22887 387.625,815.875 C 378.59001,832.173 379.2368,851.71407 389.5625,874.53125 C 382.4636,885.61395 380.84661,898.6621 384.71875,913.65625 C 398.91661,909.74469 409.23392,901.92213 415.6875,890.1875 C 440.21109,887.57982 456.99629,878.14178 466.03125,861.84375 C 475.71163,845.54577 475.71162,829.2355 466.03125,812.9375 L 488.28125,775.78125 C 529.58409,829.89066 580.58647,856.93753 641.25,856.9375 C 701.26815,856.93748 751.91594,830.2075 793.21875,776.75 L 793.21875,775.78125 C 796.4455,780.9966 803.56021,792.71496 814.53125,810.96875 C 804.85088,827.91863 804.85091,844.54573 814.53125,860.84375 C 823.56622,876.48983 840.32015,885.61109 864.84375,888.21875 C 871.29728,899.95327 881.64594,907.77597 895.84375,911.6875 C 899.71583,897.34521 898.42224,884.32831 891.96875,872.59375 C 901.64907,850.42843 901.97248,831.20426 892.9375,814.90625 C 883.90245,798.6082 870.02785,790.12062 851.3125,789.46875 C 835.8239,762.73998 825.50659,744.14949 820.34375,733.71875 C 839.05905,693.95157 848.40624,652.55801 848.40625,609.53125 L 848.40625,412 C 848.40621,367.01745 832.26783,316.81947 800,261.40625 L 800.96875,261.40625 C 809.35836,257.49469 823.08697,252.1264 842.125,245.28125 C 861.16298,238.43604 877.77085,221.98306 891.96875,195.90625 C 907.45724,169.82941 913.24714,148.95862 909.375,133.3125 C 905.50285,117.66643 908.91414,98.442219 919.5625,75.625 C 930.21085,52.807772 931.32716,39.094703 922.9375,34.53125 C 913.25714,28.663967 904.23341,33.572644 895.84375,49.21875 C 887.45409,64.212905 879.0459,68.773535 870.65625,62.90625 C 862.26656,58.342801 862.26659,48.556654 870.65625,33.5625 C 879.04587,18.568315 878.72248,8.1485345 869.6875,2.28125 C 860.65246,-2.2822013 849.0416,6.0313191 834.84375,27.21875 C 820.64589,48.406178 805.97836,61.10629 790.8125,65.34375 C 775.64656,69.581236 760.6244,84.735662 745.78125,110.8125 C 730.29264,135.58547 724.50286,155.7914 728.375,171.4375 C 698.68856,155.79139 669.64569,147.96874 641.25,147.96875 C 612.20892,147.96875 582.84266,155.7914 553.15625,171.4375 C 555.73765,155.79139 549.59324,134.9518 534.75,108.875 C 519.90678,82.798153 505.06196,67.643741 490.21875,63.40625 C 475.37555,59.168792 460.708,46.437431 446.1875,25.25 C 434.38958,8.0352109 424.39536,-0.46518517 416.21875,-0.25 z M 1360.625,0.15625 C 1323.2915,0.1562499 1285.9585,10.347835 1248.625,30.6875 C 1235.853,38.823392 1235.8531,46.48685 1248.625,53.71875 C 1290.8708,75.414409 1318.3844,107.51268 1331.1562,150 C 1331.1564,159.03985 1328.9353,170.34646 1335.8125,183.90625 C 1342.6897,255.32111 1342.6898,417.13172 1335.8125,669.34375 C 1324.8126,701.91585 1315.5129,693.4676 1304.625,688.3125 C 1319.7163,671.96639 1327.0159,645.37993 1319.1562,597.46875 C 1299.5072,498.93428 1278.8641,424.37322 1257.25,373.75 C 1235.6359,323.1268 1222.5916,294.64039 1229.4688,288.3125 C 1226.5214,244.92113 1240.2938,206.03896 1270.75,171.6875 C 1279.5921,159.93569 1276.6431,152.71195 1261.9062,150 C 1176.4324,136.4402 1107.1463,161.31473 1054.0938,224.59375 C 1044.2692,235.44158 1047.2182,242.22554 1062.9375,244.9375 C 1110.0956,251.26538 1149.405,273.40757 1180.8438,311.375 C 1187.721,308.66303 1201.7209,328.30842 1222.8438,370.34375 C 1243.9666,412.37909 1264.3509,490.81886 1284,605.625 C 1290.8772,654.44019 1286.9554,671.58878 1272.2188,657.125 C 1257.4818,635.42934 1248.8624,630.93794 1246.4062,643.59375 C 1243.9503,656.24952 1241.2599,672.95838 1238.3125,693.75 L 1214.75,937.8125 L 1503.5938,937.8125 L 1480,693.75 C 1477.0526,672.95833 1474.3624,656.24951 1471.9062,643.59375 C 1469.4503,630.93794 1461.3479,635.42936 1447.5938,657.125 C 1436.7867,671.58876 1432.3475,654.44024 1434.3125,605.625 C 1454.9442,491.72277 1475.8146,413.75407 1496.9375,371.71875 C 1518.0604,329.68337 1531.5739,309.56699 1537.4688,311.375 C 1569.89,274.31153 1609.6856,252.60912 1656.8438,246.28125 C 1672.5631,243.56924 1675.512,236.34556 1665.6875,224.59375 C 1612.6347,161.31473 1543.3803,136.87996 1457.9062,151.34375 C 1442.1871,154.0557 1439.2379,161.31069 1449.0625,173.0625 C 1479.5188,206.50997 1487.6036,245.36094 1484.6562,289.65625 C 1491.5337,295.08017 1483.9178,323.12682 1461.8125,373.75 C 1439.7071,424.37319 1419.323,499.40535 1400.6562,598.84375 C 1396.7266,645.851 1404.8454,675.65671 1413.6875,688.3125 C 1396.7432,698.06189 1391.9403,684.36832 1383.9688,669.34375 C 1377.0915,417.13171 1376.6052,255.32114 1382.5,183.90625 C 1389.3772,170.34645 1387.1563,159.03986 1387.1562,150 C 1401.8934,107.51268 1430.3792,75.414406 1472.625,53.71875 C 1485.397,46.486853 1485.397,38.823393 1472.625,30.6875 C 1435.2915,10.347834 1397.9585,0.1562501 1360.625,0.15625 z M 1360.625,28.4375 C 1384.3172,28.437498 1408.005,34.075191 1434.5312,45.375 C 1439.4437,47.182994 1439.4435,49.004546 1434.5312,50.8125 C 1401.1278,72.508159 1381.7643,95.775789 1365.0625,131.03125 L 1354.75,131.03125 C 1340.0131,95.775782 1321.1047,72.508158 1286.7188,50.8125 C 1281.8065,49.004547 1281.8065,47.182993 1286.7188,45.375 C 1313.2452,34.075192 1336.9328,28.4375 1360.625,28.4375 z M 443.75,90.28125 C 503.76818,102.66777 525.08088,140.16565 507.65625,202.75 L 443.75,90.28125 z M 837.75,91.25 L 772.90625,203.71875 C 755.48161,141.78629 777.08649,104.2884 837.75,91.25 z M 417.625,104.9375 L 482.5,217.40625 C 419.25507,201.10824 397.61897,163.61035 417.625,104.9375 z M 862.9375,106.90625 C 882.94354,165.57913 861.30743,203.07697 798.0625,219.375 L 862.9375,106.90625 z M 1209.0938,173.625 C 1215.6134,173.55575 1222.4418,173.73551 1229.6875,174.1875 C 1234.5998,174.1875 1235.6036,176.00905 1232.6562,179.625 C 1209.0774,210.36051 1197.2812,231.32517 1197.2812,273.8125 L 1188.4375,277.875 C 1158.9637,245.33148 1140.6068,234.97736 1099.3438,225.9375 C 1095.4139,225.93748 1094.9276,224.58695 1097.875,221.875 C 1133.9804,187.86252 1163.456,174.10977 1209.0938,173.625 z M 1510.7188,174.6875 C 1556.3565,174.57902 1585.8321,188.4153 1621.9375,223.21875 C 1624.8849,225.93072 1623.8809,227.28125 1618.9688,227.28125 C 1578.6878,235.41709 1560.8174,245.33151 1531.3438,277.875 L 1522.5,275.15625 C 1522.5,232.66891 1510.7353,211.2645 1487.1562,179.625 C 1484.2091,176.91305 1485.1815,175.5625 1490.0938,175.5625 C 1497.3394,174.99751 1504.1991,174.703 1510.7188,174.6875 z M 641.25,183.1875 C 679.97137,183.1875 709.66107,197.85108 730.3125,227.1875 C 730.31246,240.87784 728.37214,253.926 724.5,266.3125 L 641.25,412 C 610.91821,359.19441 582.52213,309.9782 556.0625,264.34375 C 552.83566,253.26108 551.86552,240.87786 553.15625,227.1875 L 552.1875,227.1875 C 572.19353,197.85108 601.88325,183.1875 641.25,183.1875 z M 505.71875,283.90625 L 511.53125,290.75 L 609.3125,464.8125 L 483.4375,692.65625 C 473.75721,663.31981 468.61413,635.29125 467.96875,608.5625 L 467.96875,412 C 467.96877,377.44818 480.54982,334.75607 505.71875,283.90625 z M 774.84375,283.90625 C 800.65799,333.4522 813.56253,376.14437 813.5625,412 L 813.5625,609.53125 C 813.56246,636.25994 808.71162,663.97173 799.03125,692.65625 L 671.25,464.8125 C 711.26211,395.70891 744.18574,338.00511 770,291.71875 L 774.84375,283.90625 z M 640.28125,517.625 L 774.84375,743.5 C 739.99445,796.30555 695.45998,822.71878 641.25,822.71875 C 586.39464,822.71873 542.18356,795.32384 508.625,740.5625 L 640.28125,517.625 z M 1450.5312,702.8125 L 1469.9062,905.5 L 1249.875,905.5 L 1269.25,704.1875 C 1299.7063,757.52266 1329.6826,759.784 1359.1562,710.96875 C 1391.5776,762.49592 1422.0401,759.76355 1450.5312,702.8125 z"
           transform="matrix(1.7641233e-2,0,0,1.9172653e-2,-18.429052,0.163551)"
           id="path1335" />
        <path
           style="fill:#000000"
           d="M 6.5565746,13.303767 C 6.6617606,13.089237 7.7527204,11.393152 7.8886954,11.17025 C 8.0918444,10.888108 8.3709391,10.374594 8.6100161,10.342796 C 9.0445434,10.337925 9.5292654,12.597287 9.7456054,12.94549 C 10.24966,13.60835 10.141789,13.9922 10.135111,14.34603 C 10.177631,14.80732 10.082179,15.52982 9.6858274,15.60297 C 9.2825604,15.65909 9.0268774,14.93799 8.8729714,14.54507 C 8.7871204,14.31366 8.4990434,13.85404 8.8970174,13.09662 C 8.9722684,12.7983 8.6827794,12.01508 8.6073734,11.796047 C 8.5492037,11.358714 8.1947711,11.760031 8.0861151,11.989568 C 7.9668837,12.209542 7.2113576,13.405312 7.0786616,13.643572 C 7.0641026,13.948232 6.3796546,13.552327 6.5565746,13.303767 z M 9.6246694,15.16872 C 9.7971074,15.16436 9.7921794,14.22869 9.7173354,13.71621 C 9.4993824,13.34642 9.4469334,13.11408 9.3240904,12.505898 C 9.1294505,11.893971 9.0070008,11.760704 8.9754487,11.804018 C 8.9200007,11.770969 9.0076184,12.275546 9.0975734,12.562745 C 9.2099117,13.15797 9.1626194,13.43747 9.0667804,13.85366 C 9.1750374,14.50984 9.4627404,15.20449 9.6246694,15.16872 z"
           id="path1342"
           sodipodi:nodetypes="ccccccccccccccccccc" />
        <path
           style="fill:#000000"
           d="M 4.5500667,13.300496 C 4.4448807,13.085966 3.3539207,11.389881 3.2179457,11.166979 C 3.0147967,10.884837 2.735702,10.371322 2.496625,10.339525 C 2.0620977,10.334653 1.5773756,12.594016 1.3610356,12.942219 C 0.85698108,13.605079 0.96485208,13.988929 0.97153008,14.342759 C 0.92901008,14.804049 1.0244621,15.526548 1.4208136,15.599698 C 1.8240806,15.655818 2.0797637,14.934719 2.2336697,14.541799 C 2.3195207,14.310389 2.6075977,13.850769 2.2096237,13.093349 C 2.1343727,12.795029 2.4238617,12.011809 2.4992677,11.792776 C 2.5574374,11.355442 2.91187,11.75676 3.020526,11.986297 C 3.1397574,12.206271 3.895283,13.40204 4.0279793,13.640301 C 4.0425383,13.944961 4.7269867,13.549056 4.5500667,13.300496 z M 1.4819716,15.165449 C 1.3095336,15.161089 1.3144616,14.225419 1.3893056,13.712939 C 1.6072586,13.343149 1.6597076,13.110809 1.7825506,12.502627 C 1.8760536,12.250315 2.0268324,11.757209 2.1311924,11.784071 C 2.2073635,11.803075 2.0823461,12.233199 2.0090677,12.559474 C 1.8967293,13.154699 1.9440217,13.434199 2.0398607,13.850389 C 1.9316037,14.506569 1.6439006,15.201219 1.4819716,15.165449 z"
           id="path1490"
           sodipodi:nodetypes="ccccccccccccccccccc" />
      </g>
    </g>
  </g>
</svg>
