<?xml version="1.0" encoding="UTF-8" standalone="no"?>
<!-- Created with Inkscape (http://www.inkscape.org/) -->
<svg
   xmlns:dc="http://purl.org/dc/elements/1.1/"
   xmlns:cc="http://creativecommons.org/ns#"
   xmlns:rdf="http://www.w3.org/1999/02/22-rdf-syntax-ns#"
   xmlns:svg="http://www.w3.org/2000/svg"
   xmlns="http://www.w3.org/2000/svg"
   xmlns:sodipodi="http://sodipodi.sourceforge.net/DTD/sodipodi-0.dtd"
   xmlns:inkscape="http://www.inkscape.org/namespaces/inkscape"
   width="1800"
   height="1800"
   id="svg2451"
   sodipodi:version="0.32"
   inkscape:version="0.46"
   version="1.0"
   sodipodi:docname="NL8.svg"
   inkscape:output_extension="org.inkscape.output.svg.inkscape">
  <defs
     id="defs2453">
    <inkscape:perspective
       sodipodi:type="inkscape:persp3d"
       inkscape:vp_x="0 : 526.18109 : 1"
       inkscape:vp_y="0 : 1000 : 0"
       inkscape:vp_z="744.09448 : 526.18109 : 1"
       inkscape:persp3d-origin="372.04724 : 350.78739 : 1"
       id="perspective2459" />
  </defs>
  <sodipodi:namedview
     id="base"
     pagecolor="#ffffff"
     bordercolor="#666666"
     borderopacity="1.0"
     inkscape:pageopacity="0.0"
     inkscape:pageshadow="2"
     inkscape:zoom="0.27944444"
     inkscape:cx="899.99999"
     inkscape:cy="1082.3306"
     inkscape:document-units="px"
     inkscape:current-layer="layer1"
     showgrid="true"
     inkscape:window-width="1024"
     inkscape:window-height="708"
     inkscape:window-x="0"
     inkscape:window-y="26">
    <inkscape:grid
       type="xygrid"
       id="grid2576"
       visible="true"
       enabled="true" />
  </sodipodi:namedview>
  <metadata
     id="metadata2456">
    <rdf:RDF>
      <cc:Work
         rdf:about="">
        <dc:format>image/svg+xml</dc:format>
        <dc:type
           rdf:resource="http://purl.org/dc/dcmitype/StillImage" />
      </cc:Work>
    </rdf:RDF>
  </metadata>
  <g
     inkscape:label="Calque 1"
     inkscape:groupmode="layer"
     id="layer1">
    <path
       style="fill:#000000;stroke:none"
       d="M 1568.875 0 C 1524.4306 0 1495.8061 74.194507 1483 222.59375 C 1479.9868 260.25851 1484.5098 291.14455 1496.5625 315.25 C 1486.0164 307.71704 1469.071 292.28966 1445.7188 268.9375 C 1422.3666 245.58534 1399.3801 233.90626 1376.7812 233.90625 C 1351.1692 233.90625 1338.375 254.22828 1338.375 294.90625 L 1338.375 432.78125 L 1512.375 432.78125 L 1461.5312 598.875 C 1441.1923 662.15184 1466.4404 693.78124 1537.25 693.78125 L 1537.25 881.375 L 1600.5312 881.375 L 1600.5312 693.78125 C 1672.0944 693.78125 1697.6828 662.15186 1677.3438 598.875 L 1626.5 432.78125 L 1800.5312 432.78125 L 1800.5312 294.90625 C 1800.5312 254.22827 1787.7057 233.90626 1762.0938 233.90625 C 1739.4949 233.90625 1716.7254 245.39948 1693.75 268.375 C 1674.8876 287.23743 1660.2662 300.79598 1649.7812 309.25 C 1658.1877 297.94785 1660.2128 269.0699 1655.875 222.59375 C 1643.0689 74.194509 1614.4444 -4.9525423e-17 1570 0 L 1568.875 0 z M 1194.75 1.59375 C 1182.518 1.7859403 1169.4016 5.553238 1155.3438 12.875 C 1116.8697 30.632231 1093.191 64.656609 1084.3125 114.96875 L 960 160.84375 L 897.84375 160.84375 L 897.84375 129.78125 L 419.875 129.78125 L 419.875 218.5625 L 317.78125 218.5625 L 317.78125 134.21875 L -3.34375 245.1875 L 317.78125 359.125 L 317.78125 270.34375 L 421.375 270.34375 L 421.375 363.5625 L 467.25 363.5625 L 412.5 606.8125 C 288.19938 570.31155 174.72224 518.52034 72.125 451.4375 C 56.340789 450.45101 40.822195 453.66369 25.53125 461.0625 C 10.240306 468.46141 3.8149623 482.53328 6.28125 503.25 C 8.7475381 523.96674 13.920418 536.27282 21.8125 540.21875 C 259.83288 735.8676 397.84814 824.18788 693.125 805.125 C 958.02952 795.55012 1101.3385 652.21178 1325.5 522.46875 C 1334.3789 488.92741 1332.1615 459.08009 1318.8438 432.9375 C 1305.5257 406.79492 1287.0201 390.28054 1263.3438 383.375 C 1125.2318 466.24185 1003.4009 526.90101 897.84375 565.375 C 836.6804 591.02446 800.76163 608.79113 737.625 618.65625 L 784.96875 363.5625 L 897.84375 363.5625 L 897.84375 270.34375 L 1235.25 270.34375 L 1235.25 220.03125 L 964.4375 220.03125 L 1115.375 163.8125 C 1146.9434 179.59677 1178.0119 184.0306 1208.5938 177.125 C 1263.8385 157.3947 1283.0834 118.42297 1266.3125 60.21875 C 1247.5842 20.681189 1223.7204 1.1385624 1194.75 1.59375 z M 1568.875 49.71875 L 1570 49.71875 C 1596.3653 49.71875 1611.0493 122.3952 1614.0625 267.78125 C 1614.0625 298.66636 1599.0069 318.64793 1568.875 327.6875 C 1539.4965 318.64792 1524.8125 298.66636 1524.8125 267.78125 C 1527.8257 122.3952 1542.5097 49.718751 1568.875 49.71875 z M 1190.8438 51.34375 C 1209.5874 51.34375 1221.6679 66.380127 1227.0938 96.46875 C 1232.5195 126.55737 1197.2428 135.68193 1121.2812 123.84375 C 1148.904 75.50469 1172.1004 51.343752 1190.8438 51.34375 z M 459.84375 181.5625 L 846.0625 181.5625 L 846.0625 311.78125 L 459.84375 311.78125 L 459.84375 181.5625 z M 1384.6875 266.09375 C 1395.2337 265.71708 1417.4767 282.47669 1451.375 316.375 C 1485.2733 350.27329 1524.4306 367.21875 1568.875 367.21875 C 1614.0728 367.21875 1653.6329 350.2733 1687.5312 316.375 C 1721.4295 282.47668 1743.6415 265.71709 1754.1875 266.09375 C 1764.7337 266.47038 1770 275.70217 1770 293.78125 L 1770 402.25 L 1368.875 402.25 L 1368.875 293.78125 C 1368.875 275.70216 1374.1414 266.47039 1384.6875 266.09375 z M 505.71875 363.5625 L 603.375 363.5625 L 550.09375 624.59375 C 505.70078 626.56682 471.67646 621.61947 448 609.78125 L 505.71875 363.5625 z M 641.84375 363.5625 L 747.96875 363.5625 L 699.15625 626.0625 C 665.61506 629.02171 610.77013 628.53963 587.09375 624.59375 L 641.84375 363.5625 z M 1562.0938 432.78125 L 1576.7812 432.78125 L 1576.7812 853.125 L 1562.0938 853.125 L 1562.0938 432.78125 z M 1250.0312 441.09375 C 1269.7615 450.95885 1278.6293 472.16384 1276.6562 504.71875 C 1061.2048 619.28428 917.54073 754.61449 655.96875 758.5 C 396.64189 750.61568 236.10083 660.59362 69.1875 525.4375 C 48.470714 500.77483 51.908867 491.90695 79.53125 498.8125 C 195.93964 570.82792 311.37698 626.53932 425.8125 666 C 588.58719 694.60896 745.92137 678.83371 897.84375 618.65625 C 967.88644 592.02041 1085.2835 532.83936 1250.0312 441.09375 z M 1538.375 461.03125 L 1537.25 659.875 C 1497.3254 659.875 1481.4949 644.8193 1489.7812 614.6875 L 1538.375 461.03125 z M 1600.5312 461.03125 L 1649.0938 614.6875 C 1657.38 644.81931 1641.2092 659.87502 1600.5312 659.875 L 1600.5312 461.03125 z M 142.71875 691.9375 C 55.227936 691.9375 32.816976 765.36546 75.46875 912.21875 L 0 912.21875 L 0 985.625 L 57.40625 985.625 L 116.46875 1103.5 L 308.40625 1103.5 L 367.46875 985.625 L 497.0625 985.625 L 866.15625 1350.8438 L 866.15625 1403 L 0 1403 L 0 1472.5625 L 224.75 1472.5625 L 224.75 1567.8438 L 0 1567.8438 L 0 1639.3125 L 224.75 1639.3125 L 224.75 1734.5938 L 0 1734.5938 L 0 1806.0625 L 1802.8438 1806.0625 L 1802.8438 1734.5938 L 1578.125 1734.5938 L 1578.125 1639.3125 L 1802.8438 1639.3125 L 1802.8438 1567.8438 L 1578.125 1567.8438 L 1578.125 1472.5625 L 1802.8438 1472.5625 L 1802.8438 1403 L 935.0625 1403 L 935.0625 1370.1562 C 1043.3323 1370.1562 1086.5289 1334.7253 1064.6562 1263.875 C 1188.237 1227.8058 1216.1179 1169.187 1148.3125 1088.0312 L 1064.6562 985.625 L 1801.3125 985.625 L 1801.3125 912.21875 L 305.125 912.21875 C 259.19232 765.36543 205.05595 691.93751 142.71875 691.9375 z M 142.71875 753.75 C 180.99599 753.75 215.44069 806.58744 246.0625 912.21875 L 134.53125 912.21875 C 95.160381 806.58741 97.879706 753.75 142.71875 753.75 z M 116.46875 985.625 L 308.40625 985.625 L 280.53125 1041.6562 L 144.375 1041.6562 L 116.46875 985.625 z M 590.5625 985.625 L 866.15625 985.625 L 866.15625 1252.2812 L 590.5625 985.625 z M 971.15625 985.625 L 999.03125 985.625 L 1113.875 1124.75 C 1144.4967 1164.6839 1123.7112 1194.9515 1051.5312 1215.5625 L 971.15625 985.625 z M 935.0625 1026.2188 L 1015.4375 1260.0312 C 1028.561 1302.5414 1001.7743 1323.7814 935.0625 1323.7812 L 935.0625 1026.2188 z M 292 1472.5625 L 546.28125 1472.5625 L 546.28125 1567.8438 L 292 1567.8438 L 292 1472.5625 z M 611.875 1472.5625 L 866.15625 1472.5625 L 866.15625 1567.8438 L 611.875 1567.8438 L 611.875 1472.5625 z M 935.0625 1472.5625 L 1190.9688 1472.5625 L 1190.9688 1567.8438 L 935.0625 1567.8438 L 935.0625 1472.5625 z M 1256.5938 1472.5625 L 1510.8438 1472.5625 L 1510.8438 1567.8438 L 1256.5938 1567.8438 L 1256.5938 1472.5625 z M 292 1639.3125 L 546.28125 1639.3125 L 546.28125 1734.5938 L 292 1734.5938 L 292 1639.3125 z M 611.875 1639.3125 L 866.15625 1639.3125 L 866.15625 1734.5938 L 611.875 1734.5938 L 611.875 1639.3125 z M 935.0625 1639.3125 L 1190.9688 1639.3125 L 1190.9688 1734.5938 L 935.0625 1734.5938 L 935.0625 1639.3125 z M 1256.5938 1639.3125 L 1510.8438 1639.3125 L 1510.8438 1734.5938 L 1256.5938 1734.5938 L 1256.5938 1639.3125 z "
       id="path2442" />
  </g>
</svg>
