<?xml version="1.0" encoding="UTF-8" standalone="no"?>
<!-- Created with Inkscape (http://www.inkscape.org/) -->
<svg
   xmlns:dc="http://purl.org/dc/elements/1.1/"
   xmlns:cc="http://creativecommons.org/ns#"
   xmlns:rdf="http://www.w3.org/1999/02/22-rdf-syntax-ns#"
   xmlns:svg="http://www.w3.org/2000/svg"
   xmlns="http://www.w3.org/2000/svg"
   xmlns:sodipodi="http://sodipodi.sourceforge.net/DTD/sodipodi-0.dtd"
   xmlns:inkscape="http://www.inkscape.org/namespaces/inkscape"
   width="1800"
   height="1800"
   id="svg2451"
   sodipodi:version="0.32"
   inkscape:version="0.46"
   version="1.0"
   sodipodi:docname="NU1.svg"
   inkscape:output_extension="org.inkscape.output.svg.inkscape">
  <defs
     id="defs2453">
    <inkscape:perspective
       sodipodi:type="inkscape:persp3d"
       inkscape:vp_x="0 : 526.18109 : 1"
       inkscape:vp_y="0 : 1000 : 0"
       inkscape:vp_z="744.09448 : 526.18109 : 1"
       inkscape:persp3d-origin="372.04724 : 350.78739 : 1"
       id="perspective2459" />
  </defs>
  <sodipodi:namedview
     id="base"
     pagecolor="#ffffff"
     bordercolor="#666666"
     borderopacity="1.0"
     inkscape:pageopacity="0.0"
     inkscape:pageshadow="2"
     inkscape:zoom="0.098798531"
     inkscape:cx="2315.4067"
     inkscape:cy="349.49257"
     inkscape:document-units="px"
     inkscape:current-layer="layer1"
     showgrid="true"
     inkscape:window-width="1024"
     inkscape:window-height="708"
     inkscape:window-x="-4"
     inkscape:window-y="-4">
    <inkscape:grid
       type="xygrid"
       id="grid2576"
       visible="true"
       enabled="true" />
  </sodipodi:namedview>
  <metadata
     id="metadata2456">
    <rdf:RDF>
      <cc:Work
         rdf:about="">
        <dc:format>image/svg+xml</dc:format>
        <dc:type
           rdf:resource="http://purl.org/dc/dcmitype/StillImage" />
      </cc:Work>
    </rdf:RDF>
  </metadata>
  <g
     inkscape:label="Calque 1"
     inkscape:groupmode="layer"
     id="layer1">
    <path
       style="fill:#000000;stroke:none"
       d="M 200,6.0625 C 136.87416,6.0625 88.841428,19.701154 55.90625,46.9375 C 24.34338,73.266001 8.5625002,102.31787 8.5625,134.09375 C 9.9348,165.86948 25.025472,194.01836 53.84375,218.53125 C 88.151228,244.85978 137.56438,258 202.0625,258 L 895.75,258 L 1589.4688,258 C 1653.966,258 1702.6587,244.85978 1735.5938,218.53125 C 1765.784,194.01836 1781.565,165.86948 1782.9375,134.09375 C 1781.565,102.31787 1765.7839,73.266001 1735.5938,46.9375 C 1702.6588,19.701154 1654.6249,6.0625002 1591.5,6.0625 L 895.75,6.0625 L 200,6.0625 z M 193.8125,45.5625 L 1597.6875,45.5625 C 1630.623,45.5625 1679.9524,55.55789 1703.2812,75.53125 C 1726.6101,95.50466 1738.2812,115.02826 1738.2812,134.09375 C 1738.2812,154.06693 1729.3398,172.22058 1711.5,188.5625 C 1682.6822,208.53599 1629.9326,218.53125 1595.625,218.53125 L 193.8125,218.53125 C 160.87721,218.53125 107.13073,208.536 78.3125,188.5625 C 59.100282,172.22057 49.500002,154.06693 49.5,134.09375 C 50.87231,115.02826 63.23346,95.504657 86.5625,75.53125 C 109.89161,55.557893 160.87721,45.5625 193.8125,45.5625 z M 471.6,278.95625 C 460.3334,279.14197 440.62408,282.58287 429.6875,289.26875 C 415.89551,299.88129 409,324.43149 409,340.5625 C 409.43101,352.02404 410.49477,361.14548 412.21875,367.9375 C 417.82173,381.09701 425.07926,398.2875 443.18125,398.2875 C 451.37023,398.2875 469.02448,395.75648 478.9375,390.6625 C 480.66149,415.28353 472.47224,437.47316 462.34375,478.4375 C 452.21526,519.40186 446.93101,555.58691 446.5,587 C 446.931,618.83759 452.21525,655.1229 462.34375,695.875 C 472.47225,736.62712 469.66148,759.51647 467.9375,784.1375 C 458.02449,779.0435 448.97023,776.5125 440.78125,776.5125 C 422.67926,776.5125 417.82174,783.07171 412.21875,796.23125 C 410.49476,803.02329 409.43101,821.94473 409,833.40625 C 409,849.5373 415.8955,870.91874 429.6875,881.53125 C 442.18646,889.59672 463.51375,892.99223 476.44375,891.71875 C 491.95973,891.71875 515.34477,887.25824 527.84375,878.34375 C 546.80771,860.0902 557.27923,829.38685 559.21875,802.21875 C 561.15824,775.05068 559.547,746.62128 554.375,716.90625 C 549.20304,687.19117 546.59376,643.88312 546.59375,587 C 546.59375,530.54137 549.20304,487.43382 554.375,457.71875 C 559.547,428.00369 561.15823,399.47406 559.21875,372.09375 C 557.27924,344.71345 546.80771,310.9103 527.84375,293.08125 C 515.34477,283.74223 491.95972,279.08124 476.44375,279.08125 C 474.8275,278.97512 473.20951,278.92972 471.6,278.95625 z M 1131.7625,300.59375 C 999.5463,300.59375 924.88517,378.80281 907.825,535.1875 L 1355.6688,535.1875 C 1338.6087,378.8028 1263.9786,300.59376 1131.7625,300.59375 z M 476.44375,310.65625 C 492.39073,310.65625 504.44229,317.21546 512.63125,330.375 C 520.82024,343.53453 526.00747,359.24646 528.1625,377.5 C 530.31749,395.75353 528.48097,422.48518 522.6625,457.71875 C 516.84398,492.95233 513.94376,536.05985 513.94375,587 C 513.94375,637.94015 516.84398,681.01642 522.6625,716.25 C 528.48097,751.48358 530.31748,778.24648 528.1625,796.5 C 526.00748,814.75356 520.82025,830.56569 512.63125,843.9375 C 504.44228,857.30931 492.39072,863.96876 476.44375,863.96875 C 465.66878,863.96875 456.8085,861.00553 449.9125,855.0625 C 443.01652,849.11948 439.56876,840.43027 439.56875,828.96875 C 439.56875,814.96022 438.17527,807.53652 449.38125,806.6875 C 458.43222,806.6875 464.03874,809.31873 466.19375,814.625 C 468.34877,819.93126 472.44103,822.59376 478.475,822.59375 C 484.07799,822.59375 488.94302,819.63051 493.0375,813.6875 C 497.132,807.74449 499.48474,797.55806 500.13125,783.125 C 500.77776,768.69194 504.00775,744.49132 495.81875,710.53125 C 487.62976,676.57117 482.66775,635.3931 480.94375,587 C 482.66776,538.60689 487.62976,497.42882 495.81875,463.46875 C 504.00775,429.50868 503.17775,405.30806 502.53125,390.875 C 501.88475,376.44198 499.53201,366.25556 495.4375,360.3125 C 491.34301,354.36949 486.478,351.40626 480.875,351.40625 C 474.84102,351.40625 470.74876,354.03749 468.59375,359.34375 C 466.43875,364.65002 460.83222,367.31251 451.78125,367.3125 C 440.57527,366.46349 439.56876,359.03979 439.56875,345.03125 C 439.56875,333.56971 443.01651,324.98073 449.9125,319.25 C 456.80851,313.51923 465.66877,310.65626 476.44375,310.65625 z M 1131.7625,341.125 C 1222.75,341.125 1280.3127,391.592 1304.4812,492.53125 L 959.0125,492.53125 C 981.75934,391.592 1039.3533,341.125 1131.7625,341.125 z M 799.5125,602.0625 C 768.7128,602.06249 744.42566,615.12989 728.35625,641.90625 C 712.95641,667.79009 705.60625,696.01075 705.60625,727.25 C 706.2758,758.48909 714.29549,786.65109 728.35625,810.75 C 745.09521,836.63389 768.04324,850.5625 799.5125,850.5625 L 1476.9188,850.5625 C 1508.3876,850.56251 1532.0056,836.63386 1548.075,810.75 C 1562.8052,786.65112 1570.1868,758.48907 1570.8562,727.25 C 1570.1868,696.01077 1562.8051,667.79011 1548.075,641.90625 C 1532.0056,615.12987 1509.1553,602.0625 1478.3562,602.0625 L 799.5125,602.0625 z M 796.66875,640 L 1481.2,640 C 1497.2694,640 1511.0988,650.70767 1522.4812,670.34375 C 1533.8635,689.9798 1539.5438,708.50649 1539.5438,727.25 C 1539.5437,746.88586 1535.4353,766.2153 1526.7312,782.28125 C 1512.6707,801.91741 1496.5016,810.75 1479.7625,810.75 L 796.66875,810.75 C 780.59927,810.75003 765.1982,801.91744 751.1375,782.28125 C 741.76365,766.21527 736.91875,746.88584 736.91875,727.25 C 737.58829,708.50651 744.03628,689.97983 755.41875,670.34375 C 766.80125,650.7077 780.59928,640 796.66875,640 z M 142.71875,691.9375 C 55.227936,691.9375 32.816976,765.36546 75.46875,912.21875 L 0,912.21875 L 0,985.625 L 57.40625,985.625 L 116.46875,1103.5 L 308.40625,1103.5 L 367.46875,985.625 L 497.0625,985.625 L 866.15625,1350.8438 L 866.15625,1403 L 0,1403 L 0,1472.5625 L 224.75,1472.5625 L 224.75,1567.8438 L 0,1567.8438 L 0,1639.3125 L 224.75,1639.3125 L 224.75,1734.5938 L 0,1734.5938 L 0,1806.0625 L 1802.8438,1806.0625 L 1802.8438,1734.5938 L 1578.125,1734.5938 L 1578.125,1639.3125 L 1802.8438,1639.3125 L 1802.8438,1567.8438 L 1578.125,1567.8438 L 1578.125,1472.5625 L 1802.8438,1472.5625 L 1802.8438,1403 L 935.0625,1403 L 935.0625,1370.1562 C 1043.3323,1370.1562 1086.5288,1334.7253 1064.6562,1263.875 C 1188.237,1227.8058 1216.1179,1169.187 1148.3125,1088.0312 L 1064.6562,985.625 L 1801.3125,985.625 L 1801.3125,912.21875 L 305.125,912.21875 C 259.19232,765.36543 205.05595,691.93751 142.71875,691.9375 z M 142.71875,753.75 C 180.99599,753.75 215.44069,806.58744 246.0625,912.21875 L 134.53125,912.21875 C 95.160381,806.58741 97.879706,753.75 142.71875,753.75 z M 116.46875,985.625 L 308.40625,985.625 L 280.53125,1041.6562 L 144.375,1041.6562 L 116.46875,985.625 z M 590.5625,985.625 L 866.15625,985.625 L 866.15625,1252.2812 L 590.5625,985.625 z M 971.15625,985.625 L 999.03125,985.625 L 1113.875,1124.75 C 1144.4967,1164.6839 1123.7111,1194.9515 1051.5312,1215.5625 L 971.15625,985.625 z M 935.0625,1026.2188 L 1015.4375,1260.0312 C 1028.561,1302.5414 1001.7743,1323.7813 935.0625,1323.7812 L 935.0625,1026.2188 z M 292,1472.5625 L 546.28125,1472.5625 L 546.28125,1567.8438 L 292,1567.8438 L 292,1472.5625 z M 611.875,1472.5625 L 866.15625,1472.5625 L 866.15625,1567.8438 L 611.875,1567.8438 L 611.875,1472.5625 z M 935.0625,1472.5625 L 1190.9688,1472.5625 L 1190.9688,1567.8438 L 935.0625,1567.8438 L 935.0625,1472.5625 z M 1256.5938,1472.5625 L 1510.8438,1472.5625 L 1510.8438,1567.8438 L 1256.5938,1567.8438 L 1256.5938,1472.5625 z M 292,1639.3125 L 546.28125,1639.3125 L 546.28125,1734.5938 L 292,1734.5938 L 292,1639.3125 z M 611.875,1639.3125 L 866.15625,1639.3125 L 866.15625,1734.5938 L 611.875,1734.5938 L 611.875,1639.3125 z M 935.0625,1639.3125 L 1190.9688,1639.3125 L 1190.9688,1734.5938 L 935.0625,1734.5938 L 935.0625,1639.3125 z M 1256.5938,1639.3125 L 1510.8438,1639.3125 L 1510.8438,1734.5938 L 1256.5938,1734.5938 L 1256.5938,1639.3125 z"
       id="path2442"
       sodipodi:nodetypes="cccccccccccccccsscccccscccccscscscscccccsssssccccccccsssssssssscssssscssssscssccccccccccccccccccsscccccsccccccccccccccccccccccccccccccccccccccccccccccccccccccccccccccccccccccccccccccccccccccccccccccccccccccc" />
  </g>
</svg>
