<?xml version="1.0" encoding="UTF-8" standalone="no"?>
<svg
   xmlns:dc="http://purl.org/dc/elements/1.1/"
   xmlns:cc="http://creativecommons.org/ns#"
   xmlns:rdf="http://www.w3.org/1999/02/22-rdf-syntax-ns#"
   xmlns:svg="http://www.w3.org/2000/svg"
   xmlns="http://www.w3.org/2000/svg"
   xmlns:sodipodi="http://sodipodi.sourceforge.net/DTD/sodipodi-0.dtd"
   xmlns:inkscape="http://www.inkscape.org/namespaces/inkscape"
   width="20.009832"
   height="17.977583"
   id="svg2444"
   sodipodi:version="0.32"
   inkscape:version="0.46"
   sodipodi:docname="O109.svg"
   inkscape:output_extension="org.inkscape.output.svg.inkscape">
  <metadata
     id="metadata2451">
    <rdf:RDF>
      <cc:Work
         rdf:about="">
        <dc:format>image/svg+xml</dc:format>
        <dc:type
           rdf:resource="http://purl.org/dc/dcmitype/StillImage" />
      </cc:Work>
    </rdf:RDF>
  </metadata>
  <defs
     id="defs2449">
    <inkscape:perspective
       sodipodi:type="inkscape:persp3d"
       inkscape:vp_x="0 : 8.9887915 : 1"
       inkscape:vp_y="0 : 1000 : 0"
       inkscape:vp_z="20.009832 : 8.9887915 : 1"
       inkscape:persp3d-origin="10.004916 : 5.9925276 : 1"
       id="perspective2453" />
  </defs>
  <sodipodi:namedview
     inkscape:window-height="708"
     inkscape:window-width="1024"
     inkscape:pageshadow="2"
     inkscape:pageopacity="0.0"
     guidetolerance="10.0"
     gridtolerance="10.0"
     objecttolerance="10.0"
     borderopacity="1.0"
     bordercolor="#666666"
     pagecolor="#ffffff"
     id="base"
     showgrid="false"
     showguides="true"
     inkscape:guide-bbox="true"
     inkscape:zoom="25.698672"
     inkscape:cx="10.004916"
     inkscape:cy="8.9887915"
     inkscape:window-x="-4"
     inkscape:window-y="-4"
     inkscape:current-layer="svg2444" />
  <path
     style="fill:#000000; stroke:none"
     d="M 3.5 0 L 3.5 1.4375 L 1.4375 1.4375 L 1.4375 3.46875 L 0 3.46875 L 0 4.5 L 1.4375 4.5 L 1.4375 5.46875 L 0 5.46875 L 0 6.5 L 1.4375 6.5 L 1.4375 7.46875 L 0 7.46875 L 0 8.5 L 1.4375 8.5 L 1.4375 9.5 L 0 9.5 L 0 10.53125 L 1.4375 10.53125 L 1.4375 11.5 L 0 11.5 L 0 12.53125 L 1.4375 12.53125 L 1.4375 13.5 L 0 13.5 L 0 14.53125 L 1.4375 14.53125 L 1.4375 15.5 L 0 15.5 L 0 16.53125 L 1.4375 16.53125 L 1.4375 17.96875 L 2.46875 17.96875 L 2.46875 2.46875 L 17.53125 2.46875 L 17.53125 16.9375 L 11.21875 16.9375 L 11.21875 10.5 L 10.1875 10.5 L 10.1875 11.5 L 8.75 11.5 L 8.75 12.53125 L 10.1875 12.53125 L 10.1875 13.5 L 8.75 13.5 L 8.75 14.53125 L 10.1875 14.53125 L 10.1875 15.5 L 8.75 15.5 L 8.75 16.53125 L 10.1875 16.53125 L 10.1875 17.96875 L 18.59375 17.96875 L 18.59375 16.53125 L 20 16.53125 L 20 15.5 L 18.59375 15.5 L 18.59375 14.53125 L 20 14.53125 L 20 13.5 L 18.59375 13.5 L 18.59375 12.53125 L 20 12.53125 L 20 11.5 L 18.59375 11.5 L 18.59375 10.53125 L 20 10.53125 L 20 9.5 L 18.59375 9.5 L 18.59375 8.5 L 20 8.5 L 20 7.46875 L 18.59375 7.46875 L 18.59375 6.5 L 20 6.5 L 20 5.46875 L 18.59375 5.46875 L 18.59375 4.5 L 20 4.5 L 20 3.46875 L 18.59375 3.46875 L 18.59375 1.4375 L 16.5625 1.4375 L 16.5625 0 L 15.53125 0 L 15.53125 1.4375 L 14.5625 1.4375 L 14.5625 0 L 13.53125 0 L 13.53125 1.4375 L 12.53125 1.4375 L 12.53125 0 L 11.5 0 L 11.5 1.4375 L 10.53125 1.4375 L 10.53125 0 L 9.5 0 L 9.5 1.4375 L 8.5625 1.4375 L 8.5625 0 L 7.5 0 L 7.5 1.4375 L 6.53125 1.4375 L 6.53125 0 L 5.5 0 L 5.5 1.4375 L 4.53125 1.4375 L 4.53125 0 L 3.5 0 z M 6.53125 3.8125 C 5.7457953 3.8125 5.0672727 4.0998868 4.5 4.65625 C 3.9327273 5.212614 3.65625 5.8802274 3.65625 6.6875 C 3.65625 7.4620453 3.9178409 8.146023 4.46875 8.71875 C 5.0196587 9.2914773 5.7130681 9.5625005 6.53125 9.5625 C 7.3167047 9.5625 7.9952271 9.2805682 8.5625 8.71875 C 9.1297727 8.1569313 9.4062495 7.4838634 9.40625 6.6875 C 9.40625 5.9020453 9.1243182 5.2235227 8.5625 4.65625 C 8.0006813 4.0889773 7.3276134 3.8125 6.53125 3.8125 z M 6.46875 4.28125 C 6.9978413 4.2703413 7.5388644 4.4619321 8.0625 4.84375 L 5 4.84375 C 5.458182 4.48375 5.9396593 4.2921595 6.46875 4.28125 z M 11 4.9375 L 12.5625 9.59375 L 15.40625 9.59375 L 16.875 4.9375 L 11 4.9375 z M 4.625 5.21875 L 8.40625 5.21875 C 8.580796 5.404204 8.7048869 5.6335225 8.78125 5.90625 L 4.25 5.90625 C 4.3372727 5.6335227 4.4613635 5.4042039 4.625 5.21875 z M 12.1875 5.78125 L 15.75 5.78125 L 14.78125 8.75 L 13.15625 8.75 L 12.1875 5.78125 z M 4.1875 6.34375 L 8.875 6.34375 C 8.9186367 6.5728407 8.9389783 6.8021589 8.90625 7.03125 L 4.15625 7.03125 C 4.1235227 6.8021587 4.1438639 6.5728409 4.1875 6.34375 z M 4.25 7.4375 L 8.78125 7.4375 C 8.7157953 7.6884093 8.5917045 7.9177273 8.40625 8.125 L 4.625 8.125 C 4.4395453 7.9395453 4.3154538 7.7102274 4.25 7.4375 z M 5.03125 8.5625 L 8 8.5625 C 7.596364 8.9225007 7.1109093 9.1046594 6.5 9.09375 C 5.8890907 9.0828413 5.4021585 8.9006826 5.03125 8.5625 z "
     id="path2446" />
</svg>
