<?xml version="1.0" encoding="UTF-8" standalone="no"?>
<svg
   xmlns:dc="http://purl.org/dc/elements/1.1/"
   xmlns:cc="http://creativecommons.org/ns#"
   xmlns:rdf="http://www.w3.org/1999/02/22-rdf-syntax-ns#"
   xmlns:svg="http://www.w3.org/2000/svg"
   xmlns="http://www.w3.org/2000/svg"
   xmlns:sodipodi="http://sodipodi.sourceforge.net/DTD/sodipodi-0.dtd"
   xmlns:inkscape="http://www.inkscape.org/namespaces/inkscape"
   width="19.940474"
   height="17.977583"
   id="svg2434"
   sodipodi:version="0.32"
   inkscape:version="0.46"
   sodipodi:docname="O110.svg"
   inkscape:output_extension="org.inkscape.output.svg.inkscape">
  <metadata
     id="metadata2441">
    <rdf:RDF>
      <cc:Work
         rdf:about="">
        <dc:format>image/svg+xml</dc:format>
        <dc:type
           rdf:resource="http://purl.org/dc/dcmitype/StillImage" />
      </cc:Work>
    </rdf:RDF>
  </metadata>
  <defs
     id="defs2439">
    <inkscape:perspective
       sodipodi:type="inkscape:persp3d"
       inkscape:vp_x="0 : 8.9887915 : 1"
       inkscape:vp_y="0 : 1000 : 0"
       inkscape:vp_z="19.940474 : 8.9887915 : 1"
       inkscape:persp3d-origin="9.9702368 : 5.9925276 : 1"
       id="perspective2443" />
  </defs>
  <sodipodi:namedview
     inkscape:window-height="708"
     inkscape:window-width="1024"
     inkscape:pageshadow="2"
     inkscape:pageopacity="0.0"
     guidetolerance="10.0"
     gridtolerance="10.0"
     objecttolerance="10.0"
     borderopacity="1.0"
     bordercolor="#666666"
     pagecolor="#ffffff"
     id="base"
     showgrid="false"
     inkscape:zoom="25.698672"
     inkscape:cx="16.058566"
     inkscape:cy="8.9887915"
     inkscape:window-x="-4"
     inkscape:window-y="-4"
     inkscape:current-layer="svg2434" />
  <path
     style="fill:#000000; stroke:none"
     d="M 3.4375 0 L 3.4375 1.4375 L 1.40625 1.4375 L 1.40625 3.46875 L 0 3.46875 L 0 4.5 L 1.40625 4.5 L 1.40625 5.4375 L 0 5.4375 L 0 6.46875 L 1.40625 6.46875 L 1.40625 7.4375 L 0 7.4375 L 0 8.46875 L 1.40625 8.46875 L 1.40625 9.46875 L 0 9.46875 L 0 10.5 L 1.40625 10.5 L 1.40625 11.46875 L 0 11.46875 L 0 12.5 L 1.40625 12.5 L 1.40625 13.46875 L 0 13.46875 L 0 14.5 L 1.40625 14.5 L 1.40625 15.46875 L 0 15.46875 L 0 16.46875 L 1.40625 16.46875 L 1.40625 17.90625 L 9.4375 17.90625 L 9.4375 10.5 L 8.4375 10.5 L 8.40625 16.875 L 2.46875 16.875 L 2.46875 2.46875 L 17.46875 2.46875 L 17.46875 17.90625 L 18.5 17.90625 L 18.5 16.46875 L 19.9375 16.46875 L 19.9375 15.46875 L 18.5 15.46875 L 18.5 14.5 L 19.9375 14.5 L 19.9375 13.46875 L 18.5 13.46875 L 18.5 12.5 L 19.9375 12.5 L 19.9375 11.46875 L 18.5 11.46875 L 18.5 10.5 L 19.9375 10.5 L 19.9375 9.46875 L 18.5 9.46875 L 18.5 8.46875 L 19.9375 8.46875 L 19.9375 7.4375 L 18.5 7.4375 L 18.5 6.46875 L 19.9375 6.46875 L 19.9375 5.4375 L 18.5 5.4375 L 18.5 4.5 L 19.9375 4.5 L 19.9375 3.46875 L 18.5 3.46875 L 18.5 1.4375 L 16.4375 1.4375 L 16.4375 0 L 15.4375 0 L 15.4375 1.4375 L 14.46875 1.4375 L 14.46875 0 L 13.4375 0 L 13.4375 1.4375 L 12.46875 1.4375 L 12.46875 0 L 11.40625 0 L 11.40625 1.4375 L 10.46875 1.4375 L 10.46875 0 L 9.4375 0 L 9.4375 1.4375 L 8.46875 1.4375 L 8.46875 0 L 7.4375 0 L 7.4375 1.4375 L 6.4375 1.4375 L 6.4375 0 L 5.40625 0 L 5.40625 1.4375 L 4.46875 1.4375 L 4.46875 0 L 3.4375 0 z M 11.53125 3 L 11.53125 4.15625 C 11.169345 3.8156338 10.629377 3.5816064 9.9375 3.5 C 9.2456227 3.4183944 8.7468662 3.5649506 8.40625 3.9375 C 8.0656337 4.310049 7.8750002 4.699912 7.875 5.09375 C 7.875 5.4875874 8.0656335 5.873903 8.40625 6.25 C 8.7468664 6.6260972 9.2456223 6.7726537 9.9375 6.6875 C 10.629377 6.6023458 11.169345 6.4031164 11.53125 6.0625 L 11.53125 7.21875 L 12.15625 7.21875 L 12.15625 5.53125 C 12.440097 5.2474031 12.933805 5.09375 13.59375 5.09375 C 15.005886 5.09375 15.844699 5.3505661 16.125 5.84375 C 16.405298 6.3369341 16.53125 6.9025559 16.53125 7.5625 C 16.53125 8.1585785 16.292174 8.6451912 15.78125 9 C 15.270327 9.3548086 14.454983 9.5035486 13.3125 9.5 C 12.170015 9.4964524 11.310599 9.4999999 10.75 9.5 C 10.196499 9.5 9.5334446 9.5362978 8.78125 9.625 C 8.0290557 9.7137025 7.4293183 9.9769301 7 10.40625 C 6.5706814 10.835571 6.354394 11.201961 6.34375 11.5 C 6.3331055 11.79804 6.3935573 11.965201 6.5 11.96875 C 6.6064425 11.972298 6.7025089 11.812231 6.8125 11.5 C 6.9224906 11.187768 7.2525852 10.87473 7.78125 10.5625 C 8.3099147 10.250266 9.598361 10.090201 11.65625 10.09375 C 13.714142 10.097299 14.976247 10.027566 15.4375 9.875 C 15.898752 9.7224307 16.308536 9.4357326 16.65625 9.03125 C 17.003964 8.626768 17.173308 8.1443861 17.1875 7.5625 C 17.1875 6.8883636 17.067275 6.3327031 16.84375 5.875 C 16.620219 5.4172965 16.268022 5.0573182 15.75 4.8125 C 15.23198 4.5676824 14.499197 4.4375001 13.5625 4.4375 C 12.831595 4.4375 12.354943 4.5442109 12.15625 4.75 L 12.15625 3 L 11.53125 3 z M 3.125 3.03125 L 4.28125 6.625 L 6.4375 6.625 L 7.65625 3.03125 L 3.125 3.03125 z M 4.03125 3.6875 L 6.71875 3.6875 L 5.96875 5.96875 L 4.75 5.96875 L 4.03125 3.6875 z M 9.625 4.09375 C 9.7525094 4.0937499 9.8777952 4.1063726 10.03125 4.125 C 10.645068 4.1995098 11.148057 4.5189598 11.53125 5.09375 C 11.148057 5.6614438 10.641521 5.9879902 10.03125 6.0625 C 9.4209795 6.1370101 9.0111924 6.0672792 8.8125 5.84375 C 8.613807 5.6202203 8.5347983 5.3669524 8.53125 5.09375 C 8.5277017 4.8205473 8.6138074 4.5672794 8.8125 4.34375 C 8.9615195 4.1761028 9.2424717 4.0937502 9.625 4.09375 z M 5.3125 7.03125 C 3.7726719 7.0312499 2.948688 8.22956 2.75 9.65625 L 7.9375 9.65625 C 7.7388129 8.2295604 6.852329 7.03125 5.3125 7.03125 z M 5.28125 7.6875 C 6.2696839 7.6875 6.602943 8.146003 7.0625 9.03125 L 3.5625 9.03125 C 3.921123 8.1103858 4.300901 7.6875 5.28125 7.6875 z M 13.40625 10.5625 C 11.809245 10.5625 10.893565 11.485324 10.6875 13.15625 L 16.09375 13.15625 C 15.887685 11.485324 15.003256 10.5625 13.40625 10.5625 z M 13.40625 11.09375 C 14.522436 11.09375 15.100248 11.546493 15.375 12.625 L 11.4375 12.625 C 11.729425 11.546493 12.307235 11.09375 13.40625 11.09375 z M 2.875 12.40625 L 2.875 15.90625 L 4.4375 15.90625 L 4.4375 15.25 L 3.5625 15.25 L 3.5625 13.09375 L 7.25 13.09375 L 7.25 15.25 L 6.375 15.25 L 6.375 15.90625 L 7.9375 15.90625 L 7.9375 12.40625 L 2.875 12.40625 z M 10.0625 13.65625 L 10.0625 17.96875 L 12.34375 17.96875 L 12.34375 17.21875 L 10.8125 17.21875 L 10.8125 14.4375 L 16.1875 14.4375 L 16.1875 17.21875 L 14.6875 17.21875 L 14.6875 17.96875 L 16.9375 17.96875 L 16.9375 13.65625 L 10.0625 13.65625 z "
     id="path2436" />
</svg>
