<?xml version="1.0" encoding="UTF-8" standalone="no"?>
<svg
   xmlns:dc="http://purl.org/dc/elements/1.1/"
   xmlns:cc="http://creativecommons.org/ns#"
   xmlns:rdf="http://www.w3.org/1999/02/22-rdf-syntax-ns#"
   xmlns:svg="http://www.w3.org/2000/svg"
   xmlns="http://www.w3.org/2000/svg"
   xmlns:sodipodi="http://sodipodi.sourceforge.net/DTD/sodipodi-0.dtd"
   xmlns:inkscape="http://www.inkscape.org/namespaces/inkscape"
   width="20.009832"
   height="17.977583"
   id="svg2445"
   sodipodi:version="0.32"
   inkscape:version="0.46"
   sodipodi:docname="O117.svg"
   inkscape:output_extension="org.inkscape.output.svg.inkscape">
  <metadata
     id="metadata2452">
    <rdf:RDF>
      <cc:Work
         rdf:about="">
        <dc:format>image/svg+xml</dc:format>
        <dc:type
           rdf:resource="http://purl.org/dc/dcmitype/StillImage" />
      </cc:Work>
    </rdf:RDF>
  </metadata>
  <defs
     id="defs2450">
    <inkscape:perspective
       sodipodi:type="inkscape:persp3d"
       inkscape:vp_x="0 : 8.9887915 : 1"
       inkscape:vp_y="0 : 1000 : 0"
       inkscape:vp_z="20.009832 : 8.9887915 : 1"
       inkscape:persp3d-origin="10.004916 : 5.9925276 : 1"
       id="perspective2454" />
  </defs>
  <sodipodi:namedview
     inkscape:window-height="708"
     inkscape:window-width="1024"
     inkscape:pageshadow="2"
     inkscape:pageopacity="0.0"
     guidetolerance="10.0"
     gridtolerance="10.0"
     objecttolerance="10.0"
     borderopacity="1.0"
     bordercolor="#666666"
     pagecolor="#ffffff"
     id="base"
     showgrid="false"
     inkscape:zoom="39.568691"
     inkscape:cx="9.9696036"
     inkscape:cy="9.8302793"
     inkscape:window-x="0"
     inkscape:window-y="26"
     inkscape:current-layer="svg2445"
     showguides="true"
     inkscape:guide-bbox="true" />
  <path
     style="fill:#000000; stroke:none"
     d="M 3.4375,0 L 3.4375,1.4375 L 1.40625,1.4375 L 1.40625,3.46875 L 0,3.46875 L 0,4.5 L 1.40625,4.5 L 1.40625,5.46875 L 0,5.46875 L 0,6.5 L 1.40625,6.5 L 1.40625,7.46875 L 0,7.46875 L 0,8.5 L 1.40625,8.5 L 1.40625,9.5 L 0,9.5 L 0,10.53125 L 1.40625,10.53125 L 1.40625,11.5 L 0,11.5 L 0,12.53125 L 1.40625,12.53125 L 1.40625,13.5 L 0,13.5 L 0,14.53125 L 1.40625,14.53125 L 1.40625,15.5 L 0,15.5 L 0,16.53125 L 1.40625,16.53125 L 1.40625,17.96875 L 9.9375,17.96875 L 9.9375,16.53125 L 11.375,16.53125 L 11.375,15.5 L 9.9375,15.5 L 9.9375,14.53125 L 11.375,14.53125 L 11.375,13.5 L 9.9375,13.5 L 9.9375,12.53125 L 11.375,12.53125 L 11.375,11.5 L 9.9375,11.5 L 9.9375,10.54 L 8.90625,10.54 L 8.90625,16.9375 L 2.46875,16.9375 L 2.46875,2.46875 L 17.53125,2.46875 L 17.53125,17.96875 L 18.5625,17.96875 L 18.5625,16.53125 L 20,16.53125 L 20,15.5 L 18.5625,15.5 L 18.5625,14.53125 L 20,14.53125 L 20,13.5 L 18.5625,13.5 L 18.5625,12.53125 L 20,12.53125 L 20,11.5 L 18.5625,11.5 L 18.5625,10.53125 L 20,10.53125 L 20,9.5 L 18.5625,9.5 L 18.5625,8.5 L 20,8.5 L 20,7.46875 L 18.5625,7.46875 L 18.5625,6.5 L 20,6.5 L 20,5.46875 L 18.5625,5.46875 L 18.5625,4.5 L 20,4.5 L 20,3.46875 L 18.5625,3.46875 L 18.5625,1.4375 L 16.5,1.4375 L 16.5,0 L 15.46875,0 L 15.46875,1.4375 L 14.5,1.4375 L 14.5,0 L 13.46875,0 L 13.46875,1.4375 L 12.5,1.4375 L 12.5,0 L 11.4375,0 L 11.4375,1.4375 L 10.5,1.4375 L 10.5,0 L 9.46875,0 L 9.46875,1.4375 L 8.5,1.4375 L 8.5,0 L 7.46875,0 L 7.46875,1.4375 L 6.46875,1.4375 L 6.46875,0 L 5.4375,0 L 5.4375,1.4375 L 4.46875,1.4375 L 4.46875,0 L 3.4375,0 z M 15.21875,2.99375 C 14.71022,2.99375 14.156981,3.381021 13.5625,4.11875 C 12.968019,4.8564778 12.290465,5.3465781 11.53125,5.61875 L 11.125,5.61875 C 11.577462,5.5380268 11.831349,5.2332859 11.84375,4.7125 C 11.829424,4.1108574 11.507892,3.8179745 10.90625,3.775 C 10.304607,3.8179745 9.9974001,4.1108573 9.96875,4.7125 C 9.9938186,5.2389373 10.254983,5.5419778 10.71875,5.61875 L 9.15625,5.61875 C 9.6184494,5.5419779 9.8624659,5.2389372 9.875,4.7125 C 9.8606751,4.1108574 9.5703928,3.8179745 8.96875,3.775 C 8.3671074,3.8179745 8.0598999,4.1108573 8.03125,4.7125 C 8.0560493,5.233286 8.2958712,5.5380267 8.75,5.61875 L 7.1875,5.61875 C 7.6595399,5.5348285 7.924831,5.2445884 7.9375,4.7125 C 7.9231751,4.1251822 7.6016425,3.8179745 7,3.775 C 6.3983574,3.8179745 6.0911495,4.1251822 6.0625,4.7125 C 6.0878374,5.2445885 6.3389953,5.5348284 6.8125,5.61875 L 5.25,5.61875 C 5.7024623,5.5380268 5.9563502,5.2332859 5.96875,4.7125 C 5.9544251,4.1108574 5.6328926,3.8179745 5.03125,3.775 C 4.4296074,3.8179745 4.1223996,4.1108573 4.09375,4.7125 C 4.1185492,5.233286 4.3583712,5.5380267 4.8125,5.61875 L 4.09375,5.61875 L 4.09375,10.92875 L 5,10.92875 L 5,9.525 L 14.375,9.525 L 14.375,10.93125 L 15.28125,10.93125 L 15.28125,8.43125 L 16,8.43125 L 16,4.05625 C 16,3.3543335 15.727282,2.99375 15.21875,2.99375 z M 15.125,3.4625 C 15.390008,3.4625 15.5,3.6551548 15.5,4.05625 L 15.5,8.025 L 15.28125,8.025 L 15.28125,5.61875 L 12.5,5.61875 C 12.972719,5.4182024 13.460217,5.0231301 13.96875,4.4 C 14.47728,3.7768705 14.859991,3.4625001 15.125,3.4625 z M 5.03125,4.11875 C 5.3893704,4.1617245 5.5963503,4.3543792 5.625,4.7125 C 5.5963504,5.0706204 5.3893705,5.2606751 5.03125,5.275 C 4.6731293,5.2606752 4.4830748,5.0706203 4.46875,4.7125 C 4.4830748,4.3543793 4.6731294,4.1617244 5.03125,4.11875 z M 7,4.11875 C 7.3581204,4.1473996 7.5651002,4.3543793 7.59375,4.7125 C 7.5651004,5.0849453 7.3581204,5.2606751 7,5.275 C 6.6418793,5.2606752 6.4518247,5.0849453 6.4375,4.7125 C 6.4518248,4.3543793 6.6418793,4.1473995 7,4.11875 z M 8.96875,4.11875 C 9.3268706,4.1617245 9.5026004,4.3543792 9.53125,4.7125 C 9.5026002,5.0706204 9.3268708,5.2606751 8.96875,5.275 C 8.6106295,5.2606752 8.420575,5.0706203 8.40625,4.7125 C 8.4205747,4.3543793 8.6106297,4.1617244 8.96875,4.11875 z M 10.90625,4.11875 C 11.264369,4.1617245 11.471349,4.3543792 11.5,4.7125 C 11.471349,5.0706204 11.264369,5.2606751 10.90625,5.275 C 10.548129,5.2606752 10.358075,5.0706203 10.34375,4.7125 C 10.358075,4.3543793 10.548129,4.1617244 10.90625,4.11875 z M 5,6.5875 L 7.84375,7.5875 L 5,7.5875 L 5,6.5875 z M 6.5,6.5875 L 9.6875,6.5875 L 12.96875,6.5875 L 9.6875,7.5875 L 6.5,6.5875 z M 14.375,6.5875 L 14.375,7.5875 L 11.5625,7.5875 L 14.375,6.5875 z M 5,8.025 L 9.5,8.025 L 9.5,8.5875 L 5,8.5875 L 5,8.025 z M 9.90625,8.025 L 14.375,8.025 L 14.375,8.5875 L 9.90625,8.5875 L 9.90625,8.025 z M 5,8.99375 L 14.375,8.99375 L 14.375,9.0875 L 5,9.0875 L 5,8.99375 z"
     id="path2447"
     sodipodi:nodetypes="ccccccccccccccccccccccccccccccccccccccccccccccccccccccccccccccccccccccccccccccccccccccccccccccccccccccccccccccsccccccccccccccccccccccccccccccccccccccsccccccccccccccccccccccccccccccccccccccccccccccccc" />
</svg>
