<?xml version="1.0" encoding ="US-ASCII" standalone="yes"?>
<svg width="17.955385" height="17.977417">
<path style="fill:#000000; stroke:none" d=" M 17.955385 17.955385  L 10.376671 17.955385  L 10.376671 17.977417  L 7.909182 17.977417  L 7.909182 17.008047  L 9.451363 17.008047  L 9.451363 15.752271  L 7.909182 15.752271  L 7.909182 14.804932  L 9.451363 14.804932  L 9.451363 13.549156  L 7.909182 13.549156  L 7.909182 12.579785  L 9.451363 12.579785  L 9.451363 11.346042  L 7.909182 11.346042  L 7.909182 10.376671  L 9.451363 10.376671  L 9.451363 9.142926  L 7.909182 9.142926  L 7.909182 8.173556  L 9.451363 8.173556  L 9.451363 6.939812  L 7.909182 6.939812  L 7.909182 5.970441  L 9.451363 5.970441  L 9.451363 5.397631  L 10.376671 5.397631  L 10.376671 16.986015  L 16.986015 16.986015  L 16.986015 2.48952  L 2.511551 2.48952  L 2.511551 17.955385  L 0 17.955385  L 0 16.986015  L 1.54218 16.986015  L 1.54218 15.73024  L 0 15.73024  L 0 14.782901  L 1.54218 14.782901  L 1.54218 13.527125  L 0 13.527125  L 0 12.557755  L 1.54218 12.557755  L 1.54218 11.32401  L 0 11.32401  L 0 10.35464  L 1.54218 10.35464  L 1.54218 9.120895  L 0 9.120895  L 0 8.151525  L 1.54218 8.151525  L 1.54218 6.91778  L 0 6.91778  L 0 5.94841  L 1.54218 5.94841  L 1.54218 4.692635  L 0 4.692635  L 0 3.745295  L 1.54218 3.745295  L 1.54218 2.48952  L 0 2.48952  L 0 1.54218  L 1.54218 1.54218  L 1.54218 0  L 2.511551 0  L 2.511551 1.54218  L 3.745295 1.54218  L 3.745295 0  L 4.714666 0  L 4.714666 1.54218  L 5.94841 1.54218  L 5.94841 0  L 6.91778 0  L 6.91778 1.54218  L 8.173556 1.54218  L 8.173556 0  L 9.120895 0  L 9.120895 1.54218  L 10.376671 1.54218  L 10.376671 0  L 11.346042 0  L 11.346042 1.54218  L 12.579785 1.54218  L 12.579785 0  L 13.549156 0  L 13.549156 1.54218  L 14.782901 1.54218  L 14.782901 0  L 15.752271 0  L 15.752271 1.54218  L 16.986015 1.54218  L 16.986015 0  L 17.955385 0  L 17.955385 17.955385  Z "/></svg>
