<?xml version="1.0" encoding="UTF-8" standalone="no"?>
<svg
   xmlns:dc="http://purl.org/dc/elements/1.1/"
   xmlns:cc="http://creativecommons.org/ns#"
   xmlns:rdf="http://www.w3.org/1999/02/22-rdf-syntax-ns#"
   xmlns:svg="http://www.w3.org/2000/svg"
   xmlns="http://www.w3.org/2000/svg"
   xmlns:sodipodi="http://sodipodi.sourceforge.net/DTD/sodipodi-0.dtd"
   xmlns:inkscape="http://www.inkscape.org/namespaces/inkscape"
   width="1438.1249"
   height="1801.5743"
   id="svg3029"
   version="1.1"
   inkscape:version="0.47pre3 r22311"
   sodipodi:docname="US248O141.svg">
  <metadata
     id="metadata3037">
    <rdf:RDF>
      <cc:Work
         rdf:about="">
        <dc:format>image/svg+xml</dc:format>
        <dc:type
           rdf:resource="http://purl.org/dc/dcmitype/StillImage" />
        <dc:title></dc:title>
        <cc:license
           rdf:resource="" />
        <dc:creator>
          <cc:Agent>
            <dc:title>S. Thomas, revised by S. Rosmorduc</dc:title>
          </cc:Agent>
        </dc:creator>
        <dc:description>Fix for the original JSesh sign (the signs inside the pylon where not correctly placed). Removal of the thin white lines in the details of the pylon.
 </dc:description>
      </cc:Work>
    </rdf:RDF>
  </metadata>
  <defs
     id="defs3035">
    <inkscape:perspective
       sodipodi:type="inkscape:persp3d"
       inkscape:vp_x="0 : 8.9887915 : 1"
       inkscape:vp_y="0 : 1000 : 0"
       inkscape:vp_z="14.350801 : 8.9887915 : 1"
       inkscape:persp3d-origin="7.1754007 : 5.9925276 : 1"
       id="perspective3039" />
  </defs>
  <sodipodi:namedview
     pagecolor="#ffffff"
     bordercolor="#666666"
     borderopacity="1"
     objecttolerance="10"
     gridtolerance="10"
     guidetolerance="10"
     inkscape:pageopacity="0"
     inkscape:pageshadow="2"
     inkscape:window-width="1451"
     inkscape:window-height="997"
     id="namedview3033"
     showgrid="false"
     showborder="true"
     inkscape:zoom="0.10393687"
     inkscape:cx="836.44247"
     inkscape:cy="356.52852"
     inkscape:window-x="1687"
     inkscape:window-y="146"
     inkscape:window-maximized="0"
     inkscape:current-layer="svg3029"
     borderlayer="false" />
  <path
     style="fill:#000000;stroke:none"
     d="m 721.63332,447.48065 c -122.5054,1.85041 -240.55434,42.27295 -350.79434,92.96042 -16.44722,7.62751 -32.75844,15.49829 -48.98691,23.53958 109.74546,54.52564 226.80961,98.98198 349.6208,110.74776 110.18855,10.76102 220.81716,-12.84967 323.72824,-50.99609 46.72019,-17.24052 92.20409,-37.63021 136.77599,-59.75167 -108.7504,-54.34986 -224.12727,-100.24007 -345.84543,-113.38696 -21.41191,-2.29472 -42.96554,-3.29918 -64.49835,-3.11304 z m 9.40625,60.71875 c 87.7937,0.72084 173.97644,22.94399 254.8125,55.6875 -105.30695,41.44086 -220.6425,62.9787 -333.7988,48.04757 -64.03538,-7.7445 -126.73289,-24.87207 -186.8262,-48.11007 84.43037,-33.72959 174.38697,-56.12937 265.8125,-55.625 z"
     id="path3084" />
  <path
     style="fill:#000000;stroke:none"
     d="m 594.72707,1190.8869 c 0,23.8021 0,47.6042 0,71.4063 -60.89504,39.2608 -98.81712,114.0346 -89.21875,186.5937 7.16878,47.4275 33.88401,89.1978 66.01961,123.7071 35.45074,35.3375 85.98316,50.8453 134.94914,54.8554 45.3694,3.1429 91.94109,-4.3715 132.8521,-24.2187 30.77967,-15.4523 55.62364,-40.1187 74.0229,-69.1563 24.42299,-36.3063 41.46365,-80.4811 35.37442,-124.9296 -6.63251,-50.7311 -34.80042,-95.7513 -68.65211,-132.8943 -6.40226,-6.3579 -13.33382,-12.2784 -20.94106,-17.1761 0,-23.3958 0,-46.7917 0,-70.1875 -88.13542,0 -176.27083,0 -264.40625,0 l 0,1 0,1 z m 128.875,105.7187 c 39.93658,-0.1022 83.12385,4.54 115.03125,30.5626 23.5248,21.2614 39.47991,50.1068 48.1805,80.2273 9.12058,42.0733 -8.97984,86.374 -39.77425,115.2727 -39.79979,39.2474 -99.20633,56.6251 -153.9375,45.4374 -53.05958,-10.2619 -101.99114,-47.4705 -121.53125,-98.3124 -14.9864,-42.3814 -4.57229,-90.8644 20,-127.4688 13.65993,-22.325 39.49056,-33.4227 64.00789,-38.8086 22.32207,-4.8624 45.18108,-6.7008 68.02336,-6.9102 z"
     id="path3078"
     sodipodi:nodetypes="ccccccccccccccccccccccc" />
  <path
     style="fill:#000000;stroke:none"
     d="m 723.35207,818.1994 c -58.08886,-0.32818 -118.73792,18.1291 -159.40303,60.95655 -41.73316,43.40285 -61.28817,103.13553 -69.78388,161.77365 -1.56723,10.7691 -2.94941,21.3504 -4.00059,32.2073 157.83333,0 315.66667,0 473.5,0 -6.06611,-64.1379 -21.58265,-130.64971 -62.78512,-181.74626 -37.64645,-47.09426 -98.34857,-71.37403 -157.89978,-72.85565 -6.53647,-0.32564 -13.08381,-0.42988 -19.6276,-0.33559 z m 6.1875,60.5625 c 43.47346,-0.12019 88.51907,16.2607 116.15625,50.78125 19.85277,23.95482 32.42737,53.08722 40.625,82.87505 -107.38542,-10e-5 -214.77083,0 -322.15625,0 11.74354,-45.3642 36.51535,-90.78776 78.87035,-113.92998 26.17434,-14.57696 56.72654,-19.8612 86.50465,-19.72632 z"
     id="path3074" />
  <path
     id="path3031"
     style="fill:#000000;stroke:none"
     d="m 125.32685,0 0,93.999017 c 73.19618,60.999163 109.66088,114.041463 109.66088,159.788323 -12.19943,0 -18.799,16.58511 -18.799,50.13615 0,33.54101 9.81619,50.12613 25.06537,50.12613 L 115.92725,1716.9752 0,1716.9752 l 0,84.5992 1438.1249,0 0,-84.5992 -112.7941,0 L 1200.004,354.04962 c 16.7741,0 25.0654,-16.58512 25.0654,-50.12613 0,-33.55104 -8.2074,-50.13615 -21.9323,-50.13615 0,-45.74686 38.0729,-98.78916 112.7942,-159.788323 L 1315.9313,0 125.32685,0 z m 1005.74755,354.04962 122.1936,1362.92558 -1065.27778,0 122.19361,-1362.92558 820.89057,0 z m 97.1281,-260.050603 c -59.4719,41.167173 -87.7287,94.219493 -87.7287,159.788323 l -839.68945,0 c 0,-65.56883 -31.39006,-118.62115 -90.86198,-159.788323 l 1018.28013,0 z"
     sodipodi:nodetypes="cccsccccccccscccccccccccccc" />
</svg>
