<?xml version="1.0" encoding="UTF-8" standalone="no"?>
<!-- Created with Inkscape (http://www.inkscape.org/) -->
<svg
   xmlns:dc="http://purl.org/dc/elements/1.1/"
   xmlns:cc="http://creativecommons.org/ns#"
   xmlns:rdf="http://www.w3.org/1999/02/22-rdf-syntax-ns#"
   xmlns:svg="http://www.w3.org/2000/svg"
   xmlns="http://www.w3.org/2000/svg"
   xmlns:sodipodi="http://sodipodi.sourceforge.net/DTD/sodipodi-0.dtd"
   xmlns:inkscape="http://www.inkscape.org/namespaces/inkscape"
   width="1380.7094"
   height="1809.3654"
   id="svg2451"
   sodipodi:version="0.32"
   inkscape:version="0.46"
   version="1.0"
   sodipodi:docname="O145A.svg"
   inkscape:output_extension="org.inkscape.output.svg.inkscape">
  <defs
     id="defs2453">
    <inkscape:perspective
       sodipodi:type="inkscape:persp3d"
       inkscape:vp_x="0 : 526.18109 : 1"
       inkscape:vp_y="0 : 1000 : 0"
       inkscape:vp_z="744.09448 : 526.18109 : 1"
       inkscape:persp3d-origin="372.04724 : 350.78739 : 1"
       id="perspective2459" />
  </defs>
  <sodipodi:namedview
     id="base"
     pagecolor="#ffffff"
     bordercolor="#666666"
     borderopacity="1.0"
     inkscape:pageopacity="0.0"
     inkscape:pageshadow="2"
     inkscape:zoom="0.27781381"
     inkscape:cx="884.56587"
     inkscape:cy="896.96107"
     inkscape:document-units="px"
     inkscape:current-layer="layer1"
     showgrid="true"
     inkscape:window-width="1024"
     inkscape:window-height="708"
     inkscape:window-x="-4"
     inkscape:window-y="-4"
     showguides="true"
     inkscape:guide-bbox="true" />
  <metadata
     id="metadata2456">
    <rdf:RDF>
      <cc:Work
         rdf:about="">
        <dc:format>image/svg+xml</dc:format>
        <dc:type
           rdf:resource="http://purl.org/dc/dcmitype/StillImage" />
      </cc:Work>
    </rdf:RDF>
  </metadata>
  <g
     inkscape:label="Calque 1"
     inkscape:groupmode="layer"
     id="layer1"
     transform="translate(-176.82186,1.0528382)">
    <path
       style="fill:#000000;stroke:none"
       d="M 326.34375,-1.03125 C 301.19371,-0.87144802 279.10799,9.5340707 270.78125,14.1875 C 191.79872,49.71984 165.68057,86.966773 181,188.625 L 412.46875,768.78125 L 216.78125,768.78125 L 216.78125,1379.6875 L 419.34375,1379.6875 L 419.34375,1808.3125 L 1361.5,1808.3125 L 1361.5,1379.6875 L 1557.5312,1379.6875 L 1557.5312,768.78125 L 1371.375,768.78125 L 1344.2812,693.9375 C 1366.6461,633.21061 1409.3473,582.81958 1475.0938,542.59375 C 1447.214,490.97483 1411.3309,428.86504 1364.8125,357.90625 C 1315.883,283.54728 1286.2079,235.02031 1275.0312,211.71875 C 1263.8547,188.41716 1259.0052,177.95949 1257.0625,170.65625 C 1302.6984,151.93943 1312.3947,111.29391 1280.1562,52.65625 C 1239.805,-29.61904 1163.972,4.5804202 1146.7812,14.1875 C 1067.7988,49.71984 1041.6805,86.966773 1057,188.625 L 1288.4688,768.78125 L 1079.375,768.78125 L 1052.2812,693.9375 C 1074.6461,633.21061 1117.3473,582.81958 1183.0938,542.59375 C 1155.214,490.97483 1119.3309,428.86504 1072.8125,357.90625 C 1023.883,283.54728 994.20795,235.02031 983.03125,211.71875 C 971.85478,188.41716 967.00516,177.95949 965.0625,170.65625 C 1010.6984,151.93943 1020.3948,111.29391 988.15625,52.65625 C 947.80492,-29.61904 871.97193,4.5804202 854.78125,14.1875 C 775.79872,49.71984 749.68057,86.966773 765,188.625 L 996.46875,768.78125 L 787.375,768.78125 L 760.28125,693.9375 C 782.64614,633.21061 825.34725,582.81958 891.09375,542.59375 C 863.21399,490.97483 827.33087,428.86504 780.8125,357.90625 C 731.88305,283.54728 702.2079,235.02031 691.03125,211.71875 C 679.85478,188.41716 675.00516,177.95949 673.0625,170.65625 C 718.69841,151.93943 728.39478,111.29391 696.15625,52.65625 C 655.80492,-29.61904 579.97193,4.5804202 562.78125,14.1875 C 483.79872,49.71984 457.68057,86.966773 473,188.625 L 704.46875,768.78125 L 495.375,768.78125 L 468.28125,693.9375 C 490.64611,633.21061 533.34725,582.81958 599.09375,542.59375 C 571.21399,490.97483 535.33087,428.86504 488.8125,357.90625 C 439.88305,283.54728 410.2079,235.02031 399.03125,211.71875 C 387.85475,188.41716 383.00516,177.95949 381.0625,170.65625 C 426.69838,151.93943 436.39478,111.29391 404.15625,52.65625 C 383.35008,10.233054 353.11637,-1.2013618 326.34375,-1.03125 z M 321.25,48.34375 C 341.77875,48.079748 359.11628,55.642941 365.6875,70.625 C 389.90272,118.53501 375.19012,121.15444 334.90625,155.28125 C 340.7341,177.19095 349.09186,200.61649 360.5625,224.53125 C 377.03319,258.87035 404.72583,307.53883 445.1875,370.75 C 489.94117,438.02967 522.62445,488.9259 540.09375,522.09375 C 484.75074,564.48994 447.79047,603.44976 422.125,642.65625 C 332.82153,436.95244 277.90966,303.43005 255.375,245.0625 C 232.84047,186.69518 220.69278,146.11192 227.15625,116.8125 C 243.95094,70.983136 287.03542,48.783753 321.25,48.34375 z M 613.25,48.34375 C 633.77875,48.079748 651.11628,55.642941 657.6875,70.625 C 681.90269,118.53501 667.19012,121.15444 626.90625,155.28125 C 632.73413,177.19095 641.09186,200.61649 652.5625,224.53125 C 669.03319,258.87035 696.72583,307.53883 737.1875,370.75 C 781.94117,438.02967 814.62445,488.9259 832.09375,522.09375 C 776.75074,564.48994 739.79047,603.44976 714.125,642.65625 C 624.82156,436.95244 569.90966,303.43005 547.375,245.0625 C 524.84045,186.69518 512.69278,146.11192 519.15625,116.8125 C 535.95093,70.983136 579.03541,48.783753 613.25,48.34375 z M 905.25,48.34375 C 925.77875,48.079748 943.11628,55.642941 949.6875,70.625 C 973.9027,118.53501 959.19012,121.15444 918.90625,155.28125 C 924.73413,177.19095 933.09186,200.61649 944.5625,224.53125 C 961.03319,258.87035 988.7258,307.53883 1029.1875,370.75 C 1073.9412,438.02967 1106.6244,488.9259 1124.0938,522.09375 C 1068.7507,564.48994 1031.7904,603.44976 1006.125,642.65625 C 916.8215,436.95244 861.90966,303.43005 839.375,245.0625 C 816.84045,186.69518 804.69278,146.11192 811.15625,116.8125 C 827.95093,70.983136 871.03541,48.783753 905.25,48.34375 z M 1197.25,48.34375 C 1217.7788,48.079748 1235.1163,55.642941 1241.6875,70.625 C 1265.9027,118.53501 1251.19,121.15444 1210.9062,155.28125 C 1216.734,177.19095 1225.0918,200.61649 1236.5625,224.53125 C 1253.0332,258.87035 1280.7258,307.53883 1321.1875,370.75 C 1365.9412,438.02967 1398.6244,488.9259 1416.0938,522.09375 C 1360.7507,564.48994 1323.7904,603.44976 1298.125,642.65625 C 1208.8215,436.95244 1153.9097,303.43005 1131.375,245.0625 C 1108.8405,186.69518 1096.6927,146.11192 1103.1562,116.8125 C 1119.9509,70.983136 1163.0354,48.783753 1197.25,48.34375 z M 283.5,835.53125 L 1490.7812,835.53125 L 1490.7812,1312.9375 L 1361.5,1312.9375 L 1361.5,1076.8125 L 419.34375,1076.8125 L 419.34375,1312.9375 L 283.5,1312.9375 L 283.5,835.53125 z M 486.0625,1143.5312 L 1297.3438,1143.5312 L 1297.3438,1744.1562 L 486.0625,1744.1562 L 486.0625,1143.5312 z"
       id="path2385" />
  </g>
</svg>
