<?xml version="1.0" encoding="UTF-8" standalone="no"?>
<svg
   xmlns:dc="http://purl.org/dc/elements/1.1/"
   xmlns:cc="http://creativecommons.org/ns#"
   xmlns:rdf="http://www.w3.org/1999/02/22-rdf-syntax-ns#"
   xmlns:svg="http://www.w3.org/2000/svg"
   xmlns="http://www.w3.org/2000/svg"
   xmlns:sodipodi="http://sodipodi.sourceforge.net/DTD/sodipodi-0.dtd"
   xmlns:inkscape="http://www.inkscape.org/namespaces/inkscape"
   width="1800"
   height="1800"
   id="svg2"
   sodipodi:version="0.32"
   inkscape:version="0.46"
   sodipodi:docname="O160.svg"
   inkscape:output_extension="org.inkscape.output.svg.inkscape"
   version="1.0">
  <metadata
     id="metadata9">
    <rdf:RDF>
      <cc:Work
         rdf:about="">
        <dc:format>image/svg+xml</dc:format>
        <dc:type
           rdf:resource="http://purl.org/dc/dcmitype/StillImage" />
      </cc:Work>
    </rdf:RDF>
  </metadata>
  <defs
     id="defs7">
    <inkscape:perspective
       sodipodi:type="inkscape:persp3d"
       inkscape:vp_x="0 : 8.9887915 : 1"
       inkscape:vp_y="0 : 1000 : 0"
       inkscape:vp_z="17.977583 : 8.9887915 : 1"
       inkscape:persp3d-origin="8.9887915 : 5.9925276 : 1"
       id="perspective11" />
  </defs>
  <sodipodi:namedview
     inkscape:window-height="976"
     inkscape:window-width="1280"
     inkscape:pageshadow="2"
     inkscape:pageopacity="0.0"
     guidetolerance="10.0"
     gridtolerance="10.0"
     objecttolerance="10.0"
     borderopacity="1.0"
     bordercolor="#666666"
     pagecolor="#ffffff"
     id="base"
     showgrid="false"
     inkscape:zoom="0.15163512"
     inkscape:cx="900"
     inkscape:cy="900"
     inkscape:window-x="1373"
     inkscape:window-y="54"
     inkscape:current-layer="svg2" />
  <path
     style="fill:#000000;stroke:none"
     d="M 440.24757,946.9908 L 440.24757,1582.1396 L 490.69258,1582.1396 L 490.69258,946.9908 L 440.24757,946.9908 z M 1316.1566,946.9908 L 1316.1566,1582.1396 L 1366.6018,1582.1396 L 1366.6018,946.9908 L 1316.1566,946.9908 z M 534.25877,1206.0949 L 534.25877,1261.1258 L 1272.5906,1261.1258 L 1272.5906,1206.0949 L 534.25877,1206.0949 z M 1272.5906,1162.5287 C 1026.4799,1041.7664 780.36933,1041.7664 534.25877,1162.5287 L 1272.5906,1162.5287 z M 1272.5906,1582.1396 L 1272.5906,1306.9849 L 534.25877,1306.9849 L 534.25877,1582.1396 L 1272.5906,1582.1396 z M 1765.576,1623.4128 L 43.566199,1623.4128 L 43.566199,1763.2831 L 1765.576,1763.2831 L 1765.576,1623.4128 z M 396.68137,1582.1396 L 396.68137,903.4246 L 534.25877,903.4246 L 534.25877,1114.3766 C 780.36933,993.61425 1026.4799,993.61425 1272.5906,1114.3766 L 1272.5906,903.4246 L 1410.1678,903.4246 L 1410.1678,1582.1396 L 1806.8493,1582.1396 L 1806.8493,1806.8493 L 0,1806.8493 L 0,1582.1396 L 396.68137,1582.1396 z"
     id="path4"
     sodipodi:nodetypes="ccccccccccccccccccccccccccccccccccccccccc" />
  <path
     style="opacity:1;fill:#000000;fill-opacity:1;fill-rule:evenodd;stroke:none;stroke-width:120;stroke-linecap:butt;stroke-linejoin:miter;marker:none;stroke-miterlimit:4;stroke-dasharray:none;stroke-dashoffset:0;stroke-opacity:1;visibility:visible;display:inline;overflow:visible;enable-background:accumulate"
     d="M 262.13196,2.71875 L 142.13196,3.3125 L 142.63196,105.53125 L 0.13196244,106.90625 L 1.2882124,226.90625 L 143.22571,225.53125 L 143.91321,362.25 L 0.13196244,363.625 L 1.2882124,483.625 L 144.50696,482.25 L 145.19446,618.96875 L 0.13196244,620.34375 L 1.2882124,740.34375 L 145.78821,738.9375 L 150.03821,1594.9375 L 270.03821,1594.3438 L 265.78821,737.78125 L 412.03821,736.375 L 410.88196,616.40625 L 265.19446,617.8125 L 264.50696,481.09375 L 412.03821,479.6875 L 410.88196,359.6875 L 263.91321,361.09375 L 263.22571,224.40625 L 412.03821,222.96875 L 410.88196,102.96875 L 262.63196,104.375 L 262.13196,2.71875 z"
     id="path2384" />
  <path
     style="opacity:1;fill:#000000;fill-opacity:1;fill-rule:evenodd;stroke:none;stroke-width:120;stroke-linecap:butt;stroke-linejoin:miter;marker:none;stroke-miterlimit:4;stroke-dasharray:none;stroke-dashoffset:0;stroke-opacity:1;visibility:visible;display:inline;overflow:visible;enable-background:accumulate"
     d="M 1658.578,1.4843292 L 1538.578,2.0780792 L 1539.078,104.29683 L 1396.578,105.67183 L 1397.7343,225.67183 L 1539.6718,224.29683 L 1540.3593,361.01558 L 1396.578,362.39058 L 1397.7343,482.39058 L 1540.953,481.01558 L 1541.6405,617.73433 L 1396.578,619.10933 L 1397.7343,739.10933 L 1542.2343,737.70308 L 1546.4843,1593.703 L 1666.4843,1593.1093 L 1662.2343,736.54683 L 1808.4843,735.14058 L 1807.328,615.17183 L 1661.6405,616.57808 L 1660.953,479.85933 L 1808.4843,478.45308 L 1807.328,358.45308 L 1660.3593,359.85933 L 1659.6718,223.17183 L 1808.4843,221.73433 L 1807.328,101.73433 L 1659.078,103.14058 L 1658.578,1.4843292 z"
     id="path3195" />
</svg>
