<?xml version="1.0" encoding="UTF-8" standalone="no"?>
<!-- Created with Inkscape (http://www.inkscape.org/) -->
<svg
   xmlns:dc="http://purl.org/dc/elements/1.1/"
   xmlns:cc="http://web.resource.org/cc/"
   xmlns:rdf="http://www.w3.org/1999/02/22-rdf-syntax-ns#"
   xmlns:svg="http://www.w3.org/2000/svg"
   xmlns="http://www.w3.org/2000/svg"
   xmlns:sodipodi="http://inkscape.sourceforge.net/DTD/sodipodi-0.dtd"
   xmlns:inkscape="http://www.inkscape.org/namespaces/inkscape"
   id="svg1359"
   sodipodi:version="0.32"
   inkscape:version="0.43"
   width="12.28pt"
   height="15.890001pt"
   version="1.0"
   sodipodi:docbase="C:\Program Files\JSesh\fonts"
   sodipodi:docname="O2B.svg">
  <metadata
     id="metadata1364">
    <rdf:RDF>
      <cc:Work
         rdf:about="">
        <dc:format>image/svg+xml</dc:format>
        <dc:type
           rdf:resource="http://purl.org/dc/dcmitype/StillImage" />
      </cc:Work>
    </rdf:RDF>
  </metadata>
  <defs
     id="defs1362" />
  <sodipodi:namedview
     inkscape:window-height="708"
     inkscape:window-width="1024"
     inkscape:pageshadow="2"
     inkscape:pageopacity="0.0"
     borderopacity="1.0"
     bordercolor="#666666"
     pagecolor="#ffffff"
     id="base"
     showgrid="false"
     gridspacingx="0px"
     gridspacingy="0px"
     inkscape:zoom="27.008675"
     inkscape:cx="7.648581"
     inkscape:cy="9.8842256"
     inkscape:window-x="-4"
     inkscape:window-y="-4"
     inkscape:current-layer="svg1359" />
  <g
     id="g1369">
    <path
       id="path1345"
       d="M 15.297162,8.16 L 10.637546,8.16 L 10.637546,7.296268 L 14.410698,7.296268 L 14.410698,0.886463 L 0.886463,0.886463 L 0.886463,7.296268 L 4.65961,7.296268 L 4.65961,8.16 L 0,8.16 L 0,0 L 15.297162,0 L 15.297162,8.16 z "
       style="fill:#000000;stroke:none" />
    <path
       sodipodi:nodetypes="ccsccccscccccccsccsccccccccccccccccccccccccccc"
       id="path1352"
       d="M 6.7631186,1.9610414 L 6.7631186,2.7945816 C 6.0072089,2.9764803 5.3952172,3.5632963 5.4419993,5.5192961 C 5.4715909,6.7565475 6.2589757,7.9398013 6.9219346,8.1762802 L 6.7388705,19.956551 L 8.5908355,19.956551 L 8.2453431,8.216019 C 9.2751424,7.940085 9.7424183,6.4428063 9.7714595,5.5290669 C 9.8338356,3.5508994 9.020564,2.9556487 8.3467819,2.7751091 L 8.3467819,1.9610414 L 6.7631186,1.9610414 z M 7.3345815,2.5325079 L 7.775318,2.5325079 L 7.775318,3.3342988 C 8.0663939,3.3259283 8.2456693,3.3231838 8.3877968,3.3836935 C 9.1580305,3.6579415 9.2121811,4.8468859 9.1836209,5.5094973 C 9.1435238,6.4241778 8.6882792,7.4834772 7.9994123,7.6550115 C 7.7176129,7.737122 7.3677874,7.746615 7.0903214,7.6316431 C 6.6158278,7.4184909 6.0189204,6.3486657 6.0189204,5.5224013 C 6.0189204,4.180485 6.2288641,3.627265 6.7783939,3.3848631 C 6.9556952,3.3127396 7.1484907,3.3395702 7.3345815,3.3342988 L 7.3345815,2.5325079 z M 7.5636951,8.4805871 L 7.8618771,14.57608 L 7.4286117,14.574291 L 7.5636951,8.4805871 z M 7.4161604,15.155757 L 7.878685,15.15879 L 7.8923799,15.661937 L 7.4049536,15.663103 L 7.4161604,15.155757 z M 7.9091878,16.233401 L 7.9197705,16.591344 L 7.3844125,16.592508 L 7.3925051,16.235812 L 7.9091878,16.233401 z M 7.9365782,17.172808 L 7.9521407,17.71194 L 7.3595126,17.719251 L 7.3719614,17.165217 L 7.9365782,17.172808 z M 7.9689486,18.284027 L 8.0025642,19.385087 L 7.3227836,19.385087 L 7.3470612,18.293204 L 7.9689486,18.284027 z "
       style="color:#000000;fill:#000000;fill-opacity:1;fill-rule:nonzero;stroke:none;stroke-width:28.68938065;stroke-linecap:butt;stroke-linejoin:miter;marker:none;marker-start:none;marker-mid:none;marker-end:none;stroke-miterlimit:4;stroke-dashoffset:0;stroke-opacity:1;visibility:visible;display:inline;overflow:visible" />
  </g>
</svg>
