<?xml version="1.0" encoding="UTF-8" standalone="no"?>
<svg
   xmlns:dc="http://purl.org/dc/elements/1.1/"
   xmlns:cc="http://creativecommons.org/ns#"
   xmlns:rdf="http://www.w3.org/1999/02/22-rdf-syntax-ns#"
   xmlns:svg="http://www.w3.org/2000/svg"
   xmlns="http://www.w3.org/2000/svg"
   xmlns:sodipodi="http://sodipodi.sourceforge.net/DTD/sodipodi-0.dtd"
   xmlns:inkscape="http://www.inkscape.org/namespaces/inkscape"
   width="6.988966"
   height="17.977583"
   id="svg2434"
   sodipodi:version="0.32"
   inkscape:version="0.46"
   sodipodi:docname="O200.svg"
   inkscape:output_extension="org.inkscape.output.svg.inkscape">
  <metadata
     id="metadata2441">
    <rdf:RDF>
      <cc:Work
         rdf:about="">
        <dc:format>image/svg+xml</dc:format>
        <dc:type
           rdf:resource="http://purl.org/dc/dcmitype/StillImage" />
      </cc:Work>
    </rdf:RDF>
  </metadata>
  <defs
     id="defs2439">
    <inkscape:perspective
       sodipodi:type="inkscape:persp3d"
       inkscape:vp_x="0 : 8.9887915 : 1"
       inkscape:vp_y="0 : 1000 : 0"
       inkscape:vp_z="6.988966 : 8.9887915 : 1"
       inkscape:persp3d-origin="3.494483 : 5.9925276 : 1"
       id="perspective2443" />
  </defs>
  <sodipodi:namedview
     inkscape:window-height="667"
     inkscape:window-width="640"
     inkscape:pageshadow="2"
     inkscape:pageopacity="0.0"
     guidetolerance="10.0"
     gridtolerance="10.0"
     objecttolerance="10.0"
     borderopacity="1.0"
     bordercolor="#666666"
     pagecolor="#ffffff"
     id="base"
     showgrid="false"
     inkscape:zoom="36.34341"
     inkscape:cx="3.494483"
     inkscape:cy="3.8634009"
     inkscape:window-x="132"
     inkscape:window-y="67"
     inkscape:current-layer="svg2434" />
  <path
     style="fill:#000000; stroke:none"
     d="M 0.4375,0 C 0.32296287,0.0085546251 0.22848917,0.041354666 0.15625,0.125 C -0.13270667,0.45958133 -0.033955338,0.82166798 0.4375,1.15625 C 0.908956,1.4908313 1.372294,1.8630226 1.84375,2.28125 C 2.315206,2.6994767 2.5624999,3.188128 2.5625,3.78125 L 0.96875,3.78125 L 0.96875,4.6875 L 3.09375,4.6875 L 3.09375,6.875 L 1.53125,6.875 C 1.4571097,6.3398595 1.3488537,5.7776533 1.25,5.21875 L 0.40625,5.21875 C 0.81687267,7.4543633 1.0000001,9.5195928 1,11.375 C 1,13.230407 0.81687268,15.413763 0.40625,17.96875 L 6.59375,17.96875 C 6.1831267,15.413763 5.9687501,13.199157 5.96875,11.34375 C 5.96875,9.4883427 6.1831269,7.4391553 6.59375,5.21875 L 5.71875,5.21875 C 5.6179473,5.7847958 5.5438551,6.332675 5.46875,6.875 L 3.90625,6.875 L 3.90625,4.6875 L 6,4.6875 L 6,3.78125 L 4.40625,3.78125 C 4.40625,3.188128 4.653544,2.6994766 5.125,2.28125 C 5.596456,1.8630227 6.0521899,1.4908313 6.53125,1.15625 C 7.01031,0.821668 7.1014574,0.45958133 6.8125,0.125 C 6.5235433,-0.20958133 5.903224,0.070629993 4.9375,0.9375 C 3.971776,1.8043707 3.5,2.4322934 3.5,2.8125 C 3.5,2.4322933 2.9969746,1.8043707 2.03125,0.9375 C 1.306957,0.2873475 0.78111138,-0.025663875 0.4375,0 z M 1.59375,7.46875 L 3.09375,7.46875 L 3.09375,8.34375 L 1.71875,8.34375 C 1.6901753,8.055815 1.6301168,7.7641774 1.59375,7.46875 z M 3.90625,7.46875 L 5.40625,7.46875 C 5.3701568,7.7625261 5.3095511,8.0571666 5.28125,8.34375 L 3.90625,8.34375 L 3.90625,7.46875 z M 1.75,8.9375 L 3.09375,8.9375 L 3.09375,9.8125 L 1.8125,9.8125 C 1.7968785,9.5267487 1.7740403,9.2313463 1.75,8.9375 z M 3.90625,8.9375 L 5.25,8.9375 C 5.226259,9.2301454 5.2028222,9.5276258 5.1875,9.8125 L 3.90625,9.8125 L 3.90625,8.9375 z M 1.8125,10.40625 L 5.15625,10.40625 C 5.146447,10.697548 5.1256526,10.998398 5.125,11.28125 L 1.84375,11.28125 C 1.8427691,10.997876 1.822643,10.698433 1.8125,10.40625 z M 1.84375,11.875 L 5.15625,11.875 C 5.1618112,12.167088 5.1727884,12.441722 5.1875,12.75 L 1.8125,12.75 C 1.8268936,12.442104 1.8385186,12.166686 1.84375,11.875 z M 1.78125,13.34375 L 5.21875,13.34375 C 5.2371196,13.631102 5.2554203,13.918199 5.28125,14.21875 L 1.71875,14.21875 C 1.7443144,13.918669 1.7631458,13.630632 1.78125,13.34375 z M 1.6875,14.8125 L 5.34375,14.8125 C 5.372121,15.098788 5.4027266,15.389885 5.4375,15.6875 L 1.59375,15.6875 C 1.6282727,15.390328 1.6593797,15.098344 1.6875,14.8125 z M 1.5,16.28125 L 5.5,16.28125 C 5.5358017,16.561326 5.5838028,16.866628 5.625,17.15625 L 1.375,17.15625 C 1.4166839,16.862686 1.4638661,16.564994 1.5,16.28125 z"
     id="path2436"
     sodipodi:nodetypes="csssccccccccsccsccccccccsssssscccccccccccccccccccccccccccccccccccccccccccccc" />
</svg>
