<?xml version="1.0" encoding ="US-ASCII" standalone="yes"?>
<svg width="10.502062" height="17.977417">
<path style="fill:#000000; stroke:none" d=" M 9.303567 17.46958  Q 9.202 17.002371 8.795731 16.738297  L 1.706331 16.738297  Q 1.279748 17.002371 1.178181 17.46958  L 9.303567 17.46958  Z  M 6.439369 16.088264  L 6.256547 9.019178  L 4.225201 9.019178  L 4.04238 16.088264  L 6.439369 16.088264  Z  M 6.784698 8.491029  L 7.028459 16.088264  L 8.67385 16.088264  L 8.226954 2.722004  L 2.254795 2.722004  L 1.807898 16.088264  L 3.453289 16.088264  L 3.697051 8.491029  L 6.784698 8.491029  Z  M 8.247267 1.889152  L 8.653536 0.670344  L 1.828212 0.670344  L 2.234481 1.889152  L 8.247267 1.889152  Z  M 0.223448 17.977417  Q 0.203135 17.40864 0.619561 16.829706  Q 1.035987 16.250772 1.096927 15.641369  L 1.52351 2.701691  Q 1.381316 1.543823 0.853166 0.670344  L 0.446896 0.670344  Q 0 0.670344 0 0.325015  Q 0 0 0.446896 0  L 10.034852 0  Q 10.502062 0 10.502062 0.325015  Q 10.502062 0.670344 10.034852 0.670344  L 9.628583 0.670344  Q 9.100432 1.543823 8.958239 2.701691  L 9.384821 15.641369  Q 9.445762 16.250772 9.862187 16.829706  Q 10.278613 17.40864 10.2583 17.977417  L 0.223448 17.977417  Z "/></svg>
