<?xml version="1.0" encoding ="US-ASCII" standalone="yes"?>
<svg width="6.017693" height="17.977417">
<path style="fill:#000000; stroke:none" d=" M 0.640609 16.2624  Q 0.358136 16.807169 0.640609 17.533529  L 5.382128 17.533529  Q 5.664601 16.807169 5.382128 16.2624  L 0.640609 16.2624  Z  M 1.60909 6.214416  Q 0.923083 12.872719 0.983613 14.174114  Q 1.044143 15.47551 1.568736 15.818513  L 4.454001 15.818513  Q 4.978594 15.47551 5.039124 14.174114  Q 5.099655 12.872719 4.393471 6.214416  L 1.60909 6.214416  Z  M 1.689796 4.963462  L 1.60909 5.851235  L 4.393471 5.851235  L 4.332941 4.963462  L 1.689796 4.963462  Z  M 1.286263 3.873921  Q 1.225733 4.358162 1.66962 4.580105  L 4.332941 4.580105  Q 4.797004 4.358162 4.716298 3.873921  L 1.286263 3.873921  Z  M 1.689796 1.351837  L 1.286263 3.510741  L 4.736475 3.510741  L 4.332941 1.351837  L 1.689796 1.351837  Z  M 1.689796 0.443887  L 1.689796 0.90795  L 4.332941 0.90795  L 4.332941 0.443887  L 1.689796 0.443887  Z  M 0.337959 17.977417  Q 0.196723 17.896709 0.156369 17.674767  Q -0.186634 16.807169 0.216899 15.939573  Q 0.277429 15.818513 0.418666 15.818513  L 0.88273 15.818513  Q 0.438843 14.850033 0.529638 13.135015  Q 0.620433 11.419998 1.286263 4.963462  Q 1.145026 4.842402 0.973525 4.640635  Q 0.802023 4.438869 0.802023 3.672155  L 1.24591 1.129894  L 1.24591 0  L 4.776828 0  L 4.776828 1.129894  L 5.220715 3.672155  Q 5.220715 4.438869 5.049213 4.640635  Q 4.877711 4.842402 4.736475 4.963462  Q 5.402305 11.419998 5.483011 13.135015  Q 5.563718 14.850033 5.119831 15.818513  L 5.583895 15.818513  Q 5.725132 15.818513 5.785661 15.939573  Q 6.209372 16.807169 5.866368 17.674767  Q 5.826015 17.896709 5.684778 17.977417  L 0.337959 17.977417  Z "/></svg>
