<?xml version="1.0" encoding="UTF-8" standalone="no"?>
<svg
   xmlns:dc="http://purl.org/dc/elements/1.1/"
   xmlns:cc="http://creativecommons.org/ns#"
   xmlns:rdf="http://www.w3.org/1999/02/22-rdf-syntax-ns#"
   xmlns:svg="http://www.w3.org/2000/svg"
   xmlns="http://www.w3.org/2000/svg"
   xmlns:sodipodi="http://sodipodi.sourceforge.net/DTD/sodipodi-0.dtd"
   xmlns:inkscape="http://www.inkscape.org/namespaces/inkscape"
   width="18.031467"
   height="17.96875"
   id="svg2383"
   sodipodi:version="0.32"
   inkscape:version="0.46"
   sodipodi:docname="O215vara.svg"
   inkscape:output_extension="org.inkscape.output.svg.inkscape">
  <metadata
     id="metadata2390">
    <rdf:RDF>
      <cc:Work
         rdf:about="">
        <dc:format>image/svg+xml</dc:format>
        <dc:type
           rdf:resource="http://purl.org/dc/dcmitype/StillImage" />
      </cc:Work>
    </rdf:RDF>
  </metadata>
  <defs
     id="defs2388">
    <inkscape:perspective
       sodipodi:type="inkscape:persp3d"
       inkscape:vp_x="0 : 8.984375 : 1"
       inkscape:vp_y="0 : 1000 : 0"
       inkscape:vp_z="18.031467 : 8.984375 : 1"
       inkscape:persp3d-origin="9.0157337 : 5.9895833 : 1"
       id="perspective2392" />
  </defs>
  <sodipodi:namedview
     inkscape:window-height="708"
     inkscape:window-width="1024"
     inkscape:pageshadow="2"
     inkscape:pageopacity="0.0"
     guidetolerance="10.0"
     gridtolerance="10.0"
     objecttolerance="10.0"
     borderopacity="1.0"
     bordercolor="#666666"
     pagecolor="#ffffff"
     id="base"
     showgrid="false"
     inkscape:zoom="51.422609"
     inkscape:cx="9.0157337"
     inkscape:cy="6.6507711"
     inkscape:window-x="-4"
     inkscape:window-y="-4"
     inkscape:current-layer="svg2383" />
  <path
     style="fill:#000000; stroke:none"
     d="M 8.29125,1.40625 L 8.3125,2.96875 L 8.1225,2.96875 L 7.935,1.40625 L 8.29125,1.40625 z M 8.90625,1.40625 L 8.90625,2.96875 L 8.6125,2.96875 L 8.6,1.40625 L 8.90625,1.40625 z M 10.15625,1.40625 L 9.96875,2.96875 L 9.71875,2.96875 L 9.78125,1.40625 L 10.15625,1.40625 z M 9.49125,1.40625 L 9.42875,2.96875 C 9.393491,2.968185 9.399315,2.967995 9.365496,2.967995 C 9.295944,2.967995 9.297905,2.968799 9.225065,2.968799 C 9.215138,2.968799 9.205121,2.968784 9.195,2.96875 L 9.195,1.40625 L 9.49125,1.40625 z M 10.89625,1.40625 L 10.59375,3 C 10.591652,2.99987 10.589478,2.999822 10.58726,2.999822 C 10.581248,2.999822 10.574913,3.000172 10.568897,3.000172 C 10.566712,3.000172 10.564569,3.000126 10.5625,3 L 10.30875,2.96875 L 10.49625,1.40625 L 10.89625,1.40625 z M 7.625,1.40625 L 7.84375,3 C 7.822501,3.00097 7.800886,3.001336 7.779062,3.001336 C 7.712393,3.001336 7.643779,2.997924 7.577742,2.997924 C 7.551319,2.997924 7.575309,2.998471 7.55,3 L 7.175,1.40625 L 7.625,1.40625 z M 6.875,1.40625 L 7.21875,3 C 7.051617,3.012309 7.010114,3.046563 6.85,3.0625 L 6.44375,1.40625 L 6.875,1.40625 z M 11.66875,1.40625 L 11.23125,3.0625 C 11.071626,3.046801 11.099085,3.012071 10.9325,3 L 11.245,1.40625 L 11.66875,1.40625 z M 6.09375,1.40625 L 6.53125,3.09375 C 6.353847,3.113694 6.338422,3.131665 6.17,3.15625 L 5.63875,1.40625 L 6.09375,1.40625 z M 12.4425,1.40625 L 11.91125,3.15625 C 11.753013,3.133344 11.75739,3.112537 11.59125,3.09375 L 11.9975,1.40625 L 12.4425,1.40625 z M 5.25,1.40625 L 5.78125,3.1875 C 5.581499,3.219687 5.405284,3.273483 5.21875,3.3125 C 5.249661,3.154004 5.28125,2.967566 5.28125,2.78125 C 5.28125,2.334507 5.136445,1.883804 4.84375,1.40625 L 5.25,1.40625 z M 13.21875,1.40625 C 12.926056,1.883804 12.78125,2.334507 12.78125,2.78125 C 12.78125,2.967566 12.812839,3.154004 12.84375,3.3125 C 12.654241,3.272402 12.484484,3.220445 12.28125,3.1875 L 12.8125,1.40625 L 13.21875,1.40625 z M 14.6875,0.69375 L 14.6875,1.15625 C 13.886442,1.834068 13.5,2.365317 13.5,2.78125 C 13.5,3.073816 13.569216,3.306336 13.65625,3.5 C 13.49898,3.452861 13.325383,3.415956 13.15625,3.375 C 13.063129,3.189942 13,2.979611 13,2.78125 C 13,2.349911 13.224911,1.850793 13.65625,1.25 L 13.65625,1.15625 L 4.375,1.15625 L 4.375,1.25 C 4.806339,1.850793 5.03125,2.349911 5.03125,2.78125 C 5.03125,2.979611 4.968121,3.189942 4.875,3.375 C 4.718839,3.412751 4.552297,3.457022 4.40625,3.5 C 4.493575,3.311128 4.5625,3.071031 4.5625,2.78125 C 4.5625,2.365317 4.160653,1.834068 3.375,1.15625 L 3.375,0.69375 L 14.6875,0.69375 z M 7.0625,8.21875 C 6.723591,8.21875 6.401849,8.31558 6.09375,8.53125 C 5.785651,8.74692 5.206428,8.87588 4.34375,8.9375 L 4.34375,9.34375 C 4.71347,9.266726 5.147886,9.202465 5.65625,9.15625 C 6.006144,9.404092 6.406691,9.532488 6.859947,9.532488 C 6.885629,9.532488 6.911479,9.532076 6.9375,9.53125 C 7.217661,9.522356 7.451168,9.513461 7.631116,9.513461 C 7.762849,9.513461 7.86588,9.518228 7.9375,9.53125 L 8,9.34375 C 7.87676,8.573502 7.555458,8.21875 7.0625,8.21875 z M 10.96875,8.21875 C 10.475792,8.21875 10.170335,8.573502 10.0625,9.34375 L 10.15625,9.53125 C 10.227869,9.518229 10.326692,9.513462 10.452984,9.513462 C 10.625504,9.513462 10.849282,9.522356 11.125,9.53125 C 11.150607,9.532076 11.176044,9.532488 11.201309,9.532488 C 11.647212,9.532488 12.039685,9.404092 12.375,9.15625 C 12.914174,9.202465 13.333186,9.266726 13.6875,9.34375 L 13.6875,8.9375 C 12.840227,8.87588 12.276849,8.74692 11.96875,8.53125 C 11.660651,8.31558 11.323064,8.21875 10.96875,8.21875 z M 10.678943,6.668659 C 10.528135,6.668659 10.385021,6.693662 10.25,6.74375 C 9.772447,6.920907 9.490538,7.193793 9.375,7.525 C 9.259462,7.856207 9.1875,8.511442 9.1875,9.3125 C 9.1875,10.098152 9.332306,10.676936 9.625,11.03125 C 9.917695,11.385565 10.0625,11.659331 10.0625,11.875 C 9.95065,11.814773 9.846077,11.78324 9.748704,11.78324 C 9.671733,11.78324 9.599261,11.802943 9.53125,11.84375 C 9.377201,11.936179 9.360476,12.128961 9.4375,12.40625 C 9.306559,12.467871 9.172755,12.49868 9.037027,12.49868 C 8.901299,12.49868 8.763645,12.467871 8.625,12.40625 C 8.68662,12.128961 8.6228,11.93618 8.46875,11.84375 C 8.400739,11.802943 8.334444,11.78324 8.267024,11.78324 C 8.181733,11.78324 8.094643,11.814773 8,11.875 C 8,11.659331 8.144806,11.385564 8.4375,11.03125 C 8.730195,10.676936 8.875,10.098152 8.875,9.3125 C 8.875,8.511442 8.81074,7.856206 8.6875,7.525 C 8.56426,7.193793 8.258803,6.920907 7.78125,6.74375 C 7.661862,6.699461 7.537192,6.686545 7.40625,6.68125 C 7.387446,6.68049 7.368502,6.680108 7.34942,6.680108 C 6.969851,6.680108 6.535529,6.83098 6.0625,7.15 C 5.400087,7.596743 4.836709,7.8375 4.34375,7.8375 L 4.34375,8.53125 C 4.682659,8.53125 5.197622,8.306339 5.90625,7.875 C 6.404823,7.571521 6.859056,7.417942 7.264276,7.417942 C 7.435,7.417942 7.597025,7.445203 7.75,7.5 C 8.266066,7.684859 8.53125,8.183537 8.53125,9 C 8.53125,9.908892 8.354754,10.559638 8.03125,10.90625 C 7.707745,11.252861 7.5625,11.63072 7.5625,12.03125 C 7.5625,12.293134 7.739876,12.462367 8.125,12.5625 C 8.510123,12.662632 8.799735,12.71875 9,12.71875 C 9.184859,12.71875 9.474471,12.662632 9.875,12.5625 C 10.275529,12.462367 10.5,12.293134 10.5,12.03125 C 10.5,11.630721 10.323503,11.252861 10,10.90625 C 9.676496,10.559638 9.53125,9.908892 9.53125,9 C 9.53125,8.183537 9.765184,7.684859 10.28125,7.5 C 10.434225,7.445203 10.59625,7.417942 10.766974,7.417942 C 11.172194,7.417942 11.626428,7.571521 12.125,7.875 C 12.833629,8.306338 13.348591,8.53125 13.6875,8.53125 L 13.6875,7.8375 C 13.194541,7.8375 12.631163,7.596744 11.96875,7.15 C 11.493625,6.829566 11.061524,6.668659 10.678943,6.668659 z M 8.5625,12.875 C 8.485475,13.136884 8.131163,13.25 7.46875,13.25 C 7.330105,13.25 7.25,13.393925 7.25,13.625 C 7.25,13.963909 7.362676,14.125 7.59375,14.125 C 8.0283689,14.555576 8.2385071,14.735 9.03125,14.735 C 9.8085869,14.735 9.9639877,14.613916 10.4375,14.125 C 10.683979,14.125 10.8125,13.963909 10.8125,13.625 C 10.8125,13.393925 10.7478,13.25 10.59375,13.25 C 9.931336,13.25 9.545774,13.136884 9.46875,12.875 C 9.391725,13.167694 9.246918,13.3125 9.03125,13.3125 C 8.800176,13.3125 8.639524,13.167694 8.5625,12.875 z M 9.03125,5.8125 C 12.558985,5.8125 14.3125,6.76144 14.3125,8.65625 C 14.194459,11.268658 13.068772,13.475086 11.25,15.28125 C 10.138186,15.957268 9.585191,16.300701 9.027564,16.300701 C 8.47575,16.300701 7.9194,15.96439 6.8125,15.28125 C 4.918676,13.577081 4.261951,11.682431 3.7975,8.65625 C 3.7975,6.761441 5.472704,5.8125 9.03125,5.8125 z M 9.03125,3.85625 C 13.514092,3.85625 15.686664,4.878034 15.95625,6.95 C 16.225838,9.021967 15.944367,10.920331 15.1125,13 C 14.188203,13.246479 13.921655,13.85013 13.90625,14.84375 C 13.890845,15.83737 14.308978,16.34375 15.15625,16.34375 C 16.003523,16.34375 16.4375,15.941464 16.4375,15.125 C 16.4375,14.909331 16.30942,14.78125 16.09375,14.78125 C 15.893485,14.78125 15.8125,14.909331 15.8125,15.125 C 15.8125,15.479314 15.587589,15.65625 15.15625,15.65625 C 14.724911,15.65625 14.515845,15.374781 14.53125,14.8125 C 14.546655,14.250219 14.916372,13.840669 15.625,13.625 C 16.734158,13.640405 17.28401,14.258104 17.245001,15.46875 C 17.204262,16.73307 16.64789,17.28125 14.96875,17.28125 C 13.355789,17.227442 13.108933,15.816256 13.125,14.34375 C 13.351426,13.994024 13.611973,13.631567 13.79,13.21875 C 14.514383,11.805763 14.85129,10.353888 14.9775,8.78125 C 14.9775,7.348588 14.438822,6.175661 13.4375,5.675 C 12.436177,5.174339 10.956868,4.925 9.03125,4.925 C 7.090225,4.925 5.634025,5.174338 4.625,5.675 C 3.615975,6.175661 3.09375,7.348589 3.09375,8.78125 C 3.203923,10.762364 3.947092,12.643715 4.9375,14.34375 C 5.151547,16.014896 4.508529,17.225042 3.0625,17.28125 C 1.38336,17.28125 0.788224,16.705555 0.775,15.46875 C 0.76205,14.257545 1.312939,13.640405 2.4375,13.625 C 3.146128,13.840669 3.484595,14.250219 3.5,14.8125 C 3.515405,15.374781 3.306339,15.65625 2.875,15.65625 C 2.443661,15.65625 2.25,15.479314 2.25,15.125 C 2.25,14.909331 2.121919,14.78125 1.90625,14.78125 C 1.690581,14.78125 1.59375,14.909331 1.59375,15.125 C 1.59375,15.941463 2.012323,16.34375 2.875,16.34375 C 3.722273,16.34375 4.140405,15.83737 4.125,14.84375 C 4.109595,13.85013 3.858452,13.246479 2.91875,13 C 2.086882,10.920331 1.797711,9.021967 2.075,6.95 C 2.352289,4.878034 4.533002,3.85625 9.03125,3.85625 z M 2.49375,0 L 2.49375,1.28125 C 3.341023,1.974473 3.74375,2.441461 3.74375,2.71875 C 3.74375,2.934 3.674209,3.298653 3.49375,3.78125 C 2.107043,4.373515 1.333057,5.300815 1.18125,6.53125 C 0.888556,8.903613 1.130193,11.04313 1.93125,12.96875 C 0.637234,12.984155 0.06162,13.805015 0,15.46875 C -0.06162,17.132484 0.967426,17.96875 3.0625,17.96875 C 4.709004,17.96875 5.549233,17.121277 5.625,15.28875 C 6.873433,16.61911 7.944224,17.275351 9.010287,17.275351 C 10.096614,17.275351 11.17803,16.593925 12.4375,15.25 C 12.508033,17.060064 13.332368,17.96875 14.96875,17.96875 C 17.079229,17.96875 18.100574,17.132484 18.03125,15.46875 C 17.961927,13.805015 17.394016,12.984155 16.1,12.96875 C 16.916464,11.043131 17.150396,8.903613 16.85,6.53125 C 16.695526,5.311308 15.926967,4.40511 14.56875,3.8125 C 14.393952,3.314252 14.31875,2.934633 14.31875,2.71875 C 14.31875,2.441461 14.736882,1.974473 15.56875,1.28125 L 15.56875,0 L 2.49375,0 z"
     id="path2385"
     sodipodi:nodetypes="cccccccccccccccccsscccccssccccccssccccccccccccccccccccccccccscccsccccccsccsccccsccsccccscccsssccccccssscccsccsssscsscscsscsssssssccsssssssssssssssccsccsscscsscsccccsccccscssssssscsccccssscccscssssssscscccscscsscscsscscsccc" />
</svg>
