<?xml version="1.0" encoding ="US-ASCII" standalone="yes"?>
<svg width="17.592329" height="15.6">
<path style="fill:#000000; stroke:none" d=" M 8.80624 4.718146  Q 8.403209 7.619975 8.282299 8.627552  Q 8.221846 9.312706 8.221846 10.944985  Q 8.221846 12.03317 8.30245 12.939991  Q 8.443513 13.846811 8.80624 14.713332  L 8.80624 14.713332  Q 9.168969 13.846811 9.31003 12.939991  Q 9.390636 12.053322 9.390636 10.965136  Q 9.390636 9.312706 9.31003 8.647704  Q 9.209272 7.619975 8.80624 4.718146  L 8.80624 4.718146  Z  M 8.786088 0.566921  Q 7.194114 0.486314 4.655015 1.080786  Q 2.115916 1.675258 0.544093 2.461169  L 0.544093 15.055907  L 1.330004 15.055907  L 1.330004 2.904504  Q 3.365314 1.917076 5.269639 1.503969  Q 7.173963 1.090862 8.786088 1.111013  L 8.80624 1.111013  Q 10.438519 1.090862 12.342842 1.514045  Q 14.247168 1.937228 16.282476 2.904504  L 16.282476 15.055907  L 17.048237 15.055907  L 17.048237 2.461169  Q 15.496564 1.695409 12.947391 1.100937  Q 10.398216 0.506466 8.80624 0.587072  L 8.786088 0.566921  Z  M 8.80624 1.634954  Q 7.617298 1.634954 6.911992 1.83647  Q 7.6576 3.146323 8.80624 3.811326  L 8.80624 3.831476  Q 9.934731 3.166475 10.70049 1.856622  Q 9.975033 1.634954 8.80624 1.634954  L 8.80624 1.634954  Z  M 8.80624 15.579849  Q 8.564421 15.579849 8.403209 15.418637  Q 7.6576 13.82666 7.6576 10.944985  Q 7.576994 8.567098 8.262148 4.153902  Q 7.274721 3.408293 6.650022 2.259654  L 6.105929 1.896925  Q 2.478645 2.682837 1.833794 3.36799  L 1.833794 15.6  L 0 15.6  L 0 1.937228  Q 2.881676 0.828891 5.037895 0.395632  Q 7.194114 -0.037627 8.80624 0.002676  L 8.80624 0.002676  Q 10.398216 -0.017475 12.56451 0.405708  Q 14.730809 0.828891 17.592329 1.95738  L 17.592329 15.6  L 15.758535 15.6  L 15.758535 3.36799  Q 15.113683 2.702988 11.486401 1.896925  L 10.942309 2.259654  Q 10.317609 3.428445 9.330182 4.174053  Q 10.015337 8.587249 9.954882 10.965136  Q 9.934731 13.846811 9.209272 15.438787  Q 9.027908 15.6 8.80624 15.6  L 8.80624 15.579849  Z "/></svg>
