<?xml version="1.0" encoding="UTF-8" standalone="no"?>
<svg
   xmlns:dc="http://purl.org/dc/elements/1.1/"
   xmlns:cc="http://creativecommons.org/ns#"
   xmlns:rdf="http://www.w3.org/1999/02/22-rdf-syntax-ns#"
   xmlns:svg="http://www.w3.org/2000/svg"
   xmlns="http://www.w3.org/2000/svg"
   xmlns:sodipodi="http://sodipodi.sourceforge.net/DTD/sodipodi-0.dtd"
   xmlns:inkscape="http://www.inkscape.org/namespaces/inkscape"
   width="19.01074"
   height="17.977583"
   id="svg2744"
   sodipodi:version="0.32"
   inkscape:version="0.46"
   sodipodi:docname="O221AverSR.svg"
   inkscape:output_extension="org.inkscape.output.svg.inkscape">
  <metadata
     id="metadata2751">
    <rdf:RDF>
      <cc:Work
         rdf:about="">
        <dc:format>image/svg+xml</dc:format>
        <dc:type
           rdf:resource="http://purl.org/dc/dcmitype/StillImage" />
      </cc:Work>
    </rdf:RDF>
  </metadata>
  <defs
     id="defs2749">
    <inkscape:perspective
       sodipodi:type="inkscape:persp3d"
       inkscape:vp_x="0 : 8.9887915 : 1"
       inkscape:vp_y="0 : 1000 : 0"
       inkscape:vp_z="19.01074 : 8.9887915 : 1"
       inkscape:persp3d-origin="9.5053701 : 5.9925276 : 1"
       id="perspective2753" />
  </defs>
  <sodipodi:namedview
     inkscape:window-height="667"
     inkscape:window-width="640"
     inkscape:pageshadow="2"
     inkscape:pageopacity="0.0"
     guidetolerance="10.0"
     gridtolerance="10.0"
     objecttolerance="10.0"
     borderopacity="1.0"
     bordercolor="#666666"
     pagecolor="#ffffff"
     id="base"
     showgrid="false"
     inkscape:zoom="25.698672"
     inkscape:cx="9.5053701"
     inkscape:cy="8.9887915"
     inkscape:window-x="88"
     inkscape:window-y="67"
     inkscape:current-layer="svg2744" />
  <path
     style="fill:#000000; stroke:none"
     d="M 6.984209,0.584385 C 6.966388,3.657478 6.946401,6.730524 6.928318,9.803629 L 6.368785,9.803629 C 6.335949,6.880716 6.264804,2.995661 6.231231,0.615125 C 6.48223,0.604872 6.733209,0.594638 6.984209,0.584385 z M 8.711246,9.88343 C 8.84766,9.88343 8.984078,9.902359 9.120492,9.940251 C 9.393322,10.016038 9.590438,10.281054 9.711697,10.735768 C 9.590438,11.175325 9.393322,11.433144 9.120492,11.508929 C 8.984077,11.546823 8.84766,11.56577 8.711244,11.56577 C 8.574827,11.56577 8.438412,11.546823 8.301998,11.508929 C 8.029169,11.433143 7.801701,11.236029 7.619815,10.917726 L 7.619815,10.554122 C 7.801701,10.220664 8.029169,10.016038 8.301998,9.940251 C 8.438413,9.902359 8.57483,9.88343 8.711246,9.88343 z M 11.326019,9.88343 C 11.462433,9.88343 11.598851,9.902359 11.735267,9.940251 C 12.008098,10.016038 12.235252,10.220664 12.417139,10.554122 L 12.417139,10.917726 C 12.235253,11.236027 12.008097,11.433144 11.735267,11.508929 C 11.598851,11.546823 11.462435,11.56577 11.326018,11.56577 C 11.189603,11.56577 11.053187,11.546823 10.916773,11.508929 C 10.643943,11.433143 10.446826,11.175325 10.325567,10.735768 C 10.446826,10.281054 10.643943,10.016038 10.916773,9.940251 C 11.053186,9.902359 11.189605,9.88343 11.326019,9.88343 z M 6.91745,11.66791 C 6.913985,12.286293 6.910743,12.904811 6.907514,13.523185 C 6.960507,14.221703 6.991391,14.923053 7.059973,15.619412 C 7.100083,15.991961 7.304996,16.339073 7.260249,16.720158 C 7.193514,16.977459 7.050628,17.381409 6.809532,17.381409 C 6.756027,17.381409 6.697687,17.361515 6.634268,17.31571 C 6.243901,17.137701 5.871885,16.843447 5.441622,16.843447 C 5.41779,16.843447 5.393779,16.844349 5.369576,16.846222 C 5.348289,16.845926 5.327012,16.845783 5.305745,16.845783 C 4.487683,16.845783 3.683645,17.060154 2.871863,17.153936 C 2.428295,17.228737 1.986407,17.348343 1.536592,17.348343 C 1.517593,17.348343 1.49858,17.348131 1.479552,17.347691 C 2.291399,17.130123 3.093309,16.762785 3.732897,16.116224 C 4.603604,15.314467 5.477156,14.516921 6.346118,13.712593 C 6.380747,13.662121 6.390055,12.866888 6.384621,11.66791 L 6.91745,11.66791 z M 7.426338,0 C 7.426245,0 7.426152,4e-06 7.426059,1.2e-05 C 6.996314,0.01675 6.356201,0.008922 5.927866,0.040998 C 5.698869,0.119507 5.738497,0.423279 5.741873,0.641207 C 5.784437,3.695305 5.826927,6.749532 5.869491,9.803629 L 1.094835,9.803629 L 1.094835,11.66791 L 5.895574,11.66791 C 5.903527,12.238613 5.911529,12.809337 5.919483,13.380041 C 4.9692,14.240783 4.02723,15.114847 3.071518,15.96687 C 2.536746,16.379396 1.918106,16.636053 1.293869,16.771702 C 1.014725,16.768398 0.732725,16.597183 0.454721,16.597183 C 0.365587,16.597183 0.276864,16.614784 0.188777,16.661161 C -0.025637,16.856207 -0.099697,17.390047 0.187225,17.553556 C 0.618934,17.827839 1.099779,17.932365 1.583909,17.932365 C 1.889702,17.932365 2.196805,17.890665 2.493666,17.823698 C 3.183316,17.684944 3.879958,17.603659 4.572506,17.48773 C 4.800462,17.46426 5.037175,17.427855 5.270219,17.427855 C 5.521794,17.427855 5.769094,17.47028 5.996488,17.61721 C 6.270029,17.7609 6.572207,17.977583 6.876806,17.977583 C 6.978593,17.977583 7.080651,17.953386 7.182001,17.894182 C 7.501122,17.658335 7.685204,17.219032 7.762959,16.794058 C 7.827365,16.239624 7.511112,15.749022 7.516727,15.198056 C 7.480433,14.595725 7.422675,13.994474 7.399977,13.39153 C 7.402922,12.89386 7.407328,12.329482 7.412708,11.730321 C 7.754166,11.967491 8.050601,12.121282 8.301998,12.191112 C 8.438412,12.229005 8.574829,12.247952 8.711246,12.247952 C 8.847661,12.247952 8.984078,12.229005 9.120492,12.191112 C 9.393322,12.115327 9.651138,11.94074 9.893654,11.66791 L 10.143611,11.66791 C 10.386126,11.940738 10.643943,12.115327 10.916773,12.191112 C 11.053187,12.229005 11.189603,12.247952 11.326019,12.247952 C 11.462436,12.247952 11.598853,12.229005 11.735267,12.191112 C 12.008098,12.115327 12.333811,11.94074 12.712741,11.66791 L 14.200998,11.66791 L 14.131444,11.715106 C 12.918291,13.446362 11.944582,14.927106 11.210821,16.157211 C 10.711862,16.476126 10.350001,16.729397 10.124981,16.91733 C 9.899961,17.105261 9.562461,17.245085 9.11242,17.336203 C 8.544977,17.381763 8.261322,17.489836 8.261322,17.660683 L 8.261322,17.677759 L 8.261322,17.899773 C 8.254801,17.945324 8.450436,17.968096 8.848206,17.968096 C 9.047169,17.968096 9.296704,17.962399 9.59681,17.951004 C 9.916209,17.852352 10.183438,17.803083 10.39857,17.803083 C 10.506332,17.803083 10.601023,17.815447 10.68265,17.840155 C 10.927237,17.914188 11.127875,17.951004 11.284411,17.951004 C 11.440949,17.951004 11.565628,17.902815 11.658572,17.806 C 11.751516,17.709185 11.822351,17.410099 11.871269,16.908945 C 11.871269,16.772268 12.277355,16.23966 13.089385,15.311391 C 13.901415,14.383121 14.366157,13.679873 14.483559,13.2015 C 14.483558,13.076212 14.635159,12.916948 14.938451,12.72332 C 15.046067,12.72332 15.290622,12.967906 15.672176,13.457667 C 16.415724,14.505535 16.922129,15.251593 17.191174,15.695798 C 17.460222,16.140001 17.496763,16.427711 17.301092,16.558695 C 17.105423,16.689678 16.909906,16.866318 16.714237,17.088419 C 16.536764,17.289864 16.35125,17.390614 16.157679,17.390614 C 16.137831,17.390614 16.117897,17.389555 16.097881,17.387438 C 15.667409,17.467165 15.452027,17.59799 15.452027,17.780226 L 15.452027,17.951004 L 16.963572,17.951004 C 17.243921,17.77643 17.490597,17.689213 17.703604,17.689213 C 17.810234,17.689213 17.908426,17.711069 17.99818,17.754765 C 18.267227,17.885746 18.475235,17.951004 18.621988,17.951004 C 18.847008,17.916832 18.959509,17.808762 18.959509,17.626526 C 18.959509,17.432899 18.881302,17.210754 18.724766,16.96018 C 18.480177,16.504583 18.171848,15.704334 17.800077,14.559654 C 17.428305,13.414976 16.80715,12.586596 15.936419,12.074052 C 15.715905,11.901261 15.517575,11.765803 15.341178,11.66791 L 19.01074,11.66791 L 19.01074,9.803629 L 12.712741,9.803629 C 12.333813,9.5308 12.008097,9.356522 11.735267,9.280736 C 11.598853,9.242844 11.462436,9.223897 11.326019,9.223897 C 11.189604,9.223897 11.053187,9.242844 10.916773,9.280736 C 10.643943,9.356522 10.386126,9.5308 10.143611,9.803629 L 9.893654,9.803629 C 9.651138,9.5308 9.393322,9.356522 9.120492,9.280736 C 8.984078,9.242844 8.84766,9.223913 8.711246,9.223913 C 8.57483,9.223913 8.438413,9.242844 8.301998,9.280736 C 8.055401,9.349236 7.765519,9.498398 7.43227,9.727865 C 7.476902,5.290115 7.534593,0 7.426338,0 z"
     id="path2746"
     sodipodi:nodetypes="ccccccscsssccsccsccssscscccscssssscsscccccscscccccccssssscssssccccsssccsssccccsccccscsssssscccssssscccsssscscccccsssccssscc" />
</svg>
