<?xml version="1.0" encoding="UTF-8" standalone="no"?>
<svg
   xmlns:dc="http://purl.org/dc/elements/1.1/"
   xmlns:cc="http://web.resource.org/cc/"
   xmlns:rdf="http://www.w3.org/1999/02/22-rdf-syntax-ns#"
   xmlns:svg="http://www.w3.org/2000/svg"
   xmlns="http://www.w3.org/2000/svg"
   xmlns:sodipodi="http://sodipodi.sourceforge.net/DTD/sodipodi-0.dtd"
   xmlns:inkscape="http://www.inkscape.org/namespaces/inkscape"
   width="15.84375"
   height="13.845881"
   id="svg2"
   sodipodi:version="0.32"
   inkscape:version="0.44"
   sodipodi:docname="O23.svg"
   sodipodi:docbase="/home/rosmord/Travail/Gsigns/SThomasDetail/FullFont/O"
   version="1.0">
  <metadata
     id="metadata9">
    <rdf:RDF>
      <cc:Work
         rdf:about="">
        <dc:format>image/svg+xml</dc:format>
        <dc:type
           rdf:resource="http://purl.org/dc/dcmitype/StillImage" />
      </cc:Work>
    </rdf:RDF>
  </metadata>
  <defs
     id="defs7" />
  <sodipodi:namedview
     inkscape:window-height="583"
     inkscape:window-width="1009"
     inkscape:pageshadow="2"
     inkscape:pageopacity="0.0"
     guidetolerance="10.0"
     gridtolerance="10.0"
     objecttolerance="10.0"
     borderopacity="1.0"
     bordercolor="#666666"
     pagecolor="#ffffff"
     id="base"
     inkscape:zoom="20.519084"
     inkscape:cx="1.0622655"
     inkscape:cy="7.5819129"
     inkscape:window-x="77"
     inkscape:window-y="118"
     inkscape:current-layer="svg2" />
  <path
     style="fill:black;stroke:none"
     d="M 5.851562,8.7990055 C 5.4973953,8.7990055 5.2447913,9.0516098 5.09375,9.5568185 C 4.9427087,10.062027 4.742188,10.410985 4.492188,10.603693 C 4.242188,10.796402 3.9453127,10.892756 3.601562,10.892756 C 3.2578127,10.892756 3.0807293,11.319839 3.070312,12.174006 L 5.351562,12.174006 L 5.351562,10.705256 C 5.351562,10.163589 5.502604,9.8927555 5.804688,9.8927555 C 5.992188,9.9031722 6.085938,9.7104638 6.085938,9.3146305 C 6.085938,8.9708805 6.0078127,8.7990055 5.851562,8.7990055 z M 6.929688,12.174006 L 6.929688,2.5646305 C 6.7005213,2.5646305 6.617188,2.4396305 6.679688,2.1896305 C 6.742188,1.9708805 6.8151047,1.7208805 6.898438,1.4396305 C 6.8046873,1.2417138 6.5260413,1.0672345 6.0625,0.91619251 C 5.5989587,0.76515118 5.0755213,0.63233884 4.492188,0.51775551 C 3.0338547,0.51775551 1.9817713,0.76775551 1.335938,1.2677555 C 1.4192713,1.5490055 1.497396,1.7990055 1.570312,2.0177555 C 1.622396,2.2677555 1.5390627,2.3927555 1.320312,2.3927555 L 1.320312,12.174006 L 2.570312,12.174006 C 2.5807293,10.986506 2.903646,10.39536 3.539062,10.400569 C 4.1744793,10.405777 4.554688,10.056818 4.679688,9.3536925 C 4.804688,8.6505678 5.153646,8.2990055 5.726562,8.2990055 C 6.2994793,8.2990055 6.585938,8.5750472 6.585938,9.1271305 L 6.585938,9.5958805 C 6.585938,10.137548 6.460938,10.408381 6.210938,10.408381 C 5.971354,10.408381 5.851562,10.507339 5.851562,10.705256 L 5.851562,12.174006 L 6.929688,12.174006 z M 8.382812,12.174006 L 8.382812,2.5646305 C 8.1536453,2.5646305 8.070312,2.4396305 8.132812,2.1896305 C 8.195312,1.9708805 8.2682287,1.7208805 8.351562,1.4396305 C 8.2473953,1.3146305 8.1067707,1.2521305 7.929688,1.2521305 C 7.752604,1.2521305 7.6067707,1.3146305 7.492188,1.4396305 C 7.5755213,1.7208805 7.653646,1.9708805 7.726562,2.1896305 C 7.789062,2.4396305 7.7057287,2.5646305 7.476562,2.5646305 L 7.476562,12.174006 L 8.382812,12.174006 z M 10.007812,12.174006 L 10.007812,10.705256 C 10.007812,10.507339 9.882812,10.408381 9.632812,10.408381 C 9.3932293,10.408381 9.273438,10.137548 9.273438,9.5958805 L 9.273438,9.1271305 C 9.273438,8.5750472 9.554688,8.2990055 10.117188,8.2990055 C 10.690104,8.2990055 11.041666,8.6505678 11.171875,9.3536925 C 11.302084,10.056818 11.684896,10.405777 12.320312,10.400569 C 12.955729,10.39536 13.273438,10.986506 13.273438,12.174006 L 14.539062,12.174006 L 14.539062,2.3927555 C 14.309895,2.3927555 14.226562,2.2677555 14.289062,2.0177555 C 14.351562,1.7990055 14.424479,1.5490055 14.507812,1.2677555 C 13.872396,0.76775551 12.825521,0.51775551 11.367188,0.51775551 C 10.773437,0.63233884 10.247395,0.76515118 9.789062,0.91619251 C 9.3307287,1.0672345 9.0546873,1.2417138 8.960938,1.4396305 C 9.0442713,1.7208805 9.117188,1.9708805 9.179688,2.1896305 C 9.242188,2.4396305 9.1588547,2.5646305 8.929688,2.5646305 L 8.929688,12.174006 L 10.007812,12.174006 z M 10.007812,8.7990055 C 9.8515627,8.7990055 9.773438,8.9708805 9.773438,9.3146305 C 9.773438,9.7104638 9.867188,9.9031722 10.054688,9.8927555 C 10.356771,9.8927555 10.507812,10.163589 10.507812,10.705256 L 10.507812,12.174006 L 12.773438,12.174006 C 12.773438,11.319839 12.601563,10.892756 12.257812,10.892756 C 11.903645,10.892756 11.604166,10.796402 11.359375,10.603693 C 11.114584,10.410985 10.914063,10.062027 10.757812,9.5568185 C 10.601563,9.0516098 10.351563,8.7990055 10.007812,8.7990055 z M 14.882812,13.314631 L 14.679688,12.705256 L 1.179688,12.705256 L 0.960938,13.314631 L 14.882812,13.314631 z M 7.929688,0.83025551 C 8.6380213,0.74692218 9.229167,0.60890118 9.703125,0.41619251 C 10.177083,0.22348451 10.731771,0.085463841 11.367188,0.0021305084 C 12.981771,-0.029119492 14.450521,0.28338051 15.773438,0.93963051 C 15.867187,1.0229638 15.867187,1.1010888 15.773438,1.1740055 C 15.648438,1.2365055 15.429688,1.2677555 15.117188,1.2677555 C 15.200521,1.5490055 15.273438,1.7990055 15.335938,2.0177555 C 15.398438,2.2677555 15.315105,2.3927555 15.085938,2.3927555 L 15.085938,12.174006 L 15.648438,13.845881 L 0.210938,13.845881 L 0.773438,12.174006 L 0.773438,2.3927555 C 0.54427133,2.3927555 0.45572933,2.2677555 0.507812,2.0177555 C 0.58072933,1.7990055 0.65885467,1.5490055 0.742188,1.2677555 C 0.41927067,1.2677555 0.195312,1.2365055 0.070312,1.1740055 C -0.023437333,1.1010888 -0.023437333,1.0229638 0.070312,0.93963051 C 1.4036453,0.28338051 2.877604,-0.029119492 4.492188,0.0021305084 C 5.127604,0.085463841 5.6796873,0.22348451 6.148438,0.41619251 C 6.6171873,0.60890118 7.2109373,0.74692218 7.929688,0.83025551 z "
     id="path4"
     sodipodi:nodetypes="cssscccsscccscsccscccsssccscccccscscscccccsccssscccsccscsccccsscccssscccccccsccscsccccccscsccsc" />
</svg>
