<?xml version="1.0" encoding="UTF-8" standalone="no"?>
<svg
   xmlns:dc="http://purl.org/dc/elements/1.1/"
   xmlns:cc="http://creativecommons.org/ns#"
   xmlns:rdf="http://www.w3.org/1999/02/22-rdf-syntax-ns#"
   xmlns:svg="http://www.w3.org/2000/svg"
   xmlns="http://www.w3.org/2000/svg"
   xmlns:sodipodi="http://sodipodi.sourceforge.net/DTD/sodipodi-0.dtd"
   xmlns:inkscape="http://www.inkscape.org/namespaces/inkscape"
   width="18.115519"
   height="17.977583"
   id="svg2383"
   sodipodi:version="0.32"
   inkscape:version="0.46"
   sodipodi:docname="O23D.svg"
   inkscape:output_extension="org.inkscape.output.svg.inkscape">
  <metadata
     id="metadata2390">
    <rdf:RDF>
      <cc:Work
         rdf:about="">
        <dc:format>image/svg+xml</dc:format>
        <dc:type
           rdf:resource="http://purl.org/dc/dcmitype/StillImage" />
      </cc:Work>
    </rdf:RDF>
  </metadata>
  <defs
     id="defs2388">
    <inkscape:perspective
       sodipodi:type="inkscape:persp3d"
       inkscape:vp_x="0 : 8.9887915 : 1"
       inkscape:vp_y="0 : 1000 : 0"
       inkscape:vp_z="18.115519 : 8.9887915 : 1"
       inkscape:persp3d-origin="9.0577593 : 5.9925276 : 1"
       id="perspective2392" />
  </defs>
  <sodipodi:namedview
     inkscape:window-height="708"
     inkscape:window-width="1024"
     inkscape:pageshadow="2"
     inkscape:pageopacity="0.0"
     guidetolerance="10.0"
     gridtolerance="10.0"
     objecttolerance="10.0"
     borderopacity="1.0"
     bordercolor="#666666"
     pagecolor="#ffffff"
     id="base"
     showgrid="false"
     inkscape:zoom="27.993043"
     inkscape:cx="9.0625"
     inkscape:cy="8.9932079"
     inkscape:window-x="-4"
     inkscape:window-y="-4"
     inkscape:current-layer="svg2383" />
  <path
     style="fill:#000000; stroke:none"
     d="M 9.03125 0 C 8.877988 0 8.7552716 0.03244533 8.625 0.09375 C 8.494728 0.15505467 8.3496203 0.24412999 8.25 0.34375 C 8.15038 0.44337 8.0848911 0.54956467 8.03125 0.6875 C 7.977608 0.82543533 7.9687499 0.97173805 7.96875 1.125 C 7.96875 1.2935873 7.9852714 1.4398907 8.03125 1.5625 C 8.092554 1.7004353 8.1503797 1.8302167 8.25 1.9375 C 8.2998103 1.9911417 8.3800269 2.0222688 8.4375 2.0625 C 7.0877673 2.1167826 5.9834845 2.3373953 5.125 2.75 C 4.1364627 3.2251113 2.6810953 3.46875 0.75 3.46875 C 0.25956267 3.46875 0 3.6144554 0 3.875 C 0 4.1508707 0.25956264 4.2812499 0.75 4.28125 C 0.97458232 4.28125 1.1634769 4.256426 1.375 4.25 L 1.375 4.8125 C 1.1826759 4.8430173 0.97207265 4.9033765 0.71875 4.96875 C 0.24363933 5.0913593 0 5.3355961 0 5.71875 C 0 5.8720113 0.048369333 6.0017928 0.125 6.09375 C 0.43152333 6.09375 0.64331469 6.3869542 0.78125 7 C 0.89788649 7.5183851 1.1017768 7.8222461 1.375 7.90625 L 1.375 14.5625 C 2.754354 16.846097 5.3069933 17.96875 9.03125 17.96875 C 12.602245 17.96875 15.170808 16.846097 16.71875 14.5625 L 16.71875 7.90625 C 17.006467 7.8357661 17.223056 7.536416 17.34375 7 C 17.481685 6.386954 17.7094 6.0937502 18.03125 6.09375 C 18.092555 6.0017927 18.125 5.8720114 18.125 5.71875 C 18.125 5.335596 17.881362 5.0913595 17.40625 4.96875 C 17.137161 4.8993075 16.914095 4.8426122 16.71875 4.8125 L 16.71875 4.25 C 16.935168 4.259064 17.148495 4.28125 17.375 4.28125 C 17.865438 4.28125 18.125 4.1508708 18.125 3.875 C 18.125 3.6144553 17.865438 3.46875 17.375 3.46875 C 15.995646 3.46875 14.670657 3.2251113 13.40625 2.75 C 12.299893 2.3342782 11.050092 2.1144652 9.65625 2.0625 C 9.7098773 2.023911 9.7656515 1.9879522 9.8125 1.9375 C 9.9121193 1.8302167 9.9699452 1.7004354 10.03125 1.5625 C 10.092555 1.4245647 10.125 1.2782614 10.125 1.125 C 10.125 1.0177167 10.124402 0.90445667 10.09375 0.8125 C 10.063097 0.72054267 10.014728 0.646794 9.96875 0.5625 C 9.9227713 0.47820667 9.881467 0.41271799 9.8125 0.34375 C 9.743532 0.274782 9.6703811 0.202228 9.59375 0.15625 C 9.5171187 0.11027133 9.41212 0.061902668 9.3125 0.03125 C 9.2128807 0.000598 9.1232073 0 9.03125 0 z M 9.03125 0.40625 C 9.0925547 0.40625 9.1574451 0.42217332 9.21875 0.4375 C 9.280054 0.452826 9.3526082 0.46934801 9.40625 0.5 C 9.4598913 0.53065267 9.4929342 0.579022 9.53125 0.625 C 9.569566 0.67097867 9.6179349 0.72760869 9.65625 0.78125 C 9.6945653 0.834892 9.7034237 0.87619533 9.71875 0.9375 C 9.7340767 0.99880467 9.7500005 1.0796193 9.75 1.15625 C 9.75 1.2482067 9.7258157 1.321956 9.6875 1.40625 C 9.6491847 1.490544 9.5925546 1.5872826 9.53125 1.65625 C 9.4699453 1.725218 9.404457 1.7741847 9.3125 1.8125 C 9.220544 1.8508153 9.1232073 1.875 9.03125 1.875 C 8.9392927 1.875 8.8655436 1.8508154 8.78125 1.8125 C 8.6969567 1.7741847 8.6238044 1.725218 8.5625 1.65625 C 8.5011953 1.5872827 8.4445654 1.490544 8.40625 1.40625 C 8.3679347 1.321956 8.3437502 1.2482067 8.34375 1.15625 C 8.34375 1.0489667 8.3679347 0.95929399 8.40625 0.875 C 8.4445653 0.79070667 8.5011951 0.693968 8.5625 0.625 C 8.6238047 0.556032 8.6969563 0.50706534 8.78125 0.46875 C 8.865544 0.43043467 8.9392927 0.40625001 9.03125 0.40625 z M 9.03125 2.84375 C 9.5523393 2.84375 9.9747268 2.9410861 10.28125 3.125 C 9.9440747 3.4161973 9.7252179 3.7577698 9.65625 4.15625 C 9.587282 4.55473 9.488751 4.8060319 9.3125 4.875 C 9.1362493 4.9439673 8.949838 4.9439672 8.78125 4.875 C 8.6126627 4.806032 8.5064678 4.5547298 8.4375 4.15625 C 8.3685327 3.75777 8.149676 3.4161974 7.8125 3.125 C 8.1190233 2.941086 8.5254867 2.8437499 9.03125 2.84375 z M 7.15625 2.875 C 7.2107133 2.8672366 7.2585133 2.8809465 7.3125 2.875 C 7.2640823 2.9733127 7.25 3.0602929 7.25 3.1875 C 7.25 3.3254353 7.2824452 3.4552166 7.34375 3.5625 C 7.6655987 3.5625 7.8933141 3.8557039 8.03125 4.46875 C 8.1691847 5.0817967 8.3644546 5.4062499 8.625 5.40625 L 8.625 14.5625 L 7.125 14.5625 L 7.125 13 C 7.125 12.785434 7.2707054 12.6875 7.53125 12.6875 C 7.8377733 12.6875 7.9687501 12.590164 7.96875 12.40625 L 7.96875 11 C 7.96875 10.708803 7.6431009 10.5625 6.96875 10.5625 C 6.24842 10.5625 5.7935875 10.912333 5.625 11.625 C 5.456412 12.337667 4.9921234 12.695163 4.1875 12.6875 C 3.3828767 12.679837 2.96875 13.305755 2.96875 14.5625 L 2.21875 14.5625 L 2.21875 7.90625 C 2.5004848 7.8357661 2.6918065 7.536416 2.8125 7 C 2.9504353 6.386954 3.2094006 6.0937502 3.53125 6.09375 C 3.6078807 6.0017927 3.6250001 5.8720114 3.625 5.71875 C 3.625 5.335596 3.3890233 5.0913595 2.90625 4.96875 C 2.6328201 4.8993075 2.4159772 4.8426122 2.21875 4.8125 L 2.21875 4.21875 C 3.4238588 4.1238056 4.3947199 3.906467 5.09375 3.5625 C 5.817911 3.2061665 6.5010567 2.9683936 7.15625 2.875 z M 10.78125 2.875 C 11.512898 2.9499087 12.337453 3.1723067 13.25 3.5625 C 14.001825 3.8839699 14.881104 4.0835434 15.875 4.1875 L 15.875 4.8125 C 15.682676 4.8430173 15.472072 4.9033765 15.21875 4.96875 C 14.743639 5.0913593 14.5 5.3355961 14.5 5.71875 C 14.5 5.8720113 14.548369 6.0017928 14.625 6.09375 C 14.931523 6.09375 15.143315 6.3869542 15.28125 7 C 15.401943 7.5364159 15.618533 7.8357662 15.90625 7.90625 L 15.90625 14.5625 L 15.1875 14.5625 C 15.1875 13.305755 14.781036 12.679837 13.96875 12.6875 C 13.156463 12.695163 12.637338 12.337666 12.46875 11.625 C 12.300163 10.912333 11.87658 10.5625 11.15625 10.5625 C 10.481899 10.5625 10.125 10.708802 10.125 11 L 10.125 12.40625 C 10.125 12.590165 10.303151 12.6875 10.625 12.6875 C 10.885545 12.6875 11 12.785434 11 13 L 11 14.5625 L 9.4375 14.5625 L 9.4375 5.40625 C 9.7133713 5.40625 9.9245649 5.0817966 10.0625 4.46875 C 10.200436 3.855704 10.443477 3.5624999 10.75 3.5625 C 10.826631 3.4552167 10.84375 3.3254354 10.84375 3.1875 C 10.84375 3.0602929 10.829668 2.9733127 10.78125 2.875 z M 1.8125 5.375 C 2.3182633 5.375 2.7406506 5.4723359 3.0625 5.65625 C 2.709998 5.9474473 2.4988048 6.2813566 2.4375 6.6875 C 2.3761953 7.0936427 2.2700006 7.3449453 2.09375 7.40625 C 1.9174993 7.4675547 1.7387514 7.4675547 1.5625 7.40625 C 1.3862493 7.3449453 1.2564673 7.0936426 1.1875 6.6875 C 1.118532 6.2813567 0.89967534 5.9474472 0.5625 5.65625 C 0.86902333 5.472336 1.2914107 5.3750002 1.8125 5.375 z M 16.3125 5.375 C 16.818264 5.375 17.224728 5.4723359 17.53125 5.65625 C 17.194075 5.9474473 17.006469 6.2813566 16.9375 6.6875 C 16.868533 7.0936427 16.731088 7.3449453 16.5625 7.40625 C 16.393912 7.4675547 16.23875 7.4675547 16.0625 7.40625 C 15.88625 7.3449453 15.756468 7.0936426 15.6875 6.6875 C 15.618532 6.2813567 15.430925 5.9474472 15.09375 5.65625 C 15.400273 5.472336 15.791411 5.3750002 16.3125 5.375 z M 7.125 11 C 7.308914 11 7.40625 11.096739 7.40625 11.25 L 7.40625 12 C 7.40625 12.153262 7.2923928 12.21875 7.0625 12.21875 C 6.7406513 12.21875 6.5624999 12.478911 6.5625 13 L 6.5625 14.5625 L 3.59375 14.5625 C 3.59375 13.612278 3.8208675 13.125 4.25 13.125 C 4.6944587 13.125 5.0844006 13.027664 5.40625 12.84375 C 5.7280987 12.659835 5.9959229 12.302339 6.1875 11.78125 C 6.3790767 11.260161 6.6805411 11 7.125 11 z M 11 11 C 11.444459 11 11.777174 11.260161 11.96875 11.78125 C 12.160327 12.302339 12.404564 12.659836 12.71875 12.84375 C 13.032936 13.027663 13.430542 13.125 13.875 13.125 C 14.304132 13.125 14.515924 13.612278 14.53125 14.5625 L 11.53125 14.5625 L 11.53125 13 C 11.53125 12.478911 11.384349 12.21875 11.0625 12.21875 C 10.832607 12.21875 10.71875 12.153262 10.71875 12 L 10.71875 11.25 C 10.71875 11.096739 10.80076 11 11 11 z M 2.5625 15.09375 L 9.03125 15.09375 L 15.375 15.09375 C 13.842384 16.626365 11.728653 17.40625 9.03125 17.40625 C 6.2112367 17.40625 4.0491367 16.626365 2.5625 15.09375 z M 9.03125 17.40625 L 10.5625 16.25 L 9.03125 15.09375 L 7.53125 16.25 L 9.03125 17.40625 z M 9.03125 15.53125 L 10.03125 16.25 L 9.03125 17 L 8.03125 16.25 L 9.03125 15.53125 z "
     id="path2385" />
</svg>
