<?xml version="1.0" encoding="UTF-8" standalone="no"?>
<svg
   xmlns:dc="http://purl.org/dc/elements/1.1/"
   xmlns:cc="http://creativecommons.org/ns#"
   xmlns:rdf="http://www.w3.org/1999/02/22-rdf-syntax-ns#"
   xmlns:svg="http://www.w3.org/2000/svg"
   xmlns="http://www.w3.org/2000/svg"
   xmlns:sodipodi="http://sodipodi.sourceforge.net/DTD/sodipodi-0.dtd"
   xmlns:inkscape="http://www.inkscape.org/namespaces/inkscape"
   width="18.816875"
   height="8.771044"
   id="svg3738"
   sodipodi:version="0.32"
   inkscape:version="0.46"
   sodipodi:docname="O282varSR.svg"
   inkscape:output_extension="org.inkscape.output.svg.inkscape">
  <metadata
     id="metadata3745">
    <rdf:RDF>
      <cc:Work
         rdf:about="">
        <dc:format>image/svg+xml</dc:format>
        <dc:type
           rdf:resource="http://purl.org/dc/dcmitype/StillImage" />
      </cc:Work>
    </rdf:RDF>
  </metadata>
  <defs
     id="defs3743">
    <inkscape:perspective
       sodipodi:type="inkscape:persp3d"
       inkscape:vp_x="0 : 4.3855219 : 1"
       inkscape:vp_y="0 : 1000 : 0"
       inkscape:vp_z="18.816875 : 4.3855219 : 1"
       inkscape:persp3d-origin="9.4084377 : 2.9236813 : 1"
       id="perspective3747" />
  </defs>
  <sodipodi:namedview
     inkscape:window-height="667"
     inkscape:window-width="640"
     inkscape:pageshadow="2"
     inkscape:pageopacity="0.0"
     guidetolerance="10.0"
     gridtolerance="10.0"
     objecttolerance="10.0"
     borderopacity="1.0"
     bordercolor="#666666"
     pagecolor="#ffffff"
     id="base"
     showgrid="false"
     inkscape:zoom="28.91022"
     inkscape:cx="9.4084377"
     inkscape:cy="4.3855219"
     inkscape:window-x="88"
     inkscape:window-y="67"
     inkscape:current-layer="svg3738" />
  <path
     style="fill:#000000; stroke:none"
     d="M 11.084375,0 C 10.94707,0 10.809766,0.019065 10.6725,0.057194 C 10.397968,0.133452 10.138714,0.308914 9.894688,0.583444 L 9.643125,0.583444 C 9.399097,0.308914 9.139843,0.133453 8.865313,0.057194 C 8.728046,0.019064 8.590702,6e-06 8.453438,6e-06 C 8.316173,6e-06 8.178827,0.019065 8.041562,0.057194 C 7.767032,0.133452 7.439104,0.308914 7.057813,0.583444 L 0.789375,0.583444 L 0.789375,2.459381 L 4.545312,2.459381 C 3.608244,4.204439 2.855586,5.697438 2.288125,6.938444 C 1.90107,7.261173 1.620492,7.517642 1.445938,7.707819 C 1.271383,7.897999 1.009421,8.039048 0.660312,8.131256 C 0.220133,8.17736 0,8.287115 0,8.460006 L 0,8.477194 L 0,8.701881 C -0.00506,8.747989 0.14674,8.771044 0.455402,8.771044 C 0.60971,8.771044 0.803221,8.765281 1.035938,8.753757 C 1.283714,8.653921 1.491099,8.604059 1.65804,8.604059 C 1.741654,8.604059 1.815122,8.616568 1.878438,8.641568 C 2.068171,8.716488 2.223884,8.753757 2.345313,8.753757 C 2.466742,8.753757 2.563215,8.704851 2.635313,8.606881 C 2.707412,8.508908 2.762678,8.206212 2.800625,7.699069 C 2.800625,7.560757 3.115399,7.021875 3.745312,6.082506 C 4.375226,5.143138 4.735803,4.431601 4.826875,3.947506 C 4.826875,3.82072 4.944419,3.659386 5.179688,3.463444 C 5.26317,3.463444 5.453081,3.711265 5.749063,4.206881 C 6.325851,5.267273 6.718482,6.022055 6.927187,6.471569 C 7.135893,6.921083 7.164287,7.212145 7.0125,7.344694 C 6.860714,7.477242 6.708975,7.655874 6.557188,7.880631 C 6.419527,8.084472 6.275625,8.186349 6.125479,8.186349 C 6.110073,8.186349 6.094601,8.185276 6.079062,8.183131 C 5.745132,8.263812 5.578125,8.396527 5.578125,8.580944 L 5.578125,8.753757 L 6.750625,8.753757 C 6.968158,8.577045 7.159665,8.488712 7.325002,8.488712 C 7.4077,8.488712 7.483852,8.510812 7.553438,8.555006 C 7.762144,8.687556 7.923348,8.753757 8.037188,8.753757 C 8.211741,8.719177 8.299063,8.609735 8.299063,8.425319 C 8.299063,8.229378 8.238303,8.004516 8.116875,7.750944 C 7.927141,7.289906 7.68808,6.480244 7.399687,5.321881 C 7.111293,4.163518 6.629199,3.324927 5.95375,2.806256 C 5.816831,2.666295 5.690933,2.550782 5.575937,2.459381 L 7.057813,2.459381 C 7.439105,2.733911 7.767031,2.909373 8.041562,2.985631 C 8.178827,3.023761 8.316133,3.042825 8.453438,3.042825 C 8.590742,3.042825 8.728046,3.023761 8.865313,2.985631 C 9.139843,2.909371 9.399097,2.733911 9.643125,2.459381 L 9.894688,2.459381 C 10.138715,2.733911 10.397968,2.909373 10.6725,2.985631 C 10.809766,3.023761 10.94707,3.042825 11.084375,3.042825 C 11.22168,3.042825 11.358984,3.023761 11.49625,2.985631 C 11.770782,2.909371 12.098394,2.733911 12.479688,2.459381 L 13.892813,2.459381 C 12.959775,4.197496 12.210084,5.685332 11.644375,6.922506 C 11.25732,7.245235 10.976742,7.501704 10.802188,7.691881 C 10.627632,7.882062 10.365671,8.023423 10.016562,8.115631 C 9.576384,8.161736 9.35625,8.271178 9.35625,8.444069 L 9.35625,8.461256 L 9.35625,8.685944 C 9.351191,8.732051 9.50299,8.755105 9.811651,8.755105 C 9.96596,8.755105 10.159471,8.749343 10.392187,8.737819 C 10.639963,8.637983 10.847348,8.588121 11.014291,8.588121 C 11.097904,8.588121 11.171372,8.60063 11.234688,8.625631 C 11.424421,8.70055 11.580133,8.737819 11.701563,8.737819 C 11.822992,8.737819 11.919464,8.688913 11.991563,8.590943 C 12.063661,8.492971 12.118928,8.190274 12.156875,7.683131 C 12.156875,7.544819 12.47165,7.00625 13.101562,6.066881 C 13.731476,5.127513 14.092053,4.415663 14.183125,3.931569 C 14.183125,3.804784 14.300671,3.643449 14.535937,3.447506 C 14.61942,3.447506 14.80933,3.695327 15.105312,4.190944 C 15.682102,5.251336 16.074732,6.006118 16.283438,6.455631 C 16.492144,6.905144 16.520536,7.196206 16.36875,7.328756 C 16.216965,7.461306 16.065224,7.639935 15.913438,7.864694 C 15.775743,8.068582 15.631808,8.170716 15.481624,8.170716 C 15.466252,8.170716 15.450815,8.169646 15.435312,8.167506 C 15.101382,8.248187 14.934375,8.380589 14.934375,8.565006 L 14.934375,8.737819 L 16.106874,8.737819 C 16.324408,8.561109 16.515915,8.472775 16.681252,8.472775 C 16.76395,8.472775 16.840101,8.494874 16.909687,8.539068 C 17.118393,8.671618 17.279596,8.737819 17.393438,8.737819 C 17.567991,8.703239 17.655312,8.593798 17.655312,8.409381 C 17.655312,8.213439 17.594553,7.988579 17.473125,7.735006 C 17.283392,7.273966 17.044331,6.464305 16.755938,5.305943 C 16.467545,4.147581 15.985449,3.309302 15.31,2.790631 C 15.180917,2.65868 15.061784,2.548171 14.952188,2.459381 L 18.816875,2.459381 L 18.816875,0.583444 L 12.479688,0.583444 C 12.098394,0.308914 11.770782,0.133453 11.49625,0.057194 C 11.358984,0.019065 11.22168,0 11.084375,0 z"
     id="path3740"
     sodipodi:nodetypes="csccssscccccsccccscsssssscccssssscccsssssscccsssccssscccsccccscsssssscccssssscccsssssscccccsc" />
</svg>
