<?xml version="1.0" encoding="UTF-8" standalone="no"?>
<svg
   xmlns:dc="http://purl.org/dc/elements/1.1/"
   xmlns:cc="http://web.resource.org/cc/"
   xmlns:rdf="http://www.w3.org/1999/02/22-rdf-syntax-ns#"
   xmlns:svg="http://www.w3.org/2000/svg"
   xmlns="http://www.w3.org/2000/svg"
   xmlns:sodipodi="http://inkscape.sourceforge.net/DTD/sodipodi-0.dtd"
   xmlns:inkscape="http://www.inkscape.org/namespaces/inkscape"
   width="15.297162"
   height="14.530001pt"
   id="svg1474"
   sodipodi:version="0.32"
   inkscape:version="0.43"
   sodipodi:docname="O292.svg"
   sodipodi:docbase="C:\Program Files\JSesh\fonts"
   version="1.0">
  <metadata
     id="metadata1481">
    <rdf:RDF>
      <cc:Work
         rdf:about="">
        <dc:format>image/svg+xml</dc:format>
        <dc:type
           rdf:resource="http://purl.org/dc/dcmitype/StillImage" />
      </cc:Work>
    </rdf:RDF>
  </metadata>
  <defs
     id="defs1479" />
  <sodipodi:namedview
     inkscape:window-height="708"
     inkscape:window-width="1024"
     inkscape:pageshadow="2"
     inkscape:pageopacity="0.0"
     borderopacity="1.0"
     bordercolor="#666666"
     pagecolor="#ffffff"
     id="base"
     showgrid="false"
     gridspacingx="0px"
     gridspacingy="0px"
     inkscape:zoom="30.417141"
     inkscape:cx="7.648581"
     inkscape:cy="9.3023646"
     inkscape:window-x="-4"
     inkscape:window-y="-4"
     inkscape:current-layer="svg1474" />
  <g
     id="g1579">
    <path
       id="path1476"
       d="M 15.297162,8.16 L 10.637546,8.16 L 10.637546,7.296268 L 14.410698,7.296268 L 14.410698,0.886463 L 0.886463,0.886463 L 0.886463,7.296268 L 4.65961,7.296268 L 4.65961,8.16 L 0,8.16 L 0,0 L 15.297162,0 L 15.297162,8.16 z "
       style="fill:#000000;stroke:none" />
    <path
       id="path1571"
       d="M 7.6345078,14.082159 C 7.3576218,14.174454 7.1466608,14.332675 7.0016248,14.556821 L 5.0238648,17.286129 C 4.6810535,17.681681 4.4107595,17.806939 4.2129828,17.661904 C 4.0152075,17.530054 4.0547628,17.239982 4.3316488,16.791689 L 6.3094088,14.062381 C 6.4808142,13.851419 6.5665168,13.600903 6.5665168,13.310833 C 6.4082962,13.073501 6.2039275,12.91528 5.9534108,12.83617 L 2.7296638,11.807735 C 2.2418165,11.609959 2.0374478,11.392405 2.1165578,11.155074 C 2.1824832,10.930928 2.4725548,10.878188 2.9867728,10.996854 L 6.1907428,12.045067 C 6.4412588,12.150547 6.7049602,12.150547 6.9818468,12.045067 C 7.1400682,11.82092 7.2125858,11.576996 7.1993998,11.313295 L 7.1993998,7.9313258 C 7.2389552,7.4171085 7.3839912,7.1599998 7.6345078,7.1599998 C 7.8718385,7.1599998 8.0102815,7.4171085 8.0498368,7.9313258 L 8.0498368,11.313295 C 8.0366522,11.576996 8.1157625,11.82092 8.2871678,12.045067 C 8.5508692,12.137362 8.8079775,12.137362 9.0584928,12.045067 L 12.282243,10.996854 C 12.783276,10.878188 13.073347,10.93752 13.152457,11.174852 C 13.231567,11.398998 13.027199,11.609959 12.539352,11.807735 L 9.3353818,12.83617 C 9.0716805,12.91528 8.8607192,13.073501 8.7024978,13.310833 C 8.6893125,13.587718 8.7684232,13.831642 8.9398298,14.042604 L 10.937366,16.771911 C 11.201068,17.220203 11.23403,17.516867 11.036254,17.661904 C 10.851662,17.806939 10.587961,17.681681 10.24515,17.286129 L 8.2673898,14.556821 C 8.1091698,14.319489 7.8982092,14.161269 7.6345078,14.082159 L 7.6345078,14.082159 z M 6.6654058,13.073502 C 6.6654058,13.284462 6.7544045,13.495422 6.9324018,13.706384 C 7.1104005,13.917345 7.3378435,14.022826 7.6147308,14.022826 C 7.9179868,14.022826 8.1586142,13.923937 8.3366128,13.726161 C 8.5146102,13.528385 8.6036088,13.310832 8.6036088,13.073502 C 8.6036088,12.8098 8.5014248,12.585654 8.2970568,12.401063 C 8.0926882,12.216472 7.8718385,12.124177 7.6345078,12.124177 C 7.3444358,12.124177 7.1104005,12.219768 6.9324018,12.410952 C 6.7544045,12.602135 6.6654058,12.822985 6.6654058,13.073502 L 6.6654058,13.073502 z M 6.8434038,13.073502 C 6.8434038,13.244906 6.9159218,13.413016 7.0609578,13.577831 C 7.2059938,13.742643 7.3905848,13.82505 7.6147308,13.82505 C 7.8652462,13.82505 8.0597255,13.749236 8.1981688,13.597608 C 8.3366122,13.445979 8.4058338,13.271277 8.4058338,13.073502 C 8.4058338,12.86254 8.3234272,12.681245 8.1586138,12.529617 C 7.9938005,12.377989 7.8190985,12.302175 7.6345078,12.302175 C 7.3971772,12.302175 7.2059938,12.381285 7.0609578,12.539506 C 6.9159218,12.697727 6.8434038,12.875726 6.8434038,13.073502 L 6.8434038,13.073502 z "
       style="fill:#000000;stroke:none" />
  </g>
</svg>
