<?xml version="1.0" encoding="UTF-8" standalone="no"?>
<svg
   xmlns:dc="http://purl.org/dc/elements/1.1/"
   xmlns:cc="http://creativecommons.org/ns#"
   xmlns:rdf="http://www.w3.org/1999/02/22-rdf-syntax-ns#"
   xmlns:svg="http://www.w3.org/2000/svg"
   xmlns="http://www.w3.org/2000/svg"
   xmlns:sodipodi="http://sodipodi.sourceforge.net/DTD/sodipodi-0.dtd"
   xmlns:inkscape="http://www.inkscape.org/namespaces/inkscape"
   width="17.96875"
   height="20.687836"
   id="svg2383"
   sodipodi:version="0.32"
   inkscape:version="0.46"
   sodipodi:docname="O297.svg"
   inkscape:output_extension="org.inkscape.output.svg.inkscape"
   version="1.0">
  <metadata
     id="metadata2390">
    <rdf:RDF>
      <cc:Work
         rdf:about="">
        <dc:format>image/svg+xml</dc:format>
        <dc:type
           rdf:resource="http://purl.org/dc/dcmitype/StillImage" />
      </cc:Work>
    </rdf:RDF>
  </metadata>
  <defs
     id="defs2388">
    <inkscape:perspective
       sodipodi:type="inkscape:persp3d"
       inkscape:vp_x="0 : 4.3099651 : 1"
       inkscape:vp_y="0 : 1000 : 0"
       inkscape:vp_z="17.974194 : 4.3099651 : 1"
       inkscape:persp3d-origin="8.9870968 : 2.8733101 : 1"
       id="perspective2392" />
  </defs>
  <sodipodi:namedview
     inkscape:window-height="708"
     inkscape:window-width="1024"
     inkscape:pageshadow="2"
     inkscape:pageopacity="0.0"
     guidetolerance="10.0"
     gridtolerance="10.0"
     objecttolerance="10.0"
     borderopacity="1.0"
     bordercolor="#666666"
     pagecolor="#ffffff"
     id="base"
     showgrid="false"
     showguides="true"
     inkscape:guide-bbox="true"
     inkscape:zoom="24.313805"
     inkscape:cx="8.984375"
     inkscape:cy="10.343918"
     inkscape:window-x="-4"
     inkscape:window-y="-4"
     inkscape:current-layer="svg2383" />
  <path
     style="fill:#000000;stroke:none"
     d="M 0,0 L 0,8.625 L 5.4375,8.625 L 5.4375,7.6875 L 0.96875,7.6875 L 0.96875,0.96875 L 17,0.96875 L 17,7.6875 L 12.5625,7.6875 L 12.5625,8.625 L 17.96875,8.625 L 17.96875,0 L 0,0 z M 9,2.71875 C 8.0058026,2.7187499 7.2343094,3.0085973 6.6875,3.625 C 6.1406914,4.2414027 5.875,4.954642 5.875,5.75 C 5.8749998,6.6646622 6.1960974,7.418394 6.8125,8 C 6.9152338,8.0969343 7.0156382,8.1692214 7.125,8.25 L 6.46875,9.3125 C 6.5684863,9.3856401 6.6755845,9.4148796 6.78125,9.46875 L 6.125,10.46875 C 6.2319346,10.545464 6.3251297,10.631441 6.4375,10.6875 L 5.84375,11.65625 C 5.9434865,11.72939 6.0505844,11.75863 6.15625,11.8125 L 5.5,12.8125 C 5.6000047,12.888059 5.7065343,12.944311 5.8125,13 L 5.1875,14 C 5.2827772,14.068351 5.3999762,14.104296 5.5,14.15625 L 4.875,15.15625 C 4.9688822,15.225097 5.0888021,15.291977 5.1875,15.34375 L 4.5625,16.3125 C 4.6655771,16.388687 4.7976173,16.44452 4.90625,16.5 L 4.25,17.5 C 4.3427673,17.568029 4.4337806,17.636141 4.53125,17.6875 L 3.90625,18.65625 C 4.0070865,18.732437 4.1431029,18.787765 4.25,18.84375 L 3.59375,19.84375 C 4.0610226,20.181776 4.5994987,20.309651 5.15625,20.25 L 5.0625,19.09375 C 5.1869218,19.101162 5.3067248,19.107516 5.4375,19.09375 L 5.375,17.90625 C 5.5073525,17.915571 5.6420623,17.921163 5.78125,17.90625 L 5.71875,16.75 C 5.844457,16.755822 5.9933948,16.734912 6.125,16.71875 L 6.03125,15.5625 C 6.1539069,15.569383 6.2777691,15.576266 6.40625,15.5625 L 6.34375,14.40625 C 6.4694101,14.41507 6.6184464,14.41779 6.75,14.40625 L 6.65625,13.21875 C 6.7722059,13.224228 6.9098159,13.231533 7.03125,13.21875 L 6.96875,12.0625 C 7.0932297,12.069397 7.2129107,12.045022 7.34375,12.03125 L 7.28125,10.875 C 7.4044364,10.883648 7.5277691,10.886472 7.65625,10.875 L 7.59375,9.71875 C 7.7181719,9.7256329 7.8379746,9.7325158 7.96875,9.71875 L 7.90625,8.6875 C 8.0888681,8.7526885 8.2718252,8.7821839 8.46875,8.8125 L 8.21875,9.625 C 8.3312396,9.6674488 8.4500104,9.6944254 8.5625,9.71875 L 8.21875,10.8125 C 8.3412244,10.858717 8.4712756,10.912768 8.59375,10.9375 L 8.21875,12.03125 C 8.3412245,12.079778 8.4712755,12.130281 8.59375,12.15625 L 8.21875,13.25 C 8.3412244,13.296217 8.4712756,13.350268 8.59375,13.375 L 8.21875,14.46875 C 8.3333621,14.511199 8.448341,14.538175 8.5625,14.5625 L 8.21875,15.65625 C 8.3389136,15.704777 8.4730492,15.755281 8.59375,15.78125 L 8.21875,16.90625 C 8.3333621,16.950821 8.448341,16.974459 8.5625,17 L 8.21875,18.09375 C 8.3389136,18.142277 8.4730492,18.192781 8.59375,18.21875 L 8.21875,19.3125 C 8.3383024,19.360781 8.442416,19.411549 8.5625,19.4375 L 8.21875,20.53125 C 8.7456747,20.740031 9.2543247,20.740031 9.78125,20.53125 L 9.4375,19.40625 C 9.5474332,19.380839 9.6708807,19.356231 9.78125,19.3125 L 9.4375,18.21875 C 9.5588198,18.192799 9.6593985,18.142031 9.78125,18.09375 L 9.4375,17 C 9.5698527,16.973902 9.6807685,16.958445 9.8125,16.90625 L 9.4375,15.78125 C 9.5588198,15.755299 9.6593985,15.704531 9.78125,15.65625 L 9.4375,14.5625 C 9.5698527,14.537645 9.6807685,14.51846 9.8125,14.46875 L 9.4375,13.375 C 9.5593514,13.350285 9.6593985,13.295982 9.78125,13.25 L 9.4375,12.15625 C 9.5599744,12.130281 9.6900255,12.079778 9.8125,12.03125 L 9.4375,10.9375 C 9.5593514,10.912785 9.6593985,10.858482 9.78125,10.8125 L 9.4375,9.71875 C 9.5596104,9.6940277 9.6903895,9.6710793 9.8125,9.625 L 9.5625,8.8125 C 9.7413686,8.7834898 9.9011763,8.7433436 10.0625,8.6875 L 10,9.71875 C 10.128481,9.7325157 10.252343,9.7261624 10.375,9.71875 L 10.3125,10.875 C 10.443275,10.888766 10.563078,10.881883 10.6875,10.875 L 10.625,12.03125 C 10.753544,12.045022 10.877286,12.069397 11,12.0625 L 10.9375,13.21875 C 11.068275,13.232516 11.187549,13.225633 11.3125,13.21875 L 11.25,14.375 C 11.378544,14.388773 11.501756,14.413146 11.625,14.40625 L 11.5625,15.5625 C 11.690981,15.57856 11.814314,15.568148 11.9375,15.5625 L 11.875,16.71875 C 12.016673,16.736149 12.147034,16.758699 12.28125,16.75 L 12.1875,17.90625 C 12.319054,17.920098 12.468626,17.913298 12.59375,17.90625 L 12.53125,19.0625 C 12.659794,19.078568 12.783536,19.099411 12.90625,19.09375 L 12.8125,20.25 C 13.379193,20.319592 13.886419,20.181776 14.34375,19.84375 L 13.71875,18.84375 C 13.824219,18.788558 13.931245,18.731809 14.03125,18.65625 L 13.4375,17.6875 C 13.535397,17.636141 13.625983,17.568029 13.71875,17.5 L 13.09375,16.5 C 13.191647,16.445801 13.282232,16.384652 13.375,16.3125 L 12.78125,15.34375 C 12.888445,15.288558 12.991523,15.231809 13.09375,15.15625 L 12.46875,14.15625 C 12.566887,14.105217 12.656058,14.067393 12.75,14 L 12.15625,13.03125 C 12.269164,12.975735 12.361815,12.889214 12.46875,12.8125 L 11.8125,11.8125 C 11.917672,11.75863 12.025263,11.72939 12.125,11.65625 L 11.53125,10.6875 C 11.642383,10.631985 11.73914,10.545464 11.84375,10.46875 L 11.21875,9.46875 C 11.316219,9.4157574 11.407233,9.351341 11.5,9.28125 L 10.84375,8.25 C 10.985749,8.1357314 11.129054,8.0214667 11.25,7.875 C 11.791838,7.2188291 12.0625,6.5055907 12.0625,5.75 C 12.052558,5.0242362 11.786867,4.3337287 11.25,3.6875 C 10.713133,3.0412714 9.9643725,2.728692 9,2.71875 z M 9,3.40625 C 9.7555906,3.40625 10.331012,3.6527553 10.71875,4.125 C 11.106487,4.5972434 11.335232,5.1222313 11.375,5.71875 C 11.375,6.3351532 11.151226,6.8878433 10.71875,7.375 C 10.286274,7.8621569 9.7058807,8.125 9,8.125 C 8.3438293,8.1250004 7.7847434,7.8848887 7.3125,7.4375 C 6.8402561,6.9901106 6.59375,6.4146887 6.59375,5.71875 C 6.59375,5.1122899 6.817524,4.5922733 7.25,4.125 C 7.682476,3.6577266 8.264294,3.40625 9,3.40625 z M 7.3125,8.5 L 7.625,8.59375 L 7.65625,9.40625 C 7.3679325,9.4360764 7.1136074,9.387764 6.875,9.21875 L 7.3125,8.5 z M 10.65625,8.5 L 11.09375,9.21875 C 10.855142,9.3778219 10.600818,9.4261347 10.3125,9.40625 L 10.34375,8.59375 C 10.364708,8.5838152 10.38563,8.5729515 10.40625,8.5625 L 10.65625,8.5 z M 8.78125,8.84375 C 8.8545385,8.8482408 8.9248692,8.875 9,8.875 C 9.0879397,8.8740934 9.1655738,8.8500302 9.25,8.84375 L 9.4375,9.40625 C 9.1690665,9.5056697 8.8721254,9.50567 8.59375,9.40625 L 8.78125,8.84375 z M 7,9.59375 C 7.1120387,9.6339973 7.2255686,9.6672163 7.34375,9.6875 L 7.375,10.5 C 7.0866827,10.519884 6.8011074,10.471571 6.5625,10.3125 L 7,9.59375 z M 10.96875,9.59375 L 11.40625,10.28125 C 11.167642,10.450263 10.913317,10.519884 10.625,10.5 L 10.65625,9.6875 C 10.762946,9.6665454 10.866791,9.63193 10.96875,9.59375 z M 8.84375,9.75 C 8.9041914,9.7552324 8.9708086,9.75 9.03125,9.75 L 9.15625,9.75 L 9.4375,10.53125 C 9.1591245,10.63067 8.8621834,10.63067 8.59375,10.53125 L 8.84375,9.75 z M 6.71875,10.78125 C 6.8076007,10.811501 6.9079968,10.825478 7,10.84375 L 7.0625,11.6875 C 6.7642406,11.707384 6.488608,11.627821 6.25,11.46875 L 6.71875,10.78125 z M 11.25,10.78125 L 11.71875,11.46875 C 11.480142,11.637764 11.225818,11.717326 10.9375,11.6875 L 10.96875,10.84375 C 11.061096,10.826535 11.161437,10.81076 11.25,10.78125 z M 8.84375,10.96875 C 8.8982595,10.973006 8.9454905,10.96875 9,10.96875 L 9.15625,10.96875 L 9.4375,11.75 C 9.1591245,11.84942 8.8621834,11.84942 8.59375,11.75 L 8.84375,10.96875 z M 6.40625,11.9375 C 6.509456,11.972887 6.6103788,12.01265 6.71875,12.03125 L 6.75,12.875 C 6.4616829,12.894884 6.1761074,12.815321 5.9375,12.65625 L 6.40625,11.9375 z M 11.5625,11.9375 L 12.03125,12.65625 C 11.792642,12.815321 11.517009,12.894884 11.21875,12.875 L 11.28125,12.03125 L 11.4375,12 C 11.483924,11.98759 11.517011,11.953226 11.5625,11.9375 z M 8.84375,12.1875 C 8.9041914,12.192994 8.9708086,12.1875 9.03125,12.1875 L 9.15625,12.1875 L 9.4375,13 C 9.1690665,13.089477 8.8721254,13.089477 8.59375,13 L 8.84375,12.1875 z M 6.09375,13.125 C 6.1862466,13.156895 6.2783769,13.16936 6.375,13.1875 L 6.40625,14.03125 C 6.1179329,14.051134 5.8636074,13.981514 5.625,13.8125 L 6.09375,13.125 z M 11.875,13.125 L 12.34375,13.8125 C 12.105142,13.971571 11.850817,14.051133 11.5625,14.03125 L 11.59375,13.1875 L 11.75,13.15625 C 11.791601,13.145345 11.834121,13.138465 11.875,13.125 z M 8.84375,13.40625 C 8.9486273,13.414438 9.0513727,13.413816 9.15625,13.40625 L 9.4375,14.1875 C 9.1591245,14.28692 8.8621834,14.28692 8.59375,14.1875 L 8.84375,13.40625 z M 5.78125,14.28125 C 5.8753841,14.314774 5.9645002,14.35483 6.0625,14.375 L 6.125,15.21875 C 5.8267406,15.238634 5.551108,15.159072 5.3125,15 L 5.78125,14.28125 z M 12.1875,14.28125 L 12.65625,14.96875 C 12.417642,15.127821 12.163317,15.207384 11.875,15.1875 L 11.90625,14.375 C 12.003157,14.355923 12.094107,14.314033 12.1875,14.28125 z M 8.84375,14.59375 C 8.9469698,14.602653 9.053403,14.599759 9.15625,14.59375 L 9.4375,15.40625 C 9.1591245,15.505669 8.8621834,15.505669 8.59375,15.40625 L 8.84375,14.59375 z M 5.46875,15.4375 C 5.5630131,15.470284 5.6517176,15.512716 5.75,15.53125 L 5.78125,16.375 C 5.4929325,16.404826 5.2386074,16.325264 5,16.15625 L 5.46875,15.4375 z M 12.53125,15.4375 L 12.96875,16.15625 C 12.730142,16.315321 12.475817,16.394884 12.1875,16.375 L 12.21875,15.53125 L 12.375,15.5 C 12.428873,15.485739 12.478499,15.456362 12.53125,15.4375 z M 8.84375,15.8125 C 8.8976389,15.816969 8.9460047,15.8125 9,15.8125 L 9.15625,15.8125 L 9.4375,16.625 C 9.1591245,16.714478 8.8621834,16.714478 8.59375,16.625 L 8.84375,15.8125 z M 5.15625,16.625 C 5.2503841,16.65817 5.3395002,16.699989 5.4375,16.71875 L 5.5,17.5625 C 5.2017408,17.582384 4.9261074,17.481513 4.6875,17.3125 L 5.15625,16.625 z M 12.8125,16.625 L 13.28125,17.3125 C 13.042642,17.471571 12.788317,17.551134 12.5,17.53125 L 12.53125,16.71875 C 12.629412,16.700056 12.718612,16.658655 12.8125,16.625 z M 8.84375,17.03125 C 8.9469698,17.040598 9.053403,17.03756 9.15625,17.03125 L 9.4375,17.84375 C 9.1591245,17.933228 8.8621834,17.933227 8.59375,17.84375 L 8.84375,17.03125 z M 13.15625,17.78125 L 13.59375,18.5 C 13.355142,18.659072 13.100817,18.738633 12.8125,18.71875 L 12.84375,17.875 L 13,17.84375 C 13.053873,17.829489 13.103724,17.799888 13.15625,17.78125 z M 4.84375,17.8125 C 4.9315717,17.84201 5.0337105,17.857785 5.125,17.875 L 5.15625,18.71875 C 4.8679327,18.738632 4.613608,18.659072 4.375,18.5 L 4.84375,17.8125 z M 8.84375,18.25 C 8.8976389,18.254469 8.9460047,18.25 9,18.25 L 9.15625,18.25 L 9.4375,19.03125 C 9.1591245,19.13067 8.8621834,19.13067 8.59375,19.03125 L 8.84375,18.25 z M 4.53125,18.96875 C 4.6255386,19.000631 4.713939,19.044861 4.8125,19.0625 L 4.84375,19.90625 C 4.5554326,19.926134 4.3011074,19.846571 4.0625,19.6875 L 4.53125,18.96875 z M 13.46875,18.96875 L 13.90625,19.65625 C 13.667642,19.825262 13.413317,19.926133 13.125,19.90625 L 13.15625,19.0625 C 13.263348,19.044378 13.366387,19.004519 13.46875,18.96875 z M 8.84375,19.46875 C 8.9474488,19.476694 9.0521574,19.477348 9.15625,19.46875 L 9.4375,20.25 C 9.1591245,20.339479 8.8621834,20.339478 8.59375,20.25 L 8.84375,19.46875 z"
     id="path2385" />
</svg>
