<?xml version="1.0" encoding="UTF-8" standalone="no"?>
<svg
   xmlns:dc="http://purl.org/dc/elements/1.1/"
   xmlns:cc="http://creativecommons.org/ns#"
   xmlns:rdf="http://www.w3.org/1999/02/22-rdf-syntax-ns#"
   xmlns:svg="http://www.w3.org/2000/svg"
   xmlns="http://www.w3.org/2000/svg"
   xmlns:sodipodi="http://sodipodi.sourceforge.net/DTD/sodipodi-0.dtd"
   xmlns:inkscape="http://www.inkscape.org/namespaces/inkscape"
   width="18.1"
   height="18.04578"
   id="svg3881"
   sodipodi:version="0.32"
   inkscape:version="0.46"
   sodipodi:docname="O3.svg"
   inkscape:output_extension="org.inkscape.output.svg.inkscape">
  <metadata
     id="metadata3888">
    <rdf:RDF>
      <cc:Work
         rdf:about="">
        <dc:format>image/svg+xml</dc:format>
        <dc:type
           rdf:resource="http://purl.org/dc/dcmitype/StillImage" />
      </cc:Work>
    </rdf:RDF>
  </metadata>
  <defs
     id="defs3886">
    <inkscape:perspective
       sodipodi:type="inkscape:persp3d"
       inkscape:vp_x="0 : 9.0228901 : 1"
       inkscape:vp_y="0 : 1000 : 0"
       inkscape:vp_z="18.1 : 9.0228901 : 1"
       inkscape:persp3d-origin="9.0500002 : 6.0152601 : 1"
       id="perspective3890" />
  </defs>
  <sodipodi:namedview
     inkscape:window-height="708"
     inkscape:window-width="1024"
     inkscape:pageshadow="2"
     inkscape:pageopacity="0.0"
     guidetolerance="10.0"
     gridtolerance="10.0"
     objecttolerance="10.0"
     borderopacity="1.0"
     bordercolor="#666666"
     pagecolor="#ffffff"
     id="base"
     showgrid="false"
     inkscape:zoom="27.873553"
     inkscape:cx="9.05"
     inkscape:cy="9.0228902"
     inkscape:window-x="-4"
     inkscape:window-y="-4"
     inkscape:current-layer="svg3881" />
  <path
     style="fill:#000000; stroke:none"
     d="M 0,0 L 0,8.224375 L 5.513437,8.224375 L 5.513437,7.158125 L 1.003125,7.158125 L 1.003125,0.973437 L 17.126562,0.973437 L 17.126562,7.158125 L 12.586562,7.158125 L 12.586562,8.224375 L 18.1,8.224375 L 18.1,0 L 0,0 z M 9.39,3.774688 L 9.288438,11.2 C 9.29974,11.991137 9.339375,12.499587 9.407187,12.725625 C 9.644528,13.561972 9.763125,14.257142 9.763125,14.810938 C 9.774426,15.477752 9.684009,16.110685 9.491875,16.709688 C 9.424063,17.003538 9.276977,17.161772 9.050938,17.184376 C 8.813597,17.150469 8.661249,16.992237 8.593437,16.709688 C 8.401304,16.110685 8.316459,15.477752 8.339063,14.810938 C 8.339063,14.257142 8.45766,13.561972 8.695,12.725625 C 8.762812,12.499587 8.796875,11.991137 8.796875,11.2 L 8.695,3.774688 L 9.39,3.774688 z M 2.757188,11.815 C 3.013751,11.815 3.325774,12.080317 3.693125,12.610937 C 4.060477,13.141555 4.343308,13.955026 4.541563,15.05125 C 4.728154,15.797616 4.599718,16.363279 4.156562,16.748125 C 3.750354,17.100885 3.319694,17.277187 2.8645,17.277187 C 2.823098,17.277187 2.781494,17.275728 2.739687,17.272812 C 2.69788,17.27573 2.656275,17.277187 2.614873,17.277187 C 2.15968,17.277187 1.72902,17.100885 1.322813,16.748125 C 0.879658,16.363279 0.762897,15.797616 0.972812,15.05125 C 1.136081,13.955026 1.418913,13.141557 1.82125,12.610937 C 2.223588,12.080317 2.53561,11.815 2.757188,11.815 z M 15.525,11.91875 C 15.501789,13.672775 16.185036,13.071763 16.41375,13.919063 C 16.639809,14.426165 16.435091,15.302384 15.799687,17.1475 L 14.626875,17.1475 C 14.00369,15.302384 13.80488,14.426165 14.030937,13.919063 C 14.466474,12.979423 14.92,13.694601 14.92,11.91875 L 15.525,11.91875 z M 8.084687,2.842187 L 8.254375,11.183125 C 8.276978,11.985561 8.15807,12.770844 7.898125,13.539375 C 7.762501,13.946246 7.694687,14.370162 7.694687,14.810938 C 7.728593,16.74357 8.180688,17.794533 9.050938,17.964062 C 9.921188,17.794533 10.373282,16.737999 10.407187,14.794063 C 10.407187,14.353286 10.345262,13.940829 10.220937,13.556562 C 10.006202,12.776729 9.876145,11.985561 9.830937,11.183125 L 10.000313,2.842187 L 8.084687,2.842187 z M 17.146189,10.750624 C 17.14569,10.750624 17.14519,10.750624 17.144688,10.750625 L 13.300312,10.750625 C 13.299868,10.750624 13.299423,10.750624 13.298981,10.750624 C 12.793742,10.750624 13.249621,11.556272 13.300312,11.61875 C 13.50804,11.61875 13.646538,11.634139 13.835938,11.664687 C 14.025338,11.695237 14.12,11.820365 14.12,12.040313 C 14.12,12.296919 13.967359,12.559924 13.661875,12.82875 C 13.24642,13.293083 13.068283,13.659612 13.007187,13.928437 C 12.884995,14.23392 13.141471,15.602421 13.776875,18.034063 L 16.649688,18.034063 C 17.297311,15.602421 17.553786,14.227701 17.419375,13.91 C 17.370498,13.653394 17.198582,13.293082 16.783126,12.82875 C 16.477641,12.559925 16.324687,12.296919 16.324687,12.040313 C 16.324687,11.820365 16.413443,11.695235 16.590625,11.664687 C 16.767798,11.634141 16.912509,11.61875 17.14466,11.61875 C 17.144669,11.61875 17.144677,11.61875 17.144688,11.61875 C 17.258742,11.5436 17.701997,10.750624 17.146189,10.750624 z M 2.739687,11.010312 C 2.249885,11.010312 1.736763,11.354445 1.200312,12.0425 C 0.663862,12.730556 0.313892,13.739287 0.150625,15.06875 C -0.047628,16.036695 0.153471,16.783026 0.754062,17.307812 C 1.317115,17.799799 1.934133,18.04578 2.604827,18.04578 C 2.649542,18.04578 2.694495,18.044685 2.739687,18.0425 C 2.770787,18.043503 2.801736,18.044004 2.832533,18.044004 C 3.517741,18.044004 4.128053,17.795696 4.66375,17.299063 C 5.223525,16.780104 5.439531,16.030855 5.31125,15.05125 C 5.136321,13.80342 4.786352,12.818042 4.261562,12.095 C 3.736775,11.371957 3.22949,11.010312 2.739687,11.010312 z"
     id="path3883"
     sodipodi:nodetypes="cccccccccccccccssccccsccccscssssscscccccsccccsccccccccccscssccccccssssccscssssscsc" />
</svg>
