<?xml version="1.0" encoding="UTF-8" standalone="no"?>
<svg
   xmlns:dc="http://purl.org/dc/elements/1.1/"
   xmlns:cc="http://creativecommons.org/ns#"
   xmlns:rdf="http://www.w3.org/1999/02/22-rdf-syntax-ns#"
   xmlns:svg="http://www.w3.org/2000/svg"
   xmlns="http://www.w3.org/2000/svg"
   xmlns:sodipodi="http://sodipodi.sourceforge.net/DTD/sodipodi-0.dtd"
   xmlns:inkscape="http://www.inkscape.org/namespaces/inkscape"
   width="14.542977"
   height="17.977583"
   id="svg2476"
   sodipodi:version="0.32"
   inkscape:version="0.46"
   sodipodi:docname="O320varSR.svg"
   inkscape:output_extension="org.inkscape.output.svg.inkscape">
  <metadata
     id="metadata2483">
    <rdf:RDF>
      <cc:Work
         rdf:about="">
        <dc:format>image/svg+xml</dc:format>
        <dc:type
           rdf:resource="http://purl.org/dc/dcmitype/StillImage" />
      </cc:Work>
    </rdf:RDF>
  </metadata>
  <defs
     id="defs2481">
    <inkscape:perspective
       sodipodi:type="inkscape:persp3d"
       inkscape:vp_x="0 : 8.9887915 : 1"
       inkscape:vp_y="0 : 1000 : 0"
       inkscape:vp_z="14.542977 : 8.9887915 : 1"
       inkscape:persp3d-origin="7.2714887 : 5.9925276 : 1"
       id="perspective2485" />
  </defs>
  <sodipodi:namedview
     inkscape:window-height="708"
     inkscape:window-width="1024"
     inkscape:pageshadow="2"
     inkscape:pageopacity="0.0"
     guidetolerance="10.0"
     gridtolerance="10.0"
     objecttolerance="10.0"
     borderopacity="1.0"
     bordercolor="#666666"
     pagecolor="#ffffff"
     id="base"
     showgrid="false"
     inkscape:zoom="25.698672"
     inkscape:cx="6.7112573"
     inkscape:cy="8.9887916"
     inkscape:window-x="-4"
     inkscape:window-y="-4"
     inkscape:current-layer="svg2476" />
  <path
     style="fill:#000000; stroke:none"
     d="M 2.21875 0 C 0.50008133 0 -0.21127 0.7594727 0.0625 2.25 L 0.21875 2.78125 L 0.21875 3.53125 C 0.964014 3.7746013 1.3437501 4.1382974 1.34375 4.625 C 1.009142 4.625 0.84374999 4.8064329 0.84375 5.15625 C 0.84375 5.506068 1.1424527 5.6874998 1.78125 5.6875 L 0.6875 17.03125 L 0.09375 17.03125 L 0.09375 17.96875 L 14.53125 17.96875 L 14.53125 17.03125 L 13.9375 17.03125 L 12.84375 5.6875 C 13.482548 5.6875 13.788855 5.5060682 13.78125 5.15625 C 13.773645 4.8064327 13.600648 4.6250001 13.28125 4.625 C 13.28125 4.1382973 13.660987 3.7746013 14.40625 3.53125 L 14.40625 2.1875 L 2.21875 0 z M 2.09375 0.40625 L 12.75 2.3125 L 0.5 2.3125 C 0.378324 1.582446 0.46945598 1.0786653 0.78125 0.8125 C 1.093044 0.546334 1.5157908 0.40625001 2.09375 0.40625 z M 0.75 2.78125 L 13.875 2.78125 L 13.875 3.09375 L 0.75 3.09375 L 0.75 2.78125 z M 1.0625 3.53125 L 13.5625 3.53125 C 13.045378 3.7137633 12.78125 4.0774594 12.78125 4.625 L 1.84375 4.625 C 1.84375 4.0774593 1.579622 3.7137633 1.0625 3.53125 z M 1.34375 5 L 13.28125 5 C 13.402925 5.106466 13.402925 5.2060331 13.28125 5.3125 L 1.34375 5.3125 C 1.222074 5.2060333 1.2220741 5.1064662 1.34375 5 z M 2.28125 5.78125 L 12.34375 5.78125 L 13.34375 16.03125 L 13.3125 16 C 13.179113 15.902184 13.186591 15.914536 13.09375 15.84375 L 13.0625 15.46875 C 13.096294 15.446565 13.119085 15.416411 13.125 15.375 C 13.121803 15.369406 13.069188 15.320392 13.0625 15.3125 L 12.15625 6.09375 L 2.46875 6.09375 L 1.40625 17.03125 L 1.1875 17.03125 L 2.28125 5.78125 z M 2.875 6.5625 L 11.75 6.5625 L 12.5625 14.90625 C 12.096127 14.548834 11.382219 14.055632 10.1875 13.21875 C 9.5595071 12.32682 8.8066801 11.289975 7.9375 10.125 C 7.0683209 8.9600272 6.4617502 8.3149195 6.125 8.1875 C 6.070392 8.1692976 6.0063649 7.9669055 5.90625 7.59375 C 5.6332095 7.0385676 5.108264 6.75 4.34375 6.75 C 3.5337299 6.75 3.0127299 7.0516147 2.8125 7.625 L 3.125 7.625 C 3.307027 7.625 3.4362909 7.8483311 3.5 8.3125 L 3.40625 9.03125 C 3.40625 9.7138512 3.6647775 10.323764 4.15625 10.90625 C 4.6568246 12.489885 4.9062499 13.742166 4.90625 14.625 C 4.90625 14.734215 4.9663314 14.802188 5.09375 14.875 L 4.5625 16.65625 C 4.1620404 16.71996 3.8440373 16.702362 3.59375 16.625 C 3.3434628 16.547639 3.0979827 16.560686 2.875 16.65625 C 2.666742 16.745504 2.5762529 16.874515 2.5625 17.03125 L 1.84375 17.03125 L 2.875 6.5625 z M 4.09375 7.0625 C 4.6489322 7.0625 5.0406686 7.178716 5.25 7.40625 C 5.25 7.6974934 4.9835808 7.8907834 4.4375 8 C 4.4375 8.0364054 4.5661587 8.0533993 4.84375 8.0625 C 5.1213411 8.0716014 5.366216 7.9945272 5.59375 7.8125 L 5.78125 8.375 C 6.0633917 8.4569123 6.5843919 8.9603142 7.3125 9.875 C 8.0406083 10.789687 9.0252626 12.170628 10.28125 14 C 7.8602902 12.86233 6.3036555 12.053974 5.59375 11.5625 C 4.6108041 10.761581 4.0937498 10.15046 4.09375 9.75 C 4.09375 9.4314523 4.4084119 8.9717434 5 8.34375 L 4.90625 8.3125 C 4.4693851 8.4945271 4.1037433 8.8993102 3.8125 9.5 C 3.7214866 9.2178581 3.7345336 8.8352234 3.84375 8.34375 C 3.84375 8.1526217 3.7275336 7.8170203 3.5 7.34375 C 3.6001148 7.2436352 3.690237 7.1835539 3.78125 7.15625 L 3.78125 7.3125 C 3.78125 7.4126151 3.8413306 7.4857434 3.96875 7.53125 C 4.0961683 7.53125 4.1914458 7.4581217 4.21875 7.3125 C 4.21875 7.2487906 4.1665606 7.1847633 4.09375 7.09375 L 4.09375 7.0625 z M 4.71875 11.625 L 4.75 11.625 C 4.9502292 12.516932 5.4581821 13.587765 6.25 14.84375 L 5.9375 15.09375 C 5.7281685 14.848013 5.4957367 14.649567 5.25 14.53125 C 5.25 13.903257 5.0828039 12.944694 4.71875 11.625 z M 5.28125 12.125 C 6.0366621 12.66198 6.7600538 13.182979 7.40625 13.65625 C 7.3971483 14.275141 7.4010944 14.743953 7.4375 15.0625 C 7.0734458 14.834965 6.7848782 14.692655 6.59375 14.65625 C 6.5755469 14.65625 6.3646586 14.333696 5.96875 13.6875 C 5.5728414 13.041306 5.3358584 12.516359 5.28125 12.125 z M 6.5 12.5 L 10.75 14.625 C 10.777305 14.625 11.388429 15.300148 12.5625 16.65625 L 11.40625 16.84375 C 10.769156 16.197555 9.9425955 15.33306 8.96875 14.25 C 8.4135668 13.813136 7.6012634 13.232055 6.5 12.53125 L 6.5 12.5 z M 7.75 13.78125 L 8.59375 14.34375 C 9.5813196 15.417194 10.40482 16.306222 11.125 17.03125 L 8.46875 17.03125 C 8.2049913 16.737086 7.9327043 16.599202 7.65625 16.65625 C 7.3695575 16.715406 7.1155812 16.736954 6.90625 16.71875 L 6.8125 15.15625 L 7.65625 15.75 C 7.7836694 15.722698 7.8750001 15.64441 7.875 15.5625 C 7.7930881 15.107432 7.7499999 14.518457 7.75 13.78125 z M 5.46875 15.15625 L 5.53125 15.15625 L 5.90625 15.5 L 6.375 15.1875 L 6.46875 16.71875 C 6.0864932 16.71875 5.8279662 16.748791 5.71875 16.8125 C 5.5458244 16.74879 5.3133919 16.71875 5.03125 16.71875 L 5.46875 15.15625 z M 11.875 15.3125 L 12.625 15.75 L 12.6875 16.21875 L 11.875 15.3125 z M 13.125 16.03125 L 13.34375 16.15625 L 13.4375 17.03125 L 13.21875 17.03125 L 13.125 16.03125 z M 12.75 16.90625 L 12.75 17.03125 L 12.375 17.03125 C 12.499795 17.000754 12.623092 16.957877 12.75 16.90625 z M 0.4375 17.40625 L 14.1875 17.40625 L 14.1875 17.59375 L 0.4375 17.59375 L 0.4375 17.40625 z "
     id="path2478" />
</svg>
