<?xml version="1.0" encoding="UTF-8" standalone="no"?>
<svg
   xmlns:dc="http://purl.org/dc/elements/1.1/"
   xmlns:cc="http://creativecommons.org/ns#"
   xmlns:rdf="http://www.w3.org/1999/02/22-rdf-syntax-ns#"
   xmlns:svg="http://www.w3.org/2000/svg"
   xmlns="http://www.w3.org/2000/svg"
   xmlns:sodipodi="http://sodipodi.sourceforge.net/DTD/sodipodi-0.dtd"
   xmlns:inkscape="http://www.inkscape.org/namespaces/inkscape"
   width="16.312574"
   height="17.977583"
   id="svg2434"
   sodipodi:version="0.32"
   inkscape:version="0.46"
   sodipodi:docname="O320AvarSR.svg"
   inkscape:output_extension="org.inkscape.output.svg.inkscape">
  <metadata
     id="metadata2441">
    <rdf:RDF>
      <cc:Work
         rdf:about="">
        <dc:format>image/svg+xml</dc:format>
        <dc:type
           rdf:resource="http://purl.org/dc/dcmitype/StillImage" />
      </cc:Work>
    </rdf:RDF>
  </metadata>
  <defs
     id="defs2439">
    <inkscape:perspective
       sodipodi:type="inkscape:persp3d"
       inkscape:vp_x="0 : 8.9887915 : 1"
       inkscape:vp_y="0 : 1000 : 0"
       inkscape:vp_z="16.312574 : 8.9887915 : 1"
       inkscape:persp3d-origin="8.1562872 : 5.9925276 : 1"
       id="perspective2443" />
  </defs>
  <sodipodi:namedview
     inkscape:window-height="708"
     inkscape:window-width="1024"
     inkscape:pageshadow="2"
     inkscape:pageopacity="0.0"
     guidetolerance="10.0"
     gridtolerance="10.0"
     objecttolerance="10.0"
     borderopacity="1.0"
     bordercolor="#666666"
     pagecolor="#ffffff"
     id="base"
     showgrid="false"
     inkscape:zoom="25.698672"
     inkscape:cx="8.1562872"
     inkscape:cy="8.9887915"
     inkscape:window-x="0"
     inkscape:window-y="26"
     inkscape:current-layer="svg2434" />
  <path
     style="fill:#000000; stroke:none"
     d="M 1.15625 0 C 0.51124733 0.045 0.13500067 0.28249801 0 0.6875 C 0.13500067 1.0175013 0.37499802 1.17125 0.75 1.15625 C 0.47999867 1.531252 0.37499999 1.9074979 0.375 2.3125 C 0.375 2.6275013 0.46874934 2.9349986 0.65625 3.25 C 0.84375067 3.5650013 1.3474961 3.7499999 2.1875 3.75 C 2.9225033 3.9900013 3.2812499 4.332498 3.28125 4.8125 C 2.9512487 4.8125 2.7812499 4.9987482 2.78125 5.34375 C 2.78125 5.6887513 3.1199972 5.8437499 3.75 5.84375 L 2.65625 17.0625 L 2.0625 17.0625 L 2.0625 17.96875 L 16.3125 17.96875 L 16.3125 17.0625 L 15.71875 17.0625 L 14.625 5.84375 C 15.255003 5.84375 15.57 5.6887515 15.5625 5.34375 C 15.555 4.998748 15.377502 4.8125 15.0625 4.8125 C 15.0625 4.332498 15.452497 3.9900012 16.1875 3.75 L 16.1875 2.40625 L 4.15625 0.25 C 3.3087464 0.25 2.7000017 0.44499832 2.34375 0.8125 C 2.2157726 0.28365074 1.8228702 -5.676881e-18 1.15625 0 z M 1.15625 0.3125 C 1.7262527 0.3125 2.0325 0.61874668 2.0625 1.21875 C 2.0325 1.5187513 1.8712513 1.8099986 1.59375 2.125 C 1.3162487 2.4400013 1.1875 2.7287486 1.1875 2.96875 C 1.1875 3.2087507 1.1875 3.3112499 1.1875 3.28125 C 0.91749933 2.876248 0.78124998 2.5525006 0.78125 2.3125 C 0.75124933 1.7724973 1.0062473 1.3962513 1.53125 1.15625 L 1.75 0.9375 C 1.344998 0.8775 1.0200013 0.84375003 0.75 0.84375 C 0.55499933 0.87375 0.43749999 0.82250068 0.4375 0.6875 C 0.4525 0.44749867 0.69124804 0.31249999 1.15625 0.3125 z M 0.9375 0.4375 C 0.82499933 0.4375 0.76500034 0.48999933 0.75 0.625 L 1.40625 0.625 C 1.196249 0.48999935 1.0500007 0.4375 0.9375 0.4375 z M 4.0625 0.65625 L 14.5625 2.53125 L 2.4375 2.53125 C 2.3175 1.8112467 2.4112487 1.2937513 2.71875 1.03125 C 3.0262513 0.76874867 3.4924975 0.65624999 4.0625 0.65625 z M 2 2.21875 C 2.0088955 2.2949019 2.0164519 2.3569323 2.03125 2.4375 L 2.1875 3 C 1.8574987 3.1950007 1.67 3.1612507 1.625 2.90625 C 1.5949993 2.8162493 1.6974987 2.6212514 1.9375 2.34375 C 1.966699 2.3099887 1.9732433 2.2555086 2 2.21875 z M 2.6875 3 L 15.65625 3 L 15.65625 3.28125 L 2.6875 3.28125 L 2.6875 3 z M 3 3.75 L 15.34375 3.75 C 14.833748 3.9300013 14.59375 4.272498 14.59375 4.8125 L 3.78125 4.8125 C 3.78125 4.272498 3.5100021 3.9300012 3 3.75 z M 3.28125 5.1875 L 15.0625 5.1875 C 15.182501 5.2925007 15.182501 5.3949993 15.0625 5.5 L 3.28125 5.5 C 3.1612493 5.3949993 3.1612492 5.2925007 3.28125 5.1875 z M 4.21875 5.9375 L 14.15625 5.9375 L 15.0625 15.375 L 15.09375 15.875 C 14.987291 15.794508 14.934997 15.737017 14.875 15.6875 L 14.84375 15.5 C 14.967097 15.494084 15.050669 15.457823 15.0625 15.375 C 15.051134 15.35511 14.867997 15.236441 14.8125 15.1875 L 13.96875 6.28125 L 4.40625 6.28125 L 3.375 17.0625 L 3.125 17.0625 L 4.21875 5.9375 z M 4.8125 6.71875 L 13.53125 6.71875 L 14.34375 14.78125 C 13.854178 14.416511 13.131321 13.923662 12.125 13.21875 C 11.497007 12.32682 10.74418 11.289975 9.875 10.125 C 9.0058209 8.9600272 8.3992502 8.3149195 8.0625 8.1875 C 8.007892 8.1692976 7.9438649 7.9669055 7.84375 7.59375 C 7.5707095 7.0385676 7.0457636 6.75 6.28125 6.75 C 5.4712299 6.75 4.9814802 7.0516147 4.78125 7.625 L 5.0625 7.625 C 5.244527 7.625 5.3737907 7.8483311 5.4375 8.3125 L 5.34375 9.03125 C 5.34375 9.7138512 5.6022775 10.323764 6.09375 10.90625 C 6.5943246 12.489885 6.8437499 13.742166 6.84375 14.625 C 6.84375 14.734215 6.9038314 14.802188 7.03125 14.875 L 6.53125 16.65625 C 6.1307904 16.71996 5.7815373 16.702362 5.53125 16.625 C 5.2809628 16.547639 5.0667327 16.560686 4.84375 16.65625 C 4.6207667 16.751815 4.4999998 16.889574 4.5 17.0625 L 3.8125 17.0625 L 4.8125 6.71875 z M 6.0625 7.0625 C 6.6176822 7.0625 6.9781687 7.178716 7.1875 7.40625 C 7.1875 7.6974934 6.9210808 7.8907834 6.375 8 C 6.375 8.0364054 6.5036587 8.0533993 6.78125 8.0625 C 7.0588411 8.0716014 7.3349656 7.9945272 7.5625 7.8125 L 7.71875 8.375 C 8.0008917 8.4569123 8.5218924 8.9603142 9.25 9.875 C 9.9781083 10.789687 10.962762 12.170628 12.21875 14 C 9.79779 12.86233 8.2411555 12.053974 7.53125 11.5625 C 6.5483041 10.761581 6.0624999 10.15046 6.0625 9.75 C 6.0625 9.4314523 6.3459119 8.9717434 6.9375 8.34375 L 6.84375 8.3125 C 6.4068851 8.4945271 6.0412433 8.8993102 5.75 9.5 C 5.6589866 9.2178581 5.6720334 8.8352234 5.78125 8.34375 C 5.78125 8.1526217 5.6650337 7.8170203 5.4375 7.34375 C 5.5376148 7.2436352 5.6589867 7.1835539 5.75 7.15625 L 5.75 7.3125 C 5.75 7.4126151 5.8100806 7.4857434 5.9375 7.53125 C 6.0649183 7.53125 6.1289458 7.4581217 6.15625 7.3125 C 6.15625 7.2487906 6.1353107 7.1847633 6.0625 7.09375 L 6.0625 7.0625 z M 6.65625 11.625 L 6.6875 11.625 C 6.8877292 12.516932 7.3956826 13.587765 8.1875 14.84375 L 7.875 15.09375 C 7.6656685 14.848013 7.4332368 14.649567 7.1875 14.53125 C 7.1875 13.903257 7.0203039 12.944694 6.65625 11.625 z M 7.25 12.125 C 8.0054121 12.66198 8.6975538 13.182979 9.34375 13.65625 C 9.3346483 14.275141 9.3385944 14.743953 9.375 15.0625 C 9.0109458 14.834965 8.7223777 14.692655 8.53125 14.65625 C 8.5130469 14.65625 8.3021586 14.333696 7.90625 13.6875 C 7.5103414 13.041306 7.3046084 12.516359 7.25 12.125 z M 8.4375 12.5 L 12.6875 14.625 C 12.714805 14.625 13.325929 15.300148 14.5 16.65625 L 13.34375 16.84375 C 12.706656 16.197555 11.911345 15.33306 10.9375 14.25 C 10.382317 13.813136 9.5387634 13.232055 8.4375 12.53125 L 8.4375 12.5 z M 9.6875 13.78125 L 10.53125 14.34375 C 11.530637 15.430039 12.36819 16.333015 13.09375 17.0625 L 10.4375 17.0625 C 10.16446 16.743951 9.8804429 16.59709 9.59375 16.65625 C 9.3070575 16.715406 9.0843312 16.736954 8.875 16.71875 L 8.78125 15.15625 L 9.625 15.75 C 9.7524194 15.722698 9.8124997 15.64441 9.8125 15.5625 C 9.7305881 15.107432 9.6875004 14.518457 9.6875 13.78125 z M 7.40625 15.15625 L 7.5 15.15625 L 7.84375 15.5 L 8.3125 15.1875 L 8.40625 16.71875 C 8.0239932 16.71875 7.7654662 16.748791 7.65625 16.8125 C 7.4833244 16.74879 7.2508919 16.71875 6.96875 16.71875 L 7.40625 15.15625 z M 13.8125 15.3125 L 14.4375 15.65625 L 14.46875 16.0625 L 13.8125 15.3125 z M 14.90625 15.9375 L 15.125 16.0625 L 15.21875 17.0625 L 15 17.0625 L 14.96875 16.78125 C 14.998181 16.765947 15.032958 16.766412 15.0625 16.75 L 14.96875 16.625 L 14.90625 15.9375 z M 14.5625 16.96875 L 14.5625 17.0625 L 14.21875 17.0625 C 14.334722 17.039133 14.444688 17.010528 14.5625 16.96875 z M 2.40625 17.40625 L 15.9375 17.40625 L 15.9375 17.59375 L 2.40625 17.59375 L 2.40625 17.40625 z "
     id="path2436" />
</svg>
