<?xml version="1.0" encoding="UTF-8" standalone="no"?>
<!-- Created with Inkscape (http://www.inkscape.org/) -->
<svg
   xmlns:dc="http://purl.org/dc/elements/1.1/"
   xmlns:cc="http://creativecommons.org/ns#"
   xmlns:rdf="http://www.w3.org/1999/02/22-rdf-syntax-ns#"
   xmlns:svg="http://www.w3.org/2000/svg"
   xmlns="http://www.w3.org/2000/svg"
   xmlns:sodipodi="http://sodipodi.sourceforge.net/DTD/sodipodi-0.dtd"
   xmlns:inkscape="http://www.inkscape.org/namespaces/inkscape"
   width="1810.9375"
   height="1805"
   id="svg2451"
   sodipodi:version="0.32"
   inkscape:version="0.46"
   version="1.0"
   sodipodi:docname="O321.svg"
   inkscape:output_extension="org.inkscape.output.svg.inkscape">
  <defs
     id="defs2453">
    <inkscape:perspective
       sodipodi:type="inkscape:persp3d"
       inkscape:vp_x="0 : 526.18109 : 1"
       inkscape:vp_y="0 : 1000 : 0"
       inkscape:vp_z="744.09448 : 526.18109 : 1"
       inkscape:persp3d-origin="372.04724 : 350.78739 : 1"
       id="perspective2459" />
  </defs>
  <sodipodi:namedview
     id="base"
     pagecolor="#ffffff"
     bordercolor="#666666"
     borderopacity="1.0"
     inkscape:pageopacity="0.0"
     inkscape:pageshadow="2"
     inkscape:zoom="0.21644057"
     inkscape:cx="973.07019"
     inkscape:cy="744.17633"
     inkscape:document-units="px"
     inkscape:current-layer="layer1"
     showgrid="true"
     inkscape:window-width="1024"
     inkscape:window-height="708"
     inkscape:window-x="0"
     inkscape:window-y="26"
     showguides="true"
     inkscape:guide-bbox="true" />
  <metadata
     id="metadata2456">
    <rdf:RDF>
      <cc:Work
         rdf:about="">
        <dc:format>image/svg+xml</dc:format>
        <dc:type
           rdf:resource="http://purl.org/dc/dcmitype/StillImage" />
      </cc:Work>
    </rdf:RDF>
  </metadata>
  <g
     inkscape:label="Calque 1"
     inkscape:groupmode="layer"
     id="layer1"
     transform="translate(0,-1.3125)">
    <path
       style="fill:#000000;stroke:none"
       d="M 164.375,1.3125 C 107.79687,6.832315 73.294551,31.002716 60.875,73.78125 C 73.29455,108.28013 96.037362,125.53125 129.15625,125.53125 C 104.31709,164.16997 91.906253,205.5603 91.90625,249.71875 C 91.90625,322.85628 107.45099,373.89594 138.5,402.875 C 169.54894,431.854 202.99627,443.9548 238.875,439.125 C 274.75381,434.29514 305.81208,418.75036 332.03125,392.53125 C 384.4695,436.68971 410.00498,494.64867 408.625,566.40625 C 386.54575,587.10558 387.22823,609.19706 410.6875,632.65625 L 410.6875,876.125 L 0,876.125 L 0,1418.4688 L 284.6875,1247.5312 L 410.6875,1247.5312 L 410.6875,1723.5 L 309.25,1723.5 L 309.25,1806.3125 L 1499.4688,1806.3125 L 1499.4688,1723.5 L 1400.0938,1723.5 L 1400.0938,1247.5312 L 1526.25,1247.5312 L 1810.9375,1418.4688 L 1810.9375,876.125 L 1400.0938,876.125 L 1400.0938,632.65625 C 1420.793,609.19707 1420.793,587.78808 1400.0938,568.46875 C 1400.0938,491.19134 1438.0712,424.26563 1513.9688,367.6875 L 1540.875,367.6875 L 1540.875,299.375 C 1289.7235,237.27713 1077.9004,186.23737 905.40625,146.21875 C 732.91209,106.20006 587.30096,86.187498 468.625,86.1875 C 405.14712,86.1875 348.58459,112.06421 298.90625,163.8125 C 249.22791,215.56071 234.05565,266.97292 253.375,318.03125 L 253.375,367.6875 C 229.91583,367.6875 217.84629,355.61788 217.15625,331.46875 C 216.4663,307.31954 224.03677,280.41895 239.90625,250.75 C 255.77569,221.08098 269.92413,181.3971 282.34375,131.71875 C 282.34375,44.781694 243.03234,1.3125 164.375,1.3125 z M 164.375,34.4375 C 214.05328,34.4375 240.27128,66.860961 243.03125,131.71875 C 241.65127,163.45766 228.86795,195.8811 204.71875,229 C 180.56961,262.11888 175.38797,313.18982 189.1875,382.1875 C 156.06861,347.68869 139.53125,303.53698 139.53125,249.71875 C 136.77134,191.76075 155.38762,149.65666 195.40625,123.4375 L 216.09375,100.6875 C 180.21495,93.7877 150.55293,90.312498 127.09375,90.3125 C 109.15432,93.072407 100.1875,87.580788 100.1875,73.78125 C 100.1875,47.562161 121.5964,34.437499 164.375,34.4375 z M 143.15625,45.8125 C 133.15159,45.8125 127.78371,53.072969 127.09375,67.5625 L 187.125,67.5625 C 167.80565,53.072967 153.16091,45.8125 143.15625,45.8125 z M 494.46875,137.40625 C 575.47077,136.81023 884.93042,197.02655 1422.875,318.03125 L 309.25,318.03125 C 296.83046,273.87272 307.53488,234.53014 341.34375,200.03125 C 375.1526,165.53245 422.74831,144.83723 484.15625,137.9375 C 487.03475,137.61407 490.48504,137.43556 494.46875,137.40625 z M 356.875,340.78125 L 1497.4062,340.78125 L 1497.4062,349.0625 L 356.875,349.0625 L 356.875,340.78125 z M 381.6875,367.6875 L 1427.0312,367.6875 C 1370.4532,411.84601 1342.1564,478.7717 1342.1562,568.46875 L 466.5625,568.46875 C 466.5625,478.77171 438.26558,411.846 381.6875,367.6875 z M 439.65625,593.3125 L 1367,593.3125 L 1367,603.65625 L 439.65625,603.65625 L 439.65625,593.3125 z M 1350.4375,632.65625 L 1350.4375,876.125 L 1106.1875,876.125 L 1106.1875,751 L 702.53125,751 L 702.53125,876.125 L 460.375,876.125 L 460.375,634.71875 L 1350.4375,632.65625 z M 758.4375,804.8125 L 1050.2812,804.8125 L 1050.2812,876.125 L 758.4375,876.125 L 758.4375,804.8125 z M 88.96875,966.53125 L 1720,966.53125 L 1720,1277 L 1526.25,1159.0938 L 284.6875,1159.0938 L 88.96875,1277 L 88.96875,966.53125 z M 460.375,1247.5312 L 702.53125,1247.5312 L 702.53125,1723.5 L 460.375,1723.5 L 460.375,1247.5312 z M 758.4375,1247.5312 L 1050.2812,1247.5312 L 1050.2812,1723.5 L 758.4375,1723.5 L 758.4375,1247.5312 z M 1106.1875,1247.5312 L 1350.4375,1247.5312 L 1350.4375,1723.5 L 1106.1875,1723.5 L 1106.1875,1247.5312 z"
       id="path2436"
       sodipodi:nodetypes="cccssscccccccccccccccccccccccccssccssccccscccccsccccccccsscccccccccccccccccccccccccccccccccccccccccccccccccccc" />
  </g>
</svg>
