<?xml version="1.0" encoding="UTF-8" standalone="no"?>
<svg
   xmlns:dc="http://purl.org/dc/elements/1.1/"
   xmlns:cc="http://creativecommons.org/ns#"
   xmlns:rdf="http://www.w3.org/1999/02/22-rdf-syntax-ns#"
   xmlns:svg="http://www.w3.org/2000/svg"
   xmlns="http://www.w3.org/2000/svg"
   xmlns:sodipodi="http://sodipodi.sourceforge.net/DTD/sodipodi-0.dtd"
   xmlns:inkscape="http://www.inkscape.org/namespaces/inkscape"
   width="9.102"
   height="17.977583"
   id="svg2434"
   sodipodi:version="0.32"
   inkscape:version="0.46"
   sodipodi:docname="O345.svg"
   inkscape:output_extension="org.inkscape.output.svg.inkscape">
  <metadata
     id="metadata2441">
    <rdf:RDF>
      <cc:Work
         rdf:about="">
        <dc:format>image/svg+xml</dc:format>
        <dc:type
           rdf:resource="http://purl.org/dc/dcmitype/StillImage" />
      </cc:Work>
    </rdf:RDF>
  </metadata>
  <defs
     id="defs2439">
    <inkscape:perspective
       sodipodi:type="inkscape:persp3d"
       inkscape:vp_x="0 : 8.9887915 : 1"
       inkscape:vp_y="0 : 1000 : 0"
       inkscape:vp_z="9.1020002 : 8.9887915 : 1"
       inkscape:persp3d-origin="4.5510001 : 5.9925276 : 1"
       id="perspective2443" />
  </defs>
  <sodipodi:namedview
     inkscape:window-height="708"
     inkscape:window-width="1024"
     inkscape:pageshadow="2"
     inkscape:pageopacity="0.0"
     guidetolerance="10.0"
     gridtolerance="10.0"
     objecttolerance="10.0"
     borderopacity="1.0"
     bordercolor="#666666"
     pagecolor="#ffffff"
     id="base"
     showgrid="false"
     inkscape:zoom="25.698672"
     inkscape:cx="4.5510001"
     inkscape:cy="8.9887915"
     inkscape:window-x="-4"
     inkscape:window-y="-4"
     inkscape:current-layer="svg2434"
     showguides="true"
     inkscape:guide-bbox="true" />
  <path
     style="fill:#000000; stroke:none"
     d="M 4.5625 0 C 4.09457 0 3.6919854 0.15176468 3.375 0.46875 C 3.0580147 0.78573467 2.90625 1.1711032 2.90625 1.59375 C 2.90625 1.986208 3.0590753 2.3241707 3.40625 2.65625 C 2.4854833 3.0185187 1.7105033 3.6148481 1.03125 4.4375 C 0.351996 5.260152 2.9457946e-19 6.1751059 0 7.15625 L 0 17.96875 L 0.90625 17.96875 L 0.90625 7.1875 C 0.90625 6.447868 1.2840708 5.4638074 2.03125 4.65625 C 2.7784287 3.8486933 3.8228679 3.4375 4.5625 3.4375 C 5.2870373 3.4375 6.3153205 3.8486934 7.0625 4.65625 C 7.8096793 5.4638073 8.1874998 6.4478682 8.1875 7.1875 L 8.1875 17.96875 L 9.09375 17.96875 L 9.09375 7.15625 C 9.078656 6.175106 8.7342064 5.2601521 8.0625 4.4375 C 7.3907933 3.614848 6.6082658 3.0185187 5.6875 2.65625 C 6.034674 2.3241707 6.2187498 1.9862079 6.21875 1.59375 C 6.21875 1.1711033 6.0432827 0.78573468 5.71875 0.46875 C 5.394218 0.15176467 5.0153359 -1.9245867e-18 4.5625 0 z M 4.5625 0.375 C 4.9247687 0.375 5.2272371 0.50848736 5.46875 0.75 C 5.7102627 0.99151267 5.8124999 1.2767652 5.8125 1.59375 C 5.7370267 2.0314913 5.5185178 2.3673321 5.15625 2.59375 L 3.9375 2.59375 C 3.5601367 2.367332 3.3416279 2.0314912 3.28125 1.59375 C 3.28125 1.2767653 3.3910348 0.9915127 3.625 0.75 C 3.8589647 0.50848733 4.1851366 0.37500001 4.5625 0.375 z M 3.03125 5.3125 L 3.03125 6.1875 C 2.7533017 6.3496368 2.512874 6.6058727 2.28125 6.96875 C 2.0496262 7.3316271 1.9139707 7.7161654 1.90625 8.15625 C 1.90625 8.6735428 2.1339964 9.2211257 2.5625 9.75 C 2.991004 10.278875 3.6514468 10.555147 4.5625 10.59375 C 5.4658334 10.555147 6.1301354 10.278875 6.5625 9.75 C 6.9948641 9.2211254 7.2187502 8.697072 7.21875 8.1875 C 7.2110293 7.7396945 7.0753733 7.3354873 6.84375 6.96875 C 6.6121261 6.6020123 6.3794199 6.3183863 6.09375 6.15625 L 6.09375 5.3125 L 3.03125 5.3125 z M 3.59375 5.6875 L 5.53125 5.6875 L 5.53125 6.0625 L 3.59375 6.0625 L 3.59375 5.6875 z M 4.5625 6.40625 C 5.3809043 6.40625 5.9373078 6.6143276 6.25 7.03125 C 6.562692 7.4481729 6.71875 7.8242565 6.71875 8.15625 C 6.7110295 8.6735428 6.5183939 9.1452099 6.09375 9.53125 C 5.6691068 9.9172892 5.1492809 10.09375 4.5625 10.09375 C 3.9679995 10.09375 3.4558935 9.9172887 3.03125 9.53125 C 2.6066064 9.1452104 2.4062499 8.697072 2.40625 8.1875 C 2.40625 7.8477854 2.5264638 7.4481728 2.78125 7.03125 C 3.0360361 6.6143277 3.6282846 6.4062501 4.5625 6.40625 z M 4.46875 12.59375 C 4.2772704 12.573097 4.0677798 12.609263 3.8125 12.71875 C 2.1060004 13.553026 4.0976042 16.096291 5.8125 16.28125 C 6.0662121 16.308614 6.3344005 16.275349 6.5625 16.1875 C 5.7770656 15.368922 5.728501 12.72962 4.46875 12.59375 z M 4.3125 13.21875 C 4.9384563 13.286262 5.2025448 14.796004 5.59375 15.53125 C 5.554304 15.561922 5.5053773 15.569822 5.4375 15.5625 C 4.7801012 15.491597 2.9915748 13.793013 4.0625 13.25 C 4.153268 13.207941 4.234053 13.210288 4.3125 13.21875 z "
     id="path2436" />
</svg>
