<?xml version="1.0" encoding="UTF-8" standalone="no"?>
<svg
   xmlns:dc="http://purl.org/dc/elements/1.1/"
   xmlns:cc="http://creativecommons.org/ns#"
   xmlns:rdf="http://www.w3.org/1999/02/22-rdf-syntax-ns#"
   xmlns:svg="http://www.w3.org/2000/svg"
   xmlns="http://www.w3.org/2000/svg"
   xmlns:sodipodi="http://sodipodi.sourceforge.net/DTD/sodipodi-0.dtd"
   xmlns:inkscape="http://www.inkscape.org/namespaces/inkscape"
   width="18.205435"
   height="17.977583"
   id="svg2669"
   sodipodi:version="0.32"
   inkscape:version="0.46"
   sodipodi:docname="O352varSR.svg"
   inkscape:output_extension="org.inkscape.output.svg.inkscape">
  <metadata
     id="metadata2676">
    <rdf:RDF>
      <cc:Work
         rdf:about="">
        <dc:format>image/svg+xml</dc:format>
        <dc:type
           rdf:resource="http://purl.org/dc/dcmitype/StillImage" />
      </cc:Work>
    </rdf:RDF>
  </metadata>
  <defs
     id="defs2674">
    <inkscape:perspective
       sodipodi:type="inkscape:persp3d"
       inkscape:vp_x="0 : 8.9887915 : 1"
       inkscape:vp_y="0 : 1000 : 0"
       inkscape:vp_z="18.205435 : 8.9887915 : 1"
       inkscape:persp3d-origin="9.1027174 : 5.9925276 : 1"
       id="perspective2678" />
  </defs>
  <sodipodi:namedview
     inkscape:window-height="708"
     inkscape:window-width="1024"
     inkscape:pageshadow="2"
     inkscape:pageopacity="0.0"
     guidetolerance="10.0"
     gridtolerance="10.0"
     objecttolerance="10.0"
     borderopacity="1.0"
     bordercolor="#666666"
     pagecolor="#ffffff"
     id="base"
     showgrid="false"
     inkscape:zoom="25.698672"
     inkscape:cx="9.3573676"
     inkscape:cy="8.9887915"
     inkscape:window-x="-4"
     inkscape:window-y="-4"
     inkscape:current-layer="svg2669" />
  <path
     style="fill:#000000; stroke:none"
     d="M 2.5 0 L 1.53125 2 L 1.53125 12.15625 L 1.03125 12.15625 L 1.03125 13.375 C 0.34769202 13.648423 0 14.377665 0 15.5625 C 0 17.172659 0.71231267 17.96875 2.125 17.96875 L 15.84375 17.96875 C 17.256437 17.96875 17.95356 17.172659 17.96875 15.5625 C 17.96875 14.284626 17.524351 13.544962 16.625 13.28125 C 16.690935 13.272464 16.74509 13.25977 16.8125 13.25 C 17.214202 13.191783 17.612086 13.045368 18.03125 12.8125 L 16.4375 10.9375 L 18.5 12.125 L 18.28125 11.84375 C 17.757296 11.459525 17.503681 11.245716 17.46875 11.1875 C 17.829694 11.257356 18.007962 11.22551 18.03125 11.0625 C 17.938102 10.899495 16.691419 9.96954 14.28125 8.28125 C 13.477858 7.1402047 12.518194 5.802852 11.40625 4.3125 C 10.294312 2.8221517 9.5245541 2.0067577 9.09375 1.84375 C 9.0238898 1.8204638 8.909327 1.5711282 8.78125 1.09375 C 8.4319496 0.38350595 7.7905419 0.031249999 6.8125 0.03125 C 5.7762421 0.03125 5.131154 0.39146861 4.875 1.125 L 5.25 1.125 C 5.4828668 1.125 5.6372467 1.4374388 5.71875 2.03125 L 5.625 2.90625 C 5.625 3.7795016 5.9337591 4.5985763 6.5625 5.34375 C 7.2028842 7.3696932 7.5312499 8.9330918 7.53125 10.0625 C 7.53125 10.202218 7.586993 10.344353 7.75 10.4375 L 7.09375 12.6875 C 6.5814423 12.769003 6.1639422 12.755224 5.84375 12.65625 C 5.5235581 12.557282 5.2227614 12.565246 4.9375 12.6875 C 4.6659519 12.803881 4.513055 12.950195 4.5 13.15625 L 4.5 12.15625 L 4 12.15625 L 4 2 L 3.03125 0 L 2.5 0 z M 6.5 0.40625 C 7.2102442 0.40625 7.7009525 0.5526657 7.96875 0.84375 C 7.96875 1.2163375 7.6361011 1.4540291 6.9375 1.59375 C 6.9375 1.6403231 7.1136281 1.6758575 7.46875 1.6875 C 7.8238721 1.6991433 8.1464155 1.5766174 8.4375 1.34375 L 8.65625 2.125 C 9.017194 2.2297901 9.6622813 2.8610931 10.59375 4.03125 C 11.525218 5.2014075 12.799468 6.9409348 14.40625 9.28125 C 11.309122 7.8258289 9.3144321 6.7849923 8.40625 6.15625 C 7.1487679 5.1316348 6.4999998 4.3560565 6.5 3.84375 C 6.5 3.4362319 6.899432 2.8346414 7.65625 2.03125 L 7.53125 2.03125 C 6.972369 2.2641166 6.4975878 2.7627887 6.125 3.53125 C 6.0085665 3.1703059 6.0477796 2.6599912 6.1875 2.03125 C 6.1875 1.7867399 6.0410839 1.3554542 5.75 0.75 C 5.8780767 0.62192272 5.9773166 0.56617954 6.09375 0.53125 L 6.09375 0.71875 C 6.09375 0.84682716 6.1807425 0.94178334 6.34375 1 C 6.5067563 1 6.6213204 0.90504406 6.65625 0.71875 C 6.65625 0.637247 6.5931465 0.55393345 6.5 0.4375 L 6.5 0.40625 z M 2.71875 0.65625 L 3.375 2 L 2.09375 2 L 2.71875 0.65625 z M 2.125 2.5 L 3.40625 2.5 L 3.40625 12.15625 L 2.125 12.15625 L 2.125 2.5 z M 7.28125 6.21875 L 7.3125 6.21875 C 7.5686528 7.3597983 8.2057779 8.7369683 9.21875 10.34375 L 8.84375 10.65625 C 8.5759522 10.341879 8.2831207 10.120112 7.96875 9.96875 C 7.96875 9.1653548 7.7469839 7.9070342 7.28125 6.21875 z M 8.03125 6.90625 C 8.9976482 7.593208 9.8920712 8.238295 10.71875 8.84375 C 10.707107 9.6354966 10.734675 10.217485 10.78125 10.625 L 10.75 10.625 C 10.284265 10.333916 9.93201 10.171574 9.6875 10.125 C 9.6642128 10.125 9.3814853 9.7016786 8.875 8.875 C 8.3685148 8.0483247 8.1011102 7.4069149 8.03125 6.90625 z M 9.5625 7.375 L 15 10.0625 C 15.034935 10.0625 15.810515 10.952637 17.3125 12.6875 L 15.84375 12.90625 C 15.028717 12.079573 13.995838 10.979307 12.75 9.59375 C 12.039751 9.034871 10.971347 8.3027894 9.5625 7.40625 L 9.5625 7.375 z M 11.15625 9 L 12.25 9.75 C 13.510223 11.119804 14.58013 12.229938 15.5 13.15625 L 12.09375 13.15625 C 11.75484 12.776098 11.417803 12.614176 11.0625 12.6875 C 10.695735 12.763178 10.361546 12.804537 10.09375 12.78125 L 9.96875 10.78125 L 11.0625 11.5 C 11.225506 11.465077 11.3125 11.386041 11.3125 11.28125 C 11.20771 10.699083 11.15625 9.9431059 11.15625 9 z M 8.25 10.75 L 8.34375 10.75 L 8.8125 11.21875 L 9.40625 10.78125 L 9.5 12.75 C 9.0109792 12.75 8.7022199 12.793496 8.5625 12.875 C 8.3412759 12.793496 8.0484439 12.75 7.6875 12.75 L 8.25 10.75 z M 1.5625 12.625 L 4 12.625 L 4 13.09375 L 1.5625 13.09375 L 1.5625 12.625 z M 2.125 14 L 15.84375 14 C 16.66402 14 17.10981 14.529567 17.125 15.5625 C 17.125 16.580242 16.6944 17.09375 15.84375 17.09375 L 2.125 17.09375 C 1.2743493 17.09375 0.84375 16.580242 0.84375 15.5625 C 0.85893999 14.529567 1.2895393 14 2.125 14 z "
     id="path2671" />
</svg>
