<?xml version="1.0" encoding="UTF-8" standalone="no"?>
<svg
   width="1976.201"
   height="1800.0135"
   version="1.1"
   id="svg2"
   sodipodi:docname="O354.svg"
   inkscape:version="1.4 (e7c3feb1, 2024-10-09)"
   xmlns:inkscape="http://www.inkscape.org/namespaces/inkscape"
   xmlns:sodipodi="http://sodipodi.sourceforge.net/DTD/sodipodi-0.dtd"
   xmlns="http://www.w3.org/2000/svg"
   xmlns:svg="http://www.w3.org/2000/svg">
  <defs
     id="defs2" />
  <sodipodi:namedview
     id="namedview2"
     pagecolor="#ffffff"
     bordercolor="#000000"
     borderopacity="0.25"
     inkscape:showpageshadow="2"
     inkscape:pageopacity="0.0"
     inkscape:pagecheckerboard="0"
     inkscape:deskcolor="#d1d1d1"
     inkscape:zoom="0.11938291"
     inkscape:cx="-544.46655"
     inkscape:cy="8.3764084"
     inkscape:window-width="2560"
     inkscape:window-height="1387"
     inkscape:window-x="1440"
     inkscape:window-y="25"
     inkscape:window-maximized="1"
     inkscape:current-layer="svg2" />
  <path
     id="path1"
     style="fill:#000000;stroke:none;stroke-width:100.001"
     d="M 673.66602 0 L 673.66602 218.55859 L 739.64453 218.55859 L 739.64453 684.54102 L 673.66602 684.54102 L 673.66602 833.31641 L 671.83008 833.24023 C 601.11106 758.59255 538.24957 721.26758 483.24609 721.26758 C 463.60195 719.9582 443.30343 718.64975 422.34961 717.33984 C 311.03286 738.2936 244.2419 748.76953 221.97852 748.76953 C 206.26316 748.76953 198.40625 759.24741 198.40625 780.20117 C 198.40625 809.01255 220.66851 823.41797 265.19531 823.41797 C 341.65658 811.22856 400.30237 805.13281 441.13281 805.13281 C 448.55632 805.13281 455.39103 805.33487 461.63672 805.73828 C 483.90009 805.73828 502.23499 814.9057 516.64062 833.24023 C 491.10331 864.85791 433.94868 880.66797 345.17578 880.66797 C 338.34717 880.66797 331.33175 880.57504 324.12891 880.39062 C 223.28901 877.7714 134.23576 864.67455 56.96875 841.10156 C 18.99009 841.10156 9.4739031e-15 863.36577 0 907.89258 C 3.9290533 948.48737 146.02091 969.43843 426.27734 970.74805 L 612.89844 951.10547 L 673.66602 950.76953 L 673.66602 1000.0078 L 739.64453 1000.0078 L 739.64453 1587.6406 L 673.66602 1587.6406 L 673.66602 1797.9512 L 910.78125 1797.9512 L 910.78125 1731.9727 L 1059.2344 1731.9727 L 1059.2344 1800.0137 L 1302.5352 1800.0137 L 1302.5352 1589.7031 L 1236.5566 1589.7031 L 1236.5566 1000.0078 L 1302.5352 1000.0078 L 1302.5352 947.28711 L 1677.6094 945.21094 L 1976.2012 949.14062 L 1976.2012 469.82227 C 1974.8918 405.65143 1940.1878 373.56641 1872.0879 373.56641 L 1872.0859 373.56641 C 1805.2958 373.56641 1769.9365 392.55648 1766.0078 430.53516 C 1738.506 678.05138 1709.04 802.46388 1677.6094 803.77344 L 1302.5352 817.51562 L 1302.5352 684.54102 L 1236.5566 684.54102 L 1236.5566 218.55859 L 1302.5352 218.55859 L 1302.5352 0 L 1059.2344 0 L 1059.2344 68.041016 L 910.78125 68.041016 L 910.78125 0 L 673.66602 0 z M 805.625 134.02148 L 1170.5762 134.02148 L 1169.6543 822.38281 L 805.625 835.7207 L 805.625 134.02148 z M 1870.123 426.60547 C 1897.6248 426.60547 1911.375 441.01278 1911.375 469.82422 L 1911.375 801.80859 L 1785.6523 801.80859 L 1826.9062 452.14453 C 1828.2156 435.11956 1842.621 426.60547 1870.123 426.60547 z M 1169.4863 948.02344 L 1168.5137 1674.2402 L 805.625 1674.2402 L 805.625 950.03906 L 1169.4863 948.02344 z " />
</svg>
