<?xml version="1.0" encoding="UTF-8" standalone="no"?>
<svg
   xmlns:dc="http://purl.org/dc/elements/1.1/"
   xmlns:cc="http://creativecommons.org/ns#"
   xmlns:rdf="http://www.w3.org/1999/02/22-rdf-syntax-ns#"
   xmlns:svg="http://www.w3.org/2000/svg"
   xmlns="http://www.w3.org/2000/svg"
   xmlns:sodipodi="http://sodipodi.sourceforge.net/DTD/sodipodi-0.dtd"
   xmlns:inkscape="http://www.inkscape.org/namespaces/inkscape"
   width="18.011805"
   height="17.977583"
   id="svg2383"
   sodipodi:version="0.32"
   inkscape:version="0.46"
   sodipodi:docname="O36E.svg"
   inkscape:output_extension="org.inkscape.output.svg.inkscape">
  <metadata
     id="metadata2390">
    <rdf:RDF>
      <cc:Work
         rdf:about="">
        <dc:format>image/svg+xml</dc:format>
        <dc:type
           rdf:resource="http://purl.org/dc/dcmitype/StillImage" />
      </cc:Work>
    </rdf:RDF>
  </metadata>
  <defs
     id="defs2388">
    <inkscape:perspective
       sodipodi:type="inkscape:persp3d"
       inkscape:vp_x="0 : 8.9887915 : 1"
       inkscape:vp_y="0 : 1000 : 0"
       inkscape:vp_z="18.011805 : 8.9887915 : 1"
       inkscape:persp3d-origin="9.0059023 : 5.9925276 : 1"
       id="perspective2392" />
  </defs>
  <sodipodi:namedview
     inkscape:window-height="708"
     inkscape:window-width="1024"
     inkscape:pageshadow="2"
     inkscape:pageopacity="0.0"
     guidetolerance="10.0"
     gridtolerance="10.0"
     objecttolerance="10.0"
     borderopacity="1.0"
     bordercolor="#666666"
     pagecolor="#ffffff"
     id="base"
     showgrid="false"
     inkscape:zoom="36.34341"
     inkscape:cx="9.0059023"
     inkscape:cy="12.178608"
     inkscape:window-x="-4"
     inkscape:window-y="-4"
     inkscape:current-layer="svg2383" />
  <path
     style="fill:#000000; stroke:none"
     d="M 7.1875 0 L 7.1875 1.75 L 5.1875 1.75 L 5.1875 2.90625 L 7.1875 2.90625 L 7.1875 3.46875 L 5.65625 3.46875 L 5.65625 4.53125 L 7.1875 4.53125 L 7.1875 5.65625 L 5.65625 5.65625 L 5.65625 6.71875 L 7.1875 6.71875 L 7.1875 7.78125 L 5.65625 7.78125 L 5.65625 8.875 L 7.1875 8.875 L 7.1875 9.6875 L 5.1875 9.6875 L 5.1875 10.375 L 2.5625 10.375 C 1.923702 9.9035067 1.5844827 9.3904591 1.53125 8.8125 C 1.4780167 8.2345407 1.2214933 7.9374998 0.75 7.9375 C 0.248088 7.9375 -0.0076046667 8.2843243 0 8.96875 C 0.0076046667 9.6531753 0.28777331 10.206739 0.8125 10.625 C 1.337226 11.043259 1.8418373 11.25 2.34375 11.25 L 3.125 11.25 L 3.90625 12.6875 L 6.5 12.6875 L 7.28125 11.25 L 8.46875 11.25 L 14.625 15.75 L 14.625 17.96875 L 15.5 17.96875 L 15.53125 11.25 L 18 11.25 L 18 10.375 L 15.59375 10.375 L 15.59375 9.6875 L 13.59375 9.6875 L 13.59375 8.875 L 15.09375 8.875 L 15.09375 7.78125 L 13.59375 7.78125 L 13.59375 6.71875 L 15.09375 6.71875 L 15.09375 5.65625 L 13.59375 5.65625 L 13.59375 4.53125 L 15.09375 4.53125 L 15.09375 3.46875 L 13.59375 3.46875 L 13.59375 2.90625 L 15.59375 2.90625 L 15.59375 1.75 L 13.59375 1.75 L 13.59375 0 L 12.46875 0 L 12.46875 1.75 L 11.96875 1.75 L 11.96875 0.46875 L 10.8125 0.46875 L 10.8125 1.75 L 9.96875 1.75 L 9.96875 0.46875 L 8.8125 0.46875 L 8.8125 1.75 L 8.3125 1.75 L 8.3125 0 L 7.1875 0 z M 8.3125 2.90625 L 12.46875 2.90625 L 12.46875 9.6875 L 8.3125 9.6875 L 8.3125 2.90625 z M 0.75 8.40625 C 0.92490867 8.40625 1.0320807 8.6129901 1.0625 9.03125 C 1.0929187 9.44951 1.4068307 10.035155 2 10.75 C 1.43725 10.567487 1.0482467 10.303358 0.8125 9.96875 C 0.57675333 9.634142 0.45354067 9.2873181 0.46875 8.9375 C 0.48395933 8.5876827 0.57509133 8.40625 0.75 8.40625 z M 3.90625 11.25 L 6.5 11.25 L 6.125 11.90625 L 4.3125 11.90625 L 3.90625 11.25 z M 9.90625 11.25 L 14.625 11.25 L 14.625 14.71875 L 9.90625 11.25 z "
     id="path2385" />
</svg>
