<?xml version="1.0" encoding ="US-ASCII" standalone="yes"?>
<svg width="8.419698" height="8.4">
<path style="fill:#000000; stroke:none" d=" M 5.402967 2.286162  L 4.484002 2.404301  L 4.978114 5.751359  L 5.933843 5.577325  L 5.402967 2.286162  Z  M 3.574457 2.35114  L 2.57355 2.509382  L 3.081213 5.898663  L 4.043443 5.750816  L 3.574457 2.35114  Z  M 4.24651 0.951997  C 4.391274 0.951997 4.538142 0.960184 4.686561 0.976913  C 5.601484 1.08004 6.224627 1.471951 6.909636 2.489787  C 7.923358 3.996043 7.559734 5.983091 5.771309 7.120827  C 5.224973 7.39733 4.670839 7.522599 4.141351 7.522599  C 2.064055 7.522599 0.366127 5.594535 1.00668 3.306696  C 1.406999 1.876881 2.708056 0.951997 4.24651 0.951997  Z  M 4.363882 0  C 3.68323 0 2.977095 0.160591 2.303853 0.489975  C 1.1215 1.068444 0.401437 1.998504 0.102807 3.332916  C -0.409827 5.623618 1.028241 7.815403 3.388687 8.340961  C 3.569314 8.38118 3.780885 8.4 4.008322 8.4  C 4.787055 8.4 5.751883 8.179397 6.29819 7.841914  C 8.685145 6.367331 9.126406 3.482169 7.287157 1.303276  C 6.564464 0.447135 5.499645 0 4.363882 0  Z "/></svg>
