<?xml version="1.0" encoding ="US-ASCII" standalone="yes"?>
<svg width="17.528692" height="13.68">
<path style="fill:#000000; stroke:none" d=" M 16.690365 13.070307  L 16.690365 10.841113  Q 16.690365 10.059944 16.347408 10.059944  Q 16.042562 10.059944 15.871084 10.841113  Q 15.547188 12.022395 15.43287 12.25103  L 2.095822 12.25103  Q 1.981504 12.022395 1.657604 10.841113  Q 1.486128 10.059944 1.181281 10.059944  Q 0.819276 10.059944 0.819276 10.841113  L 0.819276 13.070307  L 16.690365 13.070307  Z  M 13.432314 11.565125  L 11.717548 0.838329  L 5.811142 0.838329  L 4.096379 11.565125  L 13.432314 11.565125  Z  M 12.441561 0  L 14.270641 11.565125  L 14.766016 11.565125  Q 15.299499 9.164457 16.328356 9.164457  Q 17.528692 9.18351 17.528692 10.078997  L 17.528692 13.68  L 0 13.68  L 0 10.078997  Q 0 9.18351 1.200334 9.164457  Q 2.229192 9.164457 2.762674 11.565125  L 3.25805 11.565125  L 5.087131 0  L 12.441561 0  Z  M 7.202006 3.410474  Q 7.906964 1.810028 9.126351 1.781449  Q 10.345737 1.752869 9.821785 2.715042  Q 9.297828 3.677215 7.202006 3.410474  Z  M 7.182952 5.753983  Q 7.906964 4.134485 9.126351 4.105905  Q 10.345737 4.077326 9.812256 5.039498  Q 9.278774 6.001671 7.182952 5.753983  Z  M 7.182952 8.059387  Q 7.906964 6.458942 9.126351 6.420835  Q 10.345737 6.38273 9.812256 7.354431  Q 9.278774 8.326127 7.182952 8.059387  Z  M 7.182952 10.631533  Q 7.906964 9.031087 9.126351 9.002507  Q 10.345737 8.973927 9.812256 9.936103  Q 9.278774 10.898274 7.182952 10.631533  Z "/></svg>
