<?xml version="1.0" encoding="UTF-8" standalone="no"?>
<svg
   xmlns:dc="http://purl.org/dc/elements/1.1/"
   xmlns:cc="http://web.resource.org/cc/"
   xmlns:rdf="http://www.w3.org/1999/02/22-rdf-syntax-ns#"
   xmlns:svg="http://www.w3.org/2000/svg"
   xmlns="http://www.w3.org/2000/svg"
   xmlns:sodipodi="http://inkscape.sourceforge.net/DTD/sodipodi-0.dtd"
   xmlns:inkscape="http://www.inkscape.org/namespaces/inkscape"
   width="15.297162"
   height="16.530001pt"
   id="svg1410"
   sodipodi:version="0.32"
   inkscape:version="0.43"
   sodipodi:docname="O64.svg"
   sodipodi:docbase="C:\Program Files\JSesh\fonts"
   version="1.0">
  <metadata
     id="metadata1417">
    <rdf:RDF>
      <cc:Work
         rdf:about="">
        <dc:format>image/svg+xml</dc:format>
        <dc:type
           rdf:resource="http://purl.org/dc/dcmitype/StillImage" />
      </cc:Work>
    </rdf:RDF>
  </metadata>
  <defs
     id="defs1415" />
  <sodipodi:namedview
     inkscape:window-height="708"
     inkscape:window-width="1024"
     inkscape:pageshadow="2"
     inkscape:pageopacity="0.0"
     borderopacity="1.0"
     bordercolor="#666666"
     pagecolor="#ffffff"
     id="base"
     inkscape:zoom="27.247145"
     inkscape:cx="7.648581"
     inkscape:cy="10.771556"
     inkscape:window-x="-4"
     inkscape:window-y="-4"
     inkscape:current-layer="svg1410" />
  <g
     id="g1343">
    <path
       id="path1412"
       d="M 15.297162,8.1967011 L 10.637546,8.1967011 L 10.637546,7.3329691 L 14.410698,7.3329691 L 14.410698,0.9231641 L 0.886463,0.9231641 L 0.886463,7.3329691 L 4.65961,7.3329691 L 4.65961,8.1967011 L -9.6505456e-011,8.1967011 L -9.6505456e-011,0.036701093 L 15.297162,0.036701093 L 15.297162,8.1967011 z "
       style="fill:#000000;stroke:none" />
    <path
       sodipodi:nodetypes="ccccccccccccccccccccccccc"
       id="path1335"
       d="M 3.9548454,2.6772134 C 3.4752663,2.7983957 3.7703884,3.3766216 4.2177696,3.2985482 C 5.0609962,3.3955949 6.0990964,3.4492821 6.7360954,3.9272134 C 7.5811212,4.8482601 7.2014629,6.7623239 7.2998454,7.6709634 C 7.306899,7.7198894 7.3098454,11.341797 7.3098454,13.177213 C 6.1303192,12.612075 4.7306473,12.452373 3.4685954,12.705963 C 2.9728477,12.966378 3.6832129,13.309331 4.0083556,13.223949 C 5.2405227,13.357118 6.6415143,13.687251 7.2673454,14.833463 C 7.4721269,15.520641 6.5740403,14.713649 6.2048454,14.770963 C 5.3134438,14.578429 4.3480069,14.54451 3.4628461,14.697413 C 2.9936834,15.007134 3.6843178,15.289783 4.0083556,15.223949 C 5.2660216,15.37562 6.6577562,15.716574 7.2673454,16.864713 C 7.2743028,18.141093 7.2669569,18.984627 7.3010954,20.158463 C 7.2718124,20.87844 8.2334727,20.87684 8.2360953,20.170971 C 8.2273965,19.014387 8.1448374,17.99919 8.2964921,16.877333 C 8.6023977,15.618754 10.786097,15.425607 12.142346,15.114713 C 12.482472,14.714847 11.662388,14.603907 11.329846,14.645963 C 10.27649,14.565189 9.1820928,14.72138 8.2360954,15.208463 C 8.2039218,14.449855 8.9509838,14.013359 9.4860954,13.708463 C 10.330641,13.345232 11.260425,13.309567 12.142346,13.114713 C 12.498705,12.805312 11.816889,12.551446 11.492961,12.623776 C 10.375054,12.516206 9.2237544,12.681077 8.2148454,13.177213 C 8.2315191,10.312043 8.2779346,7.5391865 8.1957069,4.8288264 C 8.1296786,3.9907825 7.6468266,3.2216004 6.8345831,2.9709857 C 5.9473957,2.5673941 4.9069702,2.5583628 3.9548454,2.6772134 z "
       style="fill:#000000;stroke:none" />
  </g>
</svg>
