<?xml version="1.0" encoding="UTF-8" standalone="no"?>
<svg
   xmlns:dc="http://purl.org/dc/elements/1.1/"
   xmlns:cc="http://creativecommons.org/ns#"
   xmlns:rdf="http://www.w3.org/1999/02/22-rdf-syntax-ns#"
   xmlns:svg="http://www.w3.org/2000/svg"
   xmlns="http://www.w3.org/2000/svg"
   xmlns:sodipodi="http://sodipodi.sourceforge.net/DTD/sodipodi-0.dtd"
   xmlns:inkscape="http://www.inkscape.org/namespaces/inkscape"
   width="15.353951"
   height="17.977583"
   id="svg2434"
   sodipodi:version="0.32"
   inkscape:version="0.46"
   sodipodi:docname="O76.svg"
   inkscape:output_extension="org.inkscape.output.svg.inkscape">
  <metadata
     id="metadata2441">
    <rdf:RDF>
      <cc:Work
         rdf:about="">
        <dc:format>image/svg+xml</dc:format>
        <dc:type
           rdf:resource="http://purl.org/dc/dcmitype/StillImage" />
      </cc:Work>
    </rdf:RDF>
  </metadata>
  <defs
     id="defs2439">
    <inkscape:perspective
       sodipodi:type="inkscape:persp3d"
       inkscape:vp_x="0 : 8.9887915 : 1"
       inkscape:vp_y="0 : 1000 : 0"
       inkscape:vp_z="15.353951 : 8.9887915 : 1"
       inkscape:persp3d-origin="7.6769757 : 5.9925276 : 1"
       id="perspective2443" />
  </defs>
  <sodipodi:namedview
     inkscape:window-height="667"
     inkscape:window-width="640"
     inkscape:pageshadow="2"
     inkscape:pageopacity="0.0"
     guidetolerance="10.0"
     gridtolerance="10.0"
     objecttolerance="10.0"
     borderopacity="1.0"
     bordercolor="#666666"
     pagecolor="#ffffff"
     id="base"
     showgrid="false"
     inkscape:zoom="25.698672"
     inkscape:cx="7.6769757"
     inkscape:cy="8.9887915"
     inkscape:window-x="110"
     inkscape:window-y="67"
     inkscape:current-layer="svg2434" />
  <path
     style="fill:#000000; stroke:none"
     d="M 7.688383,14.920482 C 7.2625177,15.194252 7.049585,15.631524 7.049585,16.232298 C 7.049585,16.833071 7.2625177,17.133457 7.688383,17.133457 C 8.1598757,17.133457 8.395622,16.836873 8.395622,16.243704 C 8.395622,15.635326 8.1598757,15.194252 7.688383,14.920482 z M 8.235923,1.003824 L 8.258738,13.323488 L 9.102862,12.479362 C 9.285376,12.266431 9.4907037,12.258826 9.718845,12.456549 C 9.946987,12.654272 9.954592,12.851995 9.74166,13.049718 L 8.464065,14.372941 C 9.0724437,14.996529 9.376633,15.582093 9.376633,16.129633 C 9.376633,17.3616 8.813883,17.977583 7.688383,17.977583 C 6.5780917,17.977583 6.022946,17.353995 6.022946,16.106819 C 6.022946,15.589698 6.311926,15.011738 6.889886,14.372941 L 5.612291,13.049718 C 5.3993583,12.836785 5.406963,12.63526 5.635105,12.445142 C 5.863247,12.255024 6.068575,12.266431 6.251089,12.479362 L 7.118028,13.300673 L 7.118028,1.003824 L 1.003824,1.003824 L 1.003824,7.140842 L 4.676909,7.140842 L 4.676909,8.121852 L 0,8.121852 L 0,0 L 15.353951,0 L 15.353951,8.121852 L 10.677042,8.121852 L 10.677042,7.140842 L 14.350126,7.140842 L 14.350126,1.003824 L 8.235923,1.003824 z"
     id="path2436"
     sodipodi:nodetypes="csssccccsccsssccscccccccccccccccc" />
</svg>
