<?xml version="1.0" encoding="UTF-8" standalone="no"?>
<svg
   xmlns:dc="http://purl.org/dc/elements/1.1/"
   xmlns:cc="http://creativecommons.org/ns#"
   xmlns:rdf="http://www.w3.org/1999/02/22-rdf-syntax-ns#"
   xmlns:svg="http://www.w3.org/2000/svg"
   xmlns="http://www.w3.org/2000/svg"
   xmlns:sodipodi="http://sodipodi.sourceforge.net/DTD/sodipodi-0.dtd"
   xmlns:inkscape="http://www.inkscape.org/namespaces/inkscape"
   width="12.68469"
   height="17.977583"
   id="svg2493"
   sodipodi:version="0.32"
   inkscape:version="0.46"
   sodipodi:docname="O79.svg"
   inkscape:output_extension="org.inkscape.output.svg.inkscape">
  <metadata
     id="metadata2500">
    <rdf:RDF>
      <cc:Work
         rdf:about="">
        <dc:format>image/svg+xml</dc:format>
        <dc:type
           rdf:resource="http://purl.org/dc/dcmitype/StillImage" />
      </cc:Work>
    </rdf:RDF>
  </metadata>
  <defs
     id="defs2498">
    <inkscape:perspective
       sodipodi:type="inkscape:persp3d"
       inkscape:vp_x="0 : 8.9887915 : 1"
       inkscape:vp_y="0 : 1000 : 0"
       inkscape:vp_z="12.68469 : 8.9887915 : 1"
       inkscape:persp3d-origin="6.3423452 : 5.9925276 : 1"
       id="perspective2502" />
  </defs>
  <sodipodi:namedview
     inkscape:window-height="667"
     inkscape:window-width="640"
     inkscape:pageshadow="2"
     inkscape:pageopacity="0.0"
     guidetolerance="10.0"
     gridtolerance="10.0"
     objecttolerance="10.0"
     borderopacity="1.0"
     bordercolor="#666666"
     pagecolor="#ffffff"
     id="base"
     showgrid="false"
     inkscape:zoom="25.698672"
     inkscape:cx="6.3423452"
     inkscape:cy="8.9887915"
     inkscape:window-x="22"
     inkscape:window-y="29"
     inkscape:current-layer="svg2493" />
  <path
     style="fill:#000000; stroke:none"
     d="M 6.387974,10.380457 L 4.905051,12.251221 L 7.848082,12.251221 L 6.387974,10.380457 z M 6.502045,2.555189 C 7.0647943,2.3574663 7.353774,1.9848347 7.368984,1.437294 C 7.368984,0.813706 7.0419807,0.49430733 6.387974,0.479098 C 5.703548,0.49430733 5.361335,0.80610133 5.361335,1.41448 C 5.3461257,2.0076487 5.6427103,2.387885 6.251089,2.555189 L 6.502045,2.555189 z M 12.68469,12.251221 L 12.68469,17.977583 L 8.851907,17.977583 L 8.851907,17.293158 L 11.863379,17.293158 L 11.863379,12.935647 L 0.821311,12.935647 L 0.821311,17.293158 L 3.80997,17.293158 L 3.80997,17.977583 L 0,17.977583 L 0,12.251221 L 3.718713,12.251221 L 5.840433,9.650403 L 5.840433,2.897402 C 5.2016357,2.6084227 4.882237,2.1141153 4.882237,1.41448 C 4.882237,0.53233133 5.3841493,0.060838 6.387974,0 C 7.3613793,0.045628667 7.848082,0.517122 7.848082,1.41448 C 7.848082,2.1293247 7.5286833,2.631237 6.889886,2.920217 L 6.889886,9.650403 L 9.03442,12.251221 L 12.68469,12.251221 z"
     id="path2495"
     sodipodi:nodetypes="cccccscscccccccccccccccccscscccc" />
</svg>
