<?xml version="1.0" encoding="UTF-8" standalone="no"?>
<svg
   xmlns:dc="http://purl.org/dc/elements/1.1/"
   xmlns:cc="http://web.resource.org/cc/"
   xmlns:rdf="http://www.w3.org/1999/02/22-rdf-syntax-ns#"
   xmlns:svg="http://www.w3.org/2000/svg"
   xmlns="http://www.w3.org/2000/svg"
   xmlns:sodipodi="http://inkscape.sourceforge.net/DTD/sodipodi-0.dtd"
   xmlns:inkscape="http://www.inkscape.org/namespaces/inkscape"
   width="15.530001pt"
   height="17.977417"
   id="svg1369"
   sodipodi:version="0.32"
   inkscape:version="0.43"
   sodipodi:docname="US22O8A.svg"
   sodipodi:docbase="C:\Program Files\JSesh\fonts\envoi25_SR"
   version="1.0">
  <metadata
     id="metadata1376">
    <rdf:RDF>
      <cc:Work
         rdf:about="">
        <dc:format>image/svg+xml</dc:format>
        <dc:type
           rdf:resource="http://purl.org/dc/dcmitype/StillImage" />
        <dc:creator>
          <cc:Agent>
            <dc:title>SR &amp; ST</dc:title>
          </cc:Agent>
        </dc:creator>
        <dc:title>US22O8A</dc:title>
        <dc:date>03/04/06</dc:date>
        <dc:publisher>
          <cc:Agent>
            <dc:title>Serge Rosmorduc</dc:title>
          </cc:Agent>
        </dc:publisher>
        <dc:description>optimisation de signes de Jsesh
valeur : HwtaAt</dc:description>
        <cc:license
           rdf:resource="http://creativecommons.org/licenses/GPL/2.0/" />
      </cc:Work>
      <cc:License
         rdf:about="http://creativecommons.org/licenses/GPL/2.0/">
        <cc:permits
           rdf:resource="http://web.resource.org/cc/Reproduction" />
        <cc:permits
           rdf:resource="http://web.resource.org/cc/Distribution" />
        <cc:requires
           rdf:resource="http://web.resource.org/cc/Notice" />
        <cc:permits
           rdf:resource="http://web.resource.org/cc/DerivativeWorks" />
        <cc:requires
           rdf:resource="http://web.resource.org/cc/ShareAlike" />
        <cc:requires
           rdf:resource="http://web.resource.org/cc/SourceCode" />
      </cc:License>
    </rdf:RDF>
  </metadata>
  <defs
     id="defs1374" />
  <sodipodi:namedview
     inkscape:window-height="708"
     inkscape:window-width="1024"
     inkscape:pageshadow="2"
     inkscape:pageopacity="0.0"
     borderopacity="1.0"
     bordercolor="#666666"
     pagecolor="#ffffff"
     id="base"
     inkscape:zoom="29.98206"
     inkscape:cx="9.648675"
     inkscape:cy="8.9887084"
     inkscape:window-x="-4"
     inkscape:window-y="-4"
     inkscape:current-layer="svg1369" />
  <g
     id="g1379"
     transform="translate(6.410178,-1.602714e-9)">
    <path
       id="path1371"
       d="M 0,17.977417 L 6.912157,17.977417 L 6.912157,0 L 0,0 L 0,17.977417 z M 6.06992,10.281108 L 2.584798,10.281108 L 2.584798,17.13518 L 0.842238,17.13518 L 0.842238,0.784152 L 6.06992,0.784152 L 6.06992,10.281108 z M 6.06992,11.123345 L 6.06992,17.13518 L 3.427036,17.13518 L 3.427036,11.123345 L 6.06992,11.123345 z M 6.011834,5.576194 L 0.958408,5.576194 C 1.152026,3.8142713 1.9942637,2.93331 3.485121,2.93331 C 4.9759783,2.93331 5.818216,3.8142713 6.011834,5.576194 z M 5.430981,5.082469 C 5.1599157,3.959485 4.5112957,3.397993 3.485121,3.397993 C 2.439585,3.397993 1.7812843,3.959485 1.510219,5.082469 L 5.430981,5.082469 z "
       style="fill:#000000;stroke:none" />
    <path
       id="path1335"
       d="M -3.7193802,7.406661 L -3.7208202,8.345696 L -4.2205742,8.295943 L -4.4896342,8.266644 C -5.0654692,8.129927 -5.3575302,7.991041 -5.5142522,7.880173 C -5.3693972,7.776668 -5.0848902,7.64716 -4.4833202,7.494579 C -4.2215262,7.465273 -3.9811712,7.435967 -3.7193802,7.406661 z M 8.0787508,7.317328 C 9.7029558,7.317328 11.138408,7.404045 11.708018,7.55219 C 11.899223,7.605555 12.035453,7.678423 12.116742,7.756644 C 12.168748,7.806741 12.188728,7.846423 12.187696,7.884053 C 12.186465,7.929168 12.158305,7.979579 12.095992,8.039901 C 12.00673,8.126332 11.863305,8.208821 11.66545,8.273298 C 11.220636,8.391912 10.323222,8.437411 9.2081768,8.437411 C 8.8726848,8.437411 8.5174888,8.433292 8.1490018,8.425807 C 6.5277928,8.392881 4.6550828,8.292601 3.0293618,8.191623 C 2.2709808,8.144508 1.5363098,8.080066 0.22798082,8.080066 C -0.17991818,8.080066 -0.64358018,8.08633 -1.1811012,8.101335 C -1.1811682,8.101334 -1.1812472,8.101333 -1.1813352,8.101333 C -1.2047932,8.101333 -1.8736432,8.155517 -2.1964442,8.226079 C -2.4185262,8.274635 -2.5977162,8.330951 -2.8197712,8.378565 L -2.8129662,7.449906 C -2.6075492,7.498024 -2.4578872,7.563265 -2.2526632,7.618588 C -1.9853882,7.690661 -1.2561562,7.745144 -1.1421712,7.745144 C -1.1379072,7.745144 -1.1345032,7.745068 -1.1320162,7.744914 C -0.55692218,7.749233 -0.027189177,7.75624 0.48400382,7.75624 C 1.3295558,7.75624 2.1243818,7.73707 2.9898488,7.654862 L 3.0031998,7.653588 L 3.0164278,7.651294 C 4.3577898,7.418092 6.3279338,7.317328 8.0787508,7.317328 z M -3.6887282,6.169194 L -3.7029582,6.686054 C -3.9810852,6.716751 -4.3232122,6.772851 -4.5849382,6.802148 L -4.6079022,6.804695 L -4.6308342,6.81044 C -5.9623652,7.14492 -6.1044362,7.454213 -6.2721912,7.698764 L -6.4101782,7.899228 L -6.2694322,8.098421 C -6.1034122,8.333239 -5.8073512,8.676021 -4.6287112,8.952468 L -4.6083232,8.957281 L -4.5869642,8.959614 L -4.2966012,8.991237 L -3.7370222,9.045169 L -3.7458662,9.769194 L -2.8138442,9.769194 L -2.8031342,9.06704 C -2.5726462,9.017918 -2.2778522,8.959832 -2.0473912,8.909446 C -1.7736792,8.849597 -1.1975742,8.800568 -1.1785842,8.800568 C -1.1785212,8.800568 -1.1784662,8.800568 -1.1784172,8.800569 C -0.64307418,8.785715 -0.18218318,8.779525 0.22243782,8.779525 C 1.5235498,8.779525 2.2429128,8.843564 2.9854048,8.889678 C 4.6218338,8.991327 6.5031148,9.091965 8.1350558,9.125105 C 8.4889088,9.132286 8.8313048,9.136203 9.1574478,9.136203 C 10.361253,9.136203 11.343719,9.082858 11.864307,8.943596 C 12.182403,8.840359 12.416806,8.702957 12.582917,8.542003 C 12.775922,8.354937 12.880603,8.130466 12.886872,7.903365 C 12.893335,7.668777 12.795438,7.438916 12.601344,7.252304 C 12.436521,7.093816 12.198398,6.962811 11.889896,6.876842 C 11.262647,6.713672 9.7453398,6.618975 8.0441368,6.618975 C 6.2646338,6.618975 4.2839098,6.722589 2.9102448,6.959834 C 2.0714758,7.038931 1.3008648,7.05733 0.47621082,7.05733 C -0.035884177,7.05733 -0.56881518,7.050235 -1.1518502,7.046174 C -1.1539312,7.046299 -1.1567282,7.04636 -1.1601952,7.04636 C -1.2558912,7.04636 -1.8620252,6.99948 -2.0702572,6.943355 C -2.3034222,6.880487 -2.6175162,6.754058 -2.8526622,6.701863 L -2.8463652,6.175655 L -3.6887282,6.169194 z "
       style="fill:#000000;stroke:none" />
  </g>
</svg>
