<?xml version="1.0" encoding="UTF-8" standalone="no"?>
<!-- Created with Inkscape (http://www.inkscape.org/) -->
<svg
   xmlns:dc="http://purl.org/dc/elements/1.1/"
   xmlns:cc="http://creativecommons.org/ns#"
   xmlns:rdf="http://www.w3.org/1999/02/22-rdf-syntax-ns#"
   xmlns:svg="http://www.w3.org/2000/svg"
   xmlns="http://www.w3.org/2000/svg"
   xmlns:sodipodi="http://sodipodi.sourceforge.net/DTD/sodipodi-0.dtd"
   xmlns:inkscape="http://www.inkscape.org/namespaces/inkscape"
   width="1800"
   height="1800"
   id="svg2451"
   sodipodi:version="0.32"
   inkscape:version="0.46"
   version="1.0"
   sodipodi:docname="O91.svg"
   inkscape:output_extension="org.inkscape.output.svg.inkscape">
  <defs
     id="defs2453">
    <inkscape:perspective
       sodipodi:type="inkscape:persp3d"
       inkscape:vp_x="0 : 526.18109 : 1"
       inkscape:vp_y="0 : 1000 : 0"
       inkscape:vp_z="744.09448 : 526.18109 : 1"
       inkscape:persp3d-origin="372.04724 : 350.78739 : 1"
       id="perspective2459" />
  </defs>
  <sodipodi:namedview
     id="base"
     pagecolor="#ffffff"
     bordercolor="#666666"
     borderopacity="1.0"
     inkscape:pageopacity="0.0"
     inkscape:pageshadow="2"
     inkscape:zoom="0.28040346"
     inkscape:cx="898.6875"
     inkscape:cy="899.48438"
     inkscape:document-units="px"
     inkscape:current-layer="layer1"
     showgrid="true"
     inkscape:window-width="1024"
     inkscape:window-height="708"
     inkscape:window-x="0"
     inkscape:window-y="26">
    <inkscape:grid
       type="xygrid"
       id="grid2576"
       visible="true"
       enabled="true" />
  </sodipodi:namedview>
  <metadata
     id="metadata2456">
    <rdf:RDF>
      <cc:Work
         rdf:about="">
        <dc:format>image/svg+xml</dc:format>
        <dc:type
           rdf:resource="http://purl.org/dc/dcmitype/StillImage" />
      </cc:Work>
    </rdf:RDF>
  </metadata>
  <g
     inkscape:label="Calque 1"
     inkscape:groupmode="layer"
     id="layer1">
    <path
       style="fill:#000000;stroke:none"
       d="M 495.21875 3.59375 L 495.21875 728.03125 C 461.60818 702.41582 431.03798 689.15625 402.65625 689.15625 C 386.35473 688.06945 367.81876 687.58672 349.34375 686.5 C 258.05645 703.88798 203.56156 710.5 184 710.5 C 170.95893 710.50003 165.34375 719.76822 165.34375 737.15625 C 165.34375 762.15167 183.30736 774.5 221.34375 774.5 C 285.67732 763.14703 334.15364 758.5 368 758.5 C 371.35501 758.50003 375.03385 758.5 378.65625 758.5 C 380.46733 758.50004 382.54635 758.40622 384 758.5 C 403.56143 758.50003 418.47596 767.28541 429.34375 782.5 C 408.19332 808.68593 358.32483 819.8125 285.34375 819.8125 C 281.4982 819.8125 278.11515 819.8125 274.65625 819.8125 C 272.92679 819.81248 271.37366 819.86557 269.34375 819.8125 C 186.20698 817.63897 114.77477 807.37405 50.65625 787.8125 C 18.053625 787.8125 0 806.86274 0 843.8125 C 4.3470505 877.50184 122.09083 896.06953 354.65625 897.15625 L 469.34375 883.8125 L 495.21875 883.90625 L 495.21875 1797.4375 L 1323.5 1797.4375 L 1323.5 887.25 L 1796.8125 889.15625 L 1796.8125 395.8125 C 1796.8125 329.79141 1762.8753 297.15625 1692.8125 297.15625 C 1622.749 297.15625 1586.1636 316.73882 1583.4688 355.8125 C 1554.5678 604.09877 1535.7866 706.93581 1506.125 713.15625 C 1425.4991 707.08415 1376.115 706.45753 1323.5 709.15625 L 1323.5 3.59375 L 495.21875 3.59375 z M 573.40625 75.1875 L 1247.0625 75.1875 L 1247.0625 714.65625 C 1224.6762 716.55142 1199.9673 718.73919 1171.1875 721.15625 C 1079.5688 736.82346 702.09554 755.86105 573.40625 779.25 L 573.40625 75.1875 z M 1690.125 350.5 C 1718.4195 350.50001 1732.8124 366.17037 1732.8125 395.8125 L 1732.8125 737.15625 L 1602.125 737.15625 L 1644.8125 379.8125 C 1646.16 360.94933 1661.8304 350.5 1690.125 350.5 z M 573.40625 884.21875 L 1247.0625 886.9375 L 1247.0625 1713.625 L 818.71875 1713.625 L 818.71875 1052.5 L 573.40625 1052.5 L 573.40625 884.21875 z M 573.40625 1138.6875 L 740.5 1138.6875 L 740.5 1713.625 L 573.40625 1713.625 L 573.40625 1138.6875 z "
       id="path2385" />
  </g>
</svg>
