<?xml version="1.0" encoding="UTF-8" standalone="no"?>
<svg
   xmlns:dc="http://purl.org/dc/elements/1.1/"
   xmlns:cc="http://creativecommons.org/ns#"
   xmlns:rdf="http://www.w3.org/1999/02/22-rdf-syntax-ns#"
   xmlns:svg="http://www.w3.org/2000/svg"
   xmlns="http://www.w3.org/2000/svg"
   xmlns:sodipodi="http://sodipodi.sourceforge.net/DTD/sodipodi-0.dtd"
   xmlns:inkscape="http://www.inkscape.org/namespaces/inkscape"
   width="12.65482234954834"
   height="18.0"
   id="svg4101"
   version="1.1"
   inkscape:version="0.48.0 r9654"
   sodipodi:docname="O98.svg.2013_03_24_13_23_34.0.svg">
  <metadata
     id="metadata4109">
    <rdf:RDF>
      <cc:Work
         rdf:about="">
        <dc:format>image/svg+xml</dc:format>
        <dc:type
           rdf:resource="http://purl.org/dc/dcmitype/StillImage" />
        <dc:title></dc:title>
      </cc:Work>
    </rdf:RDF>
  </metadata>
  <defs
     id="defs4107" />
  <sodipodi:namedview
     pagecolor="#ffffff"
     bordercolor="#666666"
     borderopacity="1"
     objecttolerance="10"
     gridtolerance="10"
     guidetolerance="10"
     inkscape:pageopacity="0"
     inkscape:pageshadow="2"
     inkscape:window-width="1920"
     inkscape:window-height="1152"
     id="namedview4105"
     showgrid="false"
     inkscape:zoom="52.355321"
     inkscape:cx="2.6219616"
     inkscape:cy="9"
     inkscape:window-x="1280"
     inkscape:window-y="0"
     inkscape:window-maximized="1"
     inkscape:current-layer="svg4101" />
  <path
     style="fill:#000000;stroke:none"
     d="M 7 0 C 6.4213193 1.3248734 6.2907674 2.214626 6.65625 2.65625 C 6.519194 2.7780777 6.46875 2.8941946 6.46875 3.03125 C 6.46875 3.1835343 6.519194 3.3148788 6.65625 3.40625 L 6.40625 3.78125 L 5.90625 3.78125 L 5.90625 6 L 5.59375 6 L 5.34375 5.625 C 5.4655769 5.53363 5.53125 5.4022846 5.53125 5.25 C 5.53125 5.112944 5.4655774 4.9968269 5.34375 4.875 C 5.6940035 4.4181468 5.5947016 3.5123734 5.03125 2.1875 C 4.4830265 3.5123734 4.383725 4.4181468 4.71875 4.875 C 4.6121513 4.9968269 4.53125 5.112944 4.53125 5.25 C 4.53125 5.4022846 4.6121509 5.5336297 4.71875 5.625 L 4.46875 6 L 4.1875 6 L 3.90625 5.625 C 4.043306 5.53363 4.125 5.4022846 4.125 5.25 C 4.125 5.112944 4.043306 4.9968269 3.90625 4.875 C 4.271732 4.4181468 4.1572019 3.5123734 3.59375 2.1875 C 3.0455265 3.5123734 2.9462241 4.4181468 3.28125 4.875 C 3.1594223 4.9968269 3.09375 5.112944 3.09375 5.25 C 3.09375 5.4022846 3.1594225 5.5336297 3.28125 5.625 L 3.03125 6 L 2.75 6 L 2.5 5.625 C 2.6370561 5.5336297 2.6875 5.4022846 2.6875 5.25 C 2.6875 5.112944 2.6370561 4.9968269 2.5 4.875 C 2.8654819 4.4181468 2.7509518 3.5123734 2.1875 2.1875 C 1.6240483 3.5123734 1.5247458 4.4181468 1.875 4.875 C 1.7531722 4.9968269 1.6875 5.112944 1.6875 5.25 C 1.6875 5.4022846 1.7531723 5.5336297 1.875 5.625 L 1.625 6 L 1.3125 6 L 1.09375 5.625 C 1.2003494 5.53363 1.25 5.4022846 1.25 5.25 C 1.25 5.112944 1.2003491 4.9968269 1.09375 4.875 C 1.4287752 4.4181468 1.3294728 3.5123734 0.78125 2.1875 C 0.21779758 3.5123734 0.11849578 4.4181468 0.46875 4.875 C 0.34692228 4.9968269 0.28125 5.112944 0.28125 5.25 C 0.28125 5.4022846 0.34692232 5.5336297 0.46875 5.625 L 0.21875 6 L 0 6 L 0 18 L 12.65625 18 L 12.65625 3.78125 L 12.0625 3.78125 L 11.78125 3.40625 C 11.918306 3.314879 12 3.1835343 12 3.03125 C 12 2.8941946 11.918304 2.7780777 11.78125 2.65625 C 12.146733 2.214626 12.04743 1.3248734 11.46875 0 C 10.874842 1.3248734 10.759518 2.214626 11.125 2.65625 C 11.003173 2.7780777 10.9375 2.8941946 10.9375 3.03125 C 10.9375 3.1835343 11.003169 3.3148788 11.125 3.40625 L 10.875 3.78125 L 10.5625 3.78125 L 10.3125 3.40625 C 10.434327 3.314879 10.5 3.1835343 10.5 3.03125 C 10.5 2.8941946 10.43433 2.7780777 10.3125 2.65625 C 10.677982 2.214626 10.547431 1.3248734 9.96875 0 C 9.3748414 1.3248734 9.2595177 2.214626 9.625 2.65625 C 9.5031722 2.7780777 9.46875 2.8941946 9.46875 3.03125 C 9.46875 3.1835343 9.5031722 3.3148788 9.625 3.40625 L 9.375 3.78125 L 9.0625 3.78125 L 8.8125 3.40625 C 8.9343272 3.3148788 9 3.1835343 9 3.03125 C 9 2.8941946 8.9343272 2.7780777 8.8125 2.65625 C 9.1779823 2.214626 9.0626593 1.3248734 8.46875 0 C 7.8900703 1.3248734 7.7907677 2.214626 8.15625 2.65625 C 8.0344225 2.7780777 7.96875 2.8941946 7.96875 3.03125 C 7.96875 3.1835343 8.0344227 3.3148788 8.15625 3.40625 L 7.90625 3.78125 L 7.59375 3.78125 L 7.34375 3.40625 C 7.4655769 3.314879 7.5 3.1835343 7.5 3.03125 C 7.5 2.8941946 7.4655764 2.7780777 7.34375 2.65625 C 7.7092317 2.214626 7.5939083 1.3248734 7 0 z M 7 0.75 C 7.2893396 1.5723356 7.2893396 2.197811 7 2.59375 C 6.725888 2.197811 6.725888 1.5723356 7 0.75 z M 8.46875 0.75 C 8.7580903 1.5723356 8.7580903 2.197811 8.46875 2.59375 C 8.1946386 2.197811 8.1946386 1.5723356 8.46875 0.75 z M 9.96875 0.75 C 10.242862 1.5723356 10.242862 2.197811 9.96875 2.59375 C 9.6794098 2.197811 9.6794098 1.5723356 9.96875 0.75 z M 11.46875 0.75 C 11.742861 1.5723356 11.742861 2.197811 11.46875 2.59375 C 11.17941 2.197811 11.17941 1.5723356 11.46875 0.75 z M 7 2.84375 C 7.137056 2.874207 7.1875 2.9246509 7.1875 3.03125 C 7.1875 3.1530777 7.137056 3.2507934 7 3.28125 C 6.862944 3.250793 6.78125 3.1530777 6.78125 3.03125 C 6.78125 2.9246512 6.862944 2.8742067 7 2.84375 z M 8.46875 2.84375 C 8.6210349 2.874207 8.6875 2.9246509 8.6875 3.03125 C 8.6875 3.1530777 8.6210353 3.2507934 8.46875 3.28125 C 8.3316947 3.250793 8.28125 3.1530777 8.28125 3.03125 C 8.28125 2.9246512 8.331695 2.8742067 8.46875 2.84375 z M 9.96875 2.84375 C 10.105806 2.874207 10.1875 2.9246509 10.1875 3.03125 C 10.1875 3.1530777 10.105804 3.2507934 9.96875 3.28125 C 9.8164658 3.2507934 9.75 3.1530777 9.75 3.03125 C 9.75 2.9246512 9.8164658 2.8742067 9.96875 2.84375 z M 11.46875 2.84375 C 11.605805 2.874207 11.6875 2.9246509 11.6875 3.03125 C 11.6875 3.1530777 11.605802 3.2507934 11.46875 3.28125 C 11.331694 3.250793 11.25 3.1530777 11.25 3.03125 C 11.25 2.9246512 11.331696 2.8742067 11.46875 2.84375 z M 0.78125 2.96875 C 1.0401331 3.7758564 1.0401331 4.4013326 0.78125 4.8125 C 0.50713795 4.4013326 0.50713795 3.7758564 0.78125 2.96875 z M 2.1875 2.96875 C 2.4463837 3.7758564 2.4463837 4.4013326 2.1875 4.8125 C 1.9133887 4.4013326 1.9133887 3.7758564 2.1875 2.96875 z M 3.59375 2.96875 C 3.8526339 3.7758564 3.8526339 4.4013326 3.59375 4.8125 C 3.3196386 4.4013326 3.3196386 3.7758564 3.59375 2.96875 z M 5.03125 2.96875 C 5.305362 3.7758564 5.305362 4.4013326 5.03125 4.8125 C 4.7723667 4.4013326 4.7723667 3.7758564 5.03125 2.96875 z M 7 3.4375 L 7.1875 3.78125 L 6.8125 3.78125 L 7 3.4375 z M 8.46875 3.4375 L 8.6875 3.78125 L 8.28125 3.78125 L 8.46875 3.4375 z M 9.96875 3.4375 L 10.15625 3.78125 L 9.78125 3.78125 L 9.96875 3.4375 z M 11.46875 3.4375 L 11.65625 3.78125 L 11.25 3.78125 L 11.46875 3.4375 z M 6.625 4.4375 L 11.8125 4.4375 L 9.25 6.4375 L 6.625 4.4375 z M 6.40625 4.625 L 9 6.625 L 6.40625 8.625 L 6.40625 4.625 z M 12.0625 4.625 L 12.0625 8.59375 L 9.46875 6.625 L 12.0625 4.625 z M 0.78125 5.0625 C 0.90307706 5.092957 0.96875 5.143401 0.96875 5.25 C 0.96875 5.3718279 0.90307709 5.4535218 0.78125 5.46875 C 0.64419397 5.453522 0.5625 5.3718281 0.5625 5.25 C 0.5625 5.1434013 0.64419396 5.0929573 0.78125 5.0625 z M 2.1875 5.0625 C 2.324556 5.092957 2.40625 5.143401 2.40625 5.25 C 2.40625 5.3718279 2.3245561 5.4535218 2.1875 5.46875 C 2.0504447 5.453522 2 5.3718281 2 5.25 C 2 5.1434013 2.0504451 5.0929573 2.1875 5.0625 z M 3.59375 5.0625 C 3.730806 5.092957 3.8125 5.143401 3.8125 5.25 C 3.8125 5.3718279 3.730806 5.4535218 3.59375 5.46875 C 3.4566947 5.453522 3.40625 5.3718281 3.40625 5.25 C 3.40625 5.1434013 3.4566951 5.0929573 3.59375 5.0625 z M 5.03125 5.0625 C 5.168306 5.092957 5.21875 5.143401 5.21875 5.25 C 5.21875 5.3718279 5.168306 5.4535218 5.03125 5.46875 C 4.9094221 5.453522 4.84375 5.3718281 4.84375 5.25 C 4.84375 5.1434013 4.9094222 5.0929573 5.03125 5.0625 z M 0.78125 5.65625 L 0.96875 6 L 0.5625 6 L 0.78125 5.65625 z M 2.1875 5.65625 L 2.375 6 L 2 6 L 2.1875 5.65625 z M 3.59375 5.65625 L 3.78125 6 L 3.4375 6 L 3.59375 5.65625 z M 5.03125 5.65625 L 5.21875 6 L 4.875 6 L 5.03125 5.65625 z M 0.5625 6.5 L 5.8125 6.5 L 5.8125 6.84375 L 0.5625 6.84375 L 0.5625 6.5 z M 9.21875 6.8125 L 11.78125 8.78125 L 6.6875 8.78125 L 9.21875 6.8125 z M 0.5625 7.25 L 5.625 7.25 L 0.5625 11.15625 L 0.5625 7.25 z M 5.8125 7.4375 L 5.8125 11.3125 L 0.78125 11.3125 L 5.8125 7.4375 z M 6.40625 9.21875 L 12.0625 9.21875 L 12.0625 9.5 L 6.40625 9.5 L 6.40625 9.21875 z M 6.40625 9.71875 L 12.0625 9.71875 L 12.0625 9.90625 L 6.40625 9.90625 L 6.40625 9.71875 z M 6.5625 10.34375 L 11.8125 10.34375 L 9.1875 13.65625 L 6.5625 10.34375 z M 12.0625 10.53125 L 12.0625 17.28125 L 9.375 13.90625 L 12.0625 10.53125 z M 6.40625 10.65625 L 9 13.90625 L 6.40625 17.15625 L 6.40625 10.65625 z M 0.5625 11.75 L 5.8125 11.75 L 5.8125 12 L 0.5625 12 L 0.5625 11.75 z M 0.5625 12.1875 L 5.8125 12.1875 L 5.8125 12.4375 L 0.5625 12.4375 L 0.5625 12.1875 z M 0.75 12.875 L 5.8125 12.875 L 5.8125 17.21875 L 0.75 12.875 z M 0.5625 13.0625 L 5.65625 17.4375 L 0.5625 17.4375 L 0.5625 13.0625 z M 9.1875 14.15625 L 11.78125 17.4375 L 6.59375 17.4375 L 9.1875 14.15625 z "
     id="path4103" />
</svg>
