<?xml version="1.0" encoding="UTF-8" standalone="no"?>
<svg
   xmlns:dc="http://purl.org/dc/elements/1.1/"
   xmlns:cc="http://creativecommons.org/ns#"
   xmlns:rdf="http://www.w3.org/1999/02/22-rdf-syntax-ns#"
   xmlns:svg="http://www.w3.org/2000/svg"
   xmlns="http://www.w3.org/2000/svg"
   xmlns:sodipodi="http://sodipodi.sourceforge.net/DTD/sodipodi-0.dtd"
   xmlns:inkscape="http://www.inkscape.org/namespaces/inkscape"
   width="29.311016"
   height="17.983217"
   id="svg2533"
   sodipodi:version="0.32"
   inkscape:version="0.46"
   sodipodi:docname="P121.svg"
   inkscape:output_extension="org.inkscape.output.svg.inkscape">
  <metadata
     id="metadata2540">
    <rdf:RDF>
      <cc:Work
         rdf:about="">
        <dc:format>image/svg+xml</dc:format>
        <dc:type
           rdf:resource="http://purl.org/dc/dcmitype/StillImage" />
      </cc:Work>
    </rdf:RDF>
  </metadata>
  <defs
     id="defs2538">
    <inkscape:perspective
       sodipodi:type="inkscape:persp3d"
       inkscape:vp_x="0 : 8.9916086 : 1"
       inkscape:vp_y="0 : 1000 : 0"
       inkscape:vp_z="29.311016 : 8.9916086 : 1"
       inkscape:persp3d-origin="14.655508 : 5.9944057 : 1"
       id="perspective2542" />
  </defs>
  <sodipodi:namedview
     inkscape:window-height="712"
     inkscape:window-width="1024"
     inkscape:pageshadow="2"
     inkscape:pageopacity="0.0"
     guidetolerance="10.0"
     gridtolerance="10.0"
     objecttolerance="10.0"
     borderopacity="1.0"
     bordercolor="#666666"
     pagecolor="#ffffff"
     id="base"
     showgrid="false"
     inkscape:zoom="28.189751"
     inkscape:cx="14.654968"
     inkscape:cy="10.411586"
     inkscape:window-x="-4"
     inkscape:window-y="-4"
     inkscape:current-layer="svg2533" />
  <path
     style="fill:#000000; stroke:none"
     d="M 25.248363,17.505259 L 25.248363,16.861851 L 0.486397,16.861851 L 0.486397,17.505259 L 25.248363,17.505259 z M 12.288314,14.747801 C 13.219722,14.747801 14.132747,14.668141 15.027389,14.508821 L 13.685426,8.148286 L 10.872819,8.148286 L 9.530857,14.490438 C 10.119114,14.662013 11.038267,14.747801 12.288314,14.747801 z M 14.733259,6.622493 C 14.733259,6.1322783 14.825175,5.697213 15.009006,5.317297 L 9.54924,5.317297 C 9.745326,5.697213 9.843369,6.1322783 9.843369,6.622493 L 14.733259,6.622493 z M 14.200151,7.578412 L 15.597262,14.398522 L 16.111988,14.306607 L 14.696493,7.284283 L 9.861752,7.284283 L 8.446257,14.32499 L 8.960982,14.435288 L 10.376477,7.578412 L 14.200151,7.578412 z M 23.740953,15.905932 C 23.557123,14.778439 22.938227,14.196309 21.884266,14.159543 L 21.792351,14.251458 C 21.95167,15.305419 22.601204,15.856911 23.740953,15.905932 z M 24.917469,8.642713 L 26.774157,8.62433 C 26.761902,10.425869 25.769217,11.907619 23.796103,13.249582 C 21.822989,14.591545 19.322894,15.636315 16.295818,16.383892 L 25.744705,16.383892 L 25.744705,17.983217 L 0.008438,17.983217 L 0.008438,16.383892 L 8.317575,16.383892 C 5.7439483,15.795635 3.1396833,14.53946 0.50478,12.615367 C 2.8087887,11.512384 3.9546653,10.403274 3.94241,9.288035 L 2.324702,8.240202 C 1.8712533,8.0931373 1.2707403,8.3566277 0.523163,9.030673 C -0.12637167,8.405649 -0.17232933,7.5661563 0.38529,6.512195 C 0.94290933,5.4582337 1.662912,5.0292957 2.545298,5.225381 C 2.4104893,6.2180657 2.5207877,6.8614727 2.876193,7.155602 L 5.87263,8.571096 C 5.7010547,10.482933 5.039265,11.831024 3.887261,12.615367 C 5.2108403,13.350689 6.5344197,13.87767 7.857999,14.196309 L 9.236728,7.284283 C 8.8568113,7.284283 8.666853,7.1739847 8.666853,6.953388 C 8.666853,6.7327913 8.826173,6.622493 9.144813,6.622493 C 9.144813,6.1322783 9.04677,5.697213 8.850684,5.317297 C 8.5197893,5.317297 8.3574057,5.1947433 8.363533,4.949636 C 8.369661,4.7045287 8.5320447,4.581975 8.850684,4.581975 L 15.725944,4.581975 C 16.032328,4.581975 16.188584,4.7045287 16.194712,4.949636 C 16.200839,5.1947433 16.044583,5.317297 15.725944,5.317297 C 15.529858,5.697213 15.431815,6.1322783 15.431815,6.622493 C 15.7382,6.622493 15.891392,6.7327913 15.891392,6.953388 C 15.891392,7.1739847 15.707561,7.284283 15.3399,7.284283 L 16.700245,14.177926 C 17.092418,14.092139 17.386547,14.024734 17.582632,13.975713 L 17.582632,11.016042 L 16.387733,9.968208 C 16.240669,9.5270147 16.399989,9.3431843 16.865692,9.416717 L 21.718819,13.626434 C 23.189462,13.601923 24.06572,14.527204 24.347593,16.402275 C 22.460266,16.377764 21.430816,15.630187 21.259241,14.159543 L 18.281187,11.6043 L 18.281187,13.71835 C 19.22485,13.534519 20.563749,12.946262 22.297884,11.953577 C 24.032019,10.960892 24.905214,9.917271 24.917469,8.642713 z M 26.185898,8.651096 L 25.542492,8.681096 C 25.542492,10.262039 24.283253,11.634938 21.764776,13.019794 C 19.246298,14.40465 16.087477,15.170611 12.288314,15.317676 C 8.9548547,15.317676 5.7439487,14.416906 2.655596,12.615367 C 4.2365387,12.063876 5.118925,10.826084 5.302755,8.901991 L 2.710746,7.541646 C 2.0734667,7.1984953 1.8222317,6.6286207 1.957041,5.832022 C 1.6138903,5.832022 1.27074,6.1537253 0.92759,6.797132 C 0.58444,7.4405387 0.51090767,7.9093063 0.706993,8.203435 C 1.2829957,7.6396883 1.8896363,7.52939 2.526915,7.87254 L 4.659349,9.049056 C 4.536795,10.446167 3.5563657,11.634938 1.718061,12.615367 C 5.149563,14.968398 8.6729807,16.144913 12.288314,16.144913 C 15.817859,15.948826 19.01651,15.10627 21.884266,13.617243 C 24.752021,12.128216 26.185898,10.526167 26.185898,8.651096 z M 25.818237,8.641096 C 27.546244,8.6288407 28.514418,8.068626 28.722759,7.100452 L 22.895332,7.100452 C 23.128185,8.068626 24.102487,8.6288407 25.818237,8.641096 z M 25.781471,3.515758 L 26.388113,3.662822 L 27.049902,0.868599 C 27.086668,0.66025767 27.013136,0.537704 26.829306,0.500938 C 26.63322,0.45191667 26.504539,0.525449 26.443262,0.721535 L 25.781471,3.515758 z M 26.0756,0.648002 C 26.124621,0.43966133 26.051089,0.31710767 25.855003,0.280341 C 25.658918,0.23131967 25.530237,0.31097967 25.46896,0.519321 L 24.86232,3.276778 L 25.46896,3.40546 L 26.0756,0.648002 z M 24.568488,6.659259 C 24.360147,6.585727 24.292444,6.3406197 24.14538,5.923937 C 23.998316,5.507255 23.863507,5.298914 23.740953,5.298914 C 23.64291,5.2744027 23.532612,5.2989133 23.410059,5.372446 C 23.410059,4.8944867 23.550996,4.6126133 23.832869,4.526826 C 23.820614,4.4532933 23.838997,4.401208 23.888018,4.37057 C 23.937039,4.3399313 23.979933,4.3491227 24.016699,4.398144 C 23.992188,4.3491227 24.06572,4.2388243 24.237295,4.067249 C 24.384359,3.8956743 24.592701,3.809887 24.86232,3.809887 C 24.923597,3.6015457 24.813298,3.4544813 24.531424,3.368694 L 25.22998,0.427406 C 25.315768,0.072 25.536364,-0.062809 25.891769,0.022979 C 26.136876,0.084255667 26.277814,0.212937 26.314581,0.409023 C 26.437134,0.249703 26.620965,0.20068133 26.866072,0.261958 C 27.258243,0.33549067 27.411435,0.54995967 27.325647,0.905365 L 26.627092,3.82827 C 26.394239,3.8160147 26.228792,3.865036 26.130749,3.975334 C 26.584198,4.2572073 27.080541,5.151849 27.619776,6.659259 L 29.311016,6.659259 C 29.102675,8.2402017 27.938416,9.030673 25.818237,9.030673 C 23.710314,9.030673 22.539927,8.2402017 22.307076,6.659259 L 24.568488,6.659259 z M 27.141817,6.512195 C 26.553559,4.9557637 26.057217,4.177548 25.65279,4.177548 C 25.983685,4.9741467 25.818237,5.5501487 25.156448,5.905554 C 25.180959,6.0158527 25.217725,6.2119387 25.266747,6.493812 C 25.940791,6.5795993 26.565814,6.585727 27.141817,6.512195 z M 24.053465,4.526826 C 24.028954,4.5881027 23.979933,4.6126133 23.906401,4.600358 C 23.906401,4.7229113 23.973805,4.8515927 24.108614,4.986402 C 23.96155,4.9251253 23.869635,4.9435083 23.832869,5.041551 C 23.759336,4.9557637 23.716442,4.9618913 23.704187,5.059934 L 23.796103,5.059934 C 24.04121,5.0476787 24.24955,5.2989137 24.421125,5.813639 C 24.531424,6.1077677 24.632531,6.294662 24.724447,6.374322 C 24.816362,6.453982 24.978746,6.493812 25.211597,6.493812 C 25.101299,6.224194 24.892958,5.9607037 24.586573,5.703341 C 25.248363,5.5562763 25.54862,5.2652113 25.487343,4.830146 C 25.426066,4.3950807 25.251428,4.177548 24.963427,4.177548 C 24.675425,4.177548 24.457892,4.235761 24.310827,4.352187 C 24.163763,4.468613 24.077976,4.526826 24.053465,4.526826 z M 24.200529,4.876103 C 24.114742,4.8638477 24.108614,4.8148263 24.182146,4.729039 C 24.182146,4.5206977 24.356785,4.379761 24.706062,4.306229 C 25.055341,4.232697 25.272874,4.3920167 25.358662,4.784188 C 25.444449,5.17636 25.217725,5.4337227 24.678488,5.556276 C 25.144193,5.2621473 25.291257,4.9864017 25.119682,4.729039 C 24.948107,4.4716763 24.758149,4.5635917 24.549807,5.004785 C 24.513041,5.115083 24.531424,5.2744027 24.604956,5.482744 L 24.494658,5.51951 C 24.457891,5.3356793 24.396614,5.2008703 24.310827,5.115083 C 24.372104,5.0538063 24.372104,4.9925297 24.310827,4.931253 C 24.274061,4.931253 24.237295,4.9128697 24.200529,4.876103 z M 24.421125,4.546826 C 24.310827,4.546826 24.252614,4.5911667 24.246487,4.719848 C 24.240359,4.8485293 24.298572,4.90287 24.421125,4.90287 C 24.543679,4.90287 24.604956,4.8232941 24.604956,4.710656 C 24.604956,4.6147081 24.521508,4.546826 24.421125,4.546826 z M 24.531424,4.729039 C 24.531424,4.802571 24.494658,4.839337 24.421125,4.839337 C 24.335338,4.839337 24.302444,4.802571 24.302444,4.729039 C 24.302444,4.6309963 24.335338,4.611975 24.421125,4.611975 C 24.494658,4.611975 24.531424,4.6309963 24.531424,4.729039 z"
     id="path2535"
     sodipodi:nodetypes="cccccccccccccccccccccccccccccccsccccccccccsccccccsccsccsccscccccccccccscccscccccscccccsccccccccscccscccccssccssscccscscccccsccccccccsccccssccssscccsscsscccsccsssccsssc" />
</svg>
