<?xml version="1.0" encoding="UTF-8" standalone="no"?>
<svg
   xmlns:dc="http://purl.org/dc/elements/1.1/"
   xmlns:cc="http://web.resource.org/cc/"
   xmlns:rdf="http://www.w3.org/1999/02/22-rdf-syntax-ns#"
   xmlns:svg="http://www.w3.org/2000/svg"
   xmlns="http://www.w3.org/2000/svg"
   xmlns:sodipodi="http://sodipodi.sourceforge.net/DTD/sodipodi-0.dtd"
   xmlns:inkscape="http://www.inkscape.org/namespaces/inkscape"
   width="18.60462"
   height="9.6"
   id="svg1967"
   sodipodi:version="0.32"
   inkscape:version="0.44"
   sodipodi:docname="P13.svg"
   sodipodi:docbase="C:\Program Files\JSesh\fontsST">
  <metadata
     id="metadata1974">
    <rdf:RDF>
      <cc:Work
         rdf:about="">
        <dc:format>image/svg+xml</dc:format>
        <dc:type
           rdf:resource="http://purl.org/dc/dcmitype/StillImage" />
      </cc:Work>
    </rdf:RDF>
  </metadata>
  <defs
     id="defs1972" />
  <sodipodi:namedview
     inkscape:window-height="569"
     inkscape:window-width="939"
     inkscape:pageshadow="2"
     inkscape:pageopacity="0.0"
     guidetolerance="10.0"
     gridtolerance="10.0"
     objecttolerance="10.0"
     borderopacity="1.0"
     bordercolor="#666666"
     pagecolor="#ffffff"
     id="base"
     inkscape:zoom="55.537343"
     inkscape:cx="8.1615367"
     inkscape:cy="2.7806898"
     inkscape:window-x="77"
     inkscape:window-y="145"
     inkscape:current-layer="svg1967" />
  <path
     style="fill:#000000; stroke:none"
     d="M 12.697941,7.960655 L 14.749176,7.960655 L 14.749176,9.52058 L 4.373048,9.52058 L 4.373048,7.960655 L 5.915445,7.960655 C 5.074137,7.843807 4.2883323,7.6510073 3.558031,7.382256 C 2.827729,7.1135053 1.8082273,6.6169 0.499526,5.89244 C 0.032133333,5.670428 -0.10808433,5.3958347 0.078873,5.06866 C 0.23077567,4.8583333 0.49952667,4.811594 0.885126,4.928442 C 2.8248073,5.69964 4.69438,6.278039 6.493844,6.663639 C 9.0394797,6.9752695 11.642245,6.8522579 13.890341,5.559422 L 17.473836,3.8176125 C 17.707533,3.8059272 18.087347,3.6718817 18.256776,3.9756884 C 18.426206,4.2794937 18.209539,4.6129523 18.11606,4.823279 C 16.314791,6.1451573 14.752181,7.1493541 12.697941,7.960655 z M 17.601148,4.1775562 L 13.697541,6.27804 C 12.832864,6.7454333 11.860102,7.0463177 10.779256,7.180693 C 9.6984087,7.3150683 8.258253,7.3063047 6.458789,7.154402 C 5.091665,6.920706 3.1811957,6.2780407 0.727381,5.226406 L 0.569636,5.57695 C 2.6729053,6.6753247 4.472369,7.353045 5.968027,7.610111 C 6.447105,7.7035897 7.3234677,7.7853833 8.597115,7.855492 L 10.332311,7.855492 C 11.08014,7.8788613 12.231096,7.5458437 13.785178,6.856439 C 14.322679,6.576003 15.840483,5.6898583 17.838589,4.498005 C 17.908699,4.2409397 17.846528,4.2359802 17.601148,4.1775562 z M 14.205832,9.0824 L 14.205832,8.451419 L 4.898864,8.451419 L 4.898864,9.0824 L 14.205832,9.0824 z "
     id="path1969"
     sodipodi:nodetypes="ccccccsccccccsccccscccccccccccccc" />
</svg>
