<?xml version="1.0" encoding="UTF-8" standalone="no"?>
<svg
   xmlns:dc="http://purl.org/dc/elements/1.1/"
   xmlns:cc="http://web.resource.org/cc/"
   xmlns:rdf="http://www.w3.org/1999/02/22-rdf-syntax-ns#"
   xmlns:svg="http://www.w3.org/2000/svg"
   xmlns="http://www.w3.org/2000/svg"
   xmlns:sodipodi="http://inkscape.sourceforge.net/DTD/sodipodi-0.dtd"
   xmlns:inkscape="http://www.inkscape.org/namespaces/inkscape"
   width="18.60462"
   height="9.6"
   id="svg1329"
   sodipodi:version="0.32"
   inkscape:version="0.43"
   sodipodi:docname="P1C.svg"
   sodipodi:docbase="C:\Program Files\JSesh\fonts">
  <metadata
     id="metadata1336">
    <rdf:RDF>
      <cc:Work
         rdf:about="">
        <dc:format>image/svg+xml</dc:format>
        <dc:type
           rdf:resource="http://purl.org/dc/dcmitype/StillImage" />
      </cc:Work>
    </rdf:RDF>
  </metadata>
  <defs
     id="defs1334" />
  <sodipodi:namedview
     inkscape:window-height="708"
     inkscape:window-width="1024"
     inkscape:pageshadow="2"
     inkscape:pageopacity="0.0"
     borderopacity="1.0"
     bordercolor="#666666"
     pagecolor="#ffffff"
     id="base"
     inkscape:zoom="38.700065"
     inkscape:cx="9.30231"
     inkscape:cy="4.8000002"
     inkscape:window-x="-4"
     inkscape:window-y="-4"
     inkscape:current-layer="svg1329" />
  <path
     style="fill:#000000; stroke:none"
     d="M 14.34605,7.031712 C 13.516427,7.5224753 12.85039,7.832123 12.347941,7.960655 L 14.749176,7.960655 L 14.749176,9.52058 L 4.373048,9.52058 L 4.373048,7.960655 L 5.915445,7.960655 C 5.074137,7.843807 4.2883323,7.6510073 3.558031,7.382256 C 2.827729,7.1135053 1.8082273,6.6169 0.499526,5.89244 C 0.032133333,5.670428 -0.10808433,5.3958347 0.078873,5.06866 C 0.23077567,4.8583333 0.49952667,4.811594 0.885126,4.928442 C 2.8248073,5.69964 4.69438,6.278039 6.493844,6.663639 C 6.4003653,5.869071 6.6165347,5.331569 7.142352,5.051133 C 8.1238787,4.712273 8.9242893,4.1981403 9.543584,3.508735 C 10.046032,3.029657 10.554322,2.8660693 11.068453,3.017972 C 11.395628,3.15819 11.524162,3.5554743 11.454055,4.209825 L 11.454055,6.505894 C 13.253236,6.236478 16.262362,4.2624067 17.448372,3.613899 C 17.682069,3.6022137 17.883633,3.7482743 18.053062,4.052081 C 18.222492,4.3558863 18.260467,4.6129523 18.166988,4.823279 C 16.893342,5.5594233 15.671375,6.2697279 14.34605,7.031712 z M 10.682856,6.716221 L 10.682856,4.192298 C 10.694541,3.7365893 10.507583,3.648953 10.121984,3.929389 C 9.3858393,4.7005877 8.5562163,5.2497747 7.633115,5.57695 C 7.294255,5.7639073 7.142352,6.1436643 7.177406,6.716221 C 8.415998,6.856439 9.5844813,6.856439 10.682856,6.716221 z M 17.325684,4.174771 L 13.697541,6.27804 C 12.832864,6.7454333 11.860102,7.0463177 10.779256,7.180693 C 9.6984087,7.3150683 8.258253,7.3063047 6.458789,7.154402 C 5.091665,6.920706 3.1811957,6.2780407 0.727381,5.226406 L 0.569636,5.57695 C 2.6729053,6.6753247 4.472369,7.353045 5.968027,7.610111 C 6.447105,7.7035897 7.3234677,7.7853833 8.597115,7.855492 L 10.332311,7.855492 C 11.08014,7.8788613 12.231096,7.5458437 13.785178,6.856439 C 14.322679,6.576003 15.590483,5.8398583 17.588589,4.648005 C 17.658699,4.3909397 17.571064,4.233195 17.325684,4.174771 z M 14.205832,9.0824 L 14.205832,8.451419 L 4.898864,8.451419 L 4.898864,9.0824 L 14.205832,9.0824 z "
     id="path1331"
     sodipodi:nodetypes="cccccccsccccccccccsccccccccccscccccccccccccc" />
</svg>
