<?xml version="1.0" encoding="UTF-8" standalone="no"?>
<svg
   xmlns:dc="http://purl.org/dc/elements/1.1/"
   xmlns:cc="http://creativecommons.org/ns#"
   xmlns:rdf="http://www.w3.org/1999/02/22-rdf-syntax-ns#"
   xmlns:svg="http://www.w3.org/2000/svg"
   xmlns="http://www.w3.org/2000/svg"
   xmlns:sodipodi="http://sodipodi.sourceforge.net/DTD/sodipodi-0.dtd"
   xmlns:inkscape="http://www.inkscape.org/namespaces/inkscape"
   width="26.200939"
   height="11.28"
   id="svg2498"
   sodipodi:version="0.32"
   inkscape:version="0.46"
   sodipodi:docname="P24.svg"
   inkscape:output_extension="org.inkscape.output.svg.inkscape">
  <metadata
     id="metadata2505">
    <rdf:RDF>
      <cc:Work
         rdf:about="">
        <dc:format>image/svg+xml</dc:format>
        <dc:type
           rdf:resource="http://purl.org/dc/dcmitype/StillImage" />
      </cc:Work>
    </rdf:RDF>
  </metadata>
  <defs
     id="defs2503">
    <inkscape:perspective
       sodipodi:type="inkscape:persp3d"
       inkscape:vp_x="0 : 5.6399999 : 1"
       inkscape:vp_y="0 : 1000 : 0"
       inkscape:vp_z="26.200939 : 5.6399999 : 1"
       inkscape:persp3d-origin="13.10047 : 3.7599999 : 1"
       id="perspective2507" />
  </defs>
  <sodipodi:namedview
     inkscape:window-height="480"
     inkscape:window-width="640"
     inkscape:pageshadow="2"
     inkscape:pageopacity="0.0"
     guidetolerance="10.0"
     gridtolerance="10.0"
     objecttolerance="10.0"
     borderopacity="1.0"
     bordercolor="#666666"
     pagecolor="#ffffff"
     id="base"
     showgrid="false" />
  <path
     style="fill:#000000; stroke:none"
     d="M 21.91744,2.651981 C 23.225266,2.5308857 23.945781,1.767987 24.078985,0.363285 C 22.686393,0.508599 21.92955,1.2291143 21.808455,2.524831 L 21.91744,2.651981 z M 17.085749,7.865121 L 17.085749,10.934879 C 17.085749,11.16496 16.955572,11.28 16.695217,11.28 C 16.434863,11.28 16.304686,11.16496 16.304686,10.934879 L 16.304686,8.664348 L 14.52459,10.444445 C 14.367166,10.601868 14.203688,10.595813 14.034155,10.42628 C 13.864622,10.256747 13.852512,10.099324 13.997826,9.95401 L 16.304686,7.64715 L 16.304686,3.433043 C 14.110144,3.0231404 11.904497,3.1720161 9.711062,3.469372 L 9.220628,3.542029 C 6.5686473,4.026409 3.783462,4.9588407 0.865072,6.339324 C 0.538116,6.520966 0.28381667,6.4755553 0.102174,6.203092 C -0.079468667,5.930628 -0.018921333,5.703575 0.283816,5.521933 C 3.1174393,3.8508217 5.533285,2.7942677 7.531353,2.352271 C 9.5294203,1.9102737 11.388229,1.6832203 13.107778,1.671111 L 13.107778,1.671111 C 14.815217,1.6832203 16.667971,1.9102737 18.666039,2.352271 C 20.664106,2.7942677 23.079951,3.8568763 25.913574,5.540097 C 26.216313,5.7096297 26.279888,5.930628 26.1043,6.203092 C 25.928712,6.4755553 25.67744,6.5270207 25.350483,6.357488 C 22.419984,4.9648953 19.665073,4.0324637 17.085749,3.560193 L 17.085749,6.866087 L 21.53599,2.415845 C 21.608647,0.962705 22.577407,0.15742333 24.44227,0 C 24.284847,1.8648633 23.479565,2.839678 22.026424,2.924444 L 17.085749,7.865121 z"
     id="path2500"
     sodipodi:nodetypes="ccccccscccsccccccsssccscsccccccc" />
</svg>
