<?xml version="1.0" encoding="UTF-8" standalone="no"?>
<svg
   xmlns:dc="http://purl.org/dc/elements/1.1/"
   xmlns:cc="http://creativecommons.org/ns#"
   xmlns:rdf="http://www.w3.org/1999/02/22-rdf-syntax-ns#"
   xmlns:svg="http://www.w3.org/2000/svg"
   xmlns="http://www.w3.org/2000/svg"
   xmlns:sodipodi="http://sodipodi.sourceforge.net/DTD/sodipodi-0.dtd"
   xmlns:inkscape="http://www.inkscape.org/namespaces/inkscape"
   width="48.997833251953125"
   height="18.0"
   id="svg3910"
   version="1.1"
   inkscape:version="0.48.0 r9654"
   sodipodi:docname="P2G.svg">
  <metadata
     id="metadata3920">
    <rdf:RDF>
      <cc:Work
         rdf:about="">
        <dc:format>image/svg+xml</dc:format>
        <dc:type
           rdf:resource="http://purl.org/dc/dcmitype/StillImage" />
      </cc:Work>
    </rdf:RDF>
  </metadata>
  <defs
     id="defs3918" />
  <sodipodi:namedview
     pagecolor="#ffffff"
     bordercolor="#666666"
     borderopacity="1"
     objecttolerance="10"
     gridtolerance="10"
     guidetolerance="10"
     inkscape:pageopacity="0"
     inkscape:pageshadow="2"
     inkscape:window-width="1920"
     inkscape:window-height="1152"
     id="namedview3916"
     showgrid="false"
     inkscape:zoom="29.623173"
     inkscape:cx="24.498917"
     inkscape:cy="9"
     inkscape:window-x="1280"
     inkscape:window-y="0"
     inkscape:window-maximized="0"
     inkscape:current-layer="svg3910" />
  <path
     style="fill:black cmyk(0, 0, 0, 100);stroke:none"
     d="M 11.96875 0 C 11.80599 0 11.71875 0.06675183 11.71875 0.1875 L 11.21875 0.84375 C 10.196988 0.84375 9.440534 0.8669502 8.84375 0.875 C 8.1746287 0.883054 7.5861508 0.8901511 7.125 0.90625 C 5.8862191 0.97064934 5.2763304 1.0577528 5.3125 1.21875 C 5.330937 1.3226792 5.4601553 1.375 5.6875 1.375 C 5.7947302 1.375 5.9060082 1.364386 6.0625 1.34375 C 6.2614289 1.3196 6.4490745 1.320551 6.59375 1.3125 C 6.3586533 1.7391435 6.1582372 2.3744633 6 3.1875 C 5.8417619 4.0005376 5.8417619 4.7847387 6 5.59375 C 6.1582372 6.4027622 6.3586525 7.0421073 6.59375 7.46875 L 6.0625 7.375 C 5.9286213 7.357342 5.84773 7.34375 5.75 7.34375 C 5.4912939 7.34375 5.3321883 7.4202409 5.3125 7.53125 C 5.285373 7.6761479 5.6681185 7.787401 6.5 7.84375 C 6.572339 7.85985 6.6464145 7.827654 6.71875 7.84375 C 8.2135106 7.88142 9.7226644 8 11.21875 8 C 11.324562 8 11.42541 7.969902 11.53125 7.96875 L 11.53125 14.65625 C 10.544556 14.586018 9.4786369 14.421249 8.34375 14.15625 C 6.7996291 13.795694 5.3482697 13.236789 3.96875 12.5 C 5.1758294 11.700506 5.8432368 10.303294 6 8.34375 L 2.9375 6.90625 C 2.5769439 6.6083988 2.483913 5.9564628 2.625 4.9375 C 2.4808539 4.9051914 2.3231748 4.875 2.1875 4.875 C 1.46738 4.875 0.88772445 5.3398157 0.40625 6.25 C -0.16593715 7.3316686 -0.12715727 8.201019 0.53125 8.84375 C 1.1689523 8.271119 1.6925803 7.96875 2.125 7.96875 C 2.2134493 7.96875 2.2951394 7.9760418 2.375 8 L 4.03125 9.09375 C 4.0469269 10.238124 2.8671306 11.371303 0.5 12.5 C 3.1963337 14.459545 5.8819454 15.732372 8.53125 16.34375 L 0 16.34375 L 0 18 L 25.125 18 L 25.125 16.34375 L 23.71875 16.34375 C 23.640368 16.17131 23.446263 15.884275 23.15625 15.4375 C 22.909523 15.057406 22.407877 14.84375 21.65625 14.84375 C 21.524386 14.84375 21.397405 14.863301 21.25 14.875 L 21.09375 14.71875 C 22.065685 14.264135 23.229805 13.518963 24.625 12.5 C 22.257869 11.371303 21.078073 10.238124 21.09375 9.09375 L 22.75 8 C 22.829861 7.9760418 22.911551 7.96875 23 7.96875 C 23.43242 7.96875 23.956047 8.271119 24.59375 8.84375 C 25.267834 8.201019 25.330026 7.3316686 24.75 6.25 C 24.26193 5.3398157 23.647566 4.875 22.9375 4.875 C 22.803719 4.875 22.672911 4.9051914 22.53125 4.9375 C 22.672336 5.9564628 22.563732 6.6083988 22.1875 6.90625 L 19.125 8.34375 C 19.29744 10.303294 19.996097 11.700506 21.1875 12.5 C 20.701534 12.750821 20.17357 12.96803 19.65625 13.1875 L 17.5625 10.96875 L 17.5625 8.75 C 17.5625 8.6245893 17.438218 8.5625 17.21875 8.5625 C 16.99928 8.5625 16.90625 8.6245893 16.90625 8.75 L 16.90625 10.21875 L 15.34375 8.5625 C 15.312398 8.4841183 15.250206 8.4375 15.1875 8.4375 C 15.124794 8.4375 15.062808 8.4841183 14.96875 8.5625 C 14.780634 8.7349402 14.749589 8.9058393 14.875 9.03125 L 16.90625 11.1875 L 16.90625 14.0625 C 16.749486 14.093853 16.423467 14.171516 15.9375 14.28125 C 14.652039 14.547749 13.518758 14.6875 12.5625 14.6875 C 12.490893 14.6875 12.416229 14.688647 12.34375 14.6875 L 12.34375 7.96875 C 14.025596 7.936552 15.693151 7.938449 17.375 7.90625 C 18.541443 7.841851 19.067418 7.6922478 19.03125 7.53125 C 19.01156 7.4202387 18.914113 7.34375 18.65625 7.34375 C 18.55884 7.34375 18.412642 7.357344 18.28125 7.375 C 18.18316 7.387474 18.109203 7.40625 18.03125 7.40625 C 17.907999 7.40625 17.801833 7.393062 17.71875 7.34375 C 17.320891 6.9493091 17.050926 6.347362 16.90625 5.5625 C 16.761577 4.7776383 16.734855 3.9995871 16.875 3.21875 C 17.015152 2.4379125 17.311849 1.8712422 17.71875 1.46875 C 17.825395 1.405454 17.980509 1.34375 18.15625 1.34375 L 18.21875 1.34375 C 18.23426 1.34375 18.26323 1.34145 18.28125 1.34375 C 18.434841 1.364389 18.580348 1.375 18.6875 1.375 C 18.914682 1.375 19.012816 1.3226789 19.03125 1.21875 C 19.06742 1.0577527 18.520031 0.97064941 17.28125 0.90625 C 16.820098 0.8901504 16.227102 0.8830506 15.5625 0.875 C 14.897898 0.866946 13.918033 0.84375 12.625 0.84375 L 12.1875 0.1875 C 12.1875 0.06675167 12.131509 0 11.96875 0 z M 11.71875 0.46875 L 11.71875 0.84375 L 11.4375 0.84375 L 11.71875 0.46875 z M 12.1875 0.46875 L 12.40625 0.84375 L 12.1875 0.84375 L 12.1875 0.46875 z M 11.53125 1.25 L 11.53125 7.53125 L 7.21875 7.4375 L 7.03125 7.09375 C 6.8323211 6.7073565 6.6356331 6.1984404 6.5 5.5625 C 6.3281983 4.7736132 6.3327195 3.9955612 6.5 3.21875 C 6.6672815 2.4419371 6.9113152 1.7954926 7.21875 1.3125 L 11.53125 1.25 z M 12.34375 1.25 C 12.469735 1.24825 12.562948 1.25 12.6875 1.25 L 13.4375 1.25 C 14.66929 1.25 15.924768 1.281567 17.15625 1.3125 C 16.77648 1.7391436 16.528321 2.3472379 16.40625 3.15625 C 16.284179 3.9652617 16.31089 4.7807134 16.4375 5.59375 C 16.564091 6.4067865 16.785521 7.0421072 17.15625 7.46875 L 12.34375 7.53125 L 12.34375 1.25 z M 1.96875 5.5625 C 1.9770345 5.5625 1.9917114 5.5621396 2 5.5625 C 1.8589129 6.3619943 2.1072696 6.9519437 2.75 7.3125 L 5.40625 8.6875 C 5.2181333 10.662721 4.3334143 11.935651 2.71875 12.5 C 5.8696981 14.334134 9.1450548 15.25 12.5625 15.25 C 15.979946 15.25 19.255302 14.334134 22.40625 12.5 C 20.791585 11.935651 19.906866 10.662721 19.71875 8.6875 L 22.375 7.3125 C 23.01773 6.9519437 23.266088 6.3619943 23.125 5.5625 C 23.133288 5.5621396 23.147965 5.5625 23.15625 5.5625 C 23.508342 5.5625 23.842891 5.8803204 24.1875 6.53125 C 24.540219 7.1974954 24.610043 7.6708995 24.40625 7.96875 C 24.032675 7.6050053 23.673322 7.4375 23.28125 7.4375 C 23.048127 7.4375 22.802162 7.4964006 22.5625 7.625 L 20.375 8.84375 C 20.50041 10.270299 21.493837 11.481037 23.375 12.5 C 19.863497 14.898482 16.262121 16.09375 12.5625 16.09375 C 8.8628801 16.09375 5.2770775 14.898482 1.78125 12.5 C 3.646736 11.481037 4.6245891 10.270299 4.75 8.84375 L 2.59375 7.625 C 2.3482424 7.4964006 2.1096094 7.4375 1.875 7.4375 C 1.4804297 7.4375 1.1137446 7.6050053 0.75 7.96875 C 0.53053089 7.6708995 0.58478196 7.1974954 0.9375 6.53125 C 1.2821097 5.8803204 1.6166585 5.5625 1.96875 5.5625 z M 17.5625 11.90625 L 19 13.46875 C 18.52971 13.64119 18.064144 13.765266 17.5625 13.875 L 17.5625 11.90625 z M 20.46875 15 L 20.75 15.3125 C 20.70297 15.688733 20.718442 16.030223 20.8125 16.34375 L 16.65625 16.34375 C 17.926035 16.0459 19.198965 15.611378 20.46875 15 z M 21.875 15.46875 C 22.117142 15.46875 22.340387 15.544172 22.5 15.71875 C 22.750822 15.993086 22.890368 16.202663 22.96875 16.34375 L 21.40625 16.34375 C 21.296516 16.077252 21.31209 15.828998 21.4375 15.5625 C 21.602814 15.505495 21.736634 15.46875 21.875 15.46875 z M 0.5 16.84375 L 24.625 16.84375 L 24.625 17.46875 L 0.5 17.46875 L 0.5 16.84375 z "
     id="path3912" />
</svg>
