<?xml version="1.0" encoding="UTF-8" standalone="no"?>
<svg
   xmlns:dc="http://purl.org/dc/elements/1.1/"
   xmlns:cc="http://creativecommons.org/ns#"
   xmlns:rdf="http://www.w3.org/1999/02/22-rdf-syntax-ns#"
   xmlns:svg="http://www.w3.org/2000/svg"
   xmlns="http://www.w3.org/2000/svg"
   xmlns:sodipodi="http://sodipodi.sourceforge.net/DTD/sodipodi-0.dtd"
   xmlns:inkscape="http://www.inkscape.org/namespaces/inkscape"
   width="17.96875"
   height="17.96875"
   id="svg2383"
   sodipodi:version="0.32"
   inkscape:version="0.46"
   sodipodi:docname="P5O.svg"
   inkscape:output_extension="org.inkscape.output.svg.inkscape">
  <metadata
     id="metadata2390">
    <rdf:RDF>
      <cc:Work
         rdf:about="">
        <dc:format>image/svg+xml</dc:format>
        <dc:type
           rdf:resource="http://purl.org/dc/dcmitype/StillImage" />
      </cc:Work>
    </rdf:RDF>
  </metadata>
  <defs
     id="defs2388">
    <inkscape:perspective
       sodipodi:type="inkscape:persp3d"
       inkscape:vp_x="0 : 8.984375 : 1"
       inkscape:vp_y="0 : 1000 : 0"
       inkscape:vp_z="17.96875 : 8.984375 : 1"
       inkscape:persp3d-origin="8.984375 : 5.9895833 : 1"
       id="perspective2392" />
  </defs>
  <sodipodi:namedview
     inkscape:window-height="708"
     inkscape:window-width="1024"
     inkscape:pageshadow="2"
     inkscape:pageopacity="0.0"
     guidetolerance="10.0"
     gridtolerance="10.0"
     objecttolerance="10.0"
     borderopacity="1.0"
     bordercolor="#666666"
     pagecolor="#ffffff"
     id="base"
     showgrid="false"
     inkscape:zoom="25.711304"
     inkscape:cx="8.984375"
     inkscape:cy="8.984375"
     inkscape:window-x="-4"
     inkscape:window-y="-4"
     inkscape:current-layer="svg2383" />
  <path
     style="fill:#000000; stroke:none"
     d="M 8.625 0 L 8.625 1.875 C 6.415311 1.890662 3.776426 2.040867 0.71875 2.34375 C 0.232047 2.419797 0 2.535405 0 2.6875 C 0 2.839425 0.194127 2.90625 0.59375 2.90625 C 0.63420302 2.90625 0.674011 2.907648 0.71875 2.90625 L 1.03125 2.90625 L 1.03125 8.0625 C 0.970412 8.047292 0.977311 8.046459 0.71875 8.03125 C 0.674009 8.029852 0.634205 8.03125 0.59375 8.03125 C 0.19413003 8.0312498 0 8.098076 0 8.25 C 0 8.402094 0.232047 8.532911 0.71875 8.59375 C 1.220662 8.654588 1.600398 8.672291 1.84375 8.6875 L 8.40625 16.5625 L 8.40625 17.96875 L 9.53125 17.96875 L 9.53125 16.5625 L 16.125 8.6875 C 16.398771 8.657082 16.778507 8.639379 17.25 8.59375 C 17.736704 8.532912 17.96875 8.402095 17.96875 8.25 C 17.96875 8.098075 17.77462 8.03125 17.375 8.03125 C 17.334545 8.0312498 17.294743 8.029852 17.25 8.03125 C 17.037067 8.046459 17.076878 8.047291 17.03125 8.0625 L 17.03125 2.875 C 17.107298 2.890209 16.96102 2.89104 17.25 2.90625 C 17.294739 2.907648 17.334545 2.90625 17.375 2.90625 C 17.774624 2.90625 17.96875 2.839425 17.96875 2.6875 C 17.96875 2.535405 17.736704 2.419797 17.25 2.34375 C 14.181111 2.039756 11.558421 1.889662 9.34375 1.875 L 9.34375 0 L 8.625 0 z M 8.40625 2.5 L 4.71875 5.34375 L 1.4375 2.875 C 4.232459 2.659131 6.623635 2.521585 8.40625 2.5 z M 9.5625 2.5 C 11.316762 2.5186679 13.842337 2.644924 16.5 2.84375 L 13.21875 5.3125 L 9.5625 2.5 z M 9.3125 2.625 L 13.03125 5.46875 L 9.46875 8.15625 L 9.3125 2.625 z M 8.625 2.65625 L 8.4375 8.15625 L 4.90625 5.5 L 8.625 2.65625 z M 16.6875 3 L 16.6875 7.96875 L 13.4375 5.46875 L 16.6875 3 z M 1.34375 3.125 L 4.5 5.5 L 1.34375 7.9375 L 1.34375 3.125 z M 13.21875 5.625 L 16.4375 8.125 C 13.683854 8.324678 11.266325 8.421969 9.5 8.4375 L 13.21875 5.625 z M 4.71875 5.65625 L 8.375 8.4375 C 6.6246887 8.4188637 4.233955 8.292524 1.53125 8.09375 L 4.71875 5.65625 z M 2.40625 8.75 C 2.877743 8.795629 3.225399 8.828541 3.46875 8.84375 L 8.40625 14.75 L 8.40625 15.90625 L 2.40625 8.75 z M 15.59375 8.75 L 9.53125 15.9375 L 9.53125 14.75 L 14.5 8.84375 C 14.804189 8.813331 15.183094 8.780418 15.59375 8.75 z M 4.0625 8.875 C 4.381899 8.905418 4.712682 8.922291 5.0625 8.9375 L 8.40625 12.9375 L 8.40625 14.0625 L 4.0625 8.875 z M 13.90625 8.875 L 9.53125 14.09375 L 9.53125 12.9375 L 12.90625 8.9375 C 13.210439 8.922291 13.556432 8.905419 13.90625 8.875 z M 5.625 8.96875 C 5.959609 8.999168 6.290392 9.01604 6.625 9.03125 L 8.40625 11.125 L 8.40625 12.28125 L 5.625 8.96875 z M 12.34375 8.96875 L 9.53125 12.28125 L 9.53125 11.15625 L 11.34375 9.03125 C 11.663148 9.01604 11.993932 8.999168 12.34375 8.96875 z M 7.1875 9.03125 C 7.501845 9.053703 7.79975 9.0625 8.09375 9.0625 C 8.1980523 9.0624999 8.302696 9.066483 8.40625 9.0625 L 8.40625 10.5 L 7.1875 9.03125 z M 10.75 9.03125 L 9.53125 10.5 L 9.53125 9.09375 C 9.82023 9.09375 10.232879 9.061669 10.75 9.03125 z "
     id="path2385" />
</svg>
