<?xml version="1.0" encoding ="US-ASCII" standalone="yes"?>
<svg width="5.318021" height="17.977417">
<path style="fill:#000000; stroke:none" d=" M 1.092253 0  L 1.593616 0  L 1.486181 1.683145  L 3.778122 1.683145  L 3.688594 0  L 4.189956 0  Q 5.246397 8.505252 5.318021 9.561694  Q 5.318021 10.26002 5.103151 10.806147  Q 4.888282 11.352273 3.778122 11.817824  Q 3.27676 12.229657 3.187231 12.784737  L 3.187231 17.977417  L 2.13079 17.977417  L 2.13079 12.784737  Q 2.04126 12.229657 1.521992 11.817824  Q 0.429739 11.352273 0.21487 10.797194  Q 0 10.242114 0 9.561694  Q 0.053717 8.505252 1.092253 0  Z  M 1.450369 2.435188  L 1.342934 4.010898  L 3.921369 4.010898  L 3.83184 2.435188  L 1.450369 2.435188  Z  M 1.307123 4.816658  L 1.217594 6.678861  L 4.064615 6.678861  L 3.975086 4.816658  L 1.307123 4.816658  Z  M 1.163877 7.484622  L 1.092253 8.952897  L 4.207861 8.952897  L 4.118332 7.484622  L 1.163877 7.484622  Z  M 1.02063 9.70494  Q 1.092253 11.173215 2.650058 11.191121  Q 4.207861 11.173215 4.243673 9.70494  L 1.02063 9.70494  Z "/></svg>
