<?xml version="1.0" encoding="UTF-8" standalone="no"?>
<svg
   width="2687.4004"
   height="1650.9062"
   version="1.1"
   id="svg1"
   sodipodi:docname="P63.svg"
   inkscape:version="1.4 (e7c3feb1, 2024-10-09)"
   xmlns:inkscape="http://www.inkscape.org/namespaces/inkscape"
   xmlns:sodipodi="http://sodipodi.sourceforge.net/DTD/sodipodi-0.dtd"
   xmlns="http://www.w3.org/2000/svg"
   xmlns:svg="http://www.w3.org/2000/svg"
   xmlns:rdf="http://www.w3.org/1999/02/22-rdf-syntax-ns#"
   xmlns:cc="http://creativecommons.org/ns#"
   xmlns:dc="http://purl.org/dc/elements/1.1/">
  <title
     id="title1">P63</title>
  <defs
     id="defs1" />
  <sodipodi:namedview
     id="namedview1"
     pagecolor="#ffffff"
     bordercolor="#000000"
     borderopacity="0.25"
     inkscape:showpageshadow="2"
     inkscape:pageopacity="0.0"
     inkscape:pagecheckerboard="0"
     inkscape:deskcolor="#d1d1d1"
     inkscape:zoom="0.1213843"
     inkscape:cx="1235.7446"
     inkscape:cy="222.43403"
     inkscape:window-width="1384"
     inkscape:window-height="603"
     inkscape:window-x="0"
     inkscape:window-y="25"
     inkscape:window-maximized="0"
     inkscape:current-layer="svg1"
     showguides="true">
    <sodipodi:guide
       position="631.18872,1783.5232"
       orientation="0,-1"
       id="guide2"
       inkscape:locked="false" />
  </sodipodi:namedview>
  <path
     id="path1"
     style="fill:#000000;stroke:none;stroke-width:99.9962"
     d="m 887.76758,0 v 1319.8418 l -59.85156,-17.0997 C 694.49922,1255.2238 591.23996,1195.8244 518.13477,1124.5468 l 123.36328,-87.7246 c 7.31058,-3.6552 7.31058,-10.0531 0,-19.1914 -4.3863,-6.5797 -8.44354,-9.8691 -12.17187,-9.8691 -2.48557,0 -4.8244,1.4622 -7.01758,4.3867 l -131.58985,90.4668 c 0.24399,0.2466 0.35102,0.3711 0.31836,0.3711 -0.21133,0 -6.25728,-5.1477 -18.13672,-15.4434 -13.70726,-11.8796 -30.61284,-29.6998 -50.71679,-53.459 L 572.96289,929.91014 c 9.13813,-5.4831 10.05266,-12.7937 2.74219,-21.9316 -4.06145,-5.0765 -7.8406,-7.6153 -11.33789,-7.6153 -2.79789,0 -5.41667,1.6239 -7.85351,4.8731 L 402.99219,1009.4062 C 377.40542,981.99194 356.38813,955.49124 339.93946,929.90434 L 501.68555,817.50586 c 7.31058,-3.65533 8.22314,-10.05134 2.74024,-19.18945 -4.38631,-6.57948 -8.44349,-9.86914 -12.17188,-9.86914 -2.48557,0 -4.8244,1.46054 -7.01758,4.38476 L 323.49219,905.23244 c -10.96582,-14.6209 -21.01812,-31.9839 -30.15625,-52.0879 -26.88381,-56.75476 -53.76849,-85.13282 -80.65234,-85.13282 -6.01351,0 -12.02752,1.42008 -18.04102,4.25977 -32.89737,15.53478 -31.98278,61.68284 2.74219,138.44335 9.13821,18.2763 19.19052,38.3809 30.15625,60.3125 l -54.83008,35.63866 c -13.85956,-3.7312 -27.09715,-5.5977 -39.71289,-5.5977 -30.63817,0 -57.607916,11.004 -80.91016,33.0117 C 19.190536,1065.1494 1.827613,1102.6153 0,1146.4785 c 17.245353,5.9984 34.260987,8.998 51.044922,8.998 24.126863,0 47.775828,-6.1967 70.949218,-18.5918 39.29405,-21.0177 62.59769,-55.2863 69.90821,-102.8047 l 52.08789,-35.63856 c 14.62103,23.75916 32.89657,51.17246 54.82812,82.24216 l -54.82812,38.3808 c -14.90776,-4.5871 -29.09771,-6.8808 -42.56641,-6.8808 -29.46271,0 -55.48198,10.9744 -78.05859,32.9238 -32.897306,31.9835 -50.258328,69.9084 -52.085943,113.7715 15.905304,4.8411 31.614133,7.2617 47.126953,7.2617 25.48533,0 50.44117,-6.5326 74.86719,-19.5977 39.29412,-21.0177 62.5958,-55.2864 69.90625,-102.8047 l 54.82813,-38.3808 c 16.44865,25.5869 35.63876,51.1749 57.57031,76.7617 l -63.05274,43.8613 c -13.85951,-3.7312 -27.09719,-5.5957 -39.71289,-5.5957 -30.63823,0 -57.60789,11.0039 -80.91015,33.0117 -32.89737,31.0697 -50.26028,68.5354 -52.08789,112.3985 16.49553,5.9984 32.99079,8.998 49.48633,8.998 23.71234,0 47.4244,-6.1967 71.13671,-18.5918 40.20788,-21.0177 63.0542,-55.2864 68.53711,-102.8047 l 65.79492,-46.6054 c 102.34727,127.9341 229.36728,213.8341 381.06055,257.6972 H 142.55664 v 186.418 H 2631.7891 V 1464.4863 H 1631.1602 c 76.7605,0 163.573,-32.4394 260.4374,-97.3203 96.8643,-64.8809 170.883,-148.0392 222.0567,-249.4727 51.1735,-101.4335 84.0723,-179.56366 98.6933,-234.39256 63.9671,-67.62231 115.1393,-106.91705 153.5196,-117.88277 l 8.2246,87.72657 c 1.8279,10.9658 13.7093,17.3617 35.6406,19.1894 l 43.8613,-2.7421 c 12.7934,-34.72501 20.1042,-64.87999 21.9317,-90.46684 20.104,-12.79343 31.9834,-35.63786 35.6387,-68.53515 10.1281,3.73139 20.3355,5.5957 30.6191,5.5957 24.9745,0 50.4074,-11.00397 76.2988,-33.01172 20.1039,-16.44865 36.5524,-24.67187 49.3457,-24.67187 3.6552,1.8276 9.1367,3.65476 16.4473,5.48242 5.4831,-1.82759 4.5709,-6.39649 -2.7402,-13.70703 -8.972,-6.729 -19.169,-10.09375 -30.5879,-10.09375 -16.494,0 -35.5396,7.01908 -57.1387,21.05859 -13.7073,6.39675 -28.557,9.5957 -44.5488,9.5957 -15.9917,0 -33.126,-3.19895 -51.4024,-9.5957 l -32.8965,-38.37891 c -9.1381,-31.06977 -7.3108,-59.39759 5.4825,-84.98437 29.242,-38.38027 35.638,-70.3644 19.1894,-95.95117 -2.7413,-3.65526 -5.0256,-5.48243 -6.8535,-5.48242 -1.8279,0 -3.198,1.82716 -4.1113,5.48242 0,5.48285 0.9129,10.05176 2.7402,13.70703 1.8279,16.44865 -9.137,34.72417 -32.8965,54.82812 -25.5867,27.41446 -38.3808,61.22581 -38.3808,101.4336 -10.9657,-20.10385 -34.7247,-45.69 -71.2774,-76.75977 -16.4487,58.48423 -16.4487,93.21003 0,104.17578 -32.8974,3.65519 -61.2253,19.18905 -84.9844,46.60352 l 10.9649,-76.75977 c 23.7591,-32.89739 31.9843,-74.93387 24.6738,-126.10742 4.4119,-6.17623 11.165,-9.26367 20.2617,-9.26367 9.7465,0 22.1834,3.5448 37.3086,10.63476 5.6965,2.67023 11.6704,4.00586 17.9219,4.00586 25.8389,0 56.4179,-22.81019 91.7363,-68.42968 l 21.9317,-24.67383 c -26.8052,-19.49471 -53.6107,-29.24219 -80.416,-29.24219 -13.4027,0 -26.8063,2.43687 -40.209,7.31055 -35.7403,12.99649 -57.0392,19.49609 -63.8985,19.49609 -0.8573,0 -1.4904,-0.10136 -1.8965,-0.30469 53.0013,-89.55383 159.9185,-181.8499 320.75,-276.88671 24.1654,-19.90083 26.2189,-29.85157 6.1602,-29.85157 -5.7311,0 -13.2683,0.81296 -22.6094,2.4375 -169.9697,76.76041 -289.679,157.1751 -359.1289,241.2461 34.7249,-84.071 141.6423,-175.45258 320.75,-274.14453 25.9717,-21.64299 29.7309,-32.4629 11.2774,-32.4629 -4.9211,0 -11.4221,0.76953 -19.502,2.3086 -219.3155,80.41571 -361.8713,198.29791 -427.666,353.64648 -51.1736,42.03552 -83.1558,79.50115 -95.9492,112.39844 0,10.96581 -17.8202,31.98303 -53.459,63.05273 -35.6387,31.06967 -54.8288,50.71704 -57.5703,58.94141 -2.7412,8.22437 -7.31,20.56113 -13.707,37.00977 -6.3964,16.44865 -2.2849,31.98443 12.3359,46.60547 15.2302,15.23032 30.461,22.8457 45.6914,22.8457 3.0459,0 6.0908,-0.30475 9.1367,-0.91406 43.8631,-16.44871 82.7006,-26.50094 116.5117,-30.15625 33.8111,-3.65526 56.2001,-10.96594 67.1661,-21.93165 -9.1384,107.83011 -50.7174,219.31438 -124.7364,334.45504 -74.0189,115.1407 -146.2103,190.0739 -216.5742,224.7988 -70.3637,34.725 -127.4766,56.6568 -171.3398,65.795 l -76.7598,24.6738 c -6.0456,1.3833 -12.1264,2.3208 -18.1777,3.6308 V 328.33985 h 1.1933 v -80 h -1.1933 V 0 h -80 v 127.72266 c -11.7818,-10.70746 -24.9215,-20.07964 -39.1016,-27.9043 -57.7256,-31.85329 -131.3906,-44.48662 -213.0684,-45.07617 -82.1885,-0.59324 -158.7833,12.51046 -218.12886,44.85742 -9.27113,5.05333 -18.06384,10.85917 -26.38086,17.20899 V 0 Z m 323.93162,134.74024 c 73.2572,0.52877 135.5236,13.33995 174.9961,35.12109 35.9267,19.82448 53.7519,42.04703 56.6738,78.47852 H 979.33203 c -1.96453,-36.0056 14.49928,-57.4544 53.10347,-78.4961 40.9625,-22.32704 106.5173,-35.6286 179.2637,-35.10351 z M 967.76758,328.33985 H 1464.4473 V 1335.3476 c -81.9576,13.3241 -164.4138,20.2871 -247.4161,20.2871 -82.5628,0 -165.667,-6.8967 -249.26362,-20.08 z m 1433.05472,64.24218 c 14.1642,0 25.3576,3.65432 33.582,10.96485 -29.2422,36.93735 -55.5687,55.40625 -78.9785,55.40625 -4.3891,0 -8.6748,-0.64866 -12.8594,-1.94727 -14.0297,-4.35403 -25.883,-6.53125 -35.5586,-6.53125 -8.6007,0 -15.4822,1.71989 -20.6426,5.16016 l -10.9648,-19.18945 c 9.138,-7.31052 33.8116,-18.2774 74.0195,-32.89844 20.104,-7.31053 37.2383,-10.96485 51.4024,-10.96485 z m -206.6504,9.7461 c 6.6337,0 9.9511,4.97538 9.9511,14.92578 0,12.79343 10.0523,23.76031 30.1563,32.89844 14.6209,21.93163 20.1025,49.3449 16.4473,82.24218 -3.6552,34.72501 -22.388,58.02863 -56.1993,69.90821 -33.8111,11.87958 -56.1983,23.30175 -67.164,34.26758 -10.9658,10.96573 -29.2432,18.27637 -54.8301,21.93164 -25.5868,3.65526 -53.0001,10.96585 -82.2422,21.93164 -3.6552,0.60931 -6.3464,0.91406 -8.0723,0.91406 -3.4525,0 -3.0477,-1.21941 1.2168,-3.65625 6.3971,-3.65533 12.3378,-8.22416 17.8204,-13.70703 l -5.4825,-8.22461 c -5.4831,3.65533 -14.1655,9.13873 -26.0449,16.44922 -11.8795,7.31051 -21.4744,10.96679 -28.7851,10.96679 -7.3105,0 -12.3348,-6.39799 -15.0762,-19.1914 -2.7413,-12.79343 3.1974,-27.41463 17.8183,-43.86328 5.4831,3.65533 7.3104,6.85427 5.4825,9.5957 -1.8279,2.74143 -4.5694,5.48325 -8.2246,8.22461 -3.6552,2.74143 -4.1124,5.94038 -1.3711,9.5957 1.3706,1.8276 3.3129,2.74024 5.8261,2.74024 2.5133,0 5.5968,-0.91264 9.252,-2.74024 16.4486,-18.27633 17.3635,-31.9849 2.7422,-41.12305 l 95.9511,-82.24218 c 12.7934,-49.34603 45.6901,-87.72617 98.6915,-115.14063 12.7932,0 24.6728,-1.82918 35.6386,-5.48437 2.4366,-0.8123 4.6022,-1.2168 6.4981,-1.2168 z m -93.8672,89.91797 c -15.3893,0 -25.5614,11.5553 -30.5137,34.66601 10.9657,1.8276 20.1055,5.48389 27.416,10.9668 2.1933,1.64487 5.372,2.4668 9.5391,2.4668 9.7231,0 24.8194,-4.47823 45.2891,-13.4336 l 13.707,2.74219 c -21.9319,-21.93156 -42.0362,-34.26833 -60.3125,-37.00977 -1.7686,-0.26533 -3.4764,-0.39843 -5.125,-0.39843 z m 249.1152,84.01172 c 18.2764,14.62105 31.983,31.52664 41.1211,50.71679 9.1381,19.19003 15.5342,31.52685 19.1895,37.00977 l 27.416,-19.18946 c 21.9315,10.96581 39.2925,28.32874 52.0859,52.0879 -3.6552,32.89737 -15.5347,56.65631 -35.6387,71.27734 -3.6552,29.24207 -9.1367,56.65538 -16.4472,82.24219 -4.8739,1.21849 -9.6479,1.82809 -14.3184,1.82809 -9.3411,0 -18.2757,-2.43683 -26.8047,-7.31052 -3.6551,-29.24209 -6.3967,-63.96593 -8.2246,-104.17382 -62.1394,9.13819 -116.0534,38.37864 -161.7441,87.72461 l 27.414,-101.4336 c 27.4145,-38.38021 61.2258,-60.31008 101.4336,-65.79297 18.2763,-3.65533 21.0178,-11.88051 8.2246,-24.67382 -12.7934,-12.79346 -17.3622,-32.89801 -13.707,-60.3125 z m -126.1074,54.83007 c -12.7934,148.03803 -55.2853,285.56755 -127.4766,412.58781 -72.1915,127.0203 -162.6603,223.426 -271.4043,289.2207 -108.744,65.7947 -265.0064,107.8312 -468.7871,126.1075 -56.6059,5.0765 -111.4471,7.6152 -164.5273,7.6152 -138.0086,0 -264.10126,-17.1598 -378.27735,-51.4785 C 654.74987,1367.6225 526.81532,1286.2931 429.03711,1171.1523 331.25884,1056.0116 268.2052,967.37194 239.87696,905.23244 211.54865,843.09303 202.4109,809.73898 212.46289,805.16992 c 0.70791,-0.32199 1.4626,-0.48437 2.26563,-0.48437 10.60032,0 29.49301,28.03307 56.67578,84.09769 29.24208,60.3117 92.29574,143.46816 189.16016,249.47066 96.86438,106.0025 219.77077,181.8502 368.72265,227.541 104.89565,32.1765 221.34899,48.2637 349.35739,48.2637 53.7636,0 109.5657,-2.8379 167.4063,-8.5137 195.5564,-19.1901 347.2498,-56.6558 455.0801,-112.3985 107.8301,-55.7427 196.4699,-144.8398 265.9199,-267.291 69.4499,-122.45126 111.4843,-248.55861 126.1054,-378.32024 z M 130.03516,1031.6601 c 9.20774,0 17.95043,2.6346 26.22852,7.9024 3.65533,23.7591 -7.31156,44.3191 -32.89844,61.6816 -23.14993,15.7089 -49.29147,23.5645 -78.425787,23.5645 -3.066795,0 -6.167668,-0.087 -9.300781,-0.2598 9.1382,-32.8979 26.501105,-58.4854 52.08789,-76.7617 15.051058,-10.7507 29.154768,-16.127 42.308598,-16.127 z m 72.92578,111.1934 c 8.60374,0 16.7979,2.122 24.58008,6.3672 3.65533,23.7591 -7.76686,44.7764 -34.26758,63.0527 -22.08381,15.2302 -45.75496,22.8457 -71.01172,22.8457 -5.05141,0 -10.16542,-0.3035 -15.34375,-0.9102 9.13813,-32.8973 26.49908,-58.0261 52.08594,-75.3886 15.68221,-10.6415 30.33444,-15.9629 43.95703,-15.9629 z m 64.2168,107.8828 c 9.96217,0 19.59411,2.7135 28.89844,8.1406 3.65526,21.9316 -7.76692,42.0362 -34.26758,60.3125 -24.09153,16.6149 -50.82698,24.9219 -80.20508,24.9219 -2.93775,0 -5.90196,-0.083 -8.89258,-0.25 9.13813,-34.725 26.50104,-60.7684 52.08789,-78.1309 14.73179,-9.9966 28.85878,-14.9941 42.37891,-14.9941 z m -64.31055,274.0625 H 2571.4766 v 65.7949 H 202.86719 Z" />
  <metadata
     id="metadata1">
    <rdf:RDF>
      <cc:Work
         rdf:about="">
        <dc:title>P63</dc:title>
        <dc:creator>
          <cc:Agent>
            <dc:title>Serge Jean Paul THOMAS</dc:title>
          </cc:Agent>
        </dc:creator>
        <dc:description>Modified by S. Rosmorduc to match Hieroglyphica: the sign has a shrine as habitacle, not a falcon on a mound.
</dc:description>
      </cc:Work>
    </rdf:RDF>
  </metadata>
</svg>
