<?xml version="1.0" encoding ="US-ASCII" standalone="yes"?>
<svg width="17.5401" height="19.92">
<path style="fill:#000000; stroke:none" d=" M 8.481949 2.715462  L 8.363025 4.43988  L 11.217232 4.43988  L 11.118128 2.715462  L 8.481949 2.715462  Z  M 8.323382 5.351642  L 8.224277 7.393193  L 11.375796 7.393193  L 11.276692 5.351642  L 8.323382 5.351642  Z  M 8.164816 8.285134  L 8.08553 9.930268  L 11.534368 9.930268  L 11.435262 8.285134  L 8.164816 8.285134  Z  M 8.006248 10.762745  Q 8.08553 12.368237 9.829771 12.388057  Q 11.534368 12.368237 11.574005 10.762745  L 8.006248 10.762745  Z  M 9.235144 16.510805  Q 8.323382 16.490986 6.797173 16.43152  Q 5.270965 16.372061 3.784397 16.669373  Q 2.119442 17.12525 0.811263 16.609911  Q -0.219424 16.015284 0.058069 15.678329  Q 0.236457 15.381015 1.207681 15.896354  Q 2.178905 16.411701 3.903322 15.876538  Q 3.526725 15.281911 2.75371 15.381015  Q 1.762666 15.480121 1.534726 15.361192  Q 1.306785 15.242269 1.247323 15.034149  Q 1.18786 14.826028 1.782487 14.786386  Q 2.377114 14.746747 3.249233 14.826028  Q 4.597054 15.143165 5.17186 15.717969  Q 6.975562 15.262088 9.235144 15.182806  L 9.235144 14.152118  Q 9.136037 13.537672 8.581053 13.081791  Q 7.352158 12.566446 7.114307 11.951997  Q 6.876456 11.337552 6.876456 10.584356  Q 6.935919 9.434747 8.08553 0  L 8.640513 0  L 8.521591 1.882985  L 11.078485 1.882985  L 10.959561 0  L 11.514544 0  Q 12.683977 9.434747 12.763264 10.584356  Q 12.763264 11.377193 12.525412 11.97182  Q 12.287561 12.566446 11.078485 13.081791  Q 10.503676 13.537672 10.404572 14.152118  L 10.404572 15.143165  Q 10.54332 15.143165 11.395621 15.143165  Q 13.417351 15.143165 14.943559 15.30173  L 14.943559 11.535761  L 17.5401 11.496118  L 17.5401 16.530624  Q 12.54523 16.550444 10.404572 16.510805  L 10.404572 19.92  L 9.235144 19.92  L 9.235144 16.510805  Z  M 16.945473 12.051103  Q 15.597651 11.912358 15.617469 13.230449  Q 15.637292 14.548537 15.597651 15.678329  Q 16.25174 15.955819 16.945473 15.995461  L 16.945473 12.051103  Z "/></svg>
