<?xml version="1.0" encoding ="US-ASCII" standalone="yes"?>
<svg width="21.749367" height="11.52">
<path style="fill:#000000; stroke:none" d=" M 17.713614 0.553326  L 17.713614 3.521355  L 17.238022 3.656945  L 17.241238 0.553326  Z  M 5.023995 0.741677  L 5.023995 3.731832  L 4.48145 3.532323  L 4.48145 0.741677  Z  M 12.013185 2.153925  L 16.495583 3.783268  C 15.460198 4.027098 13.800372 4.141806 12.676364 4.141806  C 12.423888 4.141806 12.198448 4.136017 12.013185 4.124603  L 12.013185 2.153925  Z  M 10.336194 2.129531  L 10.336194 4.173396  C 10.187634 4.175267 10.011992 4.176483 9.81681 4.176483  C 8.611197 4.176483 6.659939 4.130043 5.739388 3.904296  L 10.336194 2.129531  Z  M 11.306499 0.697425  L 11.309524 4.208003  L 11.035701 4.190037  L 11.040809 0.719552  L 11.306499 0.697425  Z  M 18.721937 3.75093  C 18.664825 4.619496 17.670696 5.219344 16.934687 5.776831  L 16.934687 4.550283  C 17.69396 4.252821 18.342585 4.056903 18.721937 3.75093  Z  M 3.258117 3.906754  C 3.447036 3.985046 4.344348 4.461028 4.83489 4.550283  L 4.8434 5.856634  C 4.395782 5.485797 3.719917 4.862499 3.258117 3.906754  Z  M 5.615522 4.527969  L 6.418468 4.773242  L 6.418468 6.490517  L 5.615522 6.089044  L 5.615522 4.527969  Z  M 16.231218 4.594913  L 16.237272 6.187568  L 15.588066 6.522097  L 15.596574 4.750929  L 16.231218 4.594913  Z  M 14.803838 4.817868  L 14.7976 6.799517  L 14.370018 6.824099  L 14.380239 4.862499  L 14.803838 4.817868  Z  M 7.235407 4.982583  L 7.655414 5.037236  L 7.655224 6.935675  L 7.217255 6.790255  L 7.235407 4.982583  Z  M 13.607923 4.982583  L 13.615681 7.000347  L 13.187921 7.02474  L 13.206262 4.982583  Z  M 12.411443 4.966318  L 12.411443 7.044787  L 11.98369 7.069559  L 11.98369 4.978423  L 12.411443 4.966318  Z  M 10.065579 5.037236  L 10.065579 7.082417  L 9.626664 7.085635  L 9.626664 7.085635  L 9.627422 5.037236  Z  M 8.42243 5.000736  L 8.824096 5.037236  L 8.824096 7.100576  L 8.42243 7.064078  L 8.42243 5.000736  Z  M 11.346213 5.009057  L 11.346213 7.102087  L 11.002794 7.102087  L 11.002794 5.009057  Z  M 19.635328 6.624028  C 21.376274 7.168361 21.434601 7.996912 20.952934 7.996912  C 20.638081 7.996912 20.092499 7.642884 19.635328 6.624028  Z  M 18.668606 8.048567  C 19.923143 8.854825 19.679979 9.484394 19.2738 9.484394  C 18.949354 9.484394 18.520899 9.082718 18.668606 8.048567  Z  M 2.445528 0.478819  C 1.508882 5.950618 5.354745 7.867403 11.051774 7.922245  C 11.171011 7.924689 11.292569 7.925983 11.416142 7.925983  C 14.982426 7.925983 20.226324 6.846798 19.839933 1.15998  L 20.599958 0.600035  L 20.599958 0.600035  C 20.830858 2.742238 20.059868 4.90013 19.880022 5.520026  C 18.280186 7.999966 14.110187 9.762253 11.599993 9.840164  C 11.542797 9.841382 11.485363 9.841985 11.427699 9.841985  C 7.360687 9.841985 2.17703 6.847891 1.939478 5.204404  C 1.558048 2.253394 0.898634 1.026471 0.70272 0.529499  L 2.445528 0.478819  Z  M 17.834269 8.324096  C 17.967384 8.625508 18.328508 9.594345 18.826872 9.862288  L 14.400475 9.862288  C 15.394222 9.844138 16.994259 8.964034 17.834269 8.324096  Z  M 20.68014 10.480103  L 20.68014 10.960061  L 1.800105 10.960061  L 1.800105 10.480103  Z  M 20.920118 0  L 19.239901 0.959906  L 19.400076 2.840005  L 18.120005 3.440038  L 18.120005 0.120083  L 16.839954 0.120083  L 16.839954 3.200061  L 15.742556 0.848522  L 15.545511 0.97163  L 16.580688 3.165455  L 15.17581 1.193642  L 14.929205 1.31675  L 16.112259 2.968218  L 12.015265 1.361947  L 12.015265 0.143532  L 10.343 0.154689  L 10.343 1.339632  L 5.455162 3.178127  L 5.455162 0.287632  L 4.015491 0.287632  L 4.015491 3.410727  L 2.640118 3.080169  L 2.760012 0.079993  L 0 0.079993  L 1.159979 3.159972  C 1.344926 6.152205 2.176617 7.216877 4.520027 8.440211  L 7.720084 9.880068  L 1.159979 9.880068  L 1.159979 11.52  L 21.199995 11.52  L 21.199995 9.839978  L 19.720045 9.840164  C 19.735735 9.664107 20.908766 9.465736 18.992365 7.367595  L 18.992365 7.367595  C 19.84215 8.165354 20.595266 8.479784 21.099007 8.479784  C 22.076681 8.479784 22.115059 7.295425 20.097879 6.161471  C 20.380028 5.460078 21.893639 2.026655 20.920118 0  Z "/></svg>
