<?xml version="1.0" encoding="UTF-8" standalone="no"?>
<svg
   xmlns:dc="http://purl.org/dc/elements/1.1/"
   xmlns:cc="http://creativecommons.org/ns#"
   xmlns:rdf="http://www.w3.org/1999/02/22-rdf-syntax-ns#"
   xmlns:svg="http://www.w3.org/2000/svg"
   xmlns="http://www.w3.org/2000/svg"
   xmlns:sodipodi="http://sodipodi.sourceforge.net/DTD/sodipodi-0.dtd"
   xmlns:inkscape="http://www.inkscape.org/namespaces/inkscape"
   width="19.28125"
   height="17.96875"
   id="svg2445"
   sodipodi:version="0.32"
   inkscape:version="0.46"
   sodipodi:docname="P85.svg"
   inkscape:output_extension="org.inkscape.output.svg.inkscape"
   version="1.0">
  <metadata
     id="metadata2452">
    <rdf:RDF>
      <cc:Work
         rdf:about="">
        <dc:format>image/svg+xml</dc:format>
        <dc:type
           rdf:resource="http://purl.org/dc/dcmitype/StillImage" />
      </cc:Work>
    </rdf:RDF>
  </metadata>
  <defs
     id="defs2450">
    <inkscape:perspective
       sodipodi:type="inkscape:persp3d"
       inkscape:vp_x="0 : 8.9887915 : 1"
       inkscape:vp_y="0 : 1000 : 0"
       inkscape:vp_z="3.669034 : 8.9887915 : 1"
       inkscape:persp3d-origin="1.834517 : 5.9925276 : 1"
       id="perspective2454" />
  </defs>
  <sodipodi:namedview
     inkscape:window-height="667"
     inkscape:window-width="640"
     inkscape:pageshadow="2"
     inkscape:pageopacity="0.0"
     guidetolerance="10.0"
     gridtolerance="10.0"
     objecttolerance="10.0"
     borderopacity="1.0"
     bordercolor="#666666"
     pagecolor="#ffffff"
     id="base"
     showgrid="false"
     inkscape:zoom="25.698672"
     inkscape:cx="1.834517"
     inkscape:cy="8.9887916"
     inkscape:window-x="111"
     inkscape:window-y="35"
     inkscape:current-layer="svg2445"
     showguides="true"
     inkscape:guide-bbox="true" />
  <path
     style="fill:#000000;stroke:none"
     d="M 9.625,0 C 9.1019613,0 8.84375,0.27587935 8.84375,0.84375 L 9,6.1875 L 4.71875,6.1875 C 3.4358014,6.2169934 2.3718036,6.6942112 1.53125,7.59375 C 0.602218,8.6112614 0.0884796,9.6074882 0,10.625 C 0,10.860944 0.1408121,11 0.40625,11 L 9.125,11 L 9.125,11.1875 C 8.40769,12.099081 7.9782453,12.88255 7.84375,13.5625 C 7.709254,14.24245 7.7683687,15.039501 8,15.90625 C 8.2316313,16.773001 8.773194,17.445712 9.625,17.96875 C 10.476805,17.445712 11.025841,16.773001 11.25,15.90625 C 11.47416,15.039501 11.509496,14.24245 11.375,13.5625 C 11.240505,12.88255 10.827366,12.099081 10.125,11.1875 L 10.125,11 L 18.90625,11 C 19.171688,11 19.28125,10.842685 19.28125,10.5625 C 19.28125,10.282315 19.171688,10.15625 18.90625,10.15625 L 10.15625,10.15625 L 10.21875,7 L 18.90625,7 C 19.171688,7 19.28125,6.8739342 19.28125,6.59375 C 19.28125,6.328312 19.171688,6.1874998 18.90625,6.1875 L 10.25,6.1875 L 10.375,0.84375 C 10.375,0.27587933 10.133095,-2.9552957e-18 9.625,0 z M 4.3125,7 L 9,7 L 9.09375,10.15625 L 1,10.15625 C 1.7373274,8.2686942 2.8378459,7.206452 4.3125,7 z M 9.5,11.6875 L 9.75,11.6875 C 10.273039,12.359978 10.615504,13.028603 10.75,13.65625 C 10.884495,14.283896 10.884495,14.919909 10.75,15.5625 C 10.615504,16.205089 10.237702,16.721512 9.625,17.125 C 9.0122973,16.721512 8.6344953,16.205089 8.5,15.5625 C 8.365504,14.919909 8.365504,14.283896 8.5,13.65625 C 8.6344953,13.028603 8.9769613,12.359978 9.5,11.6875 z"
     id="path2447" />
</svg>
