<?xml version="1.0" encoding ="US-ASCII" standalone="yes"?>
<svg width="16.264322" height="17.977417">
<path style="fill:#000000; stroke:none" d=" M 8.363933 8.64609  L 7.719003 8.807322  L 7.739157 9.915795  Q 7.739157 11.326579 7.618233 11.749814  Q 7.194998 13.241214 7.194998 14.228763  Q 7.154689 15.417852 7.497308 16.486017  Q 7.618233 16.989868 8.041468 17.050331  Q 8.444549 16.989868 8.565474 16.486017  Q 8.928246 15.417852 8.887938 14.228763  Q 8.887938 13.22106 8.464703 11.749814  Q 8.363933 11.326579 8.323625 9.935949  L 8.363933 8.64609  Z  M 9.008862 8.54532  L 8.968554 9.915795  Q 9.069324 11.326579 9.432097 12.737363  Q 9.653792 13.422601 9.653792 14.208609  Q 9.59333 17.675106 8.041468 17.977417  Q 6.489606 17.675106 6.429143 14.228763  Q 6.429143 13.442755 6.670992 12.717209  Q 7.154689 11.346733 7.094227 9.915795  L 7.074073 8.928246  Q 5.11913 9.230557 3.446343 8.605782  Q 2.418487 7.839927 1.189089 8.162393  Q 0 8.081776 0 7.376384  Q 0 6.691146 0.806162 6.207449  Q -0.201541 5.11913 0.403081 4.736203  Q 1.007703 4.534662 1.370476 5.905138  Q 1.753403 4.534662 2.196792 4.564893  Q 2.640181 4.595125 2.680489 4.998206  Q 2.720797 5.401287 1.934789 6.026062  Q 2.902184 6.388835 3.768808 6.912841  Q 5.2199 7.638387 7.053919 7.154689  L 6.892687 0  L 9.170095 0  L 9.029016 6.832225  Q 10.117335 6.61053 11.669198 7.114381  Q 13.160598 7.719003 14.954309 7.719003  Q 15.780625 7.880236 16.264322 8.303471  Q 16.264322 8.565474 14.551228 8.625936  Q 13.462909 8.726706 11.548273 8.494934  Q 9.633638 8.263163 9.008862 8.54532  Z  M 8.363933 6.932995  L 8.444549 1.088319  Q 8.041468 1.088319 7.638387 1.088319  L 7.719003 7.033765  Q 8.142239 6.973303 8.363933 6.932995  Z  M 0.665084 7.174844  Q 0.624776 7.577925 1.007703 7.598079  Q 2.418487 7.235306 3.688192 8.081776  Q 4.897435 8.64609 6.298142 8.454626  Q 7.698849 8.263163 8.797245 8.051545  Q 9.895641 7.839927 11.175424 8.051545  Q 12.455206 8.263163 13.402447 8.263163  Q 14.349688 8.263163 15.337235 8.162393  Q 13.825682 8.081776 13.12029 7.981006  Q 12.414898 7.880236 11.336656 7.52754  Q 10.258414 7.174844 8.958477 7.35623  Q 7.658541 7.537617 6.449297 7.799619  Q 4.998206 8.061622 3.869579 7.477154  Q 2.33787 6.590376 1.612324 6.620607  Q 0.886778 6.650838 0.665084 7.174844  Z "/></svg>
