<?xml version="1.0" encoding ="US-ASCII" standalone="yes"?>
<svg width="17.350834" height="9.36">
<path style="fill:#000000; stroke:none" d=" M 15.312631 5.275264  L 15.415263 4.823685  L 16.934214 5.152106  L 16.934214 3.961579  L 0.78 0.533684  L 0.533684 1.662632  L 2.196316 2.032105  Q 2.422106 2.093684 2.298948 2.319474  Q 1.847368 3.202106 1.847368 3.982105  Q 1.847368 4.762105 2.165526 5.706316  Q 2.483684 6.650528 2.483684 7.061053  Q 2.483684 7.225263 2.422106 7.266315  Q 2.216842 7.430528 1.426579 7.574211  Q 0.636316 7.717896 0.636316 7.861581  L 0.656842 8.169475  Q 0.944211 8.231053 1.231579 8.908423  Q 1.662632 8.908423 2.17579 8.97  Q 2.237369 8.846843 2.976316 7.995001  Q 3.715264 7.143158 3.715264 6.742895  Q 3.715264 6.342631 3.51 5.644737  Q 3.304737 4.946842 3.315 4.659474  Q 3.325264 4.372106 3.705 3.386842  Q 4.084737 2.401579 4.413158 2.483684  L 13.608948 4.454212  Q 13.773159 4.474738 13.721841 4.669738  Q 13.670527 4.864737 13.670527 5.008421  Q 13.650002 5.398421 14.142632 6.198948  Q 14.635263 6.999475 14.635263 7.204738  Q 14.635263 7.307369 14.553159 7.358685  Q 14.471054 7.410001 13.752631 7.594738  Q 13.03421 7.779474 13.03421 7.943686  L 13.03421 8.190001  Q 13.526844 8.272105 13.773159 8.97  L 14.778947 8.97  Q 14.861055 8.805791 15.127894 8.415791  Q 15.682107 7.820527 15.702634 7.368948  Q 15.702634 7.327896 15.538424 6.948157  Q 15.374212 6.568421 15.374212 6.547895  Q 15.127894 6.137368 15.312631 5.275264  Z  M 15.78474 5.357369  Q 15.682107 6.01421 15.795002 6.352895  Q 15.907897 6.691579 16.02079 6.958421  Q 16.133686 7.225263 16.133686 7.410001  Q 16.154213 7.984738 15.497369 8.682633  Q 15.353686 8.846843 15.127894 9.36  L 13.526844 9.36  Q 13.054738 8.518421 12.705791 8.497894  Q 12.54158 8.518421 12.54158 8.015527  Q 12.54158 7.512632 13.075264 7.358685  Q 13.608948 7.204738 14.081053 7.061053  Q 13.998949 6.896842 13.578157 6.178421  Q 13.157369 5.46 13.157369 5.182895  Q 13.157369 4.90579 13.177896 4.823685  L 4.536316 2.976316  Q 4.331052 3.222632 4.064211 3.797369  Q 3.797369 4.372106 3.797369 4.649211  Q 3.797369 4.926316 4.002632 5.644737  Q 4.207895 6.363158 4.218158 6.835263  Q 4.228422 7.307369 3.458684 8.179737  Q 2.688947 9.052105 2.442632 9.257369  Q 2.360526 9.36 2.237369 9.36  L 0.944211 9.36  Q 0.841579 9.257369 0.74921 8.877632  Q 0.656842 8.497894 0.533684 8.538948  Q 0.143684 8.600528 0.153947 8.005263  Q 0.164211 7.410001 1.128947 7.225263  Q 2.093684 7.040526 2.011579 6.845527  Q 1.929474 6.650528 1.642105 5.655  Q 1.354737 4.659474 1.354737 4.002632  Q 1.354737 3.345789 1.724211 2.381052  L 0 2.011579  L 0.431053 0  L 17.160002 3.551053  Q 17.447372 3.735789 17.303686 5.336843  L 17.242105 5.685791  L 15.78474 5.357369  Z "/></svg>
