<?xml version="1.0" encoding ="US-ASCII" standalone="yes"?>
<svg width="9.007326" height="17.976807">
<path style="fill:#000000; stroke:none" d=" M 3.406132 0  Q 5.468734 0.037846 6.197268 1.949064  Q 6.925801 3.860283 6.812263 12.962224  Q 6.812263 13.170376 7.342106 13.170376  L 9.007326 12.791917  L 9.007326 15.838512  L 7.190722 15.384362  Q 6.585188 15.460053 6.755495 16.311586  L 7.115031 17.976807  L 4.16305 17.976807  L 4.692893 16.292664  Q 4.863199 15.460053 4.238742 15.365439  L 2.422138 15.838512  L 2.422138 12.791917  L 3.746745 13.170376  Q 4.636124 13.170376 4.636124 12.962224  L 4.957814 5.090275  Q 4.957814 1.097531 3.368286 1.097531  Q 1.457067 1.097531 1.021839 3.879206  Q 1.116454 8.534252 0.993455 11.259158  Q 0.870456 13.984063 0.491997 14.031371  Q 0.113538 14.078678 0.056769 13.605604  Q 0.151384 11.543002 0 4.238742  Q 0 2.554599 0.775841 1.277299  Q 1.551682 0 3.406132 0  Z  M 5.544425 2.535676  L 5.468734 2.535676  Q 5.657963 7.68272 5.355196 12.621611  L 6.112114 12.621611  Q 6.14996 3.803514 5.544425 2.535676  Z  M 4.863199 14.230062  Q 4.919968 15.11944 5.714732 15.100517  Q 6.528419 15.100517 6.585188 14.230062  Q 6.528419 13.397451 5.714732 13.378529  Q 4.938891 13.416374 4.863199 14.230062  Z  M 5.714732 17.503733  Q 6.528419 17.465887 6.40542 16.964428  Q 6.282421 16.462971 5.714732 15.933127  Q 5.165967 16.481894 5.052429 16.983351  Q 4.938891 17.48481 5.714732 17.503733  Z  M 8.591022 14.230062  Q 8.534252 13.416374 8.042255 13.539373  Q 7.550259 13.662373 7.020416 14.230062  Q 7.569182 14.79775 8.07064 14.911288  Q 8.572099 15.024826 8.591022 14.230062  Z  M 2.857366 14.230062  Q 2.876289 15.024826 3.377747 14.911288  Q 3.879206 14.79775 4.427971 14.230062  Q 3.898129 13.662373 3.406132 13.539373  Q 2.914135 13.416374 2.857366 14.230062  Z "/></svg>
