<?xml version="1.0" encoding="UTF-8" standalone="no"?>
<svg
   xmlns:dc="http://purl.org/dc/elements/1.1/"
   xmlns:cc="http://creativecommons.org/ns#"
   xmlns:rdf="http://www.w3.org/1999/02/22-rdf-syntax-ns#"
   xmlns:svg="http://www.w3.org/2000/svg"
   xmlns="http://www.w3.org/2000/svg"
   xmlns:sodipodi="http://sodipodi.sourceforge.net/DTD/sodipodi-0.dtd"
   xmlns:inkscape="http://www.inkscape.org/namespaces/inkscape"
   width="1360.7812"
   height="1802.125"
   id="svg3049"
   version="1.1"
   inkscape:version="0.48.0 r9654"
   sodipodi:docname="R111.svg">
  <metadata
     id="metadata3059">
    <rdf:RDF>
      <cc:Work
         rdf:about="">
        <dc:format>image/svg+xml</dc:format>
        <dc:type
           rdf:resource="http://purl.org/dc/dcmitype/StillImage" />
      </cc:Work>
    </rdf:RDF>
  </metadata>
  <defs
     id="defs3057" />
  <sodipodi:namedview
     pagecolor="#ffffff"
     bordercolor="#666666"
     borderopacity="1"
     objecttolerance="10"
     gridtolerance="10"
     guidetolerance="10"
     inkscape:pageopacity="0"
     inkscape:pageshadow="2"
     inkscape:window-width="1920"
     inkscape:window-height="1152"
     id="namedview3055"
     showgrid="false"
     inkscape:snap-grids="false"
     inkscape:snap-to-guides="true"
     showguides="true"
     inkscape:guide-bbox="true"
     fit-margin-top="0"
     fit-margin-left="0"
     fit-margin-right="0"
     fit-margin-bottom="0"
     inkscape:zoom="0.38615887"
     inkscape:cx="627.34987"
     inkscape:cy="661.28028"
     inkscape:window-x="1280"
     inkscape:window-y="0"
     inkscape:window-maximized="1"
     inkscape:current-layer="svg3049" />
  <path
     style="fill:#000000;stroke:none"
     d="m 595.25,0 c -77.40433,0 -127.10482,128.13815 -149.125,384.375 -5.33823,64.05421 2.34561,116.75304 23.03125,158.125 -18.01652,-13.34407 -47.05704,-40.02361 -87.09375,-80.0625 -40.03673,-40.03221 -79.75558,-60.0625 -119.125,-60.0625 -44.04039,0 -66.03125,35.03404 -66.03125,105.09375 l 0,237.21875 343.8125,0 0,127.31334 c -21.93756,2.026 -43.73484,5.3988 -65.34375,10.0937 -82.36232,17.9092 -165.90648,71.3225 -250.65625,160.25006 C 139.9691,1130.6707 65.673259,1177.8104 1.8125,1183.7821 L 0,1246.4696 c 145.02946,12.5329 287.37334,31.6199 427.03125,57.2813 36.55971,6.719 74.46931,11.0787 113.6875,13.0937 l 0,485.2805 109.59375,0 0,-15.5 0,-28.5313 0,-441.5617 c 79.75469,-4.2852 164.38986,-17.1933 253.90625,-38.75 177.85505,-42.9693 290.65995,-68.9204 338.40625,-77.875 l 118.1562,0 0,-77 -121.75,0 c -57.8924,-19.6955 -135.4668,-58.796 -232.75,-117.2812 -96.68624,-58.49116 -188.92235,-98.17636 -276.6562,-119.06266 -26.66811,-6.393 -53.09161,-10.9593 -79.3125,-13.7187 l 0,-128.03204 341.3125,0 0,-237.21875 C 991.625,437.52737 969.60287,402.5 925.5625,402.5 c -38.70215,0 -77.75556,19.69015 -117.125,59.0625 -32.4887,32.48702 -57.91066,56.11121 -76.3125,70.875 C 746.80645,513.16125 750.57027,463.85123 743.40625,384.5 721.38603,128.1765 671.98701,0 595.25,0 z m 0,85.09375 c 45.37493,0 70.72428,125.1124 76.0625,375.34375 0,53.38295 -25.34935,87.7434 -76.0625,103.09375 C 543.86955,548.1809 518.1875,513.82045 518.1875,460.4375 524.193,210.20615 549.87505,85.09375 595.25,85.09375 z M 276.96875,458.4375 c 18.01652,0 56.04051,29.00712 114.09375,87.0625 58.7205,57.38218 126.78317,86.09375 204.1875,86.09375 76.73701,0 144.13425,-28.71157 202.1875,-86.09375 58.72052,-58.05538 97.10851,-87.0625 115.125,-87.0625 18.01655,0 27,15.67068 27,47.03125 l 0,186.1875 -689.625,0 0,-186.1875 c 0,-31.36057 9.01474,-47.03125 27.03125,-47.03125 z m 305.28125,286.25 25.03125,0 0,125.25074 c -5.45188,-0.16 -10.88032,-0.25 -16.3125,-0.25 -2.90853,0 -5.81587,0.0479 -8.71875,0.0938 z m 13.65625,185.68834 c 20.59761,0 40.41353,4.199 59.4375,12.5937 20.29219,8.3533 38.20128,19.7062 53.71875,34.0313 15.51759,13.7296 28.04445,30.42956 37.59375,50.12506 7.75874,19.6955 12.21262,40.884 13.40625,63.5624 1.19375,22.6784 -2.36308,43.867 -10.71875,63.5626 -8.95243,19.6954 -20.30416,37.2966 -34.03125,52.8124 -14.3239,16.1172 -31.33594,28.645 -51.03125,37.5938 -19.69537,8.3592 -40.88305,12.8421 -63.5625,13.4375 -1.47205,0.041 -2.94192,0.062 -4.40625,0.062 -20.49908,0 -40.21678,-3.8883 -59.15625,-11.6875 -20.29219,-8.3593 -38.20122,-19.4012 -53.71875,-33.125 -14.92066,-13.7296 -26.86001,-30.4608 -35.8125,-50.1563 -8.35555,-19.6955 -13.11881,-41.1637 -14.3125,-64.4374 0,-22.0831 4.17564,-42.992 12.53125,-62.6876 7.75873,-19.6954 18.49166,-37.29666 32.21875,-52.81246 14.3239,-16.1172 31.33588,-28.0547 51.03125,-35.8126 19.69531,-10.7409 40.60481,-16.3987 62.6875,-17 1.38007,-0.0353 2.75206,-0.0624 4.125,-0.0624 z m 188.34375,41.25 c 32.82563,2.358 88.03733,27.1341 165.625,74.31246 77.5878,46.5477 157.5438,85.0265 239.9062,115.4688 -60.2798,3.596 -125.9148,16.4347 -196.93745,38.5 -71.61944,21.4876 -146.81227,37.6029 -225.59375,48.3438 12.53339,-14.9205 25.06036,-36.1091 37.59375,-63.5626 11.93663,-27.4533 17.90625,-56.7123 17.90625,-87.75 0,-31.627 -5.6915,-61.1657 -17.03125,-88.6251 -5.96829,-13.12826 -13.11314,-25.35116 -21.46875,-36.68736 z m -382.28125,7.1562 c -4.77441,8.9547 -10.12528,18.7904 -16.09375,29.53126 l -15.21875,88.6563 c 0,31.0377 5.07263,59.9858 15.21875,86.8437 10.74288,23.2737 24.16684,44.1515 40.28125,62.6563 -108.02598,-19.6955 -205.30353,-34.3249 -291.84375,-43.875 54.31146,-32.2285 96.96493,-68.0466 128,-107.4375 31.63195,-39.391 78.18294,-78.1748 139.65625,-116.37506 z m 205.3125,339.25006 0,440.0617 -25.03125,0 0,-439.9992 c 3.18915,0.03 6.38782,0.062 9.59375,0.062 5.12347,0 10.27118,-0.049 15.4375,-0.125 z"
     id="path3051"
     inkscape:connector-curvature="0"
     sodipodi:nodetypes="scccssccccccccccccccccccccccccsscccsscccsscscssccsscccsccscccsccccsccccccccsccccccsccccccccccccccsc" />
</svg>
