<?xml version="1.0" encoding="UTF-8" standalone="no"?>
<svg
   xmlns:dc="http://purl.org/dc/elements/1.1/"
   xmlns:cc="http://creativecommons.org/ns#"
   xmlns:rdf="http://www.w3.org/1999/02/22-rdf-syntax-ns#"
   xmlns:svg="http://www.w3.org/2000/svg"
   xmlns="http://www.w3.org/2000/svg"
   xmlns:sodipodi="http://sodipodi.sourceforge.net/DTD/sodipodi-0.dtd"
   xmlns:inkscape="http://www.inkscape.org/namespaces/inkscape"
   width="5.77"
   height="17.98"
   id="svg2434"
   sodipodi:version="0.32"
   inkscape:version="0.46"
   sodipodi:docname="R14.svg"
   inkscape:output_extension="org.inkscape.output.svg.inkscape">
  <metadata
     id="metadata2441">
    <rdf:RDF>
      <cc:Work
         rdf:about="">
        <dc:format>image/svg+xml</dc:format>
        <dc:type
           rdf:resource="http://purl.org/dc/dcmitype/StillImage" />
      </cc:Work>
    </rdf:RDF>
  </metadata>
  <defs
     id="defs2439">
    <inkscape:perspective
       sodipodi:type="inkscape:persp3d"
       inkscape:vp_x="0 : 8.9899998 : 1"
       inkscape:vp_y="0 : 1000 : 0"
       inkscape:vp_z="5.77 : 8.9899998 : 1"
       inkscape:persp3d-origin="2.885 : 5.9933332 : 1"
       id="perspective2443" />
  </defs>
  <sodipodi:namedview
     inkscape:window-height="667"
     inkscape:window-width="640"
     inkscape:pageshadow="2"
     inkscape:pageopacity="0.0"
     guidetolerance="10.0"
     gridtolerance="10.0"
     objecttolerance="10.0"
     borderopacity="1.0"
     bordercolor="#666666"
     pagecolor="#ffffff"
     id="base"
     showgrid="false"
     inkscape:zoom="25.695218"
     inkscape:cx="2.885"
     inkscape:cy="5.8765799"
     inkscape:window-x="110"
     inkscape:window-y="67"
     inkscape:current-layer="svg2434" />
  <path
     style="fill:#000000; stroke:none"
     d="M 1.01,9.21 L 5.24,9.21 C 5.24,8.7433333 5.02,8.31 4.58,7.91 C 4.14,7.51 3.6533333,7.31 3.12,7.31 C 2.5866667,7.31 2.1033333,7.51 1.67,7.91 C 1.23,8.31 1.01,8.7433333 1.01,9.21 z M 5.77,9.51 L 5.77,9.75 L 4.3,9.75 L 4.3,13.49 L 3.56,13.49 L 3.56,9.75 L 2.7,9.75 L 2.7,17.98 L 1.96,17.98 L 1.96,9.75 L 0.48,9.75 L 0.48,9.51 C 0.48,8.7566667 0.7,8.15 1.14,7.69 C 1.5733333,7.23 2.0266667,6.9466667 2.5,6.84 L 0.2,1.73 C -0.013333333,1.27 -0.056666667,0.91666667 0.07,0.67 C 0.20333333,0.43 0.42666667,0.24666667 0.74,0.12 C 1.28,-0.12666667 1.6566667,-0.0033333333 1.87,0.49 C 2.0166667,0.81666667 1.9766667,1.1333333 1.75,1.44 L 3.98,4.53 C 3.3266667,4.9233333 2.9733333,5.29 2.92,5.63 C 2.8733333,5.9766667 2.9433333,6.36 3.13,6.78 L 3.12,6.78 C 3.86,6.78 4.4866667,7.0466667 5,7.58 C 5.5133333,8.1133333 5.77,8.7566667 5.77,9.51 z M 1.27,1.46 C 1.51,1.14 1.58,0.86666667 1.48,0.64 C 1.38,0.42 1.1933333,0.37 0.92,0.49 C 0.5,0.68333333 0.40333333,1.04 0.63,1.56 L 2.4,5.45 C 2.5466667,4.9966667 2.8266667,4.6366667 3.24,4.37 L 1.27,1.46 z"
     id="path2436"
     sodipodi:nodetypes="ccssscccccccccccccsccsssccsccsccsscccc" />
</svg>
