<?xml version="1.0" encoding ="US-ASCII" standalone="yes"?>
<svg width="5.429294" height="17.977417">
<path style="fill:#000000; stroke:none" d=" M 4.328248 5.770998  L 1.006128 5.770998  Q 2.297009 8.485644 2.67668 8.542595  Q 2.9994 8.523612 4.328248 5.770998  Z  M 2.107173 9.131085  Q 1.271898 9.282953 0.863751 9.643641  Q 0.455605 10.004328 0.626457 10.308064  Q 1.082062 10.4979 1.442749 10.11823  Q 1.803437 9.738559 2.107173 9.131085  Z  M 0 5.524211  L 0.626457 5.011656  L 0.759342 3.056351  Q 0.778325 1.461733 1.195963 0.531539  Q 1.328848 0 1.76547 0  Q 2.297009 0 2.67668 0.455605  Q 3.037367 0 3.549923 0  Q 4.005528 0 4.17638 0.531539  Q 4.575034 1.461733 4.613001 3.056351  L 4.726902 5.011656  L 5.315392 5.524211  Q 5.239459 5.922866 4.802837 5.979816  Q 4.214347 7.080862 3.606874 8.599545  Q 4.44215 8.884299 5.429294 9.871444  Q 5.239459 10.061278 5.201491 10.668753  Q 4.897755 10.213147 4.451641 9.85246  Q 4.005528 9.491773 3.398055 9.320921  Q 4.613001 10.156197 4.745886 11.541995  Q 4.252314 11.40911 4.043495 11.769798  Q 4.024511 10.934522 3.644841 10.327048  Q 3.436022 10.061278 3.113301 10.061278  Q 3.246186 13.592218 3.360087 17.977417  L 1.974289 17.977417  Q 2.126157 13.269498 2.221075 10.061278  Q 1.556651 11.048423 0.417638 10.877571  Q -0.075934 10.668753 0.028475 10.108738  Q 0.132885 9.548723 0.455605 9.244987  Q 0.778325 8.94125 1.727503 8.580563  Q 0.987144 7.080862 0.227803 5.979816  Q -0.037967 5.903883 0 5.524211  L 0 5.524211  Z  M 3.625857 0.664424  Q 3.208219 0.417638 2.94245 0.816292  L 2.94245 4.537067  Q 3.379071 4.992672 3.701791 4.859787  Q 4.024511 4.119429 4.024511 2.73363  Q 4.024511 1.556651 3.625857 0.664424  Z  M 2.41091 4.537067  L 2.41091 0.816292  Q 2.145141 0.417638 1.727503 0.664424  Q 1.328848 1.556651 1.328848 2.73363  Q 1.328848 4.119429 1.575634 4.745886  Q 1.955305 4.992672 2.41091 4.537067  Z "/></svg>
