<?xml version="1.0" encoding="UTF-8" standalone="no"?>
<svg
   width="1105.1085"
   height="1803.1426"
   version="1.1"
   id="svg2"
   sodipodi:docname="R18G.svg"
   inkscape:version="1.4 (e7c3feb1, 2024-10-09)"
   xmlns:inkscape="http://www.inkscape.org/namespaces/inkscape"
   xmlns:sodipodi="http://sodipodi.sourceforge.net/DTD/sodipodi-0.dtd"
   xmlns="http://www.w3.org/2000/svg"
   xmlns:svg="http://www.w3.org/2000/svg">
  <defs
     id="defs2" />
  <sodipodi:namedview
     id="namedview2"
     pagecolor="#ffffff"
     bordercolor="#000000"
     borderopacity="0.25"
     inkscape:showpageshadow="2"
     inkscape:pageopacity="0.0"
     inkscape:pagecheckerboard="0"
     inkscape:deskcolor="#d1d1d1"
     inkscape:zoom="0.25"
     inkscape:cx="-192"
     inkscape:cy="848"
     inkscape:window-width="2560"
     inkscape:window-height="1387"
     inkscape:window-x="1440"
     inkscape:window-y="25"
     inkscape:window-maximized="1"
     inkscape:current-layer="svg2" />
  <path
     id="path1"
     style="fill:#000000;stroke:none;stroke-width:81.1643"
     d="m 572.30572,0 c -33.8487,0 -51.8649,27.570153 -54.0488,82.710937 l -34.3945,467.603513 -5.7324,97.45312 c -85.168,-1.63782 -132.9395,-14.4685 -143.3125,-38.49023 -10.9191,-24.02171 6.5524,-76.70645 52.4121,-158.05274 46.4057,-81.34631 58.9619,-143.58296 37.6699,-186.71289 -21.292,-42.58395 -49.409,-67.15173 -84.3496,-73.70312 -20.6369,-3.93085 -39.7995,-5.89649 -57.4883,-5.89649 -11.7925,0 -22.9299,0.87405 -33.4121,2.6211 -4.169,-0.19859 -8.2198,-0.29883 -12.1543,-0.29883 -17.7048,0 -33.0344,2.01108 -45.9883,6.03125 -15.2865,4.9136 -27.0256,12.28232 -35.2148,22.10938 -8.1891,9.28111 -11.1915,18.83502 -9.0078,28.6621 2.1838,19.65414 11.4652,31.93803 27.8437,36.85157 15.8325,4.91353 29.7547,7.37109 41.7656,7.37109 -19.1081,34.94067 -28.3896,94.17693 -27.8437,177.70703 0.5461,83.53009 13.9214,151.2267 40.1269,203.0918 26.7513,52.41105 108.6427,81.34719 245.6758,86.80664 l -6.5508,61.41797 h 143.3125 l -18.0175,589.625 c 0,5.2733 0.437,10.0414 1.1035,14.543 h -390.5645 c -37.2621,-45.7675 -56.2975,-91.5351 -57.1074,-137.3027 -0.4051,-45.7675 -25.314,-68.6524 -74.726597,-68.6524 -48.6027,0 -72.70190023,27.1372 -72.29680023,81.4102 0.4048,54.273 21.26360023,97.8123 62.57610023,130.6191 40.907197,32.8068 88.091797,49.2109 141.554697,49.2109 h 189.5508 c 60.7534,86.6747 132.6443,151.073 215.6738,193.1954 v 133.2109 h 69.2598 V 1693.625 c 16.2384,6.0894 33.4974,9.1348 51.7773,9.1348 43.7283,0 93.2981,-17.4236 148.709,-52.2696 78.5742,-49.8178 83.2315,-107.7353 13.9727,-173.7539 h 212.02928 v -55.2851 H 688.25112 c 0.7015,-4.5015 1.1601,-9.2697 1.1601,-14.543 l -18.0156,-589.625 h 143.3105 l -3.2754,-61.41797 c 6.4149,-1.50138 12.5985,-2.25195 18.5528,-2.25195 41.6797,0 72.0754,36.78308 91.1836,110.34961 22.3839,84.07611 27.8419,167.87811 16.3769,251.40821 -11.4648,83.53 13.4295,74.9978 51.5938,116.2149 6.5514,4.2996 11.95108,6.4492 16.19918,6.4492 3.1926,-47.2448 -2.6683,-116.5421 12.4629,-175.0742 23.4757,-93.90313 22.9289,-188.89756 -1.6387,-284.98444 -22.75748,-89.00682 -84.86408,-133.51172 -186.32218,-133.51172 -8.0706,0 -16.3905,0.28252 -24.959,0.8457 l -6.5528,-94.99609 -35.2129,-467.603513 C 760.93052,27.570153 739.09272,0 697.60072,0 665.93562,0 646.82792,12.00952 640.27652,36.03125 630.44942,12.00952 607.79232,0 572.30572,0 Z m 9.8262,32.755859 c 21.8381,0 34.3944,16.65223 37.6699,49.955078 V 286.62109 c -38.2164,8.73518 -58.9606,35.21377 -62.2363,79.43555 1.0919,19.65416 5.4582,36.03396 13.1016,49.13672 -8.7353,3.27568 -21.8382,9.82722 -39.3086,19.65429 l 18.0176,-352.136713 c 0,-33.302848 10.9179,-49.955078 32.7558,-49.955078 z m 117.1074,0 c 21.8377,0 32.7559,16.65223 32.7559,49.955078 l 18.0156,350.498043 c -16.3784,-8.73517 -28.388,-14.19513 -36.0312,-16.37891 6.5513,-13.10278 10.3729,-30.02738 11.4648,-50.77343 -1.0919,-44.22178 -22.3848,-70.70037 -63.8769,-79.43555 V 82.710937 c 2.1837,-33.302848 14.7418,-49.955078 37.6718,-49.955078 z M 214.90342,213.17968 c 7.977,0 15.1925,2.09715 21.6445,6.29102 18.5149,-4.01152 35.9825,-6.01758 52.4043,-6.01758 12.6321,0 24.6454,1.18689 36.0391,3.56055 25.6595,6.00543 46.1313,26.75163 61.418,62.23828 15.2865,35.48665 1.911,90.35454 -40.127,164.60351 -41.4921,74.24898 -58.1423,133.48328 -49.9531,177.70508 8.1893,43.67587 68.2428,65.51367 180.1621,65.51367 l -1.6387,27.84375 c -117.3789,0 -188.0779,-24.02102 -212.0996,-72.06445 -24.0217,-48.58938 -36.0332,-107.55128 -36.0332,-176.88672 0,-71.51922 6.0047,-119.01835 18.0156,-142.49414 12.0108,-23.47577 24.0223,-39.85363 36.0332,-49.13476 12.0109,-9.28112 29.4823,-15.01348 52.4121,-17.19727 10.3731,-7.6433 10.373,-14.19483 0,-19.6543 -5.5069,-0.75958 -11.0479,-1.13867 -16.621,-1.13867 -26.4717,0 -53.6883,8.56899 -81.6504,25.70703 -3.8215,-0.54597 -8.2566,-0.81836 -13.3067,-0.81836 -5.0499,0 -10.7156,0.27239 -16.9941,0.81836 -0.8007,0.073 -1.5918,0.10938 -2.3731,0.10938 -10.9384,0 -19.9738,-7.13295 -27.1074,-21.40039 0,-10.91897 7.3707,-19.10889 22.1113,-24.56836 6.2536,-2.0101 12.1414,-3.01563 17.6641,-3.01563 z m -13.7519,7.38282 c -1.8804,0 -3.731,0.18273 -5.5508,0.54687 -8.1892,5.45949 -10.6449,10.91743 -7.3692,16.37695 2.1838,3.27567 6.8226,4.91407 13.92,4.91407 7.6433,0 12.8308,-2.72997 15.5605,-8.18946 2.73,-5.45967 1.0914,-9.28104 -4.9141,-11.46484 -4.0037,-1.45587 -7.8854,-2.1836 -11.6464,-2.18359 z m 439.33,93.08398 c 8.5987,0 17.2649,1.36398 26,4.09375 17.4704,6.55137 26.7519,22.65687 27.8438,48.31641 -2.1838,36.03261 -20.2,55.68719 -54.0488,58.96289 -33.3028,-3.2757 -50.4999,-22.93028 -51.5918,-58.96289 1.0919,-24.56766 9.8265,-40.67314 26.205,-48.31641 8.4622,-2.72976 16.9932,-4.09375 25.5918,-4.09375 z m -0.205,139.2168 c 67.6977,0 103.7301,31.39172 108.0976,94.17578 l 16.3789,220.29101 h -244.8594 l 14.7422,-220.29101 c 4.3675,-62.78406 39.581,-94.17578 105.6407,-94.17578 z m 188.9707,233.2832 c 83.2905,0 135.2225,39.89083 155.7949,119.67188 22.38388,86.80583 16.10468,202.54644 -18.836,347.22264 17.4704,-123.9303 14.7424,-230.11692 -8.1875,-318.56054 -21.1058,-81.40829 -64.6462,-122.11132 -130.6191,-122.11132 -5.7013,0 -11.5708,0.30413 -17.6074,0.91211 l -3.2754,-26.20704 c 7.8199,-0.61854 15.3968,-0.92773 22.7305,-0.92773 z M 73.516723,1253.1641 c 21.4661,0 32.199197,16.6064 32.199197,49.8183 0,33.2118 21.0613,77.5609 63.1836,133.0489 -46.5775,-14.9858 -79.790597,-32.6043 -99.636697,-52.8555 -19.441,-20.251 -28.9579,-46.9816 -28.5528,-80.1934 0.4049,-33.2119 11.3405,-49.8183 32.8067,-49.8183 z m 421.019497,223.5722 h 114.8242 v 113.6094 c -39.2871,-19.8461 -77.5622,-57.7163 -114.8242,-113.6094 z m 139.127,0 h 19.4394 v 137.3028 l -19.4394,-12.7578 z m 44.957,0 h 86.877 c 113.8112,70.8789 154.7174,122.3156 122.7207,154.3125 -15.0437,14.6675 -38.162,22.002 -69.3575,22.002 -35.9947,0 -82.7415,-9.7631 -140.2402,-29.291 z m -44.957,201.7012 19.4394,8.5059 v 80.9609 h -19.4394 z" />
</svg>
