<?xml version="1.0" encoding="UTF-8" standalone="no"?>
<svg
   xmlns:dc="http://purl.org/dc/elements/1.1/"
   xmlns:cc="http://creativecommons.org/ns#"
   xmlns:rdf="http://www.w3.org/1999/02/22-rdf-syntax-ns#"
   xmlns:svg="http://www.w3.org/2000/svg"
   xmlns="http://www.w3.org/2000/svg"
   xmlns:sodipodi="http://sodipodi.sourceforge.net/DTD/sodipodi-0.dtd"
   xmlns:inkscape="http://www.inkscape.org/namespaces/inkscape"
   width="16"
   height="20.753666"
   id="svg2695"
   sodipodi:version="0.32"
   inkscape:version="0.46"
   sodipodi:docname="R19A.svg"
   inkscape:output_extension="org.inkscape.output.svg.inkscape"
   version="1.0">
  <metadata
     id="metadata2702">
    <rdf:RDF>
      <cc:Work
         rdf:about="">
        <dc:format>image/svg+xml</dc:format>
        <dc:type
           rdf:resource="http://purl.org/dc/dcmitype/StillImage" />
      </cc:Work>
    </rdf:RDF>
  </metadata>
  <defs
     id="defs2700">
    <inkscape:perspective
       sodipodi:type="inkscape:persp3d"
       inkscape:vp_x="0 : 8.9916086 : 1"
       inkscape:vp_y="0 : 1000 : 0"
       inkscape:vp_z="21.007101 : 8.9916086 : 1"
       inkscape:persp3d-origin="10.503551 : 5.9944057 : 1"
       id="perspective2704" />
  </defs>
  <sodipodi:namedview
     inkscape:window-height="712"
     inkscape:window-width="1024"
     inkscape:pageshadow="2"
     inkscape:pageopacity="0.0"
     guidetolerance="10.0"
     gridtolerance="10.0"
     objecttolerance="10.0"
     borderopacity="1.0"
     bordercolor="#666666"
     pagecolor="#ffffff"
     id="base"
     showgrid="false"
     inkscape:zoom="85.691676"
     inkscape:cx="10.859302"
     inkscape:cy="17.839857"
     inkscape:window-x="-4"
     inkscape:window-y="-4"
     inkscape:current-layer="svg2695" />
  <path
     style="fill:#000000;stroke:none"
     d="M 9.1645526,0.12905796 L 7.1491236,2.4415579 C 6.7229428,2.3759035 6.548021,2.2413415 6.3125,1.8474159 C 6.4695139,1.6613955 6.7492871,1.3741288 7.125,1.0349159 C 7.5007118,0.69570222 7.6297916,0.48809002 7.5625,0.37866592 C 7.4503471,0.14887632 7.0679519,0.30966292 6.40625,0.87866592 C 5.9015623,1.2288219 5.5215625,1.5348183 5.21875,1.7536659 C 5.0617361,1.8959167 4.9134378,2.1167887 4.8125,2.4724159 C 4.7115627,2.8280432 4.5768752,3.208962 4.375,3.5974159 C 4.1731249,3.9858703 4.0825346,4.2848183 4.09375,4.5036659 C 4.1498267,4.7772251 4.2668755,4.7772251 4.46875,4.5036659 C 4.6145491,4.2629335 4.7981256,3.9975522 5,3.6911659 C 5.2018752,3.3847796 5.4471873,3.1100332 5.75,2.8474159 C 5.9630905,2.7051651 6.1530899,2.5989932 6.34375,2.5661659 C 6.5568405,2.6427628 6.7315973,2.8160683 6.84375,3.0349159 L 6.84375,12.066166 C 6.1820482,12.241244 5.8349307,12.679931 5.8125,13.347416 C 5.7788541,13.59909 5.8405902,13.978432 6.03125,14.503666 C 6.0817187,14.647285 6.1664111,14.567654 6.25,14.657416 L 0,14.657416 L 0,15.503666 L 0.23875,15.503666 L 0.73875,16.628666 L 2.70125,16.628666 L 3.20125,15.503666 L 7.96875,15.503666 L 12.21875,19.034916 L 12.21875,20.753666 L 13.02,20.753666 L 13.02,15.503666 L 16,15.503666 L 16,14.657416 L 8.03125,14.657416 C 8.1090762,14.568676 8.1737505,14.643361 8.21875,14.503666 C 8.4094098,13.978432 8.4823608,13.59909 8.4375,13.347416 C 8.4487151,12.679931 8.1015974,12.241243 7.40625,12.066166 L 7.40625,6.8786659 C 7.7539238,6.637934 8.2204858,6.4865127 8.78125,6.4099159 C 8.5569442,5.2937939 8.3124483,4.5444764 8.09375,4.1286659 C 7.8750521,3.712856 8.13159,3.5114544 8.6362777,3.5661659 C 8.630061,3.0868835 8.1225001,2.6463086 7.71875,2.5040579 L 7.71875,2.5036659 C 7.9654859,2.4817811 8.3213404,2.6463018 8.6129382,2.8432646 L 9.6604013,1.1166041 C 9.8847063,1.1932004 10.141059,1.0389074 10.28125,0.84741592 C 10.421441,0.65592422 10.415834,0.49671452 10.28125,0.31616592 C 9.9831506,-0.26329637 9.3740654,-0.039836623 9.1645526,0.12905796 z M 9.594142,0.31992515 C 9.689471,0.29256915 9.765634,0.28162665 9.844142,0.31992515 C 9.922648,0.35822295 9.951317,0.37940562 9.984963,0.47241592 C 10.018609,0.56542592 10.018609,0.63645382 9.984963,0.69116592 C 9.906456,0.77870452 9.81347,0.84194452 9.734963,0.84741592 C 9.656456,0.85288692 9.63258,0.88400185 9.531642,0.85117515 C 9.464351,0.91682905 9.464722,0.93643412 9.375,1.0349159 C 9.2628471,1.1771666 9.1281599,1.4160295 8.9375,1.7224159 C 8.7244092,2.0616296 8.5384371,2.2989151 8.4375,2.4411659 C 8.2019783,2.3098575 8.0320137,2.2536659 7.875,2.2536659 C 8.5815626,1.4001607 9.0112676,0.84751362 9.21875,0.62866592 C 9.426232,0.40981882 9.498811,0.34728125 9.594142,0.31992515 z M 7.53125,2.7536659 C 7.8452778,2.9068591 8.0264584,3.03955 8.09375,3.1599159 C 8.1610419,3.2802819 8.1810755,3.3474159 8.125,3.3474159 C 8.0689231,3.3474159 7.9847564,3.3755114 7.90625,3.4411659 C 7.8501731,3.244203 7.7331251,3.0162826 7.53125,2.7536659 z M 7.40625,3.2224159 L 8.15625,5.9411659 C 7.9207283,5.9411659 7.6642008,6.0160877 7.40625,6.1911659 L 7.40625,3.2224159 z M 7.09375,12.597416 C 7.5535758,12.597416 7.8213194,12.844067 7.84375,13.347416 C 7.84375,13.571126 7.7173398,13.914956 7.53125,14.657416 L 6.75,14.657416 C 6.555048,13.914956 6.4375001,13.571126 6.4375,13.347416 C 6.4599306,12.844067 6.6675694,12.597416 7.09375,12.597416 z M 0.96875,15.503666 L 2.53125,15.503666 L 2.3125,16.034916 L 1.1875,16.034916 L 0.96875,15.503666 z M 8.8125,15.503666 L 12.21875,15.503666 L 12.21875,18.347416 L 8.8125,15.503666 z"
     id="path2697"
     sodipodi:nodetypes="cccsscsssssscccccscccccccccccccccsccccscccccscccsssssssccsccsscccccccsccscccccccccc" />
</svg>
