<?xml version="1.0" encoding="UTF-8" standalone="no"?>
<svg
   xmlns:dc="http://purl.org/dc/elements/1.1/"
   xmlns:cc="http://web.resource.org/cc/"
   xmlns:rdf="http://www.w3.org/1999/02/22-rdf-syntax-ns#"
   xmlns:svg="http://www.w3.org/2000/svg"
   xmlns="http://www.w3.org/2000/svg"
   xmlns:sodipodi="http://inkscape.sourceforge.net/DTD/sodipodi-0.dtd"
   xmlns:inkscape="http://www.inkscape.org/namespaces/inkscape"
   width="11.964531"
   height="17.977417"
   id="svg2475"
   sodipodi:version="0.32"
   inkscape:version="0.43"
   sodipodi:docname="US22R20A.svg"
   sodipodi:docbase="C:\Program Files\JSesh\fonts\envoi23_SR">
  <metadata
     id="metadata2482">
    <rdf:RDF>
      <cc:Work
         rdf:about="">
        <dc:format>image/svg+xml</dc:format>
        <dc:type
           rdf:resource="http://purl.org/dc/dcmitype/StillImage" />
        <dc:title>US22R20A</dc:title>
        <dc:date>02/03/06</dc:date>
        <dc:creator>
          <cc:Agent>
            <dc:title>SR &amp; ST</dc:title>
          </cc:Agent>
        </dc:creator>
        <dc:publisher>
          <cc:Agent>
            <dc:title>Serge Rosmorduc</dc:title>
          </cc:Agent>
        </dc:publisher>
        <dc:description>optimisation du signe R20 de Jsesh</dc:description>
        <cc:license
           rdf:resource="http://creativecommons.org/licenses/GPL/2.0/" />
      </cc:Work>
      <cc:License
         rdf:about="http://creativecommons.org/licenses/GPL/2.0/">
        <cc:permits
           rdf:resource="http://web.resource.org/cc/Reproduction" />
        <cc:permits
           rdf:resource="http://web.resource.org/cc/Distribution" />
        <cc:requires
           rdf:resource="http://web.resource.org/cc/Notice" />
        <cc:permits
           rdf:resource="http://web.resource.org/cc/DerivativeWorks" />
        <cc:requires
           rdf:resource="http://web.resource.org/cc/ShareAlike" />
        <cc:requires
           rdf:resource="http://web.resource.org/cc/SourceCode" />
      </cc:License>
    </rdf:RDF>
  </metadata>
  <defs
     id="defs2480" />
  <sodipodi:namedview
     inkscape:window-height="542"
     inkscape:window-width="811"
     inkscape:pageshadow="2"
     inkscape:pageopacity="0.0"
     borderopacity="1.0"
     bordercolor="#666666"
     pagecolor="#ffffff"
     id="base"
     inkscape:zoom="20.748253"
     inkscape:cx="5.9822655"
     inkscape:cy="8.9887085"
     inkscape:window-x="97"
     inkscape:window-y="79"
     inkscape:current-layer="svg2475" />
  <path
     style="fill:#000000; stroke:none"
     d=" M 6.002263 17.977417  Q 6.302219 17.95742 6.582179 17.617468  Q 6.622173 16.837582 6.402205 15.477777  L 6.402205 10.538486  Q 6.402205 8.898722 6.562182 7.938859  Q 6.622173 7.638903 8.581892 9.218676  Q 9.08182 9.418647 8.881849 8.918718  Q 7.282079 6.939003 7.362067 6.88901  Q 7.442056 6.839017 9.801717 6.559058  Q 10.281648 6.339089 9.801717 6.139118  L 7.462053 5.899152  Q 7.322073 5.739175 8.881849 3.779457  Q 9.08182 3.279529 8.581892 3.4795  Q 6.622173 5.07927 6.462196 4.919293  L 6.222231 2.559632  Q 6.02226 2.059704 5.782294 2.559632  L 5.562326 4.919293  Q 5.402349 5.07927 3.422633 3.4795  Q 2.942702 3.279529 3.122676 3.779457  Q 4.702449 5.739175 4.542472 5.899152  L 2.222806 6.139118  Q 1.722878 6.339089 2.222806 6.559058  Q 4.582467 6.839017 4.662455 6.88901  Q 4.742444 6.939003 3.142673 8.918718  Q 2.942702 9.418647 3.44263 9.218676  Q 5.402349 7.638903 5.442343 7.938859  Q 5.622317 8.898722 5.622317 10.538486  L 5.622317 15.477777  Q 5.402349 16.837582 5.442343 17.617468  Q 5.722303 17.95742 6.002263 17.977417  L 6.002263 17.977417  Z  M 6.02226 7.258957  Q 5.642314 7.258957 5.362355 7.008993  Q 5.082395 6.759029 5.062397 6.359087  Q 5.082395 5.919149 5.362355 5.689183  Q 5.642314 5.459216 6.002263 5.459216  Q 6.382208 5.459216 6.662168 5.689183  Q 6.942128 5.919149 6.962125 6.359087  Q 6.942128 6.759029 6.662168 7.008993  Q 6.382208 7.258957 6.02226 7.258957  Z  M 5.982265 1.279816  Q 7.082108 2.099698 8.481906 2.709611  Q 9.881705 3.319523 10.191661 5.339233  Q 10.501616 7.358943 11.761436 9.198678  Q 12.061392 8.998707 11.921412 8.538774  Q 11.541467 7.778883 11.191517 5.959144  Q 10.841567 4.139405 10.601602 3.519494  Q 10.061679 2.279672 9.181806 1.969717  Q 8.301932 1.659762 6.862139 0.799885  L 6.862139 0  L 5.102392 0  L 5.102392 0.819882  Q 3.662599 1.679759 2.782725 1.979716  Q 1.902852 2.279672 1.382926 3.519494  Q 1.122964 4.159402 0.773014 5.969142  Q 0.423064 7.778883 0.043119 8.55877  Q -0.096861 9.018704 0.203096 9.198678  Q 1.462915 7.358943 1.77287 5.349231  Q 2.082826 3.33952 3.482625 2.729608  Q 4.882423 2.119695 5.982265 1.279816  L 5.982265 1.279816  Z "
     id="path2477" />
</svg>
