<?xml version="1.0" encoding="UTF-8" standalone="no"?>
<svg
   xmlns:dc="http://purl.org/dc/elements/1.1/"
   xmlns:cc="http://web.resource.org/cc/"
   xmlns:rdf="http://www.w3.org/1999/02/22-rdf-syntax-ns#"
   xmlns:svg="http://www.w3.org/2000/svg"
   xmlns="http://www.w3.org/2000/svg"
   xmlns:sodipodi="http://inkscape.sourceforge.net/DTD/sodipodi-0.dtd"
   xmlns:inkscape="http://www.inkscape.org/namespaces/inkscape"
   width="16.032946"
   height="6.24"
   id="svg1389"
   sodipodi:version="0.32"
   inkscape:version="0.43"
   sodipodi:docname="US22R24.svg"
   sodipodi:docbase="C:\Program Files\JSesh\fonts\transmis à Serge Rosmorduc\envoi13_SR">
  <metadata
     id="metadata1396">
    <rdf:RDF>
      <cc:Work
         rdf:about="">
        <dc:format>image/svg+xml</dc:format>
        <dc:type
           rdf:resource="http://purl.org/dc/dcmitype/StillImage" />
        <dc:title>US22R24</dc:title>
        <dc:date>7/01/2006</dc:date>
        <dc:creator>
          <cc:Agent>
            <dc:title>Serge Thomas</dc:title>
          </cc:Agent>
        </dc:creator>
        <dc:publisher>
          <cc:Agent>
            <dc:title>Serge Rosmorduc</dc:title>
          </cc:Agent>
        </dc:publisher>
        <dc:identifier>US22</dc:identifier>
        <dc:description>optimisation simple du signe R24</dc:description>
        <cc:license
           rdf:resource="http://creativecommons.org/licenses/GPL/2.0/" />
      </cc:Work>
      <cc:License
         rdf:about="http://creativecommons.org/licenses/GPL/2.0/">
        <cc:permits
           rdf:resource="http://web.resource.org/cc/Reproduction" />
        <cc:permits
           rdf:resource="http://web.resource.org/cc/Distribution" />
        <cc:requires
           rdf:resource="http://web.resource.org/cc/Notice" />
        <cc:permits
           rdf:resource="http://web.resource.org/cc/DerivativeWorks" />
        <cc:requires
           rdf:resource="http://web.resource.org/cc/ShareAlike" />
        <cc:requires
           rdf:resource="http://web.resource.org/cc/SourceCode" />
      </cc:License>
    </rdf:RDF>
  </metadata>
  <defs
     id="defs1394" />
  <sodipodi:namedview
     inkscape:window-height="542"
     inkscape:window-width="811"
     inkscape:pageshadow="2"
     inkscape:pageopacity="0.0"
     borderopacity="1.0"
     bordercolor="#666666"
     pagecolor="#ffffff"
     id="base"
     inkscape:zoom="44.907531"
     inkscape:cx="8.0164728"
     inkscape:cy="3.1199999"
     inkscape:window-x="132"
     inkscape:window-y="174"
     inkscape:current-layer="svg1389" />
  <path
     style="fill:#000000; stroke:none"
     d=" M 4.27433 1.838571  Q 3.122902 2.08 3.122902 3.12  Q 3.122902 4.159999 4.27433 4.327142  L 11.740044 4.327142  Q 12.910045 4.159999 12.910045 3.12  Q 12.910045 2.08 11.740044 1.838571  L 4.27433 1.838571  Z  M 4.515759 4.939999  Q 2.788616 5.032857 2.510044 3.491429  Q 0.690045 3.9 0.690045 6.017142  Q 0.541473 6.24 0.37433 6.24  Q 0.170045 6.24 0.021473 5.849999  Q -0.071384 5.07 0.235045 4.317856  Q 0.541473 3.565714 1.340044 3.12  Q 0.541473 2.655714 0.235045 1.912857  Q -0.071384 1.17 0.021473 0.39  Q 0.170045 0 0.37433 0  Q 0.541473 0 0.690045 0.222857  Q 0.690045 2.339999 2.510044 2.748571  Q 2.788616 1.207143 4.515759 1.225714  L 11.498614 1.225714  Q 13.24433 1.207143 13.522902 2.748571  Q 15.3429 2.339999 15.3429 0.222857  Q 15.491472 0 15.658616 0  Q 15.844329 0 15.992901 0.39  Q 16.104328 1.17 15.7979 1.912857  Q 15.491472 2.655714 14.674329 3.12  Q 15.491472 3.565714 15.7979 4.317856  Q 16.104328 5.07 16.011473 5.849999  Q 15.844329 6.24 15.658616 6.24  Q 15.491472 6.24 15.3429 6.017142  Q 15.3429 3.9 13.522902 3.491429  Q 13.24433 5.032857 11.498614 4.939999  L 4.515759 4.939999  Z "
     id="path1391" />
</svg>
