<?xml version="1.0" encoding ="US-ASCII" standalone="yes"?>
<svg width="19.782011" height="17.977417">
<path style="fill:#000000; stroke:none" d=" M 9.868163 2.69547  Q 9.137188 2.69547 9.045815 4.808445  Q 8.954444 6.92142 9.525518 11.055997  L 10.210808 11.055997  Q 10.804725 6.92142 10.701931 4.808445  Q 10.599138 2.69547 9.868163 2.69547  Z  M 17.840359 14.208327  L 17.406343 11.741286  L 10.873254 11.741286  Q 10.896096 12.951963 11.741286 14.208327  L 17.840359 14.208327  Z  M 10.599138 14.208327  Q 10.302179 12.974807 10.210808 11.741286  L 9.525518 11.741286  Q 9.456989 12.974807 9.137188 14.208327  L 10.599138 14.208327  Z  M 8.885915 11.741286  L 2.444198 11.741286  L 1.964495 14.208327  L 7.995039 14.208327  Q 8.840229 12.951963 8.885915 11.741286  Z  M 2.741156 9.137188  Q 2.718313 9.936691 3.277966 10.473501  Q 3.837619 11.010311 4.637123 11.010311  Q 5.45947 11.010311 5.973436 10.427815  Q 6.487403 9.84532 6.487403 9.114345  Q 6.441718 8.406213 5.973436 7.857982  Q 5.505156 7.30975 4.637123 7.286907  Q 3.746247 7.286907 3.243702 7.84656  Q 2.741156 8.406213 2.741156 9.137188  Z  M 13.614409 11.055997  Q 12.76922 10.302179 12.76922 9.228559  Q 12.746377 7.035635 13.420244 6.281816  Q 14.094112 5.527998 15.07636 5.527998  Q 15.990079 5.527998 16.652525 6.327503  Q 17.31497 7.127007 17.337814 9.16003  Q 17.337814 10.096593 16.469782 11.055997  L 18.38859 11.055997  L 19.782011 17.977417  L 18.571335 17.977417  L 17.977417 14.870773  L 1.895966 14.870773  L 1.256363 17.977417  L 0 17.977417  L 1.370578 11.055997  L 2.878214 11.055997  Q 2.07871 10.302179 2.07871 9.228559  Q 2.055867 8.200626 2.729735 7.446808  Q 3.403602 6.69299 4.637123 6.69299  Q 5.802114 6.69299 6.464561 7.492494  Q 7.127007 8.291998 7.127007 9.16003  Q 7.127007 10.096593 6.258974 11.055997  L 8.885915 11.055997  Q 8.748857 9.411304 8.406213 7.778031  Q 8.063568 6.144759 8.109254 4.637123  Q 8.15494 3.129487 8.908758 2.467041  Q 9.342774 2.147239 9.411304 1.005091  L 7.720924 0.38833  Q 7.446808 0.182744 7.720924 0  L 12.061088 0  Q 12.312361 0.182744 12.038245 0.38833  L 10.347865 1.005091  Q 10.416394 2.147239 10.85041 2.467041  Q 11.604229 3.129487 11.638493 4.637123  Q 11.672757 6.144759 11.330112 7.778031  Q 10.987469 9.411304 10.873254 11.055997  L 13.614409 11.055997  Z  M 13.431666 9.137188  Q 13.431666 9.936691 13.979897 10.473501  Q 14.528129 11.010311 15.07636 11.010311  Q 15.647434 11.010311 16.161402 10.427815  Q 16.675367 9.84532 16.675367 9.114345  Q 16.629683 7.241221 16.161402 6.69299  Q 15.69312 6.144759 15.07636 6.121916  Q 14.436757 6.121916 13.934212 6.670147  Q 13.431666 7.218379 13.431666 9.137188  Z "/></svg>
