<?xml version="1.0" encoding="UTF-8" standalone="no"?>
<svg
   xmlns:dc="http://purl.org/dc/elements/1.1/"
   xmlns:cc="http://creativecommons.org/ns#"
   xmlns:rdf="http://www.w3.org/1999/02/22-rdf-syntax-ns#"
   xmlns:svg="http://www.w3.org/2000/svg"
   xmlns="http://www.w3.org/2000/svg"
   xmlns:sodipodi="http://sodipodi.sourceforge.net/DTD/sodipodi-0.dtd"
   xmlns:inkscape="http://www.inkscape.org/namespaces/inkscape"
   width="1800"
   height="1800"
   id="svg2467"
   sodipodi:version="0.32"
   inkscape:version="0.46"
   sodipodi:docname="R3A.svg"
   inkscape:output_extension="org.inkscape.output.svg.inkscape"
   version="1.0">
  <metadata
     id="metadata2474">
    <rdf:RDF>
      <cc:Work
         rdf:about="">
        <dc:format>image/svg+xml</dc:format>
        <dc:type
           rdf:resource="http://purl.org/dc/dcmitype/StillImage" />
      </cc:Work>
    </rdf:RDF>
  </metadata>
  <defs
     id="defs2472">
    <inkscape:perspective
       sodipodi:type="inkscape:persp3d"
       inkscape:vp_x="0 : 8.9916086 : 1"
       inkscape:vp_y="0 : 1000 : 0"
       inkscape:vp_z="14.475574 : 8.9916086 : 1"
       inkscape:persp3d-origin="7.2377868 : 5.9944057 : 1"
       id="perspective2476" />
  </defs>
  <sodipodi:namedview
     inkscape:window-height="712"
     inkscape:window-width="1024"
     inkscape:pageshadow="2"
     inkscape:pageopacity="0.0"
     guidetolerance="10.0"
     gridtolerance="10.0"
     objecttolerance="10.0"
     borderopacity="1.0"
     bordercolor="#666666"
     pagecolor="#ffffff"
     id="base"
     showgrid="false"
     showguides="true"
     inkscape:guide-bbox="true"
     inkscape:zoom="0.28277778"
     inkscape:cx="900"
     inkscape:cy="1156.2449"
     inkscape:window-x="0"
     inkscape:window-y="22"
     inkscape:current-layer="svg2467" />
  <path
     style="fill:#000000;stroke:none"
     d="M 992.18595,0.37960585 C 936.20357,0.37960585 899.81133,33.100376 882.31688,99.477197 C 867.24383,156.66665 860.70595,215.69072 858.61961,273.97513 C 855.39011,216.40396 847.65996,158.13387 832.76809,101.63149 C 815.27361,35.254669 779.63605,2.5338735 725.05332,2.5339015 C 669.07095,2.5339015 632.67874,35.254669 615.18426,101.63149 C 601.40872,153.89804 594.41538,207.86826 591.48699,261.04934 C 587.68729,207.8995 581.55729,156.02213 567.78974,103.78578 C 550.29529,37.408955 514.65778,4.6882168 460.07496,4.6881961 C 404.09264,4.6881961 365.54611,37.408955 348.0516,103.78578 C 341.79276,127.53282 339.14552,150.94173 335.12585,174.87753 C 335.50157,170.41189 335.12585,166.48366 335.12585,161.95176 C 334.34346,124.76691 320.20444,87.935735 292.03995,54.236987 C 263.87536,20.538254 224.40629,4.6881681 173.55369,4.6881961 C 121.13637,4.6881961 81.468841,20.320667 52.913147,52.082689 C 24.357421,83.84475 9.8272387,120.72378 9.8272387,164.10606 C 9.8272387,209.8124 24.754284,248.07105 57.221742,278.28371 C 67.051338,287.43068 78.595085,293.44896 89.536174,299.82668 C 74.936399,307.35776 61.794715,317.71181 50.75885,329.98681 C 22.203135,361.74888 7.6729412,398.62787 7.6729412,442.01018 C 7.6729412,487.71649 24.754284,525.97515 57.221742,556.18782 C 60.074698,558.84264 62.892333,560.22916 65.838921,562.65071 L -3.0985359,562.65071 L -3.0985359,631.58816 C 94.259773,676.10006 143.39356,729.39998 143.39356,793.16032 L 117.54201,793.16032 C 104.02004,793.16032 95.999055,808.92639 95.999055,838.40053 C 95.999055,867.87466 104.02004,881.48644 117.54201,881.48644 L 154.16503,881.48644 L 39.987373,1799.2162 L 39.987373,1801.3706 L 210.17671,1801.3706 L 216.6396,1723.8159 L 916.78561,1723.8159 L 927.55709,1801.3706 L 1097.7463,1801.3706 L 1097.7463,1799.2162 L 983.56877,881.48644 L 1022.3461,881.48644 C 1034.516,881.48644 1041.0586,867.87466 1041.7348,838.40053 C 1042.4107,808.92639 1035.8682,793.16032 1022.3461,793.16032 L 996.49453,793.16032 C 996.49453,729.39998 1044.8262,676.10006 1140.8323,631.58816 L 1140.8323,562.65071 L 1071.8949,562.65071 C 1083.868,547.19655 1095.4187,529.3842 1102.0551,504.48473 C 1119.5496,438.8454 1128.6612,371.30787 1130.0608,301.98095 C 1128.6612,234.12909 1119.5496,165.85407 1102.0551,99.477197 C 1084.5606,33.100369 1046.7687,0.37961206 992.18595,0.37960585 z M 175.70798,47.774104 C 214.04299,47.774104 241.92993,60.769249 261.87981,84.397124 C 281.82972,108.02498 292.62956,133.89336 294.19423,164.10606 C 294.19423,195.09337 283.78555,223.72097 261.87981,248.12358 C 244.0908,267.94012 221.65629,278.86817 195.09664,282.5923 C 187.48601,281.71593 179.60002,280.43802 171.39939,280.43802 C 164.46706,280.43802 158.52569,282.03678 152.01073,282.5923 C 128.24689,278.37995 107.13898,267.12723 89.536174,250.27788 C 66.065704,227.81203 55.067444,200.34643 55.067444,166.26035 C 55.067444,134.49828 65.867305,107.63763 87.381876,84.397124 C 108.89645,61.156601 138.15525,47.774104 175.70798,47.774104 z M 992.18595,47.774104 C 1035.5723,47.774104 1065.117,113.21556 1080.5121,245.96928 C 1063.7175,206.14317 1034.1727,185.64902 992.18595,185.64901 C 948.79962,185.64901 919.25495,206.14316 903.85982,245.96928 C 917.85539,113.21558 947.40005,47.774093 992.18595,47.774104 z M 460.07496,49.928391 C 503.46132,49.928391 530.85165,117.52416 546.24679,250.27788 C 529.45209,210.45177 502.06175,189.9576 460.07496,189.9576 C 416.68864,189.9576 387.14404,210.45177 371.74887,250.27788 C 385.74446,117.52416 415.2891,49.928402 460.07496,49.928391 z M 725.05332,49.928391 C 768.43964,49.928391 797.98431,115.36985 813.37941,248.12358 C 796.58473,208.29747 767.0401,189.95762 725.05332,189.9576 C 681.66698,189.9576 652.12232,208.29746 636.7272,248.12358 C 650.72282,115.36986 680.26742,49.928391 725.05332,49.928391 z M 328.66296,205.03767 C 324.47273,237.89142 322.20008,270.92822 322.20008,304.13526 C 322.20006,337.36002 324.64486,370.85504 328.66296,403.23284 C 322.12198,378.92378 308.87765,354.86498 289.88564,332.14109 C 280.00096,320.31412 268.09618,311.81141 255.41692,304.13526 C 269.46653,296.01718 281.20209,284.90466 292.03995,271.82082 C 309.63644,250.57773 321.9097,228.19281 328.66296,205.03767 z M 992.18595,224.42633 C 1034.1727,233.27657 1056.8148,259.20474 1056.8148,301.98095 C 1056.8148,346.23221 1034.1727,372.83968 992.18595,381.68991 C 950.19916,372.83968 929.71138,346.23221 929.71138,301.98095 C 929.71138,259.20474 950.19916,233.27658 992.18595,224.42633 z M 460.07496,226.58063 C 502.06175,235.43086 522.54952,261.35905 522.54954,304.13526 C 522.54954,348.38651 502.06175,374.99397 460.07496,383.84418 C 418.08823,374.99397 395.44611,348.38648 395.44611,304.13526 C 395.44611,261.35905 418.08823,235.43086 460.07496,226.58063 z M 725.05332,226.58063 C 767.0401,235.43086 787.52789,261.35905 787.52789,304.13526 C 787.52789,348.38651 767.0401,374.99397 725.05332,383.84418 C 683.06657,374.99397 662.57871,348.38648 662.57874,304.13526 C 662.57876,261.35905 683.06653,235.43087 725.05332,226.58063 z M 173.55369,325.67823 C 211.8887,325.67823 239.77565,336.51908 259.7255,360.14694 C 279.67542,383.7748 290.47525,411.7975 292.03995,442.01018 C 292.03993,472.99747 281.63127,499.47079 259.7255,523.87338 C 237.81971,548.27593 208.7593,560.49641 173.55369,560.49641 C 139.13034,560.49641 110.85228,550.64781 87.381876,528.182 C 63.911407,505.71617 52.913147,476.09625 52.913147,442.01018 C 52.913147,410.2481 63.713007,383.38743 85.227578,360.14694 C 106.74214,336.90642 136.00096,325.67823 173.55369,325.67823 z M 858.61961,332.14109 C 860.83804,390.67012 867.42915,448.62621 882.31688,504.48473 C 888.95323,529.3842 900.30245,547.19655 912.47703,562.65071 L 804.76224,562.65071 C 815.85021,547.53437 826.47671,530.24433 832.76809,506.63903 C 847.89475,449.88365 855.52591,391.65341 858.61961,332.14109 z M 591.48699,349.37547 C 594.47481,402.92139 601.51315,455.34501 615.18426,506.63903 C 621.41025,529.99891 629.93523,547.6042 641.0358,562.65071 L 541.9382,562.65071 C 552.46681,547.78103 561.7223,529.40413 567.78974,506.63903 C 581.45357,455.37243 587.64132,402.89152 591.48699,349.37547 z M 903.85982,355.83836 C 919.25495,395.66447 948.79962,416.83788 992.18595,418.31291 C 1034.1727,416.83788 1063.7175,395.66444 1080.5121,355.83836 C 1065.117,490.06708 1035.5723,558.34212 992.18595,558.34212 C 947.40005,558.34212 917.85539,490.06706 903.85982,355.83836 z M 371.74887,360.14694 C 387.14402,399.97305 416.68867,421.14646 460.07496,422.6215 C 502.06175,421.14646 529.45209,399.97303 546.24679,360.14694 C 530.85163,494.37567 503.46132,560.49641 460.07496,560.49641 C 415.2891,560.49641 385.74446,494.37565 371.74887,360.14694 z M 636.7272,360.14694 C 652.12238,399.97305 681.66696,418.99215 725.05332,420.46721 C 767.0401,418.99215 796.58473,399.97303 813.37941,360.14694 C 797.98431,494.37567 768.43964,560.49641 725.05332,560.49641 C 680.26744,560.49641 650.72277,494.37565 636.7272,360.14694 z M 332.97154,437.70157 C 336.94829,461.08486 341.93937,483.70585 348.0516,506.63903 C 354.11906,529.40413 363.2062,547.78103 373.90316,562.65071 L 276.95988,562.65071 C 281.92087,558.1361 287.61445,555.06753 292.03995,549.72492 C 320.59569,515.25149 332.97154,477.21042 332.97154,437.70157 z M 106.77053,635.89675 L 1030.9633,635.89675 C 962.00113,678.0026 927.55709,715.6125 927.55709,779.37283 L 210.17671,779.37283 C 210.17671,715.6125 175.73268,678.0026 106.77053,635.89675 z M 152.01073,827.62904 C 153.85848,826.20299 155.09313,827.62904 158.47361,827.62904 L 979.26018,827.62904 C 984.66899,827.62904 987.87735,826.37032 987.87735,838.40053 C 987.87735,849.22777 984.66899,849.172 979.26018,849.172 L 158.47361,849.172 C 151.71263,849.172 147.70214,849.22777 147.70213,838.40053 C 147.70213,832.38537 150.16299,829.05509 152.01073,827.62904 z M 225.25678,902.16768 L 916.78561,902.16768 L 1024.5004,1753.9761 L 990.03164,1753.9761 L 974.95157,1648.4157 L 162.78221,1648.4157 L 152.01073,1753.9761 L 115.38771,1753.9761 L 225.25678,902.16768 z"
     id="path2469"
     sodipodi:nodetypes="cscssscsssssssssscssscccccsccccccccccccscccccscsccscscssssscccsccccsccccscccscscsccscsccscsccscsccscsssssccsccsccsccsccccsccccsccccsccsccscccccccccsccscccccccccc" />
</svg>
