<?xml version="1.0" encoding="UTF-8" standalone="no"?>
<svg
   width="1792.1677"
   height="982.67126"
   id="svg2214"
   sodipodi:version="0.32"
   inkscape:version="1.4 (e7c3feb1, 2024-10-09)"
   sodipodi:docname="R4VARA.svg"
   inkscape:output_extension="org.inkscape.output.svg.inkscape"
   sodipodi:modified="true"
   version="1.1"
   xml:space="preserve"
   xmlns:inkscape="http://www.inkscape.org/namespaces/inkscape"
   xmlns:sodipodi="http://sodipodi.sourceforge.net/DTD/sodipodi-0.dtd"
   xmlns="http://www.w3.org/2000/svg"
   xmlns:svg="http://www.w3.org/2000/svg"
   xmlns:rdf="http://www.w3.org/1999/02/22-rdf-syntax-ns#"
   xmlns:cc="http://creativecommons.org/ns#"
   xmlns:dc="http://purl.org/dc/elements/1.1/"><title
     id="title1">R4VARA</title><metadata
     id="metadata2221"><rdf:RDF><cc:Work
         rdf:about=""><dc:format>image/svg+xml</dc:format><dc:type
           rdf:resource="http://purl.org/dc/dcmitype/StillImage" /><dc:creator><cc:Agent><dc:title>Serge Rosmorduc</dc:title></cc:Agent></dc:creator><cc:license
           rdf:resource="http://scripts.sil.org/OFL" /><dc:title>R4VARA</dc:title><dc:date>1/4/2026</dc:date><dc:description>Variant of R4, found in Stela Louvre C65, l. 8
</dc:description></cc:Work><cc:License
         rdf:about="http://scripts.sil.org/OFL"><cc:permits
           rdf:resource="http://scripts.sil.org/pub/OFL/Reproduction" /><cc:permits
           rdf:resource="http://scripts.sil.org/pub/OFL/Distribution" /><cc:permits
           rdf:resource="http://scripts.sil.org/pub/OFL/Embedding" /><cc:permits
           rdf:resource="http://scripts.sil.org/pub/OFL/DerivativeWorks" /><cc:requires
           rdf:resource="http://scripts.sil.org/pub/OFL/Notice" /><cc:requires
           rdf:resource="http://scripts.sil.org/pub/OFL/Attribution" /><cc:requires
           rdf:resource="http://scripts.sil.org/pub/OFL/ShareAlike" /><cc:requires
           rdf:resource="http://scripts.sil.org/pub/OFL/DerivativeRenaming" /><cc:requires
           rdf:resource="http://scripts.sil.org/pub/OFL/BundlingWhenSelling" /></cc:License></rdf:RDF></metadata><defs
     id="defs2219" /><sodipodi:namedview
     inkscape:window-height="1147"
     inkscape:window-width="1920"
     inkscape:pageshadow="2"
     inkscape:pageopacity="0.0"
     guidetolerance="10.0"
     gridtolerance="10.0"
     objecttolerance="10.0"
     borderopacity="1.0"
     bordercolor="#666666"
     pagecolor="#ffffff"
     id="base"
     inkscape:showpageshadow="2"
     inkscape:pagecheckerboard="0"
     inkscape:deskcolor="#d1d1d1"
     inkscape:zoom="0.2495281"
     inkscape:cx="1274.4056"
     inkscape:cy="112.21181"
     inkscape:window-x="1024"
     inkscape:window-y="25"
     inkscape:window-maximized="1"
     inkscape:current-layer="svg2214" /><path
     id="rect1"
     d="M 767.97656 0 L 765.14453 77.847656 L 957.83984 92.015625 C 992.23863 92.606074 994.71652 116.74788 1004.8926 218.45703 C 991.24414 220.84769 972.97303 224.44918 953.32031 229.52539 C 913.22645 239.88146 867.24067 253.36348 839.55664 285.67969 C 813.98548 315.52946 813.06328 355.08467 814.75781 386.64844 C 816.45234 418.21221 822.95313 444.02148 822.95312 444.02148 L 823.05469 444.42969 L 915.36719 767.52539 L 559.80664 767.52539 C 584.36191 714.90993 606.60614 680.48647 622.76172 612 C 630.69006 578.39048 630.45124 530.54876 627.23047 476.81055 C 624.0097 423.07233 617.13401 364.7058 608.91406 315.89648 C 604.25039 288.20412 594.38241 254.04805 573.73633 224.55664 C 557.83187 201.83831 533.80161 182.01383 503.01953 174.08203 L 503.01953 170.36133 L 473.74414 170.36133 L 473.74414 174.08203 C 442.96206 182.01383 418.9318 201.8383 403.02734 224.55664 C 382.38125 254.04805 372.51326 288.2041 367.84961 315.89648 C 359.62967 364.7058 352.75399 423.07233 349.5332 476.81055 C 346.31242 530.54876 346.07168 578.39048 354 612 C 370.15563 680.48646 392.40136 714.90992 416.95703 767.52539 L 221.15234 767.52539 C 242.74246 723.13674 262.17387 689.04407 276.68164 627.54297 C 284.60998 593.93345 284.37116 546.09368 281.15039 492.35547 C 277.92962 438.61725 271.05198 380.25072 262.83203 331.44141 C 258.16836 303.74904 248.30234 269.59297 227.65625 240.10156 C 211.75185 217.3833 187.71943 197.5588 156.9375 189.62695 L 156.9375 185.90625 L 127.66211 185.90625 L 127.66211 189.62695 C 96.880176 197.5588 72.849717 217.3833 56.945312 240.10156 C 36.299225 269.59297 26.431226 303.74902 21.767578 331.44141 C 13.547638 380.25072 6.6719578 438.61726 3.4511719 492.35547 C 0.23038596 546.09368 -0.008402935 593.93345 7.9199219 627.54297 C 24.449266 697.61367 47.340913 731.98931 72.572266 786.7168 C 66.781212 789.22767 61.137992 791.88293 55.84375 794.84961 C 24.458008 812.4369 0 840.25473 0 875.09961 C 0 909.94449 24.458007 937.76232 55.84375 955.34961 C 87.229493 972.9369 127.77843 982.67187 172.35547 982.67188 L 1619.8105 982.67188 C 1664.3876 982.67188 1704.9385 972.9369 1736.3242 955.34961 C 1767.71 937.76231 1792.168 909.94448 1792.168 875.09961 C 1792.168 840.25474 1767.71 812.4369 1736.3242 794.84961 C 1715.7035 783.29458 1691.0758 775.20937 1664 770.9668 C 1687.0686 722.67501 1707.9086 688.20491 1723.2402 623.21094 C 1731.1686 589.60142 1730.9298 541.7597 1727.709 488.02148 C 1724.4882 434.28327 1717.6125 375.91674 1709.3926 327.10742 C 1704.7289 299.41506 1694.8609 265.26094 1674.2148 235.76953 C 1658.3104 213.05119 1634.2801 193.22477 1603.498 185.29297 L 1603.498 181.57422 L 1574.2227 181.57422 L 1574.2227 185.29297 C 1543.4406 193.22477 1519.4103 213.05119 1503.5059 235.76953 C 1482.8598 265.26094 1472.9918 299.41506 1468.3281 327.10742 C 1460.1082 375.91674 1453.2325 434.28327 1450.0117 488.02148 C 1446.7909 541.75969 1446.5502 589.60144 1454.4785 623.21094 C 1469.4456 686.65876 1489.6649 721.01085 1512.0781 767.52539 L 1145.1992 767.52539 L 1237.5117 444.42969 L 1237.6133 444.02148 C 1237.6133 444.02148 1244.1141 418.21221 1245.8086 386.64844 C 1247.5031 355.08466 1246.579 315.52946 1221.0078 285.67969 C 1193.3238 253.36345 1147.34 239.88146 1107.2461 229.52539 C 1086.5173 224.17124 1067.4576 220.47567 1053.6211 218.09766 C 1057.5387 163.30695 1062.1525 103.37465 1102.7246 92.015625 L 1295.4219 77.847656 L 1292.5879 0 C 1292.5879 0 1117.9681 19.837861 1030.2832 19.837891 C 942.59828 19.837921 767.97656 -3.5527137e-15 767.97656 0 z M 488.38086 221.81055 C 507.93427 225.51913 521.24329 236.75688 532.77734 253.23242 C 546.99671 273.54373 555.82535 301.73008 559.60938 324.19922 C 567.50044 371.0556 574.22553 428.16667 577.32031 479.80273 C 580.41509 531.4388 579.20491 578.86905 574.09766 600.51953 C 557.71049 669.98776 534.59204 699.27605 505.04102 767.52539 L 471.72266 767.52539 C 442.17162 699.27605 419.05324 669.98776 402.66602 600.51953 C 397.55877 578.86905 396.34857 531.4388 399.44336 479.80273 C 402.53815 428.16667 409.26325 371.05561 417.1543 324.19922 C 420.9383 301.7301 429.76696 273.54373 443.98633 253.23242 C 455.5202 236.75715 468.82798 225.51932 488.38086 221.81055 z M 1588.8594 233.02148 C 1608.4128 236.73007 1621.7218 247.96781 1633.2559 264.44336 C 1647.4752 284.75467 1656.3039 312.94297 1660.0879 335.41211 C 1667.9789 382.26849 1674.704 439.37761 1677.7988 491.01367 C 1680.8936 542.64973 1679.6834 590.07999 1674.5762 611.73047 C 1659.1126 677.28333 1637.6505 707.06963 1610.457 767.52539 L 1567.2637 767.52539 C 1540.0701 707.06963 1518.6082 677.28334 1503.1445 611.73047 C 1498.0373 590.07996 1496.8271 542.64974 1499.9219 491.01367 C 1503.0167 439.37761 1509.7418 382.26849 1517.6328 335.41211 C 1521.4168 312.94297 1530.2455 284.75467 1544.4648 264.44336 C 1555.9987 247.96808 1569.3065 236.73026 1588.8594 233.02148 z M 142.30078 237.35352 C 161.85375 241.06226 175.16141 252.30202 186.69531 268.77734 C 200.91468 289.08866 209.74332 317.275 213.52734 339.74414 C 221.4184 386.60052 228.14546 443.70964 231.24023 495.3457 C 234.33501 546.98176 233.12483 594.41397 228.01758 616.06445 C 212.89609 680.16722 192.0677 709.89914 165.72656 767.70703 C 150.16261 768.04967 135.13184 769.55346 120.85742 772.20898 C 93.591573 711.52448 72.076408 681.73947 56.583984 616.06445 C 51.476739 594.41397 50.266534 546.98177 53.361328 495.3457 C 56.456122 443.70964 63.183169 386.60053 71.074219 339.74414 C 74.858221 317.27502 83.686884 289.08866 97.90625 268.77734 C 109.44034 252.30175 122.74728 241.06207 142.30078 237.35352 z M 1030.2832 265.06836 C 1035.954 265.83439 1061.9093 269.45495 1094.7422 277.93555 C 1131.3461 287.39018 1171.7916 305.07987 1183.0371 318.20703 C 1192.5428 329.30325 1197.288 357.75837 1195.8809 383.96875 C 1194.4829 410.00898 1189.2095 431.44505 1189.1406 431.72461 L 1103.8203 730.34766 L 956.74805 730.34766 L 871.42578 431.72461 C 871.35688 431.44506 866.08354 410.00899 864.68555 383.96875 C 863.27842 357.75837 868.02359 329.30325 877.5293 318.20703 C 888.77484 305.07984 929.2203 287.39018 965.82422 277.93555 C 998.65746 269.45486 1024.6129 265.83433 1030.2832 265.06836 z M 172.35547 817.52539 L 1619.8105 817.52539 C 1656.8689 817.52539 1689.9973 826.20413 1711.8809 838.4668 C 1733.7644 850.72946 1742.168 864.19931 1742.168 875.09961 C 1742.168 885.99992 1733.7644 899.4678 1711.8809 911.73047 C 1689.9973 923.99313 1656.8689 932.67189 1619.8105 932.67188 L 172.35547 932.67188 C 135.29709 932.67188 102.16873 923.99314 80.285156 911.73047 C 58.401578 899.4678 50 885.99991 50 875.09961 C 50 864.19931 58.401578 850.72946 80.285156 838.4668 C 102.16873 826.20413 135.29709 817.52539 172.35547 817.52539 z " /></svg>
