<?xml version="1.0" encoding ="US-ASCII" standalone="yes"?>
<svg width="17.447559" height="9.12">
<path style="fill:#000000; stroke:none" d=" M 8.410975 0  Q 11.358293 0 14.19439 2.79439  Q 16.224144 3.99 16.856707 5.64439  Q 17.489267 7.29878 17.447559 9.12  L 16.238049 9.12  Q 15.779266 5.852926 14.19439 5.199512  Q 11.344388 7.896585 8.43878 7.896585  Q 5.463658 7.896585 2.293902 5.171707  L 0 5.408048  L 0 2.544147  L 2.293902 2.766585  Q 4.824146 0 8.410975 0  Z  M 8.160732 0.57  L 8.160732 7.312683  Q 8.424878 7.35439 8.716829 7.312683  L 8.716829 0.597805  Q 8.43878 0.556098 8.160732 0.57  Z  M 2.710975 4.712927  Q 5.296829 7.104145 7.549024 7.312683  L 7.549024 0.597805  Q 5.296829 0.653415 2.710975 3.14195  L 2.710975 4.712927  Z  M 9.328536 0.597805  L 9.328536 7.312683  L 9.342439 7.312683  Q 11.497314 7.034634 14.19439 4.643414  Q 16.099026 5.255122 16.64122 8.633414  L 16.988781 8.633414  Q 16.960974 7.507316 16.516096 6.061462  Q 16.071218 4.61561 14.19439 3.350488  Q 11.497314 0.917561 9.342439 0.597805  L 9.328536 0.597805  Z  M 0.583902 3.086341  L 0.583902 4.865854  L 1.849024 4.712927  L 1.849024 3.14195  L 0.583902 3.086341  Z "/></svg>
