<?xml version="1.0" encoding="UTF-8" standalone="no"?>
<svg
   xmlns:dc="http://purl.org/dc/elements/1.1/"
   xmlns:cc="http://web.resource.org/cc/"
   xmlns:rdf="http://www.w3.org/1999/02/22-rdf-syntax-ns#"
   xmlns:svg="http://www.w3.org/2000/svg"
   xmlns="http://www.w3.org/2000/svg"
   xmlns:sodipodi="http://inkscape.sourceforge.net/DTD/sodipodi-0.dtd"
   xmlns:inkscape="http://www.inkscape.org/namespaces/inkscape"
   width="6.4899993pt"
   height="10.22pt"
   id="svg1342"
   sodipodi:version="0.32"
   inkscape:version="0.43"
   sodipodi:docname="R7A.svg"
   sodipodi:docbase="C:\Program Files\JSesh\fonts"
   version="1.0">
  <metadata
     id="metadata1349">
    <rdf:RDF>
      <cc:Work
         rdf:about="">
        <dc:format>image/svg+xml</dc:format>
        <dc:type
           rdf:resource="http://purl.org/dc/dcmitype/StillImage" />
      </cc:Work>
    </rdf:RDF>
  </metadata>
  <defs
     id="defs1347" />
  <sodipodi:namedview
     inkscape:window-height="708"
     inkscape:window-width="1024"
     inkscape:pageshadow="2"
     inkscape:pageopacity="0.0"
     borderopacity="1.0"
     bordercolor="#666666"
     pagecolor="#ffffff"
     id="base"
     inkscape:zoom="32.378471"
     inkscape:cx="4.0571942"
     inkscape:cy="5.7600002"
     inkscape:window-x="-4"
     inkscape:window-y="-4"
     inkscape:current-layer="svg1342" />
  <path
     style="fill:#000000;stroke:none"
     d="M 1.21629,5.3977922 C 1.5174667,5.3977922 1.668055,5.5425882 1.668055,5.8321802 C 1.668055,6.1333569 1.5174667,6.2839452 1.21629,6.2839452 C 0.92669667,6.2839452 0.7819,6.1333569 0.7819,5.8321802 C 0.7819,5.5425882 0.92669667,5.3977922 1.21629,5.3977922 z M 6.863348,5.3977922 C 7.1645253,5.3977922 7.315114,5.5483802 7.315114,5.8495562 C 7.315114,6.1391489 7.1645253,6.2839452 6.863348,6.2839452 C 6.573756,6.2839452 6.42896,6.1391489 6.42896,5.8495562 C 6.42896,5.5483802 6.573756,5.3977922 6.863348,5.3977922 z M 1.21629,4.6853932 C 0.474932,4.7085612 0.104253,5.0908235 0.104253,5.8321802 C 0.104253,6.5851215 0.48072367,6.9731759 1.233665,6.9963432 C 1.9750223,6.9731759 2.357285,6.5851215 2.380453,5.8321802 C 2.357285,5.0908235 1.9692307,4.7085612 1.21629,4.6853932 z M 6.863348,4.6853932 C 6.1219907,4.7085612 5.751312,5.0966155 5.751312,5.8495562 C 5.751312,6.5909135 6.1277827,6.9731759 6.880724,6.9963432 C 7.6220813,6.9731759 8.0043437,6.5909135 8.027511,5.8495562 C 8.0043437,5.0966155 7.6162893,4.7085612 6.863348,4.6853932 z M 2.1449741,1.7761268 C 2.7145401,3.1023608 3.7043921,4.0748801 4.1532434,4.9098779 C 4.6020947,5.7448757 4.7261382,6.8129685 4.552398,8.0215022 L 3.4249424,7.9906175 C 3.5465714,7.0928798 3.6580796,6.0373906 3.2526485,5.1135518 C 2.6185162,3.6685809 2.1836613,3.0734249 2.1449741,1.7761268 z M 6.411583,8.9076552 L 5.282172,11.51399 C 5.1547513,11.919421 4.876742,12.122136 4.448144,12.122136 L 3.68362,12.122136 C 3.2434393,12.122136 2.9596383,11.913629 2.832217,11.496615 L 1.702806,8.9076552 L 6.411583,8.9076552 z M 2.3089471,2.8488135e-008 C 2.0541051,2.8488135e-008 1.534431,0.92058687 1.494298,1.6446702 C 1.3657239,3.964415 2.3727197,4.5019641 2.5812264,5.1390681 C 2.7897331,5.7761721 2.7800903,6.6546242 2.675837,8.0215022 L 0.642896,8.0215022 C 0.62033733,8.0208922 0.59837267,8.0205872 0.577002,8.0205872 C 0.192334,8.0205872 0,8.1193535 0,8.3168862 C 0,8.5138102 0.21429867,8.7976112 0.642896,9.1682892 C 0.90932133,9.3883792 1.43638,10.459872 2.224072,12.382768 C 2.3514933,12.672361 2.525249,12.817158 2.745339,12.817158 L 5.36905,12.817158 C 5.5775567,12.817158 5.751312,12.672361 5.890316,12.382768 C 6.678008,10.459872 7.205067,9.3883792 7.471493,9.1682892 C 7.8885063,8.7744425 8.1028047,8.4906415 8.114388,8.3168862 C 8.114388,8.1193535 7.9220547,8.0205872 7.537388,8.0205872 C 7.5160167,8.0205872 7.4940517,8.0208922 7.471493,8.0215022 L 5.3458968,7.9906175 C 5.3574815,6.1372235 5.3603158,5.5588689 4.6440512,4.4024704 C 4.0243342,3.4019465 3.581199,2.8608506 2.8321705,1.7334571 C 2.5117089,0.8454866 2.5637891,2.8488135e-008 2.3089471,2.8488135e-008 z "
     id="path1344"
     sodipodi:nodetypes="csssccsssccsccccsccccsccscccccccccssccssscccccssccscc" />
</svg>
