<?xml version="1.0" encoding ="US-ASCII" standalone="yes"?>
<svg width="11.818143" height="12">
<path style="fill:#000000; stroke:none" d=" M 0.737388 5.004774  Q 0.737388 6.579197 1.793647 7.595598  Q 2.849906 8.611999 4.364542 8.611999  Q 5.938966 8.592069 6.915506 7.485985  Q 7.892048 6.379903 7.931906 4.984845  Q 7.832259 3.629644 6.945401 2.563421  Q 6.058543 1.497197 4.364542 1.477268  Q 2.670542 1.477268 1.703965 2.533527  Q 0.737388 3.589785 0.737388 5.004774  Z  M 8.190988 2.394021  Q 10.084285 1.975503 10.104215 1.447374  Q 10.124144 0.919244 9.605979 0.789703  Q 9.087811 0.660162 8.190988 2.394021  Z  M 8.290636 4.12788  Q 9.685697 6.49948 10.144072 8.014115  Q 10.423085 7.735103 10.821672 7.575668  Q 9.785343 5.50301 8.290636 4.12788  Z  M 8.609507 6.280257  Q 9.287108 8.452563 9.406685 11.222752  Q 9.904918 11.103176 10.403155 11.242681  Q 9.366825 7.276726 8.609507 6.280257  Z  M 8.091342 7.117291  Q 7.971765 7.456092 7.493459 7.954326  Q 6.357483 9.329458 4.364542 9.349387  Q 2.570895 9.349387 1.285447 8.113762  Q 0 6.878138 0 5.024704  Q 0 3.290844 1.135976 2.025327  Q 2.271953 0.759809 4.344612 0.779738  Q 6.357483 0.799668 7.553248 2.214656  Q 8.390284 -0.236662 9.675732 0.022421  Q 10.961178 0.281503 10.861531 1.58688  Q 10.761885 2.892256 8.190988 3.051692  Q 10.403155 4.825409 11.818143 8.034044  Q 11.001038 8.253268 10.462943 8.751504  Q 11.001038 10.086776 11.24019 12  Q 9.884989 11.820634 8.47 11.96014  Q 8.768942 8.87108 8.091342 7.117291  Z "/></svg>
