<?xml version="1.0" encoding="UTF-8" standalone="no"?>
<svg
   xmlns:dc="http://purl.org/dc/elements/1.1/"
   xmlns:cc="http://creativecommons.org/ns#"
   xmlns:rdf="http://www.w3.org/1999/02/22-rdf-syntax-ns#"
   xmlns:svg="http://www.w3.org/2000/svg"
   xmlns="http://www.w3.org/2000/svg"
   xmlns:sodipodi="http://sodipodi.sourceforge.net/DTD/sodipodi-0.dtd"
   xmlns:inkscape="http://www.inkscape.org/namespaces/inkscape"
   width="10.04"
   height="17.98"
   id="svg2383"
   sodipodi:version="0.32"
   inkscape:version="0.46"
   sodipodi:docname="S100.svg"
   inkscape:output_extension="org.inkscape.output.svg.inkscape">
  <metadata
     id="metadata2390">
    <rdf:RDF>
      <cc:Work
         rdf:about="">
        <dc:format>image/svg+xml</dc:format>
        <dc:type
           rdf:resource="http://purl.org/dc/dcmitype/StillImage" />
      </cc:Work>
    </rdf:RDF>
  </metadata>
  <defs
     id="defs2388">
    <inkscape:perspective
       sodipodi:type="inkscape:persp3d"
       inkscape:vp_x="0 : 8.9899998 : 1"
       inkscape:vp_y="0 : 1000 : 0"
       inkscape:vp_z="10.04 : 8.9899998 : 1"
       inkscape:persp3d-origin="5.02 : 5.9933332 : 1"
       id="perspective2392" />
  </defs>
  <sodipodi:namedview
     inkscape:window-height="708"
     inkscape:window-width="1024"
     inkscape:pageshadow="2"
     inkscape:pageopacity="0.0"
     guidetolerance="10.0"
     gridtolerance="10.0"
     objecttolerance="10.0"
     borderopacity="1.0"
     bordercolor="#666666"
     pagecolor="#ffffff"
     id="base"
     showgrid="false"
     inkscape:zoom="25.695218"
     inkscape:cx="5.02"
     inkscape:cy="8.9899998"
     inkscape:window-x="-4"
     inkscape:window-y="-4"
     inkscape:current-layer="svg2383" />
  <path
     style="fill:#000000; stroke:none"
     d="M 9.58,17.64 L 9.58,17.43 L 0.43,17.43 L 0.43,17.64 L 9.58,17.64 z M 7.07,10.31 C 7.07,9.99 7.26,9.74 7.64,9.56 L 2.37,9.56 C 2.77,9.74 2.97,9.99 2.97,10.31 L 7.07,10.31 z M 8.72,9.13 L 8.72,8.99 L 1.32,8.99 L 1.32,9.13 L 8.72,9.13 z M 8.87,17.09 L 7.73,10.68 L 2.28,10.68 L 1.14,17.09 L 8.87,17.09 z M 5.43,8.56 C 5.9933333,8.56 6.4658333,8.2291667 6.8475,7.5675 C 7.2291667,6.9058333 7.52,5.9133333 7.72,4.59 C 7.9233333,3.2666667 7.8,2.2741667 7.35,1.6125 C 6.9,0.95083333 6.1233333,0.62 5.02,0.62 C 3.9033333,0.62 3.12,0.95083333 2.67,1.6125 C 2.22,2.2741667 2.1033333,3.2666667 2.32,4.59 C 2.5366667,5.9133333 2.845,6.9058333 3.245,7.5675 C 3.645,8.2291667 4.1366667,8.56 4.72,8.56 L 5.075,8.56 L 5.43,8.56 z M 9.22,8.56 L 9.22,9.54 C 9.2,9.54 8.9266667,9.54 8.4,9.54 C 7.8666667,9.7933333 7.6,10.05 7.6,10.31 L 8.19,10.31 L 9.45,17.09 L 10.04,17.09 L 10.04,17.98 L 0,17.98 L 0,17.09 L 0.57,17.09 L 1.83,10.31 L 2.44,10.31 C 2.44,10.05 2.1666667,9.7933333 1.62,9.54 C 1.0866667,9.54 0.82,9.54 0.82,9.54 L 0.82,8.56 L 3.33,8.56 C 2.95,8.3466667 2.6216667,7.9008333 2.345,7.2225 C 2.0683333,6.5441667 1.8433333,5.6333333 1.67,4.49 C 1.44,2.9933333 1.6041667,1.8708333 2.1625,1.1225 C 2.7208333,0.37416667 3.6733333,0 5.02,0 C 6.3733333,0 7.3291667,0.37416667 7.8875,1.1225 C 8.4458333,1.8708333 8.6066667,2.9933333 8.37,4.49 C 8.1966667,5.6233333 7.9733333,6.5291667 7.7,7.2075 C 7.4266667,7.8858333 7.1033333,8.3366667 6.73,8.56 L 9.22,8.56 z"
     id="path2385"
     sodipodi:nodetypes="cccccccccccccccccccccscsssssccccccccccccccccccccscssscscc" />
</svg>
