<?xml version="1.0" encoding="UTF-8" standalone="no"?>
<svg
   xmlns:dc="http://purl.org/dc/elements/1.1/"
   xmlns:cc="http://creativecommons.org/ns#"
   xmlns:rdf="http://www.w3.org/1999/02/22-rdf-syntax-ns#"
   xmlns:svg="http://www.w3.org/2000/svg"
   xmlns="http://www.w3.org/2000/svg"
   xmlns:sodipodi="http://sodipodi.sourceforge.net/DTD/sodipodi-0.dtd"
   xmlns:inkscape="http://www.inkscape.org/namespaces/inkscape"
   width="15.36"
   height="17.98"
   id="svg2434"
   sodipodi:version="0.32"
   inkscape:version="0.46"
   sodipodi:docname="S100A.svg"
   inkscape:output_extension="org.inkscape.output.svg.inkscape">
  <metadata
     id="metadata2441">
    <rdf:RDF>
      <cc:Work
         rdf:about="">
        <dc:format>image/svg+xml</dc:format>
        <dc:type
           rdf:resource="http://purl.org/dc/dcmitype/StillImage" />
      </cc:Work>
    </rdf:RDF>
  </metadata>
  <defs
     id="defs2439">
    <inkscape:perspective
       sodipodi:type="inkscape:persp3d"
       inkscape:vp_x="0 : 8.9899998 : 1"
       inkscape:vp_y="0 : 1000 : 0"
       inkscape:vp_z="15.36 : 8.9899998 : 1"
       inkscape:persp3d-origin="7.6799998 : 5.9933332 : 1"
       id="perspective2443" />
  </defs>
  <sodipodi:namedview
     inkscape:window-height="708"
     inkscape:window-width="1024"
     inkscape:pageshadow="2"
     inkscape:pageopacity="0.0"
     guidetolerance="10.0"
     gridtolerance="10.0"
     objecttolerance="10.0"
     borderopacity="1.0"
     bordercolor="#666666"
     pagecolor="#ffffff"
     id="base"
     showgrid="false"
     inkscape:zoom="25.695218"
     inkscape:cx="7.6799998"
     inkscape:cy="8.9899998"
     inkscape:window-x="-4"
     inkscape:window-y="-4"
     inkscape:current-layer="svg2434" />
  <path
     style="fill:#000000; stroke:none"
     d="M 14.81,17.43 L 14.81,17.11 L 0.52,17.11 L 0.52,17.43 L 14.81,17.43 z M 11.19,6.02 C 11.19,5.5133333 11.493333,5.11 12.1,4.81 L 3.24,4.81 C 3.86,5.11 4.17,5.5133333 4.17,6.02 L 11.19,6.02 z M 13.44,4.33 L 13.44,4.1 L 1.91,4.1 L 1.91,4.33 L 13.44,4.33 z M 14.04,16.59 L 12.24,6.56 L 3.1,6.56 L 1.32,16.59 L 14.04,16.59 z M 13.92,3.58 L 13.92,4.81 C 13.906667,4.81 13.586667,4.81 12.96,4.81 C 12.113333,5.2166667 11.69,5.62 11.69,6.02 L 12.65,6.02 L 14.58,16.59 L 15.36,16.59 L 15.36,17.98 L 0,17.98 L 0,16.59 L 0.75,16.59 L 2.69,6.02 L 3.65,6.02 C 3.65,5.62 3.2233333,5.2166667 2.37,4.81 C 1.7633333,4.81 1.4533333,4.81 1.44,4.81 L 1.44,3.58 L 6.02,3.58 C 6.02,2.57 5.71,1.8125 5.09,1.3075 C 4.47,0.8025 3.54,0.55 2.3,0.55 L 2.3,0.275 L 2.3,0 C 3.7266667,0 4.7966667,0.29833333 5.51,0.895 C 6.2233333,1.4916667 6.58,2.3866667 6.58,3.58 L 8.75,3.58 C 8.75,2.3866667 9.105,1.4916667 9.815,0.895 C 10.525,0.29833333 11.59,0 13.01,0 L 13.01,0.275 L 13.01,0.55 C 11.78,0.55 10.8575,0.8025 10.2425,1.3075 C 9.6275,1.8125 9.32,2.57 9.32,3.58 L 13.92,3.58 z"
     id="path2436"
     sodipodi:nodetypes="cccccccccccccccccccccccccccccccccccccscccsccscccscc" />
</svg>
