<?xml version="1.0" encoding="UTF-8" standalone="no"?>
<svg
   xmlns:dc="http://purl.org/dc/elements/1.1/"
   xmlns:cc="http://creativecommons.org/ns#"
   xmlns:rdf="http://www.w3.org/1999/02/22-rdf-syntax-ns#"
   xmlns:svg="http://www.w3.org/2000/svg"
   xmlns="http://www.w3.org/2000/svg"
   xmlns:sodipodi="http://sodipodi.sourceforge.net/DTD/sodipodi-0.dtd"
   xmlns:inkscape="http://www.inkscape.org/namespaces/inkscape"
   width="21.490368"
   height="17.96875"
   id="svg2727"
   sodipodi:version="0.32"
   inkscape:version="0.46"
   sodipodi:docname="S124D.svg"
   inkscape:output_extension="org.inkscape.output.svg.inkscape"
   version="1.0">
  <metadata
     id="metadata2734">
    <rdf:RDF>
      <cc:Work
         rdf:about="">
        <dc:format>image/svg+xml</dc:format>
        <dc:type
           rdf:resource="http://purl.org/dc/dcmitype/StillImage" />
      </cc:Work>
    </rdf:RDF>
  </metadata>
  <defs
     id="defs2732">
    <inkscape:perspective
       sodipodi:type="inkscape:persp3d"
       inkscape:vp_x="0 : 6.7199998 : 1"
       inkscape:vp_y="0 : 1000 : 0"
       inkscape:vp_z="18.120001 : 6.7199998 : 1"
       inkscape:persp3d-origin="9.0600004 : 4.4799999 : 1"
       id="perspective2736" />
  </defs>
  <sodipodi:namedview
     inkscape:window-height="667"
     inkscape:window-width="640"
     inkscape:pageshadow="2"
     inkscape:pageopacity="0.0"
     guidetolerance="10.0"
     gridtolerance="10.0"
     objecttolerance="10.0"
     borderopacity="1.0"
     bordercolor="#666666"
     pagecolor="#ffffff"
     id="base"
     showgrid="false"
     inkscape:zoom="23.804734"
     inkscape:cx="8.107642"
     inkscape:cy="9.698327"
     inkscape:window-x="225"
     inkscape:window-y="87"
     inkscape:current-layer="svg2727" />
  <path
     style="fill:#000000;stroke:none"
     d="M 4.1111023,0 C 2.5408804,0 1.7276286,0.7059245 1.7048523,2.15625 C 0.76206839,1.7865998 0.16825749,1.7761926 0.01735229,2.15625 C -0.11237301,2.4712972 0.48871419,3.1434606 1.7048523,4.125 L 1.7048523,12.65625 L 2.9861023,12.65625 L 2.9861023,5.09375 C 3.2145629,5.2604856 3.3870157,5.413705 3.6423523,5.59375 C 3.9920614,5.8391391 4.7266259,6.3316423 5.2361023,6.6875 L 5.2361023,17.96875 L 6.5173523,17.96875 L 6.5173523,7.59375 C 8.7419386,9.1305244 11.192644,10.77139 12.204852,11.21875 C 10.931519,12.87875 10.516102,14.529583 9.7361023,16.15625 C 9.2094356,16.469583 8.8131857,16.701667 8.5798523,16.875 C 8.346519,17.048333 7.9906856,17.187917 7.5173523,17.28125 C 6.9173523,17.32125 6.6111024,17.427083 6.6111023,17.59375 L 6.6111023,17.8125 C 6.597769,17.885833 7.0640188,17.908333 8.0173523,17.875 C 8.5306856,17.728333 8.9269355,17.676667 9.1736023,17.75 C 9.4269356,17.823333 9.625269,17.875 9.7986023,17.875 C 9.9586023,17.875 10.104852,17.812083 10.204852,17.71875 C 10.298186,17.625417 10.363602,17.348333 10.423602,16.875 C 10.423602,16.741667 10.851519,16.113333 11.704852,15 C 12.564852,13.886667 13.053602,13.11625 13.173602,12.65625 L 13.267352,12.40625 C 13.387352,12.40625 13.436519,12.432917 13.829852,12.90625 C 14.623185,14.359583 15.174852,15.274167 15.454852,15.6875 C 15.734852,16.1075 15.755269,16.404583 15.548602,16.53125 C 15.341935,16.65125 15.130269,16.817917 14.923602,17.03125 C 14.723602,17.244583 14.507352,17.325833 14.267352,17.3125 C 13.814019,17.399167 13.579852,17.53875 13.579852,17.71875 L 13.579852,17.875 L 15.204852,17.875 C 15.658185,17.615 16.018602,17.529583 16.298602,17.65625 C 16.578602,17.789583 16.794852,17.875 16.954852,17.875 C 17.188185,17.848333 17.298602,17.7425 17.298602,17.5625 C 17.298602,17.375833 17.221935,17.14625 17.048602,16.90625 C 16.795269,16.46625 16.524852,15.718333 16.204852,14.625 C 15.878185,13.531667 15.448185,12.732083 14.954852,12.21875 C 16.201519,12.605417 17.064019,12.71375 17.517352,12.59375 C 18.057352,12.447083 18.399852,12.125 18.579852,11.625 C 18.899852,11.905 19.140685,12.45 19.267352,13.25 C 19.394019,14.05 19.849019,14.3225 20.642352,14.0625 C 21.429019,13.809167 21.66777,13.2325 21.361102,12.3125 C 21.054435,11.399167 20.277352,10.725833 19.017352,10.3125 C 19.204019,9.7525 18.931519,9.2524999 18.204852,8.8125 C 17.478185,8.3725 16.167352,7.6325 14.267352,7.3125 C 12.445401,6.808971 8.1096255,4.7663614 6.5173523,4.15625 L 6.5173523,2.25 C 6.5173524,0.7433334 5.7111023,0 4.1111023,0 z M 4.1111023,0.46875 C 5.4044356,0.46875 6.0486023,1.0454167 6.0486023,2.21875 L 6.0486023,3.96875 C 5.9234363,3.9259637 5.799023,3.8570695 5.6736023,3.8125 L 5.6736023,2.21875 C 5.6736023,1.2854167 5.1511023,0.8258334 4.1111023,0.8125 C 3.0644356,0.8125001 2.5486023,1.2720833 2.5486023,2.21875 L 2.5486023,2.53125 C 2.4535939,2.4870922 2.3625021,2.4513976 2.2673523,2.40625 C 2.2194787,2.3837787 2.1887135,2.3647894 2.1423523,2.34375 L 2.1423523,2.21875 C 2.1423523,1.0454167 2.8044356,0.46875 4.1111023,0.46875 z M 4.1111023,1.28125 C 4.857769,1.28125 5.2361023,1.5920833 5.2361023,2.21875 L 5.2361023,3.65625 C 4.488415,3.3790399 3.7428007,3.0590379 2.9861023,2.71875 L 2.9861023,2.21875 C 2.9861023,1.5920833 3.3711023,1.28125 4.1111023,1.28125 z M 0.95485229,2.5625 C 2.9815189,3.5425 4.6481856,4.2541667 5.9548523,4.6875 C 7.261519,5.1208333 12.161519,7.4940494 13.954852,7.96875 C 15.719996,8.4359886 16.955269,8.9725001 17.548602,9.3125 C 18.141935,9.6525 18.324435,10.136667 18.111102,10.75 C 17.904435,11.37 17.575685,11.719167 17.142352,11.8125 C 16.709019,11.905833 15.531102,11.657916 13.611102,11.03125 C 11.697769,10.397917 5.2190189,5.9029167 0.89235229,2.65625 L 0.95485229,2.5625 z M 2.1423523,4.46875 C 2.2630207,4.5618019 2.4175629,4.6830622 2.5486023,4.78125 L 2.5486023,12.1875 L 2.1423523,12.1875 L 2.1423523,4.46875 z M 5.6736023,7 C 5.7996031,7.0877353 5.9175934,7.1590632 6.0486023,7.25 L 6.0486023,17.46875 L 5.6736023,17.46875 L 5.6736023,7 z M 18.798602,10.9375 C 19.605269,11.2175 20.150268,11.663333 20.423602,12.25 C 20.690269,12.836667 20.714853,13.145417 20.454852,13.21875 C 20.188185,13.292083 20.032769,13.1275 19.986102,12.6875 C 19.946102,12.2475 19.531935,11.6575 18.798602,10.9375 z"
     id="path2531" />
</svg>
