<?xml version="1.0" encoding="UTF-8" standalone="no"?>
<svg
   xmlns:dc="http://purl.org/dc/elements/1.1/"
   xmlns:cc="http://creativecommons.org/ns#"
   xmlns:rdf="http://www.w3.org/1999/02/22-rdf-syntax-ns#"
   xmlns:svg="http://www.w3.org/2000/svg"
   xmlns="http://www.w3.org/2000/svg"
   xmlns:sodipodi="http://sodipodi.sourceforge.net/DTD/sodipodi-0.dtd"
   xmlns:inkscape="http://www.inkscape.org/namespaces/inkscape"
   width="19.31"
   height="17.76"
   id="svg2434"
   sodipodi:version="0.32"
   inkscape:version="0.46"
   sodipodi:docname="S132.svg"
   inkscape:output_extension="org.inkscape.output.svg.inkscape">
  <metadata
     id="metadata2441">
    <rdf:RDF>
      <cc:Work
         rdf:about="">
        <dc:format>image/svg+xml</dc:format>
        <dc:type
           rdf:resource="http://purl.org/dc/dcmitype/StillImage" />
      </cc:Work>
    </rdf:RDF>
  </metadata>
  <defs
     id="defs2439">
    <inkscape:perspective
       sodipodi:type="inkscape:persp3d"
       inkscape:vp_x="0 : 8.8800001 : 1"
       inkscape:vp_y="0 : 1000 : 0"
       inkscape:vp_z="19.309999 : 8.8800001 : 1"
       inkscape:persp3d-origin="9.6549997 : 5.9200001 : 1"
       id="perspective2443" />
  </defs>
  <sodipodi:namedview
     inkscape:window-height="708"
     inkscape:window-width="1024"
     inkscape:pageshadow="2"
     inkscape:pageopacity="0.0"
     guidetolerance="10.0"
     gridtolerance="10.0"
     objecttolerance="10.0"
     borderopacity="1.0"
     bordercolor="#666666"
     pagecolor="#ffffff"
     id="base"
     showgrid="false"
     inkscape:zoom="26.013513"
     inkscape:cx="9.6549997"
     inkscape:cy="9.8643793"
     inkscape:window-x="-4"
     inkscape:window-y="-4"
     inkscape:current-layer="svg2434" />
  <path
     style="fill:#000000; stroke:none"
     d="M 0.65625 0 C 0.90291667 0.77666667 1.1033333 1.6904167 1.25 2.71875 C 1.3966667 3.7470833 1.4845833 4.8762499 1.53125 6.15625 C 0.51125 6.51625 0 7.5295837 0 9.15625 C 0 10.782917 0.52916672 11.771667 1.5625 12.125 C 1.5025 13.365 1.4 14.435 1.25 15.375 C 1.1 16.315 0.89625002 17.11 0.65625 17.75 L 1.125 17.75 C 1.3716667 17.096667 1.5675001 16.324167 1.6875 15.4375 L 2.28125 15.4375 C 2.180365 16.337133 2.060026 17.146725 1.90625 17.75 L 2.375 17.75 C 2.528776 17.146725 2.6507941 16.337133 2.75 15.4375 L 3.34375 15.4375 C 3.2842223 16.33869 3.2172798 17.1419 3.125 17.75 L 3.59375 17.75 C 3.6812975 17.1419 3.7560251 16.33869 3.8125 15.4375 L 4.40625 15.4375 L 4.40625 17.75 L 4.90625 17.75 L 4.90625 15.4375 L 5.53125 15.4375 C 5.5907776 16.341743 5.6889702 17.137167 5.78125 17.75 L 6.25 17.75 C 6.1577202 17.137167 6.0907777 16.340063 6.03125 15.4375 L 6.625 15.4375 C 6.7257321 16.338506 6.8438582 17.141993 7 17.75 L 7.46875 17.75 C 7.3102424 17.137262 7.1960084 16.341559 7.09375 15.4375 L 7.65625 15.4375 C 7.7695833 16.264167 7.9833335 17.036667 8.25 17.75 L 8.71875 17.75 C 8.39875 16.886667 8.16 15.7475 8 14.3125 C 7.9315898 13.698946 7.8829105 12.999311 7.84375 12.28125 L 11.46875 12.28125 C 11.429591 13.003683 11.412152 13.697595 11.34375 14.3125 C 11.18375 15.750833 10.945 16.9 10.625 17.75 L 11.09375 17.75 C 11.35375 17.036667 11.518333 16.264167 11.625 15.4375 L 12.21875 15.4375 C 12.117178 16.337973 11.999892 17.146725 11.84375 17.75 L 12.34375 17.75 C 12.499961 17.146456 12.617998 16.337666 12.71875 15.4375 L 13.3125 15.4375 C 13.251446 16.341209 13.157146 17.1419 13.0625 17.75 L 13.5625 17.75 C 13.657146 17.1419 13.720196 16.34037 13.78125 15.4375 L 14.40625 15.4375 L 14.40625 17.75 L 14.875 17.75 L 14.875 15.4375 L 15.5 15.4375 C 15.559402 16.339485 15.626902 17.140034 15.71875 17.75 L 16.21875 17.75 C 16.126902 17.140034 16.028152 16.338653 15.96875 15.4375 L 16.5625 15.4375 C 16.661726 16.342399 16.783655 17.141723 16.9375 17.75 L 17.4375 17.75 C 17.283724 17.137262 17.162545 16.343238 17.0625 15.4375 L 17.625 15.4375 C 17.738333 16.2775 17.920832 17.05 18.1875 17.75 L 18.6875 17.75 C 18.4475 17.11 18.243751 16.315 18.09375 15.375 C 17.94375 14.435 17.841249 13.365 17.78125 12.125 C 18.814583 11.758333 19.325834 10.769583 19.3125 9.15625 C 19.325833 7.51625 18.814582 6.5029166 17.78125 6.15625 C 17.83125 4.8695833 17.94375 3.7158333 18.09375 2.6875 C 18.24375 1.6591667 18.4375 0.77 18.6875 0 L 18.1875 0 C 17.894167 0.94666667 17.677916 2.03 17.53125 3.25 L 17 3.25 C 17.108591 1.9844798 17.24257 0.87572709 17.4375 0 L 16.9375 0 C 16.74839 0.87572709 16.637831 1.9844798 16.53125 3.25 L 15.9375 3.25 C 16.001545 1.9751626 16.10451 0.87584476 16.21875 0 L 15.71875 0 C 15.604509 0.87584476 15.532795 1.9764496 15.46875 3.25 L 14.875 3.25 L 14.875 0 L 14.4375 0 L 14.4375 3.25 L 13.8125 3.25 C 13.746906 1.9813254 13.678919 0.87605144 13.5625 0 L 13.0625 0 C 13.178919 0.87605144 13.278156 1.9825961 13.34375 3.25 L 12.75 3.25 C 12.641992 1.9927228 12.534141 0.87406851 12.34375 0 L 11.84375 0 C 12.041154 0.87961066 12.17107 1.9835698 12.28125 3.25 L 11.75 3.25 C 11.603333 2.0433333 11.387083 0.96 11.09375 0 L 10.625 0 C 10.865 0.76333333 11.0375 1.6545833 11.1875 2.65625 C 11.3375 3.6579167 11.44 4.7599998 11.5 6 L 9.65625 6 L 7.8125 6 C 7.8725 4.7533333 7.9800004 3.6266667 8.125 2.625 C 8.27 1.6233333 8.4575004 0.75666667 8.6875 0 L 8.25 0 C 7.9566667 0.92666667 7.7225001 2.01 7.5625 3.25 L 7.03125 3.25 C 7.1411145 1.9816665 7.2737886 0.87587154 7.46875 0 L 7 0 C 6.8079484 0.87587154 6.6707248 1.9791263 6.5625 3.25 L 6 3.25 C 6.0639539 1.9795226 6.1364917 0.87023047 6.25 0 L 5.78125 0 C 5.6677417 0.87023047 5.563954 1.9820638 5.5 3.25 L 4.90625 3.25 L 4.90625 0 L 4.4375 0 L 4.4375 3.25 L 3.84375 3.25 C 3.7830757 1.9787841 3.7014374 0.87605144 3.59375 0 L 3.125 0 C 3.2385083 0.87605144 3.3110461 1.9787842 3.375 3.25 L 2.8125 3.25 C 2.7061241 1.9924097 2.5625422 0.87423535 2.375 0 L 1.90625 0 C 2.0995628 0.87423535 2.234101 1.9924097 2.34375 3.25 L 1.78125 3.25 C 1.6479167 2.01 1.4183333 0.92666667 1.125 0 L 0.65625 0 z M 1.84375 3.8125 L 2.40625 3.8125 C 2.5179167 5.3341666 2.5625 7.0916666 2.5625 9.125 C 2.5594629 10.04827 2.5560783 10.88633 2.53125 11.6875 L 2.03125 11.6875 C 2.0579167 11.0075 2.0625001 10.158333 2.0625 9.125 C 2.0625 6.945 2.00375 5.1791668 1.84375 3.8125 z M 2.875 3.8125 L 3.40625 3.8125 C 3.470431 5.3278049 3.5 7.0978927 3.5 9.125 C 3.5 10.045222 3.5134895 10.887992 3.5 11.6875 L 3 11.6875 C 3.0224831 10.88633 3.03125 10.04827 3.03125 9.125 C 3.03125 7.0916666 2.9833333 5.3341667 2.875 3.8125 z M 3.875 3.8125 L 4.4375 3.8125 L 4.4375 9.125 L 4.4375 11.6875 L 3.9375 11.6875 C 3.950298 10.887983 3.96875 10.045233 3.96875 9.125 C 3.96875 7.0979031 3.9358891 5.3277998 3.875 3.8125 z M 4.90625 3.8125 L 5.46875 3.8125 C 5.4045696 5.3245085 5.3749999 7.0979033 5.375 9.125 C 5.375 10.045233 5.3927602 10.887292 5.40625 11.6875 L 4.90625 11.6875 L 4.90625 9.125 L 4.90625 3.8125 z M 5.96875 3.8125 L 6.5 3.8125 C 6.3913844 5.327812 6.3437499 7.0978783 6.34375 9.125 C 6.34375 10.045233 6.3521711 10.887983 6.375 11.6875 L 5.875 11.6875 C 5.8615105 10.889645 5.875 10.042185 5.875 9.125 C 5.875 7.0912683 5.904569 5.3278468 5.96875 3.8125 z M 6.96875 3.8125 L 7.5 3.8125 C 7.3533333 5.1525 7.2812498 6.9362504 7.28125 9.15625 C 7.28125 10.085239 7.3090754 10.894058 7.34375 11.6875 L 6.84375 11.6875 C 6.8205752 10.887292 6.8125 10.045233 6.8125 9.125 C 6.8125 7.1045029 6.8584888 5.3244788 6.96875 3.8125 z M 11.8125 3.8125 L 12.34375 3.8125 C 12.454008 5.3261834 12.534562 7.1076559 12.53125 9.125 C 12.529713 10.061095 12.493323 10.908114 12.46875 11.71875 L 12 11.71875 C 12.032458 10.912435 12.0625 10.073049 12.0625 9.125 C 12.0625 6.9783333 11.9725 5.2125001 11.8125 3.8125 z M 12.8125 3.8125 L 13.375 3.8125 C 13.440826 5.3227999 13.46875 7.0765897 13.46875 9.09375 C 13.46875 10.030683 13.451701 10.90679 13.4375 11.71875 L 12.9375 11.71875 C 12.960891 10.909296 13 10.059557 13 9.125 C 13 7.0916666 12.9225 5.3341667 12.8125 3.8125 z M 13.84375 3.8125 L 14.4375 3.8125 L 14.40625 11.71875 L 13.9375 11.71875 C 13.951675 10.908616 13.9375 10.059519 13.9375 9.125 C 13.9375 7.1045173 13.909577 5.3244717 13.84375 3.8125 z M 14.875 3.8125 L 15.4375 3.8125 C 15.374134 5.3114763 15.34375 7.0614711 15.34375 9.0625 C 15.34375 10.012142 15.360822 10.89671 15.375 11.71875 L 14.875 11.71875 L 14.875 3.8125 z M 15.90625 3.8125 L 16.46875 3.8125 C 16.36178 5.3211456 16.3125 7.0798775 16.3125 9.09375 C 16.3125 10.042647 16.320157 10.897981 16.34375 11.71875 L 15.84375 11.71875 C 15.829594 10.898448 15.8125 10.041092 15.8125 9.09375 C 15.8125 7.0894297 15.842884 5.3131427 15.90625 3.8125 z M 16.9375 3.8125 L 17.46875 3.8125 C 17.30875 5.1791667 17.25 6.9404165 17.25 9.09375 C 17.25 10.140417 17.272501 11.012083 17.3125 11.71875 L 16.8125 11.71875 C 16.787714 10.89964 16.782806 10.039536 16.78125 9.09375 C 16.777938 7.0798776 16.828905 5.3211456 16.9375 3.8125 z M 7.8125 6.59375 L 9.65625 6.59375 L 11.53125 6.59375 C 11.557917 7.29375 11.5625 8.1249999 11.5625 9.125 C 11.5625 10.059558 11.534023 10.909296 11.5 11.71875 L 7.8125 11.6875 C 7.7793645 10.892699 7.7499999 10.069442 7.75 9.15625 C 7.75 8.1095833 7.7858331 7.2604168 7.8125 6.59375 z M 1.5625 6.78125 C 1.5891667 7.40125 1.625 8.1783332 1.625 9.125 L 1.5625 11.46875 C 0.89583333 11.122083 0.56250001 10.362917 0.5625 9.15625 C 0.5625 7.93625 0.89583328 7.1412498 1.5625 6.78125 z M 17.75 6.78125 C 18.403333 7.1279167 18.75 7.9229171 18.75 9.15625 C 18.75 10.37625 18.403333 11.146667 17.75 11.5 C 17.723333 10.846667 17.718751 10.05375 17.71875 9.09375 C 17.71875 8.1604167 17.723333 7.3879165 17.75 6.78125 z M 2 12.28125 L 2.5 12.28125 C 2.4617602 13.248882 2.4164185 14.100277 2.34375 14.875 L 1.84375 14.875 C 1.9304167 14.095 1.9733333 13.24125 2 12.28125 z M 2.96875 12.28125 L 3.5 12.28125 C 3.478693 13.24768 3.4176352 14.09943 3.375 14.875 L 2.8125 14.875 C 2.8835368 14.100277 2.9332349 13.248882 2.96875 12.28125 z M 3.9375 12.28125 L 4.4375 12.28125 L 4.40625 14.875 L 3.84375 14.875 C 3.8841943 14.099514 3.9172856 13.247553 3.9375 12.28125 z M 4.90625 12.28125 L 5.40625 12.28125 C 5.427557 13.248646 5.4573695 14.097328 5.5 14.875 L 4.90625 14.875 L 4.90625 12.28125 z M 5.875 12.28125 L 6.40625 12.28125 C 6.4423115 13.24725 6.4903704 14.099723 6.5625 14.875 L 6 14.875 C 5.9573648 14.098876 5.896307 13.246046 5.875 12.28125 z M 6.875 12.28125 L 7.375 12.28125 C 7.4299789 13.259254 7.5128449 14.120503 7.625 14.875 L 7.03125 14.875 C 6.9580275 14.097538 6.9116079 13.248343 6.875 12.28125 z M 11.96875 12.28125 L 12.4375 12.28125 C 12.400076 13.250245 12.354195 14.099462 12.28125 14.875 L 11.75 14.875 C 11.85194 14.120643 11.918769 13.262494 11.96875 12.28125 z M 12.90625 12.28125 L 13.4375 12.28125 C 13.415647 13.251642 13.387474 14.097066 13.34375 14.875 L 12.75 14.875 C 12.822173 14.100045 12.870174 13.249268 12.90625 12.28125 z M 13.9375 12.28125 L 14.40625 12.28125 L 14.40625 14.875 L 13.8125 14.875 C 13.856228 14.097797 13.915647 13.250406 13.9375 12.28125 z M 14.875 12.28125 L 15.375 12.28125 C 15.396516 13.250264 15.425983 14.097253 15.46875 14.875 L 14.875 14.875 L 14.875 12.28125 z M 15.84375 12.28125 L 16.375 12.28125 C 16.410526 13.24185 16.460857 14.103751 16.53125 14.875 L 15.9375 14.875 C 15.894733 14.098062 15.865266 13.24891 15.84375 12.28125 z M 16.84375 12.28125 L 17.3125 12.28125 C 17.359167 13.18125 17.449168 14.048333 17.5625 14.875 L 17 14.875 C 16.928842 14.103437 16.880606 13.239868 16.84375 12.28125 z "
     id="path2436" />
</svg>
