<?xml version="1.0" encoding="UTF-8" standalone="no"?>
<svg
   xmlns:dc="http://purl.org/dc/elements/1.1/"
   xmlns:cc="http://creativecommons.org/ns#"
   xmlns:rdf="http://www.w3.org/1999/02/22-rdf-syntax-ns#"
   xmlns:svg="http://www.w3.org/2000/svg"
   xmlns="http://www.w3.org/2000/svg"
   xmlns:sodipodi="http://sodipodi.sourceforge.net/DTD/sodipodi-0.dtd"
   xmlns:inkscape="http://www.inkscape.org/namespaces/inkscape"
   width="8.63"
   height="17.98"
   id="svg2434"
   sodipodi:version="0.32"
   inkscape:version="0.46"
   sodipodi:docname="S134.svg"
   inkscape:output_extension="org.inkscape.output.svg.inkscape">
  <metadata
     id="metadata2441">
    <rdf:RDF>
      <cc:Work
         rdf:about="">
        <dc:format>image/svg+xml</dc:format>
        <dc:type
           rdf:resource="http://purl.org/dc/dcmitype/StillImage" />
      </cc:Work>
    </rdf:RDF>
  </metadata>
  <defs
     id="defs2439">
    <inkscape:perspective
       sodipodi:type="inkscape:persp3d"
       inkscape:vp_x="0 : 8.9899998 : 1"
       inkscape:vp_y="0 : 1000 : 0"
       inkscape:vp_z="8.6300001 : 8.9899998 : 1"
       inkscape:persp3d-origin="4.3150001 : 5.9933332 : 1"
       id="perspective2443" />
  </defs>
  <sodipodi:namedview
     inkscape:window-height="708"
     inkscape:window-width="1024"
     inkscape:pageshadow="2"
     inkscape:pageopacity="0.0"
     guidetolerance="10.0"
     gridtolerance="10.0"
     objecttolerance="10.0"
     borderopacity="1.0"
     bordercolor="#666666"
     pagecolor="#ffffff"
     id="base"
     showgrid="false"
     inkscape:zoom="51.390435"
     inkscape:cx="4.3150001"
     inkscape:cy="13.66013"
     inkscape:window-x="-4"
     inkscape:window-y="-4"
     inkscape:current-layer="svg2434" />
  <path
     style="fill:#000000; stroke:none"
     d="M 5.19,2.53 C 3.7966667,2.53 3.1,3.2366667 3.1,4.65 C 3.1,6.0233333 3.7966667,7.53 5.19,9.17 L 5.24,9.17 C 6.6333333,7.53 7.33,6.0233333 7.33,4.65 C 7.33,3.2366667 6.6166667,2.53 5.19,2.53 z M 0.37,2.04 L 0.37,2.26 L 0.79,2.26 C 1.1966667,2.26 1.4,2.5633333 1.4,3.17 C 1.4,3.83 1.59,4.1833333 1.97,4.23 L 2.39,4.23 L 2.41,3.93 L 1.99,3.93 C 1.81,3.93 1.72,3.6266667 1.72,3.02 C 1.72,2.3666667 1.41,2.04 0.79,2.04 L 0.37,2.04 z M 5.98,1.99 C 5.7466667,1.7966667 5.63,1.3466667 5.63,0.64 L 4.72,0.64 C 4.72,1.36 4.6066667,1.81 4.38,1.99 L 5.98,1.99 z M 7.23,0.64 L 6.03,0.64 C 6.03,1.38 6.3233333,1.88 6.91,2.14 C 7.5033333,2.4 8.1107143,3.4117965 8.09,4.65 C 8.09,6.2233333 7.31,7.8133333 5.75,9.42 C 6.1633333,9.42 7.1166667,9.24 8.61,8.88 L 8.63,8.95 L 8.63,10.38 L 8.58,10.5 L 5.68,10.13 C 5.68,13.656667 5.7466667,16.273333 5.88,17.98 L 4.55,17.98 C 4.6833333,16.273333 4.75,13.656667 4.75,10.13 L 1.84,10.5 L 1.8,10.38 L 1.8,8.95 L 1.82,8.88 C 3.3133333,9.24 4.2633333,9.42 4.67,9.42 C 3.13,7.8133333 2.36,6.19 2.36,4.55 L 1.97,4.55 C 1.3766667,4.55 1.08,4.09 1.08,3.17 C 1.08,2.7766667 0.98333333,2.58 0.79,2.58 L 0,2.58 L 0,1.72 L 0.79,1.72 C 1.6233333,1.72 2.04,2.1533333 2.04,3.02 C 2.04,3.42 2.1066667,3.62 2.24,3.62 L 2.46,3.62 C 2.8533333,2.8133333 3.2666667,2.3 3.7,2.08 C 4.1333333,1.86 4.35,1.38 4.35,0.64 L 3.1,0.64 L 3.1,0 L 7.23,0 L 7.23,0.64 z"
     id="path2436"
     sodipodi:nodetypes="csccsccccsccccscccccccccscccccccccccccccccsccccsccsccccc" />
</svg>
