<?xml version="1.0" encoding="UTF-8" standalone="no"?>
<svg
   xmlns:dc="http://purl.org/dc/elements/1.1/"
   xmlns:cc="http://creativecommons.org/ns#"
   xmlns:rdf="http://www.w3.org/1999/02/22-rdf-syntax-ns#"
   xmlns:svg="http://www.w3.org/2000/svg"
   xmlns="http://www.w3.org/2000/svg"
   xmlns:sodipodi="http://sodipodi.sourceforge.net/DTD/sodipodi-0.dtd"
   xmlns:inkscape="http://www.inkscape.org/namespaces/inkscape"
   width="1800"
   height="1800"
   id="svg2"
   sodipodi:version="0.32"
   inkscape:version="0.46"
   sodipodi:docname="US248S14C.svg"
   inkscape:output_extension="org.inkscape.output.svg.inkscape"
   version="1.0">
  <metadata
     id="metadata9">
    <rdf:RDF>
      <cc:Work
         rdf:about="">
        <dc:format>image/svg+xml</dc:format>
        <dc:type
           rdf:resource="http://purl.org/dc/dcmitype/StillImage" />
      </cc:Work>
    </rdf:RDF>
  </metadata>
  <defs
     id="defs7">
    <inkscape:perspective
       sodipodi:type="inkscape:persp3d"
       inkscape:vp_x="0 : 4.3515625 : 1"
       inkscape:vp_y="0 : 1000 : 0"
       inkscape:vp_z="18.28125 : 4.3515625 : 1"
       inkscape:persp3d-origin="9.140625 : 2.9010417 : 1"
       id="perspective11" />
    <inkscape:perspective
       id="perspective2522"
       inkscape:persp3d-origin="2.5666926 : 5.9924723 : 1"
       inkscape:vp_z="5.1333852 : 8.9887085 : 1"
       inkscape:vp_y="0 : 1000 : 0"
       inkscape:vp_x="0 : 8.9887085 : 1"
       sodipodi:type="inkscape:persp3d" />
  </defs>
  <sodipodi:namedview
     inkscape:window-height="912"
     inkscape:window-width="1280"
     inkscape:pageshadow="2"
     inkscape:pageopacity="0.0"
     guidetolerance="10.0"
     gridtolerance="10.0"
     objecttolerance="10.0"
     borderopacity="1.0"
     bordercolor="#666666"
     pagecolor="#ffffff"
     id="base"
     showgrid="false"
     inkscape:zoom="0.39388889"
     inkscape:cx="900"
     inkscape:cy="900"
     inkscape:window-x="1280"
     inkscape:window-y="22"
     inkscape:current-layer="svg2" />
  <path
     style="fill:#000000;stroke:none"
     d="M 1002.2812 -0.625 C 992.88875 -0.43667719 980.87672 2.1036068 966.1875 7 C 925.20849 38.336917 875.1831 86.54062 816.125 151.625 C 767.91428 187.783 735.98096 225.15022 720.3125 263.71875 C 716.6967 274.5662 705.82902 298.36438 687.75 335.125 C 669.67099 371.88564 644.35469 448.13812 611.8125 563.84375 C 614.22304 626.51756 629.91738 633.1347 658.84375 583.71875 C 668.4859 553.58702 682.32726 512.3041 700.40625 459.875 C 718.48525 407.44591 747.41369 363.76523 787.1875 328.8125 C 810.08753 310.73349 829.36269 298.6826 845.03125 292.65625 C 881.18924 292.65625 899.28122 316.75804 899.28125 364.96875 L 899.28125 692.96875 L 125.90625 692.96875 C 43.653541 692.96875 2.5312501 749.4963 2.53125 862.59375 L 2.53125 1550.4375 L 196.875 1550.4375 L 196.875 907.34375 C 196.875 896.03401 200.45914 890.37499 207.65625 890.375 C 281.68368 967.48692 375.74934 1035.8355 489.875 1095.4688 L 332.5625 1252.7812 C 463.13868 1348.4001 575.48597 1406.7665 669.5625 1427.8438 C 754.76014 1446.9318 827.08378 1457.7927 886.5625 1460.4375 C 882.63952 1467.1499 877.84847 1473.3702 872.15625 1479.0625 C 832.38242 1507.9889 805.27566 1547.785 790.8125 1598.4062 C 782.37561 1644.2063 785.98781 1706.8586 801.65625 1786.4062 C 814.91416 1796.0484 833.00614 1799.0847 855.90625 1795.4688 C 845.05886 1752.0793 839.62503 1714.1047 839.625 1681.5625 C 833.59863 1615.2728 851.65942 1567.069 893.84375 1536.9375 C 904.69112 1528.5007 918.56378 1524.2813 935.4375 1524.2812 C 954.72176 1524.2812 969.20161 1527.2862 978.84375 1533.3125 C 1019.8228 1564.6494 1037.2764 1614.0676 1031.25 1681.5625 C 1031.25 1714.1047 1025.8474 1751.4718 1015 1793.6562 C 1037.9001 1798.4773 1055.9606 1796.0485 1069.2188 1786.4062 C 1084.8872 1706.8586 1089.1066 1644.8137 1081.875 1600.2188 C 1068.6172 1548.3922 1042.6936 1507.9889 1004.125 1479.0625 C 996.03054 1472.1822 989.44661 1464.5303 984.34375 1456.1562 C 1030.2936 1451.0398 1082.1593 1441.8543 1139.9375 1428.5938 C 1234.014 1407.0024 1346.8643 1348.4001 1478.4688 1252.7812 L 1319.625 1095.4688 C 1433.7506 1035.8355 1527.8164 967.99001 1601.8438 891.90625 C 1609.0409 891.90625 1612.625 897.06217 1612.625 907.34375 L 1612.625 1552 L 1806.9688 1552 L 1806.9688 862.59375 C 1807.9969 749.49627 1766.8747 692.96874 1683.5938 692.96875 L 971.59375 692.96875 L 971.59375 364.96875 C 970.38847 269.75266 936.02615 220.33457 868.53125 216.71875 C 886.61024 186.5871 920.97259 146.215 971.59375 95.59375 C 994.49381 83.541102 1012.5859 62.444118 1025.8438 32.3125 C 1030.8155 9.9396614 1022.945 -1.0393101 1002.2812 -0.625 z M 96.625 739.21875 C 118.21634 777.26063 145.97701 817.87986 179.90625 861.0625 C 166.54019 861.0625 156.7627 875.96466 150.59375 905.78125 L 150.59375 1504.1875 L 50.34375 1504.1875 L 50.34375 848.71875 C 56.512703 775.71948 71.949193 739.21873 96.625 739.21875 z M 159.84375 740.78125 L 1649.6562 740.78125 C 1588.995 847.70977 1490.0404 942.04265 1352.7812 1023.7812 C 1215.522 1105.5199 1066.171 1147.4124 904.75 1149.4688 C 744.35721 1146.3843 595.27328 1103.9574 457.5 1022.2188 C 319.7267 940.48005 220.50511 846.6816 159.84375 740.78125 z M 1714.4375 740.78125 C 1738.0851 740.78125 1752.9874 776.74765 1759.1562 848.71875 L 1759.1562 1504.1875 L 1660.4375 1504.1875 L 1660.4375 905.78125 C 1653.2403 876.99279 1642.9598 862.59378 1629.5938 862.59375 C 1663.523 818.38291 1691.818 777.79496 1714.4375 740.78125 z M 528.4375 1117.0625 C 607.60574 1162.3015 733.04751 1191.0996 904.75 1203.4375 C 1076.4525 1192.1278 1201.8942 1163.3295 1281.0625 1117.0625 L 1409.0625 1245.0938 C 1272.3174 1345.8534 1104.2128 1401.3746 904.75 1411.6562 C 705.28718 1400.3465 537.18266 1344.8253 400.4375 1245.0938 L 528.4375 1117.0625 z "
     id="path2549" />
</svg>
