<?xml version="1.0" encoding="UTF-8" standalone="no"?>
<svg
   xmlns:dc="http://purl.org/dc/elements/1.1/"
   xmlns:cc="http://web.resource.org/cc/"
   xmlns:rdf="http://www.w3.org/1999/02/22-rdf-syntax-ns#"
   xmlns:svg="http://www.w3.org/2000/svg"
   xmlns="http://www.w3.org/2000/svg"
   xmlns:sodipodi="http://sodipodi.sourceforge.net/DTD/sodipodi-0.dtd"
   xmlns:inkscape="http://www.inkscape.org/namespaces/inkscape"
   width="1800"
   height="1800"
   id="svg3054"
   sodipodi:version="0.32"
   inkscape:version="0.45.1"
   sodipodi:docname="S152.svg"
   sodipodi:docbase="/Users/rosmord/Travail/Gsigns/Distribution"
   inkscape:output_extension="org.inkscape.output.svg.inkscape"
   version="1.0">
  <metadata
     id="metadata3061">
    <rdf:RDF>
      <cc:Work
         rdf:about="">
        <dc:format>image/svg+xml</dc:format>
        <dc:type
           rdf:resource="http://purl.org/dc/dcmitype/StillImage" />
      </cc:Work>
    </rdf:RDF>
  </metadata>
  <defs
     id="defs3059" />
  <sodipodi:namedview
     inkscape:window-height="581"
     inkscape:window-width="701"
     inkscape:pageshadow="2"
     inkscape:pageopacity="0.0"
     guidetolerance="10.0"
     gridtolerance="10.0"
     objecttolerance="10.0"
     borderopacity="1.0"
     bordercolor="#666666"
     pagecolor="#ffffff"
     id="base"
     inkscape:zoom="0.21"
     inkscape:cx="900"
     inkscape:cy="1442.6007"
     inkscape:window-x="457"
     inkscape:window-y="87"
     inkscape:current-layer="svg3054"
     width="1800px"
     height="1800px" />
  <path
     style="fill:#000000;stroke:none"
     d="M 559.8125,2.21875 C 469.75595,-2.7206219 452.76443,100.78617 478.81823,170.86217 C 511.06559,257.59679 526.63771,350.74422 550.65625,440.65625 C 422.33155,451.31417 309.65016,537.14077 256.11044,652.84314 C 199.08188,718.48439 315.71707,756.98636 322.47876,674.63528 C 369.2207,576.73134 469.47601,509.72716 578.36904,506.79661 C 723.16979,495.37422 886.51791,531.52021 975.01517,656.3698 C 986.19669,728.06905 1096.761,699.37507 1045.8199,637.2811 C 955.67163,497.27363 784.93992,433.08171 623.53125,436.34375 C 633.62446,370.03088 744.70447,369.36403 679.84668,298.45928 C 653.30622,240.10115 625.75112,182.14857 602.25,122.46875 C 635.05489,83.469486 617.31471,3.5252843 559.8125,2.21875 z M 558.5,59.96875 C 537.14938,109.64756 550.83142,167.84278 580.54747,219.38896 C 600.75357,263.8446 648.8374,347.05502 583.85808,349.21084 C 562.67531,269.69221 540.97126,190.31219 520.1875,110.6875 C 518.41085,87.213773 531.47621,58.980146 558.5,59.96875 z M 744.21875,556.65625 C 683.88052,563.4141 650.20361,624.43103 607.46192,661.55218 C 532.69099,715.36072 501.34188,804.90272 472.84429,888.67874 C 459.39543,921.29917 416.86525,1046.9054 483.46875,1017.0312 C 521.81738,953.34485 522.46217,867.4517 584.2505,817.32964 C 631.58818,755.74634 657.79663,820.46993 657.79663,875.25386 C 658.08734,1086.655 657.8184,1298.0644 658,1509.4688 C 640.12038,1565.4339 569.72943,1599.4296 574.72034,1667.7959 C 577.54894,1716.804 564.07502,1819.0397 643.34375,1794.7188 C 630.68295,1734.9513 610.31411,1658.6855 658.74357,1609.5906 C 743.40062,1554.4271 774.10143,1688.9935 751.36556,1749.1803 C 709.75577,1813.8751 817.4035,1809.674 804.84103,1749.6114 C 820.99822,1676.1152 810.31898,1588.6028 742.59375,1543.5312 C 710.91064,1478.9649 734.00617,1400.2556 726.94609,1329.5639 C 726.38932,1155.5771 728.76954,981.46577 725.38142,807.55797 C 733.23573,740.87786 630.83266,711.56504 664.63526,707.85608 C 684.89076,659.56791 809.32871,608.2659 747.3125,556.90625 L 744.21875,556.65625 L 744.21875,556.65625 z "
     id="path3056"
     sodipodi:nodetypes="cscccccccccccccccccccccccccccccccccc" />
</svg>
