<?xml version="1.0" encoding="UTF-8" standalone="no"?>
<svg
   xmlns:dc="http://purl.org/dc/elements/1.1/"
   xmlns:cc="http://creativecommons.org/ns#"
   xmlns:rdf="http://www.w3.org/1999/02/22-rdf-syntax-ns#"
   xmlns:svg="http://www.w3.org/2000/svg"
   xmlns="http://www.w3.org/2000/svg"
   xmlns:sodipodi="http://sodipodi.sourceforge.net/DTD/sodipodi-0.dtd"
   xmlns:inkscape="http://www.inkscape.org/namespaces/inkscape"
   width="16.594732"
   height="18.750206"
   id="svg2638"
   sodipodi:version="0.32"
   inkscape:version="0.46"
   sodipodi:docname="S156.svg"
   inkscape:output_extension="org.inkscape.output.svg.inkscape"
   version="1.0">
  <metadata
     id="metadata2645">
    <rdf:RDF>
      <cc:Work
         rdf:about="">
        <dc:format>image/svg+xml</dc:format>
        <dc:type
           rdf:resource="http://purl.org/dc/dcmitype/StillImage" />
      </cc:Work>
    </rdf:RDF>
  </metadata>
  <defs
     id="defs2643">
    <inkscape:perspective
       sodipodi:type="inkscape:persp3d"
       inkscape:vp_x="0 : 9.3671875 : 1"
       inkscape:vp_y="0 : 1000 : 0"
       inkscape:vp_z="4.8413091 : 9.3671875 : 1"
       inkscape:persp3d-origin="2.4206545 : 6.2447917 : 1"
       id="perspective2647" />
  </defs>
  <sodipodi:namedview
     inkscape:window-height="712"
     inkscape:window-width="1024"
     inkscape:pageshadow="2"
     inkscape:pageopacity="0.0"
     guidetolerance="10.0"
     gridtolerance="10.0"
     objecttolerance="10.0"
     borderopacity="1.0"
     bordercolor="#666666"
     pagecolor="#ffffff"
     id="base"
     showgrid="false"
     inkscape:zoom="34.84584"
     inkscape:cx="6.2802321"
     inkscape:cy="9.3751032"
     inkscape:window-x="-4"
     inkscape:window-y="-4"
     inkscape:current-layer="svg2638" />
  <path
     style="fill:#000000;stroke:none"
     d="M 6.6572321,0 C 6.9905654,2.3645833 6.9697321,4.4791667 6.6259821,6.375 C 6.0113988,6.6666667 5.7718155,6.9218753 5.8759821,7.125 C 5.9801488,7.3281253 6.1051488,7.3854167 6.2509821,7.3125 C 6.7599719,7.8829195 7.1784999,8.5646433 7.5322321,9.3125 C 7.4615928,9.2900624 7.3828802,9.275332 7.3134821,9.25 C 4.1818401,8.7606222 4.6349923,6.2052679 2.2044191,6.3852087 C 1.3149514,6.4746989 0.56404093,6.80314 0.28796044,8.2570326 C -0.24763634,11.520908 2.8914587,11.099197 7.1884821,10.4375 C 7.381035,10.365812 7.5651705,10.339682 7.7509821,10.34375 C 7.8552274,11.914577 7.8333119,14.298019 7.6572321,17.625 C 7.6572321,18.375 7.8551487,18.760417 8.2509821,18.75 L 8.2822321,18.75 C 8.6780654,18.760417 8.8759821,18.375 8.8759821,17.625 C 8.7244331,14.602438 8.6847689,12.354331 8.7509821,10.78125 C 8.782803,10.808162 8.8131389,10.814279 8.8447321,10.84375 C 10.650305,13.252684 11.797605,15.90215 12.282232,18.75 L 13.282232,18.71875 C 12.442127,15.112126 11.239088,12.230713 9.7822321,10.5 C 10.220208,10.3747 11.083031,10.442199 12.375982,10.75 C 13.66893,11.0578 14.696378,12.26295 15.594732,15.0625 L 16.594732,15 C 16.033479,12.536544 15.277251,11.816957 14.469732,11 C 13.554698,10.074271 11.899431,9.4780037 9.1572321,9.5625 C 9.0691124,9.5609394 8.9938328,9.5363526 8.9072321,9.53125 C 9.2781638,8.6953311 9.7256541,7.9362514 10.282232,7.3125 C 10.428065,7.3854167 10.553066,7.3281253 10.657232,7.125 C 10.761399,6.9218753 10.521816,6.6666667 9.9072321,6.375 C 9.5634821,4.4791667 9.5634823,2.3645833 9.9072321,0 L 6.6572321,0 z M 7.2509821,0.5 L 9.2822321,0.5 C 9.1988988,1.3020833 9.1572321,2.1875 9.1572321,3.1875 C 9.1572321,4.1875 9.2093154,5.1979167 9.3134821,6.21875 C 9.0843154,6.1041667 8.7509821,6.0625 8.2822321,6.0625 C 7.8030654,6.0625 7.4384821,6.1041667 7.2197321,6.21875 C 7.3238988,5.1979167 7.3811907,4.1875 7.3759821,3.1875 C 7.3707741,2.1875 7.3238987,1.3020833 7.2509821,0.5 z M 8.2822321,6.6875 C 8.7509821,6.6979167 9.2301487,6.8229167 9.7197321,7.0625 L 9.5322321,7.40625 C 9.0947321,7.3333333 8.7822321,7.4270833 8.5947321,7.6875 C 8.5113988,7.3229167 8.4072321,7.0833333 8.2822321,7 C 8.1572321,7.0833333 8.0322321,7.3229167 7.9384821,7.6875 C 7.7509821,7.4270833 7.4384821,7.3333333 7.0009821,7.40625 L 6.8134821,7.0625 C 7.3134821,6.8229167 7.8134821,6.6979167 8.2822321,6.6875 z M 2.7146278,7.4661978 C 3.8441169,7.7983875 3.4454113,8.9524404 6.3970234,9.7735935 C 2.9593826,9.8831624 0.86842982,10.733247 1.1993148,8.3507825 C 1.3451388,7.4946678 1.7843934,7.1635719 2.7146278,7.4661978 z M 7.1884821,7.6875 C 7.5113988,7.6458333 7.6936907,7.7708333 7.7822321,8.03125 C 7.8707741,8.2916667 7.964524,8.4947925 8.0634821,8.65625 C 8.1624408,8.8177087 8.2509821,8.90625 8.2822321,8.90625 C 8.3134821,8.90625 8.3759821,8.8177091 8.4697321,8.65625 C 8.5634821,8.494792 8.6311907,8.2916667 8.7197321,8.03125 C 8.8082741,7.7708333 9.0218154,7.6458333 9.3447321,7.6875 C 8.8655654,8.8125 8.5218154,9.375 8.2822321,9.375 C 8.0426488,9.375 7.6780654,8.8125 7.1884821,7.6875 z M 8.2822321,7.6875 C 8.3863988,7.7708333 8.4124407,7.9010409 8.3759821,8.0625 C 8.3395241,8.223958 8.3134821,8.3541667 8.2822321,8.5 C 8.2405654,8.3541667 8.1936907,8.2239575 8.1572321,8.0625 C 8.1207741,7.9010413 8.1676487,7.7708333 8.2822321,7.6875 z"
     id="path2640"
     sodipodi:nodetypes="ccsccccccccccccccccsccscccscccccscscscccccccccccccccssssscsccscsc" />
</svg>
