<?xml version="1.0" encoding ="US-ASCII" standalone="yes"?>
<svg width="13.281747" height="17.977417">
<path style="fill:#000000; stroke:none" d=" M 8.067163 2.186128  Q 8.067163 1.627968 7.695055 1.116321  Q 7.229922 0.48839 6.648505 0.48839  Q 5.997317 0.465134 5.462414 1.162834  Q 5.160077 1.627968 5.160077 2.186128  Q 5.090307 2.651262 5.34613 3.255936  Q 5.76475 3.907123 6.625248 3.953636  Q 7.392718 3.976893 7.764825 3.279192  Q 8.136932 2.651262 8.067163 2.186128  Z  M 6.346168 13.860984  Q 6.578734 14.070294 6.346168 14.349374  Q 6.183371 14.349374 6.055459 14.837765  Q 5.927547 15.326155 5.927547 15.814546  Q 5.927547 16.302937 6.055459 16.779697  Q 6.183371 17.25646 6.648505 17.25646  Q 7.090382 17.25646 7.229922 16.779697  Q 7.369462 16.302937 7.369462 15.814546  Q 7.369462 15.326155 7.24155 14.837765  Q 7.113638 14.349374 6.950841 14.349374  Q 6.741531 14.070294 6.950841 13.860984  Q 7.113638 13.860984 7.24155 13.407478  Q 7.369462 12.953973 7.369462 12.465583  Q 7.369462 11.977193 7.24155 11.50043  Q 7.113638 11.023668 6.950841 11.023668  Q 6.741531 10.744588 6.950841 10.512021  Q 7.113638 10.512021 7.24155 10.070145  Q 7.369462 9.628267 7.369462 9.139877  Q 7.369462 8.651486 7.24155 8.163096  Q 7.113638 7.674706 6.950841 7.674706  Q 6.741531 7.418882 6.950841 7.186316  Q 7.113638 7.186316 7.24155 6.697925  Q 7.369462 6.209535 7.369462 5.744401  Q 7.369462 5.256011 7.218293 4.755992  Q 7.067125 4.255973 6.648505 4.255973  Q 6.206628 4.255973 6.067088 4.755992  Q 5.927547 5.256011 5.927547 5.732773  Q 5.927547 6.209535 6.055459 6.697925  Q 6.183371 7.186316 6.346168 7.186316  Q 6.578734 7.418882 6.346168 7.674706  Q 6.183371 7.674706 6.055459 8.163096  Q 5.927547 8.651486 5.927547 9.139877  Q 5.927547 9.628267 6.067088 10.070145  Q 6.206628 10.512021 6.346168 10.512021  Q 6.578734 10.744588 6.346168 11.023668  Q 6.183371 11.023668 6.055459 11.50043  Q 5.927547 11.977193 5.927547 12.465583  Q 5.927547 12.953973 6.055459 13.407478  Q 6.183371 13.860984 6.346168 13.860984  Z  M 1.13667 12.093476  Q 1.322724 12.349299 1.113414 12.62838  Q 0.950617 12.62838 0.811077 13.105142  Q 0.671537 13.581903 0.671537 14.070294  Q 0.671537 14.558684 0.811077 15.047074  Q 0.950617 15.535465 1.392494 15.535465  Q 1.834371 15.535465 1.973911 15.047074  Q 2.113451 14.558684 2.113451 14.070294  Q 2.113451 13.581903 1.985539 13.105142  Q 1.857628 12.62838 1.694831 12.62838  Q 1.485521 12.372556 1.718088 12.20976  Q 1.880884 12.233016 2.078566 11.826024  Q 2.276248 11.419032 2.346018 10.94227  Q 2.415788 10.465508 2.369275 9.953861  Q 2.322761 9.442214 2.159965 9.418957  Q 1.997168 9.093364 2.252991 9.023594  Q 2.415788 9.093364 2.671612 8.732885  Q 2.927435 8.372406 3.10186 7.93053  Q 3.276285 7.488652 3.31117 6.988634  Q 3.346056 6.488615 3.206515 6.395588  Q 3.066975 6.093251 3.369312 6.093251  Q 3.485595 6.209535 3.846074 5.942083  Q 4.206553 5.674631 4.474005 5.290895  Q 4.741457 4.90716 4.904253 4.430398  Q 5.06705 3.953636 4.741457 3.628043  Q 4.392606 3.302449 4.020499 3.569901  Q 3.648392 3.837353 3.38094 4.20946  Q 3.113489 4.581567 2.950692 5.058329  Q 2.787895 5.535091 2.927435 5.651374  Q 2.973948 6.000225 2.671612 6.139765  Q 2.508815 6.046738 2.218106 6.442101  Q 1.927398 6.837465 1.764601 7.29097  Q 1.601804 7.744476 1.578547 8.221238  Q 1.555291 8.698 1.694831 8.76777  Q 1.857628 9.070107 1.578547 9.279417  Q 1.415751 9.256161 1.20644 9.709665  Q 0.99713 10.163171 0.92736 10.639933  Q 0.85759 11.116695 0.915732 11.581829  Q 0.973874 12.046963 1.13667 12.093476  Z  M 12.137082 12.093476  Q 12.299879 12.046963 12.358021 11.581829  Q 12.416162 11.116695 12.346393 10.639933  Q 12.276622 10.163171 12.067312 9.709665  Q 11.858002 9.256161 11.695205 9.279417  Q 11.439382 9.070107 11.578921 8.76777  Q 11.718462 8.698 11.695205 8.221238  Q 11.671948 7.744476 11.509151 7.29097  Q 11.346354 6.837465 11.055646 6.442101  Q 10.764937 6.046738 10.602141 6.139765  Q 10.323061 6.000225 10.369575 5.651374  Q 10.485858 5.535091 10.323061 5.058329  Q 10.160264 4.581567 9.904441 4.20946  Q 9.648617 3.837353 9.264882 3.569901  Q 8.881146 3.302449 8.555552 3.628043  Q 8.206702 3.953636 8.369499 4.430398  Q 8.532296 4.90716 8.799747 5.290895  Q 9.0672 5.674631 9.427678 5.942083  Q 9.788157 6.209535 9.904441 6.093251  Q 10.206778 6.093251 10.067237 6.395588  Q 9.927697 6.488615 9.962583 6.988634  Q 9.997467 7.488652 10.171892 7.93053  Q 10.346317 8.372406 10.61377 8.732885  Q 10.881221 9.093364 11.020761 9.023594  Q 11.299842 9.093364 11.113788 9.418957  Q 10.974248 9.442214 10.916106 9.953861  Q 10.857965 10.465508 10.939363 10.94227  Q 11.020761 11.419032 11.206815 11.826024  Q 11.392868 12.233016 11.555665 12.20976  Q 11.811488 12.372556 11.578921 12.62838  Q 11.416125 12.62838 11.288213 13.105142  Q 11.160301 13.581903 11.160301 14.070294  Q 11.160301 14.558684 11.31147 15.047074  Q 11.462638 15.535465 11.881259 15.535465  Q 12.346393 15.535465 12.474304 15.047074  Q 12.602216 14.558684 12.602216 14.070294  Q 12.602216 13.581903 12.474304 13.105142  Q 12.346393 12.62838 12.183596 12.62838  Q 11.951029 12.349299 12.137082 12.093476  Z  M 4.043756 2.953599  Q 4.974023 0.674444 5.671724 0.232567  Q 6.043831 0 6.648505 0  Q 7.160151 0 7.625285 0.232567  Q 8.299729 0.674444 9.229997 2.953599  Q 10.602141 3.674556 10.950992 5.395551  Q 12.276622 6.953749 12.183596 8.698  Q 13.183633 10.465508 12.765013 12.186502  Q 13.462713 14.023781 13.218518 15.140101  Q 12.974322 16.256422 11.881259 16.256422  Q 10.811451 16.256422 10.532371 15.093588  Q 10.253291 13.930754 10.974248 12.465583  Q 10.020724 11.139952 10.532371 9.3957  Q 9.34628 8.395663 9.509077 6.628155  Q 8.136932 6.046738 7.881109 4.255973  L 7.578772 4.511797  Q 8.276472 5.837428 7.509002 7.418882  Q 8.276472 9.18639 7.509002 10.721332  Q 8.276472 12.488839 7.509002 14.070294  Q 8.276472 15.651749 7.997392 16.814583  Q 7.718312 17.977417 6.648505 17.977417  Q 5.578697 17.977417 5.322874 16.872725  Q 5.06705 15.768032 5.76475 14.070294  Q 5.06705 12.488839 5.76475 10.721332  Q 5.113564 9.163134 5.76475 7.418882  Q 5.06705 5.837428 5.671724 4.511797  L 5.4159 4.255973  Q 5.13682 6.046738 3.787932 6.628155  Q 3.950729 8.395663 2.741382 9.3957  Q 3.253029 11.139952 2.299505 12.465583  Q 3.043719 13.930754 2.75301 15.093588  Q 2.462301 16.256422 1.392494 16.256422  Q 0.322686 16.256422 0.066863 15.140101  Q -0.188961 14.023781 0.531997 12.186502  Q 0.09012 10.465508 1.090157 8.698  Q 0.99713 6.953749 2.322761 5.395551  Q 2.671612 3.674556 4.067013 2.953599  L 4.043756 2.953599  Z "/></svg>
