<?xml version="1.0" encoding="UTF-8" standalone="no"?>
<svg
   xmlns:dc="http://purl.org/dc/elements/1.1/"
   xmlns:cc="http://creativecommons.org/ns#"
   xmlns:rdf="http://www.w3.org/1999/02/22-rdf-syntax-ns#"
   xmlns:svg="http://www.w3.org/2000/svg"
   xmlns="http://www.w3.org/2000/svg"
   xmlns:sodipodi="http://sodipodi.sourceforge.net/DTD/sodipodi-0.dtd"
   xmlns:inkscape="http://www.inkscape.org/namespaces/inkscape"
   width="21.39"
   height="12.24"
   id="svg2434"
   sodipodi:version="0.32"
   inkscape:version="0.46"
   sodipodi:docname="S188vara.svg"
   inkscape:output_extension="org.inkscape.output.svg.inkscape">
  <metadata
     id="metadata2441">
    <rdf:RDF>
      <cc:Work
         rdf:about="">
        <dc:format>image/svg+xml</dc:format>
        <dc:type
           rdf:resource="http://purl.org/dc/dcmitype/StillImage" />
      </cc:Work>
    </rdf:RDF>
  </metadata>
  <defs
     id="defs2439">
    <inkscape:perspective
       sodipodi:type="inkscape:persp3d"
       inkscape:vp_x="0 : 6.1199999 : 1"
       inkscape:vp_y="0 : 1000 : 0"
       inkscape:vp_z="21.389999 : 6.1199999 : 1"
       inkscape:persp3d-origin="10.695 : 4.0799999 : 1"
       id="perspective2443" />
  </defs>
  <sodipodi:namedview
     inkscape:window-height="708"
     inkscape:window-width="1024"
     inkscape:pageshadow="2"
     inkscape:pageopacity="0.0"
     guidetolerance="10.0"
     gridtolerance="10.0"
     objecttolerance="10.0"
     borderopacity="1.0"
     bordercolor="#666666"
     pagecolor="#ffffff"
     id="base"
     showgrid="false"
     inkscape:zoom="25.432446"
     inkscape:cx="10.695"
     inkscape:cy="6.1199999"
     inkscape:window-x="-4"
     inkscape:window-y="-4"
     inkscape:current-layer="svg2434" />
  <path
     style="fill:#000000; stroke:none"
     d="M 0.94,1.48 C 0.94,1.68 1.1,1.8033333 1.42,1.85 C 1.74,1.9033333 2.1733333,1.78 2.72,1.48 C 2.1733333,1.1666667 1.74,1.0366667 1.42,1.09 C 1.1,1.1366667 0.94,1.2666667 0.94,1.48 z M 1.11,3.17 C 1.1433333,3.3633333 1.3266667,3.46 1.66,3.46 C 1.9866667,3.46 2.39,3.2633333 2.87,2.87 C 2.2766667,2.6366667 1.8266667,2.58 1.52,2.7 C 1.2133333,2.8133333 1.0766667,2.97 1.11,3.17 z M 1.53,4.8 C 1.5966667,4.9933333 1.79,5.0566667 2.11,4.99 C 2.4366667,4.93 2.7966667,4.66 3.19,4.18 C 2.5766667,4.08 2.13,4.11 1.85,4.27 C 1.57,4.4233333 1.4633333,4.6 1.53,4.8 z M 2.23,6.31 C 2.31,6.49 2.5066667,6.5266667 2.82,6.42 C 3.1333333,6.3133333 3.4533333,6.0033333 3.78,5.49 C 3.1533333,5.47 2.71,5.56 2.45,5.76 C 2.1833333,5.96 2.11,6.1433333 2.23,6.31 z M 4.43,8.98 C 4.5766667,9.1066667 4.7733333,9.06 5.02,8.84 C 5.2666667,8.62 5.43,8.2033333 5.51,7.59 C 4.9366667,7.8233333 4.57,8.0833333 4.41,8.37 C 4.2566667,8.6566667 4.2633333,8.86 4.43,8.98 z M 5.79,9.97 C 5.95,10.083333 6.1433333,10.016667 6.37,9.77 C 6.59,9.5233333 6.7,9.0933333 6.7,8.48 C 6.16,8.78 5.8266667,9.0766667 5.7,9.37 C 5.5733333,9.67 5.6033333,9.87 5.79,9.97 z M 7.34,10.73 C 7.5266667,10.816667 7.7,10.71 7.86,10.41 C 8.0266667,10.116667 8.06,9.6633333 7.96,9.05 C 7.4866667,9.4433333 7.21,9.81 7.13,10.15 C 7.0566667,10.49 7.1266667,10.683333 7.34,10.73 z M 8.98,11.2 C 9.1733333,11.233333 9.33,11.093333 9.45,10.78 C 9.5633333,10.466667 9.53,10.023333 9.35,9.45 C 8.9366667,9.89 8.72,10.28 8.7,10.62 C 8.6866667,10.96 8.78,11.153333 8.98,11.2 z M 3.19,7.74 C 3.3033333,7.9066667 3.5066667,7.9066667 3.8,7.74 C 4.0866667,7.5733333 4.3433333,7.21 4.57,6.65 C 3.9633333,6.7366667 3.55,6.9033333 3.33,7.15 C 3.1033333,7.3966667 3.0566667,7.5933333 3.19,7.74 z M 10.71,11.35 C 10.923333,11.336667 11.05,11.173333 11.09,10.86 C 11.13,10.546667 11.003333,10.116667 10.71,9.57 C 10.396667,10.116667 10.266667,10.55 10.32,10.87 C 10.38,11.19 10.51,11.35 10.71,11.35 z M 18.2,7.74 C 18.346667,7.5933333 18.306667,7.3966667 18.08,7.15 C 17.846667,6.9033333 17.423333,6.7366667 16.81,6.65 C 17.043333,7.21 17.303333,7.5733333 17.59,7.74 C 17.883333,7.9066667 18.086667,7.9066667 18.2,7.74 z M 12.41,11.2 C 12.61,11.153333 12.703333,10.96 12.69,10.62 C 12.67,10.28 12.453333,9.89 12.04,9.45 C 11.86,10.023333 11.826667,10.466667 11.94,10.78 C 12.06,11.093333 12.216667,11.233333 12.41,11.2 z M 14.07,10.73 C 14.27,10.683333 14.333333,10.49 14.26,10.15 C 14.18,9.81 13.903333,9.4433333 13.43,9.05 C 13.33,9.6633333 13.363333,10.116667 13.53,10.41 C 13.69,10.71 13.87,10.816667 14.07,10.73 z M 15.6,9.97 C 15.78,9.87 15.81,9.67 15.69,9.37 C 15.563333,9.0766667 15.23,8.78 14.69,8.48 C 14.69,9.0933333 14.8,9.5233333 15.02,9.77 C 15.246667,10.016667 15.44,10.083333 15.6,9.97 z M 16.96,8.98 C 17.126667,8.86 17.133333,8.6566667 16.98,8.37 C 16.82,8.0833333 16.45,7.8233333 15.87,7.59 C 15.956667,8.2033333 16.123333,8.62 16.37,8.84 C 16.616667,9.06 16.813333,9.1066667 16.96,8.98 z M 19.19,6.31 C 19.29,6.1433333 19.206667,5.96 18.94,5.76 C 18.68,5.56 18.243333,5.47 17.63,5.49 C 17.943333,6.0033333 18.256667,6.3133333 18.57,6.42 C 18.883333,6.5266667 19.09,6.49 19.19,6.31 z M 19.86,4.8 C 19.94,4.6 19.836667,4.4233333 19.55,4.27 C 19.256667,4.11 18.806667,4.08 18.2,4.18 C 18.593333,4.66 18.95,4.93 19.27,4.99 C 19.596667,5.0566667 19.793333,4.9933333 19.86,4.8 z M 20.28,3.17 C 20.313333,2.97 20.176667,2.8133333 19.87,2.7 C 19.563333,2.58 19.113333,2.6366667 18.52,2.87 C 19,3.2633333 19.403333,3.46 19.73,3.46 C 20.063333,3.46 20.246667,3.3633333 20.28,3.17 z M 20.47,1.48 C 20.47,1.2666667 20.306667,1.1366667 19.98,1.09 C 19.653333,1.0366667 19.216667,1.1666667 18.67,1.48 C 19.216667,1.78 19.653333,1.9033333 19.98,1.85 C 20.306667,1.8033333 20.47,1.68 20.47,1.48 z M 18.45,2.45 C 19.143333,2.2166667 19.716667,2.1866667 20.17,2.36 C 20.623333,2.5333333 20.816667,2.8266667 20.75,3.24 C 20.663333,3.6533333 20.376667,3.86 19.89,3.86 C 19.403333,3.86 18.88,3.6433333 18.32,3.21 C 18.32,3.2966667 18.27,3.48 18.17,3.76 C 18.896667,3.6733333 19.466667,3.7566667 19.88,4.01 C 20.293333,4.2566667 20.433333,4.5766667 20.3,4.97 C 20.133333,5.35 19.816667,5.5 19.35,5.42 C 18.876667,5.3333333 18.41,5.0366667 17.95,4.53 C 17.936667,4.6233333 17.863333,4.8033333 17.73,5.07 C 18.403333,5.07 18.93,5.2233333 19.31,5.53 C 19.69,5.83 19.79,6.1633333 19.61,6.53 C 19.396667,6.89 19.056667,7 18.59,6.86 C 18.13,6.72 17.72,6.37 17.36,5.81 C 17.26,5.99 17.143333,6.14 17.01,6.26 C 17.67,6.3733333 18.156667,6.6166667 18.47,6.99 C 18.783333,7.3566667 18.823333,7.7066667 18.59,8.04 C 18.31,8.3533333 17.956667,8.3966667 17.53,8.17 C 17.103333,7.95 16.756667,7.5266667 16.49,6.9 C 16.39,7.0133333 16.266667,7.1366667 16.12,7.27 C 16.766667,7.5366667 17.196667,7.8866667 17.41,8.32 C 17.623333,8.76 17.573333,9.1033333 17.26,9.35 C 16.933333,9.5966667 16.583333,9.5633333 16.21,9.25 C 15.836667,8.9366667 15.6,8.45 15.5,7.79 C 15.34,7.9366667 15.166667,8.06 14.98,8.16 C 15.573333,8.5066667 15.953333,8.9066667 16.12,9.36 C 16.286667,9.8133333 16.203333,10.146667 15.87,10.36 C 15.496667,10.56 15.146667,10.486667 14.82,10.14 C 14.5,9.7933333 14.306667,9.2733333 14.24,8.58 C 14.093333,8.6933333 13.93,8.7766667 13.75,8.83 C 14.29,9.2766667 14.603333,9.7466667 14.69,10.24 C 14.77,10.733333 14.62,11.046667 14.24,11.18 C 13.826667,11.326667 13.496667,11.186667 13.25,10.76 C 13.003333,10.326667 12.906667,9.7733333 12.96,9.1 C 12.78,9.18 12.596667,9.22 12.41,9.22 C 12.856667,9.7333333 13.09,10.246667 13.11,10.76 C 13.123333,11.266667 12.933333,11.563333 12.54,11.65 C 12.126667,11.73 11.82,11.543333 11.62,11.09 C 11.426667,10.636667 11.41,10.056667 11.57,9.35 C 11.423333,9.3833333 11.283333,9.39 11.15,9.37 C 11.45,10.05 11.556667,10.62 11.47,11.08 C 11.39,11.54 11.136667,11.776667 10.71,11.79 C 10.296667,11.81 10.04,11.576667 9.94,11.09 C 9.84,10.603333 9.9633333,10.03 10.31,9.37 C 10.143333,9.39 9.98,9.3833333 9.82,9.35 C 9.98,10.056667 9.9666667,10.636667 9.78,11.09 C 9.5933333,11.543333 9.2833333,11.73 8.85,11.65 C 8.4566667,11.563333 8.2666667,11.266667 8.28,10.76 C 8.3,10.246667 8.5333333,9.7266667 8.98,9.2 C 8.76,9.18 8.5766667,9.1366667 8.43,9.07 C 8.4966667,9.7633333 8.4033333,10.326667 8.15,10.76 C 7.89,11.186667 7.5633333,11.326667 7.17,11.18 C 6.7766667,11.046667 6.62,10.733333 6.7,10.24 C 6.78,9.7466667 7.0866667,9.2666667 7.62,8.8 C 7.4333333,8.7666667 7.2833333,8.6933333 7.17,8.58 C 7.1033333,9.2733333 6.9066667,9.7933333 6.58,10.14 C 6.2466667,10.486667 5.89,10.56 5.51,10.36 C 5.1833333,10.146667 5.1033333,9.8133333 5.27,9.36 C 5.43,8.9066667 5.8066667,8.5066667 6.4,8.16 C 6.1866667,8.0466667 6.0166667,7.9233333 5.89,7.79 C 5.79,8.45 5.5566667,8.9366667 5.19,9.25 C 4.83,9.5633333 4.4766667,9.5966667 4.13,9.35 C 3.8166667,9.1033333 3.7666667,8.76 3.98,8.32 C 4.1933333,7.8866667 4.6233333,7.5366667 5.27,7.27 C 5.1033333,7.1233333 4.98,7 4.9,6.9 C 4.6333333,7.5266667 4.2866667,7.95 3.86,8.17 C 3.4266667,8.3966667 3.08,8.3533333 2.82,8.04 C 2.5733333,7.7066667 2.6066667,7.3566667 2.92,6.99 C 3.2333333,6.6166667 3.7266667,6.3733333 4.4,6.26 C 4.22,6.0733333 4.1066667,5.9233333 4.06,5.81 C 3.68,6.37 3.2566667,6.72 2.79,6.86 C 2.33,7 2.0033333,6.89 1.81,6.53 C 1.61,6.1633333 1.7,5.83 2.08,5.53 C 2.46,5.2233333 2.9866667,5.07 3.66,5.07 C 3.56,4.87 3.4866667,4.69 3.44,4.53 C 2.9733333,5.0366667 2.5066667,5.3333333 2.04,5.42 C 1.5733333,5.5 1.2566667,5.35 1.09,4.97 C 0.95666667,4.5766667 1.0966667,4.2566667 1.51,4.01 C 1.9233333,3.7566667 2.49,3.6733333 3.21,3.76 C 3.15,3.6466667 3.1033333,3.4633333 3.07,3.21 C 2.51,3.6433333 1.9866667,3.86 1.5,3.86 C 1.0133333,3.86 0.73666667,3.6533333 0.67,3.24 C 0.58333333,2.8266667 0.76666667,2.5333333 1.22,2.36 C 1.6733333,2.1866667 2.2466667,2.2166667 2.94,2.45 C 2.9066667,2.2366667 2.8833333,2.0466667 2.87,1.88 C 2.2233333,2.1933333 1.6633333,2.31 1.19,2.23 C 0.71,2.1433333 0.47,1.8933333 0.47,1.48 C 0.47,1.0733333 0.71,0.82 1.19,0.72 C 1.6633333,0.62 2.2133333,0.73333333 2.84,1.06 C 2.84,0.99333333 2.84,0.86333333 2.84,0.67 L 0.42,0.67 C 0.42,4.0633333 1.4466667,6.7666667 3.5,8.78 C 5.5533333,10.786667 7.9566667,11.79 10.71,11.79 C 13.443333,11.79 15.836667,10.786667 17.89,8.78 C 19.943333,6.7666667 20.97,4.0633333 20.97,0.67 L 18.57,0.67 C 18.57,0.88333333 18.57,1.0133333 18.57,1.06 C 19.183333,0.73333333 19.726667,0.62 20.2,0.72 C 20.68,0.82 20.92,1.0733333 20.92,1.48 C 20.92,1.8933333 20.68,2.1433333 20.2,2.23 C 19.726667,2.31 19.166667,2.1933333 18.52,1.88 C 18.52,1.96 18.496667,2.15 18.45,2.45 z M 10.71,4.57 C 10.133333,4.57 9.6097245,4.4669079 9.1395867,4.2603619 C 8.6694489,4.0538158 8.2527822,3.7438158 7.89,3.33 C 7.5255645,2.9142983 7.2541667,2.4833333 7.0725,2.04 C 6.8908333,1.5966667 6.8,1.14 6.8,0.67 L 3.26,0.67 C 3.26,2.02 3.4466667,3.2116667 3.82,4.245 C 4.1933333,5.2783333 4.7544432,6.1521797 5.5,6.87 C 6.2472216,7.5894232 7.0547216,8.1294232 7.9229162,8.4895674 C 8.7911108,8.8497116 9.72,9.03 10.71,9.03 C 11.69,9.03 12.611667,8.85 13.475,8.49 C 14.338333,8.13 15.142223,7.5888455 15.89,6.87 C 16.636111,6.1527561 17.196111,5.2777561 17.569583,4.2445671 C 17.943056,3.211378 18.13,2.02 18.13,0.67 L 14.59,0.67 C 14.59,1.14 14.499442,1.5969075 14.317913,2.0403613 C 14.136384,2.4838151 13.863884,2.9138151 13.5,3.33 C 13.137767,3.7442969 12.7225,4.0533333 12.2575,4.26 C 11.7925,4.4666667 11.276667,4.57 10.71,4.57 z M 10.71,4.03 C 11.203333,4.03 11.651667,3.9391667 12.055,3.7575 C 12.458333,3.5758333 12.816667,3.3033333 13.13,2.94 C 13.443333,2.5766667 13.678333,2.15 13.835,1.66 C 13.991667,1.17 14.07,0.61666667 14.07,0 L 21.39,0 C 21.39,2.01 21.125,3.775 20.595,5.295 C 20.065,6.815 19.27,8.09 18.21,9.12 C 17.15,10.153333 15.995,10.93 14.745,11.45 C 13.495,11.97 12.15,12.233333 10.71,12.24 C 9.2566667,12.233333 7.9025,11.97 6.6475,11.45 C 5.3925,10.93 4.2366667,10.153333 3.18,9.12 C 2.12,8.09 1.325,6.815 0.795,5.295 C 0.265,3.775 1.2307294e-16,2.01 0,0 L 7.34,0 C 7.34,0.61666667 7.4175,1.17 7.5725,1.66 C 7.7275,2.15 7.96,2.5766667 8.27,2.94 C 8.58,3.3033333 8.9383333,3.5758333 9.345,3.7575 C 9.7516667,3.9391667 10.206667,4.03 10.71,4.03 z"
     id="path2436"
     sodipodi:nodetypes="cscsccscsccscsccscsccscsccscsccscsccscsccscsccscsccscsccscsccscsccscsccscsccscsccscsccscsccscsccsssccscsccscsccscsccsssccscsccsssccsssccsssccsssccsssccscsccsssccsssccsssccscsccsssccsssccccsccccssscccsssccsssssssccsssccsssccscscscsccsssc" />
</svg>
