<?xml version="1.0" encoding="UTF-8" standalone="no"?>
<svg
   xmlns:dc="http://purl.org/dc/elements/1.1/"
   xmlns:cc="http://creativecommons.org/ns#"
   xmlns:rdf="http://www.w3.org/1999/02/22-rdf-syntax-ns#"
   xmlns:svg="http://www.w3.org/2000/svg"
   xmlns="http://www.w3.org/2000/svg"
   xmlns:sodipodi="http://sodipodi.sourceforge.net/DTD/sodipodi-0.dtd"
   xmlns:inkscape="http://www.inkscape.org/namespaces/inkscape"
   width="19.58"
   height="17.98"
   id="svg2434"
   sodipodi:version="0.32"
   inkscape:version="0.46"
   sodipodi:docname="S188B.svg"
   inkscape:output_extension="org.inkscape.output.svg.inkscape">
  <metadata
     id="metadata2441">
    <rdf:RDF>
      <cc:Work
         rdf:about="">
        <dc:format>image/svg+xml</dc:format>
        <dc:type
           rdf:resource="http://purl.org/dc/dcmitype/StillImage" />
      </cc:Work>
    </rdf:RDF>
  </metadata>
  <defs
     id="defs2439">
    <inkscape:perspective
       sodipodi:type="inkscape:persp3d"
       inkscape:vp_x="0 : 8.9899998 : 1"
       inkscape:vp_y="0 : 1000 : 0"
       inkscape:vp_z="19.58 : 8.9899998 : 1"
       inkscape:persp3d-origin="9.79 : 5.9933332 : 1"
       id="perspective2443" />
  </defs>
  <sodipodi:namedview
     inkscape:window-height="708"
     inkscape:window-width="1024"
     inkscape:pageshadow="2"
     inkscape:pageopacity="0.0"
     guidetolerance="10.0"
     gridtolerance="10.0"
     objecttolerance="10.0"
     borderopacity="1.0"
     bordercolor="#666666"
     pagecolor="#ffffff"
     id="base"
     showgrid="false"
     showguides="true"
     inkscape:guide-bbox="true"
     inkscape:zoom="25.695218"
     inkscape:cx="9.79"
     inkscape:cy="8.9899998"
     inkscape:window-x="-4"
     inkscape:window-y="-4"
     inkscape:current-layer="svg2434" />
  <path
     style="fill:#000000; stroke:none"
     d="M 2.65,8.46 C 2.0433333,8.76 1.5266667,8.87 1.1,8.79 C 0.66666667,8.7033333 0.44333333,8.4733333 0.43,8.1 C 0.43,7.72 0.65,7.4833333 1.09,7.39 C 1.5233333,7.3033333 2.0266667,7.41 2.6,7.71 L 2.65,8.46 z M 0.86,8.1 C 0.86,8.28 1.0066667,8.39 1.3,8.43 C 1.5933333,8.4766667 1.99,8.3666667 2.49,8.1 C 1.99,7.8133333 1.5933333,7.69 1.3,7.73 C 1.0066667,7.7766667 0.86,7.9 0.86,8.1 z M 2.83,9.68 C 2.3166667,10.073333 1.8366667,10.27 1.39,10.27 C 0.94333333,10.27 0.68333333,10.08 0.61,9.7 C 0.55,9.3266667 0.72666667,9.06 1.14,8.9 C 1.5533333,8.74 2.07,8.7666667 2.69,8.98 L 2.83,9.68 z M 1.04,9.63 C 1.0733333,9.83 1.24,9.9266667 1.54,9.92 C 1.84,9.9066667 2.2,9.72 2.62,9.36 C 2.0933333,9.1666667 1.6866667,9.1166667 1.4,9.21 C 1.1133333,9.31 0.99333333,9.45 1.04,9.63 z M 3.17,10.88 C 2.7433333,11.36 2.3133333,11.633333 1.88,11.7 C 1.44,11.766667 1.1533333,11.626667 1.02,11.28 C 0.88,10.92 1.0033333,10.626667 1.39,10.4 C 1.7766667,10.173333 2.2933333,10.1 2.94,10.18 L 3.17,10.88 z M 1.42,11.13 C 1.4866667,11.31 1.6666667,11.37 1.96,11.31 C 2.2533333,11.25 2.58,11 2.94,10.56 C 2.38,10.466667 1.97,10.496667 1.71,10.65 C 1.4433333,10.803333 1.3466667,10.963333 1.42,11.13 z M 3.71,12.05 C 3.3766667,12.563333 3,12.883333 2.58,13.01 C 2.1533333,13.143333 1.8433333,13.043333 1.65,12.71 C 1.4833333,12.39 1.5733333,12.086667 1.92,11.8 C 2.2666667,11.513333 2.75,11.37 3.37,11.37 L 3.71,12.05 z M 2.04,12.51 C 2.1266667,12.69 2.31,12.726667 2.59,12.62 C 2.87,12.513333 3.16,12.226667 3.46,11.76 C 2.9,11.746667 2.5,11.83 2.26,12.01 C 2.02,12.19 1.9466667,12.356667 2.04,12.51 z M 5.4,13.86 C 5.3,14.466667 5.0833333,14.913333 4.75,15.2 C 4.4166667,15.486667 4.1,15.516667 3.8,15.29 C 3.5,15.063333 3.45,14.75 3.65,14.35 C 3.8566667,13.95 4.2533333,13.636667 4.84,13.41 L 5.4,13.86 z M 4.05,14.95 C 4.1966667,15.07 4.38,15.026667 4.6,14.82 C 4.82,14.62 4.9766667,14.24 5.07,13.68 C 4.5366667,13.893333 4.1966667,14.13 4.05,14.39 C 3.8966667,14.656667 3.8966667,14.843333 4.05,14.95 z M 6.56,14.59 C 6.5,15.223333 6.32,15.7 6.02,16.02 C 5.7133333,16.346667 5.3966667,16.41 5.07,16.21 C 4.75,16.016667 4.67,15.713333 4.83,15.3 C 4.99,14.886667 5.34,14.52 5.88,14.2 L 6.56,14.59 z M 5.31,15.85 C 5.4633333,15.956667 5.6366667,15.896667 5.83,15.67 C 6.03,15.443333 6.1366667,15.053333 6.15,14.5 C 5.65,14.766667 5.3433333,15.036667 5.23,15.31 C 5.1233333,15.583333 5.15,15.763333 5.31,15.85 z M 7.71,15.04 C 7.77,15.673333 7.6866667,16.186667 7.46,16.58 C 7.2333333,16.966667 6.9333333,17.1 6.56,16.98 C 6.2133333,16.846667 6.0766667,16.553333 6.15,16.1 C 6.2233333,15.646667 6.51,15.203333 7.01,14.77 L 7.71,15.04 z M 6.72,16.58 C 6.88,16.64 7.04,16.536667 7.2,16.27 C 7.36,16.003333 7.3866667,15.586667 7.28,15.02 C 6.86,15.38 6.6166667,15.713333 6.55,16.02 C 6.4766667,16.333333 6.5333333,16.52 6.72,16.58 z M 9,15.29 C 9.1333333,15.936667 9.1133333,16.466667 8.94,16.88 C 8.7666667,17.293333 8.4866667,17.463333 8.1,17.39 C 7.7533333,17.316667 7.5833333,17.046667 7.59,16.58 C 7.5966667,16.106667 7.81,15.63 8.23,15.15 L 9,15.29 z M 8.23,16.98 C 8.41,17.026667 8.5533333,16.903333 8.66,16.61 C 8.7666667,16.316667 8.7366667,15.906667 8.57,15.38 C 8.1966667,15.786667 7.9966667,16.143333 7.97,16.45 C 7.95,16.756667 8.0366667,16.933333 8.23,16.98 z M 4.5,13.05 C 4.2466667,13.623333 3.9233333,14.01 3.53,14.21 C 3.1366667,14.416667 2.82,14.376667 2.58,14.09 C 2.3533333,13.803333 2.3866667,13.486667 2.68,13.14 C 2.9733333,12.793333 3.4233333,12.566667 4.03,12.46 L 4.5,13.05 z M 2.94,13.82 C 3.0466667,13.966667 3.23,13.966667 3.49,13.82 C 3.7566667,13.666667 3.9966667,13.333333 4.21,12.82 C 3.6366667,12.893333 3.2466667,13.043333 3.04,13.27 C 2.84,13.496667 2.8066667,13.68 2.94,13.82 z M 10.22,15.31 C 10.493333,15.93 10.586667,16.45 10.5,16.87 C 10.42,17.29 10.183333,17.51 9.79,17.53 C 9.43,17.543333 9.2033333,17.326667 9.11,16.88 C 9.0233333,16.433333 9.13,15.91 9.43,15.31 L 10.22,15.31 z M 9.81,17.12 C 10.01,17.106667 10.126667,16.956667 10.16,16.67 C 10.2,16.383333 10.076667,15.99 9.79,15.49 C 9.5033333,15.99 9.3866667,16.386667 9.44,16.68 C 9.4933333,16.973333 9.6166667,17.12 9.81,17.12 z M 16.67,13.82 C 16.79,13.68 16.746667,13.496667 16.54,13.27 C 16.34,13.043333 15.96,12.893333 15.4,12.82 C 15.613333,13.333333 15.846667,13.666667 16.1,13.82 C 16.36,13.966667 16.55,13.966667 16.67,13.82 z M 15.56,12.46 C 16.16,12.566667 16.606667,12.793333 16.9,13.14 C 17.193333,13.486667 17.23,13.803333 17.01,14.09 C 16.763333,14.376667 16.446667,14.416667 16.06,14.21 C 15.666667,14.01 15.35,13.623333 15.11,13.05 L 15.56,12.46 z M 11.37,16.98 C 11.556667,16.933333 11.64,16.756667 11.62,16.45 C 11.606667,16.143333 11.403333,15.786667 11.01,15.38 C 10.843333,15.906667 10.813333,16.316667 10.92,16.61 C 11.026667,16.903333 11.176667,17.026667 11.37,16.98 z M 11.35,15.15 C 11.776667,15.63 11.996667,16.106667 12.01,16.58 C 12.023333,17.046667 11.85,17.316667 11.49,17.39 C 11.096667,17.463333 10.813333,17.293333 10.64,16.88 C 10.466667,16.466667 10.456667,15.936667 10.61,15.29 L 11.35,15.15 z M 12.87,16.58 C 13.05,16.52 13.11,16.333333 13.05,16.02 C 12.99,15.713333 12.74,15.38 12.3,15.02 C 12.213333,15.586667 12.243333,16.003333 12.39,16.27 C 12.543333,16.536667 12.703333,16.64 12.87,16.58 z M 12.6,14.77 C 13.08,15.203333 13.356667,15.646667 13.43,16.1 C 13.51,16.553333 13.376667,16.846667 13.03,16.98 C 12.663333,17.1 12.363333,16.966667 12.13,16.58 C 11.896667,16.186667 11.81,15.673333 11.87,15.04 L 12.6,14.77 z M 14.29,15.85 C 14.456667,15.763333 14.48,15.583333 14.36,15.31 C 14.24,15.036667 13.936667,14.766667 13.45,14.5 C 13.45,15.053333 13.553333,15.443333 13.76,15.67 C 13.966667,15.896667 14.143333,15.956667 14.29,15.85 z M 13.7,14.2 C 14.26,14.52 14.616667,14.886667 14.77,15.3 C 14.916667,15.713333 14.833333,16.016667 14.52,16.21 C 14.186667,16.41 13.87,16.346667 13.57,16.02 C 13.27,15.7 13.09,15.223333 13.03,14.59 L 13.7,14.2 z M 15.54,14.95 C 15.686667,14.843333 15.69,14.656667 15.55,14.39 C 15.403333,14.13 15.066667,13.893333 14.54,13.68 C 14.613333,14.24 14.76,14.62 14.98,14.82 C 15.2,15.026667 15.386667,15.07 15.54,14.95 z M 14.77,13.41 C 15.343333,13.636667 15.73,13.95 15.93,14.35 C 16.136667,14.75 16.096667,15.063333 15.81,15.29 C 15.49,15.516667 15.163333,15.486667 14.83,15.2 C 14.503333,14.913333 14.286667,14.466667 14.18,13.86 L 14.77,13.41 z M 17.55,12.51 C 17.656667,12.356667 17.586667,12.19 17.34,12.01 C 17.1,11.83 16.693333,11.746667 16.12,11.76 C 16.426667,12.226667 16.716667,12.513333 16.99,12.62 C 17.27,12.726667 17.456667,12.69 17.55,12.51 z M 16.24,11.37 C 16.853333,11.37 17.333333,11.513333 17.68,11.8 C 18.026667,12.086667 18.11,12.39 17.93,12.71 C 17.75,13.043333 17.45,13.143333 17.03,13.01 C 16.603333,12.883333 16.216667,12.563333 15.87,12.05 L 16.24,11.37 z M 18.18,11.13 C 18.24,10.963333 18.143333,10.803333 17.89,10.65 C 17.63,10.496667 17.213333,10.466667 16.64,10.56 C 17.006667,11 17.336667,11.25 17.63,11.31 C 17.923333,11.37 18.106667,11.31 18.18,11.13 z M 16.64,10.18 C 17.306667,10.1 17.826667,10.173333 18.2,10.4 C 18.58,10.626667 18.71,10.92 18.59,11.28 C 18.436667,11.626667 18.143333,11.766667 17.71,11.7 C 17.27,11.633333 16.84,11.36 16.42,10.88 L 16.64,10.18 z M 18.57,9.63 C 18.596667,9.45 18.466667,9.31 18.18,9.21 C 17.893333,9.1166667 17.486667,9.1666667 16.96,9.36 C 17.4,9.72 17.77,9.9066667 18.07,9.92 C 18.37,9.9266667 18.536667,9.83 18.57,9.63 z M 16.89,8.98 C 17.51,8.7666667 18.03,8.74 18.45,8.9 C 18.876667,9.06 19.05,9.3266667 18.97,9.7 C 18.896667,10.08 18.64,10.27 18.2,10.27 C 17.766667,10.27 17.293333,10.073333 16.78,9.68 L 16.89,8.98 z M 18.72,8.1 C 18.72,7.9 18.573333,7.7766667 18.28,7.73 C 17.986667,7.69 17.593333,7.8133333 17.1,8.1 C 17.593333,8.3666667 17.986667,8.4766667 18.28,8.43 C 18.573333,8.39 18.72,8.28 18.72,8.1 z M 16.98,7.71 C 17.553333,7.41 18.06,7.3033333 18.5,7.39 C 18.933333,7.4833333 19.15,7.72 19.15,8.1 C 19.15,8.4733333 18.933333,8.7033333 18.5,8.79 C 18.06,8.87 17.54,8.76 16.94,8.46 L 16.98,7.71 z M 9.79,17.53 C 12.31,17.53 14.503333,16.61 16.37,14.77 C 18.243333,12.93 19.18,10.456667 19.18,7.35 L 16.98,7.35 C 16.98,9.97 16.273333,11.953333 14.86,13.3 C 13.44,14.64 11.75,15.31 9.79,15.31 C 7.83,15.31 6.1433333,14.64 4.73,13.3 C 3.31,11.953333 2.6,9.97 2.6,7.35 L 0.41,7.35 C 0.41,10.456667 1.3433333,12.93 3.21,14.77 C 5.0833333,16.61 7.2766667,17.53 9.79,17.53 z M 9.79,10.92 C 9.27,10.92 8.7978156,10.824725 8.3729733,10.634587 C 7.9481311,10.444449 7.5706311,10.159449 7.24,9.78 C 6.9079289,9.3988983 6.6566667,9.0075 6.49,8.6025 C 6.3233333,8.1975 6.24,7.78 6.24,7.35 L 3.01,7.35 C 3.01,8.5866667 3.18,9.6783333 3.52,10.625 C 3.86,11.571667 4.37,12.373333 5.05,13.03 C 5.7333333,13.683333 6.47,14.173333 7.26,14.5 C 8.05,14.826667 8.8933333,14.99 9.79,14.99 C 10.696667,14.99 11.546678,14.826678 12.340016,14.500017 C 13.133355,14.173356 13.870022,13.683356 14.55,13.03 C 15.233377,12.373379 15.745833,11.571667 16.0875,10.625 C 16.429167,9.6783333 16.6,8.5866667 16.6,7.35 L 13.36,7.35 C 13.36,7.78 13.277816,8.1977754 13.112973,8.6029131 C 12.948131,9.0080508 12.700631,9.4005508 12.37,9.78 C 12.037929,10.161102 11.655,10.445 11.225,10.635 C 10.795,10.825 10.316667,10.92 9.79,10.92 z M 14.65,5.34 C 14.923333,5.46 15.286667,5.52 15.74,5.52 C 16.173333,5.52 16.533333,5.46 16.82,5.34 C 16.52,5.1266667 16.34,4.8633333 16.28,4.55 C 16.22,4.23 16.113333,4.0466667 15.96,4 C 15.813333,3.9533333 15.66,3.9533333 15.5,4 C 15.34,4.0466667 15.23,4.23 15.17,4.55 C 15.11,4.8633333 14.936667,5.1266667 14.65,5.34 z M 19.58,6.78 C 19.58,8.62 19.338333,10.235833 18.855,11.6275 C 18.371667,13.019167 17.646667,14.186667 16.68,15.13 C 15.71,16.07 14.650833,16.7775 13.5025,17.2525 C 12.354167,17.7275 11.116667,17.97 9.79,17.98 C 8.4633333,17.97 7.226659,17.727508 6.0799885,17.252512 C 4.933318,16.777516 3.8766514,16.070016 2.91,15.13 C 1.9399694,14.186698 1.2125,13.019167 0.7275,11.6275 C 0.2425,10.235833 1.1266378e-16,8.62 0,6.78 L 6.31,6.78 L 6.31,2.22 C 6.31,1.0266667 5.9366667,0.43 5.19,0.43 C 4.4433333,0.43 4.07,1.0166667 4.07,2.19 L 4.07,3.64 C 4.4166667,3.64 4.6466667,3.8733333 4.76,4.34 C 4.8733333,4.8066667 5.0733333,5.04 5.36,5.04 C 5.42,5.1 5.45,5.1833333 5.45,5.29 C 5.45,5.5633333 5.2433333,5.74 4.83,5.82 C 4.4166667,5.9066667 4.0966667,5.95 3.87,5.95 C 3.6433333,5.95 3.3166667,5.9066667 2.89,5.82 C 2.47,5.74 2.26,5.5633333 2.26,5.29 C 2.26,5.1833333 2.2966667,5.1 2.37,5.04 C 2.6433333,5.04 2.84,4.8066667 2.96,4.34 C 3.08,3.8733333 3.3066667,3.64 3.64,3.64 L 3.64,2.17 C 3.6533333,0.73666667 4.17,0.016666667 5.19,0.01 C 6.21,0.0033333333 6.72,0.74 6.72,2.22 L 6.72,6.78 C 6.72,7.3466667 6.7922609,7.853656 6.9358914,8.301734 C 7.0795219,8.749812 7.2945219,9.1389787 7.58,9.47 C 7.8657104,9.8012907 8.1891667,10.053333 8.5575,10.22 C 8.9258333,10.386667 9.3366667,10.47 9.79,10.47 C 10.25,10.47 10.665559,10.386433 11.037089,10.219649 C 11.408618,10.052865 11.736118,9.802865 12.02,9.47 C 12.302237,9.1390634 12.515833,8.7508333 12.6575,8.3025 C 12.799167,7.8541667 12.87,7.3466667 12.87,6.78 L 12.87,6.78 L 12.87,6.78 L 12.87,2.19 C 12.87,0.73 13.376667,0 14.39,0 C 15.41,0 15.926667,0.72333333 15.94,2.17 L 15.94,3.62 C 16.273333,3.62 16.5,3.8533333 16.62,4.32 C 16.74,4.7866667 16.943333,5.02 17.23,5.02 C 17.29,5.0933333 17.32,5.1766667 17.32,5.27 C 17.32,5.5433333 17.113333,5.72 16.7,5.8 C 16.286667,5.88 15.966667,5.92 15.74,5.92 C 15.513333,5.92 15.19,5.88 14.77,5.8 C 14.343333,5.72 14.13,5.5433333 14.13,5.27 C 14.13,5.1766667 14.17,5.0933333 14.25,5.02 C 14.516667,5.02 14.71,4.7866667 14.83,4.32 C 14.956667,3.8533333 15.183333,3.62 15.51,3.62 L 15.51,2.17 C 15.51,1.01 15.136667,0.43 14.39,0.43 C 13.643333,0.43 13.27,1.0166667 13.27,2.19 L 13.27,6.78 L 19.58,6.78 z M 4.95,5.34 C 4.65,5.14 4.47,4.88 4.41,4.56 C 4.35,4.2333333 4.2433333,4.0466667 4.09,4 C 3.9433333,3.9533333 3.79,3.9533333 3.63,4 C 3.47,4.0466667 3.36,4.2333333 3.3,4.56 C 3.24,4.88 3.0666667,5.14 2.78,5.34 C 3.0533333,5.4733333 3.4166667,5.54 3.87,5.54 C 4.3033333,5.54 4.6633333,5.4733333 4.95,5.34 z"
     id="path2436"
     sodipodi:nodetypes="cssscccscsccssscccscsccssscccscsccssscccscsccssscccscsccssscccscsccssscccscsccssscccscsccssscccscsccssscccscsccscsccssscccscsccssscccscsccssscccscsccssscccscsccssscccscsccssscccscsccscscccscsccssscccscsccssscccccccsscccccsssccscsssssccsssccscssssccscscssscccsccscssssscsccsccsssssssccccsccscssssscsccsccccsssscsc" />
</svg>
