<?xml version="1.0" encoding="UTF-8" standalone="no"?>
<svg
   xmlns:dc="http://purl.org/dc/elements/1.1/"
   xmlns:cc="http://creativecommons.org/ns#"
   xmlns:rdf="http://www.w3.org/1999/02/22-rdf-syntax-ns#"
   xmlns:svg="http://www.w3.org/2000/svg"
   xmlns="http://www.w3.org/2000/svg"
   xmlns:sodipodi="http://sodipodi.sourceforge.net/DTD/sodipodi-0.dtd"
   xmlns:inkscape="http://www.inkscape.org/namespaces/inkscape"
   width="21.04"
   height="17.98"
   id="svg2434"
   sodipodi:version="0.32"
   inkscape:version="0.46"
   sodipodi:docname="S188A.svg"
   inkscape:output_extension="org.inkscape.output.svg.inkscape">
  <metadata
     id="metadata2441">
    <rdf:RDF>
      <cc:Work
         rdf:about="">
        <dc:format>image/svg+xml</dc:format>
        <dc:type
           rdf:resource="http://purl.org/dc/dcmitype/StillImage" />
      </cc:Work>
    </rdf:RDF>
  </metadata>
  <defs
     id="defs2439">
    <inkscape:perspective
       sodipodi:type="inkscape:persp3d"
       inkscape:vp_x="0 : 8.9899998 : 1"
       inkscape:vp_y="0 : 1000 : 0"
       inkscape:vp_z="21.040001 : 8.9899998 : 1"
       inkscape:persp3d-origin="10.52 : 5.9933332 : 1"
       id="perspective2443" />
  </defs>
  <sodipodi:namedview
     inkscape:window-height="667"
     inkscape:window-width="640"
     inkscape:pageshadow="2"
     inkscape:pageopacity="0.0"
     guidetolerance="10.0"
     gridtolerance="10.0"
     objecttolerance="10.0"
     borderopacity="1.0"
     bordercolor="#666666"
     pagecolor="#ffffff"
     id="base"
     showgrid="false"
     inkscape:zoom="25.695218"
     inkscape:cx="11.655698"
     inkscape:cy="7.4332899"
     inkscape:window-x="132"
     inkscape:window-y="67"
     inkscape:current-layer="svg2434" />
  <path
     style="fill:#000000; stroke:none"
     d="M 0.9,7.4 C 0.9,7.5933333 1.0633333,7.7133333 1.39,7.76 C 1.71,7.8066667 2.14,7.6866667 2.68,7.4 C 2.14,7.0866667 1.71,6.9566667 1.39,7.01 C 1.0633333,7.0566667 0.9,7.1866667 0.9,7.4 z M 1.09,9.05 C 1.1233333,9.2633333 1.3033333,9.3633333 1.63,9.35 C 1.9566667,9.3433333 2.3533333,9.1466667 2.82,8.76 C 2.24,8.5466667 1.8,8.4933333 1.5,8.6 C 1.2,8.7066667 1.0633333,8.8566667 1.09,9.05 z M 1.51,10.66 C 1.5766667,10.853333 1.7666667,10.916667 2.08,10.85 C 2.3933333,10.783333 2.7466667,10.516667 3.14,10.05 C 2.54,9.95 2.0966667,9.98 1.81,10.14 C 1.53,10.306667 1.43,10.48 1.51,10.66 z M 2.17,12.14 C 2.2633333,12.333333 2.4633333,12.373333 2.77,12.26 C 3.0833333,12.146667 3.3933333,11.84 3.7,11.34 C 3.1,11.32 2.67,11.406667 2.41,11.6 C 2.15,11.8 2.07,11.98 2.17,12.14 z M 4.35,14.77 C 4.4966667,14.896667 4.6933333,14.85 4.94,14.63 C 5.18,14.41 5.34,14 5.42,13.4 C 4.8533333,13.626667 4.4933333,13.883333 4.34,14.17 C 4.1866667,14.456667 4.19,14.656667 4.35,14.77 z M 5.69,15.74 C 5.8566667,15.853333 6.0466667,15.786667 6.26,15.54 C 6.48,15.3 6.59,14.88 6.59,14.28 C 6.0566667,14.573333 5.73,14.866667 5.61,15.16 C 5.4833333,15.446667 5.51,15.64 5.69,15.74 z M 7.2,16.52 C 7.3933333,16.586667 7.5733333,16.476667 7.74,16.19 C 7.9,15.903333 7.93,15.453333 7.83,14.84 C 7.3633333,15.226667 7.0933333,15.586667 7.02,15.92 C 6.9466667,16.253333 7.0066667,16.453333 7.2,16.52 z M 8.83,16.96 C 9.0233333,17.006667 9.1766667,16.87 9.29,16.55 C 9.4033333,16.236667 9.3733333,15.796667 9.2,15.23 C 8.7933333,15.67 8.58,16.053333 8.56,16.38 C 8.5466667,16.713333 8.6366667,16.906667 8.83,16.96 z M 3.14,13.55 C 3.2533333,13.71 3.45,13.71 3.73,13.55 C 4.0166667,13.39 4.2733333,13.033333 4.5,12.48 C 3.9,12.56 3.4866667,12.723333 3.26,12.97 C 3.0333333,13.21 2.9933333,13.403333 3.14,13.55 z M 10.53,17.1 C 10.743333,17.086667 10.87,16.926667 10.91,16.62 C 10.95,16.306667 10.816667,15.883333 10.51,15.35 C 10.216667,15.883333 10.1,16.31 10.16,16.63 C 10.213333,16.943333 10.336667,17.1 10.53,17.1 z M 17.9,13.55 C 18.033333,13.403333 17.99,13.21 17.77,12.97 C 17.55,12.723333 17.14,12.56 16.54,12.48 C 16.766667,13.033333 17.023333,13.39 17.31,13.55 C 17.59,13.71 17.786667,13.71 17.9,13.55 z M 12.21,16.96 C 12.403333,16.906667 12.493333,16.713333 12.48,16.38 C 12.466667,16.053333 12.256667,15.67 11.85,15.23 C 11.67,15.796667 11.636667,16.236667 11.75,16.55 C 11.863333,16.87 12.016667,17.006667 12.21,16.96 z M 13.82,16.52 C 14.026667,16.453333 14.093333,16.253333 14.02,15.92 C 13.946667,15.586667 13.676667,15.226667 13.21,14.84 C 13.11,15.453333 13.143333,15.903333 13.31,16.19 C 13.47,16.476667 13.64,16.586667 13.82,16.52 z M 15.35,15.74 C 15.53,15.64 15.56,15.446667 15.44,15.16 C 15.313333,14.866667 14.983333,14.573333 14.45,14.28 C 14.45,14.88 14.56,15.3 14.78,15.54 C 15,15.786667 15.19,15.853333 15.35,15.74 z M 16.69,14.77 C 16.85,14.656667 16.853333,14.456667 16.7,14.17 C 16.546667,13.883333 16.186667,13.626667 15.62,13.4 C 15.7,14 15.86,14.41 16.1,14.63 C 16.346667,14.85 16.543333,14.896667 16.69,14.77 z M 18.85,12.14 C 18.963333,11.98 18.89,11.8 18.63,11.6 C 18.376667,11.406667 17.94,11.32 17.32,11.34 C 17.646667,11.84 17.963333,12.146667 18.27,12.26 C 18.576667,12.373333 18.77,12.333333 18.85,12.14 z M 19.53,10.66 C 19.596667,10.48 19.493333,10.306667 19.22,10.14 C 18.94,9.98 18.5,9.95 17.9,10.05 C 18.293333,10.516667 18.646667,10.783333 18.96,10.85 C 19.28,10.916667 19.47,10.853333 19.53,10.66 z M 19.95,9.05 C 19.983333,8.8566667 19.85,8.7066667 19.55,8.6 C 19.25,8.4933333 18.806667,8.5466667 18.22,8.76 C 18.693333,9.1466667 19.09,9.3433333 19.41,9.35 C 19.736667,9.3633333 19.916667,9.2633333 19.95,9.05 z M 20.12,7.4 C 20.12,7.1866667 19.96,7.0566667 19.64,7.01 C 19.326667,6.9566667 18.903333,7.0866667 18.37,7.4 C 18.903333,7.6866667 19.326667,7.8066667 19.64,7.76 C 19.96,7.7133333 20.12,7.5933333 20.12,7.4 z M 18.15,8.34 C 18.83,8.1133333 19.393333,8.0866667 19.84,8.26 C 20.286667,8.4266667 20.47,8.7133333 20.39,9.12 C 20.323333,9.5266667 20.05,9.73 19.57,9.73 C 19.09,9.73 18.576667,9.52 18.03,9.1 C 18.01,9.18 17.96,9.3566667 17.88,9.63 C 18.593333,9.55 19.153333,9.6333333 19.56,9.88 C 19.966667,10.12 20.103333,10.436667 19.97,10.83 C 19.81,11.196667 19.5,11.346667 19.04,11.28 C 18.573333,11.206667 18.113333,10.91 17.66,10.39 C 17.646667,10.483333 17.573333,10.66 17.44,10.92 C 18.106667,10.92 18.626667,11.073333 19,11.38 C 19.373333,11.693333 19.463333,12.02 19.27,12.36 C 19.07,12.713333 18.743333,12.823333 18.29,12.69 C 17.836667,12.55 17.423333,12.203333 17.05,11.65 C 16.97,11.83 16.856667,11.976667 16.71,12.09 C 17.376667,12.203333 17.863333,12.446667 18.17,12.82 C 18.476667,13.193333 18.51,13.533333 18.27,13.84 C 18.01,14.146667 17.67,14.193333 17.25,13.98 C 16.83,13.76 16.49,13.34 16.23,12.72 C 16.13,12.833333 16.006667,12.963333 15.86,13.11 C 16.493333,13.356667 16.916667,13.693333 17.13,14.12 C 17.336667,14.553333 17.286667,14.89 16.98,15.13 C 16.64,15.376667 16.29,15.343333 15.93,15.03 C 15.576667,14.723333 15.35,14.246667 15.25,13.6 C 15.09,13.746667 14.92,13.866667 14.74,13.96 C 15.326667,14.3 15.7,14.693333 15.86,15.14 C 16.02,15.586667 15.94,15.916667 15.62,16.13 C 15.246667,16.336667 14.896667,16.266667 14.57,15.92 C 14.25,15.573333 14.056667,15.06 13.99,14.38 C 13.856667,14.493333 13.703333,14.573333 13.53,14.62 C 14.063333,15.06 14.37,15.523333 14.45,16.01 C 14.53,16.496667 14.376667,16.813333 13.99,16.96 C 13.596667,17.086667 13.276667,16.94 13.03,16.52 C 12.776667,16.1 12.683333,15.556667 12.75,14.89 C 12.57,14.97 12.39,15.01 12.21,15.01 C 12.65,15.51 12.876667,16.013333 12.89,16.52 C 12.91,17.02 12.723333,17.31 12.33,17.39 C 11.91,17.476667 11.606667,17.296667 11.42,16.85 C 11.233333,16.403333 11.22,15.83 11.38,15.13 C 11.24,15.163333 11.103333,15.173333 10.97,15.16 C 11.263333,15.82 11.37,16.376667 11.29,16.83 C 11.21,17.29 10.95,17.526667 10.51,17.54 C 10.123333,17.553333 9.88,17.323333 9.78,16.85 C 9.68,16.37 9.8,15.806667 10.14,15.16 C 9.98,15.173333 9.82,15.163333 9.66,15.13 C 9.82,15.83 9.8033333,16.403333 9.61,16.85 C 9.4166667,17.296667 9.1166667,17.476667 8.71,17.39 C 8.3233333,17.31 8.1366667,17.02 8.15,16.52 C 8.1633333,16.013333 8.39,15.503333 8.83,14.99 C 8.6166667,14.99 8.44,14.946667 8.3,14.86 C 8.3466667,15.546667 8.2466667,16.1 8,16.52 C 7.76,16.94 7.4366667,17.086667 7.03,16.96 C 6.6566667,16.813333 6.51,16.496667 6.59,16.01 C 6.67,15.523333 6.97,15.053333 7.49,14.6 C 7.3166667,14.566667 7.1633333,14.493333 7.03,14.38 C 6.9633333,15.06 6.7733333,15.573333 6.46,15.92 C 6.14,16.266667 5.7933333,16.336667 5.42,16.13 C 5.1,15.916667 5.02,15.586667 5.18,15.14 C 5.34,14.693333 5.7133333,14.3 6.3,13.96 C 6.0866667,13.846667 5.9166667,13.726667 5.79,13.6 C 5.69,14.246667 5.46,14.723333 5.1,15.03 C 4.7333333,15.343333 4.3866667,15.376667 4.06,15.13 C 3.7533333,14.89 3.7066667,14.553333 3.92,14.12 C 4.1266667,13.693333 4.5466667,13.356667 5.18,13.11 C 5.02,12.95 4.9,12.82 4.82,12.72 C 4.56,13.34 4.2166667,13.76 3.79,13.98 C 3.37,14.193333 3.0233333,14.146667 2.75,13.84 C 2.5233333,13.533333 2.5633333,13.193333 2.87,12.82 C 3.1766667,12.446667 3.6566667,12.203333 4.31,12.09 C 4.1433333,11.93 4.03,11.783333 3.97,11.65 C 3.61,12.203333 3.2033333,12.55 2.75,12.69 C 2.2966667,12.823333 1.9633333,12.713333 1.75,12.36 C 1.57,12.02 1.6666667,11.693333 2.04,11.38 C 2.4133333,11.073333 2.9333333,10.92 3.6,10.92 C 3.5,10.746667 3.4266667,10.57 3.38,10.39 C 2.9266667,10.91 2.47,11.206667 2.01,11.28 C 1.5433333,11.346667 1.23,11.196667 1.07,10.83 C 0.94333333,10.436667 1.08,10.12 1.48,9.88 C 1.8866667,9.6333333 2.4466667,9.55 3.16,9.63 C 3.1,9.5166667 3.0533333,9.34 3.02,9.1 C 2.4666667,9.52 1.95,9.73 1.47,9.73 C 0.99,9.73 0.71,9.5266667 0.63,9.12 C 0.57,8.7133333 0.76,8.4266667 1.2,8.26 C 1.6466667,8.0866667 2.21,8.1133333 2.89,8.34 C 2.8633333,8.1333333 2.84,7.9466667 2.82,7.78 C 2.1866667,8.1066667 1.6366667,8.2266667 1.17,8.14 C 0.69666667,8.0466667 0.46,7.8 0.46,7.4 C 0.46,6.9933333 0.69666667,6.74 1.17,6.64 C 1.6366667,6.5466667 2.17,6.66 2.77,6.98 C 2.77,6.9133333 2.77,6.7833333 2.77,6.59 L 0.41,6.59 C 0.41,9.93 1.42,12.59 3.44,14.57 C 5.46,16.55 7.8166667,17.54 10.51,17.54 C 13.216667,17.54 15.58,16.55 17.6,14.57 C 19.62,12.59 20.63,9.93 20.63,6.59 L 18.25,6.59 C 18.25,6.8033333 18.25,6.9333333 18.25,6.98 C 18.863333,6.66 19.406667,6.5466667 19.88,6.64 C 20.346667,6.74 20.58,6.9933333 20.58,7.4 C 20.58,7.8 20.346667,8.0466667 19.88,8.14 C 19.406667,8.2266667 18.853333,8.1066667 18.22,7.78 C 18.22,7.8666667 18.196667,8.0533333 18.15,8.34 z M 10.51,10.44 C 9.95,10.44 9.4408333,10.3375 8.9825,10.1325 C 8.5241667,9.9275 8.1166667,9.62 7.76,9.21 C 7.4033333,8.8 7.1358333,8.3766667 6.9575,7.94 C 6.7791667,7.5033333 6.69,7.0533333 6.69,6.59 L 3.21,6.59 C 3.21,7.92 3.3933333,9.0941667 3.76,10.1125 C 4.1266667,11.130833 4.6766667,11.993333 5.41,12.7 C 6.1433333,13.406667 6.935,13.936667 7.785,14.29 C 8.635,14.643333 9.5433333,14.82 10.51,14.82 C 11.483333,14.82 12.396667,14.643333 13.25,14.29 C 14.103333,13.936667 14.896667,13.406667 15.63,12.7 C 16.363333,11.993333 16.913333,11.130833 17.28,10.1125 C 17.646667,9.0941667 17.83,7.92 17.83,6.59 L 14.35,6.59 C 14.35,7.0533333 14.260833,7.5033333 14.0825,7.94 C 13.904167,8.3766667 13.636667,8.8 13.28,9.21 C 12.923333,9.62 12.514167,9.9275 12.0525,10.1325 C 11.590833,10.3375 11.076667,10.44 10.51,10.44 z M 19.63,0 L 19.63,0.28 L 19.63,0.56 C 18.81,0.56 18.079196,0.68836019 17.437545,0.94504029 C 16.795893,1.2017204 16.243393,1.5867204 15.78,2.1 C 15.313452,2.6167741 14.963333,3.1966667 14.73,3.84 C 14.496667,4.4833333 14.38,5.19 14.38,5.96 L 21.04,5.96 C 21.04,7.93 20.78,9.6608333 20.26,11.1525 C 19.74,12.644167 18.96,13.896667 17.92,14.91 C 16.876667,15.923333 15.7375,16.685833 14.5025,17.1975 C 13.2675,17.709167 11.936667,17.97 10.51,17.98 C 9.09,17.97 7.765,17.709167 6.535,17.1975 C 5.305,16.685833 4.17,15.923333 3.13,14.91 C 2.0866667,13.896667 1.3041667,12.644167 0.7825,11.1525 C 0.26083333,9.6608333 1.2062373e-16,7.93 0,5.96 L 6.67,5.96 C 6.67,5.19 6.5536096,4.483083 6.3204144,3.8396245 C 6.0872192,3.196166 5.7372192,2.616166 5.27,2.1 C 4.8044384,1.5856653 4.2483333,1.2016667 3.605,0.945 C 2.9616667,0.68833333 2.23,0.56 1.41,0.56 L 1.41,0.28 L 1.41,0 C 2.31,0 3.1166667,0.14333333 3.83,0.43 C 4.5433333,0.71666667 5.1622254,1.1476874 5.69,1.72 C 6.2161127,2.2905104 6.609446,2.9813437 6.8695845,3.7928828 C 7.129723,4.6044219 7.2566667,5.5366667 7.25,6.59 C 7.2333333,6.98 7.298651,7.361392 7.4454766,7.734588 C 7.5923021,8.107784 7.8206354,8.472784 8.13,8.83 C 8.4379375,9.1855681 8.7883333,9.4541667 9.185,9.6325 C 9.5816667,9.8108333 10.023333,9.9 10.51,9.9 C 11.003333,9.9 11.45,9.8108333 11.85,9.6325 C 12.25,9.4541667 12.604618,9.1877651 12.91,8.83 C 13.517951,8.1177651 13.82,7.16 13.82,5.96 C 13.82,5.1166667 13.949138,4.3416408 14.207457,3.6349613 C 14.465776,2.9282817 14.853276,2.2899484 15.37,1.72 C 15.889886,1.1465634 16.505,0.71666667 17.215,0.43 C 17.925,0.14333333 18.73,0 19.63,0 z"
     id="path2436"
     sodipodi:nodetypes="cscsccscsccscsccscsccscsccscsccscsccscsccscsccscsccscsccscsccscsccscsccscsccscsccscsccscsccscsccsssccscsccsssccsssccsssccscsccsssccsssccsssccsssccscsccscsccsssccscsccsssccscsccsssccssscccssscccssscccsssccsssssssccsssccccsssccscscscsccssscccssscssssssssssc" />
</svg>
