<?xml version="1.0" encoding="UTF-8" standalone="no"?>
<!-- Created with Inkscape (http://www.inkscape.org/) -->
<svg
   xmlns:dc="http://purl.org/dc/elements/1.1/"
   xmlns:cc="http://creativecommons.org/ns#"
   xmlns:rdf="http://www.w3.org/1999/02/22-rdf-syntax-ns#"
   xmlns:svg="http://www.w3.org/2000/svg"
   xmlns="http://www.w3.org/2000/svg"
   xmlns:sodipodi="http://sodipodi.sourceforge.net/DTD/sodipodi-0.dtd"
   xmlns:inkscape="http://www.inkscape.org/namespaces/inkscape"
   width="1800"
   height="1800"
   id="svg2"
   sodipodi:version="0.32"
   inkscape:version="0.46"
   version="1.0"
   sodipodi:docname="US248S1A.svg"
   inkscape:output_extension="org.inkscape.output.svg.inkscape">
  <defs
     id="defs4">
    <inkscape:perspective
       sodipodi:type="inkscape:persp3d"
       inkscape:vp_x="0 : 526.18109 : 1"
       inkscape:vp_y="0 : 1000 : 0"
       inkscape:vp_z="744.09448 : 526.18109 : 1"
       inkscape:persp3d-origin="372.04724 : 350.78739 : 1"
       id="perspective10" />
    <inkscape:perspective
       id="perspective2432"
       inkscape:persp3d-origin="5.8060436 : 5.9924723 : 1"
       inkscape:vp_z="11.612087 : 8.9887085 : 1"
       inkscape:vp_y="0 : 1000 : 0"
       inkscape:vp_x="0 : 8.9887085 : 1"
       sodipodi:type="inkscape:persp3d" />
    <inkscape:perspective
       id="perspective2478"
       inkscape:persp3d-origin="12.812273 : 5.9944057 : 1"
       inkscape:vp_z="25.624546 : 8.9916086 : 1"
       inkscape:vp_y="0 : 1000 : 0"
       inkscape:vp_x="0 : 8.9916086 : 1"
       sodipodi:type="inkscape:persp3d" />
    <inkscape:perspective
       id="perspective3984"
       inkscape:persp3d-origin="8.6821499 : 5.5199998 : 1"
       inkscape:vp_z="17.3643 : 8.2799997 : 1"
       inkscape:vp_y="0 : 1000 : 0"
       inkscape:vp_x="0 : 8.2799997 : 1"
       sodipodi:type="inkscape:persp3d" />
  </defs>
  <sodipodi:namedview
     id="base"
     pagecolor="#ffffff"
     bordercolor="#666666"
     borderopacity="1.0"
     inkscape:pageopacity="0.0"
     inkscape:pageshadow="2"
     inkscape:zoom="0.069164551"
     inkscape:cx="1117.0774"
     inkscape:cy="896.46743"
     inkscape:document-units="px"
     inkscape:current-layer="layer1"
     showgrid="false"
     inkscape:window-width="640"
     inkscape:window-height="701"
     inkscape:window-x="0"
     inkscape:window-y="22" />
  <metadata
     id="metadata7">
    <rdf:RDF>
      <cc:Work
         rdf:about="">
        <dc:format>image/svg+xml</dc:format>
        <dc:type
           rdf:resource="http://purl.org/dc/dcmitype/StillImage" />
      </cc:Work>
    </rdf:RDF>
  </metadata>
  <g
     inkscape:label="Calque 1"
     inkscape:groupmode="layer"
     id="layer1">
    <path
       style="fill:#000000;stroke:none"
       d="M 1685.75 3.5 C 1641.2152 3.4234279 1597.7101 22.648641 1585 54.25 C 1567.4495 97.884581 1495.015 244.80556 1326.7812 377.28125 C 1060.9249 529.16718 769.86929 914.69033 698.9375 1110.2188 C 686.23741 1145.2273 674.0496 1179.5345 663.6875 1213.6875 C 636.4881 1203.4182 613.80126 1184.0375 622.59375 1157.7812 C 628.67196 1139.6306 636.80171 1121.6387 646.84375 1103.8438 C 656.88532 1086.0491 666.68953 1064.2261 676.21875 1038.3438 C 685.7479 1012.4609 688.62658 986.13726 684.875 959.40625 C 680.44378 940.50765 673.63471 924.59468 664.4375 911.65625 C 655.24031 898.71831 645.82886 889.28976 636.25 883.375 C 626.67165 877.46016 614.86041 872.40985 600.8125 868.15625 C 590.27697 864.96603 578.93698 864.14383 566.75 865.71875 C 562.68766 866.24373 558.52705 867.03938 554.28125 868.09375 C 537.29814 872.3117 523.4125 878.48104 512.6875 886.65625 C 501.96247 894.83097 495.29294 904.50313 492.65625 915.65625 C 496.74465 924.509 503.02889 930.40847 511.5 933.34375 C 519.97158 936.27896 535.73173 939.95298 558.71875 944.375 C 538.63192 966.00319 527.94638 992.22374 526.71875 1023 C 525.49105 1053.7757 529.15862 1105.7166 537.6875 1178.8438 C 545.52874 1234.9745 596.97312 1263.1072 647.0625 1276.1875 C 638.88845 1312.7495 633.7177 1349.5096 633.1875 1387.1562 C 639.82859 1391.1402 811.67133 1454.6152 861.5625 1551.875 C 884.73028 1597.0388 924.63222 1501.8088 963.9375 1516.6562 C 1044.7771 1547.1942 916.65098 1669.5006 916 1681.4375 C 911.31606 1767.3194 1034.9824 1784.9514 1057.5625 1799.5625 C 1066.8604 1802.2188 1075.4996 1803.5625 1083.4688 1803.5625 C 1104.7208 1803.5625 1116.5706 1780.4586 1145.2188 1759.7188 C 1346.7996 1613.7849 1570.5282 956.07302 1605.0625 839.1875 C 1636.9405 727.61456 1642.4679 583.22451 1653.0938 524.78125 C 1702.5051 303.79713 1789.4369 171.55095 1794.5 149.1875 C 1818.0973 44.961047 1750.8394 3.611913 1685.75 3.5 z M 1701.75 77.53125 C 1752.8599 184.18188 1640.1586 224.83663 1558.4062 579.5625 C 1537.2683 924.75653 1329.0417 1365.408 1236.875 1510.6875 C 1191.7147 1611.6343 1139.2715 1680.685 1079.5 1717.875 C 1048.9504 1721.8599 1019.0015 1713.301 1003.0625 1672.125 C 1036.4786 1631.1239 1062.7023 1545.8583 1064.3438 1516.8438 C 1071.3291 1393.3806 950.14061 1452.629 936.375 1441.125 C 852.08632 1370.6843 742.07915 1323.1285 732.78125 1291.25 C 757.86604 1071.4059 945.80735 821.50598 1170.2812 583.75 C 1711.0333 203.37085 1549.4865 148.33242 1701.75 77.53125 z "
       id="path1335" />
  </g>
</svg>
