<?xml version="1.0" encoding="UTF-8" standalone="no"?>
<svg
   xmlns:dc="http://purl.org/dc/elements/1.1/"
   xmlns:cc="http://creativecommons.org/ns#"
   xmlns:rdf="http://www.w3.org/1999/02/22-rdf-syntax-ns#"
   xmlns:svg="http://www.w3.org/2000/svg"
   xmlns="http://www.w3.org/2000/svg"
   xmlns:sodipodi="http://sodipodi.sourceforge.net/DTD/sodipodi-0.dtd"
   xmlns:inkscape="http://www.inkscape.org/namespaces/inkscape"
   width="1259.2588"
   height="1812.4375"
   id="svg3249"
   version="1.1"
   inkscape:version="0.48.0 r9654"
   sodipodi:docname="S202.svg">
  <metadata
     id="metadata3259">
    <rdf:RDF>
      <cc:Work
         rdf:about="">
        <dc:format>image/svg+xml</dc:format>
        <dc:type
           rdf:resource="http://purl.org/dc/dcmitype/StillImage" />
      </cc:Work>
    </rdf:RDF>
  </metadata>
  <defs
     id="defs3257" />
  <sodipodi:namedview
     pagecolor="#ffffff"
     bordercolor="#666666"
     borderopacity="1"
     objecttolerance="10"
     gridtolerance="10"
     guidetolerance="10"
     inkscape:pageopacity="0"
     inkscape:pageshadow="2"
     inkscape:window-width="1920"
     inkscape:window-height="1152"
     id="namedview3255"
     showgrid="false"
     inkscape:snap-to-guides="true"
     inkscape:snap-grids="false"
     inkscape:snap-page="false"
     showguides="true"
     inkscape:guide-bbox="true"
     fit-margin-top="0"
     fit-margin-left="0"
     fit-margin-right="0"
     fit-margin-bottom="0"
     inkscape:zoom="0.024134929"
     inkscape:cx="-25.614542"
     inkscape:cy="916.4229"
     inkscape:window-x="1280"
     inkscape:window-y="0"
     inkscape:window-maximized="1"
     inkscape:current-layer="svg3249" />
  <path
     style="fill:#000000;stroke:none"
     d="m 504.90625,-1.71875 c 22.31957,157.54097 26.10101,319.04468 -1.75,476.15625 -20.44258,10.39154 -43.02647,20.91846 -55.59375,40.9375 -4.77446,8.81966 -2.20565,19.53103 3.8125,27 5.10012,8.21655 15.68689,14.66848 25.3125,10.5 36.79549,43.17081 63.85961,94.056 88.75,145.03125 -94.53547,3.52596 -189.88659,9.29767 -284.03125,-0.125 13.11064,-43.51799 36.08275,-85.67408 35.37685,-132.31207 0.54467,-17.59405 -4.57213,-35.38219 -16.65922,-48.47275 C 278.60356,493.43934 246.16867,486.35796 217,476.75 190.12869,465.28947 168.1662,440.69979 137.53136,439.9214 92.11064,440.7807 47.346132,454.77846 9.09375,478.84375 c -12.166422,9.04183 -16.5384183,26.51411 -10.375,40.34375 10.0123279,28.15733 36.086311,46.1347 60.974541,60.5827 22.025426,12.5759 48.793929,19.00921 73.829229,11.98815 20.69122,-4.08798 42.03649,-10.71953 63.16498,-6.82085 5.80752,1.88463 3.47457,8.94386 3.875,13.46875 -1.72104,35.33767 -21.09561,66.47573 -27.6405,100.85418 -4.85017,22.35971 -3.41535,46.43656 7.17175,66.83332 17.32972,38.5466 50.35527,72.32035 92.60503,81.8551 28.54631,5.2213 57.8387,4.12938 86.76997,4.86365 77.32532,-0.004 154.32579,-7.90778 231.3125,-14.1875 4.0503,223.63 2.10624,447.3327 -2.55574,670.9372 -1.63282,75.6175 -4.51209,151.2211 -7.49419,226.7797 0.77286,23.8542 2.89441,50.4804 19.58118,68.8769 17.11766,17.2814 50.2369,14.7682 63.5625,-5.9376 13.46205,-20.6038 14.53435,-46.4938 14.6875,-70.4687 -1.26458,-32.738 -3.06471,-65.4561 -3.8125,-98.2187 -7.08935,-221.2404 -8.63158,-442.6288 -7.60385,-663.96863 0.3105,-44.52403 0.80357,-89.04805 1.79135,-133.56267 81.47854,-5.39037 165.07086,-2.18193 242.80522,24.50263 72.53845,24.35196 140.91478,68.29481 183.19478,132.59112 18.3074,27.96635 26.5434,60.78095 36.1821,92.36745 17.668,61.73 26.5504,126.7418 18.5258,190.8536 -8.996,100.0223 -23.0944,201.2936 -8.2392,301.4352 11.3476,73.7732 35.2659,144.8123 53.5313,217 5.5413,16.3797 24.5144,29.4338 41.9375,23 15.4801,-5.6916 21.6457,-23.9773 19.773,-39.3103 -3.9899,-104.4819 -32.4319,-207.4459 -23.8508,-312.4679 6.2061,-81.3574 26.1017,-161.2068 28.4489,-242.9584 5.705,-99.6358 0.8391,-202.278 -35.4461,-296.22042 -26.0809,-67.65754 -72.2296,-128.72495 -134.7501,-166.40883 -64.0426,-39.2611 -139.82142,-53.48875 -213.76865,-60.1029 -60.2432,-5.30149 -120.80167,-5.39105 -181.21875,-4.0625 24.30218,-49.43624 50.81716,-98.49545 86.65625,-140.5 10.71157,4.84121 21.98865,-3.77754 26.90625,-12.90625 6.12409,-8.50905 6.36158,-20.92957 -1.03189,-28.83543 -11.92208,-15.91679 -30.4726,-25.17155 -47.66928,-34.21292 -3.40601,-0.90303 -6.2708,-3.50269 -5.65413,-7.28122 C 727.80016,313.16395 733.93302,152.48808 757.21875,-4 c -84.20833,0 -168.41667,0 -252.625,0 0.10417,0.7604167 0.20833,1.5208333 0.3125,2.28125 z m 197.03125,42.25 c -13.06249,135.2764 -11.88209,271.75134 1.18684,406.97979 -0.69054,3.35263 3.75064,13.63268 -2.43684,9.73896 -30.56151,-10.15301 -63.50126,-8.6361 -95.30842,-7.7185 -16.20344,0.85857 -32.57896,2.83401 -47.72283,8.906 12.06287,-124.71635 10.57797,-250.30709 5.01133,-375.338573 -0.80019,-14.200396 -1.75472,-28.392216 -2.91758,-42.567677 47.39583,0 94.79167,0 142.1875,0 z m -570.09375,452 c 28.96385,6.87265 50.38069,30.81186 79.27344,37.77675 17.48445,5.291 38.37381,9.1423 49.22656,25.47325 7.41496,14.92096 -1.41831,31.14657 -5.57274,45.60443 -2.07767,6.51757 -2.34533,5.87925 -1.23976,-0.16693 2.13076,-19.36826 0.75469,-42.19655 -14.25,-56.25 -16.50985,-13.21908 -39.46891,-11.9078 -59.42303,-9.9869 -20.86793,1.80083 -41.74455,3.80346 -62.67072,4.7369 -18.784303,0.6093 -38.522258,-5.17593 -51.65625,-19 -4.013172,-3.47305 -3.619943,-9.51093 0.9375,-12.25 17.667919,-10.66047 38.74175,-13.48624 58.93411,-15.70729 2.13189,-0.0536 4.32756,-0.60983 6.44089,-0.23021 z m -7.5625,4.0625 c -12.74635,1.87071 -26.998754,5.25314 -35.5,15.65625 -2.715462,6.45009 5.113759,11.31302 10.840198,10.49046 14.615872,0.73363 29.384232,3.12514 43.972302,1.75954 5.45391,-0.46322 9.69132,-6.73817 6,-11.53125 -4.27016,-6.05328 -11.33821,-9.4714 -16.90625,-14.125 -2.52819,-1.47393 -5.43733,-2.47291 -8.40625,-2.25 z M 630.8125,505.5 c 34.94813,0.75125 69.74322,8.86343 101.09375,24.4375 -36.0623,52.15204 -63.29918,109.65771 -93.84375,165.03125 -5.30176,-1.14392 -14.07398,3.86582 -16.18291,-2.93948 C 591.53904,637.26994 562.11011,581.93968 527.25,529.90625 559.65573,514.7554 594.98889,506.01966 630.8125,505.5 z M 229.03125,680.9375 c -2.5472,19.32238 -3.70065,41.70296 9.125,57.84375 12.44616,13.79044 32.25746,17.20272 49.99922,18.10194 96.96915,0.79475 193.91622,-2.88469 290.84345,-5.3701 95.23888,-2.14679 190.65517,-6.30869 285.83694,-0.38946 62.54541,4.77651 126.75537,13.44322 182.64494,43.33811 36.7138,18.80287 67.1387,47.79396 90.8276,81.23646 36.4485,50.67683 62.1123,109.4563 72.2228,171.208 14.3829,82.538 4.6164,166.8937 -7,249.125 5.7669,-84.5362 2.3437,-171.3422 -25.7751,-251.9226 -18.3838,-52.65929 -45.8009,-102.46602 -83.3499,-143.88985 -46.2717,-47.86235 -109.49159,-74.50342 -172.43745,-93.0625 -42.09872,-13.09183 -85.56428,-22.49081 -129.74617,-24.15504 -95.39511,-5.66186 -190.88439,1.90236 -286.08324,7.69463 -66.94482,4.27755 -133.99948,10.37151 -201.13843,8.10521 C 286.15112,798.27827 265.82266,795.50473 251.625,782 c -24.15958,-21.23451 -34.78064,-56.44669 -26.5,-87.5625 1.15348,-5.21156 2.64356,-10.36419 4.21875,-15.40625 l -0.16178,0.98683 -0.15072,0.91942 z"
     id="path3251"
     inkscape:connector-curvature="0" />
</svg>
