<?xml version="1.0" encoding ="US-ASCII" standalone="yes"?>
<svg width="18.612413" height="12.24">
<path style="fill:#000000; stroke:none" d=" M 3.921482 3.494704  Q 3.901973 3.006957 3.765403 2.353377  Q 3.628835 1.699797 3.082559 1.114501  Q 2.399714 0.587735 1.921721 0.568225  Q 1.44373 0.548715 1.190102 0.743814  Q 0.975493 0.997442 0.995003 1.475433  Q 1.014513 1.953426 1.560789 2.636271  Q 2.126576 3.182547 2.78991 3.32887  Q 3.453246 3.475195 3.921482 3.494704  Z  M 4.077561 4.099511  Q 1.990006 4.528728 0.760885 7.16256  Q 0.468237 8.235602 0.858434 8.313642  Q 1.248631 8.411189 1.482749 7.884426  Q 1.892457 5.699319 4.077561 4.099511  Z  M 4.409231 5.133534  Q 3.550795 4.606768 2.507018 6.694323  Q 1.46324 8.78188 1.326671 11.435219  Q 1.658339 11.844925 2.243635 11.435219  Q 2.165596 7.025989 4.409231 5.133534  Z  M 3.355697 2.928918  Q 2.399714 2.909409 1.814417 2.382642  Q 1.42422 1.972935 1.394955 1.455924  Q 1.365691 0.938912 1.882702 0.958422  Q 2.399714 0.977932 2.82893 1.368129  Q 3.355697 1.953426 3.355697 2.928918  Z  M 3.004519 2.558231  Q 2.985009 2.070485 2.594812 1.621758  Q 2.341184 1.387639 2.038781 1.338864  Q 1.736378 1.29009 1.775398 1.602247  Q 1.814417 1.914406 2.048536 2.148524  Q 2.516773 2.538721 3.004519 2.558231  Z  M 15.607892 2.558231  Q 16.07613 2.538721 16.544365 2.148524  Q 16.778484 1.914406 16.827255 1.602247  Q 16.876036 1.29009 16.563879 1.338864  Q 16.251722 1.387639 16.017601 1.621758  Q 15.607892 2.070485 15.607892 2.558231  Z  M 15.237202 2.928918  Q 15.256717 1.953426 15.763971 1.368129  Q 16.19319 0.977932 16.710199 0.958422  Q 17.227215 0.938912 17.197947 1.455924  Q 17.168682 1.972935 16.778484 2.382642  Q 16.212698 2.909409 15.237202 2.928918  Z  M 14.183672 5.133534  Q 16.427307 7.025989 16.349266 11.435219  Q 16.934559 11.844925 17.266232 11.435219  Q 17.129662 8.78188 16.095636 6.694323  Q 15.061613 4.606768 14.183672 5.133534  Z  M 14.515339 4.099511  Q 16.700449 5.699319 17.110155 7.884426  Q 17.344269 8.411189 17.753977 8.313642  Q 18.12467 8.235602 17.851524 7.16256  Q 16.602901 4.528728 14.515339 4.099511  Z  M 14.671419 3.494704  Q 15.159165 3.475195 15.812746 3.32887  Q 16.466328 3.182547 17.032112 2.636271  Q 17.578388 1.953426 17.597902 1.475433  Q 17.617409 0.997442 17.422312 0.743814  Q 17.168682 0.548715 16.690687 0.568225  Q 16.212698 0.587735 15.510341 1.114501  Q 14.983575 1.699797 14.837256 2.353377  Q 14.690928 3.006957 14.671419 3.494704  Z  M 13.754457 5.153044  L 13.754457 3.709314  L 4.857957 3.709314  L 4.857957 5.153044  L 13.754457 5.153044  Z  M 9.306207 2.928918  L 14.222693 2.928918  Q 14.437298 1.738817 14.788479 1.241315  Q 15.139655 0.743814 15.578626 0.441411  Q 16.017601 0.139008 16.593142 0.021949  Q 17.168682 -0.095111 17.792997 0.373126  Q 18.183199 0.938912 18.105154 1.543718  Q 18.027115 2.148524 17.714958 2.577741  Q 17.402798 3.006957 16.876036 3.338626  Q 16.349266 3.670293 15.510341 3.904412  Q 18.51486 5.54324 18.612413 8.46972  Q 18.183199 9.152566 17.500355 8.879428  Q 17.753977 10.381686 17.753977 11.942475  Q 16.973583 12.56679 15.763971 11.883945  Q 15.802996 7.455208 14.222693 5.933436  L 9.306207 5.933436  L 9.286699 5.933436  L 4.38972 5.933436  Q 2.809421 7.455208 2.82893 11.883945  Q 1.619319 12.56679 0.858434 11.942475  Q 0.858434 10.381686 1.092552 8.879428  Q 0.409707 9.152566 0 8.46972  Q 0.078039 5.54324 3.082559 3.904412  Q 2.243635 3.670293 1.716868 3.338626  Q 1.190102 3.006957 0.887699 2.577741  Q 0.585296 2.148524 0.497502 1.543718  Q 0.409707 0.938912 0.799905 0.373126  Q 1.44373 -0.095111 2.019271 0.021949  Q 2.594812 0.139008 3.024029 0.441411  Q 3.453246 0.743814 3.804425 1.241315  Q 4.155601 1.738817 4.37021 2.928918  L 9.306207 2.928918  Z "/></svg>
