<?xml version="1.0" encoding="UTF-8" standalone="no"?>
<svg
   xmlns:dc="http://purl.org/dc/elements/1.1/"
   xmlns:cc="http://web.resource.org/cc/"
   xmlns:rdf="http://www.w3.org/1999/02/22-rdf-syntax-ns#"
   xmlns:svg="http://www.w3.org/2000/svg"
   xmlns="http://www.w3.org/2000/svg"
   xmlns:sodipodi="http://sodipodi.sourceforge.net/DTD/sodipodi-0.dtd"
   xmlns:inkscape="http://www.inkscape.org/namespaces/inkscape"
   width="13.692674"
   height="17.972717"
   id="svg2034"
   sodipodi:version="0.32"
   inkscape:version="0.44"
   sodipodi:docname="S3.svg"
   sodipodi:docbase="C:\Program Files\JSesh\fonts">
  <metadata
     id="metadata2041">
    <rdf:RDF>
      <cc:Work
         rdf:about="">
        <dc:format>image/svg+xml</dc:format>
        <dc:type
           rdf:resource="http://purl.org/dc/dcmitype/StillImage" />
      </cc:Work>
    </rdf:RDF>
  </metadata>
  <defs
     id="defs2039" />
  <sodipodi:namedview
     inkscape:window-height="708"
     inkscape:window-width="1024"
     inkscape:pageshadow="2"
     inkscape:pageopacity="0.0"
     guidetolerance="10.0"
     gridtolerance="10.0"
     objecttolerance="10.0"
     borderopacity="1.0"
     bordercolor="#666666"
     pagecolor="#ffffff"
     id="base"
     inkscape:zoom="41.952477"
     inkscape:cx="6.8463367"
     inkscape:cy="6.1259791"
     inkscape:window-x="-4"
     inkscape:window-y="-4"
     inkscape:current-layer="svg2034" />
  <path
     style="fill:#000000; stroke:none"
     d="M 13.692674,0.524641 L 6.077878,17.972717 L 3.839407,16.533701 C 4.0457239,15.794859 4.6419065,15.164447 5.048581,14.51508 C 5.041919,14.26192 4.922001,14.13534 4.688827,14.13534 C 4.455653,14.13534 4.2391343,14.268582 4.039271,14.535067 C 2.986657,13.908828 1.934043,13.635682 0.881429,13.715627 C 0.788159,12.702986 0.52833667,10.977498 0.101962,8.539165 L 5.218465,8.539165 C 5.4050043,8.565813 5.4849497,8.5258403 5.458301,8.419247 C 4.5522537,7.7663597 3.5962403,7.0801617 2.590261,6.360653 C 1.5842817,5.641145 0.88809067,4.9249677 0.501688,4.212121 C 0.11528533,3.499275 -0.047936333,2.846388 0.012023,2.25346 C 0.071982333,1.660532 0.291832,1.2341567 0.671572,0.974334 C 1.0513127,0.714512 1.4310533,0.61458033 1.810794,0.674539 C 2.190534,0.73449833 2.480336,0.87773367 2.6802,1.104245 C 2.8800633,1.330757 2.979995,1.5972417 2.979995,1.903699 C 2.979995,2.2101563 2.9067117,2.476641 2.760145,2.703153 C 2.6135783,2.9296643 2.353756,3.0562443 1.980678,3.082893 C 1.6075993,3.1095417 1.354439,2.949651 1.221197,2.603221 C 1.0879543,2.256791 1.1479133,2.0369413 1.401074,1.943672 C 1.534316,1.943672 1.660896,2.066921 1.780814,2.313419 C 1.900732,2.559917 2.0539607,2.559917 2.2405,2.313419 C 2.4270393,2.066921 2.4370327,1.8204227 2.27048,1.573924 C 2.1039267,1.327426 1.784145,1.257474 1.311135,1.364068 C 0.838125,1.470662 0.61494433,1.8970373 0.641593,2.643194 C 0.668241,3.3893507 1.0413193,4.1355073 1.760828,4.881664 C 4.9986153,7.4132673 6.923966,8.6390963 7.53688,8.559151 C 7.7100953,8.559151 7.8766483,8.4259087 8.036539,8.159424 L 12.613411,0.004997 C 13.066435,-0.034975667 13.426189,0.138239 13.692674,0.524641 z M 12.993152,0.884396 L 12.753316,0.784464 L 8.236403,9.298782 L 1.101415,9.298782 C 1.314603,10.497962 1.5078043,11.457033 1.681019,12.975996 C 2.6670117,12.975996 3.2731273,13.162535 3.899366,13.535613 C 4.6834193,12.992867 5.2283041,13.273459 5.568226,13.775449 C 6.0217878,14.445261 5.623069,14.964647 5.248445,15.464432 C 4.8922046,15.939691 4.769594,16.057576 4.769594,16.230791 C 4.9926221,16.491393 5.6768685,16.826571 5.7988045,16.90574 L 12.993152,0.884396 z "
     id="path2036"
     sodipodi:nodetypes="cccsscccccsssssssssscssssscccccccccccssccc" />
</svg>
