<?xml version="1.0" encoding="UTF-8" standalone="no"?>
<svg
   xmlns:dc="http://purl.org/dc/elements/1.1/"
   xmlns:cc="http://creativecommons.org/ns#"
   xmlns:rdf="http://www.w3.org/1999/02/22-rdf-syntax-ns#"
   xmlns:svg="http://www.w3.org/2000/svg"
   xmlns="http://www.w3.org/2000/svg"
   xmlns:sodipodi="http://sodipodi.sourceforge.net/DTD/sodipodi-0.dtd"
   xmlns:inkscape="http://www.inkscape.org/namespaces/inkscape"
   width="25.624546"
   height="17.983217"
   id="svg2469"
   sodipodi:version="0.32"
   inkscape:version="0.46"
   sodipodi:docname="S57varA.svg"
   inkscape:output_extension="org.inkscape.output.svg.inkscape">
  <metadata
     id="metadata2476">
    <rdf:RDF>
      <cc:Work
         rdf:about="">
        <dc:format>image/svg+xml</dc:format>
        <dc:type
           rdf:resource="http://purl.org/dc/dcmitype/StillImage" />
      </cc:Work>
    </rdf:RDF>
  </metadata>
  <defs
     id="defs2474">
    <inkscape:perspective
       sodipodi:type="inkscape:persp3d"
       inkscape:vp_x="0 : 8.9916086 : 1"
       inkscape:vp_y="0 : 1000 : 0"
       inkscape:vp_z="25.624546 : 8.9916086 : 1"
       inkscape:persp3d-origin="12.812273 : 5.9944057 : 1"
       id="perspective2478" />
  </defs>
  <sodipodi:namedview
     inkscape:window-height="480"
     inkscape:window-width="640"
     inkscape:pageshadow="2"
     inkscape:pageopacity="0.0"
     guidetolerance="10.0"
     gridtolerance="10.0"
     objecttolerance="10.0"
     borderopacity="1.0"
     bordercolor="#666666"
     pagecolor="#ffffff"
     id="base"
     showgrid="false" />
  <path
     style="fill:#000000; stroke:none"
     d="M 3.305648,5.4196 C 3.9297233,1.8065333 6.286428,0 10.375762,0 C 14.465097,0 16.960264,1.1539352 17.830636,3.325664 C 18.719195,5.5427727 19.056546,7.4724783 18.826624,9.114781 L 26.044544,12.834598 L 24.147686,15.39659 L 18.21076,10.371143 C 17.438877,11.422217 15.786823,12.120196 13.914598,12.465079 L 13.914598,17.983217 L 10.252589,17.983217 L 10.252589,11.085545 C 10.252589,10.527162 10.539992,9.9852023 11.114799,9.459665 C 11.689605,8.9341283 11.977008,8.3921683 11.977008,7.833785 C 11.960585,7.0783257 11.689604,6.700596 11.164067,6.700596 C 10.4743,6.700596 10.137628,7.3575173 10.154051,8.67136 L 7.863039,8.67136 C 7.863039,7.3739407 7.608482,6.725231 7.099368,6.725231 L 2.12319,6.725231 C 0.23903127,6.6045026 0.042802817,3.9628049 1.162443,2.759069 C 0.57121367,2.759069 0.209907,2.6523193 0.078523,2.43882 C -0.052861667,2.2253207 -0.020015667,1.9912923 0.177061,1.736735 C 0.374137,1.4821783 0.760078,1.3549 1.334884,1.3549 C 2.4352273,1.3549 2.948447,1.777793 2.874543,2.623579 C 2.706887,4.2593561 1.1172446,5.8795773 3.305648,5.4196 z M 4.241761,5.912291 L 7.074733,5.912291 C 8.0765377,5.912291 8.57744,6.5281543 8.57744,7.759881 L 9.464284,7.759881 C 9.4807067,6.5281543 10.047301,5.912291 11.164067,5.912291 C 12.247988,5.912291 12.789948,6.552789 12.789948,7.833785 C 12.789948,8.3921683 12.490227,8.9957147 11.890786,9.644424 C 11.291346,10.293134 10.991626,10.89668 10.991626,11.455063 L 10.991626,17.219547 L 13.060927,17.219547 L 13.060927,11.504333 C 14.456884,11.405794 16.038814,10.945949 16.966715,10.124798 C 17.894616,9.303646 17.818317,7.5628047 17.177819,4.902274 C 16.537322,2.2417433 14.226963,0.911478 10.646742,0.911478 C 7.066522,0.911478 4.9315283,2.5784157 4.241761,5.912291 z"
     id="path2471"
     sodipodi:nodetypes="cssccccccccssscccccsssccccccsssccccsssc" />
</svg>
