<?xml version="1.0" encoding="UTF-8" standalone="no"?>
<svg
   xmlns:dc="http://purl.org/dc/elements/1.1/"
   xmlns:cc="http://creativecommons.org/ns#"
   xmlns:rdf="http://www.w3.org/1999/02/22-rdf-syntax-ns#"
   xmlns:svg="http://www.w3.org/2000/svg"
   xmlns="http://www.w3.org/2000/svg"
   xmlns:sodipodi="http://sodipodi.sourceforge.net/DTD/sodipodi-0.dtd"
   xmlns:inkscape="http://www.inkscape.org/namespaces/inkscape"
   width="18.320658"
   height="17.98"
   id="svg2434"
   sodipodi:version="0.32"
   inkscape:version="0.46"
   sodipodi:docname="S7.svg"
   inkscape:output_extension="org.inkscape.output.svg.inkscape"
   version="1.0">
  <metadata
     id="metadata2441">
    <rdf:RDF>
      <cc:Work
         rdf:about="">
        <dc:format>image/svg+xml</dc:format>
        <dc:type
           rdf:resource="http://purl.org/dc/dcmitype/StillImage" />
      </cc:Work>
    </rdf:RDF>
  </metadata>
  <defs
     id="defs2439">
    <inkscape:perspective
       sodipodi:type="inkscape:persp3d"
       inkscape:vp_x="0 : 8.9899998 : 1"
       inkscape:vp_y="0 : 1000 : 0"
       inkscape:vp_z="18.07 : 8.9899998 : 1"
       inkscape:persp3d-origin="9.0349998 : 5.9933332 : 1"
       id="perspective2443" />
  </defs>
  <sodipodi:namedview
     inkscape:window-height="667"
     inkscape:window-width="640"
     inkscape:pageshadow="2"
     inkscape:pageopacity="0.0"
     guidetolerance="10.0"
     gridtolerance="10.0"
     objecttolerance="10.0"
     borderopacity="1.0"
     bordercolor="#666666"
     pagecolor="#ffffff"
     id="base"
     showgrid="false"
     inkscape:zoom="25.695218"
     inkscape:cx="9.0349998"
     inkscape:cy="8.9899998"
     inkscape:window-x="110"
     inkscape:window-y="67"
     inkscape:current-layer="svg2434" />
  <path
     style="fill:#000000;stroke:none"
     d="M 9.99,0 C 12.323333,0 13.993333,0.88333333 15,2.65 C 16.013333,4.4166667 17.116667,5.5533333 18.31,6.06 C 18.43,8.6733333 17.536667,10.876667 15.63,12.67 C 13.723333,14.47 12.166667,16.24 10.96,17.98 L 8.68,14.7 C 9.2666667,13.306667 9.1333333,12.613333 8.28,12.62 C 7.4266667,12.626667 7,12.983333 7,13.69 L 6.22,13.69 C 6.22,12.45 5.9266667,11.686667 5.34,11.4 C 4.6466667,11.173333 3.6166667,11.016667 2.25,10.93 L 2.25,10.26 C 1.2766667,10.26 0.45666667,9.8533333 0.29,9.04 C 0.12333333,8.2266667 0.34333333,7.54 0.95,6.98 C 0.34333333,6.9533333 0.02666667,6.8266667 0,6.6 C 0.06,6.3533333 0.36666667,6.22 0.92,6.2 C 1.4733333,6.1733333 1.8133333,6.3666667 1.94,6.78 C 2.0666667,7.1866667 2.0033333,7.7166667 1.75,8.37 C 1.49,9.03 1.8333333,9.36 2.28,9.36 C 2.2933333,6.7733333 3.0166667,4.5666667 4.45,2.74 C 5.89,0.91333333 7.7366667,0 9.99,0 z M 8.57,11.81 C 9.55,11.81 10.043333,12.173333 10.05,12.9 C 10.056667,13.626667 9.9733333,14.083333 9.8,14.27 L 11.05,16.23 C 11.81,15.136667 13.086667,13.78 14.88,12.16 C 16.666667,10.533333 17.51,8.75 17.41,6.81 C 15.11,8.35 12.163333,10.016667 8.57,11.81 z M 3.12,9.87 C 4.1266667,9.83 5.5266667,10.14 7.32,10.8 L 6.95,12.09 C 11.176667,9.9966667 14.59,8.0933333 17.19,6.38 C 16.343333,6.0333333 15.433333,5.02 14.46,3.34 C 13.48,1.66 11.976667,0.82 9.95,0.82 C 8.01,0.82 6.39,1.6466667 5.09,3.3 C 3.79,4.9533333 3.1333333,7.1433333 3.12,9.87 z"
     id="path2436"
     sodipodi:nodetypes="ccccccscccccsccsssccccsccccccccccssc" />
</svg>
