<?xml version="1.0" encoding ="US-ASCII" standalone="yes"?>
<svg width="14.914258" height="17.976807">
<path style="fill:#000000; stroke:none" d=" M 7.542192 12.020406  Q 9.470267 12.37956 9.526976 13.872872  Q 9.205629 15.63083 7.67451 15.725344  Q 7.145233 15.725344 7.012914 15.64973  Q 5.576304 15.158261 5.576304 13.910681  L 5.576304 13.83507  L 5.651918 13.381402  Q 6.200097 12.020406 7.542192 12.020406  Z  M 4.650071 0.603154  Q 5.80314 0.603154 6.445833 2.153178  L 6.445833 11.661256  Q 5.028125 12.568583 5.028125 13.872872  Q 5.028125 15.082649 6.105584 15.91437  L 6.105584 15.952175  Q 5.595208 16.046688 4.820196 16.084494  Q 3.648228 16.424744 3.062243 16.424744  Q 2.476257 16.424744 2.476257 16.179008  L 2.476257 15.91437  Q 3.307979 11.661256 4.593364 3.684301  Q 3.270173 2.739163 3.307979 1.661708  Q 3.704936 0.603154 4.650071 0.603154  Z  M 10.056252 0.603154  Q 11.492865 0.867793 11.530666 2.02086  Q 11.530666 2.720261 10.169668 3.684301  L 12.456902 16.25462  L 12.456902 16.292425  Q 11.962993 16.489988 11.456333 16.489988  Q 11.090415 16.489988 10.717846 16.386938  Q 9.942837 16.197912 8.751966 16.065594  Q 10.150766 15.158261 10.056252 13.702749  Q 10.150766 12.700906 8.997699 11.812474  Q 8.392816 11.585643 8.392816 11.528935  L 8.392816 2.285497  L 8.600743 1.26475  Q 8.978796 0.603154 10.056252 0.603154  Z  M 0.585985 15.763147  Q 2.173814 16.840605 3.402493 16.840605  Q 5.404536 16.478165 6.067134 16.478165  Q 6.130239 16.478165 6.181194 16.481453  Q 7.334261 16.557064 7.334261 17.105244  L 7.334261 17.48329  Q 6.521443 17.029634 6.15284 16.897308  Q 6.001063 16.842825 5.785188 16.842825  Q 5.47679 16.842825 5.037577 16.954018  Q 4.290919 17.143044 3.31743 17.161951  Q 3.28387 17.162603 3.250253 17.162603  Q 2.308749 17.162603 1.323192 16.651575  Q 0.793915 16.349133 0.548179 15.819856  L 0.548179 15.78205  L 0.585985 15.763147  Z  M 14.555103 15.744246  Q 13.307527 17.029634 12.135554 17.21866  Q 10.623335 17.21866 9.262338 16.840605  Q 9.016603 16.840605 8.733061 16.972925  L 7.769023 17.48329  L 7.769023 17.029634  Q 7.939149 16.632673 8.884282 16.481453  Q 10.415405 16.689384 11.398351 16.916216  Q 12.456902 16.897308 14.555103 15.744246  Z  M 4.9032 0  Q 4.016987 0 3.374138 0.442481  Q 2.646382 0.943404 2.646382 1.88854  Q 2.646382 2.531233 3.062243 3.155024  Q 3.893963 3.797717 3.893963 4.402603  Q 1.984787 15.101554 1.606733 15.91437  Q 1.493316 15.91437 0.992394 15.536315  Q 0.491471 15.158261 0.245736 15.129907  Q 0.228592 15.127928 0.212645 15.127928  Q 0 15.127928 0 15.479608  Q 0 15.857662 0.803366 16.764992  Q 1.530945 17.586723 3.258563 17.586723  Q 3.438518 17.586723 3.629325 17.577806  L 5.840945 17.313169  Q 6.823886 17.974764 7.598899 17.974764  Q 7.634663 17.976807 7.671201 17.976807  Q 8.310565 17.976807 9.186728 17.350975  L 11.776405 17.729027  Q 12.683737 17.615612 13.855702 16.878412  Q 14.555103 16.557064 14.914258 15.64973  L 14.914258 15.385093  Q 14.914258 15.335702 14.846545 15.335702  Q 14.681023 15.335702 14.110891 15.63083  Q 13.307527 16.046688 13.06179 16.046688  L 10.812364 3.948939  Q 12.532514 2.606844 11.984335 1.359264  Q 11.436156 0.111683 9.886129 0.073878  Q 9.840835 0.072808 9.79648 0.072808  Q 7.490119 0.072808 7.731219 2.965997  L 7.731219 11.510035  L 7.031818 11.510035  L 7.031818 2.9849  Q 7.069623 1.737319 6.62541 0.905599  Q 6.181194 0.073878 5.141541 0.007719  Q 5.020248 0 4.9032 0  Z "/></svg>
