<?xml version="1.0" encoding="UTF-8" standalone="no"?>
<svg
   xmlns:dc="http://purl.org/dc/elements/1.1/"
   xmlns:cc="http://web.resource.org/cc/"
   xmlns:rdf="http://www.w3.org/1999/02/22-rdf-syntax-ns#"
   xmlns:svg="http://www.w3.org/2000/svg"
   xmlns="http://www.w3.org/2000/svg"
   xmlns:sodipodi="http://inkscape.sourceforge.net/DTD/sodipodi-0.dtd"
   xmlns:inkscape="http://www.inkscape.org/namespaces/inkscape"
   width="18.755375"
   height="17.977417"
   id="svg1390"
   sodipodi:version="0.32"
   inkscape:version="0.43"
   sodipodi:docname="US22S8B.svg"
   sodipodi:docbase="C:\Program Files\JSesh\fonts\transmis à Serge Rosmorduc\envoi12_SR">
  <metadata
     id="metadata1397">
    <rdf:RDF>
      <cc:Work
         rdf:about="">
        <dc:format>image/svg+xml</dc:format>
        <dc:type
           rdf:resource="http://purl.org/dc/dcmitype/StillImage" />
        <dc:title>US22S8B</dc:title>
        <dc:date>5/01/2006</dc:date>
        <dc:creator>
          <cc:Agent>
            <dc:title>Serge Thomas</dc:title>
          </cc:Agent>
        </dc:creator>
        <dc:publisher>
          <cc:Agent>
            <dc:title>Serge Rosmorduc</dc:title>
          </cc:Agent>
        </dc:publisher>
        <dc:identifier>US22</dc:identifier>
        <dc:description>optimisation de la couronne Atef S8</dc:description>
        <cc:license
           rdf:resource="http://creativecommons.org/licenses/GPL/2.0/" />
      </cc:Work>
      <cc:License
         rdf:about="http://creativecommons.org/licenses/GPL/2.0/">
        <cc:permits
           rdf:resource="http://web.resource.org/cc/Reproduction" />
        <cc:permits
           rdf:resource="http://web.resource.org/cc/Distribution" />
        <cc:requires
           rdf:resource="http://web.resource.org/cc/Notice" />
        <cc:permits
           rdf:resource="http://web.resource.org/cc/DerivativeWorks" />
        <cc:requires
           rdf:resource="http://web.resource.org/cc/ShareAlike" />
        <cc:requires
           rdf:resource="http://web.resource.org/cc/SourceCode" />
      </cc:License>
    </rdf:RDF>
  </metadata>
  <defs
     id="defs1395" />
  <sodipodi:namedview
     inkscape:window-height="708"
     inkscape:window-width="1024"
     inkscape:pageshadow="2"
     inkscape:pageopacity="0.0"
     borderopacity="1.0"
     bordercolor="#666666"
     pagecolor="#ffffff"
     id="base"
     inkscape:zoom="20.748253"
     inkscape:cx="9.3776875"
     inkscape:cy="8.9887085"
     inkscape:window-x="-4"
     inkscape:window-y="-4"
     inkscape:current-layer="svg1390" />
  <path
     style="fill:#000000; stroke:none"
     d=" M 13.556129 3.052178  Q 13.787527 2.762929 13.835735 1.557725  Q 13.883944 0.352522 14.231042 0.063273  Q 14.520291 -0.129559 14.905956 0.256106  Q 15.137355 0.853887 15.619436 0.641771  Q 16.988548 -0.264542 16.853565 1.393818  Q 16.757149 1.798766 17.470629 1.798766  Q 17.952711 1.933749 17.933428 2.280848  Q 17.894861 2.762929 16.88249 3.389635  Q 15.870119 4.01634 15.812269 4.402006  L 15.812269 4.749104  Q 16.313633 4.093473 17.123529 4.035624  Q 17.933428 3.977774 18.473358 4.797312  Q 19.013288 5.61685 18.521566 6.311048  Q 18.029844 7.005245 16.930698 7.217361  L 15.426604 13.870084  Q 15.310905 14.602847 14.69384 14.410015  L 12.572682 14.313599  L 12.360566 14.91138  Q 13.131897 15.489877 13.642902 15.248837  Q 14.153909 15.007795 14.761332 15.460952  Q 15.368754 15.914108 15.908686 15.557368  Q 16.448616 15.200628 16.930698 15.297045  Q 17.412779 15.393461 18.164825 15.836976  Q 16.680016 16.010525 16.024385 16.51189  Q 15.368754 17.013254 14.674557 16.646872  Q 13.98036 16.280491 13.478995 16.473324  Q 12.977631 16.666155 11.859201 15.991241  L 9.660911 17.977417  L 8.156816 16.724005  L 9.024563 15.297045  Q 7.192654 15.181345 6.51774 14.544997  Q 5.842826 13.90865 5.158271 13.937575  Q 4.473715 13.9665 4.194108 13.580835  Q 3.914501 13.195169 3.422778 13.002337  Q 2.931055 12.809505 2.275424 12.954129  Q 1.619793 13.098754 1.156995 12.66488  Q 0.694197 12.231007 0 11.151145  Q 1.099146 11.498243 1.735493 12.211723  Q 2.448973 11.961041 3.181737 12.018891  Q 3.914501 12.076741 4.570131 12.520256  L 5.534294 11.440393  L 4.010917 10.167699  Q 3.490269 9.550634 4.396582 8.972136  L 10.374392 3.283577  Q 9.930877 2.377264 10.13335 1.528801  Q 10.335825 0.680337 11.319271 0.583921  Q 12.302716 0.487505 12.900497 1.422743  Q 13.498279 2.35798 13.170464 3.167877  L 13.556129 3.052178  Z  M 14.616707 2.647229  L 15.52302 3.18716  Q 16.217216 3.148594 16.814999 2.724362  Q 17.412779 2.300131 16.795715 2.165148  Q 16.2365 2.126581 16.303991 1.442026  Q 16.371483 0.75747 15.802628 1.152777  Q 15.233771 1.548084 14.92524 1.046719  Q 14.539575 0.564638 14.443158 1.278118  Q 14.346742 1.991599 14.616707 2.647229  Z  M 11.222855 3.495692  L 4.705114 9.724184  L 6.054942 10.842612  L 12.360566 3.881358  Q 12.726948 1.413101 11.55067 1.470951  Q 10.374392 1.528801 11.222855 3.495692  Z  M 14.192475 2.878628  L 13.86466 3.41856  L 15.195205 4.209173  L 15.52302 3.669242  L 14.192475 2.878628  Z  M 13.305446 3.765658  L 5.457161 12.828788  Q 6.286341 12.655239 7.076954 13.368719  Q 6.806989 10.996879 8.696748 10.534081  Q 10.586507 10.071282 11.19393 11.691076  Q 11.801352 13.310869 10.355108 14.352165  Q 11.126438 14.236465 11.569953 14.583564  L 15.195205 4.884087  Q 14.404592 4.054907 13.305446 3.765658  Z  M 12.842648 13.503702  L 14.57814 13.619401  Q 15.870119 8.412923 16.487183 6.61958  Q 18.492641 6.060366 17.798445 5.144411  Q 17.104248 4.228456 15.503736 5.771117  L 12.842648 13.503702  Z  M 8.195383 12.770938  Q 8.561765 13.677251 9.41987 13.455494  Q 10.277975 13.233736 10.114067 12.356348  Q 9.950159 11.47896 9.072771 11.575377  Q 8.195383 11.671793 8.195383 12.770938  Z  M 9.641627 15.470593  L 8.947431 16.454041  L 8.966714 16.531174  L 9.603061 17.090387  L 9.641627 17.090387  L 11.087872 15.56701  L 9.641627 15.470593  Z "
     id="path1392" />
</svg>
