<?xml version="1.0" encoding="UTF-8" standalone="no"?>
<svg
   xmlns:dc="http://purl.org/dc/elements/1.1/"
   xmlns:cc="http://creativecommons.org/ns#"
   xmlns:rdf="http://www.w3.org/1999/02/22-rdf-syntax-ns#"
   xmlns:svg="http://www.w3.org/2000/svg"
   xmlns="http://www.w3.org/2000/svg"
   xmlns:sodipodi="http://sodipodi.sourceforge.net/DTD/sodipodi-0.dtd"
   xmlns:inkscape="http://www.inkscape.org/namespaces/inkscape"
   width="14.28"
   height="17.98"
   id="svg2434"
   sodipodi:version="0.32"
   inkscape:version="0.46"
   sodipodi:docname="S99.svg"
   inkscape:output_extension="org.inkscape.output.svg.inkscape">
  <metadata
     id="metadata2441">
    <rdf:RDF>
      <cc:Work
         rdf:about="">
        <dc:format>image/svg+xml</dc:format>
        <dc:type
           rdf:resource="http://purl.org/dc/dcmitype/StillImage" />
      </cc:Work>
    </rdf:RDF>
  </metadata>
  <defs
     id="defs2439">
    <inkscape:perspective
       sodipodi:type="inkscape:persp3d"
       inkscape:vp_x="0 : 8.9899998 : 1"
       inkscape:vp_y="0 : 1000 : 0"
       inkscape:vp_z="14.28 : 8.9899998 : 1"
       inkscape:persp3d-origin="7.1399999 : 5.9933332 : 1"
       id="perspective2443" />
  </defs>
  <sodipodi:namedview
     inkscape:window-height="667"
     inkscape:window-width="640"
     inkscape:pageshadow="2"
     inkscape:pageopacity="0.0"
     guidetolerance="10.0"
     gridtolerance="10.0"
     objecttolerance="10.0"
     borderopacity="1.0"
     bordercolor="#666666"
     pagecolor="#ffffff"
     id="base"
     showgrid="false"
     inkscape:zoom="25.695218"
     inkscape:cx="7.1399999"
     inkscape:cy="7.4332899"
     inkscape:window-x="132"
     inkscape:window-y="67"
     inkscape:current-layer="svg2434" />
  <path
     style="fill:#000000; stroke:none"
     d="M 5.32,7.73 L 5.57,8.37 L 5.57,8.56 C 4.99,8.8333333 4.5333333,9.5766667 4.2,10.79 L 2.51,10.29 L 2.51,11.02 L 4.22,11.52 C 4.2066667,12.74 4.3033333,13.876667 4.51,14.93 C 4.71,15.99 5.1533333,16.663333 5.84,16.95 C 5.84,15.963333 5.9466667,15.146667 6.16,14.5 C 6.3733333,13.853333 6.7066667,13.53 7.16,13.53 C 7.6333333,13.53 7.9766667,13.853333 8.19,14.5 C 8.4033333,15.146667 8.51,15.963333 8.51,16.95 C 9.1766667,16.663333 9.6133333,15.99 9.82,14.93 C 10.026667,13.876667 10.123333,12.74 10.11,11.52 L 11.84,11.02 L 11.84,10.29 L 10.13,10.79 C 9.81,9.5766667 9.3533333,8.8333333 8.76,8.56 L 8.76,8.37 L 9.01,7.73 L 5.32,7.73 z M 7.16,13.99 C 6.92,13.99 6.7133333,14.236667 6.54,14.73 C 6.36,15.223333 6.27,16.016667 6.27,17.11 C 6.4833333,17.216667 6.78,17.27 7.16,17.27 C 7.54,17.27 7.8366667,17.216667 8.05,17.11 C 8.05,16.016667 7.9633333,15.223333 7.79,14.73 C 7.6166667,14.236667 7.4066667,13.99 7.16,13.99 z M 7.16,10.33 C 6.7333333,10.33 6.2866667,10.483333 5.82,10.79 C 5.3466667,11.096667 5.11,11.356667 5.11,11.57 C 5.11,11.69 5.18,11.75 5.32,11.75 C 5.3933333,11.75 5.63,11.583333 6.03,11.25 C 6.4366667,10.916667 6.8133333,10.75 7.16,10.75 C 7.5266667,10.75 7.9133333,10.916667 8.32,11.25 C 8.72,11.583333 8.9566667,11.75 9.03,11.75 C 9.17,11.75 9.24,11.69 9.24,11.57 C 9.24,11.356667 9.0033333,11.096667 8.53,10.79 C 8.0633333,10.483333 7.6066667,10.33 7.16,10.33 z M 7.16,11.22 C 6.86,11.22 6.4566667,11.436667 5.95,11.87 C 5.45,12.303333 5.07,12.37 4.81,12.07 C 4.5966667,11.823333 4.5766667,11.55 4.75,11.25 C 4.9166667,10.943333 5.2333333,10.633333 5.7,10.32 C 6.1733333,10.013333 6.66,9.86 7.16,9.86 C 7.68,9.86 8.1733333,10.013333 8.64,10.32 C 9.1,10.633333 9.4166667,10.943333 9.59,11.25 C 9.77,11.55 9.7433333,11.823333 9.51,12.07 C 9.27,12.37 8.8933333,12.303333 8.38,11.87 C 7.8733333,11.436667 7.4666667,11.22 7.16,11.22 z M 4.86,8.35 L 0,0.37 L 0.64,0 L 5.09,7.19 L 9.26,7.16 L 13.67,0.07 L 14.28,0.43 L 9.49,8.35 C 10.036667,8.8033333 10.393333,9.3733333 10.56,10.06 L 12.41,9.56 L 12.41,11.5 L 10.79,12.07 C 10.79,12.74 10.751145,13.3907 10.674218,14.0223 C 10.597291,14.6539 10.482291,15.2664 10.33,15.86 C 10.177915,16.4528 9.8408333,16.926667 9.3125,17.28 C 8.7841667,17.633333 8.0666667,17.866667 7.16,17.98 C 6.2566667,17.866667 5.5411439,17.633464 5.0142159,17.280196 C 4.4872878,16.926928 4.1489545,16.453595 4,15.86 C 3.8512423,15.267189 3.7433333,14.654167 3.67,14.0225 C 3.5966667,13.390833 3.56,12.74 3.56,12.07 L 1.94,11.5 L 1.94,9.56 L 3.79,10.06 C 3.9566667,9.3733333 4.3133333,8.8033333 4.86,8.35 z"
     id="path2436"
     sodipodi:nodetypes="cccccccscssscscccccccccscscsccsssssssssccssssssscscccccccccccccssscsssccccc" />
</svg>
