<?xml version="1.0" encoding="UTF-8" standalone="no"?>
<svg
   xmlns:dc="http://purl.org/dc/elements/1.1/"
   xmlns:cc="http://web.resource.org/cc/"
   xmlns:rdf="http://www.w3.org/1999/02/22-rdf-syntax-ns#"
   xmlns:svg="http://www.w3.org/2000/svg"
   xmlns="http://www.w3.org/2000/svg"
   xmlns:sodipodi="http://inkscape.sourceforge.net/DTD/sodipodi-0.dtd"
   xmlns:inkscape="http://www.inkscape.org/namespaces/inkscape"
   width="20.143534"
   height="4.08"
   id="svg2890"
   sodipodi:version="0.32"
   inkscape:version="0.43"
   sodipodi:docname="US22T11A.svg"
   sodipodi:docbase="C:\Program Files\JSesh\fonts\envoi25_SR">
  <metadata
     id="metadata2897">
    <rdf:RDF>
      <cc:Work
         rdf:about="">
        <dc:format>image/svg+xml</dc:format>
        <dc:type
           rdf:resource="http://purl.org/dc/dcmitype/StillImage" />
        <dc:title>US22T11A</dc:title>
        <dc:date>03/04/06</dc:date>
        <dc:creator>
          <cc:Agent>
            <dc:title>SR &amp; ST</dc:title>
          </cc:Agent>
        </dc:creator>
        <dc:publisher>
          <cc:Agent>
            <dc:title>Serge Rosmorduc</dc:title>
          </cc:Agent>
        </dc:publisher>
        <dc:description>variante optimisée du signe de Jsesh</dc:description>
        <cc:license
           rdf:resource="http://creativecommons.org/licenses/by-nc-nd/2.0/" />
      </cc:Work>
      <cc:License
         rdf:about="http://creativecommons.org/licenses/by-nc-nd/2.0/">
        <cc:permits
           rdf:resource="http://web.resource.org/cc/Reproduction" />
        <cc:permits
           rdf:resource="http://web.resource.org/cc/Distribution" />
        <cc:requires
           rdf:resource="http://web.resource.org/cc/Notice" />
        <cc:requires
           rdf:resource="http://web.resource.org/cc/Attribution" />
        <cc:prohibits
           rdf:resource="http://web.resource.org/cc/CommercialUse" />
      </cc:License>
    </rdf:RDF>
  </metadata>
  <defs
     id="defs2895" />
  <sodipodi:namedview
     inkscape:window-height="542"
     inkscape:window-width="811"
     inkscape:pageshadow="2"
     inkscape:pageopacity="0.0"
     borderopacity="1.0"
     bordercolor="#666666"
     pagecolor="#ffffff"
     id="base"
     inkscape:zoom="35.74348"
     inkscape:cx="10.071767"
     inkscape:cy="2.04"
     inkscape:window-x="88"
     inkscape:window-y="116"
     inkscape:current-layer="svg2890" />
  <path
     style="fill:#000000; stroke:none"
     d=" M 20.143534 2.797712  Q 20.143534 3.147428 19.234274 3.217369  Q 18.325035 3.287314 17.917032 3.683656  Q 17.509029 4.08 16.436575 4.08  Q 15.364119 4.08 14.641371 3.473827  Q 13.918622 2.867654 12.962738 2.657827  Q 9.582167 2.72777 3.05417 2.564571  Q 2.72777 3.124115 2.051657 3.124115  Q 1.375542 3.124115 0.862628 2.40137  Q 0.373028 2.424685 0 2.051657  Q 0.373028 1.655314 0.862628 1.678627  Q 1.375542 0.955886 2.051657 0.955886  Q 2.72777 0.955886 3.05417 1.538742  Q 9.582167 1.352228 12.962738 1.42217  Q 13.918622 1.212343 14.641371 0.606171  Q 15.364119 0 16.436575 0  Q 17.509029 0 17.928699 0.396343  Q 18.348349 0.792686 19.245935 0.862628  Q 20.143534 0.932571 20.143534 1.3056  Q 20.143534 1.678627 19.514055 1.678627  Q 18.884571 1.678627 18.907873 2.051657  Q 18.907873 2.40137 19.5257 2.40137  Q 20.143534 2.40137 20.143534 2.797712  Z  M 17.928699 1.678627  Q 16.459885 0 14.82788 1.678627  L 17.928699 1.678627  Z  M 17.928699 2.40137  L 14.82788 2.40137  Q 16.459885 4.056686 17.928699 2.40137  Z "
     id="path2892" />
</svg>
