<?xml version="1.0" encoding="UTF-8" standalone="no"?>
<svg
   xmlns:dc="http://purl.org/dc/elements/1.1/"
   xmlns:cc="http://creativecommons.org/ns#"
   xmlns:rdf="http://www.w3.org/1999/02/22-rdf-syntax-ns#"
   xmlns:svg="http://www.w3.org/2000/svg"
   xmlns="http://www.w3.org/2000/svg"
   xmlns:sodipodi="http://sodipodi.sourceforge.net/DTD/sodipodi-0.dtd"
   xmlns:inkscape="http://www.inkscape.org/namespaces/inkscape"
   width="13.625"
   height="11.438869"
   id="svg2509"
   sodipodi:version="0.32"
   inkscape:version="0.46"
   sodipodi:docname="T12A.svg"
   inkscape:output_extension="org.inkscape.output.svg.inkscape"
   version="1.0">
  <metadata
     id="metadata2516">
    <rdf:RDF>
      <cc:Work
         rdf:about="">
        <dc:format>image/svg+xml</dc:format>
        <dc:type
           rdf:resource="http://purl.org/dc/dcmitype/StillImage" />
      </cc:Work>
    </rdf:RDF>
  </metadata>
  <defs
     id="defs2514">
    <inkscape:perspective
       sodipodi:type="inkscape:persp3d"
       inkscape:vp_x="0 : 6.2399998 : 1"
       inkscape:vp_y="0 : 1000 : 0"
       inkscape:vp_z="11.539063 : 6.2399998 : 1"
       inkscape:persp3d-origin="5.7695317 : 4.1599998 : 1"
       id="perspective2518" />
  </defs>
  <sodipodi:namedview
     inkscape:window-height="712"
     inkscape:window-width="1024"
     inkscape:pageshadow="2"
     inkscape:pageopacity="0.0"
     guidetolerance="10.0"
     gridtolerance="10.0"
     objecttolerance="10.0"
     borderopacity="1.0"
     bordercolor="#666666"
     pagecolor="#ffffff"
     id="base"
     showgrid="false"
     showguides="true"
     inkscape:guide-bbox="true"
     inkscape:zoom="44.322561"
     inkscape:cx="6.8125"
     inkscape:cy="5.7194347"
     inkscape:window-x="-4"
     inkscape:window-y="-4"
     inkscape:current-layer="svg2509" />
  <path
     style="fill:#000000;stroke:none"
     d="M 3.5,0.00089129604 C 2.9340018,-0.017645104 2.4056135,0.2539743 1.96875,0.7196413 C 1.386267,1.3405306 1.010929,1.9263173 0.8125,2.4383913 C 0.6140711,2.9504654 0.602023,3.8569993 0.78125,5.1883913 C 0.768448,5.8284835 0.619745,6.682692 0.3125,7.7196413 L 0,8.4071413 C 0.256037,8.7399882 0.584694,8.8235653 0.96875,8.6571413 L 1.0625,7.9071413 C 1.3185359,6.8573892 1.5862033,6.0641726 1.90625,5.5008913 C 3.0456147,4.3103204 3.499636,3.1707513 3.25,2.0633913 C 3.000364,0.9560319 3.2695399,0.567138 4.03125,0.9383913 C 4.6472632,1.2386331 5.5821114,2.4061936 6.34375,3.4383913 L 5.125,5.1883913 C 4.5169127,6.1165246 4.1521133,7.1634898 4.0625,8.2196413 C 3.9728873,9.2757943 4.1746719,10.106661 4.71875,10.657141 C 5.2628287,11.20762 5.9619315,11.451192 6.78125,11.438391 C 7.6005673,11.451192 8.2748219,11.20762 8.8125,10.657141 C 9.3501767,10.106661 9.5832113,9.2757943 9.5,8.2196413 C 9.416788,7.1634893 9.0040319,6.239402 8.5,5.2508913 C 7.968317,4.2081509 7.3664965,3.2845823 7.5,3.2821413 C 8.152894,2.1555786 8.8632909,1.3096446 9.625,0.9383913 C 10.38671,0.567138 10.624636,0.9247819 10.375,2.0321413 C 10.125364,3.1395013 10.579386,4.2790706 11.71875,5.4696413 C 12.038797,6.0329226 12.306464,6.8573889 12.5625,7.9071413 L 12.6875,8.6571413 C 13.071556,8.8235653 13.368963,8.7399889 13.625,8.4071413 L 13.3125,7.6883913 C 13.005255,6.651442 12.856552,5.7972332 12.84375,5.1571413 C 13.022977,3.8257493 13.010929,2.9192154 12.8125,2.4071413 C 12.614071,1.8950673 12.238733,1.3405306 11.65625,0.7196413 C 11.073765,0.098751996 10.350568,-0.12299003 9.53125,0.094641296 C 8.7256504,0.3086287 7.8473774,1.1708217 6.84375,2.7196413 L 6.65625,2.4696413 C 5.7131419,1.0855145 4.7239771,0.3705356 4.09375,0.1258913 C 3.896181,0.049198096 3.6886661,0.007070096 3.5,0.00089129604 z M 11.3125,1.8446413 C 11.581339,1.9982633 11.783877,2.2376985 11.9375,2.5321413 C 12.091121,2.8265833 12.193146,3.1119439 12.21875,3.4383913 C 12.244354,3.7648386 12.17207,4.1055431 12.03125,4.4383913 C 11.736808,4.22076 11.522222,3.951584 11.375,3.6571413 C 11.227778,3.3626986 11.137802,3.077338 11.125,2.7508913 C 11.112197,2.424444 11.184482,2.1134801 11.3125,1.8446413 z M 2.3125,1.8758913 C 2.4405187,2.1447301 2.5128027,2.424444 2.5,2.7508913 C 2.487198,3.077338 2.397222,3.3939486 2.25,3.6883913 C 2.1027787,3.9828338 1.888192,4.25201 1.59375,4.4696413 C 1.45293,4.1367933 1.380646,3.7960886 1.40625,3.4696413 C 1.431854,3.1431941 1.533879,2.8265833 1.6875,2.5321413 C 1.8411227,2.2376985 2.0436607,2.0295133 2.3125,1.8758913 z M 6.875,4.0633913 C 7.527894,5.061936 7.929954,5.9601962 8.25,6.6258913 C 8.570046,7.2915873 8.6769622,8.1032521 8.59375,9.0633913 C 8.510538,10.023528 7.9078122,10.554726 6.78125,10.657141 C 5.6546873,10.567528 5.051962,10.029932 4.96875,9.0633913 C 4.885538,8.0968526 4.9924539,7.2915875 5.3125,6.6258913 C 5.6259016,5.9740163 6.2073738,5.0992202 6.84375,4.1258913 C 6.8572417,4.105256 6.8614455,4.0841217 6.875,4.0633913 z"
     id="path2511" />
</svg>
