<?xml version="1.0" encoding="UTF-8" standalone="no"?>
<svg
   xmlns:dc="http://purl.org/dc/elements/1.1/"
   xmlns:cc="http://creativecommons.org/ns#"
   xmlns:rdf="http://www.w3.org/1999/02/22-rdf-syntax-ns#"
   xmlns:svg="http://www.w3.org/2000/svg"
   xmlns="http://www.w3.org/2000/svg"
   xmlns:sodipodi="http://sodipodi.sourceforge.net/DTD/sodipodi-0.dtd"
   xmlns:inkscape="http://www.inkscape.org/namespaces/inkscape"
   width="21.94"
   height="7.68"
   id="svg2"
   version="1.1"
   inkscape:version="0.48.2 r9819"
   sodipodi:docname="US248U140EXTA.svg">
  <metadata
     id="metadata10">
    <rdf:RDF>
      <cc:Work
         rdf:about="">
        <dc:format>image/svg+xml</dc:format>
        <dc:type
           rdf:resource="http://purl.org/dc/dcmitype/StillImage" />
        <dc:title></dc:title>
        <dc:description>Fishing trap (fyke).
Shape found in the tumb of Mehu. See H. Altenmüller, Die Wanderstellungen im Grab des Mehu in Saqqara</dc:description>
      </cc:Work>
    </rdf:RDF>
  </metadata>
  <defs
     id="defs8" />
  <sodipodi:namedview
     pagecolor="#ffffff"
     bordercolor="#666666"
     borderopacity="1"
     objecttolerance="10"
     gridtolerance="10"
     guidetolerance="10"
     inkscape:pageopacity="0"
     inkscape:pageshadow="2"
     inkscape:window-width="944"
     inkscape:window-height="822"
     id="namedview6"
     showgrid="false"
     inkscape:zoom="26.08499"
     inkscape:cx="10.97"
     inkscape:cy="3.8399999"
     inkscape:window-x="0"
     inkscape:window-y="22"
     inkscape:window-maximized="0"
     inkscape:current-layer="svg2" />
  <path
     style="fill:#000000; stroke:none"
     d=" M 21.94 5.64  Q 20.08 5.52 16.74 5.72  Q 13.39 5.91 10.51 6.78  Q 7.63 7.65 4.66 7.65  L 0.58 7.68  Q -0.29 7.68 0.13 6.53  Q 0.55 5.37 0.55 3.83  Q 0.55 2.28 0.13 1.14  Q -0.29 0 0.58 0  L 4.66 0  Q 7.63 0 10.51 0.87  Q 13.39 1.74 16.74 1.95  Q 20.08 2.16 21.94 2.04  L 21.94 5.64  Z  M 21.22 2.79  Q 14.23 2.85 11.01 1.8  Q 7.78 0.75 4.78 0.75  L 1.03 0.75  Q 1.54 2.28 1.54 3.83  Q 1.54 5.37 1.03 6.9  L 4.78 6.9  Q 7.78 6.9 11.01 5.86  Q 14.23 4.83 21.22 4.86  L 21.22 2.79  Z  M 0.82 0.63  L 0.58 0.63  Q 1.12 2.43 1.12 3.84  Q 1.12 5.25 0.58 7.05  L 0.82 7.05  Q 1.33 5.4 1.33 3.84  Q 1.33 2.28 0.82 0.63  Z "
     id="path4" />
</svg>
