<?xml version="1.0" encoding="UTF-8" standalone="no"?>
<svg
   xmlns:dc="http://purl.org/dc/elements/1.1/"
   xmlns:cc="http://creativecommons.org/ns#"
   xmlns:rdf="http://www.w3.org/1999/02/22-rdf-syntax-ns#"
   xmlns:svg="http://www.w3.org/2000/svg"
   xmlns="http://www.w3.org/2000/svg"
   xmlns:sodipodi="http://sodipodi.sourceforge.net/DTD/sodipodi-0.dtd"
   xmlns:inkscape="http://www.inkscape.org/namespaces/inkscape"
   width="21.125"
   height="5.8125"
   id="svg2434"
   sodipodi:version="0.32"
   inkscape:version="0.46"
   sodipodi:docname="T21D.svg"
   inkscape:output_extension="org.inkscape.output.svg.inkscape"
   version="1.0">
  <metadata
     id="metadata2441">
    <rdf:RDF>
      <cc:Work
         rdf:about="">
        <dc:format>image/svg+xml</dc:format>
        <dc:type
           rdf:resource="http://purl.org/dc/dcmitype/StillImage" />
      </cc:Work>
    </rdf:RDF>
  </metadata>
  <defs
     id="defs2439">
    <inkscape:perspective
       sodipodi:type="inkscape:persp3d"
       inkscape:vp_x="0 : 1.8 : 1"
       inkscape:vp_y="0 : 1000 : 0"
       inkscape:vp_z="21.120001 : 1.8 : 1"
       inkscape:persp3d-origin="10.56 : 1.2 : 1"
       id="perspective2443" />
  </defs>
  <sodipodi:namedview
     inkscape:window-height="708"
     inkscape:window-width="1024"
     inkscape:pageshadow="2"
     inkscape:pageopacity="0.0"
     guidetolerance="10.0"
     gridtolerance="10.0"
     objecttolerance="10.0"
     borderopacity="1.0"
     bordercolor="#666666"
     pagecolor="#ffffff"
     id="base"
     showgrid="false"
     showguides="true"
     inkscape:guide-bbox="true"
     showborder="true"
     inkscape:zoom="43.86929"
     inkscape:cx="10.576875"
     inkscape:cy="2.90625"
     inkscape:window-x="-4"
     inkscape:window-y="-4"
     inkscape:current-layer="svg2434" />
  <path
     style="fill:#000000;stroke:none"
     d="M 9.655,0 L 9.655,0.5 L 9.655,3.78125 L 4.0625,3.78125 L 5.0625,2.40625 L 0,4.125 L 5.0625,5.8125 L 4.0625,4.4375 L 21.15375,4.4375 L 21.14625,3.78125 L 13.34625,3.78125 C 14.294867,3.5526781 14.881546,3.3039621 15.5925,2.625 C 16.043743,1.9757772 16.128259,1.3941338 15.8425,0.90625 C 15.556735,0.4183648 15.182241,0.1266589 14.7175,0.03125 C 14.274956,-0.0633812 13.77247,0.1638954 13.5925,0.34375 C 13.300411,0.6503319 13.143627,0.9733608 13.12375,1.28125 C 13.103879,1.5891381 13.198478,1.8358697 13.43625,2.0625 C 13.674015,2.2891309 13.945223,2.3989439 14.2175,2.375 C 14.489779,2.3510556 14.705162,2.2406769 14.87375,2.0625 C 15.042337,1.8843235 15.194391,1.5477736 15.0925,1.34375 C 15.015902,1.0936715 14.445163,1.221152 14.56125,1.59375 C 14.58604,1.8158924 14.216695,1.9671812 13.93625,1.8125 C 13.6558,1.6578188 13.570918,1.4007807 13.68625,1.09375 C 13.801578,0.7867197 13.986019,0.6136477 14.28,0.53125 C 14.573982,0.4488528 14.890072,0.5771572 15.2175,0.90625 C 15.544924,1.2353443 15.585673,1.6153742 15.3425,2.0625 C 15.099325,2.5096271 14.634838,2.8406287 13.905,3.09375 C 13.08624,3.3779099 12.246003,3.5851567 11.405,3.78125 L 11.405,0 L 11.37375,0 L 9.655,0 z M 10.18625,0.5 L 10.8425,0.5 L 10.8425,3.78125 L 10.18625,3.78125 L 10.18625,0.5 z"
     id="path3330"
     sodipodi:nodetypes="ccccccccccccsccssssccssssscccccccccc" />
</svg>
