<?xml version="1.0" encoding="UTF-8" standalone="no"?>
<svg
   xmlns:dc="http://purl.org/dc/elements/1.1/"
   xmlns:cc="http://web.resource.org/cc/"
   xmlns:rdf="http://www.w3.org/1999/02/22-rdf-syntax-ns#"
   xmlns:svg="http://www.w3.org/2000/svg"
   xmlns="http://www.w3.org/2000/svg"
   xmlns:sodipodi="http://sodipodi.sourceforge.net/DTD/sodipodi-0.dtd"
   xmlns:inkscape="http://www.inkscape.org/namespaces/inkscape"
   width="4.846638"
   height="17.972717"
   id="svg2864"
   sodipodi:version="0.32"
   inkscape:version="0.44"
   sodipodi:docname="US22T23.svg"
   sodipodi:docbase="C:\Program Files\Inkscape\envoi31\Jseshopt">
  <metadata
     id="metadata2871">
    <rdf:RDF>
      <cc:Work
         rdf:about="">
        <dc:format>image/svg+xml</dc:format>
        <dc:type
           rdf:resource="http://purl.org/dc/dcmitype/StillImage" />
        <dc:title>US22T23</dc:title>
        <dc:date>30/09/06</dc:date>
        <dc:description>variante optimisée du signe Jsesh T23</dc:description>
        <dc:creator>
          <cc:Agent>
            <dc:title></dc:title>
          </cc:Agent>
        </dc:creator>
        <dc:publisher>
          <cc:Agent>
            <dc:title>Serge Rosmorduc</dc:title>
          </cc:Agent>
        </dc:publisher>
        <cc:license
           rdf:resource="http://creativecommons.org/licenses/GPL/2.0/" />
      </cc:Work>
      <cc:License
         rdf:about="http://creativecommons.org/licenses/GPL/2.0/">
        <cc:permits
           rdf:resource="http://web.resource.org/cc/Reproduction" />
        <cc:permits
           rdf:resource="http://web.resource.org/cc/Distribution" />
        <cc:requires
           rdf:resource="http://web.resource.org/cc/Notice" />
        <cc:permits
           rdf:resource="http://web.resource.org/cc/DerivativeWorks" />
        <cc:requires
           rdf:resource="http://web.resource.org/cc/ShareAlike" />
        <cc:requires
           rdf:resource="http://web.resource.org/cc/SourceCode" />
      </cc:License>
    </rdf:RDF>
  </metadata>
  <defs
     id="defs2869" />
  <sodipodi:namedview
     inkscape:window-height="569"
     inkscape:window-width="939"
     inkscape:pageshadow="2"
     inkscape:pageopacity="0.0"
     guidetolerance="10.0"
     gridtolerance="10.0"
     objecttolerance="10.0"
     borderopacity="1.0"
     bordercolor="#666666"
     pagecolor="#ffffff"
     id="base"
     inkscape:zoom="20.976238"
     inkscape:cx="2.4233191"
     inkscape:cy="8.9863586"
     inkscape:window-x="22"
     inkscape:window-y="29"
     inkscape:current-layer="svg2864" />
  <path
     style="fill:#000000; stroke:none"
     d=" M 2.58379 17.330835  L 2.664025 17.310776  Q 2.623907 16.88954 2.423319 16.528481  Q 2.222731 16.88954 2.162554 17.310776  Q 2.262848 17.330835 2.58379 17.330835  Z  M 2.423319 15.866539  Q 2.563731 15.866539 2.704143 15.746186  Q 3.346025 14.803421 3.346025 12.837655  Q 3.346025 11.353301 2.984966 10.400507  Q 2.623907 9.447712 2.623907 8.224123  Q 2.623907 6.338592 2.884672 0.702059  Q 2.423319 0.481412 1.961966 0.702059  Q 2.222731 6.338592 2.222731 8.224123  Q 2.222731 9.447712 1.861672 10.400507  Q 1.500612 11.353301 1.500612 12.837655  Q 1.500612 14.803421 2.142495 15.746186  Q 2.282907 15.866539 2.423319 15.866539  Z  M 2.423319 0  Q 3.225672 0 3.60679 0.481412  Q 3.085261 5.756886 3.045143 6.860122  Q 3.005025 7.963358 3.165496 8.946241  Q 3.426261 8.926182 3.78732 8.364534  Q 4.148379 7.802887 4.730085 8.26424  Q 5.131262 9.066594 4.158409 9.437682  Q 3.185555 9.808771 3.386143 10.230006  Q 3.907673 10.831772 3.907673 12.837655  Q 3.907673 14.803421 3.225672 16.187481  Q 3.225672 16.769188 3.646908 17.631718  Q 3.225672 17.972717 2.423319 17.972717  Q 1.620965 17.972717 1.19973 17.631718  Q 1.620965 16.769188 1.620965 16.187481  Q 0.938965 14.803421 0.938965 12.837655  Q 0.938965 10.831772 1.460495 10.230006  Q 1.661083 9.808771 0.68823 9.437682  Q -0.284624 9.066594 0.116553 8.26424  Q 0.698259 7.802887 1.059318 8.364534  Q 1.420377 8.926182 1.681142 8.946241  Q 1.821554 7.963358 1.791466 6.860122  Q 1.761377 5.756886 1.239848 0.481412  Q 1.620965 0 2.423319 0  Z "
     id="path2866" />
</svg>
