<?xml version="1.0" encoding="UTF-8" standalone="no"?>
<!-- Created with Inkscape (http://www.inkscape.org/) -->
<svg
   xmlns:dc="http://purl.org/dc/elements/1.1/"
   xmlns:cc="http://web.resource.org/cc/"
   xmlns:rdf="http://www.w3.org/1999/02/22-rdf-syntax-ns#"
   xmlns:svg="http://www.w3.org/2000/svg"
   xmlns="http://www.w3.org/2000/svg"
   xmlns:sodipodi="http://inkscape.sourceforge.net/DTD/sodipodi-0.dtd"
   xmlns:inkscape="http://www.inkscape.org/namespaces/inkscape"
   sodipodi:docname="T3.svg"
   sodipodi:docbase="C:\Program Files\JSesh\fonts"
   inkscape:version="0.43"
   sodipodi:version="0.32"
   id="svg1290"
   height="14.4pt"
   width="3.4000001pt"
   version="1.0">
  <defs
     id="defs3" />
  <sodipodi:namedview
     inkscape:window-y="0"
     inkscape:window-x="0"
     inkscape:window-height="746"
     inkscape:window-width="1028"
     inkscape:current-layer="svg1290"
     inkscape:document-units="px"
     inkscape:cy="8.966351"
     inkscape:cx="2.1867596"
     inkscape:zoom="32.063554"
     inkscape:pageshadow="2"
     inkscape:pageopacity="0.0"
     borderopacity="1.0"
     bordercolor="#666666"
     pagecolor="#ffffff"
     id="base"
     showguides="true"
     inkscape:guide-bbox="true"
     showgrid="false"
     gridspacingx="0px"
     gridspacingy="0px" />
  <metadata
     id="metadata4">
    <rdf:RDF>
      <cc:Work
         rdf:about="">
        <dc:format>image/svg+xml</dc:format>
        <dc:type
           rdf:resource="http://purl.org/dc/dcmitype/StillImage" />
        <cc:license
           rdf:resource="http://creativecommons.org/licenses/by-sa/2.0/" />
        <dc:subject>
          <rdf:Bag>
            <rdf:li>JSesh hieroglyph</rdf:li>
          </rdf:Bag>
        </dc:subject>
      </cc:Work>
      <cc:License
         rdf:about="http://creativecommons.org/licenses/by/2.0/">
        <cc:permits
           rdf:resource="http://web.resource.org/cc/Reproduction" />
        <cc:permits
           rdf:resource="http://web.resource.org/cc/Distribution" />
        <cc:requires
           rdf:resource="http://web.resource.org/cc/Notice" />
        <cc:requires
           rdf:resource="http://web.resource.org/cc/Attribution" />
        <cc:permits
           rdf:resource="http://web.resource.org/cc/DerivativeWorks" />
        <cc:requires
           rdf:resource="http://web.resource.org/cc/ShareAlike" />
      </cc:License>
    </rdf:RDF>
  </metadata>
  <path
     style="color:#000000;fill:#000000;fill-opacity:1;fill-rule:nonzero;stroke:none;stroke-width:28.68938065;stroke-linecap:butt;stroke-linejoin:miter;marker:none;marker-start:none;marker-mid:none;marker-end:none;stroke-miterlimit:4;stroke-dashoffset:0;stroke-opacity:1;visibility:visible;display:inline;overflow:visible"
     d="M 1.3427165,0.035893929 L 1.3427165,0.86943413 C 0.58680672,1.0513328 -0.0251849,1.6381488 0.021597189,3.5941486 C 0.051188809,4.8314 0.83857352,6.0146538 1.5015325,6.2511327 L 1.3184684,18.031404 L 3.1704334,18.031404 L 2.824941,6.2908715 C 3.8547403,6.0149375 4.3220162,4.5176588 4.3510574,3.6039194 C 4.4134335,1.6257519 3.6001619,1.0305012 2.9263798,0.84996164 L 2.9263798,0.035893929 L 1.3427165,0.035893929 z M 1.9141794,0.60736045 L 2.3549159,0.60736045 L 2.3549159,1.4091513 C 2.6459918,1.4007808 2.8252672,1.3980363 2.9673947,1.458546 C 3.7376284,1.732794 3.791779,2.9217384 3.7632188,3.5843498 C 3.7231217,4.4990303 3.2678771,5.5583297 2.5790102,5.729864 C 2.2972108,5.8119745 1.9473853,5.8214675 1.6699193,5.7064956 C 1.1954257,5.4933434 0.59851822,4.4235182 0.59851822,3.5972538 C 0.59851822,2.2553375 0.808462,1.7021175 1.3579918,1.4597156 C 1.5352931,1.3875921 1.7280886,1.4144227 1.9141794,1.4091513 L 1.9141794,0.60736045 z M 2.143293,6.5554396 L 2.441475,12.650933 L 2.0082096,12.649144 L 2.143293,6.5554396 z M 1.9957583,13.23061 L 2.4582829,13.233643 L 2.4719778,13.73679 L 1.9845515,13.737956 L 1.9957583,13.23061 z M 2.4887857,14.308254 L 2.4993684,14.666197 L 1.9640104,14.667361 L 1.972103,14.310665 L 2.4887857,14.308254 z M 2.5161761,15.247661 L 2.5317386,15.786793 L 1.9391105,15.794104 L 1.9515593,15.24007 L 2.5161761,15.247661 z M 2.5485465,16.35888 L 2.5821621,17.45994 L 1.9023815,17.45994 L 1.9266591,16.368057 L 2.5485465,16.35888 z "
     id="path1352"
     sodipodi:nodetypes="ccsccccscccccccsccsccccccccccccccccccccccccccc" />
</svg>
