<?xml version="1.0" encoding="UTF-8" standalone="no"?>
<!-- Created with Inkscape (http://www.inkscape.org/) -->
<svg
   xmlns:dc="http://purl.org/dc/elements/1.1/"
   xmlns:cc="http://web.resource.org/cc/"
   xmlns:rdf="http://www.w3.org/1999/02/22-rdf-syntax-ns#"
   xmlns:svg="http://www.w3.org/2000/svg"
   xmlns="http://www.w3.org/2000/svg"
   xmlns:sodipodi="http://inkscape.sourceforge.net/DTD/sodipodi-0.dtd"
   xmlns:inkscape="http://www.inkscape.org/namespaces/inkscape"
   width="1800.0000px"
   height="1800.0000px"
   id="svg1290"
   sodipodi:version="0.32"
   inkscape:version="0.41.1"
   sodipodi:docbase="/home/rosmord/Desktop/lien vers Ramessides/Fontes"
   sodipodi:docname="T5.svg">
  <defs
     id="defs3" />
  <sodipodi:namedview
     id="base"
     pagecolor="#ffffff"
     bordercolor="#666666"
     borderopacity="1.0"
     inkscape:pageopacity="0.0"
     inkscape:pageshadow="2"
     inkscape:zoom="0.43555556"
     inkscape:cx="900.00000"
     inkscape:cy="879.00392"
     inkscape:document-units="px"
     inkscape:current-layer="layer1"
     inkscape:window-width="1273"
     inkscape:window-height="944"
     inkscape:window-x="0"
     inkscape:window-y="0" />
  <metadata
     id="metadata4">
    <rdf:RDF
       id="RDF5">
      <cc:Work
         rdf:about=""
         id="Work6">
        <dc:format
           id="format7">image/svg+xml</dc:format>
        <dc:type
           id="type9"
           rdf:resource="http://purl.org/dc/dcmitype/StillImage" />
        <cc:license
           id="license1300"
           rdf:resource="http://creativecommons.org/licenses/by/2.0/" />
        <dc:subject
           id="subject1316">
          <rdf:Bag
             id="Bag1318">
            <rdf:li
               id="li1350">JSesh hieroglyph</rdf:li>
          </rdf:Bag>
        </dc:subject>
      </cc:Work>
      <cc:License
         rdf:about="http://creativecommons.org/licenses/by/2.0/"
         id="License1302">
        <cc:permits
           rdf:resource="http://web.resource.org/cc/Reproduction"
           id="permits1304" />
        <cc:permits
           rdf:resource="http://web.resource.org/cc/Distribution"
           id="permits1306" />
        <cc:requires
           rdf:resource="http://web.resource.org/cc/Notice"
           id="requires1308" />
        <cc:requires
           rdf:resource="http://web.resource.org/cc/Attribution"
           id="requires1310" />
        <cc:permits
           rdf:resource="http://web.resource.org/cc/DerivativeWorks"
           id="permits1312" />
        <cc:requires
           rdf:resource="http://web.resource.org/cc/ShareAlike"
           id="requires1314" />
      </cc:License>
    </rdf:RDF>
  </metadata>
  <g
     transform="translate(-832.8310,-887.3468)"
     id="layer1"
     inkscape:groupmode="layer"
     inkscape:label="Layer 1"
     style="display:inline">
    <path
       id="path2070"
       transform="translate(832.8310,887.3468)"
       d="M 816.84375 -2.2187500 L 816.84375 81.125000 C 741.25960 99.313229 652.75000 196.96171 652.75000 353.56250 C 652.74999 477.31186 734.46008 595.60423 800.75000 619.25000 L 800.46875 638.09375 C 697.44666 642.38324 598.15465 645.77703 516.03125 636.81250 C 531.16635 582.91140 560.11480 535.92865 553.37500 479.71875 C 548.04880 435.29884 499.47495 418.68415 462.53125 408.59375 C 427.11794 398.92125 403.40015 364.88690 365.15625 366.75000 C 323.03784 368.80192 280.68625 381.73730 244.21875 402.93750 C 206.13465 425.07751 236.72900 467.99750 262.50000 486.93750 C 290.80589 507.74029 323.29435 526.96025 360.40625 518.78125 C 384.59524 513.45032 438.19155 500.58395 440.40625 517.53125 C 447.15644 569.18847 392.10190 631.87070 414.31250 691.56250 C 432.52459 740.50821 474.23505 784.94995 529.96875 788.96875 C 619.69036 795.43847 708.96918 788.25268 798.25000 780.62500 L 782.43750 1797.1562 L 967.62500 1797.1562 L 937.40625 770.28125 C 954.15779 769.44822 970.91653 768.78769 987.68750 768.50000 C 1241.8511 764.17070 1369.2653 895.59035 1397.9375 976.71875 C 1425.2601 1054.0290 1444.9493 1135.0290 1438.0312 1217.3438 C 1429.7074 1316.3857 1415.1692 1416.3145 1423.2812 1515.4062 C 1430.4367 1602.8141 1460.7936 1687.5926 1481.5312 1772.3750 C 1491.6697 1813.8245 1542.0662 1811.8989 1540.2500 1766.5938 C 1535.9430 1657.3619 1510.8024 1564.0083 1513.6875 1463.2500 C 1516.1672 1376.6544 1538.3310 1293.2926 1543.4375 1206.4375 C 1549.3583 1105.7298 1577.4057 766.55480 1302.6875 667.81250 C 1224.8446 639.83338 1126.4275 631.92361 1021.9375 631.68750 C 992.79349 631.62165 963.11779 632.23750 933.34375 633.09375 L 933.06250 623.21875 C 1036.0332 595.62783 1120.6563 445.94307 1120.6562 354.53125 C 1120.6563 169.20644 1042.5908 97.208587 975.21875 79.156250 L 975.21875 -2.2187500 L 816.84375 -2.2187500 z M 874.00000 54.906250 L 918.06250 54.906250 L 918.06250 135.09375 C 947.16749 134.25679 979.86405 133.95719 1000.3125 158.71875 C 1046.1437 209.53007 1061.1581 281.28093 1061.8750 347.59375 C 1062.5434 409.42756 994.51939 567.12500 902.25000 567.12500 C 874.07259 565.97974 845.30660 570.04034 817.56250 564.78125 C 770.11744 543.46792 710.43750 445.49396 710.43750 362.87500 C 710.43750 228.69546 763.42698 164.36302 818.37500 140.12500 C 836.10354 132.91332 855.39259 135.62086 874.00000 135.09375 L 874.00000 54.906250 z M 365.15625 413.46875 C 394.16914 420.14986 417.04220 444.56945 447.18750 452.96875 C 472.55490 460.03684 514.23425 469.43260 505.53125 506.56250 C 493.91776 556.10951 460.58785 604.08120 471.03125 655.93750 C 478.65396 693.78688 526.63895 691.33095 556.84375 691.09375 C 647.21418 690.38407 725.97633 688.25130 799.71875 686.15625 L 799.00000 732.03125 C 678.49290 739.74544 566.30410 749.39523 517.75000 740.09375 C 479.43548 732.75376 452.09855 685.55625 455.46875 646.40625 C 459.93804 594.48916 500.86370 546.27105 485.50000 493.84375 C 473.77591 453.83575 422.31350 467.02415 390.25000 468.65625 C 356.73800 470.36204 324.63755 479.20690 294.71875 452.87500 C 260.62635 422.86971 360.13915 412.31335 365.15625 413.46875 z M 358.03125 426.31250 C 342.10376 425.83689 300.57465 445.67185 338.65625 445.84375 C 352.13035 445.90445 401.26780 454.66175 370.81250 433.65625 C 366.80271 430.89053 363.15135 426.46540 358.03125 426.31250 z M 864.90625 649.65625 L 894.71875 1262.1562 L 851.40625 1259.9688 L 864.90625 649.65625 z M 1024.3125 681.62500 C 1221.5982 681.88957 1339.8817 703.87961 1418.9062 810.78125 C 1550.8022 989.20523 1505.6530 1167.6836 1472.8438 1392.9688 C 1482.0267 1260.0398 1526.1205 1050.6322 1389.4688 869.78125 C 1331.7351 793.37423 1233.8649 761.27810 1143.8125 738.56250 C 1091.3899 725.33904 1016.4590 723.12133 936.06250 725.31250 L 934.81250 682.65625 C 966.33680 681.99144 996.12884 681.58720 1024.3125 681.62500 z M 850.15625 1317.1250 L 896.40625 1319.4375 L 897.78125 1365.7500 L 849.03125 1367.8438 L 850.15625 1317.1250 z M 899.43750 1422.8750 L 900.50000 1458.6562 L 846.96875 1460.7812 L 847.78125 1425.1250 L 899.43750 1422.8750 z M 902.18750 1515.8125 L 903.75000 1568.7188 L 844.50000 1573.4375 L 845.75000 1518.0625 L 902.18750 1515.8125 z M 905.43750 1625.9062 L 908.78125 1740.0312 L 840.81250 1740.0312 L 843.25000 1630.8438 L 905.43750 1625.9062 z "
       style="color:#000000;fill:#000000;fill-opacity:1.0000000;fill-rule:evenodd;stroke:none;stroke-width:59.332535;stroke-linecap:butt;stroke-linejoin:round;stroke-miterlimit:4.0000000;stroke-dashoffset:0.0000000;stroke-opacity:1.0000000;marker:none;marker-start:none;marker-mid:none;marker-end:none;visibility:visible;display:inline;overflow:visible" />
  </g>
</svg>
