<?xml version="1.0" encoding="UTF-8" standalone="no"?>
<svg
   xmlns:dc="http://purl.org/dc/elements/1.1/"
   xmlns:cc="http://creativecommons.org/ns#"
   xmlns:rdf="http://www.w3.org/1999/02/22-rdf-syntax-ns#"
   xmlns:svg="http://www.w3.org/2000/svg"
   xmlns="http://www.w3.org/2000/svg"
   xmlns:sodipodi="http://sodipodi.sourceforge.net/DTD/sodipodi-0.dtd"
   xmlns:inkscape="http://www.inkscape.org/namespaces/inkscape"
   width="23.45"
   height="17.98"
   id="svg2434"
   sodipodi:version="0.32"
   inkscape:version="0.46"
   sodipodi:docname="T51.svg"
   inkscape:output_extension="org.inkscape.output.svg.inkscape">
  <metadata
     id="metadata2441">
    <rdf:RDF>
      <cc:Work
         rdf:about="">
        <dc:format>image/svg+xml</dc:format>
        <dc:type
           rdf:resource="http://purl.org/dc/dcmitype/StillImage" />
      </cc:Work>
    </rdf:RDF>
  </metadata>
  <defs
     id="defs2439">
    <inkscape:perspective
       sodipodi:type="inkscape:persp3d"
       inkscape:vp_x="0 : 8.9899998 : 1"
       inkscape:vp_y="0 : 1000 : 0"
       inkscape:vp_z="23.450001 : 8.9899998 : 1"
       inkscape:persp3d-origin="11.725 : 5.9933332 : 1"
       id="perspective2443" />
  </defs>
  <sodipodi:namedview
     inkscape:window-height="708"
     inkscape:window-width="1024"
     inkscape:pageshadow="2"
     inkscape:pageopacity="0.0"
     guidetolerance="10.0"
     gridtolerance="10.0"
     objecttolerance="10.0"
     borderopacity="1.0"
     bordercolor="#666666"
     pagecolor="#ffffff"
     id="base"
     showgrid="false"
     inkscape:zoom="23.198293"
     inkscape:cx="17.366116"
     inkscape:cy="9.3227296"
     inkscape:window-x="0"
     inkscape:window-y="26"
     inkscape:current-layer="svg2434" />
  <path
     style="fill:#000000; stroke:none"
     d="M 19.96875,0 C 9.8201602,-0.24884063 3.5716144,3.194924 1.15625,10.28125 C 0.73704181,11.511146 0.4362624,12.861649 0.25,14.3125 C 0.13071833,15.241619 0.054998996,16.199016 0.03125,17.21875 L 0,17.96875 L 8.71875,17.96875 C 8.7056385,17.265097 8.7412926,16.627461 8.8125,16 C 9.5016182,9.9276679 14.132631,7.4053036 22.71875,8.46875 L 22.71875,8.5 L 23.4375,8.59375 L 23.4375,0.21875 C 22.283891,0.10498133 21.126715,0.045044111 19.96875,0 z M 17.59375,0.71875 C 17.837009,0.70922468 18.095217,0.72327131 18.34375,0.71875 L 18.40625,2.53125 C 17.340884,2.5476614 16.332072,2.6303696 15.375,2.75 L 14.9375,0.96875 C 15.789448,0.85942628 16.664924,0.75512006 17.59375,0.71875 z M 19.125,0.71875 C 20.2787,0.72188918 21.456282,0.76864451 22.71875,0.875 L 22.71875,2.6875 C 21.470725,2.5680479 20.319057,2.5396916 19.1875,2.53125 L 19.125,0.71875 z M 14.15625,1.09375 L 14.5625,2.84375 C 13.442512,3.024715 12.398954,3.2929299 11.4375,3.625 L 10.625,1.9375 C 11.705588,1.5682856 12.898141,1.2945058 14.15625,1.09375 z M 9.875,2.1875 L 10.65625,3.875 C 9.7633786,4.237228 8.9619037,4.68257 8.21875,5.1875 L 6.9375,3.71875 C 7.8251977,3.1132426 8.7959668,2.6114393 9.875,2.1875 z M 18.15625,3.1875 C 18.907602,3.1687994 19.691146,3.1823977 20.5,3.21875 L 20.53125,5.125 C 19.79129,5.1129989 19.052035,5.1343077 18.3125,5.15625 L 18.15625,3.1875 z M 17.40625,3.25 L 17.5625,5.1875 C 16.688131,5.2268847 15.828656,5.3783516 14.96875,5.53125 L 14.4375,3.5625 C 15.358268,3.398637 16.370112,3.3034081 17.40625,3.25 z M 21.25,3.28125 C 21.739885,3.3126968 22.208653,3.324202 22.71875,3.375 L 22.71875,5.25 C 22.212603,5.207653 21.734052,5.1790784 21.25,5.15625 L 21.25,3.28125 z M 13.71875,3.71875 L 14.25,5.6875 C 13.435316,5.8788433 12.671508,6.0847836 11.96875,6.375 L 11,4.53125 L 11,4.5 C 11.831275,4.1586665 12.750957,3.9293806 13.71875,3.71875 z M 6.34375,4.15625 L 7.59375,5.625 C 6.9003401,6.1636955 6.2970415,6.7905448 5.75,7.46875 L 4.03125,6.4375 C 4.6977305,5.5800037 5.4746551,4.821475 6.34375,4.15625 z M 10.34375,4.84375 L 11.25,6.71875 C 10.617376,7.0287403 10.030823,7.3813305 9.5,7.78125 L 8,6.28125 C 8.6986976,5.7194924 9.4851639,5.2524299 10.34375,4.84375 z M 19.40625,5.78125 L 19.4075,7.53125 C 18.67018,7.5225916 17.829868,7.5692573 17.16375,7.625 L 16.96875,5.90625 C 17.77801,5.7985412 18.592285,5.7923312 19.40625,5.78125 z M 20.15625,5.8125 C 20.980416,5.8269962 21.822122,5.8591849 22.71875,5.9375 L 22.71875,7.78125 C 21.841387,7.6780308 20.987796,7.5948827 20.18875,7.5625 L 20.15625,5.8125 z M 16.21875,6 L 16.445,7.71875 C 15.534335,7.8315494 14.891543,7.9755953 14.125,8.21875 L 13.4375,6.625 C 14.289416,6.3570238 15.218359,6.1372104 16.21875,6 z M 7.4375,6.8125 L 8.9375,8.25 C 8.4033395,8.7194468 7.914667,9.237495 7.5,9.8125 L 5.6875,8.875 C 6.1848828,8.1034874 6.7757769,7.4266728 7.4375,6.8125 z M 12.75,6.84375 L 13.40625,8.46875 C 12.780172,8.7159131 12.204839,9.0294851 11.6875,9.375 L 10.59375,7.9375 C 11.244475,7.5167658 11.957841,7.1399194 12.75,6.84375 z M 3.59375,7.0625 L 5.28125,8.09375 C 4.7462853,8.8588877 4.2758629,9.6710088 3.90625,10.59375 L 2.09375,9.875 C 2.5000147,8.8409284 3.0035543,7.92203 3.59375,7.0625 z M 10,8.375 L 11.0625,9.8125 C 10.687449,10.118961 10.369037,10.47532 10.0625,10.84375 L 8.40625,9.875 C 8.8645117,9.3024336 9.4052906,8.8273929 10,8.375 z M 5.3125,9.5 L 7.09375,10.40625 C 6.6712931,11.096844 6.363597,11.862094 6.09375,12.6875 L 4.1875,12.125 C 4.4757765,11.171272 4.8645864,10.300891 5.3125,9.5 z M 8,10.46875 L 9.625,11.4375 C 9.2631376,11.970779 8.958906,12.54414 8.71875,13.1875 L 6.9375,12.5625 C 7.220546,11.798863 7.5700381,11.102994 8,10.46875 z M 1.84375,10.5625 L 3.65625,11.34375 C 3.374565,12.173986 3.1276514,13.052734 2.96875,14 L 1.09375,13.6875 C 1.2754041,12.574192 1.5112282,11.532642 1.84375,10.5625 z M 4,12.875 L 5.875,13.375 C 5.6948404,14.05648 5.5536114,14.796835 5.46875,15.5625 L 3.5625,15.4525 C 3.6576194,14.504977 3.7910113,13.713504 4,12.875 z M 6.6875,13.28125 L 8.46875,13.90625 C 8.3532962,14.308672 8.2607366,14.715643 8.1875,15.15625 L 6.28125,15.03125 C 6.3751836,14.418654 6.5243367,13.832874 6.6875,13.28125 z M 1,14.4375 L 2.875,14.78125 C 2.7745207,15.55763 2.7106136,16.368629 2.6875,17.21875 L 0.78125,17.21875 C 0.80596797,16.245315 0.88457926,15.324863 1,14.4375 z M 6.1875,15.75 L 8.09375,15.9375 C 8.0497967,16.348642 8.0417923,16.777388 8.03125,17.21875 L 6.09375,17.21875 C 6.1054491,16.709689 6.1371766,16.225044 6.1875,15.75 z M 3.5,16.2025 L 5.375,16.3125 C 5.3554621,16.604028 5.3504292,16.915863 5.34375,17.21875 L 3.4375,17.21875 C 3.4468732,16.910191 3.4799831,16.500868 3.5,16.2025 z"
     id="path2436"
     sodipodi:nodetypes="csscccscccccccccccccccccccccccccccccccccccccccccccccccccccccccccccccccccccccccccccccccccccccccccccccccccccccccccccccccccccccccccccccccccccc" />
</svg>
