<?xml version="1.0" encoding ="US-ASCII" standalone="yes"?>
<svg width="15.906786" height="17.977417">
<path style="fill:#000000; stroke:none" d=" M 13.558039 2.083338  Q 11.327291 2.106575 11.55966 4.430271  L 13.558039 2.083338  Z  M 14.092488 2.524841  L 12.117347 4.89501  Q 14.417806 4.709115 14.092488 2.524841  Z  M 1.800138 2.45513  Q 1.474821 4.639404 3.798516 4.825299  L 1.800138 2.45513  Z  M 4.332966 4.36056  Q 4.565336 2.036865 2.357825 1.990391  L 4.332966 4.36056  Z  M 1.451584 1.479178  Q 1.730427 1.270045 1.335399 0.782069  Q 0.917134 0.294093 1.219214 0.061723  Q 1.498058 -0.170646 2.125455 0.46837  Q 2.752853 1.107386 3.322159 1.177097  Q 3.891464 1.246808 4.588573 2.060102  Q 5.285682 2.873395 5.285682 3.82611  Q 5.285682 4.755589 5.727184 5.615356  Q 6.703136 6.73073 7.981169 8.264369  Q 9.235964 6.777204 10.165442 5.685067  Q 10.630181 4.825299 10.630181 3.895821  Q 10.630181 2.943106 11.304053 2.129812  Q 12.001163 1.316519 12.570468 1.246808  Q 13.139773 1.177097 13.77879 0.538081  Q 14.417806 -0.100936 14.673412 0.131434  Q 14.975492 0.363804 14.580464 0.85178  Q 14.162199 1.339756 14.464279 1.548888  Q 14.719886 1.781258 15.114914 1.293282  Q 15.533179 0.828543 15.812023 1.084149  Q 16.090866 1.316519 15.556417 2.060102  Q 15.021967 2.803684 15.06844 3.361371  Q 15.114914 3.919058 14.441043 4.732351  Q 13.743934 5.568882 12.814456 5.731541  Q 11.884977 5.894199 11.141395 6.475123  Q 10.18868 7.660208 8.794462 9.263558  Q 10.444286 11.261936 13.650986 15.235456  Q 14.324858 15.142509 14.76636 15.653721  Q 15.184626 16.164934 14.952255 17.024702  Q 15.277573 17.373257 15.231099 17.907705  Q 14.69665 17.861233 14.394568 17.489441  Q 13.511564 17.559153 13.093299 17.047939  Q 12.675034 16.536726 12.884167 15.886091  Q 9.654229 12.191415 7.981169 10.216273  Q 6.331345 12.168178 3.00846 15.955802  Q 3.240829 16.606436 2.822564 17.117649  Q 2.381062 17.628862 1.498058 17.559153  Q 1.219214 17.930943 0.661527 17.977417  Q 0.615053 17.442966 0.940371 17.094412  Q 0.731238 16.234646 1.149503 15.723433  Q 1.567768 15.212219 2.24164 15.305167  Q 5.518051 11.261936 7.144638 9.263558  Q 5.750421 7.660208 4.774468 6.405412  Q 4.007649 5.824489 3.089789 5.66183  Q 2.171929 5.499171 1.474821 4.662641  Q 0.800949 3.849347 0.847423 3.29166  Q 0.893897 2.733973 0.359447 1.990391  Q -0.175003 1.246808 0.080603 1.014438  Q 0.382684 0.758832 0.777712 1.223571  Q 1.17274 1.711547 1.451584 1.479178  Z "/></svg>
