<?xml version="1.0" encoding="UTF-8" standalone="no"?>
<svg
   xmlns:dc="http://purl.org/dc/elements/1.1/"
   xmlns:cc="http://creativecommons.org/ns#"
   xmlns:rdf="http://www.w3.org/1999/02/22-rdf-syntax-ns#"
   xmlns:svg="http://www.w3.org/2000/svg"
   xmlns="http://www.w3.org/2000/svg"
   xmlns:sodipodi="http://sodipodi.sourceforge.net/DTD/sodipodi-0.dtd"
   xmlns:inkscape="http://www.inkscape.org/namespaces/inkscape"
   width="17.40625"
   height="12.250479"
   id="svg2509"
   sodipodi:version="0.32"
   inkscape:version="0.46"
   sodipodi:docname="T67.svg"
   inkscape:output_extension="org.inkscape.output.svg.inkscape"
   version="1.0">
  <metadata
     id="metadata2516">
    <rdf:RDF>
      <cc:Work
         rdf:about="">
        <dc:format>image/svg+xml</dc:format>
        <dc:type
           rdf:resource="http://purl.org/dc/dcmitype/StillImage" />
      </cc:Work>
    </rdf:RDF>
  </metadata>
  <defs
     id="defs2514">
    <inkscape:perspective
       sodipodi:type="inkscape:persp3d"
       inkscape:vp_x="0 : 6.2399998 : 1"
       inkscape:vp_y="0 : 1000 : 0"
       inkscape:vp_z="11.539063 : 6.2399998 : 1"
       inkscape:persp3d-origin="5.7695317 : 4.1599998 : 1"
       id="perspective2518" />
  </defs>
  <sodipodi:namedview
     inkscape:window-height="712"
     inkscape:window-width="1024"
     inkscape:pageshadow="2"
     inkscape:pageopacity="0.0"
     guidetolerance="10.0"
     gridtolerance="10.0"
     objecttolerance="10.0"
     borderopacity="1.0"
     bordercolor="#666666"
     pagecolor="#ffffff"
     id="base"
     showgrid="false"
     showguides="true"
     inkscape:guide-bbox="true"
     inkscape:zoom="41.401924"
     inkscape:cx="6.9801607"
     inkscape:cy="6.1229037"
     inkscape:window-x="-4"
     inkscape:window-y="-4"
     inkscape:current-layer="svg2509" />
  <path
     style="fill:#000000;stroke:none"
     d="M 5.15625,0 L 0,7.96875 C 0.1714579,8.3520828 0.2439917,8.5411311 0.65625,8.46875 L 5.25,1.3125 L 8.0625,4.25 L 6.84375,6 C 6.2356627,6.9281334 5.8708633,7.9750985 5.78125,9.03125 C 5.6916373,10.087403 5.8934219,10.91827 6.4375,11.46875 C 6.9815787,12.019229 7.6806815,12.262801 8.5,12.25 C 9.3193173,12.262801 9.9935719,12.019229 10.53125,11.46875 C 11.068927,10.91827 11.301961,10.087403 11.21875,9.03125 C 11.135538,7.9750976 10.722782,7.0510107 10.21875,6.0625 C 9.687067,5.0197597 9.1164965,4.314941 9.25,4.3125 L 12.15625,1.28125 L 16.71875,8.46875 C 17.131008,8.5411311 17.234792,8.3520828 17.40625,7.96875 L 12.25,0 L 8.6875,3.71875 L 5.15625,0 z M 8.59375,4.875 C 9.246644,5.8735448 9.648704,6.7718049 9.96875,7.4375 C 10.288796,8.1031961 10.395712,8.9148608 10.3125,9.875 C 10.229288,10.835136 9.6265622,11.366335 8.5,11.46875 C 7.3734373,11.379137 6.770712,10.841541 6.6875,9.875 C 6.604288,8.9084609 6.7112039,8.1031962 7.03125,7.4375 C 7.3446516,6.7856251 7.9261238,5.9108289 8.5625,4.9375 C 8.5759917,4.9168648 8.5801955,4.8957304 8.59375,4.875 z"
     id="path2511" />
</svg>
