<?xml version="1.0" encoding="UTF-8" standalone="no"?>
<svg
   width="1755.403"
   height="1800.4871"
   version="1.1"
   id="svg2"
   sodipodi:docname="T77.svg"
   inkscape:version="1.4 (e7c3feb1, 2024-10-09)"
   xmlns:inkscape="http://www.inkscape.org/namespaces/inkscape"
   xmlns:sodipodi="http://sodipodi.sourceforge.net/DTD/sodipodi-0.dtd"
   xmlns="http://www.w3.org/2000/svg"
   xmlns:svg="http://www.w3.org/2000/svg"
   xmlns:rdf="http://www.w3.org/1999/02/22-rdf-syntax-ns#"
   xmlns:cc="http://creativecommons.org/ns#"
   xmlns:dc="http://purl.org/dc/elements/1.1/">
  <title
     id="title2">T77</title>
  <defs
     id="defs2" />
  <sodipodi:namedview
     id="namedview2"
     pagecolor="#ffffff"
     bordercolor="#000000"
     borderopacity="0.25"
     inkscape:showpageshadow="2"
     inkscape:pageopacity="0.0"
     inkscape:pagecheckerboard="0"
     inkscape:deskcolor="#d1d1d1"
     inkscape:zoom="0.12767206"
     inkscape:cx="1041.7315"
     inkscape:cy="1394.197"
     inkscape:window-width="1440"
     inkscape:window-height="847"
     inkscape:window-x="0"
     inkscape:window-y="25"
     inkscape:window-maximized="1"
     inkscape:current-layer="svg2" />
  <path
     id="path1"
     style="fill:#000000;stroke:none;stroke-width:99.999"
     d="m 672.18228,0 c 0,23.025391 0,46.050781 0,69.076172 -112.1237,0 -224.2474,0 -336.37113,0 0,28.364583 0,56.729168 0,85.093748 112.12373,0 224.24743,0 336.37113,0 0,28.69792 0,57.39583 0,86.09375 -112.1237,0 -224.2474,0 -336.37113,0 0,28.36458 0,56.72917 0,85.09375 112.12373,0 224.24743,0 336.37113,0 0,166.16081 0,332.32161 0,498.48242 -105.7337,11.72454 -216.5118,-8.03034 -305.9658,-67.44943 -50.29803,-27.42156 -102.81534,-50.7503 -156.81549,-69.86697 34.76541,-29.49111 81.53942,-62.13357 81.73437,-112.2461 -4.17951,-62.81225 -93.72203,-58.0991 -105.84437,-1.36704 -17.22456,26.16539 -33.53107,98.07795 -39.07024,90.53984 -14.79539,-44.13481 -28.58009,-104.23649 -79.258231,-118.75063 -65.4460103,-3.07349 -51.44277,81.4275 -18.95042,113.59953 18.89366,27.32921 57.248951,51.02731 9.70595,67.55977 -46.26103,32.16202 -80.28212,105.70195 -39.46988,154.4075 37.14355,32.26922 92.974981,43.35779 140.070551,30.9349 79.22127,-15.13413 161.50321,10.30462 224.36546,59.15522 86.8852,50.45797 192.7547,45.21957 289.4981,39.24517 0,24.1967 0,48.3933 0,72.5899 -87.7637,-10e-5 -175.5274,0 -263.2911,0 1.2995,22.3587 -5.7772,47.1267 11.7671,64.8128 68.4917,109.2062 136.9834,218.4125 205.4751,327.6188 -73.3736,37.947 -109.6619,132.8862 -80.3281,210.5292 31.0193,91.1063 143.0022,140.8031 231.2421,102.065 83.059,-34.0564 128.6638,-135.588 96.5958,-219.965 -18.5902,-48.2158 -58.8953,-91.1838 -108.6224,-106.9567 -16.1777,-4.3976 -3.9353,-34.8013 -7.7428,-50.5183 0,-136.3841 0,-272.7682 0,-409.1523 87.6511,-10.72036 171.5598,-42.0137 260.08652,-48.34457 113.5083,-15.46608 227.3386,-0.13604 340.3733,10.82112 114.0773,10.04536 229.013,5.46443 342.7075,-6.41529 32.5409,0.73809 86.5264,-26.26957 30.9649,-47.03 -51.7213,-33.17421 -113.5216,-42.77738 -173.811,-42.27479 -112.1696,-5.86787 -221.903,-34.36233 -325.6945,-76.45107 -148.7699,-41.83292 -306.45082,-16.14612 -454.47462,15.94478 -32.4258,17.52177 -16.3795,-24.89683 -20.1521,-42.77489 0,-254.7001 0,-509.40019 0,-764.10029 -28.3652,0 -56.7305,0 -85.0957,0 z M 178.05919,749.68359 c 100.71475,5.76043 185.27719,67.45392 274.18399,108.25452 96.6389,41.02237 204.8998,30.77433 304.4436,7.07677 129.166,-20.27886 259.97952,-55.06624 391.43002,-35.00529 94.9221,17.32743 184.1934,59.05135 280.8212,69.28552 77.0183,9.65017 154.584,13.93126 232.045,18.26153 -153.0165,16.70208 -308.2647,14.82462 -459.864,-13.37389 C 1097.7461,886.1 992.02368,894.05786 890.10338,916.80681 c -109.5367,15.54636 -219.4457,42.6198 -330.7228,34.05573 -71.4477,-6.61862 -142.5952,-26.97121 -202.3737,-67.35177 -75.08438,-40.82818 -165.75883,-50.54932 -247.86566,-26.98147 -68.533721,-5.93894 -27.095051,-95.05321 21.66782,-99.90257 15.2305,-4.89852 31.29811,-6.80258 47.25015,-6.94314 z m -18.87695,22.04688 c -56.39643,-11.50572 -71.163011,73.49164 -7.53906,58.64453 33.76655,-0.76589 101.70763,-36.45803 37.98042,-52.15692 -9.63872,-3.95977 -19.97697,-6.49623 -30.44136,-6.48761 z m 303.77144,353.50783 c 69.7429,0 139.4857,0 209.2286,0 0,110.7891 0,221.5781 0,332.3672 -69.7429,-110.7891 -139.4857,-221.5781 -209.2286,-332.3672 z m 248.2715,388.4277 c 82.3105,-3.5682 138.4414,97.214 98.2178,166.9341 -35.7684,71.8099 -149.0567,76.973 -191.7592,9.2601 -49.7925,-70.7364 5.2552,-179.5484 93.5414,-176.1942 z" />
  <metadata
     id="metadata2">
    <rdf:RDF>
      <cc:Work
         rdf:about="">
        <dc:title>T77</dc:title>
        <dc:creator>
          <cc:Agent>
            <dc:title>Serge J. Paul THOMAS</dc:title>
          </cc:Agent>
        </dc:creator>
        <dc:relation>Modified by S. Rosmorduc to match Hieroglyphica. Added &quot;f&quot; sign.</dc:relation>
      </cc:Work>
    </rdf:RDF>
  </metadata>
</svg>
