<?xml version="1.0" encoding="UTF-8" standalone="no"?>
<svg
   xmlns:dc="http://purl.org/dc/elements/1.1/"
   xmlns:cc="http://creativecommons.org/ns#"
   xmlns:rdf="http://www.w3.org/1999/02/22-rdf-syntax-ns#"
   xmlns:svg="http://www.w3.org/2000/svg"
   xmlns="http://www.w3.org/2000/svg"
   xmlns:sodipodi="http://sodipodi.sourceforge.net/DTD/sodipodi-0.dtd"
   xmlns:inkscape="http://www.inkscape.org/namespaces/inkscape"
   width="24.176174"
   height="5.1666961"
   id="svg2"
   sodipodi:version="0.32"
   inkscape:version="0.46"
   sodipodi:docname="T7B.svg"
   inkscape:output_extension="org.inkscape.output.svg.inkscape"
   version="1.0">
  <metadata
     id="metadata9">
    <rdf:RDF>
      <cc:Work
         rdf:about="">
        <dc:format>image/svg+xml</dc:format>
        <dc:type
           rdf:resource="http://purl.org/dc/dcmitype/StillImage" />
      </cc:Work>
    </rdf:RDF>
  </metadata>
  <defs
     id="defs7">
    <inkscape:perspective
       sodipodi:type="inkscape:persp3d"
       inkscape:vp_x="0 : 2.6400001 : 1"
       inkscape:vp_y="0 : 1000 : 0"
       inkscape:vp_z="18.52709 : 2.6400001 : 1"
       inkscape:persp3d-origin="9.263545 : 1.7600001 : 1"
       id="perspective11" />
  </defs>
  <sodipodi:namedview
     inkscape:window-height="712"
     inkscape:window-width="1024"
     inkscape:pageshadow="2"
     inkscape:pageopacity="0.0"
     guidetolerance="10.0"
     gridtolerance="10.0"
     objecttolerance="10.0"
     borderopacity="1.0"
     bordercolor="#666666"
     pagecolor="#ffffff"
     id="base"
     showgrid="false"
     showguides="true"
     inkscape:guide-bbox="true"
     inkscape:zoom="38.384899"
     inkscape:cx="12.088087"
     inkscape:cy="2.5833481"
     inkscape:window-x="-4"
     inkscape:window-y="-4"
     inkscape:current-layer="svg2" />
  <path
     style="fill:#000000;stroke:none"
     d="M 24.163988,0.025905443 L 24.176174,1.1883421 L 8.635835,1.183518 C 8.2696785,1.7094826 8.0343561,2.3262581 7.365525,3.535102 C 6.7928984,4.5700661 5.922789,5.151588 4.532917,5.166696 C 2.750257,5.166696 1.7154077,4.1771677 1.428369,2.198111 C 1.3226177,1.7146783 1.1639913,1.4314167 0.95249,1.348326 C 0.74098733,1.265236 0.256824,1.2085837 0,1.178369 L 0,0 L 24.163988,0.025905443 z M 6.980299,1.1931421 L 2.606738,1.20103 C 2.6369533,2.757078 2.9693133,3.69373 3.603818,4.010986 C 4.2383253,4.32824 4.857725,4.335794 5.462017,4.033648 C 6.066309,3.7314987 6.9470317,2.4621521 6.980299,1.1931421 z"
     id="path4"
     sodipodi:nodetypes="cccsccscccccssc" />
</svg>
