<?xml version="1.0" encoding="UTF-8" standalone="no"?>
<svg
   xmlns:dc="http://purl.org/dc/elements/1.1/"
   xmlns:cc="http://web.resource.org/cc/"
   xmlns:rdf="http://www.w3.org/1999/02/22-rdf-syntax-ns#"
   xmlns:svg="http://www.w3.org/2000/svg"
   xmlns="http://www.w3.org/2000/svg"
   xmlns:sodipodi="http://sodipodi.sourceforge.net/DTD/sodipodi-0.dtd"
   xmlns:inkscape="http://www.inkscape.org/namespaces/inkscape"
   width="17.762442"
   height="2.88"
   id="svg2728"
   sodipodi:version="0.32"
   inkscape:version="0.44"
   sodipodi:docname="US22T9.svg"
   sodipodi:docbase="C:\Program Files\Inkscape\envoi31\Jseshopt">
  <metadata
     id="metadata2735">
    <rdf:RDF>
      <cc:Work
         rdf:about="">
        <dc:format>image/svg+xml</dc:format>
        <dc:type
           rdf:resource="http://purl.org/dc/dcmitype/StillImage" />
        <cc:license
           rdf:resource="http://creativecommons.org/licenses/GPL/2.0/" />
        <dc:title>US22T9</dc:title>
        <dc:date>30/09/06</dc:date>
        <dc:description>variante optimisée du signe Jsesh T9</dc:description>
        <dc:creator>
          <cc:Agent>
            <dc:title></dc:title>
          </cc:Agent>
        </dc:creator>
        <dc:publisher>
          <cc:Agent>
            <dc:title>Serge Rosmorduc</dc:title>
          </cc:Agent>
        </dc:publisher>
      </cc:Work>
      <cc:License
         rdf:about="http://creativecommons.org/licenses/GPL/2.0/">
        <cc:permits
           rdf:resource="http://web.resource.org/cc/Reproduction" />
        <cc:permits
           rdf:resource="http://web.resource.org/cc/Distribution" />
        <cc:requires
           rdf:resource="http://web.resource.org/cc/Notice" />
        <cc:permits
           rdf:resource="http://web.resource.org/cc/DerivativeWorks" />
        <cc:requires
           rdf:resource="http://web.resource.org/cc/ShareAlike" />
        <cc:requires
           rdf:resource="http://web.resource.org/cc/SourceCode" />
      </cc:License>
    </rdf:RDF>
  </metadata>
  <defs
     id="defs2733" />
  <sodipodi:namedview
     inkscape:window-height="569"
     inkscape:window-width="939"
     inkscape:pageshadow="2"
     inkscape:pageopacity="0.0"
     guidetolerance="10.0"
     gridtolerance="10.0"
     objecttolerance="10.0"
     borderopacity="1.0"
     bordercolor="#666666"
     pagecolor="#ffffff"
     id="base"
     inkscape:zoom="48.078976"
     inkscape:cx="8.8812208"
     inkscape:cy="1.4400001"
     inkscape:window-x="26"
     inkscape:window-y="12"
     inkscape:current-layer="svg2728" />
  <path
     style="fill:#000000; stroke:none"
     d=" M 14.329368 2.111023  L 13.966868 0.55441  L 3.774252 0.55441  L 3.411754 2.111023  Q 6.930126 1.748524 8.87056 1.748524  Q 10.810996 1.748524 14.329368 2.111023  Z  M 14.96907 1.961758  Q 16.03524 2.388228 16.483034 1.993744  Q 16.930828 1.59926 16.95215 0.61838  Q 16.930828 0 17.335974 0  Q 17.762442 0 17.762442 0.746321  Q 17.762442 1.53529 17.527884 2.068376  Q 17.080093 3.113226 14.96907 2.814697  Q 14.265398 2.516168 8.87056 2.302934  Q 3.475724 2.516168 2.793374 2.814697  Q 0.661027 3.113226 0.234558 2.068376  Q 0 1.53529 0 0.746321  Q 0 0 0.405146 0  Q 0.831615 0 0.788968 0.61838  Q 0.831615 1.59926 1.268746 1.993744  Q 1.705877 2.388228 2.793374 1.961758  Q 3.113226 1.59926 3.241166 0  L 14.499956 0  Q 14.563926 1.59926 14.96907 1.961758  L 14.96907 1.961758  Z "
     id="path2730" />
</svg>
