<?xml version="1.0" encoding="UTF-8" standalone="no"?>
<svg
   xmlns:dc="http://purl.org/dc/elements/1.1/"
   xmlns:cc="http://creativecommons.org/ns#"
   xmlns:rdf="http://www.w3.org/1999/02/22-rdf-syntax-ns#"
   xmlns:svg="http://www.w3.org/2000/svg"
   xmlns="http://www.w3.org/2000/svg"
   xmlns:sodipodi="http://sodipodi.sourceforge.net/DTD/sodipodi-0.dtd"
   xmlns:inkscape="http://www.inkscape.org/namespaces/inkscape"
   width="14.41154"
   height="17.975571"
   id="svg2383"
   sodipodi:version="0.32"
   inkscape:version="0.46"
   sodipodi:docname="T97Avara.svg"
   inkscape:output_extension="org.inkscape.output.svg.inkscape"
   version="1.0">
  <metadata
     id="metadata2390">
    <rdf:RDF>
      <cc:Work
         rdf:about="">
        <dc:format>image/svg+xml</dc:format>
        <dc:type
           rdf:resource="http://purl.org/dc/dcmitype/StillImage" />
      </cc:Work>
    </rdf:RDF>
  </metadata>
  <defs
     id="defs2388">
    <inkscape:perspective
       sodipodi:type="inkscape:persp3d"
       inkscape:vp_x="0 : 8.9847984 : 1"
       inkscape:vp_y="0 : 1000 : 0"
       inkscape:vp_z="6.0432792 : 8.9847984 : 1"
       inkscape:persp3d-origin="3.0216396 : 5.9898656 : 1"
       id="perspective2392" />
  </defs>
  <sodipodi:namedview
     inkscape:window-height="708"
     inkscape:window-width="1024"
     inkscape:pageshadow="2"
     inkscape:pageopacity="0.0"
     guidetolerance="10.0"
     gridtolerance="10.0"
     objecttolerance="10.0"
     borderopacity="1.0"
     bordercolor="#666666"
     pagecolor="#ffffff"
     id="base"
     showgrid="false"
     inkscape:zoom="25.710093"
     inkscape:cx="3.0216396"
     inkscape:cy="8.9847984"
     inkscape:window-x="-4"
     inkscape:window-y="-4"
     inkscape:current-layer="svg2383" />
  <path
     style="fill:#000000;stroke:none"
     d="M 0.28653984,0.0068210106 C 0.081340941,-0.027235518 -0.025751259,0.067806459 0.0052898414,0.25682101 L 6.2865398,10.381821 L 6.2865398,17.975571 L 7.2552898,17.975571 L 7.2552898,11.100571 L 9.7865398,10.006821 L 13.56779,13.256821 C 13.904706,13.160207 14.26744,12.697957 14.41154,12.288071 L 7.2552898,6.069321 L 7.2552898,4.163071 L 9.7865398,0.0068210106 L 8.7865398,0.0068210106 L 6.7865398,3.288071 L 4.7552898,0.0068210106 L 3.7552898,0.0068210106 L 6.2865398,4.163071 L 6.2865398,5.225571 L 0.28653984,0.0068210106 z M 1.5365398,1.788071 L 13.66154,12.256821 C 13.665439,12.420984 13.474329,12.512048 13.38029,12.506821 L 9.7865398,9.413071 L 7.0365398,10.600571 L 1.5365398,1.788071 z"
     id="path2385" />
</svg>
