<?xml version="1.0" encoding="UTF-8" standalone="no"?>
<svg
   xmlns:dc="http://purl.org/dc/elements/1.1/"
   xmlns:cc="http://web.resource.org/cc/"
   xmlns:rdf="http://www.w3.org/1999/02/22-rdf-syntax-ns#"
   xmlns:svg="http://www.w3.org/2000/svg"
   xmlns="http://www.w3.org/2000/svg"
   xmlns:sodipodi="http://sodipodi.sourceforge.net/DTD/sodipodi-0.dtd"
   xmlns:inkscape="http://www.inkscape.org/namespaces/inkscape"
   width="17.596409"
   height="14.4"
   id="svg5388"
   sodipodi:version="0.32"
   inkscape:version="0.44"
   sodipodi:docname="US22U102.svg"
   sodipodi:docbase="C:\Program Files\JSesh\fonteUS22\US22_33">
  <metadata
     id="metadata5395">
    <rdf:RDF>
      <cc:Work
         rdf:about="">
        <dc:format>image/svg+xml</dc:format>
        <dc:type
           rdf:resource="http://purl.org/dc/dcmitype/StillImage" />
        <cc:license
           rdf:resource="http://creativecommons.org/licenses/GPL/2.0/" />
        <dc:publisher>
          <cc:Agent>
            <dc:title>Serge Rosmorduc</dc:title>
          </cc:Agent>
        </dc:publisher>
        <dc:creator>
          <cc:Agent>
            <dc:title>Serge Thomas</dc:title>
          </cc:Agent>
        </dc:creator>
        <dc:date>6/12/06</dc:date>
        <dc:title>US22U102</dc:title>
        <dc:description>pour exprimer U102 de l'extended library</dc:description>
      </cc:Work>
      <cc:License
         rdf:about="http://creativecommons.org/licenses/GPL/2.0/">
        <cc:permits
           rdf:resource="http://web.resource.org/cc/Reproduction" />
        <cc:permits
           rdf:resource="http://web.resource.org/cc/Distribution" />
        <cc:requires
           rdf:resource="http://web.resource.org/cc/Notice" />
        <cc:permits
           rdf:resource="http://web.resource.org/cc/DerivativeWorks" />
        <cc:requires
           rdf:resource="http://web.resource.org/cc/ShareAlike" />
        <cc:requires
           rdf:resource="http://web.resource.org/cc/SourceCode" />
      </cc:License>
    </rdf:RDF>
  </metadata>
  <defs
     id="defs5393" />
  <sodipodi:namedview
     inkscape:window-height="569"
     inkscape:window-width="939"
     inkscape:pageshadow="2"
     inkscape:pageopacity="0.0"
     guidetolerance="10.0"
     gridtolerance="10.0"
     objecttolerance="10.0"
     borderopacity="1.0"
     bordercolor="#666666"
     pagecolor="#ffffff"
     id="base"
     inkscape:zoom="26.180556"
     inkscape:cx="8.7982044"
     inkscape:cy="7.1999998"
     inkscape:window-x="126"
     inkscape:window-y="66"
     inkscape:current-layer="svg5388" />
  <path
     style="fill:#000000; stroke:none"
     d=" M 12.122268 13.407615  L 11.882984 12.63849  L 12.686293 12.604306  L 12.942668 13.373431  L 12.122268 13.407615  Z  M 10.566926 12.330839  L 10.327642 11.561714  L 11.130951 11.527531  L 11.387326 12.296657  L 10.566926 12.330839  Z  M 11.763343 12.262473  L 11.524059 11.493348  L 12.327368 11.459165  L 12.583743 12.22829  L 11.763343 12.262473  Z  M 10.925851 13.475982  L 10.686567 12.706857  L 11.489876 12.672673  L 11.746251 13.441798  L 10.925851 13.475982  Z  M 14.515101 13.099965  L 14.446735 13.099965  L 14.275818 12.535939  L 15.096218 12.484665  L 15.11331 12.570123  L 14.515101 13.099965  Z  M 12.95976 12.211198  L 12.720476 11.442073  L 13.523785 11.407889  L 13.78016 12.177014  L 12.95976 12.211198  Z  M 14.156177 12.159923  L 13.916893 11.373706  L 14.976577 12.108648  L 14.156177 12.159923  Z  M 13.318685 13.356339  L 13.079401 12.587214  L 13.899801 12.553031  L 14.139085 13.322157  L 13.318685 13.356339  Z  M 11.062584 13.886182  L 11.045492 13.834907  L 11.865892 13.800723  L 11.882984 13.886182  L 11.062584 13.886182  Z  M 12.276093 13.851998  L 12.241909 13.783631  L 13.062309 13.749448  L 12.276093 13.851998  Z  M 9.575609 10.433664  L 9.814892 11.202789  L 9.011583 11.236973  L 8.7723 10.467848  L 9.575609 10.433664  Z  M 7.456242 10.160197  L 7.199866 9.391072  L 8.020267 9.356889  L 8.25955 10.126014  L 7.456242 10.160197  Z  M 8.652658 10.108922  L 8.413375 9.322705  L 9.216683 9.288522  L 9.455967 10.057648  L 8.652658 10.108922  Z  M 7.815166 11.305339  L 7.575883 10.536214  L 8.379191 10.50203  L 8.618475 11.271156  L 7.815166 11.305339  Z  M 5.900899 9.083422  L 5.644525 8.314297  L 6.447833 8.263021  L 6.704208 9.032147  L 5.900899 9.083422  Z  M 4.328466 7.989555  L 4.089182 7.22043  L 4.892491 7.186246  L 5.148866 7.955372  L 4.328466 7.989555  Z  M 5.541975 7.93828  L 5.285599 7.169155  L 6.088908 7.11788  L 6.345283 7.887005  L 5.541975 7.93828  Z  M 4.704483 9.134697  L 4.448107 8.365572  L 5.251416 8.331388  L 5.507791 9.100513  L 4.704483 9.134697  Z  M 8.293734 8.96378  L 8.037358 8.194655  L 8.857759 8.14338  L 9.097042 8.929597  L 8.293734 8.96378  Z  M 6.7213 7.887005  L 6.482016 7.11788  L 7.285325 7.066605  L 7.524608 7.83573  L 6.7213 7.887005  Z  M 7.917717 7.818638  L 7.678433 7.049513  L 8.738117 7.767364  L 7.917717 7.818638  Z  M 7.097316 9.015056  L 6.840941 8.24593  L 7.64425 8.211747  L 7.900625 8.980872  L 7.097316 9.015056  Z  M 6.61875 11.356614  L 6.379466 10.587489  L 7.182775 10.553306  L 7.422058 11.322431  L 6.61875 11.356614  Z  M 5.063407 10.279839  L 4.824124 9.510714  L 5.627433 9.459439  L 5.866716 10.228564  L 5.063407 10.279839  Z  M 6.259825 10.228564  L 6.003449 9.442348  L 6.82385 9.408164  L 7.063133 10.177289  L 6.259825 10.228564  Z  M 5.422333 11.424981  L 5.183049 10.638764  L 5.986358 10.604581  L 6.225641 11.373706  L 5.422333 11.424981  Z  M 7.507516 12.860682  L 7.900625 12.84359  L 7.986084 13.04869  L 7.507516 12.860682  Z  M 5.593249 11.783906  L 6.345283 11.749722  L 6.533291 12.347931  L 5.593249 11.783906  Z  M 6.977675 12.501757  L 6.738391 11.732631  L 7.5417 11.698448  L 7.798075 12.467573  L 6.977675 12.501757  Z  M 9.729434 13.527257  L 9.49015 12.758131  L 10.310551 12.723948  L 10.549834 13.493073  L 9.729434 13.527257  Z  M 8.174091 12.450481  L 7.934808 11.664265  L 8.738117 11.630081  L 8.994492 12.399206  L 8.174091 12.450481  Z  M 9.370509 12.382114  L 9.131226 11.612989  L 9.934534 11.578806  L 10.190909 12.347931  L 9.370509 12.382114  Z  M 8.413375 13.236698  L 8.293734 12.809406  L 9.097042 12.775223  L 9.353417 13.544348  L 8.413375 13.236698  Z  M 12.600835 11.066056  L 12.361551 10.29693  L 13.421235 11.031873  L 12.600835 11.066056  Z  M 9.49015 8.912505  L 9.250867 8.126288  L 10.293459 8.86123  L 9.49015 8.912505  Z  M 11.404418 11.134422  L 11.165134 10.365297  L 11.968443 10.314022  L 12.207726 11.100239  L 11.404418 11.134422  Z  M 9.849075 10.040556  L 9.5927 9.27143  L 10.4131 9.237247  L 10.652384 10.006372  L 9.849075 10.040556  Z  M 11.045492 9.989281  L 10.806209 9.203064  L 11.848801 9.938005  L 11.045492 9.989281  Z  M 10.208 11.185698  L 9.968718 10.416573  L 10.772026 10.382389  L 11.011309 11.151514  L 10.208 11.185698  Z  M 3.132049 8.057921  L 2.892765 7.288796  L 3.696074 7.237522  L 3.935357 8.006647  L 3.132049 8.057921  Z  M 3.490974 9.203064  L 3.25169 8.416847  L 4.054999 8.382664  L 4.311374 9.151789  L 3.490974 9.203064  Z  M 3.866991 10.331114  L 3.610615 9.561989  L 4.431016 9.527805  L 4.670299 10.29693  L 3.866991 10.331114  Z  M 2.773124 6.91278  L 2.53384 6.143655  L 3.337149 6.09238  L 3.576432 6.878596  L 2.773124 6.91278  Z  M 3.969541 6.844413  L 3.730257 6.075288  L 4.533566 6.041105  L 4.772849 6.81023  L 3.969541 6.844413  Z  M 5.165957 6.793138  L 4.926674 6.024013  L 5.729983 5.972738  L 5.969266 6.758955  L 5.165957 6.793138  Z  M 6.362375 6.741863  L 6.123091 5.955646  L 7.182775 6.690588  L 6.362375 6.741863  Z  M 1.576707 6.964055  L 1.337423 6.19493  L 2.140732 6.160746  L 2.380015 6.929872  L 1.576707 6.964055  Z  M 1.935632 8.109197  L 1.696348 7.340072  L 2.499657 7.288796  L 2.756032 8.075013  L 1.935632 8.109197  Z  M 2.721849 9.237247  L 2.089457 8.485213  L 2.858582 8.433939  L 3.114957 9.203064  L 2.721849 9.237247  Z  M 3.029499 9.596172  L 3.217507 9.579081  L 3.337149 9.903822  L 3.029499 9.596172  Z  M 1.217782 5.818913  L 0.961407 5.049788  L 1.781807 5.015604  L 2.02109 5.784729  L 1.217782 5.818913  Z  M 2.414199 5.767638  L 2.157824 4.998513  L 2.978224 4.964329  L 3.217507 5.733455  L 2.414199 5.767638  Z  M 3.610615 5.716363  L 3.35424 4.947237  L 4.174641 4.895963  L 4.413924 5.682179  L 3.610615 5.716363  Z  M 4.807033 5.647996  L 4.567749 4.878871  L 5.610341 5.613813  L 4.807033 5.647996  Z  M 0.756306 5.836005  L 0.670848 5.357438  L 0.824673 5.853096  L 0.756306 5.836005  Z  M 0.858856 4.673771  L 0.602481 3.904646  L 1.40579 3.870462  L 1.662165 4.639587  L 0.858856 4.673771  Z  M 2.038182 4.622496  L 1.798898 3.853371  L 2.602207 3.819187  L 2.858582 4.588313  L 2.038182 4.622496  Z  M 3.25169 4.571221  L 2.995315 3.785004  L 4.054999 4.519946  L 3.25169 4.571221  Z  M 1.166507 6.998238  L 0.875948 6.212021  L 0.944315 6.212021  L 1.183598 6.981146  L 1.166507 6.998238  Z  M 0.705031 3.528629  L 0.99559 2.742412  L 1.046865 2.72532  L 1.286148 3.511537  L 0.705031 3.528629  Z  M 1.679257 3.477354  L 1.439973 2.708229  L 2.499657 3.443171  L 1.679257 3.477354  Z  M 4.157549 10.70713  L 4.789941 10.672948  L 5.012133 11.373706  L 4.157549 10.70713  Z  M 0.961407 0.913603  Q 1.30324 0.417945 1.679257 0.67432  L 16.788294 11.185698  Q 17.147219 11.442073 16.805386 11.937731  Q 16.463552 12.43339 16.087536 12.194106  L 0.99559 1.682728  Q 0.619573 1.426353 0.961407 0.913603  Z  M 0.48284 0.588861  Q -0.200827 1.563087 0.653756 2.161295  Q -0.662302 4.126837 0.670848 7.11788  Q 2.22619 9.989281 5.063407 11.954823  Q 7.900625 13.937457 11.113859 14.38184  Q 14.446735 14.58694 15.762794 12.672673  Q 16.634468 13.25379 17.301044 12.279565  Q 17.967619 11.322431 17.130127 10.724222  L 2.003999 0.229936  Q 1.149415 -0.368272 0.48284 0.588861  Z "
     id="path5390" />
</svg>
