<?xml version="1.0" encoding="UTF-8" standalone="no"?>
<svg
   xmlns:dc="http://purl.org/dc/elements/1.1/"
   xmlns:cc="http://web.resource.org/cc/"
   xmlns:rdf="http://www.w3.org/1999/02/22-rdf-syntax-ns#"
   xmlns:svg="http://www.w3.org/2000/svg"
   xmlns="http://www.w3.org/2000/svg"
   xmlns:sodipodi="http://sodipodi.sourceforge.net/DTD/sodipodi-0.dtd"
   xmlns:inkscape="http://www.inkscape.org/namespaces/inkscape"
   width="22.324261"
   height="10.8"
   id="svg1917"
   sodipodi:version="0.32"
   inkscape:version="0.44"
   sodipodi:docname="US22U103.svg"
   sodipodi:docbase="C:\Program Files\JSesh\fonteUS22\US22_33">
  <metadata
     id="metadata1924">
    <rdf:RDF>
      <cc:Work
         rdf:about="">
        <dc:format>image/svg+xml</dc:format>
        <dc:type
           rdf:resource="http://purl.org/dc/dcmitype/StillImage" />
        <cc:license
           rdf:resource="http://creativecommons.org/licenses/GPL/2.0/" />
        <dc:date>6/12/06</dc:date>
        <dc:creator>
          <cc:Agent>
            <dc:title>Serge Thomas</dc:title>
          </cc:Agent>
        </dc:creator>
        <dc:publisher>
          <cc:Agent>
            <dc:title>Serge Rosmorduc</dc:title>
          </cc:Agent>
        </dc:publisher>
        <dc:description>pour exprimer U103 de l'extended library</dc:description>
        <dc:title>US22U103</dc:title>
      </cc:Work>
      <cc:License
         rdf:about="http://creativecommons.org/licenses/GPL/2.0/">
        <cc:permits
           rdf:resource="http://web.resource.org/cc/Reproduction" />
        <cc:permits
           rdf:resource="http://web.resource.org/cc/Distribution" />
        <cc:requires
           rdf:resource="http://web.resource.org/cc/Notice" />
        <cc:permits
           rdf:resource="http://web.resource.org/cc/DerivativeWorks" />
        <cc:requires
           rdf:resource="http://web.resource.org/cc/ShareAlike" />
        <cc:requires
           rdf:resource="http://web.resource.org/cc/SourceCode" />
      </cc:License>
    </rdf:RDF>
  </metadata>
  <defs
     id="defs1922" />
  <sodipodi:namedview
     inkscape:window-height="569"
     inkscape:window-width="939"
     inkscape:pageshadow="2"
     inkscape:pageopacity="0.0"
     guidetolerance="10.0"
     gridtolerance="10.0"
     objecttolerance="10.0"
     borderopacity="1.0"
     bordercolor="#666666"
     pagecolor="#ffffff"
     id="base"
     inkscape:zoom="34.907407"
     inkscape:cx="11.16213"
     inkscape:cy="5.4000001"
     inkscape:window-x="151"
     inkscape:window-y="86"
     inkscape:current-layer="svg1917" />
  <path
     style="fill:black;stroke:none"
     d="M 0,10.8 L 22.324261,10.8 L 22.324261,0 L 0,0 L 0,10.8 z M 1.448521,4.579882 L 2.236686,5.389349 L 1.448521,6.198817 L 1.448521,4.579882 z M 3.813018,4.579882 L 4.622485,5.389349 L 3.813018,6.198817 L 3.00355,5.389349 L 3.813018,4.579882 z M 6.177515,4.579882 L 6.986982,5.389349 L 6.177515,6.198817 L 5.368047,5.389349 L 6.177515,4.579882 z M 4.984615,5.772781 L 5.794083,6.582249 L 4.984615,7.370414 L 4.19645,6.582249 L 4.984615,5.772781 z M 4.984615,3.408284 L 5.794083,4.19645 L 4.984615,5.005917 L 4.19645,4.19645 L 4.984615,3.408284 z M 1.448521,6.965681 L 2.236686,7.753846 L 1.448521,8.563313 L 1.448521,6.965681 z M 3.813018,6.965681 L 4.622485,7.753846 L 3.813018,8.563313 L 3.00355,7.753846 L 3.813018,6.965681 z M 2.620118,8.137279 L 3.429586,8.946746 L 1.831953,8.946746 L 2.620118,8.137279 z M 2.620118,5.772781 L 3.429586,6.582249 L 2.620118,7.370414 L 1.831953,6.582249 L 2.620118,5.772781 z M 1.448521,2.215385 L 2.236686,3.024852 L 1.448521,3.83432 L 1.448521,2.215385 z M 3.813018,2.215385 L 4.622485,3.024852 L 3.813018,3.83432 L 3.00355,3.024852 L 3.813018,2.215385 z M 2.620118,3.408284 L 3.429586,4.19645 L 2.620118,5.005917 L 1.831953,4.19645 L 2.620118,3.408284 z M 3.429586,1.831953 L 2.620118,2.64142 L 1.831953,1.831953 L 3.429586,1.831953 z M 8.542012,4.579882 L 9.35148,5.389349 L 8.542012,6.198817 L 7.753846,5.389349 L 8.542012,4.579882 z M 10.906508,4.579882 L 11.715977,5.389349 L 10.906508,6.198817 L 10.118343,5.389349 L 10.906508,4.579882 z M 9.734911,5.772781 L 10.523077,6.582249 L 9.734911,7.370414 L 8.925444,6.582249 L 9.734911,5.772781 z M 9.734911,3.408284 L 10.523077,4.19645 L 9.734911,5.005917 L 8.925444,4.19645 L 9.734911,3.408284 z M 13.271006,4.579882 L 14.080473,5.389349 L 13.271006,6.198817 L 12.482841,5.389349 L 13.271006,4.579882 z M 15.656805,4.579882 L 16.444971,5.389349 L 15.656805,6.198817 L 14.847338,5.389349 L 15.656805,4.579882 z M 14.463905,5.772781 L 15.273373,6.582249 L 14.463905,7.370414 L 13.654438,6.582249 L 14.463905,5.772781 z M 14.463905,3.408284 L 15.273373,4.19645 L 14.463905,5.005917 L 13.654438,4.19645 L 14.463905,3.408284 z M 10.906508,6.965681 L 11.715977,7.753846 L 10.906508,8.563313 L 10.118343,7.753846 L 10.906508,6.965681 z M 13.271006,6.965681 L 14.080473,7.753846 L 13.271006,8.563313 L 12.482841,7.753846 L 13.271006,6.965681 z M 12.099408,8.137279 L 12.887574,8.946746 L 11.289941,8.946746 L 12.099408,8.137279 z M 12.099408,5.772781 L 12.887574,6.582249 L 12.099408,7.370414 L 11.289941,6.582249 L 12.099408,5.772781 z M 10.906508,2.215385 L 11.715977,3.024852 L 10.906508,3.83432 L 10.118343,3.024852 L 10.906508,2.215385 z M 13.271006,2.215385 L 14.080473,3.024852 L 13.271006,3.83432 L 12.482841,3.024852 L 13.271006,2.215385 z M 12.099408,3.408284 L 12.887574,4.19645 L 12.099408,5.005917 L 11.289941,4.19645 L 12.099408,3.408284 z M 12.887574,1.831953 L 12.099408,2.64142 L 11.289941,1.831953 L 12.887574,1.831953 z M 5.794083,1.831953 L 4.984615,2.64142 L 4.19645,1.831953 L 5.794083,1.831953 z M 10.523077,1.831953 L 9.734911,2.64142 L 8.925444,1.831953 L 10.523077,1.831953 z M 6.177515,2.215385 L 6.986982,3.024852 L 6.177515,3.83432 L 5.368047,3.024852 L 6.177515,2.215385 z M 8.542012,2.215385 L 9.35148,3.024852 L 8.542012,3.83432 L 7.753846,3.024852 L 8.542012,2.215385 z M 7.370414,3.408284 L 8.15858,4.19645 L 7.370414,5.005917 L 6.560947,4.19645 L 7.370414,3.408284 z M 8.15858,1.831953 L 7.370414,2.64142 L 6.560947,1.831953 L 8.15858,1.831953 z M 4.984615,8.137279 L 5.794083,8.946746 L 4.19645,8.946746 L 4.984615,8.137279 z M 9.734911,8.137279 L 10.523077,8.946746 L 8.925444,8.946746 L 9.734911,8.137279 z M 6.177515,6.965681 L 6.986982,7.753846 L 6.177515,8.563313 L 5.368047,7.753846 L 6.177515,6.965681 z M 8.542012,6.965681 L 9.35148,7.753846 L 8.542012,8.563313 L 7.753846,7.753846 L 8.542012,6.965681 z M 7.370414,8.137279 L 8.15858,8.946746 L 6.560947,8.946746 L 7.370414,8.137279 z M 7.370414,5.772781 L 8.15858,6.582249 L 7.370414,7.370414 L 6.560947,6.582249 L 7.370414,5.772781 z M 15.273373,1.831953 L 14.463905,2.64142 L 13.654438,1.831953 L 15.273373,1.831953 z M 15.656805,2.215385 L 16.444971,3.024852 L 15.656805,3.83432 L 14.847338,3.024852 L 15.656805,2.215385 z M 16.828402,3.408284 L 17.637869,4.19645 L 16.828402,5.005917 L 16.018934,4.19645 L 16.828402,3.408284 z M 17.637869,1.831953 L 16.828402,2.64142 L 16.018934,1.831953 L 17.637869,1.831953 z M 18.021301,2.215385 L 18.809467,3.024852 L 18.021301,3.83432 L 17.211834,3.024852 L 18.021301,2.215385 z M 20.002367,1.831953 L 19.1929,2.64142 L 18.404734,1.831953 L 20.002367,1.831953 z M 20.385799,2.215385 L 20.385799,3.83432 L 19.576332,3.024852 L 20.385799,2.215385 z M 19.1929,3.408284 L 20.002367,4.19645 L 19.1929,5.005917 L 18.404734,4.19645 L 19.1929,3.408284 z M 18.021301,4.579882 L 18.809467,5.389349 L 18.021301,6.198817 L 17.211834,5.389349 L 18.021301,4.579882 z M 16.828402,5.772781 L 17.637869,6.582249 L 16.828402,7.370414 L 16.018934,6.582249 L 16.828402,5.772781 z M 15.656805,6.965681 L 16.444971,7.753846 L 15.656805,8.563313 L 14.847338,7.753846 L 15.656805,6.965681 z M 14.463905,8.15858 L 15.252071,8.946746 L 13.654438,8.946746 L 14.463905,8.15858 z M 20.385799,4.579882 L 20.385799,6.198817 L 19.576332,5.389349 L 20.385799,4.579882 z M 19.1929,5.772781 L 20.002367,6.582249 L 19.1929,7.370414 L 18.404734,6.582249 L 19.1929,5.772781 z M 20.385799,6.965681 L 20.385799,8.563313 L 19.576332,7.753846 L 20.385799,6.965681 z M 18.021301,6.965681 L 18.809467,7.753846 L 18.021301,8.563313 L 17.211834,7.753846 L 18.021301,6.965681 z M 16.828402,8.137279 L 17.637869,8.946746 L 16.018934,8.946746 L 16.828402,8.137279 z M 19.1929,8.137279 L 20.002367,8.946746 L 18.404734,8.946746 L 19.1929,8.137279 z "
     id="path1919"
     sodipodi:insensitive="true" />
</svg>
