<?xml version="1.0" encoding="UTF-8" standalone="no"?>
<svg
   xmlns:dc="http://purl.org/dc/elements/1.1/"
   xmlns:cc="http://web.resource.org/cc/"
   xmlns:rdf="http://www.w3.org/1999/02/22-rdf-syntax-ns#"
   xmlns:svg="http://www.w3.org/2000/svg"
   xmlns="http://www.w3.org/2000/svg"
   xmlns:sodipodi="http://sodipodi.sourceforge.net/DTD/sodipodi-0.dtd"
   xmlns:inkscape="http://www.inkscape.org/namespaces/inkscape"
   width="15.846102"
   height="15.12"
   id="svg5990"
   sodipodi:version="0.32"
   inkscape:version="0.44"
   sodipodi:docname="US22U112.svg"
   sodipodi:docbase="C:\Program Files\JSesh\fonteUS22\US22_33">
  <metadata
     id="metadata5997">
    <rdf:RDF>
      <cc:Work
         rdf:about="">
        <dc:format>image/svg+xml</dc:format>
        <dc:type
           rdf:resource="http://purl.org/dc/dcmitype/StillImage" />
        <cc:license
           rdf:resource="http://creativecommons.org/licenses/GPL/2.0/" />
        <dc:date>6/12/06</dc:date>
        <dc:creator>
          <cc:Agent>
            <dc:title>Serge Thomas</dc:title>
          </cc:Agent>
        </dc:creator>
        <dc:publisher>
          <cc:Agent>
            <dc:title>Serge Rosmorduc
</dc:title>
          </cc:Agent>
        </dc:publisher>
        <dc:description>US22U112
FCDp. 201 ( XAr )</dc:description>
        <dc:title></dc:title>
      </cc:Work>
      <cc:License
         rdf:about="http://creativecommons.org/licenses/GPL/2.0/">
        <cc:permits
           rdf:resource="http://web.resource.org/cc/Reproduction" />
        <cc:permits
           rdf:resource="http://web.resource.org/cc/Distribution" />
        <cc:requires
           rdf:resource="http://web.resource.org/cc/Notice" />
        <cc:permits
           rdf:resource="http://web.resource.org/cc/DerivativeWorks" />
        <cc:requires
           rdf:resource="http://web.resource.org/cc/ShareAlike" />
        <cc:requires
           rdf:resource="http://web.resource.org/cc/SourceCode" />
      </cc:License>
    </rdf:RDF>
  </metadata>
  <defs
     id="defs5995" />
  <sodipodi:namedview
     inkscape:window-height="569"
     inkscape:window-width="939"
     inkscape:pageshadow="2"
     inkscape:pageopacity="0.0"
     guidetolerance="10.0"
     gridtolerance="10.0"
     objecttolerance="10.0"
     borderopacity="1.0"
     bordercolor="#666666"
     pagecolor="#ffffff"
     id="base"
     inkscape:zoom="24.933863"
     inkscape:cx="7.9230509"
     inkscape:cy="7.5599999"
     inkscape:window-x="165"
     inkscape:window-y="100"
     inkscape:current-layer="svg5990" />
  <path
     style="fill:#000000; stroke:none"
     d=" M 4.249831 1.708475  Q 4.911864 1.687119 4.93322 1.067797  Q 4.911864 0.448475 4.249831 0.405763  Q 3.609153 0.448475 3.566441 1.067797  Q 3.609153 1.687119 4.249831 1.708475  Z  M 11.574915 1.708475  Q 12.215593 1.687119 12.258306 1.067797  Q 12.215593 0.448475 11.574915 0.405763  Q 10.912881 0.448475 10.891525 1.067797  Q 10.912881 1.687119 11.574915 1.708475  Z  M 11.062373 4.847796  L 11.062373 2.050169  Q 10.485763 1.857966 10.464407 1.067797  Q 10.507118 0.064068 11.574915 0  Q 12.621356 0.064068 12.706779 1.067797  Q 12.642712 1.857966 12.087458 2.050169  L 12.087458 4.847796  L 15.846102 4.847796  L 15.846102 10.44305  L 13.005763 10.44305  L 13.005763 15.12  L 2.818983 15.12  L 2.818983 10.44305  L 0 10.44305  L 0 4.847796  L 3.737288 4.847796  L 3.737288 2.050169  Q 3.182034 1.857966 3.139322 1.067797  Q 3.20339 0.064068 4.249831 0  Q 5.317627 0.064068 5.381695 1.067797  Q 5.338983 1.857966 4.762373 2.050169  L 4.762373 4.847796  L 11.062373 4.847796  Z  M 12.087458 14.180339  L 12.087458 9.524746  L 14.906441 9.524746  L 14.906441 5.787457  L 0.918305 5.787457  L 0.918305 9.524746  L 3.737288 9.524746  L 3.737288 14.180339  L 12.087458 14.180339  Z "
     id="path5992" />
</svg>
