<?xml version="1.0" encoding ="US-ASCII" standalone="yes"?>
<svg width="15.730163" height="17.977417">
<path style="fill:#000000; stroke:none" d=" M 7.700468 10.495817  L 7.700468 15.230773  Q 9.259057 15.802914 10.876834 15.941016  L 10.876834 9.805304  Q 9.259057 9.943406 7.700468 10.495817  Z  M 14.881817 10.495817  Q 13.303498 9.943406 11.705451 9.805304  L 11.705451 15.941016  Q 13.303498 15.802914 14.881817 15.230773  L 14.881817 10.495817  Z  M 3.498195 11.580912  Q 4.149251 11.679557 4.839766 12.527903  Q 5.53028 13.376248 5.471093 14.047034  Q 5.431635 14.441614 5.037055 14.441614  Q 4.36627 14.382427 3.626433 13.573539  Q 2.886596 12.76465 2.886596 12.093865  Q 2.945783 11.561183 3.498195 11.580912  Z  M 3.498195 12.19251  Q 3.39955 12.646276 4.040742 13.326926  Q 4.681934 14.007576 4.997597 13.92866  Q 5.115971 13.632726 4.543831 12.902753  Q 3.97169 12.172781 3.498195 12.19251  Z  M 1.702858 13.652454  Q 2.373643 13.593267 3.251583 14.244324  Q 4.129522 14.89538 4.247896 15.546436  Q 4.307083 15.941016 3.932232 16.039661  Q 3.281176 16.158035 2.353914 15.566166  Q 1.426652 14.974297 1.249091 14.32324  Q 1.170175 13.770828 1.702858 13.652454  Z  M 1.880418 14.264053  Q 1.900147 14.717819 2.689307 15.220908  Q 3.478466 15.723997 3.754672 15.566166  Q 3.79413 15.250502 3.054293 14.678362  Q 2.314456 14.106221 1.880418 14.264053  Z  M 0.381016 15.941016  Q 1.012343 15.763455 1.998792 16.246815  Q 2.985241 16.730175 3.20226 17.361504  Q 3.320634 17.736353 2.965512 17.894186  Q 2.334185 18.130934 1.328007 17.696896  Q 0.321829 17.262857 0.045623 16.65126  Q -0.131938 16.138306 0.381016 15.941016  Z  M 0.637493 16.493427  Q 0.736138 16.947195 1.604213 17.302317  Q 2.472288 17.657438 2.728765 17.460148  Q 2.709036 17.124756 1.880418 16.700583  Q 1.051801 16.276409 0.637493 16.493427  Z  M 9.831198 0.532682  Q 9.98903 1.124552 10.344151 1.341571  L 10.640086 1.16401  Q 10.324422 0.907533 10.127132 0.414309  L 9.831198 0.532682  Z  M 11.72518 8.996415  L 11.72518 2.367478  L 10.778189 1.459945  L 10.304693 1.755879  Q 9.574721 1.144281 9.515534 0.729972  Q 9.436618 0.868075 9.436618 1.045636  Q 9.436618 1.696692 10.857104 2.742328  L 10.857104 8.996415  Q 11.310871 8.956957 11.72518 8.996415  Z  M 12.178946 9.035873  Q 13.599433 9.114789 15.217209 9.805304  Q 15.730163 9.963135 15.730163 10.693108  L 15.730163 15.033484  Q 15.730163 15.783184 15.19748 15.941016  Q 13.303498 16.749905 11.291142 16.749905  L 11.291142 16.749905  Q 9.259057 16.749905 7.365075 15.941016  Q 6.852121 15.783184 6.852121 15.033484  L 6.852121 10.693108  Q 6.852121 9.963135 7.365075 9.805304  Q 8.943394 9.114789 10.442796 9.016144  L 10.442796 2.939618  Q 8.963122 1.716421 8.963122 1.045636  Q 8.963122 0.552411 9.614179 0.19729  Q 10.048217 0 10.304693 0  Q 10.620357 0.76943 12.178946 2.150459  L 12.178946 9.035873  Z "/></svg>
