<?xml version="1.0" encoding ="US-ASCII" standalone="yes"?>
<svg width="17.770565" height="12.24">
<path style="fill:#000000; stroke:none" d=" M 14.348392 11.482756  L 14.348392 10.910204  L 11.670336 9.063268  L 10.672989 10.854796  Q 10.599112 11.35347 11.005438 11.519694  L 14.348392 11.482756  Z  M 1.992383 1.657049  Q 1.475241 0.881335 1.068915 0.678172  Q 0.717997 0.770519 0.736466 1.213784  Q 0.884221 1.490825 1.992383 1.657049  Z  M 13.129414 9.192554  L 15.013289 4.556741  Q 15.216452 3.96572 15.927524 3.577863  Q 16.638594 3.190006 16.657063 3.522455  Q 16.712473 3.836435 16.223032 4.048832  Q 15.733595 4.26123 15.548902 4.796842  L 13.628086 9.469594  L 14.422269 10.023676  L 16.121452 5.905005  Q 16.324615 5.332454 17.035686 4.944598  Q 17.746756 4.556741 17.765226 4.88919  Q 17.820637 5.184699 17.331196 5.397097  Q 16.841759 5.609495 16.657063 6.145107  L 14.902473 10.356123  Q 15.308799 10.577757 15.548902 11.205715  Q 15.659718 11.944489 15.142576 12.24  L 8.530541 12.24  Q 6.258809 12.276938 6.203401 11.612041  Q 6.111053 11.224185 6.702073 11.261122  Q 9.49095 11.150307 9.915745 10.485409  L 10.968499 8.69388  Q 3.137485 2.728273 2.306363 2.303477  Q -0.741084 1.62011 0.237793 0.401132  Q 1.179731 -0.817847 2.601873 1.657049  Q 3.396055 2.414294 7.052991 5.036944  Q 10.118908 7.031635 13.129414 9.192554  Z "/></svg>
