<?xml version="1.0" encoding="UTF-8" standalone="no"?>
<svg
   xmlns:dc="http://purl.org/dc/elements/1.1/"
   xmlns:cc="http://web.resource.org/cc/"
   xmlns:rdf="http://www.w3.org/1999/02/22-rdf-syntax-ns#"
   xmlns:svg="http://www.w3.org/2000/svg"
   xmlns="http://www.w3.org/2000/svg"
   xmlns:sodipodi="http://inkscape.sourceforge.net/DTD/sodipodi-0.dtd"
   xmlns:inkscape="http://www.inkscape.org/namespaces/inkscape"
   width="21.734772"
   height="12.24"
   id="svg3884"
   sodipodi:version="0.32"
   inkscape:version="0.43"
   sodipodi:docname="US22U15B.svg"
   sodipodi:docbase="C:\Program Files\JSesh\fonts\envoi25_SR">
  <metadata
     id="metadata3891">
    <rdf:RDF>
      <cc:Work
         rdf:about="">
        <dc:format>image/svg+xml</dc:format>
        <dc:type
           rdf:resource="http://purl.org/dc/dcmitype/StillImage" />
        <dc:creator>
          <cc:Agent>
            <dc:title>Serge Thomas</dc:title>
          </cc:Agent>
        </dc:creator>
        <dc:description>d'aprés la stèle d'Antef( C26 ) du musée du louvre</dc:description>
        <cc:license
           rdf:resource="http://creativecommons.org/licenses/GPL/2.0/" />
        <dc:title>US22U15B</dc:title>
        <dc:date>03/04/06</dc:date>
        <dc:publisher>
          <cc:Agent>
            <dc:title>Serge Rosmorduc</dc:title>
          </cc:Agent>
        </dc:publisher>
      </cc:Work>
      <cc:License
         rdf:about="http://creativecommons.org/licenses/GPL/2.0/">
        <cc:permits
           rdf:resource="http://web.resource.org/cc/Reproduction" />
        <cc:permits
           rdf:resource="http://web.resource.org/cc/Distribution" />
        <cc:requires
           rdf:resource="http://web.resource.org/cc/Notice" />
        <cc:permits
           rdf:resource="http://web.resource.org/cc/DerivativeWorks" />
        <cc:requires
           rdf:resource="http://web.resource.org/cc/ShareAlike" />
        <cc:requires
           rdf:resource="http://web.resource.org/cc/SourceCode" />
      </cc:License>
    </rdf:RDF>
  </metadata>
  <defs
     id="defs3889" />
  <sodipodi:namedview
     inkscape:window-height="542"
     inkscape:window-width="811"
     inkscape:pageshadow="2"
     inkscape:pageopacity="0.0"
     borderopacity="1.0"
     bordercolor="#666666"
     pagecolor="#ffffff"
     id="base"
     inkscape:zoom="30.473857"
     inkscape:cx="10.867386"
     inkscape:cy="6.1199999"
     inkscape:window-x="44"
     inkscape:window-y="58"
     inkscape:current-layer="svg3884" />
  <path
     style="fill:#000000; stroke:none"
     d=" M 8.269511 4.0172  L 6.007279 4.053109  L 6.043186 6.028074  L 8.305422 6.063982  L 8.269511 4.0172  Z  M 15.989824 4.089017  L 15.989824 6.099891  L 17.749342 6.1358  L 17.749342 4.089017  Z  M 9.346765 3.981293  L 9.310859 6.063982  L 15.128021 6.1358  L 15.163931 4.053109  L 9.346765 3.981293  Z  M 3.519545 7.762997  C 1.649067 9.455737 1.725243 10.344425 1.437477 11.114625  C 1.379399 11.467559 1.533554 11.636555 1.698293 11.636555  C 1.845657 11.636555 2.001489 11.501332 2.021471 11.24158  C 2.021471 11.24158 2.45312 9.692722 3.519545 7.762997  Z  M 2.197601 0  C 2.228294 0 2.260246 0.002673 2.29335 0.008215  C 2.447073 0.033953 2.626213 0.121701 2.820813 0.291521  L 2.821656 0.292255  L 2.822416 0.29307  C 3.135037 0.627462 3.515743 1.173763 3.978789 1.696898  C 4.438468 2.216227 4.979507 2.713059 5.616446 2.95388  L 5.616446 2.95388  C 10.965516 3.025628 16.314592 2.989754 21.663666 3.061554  L 21.686138 3.061829  L 21.685383 3.084324  C 21.673412 3.44341 21.697351 3.730676 21.685383 4.08976  L 21.68465 4.11131  L 21.663094 4.111045  C 20.736902 4.09917 19.775375 4.087297 18.848623 4.075422  L 18.848623 4.075422  C 18.848623 4.68723 18.848623 5.466105 18.848623 6.07786  L 21.591543 6.07786  C 21.607859 6.07786 21.622984 6.083669 21.636269 6.09451  C 21.647865 6.103979 21.658163 6.117423 21.66715 6.134232  C 21.68343 6.164669 21.696096 6.207446 21.705769 6.258439  C 21.724527 6.357296 21.732506 6.488601 21.734772 6.620026  C 21.739279 6.880917 21.721333 7.14149 21.721247 7.142756  L 21.719831 7.163714  L 21.698801 7.16326  C 20.335814 7.133886 18.955524 7.123977 17.566425 7.123977  C 14.68438 7.123977 11.764413 7.166637 8.882362 7.166637  C 7.493272 7.166637 6.112988 7.156726 4.75001 7.127352  L 4.733593 7.126999  L 4.733593 7.126999  C 4.715568 7.141388 4.689207 7.168143 4.656341 7.204768  C 4.588066 7.280858 4.493032 7.398265 4.386383 7.536236  C 4.172969 7.812333 3.913272 8.170516 3.728047 8.445295  L 3.728047 8.445295  C 3.707806 8.483514 3.113348 9.611728 2.724939 11.025192  C 2.528867 11.73873 2.14683 12.040532 1.811697 12.162566  C 1.640896 12.224756 1.482953 12.24 1.36916 12.24  C 1.261589 12.24 1.193467 12.226381 1.191217 12.225926  L 1.183337 12.224348  L 1.178328 12.218066  C 0.868773 11.829616 0.83007 11.314384 0.99278 10.696053  C 1.154281 10.082339 1.514202 9.365192 2.002651 8.566077  C 2.182655 8.271581 2.648591 7.820863 3.070049 7.443523  C 3.424706 7.125988 3.747284 6.860768 3.839712 6.785415  L 3.839712 6.785415  C 2.574767 6.144545 1.69029 5.594643 1.092126 5.134392  C 0.487239 4.668964 0.173834 4.293957 0.055726 4.008347  C -0.065089 3.716171 0.01655 3.512314 0.201665 3.403013  C 0.308482 3.339944 0.449848 3.308531 0.605583 3.308531  C 0.713357 3.308531 0.828014 3.323575 0.942858 3.353585  L 0.949575 3.355344  L 0.954069 3.360635  C 2.287987 4.93197 3.036036 5.293757 4.945939 5.910724  L 4.945939 5.910724  C 4.987755 5.274475 4.862717 4.119087 4.907057 3.490669  L 4.907057 3.490669  C 3.971569 2.943319 2.788584 2.018782 1.881086 0.917684  L 1.879924 0.916272  L 1.879011 0.914688  C 1.690571 0.588363 1.728078 0.260718 1.913145 0.100663  C 1.986838 0.036931 2.083511 0 2.197601 0  Z "
     id="path3886" />
</svg>
