<?xml version="1.0" encoding ="US-ASCII" standalone="yes"?>
<svg width="20.177073" height="13.680923">
<path style="fill:#000000; stroke:none" d=" M 20.177073 11.894779  L 7.126874 11.894779  Q 6.489703 13.263516 5.793536 13.570303  Q 5.097366 13.877088 4.295002 13.334313  Q 3.587036 12.626346 3.775827 11.894779  Q 3.964619 11.163209 5.050169 10.384446  L 4.15341 6.655818  Q 3.870223 6.18384 3.138657 6.278235  L 1.061951 6.278235  Q 0.165192 5.782657 0 4.767903  L 4.247806 3.611557  Q 4.648987 3.304771 4.743382 1.947833  Q 4.837778 0.590895 5.262559 0.142515  Q 5.946929 0.071719 6.112121 2.950787  Q 6.418907 1.747242 6.466105 0.968478  Q 6.513303 0.189713 6.749291 0.000922  Q 7.032478 -0.022677 7.233069 0.272309  Q 7.433661 0.567296 7.634251 1.121871  Q 7.834842 1.676445 7.752245 2.950787  Q 7.669649 4.225129 6.938083 5.806257  L 7.811244 8.567328  L 9.557563 8.567328  L 9.557563 6.585021  L 16.660835 6.585021  L 16.660835 8.567328  L 20.177073 8.567328  L 20.177073 9.346094  L 17.769985 9.346094  L 17.769985 11.13961  L 20.177073 11.13961  L 20.177073 11.894779  Z  M 16.967625 11.13961  L 16.967625 9.346094  L 14.560534 9.346094  L 14.560534 11.13961  L 16.967625 11.13961  Z  M 15.882072 8.590927  L 15.882072 7.363786  L 10.312727 7.363786  L 10.312727 8.567328  L 15.882072 8.590927  Z  M 5.333356 0.756087  L 5.120964 3.399166  L 5.640142 3.163177  Q 5.687339 2.455209 5.333356 0.756087  Z  M 13.805369 11.13961  L 13.805369 9.346094  L 11.351079 9.346094  L 11.351079 11.13961  L 13.805369 11.13961  Z  M 10.595915 11.13961  L 10.595915 9.346094  L 9.156381 9.346094  L 9.156381 11.13961  L 10.595915 11.13961  Z  M 6.867286 0.732488  Q 6.890885 2.43161 6.607698 3.163177  Q 6.418907 3.635156 5.510348 3.918343  Q 4.601789 4.201529 0.920358 5.216282  L 1.415935 5.641064  L 3.209454 5.641064  Q 4.247806 5.617465 4.79058 6.207438  L 5.640142 9.605681  L 7.150474 8.944912  L 6.041324 5.357876  Q 7.740447 3.163177 6.867286 0.732488  Z  M 8.377616 9.369695  L 7.551655 11.13961  L 8.377616 11.13961  L 8.377616 9.369695  Z  M 7.646051 9.322494  L 6.064923 10.408044  L 6.796489 11.021618  L 7.646051 9.322494  Z  M 4.79058 12.720741  Q 5.781735 12.933131 6.348111 11.587994  L 5.616543 10.974419  Q 4.365799 11.753185 4.79058 12.720741  Z  M 5.946929 4.555512  Q 5.073768 5.239882 4.57819 5.121886  Q 3.870223 4.815101 4.554591 4.484716  Q 4.766981 4.272326 5.946929 4.555512  Z "/></svg>
