<?xml version="1.0" encoding ="US-ASCII" standalone="yes"?>
<svg width="17.541212" height="12.48">
<path style="fill:#000000; stroke:none" d=" M 12.306968 3.222738  L 12.523258 2.422461  L 1.881733 0.865165  L 8.089289 10.01428  L 9.214005 10.01428  L 3.309254 1.795216  L 12.306968 3.222738  Z  M 16.892336 11.831127  L 16.892336 10.684782  L 0.648874 10.684782  L 0.648874 11.831127  L 16.892336 11.831127  Z  M 0.540728 12.48  Q 0 12.501627 0 12.306968  L 0 10.273831  Q 0 10.01428 0.540728 10.01428  L 7.159236 10.01428  L 0.540728 0  L 13.388422 1.903362  L 12.890953 3.936499  L 4.736776 2.638752  L 10.165683 10.01428  L 17.000484 10.01428  Q 17.541212 10.01428 17.541212 10.273831  L 17.541212 12.306968  Q 17.541212 12.501627 17.000484 12.48  L 0.540728 12.48  Z "/></svg>
