<?xml version="1.0" encoding="UTF-8" standalone="no"?>
<svg
   xmlns:dc="http://purl.org/dc/elements/1.1/"
   xmlns:cc="http://web.resource.org/cc/"
   xmlns:rdf="http://www.w3.org/1999/02/22-rdf-syntax-ns#"
   xmlns:svg="http://www.w3.org/2000/svg"
   xmlns="http://www.w3.org/2000/svg"
   xmlns:sodipodi="http://inkscape.sourceforge.net/DTD/sodipodi-0.dtd"
   xmlns:inkscape="http://www.inkscape.org/namespaces/inkscape"
   width="15.78125"
   height="8.359375"
   id="svg1333"
   sodipodi:version="0.32"
   inkscape:version="0.43"
   sodipodi:docname="US22U21B.svg"
   sodipodi:docbase="C:\Program Files\JSesh\fonts\envoi21_SR">
  <metadata
     id="metadata1340">
    <rdf:RDF>
      <cc:Work
         rdf:about="">
        <dc:format>image/svg+xml</dc:format>
        <dc:type
           rdf:resource="http://purl.org/dc/dcmitype/StillImage" />
        <dc:title>US22U21B</dc:title>
        <dc:date>05/02/2006</dc:date>
        <dc:creator>
          <cc:Agent>
            <dc:title>Serge Thomas</dc:title>
          </cc:Agent>
        </dc:creator>
        <dc:publisher>
          <cc:Agent>
            <dc:title>Serge Rosmorduc</dc:title>
          </cc:Agent>
        </dc:publisher>
        <dc:description>exemple ramessides sur un grand nombres de clichés personnels de Karnak. Valeur : stp</dc:description>
        <cc:license
           rdf:resource="http://creativecommons.org/licenses/GPL/2.0/" />
      </cc:Work>
      <cc:License
         rdf:about="http://creativecommons.org/licenses/GPL/2.0/">
        <cc:permits
           rdf:resource="http://web.resource.org/cc/Reproduction" />
        <cc:permits
           rdf:resource="http://web.resource.org/cc/Distribution" />
        <cc:requires
           rdf:resource="http://web.resource.org/cc/Notice" />
        <cc:permits
           rdf:resource="http://web.resource.org/cc/DerivativeWorks" />
        <cc:requires
           rdf:resource="http://web.resource.org/cc/ShareAlike" />
        <cc:requires
           rdf:resource="http://web.resource.org/cc/SourceCode" />
      </cc:License>
    </rdf:RDF>
  </metadata>
  <defs
     id="defs1338" />
  <sodipodi:namedview
     inkscape:window-height="708"
     inkscape:window-width="1024"
     inkscape:pageshadow="2"
     inkscape:pageopacity="0.0"
     borderopacity="1.0"
     bordercolor="#666666"
     pagecolor="#ffffff"
     id="base"
     inkscape:zoom="63.103002"
     inkscape:cx="4.6561037"
     inkscape:cy="4.1796875"
     inkscape:window-x="-4"
     inkscape:window-y="-4"
     inkscape:current-layer="svg1333"
     showguides="true"
     inkscape:guide-bbox="true">
    <sodipodi:guide
       orientation="vertical"
       position="-0.67233579"
       id="guide1334" />
  </sodipodi:namedview>
  <path
     style="fill:#000000; stroke:none"
     d="M 1.740625,4.1875 L 1.740625,6.390625 L 0.803125,6.390625 L 0.803125,2.875 L 1.671875,2.875 L 1.671875,0 L 5.125,0 C 5.4583333,2.1458333 5.9375,3.5442707 6.5625,4.195312 C 7.1875,4.846354 7.8984373,5.2994793 8.695312,5.554688 C 9.4921873,5.809896 10.554687,5.984375 11.882812,6.078125 C 13.210937,6.171875 14.119792,6.4010417 14.609375,6.765625 C 15.098958,7.1302083 15.489583,7.6614583 15.78125,8.359375 L 13.875,8.359375 C 13.875,8.0885417 13.630208,7.8203127 13.140625,7.554688 C 12.651042,7.2890627 11.625,7.0833333 10.0625,6.9375 C 8.5,6.7916667 7.1875,6.2630207 6.125,5.351562 C 5.0625,4.440104 4.4114583,3.046875 4.171875,1.171875 L 2.828125,1.171875 L 2.828125,4.1875 L 1.740625,4.1875 z M -0.65,6.3125 L 0.1,6.3125 C 0.31875,6.6979167 0.566146,6.9479167 0.842188,7.0625 C 1.1182293,7.1770833 1.396875,7.1770833 1.678125,7.0625 C 1.959375,6.9479167 2.209375,6.6979167 2.428125,6.3125 L 3.178125,6.3125 L 3.178125,8.046875 L -0.65,8.046875 L -0.65,6.3125 z "
     id="path1335"
     sodipodi:nodetypes="cccccccssssccsssccccccssccccc" />
</svg>
