<?xml version="1.0" encoding ="US-ASCII" standalone="yes"?>
<svg width="5.939311" height="17.977417">
<path style="fill:#000000; stroke:none" d=" M 4.836804 5.316372  L 0.853554 5.316372  Q 1.387025 4.231647 2.845179 4.231647  Q 4.303333 4.231647 4.836804 5.316372  Z  M 3.752079 15.452321  Q 4.178856 15.630144 4.178856 16.110268  L 3.325303 16.110268  Q 3.325303 15.630144 3.752079 15.452321  Z  M 4.178856 16.679304  Q 4.178856 17.01717 3.752079 17.337252  Q 3.325303 16.999388 3.325303 16.679304  L 4.178856 16.679304  Z  M 3.37865 14.812156  Q 2.685137 15.416757 2.70292 16.110268  L 1.529284 16.110268  L 1.529284 16.679304  L 2.70292 16.679304  Q 2.70292 17.6929 3.752079 17.977417  Q 4.801239 17.6929 4.801239 16.679304  L 5.939311 16.679304  L 5.939311 16.110268  L 4.801239 16.110268  Q 4.801239 15.416757 4.107727 14.812156  L 4.107727 5.867625  L 5.690357 5.867625  Q 4.996845 3.715959 3.30752 3.64483  Q 3.360867 3.2714 3.583147 2.906861  Q 3.805426 2.542323 4.161074 2.124437  Q 4.516721 1.706552 4.525612 1.199754  Q 4.534503 0.692957 4.330006 0.399548  Q 4.125509 0.106138 3.947685 0.017227  Q 3.449779 -0.089468 3.627603 0.408439  Q 3.947685 0.675174 3.974359 1.101951  Q 4.001032 1.528728 3.467561 2.115546  Q 2.934091 2.702364 2.791831 3.102467  Q 2.649573 3.502571 2.649573 3.64483  Q 0.569036 3.715959 0 5.867625  L 1.600413 5.867625  L 1.600413 9.121799  L 2.311708 9.121799  L 2.311708 5.867625  L 3.37865 5.867625  L 3.37865 14.812156  Z "/></svg>
