<?xml version="1.0" encoding="UTF-8" standalone="no"?>
<svg
   xmlns:dc="http://purl.org/dc/elements/1.1/"
   xmlns:cc="http://creativecommons.org/ns#"
   xmlns:rdf="http://www.w3.org/1999/02/22-rdf-syntax-ns#"
   xmlns:svg="http://www.w3.org/2000/svg"
   xmlns="http://www.w3.org/2000/svg"
   xmlns:sodipodi="http://sodipodi.sourceforge.net/DTD/sodipodi-0.dtd"
   xmlns:inkscape="http://www.inkscape.org/namespaces/inkscape"
   width="7.25"
   height="17.98"
   id="svg2476"
   sodipodi:version="0.32"
   inkscape:version="0.46"
   sodipodi:docname="U24D.svg"
   inkscape:output_extension="org.inkscape.output.svg.inkscape">
  <metadata
     id="metadata2483">
    <rdf:RDF>
      <cc:Work
         rdf:about="">
        <dc:format>image/svg+xml</dc:format>
        <dc:type
           rdf:resource="http://purl.org/dc/dcmitype/StillImage" />
      </cc:Work>
    </rdf:RDF>
  </metadata>
  <defs
     id="defs2481">
    <inkscape:perspective
       sodipodi:type="inkscape:persp3d"
       inkscape:vp_x="0 : 8.9899998 : 1"
       inkscape:vp_y="0 : 1000 : 0"
       inkscape:vp_z="7.25 : 8.9899998 : 1"
       inkscape:persp3d-origin="3.625 : 5.9933332 : 1"
       id="perspective2485" />
  </defs>
  <sodipodi:namedview
     inkscape:window-height="667"
     inkscape:window-width="640"
     inkscape:pageshadow="2"
     inkscape:pageopacity="0.0"
     guidetolerance="10.0"
     gridtolerance="10.0"
     objecttolerance="10.0"
     borderopacity="1.0"
     bordercolor="#666666"
     pagecolor="#ffffff"
     id="base"
     showgrid="false"
     inkscape:zoom="25.695218"
     inkscape:cx="3.625"
     inkscape:cy="8.9899998"
     inkscape:window-x="44"
     inkscape:window-y="58"
     inkscape:current-layer="svg2476" />
  <path
     style="fill:#000000; stroke:none"
     d="M 1.72,4.93 L 6.36,4.93 C 5.9533333,3.6633333 5.1766667,3.03 4.03,3.03 C 2.8966667,3.03 2.1266667,3.6633333 1.72,4.93 z M 4.25,2.38 L 4.46,0.7 C 4.4466667,0.54 4.3033333,0.46333333 4.03,0.47 C 3.75,0.48333333 3.61,0.56 3.61,0.7 L 3.81,2.38 L 4.25,2.38 z M 7.25,5.53 L 4.51,5.53 L 4.51,14.02 L 6.19,14.02 L 6.19,14.99 L 5.19,14.99 C 5.4633333,15.183333 5.6,15.596667 5.6,16.23 C 5.6,17.25 5.0933333,17.833333 4.08,17.98 C 2.98,17.9 2.43,17.316667 2.43,16.23 L 2.43,16.23 C 2.43,15.63 2.5566667,15.216667 2.81,14.99 L 1.84,14.99 L 1.84,14.02 L 3.54,14.02 L 3.54,5.53 L 0.82,5.53 C 0.96666667,4.7566667 1.1633333,4.1833333 1.41,3.81 C 0.48333333,2.71 0.013333333,1.9566667 0,1.55 C 0,0.63 0.36333333,0.17 1.09,0.17 C 1.93,0.17 2.35,0.57333333 2.35,1.38 C 2.35,1.74 2.3033333,1.9766667 2.21,2.09 L 1.6,1.84 C 1.6466667,1.68 1.67,1.5033333 1.67,1.31 C 1.67,1.0033333 1.4933333,0.85 1.14,0.85 C 0.86666667,0.85 0.73,1.02 0.73,1.36 C 0.74333333,1.8133333 1.1066667,2.4366667 1.82,3.23 C 2.2733333,2.7233333 2.8066667,2.44 3.42,2.38 L 3.11,0.22 C 3.4433333,0.073333333 3.75,0 4.03,0 C 4.3033333,0 4.61,0.073333333 4.95,0.22 L 4.63,2.38 C 5.91,2.44 6.7833333,3.49 7.25,5.53 z"
     id="path2478"
     sodipodi:nodetypes="ccscccscccccccccscccccccccccssccssscccsccc" />
</svg>
