<?xml version="1.0" encoding="UTF-8" standalone="no"?>
<svg
   xmlns:dc="http://purl.org/dc/elements/1.1/"
   xmlns:cc="http://creativecommons.org/ns#"
   xmlns:rdf="http://www.w3.org/1999/02/22-rdf-syntax-ns#"
   xmlns:svg="http://www.w3.org/2000/svg"
   xmlns="http://www.w3.org/2000/svg"
   xmlns:sodipodi="http://sodipodi.sourceforge.net/DTD/sodipodi-0.dtd"
   xmlns:inkscape="http://www.inkscape.org/namespaces/inkscape"
   width="7.07"
   height="17.98"
   id="svg2518"
   sodipodi:version="0.32"
   inkscape:version="0.46"
   sodipodi:docname="U24J.svg"
   inkscape:output_extension="org.inkscape.output.svg.inkscape">
  <metadata
     id="metadata2525">
    <rdf:RDF>
      <cc:Work
         rdf:about="">
        <dc:format>image/svg+xml</dc:format>
        <dc:type
           rdf:resource="http://purl.org/dc/dcmitype/StillImage" />
      </cc:Work>
    </rdf:RDF>
  </metadata>
  <defs
     id="defs2523">
    <inkscape:perspective
       sodipodi:type="inkscape:persp3d"
       inkscape:vp_x="0 : 8.9899998 : 1"
       inkscape:vp_y="0 : 1000 : 0"
       inkscape:vp_z="7.0700002 : 8.9899998 : 1"
       inkscape:persp3d-origin="3.5350001 : 5.9933332 : 1"
       id="perspective2527" />
  </defs>
  <sodipodi:namedview
     inkscape:window-height="667"
     inkscape:window-width="640"
     inkscape:pageshadow="2"
     inkscape:pageopacity="0.0"
     guidetolerance="10.0"
     gridtolerance="10.0"
     objecttolerance="10.0"
     borderopacity="1.0"
     bordercolor="#666666"
     pagecolor="#ffffff"
     id="base"
     showgrid="false"
     inkscape:zoom="25.695218"
     inkscape:cx="3.5350001"
     inkscape:cy="8.9899998"
     inkscape:window-x="95"
     inkscape:window-y="95"
     inkscape:current-layer="svg2518" />
  <path
     style="fill:#000000; stroke:none"
     d="M 0.89,2.44 L 6.2,2.44 C 5.8133333,1.22 4.93,0.61 3.55,0.61 C 2.17,0.61 1.2833333,1.22 0.89,2.44 z M 5.64,14.15 L 5.64,15.09 L 4.68,15.09 C 4.9266667,15.29 5.05,15.696667 5.05,16.31 C 5.05,17.296667 4.5566667,17.853333 3.57,17.98 C 2.5033333,17.9 1.98,17.343333 2,16.31 L 2,16.29 C 2,15.71 2.1233333,15.31 2.37,15.09 L 1.43,15.09 L 1.43,14.15 L 3.08,14.15 L 3.08,3.06 L 0,3.06 C 0.40666667,1.02 1.59,0 3.55,0 C 5.51,0 6.6833333,1.02 7.07,3.06 L 4.02,3.06 L 4.02,14.15 L 5.64,14.15 z"
     id="path2520"
     sodipodi:nodetypes="ccsccccscccccccccscccc" />
</svg>
