<?xml version="1.0" encoding="UTF-8" standalone="no"?>
<!-- Created with Inkscape (http://www.inkscape.org/) -->
<svg
   xmlns:dc="http://purl.org/dc/elements/1.1/"
   xmlns:cc="http://web.resource.org/cc/"
   xmlns:rdf="http://www.w3.org/1999/02/22-rdf-syntax-ns#"
   xmlns:svg="http://www.w3.org/2000/svg"
   xmlns="http://www.w3.org/2000/svg"
   xmlns:sodipodi="http://inkscape.sourceforge.net/DTD/sodipodi-0.dtd"
   xmlns:inkscape="http://www.inkscape.org/namespaces/inkscape"
   sodipodi:docname="U28.svg"
   sodipodi:docbase="/home/rosmord/Travail/Gsigns/Ramessides/Fontes"
   inkscape:version="0.41.1"
   sodipodi:version="0.32"
   id="svg1290"
   height="18.000000px"
   width="18.000000px">
  <defs
     id="defs3" />
  <sodipodi:namedview
     inkscape:window-y="269"
     inkscape:window-x="456"
     inkscape:window-height="541"
     inkscape:window-width="816"
     inkscape:current-layer="layer1"
     inkscape:document-units="px"
     inkscape:cy="12.868449"
     inkscape:cx="5.0860667"
     inkscape:zoom="13.704853"
     inkscape:pageshadow="2"
     inkscape:pageopacity="0.0"
     borderopacity="1.0"
     bordercolor="#666666"
     pagecolor="#ffffff"
     id="base" />
  <metadata
     id="metadata4">
    <rdf:RDF
       id="RDF5">
      <cc:Work
         id="Work6"
         rdf:about="">
        <dc:format
           id="format7">image/svg+xml</dc:format>
        <dc:type
           rdf:resource="http://purl.org/dc/dcmitype/StillImage"
           id="type9" />
        <cc:license
           rdf:resource="http://creativecommons.org/licenses/by/2.0/"
           id="license1300" />
        <dc:subject
           id="subject1316">
          <rdf:Bag
             id="Bag1318">
            <rdf:li
               id="li1350">JSesh hieroglyph</rdf:li>
          </rdf:Bag>
        </dc:subject>
        <dc:creator
           id="creator3369">
          <cc:Agent
             id="Agent3371">
            <dc:title
               id="title3373">Serge Rosmorduc</dc:title>
          </cc:Agent>
        </dc:creator>
        <dc:description
           id="description3375">Sign from Karnak Hypostyle Hall
</dc:description>
      </cc:Work>
      <cc:License
         id="License1302"
         rdf:about="http://creativecommons.org/licenses/by/2.0/">
        <cc:permits
           id="permits1304"
           rdf:resource="http://web.resource.org/cc/Reproduction" />
        <cc:permits
           id="permits1306"
           rdf:resource="http://web.resource.org/cc/Distribution" />
        <cc:requires
           id="requires1308"
           rdf:resource="http://web.resource.org/cc/Notice" />
        <cc:requires
           id="requires1310"
           rdf:resource="http://web.resource.org/cc/Attribution" />
        <cc:permits
           id="permits1312"
           rdf:resource="http://web.resource.org/cc/DerivativeWorks" />
        <cc:requires
           id="requires1314"
           rdf:resource="http://web.resource.org/cc/ShareAlike" />
      </cc:License>
    </rdf:RDF>
  </metadata>
  <g
     id="layer1"
     inkscape:groupmode="layer"
     inkscape:label="Layer 1">
    <path
       id="path1375"
       d="M 3.1250000 -0.31250000 C 3.0900834 -0.29777409 3.0582726 -0.27656687 3.0312500 -0.25000000 C 3.0074454 -0.23236648 2.9863835 -0.21130465 2.9687500 -0.18750000 C 2.9383676 -0.15133396 2.9169534 -0.10850551 2.9062500 -0.062500000 C 2.9020596 -0.035701672 2.9104446 0.0042661553 2.9062500 0.031250000 C 2.5455336 2.3517207 2.1746363 5.3398080 1.9062500 7.9687500 C 1.7704964 9.2985065 1.6586938 10.526692 1.5937500 11.531250 C 1.5288062 12.535808 1.4884980 13.306036 1.5312500 13.750000 C 1.6103823 14.571761 1.8606089 15.126584 2.1875000 15.468750 C 2.5143911 15.810916 2.9000320 15.937500 3.2187500 15.937500 C 3.5201668 15.937500 3.9315287 15.810065 4.2500000 15.468750 C 4.5684713 15.127435 4.7958680 14.571761 4.8750000 13.750000 C 4.9177520 13.306036 4.9086937 12.535808 4.8437500 11.531250 C 4.7788063 10.526692 4.6670035 9.2985065 4.5312500 7.9687500 C 4.2628610 5.3397784 3.8607191 2.3517314 3.5000000 0.031250000 C 3.4958094 0.0042924585 3.5041864 -0.035727618 3.5000000 -0.062500000 C 3.4948367 -0.095262458 3.4842769 -0.12694207 3.4687500 -0.15625000 C 3.4405824 -0.20952461 3.3970246 -0.25308236 3.3437500 -0.28125000 C 3.2774642 -0.31911656 3.1992370 -0.33029189 3.1250000 -0.31250000 z M 3.2187500 2.3750000 C 3.4745627 4.2425365 3.7463397 6.1587632 3.9375000 8.0312500 C 4.0727166 9.3557476 4.1545365 10.600487 4.2187500 11.593750 C 4.2829635 12.587013 4.3149108 13.337944 4.2812500 13.687500 C 4.2108497 14.418585 4.0172477 14.843066 3.8125000 15.062500 C 3.6077523 15.281934 3.3665230 15.312500 3.2187500 15.312500 C 3.0382900 15.312500 2.8338247 15.281083 2.6250000 15.062500 C 2.4161753 14.843917 2.1954006 14.418585 2.1250000 13.687500 C 2.0913392 13.337944 2.1232865 12.587013 2.1875000 11.593750 C 2.2517135 10.600487 2.3647833 9.3557476 2.5000000 8.0312500 C 2.6912537 6.1578500 2.9628026 4.2432546 3.2187500 2.3750000 z M -0.031250000 14.093750 C -0.066166568 14.108476 -0.097977401 14.129683 -0.12500000 14.156250 C -0.17777814 14.205445 -0.21106119 14.272011 -0.21875000 14.343750 C -0.21929285 14.354160 -0.21929285 14.364590 -0.21875000 14.375000 L -0.21875000 18.187500 C -0.22092584 18.208277 -0.22092584 18.229223 -0.21875000 18.250000 C -0.18313366 18.376716 -0.069084371 18.465421 0.062500000 18.468750 L 6.7500000 18.468750 C 6.7707765 18.470926 6.7917235 18.470926 6.8125000 18.468750 C 6.9392162 18.433134 7.0279212 18.319084 7.0312500 18.187500 L 7.0312500 14.375000 C 7.0300086 14.331562 7.0193461 14.288912 7.0000000 14.250000 C 6.9852741 14.215083 6.9640669 14.183273 6.9375000 14.156250 C 6.8838526 14.114838 6.8177651 14.092809 6.7500000 14.093750 C 6.3488028 14.093750 6.0066231 14.258387 5.7812500 14.500000 C 5.5558769 14.741613 5.4078097 15.042050 5.3125000 15.343750 C 5.2171903 15.645450 5.1845884 15.924470 5.1250000 16.187500 C 5.0654116 16.450530 4.9934951 16.688355 4.9375000 16.781250 C 4.9353802 16.784767 4.8565398 16.868286 4.7500000 16.937500 C 4.6434602 17.006714 4.5014739 17.059469 4.3437500 17.125000 C 4.0283022 17.256061 3.6496756 17.343750 3.4062500 17.343750 C 3.1628240 17.343750 2.7841977 17.256061 2.4687500 17.125000 C 2.3110262 17.059469 2.1690396 17.006714 2.0625000 16.937500 C 1.9559604 16.868286 1.8771197 16.784767 1.8750000 16.781250 C 1.8190048 16.688354 1.7783385 16.450530 1.7187500 16.187500 C 1.6591615 15.924470 1.5953097 15.645450 1.5000000 15.343750 C 1.4046903 15.042050 1.2566231 14.741613 1.0312500 14.500000 C 0.80587689 14.258387 0.46369720 14.093750 0.062500000 14.093750 C 0.031443060 14.088838 -0.00019306021 14.088838 -0.031250000 14.093750 z M 0.37500000 14.812500 C 0.43945528 14.847549 0.54016287 14.848801 0.59375000 14.906250 C 0.72312463 15.044947 0.82477567 15.242095 0.90625000 15.500000 C 0.98772433 15.757905 1.0627328 16.068896 1.1250000 16.343750 C 1.1872672 16.618604 1.2410325 16.871499 1.3750000 17.093750 C 1.4656235 17.244093 1.6029840 17.341991 1.7500000 17.437500 C 1.8970160 17.533009 2.0642621 17.610330 2.2500000 17.687500 C 2.5008102 17.791706 2.7647880 17.829783 3.0312500 17.875000 L 0.37500000 17.875000 L 0.37500000 14.812500 z M 6.4375000 14.812500 L 6.4375000 17.875000 L 3.7812500 17.875000 C 4.0477120 17.829783 4.3116898 17.791706 4.5625000 17.687500 C 4.7482379 17.610330 4.9467339 17.533009 5.0937500 17.437500 C 5.2407661 17.341991 5.3468764 17.244093 5.4375000 17.093750 C 5.5714674 16.871499 5.6252328 16.618604 5.6875000 16.343750 C 5.7497672 16.068896 5.8247757 15.757905 5.9062500 15.500000 C 5.9877243 15.242095 6.0893754 15.044947 6.2187500 14.906250 C 6.2723371 14.848801 6.3730447 14.847549 6.4375000 14.812500 z "
       style="fill:#000000;fill-opacity:1.0000000;fill-rule:nonzero;stroke:none;stroke-width:0.60000002;stroke-linecap:square;stroke-linejoin:round;stroke-miterlimit:4.0000000;stroke-opacity:1.0000000;display:inline" />
  </g>
</svg>
