<?xml version="1.0" encoding="UTF-8" standalone="no"?>
<svg
   xmlns:dc="http://purl.org/dc/elements/1.1/"
   xmlns:cc="http://creativecommons.org/ns#"
   xmlns:rdf="http://www.w3.org/1999/02/22-rdf-syntax-ns#"
   xmlns:svg="http://www.w3.org/2000/svg"
   xmlns="http://www.w3.org/2000/svg"
   xmlns:sodipodi="http://sodipodi.sourceforge.net/DTD/sodipodi-0.dtd"
   xmlns:inkscape="http://www.inkscape.org/namespaces/inkscape"
   width="21.28125"
   height="17.96875"
   id="svg2434"
   sodipodi:version="0.32"
   inkscape:version="0.46"
   sodipodi:docname="U35A.svg"
   inkscape:output_extension="org.inkscape.output.svg.inkscape"
   version="1.0">
  <metadata
     id="metadata2441">
    <rdf:RDF>
      <cc:Work
         rdf:about="">
        <dc:format>image/svg+xml</dc:format>
        <dc:type
           rdf:resource="http://purl.org/dc/dcmitype/StillImage" />
      </cc:Work>
    </rdf:RDF>
  </metadata>
  <defs
     id="defs2439">
    <inkscape:perspective
       sodipodi:type="inkscape:persp3d"
       inkscape:vp_x="0 : 8.9899998 : 1"
       inkscape:vp_y="0 : 1000 : 0"
       inkscape:vp_z="4.4400001 : 8.9899998 : 1"
       inkscape:persp3d-origin="2.22 : 5.9933332 : 1"
       id="perspective2443" />
  </defs>
  <sodipodi:namedview
     inkscape:window-height="667"
     inkscape:window-width="640"
     inkscape:pageshadow="2"
     inkscape:pageopacity="0.0"
     guidetolerance="10.0"
     gridtolerance="10.0"
     objecttolerance="10.0"
     borderopacity="1.0"
     bordercolor="#666666"
     pagecolor="#ffffff"
     id="base"
     showgrid="false"
     showguides="true"
     inkscape:guide-bbox="true"
     inkscape:zoom="25.562408"
     inkscape:cx="10.640625"
     inkscape:cy="8.984375"
     inkscape:window-x="22"
     inkscape:window-y="29"
     inkscape:current-layer="svg2434" />
  <path
     style="fill:#000000;stroke:none"
     d="M 10.59375,0 C 9.1070833,0 8.375,0.81083328 8.375,2.4375 L 9.8125,2.4375 L 9.8125,3.28125 L 8.71875,3.28125 C 8.71875,4.5821843 8.7833017,6.1521574 8.90625,7.84375 C 7.2045275,8.0478729 5.8047362,7.8981627 4.75,7.34375 C 3.9467926,6.9995186 3.1469572,6.670056 2.34375,6.375 C 2.9994293,5.8668486 3.2909798,5.4528399 3.25,5.125 C 3.2090206,4.7971606 3.0168739,4.6183381 2.65625,4.59375 C 2.2956266,4.569162 1.9676981,5.1040955 1.65625,6.21875 C 1.3611946,5.1040953 0.9605101,4.6321878 0.46875,4.8125 C -0.0066174,5.1075553 0.1655424,5.7234405 0.96875,6.625 C 0.3294626,7.0020153 -1.9999991e-07,7.4887803 9.0594199e-14,8.0625 C 9.0594199e-14,8.6198273 0.4867654,8.9180398 1.4375,9 C 2.4374113,8.737728 3.5369932,8.98111 4.75,9.71875 C 5.3414827,10.141238 6.8204893,10.223814 9.09375,9.96875 C 9.2989815,12.166968 9.5898611,14.59375 9.96875,17.34375 C 10.015417,17.76375 10.220417,17.96875 10.59375,17.96875 C 10.97375,17.96875 11.21,17.76375 11.25,17.34375 C 11.661519,14.380815 11.979199,11.759894 12.1875,9.4375 C 13.230778,9.3062206 14.26301,9.2952461 15.3125,9.40625 C 17.017266,9.5865613 18.333583,9.6132096 19.21875,9.53125 C 20.612068,9.498466 21.28125,9.3857381 21.28125,9.15625 C 20.904235,8.8120186 20.375963,8.5686359 19.6875,8.4375 C 18.228614,8.4375 16.821089,8.1792592 15.46875,7.6875 C 14.792581,7.44162 14.005554,7.316598 13.09375,7.3125 C 12.845739,7.3113853 12.577944,7.3582267 12.3125,7.375 C 12.414602,5.8724019 12.5,4.4620233 12.5,3.28125 L 11.375,3.28125 L 11.375,2.4375 L 12.8125,2.4375 C 12.8125,0.81083333 12.080417,-2.8218169e-18 10.59375,0 z M 10.59375,0.59375 C 11.57375,0.59375 12.0625,1.00375 12.0625,1.84375 L 9.125,1.84375 C 9.125,1.00375 9.61375,0.59375003 10.59375,0.59375 z M 10.25,2.4375 L 10.9375,2.4375 L 10.9375,3.28125 L 10.25,3.28125 L 10.25,2.4375 z M 9.34375,3.875 L 11.84375,3.875 C 11.84375,7.195 11.420417,11.667916 10.59375,17.28125 C 9.7670833,11.667917 9.34375,7.1949999 9.34375,3.875 z M 1.9375,7.09375 C 2.5276113,7.069162 3.4714252,7.4068203 4.75,8.0625 C 5.8482626,8.6034353 7.234268,8.7443457 8.90625,8.53125 C 8.9256626,8.5273017 8.9492978,8.5351785 8.96875,8.53125 C 8.9885985,8.7791979 9.0089184,8.9941622 9.03125,9.25 C 8.7945681,9.2779383 8.5967589,9.3166419 8.34375,9.34375 C 6.9668233,9.4912773 5.7663025,9.3191177 4.75,8.84375 C 3.5369933,8.1716786 2.3661888,8.001052 1.21875,8.3125 C 0.907302,8.279716 0.7484661,8.1239479 0.78125,7.8125 C 0.961562,7.3699166 1.3473888,7.1183379 1.9375,7.09375 z M 13,7.96875 C 13.709711,7.9573374 14.40642,8.0262971 15.09375,8.21875 C 16.118248,8.50561 16.926279,8.7074867 17.5,8.78125 C 18.073719,8.855014 18.958101,8.9180398 20.1875,9 C 19.384293,9.08196 18.614173,9.1249997 17.84375,9.125 C 17.073327,9.125 16.071615,9.0471156 14.875,8.875 C 13.882271,8.7322101 13.002763,8.7183686 12.21875,8.8125 C 12.242473,8.5287581 12.260725,8.2736623 12.28125,8 C 12.518558,7.9772542 12.76343,7.9725542 13,7.96875 z"
     id="path2495" />
</svg>
