<?xml version="1.0" encoding ="US-ASCII" standalone="yes"?>
<svg width="15.45826" height="12.48">
<path style="fill:#000000; stroke:none" d=" M 14.849497 0.179368  Q 15.45826 1.114255 15.45826 3.353638  Q 15.45826 6.071332 14.806012 6.897516  Q 13.718936 7.006224 12.436177 6.614876  Q 8.892302 5.875659 5.97893 6.397457  Q 5.935449 7.723694 6.402892 8.66945  Q 6.870339 9.615211 7.305169 10.45226  Q 7.740001 11.289309 8.805336 11.245826  Q 9.414099 11.441501 9.283648 12.006781  Q 9.1532 12.572061 8.392242 12.463354  Q 7.152978 11.57195 6.044156 10.006557  Q 4.935336 8.441162 4.543987 6.462681  Q 4.391796 5.8974 0.391348 5.17993  Q 0 5.114704 0 3.484088  Q 0 1.853469 0.239157 1.766503  Q 0.847922 1.418638 2.141544 1.114255  Q 3.435169 0.809873 4.761405 0.3533  Q 7.805225 0.853357 9.479326 0.853357  Q 11.740447 0.853357 12.414434 0.3533  Q 13.545003 -0.255463 14.849497 0.179368  Z  M 5.891965 5.419086  Q 10.588144 5.114704 14.023317 6.158299  Q 14.588597 6.158299 14.588597 5.440828  L 14.588597 1.527345  Q 14.545113 0.853357 14.045061 0.76639  Q 13.327587 0.744649 12.436177 1.146868  Q 11.544773 1.549087 9.087975 1.59257  Q 8.370502 1.59257 7.413877 1.45125  Q 6.457246 1.30993 4.739663 1.092514  Q 3.739551 1.505604 1.456685 2.136109  Q 0.978371 2.244817 0.956629 2.657907  L 0.956629 4.158074  Q 0.956629 4.50594 1.304494 4.571165  L 4.522247 5.353861  L 4.522247 3.853694  Q 4.522247 3.201446 5.207106 3.201446  Q 5.891965 3.201446 5.891965 3.810211  L 5.891965 5.419086  Z "/></svg>
