<?xml version="1.0" encoding="UTF-8" standalone="no"?>
<!-- Created with Inkscape (http://www.inkscape.org/) -->
<svg
   xmlns:dc="http://purl.org/dc/elements/1.1/"
   xmlns:cc="http://creativecommons.org/ns#"
   xmlns:rdf="http://www.w3.org/1999/02/22-rdf-syntax-ns#"
   xmlns:svg="http://www.w3.org/2000/svg"
   xmlns="http://www.w3.org/2000/svg"
   xmlns:sodipodi="http://sodipodi.sourceforge.net/DTD/sodipodi-0.dtd"
   xmlns:inkscape="http://www.inkscape.org/namespaces/inkscape"
   width="5.90625"
   height="17.96875"
   id="svg2445"
   sodipodi:version="0.32"
   inkscape:version="0.46"
   version="1.0"
   sodipodi:docname="U39H.svg"
   inkscape:output_extension="org.inkscape.output.svg.inkscape">
  <defs
     id="defs2447">
    <inkscape:perspective
       sodipodi:type="inkscape:persp3d"
       inkscape:vp_x="0 : 526.18109 : 1"
       inkscape:vp_y="0 : 1000 : 0"
       inkscape:vp_z="744.09448 : 526.18109 : 1"
       inkscape:persp3d-origin="372.04724 : 350.78739 : 1"
       id="perspective2453" />
  </defs>
  <sodipodi:namedview
     id="base"
     pagecolor="#ffffff"
     bordercolor="#666666"
     borderopacity="1.0"
     inkscape:pageopacity="0.0"
     inkscape:pageshadow="2"
     inkscape:zoom="27.993043"
     inkscape:cx="4.859375"
     inkscape:cy="8.9956055"
     inkscape:document-units="px"
     inkscape:current-layer="layer1"
     showgrid="false"
     showguides="true"
     inkscape:guide-bbox="true"
     inkscape:window-width="1024"
     inkscape:window-height="708"
     inkscape:window-x="-4"
     inkscape:window-y="-4" />
  <metadata
     id="metadata2450">
    <rdf:RDF>
      <cc:Work
         rdf:about="">
        <dc:format>image/svg+xml</dc:format>
        <dc:type
           rdf:resource="http://purl.org/dc/dcmitype/StillImage" />
      </cc:Work>
    </rdf:RDF>
  </metadata>
  <g
     inkscape:label="Calque 1"
     inkscape:groupmode="layer"
     id="layer1"
     transform="translate(-1.90625,0)">
    <path
       style="fill:#000000;stroke:none"
       d="M 6.59375,0 L 6.59375,2.71875 L 3.76125,2.71875 L 3.75,5.875 L 2.625,5.875 L 2.625,6.15625 L 2.875,6.5625 C 2.775,6.5891667 2.6983334,6.7220835 2.625,6.96875 C 2.5516667,6.8954167 2.30625,6.8749999 1.90625,6.875 L 1.90625,7.40625 C 2.32625,7.6795833 2.5491667,7.9250003 2.5625,8.125 L 2.75,9.15625 C 2.8366667,9.71625 3.25125,10 4.03125,10 C 4.79125,10 5.2437501,9.7162504 5.34375,9.15625 L 5.5,8.125 C 5.5333333,7.925 5.7562499,7.6795832 6.15625,7.40625 L 6.15625,6.875 C 5.75625,6.875 5.5108332,6.8954169 5.4375,6.96875 C 5.3641667,6.7220833 5.2875002,6.5891668 5.1875,6.5625 L 5.4375,6.15625 L 5.4375,5.875 L 4.3125,5.875 L 4.3125,3.75 L 6.59375,3.75 L 6.59375,17.96875 L 7.8125,17.96875 L 7.6875,0 L 6.59375,0 z M 7.09375,0.4375 L 7.3125,0.4375 L 7.3125,17.59375 L 7.09375,17.59375 L 7.09375,0.4375 z M 4.3125,3.125 L 6.59375,3.125 L 6.59375,3.375 L 4.3125,3.375 L 4.3125,3.125 z M 3,6.1875 L 5.0625,6.1875 L 4.875,6.40625 C 4.3283333,6.2595833 3.7541666,6.2595835 3.1875,6.40625 L 3,6.1875 z M 4.03125,6.59375 C 4.69125,6.59375 5.0741669,6.8191665 5.1875,7.3125 C 5.1008333,8.5325 5.0016666,9.172083 4.875,9.21875 C 4.7616667,8.49875 4.4779167,8.1249997 4.03125,8.125 C 3.5845833,8.125 3.2895832,8.4987497 3.15625,9.21875 C 3.0295833,9.1720833 2.9304168,8.5324998 2.84375,7.3125 C 2.9704167,6.8191667 3.3645833,6.5937501 4.03125,6.59375 z M 4.03125,7.09375 C 3.5245833,7.09375 3.16875,7.2650001 2.96875,7.625 C 2.96875,7.7716667 3.0429166,7.8662499 3.15625,7.90625 C 3.3895833,7.5595833 3.67125,7.4062499 4.03125,7.40625 C 4.37125,7.40625 4.6729166,7.5595832 4.90625,7.90625 C 5.0329167,7.86625 5.0937498,7.7716668 5.09375,7.625 C 4.89375,7.265 4.53125,7.0937501 4.03125,7.09375 z M 2.1875,7.125 C 2.3741667,7.185 2.5158333,7.2570831 2.5625,7.34375 L 2.5625,7.46875 L 2.1875,7.21875 L 2.1875,7.125 z M 5.875,7.125 L 5.875,7.21875 L 5.5,7.46875 L 5.5,7.34375 C 5.5466667,7.2570833 5.6750001,7.1850001 5.875,7.125 z M 4.03125,8.375 C 4.3179167,8.375 4.5295835,8.730833 4.65625,9.4375 C 4.55625,9.5975 4.3445833,9.6562499 4.03125,9.65625 C 3.71125,9.65625 3.4883332,9.5974997 3.375,9.4375 C 3.515,8.7308333 3.7379167,8.3750001 4.03125,8.375 z"
       id="path2436"
       sodipodi:nodetypes="ccccccccccccscccccccccccccccccccccccccccccccccsccccccscccccccccccccccscc" />
  </g>
</svg>
