<?xml version="1.0" encoding="UTF-8" standalone="no"?>
<!-- Created with Inkscape (http://www.inkscape.org/) -->
<svg
   xmlns:dc="http://purl.org/dc/elements/1.1/"
   xmlns:cc="http://creativecommons.org/ns#"
   xmlns:rdf="http://www.w3.org/1999/02/22-rdf-syntax-ns#"
   xmlns:svg="http://www.w3.org/2000/svg"
   xmlns="http://www.w3.org/2000/svg"
   xmlns:sodipodi="http://sodipodi.sourceforge.net/DTD/sodipodi-0.dtd"
   xmlns:inkscape="http://www.inkscape.org/namespaces/inkscape"
   width="18.178801"
   height="9.602417"
   id="svg2394"
   sodipodi:version="0.32"
   inkscape:version="0.46"
   version="1.0"
   sodipodi:docname="U60versr.svg"
   inkscape:output_extension="org.inkscape.output.svg.inkscape">
  <defs
     id="defs2396">
    <inkscape:perspective
       sodipodi:type="inkscape:persp3d"
       inkscape:vp_x="0 : 526.18109 : 1"
       inkscape:vp_y="0 : 1000 : 0"
       inkscape:vp_z="744.09448 : 526.18109 : 1"
       inkscape:persp3d-origin="372.04724 : 350.78739 : 1"
       id="perspective2402" />
  </defs>
  <sodipodi:namedview
     id="base"
     pagecolor="#ffffff"
     bordercolor="#666666"
     borderopacity="1.0"
     inkscape:pageopacity="0.0"
     inkscape:pageshadow="2"
     inkscape:zoom="27.993043"
     inkscape:cx="10.708288"
     inkscape:cy="6.1265221"
     inkscape:document-units="px"
     inkscape:current-layer="layer1"
     showgrid="false"
     inkscape:window-width="1024"
     inkscape:window-height="708"
     inkscape:window-x="-4"
     inkscape:window-y="-4" />
  <metadata
     id="metadata2399">
    <rdf:RDF>
      <cc:Work
         rdf:about="">
        <dc:format>image/svg+xml</dc:format>
        <dc:type
           rdf:resource="http://purl.org/dc/dcmitype/StillImage" />
      </cc:Work>
    </rdf:RDF>
  </metadata>
  <g
     inkscape:label="Calque 1"
     inkscape:groupmode="layer"
     id="layer1"
     transform="translate(-1.2000868e-3,2.4414063e-3)">
    <path
       style="fill:#000000;stroke:none"
       d="M 7.375 -5.96875 C 7.065 -5.8287501 6.52125 -5.6875 6.03125 -5.6875 C 5.9512499 -5.6874998 5.85125 -5.70875 5.78125 -5.71875 C 5.7412502 -5.70875 5.70625 -5.6875 5.65625 -5.6875 C 5.32625 -5.6874998 4.945 -5.875 4.625 -5.875 C 4.495 -5.875 4.39125 -5.85125 4.28125 -5.78125 C 3.7312502 -4.9812499 3.21625 -4.08375 3.15625 -3.09375 C 3.0462501 -1.1937498 3.09375 -0.52874989 4.59375 1.03125 C 4.6880485 1.2454193 4.8223717 1.6251324 4.9375 1.96875 L 3.75 1.96875 C 2.5804971 1.9848807 1.7500634 1.118168 1.25 -0.65625 C 1.145148 -1.0030681 0.93149029 -1.1512208 0.625 -1.0625 C 0.31850994 -0.96571353 0.21571369 -0.73693699 0.3125 -0.40625 C 0.94967755 1.7956413 2.0965651 2.9062499 3.75 2.90625 C 2.6853492 3.3901822 1.7077748 4.1974316 0.8125 5.375 C 0.79412537 5.3991684 0.76799751 5.4133486 0.75 5.4375 C -0.091156227 5.0657703 -0.71424178 4.2870214 -1.0625 3.0625 C -1.1673521 2.7318131 -1.3497596 2.6068444 -1.65625 2.6875 C -1.9627405 2.7681552 -2.0655364 2.9576164 -1.96875 3.3125 C -1.5484478 4.7862869 -0.80938149 5.74237 0.25 6.21875 C -0.26746712 7.1066601 -0.53125 7.9791491 -0.53125 8.84375 C -0.53125 9.9648596 0.0049027343 10.53125 1.09375 10.53125 C 2.2067942 10.53125 2.78125 9.7824521 2.78125 8.25 C 2.78125 7.7346624 2.8738077 7.1705739 3.03125 6.59375 L 6.28125 6.59375 C 6.3939795 7.0189951 6.5609396 7.6752444 6.625 7.90625 C 6.9849998 8.2462498 6.18375 10.133751 5.84375 10.59375 C 5.6637502 10.85375 5.17625 10.84375 4.65625 10.84375 C 4.5962498 10.84375 4.51875 10.84375 4.46875 10.84375 C 3.9987499 10.84375 3.51875 10.85125 3.21875 11.03125 C 2.9387501 11.21125 2.84 11.87875 3 11.96875 C 3.1499999 11.73875 3.44625 11.43625 3.65625 11.40625 C 3.4562501 11.61625 4.1625 11.5125 4.3125 11.5625 C 4.7225002 11.5725 5.12125 11.625 5.53125 11.625 C 5.7312502 11.625 5.935 11.61375 6.125 11.59375 C 6.215 11.55375 6.335 11.46875 6.375 11.46875 C 6.415 11.46875 6.41375 11.515 6.34375 11.625 C 6.6337502 11.695 6.94 11.75 7.25 11.75 C 7.9500001 11.75 8.61 11.5575 8.75 11.1875 C 9.05 10.6375 9.33125 10.0375 9.53125 9.4375 C 9.7912503 9.4875001 10.114999 9.6875 10.375 9.6875 C 10.445 9.6874996 10.5025 9.665 10.5625 9.625 C 10.8425 9.4349998 11.1525 8.55875 11.3125 7.96875 C 11.3325 7.9087499 11.41 7.875 11.5 7.875 C 11.58 7.875 11.6675 7.8875 11.6875 7.9375 C 11.9875 8.5375001 12.48875 10.38625 12.96875 11.15625 C 13.33875 11.72625 14.185 12 15.125 12 C 15.715 12 16.33375 11.9075 16.84375 11.6875 C 17.49375 11.4075 17.98375 11.45375 17.84375 11.09375 C 17.62375 10.49375 17.24375 9.91625 16.84375 9.40625 C 17.42375 9.7662498 17.9825 10.140001 18.5625 10.5 C 18.6125 10.67 18.745 10.75 18.875 10.75 C 19.105001 10.75 19.34375 10.509999 19.09375 10.25 C 18.371723 9.2067186 17.508074 7.9084658 16.59375 6.59375 L 19.96875 6.59375 L 19.96875 5.6875 L 18 5.6875 L 18 2.90625 L 19.96875 2.90625 L 19.96875 1.96875 L 13.125 1.96875 C 12.272623 0.95595405 11.444088 0.087644324 10.71875 -0.4375 C 10.31875 -0.78749996 9.86375 -1.0575 9.34375 -1.1875 C 9.1737501 -1.6275001 9.225 -2.21875 9.125 -2.71875 C 9.0250004 -3.70875 8.425 -5.33875 7.375 -5.96875 z M 7.28125 -5.34375 C 7.8712502 -4.6537502 8.4 -3.82625 8.5 -2.90625 C 8.5999996 -2.24625 8.61875 -1.5875001 8.71875 -0.9375 C 8.2487501 -0.9775 8.37875 -1.7125 8.46875 -2.0625 C 8.5487499 -2.7524999 8.1975 -3.39 7.9375 -4 C 7.7575001 -4.3299998 7.585 -4.865 7.125 -4.875 C 6.615 -4.7850002 6.2675 -4.33875 5.9375 -3.96875 C 5.5975001 -4.3087501 5.25125 -4.70375 4.78125 -4.84375 C 4.7612502 -4.8537502 4.7175 -4.84375 4.6875 -4.84375 C 4.5875001 -4.8437499 4.45625 -4.8125 4.40625 -4.8125 C 4.3562498 -4.8124999 4.36875 -4.83875 4.46875 -4.96875 C 4.5387501 -5.18875 4.6525 -5.25 4.8125 -5.25 C 5.0525 -5.2500001 5.375 -5.125 5.625 -5.125 C 5.6649998 -5.1249999 5.72 -5.115 5.75 -5.125 C 5.8400001 -5.1250002 5.91 -5.125 6 -5.125 C 6.4399999 -5.1249999 6.87125 -5.19375 7.28125 -5.34375 z M 7.125 -4.5625 C 7.515 -4.4624999 7.59125 -3.945 7.78125 -3.625 C 8.0212499 -3.0649999 8.315 -2.4425 8.125 -1.8125 C 7.9750003 -1.5125 8.17625 -1.12625 8.15625 -0.90625 C 7.8262498 -0.67625002 7.53375 -0.1875 7.09375 -0.1875 C 7.0437502 -0.18749999 6.9975 -0.1775 6.9375 -0.1875 C 6.4975001 -0.2775 6.2775 -0.70625 5.9375 -0.90625 C 5.6975001 -0.66625005 5.525 -0.1875 5.125 -0.1875 C 5.065 -0.18749999 5.0075 -0.19875 4.9375 -0.21875 C 4.5675001 -0.29875001 4.07875 -0.23750003 3.96875 -0.6875 C 3.7787501 -1.1475 3.78 -1.65625 3.75 -2.15625 C 3.7800001 -2.15625 3.7925 -2.15625 3.8125 -2.15625 C 4.0124999 -2.15625 4.02125 -2.39375 4.03125 -2.59375 C 4.1112499 -2.8837499 4.3325 -3.03125 4.5625 -3.03125 C 4.7224999 -3.0312501 4.89125 -2.96375 5.03125 -2.84375 C 5.2012502 -2.6537499 5.70375 -2.51875 5.59375 -2.21875 C 5.5437502 -2.03875 5.4975 -1.84625 5.4375 -1.65625 L 5.84375 -1.09375 C 5.8837502 -1.3837499 6.3125 -1.61625 6.0625 -1.90625 C 6.0225 -2.03625 5.88625 -2.2125 5.90625 -2.3125 C 6.08625 -2.6324999 6.31375 -2.91625 6.59375 -3.15625 C 6.6737502 -3.22625 6.77375 -3.25 6.84375 -3.25 C 7.1137502 -3.2500001 7.36375 -2.905 7.59375 -2.875 C 7.8237502 -3.125 7.57375 -3.21375 7.34375 -3.34375 C 7.2037502 -3.4737499 7.045 -3.5625 6.875 -3.5625 C 6.6249998 -3.5624999 6.37875 -3.4175 6.21875 -3.1875 C 6.0287501 -3.0775 5.91 -2.6875 5.75 -2.6875 C 5.6900001 -2.6875 5.6325 -2.74375 5.5625 -2.84375 C 5.2624999 -3.0837499 4.9 -3.34375 4.5 -3.34375 C 4.4400001 -3.3437499 4.3725 -3.35375 4.3125 -3.34375 C 4.0324999 -3.2837499 3.77 -2.6875 3.75 -2.6875 C 3.7399999 -3.1575 3.96375 -3.6025 4.09375 -4.0625 C 4.1737502 -4.3624999 4.4275 -4.53125 4.6875 -4.53125 C 4.8574998 -4.5312499 5.03625 -4.44125 5.15625 -4.28125 C 5.45625 -4.1712501 5.68875 -3.65625 5.96875 -3.65625 C 6.0187499 -3.65625 6.04375 -3.67875 6.09375 -3.71875 C 6.4037502 -4.04875 6.675 -4.4225 7.125 -4.5625 z M 6.625 -2.90625 C 6.355 -2.77625 6.03125 -2.435 6.53125 -2.375 C 6.7712499 -2.3849999 7.31875 -2.61375 7.21875 -2.84375 C 7.1687499 -2.7937499 7.1125 -2.78125 7.0625 -2.78125 C 6.9224999 -2.7812501 6.775 -2.90625 6.625 -2.90625 z M 4.65625 -2.8125 C 4.3262498 -2.7324999 4.1425 -2.3925 4.5625 -2.3125 C 4.5725002 -2.3124999 4.58375 -2.3125 4.59375 -2.3125 C 4.83375 -2.3124999 5.4875 -2.58625 4.9375 -2.65625 C 4.8475001 -2.71625 4.77625 -2.8125 4.65625 -2.8125 z M 8.40625 -0.75 C 8.4762496 -0.62000002 8.545 -0.59375 8.625 -0.59375 C 8.7350003 -0.59374998 8.8475004 -0.63750003 8.9375 -0.6875 C 9.1775005 -0.51750004 10.02125 -0.54750001 9.53125 -0.1875 C 9.2212496 0.2325 7.55625 1.39375 6.40625 1.59375 C 5.9062498 1.67375 6.76125 2.43875 7.03125 2.71875 C 8.5912499 4.1187499 10.098749 5.615 11.96875 6.625 C 13.13875 7.285 14.37 7.86375 15.5 8.59375 C 16.04 9.3737495 16.68375 10.108751 17.09375 10.96875 C 16.68375 11.08875 16.295 11.24375 15.875 11.34375 C 15.655 11.40375 15.39625 11.4375 15.15625 11.4375 C 14.49625 11.4375 13.83125 11.22625 13.53125 10.90625 C 12.99125 10.33625 12.40375 7.92125 12.09375 7.03125 C 12.05375 6.9312502 12.0075 6.90625 11.9375 6.90625 C 11.8075 6.9062498 11.6425 7.03125 11.5625 7.03125 C 11.5525 7.0312502 11.54125 7.01 11.53125 7 C 11.51125 6.7500002 11.33625 6.625 11.15625 6.625 C 10.97625 6.6249998 10.7925 6.76125 10.8125 7.03125 C 10.7525 7.6612502 10.64375 8.305 10.34375 8.875 C 10.31375 8.9750003 10.225001 9 10.125 9 C 9.8449999 9.0000002 9.36125 8.705 9.03125 8.625 C 9.1612501 7.855 8.11125 3.925 5.03125 0.625 C 4.936738 0.51158545 4.5750941 0.079631278 4.5625 0.03125 C 4.7153396 0.067772678 4.8929437 0.09375 5.0625 0.09375 C 5.3925002 0.093750002 5.73625 -0.023749991 5.90625 -0.34375 C 5.9362498 -0.42375001 5.96 -0.4375 6 -0.4375 C 6.1399999 -0.4375 6.3525 -0.03125 6.5625 -0.03125 C 6.7224999 0.078750001 6.8825 0.125 7.0625 0.125 C 7.3525 0.125 7.65375 -0.030000001 7.84375 -0.25 C 8.03375 -0.42000002 8.21625 -0.58000004 8.40625 -0.75 z M 10.21875 0 C 12.61875 1.3799999 16.7975 8.16 17.6875 9.25 C 16.187499 8.2999999 14.70375 7.3425 13.09375 6.5625 C 10.83375 5.4525 8.9024996 3.64875 7.0625 1.96875 C 8.5825002 1.45875 9.6787493 0.61000003 10.21875 0 z M 5.6875 2.375 C 6.9575001 3.685 8.1375 7.015 8.4375 8.375 C 7.9474998 7.9750003 7.275 7.6875 7.125 7.4375 C 6.9649998 7.1775001 6.5175 4.665 5.6875 2.375 z M 4.8125 2.90625 L 5.25 2.90625 C 5.5398244 3.8711225 5.7722322 4.7189772 6.03125 5.6875 L 3.3125 5.6875 C 3.652928 4.8203722 4.1525194 3.8981736 4.8125 2.90625 z M 13.90625 2.90625 L 14.4375 2.90625 L 14.4375 3.625 C 14.256223 3.3862833 14.086725 3.1355294 13.90625 2.90625 z M 15.3125 2.90625 L 17.125 2.90625 L 17.125 5.6875 L 15.9375 5.6875 C 15.723674 5.3857001 15.529395 5.0799079 15.3125 4.78125 L 15.3125 2.90625 z M 3.4375 3.78125 L 3.5 3.78125 C 3.0584461 4.4540939 2.718453 5.0862195 2.46875 5.6875 L 1.96875 5.6875 C 1.8458757 5.6875 1.7412009 5.6677959 1.625 5.65625 C 2.0892903 5.0203769 2.6925596 4.4010859 3.4375 3.78125 z M 1.09375 6.5 C 1.3719845 6.5519865 1.6572057 6.59375 1.96875 6.59375 L 2.15625 6.59375 C 2.0399482 7.0327655 1.96875 7.4481169 1.96875 7.84375 C 1.96875 8.9971218 1.7198256 9.5937503 1.1875 9.59375 C 0.6551748 9.59375 0.37499999 9.2994686 0.375 8.71875 C 0.375 8.1356794 0.61916488 7.3994605 1.09375 6.5 z M 7.71875 8.625 C 8.0387499 8.8150003 8.3375 9.0475 8.6875 9.1875 C 8.4774998 9.7075001 8.33625 10.308751 7.90625 10.71875 C 7.8262498 10.84875 7.72375 10.875 7.59375 10.875 C 7.36375 10.875 7.07375 10.75 6.84375 10.75 C 6.8337502 10.75 6.8325 10.75 6.8125 10.75 C 7.0924999 10.050001 7.49875 9.765 7.71875 8.625 z "
       transform="translate(1.2000868e-3,-2.4414063e-3)"
       id="path2385" />
  </g>
</svg>
