<?xml version="1.0" encoding="UTF-8" standalone="no"?>
<svg
   xmlns:dc="http://purl.org/dc/elements/1.1/"
   xmlns:cc="http://creativecommons.org/ns#"
   xmlns:rdf="http://www.w3.org/1999/02/22-rdf-syntax-ns#"
   xmlns:svg="http://www.w3.org/2000/svg"
   xmlns="http://www.w3.org/2000/svg"
   xmlns:sodipodi="http://sodipodi.sourceforge.net/DTD/sodipodi-0.dtd"
   xmlns:inkscape="http://www.inkscape.org/namespaces/inkscape"
   width="8.03125"
   height="18"
   id="svg2383"
   sodipodi:version="0.32"
   inkscape:version="0.46"
   sodipodi:docname="U80.svg"
   inkscape:output_extension="org.inkscape.output.svg.inkscape"
   version="1.0">
  <metadata
     id="metadata2390">
    <rdf:RDF>
      <cc:Work
         rdf:about="">
        <dc:format>image/svg+xml</dc:format>
        <dc:type
           rdf:resource="http://purl.org/dc/dcmitype/StillImage" />
      </cc:Work>
    </rdf:RDF>
  </metadata>
  <defs
     id="defs2388">
    <inkscape:perspective
       sodipodi:type="inkscape:persp3d"
       inkscape:vp_x="0 : 8.9899998 : 1"
       inkscape:vp_y="0 : 1000 : 0"
       inkscape:vp_z="8.04 : 8.9899998 : 1"
       inkscape:persp3d-origin="4.02 : 5.9933332 : 1"
       id="perspective2392" />
  </defs>
  <sodipodi:namedview
     inkscape:window-height="708"
     inkscape:window-width="1024"
     inkscape:pageshadow="2"
     inkscape:pageopacity="0.0"
     guidetolerance="10.0"
     gridtolerance="10.0"
     objecttolerance="10.0"
     borderopacity="1.0"
     bordercolor="#666666"
     pagecolor="#ffffff"
     id="base"
     showgrid="false"
     showguides="true"
     inkscape:guide-bbox="true"
     inkscape:zoom="36.338525"
     inkscape:cx="-0.52063559"
     inkscape:cy="12.29228"
     inkscape:window-x="-4"
     inkscape:window-y="-4"
     inkscape:current-layer="svg2383" />
  <path
     style="fill:#000000;stroke:none"
     d="M 4,-6.9388939e-18 C 3.3131857,-1e-09 2.75,0.50292002 2.75,1.15625 C 2.75,1.6076925 3.0403011,1.9840839 3.4375,2.1875 L 2.3125,2.1875 L 2.96875,3.6875 L 1.03125,3.6875 C 0.64458333,3.6875 0.46874999,3.88125 0.46875,4.28125 C 0.46875,4.6945833 0.64458337,4.9062501 1.03125,4.90625 L 1.6875,4.90625 C 1.9541667,4.90625 2.1658333,4.9445833 2.3125,5.03125 C 2.6258333,5.37125 2.8354167,5.8441666 2.96875,6.4375 L 0,8.46875 L 2.15625,8.46875 L 3.3125,7.25 L 3.3125,13.875 L 0.25,18 L 2,18 L 4.03125,15.25 L 6.0625,18 L 7.78125,18 L 4.75,13.875 L 4.75,7.25 L 5.90625,8.46875 L 8.03125,8.46875 L 5.09375,6.4375 C 5.21375,5.8441667 5.4233331,5.37125 5.75,5.03125 C 5.8966667,4.9445833 6.1083332,4.9062501 6.375,4.90625 L 7.03125,4.90625 C 7.3979167,4.90625 7.5624998,4.6945833 7.5625,4.28125 C 7.5625,3.88125 7.3979167,3.6874999 7.03125,3.6875 L 5.09375,3.6875 L 5.75,2.1875 L 4.59375,2.1875 C 4.9909488,1.9840839 5.2812499,1.6076925 5.28125,1.15625 C 5.2812498,0.50291997 4.6868141,-3.2e-08 4,-6.9388939e-18 z M 4,0.34375 C 4.4860799,0.34374996 4.875,0.7120197 4.875,1.15625 C 4.8749998,1.6004804 4.48608,1.96875 4,1.96875 C 3.5139198,1.96875 3.15625,1.6004804 3.15625,1.15625 C 3.1562499,0.71201969 3.5139199,0.34375 4,0.34375 z M 3.0625,2.65625 L 4.03125,2.65625 L 5,2.65625 L 4.59375,3.6875 L 3.46875,3.6875 L 3.0625,2.65625 z M 1.03125,4.15625 L 7.03125,4.15625 C 7.09125,4.15625 7.1249999,4.2258333 7.125,4.3125 C 7.125,4.4058333 7.09125,4.4375002 7.03125,4.4375 L 1.03125,4.4375 C 0.97125,4.4375 0.93750001,4.4058333 0.9375,4.3125 C 0.9375,4.2258333 0.97125004,4.1562501 1.03125,4.15625 z M 2.84375,4.90625 L 5.21875,4.90625 C 4.9920833,5.24625 4.7758331,5.7124998 4.5625,6.3125 C 4.3491667,6.9058333 4.1779165,7.1874999 4.03125,7.1875 C 3.87125,7.1875 3.6754167,6.9058331 3.46875,6.3125 C 3.2620833,5.7125 3.0704168,5.2462501 2.84375,4.90625 z M 3.125,6.84375 L 1.96875,8.03125 L 1.28125,8.03125 L 3.125,6.84375 z M 4.9375,6.84375 L 6.75,8.03125 L 6.09375,8.03125 L 4.9375,6.84375 z M 3.8125,7.6875 L 4.25,7.6875 L 4.25,14.0625 L 6.8125,17.53125 L 6.34375,17.53125 L 4.03125,14.40625 L 1.6875,17.53125 L 1.25,17.53125 L 3.8125,14.0625 L 3.8125,7.6875 z"
     id="path2385" />
</svg>
