<?xml version="1.0" encoding="UTF-8" standalone="no"?>
<svg
   xmlns:dc="http://purl.org/dc/elements/1.1/"
   xmlns:cc="http://web.resource.org/cc/"
   xmlns:rdf="http://www.w3.org/1999/02/22-rdf-syntax-ns#"
   xmlns:svg="http://www.w3.org/2000/svg"
   xmlns="http://www.w3.org/2000/svg"
   xmlns:sodipodi="http://sodipodi.sourceforge.net/DTD/sodipodi-0.dtd"
   xmlns:inkscape="http://www.inkscape.org/namespaces/inkscape"
   width="17.686508"
   height="11.76"
   id="svg4518"
   sodipodi:version="0.32"
   inkscape:version="0.44"
   sodipodi:docname="US22U9.svg"
   sodipodi:docbase="C:\Program Files\JSesh\fonteUS22\US22_33">
  <metadata
     id="metadata4525">
    <rdf:RDF>
      <cc:Work
         rdf:about="">
        <dc:format>image/svg+xml</dc:format>
        <dc:type
           rdf:resource="http://purl.org/dc/dcmitype/StillImage" />
        <cc:license
           rdf:resource="http://creativecommons.org/licenses/GPL/2.0/" />
        <dc:date>6/12/06</dc:date>
        <dc:creator>
          <cc:Agent>
            <dc:title>Serge Thomas</dc:title>
          </cc:Agent>
        </dc:creator>
        <dc:publisher>
          <cc:Agent>
            <dc:title>Serge Rosmorduc</dc:title>
          </cc:Agent>
        </dc:publisher>
        <dc:description>US22U9
FCD p. 86 ( bdt )

U9 d'abord redessiné sous Inkscape seul mais repris pour optimisation car jugé médiocre gabarit pour U10, U11, U12 </dc:description>
        <dc:title></dc:title>
      </cc:Work>
      <cc:License
         rdf:about="http://creativecommons.org/licenses/GPL/2.0/">
        <cc:permits
           rdf:resource="http://web.resource.org/cc/Reproduction" />
        <cc:permits
           rdf:resource="http://web.resource.org/cc/Distribution" />
        <cc:requires
           rdf:resource="http://web.resource.org/cc/Notice" />
        <cc:permits
           rdf:resource="http://web.resource.org/cc/DerivativeWorks" />
        <cc:requires
           rdf:resource="http://web.resource.org/cc/ShareAlike" />
        <cc:requires
           rdf:resource="http://web.resource.org/cc/SourceCode" />
      </cc:License>
    </rdf:RDF>
  </metadata>
  <defs
     id="defs4523" />
  <sodipodi:namedview
     inkscape:window-height="569"
     inkscape:window-width="939"
     inkscape:pageshadow="2"
     inkscape:pageopacity="0.0"
     guidetolerance="10.0"
     gridtolerance="10.0"
     objecttolerance="10.0"
     borderopacity="1.0"
     bordercolor="#666666"
     pagecolor="#ffffff"
     id="base"
     inkscape:zoom="32.057823"
     inkscape:cx="8.8432541"
     inkscape:cy="5.8800001"
     inkscape:window-x="116"
     inkscape:window-y="69"
     inkscape:current-layer="svg4518" />
  <path
     style="fill:#000000; stroke:none"
     d=" M 9.033275 1.637098  L 9.033275 6.739742  Q 10.734156 7.335051 12.477559 7.483878  L 12.477559 0.871702  Q 10.734156 1.020529 9.033275 1.637098  Z  M 16.793547 1.637098  Q 15.092665 1.020529 13.349261 0.871702  L 13.349261 7.483878  Q 15.092665 7.335051 16.793547 6.739742  L 16.793547 1.637098  Z  M 12.924041 0  Q 15.092665 0 17.154984 0.871702  Q 17.686508 1.04179 17.686508 1.849708  L 17.686508 6.505871  Q 17.686508 7.31379 17.133722 7.483878  Q 15.092665 8.376841 12.924041 8.376841  L 12.90278 8.376841  Q 10.734156 8.376841 8.671837 7.483878  Q 8.140312 7.31379 8.140312 6.505871  L 8.140312 1.849708  Q 8.140312 1.04179 8.671837 0.871702  Q 10.734156 0 12.90278 0  L 12.924041 0  Z  M 4.504678 2.785193  Q 5.206292 2.912759 5.950427 3.826983  Q 6.694563 4.741207 6.65204 5.464081  Q 6.588258 5.868041 6.184299 5.868041  Q 5.461424 5.825519 4.664135 4.943186  Q 3.866848 4.060854 3.866848 3.33798  Q 3.93063 2.763932 4.504678 2.785193  Z  M 4.525939 3.465546  Q 4.419634 3.954549 5.110617 4.677424  Q 5.8016 5.400298 6.120515 5.336515  Q 6.248081 5.0176 5.631512 4.220312  Q 5.014942 3.423024 4.525939 3.465546  Z  M 2.591187 5.038861  Q 3.314061 4.975078 4.260176 5.666061  Q 5.206292 6.357044 5.333858 7.079919  Q 5.376379 7.505139 4.97242 7.611444  Q 4.270807 7.73901 3.28217 7.090549  Q 2.293532 6.442088 2.102183 5.740475  Q 2.017139 5.166427 2.591187 5.038861  Z  M 2.761275 5.676692  Q 2.782536 6.186956 3.632976 6.718482  Q 4.483417 7.250007 4.802332 7.10118  Q 4.844854 6.739742 4.047566 6.133803  Q 3.250278 5.527864 2.761275 5.676692  Z  M 1.145437 7.483878  Q 1.847051 7.292529 2.899471 7.824054  Q 3.951891 8.355579 4.207024 9.035933  Q 4.313329 9.439892 3.951891 9.60998  Q 3.271539 9.865112 2.187227 9.397369  Q 1.102915 8.929627 0.784 8.270535  Q 0.613912 7.696488 1.145437 7.483878  Z  M 1.443092 8.079186  Q 1.549397 8.589451 2.474251 8.961518  Q 3.399105 9.333587 3.675498 9.142238  Q 3.654237 8.7808 2.761275 8.313058  Q 1.868312 7.845315 1.443092 8.079186  Z  M 0.35878 9.737546  Q 1.039132 9.503675 2.134075 9.939526  Q 3.229017 10.375377 3.526671 11.034468  Q 3.696759 11.417166 3.335322 11.629776  Q 2.67623 11.92743 1.560027 11.555363  Q 0.443824 11.183295 0.061125 10.545465  Q -0.151485 10.013939 0.35878 9.737546  Z  M 0.698956 10.311593  Q 0.847783 10.800596 1.804529 11.108881  Q 2.761275 11.417166 3.037668 11.183295  Q 2.973885 10.821857 2.049031 10.439159  Q 1.124176 10.056461 0.698956 10.311593  Z "
     id="path4520" />
</svg>
