<?xml version="1.0" encoding="UTF-8" standalone="no"?>
<!-- Created with Inkscape (http://www.inkscape.org/) -->

<svg
   xmlns:dc="http://purl.org/dc/elements/1.1/"
   xmlns:cc="http://creativecommons.org/ns#"
   xmlns:rdf="http://www.w3.org/1999/02/22-rdf-syntax-ns#"
   xmlns:svg="http://www.w3.org/2000/svg"
   xmlns="http://www.w3.org/2000/svg"
   xmlns:sodipodi="http://sodipodi.sourceforge.net/DTD/sodipodi-0.dtd"
   xmlns:inkscape="http://www.inkscape.org/namespaces/inkscape"
   width="1800"
   height="1800"
   id="svg2894"
   version="1.1"
   inkscape:version="0.47pre3 r22311"
   sodipodi:docname="Nouveau document 4">
  <defs
     id="defs2896">
    <inkscape:perspective
       sodipodi:type="inkscape:persp3d"
       inkscape:vp_x="0 : 526.18109 : 1"
       inkscape:vp_y="0 : 1000 : 0"
       inkscape:vp_z="744.09448 : 526.18109 : 1"
       inkscape:persp3d-origin="372.04724 : 350.78739 : 1"
       id="perspective2902" />
    <inkscape:perspective
       id="perspective2912"
       inkscape:persp3d-origin="0.5 : 0.33333333 : 1"
       inkscape:vp_z="1 : 0.5 : 1"
       inkscape:vp_y="0 : 1000 : 0"
       inkscape:vp_x="0 : 0.5 : 1"
       sodipodi:type="inkscape:persp3d" />
  </defs>
  <sodipodi:namedview
     id="base"
     pagecolor="#ffffff"
     bordercolor="#666666"
     borderopacity="1.0"
     inkscape:pageopacity="0.0"
     inkscape:pageshadow="2"
     inkscape:zoom="0.28"
     inkscape:cx="900"
     inkscape:cy="882.21405"
     inkscape:document-units="px"
     inkscape:current-layer="layer1"
     showgrid="false"
     inkscape:window-width="1280"
     inkscape:window-height="752"
     inkscape:window-x="0"
     inkscape:window-y="0"
     inkscape:window-maximized="0" />
  <metadata
     id="metadata2899">
    <rdf:RDF>
      <cc:Work
         rdf:about="">
        <dc:format>image/svg+xml</dc:format>
        <dc:type
           rdf:resource="http://purl.org/dc/dcmitype/StillImage" />
        <dc:title></dc:title>
      </cc:Work>
    </rdf:RDF>
  </metadata>
  <g
     inkscape:label="Calque 1"
     inkscape:groupmode="layer"
     id="layer1"
     transform="translate(-301.02944,793.0938)">
    <path
       style="fill:#000000;stroke:none"
       d="m 522.62907,-792.89278 c -2.74466,0 -5.45659,1.86206 -8.20121,5.5216 -0.85773,-2.57309 -2.23739,-3.8976 -4.05999,-3.8976 -0.60756,0 -1.23404,0.20138 -1.9488,0.4872 -2.859,1.14358 -4.86523,3.38998 -6.0088,6.82081 -0.76238,-2.28722 -1.88562,-3.41041 -3.41041,-3.41041 -0.7624,0 -1.64538,0.2401 -2.5984,0.81201 -2.859,1.71541 -4.3036,3.72163 -4.3036,6.0088 -0.65348,-1.30697 -1.88023,-1.94881 -3.65401,-1.94881 -1.3303,0 -2.99276,0.40167 -4.9532,1.13681 -4.57441,1.71541 -6.25919,4.84479 -5.1156,9.41921 10.2924,20.58479 18.31725,37.19606 24.03522,49.77562 5.71801,12.57956 7.96438,31.99885 6.82079,58.30164 0,5.71799 -1.12323,8.84738 -3.4104,9.41921 -0.25412,0.0637 -0.50491,0.0811 -0.7308,0.0811 -1.80723,0 -2.67959,-2.02383 -2.67959,-6.09 -1.14359,-6.86157 -1.14359,-17.13287 0,-30.85601 0,-9.14882 -1.76606,-17.17365 -5.19682,-24.03522 -2.28721,-4.5744 -5.05986,-6.82081 -8.36359,-6.82081 -1.65189,0 -3.45323,0.56162 -5.35921,1.7052 -5.71799,2.28725 -5.71799,9.10764 0,20.54362 -1.14358,12.57956 -3.14981,28.6293 -6.0088,48.07043 -2.859,19.44122 4.92566,39.42203 23.22321,60.00684 l 23.95402,72.02444 c 29.73353,65.18514 53.80804,103.54329 72.10564,114.97927 -52.60555,-16.01034 -107.49379,-50.35612 -164.6737,-102.96166 0,-18.29755 -2.88922,-38.27846 -8.6072,-60.00683 -1.14359,-11.43604 -5.15599,-23.47327 -12.01761,-36.05283 -4.57441,-9.14874 -13.96264,-19.98158 -28.25762,-32.56122 -14.29497,-12.57957 -25.44927,-25.74007 -33.45443,-39.46323 -3.43081,-3.43082 -6.88159,-5.11559 -10.3124,-5.11559 -3.43074,0 -6.31996,2.24639 -8.60721,6.82079 -0.91486,-0.45745 -1.77499,-0.6496 -2.5984,-0.6496 -1.23507,0 -2.38114,0.51361 -3.4104,1.5428 -1.71538,1.71542 -2.5172,3.72157 -2.5172,6.00881 -1.1436,-0.38121 -2.23146,-0.5684 -3.248,-0.5684 -2.03304,0 -3.83441,0.74881 -5.3592,2.2736 -2.28719,2.28719 -2.84879,4.53356 -1.7052,6.82081 -0.45745,-0.9149 -1.19634,-1.3804 -2.1112,-1.3804 -1.37231,0 -3.20126,1.02712 -5.60281,3.0856 -4.00257,3.43074 -4.32395,7.44319 -0.8932,12.01761 17.15397,16.01039 30.63578,28.6092 40.35642,37.75802 9.72057,9.14874 19.10889,26.32163 28.25763,51.48082 2.28723,4.57442 2.60861,7.38243 0.89319,8.52602 -0.42887,0.28589 -0.91582,0.4872 -1.3804,0.4872 -1.39376,0 -2.91302,-1.32454 -4.6284,-3.89761 -3.43083,-5.71799 -6.88165,-15.42759 -10.31241,-29.15081 -4.5744,-8.00516 -9.38857,-14.58541 -14.5348,-19.73162 -2.43764,-2.43764 -4.83625,-3.654 -7.14561,-3.654 -2.56598,0 -5.0628,1.53773 -7.4704,4.5472 -4.57441,3.43075 -2.32802,9.68962 6.8208,18.83842 3.43075,11.43601 7.76459,26.84281 12.9108,46.28403 5.14617,19.44113 19.10839,34.92924 41.98043,46.36522 l 49.77564,58.30164 c 83.48269,77.76462 177.85229,132.65284 283.06337,164.6737 l 116.60326,-24.03522 c 29.73351,67.47236 57.82048,154.45993 84.12326,260.814564 -29.7335,91.487929 -63.19625,185.214666 -100.36326,281.276976 -37.16694,96.06225 -59.23525,169.24657 -66.09684,219.56493 l 54.89123,0 c -4.57432,33.16431 -1.68519,65.74406 8.60721,97.76487 -18.29766,96.06224 -35.47048,195.006 -51.48083,296.78617 -19.44117,52.6056 -65.74294,85.74687 -138.93329,99.47007 -41.16952,5.71804 -61.71203,18.87863 -61.71203,39.4632 l 238.40334,0 c 19.44116,-8.00514 23.45361,-31.4369 12.01761,-70.31923 5.71806,-27.44639 12.53843,-53.20565 20.5436,-77.22125 19.44115,-61.75431 38.05864,-112.63017 55.78445,-152.65609 17.72579,-40.02601 26.55241,-86.88938 26.55241,-140.63848 -3.43083,-38.88235 0.0208,-69.21568 10.31241,-90.94406 l 96.05967,0 c 0,12.57959 4.574,38.90046 13.7228,78.92645 16.0104,69.75952 20.5844,172.71568 13.7228,308.80379 -16.0104,59.46712 -59.42297,93.16992 -130.32608,101.17527 -35.45152,6.86151 -54.952,21.14536 -58.38283,42.8736 l 243.60021,0 c 19.4411,-16.01055 20.0027,-43.45453 1.7052,-82.33684 4.5743,-29.73368 9.71,-57.73933 15.428,-84.04204 17.1539,-68.61592 28.951,-124.38715 35.2407,-167.2721 6.2898,-42.88494 1.3944,-90.06975 -14.6159,-141.53169 l -12.0176,-58.30164 36.0528,0 c 9.1488,-308.77165 2.2471,-499.757177 -20.6248,-572.94755 15.9407,-69.66694 27.3076,-132.53673 34.104,-188.79012 l 4.3552,-27.4836 37.8689,-2.23562 68.2081,0 c -0.9884,-147.32911 -24.2033,-252.7156 -69.6697,-316.11179 -45.4664,-63.39616 -115.1921,-97.36031 -209.0901,-101.82486 -13.8376,-9.82193 -28.68328,-14.69721 -44.49762,-14.69721 -15.81445,0 -33.58036,8.45047 -53.34843,25.41561 -20.75632,4.46455 -37.576,11.41172 -50.42523,20.78721 -12.84918,9.3755 -22.71916,23.47306 -29.63802,42.22404 l 8.93201,9.338 c -1.97685,25.00127 2.20778,43.08033 12.58601,54.24163 10.37819,11.16133 20.72139,19.69298 31.09962,25.49681 10.37819,5.80387 18.1188,13.84803 23.06081,24.11643 4.94197,10.26838 17.73247,22.49717 38.48882,36.78361 -21.85064,15.82186 -44.09953,35.23291 -54.16044,61.14365 -33.16435,10.29239 -58.36207,29.15006 -75.51604,56.59643 l 0,1.7052 -90.86286,12.0176 c -18.29755,-18.2976 -45.50147,-41.16767 -81.52484,-68.61403 -36.02336,-27.44638 -70.60931,-76.07575 -103.77368,-145.8353 5.718,-17.15397 10.85366,-37.77769 15.42802,-61.79323 2.28722,-10.2924 2.84878,-22.2484 1.7052,-35.97162 -1.14364,-10.29235 -6.27927,-24.01446 -15.42801,-41.16843 -9.14881,-17.15405 -14.28442,-33.76532 -15.42801,-49.77563 -2.28724,-4.57441 -5.17646,-7.38237 -8.6072,-8.526 -0.68617,-0.22867 -1.34385,-0.40601 -2.03,-0.40601 l -1.4e-4,1.3e-4 z m 447.57469,66.82764 c 1.13497,0 2.28835,0.0541 3.41039,0.1624 13.83761,1.33937 24.18078,6.01148 31.09965,14.04761 33.6055,4.46448 49.952,12.10234 48.9636,22.81722 11.8607,51.78843 3.4103,99.97209 -25.2532,144.61728 l 0,54.89124 -35.97163,-3.8976 c -1.96362,-16.87221 -10.62586,-30.32623 -26.22763,-40.27523 -16.80272,-10.71482 -28.17355,-22.13098 -34.10402,-34.18522 -5.93035,-12.05419 -17.85561,-23.3892 -35.64682,-34.10402 -17.7912,-10.71484 -26.63361,-22.33418 -26.63361,-34.83482 40.68382,24.22362 71.37276,36.37762 92.16206,36.37762 1.43374,0 2.88337,-0.12836 4.22239,-0.24347 7.90723,-2.67874 9.32682,-6.6602 4.38481,-12.01761 -40.52439,-9.82196 -68.16046,-21.84756 -82.98645,-36.13402 -14.82594,-14.28646 -18.06414,-25.9058 -9.66281,-34.83482 8.40136,-8.92907 25.45761,-16.07937 51.15604,-21.43681 14.53215,-13.94859 28.22438,-20.94962 41.08723,-20.94962 l 0,-1.3e-4 z m -5.92761,5.8464 c -10.70256,0 -16.51196,5.46434 -17.37682,16.40242 -2.96523,13.39353 1.92919,20.54389 14.77842,21.43681 2.61635,0.4727 5.09182,0.7308 7.30799,0.7308 10.34232,0 16.31724,-5.13333 17.94522,-15.42801 1.97676,-13.39353 -3.9452,-21.03141 -17.78281,-22.81722 -1.72968,-0.2232 -3.3431,-0.3248 -4.872,-0.3248 z m 119.03925,32.56123 c 44.478,0.89291 85.2223,30.10373 122.2873,87.69605 37.065,57.5923 54.5944,142.21836 52.6176,253.83136 l -51.8868,0 c -2.5854,-85.71314 -21.2961,-126.61279 -118.5521,-132.68088 l 0,14.12881 c -14.2583,7.08976 -15.2509,1.24159 -26.7148,2.08046 l 0,-69.72011 c 23.7216,-56.25293 31.1444,-108.01178 22.2488,-155.33569 z m -142.66847,231.66374 c 5.74164,0.44638 133.19507,11.39393 140.59317,15.31056 -12.5797,8.00518 -68.9018,15.16757 -72.3326,36.89595 l -78.41057,-0.40088 c -0.23178,-21.90429 3.19284,-39.18267 10.15,-51.80563 z m 179.77687,24.03521 c 9.3922,2.67921 17.8027,6.014 25.2533,9.98761 17.1539,9.14882 5.1167,119.48688 -36.0528,331.052603 L 946.65574,-6.8762953 C 961.52254,-32.035449 955.2637,-83.794258 927.81732,-162.13079 900.37092,-240.46732 884.3213,-284.76292 879.7469,-295.05527 l 100.68806,-19.56921 138.44604,-32.07403 c 10.1171,-6.32494 17.0395,-21.09743 20.7872,-44.41642 3.1573,-19.64495 -3.247,-33.25097 -19.2444,-40.84363 l 0,0 z m -14.2099,392.521044 c 27.4464,4.574357 34.2667,158.967816 20.5436,463.165086 l -319.03505,0 c 28.58996,-88.05711 72.64533,-213.3216 132.11248,-375.712626 l 166.37897,-87.45246 z"
       id="path2878"
       sodipodi:nodetypes="ccsscsscsscscssccssccsccccccscscsscssssscscssccssccscccccscccccccccsccccccccccsccccccccscscsccssscccccscccscscccccccccsscsccsscccccscsccsccccscccccccccccsccccccccccccc" />
  </g>
</svg>
