<?xml version="1.0" encoding="UTF-8" standalone="no"?>
<!-- Created with Inkscape (http://www.inkscape.org/) -->

<svg
   xmlns:dc="http://purl.org/dc/elements/1.1/"
   xmlns:cc="http://creativecommons.org/ns#"
   xmlns:rdf="http://www.w3.org/1999/02/22-rdf-syntax-ns#"
   xmlns:svg="http://www.w3.org/2000/svg"
   xmlns="http://www.w3.org/2000/svg"
   xmlns:sodipodi="http://sodipodi.sourceforge.net/DTD/sodipodi-0.dtd"
   xmlns:inkscape="http://www.inkscape.org/namespaces/inkscape"
   width="1800"
   height="1800"
   id="svg2971"
   version="1.1"
   inkscape:version="0.47pre3 r22311"
   sodipodi:docname="Nouveau document 8">
  <defs
     id="defs2973">
    <inkscape:perspective
       sodipodi:type="inkscape:persp3d"
       inkscape:vp_x="0 : 526.18109 : 1"
       inkscape:vp_y="0 : 1000 : 0"
       inkscape:vp_z="744.09448 : 526.18109 : 1"
       inkscape:persp3d-origin="372.04724 : 350.78739 : 1"
       id="perspective2979" />
    <inkscape:perspective
       id="perspective2965"
       inkscape:persp3d-origin="0.5 : 0.33333333 : 1"
       inkscape:vp_z="1 : 0.5 : 1"
       inkscape:vp_y="0 : 1000 : 0"
       inkscape:vp_x="0 : 0.5 : 1"
       sodipodi:type="inkscape:persp3d" />
  </defs>
  <sodipodi:namedview
     id="base"
     pagecolor="#ffffff"
     bordercolor="#666666"
     borderopacity="1.0"
     inkscape:pageopacity="0.0"
     inkscape:pageshadow="2"
     inkscape:zoom="0.11973064"
     inkscape:cx="837.04794"
     inkscape:cy="672.34251"
     inkscape:document-units="px"
     inkscape:current-layer="layer1"
     showgrid="false"
     inkscape:window-width="1280"
     inkscape:window-height="752"
     inkscape:window-x="0"
     inkscape:window-y="0"
     inkscape:window-maximized="0" />
  <metadata
     id="metadata2976">
    <rdf:RDF>
      <cc:Work
         rdf:about="">
        <dc:format>image/svg+xml</dc:format>
        <dc:type
           rdf:resource="http://purl.org/dc/dcmitype/StillImage" />
        <dc:title></dc:title>
      </cc:Work>
    </rdf:RDF>
  </metadata>
  <g
     inkscape:label="Calque 1"
     inkscape:groupmode="layer"
     id="layer1"
     transform="translate(0,747.63782)">
    <path
       style="fill:#000000;stroke:none"
       d="m 189.94713,-740.86011 c -11.16797,0 -22.54018,2.10307 -34.14336,6.37666 -15.4708,5.69817 -26.8754,12.97578 -34.22407,21.71292 -7.34865,8.73711 -7.34865,17.78549 0,27.2824 7.34867,9.49688 19.36873,16.13839 35.99985,19.93714 16.63109,3.79877 37.85284,6.10118 63.76656,6.86096 25.91365,0.75977 45.09401,5.73497 57.47062,14.85195 12.37675,9.11704 7.07966,43.88638 -15.73984,104.28658 -22.81946,60.4002 -22.91697,97.021 -0.48431,109.93678 5.46028,3.90033 11.01225,7.03019 16.62774,9.52462 -25.84091,0.57794 -46.1898,28.64767 -61.02218,84.26872 l -11.21969,-48.67245 11.21969,-95.56912 c -2.49789,-8.74315 -8.73422,-21.21552 -18.72638,-37.45276 -9.99206,-16.23722 -16.22815,-31.8277 -18.72638,-46.81596 -2.4979,-3.74708 -5.27198,-6.25771 -8.39459,-7.5067 -1.56131,-0.62453 -3.03432,-0.9686 -4.43944,-0.9686 -1.40513,0 -2.78675,0.34407 -4.03586,0.9686 -2.49789,1.24899 -5.61603,2.46396 -9.36319,3.71299 -3.74701,1.24899 -6.86514,2.54467 -9.36319,3.79371 -2.49805,1.24906 -4.05722,2.20062 -4.6816,2.8251 -0.62456,0.62451 -2.79108,1.83945 -6.53809,3.71299 -3.74716,1.87354 -5.04282,5.33573 -3.79371,10.3318 11.241,18.73527 19.72452,33.71828 25.34519,44.95946 5.6205,11.24117 10.29763,29.94971 14.04479,56.17914 0,4.99607 -0.95161,7.5067 -2.8251,7.5067 -1.87367,0 -3.43266,-1.29568 -4.6816,-3.79371 -1.24893,-6.24513 -2.20054,-15.25531 -2.8251,-27.12096 -0.62455,-11.86574 -3.13513,-20.61253 -7.50669,-26.23308 -2.62291,-3.37235 -5.10851,-5.08518 -7.5067,-5.08518 -1.59866,0 -3.18279,0.76127 -4.68159,2.26008 -4.99613,1.24906 -5.60351,7.22187 -1.8565,17.83849 3.74701,10.61667 4.69844,25.86302 2.8251,45.84735 -1.87367,19.9843 6.52913,39.38107 25.26447,58.11636 2.49805,53.70786 6.30429,93.63563 11.30041,119.86499 -11.24118,23.73139 -22.49845,51.87494 -33.73978,84.34943 -7.49399,-33.72352 -17.45596,-62.13049 -29.94607,-85.23732 -12.49029,-23.10688 -25.043367,-65.88931 -37.533476,-128.34029 l 11.300403,-93.71263 c -2.498048,-9.99219 -8.815038,-23.07201 -18.8071,-39.30926 -9.992216,-16.23724 -16.228334,-31.82769 -18.726382,-46.81595 -2.498047,-3.74701 -5.272135,-6.25766 -8.394585,-7.5067 -1.561315,-0.62448 -3.034319,-0.96861 -4.439444,-0.96861 -1.405124,0 -2.786744,0.34413 -4.035858,0.96861 -2.498048,1.24904 -5.616183,2.464 -9.36319,3.71299 -3.747007,1.24904 -6.865143,2.54472 -9.363191,3.79371 -2.498048,1.24903 -4.0570384,2.1199 -4.6815955,2.74438 -0.6245571,0.62458 -2.7910833,1.92024 -6.5380902,3.79371 -3.74716202,1.87354 -4.9621039,5.25501 -3.7129896,10.25108 11.2411763,19.9843 19.6439743,35.31137 25.2644723,45.92806 5.620677,10.61662 10.297624,29.06182 14.044785,55.29126 0,4.99607 -0.951429,7.5067 -2.8251,7.5067 -1.873491,0 -3.432662,-1.29569 -4.681596,-3.79371 -1.249114,-6.24513 -2.200724,-15.25529 -2.825099,-27.12097 -0.624558,-11.86568 -3.054415,-20.61253 -7.42598,-26.23308 -2.623062,-3.37237 -5.189403,-5.08518 -7.587413,-5.08518 -1.598846,0 -3.1020703,0.76122 -4.6008783,2.26008 -4.9959403,1.24899 -5.6842188,7.14111 -1.9372119,17.75778 3.7470072,10.6167 4.6985912,25.94381 2.8251007,45.92807 -1.8734906,19.98433 6.6100255,39.38101 25.3451885,58.11635 9.992217,178.60973 48.097434,282.883288 114.2955,312.859731 23.73144,-26.229385 42.43993,-50.566681 56.17915,-73.049031 8.7429,27.47842 26.23664,49.912547 52.46616,67.39883 -8.74311,47.462751 -21.90359,113.367528 -39.38998,197.67633 -17.48618,84.30878 -16.1907,170.21783 3.79371,257.64919 19.98428,87.43136 29.94607,171.70062 29.94607,252.88688 0,82.43526 -13.07975,176.74698 -39.30926,282.91376 0,28.7273 -8.48357,44.66177 -25.34519,47.78456 -16.86183,3.12253 -34.96293,9.96605 -54.32265,20.58275 -19.35991,10.61669 -42.138109,18.41173 -68.367442,23.40793 l -46.815954,0 c -1.249115,31.2256 10.008489,46.816 33.739773,46.816 l 355.962693,0 c 27.47832,-9.9921 36.22522,-38.0551 26.23308,-84.26872 l 0,-56.17915 c 19.98454,-113.66077 29.60189,-199.56976 28.97759,-257.64916 -0.62481,-58.07944 -5.90927,-108.65713 -15.90141,-151.74826 -9.99214,-43.09122 -2.19706,-109.94758 23.40798,-200.50144 25.60477,-90.55394 38.42137,-156.37797 38.42137,-197.59562 0,-52.458792 -14.98343,-106.1546135 -44.95933,-161.111456 7.49365,-64.949034 18.75169,-122.451094 33.73951,-172.411864 l 22.43963,0 0,-82.41222 c 17.48605,-12.49014 26.23295,-35.00501 26.23295,-67.47955 0,-9.48798 -0.80846,-17.45841 -2.42151,-24.05372 0.35335,-32.48745 0.28464,-63.54641 -0.32287,-92.74402 -26.30036,-129.91741 -96.6723,-194.85123 -211.1561,-194.85123 -8.50888,-4.55849 -23.97961,-11.19998 -46.41237,-19.93714 -22.43276,-8.73714 -38.51896,-16.3044 -48.18815,-22.76224 -9.66927,-6.45789 -21.86758,-10.61179 -36.56488,-12.51116 -3.67432,-0.47485 -7.3356,-0.72646 -11.05825,-0.72646 z m 1.21076,9.8475 c 8.36692,0 14.70974,3.46763 19.12997,10.25108 6.18841,9.49691 3.53148,17.98985 -8.07172,25.58734 20.11206,0 38.06146,2.30244 53.91907,6.86096 15.8576,4.55852 29.99979,12.39157 42.37651,23.40797 12.37664,11.01639 16.7993,24.11424 13.31833,39.30926 -3.48086,15.19503 -12.32611,47.10649 -26.63666,95.73056 -14.31055,48.62405 -16.86981,77.04152 -7.58741,85.39876 l -4.60088,4.60088 c -17.0179,-7.59749 -16.83972,-38.76837 0.56502,-93.47048 17.40466,-54.70208 26.07164,-86.98386 26.07164,-96.86059 0,-9.87676 -3.27241,-18.6356 -9.84749,-26.23308 -6.57516,-7.59752 -18.33623,-13.3133 -35.35412,-17.11204 -13.09067,-2.92217 -28.04548,-4.35873 -44.79803,-4.35873 -5.02569,0 -10.22318,0.14051 -15.57841,0.40359 -3.48096,0.17099 -6.78895,0.24202 -10.00893,0.24202 -18.24582,0 -32.35242,-2.74394 -42.21508,-8.23315 -9.07165,-5.049 -13.32533,-7.50711 -13.88335,-7.91028 2.32068,1.13959 8.68716,2.80593 19.12997,5.08518 10.44281,2.27924 19.36876,3.65596 26.71738,4.03586 0.31956,0.0181 0.6499,0 0.96861,0 7.01309,0 13.84303,-4.03294 20.50216,-12.02686 -3.95365,0.67534 -7.58822,1.04932 -10.8161,1.04932 -11.29749,0 -18.09558,-4.15756 -20.50216,-12.43044 -3.0942,-10.63651 2.30035,-17.83346 16.22415,-21.6322 3.97823,-1.08536 7.63083,-1.69506 10.97753,-1.69506 z m -4.03586,5.08518 c -3.86773,0 -8.46856,1.19159 -13.88335,3.47084 -3.86766,7.59754 -4.3049,13.41772 -1.21076,17.59634 2.61816,3.53575 7.48028,5.32733 14.52909,5.32733 1.28158,0 2.60775,-0.0444 4.03586,-0.16143 7.73537,-3.039 12.06051,-6.08202 12.83403,-9.12104 0.77354,-3.039 0.3363,-5.8969 -1.21076,-8.55602 -1.54703,-2.65912 -3.13443,-4.77644 -4.68159,-6.29594 -1.54703,-1.5195 -4.99775,-2.26008 -10.41252,-2.26008 z m 164.74374,68.36744 c 93.59833,0 148.58002,64.56353 164.82445,193.72119 0.18338,15.50699 0.27482,31.24715 0.32286,47.05811 -2.62582,0.18106 -5.317,0.56502 -7.91028,0.56502 l -11.70412,0 0,172.25042 -134.87825,0 0,-156.51058 3.30941,0 0,-2.90581 c 0,-6.98768 -1.13725,-13.12133 -3.30941,-18.3228 l 0,-9.52463 c -2.02777,0.0602 -4.109,0.11055 -5.97307,0.16144 -2.79444,-3.05067 -6.18469,-5.58263 -10.25108,-7.58741 -0.0845,-0.0416 -0.15704,-0.12037 -0.24202,-0.16144 -0.23247,-0.11701 -0.46689,-0.19191 -0.72645,-0.24202 -5.68978,-2.63128 -12.59878,-4.32611 -20.6636,-5.00447 0.0664,-0.57504 0.0896,-1.10333 -0.0806,-1.61434 -15.60804,-28.7406 -9.01214,-14.27281 -9.68606,0 -16.75706,-19.03946 -18.0234,-48.42397 -3.63227,-88.22386 14.69732,-40.64668 26.71736,-77.63777 35.99986,-111.06682 l 4.60088,-12.59187 z m -48.02672,254.98552 c 0.0493,-0.0103 0.11185,0.0103 0.16144,0 -0.56662,0.5363 -1.21448,1.08052 -1.77578,1.61434 7.6758,0.0103 16.55058,0.4843 22.68152,0.4843 l 15.09411,0 0,167.73027 -24.37658,28.08957 -54.32265,0 -7.5067,-26.23307 c 14.98816,-26.22944 24.34241,-50.56669 28.08958,-73.04904 -2.49805,-33.72345 -3.36895,-59.01233 -2.74439,-75.87413 0.42939,-11.59246 8.63289,-19.14792 24.69945,-22.76224 z m 139.23711,179.1921 24.29574,0 -5.56936,18.72638 -37.45276,0 18.72638,-18.72638 z m -177.98134,39.38998 35.59626,0 -26.23307,31.80256 -9.36319,-31.80256 z m 140.44786,0 50.60966,0 c -4.9962,17.48636 -14.95786,63.04276 -29.94607,136.734873 29.97655,52.4587953 44.95946,104.939675 44.95946,157.398467 0,41.21765 -13.16064,107.04168 -39.38997,197.59562 -26.22926,90.55386 -34.0246,157.75435 -23.40798,201.47004 10.61662,43.71567 16.24533,94.29338 16.86989,151.74827 0.62438,57.45492 -8.3858,129.85932 -27.12097,217.2906 l -138.67209,0 c 18.73535,-74.94114 28.08958,-154.87738 28.08958,-239.81069 0,-84.93331 -9.96179,-172.32068 -29.94607,-262.25006 -19.98428,-89.92941 -20.59184,-176.79002 -1.8565,-260.47429 18.73517,-83.684278 32.42247,-151.067483 41.16576,-202.277216 19.98428,-9.992216 56.18645,-42.468724 108.6453,-97.425614 z m -116.152,1101.62782 69.33605,0 0,33.65919 c -2.4979,6.24506 -26.22771,18.79819 -71.19254,37.53335 2.49804,-28.7273 3.10543,-52.45737 1.85649,-71.19254 z"
       id="path2880" />
  </g>
</svg>
