<?xml version="1.0" encoding="UTF-8" standalone="no"?>
<!-- Created with Inkscape (http://www.inkscape.org/) -->
<svg
   xmlns:dc="http://purl.org/dc/elements/1.1/"
   xmlns:cc="http://web.resource.org/cc/"
   xmlns:rdf="http://www.w3.org/1999/02/22-rdf-syntax-ns#"
   xmlns:svg="http://www.w3.org/2000/svg"
   xmlns="http://www.w3.org/2000/svg"
   xmlns:sodipodi="http://sodipodi.sourceforge.net/DTD/sodipodi-0.dtd"
   xmlns:inkscape="http://www.inkscape.org/namespaces/inkscape"
   width="1800"
   height="1800"
   id="svg2"
   sodipodi:version="0.32"
   inkscape:version="0.44"
   version="1.0"
   sodipodi:docbase="/home/rosmord/Travail/Gsigns/Ramessides/Fontes"
   sodipodi:docname="US1E162A.svg">
  <defs
     id="defs4" />
  <sodipodi:namedview
     id="base"
     pagecolor="#ffffff"
     bordercolor="#666666"
     borderopacity="1.0"
     inkscape:pageopacity="0.0"
     inkscape:pageshadow="2"
     inkscape:zoom="0.29239931"
     inkscape:cx="430.04088"
     inkscape:cy="670.4927"
     inkscape:document-units="px"
     inkscape:current-layer="layer1"
     width="1800px"
     height="1800px"
     inkscape:window-width="1280"
     inkscape:window-height="959"
     inkscape:window-x="0"
     inkscape:window-y="0" />
  <metadata
     id="metadata7">
    <rdf:RDF>
      <cc:Work
         rdf:about="">
        <dc:format>image/svg+xml</dc:format>
        <dc:type
           rdf:resource="http://purl.org/dc/dcmitype/StillImage" />
        <dc:title>Sign US1E162A</dc:title>
        <dc:creator>
          <cc:Agent>
            <dc:title>Serge Rosmorduc</dc:title>
          </cc:Agent>
        </dc:creator>
        <dc:description>Hard to read sign on Israel Stela, l. 9 and 10, as determinative for SAy.
Variously interpreted (Seth animal with a curved tail, E24 dog). I think it might be a griffon.</dc:description>
        <cc:license
           rdf:resource="http://creativecommons.org/licenses/by-sa/2.5/" />
      </cc:Work>
      <cc:License
         rdf:about="http://creativecommons.org/licenses/by-sa/2.5/">
        <cc:permits
           rdf:resource="http://web.resource.org/cc/Reproduction" />
        <cc:permits
           rdf:resource="http://web.resource.org/cc/Distribution" />
        <cc:requires
           rdf:resource="http://web.resource.org/cc/Notice" />
        <cc:requires
           rdf:resource="http://web.resource.org/cc/Attribution" />
        <cc:permits
           rdf:resource="http://web.resource.org/cc/DerivativeWorks" />
        <cc:requires
           rdf:resource="http://web.resource.org/cc/ShareAlike" />
      </cc:License>
    </rdf:RDF>
  </metadata>
  <g
     inkscape:label="Calque 1"
     inkscape:groupmode="layer"
     id="layer1">
    <path
       style="fill:black;fill-opacity:1;fill-rule:evenodd;stroke:none;stroke-width:60;stroke-linecap:round;stroke-linejoin:round;stroke-miterlimit:4;stroke-dasharray:none;stroke-opacity:1"
       d="M 1464.9475,-6.0625 C 1435.0301,-4.5339456 1384.243,2.9536896 1382.0927,40.867474 C 1384.7122,65.237656 1408.4148,75.133811 1428.9475,64.15625 C 1486.2812,34.278328 1539.3325,76.164758 1562.2912,128.75 C 1609.6073,284.35248 1546.1538,460.15713 1441.635,584.75 C 1333.1435,705.24202 1137.6747,638.60829 1025.2912,632.71875 C 925.08557,627.46715 841.40166,648.2372 702.04119,660.9375 C 687.33999,629.2806 680.3222,594.49063 672.00994,560.75 C 652.74464,432.55161 601.83783,319.91877 540.82244,207.40625 C 512.84558,154.02031 499.08914,107.64165 506.47869,87.875 C 514.30423,61.843538 492.04926,42.830697 467.25994,49.5 C 424.10952,67.508247 390.2692,103.72895 345.19744,117.84375 C 213.59854,147.35075 91.292675,243.93234 21.291193,359.25 C 4.7778435,388.25735 -6.2090105,420.61245 8.5724425,452.375 C 41.868046,498.94162 81.042725,468.58142 116.79119,445.75 C 148.94573,425.98733 194.06774,402.6507 270.50994,398.84375 C 309.78392,478.28843 311.85938,634.09925 305.97869,724.8125 C 298.75899,836.18147 310.80039,936.00352 334.38494,1042.2812 C 337.65439,1122.8519 282.48641,1222.8917 259.85369,1319.7812 C 230.76251,1444.319 218.90117,1561.6367 141.38494,1652.125 C 92.490555,1713.398 95.651355,1774.4734 179.66619,1792.5 C 244.66294,1798.0505 296.35708,1774.8031 316.29119,1709.4688 C 345.92575,1552.8088 396.5646,1430.6674 441.57244,1271.7188 C 448.56691,1248.9884 458.85826,1224.5643 481.60369,1184.6562 C 505.90549,1355.3067 549.12325,1522.9287 506.57244,1715.3125 C 498.78811,1774.6796 539.6807,1802.7917 594.00994,1801.9062 C 651.75303,1795.126 682.78308,1762.9704 672.47869,1703.1562 C 643.50268,1538.8167 690.55817,1380.3986 663.91619,1214.125 C 653.69095,1169.7075 666.77162,1101.928 660.32244,1041.2812 C 759.81203,961.40493 940.69901,959.97189 1063.385,954.125 C 1029.9512,1098.8929 1004.7875,1239.3109 957.41619,1371.5 C 916.53865,1485.9056 889.76452,1607.815 822.41619,1710.5938 C 804.03337,1734.3253 799.80018,1762.6077 816.85369,1788.0938 C 879.97675,1837.591 970.05271,1812.465 995.82245,1736.6875 C 1023.1062,1618.279 1071.3161,1414.7725 1140.4162,1324.2188 C 1177.9141,1213.9762 1208.6217,1101.9455 1249.3538,992.21875 C 1315.9582,1099.0362 1367.1196,1204.0269 1416.7288,1310.1562 C 1457.8837,1438.841 1389.6302,1595.1084 1338.76,1713.25 C 1319.2344,1776.3574 1361.9077,1808.8855 1419.1038,1816.8438 C 1486.7316,1819.4573 1527.2621,1788.7839 1548.385,1725.1562 C 1548.4633,1724.8345 1548.5362,1724.5116 1548.6038,1724.1875 C 1559.4306,1686.1704 1538.9879,1650.115 1540.6038,1612.4062 C 1549.7849,1512.1398 1576.9958,1381.8328 1578.9475,1276.8438 C 1561.317,1202.3382 1525.8425,1128.3891 1499.3225,1055.9688 C 1474.3497,990.11468 1459.7553,926.82177 1480.4475,859 C 1494.7723,809.35218 1486.9556,762.91497 1483.2288,722.71875 C 1472.1571,681.90565 1489.3856,647.57904 1498.3225,609.90625 C 1606.6201,474.10439 1672.9504,286.42145 1619.5412,110.78125 C 1619.4804,110.60358 1619.4179,110.42649 1619.3538,110.25 C 1594.8486,43.329414 1535.7212,-2.0653445 1464.9475,-6.0625 z M 445.69744,131.78125 C 451.97835,166.12865 469.59186,200.76026 487.66619,235.25 C 559.65519,345.25523 583.66209,449.8105 613.69744,574.9375 C 629.08553,612.36542 628.88496,722.57646 687.66619,722.5625 C 843.24464,709.81676 928.10027,687.69681 1022.135,692.625 C 1097.0948,696.55333 1282.1793,756.40964 1421.135,677.0625 C 1421.1022,733.34845 1433.4916,784.05357 1423.135,840.78125 C 1389.9162,916.5952 1417.9285,1001.1012 1442.6038,1075.5 C 1471.1633,1158.4735 1508.4139,1241.1216 1518.8225,1280.0312 C 1516.3642,1374.8251 1490.418,1502.488 1480.8538,1606.9375 C 1475.2233,1642.9175 1495.7518,1676.0813 1489.9475,1711.6562 C 1477.3922,1751.7524 1428.8582,1772.6639 1395.1038,1746.125 C 1418.2047,1676.5347 1452.3207,1590.8342 1473.26,1514.7812 C 1493.2099,1433.4989 1502.0764,1351.01 1471.1038,1284.75 C 1417.1076,1169.2354 1360.4561,1052.7415 1283.01,933 C 1094.0765,849.76167 849.57245,884.77311 660.54119,965.90625 C 635.53223,979.42047 596.69437,1006.6238 599.66619,1039.5625 C 606.15968,1083.2423 589.74025,1159.3633 605.44744,1227.5938 C 631.42489,1393.5742 580.56366,1553.5299 614.82244,1719.8125 C 622.48995,1743.5191 566.1431,1752.766 565.16619,1728.2812 C 618.90862,1485.2971 547.55846,1283.4567 531.10369,1092.3125 C 525.62338,1062.447 494.81777,1056.1108 475.94744,1078.7188 C 439.1915,1134.4825 405.76861,1192.1777 383.85369,1255.375 C 339.88969,1410.6373 288.20632,1535.0481 257.32244,1698.3125 C 248.02914,1732.3492 195.74399,1743.2633 169.44744,1724.9688 C 265.85653,1631.3493 291.28727,1459.6822 318.25994,1333.4375 C 337.72031,1250.1286 399.89727,1145.3909 394.32244,1037.375 C 369.20156,933.00175 362.45425,835.54828 365.85369,728.71875 C 372.34717,628.55279 379.35405,455.83188 313.04119,352.15625 C 251.04435,299.26489 121.48212,374.8254 64.728693,407.53125 C 125.69945,259.22325 312.58805,196.76607 445.69744,131.78125 z M 1124.1662,957.625 C 1147.5729,959.79128 1171.1155,962.95549 1194.7912,967.0625 C 1155.0759,1063.0081 1116.0951,1208.2511 1089.385,1292.3438 C 1005.8179,1405.6838 964.15453,1606.9057 937.35369,1723.2188 C 925.73833,1748.0632 892.89045,1759.5893 867.32244,1751.3438 C 940.84334,1643.1979 971.94129,1513.9944 1013.885,1391.75 C 1064.6775,1250.0139 1090.0713,1103.8481 1124.1662,957.625 z "
       id="path2767"
       sodipodi:nodetypes="cscccccssscsssscscssssccssssccsssscccssccscssscccccssccccscscssscscssscccssscsccccccscsc" />
    <path
       transform="matrix(3.568565,0,0,3.568565,-2031.9,-1733.192)"
       style="fill:black;fill-opacity:1;stroke:none;stroke-width:10;stroke-linecap:round;stroke-linejoin:round;stroke-miterlimit:4;stroke-opacity:1"
       d="M 681.63822,541.591 C 681.63822,544.80694 676.15715,547.41697 669.40369,547.41697 C 662.65022,547.41697 657.16915,544.80694 657.16915,541.591 C 657.16915,538.37507 662.65022,535.76504 669.40369,535.76504 C 676.15715,535.76504 681.63822,538.37507 681.63822,541.591 z "
       id="path6325" />
  </g>
</svg>
