<?xml version="1.0" encoding="UTF-8" standalone="no"?>
<!-- Created with Inkscape (http://www.inkscape.org/) -->
<svg
   xmlns:dc="http://purl.org/dc/elements/1.1/"
   xmlns:cc="http://creativecommons.org/ns#"
   xmlns:rdf="http://www.w3.org/1999/02/22-rdf-syntax-ns#"
   xmlns:svg="http://www.w3.org/2000/svg"
   xmlns="http://www.w3.org/2000/svg"
   xmlns:sodipodi="http://sodipodi.sourceforge.net/DTD/sodipodi-0.dtd"
   xmlns:inkscape="http://www.inkscape.org/namespaces/inkscape"
   width="1800"
   height="1800"
   id="svg2"
   sodipodi:version="0.32"
   inkscape:version="0.46"
   version="1.0"
   sodipodi:docname="US1F53VARA.svg"
   inkscape:output_extension="org.inkscape.output.svg.inkscape">
  <defs
     id="defs4">
    <inkscape:perspective
       sodipodi:type="inkscape:persp3d"
       inkscape:vp_x="0 : 526.18109 : 1"
       inkscape:vp_y="0 : 1000 : 0"
       inkscape:vp_z="744.09448 : 526.18109 : 1"
       inkscape:persp3d-origin="372.04724 : 350.78739 : 1"
       id="perspective10" />
    <inkscape:perspective
       id="perspective2516"
       inkscape:persp3d-origin="372.04724 : 350.78739 : 1"
       inkscape:vp_z="744.09448 : 526.18109 : 1"
       inkscape:vp_y="0 : 1000 : 0"
       inkscape:vp_x="0 : 526.18109 : 1"
       sodipodi:type="inkscape:persp3d" />
  </defs>
  <sodipodi:namedview
     id="base"
     pagecolor="#ffffff"
     bordercolor="#666666"
     borderopacity="1.0"
     inkscape:pageopacity="0.0"
     inkscape:pageshadow="2"
     inkscape:zoom="0.14794634"
     inkscape:cx="1289.9229"
     inkscape:cy="987.15909"
     inkscape:document-units="px"
     inkscape:current-layer="layer1"
     showgrid="false"
     inkscape:window-width="1280"
     inkscape:window-height="912"
     inkscape:window-x="1280"
     inkscape:window-y="22" />
  <metadata
     id="metadata7">
    <rdf:RDF>
      <cc:Work
         rdf:about="">
        <dc:format>image/svg+xml</dc:format>
        <dc:type
           rdf:resource="http://purl.org/dc/dcmitype/StillImage" />
        <dc:creator>
          <cc:Agent>
            <dc:title>S. Rosmorduc</dc:title>
          </cc:Agent>
        </dc:creator>
        <dc:description>From C. Ziegler, &quot;Le Mastaba d'Akhethetep&quot;, p. 180
See also IFA0 146, 1</dc:description>
        <dc:title>US1F53VARA</dc:title>
      </cc:Work>
    </rdf:RDF>
  </metadata>
  <g
     inkscape:label="Calque 1"
     inkscape:groupmode="layer"
     id="layer1"
     style="display:inline">
    <path
       style="opacity:1;fill:#000000;fill-opacity:1;fill-rule:evenodd;stroke:none;stroke-width:60;stroke-linecap:butt;stroke-linejoin:miter;marker:none;stroke-miterlimit:4;stroke-dasharray:none;stroke-dashoffset:0;stroke-opacity:1;visibility:visible;display:inline;overflow:visible;enable-background:accumulate"
       d="M 1577.8438,248.59375 C 1466.265,266.7171 1366.3279,327.33164 1258.9895,361.42128 C 1132.7624,413.06562 923.37244,433.16444 864.45914,457.28467 C 738.57006,524.08428 657.84933,649.41866 568.66301,756.39084 C 525.80647,857.24981 412.06787,856.77634 318.30665,895.16345 C 220.26771,934.21695 199.8221,1051.9307 138.75009,1127.5431 C 90.307924,1212.087 6.8685462,1283.1069 2.3086677,1386.496 C -4.0389197,1454.8115 -51.914677,1539.1662 3.1498207,1597.8465 C 65.30997,1640.8171 132.99933,1728.3842 214.03329,1669.9056 C 289.84606,1632.8734 449.76595,1654.9696 448.96875,1555.9062 C 448.06595,1443.7215 553.44242,1415.9669 635.29032,1411.4111 C 730.40777,1391.4013 801.23164,1291.1267 760.99978,1196.2619 C 743.80265,1164.0778 676.46587,1220.3925 710.43619,1256.9035 C 705.96283,1358.9183 584.11511,1354.361 511.01459,1369.5038 C 421.09946,1389.6328 384.98113,1470.4655 386.5699,1552.717 C 310.37621,1581.9267 225.2776,1619.5222 143.4375,1629.2812 C 173.13256,1561.8293 329.98075,1536.1661 258.90625,1452.8438 C 181.07605,1439.8649 140.48701,1521.79 89.357904,1566.4252 C 29.165239,1609.0397 13.49916,1439.117 82.59419,1457.8449 C 147.78447,1462.9808 222.13523,1330.5711 130.59505,1337.8489 C 110.17422,1372.8608 36.025127,1463.2659 65.35295,1370.4944 C 77.851791,1300.5931 136.76301,1251.5224 168.89728,1190.1358 C 219.95356,1116.893 256.33129,1033.5 313.75,965 C 419.60435,917.88943 537.30648,897.63392 636.64472,834.5998 C 759.83819,772.39945 878.74784,677.14555 1022.3191,674.7491 C 1177.5458,691.36263 1336.682,714.59345 1489.9366,670.20404 C 1583.9612,651.20303 1671.4302,607.24534 1765.9062,591.46875 C 1745.886,671.00656 1654.3285,704.50092 1589.7812,744.84375 C 1365.6614,864.2947 1111.1771,943.22432 854.99084,913.35293 C 830.4983,918.59609 782.50649,891.04562 775.82539,921.14493 C 764.64272,951.9337 757.32347,981.40002 794.0573,995.78677 C 965.69445,1131.4724 1137.3316,1267.1581 1308.9688,1402.8438 C 1327.1527,1380.8026 1345.6182,1344.2164 1378.3589,1353.0135 C 1392.6576,1372.8175 1448.3495,1382.7731 1424.7862,1411.5854 C 1368.1179,1524.9319 1311.4496,1638.2785 1254.7812,1751.625 C 1089.3542,1611.1562 923.92708,1470.6875 758.5,1330.2188 C 743.79792,1352.549 699.37961,1377.3053 742.0173,1394.9545 C 919.42899,1545.5833 1096.834,1696.22 1274.25,1846.8438 C 1352.7353,1689.8885 1431.182,1532.9139 1509.6875,1375.9688 C 1332.0005,1243.6695 1154.335,1111.3416 976.65625,979.03125 C 1238.5151,977.51961 1490.5454,878.52704 1710.9757,742.88689 C 1779.9459,703.88898 1869.2196,611.55152 1805.1593,533.28305 C 1732.2499,516.92445 1657.9528,560.82461 1587.5123,580.19367 C 1489.81,611.32379 1388.4856,637.2377 1285.25,636.1875 C 1377.4385,552.68578 1462.0003,460.04956 1567.7188,392.69759 C 1619.7198,368.58983 1662.0554,257.73031 1577.8438,248.59375 z M 1563.2812,310.78125 C 1503.7996,377.71252 1419.216,417.34567 1358.3488,483.91205 C 1297.4991,527.80025 1238.2089,627.27973 1179.3121,629.76775 C 1071.4561,615.52288 957.08409,599.57689 855.18541,649.39444 C 779.41182,680.3766 709.46336,723.34982 638.71875,764.09375 C 713.86804,674.4916 782.72755,571.88762 886.61718,513.56167 C 1042.7535,490.9566 1197.6558,455.28004 1343.6,393.62781 C 1417.0308,366.73986 1487.71,331.43053 1563.2812,310.78125 z M 1786.8125,587.03125 L 1785.7812,587.21875 L 1786.8125,587.03125 L 1786.8125,587.03125 z M 1712.603,620.36447 C 1622.8252,663.05858 1521.944,686.61145 1426.0438,712.91642 C 1333.0506,738.42404 1189.3445,765.96426 1146.0772,774.54411 C 1046.2861,794.33256 944.75948,762.45854 847.97911,774.50909 C 807.69193,779.52542 691.44596,815.08236 747.20768,866.5777 C 801.3568,826.20424 869.37916,804.32897 938.678,818.55108 C 978.7178,826.76839 1019.5134,825.36843 1059.6226,822.58745 C 1155.4213,815.88665 1294.2089,781.00944 1407.9814,751.90897 C 1456.8038,735.95535 1747.715,675.71551 1712.603,620.36447 z M 430.28125,929.46875 C 393.11282,930.4671 285.46628,959.47585 340.15625,1004.375 C 302.25166,1024.5044 212.47108,1161.8945 305.53125,1130.0312 C 365.66667,1047.6143 493.75667,1128.4288 557.66053,1043.0757 C 537.56388,1003.5109 608.97103,963.00214 528.69256,953.11426 C 497.68572,939.56832 464.37074,929.60249 430.28125,929.46875 z M 495.42796,1035.4198 C 495.42796,1041.1504 482.14243,1046.6497 449.61809,1048.8124 C 424.00812,1050.5153 358.99814,1054.6677 358.99814,1041.2571 C 358.99814,1024.0559 397.69972,1007.4062 415.15625,1007.4062 C 439.06106,1007.4062 495.42796,1019.0966 495.42796,1035.4198 z"
       id="path3294"
       sodipodi:nodetypes="cccccccccscccccccccccccccccccccccccccccccccccccccccccccccccssscsscccccccccssss" />
  </g>
</svg>
