<?xml version="1.0" encoding="UTF-8" standalone="no"?>
<svg
   xmlns:dc="http://purl.org/dc/elements/1.1/"
   xmlns:cc="http://creativecommons.org/ns#"
   xmlns:rdf="http://www.w3.org/1999/02/22-rdf-syntax-ns#"
   xmlns:svg="http://www.w3.org/2000/svg"
   xmlns="http://www.w3.org/2000/svg"
   xmlns:sodipodi="http://sodipodi.sourceforge.net/DTD/sodipodi-0.dtd"
   xmlns:inkscape="http://www.inkscape.org/namespaces/inkscape"
   id="svg4140"
   version="1.1"
   inkscape:version="0.48.0 r9654"
   width="568.15009"
   height="1827.1219"
   sodipodi:docname="US1M31AEXTU.svg">
  <metadata
     id="metadata4158">
    <rdf:RDF>
      <cc:Work
         rdf:about="">
        <dc:format>image/svg+xml</dc:format>
        <dc:type
           rdf:resource="http://purl.org/dc/dcmitype/StillImage" />
        <dc:title>US1M31AEXTU</dc:title>
        <dc:creator>
          <cc:Agent>
            <dc:title>Serge Rosmorduc</dc:title>
          </cc:Agent>
        </dc:creator>
        <dc:description>
</dc:description>
      </cc:Work>
    </rdf:RDF>
  </metadata>
  <defs
     id="defs4156" />
  <sodipodi:namedview
     pagecolor="#ffffff"
     bordercolor="#666666"
     borderopacity="1"
     objecttolerance="10"
     gridtolerance="10"
     guidetolerance="10"
     inkscape:pageopacity="0"
     inkscape:pageshadow="2"
     inkscape:window-width="1290"
     inkscape:window-height="759"
     id="namedview4154"
     showgrid="false"
     inkscape:zoom="0.097158925"
     inkscape:cx="277.38583"
     inkscape:cy="917.42601"
     inkscape:window-x="1450"
     inkscape:window-y="132"
     inkscape:window-maximized="0"
     inkscape:current-layer="svg4140"
     fit-margin-top="0"
     fit-margin-left="0"
     fit-margin-right="0"
     fit-margin-bottom="0" />
  <path
     style="font-size:medium;font-style:normal;font-variant:normal;font-weight:normal;font-stretch:normal;text-indent:0;text-align:start;text-decoration:none;line-height:normal;letter-spacing:normal;word-spacing:normal;text-transform:none;direction:ltr;block-progression:tb;writing-mode:lr-tb;text-anchor:start;baseline-shift:baseline;color:#000000;fill:#000000;fill-opacity:1;stroke:none;stroke-width:70;marker:none;visibility:visible;display:inline;overflow:visible;enable-background:accumulate;font-family:Sans;-inkscape-font-specification:Sans"
     d="m 468.87099,371.86178 c 29.52368,94.21967 66.88622,192.15226 58.55528,292.21326 -34.20262,92.83327 -115.85371,157.63484 -186.46206,222.92625 l 0,194.19021 c 61.19881,0 122.39763,0 183.59643,0 37.01701,-8.8735 49.08354,7.2033 41.37066,43.0596 4.92697,32.829 1.34169,57.1459 -37.73885,45.9674 -38.01783,-13.5177 -69.33678,18.6673 -25.51902,41.5924 48.89675,59.5904 45.47203,143 51.66299,215.9559 13.00423,148.571 -47.11518,319.6292 -187.82745,388.04 -103.2432,43.7585 -200.20837,-47.8192 -248.58128,-130.7672 -69.31231,-107.6919 -61.40989,-239.9363 -64.3538,-362.5014 -19.33907,-70.5697 64.67081,-97.7027 62.45802,-152.3197 -37.10619,0 -74.21237,0 -111.3185499,0 0,-29.6757 0,-59.3513 0,-89.027 74.9890399,0 149.9780499,0 224.9670899,0 L 227.4589,913.1272 C 217.31353,887.20552 192.67086,868.48393 163.76137,851.22228 99.354732,791.79403 1.8139101,735.27277 0.0788101,640.11125 -2.8207899,481.08469 74.99781,334.2371 116.88608,183.03724 144.56673,117.20875 159.44371,12.039643 244.52988,1.2887476e-4 379.98249,-0.21047613 433.11695,257.75899 468.87099,371.86178 z M 186.3083,221.56542 C 148.70129,362.7902 79.76326,499.48607 79.44737,648.12374 124.06621,729.60635 204.98379,783.02456 276.1762,839.67092 341.62853,780.20015 418.5921,723.17346 452.52619,638.90805 444.38488,550.30685 416.22364,464.99945 389.71832,380.50559 350.97821,277.64926 320.74649,164.33689 245.78182,81.237279 216.07894,122.8967 203.0906,173.86891 186.3083,221.56542 z m -2.49763,973.83108 c 57.59689,0 115.19378,0 172.79068,0 23.57453,-4.5637 72.63998,15.3968 58.78388,-25.178 -77.51609,0 -155.0322,0 -232.54829,0 0.32457,8.3927 0.64915,16.7853 0.97373,25.178 z m -53.27711,75.9512 c -22.5471,82.9869 -3.61181,170.621 -0.89763,255.1966 17.96457,98.1686 76.86484,209.2221 180.76003,233.9998 103.79196,-22.0367 159.01355,-135.0324 174.43421,-231.5857 5.21966,-88.6602 7.80074,-183.528 -26.60068,-266.7917 -106.22963,0 -212.45927,0 -318.6889,0 -5.45953,1.5427 -6.70842,3.5707 -9.00703,9.181 z"
     id="path4963"
     inkscape:connector-curvature="0"
     sodipodi:nodetypes="scccccccccccccccccsccsccccccccccccccccccc" />
</svg>
