<?xml version="1.0" encoding="UTF-8" standalone="no"?>
<svg
   xmlns:dc="http://purl.org/dc/elements/1.1/"
   xmlns:cc="http://web.resource.org/cc/"
   xmlns:rdf="http://www.w3.org/1999/02/22-rdf-syntax-ns#"
   xmlns:svg="http://www.w3.org/2000/svg"
   xmlns="http://www.w3.org/2000/svg"
   xmlns:sodipodi="http://sodipodi.sourceforge.net/DTD/sodipodi-0.dtd"
   xmlns:inkscape="http://www.inkscape.org/namespaces/inkscape"
   width="18.119801"
   height="17.977446"
   id="svg2"
   sodipodi:version="0.32"
   inkscape:version="0.44"
   sodipodi:docname="US22A143AVARA.svg"
   sodipodi:docbase="C:\Program Files\JSesh\fonteUS22\US22_34">
  <metadata
     id="metadata9">
    <rdf:RDF>
      <cc:Work
         rdf:about="">
        <dc:format>image/svg+xml</dc:format>
        <dc:type
           rdf:resource="http://purl.org/dc/dcmitype/StillImage" />
        <cc:license
           rdf:resource="http://creativecommons.org/licenses/GPL/2.0/" />
        <dc:creator>
          <cc:Agent>
            <dc:title>Serge Thomas</dc:title>
          </cc:Agent>
        </dc:creator>
        <dc:date>19/12/06</dc:date>
        <dc:publisher>
          <cc:Agent>
            <dc:title>Serge Rosmorduc</dc:title>
          </cc:Agent>
        </dc:publisher>
        <dc:title>US22A143AVARA</dc:title>
        <dc:description>FCD p. 143 =(nDw) miller . Urk.1811,10.</dc:description>
      </cc:Work>
      <cc:License
         rdf:about="http://creativecommons.org/licenses/GPL/2.0/">
        <cc:permits
           rdf:resource="http://web.resource.org/cc/Reproduction" />
        <cc:permits
           rdf:resource="http://web.resource.org/cc/Distribution" />
        <cc:requires
           rdf:resource="http://web.resource.org/cc/Notice" />
        <cc:permits
           rdf:resource="http://web.resource.org/cc/DerivativeWorks" />
        <cc:requires
           rdf:resource="http://web.resource.org/cc/ShareAlike" />
        <cc:requires
           rdf:resource="http://web.resource.org/cc/SourceCode" />
      </cc:License>
    </rdf:RDF>
  </metadata>
  <defs
     id="defs7" />
  <sodipodi:namedview
     inkscape:window-height="480"
     inkscape:window-width="640"
     inkscape:pageshadow="2"
     inkscape:pageopacity="0.0"
     guidetolerance="10.0"
     gridtolerance="10.0"
     objecttolerance="10.0"
     borderopacity="1.0"
     bordercolor="#666666"
     pagecolor="#ffffff"
     id="base" />
  <path
     style="fill:#000000; stroke:none"
     d="M 17.326679,11.978185 C 17.231774,10.730881 17.089419,9.8021817 16.899612,9.192087 C 16.709805,8.581993 16.296297,7.768534 15.659087,6.75171 L 14.682937,7.768534 C 14.669379,8.5142047 14.60159,9.2768227 14.479571,10.056388 C 14.357552,10.835953 14.235534,11.517225 14.113515,12.100204 L 17.326679,11.978185 z M 8.66334,4.067296 C 8.880262,3.9859493 8.9955017,4.033401 9.009059,4.209651 C 9.1446357,4.0876317 9.263265,4.0198433 9.364947,4.006286 C 9.4666297,3.9927287 9.490356,4.10119 9.436126,4.33167 C 9.6259327,4.4943613 9.8462443,4.44352 10.097061,4.179146 C 10.347878,3.914772 10.571579,3.9215507 10.768165,4.199482 C 10.964751,4.477414 10.941025,4.7994083 10.696987,5.165465 C 10.56141,5.5179637 10.717323,5.6569297 11.164726,5.582363 C 11.612129,5.5077957 12.100204,5.6874347 12.628952,6.12128 C 12.805202,6.2432987 13.39496,6.6364703 14.398226,7.300795 L 15.272695,6.182289 C 14.228755,4.718063 13.279719,3.823258 12.425588,3.497874 C 11.72059,3.6198927 11.246072,3.4775373 11.002034,3.070808 C 10.866457,3.2063847 10.710544,3.199606 10.534295,3.050472 C 10.358046,2.9013373 10.269921,2.7047513 10.269921,2.460714 C 10.269921,2.216676 10.212301,1.9726383 10.097061,1.728601 C 9.981821,1.484563 9.8394653,1.3998277 9.669994,1.474395 C 9.500524,1.5489617 9.4056207,1.684538 9.385284,1.881124 C 9.3649473,2.07771 9.286991,2.1488877 9.151415,2.094657 C 8.6362243,2.325137 8.337956,2.48105 8.25661,2.562396 C 8.175264,2.643742 8.1820427,2.799655 8.276946,3.030135 C 8.4260807,2.8267703 8.6396137,2.6708573 8.917545,2.562396 C 9.195477,2.4539347 9.29377,2.4607137 9.212424,2.582733 C 8.670118,2.813213 8.398965,3.043693 8.398965,3.274173 L 8.66334,4.067296 z M 8.54132,3.599556 C 8.459974,3.3961913 8.4701423,3.226721 8.571825,3.091145 C 8.6735077,2.9555683 8.8802617,2.840328 9.192087,2.745424 L 9.436126,2.48105 L 9.497135,2.562396 L 9.273434,2.806434 C 9.246318,3.023356 9.1785293,3.202995 9.070068,3.345351 C 8.9616073,3.4877057 8.785358,3.5724407 8.54132,3.599556 z M 8.643003,3.213163 C 8.6023297,3.2402783 8.588772,3.3080667 8.60233,3.416528 C 8.7243487,3.430086 8.826031,3.389413 8.907377,3.294509 C 8.7718003,3.375855 8.6836757,3.3487397 8.643003,3.213163 z M 8.907377,3.294509 C 9.0158377,3.1860477 9.0904047,3.05725 9.131078,2.908116 C 8.9955013,2.9623467 8.8802613,3.0165773 8.785358,3.070808 C 8.934492,3.0436927 8.975165,3.1182597 8.907377,3.294509 z M 9.781845,2.440377 C 9.6869417,2.4268197 9.612375,2.3319163 9.558145,2.155667 C 9.5039137,1.979417 9.5039137,1.8302827 9.558145,1.708264 C 9.612375,1.5862453 9.6835523,1.535404 9.771677,1.55574 C 9.8598017,1.5760767 9.9377583,1.650644 10.005547,1.779442 C 10.073335,1.9082393 10.114008,2.0844887 10.127565,2.30819 C 10.141123,2.5318913 10.10045,2.6708573 10.005547,2.725088 C 9.9106437,2.7793187 9.8394657,2.7691503 9.792013,2.694583 C 9.7445617,2.6200163 9.7411723,2.535281 9.781845,2.440377 z M 9.63949,1.931965 C 9.63949,2.0404263 9.663216,2.1387193 9.710668,2.226844 C 9.7581193,2.3149687 9.7954027,2.325137 9.822518,2.257349 C 9.849634,2.189561 9.8767493,2.2132867 9.903864,2.328526 C 9.9309793,2.4437667 9.9580947,2.4641033 9.98521,2.389536 C 10.012325,2.3149687 10.012325,2.2132863 9.98521,2.084489 C 9.9580947,1.955691 9.9072533,1.8540087 9.832686,1.779442 C 9.7581193,1.7048747 9.6937207,1.7557157 9.63949,1.931965 z M 8.988723,1.748937 C 9.2869917,1.206631 9.5920387,0.993098 9.903864,1.108338 C 10.21569,1.223578 10.442781,1.55913 10.585136,2.114994 C 10.727491,2.6708573 10.808837,2.6471313 10.829174,2.043816 C 10.84951,1.4405007 10.656313,0.98631933 10.249584,0.681272 C 9.8428547,0.37622467 9.3785053,0.40334 8.856536,0.762618 C 8.3345667,1.121896 8.073582,1.4710053 8.073582,1.809946 C 8.073582,2.1488873 8.378629,2.128551 8.988723,1.748937 z M 9.863192,2.54206 C 9.8496333,2.609848 9.8699697,2.6505207 9.924201,2.664078 C 9.9784317,2.677636 10.005547,2.6539103 10.005547,2.592901 C 10.005547,2.5318917 9.9580953,2.5149447 9.863192,2.54206 z M 9.604779,13.239046 C 9.536991,13.211931 9.526823,13.127196 9.574275,12.98484 C 9.6217263,12.842485 9.6318943,12.628952 9.604779,12.344241 C 9.5776637,12.05953 9.686125,11.740926 9.930163,11.388427 C 10.282662,10.222469 10.621603,9.3886733 10.946987,8.88704 C 10.875874,8.1316542 10.731416,6.4507524 10.767436,6.1605802 C 10.476122,6.1729404 10.04283,7.422814 9.832686,7.870216 C 9.6225427,8.3176187 9.4293463,8.6430027 9.253097,8.846368 C 8.9683863,9.7276153 8.6023297,10.473286 8.154927,11.08338 L 7.748198,11.815493 C 7.6939673,12.167992 7.551612,12.425587 7.321132,12.588279 C 7.0906513,12.750971 6.9381277,12.896716 6.863561,13.025514 C 6.7889937,13.154311 6.717816,13.205152 6.650028,13.178037 C 6.568682,13.16448 6.5415667,13.110249 6.568682,13.015346 C 6.5957973,12.920442 6.6703643,12.822149 6.792383,12.720467 C 6.9144017,12.618784 7.0025263,12.52727 7.056757,12.445924 C 7.0838723,12.378135 7.0838723,12.337462 7.056757,12.323905 C 7.0296423,12.310348 6.9821907,12.323905 6.914402,12.364578 C 6.6432493,12.608616 6.4737787,12.811981 6.40599,12.974672 C 6.338202,13.137364 6.2297407,13.354287 6.080606,13.62544 C 6.026376,13.693228 5.9789243,13.716954 5.938251,13.696617 C 5.8975783,13.676281 5.8840207,13.645776 5.897578,13.605103 C 5.8026747,13.672891 5.7484443,13.645776 5.734887,13.523757 C 5.639983,13.591546 5.59931,13.571209 5.612868,13.462748 C 5.5450793,13.476305 5.5044063,13.462747 5.490849,13.422074 C 5.4637337,13.381401 5.4705123,13.33395 5.511185,13.279719 C 5.6332037,13.10347 5.741665,12.893327 5.836569,12.649288 C 5.9314723,12.405251 6.026376,12.23578 6.12128,12.140877 C 6.256856,12.0053 6.4263267,11.873113 6.629692,11.744315 C 6.8330567,11.615518 7.077094,11.503667 7.361804,11.408764 C 7.605842,10.351267 8.0329083,9.3683367 8.643003,8.459974 C 8.8056943,7.9447833 9.0293953,7.226228 9.314106,6.304308 C 9.4225673,5.5721947 9.7818453,4.9824367 10.39194,4.535034 C 10.419055,4.4265733 10.38516,4.3859003 10.290257,4.413015 C 10.168238,4.589265 10.04283,4.728231 9.914033,4.829913 C 9.785235,4.9315957 9.6666057,4.941764 9.558145,4.860418 C 9.449683,4.779072 9.337832,4.7282307 9.222592,4.707894 C 9.107352,4.687558 9.0565107,4.6401063 9.070068,4.565539 C 9.083626,4.4909723 9.0632897,4.480804 9.009059,4.535034 C 8.9819443,4.5621493 8.9446607,4.5621493 8.897208,4.535034 C 8.8497567,4.5079187 8.826031,4.4536883 8.826031,4.372343 C 8.758243,4.372343 8.6870653,4.416405 8.612498,4.504529 C 8.5379313,4.5926543 8.4328593,4.5418133 8.297282,4.352006 C 8.1481487,3.7554693 8.0057933,3.341961 7.870216,3.111481 C 7.6126207,2.338695 7.6193997,1.715043 7.890553,1.240525 C 8.1617057,0.766007 8.5480987,0.41011867 9.049732,0.17286 C 9.5513653,-0.064398667 10.002157,-0.057619667 10.402108,0.193197 C 10.802059,0.444013 11.069822,0.772786 11.205399,1.179516 C 11.340976,1.5862453 11.340976,2.0675417 11.205399,2.623405 C 11.449436,3.016577 11.778209,3.1826583 12.191718,3.121649 C 12.605226,3.0606397 13.310224,3.4436433 14.306711,4.27066 C 15.303198,5.0976767 16.248845,6.3924323 17.14365,8.154927 C 17.550379,9.2124243 17.774081,10.710545 17.814754,12.649288 C 18.18081,13.178037 18.221483,14.520244 17.936773,16.675911 C 18.194368,17.340236 18.146916,17.692735 17.794416,17.733408 C 17.387687,17.692735 17.109755,17.672398 16.960621,17.672398 C 16.811488,17.672398 16.438652,17.71985 15.842115,17.814754 C 15.340482,17.787638 15.150675,17.699513 15.272695,17.550379 C 15.272695,17.252112 15.567574,17.069084 16.157331,17.001295 C 16.747088,16.933506 17.116534,16.777593 17.265669,16.533556 C 17.211438,15.516732 17.035188,14.221976 16.736921,12.649288 L 14.540581,12.649288 C 14.43212,13.666112 13.903372,15.035435 12.954336,16.757257 C 13.144143,17.313121 13.062797,17.618168 12.710299,17.672398 C 12.154435,17.699514 11.713811,17.743577 11.388427,17.804586 C 11.063044,17.865595 10.717324,17.882542 10.351267,17.855427 C 10.066556,17.936773 9.958095,17.855427 10.025883,17.611389 C 10.297036,17.367352 10.974918,17.055526 12.059531,16.675911 C 12.276453,16.581008 12.46626,16.235288 12.628952,15.638751 C 12.791644,15.042214 13.042461,14.14063 13.381402,12.933999 C 13.313613,12.5815 13.381401,12.290011 13.584766,12.059531 C 13.91015,10.730881 14.113515,9.3005487 14.19486,7.768534 C 13.04246,6.92796 12.283232,6.35176 11.917175,6.039934 C 11.727368,6.189068 11.875685,6.4331057 11.862128,6.772047 C 11.848571,7.1109883 11.875686,7.5990637 11.943474,8.236273 C 11.957032,8.3447343 11.97059,8.48709 11.984147,8.66334 C 11.699436,9.192088 11.407947,9.7310043 11.109678,10.280089 C 10.81141,10.829174 10.594488,11.252851 10.458911,11.551119 C 10.567372,11.822272 10.641939,12.076478 10.682612,12.313737 C 10.723285,12.550996 10.736843,12.764529 10.723286,12.954336 C 10.723286,13.10347 10.665666,13.289888 10.550426,13.513589 C 10.435185,13.73729 10.35045,13.957602 10.29622,14.174524 C 10.269105,14.228755 10.228432,14.262649 10.174201,14.276207 C 10.147086,14.303322 10.11997,14.282986 10.092854,14.215198 C 10.011509,14.282986 9.9572783,14.269428 9.930163,14.174524 C 9.8488177,14.242313 9.8013657,14.215198 9.787807,14.093179 C 9.7606923,14.133852 9.6767987,14.14402 9.636126,14.123683 C 9.595452,14.103347 9.631894,14.052506 9.645452,13.97116 C 9.753914,13.686449 9.845428,13.459358 9.919994,13.289887 C 9.9945613,13.120417 10.031845,12.859432 10.031845,12.506933 C 10.031845,12.425587 10.018288,12.381525 9.991173,12.374746 C 9.9640577,12.367967 9.9301633,12.398472 9.88949,12.46626 C 9.8623747,12.547606 9.848817,12.669625 9.848817,12.832317 C 9.848817,12.995009 9.8217017,13.117028 9.767471,13.198374 C 9.713241,13.27972 9.6590103,13.293277 9.604779,13.239046 z M 0,13.991496 L 9.151415,13.991496 L 9.151415,17.977446 L 0,17.977446 L 0,13.991496 z M 0.630431,14.682937 L 0.630431,17.306341 L 8.520984,17.306341 L 8.520984,14.682937 L 0.630431,14.682937 z "
     id="path4"
     sodipodi:nodetypes="csccsccccscsscscccccssssscscsccccsccccscccscccsccsssssssccssssssccssssssccssccsscccscccsssssssssssscsssssscccccssssssssccsssscssccccsccscccccscccsccccsscscssssssssssssssssccccccccccc" />
</svg>
