<?xml version="1.0" encoding="UTF-8" standalone="no"?>
<svg
   xmlns:dc="http://purl.org/dc/elements/1.1/"
   xmlns:cc="http://web.resource.org/cc/"
   xmlns:rdf="http://www.w3.org/1999/02/22-rdf-syntax-ns#"
   xmlns:svg="http://www.w3.org/2000/svg"
   xmlns="http://www.w3.org/2000/svg"
   xmlns:sodipodi="http://inkscape.sourceforge.net/DTD/sodipodi-0.dtd"
   xmlns:inkscape="http://www.inkscape.org/namespaces/inkscape"
   width="11.23pt"
   height="17.977417"
   id="svg1333"
   sodipodi:version="0.32"
   inkscape:version="0.43"
   sodipodi:docname="O18F.svg"
   sodipodi:docbase="C:\Program Files\JSesh\fonts"
   version="1.0">
  <metadata
     id="metadata1340">
    <rdf:RDF>
      <cc:Work
         rdf:about="">
        <dc:format>image/svg+xml</dc:format>
        <dc:type
           rdf:resource="http://purl.org/dc/dcmitype/StillImage" />
      </cc:Work>
    </rdf:RDF>
  </metadata>
  <defs
     id="defs1338" />
  <sodipodi:namedview
     inkscape:window-height="708"
     inkscape:window-width="1024"
     inkscape:pageshadow="2"
     inkscape:pageopacity="0.0"
     borderopacity="1.0"
     bordercolor="#666666"
     pagecolor="#ffffff"
     id="base"
     inkscape:zoom="29.972752"
     inkscape:cx="6.4030945"
     inkscape:cy="8.6485002"
     inkscape:window-x="-4"
     inkscape:window-y="-4"
     inkscape:current-layer="svg1333"
     showguides="true"
     inkscape:guide-bbox="true"
     showgrid="false"
     gridspacingx="0px"
     gridspacingy="0px" />
  <g
     id="g1350">
    <path
       sodipodi:nodetypes="cccccccsccccccccccccccccccccccccccccc"
       id="path1335"
       d="M 13.299325,17.446864 L 13.299325,16.746618 L 0.730533,16.746618 L 0.730533,17.446864 L 13.299325,17.446864 z M 0.873969,3.728496 L 12.425729,3.728496 C 7.1502418,2.3471907 3.6086904,1.4219436 2.8285936,1.4367337 C 2.2191118,1.4482891 1.0524148,1.6372798 0.873969,3.728496 z M 1.340227,4.5083575 L 1.3367029,5.29439 L 12.660365,5.29439 L 12.664478,4.559478 L 1.340227,4.5083575 z M 0.023845,4.499478 L 0.023845,3.808496 C 0.22702561,2.1485492 0.82506536,0.815422 2.668021,0.75162 C 3.7103138,0.68638467 10.874621,2.5842108 13.906014,3.688925 L 13.906014,4.539478 L 13.295225,4.5471465 L 13.30371,5.3121491 C 14.15621,5.2419954 14.143422,6.1713485 13.29822,6.084513 L 13.299325,16.235636 L 13.889879,16.235636 L 13.889879,17.977417 L 0.04041,17.977417 L 0.04041,16.235636 L 0.690533,16.235636 L 0.682621,6.084513 C -0.23475764,6.1063966 -0.25135312,5.2976542 0.684339,5.3431295 L 0.692251,4.499478 L 0.023845,4.499478 z M 12.668773,16.235636 L 12.667667,6.084513 L 1.333174,6.084513 L 1.340227,16.235636 L 12.668773,16.235636 z "
       style="fill:#000000;stroke:none" />
    <path
       id="path1495"
       d="M 4.4396103,9.0196723 C 4.3471307,9.2971107 4.3263227,9.4751336 4.3771863,9.5537411 C 4.4280503,9.6323491 4.4812259,9.8751078 4.5367135,10.282017 C 4.7864079,11.086589 5.0754063,11.685393 5.4037087,12.078431 C 5.7320105,12.471468 5.9955769,12.725787 6.1944079,12.841387 C 6.3932387,12.956986 6.6544931,12.90381 6.9781711,12.681859 C 7.2926019,12.90381 7.5816003,12.929242 7.8451663,12.758155 C 8.1087327,12.587067 8.3630513,12.293445 8.6081223,11.877288 C 8.8531927,11.461131 9.1190711,10.929374 9.4057571,10.282017 C 9.4612451,9.8751078 9.5167331,9.6300374 9.5722195,9.5468059 C 9.6277083,9.4635744 9.6045883,9.2878632 9.5028603,9.0196723 C 8.9294889,8.6682504 8.4393475,8.2983326 8.0324367,7.9099187 C 7.3295929,8.2243491 6.6221251,8.2335971 5.9100335,7.9376627 C 5.7435705,8.2983326 5.2534295,8.6590024 4.4396103,9.0196723 z M 5.9100335,11.627594 C 6.1874719,11.470378 6.4371665,11.368651 6.6591175,11.322411 L 6.9781711,11.461131 L 7.2972255,11.336283 C 7.4914323,11.373275 7.7365027,11.465754 8.0324367,11.613722 C 7.9029663,11.881912 7.6995119,12.055311 7.4220735,12.133919 C 7.1446345,12.212527 6.8856919,12.224086 6.6452455,12.168598 C 6.4047991,12.11311 6.1597283,11.932775 5.9100335,11.627594 z M 4.7447919,9.1722635 C 5.5031235,8.7006182 6.0949923,8.6220107 6.5203983,8.9364411 C 6.7146051,9.6577808 6.7007331,10.184913 6.4787823,10.51784 C 6.0996163,10.61032 5.9701451,10.762911 6.0903687,10.975613 C 6.2105915,11.188315 6.4094225,11.220683 6.6868615,11.072717 C 6.8810679,11.313163 7.0706505,11.313163 7.2556095,11.072717 C 7.5422963,11.220683 7.7457515,11.188315 7.8659751,10.975613 C 7.9861985,10.762911 7.8521027,10.61032 7.4636879,10.51784 C 7.2879775,10.184913 7.2787297,9.6577808 7.4359447,8.9364411 C 7.8705979,8.6127627 8.4624671,8.6867462 9.2115519,9.1583915 L 9.1699351,8.9503131 C 8.6520503,8.5896432 8.2312687,8.443988 7.9075903,8.5133475 C 7.5839123,8.582707 7.3665855,8.7329862 7.2556095,8.9641851 C 7.1538819,9.278615 7.1053305,9.6277248 7.1099551,10.011515 C 7.1145791,10.395305 7.2209303,10.62188 7.4290087,10.69124 C 7.6370875,10.760598 7.7087593,10.83227 7.6440239,10.906254 C 7.5792879,10.980237 7.4914323,10.987173 7.3804575,10.927062 C 7.2694819,10.86695 7.1746905,10.885445 7.0960831,10.982549 C 7.0174751,11.079653 6.9365555,11.079653 6.8533247,10.982549 C 6.7700927,10.885445 6.6753009,10.86695 6.5689495,10.927062 C 6.4625985,10.987173 6.3747433,10.980237 6.3053839,10.906254 C 6.2360239,10.83227 6.3053833,10.760598 6.5134623,10.69124 C 6.7215411,10.62188 6.8278923,10.397617 6.8325159,10.018451 C 6.8371399,9.6392848 6.7932121,9.287863 6.7007327,8.9641851 C 6.6082531,8.7329862 6.4071105,8.582707 6.0973047,8.5133475 C 5.7874983,8.443988 5.3459087,8.5942672 4.7725359,8.9641851 L 4.7447919,9.1722635 z M 5.8822895,15.012342 L 8.0463103,15.012342 L 7.7688711,13.19512 C 7.5469201,13.250608 7.2833535,13.172001 6.9781711,12.959298 C 6.6729891,13.172001 6.4094231,13.250608 6.1874727,13.19512 L 5.8822895,15.012342 z M 6.1874727,11.613722 C 6.7146049,11.761688 7.2278657,11.75244 7.7272551,11.585978 C 7.4498167,11.48425 7.2556099,11.47269 7.1446351,11.551298 C 7.0336591,11.629905 6.9203713,11.629905 6.8047719,11.551298 C 6.6891729,11.47269 6.4834065,11.493498 6.1874727,11.613722 z M 6.1874727,11.724697 C 6.4279191,11.955895 6.6914851,12.064559 6.9781711,12.050687 C 7.2648579,12.036815 7.5607927,11.928151 7.8659751,11.724697 C 7.2741057,11.918903 6.7146049,11.918903 6.1874727,11.724697 z M 9.6693243,9.0474163 C 9.9005227,9.3156067 9.9097707,9.5606774 9.6970675,9.7826283 C 9.6415811,10.087811 9.6901323,10.245025 9.8427219,10.254273 C 9.9953139,10.263521 10.203393,9.9999549 10.466959,9.4635739 C 10.730527,8.9271931 10.737463,8.5572752 10.487767,8.3538203 C 10.238072,8.1503654 10.087793,8.1573014 10.036931,8.3746283 C 9.9860667,8.5919552 9.9652587,8.7722902 9.9745067,8.9156331 C 9.9837539,9.0589766 9.8820267,9.1029043 9.6693243,9.0474163 z M 10.07161,8.9225691 L 10.085482,9.3664707 L 9.8635299,9.9074757 L 9.9883771,10.004579 C 10.497015,9.1722635 10.656543,8.6682504 10.466959,8.4925395 C 10.277376,8.3168286 10.136345,8.3861883 10.043865,8.7006187 L 10.085482,8.7283619 C 10.177961,8.534155 10.27044,8.4971632 10.362919,8.6173867 C 10.455399,8.7376102 10.432279,8.9526251 10.293559,9.2624315 C 10.154841,9.5722374 10.048491,9.787252 9.9745067,9.9074757 L 9.9328891,9.8658603 C 10.090105,9.5791734 10.171025,9.3572224 10.175649,9.2000075 C 10.180273,9.0427926 10.20108,8.9410654 10.238072,8.8948259 L 10.07161,8.9225691 z M 3.7043983,8.8948259 C 3.7413903,8.9410654 3.7621983,9.0427926 3.7668223,9.2000075 C 3.7714457,9.3572224 3.8523651,9.5791734 4.0095807,9.8658603 L 3.9679647,9.9074757 C 3.9032291,9.787252 3.8015017,9.5722374 3.6627823,9.2624315 C 3.5240633,8.9526251 3.4986315,8.7376102 3.5864871,8.6173867 C 3.6743425,8.4971632 3.7645099,8.534155 3.8569895,8.7283619 L 3.8986055,8.7006187 C 3.8153735,8.3861883 3.6789663,8.3168286 3.4893839,8.4925395 C 3.2998009,8.6682504 3.4547039,9.1722635 3.9540927,10.004579 L 4.0928119,9.9074757 L 3.8708615,9.3664707 L 3.8847335,8.9225691 L 3.7043983,8.8948259 z M 4.2870191,9.0474163 C 4.0650681,9.1029043 3.9610287,9.0589766 3.9749007,8.9156331 C 3.9887727,8.7722902 3.9702767,8.5919552 3.9194127,8.3746283 C 3.8685491,8.1573014 3.7182703,8.1503654 3.4685759,8.3538203 C 3.2188809,8.5572752 3.2235049,8.9271931 3.4824479,9.4635739 C 3.7413903,9.9999549 3.9494689,10.263521 4.1066839,10.254273 C 4.2638987,10.245025 4.3147625,10.087811 4.2592751,9.7826283 C 4.0373241,9.5606774 4.0465721,9.3156067 4.2870191,9.0474163 z M 4.3702503,10.51784 C 4.3240107,10.638063 4.2384673,10.700487 4.1136199,10.705111 C 3.9887723,10.709735 3.8662371,10.582576 3.7460143,10.323633 C 3.0986579,9.3988384 2.9021391,8.7561062 3.1564575,8.3954363 C 3.4107759,8.0347664 3.6535345,7.912231 3.8847335,8.0278299 C 4.1159319,8.1434294 4.2130353,8.40006 4.1760439,8.7977219 L 4.1760439,8.7977219 C 4.5737051,7.4845134 5.5077475,6.8279091 6.9781711,6.8279091 C 8.4485951,6.8279091 9.3872623,7.4845134 9.7941723,8.7977219 C 9.7479323,8.40006 9.8380995,8.1434294 10.064674,8.0278299 C 10.291248,7.912231 10.534007,8.0347664 10.79295,8.3954363 C 11.051892,8.7561062 10.857686,9.3988384 10.21033,10.323633 C 10.090107,10.582576 9.9675707,10.709735 9.8427219,10.705111 C 9.7178755,10.700487 9.6323323,10.638063 9.5860915,10.51784 C 9.1421911,11.590602 8.6243059,12.399797 8.0324367,12.945426 L 8.3653639,15.275909 L 5.5354919,15.275909 L 5.9239055,12.945426 C 5.1470777,12.418293 4.6291927,11.609098 4.3702503,10.51784 L 4.3702503,10.51784 z M 6.5203983,9.5468059 C 6.0857443,9.7965003 5.5123715,9.7271406 4.8002799,9.3387267 C 5.4753801,9.0797843 5.9123457,9.0011768 6.1111767,9.1029043 C 6.3100075,9.2046318 6.4464147,9.352599 6.5203983,9.5468059 z M 5.0777183,9.3525987 L 5.5909799,9.5468059 C 5.4707563,9.4450779 5.4707563,9.3341024 5.5909799,9.2138795 L 5.0777183,9.3525987 z M 6.3539351,9.4913179 L 5.9377775,9.1861355 C 6.0302569,9.343351 6.0210089,9.4728222 5.9100335,9.5745491 L 6.3539351,9.4913179 z M 8.0463103,9.5745491 C 7.9353343,9.4728222 7.9260863,9.338727 8.0185663,9.1722635 L 7.6024079,9.4913179 L 8.0463103,9.5745491 z M 8.3653639,9.2000075 C 8.4855867,9.3294784 8.4855867,9.4450779 8.3653639,9.5468059 L 8.8647527,9.3525987 L 8.3653639,9.2000075 z M 7.4359447,9.5468059 C 7.5099281,9.352599 7.6463353,9.2046318 7.8451663,9.1029043 C 8.0439971,9.0011768 8.4763387,9.0751603 9.1421911,9.3248547 C 8.4393467,9.7132686 7.8705979,9.7872523 7.4359447,9.5468059 z "
       style="fill:#000000;stroke:none" />
  </g>
</svg>
