<?xml version="1.0" encoding="UTF-8" standalone="no"?>
<svg
   xmlns:dc="http://purl.org/dc/elements/1.1/"
   xmlns:cc="http://web.resource.org/cc/"
   xmlns:rdf="http://www.w3.org/1999/02/22-rdf-syntax-ns#"
   xmlns:svg="http://www.w3.org/2000/svg"
   xmlns="http://www.w3.org/2000/svg"
   xmlns:sodipodi="http://sodipodi.sourceforge.net/DTD/sodipodi-0.dtd"
   xmlns:inkscape="http://www.inkscape.org/namespaces/inkscape"
   width="17.959938"
   height="7.783907"
   id="svg2"
   sodipodi:version="0.32"
   inkscape:version="0.45.1"
   sodipodi:docname="US685N1VARA.svg"
   inkscape:output_extension="org.inkscape.output.svg.inkscape"
   sodipodi:docbase="/Users/rosmord/Desktop">
  <metadata
     id="metadata9">
    <rdf:RDF>
      <cc:Work
         rdf:about="">
        <dc:format>image/svg+xml</dc:format>
        <dc:type
           rdf:resource="http://purl.org/dc/dcmitype/StillImage" />
        <dc:creator>
          <cc:Agent>
            <dc:title>S. Polis</dc:title>
          </cc:Agent>
        </dc:creator>
        <dc:description>Determinative for Hay.t &quot;portail&quot; in Wenamun.
</dc:description>
      </cc:Work>
    </rdf:RDF>
  </metadata>
  <defs
     id="defs7" />
  <sodipodi:namedview
     inkscape:window-height="774"
     inkscape:window-width="1280"
     inkscape:pageshadow="2"
     inkscape:pageopacity="0.0"
     guidetolerance="10.0"
     gridtolerance="10.0"
     objecttolerance="10.0"
     borderopacity="1.0"
     bordercolor="#666666"
     pagecolor="#ffffff"
     id="base"
     inkscape:zoom="36.915495"
     inkscape:cx="8.979969"
     inkscape:cy="3.8919535"
     inkscape:window-x="0"
     inkscape:window-y="22"
     inkscape:current-layer="svg2" />
  <path
     style="fill:#000000; stroke:none"
     d="M 8.729519,0.920447 C 11.404243,0.920447 13.66783,1.658347 15.079374,2.263908 L 2.742758,2.263908 C 4.837652,1.272623 6.881697,0.920447 8.729519,0.920447 z M 17.219944,3.1368151 L 17.219944,6.343889 L 15.259934,5.143907 L 2.699999,5.143907 L 0.72,6.343889 L 0.72,3.220935 L 17.219944,3.1368151 z M 8.729561,0 C 6.297608,0 3.561965,0.571479 0.812684,2.263908 L 0,2.263908 L 0,7.783907 L 2.699999,6.04389 L 15.259934,6.04389 L 17.959938,7.783907 L 17.959938,2.263908 L 17.088255,2.263908 C 16.152227,1.667696 12.884011,0 8.729561,0 z "
     id="path4"
     sodipodi:nodetypes="ccccccccccccccccccccc" />
</svg>
