<?xml version="1.0" encoding="UTF-8" standalone="no"?>
<svg
   xmlns:dc="http://purl.org/dc/elements/1.1/"
   xmlns:cc="http://creativecommons.org/ns#"
   xmlns:rdf="http://www.w3.org/1999/02/22-rdf-syntax-ns#"
   xmlns:svg="http://www.w3.org/2000/svg"
   xmlns="http://www.w3.org/2000/svg"
   xmlns:sodipodi="http://sodipodi.sourceforge.net/DTD/sodipodi-0.dtd"
   xmlns:inkscape="http://www.inkscape.org/namespaces/inkscape"
   width="19.17"
   height="13.92"
   id="svg3400"
   sodipodi:version="0.32"
   inkscape:version="0.46"
   sodipodi:docname="V107.svg"
   inkscape:output_extension="org.inkscape.output.svg.inkscape">
  <metadata
     id="metadata3407">
    <rdf:RDF>
      <cc:Work
         rdf:about="">
        <dc:format>image/svg+xml</dc:format>
        <dc:type
           rdf:resource="http://purl.org/dc/dcmitype/StillImage" />
      </cc:Work>
    </rdf:RDF>
  </metadata>
  <defs
     id="defs3405">
    <inkscape:perspective
       sodipodi:type="inkscape:persp3d"
       inkscape:vp_x="0 : 6.96 : 1"
       inkscape:vp_y="0 : 1000 : 0"
       inkscape:vp_z="19.17 : 6.96 : 1"
       inkscape:persp3d-origin="9.585 : 4.64 : 1"
       id="perspective3409" />
  </defs>
  <sodipodi:namedview
     inkscape:window-height="708"
     inkscape:window-width="1024"
     inkscape:pageshadow="2"
     inkscape:pageopacity="0.0"
     guidetolerance="10.0"
     gridtolerance="10.0"
     objecttolerance="10.0"
     borderopacity="1.0"
     bordercolor="#666666"
     pagecolor="#ffffff"
     id="base"
     showgrid="false"
     showguides="true"
     inkscape:guide-bbox="true"
     inkscape:zoom="30.763635"
     inkscape:cx="5.8805279"
     inkscape:cy="8.6206051"
     inkscape:window-x="0"
     inkscape:window-y="26"
     inkscape:current-layer="svg3400" />
  <path
     style="fill:#000000; stroke:none"
     d="M 0.875 0 C 0.37499999 0.01 -0.285 0.7375 0.125 1.1875 C 1.325 2.3474999 2.54625 4.65 3.40625 7 C 4.2762499 9.3500002 4.8125 11.7975 4.8125 13.1875 L 4.8125 13.90625 L 14.375 13.90625 L 14.375 13.1875 C 14.375 11.7975 14.88 9.35 15.75 7 C 16.61 4.6500002 17.83125 2.3475 19.03125 1.1875 C 19.441249 0.73749994 18.8125 0 18.3125 0 C 18.202501 0 18.08 0.045 18 0.125 C 16.48 1.595 15.285 3.99875 14.375 6.46875 C 13.585 8.60875 13.03625 10.7775 12.90625 12.4375 L 6.25 12.4375 C 6.1199998 10.7775 5.6025 8.60875 4.8125 6.46875 C 3.9025001 3.99875 2.66625 1.595 1.15625 0.125 C 1.07625 0.045000003 0.985 0 0.875 0 z M 6.375 0 C 6.0396441 -0.0014413805 5.7554463 0.014925728 5.5 0.0625 C 4.6550627 0.21986101 3.9510922 0.5021389 3.40625 0.90625 C 2.9793064 1.2884038 2.7689206 1.5785043 2.8125 1.8125 C 2.8524476 2.0269956 3.0123875 2.1279147 3.25 2.09375 C 4.0052171 1.5092263 4.8014878 1.1591908 5.65625 1 C 6.6780349 0.80970289 8.3430502 0.9905411 10.65625 1.59375 C 12.969452 2.1969593 14.719219 2.3831425 15.9375 2.15625 C 16.560732 2.1258076 16.447911 1.0462952 15.78125 1.21875 C 14.572793 1.4438129 12.785048 1.2487942 10.46875 0.65625 C 8.7315268 0.21184212 7.3810677 0.0043241415 6.375 0 z M 9.59375 2.875 C 8.0591068 2.875 6.305868 3.3679171 4.3125 4.34375 C 6.3058681 5.3112429 8.059107 5.7812502 9.59375 5.78125 C 11.128394 5.78125 12.881633 5.3112427 14.875 4.34375 C 12.889972 3.3679173 11.136733 2.8749999 9.59375 2.875 z M 9.59375 3.4375 C 10.836476 3.4375 12.169644 3.7432373 13.5625 4.34375 C 12.169644 4.9275816 10.836476 5.2187502 9.59375 5.21875 C 8.359363 5.21875 7.0574461 4.9275815 5.65625 4.34375 C 7.057446 3.7432374 8.3593632 3.4374999 9.59375 3.4375 z "
     id="path3402" />
</svg>
