<?xml version="1.0" encoding="UTF-8" standalone="no"?>
<svg
   xmlns:dc="http://purl.org/dc/elements/1.1/"
   xmlns:cc="http://creativecommons.org/ns#"
   xmlns:rdf="http://www.w3.org/1999/02/22-rdf-syntax-ns#"
   xmlns:svg="http://www.w3.org/2000/svg"
   xmlns="http://www.w3.org/2000/svg"
   xmlns:sodipodi="http://sodipodi.sourceforge.net/DTD/sodipodi-0.dtd"
   xmlns:inkscape="http://www.inkscape.org/namespaces/inkscape"
   width="19.17"
   height="13.92"
   id="svg3400"
   sodipodi:version="0.32"
   inkscape:version="0.46"
   sodipodi:docname="V109.svg"
   inkscape:output_extension="org.inkscape.output.svg.inkscape">
  <metadata
     id="metadata3407">
    <rdf:RDF>
      <cc:Work
         rdf:about="">
        <dc:format>image/svg+xml</dc:format>
        <dc:type
           rdf:resource="http://purl.org/dc/dcmitype/StillImage" />
      </cc:Work>
    </rdf:RDF>
  </metadata>
  <defs
     id="defs3405">
    <inkscape:perspective
       sodipodi:type="inkscape:persp3d"
       inkscape:vp_x="0 : 6.96 : 1"
       inkscape:vp_y="0 : 1000 : 0"
       inkscape:vp_z="19.17 : 6.96 : 1"
       inkscape:persp3d-origin="9.585 : 4.64 : 1"
       id="perspective3409" />
  </defs>
  <sodipodi:namedview
     inkscape:window-height="708"
     inkscape:window-width="1024"
     inkscape:pageshadow="2"
     inkscape:pageopacity="0.0"
     guidetolerance="10.0"
     gridtolerance="10.0"
     objecttolerance="10.0"
     borderopacity="1.0"
     bordercolor="#666666"
     pagecolor="#ffffff"
     id="base"
     showgrid="false"
     showguides="true"
     inkscape:guide-bbox="true"
     inkscape:zoom="30.592942"
     inkscape:cx="8.9438767"
     inkscape:cy="7.0067275"
     inkscape:window-x="-4"
     inkscape:window-y="-4"
     inkscape:current-layer="svg3400" />
  <path
     style="fill:#000000; stroke:none"
     d="M 0.875 0 C 0.37499999 0.01 -0.285 0.7375 0.125 1.1875 C 1.325 2.3474999 2.54625 4.65 3.40625 7 C 4.2762499 9.3500002 4.8125 11.7975 4.8125 13.1875 L 4.8125 13.90625 L 14.375 13.90625 L 14.375 13.1875 C 14.375 11.7975 14.88 9.35 15.75 7 C 16.61 4.6500002 17.83125 2.3475 19.03125 1.1875 C 19.441249 0.73749994 18.8125 0 18.3125 0 C 18.202501 0 18.08 0.045 18 0.125 C 16.48 1.595 15.285 3.99875 14.375 6.46875 C 13.585 8.60875 13.03625 10.7775 12.90625 12.4375 L 6.25 12.4375 C 6.1199998 10.7775 5.6025 8.60875 4.8125 6.46875 C 3.9025001 3.99875 2.66625 1.595 1.15625 0.125 C 1.07625 0.045000003 0.985 0 0.875 0 z M 6.375 0 C 6.0396441 -0.0014413805 5.7554463 0.014925728 5.5 0.0625 C 4.6550627 0.21986101 3.9510922 0.5021389 3.40625 0.90625 C 2.9793064 1.2884038 2.7689206 1.5785043 2.8125 1.8125 C 2.8524476 2.0269956 3.0123875 2.1279147 3.25 2.09375 C 4.0052171 1.5092263 4.8014878 1.1591908 5.65625 1 C 6.6780349 0.80970289 8.3430502 0.9905411 10.65625 1.59375 C 12.969452 2.1969593 14.719219 2.3831425 15.9375 2.15625 C 16.560732 2.1258076 16.447911 1.0462952 15.78125 1.21875 C 14.572793 1.4438129 12.785048 1.2487942 10.46875 0.65625 C 8.7315268 0.21184212 7.3810677 0.0043241415 6.375 0 z M 5.21875 2.15625 L 5.21875 3.03125 C 5.1331806 3.3246293 4.9686553 3.5013795 4.6875 3.5625 L 4.6875 4 C 4.9686554 4.0611207 5.1331804 4.2446711 5.21875 4.5625 L 5.8125 7.3125 L 6.59375 7.3125 L 6.59375 2.65625 C 10.028735 5.5655982 9.8007835 6.2365526 12.46875 6.28125 C 13.251094 6.2445786 13.736486 5.9863006 13.96875 5.65625 C 14.201011 5.3261974 14.259458 4.9863016 14.125 4.65625 C 13.990527 4.3261972 13.761437 4.1229316 13.4375 4.03125 C 13.113561 3.9395695 12.832125 3.9994047 12.59375 4.25 C 12.355381 4.5005954 12.309833 4.7623197 12.46875 5.03125 C 12.62766 5.3001822 12.849266 5.3783537 13.09375 5.25 C 13.33823 5.1216456 13.384461 4.8993537 13.25 4.59375 C 13.494477 4.5570776 13.592364 4.7141118 13.53125 5.0625 C 13.470133 5.410889 13.11663 5.7133277 12.46875 5.75 C 9.9139066 5.5958296 10.48811 4.972037 7.46875 2.625 L 7.46875 2.15625 L 5.21875 2.15625 z M 5.65625 2.65625 L 6.15625 2.65625 L 6.15625 6.9375 L 5.59375 4.5 C 5.483733 4.1088272 5.3450346 3.8858448 5.125 3.8125 L 5.125 3.75 C 5.3450346 3.6766552 5.4959569 3.4672762 5.59375 3.125 L 5.65625 2.65625 z M 9.59375 6.9375 C 8.9683347 6.9375002 8.437499 7.458259 8.4375 8.09375 C 8.4375003 8.729243 8.968335 9.21875 9.59375 9.21875 C 10.219163 9.21875 10.750001 8.729243 10.75 8.09375 C 10.75 7.458259 10.219163 6.9375 9.59375 6.9375 z M 9.59375 7.5625 C 9.9171437 7.5625 10.15625 7.801884 10.15625 8.09375 C 10.15625 8.385616 9.917144 8.625 9.59375 8.625 C 9.2703547 8.6250002 9.03125 8.385617 9.03125 8.09375 C 9.0312492 7.801885 9.270355 7.5625 9.59375 7.5625 z M 7.5 10.03125 C 6.8745858 10.03125 6.3437492 10.552009 6.34375 11.1875 C 6.3437501 11.822993 6.8745857 12.3125 7.5 12.3125 C 8.1254139 12.3125 8.6562508 11.822993 8.65625 11.1875 C 8.6562496 10.552009 8.1254138 10.03125 7.5 10.03125 z M 11.6875 10.03125 C 11.062085 10.03125 10.531249 10.552009 10.53125 11.1875 C 10.53125 11.822993 11.062085 12.3125 11.6875 12.3125 C 12.312913 12.3125 12.812501 11.822993 12.8125 11.1875 C 12.8125 10.552009 12.312913 10.03125 11.6875 10.03125 z M 7.5 10.65625 C 7.8233948 10.65625 8.0625 10.895634 8.0625 11.1875 C 8.0625004 11.479366 7.8233947 11.71875 7.5 11.71875 C 7.176605 11.71875 6.9375 11.479367 6.9375 11.1875 C 6.9374994 10.895635 7.1766049 10.65625 7.5 10.65625 z M 11.6875 10.65625 C 12.010894 10.65625 12.25 10.895634 12.25 11.1875 C 12.25 11.479366 12.010894 11.71875 11.6875 11.71875 C 11.364105 11.71875 11.09375 11.479367 11.09375 11.1875 C 11.093749 10.895635 11.364105 10.65625 11.6875 10.65625 z "
     id="path3402" />
</svg>
