<?xml version="1.0" encoding="UTF-8" standalone="no"?>
<svg
   xmlns:dc="http://purl.org/dc/elements/1.1/"
   xmlns:cc="http://creativecommons.org/ns#"
   xmlns:rdf="http://www.w3.org/1999/02/22-rdf-syntax-ns#"
   xmlns:svg="http://www.w3.org/2000/svg"
   xmlns="http://www.w3.org/2000/svg"
   xmlns:sodipodi="http://sodipodi.sourceforge.net/DTD/sodipodi-0.dtd"
   xmlns:inkscape="http://www.inkscape.org/namespaces/inkscape"
   width="1843.0499"
   height="1807.2672"
   id="svg3384"
   version="1.1"
   inkscape:version="0.48.0 r9654"
   sodipodi:docname="V116.svg">
  <metadata
     id="metadata3394">
    <rdf:RDF>
      <cc:Work
         rdf:about="">
        <dc:format>image/svg+xml</dc:format>
        <dc:type
           rdf:resource="http://purl.org/dc/dcmitype/StillImage" />
      </cc:Work>
    </rdf:RDF>
  </metadata>
  <defs
     id="defs3392" />
  <sodipodi:namedview
     pagecolor="#ffffff"
     bordercolor="#666666"
     borderopacity="1"
     objecttolerance="10"
     gridtolerance="10"
     guidetolerance="10"
     inkscape:pageopacity="0"
     inkscape:pageshadow="2"
     inkscape:window-width="1920"
     inkscape:window-height="1152"
     id="namedview3390"
     showgrid="false"
     fit-margin-top="0"
     fit-margin-left="0"
     fit-margin-right="0"
     fit-margin-bottom="0"
     inkscape:zoom="0.045078408"
     inkscape:cx="1491.7776"
     inkscape:cy="547.56512"
     inkscape:window-x="1280"
     inkscape:window-y="0"
     inkscape:window-maximized="1"
     inkscape:current-layer="svg3384" />
  <path
     style="fill:#000000;stroke:none"
     d="M 856.53125 0 C 767.68169 0 686.30045 26.844538 611.375 78.5625 C 536.44963 130.28047 481.09033 212.82641 447.9375 326.875 L 639.6875 339.46875 C 635.70911 360.68406 633.375 383.89801 633.375 411.75 C 633.375 497.94662 681.16249 595.32525 777.96875 704.0625 C 777.60961 704.75597 777.26372 705.43313 776.90625 706.125 C 527.73384 705.88065 278.54729 705.68561 29.375 705.53125 C 2.97875 704.20128 -17.015598 736.94218 -4.21875 759.90625 C 4.9336241 776.08487 19.916454 788.13367 31.34375 802.71875 C 125.02333 906.7228 234.48989 998.98754 361.65625 1059.2188 C 485.12443 1118.2126 621.5222 1145.5414 757.8125 1151.5312 C 766.89857 1174.305 776.88504 1199.2874 787.40625 1228.9375 L 532.8125 1807.2812 L 664.8125 1807.2812 L 856.53125 1329.5312 L 1045.125 1807.2812 L 1180.2812 1807.2812 L 925.6875 1228.9375 C 936.90396 1197.3281 947.20174 1171.2258 956.3125 1147.5312 C 1062.0021 1137.9997 1166.4036 1115.6478 1265.0625 1076.2188 C 1403.7028 1022.0054 1527.307 934.86017 1635.7188 833.78125 C 1647.2146 823.11649 1658.4961 812.25192 1669.75 801.34375 C 1683.437 862.19997 1673.9204 925.22934 1682.25 986.75 C 1686.4935 1018.8196 1694.4283 1052.3192 1715.7188 1077.5625 C 1731.8112 1095.6234 1755.4543 1108.6768 1780.125 1107.7188 C 1808.1344 1104.2144 1831.0965 1081.9627 1840.3438 1055.9688 C 1850.2405 1027.5801 1851.1272 996.95769 1851 967.125 C 1850.966 917.92364 1843.119 868.30186 1823.6562 823 C 1808.6805 788.7274 1787.6856 755.87719 1757.875 732.84375 C 1734.0621 714.76064 1704.0654 704.56331 1673.9688 707.21875 C 1427.0277 706.86096 1180.0975 706.54288 933.15625 706.28125 C 932.75835 705.53579 932.36912 704.80981 931.96875 704.0625 C 1030.1011 595.32525 1079.7188 497.94662 1079.7188 411.75 C 1079.7188 383.89801 1075.5855 360.68406 1070.2812 339.46875 L 1262 326.875 C 1228.8472 212.82641 1177.3073 130.28047 1101.7188 78.5625 C 1026.1304 26.844538 944.05475 0 856.53125 0 z M 857.25 43.53125 L 859.09375 43.53125 C 1017.8053 43.53125 1152.6122 162.04884 1200.2188 279.53125 L 1055.5312 300.78125 C 1019.2903 228.8721 946.33655 188.59375 849.5 188.59375 C 848.71182 188.59375 847.91618 188.58355 847.125 188.59375 C 753.60597 189.59778 680.32406 236.86424 654.1875 300.78125 L 511.75 268.375 C 573.44172 136.51477 716.1452 44.32444 857.25 43.53125 z M 856.53125 304.875 C 914.88027 304.875 944.5625 341.46739 944.5625 411.75 C 944.5625 475.40597 914.88027 543.59353 856.53125 619.1875 C 798.18228 543.59353 768.53125 475.40597 768.53125 411.75 C 768.53125 341.46739 798.18228 304.875 856.53125 304.875 z M 116 781.78125 L 740.9375 782.46875 C 722.5082 828.1919 711.02524 874.75968 711.96875 930.34375 C 710.49393 991.46751 717.2276 1033.6298 729.25 1073.625 C 606.39856 1065.4317 483.37464 1038.7632 373.71875 981.875 C 276.17234 931.85479 190.77582 861.17662 116 781.78125 z M 969.6875 782.71875 L 1577.8438 783.375 C 1466.3005 887.44607 1336.5674 975.71659 1190.75 1023.4375 C 1123.3015 1045.8703 1053.7064 1060.2218 983.25 1068.3125 C 993.22472 1030.5354 998.61736 989.54619 997.96875 930.34375 C 998.91055 874.8599 988.01077 828.36252 969.6875 782.71875 z M 856.53125 801.46875 C 900.43186 865.96937 917.21966 968.98749 871.15625 1076.1562 C 862.24151 1076.4074 853.3232 1076.5994 844.40625 1076.6875 C 813.09484 991.23315 807.34676 891.81841 856.53125 801.46875 z M 1753.0938 852.09375 L 1753.4062 852.78125 C 1772.9661 900.32781 1776.3531 953.12038 1773.2188 1004.0938 C 1772.7363 1010.0832 1771.8784 1016.0996 1770.4688 1021.875 C 1754.1424 991.81266 1755.9026 956.29044 1754.5 923 C 1754.1704 899.36297 1754.28 875.70967 1753.0938 852.09375 z "
     id="path3386" />
</svg>
