<?xml version="1.0" encoding ="US-ASCII" standalone="yes"?>
<svg width="18.100002" height="10.8">
<path style="fill:#000000; stroke:none" d=" M 17.185114 6.967349  Q 15.281151 2.788524 13.19174 2.541257  Q 11.102324 2.293988 10.434703 2.565984  Q 13.031022 4.989206 14.98443 10.429097  L 14.020079 10.8  Q 12.759028 6.472817 9.495083 3.060521  Q 8.58019 2.392895 7.690028 2.83798  Q 5.835525 4.197949 4.30246 4.371038  Q 2.769399 4.544125 1.3847 4.235041  Q 0 3.925955 0 2.219808  Q 0 0.488933 1.3847 0.192212  Q 2.769399 -0.104509 4.30246 0.056215  Q 5.835525 0.216939 7.690028 1.576912  Q 8.629646 1.799453 9.66817 1.700547  Q 13.970627 1.082376 15.392417 2.55362  Q 16.814205 4.024864 18.100002 6.423365  L 17.185114 6.967349  Z  M 6.874047 2.219808  Q 5.934431 1.379097 4.599181 1.082376  Q 3.263937 0.785655 2.126503 0.995832  Q 0.989071 1.20601 0.989071 2.219808  Q 0.989071 3.208881 2.126503 3.419059  Q 3.263937 3.629234 4.599181 3.332515  Q 5.934431 3.035794 6.874047 2.219808  Z "/></svg>
