<?xml version="1.0" encoding="UTF-8" standalone="no"?>
<svg
   xmlns:dc="http://purl.org/dc/elements/1.1/"
   xmlns:cc="http://creativecommons.org/ns#"
   xmlns:rdf="http://www.w3.org/1999/02/22-rdf-syntax-ns#"
   xmlns:svg="http://www.w3.org/2000/svg"
   xmlns="http://www.w3.org/2000/svg"
   xmlns:sodipodi="http://sodipodi.sourceforge.net/DTD/sodipodi-0.dtd"
   xmlns:inkscape="http://www.inkscape.org/namespaces/inkscape"
   width="17.9375"
   height="15.9375"
   id="svg2442"
   sodipodi:version="0.32"
   inkscape:version="0.46"
   sodipodi:docname="V120.svg"
   inkscape:output_extension="org.inkscape.output.svg.inkscape"
   version="1.0">
  <metadata
     id="metadata2449">
    <rdf:RDF>
      <cc:Work
         rdf:about="">
        <dc:format>image/svg+xml</dc:format>
        <dc:type
           rdf:resource="http://purl.org/dc/dcmitype/StillImage" />
      </cc:Work>
    </rdf:RDF>
  </metadata>
  <defs
     id="defs2447">
    <inkscape:perspective
       sodipodi:type="inkscape:persp3d"
       inkscape:vp_x="0 : 2.6400001 : 1"
       inkscape:vp_y="0 : 1000 : 0"
       inkscape:vp_z="17.92 : 2.6400001 : 1"
       inkscape:persp3d-origin="8.96 : 1.7600001 : 1"
       id="perspective2451" />
  </defs>
  <sodipodi:namedview
     inkscape:window-height="708"
     inkscape:window-width="1024"
     inkscape:pageshadow="2"
     inkscape:pageopacity="0.0"
     guidetolerance="10.0"
     gridtolerance="10.0"
     objecttolerance="10.0"
     borderopacity="1.0"
     bordercolor="#666666"
     pagecolor="#ffffff"
     id="base"
     showgrid="false"
     inkscape:zoom="31.560784"
     inkscape:cx="8.96875"
     inkscape:cy="7.96875"
     inkscape:window-x="-4"
     inkscape:window-y="-4"
     inkscape:current-layer="svg2442" />
  <path
     style="fill:#000000;stroke:none"
     d="M 0,0 C 1.3197211,2.6394423 3.349075,4.2771926 6.0625,4.9375 C 5.6582176,5.8915012 5.9559719,7.5333725 5.90625,8.25 C 5.7194941,8.5431707 5.844471,8.9553038 5.90625,9.25 C 5.8803731,10.273147 6.376085,11.048375 6.3125,12.125 C 6.2498069,13.214518 6.016175,13.878131 5.59375,14.15625 C 5.155783,14.40921 4.848356,14.659201 4.65625,14.875 C 4.4503865,15.091431 4.1702078,15.233577 3.8125,15.25 C 3.4410343,15.267054 3.2669859,15.356175 3.28125,15.5625 C 3.2892737,15.678558 3.4587437,15.811442 3.8125,15.9375 C 4.2665137,15.916655 4.7268606,15.843389 5.1875,15.71875 C 5.4049538,15.669957 5.567412,15.631948 5.71875,15.625 C 5.8976041,15.616788 6.054595,15.645801 6.15625,15.71875 C 6.2872038,15.816228 6.428654,15.851329 6.59375,15.84375 C 6.6625399,15.840591 6.713351,15.828554 6.78125,15.8125 C 7.0399766,15.761813 7.158877,15.490021 7.125,15 C 7.0288382,14.008328 7.2745571,12.826154 7.71875,11.9375 C 8.2396514,10.895384 7.7012669,10.149755 7.3125,8.71875 C 7.7505694,7.7844586 8.0666369,6.1669872 8.1875,5.21875 C 8.446487,5.2338424 8.699735,5.2803987 8.96875,5.28125 C 9.122933,5.2807636 9.255358,5.2551349 9.40625,5.25 C 9.162715,6.2202588 9.388379,7.6067737 9.34375,8.25 C 9.156994,8.5431708 9.281971,8.9553038 9.34375,9.25 C 9.317873,10.273147 9.844835,11.048375 9.78125,12.125 C 9.718557,13.214518 9.953675,13.878131 9.53125,14.15625 C 9.093283,14.40921 8.754606,14.659201 8.5625,14.875 C 8.3566366,15.091431 8.076458,15.233577 7.71875,15.25 C 7.3472836,15.267054 7.1732359,15.356175 7.1875,15.5625 C 7.1955233,15.678558 7.396244,15.811442 7.75,15.9375 C 8.2040142,15.916655 8.633111,15.843389 9.09375,15.71875 C 9.311204,15.669957 9.504912,15.631948 9.65625,15.625 C 9.835104,15.616788 9.960845,15.645801 10.0625,15.71875 C 10.193454,15.816228 10.366154,15.851329 10.53125,15.84375 C 10.60004,15.840591 10.650851,15.828554 10.71875,15.8125 C 10.977477,15.761813 11.065127,15.490021 11.03125,15 C 10.935088,14.008328 10.712057,12.826154 11.15625,11.9375 C 11.677151,10.895384 11.138767,10.149755 10.75,8.71875 C 11.233254,7.6880909 11.573065,5.8417374 11.65625,4.96875 C 14.481437,4.3427438 16.584699,2.7056025 17.9375,0 L 0,0 z M 1.59375,0.84375 L 16.34375,0.84375 C 14.630417,3.16375 12.150833,4.3395833 8.9375,4.40625 C 5.7508333,4.3395835 3.3070833,3.16375 1.59375,0.84375 z"
     id="path2444" />
</svg>
