<?xml version="1.0" encoding ="US-ASCII" standalone="yes"?>
<svg width="17.760004" height="7.92">
<path style="fill:#000000; stroke:none" d=" M 7.279994 0.44  Q 7.780001 0.44 7.899999 1.24  Q 7.92 1.759999 7.809997 2.16  Q 7.699999 2.56 7.279994 3.519997  Q 6.839995 2.58 6.729994 2.17  Q 6.619993 1.759999 6.619993 1.24  Q 6.759996 0.44 7.279994 0.44  Z  M 7.259993 7.459998  Q 6.759996 7.459998 6.599996 6.679996  Q 6.619993 6.139994 6.729994 5.729993  Q 6.839995 5.320001 7.259993 4.38  Q 7.68 5.34 7.799998 5.739995  Q 7.92 6.139994 7.879998 6.679996  Q 7.780001 7.459998 7.259993 7.459998  Z  M 10.480001 7.459998  Q 9.979999 7.459998 9.819998 6.679996  Q 9.840002 6.139994 9.950003 5.729993  Q 10.059999 5.320001 10.480001 4.38  Q 10.899998 5.34 11.019989 5.739995  Q 11.139989 6.139994 11.099991 6.679996  Q 11 7.459998 10.480001 7.459998  Z  M 10.480001 0.44  Q 11 0.44 11.099991 1.24  Q 11.139989 1.759999 11.019989 2.16  Q 10.899998 2.56 10.480001 3.519997  Q 10.059999 2.58 9.950003 2.17  Q 9.840002 1.759999 9.819998 1.24  Q 9.979999 0.44 10.480001 0.44  Z  M 13.699988 0.44  Q 14.199987 0.44 14.319989 1.24  Q 14.339985 1.759999 14.229993 2.16  Q 14.119987 2.56 13.699988 3.519997  Q 13.259993 2.58 13.14999 2.17  Q 13.03999 1.759999 13.03999 1.24  Q 13.179991 0.44 13.699988 0.44  Z  M 13.699988 7.48  Q 13.179991 7.48 13.03999 6.699993  Q 13.03999 6.159996 13.14999 5.749994  Q 13.259993 5.34 13.699988 4.400001  Q 14.119987 5.360001 14.229993 5.759995  Q 14.339985 6.159996 14.319989 6.699993  Q 14.199987 7.48 13.699988 7.48  Z  M 17.320004 3.96  Q 17.320004 4.460001 16.540003 4.600001  Q 16.020002 4.600001 15.610003 4.49  Q 15.200001 4.38 14.239989 3.96  Q 15.200001 3.539997 15.610003 3.419997  Q 16.020002 3.299998 16.540003 3.339998  Q 17.320004 3.439997 17.320004 3.96  Z  M 4.059999 0.44  Q 4.560001 0.44 4.700001 1.24  Q 4.700001 1.759999 4.59 2.17  Q 4.480001 2.58 4.059999 3.519997  Q 3.639997 2.56 3.519997 2.16  Q 3.399997 1.759999 3.439997 1.24  Q 3.539997 0.44 4.059999 0.44  Z  M 4.059999 7.459998  Q 3.539997 7.459998 3.399997 6.679996  Q 3.399997 6.139994 3.509997 5.729993  Q 3.619997 5.320001 4.059999 4.38  Q 4.480001 5.34 4.59 5.739995  Q 4.700001 6.139994 4.680001 6.679996  Q 4.560001 7.459998 4.059999 7.459998  Z  M 0.44 3.96  Q 0.44 3.439997 1.220001 3.299998  Q 1.739999 3.299998 2.15 3.409997  Q 2.56 3.519997 3.519997 3.96  Q 2.540001 4.38 2.14 4.49  Q 1.739999 4.600001 1.220001 4.580001  Q 0.44 4.460001 0.44 3.96  Z  M 3.479997 3.399997  L 2.400001 3.059998  Q 1.739999 2.859998 1.220001 2.859998  Q 0 2.979998 0 3.96  Q 0 4.920001 1.220001 5.020001  Q 1.739999 5.040001 2.38 4.860001  L 3.459997 4.500001  L 3.159998 5.5  Q 2.959997 6.159996 2.959997 6.679996  Q 3.079998 7.899999 4.059999 7.899999  Q 5.020001 7.899999 5.120001 6.679996  Q 5.140001 6.139994 4.960002 5.519995  L 4.600001 4.38  L 6.719996 4.38  L 6.359995 5.5  Q 6.179994 6.159996 6.179994 6.679996  Q 6.299994 7.899999 7.259993 7.899999  Q 8.24 7.899999 8.32 6.679996  Q 8.36 6.139994 8.16 5.519995  L 7.799998 4.38  L 9.939998 4.38  L 9.579999 5.5  Q 9.400002 6.159996 9.400002 6.679996  Q 9.520001 7.899999 10.480001 7.899999  Q 11.459987 7.899999 11.539989 6.679996  Q 11.579988 6.139994 11.379989 5.519995  L 11.019989 4.38  L 13.159986 4.400001  L 12.799991 5.519995  Q 12.599987 6.179994 12.599987 6.699993  Q 12.719991 7.92 13.699988 7.92  Q 14.659986 7.92 14.759997 6.699993  Q 14.780001 6.159996 14.599986 5.519995  L 14.279986 4.500001  L 15.360001 4.860001  Q 16.020002 5.040001 16.540003 5.040001  Q 17.760004 4.920001 17.760004 3.96  Q 17.760004 2.979998 16.540003 2.899997  Q 16.020002 2.859998 15.38 3.059998  L 14.279986 3.399997  L 14.599986 2.400001  Q 14.780001 1.759999 14.759997 1.24  Q 14.659986 0 13.699988 0  Q 12.719991 0 12.599987 1.24  Q 12.599987 1.739999 12.799991 2.400001  L 13.159986 3.519997  L 11.019989 3.519997  L 11.379989 2.400001  Q 11.579988 1.759999 11.539989 1.24  Q 11.459987 0 10.480001 0  Q 9.520001 0 9.400002 1.24  Q 9.400002 1.739999 9.579999 2.400001  L 9.939998 3.519997  L 7.819998 3.519997  L 8.179998 2.400001  Q 8.36 1.759999 8.340001 1.24  Q 8.24 0 7.279994 0  Q 6.299994 0 6.179994 1.24  Q 6.179994 1.739999 6.379993 2.400001  L 6.739993 3.519997  L 4.600001 3.519997  L 4.960002 2.400001  Q 5.140001 1.739999 5.140001 1.24  Q 5.020001 0 4.059999 0  Q 3.079998 0 2.999998 1.24  Q 2.959997 1.759999 3.159998 2.400001  L 3.479997 3.399997  Z "/></svg>
