<?xml version="1.0" encoding ="US-ASCII" standalone="yes"?>
<svg width="18.836369" height="8.4">
<path style="fill:#000000; stroke:none" d=" M 9.396972 0.466667  Q 9.927276 0.466667 10.054547 1.315152  Q 10.075759 1.866667 9.959095 2.290909  Q 9.842427 2.715152 9.396972 3.733334  Q 8.930305 2.736364 8.813638 2.301515  Q 8.696969 1.866667 8.696969 1.315152  Q 8.845456 0.466667 9.396972 0.466667  Z  M 9.37576 7.912122  Q 8.845456 7.912122 8.696969 7.084849  Q 8.696969 6.512122 8.813638 6.077274  Q 8.930305 5.642426 9.37576 4.645454  Q 9.821215 5.663638 9.948487 6.08788  Q 10.075759 6.512122 10.033335 7.084849  Q 9.927276 7.912122 9.37576 7.912122  Z  M 14.530305 0.466667  Q 15.060608 0.466667 15.187881 1.315152  Q 15.209092 1.866667 15.092428 2.290909  Q 14.97576 2.715152 14.530305 3.733334  Q 14.063639 2.736364 13.946974 2.301515  Q 13.830305 1.866667 13.830305 1.315152  Q 13.978789 0.466667 14.530305 0.466667  Z  M 14.530305 7.933334  Q 13.978789 7.933334 13.830305 7.106061  Q 13.830305 6.533334 13.946974 6.098486  Q 14.063639 5.663638 14.530305 4.666668  Q 14.97576 5.68485 15.092428 6.109092  Q 15.209092 6.533334 15.187881 7.106061  Q 15.060608 7.933334 14.530305 7.933334  Z  M 18.369701 4.2  Q 18.369701 4.730304 17.542427 4.878789  Q 16.990911 4.878789 16.556063 4.762122  Q 16.121212 4.645454 15.103032 4.2  Q 16.121212 3.754546 16.556063 3.627273  Q 16.990911 3.5 17.542427 3.542425  Q 18.369701 3.648485 18.369701 4.2  Z  M 4.30606 0.466667  Q 4.836365 0.466667 4.98485 1.315152  Q 4.98485 1.866667 4.868183 2.301515  Q 4.751516 2.736364 4.30606 3.733334  Q 3.860606 2.715152 3.733334 2.290909  Q 3.606061 1.866667 3.648485 1.315152  Q 3.754546 0.466667 4.30606 0.466667  Z  M 4.30606 7.912122  Q 3.754546 7.912122 3.606061 7.084849  Q 3.606061 6.512122 3.722728 6.077274  Q 3.839394 5.642426 4.30606 4.645454  Q 4.751516 5.663638 4.868183 6.08788  Q 4.98485 6.512122 4.963638 7.084849  Q 4.836365 7.912122 4.30606 7.912122  Z  M 0.466667 4.2  Q 0.466667 3.648485 1.29394 3.5  Q 1.845455 3.5 2.280303 3.616667  Q 2.715152 3.733334 3.733334 4.2  Q 2.69394 4.645454 2.269697 4.762122  Q 1.845455 4.878789 1.29394 4.857577  Q 0.466667 4.730304 0.466667 4.2  Z  M 3.69091 3.606061  L 2.545455 3.245455  Q 1.845455 3.033334 1.29394 3.033334  Q 0 3.160607 0 4.2  Q 0 5.218183 1.29394 5.324244  Q 1.845455 5.345456 2.524243 5.154547  L 3.669697 4.772729  L 3.351516 5.833334  Q 3.139395 6.533334 3.139395 7.084849  Q 3.266667 8.378788 4.30606 8.378788  Q 5.324244 8.378788 5.430305 7.084849  Q 5.451517 6.512122 5.260608 5.854547  L 4.878789 4.645454  L 8.803032 4.645454  L 8.421212 5.833334  Q 8.230303 6.533334 8.230303 7.084849  Q 8.357575 8.378788 9.37576 8.378788  Q 10.415154 8.378788 10.500003 7.084849  Q 10.542427 6.512122 10.330305 5.854547  L 9.9697 4.645454  L 13.957578 4.645454  L 13.57576 5.854547  Q 13.363639 6.554546 13.363639 7.106061  Q 13.490911 8.4 14.530305 8.4  Q 15.548487 8.4 15.654547 7.106061  Q 15.675759 6.533334 15.48485 5.854547  L 15.145456 4.772729  L 16.290909 5.154547  Q 16.990911 5.345456 17.542427 5.345456  Q 18.836369 5.218183 18.836369 4.2  Q 18.836369 3.160607 17.542427 3.075758  Q 16.990911 3.033334 16.312122 3.245455  L 15.145456 3.606061  L 15.48485 2.545455  Q 15.675759 1.866667 15.654547 1.315152  Q 15.548487 0 14.530305 0  Q 13.490911 0 13.363639 1.315152  Q 13.363639 1.845455 13.57576 2.545455  L 13.957578 3.733334  L 9.9697 3.733334  L 10.351518 2.545455  Q 10.56364 1.866667 10.521215 1.315152  Q 10.415154 0 9.396972 0  Q 8.357575 0 8.230303 1.315152  Q 8.230303 1.845455 8.442424 2.545455  L 8.824243 3.733334  L 4.878789 3.733334  L 5.260608 2.545455  Q 5.451517 1.845455 5.451517 1.315152  Q 5.324244 0 4.30606 0  Q 3.266667 0 3.181819 1.315152  Q 3.139395 1.866667 3.351516 2.545455  L 3.69091 3.606061  Z "/></svg>
