<?xml version="1.0" encoding ="US-ASCII" standalone="yes"?>
<svg width="17.903076" height="4.32">
<path style="fill:#000000; stroke:none" d=" M 14.123074 2.16  Q 14.123074 1.516153 12.700379 1.246154  Q 11.277685 0.976154 8.951537 0.955384  Q 6.625386 0.976154 5.202692 1.246154  Q 3.779999 1.516153 3.779999 2.16  Q 3.779999 2.803846 5.192307 3.073845  Q 6.604616 3.343846 8.951537 3.364615  Q 11.298455 3.343846 12.710765 3.073845  Q 14.123074 2.803846 14.123074 2.16  Z  M 0.186923 0.768461  Q 0.560769 0.643846 1.215 0.633461  Q 1.869231 0.623077 2.596153 0.851538  Q 4.133077 0.726923 5.638843 0.373846  Q 7.144613 0.020769 8.951537 0  Q 10.758457 0.020769 12.264224 0.373846  Q 13.77 0.726923 15.306919 0.851538  Q 16.033848 0.623077 16.688078 0.633461  Q 17.34231 0.643846 17.716154 0.768461  Q 18.09 1.163076 17.716154 1.578462  Q 16.553076 1.370769 15.597693 1.516153  Q 14.870762 1.661538 14.870762 2.16  Q 14.870762 2.658462 15.597693 2.845384  Q 16.553076 2.949231 17.716154 2.762308  Q 18.09 3.156923 17.716154 3.551538  Q 17.34231 3.696923 16.688078 3.696923  Q 16.033848 3.696923 15.306919 3.48923  Q 13.77 3.593077 12.253848 3.946153  Q 10.73769 4.299231 8.951537 4.32  L 8.951537 4.32  Q 7.165383 4.299231 5.649228 3.946153  Q 4.133077 3.593077 2.596153 3.48923  Q 1.869231 3.696923 1.215 3.696923  Q 0.560769 3.696923 0.186923 3.551538  Q -0.186923 3.156923 0.186923 2.762308  Q 1.35 2.949231 2.305384 2.845384  Q 3.032307 2.658462 3.032307 2.16  Q 3.032307 1.661538 2.305384 1.516153  Q 1.35 1.370769 0.186923 1.578462  Q -0.186923 1.163076 0.186923 0.768461  Z "/></svg>
