<?xml version="1.0" encoding ="US-ASCII" standalone="yes"?>
<svg width="18.63044" height="6">
<path style="fill:#000000; stroke:none" d=" M 7.353262 5.239132  L 7.353262 3.043478  Q 5.918478 3.086957 4.179348 3.586957  L 4.179348 4.847826  Q 5.918478 5.326088 7.353262 5.239132  Z  M 0.918479 4.956523  Q 1.918479 4.956523 3.39674 4.847826  L 3.39674 3.586957  Q 1.918479 3.456523 0.918479 3.434784  Q 0.483696 4.195653 0.918479 4.956523  Z  M 17.701092 4.956523  Q 18.135876 4.195653 17.701092 3.434784  Q 16.722824 3.456523 15.222831 3.586957  L 15.222831 4.847826  Q 16.722824 4.956523 17.701092 4.956523  Z  M 11.266305 5.239132  Q 12.70109 5.326088 14.461961 4.847826  L 14.461961 3.586957  Q 12.70109 3.086957 11.266305 3.043478  L 11.266305 5.239132  Z  M 10.505436 5.239132  L 10.505436 3.043478  L 8.135866 3.043478  L 8.135866 5.239132  L 10.505436 5.239132  Z  M 10.505436 2.282609  Q 10.374999 1.26087 9.309784 1.26087  Q 8.244562 1.26087 8.135866 2.282609  L 10.505436 2.282609  Z  M 9.309784 0.565217  Q 10.396741 0.565217 10.940218 1.543478  Q 10.961959 1.543478 12.41848 0  Q 12.853263 0.23913 12.961961 0.695652  Q 11.592394 1.869566 11.570655 2.282609  Q 13.396742 2.608696 14.831522 3.043478  Q 16.722824 2.717392 18.222832 2.695653  Q 19.027178 4.195653 18.244574 5.717393  Q 16.722824 5.695652 14.831522 5.347828  Q 13.396742 5.78261 11.646741 5.891305  Q 9.896741 6 9.309784 6  Q 8.744566 6 6.983698 5.891305  Q 5.222827 5.78261 3.788044 5.347828  Q 1.918479 5.695652 0.375 5.717393  Q -0.38587 4.195653 0.396739 2.695653  Q 1.918479 2.717392 3.788044 3.043478  Q 5.222827 2.608696 7.048916 2.282609  Q 7.048916 1.869566 5.65761 0.695652  Q 5.788045 0.23913 6.201088 0  Q 7.679351 1.543478 7.679351 1.543478  Q 8.222826 0.565217 9.309784 0.565217  Z "/></svg>
