<?xml version="1.0" encoding ="US-ASCII" standalone="yes"?>
<svg width="10.226072" height="12.96">
<path style="fill:#000000; stroke:none" d=" M 7.885714 12.96  L 4.754285 12.96  Q 3.428572 12.594285 2.777143 11.599999  Q 2.125714 10.605715 2.457143 8.971429  Q 2.788572 7.337143 4.822857 5.028572  Q 4.914287 4.708572 4.548572 4.617143  L 0 2.788572  L 1.874286 0  L 5.485714 3.588572  Q 5.805714 4.068572 6.331429 4.274286  Q 7.794285 3.474286 7.885714 5.051429  Q 9.85143 7.337143 10.137143 8.96  Q 10.422858 10.582859 9.817143 11.588572  Q 9.211429 12.594285 7.885714 12.96  Z  M 4.845715 4  L 1.988571 1.325714  L 1.302857 2.422858  L 4.845715 4  Z  M 6.331429 12  Q 8.022857 12 8.651428 11.302857  Q 9.280002 10.605715 9.302858 9.668572  Q 9.325714 8.731429 8.525713 7.337143  Q 7.725714 5.942857 6.331429 5.188571  Q 4.937142 5.942857 4.137144 7.325715  Q 3.337143 8.708572 3.348572 9.645715  Q 3.36 10.582859 3.942857 11.291429  Q 4.525714 12 6.331429 12  Z "/></svg>
