<?xml version="1.0" encoding ="US-ASCII" standalone="yes"?>
<svg width="11.362988" height="15.84">
<path style="fill:#000000; stroke:none" d=" M 6.590531 15.84  Q 3.636155 15.84 2.70439 13.851481  Q 1.772626 11.862958 1.818078 9.454005  Q 1.795352 6.181463 4.817905 4.613372  L 0 2.249871  L 1.658996 0  L 6.590531 4.113401  Q 7.067777 4.045223 7.488207 3.499799  Q 7.908637 2.954377 8.499513 3.204362  Q 8.90858 3.499799 8.817677 3.840689  Q 8.726773 4.181579 8.340431 4.613372  Q 11.362988 6.181463 11.362988 9.454005  Q 11.385712 11.862958 10.453945 13.851481  Q 9.522183 15.84 6.590531 15.84  Z  M 5.63604 4.22703  L 1.772626 0.954491  L 0.999943 2.022611  L 5.63604 4.22703  Z  M 10.294867 8.772224  Q 9.431277 5.613314 6.590531 5.590587  Q 3.727059 5.590587 3.045281 8.772224  L 10.294867 8.772224  Z  M 10.294867 9.908525  L 3.022554 9.908525  Q 3.045281 11.862958 3.69297 13.351505  Q 4.34066 14.840059 6.590531 14.840059  Q 8.817677 14.840059 9.556269 13.351505  Q 10.294867 11.862958 10.294867 9.908525  Z "/></svg>
