<?xml version="1.0" encoding="UTF-8" standalone="no"?>
<svg
   xmlns:dc="http://purl.org/dc/elements/1.1/"
   xmlns:cc="http://web.resource.org/cc/"
   xmlns:rdf="http://www.w3.org/1999/02/22-rdf-syntax-ns#"
   xmlns:svg="http://www.w3.org/2000/svg"
   xmlns="http://www.w3.org/2000/svg"
   xmlns:sodipodi="http://inkscape.sourceforge.net/DTD/sodipodi-0.dtd"
   xmlns:inkscape="http://www.inkscape.org/namespaces/inkscape"
   width="5.399788"
   height="17.976807"
   id="svg1333"
   sodipodi:version="0.32"
   inkscape:version="0.43"
   sodipodi:docname="US22V49A.svg"
   sodipodi:docbase="C:\PROGRA~1\JSesh\fonts\TRANSM~1\ENVOI1~2">
  <metadata
     id="metadata1340">
    <rdf:RDF>
      <cc:Work
         rdf:about="">
        <dc:format>image/svg+xml</dc:format>
        <dc:type
           rdf:resource="http://purl.org/dc/dcmitype/StillImage" />
        <dc:title>US22V49A</dc:title>
        <dc:date>2/01/2006</dc:date>
        <dc:creator>
          <cc:Agent>
            <dc:title>Serge Thomas</dc:title>
          </cc:Agent>
        </dc:creator>
        <dc:publisher>
          <cc:Agent>
            <dc:title>Serge Rosmorduc</dc:title>
          </cc:Agent>
        </dc:publisher>
        <dc:identifier>US22</dc:identifier>
        <dc:description>rencontré dans Chester Beatty I passim. analogie avec US2249B.</dc:description>
      </cc:Work>
    </rdf:RDF>
  </metadata>
  <defs
     id="defs1338" />
  <sodipodi:namedview
     inkscape:window-height="708"
     inkscape:window-width="1024"
     inkscape:pageshadow="2"
     inkscape:pageopacity="0.0"
     borderopacity="1.0"
     bordercolor="#666666"
     pagecolor="#ffffff"
     id="base"
     showgrid="true"
     gridspacingy="1px"
     gridempcolor="#562fff"
     gridempopacity="1"
     gridempspacing="5"
     showguides="true"
     inkscape:guide-bbox="true"
     inkscape:zoom="59.966155"
     inkscape:cx="2.6992114"
     inkscape:cy="4.8457251"
     inkscape:window-x="-4"
     inkscape:window-y="-4"
     inkscape:current-layer="svg1333">
    <sodipodi:guide
       orientation="horizontal"
       position="11.239673"
       id="guide1342" />
    <sodipodi:guide
       orientation="horizontal"
       position="12.006773"
       id="guide1344" />
    <sodipodi:guide
       orientation="vertical"
       position="2.6348196"
       id="guide1346" />
    <sodipodi:guide
       orientation="horizontal"
       position="16.292524"
       id="guide1348" />
    <sodipodi:guide
       orientation="horizontal"
       position="14.891733"
       id="guide1350" />
  </sodipodi:namedview>
  <path
     style="fill:#000000; stroke:none"
     d="M 2.643757,0.875902 C 3.0707731,0.77584556 5.0041615,1.6824404 2.9139368,3.8999757 C 2.7319208,4.0930778 2.728952,4.086201 2.655365,4.086201 C 2.594519,4.086201 2.4974517,3.9775363 2.401823,3.861405 C 0.63432684,1.7113851 2.2550405,0.85922593 2.643757,0.875902 z M 3.9115334,15.616644 C 3.9213723,16.628314 3.3793378,16.945919 2.6806868,16.991642 C 2.002527,17.036025 1.4468581,16.219326 1.451226,15.635072 C 1.4563969,14.910069 2.0076825,14.346366 2.6538122,14.327836 C 3.2498526,14.310743 3.9038524,14.826853 3.9115334,15.616644 z M 2.6143136,0 C 2.5609566,0 0.58669084,0.060971276 0.613915,2.123363 C 0.62652121,3.0783587 1.8594411,4.646577 1.8360316,4.6643053 L 0.012471927,6.0453125 L 0.61103066,6.8125122 L 2.305965,5.405231 L 2.309575,13.695677 C 1.2667555,13.985888 0.73888208,14.847075 0.750046,15.62686 C 0.76087221,16.366381 1.2289034,17.200443 1.55653,17.197092 L 0.474743,17.208155 L 0.42536,17.976807 L 4.971426,17.976807 L 5.021136,17.169722 L 3.900918,17.158449 C 4.1010309,17.21895 4.6663284,16.38425 4.650353,15.613203 C 4.6272703,14.450937 3.8282468,13.89227 3.016968,13.732198 L 3.034382,5.486215 L 4.745514,6.7975207 L 5.3449087,6.0421392 C 5.3182529,6.0587645 3.3854888,4.5936496 3.401581,4.592088 C 3.5681847,4.575921 4.762264,3.0973603 4.767434,2.044965 C 4.7766283,0.17337682 3.1020796,0 2.6143136,0 z "
     id="path1335"
     sodipodi:nodetypes="csssccsssscssccccsscccccsccccssc" />
</svg>
