<?xml version="1.0" encoding="UTF-8" standalone="no"?>
<svg
   xmlns:dc="http://purl.org/dc/elements/1.1/"
   xmlns:cc="http://web.resource.org/cc/"
   xmlns:rdf="http://www.w3.org/1999/02/22-rdf-syntax-ns#"
   xmlns:svg="http://www.w3.org/2000/svg"
   xmlns="http://www.w3.org/2000/svg"
   xmlns:sodipodi="http://sodipodi.sourceforge.net/DTD/sodipodi-0.dtd"
   xmlns:inkscape="http://www.inkscape.org/namespaces/inkscape"
   width="9.650385"
   height="17.972734"
   id="svg2"
   sodipodi:version="0.32"
   inkscape:version="0.44"
   sodipodi:docname="V5A.svg"
   sodipodi:docbase="/home/rosmord/Travail/Gsigns/SThomasDetail/ManuelDeCodage/tmp">
  <metadata
     id="metadata9">
    <rdf:RDF>
      <cc:Work
         rdf:about="">
        <dc:format>image/svg+xml</dc:format>
        <dc:type
           rdf:resource="http://purl.org/dc/dcmitype/StillImage" />
      </cc:Work>
    </rdf:RDF>
  </metadata>
  <defs
     id="defs7" />
  <sodipodi:namedview
     inkscape:window-height="583"
     inkscape:window-width="1010"
     inkscape:pageshadow="2"
     inkscape:pageopacity="0.0"
     guidetolerance="10.0"
     gridtolerance="10.0"
     objecttolerance="10.0"
     borderopacity="1.0"
     bordercolor="#666666"
     pagecolor="#ffffff"
     id="base"
     inkscape:zoom="10.515929"
     inkscape:cx="-0.60221576"
     inkscape:cy="12.647894"
     inkscape:window-x="25"
     inkscape:window-y="0"
     inkscape:current-layer="svg2" />
  <path
     style="fill:black;stroke:none"
     d="M 10.342938,14.226786 C 10.63225,14.618469 11.024337,14.67741 11.5192,14.40361 C 11.914525,14.019884 11.967531,13.63218 11.67822,13.240498 C 11.41521,12.884422 10.761663,12.459088 9.7175795,11.964495 C 9.8714752,13.116614 10.079928,13.870712 10.342938,14.226786 z M 5.8377737,10.399991 L 6.0742827,13.775018 C 7.4655392,14.416762 8.3365079,14.975018 8.6871887,15.449785 C 9.2219763,16.173804 9.1180537,16.865116 8.375421,17.523721 C 7.5275846,18.039896 6.8362725,17.935974 6.3014849,17.211954 C 5.9508042,16.737187 5.6792288,15.736198 5.4867587,14.208984 C 2.1513838,12.251517 -0.1650624,10.394464 -1.46258,8.637827 C -1.9710668,7.9494149 -2.3332797,7.2355111 -2.5492186,6.4961153 C -3.0377439,4.6922705 -2.3680804,3.1152882 -0.54022785,1.7651682 L -0.54022785,1.7651682 C 1.2876246,0.41504836 2.9917956,0.23862816 4.5722849,1.2359077 C 5.2155141,1.6596909 5.7913721,2.2157885 6.299859,2.9042006 C 7.5973765,4.6608378 8.6912979,7.4208927 9.5816229,11.184366 C 10.984749,11.817342 11.861652,12.371215 12.212333,12.845982 C 12.747121,13.570001 12.643197,14.261314 11.900565,14.919918 C 11.052729,15.436093 10.361417,15.332171 9.826629,14.608152 C 9.4759483,14.133385 9.1984382,13.136778 8.9940988,11.618332 L 5.8377737,10.399991 L 5.8377737,10.399991 z M -0.14571246,2.2992807 C -2.3771168,3.9474792 -2.6511857,5.9110189 -0.9679192,8.1899002 C 0.25946241,9.8515841 2.3613192,11.591968 5.3376512,13.411053 L 5.1405947,10.089436 C 3.7493376,9.447693 2.8783689,8.8894377 2.5276885,8.414671 C 1.9929006,7.6906512 2.096823,6.999339 2.8394556,6.3407343 L 2.8394556,6.3407343 C 3.6872921,5.8245593 4.3786043,5.9284816 4.9133923,6.6525014 C 5.2640726,7.1272681 5.5415827,8.123874 5.7459226,9.6423193 L 8.8627953,10.80725 C 7.999176,7.4276374 6.9536755,4.906989 5.7262939,3.2453051 C 4.0430274,0.96642388 2.0856919,0.65108242 -0.14571246,2.2992807 L -0.14571246,2.2992807 z M 8.17088,15.83115 C 7.9078697,15.475074 7.2483882,15.054124 6.1924354,14.568298 C 6.3582004,15.71165 6.5725881,16.461364 6.8355983,16.817438 C 7.1249097,17.209121 7.5110624,17.272446 7.9940562,17.007412 C 8.4012501,16.61492 8.4601914,16.222832 8.17088,15.83115 z M 5.0224412,9.2961574 L 5.0224412,9.2961574 C 4.8566771,8.1528054 4.64229,7.4030918 4.3792797,7.0470168 C 4.0899683,6.6553342 3.6994317,6.5860749 3.2076699,6.8392392 L 3.2076699,6.8392392 C 2.8211132,7.2348337 2.7724905,7.6284724 3.0618019,8.020155 C 3.3248121,8.37623 3.9783586,8.8015641 5.0224412,9.2961574 z "
     id="path4" />
</svg>
