<?xml version="1.0" encoding="UTF-8" standalone="no"?>
<svg
   xmlns:dc="http://purl.org/dc/elements/1.1/"
   xmlns:cc="http://creativecommons.org/ns#"
   xmlns:rdf="http://www.w3.org/1999/02/22-rdf-syntax-ns#"
   xmlns:svg="http://www.w3.org/2000/svg"
   xmlns="http://www.w3.org/2000/svg"
   xmlns:sodipodi="http://sodipodi.sourceforge.net/DTD/sodipodi-0.dtd"
   xmlns:inkscape="http://www.inkscape.org/namespaces/inkscape"
   width="17.389851"
   height="17.96875"
   id="svg2383"
   sodipodi:version="0.32"
   inkscape:version="0.46"
   sodipodi:docname="V79.svg"
   inkscape:output_extension="org.inkscape.output.svg.inkscape"
   version="1.0">
  <metadata
     id="metadata2390">
    <rdf:RDF>
      <cc:Work
         rdf:about="">
        <dc:format>image/svg+xml</dc:format>
        <dc:type
           rdf:resource="http://purl.org/dc/dcmitype/StillImage" />
      </cc:Work>
    </rdf:RDF>
  </metadata>
  <defs
     id="defs2388">
    <inkscape:perspective
       sodipodi:type="inkscape:persp3d"
       inkscape:vp_x="0 : 8.9899998 : 1"
       inkscape:vp_y="0 : 1000 : 0"
       inkscape:vp_z="4.0700002 : 8.9899998 : 1"
       inkscape:persp3d-origin="2.0350001 : 5.9933332 : 1"
       id="perspective2392" />
  </defs>
  <sodipodi:namedview
     inkscape:window-height="708"
     inkscape:window-width="1024"
     inkscape:pageshadow="2"
     inkscape:pageopacity="0.0"
     guidetolerance="10.0"
     gridtolerance="10.0"
     objecttolerance="10.0"
     borderopacity="1.0"
     bordercolor="#666666"
     pagecolor="#ffffff"
     id="base"
     showgrid="false"
     inkscape:zoom="27.993043"
     inkscape:cx="8.6949254"
     inkscape:cy="8.984375"
     inkscape:window-x="-4"
     inkscape:window-y="-4"
     inkscape:current-layer="svg2383"
     showguides="true"
     inkscape:guide-bbox="true" />
  <path
     style="fill:#000000;stroke:none"
     d="M 8.9375,0 C 7.6775,0 7.0625,0.80416662 7.0625,2.4375 C 7.0625,3.2375 7.305833,3.95125 7.8125,4.53125 C 7.305833,5.1045834 7.0625,5.7962499 7.0625,6.65625 C 7.0625,6.8074876 7.077509,6.9514449 7.09375,7.09375 C 6.4006501,7.0617648 5.8113138,7.0508593 5.4375,7 C 4.83312,6.9177719 4.511506,6.856068 4.4375,6.6875 C 4.384722,6.5672869 4.290573,6.4375 4.15625,6.4375 C 4.1022181,6.4375002 4.035976,6.505303 3.96875,6.53125 C 3.770452,6.6077861 3.549065,6.59375 3.3125,6.59375 C 3.2694869,6.5937498 2.367124,6.599382 2.03125,6.625 C 1.5461012,6.6620018 1.248343,6.995106 1.125,7.40625 C 1.114358,7.4059269 1.104329,7.40625 1.09375,7.40625 C 0.8345859,7.4062499 0.596211,7.49394 0.375,7.6875 C 0.1447588,7.8889609 0.008223,8.3257236 0,9 L 0,13.4375 L 0.53125,13.46875 L 0.53125,9.1875 C 0.4901349,8.6036745 0.566627,8.212153 0.71875,8.03125 C 0.8581959,7.8654224 0.898023,7.8125 1.03125,7.8125 C 1.0433621,7.8125 1.048795,7.811129 1.0625,7.8125 C 1.0378319,8.0098489 1.187531,8.259895 1.5,8.53125 C 1.8700292,8.8519427 2.278826,9.065798 2.71875,9.15625 C 2.9902401,9.2120703 3.1984299,9.379183 3.3125,9.3125 C 3.6841541,9.0952388 4.260003,9.097862 5.625,9.09375 C 5.6483215,9.0936797 6.8387629,9.1129355 7.65625,9.125 C 7.3035295,9.6363619 7.125,10.244085 7.125,11 C 7.125,11.98 7.530416,12.835833 8.34375,13.5625 C 7.410416,14.735833 6.9375,16.202083 6.9375,17.96875 L 7.875,17.96875 C 7.875,16.46875 8.210833,15.26375 8.9375,14.34375 C 9.684166,15.26375 10.0625,16.46875 10.0625,17.96875 L 11,17.96875 C 11,16.202083 10.527083,14.735833 9.59375,13.5625 C 10.407083,12.835833 10.8125,11.98 10.8125,11 C 10.8125,10.26183 10.648855,9.6612141 10.3125,9.15625 C 11.636647,9.1602673 12.919816,9.2051433 14.15625,9.40625 C 13.687548,9.778627 13.210454,10.737331 13.09375,11.53125 C 12.998792,12.177237 13.065832,12.610226 13.46875,12.90625 C 13.664765,13.05026 13.909748,13.125 14.1875,13.125 C 14.480682,13.125 14.834496,13.066707 15.21875,12.90625 C 15.539373,13.127369 15.848635,13.21875 16.15625,13.21875 C 16.306213,13.21875 16.446879,13.208802 16.59375,13.15625 C 17.041897,12.995906 17.30922,12.580525 17.375,11.90625 C 17.440787,11.231975 17.288617,10.435765 16.90625,9.53125 C 16.523884,8.6267336 15.986776,7.956384 15.3125,7.65625 C 14.656203,7.3641179 13.756402,7.1875 12.59375,7.1875 C 12.579892,7.1875 11.528719,7.1918832 10.8125,7.1875 C 10.836002,7.0165098 10.84375,6.8404977 10.84375,6.65625 C 10.84375,5.79625 10.600416,5.1045834 10.09375,4.53125 C 10.600416,3.95125 10.84375,3.2375 10.84375,2.4375 C 10.84375,0.80416667 10.204166,7.736708e-17 8.9375,0 z M 8.9375,0.84375 C 9.5175,0.84375 9.875416,1.3708333 9.96875,2.4375 C 9.875416,3.5041667 9.5175,4.0624998 8.9375,4.0625 C 8.364166,4.0625 8.0308329,3.5041667 7.9375,2.4375 C 8.030833,1.3708333 8.364166,0.84374998 8.9375,0.84375 z M 8.9375,4.9375 C 9.5175,4.9375 9.875416,5.5029166 9.96875,6.65625 C 9.9537525,6.8405038 9.9025632,7.0016033 9.875,7.15625 C 9.2710296,7.1507995 8.8866417,7.1650874 8.5,7.15625 C 8.3046923,7.1517858 8.1799331,7.1303731 8,7.125 C 7.975348,6.9793013 7.9514417,6.8275344 7.9375,6.65625 C 8.030833,5.5029167 8.364166,4.9374999 8.9375,4.9375 z M 3.875,7.03125 C 3.809217,7.606851 3.559169,8.060905 3.15625,8.5625 C 3.0645229,8.5812622 2.986525,8.59375 2.90625,8.59375 C 2.6698829,8.5937503 2.469298,8.443912 2.15625,8.28125 C 1.7368829,8.0633435 1.625829,7.960497 1.6875,7.65625 C 1.7491718,7.352004 1.860226,7.249171 2.15625,7.1875 C 2.3412649,7.1489549 3.13786,7.15625 3.1875,7.15625 C 3.4419381,7.1562499 3.634181,7.079414 3.875,7.03125 z M 4.40625,7.28125 C 5.2778739,7.4621532 6.121811,7.646385 7.125,7.6875 C 7.1415793,7.6881795 7.200445,7.6868328 7.21875,7.6875 C 7.3218439,8.0280182 7.4723701,8.3461015 7.6875,8.625 C 7.4120738,8.6216555 6.8091542,8.59375 6.71875,8.59375 C 5.679651,8.59375 4.435412,8.65625 4.375,8.65625 C 3.9521119,8.6562503 3.883752,8.601643 4.03125,8.375 C 4.199819,8.1159798 4.32402,7.791068 4.40625,7.28125 z M 8.15625,7.6875 C 8.6876493,7.6966408 9.0585568,7.7126813 9.71875,7.71875 C 9.5461411,8.1540351 9.2948521,8.3749998 8.9375,8.375 C 8.5740775,8.375 8.3268087,8.1482289 8.15625,7.6875 z M 10.6875,7.71875 C 11.283332,7.7231469 12.077907,7.7483054 12.28125,7.75 C 13.267993,7.7582231 14.074895,7.816627 14.6875,7.96875 C 15.300101,8.120873 15.680965,8.4416716 16.125,9.0625 C 16.569035,9.6833257 16.809221,10.4047 16.875,11.375 C 16.938549,12.312313 16.830397,12.59375 16.28125,12.59375 C 16.261927,12.59375 16.239019,12.594729 16.21875,12.59375 C 15.622593,12.56497 15.423507,12.476099 15.3125,11.9375 C 15.201492,11.398902 15.150498,10.814079 15.1875,10.15625 C 15.224502,9.4984207 14.902925,9.059201 14.5,8.96875 C 14.097081,8.8782984 13.593686,8.815783 12.96875,8.75 C 12.693372,8.721013 11.419012,8.6815543 10.1875,8.65625 C 10.407272,8.3746709 10.581594,8.0645613 10.6875,7.71875 z M 8.75,9.3125 C 8.8132292,9.2946875 8.8658332,9.3125 8.9375,9.3125 C 9.530833,9.3125 9.8729159,9.8599998 9.90625,11 C 9.859583,11.82 9.5175,12.482083 8.9375,12.96875 C 8.364166,12.482083 8.064583,11.82 8.03125,11 C 8.0604164,10.0025 8.3073954,9.4371874 8.75,9.3125 z M 14.53125,9.65625 C 14.745042,9.6562496 14.71792,9.6497157 14.65625,10.09375 C 14.594579,10.537786 14.588826,11.109446 14.6875,11.8125 C 14.773117,12.422513 14.444439,12.730682 14.125,12.625 C 13.704599,12.485915 13.510709,12.168523 13.6875,11.53125 C 13.864291,10.893979 14.103655,10.503205 14.53125,9.65625 z"
     id="path2670" />
</svg>
