<?xml version="1.0" encoding ="US-ASCII" standalone="yes"?>
<svg width="5.486053" height="16.689514">
<path style="fill:#000000; stroke:none" d=" M 1.884155 2.606842  C 0.540894 3.923401 1.495361 5.478577 2.20224 5.7612  C 0.505646 7.10553 1.318695 8.41333 2.096283 9.084961  C 0.89444 10.109924 1.177277 11.559143 2.30072 13.272827  L 0.215546 16.689514  L 1.097809 16.66153  L 2.803162 13.868622  L 4.739014 16.677551  L 5.701599 16.673492  L 3.295349 13.304871  C 4.418365 11.588623 4.88855 10.428009 3.51004 9.084961  C 4.959259 8.095245 4.676422 6.398651 3.297913 5.725952  C 4.499756 5.372406 4.782593 3.676025 4.049225 2.709595  C 5.984222 0.812836 4.782593 0.141418 4.216919 0  C 2.661743 0.141418 3.015289 1.661133 2.909119 2.177673  L 2.308197 2.288757  C 1.274261 -1.043976 -0.971558 0.351624 1.884155 2.606842  M 2.878357 2.936035  C 4.851379 3.609802 3.333374 5.479645 2.862122 5.181854  C 2.166779 5.515106 0.889099 3.593781 2.878357 2.936035  M 2.862122 6.333069  C 4.562561 6.739594 3.664276 8.616486 2.862122 8.498566  C 1.883728 8.664551 1.35437 6.669952 2.862122 6.333069  M 2.862122 9.500458  C 4.610626 10.366699 2.990509 12.516174 2.862122 12.708649  C 2.525452 12.41983 1.210175 10.359222 2.862122 9.500458  M 3.58075 2.218048  C 3.651459 -0.362091 5.348053 0.733582 3.58075 2.218048 "/></svg>
