<?xml version="1.0" encoding ="US-ASCII" standalone="yes"?>
<svg width="8.657984" height="8.4">
<path style="fill:#000000; stroke:none" d=" M 8.54113 2.348387  Q 7.926935 3.215484 7.655968 5.43742  Q 7.457259 7.47871 6.698549 8.4  L 3.085645 8.4  Q 2.471452 7.47871 2.326936 5.43742  Q 2.055968 3.215484 1.441774 2.348387  Q 1.369516 2.24 0.014677 1.065807  Q -0.111774 0.144516 0.845645 0  Q 2.019839 1.156129 2.796613 1.354839  L 8.197904 1.354839  Q 8.577258 1.463226 8.640484 1.788387  Q 8.70371 2.113549 8.54113 2.348387  Z  M 7.132097 2.348387  L 2.850807 2.348387  L 3.483065 6.882581  Q 3.573387 7.47871 4.043065 7.47871  L 5.921774 7.47871  Q 6.391451 7.47871 6.499839 6.882581  L 7.132097 2.348387  Z "/></svg>
