<?xml version="1.0" encoding ="US-ASCII" standalone="yes"?>
<svg width="9.289846" height="8.88">
<path style="fill:#000000; stroke:none" d=" M 4.644923 4.020396  L 3.708132 6.206242  Q 4.644923 6.518506 5.581716 6.206242  L 4.644923 4.020396  Z  M 4.644923 2.302945  L 6.694154 6.791736  Q 5.737847 7.221099 4.644923 7.221099  Q 3.552 7.221099 2.595692 6.791736  L 4.644923 2.302945  Z  M 4.644923 8.001759  Q 7.396747 8.001759 8.33354 6.947869  Q 7.572396 4.078945 7.416265 0.858725  L 1.873582 0.858725  Q 1.717451 4.078945 0.956308 6.947869  Q 1.893099 8.001759 4.644923 8.001759  Z  M 8.587252 0  Q 9.055649 0 9.055649 0.429363  Q 9.055649 0.858725 8.587252 0.858725  Q 8.470154 0.956308 8.21644 1.073406  Q 8.372572 3.922813 9.289846 7.474814  Q 7.572396 8.88 4.644923 8.88  Q 1.717451 8.88 0 7.474814  Q 0.917275 3.922813 1.073406 1.073406  Q 0.819692 0.956308 0.702594 0.858725  Q 0.234198 0.858725 0.234198 0.429363  Q 0.234198 0 0.702594 0  L 8.587252 0  Z "/></svg>
