<?xml version="1.0" encoding="UTF-8" standalone="no"?>
<svg
   xmlns:dc="http://purl.org/dc/elements/1.1/"
   xmlns:cc="http://creativecommons.org/ns#"
   xmlns:rdf="http://www.w3.org/1999/02/22-rdf-syntax-ns#"
   xmlns:svg="http://www.w3.org/2000/svg"
   xmlns="http://www.w3.org/2000/svg"
   xmlns:sodipodi="http://sodipodi.sourceforge.net/DTD/sodipodi-0.dtd"
   xmlns:inkscape="http://www.inkscape.org/namespaces/inkscape"
   width="12"
   height="10.94"
   id="svg3564"
   sodipodi:version="0.32"
   inkscape:version="0.46"
   sodipodi:docname="W123.svg"
   inkscape:output_extension="org.inkscape.output.svg.inkscape">
  <metadata
     id="metadata3571">
    <rdf:RDF>
      <cc:Work
         rdf:about="">
        <dc:format>image/svg+xml</dc:format>
        <dc:type
           rdf:resource="http://purl.org/dc/dcmitype/StillImage" />
      </cc:Work>
    </rdf:RDF>
  </metadata>
  <defs
     id="defs3569">
    <inkscape:perspective
       sodipodi:type="inkscape:persp3d"
       inkscape:vp_x="0 : 5.4699998 : 1"
       inkscape:vp_y="0 : 1000 : 0"
       inkscape:vp_z="12 : 5.4699998 : 1"
       inkscape:persp3d-origin="6 : 3.6466665 : 1"
       id="perspective3573" />
  </defs>
  <sodipodi:namedview
     inkscape:window-height="708"
     inkscape:window-width="1024"
     inkscape:pageshadow="2"
     inkscape:pageopacity="0.0"
     guidetolerance="10.0"
     gridtolerance="10.0"
     objecttolerance="10.0"
     borderopacity="1.0"
     bordercolor="#666666"
     pagecolor="#ffffff"
     id="base"
     showgrid="false"
     showguides="true"
     inkscape:guide-bbox="true"
     inkscape:zoom="42.230349"
     inkscape:cx="6"
     inkscape:cy="5.4699998"
     inkscape:window-x="-4"
     inkscape:window-y="-4"
     inkscape:current-layer="svg3564" />
  <path
     style="fill:#000000; stroke:none"
     d="M 3.375 -0.03125 C 2.5652997 -0.03125 2.2353962 0.22981613 2.375 0.78125 L 2.75 2 C 2.6941585 2.0837619 2.5122391 2.2796423 2.15625 2.59375 C 1.6845336 3.0559688 1.3202678 3.5428455 1.0625 4.0625 L 0 4.0625 L 0 5.0625 L 0.71875 5.0625 C 0.64425315 5.3899745 0.59375 5.7150264 0.59375 6.0625 C 0.59375 6.4388496 0.65814968 6.7985957 0.75 7.15625 L 0 7.15625 L 0 8.15625 L 1.125 8.15625 C 1.30028 8.4881961 1.5183301 8.8108921 1.78125 9.125 C 2.9748601 10.381434 4.3769486 11.03125 6.03125 11.03125 C 7.6855516 11.03125 9.1188891 10.381434 10.3125 9.125 C 10.568439 8.8108921 10.766874 8.4881961 10.9375 8.15625 L 12 8.15625 L 12 7.15625 L 11.3125 7.15625 C 11.401912 6.7985957 11.46875 6.4388496 11.46875 6.0625 C 11.46875 5.7143354 11.417038 5.3905858 11.34375 5.0625 L 12 5.0625 L 12 4.0625 L 11 4.0625 C 10.747422 3.5428454 10.399718 3.0559689 9.9375 2.59375 C 9.5815111 2.2796423 9.3580325 2.0837619 9.28125 2 L 9.65625 0.78125 C 9.65625 0.2298161 9.3193668 -0.031250002 8.65625 -0.03125 L 3.375 -0.03125 z M 3.375 0.78125 L 8.65625 0.78125 L 8.375 1.6875 C 6.8254011 1.1570067 5.2477296 1.1570067 3.65625 1.6875 L 3.375 0.78125 z M 6.03125 2.40625 C 7.4063447 2.40625 8.6095449 2.9080847 9.59375 3.90625 C 9.6272258 3.9552682 9.6561743 4.0117924 9.6875 4.0625 L 2.40625 4.0625 C 2.4438034 4.0074264 2.4588169 3.9634874 2.5 3.90625 C 3.4632641 2.9080847 4.6352153 2.40625 6.03125 2.40625 z M 1.875 5.0625 L 10.125 5.0625 C 10.157918 5.1708291 10.192657 5.2925584 10.21875 5.40625 C 10.226945 5.459711 10.244127 5.5084717 10.25 5.5625 C 10.254069 5.5830734 10.246145 5.6042583 10.25 5.625 C 10.264269 5.777763 10.28125 5.9392672 10.28125 6.09375 C 10.28125 6.4196727 10.228857 6.7276809 10.15625 7.03125 C 10.14231 7.0748501 10.109506 7.1132181 10.09375 7.15625 L 1.9375 7.15625 C 1.8057799 6.8012844 1.75 6.4219229 1.75 6.03125 C 1.75 5.8916469 1.7636389 5.6615087 1.8125 5.3125 C 1.823422 5.232926 1.8459422 5.1528858 1.875 5.0625 z M 2.53125 8.15625 L 9.53125 8.15625 C 9.280668 8.4710267 8.9663563 8.7546527 8.59375 9.03125 C 7.7282085 9.5477837 6.8758515 9.8125005 6.03125 9.8125 C 5.1447678 9.8125 4.2924106 9.5477838 3.46875 9.03125 C 3.0892858 8.7546527 2.7864439 8.4665351 2.53125 8.15625 z "
     id="path3566" />
</svg>
