<?xml version="1.0" encoding="UTF-8" standalone="no"?>
<!-- Created with Inkscape (http://www.inkscape.org/) -->
<svg
   xmlns:dc="http://purl.org/dc/elements/1.1/"
   xmlns:cc="http://web.resource.org/cc/"
   xmlns:rdf="http://www.w3.org/1999/02/22-rdf-syntax-ns#"
   xmlns:svg="http://www.w3.org/2000/svg"
   xmlns="http://www.w3.org/2000/svg"
   xmlns:sodipodi="http://inkscape.sourceforge.net/DTD/sodipodi-0.dtd"
   xmlns:inkscape="http://www.inkscape.org/namespaces/inkscape"
   sodipodi:docname="W15.svg"
   sodipodi:docbase="/home/rosmord/Desktop/lien vers Ramessides/Fontes"
   inkscape:version="0.41.1"
   sodipodi:version="0.32"
   id="svg1290"
   height="18.000000px"
   width="18.000000px">
  <defs
     id="defs3" />
  <sodipodi:namedview
     inkscape:guide-bbox="true"
     showguides="true"
     inkscape:window-y="0"
     inkscape:window-x="0"
     inkscape:window-height="948"
     inkscape:window-width="1272"
     inkscape:current-layer="layer1"
     inkscape:document-units="px"
     inkscape:cy="9.8903067"
     inkscape:cx="5.9587086"
     inkscape:zoom="37.832718"
     inkscape:pageshadow="2"
     inkscape:pageopacity="0.0"
     borderopacity="1.0"
     bordercolor="#666666"
     pagecolor="#ffffff"
     id="base" />
  <metadata
     id="metadata4">
    <rdf:RDF
       id="RDF5">
      <cc:Work
         id="Work6"
         rdf:about="">
        <dc:format
           id="format7">image/svg+xml</dc:format>
        <dc:type
           rdf:resource="http://purl.org/dc/dcmitype/StillImage"
           id="type9" />
        <cc:license
           rdf:resource="http://creativecommons.org/licenses/by/2.0/"
           id="license1300" />
        <dc:subject
           id="subject1316">
          <rdf:Bag
             id="Bag1318">
            <rdf:li
               id="li1350">JSesh hieroglyph</rdf:li>
          </rdf:Bag>
        </dc:subject>
      </cc:Work>
      <cc:License
         id="License1302"
         rdf:about="http://creativecommons.org/licenses/by/2.0/">
        <cc:permits
           id="permits1304"
           rdf:resource="http://web.resource.org/cc/Reproduction" />
        <cc:permits
           id="permits1306"
           rdf:resource="http://web.resource.org/cc/Distribution" />
        <cc:requires
           id="requires1308"
           rdf:resource="http://web.resource.org/cc/Notice" />
        <cc:requires
           id="requires1310"
           rdf:resource="http://web.resource.org/cc/Attribution" />
        <cc:permits
           id="permits1312"
           rdf:resource="http://web.resource.org/cc/DerivativeWorks" />
        <cc:requires
           id="requires1314"
           rdf:resource="http://web.resource.org/cc/ShareAlike" />
      </cc:License>
    </rdf:RDF>
  </metadata>
  <g
     id="layer1"
     inkscape:groupmode="layer"
     inkscape:label="Layer 1">
    <path
       id="path3502"
       d="M 3.8233418,-0.0027036904 C 3.6610172,-0.0025169466 3.5294735,0.12902671 3.5292868,0.29135138 L 3.5292868,0.79198935 C 3.5293055,0.94936725 3.6530984,1.0788989 3.8103141,1.0860444 L 5.6807273,1.1725859 L 5.6807273,2.2604034 C 5.3006660,2.5945969 4.7556896,2.9077615 4.4012157,3.3956791 C 4.0578997,2.7275560 3.4987173,2.2202680 2.7885659,1.6983488 C 2.7410157,1.6630884 2.6839399,1.6429822 2.6247884,1.6406545 L 2.6080384,1.7057932 C 2.3035205,1.7091411 1.9515149,1.8958275 1.6960956,2.0212510 C 1.4329727,2.1504574 1.1341418,2.2824350 1.0149303,2.6400693 C 0.94184175,2.8593346 1.0243321,3.0443100 1.0996106,3.1732767 C 1.1748892,3.3022434 1.2646015,3.4090925 1.3480686,3.5101372 C 1.4315356,3.6111819 1.5087621,3.7059657 1.5537209,3.7772062 C 1.5830948,3.8237514 1.5918919,3.8535640 1.5955959,3.8628171 C 1.5926593,3.8493596 1.5167799,3.9831813 1.3489991,4.1429138 C 1.1763621,4.3072696 0.92604450,4.4852692 0.86138884,4.8473432 C 0.79739112,5.2057311 0.99890851,5.4153250 1.1107773,5.5834112 C 1.1649560,5.6648164 1.2091646,5.7348414 1.2317493,5.7806887 C 1.1889623,5.8143628 1.1145686,5.8610552 1.0288885,5.9118967 C 0.94128524,5.9638794 0.84366443,6.0188282 0.74693071,6.0970771 C 0.65019701,6.1753257 0.52363944,6.2916074 0.50312559,6.5018679 C 0.48202683,6.7181319 0.59051402,6.8539305 0.67248641,6.9476033 C 0.75445879,7.0412759 0.84104523,7.1122687 0.91815260,7.1783806 C 0.97949986,7.2309799 1.0222353,7.2728799 1.0586663,7.3095886 C 1.0196906,7.3479319 0.96911187,7.3939023 0.90047211,7.4501024 C 0.81922240,7.5166269 0.72651785,7.5895475 0.63898646,7.6836713 C 0.55145509,7.7777952 0.45353974,7.9003891 0.43333406,8.0903234 C 0.41321030,8.2794814 0.48818781,8.4206439 0.55616717,8.5239614 C 0.62414653,8.6272792 0.69922058,8.7077353 0.76461124,8.7807944 C 0.82459451,8.8478118 0.87149144,8.9039538 0.90047211,8.9445719 C 0.86611764,8.9788501 0.81266650,9.0252749 0.74413906,9.0795022 C 0.66904672,9.1389245 0.58303623,9.2039284 0.49940338,9.2898074 C 0.41577053,9.3756863 0.31922477,9.4890483 0.29282042,9.6694733 C 0.26533353,9.8573014 0.34500371,9.9952434 0.40913966,10.087292 C 0.47327560,10.179341 0.54029436,10.246124 0.59711154,10.305973 C 0.63813873,10.349189 0.66057787,10.377505 0.68365305,10.405542 C 0.64088230,10.459259 0.55968187,10.570115 0.44822292,10.680055 C 0.36397066,10.763159 0.27413493,10.850169 0.19325116,10.958290 C 0.11236738,11.066413 0.016162194,11.214598 0.045293091,11.428220 C 0.077629752,11.665356 0.22325435,11.839443 0.36354252,11.960497 C 0.39549262,11.988066 0.42857775,12.010126 0.46125067,12.034942 C 0.42586128,12.074086 0.39537690,12.102635 0.35982030,12.145677 C 0.26546731,12.259894 0.17319801,12.381675 0.10670965,12.529995 C 0.073465469,12.604157 0.043280478,12.686024 0.040640322,12.794273 C 0.038000166,12.902522 0.080997950,13.048659 0.17836230,13.146023 C 0.28776710,13.255429 0.47526565,13.497747 0.60641708,13.668994 C 0.55236979,13.750120 0.49183160,13.837225 0.42961184,13.934202 C 0.31756460,14.108842 0.19714877,14.316199 0.18394562,14.584659 C 0.16835737,14.901618 0.30229003,15.143482 0.40169523,15.346783 C 0.50110041,15.550083 0.57047825,15.718804 0.57291714,15.813920 C 0.58331820,16.219552 0.37733309,16.724716 0.26118159,17.292571 L 0.93397205,17.430292 C 1.0301087,16.960288 1.2755370,16.415197 1.2596659,15.796239 C 1.2516528,15.483731 1.1160119,15.244400 1.0186524,15.045283 C 0.92129312,14.846167 0.86623799,14.690780 0.86976383,14.619090 C 0.87282861,14.556774 0.91720749,14.445272 1.0074858,14.304562 C 1.0977641,14.163852 1.2247928,14.003118 1.3275964,13.804854 C 1.3873793,13.688802 1.3762007,13.548889 1.2987492,13.443800 C 1.2987492,13.443800 1.0105485,13.044011 0.75902792,12.766357 C 0.78805116,12.716754 0.83239106,12.651933 0.88930550,12.583037 C 1.0367246,12.404583 1.2177909,12.237802 1.2177909,12.237802 C 1.2955011,12.166994 1.3368962,12.064435 1.3294575,11.959567 C 1.3220187,11.854698 1.2665654,11.759073 1.1796382,11.699942 C 1.0250635,11.594831 0.89128789,11.507871 0.81300005,11.440318 C 0.77535204,11.407831 0.75523992,11.385926 0.74320851,11.369595 C 0.77734931,11.323957 0.84786964,11.250784 0.93024982,11.169527 C 1.0950102,11.007012 1.3423565,10.846686 1.3973878,10.477194 C 1.4249621,10.292055 1.3489954,10.151800 1.2847908,10.057514 C 1.2205863,9.9632279 1.1526046,9.8939732 1.0949579,9.8332506 C 1.0590517,9.7954290 1.0419096,9.7736867 1.0186524,9.7467097 C 1.0564730,9.7112781 1.1053936,9.6696806 1.1703327,9.6182929 C 1.2467172,9.5578483 1.3325790,9.4912542 1.4159990,9.4024044 C 1.4994189,9.3135545 1.5959081,9.1918455 1.6123458,9.0069189 C 1.6291362,8.8180299 1.5521266,8.6800361 1.4839294,8.5779337 C 1.4157322,8.4758311 1.3413705,8.3955337 1.2764159,8.3229618 C 1.2152068,8.2545747 1.1662516,8.1962263 1.1386939,8.1563927 C 1.1407464,8.1540218 1.1400236,8.1543128 1.1424161,8.1517400 C 1.1818863,8.1092971 1.2535708,8.0481533 1.3350408,7.9814486 C 1.4165108,7.9147438 1.5072756,7.8421576 1.5937348,7.7478796 C 1.6801939,7.6536015 1.7813206,7.5253248 1.7900816,7.3281998 C 1.7993533,7.1195711 1.6961840,6.9870077 1.6132764,6.8917700 C 1.5303687,6.7965322 1.4424264,6.7238117 1.3648185,6.6572705 C 1.3238739,6.6221643 1.3040775,6.6005093 1.2726937,6.5716594 C 1.3086561,6.5485227 1.3326510,6.5307213 1.3797074,6.5027985 C 1.4676177,6.4506335 1.5665380,6.3930794 1.6653874,6.3138960 C 1.7642369,6.2347126 1.8823598,6.1270801 1.9240814,5.9351606 C 1.9637332,5.7527607 1.9091254,5.6043209 1.8552204,5.4912864 C 1.8013153,5.3782520 1.7375971,5.2861446 1.6821374,5.2028147 C 1.5712179,5.0361547 1.5480365,4.9054174 1.5369710,4.9673846 C 1.5373213,4.9654229 1.6458947,4.8090377 1.8226510,4.6407601 C 1.9994073,4.4724827 2.2601745,4.2844066 2.2851363,3.9037615 C 2.2988525,3.6945801 2.2154757,3.5390597 2.1343865,3.4105679 C 2.0532974,3.2820762 1.9598192,3.1714364 1.8775536,3.0718463 C 1.7975836,2.9750351 1.7310756,2.8886979 1.6979569,2.8336245 C 1.7308006,2.8071881 1.8182841,2.7267157 1.9985257,2.6382082 C 2.2063821,2.5361406 2.2788770,2.5006378 2.4023861,2.4949029 L 2.3902888,2.5423612 C 2.6938088,2.8055424 3.0809230,3.3553383 3.3683010,3.8981782 C 3.6556790,4.4410180 3.9070916,5.0882717 3.9070916,5.2567868 C 3.9070661,5.2622105 3.9079335,5.2655624 3.9080223,5.2707451 C 3.9073701,5.5859272 3.9353838,5.8986493 3.9833972,6.1929240 C 4.3842003,8.6494633 5.2887444,11.022254 5.7356300,13.405647 C 5.8776654,14.163166 5.9244750,14.989996 5.7868105,15.696670 C 5.6947113,16.169452 5.4106797,16.765848 5.1149506,16.956641 C 4.6260368,17.272069 3.7302287,17.270149 2.9048851,17.467515 C 2.7599238,17.502288 2.6642306,17.639562 2.6815522,17.787625 C 2.6988739,17.935689 2.8237424,18.047805 2.9728155,18.048181 L 10.217177,18.048181 C 10.366428,18.048275 10.491796,17.936767 10.509372,17.788556 C 10.526948,17.640345 10.431171,17.502330 10.286039,17.467515 C 9.4606945,17.270149 8.5639563,17.272069 8.0750425,16.956641 C 7.7793131,16.765848 7.4962127,16.169452 7.4041132,15.696670 C 7.2664487,14.989996 7.3123278,14.163166 7.4543631,13.405647 C 7.9012490,11.022254 8.8057926,8.6494630 9.2065956,6.1929240 C 9.3364015,5.3973430 9.3208731,4.4649745 8.9841939,3.7223035 C 8.6716068,3.0327720 7.9683478,2.6635130 7.5092658,2.2594728 L 7.5092658,1.1725859 L 9.4410952,1.0860444 C 9.5983114,1.0788989 9.7221037,0.94936725 9.7221231,0.79198935 L 9.7221231,0.29135138 C 9.7219365,0.12902671 9.5903924,-0.0025169466 9.4280677,-0.0027036904 L 3.8233418,-0.0027036904 z M 6.2697679,1.1725859 L 6.9202252,1.1725859 L 6.9202252,2.3925420 C 6.9202150,2.4725949 6.9528058,2.5492002 7.0104889,2.6047083 C 7.5594886,3.1354077 8.2426348,3.5117366 8.4481947,3.9651781 C 8.7073043,4.5367412 8.7417865,5.3879226 8.6259303,6.0980075 C 8.2382951,8.4738391 7.3357075,10.842643 6.8755586,13.296772 C 6.7237371,14.106484 6.6678024,14.995963 6.8262392,15.809269 C 6.9384095,16.385080 7.1997805,17.092002 7.7558625,17.450765 C 7.7612755,17.454258 7.7671742,17.456636 7.7726125,17.460071 L 5.4173806,17.460071 C 5.4228329,17.456627 5.4287036,17.454267 5.4341306,17.450765 C 5.9902121,17.092002 6.2525144,16.385081 6.3646846,15.809269 C 6.5231214,14.995963 6.4662560,14.106484 6.3144346,13.296772 C 5.8542856,10.842643 4.9526281,8.4738391 4.5649933,6.0980075 C 4.4491370,5.3879226 4.4836195,4.5367407 4.7427291,3.9651781 C 4.9482886,3.5117372 5.6305049,3.1354075 6.1795042,2.6047083 C 6.2371873,2.5492002 6.2697782,2.4725949 6.2697679,2.3925420 L 6.2697679,1.1725859 z "
       style="opacity:0.99415207;fill:#000000;fill-opacity:1.0000000;fill-rule:nonzero;stroke:none;stroke-width:19.770779;stroke-linecap:butt;stroke-linejoin:round;stroke-miterlimit:4.0000000;stroke-opacity:1.0000000;display:inline" />
  </g>
</svg>
