<?xml version="1.0" encoding="UTF-8" standalone="no"?>
<svg
   width="1071.4287"
   height="1791.457"
   id="svg2214"
   sodipodi:version="0.32"
   inkscape:version="1.4 (e7c3feb1, 2024-10-09)"
   sodipodi:docname="W17D.svg"
   inkscape:output_extension="org.inkscape.output.svg.inkscape"
   sodipodi:modified="true"
   version="1.1"
   xml:space="preserve"
   xmlns:inkscape="http://www.inkscape.org/namespaces/inkscape"
   xmlns:sodipodi="http://sodipodi.sourceforge.net/DTD/sodipodi-0.dtd"
   xmlns="http://www.w3.org/2000/svg"
   xmlns:svg="http://www.w3.org/2000/svg"
   xmlns:rdf="http://www.w3.org/1999/02/22-rdf-syntax-ns#"
   xmlns:cc="http://creativecommons.org/ns#"
   xmlns:dc="http://purl.org/dc/elements/1.1/"><title
     id="title1">W17D</title><metadata
     id="metadata2221"><rdf:RDF><cc:Work
         rdf:about=""><dc:format>image/svg+xml</dc:format><dc:type
           rdf:resource="http://purl.org/dc/dcmitype/StillImage" /><dc:creator><cc:Agent><dc:title>Serge Rosmorduc</dc:title></cc:Agent></dc:creator><cc:license
           rdf:resource="http://scripts.sil.org/OFL" /><dc:title>W17D</dc:title><dc:date>1/4/2026</dc:date><dc:description>Version of W17D drawn in simple lines from an example in Louvre C65 Stela.
</dc:description></cc:Work><cc:License
         rdf:about="http://scripts.sil.org/OFL"><cc:permits
           rdf:resource="http://scripts.sil.org/pub/OFL/Reproduction" /><cc:permits
           rdf:resource="http://scripts.sil.org/pub/OFL/Distribution" /><cc:permits
           rdf:resource="http://scripts.sil.org/pub/OFL/Embedding" /><cc:permits
           rdf:resource="http://scripts.sil.org/pub/OFL/DerivativeWorks" /><cc:requires
           rdf:resource="http://scripts.sil.org/pub/OFL/Notice" /><cc:requires
           rdf:resource="http://scripts.sil.org/pub/OFL/Attribution" /><cc:requires
           rdf:resource="http://scripts.sil.org/pub/OFL/ShareAlike" /><cc:requires
           rdf:resource="http://scripts.sil.org/pub/OFL/DerivativeRenaming" /><cc:requires
           rdf:resource="http://scripts.sil.org/pub/OFL/BundlingWhenSelling" /></cc:License></rdf:RDF></metadata><defs
     id="defs2219" /><sodipodi:namedview
     inkscape:window-height="1147"
     inkscape:window-width="1920"
     inkscape:pageshadow="2"
     inkscape:pageopacity="0.0"
     guidetolerance="10.0"
     gridtolerance="10.0"
     objecttolerance="10.0"
     borderopacity="1.0"
     bordercolor="#666666"
     pagecolor="#ffffff"
     id="base"
     inkscape:showpageshadow="2"
     inkscape:pagecheckerboard="0"
     inkscape:deskcolor="#d1d1d1"
     inkscape:zoom="0.17644301"
     inkscape:cx="1326.2072"
     inkscape:cy="532.74992"
     inkscape:window-x="1024"
     inkscape:window-y="25"
     inkscape:window-maximized="1"
     inkscape:current-layer="svg2214"
     showguides="true" /><path
     id="path1"
     d="m 136.49857,0 v 50 h 798.4316 V 0 Z M 277.4849,51.341797 V 241.60742 H 136.49857 v 50 H 277.4849 V 767.875 h -34.49414 c -79.47944,0 -138.01619,55.3675 -172.240236,129.55469 -34.22404,74.18718 -51.43976,170.46681 -60.9062496,275.92381 -18.93298,210.9141 -4.88075,459.1318 -4.05273,618.1035 l 69.9999996,-0.3632 c -0.84697,-162.61 -14.44125,-408.592 3.77148,-611.4825 C 88.669394,1078.1661 106.22294,987.6426 134.31302,926.75195 162.40311,865.8613 193.72406,837.875 242.99076,837.875 h 34.49414 v 953.4004 h 70 V 837.875 h 153.22851 v 953.4004 h 70 V 837.875 h 153.23047 v 953.4004 h 69.99999 V 837.875 h 34.4922 c 49.2667,0 80.5877,27.9863 108.6777,88.87695 28.0901,60.89065 45.6437,151.41415 54.75,252.85935 18.21283,202.8905 4.6204,448.8725 3.7735,611.4825 l 70.00003,0.3632 c 0.8279,-158.9717 14.8802,-407.1894 -4.0528,-618.1035 -9.4665,-105.457 -26.6841,-201.73663 -60.9082,-275.92381 C 966.45227,823.2425 907.91547,767.875 828.43607,767.875 h -34.4922 V 291.60742 h 140.9863 v -50 H 793.94387 V 51.341797 H 723.94388 V 241.60742 H 570.71341 V 51.341797 h -70 V 241.60742 H 347.4849 V 51.341797 Z m 70,240.265623 H 500.71341 V 767.875 H 347.4849 Z m 223.22851,0 H 723.94388 V 767.875 H 570.71341 Z" /></svg>
