<?xml version="1.0" encoding ="US-ASCII" standalone="yes"?>
<svg width="6.348539" height="10.08">
<path style="fill:#000000; stroke:none" d=" M 4.240551 10.08  L 2.189793 10.08  Q 1.425103 10.08 1.008 9.245791  Q 0.24331 6.777931 0 4.727172  Q 0 3.927722 0.868966 3.023999  Q 1.737931 2.120276 1.703172 0.973241  Q 1.529379 0.76469 0.76469 0.76469  Q 0.24331 0.382345 0.76469 0  L 5.561378 0  Q 6.082758 0.382345 5.561378 0.76469  Q 4.76193 0.76469 4.588138 0.938483  Q 4.449104 2.120276 5.509241 2.919724  Q 6.569378 3.719172 6.29131 5.074758  Q 6.256551 6.70841 5.318068 9.280549  Q 4.900965 10.08 4.240551 10.08  Z  M 5.457102 3.927722  Q 3.927722 3.093516 3.858206 1.216552  L 3.892966 0.76469  L 2.433103 0.76469  L 2.433103 1.216552  Q 2.294069 3.093516 1.008 3.858206  L 5.457102 3.927722  Z  M 4.066758 9.245791  Q 4.76193 9.245791 5.561378 4.76193  L 0.903724 4.76193  Q 1.737931 9.245791 2.294069 9.245791  L 4.066758 9.245791  Z "/></svg>
