<?xml version="1.0" encoding="UTF-8" standalone="no"?>
<svg
   xmlns:dc="http://purl.org/dc/elements/1.1/"
   xmlns:cc="http://web.resource.org/cc/"
   xmlns:rdf="http://www.w3.org/1999/02/22-rdf-syntax-ns#"
   xmlns:svg="http://www.w3.org/2000/svg"
   xmlns="http://www.w3.org/2000/svg"
   xmlns:sodipodi="http://inkscape.sourceforge.net/DTD/sodipodi-0.dtd"
   xmlns:inkscape="http://www.inkscape.org/namespaces/inkscape"
   width="7.954737"
   height="7.92"
   id="svg2567"
   sodipodi:version="0.32"
   inkscape:version="0.43"
   sodipodi:docname="US22W24.svg"
   sodipodi:docbase="C:\Program Files\JSesh\fonts\envoi26_SR">
  <metadata
     id="metadata2574">
    <rdf:RDF>
      <cc:Work
         rdf:about="">
        <dc:format>image/svg+xml</dc:format>
        <dc:type
           rdf:resource="http://purl.org/dc/dcmitype/StillImage" />
        <dc:creator>
          <cc:Agent>
            <dc:title>SR &amp; ST</dc:title>
          </cc:Agent>
        </dc:creator>
        <dc:publisher>
          <cc:Agent>
            <dc:title>Serge Rosmorduc</dc:title>
          </cc:Agent>
        </dc:publisher>
        <dc:title>US22W24</dc:title>
        <dc:date>17/04/06</dc:date>
        <dc:description>variante optimisée du signe de Jsesh : valeur phonétique : nw</dc:description>
        <cc:license
           rdf:resource="http://creativecommons.org/licenses/GPL/2.0/" />
      </cc:Work>
      <cc:License
         rdf:about="http://creativecommons.org/licenses/GPL/2.0/">
        <cc:permits
           rdf:resource="http://web.resource.org/cc/Reproduction" />
        <cc:permits
           rdf:resource="http://web.resource.org/cc/Distribution" />
        <cc:requires
           rdf:resource="http://web.resource.org/cc/Notice" />
        <cc:permits
           rdf:resource="http://web.resource.org/cc/DerivativeWorks" />
        <cc:requires
           rdf:resource="http://web.resource.org/cc/ShareAlike" />
        <cc:requires
           rdf:resource="http://web.resource.org/cc/SourceCode" />
      </cc:License>
    </rdf:RDF>
  </metadata>
  <defs
     id="defs2572" />
  <sodipodi:namedview
     inkscape:window-height="542"
     inkscape:window-width="811"
     inkscape:pageshadow="2"
     inkscape:pageopacity="0.0"
     borderopacity="1.0"
     bordercolor="#666666"
     pagecolor="#ffffff"
     id="base"
     inkscape:zoom="47.095959"
     inkscape:cx="3.9773686"
     inkscape:cy="3.96"
     inkscape:window-x="22"
     inkscape:window-y="29"
     inkscape:current-layer="svg2567" />
  <path
     style="fill:#000000; stroke:none"
     d=" M 6.252631 1.285263  Q 6.895264 1.65 7.416317 2.475  Q 7.937369 3.3 7.954737 4.307368  Q 7.954737 5.453684 6.982106 6.643421  Q 6.009474 7.833158 3.977368 7.92  Q 1.927895 7.833158 0.963947 6.643421  Q 0 5.453684 0 4.29  Q 0.017368 3.3 0.538421 2.483685  Q 1.059474 1.667369 1.684737 1.302632  L 1.684737 0  L 6.252631 0  L 6.252631 1.285263  Z  M 5.453684 1.128947  L 5.453684 0.573158  L 2.518421 0.573158  L 2.518421 1.128947  L 5.453684 1.128947  Z  M 3.977368 1.667369  Q 1.87579 1.667369 1.302632 2.605263  Q 0.729474 3.543158 0.729474 4.307368  Q 0.729474 5.453684 1.684737 6.322105  Q 2.64 7.190526 3.977368 7.190526  Q 5.297369 7.190526 6.252631 6.322105  Q 7.207895 5.453684 7.225263 4.29  Q 7.225263 3.543158 6.521842 2.605263  Q 5.818421 1.667369 3.977368 1.667369  Z "
     id="path2569" />
</svg>
