<?xml version="1.0" encoding="UTF-8" standalone="no"?>
<!-- Created with Inkscape (http://www.inkscape.org/) -->
<svg
   xmlns:dc="http://purl.org/dc/elements/1.1/"
   xmlns:cc="http://web.resource.org/cc/"
   xmlns:rdf="http://www.w3.org/1999/02/22-rdf-syntax-ns#"
   xmlns:svg="http://www.w3.org/2000/svg"
   xmlns="http://www.w3.org/2000/svg"
   xmlns:sodipodi="http://inkscape.sourceforge.net/DTD/sodipodi-0.dtd"
   xmlns:inkscape="http://www.inkscape.org/namespaces/inkscape"
   width="1800.000000px"
   height="1800.000000px"
   id="svg1290"
   sodipodi:version="0.32"
   inkscape:version="0.42+0.43pre1"
   sodipodi:docbase="/home/rosmord/Desktop/lien vers Ramessides/Fontes"
   sodipodi:docname="W25.svg">
  <defs
     id="defs3" />
  <sodipodi:namedview
     id="base"
     pagecolor="#ffffff"
     bordercolor="#666666"
     borderopacity="1.0"
     inkscape:pageopacity="0.0"
     inkscape:pageshadow="2"
     inkscape:zoom="0.053888889"
     inkscape:cx="-4235.5175"
     inkscape:cy="-1517.9516"
     inkscape:document-units="px"
     inkscape:current-layer="layer1"
     inkscape:window-width="1273"
     inkscape:window-height="944"
     inkscape:window-x="0"
     inkscape:window-y="0" />
  <metadata
     id="metadata4">
    <rdf:RDF>
      <cc:Work
         rdf:about="">
        <dc:format>image/svg+xml</dc:format>
        <dc:type
           rdf:resource="http://purl.org/dc/dcmitype/StillImage" />
        <cc:license
           rdf:resource="http://creativecommons.org/licenses/by-sa/2.0/" />
        <dc:subject>
          <rdf:Bag>
            <rdf:li>JSesh hieroglyph</rdf:li>
          </rdf:Bag>
        </dc:subject>
        <dc:creator>
          <cc:Agent>
            <dc:title>Serge Rosmorduc</dc:title>
          </cc:Agent>
        </dc:creator>
        <dc:title>W25</dc:title>
        <dc:description>W25 sign for the Luxor Obelisk in the place de la concorde.</dc:description>
      </cc:Work>
      <cc:License
         rdf:about="http://creativecommons.org/licenses/by/2.0/">
        <cc:permits
           rdf:resource="http://web.resource.org/cc/Reproduction" />
        <cc:permits
           rdf:resource="http://web.resource.org/cc/Distribution" />
        <cc:requires
           rdf:resource="http://web.resource.org/cc/Notice" />
        <cc:requires
           rdf:resource="http://web.resource.org/cc/Attribution" />
        <cc:permits
           rdf:resource="http://web.resource.org/cc/DerivativeWorks" />
        <cc:requires
           rdf:resource="http://web.resource.org/cc/ShareAlike" />
      </cc:License>
    </rdf:RDF>
  </metadata>
  <g
     inkscape:label="Layer 1"
     inkscape:groupmode="layer"
     id="layer1">
    <path
       style="opacity:1;fill:#000000;fill-opacity:1;fill-rule:evenodd;stroke:none;stroke-width:60;stroke-linecap:butt;stroke-linejoin:miter;stroke-miterlimit:4;stroke-dasharray:none;stroke-opacity:1;display:inline"
       d="M 576.32603,-0.16766481 L 576.32603,29.832335 L 576.32603,122.64483 C 533.04405,131.30948 496.8256,153.64129 470.66978,182.92608 C 435.77898,221.99081 417.53856,272.67638 417.70103,322.39483 C 418.0008,414.11966 463.23494,502.51176 522.23228,547.11356 C 493.13823,815.20076 460.17431,1082.8706 417.32603,1349.1449 C 402.99744,1434.2534 388.13591,1519.5469 365.01353,1602.6761 C 359.50202,1620.2295 354.18675,1638.9278 342.04478,1653.0199 C 322.85824,1672.7751 297.68584,1685.643 273.29478,1697.7073 C 222.19083,1721.2292 167.00893,1735.5968 111.54478,1744.3011 C 89.906373,1747.1094 68.161747,1744.2107 47.138532,1739.3011 C 35.287911,1737.1864 21.520594,1733.9824 10.576031,1740.6136 C -0.95962991,1749.1833 -0.22072591,1767.2826 8.7635311,1777.4573 C 20.956396,1793.0596 42.383117,1795.7545 60.888532,1797.4573 C 112.77726,1801.9243 164.47955,1789.6711 216.38853,1794.0823 C 269.85764,1796.5354 323.38252,1798.3079 376.79478,1801.7073 C 400.0979,1804.1917 425.70017,1810.3251 447.85728,1799.4261 C 461.33725,1790.9232 462.40394,1773.1744 465.32603,1758.9886 C 473.97831,1711.4363 474.25175,1661.897 491.98228,1616.4261 C 528.56599,1494.9777 554.38605,1370.6079 580.98228,1246.6761 C 618.28831,1066.4146 650.34565,884.84646 670.60728,701.86356 C 674.00939,667.24046 676.84908,632.52436 677.73228,597.73856 C 698.62453,599.56766 718.73774,600.14486 736.85728,600.14486 C 749.365,600.14486 762.29028,599.50616 775.38853,598.17606 C 836.68623,892.68926 900.41615,1187.1433 940.16978,1485.4573 C 947.46668,1546.6641 954.69143,1608.5173 951.26353,1670.1449 C 889.40911,1706.1631 823.11761,1735.5902 753.57603,1752.9573 C 728.2975,1756.24 703.02241,1746.9841 677.73228,1750.1761 C 660.32931,1755.1746 649.11946,1778.3045 660.29478,1793.8323 C 671.28425,1808.9468 691.96476,1809.9738 709.07603,1809.8323 C 747.00365,1809.2231 784.79928,1804.7343 822.76353,1805.5823 C 883.03695,1804.4003 943.5051,1800.1489 1003.6698,1805.6761 C 1030.6843,1809.1564 1060.17,1814.1004 1085.8259,1802.1136 C 1102.2576,1792.1215 1106.2154,1770.9424 1105.2009,1752.9886 C 1104.5581,1713.5293 1089.6501,1675.661 1090.7322,1636.0511 C 1080.2327,1429.4526 1050.977,1224.4723 1018.8573,1020.3011 C 993.37288,860.33606 964.21045,700.94896 930.45103,542.51986 C 933.55168,540.19256 936.58432,537.78576 939.54478,535.30106 C 992.32445,491.00376 1031.8937,419.06696 1031.2323,330.33233 C 1030.8782,282.827 1011.8784,233.28525 983.01353,192.86358 C 958.49913,158.53415 925.6788,128.98419 885.82603,120.98858 L 885.82603,29.832335 L 885.82603,-0.16766481 L 855.82603,-0.16766481 L 606.32603,-0.16766481 L 576.32603,-0.16766481 z M 636.32603,59.832335 L 825.82603,59.832335 L 825.82603,125.42608 L 636.32603,125.42608 L 636.32603,59.832335 z M 576.29478,184.11358 C 576.29611,184.11376 576.31888,184.11364 576.32603,184.11358 L 576.32603,185.42608 L 606.32603,185.42608 L 855.82603,185.42608 L 885.82603,185.42608 L 885.82603,184.36358 C 901.7764,191.88807 919.3027,206.87529 934.20103,227.73858 C 956.31696,258.70924 971.00417,300.164 971.23228,330.76983 C 971.76005,401.57206 940.73164,455.97116 900.98228,489.33236 C 863.3294,520.93386 792.38277,540.14476 736.85728,540.14486 C 679.85093,540.14486 599.55238,528.76436 561.01353,501.14486 C 522.73465,473.71166 477.93494,393.78066 477.70103,322.20733 C 477.58813,287.658 491.03398,250.19787 515.41978,222.89483 C 531.3277,205.08386 551.36167,191.25583 576.29478,184.11358 z "
       id="path2210" />
  </g>
</svg>
