<?xml version="1.0" encoding="UTF-8" standalone="no"?>
<svg
   xmlns:dc="http://purl.org/dc/elements/1.1/"
   xmlns:cc="http://creativecommons.org/ns#"
   xmlns:rdf="http://www.w3.org/1999/02/22-rdf-syntax-ns#"
   xmlns:svg="http://www.w3.org/2000/svg"
   xmlns="http://www.w3.org/2000/svg"
   xmlns:sodipodi="http://sodipodi.sourceforge.net/DTD/sodipodi-0.dtd"
   xmlns:inkscape="http://www.inkscape.org/namespaces/inkscape"
   width="17.40625"
   height="18.21875"
   id="svg2574"
   sodipodi:version="0.32"
   inkscape:version="0.46"
   sodipodi:docname="W34A.svg"
   inkscape:output_extension="org.inkscape.output.svg.inkscape"
   version="1.0">
  <metadata
     id="metadata2581">
    <rdf:RDF>
      <cc:Work
         rdf:about="">
        <dc:format>image/svg+xml</dc:format>
        <dc:type
           rdf:resource="http://purl.org/dc/dcmitype/StillImage" />
      </cc:Work>
    </rdf:RDF>
  </metadata>
  <defs
     id="defs2579">
    <inkscape:perspective
       sodipodi:type="inkscape:persp3d"
       inkscape:vp_x="0 : 8.9549999 : 1"
       inkscape:vp_y="0 : 1000 : 0"
       inkscape:vp_z="15.88 : 8.9549999 : 1"
       inkscape:persp3d-origin="7.9400001 : 5.9699999 : 1"
       id="perspective2583" />
  </defs>
  <sodipodi:namedview
     inkscape:window-height="708"
     inkscape:window-width="1024"
     inkscape:pageshadow="2"
     inkscape:pageopacity="0.0"
     guidetolerance="10.0"
     gridtolerance="10.0"
     objecttolerance="10.0"
     borderopacity="1.0"
     bordercolor="#666666"
     pagecolor="#ffffff"
     id="base"
     showgrid="false"
     showguides="true"
     inkscape:guide-bbox="true"
     inkscape:zoom="25.795645"
     inkscape:cx="7.9400001"
     inkscape:cy="8.7080013"
     inkscape:window-x="-4"
     inkscape:window-y="-4"
     inkscape:current-layer="svg2574" />
  <path
     style="fill:#000000;stroke:none"
     d="M 0.78125,0 L 0.78125,12.21875 L 0,12.21875 C 0,12.572083 0.1575,13.015833 0.4375,13.5625 C 0.71749999,14.115833 1.1229167,14.6925 1.65625,15.3125 C 2.1895834,15.9325 3.0116667,16.59 4.125,17.25 C 5.2183333,17.896666 6.71375,18.21875 8.59375,18.21875 C 8.6270835,18.218749 8.6475,18.21875 8.6875,18.21875 L 8.71875,18.21875 C 8.75875,18.218749 8.80375,18.21875 8.84375,18.21875 C 10.737083,18.218749 12.225833,17.896666 13.3125,17.25 C 14.419167,16.59 15.216667,15.9325 15.75,15.3125 C 16.283333,14.6925 16.68875,14.115833 16.96875,13.5625 C 17.242083,13.015833 17.40625,12.572083 17.40625,12.21875 L 16.625,12.21875 L 16.625,0 L 0.78125,0 z M 1.9375,1 L 8.15625,1 L 8.15625,12.21875 L 1.9375,12.21875 L 1.9375,1 z M 9.28125,1 L 15.625,1 L 15.625,12.21875 L 9.28125,12.21875 L 9.28125,1 z M 1.0625,13.03125 L 16.34375,13.03125 C 15.90375,13.87125 15.33625,14.585416 14.65625,15.21875 C 13.97625,15.85875 13.36125,16.327083 12.78125,16.59375 C 12.20125,16.867083 11.640417,17.07875 11.09375,17.21875 C 10.587083,17.345415 9.86875,17.40625 8.96875,17.40625 C 8.8820837,17.406251 8.8054167,17.40625 8.71875,17.40625 C 8.6254167,17.406251 8.5241667,17.40625 8.4375,17.40625 C 7.5308334,17.406251 6.84375,17.345416 6.34375,17.21875 C 5.7904168,17.078749 5.2295834,16.867083 4.65625,16.59375 C 4.0762499,16.327083 3.43,15.85875 2.75,15.21875 C 2.0633335,14.585416 1.5025,13.87125 1.0625,13.03125 z"
     id="path2576" />
</svg>
