<?xml version="1.0" encoding="UTF-8" standalone="no"?>
<svg
   xmlns:dc="http://purl.org/dc/elements/1.1/"
   xmlns:cc="http://creativecommons.org/ns#"
   xmlns:rdf="http://www.w3.org/1999/02/22-rdf-syntax-ns#"
   xmlns:svg="http://www.w3.org/2000/svg"
   xmlns="http://www.w3.org/2000/svg"
   xmlns:sodipodi="http://sodipodi.sourceforge.net/DTD/sodipodi-0.dtd"
   xmlns:inkscape="http://www.inkscape.org/namespaces/inkscape"
   width="18.0625"
   height="19.8125"
   id="svg3517"
   sodipodi:version="0.32"
   inkscape:version="0.46"
   sodipodi:docname="W35.svg"
   inkscape:output_extension="org.inkscape.output.svg.inkscape"
   version="1.0">
  <metadata
     id="metadata3524">
    <rdf:RDF>
      <cc:Work
         rdf:about="">
        <dc:format>image/svg+xml</dc:format>
        <dc:type
           rdf:resource="http://purl.org/dc/dcmitype/StillImage" />
      </cc:Work>
    </rdf:RDF>
  </metadata>
  <defs
     id="defs3522">
    <inkscape:perspective
       sodipodi:type="inkscape:persp3d"
       inkscape:vp_x="0 : 8.9849997 : 1"
       inkscape:vp_y="0 : 1000 : 0"
       inkscape:vp_z="17.969999 : 8.9849997 : 1"
       inkscape:persp3d-origin="8.9849997 : 5.9899998 : 1"
       id="perspective3526" />
  </defs>
  <sodipodi:namedview
     inkscape:window-height="708"
     inkscape:window-width="1024"
     inkscape:pageshadow="2"
     inkscape:pageopacity="0.0"
     guidetolerance="10.0"
     gridtolerance="10.0"
     objecttolerance="10.0"
     borderopacity="1.0"
     bordercolor="#666666"
     pagecolor="#ffffff"
     id="base"
     showgrid="false"
     showguides="true"
     inkscape:guide-bbox="true"
     inkscape:zoom="25.709517"
     inkscape:cx="8.9849997"
     inkscape:cy="7.9389039"
     inkscape:window-x="-4"
     inkscape:window-y="-4"
     inkscape:current-layer="svg3517" />
  <path
     style="fill:#000000;stroke:none"
     d="M 9.03125,0 C 8.20125,0 7.3825,0.05625 6.5625,0.15625 C 4.9124998,0.35625 2.74125,0.95875 0.03125,1.96875 L 0.03125,13.5625 L 0,13.5625 C 0,13.617793 0.024661315,13.690314 0.03125,13.75 C 0.032321331,13.759705 0.030004469,13.771429 0.03125,13.78125 C 0.073286676,14.112714 0.19703846,14.505003 0.4375,14.96875 C 0.72890374,15.530743 1.1636951,16.122123 1.71875,16.78125 C 2.2738046,17.433438 3.1295113,18.125618 4.28125,18.8125 C 5.4121742,19.485503 6.9427437,19.8125 8.90625,19.8125 C 8.9478786,19.812501 8.9896209,19.8125 9.03125,19.8125 C 9.0728787,19.812501 9.1146212,19.8125 9.15625,19.8125 C 11.119755,19.812501 12.674639,19.485503 13.8125,18.8125 C 14.978115,18.125618 15.819944,17.433439 16.375,16.78125 C 16.930052,16.122122 17.371783,15.530743 17.65625,14.96875 C 17.933776,14.406757 18.0625,13.930223 18.0625,13.5625 L 18,13.5625 L 18,1.96875 C 15.390001,0.95874997 13.2525,0.35625 11.5625,0.15625 C 10.7125,0.056250004 9.86125,0 9.03125,0 z M 9.03125,0.46875 C 9.84125,0.46875 10.64875,0.525 11.46875,0.625 C 13.09875,0.825 15.0975,1.38125 17.4375,2.28125 L 17.4375,13.5625 L 16.84375,13.5625 L 16.84375,2.59375 C 14.783751,1.8037501 12.97625,1.325 11.40625,1.125 C 10.61625,1.025 9.82125,0.96875 9.03125,0.96875 C 8.2512498,0.96874998 7.47875,1.025 6.71875,1.125 C 5.1787499,1.325 3.32625,1.80375 1.15625,2.59375 L 1.15625,13.5625 L 0.59375,13.5625 L 0.59375,2.28125 C 3.04375,1.38125 5.06625,0.825 6.65625,0.625 C 7.4562501,0.525 8.22125,0.46875 9.03125,0.46875 z M 9.03125,1.53125 C 9.82125,1.53125 10.43375,1.6225 10.84375,1.8125 C 10.38375,2.1125001 10.1,2.465 10,2.875 C 9.9099997,3.2849999 9.66125,3.535 9.28125,3.625 L 9.28125,4 C 9.53125,6.13 9.68125,7.58875 9.78125,8.71875 L 8.25,8.71875 C 8.3499997,7.5887497 8.53125,6.13 8.78125,4 L 8.78125,3.625 C 8.40125,3.5350001 8.1525,3.285 8.0625,2.875 C 7.9725003,2.4649999 7.68875,2.1125 7.21875,1.8125 C 7.6387499,1.6225001 8.26125,1.53125 9.03125,1.53125 z M 6.59375,1.59375 C 6.5537501,1.64375 6.53125,1.725 6.53125,1.875 C 6.53125,2.025 6.5775,2.16 6.6875,2.25 C 7.1075002,2.25 7.42375,2.545 7.59375,3.125 C 7.7737501,3.7150001 7.9575,4 8.1875,4 C 7.9075002,5.77 7.735,7.33875 7.625,8.71875 L 4.25,8.75 C 4.1000002,8.61 3.975,8.48375 3.875,8.34375 C 3.4350001,7.8037498 3.36125,6.97625 3.78125,6.40625 C 4.05125,6.0362502 4.47625,5.8125 4.90625,5.8125 C 5.0562501,5.8124998 5.235,5.84625 5.375,5.90625 C 5.4849998,5.9462502 5.5975,6.03375 5.6875,6.09375 C 6.1675002,6.4637498 6.3075,7.145 5.9375,7.625 C 5.7575002,7.8550001 5.4675,8 5.1875,8 C 5.0875002,8.0000002 4.98625,7.9675 4.90625,7.9375 C 4.8262499,7.9074999 4.77875,7.8725 4.71875,7.8125 C 4.4587499,7.5925001 4.36375,7.1775 4.59375,6.9375 L 4.3125,6.65625 C 3.9024998,7.0962502 4.0075,7.775 4.4375,8.125 C 4.5375002,8.2150001 4.66125,8.2725 4.78125,8.3125 C 4.93125,8.3724996 5.06875,8.40625 5.21875,8.40625 C 5.6087502,8.4062504 6,8.21625 6.25,7.90625 C 6.4800002,7.6062502 6.5925,7.24625 6.5625,6.90625 C 6.5324998,6.4562502 6.27625,6.03 5.90625,5.75 C 5.7762499,5.66 5.67125,5.58125 5.53125,5.53125 C 5.33125,5.4512498 5.11625,5.40625 4.90625,5.40625 C 4.3362499,5.4062499 3.7775,5.67625 3.4375,6.15625 C 2.8974999,6.8862502 2.98125,7.91375 3.53125,8.59375 C 3.56125,8.6437498 3.62625,8.7 3.65625,8.75 L 2.3125,8.75 L 2.3125,9.40625 L 4.28125,9.40625 C 5.07125,10.12625 6.145,10.8375 6.875,11.1875 C 6.9549998,11.0675 7.045,10.9325 7.125,10.8125 C 6.5549998,10.4825 5.71,9.925 5,9.375 L 7.59375,9.375 C 7.5237501,10.495 7.5025,11.535 7.5625,12.375 C 7.6268998,12.88215 7.7277328,13.275516 7.90625,13.5625 L 1.75,13.5625 L 1.75,2.90625 C 3.66,2.2162499 5.26375,1.79375 6.59375,1.59375 z M 11.4375,1.59375 C 12.8575,1.76375 14.4825,2.18625 16.3125,2.90625 L 16.3125,13.5625 L 10.125,13.5625 C 10.306208,13.272266 10.4372,12.8774 10.5,12.375 C 10.63,10.395 10.4025,7.59 9.8125,4 C 10.0625,4 10.2475,3.715 10.4375,3.125 C 10.6275,2.5450001 10.955,2.25 11.375,2.25 C 11.485,2.16 11.53125,2.025 11.53125,1.875 C 11.53125,1.695 11.4975,1.61375 11.4375,1.59375 z M 8.21875,9.375 L 9.8125,9.375 C 9.8325003,9.6749999 9.89625,10.15375 9.90625,10.34375 C 9.8907991,12.105143 9.717344,13.16457 9.375,13.5625 L 8.6875,13.5625 C 8.3435371,13.16457 8.1559016,12.105143 8.125,10.34375 C 8.1349998,10.15375 8.18875,9.675 8.21875,9.375 z M 1.09375,14.40625 L 8.59375,14.40625 L 6.65625,16.8125 L 8.28125,19 C 7.7123194,19 7.131431,18.926953 6.5625,18.78125 C 5.9866306,18.635548 5.409184,18.409466 4.8125,18.125 C 4.2088779,17.847472 3.5514448,17.384816 2.84375,16.71875 C 2.129117,16.059623 1.5516703,15.28046 1.09375,14.40625 z M 9.5,14.40625 L 17,14.40625 C 16.542078,15.28046 15.957693,16.059622 15.25,16.71875 C 14.542307,17.384817 13.884872,17.847472 13.28125,18.125 C 12.677626,18.409466 12.10018,18.635548 11.53125,18.78125 C 10.95538,18.926953 10.374493,19 9.8125,19 L 11.4375,16.8125 L 9.5,14.40625 z M 9.03125,14.84375 L 10.65625,16.8125 L 10.65625,16.84375 L 9.03125,18.96875 L 7.40625,16.84375 L 7.40625,16.8125 L 9.03125,14.84375 z"
     id="path3519" />
</svg>
