<?xml version="1.0" encoding="UTF-8" standalone="no"?>
<svg
   xmlns:dc="http://purl.org/dc/elements/1.1/"
   xmlns:cc="http://creativecommons.org/ns#"
   xmlns:rdf="http://www.w3.org/1999/02/22-rdf-syntax-ns#"
   xmlns:svg="http://www.w3.org/2000/svg"
   xmlns="http://www.w3.org/2000/svg"
   xmlns:sodipodi="http://sodipodi.sourceforge.net/DTD/sodipodi-0.dtd"
   xmlns:inkscape="http://www.inkscape.org/namespaces/inkscape"
   width="18"
   height="19.875"
   id="svg4099"
   sodipodi:version="0.32"
   inkscape:version="0.46"
   sodipodi:docname="W35A.svg"
   inkscape:output_extension="org.inkscape.output.svg.inkscape"
   version="1.0">
  <metadata
     id="metadata4106">
    <rdf:RDF>
      <cc:Work
         rdf:about="">
        <dc:format>image/svg+xml</dc:format>
        <dc:type
           rdf:resource="http://purl.org/dc/dcmitype/StillImage" />
      </cc:Work>
    </rdf:RDF>
  </metadata>
  <defs
     id="defs4104">
    <inkscape:perspective
       sodipodi:type="inkscape:persp3d"
       inkscape:vp_x="0 : 8.9899998 : 1"
       inkscape:vp_y="0 : 1000 : 0"
       inkscape:vp_z="17.98 : 8.9899998 : 1"
       inkscape:persp3d-origin="8.9899998 : 5.9933332 : 1"
       id="perspective4108" />
  </defs>
  <sodipodi:namedview
     inkscape:window-height="708"
     inkscape:window-width="1024"
     inkscape:pageshadow="2"
     inkscape:pageopacity="0.0"
     guidetolerance="10.0"
     gridtolerance="10.0"
     objecttolerance="10.0"
     borderopacity="1.0"
     bordercolor="#666666"
     pagecolor="#ffffff"
     id="base"
     showgrid="false"
     showguides="true"
     inkscape:guide-bbox="true"
     inkscape:zoom="25.308176"
     inkscape:cx="9"
     inkscape:cy="9.9375"
     inkscape:window-x="-4"
     inkscape:window-y="-4"
     inkscape:current-layer="svg4099" />
  <path
     style="fill:#000000;stroke:none"
     d="M 9,0 C 8.17,0 7.35125,0.05625 6.53125,0.15625 C 4.8812498,0.35625 2.71,0.95875 0,1.96875 L 0,13.65625 L 0,13.75 L 0,13.78125 C 0.0001341753,13.7831 0.031109116,13.779395 0.03125,13.78125 C 0.05759532,14.128099 0.17655591,14.559249 0.4375,15.0625 C 0.72774802,15.622265 1.1658965,16.218485 1.71875,16.875 C 2.2716031,17.524603 3.1028292,18.190846 4.25,18.875 C 5.3764386,19.545334 6.919281,19.875 8.875,19.875 C 8.9164638,19.874999 8.9585361,19.875 9,19.875 C 9.0414642,19.874999 9.0835361,19.875 9.125,19.875 C 11.080719,19.874999 12.647899,19.545334 13.78125,18.875 C 14.942241,18.190846 15.790898,17.524603 16.34375,16.875 C 16.896604,16.218485 17.310415,15.622265 17.59375,15.0625 C 17.842131,14.559532 17.943548,14.127991 17.96875,13.78125 C 17.971596,13.742094 18,13.693414 18,13.65625 L 17.96875,13.65625 L 17.96875,1.96875 C 15.35875,0.95874997 13.22125,0.35625 11.53125,0.15625 C 10.68125,0.056250004 9.83,0 9,0 z M 9,0.46875 C 9.81,0.46875 10.6175,0.525 11.4375,0.625 C 13.0675,0.825 15.06625,1.38125 17.40625,2.28125 L 17.40625,13.65625 L 16.8125,13.65625 L 16.8125,2.59375 C 14.7525,1.7937501 12.945,1.325 11.375,1.125 C 10.585,1.025 9.79,0.96875 9,0.96875 C 8.22,0.96874997 7.4475,1.025 6.6875,1.125 C 5.1474999,1.325 3.295,1.79375 1.125,2.59375 L 1.125,13.65625 L 0.5625,13.65625 L 0.5625,2.28125 C 3.0125,1.38125 5.035,0.825 6.625,0.625 C 7.4249999,0.525 8.19,0.46875 9,0.46875 z M 8.96875,1.46875 C 9.5687505,1.46875 10.18125,1.5025 10.78125,1.5625 L 9,3.71875 L 7.21875,1.5625 C 7.79875,1.5025001 8.38875,1.46875 8.96875,1.46875 z M 6.5625,1.59375 L 8.5625,4 L 8.53125,8.71875 L 4.21875,8.75 C 4.0687502,8.61 3.94375,8.48375 3.84375,8.34375 C 3.4037501,7.8037496 3.33,6.97625 3.75,6.40625 C 4.02,6.0362502 4.445,5.8125 4.875,5.8125 C 5.0249999,5.8124998 5.20375,5.84625 5.34375,5.90625 C 5.4537501,5.9462502 5.56625,6.03375 5.65625,6.09375 C 6.1362502,6.4637501 6.27625,7.145 5.90625,7.625 C 5.7262502,7.8549999 5.43625,8 5.15625,8 C 5.0562502,8 4.955,7.9675 4.875,7.9375 C 4.7949999,7.9074999 4.7475,7.8725 4.6875,7.8125 C 4.4274999,7.5924998 4.3325,7.1775 4.5625,6.9375 L 4.28125,6.65625 C 3.8712498,7.0962502 3.97625,7.775 4.40625,8.125 C 4.5062502,8.2149999 4.63,8.2725 4.75,8.3125 C 4.9,8.3725003 5.0375,8.40625 5.1875,8.40625 C 5.5774999,8.4062502 5.96875,8.21625 6.21875,7.90625 C 6.4487502,7.6062502 6.56125,7.24625 6.53125,6.90625 C 6.5012498,6.4562502 6.245,6.03 5.875,5.75 C 5.7449999,5.66 5.64,5.58125 5.5,5.53125 C 5.3,5.4512498 5.085,5.40625 4.875,5.40625 C 4.3049999,5.4062502 3.74625,5.67625 3.40625,6.15625 C 2.8662499,6.8862502 2.95,7.91375 3.5,8.59375 C 3.53,8.6437496 3.595,8.7 3.625,8.75 L 2.28125,8.75 L 2.28125,9.40625 L 4.25,9.40625 C 5.04,10.12625 6.11375,10.8375 6.84375,11.1875 C 6.9237501,11.0675 7.01375,10.9325 7.09375,10.8125 C 6.5237501,10.4825 5.67875,9.925 4.96875,9.375 L 8.5,9.375 L 8.5625,13.65625 L 1.71875,13.65625 L 1.71875,2.90625 C 3.62875,2.2162499 5.2325,1.79375 6.5625,1.59375 z M 11.40625,1.59375 C 12.82625,1.76375 14.45125,2.18625 16.28125,2.90625 L 16.28125,13.65625 L 9.46875,13.65625 L 9.46875,4 L 11.40625,1.59375 z M 1.09375,14.5 L 8.5625,14.5 L 6.65625,16.90625 L 8.25,19.0625 C 7.6833259,19.062501 7.1291744,18.988873 6.5625,18.84375 C 5.9889143,18.698626 5.4068171,18.502089 4.8125,18.21875 C 4.2112721,17.942324 3.5486384,17.475924 2.84375,16.8125 C 2.1319514,16.155985 1.5498539,15.370743 1.09375,14.5 z M 9.46875,14.5 L 16.9375,14.5 C 16.481396,15.370743 15.892387,16.155985 15.1875,16.8125 C 14.482611,17.475924 13.851228,17.942324 13.25,18.21875 C 12.648771,18.502089 12.066676,18.698625 11.5,18.84375 C 10.926417,18.988874 10.341014,19.0625 9.78125,19.0625 L 11.40625,16.90625 L 9.46875,14.5 z M 9,14.90625 L 10.625,16.90625 L 10.625,16.9375 L 9,19.0625 L 7.40625,16.9375 L 7.40625,16.90625 L 9,14.90625 z"
     id="path4101" />
</svg>
