<?xml version="1.0" encoding="UTF-8" standalone="no"?>
<svg
   xmlns:dc="http://purl.org/dc/elements/1.1/"
   xmlns:cc="http://web.resource.org/cc/"
   xmlns:rdf="http://www.w3.org/1999/02/22-rdf-syntax-ns#"
   xmlns:svg="http://www.w3.org/2000/svg"
   xmlns="http://www.w3.org/2000/svg"
   xmlns:sodipodi="http://inkscape.sourceforge.net/DTD/sodipodi-0.dtd"
   xmlns:inkscape="http://www.inkscape.org/namespaces/inkscape"
   width="14.020001pt"
   height="15.9pt"
   id="svg1343"
   sodipodi:version="0.32"
   inkscape:version="0.43"
   sodipodi:docname="W4.svg"
   sodipodi:docbase="C:\Program Files\JSesh\fonts"
   version="1.0">
  <metadata
     id="metadata1350">
    <rdf:RDF>
      <cc:Work
         rdf:about="">
        <dc:format>image/svg+xml</dc:format>
        <dc:type
           rdf:resource="http://purl.org/dc/dcmitype/StillImage" />
      </cc:Work>
    </rdf:RDF>
  </metadata>
  <defs
     id="defs1348" />
  <sodipodi:namedview
     inkscape:window-height="708"
     inkscape:window-width="1024"
     inkscape:pageshadow="2"
     inkscape:pageopacity="0.0"
     borderopacity="1.0"
     bordercolor="#666666"
     pagecolor="#ffffff"
     id="base"
     inkscape:zoom="26.723929"
     inkscape:cx="8.7651919"
     inkscape:cy="9.8505569"
     inkscape:window-x="-4"
     inkscape:window-y="-4"
     inkscape:current-layer="svg1343" />
  <path
     style="fill:#000000;stroke:none"
     d="M 8.784122,4.429924 C 8.5317053,5.8813233 8.3676343,6.928855 8.291909,7.572519 C 8.254047,8.001629 8.235116,8.7273293 8.235116,9.74962 C 8.235116,10.431145 8.260357,11.049568 8.310839,11.604887 C 8.3991863,12.172826 8.5569473,12.728143 8.784122,13.270839 L 8.784122,13.289772 C 9.0112987,12.747075 9.1690593,12.191756 9.257404,11.623816 C 9.3078893,11.055877 9.333132,10.431145 9.333132,9.74962 C 9.333132,8.7273293 9.3078893,8.001629 9.257404,7.572519 C 9.1942993,6.9414757 9.0365387,5.9002543 8.784122,4.448855 L 8.784122,4.429924 z M 8.765192,0.549008 C 7.7681433,0.498524 6.4745047,0.65944 4.884276,1.031756 C 3.2940467,1.4040713 2.006718,1.836336 1.02229,2.32855 L 1.02229,14.122748 L 1.760611,14.122748 L 1.760611,2.726107 C 3.0353183,2.1203057 4.269008,1.6848857 5.46168,1.419847 C 6.6543513,1.154809 7.755522,1.0286003 8.765192,1.041221 L 8.784122,1.060153 C 9.8064127,1.0475317 10.913894,1.170585 12.106565,1.429313 C 13.299237,1.688041 14.532926,2.126616 15.807633,2.745038 L 15.807633,14.122748 L 16.527023,14.122748 L 16.527023,2.32855 C 15.555216,1.836336 14.271044,1.4040713 12.674505,1.031756 C 11.077966,0.65944 9.7811713,0.498524 8.784122,0.549008 L 8.765192,0.549008 z M 8.784122,1.533435 C 8.052112,1.533435 7.4589313,1.60285 7.00458,1.74168 C 7.4715527,2.562036 8.0647333,3.1804583 8.784122,3.596947 L 8.784122,3.596947 C 9.4908907,3.1804583 10.084071,2.562036 10.563663,1.74168 C 10.109314,1.6154707 9.5161333,1.552366 8.784122,1.552366 L 8.784122,1.533435 z M 0.511145,14.122748 L 0.511145,1.836336 C 2.315929,1.1295673 3.8966927,0.643664 5.253436,0.378626 C 6.6101787,0.113588 7.787074,-0.012620667 8.784122,0 L 8.784122,0.018931 C 9.7811713,-0.0063103333 10.958068,0.11674333 12.314811,0.388092 C 13.671553,0.65944067 15.246005,1.1421887 17.038168,1.836336 L 17.038168,14.122748 L 17.530384,14.122748 L 17.530384,14.88 L 0,14.88 L 0,14.122748 L 0.511145,14.122748 z M 15.315419,14.122748 L 15.315419,3.180458 C 14.911553,2.7513487 13.573742,2.290687 11.301985,1.798473 L 10.790839,2.139237 C 10.399594,2.8586263 9.894759,3.451807 9.276335,3.918779 C 9.7180657,6.3167437 9.91369,8.2603573 9.863208,9.74962 C 9.850586,11.554403 9.617099,12.955319 9.162747,13.952368 C 9.0617817,14.065955 8.9355733,14.122748 8.784122,14.122748 L 8.784122,14.103817 C 8.6326727,14.103817 8.5064643,14.053334 8.405497,13.952368 C 7.938525,12.955319 7.705039,11.554403 7.705039,9.74962 C 7.654555,8.2603573 7.8438677,6.3167437 8.272977,3.918779 C 7.654555,3.451807 7.1497207,2.852316 6.758474,2.120306 L 6.247328,1.779542 C 3.9755727,2.2843767 2.6440717,2.7450383 2.252825,3.161527 L 2.252825,14.122748 L 15.315419,14.122748 z "
     id="path1345" />
  <path
     style="fill:#000000;stroke:none"
     d="M 8.6971819,18.391978 C 11.804705,18.331046 14.187141,17.179433 15.844491,14.93714 L 1.6047101,14.93714 C 3.2620571,17.179433 5.6323073,18.331046 8.7154609,18.391978 L 8.6971819,18.391978 z M 8.7154609,19.232839 C 4.6452114,19.220653 1.7631334,17.520653 0.069226738,14.132839 L 17.379974,14.132839 C 15.686066,17.520653 12.797895,19.220653 8.7154609,19.232839 z M 8.7154609,14.973699 L 10.579979,16.564022 L 8.7154609,18.318859 L 6.8692234,16.564022 L 8.7154609,14.973699 z M 8.7154609,15.412409 L 7.307933,16.564022 L 8.7154609,17.880149 L 10.12299,16.564022 L 8.7154609,15.412409 z "
     id="path1322" />
</svg>
