<?xml version="1.0" encoding="UTF-8" standalone="no"?>
<svg
   xmlns:dc="http://purl.org/dc/elements/1.1/"
   xmlns:cc="http://creativecommons.org/ns#"
   xmlns:rdf="http://www.w3.org/1999/02/22-rdf-syntax-ns#"
   xmlns:svg="http://www.w3.org/2000/svg"
   xmlns="http://www.w3.org/2000/svg"
   xmlns:sodipodi="http://sodipodi.sourceforge.net/DTD/sodipodi-0.dtd"
   xmlns:inkscape="http://www.inkscape.org/namespaces/inkscape"
   width="8.5096779"
   height="17.98"
   id="svg3678"
   version="1.1"
   inkscape:version="0.48.0 r9654"
   sodipodi:docname="W42.svg.2013_03_24_15_04_36.0.svg">
  <metadata
     id="metadata3686">
    <rdf:RDF>
      <cc:Work
         rdf:about="">
        <dc:format>image/svg+xml</dc:format>
        <dc:type
           rdf:resource="http://purl.org/dc/dcmitype/StillImage" />
        <dc:title></dc:title>
        <dc:description>Original drawing by S. Thomas. Small modifications by S. Rosmorduc.
</dc:description>
      </cc:Work>
    </rdf:RDF>
  </metadata>
  <defs
     id="defs3684" />
  <sodipodi:namedview
     pagecolor="#ffffff"
     bordercolor="#666666"
     borderopacity="1"
     objecttolerance="10"
     gridtolerance="10"
     guidetolerance="10"
     inkscape:pageopacity="0"
     inkscape:pageshadow="2"
     inkscape:window-width="1920"
     inkscape:window-height="1152"
     id="namedview3682"
     showgrid="false"
     showborder="true"
     inkscape:snap-grids="false"
     inkscape:snap-to-guides="false"
     inkscape:zoom="9.2654958"
     inkscape:cx="4.7906161"
     inkscape:cy="8.9900002"
     inkscape:window-x="1280"
     inkscape:window-y="0"
     inkscape:window-maximized="1"
     inkscape:current-layer="svg3678"
     fit-margin-top="0"
     fit-margin-left="0"
     fit-margin-right="0"
     fit-margin-bottom="0" />
  <path
     style="fill:#000000;stroke:none"
     d="m 4.8406158,2.61 0.22,0 c 0,-0.5 0.36,-1.19 1.08,-2.07 l -2.61,0 c 0.72,0.88 1.08,1.57 1.08,2.07 z m -0.15,14.42 c 0.013333,0.1 0.063333,0.15 0.15,0.15 0.073333,0 0.1166667,-0.05 0.13,-0.15 1.0666667,-6.706667 1.6,-10.5633333 1.6,-11.57 0,-1.5133333 -0.5766667,-2.27 -1.73,-2.27 -1.1666667,0 -1.75,0.7566667 -1.75,2.27 0,1.0066667 0.5333333,4.863333 1.6,11.57 z M 2.4293841,4.5544575 c -1.02,0.02 -1.83615828,0.3232199 -1.83615828,1.4961583 0,0.922392 0.79159328,1.3949267 1.88492658,1.3949267 C 2.3642933,6.6768496 2.2605766,5.3285763 2.4293841,4.5544575 z M 5.6006158,2.72 c 1.0666667,0.1733333 1.6,1.0866667 1.6,2.74 0,0.3133333 -0.053333,1.1122817 -0.16,1.9389484 l 0.6243261,0.019079 c 0.1465983,0.00448 0.2203045,-0.080827 0.22,-0.18 L 7.865863,1.0228935 C 7.8651263,0.78289471 7.79253,0.66289354 7.645863,0.66289354 l -0.9553777,0 C 6.1038185,1.3695602 5.6006158,2.2333333 5.6006158,2.72 z m -0.05,14.7 c -0.053333,0.373333 -0.29,0.56 -0.71,0.56 -0.4266667,0 -0.67,-0.186667 -0.73,-0.56 -0.68,-4.333333 -1.14,-7.4433333 -1.38,-9.33 C 0.93061584,8.09 0,7.454565 0,6.0612317 0,4.6678984 0.92394917,3.91 2.7106158,3.91 c 0.2133333,-0.68 0.6666667,-1.0766667 1.36,-1.19 0,-0.4866667 -0.41,-1.2433333 -1.23,-2.27 -0.26,-0.3 -0.27,-0.45 -0.03,-0.45 l 3.67,0 1.0990616,0 c 0.62,0 0.93,0.30333333 0.93,0.91 l 0,6.28 c 0,0.6 -0.31,0.9 -0.93,0.9 l -0.6390616,0 c -0.2466667,1.8733333 -0.71,4.983333 -1.39,9.33 z"
     id="path3680"
     inkscape:connector-curvature="0"
     sodipodi:nodetypes="cccccccscsssccscccscsssscccsccscccscsssscc" />
</svg>
