<?xml version="1.0" encoding="UTF-8" standalone="no"?>
<svg
   xmlns:dc="http://purl.org/dc/elements/1.1/"
   xmlns:cc="http://web.resource.org/cc/"
   xmlns:rdf="http://www.w3.org/1999/02/22-rdf-syntax-ns#"
   xmlns:svg="http://www.w3.org/2000/svg"
   xmlns="http://www.w3.org/2000/svg"
   xmlns:sodipodi="http://inkscape.sourceforge.net/DTD/sodipodi-0.dtd"
   xmlns:inkscape="http://www.inkscape.org/namespaces/inkscape"
   width="7.0800004pt"
   height="10.06pt"
   id="svg1351"
   sodipodi:version="0.32"
   inkscape:version="0.43"
   sodipodi:docname="W59.svg"
   sodipodi:docbase="C:\Program Files\JSesh\fonts"
   version="1.0">
  <metadata
     id="metadata1358">
    <rdf:RDF>
      <cc:Work
         rdf:about="">
        <dc:format>image/svg+xml</dc:format>
        <dc:type
           rdf:resource="http://purl.org/dc/dcmitype/StillImage" />
      </cc:Work>
    </rdf:RDF>
  </metadata>
  <defs
     id="defs1356" />
  <sodipodi:namedview
     inkscape:window-height="708"
     inkscape:window-width="1024"
     inkscape:pageshadow="2"
     inkscape:pageopacity="0.0"
     borderopacity="1.0"
     bordercolor="#666666"
     pagecolor="#ffffff"
     id="base"
     showguides="true"
     inkscape:guide-bbox="true"
     inkscape:zoom="45.755521"
     inkscape:cx="0.16530514"
     inkscape:cy="6.1889154"
     inkscape:window-x="-4"
     inkscape:window-y="-4"
     inkscape:current-layer="svg1351">
    <sodipodi:guide
       orientation="horizontal"
       position="6.5784411"
       id="guide1436" />
  </sodipodi:namedview>
  <path
     style="fill:#000000;stroke:none"
     d="M 5.4025885,12.276085 L 3.3518305,12.276085 C 2.8420372,12.276085 2.4481062,11.998015 2.1700375,11.441876 C 1.9450956,10.800035 1.7201537,9.1241458 1.4952117,7.968846 L 0.0096621245,7.9631075 C -0.071191253,7.7879871 -0.13018935,7.3943138 0.029365424,7.0443511 L 1.3162787,7.0284561 L 1.1620375,5.9832578 L 0.024846524,5.9930713 C -0.089838506,5.7231451 -0.095247106,5.4313636 0.0086207245,5.0521609 L 1.179279,5.0977396 C 1.2007356,5.0985749 1.7413482,4.5413258 2.0310035,4.2400848 C 2.6103135,3.6376028 2.8883822,2.0659203 2.8652095,1.3012303 C 2.7493475,1.1621963 2.4365202,1.2607758 1.9267275,1.2607758 C 1.5791408,1.0058791 1.5791408,0.75098245 1.9267275,0.49608578 L 6.7234155,0.49608578 C 7.0710022,0.75098245 7.0710022,1.0058791 6.7234155,1.2607758 C 6.1904502,1.2607758 5.8660368,1.1587068 5.7501755,1.2745688 C 5.6574862,2.0624308 5.8789047,3.5202247 6.563182,4.2168822 C 6.9193238,4.5794674 7.3693049,5.0745212 7.3968642,5.0742923 L 8.6618656,5.0637854 C 8.8833903,5.377906 8.8207963,5.7575925 8.6707812,6.0061472 L 7.581444,5.9935784 L 7.4706917,7.0155075 L 8.657196,6.9854386 C 8.858815,7.3181126 8.8200259,7.7163525 8.6719604,7.9834607 L 7.3013252,8.0109178 C 7.0075853,8.8394902 6.7738454,10.648062 6.4801055,11.476634 C 6.2020368,12.009601 5.8428645,12.276085 5.4025885,12.276085 z M 6.6191395,5.0438078 C 5.5995528,4.4876705 5.0665875,2.9639471 5.0202435,1.7126378 L 5.0550035,1.2607758 L 3.5951405,1.2607758 L 3.5951405,1.7126378 C 3.5024512,2.9639471 3.0274168,4.5644985 2.1700375,5.0742918 L 6.6191395,5.0438078 z M 5.2287955,11.441876 C 5.8814124,11.441876 6.1904502,8.9872565 6.7234155,5.9980158 L 2.0657615,5.9980158 L 2.2333908,6.9831826 L 7.2382001,7.005516 L 7.1632842,7.9873031 L 2.3879311,7.9863807 C 2.6817871,9.1036958 2.6794501,10.302083 3.1894991,11.338325 C 3.2517016,11.372842 3.393904,11.407359 3.4561065,11.441876 L 5.2287955,11.441876 z "
     id="path1353"
     sodipodi:nodetypes="ccccccccccssccccccsscccccccccccccccccccccccccc" />
</svg>
