<?xml version="1.0" encoding="UTF-8" standalone="no"?>
<svg
   xmlns:dc="http://purl.org/dc/elements/1.1/"
   xmlns:cc="http://creativecommons.org/ns#"
   xmlns:rdf="http://www.w3.org/1999/02/22-rdf-syntax-ns#"
   xmlns:svg="http://www.w3.org/2000/svg"
   xmlns="http://www.w3.org/2000/svg"
   xmlns:sodipodi="http://sodipodi.sourceforge.net/DTD/sodipodi-0.dtd"
   xmlns:inkscape="http://www.inkscape.org/namespaces/inkscape"
   width="1138"
   height="1171"
   id="svg2"
   version="1.1"
   inkscape:version="0.47pre3 r22311"
   sodipodi:docname="W9A.svg">
  <metadata
     id="metadata10">
    <rdf:RDF>
      <cc:Work
         rdf:about="">
        <dc:format>image/svg+xml</dc:format>
        <dc:type
           rdf:resource="http://purl.org/dc/dcmitype/StillImage" />
      </cc:Work>
    </rdf:RDF>
  </metadata>
  <defs
     id="defs8">
    <inkscape:perspective
       sodipodi:type="inkscape:persp3d"
       inkscape:vp_x="0 : 8.9899998 : 1"
       inkscape:vp_y="0 : 1000 : 0"
       inkscape:vp_z="17.469999 : 8.9899998 : 1"
       inkscape:persp3d-origin="8.7349997 : 5.9933332 : 1"
       id="perspective12" />
    <inkscape:perspective
       id="perspective2968"
       inkscape:persp3d-origin="0.5 : 0.33333333 : 1"
       inkscape:vp_z="1 : 0.5 : 1"
       inkscape:vp_y="0 : 1000 : 0"
       inkscape:vp_x="0 : 0.5 : 1"
       sodipodi:type="inkscape:persp3d" />
    <inkscape:perspective
       id="perspective3086"
       inkscape:persp3d-origin="0.5 : 0.33333333 : 1"
       inkscape:vp_z="1 : 0.5 : 1"
       inkscape:vp_y="0 : 1000 : 0"
       inkscape:vp_x="0 : 0.5 : 1"
       sodipodi:type="inkscape:persp3d" />
  </defs>
  <sodipodi:namedview
     pagecolor="#ffffff"
     bordercolor="#666666"
     borderopacity="1"
     objecttolerance="10"
     gridtolerance="10"
     guidetolerance="10"
     inkscape:pageopacity="0"
     inkscape:pageshadow="2"
     inkscape:window-width="1280"
     inkscape:window-height="752"
     id="namedview6"
     showgrid="false"
     inkscape:zoom="0.038042466"
     inkscape:cx="632.21703"
     inkscape:cy="1027.6177"
     inkscape:window-x="0"
     inkscape:window-y="0"
     inkscape:window-maximized="0"
     inkscape:current-layer="svg2" />
  <path
     style="fill:#000000;stroke:none"
     d="M 906.0625,-6.09375 378.34381,-5.7850317 C 316.4326,-5.7488133 253.54198,-7.1593884 192.98278,6.9856859 56.733557,35.692512 -11.308022,137.50687 -9.8814157,269.65256 -8.0129455,442.72778 113.13009,578.30253 268.375,656.21875 251.43599,742.7743 264.34399,832.09451 285.9375,916.5 c 23.45257,91.2871 58.95962,179.0212 98.34375,264.5 148.55208,0 297.10417,0 445.65625,0 55.01244,-120.9831 103.13758,-247.2668 118.7405,-380.03605 5.27753,-48.49833 5.20257,-97.95463 -4.303,-145.90145 66.4992,-45.1734 132.9872,-90.36317 199.4688,-135.5625 4.2211,-27.58605 -30.4798,-149.4944 -74.9416,-118.61701 L 870.53125,508.46875 c -42.16568,-57.7522 -65.51589,-131.54634 -54.125,-203.15625 14.82612,-93.20584 71.60572,-150.09481 123.1875,-220.84375 l 0,-32.749452 c 0,-18.200482 -3.44775,-56.6166199 -33.53125,-57.813048 z M 808.59375,130.3125 C 767.74111,200.59234 738.30489,280.50091 741,362.9375 c 2.4481,74.88124 32.19687,146.9295 76.7696,206.31771 46.2365,69.17212 66.74437,155.56121 53.57427,238.09993 -8.91764,60.76532 -27.80438,119.51212 -47.70164,177.4042 -14.14497,39.71856 -29.71876,78.85036 -45.76723,117.83446 -113.86458,0 -227.72917,-1e-4 -341.59375,0 -40.59606,-98.5498 -80.45995,-198.72819 -95.61588,-304.71206 -9.94597,-82.92156 12.7527,-168.61277 60.66681,-236.60565 18.46506,-26.63217 35.28062,-54.42891 46.69907,-84.86984 25.59978,-64.81541 31.3478,-137.64251 14.55877,-205.41947 -11.38919,-49.57768 -32.06196,-96.59072 -57.15252,-140.67428 134.38542,0 268.77083,0 403.15625,0 z m -493.5625,3.625 c 35.39684,47.54094 67.31281,99.8454 80.28125,158.4375 16.19594,72.12884 -4.76853,148.96615 -47.81096,207.93079 -2.40318,5.75192 -6.47773,6.17763 -11.47849,2.63923 C 231.03176,459.98558 141.31582,382.26942 141.31582,276.44594 141.31582,130.13588 221.06765,139.0839 314.1875,133 c 0.22299,0.24776 0.44597,0.49553 0.66896,0.74329 0.0583,0.0647 0.11653,0.12947 0.17479,0.19421 z"
     id="path4"
     sodipodi:nodetypes="cscscccccccccsczccscccccccccccccccsccc" />
</svg>
