<?xml version="1.0" encoding="UTF-8" standalone="no"?>
<!-- Created with Inkscape (http://www.inkscape.org/) -->
<svg
   xmlns:dc="http://purl.org/dc/elements/1.1/"
   xmlns:cc="http://web.resource.org/cc/"
   xmlns:rdf="http://www.w3.org/1999/02/22-rdf-syntax-ns#"
   xmlns:svg="http://www.w3.org/2000/svg"
   xmlns="http://www.w3.org/2000/svg"
   xmlns:sodipodi="http://sodipodi.sourceforge.net/DTD/sodipodi-0.dtd"
   xmlns:inkscape="http://www.inkscape.org/namespaces/inkscape"
   width="1800.000000px"
   height="1800.000000px"
   id="svg1290"
   sodipodi:version="0.32"
   inkscape:version="0.44"
   sodipodi:docbase="/home/rosmord/Travail/Gsigns/Ramessides/Fontes"
   sodipodi:docname="Y1.svg">
  <defs
     id="defs3" />
  <sodipodi:namedview
     id="base"
     pagecolor="#ffffff"
     bordercolor="#666666"
     borderopacity="1.0"
     inkscape:pageopacity="0.0"
     inkscape:pageshadow="2"
     inkscape:zoom="0.42"
     inkscape:cx="1050.9004"
     inkscape:cy="136.8667"
     inkscape:document-units="px"
     inkscape:current-layer="layer1"
     inkscape:window-width="1024"
     inkscape:window-height="583"
     inkscape:window-x="113"
     inkscape:window-y="155"
     showguides="true"
     inkscape:guide-bbox="true" />
  <metadata
     id="metadata4">
    <rdf:RDF>
      <cc:Work
         rdf:about="">
        <dc:format>image/svg+xml</dc:format>
        <dc:type
           rdf:resource="http://purl.org/dc/dcmitype/StillImage" />
        <cc:license
           rdf:resource="http://creativecommons.org/licenses/by/2.0/" />
        <dc:subject>
          <rdf:Bag>
            <rdf:li>JSesh hieroglyph</rdf:li>
          </rdf:Bag>
        </dc:subject>
        <dc:creator>
          <cc:Agent>
            <dc:title>Serge Rosmorduc</dc:title>
          </cc:Agent>
        </dc:creator>
      </cc:Work>
      <cc:License
         rdf:about="http://creativecommons.org/licenses/by/2.0/">
        <cc:permits
           rdf:resource="http://web.resource.org/cc/Reproduction" />
        <cc:permits
           rdf:resource="http://web.resource.org/cc/Distribution" />
        <cc:requires
           rdf:resource="http://web.resource.org/cc/Notice" />
        <cc:requires
           rdf:resource="http://web.resource.org/cc/Attribution" />
        <cc:permits
           rdf:resource="http://web.resource.org/cc/DerivativeWorks" />
        <cc:requires
           rdf:resource="http://web.resource.org/cc/ShareAlike" />
      </cc:License>
    </rdf:RDF>
  </metadata>
  <g
     style="display:inline"
     inkscape:label="Layer 1"
     inkscape:groupmode="layer"
     id="layer1">
    <path
       style="fill:black;fill-opacity:1;fill-rule:evenodd;stroke:none;stroke-width:60.14870071;stroke-linecap:butt;stroke-linejoin:miter;stroke-miterlimit:4;stroke-dasharray:none;stroke-opacity:1"
       d="M 649.90625,1404.375 L 607.4375,1446.9688 L 749.59375,1588.75 L -1,1588.75 L -1,1800.3438 L 1805.75,1800.3438 L 1805.75,1588.75 L 1077.8125,1588.75 L 1219.9688,1446.9688 L 1177.4688,1404.375 L 1046.0312,1535.4688 C 1038.1467,1456.0084 983.70699,1437.7726 913.6875,1435.5 C 838.89269,1437.4988 792.97529,1454.4116 781.34375,1535.4688 L 649.90625,1404.375 z M 913.6875,1495.6562 C 942.97631,1495.6563 960.62094,1500.6235 969.75,1505.8125 C 996.33521,1522.7878 983.65772,1563.3946 979.375,1588.75 L 848,1588.75 C 844.84336,1562.8172 830.50201,1523.2413 857.65625,1505.8125 C 866.78532,1500.6235 884.39868,1495.6562 913.6875,1495.6562 z M 59.15625,1648.9062 L 183.8125,1648.9062 L 183.8125,1740.1875 L 59.15625,1740.1875 L 59.15625,1648.9062 z M 213.8125,1648.9062 L 831.34375,1648.9062 L 831.34375,1740.1875 L 213.8125,1740.1875 L 213.8125,1648.9062 z M 861.34375,1648.9062 L 981.5,1648.9062 L 981.5,1740.1875 L 861.34375,1740.1875 L 861.34375,1648.9062 z M 1011.5,1648.9062 L 1584.4375,1648.9062 L 1584.4375,1740.1875 L 1011.5,1740.1875 L 1011.5,1648.9062 z M 1614.4375,1648.9062 L 1745.625,1648.9062 L 1745.625,1740.1875 L 1614.4375,1740.1875 L 1614.4375,1648.9062 z "
       id="path2796"
       sodipodi:nodetypes="cccccccccccscccsccscccccccccccccccccccccccccc" />
  </g>
</svg>
