<?xml version="1.0" encoding="UTF-8" standalone="no"?>
<svg
   width="1416.5933"
   height="1822.468"
   version="1.1"
   id="svg2"
   sodipodi:docname="Y18D.svg"
   inkscape:version="1.4 (e7c3feb1, 2024-10-09)"
   xmlns:inkscape="http://www.inkscape.org/namespaces/inkscape"
   xmlns:sodipodi="http://sodipodi.sourceforge.net/DTD/sodipodi-0.dtd"
   xmlns="http://www.w3.org/2000/svg"
   xmlns:svg="http://www.w3.org/2000/svg">
  <defs
     id="defs2" />
  <sodipodi:namedview
     id="namedview2"
     pagecolor="#ffffff"
     bordercolor="#000000"
     borderopacity="0.25"
     inkscape:showpageshadow="2"
     inkscape:pageopacity="0.0"
     inkscape:pagecheckerboard="0"
     inkscape:deskcolor="#d1d1d1"
     inkscape:zoom="0.13457209"
     inkscape:cx="-423.56481"
     inkscape:cy="14.861923"
     inkscape:window-width="2560"
     inkscape:window-height="1387"
     inkscape:window-x="1440"
     inkscape:window-y="25"
     inkscape:window-maximized="1"
     inkscape:current-layer="svg2" />
  <path
     id="path1"
     style="fill:#000000;stroke:none;stroke-width:76.5811"
     d="m 823.87847,0.06554896 c -59.1338,-1.60687486 -127.16,26.28845604 -143.7951,88.22519804 -8.1355,18.524293 -4.8912,86.592813 -29.3065,47.737683 16.4652,-37.563922 -41.7736,-72.798916 -51.0918,-26.53711 -10.6464,52.82312 34.2391,95.09169 77.426,93.29429 -1.8502,26.26949 27.4845,78.95136 4.0701,86.97326 -7.6451,-26.11708 -14.4353,-87.97079 -55.1423,-49.99212 -8.3485,37.87372 4.5896,96.52149 51.9506,98.90423 45.968,-12.44053 22.635,53.93624 35.5019,79.20703 -34.1847,-0.32469 -0.4603,-78.44551 -53.179,-58.10826 -27.1297,26.84051 -10.4158,91.63437 26.5892,105.97935 46.9537,-10.37213 45.8644,42.34252 47.3596,72.49824 h -67.1272 c 1.0053,20.55075 -7.3153,44.81075 19.6667,51.29277 33.3871,53.65754 -61.0778,20.70647 -88.162,26.58415 -25.9763,1.9532 -75.02335,-10.87095 -51.01445,30.89724 9.55251,47.75963 31.21855,115.63623 93.05995,107.18823 24.8448,8.0785 26.233,63.0768 57.9814,79.93361 29.8895,36.75318 80.5839,62.26721 83.2792,114.78357 10.9405,64.14269 1.5453,129.62809 2.8605,194.37669 -1.1785,68.0991 -2.356,136.1983 -3.5346,204.2974 -173.1099,0 -346.21983,-1e-4 -519.32974,0 -43.39863,-52.1988 -74.90042,-117.5212 -73.6528,-186.615 1.17947,-53.3514 -53.44043,-82.8361 -101.047748,-77.2266 -50.89324,-3.4511 -88.6370197,43.2191 -86.63423975,91.5963 -6.07119995,77.3721 33.90943975,154.3402 99.96111775,194.8115 57.72161,41.4332 130.14286,51.4045 199.45616,48.2853 68.2798,0 136.55959,-1e-4 204.83939,0 71.26666,102.323 164.44826,191.2287 276.40036,247.5917 v 156.4238 c 29.5859,0 59.1719,10e-5 88.7578,0 v -126.0586 c 94.0103,33.7926 192.79353,-12.6816 270.47183,-64.3258 44.6704,-27.9495 83.3688,-83.6348 59.8313,-137.3533 -2.5399,-28.1932 -55.0019,-65.8156 -47.8428,-76.2779 88.0373,1e-4 176.0747,0 264.112,1e-4 v -70.8515 c -181.3079,0 -362.6159,-1e-4 -543.92383,0 -1.4054,-121.7914 -4.6855,-243.6639 -4.9175,-365.40442 3.3827,-40.87473 11.06,-84.02092 47.8857,-108.05578 34.7662,-34.93194 77.0118,-69.51695 85.77203,-120.95792 61.0706,16.1471 94.6967,-44.14208 102.535,-94.84926 19.1757,-36.2703 3.219,-48.24352 -33.1272,-42.18037 -35.9397,-7.50544 -88.12083,18.26719 -112.17343,-5.41373 -0.5687,-32.66712 40.9027,-30.40561 28.8555,-66.20059 -1.8044,-13.83327 -28.557,-2.71825 -40.6213,-6.29159 -41.6797,11.28384 -27.4902,-23.39323 -20.1912,-52.40186 7.401,-42.9927 41.2322,-2.17399 30.5234,24.30618 18.4236,41.18725 68.01473,2.02809 47.52263,-32.84487 3.1342,-39.72116 -40.63703,-60.6262 -63.98703,-64.42121 4.1828,-24.69059 8.3656,-49.38119 12.5484,-74.07179 48.07323,-11.61032 7.3666,88.38375 68.12693,56.1504 18.9573,-32.45469 3.9676,-92.9702 -36.68173,-103.65835 -47.2373,3.53343 -4.0113,-63.54891 -7.7323,-94.32407 48.65723,-13.48456 7.0696,81.93867 66.26803,57.82152 29.2717,-30.10878 5.59,-106.5662 -42.6274,-106.70238 -40.40603,4.37348 -11.13553,-66.661239 -40.84253,-88.023504 -27.3816,-46.281509 -85.635,-60.61791714 -135.927,-60.01185704 z m 3.0547,56.61718704 c 41.672,-3.005285 89.6155,19.351555 96.1644,64.397264 15.1433,31.02933 -10.5524,28.38355 -32.4308,26.93477 h -165.1926 c -1.4464,-41.87904 27.0147,-84.182455 70.6093,-88.702158 10.1676,-1.881656 20.5194,-2.609385 30.8497,-2.629876 z m -94.7989,140.298824 h 188.8985 l -15.0489,92.86719 h -158.1543 c -5.2317,-30.95574 -10.4635,-61.91147 -15.6953,-92.86719 z m 26.7305,140.29883 h 135.4316 c -8.7429,24.36569 -0.2243,68.79133 -19.7727,80.59961 h -102.864 c -4.265,-26.86653 -8.5299,-53.73308 -12.7949,-80.59961 z m 19.3789,128.0332 h 97.125 c -11.5099,27.78376 1.1565,85.25636 -43.0131,72.9336 -12.5891,-3.27807 -36.1828,6.62042 -41.8078,-4.99638 -4.1014,-22.64574 -8.2027,-45.29148 -12.3041,-67.93722 z m -54.2695,114.23243 c 19.942,0.51898 55.0444,-3.40367 12.5035,9.39622 -10.8194,13.37463 -8.5333,-4.70522 -12.5035,-9.39622 z m 166.9726,0 c 17.3281,-3.38998 58.2067,2.60301 25.9494,10.41626 -8.2624,-4.3528 -17.0105,-7.74023 -25.9494,-10.41626 z m -64,29.90039 c 49.4327,1.36098 92.858,30.02838 131.459,58.30659 -40.9627,-6.4292 -84.3416,-55.38828 -123.4453,-13.24414 -9.3004,33.44443 -29.1237,-32.09622 -60.4238,-17.33594 -30.4946,8.13353 -62.3537,28.35955 -89.0254,37.52734 5.6599,28.67837 -17.6744,31.85802 -2.2055,2.24024 -28.9223,1.20702 -89.5749,-38.2908 -73.4974,19.43948 7.1037,21.61639 79.4957,9.90371 30.6634,17.32419 -44.2644,5.12342 -51.825,-78.47457 -0.5417,-52.95126 38.3237,19.98359 65.5495,-3.20896 96.8501,-23.73787 27.7578,-14.96139 58.1927,-27.32929 90.1666,-27.56863 z m 222.50593,49.16211 c 11.0835,34.11838 -25.4134,72.91204 -56.82803,50.0332 34.64623,19.66021 76.72363,-31.41175 40.96173,-44.26071 -31.1766,5.67419 -71.53103,9.71439 -59.94723,34.85632 -24.9863,-34.29634 47.06253,-38.87918 73.08123,-40.54874 l 2.7344,-0.0801 z m -125.31453,59.80487 c 69.9659,-13.86735 36.5293,63.10058 7.3067,90.54102 -24.7856,28.0905 -53.1942,54.24959 -83.4766,75.4668 -40.3648,14.91829 -68.204,-21.44029 -95.5131,-44.57025 -30.9231,-31.16504 -72.1204,-69.06774 -64.4576,-117.42385 38.7034,-10.87363 73.9106,9.96049 113.2284,6.32034 -12.4986,18.64153 -55.5431,65.81469 -4.9101,66.15234 36.435,17.6984 -47.4587,4.72583 -27.9512,40.26953 23.4952,48.4145 114.4143,43.16506 118.0215,-14.29297 -4.393,-17.3926 -64.2097,-13.85275 -24.7832,-25.67379 48.6004,-6.33466 0.6365,-46.03415 -8.3106,-66.27149 23.5868,-3.90996 49.498,3.26364 70.8458,-10.51768 z m -96.8222,25.20117 c 12.2435,17.69175 20.2,37.21807 -4.6255,31.36502 -31.0971,-7.18471 7.7523,-12.32825 4.6255,-31.36502 z M 94.544452,1131.9308 c 60.917538,7.9575 29.572188,84.684 54.629128,122.7849 16.66904,40.3885 41.46246,76.799 67.60915,111.5706 -64.65236,-21.4205 -142.394148,-52.4226 -159.500228,-126.1316 -6.71368,-35.7243 -14.85346,-104.7934 37.26195,-108.2239 z m 539.564418,286.5215 h 147.1543 V 1564.05 c -62.3815,-32.2087 -108.5282,-88.4519 -147.1543,-145.5977 z m 178.2969,0 c 19.7363,-3.8151 30.157,1.6854 24.9141,22.8495 v 153.1134 c -13.1635,-8.7516 -31.0291,-14.9649 -24.9141,-34.1234 z m 57.6152,0 h 111.3399 c 59.78273,39.7078 126.19793,77.9208 163.99083,141.1194 23.5642,38.9973 -17.776,76.4828 -54.9937,80.8741 -74.8494,12.9194 -149.70703,-11.0855 -220.33703,-33.5736 z m -57.6152,258.4922 c 16.2491,5.208 30.9499,11.4286 24.9141,31.2111 v 69.1541 c -19.7363,3.8151 -30.157,-1.6854 -24.9141,-22.8495 z"
     sodipodi:nodetypes="ccccccccccccccccccccccccccccccccccccccccccccccccccccccccccccccccccccccccccccccccccccccccccccccccccccccccccccccccccccccccccccccccccccccccccccccc" />
</svg>
