<?xml version="1.0" encoding="UTF-8" standalone="no"?>
<!-- Created with Inkscape (http://www.inkscape.org/) -->

<svg
   width="1800"
   height="1800"
   id="svg2"
   sodipodi:version="0.32"
   inkscape:version="1.4 (e7c3feb1, 2024-10-09)"
   version="1.0"
   sodipodi:docname="A999.svg"
   xmlns:inkscape="http://www.inkscape.org/namespaces/inkscape"
   xmlns:sodipodi="http://sodipodi.sourceforge.net/DTD/sodipodi-0.dtd"
   xmlns="http://www.w3.org/2000/svg"
   xmlns:svg="http://www.w3.org/2000/svg"
   xmlns:rdf="http://www.w3.org/1999/02/22-rdf-syntax-ns#"
   xmlns:cc="http://creativecommons.org/ns#"
   xmlns:dc="http://purl.org/dc/elements/1.1/">
  <defs
     id="defs4" />
  <sodipodi:namedview
     id="base"
     pagecolor="#ffffff"
     bordercolor="#666666"
     borderopacity="1.0"
     inkscape:pageopacity="0.0"
     inkscape:pageshadow="2"
     inkscape:zoom="0.21"
     inkscape:cx="904.7619"
     inkscape:cy="897.61905"
     inkscape:document-units="px"
     inkscape:current-layer="layer1"
     width="1800px"
     height="1800px"
     inkscape:window-width="1600"
     inkscape:window-height="964"
     inkscape:window-x="1158"
     inkscape:window-y="68"
     inkscape:showpageshadow="2"
     inkscape:pagecheckerboard="0"
     inkscape:deskcolor="#d1d1d1"
     inkscape:window-maximized="0" />
  <metadata
     id="metadata7">
    <rdf:RDF>
      <cc:Work
         rdf:about="">
        <dc:format>image/svg+xml</dc:format>
        <dc:type
           rdf:resource="http://purl.org/dc/dcmitype/StillImage" />
        <dc:creator>
          <cc:Agent>
            <dc:title>Serge Rosmorduc</dc:title>
          </cc:Agent>
        </dc:creator>
        <cc:license
           rdf:resource="http://creativecommons.org/licenses/by-sa/2.5/" />
      </cc:Work>
      <cc:License
         rdf:about="http://creativecommons.org/licenses/by-sa/2.5/">
        <cc:permits
           rdf:resource="http://web.resource.org/cc/Reproduction" />
        <cc:permits
           rdf:resource="http://web.resource.org/cc/Distribution" />
        <cc:requires
           rdf:resource="http://web.resource.org/cc/Notice" />
        <cc:requires
           rdf:resource="http://web.resource.org/cc/Attribution" />
        <cc:permits
           rdf:resource="http://web.resource.org/cc/DerivativeWorks" />
        <cc:requires
           rdf:resource="http://web.resource.org/cc/ShareAlike" />
      </cc:License>
    </rdf:RDF>
  </metadata>
  <g
     inkscape:label="Calque 1"
     inkscape:groupmode="layer"
     id="layer1">
    <path
       id="path1"
       style="fill:#000000;fill-opacity:1;stroke-width:50;stroke:none"
       d="m 265.55859,82.587891 c -61.59038,38.075959 13.6925,102.039009 50.58315,127.198919 36.31394,41.63249 69.7998,87.56712 123.13497,108.45044 68.93012,47.61526 -23.34926,103.75742 -42.47007,151.99885 -44.72707,121.05034 -110.94573,233.25136 -158.11535,353.28525 -21.01002,67.60972 -45.65267,150.72726 6.4523,210.88965 39.81268,58.0465 65.85751,124.5073 110.5803,179.6161 43.05007,56.8133 79.63062,119.3483 137.11252,163.289 30.54388,42.29 62.6734,64.4119 103.7527,91.3323 34.94828,53.368 -4.13052,116.4211 -12.80936,172.3842 3.16433,64.2834 -46.72466,86.0543 -102.70031,86.6688 -60.89366,52.7904 47.71259,63.1773 81.2024,33.3865 69.32705,-7.5079 139.56305,0.068 208.79105,6.9791 40.57813,-25.4349 78.39055,13.5139 87.66211,45.1673 48.96904,4.5552 55.51979,-91.3973 115.99806,-55.4189 46.79954,-4.8043 143.46544,47.7919 155.80174,-16.6514 -27.4768,-57.2952 -97.0885,-4.8245 -142.34694,-31.4354 -53.8266,-27.7383 -56.11292,-99.013 -86.41316,-146.0605 -38.2296,-59.6202 -66.95223,-125.4488 -98.26647,-188.0805 -50.73962,-28.1638 -60.69121,-84.9582 3.72805,-101.6389 85.60839,-52.4075 187.45457,-67.0614 274.87812,-115.7335 73.1443,-30.1496 144.1449,-66.3842 207.9067,-113.572 28.5239,-55.4397 -46.801,-86.5752 -90.4351,-91.18298 C 1069.7888,918.09412 932.11656,911.99682 808.78925,854.61711 726.09886,818.70681 642.5747,784.58924 558.09353,753.41145 503.47498,710.35478 415.16766,702.69397 376.79478,649.08076 c 8.24158,-46.8571 41.80104,-85.0621 56.03684,-130.46593 18.65905,-52.31533 60.63329,-83.27025 85.60513,-133.93386 C 544.84944,331.64948 492.46838,289.06518 449.85012,268.31561 394.87429,235.22408 362.35277,177.61276 312.53799,137.4865 294.86632,120.90395 281.95957,100.12377 265.55859,82.587891 Z m 73.92774,92.740229 -2.21198,0.36813 z m 3.47656,535.85547 c 98.01164,23.90192 178.52445,88.00151 273.62701,119.34806 86.48418,30.80945 169.9254,69.36826 255.1979,102.85315 111.29205,34.26678 229.0477,41.37226 340.2017,76.1041 31.0582,34.9318 -59.6238,50.159 -80.4998,72.7412 -80.2621,32.9202 -157.83419,72.7069 -241.45844,96.965 -75.44296,24.9738 -140.41964,71.1956 -202.38844,119.4617 -47.32864,17.9061 -92.75368,89.7647 -146.38786,56.3566 -63.42968,-53.8745 -112.96548,-121.1525 -157.60695,-190.9401 -33.18183,-42.5716 -60.92793,-88.9196 -82.79213,-138.2949 -56.99762,-56.23306 -35.48056,-143.87324 -6.79159,-208.39989 16.76536,-35.10418 30.1152,-72.25949 48.8986,-106.19492 z m 946.30271,325.64061 -1.8147,1.5478 z m -573.09763,304.7754 c 28.74521,50.7804 72.32434,92.792 87.4694,150.6484 31.36656,61.5647 72.74474,118.68 92.92864,185.4432 -19.89373,63.8537 -104.18574,29.2977 -153.36588,35.332 -48.9508,7.8526 -143.73775,-1.1473 -108.30517,-72.7128 22.5741,-66.3646 45.42121,-147.8243 -2.0793,-209.1472 -21.80154,-54.9749 54.30648,-64.4917 83.35231,-89.5636 z m -176.27149,90.7852 0.82995,0.7358 z m 43.33399,276.6894 c 6.22759,3.5395 -30.7624,-4.5661 0,0 z m 394.56445,3.7832 1.55855,0.3523 z m -110.0957,57.4942 c 24.48615,-4.407 12.58346,27.2908 0,0 z m -11.73438,2.5937 c 27.69704,21.5115 -30.39718,5.814 0,0 z m 48.88672,2.502 -1.43122,1.8722 z" />
  </g>
</svg>
