<?xml version="1.0" encoding="UTF-8" standalone="no"?>
<!DOCTYPE svg PUBLIC "-//W3C//DTD SVG 20010904//EN"
"http://www.w3.org/TR/2001/REC-SVG-20010904/DTD/svg10.dtd">
<svg
   width="15.294771"
   height="14.88"
   xmlns="http://www.w3.org/2000/svg"
   xmlns:sodipodi="http://sodipodi.sourceforge.net/DTD/sodipodi-0.dtd"
   xmlns:inkscape="http://www.inkscape.org/namespaces/inkscape"
   xmlns:xlink="http://www.w3.org/1999/xlink"
   id="svg1"
   sodipodi:version="0.32"
   inkscape:version="0.40"
   xmlns:rdf="http://www.w3.org/1999/02/22-rdf-syntax-ns#"
   xmlns:cc="http://web.resource.org/cc/"
   xmlns:dc="http://purl.org/dc/elements/1.1/"
   sodipodi:docname="A13B.svg"
   sodipodi:docbase="C:\PROGRA~1\JSesh\fonts">
  <defs
     id="defs5" />
  <metadata
     id="metadata4">
    <rdf:RDF
       id="RDF6">
      <cc:Work
         rdf:about=""
         id="Work7">
        <dc:format
           id="format8">image/svg+xml</dc:format>
        <dc:type
           id="type10"
           rdf:resource="http://purl.org/dc/dcmitype/StillImage" />
      </cc:Work>
    </rdf:RDF>
  </metadata>
  <sodipodi:namedview
     id="base"
     pagecolor="#ffffff"
     bordercolor="#666666"
     borderopacity="1.0"
     inkscape:pageopacity="0.0"
     inkscape:pageshadow="2"
     inkscape:zoom="44.354838"
     inkscape:cx="6.1179085"
     inkscape:cy="5.9520000"
     inkscape:window-width="1024"
     inkscape:window-height="708"
     inkscape:window-x="-4"
     inkscape:window-y="-4"
     inkscape:current-layer="svg1" />
  <path
     style="fill:#000000;stroke:none"
     d="M 6.2734489,0.00000000 C 6.5092948,0.091305496 6.6966557,0.32177054 6.9138025,0.46674522 C 7.0461653,0.65680820 7.2366842,0.54002386 7.4357741,0.55416357 C 7.8602132,0.54608346 8.2880701,0.47995580 8.7102429,0.51036532 C 9.2377060,0.87847347 10.075842,0.62802318 10.284202,1.3832788 C 10.983249,2.4985538 11.461382,3.7561915 12.357336,4.7407311 C 12.613339,5.0223228 12.960858,5.6594278 13.084376,4.9518651 C 13.316628,4.4607943 13.832451,3.7586122 14.444363,4.0930529 C 14.937192,4.2116164 15.087616,4.7717188 14.866630,5.1823397 C 14.739853,5.7337264 13.600443,6.1434889 14.390468,6.5733644 C 14.686839,6.9650055 15.386495,7.3540486 15.224697,7.8908220 C 14.946903,8.4607478 14.156912,8.4738541 13.791220,7.9843900 C 13.730290,8.4276168 13.768786,8.9870595 13.708593,9.4723799 C 13.618473,10.474479 13.451175,11.498982 12.961671,12.391359 C 12.785020,12.732173 12.210983,11.888053 12.446129,11.636656 C 12.868643,10.355648 13.232588,9.0312128 13.246829,7.6733090 C 13.129391,7.5006390 13.049315,7.2635896 12.909824,7.1289201 C 12.538116,7.5426526 12.533013,8.1918214 12.386490,8.7204215 C 12.155670,9.7093741 12.171479,10.776084 11.641808,11.673101 C 11.495052,11.943779 10.925276,12.807640 10.866770,12.116393 C 10.787371,11.853762 10.707971,11.591131 10.628572,11.328500 C 11.409489,10.727878 11.505106,9.6441319 11.509355,8.7312040 C 11.534074,8.0756193 11.700119,7.4149378 12.106202,6.8891277 C 12.583799,6.4431221 12.171280,6.0884750 11.821450,5.7294645 C 11.138244,4.9240434 10.412602,4.1468522 9.8249474,3.2663419 C 9.0709733,3.8967251 8.8037483,4.9136785 8.8657809,5.8630928 C 8.8055609,7.1673393 9.3275697,8.3936144 9.5830816,9.6496847 C 9.6989069,10.096970 9.1020352,10.759690 9.3044557,10.971648 C 9.7581051,10.999893 9.8616869,11.528206 9.7696576,11.895475 C 9.5303178,12.678828 9.4398689,13.502525 9.2254684,14.287815 C 9.0912546,14.728140 8.6221654,14.715577 8.2619605,14.827878 C 7.7496369,15.053171 7.6469122,14.390583 8.0328941,14.119208 C 8.4425443,13.678216 8.5655342,13.031072 8.5389055,12.493836 C 8.4439121,12.049486 8.0489811,12.344216 7.8028831,12.446775 C 5.9718673,13.274168 4.1288517,14.124234 2.1620675,14.572260 C 1.5168412,14.666858 0.75381948,14.761164 0.20343748,14.328622 C -0.10731435,14.005526 -0.031558958,13.459680 0.14581881,13.091288 C 0.70103991,12.192663 1.5794175,11.550790 2.4210666,10.939027 C 3.3768321,10.368921 4.3325975,9.7988146 5.2883630,9.2287083 C 5.2594360,9.0559187 5.3078539,8.8311970 5.2883630,8.6375391 C 5.2774093,7.5740130 5.3106533,6.5081357 5.2710470,5.4461306 C 5.1260832,4.4499134 4.6922862,3.4973690 4.7010370,2.4821604 C 4.7872817,1.8654881 4.9943789,1.2377973 5.3406140,0.72301841 C 5.6249447,0.44995653 5.9493722,0.22271026 6.2734489,0.00000000 z M 5.3142862,3.1108010 C 5.3518808,3.9754383 5.6534981,4.8032638 5.8076401,5.6448079 C 5.8856671,5.9237255 5.7816531,6.1708509 5.8068299,6.4593288 C 5.8068299,7.2441983 5.8068299,8.0290677 5.8068299,8.8139372 C 6.6984544,8.5353079 7.6007352,8.2431868 8.5287790,8.0880840 C 8.3959404,7.4690069 8.2856269,6.8402649 8.3213911,6.2032815 C 8.2937984,5.4012918 8.3569587,4.5776041 8.7457344,3.8567806 C 9.1125983,3.1806970 9.5206931,2.4725086 10.161951,2.0220211 C 9.9327717,1.3326942 9.1765984,0.98614276 8.4896006,1.1075725 C 7.9921193,1.1177037 7.4892779,1.2323647 6.9960622,1.1552092 C 6.5397035,1.0648169 6.2786513,0.22132868 5.9258139,0.94205028 C 5.5332454,1.5935145 5.4302940,2.3724647 5.3142862,3.1108010 z M 13.454214,5.9364452 C 13.835097,5.6758058 14.516393,5.1869205 14.270802,4.6337980 C 13.634463,4.4146138 13.587104,5.4139426 13.468948,5.8519157 L 13.454214,5.9364450 L 13.454214,5.9364452 z M 1.2961670,13.091288 C 1.3236987,13.496820 1.8021659,13.478818 2.0740288,13.342747 C 3.4066047,12.895711 4.7425434,12.459934 6.0991118,12.090379 C 6.7470189,11.895718 7.3999026,11.714575 8.0362370,11.484043 C 8.5565531,11.082540 8.9441866,10.460208 8.8657809,9.7851183 C 8.8901310,9.3935943 8.6893399,9.0344925 8.6065493,8.6583977 C 7.0140345,8.6461510 5.5603791,9.4445590 4.3444896,10.404449 C 3.2885930,11.049021 2.3247778,11.842091 1.4128222,12.673275 C 1.3264497,12.794598 1.2958754,12.945078 1.2961670,13.091288 z "
     id="path2" />
</svg>
